<?xml version="1.0" standalone="no"?>
<!DOCTYPE svg PUBLIC "-//W3C//DTD SVG 20010904//EN"
 "http://www.w3.org/TR/2001/REC-SVG-20010904/DTD/svg10.dtd">
<svg version="1.0" xmlns="http://www.w3.org/2000/svg"
 width="2048.000000pt" height="1534.000000pt" viewBox="0 0 2048.000000 1534.000000"
 preserveAspectRatio="xMidYMid meet">
<metadata>
Created by potrace 1.16, written by Peter Selinger 2001-2019
</metadata>
<g transform="translate(0.000000,1534.000000) scale(0.100000,-0.100000)"
fill="#000000" stroke="none">
<g>
<path d="M13036 15030 c-9 0 -16 -4 -16 -10 0 -5 4 -10 9 -10 6 0 13 5 16 10
3 6 -1 10 -9 10z"/>
</g>
<g>
<path d="M16437 14542 c-7 2 -32 1 -57 -2 -35 -4 -44 -9 -42 -22 1 -9 -7 -32
-19 -52 -11 -20 -26 -36 -32 -36 -7 0 -48 -35 -92 -78 -44 -42 -105 -98 -135
-124 -30 -26 -108 -93 -172 -149 -65 -56 -118 -106 -118 -111 0 -4 -6 -8 -13
-8 -7 0 -33 -20 -57 -45 -24 -25 -52 -45 -61 -45 -9 0 -24 -9 -34 -20 -10 -11
-24 -20 -31 -20 -7 0 -17 -6 -21 -13 -4 -7 -20 -20 -35 -29 -24 -16 -31 -16
-77 -2 -28 8 -57 24 -64 34 -6 11 -21 20 -33 20 -11 0 -43 20 -70 45 -27 25
-53 45 -59 45 -6 0 -29 15 -51 33 -21 17 -54 43 -73 56 -18 12 -39 24 -46 25
-7 1 -20 8 -29 15 -9 7 -16 20 -16 27 0 8 -7 14 -16 14 -9 0 -51 33 -92 73
-41 39 -96 92 -121 117 -25 25 -64 68 -86 94 -22 27 -42 54 -44 60 -2 6 -13
21 -24 34 -17 18 -27 21 -56 16 -20 -4 -56 -18 -80 -31 -24 -12 -49 -23 -56
-23 -7 0 -23 -9 -37 -19 -13 -11 -42 -23 -64 -27 -21 -4 -58 -15 -81 -25 -22
-10 -43 -16 -45 -13 -3 2 -37 -7 -76 -20 -40 -14 -93 -28 -119 -32 -27 -3 -75
-19 -109 -35 -34 -16 -69 -26 -81 -23 -14 4 -23 0 -28 -13 -4 -10 -9 -28 -11
-40 -3 -14 4 -30 18 -43 13 -12 57 -37 98 -57 41 -20 77 -40 80 -44 3 -3 14
-9 25 -13 11 -3 46 -30 77 -59 31 -29 68 -70 82 -90 15 -21 26 -41 26 -45 0
-4 47 -54 105 -112 57 -58 110 -110 117 -117 7 -7 38 -37 68 -69 44 -45 50
-55 30 -49 -14 4 -36 16 -49 26 -13 11 -29 19 -35 19 -6 0 -29 14 -50 30 -22
17 -46 30 -53 30 -8 0 -35 16 -60 35 -25 19 -52 35 -59 35 -7 0 -25 11 -41 24
-15 13 -48 33 -72 45 -25 11 -51 21 -59 21 -7 0 -28 11 -46 25 -18 14 -36 25
-40 25 -4 0 -19 9 -33 20 -14 11 -32 20 -40 20 -8 0 -42 16 -74 35 -51 30 -66
34 -100 29 -31 -5 -39 -11 -39 -28 0 -11 3 -38 6 -58 5 -28 11 -38 25 -38 11
0 19 -6 19 -14 0 -7 15 -24 33 -36 17 -12 50 -47 72 -77 22 -30 55 -75 73 -99
18 -25 55 -80 82 -122 27 -42 64 -97 82 -122 18 -25 76 -88 128 -140 52 -52
109 -105 125 -117 17 -13 40 -31 52 -40 13 -10 37 -30 55 -44 23 -20 37 -25
52 -19 15 5 32 0 59 -17 21 -13 50 -28 64 -34 14 -5 62 -33 107 -63 44 -29
101 -62 126 -74 25 -12 59 -31 75 -42 17 -11 39 -20 49 -20 11 0 43 -25 71
-55 29 -30 56 -55 59 -55 4 0 22 -11 40 -25 18 -14 37 -25 41 -25 4 0 33 -12
63 -26 50 -24 63 -26 171 -23 71 2 157 12 221 25 58 12 117 29 132 37 22 11
40 12 80 5 29 -5 72 -13 96 -18 23 -6 50 -10 60 -10 10 0 38 -10 62 -21 24
-12 49 -22 54 -24 6 -1 20 -6 31 -10 11 -4 35 -14 54 -21 18 -8 47 -14 64 -14
17 0 47 -5 66 -12 20 -6 50 -17 67 -25 18 -7 45 -10 63 -7 17 4 36 13 42 21 9
11 9 17 0 26 -9 9 -7 15 9 27 l21 16 -21 22 c-11 12 -29 22 -40 22 -10 0 -21
4 -24 9 -4 5 -37 21 -75 36 -38 15 -83 40 -101 56 -17 16 -34 29 -38 29 -4 0
-37 29 -73 63 -36 35 -87 74 -112 86 -26 13 -47 29 -47 36 0 8 9 17 20 20 11
3 20 10 20 15 0 5 -8 13 -17 19 -14 7 -15 14 -7 33 6 12 12 48 13 80 1 31 -2
64 -7 75 -5 10 -15 29 -21 43 -6 14 -15 47 -20 73 -5 27 -19 59 -32 73 -13 14
-39 33 -58 42 l-35 16 76 70 c42 39 94 98 116 132 22 33 57 92 77 130 21 38
48 80 61 95 13 14 24 28 24 32 0 4 15 27 34 51 19 25 40 62 46 83 7 21 19 46
28 55 8 10 31 66 52 125 20 60 44 122 52 138 9 17 23 57 31 90 8 33 20 82 25
108 5 27 7 57 5 67 -3 10 -10 20 -16 22z m-1888 -172 c10 0 31 -16 47 -36 16
-19 49 -56 73 -82 24 -26 80 -84 123 -129 44 -46 83 -83 87 -83 4 0 16 -9 27
-21 10 -12 44 -37 74 -57 30 -20 57 -40 59 -45 2 -5 39 -35 83 -68 44 -32 84
-59 90 -59 5 0 16 -7 24 -15 9 -8 27 -18 42 -21 15 -3 37 -10 49 -16 18 -9 20
-14 11 -25 -6 -8 -22 -13 -34 -10 -13 2 -27 1 -33 -3 -6 -3 -13 -20 -17 -36
-5 -28 -2 -32 26 -44 28 -12 33 -11 42 3 5 9 19 17 30 17 12 0 29 6 37 13 9 8
32 20 51 27 19 7 84 37 144 67 61 29 119 61 130 72 12 10 29 21 39 24 10 4 15
11 12 17 -3 5 -1 10 5 10 7 0 26 12 44 26 17 15 55 48 84 75 29 27 56 49 60
49 5 0 18 13 30 30 12 16 22 34 22 40 0 5 8 10 19 10 10 0 24 7 31 15 7 9 42
36 77 60 35 25 67 45 72 45 4 0 20 13 36 30 16 16 30 28 31 27 2 -2 -7 -32
-20 -68 -13 -35 -28 -77 -35 -92 -6 -16 -11 -31 -11 -35 0 -4 -11 -29 -25 -56
-14 -27 -25 -55 -25 -63 0 -7 -30 -59 -67 -116 -37 -56 -84 -124 -104 -152
-20 -27 -49 -72 -65 -100 -15 -27 -41 -67 -58 -88 -17 -21 -51 -53 -76 -71
-25 -18 -57 -36 -72 -39 -17 -5 -28 -3 -30 5 -3 9 -44 14 -135 16 -87 3 -145
0 -170 -8 -21 -7 -48 -22 -60 -33 -13 -11 -23 -28 -23 -36 0 -9 11 -29 25 -44
15 -15 36 -27 50 -27 14 0 25 5 25 10 0 6 9 10 19 10 10 0 21 6 24 14 4 10 26
13 86 12 44 -1 83 -5 87 -9 4 -4 15 -7 25 -7 9 0 19 -9 22 -20 3 -12 14 -20
29 -21 12 -1 26 -1 31 0 4 0 29 -11 56 -25 40 -22 52 -36 73 -83 14 -31 28
-72 32 -92 4 -25 -1 -57 -18 -110 -15 -45 -21 -80 -16 -89 5 -8 4 -23 -2 -33
-5 -10 -7 -25 -4 -32 3 -8 22 -23 43 -35 21 -11 54 -30 73 -41 19 -12 59 -39
88 -61 28 -22 52 -42 52 -45 0 -2 -4 -2 -8 1 -5 3 -39 7 -78 10 -38 3 -91 12
-119 20 -27 7 -75 17 -105 21 -30 3 -64 8 -75 11 -13 3 -32 -4 -49 -17 -16
-13 -40 -24 -53 -25 -14 -2 -31 -8 -39 -15 -8 -7 -68 -15 -142 -19 -83 -4
-136 -3 -152 4 -14 6 -27 13 -30 16 -3 3 -21 11 -40 17 -19 7 -68 44 -109 83
-63 59 -80 70 -109 70 -22 0 -47 9 -67 24 -17 14 -49 34 -71 46 -21 13 -69 38
-106 57 -38 19 -68 39 -68 44 0 5 -7 9 -15 9 -9 0 -27 11 -40 24 -13 13 -44
32 -70 41 -25 10 -49 23 -53 30 -4 6 -26 20 -49 30 -24 11 -43 25 -43 32 0 7
-9 13 -20 13 -11 0 -23 7 -26 15 -4 8 -13 15 -22 15 -8 0 -42 26 -76 58 -33
31 -89 86 -124 122 -35 36 -72 84 -83 107 -12 23 -27 47 -35 54 -8 6 -14 17
-14 25 0 7 -6 17 -14 21 -7 4 -24 26 -38 48 -14 22 -40 58 -57 79 -17 22 -30
41 -28 43 2 2 18 -4 35 -13 17 -8 34 -19 37 -24 3 -5 20 -12 38 -15 17 -4 47
-21 65 -38 17 -17 32 -27 32 -22 0 5 13 -6 28 -23 16 -18 33 -32 37 -32 5 0
16 -6 24 -14 9 -8 38 -21 66 -31 27 -9 52 -19 55 -23 3 -4 23 -19 46 -35 22
-15 46 -27 52 -27 7 0 34 -11 60 -24 39 -20 64 -24 147 -25 55 -1 107 -3 116
-4 10 -2 24 -9 33 -16 11 -9 31 -11 68 -6 29 3 61 9 70 11 9 3 26 20 38 38 11
18 20 43 20 54 0 11 -5 24 -10 27 -6 4 -17 2 -24 -4 -7 -6 -42 -11 -77 -10
-35 1 -74 1 -87 0 -15 -1 -41 15 -70 43 -26 25 -99 95 -162 156 -63 61 -127
119 -142 128 -16 9 -28 21 -28 27 0 7 -11 17 -24 25 -14 7 -27 22 -30 34 -3
11 -21 37 -40 57 -19 21 -37 46 -41 57 -3 12 -15 24 -26 27 -10 4 -19 11 -19
16 0 5 -8 12 -17 16 -10 3 -32 20 -49 37 -17 17 -44 37 -60 45 -16 7 -36 17
-44 21 -8 4 -16 13 -18 21 -1 9 32 26 101 52 58 21 122 40 144 42 21 2 63 11
91 20 29 10 69 26 90 36 20 11 55 19 79 19 23 0 45 5 48 10 3 6 14 10 24 10z"/>
<g>
<path d="M15779 13187 c-24 0 -51 -1 -59 -3 -9 -3 -27 -24 -42 -48 -14 -24
-28 -52 -32 -62 -4 -14 4 -29 30 -53 l35 -34 49 23 c27 13 58 33 68 44 11 12
22 28 25 37 3 9 -3 34 -13 56 -16 37 -20 40 -61 40z"/>
</g>
<g>
<path d="M15318 13003 c-41 6 -50 3 -78 -22 -32 -27 -32 -30 -26 -84 4 -31 13
-60 19 -65 7 -5 23 -12 37 -15 14 -4 36 -4 48 0 12 3 34 24 47 48 14 23 25 55
25 71 0 16 -6 36 -13 45 -7 9 -33 19 -59 22z"/>
</g>
</g>
<g>
<path d="M1604 14160 c-8 0 -14 -7 -14 -15 0 -8 2 -15 4 -15 2 0 11 3 20 6 9
3 13 10 10 15 -3 5 -12 9 -20 9z"/>
</g>
<g>
<path d="M1751 14101 c-21 22 -21 22 -21 2 0 -11 7 -24 16 -27 9 -4 19 -4 21
-2 3 3 -4 15 -16 27z"/>
</g>
<g>
<path d="M1802 14100 c-5 0 -12 -3 -15 -6 -4 -4 -4 -11 -1 -15 3 -5 9 -9 15
-9 5 0 9 7 9 15 0 8 -4 15 -8 15z"/>
</g>
<g>
<path d="M1858 14080 l-22 0 22 -20 c12 -11 28 -20 37 -20 8 0 15 -7 15 -15 0
-8 6 -15 14 -15 7 0 27 -7 42 -15 16 -8 30 -11 32 -5 2 5 -2 18 -8 29 -6 12
-15 21 -21 21 -6 0 -7 -4 -4 -10 3 -5 4 -10 0 -10 -3 0 -15 6 -27 13 -12 6
-30 20 -40 30 -10 9 -28 17 -40 17z"/>
</g>
<g>
<path d="M10810 14040 c-5 0 -10 -4 -10 -10 0 -5 5 -10 10 -10 6 0 10 5 10 10
0 6 -4 10 -10 10z"/>
</g>
<g>
<path d="M2091 14000 c-13 0 -18 -7 -18 -25 0 -18 5 -25 18 -25 14 0 19 7 19
25 0 18 -5 25 -19 25z"/>
</g>
<g>
<path d="M2140 13980 c-6 0 -10 -12 -8 -27 3 -25 10 -30 58 -43 30 -8 60 -18
65 -21 6 -4 26 -10 45 -14 19 -4 40 -14 46 -23 6 -8 16 -12 22 -8 7 4 12 11
12 16 0 4 -32 25 -71 45 -39 20 -77 34 -85 31 -8 -3 -14 -1 -14 4 0 6 -11 10
-24 10 -13 0 -26 7 -30 15 -3 8 -10 15 -16 15z"/>
</g>
<g>
<path d="M18294 13940 c-8 8 -14 7 -23 -4 -7 -8 -8 -17 -4 -19 5 -3 15 -2 23
3 11 7 12 12 4 20z"/>
</g>
<g>
<path d="M2405 13860 c-7 0 -16 -7 -19 -15 -3 -9 1 -18 10 -22 8 -3 20 -1 26
5 6 6 7 15 4 21 -4 6 -13 11 -21 11z"/>
</g>
<g>
<path d="M2448 13836 c-6 4 -8 0 -6 -7 3 -8 8 -13 11 -11 4 1 6 4 6 7 -1 3 -6
8 -11 11z"/>
</g>
<g>
<path d="M2502 13825 c-21 6 -23 4 -20 -17 2 -12 10 -23 18 -23 8 0 21 -8 28
-17 7 -10 24 -18 37 -18 13 0 28 -6 32 -13 4 -6 22 -19 38 -27 17 -8 33 -16
38 -18 4 -2 7 8 7 22 0 20 -8 29 -37 41 -21 8 -45 19 -53 25 -8 5 -26 16 -40
24 -14 7 -35 17 -48 21z"/>
</g>
<g>
<path d="M2707 13720 c-4 0 -10 -7 -14 -15 -3 -9 2 -22 13 -30 11 -8 24 -15
30 -15 6 0 17 -7 24 -15 7 -8 24 -15 39 -15 15 0 31 -8 39 -20 7 -11 22 -20
33 -20 11 0 32 -9 46 -20 14 -11 31 -20 39 -20 7 0 14 -4 16 -9 2 -5 15 -13
31 -16 26 -7 27 -6 27 30 0 32 -3 37 -20 32 -11 -3 -20 -2 -20 3 0 4 -19 13
-43 18 -24 6 -51 20 -61 31 -9 10 -33 22 -51 25 -19 4 -54 18 -77 31 -24 14
-47 25 -51 25z"/>
</g>
<g>
<path d="M8204 13680 c-2 0 -4 -3 -4 -8 0 -4 9 -13 20 -20 16 -10 20 -10 20 2
0 8 -7 17 -16 20 -9 3 -18 6 -20 6z"/>
</g>
<g>
<path d="M13217 13649 c-1 0 -12 -4 -25 -9 -12 -5 -25 -18 -29 -27 -3 -10 -15
-28 -26 -40 -11 -13 -26 -23 -33 -23 -7 0 -26 -16 -41 -35 -15 -19 -34 -35
-40 -35 -7 0 -31 -18 -53 -40 -22 -22 -42 -40 -44 -40 -2 0 -36 -31 -75 -70
-39 -38 -80 -70 -91 -70 -10 0 -26 -10 -34 -22 -9 -12 -30 -27 -48 -32 -18 -6
-39 -24 -48 -40 -9 -17 -36 -40 -60 -53 -25 -13 -54 -32 -65 -43 -11 -10 -40
-27 -65 -38 -25 -11 -62 -33 -83 -50 -21 -17 -48 -34 -60 -38 -12 -4 -29 -15
-38 -25 -9 -11 -19 -19 -23 -19 -4 0 -22 -11 -40 -25 -18 -14 -40 -25 -48 -25
-9 0 -18 -7 -22 -15 -3 -8 -11 -15 -18 -15 -8 0 -21 -9 -31 -20 -9 -11 -26
-20 -38 -20 -12 0 -23 -8 -26 -20 -3 -11 -8 -18 -12 -15 -4 2 -38 -11 -76 -30
-38 -19 -72 -40 -76 -47 -6 -9 -13 -7 -28 6 -15 14 -40 20 -98 22 -43 2 -90 5
-105 6 -14 2 -30 6 -34 11 -4 4 -29 7 -55 7 -26 0 -51 5 -54 10 -3 6 -17 10
-30 10 -13 0 -26 4 -29 9 -4 5 -28 15 -56 22 -41 11 -54 20 -77 56 -15 24 -30
43 -35 43 -4 0 -17 19 -29 42 -20 39 -21 53 -16 171 4 97 10 133 21 146 14 16
13 22 -11 69 -15 29 -31 52 -36 52 -5 0 -27 -16 -50 -35 -22 -19 -47 -35 -54
-35 -7 0 -13 -5 -13 -10 0 -6 -6 -10 -12 -9 -7 1 -67 -24 -133 -55 -66 -32
-149 -71 -185 -88 -36 -17 -81 -37 -100 -46 -19 -8 -43 -19 -52 -23 -10 -5
-23 -9 -28 -9 -6 0 -37 -12 -68 -26 -31 -14 -73 -33 -92 -42 -19 -8 -44 -17
-55 -19 -11 -1 -39 -5 -63 -7 -23 -3 -47 -8 -53 -12 -7 -4 -30 -8 -52 -10 -24
-2 -50 -13 -64 -26 -13 -12 -29 -23 -37 -24 -7 -1 -25 -14 -39 -28 -15 -15
-27 -33 -27 -40 0 -7 12 -24 28 -38 15 -14 41 -28 57 -31 17 -3 61 -12 99 -20
38 -9 74 -21 79 -26 6 -6 19 -11 29 -11 10 0 36 -11 58 -25 22 -14 45 -25 53
-25 7 0 29 -8 48 -18 19 -10 49 -28 66 -40 17 -12 35 -22 40 -22 6 0 38 -18
72 -40 34 -22 68 -40 75 -40 7 0 16 -3 20 -7 4 -5 11 -8 14 -8 4 0 21 -9 37
-20 17 -11 36 -28 43 -37 7 -10 22 -18 33 -18 10 0 19 -6 19 -14 0 -8 7 -16
15 -20 8 -3 15 -13 15 -21 0 -11 6 -15 19 -10 10 3 23 -1 30 -9 11 -13 9 -16
-11 -20 -12 -3 -57 -8 -98 -11 -41 -4 -113 -9 -160 -11 -47 -2 -96 -8 -110
-13 -14 -6 -50 -14 -80 -20 -30 -6 -89 -13 -130 -17 -41 -3 -100 -14 -130 -24
-30 -10 -82 -22 -115 -26 -33 -4 -67 -8 -75 -9 -8 -1 -22 -4 -30 -8 -8 -3 -31
-8 -50 -10 -19 -2 -88 -18 -153 -36 -65 -17 -150 -44 -188 -61 -39 -16 -79
-30 -88 -30 -9 0 -22 -5 -29 -12 -6 -6 -28 -17 -49 -25 -21 -7 -58 -18 -83
-24 -25 -5 -57 -22 -72 -36 l-27 -26 26 -33 c23 -30 31 -34 74 -34 26 0 50 -4
53 -9 3 -5 20 -11 38 -14 18 -3 53 -10 78 -16 25 -5 74 -18 110 -29 36 -11 78
-25 94 -31 24 -10 32 -9 44 3 13 13 18 12 41 -5 15 -11 42 -21 62 -23 19 -1
44 -8 56 -15 13 -6 53 -15 91 -20 37 -5 110 -7 162 -6 52 1 135 -4 184 -11 58
-9 94 -10 101 -4 7 5 14 7 18 4 3 -3 25 -8 49 -10 23 -3 50 -7 58 -11 8 -3 87
-7 175 -9 88 -2 184 -6 214 -9 30 -3 59 -9 64 -12 6 -4 24 -8 41 -10 17 -2 63
-6 101 -9 39 -3 94 -6 123 -7 34 -1 56 4 61 12 6 9 10 2 14 -20 3 -19 12 -52
20 -74 8 -22 39 -66 68 -99 l52 -58 -18 -37 c-10 -20 -30 -51 -43 -69 -13 -18
-22 -36 -19 -39 3 -2 -2 -14 -11 -25 -9 -11 -28 -32 -41 -47 -12 -14 -31 -42
-41 -61 -10 -19 -37 -55 -59 -79 -23 -24 -41 -49 -41 -54 0 -5 -9 -21 -20 -37
-17 -23 -18 -33 -9 -59 7 -19 20 -33 34 -37 14 -3 44 5 82 24 32 17 65 37 72
46 8 9 22 16 33 16 10 0 21 7 24 15 4 8 12 15 19 15 7 0 18 6 24 14 6 7 37 23
69 34 31 12 84 42 117 67 33 24 75 52 93 61 24 11 31 20 27 33 -4 15 2 19 37
25 24 3 58 9 77 12 19 2 40 8 45 13 6 5 33 12 61 16 36 5 63 18 99 46 27 21
53 39 59 39 6 0 34 25 64 55 29 30 53 60 53 68 0 7 5 18 11 24 6 6 15 29 19
50 5 21 16 63 26 93 13 38 18 87 18 160 1 97 -1 109 -29 163 l-29 59 62 60
c34 33 62 63 62 67 0 4 17 25 38 46 21 22 41 48 45 58 3 9 11 17 17 17 5 0 10
6 10 12 0 7 17 29 38 48 20 19 48 49 61 65 13 16 30 39 36 52 7 12 26 40 43
60 17 21 47 58 67 81 19 24 35 49 35 56 0 7 15 33 34 57 19 24 54 83 77 130
24 47 60 119 79 160 19 41 38 76 43 77 4 2 7 16 7 30 0 15 11 50 25 77 13 28
25 58 25 67 0 9 4 19 8 22 5 3 15 31 22 63 7 32 17 62 22 68 4 5 8 17 8 27 0
10 6 29 14 41 8 12 23 64 34 115 10 51 17 104 14 118 -3 15 -15 29 -29 35 -13
5 -25 9 -26 8z m-96 -229 c5 0 9 -7 9 -16 0 -9 -8 -23 -19 -32 -10 -10 -26
-42 -36 -72 -9 -30 -18 -68 -20 -85 -2 -16 -9 -46 -16 -65 -7 -19 -18 -48 -24
-65 -7 -16 -25 -61 -39 -98 -15 -38 -51 -115 -81 -170 -29 -56 -69 -129 -88
-162 -20 -33 -44 -71 -55 -85 -10 -14 -25 -36 -32 -49 -7 -14 -25 -35 -41 -49
-16 -13 -29 -29 -29 -35 0 -7 -27 -43 -60 -81 -33 -38 -60 -74 -60 -80 0 -6
-14 -24 -32 -41 -17 -16 -53 -57 -80 -90 -27 -33 -73 -79 -101 -101 l-52 -42
-38 40 c-21 22 -51 45 -65 52 -15 6 -45 23 -67 36 -22 14 -48 25 -58 25 -10 0
-27 -16 -39 -37 -20 -35 -20 -38 -4 -63 9 -14 27 -30 39 -36 12 -5 33 -16 46
-24 13 -7 26 -17 30 -22 3 -4 23 -17 43 -28 20 -10 52 -35 71 -54 19 -20 44
-52 56 -71 17 -28 21 -51 21 -121 0 -65 -4 -90 -15 -99 -8 -7 -15 -26 -15 -42
0 -17 -6 -42 -14 -56 -8 -15 -17 -40 -21 -56 -3 -16 -14 -30 -25 -33 -11 -3
-20 -11 -20 -18 0 -7 -22 -32 -49 -54 -31 -26 -55 -39 -65 -35 -11 4 -16 1
-16 -10 0 -9 -12 -21 -27 -27 -15 -6 -36 -8 -46 -5 -11 3 -30 -2 -42 -10 -14
-9 -33 -12 -47 -9 -17 4 -40 -2 -71 -19 -25 -14 -48 -26 -51 -26 -3 0 -7 10
-7 23 l-2 22 -4 -23 c-4 -18 -9 -21 -25 -17 -16 6 -19 3 -16 -17 2 -16 -7 -33
-32 -55 -19 -18 -39 -33 -45 -33 -5 0 -4 5 3 12 7 7 12 20 12 30 0 10 -7 18
-15 18 -9 0 -19 -8 -22 -17 -4 -9 -21 -29 -39 -45 -17 -15 -39 -44 -48 -63
-11 -22 -24 -35 -36 -35 -11 0 -20 -4 -20 -10 0 -5 -6 -10 -14 -10 -7 0 -19
-7 -26 -15 -7 -8 -16 -15 -21 -15 -5 0 6 21 24 48 19 26 37 54 40 62 4 8 27
42 52 75 25 33 51 71 58 85 7 14 21 41 31 60 10 19 20 53 22 75 3 39 1 43 -46
78 -27 21 -59 55 -70 78 -12 22 -20 45 -18 51 2 6 22 12 43 14 22 2 50 9 61
15 12 6 25 25 28 41 3 17 6 45 6 62 -1 17 -9 41 -20 54 -10 12 -32 25 -48 28
-28 6 -29 7 -16 32 7 15 33 46 58 69 25 24 48 54 52 67 3 14 3 30 -1 36 -4 6
-16 8 -28 4 -12 -4 -35 -20 -51 -35 -17 -16 -33 -29 -38 -29 -4 0 -8 -6 -8
-14 0 -7 -11 -21 -25 -30 -14 -9 -25 -23 -25 -31 0 -8 -7 -18 -15 -23 -9 -4
-17 -21 -19 -36 -1 -15 -8 -32 -14 -38 -7 -7 -12 -19 -12 -28 0 -9 -11 -26
-23 -39 -21 -19 -25 -20 -37 -6 -7 8 -26 15 -44 14 -17 0 -59 2 -93 5 -38 3
-63 2 -63 -4 0 -6 -8 -10 -17 -10 -10 0 -38 7 -62 16 -34 12 -71 14 -155 10
-80 -4 -127 -1 -167 9 -33 9 -100 15 -161 15 -56 -1 -119 4 -138 10 -19 6
-107 10 -195 11 -88 0 -173 2 -190 3 -16 2 -37 6 -45 10 -8 3 -42 10 -75 16
-33 6 -73 13 -90 15 -16 2 -56 8 -88 13 -32 5 -63 14 -69 20 -7 7 -24 12 -39
12 -15 0 -32 6 -38 14 -7 8 -46 22 -87 31 -41 9 -74 21 -72 27 2 5 19 15 38
22 19 7 37 12 40 13 3 1 19 5 35 9 17 4 35 10 40 14 6 4 21 10 35 13 14 3 74
19 135 37 60 17 141 36 180 41 38 5 93 13 120 19 28 6 85 16 128 23 43 7 81
17 85 24 5 7 23 8 62 2 41 -6 58 -5 70 5 8 8 42 16 76 19 33 3 71 8 85 12 13
3 56 10 94 16 39 5 104 11 146 12 46 1 83 8 93 16 9 8 16 9 16 3 0 -6 9 -14
20 -17 12 -4 28 -1 36 6 8 7 35 12 59 11 25 0 47 4 50 8 3 5 11 7 18 5 7 -3
17 -1 23 3 7 4 14 21 15 37 4 26 0 31 -28 40 -18 5 -33 13 -33 17 0 5 8 12 19
16 15 6 17 12 10 31 -9 22 -13 23 -57 18 -41 -5 -54 -2 -91 24 -24 16 -53 29
-63 29 -10 0 -26 6 -35 13 -8 6 -29 25 -45 41 -16 16 -31 26 -35 23 -3 -3 -20
5 -38 18 -17 14 -35 25 -40 25 -4 0 -51 25 -104 56 -53 31 -108 65 -123 75
-15 11 -35 19 -45 19 -10 0 -38 14 -63 30 -25 16 -52 30 -61 30 -9 0 -26 9
-39 20 -15 13 -37 20 -62 20 -26 0 -38 4 -36 12 2 6 17 16 34 21 16 4 38 12
49 17 11 5 37 16 58 26 21 9 40 14 44 11 3 -4 18 0 32 7 14 8 51 25 81 39 30
14 71 32 90 40 19 8 64 28 100 45 36 16 93 41 128 56 34 15 66 24 72 21 5 -3
21 2 36 11 14 10 40 19 57 21 17 2 36 8 41 13 6 6 20 10 33 10 15 0 23 -6 24
-17 1 -10 2 -45 4 -78 1 -33 -2 -65 -6 -70 -4 -6 -5 -36 -2 -67 3 -32 17 -76
32 -104 14 -26 35 -52 46 -58 11 -6 33 -21 48 -33 16 -13 35 -23 43 -23 8 0
14 -4 14 -9 0 -6 12 -9 28 -7 16 2 39 -6 57 -19 17 -12 44 -25 60 -29 17 -4
59 -12 95 -17 36 -6 69 -14 75 -19 6 -5 34 -12 63 -16 49 -6 52 -8 52 -35 0
-27 2 -29 42 -29 26 0 64 11 98 27 30 15 57 30 60 34 3 3 32 19 65 34 33 16
62 33 63 37 2 4 10 8 17 8 7 0 15 7 19 15 3 8 16 15 30 15 14 0 28 5 32 11 3
6 32 27 63 46 31 20 79 56 107 80 28 23 55 43 60 43 5 0 27 14 48 30 22 17 48
30 58 30 10 0 21 7 24 15 4 8 12 15 19 15 8 0 30 15 50 34 20 19 42 33 49 30
8 -3 20 1 27 8 8 7 26 21 41 31 15 9 34 17 43 17 8 0 15 4 15 8 0 4 13 16 30
25 16 10 37 25 46 35 10 9 31 27 48 40 17 12 65 56 108 97 42 41 79 75 82 75
3 0 17 11 32 25 15 14 31 25 35 25z"/>
<g>
<path d="M11945 11645 c-16 0 -39 -3 -50 -9 -12 -5 -33 -26 -48 -47 -15 -20
-27 -44 -27 -51 0 -8 20 -29 44 -46 27 -20 56 -32 76 -32 22 0 39 9 61 33 16
17 32 42 35 55 4 12 3 33 0 47 -4 15 -18 31 -34 37 -15 7 -40 12 -57 13z"/>
</g>
<g>
<path d="M11695 11210 c-8 0 -15 -4 -15 -10 0 -5 7 -10 15 -10 8 0 15 5 15 10
0 6 -7 10 -15 10z"/>
</g>
</g>
<g>
<path d="M3072 13570 c-4 0 -13 -4 -21 -9 -11 -7 -10 -13 5 -35 11 -14 24 -26
31 -26 6 0 13 -4 15 -8 2 -4 26 -18 55 -30 28 -12 59 -22 67 -22 9 0 16 -6 16
-14 0 -7 10 -16 23 -20 12 -3 33 -6 46 -6 14 0 32 -6 40 -14 9 -8 47 -17 85
-20 38 -3 75 -11 82 -17 8 -6 25 -9 39 -7 13 3 26 0 28 -6 2 -6 21 -12 43 -13
21 -2 57 -4 79 -4 22 -1 59 0 82 2 25 2 45 9 48 18 3 7 3 17 0 20 -4 3 -30 7
-58 8 -29 1 -74 5 -102 9 -27 3 -60 7 -72 8 -12 0 -25 4 -29 8 -4 4 -14 2 -22
-4 -11 -10 -16 -8 -24 6 -7 12 -17 16 -33 12 -13 -3 -40 1 -61 10 -21 9 -53
16 -70 16 -19 0 -35 6 -38 14 -3 8 -15 14 -26 14 -11 0 -28 4 -38 10 -9 5 -28
14 -42 20 -14 5 -32 14 -40 19 -8 5 -32 17 -52 25 -20 9 -40 21 -43 26 -3 6
-9 10 -13 10z"/>
</g>
<g>
<path d="M8409 13560 c-5 0 -9 -4 -9 -10 0 -5 7 -10 16 -10 8 0 12 5 9 10 -3
6 -10 10 -16 10z"/>
</g>
<g>
<path d="M8458 13530 c-9 0 -20 -5 -23 -11 -4 -6 -4 -13 -1 -17 4 -3 14 2 23
11 16 16 16 17 1 17z"/>
</g>
<g>
<path d="M8498 13506 c-6 4 -8 0 -6 -7 3 -8 8 -13 11 -11 4 1 6 4 6 7 -1 3 -6
8 -11 11z"/>
</g>
<g>
<path d="M8560 13480 c-5 0 -10 -9 -10 -21 0 -11 5 -17 10 -14 6 3 10 13 10
21 0 8 -4 14 -10 14z"/>
</g>
<g>
<path d="M8602 13454 c-5 3 -12 3 -15 0 -2 -3 -3 -13 0 -23 3 -10 16 -24 29
-30 14 -6 31 -11 39 -11 8 0 15 3 15 6 0 3 -10 14 -22 24 -17 13 -27 15 -36 8
-9 -8 -11 -7 -7 5 4 8 2 18 -3 21z"/>
</g>
<g>
<path d="M8709 13390 c-4 0 -9 -9 -12 -21 -4 -14 -2 -19 8 -15 7 2 21 -6 31
-20 11 -13 22 -24 26 -24 5 0 8 7 8 15 0 8 -12 26 -27 40 -15 14 -31 25 -34
25z"/>
</g>
<g>
<path d="M3884 13349 c-11 0 -14 -3 -6 -6 7 -3 16 -2 19 1 4 3 -2 6 -13 5z"/>
</g>
<g>
<path d="M8816 13320 c-7 0 -16 -9 -19 -20 -3 -11 -2 -20 2 -20 4 0 12 5 19
12 7 7 12 16 12 20 0 4 -6 8 -14 8z"/>
</g>
<g>
<path d="M8853 13298 c-8 2 -13 -6 -13 -23 0 -17 5 -25 13 -22 6 2 12 12 12
22 0 10 -6 20 -12 23z"/>
</g>
<g>
<path d="M8887 13273 c-4 9 -6 9 -6 0 -1 -6 3 -14 9 -18 5 -3 7 -12 3 -20 -3
-9 1 -15 11 -15 9 0 16 -4 16 -10 0 -5 5 -10 11 -10 6 0 26 -7 45 -16 19 -9
34 -23 34 -30 0 -8 6 -15 13 -15 6 -1 19 -1 27 0 9 1 23 -12 33 -29 16 -26 20
-28 37 -17 17 10 23 7 47 -22 20 -23 38 -34 61 -36 18 -1 35 -5 39 -9 3 -3 -2
-6 -13 -6 -15 -1 -16 -2 -4 -9 8 -5 24 -8 35 -7 11 1 26 5 32 9 8 5 15 -3 21
-25 4 -18 15 -34 23 -36 12 -2 16 7 17 33 1 29 -2 35 -18 35 -11 0 -28 4 -38
9 -9 5 -42 20 -72 34 -31 14 -62 32 -69 41 -7 8 -28 18 -46 22 -19 3 -36 12
-39 20 -3 8 -18 20 -33 26 -16 7 -32 12 -38 12 -5 1 -17 10 -26 21 -14 16 -19
17 -33 6 -14 -12 -16 -11 -16 6 0 10 -5 24 -12 31 -7 7 -20 12 -29 12 -10 0
-20 6 -22 13z"/>
</g>
<g>
<path d="M9414 12970 c-8 0 -12 -4 -9 -10 3 -5 10 -10 16 -10 5 0 9 5 9 10 0
6 -7 10 -16 10z"/>
</g>
<g>
<path d="M6982 12849 c-26 -1 -54 -3 -62 -4 -8 -2 -62 -9 -120 -15 -58 -6
-125 -19 -150 -27 -25 -8 -74 -29 -110 -45 -36 -16 -72 -34 -80 -39 -8 -5 -43
-23 -77 -39 -34 -17 -68 -40 -74 -52 -7 -13 -30 -42 -53 -64 -23 -23 -68 -69
-101 -103 -33 -33 -63 -61 -67 -61 -5 0 -8 -6 -8 -14 0 -8 -10 -23 -22 -33
-13 -10 -36 -47 -53 -83 -16 -36 -36 -73 -44 -83 -8 -10 -44 -26 -80 -37 -37
-11 -92 -22 -124 -24 -33 -1 -62 -7 -65 -12 -4 -5 -34 -11 -67 -14 -33 -2
-105 -4 -160 -3 -55 0 -134 5 -175 11 -41 6 -107 18 -147 26 -39 8 -79 19 -90
25 -10 5 -49 20 -88 32 -38 12 -88 30 -109 40 -22 11 -44 19 -49 19 -5 0 -37
12 -71 26 -33 15 -101 46 -151 69 -49 23 -121 53 -160 66 -38 13 -78 30 -88
38 -9 8 -20 11 -24 8 -3 -4 -16 -1 -27 7 -12 7 -36 17 -54 21 -18 4 -45 13
-60 21 -15 7 -52 21 -82 30 -30 9 -80 25 -110 36 -30 11 -75 24 -100 28 -25 4
-54 10 -66 13 -12 3 -54 15 -95 27 -41 13 -101 28 -134 35 -48 10 -80 10 -167
-1 -59 -7 -115 -17 -125 -22 -10 -5 -40 -12 -68 -16 -39 -4 -54 -11 -70 -33
-11 -16 -39 -49 -63 -75 -38 -41 -44 -52 -39 -80 2 -18 -1 -45 -9 -59 -7 -15
-14 -48 -14 -75 -1 -27 0 -71 3 -99 3 -27 12 -64 21 -81 9 -17 25 -39 36 -49
11 -10 20 -25 20 -34 0 -9 8 -28 18 -44 10 -15 47 -57 81 -93 35 -36 87 -81
115 -99 29 -18 68 -48 87 -67 19 -18 50 -42 69 -53 19 -11 55 -31 81 -45 25
-14 59 -34 75 -46 16 -11 47 -30 69 -41 22 -11 60 -31 85 -44 25 -13 47 -27
50 -30 3 -3 13 -8 23 -12 9 -3 17 -13 17 -20 0 -8 7 -20 16 -28 11 -9 18 -9
22 -2 5 8 19 5 46 -8 21 -10 55 -22 75 -25 20 -4 47 -15 60 -25 13 -11 32 -19
42 -19 10 0 34 -13 52 -30 19 -16 42 -30 51 -30 8 0 30 -9 48 -19 17 -11 36
-18 40 -15 5 4 17 0 26 -8 9 -8 28 -19 42 -25 14 -7 46 -19 72 -27 26 -9 56
-20 65 -25 10 -5 54 -26 98 -46 44 -20 89 -40 100 -45 11 -4 36 -14 55 -22 19
-9 50 -19 67 -22 18 -4 35 -12 38 -17 4 -5 15 -9 26 -9 10 0 28 -9 38 -19 11
-11 45 -25 77 -31 32 -7 86 -26 121 -42 35 -17 66 -35 69 -39 3 -5 14 -9 26
-9 11 0 37 -9 57 -19 20 -11 70 -36 111 -56 41 -21 79 -41 84 -45 4 -5 -5 -16
-20 -27 -16 -10 -37 -28 -47 -40 -10 -13 -28 -23 -39 -23 -12 0 -36 -11 -54
-25 -18 -14 -37 -25 -42 -25 -5 0 -20 -9 -33 -20 -13 -11 -43 -36 -65 -55 -23
-19 -44 -35 -47 -35 -4 0 -37 -20 -74 -45 -37 -25 -72 -45 -78 -45 -5 0 -26
-11 -45 -24 -19 -13 -50 -27 -67 -30 -18 -4 -36 -13 -40 -20 -5 -7 -34 -27
-66 -45 -38 -22 -65 -31 -80 -27 -13 3 -51 23 -85 46 -35 22 -68 40 -75 40 -7
0 -23 9 -37 20 -14 11 -29 20 -34 20 -6 0 -19 8 -30 18 -12 10 -37 25 -56 32
-19 7 -43 20 -52 28 -9 7 -36 18 -60 23 -23 6 -50 16 -58 23 -8 7 -28 16 -43
20 -23 5 -38 -1 -88 -40 -33 -25 -65 -58 -71 -73 -6 -14 -10 -41 -9 -60 0 -18
-4 -42 -10 -53 -7 -14 -6 -27 5 -50 9 -17 16 -35 16 -40 0 -5 -16 -16 -35 -24
-19 -7 -50 -14 -70 -14 -20 0 -48 8 -63 17 -15 10 -36 29 -47 42 -11 14 -25
51 -31 83 -6 32 -7 61 -3 64 5 3 9 14 9 24 0 11 9 37 20 59 12 21 37 55 56 75
19 20 43 36 53 36 10 0 21 3 24 7 4 3 3 11 -2 17 -6 8 1 12 22 13 18 1 60 7
93 14 42 8 73 9 95 3 25 -7 35 -17 41 -42 5 -20 18 -36 31 -41 13 -5 29 -16
36 -25 13 -15 16 -15 37 5 17 16 21 26 13 35 -5 6 -7 24 -3 38 4 19 0 31 -20
51 -14 14 -26 30 -26 35 0 6 -4 10 -9 10 -5 0 -22 11 -38 24 -15 13 -44 26
-63 30 -19 4 -50 8 -68 7 -18 0 -40 -5 -47 -11 -8 -7 -19 -9 -24 -6 -5 4 -12
2 -16 -4 -3 -5 -15 -10 -26 -10 -10 0 -36 -9 -56 -20 -21 -11 -45 -18 -53 -15
-11 3 -37 -17 -76 -58 -32 -34 -74 -93 -93 -130 -31 -61 -34 -75 -34 -153 1
-55 5 -89 13 -94 6 -4 17 -19 25 -33 7 -14 21 -41 31 -59 9 -18 20 -40 24 -48
4 -8 20 -15 36 -17 16 -1 54 -7 84 -13 30 -6 69 -11 87 -11 18 1 49 10 69 21
20 12 44 20 53 19 9 -2 27 1 41 5 14 5 33 15 42 23 11 10 25 12 40 7 13 -4 56
-23 97 -42 46 -23 77 -44 84 -59 6 -14 33 -34 64 -49 30 -13 91 -52 136 -85
45 -34 93 -66 107 -73 14 -6 31 -16 37 -22 7 -7 29 -22 50 -35 21 -13 41 -27
44 -32 3 -4 18 -15 34 -23 15 -8 31 -14 37 -14 5 0 21 -8 36 -19 15 -10 54
-36 87 -57 33 -21 78 -48 100 -58 22 -11 49 -29 60 -39 11 -10 36 -27 56 -37
19 -10 42 -26 50 -36 7 -9 65 -56 127 -103 63 -47 145 -106 182 -131 38 -25
91 -58 119 -75 28 -16 51 -32 51 -35 0 -3 24 -23 53 -45 28 -21 63 -49 77 -61
14 -12 41 -31 60 -43 19 -11 64 -35 100 -54 36 -19 76 -38 90 -42 14 -4 50
-24 80 -44 30 -19 64 -41 75 -48 11 -6 61 -33 110 -58 50 -26 108 -59 130 -74
22 -16 63 -41 90 -57 28 -15 70 -38 94 -51 25 -13 50 -23 58 -23 7 0 13 -4 13
-8 0 -4 21 -14 48 -21 26 -8 49 -17 52 -20 3 -3 32 -15 65 -25 33 -11 67 -25
75 -31 8 -6 53 -30 100 -53 47 -22 126 -55 175 -72 50 -18 131 -46 180 -62 50
-17 101 -36 115 -43 14 -7 42 -16 63 -20 20 -4 37 -11 37 -15 0 -4 30 -10 68
-13 37 -3 81 -11 97 -16 17 -6 57 -20 90 -32 33 -12 75 -21 94 -20 19 1 58 -5
85 -13 28 -8 69 -17 91 -20 22 -3 76 -13 120 -22 49 -11 126 -18 200 -18 66 0
172 3 235 7 63 4 124 8 135 10 11 1 29 8 41 14 12 7 52 17 90 23 38 6 103 18
144 26 41 8 93 22 115 30 22 9 69 40 105 69 36 29 81 67 102 86 20 19 56 63
81 99 24 36 67 114 96 174 39 82 53 125 57 170 2 34 5 66 5 71 1 6 -1 45 -4
87 -3 42 -11 86 -17 97 -6 12 -15 21 -20 21 -6 0 -10 7 -10 15 0 8 -13 41 -28
73 -16 31 -49 94 -75 138 -26 45 -53 87 -62 94 -8 7 -15 18 -15 24 0 7 -10 22
-23 34 -13 12 -28 22 -34 22 -6 0 -35 20 -64 44 -35 29 -78 52 -121 66 -38 12
-68 26 -68 31 0 5 -7 9 -15 9 -9 0 -47 15 -85 34 -37 19 -79 37 -91 41 -13 4
-50 26 -83 49 -34 23 -79 48 -101 55 -22 8 -52 22 -67 32 -14 11 -30 19 -35
19 -6 0 -18 9 -28 20 -10 11 -24 20 -32 20 -7 0 -13 5 -13 10 0 6 -9 10 -20
10 -11 0 -20 5 -20 10 0 6 -12 10 -26 10 -14 0 -38 8 -52 19 -15 10 -44 28
-64 40 -21 11 -55 31 -75 42 -21 12 -40 24 -43 28 -3 4 -40 15 -82 24 -43 9
-97 25 -120 36 -24 10 -81 26 -127 34 -46 9 -87 20 -90 24 -3 4 -33 8 -66 8
-33 1 -89 7 -125 14 -36 7 -100 24 -143 37 -43 13 -82 22 -87 19 -5 -3 -11 -1
-15 5 -3 6 -21 17 -38 25 -18 8 -57 28 -87 46 -30 17 -82 42 -114 54 -51 19
-57 24 -40 32 10 6 53 21 94 33 41 13 95 34 119 47 24 12 50 23 58 23 8 0 24
10 36 23 12 12 34 28 50 35 15 6 62 49 106 94 43 46 109 119 147 163 38 44 82
97 97 117 15 20 27 41 27 47 0 6 14 36 30 66 17 30 30 64 30 74 0 10 10 43 21
72 12 30 31 73 41 97 11 23 24 73 30 110 5 37 11 97 12 133 2 37 6 71 10 78 4
6 0 25 -8 43 -9 17 -12 36 -8 42 5 6 8 47 7 91 -2 44 -8 98 -14 120 -6 22 -17
49 -25 60 -9 11 -16 32 -16 46 0 15 -7 32 -15 39 -9 7 -14 19 -11 27 3 7 -3
22 -14 33 -14 14 -18 28 -15 43 4 16 -7 45 -40 99 -25 42 -52 81 -60 88 -8 7
-15 21 -15 31 0 10 -25 51 -55 91 -30 40 -56 75 -57 78 -2 3 -39 36 -82 73
-43 37 -83 67 -87 67 -4 0 -25 11 -46 25 -21 14 -43 29 -50 35 -7 6 -29 14
-50 18 -32 7 -39 12 -41 36 -2 18 -8 26 -17 22 -8 -3 -28 2 -46 11 -18 9 -61
22 -97 30 -35 7 -68 11 -73 7 -5 -3 -9 -1 -9 4 0 5 -34 16 -75 25 -42 10 -97
16 -123 16z m-25 -121 c43 -4 105 -10 138 -13 33 -3 88 -15 123 -25 35 -11 68
-18 72 -15 5 3 11 1 15 -5 3 -5 41 -26 83 -46 42 -20 79 -40 80 -45 2 -5 9 -9
16 -9 6 0 22 -8 35 -17 12 -10 55 -44 94 -77 40 -32 82 -68 93 -80 12 -12 34
-42 49 -66 16 -25 34 -51 42 -58 7 -7 16 -25 19 -40 4 -15 19 -43 34 -62 15
-19 36 -53 47 -75 11 -22 25 -51 30 -65 6 -14 23 -61 37 -105 15 -44 33 -105
39 -135 7 -32 12 -122 11 -215 -1 -88 -4 -182 -7 -210 -4 -27 -8 -57 -10 -65
-2 -8 -7 -26 -11 -39 -5 -13 -18 -40 -30 -60 -11 -20 -27 -52 -33 -71 -7 -19
-13 -43 -13 -53 0 -9 -17 -49 -37 -88 -21 -40 -57 -93 -80 -119 -24 -27 -43
-53 -43 -59 0 -6 -7 -11 -15 -11 -9 0 -18 -8 -22 -17 -3 -10 -22 -38 -42 -63
-19 -25 -42 -50 -51 -56 -8 -7 -26 -22 -40 -34 -14 -13 -49 -38 -78 -57 -30
-19 -84 -50 -120 -68 -37 -19 -80 -39 -97 -46 -16 -7 -52 -13 -79 -15 -26 -2
-62 -8 -80 -13 -17 -6 -73 -13 -124 -16 -52 -3 -99 -2 -105 3 -7 5 -47 15 -91
21 -43 7 -99 24 -124 37 -25 13 -55 24 -66 24 -12 0 -26 4 -31 9 -6 5 -45 19
-88 31 -42 11 -93 28 -113 36 -20 8 -54 32 -76 52 -22 20 -55 51 -72 68 -17
17 -44 47 -60 65 -22 24 -30 43 -29 68 1 20 -3 44 -8 53 -5 10 -16 18 -24 18
-8 0 -30 9 -49 21 -27 16 -36 29 -41 59 -4 21 -15 46 -26 56 -10 9 -19 27 -19
40 0 13 -5 26 -10 29 -6 4 -10 15 -8 24 2 10 -2 24 -8 32 -6 8 -17 60 -24 116
-11 89 -11 127 4 285 10 118 21 187 30 197 7 9 19 33 25 53 7 21 10 46 7 56
-3 9 3 48 13 84 11 37 27 77 35 90 9 12 16 32 16 43 0 11 9 38 20 60 11 21 25
54 31 72 6 20 21 38 34 43 15 6 35 31 52 66 15 31 33 59 40 61 7 3 33 26 58
51 24 24 47 53 50 62 3 9 17 22 31 28 14 7 30 12 37 12 7 1 22 9 35 19 12 11
22 24 22 29 0 5 20 19 45 31 25 12 53 21 63 21 10 0 26 6 37 14 11 7 52 23 90
34 39 12 88 24 110 28 22 4 46 9 52 13 7 4 48 3 90 -1z m-3477 -165 c52 -2
109 -6 125 -9 17 -2 48 -8 70 -13 22 -5 60 -15 84 -21 24 -6 51 -15 60 -20 10
-5 55 -16 102 -25 46 -10 89 -21 94 -24 6 -4 30 -14 55 -21 25 -8 71 -27 103
-42 31 -16 64 -28 72 -28 8 0 18 -6 22 -14 4 -7 28 -20 53 -29 25 -8 59 -18
77 -21 17 -4 37 -14 44 -22 6 -8 17 -14 24 -14 7 0 16 -7 19 -16 5 -13 9 -14
21 -4 12 10 19 10 33 -2 9 -9 33 -18 52 -21 19 -3 45 -8 56 -11 12 -2 42 -14
68 -26 26 -11 51 -18 56 -15 5 3 11 1 14 -4 3 -5 25 -19 47 -31 23 -12 63 -28
88 -37 25 -8 60 -21 76 -27 17 -7 59 -22 95 -34 36 -12 79 -21 95 -20 17 0 71
-3 120 -7 50 -4 96 -12 102 -17 7 -6 24 -8 37 -4 13 3 58 6 100 7 42 1 78 5
81 9 3 4 31 11 62 15 32 4 73 9 90 10 18 2 45 6 60 9 16 3 43 8 61 11 18 3 32
1 32 -5 0 -5 -7 -29 -14 -52 -8 -24 -27 -92 -41 -153 -16 -64 -31 -168 -37
-250 -5 -77 -7 -158 -3 -180 3 -22 8 -60 9 -85 2 -25 7 -58 10 -74 l7 -29 -43
36 c-24 20 -59 51 -79 68 -20 17 -50 39 -67 49 -17 11 -36 28 -42 39 -6 12
-16 21 -23 21 -7 0 -56 36 -110 80 -53 44 -99 80 -102 80 -4 0 -21 11 -39 25
-18 14 -35 25 -38 25 -3 0 -37 19 -74 42 -38 23 -139 77 -224 120 -85 43 -209
97 -275 119 -65 22 -147 54 -182 70 -34 16 -68 29 -76 29 -8 0 -22 9 -32 20
-10 11 -24 20 -30 20 -7 0 -30 8 -51 18 -22 10 -58 30 -81 45 -24 15 -47 27
-53 27 -5 0 -10 4 -10 8 0 5 -11 14 -24 20 -14 6 -44 24 -68 39 -24 15 -47 28
-53 29 -5 0 -23 6 -38 12 -16 7 -35 12 -43 12 -8 0 -22 4 -32 9 -9 5 -46 21
-82 34 -36 14 -95 28 -133 32 -39 4 -70 13 -75 21 -5 10 -17 11 -47 4 -22 -5
-68 -10 -103 -10 -35 0 -73 -5 -84 -11 -12 -6 -45 -36 -75 -65 -38 -39 -53
-62 -53 -82 0 -15 14 -47 30 -71 17 -24 30 -50 30 -57 0 -7 9 -18 20 -24 11
-6 20 -17 20 -25 0 -8 4 -15 10 -15 5 0 7 -7 4 -15 -5 -11 1 -15 19 -15 16 0
42 -18 78 -52 29 -29 62 -58 73 -63 14 -7 23 -25 28 -54 4 -24 13 -49 19 -57
6 -8 20 -14 30 -14 10 0 22 7 27 17 7 11 3 27 -11 52 l-21 36 25 -22 c13 -12
58 -38 99 -58 41 -20 87 -43 102 -51 14 -7 35 -14 45 -14 11 0 32 -13 48 -30
22 -23 38 -30 66 -30 21 0 42 -7 49 -15 7 -9 19 -14 26 -11 7 2 20 -4 30 -15
9 -10 23 -19 31 -19 7 0 21 -4 31 -9 9 -5 28 -13 42 -18 14 -6 48 -17 76 -26
29 -10 57 -17 64 -17 6 0 53 -17 103 -39 51 -21 108 -43 128 -50 19 -6 47 -11
62 -11 14 0 29 -4 32 -10 3 -5 16 -10 28 -10 12 0 31 -7 41 -15 11 -8 32 -15
47 -15 15 0 30 -4 33 -9 4 -5 25 -12 49 -16 23 -4 47 -12 54 -17 7 -5 17 -7
22 -3 6 3 32 -3 57 -14 26 -12 52 -21 58 -21 6 0 28 -9 49 -20 20 -11 44 -20
53 -20 10 0 37 -16 61 -36 24 -20 79 -54 123 -75 43 -22 82 -44 85 -49 3 -5
23 -17 43 -27 20 -9 42 -21 47 -25 6 -5 26 -18 45 -31 19 -12 54 -31 77 -42
24 -11 43 -23 43 -27 0 -5 9 -8 19 -8 11 0 23 -4 26 -10 3 -5 18 -10 33 -10
15 0 36 -7 46 -15 11 -8 31 -15 44 -15 14 0 34 -9 46 -20 12 -11 47 -47 78
-78 32 -32 71 -78 86 -103 16 -24 44 -58 63 -74 19 -17 48 -40 66 -53 17 -12
38 -22 47 -22 9 0 16 -4 16 -10 0 -5 14 -17 31 -25 17 -9 29 -19 26 -21 -2 -3
-24 5 -48 18 -24 12 -45 26 -47 30 -2 4 -14 8 -26 8 -12 0 -55 21 -96 46 -41
26 -97 57 -125 69 -27 13 -67 26 -89 29 -21 3 -46 12 -56 21 -9 8 -24 15 -33
15 -9 0 -17 4 -17 10 0 5 -11 17 -24 25 -18 12 -30 14 -44 6 -14 -8 -22 -5
-35 10 -9 10 -24 19 -32 19 -8 0 -15 7 -15 15 0 9 -11 20 -25 25 -13 5 -35 11
-47 12 -13 2 -44 18 -70 36 -26 17 -50 32 -53 32 -4 0 -39 16 -79 35 -40 19
-77 35 -82 35 -5 0 -45 15 -89 34 -44 18 -94 42 -111 52 -16 11 -46 29 -65 41
-19 13 -45 23 -58 23 -13 0 -65 14 -115 31 -50 17 -107 40 -126 50 -19 11 -49
19 -66 19 -17 0 -37 6 -43 14 -7 8 -37 24 -69 37 -31 12 -64 28 -73 36 -8 7
-20 13 -26 13 -6 0 -53 21 -104 46 -52 26 -104 55 -117 65 -13 10 -47 27 -75
38 -29 10 -77 31 -107 45 -30 15 -64 32 -75 39 -11 6 -24 18 -28 25 -4 6 -12
12 -17 12 -6 0 -19 9 -29 19 -12 12 -28 17 -39 14 -12 -3 -30 4 -47 19 -15 12
-30 23 -33 23 -4 0 -29 16 -56 35 -27 19 -55 34 -63 32 -9 -2 -49 13 -90 33
-41 20 -91 51 -111 68 -20 18 -55 45 -77 60 -22 15 -65 52 -95 82 -30 30 -66
67 -80 82 -14 15 -41 60 -60 98 -33 67 -35 74 -33 163 2 51 8 103 14 115 6 12
34 43 63 70 32 30 60 47 76 47 14 0 36 7 50 14 18 10 51 13 120 9z m76 -303
c17 0 30 -10 43 -31 11 -18 17 -38 14 -45 -3 -8 -1 -20 5 -27 5 -6 13 -50 17
-97 l7 -85 -27 27 c-15 15 -35 30 -44 33 -9 3 -28 24 -42 46 -13 23 -37 54
-53 70 -28 27 -29 28 -12 53 9 14 21 26 27 26 6 0 17 7 25 15 9 8 26 15 40 15z
m165 -49 c5 -13 9 -43 8 -65 0 -23 4 -73 9 -112 5 -40 17 -82 26 -95 9 -13 16
-29 16 -37 0 -8 -8 -6 -22 8 -13 11 -33 23 -46 27 -21 5 -23 10 -20 62 1 31 5
61 9 66 4 6 7 42 7 80 0 39 1 75 2 80 1 6 6 -1 11 -14z m99 19 c5 0 12 -4 15
-10 3 -5 15 -10 26 -10 10 0 27 -4 37 -8 9 -5 27 -14 39 -20 13 -7 28 -12 35
-12 6 0 44 -16 84 -36 40 -20 78 -42 85 -50 6 -8 18 -14 25 -14 8 0 33 -12 57
-27 23 -15 58 -35 77 -45 19 -10 42 -22 50 -28 8 -5 26 -14 40 -20 14 -5 32
-14 40 -20 8 -5 33 -17 55 -26 22 -9 58 -25 81 -35 22 -11 46 -19 54 -19 7 0
51 -19 99 -42 47 -23 88 -45 91 -49 3 -4 19 -11 35 -14 17 -4 58 -21 93 -37
37 -17 62 -35 62 -45 0 -9 6 -13 14 -10 7 3 33 -1 57 -10 24 -8 51 -21 60 -29
8 -8 23 -14 33 -14 9 0 26 -5 36 -10 11 -6 32 -23 46 -37 21 -21 27 -36 26
-66 -1 -22 5 -65 13 -97 8 -32 15 -62 15 -66 0 -5 -4 -4 -8 1 -4 6 -23 17 -42
26 -19 9 -50 20 -67 23 -18 4 -35 12 -38 17 -4 5 -17 9 -30 9 -13 0 -27 5 -30
10 -3 6 -21 10 -39 10 -19 0 -51 7 -72 17 -22 9 -55 19 -74 23 -19 4 -64 18
-100 30 -36 13 -74 26 -85 30 -11 4 -36 12 -55 18 -19 6 -54 14 -77 18 -24 4
-43 10 -43 14 0 4 -18 10 -40 14 -23 3 -49 11 -58 16 -9 5 -42 18 -72 28 -30
11 -108 45 -173 76 -64 31 -123 56 -130 56 -7 0 -29 12 -50 26 -21 14 -50 28
-64 30 -14 3 -43 14 -64 25 -22 11 -39 26 -39 33 0 7 7 19 15 26 8 7 15 19 15
27 0 8 -11 25 -24 38 -22 22 -26 37 -31 116 -3 50 -10 100 -16 110 -5 11 -7
24 -4 29 3 6 10 10 15 10z m1568 -770 c4 0 21 -13 37 -28 17 -15 37 -39 46
-52 9 -14 19 -38 23 -55 4 -16 10 -49 13 -72 4 -33 2 -43 -9 -43 -8 0 -22 8
-31 18 -9 10 -29 47 -45 82 -16 36 -32 84 -35 108 -3 23 -2 42 1 42z m302
-236 c23 -15 40 -35 40 -45 0 -12 7 -19 20 -19 11 0 27 -12 36 -27 9 -16 25
-40 35 -55 11 -15 19 -31 19 -37 0 -5 -10 -7 -22 -4 -13 3 -37 11 -55 19 -18
8 -35 19 -38 24 -3 6 -13 10 -22 10 -8 0 -25 8 -36 18 -19 15 -22 26 -19 79
l3 63 39 -26z m-27 -543 c10 -11 10 -14 0 -18 -7 -3 -13 -12 -13 -20 0 -10 -6
-13 -16 -9 -12 5 -30 -7 -60 -38 -23 -25 -60 -54 -81 -65 -22 -11 -45 -27 -52
-35 -8 -9 -20 -16 -29 -16 -8 0 -40 -24 -71 -52 -31 -29 -59 -61 -64 -72 -4
-11 -13 -16 -22 -12 -10 3 -47 -20 -98 -61 -45 -36 -109 -78 -142 -93 -33 -15
-66 -34 -74 -43 -12 -16 -16 -15 -52 5 -22 12 -39 25 -39 30 0 4 10 14 23 22
12 8 47 28 77 45 30 17 66 35 80 41 14 5 32 15 40 20 8 6 24 14 35 19 11 5 31
21 44 35 14 14 30 26 37 26 7 0 33 16 58 35 26 19 53 35 61 35 8 0 15 5 15 10
0 6 7 10 15 10 9 0 18 7 21 15 4 8 11 15 18 15 6 0 19 9 29 20 9 11 25 20 36
20 11 0 21 3 23 8 2 4 25 18 52 32 27 14 51 33 53 42 3 10 22 22 44 28 22 6
39 16 39 22 0 8 4 8 13 -1z m152 -71 c18 -11 40 -20 49 -20 10 0 32 -11 50
-25 18 -14 37 -25 43 -25 5 0 29 -9 54 -20 24 -11 59 -28 78 -38 19 -9 36 -22
38 -28 2 -6 -11 -18 -30 -27 -18 -9 -49 -32 -69 -51 -20 -20 -40 -31 -43 -26
-3 5 -26 -12 -50 -38 -24 -26 -50 -53 -57 -60 -7 -6 -32 -28 -54 -47 -23 -19
-45 -35 -48 -35 -4 0 -33 -20 -64 -45 -31 -24 -64 -51 -74 -59 -9 -8 -53 -43
-98 -78 -45 -34 -95 -72 -112 -82 -30 -19 -32 -19 -62 -2 -17 10 -67 37 -111
59 -44 22 -83 45 -87 50 -3 6 -17 11 -30 13 -12 1 -31 3 -40 3 -10 1 -32 14
-50 30 l-33 30 40 16 c22 8 45 19 51 23 7 4 45 34 85 67 41 33 82 70 92 82 10
13 25 23 34 23 8 0 45 21 82 47 36 26 77 57 90 69 13 13 44 33 69 45 24 13 48
34 53 47 7 19 14 23 33 18 17 -4 30 1 48 22 14 15 40 39 58 55 l32 27 33 -20z
m-1617 -171 c8 0 30 -16 50 -37 20 -21 52 -44 70 -51 18 -8 37 -22 42 -31 5
-10 31 -23 56 -29 26 -7 59 -20 73 -30 14 -10 42 -24 61 -31 19 -7 45 -22 57
-33 13 -11 26 -17 30 -14 3 4 12 -2 20 -13 8 -11 18 -20 23 -20 5 0 21 -11 36
-25 15 -14 33 -25 40 -25 7 0 33 -9 59 -20 25 -11 75 -40 110 -65 61 -44 63
-47 50 -71 -7 -14 -21 -31 -31 -39 -14 -10 -19 -26 -19 -58 l0 -46 -35 22
c-19 11 -46 27 -60 36 -14 8 -29 19 -35 25 -5 6 -28 20 -49 31 -22 11 -44 25
-50 30 -6 6 -33 26 -61 45 -27 19 -78 57 -111 85 -34 27 -93 73 -132 102 -38
28 -88 61 -111 72 -22 12 -47 21 -56 21 -13 0 -16 8 -14 33 2 17 0 33 -4 35
-4 1 -18 2 -32 2 -16 0 -25 -6 -25 -16 0 -10 -7 -14 -22 -12 -18 2 -24 11 -26
36 -2 17 1 32 6 32 5 0 14 11 20 24 6 14 21 26 34 29 13 2 29 5 36 6z m2270
-10 c7 0 34 -4 60 -10 26 -6 54 -14 63 -19 9 -5 33 -12 53 -15 20 -4 39 -11
42 -16 3 -5 20 -9 38 -9 18 0 36 -3 40 -7 4 -4 21 -8 39 -10 18 -1 50 -5 72
-8 22 -4 70 -6 108 -6 56 1 67 -1 67 -15 0 -9 8 -23 18 -31 9 -7 41 -24 70
-38 29 -14 58 -25 66 -25 7 0 23 -11 36 -25 13 -14 28 -25 35 -25 6 0 18 -9
28 -20 9 -11 27 -20 39 -20 13 0 34 -9 48 -20 14 -11 35 -20 46 -20 12 0 27
-7 34 -15 7 -8 27 -15 44 -15 17 0 49 -7 71 -14 22 -8 61 -17 85 -21 25 -4 51
-11 57 -17 7 -6 20 -7 29 -4 9 4 23 1 30 -5 8 -6 21 -8 30 -5 9 3 21 3 27 -1
7 -4 26 -13 43 -19 17 -6 51 -10 75 -9 24 0 47 -3 50 -8 3 -4 21 -9 40 -11 19
-2 41 -5 49 -9 8 -3 45 -13 82 -22 37 -10 69 -24 72 -31 3 -7 21 -16 41 -20
19 -3 38 -10 41 -15 3 -5 14 -9 24 -9 10 0 25 -8 32 -17 7 -10 41 -33 76 -50
35 -18 68 -33 73 -33 6 0 43 -19 82 -42 40 -23 88 -50 107 -60 19 -10 39 -18
45 -18 5 0 21 -9 35 -20 14 -11 33 -20 42 -20 9 0 21 -6 25 -12 4 -7 26 -23
48 -35 22 -12 72 -37 110 -57 39 -20 75 -36 81 -36 6 0 17 -7 24 -15 7 -9 21
-13 31 -10 10 3 33 -2 51 -11 18 -9 47 -28 64 -40 17 -13 35 -24 40 -24 6 0
34 -22 64 -50 30 -27 58 -50 63 -50 4 0 6 -4 2 -9 -3 -6 3 -18 13 -28 11 -10
25 -35 31 -55 7 -20 20 -47 29 -60 9 -13 23 -34 31 -48 8 -14 17 -32 21 -40 4
-8 15 -31 25 -50 10 -19 23 -38 29 -42 6 -4 13 -50 14 -104 3 -80 0 -106 -18
-157 -13 -34 -38 -96 -58 -137 -22 -47 -53 -92 -82 -120 -26 -25 -57 -60 -69
-77 -12 -18 -46 -48 -74 -66 -29 -18 -63 -40 -77 -49 -14 -8 -48 -20 -75 -26
-31 -7 -54 -7 -61 -1 -6 5 -20 7 -30 3 -11 -3 -30 -10 -44 -16 -14 -6 -38 -16
-55 -23 -16 -8 -57 -18 -90 -23 -33 -6 -107 -11 -165 -11 -58 -1 -167 -2 -242
-3 -96 -2 -142 2 -150 10 -7 7 -31 12 -54 12 -24 0 -46 5 -49 10 -4 6 -15 8
-24 5 -10 -3 -45 2 -78 10 -34 9 -65 15 -70 13 -4 -1 -46 10 -93 24 -47 15
-102 30 -123 33 -20 4 -40 11 -43 16 -3 5 -17 9 -31 9 -15 0 -85 20 -157 44
-72 24 -157 51 -188 60 -31 9 -60 21 -63 26 -3 6 -15 10 -25 10 -10 0 -49 15
-87 34 -37 18 -99 47 -138 64 -38 16 -84 33 -102 37 -17 3 -37 13 -44 21 -6 8
-20 14 -30 14 -11 0 -43 8 -72 18 -28 11 -83 39 -122 63 -38 25 -85 51 -102
58 -18 7 -33 17 -33 21 0 4 -20 15 -45 26 -25 10 -45 22 -45 26 0 4 -6 8 -14
8 -7 0 -19 7 -26 14 -6 8 -33 23 -58 33 -26 9 -55 24 -64 33 -9 8 -41 28 -72
43 -31 16 -58 33 -61 38 -4 5 -14 9 -23 9 -9 0 -27 10 -41 23 -15 13 -70 43
-125 68 -54 24 -103 50 -110 59 -6 8 -32 32 -58 53 -25 20 -51 37 -57 37 -6 0
-11 5 -11 10 0 6 -6 10 -13 10 -7 0 -37 18 -67 40 -30 22 -70 50 -88 62 -18
13 -61 44 -95 70 -34 26 -67 48 -72 48 -6 0 -36 25 -68 55 -31 30 -57 59 -57
65 0 5 -7 10 -16 10 -9 0 -39 20 -67 45 -28 24 -63 47 -79 50 -15 4 -28 10
-28 15 0 5 -13 11 -30 15 -26 6 -29 9 -19 26 7 14 7 24 0 33 -6 7 -29 18 -52
25 l-42 13 7 44 c4 33 14 53 37 74 31 28 32 28 65 12 19 -8 34 -19 34 -23 0
-5 17 -11 37 -15 21 -4 62 -20 93 -37 30 -16 65 -35 77 -43 11 -7 46 -27 77
-44 31 -16 62 -30 70 -30 7 0 21 -9 31 -20 10 -11 22 -20 26 -20 4 0 48 -19
96 -43 48 -23 102 -52 118 -63 17 -12 77 -44 135 -72 58 -28 117 -54 133 -57
15 -4 30 -11 33 -16 3 -5 12 -9 21 -9 8 0 32 -13 52 -28 20 -16 76 -52 124
-80 48 -29 92 -52 98 -52 6 0 23 -8 37 -18 15 -10 47 -27 72 -36 25 -10 61
-27 80 -39 19 -11 37 -23 40 -26 3 -4 19 -14 35 -23 17 -10 64 -34 105 -54 41
-20 83 -40 92 -45 10 -5 25 -9 35 -9 9 0 44 -13 77 -29 34 -16 79 -36 101 -46
22 -9 48 -20 57 -25 10 -6 23 -10 30 -10 7 0 36 -11 63 -25 28 -13 59 -25 69
-25 11 0 27 -6 35 -14 9 -8 34 -21 56 -29 22 -8 74 -29 115 -47 41 -18 83 -36
92 -41 10 -5 27 -9 38 -9 11 0 20 -4 20 -10 0 -5 6 -10 13 -10 8 0 45 -10 83
-22 38 -11 79 -28 91 -35 12 -8 30 -13 40 -11 10 1 32 -2 48 -9 17 -6 57 -19
90 -28 33 -9 69 -20 80 -25 11 -4 36 -15 55 -23 20 -9 67 -22 105 -30 39 -8
89 -20 112 -26 23 -6 45 -16 48 -21 3 -6 13 -10 21 -10 9 0 21 -6 28 -13 9 -8
34 -12 72 -10 32 1 93 -2 134 -7 41 -5 140 -14 219 -20 140 -9 145 -9 200 14
31 13 89 38 130 55 41 18 96 51 122 74 26 23 65 56 88 72 22 17 44 41 47 55 4
14 13 32 21 42 11 12 13 32 8 80 -5 53 -10 67 -36 91 -17 16 -28 34 -25 42 2
7 0 27 -7 44 -6 17 -19 34 -29 37 -10 3 -18 9 -18 14 0 5 -12 22 -26 37 -14
15 -30 33 -35 38 -5 6 -20 20 -34 33 -13 12 -27 22 -31 22 -4 0 -30 17 -58 38
-28 21 -73 48 -101 60 -27 11 -79 35 -115 52 -36 18 -74 37 -85 43 -11 7 -27
16 -35 22 -8 5 -21 10 -30 11 -8 2 -38 11 -66 21 -28 11 -62 26 -75 34 -13 9
-58 32 -99 52 -41 19 -89 39 -105 43 -17 3 -38 13 -47 22 -10 8 -48 23 -85 33
-36 10 -69 23 -72 28 -4 5 -20 13 -36 17 -17 4 -35 11 -41 16 -7 5 -16 8 -20
6 -5 -1 -42 10 -82 26 -41 16 -76 35 -79 42 -3 8 -16 14 -28 14 -13 0 -26 4
-30 9 -3 5 -20 13 -38 16 -17 4 -66 25 -107 46 -41 21 -95 51 -120 65 -25 14
-46 30 -48 35 -2 5 -12 9 -23 9 -10 0 -47 14 -81 30 -34 17 -73 30 -86 30 -14
0 -22 3 -19 7 4 3 -34 26 -83 50 -49 23 -94 43 -99 43 -5 0 -38 14 -73 31 -34
17 -70 35 -78 40 -8 5 -26 14 -39 19 -14 6 -59 27 -100 47 -42 20 -83 39 -91
42 -8 4 -41 16 -72 26 -32 11 -58 23 -58 28 0 4 -9 5 -20 2 -14 -4 -20 -2 -20
9 0 8 -14 17 -32 22 -18 3 -42 12 -53 20 -11 7 -46 22 -77 34 -32 12 -58 25
-58 30 0 5 -8 11 -17 13 -10 3 -12 5 -5 6z m-242 -29 c2 0 15 -5 29 -12 14 -6
24 -18 23 -27 -2 -8 -12 -18 -23 -21 -11 -3 -37 -18 -58 -35 -20 -16 -37 -34
-37 -40 0 -5 -15 -22 -33 -37 -17 -15 -48 -40 -67 -56 -19 -15 -47 -33 -62
-39 -14 -7 -32 -24 -40 -39 -7 -15 -33 -38 -58 -51 -25 -13 -49 -29 -55 -37
-5 -7 -36 -29 -68 -49 -31 -20 -60 -37 -64 -37 -3 0 -25 -16 -49 -35 -23 -19
-45 -35 -49 -35 -4 0 -20 -11 -37 -25 -24 -21 -32 -23 -48 -13 -19 12 -19 13
0 33 11 12 20 24 20 28 0 3 15 21 33 40 17 19 42 38 54 42 13 3 43 26 67 51
24 24 49 44 55 44 6 0 15 9 20 19 6 10 36 33 66 50 31 18 58 38 61 45 3 8 18
16 34 19 15 4 41 18 57 32 15 14 48 43 73 65 25 22 55 43 68 46 12 3 22 10 22
15 0 5 11 9 25 9 18 0 25 5 25 18 0 10 3 22 7 25 3 4 8 7 9 7z m188 -77 c11
-3 40 -14 63 -24 24 -10 47 -19 53 -19 5 0 26 -10 47 -22 21 -11 49 -27 63
-35 14 -7 32 -13 40 -13 9 0 24 -6 35 -14 11 -7 38 -19 60 -26 22 -7 49 -19
60 -26 11 -8 24 -14 30 -14 6 0 53 -22 105 -50 52 -27 103 -53 114 -56 12 -4
67 -29 124 -57 56 -27 105 -54 108 -59 3 -4 14 -8 25 -8 11 0 63 -21 117 -46
53 -25 115 -54 137 -66 22 -11 81 -41 131 -67 50 -25 109 -55 132 -65 23 -10
49 -27 58 -38 10 -10 23 -18 31 -18 7 0 13 -5 13 -11 0 -6 6 -9 14 -6 7 3 44
-10 82 -29 38 -18 75 -34 82 -34 6 0 12 -4 12 -10 0 -5 9 -10 20 -10 11 0 23
-7 27 -16 4 -12 14 -14 40 -9 25 4 35 2 39 -10 4 -10 13 -13 26 -9 10 3 24 1
31 -4 7 -5 27 -12 45 -16 19 -3 50 -13 70 -22 20 -8 56 -24 80 -35 23 -10 42
-23 42 -28 0 -5 16 -12 36 -16 20 -3 51 -14 70 -22 19 -9 34 -20 34 -25 0 -4
9 -8 19 -8 11 0 23 -4 26 -10 3 -5 14 -10 23 -10 9 0 28 -9 41 -19 14 -10 31
-17 39 -14 7 3 26 -4 42 -16 16 -11 35 -21 42 -21 7 -1 29 -14 48 -30 19 -17
42 -30 52 -30 10 0 20 -10 24 -25 5 -20 11 -24 30 -19 13 3 24 2 24 -4 0 -5
18 -17 39 -26 22 -8 69 -44 105 -80 38 -38 76 -87 90 -119 15 -30 26 -61 26
-70 0 -9 5 -19 10 -22 6 -3 10 -10 10 -16 0 -5 -26 -37 -57 -72 -32 -34 -72
-70 -90 -79 -18 -10 -42 -18 -52 -18 -11 0 -23 -5 -26 -11 -4 -5 -39 -26 -77
-45 -64 -30 -80 -34 -162 -35 -50 -1 -116 3 -146 9 -30 6 -83 16 -118 22 -34
6 -66 9 -70 6 -5 -3 -41 6 -81 19 -40 14 -86 25 -101 25 -16 0 -59 7 -97 16
-37 8 -75 21 -83 29 -8 7 -42 18 -75 24 -33 6 -64 13 -70 15 -5 1 -17 6 -25 9
-8 4 -35 11 -60 16 -25 6 -83 21 -130 35 -47 13 -116 36 -155 50 -38 14 -79
30 -90 35 -11 4 -70 32 -131 60 -61 28 -116 51 -122 51 -6 0 -23 6 -39 14 -15
8 -53 22 -83 32 -30 9 -59 20 -65 24 -5 4 -27 10 -47 14 -20 4 -38 10 -40 14
-2 4 -28 18 -58 31 -30 13 -64 27 -75 31 -11 4 -42 17 -70 28 -27 12 -61 24
-75 28 -14 4 -37 15 -52 25 -14 11 -29 19 -32 19 -4 0 -35 17 -69 39 -34 21
-74 41 -89 45 -16 3 -28 11 -28 16 0 6 -7 10 -15 10 -8 0 -15 4 -15 8 0 5 -35
25 -77 45 -43 20 -85 37 -94 37 -9 0 -24 9 -34 20 -10 11 -27 22 -39 26 -11 4
-37 19 -56 34 -20 16 -69 44 -110 63 -41 19 -85 38 -97 41 -12 4 -41 18 -65
31 -24 14 -52 29 -63 34 -12 5 -27 16 -34 25 -7 9 -21 16 -31 16 -10 0 -23 6
-29 14 -7 8 -25 18 -41 21 -16 3 -34 13 -41 21 -6 8 -17 14 -24 14 -7 0 -18 7
-25 15 -10 12 -10 15 4 15 9 0 16 6 16 14 0 8 23 35 51 60 28 25 59 46 69 46
9 0 29 9 43 20 14 11 31 20 37 20 7 0 28 14 47 30 18 17 40 30 47 30 8 0 35
24 61 52 26 29 57 58 69 65 11 7 28 15 36 19 8 4 29 19 46 33 18 14 51 42 75
61 24 19 61 53 83 76 28 30 44 40 60 37z"/>
<g>
<path d="M7417 12479 c-1 -1 -10 -3 -20 -6 -11 -3 -27 -12 -38 -21 -10 -9 -19
-25 -19 -36 0 -11 -6 -27 -14 -35 -8 -9 -16 -25 -17 -36 -2 -12 9 -33 29 -53
29 -29 40 -34 102 -39 52 -4 75 -2 92 9 13 8 29 32 36 52 8 21 11 52 8 70 -4
19 -15 41 -25 50 -10 9 -44 23 -75 31 -31 8 -58 14 -59 14z"/>
</g>
<g>
<path d="M6260 12150 c-24 0 -41 -7 -55 -24 -11 -13 -26 -33 -32 -45 -7 -11
-13 -28 -13 -37 0 -9 9 -29 21 -45 18 -25 27 -29 69 -29 32 0 54 6 66 17 9 9
22 31 29 47 10 22 10 36 2 55 -6 14 -20 34 -31 43 -12 10 -37 18 -56 18z"/>
</g>
<g>
<path d="M7060 12105 c-30 2 -64 0 -75 -2 -11 -3 -29 -12 -40 -19 -11 -8 -27
-14 -36 -14 -10 0 -45 -12 -78 -27 -34 -15 -61 -33 -61 -40 0 -8 -9 -17 -20
-21 -11 -4 -36 -32 -55 -62 -19 -30 -35 -64 -35 -77 0 -12 -9 -37 -20 -55 -11
-18 -20 -46 -20 -63 0 -16 -7 -43 -15 -59 -9 -17 -20 -49 -25 -73 -7 -29 -7
-66 1 -114 6 -38 17 -82 25 -97 8 -15 14 -32 14 -39 0 -6 3 -13 8 -15 4 -1 20
-23 36 -46 17 -24 49 -57 72 -73 24 -16 46 -29 51 -29 5 0 24 -13 43 -30 19
-16 42 -29 51 -30 9 0 28 -9 41 -20 20 -15 32 -18 56 -11 17 5 39 7 50 5 10
-3 38 2 62 10 25 9 52 16 60 16 8 0 49 22 91 49 41 27 89 65 107 85 18 20 32
41 32 47 0 6 11 25 24 42 14 18 32 52 41 77 9 25 23 81 31 125 8 44 13 103 12
130 -1 28 -8 69 -16 93 -7 23 -18 42 -23 42 -5 0 -9 9 -9 21 0 11 -18 46 -39
77 -21 31 -52 69 -67 83 -16 14 -58 40 -94 56 -36 17 -78 36 -95 43 -16 7 -55
14 -85 15z m6 -132 c35 -1 73 -7 83 -12 10 -6 21 -8 24 -5 3 3 14 -3 24 -13
10 -10 31 -27 46 -38 15 -11 27 -25 27 -32 0 -7 4 -13 9 -13 4 0 22 -30 39
-67 23 -53 32 -89 37 -158 4 -61 3 -100 -5 -120 -7 -16 -14 -42 -16 -57 -2
-16 -22 -57 -44 -93 -24 -37 -62 -79 -90 -100 -26 -19 -54 -35 -62 -35 -8 0
-18 -4 -23 -9 -6 -4 -31 -14 -56 -20 -39 -11 -53 -10 -90 2 -24 9 -69 29 -99
46 -30 16 -72 51 -94 76 -21 26 -46 68 -56 94 -9 25 -20 67 -23 92 -6 41 -3
50 19 74 18 20 24 36 21 53 -3 13 0 41 5 61 5 20 21 65 35 99 19 44 34 67 51
73 13 5 21 13 18 18 -3 5 20 21 52 35 31 15 67 32 80 39 14 8 48 12 88 10z"/>
</g>
<g>
<path d="M7731 11689 c-3 -1 -16 -4 -28 -6 -12 -2 -27 -10 -33 -18 -6 -8 -13
-48 -16 -91 -2 -42 -11 -98 -19 -123 -7 -25 -17 -67 -20 -93 -3 -27 -10 -48
-16 -48 -5 0 -9 -12 -9 -27 0 -16 -9 -39 -20 -53 -11 -14 -20 -31 -20 -38 0
-7 -7 -15 -15 -18 -8 -3 -17 -15 -21 -27 -4 -12 -27 -49 -53 -84 -25 -34 -52
-62 -58 -63 -7 0 -13 -5 -13 -11 0 -6 -9 -24 -21 -40 -11 -16 -29 -29 -40 -29
-10 0 -19 -6 -19 -13 0 -7 -13 -20 -29 -30 -16 -9 -38 -17 -49 -17 -12 0 -24
-5 -27 -10 -4 -6 -10 -8 -15 -5 -5 3 -22 -1 -38 -9 -16 -8 -34 -21 -40 -29 -7
-8 -22 -12 -37 -9 -14 2 -31 0 -38 -6 -7 -6 -48 -10 -92 -9 -44 1 -83 6 -86
11 -4 5 -15 5 -25 1 -11 -5 -26 -7 -34 -6 -8 2 -38 14 -66 27 -28 13 -65 27
-83 30 -22 5 -59 33 -119 93 -48 47 -96 102 -105 122 -9 20 -23 42 -32 49 -8
7 -15 19 -15 26 0 8 -13 35 -29 61 -16 27 -32 65 -36 85 -4 21 -13 42 -21 49
-8 6 -26 8 -44 4 -16 -4 -34 -15 -40 -24 -5 -10 -8 -20 -6 -22 2 -2 6 -30 9
-61 3 -31 16 -76 28 -100 13 -24 23 -45 24 -48 0 -3 8 -16 16 -30 9 -14 31
-50 50 -80 19 -30 33 -58 32 -62 -2 -5 4 -8 13 -8 8 0 34 -19 58 -42 23 -24
71 -63 106 -86 43 -30 89 -50 139 -63 41 -10 87 -19 102 -19 15 0 30 -4 33 -9
3 -5 23 -12 43 -16 21 -4 74 -7 117 -6 55 2 91 8 117 22 21 10 46 19 56 19 10
0 47 12 83 27 36 16 91 42 123 59 31 17 85 57 119 90 33 32 69 76 78 97 9 21
29 52 43 70 14 18 42 53 61 80 20 26 36 53 36 61 0 7 7 19 15 26 8 7 17 28 21
49 3 20 10 50 14 66 5 17 15 55 23 85 9 30 17 84 18 120 1 36 1 73 0 83 0 9
-8 17 -16 17 -9 0 -12 6 -9 15 4 8 1 22 -6 30 -7 8 -15 14 -19 14z"/>
</g>
<g>
<path d="M5720 9790 c-5 0 -10 -4 -10 -10 0 -5 5 -10 10 -10 6 0 10 5 10 10 0
6 -4 10 -10 10z"/>
</g>
</g>
<g>
<path d="M493 11380 c-7 0 -10 -6 -7 -14 3 -8 15 -17 26 -20 12 -3 26 -2 31 1
5 3 -1 12 -14 19 -13 7 -29 13 -36 14z"/>
</g>
<g>
<path d="M599 11350 c-3 0 -9 -3 -12 -7 -4 -3 -7 -10 -7 -15 0 -4 8 -8 18 -8
10 0 23 -5 29 -11 6 -6 20 -8 32 -4 12 3 21 10 21 15 0 5 -17 14 -37 19 -21 6
-41 11 -44 11z"/>
</g>
<g>
<path d="M787 11309 c-26 4 -50 4 -53 -1 -3 -4 3 -11 13 -14 10 -3 28 -10 41
-15 13 -5 32 -9 43 -9 12 0 17 -4 13 -11 -4 -7 9 -10 40 -8 25 2 48 0 52 -4 4
-4 13 -7 21 -7 7 0 13 6 13 14 0 8 -4 18 -10 21 -5 3 -18 2 -27 -4 -12 -6 -20
-5 -28 5 -5 8 -23 17 -40 19 -16 3 -52 9 -78 14z"/>
</g>
<g>
<path d="M1004 11270 c-8 0 -14 -4 -14 -8 0 -5 6 -17 14 -27 8 -11 20 -16 29
-12 9 3 19 2 22 -4 4 -5 11 -6 17 -3 6 4 13 2 17 -3 3 -6 16 -13 29 -17 18 -6
22 -3 22 12 0 11 -7 25 -15 32 -9 7 -18 10 -21 7 -3 -3 -24 1 -46 9 -22 8 -47
14 -54 14z"/>
</g>
<g>
<path d="M1183 11236 c-6 1 -14 -1 -17 -4 -3 -3 -6 -15 -6 -27 0 -20 7 -23 53
-28 28 -3 56 -1 61 3 5 5 18 3 30 -3 11 -7 23 -15 26 -19 3 -4 26 -9 50 -10
25 -2 50 -7 56 -11 7 -4 15 0 18 9 3 9 4 19 1 24 -2 4 -21 10 -42 13 -21 3
-49 9 -63 12 -14 3 -49 10 -78 15 -29 5 -58 12 -65 17 -6 4 -17 8 -24 9z"/>
</g>
<g>
<path d="M1538 11160 c-17 0 -28 -5 -28 -14 0 -7 11 -16 25 -18 14 -3 29 0 35
7 5 6 7 15 3 18 -3 4 -19 7 -35 7z"/>
</g>
<g>
<path d="M1646 11140 c-22 0 -36 -5 -36 -13 0 -6 14 -18 30 -26 17 -7 42 -10
55 -7 14 4 25 11 25 16 0 5 -9 14 -19 20 -11 5 -36 10 -55 10z"/>
</g>
<g>
<path d="M1805 11112 c-22 3 -48 3 -57 1 -10 -2 -18 -9 -18 -14 0 -5 12 -14
26 -19 14 -6 30 -8 35 -4 5 3 9 0 9 -6 0 -7 12 -9 34 -5 21 4 43 2 57 -6 13
-8 33 -15 44 -17 11 -2 34 -3 52 -3 18 1 35 -4 38 -9 3 -6 16 -10 28 -10 13 0
31 -6 42 -13 11 -8 34 -17 51 -20 17 -3 35 -2 41 4 6 6 19 2 37 -12 14 -11 33
-19 41 -16 7 3 19 -1 25 -8 9 -11 17 -12 32 -4 15 8 24 7 36 -4 9 -7 33 -20
52 -27 19 -7 39 -17 44 -22 6 -4 26 -8 46 -8 24 0 43 -7 54 -19 10 -11 25 -17
36 -14 10 3 27 -4 39 -16 11 -11 35 -27 53 -34 18 -8 49 -17 69 -21 21 -3 42
-13 49 -21 7 -8 21 -15 31 -15 11 0 19 5 19 10 0 6 -9 19 -21 31 -11 11 -23
18 -26 15 -4 -3 -12 -1 -19 5 -7 6 -30 19 -51 30 -20 10 -42 19 -47 19 -5 0
-17 6 -25 14 -9 7 -39 20 -68 30 -28 9 -60 16 -70 16 -10 0 -35 11 -55 25 -20
14 -61 30 -90 37 -29 6 -55 11 -58 11 -3 -1 -12 -4 -21 -8 -11 -4 -18 1 -22
16 -5 19 -8 20 -21 10 -13 -11 -17 -11 -21 1 -4 11 -29 17 -78 22 -40 4 -73
11 -75 16 -2 5 -9 7 -17 4 -7 -3 -24 0 -37 7 -12 7 -34 14 -48 16 -14 2 -32 6
-40 7 -8 2 -23 7 -33 11 -10 4 -21 5 -24 2 -3 -4 -13 -3 -22 2 -9 5 -34 11
-56 13z"/>
</g>
<g>
<path d="M4453 3450 c-15 0 -40 -16 -69 -45 -24 -25 -44 -52 -44 -60 0 -8 -4
-15 -9 -15 -5 0 -46 -36 -92 -80 -45 -44 -86 -80 -91 -80 -4 0 -8 -6 -8 -14 0
-8 -26 -36 -57 -63 -32 -27 -73 -55 -91 -63 -18 -7 -54 -37 -80 -66 -26 -28
-69 -70 -97 -92 -27 -21 -63 -47 -80 -56 -16 -9 -43 -25 -60 -35 -24 -15 -30
-24 -28 -50 0 -18 4 -35 7 -39 4 -3 25 -5 48 -3 29 1 49 10 68 29 15 15 39 37
54 50 15 12 31 22 34 22 4 0 7 -26 7 -58 0 -31 2 -61 4 -66 3 -6 4 -31 2 -56
-1 -25 3 -58 8 -73 6 -15 13 -58 16 -95 3 -37 9 -100 13 -140 l8 -73 -43 -20
c-24 -11 -64 -23 -91 -28 -26 -5 -108 -12 -182 -16 -74 -4 -232 -9 -350 -10
-118 -1 -294 -6 -390 -10 -96 -4 -179 -11 -185 -15 -5 -3 -50 -7 -100 -9 -49
-1 -117 -6 -150 -10 -33 -5 -141 -10 -240 -10 -99 0 -247 -3 -330 -6 -82 -4
-170 -7 -195 -8 -25 -1 -175 2 -335 7 -159 4 -454 7 -655 7 -201 -1 -392 -2
-425 -3 -33 -1 -78 4 -100 10 -34 9 -42 8 -55 -6 -8 -9 -21 -29 -27 -44 -11
-25 -10 -29 10 -42 12 -8 45 -16 72 -17 28 -1 95 4 151 11 71 9 114 9 147 2
26 -5 73 -7 104 -4 32 3 112 5 178 3 66 -2 136 -4 155 -4 19 0 103 3 185 7 83
3 157 7 165 8 8 0 47 -3 85 -7 39 -4 131 -7 205 -6 74 1 167 4 205 6 39 3 174
7 300 10 127 2 277 9 334 15 57 6 116 8 132 5 16 -4 33 -3 39 0 6 4 41 8 78 9
37 2 166 6 287 10 121 3 225 7 230 7 6 1 82 0 170 -1 88 -1 237 3 330 9 94 6
184 16 200 21 17 5 42 8 56 5 15 -3 39 -11 54 -19 17 -9 41 -13 59 -9 17 3 36
12 43 20 9 12 15 12 35 2 15 -8 71 -12 168 -12 89 0 182 7 240 17 52 9 113 18
135 21 22 2 61 4 86 4 26 0 104 7 173 16 70 8 148 20 174 26 26 6 68 22 93 35
36 18 63 24 112 24 36 0 77 -4 91 -9 13 -6 102 -13 198 -17 95 -4 202 -7 238
-6 36 1 101 4 145 7 44 3 103 7 130 9 28 2 75 7 105 10 30 4 74 11 99 17 24 5
62 7 85 4 23 -3 210 -8 416 -11 206 -4 416 -6 465 -6 50 -1 135 0 190 0 55 1
116 2 135 2 19 -1 105 -1 190 -1 85 0 297 -2 470 -5 173 -3 340 -7 370 -8 30
-2 116 -6 190 -10 73 -4 137 -9 141 -12 4 -2 11 0 14 6 5 8 11 7 21 -1 11 -9
44 -10 122 -5 59 4 168 8 242 8 80 0 140 4 148 10 9 8 19 8 35 0 12 -6 67 -11
122 -11 55 0 163 -5 240 -10 77 -6 147 -11 155 -12 8 0 42 -5 75 -11 33 -6 87
-12 120 -14 33 -2 96 -6 140 -10 44 -4 128 -9 186 -11 103 -5 107 -4 123 18
12 18 16 20 16 7 0 -9 10 -20 21 -23 12 -4 24 -3 28 3 3 5 16 12 29 16 14 5
27 2 38 -8 12 -12 39 -16 112 -17 53 -1 160 -2 237 -4 77 -1 194 -6 260 -9 66
-3 125 -7 130 -8 6 0 24 -2 40 -4 17 -1 79 -7 138 -13 60 -6 126 -15 147 -21
22 -6 90 -11 152 -11 62 -1 136 -3 163 -4 28 -1 52 -4 55 -5 3 -1 28 -4 55 -6
28 -2 68 -6 90 -9 22 -4 72 -9 110 -12 39 -3 111 -6 161 -7 49 -1 96 -6 103
-11 8 -4 40 -10 71 -12 34 -2 61 0 65 7 4 7 12 7 27 -1 11 -6 72 -14 136 -18
65 -4 121 -4 126 0 5 4 18 1 30 -6 12 -8 30 -14 41 -14 11 0 33 -3 49 -7 22
-5 31 -3 38 10 9 15 12 16 26 3 10 -8 24 -14 32 -15 8 0 42 -3 75 -6 33 -3
105 -11 160 -16 55 -5 179 -8 275 -7 107 2 183 7 195 14 15 9 21 8 30 -3 7
-10 36 -15 92 -17 52 -3 84 0 86 7 2 7 13 4 29 -6 14 -9 47 -17 74 -18 27 0
72 -2 99 -4 28 -2 68 -7 90 -13 22 -5 55 -6 74 -2 24 5 41 3 57 -7 12 -8 37
-15 55 -14 19 0 84 -4 145 -9 62 -5 120 -11 130 -15 11 -3 48 -8 84 -12 36 -3
88 -7 115 -9 28 -1 66 -5 85 -9 19 -4 58 -8 85 -10 28 -2 64 -7 80 -10 17 -3
66 -9 110 -13 44 -3 123 -7 175 -8 52 -1 106 -5 119 -9 13 -5 27 -4 33 2 7 7
19 7 37 0 14 -5 105 -10 203 -11 130 -1 180 2 192 12 8 7 20 10 27 6 6 -4 14
-3 18 2 4 7 14 7 31 0 15 -6 152 -11 335 -12 171 -1 342 -6 380 -12 39 -6 104
-16 145 -22 41 -6 116 -13 165 -16 50 -3 133 -9 185 -15 52 -5 154 -14 225
-20 72 -6 162 -12 202 -14 40 -3 77 -8 84 -11 6 -4 92 -10 190 -13 99 -2 179
0 179 4 0 5 55 9 122 9 68 1 139 2 158 4 19 2 135 3 258 2 127 -1 231 3 241 9
10 5 65 12 122 15 57 3 128 7 158 9 29 2 81 7 115 11 33 4 75 9 91 10 17 2 71
6 120 10 50 4 95 11 100 15 6 5 60 9 120 11 88 1 118 -2 150 -16 22 -10 54
-18 72 -18 17 1 38 5 45 9 7 4 27 7 45 5 l33 -3 0 50 0 50 -37 -1 c-21 0 -67
2 -103 6 -36 3 -134 -1 -219 -9 -85 -8 -161 -19 -170 -23 -9 -4 -101 -13 -206
-20 -104 -6 -226 -13 -270 -16 -44 -3 -152 -7 -240 -10 -88 -3 -236 -8 -330
-12 -93 -4 -190 -6 -214 -5 -25 1 -50 -3 -57 -9 -7 -6 -64 -10 -136 -9 -68 1
-139 3 -158 6 -19 2 -48 4 -64 4 -15 0 -54 4 -85 9 -31 6 -136 13 -233 16
-124 5 -178 3 -178 -4 0 -6 -9 -9 -21 -8 -11 2 -24 8 -27 14 -4 6 -34 16 -67
21 -33 5 -87 10 -120 12 -33 1 -76 4 -95 6 -19 3 -62 7 -95 9 -33 2 -82 9
-110 15 -27 6 -55 8 -62 5 -7 -2 -37 0 -65 5 -29 6 -108 12 -176 14 -68 2
-126 7 -129 9 -3 3 -21 0 -41 -7 -28 -9 -136 -12 -427 -10 -214 1 -417 4 -450
8 -33 3 -112 11 -175 16 -63 6 -146 15 -185 20 -38 5 -115 11 -170 14 -55 2
-107 7 -115 9 -8 3 -73 10 -145 17 -71 6 -220 20 -330 30 -110 11 -290 27
-400 36 -110 9 -278 16 -374 15 -113 0 -178 -5 -187 -12 -11 -9 -15 -7 -20 6
-6 14 -19 16 -83 14 -42 -1 -96 0 -121 4 -25 4 -88 9 -140 12 -52 2 -111 6
-130 9 -19 3 -84 11 -145 19 -60 8 -144 15 -185 16 -41 1 -102 6 -136 11 -35
4 -81 4 -109 -1 -34 -6 -52 -6 -62 3 -8 6 -49 13 -91 15 -42 3 -103 5 -134 6
-32 0 -58 4 -58 9 0 4 -7 8 -16 8 -10 0 -14 -6 -11 -15 4 -8 1 -17 -5 -21 -6
-4 -21 4 -32 19 -21 25 -23 26 -195 32 -96 3 -179 9 -184 12 -5 3 -27 5 -49 5
-22 -1 -46 -6 -55 -13 -12 -11 -17 -10 -24 4 -7 12 -23 16 -62 16 -29 0 -92 4
-141 10 -49 6 -92 8 -97 6 -4 -3 -10 -1 -13 4 -3 5 -29 9 -58 9 -29 1 -96 6
-148 11 -52 6 -149 9 -215 8 -66 -2 -124 -5 -130 -7 -5 -2 -34 0 -64 4 -49 8
-57 6 -72 -13 -13 -16 -18 -18 -22 -6 -3 7 -14 14 -24 15 -10 1 -83 5 -163 10
-80 4 -180 10 -223 13 -43 4 -88 9 -98 12 -11 4 -55 8 -97 9 -42 1 -87 8 -99
14 -12 7 -78 17 -145 22 -68 6 -150 11 -183 11 -33 1 -90 0 -127 -1 -52 -1
-70 -6 -78 -18 -9 -16 -9 -16 -10 0 0 13 -8 16 -47 12 -27 -2 -149 -6 -273 -9
-124 -2 -297 0 -385 6 -88 6 -191 12 -230 14 -38 3 -70 5 -70 5 0 0 -65 2
-145 5 -80 3 -145 5 -145 6 0 0 -81 2 -180 4 -99 2 -270 7 -380 11 -110 4
-229 5 -265 3 -36 -2 -112 -4 -170 -4 -58 0 -143 4 -190 9 -47 4 -125 8 -175
9 -49 0 -164 -3 -255 -7 -91 -3 -176 -7 -190 -7 -14 0 -63 0 -110 0 -47 -1
-107 -2 -135 -4 -27 -1 -115 -6 -195 -10 -90 -5 -246 -3 -410 5 -146 8 -313
13 -371 13 l-107 0 -7 51 c-3 28 -10 55 -14 61 -5 5 -12 48 -16 95 -5 47 -9
130 -9 185 l-1 100 44 0 c40 0 45 3 52 28 4 16 13 35 20 43 9 11 7 19 -14 38
-14 13 -39 27 -55 31 -16 3 -51 25 -78 48 -26 23 -84 75 -128 115 -44 39 -84
72 -88 72 -4 0 -32 16 -62 35 -30 19 -58 35 -61 35 -3 0 -11 5 -18 10 -7 6
-25 22 -42 35 -16 14 -35 25 -41 25 -5 0 -25 16 -44 35 -19 19 -40 35 -47 35
-7 0 -20 11 -29 25 -10 15 -26 25 -41 25z m2 -160 c12 0 36 -13 55 -30 19 -16
38 -29 42 -30 4 0 51 -29 103 -65 53 -36 100 -65 104 -65 4 0 40 -30 81 -66
40 -37 84 -80 98 -96 23 -27 25 -40 29 -141 3 -62 6 -139 9 -172 2 -33 4 -94
5 -135 1 -41 6 -81 12 -88 5 -7 10 -33 9 -57 0 -24 -3 -49 -7 -55 -3 -6 -22
-17 -42 -25 -20 -8 -72 -18 -117 -20 -44 -3 -89 -8 -100 -12 -17 -5 -18 -1
-14 46 3 28 1 54 -4 57 -5 3 -13 17 -18 29 -5 13 -10 84 -11 158 -1 92 -6 139
-15 151 -7 11 -24 18 -39 17 -14 -1 -31 -2 -37 -2 -7 -1 -31 2 -53 5 -22 3
-55 8 -73 11 -18 2 -36 6 -41 9 -5 3 -29 -10 -55 -30 -25 -19 -47 -38 -47 -42
-1 -4 -3 -17 -4 -29 -1 -12 -5 -28 -8 -36 -3 -8 -2 -87 2 -176 7 -146 9 -163
29 -184 12 -13 22 -27 22 -31 0 -5 -39 -5 -87 -1 -49 3 -133 10 -188 13 l-100
7 3 84 c1 46 -2 109 -7 140 -6 31 -11 112 -12 181 0 69 4 141 10 160 6 19 11
39 11 44 0 4 -7 5 -16 2 -8 -3 -24 3 -35 13 -19 18 -20 22 -7 48 8 15 20 27
27 25 7 -1 33 7 57 20 24 12 51 32 59 45 9 13 21 23 28 23 7 0 26 14 42 30 16
17 33 30 38 30 6 0 38 29 73 65 35 35 64 68 64 74 0 5 9 13 20 16 11 3 20 11
20 17 0 7 15 24 33 39 17 16 41 28 52 29z m66 -700 c22 -4 41 -9 44 -11 2 -2
5 -26 6 -54 3 -45 1 -50 -18 -51 -12 -1 -34 -9 -48 -18 -15 -10 -25 -26 -25
-40 0 -13 7 -27 16 -30 9 -3 26 -6 38 -6 12 0 27 5 34 12 9 9 12 7 12 -12 -1
-14 2 -55 6 -92 7 -67 6 -68 -20 -78 -15 -5 -47 -10 -72 -10 -29 0 -44 4 -44
13 0 6 4 19 9 27 7 10 2 19 -19 31 -22 14 -29 27 -35 67 -5 37 -2 58 9 80 9
17 16 44 16 61 0 16 5 42 11 58 6 15 17 35 25 44 11 13 24 15 55 9z"/>
<g>
<path d="M4565 3149 c-11 -1 -29 -3 -40 -6 -11 -3 -30 -14 -42 -25 -15 -14
-35 -20 -75 -20 -29 0 -66 2 -83 4 -27 3 -30 0 -33 -28 -2 -19 3 -38 12 -47
10 -9 16 -33 16 -59 0 -24 -5 -49 -11 -55 -6 -6 -9 -23 -7 -39 3 -25 7 -27 41
-27 20 1 38 2 40 3 1 1 29 3 62 4 33 2 77 11 98 21 25 12 41 14 50 7 7 -6 21
-6 35 -1 12 5 27 20 32 34 5 13 6 33 3 42 -4 10 -15 25 -25 33 -13 11 -19 33
-22 79 -2 38 -9 67 -18 72 -7 5 -22 8 -33 8z m-35 -159 c6 0 10 -9 10 -19 0
-11 -4 -23 -10 -26 -6 -4 -10 5 -10 19 0 14 5 26 10 26z"/>
</g>
</g>
</g>
</svg>
