<?xml version="1.0" standalone="no"?>
<!DOCTYPE svg PUBLIC "-//W3C//DTD SVG 20010904//EN"
 "http://www.w3.org/TR/2001/REC-SVG-20010904/DTD/svg10.dtd">
<svg version="1.0" xmlns="http://www.w3.org/2000/svg"
 width="1534.000000pt" height="1427.000000pt" viewBox="0 0 1534.000000 1427.000000"
 preserveAspectRatio="xMidYMid meet">
<metadata>
Created by potrace 1.16, written by Peter Selinger 2001-2019
</metadata>
<g transform="translate(0.000000,1427.000000) scale(0.100000,-0.100000)"
fill="#000000" stroke="none">
<g>
<path d="M8535 13553 c-16 3 -50 1 -75 -3 -25 -5 -62 -19 -83 -31 -27 -15 -48
-19 -70 -15 -18 3 -68 2 -112 -4 -44 -5 -98 -17 -120 -27 -22 -9 -47 -22 -55
-28 -8 -7 -35 -18 -60 -24 -25 -7 -55 -13 -68 -14 -12 -1 -26 -7 -30 -13 -4
-5 -23 -19 -42 -31 -19 -11 -46 -24 -60 -28 -14 -4 -47 -25 -75 -45 -27 -20
-56 -45 -64 -54 -8 -10 -28 -24 -44 -33 -16 -8 -45 -29 -64 -46 -20 -18 -49
-52 -66 -77 -16 -25 -46 -62 -66 -84 -20 -21 -48 -51 -63 -66 -16 -16 -28 -35
-28 -43 0 -8 -7 -20 -15 -27 -8 -7 -15 -21 -15 -32 0 -11 -16 -46 -35 -78 -19
-32 -35 -65 -35 -73 0 -9 -4 -18 -9 -21 -5 -3 -12 -27 -16 -53 -4 -27 -11 -55
-15 -63 -4 -8 -10 -42 -14 -75 -3 -33 -12 -96 -20 -140 -8 -44 -17 -107 -21
-140 -4 -33 -2 -105 4 -160 6 -55 20 -147 30 -205 11 -58 24 -125 31 -150 6
-25 17 -58 24 -75 8 -16 17 -44 21 -62 3 -17 13 -34 21 -37 9 -3 13 -10 9 -15
-3 -5 10 -21 29 -36 19 -14 43 -43 53 -64 10 -21 45 -61 77 -90 33 -28 65 -51
73 -51 8 0 38 -22 66 -48 29 -27 63 -56 76 -65 13 -9 45 -36 72 -62 26 -25 53
-45 61 -45 8 0 23 -9 33 -20 10 -12 25 -18 34 -15 8 3 37 -5 65 -18 28 -14 89
-35 135 -48 47 -12 101 -30 120 -39 20 -10 59 -23 86 -29 28 -7 91 -13 140
-14 50 -2 95 -6 100 -9 6 -3 39 -12 75 -19 36 -7 114 -13 173 -13 84 -1 111
-5 120 -16 9 -11 40 -16 127 -18 86 -2 128 1 162 13 26 8 70 31 100 50 29 19
58 39 64 44 7 5 45 26 85 46 41 20 99 54 129 75 30 22 72 59 92 82 21 24 47
53 58 66 12 13 58 65 104 116 46 51 93 110 105 132 12 21 38 66 57 98 19 33
36 66 37 75 1 9 5 21 8 26 4 6 12 35 19 65 7 30 16 65 21 78 5 12 18 58 29
103 12 45 21 104 20 133 0 28 1 95 2 149 2 53 -1 98 -6 100 -5 2 -11 50 -12
107 -3 74 -8 108 -19 120 -8 9 -12 20 -8 23 3 4 1 7 -6 7 -8 0 -11 8 -8 20 3
11 -1 33 -8 48 -8 15 -18 56 -24 91 -6 35 -17 71 -26 81 -8 9 -15 21 -15 26 0
5 -9 16 -20 24 -11 8 -20 24 -20 36 0 12 -9 33 -20 47 -11 14 -20 28 -20 31 0
4 -10 21 -22 38 -13 17 -59 69 -103 116 -44 46 -97 95 -117 108 -21 13 -44 24
-53 24 -10 0 -15 9 -15 26 0 16 -11 37 -26 51 -14 13 -39 27 -55 30 -16 3 -29
9 -29 13 0 5 -20 20 -45 34 -25 15 -45 31 -45 36 0 6 -6 10 -13 10 -8 0 -22 9
-32 20 -10 11 -25 20 -33 20 -8 0 -40 13 -71 28 -31 16 -77 38 -102 50 -26 11
-56 18 -68 15 -13 -3 -29 1 -40 11 -10 9 -22 16 -27 14 -5 -1 -19 3 -32 10
-14 8 -79 14 -180 17 -86 2 -170 6 -187 8z m140 -148 c33 -2 76 -6 95 -10 19
-3 49 -10 65 -15 17 -5 55 -14 85 -19 30 -5 86 -21 124 -35 38 -14 75 -31 82
-37 8 -6 14 -8 14 -3 1 5 8 0 18 -11 9 -11 35 -28 57 -38 21 -10 45 -26 51
-36 7 -9 45 -37 85 -61 40 -25 105 -77 144 -116 38 -39 80 -75 93 -78 12 -4
29 -21 37 -37 9 -16 26 -36 40 -45 13 -8 29 -31 35 -49 6 -18 33 -56 60 -84
37 -39 54 -66 66 -109 9 -31 17 -67 18 -79 1 -12 7 -28 13 -35 6 -7 14 -33 18
-58 4 -25 11 -49 15 -55 4 -5 11 -44 15 -85 4 -41 9 -105 10 -143 1 -37 5 -70
8 -74 4 -3 7 -38 7 -78 0 -41 -5 -76 -12 -83 -6 -6 -12 -40 -13 -74 -1 -38
-13 -92 -29 -138 -14 -41 -26 -84 -26 -95 0 -12 -11 -32 -25 -45 -14 -13 -25
-29 -25 -36 0 -7 -11 -26 -25 -42 -14 -17 -25 -34 -25 -40 0 -6 -20 -35 -45
-66 -25 -31 -78 -91 -118 -133 -40 -43 -88 -94 -107 -113 -19 -19 -50 -44 -69
-55 -18 -11 -66 -39 -105 -62 -48 -29 -82 -43 -106 -43 -20 0 -45 -7 -56 -15
-10 -8 -29 -15 -40 -15 -12 0 -35 -7 -50 -15 -16 -8 -41 -15 -55 -15 -14 0
-28 -2 -31 -5 -3 -3 -65 -8 -137 -11 -72 -2 -148 0 -170 5 -27 6 -43 5 -50 -2
-9 -9 -17 -8 -31 0 -10 7 -58 19 -107 27 -48 9 -133 22 -187 31 -55 8 -106 21
-114 28 -8 6 -18 11 -21 10 -3 -1 -23 0 -43 3 -20 4 -39 12 -42 19 -2 7 -20
13 -40 13 -19 0 -49 7 -65 15 -17 9 -44 18 -61 22 -16 4 -32 11 -35 16 -4 5
-14 9 -24 9 -10 0 -24 7 -31 15 -7 8 -32 25 -57 37 -25 12 -55 35 -68 50 -12
15 -25 25 -27 22 -3 -2 -11 2 -18 11 -7 8 -18 15 -24 15 -6 0 -19 8 -27 18 -9
9 -25 24 -35 32 -10 9 -57 57 -103 107 -46 50 -89 102 -97 114 -7 13 -23 45
-35 72 -13 26 -25 47 -29 47 -3 0 -7 12 -8 28 -1 15 -8 47 -16 72 -8 25 -20
72 -27 105 -6 33 -13 144 -16 247 -4 154 -1 199 12 250 10 35 23 92 30 128 8
36 27 107 44 158 18 57 44 111 66 140 20 26 56 79 82 117 25 39 49 72 54 75 4
3 27 21 50 40 23 19 50 44 60 54 11 11 19 25 19 32 0 7 13 17 30 22 16 6 58
31 92 55 35 25 79 48 98 52 19 4 46 16 59 26 13 11 30 19 37 19 8 0 22 4 32 8
9 5 33 17 52 27 19 9 57 20 83 22 26 3 60 11 75 19 15 8 35 14 44 14 9 0 29 5
45 12 15 7 96 18 178 24 83 7 177 10 210 9z"/>
</g>
<g>
<path d="M11312 12779 c-4 0 -34 -9 -67 -20 -37 -12 -69 -30 -82 -47 -13 -15
-23 -36 -23 -48 0 -12 -5 -35 -11 -53 -9 -26 -8 -35 3 -49 8 -9 18 -25 21 -34
4 -10 11 -18 17 -18 5 0 10 -6 10 -13 0 -8 8 -21 18 -29 9 -9 41 -21 70 -28
29 -7 63 -9 76 -6 16 4 33 24 52 63 21 41 29 70 28 107 0 28 -8 71 -18 96 -12
33 -27 50 -52 63 -19 9 -38 17 -42 16z"/>
</g>
<g>
<path d="M12977 12640 c-18 0 -50 -11 -72 -25 -22 -14 -52 -30 -66 -37 -15 -6
-32 -20 -39 -31 -10 -17 -10 -23 4 -32 9 -7 16 -19 16 -28 0 -9 4 -18 9 -21 5
-3 12 -26 15 -51 5 -32 14 -48 29 -56 12 -6 29 -19 37 -29 8 -10 35 -21 60
-25 38 -5 46 -4 55 13 6 11 23 36 39 56 15 19 32 54 37 76 8 33 5 51 -17 106
-19 47 -34 68 -51 75 -13 5 -39 9 -56 9z"/>
</g>
<g>
<path d="M11941 12229 c-3 0 -15 -4 -26 -9 -12 -4 -27 -15 -34 -24 -8 -9 -18
-35 -23 -59 -4 -23 -17 -98 -29 -167 -11 -69 -21 -141 -23 -160 -1 -19 -8 -48
-15 -65 -8 -16 -20 -66 -27 -110 -8 -44 -18 -91 -23 -105 -5 -14 -12 -40 -15
-58 -4 -24 -1 -37 13 -51 14 -14 42 -20 137 -25 86 -6 124 -12 137 -23 9 -9
17 -13 17 -8 0 4 7 2 15 -5 8 -7 25 -10 37 -6 13 3 31 19 40 36 10 17 13 28 8
25 -5 -3 -13 7 -16 22 -4 15 -8 45 -8 68 -1 38 -2 40 -36 42 -19 1 -61 4 -92
7 -32 2 -67 8 -79 11 -20 7 -21 12 -15 74 3 36 10 91 15 121 5 30 17 87 28
126 10 39 23 77 30 85 6 8 19 40 28 72 9 33 15 71 12 85 -3 15 -8 38 -11 52
-3 14 -13 31 -23 38 -9 6 -19 12 -22 11z"/>
</g>
<g>
<path d="M3755 11680 c-2 0 -7 -4 -10 -10 -3 -5 -17 -10 -29 -10 -13 0 -29 -7
-36 -15 -6 -8 -9 -18 -6 -23 3 -5 -1 -33 -10 -61 -8 -28 -23 -59 -33 -68 -10
-10 -21 -35 -24 -55 -3 -21 -31 -88 -61 -149 -31 -62 -56 -120 -56 -131 0 -10
-4 -18 -10 -18 -5 0 -13 -12 -16 -27 -4 -16 -16 -46 -27 -68 -11 -22 -24 -60
-29 -85 -4 -25 -9 -49 -11 -55 -2 -5 -8 -20 -15 -32 -7 -12 -12 -28 -12 -35 0
-8 -11 -42 -24 -76 -14 -34 -32 -69 -40 -78 -9 -8 -16 -26 -16 -40 0 -13 -4
-24 -10 -24 -5 0 -10 -11 -10 -25 0 -13 -9 -33 -21 -44 -12 -11 -18 -24 -14
-30 3 -6 3 -17 -2 -23 -4 -7 -8 -28 -10 -45 -2 -30 2 -34 43 -52 38 -17 44
-24 44 -50 0 -16 4 -31 10 -33 5 -1 12 -34 16 -73 4 -44 12 -75 21 -82 9 -7
13 -19 10 -28 -4 -8 -15 -15 -25 -15 -10 0 -29 -14 -41 -31 -19 -26 -22 -40
-19 -80 3 -27 12 -57 22 -67 9 -10 17 -32 18 -48 1 -16 7 -36 14 -44 7 -9 18
-37 24 -63 5 -26 8 -58 5 -70 -4 -13 -2 -34 4 -48 5 -14 6 -31 2 -38 -6 -9
-28 -6 -91 10 -46 12 -92 31 -102 41 -10 10 -23 16 -28 13 -5 -3 -16 5 -25 19
-9 13 -27 26 -39 28 -17 3 -34 -4 -56 -25 -27 -26 -31 -34 -27 -71 3 -23 14
-64 26 -91 12 -28 26 -59 31 -70 5 -11 14 -47 20 -80 6 -33 11 -73 10 -89 0
-15 5 -56 11 -90 7 -33 11 -73 10 -89 -1 -15 3 -56 9 -92 6 -35 13 -71 16 -79
4 -10 1 -16 -7 -16 -8 0 -29 -17 -47 -37 -17 -21 -37 -54 -43 -73 -7 -19 -25
-50 -40 -68 -16 -18 -38 -52 -50 -75 -12 -23 -27 -49 -34 -57 -7 -8 -15 -27
-19 -43 -4 -15 -16 -37 -27 -48 -11 -11 -40 -59 -65 -107 -25 -48 -49 -89 -54
-92 -4 -3 -10 -16 -11 -30 -2 -14 -6 -27 -10 -30 -3 -3 -13 -23 -24 -45 -10
-22 -31 -56 -47 -75 -15 -19 -28 -40 -28 -46 0 -6 -9 -19 -20 -29 -11 -10 -20
-22 -20 -26 0 -4 -17 -34 -39 -66 -21 -32 -41 -67 -44 -78 -4 -11 -17 -31 -30
-45 -12 -14 -54 -68 -93 -120 -40 -52 -83 -106 -98 -119 -14 -14 -26 -30 -26
-36 0 -7 -10 -20 -21 -31 -12 -10 -30 -38 -40 -60 -11 -23 -32 -52 -49 -65
-16 -13 -30 -32 -30 -42 0 -10 -7 -20 -15 -23 -8 -4 -15 -12 -15 -19 0 -8 -11
-27 -25 -43 -14 -16 -39 -56 -56 -88 -17 -32 -34 -61 -38 -64 -4 -3 -29 -36
-57 -75 -28 -38 -59 -85 -69 -102 -11 -18 -23 -33 -27 -33 -4 0 -8 -7 -8 -15
0 -8 -4 -15 -9 -15 -5 0 -14 -15 -22 -32 -7 -18 -25 -49 -41 -69 -15 -20 -28
-42 -28 -47 0 -6 -11 -23 -23 -39 -13 -15 -30 -40 -38 -54 -8 -15 -32 -51 -55
-80 -23 -30 -44 -64 -48 -77 -4 -12 -19 -42 -32 -67 -14 -25 -30 -47 -35 -50
-5 -4 -9 -15 -9 -26 0 -11 -7 -22 -15 -26 -9 -3 -22 -21 -30 -40 -8 -19 -28
-54 -44 -78 -16 -24 -32 -54 -36 -66 -5 -13 -21 -40 -37 -60 -19 -24 -41 -39
-61 -43 -22 -4 -36 -14 -44 -33 -6 -16 -16 -44 -21 -64 -7 -26 -6 -42 4 -60 7
-13 13 -31 14 -39 0 -8 7 -28 16 -45 8 -16 20 -66 26 -110 6 -44 15 -83 20
-86 4 -3 13 -39 19 -80 6 -41 12 -85 13 -98 2 -13 10 -29 18 -35 9 -6 19 -30
22 -53 4 -23 14 -44 22 -47 8 -3 14 -18 14 -33 0 -15 7 -41 15 -56 8 -16 14
-38 14 -50 -1 -12 4 -56 11 -97 7 -41 20 -94 31 -116 10 -23 20 -55 23 -70 2
-16 5 -31 6 -34 1 -3 2 -8 1 -12 0 -5 3 -8 8 -8 4 0 7 -26 6 -57 -2 -32 -5
-80 -8 -107 -3 -26 -9 -51 -15 -55 -5 -3 -11 -24 -13 -46 -2 -24 -11 -45 -21
-53 -10 -7 -18 -26 -18 -41 0 -16 -7 -34 -15 -41 -8 -6 -26 -33 -41 -58 -15
-26 -33 -50 -40 -55 -7 -4 -11 -14 -8 -22 3 -8 -6 -29 -20 -48 -14 -19 -26
-40 -26 -48 0 -8 -8 -26 -17 -39 -10 -14 -19 -32 -20 -40 -1 -8 -9 -20 -18
-26 -9 -7 -25 -27 -35 -46 -10 -18 -25 -47 -33 -64 -8 -17 -26 -44 -38 -59
-13 -14 -24 -30 -24 -33 -1 -4 -11 -25 -22 -47 -12 -22 -44 -58 -71 -80 -33
-26 -51 -50 -54 -67 -3 -16 -1 -28 4 -28 4 0 8 -9 8 -20 0 -11 4 -20 9 -20 5
0 19 -17 31 -37 12 -20 19 -45 17 -55 -3 -10 -1 -18 4 -18 5 0 9 -11 9 -24 0
-14 4 -27 9 -30 5 -4 12 -41 16 -84 3 -42 11 -86 16 -97 6 -12 11 -28 13 -38
1 -9 5 -20 9 -23 4 -4 7 -26 7 -49 0 -24 7 -62 15 -85 8 -23 19 -68 24 -100 5
-32 19 -78 30 -103 12 -25 21 -61 21 -79 0 -18 5 -75 12 -125 7 -51 16 -93 21
-93 4 0 5 -5 2 -10 -4 -6 -2 -16 3 -23 6 -7 16 -35 23 -62 6 -28 18 -55 25
-61 9 -7 14 -34 15 -72 1 -34 -3 -68 -9 -75 -7 -8 -7 -18 -2 -27 6 -8 10 -25
10 -38 0 -12 6 -25 13 -27 6 -2 26 -7 42 -10 17 -3 35 -7 40 -8 6 -2 15 -5 20
-9 6 -3 50 -9 99 -13 49 -3 135 -18 190 -31 56 -14 120 -30 144 -35 24 -5 48
-12 54 -15 6 -4 42 -10 81 -14 39 -5 73 -13 75 -19 2 -6 16 -11 32 -11 15 0
72 -13 126 -28 55 -16 131 -37 169 -46 39 -9 82 -18 95 -20 14 -2 39 -10 57
-19 18 -10 43 -17 57 -17 14 0 27 -4 30 -9 3 -4 27 -11 53 -15 27 -4 62 -9 78
-11 17 -2 53 -9 80 -15 28 -7 68 -13 90 -15 22 -2 63 -8 90 -14 28 -5 64 -15
80 -21 17 -6 64 -14 105 -16 41 -3 119 -15 173 -26 53 -12 97 -25 97 -30 0 -5
4 -7 9 -4 5 4 38 -1 73 -10 35 -9 77 -18 93 -21 17 -3 35 -9 40 -13 6 -5 28
-11 50 -15 22 -4 65 -14 95 -21 30 -8 100 -21 155 -30 54 -8 112 -21 127 -29
20 -10 28 -10 28 -2 0 8 3 8 8 2 4 -6 45 -18 92 -28 47 -10 156 -31 243 -47
87 -16 191 -29 231 -29 40 0 155 -7 257 -15 101 -9 211 -21 244 -26 33 -6 85
-13 115 -16 30 -3 66 -7 80 -10 14 -3 45 -8 70 -10 25 -2 59 -9 75 -14 17 -5
48 -11 70 -15 22 -3 67 -8 100 -11 33 -2 71 -6 85 -9 14 -2 63 -8 110 -13 47
-6 137 -16 200 -22 63 -6 165 -20 226 -31 61 -11 128 -22 150 -25 21 -3 64 -7
94 -10 30 -2 107 -8 170 -14 63 -5 135 -12 160 -14 25 -2 77 -8 115 -11 39 -4
75 -11 81 -16 6 -5 42 -13 80 -19 38 -6 83 -13 99 -15 17 -3 39 -9 50 -14 11
-6 56 -15 100 -20 44 -6 112 -15 150 -20 39 -5 104 -12 145 -16 41 -4 146 -8
233 -10 87 -3 161 -7 166 -9 5 -3 31 -5 57 -5 27 0 60 -2 74 -6 14 -3 45 -8
70 -11 25 -3 52 -8 60 -11 8 -3 22 -8 30 -10 8 -2 38 -6 65 -8 28 -3 79 -7
115 -10 36 -2 83 -8 105 -14 22 -5 67 -15 100 -22 33 -6 92 -14 130 -16 39 -2
96 -5 127 -7 31 -3 61 -6 65 -9 4 -2 30 -5 57 -6 27 -1 57 -6 66 -11 10 -5 27
-7 39 -5 12 2 82 -2 156 -10 73 -8 163 -20 199 -26 36 -7 66 -17 66 -22 0 -5
6 -7 13 -4 8 3 27 -1 43 -8 16 -7 49 -18 74 -25 25 -7 70 -21 100 -31 30 -10
73 -23 95 -30 22 -6 67 -15 100 -19 33 -4 78 -13 100 -20 22 -6 103 -25 180
-42 77 -16 148 -34 159 -40 10 -5 35 -12 55 -14 20 -3 54 -7 76 -8 22 -2 67
-9 100 -16 33 -6 69 -13 80 -15 11 -1 79 -5 150 -9 72 -3 175 -11 230 -16 55
-6 136 -15 180 -21 44 -5 122 -12 173 -14 51 -3 101 -9 111 -14 10 -6 21 -8
23 -5 3 2 51 -2 107 -10 56 -8 108 -19 115 -25 7 -6 15 -9 17 -6 3 2 22 0 42
-6 27 -7 43 -7 59 2 13 7 26 17 30 23 4 7 15 3 31 -12 13 -12 30 -22 39 -22 9
0 29 6 45 12 17 7 42 27 56 44 15 17 31 52 37 78 5 25 9 73 9 105 -1 32 1 63
5 69 3 6 11 48 17 94 5 46 12 103 15 128 3 25 8 52 11 60 3 8 7 31 10 50 2 19
11 68 19 108 9 41 14 89 11 108 -3 18 -1 36 4 39 5 4 9 19 9 35 0 16 5 32 11
35 6 4 9 21 8 39 -1 17 5 48 14 69 9 21 19 68 21 105 3 42 20 110 46 182 22
63 40 127 40 142 0 15 5 30 10 33 6 3 10 23 10 44 0 21 7 52 16 69 8 18 19 34
24 37 5 3 7 12 3 20 -3 9 -1 21 5 28 6 6 15 41 22 76 6 35 18 73 25 85 8 12
16 32 18 46 3 14 10 38 16 53 6 16 11 43 11 62 0 19 5 37 10 40 6 3 10 15 10
25 0 11 9 35 19 54 11 19 18 36 15 38 -2 3 3 27 11 54 8 27 15 59 15 72 0 12
8 39 19 60 10 20 24 61 31 90 6 28 16 52 20 52 4 0 11 23 15 51 4 28 13 63 21
77 8 15 14 33 14 39 0 7 9 32 19 55 11 24 29 70 41 103 12 33 26 68 31 78 5 9
12 39 16 65 3 26 11 54 18 62 7 8 20 42 29 75 9 33 19 71 22 85 2 14 15 54 28
90 13 36 29 88 36 115 8 28 15 75 18 105 2 30 7 57 11 60 4 3 15 25 23 50 9
25 21 61 28 80 7 19 23 56 36 83 13 26 21 53 18 60 -2 7 2 27 11 43 8 16 15
39 15 52 0 12 5 22 10 22 6 0 10 10 10 23 0 13 4 27 9 33 5 5 16 32 25 59 8
28 26 82 39 120 13 39 32 97 42 130 10 33 20 80 22 105 2 25 8 54 13 65 5 11
16 37 25 59 8 21 15 56 15 77 0 21 4 40 9 44 5 3 20 31 32 63 12 31 23 64 24
72 1 8 5 22 8 30 3 8 8 31 12 50 3 19 7 48 9 63 2 16 11 36 20 46 9 10 16 32
16 49 0 18 4 32 9 32 6 0 13 21 16 48 4 26 13 67 20 92 7 25 29 77 49 117 19
39 38 86 41 105 3 18 14 44 24 58 9 14 24 46 31 73 8 26 17 47 20 47 3 0 7 8
8 18 1 9 3 28 5 42 1 14 10 39 18 55 9 17 19 57 23 90 4 32 13 73 21 89 8 16
15 41 15 56 0 15 3 30 7 34 4 3 8 17 10 29 2 12 8 33 14 47 6 14 15 33 20 42
5 10 9 27 9 37 0 11 -4 22 -8 25 -5 3 -14 31 -21 63 -7 32 -17 72 -23 88 -5
17 -18 53 -28 80 -9 28 -22 68 -28 90 -6 22 -20 71 -32 109 -11 38 -20 75 -20
82 0 6 -13 37 -30 68 -16 32 -32 79 -36 106 -4 28 -10 50 -14 50 -5 0 -8 17
-7 38 0 20 -12 69 -27 107 -15 39 -33 77 -41 85 -7 8 -15 39 -17 67 -4 39 -11
59 -30 76 -21 20 -36 23 -129 25 -57 2 -156 7 -219 13 -63 5 -142 14 -175 20
-33 6 -70 15 -83 20 -13 5 -32 9 -42 9 -11 0 -23 8 -28 18 -5 9 -13 35 -17 57
-4 22 -10 45 -14 50 -4 6 -13 37 -21 70 -7 33 -20 85 -30 115 -9 30 -24 78
-33 105 -9 30 -13 68 -10 95 3 25 -2 81 -11 125 -9 44 -21 114 -27 155 -6 41
-8 107 -5 145 3 39 7 78 9 87 2 9 11 25 20 36 9 10 17 25 17 34 0 8 -11 20
-24 26 -18 8 -25 21 -30 57 -7 42 -9 45 -29 39 -12 -4 -74 -7 -137 -6 -63 1
-144 8 -180 16 -36 8 -92 20 -125 25 -33 6 -132 15 -220 20 -88 6 -180 10
-205 10 -25 -1 -81 2 -125 6 -44 3 -154 10 -245 15 -91 5 -192 14 -225 19 -33
5 -89 13 -125 17 -36 3 -132 10 -215 15 -82 4 -170 10 -195 13 -25 3 -67 11
-95 17 -27 6 -102 14 -166 19 -64 4 -125 12 -135 18 -11 5 -57 12 -104 16 -47
4 -95 13 -107 21 -12 8 -34 14 -50 14 -15 -1 -73 9 -128 21 -55 12 -110 22
-123 21 -13 0 -40 8 -60 18 -20 11 -59 25 -87 31 -27 7 -66 16 -85 21 -19 4
-53 12 -75 18 -22 6 -57 11 -77 11 -21 0 -38 4 -38 9 0 5 -15 14 -32 20 -18 5
-53 12 -78 15 -25 2 -76 12 -115 20 -38 9 -83 16 -98 16 -16 0 -43 6 -60 14
-18 8 -77 22 -132 31 -55 9 -109 18 -120 20 -11 2 -38 8 -60 14 -22 6 -67 11
-100 11 -33 0 -87 7 -120 15 -33 8 -79 14 -102 15 -23 0 -61 8 -85 19 -24 10
-66 22 -93 25 -28 4 -72 9 -98 12 -27 2 -57 8 -66 14 -10 5 -39 10 -66 11 -26
2 -53 8 -59 14 -6 6 -22 15 -36 19 -14 4 -41 12 -60 17 -19 5 -71 13 -115 18
-44 4 -96 15 -115 23 -19 9 -71 23 -115 32 -44 9 -93 24 -110 32 -16 8 -55 17
-86 19 -30 2 -75 11 -100 19 -24 9 -56 16 -71 16 -15 0 -30 5 -33 10 -4 6 -10
8 -15 5 -5 -3 -42 8 -82 25 -40 16 -76 30 -81 30 -5 0 -15 7 -23 15 -9 8 -26
15 -39 15 -13 0 -26 4 -29 9 -3 4 -33 11 -67 14 -34 3 -66 10 -72 16 -6 6 -21
11 -32 11 -12 0 -39 9 -61 19 -21 10 -77 24 -124 29 -47 6 -121 17 -165 26
-44 8 -99 21 -122 30 -24 8 -43 13 -43 10 0 -2 -15 3 -32 13 -18 10 -42 19
-53 20 -11 1 -40 7 -65 14 -25 6 -56 13 -70 14 -14 2 -52 9 -85 15 -33 7 -67
14 -76 14 -8 1 -30 12 -48 25 l-32 23 -37 -29 c-25 -20 -39 -41 -43 -64 -6
-30 -7 -31 -8 -7 0 15 -12 61 -25 102 -14 42 -23 84 -21 95 2 11 -1 48 -6 83
-6 35 -12 118 -13 186 -2 68 -6 126 -10 129 -3 4 -6 15 -6 25 0 10 -9 35 -20
55 -11 21 -20 44 -20 51 0 7 -7 24 -16 37 -9 14 -22 25 -30 25 -7 0 -23 -13
-36 -30 -12 -16 -31 -33 -42 -36 -12 -4 -28 -13 -38 -21 -9 -8 -42 -21 -75
-29 -32 -8 -83 -31 -115 -50 -31 -19 -59 -34 -63 -34 -4 0 -18 -9 -32 -20 -16
-12 -41 -20 -67 -20 -22 -1 -52 -7 -66 -15 -14 -8 -34 -14 -46 -15 -11 0 -29
-9 -38 -19 -10 -11 -32 -23 -50 -27 -17 -3 -33 -10 -36 -14 -3 -4 -21 -17 -40
-29 -19 -12 -57 -32 -85 -45 -27 -13 -67 -26 -88 -30 -21 -4 -59 -16 -85 -27
-31 -14 -59 -18 -84 -15 -28 4 -40 1 -46 -11 -7 -11 -19 -14 -46 -11 -20 2
-36 1 -36 -3 0 -4 -12 -10 -27 -14 -16 -4 -41 -9 -58 -12 -16 -2 -45 -5 -62
-6 -18 -1 -33 -6 -33 -12 0 -6 -16 -10 -36 -10 -26 1 -43 8 -56 25 -11 13 -16
30 -13 39 4 9 9 33 11 54 4 26 -2 52 -16 82 -11 23 -25 69 -30 101 -6 33 -10
85 -10 117 0 32 -5 91 -11 130 -6 40 -15 79 -20 88 -4 9 -13 63 -18 120 -6 57
-13 142 -17 189 -3 47 -7 91 -7 97 0 7 -8 15 -17 18 -9 3 -27 25 -39 50 -12
25 -24 45 -26 45z m-7 -311 c2 1 2 -36 2 -81 -1 -46 3 -96 10 -113 6 -16 16
-59 21 -95 5 -36 14 -114 19 -175 5 -60 11 -148 14 -195 4 -47 6 -98 6 -114 0
-16 6 -36 13 -45 8 -9 17 -24 20 -33 5 -13 -4 -22 -38 -37 -31 -14 -71 -20
-139 -22 -53 -2 -99 0 -102 4 -4 4 -22 7 -40 7 -25 0 -34 -5 -40 -22 -4 -13
-10 -25 -14 -28 -5 -3 -3 -28 3 -55 7 -28 20 -61 30 -75 9 -13 17 -34 17 -46
0 -12 11 -38 25 -58 14 -20 25 -45 25 -55 0 -13 -10 -20 -36 -24 -27 -5 -41
-1 -57 13 -11 11 -26 36 -33 57 -7 20 -11 40 -9 43 2 4 -2 27 -10 52 -7 26
-16 59 -19 75 -3 15 -12 59 -21 98 -8 38 -15 80 -15 91 0 12 7 27 15 34 9 7
15 20 14 29 -1 9 2 31 6 49 4 18 12 35 16 38 5 3 9 18 9 34 0 16 5 32 10 35 6
4 19 24 30 45 11 22 27 61 36 87 8 26 24 66 35 89 10 22 19 46 19 52 0 7 4 20
9 30 5 9 13 28 18 42 6 14 19 52 29 85 10 32 36 81 56 107 21 26 38 52 38 57
0 5 6 12 13 14 6 3 13 6 15 6z m1669 -480 c1 1 9 -22 18 -50 10 -28 19 -70 20
-93 2 -22 6 -48 9 -56 3 -8 10 -69 16 -135 6 -66 15 -173 20 -238 4 -65 11
-129 14 -142 5 -18 1 -27 -13 -35 -11 -5 -37 -10 -58 -10 -21 0 -48 -7 -60
-15 -17 -12 -61 -16 -196 -19 -134 -3 -180 -7 -205 -20 -30 -15 -31 -15 -34 7
-2 16 -11 23 -32 25 -15 2 -41 -2 -57 -8 -20 -9 -33 -9 -42 -2 -6 6 -37 9 -67
8 -30 -2 -75 -9 -100 -16 -25 -8 -50 -17 -55 -21 -6 -4 -31 -2 -57 3 -36 9
-54 8 -74 -1 -21 -9 -32 -9 -53 2 -18 9 -53 13 -97 11 -38 -2 -78 -4 -89 -6
-11 -2 -20 2 -20 9 0 6 -3 14 -7 18 -4 4 -36 0 -72 -9 -40 -10 -73 -14 -83 -9
-10 5 -40 7 -68 5 -27 -1 -68 -4 -90 -6 -22 -2 -47 -6 -55 -8 -8 -1 -18 -7
-23 -13 -4 -6 -11 -3 -18 8 -7 11 -22 17 -49 17 -32 0 -40 4 -40 18 0 10 -9
36 -20 57 -12 22 -25 57 -29 78 -5 21 -7 46 -4 57 4 15 14 20 39 20 18 0 45 5
61 11 15 6 50 12 76 14 29 2 56 10 68 21 11 9 29 19 42 20 12 1 56 7 97 13 41
5 91 16 110 24 19 8 55 18 80 22 25 4 50 11 56 16 6 5 33 12 60 15 27 3 77 15
112 25 34 10 70 23 81 28 10 6 22 6 27 1 5 -5 23 -3 44 7 19 8 68 32 108 52
39 19 72 39 72 43 0 4 17 10 38 14 20 3 52 15 70 25 18 10 43 19 55 19 12 0
39 6 59 13 21 7 41 16 44 20 4 4 14 7 21 7 8 0 31 13 51 28 25 19 64 35 117
46 44 10 91 25 104 35 13 9 36 24 50 33 14 9 27 17 28 17z m287 -666 c22 -8
67 -17 101 -20 33 -3 78 -11 100 -19 22 -8 47 -14 55 -14 8 0 28 -7 44 -15 16
-9 37 -13 48 -10 10 4 18 3 18 -2 0 -5 10 -10 23 -11 12 -2 38 -4 57 -5 19 -1
40 -5 45 -8 6 -4 33 -10 60 -13 28 -4 71 -13 97 -21 25 -7 49 -11 52 -8 3 3
12 0 20 -6 8 -7 25 -14 38 -15 13 -2 34 -8 48 -13 14 -6 51 -13 83 -17 32 -3
75 -14 95 -23 20 -9 42 -15 49 -14 7 1 29 -6 50 -15 21 -8 58 -22 83 -30 25
-7 57 -14 72 -14 15 0 30 -5 33 -10 4 -6 12 -10 18 -9 7 1 19 -1 27 -4 8 -4
24 -8 35 -10 11 -2 36 -10 55 -19 19 -9 62 -21 95 -27 33 -6 101 -21 150 -32
50 -11 122 -30 160 -42 39 -11 75 -23 80 -26 6 -3 26 -6 45 -7 19 -1 62 -9 95
-18 33 -9 75 -17 93 -18 17 -1 32 -5 32 -11 0 -5 7 -6 16 -3 9 3 39 -1 67 -9
29 -8 66 -17 82 -20 17 -4 44 -8 60 -10 17 -2 50 -8 75 -14 25 -6 63 -11 86
-11 22 0 45 -5 52 -12 7 -7 40 -15 74 -20 35 -4 86 -12 113 -18 28 -6 57 -12
65 -13 8 -2 22 -6 30 -10 8 -4 44 -9 80 -11 36 -3 89 -9 119 -15 29 -6 68 -15
86 -21 19 -6 64 -15 102 -20 37 -5 97 -15 133 -23 36 -9 85 -18 110 -22 25 -3
59 -9 75 -12 17 -4 35 -6 41 -5 7 1 33 -7 59 -18 25 -11 57 -20 70 -20 13 0
26 -4 29 -9 3 -4 34 -14 68 -20 35 -7 79 -16 98 -21 19 -5 46 -13 60 -16 14
-4 37 -6 53 -5 15 1 27 -3 27 -9 0 -6 4 -9 9 -6 4 3 32 -4 62 -15 30 -12 72
-24 94 -28 22 -4 45 -8 50 -10 6 -2 21 -8 35 -13 14 -6 41 -11 60 -12 19 -1
41 -5 48 -10 7 -4 59 -12 115 -17 56 -5 129 -13 162 -19 33 -5 105 -13 160
-16 55 -4 105 -10 110 -15 6 -4 40 -12 75 -18 36 -5 86 -10 113 -10 26 0 65
-5 87 -11 26 -7 46 -7 57 -1 10 5 24 6 33 1 8 -4 49 -11 90 -14 41 -3 94 -6
117 -6 24 1 69 -4 100 -9 32 -6 103 -13 158 -16 55 -3 156 -8 225 -10 69 -3
143 -8 165 -10 22 -3 76 -7 120 -10 44 -2 109 -7 145 -10 36 -3 76 -7 90 -10
14 -2 48 -9 75 -14 28 -5 68 -10 89 -10 21 -1 44 -7 50 -15 7 -9 38 -16 85
-20 40 -3 74 -6 75 -8 1 -2 7 -16 14 -31 10 -24 9 -40 -7 -95 -11 -37 -21 -87
-22 -112 -2 -25 -13 -67 -25 -95 -13 -27 -30 -86 -39 -130 -9 -44 -20 -111
-25 -150 -5 -38 -13 -90 -19 -115 -6 -25 -10 -62 -11 -82 0 -21 -4 -38 -8 -38
-5 0 -15 -26 -21 -57 -7 -32 -18 -71 -23 -88 -6 -16 -14 -39 -18 -50 -4 -11
-24 -69 -45 -130 -20 -60 -38 -119 -40 -130 -3 -11 -13 -47 -25 -79 -11 -33
-20 -65 -20 -73 0 -8 -8 -30 -19 -51 -10 -20 -22 -57 -26 -82 -3 -25 -14 -70
-22 -100 -9 -30 -19 -64 -24 -75 -4 -11 -15 -56 -23 -100 -9 -44 -18 -110 -22
-147 -3 -37 -10 -70 -15 -73 -5 -4 -9 -16 -9 -28 0 -12 -6 -34 -14 -48 -7 -14
-16 -42 -20 -62 -4 -20 -13 -49 -21 -64 -8 -15 -15 -36 -15 -45 0 -10 -10 -46
-21 -80 -12 -35 -26 -69 -32 -76 -5 -7 -7 -15 -5 -18 3 -3 1 -24 -4 -47 -5
-23 -19 -52 -30 -64 -12 -13 -18 -23 -14 -23 4 0 4 -6 -1 -12 -4 -7 -9 -24
-11 -37 -2 -14 -12 -50 -24 -80 -11 -31 -29 -94 -40 -141 -11 -47 -24 -94 -29
-105 -5 -11 -13 -38 -18 -60 -5 -22 -20 -77 -34 -122 -14 -45 -28 -97 -31
-115 -3 -19 -12 -49 -20 -68 -8 -19 -19 -60 -25 -90 -6 -30 -13 -64 -15 -75
-3 -11 -17 -60 -32 -110 -14 -49 -33 -121 -41 -160 -7 -38 -21 -104 -29 -145
-8 -41 -19 -93 -24 -115 -4 -22 -10 -56 -13 -75 -2 -20 -12 -69 -22 -110 -10
-41 -29 -115 -42 -165 -13 -49 -27 -103 -30 -120 -3 -16 -12 -39 -18 -50 -7
-11 -18 -51 -25 -90 -6 -38 -16 -88 -22 -110 -5 -22 -17 -75 -27 -117 -9 -42
-20 -80 -24 -84 -4 -4 -7 -20 -7 -36 0 -16 -5 -49 -11 -74 -11 -41 -13 -44
-29 -29 -9 8 -23 15 -31 15 -8 0 -25 -7 -37 -16 -20 -14 -23 -22 -18 -70 l4
-54 -44 0 c-24 0 -54 6 -67 13 -12 6 -30 18 -39 25 -9 8 -26 11 -36 7 -14 -4
-25 1 -36 17 -9 12 -16 20 -16 16 0 -3 -19 -2 -42 4 -24 5 -74 14 -113 19 -38
5 -79 11 -90 12 -11 2 -33 7 -50 11 -16 4 -44 14 -62 22 -18 8 -64 14 -111 14
-56 0 -92 6 -123 19 -24 10 -78 22 -119 27 -41 4 -83 8 -92 9 -10 1 -21 4 -24
8 -4 4 -23 7 -43 7 -20 0 -48 6 -63 14 -15 8 -42 17 -60 21 -18 4 -51 13 -73
20 -23 7 -77 16 -120 20 -44 3 -87 8 -95 10 -9 3 -34 7 -55 9 -22 3 -94 16
-160 30 -66 14 -136 30 -155 36 -19 6 -70 17 -112 25 -42 8 -90 21 -107 29
-16 9 -43 16 -60 16 -16 0 -42 5 -58 11 -15 7 -44 13 -63 15 -19 1 -53 8 -75
14 -22 6 -69 16 -104 21 -35 5 -83 15 -105 24 -23 8 -65 17 -93 19 -29 2 -67
11 -84 20 -17 9 -35 14 -39 11 -4 -3 -10 1 -13 8 -3 7 -24 19 -46 26 -23 6
-40 15 -37 19 2 4 -16 5 -41 3 -35 -2 -49 1 -64 18 -11 12 -24 19 -29 16 -5
-3 -38 4 -75 16 -36 11 -65 24 -65 29 0 4 -39 20 -87 36 -49 15 -97 34 -108
41 -11 7 -27 13 -37 13 -9 0 -23 8 -30 17 -7 10 -26 19 -42 20 -16 1 -49 10
-73 20 -23 10 -43 21 -43 26 0 4 -11 7 -25 7 -14 0 -42 7 -62 15 -19 8 -41 15
-49 15 -7 0 -25 5 -41 12 -15 6 -38 13 -50 14 -12 2 -35 10 -52 18 -16 9 -38
16 -48 16 -10 1 -36 8 -58 16 -22 8 -48 17 -58 19 -10 2 -27 7 -37 10 -10 3
-29 8 -42 10 -13 3 -43 7 -68 10 -25 3 -74 18 -110 34 -36 16 -83 34 -105 40
-22 6 -56 13 -75 15 -19 3 -67 13 -107 23 -40 10 -78 24 -85 31 -7 7 -37 12
-70 12 -35 0 -72 7 -90 16 -18 9 -64 18 -111 20 -44 2 -85 8 -91 13 -6 4 -56
12 -111 16 -55 4 -120 9 -145 10 -25 2 -52 6 -60 9 -8 3 -31 8 -50 10 -19 2
-34 8 -33 13 1 5 -24 9 -55 9 -31 0 -82 2 -112 4 -30 2 -61 8 -67 13 -7 5 -30
7 -50 5 -21 -3 -49 -1 -63 5 -14 5 -54 13 -90 18 -36 5 -75 9 -87 9 -12 0 -41
8 -65 18 -24 10 -56 17 -73 16 -16 -2 -35 2 -42 7 -6 6 -16 8 -22 5 -5 -4 -20
-2 -33 3 -13 5 -65 19 -116 31 -51 12 -96 20 -99 16 -3 -3 -12 -1 -19 5 -7 5
-48 19 -91 30 -43 11 -109 22 -148 25 -38 3 -79 7 -90 9 -11 2 -20 4 -20 5 0
1 -9 3 -20 5 -11 1 -72 10 -135 20 -63 9 -126 17 -140 17 -14 0 -29 3 -35 8
-5 4 -25 11 -43 15 -19 4 -43 9 -55 11 -12 2 -40 8 -62 13 -22 6 -51 12 -65
15 -14 3 -70 13 -125 22 -55 9 -120 20 -145 24 -25 4 -74 15 -108 25 -35 9
-75 14 -88 11 -17 -5 -26 -1 -34 14 -6 12 -21 20 -36 20 -14 0 -73 9 -132 20
-59 12 -141 32 -182 45 -41 13 -120 31 -175 40 -55 8 -109 17 -120 19 -11 2
-27 6 -35 9 -8 3 -28 8 -45 12 -16 3 -49 5 -73 5 -24 -1 -60 4 -80 11 -20 7
-55 18 -77 24 -22 7 -65 18 -95 25 -30 7 -59 16 -65 20 -5 5 -37 17 -70 28
-33 11 -85 25 -115 32 -30 6 -73 20 -95 31 -22 10 -74 28 -115 40 -41 11 -84
25 -95 29 -11 5 -72 21 -135 35 -63 15 -140 39 -170 53 -30 15 -56 30 -58 35
-2 4 -19 7 -37 7 -25 0 -35 5 -40 21 -4 12 -1 27 8 37 8 9 18 27 22 40 3 12
18 35 31 51 14 17 57 92 96 168 39 76 78 152 86 168 9 17 44 73 78 127 34 53
71 105 81 115 10 11 31 45 46 76 16 31 32 59 37 62 5 3 29 36 54 74 25 38 46
73 46 79 0 6 4 12 9 14 5 2 17 17 27 34 11 17 46 66 79 109 33 43 77 106 98
139 21 34 42 63 46 66 5 3 15 19 24 35 8 17 24 39 36 49 12 11 21 25 21 32 0
7 16 29 35 50 19 20 35 41 35 46 0 4 20 34 45 66 24 31 55 71 68 87 13 17 32
45 41 63 9 17 20 32 25 32 5 0 14 14 21 30 7 17 16 30 21 30 5 0 9 5 9 11 0 6
14 30 30 55 17 24 49 79 71 121 23 43 49 87 59 98 10 11 41 67 69 125 28 57
57 111 65 120 7 8 23 36 35 63 13 26 27 47 32 47 5 0 9 7 9 15 0 9 12 34 27
58 14 23 36 58 48 77 12 19 31 50 42 69 l21 34 13 -24 c7 -13 14 -60 16 -104
1 -44 4 -129 7 -188 3 -59 11 -117 16 -128 6 -11 8 -23 5 -28 -3 -5 1 -29 9
-53 8 -24 17 -105 20 -184 3 -78 11 -177 16 -220 6 -44 16 -95 22 -115 7 -24
7 -42 1 -54 -7 -11 -7 -33 -1 -59 5 -22 11 -84 12 -136 2 -52 11 -124 21 -160
9 -36 23 -72 31 -81 7 -8 13 -28 12 -45 -1 -16 4 -85 11 -154 6 -69 14 -145
16 -170 2 -25 7 -90 10 -145 4 -55 7 -157 8 -227 l2 -127 -44 -11 -44 -11 7
-45 c3 -25 8 -50 12 -55 3 -5 16 -9 28 -9 13 0 34 -9 47 -19 13 -11 24 -25 25
-33 0 -7 2 -21 2 -30 2 -14 11 -18 45 -18 31 0 45 5 55 20 9 15 19 19 40 14
15 -3 48 -14 74 -25 26 -10 58 -19 72 -19 14 0 27 -4 31 -9 3 -5 20 -13 38
-16 17 -4 63 -26 100 -49 38 -22 80 -48 95 -56 15 -9 55 -32 90 -53 35 -20 67
-37 73 -37 5 0 26 -9 46 -20 21 -11 45 -20 54 -20 9 0 24 -9 34 -20 10 -11 25
-20 34 -20 9 0 32 -6 51 -13 19 -7 41 -16 47 -20 7 -4 39 -16 70 -27 32 -10
91 -26 132 -34 40 -9 84 -22 97 -31 13 -8 34 -15 48 -15 14 0 28 -4 31 -10 3
-5 26 -10 50 -10 24 0 45 -5 47 -10 2 -6 14 -12 28 -15 14 -2 39 -6 55 -9 17
-3 53 -10 80 -15 28 -5 70 -7 95 -6 25 2 53 -1 62 -6 9 -5 54 -12 100 -14 46
-3 108 -13 138 -21 30 -9 66 -19 80 -23 14 -4 25 -14 25 -21 0 -8 14 -17 31
-21 17 -3 38 -1 46 5 8 6 17 19 21 29 4 10 2 39 -4 65 -6 26 -12 59 -14 75 -2
15 -8 33 -12 40 -4 6 -11 34 -15 62 -4 27 -10 68 -13 90 -3 22 -7 56 -10 75
-2 19 -6 81 -9 137 -3 56 -10 113 -15 127 -6 13 -13 82 -17 153 -4 70 -10 133
-14 138 -4 6 -8 41 -9 79 -1 39 -4 73 -7 78 -3 4 -2 13 2 19 5 8 9 8 14 -1 4
-6 33 -15 64 -19 43 -6 61 -5 71 6 8 7 21 13 29 13 9 0 35 5 58 10 24 6 88 21
144 34 80 19 128 23 243 23 114 0 146 3 158 15 12 13 13 19 1 37 -10 16 -10
25 -1 39 6 11 8 25 3 32 -4 7 -6 20 -3 27 3 8 1 24 -5 36 -6 12 -15 36 -20 54
-6 17 -8 45 -6 62 3 17 1 31 -4 31 -6 0 -12 11 -16 23 -3 13 -13 73 -22 133
-10 60 -18 127 -18 149 -1 22 -5 51 -9 65 -4 14 -9 39 -13 55 -3 17 -8 57 -10
90 -3 33 -7 76 -10 95 -2 19 -9 58 -15 85 -6 28 -14 95 -19 150 -4 55 -11 118
-14 140 -4 22 -9 63 -11 90 -3 28 -12 104 -20 170 -8 66 -17 134 -19 150 -3
17 -10 44 -16 60 -6 17 -13 52 -16 79 -2 27 -9 55 -15 62 -6 8 -9 20 -6 29 4
8 0 52 -8 97 -8 46 -16 101 -18 123 -2 22 -9 51 -14 65 -6 14 -16 75 -22 135
-7 61 -17 130 -22 155 -5 25 -12 56 -15 70 -4 14 -8 41 -11 60 -2 19 -11 50
-20 69 -8 18 -16 43 -17 56 -2 12 -7 28 -12 36 -5 8 -10 32 -11 54 -1 22 -4
60 -7 85 -3 25 -7 52 -9 60 -2 8 -7 33 -11 55 -4 22 -26 94 -48 160 -22 66
-45 129 -51 140 -6 11 -14 38 -17 61 l-6 40 40 -13z m-1700 -183 c2 0 16 -6
32 -14 16 -7 41 -17 57 -20 20 -5 27 -3 27 9 0 8 4 15 10 15 5 0 13 -6 17 -14
4 -7 31 -16 58 -20 28 -4 117 -8 198 -9 106 -2 151 1 158 10 8 9 18 7 44 -9
19 -11 39 -17 45 -13 6 4 44 7 85 6 41 0 77 4 80 9 4 6 14 6 28 -2 15 -8 65
-11 157 -9 109 2 139 6 154 19 10 10 20 17 22 17 3 0 9 -6 14 -14 5 -10 28
-16 62 -17 29 -1 87 -3 128 -4 50 -2 93 3 129 15 48 16 57 17 80 4 21 -12 30
-30 47 -100 12 -48 28 -97 35 -110 7 -13 16 -55 20 -94 4 -38 12 -89 17 -113
5 -24 15 -49 21 -55 6 -6 11 -26 11 -43 0 -18 7 -63 16 -101 9 -37 17 -73 18
-79 1 -7 7 -19 14 -27 7 -8 14 -52 16 -98 2 -46 7 -95 10 -109 4 -14 11 -45
17 -70 6 -25 15 -81 20 -125 6 -44 14 -93 19 -110 5 -16 14 -73 20 -125 6 -52
16 -106 21 -119 5 -13 12 -51 15 -85 3 -33 9 -65 14 -70 6 -6 10 -25 10 -42 0
-18 4 -44 9 -58 6 -13 13 -53 16 -88 3 -35 8 -76 11 -93 3 -16 11 -91 19 -165
7 -74 12 -137 9 -142 -3 -4 2 -33 10 -65 7 -32 17 -100 20 -150 3 -51 15 -120
26 -153 11 -33 20 -85 20 -115 0 -31 4 -64 9 -73 5 -9 11 -55 15 -102 3 -47 9
-113 12 -146 6 -55 5 -62 -12 -67 -11 -4 -57 -13 -104 -21 -47 -9 -98 -15
-115 -15 -16 1 -41 -1 -55 -4 -14 -3 -47 -8 -73 -12 -27 -3 -56 -10 -65 -15
-9 -4 -33 -14 -52 -21 -19 -8 -43 -12 -52 -11 -9 2 -32 -5 -50 -14 -18 -9 -38
-24 -45 -33 -6 -9 -15 -13 -19 -8 -4 4 -11 80 -15 170 -4 89 -13 203 -18 252
-6 50 -13 116 -16 148 -3 31 -10 69 -15 83 -6 14 -10 44 -10 68 0 23 -5 69
-11 102 -6 32 -14 63 -17 68 -3 5 -6 23 -8 40 -1 17 -10 74 -19 126 -10 52
-21 127 -25 165 -4 39 -11 81 -14 95 -4 14 -9 39 -12 55 -2 17 -7 50 -10 75
-3 25 -12 63 -20 85 -8 22 -16 60 -18 85 -3 25 -8 63 -12 85 -4 22 -12 49 -17
60 -6 11 -12 38 -13 60 -1 22 -7 91 -13 154 -7 63 -16 134 -22 158 -5 25 -7
49 -3 54 3 5 1 16 -5 22 -5 7 -11 31 -12 52 -1 22 -5 45 -8 50 -3 6 -7 17 -9
25 -2 8 -5 34 -7 58 -2 27 -9 48 -21 56 -11 9 -28 11 -49 6 -18 -4 -38 -11
-44 -14 -7 -5 -10 -2 -9 6 2 8 -8 14 -24 16 -16 2 -28 7 -28 12 0 4 -12 10
-27 13 -16 3 -35 7 -43 9 -8 2 -21 7 -28 12 -7 4 -16 6 -19 3 -3 -3 -26 2 -52
12 -25 10 -57 17 -70 15 -13 -3 -32 3 -42 12 -10 9 -49 28 -86 41 -37 14 -81
27 -98 30 -16 3 -38 12 -47 21 -10 8 -42 19 -70 24 -29 5 -57 10 -63 12 -5 2
-18 6 -28 11 -9 4 -31 5 -47 3 -17 -3 -30 -1 -30 3 0 4 -30 11 -67 14 -38 4
-73 11 -78 16 -6 4 -31 14 -55 22 -25 8 -88 18 -140 22 -52 4 -124 6 -159 5
-53 -1 -67 2 -87 21 -13 12 -32 23 -41 24 -10 1 -27 6 -38 11 -11 4 -37 8 -57
9 -21 0 -38 2 -38 4 0 3 7 12 15 22 11 11 14 26 10 42 -4 15 -13 31 -21 38 -8
6 -14 25 -14 41 0 16 -8 48 -19 71 -10 23 -21 61 -24 84 -3 26 -1 46 6 50 6 3
74 9 151 12 94 4 140 10 139 17 -1 8 13 8 49 1 38 -8 53 -7 56 1 2 6 10 8 17
5 8 -3 22 2 30 11 9 9 23 16 30 16 8 0 26 -5 40 -10 23 -9 32 -6 57 15 16 14
31 25 32 25z m-843 -504 c13 -4 40 -12 59 -17 19 -6 58 -15 85 -20 28 -4 66
-11 85 -15 19 -3 61 -7 93 -8 39 -2 66 -9 85 -23 15 -11 59 -27 97 -36 39 -9
124 -21 190 -28 66 -7 136 -13 155 -13 19 -1 45 -7 57 -14 12 -6 39 -12 60
-12 21 0 56 -9 78 -20 25 -13 59 -20 92 -20 29 0 63 -6 75 -12 12 -7 28 -18
35 -25 7 -6 21 -9 31 -6 11 2 37 -5 58 -16 21 -12 44 -21 50 -21 6 0 25 -7 43
-16 18 -9 47 -17 64 -18 18 0 41 -9 52 -19 10 -10 25 -15 32 -13 7 3 32 -1 55
-9 24 -7 61 -18 83 -25 22 -6 49 -15 60 -20 11 -4 38 -13 60 -19 37 -10 41
-15 58 -64 9 -30 17 -65 17 -78 0 -13 9 -55 20 -94 11 -38 17 -78 14 -88 -3
-10 0 -68 6 -130 6 -63 19 -129 30 -152 10 -22 20 -76 24 -121 3 -45 9 -92 15
-105 5 -13 14 -51 21 -84 6 -33 16 -68 21 -77 5 -10 9 -43 9 -73 0 -30 4 -55
8 -55 5 0 12 -55 16 -122 3 -68 12 -147 19 -176 7 -29 19 -57 26 -62 10 -5 12
-19 8 -45 -3 -21 0 -67 8 -104 7 -36 16 -88 19 -114 2 -27 10 -55 17 -63 10
-12 10 -28 0 -79 -10 -47 -10 -73 -2 -97 6 -18 13 -71 15 -118 3 -47 9 -116
15 -155 6 -38 13 -153 15 -255 3 -102 8 -205 12 -230 4 -25 11 -50 16 -56 4
-6 6 -18 3 -26 -3 -8 -1 -28 6 -44 7 -17 13 -95 14 -189 1 -88 6 -180 11 -205
4 -25 8 -58 8 -75 1 -28 -2 -30 -39 -35 -22 -3 -77 -2 -122 2 -46 4 -122 10
-170 13 -49 3 -108 8 -133 11 -25 3 -49 10 -54 15 -6 5 -30 9 -53 9 -24 0 -60
8 -81 19 -20 10 -55 21 -77 25 -22 4 -78 20 -125 36 -47 15 -97 31 -112 34
-15 3 -33 13 -41 21 -8 8 -17 12 -20 9 -3 -4 -12 -2 -19 2 -7 5 -24 10 -37 12
-13 2 -37 10 -52 18 -15 7 -34 14 -42 14 -8 0 -22 8 -31 19 -9 10 -34 21 -56
24 -21 3 -59 19 -83 36 -25 17 -52 31 -60 31 -9 0 -17 3 -19 8 -1 4 -24 18
-51 32 -26 14 -75 39 -108 57 -33 17 -67 37 -76 44 -8 7 -32 19 -52 27 -20 7
-72 24 -116 36 -44 13 -92 28 -107 34 -14 6 -30 17 -34 24 -4 7 -9 35 -10 63
-1 27 -6 91 -13 141 -6 50 -11 140 -10 200 0 60 -3 143 -6 184 -4 41 -14 111
-22 155 -8 44 -16 94 -18 110 -2 17 -6 49 -9 72 -3 24 -10 51 -15 60 -5 10
-15 47 -21 83 -7 36 -18 119 -26 185 -7 66 -15 140 -17 165 -3 25 -8 81 -13
125 -4 44 -7 89 -7 100 1 11 2 29 3 40 1 11 -1 40 -4 65 -3 25 -9 61 -13 80
-4 19 -7 42 -8 50 -1 8 -4 42 -8 75 -5 33 -12 87 -17 120 -5 33 -14 146 -20
250 -6 105 -13 226 -16 270 -3 44 -7 91 -8 105 -2 14 -8 68 -14 120 -7 52 -14
115 -17 140 -3 25 -8 61 -10 80 -3 19 -9 58 -14 85 -5 28 -13 59 -17 69 -6 17
-4 18 17 12z m9556 -1070 c8 -15 17 -66 20 -114 3 -48 12 -99 19 -113 7 -15
11 -29 8 -32 -3 -3 2 -23 11 -44 10 -21 24 -54 33 -73 8 -19 19 -51 23 -70 4
-19 15 -66 24 -105 9 -38 21 -90 25 -115 5 -25 16 -65 26 -90 13 -33 18 -76
19 -165 1 -99 -2 -125 -17 -151 -10 -17 -27 -66 -38 -108 -12 -43 -20 -94 -19
-114 2 -20 -3 -47 -9 -59 -7 -12 -12 -36 -12 -53 0 -17 -7 -44 -15 -59 -8 -16
-17 -48 -21 -72 -4 -24 -10 -48 -14 -54 -4 -5 -11 -46 -15 -89 -5 -56 -13 -88
-27 -107 -13 -17 -23 -52 -27 -91 -4 -34 -13 -74 -21 -88 -8 -14 -15 -27 -15
-30 -1 -3 -7 -22 -14 -43 -7 -21 -10 -45 -7 -53 3 -8 2 -22 -3 -32 -5 -9 -15
-42 -24 -72 -8 -30 -20 -76 -26 -101 -5 -25 -8 -62 -5 -81 4 -22 0 -46 -9 -64
-8 -16 -15 -51 -15 -78 -1 -35 -8 -59 -27 -86 -14 -20 -29 -61 -34 -90 -5 -29
-13 -55 -18 -59 -6 -3 -13 -17 -17 -31 -4 -14 -11 -34 -16 -45 -5 -11 -21 -67
-35 -125 -14 -58 -25 -119 -25 -137 0 -17 -4 -35 -10 -38 -5 -3 -10 -23 -10
-43 0 -21 -9 -62 -21 -92 -11 -30 -23 -70 -25 -89 -3 -18 -11 -45 -18 -60 -7
-14 -19 -51 -27 -81 -7 -30 -19 -62 -26 -71 -7 -8 -15 -31 -17 -50 -3 -19 -19
-81 -36 -139 -17 -58 -38 -133 -45 -168 -8 -35 -21 -77 -30 -94 -8 -17 -15
-44 -15 -59 0 -16 -6 -48 -14 -71 -8 -24 -18 -61 -22 -83 -3 -22 -11 -48 -16
-58 -5 -11 -12 -60 -15 -110 -3 -51 -13 -117 -23 -147 -10 -30 -16 -67 -13
-81 3 -15 0 -30 -6 -33 -6 -4 -11 -34 -11 -66 0 -32 -5 -62 -10 -65 -7 -4 -9
-32 -5 -75 4 -43 2 -71 -5 -75 -5 -3 -10 -15 -10 -26 0 -10 -4 -19 -9 -19 -5
0 -11 -19 -14 -42 -3 -24 -9 -59 -12 -78 -4 -19 -10 -44 -15 -55 -4 -11 -15
-52 -24 -91 -9 -40 -16 -83 -16 -97 0 -14 -4 -29 -10 -32 -5 -3 -10 -19 -10
-34 0 -15 -6 -50 -14 -77 -7 -27 -18 -71 -24 -99 -5 -27 -16 -77 -22 -110 -7
-33 -19 -79 -27 -102 -9 -23 -13 -57 -10 -75 3 -21 -1 -39 -10 -50 -8 -9 -18
-43 -22 -75 -4 -32 -15 -72 -24 -90 -9 -18 -17 -42 -17 -55 0 -13 -4 -29 -9
-36 -6 -11 -10 -10 -15 5 -4 10 -11 66 -16 124 -4 59 -11 113 -15 120 -5 6
-10 22 -12 33 -1 12 -10 53 -18 91 -9 39 -19 81 -24 95 -5 14 -12 34 -16 45
-3 11 -6 22 -7 25 0 3 -3 7 -8 10 -4 3 -19 38 -34 78 -14 40 -31 98 -37 130
-6 31 -12 82 -15 113 -2 31 -11 85 -19 120 -9 35 -22 89 -30 119 -7 30 -11 58
-9 62 2 3 0 9 -6 13 -5 3 -10 14 -10 24 0 10 9 28 20 41 11 13 20 36 20 51 0
15 7 54 16 86 8 32 17 87 20 123 3 36 6 76 8 90 2 14 4 25 5 25 2 0 4 18 7 40
2 22 11 76 20 120 9 44 17 94 18 110 2 17 15 49 29 73 16 24 27 56 27 76 0 18
7 50 15 70 8 20 19 36 24 36 6 0 13 10 17 23 5 12 9 38 9 57 1 19 5 42 10 50
6 8 13 44 17 80 4 36 11 95 16 132 5 37 15 75 22 83 7 8 14 27 15 42 1 16 6
36 10 45 3 9 13 45 21 80 8 35 20 90 26 123 6 33 17 67 24 76 8 8 14 26 14 39
0 13 4 37 10 54 5 17 18 60 29 96 10 36 31 108 46 160 15 52 36 124 47 160 11
36 23 97 27 136 5 39 15 86 25 104 9 18 16 40 16 50 0 9 5 21 11 27 6 6 13 31
14 55 1 24 7 54 13 68 5 14 19 50 31 80 11 30 23 69 27 85 4 17 12 37 19 45 6
8 12 24 13 35 1 11 3 27 5 35 2 8 11 32 21 52 9 21 16 39 16 42 0 3 5 17 11
33 7 15 13 35 14 43 2 8 13 42 25 75 12 32 26 95 31 140 5 44 15 112 23 150 7
39 23 106 35 150 12 44 24 87 28 95 3 8 8 24 9 35 1 11 12 45 23 75 11 31 22
68 25 83 2 15 8 32 12 38 3 6 10 25 15 43 4 17 22 69 39 116 18 47 35 102 37
124 3 21 16 54 29 74 13 19 24 43 24 52 0 10 13 62 29 116 15 55 33 124 39
154 6 30 13 78 17 105 3 28 10 82 16 120 6 39 16 83 22 99 l10 28 14 -26z
m327 -736 c13 0 26 -5 28 -11 2 -5 24 -12 48 -15 25 -3 59 -9 75 -14 17 -4 89
-11 161 -14 72 -3 145 -9 162 -12 18 -4 30 -9 28 -13 -3 -4 -7 -44 -10 -91 -3
-46 -12 -102 -20 -124 -7 -23 -19 -66 -25 -96 -7 -30 -14 -68 -17 -85 -3 -16
-13 -45 -22 -62 -9 -18 -20 -33 -24 -33 -5 0 -8 -11 -8 -24 0 -13 -7 -37 -15
-52 -8 -16 -15 -51 -15 -77 0 -27 -7 -65 -16 -85 -9 -21 -20 -45 -25 -55 -5
-9 -16 -47 -24 -83 -9 -35 -13 -68 -11 -73 3 -4 -10 -51 -29 -104 -18 -53 -31
-97 -28 -97 4 0 0 -8 -8 -17 -8 -10 -20 -29 -27 -42 -8 -13 -15 -55 -17 -95
-2 -39 -6 -79 -10 -88 -4 -10 -11 -18 -15 -18 -4 0 -10 -19 -14 -42 -4 -24
-12 -59 -18 -78 -6 -19 -17 -47 -24 -61 -7 -14 -16 -66 -19 -115 -3 -49 -12
-111 -21 -139 -9 -27 -23 -64 -31 -82 -10 -19 -13 -44 -10 -62 4 -17 3 -33 -2
-35 -5 -3 -11 -23 -15 -45 -3 -22 -11 -41 -17 -43 -6 -2 -14 -33 -19 -68 -5
-36 -18 -96 -30 -135 -11 -38 -22 -96 -24 -128 -2 -34 -9 -64 -19 -75 -8 -9
-17 -35 -18 -57 -2 -22 -10 -52 -17 -67 -7 -15 -11 -32 -8 -36 3 -5 -3 -33
-13 -63 -11 -30 -22 -82 -26 -116 -4 -35 -11 -63 -16 -63 -4 0 -11 -17 -15
-37 -4 -21 -11 -43 -16 -50 -5 -6 -14 -42 -19 -80 -5 -37 -19 -88 -31 -113
-11 -25 -22 -69 -23 -98 -1 -31 -7 -57 -14 -62 -8 -4 -15 -22 -17 -40 -2 -17
-10 -46 -18 -63 -8 -18 -17 -50 -19 -72 -3 -22 -10 -60 -16 -85 -6 -25 -13
-67 -17 -95 -3 -27 -14 -59 -24 -70 -10 -11 -26 -43 -35 -71 -9 -29 -15 -65
-13 -80 2 -16 -2 -33 -9 -39 -7 -5 -17 -32 -24 -60 -6 -27 -16 -68 -21 -90 -6
-22 -12 -44 -14 -50 -2 -5 -8 -17 -13 -25 -5 -8 -17 -37 -26 -65 -9 -27 -23
-72 -31 -100 -9 -27 -23 -72 -31 -100 -8 -27 -21 -81 -29 -120 -8 -38 -19 -78
-25 -89 -6 -10 -12 -39 -15 -64 -2 -24 -9 -51 -15 -58 -6 -8 -9 -23 -6 -33 3
-12 -5 -33 -18 -51 -13 -17 -31 -64 -40 -103 -9 -40 -23 -84 -31 -99 -8 -14
-14 -40 -14 -56 0 -17 -4 -33 -8 -36 -5 -3 -19 -40 -31 -83 -12 -43 -28 -89
-35 -103 -8 -14 -19 -51 -25 -82 -7 -31 -21 -68 -32 -81 -10 -14 -19 -32 -19
-40 0 -9 -4 -18 -9 -22 -6 -3 -13 -27 -16 -53 -4 -26 -16 -67 -27 -92 -11 -24
-22 -56 -25 -69 -2 -14 -9 -31 -15 -38 -7 -9 -23 -11 -52 -6 -22 3 -50 12 -61
19 -11 6 -47 15 -80 18 -33 4 -82 12 -110 18 -27 6 -57 13 -65 16 -8 3 -55 12
-105 20 -49 7 -117 15 -150 18 -33 2 -103 6 -155 9 -52 3 -99 10 -104 15 -6 6
-24 10 -41 10 -16 0 -46 5 -65 11 -19 6 -60 12 -90 13 -30 1 -86 10 -125 20
-38 10 -92 24 -119 32 -27 8 -51 12 -54 9 -3 -2 -17 4 -32 15 -16 11 -38 20
-50 20 -13 0 -28 6 -34 13 -6 8 -38 21 -71 30 -33 8 -100 19 -149 23 -49 4
-101 13 -115 20 -14 8 -35 14 -46 14 -11 0 -45 7 -75 16 -30 8 -93 24 -140 35
-46 11 -89 23 -95 28 -5 4 -23 8 -38 9 -16 1 -53 9 -82 17 -30 9 -72 14 -94
11 -23 -2 -41 0 -41 5 0 5 -11 14 -24 19 -14 5 -49 12 -78 16 -29 4 -76 8
-104 9 -27 1 -55 4 -60 8 -6 3 -30 6 -55 7 -24 1 -59 -1 -76 -4 -18 -3 -35 -1
-38 5 -4 5 -11 7 -16 3 -5 -3 -16 0 -24 6 -8 7 -43 14 -77 17 -35 2 -70 7 -78
10 -8 4 -19 5 -24 4 -4 -1 -15 4 -23 11 -9 7 -26 11 -38 10 -13 -2 -50 4 -83
12 -33 9 -85 16 -116 16 -31 0 -56 4 -56 9 0 5 -30 11 -67 14 -38 2 -99 10
-138 16 -38 7 -79 13 -90 13 -11 1 -25 5 -32 10 -6 5 -22 6 -35 3 -16 -4 -37
1 -60 14 -19 12 -48 23 -64 25 -16 2 -73 9 -127 16 -67 9 -100 17 -104 27 -4
9 -14 12 -33 8 -14 -3 -40 0 -56 6 -16 7 -49 15 -74 19 -25 5 -56 11 -70 15
-14 4 -70 9 -125 11 -55 2 -102 4 -105 5 -3 0 -43 2 -90 4 -47 1 -110 8 -140
14 -30 7 -80 17 -110 22 -30 6 -80 10 -110 9 -30 0 -98 8 -150 19 -52 11 -140
22 -195 26 -55 3 -156 12 -225 20 -69 8 -138 14 -155 14 -16 0 -58 3 -93 7
-34 3 -64 10 -67 14 -3 4 -23 4 -46 -1 -23 -5 -49 -7 -59 -4 -9 3 -46 6 -80 6
-35 1 -71 5 -79 10 -9 5 -77 15 -151 23 -74 8 -155 19 -179 25 -25 7 -105 13
-178 15 -104 3 -137 7 -146 19 -7 8 -38 17 -72 21 -36 4 -63 12 -68 21 -5 9
-23 15 -46 15 -21 0 -43 6 -49 13 -7 8 -35 13 -76 12 -36 0 -67 4 -69 8 -1 5
-16 10 -32 13 -17 2 -73 8 -125 13 -52 5 -138 19 -190 30 -52 12 -111 26 -130
33 -19 6 -51 13 -70 15 -19 2 -64 5 -100 8 -36 3 -83 10 -106 15 -23 5 -73 9
-112 9 -39 -1 -77 3 -84 8 -7 4 -31 8 -53 9 -22 1 -83 11 -135 23 -52 11 -112
21 -132 21 -20 0 -40 5 -43 10 -3 6 -23 10 -44 10 -20 0 -41 4 -47 10 -5 5
-37 10 -72 11 -49 2 -62 5 -63 18 0 9 -3 11 -5 5 -3 -7 -32 -7 -97 2 -50 7
-110 17 -132 23 -22 7 -47 14 -55 16 -8 2 -33 9 -55 14 -22 6 -59 11 -82 11
-23 0 -45 4 -48 10 -3 5 -18 10 -32 10 -15 0 -40 4 -57 9 -17 5 -56 17 -87 25
-31 9 -72 16 -93 16 -20 0 -51 7 -68 16 -17 9 -52 18 -77 21 -25 2 -71 12
-101 22 -30 10 -75 25 -100 32 -25 7 -49 16 -54 21 -6 4 -21 8 -35 8 -13 0
-48 12 -77 26 -29 14 -83 30 -121 36 -37 5 -86 14 -108 20 -22 6 -56 16 -75
23 -19 8 -48 17 -65 21 -16 4 -34 9 -40 10 -5 2 -44 10 -85 18 -41 8 -88 18
-104 21 -16 3 -38 12 -50 20 -11 8 -33 15 -49 15 -15 0 -43 6 -62 14 -18 8
-36 12 -39 8 -3 -3 -6 0 -6 6 0 6 5 22 11 36 7 14 15 23 19 21 4 -3 11 11 14
30 4 19 12 38 19 42 7 5 17 17 24 28 7 11 30 50 53 87 22 37 47 74 56 83 9 8
27 36 40 60 13 25 35 65 47 89 13 24 31 54 40 67 10 13 17 30 17 38 0 8 18 51
41 96 23 47 46 82 55 82 8 0 13 -7 11 -16 -1 -9 5 -23 15 -33 15 -13 20 -35
23 -115 3 -54 8 -120 12 -148 3 -27 7 -54 8 -60 1 -5 5 -29 10 -53 4 -25 15
-47 26 -52 10 -6 34 -10 53 -10 19 0 59 -5 88 -11 29 -5 66 -15 83 -22 16 -6
43 -10 60 -8 16 2 33 8 37 15 5 7 8 5 8 -5 0 -12 9 -17 33 -17 17 0 52 -7 77
-16 25 -9 52 -16 61 -16 9 0 30 -7 47 -15 17 -9 55 -18 84 -22 29 -3 61 -12
70 -20 14 -12 24 -13 48 -5 20 7 28 8 24 1 -3 -6 4 -19 17 -30 12 -10 32 -19
44 -19 11 0 26 -5 31 -10 6 -6 28 -13 50 -15 21 -2 62 -9 89 -15 28 -7 54 -16
59 -21 6 -5 25 -9 43 -9 19 0 42 -8 53 -18 10 -9 55 -26 99 -36 46 -10 78 -22
75 -27 -4 -6 10 -8 35 -5 32 3 44 0 54 -14 6 -9 26 -20 42 -24 17 -3 46 -9 65
-12 19 -3 45 -6 57 -7 12 -1 25 -5 29 -9 4 -5 18 -8 30 -8 13 0 26 -4 29 -10
3 -5 19 -10 35 -10 15 0 30 -7 34 -15 3 -8 16 -15 28 -15 13 1 43 -3 68 -8 25
-5 77 -19 115 -31 39 -12 84 -26 101 -31 17 -6 43 -10 57 -10 15 0 35 -4 45
-9 9 -6 44 -22 77 -38 33 -15 64 -28 70 -28 5 0 30 -4 55 -9 25 -5 58 -15 73
-23 17 -8 49 -13 80 -11 34 2 56 -1 62 -10 8 -9 40 -14 101 -16 49 -1 94 -5
99 -8 6 -3 29 -5 52 -3 28 1 44 -2 47 -12 5 -11 9 -12 28 0 16 9 40 11 78 7
30 -4 51 -7 46 -8 -5 -1 -3 -9 4 -17 8 -10 23 -13 49 -9 20 3 41 10 48 16 8 6
15 3 22 -9 6 -10 11 -12 11 -5 0 6 5 12 10 12 6 0 10 -6 10 -14 0 -10 8 -13
21 -11 12 3 29 11 39 20 9 8 20 15 24 15 4 0 17 -12 30 -26 19 -23 25 -25 44
-15 12 6 22 8 22 3 0 -6 30 -13 67 -18 38 -4 75 -9 83 -9 8 -1 20 3 27 8 7 5
20 4 32 -2 11 -6 39 -11 63 -11 24 0 50 -6 57 -12 11 -10 14 -10 18 0 3 6 13
12 23 12 10 0 20 -7 23 -14 5 -11 24 -15 82 -14 41 0 78 5 81 10 3 4 8 6 12 4
4 -2 27 0 52 4 33 6 53 5 74 -6 16 -8 42 -14 57 -14 15 0 30 -4 33 -8 3 -5 44
-9 91 -10 85 -1 86 0 104 29 l18 29 26 -20 c22 -17 30 -19 48 -10 16 9 24 8
38 -4 10 -9 27 -16 38 -16 11 0 23 -3 26 -7 4 -3 19 -7 35 -8 15 -1 42 3 61 8
24 6 41 5 57 -3 13 -8 30 -9 41 -5 10 5 25 9 33 9 8 1 23 -5 32 -13 11 -8 29
-11 50 -7 18 3 62 1 98 -5 36 -6 112 -14 170 -19 58 -5 130 -13 160 -19 30 -6
73 -13 95 -16 22 -3 100 -7 174 -10 80 -2 137 -8 141 -14 3 -6 33 -13 66 -15
32 -3 73 -9 89 -15 17 -5 45 -12 63 -15 18 -2 39 -9 46 -15 7 -6 41 -12 74
-14 33 -1 58 -5 55 -9 -2 -5 7 -8 22 -8 14 0 43 -12 65 -26 29 -19 48 -25 72
-22 24 4 38 -1 57 -18 21 -19 32 -22 72 -17 39 5 50 3 55 -11 4 -10 18 -16 37
-16 18 0 40 -9 54 -22 19 -17 28 -20 41 -12 13 8 20 6 32 -9 11 -13 31 -20 60
-22 26 -2 48 -9 55 -19 7 -9 19 -16 27 -16 8 0 19 -5 25 -11 6 -6 34 -11 62
-11 28 0 54 -5 57 -10 4 -6 30 -21 58 -34 28 -13 62 -24 76 -24 14 0 33 -9 42
-19 9 -11 36 -25 60 -31 24 -6 63 -18 88 -26 29 -10 46 -11 48 -4 3 7 10 7 23
-1 11 -5 17 -14 14 -19 -3 -5 6 -12 20 -16 14 -3 34 -4 45 -1 12 3 23 -1 28
-10 5 -8 20 -16 35 -17 15 -2 33 -8 41 -15 10 -8 21 -9 41 -1 24 9 32 7 52
-12 20 -19 36 -23 97 -24 39 -1 82 -6 93 -13 12 -6 43 -11 70 -11 26 0 66 -5
88 -11 22 -6 69 -15 105 -19 36 -5 94 -11 130 -15 36 -4 74 -10 85 -15 11 -5
41 -13 67 -19 26 -6 68 -11 95 -11 26 0 71 -6 99 -14 28 -7 79 -14 113 -15 34
0 71 -6 81 -11 10 -5 44 -12 76 -16 33 -3 78 -12 102 -20 23 -8 52 -14 65 -14
12 1 40 -1 62 -4 22 -2 62 -7 89 -11 27 -3 58 -11 68 -16 10 -5 18 -6 18 -2 0
4 5 2 12 -5 7 -7 24 -12 39 -12 15 0 31 -4 34 -10 3 -5 24 -10 46 -10 21 0 39
-4 39 -8 0 -4 15 -13 33 -20 18 -7 47 -12 64 -12 17 0 53 -9 80 -21 26 -12 64
-23 83 -24 19 -2 58 -7 85 -10 28 -4 64 -9 80 -10 17 -1 49 -8 71 -15 23 -7
53 -23 68 -36 14 -13 32 -24 40 -24 8 0 18 -4 21 -10 3 -5 34 -10 69 -10 47 0
67 4 79 18 8 9 15 19 15 22 -1 3 5 29 12 59 8 35 19 55 30 58 10 3 23 16 29
29 6 14 11 52 11 85 0 33 7 76 15 95 8 19 17 59 21 87 3 29 8 59 11 67 3 8 7
20 8 25 2 6 10 39 19 75 9 36 19 76 21 90 3 14 10 45 16 70 6 25 14 54 19 65
4 11 13 43 19 71 7 28 14 73 17 100 3 27 9 63 15 80 5 18 7 43 4 57 -4 14 -2
28 4 31 6 4 11 38 11 77 0 38 4 69 9 69 5 0 14 24 20 53 6 28 12 84 12 122 1
39 6 76 11 82 6 7 7 25 4 39 -4 15 0 59 8 98 8 39 20 100 26 136 6 36 13 76
15 90 2 14 11 54 20 90 10 36 23 85 31 110 8 25 23 81 35 125 11 44 22 94 24
111 2 17 8 40 13 50 6 11 16 47 22 81 6 34 17 75 25 90 8 15 15 41 15 57 0 16
14 53 30 83 17 29 30 58 30 65 1 7 9 31 20 53 11 22 19 47 20 56 0 9 7 33 15
53 9 22 14 55 12 83 -4 36 1 53 18 79 13 19 26 57 30 84 4 28 7 66 7 85 0 19
4 35 10 35 5 0 6 5 3 10 -4 6 -2 17 5 25 6 7 22 57 36 111 14 54 23 103 20
111 -3 7 0 25 7 40 7 16 20 39 29 53 9 14 23 54 32 90 8 36 18 85 22 110 4 25
7 49 6 54 -2 4 2 14 7 20 6 7 12 38 15 70 3 31 9 63 15 70 6 7 13 28 15 47 3
19 14 61 26 94 12 33 23 83 25 110 2 28 9 66 15 85 7 19 18 49 26 67 8 17 14
40 14 51 0 11 7 36 15 56 8 20 12 36 9 36 -4 0 -1 8 7 18 8 9 20 27 27 40 7
12 15 48 19 79 3 32 14 69 25 83 14 19 20 47 22 110 2 47 11 108 20 135 9 28
16 65 16 83 0 17 5 32 10 32 6 0 10 10 10 22 0 12 7 46 16 77 9 31 23 72 31
92 11 27 12 42 4 56 -6 11 -16 61 -22 112 -7 50 -16 91 -21 91 -4 0 -8 7 -8
15 0 9 9 15 24 15z m612 -307 c7 -15 10 -31 7 -35 -2 -5 0 -8 6 -8 5 0 14 -19
19 -42 5 -24 17 -72 27 -108 9 -36 22 -69 29 -75 7 -5 20 -46 30 -90 9 -44 23
-104 31 -134 8 -29 19 -59 24 -65 6 -7 17 -39 26 -71 8 -33 15 -78 15 -101 0
-24 -5 -55 -11 -71 -6 -15 -22 -75 -35 -133 -14 -58 -33 -148 -44 -200 -10
-52 -28 -120 -38 -150 -11 -30 -28 -82 -37 -115 -9 -33 -21 -72 -27 -87 -5
-15 -18 -34 -29 -44 -10 -9 -16 -20 -13 -25 3 -5 -6 -32 -19 -60 -14 -28 -23
-59 -20 -69 3 -10 -2 -31 -11 -48 -8 -16 -27 -64 -41 -105 -14 -42 -25 -84
-25 -94 0 -10 -7 -31 -16 -48 -9 -16 -23 -48 -31 -70 -9 -22 -19 -60 -24 -85
-4 -25 -19 -76 -32 -113 -14 -37 -27 -71 -31 -74 -3 -4 -6 -14 -6 -23 0 -10
-7 -35 -16 -56 -9 -22 -16 -39 -15 -39 0 0 -4 -16 -10 -35 -5 -19 -19 -68 -29
-109 -11 -41 -24 -79 -28 -85 -5 -6 -17 -38 -27 -71 -10 -33 -24 -69 -31 -80
-6 -11 -15 -34 -19 -52 -3 -17 -8 -46 -10 -63 -3 -18 -8 -37 -13 -44 -5 -6
-16 -34 -25 -63 -10 -28 -17 -62 -17 -75 0 -13 -5 -29 -11 -35 -7 -7 -14 -30
-16 -53 -2 -23 -17 -60 -34 -84 -23 -36 -29 -54 -29 -100 0 -43 -3 -56 -15
-56 -11 0 -15 -11 -15 -37 0 -21 -12 -69 -26 -108 -14 -38 -27 -74 -28 -80 -2
-5 -5 -17 -8 -25 -3 -8 -10 -31 -16 -50 -6 -19 -20 -60 -31 -90 -12 -30 -23
-66 -24 -80 -2 -14 -11 -43 -21 -65 -10 -22 -20 -56 -23 -75 -3 -19 -16 -56
-29 -82 -13 -26 -24 -58 -24 -70 0 -13 -9 -29 -21 -36 -15 -10 -19 -20 -15
-38 4 -14 0 -34 -9 -48 -9 -13 -20 -51 -26 -85 -7 -35 -17 -65 -25 -68 -9 -3
-14 -21 -14 -47 0 -23 -9 -61 -20 -84 -11 -22 -20 -47 -20 -54 0 -7 -9 -37
-20 -66 -11 -30 -22 -66 -24 -80 -2 -15 -7 -48 -11 -75 -4 -26 -11 -50 -16
-53 -5 -3 -9 -17 -9 -31 0 -15 -12 -64 -26 -110 -15 -46 -30 -83 -35 -83 -4 0
-15 -14 -23 -32 -9 -17 -16 -46 -16 -65 0 -18 -4 -33 -9 -33 -5 0 -14 -23 -21
-50 -7 -28 -16 -53 -21 -56 -5 -3 -9 -26 -9 -52 0 -27 -6 -72 -14 -102 -8 -30
-17 -80 -21 -110 -4 -30 -10 -59 -14 -65 -4 -5 -12 -26 -18 -45 -6 -19 -14
-66 -18 -104 -4 -38 -13 -85 -20 -105 -7 -20 -16 -66 -20 -101 -3 -36 -11 -81
-15 -100 -5 -19 -12 -70 -14 -113 -3 -42 -12 -99 -20 -125 -9 -26 -18 -60 -21
-75 -3 -15 -9 -25 -14 -23 -5 3 -11 18 -13 33 -3 16 -15 71 -26 123 -11 52
-20 111 -20 130 0 19 -5 71 -11 115 -7 44 -15 114 -20 156 -4 42 -11 80 -14
86 -4 6 -14 51 -22 101 -14 82 -14 94 -1 121 9 16 23 51 32 78 9 26 27 70 40
96 13 27 26 69 30 93 3 25 12 51 19 58 8 7 17 31 21 52 3 21 12 48 18 59 6 11
16 34 22 50 6 17 23 62 37 100 13 39 32 97 41 130 10 33 25 87 35 120 10 33
24 83 31 110 7 28 18 64 25 80 8 17 17 44 20 60 4 17 18 57 31 91 13 34 26 88
30 120 4 32 10 64 14 69 4 6 10 23 14 40 4 16 9 44 12 62 2 19 11 44 19 57 8
12 12 25 9 29 -3 3 3 23 13 44 11 21 28 61 37 88 10 28 19 57 20 65 1 9 5 20
9 26 3 6 9 38 13 70 3 33 12 68 19 80 8 12 20 54 29 93 8 40 26 101 39 134 14
34 33 85 41 114 9 28 16 62 16 75 0 13 4 28 9 33 6 6 12 26 16 45 3 19 10 58
16 85 6 28 20 79 32 115 11 36 26 77 34 93 7 15 15 44 17 65 3 20 10 60 16 87
6 28 13 59 14 70 1 11 8 30 14 42 7 12 15 44 19 70 3 26 12 58 20 73 7 14 13
39 13 56 0 17 11 76 25 130 14 54 25 113 25 131 0 18 5 33 10 33 6 0 10 14 10
30 0 17 8 47 19 68 10 21 23 81 29 137 6 55 20 127 31 160 11 33 24 87 30 120
6 33 20 89 31 125 11 36 20 83 20 105 0 22 10 67 21 100 11 33 22 80 25 105 3
25 13 63 21 85 9 22 24 58 34 80 10 22 21 67 25 100 3 33 12 69 18 80 6 11 17
47 24 80 8 33 16 85 19 115 3 30 9 58 14 61 5 3 26 50 45 105 20 54 40 116 45
138 5 21 14 47 19 56 6 10 14 51 20 91 6 40 19 87 30 104 14 23 20 50 20 92 0
33 3 63 7 67 5 4 13 -5 19 -21z m-12268 -1588 c4 -6 14 -11 22 -12 8 -1 54
-15 102 -32 48 -17 95 -35 105 -40 10 -6 79 -27 153 -46 74 -20 147 -43 162
-51 14 -8 34 -14 45 -14 10 0 42 -9 71 -20 29 -11 64 -20 77 -20 14 0 36 -6
48 -14 12 -8 51 -22 87 -31 36 -9 74 -21 85 -25 11 -5 36 -11 55 -15 19 -3 58
-10 85 -14 28 -5 57 -12 65 -15 8 -3 58 -12 110 -20 52 -8 122 -22 155 -31 33
-9 86 -20 118 -26 32 -5 66 -13 75 -18 9 -5 40 -12 67 -16 28 -4 70 -13 95
-20 25 -7 74 -19 110 -26 36 -6 71 -16 78 -22 6 -5 12 -7 12 -4 0 2 28 -2 63
-10 34 -8 87 -21 117 -28 30 -7 55 -14 55 -15 0 -1 14 -4 30 -6 17 -1 80 -10
140 -19 61 -9 126 -20 145 -25 19 -4 65 -15 102 -24 36 -9 82 -16 102 -16 20
0 36 -3 36 -7 0 -5 15 -8 33 -9 17 0 59 -4 92 -8 33 -5 68 -12 77 -17 11 -6
19 -5 23 1 5 8 11 8 20 0 7 -6 64 -17 126 -25 63 -8 143 -22 179 -30 36 -9 76
-18 90 -22 14 -3 30 -8 35 -9 6 -2 44 -11 85 -19 41 -9 82 -17 90 -18 9 -2 20
-6 27 -10 6 -4 42 -12 79 -17 38 -6 87 -13 109 -16 22 -3 50 -10 62 -16 12 -6
40 -8 62 -5 24 3 47 0 58 -8 10 -6 25 -12 33 -13 8 0 58 -6 110 -12 52 -6 102
-14 110 -19 8 -4 40 -8 70 -9 30 -2 98 -7 150 -12 52 -5 115 -12 140 -15 25
-2 63 -8 85 -14 22 -5 67 -12 100 -15 33 -3 78 -8 100 -11 22 -3 87 -15 145
-27 58 -11 112 -23 120 -26 8 -3 44 -12 80 -19 36 -7 83 -18 105 -23 22 -5 67
-15 100 -23 33 -8 96 -26 140 -42 44 -15 104 -33 133 -41 29 -8 64 -14 78 -14
13 0 41 -9 61 -20 21 -11 48 -20 60 -20 13 0 23 -4 23 -9 0 -5 17 -8 38 -7 20
2 44 -4 53 -11 9 -8 34 -17 55 -20 22 -3 46 -11 54 -18 8 -7 29 -16 45 -20 17
-4 41 -9 55 -12 14 -2 28 -10 32 -17 4 -7 26 -18 50 -26 24 -7 59 -20 78 -28
19 -8 35 -14 35 -12 0 2 15 -5 33 -14 18 -9 36 -14 41 -12 5 3 19 -3 32 -13
13 -10 31 -18 40 -18 10 0 41 -11 70 -25 30 -14 63 -29 74 -33 11 -5 31 -10
45 -12 14 -2 41 -11 60 -19 19 -9 53 -25 76 -35 22 -10 49 -19 60 -19 12 0 24
-3 28 -7 3 -4 12 -8 19 -9 7 -1 37 -9 67 -18 30 -9 69 -21 86 -26 17 -6 41
-10 53 -10 12 0 30 -4 39 -9 9 -5 47 -11 84 -13 37 -3 73 -10 80 -15 7 -6 43
-18 79 -27 36 -9 79 -16 95 -16 17 0 35 -5 40 -10 6 -6 24 -13 40 -15 16 -3
58 -10 94 -16 36 -6 108 -23 160 -36 52 -14 122 -32 155 -40 33 -7 103 -18
155 -23 52 -5 118 -14 145 -20 28 -6 64 -12 80 -15 17 -2 87 -22 156 -43 87
-27 162 -43 245 -52 65 -7 124 -16 130 -21 6 -5 13 -6 17 -3 3 3 14 1 25 -5
10 -5 43 -13 73 -16 30 -3 78 -8 108 -11 30 -3 62 -9 70 -14 9 -4 37 -11 64
-15 26 -4 50 -11 53 -16 3 -5 24 -9 47 -9 23 0 53 -6 67 -13 15 -8 47 -17 72
-20 26 -4 63 -16 83 -27 20 -11 40 -18 45 -15 5 3 11 1 15 -5 3 -5 16 -10 28
-10 12 0 45 -11 74 -24 51 -24 51 -24 46 -64 -3 -26 0 -50 10 -68 8 -16 20
-50 26 -77 6 -26 11 -59 11 -72 0 -14 7 -42 16 -63 8 -20 22 -73 29 -117 7
-44 21 -107 30 -139 10 -33 23 -69 30 -80 7 -12 18 -46 25 -76 7 -30 22 -75
33 -100 12 -26 21 -64 20 -90 0 -25 6 -70 14 -100 9 -30 17 -77 19 -105 2 -27
7 -75 12 -105 6 -31 6 -59 1 -64 -5 -6 -19 -5 -34 2 -14 7 -33 12 -41 12 -8 0
-34 9 -57 21 -26 13 -75 24 -132 29 -58 5 -122 19 -180 40 -49 17 -106 33
-126 35 -20 1 -69 14 -110 28 -41 15 -95 29 -119 32 -25 4 -52 9 -60 13 -8 3
-24 6 -35 8 -11 1 -54 7 -95 13 -41 6 -93 15 -115 20 -22 6 -85 18 -140 26
-55 9 -138 22 -185 30 -47 8 -125 20 -175 26 -49 7 -109 14 -133 15 -24 1 -55
7 -70 12 -15 6 -52 13 -82 16 -30 3 -89 12 -130 20 -41 8 -106 17 -145 21 -38
3 -102 12 -140 20 -39 8 -102 22 -140 30 -39 9 -119 32 -180 51 -60 19 -119
39 -130 45 -11 5 -33 13 -50 18 -16 5 -68 23 -115 40 -46 17 -93 37 -105 45
-11 7 -38 16 -60 20 -22 4 -59 16 -83 28 -27 12 -52 18 -67 14 -15 -4 -25 -2
-25 4 0 6 -16 18 -35 26 -19 8 -49 16 -67 18 -18 3 -60 14 -93 26 -33 11 -68
25 -77 31 -10 5 -29 9 -42 9 -14 0 -28 5 -31 10 -3 6 -19 10 -34 10 -15 0 -31
3 -34 7 -4 3 -19 8 -34 9 -15 2 -33 10 -39 18 -6 8 -41 20 -79 26 -38 6 -75
16 -81 21 -7 6 -46 11 -87 12 -41 1 -73 6 -70 10 3 5 -1 7 -8 6 -8 -2 -33 1
-56 5 -24 4 -43 13 -43 19 0 8 -25 13 -68 15 -37 1 -78 6 -92 11 -14 6 -63 13
-110 16 -47 3 -101 8 -120 9 -19 2 -88 9 -153 16 -70 8 -122 9 -125 4 -4 -5
-17 -9 -30 -9 -13 0 -27 6 -31 13 -4 7 -31 13 -62 14 -30 2 -61 0 -69 -2 -8
-3 -14 0 -13 8 2 6 -7 12 -20 13 -12 0 -53 4 -92 7 -38 3 -105 6 -147 6 -43
-1 -106 -2 -140 -4 -35 -1 -71 -6 -81 -11 -9 -6 -54 -14 -99 -19 -50 -6 -84
-6 -88 0 -3 5 -23 9 -45 8 -22 0 -76 2 -120 5 -44 3 -109 12 -145 21 -36 9
-110 21 -165 26 -55 6 -110 8 -122 5 -11 -2 -28 -8 -37 -11 -11 -4 -16 -1 -16
10 0 10 -10 17 -27 18 -16 1 -44 3 -63 4 -19 2 -80 8 -135 13 -55 5 -153 15
-218 21 -64 6 -122 8 -127 5 -6 -4 -17 -2 -23 4 -7 5 -47 15 -88 21 -40 6 -94
15 -119 20 -25 5 -61 10 -80 12 -19 1 -39 5 -45 9 -5 3 -35 9 -65 13 -30 4
-84 14 -120 22 -36 9 -83 24 -105 33 -22 10 -62 22 -89 25 -27 4 -66 19 -86
32 -20 14 -44 22 -52 19 -9 -4 -40 1 -69 10 -30 9 -70 20 -89 26 -19 5 -53 11
-75 14 -22 2 -55 7 -72 11 -18 3 -33 10 -33 14 0 4 -35 13 -77 19 -43 7 -96
17 -118 23 -22 7 -47 18 -56 25 -9 7 -31 18 -50 24 -19 6 -47 13 -64 16 -16 3
-42 11 -57 19 -15 8 -38 14 -52 14 -13 0 -26 5 -28 11 -2 6 -48 20 -103 30
-54 11 -104 24 -111 30 -7 5 -25 12 -40 15 -16 3 -33 9 -39 13 -5 5 -38 18
-73 30 -34 11 -75 21 -90 21 -16 0 -37 7 -48 15 -10 8 -29 15 -41 15 -13 0
-23 4 -23 9 0 5 -21 16 -47 24 -35 11 -60 13 -93 7 -31 -6 -47 -5 -52 3 -4 7
-8 17 -8 23 0 5 -33 15 -72 22 -40 6 -91 16 -113 21 -22 5 -65 14 -95 20 -30
6 -59 16 -64 21 -6 6 -18 10 -28 10 -11 0 -23 11 -28 26 -6 14 -10 43 -10 65
0 22 -7 51 -16 64 -9 13 -13 29 -9 34 3 6 1 20 -5 32 -8 15 -9 24 -1 32 7 7 4
21 -9 47 -11 21 -17 40 -14 43 3 3 -9 52 -25 110 -17 58 -31 112 -31 121 0 8
-6 30 -14 48 -7 18 -23 63 -35 100 -11 36 -18 74 -14 84 4 11 3 15 -4 11 -6
-4 -13 0 -16 7 -3 8 -1 16 4 18 6 2 -2 28 -19 58 -16 30 -33 80 -36 110 -4 30
-14 82 -22 115 -8 33 -22 85 -31 115 -8 30 -23 74 -34 98 -10 23 -19 52 -19
63 0 11 -7 30 -15 42 -8 13 -17 51 -19 85 -3 34 -1 64 4 67 5 3 7 12 3 20 -3
8 -2 23 1 32 4 10 10 13 14 8z m-219 -2266 c14 -5 35 -14 46 -19 11 -5 45 -14
75 -19 30 -6 73 -14 95 -20 22 -5 64 -15 93 -22 28 -8 52 -17 52 -21 0 -5 15
-8 33 -8 18 0 41 -6 52 -13 11 -7 38 -14 60 -16 22 -1 44 -7 49 -12 6 -5 25
-9 43 -9 18 0 61 -11 95 -25 34 -14 70 -25 80 -25 10 0 18 -3 18 -7 0 -5 10
-9 23 -9 12 -1 40 -7 62 -13 22 -6 65 -11 96 -11 39 0 59 -4 62 -14 3 -7 20
-16 39 -19 18 -3 58 -11 88 -17 30 -7 63 -16 72 -21 10 -5 29 -9 43 -9 14 0
33 -4 43 -9 9 -5 38 -14 65 -20 26 -6 56 -11 67 -11 12 0 31 -6 43 -14 12 -8
45 -17 72 -22 28 -4 57 -9 65 -10 8 -2 49 -8 90 -13 41 -6 106 -15 143 -21 38
-5 78 -15 88 -21 11 -6 57 -12 102 -15 45 -2 93 -6 107 -9 14 -3 39 -8 55 -11
17 -4 32 -11 35 -15 3 -5 28 -11 55 -15 28 -3 73 -7 100 -9 28 -1 57 -5 65 -8
8 -3 35 -8 60 -12 25 -3 72 -8 105 -10 33 -3 81 -10 106 -16 26 -6 78 -11 115
-11 38 0 74 -4 79 -9 6 -4 31 -13 55 -19 25 -5 81 -13 125 -16 44 -3 84 -9 90
-13 5 -5 33 -13 60 -20 28 -6 59 -10 70 -9 11 0 56 -4 100 -11 44 -7 114 -18
155 -26 41 -7 100 -20 130 -28 39 -11 59 -12 68 -5 9 8 17 6 31 -6 10 -9 56
-23 107 -31 49 -8 106 -15 126 -15 20 0 39 -4 42 -8 3 -5 30 -9 61 -10 30 -1
64 -6 76 -12 11 -6 32 -10 47 -9 15 1 45 -3 67 -9 22 -6 67 -14 100 -17 33 -4
64 -9 68 -12 5 -3 64 -7 130 -8 67 -2 134 -8 149 -14 15 -6 94 -14 175 -20 82
-5 164 -8 183 -6 19 1 41 -2 48 -8 8 -6 48 -12 90 -13 43 -1 88 -5 102 -9 14
-4 48 -8 76 -9 28 -2 55 -5 60 -9 5 -3 57 -11 114 -18 58 -7 128 -13 155 -15
28 -1 73 -4 100 -6 28 -3 75 -10 105 -17 30 -7 111 -15 180 -16 69 -2 150 -6
180 -9 30 -2 75 -11 100 -20 25 -8 54 -15 65 -16 11 0 40 -3 65 -6 25 -4 47
-10 50 -14 3 -4 34 -13 70 -20 36 -7 81 -14 100 -16 19 -1 55 -8 80 -14 25 -7
70 -15 100 -20 30 -4 79 -15 109 -24 30 -10 62 -15 72 -13 11 3 19 2 19 -3 0
-4 17 -10 38 -14 20 -3 46 -7 57 -9 11 -3 55 -10 97 -16 43 -7 87 -9 98 -6 12
4 26 0 35 -9 8 -8 41 -17 72 -21 32 -3 83 -11 113 -17 30 -6 67 -12 82 -14 14
-1 32 -5 39 -10 7 -4 31 -8 53 -10 23 -1 83 -5 135 -9 52 -4 105 -11 118 -16
14 -5 44 -9 67 -9 23 0 46 -3 49 -7 4 -3 17 -8 29 -9 13 -2 32 -6 43 -8 11 -2
20 -5 20 -6 0 -1 20 -4 45 -6 25 -3 54 -9 65 -14 11 -5 36 -11 56 -15 21 -3
42 -12 48 -19 7 -8 21 -12 32 -9 11 3 37 1 57 -5 20 -6 57 -16 82 -22 25 -6
54 -12 65 -14 11 -2 47 -13 80 -24 33 -10 83 -24 110 -30 28 -6 90 -14 139
-17 49 -3 100 -11 115 -18 14 -8 41 -21 59 -30 19 -9 41 -17 51 -17 9 0 22 -5
27 -10 6 -6 27 -12 46 -13 20 -1 42 -8 50 -15 8 -6 17 -9 20 -6 4 3 55 -7 115
-21 59 -15 124 -29 143 -32 19 -2 84 -6 143 -8 60 -2 114 -8 121 -14 7 -6 64
-16 127 -22 63 -7 130 -13 149 -13 19 -1 40 -5 47 -9 7 -4 49 -13 95 -19 46
-6 100 -17 121 -24 20 -8 49 -14 63 -14 14 0 42 -9 62 -19 20 -11 49 -25 63
-31 15 -7 31 -22 36 -34 5 -11 10 -41 11 -66 2 -25 7 -56 12 -70 5 -14 18 -73
29 -132 11 -59 27 -167 36 -240 8 -73 20 -171 26 -218 6 -47 17 -118 25 -159
8 -40 12 -76 9 -79 -3 -3 -17 1 -32 8 -16 8 -50 14 -78 15 -27 1 -81 9 -120
19 -38 9 -105 22 -148 28 -55 8 -89 8 -115 0 -20 -5 -48 -9 -62 -8 -14 1 -45
6 -70 10 -25 5 -54 11 -65 13 -11 3 -98 7 -194 9 -96 2 -226 8 -290 14 -64 6
-120 15 -125 20 -4 4 -24 6 -43 3 -24 -4 -37 -1 -46 10 -7 9 -38 17 -77 22
-36 3 -85 13 -110 21 -25 8 -52 17 -60 21 -8 3 -22 8 -30 10 -8 3 -40 8 -70
13 -30 4 -93 17 -140 28 -47 12 -120 26 -162 32 -44 6 -96 21 -123 35 -25 14
-54 25 -64 25 -9 0 -21 4 -27 9 -5 5 -27 11 -49 14 -22 3 -76 12 -120 20 -44
9 -93 18 -110 21 -16 3 -59 8 -95 11 -36 3 -101 10 -145 16 -44 6 -107 12
-140 15 -33 2 -93 6 -134 9 -41 2 -79 9 -85 15 -5 5 -31 10 -56 10 -25 0 -84
5 -130 11 -47 6 -104 12 -126 13 -23 2 -47 7 -54 11 -7 4 -31 9 -53 11 -23 1
-76 6 -117 10 -41 3 -78 12 -82 18 -4 6 -8 8 -8 5 0 -4 -19 -2 -42 3 -24 5
-63 11 -88 13 -25 2 -83 7 -130 10 -47 3 -143 6 -214 6 -71 -1 -159 4 -195 10
-36 6 -79 12 -96 15 -16 2 -48 7 -70 10 -22 3 -60 7 -85 8 -25 1 -76 14 -115
28 -39 14 -106 29 -150 34 -44 4 -104 8 -134 10 -29 1 -59 8 -64 13 -6 6 -36
11 -67 11 -30 0 -113 5 -185 11 -71 6 -139 15 -150 19 -11 5 -40 11 -65 13
-25 3 -76 10 -115 16 -38 6 -122 15 -185 22 -63 6 -144 15 -180 19 -36 5 -110
16 -165 24 -55 9 -120 18 -145 20 -25 3 -58 7 -75 10 -16 2 -59 7 -95 11 -36
3 -74 10 -85 15 -11 4 -51 13 -90 19 -38 6 -92 14 -120 17 -27 3 -90 8 -140
11 -49 2 -115 6 -145 8 -30 2 -68 6 -85 10 -16 3 -84 9 -150 12 -66 4 -146 7
-178 9 -32 1 -61 5 -64 8 -4 3 -17 6 -30 6 -13 0 -36 6 -51 14 -15 8 -54 19
-87 24 -33 6 -107 18 -165 27 -58 10 -134 25 -170 35 -36 10 -94 25 -130 34
-36 9 -78 18 -95 20 -16 3 -65 12 -108 20 -44 9 -83 18 -87 21 -5 3 -50 16
-101 29 -52 14 -97 22 -101 20 -4 -3 -15 0 -25 5 -10 5 -43 14 -73 20 -30 6
-71 13 -90 16 -19 3 -80 12 -135 20 -55 8 -125 20 -155 25 -30 6 -71 13 -90
16 -19 3 -57 11 -85 19 -27 7 -77 22 -110 31 -33 10 -66 22 -73 27 -7 6 -31
14 -55 19 -23 5 -67 13 -97 19 -30 5 -63 10 -73 12 -9 2 -23 9 -29 15 -7 7
-24 12 -38 12 -15 0 -30 3 -34 7 -3 4 -14 8 -24 9 -9 1 -59 11 -111 23 -52 12
-99 25 -105 29 -6 3 -20 8 -31 9 -11 2 -54 14 -95 28 -41 13 -106 29 -145 36
-38 6 -79 12 -90 14 -11 1 -27 5 -35 8 -8 3 -34 11 -56 17 -26 6 -48 20 -59
36 -11 18 -13 24 -4 19 11 -6 12 -5 2 6 -7 7 -13 20 -13 28 0 8 -6 22 -14 30
-8 9 -26 61 -40 116 -15 55 -29 107 -33 115 -3 8 -7 22 -8 30 -2 8 -8 29 -13
45 -6 17 -15 46 -21 65 -6 20 -14 58 -17 85 -4 28 -15 62 -25 76 -10 14 -16
29 -12 33 3 3 2 6 -4 6 -5 0 -10 6 -11 13 -1 6 -5 29 -8 50 -3 20 -10 40 -15
43 -5 3 -5 13 0 23 6 10 8 37 6 62 -2 24 -9 57 -15 74 -6 16 -13 49 -16 74 -2
24 -9 61 -14 83 -6 21 -10 58 -9 82 3 43 3 44 28 35z"/>
<g>
<path d="M9591 8830 c-9 -1 -28 -11 -43 -23 -20 -16 -28 -32 -28 -55 0 -18 -4
-40 -9 -50 -5 -9 -13 -28 -19 -42 -5 -14 -17 -41 -26 -62 -9 -20 -16 -42 -16
-50 0 -7 -11 -35 -25 -62 -14 -27 -25 -56 -25 -64 0 -7 -9 -25 -20 -39 -11
-14 -20 -33 -20 -42 0 -10 -4 -21 -9 -27 -5 -5 -14 -27 -21 -49 -7 -22 -23
-67 -37 -100 -14 -33 -31 -73 -39 -90 -7 -16 -27 -63 -44 -104 -16 -40 -30
-81 -30 -90 0 -10 -12 -46 -26 -82 -14 -35 -41 -118 -60 -184 -19 -66 -46
-158 -60 -205 -14 -47 -29 -94 -34 -105 -4 -11 -16 -50 -25 -87 -10 -38 -20
-68 -24 -68 -3 0 -19 -42 -34 -92 -16 -51 -39 -114 -52 -139 -13 -25 -29 -66
-35 -90 -7 -24 -23 -66 -36 -92 -13 -27 -24 -56 -24 -66 0 -9 -4 -21 -9 -27
-4 -5 -25 -58 -46 -117 -21 -59 -42 -110 -46 -113 -5 -3 -12 -28 -16 -57 -4
-29 -6 -55 -5 -60 1 -4 -8 -11 -21 -16 -12 -5 -29 -16 -36 -24 -8 -10 -10 -28
-6 -50 4 -19 15 -49 26 -66 11 -18 27 -31 39 -31 11 0 20 -4 20 -10 0 -5 6
-10 13 -10 6 0 22 11 35 24 12 13 22 29 22 35 0 7 23 11 58 12 31 1 71 2 87 3
17 2 80 8 140 15 61 6 142 16 180 22 39 6 79 14 90 19 11 5 90 11 175 14 85 2
173 7 194 9 22 3 51 1 65 -5 14 -5 53 -12 86 -14 33 -3 65 -5 70 -5 6 -1 39 2
75 5 36 3 108 9 160 12 81 6 97 4 109 -10 9 -11 30 -16 67 -16 29 0 55 -4 59
-9 3 -5 31 -13 63 -16 31 -4 66 -13 78 -20 12 -8 26 -10 34 -5 7 4 38 6 69 3
31 -2 63 -11 72 -19 8 -8 26 -14 40 -14 13 1 40 9 59 18 25 12 36 25 38 45 2
15 8 27 13 27 5 0 9 42 9 93 0 50 1 108 3 127 2 19 9 55 15 80 6 25 18 124 26
220 9 96 17 267 17 380 1 113 1 232 1 265 0 33 -3 209 -5 392 -3 183 -8 341
-12 353 -4 14 -15 20 -34 20 -15 0 -42 5 -60 11 -17 6 -31 15 -31 20 0 5 -10
9 -22 9 -11 0 -35 10 -52 23 -17 13 -51 29 -76 36 -25 7 -78 31 -118 52 -40
21 -78 39 -84 39 -6 0 -19 6 -27 14 -9 8 -33 23 -54 35 -21 12 -58 26 -83 31
-25 6 -56 22 -70 35 -14 14 -30 25 -37 25 -7 0 -50 25 -97 55 -47 30 -100 68
-118 85 -18 16 -39 30 -47 30 -8 0 -40 24 -72 54 -31 30 -67 57 -80 61 -13 3
-43 19 -65 35 -23 17 -48 30 -57 30z m-13 -230 c5 0 17 -9 26 -19 10 -11 15
-25 11 -30 -3 -6 0 -14 8 -17 9 -3 18 -17 22 -32 4 -15 12 -34 19 -42 7 -8 27
-55 45 -104 18 -49 42 -116 52 -150 10 -34 32 -99 49 -146 17 -47 37 -90 45
-96 8 -6 15 -25 15 -42 0 -17 5 -34 10 -37 6 -3 10 -17 10 -31 0 -13 4 -24 8
-24 5 0 15 -25 22 -56 8 -31 20 -58 27 -61 7 -3 13 -13 13 -23 0 -11 4 -21 9
-24 5 -3 14 -28 21 -55 6 -28 18 -55 26 -62 8 -6 14 -22 14 -35 0 -14 6 -24
15 -24 8 0 18 -8 24 -17 5 -10 12 -39 15 -65 4 -25 18 -73 33 -105 15 -32 28
-66 30 -75 2 -10 19 -51 39 -90 20 -40 51 -102 69 -138 19 -36 34 -71 34 -78
1 -7 14 -32 30 -55 15 -23 32 -53 36 -66 4 -13 19 -45 34 -70 15 -25 39 -71
54 -101 15 -30 40 -77 57 -105 16 -27 29 -56 30 -64 0 -8 7 -22 15 -31 9 -10
17 -26 19 -36 3 -11 9 -31 15 -46 7 -19 7 -29 -2 -37 -9 -7 -32 -7 -72 0 -33
5 -85 9 -116 9 -30 -1 -75 6 -99 14 -32 11 -94 15 -252 15 -115 0 -214 3 -220
7 -5 4 -32 6 -59 5 -38 0 -54 4 -66 19 -10 11 -21 20 -25 20 -5 0 -8 -6 -8
-14 0 -8 -14 -16 -32 -19 -18 -4 -71 -9 -118 -13 -47 -3 -101 -7 -120 -9 -19
-2 -64 -6 -100 -10 -36 -3 -94 -12 -130 -20 -36 -8 -123 -17 -195 -20 -71 -3
-142 -8 -158 -11 -19 -4 -29 -1 -33 10 -4 9 0 31 7 49 8 17 12 36 11 41 -2 5
4 16 12 25 8 9 33 52 55 95 23 44 41 90 41 103 0 13 5 23 10 23 6 0 10 9 10
20 0 12 9 38 20 60 11 22 27 65 36 97 9 32 18 69 21 83 3 14 11 32 17 40 7 8
20 35 30 60 10 25 23 54 29 65 6 11 14 38 18 60 4 24 3 45 -3 52 -7 9 -3 26
16 57 14 25 26 58 26 75 0 16 4 32 9 35 5 4 12 25 16 49 4 23 15 61 26 84 10
24 19 51 19 61 0 10 4 22 9 27 5 6 26 57 46 115 21 58 41 128 45 156 4 29 11
63 15 75 4 13 16 35 26 48 11 13 19 31 19 40 0 9 9 34 20 56 11 21 20 55 21
74 2 20 8 48 16 63 7 15 13 39 13 54 0 15 12 48 26 73 15 25 33 53 40 62 8 8
16 30 18 48 2 18 9 38 15 44 6 6 11 21 11 34 0 13 7 26 15 29 9 4 15 19 15 40
0 19 4 34 8 34z m222 -77 c11 -3 20 -9 20 -14 0 -5 11 -9 24 -9 13 0 40 -13
61 -30 21 -16 41 -30 46 -30 4 0 10 -8 13 -18 3 -9 33 -32 66 -50 33 -18 60
-37 60 -42 0 -5 16 -12 35 -16 19 -3 39 -12 43 -19 4 -8 9 -13 12 -12 3 1 27
-7 53 -18 26 -10 47 -23 47 -27 0 -4 6 -8 13 -8 7 0 44 -16 83 -35 38 -19 75
-35 82 -35 7 0 10 -4 7 -10 -3 -6 1 -7 9 -4 9 3 36 -8 63 -26 26 -18 53 -33
60 -34 7 -1 19 -8 25 -14 7 -7 18 -12 25 -12 7 0 28 -9 48 -20 19 -11 41 -19
48 -17 7 1 13 -9 13 -23 1 -14 5 -72 8 -130 4 -58 9 -163 11 -235 3 -71 5
-272 4 -445 0 -173 -2 -326 -4 -340 -2 -14 -6 -41 -9 -60 -4 -19 -9 -75 -11
-125 -3 -49 -10 -113 -16 -142 -5 -28 -11 -83 -12 -121 -2 -66 -3 -69 -19 -55
-10 8 -25 36 -34 62 -10 25 -25 57 -34 71 -10 14 -21 36 -25 50 -4 14 -23 57
-41 96 -19 40 -41 77 -49 84 -7 6 -17 26 -21 43 -3 18 -15 40 -25 50 -11 10
-19 25 -19 34 0 8 -19 49 -42 91 -24 41 -69 125 -102 186 -32 61 -74 154 -93
206 -19 52 -38 109 -43 125 -4 17 -24 62 -44 100 -19 39 -36 75 -36 80 0 6
-14 30 -30 55 -16 25 -30 53 -30 63 0 9 -16 59 -36 110 -20 50 -42 106 -49
122 -8 17 -17 53 -20 80 -4 28 -10 55 -14 60 -4 6 -24 61 -45 123 -21 62 -51
143 -67 179 -16 36 -29 75 -29 88 0 18 4 22 20 18z"/>
</g>
<g>
<path d="M4227 8110 c-12 -1 -38 -11 -58 -22 -32 -20 -36 -26 -38 -67 0 -25
-7 -51 -15 -56 -7 -6 -25 -36 -40 -68 -14 -32 -26 -61 -26 -66 0 -5 -6 -14
-14 -20 -7 -6 -16 -24 -19 -39 -3 -15 -18 -41 -32 -57 -15 -17 -44 -54 -65
-84 -32 -43 -38 -59 -33 -84 3 -16 14 -38 23 -47 10 -10 19 -23 21 -29 2 -6
19 -12 37 -14 17 -1 32 -4 32 -7 0 -3 8 -6 18 -7 9 -1 40 -5 67 -8 28 -3 84
-7 125 -10 41 -2 107 -9 145 -15 39 -7 91 -21 116 -32 30 -13 55 -18 69 -13
19 6 21 12 17 41 -4 25 -2 34 9 34 9 0 14 10 14 28 0 15 -9 41 -20 57 -12 17
-31 53 -44 80 -13 28 -46 78 -74 113 -27 34 -58 82 -69 107 -10 25 -21 45 -25
45 -5 0 -8 9 -8 21 0 11 -11 40 -25 64 -14 24 -32 46 -39 48 -8 3 -17 28 -21
56 -6 44 -10 51 -28 51z m-6 -280 c10 -19 18 -43 19 -52 0 -10 4 -18 9 -18 5
0 12 -13 16 -29 3 -16 15 -37 27 -47 11 -11 25 -30 31 -44 6 -14 9 -29 8 -35
-1 -5 5 -15 14 -21 13 -10 1 -11 -59 -7 -46 2 -77 0 -81 -7 -3 -6 -11 -8 -16
-5 -5 3 -30 9 -56 12 -27 3 -49 6 -50 7 -1 1 -4 17 -5 35 -3 28 2 36 27 50 18
11 32 29 37 49 5 17 13 34 18 37 6 3 10 12 10 19 0 8 7 31 16 52 l16 39 19
-35z"/>
</g>
</g>
<g>
<path d="M11277 11094 l-78 6 -38 -37 c-35 -34 -39 -42 -34 -76 3 -24 13 -42
27 -50 13 -8 74 -13 166 -14 84 -1 170 -8 205 -16 33 -8 125 -20 205 -26 80
-7 163 -16 185 -22 22 -5 87 -17 145 -25 58 -9 128 -19 155 -23 28 -4 55 -10
61 -13 6 -4 21 -9 35 -12 13 -3 44 -10 68 -16 24 -6 92 -13 150 -16 58 -4 123
-6 144 -7 20 -1 37 -5 37 -9 0 -4 9 -8 19 -8 11 0 22 -8 25 -18 5 -14 14 -17
44 -14 20 3 41 11 45 18 4 8 17 14 27 14 10 0 22 5 25 10 4 6 -6 15 -22 20
-19 7 -29 18 -31 33 -1 12 -2 37 -2 55 1 18 -5 34 -12 37 -7 2 -44 6 -83 9
-38 3 -104 10 -145 16 -41 6 -102 15 -135 21 -32 6 -72 18 -89 26 -19 10 -43
13 -69 10 -21 -3 -60 1 -85 8 -26 8 -69 16 -97 20 -27 3 -70 10 -95 16 -25 5
-61 11 -80 14 -19 3 -75 7 -125 10 -49 2 -118 7 -152 10 -35 4 -65 11 -68 16
-4 5 -24 9 -45 9 -21 0 -42 4 -45 10 -3 5 -41 10 -83 9 -42 0 -112 2 -155 5z"/>
</g>
<g>
<path d="M6390 930 c-5 0 -10 -4 -10 -9 0 -6 5 -13 10 -16 6 -3 10 1 10 9 0 9
-4 16 -10 16z"/>
</g>
<g>
<path d="M12362 556 c-11 7 -22 11 -25 7 -4 -3 7 -23 24 -45 25 -31 34 -36 45
-27 8 6 14 23 14 36 0 20 -4 24 -19 20 -11 -3 -28 1 -39 9z"/>
</g>
</g>
</svg>
