<?xml version="1.0" standalone="no"?>
<!DOCTYPE svg PUBLIC "-//W3C//DTD SVG 20010904//EN"
 "http://www.w3.org/TR/2001/REC-SVG-20010904/DTD/svg10.dtd">
<svg version="1.0" xmlns="http://www.w3.org/2000/svg"
 width="2048.000000pt" height="1404.000000pt" viewBox="0 0 2048.000000 1404.000000"
 preserveAspectRatio="xMidYMid meet">
<metadata>
Created by potrace 1.16, written by Peter Selinger 2001-2019
</metadata>
<g transform="translate(0.000000,1404.000000) scale(0.100000,-0.100000)"
fill="#000000" stroke="none">
<g>
<path d="M8558 13229 c-64 -1 -118 -3 -120 -5 -2 -1 -35 -6 -73 -9 -39 -4 -90
-9 -115 -11 -25 -2 -61 -6 -80 -9 -19 -3 -46 -6 -60 -6 -14 0 -59 2 -100 5
-41 2 -87 7 -102 11 -22 6 -28 4 -28 -8 0 -9 18 -21 46 -31 26 -9 57 -13 70
-10 16 4 24 2 24 -6 0 -7 8 -10 20 -7 11 3 23 1 26 -4 3 -6 86 -7 212 -3 114
3 278 7 365 8 87 2 160 -1 162 -4 2 -4 21 -7 41 -8 21 -1 43 3 50 9 8 7 21 2
43 -17 24 -20 42 -26 78 -26 27 0 55 -6 63 -13 8 -7 32 -16 53 -20 25 -5 37
-4 37 4 0 6 -1 11 -3 11 -1 0 -27 9 -57 21 -30 11 -68 23 -85 25 -16 2 -39 8
-50 13 -11 5 -49 22 -85 39 -36 16 -99 34 -140 41 -41 6 -128 11 -192 10z"/>
</g>
<g>
<path d="M6378 13129 c-24 4 -72 1 -108 -5 -36 -6 -85 -18 -110 -27 -25 -9
-56 -19 -70 -21 -14 -2 -38 -7 -55 -11 -16 -4 -50 -14 -75 -23 -25 -8 -50 -21
-56 -28 -6 -7 -20 -11 -32 -7 -12 3 -28 1 -35 -5 -6 -5 -29 -15 -49 -21 -21
-7 -38 -16 -38 -20 0 -4 -13 -15 -30 -24 -16 -10 -30 -16 -30 -12 0 3 -19 -5
-41 -17 -23 -13 -52 -29 -65 -36 -13 -7 -24 -20 -24 -28 0 -9 11 -14 33 -14
18 0 65 16 106 35 40 19 83 35 96 35 12 0 28 7 35 15 7 8 23 15 36 15 12 0 26
5 29 10 4 6 16 8 27 4 11 -3 30 -1 42 4 11 6 50 18 86 27 35 9 67 21 71 27 4
6 11 8 17 4 6 -3 30 0 54 8 24 8 73 20 110 26 45 8 81 9 112 2 41 -8 45 -8 50
12 4 14 -2 29 -18 45 -15 14 -42 26 -68 30z"/>
</g>
<g>
<path d="M6709 13110 c-5 0 -9 -9 -9 -19 0 -11 5 -23 11 -27 6 -3 16 -1 21 4
8 8 7 16 -2 27 -7 8 -16 15 -21 15z"/>
</g>
<g>
<path d="M6650 13080 c-5 0 -10 -4 -10 -10 0 -5 5 -10 10 -10 6 0 10 5 10 10
0 6 -4 10 -10 10z"/>
</g>
<g>
<path d="M10263 12903 c-12 3 -27 -1 -33 -8 -8 -10 -8 -15 0 -20 6 -4 14 -4
17 -1 4 3 13 0 22 -7 9 -7 41 -19 71 -26 30 -8 62 -19 70 -26 8 -7 56 -24 105
-39 50 -15 115 -34 145 -43 30 -9 77 -24 104 -34 27 -11 57 -19 68 -19 11 0
26 -6 33 -14 8 -7 34 -17 59 -20 25 -4 48 -11 51 -17 4 -5 14 -9 23 -9 9 0 32
-14 50 -30 17 -16 32 -34 32 -40 0 -5 4 -10 9 -10 5 0 11 7 14 15 4 8 -4 22
-18 34 -14 10 -25 22 -25 26 0 4 -12 18 -26 32 -14 13 -60 41 -102 62 -43 21
-93 42 -112 46 -19 4 -44 13 -55 19 -11 7 -42 20 -70 29 -27 9 -70 19 -95 22
-25 4 -52 8 -60 9 -8 2 -23 6 -32 11 -10 4 -24 5 -32 2 -8 -3 -16 -2 -18 4 -2
5 -32 14 -68 20 -36 6 -74 15 -85 19 -11 5 -30 10 -42 13z"/>
</g>
<g>
<path d="M4838 12420 c-13 0 -30 -4 -38 -9 -8 -5 -34 -11 -58 -15 -38 -6 -55
-19 -165 -132 -67 -68 -127 -135 -134 -147 -7 -12 -12 -27 -13 -33 0 -5 14
-21 31 -33 27 -20 34 -22 55 -10 15 8 24 21 24 36 0 17 24 48 81 103 44 43 88
82 97 85 9 4 37 31 62 60 25 29 53 54 63 54 10 1 17 9 17 21 0 14 -7 20 -22
20z"/>
</g>
<g>
<path d="M12397 12034 c-19 4 -27 3 -27 -7 0 -7 11 -24 24 -36 14 -13 22 -29
20 -36 -3 -7 20 -38 51 -69 30 -32 63 -68 71 -82 9 -13 22 -24 29 -24 8 0 16
-9 20 -20 3 -10 20 -31 38 -46 18 -15 34 -32 37 -39 3 -7 32 -35 65 -63 32
-28 70 -54 84 -57 14 -4 27 -1 31 5 5 7 9 4 13 -10 4 -16 12 -21 29 -18 12 2
24 10 26 18 1 8 -14 26 -33 39 -20 13 -62 50 -93 82 -31 31 -79 82 -107 113
-27 31 -77 78 -110 103 -33 26 -66 56 -74 66 -7 10 -25 31 -40 46 -15 15 -39
31 -54 35z"/>
</g>
<g>
<path d="M4202 11810 c-4 0 -18 -7 -30 -16 -13 -9 -35 -27 -49 -40 -19 -17
-27 -37 -31 -72 -3 -38 0 -50 16 -65 12 -11 31 -17 49 -15 21 2 33 13 49 43
12 25 28 41 42 43 11 2 22 11 24 20 2 9 -1 32 -6 51 -6 20 -19 36 -34 42 -13
5 -27 9 -30 9z"/>
</g>
<g>
<path d="M2955 11709 c-11 -1 -42 -8 -70 -16 -27 -9 -77 -19 -110 -23 -33 -4
-71 -11 -85 -15 -14 -4 -43 -16 -66 -26 -22 -11 -50 -19 -62 -19 -11 0 -42
-14 -67 -31 -25 -17 -48 -29 -51 -26 -3 3 -54 -19 -112 -49 -59 -30 -112 -54
-119 -54 -7 0 -13 -4 -13 -9 0 -5 -20 -23 -44 -39 -24 -17 -54 -33 -66 -37
-12 -4 -36 -17 -54 -29 -17 -11 -53 -39 -79 -61 -26 -21 -47 -45 -47 -52 0 -8
-31 -49 -69 -94 -38 -44 -73 -93 -76 -109 -4 -17 -11 -30 -16 -30 -5 0 -11
-11 -15 -25 -3 -13 -12 -29 -20 -36 -8 -6 -24 -32 -35 -58 -12 -25 -27 -71
-34 -101 -7 -30 -18 -68 -23 -85 -6 -16 -18 -56 -27 -87 -9 -32 -15 -74 -14
-95 0 -21 -2 -69 -7 -108 -4 -38 -7 -144 -6 -235 1 -90 6 -176 11 -190 5 -14
14 -54 21 -88 6 -35 19 -78 29 -96 10 -17 35 -82 55 -144 20 -62 36 -118 36
-124 0 -6 14 -26 30 -45 17 -18 30 -42 30 -53 0 -11 13 -34 28 -52 16 -18 44
-55 62 -83 18 -27 40 -57 49 -66 9 -8 32 -34 52 -56 20 -22 52 -49 70 -59 18
-11 53 -34 77 -52 24 -17 54 -35 68 -38 13 -3 24 -10 24 -14 0 -5 8 -11 18
-14 10 -4 34 -20 52 -36 19 -17 40 -30 47 -30 7 0 13 -4 13 -9 0 -5 15 -15 33
-21 17 -7 50 -19 72 -28 22 -8 58 -18 80 -23 22 -4 65 -14 95 -23 30 -9 70
-16 88 -16 19 0 40 -8 52 -20 11 -11 20 -24 20 -29 0 -5 15 -14 33 -19 17 -6
61 -13 97 -16 36 -4 85 -9 110 -11 25 -3 68 -7 95 -10 28 -4 60 -9 72 -11 14
-4 24 -17 29 -37 4 -18 6 -52 5 -75 -1 -24 2 -49 7 -55 6 -7 11 -39 13 -72 l4
-60 -60 -13 c-33 -7 -107 -24 -165 -38 -58 -15 -122 -29 -143 -31 -20 -3 -40
-9 -43 -14 -3 -5 -24 -9 -47 -9 -23 0 -89 -12 -147 -26 -58 -14 -125 -26 -149
-25 -28 1 -55 -6 -76 -19 -18 -11 -35 -29 -38 -39 -2 -11 -3 -34 0 -53 3 -18
6 -40 7 -48 1 -8 5 -22 8 -30 4 -8 9 -60 12 -115 3 -55 11 -147 18 -205 8 -58
13 -133 11 -167 -1 -34 2 -65 7 -68 6 -4 10 -31 10 -61 0 -30 5 -88 11 -127 6
-40 16 -78 21 -84 6 -7 10 -28 10 -47 0 -19 -3 -40 -7 -46 -4 -7 -3 -15 4 -19
6 -4 11 -47 12 -111 1 -58 -1 -114 -4 -125 -3 -11 -8 -83 -12 -159 -3 -77 -8
-143 -10 -146 -3 -4 -7 -36 -11 -71 -3 -35 -6 -129 -6 -209 0 -80 1 -185 1
-235 1 -49 0 -132 -3 -184 -3 -51 -7 -95 -9 -97 -2 -2 0 -29 3 -61 4 -32 5
-152 3 -267 -2 -114 -5 -211 -7 -215 -3 -4 0 -74 5 -156 6 -83 11 -170 13
-195 2 -25 6 -103 9 -175 4 -71 9 -362 11 -645 3 -283 1 -573 -5 -645 -5 -71
-12 -250 -15 -396 -5 -178 -3 -268 4 -273 7 -4 6 -19 -1 -48 -6 -26 -10 -121
-8 -238 2 -107 3 -217 3 -245 0 -27 -2 -93 -4 -145 -2 -52 -7 -100 -11 -107
-5 -7 6 -27 27 -51 35 -39 36 -39 116 -40 63 -2 104 -10 202 -42 68 -23 135
-47 150 -55 14 -9 48 -18 75 -22 26 -3 78 -19 115 -35 37 -15 80 -28 97 -28
16 0 32 -4 35 -9 4 -5 36 -20 74 -34 37 -13 91 -25 119 -26 29 -1 62 3 73 9
11 6 20 17 20 24 0 7 -9 21 -19 30 -11 10 -17 24 -15 30 3 7 -11 25 -30 39
-21 17 -48 27 -68 27 -18 1 -67 7 -109 14 -42 8 -92 21 -110 29 -19 9 -50 19
-69 23 -19 5 -42 9 -50 9 -8 0 -31 8 -50 17 -19 9 -61 22 -92 29 -32 7 -58 16
-58 21 0 4 -11 8 -23 8 -13 0 -38 7 -56 16 -17 9 -48 17 -69 19 -20 2 -54 10
-74 19 -21 9 -42 16 -47 16 -6 0 -14 8 -19 18 -6 9 -10 53 -11 97 -1 44 -1
222 0 395 1 173 3 443 4 600 2 192 8 317 18 383 11 71 13 116 6 161 -4 35 -6
107 -2 162 3 54 5 115 4 134 -1 19 -3 163 -6 320 -2 157 -6 337 -10 400 -3 63
-13 158 -22 210 -12 75 -15 141 -11 314 4 158 9 220 18 226 7 4 40 11 74 14
33 4 107 18 164 32 56 13 117 26 135 28 18 3 52 12 77 20 25 9 54 16 64 16 10
0 73 18 140 41 67 23 125 45 130 50 6 5 19 9 30 9 12 1 46 9 76 20 30 11 74
19 98 20 25 0 50 6 58 15 9 8 26 15 39 15 12 0 36 7 51 15 16 8 42 15 58 15
l29 0 -7 -228 c-5 -146 -4 -237 3 -254 8 -20 6 -34 -5 -57 -11 -21 -13 -48 -9
-98 3 -37 6 -108 6 -158 0 -49 -2 -108 -5 -130 -4 -22 0 -155 8 -295 7 -140
12 -282 9 -315 -2 -33 -4 -233 -4 -445 -1 -212 0 -518 1 -682 1 -163 -1 -311
-5 -329 -4 -19 -14 -44 -23 -57 -14 -22 -14 -23 6 -29 12 -3 22 -13 22 -23 0
-9 8 -24 18 -33 10 -10 26 -17 35 -17 9 0 17 -4 17 -9 0 -4 34 -7 76 -5 45 1
95 -3 123 -12 25 -7 72 -19 104 -24 32 -6 74 -21 94 -32 19 -12 43 -22 52 -23
9 -1 29 -7 44 -14 16 -6 33 -11 38 -11 5 0 26 -7 47 -16 20 -9 57 -18 81 -20
25 -2 49 -8 55 -14 5 -5 21 -10 36 -10 14 0 33 7 43 14 9 7 17 20 17 29 0 8
-5 17 -12 19 -6 2 -12 23 -12 47 -1 30 -6 45 -19 53 -11 5 -32 8 -48 4 -15 -3
-70 4 -121 14 -51 11 -97 25 -102 30 -6 6 -22 10 -37 10 -15 0 -31 5 -34 10
-3 6 -19 10 -35 10 -16 0 -32 5 -35 10 -4 6 -21 16 -39 24 -18 8 -66 20 -107
27 -41 7 -78 13 -84 14 -5 1 -17 3 -26 3 -12 2 -18 18 -23 75 -4 39 -9 135
-12 212 -3 77 -8 214 -11 305 -3 91 -4 206 -3 255 1 50 2 125 1 168 -1 42 -2
114 -3 160 -1 45 -1 156 0 247 0 91 -1 190 -3 220 -3 30 -7 141 -9 245 -3 105
-6 258 -8 340 -1 83 2 292 6 465 4 173 9 331 12 350 4 19 5 154 4 300 -1 146
-2 274 -1 285 0 11 3 76 7 145 4 69 8 401 10 739 3 411 8 618 15 627 6 8 24
11 47 7 20 -3 73 -14 117 -24 44 -11 118 -31 165 -46 47 -14 103 -32 125 -40
22 -8 66 -24 99 -34 32 -10 63 -19 67 -19 5 0 28 -9 52 -19 23 -11 67 -27 97
-36 30 -9 84 -27 120 -40 36 -13 79 -26 95 -29 17 -2 53 -10 80 -16 28 -6 66
-13 85 -15 19 -2 55 -8 80 -14 25 -6 82 -18 128 -26 46 -8 95 -16 110 -16 15
-1 36 -5 47 -10 11 -4 54 -16 95 -24 41 -9 98 -21 125 -27 28 -5 70 -14 95
-19 25 -5 56 -11 70 -13 14 -2 48 -7 75 -11 28 -4 61 -12 74 -17 13 -5 40 -11
60 -14 20 -3 61 -12 91 -20 30 -9 62 -16 70 -18 8 -1 22 -5 30 -8 8 -4 54 -16
102 -28 49 -11 132 -30 185 -41 54 -11 174 -33 267 -49 93 -16 198 -29 235
-29 36 0 81 -4 100 -10 19 -6 38 -8 42 -5 5 3 27 0 49 -6 23 -6 56 -13 73 -15
18 -2 62 -13 97 -24 36 -11 99 -25 140 -31 41 -6 84 -13 95 -15 11 -2 27 -6
35 -9 8 -3 49 -8 90 -10 41 -3 134 -8 205 -11 72 -4 177 -10 235 -15 58 -5
152 -14 210 -19 58 -6 240 -13 405 -16 165 -4 318 -8 340 -10 22 -2 65 -8 95
-14 30 -6 107 -19 170 -31 63 -11 129 -22 145 -24 17 -2 50 -9 73 -16 24 -6
60 -13 80 -15 20 -2 66 -8 102 -13 36 -6 107 -17 159 -26 52 -8 115 -20 140
-26 25 -5 75 -17 111 -26 36 -9 85 -20 110 -25 25 -4 88 -15 140 -23 52 -9
118 -18 145 -22 28 -3 88 -15 135 -25 47 -11 126 -28 175 -39 50 -10 102 -23
116 -29 14 -5 39 -12 55 -15 16 -3 52 -10 79 -15 28 -5 70 -16 95 -24 25 -8
63 -19 85 -26 22 -6 81 -18 130 -27 50 -8 115 -19 145 -24 30 -5 96 -16 147
-24 51 -8 100 -19 110 -24 10 -5 42 -12 72 -16 30 -4 62 -11 71 -16 10 -5 42
-14 71 -19 30 -5 77 -15 104 -21 28 -5 73 -15 100 -20 28 -5 86 -12 130 -15
44 -3 98 -7 120 -10 22 -3 74 -10 115 -15 41 -6 102 -17 135 -25 33 -8 92 -21
130 -31 39 -9 79 -20 90 -24 11 -5 43 -15 70 -24 28 -9 59 -18 70 -20 11 -1
31 -6 43 -10 13 -5 34 -9 45 -11 12 -1 60 -10 107 -19 47 -9 92 -21 101 -26 9
-5 27 -6 40 -3 23 6 23 5 -6 -28 -16 -19 -38 -42 -47 -52 -10 -10 -18 -26 -18
-37 0 -11 -14 -35 -30 -53 -17 -19 -30 -40 -30 -46 0 -6 -4 -11 -10 -11 -5 0
-10 -6 -10 -13 0 -6 -12 -18 -27 -25 -16 -7 -40 -33 -55 -62 l-28 -49 34 -37
c28 -31 39 -36 62 -31 16 3 43 11 59 18 17 7 35 14 40 14 6 1 17 5 25 8 8 4
62 13 120 20 58 8 114 15 125 16 11 0 36 3 55 6 19 3 62 9 95 14 33 5 110 12
170 15 61 3 162 10 225 16 63 6 147 15 185 21 39 6 112 14 163 19 52 5 101 12
110 14 9 3 37 8 62 11 25 2 79 9 120 14 41 5 136 16 210 25 74 9 155 21 180
26 25 5 122 12 215 15 94 4 195 11 225 16 30 5 78 14 105 20 28 6 73 12 100
13 l50 1 -3 33 c-1 17 2 32 8 32 5 0 10 11 10 24 0 14 -10 41 -21 61 l-22 36
33 40 c18 23 50 84 72 137 22 54 55 134 74 179 18 45 46 108 63 141 16 33 35
90 42 128 6 38 18 78 25 89 7 11 22 54 34 95 11 41 27 98 34 125 8 28 17 72
20 98 5 43 3 48 -17 56 -12 5 -65 44 -117 86 -52 43 -114 94 -136 115 -23 21
-43 43 -45 49 -2 5 -32 31 -65 58 -34 26 -83 64 -109 83 -26 19 -68 53 -92 75
-25 22 -62 56 -83 75 -21 19 -57 50 -81 67 -24 18 -68 55 -98 83 -29 27 -58
50 -65 50 -6 0 -29 16 -51 35 -22 19 -45 35 -51 35 -6 0 -19 10 -30 21 -10 12
-28 25 -39 29 -11 4 -31 29 -44 55 -13 25 -29 49 -37 52 -7 2 -27 26 -43 51
-17 26 -44 62 -60 80 -17 18 -40 32 -53 32 -13 0 -34 -6 -48 -13 -18 -9 -26
-24 -32 -55 -4 -23 -15 -55 -25 -70 -10 -15 -32 -56 -48 -92 -16 -36 -39 -76
-52 -91 -13 -14 -23 -28 -23 -31 0 -4 -27 -47 -59 -96 -33 -49 -72 -113 -88
-141 -15 -29 -32 -60 -38 -70 -5 -9 -28 -46 -50 -81 -25 -39 -41 -58 -43 -48
-2 13 -13 16 -48 13 -25 -1 -49 -6 -54 -11 -4 -5 -10 -18 -12 -29 -2 -10 -21
-31 -43 -46 -22 -15 -43 -25 -47 -23 -5 3 -8 -2 -8 -11 0 -11 -5 -15 -15 -11
-9 3 -32 -12 -60 -40 -25 -26 -45 -50 -45 -54 0 -5 -7 -15 -15 -24 -9 -9 -11
-17 -5 -21 5 -3 10 -1 10 4 0 6 6 11 13 11 6 0 30 18 52 39 23 21 66 52 96 70
31 17 62 31 70 31 8 0 21 -4 28 -9 13 -8 12 -15 -5 -50 -10 -23 -24 -41 -29
-41 -6 0 -15 -8 -20 -19 -6 -10 -35 -56 -67 -103 -31 -47 -62 -96 -68 -109 -7
-13 -30 -45 -51 -71 -22 -26 -39 -52 -39 -58 0 -6 -20 -32 -45 -59 -44 -47
-45 -47 -92 -41 -27 4 -75 15 -108 25 -33 10 -71 26 -84 36 -13 11 -36 19 -50
19 -15 0 -32 -5 -38 -11 -7 -7 -30 -6 -79 6 -38 10 -73 21 -79 24 -5 4 -28 12
-50 18 -22 6 -80 20 -130 31 -49 12 -117 26 -150 33 -33 7 -64 12 -69 10 -4
-1 -14 4 -22 10 -8 7 -17 9 -21 6 -3 -4 -11 -3 -17 2 -6 4 -22 11 -36 15 -14
4 -56 14 -95 22 -38 7 -83 16 -100 19 -16 3 -61 7 -100 9 -38 3 -83 9 -100 14
-16 6 -71 20 -121 31 -51 12 -96 21 -100 19 -5 -1 -43 1 -84 5 -41 5 -88 12
-105 17 -16 5 -43 11 -60 13 -16 2 -37 6 -45 10 -8 3 -44 10 -80 16 -36 5
-146 15 -245 21 -99 5 -236 17 -305 25 -69 9 -159 20 -200 26 -41 7 -97 15
-125 19 -27 4 -79 13 -115 20 -36 7 -85 14 -110 15 -25 1 -76 6 -115 9 -38 4
-101 11 -140 17 -38 6 -115 19 -170 30 -55 10 -131 25 -170 34 -38 8 -99 18
-135 21 -36 3 -68 8 -72 10 -4 3 -49 12 -100 20 -51 9 -136 22 -188 29 -52 8
-111 17 -130 20 -19 3 -45 8 -57 10 -12 3 -46 8 -75 11 -29 3 -69 9 -88 14
-19 5 -69 12 -110 15 -41 4 -97 8 -125 10 -27 2 -95 6 -150 10 -55 3 -141 11
-192 17 -51 6 -100 8 -109 4 -12 -5 -14 -9 -5 -20 6 -7 8 -16 4 -19 -3 -4 -10
-7 -15 -7 -4 0 -8 6 -8 13 0 7 -6 20 -12 29 -10 12 -51 20 -163 32 -82 9 -222
23 -310 32 -88 9 -194 20 -235 25 -41 5 -106 11 -145 14 -38 3 -90 11 -115 16
-25 6 -81 13 -125 15 -44 2 -106 6 -138 9 -32 2 -61 6 -65 9 -4 2 -60 7 -126
10 -65 3 -136 11 -157 16 -22 6 -44 8 -49 5 -6 -4 -25 -2 -43 4 -17 5 -70 17
-117 25 -47 9 -97 16 -113 16 -15 0 -35 5 -45 10 -9 6 -73 22 -142 36 -69 14
-161 32 -205 39 -44 7 -105 20 -135 28 -30 8 -77 20 -105 25 -27 5 -115 24
-195 42 -80 18 -163 36 -185 40 -22 5 -69 16 -105 24 -36 9 -108 25 -160 37
-52 12 -120 26 -150 30 -30 4 -86 12 -125 19 -38 6 -94 12 -122 12 -29 0 -55
4 -59 9 -3 5 -28 9 -55 9 -27 0 -60 7 -73 15 -12 8 -54 19 -92 25 -38 5 -100
19 -139 30 -38 11 -99 25 -135 31 -36 6 -73 15 -83 20 -10 5 -62 16 -115 24
-53 8 -151 23 -217 34 -66 10 -123 17 -128 14 -4 -2 -32 3 -62 12 -31 9 -59
14 -63 11 -4 -2 -30 0 -57 5 -31 6 -58 6 -70 0 -11 -5 -49 -16 -85 -25 -36 -9
-108 -23 -160 -32 -52 -8 -112 -21 -134 -30 -21 -8 -62 -17 -91 -20 -50 -5
-54 -4 -75 26 -19 26 -22 45 -24 125 l-1 93 134 22 c74 11 152 30 174 40 23
11 50 20 61 20 12 0 30 7 40 15 11 8 25 15 32 15 7 0 23 5 36 10 13 6 37 19
53 30 17 10 44 26 61 35 16 8 54 40 84 70 30 30 58 55 63 55 4 0 26 14 47 31
22 18 58 57 81 88 23 31 62 95 87 143 25 47 58 101 73 118 16 17 29 34 29 37
0 3 11 21 25 39 14 18 25 36 25 41 0 5 11 24 24 44 13 19 31 57 39 85 8 27 26
75 41 106 14 31 26 63 26 72 0 8 5 18 10 21 6 3 10 21 10 39 0 17 4 36 8 42 5
5 14 38 20 74 7 36 10 81 6 100 -3 19 -5 42 -4 50 1 8 2 58 1 110 0 52 -5 115
-11 140 -5 25 -12 86 -14 135 -2 50 -7 101 -10 115 -4 14 -8 34 -10 45 -2 11
-9 40 -16 65 -7 25 -21 65 -31 90 -11 25 -26 56 -33 70 -8 14 -32 57 -55 96
-22 39 -49 82 -60 95 -11 13 -56 66 -100 117 -45 51 -81 96 -81 100 0 4 -25
25 -56 45 -30 21 -69 40 -85 44 -16 3 -36 15 -44 27 -8 11 -15 31 -15 43 0 13
-3 23 -8 23 -4 0 -17 -7 -29 -15 -12 -8 -30 -12 -40 -9 -10 4 -40 17 -67 30
-28 13 -58 24 -68 24 -10 0 -30 7 -43 16 -13 9 -29 13 -34 10 -5 -4 -26 3 -46
14 -19 11 -42 20 -49 20 -7 0 -19 7 -26 15 -7 8 -29 15 -49 15 -20 0 -51 9
-69 20 -18 11 -61 28 -95 36 -34 9 -77 16 -96 15 -18 -1 -52 4 -75 10 -22 6
-88 17 -146 25 -58 8 -114 13 -125 13z m62 -140 c56 1 114 -4 130 -10 15 -6
57 -14 93 -19 36 -5 85 -14 110 -20 25 -6 68 -15 96 -20 28 -6 67 -17 87 -25
20 -8 38 -19 42 -25 3 -5 65 -28 138 -51 73 -23 137 -45 142 -49 6 -4 22 -10
38 -14 24 -6 27 -11 27 -46 0 -29 5 -42 19 -50 11 -5 27 -10 37 -10 13 0 15 6
11 30 -4 17 -2 30 3 30 5 0 36 -20 67 -44 32 -24 85 -72 118 -106 33 -34 70
-73 83 -87 12 -13 22 -26 22 -29 0 -3 21 -38 47 -77 27 -40 50 -76 52 -82 2
-5 10 -17 18 -26 8 -9 25 -47 38 -84 14 -36 32 -101 40 -142 9 -42 18 -79 20
-83 3 -4 8 -56 12 -116 4 -60 6 -188 4 -284 -1 -103 -9 -206 -17 -250 -9 -41
-29 -103 -45 -138 -16 -34 -29 -69 -29 -76 0 -8 -4 -18 -10 -21 -5 -3 -10 -13
-10 -21 0 -8 -15 -39 -32 -70 -18 -31 -40 -67 -48 -82 -9 -14 -22 -28 -29 -30
-8 -3 -12 4 -11 19 1 13 2 29 1 36 -1 6 -10 15 -22 18 -11 4 -35 0 -52 -8 -18
-8 -68 -20 -112 -26 -44 -6 -120 -16 -170 -22 -49 -6 -100 -15 -112 -20 -12
-5 -71 -13 -130 -20 -59 -6 -130 -11 -158 -10 -27 1 -97 5 -155 9 -62 5 -122
4 -148 -2 -41 -9 -43 -11 -36 -40 4 -17 12 -38 18 -48 6 -10 20 -21 31 -25 11
-4 49 -8 85 -9 36 0 121 3 190 8 69 5 170 18 225 28 77 14 130 18 227 14 97
-4 135 -1 162 10 19 8 37 12 39 9 3 -2 15 1 27 7 12 6 28 9 36 6 13 -5 12 -11
-1 -42 -8 -21 -36 -69 -62 -108 -26 -41 -94 -118 -161 -182 -63 -61 -129 -118
-146 -126 -17 -8 -47 -22 -67 -31 -21 -9 -53 -19 -73 -23 -20 -3 -44 -16 -54
-28 -9 -11 -28 -21 -42 -22 -14 0 -43 -6 -66 -12 -34 -10 -46 -9 -72 4 -18 8
-40 13 -49 10 -10 -2 -94 -7 -188 -11 -152 -5 -178 -3 -245 15 -41 11 -118 29
-170 40 -52 11 -103 25 -112 30 -10 6 -26 10 -37 10 -10 0 -63 11 -117 25 -54
14 -115 36 -136 50 -20 14 -40 25 -43 25 -4 0 -27 16 -52 35 -25 19 -52 35
-59 35 -7 0 -26 11 -42 25 -17 14 -34 25 -39 25 -5 0 -38 23 -74 51 -35 29
-81 70 -101 91 -21 22 -38 45 -38 52 0 7 -13 31 -29 52 -17 22 -38 50 -49 64
-10 14 -24 40 -30 58 -6 18 -20 46 -32 61 -11 16 -20 40 -20 53 0 12 -12 46
-25 73 -14 28 -25 56 -25 63 0 7 -4 20 -9 30 -5 9 -21 46 -34 82 -14 37 -23
77 -20 91 2 14 -1 45 -8 70 -6 24 -11 85 -11 134 0 50 3 158 6 240 4 83 9 164
12 180 3 17 19 64 34 105 16 41 41 109 56 150 15 41 34 82 41 91 7 8 13 24 13
34 0 10 18 42 40 70 22 29 62 72 88 96 26 24 64 56 82 70 19 15 46 38 60 51
14 14 35 28 47 32 13 4 29 13 36 20 6 7 26 20 42 29 17 9 53 28 82 42 29 15
57 33 64 41 6 8 17 14 23 14 6 0 22 9 36 20 14 11 33 20 43 20 9 0 25 4 35 9
9 5 44 17 77 27 33 10 65 21 70 25 6 5 31 11 55 15 25 4 77 15 115 25 44 11
108 18 172 18z m1055 -3159 c4 0 10 -5 14 -11 4 -7 21 -9 40 -6 19 3 47 2 62
-4 15 -5 63 -13 107 -18 44 -6 118 -17 165 -26 47 -9 94 -18 105 -20 11 -2 52
-11 90 -20 39 -9 97 -23 130 -30 33 -8 102 -24 154 -35 52 -11 117 -22 145
-25 28 -3 76 -8 106 -11 30 -3 61 -11 67 -16 7 -6 20 -8 29 -4 8 3 24 2 33 -4
10 -5 36 -12 57 -15 22 -3 77 -10 124 -15 47 -6 94 -15 105 -20 11 -5 46 -11
78 -14 32 -3 66 -10 75 -15 9 -4 37 -11 62 -15 25 -4 81 -16 125 -27 44 -12
107 -26 140 -31 33 -5 75 -16 93 -24 18 -8 42 -14 54 -14 12 0 44 -7 72 -14
28 -8 89 -22 136 -32 47 -9 116 -25 155 -35 38 -10 84 -19 101 -19 17 0 44 -4
60 -10 16 -5 61 -15 99 -21 39 -6 95 -14 125 -18 30 -3 61 -10 68 -15 8 -4 35
-10 60 -12 26 -1 98 -7 160 -13 62 -5 117 -13 123 -17 6 -3 79 -8 162 -10 84
-2 166 -6 182 -9 17 -3 57 -7 90 -11 33 -3 74 -10 90 -16 17 -6 75 -14 130
-19 55 -5 120 -11 145 -14 25 -3 88 -9 140 -14 52 -5 105 -9 118 -9 13 -1 47
-6 76 -12 30 -6 57 -10 62 -9 5 1 34 -1 64 -4 30 -4 96 -9 145 -11 50 -3 119
-9 155 -15 36 -5 97 -13 135 -16 39 -3 135 -10 215 -14 80 -5 157 -14 172 -20
15 -6 58 -13 95 -17 38 -3 111 -14 163 -25 52 -10 104 -18 115 -18 11 0 52 -4
90 -11 39 -6 84 -12 100 -15 17 -2 44 -7 60 -10 17 -4 50 -14 75 -22 25 -8 72
-17 105 -19 33 -3 74 -9 90 -13 17 -5 71 -15 120 -22 50 -6 94 -16 99 -20 6
-5 23 -9 39 -9 16 0 57 -4 91 -10 33 -5 129 -17 211 -26 83 -8 159 -17 170
-18 11 -2 29 -6 40 -9 11 -3 99 -18 195 -32 96 -14 218 -27 270 -30 52 -3 121
-9 155 -15 33 -5 87 -9 120 -9 33 0 98 -7 145 -16 47 -9 117 -20 155 -25 39
-5 142 -25 230 -44 88 -20 171 -36 185 -36 14 0 61 -10 105 -21 44 -11 105
-24 135 -29 30 -4 84 -13 120 -20 36 -6 92 -19 125 -27 33 -9 69 -17 80 -19
11 -2 48 -8 82 -14 35 -6 75 -15 90 -21 16 -6 51 -15 78 -19 28 -5 70 -16 94
-25 24 -9 60 -18 80 -20 20 -3 61 -11 92 -19 30 -7 64 -18 75 -23 10 -6 51
-10 90 -10 46 0 81 -6 100 -16 16 -8 37 -18 47 -21 9 -3 17 -15 17 -26 0 -11
-4 -20 -9 -20 -5 0 -14 -13 -20 -30 -5 -16 -15 -30 -21 -30 -7 0 -25 -12 -41
-27 -16 -16 -29 -34 -29 -41 0 -8 -8 -27 -17 -43 -10 -16 -25 -29 -34 -29 -10
0 -27 -12 -38 -26 -12 -15 -21 -37 -21 -51 0 -15 -8 -27 -25 -35 -13 -6 -27
-19 -30 -30 -4 -10 -10 -18 -14 -18 -5 0 -19 -24 -31 -52 -12 -29 -26 -55 -31
-58 -5 -3 -12 -24 -17 -45 l-8 -40 -50 1 c-28 1 -65 9 -83 19 -18 9 -43 14
-55 11 -12 -3 -44 -1 -72 4 -27 5 -76 16 -109 25 -33 9 -69 20 -80 25 -11 5
-47 16 -80 25 -33 9 -85 22 -115 29 -30 8 -80 17 -110 20 -30 4 -59 11 -65 16
-6 5 -40 13 -75 18 -36 5 -83 11 -105 12 -22 1 -53 3 -70 5 -16 1 -88 8 -160
15 -71 7 -163 21 -204 31 -41 10 -85 19 -99 19 -13 0 -31 4 -41 9 -10 6 -31
12 -47 15 -16 2 -29 5 -29 6 0 1 -11 3 -25 5 -14 2 -45 8 -70 13 -25 6 -72 15
-105 21 -33 7 -89 18 -125 26 -36 8 -99 17 -140 20 -41 3 -84 9 -95 14 -11 4
-54 18 -95 30 -41 12 -88 26 -105 31 -16 5 -68 18 -115 29 -47 12 -105 28
-130 35 -25 8 -67 17 -95 21 -27 3 -59 10 -70 15 -11 4 -44 13 -73 19 -30 6
-58 9 -62 6 -5 -3 -30 0 -57 6 -26 6 -61 13 -78 14 -16 2 -58 10 -91 19 -34 9
-73 16 -86 16 -13 0 -60 10 -104 22 -43 11 -89 22 -101 23 -13 1 -26 5 -30 8
-3 4 -28 7 -54 7 -26 0 -50 4 -53 9 -3 4 -49 11 -103 15 -54 4 -102 11 -108
15 -5 5 -37 11 -70 15 -33 4 -87 11 -120 16 -33 5 -96 13 -140 19 -44 5 -118
18 -165 29 -47 11 -107 23 -135 28 -27 4 -65 7 -82 5 -18 -1 -38 1 -44 5 -6 4
-48 6 -93 4 -44 -1 -112 -3 -151 -3 -38 -1 -124 0 -190 2 -66 2 -190 12 -275
22 -85 10 -231 21 -325 24 -93 4 -208 11 -255 16 -47 4 -119 15 -160 23 -41 8
-120 24 -175 36 -55 11 -107 24 -115 27 -8 4 -22 8 -30 10 -8 1 -42 7 -75 12
-33 5 -107 12 -165 16 -58 3 -127 10 -155 14 -27 5 -54 7 -58 4 -4 -3 -13 0
-20 5 -7 5 -37 12 -67 16 -30 4 -80 12 -110 18 -30 6 -60 15 -66 20 -6 4 -22
8 -35 7 -13 0 -69 11 -124 24 -55 13 -126 31 -157 41 -31 9 -61 15 -65 14 -4
-1 -18 3 -30 10 -12 7 -44 15 -70 19 -26 3 -55 9 -64 14 -9 4 -43 13 -75 18
-32 6 -115 22 -184 36 -69 15 -159 33 -200 41 -41 8 -106 21 -145 29 -38 8
-108 20 -155 28 -47 8 -92 16 -100 16 -8 1 -37 4 -65 7 -27 4 -52 9 -55 13 -3
4 -41 17 -85 29 -44 13 -89 26 -100 31 -11 4 -46 20 -78 34 -31 15 -67 27 -80
27 -12 0 -31 7 -41 15 -11 8 -31 15 -45 15 -13 0 -43 9 -65 19 -23 10 -52 22
-66 25 -14 3 -86 21 -160 39 -74 19 -173 41 -220 51 -47 9 -96 16 -109 16 -18
0 -22 4 -16 18 4 9 9 78 11 152 2 74 6 158 9 185 4 28 8 60 11 72 3 14 9 20
18 17 8 -3 23 -1 33 5 10 6 21 11 25 11z m-226 -10 l40 0 -8 -71 c-5 -43 -5
-101 1 -143 5 -39 7 -104 4 -144 -3 -40 -9 -74 -12 -77 -4 -2 -49 2 -101 10
-52 7 -124 18 -160 24 -36 6 -83 12 -105 15 -22 3 -62 10 -90 16 -27 6 -66 10
-85 9 -19 -2 -57 1 -85 5 -27 4 -87 14 -133 22 -46 8 -88 17 -94 20 -5 4 -27
8 -47 11 -20 2 -49 10 -66 18 -16 7 -48 16 -70 20 -22 4 -49 9 -59 12 -17 5
-16 7 10 21 16 8 90 31 164 49 74 19 153 39 175 44 22 5 69 14 104 19 36 6 90
17 120 25 31 8 139 28 241 46 102 17 192 35 200 40 8 4 33 9 56 9z m11179
-260 c2 0 13 -32 25 -71 12 -40 27 -81 35 -93 7 -12 15 -33 19 -47 3 -15 28
-73 55 -130 26 -57 62 -133 78 -169 17 -36 33 -76 37 -90 4 -14 11 -34 15 -45
5 -11 16 -38 26 -60 9 -22 25 -65 35 -96 10 -31 29 -78 43 -105 13 -27 32 -74
42 -104 10 -30 20 -64 21 -75 2 -11 12 -47 24 -79 11 -33 20 -65 20 -72 0 -7
7 -30 16 -51 9 -21 20 -47 24 -58 4 -11 13 -38 19 -60 7 -22 45 -107 86 -190
40 -82 81 -175 91 -205 10 -30 21 -60 25 -65 4 -6 17 -35 30 -65 12 -30 23
-73 25 -96 3 -40 1 -42 -34 -52 -20 -6 -77 -17 -127 -23 -49 -6 -137 -13 -195
-14 -58 -2 -139 -5 -180 -8 -41 -2 -140 -17 -220 -31 -80 -15 -172 -31 -205
-36 -33 -5 -114 -16 -180 -25 -66 -8 -154 -20 -195 -25 -41 -6 -131 -15 -200
-21 -69 -6 -150 -12 -180 -15 -30 -2 -98 -8 -150 -13 -52 -6 -176 -19 -275
-30 -99 -10 -192 -24 -207 -30 -19 -7 -29 -7 -34 0 -3 6 1 18 10 28 9 10 16
21 16 26 0 5 11 20 24 34 13 15 37 44 52 67 16 22 48 66 72 98 23 31 59 91 78
134 20 42 52 102 73 132 20 30 42 67 50 81 7 14 40 62 72 105 33 43 83 105
112 138 29 32 57 67 62 76 6 10 25 34 43 54 17 19 32 39 32 43 0 5 23 32 50
62 28 29 50 56 51 60 0 3 16 26 35 51 18 25 53 72 76 105 24 33 49 73 56 89 7
16 35 63 64 105 28 42 68 96 88 121 21 25 49 68 63 96 15 29 33 58 41 66 8 8
23 31 33 50 10 19 33 64 51 98 19 35 49 86 68 114 19 28 39 58 44 66 6 8 26
40 46 70 20 30 42 67 50 82 8 15 28 44 45 63 17 19 32 35 34 35z m-12418 -105
c32 -2 85 -9 118 -14 33 -6 116 -20 185 -31 69 -11 145 -25 170 -31 25 -6 92
-14 150 -19 58 -5 138 -16 178 -24 41 -9 77 -14 81 -12 4 3 50 -1 102 -9 52
-8 117 -16 144 -19 28 -3 66 -9 85 -14 35 -8 35 -9 32 -55 -2 -26 0 -47 5 -47
4 0 7 -53 6 -117 -2 -64 -6 -119 -10 -122 -5 -3 -9 -51 -9 -106 -1 -55 -5
-150 -9 -211 -5 -69 -4 -118 2 -130 7 -12 7 -44 2 -84 -4 -36 -11 -153 -14
-260 -4 -107 -10 -199 -12 -203 -3 -5 -4 -148 -4 -319 l2 -310 -25 -23 c-17
-15 -52 -29 -103 -40 -43 -9 -98 -21 -123 -27 -25 -5 -70 -19 -100 -30 -30
-11 -68 -25 -85 -33 -16 -7 -70 -27 -120 -45 -49 -17 -101 -35 -115 -40 -14
-5 -59 -16 -100 -25 -41 -9 -100 -22 -130 -30 -30 -8 -89 -21 -130 -29 -41 -8
-97 -16 -125 -17 -27 -1 -56 -7 -62 -12 -10 -7 -13 -1 -14 24 0 19 -3 149 -6
289 -3 140 -6 323 -7 405 0 83 5 260 12 395 9 147 11 304 7 395 -3 82 -8 168
-10 190 -2 22 -9 92 -15 155 -7 63 -14 156 -16 205 -2 50 -6 119 -8 155 -3 36
-8 96 -12 133 -4 42 -3 76 4 90 5 12 13 30 16 39 4 14 15 16 63 13z m12617
-36 c25 -16 46 -33 48 -38 2 -4 31 -27 64 -50 34 -22 67 -48 74 -56 7 -8 17
-15 23 -15 5 0 29 -17 52 -37 23 -21 69 -62 102 -91 34 -29 90 -75 125 -103
34 -28 67 -57 71 -65 4 -8 13 -14 19 -14 6 0 32 -17 57 -37 25 -20 85 -75 132
-122 47 -48 107 -105 132 -128 25 -24 50 -43 56 -43 6 0 11 -6 11 -14 0 -7 9
-25 21 -40 18 -23 20 -32 11 -64 -6 -20 -15 -50 -20 -67 -6 -16 -25 -83 -41
-147 -17 -64 -49 -159 -72 -210 -22 -51 -56 -125 -75 -164 -19 -40 -34 -76
-34 -81 0 -5 -13 -37 -29 -70 -17 -34 -34 -64 -40 -67 -6 -4 -15 10 -20 31 -6
21 -22 60 -36 87 -14 27 -25 54 -25 60 0 6 -6 22 -13 36 -8 14 -33 60 -55 104
-23 43 -42 84 -42 91 0 6 -16 30 -35 53 -29 33 -39 56 -50 117 -8 41 -24 94
-35 118 -12 23 -28 71 -36 107 -8 36 -16 70 -17 76 -2 6 -10 23 -20 37 -9 15
-17 33 -17 42 0 8 -13 41 -30 72 -16 31 -30 66 -30 78 0 12 -6 28 -14 34 -8 6
-17 25 -20 41 -3 17 -9 43 -12 59 -3 16 -14 38 -24 49 -11 11 -16 22 -13 25 3
3 -4 25 -15 49 -10 24 -25 57 -32 75 -7 18 -18 38 -26 44 -8 6 -14 20 -14 30
0 10 -13 41 -30 69 -16 28 -30 54 -30 58 -1 4 -9 25 -20 47 -11 22 -19 45 -20
52 0 7 20 -1 44 -18z"/>
<g>
<path d="M3585 11347 c-27 2 -55 0 -61 -5 -7 -4 -13 -18 -14 -32 -2 -14 2 -37
8 -51 6 -15 18 -29 26 -32 15 -6 15 -8 -1 -27 -10 -11 -27 -20 -38 -20 -12 0
-25 -4 -30 -8 -6 -5 -29 -14 -52 -22 -23 -7 -61 -11 -86 -8 -25 3 -50 0 -60
-6 -8 -7 -18 -28 -22 -46 -5 -31 -2 -39 28 -68 31 -31 39 -33 118 -37 47 -2
103 -10 125 -17 38 -13 39 -14 46 -73 3 -33 9 -73 13 -90 4 -16 10 -52 14 -80
5 -39 11 -52 32 -64 14 -8 33 -11 42 -8 10 4 17 16 17 27 0 11 4 20 10 20 5 0
24 21 41 48 18 26 52 66 76 90 24 23 50 42 59 42 8 0 17 -6 20 -13 2 -7 21
-14 42 -14 20 -1 47 1 60 3 14 3 22 12 22 24 0 10 5 22 10 25 6 3 10 16 10 29
0 13 -8 30 -18 39 -10 10 -24 17 -30 17 -7 0 -12 3 -12 6 0 3 14 18 31 34 17
15 29 32 26 38 -4 5 0 18 8 28 8 10 15 31 15 45 0 15 -7 33 -16 40 -12 10 -53
14 -153 14 l-136 0 -53 40 c-28 21 -55 48 -59 60 -4 11 -7 27 -7 35 -1 10 -16
15 -51 17z m109 -267 c14 0 28 -5 31 -11 4 -6 5 -13 2 -15 -2 -3 -16 -2 -31 2
-14 3 -26 10 -26 15 0 5 11 9 24 9z m10 -140 c13 0 29 -7 36 -15 11 -13 6 -22
-28 -56 l-40 -41 3 53 c1 30 3 55 4 57 0 1 12 2 25 2z"/>
</g>
<g>
<path d="M4274 10734 c-36 4 -45 1 -66 -22 -14 -15 -28 -42 -31 -60 -4 -17 -2
-43 3 -57 6 -15 25 -32 45 -40 19 -8 50 -15 70 -15 26 0 43 7 61 28 22 22 25
34 21 66 -4 25 -16 49 -34 67 -18 19 -42 30 -69 33z"/>
</g>
<g>
<path d="M2930 10583 c-52 5 -56 4 -78 -23 -13 -16 -25 -40 -27 -52 -3 -13 -2
-31 1 -41 3 -10 22 -28 42 -41 20 -13 53 -26 73 -30 32 -6 41 -2 69 24 29 27
32 35 27 72 -3 24 -15 50 -29 63 -16 16 -40 24 -78 28z"/>
</g>
<g>
<path d="M3737 10266 c-9 3 -22 -4 -31 -18 -9 -12 -16 -34 -16 -49 0 -14 14
-45 30 -68 17 -23 41 -46 54 -51 13 -5 26 -20 30 -34 3 -14 27 -49 53 -78 32
-36 42 -53 32 -56 -8 -3 -18 -11 -22 -18 -4 -8 -19 -14 -33 -14 -15 0 -35 -11
-49 -27 -13 -16 -25 -35 -25 -44 0 -9 7 -19 15 -23 8 -3 15 -12 15 -21 0 -10
10 -15 31 -15 17 0 39 5 50 11 11 5 53 14 95 18 48 6 82 15 95 26 15 15 17 21
7 33 -10 11 -9 17 5 27 9 7 17 19 17 27 0 9 -11 23 -24 31 -13 9 -36 19 -50
23 -15 3 -26 13 -26 23 -1 9 -18 34 -40 55 -21 22 -53 65 -70 97 -17 32 -34
59 -38 61 -4 2 -18 20 -31 41 -13 21 -31 37 -41 37 -10 0 -25 3 -33 6z"/>
</g>
</g>
<g>
<path d="M13658 10869 c-7 0 -23 -4 -35 -9 -13 -5 -23 -18 -23 -29 0 -12 16
-38 35 -58 19 -21 40 -44 47 -51 7 -7 29 -28 49 -46 20 -19 38 -39 40 -45 2
-5 16 -13 32 -16 26 -7 27 -5 27 28 0 20 -10 51 -22 70 -13 20 -40 45 -60 56
-20 12 -40 30 -43 40 -3 11 -12 22 -20 25 -8 3 -15 12 -15 21 0 8 -6 15 -12
14z"/>
</g>
<g>
<path d="M14242 10135 c-19 5 -25 1 -37 -28 -10 -26 -12 -43 -4 -70 5 -19 15
-37 23 -40 7 -3 16 -20 20 -38 3 -18 16 -43 28 -56 12 -13 27 -23 33 -23 7 0
19 8 28 18 10 10 17 26 17 34 0 9 -7 29 -15 44 -8 16 -15 36 -15 44 0 8 -7 24
-15 34 -8 11 -15 27 -15 37 0 9 -6 21 -12 27 -7 5 -23 13 -36 17z"/>
</g>
<g>
<path d="M14621 9490 c-15 0 -33 -6 -38 -12 -6 -7 -12 -20 -15 -28 -3 -9 5
-33 18 -55 13 -22 26 -47 30 -55 3 -8 12 -26 19 -40 11 -20 22 -25 51 -25 26
0 40 6 49 20 11 17 10 27 -10 69 -12 27 -30 55 -39 61 -8 6 -20 24 -25 38 -8
21 -17 27 -40 27z"/>
</g>
<g>
<path d="M14842 8970 c-16 0 -32 -3 -35 -7 -4 -3 -7 -16 -7 -28 0 -12 7 -36
16 -53 8 -18 19 -34 25 -37 5 -4 9 -26 9 -50 0 -32 5 -47 18 -53 9 -6 31 -12
47 -16 28 -6 31 -3 46 33 15 35 15 42 0 84 -9 24 -33 63 -53 86 -28 30 -46 41
-66 41z"/>
</g>
<g>
<path d="M17662 8550 c-9 0 -33 -8 -52 -16 -19 -9 -53 -25 -75 -35 -22 -9 -56
-24 -75 -33 -25 -11 -39 -12 -54 -4 -15 8 -22 7 -31 -6 -7 -9 -17 -16 -24 -16
-6 0 -11 -4 -11 -10 0 -5 -9 -10 -20 -10 -11 0 -20 -7 -20 -15 0 -8 6 -15 13
-15 7 0 49 10 93 21 43 12 105 27 136 34 32 7 69 10 83 8 18 -4 37 -25 72 -82
25 -42 57 -85 70 -95 14 -10 29 -29 34 -42 4 -13 14 -24 21 -24 7 0 19 -12 25
-27 7 -16 26 -42 43 -60 16 -18 30 -37 30 -43 0 -6 22 -31 50 -57 27 -25 59
-65 71 -89 12 -27 28 -44 38 -44 9 0 22 5 29 12 7 7 12 27 12 45 0 23 -8 41
-25 56 -13 12 -57 55 -97 95 -40 41 -74 78 -76 82 -2 5 -27 34 -55 65 -28 31
-52 64 -52 73 0 9 -18 58 -40 108 -29 67 -48 96 -68 108 -16 9 -36 16 -45 16z"/>
</g>
<g>
<path d="M17240 8429 c-3 0 -18 -6 -35 -13 -16 -7 -37 -11 -45 -9 -8 1 -23 -3
-34 -11 -10 -8 -15 -19 -11 -25 3 -6 17 -11 31 -11 13 0 24 3 24 8 0 4 17 6
38 5 22 -2 45 3 56 12 20 15 20 15 0 30 -10 8 -21 14 -24 14z"/>
</g>
<g>
<path d="M17083 8379 c-10 -1 -40 -6 -68 -11 -27 -6 -60 -14 -73 -19 -13 -5
-20 -14 -17 -19 3 -6 17 -10 30 -10 13 0 39 6 57 14 18 8 45 17 61 21 15 3 27
10 27 15 0 6 -8 9 -17 9z"/>
</g>
<g>
<path d="M16870 8349 c-3 -1 -15 -6 -27 -13 -13 -6 -23 -16 -23 -21 0 -6 16
-11 36 -12 23 -1 37 4 41 14 3 8 0 19 -8 24 -8 5 -16 8 -19 8z"/>
</g>
<g>
<path d="M16751 8339 c-3 0 -19 -5 -34 -9 -16 -5 -35 -6 -43 -3 -8 3 -24 -3
-34 -12 -16 -14 -25 -16 -42 -8 -17 7 -35 6 -67 -5 -33 -11 -51 -12 -71 -5
-18 7 -33 7 -45 1 -10 -6 -48 -7 -92 -3 -41 4 -100 4 -132 0 -41 -5 -66 -14
-84 -31 -15 -14 -27 -31 -27 -39 0 -13 17 -14 108 -9 59 3 145 10 192 15 47 4
112 11 145 14 33 3 72 11 87 17 15 5 34 8 42 5 8 -3 20 1 26 8 9 11 17 12 32
4 16 -9 24 -7 40 8 11 12 16 26 12 36 -3 9 -9 17 -13 16z"/>
</g>
<g>
<path d="M13579 8114 c-2 3 -11 1 -19 -4 -8 -5 -11 -12 -7 -16 4 -4 13 -2 19
4 6 6 10 14 7 16z"/>
</g>
<g>
<path d="M13491 8084 c-3 3 -15 1 -26 -4 -12 -4 -27 -15 -34 -24 -8 -9 -11
-19 -7 -23 3 -4 23 2 43 13 20 10 35 22 33 27 -1 4 -5 9 -9 11z"/>
</g>
<g>
<path d="M13379 8035 c-3 2 -20 -4 -39 -13 -19 -9 -41 -22 -48 -29 -7 -7 -20
-13 -28 -13 -8 0 -14 -4 -14 -10 0 -5 -9 -10 -19 -10 -11 0 -22 -4 -25 -9 -4
-5 0 -11 6 -14 7 -2 20 -1 28 4 8 4 26 12 40 18 14 7 37 18 51 26 15 8 32 22
39 30 7 9 11 17 9 20z"/>
</g>
<g>
<path d="M13184 7930 c-5 4 -19 4 -32 -1 -13 -5 -20 -13 -17 -19 3 -5 15 -10
25 -10 10 0 22 5 26 11 3 6 2 14 -2 19z"/>
</g>
<g>
<path d="M13093 7910 c-10 0 -45 -11 -78 -24 -33 -13 -87 -32 -120 -42 -33 -9
-64 -21 -69 -26 -6 -4 -20 -8 -32 -8 -13 0 -30 -7 -38 -16 -9 -8 -14 -20 -11
-25 4 -5 14 -9 23 -9 9 1 35 9 57 20 22 11 47 19 56 20 9 0 32 6 50 14 19 7
43 17 54 21 11 4 29 10 39 12 11 2 27 9 35 17 9 7 24 16 34 19 9 4 17 11 17
17 0 5 -8 10 -17 10z"/>
</g>
<g>
<path d="M16870 7799 c-3 -1 -21 -10 -40 -21 -24 -13 -51 -18 -85 -16 -27 1
-54 5 -60 8 -5 4 -54 7 -107 8 -98 2 -98 1 -98 -23 0 -14 9 -31 23 -39 16 -11
54 -15 149 -15 72 0 130 4 133 9 4 6 18 7 33 4 15 -4 32 -12 39 -18 7 -6 14
-36 16 -66 2 -30 6 -62 10 -70 3 -8 10 -39 16 -68 6 -29 11 -82 11 -118 0 -44
6 -76 17 -95 16 -26 16 -29 0 -46 -10 -12 -14 -27 -10 -43 3 -14 12 -29 20
-33 7 -4 13 -19 13 -32 0 -14 9 -29 21 -35 11 -7 23 -9 27 -6 3 4 -2 57 -11
119 -9 61 -19 182 -22 267 -2 85 -7 178 -11 205 -3 28 -12 64 -20 81 -8 18
-24 34 -36 38 -13 3 -25 5 -28 5z"/>
</g>
<g>
<path d="M16282 7514 c-81 2 -102 -1 -102 -12 0 -7 6 -19 13 -26 6 -6 30 -17
52 -23 22 -7 73 -18 113 -24 59 -10 75 -10 82 0 5 9 10 10 14 2 4 -6 20 -11
35 -11 15 0 39 -6 54 -12 25 -12 26 -17 24 -73 -1 -33 0 -87 2 -120 1 -33 0
-73 -3 -90 -4 -19 -1 -37 8 -48 13 -17 18 -17 51 -6 33 12 36 16 31 44 -3 16
-9 65 -12 108 -5 50 -2 99 5 135 7 31 17 68 23 82 8 21 6 28 -17 48 -21 17
-30 20 -41 12 -7 -7 -22 -9 -33 -5 -13 4 -24 -1 -34 -15 -11 -17 -16 -18 -20
-6 -3 8 -32 18 -74 25 -38 7 -114 13 -171 15z"/>
</g>
<g>
<path d="M17410 7510 c-5 0 -7 -7 -4 -15 4 -8 8 -15 10 -15 2 0 4 7 4 15 0 8
-4 15 -10 15z"/>
</g>
<g>
<path d="M17431 7470 c-6 0 -14 -7 -17 -15 -4 -8 0 -22 7 -31 8 -10 15 -63 18
-154 5 -108 10 -142 22 -156 11 -13 21 -54 29 -119 6 -55 16 -138 21 -185 6
-47 10 -94 10 -105 0 -11 6 -26 13 -35 7 -8 18 -49 25 -90 7 -41 14 -96 17
-122 3 -26 12 -67 20 -90 9 -24 18 -86 20 -138 4 -65 11 -105 23 -125 9 -16
27 -31 39 -33 17 -3 22 2 22 20 0 13 -7 77 -15 143 -8 66 -19 136 -24 155 -6
19 -12 53 -14 75 -3 22 -17 87 -32 145 -15 58 -31 125 -35 150 -5 25 -14 65
-20 90 -6 25 -16 75 -20 111 -5 37 -14 86 -21 110 -7 24 -16 48 -21 54 -4 5
-8 39 -8 75 0 37 -7 89 -15 116 -8 27 -15 59 -15 71 0 12 -6 28 -13 35 -8 7
-12 20 -9 30 2 10 -1 18 -7 18z"/>
</g>
<g>
<path d="M19122 6930 c-11 0 -24 -6 -30 -13 -6 -7 -11 -28 -12 -47 0 -19 -1
-71 -1 -116 1 -44 -2 -91 -5 -105 -2 -13 -11 -94 -20 -179 -9 -97 -12 -190 -8
-248 5 -76 11 -99 29 -120 12 -14 26 -22 32 -19 5 4 13 81 17 179 3 95 13 225
22 288 9 63 18 158 21 211 4 72 1 104 -11 132 -10 25 -21 37 -34 37z"/>
</g>
<g>
<path d="M16435 6450 c-17 0 -26 -7 -29 -22 -3 -13 -8 -39 -12 -58 -4 -19 -8
-91 -9 -160 -1 -94 -7 -146 -24 -210 -12 -47 -25 -88 -29 -91 -4 -4 -43 -16
-87 -27 -44 -11 -102 -23 -130 -26 -27 -3 -79 -8 -115 -12 -36 -3 -81 -10
-100 -16 -19 -7 -50 -10 -67 -9 -18 1 -38 -1 -45 -6 -7 -4 -38 -14 -68 -21
-30 -7 -69 -14 -86 -16 -18 -2 -41 -9 -52 -15 -11 -6 -69 -18 -129 -26 -59 -8
-130 -14 -158 -14 -27 1 -85 1 -128 1 -43 0 -84 -5 -91 -11 -8 -6 -27 -11 -42
-10 -16 0 -60 -4 -99 -10 -38 -7 -88 -13 -110 -15 -22 -1 -49 -8 -61 -14 -12
-7 -26 -7 -35 -1 -7 5 -31 9 -52 9 -21 0 -47 -5 -57 -10 -11 -6 -24 -20 -30
-31 -6 -11 -8 -28 -5 -39 6 -18 14 -19 89 -15 46 2 96 10 112 16 16 7 52 15
79 19 28 5 75 11 105 15 30 4 60 12 66 17 7 5 70 8 140 8 71 0 171 5 222 11
50 6 92 15 92 20 0 5 12 4 26 -1 18 -7 30 -7 39 0 6 5 14 7 17 4 4 -3 31 0 62
8 31 7 56 16 56 20 0 5 11 8 24 8 14 0 28 5 31 10 3 6 17 10 31 10 13 0 24 4
24 9 0 5 33 12 73 15 39 3 96 8 125 12 28 3 52 9 52 14 0 4 11 5 24 3 13 -3
72 3 131 12 59 9 127 17 150 17 35 0 45 5 67 32 20 25 27 47 32 106 3 41 8
135 11 207 3 73 10 144 15 158 6 15 10 39 10 53 0 15 -7 38 -16 50 -8 12 -26
22 -39 22z"/>
</g>
<g>
<path d="M16890 6080 c-6 0 -12 -6 -14 -12 -3 -7 -7 -33 -11 -58 -4 -25 -8
-97 -11 -160 -2 -63 -9 -125 -16 -137 -6 -13 -19 -25 -28 -28 -9 -3 -37 -8
-61 -11 -24 -3 -74 -9 -110 -13 -36 -4 -70 -11 -76 -14 -6 -4 -69 -7 -139 -8
-71 -1 -134 -6 -140 -11 -7 -5 -38 -13 -70 -19 -33 -6 -70 -13 -84 -15 -14 -2
-47 -8 -75 -14 -27 -6 -70 -16 -95 -21 -25 -6 -67 -13 -93 -15 -27 -2 -65 -8
-85 -14 -20 -5 -46 -7 -59 -3 -13 3 -68 -1 -121 -8 -53 -8 -104 -13 -112 -12
-8 1 -55 -5 -105 -14 -49 -9 -100 -16 -112 -16 -16 1 -22 -6 -26 -31 -2 -17
-1 -39 4 -48 5 -10 21 -21 35 -24 14 -4 37 -1 50 5 14 6 36 11 49 11 13 0 30
6 38 14 8 9 53 19 108 25 52 5 141 15 199 21 58 7 114 17 125 23 11 5 44 11
73 12 30 1 57 6 60 11 4 5 30 15 57 21 28 6 82 19 120 28 51 13 113 17 230 17
103 -1 183 4 225 13 36 8 97 21 136 30 40 8 83 15 97 15 14 0 29 -4 32 -10 3
-5 13 -10 21 -10 8 0 14 9 14 20 0 11 5 28 11 38 9 14 7 52 -10 163 -11 79
-21 170 -21 202 0 32 -4 57 -10 57z"/>
</g>
<g>
<path d="M13068 5890 c-21 0 -33 -9 -52 -39 -14 -21 -36 -48 -50 -59 -14 -11
-26 -25 -26 -32 0 -7 -11 -26 -25 -44 -14 -17 -31 -38 -39 -46 -7 -8 -25 -33
-40 -54 -14 -21 -26 -51 -26 -65 0 -15 6 -35 13 -44 10 -15 19 -16 68 -7 32 6
117 11 190 12 74 1 151 0 172 -1 20 -2 37 -7 37 -12 0 -6 37 -7 93 -4 50 4 99
9 107 12 8 3 40 6 70 7 30 1 74 8 97 16 40 12 44 12 81 -13 21 -15 41 -27 45
-27 3 0 13 13 22 30 8 16 15 34 15 40 0 6 -15 17 -33 25 -22 9 -45 11 -68 6
-19 -4 -47 -5 -64 -1 -16 3 -48 5 -70 3 -22 -1 -71 -6 -110 -10 -38 -5 -88 -8
-110 -7 -22 1 -60 5 -85 9 -25 5 -72 9 -105 10 -33 1 -60 3 -60 4 0 1 -33 4
-74 7 -40 2 -77 7 -82 10 -5 3 -3 18 4 34 6 17 45 63 85 104 39 41 72 83 72
93 0 10 -5 24 -12 31 -7 7 -25 12 -40 12z"/>
</g>
<g>
<path d="M11654 5860 c-5 -1 -26 -18 -47 -38 -20 -20 -37 -42 -37 -47 0 -6
-13 -19 -30 -28 -16 -10 -60 -47 -96 -83 -37 -36 -92 -81 -123 -102 -31 -20
-58 -39 -61 -42 -3 -3 -25 -14 -50 -25 -24 -11 -56 -30 -70 -41 -14 -12 -48
-33 -76 -48 -29 -15 -60 -36 -69 -46 -10 -11 -26 -20 -35 -20 -9 0 -24 -8 -33
-18 -10 -10 -17 -32 -17 -48 0 -17 6 -37 13 -46 6 -9 30 -21 52 -28 22 -7 73
-31 114 -52 72 -38 76 -39 114 -27 24 8 44 22 50 37 9 20 8 27 -8 38 -10 8
-26 14 -34 14 -9 0 -33 5 -53 11 -21 5 -50 21 -65 35 l-28 25 23 16 c12 8 22
21 22 27 0 7 32 32 71 57 39 24 89 59 112 78 23 19 60 45 82 60 22 14 54 37
72 51 18 14 47 36 65 50 18 14 68 60 110 103 43 43 78 84 78 91 0 7 -8 20 -18
29 -10 10 -23 17 -28 17z"/>
</g>
<g>
<path d="M12406 5509 c-6 0 -29 -20 -51 -44 -22 -25 -58 -56 -80 -69 -22 -14
-46 -35 -53 -46 -7 -11 -20 -19 -29 -18 -10 2 -22 -8 -30 -22 -7 -14 -13 -35
-13 -47 0 -12 6 -25 12 -30 7 -4 38 -11 68 -15 30 -4 71 -10 90 -13 19 -3 60
-6 90 -7 30 0 61 -6 69 -12 10 -8 18 -5 32 13 11 13 19 26 19 30 0 4 -15 8
-32 8 -18 1 -50 3 -71 5 -24 2 -43 11 -49 21 -5 10 -17 16 -26 13 -9 -3 -32 3
-50 13 l-34 17 28 25 c15 13 38 36 53 52 14 15 30 27 36 27 6 0 21 17 33 38
16 30 19 41 10 50 -7 7 -17 12 -22 11z"/>
</g>
<g>
<path d="M12468 5501 c-4 11 -6 11 -12 0 -4 -7 -5 -15 -2 -18 3 -4 9 -4 12 0
3 3 4 11 2 18z"/>
</g>
<g>
<path d="M13773 5124 c-77 3 -143 2 -146 0 -2 -3 -60 -7 -129 -9 -69 -2 -136
-7 -150 -10 -15 -4 -28 -15 -31 -25 -2 -10 -1 -23 3 -30 6 -10 28 -11 92 -5
45 4 103 9 128 10 25 2 53 6 63 10 9 4 24 4 33 1 9 -4 26 0 38 7 12 8 41 12
66 11 25 -2 86 -6 136 -10 81 -6 92 -4 98 11 3 10 5 20 2 22 -2 3 -17 6 -33 9
-15 2 -92 6 -170 8z"/>
</g>
<g>
<path d="M14216 5109 c-9 8 -16 8 -20 2 -4 -5 -20 -12 -36 -16 -17 -4 -30 -10
-30 -13 0 -4 23 -8 50 -9 36 -2 50 1 50 11 0 8 -6 19 -14 25z"/>
</g>
<g>
<path d="M14045 5110 c-19 0 -35 -4 -35 -10 0 -5 6 -10 13 -10 6 0 22 -3 35
-6 16 -5 22 -2 22 10 0 12 -9 16 -35 16z"/>
</g>
<g>
<path d="M14271 5110 c-10 0 -21 -6 -24 -14 -3 -8 -3 -17 0 -20 4 -3 15 -6 25
-6 11 0 18 7 18 20 0 13 -7 20 -19 20z"/>
</g>
<g>
<path d="M14370 5100 c-5 0 -10 -4 -10 -10 0 -5 5 -10 10 -10 6 0 10 5 10 10
0 6 -4 10 -10 10z"/>
</g>
<g>
<path d="M11565 4910 c-12 0 -30 -9 -39 -19 -11 -12 -15 -27 -12 -39 4 -11 13
-25 21 -32 8 -6 20 -13 27 -14 7 -2 24 -8 38 -13 15 -6 57 -14 95 -18 39 -4
80 -11 93 -16 12 -5 88 -12 170 -15 81 -4 218 -7 305 -8 95 0 161 4 167 10 6
6 8 18 4 27 -3 10 -16 19 -28 22 -11 3 -73 8 -136 10 -63 3 -176 6 -250 9 -74
2 -164 9 -200 15 -36 6 -87 15 -115 20 -27 5 -51 14 -53 20 -2 6 -12 11 -22
11 -9 0 -23 7 -30 15 -7 8 -22 15 -35 15z"/>
</g>
<g>
<path d="M16218 4859 c-13 -1 -30 -3 -39 -6 -10 -2 -19 -13 -22 -23 -4 -17 0
-19 36 -17 35 2 43 7 45 25 3 18 -1 22 -20 21z"/>
</g>
<g>
<path d="M16092 4840 c-4 0 -14 -5 -22 -10 -8 -5 -22 -7 -31 -4 -9 2 -38 0
-63 -6 -26 -6 -99 -17 -164 -26 -64 -9 -128 -16 -142 -16 -14 0 -47 -6 -73
-14 -27 -7 -52 -13 -55 -12 -4 1 -14 -1 -22 -4 -8 -3 -32 -11 -53 -17 -29 -10
-41 -10 -52 -1 -10 9 -23 9 -47 2 -18 -6 -51 -14 -73 -17 -22 -4 -62 -9 -90
-11 -27 -2 -66 -6 -85 -8 -19 -2 -55 -7 -80 -11 -25 -5 -54 -9 -65 -10 -11 -1
-49 -6 -85 -11 -36 -5 -84 -9 -107 -9 -24 0 -43 -2 -43 -6 0 -3 -38 -9 -85
-11 -47 -3 -91 -10 -98 -16 -6 -5 -55 -12 -107 -16 -60 -4 -99 -11 -108 -20
-10 -9 -12 -24 -8 -41 7 -26 9 -27 56 -21 28 3 74 9 103 12 28 3 59 12 67 19
8 7 51 16 95 20 44 4 82 11 85 15 3 4 37 10 76 13 40 2 76 7 82 11 6 3 41 9
79 12 37 3 109 12 158 20 50 8 126 19 170 24 44 5 121 16 170 24 50 8 133 20
185 26 52 7 127 18 165 25 39 7 110 19 159 26 50 7 97 20 109 29 11 9 17 22
13 28 -4 7 -10 12 -14 12z"/>
</g>
<g>
<path d="M7746 440 c-11 0 -16 -9 -16 -26 0 -16 5 -24 13 -22 6 3 13 14 15 26
2 15 -2 22 -12 22z"/>
</g>
</g>
</svg>
