<?xml version="1.0" standalone="no"?>
<!DOCTYPE svg PUBLIC "-//W3C//DTD SVG 20010904//EN"
 "http://www.w3.org/TR/2001/REC-SVG-20010904/DTD/svg10.dtd">
<svg version="1.0" xmlns="http://www.w3.org/2000/svg"
 width="1836.000000pt" height="2048.000000pt" viewBox="0 0 1836.000000 2048.000000"
 preserveAspectRatio="xMidYMid meet">
<metadata>
Created by potrace 1.16, written by Peter Selinger 2001-2019
</metadata>
<g transform="translate(0.000000,2048.000000) scale(0.100000,-0.100000)"
fill="#000000" stroke="none">
<g>
<path d="M8985 19279 c-11 -1 -30 -6 -41 -13 -12 -6 -29 -18 -38 -25 -9 -7
-16 -10 -16 -5 0 4 -11 -3 -25 -16 -13 -12 -23 -25 -22 -29 1 -3 -7 -16 -18
-28 -11 -12 -26 -28 -32 -37 -7 -8 -13 -21 -13 -29 0 -7 -23 -33 -50 -57 -28
-24 -54 -47 -58 -50 -4 -3 -15 -17 -25 -32 -9 -15 -17 -34 -17 -43 0 -8 -6
-15 -13 -15 -7 0 -36 -22 -63 -50 -27 -27 -54 -50 -60 -50 -7 0 -14 -7 -18
-15 -3 -8 -10 -15 -16 -15 -6 0 -28 -12 -49 -26 -22 -14 -42 -35 -45 -47 -3
-12 -18 -30 -32 -40 -14 -11 -36 -20 -50 -22 -13 -1 -34 -11 -47 -21 -12 -11
-28 -27 -35 -37 -7 -9 -17 -15 -21 -12 -5 2 -28 -12 -52 -33 -24 -20 -46 -39
-49 -42 -3 -3 -16 -7 -29 -7 -13 -1 -36 -12 -50 -25 -14 -13 -40 -31 -58 -41
-17 -9 -38 -17 -47 -17 -9 0 -38 -13 -64 -30 -27 -16 -55 -30 -63 -30 -8 0
-22 -7 -32 -15 -11 -7 -24 -12 -31 -9 -7 3 -21 -4 -31 -16 -10 -11 -27 -20
-37 -20 -12 0 -23 -11 -29 -30 -6 -16 -19 -32 -30 -35 -10 -4 -26 -13 -34 -21
-8 -9 -33 -17 -56 -19 -23 -2 -49 -11 -58 -19 -10 -9 -27 -16 -38 -16 -11 0
-26 -7 -33 -15 -7 -8 -18 -15 -25 -15 -6 0 -34 -11 -61 -25 -27 -14 -56 -24
-64 -23 -9 2 -33 -16 -54 -40 -30 -33 -45 -42 -70 -42 -24 0 -42 -10 -71 -40
-22 -22 -44 -39 -50 -37 -5 2 -35 -4 -65 -15 -30 -10 -78 -35 -107 -54 -29
-20 -58 -34 -65 -32 -7 3 -29 -2 -48 -10 -19 -8 -42 -20 -50 -27 -8 -7 -41
-20 -73 -28 -33 -9 -66 -22 -75 -30 -10 -8 -28 -17 -42 -20 -14 -3 -67 -17
-117 -31 -51 -14 -106 -33 -123 -43 -18 -10 -28 -23 -25 -31 3 -7 0 -23 -7
-35 -6 -12 -19 -28 -30 -35 -10 -7 -18 -22 -18 -32 0 -10 4 -21 9 -25 5 -3 12
-18 16 -33 4 -18 21 -38 51 -57 26 -17 69 -44 97 -62 27 -18 60 -41 72 -53 12
-11 26 -20 32 -20 7 0 18 -6 25 -13 7 -7 36 -28 63 -47 28 -19 80 -60 117 -90
37 -30 95 -73 130 -94 35 -22 86 -59 113 -81 28 -23 61 -48 75 -55 14 -7 43
-27 65 -45 22 -18 56 -40 75 -50 19 -9 49 -32 65 -51 17 -19 39 -35 51 -37 11
-1 33 -13 49 -25 15 -12 31 -22 36 -22 4 0 15 -13 25 -28 9 -17 35 -37 60 -47
24 -10 51 -26 60 -36 10 -11 23 -19 31 -19 7 0 26 -8 41 -17 15 -10 44 -35 64
-55 21 -21 45 -38 53 -38 9 0 30 -10 48 -22 17 -13 57 -49 88 -80 31 -32 60
-58 63 -58 4 0 34 -22 67 -50 33 -27 64 -50 68 -50 4 0 13 -11 19 -25 7 -14
20 -28 29 -32 10 -4 40 -26 68 -51 27 -24 58 -58 68 -76 11 -17 50 -61 87 -97
37 -36 69 -71 71 -76 2 -6 27 -37 54 -68 28 -32 71 -78 97 -102 25 -25 49 -56
52 -69 4 -13 11 -24 18 -24 6 0 32 -19 57 -42 25 -24 46 -45 46 -48 0 -3 11
-21 25 -39 14 -18 55 -65 93 -104 50 -52 67 -78 67 -98 0 -15 -5 -31 -10 -34
-6 -4 -19 -24 -30 -46 -11 -21 -25 -39 -30 -39 -6 0 -18 -8 -27 -18 -10 -10
-23 -27 -29 -38 -6 -10 -20 -24 -30 -29 -10 -6 -20 -17 -22 -25 -2 -8 -9 -21
-15 -29 -6 -7 -22 -17 -35 -22 -18 -7 -23 -15 -19 -30 4 -14 -7 -32 -39 -64
-24 -25 -44 -52 -44 -62 0 -10 -12 -30 -28 -46 -15 -15 -39 -37 -54 -48 -16
-11 -28 -29 -28 -39 0 -11 -7 -23 -15 -27 -8 -5 -32 -33 -55 -62 -22 -30 -40
-59 -40 -64 0 -5 -15 -26 -32 -47 -18 -21 -41 -61 -51 -88 -10 -29 -33 -65
-52 -84 -19 -18 -35 -39 -35 -46 0 -8 -9 -25 -20 -39 -11 -14 -20 -34 -20 -44
0 -10 -8 -20 -19 -24 -10 -3 -26 -24 -36 -46 -10 -22 -24 -43 -31 -47 -6 -4
-20 -21 -30 -38 -11 -17 -36 -61 -57 -97 -21 -36 -44 -71 -53 -77 -8 -7 -33
-52 -55 -99 -22 -47 -49 -102 -58 -121 -10 -19 -30 -57 -46 -85 -15 -27 -31
-54 -35 -59 -5 -5 -6 -15 -3 -22 3 -8 -5 -22 -16 -32 -12 -9 -24 -30 -26 -47
-2 -16 -13 -51 -25 -77 -11 -26 -31 -53 -43 -59 -12 -7 -25 -17 -29 -23 -4 -6
-8 -21 -8 -34 0 -12 -7 -34 -16 -47 -9 -14 -14 -25 -11 -25 4 0 -12 -35 -35
-77 -22 -43 -47 -85 -55 -95 -8 -9 -13 -22 -12 -30 2 -7 -7 -35 -19 -61 -13
-26 -28 -73 -33 -105 -7 -36 -19 -65 -34 -80 -13 -13 -29 -39 -35 -57 -6 -18
-10 -37 -9 -41 1 -5 -1 -21 -5 -36 -5 -16 -13 -28 -18 -28 -5 0 -8 -6 -5 -12
2 -7 -1 -24 -8 -38 -7 -14 -19 -56 -28 -95 -9 -38 -24 -103 -33 -143 -9 -40
-14 -82 -11 -94 3 -11 0 -33 -8 -47 -7 -15 -12 -44 -11 -66 2 -22 -1 -47 -5
-56 -5 -9 -10 -27 -12 -40 -3 -13 -13 -48 -22 -77 -11 -34 -15 -66 -11 -91 4
-30 2 -42 -13 -55 -12 -11 -20 -37 -24 -79 -3 -34 -13 -76 -21 -92 -9 -17 -16
-52 -16 -78 0 -27 -5 -57 -10 -67 -6 -10 -10 -65 -11 -122 0 -71 -5 -108 -14
-118 -7 -8 -18 -46 -24 -85 -6 -38 -16 -106 -22 -150 -6 -44 -8 -108 -5 -142
3 -34 1 -76 -5 -95 -5 -18 -12 -45 -14 -60 -2 -15 -6 -85 -10 -155 -3 -70 -8
-166 -11 -213 -3 -47 -6 -193 -8 -325 -2 -132 -1 -243 1 -247 2 -4 6 -51 9
-105 3 -54 7 -139 8 -190 2 -51 7 -105 12 -120 5 -15 9 -55 10 -88 1 -33 7
-112 12 -177 5 -64 12 -121 16 -126 3 -6 10 -50 16 -99 5 -48 14 -131 21 -183
7 -65 18 -108 34 -135 13 -22 26 -60 30 -85 3 -25 8 -67 11 -95 2 -27 6 -71 8
-96 2 -26 16 -86 31 -133 14 -48 25 -95 24 -104 -1 -9 4 -30 11 -47 6 -16 16
-62 20 -101 5 -39 16 -94 25 -122 11 -33 23 -52 37 -55 16 -5 18 -9 8 -27 -9
-16 -5 -38 18 -108 16 -48 35 -108 42 -135 7 -26 17 -50 21 -53 5 -3 9 -18 9
-35 0 -16 4 -29 10 -29 5 0 16 -22 24 -49 8 -27 26 -67 40 -90 14 -22 26 -48
26 -57 0 -9 10 -34 22 -55 12 -22 25 -39 30 -39 4 0 8 -8 8 -19 0 -10 7 -32
15 -47 8 -16 15 -37 15 -46 0 -10 9 -18 22 -20 19 -2 23 -10 26 -46 1 -23 12
-57 22 -75 11 -18 20 -40 20 -49 0 -10 13 -38 29 -63 16 -26 32 -68 36 -96 4
-27 11 -51 15 -54 5 -3 16 -19 24 -36 9 -17 13 -35 10 -40 -3 -5 -1 -9 5 -9 6
0 13 -11 17 -24 3 -13 17 -34 30 -47 13 -12 24 -30 24 -39 0 -9 13 -29 29 -44
20 -19 30 -41 35 -72 3 -25 15 -57 26 -71 11 -14 20 -33 20 -42 0 -9 14 -31
30 -50 17 -18 37 -48 45 -67 8 -19 12 -41 9 -49 -4 -8 -2 -15 4 -15 5 0 15
-12 21 -28 6 -15 25 -43 41 -62 17 -19 30 -39 30 -43 0 -5 18 -29 40 -54 22
-25 40 -50 40 -55 0 -5 16 -30 35 -55 19 -25 35 -56 35 -69 0 -13 9 -28 19
-34 11 -5 33 -30 50 -55 17 -26 31 -54 31 -65 0 -10 10 -27 23 -37 12 -10 36
-38 52 -63 17 -25 33 -47 38 -48 4 -2 7 -10 7 -17 0 -8 12 -20 28 -27 18 -9
31 -27 40 -53 7 -22 23 -49 36 -60 12 -11 33 -40 45 -65 13 -25 30 -53 38 -62
8 -9 28 -41 43 -70 15 -29 39 -59 54 -66 15 -8 27 -22 28 -35 0 -12 1 -28 1
-35 -1 -6 5 -12 12 -12 7 0 25 -14 39 -31 14 -17 26 -38 26 -47 0 -9 -8 -29
-18 -44 -10 -15 -37 -47 -60 -72 -23 -25 -42 -49 -42 -54 0 -5 -21 -32 -47
-60 -27 -28 -55 -63 -63 -78 -9 -16 -34 -42 -57 -59 -23 -16 -42 -35 -42 -41
-1 -6 -11 -20 -23 -31 -13 -11 -31 -30 -40 -42 -10 -12 -18 -26 -18 -31 0 -5
-16 -20 -35 -32 -19 -13 -41 -35 -47 -50 -7 -16 -18 -28 -25 -28 -7 0 -18 -11
-25 -24 -7 -14 -32 -45 -56 -70 -24 -25 -47 -46 -52 -46 -5 0 -12 -10 -16 -22
-4 -13 -26 -41 -50 -64 -24 -22 -44 -46 -44 -51 0 -6 -16 -25 -35 -42 -20 -17
-40 -31 -45 -31 -6 0 -10 -6 -10 -13 0 -7 -13 -26 -29 -42 -16 -17 -35 -35
-43 -42 -7 -7 -18 -18 -24 -25 -6 -7 -59 -58 -119 -113 -59 -55 -122 -115
-139 -133 -16 -18 -45 -42 -63 -53 -18 -11 -33 -27 -33 -34 0 -7 -21 -32 -46
-54 -26 -23 -51 -41 -55 -41 -5 0 -9 -7 -9 -15 0 -8 -6 -15 -14 -15 -8 0 -24
-11 -37 -25 -13 -14 -37 -33 -54 -42 -16 -10 -33 -16 -36 -15 -4 0 -15 -8 -24
-18 -10 -11 -24 -20 -32 -20 -7 0 -13 -9 -13 -19 0 -11 -12 -29 -26 -40 -15
-12 -34 -21 -44 -21 -9 0 -28 -11 -41 -24 -13 -13 -48 -49 -77 -80 -30 -31
-60 -56 -68 -56 -7 0 -33 -19 -57 -42 -24 -24 -57 -50 -73 -58 -16 -8 -36 -21
-44 -30 -8 -9 -49 -41 -90 -71 -41 -30 -88 -61 -105 -69 -16 -8 -40 -27 -53
-42 -13 -16 -29 -28 -36 -28 -7 0 -23 -11 -36 -25 -13 -14 -28 -25 -33 -25 -6
0 -31 -19 -57 -43 -26 -23 -65 -54 -86 -70 -33 -24 -45 -27 -95 -23 -46 4 -62
1 -87 -17 -17 -12 -31 -26 -31 -32 1 -5 1 -15 0 -21 0 -6 -14 -17 -31 -24 -16
-7 -30 -15 -30 -19 0 -3 -18 -28 -40 -55 -22 -26 -40 -57 -40 -67 0 -10 6 -19
13 -19 6 0 21 -17 32 -37 19 -35 23 -37 65 -35 25 1 52 3 60 5 8 1 28 11 43
22 16 11 42 31 58 44 28 22 39 24 127 22 53 -1 112 3 130 8 25 8 34 7 38 -3 3
-8 22 -20 42 -29 20 -8 73 -20 117 -27 44 -7 88 -16 97 -21 9 -5 36 -9 60 -9
24 0 59 -6 79 -13 20 -7 44 -19 53 -26 9 -7 27 -11 41 -9 14 3 28 1 31 -3 3
-5 18 -9 34 -9 15 0 35 -3 44 -6 9 -3 13 -11 10 -16 -5 -7 -1 -7 11 0 11 6 30
6 49 1 17 -5 44 -15 61 -23 16 -8 43 -12 58 -9 22 4 25 8 15 15 -9 7 -7 8 8 3
12 -3 35 -8 50 -10 16 -2 62 -14 103 -25 41 -11 90 -20 109 -20 19 0 47 -8 63
-17 16 -10 29 -21 29 -25 0 -4 15 -8 34 -8 18 0 39 -7 46 -15 7 -8 28 -17 49
-21 20 -4 53 -15 73 -25 21 -11 45 -19 55 -19 10 0 38 -14 63 -30 30 -20 58
-30 82 -30 24 0 54 -11 85 -30 26 -17 52 -30 59 -30 6 0 17 -6 23 -14 7 -8 24
-17 39 -21 15 -3 48 -24 74 -46 26 -21 54 -39 62 -39 9 0 16 -4 16 -9 0 -5 23
-24 52 -41 29 -18 58 -33 65 -34 7 -1 30 -20 51 -42 25 -25 46 -38 59 -36 12
2 27 -4 35 -13 7 -9 19 -22 26 -30 7 -8 27 -15 43 -15 26 0 30 -5 40 -45 9
-35 17 -47 35 -51 14 -4 32 -16 42 -29 10 -12 33 -27 52 -33 19 -7 51 -27 71
-45 20 -18 38 -38 40 -44 2 -5 29 -13 60 -16 57 -7 57 -7 85 31 16 20 41 51
57 67 15 17 35 42 45 58 9 15 24 29 33 32 9 3 21 16 27 29 6 14 21 26 34 28
14 2 35 21 55 52 18 27 36 52 41 55 5 3 14 16 21 29 6 12 17 22 23 22 6 0 24
13 39 30 16 16 29 38 29 49 0 12 11 23 30 30 17 5 30 14 30 19 0 5 15 25 33
45 17 19 42 49 55 66 16 22 32 31 51 31 18 0 47 15 80 41 28 22 51 44 51 49 0
4 9 6 19 3 12 -3 35 6 58 23 21 15 47 37 59 49 11 11 41 27 65 35 24 8 46 17
49 21 3 3 20 14 38 23 17 9 32 20 32 25 0 5 8 11 18 15 9 3 35 17 57 31 22 14
45 27 50 29 6 2 19 8 30 12 11 4 29 9 41 10 11 1 38 13 60 25 21 13 41 26 44
30 3 3 23 9 45 12 22 4 62 11 89 17 27 5 57 16 65 24 9 8 50 19 91 25 41 6 90
13 108 16 18 2 39 8 45 13 7 5 28 12 47 15 19 3 58 11 85 17 28 6 91 13 140
15 50 3 101 5 115 5 14 0 34 0 45 0 11 -1 38 0 60 2 22 2 46 8 53 12 7 4 100
9 205 9 l192 2 32 48 c26 39 31 54 26 85 -3 20 -13 57 -22 81 -10 29 -27 51
-46 62 -17 10 -36 18 -43 18 -7 1 -32 10 -54 21 -23 11 -47 20 -54 20 -7 0
-29 8 -48 17 -19 10 -39 27 -45 38 -5 11 -12 27 -14 36 -3 10 -30 24 -63 35
-35 11 -70 31 -91 51 -18 19 -33 29 -33 23 0 -7 -6 -5 -15 4 -8 8 -15 19 -15
24 0 5 -15 17 -34 26 -19 9 -38 16 -43 16 -5 0 -16 9 -26 20 -9 11 -26 20 -37
20 -10 0 -35 13 -53 30 -19 16 -37 26 -41 22 -4 -4 -12 1 -17 10 -5 9 -23 19
-39 23 -17 4 -35 15 -40 26 -6 10 -15 19 -20 19 -6 0 -20 10 -32 22 -12 12
-23 17 -25 11 -2 -6 -14 -2 -27 10 -13 12 -44 40 -70 62 -26 22 -63 55 -83 73
-19 17 -43 32 -52 32 -10 0 -27 10 -39 23 -12 13 -22 29 -22 35 0 6 -10 18
-23 26 -12 9 -37 16 -55 18 -18 1 -39 9 -46 18 -8 8 -17 25 -20 38 -4 12 -14
22 -22 22 -8 0 -13 4 -10 9 3 5 -9 12 -28 15 -22 4 -36 13 -39 26 -3 11 -19
28 -36 37 -17 10 -31 23 -31 29 0 6 -8 21 -19 32 -10 13 -30 22 -46 22 -15 0
-40 9 -56 21 -16 11 -28 28 -27 37 2 11 -4 18 -17 18 -11 1 -28 2 -37 3 -11 1
-18 9 -18 21 0 11 -4 20 -10 20 -5 0 -10 7 -10 14 0 8 -12 21 -27 28 -15 7
-25 16 -23 20 3 4 -4 14 -15 22 -11 9 -30 16 -41 16 -12 0 -26 6 -32 12 -5 7
-12 24 -14 38 -2 15 -11 26 -23 28 -11 2 -28 11 -37 20 -10 8 -18 20 -18 26 0
6 -14 20 -30 31 -17 11 -42 37 -56 57 -14 20 -39 41 -56 47 -16 6 -27 15 -23
20 3 6 -14 20 -38 31 -33 16 -47 29 -53 53 -6 20 -28 45 -63 72 -29 22 -60 54
-68 69 -10 20 -17 25 -23 17 -5 -9 -9 -7 -12 7 -4 13 -18 22 -42 26 -25 5 -36
12 -36 24 0 9 -13 28 -29 42 -17 13 -28 27 -26 31 3 4 -1 11 -8 16 -6 5 -30
15 -53 21 -30 9 -45 21 -62 49 -12 21 -40 57 -62 81 -23 23 -46 42 -51 42 -6
0 -8 4 -5 9 4 5 3 17 0 26 -4 9 -17 21 -30 26 -14 5 -24 17 -24 29 0 11 9 25
20 32 11 7 20 17 20 22 0 5 11 24 25 42 14 18 25 39 25 47 0 8 7 20 15 27 8 7
15 19 15 26 0 8 11 31 24 52 13 20 45 59 71 85 25 27 55 63 65 81 10 19 24 44
31 57 8 13 28 47 46 76 18 28 33 55 33 60 0 5 9 15 20 23 11 8 20 20 20 26 0
6 9 23 20 37 11 14 20 29 20 34 0 5 17 39 38 77 20 37 52 95 70 129 17 34 32
69 32 79 0 9 4 19 9 23 5 3 21 26 35 51 14 26 26 51 26 56 0 5 14 29 30 52 17
23 39 58 50 77 10 19 25 48 33 64 8 17 18 39 22 50 4 11 9 26 11 34 1 8 7 17
12 20 5 3 13 17 16 31 4 14 15 41 23 60 9 19 21 42 28 50 7 8 18 33 24 55 6
22 26 67 46 99 19 32 35 64 35 71 0 7 11 37 25 67 14 29 25 63 25 76 0 12 6
25 14 28 8 3 17 26 21 51 4 26 12 58 18 72 5 14 11 28 12 31 1 3 5 19 10 35 4
17 13 37 20 45 6 8 20 44 30 80 9 36 23 76 30 90 6 14 20 40 29 58 9 17 15 36
12 41 -3 4 5 42 18 82 13 41 31 101 41 134 9 33 21 69 27 79 5 11 19 60 30
110 11 50 24 114 28 141 5 28 16 79 25 115 9 36 18 90 22 120 3 30 11 84 19
120 7 36 20 92 28 125 9 33 16 83 16 111 0 28 7 71 15 95 9 24 18 76 20 116 2
39 9 90 15 113 6 22 10 49 9 58 -1 9 2 64 7 122 5 58 8 113 6 122 -1 10 4 18
10 18 9 0 9 3 1 11 -8 8 -8 20 -3 35 5 13 12 81 16 151 3 70 8 187 9 258 1 72
-1 146 -6 165 -4 19 -13 148 -18 285 -5 138 -6 269 -2 292 5 23 5 45 2 49 -3
3 -7 18 -7 32 -1 15 -4 97 -8 182 -4 85 -9 216 -12 290 -3 74 -7 189 -10 255
-2 66 -5 127 -5 135 0 8 -5 24 -10 35 -4 11 -13 70 -19 130 -6 61 -13 135 -14
165 -2 30 -6 96 -10 145 -4 50 -17 128 -28 175 -12 47 -23 99 -25 115 -2 17
-7 80 -12 140 -5 61 -11 119 -14 130 -2 11 -9 40 -16 65 -7 25 -19 68 -28 97
-8 29 -12 61 -8 72 3 11 -1 34 -9 50 -9 17 -16 46 -16 65 0 19 -4 38 -10 41
-5 3 -10 17 -10 30 0 13 -4 27 -10 30 -5 3 -10 14 -10 23 0 9 -7 30 -15 46 -8
15 -15 46 -15 67 0 22 -4 39 -10 39 -5 0 -10 5 -10 11 0 5 -11 34 -24 62 -13
29 -31 73 -40 98 -9 26 -21 69 -26 95 -5 27 -14 67 -19 89 -6 22 -16 61 -23
86 -7 25 -19 53 -25 60 -7 8 -15 37 -18 64 -4 28 -14 58 -23 68 -11 13 -13 20
-4 29 8 8 4 19 -14 43 -13 17 -24 37 -24 42 0 6 -9 32 -21 58 -11 26 -19 58
-16 72 2 14 -2 31 -11 39 -8 9 -15 30 -16 47 -1 19 -10 41 -23 55 -13 12 -23
32 -23 45 -1 12 -7 33 -15 47 -8 14 -14 33 -15 44 0 10 -18 46 -40 79 -23 33
-39 66 -36 72 2 7 -6 25 -20 41 -13 16 -24 36 -24 44 0 8 -9 26 -20 40 -11 14
-20 32 -20 40 0 9 -13 31 -30 50 -16 19 -29 40 -30 46 0 6 -6 17 -14 23 -8 6
-19 32 -25 56 -6 24 -19 52 -29 62 -10 10 -28 36 -41 57 -12 21 -20 45 -17 52
3 7 -13 36 -34 63 -22 28 -40 55 -40 61 0 6 -9 28 -20 50 -11 21 -30 49 -43
62 -12 13 -37 46 -55 74 -17 28 -48 67 -68 87 -20 19 -33 40 -30 45 3 6 0 12
-8 15 -8 3 -17 20 -21 37 -4 19 -16 36 -30 42 -13 6 -28 23 -33 37 -5 14 -21
43 -34 63 -14 21 -40 49 -57 64 -22 18 -31 34 -31 57 0 17 -8 39 -17 50 -17
18 -17 20 7 40 14 12 32 34 39 48 7 14 40 50 72 78 33 29 74 76 93 104 19 29
89 106 156 172 67 66 149 148 182 182 33 34 70 75 82 91 11 16 44 49 72 73 27
24 75 70 105 103 30 32 96 100 148 152 52 52 97 94 99 94 3 0 81 77 173 170
93 94 176 184 186 200 10 17 26 30 37 30 11 0 51 30 90 67 39 36 86 79 104 96
17 16 32 34 32 38 0 5 5 9 11 9 6 0 56 37 112 81 56 45 141 117 189 160 47 44
95 79 106 79 13 0 22 9 26 24 4 17 15 26 35 31 17 4 55 32 89 66 33 32 64 59
69 59 5 0 26 15 46 34 20 18 65 48 100 66 35 18 76 48 92 67 20 26 24 38 16
46 -6 6 -11 32 -11 58 0 29 6 51 15 59 8 7 15 25 15 40 0 15 -8 34 -18 43 -10
9 -43 23 -75 31 -31 8 -66 24 -79 35 -14 14 -30 19 -47 16 -14 -2 -32 2 -41
10 -8 7 -59 21 -112 29 -54 9 -122 27 -152 41 -30 14 -61 25 -70 25 -8 0 -18
5 -21 10 -3 6 -15 10 -26 10 -10 0 -27 4 -37 9 -9 4 -33 14 -52 21 -19 6 -58
18 -85 25 -28 6 -65 20 -82 29 -17 8 -35 20 -38 26 -3 6 -27 20 -53 32 -26 12
-67 25 -92 29 -25 5 -66 12 -92 15 -27 4 -48 11 -48 15 0 5 -7 9 -15 9 -9 0
-33 9 -55 20 -22 11 -46 20 -55 20 -8 0 -41 21 -71 46 -31 25 -86 59 -122 75
-36 17 -77 39 -90 49 -13 11 -40 22 -61 26 -20 3 -54 18 -76 33 -22 14 -42 29
-43 34 -2 4 -21 17 -43 27 -21 11 -39 25 -39 31 0 5 -13 15 -28 22 -16 7 -43
23 -60 37 -18 14 -46 37 -63 53 -16 15 -34 27 -39 27 -5 0 -24 15 -42 33 -18
18 -39 45 -46 59 -8 14 -29 31 -48 38 -19 8 -34 17 -34 21 0 5 -10 19 -23 31
-13 13 -34 24 -46 25 -13 1 -24 3 -25 5 0 2 -8 16 -16 32 -8 17 -40 50 -70 75
-30 24 -56 50 -58 58 -2 7 -9 13 -17 13 -7 0 -25 15 -39 33 -15 17 -36 44 -49
59 -12 15 -31 27 -42 27z m36 -320 c4 1 21 -2 39 -5 24 -5 36 -15 46 -40 9
-20 23 -36 37 -38 12 -3 31 -7 41 -8 10 -2 24 -12 30 -23 6 -11 20 -33 31 -50
11 -16 33 -55 48 -85 16 -30 31 -57 33 -59 2 -2 18 -5 35 -7 20 -3 41 -15 56
-33 14 -16 32 -44 42 -61 9 -17 28 -37 41 -45 14 -7 49 -23 78 -36 30 -13 61
-33 71 -45 9 -11 34 -33 56 -48 22 -14 55 -38 74 -52 19 -13 46 -27 60 -30 14
-4 49 -17 78 -30 28 -13 56 -24 62 -24 5 0 32 -11 59 -25 27 -14 55 -31 61
-39 7 -8 27 -18 44 -22 17 -3 41 -13 53 -21 12 -7 29 -10 38 -7 12 5 27 -3 47
-26 27 -29 34 -32 70 -26 31 5 39 3 39 -9 0 -8 14 -30 30 -49 27 -31 38 -35
96 -41 36 -4 72 -14 80 -22 13 -13 17 -13 39 1 15 10 31 13 39 9 7 -4 25 -22
39 -39 17 -20 43 -36 74 -44 27 -7 66 -22 88 -33 22 -11 53 -20 69 -18 16 1
39 -5 52 -14 13 -8 33 -15 45 -15 12 0 37 -11 55 -25 18 -14 41 -25 52 -25 11
0 31 -9 45 -20 14 -11 36 -20 50 -20 14 0 46 -9 70 -19 39 -17 48 -18 64 -6
10 8 24 15 31 15 6 0 12 -10 12 -23 0 -13 -6 -30 -12 -39 -7 -8 -39 -25 -70
-37 -31 -13 -64 -34 -73 -47 -8 -13 -20 -24 -26 -24 -5 0 -40 -25 -77 -55 -37
-30 -86 -71 -110 -92 -24 -21 -52 -46 -63 -55 -10 -10 -19 -22 -19 -27 0 -5
-12 -14 -27 -20 -16 -7 -53 -34 -83 -61 -30 -27 -64 -53 -75 -56 -11 -4 -26
-15 -33 -25 -7 -10 -18 -16 -25 -13 -7 2 -28 -12 -47 -32 -19 -20 -51 -51 -70
-70 -19 -19 -38 -34 -42 -34 -5 0 -8 -4 -8 -10 0 -5 -9 -19 -20 -30 -11 -11
-28 -20 -38 -20 -12 0 -21 -11 -27 -32 -7 -24 -17 -34 -36 -38 -14 -3 -47 -23
-72 -44 -26 -22 -47 -44 -47 -50 0 -7 -10 -20 -22 -31 -13 -11 -26 -20 -29
-20 -3 0 -20 -12 -37 -27 -18 -15 -32 -36 -32 -48 0 -16 -5 -20 -15 -16 -9 3
-21 -4 -30 -17 -8 -12 -34 -44 -58 -70 -27 -28 -53 -47 -66 -47 -15 0 -30 -14
-49 -44 -15 -24 -42 -52 -61 -62 -19 -11 -64 -49 -100 -85 -36 -37 -93 -96
-126 -131 -33 -36 -75 -87 -94 -115 -19 -27 -47 -55 -64 -63 -17 -7 -35 -26
-43 -46 -10 -23 -21 -34 -34 -34 -13 0 -26 -12 -37 -35 -9 -19 -20 -35 -25
-35 -4 0 -19 -18 -33 -40 -14 -22 -36 -42 -50 -46 -14 -3 -38 -22 -55 -40 -16
-19 -30 -40 -30 -47 0 -7 -6 -25 -12 -40 -7 -15 -20 -27 -29 -27 -8 0 -34 -16
-57 -36 -23 -19 -42 -41 -42 -48 0 -7 -9 -21 -20 -31 -11 -10 -20 -26 -20 -35
0 -9 -11 -22 -25 -28 -14 -6 -25 -18 -25 -25 0 -7 -11 -24 -25 -37 -14 -13
-25 -19 -25 -14 0 5 -7 1 -15 -10 -14 -18 -15 -17 -45 10 -17 16 -38 43 -46
59 -8 17 -34 53 -59 80 -25 28 -52 57 -61 65 -8 8 -39 38 -67 66 -29 28 -68
71 -87 96 -19 24 -49 55 -67 69 -18 13 -31 30 -28 36 2 7 -5 22 -17 33 -12 11
-25 20 -29 20 -4 0 -17 19 -29 43 -12 23 -34 53 -49 67 -14 14 -33 34 -41 46
-8 11 -35 34 -60 52 -25 17 -83 68 -130 112 -47 44 -90 80 -97 80 -6 0 -18 8
-25 18 -7 10 -28 27 -45 37 -18 11 -33 23 -33 27 0 4 -19 20 -42 34 -23 15
-51 35 -62 45 -11 11 -24 19 -29 19 -5 0 -27 14 -48 31 -21 17 -39 35 -39 40
0 5 -9 18 -20 29 -11 11 -25 20 -31 20 -6 0 -25 11 -43 25 -18 14 -38 25 -44
25 -7 0 -12 4 -12 8 0 4 -16 14 -35 21 -20 7 -45 25 -57 41 -11 16 -31 31 -43
34 -12 3 -25 15 -28 26 -3 11 -13 23 -24 26 -10 3 -29 10 -43 16 -14 6 -45 20
-69 32 -24 11 -77 53 -117 93 -41 40 -89 77 -107 84 -18 6 -40 24 -49 39 -9
15 -53 50 -99 78 -46 28 -97 63 -114 76 -16 14 -36 26 -43 26 -7 0 -32 20 -55
45 -24 25 -52 45 -63 45 -10 0 -28 14 -39 30 -12 18 -29 30 -42 30 -12 0 -27
9 -33 20 -6 11 -17 20 -24 20 -7 0 -21 8 -30 19 -15 17 -15 19 -1 25 9 3 23 6
32 6 8 0 27 8 41 19 15 10 45 24 67 31 22 7 59 26 82 41 23 16 48 29 57 29 8
0 30 9 48 19 18 11 52 22 75 26 23 3 61 19 85 33 24 15 64 38 90 52 26 13 49
32 51 42 4 13 15 18 40 18 23 0 47 10 72 30 22 18 50 30 66 30 16 0 46 9 66
20 21 11 45 20 55 20 9 0 20 4 23 10 3 5 29 25 58 44 29 19 68 38 86 41 19 3
38 8 43 11 4 3 8 14 8 25 0 13 7 19 21 19 12 0 40 5 63 12 22 6 52 22 67 35
14 13 32 23 41 23 8 0 26 8 39 18 13 11 36 22 51 26 15 3 47 19 70 35 24 16
68 40 98 54 30 14 86 47 125 72 38 25 72 50 75 54 3 5 30 21 60 37 30 16 80
48 110 72 30 24 73 58 94 75 22 18 58 47 80 65 23 19 67 57 99 85 32 29 66 56
75 61 9 4 44 35 77 68 33 32 89 79 125 103 36 24 68 44 71 44z m-139 -3935 c5
-12 20 -26 32 -32 11 -6 29 -13 39 -16 10 -3 17 -11 16 -18 -1 -7 1 -25 5 -41
5 -15 13 -31 20 -35 6 -4 26 -26 44 -48 17 -23 32 -47 32 -52 0 -6 13 -19 30
-28 16 -10 34 -31 39 -46 6 -15 15 -28 21 -28 6 0 15 -11 20 -25 5 -14 14 -25
20 -25 6 0 8 -10 5 -23 -4 -16 1 -31 20 -51 14 -15 36 -49 50 -75 13 -26 40
-69 59 -94 20 -26 36 -54 36 -63 0 -8 5 -25 11 -37 7 -12 18 -26 25 -30 8 -4
14 -15 14 -23 0 -8 11 -32 25 -52 14 -20 25 -44 25 -54 0 -9 4 -19 8 -22 4 -2
30 -49 57 -103 27 -54 52 -100 56 -103 5 -3 22 -39 39 -80 17 -41 56 -126 86
-187 31 -62 59 -113 63 -113 4 0 13 -21 20 -47 8 -27 18 -55 22 -63 4 -8 15
-44 23 -79 9 -36 20 -67 24 -70 5 -3 12 -24 16 -46 4 -22 14 -47 22 -56 8 -9
15 -33 16 -53 1 -20 7 -41 15 -47 7 -6 13 -20 13 -30 0 -10 5 -21 10 -24 6 -3
10 -17 10 -30 0 -13 4 -26 9 -29 4 -3 12 -29 16 -58 4 -29 7 -61 6 -70 -1 -9
5 -30 13 -46 8 -16 13 -32 10 -34 -2 -3 2 -18 11 -34 8 -16 15 -34 15 -39 0
-6 8 -22 17 -35 10 -14 18 -29 19 -35 1 -5 7 -30 14 -55 6 -25 18 -58 25 -75
8 -16 23 -67 35 -113 11 -46 21 -99 22 -120 1 -20 7 -48 15 -62 7 -14 13 -31
13 -38 0 -7 5 -23 12 -35 6 -12 13 -39 15 -61 2 -22 8 -45 14 -52 6 -7 9 -23
8 -36 -2 -13 0 -32 4 -43 3 -11 9 -64 12 -118 3 -54 11 -111 19 -125 7 -15 17
-49 21 -77 4 -27 10 -66 12 -85 3 -19 7 -53 8 -75 2 -22 4 -44 5 -50 2 -5 4
-23 5 -40 1 -16 7 -84 13 -150 6 -66 16 -136 21 -155 5 -19 14 -100 19 -180 6
-80 11 -152 11 -160 0 -8 2 -151 5 -318 2 -168 9 -308 14 -315 5 -7 8 -50 7
-97 -1 -47 3 -91 8 -98 8 -10 7 -20 -2 -34 -8 -12 -12 -60 -13 -131 0 -62 4
-130 10 -152 6 -22 13 -122 15 -222 2 -101 2 -185 -1 -188 -2 -2 -6 -80 -7
-172 -2 -92 -6 -190 -10 -218 -3 -27 -8 -70 -9 -95 -2 -25 -9 -78 -15 -119 -6
-40 -14 -77 -17 -83 -3 -5 -8 -48 -10 -96 -2 -48 -4 -97 -4 -109 0 -13 0 -31
1 -40 0 -10 -4 -43 -9 -73 -5 -30 -19 -75 -30 -100 -12 -25 -22 -59 -22 -76 0
-17 -7 -54 -15 -82 -9 -29 -18 -81 -20 -115 -3 -34 -9 -84 -15 -112 -6 -27
-13 -61 -15 -75 -2 -14 -8 -44 -13 -68 -5 -24 -15 -49 -21 -55 -6 -6 -11 -22
-11 -34 0 -13 -7 -37 -15 -53 -8 -16 -16 -49 -16 -72 -1 -24 -5 -47 -9 -53 -3
-5 -12 -29 -18 -51 -7 -23 -12 -55 -12 -71 0 -17 -7 -36 -16 -44 -10 -8 -14
-26 -13 -50 2 -28 -3 -44 -19 -62 -12 -13 -22 -29 -22 -36 0 -7 -11 -37 -25
-67 -14 -30 -25 -58 -25 -63 0 -4 -9 -16 -20 -26 -11 -10 -20 -28 -20 -40 0
-12 -13 -62 -29 -111 -16 -49 -36 -105 -45 -124 -9 -19 -20 -42 -25 -50 -4 -8
-22 -43 -40 -76 -17 -34 -31 -70 -31 -81 0 -10 -5 -24 -11 -30 -5 -5 -11 -21
-13 -34 -1 -13 -12 -40 -25 -59 -12 -19 -24 -46 -28 -59 -3 -14 -30 -72 -60
-130 -29 -58 -53 -110 -53 -114 0 -5 -8 -21 -19 -35 -10 -15 -22 -42 -26 -59
-3 -18 -10 -33 -13 -33 -4 0 -18 -28 -31 -63 -14 -34 -33 -71 -43 -83 -10 -11
-18 -27 -18 -35 0 -8 -9 -23 -21 -32 -11 -10 -18 -24 -16 -31 3 -7 -6 -21 -19
-31 -13 -10 -24 -24 -24 -32 0 -8 -14 -36 -32 -61 -17 -26 -40 -59 -50 -74
-10 -15 -18 -41 -18 -59 0 -25 -13 -45 -64 -99 -35 -38 -67 -78 -71 -89 -3
-12 -10 -21 -15 -21 -5 0 -11 -13 -15 -28 -4 -19 -15 -32 -36 -39 -19 -7 -28
-16 -24 -23 4 -6 -2 -21 -13 -33 -11 -12 -27 -36 -35 -53 -9 -18 -29 -46 -44
-65 -15 -18 -32 -46 -38 -63 -6 -18 -18 -32 -30 -35 -13 -2 -33 12 -63 45 -24
27 -46 62 -49 77 -3 15 -8 26 -10 23 -3 -2 -18 10 -34 27 -16 17 -32 41 -35
53 -3 13 -15 26 -26 30 -12 3 -17 11 -14 21 4 9 -6 26 -24 43 -17 16 -38 46
-47 67 -10 21 -18 43 -18 48 0 6 -14 25 -31 43 -22 24 -29 40 -27 60 4 22 -1
29 -26 40 -17 8 -40 26 -51 40 -11 15 -41 53 -65 84 -25 31 -45 64 -45 72 0 9
-13 29 -30 44 -16 16 -30 32 -30 37 0 4 -9 18 -20 32 -11 14 -20 37 -20 50 0
16 -4 22 -12 17 -7 -5 -9 -2 -5 9 3 8 0 20 -7 26 -7 6 -16 8 -19 5 -4 -4 -11
5 -17 20 -5 15 -21 39 -35 54 -13 15 -38 43 -55 63 -17 21 -30 48 -30 64 0 14
-12 46 -26 71 -14 24 -30 44 -35 44 -5 0 -9 14 -9 31 0 16 -4 28 -8 25 -4 -2
-18 19 -30 47 -13 29 -27 59 -33 67 -5 8 -23 43 -40 77 -17 35 -35 65 -40 69
-5 3 -9 16 -9 30 0 13 -4 24 -10 24 -5 0 -10 9 -10 19 0 11 -5 23 -10 26 -6 4
-8 16 -5 27 5 14 1 21 -13 25 -11 3 -30 28 -46 61 -14 31 -30 64 -35 72 -5 8
-14 33 -20 55 -7 22 -20 55 -29 73 -9 17 -20 32 -24 32 -3 0 -16 31 -29 69
-12 39 -29 78 -38 88 -10 10 -30 52 -46 93 -15 41 -32 78 -38 81 -5 4 -9 23
-9 43 0 25 -4 36 -15 36 -11 0 -13 7 -8 30 6 25 2 36 -19 57 -14 14 -26 36
-26 48 0 12 -14 52 -30 89 -17 36 -36 92 -44 124 -7 32 -19 68 -25 81 -7 12
-10 30 -6 40 3 10 -1 24 -10 31 -9 7 -15 23 -14 34 2 12 0 30 -4 41 -3 11 -9
34 -13 50 -3 17 -6 44 -5 62 0 17 -5 38 -12 45 -7 7 -23 52 -35 100 -12 48
-22 103 -22 123 0 19 -4 35 -8 35 -4 0 -9 17 -10 37 -2 21 -7 42 -12 47 -6 6
-10 31 -10 56 0 25 -4 50 -9 56 -5 5 -19 68 -31 139 -11 72 -25 150 -30 175
-5 25 -12 79 -16 120 -3 41 -10 84 -15 96 -4 12 -8 44 -7 71 0 27 -5 68 -11
91 -7 23 -11 61 -10 85 1 23 -2 143 -5 266 -4 123 -11 245 -16 270 -5 25 -7
129 -4 231 2 102 6 199 9 215 2 17 7 102 10 190 4 88 8 169 10 180 1 11 6 74
9 140 4 66 11 140 16 165 5 25 12 74 15 110 2 36 9 90 15 120 6 30 13 67 14
83 2 15 5 30 6 35 2 4 3 16 4 27 1 11 9 65 19 120 9 55 25 141 34 190 9 50 17
101 18 115 1 14 6 39 10 55 4 17 13 45 21 63 8 18 17 57 19 88 2 31 8 61 13
67 6 7 12 30 15 52 3 22 12 67 19 100 7 33 19 71 27 84 8 14 11 38 8 57 -3 19
-1 36 4 40 6 3 9 18 8 32 -1 15 4 41 11 57 7 17 14 46 17 65 3 19 9 39 14 44
5 6 9 19 9 30 0 11 5 36 11 55 7 20 19 52 27 71 8 19 23 53 32 75 10 22 27 65
38 95 12 30 23 66 26 80 3 14 7 37 10 51 3 14 19 42 35 63 16 20 33 51 36 69
4 18 15 46 25 62 9 17 23 46 31 65 7 19 32 65 56 102 24 36 43 72 43 78 0 6
14 40 30 75 17 35 41 75 54 87 13 13 34 48 47 78 12 30 32 69 44 85 12 17 39
64 59 105 21 41 47 90 58 110 12 19 32 48 45 63 13 16 35 54 49 85 14 31 39
71 55 89 16 19 37 50 48 71 10 20 28 46 40 56 12 11 27 32 35 48 8 15 17 41
21 57 3 16 13 35 21 42 8 6 14 17 14 23 0 7 16 27 35 46 19 19 35 40 35 47 0
8 13 22 30 31 16 10 32 28 35 43 3 14 19 39 35 54 17 16 30 34 30 39 0 6 10
22 23 36 12 14 49 61 82 105 33 44 65 85 71 90 6 6 28 36 49 68 20 31 49 67
64 78 14 11 27 25 27 30 1 5 2 12 3 17 1 4 7 -3 13 -14z m27 -10730 c14 -8 31
-14 36 -14 6 0 27 -28 48 -61 28 -44 49 -65 82 -81 25 -12 45 -25 45 -28 0 -4
14 -25 32 -48 18 -23 41 -42 51 -42 10 0 38 -19 62 -42 23 -24 52 -62 64 -85
15 -31 30 -44 56 -53 20 -7 41 -20 48 -31 6 -10 17 -19 24 -19 7 0 41 -29 76
-65 35 -36 70 -65 77 -65 7 0 11 -3 8 -6 -3 -3 16 -27 44 -55 27 -27 46 -54
43 -59 -3 -6 0 -11 7 -11 7 -1 20 -1 29 0 9 1 22 -5 29 -14 7 -8 18 -15 25
-15 7 0 15 -7 19 -15 3 -8 13 -15 21 -15 9 0 14 -4 11 -9 -3 -4 12 -24 34 -44
22 -19 40 -41 40 -47 0 -7 30 -41 67 -76 36 -36 77 -67 90 -70 13 -4 23 -10
23 -14 0 -4 27 -27 60 -51 32 -24 64 -54 71 -65 6 -12 29 -27 51 -33 25 -8 42
-20 45 -32 3 -10 8 -19 12 -19 4 0 17 -9 29 -21 13 -11 38 -27 57 -35 19 -8
41 -23 47 -34 7 -11 18 -20 25 -20 6 0 18 -6 25 -12 8 -7 25 -20 40 -28 14 -8
49 -34 78 -57 28 -24 48 -43 43 -43 -4 0 6 -9 22 -20 17 -11 37 -20 45 -20 9
0 40 -23 70 -51 30 -28 65 -56 79 -64 14 -7 31 -14 36 -16 6 -1 21 -13 35 -26
14 -13 30 -23 37 -23 6 0 35 -25 64 -55 28 -30 58 -55 66 -55 8 0 29 -16 47
-35 19 -19 48 -38 65 -41 19 -4 39 -17 49 -33 9 -14 24 -31 32 -38 11 -9 12
-15 4 -23 -6 -6 -48 -13 -93 -15 -45 -2 -86 -7 -91 -10 -6 -4 -47 -15 -91 -26
-44 -10 -117 -24 -162 -29 -45 -6 -91 -12 -102 -13 -11 -1 -35 -10 -53 -20
-19 -10 -40 -16 -47 -13 -8 3 -15 2 -17 -2 -2 -4 -17 -15 -35 -24 -17 -10 -49
-18 -71 -18 -22 0 -64 -7 -93 -16 -30 -8 -78 -23 -108 -32 -30 -9 -64 -27 -76
-40 -12 -13 -45 -29 -73 -37 -29 -7 -52 -12 -52 -10 0 2 -11 -7 -25 -20 -13
-14 -36 -25 -50 -25 -14 0 -25 -4 -25 -10 0 -5 -13 -10 -29 -10 -17 0 -33 -5
-36 -10 -4 -6 -24 -22 -46 -35 -21 -14 -45 -25 -53 -25 -7 0 -19 -7 -26 -15
-7 -8 -20 -15 -29 -15 -9 0 -26 -10 -37 -23 -12 -12 -46 -35 -75 -51 -30 -16
-83 -53 -119 -83 -36 -29 -100 -81 -142 -114 -43 -33 -78 -65 -78 -71 0 -6
-15 -28 -32 -50 -18 -22 -53 -61 -78 -86 -25 -26 -72 -70 -103 -99 -52 -48
-58 -51 -67 -33 -5 10 -10 55 -10 99 0 71 -2 82 -22 95 -12 9 -32 16 -43 16
-11 0 -35 -9 -52 -20 -20 -11 -35 -31 -39 -47 -3 -15 -10 -38 -16 -50 -6 -12
-9 -37 -6 -55 3 -18 3 -39 1 -45 -3 -7 -14 -13 -25 -13 -11 0 -32 12 -46 28
-15 15 -47 40 -71 57 -23 16 -47 39 -52 52 -5 13 -17 23 -28 23 -10 0 -24 7
-31 15 -7 9 -20 13 -28 10 -10 -4 -12 0 -8 10 3 9 2 13 -4 10 -5 -3 -20 3 -32
15 -12 11 -29 18 -39 15 -9 -3 -24 1 -32 9 -8 9 -34 18 -57 22 -23 4 -44 13
-47 21 -3 8 -23 21 -44 30 -22 8 -39 19 -39 24 0 5 -11 9 -24 9 -13 0 -29 7
-36 15 -7 8 -22 15 -34 15 -13 0 -33 11 -45 24 -12 13 -39 32 -59 42 -20 10
-45 25 -55 33 -9 8 -39 15 -65 16 -26 2 -67 6 -91 10 -24 5 -52 16 -62 26 -10
10 -40 20 -76 24 -32 3 -89 18 -127 32 -38 14 -89 28 -115 30 -25 2 -64 9 -86
15 -22 7 -50 18 -62 26 -12 8 -57 18 -100 23 -42 6 -82 14 -88 19 -5 4 -39 11
-75 14 -36 4 -83 9 -105 12 -22 4 -44 7 -50 9 -5 1 -17 4 -25 7 -8 3 -31 10
-51 17 -19 6 -60 11 -90 11 -30 0 -60 5 -65 10 -6 6 -37 17 -70 25 -32 9 -66
18 -74 22 -8 3 -24 5 -36 4 -11 -1 -33 3 -50 10 -16 7 -39 11 -51 10 -11 -1
-24 3 -28 8 -3 6 -1 11 6 11 6 0 36 23 66 51 33 29 62 48 70 45 8 -3 11 -1 8
4 -3 6 -1 10 6 10 6 0 25 13 41 30 15 17 33 30 38 30 5 0 19 14 32 30 15 21
30 30 50 30 15 0 28 5 28 10 0 6 10 14 23 19 12 5 33 18 46 28 13 10 58 49
100 86 42 38 87 79 101 91 14 13 45 37 70 54 25 16 61 44 80 62 19 17 48 34
63 37 16 3 31 12 34 19 3 8 8 14 12 14 3 0 33 24 65 53 32 28 123 115 201 192
78 77 154 150 168 162 15 13 27 30 27 38 0 8 7 15 15 15 9 0 20 11 25 25 5 14
14 25 20 25 6 0 36 24 66 53 31 28 71 66 90 84 18 18 36 43 40 57 3 14 14 28
25 31 10 4 26 16 36 29 10 12 32 32 50 45 17 13 39 39 49 57 10 19 23 34 29
34 5 0 34 25 63 57 28 31 52 59 52 62 0 3 14 20 32 38 18 18 37 33 44 33 7 0
15 9 19 20 3 11 17 28 31 39 13 10 24 24 24 29 0 6 19 30 43 54 23 24 54 59
67 78 14 19 47 60 73 90 27 30 58 66 70 79 12 13 21 25 20 27 -1 2 11 18 28
36 16 18 41 45 55 59 24 25 28 26 53 13z"/>
<g>
<path d="M9040 18860 c-3 0 -24 -13 -46 -30 -22 -16 -46 -40 -52 -54 -6 -14
-9 -34 -5 -43 3 -10 13 -26 22 -36 14 -17 14 -19 -2 -28 -9 -6 -17 -17 -17
-25 0 -8 7 -17 15 -20 8 -4 15 -14 15 -23 0 -9 7 -27 16 -39 8 -12 12 -22 8
-22 -3 0 8 -15 25 -32 27 -27 34 -30 41 -18 5 9 20 28 34 43 14 15 28 40 31
55 4 15 10 43 15 62 5 19 11 44 14 55 5 16 -3 26 -39 47 -36 22 -45 33 -45 56
0 15 -5 33 -12 40 -7 7 -15 12 -18 12z"/>
</g>
<g>
<path d="M9038 18120 c-32 -1 -51 -8 -74 -28 l-31 -27 5 -130 c3 -101 8 -135
21 -150 9 -11 35 -33 59 -48 29 -19 53 -27 74 -25 26 3 32 8 35 33 3 17 4 83
4 149 0 98 -3 122 -18 138 -9 10 -18 29 -20 41 -2 12 -5 28 -8 35 -3 7 -22 12
-47 12z"/>
</g>
<g>
<path d="M9027 17400 c-9 0 -30 -12 -45 -27 -15 -16 -34 -40 -41 -56 -9 -16
-15 -60 -15 -108 -1 -67 2 -82 17 -90 9 -6 17 -20 17 -33 0 -13 12 -35 26 -50
15 -14 24 -26 21 -26 -3 0 1 -19 8 -42 10 -35 17 -43 36 -43 19 0 24 7 31 40
4 22 13 50 20 62 8 17 8 26 -2 38 -9 11 -10 22 -2 42 6 16 14 64 17 109 l7 81
-39 51 c-21 29 -46 52 -56 52z"/>
</g>
<g>
<path d="M8949 16650 c-12 0 -39 -18 -62 -40 -38 -39 -40 -42 -34 -91 4 -29
19 -73 37 -104 26 -46 29 -58 20 -76 -10 -18 -8 -26 9 -50 12 -15 21 -34 21
-42 0 -7 16 -21 36 -31 25 -12 40 -14 47 -7 7 7 15 7 25 -1 11 -10 17 -8 28 7
8 10 14 28 14 40 0 12 -5 26 -12 33 -7 7 -14 59 -18 131 -5 115 -6 120 -34
146 -19 17 -26 32 -23 46 3 12 -1 23 -13 29 -10 6 -29 10 -41 10z"/>
</g>
<g>
<path d="M8929 15970 c-9 0 -28 -14 -44 -30 -26 -27 -29 -37 -30 -103 -1 -39
3 -77 7 -84 5 -6 3 -43 -5 -87 l-14 -75 27 -9 c15 -6 38 -8 51 -5 17 3 30 17
42 44 9 21 17 45 17 53 0 8 3 21 6 30 3 9 13 16 21 16 11 0 13 7 9 28 -4 18 0
37 14 57 11 17 20 35 20 40 0 6 -24 36 -53 68 -30 31 -60 57 -68 57z"/>
</g>
<g>
<path d="M9495 12455 c-11 2 -36 -2 -55 -7 -19 -5 -50 -21 -67 -34 -18 -14
-33 -33 -33 -44 0 -10 -9 -21 -20 -25 -10 -3 -26 -20 -35 -37 -8 -17 -15 -39
-15 -48 0 -10 -7 -21 -15 -24 -13 -4 -15 -22 -14 -91 2 -47 6 -88 11 -91 4 -3
8 -14 8 -25 0 -11 16 -36 37 -55 20 -19 38 -32 41 -30 2 3 27 -4 56 -14 29
-12 76 -20 108 -20 31 0 60 5 63 10 3 6 16 10 28 10 12 0 41 9 64 19 28 13 49
33 68 65 21 36 27 59 28 118 2 58 -3 83 -20 120 -13 26 -23 51 -23 56 0 5 -16
28 -37 51 -20 23 -55 50 -77 60 -23 10 -50 21 -61 25 -11 4 -29 9 -40 11z"/>
</g>
<g>
<path d="M8040 12369 c-25 -1 -56 -4 -70 -9 -14 -4 -34 -6 -45 -4 -14 3 -39
-13 -78 -50 -42 -39 -61 -65 -68 -93 -5 -21 -6 -68 -3 -106 7 -66 7 -68 57
-107 33 -27 60 -40 80 -40 17 0 40 -9 53 -21 17 -16 26 -18 40 -11 11 6 46 16
79 23 38 9 71 24 92 42 18 16 42 49 53 74 11 26 20 67 20 95 0 33 -9 70 -27
109 -16 34 -34 59 -43 59 -8 1 -33 9 -55 20 -22 11 -60 19 -85 19z"/>
</g>
<g>
<path d="M8846 12010 c-27 0 -47 -6 -57 -17 -9 -10 -28 -28 -43 -41 -23 -20
-26 -28 -20 -50 5 -15 9 -61 9 -102 1 -41 4 -91 9 -110 4 -19 9 -51 10 -70 2
-19 8 -53 14 -75 6 -22 16 -83 22 -135 6 -52 15 -99 20 -105 4 -5 11 -41 14
-80 3 -38 7 -83 10 -100 3 -16 11 -62 18 -101 7 -39 19 -78 26 -86 7 -9 15
-31 17 -49 2 -19 7 -61 10 -94 4 -33 12 -76 20 -95 7 -19 18 -73 25 -120 6
-47 13 -101 15 -120 2 -19 7 -48 11 -65 4 -16 16 -41 26 -55 12 -15 18 -37 17
-60 -2 -19 3 -45 9 -57 7 -12 12 -37 12 -55 0 -18 7 -42 15 -52 8 -11 15 -34
15 -51 0 -18 -8 -39 -17 -47 -10 -9 -34 -20 -53 -26 -19 -6 -49 -11 -66 -10
-18 0 -48 -11 -75 -28 -24 -16 -51 -36 -60 -44 -9 -8 -22 -26 -29 -39 -10 -19
-9 -33 4 -75 12 -37 24 -54 43 -63 15 -7 52 -13 83 -13 39 0 68 7 100 24 25
13 78 30 118 37 39 7 72 17 72 22 0 4 5 5 11 2 6 -4 30 14 54 39 23 26 45 55
48 66 3 10 3 45 2 77 -2 32 -8 81 -14 108 -5 28 -15 70 -21 95 -6 25 -11 62
-10 82 0 24 -6 44 -19 57 -11 11 -17 21 -15 24 2 2 -5 33 -16 68 -12 35 -25
73 -30 84 -5 11 -12 40 -15 65 -4 25 -14 56 -22 69 -8 13 -17 46 -20 75 -2 31
-17 77 -38 118 -19 37 -32 74 -29 83 4 8 -2 27 -12 43 -10 15 -19 42 -19 60
-1 17 2 32 6 32 4 0 6 11 5 25 0 14 -4 25 -7 25 -3 0 -11 11 -17 25 -6 13 -8
26 -4 29 4 2 7 15 6 28 -1 13 -4 30 -7 38 -3 8 -10 42 -17 75 -7 33 -16 68
-21 77 -6 11 -4 21 6 32 8 8 16 25 17 38 2 14 -2 22 -10 20 -8 -1 -11 5 -6 22
3 13 1 26 -4 30 -5 3 -6 25 -2 53 5 26 8 85 9 130 1 45 4 88 7 96 3 8 1 18 -5
22 -6 3 -11 23 -11 43 0 20 -11 60 -24 88 -13 28 -31 54 -41 57 -9 4 -36 7
-59 7z"/>
</g>
<g>
<path d="M9422 9172 c-10 3 -29 -2 -43 -12 -13 -9 -43 -22 -67 -29 -24 -7
-113 -14 -198 -16 -85 -3 -159 -7 -164 -10 -5 -3 -150 -7 -322 -10 -246 -3
-320 -7 -348 -18 -19 -9 -48 -27 -63 -41 -15 -14 -27 -35 -27 -48 1 -13 7 -34
15 -48 8 -14 14 -37 15 -51 0 -14 9 -34 20 -44 18 -16 27 -17 112 -6 64 8 109
9 144 2 29 -6 92 -7 140 -4 49 3 100 5 114 4 14 -1 94 -2 177 -2 88 -1 158 3
165 8 7 6 27 9 43 8 17 -2 51 4 77 13 44 14 49 14 66 -1 10 -9 35 -16 57 -17
22 0 54 1 70 3 17 1 36 6 43 10 7 5 21 26 33 48 11 22 18 43 15 47 -2 4 -7 32
-11 62 -4 30 -16 67 -26 81 -10 15 -19 36 -19 47 0 11 -8 22 -18 24z"/>
</g>
<g>
<path d="M9180 6545 c-14 0 -33 -1 -42 -3 -10 -2 -18 -7 -18 -10 0 -4 25 -8
55 -8 30 -1 55 3 55 7 0 5 -6 10 -12 11 -7 0 -24 2 -38 3z"/>
</g>
<g>
<path d="M9081 6520 c-3 0 -19 -12 -35 -26 -15 -14 -26 -27 -23 -30 3 -3 22 5
41 18 20 14 33 28 29 31 -3 4 -9 7 -12 7z"/>
</g>
<g>
<path d="M8924 4107 c-23 -1 -47 -10 -62 -22 -20 -18 -25 -32 -28 -84 -2 -34
-6 -65 -8 -70 -3 -4 -1 -23 5 -42 5 -19 11 -70 13 -114 1 -44 -2 -90 -7 -102
-7 -15 -6 -27 2 -37 6 -7 36 -17 66 -21 30 -3 64 -4 74 0 12 4 18 12 14 21 -3
7 -1 14 5 14 5 0 14 21 20 48 5 26 10 98 11 160 1 84 -3 120 -14 142 -9 17
-23 30 -31 30 -10 0 -14 6 -11 14 3 8 0 20 -8 26 -8 6 -12 17 -9 25 4 9 -5 13
-32 12z"/>
</g>
<g>
<path d="M9027 3318 c-22 3 -36 -5 -63 -33 -19 -20 -46 -56 -60 -81 -22 -37
-26 -57 -28 -128 -1 -71 2 -89 20 -113 11 -15 33 -34 47 -41 20 -10 36 -10 72
-1 29 7 52 21 62 35 12 20 13 27 3 39 -7 9 -10 18 -7 22 4 3 1 15 -5 26 -6 11
-11 77 -12 146 l-2 126 -27 3z"/>
</g>
<g>
<path d="M9029 2580 c-16 0 -29 -4 -29 -10 0 -5 -14 -17 -31 -25 -19 -10 -38
-33 -50 -60 -10 -24 -16 -51 -13 -62 3 -10 10 -28 16 -40 6 -12 7 -34 4 -50
-4 -15 -10 -41 -12 -58 -5 -24 1 -36 25 -59 17 -17 31 -36 31 -43 0 -7 5 -13
11 -13 7 0 31 10 56 22 36 18 45 29 54 62 7 24 9 77 6 125 -3 47 -1 96 4 109
8 20 6 29 -10 43 -11 10 -22 27 -26 39 -4 14 -15 20 -36 20z"/>
</g>
<g>
<path d="M9023 1840 c-24 0 -48 -6 -57 -16 -9 -8 -16 -21 -16 -28 0 -8 -6 -19
-14 -25 -7 -6 -17 -44 -22 -84 -4 -39 -6 -88 -5 -107 2 -23 14 -46 35 -67 17
-18 40 -33 52 -33 11 0 39 17 61 38 22 20 43 47 47 60 4 12 11 22 15 22 5 0 4
21 -1 48 -6 26 -11 63 -12 83 0 19 -10 52 -21 72 -18 34 -23 37 -62 37z"/>
</g>
</g>
<g>
<path d="M14812 15894 c-5 3 -15 -1 -22 -9 -6 -8 -28 -19 -48 -26 -20 -7 -52
-22 -69 -33 -18 -12 -33 -27 -33 -35 0 -7 -8 -35 -17 -62 -10 -27 -25 -52 -35
-55 -9 -3 -20 -13 -23 -22 -3 -9 -20 -24 -38 -32 -18 -9 -39 -29 -48 -48 -8
-19 -22 -37 -29 -42 -10 -6 -14 -24 -12 -56 1 -25 7 -53 13 -60 6 -8 18 -14
25 -14 7 0 21 -11 29 -24 9 -13 16 -39 17 -59 1 -26 -7 -45 -36 -80 -20 -24
-56 -55 -79 -67 l-43 -23 -41 26 c-23 14 -52 29 -66 32 -15 4 -38 -1 -63 -15
-21 -12 -45 -27 -51 -32 -7 -6 -13 -19 -13 -30 0 -11 -9 -32 -20 -48 -11 -15
-30 -30 -43 -34 -13 -3 -33 -22 -44 -43 -12 -21 -25 -62 -29 -91 -4 -35 -3
-57 5 -66 7 -8 14 -32 17 -53 2 -22 13 -45 25 -55 12 -10 27 -18 34 -18 6 0
17 -11 23 -25 7 -16 19 -25 29 -23 10 2 18 -3 18 -12 0 -8 14 -32 30 -52 17
-21 37 -38 45 -38 8 0 34 7 57 16 33 13 43 22 43 40 0 12 5 35 10 49 6 17 16
25 27 23 11 -2 21 -21 29 -52 7 -26 22 -59 34 -71 l22 -24 -83 -41 c-61 -30
-102 -59 -151 -108 -37 -37 -95 -96 -129 -132 -34 -36 -67 -72 -74 -80 -7 -8
-19 -35 -26 -60 -7 -25 -21 -54 -31 -66 -10 -11 -18 -25 -18 -31 0 -6 -16 -21
-36 -33 -22 -14 -39 -19 -45 -13 -5 5 -1 24 11 48 17 33 18 41 6 54 -7 9 -17
38 -21 64 -3 27 -16 59 -28 73 -17 19 -30 24 -71 24 -47 0 -53 3 -75 35 -13
19 -28 35 -32 35 -5 0 -2 16 6 36 8 20 15 52 15 70 0 26 -9 43 -35 68 -19 19
-48 36 -67 39 -22 3 -43 -2 -65 -15 -18 -11 -33 -25 -33 -32 0 -7 -8 -23 -19
-34 -10 -12 -28 -22 -40 -22 -14 0 -21 -6 -21 -19 0 -12 11 -23 29 -29 16 -6
35 -23 43 -40 l15 -29 -56 -29 c-31 -15 -64 -28 -73 -29 -10 0 -28 -10 -40
-22 -13 -13 -39 -37 -59 -55 -20 -18 -39 -43 -42 -56 -3 -13 1 -40 10 -60 8
-20 45 -64 81 -98 l65 -60 -26 -20 c-14 -10 -38 -28 -53 -39 -16 -11 -45 -38
-66 -60 -31 -33 -40 -38 -55 -29 -10 6 -21 24 -24 40 -4 16 -13 47 -20 69 -13
38 -16 40 -60 43 -32 2 -50 -2 -59 -13 -7 -8 -18 -15 -25 -15 -7 0 -15 -7 -19
-15 -3 -8 -14 -15 -24 -15 -12 0 -21 -12 -28 -39 -7 -24 -7 -46 -2 -55 5 -9 7
-25 3 -35 -3 -10 -20 -26 -39 -36 -18 -10 -41 -31 -52 -47 -10 -16 -30 -31
-44 -35 -14 -3 -44 -26 -67 -51 -24 -25 -45 -59 -49 -76 -3 -17 -1 -44 5 -59
7 -18 24 -34 48 -44 21 -8 63 -37 93 -64 30 -27 65 -58 78 -69 12 -11 26 -20
30 -20 4 0 7 -30 7 -67 0 -67 1 -68 32 -84 18 -9 40 -22 49 -30 9 -7 31 -14
49 -16 27 -1 40 6 74 43 22 24 41 51 41 59 0 8 -5 25 -11 39 -9 20 -9 29 1 41
12 14 18 11 59 -27 25 -24 57 -49 71 -57 14 -8 41 -18 60 -23 19 -5 49 -13 65
-17 l30 -7 -24 -13 c-18 -10 -25 -10 -31 -1 -5 9 -17 9 -51 -1 -25 -7 -54 -25
-67 -41 -13 -15 -29 -28 -36 -28 -7 0 -22 -10 -34 -23 -21 -22 -21 -24 -4 -43
10 -10 16 -27 14 -37 -2 -10 2 -24 8 -32 7 -8 22 -15 34 -15 12 0 27 -5 33
-11 6 -6 22 -16 34 -23 13 -6 36 -30 52 -54 16 -23 35 -42 44 -42 8 0 25 -8
38 -19 19 -14 35 -17 72 -14 45 5 50 3 61 -21 7 -15 12 -35 12 -46 0 -10 3
-25 6 -34 3 -8 12 -12 20 -9 8 3 29 -2 47 -10 17 -8 41 -18 53 -21 17 -5 29 3
56 36 19 24 40 53 46 65 7 12 12 37 12 56 0 23 8 43 25 61 15 16 24 35 21 44
-3 11 5 24 20 35 16 12 34 17 49 13 19 -5 29 0 47 24 15 20 25 27 32 20 5 -5
18 -10 28 -10 10 0 18 -4 18 -8 0 -4 17 -19 38 -32 20 -13 50 -43 65 -67 16
-24 35 -43 42 -43 7 0 26 -15 42 -34 20 -24 39 -35 68 -39 22 -4 46 -15 55
-26 10 -14 26 -20 50 -19 19 0 50 -2 69 -5 19 -3 39 -11 44 -16 6 -6 17 -11
23 -11 7 0 29 -9 48 -21 30 -18 34 -24 26 -40 -6 -10 -17 -19 -24 -19 -8 0
-27 -14 -43 -30 -29 -30 -30 -30 -65 -16 -20 9 -51 34 -69 56 -29 35 -42 42
-89 49 -30 5 -58 7 -62 4 -5 -2 -8 -15 -8 -28 0 -14 -9 -43 -21 -65 -17 -33
-20 -50 -15 -97 l7 -58 -46 -30 c-26 -16 -51 -38 -56 -47 -5 -10 -15 -18 -22
-18 -7 0 -27 -13 -45 -30 -18 -16 -42 -30 -53 -30 -12 0 -19 -7 -19 -20 0 -11
-7 -37 -15 -57 -14 -33 -14 -38 8 -77 14 -26 33 -44 52 -51 17 -5 33 -15 37
-21 5 -7 33 -20 63 -29 30 -10 62 -26 71 -36 9 -11 25 -19 34 -19 9 0 20 -4
26 -9 5 -5 24 -11 43 -13 29 -3 38 -10 58 -47 13 -25 31 -52 41 -61 9 -9 26
-20 37 -25 11 -4 27 -7 35 -6 8 2 25 15 37 29 12 15 22 33 23 40 0 7 10 26 21
42 14 19 20 36 16 51 -4 14 2 35 14 56 11 18 22 33 25 33 2 0 18 -9 36 -20 18
-11 43 -20 54 -20 12 0 24 -7 27 -15 4 -8 21 -21 39 -28 18 -8 40 -22 48 -32
13 -15 12 -19 -9 -36 -18 -14 -32 -17 -62 -13 -21 4 -50 4 -64 0 -14 -4 -25
-13 -25 -20 0 -8 -6 -16 -13 -19 -7 -3 -19 -24 -26 -47 -12 -42 -12 -43 20
-76 18 -19 38 -34 45 -34 7 0 24 -13 37 -30 14 -16 30 -30 35 -30 4 0 18 -11
29 -24 12 -13 23 -32 25 -42 2 -11 23 -24 58 -36 30 -11 60 -25 65 -32 6 -7
21 -17 35 -21 14 -4 32 -14 41 -22 9 -8 15 -22 12 -31 -2 -10 6 -29 19 -43 17
-18 39 -28 75 -33 41 -5 58 -2 91 15 23 12 43 28 46 36 3 8 -1 33 -10 56 -9
23 -18 55 -21 70 -4 19 3 47 17 78 13 27 28 50 34 50 6 1 18 1 27 0 9 -1 24
10 34 25 13 20 16 38 11 74 -5 39 -3 50 14 65 11 10 17 22 14 26 -3 5 -16 9
-30 9 -14 0 -38 7 -54 15 -17 9 -30 22 -30 30 0 8 -13 24 -30 37 -16 12 -30
29 -30 39 0 10 11 19 25 23 14 4 41 23 59 42 24 25 36 50 41 80 3 24 10 44 16
44 5 0 9 6 9 14 0 7 9 16 19 19 12 3 27 -3 35 -12 9 -10 16 -30 16 -45 0 -16
12 -48 28 -72 21 -34 33 -43 55 -44 15 0 27 4 27 10 0 5 11 12 24 16 13 3 34
16 46 30 20 20 22 31 18 82 -5 47 -2 63 13 83 10 13 19 34 19 46 0 19 4 21 33
17 20 -3 45 2 67 13 27 14 37 28 47 62 12 40 11 45 -10 62 -12 11 -35 25 -52
33 -16 8 -47 17 -67 21 -21 3 -44 13 -53 21 -8 9 -15 29 -15 45 0 18 -14 48
-39 81 -22 28 -39 54 -39 57 1 3 -7 21 -18 38 -10 18 -25 33 -31 33 -8 0 -13
-14 -13 -37 0 -21 -6 -49 -13 -63 -7 -14 -29 -34 -48 -45 -20 -11 -48 -29 -63
-39 l-28 -19 -64 66 c-35 36 -73 69 -84 72 -11 4 -20 10 -20 14 0 4 19 14 43
21 23 8 49 19 57 26 8 6 40 23 71 38 31 14 68 26 82 26 14 0 59 23 103 53 42
28 84 57 93 62 9 6 28 20 44 32 15 12 52 51 82 86 30 36 55 69 55 75 0 5 14
38 31 72 16 34 43 103 60 153 22 69 29 111 29 170 0 48 4 77 11 77 6 0 19 -5
31 -11 11 -6 26 -26 34 -44 9 -23 27 -40 57 -54 24 -12 52 -21 63 -21 12 0 23
-2 26 -6 3 -3 -3 -22 -13 -44 -17 -35 -17 -42 -4 -85 13 -44 12 -49 -5 -67
-11 -12 -17 -31 -15 -47 2 -14 6 -33 10 -42 3 -9 24 -31 45 -48 39 -31 40 -31
70 -16 17 9 43 15 58 13 15 -2 41 -13 57 -24 20 -15 34 -37 44 -70 7 -27 20
-54 29 -61 12 -10 21 -9 43 4 16 10 29 21 29 25 0 4 6 8 13 8 6 0 31 12 54 28
40 27 41 28 38 77 l-4 50 45 22 c37 19 48 21 70 11 23 -11 28 -9 44 12 13 17
19 41 18 75 0 32 -9 66 -25 98 -23 46 -26 49 -55 43 -17 -3 -37 -1 -44 5 -8 6
-21 9 -29 5 -8 -3 -15 -16 -15 -30 0 -14 -4 -27 -8 -30 -4 -2 -13 -2 -18 2 -6
4 -11 22 -11 41 0 25 -6 39 -21 49 -12 8 -22 24 -22 37 0 13 26 49 69 94 39
40 72 83 75 99 3 15 10 56 17 92 6 36 16 68 22 72 7 4 20 8 30 8 10 0 38 -20
64 -44 30 -29 61 -48 90 -55 35 -9 49 -9 74 4 17 9 37 31 45 50 8 19 14 48 14
65 0 16 -4 30 -9 30 -5 0 -11 10 -14 22 -3 11 0 36 8 54 9 21 27 40 48 50 19
9 40 27 45 39 6 13 9 42 8 65 -2 23 -12 54 -23 68 -10 15 -41 38 -68 50 -27
13 -56 34 -66 45 -10 12 -16 28 -13 36 2 8 -2 24 -10 36 -8 12 -12 32 -9 43 3
14 -2 24 -15 31 -11 6 -22 8 -25 5 -3 -3 -14 0 -25 7 -16 10 -25 10 -44 1 -13
-7 -34 -19 -48 -27 -13 -8 -32 -24 -42 -37 -10 -13 -18 -33 -18 -45 0 -14 -6
-23 -15 -23 -9 0 -19 -8 -22 -17 -4 -10 -10 -20 -13 -23 -4 -3 -12 -14 -18
-25 -10 -17 -11 -17 -12 -3 0 11 -5 15 -15 12 -9 -4 -15 -1 -15 8 0 7 -30 35
-66 61 -46 33 -82 51 -117 58 -29 5 -60 12 -69 15 -10 3 -18 11 -18 18 0 7 10
22 23 34 13 12 30 22 39 22 8 0 29 5 46 11 24 8 33 20 46 60 15 46 15 53 1 97
-9 26 -23 55 -32 64 -8 9 -36 24 -62 33 -25 8 -67 35 -93 59 -27 24 -48 50
-48 59 0 9 -11 42 -25 73 l-25 56 -47 -7 c-27 -4 -56 -14 -67 -23 -10 -9 -25
-30 -34 -47 -9 -17 -14 -50 -13 -77 1 -25 -3 -49 -9 -53 -5 -3 -10 -15 -10
-26 0 -12 -14 -28 -35 -40 -19 -12 -35 -27 -35 -33 0 -7 -9 -21 -20 -31 -11
-10 -20 -26 -20 -37 0 -10 -9 -26 -20 -35 -15 -13 -20 -30 -20 -69 0 -44 4
-54 24 -68 14 -8 32 -29 42 -45 10 -16 27 -32 40 -35 12 -3 24 -15 27 -26 3
-11 1 -20 -4 -20 -5 0 -9 -8 -9 -17 0 -10 -14 -34 -30 -53 -17 -19 -37 -51
-46 -70 -9 -19 -26 -43 -38 -52 -11 -10 -24 -18 -28 -18 -5 0 -8 9 -8 20 0 11
-6 20 -13 20 -8 0 -18 10 -24 23 -6 12 -17 38 -26 57 -8 19 -46 73 -83 119
-38 47 -85 101 -105 120 -19 20 -50 47 -68 61 -18 14 -44 36 -58 48 -14 13
-44 32 -67 42 -23 9 -59 29 -80 44 -21 14 -49 26 -62 26 -22 0 -22 1 -8 28 7
15 14 46 14 68 0 25 7 50 18 62 9 12 34 24 55 28 36 6 37 6 37 -25 0 -31 1
-31 50 -31 37 0 55 -5 70 -20 11 -11 24 -20 28 -20 4 0 25 17 45 38 24 24 37
47 37 64 0 15 -4 29 -9 32 -5 4 -12 24 -16 46 -4 24 -2 53 6 75 12 32 16 35
41 30 15 -4 33 -3 40 1 7 5 19 9 26 10 8 2 16 5 19 8 3 3 6 36 8 75 2 60 0 72
-19 89 -11 11 -38 25 -58 33 -29 10 -43 10 -63 1 -14 -7 -32 -12 -40 -12 -8 0
-29 15 -47 34 -18 19 -39 43 -46 53 -7 10 -21 33 -32 51 -11 17 -25 32 -31 32
-6 0 -19 -8 -28 -17 -9 -10 -25 -23 -36 -29 -11 -6 -26 -22 -33 -35 -8 -16
-10 -43 -6 -80 4 -43 2 -58 -10 -68 -12 -10 -16 -10 -16 -1 0 6 -10 25 -22 42
-13 16 -48 54 -78 85 -30 30 -74 66 -98 79 -23 13 -53 24 -66 24 -13 0 -27 7
-30 16 -4 9 1 27 9 40 11 18 25 24 50 24 31 0 35 3 44 38 6 20 11 41 11 45 0
5 -7 25 -16 45 -8 21 -21 48 -28 62 -10 21 -19 25 -54 26 -25 0 -49 7 -62 19
-11 10 -18 20 -15 23 2 3 -4 17 -15 32 -11 15 -17 29 -15 32 3 3 -1 17 -9 33
-8 16 -12 41 -9 60 3 18 1 35 -5 39z m48 -744 c20 0 51 -7 68 -16 17 -8 40
-27 50 -42 11 -15 22 -40 26 -57 4 -16 16 -35 27 -43 12 -9 19 -25 19 -48 0
-19 5 -43 12 -54 9 -14 9 -25 1 -42 -6 -13 -16 -43 -22 -68 -7 -25 -16 -56
-22 -70 -5 -14 -22 -31 -37 -38 -17 -7 -82 -12 -167 -13 -77 -1 -154 2 -172 5
-18 3 -44 18 -58 32 -14 13 -25 29 -25 34 0 5 -8 11 -19 15 -10 3 -26 14 -36
25 -10 12 -18 38 -19 67 -1 26 4 59 11 73 7 14 37 54 66 90 29 35 74 78 101
95 37 22 60 29 92 28 27 -1 47 4 55 13 6 8 28 14 49 14z m172 -754 c42 -1 83
-7 90 -13 7 -5 23 -10 35 -11 13 0 47 -17 76 -36 30 -20 58 -36 64 -36 5 0 34
-27 64 -61 30 -33 75 -76 102 -95 26 -20 47 -43 47 -52 0 -8 7 -24 17 -34 9
-10 24 -18 35 -18 11 0 18 -7 18 -19 0 -11 5 -23 10 -26 6 -3 10 -19 10 -34 0
-16 10 -37 25 -51 18 -17 25 -34 25 -62 0 -22 9 -58 20 -82 10 -24 24 -81 30
-128 5 -47 8 -121 5 -164 -5 -62 -11 -84 -28 -102 -12 -13 -21 -33 -19 -46 2
-12 -8 -52 -21 -89 -13 -36 -39 -89 -57 -117 -18 -28 -46 -58 -61 -66 -17 -8
-29 -23 -29 -34 0 -10 -12 -28 -26 -39 -15 -12 -32 -21 -39 -21 -7 0 -30 -13
-51 -28 -21 -15 -52 -29 -69 -30 -16 -1 -65 -20 -107 -42 -43 -22 -89 -40
-101 -40 -13 0 -27 -4 -33 -8 -5 -4 -34 -16 -64 -26 -30 -11 -59 -23 -65 -27
-5 -5 -27 -9 -50 -9 -22 0 -49 6 -60 14 -11 7 -42 16 -68 19 -30 4 -55 2 -67
-5 -15 -10 -30 -9 -72 4 -29 10 -64 19 -78 22 -14 2 -41 10 -60 17 -19 8 -37
16 -40 19 -3 3 -12 10 -21 15 -9 6 -35 24 -57 41 -23 17 -60 55 -82 83 -23 29
-48 55 -56 58 -8 3 -14 9 -14 14 0 5 -12 23 -27 40 -16 17 -27 36 -25 41 2 6
-5 19 -14 29 -9 10 -20 35 -24 56 -5 21 -11 48 -14 61 -2 12 -8 27 -12 34 -4
7 -9 23 -11 37 -2 15 -5 85 -7 156 -2 72 -4 153 -5 180 0 28 4 77 10 109 6 33
21 75 35 95 13 20 24 42 25 51 0 8 16 35 35 60 18 25 46 63 61 85 15 22 42 59
61 82 18 22 48 49 67 58 19 9 35 20 35 25 0 4 15 18 34 30 19 11 79 36 132 55
81 29 107 34 149 29 27 -3 77 -1 110 6 33 7 76 16 95 20 19 5 70 8 112 6z
m1271 -279 c5 -1 18 -18 28 -37 10 -18 31 -39 46 -46 15 -6 44 -28 63 -48 29
-31 34 -43 33 -79 0 -23 -2 -79 -3 -124 -2 -56 -8 -91 -20 -110 -9 -15 -35
-41 -58 -56 -22 -16 -53 -29 -69 -30 -15 -1 -58 0 -95 1 -57 2 -68 5 -73 22
-3 11 -12 20 -20 20 -7 0 -15 -5 -17 -11 -2 -6 -25 9 -51 35 -26 27 -51 62
-56 83 -6 19 -17 43 -26 53 -15 16 -15 26 -5 75 6 31 22 71 34 89 12 18 35 49
52 68 16 19 50 44 76 56 27 12 68 22 92 22 25 0 48 5 51 11 4 5 12 8 18 6z
m502 -67 c8 0 19 -9 25 -19 5 -11 10 -29 10 -41 0 -20 -4 -22 -37 -15 -21 4
-41 9 -45 11 -5 3 -8 9 -8 15 0 5 9 18 20 29 11 11 27 20 35 20z m-3134 -265
c40 -2 68 -10 97 -29 26 -16 44 -36 48 -54 4 -15 14 -37 22 -50 13 -20 14 -35
3 -103 -7 -43 -10 -83 -7 -88 3 -5 -6 -30 -20 -55 -17 -30 -39 -53 -64 -66
-21 -11 -73 -29 -116 -40 -63 -17 -83 -19 -106 -9 -15 6 -35 8 -44 5 -9 -4
-23 -1 -31 5 -7 7 -32 14 -55 16 -28 3 -50 13 -65 29 -14 15 -23 37 -23 57 0
18 6 58 14 90 7 32 20 65 29 75 8 9 18 28 22 42 4 14 19 41 33 60 14 19 33 41
41 48 8 6 30 12 48 12 23 0 37 7 49 24 8 14 28 27 42 29 15 3 52 3 83 2z
m-649 -236 c9 1 23 -2 32 -5 9 -4 16 -18 16 -33 0 -15 -7 -36 -15 -47 -8 -10
-15 -29 -15 -40 0 -12 -7 -25 -16 -28 -9 -3 -26 -6 -38 -6 -13 0 -31 9 -42 21
-12 13 -17 32 -15 52 1 18 10 40 19 51 10 10 26 22 37 27 11 4 28 8 37 8z
m3363 -319 c9 0 18 -7 21 -15 3 -8 3 -19 0 -24 -4 -6 -13 -8 -21 -4 -8 3 -15
14 -15 24 0 10 7 19 15 19z m-2482 -68 c5 -2 13 -15 18 -30 7 -17 6 -29 -1
-36 -6 -6 -28 -16 -50 -22 -22 -7 -37 -8 -34 -3 3 5 0 9 -5 9 -6 0 -11 11 -11
25 0 19 9 29 38 43 20 10 41 17 45 14z m-276 -243 c12 1 24 -3 28 -8 3 -5 0
-13 -7 -17 -7 -5 -34 -11 -60 -14 -27 -4 -48 -4 -48 -1 0 3 15 14 33 23 17 9
42 17 54 17z m1309 -489 c20 0 57 -10 83 -23 25 -13 51 -22 58 -20 7 3 20 0
29 -5 9 -5 26 -31 36 -58 11 -27 26 -76 34 -109 13 -54 13 -61 -1 -71 -9 -7
-20 -25 -24 -40 -5 -21 -21 -35 -57 -53 -27 -13 -57 -28 -66 -32 -10 -5 -38
-9 -63 -9 -30 0 -67 11 -112 33 -38 18 -81 41 -98 52 -16 11 -41 31 -55 43
-14 13 -24 32 -22 42 2 10 -2 21 -8 25 -5 3 -10 10 -10 15 0 5 10 18 22 30 13
12 35 20 55 20 18 0 33 4 33 9 0 4 22 32 49 62 27 30 57 62 65 72 10 10 30 17
52 17z m-436 -20 c6 0 10 -11 10 -25 0 -14 -4 -25 -10 -25 -5 0 -10 11 -10 25
0 14 5 25 10 25z m-102 -260 c8 0 24 -7 34 -17 10 -9 18 -28 18 -43 0 -15 -6
-33 -14 -39 -8 -7 -30 -11 -48 -9 -32 3 -33 5 -31 42 2 21 8 45 14 52 6 8 18
14 27 14z m647 -420 c15 0 31 -10 40 -24 9 -13 17 -41 19 -62 2 -29 -2 -43
-18 -57 -12 -10 -31 -22 -43 -27 -14 -6 -30 -5 -47 3 -14 7 -26 15 -26 19 0 4
11 15 25 24 23 15 25 21 19 60 -3 23 -3 47 1 53 3 6 17 11 30 11z"/>
</g>
<g>
<path d="M4707 15000 c-60 0 -76 -4 -93 -21 -12 -11 -29 -22 -40 -23 -12 -2
-21 -13 -24 -32 -4 -24 -17 -35 -70 -61 -35 -18 -88 -55 -118 -83 -29 -27 -57
-50 -63 -50 -5 0 -17 -16 -25 -35 -7 -19 -26 -41 -42 -49 -15 -8 -22 -15 -17
-16 6 0 -8 -9 -30 -19 -22 -10 -65 -40 -95 -67 -30 -27 -81 -75 -113 -106 -33
-32 -67 -60 -78 -63 -11 -4 -19 -15 -19 -29 0 -12 -10 -36 -22 -52 -13 -17
-44 -48 -69 -70 -26 -21 -54 -46 -63 -54 -9 -8 -48 -48 -87 -87 -39 -40 -75
-73 -80 -73 -5 0 -9 -6 -9 -12 0 -7 -18 -32 -40 -55 -21 -24 -44 -43 -50 -43
-6 0 -15 -11 -20 -25 -5 -14 -22 -33 -38 -42 -16 -10 -48 -34 -71 -53 -24 -19
-51 -51 -61 -70 -10 -19 -27 -42 -37 -52 -10 -9 -36 -36 -58 -59 -22 -24 -55
-54 -73 -66 -18 -13 -36 -23 -40 -23 -4 0 -18 -16 -31 -36 -13 -19 -33 -40
-44 -45 -10 -6 -28 -31 -38 -55 -11 -24 -25 -44 -31 -44 -6 0 -45 -20 -87 -44
-42 -24 -95 -46 -117 -48 -23 -3 -55 -12 -70 -19 -16 -8 -36 -29 -44 -46 -8
-18 -19 -33 -24 -33 -4 0 -17 -11 -28 -25 -11 -14 -27 -25 -37 -25 -10 0 -30
-13 -44 -30 -15 -16 -27 -35 -27 -41 0 -5 -4 -8 -9 -5 -5 3 -11 -1 -15 -9 -3
-8 -22 -21 -42 -30 -20 -8 -64 -15 -98 -16 -33 0 -77 -5 -96 -12 -26 -9 -37
-20 -44 -44 -5 -17 -20 -36 -33 -42 -14 -6 -23 -19 -23 -32 0 -13 -7 -30 -16
-40 -9 -10 -17 -33 -19 -51 -2 -18 -11 -47 -20 -65 -15 -30 -15 -35 4 -75 11
-24 51 -76 89 -115 38 -40 76 -73 85 -73 9 0 19 -9 22 -20 4 -12 15 -20 29
-20 14 0 27 -9 34 -22 6 -13 14 -34 17 -47 4 -13 29 -45 56 -72 27 -27 57 -67
66 -89 10 -22 21 -40 25 -40 3 0 20 -24 37 -54 17 -29 31 -63 31 -74 0 -11 8
-23 18 -26 10 -3 18 -16 19 -28 1 -13 9 -28 18 -34 8 -6 15 -16 15 -22 0 -6 3
-12 8 -14 4 -2 27 -41 50 -88 23 -47 42 -89 42 -93 0 -4 10 -22 23 -39 12 -17
37 -47 54 -67 18 -20 33 -41 33 -47 0 -6 11 -16 25 -22 14 -7 28 -19 31 -27 4
-8 28 -39 55 -68 27 -28 49 -55 49 -59 0 -3 26 -33 58 -66 31 -33 68 -73 82
-88 14 -16 36 -36 49 -44 12 -8 31 -31 41 -51 10 -19 38 -55 62 -80 24 -24 54
-59 67 -77 13 -18 35 -45 50 -60 14 -16 38 -34 52 -41 14 -7 33 -25 42 -39 8
-15 45 -57 81 -94 36 -38 70 -68 74 -68 5 0 23 -22 40 -50 17 -27 35 -50 41
-50 5 0 18 -16 30 -35 12 -21 28 -35 40 -35 11 0 36 -13 54 -30 19 -16 41 -30
49 -30 8 0 56 -44 106 -97 50 -54 106 -113 124 -131 18 -18 49 -40 68 -49 19
-9 42 -17 50 -18 8 0 22 6 31 15 9 8 22 25 28 38 6 12 21 22 32 22 11 0 23 9
27 19 4 11 39 56 77 101 39 45 104 116 145 159 41 43 98 93 125 111 28 19 56
42 62 51 7 10 29 27 48 39 20 12 35 30 35 40 0 11 12 27 26 37 15 10 60 50
102 88 41 39 83 78 93 87 10 9 35 26 56 37 21 11 71 56 112 100 62 67 79 80
99 76 14 -2 33 0 43 6 11 5 19 19 19 29 0 12 29 48 69 85 37 36 89 81 114 100
25 19 50 35 56 35 5 0 40 29 76 65 36 36 67 65 69 65 2 0 35 32 72 71 38 39
77 74 86 77 9 4 55 45 103 91 48 47 93 97 100 111 7 14 34 53 58 85 25 33 63
74 86 90 22 17 41 36 41 43 0 6 4 12 10 12 5 0 13 18 16 40 4 27 13 41 26 46
11 3 71 57 133 120 62 63 120 114 129 114 10 0 16 9 16 24 0 13 -6 26 -14 29
-11 4 -13 14 -7 34 4 15 18 33 31 40 12 6 26 17 30 24 5 7 -3 32 -18 61 -14
26 -32 48 -39 48 -7 0 -22 14 -32 30 -10 17 -36 44 -57 60 -21 16 -42 30 -46
30 -4 0 -48 41 -98 90 -49 50 -90 98 -90 106 0 9 -10 30 -22 47 -12 18 -49 65
-82 105 -34 39 -69 75 -78 78 -10 3 -18 14 -18 25 0 11 -7 22 -15 25 -8 3 -19
20 -25 37 -6 18 -33 56 -60 85 -26 30 -55 68 -64 85 -8 18 -28 46 -43 63 -16
16 -46 40 -68 53 -40 22 -41 23 -44 89 -2 37 -4 82 -5 101 l-1 35 -75 14 c-41
7 -78 20 -83 27 -4 8 -14 12 -21 9 -7 -3 -16 2 -20 11 -3 9 -2 24 3 33 6 11 6
24 0 35 -6 9 -16 17 -24 17 -8 0 -11 7 -8 18 2 10 -5 35 -17 55 -12 20 -26 37
-30 37 -5 0 -21 5 -35 10 -21 8 -25 13 -16 24 8 10 8 16 -4 26 -8 7 -15 19
-15 27 0 7 -10 28 -22 46 -13 18 -35 47 -50 65 -16 18 -28 39 -28 47 0 8 -5
15 -11 15 -7 0 -9 12 -5 33 3 17 1 39 -4 47 -5 8 -13 15 -17 16 -4 1 -23 5
-40 9 -21 5 -33 14 -33 24 0 9 -12 32 -28 51 -15 19 -34 47 -41 63 -8 15 -18
27 -22 27 -4 0 -32 25 -63 56 -30 30 -53 61 -50 68 3 7 -12 30 -31 52 -20 21
-42 46 -48 54 -7 9 -34 30 -60 48 -26 18 -52 32 -58 32 -5 0 -9 13 -9 29 0 16
-7 37 -16 45 -11 12 -35 16 -87 16z m-400 -560 c6 0 15 -5 18 -10 4 -6 8 -25
11 -42 2 -17 8 -36 14 -42 6 -6 29 -11 53 -12 23 -1 50 -5 60 -9 10 -4 17 -18
17 -34 0 -19 -11 -34 -43 -56 -23 -16 -55 -37 -72 -46 -18 -10 -29 -23 -27
-33 2 -9 -1 -16 -7 -16 -5 0 -32 18 -60 40 -28 22 -51 46 -51 52 0 6 -10 22
-21 34 -16 17 -20 30 -15 49 4 14 19 36 33 48 15 12 39 34 52 50 14 15 31 27
38 27z m657 -60 c17 0 28 -10 41 -36 9 -20 13 -40 8 -44 -4 -5 -20 -10 -36
-12 -15 -2 -47 -21 -72 -41 -37 -31 -48 -36 -64 -27 -11 5 -23 20 -27 32 -5
16 -1 27 16 40 12 10 30 18 39 18 9 0 29 16 44 35 18 22 36 35 51 35z m-346
-250 c10 0 22 -13 29 -30 9 -24 8 -36 -4 -60 -8 -17 -25 -38 -38 -46 -13 -8
-25 -23 -27 -32 -3 -9 -17 -23 -31 -31 -24 -13 -29 -12 -47 4 -12 11 -20 31
-20 49 0 23 7 36 30 51 17 11 44 37 61 58 16 20 38 37 47 37z m-652 -40 c6 0
17 -7 24 -15 7 -8 19 -15 26 -15 8 0 14 -4 14 -10 0 -5 17 -28 38 -49 21 -22
50 -43 64 -46 14 -4 30 -15 34 -26 5 -11 27 -40 49 -65 22 -25 57 -64 78 -86
20 -23 37 -46 37 -52 0 -6 -26 -34 -57 -61 -31 -28 -65 -58 -75 -67 -10 -10
-20 -18 -23 -18 -3 0 -33 -27 -67 -60 -34 -33 -65 -60 -70 -60 -5 0 -13 -10
-19 -23 -6 -13 -26 -32 -45 -42 -19 -10 -34 -24 -34 -31 0 -8 -12 -16 -27 -20
-16 -4 -38 -13 -51 -21 -22 -13 -26 -12 -61 19 -21 18 -51 52 -67 76 -15 24
-39 52 -52 62 -13 11 -25 26 -26 34 -1 8 -7 20 -13 27 -6 8 -25 40 -42 71
l-31 58 30 33 c16 18 32 45 35 60 4 15 21 37 37 49 17 12 47 27 67 33 27 9 41
23 56 52 11 22 34 54 50 70 17 16 48 50 70 76 22 26 45 47 51 47z m1164 -5
c32 -5 55 -17 83 -43 20 -21 51 -64 68 -97 16 -33 40 -75 52 -92 12 -18 28
-33 35 -33 6 0 12 -5 12 -11 0 -6 13 -23 28 -37 16 -15 31 -38 35 -52 5 -21 0
-29 -26 -46 -18 -11 -49 -31 -69 -45 -21 -13 -38 -27 -38 -32 0 -4 -18 -14
-40 -23 -22 -9 -40 -22 -40 -30 0 -8 -35 -41 -77 -75 -43 -34 -87 -72 -98 -85
-11 -13 -29 -24 -39 -24 -10 0 -29 11 -41 24 -12 13 -22 30 -22 37 0 8 -12 34
-28 59 -15 25 -31 47 -35 50 -4 3 -14 19 -23 36 -8 16 -35 43 -59 58 -25 15
-57 43 -72 63 l-28 35 18 34 c10 18 41 50 69 69 29 19 62 46 75 60 13 14 29
25 37 25 7 0 13 5 13 12 0 7 12 29 26 49 14 20 38 42 54 49 15 6 41 25 56 41
27 28 33 30 74 24z m-643 -535 c7 0 27 -15 45 -33 18 -19 50 -53 71 -76 20
-24 37 -47 37 -52 0 -5 12 -11 28 -15 15 -3 32 -7 38 -9 6 -2 15 -16 19 -32 3
-15 22 -53 40 -83 23 -39 34 -70 36 -104 3 -47 1 -50 -23 -57 -15 -4 -41 -17
-58 -29 -18 -12 -35 -30 -38 -40 -4 -10 -37 -49 -73 -87 -36 -37 -80 -75 -96
-84 -17 -9 -48 -41 -70 -70 -22 -30 -42 -62 -46 -72 -3 -9 -17 -22 -29 -28
-13 -5 -31 -23 -40 -40 -9 -16 -21 -29 -26 -29 -5 0 -28 18 -51 40 -31 30 -40
46 -36 61 5 14 0 22 -17 28 -13 6 -19 10 -15 10 5 1 -10 24 -32 52 -23 29 -41
59 -41 68 0 10 -12 32 -27 51 -16 18 -40 45 -55 58 -16 14 -28 31 -28 39 0 7
-6 16 -12 18 -7 3 -13 20 -13 39 0 19 8 43 19 55 11 12 23 21 28 21 6 0 26 15
45 33 19 17 67 64 107 103 39 39 88 78 108 87 20 10 46 29 57 44 12 14 21 31
21 38 0 7 11 16 24 19 13 3 39 22 57 41 19 19 39 35 46 35z m-1136 -42 c14 -2
25 -15 33 -39 7 -20 19 -44 27 -53 8 -10 33 -39 57 -64 23 -26 47 -64 54 -84
6 -21 19 -46 28 -56 10 -10 43 -55 74 -100 31 -45 56 -86 56 -91 0 -6 12 -23
26 -38 15 -15 52 -64 82 -107 31 -44 57 -88 57 -98 1 -10 11 -31 23 -46 12
-15 34 -49 50 -77 16 -27 39 -59 51 -69 11 -11 21 -24 21 -31 0 -7 10 -23 23
-37 12 -14 30 -35 40 -47 9 -12 17 -27 17 -34 0 -7 11 -28 25 -47 14 -19 25
-37 25 -42 0 -4 -15 -18 -34 -30 -18 -13 -64 -49 -102 -81 -38 -32 -76 -71
-84 -86 -8 -16 -37 -48 -65 -71 -27 -23 -64 -62 -82 -85 -18 -24 -48 -53 -68
-65 -19 -12 -35 -25 -35 -30 0 -4 -15 -17 -32 -28 -18 -11 -44 -28 -58 -38
-13 -11 -65 -59 -115 -109 -49 -49 -103 -97 -120 -107 -16 -9 -43 -24 -60 -32
-16 -8 -45 -26 -64 -40 -19 -14 -41 -26 -48 -26 -8 0 -25 12 -38 28 -13 15
-25 33 -25 40 0 6 -5 12 -10 12 -6 0 -24 15 -40 33 -16 17 -30 38 -30 45 0 7
-6 15 -14 18 -7 3 -28 26 -47 52 -18 26 -36 49 -40 52 -4 3 -10 17 -14 32 -4
15 -13 32 -21 39 -8 6 -14 16 -14 22 0 5 -16 27 -35 48 -19 22 -35 48 -35 59
0 12 -18 45 -40 75 -22 30 -41 66 -42 80 -1 14 -6 25 -10 25 -4 0 -8 7 -8 16
0 9 -17 33 -39 54 -21 20 -46 53 -56 71 -10 19 -22 42 -26 51 -5 10 -9 24 -9
32 0 8 -6 16 -13 19 -7 2 -29 33 -50 67 -20 35 -37 75 -37 90 0 16 -7 30 -15
34 -8 3 -12 12 -9 21 4 9 17 14 33 13 14 -1 39 7 54 17 19 12 27 24 24 37 -4
12 2 22 16 29 12 7 41 27 65 46 23 19 58 39 77 44 19 6 54 24 77 42 24 18 49
46 57 62 8 17 18 32 23 33 4 2 8 10 8 17 0 8 6 20 13 27 6 8 20 29 30 47 9 18
17 42 17 53 0 11 19 38 42 59 24 22 48 39 54 39 6 0 31 15 55 34 24 18 51 46
59 62 8 16 33 48 56 71 23 22 44 48 47 57 4 9 15 16 25 16 10 0 26 8 34 18 8
9 18 25 21 35 5 12 15 17 28 15z m2255 -34 c6 -8 15 -14 21 -14 5 0 19 -13 31
-30 12 -16 22 -33 22 -39 0 -5 15 -25 33 -44 17 -19 49 -58 71 -88 21 -29 41
-59 44 -67 3 -8 20 -29 39 -48 18 -18 33 -41 33 -51 0 -10 21 -40 46 -68 25
-27 77 -83 115 -123 38 -40 69 -78 69 -86 0 -7 26 -40 57 -72 32 -33 62 -66
68 -75 5 -9 18 -30 27 -47 10 -17 31 -45 48 -63 16 -19 30 -36 30 -40 0 -3
-18 -31 -40 -62 -22 -30 -40 -60 -40 -66 0 -6 -9 -15 -20 -21 -11 -6 -18 -15
-15 -20 3 -5 -12 -22 -34 -37 -26 -18 -51 -49 -70 -85 -17 -32 -46 -72 -65
-88 -19 -17 -38 -41 -42 -53 -4 -12 -30 -44 -58 -72 -28 -27 -50 -54 -48 -59
1 -4 -12 -22 -31 -40 -18 -17 -48 -45 -67 -62 -19 -16 -49 -46 -66 -66 -17
-19 -55 -54 -85 -78 -30 -23 -63 -51 -74 -62 -11 -11 -50 -40 -88 -64 -37 -24
-71 -44 -76 -44 -4 0 -18 -14 -31 -30 -13 -17 -35 -36 -50 -43 -20 -10 -31
-11 -42 -3 -8 6 -18 23 -21 37 -4 15 -23 38 -42 53 -19 15 -35 32 -35 39 0 6
-21 31 -47 55 -27 24 -64 53 -83 65 -19 12 -60 48 -90 79 -30 32 -59 58 -65
58 -6 0 -21 10 -32 23 -11 12 -23 30 -26 40 -4 9 -13 17 -22 17 -8 0 -15 5
-15 11 0 7 -11 22 -25 35 -14 12 -33 38 -43 56 -10 18 -35 42 -56 53 -20 11
-45 32 -54 47 -10 15 -37 41 -60 58 -24 17 -40 35 -37 40 3 5 -3 14 -14 20
-12 6 -18 16 -15 25 4 8 -7 26 -26 44 -23 20 -34 40 -36 64 -2 28 3 42 27 66
16 17 29 38 29 47 0 9 32 47 71 85 39 37 72 76 74 86 2 10 4 24 4 31 1 6 7 12
15 12 8 0 30 15 49 33 19 17 46 57 61 89 21 43 43 69 99 114 40 32 93 80 120
107 26 27 47 54 47 59 0 5 20 18 45 29 24 11 47 24 50 29 3 6 14 10 23 10 9 0
53 34 96 75 44 41 104 89 135 106 30 17 61 37 69 45 7 8 18 14 24 14 6 0 21
10 35 23 13 12 30 27 36 34 9 9 15 9 23 -3z m-1361 -1254 c8 0 17 -14 21 -35
3 -19 16 -45 28 -57 12 -13 43 -42 69 -66 26 -23 47 -45 47 -48 0 -3 19 -26
43 -50 23 -25 47 -56 54 -69 7 -12 24 -25 37 -29 14 -3 49 -31 78 -60 29 -30
59 -61 66 -68 7 -7 17 -17 22 -23 6 -5 24 -29 40 -52 17 -24 37 -43 44 -43 8
0 17 -8 20 -18 3 -9 16 -22 28 -27 12 -6 26 -24 30 -41 5 -19 23 -43 45 -59
21 -16 70 -62 110 -103 39 -41 74 -87 76 -101 3 -14 1 -27 -3 -29 -5 -2 -7 -9
-4 -17 3 -8 -13 -31 -38 -54 -24 -22 -60 -55 -81 -73 -21 -18 -62 -55 -90 -83
-29 -27 -65 -57 -82 -65 -16 -8 -48 -33 -70 -56 -22 -23 -52 -49 -67 -59 -16
-9 -28 -21 -28 -25 0 -5 -21 -29 -47 -54 -26 -25 -53 -46 -59 -46 -7 0 -19 -6
-27 -14 -8 -8 -35 -33 -61 -55 -26 -23 -63 -62 -83 -88 -19 -27 -53 -65 -75
-86 l-40 -39 -34 17 c-19 9 -34 20 -34 25 0 6 -10 10 -22 10 -13 0 -34 9 -48
20 -14 11 -28 20 -31 20 -3 0 -28 20 -55 45 -27 25 -70 65 -95 88 -25 23 -80
73 -122 112 -42 38 -77 73 -77 77 0 4 -12 25 -27 46 -16 22 -39 44 -53 51 -14
6 -37 29 -52 51 -15 22 -34 40 -42 40 -7 0 -19 14 -26 30 -7 17 -16 30 -21 30
-5 0 -9 6 -9 13 0 6 -12 20 -28 31 -15 10 -55 53 -89 96 -35 44 -63 81 -63 84
0 3 17 24 37 47 20 22 53 49 72 59 20 10 47 32 61 49 14 17 30 31 37 31 6 0
24 14 40 32 15 18 52 57 81 87 30 31 63 66 75 79 12 12 26 22 32 22 6 0 32 21
57 48 26 26 50 59 53 74 5 19 17 30 41 38 19 7 45 26 59 44 14 18 25 37 25 42
1 5 12 22 25 39 14 16 44 39 67 50 40 19 43 24 46 62 3 40 5 43 42 53 22 6 44
20 50 30 6 11 17 20 25 20z"/>
</g>
<g>
<path d="M10459 13180 c-5 0 -9 -4 -9 -10 0 -5 7 -10 16 -10 8 0 12 5 9 10 -3
6 -10 10 -16 10z"/>
</g>
<g>
<path d="M10462 13083 c-10 10 -22 14 -25 10 -4 -3 2 -13 14 -21 11 -8 22 -12
25 -10 2 3 -4 12 -14 21z"/>
</g>
<g>
<path d="M10523 12996 c-17 7 -17 6 -1 -12 14 -14 21 -15 30 -6 8 8 9 12 1 12
-6 0 -20 3 -30 6z"/>
</g>
<g>
<path d="M4911 9890 c-6 0 -12 -4 -16 -9 -3 -5 -1 -12 3 -15 5 -3 12 -3 16 1
3 3 6 10 6 15 0 4 -4 8 -9 8z"/>
</g>
<g>
<path d="M3841 9170 c-12 0 -21 -6 -21 -16 0 -9 7 -14 17 -12 9 2 18 9 21 16
2 7 -5 12 -17 12z"/>
</g>
<g>
<path d="M3320 9045 c-22 1 -40 -2 -40 -6 0 -5 21 -9 47 -9 25 0 43 3 40 6 -3
4 -24 8 -47 9z"/>
</g>
<g>
<path d="M5055 7153 c-8 4 -17 1 -21 -5 -4 -5 -1 -14 7 -18 7 -5 17 -6 21 -4
4 3 8 9 8 14 0 4 -7 10 -15 13z"/>
</g>
<g>
<path d="M17524 2850 c-7 0 -15 -7 -18 -16 -3 -9 -6 -19 -6 -24 0 -4 9 -6 19
-3 12 3 19 13 18 24 -1 10 -7 19 -13 19z"/>
</g>
</g>
</svg>
