<?xml version="1.0" standalone="no"?>
<!DOCTYPE svg PUBLIC "-//W3C//DTD SVG 20010904//EN"
 "http://www.w3.org/TR/2001/REC-SVG-20010904/DTD/svg10.dtd">
<svg version="1.0" xmlns="http://www.w3.org/2000/svg"
 width="1726.000000pt" height="1916.000000pt" viewBox="0 0 1726.000000 1916.000000"
 preserveAspectRatio="xMidYMid meet">
<metadata>
Created by potrace 1.16, written by Peter Selinger 2001-2019
</metadata>
<g transform="translate(0.000000,1916.000000) scale(0.100000,-0.100000)"
fill="#000000" stroke="none">
<g>
<path d="M13510 18690 c-4 0 -18 -8 -30 -18 -17 -14 -21 -24 -15 -41 5 -18 13
-22 38 -19 25 2 33 8 35 26 2 13 -2 30 -8 38 -7 7 -16 14 -20 14z"/>
</g>
<g>
<path d="M13510 18549 c-3 0 -19 -6 -37 -14 -17 -7 -33 -22 -36 -32 -2 -10 -4
-88 -3 -173 1 -85 6 -204 10 -265 5 -60 12 -117 16 -125 4 -8 9 -66 9 -129 1
-62 9 -146 18 -185 9 -39 18 -86 20 -103 4 -28 2 -33 -14 -33 -11 0 -28 9 -38
20 -10 11 -33 22 -51 26 -19 3 -34 10 -34 14 0 4 -18 15 -41 24 -22 9 -44 14
-48 11 -5 -2 -26 4 -47 14 -34 17 -49 18 -104 10 -36 -5 -74 -11 -86 -12 -11
-1 -48 -19 -81 -40 -34 -20 -80 -60 -103 -87 -36 -43 -44 -62 -61 -142 -15
-72 -18 -113 -13 -178 4 -47 8 -92 9 -101 2 -10 -26 -44 -68 -84 -40 -37 -88
-79 -107 -93 -19 -15 -62 -52 -95 -84 -33 -32 -90 -81 -127 -109 -38 -28 -68
-55 -68 -60 0 -5 -15 -26 -32 -46 -18 -20 -39 -41 -46 -47 -8 -6 -25 -21 -38
-33 -15 -13 -24 -33 -24 -51 0 -15 5 -33 12 -40 7 -7 27 -12 45 -12 18 0 48 8
68 17 19 9 35 20 35 24 0 4 21 10 48 14 26 3 57 13 69 21 13 8 35 13 50 12 16
-1 60 4 98 12 39 7 90 22 115 33 25 11 70 28 100 38 30 10 64 19 75 19 12 0
25 4 30 9 6 5 34 14 64 20 l53 11 37 -38 c23 -24 60 -46 97 -60 32 -12 93 -26
134 -32 41 -6 125 -15 185 -20 61 -5 157 -7 215 -4 58 3 185 11 283 19 172 14
181 14 222 -4 25 -11 89 -24 152 -30 59 -6 135 -10 168 -9 33 0 83 0 110 -1
28 -1 57 -6 65 -11 13 -9 13 -12 -3 -24 -11 -9 -17 -24 -15 -37 2 -12 16 -31
31 -43 l29 -21 19 24 c10 13 19 38 19 56 l0 32 95 0 95 0 0 -26 c0 -16 8 -31
21 -39 18 -12 24 -11 45 9 14 13 24 34 24 51 0 15 2 28 5 28 2 0 30 7 62 16
32 8 83 22 113 30 30 8 63 16 73 19 9 2 22 7 29 11 6 4 26 8 44 10 18 1 63 14
99 29 37 14 91 42 120 61 30 19 56 34 59 34 3 0 22 12 43 26 21 14 58 35 83
46 25 11 86 40 135 65 50 25 106 57 125 71 19 14 40 31 45 36 6 6 27 17 48 25
22 7 58 25 80 40 23 15 54 32 70 39 25 11 27 10 27 -13 0 -18 7 -26 27 -31 14
-4 33 -2 42 3 10 6 16 24 16 49 0 32 -4 39 -24 44 -24 5 -23 7 23 45 33 26 46
44 43 56 -3 10 1 23 9 30 8 6 14 19 14 29 0 10 -7 21 -16 24 -9 3 -20 3 -26 0
-5 -3 -12 3 -15 14 -3 13 -17 23 -35 27 -21 5 -35 2 -46 -9 -9 -9 -17 -28 -18
-43 -1 -23 -8 -29 -50 -44 -27 -10 -62 -18 -78 -18 -16 -1 -55 -10 -85 -20
-31 -11 -111 -24 -179 -30 -68 -6 -187 -23 -265 -37 -78 -14 -173 -29 -212
-34 -38 -5 -87 -12 -107 -16 -24 -4 -38 -2 -38 4 0 6 35 45 78 86 42 41 88 83
102 94 14 11 66 47 117 81 51 33 95 61 99 61 3 0 32 18 63 41 31 22 81 56 111
75 30 20 64 40 75 45 11 5 38 20 60 33 25 15 51 43 67 72 15 27 27 57 28 67 0
13 -5 16 -24 11 -14 -3 -57 4 -98 16 -40 12 -94 33 -121 47 -26 13 -67 44 -92
69 -25 24 -50 44 -55 44 -6 0 -10 7 -10 15 0 9 -7 18 -15 21 -8 4 -15 14 -15
24 0 11 -5 22 -10 25 -6 4 -17 22 -25 41 -13 31 -18 34 -54 34 -30 0 -44 -6
-55 -22 -9 -12 -16 -30 -16 -40 0 -10 -8 -33 -18 -51 -9 -17 -40 -64 -67 -104
-28 -40 -56 -73 -63 -73 -7 0 -18 -11 -24 -25 -6 -14 -36 -42 -66 -63 -30 -20
-59 -40 -66 -43 -6 -4 -30 -16 -52 -28 -23 -11 -53 -21 -67 -21 -13 0 -31 -7
-38 -16 -8 -9 -42 -30 -76 -47 -35 -16 -63 -33 -63 -38 0 -4 -23 -19 -51 -33
-28 -15 -58 -26 -68 -26 -9 0 -26 -7 -37 -15 -10 -8 -40 -15 -67 -15 -26 0
-56 -5 -66 -11 -15 -10 -35 -4 -114 35 -53 25 -109 58 -125 71 -16 13 -40 29
-53 35 -13 5 -33 16 -43 22 -11 7 -43 28 -70 46 -28 18 -68 45 -89 61 -21 16
-47 41 -58 55 -11 14 -27 26 -35 26 -8 0 -18 8 -21 18 -4 9 -44 67 -89 129
-46 61 -88 114 -93 118 -6 3 -11 15 -11 26 0 10 -5 19 -10 19 -6 0 -18 17 -27
38 -10 20 -28 50 -40 65 -13 16 -23 33 -23 38 0 5 -18 32 -40 61 -22 29 -40
60 -40 68 0 8 -6 26 -14 40 -7 14 -26 48 -41 75 -15 28 -37 68 -48 90 -12 22
-26 43 -32 47 -5 4 -12 8 -15 7z m21 -249 c11 -17 19 -37 19 -45 0 -8 13 -29
28 -47 16 -18 36 -49 45 -70 9 -20 17 -39 17 -43 0 -5 15 -26 34 -49 18 -23
42 -62 53 -87 12 -26 36 -64 55 -85 18 -22 52 -65 73 -98 22 -32 74 -93 115
-136 41 -43 96 -94 123 -114 26 -20 52 -36 57 -36 6 0 15 -11 22 -25 6 -13 23
-29 37 -35 14 -6 44 -21 67 -33 22 -12 55 -34 72 -48 17 -15 50 -36 74 -46 24
-11 60 -28 80 -37 20 -9 45 -24 54 -34 13 -12 19 -13 22 -4 2 6 10 12 18 12 8
0 14 4 14 8 0 4 20 8 45 9 25 1 55 9 67 17 12 9 32 16 44 16 12 0 33 9 47 20
14 11 30 20 36 20 7 0 42 16 79 36 37 20 76 45 88 55 11 11 30 19 42 19 13 0
25 6 28 14 3 8 19 17 36 20 18 3 39 12 47 19 9 8 38 22 65 32 31 11 73 41 117
83 38 35 69 71 69 78 0 7 12 22 28 32 15 11 45 46 67 79 21 32 45 63 53 70 11
9 23 2 59 -39 25 -28 67 -66 94 -85 27 -18 92 -55 145 -82 l96 -49 -29 -18
c-15 -10 -52 -34 -81 -53 -30 -20 -66 -43 -81 -51 -15 -8 -36 -24 -47 -35 -10
-11 -40 -37 -65 -57 -25 -21 -72 -52 -105 -69 -32 -18 -72 -41 -88 -53 -16
-11 -78 -69 -138 -128 -85 -84 -115 -108 -136 -108 -15 0 -44 9 -65 20 -20 11
-53 20 -74 20 -20 0 -45 -7 -55 -17 -10 -9 -18 -26 -18 -38 0 -13 6 -27 13
-33 6 -6 32 -18 57 -27 25 -9 60 -23 79 -30 19 -7 38 -22 43 -34 4 -11 14 -21
21 -21 8 0 20 7 27 15 7 9 15 13 18 10 3 -3 13 2 22 10 11 10 48 16 120 19 58
2 155 14 215 25 61 12 148 26 195 32 47 5 110 12 140 15 30 3 84 9 120 15 36
5 79 12 95 16 l30 6 -29 -32 c-17 -17 -36 -31 -43 -31 -8 0 -46 -17 -86 -37
-40 -20 -85 -47 -100 -60 -16 -13 -33 -23 -37 -23 -5 0 -31 -15 -57 -32 -26
-18 -50 -36 -53 -39 -3 -3 -12 -8 -20 -12 -8 -4 -22 -11 -30 -15 -8 -5 -31
-16 -50 -24 -19 -8 -70 -32 -114 -52 -43 -21 -113 -49 -155 -62 -41 -13 -81
-24 -88 -24 -6 0 -24 -6 -40 -14 -15 -8 -71 -24 -124 -36 -53 -12 -139 -23
-195 -24 -54 -2 -109 1 -122 5 -13 5 -80 12 -150 15 -70 3 -157 7 -194 9 -37
1 -91 6 -122 9 -30 4 -65 15 -78 24 -13 9 -37 25 -54 34 -30 17 -32 17 -49 -2
-10 -11 -31 -20 -47 -20 -17 0 -41 -9 -55 -20 -19 -15 -30 -17 -44 -10 -10 6
-52 8 -94 6 -42 -3 -104 -10 -138 -16 -36 -7 -95 -9 -142 -5 -44 4 -109 11
-145 16 -35 6 -70 15 -76 20 -8 7 -13 6 -16 -3 -3 -9 -12 -8 -39 4 -19 9 -52
20 -74 23 -22 4 -56 15 -75 25 -19 9 -48 25 -65 34 -16 9 -40 16 -52 16 -12 0
-25 -4 -28 -10 -3 -5 -11 -10 -16 -10 -6 0 -7 14 -3 35 l6 35 -41 0 c-24 0
-67 -12 -107 -31 -37 -16 -80 -33 -96 -36 -15 -3 -31 -10 -34 -14 -3 -5 -12
-9 -21 -9 -12 0 -10 5 8 21 13 12 49 34 79 49 30 15 74 33 97 40 23 7 55 25
72 41 17 15 28 34 26 42 -3 7 3 22 15 32 11 10 20 24 20 32 0 7 -11 19 -25 25
-23 10 -29 8 -58 -19 -17 -17 -42 -36 -54 -42 -12 -6 -29 -11 -38 -11 -10 0
-47 -20 -84 -44 -36 -24 -104 -62 -151 -85 -47 -23 -99 -50 -117 -60 -17 -9
-43 -25 -58 -35 -15 -10 -30 -15 -33 -11 -3 3 54 63 127 133 74 70 146 134
161 143 15 9 43 36 62 60 23 29 38 63 46 99 6 33 8 74 3 102 -4 26 -4 53 0 60
7 10 11 10 21 0 6 -6 27 -12 45 -12 20 0 40 8 53 23 12 12 28 33 35 47 7 14
16 40 20 58 5 25 3 38 -11 53 -10 11 -30 19 -48 19 l-31 0 25 20 c14 11 31 20
38 20 6 0 12 4 12 9 0 5 15 13 33 16 17 4 38 12 45 18 7 5 36 7 68 4 36 -4 64
-13 78 -25 11 -11 44 -31 72 -45 29 -15 70 -48 97 -80 26 -30 47 -59 47 -65 0
-5 9 -17 20 -27 12 -11 28 -34 37 -53 9 -19 37 -56 62 -82 25 -26 63 -55 85
-64 21 -9 45 -16 54 -16 8 0 21 -8 28 -17 10 -15 29 -18 111 -18 l98 0 3 35
c2 19 8 39 13 45 5 5 9 15 9 22 0 9 -16 13 -50 13 -27 0 -71 6 -97 12 -27 7
-52 18 -56 25 -4 7 -14 13 -21 13 -7 0 -29 16 -49 35 -20 19 -42 47 -50 62 -8
16 -23 55 -32 88 -10 33 -23 74 -30 90 -8 17 -17 46 -21 65 -3 19 -10 41 -14
50 -4 8 -13 38 -18 65 -6 28 -13 86 -17 130 -3 44 -10 125 -15 180 -6 55 -14
157 -20 226 -5 70 -6 137 -3 148 5 21 7 20 24 -9z"/>
<g>
<path d="M13244 17236 c-21 3 -44 1 -50 -3 -6 -4 -16 -18 -23 -30 -6 -12 -11
-41 -11 -65 1 -31 7 -51 25 -70 13 -16 33 -28 43 -28 11 0 36 16 55 36 20 21
38 51 42 72 5 29 2 39 -18 59 -14 15 -40 26 -63 29z"/>
</g>
</g>
<g>
<path d="M13739 18500 c-10 0 -26 -11 -35 -25 -8 -13 -13 -32 -10 -42 3 -10
14 -23 24 -30 15 -9 25 -8 43 1 13 6 25 22 27 35 2 12 -4 31 -14 42 -9 10 -25
19 -35 19z"/>
</g>
<g>
<path d="M13384 18440 c-8 0 -17 -7 -20 -15 -3 -8 -3 -19 1 -25 3 -5 12 -10
20 -10 7 0 16 7 19 16 3 9 4 20 0 25 -3 5 -12 9 -20 9z"/>
</g>
<g>
<path d="M13840 18300 c-16 0 -30 -7 -34 -16 -3 -9 -6 -28 -6 -44 0 -23 5 -29
31 -34 17 -3 35 -4 39 -1 5 3 11 19 15 36 4 18 2 36 -5 44 -7 8 -25 15 -40 15z"/>
</g>
<g>
<path d="M15637 18231 c-9 12 -17 14 -32 6 -11 -6 -27 -13 -35 -17 -8 -4 -16
-21 -18 -38 -3 -24 3 -34 24 -48 26 -18 27 -18 50 10 13 15 24 37 24 49 0 12
-6 29 -13 38z"/>
</g>
<g>
<path d="M13352 18180 c-5 0 -13 -5 -20 -12 -7 -7 -12 -22 -12 -35 0 -13 5
-23 12 -23 6 0 20 7 29 16 14 13 16 21 8 35 -5 11 -13 19 -17 19z"/>
</g>
<g>
<path d="M15811 18050 c-11 0 -27 -7 -35 -16 -9 -8 -16 -22 -16 -29 0 -8 11
-27 24 -42 20 -23 28 -26 42 -17 10 6 22 25 26 43 7 23 5 36 -6 46 -8 8 -24
15 -35 15z"/>
</g>
<g>
<path d="M13985 18040 c-13 0 -26 -7 -29 -16 -3 -8 -1 -24 4 -35 6 -10 14 -19
19 -19 4 0 15 8 25 19 9 10 14 25 10 35 -3 9 -16 16 -29 16z"/>
</g>
<g>
<path d="M15443 18036 c-28 5 -33 3 -47 -24 -9 -17 -16 -39 -16 -49 0 -11 12
-23 29 -30 16 -6 34 -8 40 -4 5 4 17 24 26 45 9 21 13 42 8 47 -5 5 -23 11
-40 15z"/>
</g>
<g>
<path d="M13334 18018 c-11 2 -28 -6 -39 -18 -18 -20 -18 -21 1 -35 10 -8 28
-14 39 -12 15 1 20 9 20 32 0 23 -5 31 -21 33z"/>
</g>
<g>
<path d="M16137 17890 c-13 0 -27 -3 -30 -7 -4 -3 -2 -12 4 -20 6 -7 20 -13
30 -13 12 0 19 7 19 20 0 14 -7 20 -23 20z"/>
</g>
<g>
<path d="M14155 17880 c-11 0 -26 -5 -33 -12 -7 -7 -12 -22 -12 -33 0 -12 8
-29 18 -38 10 -10 26 -17 35 -17 9 0 24 14 32 31 15 29 15 32 -1 50 -9 10 -27
19 -39 19z"/>
</g>
<g>
<path d="M16001 17869 c-9 0 -26 -7 -38 -16 -14 -9 -23 -26 -23 -42 0 -15 5
-32 12 -39 7 -7 21 -12 33 -12 11 0 38 11 60 23 30 17 40 29 40 47 0 20 -5 25
-27 25 -15 1 -30 4 -34 8 -4 4 -14 7 -23 6z"/>
</g>
<g>
<path d="M15128 17820 c-13 0 -34 -7 -46 -16 -12 -8 -22 -22 -22 -30 0 -8 8
-24 18 -34 18 -19 19 -19 53 -1 23 13 33 25 31 37 -2 11 -5 25 -7 32 -2 6 -15
12 -27 12z"/>
</g>
<g>
<path d="M13109 17750 c-22 0 -32 -7 -41 -25 -8 -19 -8 -28 2 -40 7 -8 23 -15
35 -15 17 0 26 9 34 31 6 17 8 35 5 40 -3 5 -19 9 -35 9z"/>
</g>
<g>
<path d="M13296 17740 c-6 0 -15 -4 -21 -8 -5 -4 -16 -14 -23 -23 -10 -14 -10
-20 3 -33 9 -9 25 -16 35 -16 10 0 20 9 23 20 3 11 3 29 0 40 -3 11 -10 20
-17 20z"/>
</g>
<g>
<path d="M16218 17723 c-12 4 -27 -3 -43 -21 -14 -15 -25 -32 -25 -39 0 -7 9
-22 20 -33 11 -11 30 -20 43 -20 13 0 28 5 35 12 7 7 12 24 12 38 0 14 -6 33
-12 42 -7 8 -21 18 -30 21z"/>
</g>
<g>
<path d="M13399 17720 c-4 0 -17 -8 -29 -18 l-21 -17 25 -24 c14 -14 31 -21
40 -18 9 4 16 17 16 30 0 13 -5 28 -12 35 -7 7 -15 12 -19 12z"/>
</g>
<g>
<path d="M12893 17670 c-16 0 -34 -5 -41 -12 -7 -7 -12 -23 -12 -36 0 -21 4
-23 38 -20 34 3 37 6 40 36 3 29 1 32 -25 32z"/>
</g>
<g>
<path d="M14405 17664 c-17 4 -34 4 -38 0 -4 -4 -7 -23 -7 -41 0 -19 6 -40 13
-48 8 -8 25 -11 43 -7 16 3 32 10 36 16 4 6 8 21 8 32 0 12 -6 26 -12 32 -7 5
-27 13 -43 16z"/>
</g>
<g>
<path d="M14906 17620 c-7 0 -17 -5 -24 -12 -7 -7 -12 -24 -12 -38 0 -14 5
-31 12 -38 7 -7 22 -12 34 -12 12 0 25 7 28 16 3 9 6 28 6 44 0 16 -7 30 -16
34 -9 3 -21 6 -28 6z"/>
</g>
<g>
<path d="M14639 17540 c-17 0 -34 -8 -43 -22 -9 -12 -16 -28 -16 -35 0 -7 4
-13 9 -13 5 0 13 -9 16 -20 3 -11 15 -20 25 -20 10 0 27 15 37 33 15 25 17 38
10 55 -7 15 -19 22 -38 22z"/>
</g>
<g>
<path d="M12731 17530 c-9 0 -24 -5 -33 -11 -11 -6 -18 -22 -18 -40 0 -17 5
-39 10 -50 7 -12 21 -19 40 -19 22 0 30 5 31 18 0 9 2 26 5 37 2 11 -1 30 -8
43 -6 12 -18 22 -27 22z"/>
</g>
<g>
<path d="M16184 17477 c-5 2 -13 0 -17 -3 -4 -4 -7 -16 -7 -26 0 -13 6 -18 18
-16 9 2 17 12 17 22 0 11 -5 21 -11 23z"/>
</g>
<g>
<path d="M16061 17449 c-3 0 -16 -4 -29 -9 -12 -5 -25 -16 -28 -25 -4 -8 -3
-26 0 -40 4 -15 18 -30 34 -36 24 -9 29 -7 49 18 14 18 21 35 17 48 -3 11 -13
26 -22 33 -9 6 -18 12 -21 11z"/>
</g>
<g>
<path d="M16726 17410 c-19 0 -38 -6 -44 -12 -5 -7 -11 -20 -13 -28 -2 -8 1
-25 5 -37 5 -15 15 -23 29 -23 12 0 28 4 35 8 7 5 17 23 22 42 5 18 7 37 4 41
-3 5 -20 9 -38 9z"/>
</g>
<g>
<path d="M15687 17269 c-12 0 -29 -3 -37 -6 -8 -3 -23 -12 -32 -21 -10 -8 -18
-21 -18 -28 0 -7 16 -22 35 -34 27 -16 39 -19 54 -11 11 6 23 20 26 32 4 11 4
31 1 45 -5 17 -13 24 -29 23z"/>
</g>
<g>
<path d="M16096 17270 c-9 0 -25 -9 -36 -20 -11 -11 -20 -26 -20 -32 0 -7 12
-22 27 -32 18 -14 30 -16 41 -9 9 5 20 21 25 36 6 20 5 31 -6 42 -9 8 -23 15
-31 15z"/>
</g>
<g>
<path d="M15810 17229 c-3 -1 -13 -3 -23 -6 -10 -3 -23 -17 -28 -31 -9 -23 -7
-30 12 -45 14 -11 29 -15 43 -11 11 4 26 14 33 23 7 9 13 26 13 37 0 14 -8 24
-22 28 -13 3 -25 5 -28 5z"/>
</g>
<g>
<path d="M12604 17204 c-14 4 -26 0 -37 -12 -9 -10 -17 -30 -17 -43 0 -14 5
-30 12 -37 7 -7 22 -12 35 -12 12 0 27 9 33 19 5 11 10 28 10 38 0 10 -4 23
-8 29 -4 6 -16 14 -28 18z"/>
</g>
<g>
<path d="M12458 16930 c-9 0 -24 -7 -32 -16 -9 -8 -16 -24 -16 -35 0 -11 6
-27 14 -35 8 -8 23 -14 33 -14 10 0 27 7 37 15 11 8 21 24 23 35 1 11 -7 26
-19 35 -13 8 -30 15 -40 15z"/>
</g>
<g>
<path d="M16246 16920 c-6 0 -18 -6 -28 -13 -9 -7 -18 -24 -20 -37 -3 -22 1
-25 32 -27 25 -2 43 4 64 21 l28 23 -32 17 c-18 9 -38 16 -44 16z"/>
</g>
<g>
<path d="M8811 16840 c-6 0 -18 -11 -27 -25 -12 -18 -14 -31 -7 -52 5 -15 22
-34 36 -41 15 -7 35 -24 44 -38 9 -14 34 -38 57 -54 23 -15 71 -57 108 -93 37
-36 75 -67 83 -71 8 -3 15 -12 15 -19 0 -8 9 -22 20 -32 11 -10 20 -23 20 -30
0 -6 18 -30 40 -53 22 -22 40 -46 40 -51 0 -6 10 -21 23 -34 12 -13 32 -35 45
-50 12 -15 22 -32 22 -37 0 -6 9 -19 21 -31 11 -11 36 -46 54 -77 18 -31 43
-67 54 -79 12 -12 21 -29 21 -37 0 -8 7 -19 15 -23 8 -5 28 -30 45 -56 16 -26
30 -54 30 -62 0 -7 4 -16 9 -20 5 -3 19 -34 31 -70 12 -36 25 -65 29 -65 4 0
15 -25 25 -56 10 -30 29 -72 43 -92 14 -20 36 -59 50 -87 14 -27 34 -61 44
-74 11 -13 19 -31 19 -40 0 -10 14 -38 30 -64 17 -26 30 -52 30 -58 0 -6 17
-48 39 -92 21 -45 44 -98 51 -117 7 -19 16 -44 21 -55 5 -11 16 -40 25 -65 9
-25 26 -79 39 -120 13 -41 31 -95 40 -120 10 -25 33 -99 52 -165 18 -66 40
-145 48 -175 7 -30 25 -107 40 -170 14 -63 30 -131 35 -150 6 -19 22 -102 36
-185 14 -82 30 -184 35 -225 4 -41 13 -104 20 -140 6 -36 12 -78 14 -95 1 -16
5 -47 9 -67 5 -21 16 -142 25 -270 10 -136 16 -306 15 -408 -2 -96 -7 -262
-11 -369 -6 -134 -12 -196 -20 -198 -7 -3 -10 -17 -6 -41 3 -20 14 -52 25 -69
11 -18 23 -33 28 -33 5 0 15 3 24 6 9 3 16 14 16 23 0 10 3 20 6 24 4 3 8 41
10 84 2 43 6 159 8 258 3 99 5 260 5 359 0 98 -5 190 -10 205 -6 14 -12 100
-14 191 -1 91 -5 196 -9 235 -3 38 -15 117 -26 175 -12 58 -28 122 -36 143 -9
25 -11 44 -5 55 6 11 4 45 -4 92 -7 41 -18 103 -24 137 -6 35 -16 75 -22 90
-6 16 -13 46 -15 68 -1 22 -7 58 -12 80 -6 22 -17 69 -26 105 -8 36 -29 127
-45 202 -17 76 -44 170 -61 209 -16 39 -30 77 -30 85 0 8 -4 22 -9 32 -5 9
-26 67 -46 127 -20 61 -43 130 -52 155 -8 25 -23 63 -33 85 -10 22 -28 65 -40
95 -12 30 -32 75 -44 100 -13 25 -32 62 -42 83 -10 20 -28 47 -39 60 -12 12
-31 49 -43 83 -13 33 -36 80 -52 105 -17 24 -30 49 -30 56 0 6 -7 24 -15 40
-8 15 -35 71 -60 125 -25 53 -75 141 -112 195 -36 54 -69 100 -72 103 -4 3
-21 24 -39 46 -17 23 -32 44 -32 47 0 3 -25 43 -55 89 -31 46 -78 108 -105
138 -27 30 -69 80 -92 110 -24 30 -51 64 -60 74 -10 11 -18 23 -18 28 0 4 -6
8 -13 8 -7 0 -51 31 -98 69 -46 39 -98 81 -115 95 -18 14 -37 26 -43 26z"/>
</g>
<g>
<path d="M12207 16780 c-21 0 -36 -7 -45 -20 -6 -11 -12 -31 -12 -44 0 -19 6
-25 33 -29 22 -4 36 0 45 11 6 9 12 31 12 49 0 31 -2 33 -33 33z"/>
</g>
<g>
<path d="M15866 16709 c-6 0 -18 -3 -26 -6 -8 -3 -18 -11 -22 -17 -4 -6 -8
-21 -8 -33 0 -12 9 -27 19 -33 11 -5 31 -10 44 -10 21 0 26 6 32 37 5 29 3 40
-11 50 -10 7 -23 13 -28 12z"/>
</g>
<g>
<path d="M12040 16559 c-3 0 -17 -5 -32 -11 -22 -7 -28 -16 -28 -38 0 -15 7
-33 14 -40 8 -6 25 -10 38 -8 17 2 25 12 32 41 8 30 7 40 -5 48 -8 5 -16 8
-19 8z"/>
</g>
<g>
<path d="M15589 16538 c-45 2 -59 -1 -73 -17 -10 -11 -16 -28 -14 -38 2 -9 15
-22 29 -27 21 -7 33 -3 71 25 26 19 45 39 44 44 -1 6 -27 11 -57 13z"/>
</g>
<g>
<path d="M12966 16500 c-11 0 -29 -5 -38 -11 -10 -5 -18 -18 -18 -28 0 -10 8
-25 18 -34 10 -10 30 -17 44 -17 21 0 28 6 33 30 4 19 2 36 -5 45 -7 8 -22 15
-34 15z"/>
</g>
<g>
<path d="M13232 16489 c-4 -1 -17 -4 -30 -6 -12 -2 -29 -18 -37 -34 -13 -23
-13 -32 -3 -49 7 -11 19 -22 26 -25 8 -3 25 -2 38 1 14 4 29 14 34 24 7 13 5
29 -5 54 -9 20 -19 35 -23 35z"/>
</g>
<g>
<path d="M12653 16458 c-18 0 -40 -6 -48 -14 -8 -9 -15 -28 -15 -43 0 -20 7
-31 25 -39 14 -7 32 -12 39 -12 7 0 22 10 34 23 12 13 22 33 22 44 0 11 -6 25
-12 30 -7 6 -28 11 -45 11z"/>
</g>
<g>
<path d="M14255 16420 c-8 0 -24 -9 -35 -20 -11 -11 -20 -26 -20 -33 0 -8 8
-21 18 -29 9 -8 25 -18 34 -21 10 -4 26 4 42 20 14 14 26 31 26 38 0 7 -11 20
-25 29 -13 9 -31 16 -40 16z"/>
</g>
<g>
<path d="M13929 16400 c-8 0 -22 -5 -31 -11 -10 -5 -18 -22 -18 -36 0 -15 7
-34 16 -44 15 -17 19 -17 45 -3 19 9 29 22 29 37 0 12 -7 30 -14 40 -7 9 -19
17 -27 17z"/>
</g>
<g>
<path d="M13595 16380 c-29 0 -36 -4 -41 -27 -4 -14 -2 -33 3 -42 6 -9 23 -16
39 -16 20 0 32 7 41 24 8 17 9 31 2 43 -6 12 -21 18 -44 18z"/>
</g>
<g>
<path d="M14561 16380 c-15 0 -23 -10 -30 -36 -5 -19 -7 -42 -4 -50 3 -8 15
-14 27 -14 13 0 32 10 44 23 12 13 22 31 22 40 0 9 -9 21 -19 27 -11 5 -29 10
-40 10z"/>
</g>
<g>
<path d="M12357 16360 c-8 0 -21 -8 -30 -18 -10 -10 -17 -26 -17 -35 0 -9 5
-17 10 -17 6 0 10 -6 10 -14 0 -8 9 -21 21 -29 11 -8 30 -12 42 -9 12 3 28 12
35 19 9 8 11 24 7 43 -5 22 -13 30 -28 31 -12 1 -25 1 -29 0 -5 0 -8 6 -8 14
0 8 -6 15 -13 15z"/>
</g>
<g>
<path d="M12126 16350 c-8 0 -24 -12 -35 -26 -12 -15 -21 -31 -21 -35 0 -5 5
-9 10 -9 6 0 10 -7 10 -15 0 -8 14 -17 35 -21 19 -3 47 -3 61 0 25 7 25 8 10
31 -9 13 -16 31 -16 39 0 9 -9 20 -19 26 -11 5 -26 10 -35 10z"/>
</g>
<g>
<path d="M7631 15950 c-11 0 -24 -12 -31 -29 -6 -16 -10 -37 -8 -47 1 -9 10
-20 18 -24 8 -4 27 -13 41 -20 14 -6 47 -31 75 -56 27 -24 88 -81 136 -127 48
-45 88 -84 88 -87 0 -3 32 -39 71 -80 39 -41 81 -91 93 -110 13 -19 31 -41 40
-49 9 -7 16 -18 16 -23 0 -5 10 -23 23 -41 12 -18 34 -47 50 -65 15 -18 27
-38 27 -44 0 -7 23 -58 50 -114 28 -56 50 -109 50 -118 0 -8 6 -19 13 -23 7
-4 21 -28 31 -53 11 -25 32 -73 48 -108 15 -35 28 -68 28 -73 0 -6 11 -34 24
-62 13 -29 36 -83 51 -122 15 -38 38 -104 50 -145 13 -41 33 -100 45 -130 12
-30 29 -77 37 -105 8 -27 21 -65 29 -83 8 -18 14 -45 14 -60 0 -16 4 -32 9
-38 5 -5 19 -45 31 -89 12 -43 24 -97 27 -119 2 -22 6 -43 9 -47 2 -4 11 -60
19 -125 9 -66 22 -168 30 -229 8 -60 18 -148 22 -195 4 -47 8 -229 8 -405 0
-281 -3 -329 -19 -391 -11 -42 -16 -82 -12 -98 4 -16 17 -31 32 -36 16 -7 32
-7 44 0 10 6 18 18 18 28 -1 9 4 36 11 58 6 24 11 110 11 205 -1 90 -1 178 -2
194 -1 17 0 93 1 171 2 77 -2 158 -8 180 -6 21 -13 84 -16 139 -3 55 -7 138
-9 185 -2 47 -17 175 -34 285 -17 110 -38 219 -46 242 -8 23 -21 52 -30 65 -8
13 -18 50 -22 82 -3 32 -13 71 -20 85 -8 14 -14 34 -14 44 0 9 -4 25 -9 35 -4
9 -15 31 -23 47 -9 17 -21 55 -28 85 -7 30 -24 87 -38 125 -13 39 -37 97 -52
130 -15 33 -35 81 -43 106 -9 25 -31 79 -50 120 -19 41 -38 85 -42 99 -4 14
-26 63 -49 110 -24 47 -48 94 -54 105 -6 11 -32 63 -57 115 -26 52 -55 104
-65 115 -10 11 -34 45 -53 75 -19 30 -59 82 -87 115 -29 33 -63 67 -74 75 -12
8 -40 35 -63 60 -24 25 -43 49 -43 53 0 4 -17 24 -38 45 -21 20 -58 53 -83 73
-24 20 -54 39 -66 43 -11 4 -24 13 -27 21 -3 8 -12 15 -21 15 -8 0 -15 4 -15
8 0 5 -11 14 -25 20 -14 7 -34 12 -44 12z"/>
</g>
<g>
<path d="M3320 15844 c-162 2 -329 0 -370 -5 -41 -4 -102 -12 -135 -18 -33 -6
-80 -15 -105 -21 -25 -6 -74 -15 -110 -20 -36 -5 -101 -18 -145 -29 -43 -12
-83 -28 -88 -36 -4 -8 -15 -15 -23 -15 -8 0 -24 -5 -37 -12 -12 -6 -29 -15
-37 -20 -8 -5 -30 -15 -47 -23 -18 -9 -33 -19 -33 -23 0 -4 -17 -14 -37 -21
-20 -8 -61 -30 -91 -50 -29 -20 -68 -44 -85 -53 -18 -10 -42 -30 -53 -44 -12
-15 -27 -24 -32 -20 -6 4 -28 -8 -49 -26 -21 -19 -50 -40 -65 -47 -16 -8 -28
-20 -28 -28 0 -7 -7 -13 -17 -13 -9 0 -72 -57 -140 -127 -67 -70 -123 -130
-123 -135 0 -5 -24 -33 -52 -62 -29 -29 -66 -79 -82 -111 -16 -32 -37 -66 -48
-77 -10 -10 -18 -24 -18 -31 0 -8 -9 -22 -20 -32 -11 -10 -20 -22 -20 -28 0
-5 -14 -29 -30 -54 -17 -24 -37 -60 -45 -79 -8 -19 -11 -34 -8 -34 3 0 -1 -10
-10 -23 -8 -12 -18 -38 -22 -57 -4 -19 -12 -43 -18 -55 -5 -11 -14 -28 -19
-37 -4 -10 -8 -26 -8 -36 0 -11 -9 -27 -19 -36 -13 -12 -22 -38 -27 -73 -3
-29 -12 -59 -18 -66 -7 -7 -19 -28 -29 -49 -9 -20 -17 -46 -17 -57 0 -12 -6
-32 -14 -44 -8 -12 -15 -44 -14 -70 0 -26 -6 -54 -12 -62 -6 -7 -14 -40 -17
-72 -3 -32 -9 -63 -14 -68 -4 -6 -6 -76 -4 -155 2 -86 10 -172 19 -211 9 -37
18 -86 21 -110 3 -24 10 -73 15 -109 6 -36 20 -101 31 -145 11 -44 27 -107 35
-139 8 -32 23 -75 34 -95 10 -20 28 -70 41 -111 12 -41 37 -115 56 -165 19
-49 40 -103 47 -120 8 -16 21 -46 29 -65 9 -19 22 -46 30 -60 8 -14 22 -41 32
-60 10 -19 33 -54 52 -77 18 -23 33 -45 33 -50 0 -5 66 -76 148 -158 81 -82
192 -188 247 -238 55 -49 116 -97 135 -108 19 -11 44 -25 54 -32 11 -6 25 -15
30 -19 6 -4 25 -18 41 -31 17 -13 55 -36 85 -52 30 -15 73 -38 95 -50 22 -13
47 -24 56 -24 9 -1 24 -10 33 -20 10 -10 38 -22 64 -26 26 -4 59 -13 73 -21
15 -7 29 -11 32 -8 3 3 13 1 24 -4 10 -5 29 -15 43 -21 14 -6 57 -20 95 -32
39 -12 75 -26 82 -31 7 -5 16 -7 21 -4 5 3 27 -4 48 -15 21 -11 88 -39 149
-61 60 -22 124 -49 142 -59 19 -11 44 -19 56 -19 13 0 27 -4 33 -10 5 -5 37
-15 69 -20 33 -6 69 -15 80 -20 11 -4 35 -13 54 -19 18 -6 36 -9 40 -6 4 2 34
6 67 9 32 2 79 11 104 19 25 7 98 15 163 16 71 2 135 8 159 17 22 8 49 14 60
14 10 0 38 9 60 20 23 11 48 20 56 20 8 0 46 12 85 26 39 14 76 29 82 33 5 4
30 13 55 20 25 7 54 17 65 22 11 5 38 21 60 34 22 14 45 25 50 25 6 0 19 -15
31 -33 11 -17 27 -63 33 -102 7 -38 17 -80 22 -93 5 -13 9 -41 9 -63 0 -22 5
-49 11 -60 6 -11 15 -44 20 -72 6 -29 11 -63 12 -77 2 -21 -7 -29 -59 -55 -34
-16 -68 -35 -75 -42 -8 -6 -28 -15 -44 -19 -17 -3 -41 -13 -55 -20 -14 -8 -61
-30 -105 -49 -44 -20 -86 -42 -95 -50 -8 -7 -42 -23 -75 -35 -33 -12 -82 -33
-108 -46 -27 -13 -54 -24 -60 -24 -7 0 -39 -11 -72 -24 -33 -13 -84 -32 -114
-41 -30 -9 -67 -17 -82 -17 -15 -1 -30 -7 -33 -15 -3 -7 -12 -13 -20 -13 -9 0
-18 -12 -22 -27 -3 -16 -15 -55 -26 -88 -11 -33 -21 -71 -23 -85 -2 -14 -7
-41 -11 -60 -4 -19 -11 -41 -17 -48 -5 -7 -21 -54 -34 -105 -14 -50 -27 -103
-30 -117 -3 -14 -11 -32 -18 -40 -7 -8 -16 -34 -20 -57 -4 -24 -11 -45 -16
-49 -5 -3 -9 -16 -9 -29 0 -13 -4 -26 -9 -29 -5 -3 -12 -18 -16 -33 -3 -16
-24 -64 -45 -108 -21 -44 -51 -110 -65 -147 -15 -36 -28 -77 -30 -90 -2 -13
-19 -61 -39 -108 -20 -47 -41 -86 -46 -88 -6 -2 -10 -11 -10 -21 0 -9 -6 -25
-14 -36 -7 -11 -17 -31 -21 -45 -4 -14 -18 -50 -32 -80 -13 -30 -30 -68 -38
-83 -8 -16 -15 -39 -15 -51 0 -13 -10 -38 -23 -57 -12 -19 -36 -63 -54 -99
-17 -36 -40 -87 -51 -115 -11 -27 -26 -72 -33 -100 -6 -27 -18 -57 -24 -65 -7
-8 -24 -39 -39 -68 -14 -30 -26 -64 -26 -76 0 -13 -10 -36 -22 -51 -12 -15
-29 -59 -39 -99 -10 -39 -27 -96 -37 -126 -11 -30 -30 -80 -42 -110 -12 -30
-26 -75 -30 -100 -5 -25 -22 -92 -40 -150 -17 -58 -38 -129 -47 -159 -9 -30
-25 -70 -35 -90 -10 -19 -18 -43 -18 -53 0 -9 -9 -41 -21 -70 -11 -29 -21 -66
-21 -83 -1 -16 -12 -44 -25 -61 -12 -17 -23 -37 -23 -45 0 -8 -4 -19 -8 -25
-5 -5 -20 -40 -35 -79 -15 -38 -31 -89 -37 -111 -5 -23 -21 -57 -34 -77 -13
-19 -22 -38 -19 -40 2 -3 -7 -27 -21 -54 -13 -27 -31 -55 -40 -62 -8 -7 -17
-24 -21 -39 -3 -15 -18 -52 -34 -83 -16 -31 -32 -63 -37 -70 -5 -8 -18 -44
-30 -81 l-22 -68 24 -25 c13 -14 27 -25 33 -25 5 0 19 12 30 26 12 15 26 45
32 67 6 22 14 47 19 56 5 9 30 60 55 114 25 55 52 106 60 114 9 8 22 28 31 44
8 16 12 34 9 39 -3 6 1 19 9 31 8 12 12 27 10 33 -2 6 25 92 62 191 36 99 81
230 100 290 19 61 40 121 45 135 6 14 22 59 35 100 14 41 38 127 55 190 17 63
34 129 38 146 5 18 11 37 15 43 4 6 13 39 21 73 8 35 30 110 50 168 20 58 40
110 45 115 4 6 11 21 15 35 4 14 15 43 25 65 10 22 28 63 40 90 12 28 29 66
37 85 8 19 21 48 29 63 8 16 14 33 14 38 0 5 18 49 41 97 23 48 56 122 75 164
19 42 37 91 40 107 4 17 13 36 20 42 8 6 14 16 14 21 0 6 6 24 14 41 7 18 30
70 51 117 20 47 48 108 61 136 13 28 24 56 24 63 0 6 4 19 10 29 5 9 17 35 26
57 9 22 29 67 44 100 15 33 33 77 39 97 7 20 19 42 27 48 7 7 14 22 14 34 0
12 16 62 36 111 19 50 39 99 45 110 5 11 18 47 30 80 11 33 27 85 35 115 9 30
20 62 25 70 6 11 9 5 11 -20 1 -19 3 -69 4 -110 2 -41 5 -93 8 -115 3 -22 7
-58 10 -80 2 -22 9 -86 14 -142 6 -57 16 -122 23 -145 6 -24 18 -72 25 -108 8
-36 14 -79 14 -95 0 -17 7 -58 16 -90 8 -33 20 -96 25 -140 5 -44 16 -170 23
-280 8 -110 19 -220 24 -245 6 -25 16 -106 22 -180 7 -74 15 -139 20 -145 4
-5 10 -28 14 -50 3 -22 8 -81 11 -131 3 -50 10 -113 16 -140 6 -27 12 -62 14
-79 2 -16 6 -97 10 -180 4 -82 11 -159 15 -170 5 -11 11 -85 14 -165 3 -80 9
-194 15 -255 6 -60 15 -168 21 -240 6 -71 15 -177 21 -235 5 -58 12 -161 15
-230 3 -69 10 -150 15 -180 5 -30 12 -116 14 -190 3 -74 5 -144 6 -155 1 -11
5 -56 9 -100 5 -44 12 -132 16 -195 3 -63 5 -131 4 -150 -2 -19 -3 -78 -2
-130 0 -52 3 -156 7 -230 4 -74 6 -225 4 -335 -1 -110 -2 -260 -1 -333 1 -73
4 -145 7 -160 4 -15 8 -99 11 -187 3 -88 7 -223 9 -300 2 -77 4 -210 4 -295 0
-85 -1 -162 -1 -170 0 -8 2 -46 6 -85 3 -38 11 -171 18 -295 7 -124 12 -324
10 -445 -1 -121 -3 -240 -6 -265 -2 -25 1 -51 6 -58 7 -8 8 -52 4 -125 -4 -61
-7 -123 -7 -137 0 -14 2 -52 4 -85 3 -33 5 -63 6 -67 1 -4 14 -14 29 -22 16
-8 37 -13 48 -12 10 2 30 -4 44 -14 14 -9 39 -20 55 -24 17 -4 42 -10 57 -13
15 -3 33 -11 39 -19 6 -8 18 -14 25 -14 8 0 22 -4 32 -9 9 -5 43 -22 74 -37
32 -15 58 -31 58 -36 0 -4 6 -8 14 -8 7 0 19 -6 25 -14 6 -7 27 -16 46 -19 19
-3 65 -20 102 -38 37 -18 70 -35 73 -39 3 -4 22 -12 42 -18 28 -8 41 -7 55 3
17 13 17 15 1 43 -10 17 -18 39 -18 49 0 10 -5 24 -12 31 -7 7 -25 12 -41 12
-15 0 -81 25 -145 56 -64 31 -135 63 -157 71 -22 7 -49 20 -60 27 -11 7 -38
19 -60 26 -22 7 -44 16 -50 20 -5 5 -44 20 -85 34 -41 14 -83 36 -93 47 -16
20 -17 48 -17 308 1 157 -1 360 -4 451 -3 91 -8 273 -11 405 -3 132 -10 292
-15 355 -5 63 -12 228 -14 365 -3 138 -10 356 -15 485 -6 129 -13 397 -17 595
-3 198 -8 425 -10 505 -1 80 -10 255 -18 390 -9 135 -20 319 -26 410 -5 91
-15 222 -21 292 -6 70 -9 133 -6 140 2 8 20 21 38 30 19 9 54 25 79 36 25 11
55 23 68 26 12 4 22 13 22 20 0 8 18 16 42 20 23 4 47 11 53 15 5 5 42 19 80
32 39 12 81 31 94 41 13 10 32 18 43 18 10 0 39 11 64 25 25 14 56 25 70 25
13 0 35 6 47 14 12 8 42 21 67 30 25 8 74 22 110 30 36 9 70 23 75 30 6 7 31
23 57 35 26 11 51 21 56 21 5 0 15 7 22 15 7 8 19 15 26 15 7 0 39 12 71 26
32 14 72 32 88 39 17 7 69 42 116 78 47 35 97 70 110 77 13 8 29 19 34 26 6 8
35 26 65 42 30 16 80 45 111 65 31 20 59 33 63 30 3 -4 6 -1 6 5 0 7 5 12 10
12 6 0 28 11 50 25 22 14 46 25 55 25 9 0 15 -9 16 -22 0 -13 2 -34 4 -48 2
-14 8 -49 14 -78 5 -29 10 -109 10 -178 0 -69 3 -129 5 -133 3 -4 7 -30 10
-57 3 -27 10 -80 15 -119 6 -38 15 -140 21 -225 6 -85 13 -171 16 -190 3 -19
8 -39 11 -43 2 -4 5 -44 5 -88 0 -44 5 -93 12 -109 7 -18 9 -53 6 -97 -3 -38
0 -110 7 -163 8 -52 18 -130 23 -172 5 -43 11 -82 14 -86 3 -5 8 -38 10 -73 3
-35 10 -121 15 -191 6 -70 13 -138 16 -150 2 -13 7 -63 9 -113 3 -49 7 -112
10 -140 3 -27 8 -96 11 -153 3 -57 10 -113 16 -125 7 -11 13 -53 14 -91 2 -39
8 -91 13 -116 6 -25 10 -81 11 -125 0 -45 5 -93 10 -108 6 -15 13 -58 16 -95
3 -37 7 -118 10 -180 2 -62 9 -130 15 -153 6 -22 10 -48 9 -57 -1 -9 -1 -21 0
-27 1 -5 2 -65 1 -132 -1 -82 3 -124 11 -128 7 -5 9 -22 5 -47 -4 -22 -2 -76
4 -121 5 -45 16 -156 24 -247 8 -91 18 -198 21 -238 3 -40 10 -85 16 -99 5
-14 8 -50 7 -80 -2 -50 0 -58 26 -80 19 -16 36 -23 51 -19 12 3 30 -1 41 -9
10 -8 27 -15 37 -15 11 0 53 -12 95 -27 43 -14 81 -30 86 -35 6 -4 22 -8 37
-8 15 0 31 -4 34 -10 3 -5 21 -16 40 -25 19 -8 50 -21 68 -29 18 -8 48 -26 68
-39 20 -13 53 -27 75 -31 21 -4 44 -11 49 -16 6 -4 26 -10 45 -12 35 -3 35 -3
38 39 3 36 -1 47 -24 68 -15 14 -34 23 -42 20 -8 -3 -22 1 -31 9 -9 8 -44 24
-78 35 -35 12 -88 35 -118 51 -31 17 -95 45 -143 64 -49 19 -100 38 -115 41
-15 4 -30 11 -33 16 -3 5 -12 9 -21 9 -9 0 -34 8 -55 17 -24 11 -37 22 -33 30
2 8 -2 43 -10 78 -9 36 -18 89 -21 117 -2 29 -9 107 -14 173 -5 66 -16 190
-25 275 -9 85 -20 209 -25 275 -5 66 -16 174 -24 240 -8 66 -18 161 -21 210
-3 50 -8 115 -10 145 -2 30 -7 93 -10 140 -4 46 -9 88 -12 93 -2 4 -7 54 -9
110 -3 56 -9 127 -14 157 -5 30 -14 102 -19 160 -6 58 -17 161 -25 230 -8 69
-19 193 -26 275 -6 83 -15 186 -21 230 -5 44 -12 96 -14 115 -1 19 -6 58 -9
85 -4 28 -13 120 -21 205 -9 85 -17 207 -19 270 -2 63 -8 158 -15 210 -6 52
-20 176 -31 275 -11 99 -24 209 -30 245 -5 36 -14 141 -20 234 -6 93 -18 188
-25 210 -8 22 -12 43 -10 46 3 4 -2 56 -10 116 -8 60 -21 145 -30 189 -8 44
-15 112 -15 150 0 39 -7 115 -15 170 -8 55 -21 123 -29 150 -8 28 -20 68 -26
90 -6 22 -18 78 -26 125 -8 47 -18 112 -23 145 -5 33 -14 74 -21 90 -6 17 -16
98 -21 180 -5 83 -14 177 -20 210 -5 33 -12 78 -14 100 -2 22 -7 74 -10 115
-3 41 -7 111 -10 155 -3 44 -9 107 -14 140 -5 33 -9 71 -9 85 1 14 -2 61 -5
105 -4 44 -12 103 -18 130 -6 28 -22 88 -35 135 -14 47 -30 103 -35 125 -6 22
-10 50 -10 63 0 12 1 30 2 40 0 9 -2 49 -6 87 -4 39 -9 77 -12 85 -3 8 -5 47
-4 85 1 39 -3 93 -9 120 -6 28 -15 81 -21 118 -6 38 -9 73 -7 79 2 5 11 -5 20
-23 9 -19 24 -51 32 -71 9 -20 19 -50 22 -67 4 -17 11 -34 15 -37 5 -3 9 -16
9 -29 0 -13 4 -26 9 -29 5 -3 11 -18 14 -33 3 -16 23 -77 45 -138 21 -60 45
-123 51 -140 7 -16 21 -48 31 -70 10 -22 22 -51 26 -65 3 -14 20 -51 35 -82
16 -32 29 -66 29 -77 0 -11 5 -23 10 -26 6 -3 10 -13 10 -22 0 -8 6 -29 13
-46 8 -18 19 -48 25 -67 6 -19 13 -51 17 -70 4 -19 11 -40 16 -46 4 -5 18 -50
29 -100 12 -49 27 -107 35 -129 7 -22 21 -57 29 -77 9 -21 21 -38 27 -38 6 0
9 -6 6 -14 -3 -8 2 -37 13 -65 10 -27 16 -52 13 -54 -2 -3 6 -24 19 -48 13
-24 33 -73 46 -109 13 -36 30 -85 39 -110 8 -25 33 -97 55 -160 22 -63 47
-122 54 -131 8 -9 12 -18 8 -21 -3 -3 4 -21 15 -39 12 -19 21 -50 21 -69 0
-29 5 -37 30 -48 16 -8 38 -12 47 -10 12 2 18 12 17 28 -1 14 4 28 11 32 10 6
4 30 -27 100 -22 51 -51 115 -64 142 -13 28 -24 57 -24 67 0 9 -16 51 -35 93
-20 42 -52 127 -72 189 -19 62 -38 117 -42 122 -4 6 -13 30 -20 55 -7 25 -31
92 -53 150 -22 58 -44 109 -49 115 -5 5 -9 19 -9 31 0 11 -10 37 -23 56 -13
18 -29 49 -35 67 -7 19 -12 36 -12 38 0 2 5 1 10 -2 6 -3 10 -2 10 4 0 5 -7
17 -16 26 -10 10 -14 24 -10 38 3 12 -4 56 -15 97 -12 41 -27 89 -34 105 -7
17 -22 57 -35 90 -13 33 -27 64 -32 70 -4 5 -8 15 -8 23 0 7 -18 50 -40 95
-21 45 -53 125 -70 177 -17 52 -33 103 -35 113 -2 10 -9 35 -16 55 -6 20 -15
46 -19 57 -5 11 -17 41 -29 67 -12 26 -21 53 -21 59 0 6 -6 23 -14 37 -8 15
-30 61 -49 102 -20 41 -45 100 -56 130 -11 30 -26 79 -32 108 -6 29 -23 67
-37 85 -14 18 -27 34 -28 35 -2 2 -16 1 -33 -3 -21 -4 -32 -15 -40 -35 -6 -19
-22 -34 -45 -44 -20 -8 -36 -20 -36 -25 0 -6 -8 -11 -18 -11 -10 0 -41 -21
-68 -46 -27 -25 -69 -57 -94 -70 -25 -14 -79 -44 -121 -67 -41 -23 -86 -52
-98 -63 -12 -12 -52 -34 -89 -49 -37 -15 -84 -34 -106 -43 -36 -15 -39 -15
-52 3 -8 10 -14 29 -14 41 0 12 -9 48 -19 80 -11 33 -26 75 -34 94 -8 19 -18
53 -21 75 -3 22 -9 52 -12 68 -3 15 -10 27 -15 27 -5 0 -9 10 -9 22 0 12 -5
36 -12 54 -9 26 -9 36 1 48 7 9 28 18 47 22 19 3 37 10 40 15 2 5 35 25 72 46
37 21 76 44 87 53 11 8 47 41 80 72 33 32 88 80 123 108 35 28 83 77 108 108
25 31 48 64 51 72 3 8 14 24 23 35 10 11 33 49 52 85 19 36 46 84 61 107 14
23 47 81 72 129 25 48 45 96 45 106 0 10 12 42 26 71 14 28 48 115 76 192 28
77 57 167 64 200 8 33 19 87 25 120 6 33 15 83 21 110 5 28 14 154 19 280 6
158 6 261 -2 330 -6 55 -17 132 -25 170 -7 39 -19 88 -25 110 -6 22 -16 51
-21 65 -6 14 -14 33 -19 42 -5 10 -9 28 -9 41 0 12 -15 58 -34 102 -18 44 -34
85 -34 90 -1 6 -11 33 -23 60 -12 28 -25 59 -30 70 -4 11 -19 47 -34 80 -14
33 -30 68 -36 78 -6 10 -19 37 -30 60 -11 23 -26 53 -34 67 -8 14 -27 50 -42
80 -16 30 -45 81 -66 112 -20 31 -37 61 -37 66 0 5 -23 39 -50 76 -28 36 -55
66 -61 66 -5 0 -12 7 -16 17 -3 9 -47 58 -97 109 -50 51 -142 145 -205 209
-62 64 -127 125 -145 136 -17 10 -39 19 -48 19 -10 0 -18 5 -18 10 0 6 -6 10
-13 10 -8 0 -24 11 -37 25 -13 14 -28 25 -33 25 -5 0 -23 10 -40 23 -17 12
-65 39 -106 60 -41 20 -81 37 -88 37 -8 0 -26 8 -41 17 -15 9 -34 24 -44 34
-9 9 -40 19 -70 23 -29 4 -63 13 -74 21 -12 8 -59 21 -105 30 -46 9 -122 23
-169 31 -58 10 -179 16 -380 18z m-35 -91 c22 -2 81 -6 130 -8 50 -2 131 -6
180 -10 50 -4 95 -11 100 -16 6 -4 40 -13 75 -18 36 -6 87 -18 114 -26 26 -8
52 -12 57 -9 5 2 22 -2 40 -11 17 -9 56 -25 87 -35 31 -9 97 -37 145 -61 48
-24 100 -50 115 -58 15 -8 31 -20 35 -28 4 -7 15 -13 24 -13 8 0 37 -16 63
-35 26 -19 50 -35 52 -35 2 0 26 -19 53 -42 27 -24 101 -95 163 -158 63 -63
153 -158 200 -210 47 -52 105 -126 130 -165 25 -38 63 -101 84 -140 22 -38 53
-99 70 -135 16 -36 34 -66 39 -68 5 -2 9 -8 9 -13 0 -6 12 -36 26 -67 15 -31
42 -91 60 -134 19 -42 34 -83 34 -92 0 -8 4 -18 10 -21 5 -3 17 -30 25 -59 9
-29 22 -61 30 -72 8 -10 15 -29 15 -42 0 -12 9 -40 20 -62 11 -22 27 -65 36
-97 8 -32 22 -86 29 -120 7 -33 16 -92 20 -130 4 -37 9 -84 11 -103 2 -19 4
-118 4 -219 0 -101 -2 -186 -4 -190 -2 -3 -9 -58 -16 -121 -7 -63 -15 -119
-19 -125 -4 -5 -16 -39 -26 -75 -10 -36 -30 -96 -46 -135 -15 -38 -40 -104
-55 -145 -15 -41 -34 -84 -41 -95 -7 -11 -13 -29 -13 -42 0 -12 -4 -24 -9 -27
-5 -3 -12 -22 -16 -43 -3 -20 -30 -75 -58 -122 -29 -47 -59 -98 -67 -113 -8
-15 -30 -53 -49 -85 -19 -32 -48 -75 -65 -97 -17 -21 -71 -80 -121 -130 -49
-50 -128 -120 -174 -154 -46 -35 -112 -80 -148 -100 -36 -20 -84 -47 -107 -60
-22 -13 -66 -36 -96 -52 -30 -15 -71 -35 -90 -43 -19 -9 -78 -30 -129 -47 -52
-17 -122 -42 -155 -55 -34 -13 -95 -33 -136 -44 -41 -12 -89 -21 -107 -21 -17
0 -34 4 -37 9 -3 5 -28 7 -55 6 -28 -2 -60 -10 -73 -18 -13 -8 -54 -20 -93
-27 -51 -9 -99 -9 -175 -2 -58 5 -136 17 -175 26 -38 8 -88 21 -110 27 -22 7
-94 32 -160 57 -66 24 -163 60 -215 79 -52 19 -111 39 -130 45 -19 5 -39 14
-44 19 -6 5 -19 9 -31 9 -11 0 -37 9 -58 20 -20 11 -47 20 -60 20 -13 0 -27 4
-33 8 -5 5 -38 19 -74 32 -36 13 -76 32 -89 42 -13 10 -30 18 -38 18 -8 0 -29
11 -47 25 -18 14 -36 25 -40 25 -5 0 -22 10 -39 23 -17 12 -39 27 -48 32 -9 6
-44 29 -78 53 -34 24 -74 55 -90 70 -16 15 -97 92 -181 172 -84 80 -182 181
-217 225 -36 44 -71 94 -79 112 -7 17 -27 54 -43 81 -16 27 -32 60 -36 73 -4
13 -14 35 -23 49 -9 14 -22 41 -29 60 -7 19 -13 44 -13 56 0 11 -3 24 -6 27
-4 4 -21 48 -39 99 -18 51 -42 116 -53 143 -11 28 -26 70 -32 95 -7 25 -19 63
-26 85 -7 22 -18 74 -24 115 -6 41 -15 98 -20 125 -5 28 -14 79 -20 115 -6 36
-17 107 -25 159 -8 51 -13 97 -10 101 3 5 10 32 16 62 5 29 12 81 14 115 3 34
16 105 30 158 14 52 34 110 44 128 10 18 21 51 25 75 3 24 14 55 24 70 9 14
16 26 14 27 -2 0 1 13 7 28 6 16 19 49 30 75 10 26 26 68 35 93 9 25 25 55 36
67 11 12 20 28 20 36 0 8 4 17 9 20 5 3 12 18 15 32 4 15 18 41 31 58 13 17
27 44 31 59 3 16 21 48 39 72 18 23 39 53 46 66 7 13 23 32 36 42 12 10 23 24
23 30 0 7 28 42 63 77 34 36 76 83 94 105 17 22 57 61 89 85 32 25 80 66 107
91 26 26 65 58 87 73 22 14 43 26 48 26 4 0 22 12 39 26 18 14 47 34 65 45 18
10 58 31 88 47 30 15 59 33 63 40 4 6 15 12 24 12 9 0 41 14 71 31 30 17 88
42 128 55 41 13 100 29 131 35 32 6 72 12 88 14 17 1 37 5 45 8 8 3 39 8 69
11 29 3 58 9 65 15 6 5 31 12 56 16 25 4 113 11 195 15 83 4 168 5 190 3z
m2168 -4653 c4 0 7 -11 7 -25 0 -14 4 -44 9 -67 6 -24 15 -65 21 -93 5 -27 17
-117 26 -200 8 -82 21 -211 29 -285 7 -74 16 -144 18 -155 3 -11 10 -51 16
-90 6 -38 18 -131 27 -205 9 -74 20 -143 26 -154 5 -10 19 -66 30 -125 11 -58
22 -119 24 -136 3 -16 12 -75 20 -130 8 -55 18 -120 23 -145 4 -25 4 -56 1
-70 -4 -14 -3 -38 2 -55 4 -16 8 -54 8 -82 0 -29 4 -53 9 -53 4 0 12 -44 16
-97 3 -54 9 -147 11 -208 2 -60 16 -184 30 -275 14 -91 27 -181 30 -200 3 -19
12 -73 20 -120 9 -47 20 -92 24 -101 5 -9 12 -57 15 -105 4 -49 16 -141 27
-204 11 -63 22 -126 24 -140 3 -14 7 -50 11 -81 l5 -57 -36 -17 c-20 -10 -36
-21 -36 -26 0 -5 -9 -9 -19 -9 -11 0 -22 -4 -25 -9 -3 -4 -33 -25 -67 -45 -33
-20 -67 -36 -74 -36 -8 0 -29 -13 -47 -30 -18 -16 -38 -30 -44 -30 -6 0 -47
-25 -90 -56 -43 -31 -97 -69 -119 -85 -22 -17 -54 -36 -71 -44 -17 -8 -36 -21
-44 -29 -7 -9 -17 -16 -22 -16 -6 0 -47 -18 -92 -40 -44 -23 -92 -47 -106 -54
-14 -8 -61 -28 -105 -45 -44 -18 -88 -34 -99 -36 -10 -2 -23 -8 -30 -13 -6 -6
-30 -13 -53 -17 -24 -4 -45 -11 -48 -15 -3 -5 -54 -25 -113 -44 -59 -19 -123
-41 -142 -48 -19 -7 -48 -22 -65 -34 -16 -11 -40 -24 -52 -28 -13 -4 -29 -13
-36 -20 -7 -8 -59 -30 -116 -50 -57 -20 -114 -36 -127 -36 -22 0 -24 4 -25 58
-1 31 -1 59 -1 62 0 3 -4 43 -9 90 -5 47 -16 168 -24 270 -9 102 -20 248 -26
325 -5 77 -14 180 -19 228 -5 49 -6 95 -4 102 3 8 1 36 -5 62 -5 27 -17 107
-26 178 -8 72 -22 164 -30 205 -8 41 -17 100 -20 130 -3 30 -13 127 -21 215
-9 88 -20 232 -24 320 -5 88 -13 201 -18 250 -6 50 -13 97 -16 105 -3 8 -7 33
-10 55 -2 22 -12 87 -21 144 -9 58 -18 108 -20 111 -3 4 -7 29 -10 56 -2 27
-11 112 -20 189 -8 77 -17 228 -20 335 l-5 196 32 16 c18 8 65 31 103 50 39
20 96 47 128 62 32 14 62 26 67 26 6 0 20 5 33 12 12 6 30 15 39 20 10 4 23 8
29 8 6 0 68 27 137 60 70 34 135 65 144 70 10 6 24 10 31 10 8 0 32 13 53 28
22 16 69 43 106 60 36 18 95 41 131 52 37 11 69 25 72 30 3 6 27 20 53 31 26
12 70 32 97 46 28 13 79 43 115 65 36 23 116 75 177 117 62 42 130 86 150 98
21 13 41 23 46 23z"/>
<g>
<path d="M4259 15425 c-19 2 -48 0 -66 -6 -18 -5 -44 -24 -58 -43 -16 -20 -25
-46 -25 -68 0 -24 9 -44 28 -66 15 -17 40 -36 56 -41 15 -6 40 -11 55 -11 17
0 38 11 56 30 24 25 29 40 32 87 3 49 0 62 -20 86 -15 17 -36 29 -58 32z"/>
</g>
<g>
<path d="M2408 14586 c-20 4 -38 2 -42 -4 -3 -5 -20 -13 -38 -16 -23 -4 -41
-17 -57 -41 -24 -35 -24 -36 -6 -76 10 -22 32 -52 48 -65 25 -21 36 -24 71
-19 23 4 55 14 73 22 19 9 36 26 42 45 6 17 11 43 11 58 0 16 -12 38 -33 58
-20 19 -48 35 -69 38z"/>
</g>
<g>
<path d="M3731 14590 c-11 0 -29 -8 -41 -18 -18 -14 -21 -25 -16 -45 3 -14 18
-34 33 -44 14 -10 46 -38 71 -62 25 -23 75 -67 111 -96 36 -29 75 -62 85 -74
11 -11 25 -21 33 -21 7 0 13 -4 13 -9 0 -5 18 -22 40 -38 21 -15 44 -39 50
-53 6 -14 26 -38 45 -53 19 -15 35 -33 35 -40 0 -7 -18 -37 -40 -67 -22 -30
-51 -72 -65 -92 -14 -21 -31 -38 -39 -38 -7 0 -20 -8 -29 -18 -10 -10 -17 -27
-17 -38 0 -10 7 -27 15 -37 10 -14 21 -17 44 -12 22 5 50 30 98 86 37 44 87
104 110 132 27 32 41 58 38 69 -3 9 -1 19 5 23 5 3 10 13 10 22 0 9 -24 38
-52 65 -29 27 -72 63 -95 80 -24 17 -43 35 -43 39 0 5 -18 26 -41 49 -22 22
-47 40 -54 40 -7 0 -33 21 -57 48 -23 26 -61 59 -83 74 -22 15 -64 50 -93 78
-29 27 -61 50 -71 50z"/>
</g>
<g>
<path d="M5027 13610 c-35 0 -66 -3 -70 -6 -3 -4 -27 -8 -53 -10 -28 -2 -61
-12 -84 -28 -21 -14 -50 -28 -64 -32 -15 -3 -29 -10 -32 -15 -3 -5 -15 -9 -28
-9 -12 0 -56 -9 -97 -20 -41 -11 -96 -31 -124 -45 -27 -13 -57 -25 -66 -25 -9
0 -22 -7 -29 -15 -7 -8 -21 -15 -31 -15 -10 0 -20 -4 -23 -9 -3 -5 -16 -11
-29 -15 -13 -3 -48 -20 -78 -38 -30 -18 -68 -43 -86 -55 -17 -13 -38 -23 -46
-23 -8 0 -20 -6 -26 -14 -7 -8 -23 -17 -37 -20 -14 -4 -48 -22 -76 -41 -28
-19 -57 -35 -64 -35 -8 0 -19 -10 -25 -23 -6 -12 -23 -28 -39 -35 -15 -7 -48
-30 -72 -51 -23 -20 -50 -40 -59 -44 -9 -3 -45 -27 -80 -54 -35 -26 -87 -70
-114 -98 -28 -27 -65 -66 -82 -87 -17 -20 -40 -41 -52 -48 -12 -6 -24 -24 -28
-41 -3 -16 -9 -29 -14 -29 -5 0 -9 -7 -9 -15 0 -9 -12 -33 -26 -55 -16 -23
-26 -54 -26 -72 0 -18 0 -47 1 -64 1 -23 14 -44 49 -80 26 -27 67 -66 90 -86
24 -20 66 -44 93 -53 41 -14 75 -16 182 -11 73 3 168 9 212 14 44 5 89 13 100
17 11 4 29 11 40 15 11 5 61 22 110 39 50 16 106 35 125 42 19 7 89 39 155 72
66 32 127 65 135 72 8 7 33 18 55 25 22 7 60 24 85 39 25 15 56 32 70 39 14 7
43 23 65 37 22 13 58 34 80 46 21 12 47 31 56 43 9 12 40 29 68 40 28 10 51
24 51 32 0 7 18 23 39 34 22 11 59 41 83 66 24 26 73 77 111 115 39 39 67 77
67 89 0 11 4 20 8 20 5 0 17 18 27 40 15 32 17 53 11 117 -5 51 -17 100 -36
142 -15 35 -45 81 -65 102 -21 22 -44 39 -51 39 -7 0 -17 6 -21 13 -4 8 -21
21 -38 30 -16 8 -51 20 -77 26 -26 6 -76 11 -111 11z m38 -102 c0 1 21 -5 47
-12 26 -8 57 -20 70 -27 13 -6 39 -25 58 -42 19 -17 43 -46 53 -66 11 -19 22
-61 24 -92 5 -50 2 -64 -23 -106 -15 -26 -61 -83 -101 -125 -44 -47 -71 -83
-67 -90 5 -7 3 -8 -5 -3 -8 4 -28 -7 -54 -32 -23 -22 -58 -50 -77 -63 -19 -13
-57 -43 -84 -67 -26 -24 -52 -43 -58 -43 -5 0 -26 -12 -46 -27 -20 -16 -48
-38 -62 -51 -14 -13 -63 -41 -110 -63 -47 -22 -101 -48 -120 -58 -19 -9 -44
-22 -55 -28 -11 -6 -38 -16 -60 -23 -22 -7 -89 -36 -150 -65 -60 -29 -135 -59
-165 -68 -30 -9 -126 -25 -212 -36 -101 -13 -189 -19 -248 -16 -64 4 -102 11
-130 25 -21 11 -59 41 -84 67 -30 32 -46 57 -46 75 0 14 9 48 21 75 11 26 29
65 40 87 11 21 39 57 62 80 23 23 69 66 103 96 33 30 105 87 159 125 54 39
128 94 164 122 36 29 70 53 75 53 6 0 20 10 33 22 13 12 46 34 74 48 27 14
125 63 217 109 92 46 183 88 202 93 19 5 49 11 65 13 17 2 71 15 120 28 50 14
102 29 116 35 14 6 54 17 90 26 35 8 87 17 114 19 28 2 50 4 50 5z"/>
</g>
</g>
<g>
<path d="M6701 15070 c-3 0 -17 -7 -29 -16 -12 -8 -22 -25 -22 -37 0 -12 4
-27 8 -33 4 -6 41 -37 82 -68 41 -30 110 -88 154 -128 43 -40 88 -87 100 -104
11 -18 39 -58 61 -90 21 -33 43 -61 47 -64 4 -3 18 -22 31 -42 14 -20 28 -47
32 -59 4 -13 17 -37 29 -54 12 -16 27 -42 34 -57 6 -16 16 -28 22 -28 5 0 13
-18 16 -40 4 -21 15 -47 25 -56 11 -9 19 -28 19 -41 0 -13 13 -49 29 -81 16
-31 41 -104 55 -162 15 -58 35 -130 44 -160 8 -30 16 -59 17 -65 0 -5 4 -26 8
-45 4 -19 9 -70 11 -112 3 -42 9 -92 15 -110 6 -18 17 -112 26 -209 8 -96 15
-220 15 -275 0 -54 -5 -139 -10 -189 -6 -49 -17 -110 -25 -135 -8 -25 -17 -58
-21 -75 -4 -16 -6 -39 -5 -50 2 -11 10 -28 18 -37 9 -10 27 -18 40 -18 16 0
30 11 43 33 11 17 20 46 20 64 0 17 7 64 15 104 9 40 15 86 15 103 0 17 3 105
5 196 3 91 1 199 -5 240 -5 41 -17 134 -26 205 -9 72 -20 166 -25 210 -5 44
-16 113 -25 154 -9 41 -25 90 -36 110 -11 19 -24 65 -30 101 -5 36 -16 79 -23
95 -7 17 -20 50 -30 75 -9 25 -22 58 -28 75 -7 16 -30 66 -53 110 -22 44 -53
103 -68 130 -16 28 -37 59 -47 71 -11 11 -19 24 -19 28 0 5 -16 30 -35 56 -19
26 -35 51 -35 55 0 4 -15 24 -32 45 -18 21 -49 56 -68 80 -19 23 -44 54 -55
68 -11 15 -36 40 -55 57 -19 16 -48 44 -65 60 -16 17 -46 40 -65 50 -19 11
-48 30 -63 43 -16 12 -32 22 -36 22z"/>
</g>
<g>
<path d="M6044 14396 c-17 3 -37 0 -48 -9 -14 -10 -17 -20 -11 -46 5 -22 18
-39 43 -55 21 -13 60 -48 87 -77 28 -30 66 -76 85 -104 19 -27 50 -74 67 -104
18 -29 33 -59 33 -66 0 -7 13 -37 30 -68 16 -31 36 -73 44 -94 8 -21 25 -67
38 -103 14 -36 26 -87 27 -115 1 -27 6 -69 11 -92 6 -23 10 -72 11 -110 0 -37
5 -117 10 -178 6 -60 10 -135 9 -165 0 -30 -3 -89 -5 -130 -2 -41 -8 -93 -14
-114 -5 -22 -8 -43 -5 -47 2 -4 -2 -25 -10 -47 -14 -38 -13 -41 8 -61 12 -12
29 -21 37 -21 8 0 20 4 27 9 7 4 18 26 23 47 5 21 15 82 23 134 8 52 15 151
15 220 0 68 -4 176 -9 240 -6 63 -13 142 -15 175 -3 33 -10 83 -15 110 -6 28
-15 75 -21 105 -6 30 -20 82 -32 115 -11 33 -31 80 -45 105 -13 25 -27 50 -32
55 -4 6 -15 32 -24 60 -9 27 -34 80 -57 117 -22 37 -44 68 -48 68 -5 0 -11 12
-14 28 -3 15 -35 57 -74 97 -38 39 -80 80 -95 93 -14 12 -39 25 -54 28z"/>
</g>
<g>
<path d="M5712 14039 c-4 0 -14 -3 -22 -6 -8 -3 -18 -11 -22 -17 -4 -6 -8 -25
-8 -42 0 -19 8 -38 21 -50 12 -10 34 -38 50 -60 16 -23 33 -66 38 -95 6 -30
15 -76 21 -104 6 -27 19 -115 28 -195 13 -112 16 -179 10 -295 -4 -82 -15
-191 -24 -242 -14 -72 -15 -95 -6 -106 7 -8 24 -17 37 -19 14 -3 29 0 35 7 5
6 11 30 13 53 3 23 9 47 14 54 6 7 16 58 23 113 7 62 10 167 6 275 -4 142 -11
204 -35 325 -17 83 -37 176 -45 207 -8 33 -28 75 -45 97 -17 21 -31 42 -31 46
0 4 -11 18 -26 31 -14 13 -28 24 -32 23z"/>
</g>
<g>
<path d="M14179 3315 c-3 3 -9 2 -12 -2 -4 -3 -7 -11 -7 -17 0 -6 5 -5 12 2 6
6 9 14 7 17z"/>
</g>
</g>
</svg>
