<?xml version="1.0" standalone="no"?>
<!DOCTYPE svg PUBLIC "-//W3C//DTD SVG 20010904//EN"
 "http://www.w3.org/TR/2001/REC-SVG-20010904/DTD/svg10.dtd">
<svg version="1.0" xmlns="http://www.w3.org/2000/svg"
 width="1356.000000pt" height="2048.000000pt" viewBox="0 0 1356.000000 2048.000000"
 preserveAspectRatio="xMidYMid meet">
<metadata>
Created by potrace 1.16, written by Peter Selinger 2001-2019
</metadata>
<g transform="translate(0.000000,2048.000000) scale(0.100000,-0.100000)"
fill="#000000" stroke="none">
<g>
<path d="M6551 19530 c-25 0 -54 -5 -64 -11 -9 -5 -20 -8 -25 -6 -4 3 -25 -6
-47 -19 -22 -13 -53 -31 -70 -40 -16 -9 -39 -24 -50 -34 -11 -9 -49 -27 -85
-39 -36 -12 -74 -26 -85 -30 -11 -4 -50 -22 -88 -39 -37 -18 -76 -32 -87 -32
-10 0 -21 -4 -24 -8 -3 -5 -31 -14 -63 -21 -32 -7 -76 -17 -98 -22 -22 -5 -53
-11 -70 -13 -16 -2 -30 -5 -30 -6 0 -2 -11 -4 -23 -5 -13 -1 -40 -7 -60 -13
-21 -6 -91 -27 -157 -47 -66 -20 -153 -42 -194 -50 -41 -8 -145 -20 -230 -26
-86 -6 -166 -15 -177 -19 -12 -5 -34 -33 -48 -62 -14 -29 -35 -69 -47 -88 -11
-19 -42 -57 -69 -85 -27 -27 -72 -79 -99 -115 -27 -36 -59 -77 -71 -92 -12
-16 -27 -28 -34 -28 -7 0 -22 -9 -34 -20 -12 -12 -22 -33 -22 -47 0 -15 -10
-54 -21 -87 -12 -33 -28 -66 -35 -74 -8 -7 -14 -19 -14 -25 0 -7 -14 -25 -30
-41 -16 -16 -37 -51 -46 -78 -9 -27 -22 -52 -29 -54 -7 -3 -24 -28 -38 -57
-14 -29 -32 -68 -40 -87 -8 -19 -21 -61 -28 -92 -6 -32 -20 -66 -30 -76 -9
-11 -24 -43 -32 -73 -8 -30 -24 -87 -36 -128 -12 -40 -33 -101 -47 -135 -15
-33 -30 -63 -34 -66 -4 -3 -28 -45 -53 -95 -25 -49 -53 -115 -63 -145 -10 -30
-26 -66 -35 -80 -9 -14 -31 -63 -50 -110 -18 -47 -39 -92 -46 -101 -7 -8 -13
-19 -13 -24 0 -5 -6 -16 -13 -24 -7 -9 -25 -47 -40 -86 -14 -38 -29 -89 -33
-113 -4 -23 -11 -45 -15 -48 -5 -3 -9 -19 -9 -36 0 -18 -8 -41 -18 -52 -10
-12 -31 -58 -45 -104 -15 -46 -27 -88 -27 -93 0 -6 -10 -25 -23 -42 -13 -18
-36 -63 -52 -101 -16 -38 -41 -83 -55 -100 -14 -17 -35 -44 -45 -61 -11 -16
-25 -42 -32 -58 -7 -15 -19 -30 -28 -33 -8 -3 -15 -16 -15 -28 0 -12 6 -30 13
-40 7 -9 23 -22 36 -29 16 -8 30 -32 45 -77 14 -45 33 -77 61 -105 22 -22 61
-58 88 -80 26 -22 59 -58 74 -80 15 -22 49 -67 75 -100 27 -33 61 -73 77 -90
16 -16 33 -37 37 -46 5 -10 37 -47 72 -84 34 -37 67 -76 73 -86 5 -11 30 -43
55 -72 24 -28 58 -65 74 -82 17 -16 30 -34 30 -39 0 -4 19 -31 42 -59 24 -29
50 -60 58 -71 8 -10 30 -36 48 -56 17 -21 32 -42 32 -47 0 -5 10 -19 23 -31
13 -12 33 -22 46 -22 15 0 21 -5 19 -17 -2 -13 3 -17 15 -15 10 2 44 -13 76
-32 32 -20 61 -36 65 -36 3 0 30 -15 59 -34 29 -19 69 -41 88 -50 18 -9 71
-38 117 -66 46 -27 93 -52 105 -56 12 -3 47 -19 77 -35 30 -16 60 -29 66 -29
7 0 14 -7 18 -15 3 -8 11 -15 19 -15 7 0 37 -11 65 -25 29 -14 56 -25 60 -25
5 0 37 -14 73 -31 35 -17 82 -37 104 -44 22 -7 63 -22 90 -34 28 -11 100 -38
162 -61 62 -22 147 -49 190 -60 43 -11 116 -34 163 -52 47 -18 113 -47 147
-65 34 -18 68 -33 76 -33 8 0 22 -9 32 -20 10 -11 22 -20 28 -20 5 0 25 -7 45
-16 21 -8 51 -22 67 -29 17 -8 62 -25 100 -38 39 -13 80 -30 93 -37 12 -8 22
-19 22 -25 1 -5 13 -24 28 -41 18 -20 40 -33 64 -37 27 -4 43 -1 60 13 13 10
39 27 58 39 19 11 50 27 69 36 18 8 42 15 52 15 11 0 19 5 19 10 0 6 9 10 19
10 11 0 22 4 25 9 3 4 23 11 44 13 21 3 59 15 84 27 26 11 54 21 63 21 9 0 32
7 53 16 20 9 44 18 52 19 8 2 47 12 85 23 39 12 87 28 107 36 21 9 48 16 62
16 14 0 37 5 53 12 15 6 32 10 37 9 4 -1 13 3 20 8 6 5 38 17 71 26 33 9 69
18 80 19 11 1 42 12 68 24 27 12 71 24 98 28 27 4 52 11 55 15 3 5 16 9 29 9
13 0 34 4 47 9 13 5 43 14 68 21 25 7 83 25 130 42 47 16 117 38 155 49 39 11
81 23 95 26 14 3 35 13 48 21 14 9 22 24 22 43 0 16 5 29 10 29 6 0 10 10 10
23 0 12 7 54 16 92 9 39 23 92 31 120 8 27 17 70 20 95 3 25 8 50 13 55 4 6
10 32 14 59 3 27 12 59 20 70 7 12 16 39 20 61 4 22 18 63 31 91 12 29 26 66
30 83 3 16 15 47 25 69 10 21 26 71 36 112 9 41 25 102 35 134 11 33 19 66 19
75 0 9 9 27 20 41 11 14 20 33 20 42 0 9 5 20 10 23 6 3 10 18 10 33 0 15 7
49 15 76 8 27 19 54 23 60 5 6 17 36 26 66 10 30 28 80 40 110 13 30 29 71 37
90 7 19 13 55 13 80 -1 25 -9 61 -20 80 -17 32 -18 56 -16 299 1 197 -2 289
-13 365 -9 55 -20 135 -25 176 -6 41 -12 113 -14 160 -2 47 -6 93 -10 103 -3
9 -8 24 -11 32 -2 8 0 17 5 20 6 4 10 39 10 78 0 40 5 126 10 192 6 66 13 197
17 290 4 94 6 219 5 280 -1 65 -6 111 -12 113 -5 2 -10 10 -10 18 0 9 -11 14
-29 14 -16 0 -44 7 -64 15 -19 8 -53 33 -74 55 -22 22 -43 40 -47 40 -4 0 -14
6 -21 13 -7 6 -40 35 -72 64 -32 28 -78 69 -103 91 -25 22 -60 47 -79 57 -19
9 -67 47 -107 84 -39 36 -94 85 -120 108 -27 23 -85 71 -129 105 -43 35 -93
76 -110 91 -16 16 -41 36 -55 45 -14 9 -41 31 -60 49 -19 17 -46 41 -59 52
-13 12 -30 21 -37 21 -7 0 -21 10 -31 23 -10 12 -50 43 -88 68 -39 26 -89 56
-112 68 -23 12 -48 21 -56 21 -7 0 -24 11 -37 25 -15 16 -30 23 -42 19 -10 -3
-31 2 -46 12 -22 12 -34 14 -48 6 -10 -5 -27 -7 -38 -2 -12 4 -73 15 -136 24
-63 9 -146 22 -185 28 -38 6 -74 14 -80 18 -5 4 -35 13 -65 20 -30 7 -82 25
-115 40 -33 16 -84 40 -114 54 -35 17 -71 26 -100 26z m4 -141 c11 0 47 -13
80 -29 33 -17 72 -32 87 -35 15 -3 42 -14 61 -25 21 -12 57 -21 100 -24 37 -2
73 -8 80 -14 6 -5 28 -12 47 -16 19 -4 63 -11 98 -16 34 -5 95 -16 134 -24 39
-8 75 -19 81 -25 8 -8 7 -11 -1 -11 -7 0 -12 -6 -12 -12 0 -7 -13 -27 -28 -45
-15 -17 -70 -78 -122 -134 -52 -56 -126 -135 -165 -175 -38 -40 -75 -79 -80
-86 -6 -7 -33 -40 -60 -73 -28 -33 -70 -81 -95 -107 -35 -38 -52 -48 -77 -48
-17 0 -43 -4 -56 -9 -13 -5 -93 -12 -178 -16 -85 -4 -176 -11 -204 -16 -27 -6
-65 -12 -82 -14 -18 -3 -54 -10 -80 -16 -27 -6 -66 -13 -88 -15 -22 -3 -69
-10 -105 -15 -36 -5 -87 -13 -115 -18 -27 -5 -106 -18 -175 -29 -69 -12 -172
-26 -230 -32 -58 -7 -170 -13 -250 -15 -80 -2 -188 -8 -241 -14 -53 -6 -109
-15 -123 -21 -15 -5 -70 -11 -122 -12 -91 -2 -97 -1 -115 23 -15 18 -18 33
-13 64 3 22 10 44 15 50 5 5 9 16 9 24 0 8 16 46 35 85 19 39 57 100 85 136
28 36 85 100 128 144 42 43 84 90 93 105 8 14 35 36 60 48 29 14 81 25 154 33
61 7 125 12 143 13 17 0 32 4 32 8 0 4 26 11 58 15 31 3 65 11 75 16 9 5 52
18 95 29 42 11 110 27 151 35 40 8 81 19 90 24 9 5 36 14 61 19 25 5 65 15 90
21 25 6 86 26 135 45 50 19 102 35 115 35 14 0 72 24 130 53 58 29 114 58 125
64 11 6 36 16 55 23 19 6 49 16 65 20 17 4 39 8 50 9z m949 -269 c5 0 39 -14
75 -31 36 -17 86 -45 111 -63 25 -17 52 -35 62 -41 9 -5 56 -44 105 -85 48
-41 133 -115 188 -164 55 -49 133 -113 172 -143 40 -30 92 -72 115 -95 24 -22
57 -49 73 -59 17 -10 59 -42 94 -71 34 -29 95 -80 133 -113 39 -33 104 -88
144 -122 41 -35 78 -63 84 -63 5 0 17 -11 26 -25 14 -21 15 -59 10 -322 -3
-164 -8 -314 -10 -333 -3 -19 -6 -66 -7 -105 -1 -38 3 -160 9 -270 7 -110 20
-254 29 -320 13 -90 17 -185 17 -383 -1 -144 -4 -265 -7 -269 -4 -3 -33 0 -64
6 -32 7 -96 21 -143 31 -47 10 -101 23 -120 28 -19 5 -75 31 -125 57 -49 27
-98 57 -109 67 -11 10 -26 18 -33 18 -7 0 -21 4 -31 9 -9 5 -37 18 -62 29 -25
11 -76 23 -115 27 -51 5 -86 16 -130 40 -33 18 -71 36 -84 40 -13 4 -46 20
-73 36 -27 16 -57 29 -68 29 -11 0 -31 12 -45 28 -15 15 -42 52 -62 82 -20 30
-46 71 -58 90 -13 19 -35 57 -49 83 -14 26 -26 53 -26 59 0 6 -6 19 -14 27 -7
9 -28 43 -45 76 -18 33 -36 67 -41 75 -4 8 -18 36 -29 62 -12 26 -21 51 -21
56 0 5 -8 17 -17 28 -10 11 -28 38 -40 59 -12 22 -44 85 -71 140 -27 55 -55
116 -62 135 -7 19 -18 42 -25 50 -6 8 -26 45 -43 81 -18 37 -32 71 -32 77 0 6
-7 23 -15 39 -8 15 -21 44 -29 63 -9 19 -22 62 -31 95 -8 33 -23 80 -32 105
-9 25 -24 56 -32 70 -9 13 -21 38 -27 55 -6 16 -23 65 -38 108 -15 42 -34 89
-42 105 -7 15 -14 32 -14 38 0 6 11 22 24 35 14 15 26 42 30 71 4 25 14 52 22
59 9 7 43 47 77 88 34 42 66 82 72 89 5 7 21 23 35 35 13 12 75 74 137 137 63
63 132 137 155 163 23 26 45 52 48 57 3 5 19 16 35 24 17 9 34 16 39 16z
m-1006 -781 l177 1 42 -82 c23 -46 55 -114 72 -153 16 -38 42 -99 56 -135 15
-36 41 -105 58 -155 16 -49 33 -99 37 -110 4 -11 16 -40 27 -65 11 -25 27 -61
34 -80 7 -19 29 -66 50 -105 20 -38 40 -81 44 -95 4 -13 14 -30 21 -38 8 -7
17 -24 20 -38 4 -14 32 -71 63 -127 31 -56 85 -158 120 -227 34 -69 78 -152
96 -185 19 -33 35 -65 35 -72 0 -7 21 -45 46 -85 26 -40 60 -93 77 -118 18
-25 39 -54 48 -65 9 -11 35 -42 58 -68 23 -27 41 -54 41 -62 0 -7 -37 -53 -82
-103 -46 -49 -94 -103 -107 -121 -13 -17 -28 -31 -35 -31 -6 0 -17 -9 -24 -21
-7 -11 -66 -82 -131 -157 -65 -76 -159 -175 -209 -221 -51 -46 -105 -94 -121
-105 -16 -12 -62 -48 -102 -81 -41 -32 -119 -99 -174 -147 -55 -48 -136 -121
-180 -163 -44 -41 -83 -75 -87 -75 -3 0 -24 -17 -45 -38 -21 -20 -76 -78 -122
-127 -46 -50 -95 -108 -109 -130 -14 -22 -54 -77 -89 -123 -36 -46 -76 -103
-91 -126 -15 -24 -43 -64 -62 -90 -30 -40 -38 -46 -60 -41 -14 4 -32 13 -40
20 -8 7 -43 27 -76 44 -34 17 -66 31 -72 31 -5 0 -39 16 -74 35 -34 19 -68 38
-74 43 -6 4 -42 27 -80 52 -38 25 -76 50 -85 55 -9 6 -40 29 -69 53 -28 23
-60 42 -70 42 -10 0 -24 7 -31 17 -8 9 -34 26 -59 37 -25 12 -83 45 -130 74
-47 29 -94 58 -105 65 -11 6 -24 18 -28 25 -4 6 -14 12 -21 12 -7 0 -33 15
-57 33 -24 18 -60 40 -79 50 -19 10 -60 33 -90 52 -30 19 -68 42 -85 50 -16 9
-42 23 -56 33 -15 9 -42 30 -62 45 -19 15 -70 46 -113 68 -44 22 -88 49 -99
59 -11 10 -60 39 -110 65 -49 25 -106 55 -125 66 -19 12 -51 36 -70 54 -19 18
-44 37 -55 43 -11 6 -51 36 -90 67 -38 31 -79 61 -90 66 -11 5 -38 20 -60 34
-22 14 -48 28 -57 31 -10 4 -18 10 -18 14 0 5 -10 12 -22 16 -13 4 -33 16 -45
28 -13 12 -23 28 -22 36 0 8 8 33 19 55 11 22 19 44 20 48 0 5 20 52 45 105
25 54 61 126 79 162 18 36 39 83 46 104 7 22 25 60 41 84 15 24 31 58 35 76 3
17 17 45 30 63 13 17 24 34 24 36 0 3 25 58 56 123 30 66 71 153 91 194 19 41
39 82 44 90 4 8 24 48 43 87 20 40 36 75 36 78 0 3 20 49 46 103 25 53 52 109
60 124 7 14 14 33 14 42 0 9 7 19 15 22 8 4 15 15 15 26 0 10 21 60 48 111 26
51 56 111 66 135 10 23 27 68 38 99 11 31 27 67 37 79 9 12 23 41 30 65 7 24
15 49 17 54 2 6 8 17 13 25 5 8 12 23 15 33 5 15 15 16 103 11 75 -5 110 -3
151 9 29 9 105 23 170 31 64 8 211 17 327 21 115 3 223 9 240 15 16 5 71 14
120 21 50 6 122 17 160 24 39 8 124 19 190 25 66 7 129 16 140 20 11 5 65 16
120 25 55 9 101 18 103 20 2 2 83 4 180 4z m-2190 -343 c2 -7 -7 -37 -18 -67
-12 -30 -34 -73 -48 -96 -15 -23 -30 -42 -34 -43 -5 0 -8 4 -8 8 0 5 13 33 30
63 16 30 30 60 30 67 0 7 10 28 23 47 12 19 23 28 25 21z m3588 -1731 c11 -4
33 -11 49 -16 17 -4 62 -19 100 -33 39 -14 77 -26 85 -26 8 0 38 -11 65 -25
28 -13 55 -25 60 -25 6 0 32 -11 59 -25 27 -14 57 -31 65 -39 9 -7 50 -29 91
-48 41 -19 100 -41 130 -48 30 -7 87 -21 125 -32 39 -11 101 -27 138 -36 l68
-17 -6 -35 c-4 -19 -13 -47 -21 -62 -8 -15 -14 -36 -14 -47 0 -11 -4 -22 -8
-25 -5 -3 -15 -31 -22 -63 -7 -32 -19 -68 -26 -80 -8 -12 -14 -27 -14 -34 0
-6 -6 -25 -14 -42 -8 -18 -28 -72 -44 -122 -16 -49 -39 -125 -51 -167 -11 -43
-21 -88 -21 -100 0 -13 -12 -45 -25 -73 -14 -27 -25 -62 -25 -77 0 -16 -4 -28
-10 -28 -5 0 -13 -12 -16 -27 -4 -16 -13 -40 -21 -56 -7 -15 -18 -51 -23 -80
-6 -28 -17 -77 -26 -107 -9 -30 -29 -100 -45 -155 -16 -55 -36 -121 -45 -147
-9 -26 -17 -59 -19 -75 -1 -15 -15 -37 -29 -50 -15 -13 -35 -23 -44 -23 -9 0
-40 -9 -67 -19 -28 -11 -79 -24 -113 -31 -33 -6 -74 -17 -89 -25 -15 -8 -33
-15 -40 -15 -7 0 -27 -6 -45 -14 -18 -7 -55 -20 -83 -29 -27 -8 -79 -22 -115
-31 -36 -10 -78 -22 -95 -27 -16 -6 -59 -17 -94 -25 -36 -7 -69 -18 -75 -24
-5 -5 -20 -10 -31 -10 -12 0 -54 -11 -93 -25 -39 -14 -80 -25 -91 -25 -11 0
-23 -4 -26 -10 -3 -5 -17 -10 -30 -10 -13 0 -44 -9 -69 -20 -25 -10 -46 -17
-46 -14 0 3 -12 -1 -27 -9 -16 -8 -39 -19 -53 -25 -14 -6 -65 -20 -114 -32
-49 -12 -101 -27 -115 -35 -14 -7 -54 -22 -88 -33 -61 -20 -63 -20 -112 -2
-27 9 -58 24 -68 31 -10 8 -43 41 -73 74 -31 33 -73 80 -94 105 -21 25 -81 89
-134 143 -52 55 -121 130 -154 169 -32 38 -58 77 -58 86 0 10 19 46 43 82 23
36 67 98 97 138 30 41 87 113 126 160 39 48 124 139 189 202 65 63 132 127
149 142 17 15 67 60 111 100 45 40 99 87 120 105 22 17 70 55 107 85 36 29
115 95 175 146 59 52 115 103 122 115 8 12 46 56 84 97 38 41 111 120 163 175
51 55 121 133 155 173 34 41 68 76 75 79 8 3 34 26 59 51 34 34 44 51 39 65
-5 17 -3 19 12 12z m-4223 -685 c7 0 35 -20 64 -45 28 -25 55 -45 60 -45 4 0
25 -15 45 -33 20 -17 54 -41 75 -52 21 -10 45 -24 53 -31 8 -7 40 -26 70 -43
30 -17 82 -45 115 -63 33 -17 86 -48 117 -69 31 -22 59 -39 62 -39 3 0 33 -20
68 -43 35 -24 77 -51 93 -59 17 -8 41 -22 55 -29 14 -8 39 -23 55 -34 17 -10
39 -26 50 -36 11 -9 40 -27 65 -40 25 -13 99 -60 165 -104 66 -45 127 -85 135
-89 8 -4 47 -25 85 -46 39 -22 88 -48 110 -58 22 -11 55 -36 74 -57 18 -20 47
-43 65 -51 17 -8 45 -23 61 -34 17 -11 37 -23 45 -27 8 -3 28 -15 43 -26 15
-10 57 -34 93 -53 36 -19 72 -34 79 -34 7 0 15 -4 17 -8 2 -4 30 -23 63 -41
33 -19 73 -44 88 -57 16 -13 39 -24 52 -24 13 0 27 5 30 10 3 6 14 10 24 10
10 0 75 -60 146 -135 71 -74 137 -148 148 -165 11 -17 16 -34 13 -38 -4 -4
-31 6 -59 22 -29 15 -83 44 -122 63 -38 20 -110 46 -160 59 -49 13 -121 32
-160 42 -38 11 -90 28 -115 40 -25 11 -63 26 -85 33 -22 7 -83 28 -135 46 -52
19 -102 41 -110 48 -9 8 -36 18 -61 24 -25 6 -67 23 -95 38 -27 15 -55 28 -62
30 -8 1 -22 9 -31 17 -10 9 -22 16 -27 16 -5 0 -34 12 -64 26 -30 14 -84 40
-120 57 -36 17 -73 38 -83 46 -11 9 -40 28 -65 43 -26 15 -84 45 -129 68 -45
22 -86 46 -90 53 -4 6 -26 24 -48 40 -22 15 -71 56 -109 92 -38 36 -72 65 -77
65 -4 0 -11 10 -15 22 -3 12 -42 58 -85 103 -43 44 -99 101 -124 126 -25 26
-45 52 -45 58 0 7 -36 54 -80 104 -44 51 -95 110 -113 132 -19 22 -42 54 -53
70 -10 17 -24 33 -31 38 -6 4 -18 21 -27 37 -10 22 -11 30 -3 30z"/>
</g>
<g>
<path d="M4620 13670 c-5 0 -10 -4 -10 -10 0 -5 5 -10 10 -10 6 0 10 5 10 10
0 6 -4 10 -10 10z"/>
</g>
<g>
<path d="M4475 13335 c-104 4 -192 5 -195 2 -3 -2 -67 -7 -144 -11 -76 -4
-143 -9 -147 -12 -5 -3 -44 -7 -87 -9 -43 -2 -98 -11 -122 -19 -25 -9 -55 -16
-67 -16 -12 0 -25 -4 -28 -10 -3 -5 -25 -14 -48 -20 -23 -5 -82 -22 -132 -36
-49 -14 -98 -30 -107 -35 -10 -5 -23 -9 -30 -9 -6 0 -32 -9 -57 -21 -25 -11
-56 -25 -67 -32 -12 -7 -56 -36 -97 -64 -42 -29 -79 -53 -82 -53 -4 0 -27 -19
-52 -42 -25 -24 -49 -47 -54 -53 -5 -5 -31 -37 -57 -70 -27 -33 -63 -89 -82
-125 -18 -36 -36 -72 -40 -80 -4 -8 -15 -31 -24 -51 -10 -20 -16 -42 -15 -50
2 -8 -5 -28 -14 -46 -10 -19 -17 -54 -17 -87 0 -30 4 -57 9 -60 5 -3 12 -27
16 -53 4 -27 22 -73 40 -103 18 -30 35 -68 39 -83 4 -16 11 -34 16 -40 5 -7
32 -40 60 -74 28 -35 54 -63 58 -63 4 0 41 -29 82 -65 41 -36 86 -72 100 -80
14 -8 39 -21 56 -29 17 -8 37 -22 44 -31 7 -9 27 -23 44 -32 17 -9 46 -29 64
-44 18 -16 39 -29 46 -29 7 0 37 -17 67 -38 30 -22 77 -47 104 -57 28 -9 64
-23 80 -30 17 -8 57 -22 90 -33 33 -11 77 -23 99 -27 21 -3 52 -12 70 -20 17
-8 85 -26 151 -40 66 -14 136 -30 156 -36 20 -5 48 -9 62 -9 14 0 28 -4 31 -9
3 -4 39 -9 81 -10 41 -1 95 -9 118 -18 29 -12 84 -18 182 -20 77 -2 169 -6
205 -9 36 -2 123 -4 194 -4 71 0 134 4 140 9 6 5 31 16 56 25 25 9 62 16 82
16 20 0 40 5 43 10 3 6 14 10 23 10 9 0 41 10 72 21 30 12 63 25 72 30 10 5
30 9 46 9 15 0 32 4 37 8 6 4 37 16 70 27 33 10 67 24 75 31 8 6 41 24 73 39
31 14 57 30 57 33 0 4 17 18 38 32 20 13 54 40 76 60 21 19 62 59 90 88 30 30
68 85 89 127 21 41 47 103 59 137 11 35 23 86 25 113 2 28 5 68 5 90 0 22 -4
58 -10 80 -6 22 -17 72 -26 110 -8 39 -25 90 -38 114 -12 24 -29 46 -35 48 -7
3 -13 9 -13 14 0 5 -21 35 -46 67 -26 31 -56 69 -68 83 -11 15 -44 45 -73 68
-29 22 -56 41 -59 41 -4 0 -19 11 -33 25 -14 13 -47 42 -73 63 -25 22 -67 49
-93 62 -26 12 -49 29 -52 36 -3 8 -17 14 -32 14 -15 0 -31 4 -36 9 -6 5 -35
19 -65 32 -30 13 -64 32 -75 42 -11 10 -31 21 -45 24 -14 3 -52 18 -85 33 -33
15 -76 32 -95 39 -19 7 -44 15 -55 18 -11 2 -29 9 -40 13 -11 5 -63 18 -115
30 -52 11 -115 27 -140 34 -25 8 -65 19 -90 26 -25 7 -67 21 -95 31 -39 14
-93 19 -240 24z m-120 -137 c213 -4 263 -8 340 -27 50 -12 124 -32 165 -45 41
-13 95 -29 120 -35 25 -7 61 -16 80 -21 19 -5 55 -14 80 -20 25 -6 65 -21 90
-32 25 -11 71 -33 102 -49 32 -16 61 -28 65 -27 4 1 64 -26 133 -60 69 -34
154 -85 190 -112 36 -27 70 -49 77 -49 7 -1 16 -7 20 -14 4 -7 37 -36 72 -65
35 -29 81 -75 102 -101 22 -27 39 -54 39 -60 0 -6 4 -11 9 -11 5 0 24 -30 44
-67 19 -38 42 -93 50 -123 8 -30 21 -88 28 -128 9 -53 9 -78 1 -95 -6 -12 -13
-40 -17 -61 -4 -22 -25 -74 -47 -118 -36 -69 -55 -90 -154 -178 -62 -55 -116
-100 -119 -100 -4 0 -34 -14 -68 -31 -34 -17 -94 -41 -134 -54 -40 -13 -87
-26 -105 -30 -18 -4 -42 -14 -53 -21 -11 -7 -63 -24 -115 -38 -52 -14 -111
-30 -130 -36 -19 -5 -60 -10 -91 -10 -38 0 -61 5 -69 15 -7 8 -18 15 -25 15
-7 0 -18 -7 -25 -15 -8 -10 -30 -15 -69 -15 -31 1 -72 7 -92 14 -23 8 -67 12
-115 9 -44 -2 -135 -3 -204 -2 -79 0 -137 6 -157 14 -17 8 -33 9 -35 4 -2 -5
-25 -2 -53 7 -27 8 -70 19 -95 24 -25 5 -81 16 -125 25 -44 8 -95 20 -113 26
-19 6 -44 12 -55 14 -12 2 -46 10 -76 19 -29 8 -67 22 -85 30 -17 8 -43 17
-57 19 -15 3 -55 20 -90 38 -35 18 -99 57 -142 87 -43 29 -88 57 -100 62 -12
5 -44 25 -72 45 -27 20 -66 46 -85 59 -19 13 -79 65 -132 116 -54 50 -98 95
-98 100 0 4 -9 27 -20 51 -12 24 -34 67 -49 96 -24 44 -28 64 -29 134 -1 46 3
88 7 94 5 5 16 33 26 60 10 28 33 73 50 100 18 28 42 59 54 69 11 11 21 25 21
32 0 6 28 41 63 75 34 35 83 81 108 102 25 20 51 37 56 37 5 0 18 9 28 20 10
11 24 20 31 20 7 0 33 10 56 22 24 12 51 28 62 37 10 9 19 14 20 13 0 -2 19
-1 41 4 22 4 50 13 62 21 12 8 35 16 52 18 16 2 49 9 73 16 24 6 52 13 63 14
11 2 72 16 135 33 63 16 140 30 170 31 30 1 57 5 60 8 3 3 118 3 255 1z"/>
<g>
<path d="M4014 13040 c-18 0 -35 -4 -38 -9 -3 -5 -32 -12 -64 -16 -56 -6 -58
-7 -75 -48 -9 -23 -17 -50 -17 -60 0 -10 10 -31 22 -47 11 -16 25 -27 29 -24
4 2 29 -4 56 -14 26 -10 66 -19 88 -20 34 -3 45 2 77 33 31 30 37 43 40 87 2
30 -2 58 -10 69 -7 10 -26 25 -44 33 -17 9 -46 16 -64 16z"/>
</g>
<g>
<path d="M5365 12814 c-22 3 -49 2 -61 -2 -11 -4 -32 -17 -47 -28 -15 -12 -27
-29 -27 -37 0 -9 -4 -19 -10 -22 -5 -3 -10 -17 -10 -30 0 -13 3 -30 6 -39 3
-9 22 -26 42 -38 21 -13 53 -28 72 -35 24 -9 46 -10 71 -3 19 5 46 21 58 34
12 13 27 43 32 67 8 36 7 47 -9 68 -11 15 -32 34 -48 43 -16 9 -47 19 -69 22z"/>
</g>
<g>
<path d="M4773 12799 c-10 -1 -40 -5 -68 -10 -27 -4 -67 -16 -87 -26 -27 -12
-41 -27 -47 -48 -6 -20 -4 -36 4 -50 10 -16 22 -20 56 -18 24 1 69 5 100 8 35
5 64 3 77 -4 11 -6 22 -21 24 -33 2 -13 -2 -33 -8 -45 -6 -13 -23 -32 -38 -44
-23 -18 -27 -27 -22 -52 3 -17 11 -36 17 -44 6 -7 22 -13 35 -13 13 0 41 9 63
20 29 16 44 33 60 70 12 27 21 68 21 92 0 24 -4 58 -9 76 -5 17 -17 39 -25 48
-9 8 -19 21 -23 28 -5 7 -31 20 -60 29 -28 9 -60 16 -70 16z"/>
</g>
<g>
<path d="M4400 12239 c-96 0 -191 -5 -210 -11 -19 -5 -41 -17 -47 -26 -7 -8
-13 -33 -13 -53 0 -31 5 -40 29 -52 24 -12 46 -13 118 -5 48 5 140 6 203 2 63
-4 189 -9 280 -10 91 -1 203 -5 250 -8 47 -3 128 -11 180 -17 52 -6 111 -13
131 -16 31 -4 39 0 63 27 22 27 25 38 20 69 -4 20 -13 43 -21 53 -8 9 -30 19
-49 23 -20 3 -41 2 -47 -3 -8 -6 -72 -7 -172 -1 -88 4 -245 13 -350 18 -104 6
-269 10 -365 10z"/>
</g>
</g>
<g>
<path d="M8645 12563 c-33 3 -67 2 -75 -3 -8 -5 -40 -13 -70 -19 -30 -5 -84
-15 -120 -22 -36 -6 -79 -17 -97 -25 -17 -8 -36 -14 -42 -14 -6 0 -11 -4 -11
-10 0 -5 -9 -10 -19 -10 -11 0 -22 -4 -26 -9 -3 -5 -19 -12 -35 -16 -17 -4
-30 -11 -30 -16 0 -5 -12 -15 -27 -21 -16 -7 -58 -36 -95 -65 -37 -29 -73 -53
-80 -53 -7 0 -41 -28 -75 -61 -35 -34 -63 -65 -63 -70 0 -4 -15 -23 -34 -41
-27 -27 -44 -62 -86 -184 -28 -84 -54 -176 -57 -205 -3 -30 -6 -166 -7 -304 0
-161 4 -282 13 -340 7 -49 14 -104 16 -121 1 -17 4 -35 7 -40 3 -5 15 -43 28
-84 12 -41 34 -111 47 -155 14 -44 39 -118 56 -165 17 -47 42 -100 56 -118 13
-18 20 -32 15 -31 -5 1 -13 1 -17 0 -4 0 7 -16 26 -34 18 -19 57 -81 86 -139
29 -59 61 -114 72 -124 10 -9 19 -23 19 -30 0 -7 9 -19 19 -26 10 -8 40 -45
66 -83 25 -39 55 -79 65 -90 10 -11 28 -40 41 -64 12 -24 70 -91 127 -148 58
-56 109 -103 114 -103 4 0 32 -24 61 -52 29 -29 83 -79 119 -112 36 -32 86
-70 111 -85 25 -14 70 -43 101 -63 31 -21 63 -38 70 -38 8 0 16 -7 20 -15 3
-8 12 -15 20 -15 8 0 16 -3 18 -7 2 -5 26 -21 55 -36 29 -15 78 -37 110 -48
31 -10 66 -25 77 -33 12 -7 47 -21 78 -31 52 -16 60 -16 90 -2 18 8 60 18 93
21 33 4 107 9 165 12 58 3 112 5 120 6 8 0 69 6 135 14 66 7 158 23 205 34 47
12 101 29 120 38 19 9 60 40 91 69 31 29 64 69 75 88 10 19 22 35 26 35 4 0
19 18 33 40 14 22 24 44 23 48 -2 5 17 49 41 98 25 49 48 98 52 109 5 11 20
49 34 85 16 40 29 102 35 160 6 52 8 160 5 240 -3 80 -13 210 -21 290 -8 80
-19 165 -25 190 -5 25 -18 63 -28 85 -10 22 -27 69 -39 105 -11 36 -24 84 -27
107 -4 23 -13 47 -21 54 -8 6 -14 20 -14 30 0 10 -4 21 -10 24 -5 3 -10 16
-10 28 0 13 -6 31 -14 42 -7 11 -16 34 -20 51 -4 17 -41 98 -83 180 -41 82
-82 157 -91 167 -8 9 -21 27 -28 40 -7 12 -21 38 -31 57 -10 19 -41 67 -70
105 -29 39 -72 92 -95 118 -24 26 -101 105 -173 175 -71 70 -138 138 -150 151
-11 13 -29 32 -40 43 -11 10 -42 38 -70 60 -27 23 -64 47 -81 54 -17 7 -43 29
-58 48 -15 20 -34 36 -42 36 -7 0 -14 4 -14 8 0 5 -25 19 -55 31 -30 13 -55
27 -55 31 0 5 -10 12 -22 16 -13 4 -51 20 -86 35 -34 16 -69 29 -78 29 -8 0
-24 5 -35 10 -10 6 -63 22 -116 35 -54 14 -111 25 -128 25 -16 0 -46 4 -65 9
-19 5 -62 11 -95 14z m-60 -155 c52 1 137 -4 188 -13 50 -8 116 -24 146 -35
30 -11 56 -18 59 -16 2 3 18 -2 35 -9 18 -7 34 -13 37 -13 3 0 19 -3 35 -7 17
-3 63 -23 104 -43 41 -20 87 -49 102 -64 15 -16 34 -28 43 -28 8 0 17 -4 20
-9 3 -5 32 -26 63 -47 32 -21 100 -79 151 -128 52 -50 145 -142 208 -204 63
-62 114 -117 114 -122 0 -5 17 -27 38 -48 20 -22 42 -46 48 -54 6 -8 24 -34
40 -59 16 -24 31 -46 34 -49 3 -3 25 -37 48 -76 23 -38 42 -73 42 -77 0 -4 12
-26 26 -49 14 -23 40 -73 56 -112 16 -39 40 -93 53 -121 13 -27 37 -86 53
-130 17 -44 33 -97 36 -117 6 -31 4 -37 -14 -43 -11 -3 -20 -11 -20 -16 0 -5
6 -10 13 -11 6 0 18 -2 26 -2 8 -1 30 -41 51 -93 20 -51 45 -132 54 -181 10
-49 21 -176 25 -287 4 -110 4 -236 0 -280 -5 -44 -13 -98 -19 -120 -5 -23 -31
-86 -58 -141 -27 -54 -57 -105 -66 -113 -9 -7 -16 -22 -16 -32 0 -10 -6 -22
-13 -26 -7 -4 -21 -28 -31 -53 -11 -27 -38 -64 -69 -93 -29 -27 -63 -54 -77
-62 -14 -7 -54 -20 -90 -29 -36 -9 -78 -18 -95 -20 -16 -2 -37 -6 -45 -9 -8
-3 -26 -6 -40 -6 -14 1 -54 -1 -90 -4 -36 -3 -126 -8 -200 -12 -74 -3 -155 -8
-180 -11 -32 -4 -68 0 -115 15 -39 11 -90 23 -115 27 -25 4 -65 17 -90 29 -25
13 -83 49 -130 81 -47 32 -104 71 -128 88 -24 17 -54 36 -66 43 -12 7 -43 35
-70 63 -26 27 -50 50 -54 50 -4 0 -31 23 -60 51 -29 28 -55 49 -58 47 -2 -3
-35 27 -74 66 -39 39 -84 87 -101 106 -16 19 -39 53 -51 75 -11 22 -35 56 -52
75 -18 19 -40 46 -49 60 -9 14 -38 57 -64 95 -26 39 -89 153 -140 255 -52 102
-107 219 -123 260 -16 41 -36 104 -43 140 -8 36 -21 79 -29 95 -8 17 -13 35
-11 42 2 6 -1 14 -6 18 -6 3 -11 25 -11 48 0 23 -4 57 -10 76 -5 18 -12 67
-15 108 -3 42 -7 79 -10 83 -2 4 -4 36 -5 71 0 35 1 96 1 134 1 39 0 108 -1
155 -1 55 4 106 15 145 9 33 22 78 27 100 6 22 16 47 23 55 7 8 28 44 46 80
19 36 38 68 43 71 4 4 38 35 75 70 36 36 93 80 125 99 32 19 66 40 75 45 9 6
32 22 52 38 20 15 44 27 53 27 9 0 34 9 56 20 22 11 47 20 57 20 10 1 39 11
65 23 37 17 70 23 143 25z"/>
<g>
<path d="M8857 11589 c-7 -1 -37 -5 -67 -10 -42 -7 -62 -16 -82 -39 -18 -20
-28 -42 -28 -63 0 -17 -4 -38 -9 -46 -5 -8 0 -34 14 -68 13 -33 35 -66 55 -81
18 -14 53 -29 77 -32 34 -5 55 -3 84 11 21 11 42 19 47 19 5 0 10 18 10 39 0
22 6 50 13 62 7 14 9 43 6 76 -3 30 -13 66 -22 79 -9 14 -29 27 -46 31 -16 3
-32 10 -35 14 -3 5 -11 8 -17 8z"/>
</g>
<g>
<path d="M7933 11140 c-10 -1 -31 -7 -48 -14 -16 -7 -45 -32 -62 -54 -18 -22
-33 -50 -33 -61 0 -11 5 -43 12 -73 6 -29 20 -65 30 -80 10 -15 26 -29 36 -32
9 -3 46 -10 82 -15 42 -6 69 -5 77 1 7 6 22 8 33 5 12 -3 17 -1 14 5 -3 5 1
17 9 26 12 13 15 37 14 95 -1 43 -7 81 -12 85 -6 4 -23 24 -39 46 -16 21 -44
44 -62 52 -18 8 -41 14 -51 14z"/>
</g>
<g>
<path d="M8478 11030 c-17 0 -34 -10 -47 -26 -12 -15 -21 -35 -21 -45 0 -11 4
-27 10 -37 5 -9 17 -37 26 -62 9 -25 25 -79 36 -120 11 -41 25 -86 32 -100 7
-14 20 -38 28 -55 8 -16 18 -43 22 -60 4 -16 20 -50 35 -75 15 -25 42 -76 61
-115 18 -38 50 -108 72 -155 22 -47 60 -126 84 -175 24 -50 44 -95 44 -101 0
-6 8 -18 18 -27 10 -10 31 -17 47 -17 15 0 42 11 59 24 17 13 41 26 53 30 12
4 36 23 53 42 23 27 30 44 28 69 -1 19 -8 37 -15 39 -7 3 -13 13 -13 22 0 11
-5 14 -17 9 -10 -4 -32 -11 -50 -16 -18 -6 -35 -14 -38 -19 -4 -6 -12 -10 -19
-10 -7 0 -25 22 -40 50 -15 27 -31 52 -36 55 -6 4 -10 14 -10 24 0 9 -13 38
-30 64 -16 26 -33 59 -36 75 -4 15 -21 50 -39 77 -17 28 -46 80 -63 116 -18
36 -32 70 -32 75 0 5 -9 20 -20 34 -11 14 -20 31 -20 38 0 7 -16 54 -36 105
-20 50 -45 122 -55 158 -9 37 -23 76 -31 88 -8 13 -23 21 -40 21z"/>
</g>
<g>
<path d="M9847 9719 c-7 0 -23 -4 -37 -8 -14 -5 -43 -20 -65 -34 -22 -14 -48
-33 -57 -41 -10 -9 -22 -16 -27 -16 -5 0 -16 -6 -23 -13 -7 -7 -26 -22 -42
-35 -16 -12 -39 -22 -53 -22 -13 0 -26 -6 -29 -14 -3 -8 -36 -32 -72 -53 -37
-21 -87 -49 -112 -63 -25 -13 -63 -37 -85 -54 -21 -17 -49 -40 -62 -51 -12
-11 -24 -31 -27 -45 -4 -14 -1 -36 6 -49 8 -15 27 -28 47 -33 24 -7 37 -5 50
5 9 8 26 18 37 21 12 4 24 16 27 27 3 12 10 18 16 14 6 -3 14 1 17 9 3 9 11
16 18 16 6 0 54 21 106 47 51 27 105 58 117 70 13 11 38 29 56 38 18 9 41 22
52 28 11 7 35 22 52 35 18 12 53 32 77 43 25 11 51 30 58 42 6 12 13 43 14 68
2 41 -1 48 -22 58 -14 6 -30 11 -37 10z"/>
</g>
</g>
<g>
<path d="M12161 12450 c-5 0 -14 -7 -21 -15 -7 -8 -19 -15 -26 -15 -8 0 -14
-3 -14 -7 0 -5 -14 -16 -30 -25 -17 -10 -30 -25 -30 -36 0 -10 -17 -35 -37
-55 -21 -20 -52 -51 -69 -69 -17 -18 -46 -51 -64 -73 -18 -22 -70 -80 -114
-130 -45 -49 -99 -108 -121 -131 -27 -29 -52 -45 -77 -49 -20 -4 -39 -13 -42
-20 -2 -7 -25 -23 -50 -36 -26 -12 -67 -42 -91 -66 -25 -24 -54 -43 -65 -43
-11 0 -20 -4 -20 -9 0 -4 -12 -22 -27 -39 -16 -18 -43 -49 -61 -71 -25 -30
-38 -38 -54 -33 -14 3 -19 1 -14 -6 3 -6 -3 -16 -14 -22 -13 -7 -20 -21 -20
-40 0 -23 7 -33 30 -45 16 -8 36 -15 45 -15 8 0 15 5 15 10 0 6 7 10 16 10 9
0 57 -38 106 -85 50 -47 95 -85 100 -85 6 0 24 -12 41 -26 16 -14 56 -38 88
-54 32 -16 60 -34 64 -40 3 -5 12 -10 20 -10 7 0 43 -20 79 -44 36 -24 81 -56
99 -71 17 -15 68 -62 112 -104 45 -42 116 -100 158 -128 42 -29 81 -53 86 -53
5 0 23 11 39 25 23 19 31 36 36 73 3 26 6 52 6 57 1 6 -4 32 -9 58 -8 35 -8
55 0 69 7 14 9 41 4 77 -4 31 -9 88 -11 126 -1 39 -6 97 -9 130 -4 33 -8 152
-9 265 -2 113 -4 302 -5 420 -1 118 3 253 8 300 6 47 11 88 11 93 0 4 -11 7
-25 7 -16 0 -25 6 -25 15 0 8 -4 15 -9 15z m-117 -333 c5 -2 11 -23 13 -48 1
-24 5 -181 6 -349 3 -223 8 -324 19 -375 10 -48 15 -122 14 -235 -1 -113 -4
-165 -12 -165 -6 0 -48 34 -94 75 -46 41 -111 98 -146 125 -35 28 -98 69 -141
90 -42 22 -113 64 -157 93 -44 29 -94 69 -110 89 l-29 35 18 32 c10 17 30 46
44 64 14 18 46 52 70 75 24 23 65 62 92 87 26 25 65 61 86 80 21 19 53 46 72
60 18 13 51 47 73 75 21 27 69 83 106 122 37 40 71 71 76 70z"/>
</g>
<g>
<path d="M1415 11774 c-22 2 -47 2 -56 0 -9 -3 -23 -21 -32 -40 -10 -19 -17
-41 -17 -49 0 -8 9 -19 20 -25 20 -11 20 -19 18 -363 -1 -194 1 -408 4 -477 4
-69 14 -172 24 -230 9 -59 16 -166 17 -245 0 -104 -4 -155 -17 -198 -9 -32
-15 -77 -13 -100 3 -33 10 -45 33 -59 16 -10 41 -18 57 -18 15 0 27 3 27 8 0
4 21 30 48 57 26 28 60 68 76 89 17 22 62 75 101 118 39 43 86 86 103 96 18 9
73 64 122 121 49 57 92 111 95 120 3 9 32 36 63 61 31 25 68 51 82 58 14 7 35
28 48 46 13 19 65 73 117 122 92 85 95 89 95 131 0 35 -6 49 -26 68 -15 14
-34 25 -44 25 -9 0 -66 35 -126 78 -60 43 -140 93 -178 111 -38 18 -74 37 -80
42 -6 4 -45 36 -86 70 -41 33 -111 93 -155 132 -43 40 -87 80 -97 90 -10 9
-22 17 -28 17 -5 0 -10 4 -10 10 0 5 -19 21 -42 36 -24 14 -56 41 -73 59 -22
25 -40 35 -70 39z m87 -234 c5 0 26 -12 46 -27 20 -15 62 -50 92 -79 30 -28
89 -83 130 -122 54 -50 104 -85 180 -124 58 -29 129 -73 158 -96 30 -23 59
-42 65 -42 7 0 24 -12 40 -25 15 -13 27 -27 27 -31 0 -4 -10 -18 -22 -31 -12
-13 -27 -23 -35 -23 -7 0 -13 -7 -13 -17 0 -9 -55 -72 -122 -141 -68 -69 -205
-208 -305 -309 -101 -101 -183 -188 -183 -193 0 -6 -7 -10 -15 -10 -9 0 -15 9
-15 23 -1 12 -3 60 -5 107 -2 47 -6 127 -9 178 -3 52 -8 97 -11 102 -3 5 -10
75 -15 157 -6 81 -11 257 -11 391 0 133 3 258 7 277 3 19 11 35 16 35z"/>
</g>
<g>
<path d="M7636 10770 c-3 0 -7 -4 -11 -9 -3 -5 -1 -12 5 -16 5 -3 10 1 10 9 0
9 -2 16 -4 16z"/>
</g>
<g>
<path d="M4472 10078 c-40 5 -74 6 -77 4 -3 -3 -33 -7 -67 -8 -35 -2 -76 -5
-93 -6 -16 -2 -37 -8 -45 -13 -8 -5 -31 -16 -50 -23 -19 -8 -48 -16 -65 -19
-16 -3 -40 -16 -53 -29 -13 -12 -32 -24 -43 -26 -10 -2 -52 -32 -93 -68 -41
-36 -79 -75 -85 -88 -6 -13 -31 -41 -56 -64 -26 -24 -47 -53 -51 -71 -3 -17
-17 -47 -29 -67 -12 -19 -25 -45 -29 -57 -4 -11 -13 -27 -21 -33 -8 -7 -15
-24 -15 -37 0 -14 -10 -38 -21 -55 -17 -23 -22 -48 -26 -121 -3 -74 0 -103 15
-146 11 -30 37 -76 58 -103 22 -27 77 -76 124 -110 47 -34 90 -66 95 -73 6 -6
31 -21 56 -33 25 -12 54 -22 65 -22 10 -1 33 -7 49 -15 17 -7 24 -14 18 -14
-7 -1 -13 -8 -13 -15 0 -13 5 -13 33 -2 18 7 55 11 85 8 47 -3 53 -6 49 -23
-3 -10 -1 -21 3 -24 5 -3 14 3 20 14 6 12 25 23 48 26 20 4 80 16 132 26 52
11 102 21 112 23 9 1 23 7 31 14 7 6 31 18 53 26 21 7 74 30 117 50 52 25 99
57 145 101 39 36 80 87 95 117 15 29 39 73 52 98 14 25 34 75 45 111 13 43 20
95 20 146 0 43 -4 83 -9 89 -5 5 -16 44 -25 87 -9 43 -26 93 -39 112 -13 19
-49 62 -81 94 -31 33 -76 75 -99 94 -23 19 -67 46 -97 60 -30 14 -68 29 -85
32 -16 4 -41 11 -55 16 -14 5 -58 12 -98 17z m-47 -143 c39 -2 95 -10 125 -17
30 -7 84 -28 120 -46 36 -17 76 -42 90 -55 14 -12 47 -48 74 -80 32 -38 54
-76 64 -110 8 -29 18 -85 23 -126 8 -63 6 -84 -12 -143 -11 -39 -38 -99 -60
-134 -21 -35 -39 -68 -39 -72 0 -4 -19 -26 -42 -49 -24 -23 -73 -58 -111 -77
-37 -20 -77 -36 -89 -36 -12 0 -29 -7 -39 -16 -9 -8 -43 -22 -74 -30 -32 -9
-69 -17 -84 -19 -14 -2 -53 -9 -86 -14 -33 -6 -85 -11 -115 -11 -30 0 -68 7
-84 15 -15 8 -32 13 -36 10 -4 -2 -26 4 -48 15 -23 11 -45 20 -50 20 -5 0 -17
9 -27 20 -11 12 -33 28 -51 36 -18 9 -59 40 -92 69 -33 30 -67 71 -77 92 -10
21 -18 59 -17 89 0 29 6 69 13 91 7 21 16 43 20 48 3 6 14 33 23 62 10 28 24
57 32 64 9 7 24 29 34 49 10 19 41 57 69 83 27 26 54 47 58 47 5 0 16 13 26
29 9 16 17 38 17 49 0 12 9 23 21 27 11 4 40 20 64 36 24 16 46 29 49 29 3 0
25 9 49 20 23 11 76 24 117 29 41 5 107 7 145 6z"/>
<g>
<path d="M4668 9729 c-12 0 -37 -7 -54 -14 -19 -9 -38 -29 -49 -51 -16 -34
-16 -41 -4 -63 8 -14 25 -31 37 -37 12 -6 30 -19 41 -28 12 -11 21 -14 26 -7
3 6 25 11 49 11 29 0 48 6 60 19 13 14 16 33 14 71 -2 35 -8 55 -18 60 -8 4
-29 15 -47 24 -17 9 -42 16 -55 15z"/>
</g>
<g>
<path d="M3993 9709 c-5 0 -26 -11 -48 -24 -22 -13 -50 -34 -62 -46 -13 -13
-23 -36 -23 -50 0 -15 8 -41 18 -58 13 -24 26 -32 59 -37 23 -3 56 -1 75 5 25
8 36 20 46 48 7 21 15 47 18 58 4 14 -4 26 -25 40 -16 10 -34 30 -40 42 -6 13
-14 23 -18 22z"/>
</g>
<g>
<path d="M4382 9524 c-20 2 -55 1 -77 -1 -22 -2 -50 -14 -62 -25 -13 -12 -23
-30 -23 -40 0 -10 11 -30 24 -43 19 -19 32 -23 70 -20 44 3 45 2 31 -18 -8
-12 -15 -29 -15 -38 0 -9 8 -26 19 -37 10 -12 29 -23 42 -24 13 -1 37 6 52 17
16 10 37 35 48 56 10 21 19 47 19 58 0 11 -5 31 -12 45 -6 14 -26 35 -45 46
-19 11 -51 22 -71 24z"/>
</g>
<g>
<path d="M4636 9245 c-31 0 -65 -4 -74 -9 -9 -6 -24 -11 -32 -12 -8 -2 -37 -8
-65 -13 -27 -6 -79 -15 -115 -21 -36 -6 -102 -13 -148 -16 -45 -2 -97 -10
-115 -18 -30 -12 -33 -17 -32 -56 0 -32 6 -47 24 -61 13 -11 33 -19 45 -19 11
0 41 5 66 11 25 6 54 13 65 15 11 3 63 7 115 10 52 3 102 8 110 12 8 3 24 6
35 7 11 1 49 5 85 9 52 6 72 13 97 36 l33 30 -18 47 -18 48 -58 0z"/>
</g>
</g>
<g>
<path d="M6700 8530 c-37 0 -52 -5 -62 -19 -8 -12 -43 -28 -84 -39 -38 -11
-92 -29 -119 -40 -28 -11 -81 -30 -120 -41 -38 -11 -72 -20 -75 -19 -3 1 -24
-9 -47 -21 -23 -11 -51 -21 -62 -21 -11 0 -22 -4 -26 -10 -3 -5 -40 -27 -83
-48 -42 -22 -88 -46 -102 -53 -14 -8 -36 -22 -50 -31 -14 -9 -38 -20 -55 -24
-16 -4 -39 -13 -50 -20 -11 -8 -31 -14 -45 -14 -15 0 -64 -11 -111 -25 -46
-14 -102 -27 -124 -29 -22 -1 -50 -8 -62 -14 -12 -7 -30 -12 -40 -12 -10 0
-28 -7 -40 -15 -12 -8 -37 -17 -57 -19 -20 -3 -51 -12 -69 -20 -17 -8 -45 -17
-62 -21 -16 -3 -59 -18 -95 -32 -36 -14 -72 -31 -81 -39 -8 -8 -22 -14 -30
-14 -8 0 -36 -11 -63 -25 -27 -14 -53 -25 -58 -25 -4 0 -30 -13 -56 -30 -27
-16 -57 -30 -67 -30 -10 0 -26 -10 -36 -22 -11 -11 -19 -36 -19 -55 0 -28 6
-37 35 -54 19 -12 35 -23 35 -26 0 -3 -7 -17 -14 -31 -8 -15 -24 -49 -35 -76
-12 -27 -21 -56 -21 -64 0 -9 -9 -25 -19 -36 -11 -12 -51 -84 -90 -161 -39
-77 -75 -147 -80 -155 -5 -8 -20 -37 -34 -65 -13 -27 -37 -75 -53 -105 -16
-30 -35 -59 -41 -63 -7 -4 -13 -12 -13 -16 0 -5 -19 -37 -42 -71 -24 -34 -48
-70 -54 -81 -6 -10 -17 -27 -25 -36 -8 -10 -21 -30 -29 -45 -7 -15 -43 -60
-80 -100 -36 -40 -72 -86 -78 -103 -7 -16 -32 -50 -57 -74 -39 -38 -45 -50
-50 -100 -3 -31 -11 -87 -17 -126 -6 -38 -14 -76 -19 -85 -4 -8 -22 -62 -39
-120 -17 -58 -35 -128 -39 -155 -5 -28 -16 -75 -25 -105 -9 -30 -16 -68 -16
-83 0 -15 -7 -30 -15 -33 -9 -4 -15 -19 -15 -39 0 -19 -7 -67 -16 -107 -8 -40
-17 -100 -18 -133 -2 -33 -7 -116 -11 -185 -4 -69 -11 -138 -16 -155 -5 -16
-18 -91 -28 -165 -10 -74 -19 -175 -20 -225 -1 -49 -6 -117 -11 -150 -4 -33
-16 -98 -25 -145 -9 -47 -18 -99 -21 -117 -2 -17 -8 -43 -14 -57 -5 -14 -12
-55 -16 -90 -6 -63 -6 -66 21 -88 15 -13 42 -36 59 -53 18 -16 41 -44 52 -61
10 -17 40 -62 66 -101 26 -38 54 -75 62 -82 9 -8 16 -17 16 -21 0 -4 21 -38
46 -76 25 -38 60 -84 76 -103 16 -18 35 -45 41 -60 6 -14 23 -38 38 -52 15
-15 32 -43 38 -64 5 -21 19 -47 29 -59 11 -12 25 -39 32 -61 7 -22 27 -62 45
-90 18 -27 45 -63 59 -80 15 -16 39 -43 55 -60 15 -16 47 -53 70 -81 22 -27
41 -55 41 -61 0 -6 7 -16 15 -23 8 -7 15 -19 15 -27 0 -7 19 -46 42 -84 24
-39 48 -74 56 -76 7 -3 21 -22 31 -42 11 -20 28 -45 40 -55 12 -11 21 -27 21
-36 0 -10 15 -44 34 -76 19 -33 43 -70 54 -84 10 -14 25 -36 32 -50 7 -14 26
-40 41 -58 16 -18 29 -38 29 -45 0 -7 20 -33 45 -57 25 -24 45 -52 45 -62 0
-11 -7 -18 -19 -18 -10 0 -29 8 -42 18 -13 11 -39 22 -56 25 -26 5 -35 2 -43
-13 -5 -10 -10 -32 -10 -48 0 -16 5 -43 10 -59 6 -17 21 -35 33 -42 12 -6 45
-15 72 -20 28 -5 75 -16 106 -24 31 -9 114 -21 185 -27 71 -6 137 -13 147 -16
10 -3 30 -7 45 -9 15 -2 70 -13 122 -25 52 -12 138 -35 190 -52 52 -16 112
-36 133 -44 20 -8 48 -14 62 -14 13 0 26 -3 28 -8 3 -4 38 -18 79 -31 40 -13
102 -34 138 -46 36 -12 94 -28 129 -34 35 -7 80 -21 100 -32 19 -10 46 -19 59
-19 12 0 44 -11 70 -24 27 -13 66 -28 87 -32 21 -4 66 -18 99 -32 34 -13 64
-29 67 -34 4 -6 58 -27 120 -49 63 -21 120 -39 127 -39 6 0 12 7 12 15 0 12 8
14 38 9 20 -3 40 -8 44 -10 4 -3 15 8 25 23 9 15 18 29 19 31 1 2 10 5 21 7
10 2 22 4 26 4 4 1 13 15 18 31 6 17 15 30 20 30 4 0 23 12 41 28 18 15 49 35
68 45 19 9 55 32 80 51 25 19 50 35 56 35 6 1 45 17 87 36 42 19 79 40 82 45
4 6 11 8 16 4 6 -3 18 1 27 9 9 9 28 21 42 27 14 6 34 16 45 23 11 7 37 22 56
35 20 12 43 22 51 22 8 0 24 9 36 20 12 11 28 20 35 20 8 0 20 7 27 15 7 8 20
15 30 15 9 0 43 13 76 29 32 16 75 32 94 36 19 4 44 12 55 19 11 7 40 18 65
25 25 7 52 17 60 22 8 5 20 11 25 12 6 2 33 12 60 21 28 10 68 24 90 33 22 8
50 24 62 35 11 11 32 18 45 17 12 -1 50 5 83 15 33 9 69 21 80 26 11 5 38 14
60 21 22 6 51 16 65 22 14 5 32 13 42 18 9 4 54 15 100 25 45 9 94 23 106 31
13 8 26 12 29 9 4 -3 11 -2 17 3 6 5 38 19 71 32 40 15 78 21 118 20 45 -1 62
2 71 15 7 9 28 17 47 19 l34 3 0 103 c0 57 4 113 8 124 5 11 20 41 33 66 13
26 24 55 24 65 0 11 15 46 33 79 18 33 38 69 44 80 7 11 22 43 34 70 12 28 37
86 55 130 19 44 34 87 34 95 0 9 4 20 9 25 5 6 19 38 30 72 12 34 21 71 21 81
0 11 7 37 16 58 9 22 25 59 35 84 11 25 24 53 29 62 6 10 10 26 10 36 0 10 16
52 35 93 20 41 40 81 45 89 6 8 15 26 21 40 6 14 13 41 16 60 3 19 14 47 24
62 11 14 19 35 19 46 0 12 -4 32 -10 47 -6 15 -24 32 -44 40 -28 12 -36 22
-40 47 -3 18 -10 67 -15 108 -6 41 -12 146 -14 232 -2 87 -6 161 -10 164 -4 4
-7 53 -7 109 0 56 -5 115 -10 131 -6 16 -12 110 -13 209 -2 99 -9 226 -16 282
-7 57 -11 129 -8 160 2 32 10 99 16 148 7 50 15 97 18 105 3 8 4 53 3 99 -1
47 -6 93 -11 102 -5 10 -34 43 -64 73 -31 31 -61 70 -67 88 -6 18 -25 56 -41
83 -16 28 -43 75 -60 105 -17 30 -45 83 -62 117 -18 34 -47 80 -64 101 -17 22
-31 44 -31 49 0 4 -11 20 -24 34 -13 14 -32 41 -41 59 -10 19 -35 59 -55 90
-21 30 -69 118 -108 195 -38 77 -85 174 -105 215 -19 41 -38 82 -41 90 -4 8
-12 25 -19 36 -7 12 -34 50 -60 85 -26 35 -65 90 -86 123 -22 32 -102 124
-179 205 -77 80 -161 170 -187 200 -26 30 -54 69 -61 87 -8 18 -18 35 -24 39
-5 3 -10 22 -10 42 0 26 -5 36 -20 40 -17 5 -17 7 -5 20 8 8 15 22 15 31 0 9
-9 28 -20 42 -16 21 -20 22 -25 9 -5 -13 -14 -15 -51 -8 -24 5 -54 14 -67 20
-12 7 -56 36 -99 65 -49 35 -86 54 -105 54 -15 0 -60 7 -98 16 -39 9 -104 21
-145 28 -41 6 -81 15 -87 19 -7 5 -17 6 -22 3 -5 -4 -41 1 -79 9 -38 8 -87 21
-108 29 -22 8 -57 17 -79 21 -22 4 -49 12 -60 19 -11 7 -38 16 -60 20 -22 3
-76 10 -120 15 -44 5 -91 12 -105 15 -14 3 -47 9 -75 12 -27 3 -66 7 -85 9
-19 2 -60 9 -90 15 -30 6 -74 13 -98 17 -23 3 -45 10 -48 14 -3 5 -27 9 -54 9z
m9 -172 c13 1 76 -5 140 -14 64 -8 150 -17 191 -19 41 -3 89 -7 105 -11 17 -3
35 -11 42 -16 7 -6 19 -5 32 4 17 10 26 9 56 -5 20 -9 53 -17 75 -17 21 0 41
-4 44 -9 3 -4 28 -11 55 -15 27 -4 74 -17 104 -31 30 -13 72 -24 93 -24 22 0
47 -2 56 -4 10 -2 21 -6 24 -10 4 -4 17 -7 28 -7 12 0 53 -11 93 -24 39 -14
96 -27 126 -30 30 -3 84 -14 120 -26 36 -12 77 -30 91 -41 13 -10 32 -19 41
-19 9 0 32 -12 51 -27 18 -16 34 -34 34 -41 0 -7 -7 -27 -16 -45 -10 -18 -25
-37 -34 -44 -9 -6 -22 -29 -28 -50 -6 -21 -27 -63 -47 -93 -19 -30 -35 -61
-35 -68 0 -8 -7 -28 -16 -45 -9 -18 -21 -40 -25 -49 -5 -9 -14 -46 -20 -82 -7
-37 -20 -73 -30 -82 -12 -11 -35 -16 -76 -15 -32 1 -192 2 -355 2 -164 -1
-314 -3 -335 -6 -21 -3 -213 -10 -428 -15 -214 -5 -419 -15 -455 -21 -36 -6
-114 -11 -173 -10 -59 1 -145 -3 -190 -9 -45 -5 -95 -12 -112 -15 -16 -3 -59
-14 -95 -24 -36 -10 -90 -25 -120 -32 -30 -7 -65 -12 -77 -11 -12 1 -37 -5
-57 -13 -19 -8 -57 -15 -84 -15 -26 0 -52 -4 -57 -9 -6 -6 -41 -12 -80 -14
-38 -3 -87 -8 -108 -12 -21 -4 -40 -12 -43 -16 -3 -5 -9 -9 -14 -9 -5 0 -25
17 -44 38 -19 20 -44 48 -55 61 -12 13 -21 30 -21 37 0 7 -9 18 -20 24 -11 6
-20 17 -20 24 0 8 -18 43 -40 77 -22 35 -56 92 -75 126 -20 34 -39 78 -42 97
-3 22 -1 42 7 51 7 8 26 15 42 15 19 0 45 13 76 39 26 21 61 45 77 53 17 9 46
21 66 27 19 6 42 11 50 11 8 0 25 9 39 20 14 11 39 20 56 20 17 0 46 5 65 11
19 6 48 17 66 25 17 8 36 14 42 14 6 0 19 4 29 9 9 6 46 15 81 20 35 6 71 17
80 25 9 8 43 16 76 19 33 2 68 6 78 9 9 2 23 10 29 16 7 7 19 12 29 12 9 0 38
12 65 26 27 14 55 31 62 37 7 6 59 30 115 54 56 24 106 43 111 43 5 0 17 6 25
14 9 7 48 23 86 34 39 12 84 24 100 28 17 4 45 16 64 26 19 11 43 17 55 14 11
-3 25 -1 30 3 6 5 31 13 56 18 25 5 56 10 69 11z m1670 -528 c3 0 47 -46 96
-101 50 -56 100 -108 113 -117 12 -8 22 -20 22 -26 0 -7 16 -28 36 -47 20 -18
83 -87 141 -153 58 -65 109 -131 115 -147 5 -16 14 -29 18 -29 4 0 10 -10 14
-23 3 -12 20 -40 39 -62 18 -22 41 -60 52 -85 10 -25 27 -55 36 -68 10 -13 21
-36 24 -52 4 -17 11 -32 16 -35 5 -4 20 -30 34 -59 14 -29 25 -59 25 -66 0 -7
12 -29 26 -48 15 -19 38 -55 51 -80 14 -25 39 -69 56 -96 18 -28 37 -58 42
-67 6 -9 32 -49 59 -90 27 -41 78 -125 113 -187 35 -61 63 -115 63 -119 0 -3
6 -14 14 -22 7 -9 31 -47 51 -86 21 -38 51 -81 66 -95 24 -21 29 -34 30 -75 1
-27 -4 -122 -11 -211 -9 -115 -9 -167 -2 -181 8 -14 8 -23 0 -31 -8 -8 -6 -41
6 -119 8 -59 15 -146 14 -193 -1 -47 4 -143 11 -215 6 -71 13 -145 16 -163 2
-18 7 -38 11 -44 4 -6 9 -61 11 -122 2 -61 4 -127 5 -146 1 -19 7 -100 15
-180 7 -80 16 -156 19 -169 6 -20 4 -22 -9 -15 -9 6 -49 45 -87 89 -39 43 -81
85 -93 93 -12 8 -51 45 -87 81 -36 37 -86 82 -112 101 -27 18 -48 38 -48 44 0
6 -16 27 -36 46 -20 19 -43 48 -51 65 -9 16 -21 37 -28 45 -7 8 -22 40 -33 71
-11 31 -26 67 -33 82 -8 14 -34 52 -59 84 -25 32 -56 75 -68 96 -12 21 -22 44
-22 50 -1 7 -14 28 -30 47 -17 19 -30 46 -30 61 0 14 -8 37 -18 50 -11 13 -38
76 -61 139 -24 63 -57 147 -74 185 -17 39 -39 82 -49 97 -10 14 -18 34 -18 45
0 10 -16 49 -35 86 -20 38 -49 101 -66 140 -17 40 -42 104 -56 142 -14 39 -34
89 -44 112 -11 23 -19 48 -19 55 0 7 -14 49 -31 93 -17 44 -37 99 -44 122 -7
22 -16 58 -19 80 -3 21 -12 54 -20 73 -8 19 -24 69 -36 110 -12 41 -37 113
-55 160 -18 47 -41 117 -50 155 -9 39 -25 126 -35 195 -10 69 -23 138 -29 153
-6 16 -11 43 -11 62 0 18 -7 46 -15 61 -8 16 -15 35 -15 43 0 11 3 11 15 1 12
-10 15 -10 15 3 0 9 -5 27 -11 41 -9 20 -8 31 9 63 11 21 28 58 37 83 9 25 24
61 33 80 9 19 19 37 23 40 4 3 17 26 29 53 12 26 25 47 29 47z m-3571 -360 c4
0 12 -4 18 -8 6 -4 21 -29 33 -56 12 -28 32 -64 45 -80 13 -17 31 -47 41 -66
9 -19 31 -49 47 -67 22 -22 32 -44 35 -77 4 -36 13 -52 44 -81 21 -19 43 -35
49 -35 5 0 10 5 10 11 0 8 4 8 14 0 8 -7 17 -22 20 -35 3 -13 15 -26 26 -29
12 -3 20 -14 20 -25 0 -12 -4 -24 -10 -27 -5 -3 -10 -21 -10 -38 0 -18 -6 -44
-14 -58 -7 -14 -28 -75 -46 -134 -18 -60 -44 -124 -57 -143 -13 -20 -26 -47
-29 -61 -4 -14 -26 -60 -50 -102 -24 -42 -44 -80 -44 -85 0 -5 -16 -40 -35
-79 -19 -38 -35 -80 -35 -92 0 -13 -3 -23 -8 -23 -4 0 -12 -9 -17 -19 -6 -11
-31 -61 -57 -112 -27 -51 -48 -98 -48 -104 0 -7 -8 -23 -18 -36 -11 -13 -22
-37 -26 -54 -4 -16 -14 -37 -21 -45 -7 -8 -21 -40 -31 -70 -9 -30 -35 -76 -56
-101 -21 -26 -38 -56 -38 -68 0 -11 -4 -21 -10 -21 -5 0 -10 -10 -10 -22 0
-12 -16 -52 -35 -89 -19 -38 -35 -74 -35 -82 0 -8 -7 -28 -15 -43 -8 -16 -15
-37 -15 -46 0 -9 -4 -19 -9 -23 -5 -3 -17 -29 -26 -58 -9 -28 -26 -72 -37 -97
-11 -25 -24 -53 -29 -62 -5 -10 -9 -24 -9 -33 0 -8 -7 -31 -16 -52 -9 -21 -22
-51 -30 -66 -8 -16 -14 -37 -14 -48 0 -11 -6 -32 -13 -47 -8 -15 -21 -58 -31
-97 -9 -38 -24 -95 -33 -125 -8 -30 -29 -85 -45 -122 -22 -48 -38 -70 -57 -77
-14 -6 -44 -22 -66 -36 -22 -14 -69 -39 -105 -56 -36 -17 -81 -38 -100 -47
-19 -8 -46 -23 -59 -33 -13 -11 -33 -19 -44 -19 -18 0 -19 5 -14 53 3 28 12
108 20 177 9 69 23 205 32 303 9 99 14 185 11 193 -3 8 -2 22 3 32 5 9 16 73
25 142 9 69 18 150 20 180 3 30 13 100 21 155 9 55 20 123 24 150 5 28 16 75
25 105 10 30 21 71 26 90 5 19 14 62 20 95 7 33 20 83 29 110 10 28 26 73 36
100 9 28 20 82 24 120 5 50 15 82 35 113 14 23 29 56 33 72 3 17 18 42 33 58
15 15 30 40 34 55 4 16 21 48 39 71 18 24 53 70 78 102 25 33 63 91 84 129 21
39 53 92 71 120 19 27 34 55 34 61 0 6 7 17 15 24 8 6 31 44 52 83 21 40 51
101 66 137 15 36 47 92 72 125 25 33 45 66 45 73 0 7 11 28 24 45 13 18 33 53
45 80 12 26 25 47 29 47z m2799 -187 c114 -2 224 -5 243 -8 19 -3 73 -9 119
-12 47 -3 94 -9 106 -13 16 -6 25 -27 42 -101 12 -52 25 -122 28 -156 3 -35
13 -80 21 -100 8 -21 24 -57 35 -80 10 -24 19 -46 19 -51 0 -5 11 -32 25 -60
14 -29 25 -58 25 -66 0 -8 4 -17 9 -20 5 -3 12 -23 16 -43 4 -21 15 -57 26
-80 10 -23 19 -53 19 -67 0 -14 5 -28 10 -31 6 -3 10 -16 10 -29 0 -13 17 -76
39 -142 21 -65 50 -150 65 -189 15 -38 36 -95 48 -125 12 -30 36 -88 54 -128
19 -40 34 -77 34 -82 0 -6 10 -31 23 -58 13 -26 28 -56 34 -67 6 -11 27 -56
47 -100 20 -45 36 -86 36 -92 0 -5 9 -22 20 -36 12 -15 28 -52 36 -83 8 -32
21 -71 29 -88 8 -17 31 -76 50 -131 20 -55 40 -104 44 -110 4 -5 15 -31 25
-57 10 -27 21 -48 26 -48 5 0 12 -9 15 -21 4 -11 21 -41 38 -66 18 -25 37 -52
42 -60 8 -12 1 -22 -30 -46 -22 -18 -136 -128 -254 -244 -117 -117 -217 -213
-222 -213 -4 0 -10 -8 -14 -19 -3 -10 -14 -22 -25 -27 -11 -5 -81 -67 -156
-139 -75 -71 -175 -169 -223 -216 -47 -48 -113 -117 -146 -153 -33 -37 -61
-71 -63 -77 -2 -5 -10 -9 -18 -9 -7 0 -20 -13 -29 -30 -8 -16 -34 -49 -58 -72
-23 -24 -79 -82 -124 -128 -45 -47 -90 -90 -100 -96 -10 -6 -22 -19 -27 -30
-5 -10 -29 -35 -53 -54 -25 -19 -106 -98 -180 -175 -75 -77 -147 -157 -161
-177 -13 -21 -30 -38 -38 -38 -7 0 -27 -25 -44 -55 -17 -30 -35 -55 -40 -55
-5 0 -18 -16 -30 -35 -12 -19 -37 -54 -56 -78 -20 -23 -72 -79 -117 -124 -62
-64 -88 -83 -109 -83 -15 0 -33 8 -40 18 -7 11 -24 25 -38 32 -14 7 -57 36
-95 64 -39 28 -80 56 -90 62 -11 6 -36 19 -55 30 -19 10 -77 58 -129 107 -51
48 -98 87 -105 87 -6 0 -17 9 -24 20 -7 11 -17 20 -23 20 -6 0 -31 18 -56 40
-25 22 -50 40 -56 40 -5 0 -32 19 -61 42 -28 23 -67 57 -87 77 -20 20 -51 48
-68 64 -17 15 -38 27 -46 27 -8 0 -19 9 -25 20 -6 11 -26 35 -45 53 -18 17
-60 57 -93 87 -32 30 -77 69 -98 87 -21 17 -62 51 -90 75 -28 24 -74 63 -103
88 -29 25 -62 52 -73 60 -11 8 -44 34 -74 58 -30 23 -56 42 -60 42 -3 0 -29
20 -57 44 -29 24 -62 47 -74 50 -13 4 -23 11 -23 15 0 4 -33 32 -72 62 -40 29
-85 65 -100 79 -14 14 -48 45 -75 70 -26 25 -71 65 -100 90 -29 25 -92 82
-140 128 -48 46 -109 97 -135 115 -42 28 -47 36 -47 67 0 19 6 51 13 70 8 19
30 80 50 135 20 55 36 113 36 130 0 16 7 48 15 71 7 22 25 66 39 97 14 31 26
64 26 74 0 10 8 34 18 53 11 19 22 54 26 77 3 23 15 57 25 75 10 18 24 51 31
73 6 22 16 51 22 65 6 14 14 34 18 45 4 11 22 52 40 90 18 39 45 97 61 130 16
33 74 155 130 270 56 116 112 235 126 265 14 30 31 66 38 80 6 14 16 34 22 45
5 11 21 45 35 75 14 30 37 80 51 110 14 30 43 97 66 148 23 50 41 100 41 110
0 9 12 44 25 77 14 33 25 63 25 68 0 4 9 29 21 55 11 26 29 66 40 90 10 23 19
49 19 58 0 8 7 26 16 40 9 13 20 39 23 57 l7 32 79 6 c44 4 100 11 125 17 25
6 72 16 105 22 33 6 85 19 115 27 30 9 72 22 93 29 21 8 43 12 48 8 5 -3 26 0
45 6 20 7 80 12 133 11 53 -1 103 -3 111 -3 8 -1 44 2 80 5 36 3 79 11 95 18
19 7 112 13 250 15 121 2 276 6 345 9 69 2 181 7 250 11 69 3 126 7 127 8 1 0
95 0 210 -1z m1516 -2773 c8 0 26 -15 41 -34 14 -19 26 -38 26 -42 0 -4 76
-84 169 -178 93 -94 183 -185 200 -202 17 -16 31 -35 31 -41 0 -7 9 -15 20
-18 11 -3 20 -10 20 -15 0 -4 23 -36 51 -69 28 -34 58 -61 67 -61 8 0 13 -3
10 -6 -4 -3 10 -20 30 -39 l37 -33 -18 -49 c-9 -26 -17 -54 -17 -62 0 -8 -11
-38 -25 -67 -14 -30 -28 -68 -32 -84 -3 -17 -14 -48 -24 -68 -11 -20 -19 -43
-19 -52 0 -9 -4 -20 -9 -25 -4 -6 -14 -32 -21 -60 -7 -27 -26 -86 -42 -130
-16 -44 -35 -93 -42 -110 -8 -16 -19 -50 -26 -75 -7 -25 -20 -56 -30 -70 -9
-14 -21 -36 -25 -50 -4 -14 -13 -32 -20 -40 -7 -8 -18 -33 -25 -55 -7 -22 -28
-61 -46 -88 -19 -26 -34 -50 -34 -54 0 -3 -6 -14 -13 -22 -8 -9 -19 -36 -26
-61 -7 -25 -16 -47 -20 -50 -3 -3 -14 -22 -23 -43 -10 -21 -18 -45 -18 -53 0
-8 -4 -13 -10 -9 -5 3 -17 1 -27 -4 -10 -5 -45 -15 -78 -22 -33 -7 -72 -18
-87 -26 -15 -7 -35 -13 -44 -13 -10 0 -50 -16 -91 -35 -41 -19 -78 -35 -83
-35 -4 0 -31 -11 -59 -25 -27 -14 -53 -25 -58 -24 -4 1 -19 -2 -33 -8 -14 -6
-56 -21 -95 -33 -38 -12 -96 -32 -128 -43 -31 -11 -60 -24 -63 -28 -3 -5 -15
-9 -27 -9 -12 0 -35 -9 -52 -20 -16 -11 -37 -20 -45 -20 -8 0 -37 -12 -65 -26
-27 -14 -72 -30 -100 -36 -27 -6 -59 -15 -70 -21 -11 -6 -22 -12 -25 -13 -3 0
-23 -8 -45 -18 -22 -9 -62 -26 -90 -38 -27 -11 -73 -31 -102 -44 -28 -13 -55
-24 -58 -24 -4 0 -19 -9 -34 -19 -14 -10 -45 -24 -68 -30 -23 -6 -45 -16 -48
-21 -4 -6 -25 -19 -48 -30 -22 -11 -46 -20 -52 -20 -7 0 -19 -8 -28 -18 -9
-10 -38 -29 -64 -42 -27 -13 -52 -29 -56 -37 -4 -7 -18 -13 -31 -13 -13 0 -29
-7 -36 -15 -7 -9 -32 -24 -54 -35 -23 -10 -58 -30 -79 -44 -21 -14 -49 -29
-62 -32 -14 -3 -29 -12 -33 -18 -4 -7 -24 -22 -45 -34 -21 -12 -43 -22 -48
-22 -6 0 -9 15 -5 38 2 20 1 69 -4 107 -5 39 -11 104 -14 145 -3 41 -10 100
-16 130 -6 30 -10 84 -10 120 0 36 3 90 6 120 3 30 5 82 5 114 0 56 2 61 42
101 23 23 52 55 64 71 12 16 42 53 67 83 25 30 46 59 46 64 0 6 21 35 47 66
26 31 53 63 60 71 7 8 29 34 50 58 21 24 68 73 106 109 37 36 67 74 67 85 0
10 4 18 10 18 5 0 37 26 71 58 35 31 99 91 143 132 44 41 100 95 125 120 26
25 65 62 89 83 23 21 42 41 42 45 0 4 27 36 60 70 33 35 58 68 54 73 -3 5 1 9
9 9 7 0 29 19 48 42 19 23 85 94 147 157 61 64 112 119 112 123 0 5 6 8 13 8
7 0 92 75 188 167 95 92 199 192 229 223 30 31 70 65 88 75 17 11 32 23 32 27
0 4 42 50 94 102 52 53 101 96 109 96z m-4935 -361 c13 1 37 -6 55 -15 18 -9
48 -29 67 -44 19 -15 40 -29 47 -31 6 -2 68 -59 137 -126 69 -68 128 -123 133
-123 4 0 35 -25 68 -56 33 -31 78 -67 100 -81 22 -14 51 -36 65 -49 14 -14 74
-62 133 -107 60 -45 120 -90 134 -99 15 -9 39 -27 55 -40 16 -13 65 -54 108
-92 44 -38 80 -72 80 -77 0 -4 9 -11 21 -14 12 -4 76 -60 143 -125 66 -65 164
-154 216 -199 52 -45 127 -103 165 -128 39 -26 100 -72 137 -102 37 -31 88
-72 115 -91 26 -19 50 -37 53 -40 3 -3 37 -33 76 -68 39 -34 75 -62 81 -62 5
0 18 -9 28 -20 10 -11 24 -20 31 -20 7 0 43 -25 79 -55 37 -30 71 -55 76 -55
5 0 24 -15 43 -32 19 -18 47 -43 61 -55 15 -13 32 -23 39 -23 7 0 13 -6 13
-12 0 -7 6 -67 12 -133 6 -66 16 -141 22 -166 5 -25 12 -106 14 -180 2 -74 1
-157 -2 -185 l-5 -51 -34 7 c-19 4 -50 17 -69 29 -20 12 -45 21 -55 21 -10 0
-21 4 -24 9 -3 4 -24 11 -46 15 -22 3 -64 17 -94 31 -30 14 -66 25 -80 25 -14
0 -27 4 -30 9 -3 5 -16 11 -28 14 -13 3 -41 10 -63 16 -22 5 -56 13 -75 16
-19 3 -39 10 -45 14 -5 5 -28 12 -50 15 -22 4 -71 21 -110 37 -38 16 -81 29
-95 29 -14 0 -30 4 -36 10 -5 5 -50 21 -99 34 -50 14 -128 38 -175 55 -46 17
-94 31 -107 31 -12 0 -32 4 -45 10 -13 5 -68 17 -123 26 -55 9 -120 18 -145
20 -25 3 -58 6 -73 7 -16 1 -36 12 -47 27 -11 14 -22 39 -26 56 -3 17 -19 46
-35 63 -16 18 -29 38 -29 44 0 7 -29 43 -65 81 -36 37 -65 73 -65 78 0 5 -9
21 -20 35 -11 14 -20 33 -20 42 0 9 -14 34 -30 55 -17 22 -30 45 -30 52 0 7
-6 17 -13 21 -8 4 -27 31 -42 58 -16 28 -46 73 -67 102 -21 28 -42 54 -48 58
-5 3 -10 14 -10 24 0 10 -9 26 -20 36 -11 10 -22 27 -26 39 -4 11 -24 43 -44
71 -21 27 -45 64 -53 80 -8 17 -46 64 -84 105 -37 41 -76 91 -86 110 -9 19
-21 42 -26 50 -6 8 -29 55 -51 105 -23 49 -64 121 -90 160 -27 38 -59 81 -72
95 -13 14 -27 32 -30 41 -4 10 -36 60 -72 112 -36 52 -66 97 -66 101 0 3 -21
36 -46 73 l-45 68 31 26 c17 14 50 32 73 39 23 7 65 23 94 36 28 13 56 24 61
24 5 0 19 12 33 26 13 14 44 35 69 46 25 11 52 23 60 28 8 5 25 9 38 9z"/>
<g>
<path d="M6970 7110 c-5 0 -10 -4 -10 -10 0 -5 5 -10 10 -10 6 0 10 5 10 10 0
6 -4 10 -10 10z"/>
</g>
</g>
<g>
<path d="M6 5077 c-3 4 -6 -2 -5 -13 0 -11 3 -14 6 -6 3 7 2 16 -1 19z"/>
</g>
</g>
</svg>
