<?xml version="1.0" standalone="no"?>
<!DOCTYPE svg PUBLIC "-//W3C//DTD SVG 20010904//EN"
 "http://www.w3.org/TR/2001/REC-SVG-20010904/DTD/svg10.dtd">
<svg version="1.0" xmlns="http://www.w3.org/2000/svg"
 width="1724.000000pt" height="2048.000000pt" viewBox="0 0 1724.000000 2048.000000"
 preserveAspectRatio="xMidYMid meet">
<metadata>
Created by potrace 1.16, written by Peter Selinger 2001-2019
</metadata>
<g transform="translate(0.000000,2048.000000) scale(0.100000,-0.100000)"
fill="#000000" stroke="none">
<g>
<path d="M7558 20140 c-9 0 -20 -4 -23 -10 -3 -5 0 -22 7 -37 7 -14 20 -31 30
-36 12 -8 21 -7 32 2 9 8 16 26 16 41 0 20 -6 29 -22 34 -13 3 -31 6 -40 6z"/>
</g>
<g>
<path d="M12608 20039 c-7 0 -19 -3 -25 -6 -7 -2 -13 -17 -13 -32 0 -15 8 -35
19 -45 11 -10 25 -14 37 -9 10 3 22 11 26 17 4 6 8 21 8 33 0 12 -9 27 -19 33
-11 5 -26 10 -33 9z"/>
</g>
<g>
<path d="M3490 19880 c-9 0 -26 -9 -39 -21 -15 -14 -20 -27 -15 -42 3 -12 9
-25 13 -28 3 -4 16 -10 27 -13 14 -4 28 -1 38 9 9 9 16 29 16 44 0 15 -5 32
-12 39 -7 7 -19 12 -28 12z"/>
</g>
<g>
<path d="M1816 19300 c-13 0 -29 -6 -35 -13 -6 -8 -11 -22 -12 -33 -1 -10 -1
-27 -1 -36 1 -12 10 -18 25 -18 12 0 32 3 45 6 15 4 22 14 22 31 0 13 -5 33
-10 44 -6 10 -21 19 -34 19z"/>
</g>
<g>
<path d="M7756 19269 c-6 0 -23 -5 -38 -10 -15 -6 -30 -20 -34 -32 -5 -15 0
-27 20 -43 22 -19 30 -21 55 -13 20 7 31 19 34 37 3 17 -1 34 -10 45 -9 9 -21
17 -27 16z"/>
</g>
<g>
<path d="M10767 19240 c-7 0 -23 -6 -37 -13 -18 -9 -25 -21 -25 -42 0 -27 4
-30 33 -33 18 -2 39 2 47 8 7 6 12 21 11 34 -1 12 -6 27 -10 34 -4 7 -13 12
-19 12z"/>
</g>
<g>
<path d="M9131 19219 c-3 0 -16 -4 -28 -9 -12 -5 -27 -18 -33 -30 -6 -11 -8
-30 -5 -40 4 -11 13 -20 20 -20 8 0 25 4 39 10 18 7 26 17 26 34 0 13 -3 31
-6 40 -3 9 -9 16 -13 15z"/>
</g>
<g>
<path d="M10149 19208 c-19 2 -33 -5 -48 -24 -12 -15 -21 -37 -19 -48 2 -15
12 -22 35 -24 25 -3 35 2 48 22 9 14 15 35 13 48 -2 16 -11 24 -29 26z"/>
</g>
<g>
<path d="M14970 19189 c-27 9 -32 7 -46 -14 -10 -15 -14 -34 -10 -49 3 -14 15
-27 26 -31 10 -3 28 -1 38 4 11 6 23 22 26 36 4 14 4 30 1 34 -3 5 -19 14 -35
20z"/>
</g>
<g>
<path d="M10406 19080 c-10 0 -18 -13 -22 -37 -4 -21 -2 -43 4 -52 5 -9 16
-15 22 -13 7 1 18 -2 25 -8 9 -8 17 -4 29 14 9 14 16 32 16 40 0 8 -13 24 -29
35 -16 12 -36 21 -45 21z"/>
</g>
<g>
<path d="M5690 19060 c-11 0 -24 -8 -29 -19 -7 -12 -7 -30 0 -55 7 -25 16 -36
29 -36 10 0 25 3 34 6 9 4 16 18 16 33 0 15 -7 37 -16 49 -8 12 -24 22 -34 22z"/>
</g>
<g>
<path d="M10184 18987 c-6 2 -18 -5 -27 -15 -9 -10 -17 -31 -17 -45 0 -23 4
-27 30 -27 24 0 31 5 36 27 4 14 3 33 -3 41 -5 9 -14 17 -19 19z"/>
</g>
<g>
<path d="M13160 18920 c-3 0 -16 -10 -28 -23 -12 -13 -22 -33 -22 -45 0 -12
11 -29 25 -38 21 -14 30 -15 52 -5 22 10 24 16 19 43 -3 18 -14 40 -23 50 -9
10 -19 18 -23 18z"/>
</g>
<g>
<path d="M11386 18869 c-12 -1 -29 -3 -38 -6 -12 -3 -18 -14 -18 -33 0 -15 6
-32 13 -37 6 -6 22 -13 35 -16 13 -3 28 1 37 10 8 8 15 24 15 37 0 12 -5 27
-12 34 -7 7 -21 11 -32 11z"/>
</g>
<g>
<path d="M10453 18779 c-4 0 -18 -4 -31 -10 -19 -7 -23 -15 -20 -41 2 -26 8
-34 26 -36 13 -2 34 4 48 12 13 9 24 25 24 36 0 11 -9 24 -19 30 -11 5 -23 10
-28 9z"/>
</g>
<g>
<path d="M13040 18710 c-14 0 -31 -5 -38 -12 -7 -7 -12 -24 -12 -39 0 -15 7
-33 17 -40 9 -8 26 -12 37 -11 12 2 27 9 34 14 6 6 12 22 12 37 0 15 -5 32
-12 39 -7 7 -24 12 -38 12z"/>
</g>
<g>
<path d="M9989 18690 c-10 0 -27 -12 -38 -26 -12 -15 -21 -30 -21 -33 0 -4 6
-14 13 -23 6 -9 21 -18 33 -20 11 -2 28 3 37 11 10 7 17 19 17 27 0 7 -5 25
-12 39 -6 14 -19 25 -29 25z"/>
</g>
<g>
<path d="M12305 18610 c-6 0 -21 -9 -33 -20 -12 -12 -22 -29 -22 -39 0 -10 8
-25 18 -34 10 -10 28 -17 39 -17 12 0 24 7 27 16 3 9 6 28 6 43 0 15 -5 32
-12 39 -7 7 -17 12 -23 12z"/>
</g>
<g>
<path d="M14016 18398 c-6 4 -20 6 -31 5 -12 -2 -26 -12 -32 -22 -7 -12 -9
-30 -4 -47 6 -22 14 -30 36 -32 18 -2 33 2 40 12 7 8 10 29 7 45 -2 17 -9 34
-16 39z"/>
</g>
<g>
<path d="M4718 18357 c-10 0 -25 -12 -34 -26 -15 -22 -15 -28 -3 -50 8 -14 23
-27 33 -29 9 -2 26 4 37 14 10 9 19 27 19 39 0 12 -8 29 -17 37 -10 8 -26 15
-35 15z"/>
</g>
<g>
<path d="M2761 18119 c-9 0 -22 -3 -29 -6 -7 -3 -18 -17 -23 -30 -7 -20 -6
-30 7 -44 11 -13 31 -19 57 -19 l40 0 -6 36 c-3 20 -11 42 -18 50 -6 8 -19 14
-28 13z"/>
</g>
<g>
<path d="M15629 18118 c-14 2 -31 -4 -38 -12 -7 -8 -11 -23 -9 -32 2 -9 15
-26 31 -37 25 -19 29 -20 43 -6 12 12 13 24 7 50 -7 26 -15 35 -34 37z"/>
</g>
<g>
<path d="M8981 18000 c-10 0 -25 -8 -34 -18 -10 -10 -17 -25 -17 -34 0 -8 8
-22 18 -31 11 -10 26 -14 40 -10 12 3 25 16 28 28 3 13 1 33 -6 44 -6 12 -19
21 -29 21z"/>
</g>
<g>
<path d="M7576 17930 c-19 0 -29 -7 -37 -26 -5 -15 -7 -35 -4 -45 5 -14 16
-19 44 -19 20 0 42 5 49 12 7 7 12 19 12 28 0 9 -8 24 -18 33 -10 10 -31 17
-46 17z"/>
</g>
<g>
<path d="M6545 17920 c-34 0 -35 -1 -35 -40 0 -33 4 -42 24 -52 14 -6 31 -8
39 -5 8 3 16 19 19 36 2 16 0 37 -4 45 -6 10 -23 16 -43 16z"/>
</g>
<g>
<path d="M1104 17910 c-14 0 -30 -10 -41 -26 -16 -26 -16 -27 7 -46 13 -11 35
-18 49 -16 20 2 27 9 29 31 2 16 -2 35 -9 43 -6 8 -22 14 -35 14z"/>
</g>
<g>
<path d="M12482 17869 c-9 5 -27 5 -39 0 -12 -4 -25 -20 -29 -34 -4 -15 -1
-31 6 -40 7 -8 25 -15 40 -15 21 0 30 7 40 29 6 17 9 35 5 40 -3 6 -14 15 -23
20z"/>
</g>
<g>
<path d="M11503 17652 c-10 3 -31 1 -46 -5 -25 -8 -28 -13 -25 -51 3 -39 4
-41 33 -38 16 2 35 8 42 14 7 6 13 25 13 43 0 23 -5 34 -17 37z"/>
</g>
<g>
<path d="M5613 17639 c-4 0 -18 -5 -30 -11 -13 -6 -23 -17 -23 -24 0 -7 4 -24
9 -37 6 -14 19 -28 30 -32 11 -3 29 -2 39 4 11 6 22 20 25 32 4 14 -2 29 -18
45 -13 13 -28 24 -32 23z"/>
</g>
<g>
<path d="M14566 17609 c-11 0 -31 -4 -43 -9 -15 -6 -23 -18 -23 -33 0 -13 5
-28 12 -35 7 -7 26 -12 44 -12 17 0 37 7 44 15 10 12 10 21 0 45 -8 20 -19 30
-34 29z"/>
</g>
<g>
<path d="M4508 17588 c-9 2 -26 -7 -37 -19 -12 -13 -21 -32 -21 -44 0 -11 5
-26 12 -33 7 -7 26 -12 44 -12 17 0 38 7 45 16 11 13 10 22 -6 52 -11 20 -27
38 -37 40z"/>
</g>
<g>
<path d="M9488 17304 c-23 5 -30 2 -43 -24 -12 -23 -13 -35 -5 -50 7 -13 21
-20 39 -20 15 0 35 8 44 18 10 10 17 26 17 34 0 9 -6 20 -12 25 -7 6 -25 13
-40 17z"/>
</g>
<g>
<path d="M9865 17247 c-16 1 -39 -3 -50 -9 -11 -6 -23 -16 -27 -22 -4 -6 -8
-19 -8 -29 0 -11 10 -27 23 -38 12 -10 34 -18 48 -19 15 0 32 6 38 14 7 8 11
34 9 58 -3 39 -5 43 -33 45z"/>
</g>
<g>
<path d="M7439 17200 c-5 0 -21 -11 -33 -24 -20 -19 -23 -29 -17 -57 6 -30 10
-34 37 -31 16 2 34 8 41 14 7 6 13 17 13 25 0 8 -7 27 -15 43 -9 17 -20 30
-26 30z"/>
</g>
<g>
<path d="M13220 17189 c-3 -1 -12 -3 -20 -5 -9 -3 -21 -14 -29 -26 -11 -18
-10 -24 7 -47 10 -14 28 -27 40 -29 13 -2 25 5 32 18 7 12 9 34 5 48 -4 15
-12 30 -18 34 -7 4 -14 7 -17 7z"/>
</g>
<g>
<path d="M7926 17090 c-15 0 -27 -9 -35 -26 -10 -22 -9 -30 5 -45 9 -11 25
-19 36 -19 10 0 23 11 29 24 8 17 8 29 0 45 -7 12 -21 21 -35 21z"/>
</g>
<g>
<path d="M14010 17038 c-19 2 -41 -3 -48 -10 -6 -6 -12 -22 -12 -33 0 -16 9
-25 37 -33 21 -6 41 -8 44 -4 4 4 9 23 11 42 3 34 2 35 -32 38z"/>
</g>
<g>
<path d="M3044 17028 c-20 2 -36 -4 -48 -17 -10 -11 -16 -31 -14 -48 2 -23 8
-29 34 -31 20 -2 38 3 48 14 11 10 16 28 14 48 -3 26 -7 31 -34 34z"/>
</g>
<g>
<path d="M8841 17020 c-4 0 -18 -10 -33 -21 -19 -14 -28 -30 -28 -49 0 -16 7
-30 16 -34 9 -3 26 -6 39 -6 12 0 26 7 29 16 3 9 6 28 6 43 0 15 -5 32 -12 39
-7 7 -14 12 -17 12z"/>
</g>
<g>
<path d="M1749 17005 c-14 3 -31 -1 -37 -7 -7 -7 -12 -20 -12 -30 0 -11 12
-30 26 -44 24 -25 26 -25 44 -9 10 9 20 25 23 35 3 11 0 26 -7 35 -6 8 -23 18
-37 20z"/>
</g>
<g>
<path d="M7548 16909 c-2 0 -13 -5 -25 -11 -14 -7 -23 -20 -23 -33 0 -12 8
-29 18 -38 10 -10 25 -17 33 -17 8 0 20 5 27 12 7 7 12 24 12 40 0 17 -7 31
-19 38 -11 5 -21 10 -23 9z"/>
</g>
<g>
<path d="M7105 16829 c-11 0 -28 -4 -37 -10 -10 -5 -18 -20 -18 -33 0 -12 11
-33 24 -45 15 -14 33 -21 48 -19 17 2 25 12 32 41 8 32 7 39 -10 52 -10 8 -28
14 -39 14z"/>
</g>
<g>
<path d="M6470 16770 c-3 0 -6 -18 -8 -40 -2 -30 2 -41 17 -50 11 -5 26 -10
33 -10 8 0 22 6 32 13 13 9 16 20 11 40 -5 20 -16 29 -44 37 -20 5 -38 10 -41
10z"/>
</g>
<g>
<path d="M10890 16760 c-14 0 -31 -5 -38 -12 -7 -7 -12 -19 -12 -27 0 -9 7
-24 14 -33 7 -10 22 -18 32 -18 11 0 27 9 37 20 9 11 17 26 17 33 0 7 -5 18
-12 25 -7 7 -24 12 -38 12z"/>
</g>
<g>
<path d="M5179 16724 c-21 2 -33 -4 -44 -21 -8 -12 -15 -25 -15 -28 0 -3 12
-17 28 -30 15 -13 32 -25 37 -25 6 0 18 13 28 29 9 16 17 36 17 44 0 9 -5 19
-11 22 -6 4 -24 8 -40 9z"/>
</g>
<g>
<path d="M7770 16720 c-38 0 -40 -2 -40 -30 0 -18 7 -33 18 -39 14 -7 25 -6
40 5 13 8 22 26 22 40 0 21 -4 24 -40 24z"/>
</g>
<g>
<path d="M16020 16670 c-9 0 -24 -8 -33 -18 -10 -10 -17 -30 -17 -43 0 -14 5
-30 12 -37 7 -7 21 -12 33 -12 12 0 26 5 33 12 7 7 12 26 12 43 0 17 -5 36
-12 43 -7 7 -19 12 -28 12z"/>
</g>
<g>
<path d="M3867 16660 c-2 0 -13 -7 -25 -16 -17 -12 -22 -24 -20 -47 2 -22 11
-36 30 -46 25 -14 28 -14 47 9 11 14 20 37 21 53 0 20 -6 30 -26 37 -14 6 -26
10 -27 10z"/>
</g>
<g>
<path d="M9499 16639 c-2 0 -14 -7 -26 -16 -15 -10 -23 -26 -23 -44 0 -22 6
-32 26 -39 17 -7 32 -7 45 0 12 7 19 21 19 39 0 15 -8 35 -18 44 -10 10 -20
17 -23 16z"/>
</g>
<g>
<path d="M12192 16640 c-16 0 -32 -3 -35 -7 -4 -3 -7 -16 -7 -28 0 -11 5 -26
12 -33 7 -7 20 -12 30 -12 10 0 23 11 30 24 6 14 8 32 5 40 -4 10 -18 16 -35
16z"/>
</g>
<g>
<path d="M7479 16555 l-24 25 -28 -23 c-24 -20 -26 -24 -14 -47 8 -16 23 -26
40 -28 21 -3 29 2 39 23 10 23 9 29 -13 50z"/>
</g>
<g>
<path d="M9649 16536 c-33 33 -36 34 -51 17 -9 -10 -17 -25 -19 -33 -2 -8 0
-25 4 -37 4 -11 15 -24 23 -27 9 -3 23 -2 33 3 10 6 24 17 31 26 12 14 9 21
-21 51z"/>
</g>
<g>
<path d="M6857 16508 c-20 2 -37 0 -38 -5 0 -4 -2 -16 -4 -26 -2 -10 5 -27 16
-38 10 -10 25 -19 32 -19 7 0 21 6 31 13 15 11 17 19 9 43 -8 24 -16 30 -46
32z"/>
</g>
<g>
<path d="M7585 16510 c-17 0 -29 -8 -37 -25 -9 -21 -8 -28 7 -45 11 -12 28
-20 38 -18 11 2 25 11 30 20 8 12 7 24 -1 42 -8 18 -19 26 -37 26z"/>
</g>
<g>
<path d="M7986 16489 c-6 0 -18 -3 -26 -6 -8 -3 -18 -11 -22 -17 -4 -6 -8 -15
-8 -21 0 -5 4 -15 8 -22 4 -6 19 -14 34 -18 21 -5 29 -2 38 15 9 18 9 28 -1
46 -7 13 -17 24 -23 23z"/>
</g>
<g>
<path d="M7214 16439 c-5 0 -15 -3 -21 -6 -7 -2 -13 -19 -13 -37 0 -20 8 -40
20 -51 19 -17 21 -17 40 0 11 10 20 28 20 40 0 12 -8 29 -18 38 -10 10 -23 17
-28 16z"/>
</g>
<g>
<path d="M7741 16419 c-3 0 -17 -5 -31 -12 -14 -6 -27 -12 -28 -13 -2 -2 1
-19 8 -38 10 -30 16 -36 40 -36 25 0 30 5 36 35 4 22 2 41 -6 50 -7 8 -15 15
-19 14z"/>
</g>
<g>
<path d="M7481 16370 c-9 0 -24 -7 -33 -14 -10 -7 -18 -24 -18 -38 0 -13 5
-29 12 -36 7 -7 24 -12 39 -12 19 0 30 6 34 21 4 11 1 34 -5 50 -7 16 -20 29
-29 29z"/>
</g>
<g>
<path d="M6319 16300 c-9 0 -21 -6 -27 -13 -7 -8 -8 -24 -4 -42 6 -20 17 -31
38 -37 22 -6 32 -4 42 9 6 9 12 25 12 34 0 10 -10 25 -22 33 -12 9 -30 16 -39
16z"/>
</g>
<g>
<path d="M12729 16260 c-9 0 -25 -7 -33 -16 -9 -8 -16 -24 -16 -34 0 -11 9
-24 21 -30 11 -6 30 -10 42 -8 16 2 23 11 25 31 2 16 -2 35 -9 43 -6 8 -20 14
-30 14z"/>
</g>
<g>
<path d="M14200 16240 c-3 -1 -20 -7 -37 -15 -26 -11 -33 -20 -33 -43 0 -16 8
-36 18 -45 11 -10 27 -14 39 -11 14 4 26 19 33 39 9 26 8 38 -2 54 -7 12 -15
21 -18 21z"/>
</g>
<g>
<path d="M7692 16199 c-15 -1 -35 -3 -44 -6 -10 -2 -18 -10 -18 -17 0 -7 10
-22 23 -34 13 -12 33 -22 44 -22 13 0 24 8 28 20 3 11 3 29 0 40 -4 14 -15 20
-33 19z"/>
</g>
<g>
<path d="M11436 16160 c-11 0 -29 -5 -38 -11 -10 -5 -18 -21 -18 -34 0 -15 10
-31 25 -41 21 -14 28 -14 41 -3 9 7 20 24 25 37 6 16 6 29 -2 38 -6 8 -21 14
-33 14z"/>
</g>
<g>
<path d="M7389 16130 c-17 0 -32 -6 -35 -15 -4 -8 -3 -26 0 -39 4 -17 14 -25
38 -29 19 -2 36 0 40 7 4 6 4 22 1 36 -3 14 -8 28 -10 33 -2 4 -18 7 -34 7z"/>
</g>
<g>
<path d="M15519 16130 c-3 0 -16 -11 -29 -25 -20 -21 -22 -28 -12 -50 7 -14
19 -28 28 -32 8 -3 26 -1 40 5 15 8 24 20 24 35 0 13 -10 33 -23 45 -13 12
-26 22 -28 22z"/>
</g>
<g>
<path d="M2762 16120 c-11 0 -24 -6 -30 -13 -7 -8 -9 -29 -5 -50 5 -33 9 -37
35 -37 16 0 38 5 49 10 10 6 19 17 19 26 0 8 -11 26 -25 39 -13 14 -33 25 -43
25z"/>
</g>
<g>
<path d="M7745 16030 c-7 0 -19 -8 -28 -18 -10 -10 -17 -28 -17 -40 0 -11 9
-27 21 -35 16 -12 27 -12 52 -4 18 7 33 12 35 13 2 1 -3 13 -10 26 -7 12 -19
31 -27 41 -8 9 -19 17 -26 17z"/>
</g>
<g>
<path d="M7081 16017 c-15 2 -25 -4 -33 -22 -10 -22 -8 -29 12 -50 13 -14 34
-25 47 -25 19 0 23 5 23 28 0 16 -6 37 -14 47 -7 10 -23 20 -35 22z"/>
</g>
<g>
<path d="M9093 15890 c-4 0 -16 -5 -25 -11 -11 -6 -18 -22 -18 -38 0 -22 7
-31 29 -41 16 -6 38 -10 48 -8 10 2 19 13 21 25 2 14 -7 32 -22 48 -14 14 -29
25 -33 25z"/>
</g>
<g>
<path d="M6346 15820 c-18 0 -37 -5 -44 -12 -7 -7 -12 -19 -12 -28 0 -9 6 -23
13 -32 6 -9 28 -19 48 -22 36 -6 37 -6 43 30 5 22 3 41 -5 50 -6 8 -26 14 -43
14z"/>
</g>
<g>
<path d="M3365 15744 c-22 4 -44 4 -48 0 -4 -4 -7 -17 -7 -29 0 -12 8 -29 18
-38 10 -10 25 -17 34 -17 8 0 24 10 36 23 12 13 22 28 22 35 0 6 -3 13 -7 15
-5 3 -26 8 -48 11z"/>
</g>
<g>
<path d="M5376 15749 c-11 -1 -32 -5 -46 -9 -14 -4 -44 -8 -66 -9 -30 -1 -44
-6 -48 -18 -5 -11 -1 -22 9 -30 10 -7 50 -11 101 -11 80 1 85 2 90 24 4 14 1
31 -6 39 -7 8 -22 15 -34 14z"/>
</g>
<g>
<path d="M9453 15730 c-11 0 -28 -9 -38 -20 -9 -10 -15 -26 -11 -35 3 -8 18
-20 33 -26 20 -7 33 -7 50 2 13 7 23 20 23 29 0 9 -8 24 -18 33 -10 10 -28 17
-39 17z"/>
</g>
<g>
<path d="M4379 15710 c-10 0 -28 -9 -39 -20 -17 -17 -18 -23 -8 -40 7 -11 26
-22 42 -26 22 -5 33 -2 43 12 7 10 13 23 13 30 0 7 -7 20 -16 28 -8 9 -24 16
-35 16z"/>
</g>
<g>
<path d="M8273 15680 c-10 0 -23 -4 -29 -8 -6 -4 -13 -15 -17 -25 -4 -10 0
-29 9 -43 9 -13 25 -24 35 -24 11 0 24 10 30 23 7 15 7 31 0 50 -6 15 -18 27
-28 27z"/>
</g>
<g>
<path d="M10145 15680 c-6 0 -21 -7 -33 -16 -12 -8 -22 -23 -22 -33 0 -10 8
-25 18 -34 15 -13 22 -14 42 -4 16 8 26 23 28 41 2 16 -2 32 -10 37 -7 5 -18
9 -23 9z"/>
</g>
<g>
<path d="M11060 15660 c-14 4 -36 3 -48 -1 -16 -6 -22 -16 -22 -38 0 -20 7
-34 20 -41 12 -6 29 -8 39 -5 11 3 23 18 27 33 4 15 8 31 8 36 1 5 -10 13 -24
16z"/>
</g>
<g>
<path d="M857 15640 l-49 0 7 -37 c3 -21 14 -44 23 -50 8 -7 26 -13 38 -13 12
0 29 3 38 6 10 4 16 18 16 38 0 18 -5 37 -12 44 -7 7 -34 12 -61 12z"/>
</g>
<g>
<path d="M16214 15588 c-20 2 -36 -4 -47 -16 -9 -10 -17 -26 -17 -34 0 -9 12
-23 26 -32 14 -10 37 -16 51 -14 15 2 29 12 34 24 4 12 2 31 -5 45 -7 16 -22
25 -42 27z"/>
</g>
<g>
<path d="M14745 15540 c-7 0 -19 -8 -28 -18 -10 -10 -17 -30 -17 -44 0 -14 6
-30 13 -36 8 -7 25 -8 43 -3 24 6 30 13 32 41 3 24 -2 38 -14 47 -10 7 -23 13
-29 13z"/>
</g>
<g>
<path d="M1950 15488 c-20 2 -39 0 -43 -4 -4 -4 -7 -19 -7 -34 0 -14 5 -31 12
-38 7 -7 19 -12 28 -12 9 0 25 9 34 19 10 11 16 30 14 43 -2 18 -10 24 -38 26z"/>
</g>
<g>
<path d="M9096 15439 c-6 -1 -21 -6 -33 -13 -13 -6 -23 -20 -23 -32 0 -11 9
-29 19 -38 11 -10 31 -16 48 -14 26 3 28 6 25 38 -2 19 -9 41 -14 48 -6 6 -16
11 -22 11z"/>
</g>
<g>
<path d="M7095 15430 c-7 0 -25 -14 -39 -31 -14 -17 -26 -38 -26 -48 0 -9 5
-22 12 -29 7 -7 24 -12 39 -12 15 0 31 6 37 13 6 7 12 27 14 44 1 17 -4 38
-11 47 -7 9 -19 16 -26 16z"/>
</g>
<g>
<path d="M8788 15360 c-9 0 -29 -10 -43 -23 -24 -20 -25 -25 -15 -49 8 -17 23
-28 42 -32 17 -3 34 -4 38 -1 5 3 11 24 15 46 5 30 3 44 -6 50 -8 5 -22 9 -31
9z"/>
</g>
<g>
<path d="M9376 15332 c-13 3 -31 1 -40 -4 -9 -5 -16 -18 -16 -28 0 -10 10 -26
22 -34 12 -9 28 -16 35 -16 7 0 17 9 23 20 6 12 8 29 5 39 -3 10 -16 21 -29
23z"/>
</g>
<g>
<path d="M4415 15320 c-5 0 -18 -7 -27 -14 -10 -7 -18 -24 -18 -38 0 -13 5
-29 12 -36 7 -7 24 -12 38 -12 14 0 31 5 38 12 7 7 12 22 12 34 0 13 -10 30
-22 38 -12 9 -27 16 -33 16z"/>
</g>
<g>
<path d="M12247 15267 c-12 12 -20 9 -58 -23 -24 -20 -45 -40 -47 -44 -1 -4 2
-19 7 -33 6 -16 18 -27 29 -27 9 0 27 7 39 15 13 9 27 34 33 57 9 33 9 44 -3
55z"/>
</g>
<g>
<path d="M5259 15238 c-29 2 -39 -2 -52 -22 -14 -20 -15 -30 -5 -51 6 -14 19
-25 29 -25 10 0 30 4 44 10 23 9 26 15 23 47 -3 36 -5 38 -39 41z"/>
</g>
<g>
<path d="M4750 15169 c-14 -1 -33 -3 -42 -6 -10 -2 -18 -11 -18 -18 0 -8 5
-26 12 -40 8 -18 19 -25 39 -25 19 0 34 8 44 24 14 20 14 28 3 45 -8 13 -22
21 -38 20z"/>
</g>
<g>
<path d="M6272 15131 l-27 27 -27 -30 c-16 -16 -28 -37 -28 -48 0 -11 9 -24
19 -30 11 -5 33 -10 49 -10 26 0 30 4 35 33 4 25 0 37 -21 58z"/>
</g>
<g>
<path d="M13575 15090 c-8 0 -21 -15 -30 -34 -9 -19 -15 -43 -13 -53 3 -14 13
-18 48 -18 41 0 45 2 48 26 2 14 -6 37 -18 52 -12 15 -28 27 -35 27z"/>
</g>
<g>
<path d="M4220 15030 c-18 0 -33 -6 -36 -15 -4 -8 1 -26 10 -40 12 -18 25 -25
50 -25 26 0 35 5 39 21 3 13 -2 28 -14 40 -10 10 -33 19 -49 19z"/>
</g>
<g>
<path d="M7735 14930 c-12 0 -29 -8 -38 -18 -10 -10 -17 -24 -17 -30 0 -6 7
-18 16 -26 8 -9 27 -16 42 -16 19 0 31 8 39 27 11 22 10 29 -4 45 -9 10 -26
18 -38 18z"/>
</g>
<g>
<path d="M10469 14912 c-16 3 -33 2 -37 -1 -5 -3 -12 -16 -16 -28 -4 -12 -2
-31 4 -43 7 -13 21 -20 40 -20 19 0 33 7 40 20 6 11 8 30 4 44 -4 17 -14 25
-35 28z"/>
</g>
<g>
<path d="M9163 14900 c-20 0 -36 -6 -39 -14 -3 -8 -4 -25 -2 -37 2 -12 11 -27
20 -33 11 -7 26 -7 45 0 18 6 29 18 31 32 2 13 -2 30 -8 38 -7 7 -28 14 -47
14z"/>
</g>
<g>
<path d="M12041 14879 c-3 0 -22 -6 -41 -13 -29 -11 -34 -17 -32 -37 2 -13 10
-30 17 -38 8 -9 23 -11 39 -7 14 3 33 18 42 31 16 24 15 27 -1 45 -10 11 -21
20 -24 19z"/>
</g>
<g>
<path d="M3601 14740 c-9 -1 -21 -6 -26 -13 -6 -7 -14 -18 -18 -24 -5 -7 -3
-22 3 -33 6 -11 19 -24 30 -30 14 -7 26 -7 39 -1 10 6 22 23 26 38 5 22 2 31
-15 45 -12 10 -30 18 -39 18z"/>
</g>
<g>
<path d="M10920 14719 c-3 -1 -13 -3 -22 -6 -10 -2 -20 -18 -24 -39 -4 -20 -2
-40 5 -48 6 -8 23 -16 36 -18 15 -3 30 1 40 12 8 9 15 28 15 43 0 15 -9 32
-22 41 -12 9 -25 15 -28 15z"/>
</g>
<g>
<path d="M2740 14657 c-14 2 -32 -3 -42 -10 -9 -7 -18 -24 -20 -37 -3 -21 2
-25 35 -33 21 -5 40 -7 43 -5 2 3 5 22 7 44 2 35 -1 39 -23 41z"/>
</g>
<g>
<path d="M14605 14648 c-11 1 -30 -7 -43 -18 -12 -11 -22 -31 -22 -43 0 -13 5
-28 12 -35 7 -7 22 -12 35 -12 12 0 27 9 33 20 6 12 10 35 8 53 -2 23 -9 33
-23 35z"/>
</g>
<g>
<path d="M9776 14599 c-6 0 -21 -4 -33 -9 -13 -5 -23 -16 -23 -25 0 -8 -4 -15
-10 -15 -5 0 -10 -7 -10 -15 0 -8 9 -19 21 -25 11 -6 33 -9 48 -5 17 4 33 16
40 32 10 21 9 29 -5 44 -9 11 -22 19 -28 18z"/>
</g>
<g>
<path d="M1165 14574 c-6 2 -17 -1 -26 -8 -8 -6 -20 -24 -27 -40 -7 -16 -10
-31 -7 -35 4 -3 27 -6 51 -5 24 0 47 4 51 7 3 4 -2 23 -13 42 -10 19 -23 36
-29 39z"/>
</g>
<g>
<path d="M15302 14510 c-9 0 -29 -8 -44 -18 -16 -9 -28 -24 -28 -33 0 -9 6
-21 13 -27 6 -6 24 -13 39 -17 21 -5 29 -2 38 15 6 12 8 34 5 51 -4 18 -13 29
-23 29z"/>
</g>
<g>
<path d="M2157 14489 c-7 0 -19 -3 -28 -7 -8 -4 -28 -17 -43 -29 -17 -14 -26
-29 -23 -37 4 -9 23 -16 49 -18 24 -2 53 1 66 6 12 5 22 16 22 25 0 9 -7 27
-16 39 -8 12 -21 22 -27 21z"/>
</g>
<g>
<path d="M13298 14438 c-26 2 -37 -2 -42 -13 -3 -9 -6 -27 -6 -40 0 -12 6 -28
14 -34 8 -7 27 -11 43 -9 20 2 30 11 37 31 7 19 7 34 0 45 -6 9 -27 18 -46 20z"/>
</g>
<g>
<path d="M6787 14410 c-7 0 -27 -10 -44 -21 -18 -12 -33 -26 -33 -33 0 -6 7
-22 16 -34 10 -15 25 -22 49 -22 24 0 38 6 45 19 5 11 10 29 10 40 0 11 -7 27
-16 35 -8 9 -21 16 -27 16z"/>
</g>
<g>
<path d="M16305 14310 c-20 0 -26 -7 -35 -39 -5 -21 -8 -46 -4 -54 3 -8 16
-17 29 -19 13 -3 30 -1 39 4 9 5 16 14 16 21 0 7 -5 29 -11 50 -8 30 -15 37
-34 37z"/>
</g>
<g>
<path d="M12990 14270 c-16 0 -36 -7 -44 -16 -9 -8 -16 -22 -16 -29 0 -8 11
-22 25 -31 13 -9 33 -13 44 -9 11 3 22 19 26 35 4 16 4 34 0 40 -3 5 -19 10
-35 10z"/>
</g>
<g>
<path d="M4152 14260 c-19 0 -35 -6 -38 -14 -3 -8 -4 -29 -2 -48 3 -28 7 -33
32 -36 19 -2 36 4 52 19 13 12 24 29 24 37 0 8 -8 21 -17 28 -10 7 -33 14 -51
14z"/>
</g>
<g>
<path d="M8102 14259 c-4 0 -17 -4 -30 -10 -19 -7 -23 -15 -20 -46 3 -34 6
-38 33 -41 17 -2 38 3 49 11 13 9 16 20 12 35 -4 12 -14 29 -22 37 -9 8 -18
15 -22 14z"/>
</g>
<g>
<path d="M5404 14200 c-12 0 -27 -7 -34 -15 -6 -8 -10 -22 -8 -31 2 -9 16 -26
31 -38 22 -16 31 -18 45 -9 12 7 16 21 14 44 -1 18 -8 37 -15 41 -7 4 -22 8
-33 8z"/>
</g>
<g>
<path d="M14127 14140 c-2 0 -11 -8 -19 -17 -8 -10 -18 -26 -21 -35 -3 -10 0
-23 8 -30 8 -7 21 -19 29 -25 12 -11 17 -7 30 19 9 17 16 39 16 49 0 10 -9 23
-19 29 -11 5 -22 10 -24 10z"/>
</g>
<g>
<path d="M10369 14060 c-9 0 -20 -7 -23 -16 -3 -9 -6 -28 -6 -43 0 -19 8 -32
24 -40 18 -10 28 -10 45 -1 18 9 21 17 16 43 -4 18 -14 38 -23 45 -9 6 -23 12
-33 12z"/>
</g>
<g>
<path d="M13359 14060 c-2 0 -10 -9 -17 -20 -10 -16 -9 -26 5 -55 11 -23 22
-34 31 -30 7 3 19 5 26 5 7 0 17 10 22 23 6 12 9 29 7 38 -2 8 -19 21 -37 27
-18 7 -34 12 -37 12z"/>
</g>
<g>
<path d="M6251 13970 c-9 0 -24 -5 -33 -11 -10 -5 -18 -20 -18 -32 0 -13 5
-28 12 -35 7 -7 24 -12 38 -12 18 0 31 8 40 25 12 22 11 27 -5 45 -10 11 -25
20 -34 20z"/>
</g>
<g>
<path d="M11416 13950 c-6 0 -22 -7 -34 -16 -12 -8 -22 -26 -22 -38 0 -13 6
-29 14 -35 8 -7 27 -11 43 -9 24 2 28 8 31 36 2 18 -2 40 -9 48 -6 8 -17 14
-23 14z"/>
</g>
<g>
<path d="M12173 13903 c-26 5 -35 2 -43 -13 -5 -10 -10 -30 -10 -43 0 -14 7
-28 16 -31 9 -3 28 -6 44 -6 24 0 29 5 35 36 3 20 3 40 -2 44 -4 4 -23 10 -40
13z"/>
</g>
<g>
<path d="M9333 13800 c-4 -1 -18 -9 -30 -19 -13 -11 -23 -26 -23 -35 0 -9 9
-25 20 -36 11 -11 26 -20 34 -20 8 0 22 7 30 16 9 8 16 28 16 44 0 19 -7 33
-19 40 -11 5 -23 10 -28 10z"/>
</g>
<g>
<path d="M13732 13790 c-9 0 -25 -10 -34 -22 -10 -12 -18 -28 -18 -35 0 -7 12
-20 26 -30 19 -12 30 -14 43 -6 9 5 17 19 19 31 2 12 -2 30 -8 41 -6 12 -18
21 -28 21z"/>
</g>
<g>
<path d="M2995 13760 c-12 0 -29 -8 -38 -18 -10 -10 -17 -26 -17 -34 0 -9 6
-20 13 -26 6 -5 22 -13 35 -17 17 -5 27 -2 37 12 8 10 15 27 15 39 0 11 -5 25
-12 32 -7 7 -22 12 -33 12z"/>
</g>
<g>
<path d="M12753 13715 c-12 1 -27 -3 -32 -8 -6 -6 -11 -20 -11 -32 0 -12 5
-26 12 -33 7 -7 22 -12 35 -12 15 0 27 8 32 22 4 12 6 30 3 40 -2 10 -7 19
-11 19 -3 1 -16 3 -28 4z"/>
</g>
<g>
<path d="M13495 13714 c-11 3 -31 0 -45 -7 -14 -7 -25 -21 -25 -31 0 -10 13
-28 28 -40 21 -15 32 -18 44 -10 9 6 20 24 25 40 4 15 4 31 0 35 -4 4 -16 9
-27 13z"/>
</g>
<g>
<path d="M4185 13680 c-14 0 -29 -8 -35 -21 -9 -16 -9 -28 0 -50 10 -23 19
-29 44 -29 18 0 37 5 44 12 7 7 12 20 12 30 0 10 -9 27 -20 38 -11 11 -31 20
-45 20z"/>
</g>
<g>
<path d="M12385 13600 c-2 0 -12 -16 -20 -36 -8 -20 -15 -41 -15 -45 0 -5 12
-14 26 -19 14 -6 27 -10 29 -10 2 0 11 7 19 16 9 8 16 26 16 39 0 13 -10 29
-25 39 -13 9 -27 16 -30 16z"/>
</g>
<g>
<path d="M13172 13579 c-4 0 -17 -4 -28 -9 -12 -4 -23 -17 -26 -27 -3 -11 0
-26 6 -35 6 -8 20 -18 31 -21 11 -4 25 -3 32 1 6 4 14 19 18 33 4 18 1 31 -10
43 -9 9 -19 16 -23 15z"/>
</g>
<g>
<path d="M1671 13500 c-9 0 -22 -5 -29 -12 -7 -7 -12 -19 -12 -28 0 -9 5 -21
12 -28 7 -7 25 -12 40 -12 20 0 31 7 38 23 6 17 4 26 -12 40 -11 9 -28 17 -37
17z"/>
</g>
<g>
<path d="M13417 13476 c-9 9 -20 8 -44 -2 -26 -11 -33 -20 -33 -43 0 -21 6
-30 23 -35 12 -3 32 -6 45 -6 14 0 22 6 23 18 1 9 0 26 -1 37 -1 11 -7 25 -13
31z"/>
</g>
<g>
<path d="M8768 13480 c-10 0 -25 -12 -34 -26 -17 -24 -16 -26 9 -51 23 -24 29
-25 53 -14 23 10 26 16 20 43 -3 18 -12 36 -19 40 -6 4 -20 8 -29 8z"/>
</g>
<g>
<path d="M14891 13461 c-17 7 -28 3 -47 -16 -13 -13 -24 -30 -24 -38 0 -7 11
-23 25 -35 14 -12 31 -22 38 -22 6 0 22 15 34 32 19 28 21 35 10 52 -7 10 -23
23 -36 27z"/>
</g>
<g>
<path d="M13765 13420 c-12 0 -25 -3 -28 -7 -4 -3 -7 -19 -7 -33 0 -15 7 -33
14 -40 8 -6 25 -10 38 -8 14 2 26 13 33 31 8 24 6 31 -10 43 -10 8 -28 14 -40
14z"/>
</g>
<g>
<path d="M3716 13373 c-7 3 -24 -4 -39 -15 -15 -11 -27 -26 -27 -33 0 -8 10
-26 23 -41 23 -26 24 -27 50 -9 15 9 27 23 27 31 0 7 -5 24 -11 38 -7 14 -17
27 -23 29z"/>
</g>
<g>
<path d="M2401 13369 c-9 0 -26 -4 -38 -9 -18 -7 -23 -17 -23 -43 0 -25 6 -37
24 -47 14 -7 31 -10 38 -8 7 3 19 22 26 42 11 29 11 40 2 51 -7 8 -20 15 -29
14z"/>
</g>
<g>
<path d="M14009 13329 c-2 -1 -13 -4 -24 -6 -11 -3 -23 -10 -27 -17 -4 -6 -8
-20 -8 -32 0 -11 11 -31 25 -44 21 -19 30 -22 43 -14 9 6 20 28 23 47 4 27 1
41 -11 52 -9 8 -18 14 -21 14z"/>
</g>
<g>
<path d="M13229 13316 c-25 4 -39 1 -48 -10 -8 -9 -11 -26 -7 -40 4 -15 17
-28 37 -35 18 -6 38 -11 44 -11 7 0 15 16 17 35 2 19 1 40 -2 45 -4 6 -22 13
-41 16z"/>
</g>
<g>
<path d="M13537 13300 c-7 -1 -24 -8 -39 -16 -16 -8 -28 -22 -28 -32 0 -9 4
-22 8 -28 4 -6 16 -16 28 -22 11 -6 30 -8 42 -5 16 4 22 13 22 35 0 16 -5 38
-10 49 -6 10 -16 19 -23 19z"/>
</g>
<g>
<path d="M11066 13280 c-12 0 -28 -5 -37 -10 -11 -6 -15 -18 -11 -35 2 -15 16
-33 29 -42 23 -15 27 -15 51 0 17 10 26 23 24 34 -2 10 -11 26 -19 36 -9 9
-26 17 -37 17z"/>
</g>
<g>
<path d="M7234 13258 c-11 1 -27 -3 -37 -11 -16 -11 -17 -17 -6 -39 6 -15 18
-29 25 -32 8 -3 23 4 33 15 14 15 17 27 12 43 -5 11 -17 22 -27 24z"/>
</g>
<g>
<path d="M12941 13250 c-5 0 -18 -8 -29 -17 -11 -10 -23 -27 -26 -39 -4 -14 1
-27 15 -40 19 -17 22 -18 50 -2 16 10 31 13 34 7 4 -5 19 -9 34 -9 16 0 37 10
49 23 12 13 22 31 22 40 0 9 -5 17 -10 17 -6 0 -30 -9 -52 -20 -23 -11 -42
-19 -43 -17 0 1 -9 14 -18 30 -10 15 -21 27 -26 27z"/>
</g>
<g>
<path d="M15660 13229 c-8 0 -21 -3 -27 -6 -7 -2 -13 -17 -13 -32 0 -15 9 -36
20 -46 16 -15 26 -17 48 -9 19 6 28 17 30 36 2 18 -4 31 -20 42 -12 9 -29 16
-38 15z"/>
</g>
<g>
<path d="M12512 13130 c-4 -1 -17 -9 -29 -19 -13 -11 -23 -26 -23 -34 0 -8 6
-19 13 -24 6 -6 25 -13 40 -15 20 -4 32 0 42 16 8 11 15 29 15 38 0 11 -11 23
-26 28 -14 6 -28 10 -32 10z"/>
</g>
<g>
<path d="M13746 13129 c-6 0 -21 -4 -33 -9 -15 -6 -23 -18 -23 -34 0 -14 9
-31 22 -40 12 -9 30 -16 39 -16 9 0 20 7 23 16 3 9 6 26 6 38 0 12 -5 27 -12
34 -7 7 -17 12 -22 11z"/>
</g>
<g>
<path d="M13230 13120 c-5 0 -16 -7 -24 -16 -9 -8 -16 -21 -16 -27 0 -7 4 -17
8 -24 4 -6 20 -15 35 -18 17 -5 33 -2 42 5 8 7 15 23 15 36 0 17 -8 28 -26 34
-14 6 -29 10 -34 10z"/>
</g>
<g>
<path d="M5693 13110 c-5 0 -18 -9 -27 -19 -10 -11 -16 -31 -14 -48 2 -23 9
-30 41 -37 30 -8 40 -7 48 5 5 8 9 23 9 35 0 11 -10 30 -23 42 -13 12 -28 22
-34 22z"/>
</g>
<g>
<path d="M13486 13109 c-6 0 -21 -4 -33 -9 -16 -6 -23 -18 -23 -35 0 -18 8
-29 26 -37 18 -8 30 -9 42 -1 9 5 18 20 20 32 2 12 -2 29 -8 37 -7 7 -18 14
-24 13z"/>
</g>
<g>
<path d="M16721 13089 c-9 0 -23 -3 -31 -6 -8 -3 -18 -11 -22 -17 -4 -6 -8
-18 -8 -27 0 -9 11 -24 24 -32 13 -9 33 -13 44 -10 13 3 23 16 27 34 4 18 2
36 -5 44 -7 8 -20 15 -29 14z"/>
</g>
<g>
<path d="M13144 13074 c-14 4 -26 0 -38 -13 -11 -12 -16 -31 -14 -53 3 -29 7
-33 34 -36 19 -2 38 3 48 13 9 9 16 27 16 39 0 13 -6 28 -12 34 -7 5 -22 12
-34 16z"/>
</g>
<g>
<path d="M10146 12979 l-23 22 -27 -32 c-15 -17 -26 -39 -24 -48 2 -9 16 -22
31 -29 25 -12 31 -12 48 4 10 9 19 27 19 39 0 12 -11 32 -24 44z"/>
</g>
<g>
<path d="M1872 12979 c-9 0 -27 -4 -39 -9 -15 -6 -23 -18 -23 -33 0 -13 8 -31
18 -40 10 -10 30 -17 44 -17 17 0 28 8 36 25 7 14 12 30 12 35 0 5 -7 16 -16
24 -8 9 -23 16 -32 15z"/>
</g>
<g>
<path d="M14414 12960 c-11 0 -27 -9 -37 -20 -9 -11 -17 -27 -17 -35 0 -9 14
-24 32 -35 32 -19 32 -19 55 2 13 12 23 29 23 38 0 9 -8 24 -18 33 -10 10 -27
17 -38 17z"/>
</g>
<g>
<path d="M11741 12940 c-4 0 -15 -6 -25 -13 -12 -9 -17 -23 -14 -47 3 -30 7
-36 33 -40 24 -5 33 -1 47 20 10 14 18 33 18 43 0 10 -11 22 -26 27 -14 6 -29
10 -33 10z"/>
</g>
<g>
<path d="M14019 12940 c-8 0 -25 -9 -37 -20 -12 -12 -22 -29 -22 -40 0 -10 10
-26 22 -34 12 -9 30 -16 40 -16 11 0 20 12 27 36 7 26 7 41 -2 55 -6 10 -19
19 -28 19z"/>
</g>
<g>
<path d="M9389 12908 c-23 2 -40 -2 -48 -12 -8 -9 -11 -26 -7 -41 4 -16 16
-27 33 -31 14 -4 33 -2 42 3 10 6 16 24 16 44 0 32 -2 34 -36 37z"/>
</g>
<g>
<path d="M12779 12739 c-2 0 -14 -4 -26 -9 -19 -8 -23 -17 -23 -50 0 -40 0
-40 38 -40 21 0 43 5 50 12 7 7 12 19 12 28 0 9 -10 26 -23 38 -13 12 -25 22
-28 21z"/>
</g>
<g>
<path d="M13631 12740 c-15 0 -32 -5 -39 -12 -7 -7 -12 -22 -12 -34 0 -12 6
-27 14 -33 8 -7 29 -11 47 -9 18 2 36 10 42 19 7 11 5 23 -8 42 -12 18 -26 27
-44 27z"/>
</g>
<g>
<path d="M4259 12728 c-18 -1 -38 -9 -46 -16 -7 -7 -13 -17 -13 -22 0 -5 7
-16 16 -24 8 -9 26 -16 40 -16 16 0 28 8 36 24 6 14 8 32 5 41 -5 10 -17 15
-38 13z"/>
</g>
<g>
<path d="M6280 12645 c-23 12 -29 12 -42 -1 -12 -12 -14 -25 -7 -51 4 -20 14
-40 21 -44 7 -5 18 -9 25 -9 6 0 18 3 27 6 9 3 16 17 16 29 0 13 -3 31 -6 40
-4 8 -19 22 -34 30z"/>
</g>
<g>
<path d="M13025 12616 c-5 1 -23 -5 -40 -15 -19 -11 -31 -27 -33 -44 -3 -21 2
-28 22 -33 13 -3 33 -4 43 -2 14 3 18 13 18 47 0 25 -4 45 -10 47z"/>
</g>
<g>
<path d="M7915 12586 c-5 2 -20 -5 -32 -15 -13 -11 -23 -27 -23 -38 0 -10 3
-28 6 -39 4 -15 16 -23 36 -26 18 -3 36 1 44 9 8 8 14 20 14 26 -1 7 -9 27
-18 46 -9 19 -21 36 -27 37z"/>
</g>
<g>
<path d="M2860 12529 c-3 0 -15 -4 -27 -9 -12 -5 -24 -21 -28 -40 -4 -19 -2
-36 6 -46 7 -9 25 -14 43 -12 26 3 31 8 38 42 7 31 5 41 -9 52 -10 7 -20 13
-23 13z"/>
</g>
<g>
<path d="M465 12479 c-11 0 -30 -4 -42 -9 -13 -5 -23 -18 -23 -29 0 -11 13
-29 30 -41 18 -13 41 -20 57 -18 24 2 29 8 31 36 2 24 -2 38 -15 48 -10 7 -27
13 -38 13z"/>
</g>
<g>
<path d="M5049 12460 c-3 0 -13 -8 -21 -17 -9 -10 -19 -28 -23 -41 -4 -14 -1
-27 9 -37 8 -8 21 -15 28 -15 8 0 22 6 32 13 10 8 20 26 21 40 2 19 -4 32 -18
42 -12 8 -24 15 -28 15z"/>
</g>
<g>
<path d="M13350 12460 c-29 0 -42 -5 -50 -21 -9 -16 -8 -26 5 -45 9 -14 25
-24 38 -24 13 0 28 5 35 12 7 7 12 27 12 45 0 32 -1 33 -40 33z"/>
</g>
<g>
<path d="M11930 12429 c-3 -1 -16 -4 -29 -8 -13 -3 -29 -14 -34 -23 -8 -12 -7
-21 3 -33 8 -9 25 -21 38 -26 14 -5 33 -7 44 -3 17 5 19 12 13 42 -4 21 -12
40 -18 44 -7 4 -14 7 -17 7z"/>
</g>
<g>
<path d="M12785 12414 c-11 7 -30 11 -42 9 -19 -4 -23 -11 -23 -39 0 -27 5
-37 26 -46 18 -9 30 -9 42 -1 9 5 17 23 17 38 0 17 -8 32 -20 39z"/>
</g>
<g>
<path d="M14161 12300 c-5 0 -20 -9 -35 -21 -14 -11 -26 -28 -26 -38 0 -10 8
-25 18 -33 9 -9 26 -14 36 -12 10 1 23 9 27 16 5 7 9 21 9 31 0 10 -5 27 -10
38 -6 10 -14 19 -19 19z"/>
</g>
<g>
<path d="M6800 12238 c-85 -1 -182 -4 -215 -9 -33 -4 -140 -15 -238 -23 -98
-8 -183 -18 -189 -22 -6 -4 -39 -7 -74 -7 -53 0 -64 -3 -69 -18 -6 -17 -8 -18
-31 -2 -21 14 -34 14 -97 4 -40 -6 -90 -13 -112 -16 -22 -2 -84 -11 -137 -19
-54 -9 -111 -16 -128 -16 -17 0 -38 -4 -48 -9 -9 -5 -46 -14 -82 -21 -36 -6
-69 -16 -75 -21 -5 -5 -24 -9 -42 -9 -18 0 -52 -6 -75 -14 -24 -7 -68 -18 -98
-25 -30 -6 -89 -17 -130 -25 -41 -8 -97 -18 -125 -21 -27 -4 -95 -18 -150 -30
-55 -13 -140 -38 -190 -55 -49 -18 -127 -47 -173 -66 -45 -19 -103 -43 -130
-55 -26 -11 -65 -30 -87 -40 -22 -11 -47 -24 -55 -29 -8 -4 -40 -16 -72 -25
-31 -9 -64 -25 -74 -36 -9 -10 -23 -19 -31 -19 -8 0 -28 -7 -46 -16 -18 -9
-70 -44 -116 -78 -46 -33 -102 -77 -123 -96 -22 -19 -50 -35 -61 -37 -12 -2
-27 -10 -33 -18 -6 -8 -16 -15 -23 -15 -6 0 -45 -22 -87 -50 -41 -27 -79 -50
-83 -50 -4 0 -16 -9 -25 -19 -10 -11 -29 -22 -43 -26 -14 -3 -58 -30 -97 -59
-39 -29 -93 -75 -119 -101 -26 -27 -47 -53 -47 -57 0 -4 -8 -8 -19 -8 -10 0
-61 -44 -117 -103 -63 -65 -109 -123 -126 -158 -15 -31 -34 -62 -43 -69 -8 -7
-15 -16 -15 -21 0 -4 -20 -37 -45 -73 -25 -37 -45 -71 -45 -78 0 -6 -9 -31
-21 -55 -12 -24 -30 -48 -40 -54 -10 -5 -19 -16 -19 -23 0 -7 -13 -30 -30 -51
-16 -21 -30 -47 -30 -57 0 -11 -8 -32 -18 -46 -11 -15 -25 -43 -31 -62 -7 -19
-15 -48 -18 -65 -2 -16 -10 -41 -17 -55 -7 -14 -25 -47 -39 -74 -15 -27 -27
-54 -27 -60 0 -6 -15 -41 -34 -77 -18 -36 -37 -81 -41 -99 -4 -18 -18 -53 -31
-78 -13 -25 -24 -51 -24 -59 0 -7 -7 -25 -16 -39 -9 -13 -25 -53 -34 -87 -10
-34 -28 -91 -40 -127 -13 -36 -29 -76 -35 -90 -7 -14 -18 -59 -25 -100 -7 -41
-16 -82 -20 -90 -4 -8 -11 -40 -15 -70 -3 -30 -13 -97 -21 -149 -8 -51 -14
-117 -13 -146 1 -29 -1 -57 -5 -64 -4 -6 -12 -40 -17 -74 -5 -34 -12 -118 -16
-187 -4 -69 -7 -161 -7 -205 1 -44 9 -159 18 -255 10 -96 22 -218 26 -270 5
-52 11 -108 14 -125 3 -16 9 -50 15 -75 5 -25 14 -58 20 -73 6 -16 11 -41 11
-57 0 -16 4 -39 9 -52 5 -13 18 -54 30 -93 11 -38 26 -97 32 -130 7 -33 12
-67 10 -77 -1 -9 3 -19 9 -23 5 -3 10 -22 10 -41 0 -20 7 -66 16 -102 9 -37
25 -97 36 -134 10 -38 23 -68 28 -68 5 0 12 -21 15 -47 3 -27 10 -56 16 -65 5
-10 9 -28 9 -40 0 -12 8 -31 19 -42 10 -12 29 -48 42 -81 13 -33 29 -69 36
-80 7 -11 13 -26 13 -33 0 -7 14 -27 30 -44 17 -16 30 -36 30 -44 0 -9 11 -30
24 -47 13 -18 51 -85 84 -150 34 -64 71 -131 84 -147 13 -17 35 -45 51 -62 15
-18 27 -37 27 -43 0 -5 12 -21 27 -35 14 -14 41 -48 59 -75 17 -28 39 -57 48
-64 9 -7 16 -19 16 -25 0 -6 24 -38 53 -71 28 -32 73 -81 98 -108 25 -27 74
-79 108 -116 34 -36 90 -95 124 -131 35 -36 83 -82 107 -103 24 -20 47 -37 51
-37 5 0 27 -18 51 -40 24 -23 55 -48 70 -56 15 -8 32 -23 38 -33 5 -11 35 -34
66 -52 31 -17 68 -45 82 -60 14 -16 31 -29 39 -29 7 0 44 -20 81 -44 38 -24
82 -51 98 -60 16 -9 41 -24 55 -34 15 -9 52 -37 84 -62 31 -25 69 -51 84 -59
14 -7 35 -22 46 -32 11 -10 38 -25 60 -35 22 -9 54 -27 72 -40 17 -13 35 -24
40 -24 4 0 51 -18 103 -41 52 -23 113 -50 136 -60 23 -10 50 -19 60 -19 10 0
42 -12 69 -25 28 -14 56 -25 62 -25 7 0 43 -12 80 -27 38 -15 70 -30 71 -35 2
-4 11 -8 19 -8 8 0 32 -9 52 -19 20 -10 63 -27 96 -36 33 -9 76 -23 95 -31 19
-7 64 -23 100 -33 36 -11 112 -32 170 -46 58 -14 137 -31 175 -37 39 -6 106
-14 150 -18 44 -5 103 -13 130 -18 28 -6 96 -18 153 -27 56 -9 155 -21 220
-25 64 -5 143 -14 174 -19 31 -5 139 -11 240 -13 101 -1 291 -3 423 -3 134 0
277 5 325 12 47 7 130 13 185 14 55 1 114 7 130 12 17 5 66 17 110 28 44 11
104 24 134 29 29 5 72 18 95 28 22 10 66 26 96 36 30 10 62 24 70 31 8 7 40
23 70 35 30 12 89 39 130 60 41 21 127 64 190 95 63 31 122 61 130 65 8 5 39
21 67 36 29 15 60 35 69 46 10 10 22 18 29 18 7 0 31 13 53 30 23 17 46 30 52
30 5 0 10 5 10 10 0 6 8 14 18 17 9 4 44 25 77 48 33 23 80 61 105 86 25 24
104 98 175 165 72 66 145 133 164 150 18 16 71 67 117 112 46 46 84 88 84 93
0 5 5 9 12 9 6 0 18 7 27 15 9 8 44 39 79 70 53 48 66 54 90 49 15 -4 45 -15
67 -25 22 -10 46 -19 53 -19 8 0 28 -6 45 -13 18 -8 55 -21 82 -30 28 -9 86
-24 130 -33 l80 -16 21 25 c13 16 26 52 34 94 6 37 16 104 22 148 5 44 11 101
13 126 2 26 13 98 24 160 10 63 22 147 26 188 4 41 15 102 25 137 10 34 29 77
42 96 12 18 26 35 29 38 3 3 27 40 53 83 25 42 56 101 67 130 11 28 27 66 34
82 7 17 16 44 20 60 3 17 22 66 42 110 19 44 43 98 53 120 10 22 24 58 30 80
7 22 18 54 25 70 8 17 22 59 33 95 12 36 35 133 52 215 27 129 31 172 32 310
1 88 -2 214 -6 280 -4 66 -9 143 -11 172 -2 28 -7 62 -10 75 -3 13 -10 70 -15
128 -5 58 -16 152 -25 210 -8 58 -20 134 -25 170 -5 36 -14 103 -20 150 -6 47
-17 108 -24 135 -8 28 -21 100 -31 160 -9 61 -20 130 -25 155 -4 25 -15 77
-25 115 -9 39 -23 97 -31 130 -9 33 -31 119 -50 190 -19 72 -41 153 -48 180
-7 28 -28 86 -45 130 -18 44 -40 98 -49 120 -9 22 -40 87 -70 144 -29 57 -72
135 -95 173 -23 38 -48 81 -56 96 -8 15 -26 41 -40 58 -14 18 -42 55 -61 83
-19 29 -59 82 -87 119 -29 37 -79 100 -110 141 -32 41 -72 93 -89 115 -17 23
-84 100 -148 171 -65 72 -150 159 -190 195 -39 36 -96 85 -126 110 -29 25 -74
65 -99 90 -25 25 -92 77 -149 115 -56 39 -121 81 -145 95 -23 14 -61 39 -85
57 -24 17 -57 35 -74 38 -16 4 -46 18 -66 31 -19 14 -47 27 -61 30 -14 3 -39
12 -56 19 -16 7 -41 16 -55 20 -14 4 -53 20 -88 36 -34 16 -68 29 -75 29 -6 0
-34 11 -61 25 -34 17 -66 25 -102 25 -29 0 -56 4 -59 10 -3 5 -25 18 -48 28
-24 11 -64 22 -90 26 -26 4 -49 11 -52 16 -3 5 -30 14 -61 20 -31 7 -95 30
-142 51 -48 22 -94 44 -102 49 -8 5 -28 16 -45 24 -16 7 -61 23 -100 33 -38
11 -92 25 -119 32 -26 6 -76 14 -110 17 -33 4 -88 15 -120 25 -33 11 -73 19
-91 19 -17 0 -35 4 -41 9 -5 5 -58 16 -119 26 -60 10 -135 21 -165 26 -30 4
-125 7 -210 7z m20 -91 c129 0 217 -5 260 -14 36 -8 94 -18 130 -23 36 -6 83
-15 105 -21 22 -6 60 -13 85 -16 25 -2 54 -8 65 -12 11 -5 47 -14 80 -21 33
-6 98 -21 145 -32 47 -11 119 -36 160 -55 41 -19 109 -50 150 -69 41 -18 95
-41 120 -49 25 -8 53 -15 63 -15 11 0 33 -7 50 -15 18 -8 50 -19 72 -24 22 -5
65 -17 95 -26 30 -9 66 -18 80 -21 14 -3 34 -10 45 -14 11 -5 44 -19 73 -30
29 -11 75 -31 102 -45 27 -14 59 -25 71 -25 11 0 32 -9 46 -20 14 -11 34 -20
44 -20 10 0 35 -7 56 -16 21 -9 61 -28 88 -42 28 -14 83 -47 123 -73 41 -27
76 -49 78 -49 2 0 32 -22 67 -48 34 -26 75 -56 92 -67 16 -10 50 -37 75 -60
25 -23 52 -46 62 -51 9 -5 67 -56 130 -114 62 -57 133 -129 158 -159 25 -30
68 -80 95 -111 28 -31 79 -92 115 -135 36 -43 74 -93 85 -111 11 -17 46 -63
78 -100 32 -38 87 -112 123 -164 35 -52 82 -120 105 -150 22 -30 51 -78 64
-107 13 -29 37 -72 54 -97 17 -25 31 -50 31 -56 0 -6 16 -45 35 -86 19 -41 35
-79 35 -85 0 -5 17 -45 39 -89 22 -46 41 -102 45 -134 4 -30 13 -60 21 -66 7
-6 17 -41 20 -78 4 -37 14 -83 22 -102 8 -19 19 -57 24 -85 6 -27 14 -76 19
-108 6 -33 16 -71 24 -85 8 -15 21 -85 30 -157 9 -71 24 -161 32 -200 9 -38
18 -77 21 -85 3 -8 7 -33 8 -55 1 -22 9 -107 18 -190 10 -82 22 -163 26 -180
5 -16 12 -59 15 -95 3 -36 11 -119 17 -184 5 -66 12 -123 15 -127 2 -4 7 -60
10 -126 3 -65 6 -159 6 -209 -1 -50 -4 -138 -8 -195 -3 -57 -13 -122 -20 -144
-8 -22 -14 -53 -14 -70 0 -16 -9 -56 -20 -88 -11 -32 -35 -95 -55 -140 -20
-45 -40 -91 -44 -102 -5 -11 -14 -38 -21 -60 -7 -22 -27 -71 -46 -110 -18 -38
-45 -106 -60 -150 -15 -44 -35 -98 -46 -120 -11 -22 -33 -58 -49 -80 -16 -22
-37 -55 -46 -74 -9 -18 -31 -48 -50 -66 -18 -17 -33 -37 -33 -44 0 -6 -12 -30
-27 -54 -16 -23 -50 -66 -78 -97 -27 -30 -80 -84 -117 -121 -38 -36 -68 -72
-68 -80 0 -8 -28 -51 -63 -95 -34 -45 -88 -113 -120 -152 -31 -40 -74 -84 -93
-99 -20 -16 -41 -34 -48 -42 -6 -8 -32 -35 -57 -60 -25 -25 -122 -116 -214
-201 -92 -85 -186 -175 -209 -199 -22 -24 -53 -51 -68 -61 -15 -9 -75 -62
-134 -119 -59 -56 -126 -115 -150 -131 -23 -17 -45 -30 -49 -30 -3 0 -54 -33
-113 -73 -59 -40 -134 -87 -167 -105 -33 -17 -71 -36 -85 -42 -14 -5 -47 -23
-75 -40 -27 -16 -77 -43 -110 -61 -33 -17 -96 -50 -140 -72 -44 -22 -116 -53
-160 -69 -44 -16 -100 -36 -125 -45 -25 -8 -81 -24 -125 -33 -44 -10 -111 -28
-150 -40 -56 -17 -101 -22 -225 -25 -85 -2 -173 -8 -195 -14 -23 -6 -145 -10
-280 -10 -132 0 -285 4 -340 9 -55 5 -115 12 -132 16 -30 6 -33 4 -33 -19 l0
-25 -97 4 c-54 3 -111 9 -128 14 -16 5 -88 14 -160 20 -71 6 -157 15 -190 21
-33 5 -96 17 -140 25 -44 8 -94 14 -111 14 -17 0 -89 11 -160 25 -71 13 -147
31 -169 39 -22 8 -47 15 -55 15 -8 1 -46 10 -85 22 -38 11 -90 27 -115 36 -25
8 -86 30 -136 48 -50 18 -102 40 -115 48 -13 8 -69 29 -124 46 -55 18 -114 39
-132 47 -17 7 -34 14 -37 14 -4 0 -57 23 -119 51 -61 28 -125 57 -142 64 -16
8 -43 23 -60 35 -16 11 -37 20 -45 20 -8 0 -35 14 -60 30 -25 16 -58 39 -75
50 -16 11 -63 45 -103 75 -41 30 -79 55 -86 55 -8 0 -30 14 -51 30 -21 17 -43
30 -50 30 -6 0 -24 13 -40 30 -16 17 -33 30 -38 30 -5 0 -28 16 -51 35 -24 19
-47 35 -53 35 -5 0 -32 19 -60 43 -29 23 -82 64 -120 92 -37 27 -87 66 -111
85 -23 19 -93 86 -155 149 -61 63 -143 146 -181 185 -38 39 -86 94 -106 122
-21 28 -56 71 -77 96 -22 25 -70 92 -107 149 -38 57 -86 131 -108 164 -22 33
-57 97 -79 142 -22 45 -46 87 -54 93 -8 7 -15 20 -15 30 0 9 -9 25 -20 35 -11
10 -20 24 -20 31 0 7 -22 54 -50 105 -27 51 -50 94 -50 96 0 2 -11 28 -25 57
-14 29 -28 68 -32 87 -3 19 -12 43 -20 55 -7 11 -17 40 -22 65 -5 24 -19 82
-31 129 -12 47 -26 99 -31 116 -5 17 -9 44 -9 61 0 16 -9 56 -20 89 -11 32
-20 73 -20 90 0 17 -6 47 -14 65 -8 19 -17 54 -20 78 -3 24 -11 50 -17 57 -6
7 -8 18 -5 23 4 5 2 12 -4 16 -5 3 -10 17 -10 30 0 13 -5 27 -10 30 -6 3 -8
19 -5 35 3 16 -2 57 -10 92 -8 35 -12 74 -8 86 3 13 0 49 -6 80 -6 31 -16 98
-22 147 -5 50 -11 106 -13 125 -1 19 -8 89 -16 154 -10 93 -10 133 -1 185 7
36 18 127 26 201 7 74 20 164 29 200 8 36 15 89 16 117 0 29 6 70 14 90 8 21
17 74 21 118 3 44 10 84 15 90 4 5 12 28 16 50 4 22 18 71 31 109 12 38 23 82
23 97 0 14 7 32 15 39 8 7 15 23 15 36 0 12 4 25 9 28 5 3 12 22 16 42 3 20
19 63 35 95 15 32 37 90 49 128 13 43 30 76 41 84 11 6 20 18 20 26 0 8 12 39
26 70 14 31 31 67 37 81 6 14 16 32 23 40 6 8 26 51 44 95 18 44 41 92 51 107
11 14 19 30 19 35 0 5 14 31 31 59 18 27 36 62 42 77 5 16 25 51 43 79 19 27
34 56 34 64 0 8 4 14 10 14 5 0 16 15 24 33 7 17 28 45 45 61 17 17 31 35 31
40 0 6 38 49 83 96 45 47 110 110 144 140 33 30 75 66 93 80 18 14 47 37 64
51 17 14 63 46 102 72 40 26 76 47 81 47 5 0 28 16 50 35 23 19 45 35 51 35 5
0 21 11 36 25 15 14 32 25 37 25 6 0 25 11 43 25 18 14 38 25 44 25 7 0 12 4
12 8 0 5 17 18 38 30 21 11 46 30 56 40 9 11 93 59 186 106 92 47 172 86 178
86 5 0 45 16 88 37 44 20 99 44 124 53 25 10 83 32 130 49 47 18 123 45 170
60 47 16 115 32 153 36 37 3 113 17 170 31 56 13 116 26 132 29 17 2 68 14
115 25 47 12 148 34 225 51 77 16 169 34 205 40 36 5 94 14 130 20 36 5 97 11
135 14 39 3 93 10 120 16 28 6 91 13 140 16 50 2 137 11 195 20 58 9 148 19
200 23 52 4 183 7 290 7z m3656 -6450 c2 -2 -1 -44 -7 -93 -5 -49 -16 -109
-24 -134 -7 -25 -16 -67 -20 -95 -3 -27 -10 -86 -15 -130 -5 -44 -14 -104 -20
-134 l-12 -53 -59 6 c-33 4 -78 16 -102 26 -23 11 -55 20 -72 21 -16 0 -43 6
-60 12 -16 7 -39 17 -50 24 -19 11 -19 12 5 35 14 13 41 42 60 64 19 21 53 61
75 88 22 27 51 63 65 82 14 18 40 54 59 81 19 26 38 50 41 53 4 3 35 38 69 78
35 40 65 72 67 69z"/>
<g>
<path d="M4085 11027 c-127 5 -131 5 -168 -21 -21 -14 -43 -26 -50 -26 -7 0
-42 -16 -79 -34 -36 -19 -99 -58 -140 -89 -40 -30 -97 -76 -125 -103 -29 -27
-53 -56 -53 -63 0 -7 -14 -29 -31 -49 -17 -20 -38 -49 -45 -66 -8 -17 -18 -38
-23 -46 -4 -8 -18 -45 -31 -83 -18 -55 -22 -89 -21 -187 0 -81 5 -139 17 -178
9 -31 20 -65 25 -74 5 -10 9 -24 9 -31 0 -8 9 -22 20 -32 11 -10 22 -32 26
-51 3 -18 17 -42 30 -55 13 -12 24 -28 24 -35 0 -7 20 -33 44 -59 44 -46 44
-46 30 -80 -8 -19 -14 -51 -14 -72 0 -21 -5 -54 -10 -73 -6 -19 -20 -78 -31
-130 -11 -52 -24 -122 -30 -155 -6 -33 -14 -64 -20 -69 -5 -6 -9 -23 -9 -38 0
-21 6 -29 26 -34 14 -4 42 -2 62 4 21 6 136 13 257 16 184 4 239 9 339 30 65
14 155 37 200 50 44 14 113 32 151 40 39 8 94 17 124 19 42 3 58 0 71 -13 9
-9 48 -27 85 -39 38 -11 76 -21 86 -21 10 0 20 -4 24 -9 3 -6 19 -17 37 -25
17 -9 38 -16 45 -16 8 0 45 -14 81 -31 37 -17 85 -40 107 -50 22 -11 45 -19
51 -19 6 0 17 -7 24 -15 7 -8 21 -15 32 -15 11 0 32 -6 46 -14 15 -8 67 -31
115 -50 49 -20 99 -36 112 -36 12 0 28 -6 34 -13 6 -8 36 -20 66 -27 31 -7 58
-17 61 -22 3 -4 13 -8 22 -8 10 0 34 -9 54 -20 20 -11 63 -29 95 -41 32 -11
70 -22 85 -23 16 -2 36 -10 46 -19 9 -9 68 -32 129 -52 62 -20 115 -40 118
-44 2 -5 26 -14 52 -21 27 -7 62 -18 78 -25 17 -7 50 -19 75 -25 25 -7 74 -26
110 -42 36 -17 73 -34 82 -39 10 -5 29 -9 44 -9 14 0 33 -8 42 -19 10 -10 40
-27 67 -39 28 -11 97 -32 155 -47 58 -14 130 -40 161 -56 31 -16 66 -29 77
-29 11 0 43 -11 70 -25 28 -14 55 -25 62 -25 6 0 36 -11 67 -26 31 -14 70 -28
87 -31 17 -3 36 -9 41 -13 6 -4 28 -13 50 -20 22 -7 55 -21 73 -32 18 -11 48
-24 65 -28 18 -5 48 -14 67 -21 19 -7 49 -18 65 -24 17 -7 55 -22 85 -34 31
-12 62 -21 71 -21 8 0 19 -4 24 -9 6 -5 57 -23 115 -40 58 -17 113 -36 122
-41 10 -6 24 -10 31 -10 7 0 42 -14 77 -31 34 -16 74 -29 88 -27 19 2 28 11
34 33 4 17 12 59 18 95 5 36 13 90 18 120 6 31 17 78 26 105 10 28 24 60 32
72 8 12 14 29 14 38 0 8 -4 15 -10 15 -5 0 -10 13 -10 29 0 16 -6 31 -15 34
-7 3 -23 -2 -34 -11 -14 -12 -29 -51 -46 -122 -14 -58 -35 -136 -46 -175 -12
-38 -23 -76 -25 -84 -3 -9 -12 -11 -27 -6 -12 4 -44 12 -72 17 -27 6 -88 25
-135 43 -47 19 -105 38 -130 44 -25 5 -74 19 -110 31 -36 12 -73 26 -84 32
-10 5 -42 16 -70 24 -28 8 -60 19 -71 23 -11 5 -47 20 -80 34 -33 14 -94 36
-135 48 -41 12 -79 26 -85 31 -5 4 -19 8 -31 8 -12 0 -32 8 -45 19 -14 10 -40
24 -59 30 -19 6 -64 21 -100 33 -36 13 -69 26 -75 29 -5 4 -41 16 -80 27 -38
12 -92 27 -120 35 -27 8 -96 38 -153 66 -56 28 -105 51 -109 51 -4 0 -45 14
-92 31 -47 17 -95 35 -106 40 -11 5 -63 24 -115 43 -52 18 -96 38 -98 44 -2 6
9 37 24 69 14 32 67 141 117 242 50 101 101 199 114 218 12 18 30 48 39 66 9
17 20 34 23 37 4 3 21 25 39 49 18 25 32 50 32 56 0 7 16 28 35 48 31 31 37
34 67 27 18 -5 47 -13 63 -19 17 -6 80 -24 141 -41 61 -16 119 -30 130 -30 10
0 28 -7 38 -15 11 -8 29 -15 40 -15 11 0 33 -4 50 -9 17 -5 56 -16 86 -25 30
-8 73 -19 95 -25 22 -6 72 -19 110 -30 39 -11 99 -25 135 -32 36 -6 69 -16 75
-20 5 -5 17 -9 27 -9 9 0 52 -11 94 -25 43 -14 127 -35 188 -46 61 -12 134
-25 161 -29 28 -4 77 -15 110 -24 33 -8 72 -15 86 -16 15 0 73 -20 130 -45 95
-41 104 -43 120 -29 10 9 23 42 29 73 6 31 15 72 20 91 5 19 14 58 20 85 7 28
18 64 26 82 8 17 14 38 14 47 0 9 -7 28 -16 41 -9 14 -23 25 -30 25 -8 0 -17
-7 -20 -15 -4 -8 -12 -15 -19 -15 -7 0 -13 -10 -13 -22 1 -13 -4 -45 -11 -73
-6 -27 -17 -79 -25 -113 -8 -35 -18 -68 -22 -72 -5 -5 -28 0 -53 10 -24 11
-53 20 -65 20 -11 0 -48 9 -81 19 -33 10 -96 22 -140 26 -44 4 -109 14 -145
22 -36 8 -87 18 -115 23 -27 4 -84 17 -125 29 -41 12 -100 29 -130 37 -30 9
-82 21 -115 26 -33 5 -68 14 -77 19 -9 5 -36 12 -60 15 -24 4 -54 12 -68 19
-14 7 -50 15 -80 19 -30 4 -82 16 -115 26 -33 10 -90 28 -126 39 -37 12 -76
21 -88 21 -12 0 -47 11 -79 24 -31 13 -82 29 -112 36 -30 7 -91 26 -135 43
-44 16 -136 55 -205 87 -69 31 -145 62 -170 69 -25 7 -61 19 -80 27 -19 7 -73
23 -120 35 -47 12 -107 32 -135 44 -27 12 -88 33 -135 45 -47 13 -116 33 -155
46 -38 13 -104 26 -145 30 -41 4 -87 13 -102 20 -18 9 -39 40 -67 98 -23 47
-41 91 -41 98 0 7 -12 36 -25 63 -14 28 -25 62 -25 76 0 15 -7 32 -15 39 -8 7
-15 20 -15 29 0 9 -22 61 -49 116 -27 55 -58 139 -70 187 -11 47 -21 101 -21
120 0 18 -9 48 -20 66 -11 17 -22 32 -25 32 -3 0 -42 -21 -86 -47 -44 -25 -89
-59 -100 -74 -10 -15 -33 -30 -49 -34 -16 -3 -47 -15 -70 -26 -37 -18 -42 -18
-70 -4 -16 8 -45 26 -65 39 -19 13 -77 44 -128 69 -50 24 -117 55 -147 67 -44
18 -81 23 -185 27z m15 -83 c19 -2 43 -4 53 -4 9 0 17 -6 17 -14 0 -7 -6 -19
-14 -25 -8 -7 -17 -23 -21 -38 -4 -17 0 -31 11 -44 12 -13 31 -19 60 -19 34 0
47 5 63 26 12 15 21 37 21 50 l0 24 61 -33 c33 -17 83 -44 111 -59 28 -15 61
-37 73 -48 12 -11 28 -20 37 -20 9 0 56 -39 105 -87 49 -49 102 -108 119 -133
16 -25 44 -90 62 -145 23 -72 33 -121 34 -175 1 -55 -5 -92 -21 -138 -13 -34
-39 -86 -58 -115 -19 -29 -39 -53 -43 -55 -5 -2 -18 2 -29 8 -15 8 -26 7 -41
-2 -11 -7 -20 -24 -20 -37 0 -13 7 -32 16 -42 14 -16 11 -20 -41 -56 -31 -21
-72 -48 -93 -60 -20 -12 -57 -32 -82 -43 -25 -12 -65 -31 -89 -42 -25 -11 -73
-30 -106 -43 -34 -13 -87 -28 -119 -35 -54 -11 -59 -10 -101 15 -25 14 -45 22
-46 18 -1 -4 0 -18 1 -30 1 -16 -4 -23 -17 -23 -11 0 -41 10 -69 23 -27 13
-82 39 -121 57 -56 26 -96 56 -172 129 -55 53 -116 120 -136 148 -19 29 -44
75 -55 102 -11 28 -26 78 -33 113 -8 35 -15 95 -16 134 -1 46 6 101 20 160 13
49 41 123 63 164 22 41 46 79 53 83 7 4 13 14 13 21 0 7 31 43 70 79 38 37 74
67 79 67 4 0 15 8 22 17 8 9 60 38 117 65 67 32 125 52 165 58 34 5 78 7 97 4z
m814 -77 c13 -1 20 -11 22 -27 1 -14 9 -44 18 -68 9 -24 28 -65 41 -92 14 -27
25 -56 25 -65 0 -9 14 -44 31 -78 17 -34 43 -87 57 -117 14 -30 29 -64 33 -75
4 -11 15 -47 24 -80 9 -33 23 -74 31 -92 8 -17 18 -33 24 -35 5 -2 12 -22 16
-44 5 -33 2 -45 -13 -60 -11 -11 -35 -39 -54 -64 -18 -24 -40 -51 -47 -60 -7
-8 -26 -32 -43 -54 -16 -21 -29 -44 -29 -50 0 -6 -12 -21 -27 -33 -17 -15 -34
-21 -47 -17 -12 3 -35 12 -52 19 -16 8 -42 25 -57 39 l-27 25 35 49 c19 27 46
73 59 103 13 30 27 72 31 94 4 22 7 82 6 134 -1 52 -7 104 -13 115 -7 12 -13
38 -14 59 -1 20 -9 54 -19 75 -9 20 -26 55 -37 77 -12 22 -31 53 -42 69 -12
16 -40 48 -63 71 -24 23 -43 47 -43 53 0 6 16 19 35 28 20 9 41 27 48 41 7 13
26 32 43 43 16 10 38 18 48 17z m406 -881 c19 -3 82 -10 139 -16 57 -6 110
-15 118 -21 7 -7 30 -15 51 -20 20 -4 66 -15 102 -25 36 -9 85 -26 110 -37 25
-11 50 -20 55 -22 6 -1 24 -5 40 -9 17 -4 39 -12 50 -17 11 -5 49 -18 84 -29
36 -11 78 -23 93 -25 16 -3 37 -10 46 -15 9 -5 69 -34 133 -64 63 -30 134 -59
158 -66 23 -6 45 -17 48 -25 3 -8 -7 -29 -21 -46 -14 -17 -26 -37 -26 -45 0
-7 -9 -19 -20 -26 -11 -7 -20 -19 -20 -26 0 -8 -6 -26 -14 -40 -8 -15 -19 -38
-26 -52 -6 -14 -24 -47 -40 -75 -16 -27 -36 -65 -45 -84 -8 -18 -15 -38 -15
-43 0 -6 -8 -22 -18 -36 -11 -15 -24 -42 -30 -60 -6 -18 -22 -47 -34 -65 -13
-18 -31 -47 -40 -64 -10 -18 -18 -38 -18 -43 0 -6 -15 -35 -34 -64 -32 -49
-36 -53 -67 -48 -19 2 -39 9 -45 13 -6 5 -54 25 -106 43 -52 19 -116 44 -141
55 -25 12 -49 21 -52 21 -4 0 -21 6 -38 14 -18 8 -52 21 -76 31 -25 9 -92 32
-149 51 -58 20 -115 42 -128 50 -13 9 -29 16 -36 18 -8 1 -43 16 -78 33 -36
17 -99 45 -140 63 -41 18 -84 36 -95 40 -11 4 -55 24 -98 44 -42 19 -80 42
-83 51 -4 9 6 42 22 73 16 31 50 83 76 116 27 33 48 65 48 72 0 7 6 17 14 21
7 4 30 29 50 56 20 26 36 51 36 55 0 4 8 15 18 24 9 9 33 39 52 68 19 28 50
68 67 88 18 21 33 41 33 46 0 6 12 23 27 38 23 24 33 28 63 24z m-536 -241
c12 -3 26 -7 33 -8 6 -2 32 -21 57 -42 25 -22 46 -44 46 -50 0 -5 -16 -28 -35
-49 -19 -22 -35 -47 -35 -57 0 -9 -10 -23 -23 -32 -12 -8 -44 -47 -70 -86 -26
-38 -52 -73 -58 -77 -6 -3 -60 -10 -120 -15 -71 -6 -135 -19 -182 -35 -39 -14
-88 -29 -108 -33 -19 -4 -41 -11 -47 -15 -6 -4 -78 -16 -159 -28 -81 -11 -220
-22 -308 -24 -88 -2 -177 -5 -199 -7 l-38 -3 7 61 c3 33 10 76 15 95 5 19 21
87 36 151 14 64 30 123 35 130 8 11 14 8 30 -13 11 -15 32 -33 47 -41 15 -8
56 -29 92 -46 36 -18 79 -39 95 -48 17 -9 71 -22 120 -29 50 -7 112 -13 138
-14 27 0 68 5 92 11 25 6 55 21 67 33 13 12 39 30 60 39 20 9 39 17 43 17 4 0
37 14 73 31 37 17 90 45 117 62 28 17 74 53 104 80 41 37 59 47 75 42z"/>
<g>
<path d="M4215 10721 c-11 4 -36 3 -55 0 -22 -4 -36 -12 -38 -24 -2 -10 1 -24
7 -31 7 -8 37 -17 69 -20 31 -4 65 -9 75 -12 11 -4 17 -15 17 -33 0 -15 8 -35
18 -44 10 -10 28 -17 40 -17 14 0 23 9 30 33 6 17 12 51 15 74 3 25 0 49 -7
59 -9 12 -25 16 -54 15 -23 -1 -54 -3 -69 -4 -16 -1 -37 1 -48 4z"/>
</g>
<g>
<path d="M3896 10620 c-27 0 -39 -6 -55 -29 -15 -21 -19 -37 -14 -65 4 -28 12
-40 31 -47 13 -5 33 -7 42 -4 10 3 30 15 44 26 20 16 26 29 26 59 0 29 -5 42
-19 50 -11 5 -35 10 -55 10z"/>
</g>
<g>
<path d="M4631 10540 c-5 0 -23 -11 -40 -26 -16 -14 -44 -50 -62 -80 -21 -37
-43 -61 -65 -72 -19 -9 -34 -23 -34 -33 0 -10 -3 -24 -6 -32 -3 -10 4 -22 20
-32 17 -12 35 -15 56 -10 25 5 36 18 59 64 16 31 36 63 45 70 8 7 27 33 41 57
25 43 26 47 11 70 -9 13 -21 24 -25 24z"/>
</g>
</g>
<g>
<path d="M10696 6760 c-12 0 -44 -11 -73 -24 -32 -16 -57 -35 -66 -53 -8 -15
-17 -45 -20 -66 -5 -31 -2 -41 20 -61 14 -14 41 -27 60 -31 21 -4 45 0 67 10
18 9 43 25 55 36 11 11 22 32 22 47 1 15 1 42 1 61 0 20 -9 42 -23 57 -12 13
-32 24 -43 24z"/>
</g>
</g>
<g>
<path d="M14492 12230 c-4 0 -13 -9 -20 -20 -6 -11 -12 -31 -12 -44 0 -18 8
-27 30 -34 23 -9 33 -8 45 4 8 9 15 29 15 45 0 22 -6 32 -26 39 -14 6 -28 10
-32 10z"/>
</g>
<g>
<path d="M12383 12180 c-11 0 -28 -8 -37 -19 -12 -13 -15 -27 -10 -45 5 -22
12 -26 43 -26 20 0 42 5 49 12 7 7 12 19 12 28 0 9 -8 24 -18 33 -10 10 -28
17 -39 17z"/>
</g>
<g>
<path d="M11297 12170 c-7 0 -23 -9 -35 -20 -12 -12 -22 -29 -22 -38 0 -10 5
-23 12 -30 7 -7 25 -12 40 -12 20 0 32 7 40 25 9 19 8 29 -6 50 -9 14 -22 25
-29 25z"/>
</g>
<g>
<path d="M13160 12140 c-9 0 -27 -11 -39 -24 -23 -24 -23 -25 -5 -50 13 -18
28 -25 51 -26 27 0 32 4 38 31 5 22 2 36 -11 50 -9 10 -25 19 -34 19z"/>
</g>
<g>
<path d="M3772 12110 c-9 -1 -29 -14 -44 -30 -16 -16 -28 -35 -28 -43 0 -8 6
-20 14 -26 9 -7 29 -9 55 -5 37 6 41 9 41 36 0 16 -5 38 -10 49 -6 10 -18 19
-28 19z"/>
</g>
<g>
<path d="M2512 12050 c-5 0 -16 -8 -25 -18 -10 -10 -17 -26 -17 -36 0 -9 5
-26 10 -37 6 -10 21 -19 34 -19 13 0 31 8 40 19 12 13 15 27 10 45 -3 15 -14
31 -24 36 -10 6 -23 10 -28 10z"/>
</g>
<g>
<path d="M9010 12048 c-20 2 -38 1 -41 -2 -3 -3 -3 -21 -1 -40 3 -29 9 -36 34
-42 21 -4 33 -2 39 7 5 8 8 28 7 44 -3 27 -7 30 -38 33z"/>
</g>
<g>
<path d="M13516 12032 c-20 2 -41 -1 -46 -6 -6 -6 -10 -25 -10 -43 0 -27 5
-34 27 -39 14 -4 33 -2 42 3 9 6 17 26 19 45 3 34 1 36 -32 40z"/>
</g>
<g>
<path d="M12958 11988 c-14 2 -31 -5 -41 -16 -9 -10 -17 -28 -17 -39 0 -11 9
-28 20 -38 18 -16 20 -16 54 4 34 21 34 23 21 54 -9 21 -21 33 -37 35z"/>
</g>
<g>
<path d="M1812 11959 c-4 -1 -20 -4 -37 -8 -25 -5 -31 -12 -33 -39 -2 -20 2
-34 10 -36 7 -2 27 -7 45 -10 29 -5 32 -2 38 24 3 16 1 38 -5 49 -6 12 -14 20
-18 20z"/>
</g>
<g>
<path d="M10456 11939 c-6 -1 -21 -4 -32 -6 -12 -2 -27 -16 -33 -31 -11 -23
-10 -29 9 -44 12 -10 35 -18 50 -18 15 0 33 6 40 14 9 12 8 22 -5 50 -10 20
-22 35 -29 35z"/>
</g>
<g>
<path d="M9805 11870 c-5 0 -21 -9 -33 -18 -16 -13 -23 -26 -20 -42 1 -14 15
-31 30 -39 25 -15 29 -14 52 8 15 14 26 32 26 42 0 10 -10 25 -22 33 -12 9
-27 16 -33 16z"/>
</g>
<g>
<path d="M657 11729 c-12 0 -29 -3 -37 -6 -8 -3 -18 -10 -21 -16 -4 -5 -3 -21
0 -36 6 -22 13 -26 46 -26 33 0 40 4 45 25 4 14 3 33 -2 43 -5 9 -19 17 -31
16z"/>
</g>
<g>
<path d="M14941 11610 c-10 0 -24 -6 -33 -12 -8 -7 -18 -21 -21 -30 -4 -11 2
-26 16 -38 12 -12 30 -19 41 -18 10 2 28 16 40 31 l21 29 -24 19 c-13 10 -31
19 -40 19z"/>
</g>
<g>
<path d="M1165 11320 c-5 0 -21 -6 -35 -13 -15 -7 -26 -23 -28 -38 -2 -18 4
-29 20 -37 15 -8 34 -9 52 -4 21 6 32 17 37 35 6 21 3 30 -14 42 -12 8 -26 15
-32 15z"/>
</g>
<g>
<path d="M12320 11296 c-8 1 -24 0 -35 -3 -11 -3 -26 -10 -32 -15 -7 -6 -13
-16 -13 -24 0 -7 10 -22 22 -34 12 -11 32 -20 44 -20 12 0 27 7 34 15 9 11 10
25 4 48 -6 17 -16 33 -24 33z"/>
</g>
<g>
<path d="M15849 11289 c-2 -1 -20 -4 -39 -8 -28 -5 -36 -11 -38 -31 -2 -17 6
-34 22 -49 l25 -23 30 23 c16 13 30 31 30 39 0 8 -6 23 -13 33 -7 9 -15 16
-17 16z"/>
</g>
<g>
<path d="M13790 11260 c-4 0 -13 -6 -19 -14 -6 -7 -12 -31 -14 -52 -2 -38 -1
-39 35 -42 35 -3 37 -2 44 34 6 32 3 40 -16 56 -12 10 -26 18 -30 18z"/>
</g>
<g>
<path d="M2360 11140 c-10 0 -28 -8 -41 -19 -21 -17 -22 -21 -10 -50 9 -21 20
-31 35 -31 12 0 27 5 34 12 7 7 12 22 12 34 0 12 -3 29 -6 38 -3 9 -14 16 -24
16z"/>
</g>
<g>
<path d="M10879 10870 c-32 0 -41 -4 -51 -24 -6 -14 -8 -31 -5 -39 3 -8 16
-17 29 -19 13 -3 31 -9 40 -13 12 -5 21 1 33 24 12 24 13 36 5 51 -8 15 -21
20 -51 20z"/>
</g>
<g>
<path d="M13124 10640 c-6 0 -16 -6 -22 -13 -6 -6 -13 -24 -17 -39 -6 -24 -3
-29 21 -39 25 -9 31 -7 45 10 11 13 15 30 11 43 -3 13 -10 26 -16 30 -6 4 -16
8 -22 8z"/>
</g>
<g>
<path d="M1441 10528 c-3 0 -21 -3 -38 -5 -25 -3 -34 -10 -39 -30 -4 -14 -3
-33 3 -42 5 -8 23 -19 39 -23 18 -5 37 -4 52 4 18 9 22 18 18 40 -2 16 -10 36
-16 44 -7 7 -15 13 -19 12z"/>
</g>
<g>
<path d="M14900 10505 c-15 3 -30 1 -38 -7 -6 -6 -12 -20 -12 -29 0 -10 3 -24
6 -33 4 -11 19 -16 51 -16 l46 0 -7 32 c-3 18 -10 36 -14 39 -4 4 -18 10 -32
14z"/>
</g>
<g>
<path d="M11816 10492 c-17 4 -31 -1 -43 -14 -16 -18 -16 -22 -2 -46 8 -15 24
-28 36 -30 14 -2 27 5 38 22 12 18 14 29 6 44 -6 11 -22 22 -35 24z"/>
</g>
<g>
<path d="M13941 10479 c-4 -1 -23 -8 -44 -17 -32 -13 -38 -19 -35 -41 2 -17
13 -31 31 -39 26 -13 31 -12 53 9 13 12 24 32 24 44 0 11 -5 26 -12 33 -7 7
-14 12 -17 11z"/>
</g>
<g>
<path d="M1957 10469 c-7 -1 -22 -4 -34 -6 -14 -3 -25 -14 -29 -28 -3 -13 -1
-33 6 -44 6 -12 20 -21 31 -21 11 0 29 5 40 10 10 6 19 20 19 31 0 11 -5 29
-10 40 -6 10 -16 18 -23 18z"/>
</g>
<g>
<path d="M16347 10470 c-2 0 -10 -9 -20 -20 -9 -11 -17 -31 -17 -44 0 -13 6
-28 13 -34 6 -5 27 -7 45 -5 30 5 32 8 32 44 0 33 -4 41 -26 49 -14 6 -26 10
-27 10z"/>
</g>
<g>
<path d="M12498 10228 c-20 2 -35 -4 -52 -23 -21 -23 -23 -30 -14 -51 9 -18
19 -24 45 -24 27 0 35 5 44 27 5 15 9 36 7 47 -2 14 -12 22 -30 24z"/>
</g>
<g>
<path d="M271 9910 c-9 0 -21 -4 -28 -8 -6 -4 -16 -19 -22 -33 -8 -23 -6 -28
13 -39 13 -6 36 -10 52 -8 24 2 30 8 32 33 3 19 -2 33 -14 42 -10 7 -25 13
-33 13z"/>
</g>
<g>
<path d="M15877 9770 c-8 0 -21 -8 -30 -18 -10 -10 -17 -25 -17 -34 0 -8 16
-23 35 -34 34 -18 35 -18 49 1 9 11 16 30 16 42 0 12 -9 27 -19 33 -11 5 -26
10 -34 10z"/>
</g>
<g>
<path d="M13499 9680 c-4 0 -11 -4 -14 -10 -3 -5 -15 -10 -27 -10 -18 0 -20
-4 -14 -32 3 -17 11 -37 17 -45 6 -7 20 -13 31 -13 11 0 28 5 39 10 15 8 18
17 13 38 -4 15 -14 35 -22 45 -8 9 -19 17 -23 17z"/>
</g>
<g>
<path d="M15314 9670 c-23 0 -38 -7 -48 -22 -9 -12 -16 -30 -16 -40 0 -9 9
-22 20 -28 11 -6 36 -8 55 -4 20 3 37 13 40 24 3 10 0 29 -6 44 -10 20 -19 26
-45 26z"/>
</g>
<g>
<path d="M1274 9660 c-2 0 -10 -13 -19 -30 -8 -16 -15 -40 -15 -54 0 -14 5
-28 10 -31 6 -4 25 -2 43 4 18 6 37 19 44 30 6 10 9 28 6 39 -3 12 -19 26 -35
31 -17 6 -32 11 -34 11z"/>
</g>
<g>
<path d="M14642 9630 c-10 0 -23 -5 -30 -12 -7 -7 -12 -25 -12 -40 0 -20 7
-32 25 -40 19 -9 29 -8 50 6 14 9 25 22 25 29 0 7 -9 23 -20 35 -12 12 -29 22
-38 22z"/>
</g>
<g>
<path d="M11296 9429 c-6 0 -24 -5 -39 -11 -25 -9 -27 -14 -22 -42 4 -17 14
-37 23 -44 10 -7 28 -10 42 -7 14 4 29 10 34 15 5 5 9 21 9 36 0 15 -9 33 -19
41 -10 7 -23 13 -28 12z"/>
</g>
<g>
<path d="M16601 9230 c-15 0 -35 -8 -44 -18 -10 -10 -17 -23 -17 -29 0 -5 8
-17 18 -26 10 -10 32 -17 49 -17 17 0 36 6 42 14 10 11 9 21 -4 45 -12 24 -22
31 -44 31z"/>
</g>
<g>
<path d="M12109 9170 c-15 0 -32 -7 -39 -14 -6 -8 -10 -25 -8 -38 2 -12 15
-29 30 -37 24 -14 28 -14 47 3 12 11 21 29 21 41 0 11 -5 26 -12 33 -7 7 -24
12 -39 12z"/>
</g>
<g>
<path d="M741 8950 c-21 0 -41 -3 -44 -7 -4 -3 -7 -16 -7 -28 0 -12 9 -30 19
-39 11 -10 31 -16 47 -14 20 2 30 10 35 28 3 14 2 33 -3 43 -6 12 -21 17 -47
17z"/>
</g>
<g>
<path d="M1698 8940 c-8 0 -22 -8 -30 -17 -9 -10 -19 -28 -22 -40 -4 -13 -2
-24 6 -29 7 -4 32 -11 55 -14 l43 -7 0 37 c0 23 -7 43 -18 53 -10 10 -25 17
-34 17z"/>
</g>
<g>
<path d="M13987 8928 c-31 3 -39 -1 -49 -22 -9 -22 -8 -29 7 -46 10 -11 28
-20 41 -20 12 0 29 7 37 15 11 10 13 23 8 42 -6 23 -14 29 -44 31z"/>
</g>
<g>
<path d="M12417 8870 c-15 0 -29 -9 -36 -24 -11 -20 -10 -28 4 -50 10 -14 26
-26 36 -26 11 0 19 5 19 10 0 6 7 10 16 8 11 -2 18 5 20 20 2 13 -4 30 -16 42
-11 11 -30 20 -43 20z"/>
</g>
<g>
<path d="M11691 8550 c-9 0 -25 -6 -35 -13 -12 -9 -17 -23 -14 -42 3 -26 8
-30 36 -33 18 -2 40 2 48 9 8 6 14 24 14 39 0 16 -7 30 -16 34 -9 3 -23 6 -33
6z"/>
</g>
<g>
<path d="M15682 8369 c-9 0 -24 -3 -32 -6 -8 -3 -18 -11 -22 -17 -4 -6 -8 -15
-8 -19 0 -4 11 -19 24 -32 15 -15 31 -22 44 -18 12 3 22 16 25 31 3 15 1 35
-4 44 -5 10 -17 18 -27 17z"/>
</g>
<g>
<path d="M14552 8340 c-5 0 -18 -11 -31 -23 -18 -20 -20 -28 -12 -50 6 -15 14
-27 18 -27 5 0 17 -3 29 -6 13 -3 28 1 38 11 9 9 16 27 16 40 0 13 -10 29 -25
39 -13 9 -28 16 -33 16z"/>
</g>
<g>
<path d="M16208 8190 c-18 0 -40 -5 -48 -10 -8 -5 -16 -20 -17 -34 -1 -14 4
-29 10 -35 7 -5 24 -12 39 -16 24 -6 29 -3 44 28 9 19 14 42 11 51 -4 10 -18
16 -39 16z"/>
</g>
<g>
<path d="M12318 8160 c-21 0 -32 -7 -40 -25 -8 -18 -8 -32 0 -49 6 -13 22 -26
39 -29 19 -4 32 -1 41 11 6 8 12 28 12 42 0 14 -5 31 -12 38 -7 7 -25 12 -40
12z"/>
</g>
<g>
<path d="M12863 8157 c-7 3 -21 -5 -32 -16 -12 -12 -21 -31 -21 -44 0 -13 5
-28 12 -35 7 -7 25 -12 40 -12 21 0 32 7 40 25 10 21 8 30 -8 52 -11 15 -25
28 -31 30z"/>
</g>
<g>
<path d="M1250 7897 c-14 0 -32 -1 -41 -3 -9 -3 -19 -17 -22 -31 -3 -17 2 -32
15 -45 12 -12 29 -18 45 -16 14 2 31 11 37 20 7 11 7 26 0 45 -6 20 -17 28
-34 30z"/>
</g>
<g>
<path d="M11552 7659 c-15 0 -33 -3 -39 -6 -7 -2 -13 -17 -13 -33 0 -24 5 -29
36 -35 20 -3 41 -2 46 3 6 6 7 24 3 41 -5 26 -11 31 -33 30z"/>
</g>
<g>
<path d="M13290 7537 c-8 1 -26 -2 -39 -8 -13 -5 -30 -17 -37 -27 -7 -9 -14
-26 -14 -37 0 -12 5 -26 12 -33 7 -7 27 -12 45 -12 22 0 36 6 40 17 4 9 7 35
7 57 1 29 -3 41 -14 43z"/>
</g>
<g>
<path d="M12569 7431 c-13 6 -19 6 -19 0 0 -6 -9 -19 -21 -30 -14 -13 -19 -28
-17 -47 3 -26 7 -29 42 -32 22 -2 42 2 46 8 4 7 3 30 -3 51 -5 22 -18 44 -28
50z"/>
</g>
<g>
<path d="M687 7365 c-10 12 -16 14 -21 7 -4 -7 -18 -12 -30 -12 -13 0 -28 -6
-34 -13 -7 -8 -8 -25 -3 -43 5 -21 14 -30 32 -32 15 -2 32 5 41 15 9 10 18 27
22 39 3 11 0 28 -7 39z"/>
</g>
<g>
<path d="M1591 7359 c-14 0 -36 -4 -48 -9 -18 -7 -23 -17 -23 -44 0 -30 4 -37
26 -42 14 -4 36 -2 50 5 13 6 29 23 34 37 7 19 7 31 -1 40 -6 8 -23 14 -38 13z"/>
</g>
<g>
<path d="M11866 7070 c-12 -1 -27 -7 -34 -16 -7 -8 -12 -27 -10 -42 2 -19 11
-29 31 -36 19 -7 34 -7 45 0 9 6 19 24 20 40 3 18 -2 32 -14 41 -10 7 -27 13
-38 13z"/>
</g>
<g>
<path d="M15404 7010 c-6 0 -23 -9 -38 -21 -14 -11 -26 -29 -26 -39 0 -11 12
-26 28 -34 16 -8 38 -12 50 -9 12 3 25 19 32 36 9 28 8 34 -12 49 -13 10 -28
18 -34 18z"/>
</g>
<g>
<path d="M16544 6792 c-19 2 -37 2 -39 -1 -3 -2 -5 -17 -5 -32 0 -15 3 -34 6
-43 4 -10 18 -16 39 -16 18 0 38 7 45 15 10 12 10 21 0 44 -9 23 -19 30 -46
33z"/>
</g>
<g>
<path d="M12409 6749 c-2 -1 -11 -3 -20 -6 -9 -2 -21 -15 -28 -29 -6 -14 -11
-31 -11 -37 0 -7 13 -20 29 -30 16 -9 36 -17 44 -17 8 0 17 10 21 23 3 12 6
31 6 43 0 11 -8 28 -18 37 -10 10 -20 16 -23 16z"/>
</g>
<g>
<path d="M751 6680 c-15 0 -36 -7 -48 -15 -17 -12 -20 -21 -14 -42 5 -20 16
-29 38 -34 17 -3 37 -1 47 6 9 7 16 21 16 33 0 11 -3 27 -6 36 -4 9 -18 16
-33 16z"/>
</g>
<g>
<path d="M13315 6663 c-16 3 -31 -3 -43 -17 -11 -12 -22 -34 -24 -49 -4 -22
-1 -30 14 -36 11 -4 33 -5 48 -3 23 3 29 10 34 37 4 18 4 39 1 48 -4 8 -17 17
-30 20z"/>
</g>
<g>
<path d="M14577 6610 c-13 0 -28 -5 -35 -12 -7 -7 -12 -22 -12 -33 0 -12 9
-30 19 -39 10 -10 35 -19 55 -22 35 -4 36 -4 36 31 0 22 -8 43 -20 55 -11 11
-30 20 -43 20z"/>
</g>
<g>
<path d="M11228 6470 c-2 0 -11 -7 -21 -14 -13 -10 -17 -24 -15 -48 3 -28 7
-33 32 -36 16 -2 32 2 37 10 5 7 9 25 9 40 0 17 -7 31 -19 38 -11 5 -21 10
-23 10z"/>
</g>
<g>
<path d="M1402 6430 c-4 0 -15 -14 -24 -31 -10 -17 -18 -37 -18 -45 0 -8 16
-22 35 -31 28 -13 37 -14 50 -3 9 7 15 28 15 51 0 33 -4 41 -26 49 -14 6 -28
10 -32 10z"/>
</g>
<g>
<path d="M11626 6137 c-9 10 -18 7 -43 -13 -28 -22 -31 -28 -21 -44 7 -11 25
-22 41 -26 16 -3 34 -1 42 6 11 9 12 17 3 38 -7 15 -17 32 -22 39z"/>
</g>
<g>
<path d="M14952 5793 c-11 10 -24 12 -37 7 -12 -4 -26 -14 -32 -21 -6 -8 -15
-27 -19 -43 -5 -22 -4 -27 7 -24 8 3 21 -1 30 -9 13 -11 22 -11 41 -2 19 8 25
19 26 44 1 19 -6 39 -16 48z"/>
</g>
<g>
<path d="M15851 5760 c-9 0 -24 -9 -34 -20 -9 -11 -17 -29 -17 -40 0 -11 11
-27 25 -36 21 -13 31 -15 50 -6 14 6 28 23 31 38 6 21 2 31 -16 46 -12 10 -30
18 -39 18z"/>
</g>
<g>
<path d="M12654 5670 c-1 0 -16 -12 -33 -26 -17 -14 -31 -32 -31 -39 0 -8 10
-21 22 -29 12 -9 37 -16 55 -16 21 0 36 6 42 18 6 11 6 24 -2 37 -6 11 -19 28
-30 38 -11 9 -21 17 -23 17z"/>
</g>
<g>
<path d="M768 5600 c-7 0 -28 -9 -45 -20 -18 -11 -33 -25 -33 -31 0 -6 10 -19
23 -30 12 -10 33 -18 47 -18 14 0 33 6 43 13 9 7 17 25 17 39 0 16 -8 30 -19
37 -11 5 -26 10 -33 10z"/>
</g>
<g>
<path d="M2518 5479 c-7 -1 -20 -3 -29 -6 -10 -2 -20 -14 -23 -26 -3 -12 1
-31 9 -43 10 -16 21 -20 42 -16 15 2 34 9 41 15 6 5 12 20 12 33 0 13 -9 28
-19 34 -11 5 -26 9 -33 9z"/>
</g>
<g>
<path d="M15130 5365 c-8 1 -25 -2 -37 -8 -14 -6 -23 -19 -23 -31 0 -12 4 -27
8 -33 4 -7 22 -15 38 -19 22 -4 36 -1 47 11 10 9 17 27 17 40 0 12 -8 26 -17
31 -10 4 -25 8 -33 9z"/>
</g>
<g>
<path d="M15453 5270 c-26 0 -38 -8 -59 -37 -16 -21 -39 -50 -52 -64 -14 -17
-22 -36 -20 -50 3 -21 9 -24 48 -27 l45 -3 17 48 c10 27 31 64 48 83 22 25 27
36 18 42 -7 4 -27 8 -45 8z"/>
</g>
<g>
<path d="M1459 5168 c-35 2 -49 -2 -63 -17 -14 -15 -15 -23 -6 -40 6 -12 12
-21 13 -21 1 0 17 -4 35 -9 27 -8 35 -6 53 12 12 13 19 32 17 47 -3 22 -8 25
-49 28z"/>
</g>
<g>
<path d="M11537 5170 c-20 0 -41 -8 -50 -18 -10 -10 -17 -24 -17 -30 0 -7 9
-21 20 -32 11 -11 26 -20 34 -20 8 0 22 7 30 16 9 8 16 31 16 50 0 32 -2 34
-33 34z"/>
</g>
<g>
<path d="M12150 5105 c-92 5 -98 4 -192 -35 -53 -21 -114 -50 -135 -63 -21
-14 -49 -35 -63 -49 -14 -13 -44 -45 -67 -72 -24 -26 -43 -55 -43 -62 0 -8 -6
-22 -12 -30 -7 -8 -19 -21 -25 -29 -7 -7 -13 -19 -13 -26 0 -7 -8 -31 -19 -53
-10 -23 -24 -63 -31 -91 -7 -27 -20 -63 -28 -80 -11 -21 -15 -61 -15 -135 0
-80 5 -118 20 -160 11 -30 34 -85 51 -122 17 -37 56 -99 88 -139 32 -40 72
-85 88 -101 17 -15 47 -35 66 -44 19 -9 53 -25 75 -36 22 -10 56 -21 75 -23
19 -3 55 -10 80 -16 25 -6 70 -9 100 -6 30 2 83 1 118 -2 35 -4 66 -3 69 2 3
4 11 6 19 3 8 -3 14 -1 14 4 0 5 52 35 116 67 l117 58 62 95 c34 52 67 104 73
115 5 11 18 51 27 89 15 58 17 99 12 245 -3 97 -11 196 -18 221 -6 25 -19 53
-27 63 -8 9 -21 27 -28 40 -7 12 -19 36 -27 52 -8 17 -41 62 -74 100 -32 39
-88 89 -123 112 -36 24 -80 50 -98 59 -18 8 -56 22 -85 30 -29 8 -95 16 -147
19z m33 -100 c26 -2 73 -12 105 -22 31 -10 62 -23 67 -29 6 -6 40 -32 78 -59
37 -26 81 -67 97 -90 17 -24 36 -50 42 -57 7 -8 18 -23 24 -34 7 -11 24 -43
39 -71 20 -39 29 -76 37 -155 6 -57 8 -153 6 -214 -4 -78 -11 -122 -24 -150
-10 -21 -33 -61 -51 -89 -18 -27 -45 -63 -60 -78 -16 -15 -54 -44 -85 -63 -32
-19 -75 -38 -95 -41 -21 -3 -47 -12 -57 -19 -15 -10 -46 -12 -125 -7 -65 3
-112 11 -121 19 -10 8 -30 11 -57 7 -33 -4 -51 0 -89 21 -25 14 -51 26 -56 26
-6 0 -29 21 -52 46 -22 26 -54 65 -69 88 -16 22 -37 50 -47 61 -11 11 -34 54
-51 95 -25 58 -33 94 -36 160 -4 65 0 103 15 161 11 42 37 114 58 160 21 46
41 86 44 89 4 3 21 26 38 52 18 26 51 62 75 80 23 19 54 42 69 51 15 9 48 24
72 32 25 9 72 20 103 25 32 5 79 7 106 5z"/>
<g>
<path d="M11955 4927 c-17 1 -42 -4 -57 -10 -16 -6 -28 -19 -28 -28 0 -10 -4
-21 -10 -24 -5 -3 -10 -14 -10 -23 0 -9 10 -29 23 -44 12 -15 31 -28 42 -29
11 -1 28 -1 38 0 9 0 17 8 17 17 0 9 8 29 17 44 13 22 14 36 7 62 -8 27 -15
33 -39 35z"/>
</g>
<g>
<path d="M12266 4720 c-9 0 -32 -15 -52 -34 -25 -23 -35 -41 -32 -57 2 -13 17
-30 37 -41 22 -13 43 -17 60 -13 14 4 34 14 44 22 9 9 17 30 17 49 0 25 -7 38
-29 53 -16 12 -36 21 -45 21z"/>
</g>
<g>
<path d="M12020 4710 c-5 0 -24 -12 -42 -27 -18 -16 -42 -34 -53 -41 -11 -7
-40 -25 -63 -40 -24 -15 -50 -32 -59 -37 -10 -7 -12 -19 -8 -37 4 -15 25 -45
48 -67 22 -23 51 -41 62 -41 12 0 29 8 38 18 10 10 17 30 17 45 0 14 -8 30
-17 36 -17 9 -16 11 2 31 10 11 35 30 54 42 20 12 42 28 49 36 6 9 12 28 12
43 0 15 -7 29 -16 33 -9 3 -20 6 -24 6z"/>
</g>
<g>
<path d="M11830 4300 c-111 55 -118 57 -144 43 -22 -12 -27 -20 -24 -45 3 -27
11 -35 53 -55 28 -13 57 -28 65 -33 8 -6 32 -17 52 -26 20 -8 39 -22 42 -30 3
-8 18 -14 34 -14 20 0 32 8 44 28 12 21 13 32 5 50 -7 16 -49 43 -127 82z"/>
</g>
</g>
<g>
<path d="M13892 4700 c-17 0 -38 -10 -51 -24 -19 -20 -20 -27 -10 -50 9 -18
20 -26 39 -26 14 0 31 5 38 12 7 7 12 29 12 50 0 35 -2 38 -28 38z"/>
</g>
<g>
<path d="M2697 4680 c-9 0 -28 -10 -43 -23 -21 -19 -26 -29 -21 -49 4 -14 13
-28 21 -31 8 -3 27 -2 42 2 21 5 30 15 35 38 3 17 1 37 -6 47 -7 9 -19 16 -28
16z"/>
</g>
<g>
<path d="M15309 4650 c-22 0 -30 -5 -35 -25 -4 -16 0 -35 11 -51 13 -20 23
-25 48 -22 28 3 32 7 35 34 2 19 -3 38 -13 48 -9 9 -30 16 -46 16z"/>
</g>
<g>
<path d="M3590 4440 c-9 0 -24 -6 -33 -12 -9 -7 -17 -26 -19 -43 -3 -28 -1
-30 32 -31 19 0 41 3 48 9 6 5 12 19 12 31 0 12 -5 27 -12 34 -7 7 -19 12 -28
12z"/>
</g>
<g>
<path d="M1676 4370 c-9 0 -25 -9 -36 -20 -11 -11 -20 -26 -20 -34 0 -8 7 -22
16 -30 8 -9 25 -16 37 -16 12 0 30 7 40 14 9 7 17 25 17 39 0 16 -8 30 -19 37
-11 5 -27 10 -35 10z"/>
</g>
<g>
<path d="M9508 4350 c-21 0 -32 -7 -40 -26 -8 -18 -9 -31 -2 -42 6 -9 24 -20
40 -24 22 -6 32 -4 42 9 6 9 12 26 12 38 0 12 -5 26 -12 33 -7 7 -25 12 -40
12z"/>
</g>
<g>
<path d="M2853 4308 c-13 14 -25 18 -43 13 -17 -5 -26 -15 -28 -33 -2 -18 4
-31 20 -42 12 -9 26 -16 30 -16 3 0 14 7 22 16 9 8 16 21 16 29 0 7 -8 22 -17
33z"/>
</g>
<g>
<path d="M4047 4139 c-17 0 -38 -3 -44 -6 -7 -2 -13 -15 -13 -27 0 -12 6 -30
13 -40 9 -12 23 -17 41 -14 16 1 33 10 39 19 5 9 7 28 3 42 -5 23 -12 27 -39
26z"/>
</g>
<g>
<path d="M797 4119 c-12 0 -28 -3 -34 -6 -7 -2 -13 -15 -13 -27 0 -12 11 -33
24 -45 17 -16 30 -20 50 -15 20 5 26 12 26 34 0 16 -7 36 -16 44 -8 9 -25 16
-37 15z"/>
</g>
<g>
<path d="M10597 3920 c-12 0 -30 -5 -39 -11 -10 -5 -18 -20 -18 -32 0 -12 7
-30 14 -39 7 -10 23 -18 35 -18 12 0 31 5 42 10 11 6 19 21 19 35 0 13 -7 31
-16 39 -8 9 -25 16 -37 16z"/>
</g>
<g>
<path d="M3850 3907 c-14 1 -31 -1 -38 -4 -7 -3 -18 -16 -23 -30 -6 -18 -6
-30 2 -39 6 -8 28 -14 49 -14 20 0 39 2 42 5 3 3 2 22 -1 43 -5 30 -11 37 -31
39z"/>
</g>
<g>
<path d="M2942 3869 c-12 6 -26 4 -45 -7 -16 -10 -27 -25 -27 -38 0 -11 9 -29
20 -39 13 -11 27 -15 44 -11 14 3 28 15 31 26 3 11 3 29 0 40 -3 11 -14 24
-23 29z"/>
</g>
<g>
<path d="M3623 3770 c-7 0 -22 -9 -33 -20 -11 -11 -20 -24 -20 -29 0 -5 7 -17
16 -25 8 -9 24 -16 34 -16 11 0 27 11 36 25 16 24 16 27 -1 45 -10 11 -24 20
-32 20z"/>
</g>
<g>
<path d="M3033 3648 c-24 2 -34 -2 -43 -18 -7 -12 -9 -33 -6 -46 5 -18 13 -24
35 -24 16 0 34 6 40 14 7 8 11 27 9 43 -2 23 -8 29 -35 31z"/>
</g>
<g>
<path d="M14415 3644 c-12 3 -26 1 -33 -6 -7 -7 -12 -23 -12 -36 0 -13 5 -32
10 -43 7 -12 21 -19 38 -19 16 0 33 5 40 12 7 7 12 22 12 33 0 12 -8 29 -17
37 -10 9 -27 18 -38 22z"/>
</g>
<g>
<path d="M2433 3607 c-19 13 -24 12 -42 -6 -12 -12 -21 -27 -21 -34 0 -7 7
-23 16 -35 11 -16 24 -22 42 -20 24 3 27 7 27 42 0 29 -6 42 -22 53z"/>
</g>
<g>
<path d="M2847 3469 c-1 -1 -13 -4 -26 -8 -13 -3 -29 -14 -35 -23 -8 -13 -6
-22 8 -37 10 -11 27 -23 38 -27 10 -3 25 0 33 6 8 7 15 27 15 45 0 21 -6 35
-16 39 -9 3 -16 6 -17 5z"/>
</g>
<g>
<path d="M7584 3468 c-18 2 -39 -4 -52 -15 -18 -15 -21 -23 -14 -48 7 -24 15
-31 39 -33 19 -2 37 3 47 14 11 10 16 28 14 48 -3 27 -7 31 -34 34z"/>
</g>
<g>
<path d="M15363 3442 c-10 3 -24 3 -31 1 -7 -3 -17 -13 -22 -23 -7 -13 -6 -27
1 -44 7 -14 17 -27 23 -29 6 -3 22 -4 36 -3 19 1 26 7 28 28 2 15 -1 36 -7 46
-6 11 -18 22 -28 24z"/>
</g>
<g>
<path d="M4960 3380 c-10 0 -25 -12 -35 -26 -11 -17 -14 -35 -10 -55 4 -16 10
-31 15 -34 4 -2 22 2 39 11 17 9 34 26 37 40 4 17 0 31 -11 44 -10 11 -26 20
-35 20z"/>
</g>
<g>
<path d="M3339 3318 c-8 1 -25 -8 -37 -21 -12 -13 -22 -28 -22 -34 0 -6 11
-18 24 -27 23 -14 26 -14 48 3 19 16 21 23 13 47 -6 16 -17 30 -26 32z"/>
</g>
<g>
<path d="M3035 3225 c-5 1 -20 0 -31 -2 -12 -2 -30 -13 -39 -23 -9 -10 -15
-27 -13 -37 3 -14 13 -18 48 -18 l45 0 0 39 c0 22 -4 40 -10 41z"/>
</g>
<g>
<path d="M10092 3190 c-10 0 -28 -7 -40 -16 -12 -8 -22 -23 -22 -33 0 -10 8
-25 18 -34 10 -10 30 -17 44 -17 22 0 26 5 30 35 2 19 0 42 -5 50 -4 8 -16 15
-25 15z"/>
</g>
<g>
<path d="M4147 3180 c-3 0 -9 -6 -15 -12 -5 -7 -11 -27 -13 -43 -2 -17 0 -35
4 -41 4 -7 18 -15 32 -18 16 -4 31 0 45 11 11 10 20 30 20 46 0 23 -7 31 -35
43 -19 7 -36 14 -38 14z"/>
</g>
<g>
<path d="M1787 3170 c-7 0 -23 -7 -35 -16 -18 -12 -22 -25 -22 -65 0 -46 1
-49 26 -49 16 0 37 11 50 26 13 14 24 33 24 42 0 10 -7 28 -16 40 -8 12 -21
22 -27 22z"/>
</g>
<g>
<path d="M2809 3080 c-10 0 -24 -6 -32 -14 -9 -9 -12 -26 -9 -41 2 -15 15 -31
28 -37 12 -6 30 -8 38 -5 10 4 16 19 16 40 0 18 -5 38 -12 45 -7 7 -20 12 -29
12z"/>
</g>
<g>
<path d="M2436 3059 c-6 0 -26 -7 -44 -15 -27 -12 -32 -18 -27 -37 4 -12 9
-30 12 -40 4 -15 11 -17 31 -12 15 3 32 12 39 18 6 7 12 21 14 32 1 11 -1 28
-6 38 -4 9 -12 17 -19 16z"/>
</g>
<g>
<path d="M3576 2999 c-6 -1 -19 -3 -28 -6 -13 -3 -18 -14 -18 -37 0 -25 6 -35
25 -44 14 -6 31 -9 39 -6 7 3 19 17 25 32 11 23 10 29 -9 44 -12 10 -27 17
-34 17z"/>
</g>
<g>
<path d="M3208 2955 c-23 6 -29 3 -39 -18 -6 -14 -9 -33 -6 -41 3 -9 18 -18
32 -22 18 -4 32 -1 45 11 11 10 20 24 20 30 0 7 -6 17 -13 23 -6 6 -24 13 -39
17z"/>
</g>
<g>
<path d="M8350 2932 c-23 3 -33 -2 -49 -23 -12 -16 -21 -35 -21 -42 0 -8 6
-19 13 -25 6 -5 21 -12 32 -16 13 -4 30 3 49 18 28 22 29 25 17 53 -9 22 -21
32 -41 35z"/>
</g>
<g>
<path d="M6592 2850 c-9 0 -26 -12 -36 -27 -15 -20 -17 -32 -10 -52 7 -18 18
-27 37 -29 16 -2 35 2 43 9 8 6 14 24 14 40 0 15 -7 35 -16 43 -8 9 -23 16
-32 16z"/>
</g>
<g>
<path d="M11479 2770 c-18 0 -32 -7 -39 -19 -5 -11 -10 -31 -10 -45 0 -15 8
-30 20 -36 12 -6 35 -10 53 -8 26 2 33 8 35 30 2 15 -4 38 -14 52 -11 18 -25
26 -45 26z"/>
</g>
<g>
<path d="M13332 2677 c-13 -1 -33 -12 -43 -26 -10 -13 -19 -30 -19 -38 0 -7
12 -18 26 -23 14 -6 36 -10 49 -10 18 0 26 7 31 26 4 14 1 36 -6 50 -9 16 -21
23 -38 21z"/>
</g>
<g>
<path d="M5208 2420 c-8 0 -22 -8 -30 -17 -8 -10 -18 -28 -21 -41 -4 -18 1
-26 25 -38 28 -15 31 -14 54 7 13 12 24 30 24 39 0 9 -8 24 -18 33 -10 10 -25
17 -34 17z"/>
</g>
<g>
<path d="M5850 2400 c-15 0 -30 -3 -33 -7 -4 -3 -7 -23 -7 -44 0 -26 6 -41 18
-48 9 -5 29 -7 44 -4 19 4 27 13 32 36 4 21 1 36 -10 49 -10 10 -29 18 -44 18z"/>
</g>
<g>
<path d="M2890 2200 c-3 0 -12 -10 -20 -22 -8 -13 -18 -31 -22 -41 -5 -12 -1
-24 13 -38 11 -11 27 -18 36 -15 8 3 21 6 29 6 9 0 14 11 14 28 0 16 -10 41
-23 55 -12 15 -25 27 -27 27z"/>
</g>
<g>
<path d="M3725 2180 c-9 0 -27 -11 -40 -25 -14 -13 -25 -29 -25 -35 0 -6 7
-22 16 -35 11 -17 26 -25 45 -25 22 0 32 6 39 25 7 19 6 36 -5 60 -7 19 -21
35 -30 35z"/>
</g>
<g>
<path d="M2600 2140 c-15 0 -33 -6 -39 -14 -7 -8 -11 -27 -9 -43 3 -25 7 -28
43 -28 34 0 41 4 49 27 7 19 6 31 -4 42 -7 9 -25 16 -40 16z"/>
</g>
<g>
<path d="M818 2130 c-8 0 -24 -10 -36 -23 -12 -13 -22 -30 -22 -38 0 -8 5 -20
12 -27 7 -7 23 -12 36 -12 13 0 32 5 43 10 10 6 19 21 19 34 0 13 -8 30 -18
39 -10 10 -25 17 -34 17z"/>
</g>
<g>
<path d="M6644 2027 c-20 13 -24 12 -43 -13 -12 -15 -21 -32 -21 -40 0 -7 3
-19 6 -28 4 -10 18 -16 39 -16 18 0 38 7 45 16 10 11 11 23 4 41 -5 14 -19 32
-30 40z"/>
</g>
<g>
<path d="M10706 1990 c-12 0 -32 -11 -44 -23 l-22 -24 21 -26 c11 -15 29 -27
39 -27 10 0 25 3 34 6 9 3 16 17 16 31 0 13 -5 33 -10 44 -6 10 -21 19 -34 19z"/>
</g>
<g>
<path d="M7833 1980 c-11 0 -27 -8 -37 -19 -13 -14 -14 -24 -7 -45 8 -20 17
-26 40 -26 16 0 37 7 45 16 9 8 16 21 16 28 0 7 -8 20 -18 29 -10 10 -28 17
-39 17z"/>
</g>
<g>
<path d="M9211 1919 c-3 -1 -14 -3 -23 -6 -10 -2 -21 -16 -24 -30 -4 -14 -2
-33 3 -42 6 -9 23 -17 39 -17 16 -1 35 3 42 8 6 6 12 19 12 29 0 10 -10 27
-22 39 -12 11 -24 19 -27 19z"/>
</g>
<g>
<path d="M13371 1760 c-3 -1 -18 -8 -33 -16 -16 -8 -28 -23 -28 -33 0 -9 10
-27 23 -39 13 -12 28 -22 33 -22 6 0 20 9 32 20 12 12 22 27 22 35 0 8 -10 23
-22 35 -12 11 -24 20 -27 20z"/>
</g>
<g>
<path d="M11519 1410 c-16 0 -29 -3 -30 -7 -1 -5 0 -26 1 -48 1 -23 9 -48 20
-59 14 -15 23 -17 46 -9 17 6 30 18 32 30 2 11 -7 37 -18 57 -17 28 -28 36
-51 36z"/>
</g>
<g>
<path d="M2104 1330 c-12 0 -27 -7 -34 -15 -11 -13 -11 -20 0 -40 7 -13 25
-36 41 -51 18 -17 34 -24 45 -20 13 5 15 15 9 54 -3 26 -14 53 -23 60 -9 6
-26 12 -38 12z"/>
</g>
<g>
<path d="M5874 1187 c-22 1 -34 -2 -33 -10 1 -7 -1 -20 -6 -30 -5 -13 -1 -27
13 -45 13 -18 28 -26 43 -24 13 1 30 4 37 7 6 2 12 17 12 32 0 15 -7 37 -16
48 -9 12 -28 20 -50 22z"/>
</g>
<g>
<path d="M4570 1033 c-14 3 -35 0 -47 -5 -16 -8 -23 -20 -23 -38 0 -15 8 -34
18 -43 10 -10 26 -17 35 -17 9 0 17 4 17 9 0 5 10 11 21 14 19 5 21 11 15 38
-3 18 -7 33 -9 34 -1 1 -13 5 -27 8z"/>
</g>
<g>
<path d="M12323 990 c-11 0 -26 -6 -32 -14 -7 -8 -11 -27 -9 -43 2 -20 11 -30
30 -37 22 -8 32 -6 48 9 11 10 20 26 20 35 0 9 -8 24 -18 33 -10 10 -28 17
-39 17z"/>
</g>
<g>
<path d="M9433 680 c-16 0 -36 -7 -47 -15 -13 -10 -17 -21 -12 -37 3 -13 9
-28 14 -35 5 -7 19 -9 41 -5 19 4 38 14 43 22 6 9 6 25 -1 43 -8 21 -17 27
-38 27z"/>
</g>
<g>
<path d="M6637 670 c-20 0 -41 -8 -54 -22 -20 -20 -21 -23 -7 -50 11 -22 21
-28 47 -28 17 0 37 4 44 8 7 4 13 21 15 38 1 16 -1 35 -6 42 -4 7 -22 12 -39
12z"/>
</g>
</g>
</svg>
