<?xml version="1.0" standalone="no"?>
<!DOCTYPE svg PUBLIC "-//W3C//DTD SVG 20010904//EN"
 "http://www.w3.org/TR/2001/REC-SVG-20010904/DTD/svg10.dtd">
<svg version="1.0" xmlns="http://www.w3.org/2000/svg"
 width="1418.000000pt" height="2048.000000pt" viewBox="0 0 1418.000000 2048.000000"
 preserveAspectRatio="xMidYMid meet">
<metadata>
Created by potrace 1.16, written by Peter Selinger 2001-2019
</metadata>
<g transform="translate(0.000000,2048.000000) scale(0.100000,-0.100000)"
fill="#000000" stroke="none">
<g>
<path d="M12537 19520 c-12 0 -27 -4 -34 -8 -7 -4 -34 -50 -60 -102 -27 -52
-59 -122 -72 -155 -14 -33 -46 -94 -72 -135 -26 -41 -50 -86 -54 -100 -4 -14
-13 -32 -20 -40 -7 -8 -39 -69 -73 -135 -33 -66 -68 -136 -76 -155 -9 -19 -39
-66 -65 -105 -27 -38 -64 -104 -82 -145 -18 -41 -47 -95 -65 -120 -18 -25 -51
-85 -73 -132 -23 -48 -45 -90 -51 -93 -5 -3 -16 -20 -23 -38 -8 -18 -19 -43
-26 -57 -6 -14 -17 -34 -23 -45 -7 -10 -28 -41 -45 -68 -18 -27 -33 -53 -33
-58 0 -5 -16 -33 -35 -63 -19 -30 -35 -61 -35 -67 0 -7 -6 -20 -14 -28 -8 -9
-34 -53 -58 -99 -24 -46 -51 -99 -61 -119 -10 -20 -25 -42 -33 -50 -8 -8 -14
-20 -14 -27 0 -7 -9 -21 -20 -31 -11 -10 -20 -22 -20 -27 0 -5 -11 -24 -25
-42 -14 -18 -25 -39 -25 -47 0 -8 -11 -36 -24 -64 -13 -27 -35 -63 -50 -78
-14 -15 -26 -36 -26 -46 0 -10 -7 -24 -15 -31 -8 -7 -15 -19 -15 -27 0 -7 -8
-26 -18 -41 -10 -15 -22 -34 -27 -44 -6 -9 -31 -47 -56 -85 -25 -37 -55 -88
-68 -112 -12 -25 -37 -63 -56 -85 -18 -23 -36 -52 -40 -65 -4 -13 -26 -49 -49
-80 -22 -31 -60 -95 -83 -142 -24 -47 -58 -103 -76 -125 -18 -21 -55 -75 -81
-119 -26 -44 -75 -132 -107 -195 -32 -63 -59 -121 -59 -127 0 -7 -4 -13 -9
-13 -5 0 -26 -27 -46 -60 -20 -33 -40 -60 -43 -60 -4 0 -18 11 -32 24 -14 12
-43 43 -65 67 -22 24 -52 62 -67 84 -15 22 -28 45 -28 51 0 7 -7 14 -14 17 -8
3 -23 21 -32 39 -9 18 -22 40 -29 48 -7 8 -35 38 -61 67 -27 28 -62 68 -79 87
-16 20 -37 39 -46 41 -9 3 -69 58 -133 122 -64 64 -116 119 -116 123 0 4 -27
26 -60 49 -33 22 -63 41 -66 41 -3 0 -41 35 -85 77 -43 42 -98 88 -122 102
-24 14 -81 55 -127 91 -47 36 -111 82 -143 102 -32 21 -61 38 -66 38 -4 0 -25
15 -47 34 -21 18 -48 36 -59 39 -11 4 -43 19 -72 34 -28 16 -91 51 -140 80
-48 28 -115 61 -148 74 -33 12 -65 26 -71 30 -6 5 -33 21 -60 35 -27 15 -74
33 -104 41 -30 8 -71 19 -90 23 -19 5 -62 12 -95 15 -33 3 -79 8 -103 10 -24
3 -49 8 -55 12 -7 4 -86 11 -177 15 -91 4 -210 11 -265 17 -55 5 -134 16 -175
24 -41 9 -123 21 -181 28 -85 10 -115 10 -155 -1 -27 -7 -110 -14 -184 -16
-82 -2 -156 -9 -190 -19 -30 -8 -64 -18 -75 -21 -11 -3 -42 -10 -68 -14 -27
-5 -74 -18 -105 -29 -32 -11 -101 -37 -154 -59 -53 -21 -113 -51 -132 -65 -19
-15 -37 -27 -41 -27 -3 0 -19 -9 -35 -20 -17 -11 -44 -29 -61 -41 -17 -11 -34
-18 -37 -14 -4 4 -7 127 -7 273 -1 147 -5 328 -9 402 -4 74 -14 195 -21 268
-7 73 -13 179 -14 235 -1 57 -6 132 -11 167 -5 36 -10 88 -10 117 0 29 -5 86
-11 127 -9 59 -15 75 -30 79 -10 3 -36 1 -56 -4 -21 -5 -93 -12 -159 -15 -118
-7 -122 -6 -135 15 -9 13 -24 21 -41 21 -22 0 -28 -5 -29 -22 -1 -13 0 -50 1
-83 1 -33 4 -73 6 -90 2 -16 10 -122 18 -235 9 -113 23 -290 31 -395 9 -105
16 -273 15 -375 -1 -102 3 -261 9 -354 6 -94 16 -184 23 -201 6 -18 8 -43 5
-57 -4 -13 -17 -30 -29 -36 -13 -7 -41 -23 -63 -36 -22 -12 -109 -58 -192
-100 -84 -43 -153 -81 -153 -86 0 -4 -10 -10 -23 -14 -12 -3 -32 -14 -44 -26
-12 -11 -39 -31 -59 -45 -20 -14 -59 -44 -86 -67 -27 -24 -63 -56 -79 -71 -16
-15 -33 -26 -37 -23 -4 2 -7 31 -5 63 1 32 -2 92 -8 133 -5 41 -12 161 -14
265 -2 105 -7 219 -10 255 -3 36 -7 162 -10 282 -3 119 -7 223 -10 232 -3 9
-7 23 -10 31 -4 13 -17 15 -77 10 -40 -4 -125 -7 -188 -8 -63 -1 -133 2 -154
7 -31 7 -41 6 -50 -6 -8 -11 -9 -43 -4 -104 4 -49 10 -132 13 -184 2 -52 9
-195 14 -317 5 -123 13 -228 16 -234 4 -6 9 -52 11 -102 2 -51 5 -162 8 -247
3 -85 9 -198 12 -251 6 -92 6 -96 -17 -111 -13 -8 -44 -35 -69 -58 -25 -23
-60 -54 -77 -67 -18 -14 -33 -32 -33 -39 0 -8 -5 -14 -11 -14 -6 0 -52 -39
-101 -87 -50 -49 -107 -110 -127 -138 -20 -27 -42 -63 -49 -79 -7 -16 -16 -26
-19 -22 -3 3 -10 27 -15 53 -5 27 -11 82 -13 123 -2 41 -7 174 -10 295 -3 121
-5 299 -3 395 1 96 1 261 1 365 -1 105 -4 242 -7 305 -3 63 -10 162 -16 220
-6 58 -15 161 -20 230 -5 69 -12 188 -15 265 -3 77 -9 196 -14 265 -5 73 -5
154 1 198 5 40 6 78 2 84 -4 6 -10 70 -15 142 -5 72 -13 169 -19 216 -6 47
-13 108 -14 136 -2 28 -11 62 -20 77 -16 23 -23 26 -69 22 -29 -1 -96 -8 -150
-15 -89 -11 -100 -11 -117 5 -10 9 -26 15 -36 13 -10 -2 -27 -18 -37 -36 -15
-26 -17 -38 -9 -56 6 -13 15 -175 21 -367 6 -189 16 -510 22 -714 5 -203 13
-415 16 -470 4 -55 7 -113 6 -130 0 -16 3 -86 8 -155 6 -69 12 -137 14 -152 4
-22 1 -28 -14 -28 -10 0 -27 -8 -38 -17 -11 -10 -32 -39 -46 -64 -15 -25 -27
-55 -27 -67 0 -17 6 -22 25 -22 14 0 25 4 25 10 0 5 16 25 37 45 20 19 39 35
43 35 5 0 11 -19 15 -42 3 -24 8 -86 10 -138 2 -52 8 -151 14 -220 6 -69 13
-163 15 -210 2 -47 9 -146 15 -220 6 -74 16 -220 21 -325 6 -104 14 -244 19
-310 7 -96 6 -125 -5 -147 -8 -15 -18 -29 -23 -33 -6 -3 -24 -26 -40 -51 -17
-25 -31 -48 -31 -51 0 -4 -10 -17 -21 -29 -12 -13 -27 -32 -33 -43 -6 -11 -37
-53 -68 -94 -31 -40 -67 -93 -79 -118 -12 -24 -31 -56 -41 -71 -10 -14 -18
-35 -18 -47 0 -11 -14 -36 -30 -54 -17 -19 -30 -39 -30 -45 0 -6 -11 -23 -24
-39 -13 -15 -31 -41 -40 -58 -9 -16 -30 -52 -46 -80 -17 -27 -41 -73 -55 -102
-13 -28 -29 -54 -34 -58 -6 -3 -11 -3 -12 2 -1 4 -3 28 -4 53 -2 25 -9 92 -14
150 -6 58 -13 186 -16 285 -3 99 -10 214 -15 255 -6 41 -12 131 -14 200 -2 69
-9 222 -15 340 -6 118 -12 237 -15 264 -3 39 1 56 20 84 13 19 24 41 24 48 0
7 8 19 19 26 10 7 21 23 25 36 4 12 15 22 26 22 10 0 20 6 22 12 3 7 0 25 -6
40 -6 16 -18 28 -28 28 -9 0 -36 -25 -60 -55 -40 -51 -43 -54 -50 -33 -3 13
-6 60 -7 105 -1 45 -5 85 -11 88 -6 4 -10 74 -11 173 0 92 -2 199 -4 237 -1
39 -8 140 -14 225 -7 85 -17 200 -23 255 -5 55 -12 152 -13 215 -2 63 -6 144
-9 180 -3 36 -8 119 -11 185 -4 66 -13 163 -21 215 -9 52 -20 115 -25 139 -6
25 -10 97 -10 160 0 64 -5 134 -11 156 -5 21 -10 85 -11 142 0 91 -2 103 -19
109 -10 3 -32 3 -48 -1 -16 -3 -100 -7 -187 -7 -108 -1 -166 3 -182 11 -12 7
-25 10 -29 6 -3 -3 -6 -61 -7 -128 0 -67 4 -142 8 -167 4 -25 10 -139 13 -255
2 -115 4 -246 4 -290 -1 -44 6 -145 14 -225 9 -80 21 -235 27 -345 6 -110 13
-458 15 -774 2 -319 8 -578 13 -585 5 -6 14 -78 20 -161 6 -82 10 -175 9 -205
-2 -30 1 -90 6 -132 7 -66 6 -78 -6 -78 -8 0 -31 -26 -52 -57 -20 -32 -39 -74
-42 -93 -3 -19 -9 -47 -14 -62 -5 -14 -6 -29 -3 -32 4 -3 13 -6 22 -6 9 0 26
15 38 33 12 17 25 44 28 59 4 15 13 32 21 39 12 9 14 3 16 -37 1 -27 2 -60 1
-74 0 -14 3 -61 8 -105 5 -44 11 -235 14 -425 3 -190 8 -418 10 -507 3 -127 1
-168 -10 -190 -13 -24 -12 -29 4 -44 14 -13 40 -18 107 -20 49 -2 152 1 228 5
l139 9 -8 -34 c-4 -19 -9 -126 -10 -239 -1 -124 3 -249 11 -315 7 -60 18 -165
24 -233 5 -68 14 -131 19 -141 6 -9 19 -74 30 -144 12 -70 21 -143 21 -163 0
-19 5 -45 11 -56 6 -11 12 -41 14 -67 2 -25 13 -91 24 -146 12 -55 29 -127 37
-160 9 -33 25 -78 35 -101 11 -22 19 -47 19 -55 0 -8 6 -27 13 -42 6 -15 15
-27 20 -27 4 0 7 -10 7 -23 0 -12 11 -38 24 -58 14 -20 34 -52 45 -73 12 -20
21 -47 21 -61 0 -13 5 -27 11 -30 5 -4 15 -17 20 -28 5 -12 21 -42 34 -66 14
-24 25 -48 25 -53 0 -5 11 -24 24 -41 14 -18 27 -45 31 -62 4 -16 12 -41 18
-55 6 -14 18 -33 26 -43 8 -9 20 -27 27 -40 7 -12 18 -33 24 -46 6 -13 24 -44
40 -68 17 -24 30 -50 30 -58 0 -8 5 -17 10 -20 6 -3 10 -14 10 -25 0 -10 7
-20 15 -24 8 -3 15 -14 15 -24 0 -10 24 -55 52 -99 29 -45 62 -96 73 -115 11
-18 22 -40 25 -48 3 -8 22 -41 42 -72 21 -31 62 -83 91 -115 30 -32 73 -86 96
-120 24 -35 47 -63 53 -63 6 0 60 -48 121 -107 61 -60 125 -122 141 -139 17
-17 59 -47 94 -68 35 -20 66 -36 69 -36 4 0 56 -24 117 -54 61 -29 146 -70
188 -90 43 -20 83 -36 89 -36 6 0 25 -6 42 -14 18 -8 57 -22 87 -32 30 -11 57
-22 60 -25 3 -3 32 -16 65 -27 33 -12 78 -26 100 -31 22 -5 72 -19 110 -31 39
-11 106 -29 150 -39 44 -11 123 -31 175 -45 52 -15 130 -35 173 -46 46 -12
127 -22 205 -25 70 -3 217 -7 327 -9 110 -3 223 -10 252 -16 42 -9 67 -8 135
5 46 10 103 20 128 24 25 4 55 13 67 19 12 7 26 11 30 10 4 -1 49 11 98 25 50
15 113 34 142 43 28 9 58 14 66 11 11 -4 16 -39 21 -159 3 -84 6 -187 7 -228
0 -41 0 -98 0 -127 -1 -40 -5 -53 -18 -57 -10 -3 -106 -14 -213 -26 -107 -11
-273 -21 -368 -23 -161 -2 -175 -4 -188 -22 -8 -11 -23 -19 -34 -17 -11 2 -25
-7 -36 -23 -13 -20 -14 -31 -6 -53 6 -15 13 -40 17 -56 3 -16 1 -63 -6 -105
-6 -42 -24 -114 -41 -161 -16 -47 -30 -92 -31 -100 -2 -8 -9 -33 -16 -55 -8
-22 -18 -45 -22 -51 -5 -6 -15 -31 -23 -55 -8 -24 -24 -71 -37 -104 -12 -33
-28 -69 -35 -80 -8 -11 -14 -29 -14 -40 0 -11 -31 -83 -70 -160 -38 -77 -86
-162 -105 -190 -20 -27 -50 -68 -68 -90 -17 -22 -66 -75 -107 -119 -41 -43
-107 -102 -146 -131 -50 -37 -73 -61 -76 -80 -4 -21 -1 -29 18 -37 12 -6 34
-8 48 -4 14 3 70 50 123 104 54 54 103 104 108 112 6 8 33 42 61 75 28 33 72
94 99 135 27 41 70 119 97 172 26 53 48 104 48 112 0 8 4 18 10 21 6 3 10 13
10 20 0 8 11 38 24 67 13 29 45 105 71 168 26 63 54 138 62 165 9 28 19 59 23
70 5 11 19 46 31 78 21 53 24 56 30 34 4 -14 3 -46 -2 -71 -4 -25 -9 -101 -10
-168 -2 -75 -8 -136 -16 -155 -7 -18 -13 -71 -13 -120 -1 -48 -8 -151 -16
-228 -8 -77 -19 -180 -24 -230 -5 -49 -13 -106 -19 -125 -5 -19 -15 -64 -22
-100 -7 -36 -14 -69 -17 -75 -3 -5 -7 -25 -9 -45 -2 -19 -10 -44 -17 -55 -7
-11 -19 -38 -26 -60 -6 -22 -37 -96 -67 -165 -31 -69 -67 -150 -80 -180 -14
-30 -32 -73 -41 -95 -9 -22 -18 -42 -22 -45 -3 -3 -23 -38 -44 -79 -20 -41
-52 -91 -70 -111 -18 -20 -47 -58 -66 -85 -18 -28 -48 -65 -67 -83 -18 -18
-42 -51 -54 -74 -11 -22 -39 -61 -62 -86 -23 -25 -75 -67 -115 -93 -40 -26
-89 -53 -110 -60 -20 -7 -80 -33 -132 -58 -52 -25 -115 -54 -140 -64 -25 -10
-56 -23 -70 -29 -14 -5 -38 -16 -55 -23 -16 -8 -52 -21 -80 -31 -27 -9 -63
-20 -80 -24 -16 -4 -67 -22 -112 -38 -45 -17 -104 -34 -130 -38 -27 -4 -84
-19 -128 -34 -44 -15 -102 -35 -130 -45 -27 -10 -59 -22 -70 -26 -11 -5 -47
-16 -80 -25 -33 -9 -93 -23 -134 -30 -41 -8 -90 -18 -110 -24 -20 -5 -128 -17
-241 -27 -113 -9 -305 -17 -427 -17 -170 -1 -225 2 -235 12 -10 10 -13 68 -15
235 -1 122 -4 254 -7 292 -4 39 -8 135 -11 215 -2 80 -12 208 -21 285 -9 77
-20 181 -25 230 -4 50 -9 160 -11 246 -3 135 -6 159 -23 185 -11 16 -22 38
-25 49 -5 15 -18 22 -55 27 -28 3 -150 7 -273 7 l-223 1 -102 -69 c-56 -39
-117 -84 -135 -100 -18 -17 -37 -31 -42 -31 -5 0 -32 -22 -62 -48 -29 -27 -70
-56 -91 -66 -21 -10 -57 -30 -80 -46 -23 -16 -51 -38 -61 -49 -11 -12 -25 -21
-32 -21 -7 0 -17 -6 -21 -14 -4 -8 -35 -34 -68 -58 -33 -23 -73 -50 -88 -58
-16 -8 -39 -24 -53 -36 -13 -13 -36 -29 -51 -38 -16 -8 -45 -22 -65 -31 -34
-16 -37 -19 -33 -53 2 -21 7 -75 11 -122 4 -47 11 -94 17 -105 5 -10 11 -118
13 -243 1 -123 6 -305 9 -405 4 -100 9 -202 11 -227 3 -25 8 -94 10 -155 2
-60 11 -180 19 -265 8 -85 17 -189 20 -230 3 -41 7 -97 10 -125 3 -27 7 -72 9
-100 3 -27 7 -88 10 -135 3 -47 8 -128 11 -180 4 -52 11 -111 15 -130 5 -19
14 -86 20 -148 6 -62 20 -165 31 -230 16 -92 20 -161 20 -327 0 -115 5 -262
10 -325 6 -63 12 -135 13 -160 2 -25 6 -117 10 -205 4 -88 11 -254 16 -370 6
-115 12 -226 15 -245 3 -19 7 -98 11 -175 3 -77 5 -171 4 -210 0 -38 6 -137
15 -220 8 -82 20 -181 26 -220 6 -38 12 -106 15 -150 3 -54 10 -85 21 -97 9
-10 25 -18 35 -18 11 0 29 5 41 12 12 7 50 15 85 18 34 3 62 2 62 -2 0 -4 17
-11 38 -17 20 -5 72 -14 114 -21 74 -12 78 -14 96 -49 11 -22 28 -37 41 -39
15 -2 35 10 66 43 25 25 45 49 45 53 0 4 28 32 62 62 33 30 96 88 139 128 43
39 85 72 93 72 9 0 16 4 16 8 0 4 42 39 92 77 51 39 102 77 112 85 11 8 37 31
60 50 22 19 49 45 58 56 10 12 32 27 50 34 18 7 51 28 73 45 22 18 55 40 73
49 33 17 33 17 27 74 -4 31 -13 86 -20 122 -8 36 -26 137 -40 225 -15 88 -29
216 -31 285 -3 69 -9 242 -15 385 -6 143 -13 360 -15 481 -4 176 -2 222 8 226
7 3 60 0 118 -5 75 -6 124 -6 170 3 36 6 126 14 200 16 74 3 169 12 210 21 41
8 94 19 117 24 23 4 58 15 78 24 21 8 51 15 67 15 16 0 41 6 56 14 15 7 48 16
74 19 26 4 78 16 115 27 37 12 129 41 203 65 74 24 162 51 195 61 33 9 82 27
109 40 28 13 53 24 58 24 4 0 41 16 82 35 41 19 78 35 81 35 3 0 47 16 98 36
50 19 106 42 124 50 17 8 37 14 45 14 8 0 18 4 24 9 5 5 45 24 89 41 44 18 84
37 89 41 6 5 18 9 27 9 9 0 45 9 79 20 35 11 68 24 74 29 6 4 52 23 101 41 50
17 128 51 175 76 47 24 110 55 140 69 30 15 62 33 70 40 8 7 47 26 85 41 39
15 114 54 167 86 53 32 100 58 103 58 3 0 36 20 73 45 37 25 78 53 91 63 13 9
29 22 35 27 6 6 36 26 66 46 30 20 71 49 90 65 19 16 52 47 75 68 22 22 74 72
116 111 42 39 111 110 153 157 42 48 76 90 76 95 0 5 14 22 31 39 17 16 66 70
110 120 43 50 100 126 127 170 27 43 66 115 87 159 22 44 61 118 88 165 26 47
52 92 57 100 5 8 23 44 39 79 17 35 31 69 31 77 0 7 4 15 9 19 5 3 15 22 22
43 6 20 25 66 42 102 16 36 46 101 67 145 21 44 41 91 45 105 4 14 14 36 22
49 8 12 26 53 40 90 13 36 28 80 32 96 5 17 22 71 40 120 17 50 36 99 41 110
6 11 17 45 25 75 8 30 30 116 50 190 22 85 38 170 41 230 4 52 11 101 18 109
6 8 14 76 18 155 4 78 10 230 14 338 5 183 4 208 -20 345 -14 81 -33 183 -42
226 -8 44 -13 81 -10 84 2 3 16 -12 29 -34 14 -21 35 -49 47 -63 12 -14 31
-43 43 -65 11 -22 22 -44 23 -50 2 -5 8 -26 15 -45 6 -19 21 -57 31 -85 11
-27 24 -57 29 -65 5 -8 12 -22 15 -30 3 -8 17 -37 31 -65 14 -27 35 -81 45
-120 11 -38 24 -88 29 -110 5 -22 12 -53 14 -70 2 -16 9 -46 14 -65 5 -19 15
-55 21 -80 7 -25 16 -85 21 -135 5 -49 14 -117 19 -150 5 -33 14 -139 19 -235
6 -96 8 -263 6 -370 -3 -107 -10 -280 -16 -385 -5 -104 -12 -206 -15 -225 -3
-19 -9 -66 -13 -105 -4 -38 -15 -99 -25 -135 -9 -36 -23 -90 -32 -120 -8 -30
-37 -127 -65 -215 -28 -88 -64 -196 -81 -240 -16 -44 -42 -107 -56 -140 -15
-33 -35 -71 -44 -84 -10 -13 -18 -29 -18 -35 0 -6 -18 -37 -40 -69 -22 -31
-40 -59 -40 -62 0 -3 -16 -28 -36 -56 -32 -44 -35 -53 -26 -75 8 -16 20 -24
36 -24 18 0 28 9 41 38 10 20 30 55 45 77 15 22 45 72 65 110 21 39 42 77 46
85 4 8 35 85 68 170 34 85 61 161 61 168 0 7 9 33 20 56 10 24 24 63 29 87 6
24 30 114 55 200 25 86 52 197 60 245 8 49 17 114 20 144 3 30 11 181 16 335
6 154 11 380 11 502 1 122 -2 226 -4 231 -3 4 -7 33 -7 63 -1 30 -6 83 -12
119 -5 36 -13 94 -18 130 -5 36 -12 91 -15 123 -3 32 -8 63 -11 69 -4 6 -11
27 -15 47 -5 20 -16 70 -24 111 -8 41 -20 93 -26 115 -7 22 -18 54 -25 72 -8
17 -14 35 -14 40 0 6 -18 38 -40 72 -22 34 -40 66 -40 70 0 5 -19 58 -42 118
-23 59 -51 124 -63 143 -13 19 -32 44 -44 54 -11 11 -21 25 -21 32 0 7 -3 14
-8 16 -4 2 -32 41 -61 88 -30 47 -71 104 -93 127 -21 24 -38 46 -38 51 0 5
-11 21 -25 36 -19 20 -26 23 -32 12 -5 -8 -34 -17 -68 -21 -33 -5 -82 -9 -110
-10 -27 -1 -192 -6 -365 -10 -173 -5 -331 -9 -350 -9 l-34 -1 -3 85 c-1 47 -8
153 -14 235 -7 83 -13 175 -13 205 -1 41 2 54 12 52 8 -1 42 2 75 9 34 6 82
17 107 24 25 8 88 25 140 38 52 14 120 29 150 36 30 6 75 16 100 22 25 6 68
19 95 29 28 10 86 26 130 36 44 10 98 26 119 36 22 10 55 21 74 24 19 4 60 20
91 35 31 16 63 29 72 29 9 0 41 8 70 17 30 9 61 22 70 30 8 7 23 13 32 13 9 0
36 7 59 16 24 10 50 25 58 34 8 10 30 22 48 28 17 6 32 9 32 6 0 -3 12 4 26
15 15 12 34 21 43 21 9 0 44 9 78 20 34 10 70 24 80 29 10 5 39 17 65 27 26 9
53 23 59 30 6 8 20 14 31 14 10 0 36 9 56 20 20 11 55 27 77 35 22 9 63 28 90
43 28 14 84 49 125 77 41 28 115 81 163 118 49 37 93 67 98 67 5 0 41 44 81
98 39 53 88 117 109 142 21 25 67 82 103 126 35 45 73 97 83 115 10 19 32 52
50 74 17 22 48 63 67 90 20 28 51 79 70 115 18 36 59 114 90 175 31 60 56 114
56 119 0 5 7 17 15 26 8 9 26 36 40 61 14 24 39 73 56 109 17 36 48 101 69
145 21 44 64 159 95 255 31 96 76 236 100 310 24 74 55 180 68 235 14 55 30
129 36 165 6 36 15 121 20 190 6 69 13 178 17 243 3 64 9 119 13 121 3 2 60 7
125 10 65 4 138 11 162 16 24 6 117 15 206 20 90 6 215 15 278 20 63 6 207 15
320 20 113 6 280 14 371 19 91 5 186 7 212 4 43 -5 46 -4 53 21 3 14 3 33 0
42 -4 9 -2 114 4 233 5 119 12 313 15 431 4 118 7 373 9 565 1 193 8 449 14
570 6 121 16 315 22 430 5 116 15 253 20 305 6 52 17 149 25 215 9 83 14 254
15 550 1 237 2 632 1 879 -1 345 -5 480 -17 585 -9 75 -17 170 -19 211 -1 41
-5 104 -9 140 -4 36 -12 74 -17 85 -5 11 -12 81 -17 155 -4 74 -4 200 0 280 4
80 5 155 3 168 -4 15 -13 22 -28 22z m-76 -262 c4 -7 9 -35 13 -63 3 -27 8
-95 11 -150 3 -55 10 -136 16 -180 6 -44 18 -125 27 -180 8 -55 16 -129 17
-165 1 -36 7 -99 14 -140 7 -41 12 -145 12 -230 -1 -85 -2 -213 -3 -285 -1
-71 -2 -168 -1 -215 0 -47 1 -227 2 -400 0 -173 -1 -423 -3 -555 -1 -132 -8
-271 -14 -310 -6 -38 -16 -106 -22 -150 -6 -44 -13 -150 -15 -235 -2 -85 -9
-231 -15 -325 -5 -93 -12 -208 -15 -255 -3 -47 -7 -141 -9 -210 -3 -69 -8
-348 -12 -620 -3 -272 -7 -531 -9 -575 -1 -44 -6 -120 -10 -170 -4 -49 -12
-100 -16 -112 -8 -22 -15 -23 -101 -24 -51 0 -118 -5 -148 -10 -30 -5 -122
-12 -205 -15 -82 -3 -199 -9 -260 -15 -60 -6 -189 -14 -285 -19 -96 -5 -227
-14 -290 -20 -63 -7 -119 -14 -124 -17 -4 -3 -61 -9 -125 -14 -64 -5 -136 -11
-161 -14 -25 -3 -94 -9 -155 -15 -60 -5 -166 -12 -235 -15 -69 -3 -174 -10
-235 -15 -60 -5 -191 -16 -290 -24 -99 -8 -276 -15 -392 -16 -190 -1 -213 0
-213 15 0 9 9 33 20 54 10 21 35 53 54 71 19 19 48 61 64 94 16 34 43 91 60
129 17 37 29 67 26 67 -2 0 9 26 25 58 16 32 45 85 64 116 22 36 34 68 32 84
-2 16 11 53 31 90 19 35 43 76 53 90 10 15 35 53 55 84 20 31 36 61 36 66 0 6
10 23 23 39 13 15 43 64 67 108 24 44 56 96 72 115 15 19 28 42 28 51 0 9 7
22 15 29 8 7 15 16 15 21 0 5 17 31 38 58 20 28 48 72 62 98 13 26 42 75 62
108 21 33 38 66 38 74 0 7 11 26 25 43 14 16 25 36 25 43 0 7 16 37 35 66 19
30 35 57 35 61 0 3 23 44 50 89 28 45 50 87 50 92 0 5 13 26 29 46 15 20 52
83 80 141 29 58 59 112 67 121 8 8 14 20 14 26 0 6 7 16 16 23 8 8 22 27 30
44 8 17 22 45 31 61 9 17 19 32 24 35 4 3 28 39 53 80 25 41 46 79 46 86 0 6
7 17 15 24 9 7 32 43 52 79 21 36 67 113 103 171 37 58 77 125 91 150 13 25
38 63 55 85 17 22 33 45 35 50 2 6 35 69 73 140 38 72 84 154 103 183 18 29
51 87 73 130 22 42 50 93 61 112 11 19 53 91 91 160 39 69 81 141 94 162 13
20 51 89 85 155 34 65 84 159 111 208 27 50 53 97 58 105 5 8 30 51 56 95 25
44 60 105 76 135 17 30 35 61 42 69 6 8 41 66 78 130 37 64 112 205 168 315
55 109 108 210 118 225 10 14 27 45 37 69 12 28 21 39 26 30z m-9031 -292 c24
-1 25 -4 32 -88 3 -48 9 -91 12 -96 2 -4 10 -93 17 -198 6 -104 13 -265 14
-359 0 -93 5 -249 9 -345 4 -96 16 -249 27 -340 11 -91 23 -205 27 -255 3 -49
6 -133 6 -185 0 -52 -1 -133 -3 -180 -1 -47 0 -267 3 -490 3 -223 8 -418 11
-435 3 -16 7 -82 9 -145 3 -63 9 -178 15 -255 6 -77 17 -192 25 -255 8 -63 17
-144 21 -180 3 -36 7 -153 10 -260 2 -107 9 -283 15 -390 6 -107 13 -202 15
-210 3 -8 7 -71 9 -140 3 -69 12 -199 20 -290 9 -91 16 -201 16 -245 0 -44 5
-109 9 -145 5 -36 12 -89 16 -117 l8 -53 -79 2 c-44 1 -109 -2 -146 -6 l-66
-7 -6 53 c-3 29 -8 116 -11 193 -3 77 -10 187 -15 245 -5 58 -9 141 -9 185 1
44 -2 145 -5 225 -4 80 -9 163 -11 185 -3 22 -12 110 -20 195 -9 85 -16 162
-15 170 0 8 0 76 0 150 -1 74 -2 174 -4 222 -2 48 -7 91 -10 97 -4 6 1 22 10
36 11 16 12 25 4 25 -7 0 -9 8 -5 21 5 13 2 25 -6 30 -7 4 -17 36 -22 71 -4
35 -12 182 -17 328 -6 146 -12 308 -15 360 -3 52 -14 230 -25 395 -11 165 -22
338 -25 385 -3 47 -10 126 -16 175 -6 50 -15 113 -20 140 -5 28 -12 88 -14
135 -3 47 -7 220 -10 385 -2 165 -9 444 -14 620 -6 176 -14 386 -17 467 -5
120 -4 149 7 152 8 2 59 9 114 14 55 5 111 9 125 8z m2195 -310 l70 -1 8 -75
c4 -41 12 -109 18 -151 6 -42 12 -125 14 -185 1 -60 6 -154 9 -209 4 -55 9
-129 11 -165 3 -36 10 -127 15 -202 6 -76 11 -177 10 -225 0 -49 -2 -209 -4
-356 -2 -148 -7 -272 -12 -277 -6 -6 -66 -11 -134 -12 l-125 -3 -6 125 c-4 69
-11 146 -18 172 -6 26 -15 145 -21 265 -5 120 -12 313 -14 428 -3 116 -10 237
-15 270 -6 33 -12 134 -15 225 -2 91 -9 205 -16 255 -10 82 -9 91 7 103 10 7
27 11 38 8 11 -2 40 0 65 4 25 4 77 7 115 6z m-3355 -116 c4 0 12 -6 18 -13 6
-7 16 -51 21 -97 6 -47 11 -112 11 -145 -1 -33 4 -100 9 -150 6 -49 13 -105
15 -123 3 -18 8 -37 11 -42 3 -5 10 -47 15 -92 5 -46 17 -213 25 -373 8 -159
21 -362 30 -450 8 -88 19 -266 25 -395 6 -129 15 -284 20 -345 5 -60 14 -236
20 -390 6 -154 13 -325 16 -380 3 -55 9 -122 13 -150 4 -27 9 -95 10 -150 1
-55 4 -131 6 -170 2 -38 6 -128 9 -200 3 -71 8 -186 11 -255 3 -69 10 -152 15
-185 5 -33 11 -118 14 -190 2 -71 7 -143 10 -160 3 -16 6 -69 7 -117 2 -48 1
-90 -2 -92 -3 -3 -92 -8 -199 -11 -107 -4 -206 -6 -219 -6 -14 1 -26 2 -27 4
-2 2 -6 113 -9 247 -3 135 -8 317 -10 405 -3 88 -7 183 -9 210 -3 28 -7 167
-10 310 -4 143 -9 287 -12 320 -3 33 -7 139 -8 235 -2 96 -6 182 -9 190 -3 8
-9 58 -13 110 -3 52 -8 307 -9 565 -1 259 -7 583 -13 720 -6 138 -18 295 -26
350 -9 55 -20 183 -27 285 -6 102 -12 262 -14 355 -1 94 -8 194 -14 224 -6 29
-11 73 -11 97 l0 42 147 1 c81 1 149 4 152 6 2 3 8 5 11 5z m2183 -897 c40 -3
73 -6 74 -7 2 -2 7 -58 12 -127 5 -68 15 -257 21 -419 6 -162 15 -358 21 -435
5 -77 12 -241 15 -365 3 -124 8 -228 10 -231 2 -3 5 -57 8 -120 3 -63 8 -204
11 -314 3 -110 7 -243 10 -295 3 -52 7 -139 10 -192 3 -53 10 -123 15 -155 6
-32 10 -64 10 -70 0 -10 -31 -13 -122 -13 -68 0 -140 5 -160 11 -26 7 -39 17
-43 32 -2 12 -9 92 -15 177 -6 85 -13 218 -15 295 -3 77 -7 217 -10 310 -3 94
-10 199 -14 235 -5 36 -8 101 -6 145 2 48 -1 85 -8 93 -6 7 -14 90 -19 190 -4
97 -12 267 -18 377 -6 110 -15 220 -21 245 -6 25 -11 81 -12 125 0 44 0 132 0
195 1 63 1 157 0 209 l-2 93 83 3 c46 2 86 5 88 8 3 3 38 3 77 0z m2542 -306
c33 -3 112 -12 175 -20 63 -8 117 -13 119 -11 2 2 11 -1 20 -5 9 -5 50 -12 91
-16 41 -4 78 -9 83 -12 4 -2 61 -6 127 -8 66 -2 125 -7 131 -11 6 -3 57 -8
113 -10 55 -2 133 -8 171 -14 39 -5 86 -14 105 -19 19 -5 67 -22 105 -39 39
-16 108 -47 155 -68 47 -21 123 -61 170 -88 47 -27 114 -64 150 -84 36 -19 74
-40 85 -46 11 -7 72 -46 135 -87 63 -42 124 -86 135 -99 11 -12 29 -26 40 -31
11 -5 57 -35 101 -67 45 -31 130 -99 190 -151 60 -51 163 -146 229 -210 66
-64 143 -133 171 -155 29 -21 69 -61 90 -88 22 -28 53 -67 69 -87 17 -20 50
-66 75 -100 25 -35 64 -88 88 -117 23 -30 42 -58 42 -63 0 -5 21 -30 47 -55
l47 -46 -28 -52 c-15 -29 -36 -67 -45 -84 -10 -16 -22 -41 -26 -55 -4 -13 -34
-64 -66 -112 -33 -49 -71 -112 -86 -140 -15 -29 -37 -66 -50 -83 -13 -17 -23
-38 -23 -46 0 -9 -7 -21 -16 -29 -9 -7 -29 -38 -45 -68 -16 -31 -43 -81 -60
-111 -16 -30 -38 -64 -47 -75 -9 -11 -23 -30 -29 -42 -7 -13 -13 -29 -13 -37
0 -7 -7 -19 -16 -27 -9 -7 -25 -32 -36 -56 -11 -24 -24 -43 -28 -43 -4 0 -15
-12 -25 -26 -9 -15 -18 -32 -19 -38 -1 -6 -11 -25 -23 -41 -11 -17 -30 -52
-42 -80 -12 -27 -25 -55 -29 -61 -4 -7 -23 -36 -43 -65 -20 -30 -48 -81 -64
-114 -16 -33 -31 -69 -35 -80 -4 -11 -17 -42 -31 -70 -13 -27 -45 -79 -71
-115 -25 -36 -50 -78 -54 -95 -4 -16 -18 -46 -31 -65 -12 -19 -23 -40 -23 -47
0 -7 -6 -16 -13 -20 -6 -4 -18 -20 -25 -34 -8 -14 -12 -39 -10 -55 l3 -29 140
0 c77 0 190 1 250 3 61 2 180 7 265 13 85 5 234 14 330 20 96 5 267 16 380 23
113 8 207 11 210 9 3 -3 4 -48 4 -101 -1 -53 -6 -164 -12 -247 -6 -82 -16
-181 -22 -220 -6 -38 -15 -74 -21 -81 -5 -6 -12 -33 -15 -60 -4 -27 -13 -59
-20 -71 -8 -12 -14 -29 -14 -38 0 -9 -12 -53 -26 -98 -15 -45 -45 -134 -66
-197 -22 -63 -48 -144 -58 -180 -10 -36 -27 -85 -37 -110 -9 -25 -33 -72 -51
-105 -19 -33 -49 -92 -67 -131 -18 -39 -52 -99 -74 -134 -23 -35 -41 -70 -41
-79 0 -9 -7 -25 -15 -35 -8 -11 -15 -28 -15 -38 0 -10 -4 -18 -8 -18 -5 0 -17
-19 -28 -42 -10 -24 -32 -65 -49 -93 -16 -27 -38 -61 -48 -75 -10 -14 -41 -61
-70 -104 -29 -44 -57 -89 -64 -100 -7 -11 -33 -44 -59 -73 -25 -29 -60 -72
-77 -96 -17 -23 -33 -44 -36 -47 -4 -3 -21 -24 -39 -46 -17 -23 -32 -45 -32
-49 0 -4 -17 -28 -37 -52 -21 -25 -65 -72 -99 -106 -33 -34 -96 -88 -140 -119
-43 -32 -101 -72 -127 -90 -27 -18 -65 -43 -85 -56 -21 -12 -48 -28 -62 -34
-14 -6 -48 -21 -75 -34 -28 -12 -85 -38 -128 -58 -43 -19 -92 -40 -110 -45
-18 -5 -66 -24 -107 -41 -41 -17 -93 -39 -115 -49 -22 -11 -59 -26 -82 -35
-24 -9 -60 -22 -80 -30 -21 -8 -76 -29 -123 -46 -47 -18 -152 -54 -234 -81
-81 -27 -191 -61 -245 -75 -53 -14 -115 -32 -137 -39 -23 -8 -59 -16 -81 -19
-22 -2 -62 -11 -89 -19 -27 -8 -69 -20 -94 -26 -25 -6 -97 -25 -160 -41 -63
-16 -139 -32 -168 -35 -29 -3 -78 -14 -110 -24 -31 -10 -86 -28 -122 -38 -36
-11 -101 -30 -145 -43 -44 -12 -102 -28 -130 -36 -27 -7 -70 -16 -95 -19 -25
-4 -69 -9 -99 -11 l-54 -4 21 23 c12 13 22 29 22 35 0 7 -5 12 -11 12 -6 0
-18 -9 -27 -19 -10 -10 -39 -26 -66 -35 -43 -14 -87 -15 -310 -10 -144 3 -294
10 -333 15 -40 5 -112 22 -160 38 -49 16 -110 32 -137 35 -27 3 -54 10 -61 16
-6 5 -43 16 -81 24 -39 8 -90 21 -115 29 -24 8 -82 26 -129 40 -47 14 -98 29
-114 33 -16 4 -41 13 -55 20 -14 8 -32 14 -40 14 -8 0 -22 6 -30 13 -9 8 -45
24 -81 36 -36 13 -151 65 -257 116 -105 51 -213 108 -239 125 -26 18 -110 92
-188 164 -77 72 -152 144 -166 161 -14 16 -51 58 -82 94 -32 36 -85 105 -118
153 -33 49 -60 91 -60 94 0 3 -13 23 -28 43 -16 20 -36 51 -45 70 -10 19 -17
38 -17 43 0 4 -15 30 -33 56 -18 26 -48 76 -67 112 -18 36 -37 72 -41 80 -4 8
-30 53 -57 100 -28 47 -61 108 -75 135 -13 28 -47 97 -76 153 -29 57 -79 161
-112 230 -33 70 -64 135 -69 144 -6 10 -21 51 -34 90 -14 40 -28 91 -32 113
-3 22 -10 47 -15 56 -5 9 -13 61 -18 115 -6 55 -18 146 -27 204 -8 58 -18 123
-21 145 -3 22 -9 44 -14 50 -5 5 -9 28 -9 51 0 24 -4 45 -9 49 -6 3 -13 27
-16 53 -3 26 -11 56 -17 67 -6 11 -13 72 -15 135 -2 63 -8 185 -12 270 -5 85
-8 184 -6 220 2 36 7 94 13 130 6 36 13 73 17 82 4 9 16 18 28 20 21 3 22 7
23 153 1 83 4 157 7 165 2 8 13 49 22 90 10 41 26 86 35 100 9 14 40 61 68
105 27 44 53 91 57 105 4 13 15 36 25 50 9 14 35 52 57 85 22 33 48 77 56 97
8 20 34 65 57 99 23 34 50 79 61 98 11 20 33 54 50 76 16 22 40 56 53 75 13
19 35 46 50 59 14 14 28 23 30 20 2 -2 7 -98 10 -214 3 -115 13 -268 22 -340
9 -71 16 -139 16 -150 0 -11 4 -99 9 -195 5 -96 12 -314 15 -485 4 -170 5
-360 4 -421 -1 -93 1 -114 17 -132 18 -22 18 -22 93 -5 51 11 120 17 212 17
126 0 137 2 146 20 5 13 2 50 -9 105 -10 47 -23 176 -28 286 -6 110 -16 236
-21 280 -5 44 -17 186 -25 315 -9 129 -20 314 -26 410 -6 96 -12 247 -15 335
-2 88 -8 228 -15 310 -6 83 -15 169 -20 192 -8 40 -6 46 48 139 44 75 80 118
158 193 55 53 123 120 152 149 29 29 71 68 93 87 23 19 46 33 50 30 5 -3 11
-24 14 -48 3 -23 10 -134 16 -247 6 -113 12 -299 14 -415 2 -115 10 -277 17
-360 6 -82 16 -155 21 -161 4 -6 57 -17 116 -24 59 -6 148 -9 197 -7 50 3 103
6 118 6 l29 1 -5 93 c-2 50 -9 173 -16 272 -6 99 -15 259 -21 355 -5 96 -12
195 -14 220 -3 25 -10 166 -16 314 l-11 269 35 36 c20 20 36 42 36 48 0 7 9
14 19 18 11 3 37 19 58 35 21 16 43 34 49 39 6 5 24 16 40 24 16 8 49 33 74
55 25 21 59 47 75 56 17 9 44 25 60 35 17 10 57 28 90 40 33 12 94 40 135 62
42 21 82 39 89 39 10 0 11 -13 6 -58 -5 -43 -3 -61 7 -69 9 -7 56 -7 148 -1
74 5 161 6 193 3 42 -4 58 -3 62 7 2 7 6 76 7 153 3 134 4 140 26 151 12 6 33
21 46 33 12 11 27 21 32 21 5 0 33 16 63 35 29 19 59 35 68 35 8 0 43 14 78
31 35 17 70 32 77 33 7 2 26 8 41 14 16 7 37 12 47 12 11 0 24 -8 29 -18 6
-11 13 -32 16 -48 4 -16 11 -67 17 -114 6 -49 10 -226 9 -420 -1 -184 -1 -386
-2 -448 0 -62 2 -116 5 -120 2 -4 9 -77 15 -162 6 -85 13 -243 17 -350 5 -170
8 -197 24 -214 16 -17 22 -17 49 -7 16 7 87 18 158 24 126 12 128 12 129 37 1
14 5 147 8 296 3 150 9 279 12 288 3 8 1 71 -5 138 -7 68 -14 191 -16 273 -2
83 -8 220 -14 305 -5 85 -7 158 -5 162 3 5 6 96 7 203 2 150 -1 195 -10 195
-7 0 -13 9 -13 19 0 18 -7 19 -122 14 -68 -3 -121 -3 -118 0 3 3 32 12 65 21
37 10 116 18 204 21 78 2 146 7 149 10 4 4 34 4 67 2z m-312 -148 c13 -12 19
-31 20 -65 0 -27 -1 -98 -3 -159 -1 -60 3 -225 11 -365 7 -140 13 -388 13
-550 -1 -162 -3 -362 -7 -445 l-5 -150 -88 -13 c-49 -7 -94 -10 -100 -8 -7 3
-14 41 -17 93 -3 48 -10 131 -16 183 -5 52 -12 131 -16 175 -3 44 -10 134 -15
200 -5 71 -5 239 0 410 5 173 5 346 -1 430 -5 77 -13 156 -18 175 -4 20 -7 46
-6 58 1 12 4 25 8 28 3 4 55 10 114 13 93 6 111 4 126 -10z m954 -8214 c236 0
315 -3 324 -13 7 -6 26 -49 42 -95 16 -45 38 -113 48 -152 10 -38 19 -83 19
-100 0 -16 7 -38 15 -48 8 -11 14 -42 14 -72 0 -30 4 -62 9 -72 5 -10 12 -58
16 -108 4 -49 9 -133 11 -185 3 -52 0 -162 -5 -245 -6 -82 -13 -186 -16 -230
-2 -44 -9 -102 -14 -130 -6 -27 -17 -95 -25 -149 -8 -55 -19 -114 -24 -130 -6
-17 -17 -62 -27 -101 -9 -38 -22 -83 -30 -100 -7 -16 -20 -48 -29 -70 -10 -22
-30 -86 -45 -142 -15 -56 -31 -107 -35 -112 -3 -6 -8 -19 -10 -29 -2 -10 -30
-75 -63 -143 -32 -68 -62 -135 -66 -147 -5 -13 -25 -59 -47 -103 -21 -43 -39
-82 -39 -85 0 -3 -7 -22 -16 -42 -8 -21 -32 -73 -52 -116 -20 -44 -50 -100
-67 -126 -16 -25 -41 -67 -55 -93 -13 -26 -31 -47 -39 -47 -7 0 -29 9 -47 21
-19 11 -34 25 -34 30 0 5 -5 9 -10 9 -6 0 -33 16 -61 35 -28 19 -55 35 -60 35
-5 0 -38 18 -74 40 -36 22 -65 36 -65 32 0 -4 -4 -2 -8 4 -4 7 -23 19 -42 28
-19 8 -44 21 -55 28 -11 7 -48 32 -82 56 -34 23 -88 55 -120 70 -32 15 -71 36
-88 47 -16 11 -32 23 -35 27 -3 4 -27 19 -53 32 -26 14 -47 23 -47 19 0 -3 -6
0 -13 6 -8 6 -40 24 -73 41 -32 16 -66 30 -74 30 -8 0 -26 12 -39 25 -13 14
-28 25 -33 25 -5 0 -24 10 -41 23 -18 12 -46 30 -63 39 -17 9 -49 20 -70 23
-22 4 -43 13 -49 19 -5 7 -41 24 -78 39 -37 14 -88 37 -112 52 -25 14 -45 32
-45 39 0 7 14 47 31 87 17 41 49 111 70 156 22 45 56 119 77 165 22 46 46 106
55 133 9 28 30 111 47 185 17 74 37 203 45 285 8 83 20 184 25 225 6 41 12
107 15 145 2 39 7 117 11 175 4 58 8 130 9 160 2 30 3 128 4 216 1 89 -1 188
-4 221 l-7 60 43 7 c23 4 79 4 123 0 48 -4 104 -2 136 5 30 6 87 13 125 16 39
3 117 10 175 15 58 6 123 15 145 20 22 6 90 13 150 16 61 3 128 9 150 13 22 3
180 6 352 6z m-5227 -1827 c58 1 120 -2 139 -6 l34 -7 -34 -27 c-19 -15 -54
-42 -79 -60 -25 -19 -79 -56 -120 -82 -41 -27 -94 -65 -116 -85 -23 -20 -57
-46 -75 -59 -19 -12 -74 -51 -124 -87 -49 -36 -108 -74 -130 -85 -23 -11 -56
-34 -74 -50 -18 -17 -45 -37 -61 -45 -16 -8 -35 -12 -43 -9 -8 3 -95 8 -193
12 l-179 7 53 40 c29 22 78 61 108 86 30 26 96 71 147 100 50 29 111 72 134
96 24 24 59 50 79 58 20 8 54 29 77 47 23 18 44 36 45 40 2 5 9 8 16 8 7 0 28
12 47 26 19 14 52 35 74 47 23 12 68 24 105 27 36 3 112 7 170 8z m236 -68 c7
0 13 -44 18 -132 4 -73 9 -151 11 -173 2 -22 6 -79 9 -127 4 -48 9 -93 11
-100 2 -7 11 -67 18 -133 8 -66 15 -145 16 -175 1 -30 4 -73 7 -95 3 -22 7
-179 10 -349 l5 -308 -28 5 c-15 3 -48 10 -73 17 -25 6 -52 17 -60 25 -9 8
-25 12 -38 8 -12 -3 -22 -9 -22 -13 0 -4 -21 -29 -47 -55 -27 -26 -65 -56 -85
-66 -21 -10 -42 -19 -49 -19 -6 0 -64 -26 -130 -57 l-119 -58 3 -35 c2 -30 7
-36 36 -44 30 -9 35 -7 53 18 11 15 43 39 72 53 28 14 51 25 51 24 0 -1 31 10
69 23 38 14 78 34 90 44 12 10 40 30 63 46 l41 27 84 -17 c45 -10 89 -22 96
-27 10 -8 13 -67 11 -276 -1 -146 1 -360 6 -476 4 -115 9 -213 11 -217 2 -3 7
-149 10 -324 3 -175 9 -325 13 -334 5 -8 9 -63 10 -122 2 -60 -1 -108 -6 -108
-4 0 -36 5 -71 10 l-63 11 -76 -62 c-42 -33 -88 -65 -102 -71 -14 -5 -39 -16
-55 -24 -16 -8 -36 -14 -45 -14 -9 0 -61 -23 -116 -51 -55 -28 -110 -59 -121
-70 -17 -16 -20 -27 -15 -47 5 -19 15 -28 33 -30 17 -2 37 7 60 26 18 16 52
41 75 55 23 15 63 32 90 38 26 7 75 26 108 43 33 16 69 38 80 47 11 9 36 26
57 37 20 12 66 24 105 27 l68 7 2 -208 c2 -115 8 -231 13 -259 6 -27 12 -151
15 -275 2 -124 7 -277 10 -340 4 -63 11 -142 16 -175 5 -33 14 -98 19 -144 6
-47 15 -101 20 -120 5 -20 10 -52 10 -71 0 -19 10 -55 21 -80 l20 -45 -26 -22
c-14 -13 -33 -23 -40 -23 -8 0 -61 -39 -117 -86 -57 -48 -136 -108 -176 -135
-39 -28 -94 -69 -121 -92 -26 -23 -63 -55 -82 -71 -19 -16 -86 -71 -149 -121
-63 -51 -124 -102 -134 -114 -11 -11 -22 -21 -26 -21 -4 0 -12 36 -19 80 -7
44 -10 84 -8 88 3 4 -3 111 -13 237 -10 127 -21 291 -24 365 -4 74 -10 239
-15 365 -5 127 -9 239 -9 250 1 11 -2 99 -6 195 -3 96 -9 245 -12 330 -3 85
-7 200 -10 255 -2 55 -6 123 -9 150 -3 28 -7 100 -10 160 -3 61 -7 155 -11
210 -3 55 -7 116 -9 135 -2 19 -6 69 -10 110 -4 41 -8 93 -10 115 -2 22 -6 76
-10 120 -3 44 -10 136 -14 205 -5 69 -9 134 -9 145 0 11 -3 63 -6 115 -4 52
-11 122 -17 155 -5 33 -14 128 -20 210 -6 83 -11 155 -11 160 0 6 3 170 6 365
6 284 4 378 -8 470 -8 63 -20 140 -26 170 -6 30 -10 101 -8 157 1 90 4 105 22
121 12 10 44 35 73 55 28 20 75 48 105 63 29 15 57 32 63 39 5 7 57 51 115 97
58 46 128 100 156 120 29 20 65 43 80 51 16 8 72 47 124 86 52 39 99 71 106
71z m3169 -520 c6 0 46 -18 90 -40 44 -22 85 -40 92 -40 6 0 42 -14 80 -31 37
-16 84 -38 103 -49 19 -10 53 -28 75 -40 22 -13 112 -60 201 -105 88 -45 173
-90 190 -101 16 -10 45 -31 65 -47 20 -16 65 -46 100 -67 35 -21 125 -73 199
-115 74 -41 155 -87 180 -101 25 -14 68 -41 95 -60 28 -18 63 -45 79 -58 l29
-24 -43 -69 c-24 -37 -47 -69 -52 -71 -4 -2 -8 -9 -8 -15 0 -7 -28 -43 -61
-82 -34 -38 -88 -99 -120 -135 -32 -36 -71 -83 -87 -105 -16 -22 -110 -117
-208 -212 -99 -94 -204 -191 -234 -215 -30 -24 -98 -71 -150 -104 -52 -34
-115 -73 -140 -87 -25 -14 -61 -34 -80 -44 -19 -10 -39 -21 -45 -26 -5 -4 -91
-48 -190 -99 -99 -50 -191 -96 -204 -102 -14 -6 -54 -26 -89 -43 -36 -18 -73
-33 -83 -33 -10 0 -21 -4 -24 -10 -3 -6 -14 -10 -24 -10 -9 0 -39 -11 -67 -24
-27 -13 -87 -36 -134 -50 -47 -14 -114 -40 -150 -58 -36 -17 -83 -39 -105 -49
-22 -10 -62 -27 -89 -39 -27 -11 -57 -20 -67 -20 -10 0 -20 -4 -24 -9 -3 -5
-29 -17 -57 -27 -29 -9 -74 -28 -99 -41 -26 -12 -52 -23 -58 -23 -6 0 -34 -11
-63 -24 -29 -13 -78 -32 -108 -41 -30 -9 -91 -27 -135 -40 -44 -13 -111 -34
-150 -48 -38 -14 -99 -34 -135 -45 -36 -12 -159 -44 -275 -73 -183 -44 -230
-52 -365 -60 -85 -4 -202 -13 -260 -19 -61 -6 -147 -7 -205 -3 l-100 8 -7 81
c-3 45 -11 99 -16 120 -6 21 -10 46 -11 54 0 8 -2 184 -5 390 -3 206 -8 461
-11 565 -3 105 -8 224 -11 265 -3 41 -4 125 -3 185 0 61 1 126 2 145 l1 35
216 0 c118 1 278 6 355 13 77 6 169 14 205 16 36 3 103 12 150 21 47 9 144 31
215 50 72 18 162 45 200 60 39 15 113 39 165 55 52 15 127 38 165 51 39 12
126 41 195 65 69 23 150 52 180 64 30 12 78 32 108 46 29 13 55 24 59 24 3 0
56 25 117 56 61 31 127 65 146 77 19 11 61 42 92 69 31 27 87 90 124 141 37
51 74 102 83 114 9 12 42 56 74 98 32 41 64 85 70 98 7 12 19 32 27 45 8 12
19 22 25 22z m-4441 -71 c50 0 143 -5 208 -11 l116 -12 8 -65 c4 -36 7 -70 5
-74 -1 -5 5 -36 13 -70 9 -34 20 -93 25 -132 6 -38 15 -99 22 -135 6 -36 12
-153 12 -260 0 -107 -1 -231 -2 -275 -1 -44 -1 -141 0 -215 0 -74 10 -223 20
-330 11 -107 24 -262 30 -345 6 -82 12 -188 14 -235 2 -47 6 -119 10 -160 3
-41 10 -124 16 -185 5 -60 17 -171 25 -246 8 -75 14 -166 13 -202 -1 -35 1
-69 4 -74 3 -5 7 -88 8 -184 1 -95 6 -214 10 -264 4 -49 11 -245 14 -435 4
-189 8 -347 10 -350 2 -3 5 -96 6 -205 1 -110 8 -279 15 -375 7 -96 18 -233
24 -305 6 -71 11 -146 10 -165 -1 -19 2 -52 5 -73 7 -32 5 -37 -11 -37 -11 0
-35 5 -54 10 -19 6 -75 18 -125 27 -49 9 -115 15 -146 14 -36 -1 -60 3 -66 11
-5 7 -18 72 -27 143 -10 72 -22 159 -27 195 -5 36 -11 182 -14 325 -3 143 -10
285 -15 315 -6 30 -15 165 -21 300 -5 135 -12 295 -15 355 -2 61 -9 147 -14
191 -6 45 -14 221 -19 392 -6 198 -15 340 -25 393 -8 46 -22 136 -31 199 -8
63 -19 167 -25 230 -5 63 -17 232 -25 375 -9 143 -18 280 -20 305 -2 25 -6 70
-9 100 -4 30 -8 66 -11 80 -2 14 -7 97 -10 185 -3 88 -8 192 -12 230 -3 39 -7
117 -10 175 -2 58 -3 233 -3 390 1 157 -4 325 -9 375 -8 67 -8 91 1 96 7 4 53
8 102 8z"/>
<g>
<path d="M8710 15659 c-8 -1 -24 -4 -35 -6 -11 -3 -28 -12 -39 -22 -10 -9 -27
-35 -37 -59 -11 -24 -19 -54 -19 -67 0 -12 8 -33 18 -45 15 -19 29 -23 79 -24
47 -1 66 3 82 18 12 11 26 37 33 58 10 34 9 45 -7 76 -11 20 -28 45 -40 54
-11 10 -27 17 -35 17z"/>
</g>
<g>
<path d="M5485 15560 c-6 0 -19 -8 -28 -18 -11 -12 -17 -36 -17 -63 0 -25 4
-80 10 -124 5 -44 12 -100 15 -125 3 -25 9 -117 15 -205 5 -88 14 -214 20
-280 7 -66 13 -205 15 -310 2 -104 6 -230 11 -280 4 -49 7 -106 6 -125 0 -19
-1 -51 -3 -70 -1 -19 1 -192 3 -385 3 -201 10 -361 16 -376 10 -25 11 -25 84
-18 40 5 141 9 223 11 l150 3 -2 115 c-1 63 -9 154 -17 202 -8 48 -20 158 -26
245 -6 87 -15 191 -20 231 -6 40 -10 128 -10 195 0 67 -4 149 -10 182 -5 33
-12 161 -16 285 -4 124 -5 286 -4 360 1 74 3 220 4 325 1 162 -1 192 -15 206
-13 13 -27 15 -75 8 -32 -4 -111 -11 -174 -15 -100 -6 -117 -4 -129 10 -7 9
-19 16 -26 16z m326 -97 c4 -2 10 -38 13 -80 4 -43 9 -230 11 -416 2 -185 7
-363 10 -395 3 -31 11 -169 16 -307 5 -137 14 -299 19 -360 5 -60 11 -135 14
-165 3 -30 9 -82 12 -115 3 -33 12 -87 20 -120 7 -33 14 -97 14 -141 l0 -82
-31 -4 c-17 -3 -88 -6 -158 -7 l-126 -2 -10 33 c-6 18 -7 51 -4 73 4 22 5 117
3 210 -3 94 -7 260 -9 370 -2 110 -6 272 -9 360 -3 88 -8 230 -12 315 -3 85
-9 200 -13 255 -4 55 -18 201 -30 324 -14 139 -19 227 -13 233 5 5 69 12 143
16 74 4 137 7 140 5z"/>
</g>
<g>
<path d="M5074 15264 c-21 3 -49 0 -62 -6 -13 -6 -32 -28 -41 -47 -10 -20 -21
-48 -25 -64 -4 -18 -1 -36 9 -51 9 -14 30 -29 47 -35 17 -6 45 -11 62 -11 17
0 46 9 64 20 18 11 40 35 49 54 14 29 14 39 3 66 -7 17 -25 39 -40 50 -15 11
-45 22 -66 24z"/>
</g>
<g>
<path d="M7200 14850 c-10 0 -22 -5 -26 -12 -4 -7 -7 -28 -6 -48 2 -19 9 -60
16 -90 8 -30 21 -109 30 -175 9 -66 23 -156 32 -200 9 -44 20 -100 25 -125 5
-25 14 -74 20 -110 5 -36 16 -105 24 -155 8 -49 23 -137 34 -195 11 -58 25
-127 31 -155 6 -27 18 -79 26 -115 7 -36 19 -100 24 -143 6 -43 18 -97 26
-120 8 -23 22 -73 30 -112 9 -38 21 -97 28 -129 12 -54 12 -60 -5 -77 -11 -11
-23 -19 -28 -19 -5 0 -45 -27 -90 -60 -44 -32 -102 -70 -128 -84 -26 -14 -56
-32 -66 -39 -13 -11 -15 -22 -11 -46 5 -26 11 -31 34 -31 15 0 42 10 61 23 19
13 72 50 119 83 47 33 101 68 121 77 20 9 51 33 68 52 17 20 31 43 31 52 0 9
-15 69 -34 132 -18 64 -39 139 -46 166 -6 28 -20 91 -30 140 -10 50 -23 124
-29 165 -6 41 -16 98 -23 125 -6 28 -15 54 -20 60 -4 5 -8 20 -8 33 0 13 -9
61 -19 106 -11 44 -20 98 -19 118 0 20 -3 41 -6 47 -4 5 -11 45 -16 88 -6 43
-17 119 -26 168 -9 50 -24 122 -34 160 -10 39 -21 106 -25 150 -3 44 -13 122
-22 173 -8 51 -22 100 -30 108 -8 8 -23 14 -33 14z"/>
</g>
<g>
<path d="M8342 11810 c-32 0 -61 -2 -63 -4 -2 -3 -92 -7 -199 -10 -107 -3
-243 -10 -301 -15 -59 -6 -142 -16 -185 -22 -44 -6 -126 -15 -184 -20 -58 -4
-163 -15 -235 -23 -71 -9 -161 -20 -200 -25 -38 -6 -106 -12 -150 -14 -44 -3
-156 -14 -250 -26 -93 -12 -208 -27 -255 -33 -79 -9 -87 -13 -102 -38 -14 -25
-14 -31 -2 -47 7 -10 14 -14 14 -10 0 4 9 3 21 -3 12 -7 25 -8 32 -2 7 5 33
10 58 11 25 1 73 7 105 12 32 5 113 16 179 24 66 9 145 18 175 21 30 3 118 14
195 25 77 11 165 22 195 24 30 2 106 6 168 10 62 3 138 10 170 16 31 5 104 13
162 19 58 5 155 12 215 15 61 3 192 6 292 7 155 1 183 4 189 17 4 9 6 20 5 25
-1 4 3 14 10 22 6 8 9 21 5 29 -4 11 -21 15 -64 15z"/>
</g>
</g>
<g>
<path d="M7208 19155 c-20 1 -43 -2 -50 -6 -7 -5 -34 -9 -59 -9 -31 0 -55 -7
-70 -19 -21 -17 -22 -22 -11 -45 11 -26 15 -27 60 -20 26 3 52 11 59 16 7 5
51 6 105 2 80 -5 96 -4 107 10 12 14 11 19 -3 35 -9 10 -36 22 -59 27 -23 4
-59 8 -79 9z"/>
</g>
<g>
<path d="M6280 19113 c-27 4 -61 1 -85 -8 -22 -7 -64 -14 -93 -14 -32 -1 -68
-9 -92 -21 -21 -11 -42 -29 -45 -41 -4 -11 -2 -26 4 -32 8 -8 24 -7 58 5 27 9
70 19 96 23 26 3 88 6 138 6 64 0 99 4 125 16 25 13 34 23 32 38 -2 16 -11 20
-48 21 -25 1 -65 4 -90 7z"/>
</g>
<g>
<path d="M8146 19050 c-39 0 -69 -6 -84 -16 -12 -8 -22 -21 -22 -29 0 -8 5
-17 12 -21 6 -4 66 -8 132 -8 117 -1 123 -2 186 -35 36 -18 85 -44 110 -57 24
-13 52 -24 61 -24 9 0 24 11 33 25 10 16 14 34 11 46 -5 16 -12 19 -32 14 -18
-4 -40 5 -91 38 -37 24 -88 49 -114 56 -26 6 -62 11 -82 11 -19 0 -37 -6 -40
-12 -5 -10 -7 -10 -12 0 -4 8 -28 12 -68 12z"/>
</g>
<g>
<path d="M5438 18959 c-13 0 -48 -7 -78 -15 -30 -8 -74 -22 -99 -30 -24 -8
-56 -24 -72 -34 -15 -11 -33 -20 -41 -20 -7 0 -27 -9 -45 -20 -18 -10 -39 -33
-48 -51 -12 -22 -14 -34 -6 -42 8 -8 24 -4 56 14 25 13 58 31 73 39 15 9 38
23 52 32 14 9 42 20 63 23 20 4 40 11 43 16 3 5 15 9 28 9 13 0 31 9 41 20 10
11 26 20 37 20 11 0 18 7 18 20 0 14 -6 20 -22 19z"/>
</g>
<g>
<path d="M9326 18700 c-7 0 -20 -8 -29 -18 -10 -10 -17 -24 -17 -31 0 -7 17
-43 37 -79 21 -37 55 -91 77 -119 21 -29 47 -53 56 -53 9 0 24 8 33 18 10 10
17 25 17 33 0 8 -27 43 -59 77 -37 39 -62 75 -66 95 -4 18 -13 42 -21 55 -8
12 -20 22 -28 22z"/>
</g>
<g>
<path d="M4717 18479 c-12 0 -29 -3 -37 -6 -8 -2 -28 -11 -45 -18 -16 -7 -42
-16 -56 -20 -15 -4 -44 -24 -65 -46 -21 -21 -43 -39 -49 -39 -6 0 -36 -22 -66
-49 -43 -39 -51 -52 -42 -62 10 -10 21 -10 52 -1 21 7 52 25 69 40 16 15 44
35 63 44 19 10 48 26 64 35 17 10 41 26 55 36 13 9 39 17 58 17 19 0 35 6 38
14 3 8 1 24 -6 35 -6 12 -20 21 -33 20z"/>
</g>
<g>
<path d="M10020 18281 c-8 3 -25 3 -37 1 -12 -2 -23 -9 -26 -15 -2 -7 -1 -22
4 -34 5 -15 45 -40 123 -78 64 -31 124 -55 134 -53 11 2 18 14 20 36 3 24 -3
38 -20 52 -13 11 -26 19 -30 20 -4 0 -40 15 -80 33 -40 19 -80 36 -88 38z"/>
</g>
<g>
<path d="M3921 17945 c-27 1 -40 -10 -94 -72 -34 -40 -65 -73 -69 -73 -3 0
-23 -32 -42 -71 -20 -40 -36 -82 -36 -95 0 -12 4 -26 10 -29 5 -3 20 2 33 11
13 10 34 40 47 68 14 28 62 94 108 146 45 52 81 99 79 105 -2 5 -18 10 -36 10z"/>
</g>
<g>
<path d="M10664 17796 c-16 1 -38 -2 -47 -7 -9 -6 -17 -16 -17 -24 0 -8 21
-25 46 -37 33 -15 56 -36 79 -72 18 -28 45 -61 60 -73 20 -15 33 -19 49 -14
12 5 22 19 24 33 2 18 -7 36 -32 62 -20 20 -38 47 -42 61 -4 17 -21 33 -48 47
-22 12 -55 22 -72 24z"/>
</g>
<g>
<path d="M10997 17260 c-13 0 -27 -3 -30 -7 -4 -3 -7 -19 -7 -34 0 -15 4 -39
10 -53 5 -15 21 -32 36 -38 21 -10 27 -9 35 3 5 8 9 29 9 47 0 20 -6 35 -15
38 -8 4 -15 15 -15 25 0 13 -7 19 -23 19z"/>
</g>
<g>
<path d="M1848 14368 c-8 6 -18 9 -21 5 -4 -3 -7 -17 -7 -29 0 -13 -7 -43 -16
-66 -9 -24 -20 -52 -25 -63 -5 -11 -9 -99 -10 -195 -1 -96 0 -187 2 -202 2
-14 7 -30 12 -34 4 -4 7 -25 7 -46 0 -36 2 -38 31 -38 l32 0 -7 113 c-4 61 -7
162 -7 222 0 61 5 133 10 160 6 28 15 66 19 85 5 20 6 45 2 56 -4 11 -14 25
-22 32z"/>
</g>
<g>
<path d="M11281 13410 c-11 0 -23 -5 -27 -11 -3 -6 -15 -50 -25 -97 -11 -47
-19 -92 -19 -100 0 -9 9 -12 28 -10 24 3 29 9 44 68 9 36 17 84 17 108 1 35
-2 42 -18 42z"/>
</g>
<g>
<path d="M11053 12841 c-15 5 -25 3 -36 -9 -8 -9 -18 -33 -22 -52 -4 -19 -20
-53 -35 -76 -16 -22 -32 -53 -36 -69 -4 -16 -18 -44 -31 -64 -13 -19 -26 -45
-30 -59 -3 -15 0 -29 10 -39 14 -14 17 -14 31 0 9 9 16 21 16 28 0 7 10 26 23
43 13 17 34 54 47 81 13 28 39 75 57 107 20 32 33 66 31 78 -2 13 -13 26 -25
31z"/>
</g>
<g>
<path d="M1981 12689 c-10 6 -23 6 -34 0 -10 -6 -17 -22 -17 -39 0 -16 4 -31
9 -34 5 -3 19 -50 31 -103 12 -54 27 -103 32 -110 5 -6 12 -36 14 -65 3 -33
12 -61 25 -74 10 -11 19 -25 19 -31 0 -5 8 -17 18 -26 10 -10 27 -17 36 -17
14 0 17 6 13 23 -3 12 -13 51 -21 87 -9 36 -21 76 -27 90 -6 13 -19 69 -29
125 -10 55 -26 115 -35 133 -9 17 -24 36 -34 41z"/>
</g>
<g>
<path d="M10623 12090 c-7 0 -22 -10 -33 -22 -12 -13 -45 -51 -73 -85 -28 -35
-58 -63 -66 -63 -12 0 -17 -12 -19 -50 -3 -49 -2 -50 26 -50 22 0 36 10 63 47
19 26 42 60 52 77 11 17 29 42 42 56 12 14 27 34 33 46 8 15 8 24 0 32 -7 7
-18 12 -25 12z"/>
</g>
<g>
<path d="M10312 11479 c-15 -1 -37 -7 -50 -13 -12 -7 -37 -27 -55 -44 -17 -17
-38 -38 -45 -47 -7 -8 -12 -26 -10 -38 2 -16 11 -23 33 -25 25 -2 34 3 54 36
13 21 36 47 51 57 15 10 32 31 37 46 11 27 10 29 -15 28z"/>
</g>
<g>
<path d="M2487 11380 c-14 0 -28 -4 -31 -9 -4 -5 -2 -21 4 -35 5 -14 13 -26
18 -26 5 0 24 -24 43 -53 19 -28 43 -69 53 -89 10 -21 37 -55 60 -76 23 -21
59 -60 81 -86 22 -26 44 -54 48 -62 4 -8 21 -14 37 -14 17 0 30 5 30 13 0 6
-12 30 -28 53 -15 22 -49 66 -76 96 -26 31 -53 65 -60 76 -6 11 -31 54 -54 96
-24 42 -56 85 -72 96 -15 11 -40 20 -53 20z"/>
</g>
<g>
<path d="M3113 10640 c-11 0 -25 -6 -31 -12 -6 -7 -8 -25 -5 -40 3 -16 9 -28
13 -28 5 0 28 -16 52 -35 23 -19 68 -58 99 -85 31 -28 87 -71 125 -95 38 -25
75 -45 82 -45 7 0 25 -9 40 -20 15 -11 52 -29 82 -40 30 -11 58 -20 62 -20 4
0 12 9 18 20 9 17 6 25 -15 46 -14 14 -29 23 -34 20 -5 -3 -27 4 -49 17 -22
12 -66 37 -98 56 -33 19 -60 38 -62 43 -2 4 -8 8 -14 8 -5 0 -16 6 -23 13 -8
6 -33 28 -57 47 -23 19 -69 61 -103 93 -34 31 -71 57 -82 57z"/>
</g>
<g>
<path d="M4316 9429 c-6 0 -17 -3 -23 -6 -7 -2 -13 -16 -13 -29 0 -14 7 -27
18 -31 9 -4 45 -29 79 -57 33 -28 79 -66 101 -83 23 -18 47 -33 56 -33 8 0 17
4 21 10 3 5 3 20 -1 34 -4 16 -34 43 -92 82 -48 31 -98 70 -111 85 -13 16 -29
29 -35 28z"/>
</g>
<g>
<path d="M8421 9189 c-9 0 -32 -5 -51 -12 -27 -9 -35 -17 -35 -37 0 -23 3 -25
40 -21 22 3 51 4 65 3 14 -2 68 -5 120 -8 52 -3 99 -10 105 -15 5 -5 17 -9 27
-9 14 0 18 8 18 35 0 31 -3 35 -27 35 -16 1 -53 3 -83 6 -30 3 -79 9 -109 15
-30 5 -62 9 -70 8z"/>
</g>
<g>
<path d="M8101 9130 c-14 0 -23 -8 -27 -25 -3 -14 -4 -32 0 -40 3 -8 16 -15
29 -15 13 0 27 -4 33 -9 5 -5 47 -29 94 -54 47 -24 106 -58 132 -76 25 -17 48
-35 50 -39 2 -4 19 -18 39 -30 20 -12 45 -22 57 -22 12 0 22 9 26 23 4 16 0
27 -17 40 -12 10 -39 33 -60 50 -21 18 -75 54 -120 82 -45 27 -100 59 -122 69
-22 10 -52 25 -67 33 -14 7 -35 13 -47 13z"/>
</g>
<g>
<path d="M4808 9069 c-2 0 -13 -4 -25 -9 -13 -5 -23 -14 -23 -20 0 -5 5 -10
10 -10 6 0 11 1 13 2 1 1 22 -12 46 -30 24 -17 60 -34 80 -38 20 -3 55 -15 78
-26 29 -13 52 -18 73 -13 16 4 30 12 30 18 0 7 -26 24 -58 39 -32 14 -78 32
-102 38 -25 7 -62 21 -82 31 -20 10 -39 19 -40 18z"/>
</g>
<g>
<path d="M9110 9038 c-8 -1 -34 -3 -56 -5 -33 -3 -43 -9 -48 -26 -3 -12 0 -25
7 -29 7 -4 28 -8 48 -8 20 0 85 -16 144 -35 60 -20 114 -33 122 -31 7 3 13 14
13 25 0 11 -10 27 -22 35 -12 9 -34 16 -49 16 -14 0 -53 13 -85 30 -32 16 -66
29 -74 28z"/>
</g>
<g>
<path d="M5720 8950 c-25 0 -56 -7 -70 -14 -14 -8 -50 -24 -80 -37 -44 -18
-75 -23 -152 -23 -71 -1 -98 -4 -98 -13 0 -7 11 -20 25 -29 18 -12 50 -16 117
-17 86 -2 98 1 157 31 36 17 72 32 82 32 10 0 21 5 24 10 4 6 15 8 25 5 13 -4
22 1 30 16 10 17 9 23 -1 30 -8 5 -34 9 -59 9z"/>
</g>
<g>
<path d="M5994 8948 c-13 2 -26 -8 -38 -28 -10 -17 -39 -57 -65 -88 -25 -31
-54 -69 -63 -84 -10 -14 -45 -47 -78 -73 -51 -39 -61 -51 -58 -74 2 -17 10
-27 23 -29 13 -2 37 12 65 38 24 22 46 40 50 40 4 0 34 31 66 69 32 38 68 81
79 96 11 15 29 43 40 62 15 26 17 38 9 51 -6 9 -20 18 -30 20z"/>
</g>
<g>
<path d="M9739 8743 c-21 5 -28 3 -32 -13 -3 -10 2 -25 12 -33 9 -8 66 -42
126 -76 61 -35 118 -70 127 -78 10 -9 24 -13 33 -10 8 4 15 15 15 25 0 10 -20
37 -45 60 -24 22 -82 58 -127 80 -46 21 -95 42 -109 45z"/>
</g>
<g>
<path d="M8682 8683 c-28 16 -32 16 -46 1 -9 -8 -16 -24 -16 -34 0 -11 12 -26
29 -35 16 -8 39 -31 52 -52 13 -21 36 -55 53 -76 20 -26 37 -37 51 -35 11 2
21 12 23 24 2 11 -12 39 -32 65 -20 24 -36 48 -36 53 0 5 -11 23 -24 40 -13
17 -37 39 -54 49z"/>
</g>
<g>
<path d="M5565 8460 c-6 0 -29 -13 -51 -29 -21 -16 -57 -36 -79 -44 -22 -8
-66 -23 -98 -32 -36 -11 -65 -26 -77 -43 -11 -14 -19 -30 -17 -36 2 -6 13 -12
25 -14 11 -2 45 8 75 22 30 14 59 26 64 26 6 0 24 7 39 15 16 8 36 15 44 15 8
0 36 14 63 30 27 18 47 37 47 48 0 10 -5 23 -12 30 -7 7 -17 12 -23 12z"/>
</g>
<g>
<path d="M4104 8270 c-16 0 -24 -6 -24 -17 0 -10 6 -25 13 -34 7 -9 23 -19 37
-23 14 -4 43 -14 65 -23 22 -9 58 -24 81 -34 22 -11 55 -19 72 -19 20 0 32 5
32 13 0 7 -5 18 -12 25 -7 7 -18 12 -25 12 -7 0 -58 23 -114 50 -56 28 -112
50 -125 50z"/>
</g>
<g>
<path d="M10414 8220 c-6 0 -18 -7 -25 -16 -12 -14 -10 -19 11 -36 14 -11 63
-44 109 -74 46 -30 92 -54 102 -54 10 0 21 10 25 22 5 17 1 26 -17 38 -13 8
-36 26 -52 39 -16 14 -55 38 -86 53 -31 15 -61 28 -67 28z"/>
</g>
<g>
<path d="M4662 8169 c-4 0 -13 -3 -19 -6 -7 -2 -13 -13 -13 -23 0 -9 6 -22 13
-28 7 -6 50 -13 95 -15 45 -2 107 0 138 5 46 7 60 6 74 -7 9 -8 32 -15 51 -15
19 0 40 4 47 9 10 6 10 10 -2 20 -8 7 -25 9 -40 5 -17 -4 -26 -2 -26 5 0 7
-19 21 -42 31 -37 16 -56 17 -133 11 -49 -4 -100 -4 -113 1 -13 4 -26 8 -30 7z"/>
</g>
<g>
<path d="M9000 8107 c-8 1 -21 -1 -27 -4 -7 -2 -13 -12 -13 -22 0 -9 20 -57
44 -107 25 -49 47 -102 51 -119 3 -16 16 -51 27 -77 17 -38 27 -48 45 -48 14
0 23 6 23 16 0 9 -14 59 -30 112 -17 54 -48 131 -68 172 -20 41 -44 76 -52 77z"/>
</g>
<g>
<path d="M10875 7710 c-8 0 -16 -4 -19 -9 -3 -5 -3 -23 1 -41 3 -20 16 -38 33
-49 14 -9 55 -49 89 -89 34 -40 73 -80 87 -88 13 -9 31 -14 39 -10 11 4 14 13
9 33 -4 16 -13 32 -21 36 -8 5 -41 43 -75 85 -33 42 -73 85 -88 94 -15 9 -31
21 -34 27 -4 6 -13 11 -21 11z"/>
</g>
<g>
<path d="M9169 7390 c-5 0 -12 -6 -15 -14 -3 -8 1 -49 10 -91 9 -43 16 -96 16
-119 1 -22 7 -52 15 -66 8 -14 14 -39 15 -55 0 -17 5 -36 12 -43 7 -7 20 -12
30 -12 10 0 18 3 18 8 0 4 -7 59 -15 122 -9 63 -23 140 -32 170 -8 30 -21 65
-29 78 -8 12 -19 22 -25 22z"/>
</g>
<g>
<path d="M11292 7099 c-26 30 -28 31 -49 16 -13 -9 -23 -22 -23 -29 0 -6 11
-27 25 -46 14 -19 25 -48 25 -65 0 -17 6 -39 13 -48 6 -9 23 -18 37 -19 19 -2
26 2 28 20 2 13 -1 28 -6 35 -5 7 -12 33 -16 58 -4 28 -17 58 -34 78z"/>
</g>
<g>
<path d="M9230 6480 c-12 0 -23 -6 -25 -12 -2 -7 -8 -65 -13 -128 -5 -63 -7
-134 -5 -157 4 -37 8 -43 29 -43 13 0 24 6 24 13 1 6 3 83 5 170 5 152 4 157
-15 157z"/>
</g>
<g>
<path d="M9155 5580 c-8 0 -21 -10 -29 -22 -8 -13 -17 -37 -21 -55 -3 -17 -13
-37 -21 -44 -8 -7 -14 -29 -14 -55 0 -23 5 -46 11 -50 6 -3 17 0 24 7 8 8 25
47 39 88 14 41 26 87 26 103 0 18 -5 28 -15 28z"/>
</g>
</g>
</svg>
