<?xml version="1.0" standalone="no"?>
<!DOCTYPE svg PUBLIC "-//W3C//DTD SVG 20010904//EN"
 "http://www.w3.org/TR/2001/REC-SVG-20010904/DTD/svg10.dtd">
<svg version="1.0" xmlns="http://www.w3.org/2000/svg"
 width="2048.000000pt" height="1974.000000pt" viewBox="0 0 2048.000000 1974.000000"
 preserveAspectRatio="xMidYMid meet">
<metadata>
Created by potrace 1.16, written by Peter Selinger 2001-2019
</metadata>
<g transform="translate(0.000000,1974.000000) scale(0.100000,-0.100000)"
fill="#000000" stroke="none">
<g>
<path d="M894 19330 c-7 0 -16 -5 -19 -10 -3 -6 -9 -40 -13 -78 -4 -37 -4
-130 0 -207 4 -77 11 -180 17 -230 6 -49 15 -135 21 -190 6 -55 13 -352 16
-660 4 -386 10 -596 19 -675 8 -63 14 -143 15 -177 0 -34 6 -92 14 -130 8 -37
17 -111 21 -163 3 -52 8 -108 10 -125 3 -16 7 -95 9 -175 3 -80 9 -157 14
-170 6 -14 16 -97 22 -185 6 -88 13 -227 15 -310 2 -82 7 -233 10 -334 3 -101
10 -204 15 -228 6 -24 8 -48 6 -52 -3 -4 2 -54 10 -112 11 -80 13 -155 8 -329
-3 -124 -10 -244 -14 -267 -4 -23 -3 -66 2 -95 5 -29 11 -114 12 -189 2 -75 6
-141 9 -146 4 -6 7 -48 6 -94 0 -46 2 -117 5 -156 3 -40 7 -76 10 -81 2 -4 7
-37 10 -72 4 -36 11 -118 17 -183 5 -65 7 -127 4 -137 -3 -11 3 -59 14 -107
11 -48 27 -128 36 -178 9 -49 16 -106 15 -125 -1 -19 3 -63 9 -97 6 -34 13
-117 17 -185 3 -68 7 -179 8 -248 1 -69 7 -143 13 -165 6 -22 14 -80 18 -130
4 -49 8 -142 10 -205 1 -71 7 -125 15 -142 10 -21 11 -34 2 -52 -9 -20 -8 -32
5 -56 12 -24 13 -37 5 -55 -8 -16 -8 -53 -1 -117 5 -51 12 -102 16 -113 4 -11
8 -90 10 -175 1 -85 4 -180 5 -210 2 -30 -2 -68 -8 -85 -7 -16 -13 -43 -15
-60 -2 -16 3 -52 10 -78 10 -36 11 -54 3 -70 -7 -13 -9 -49 -6 -87 3 -36 7
-108 9 -160 2 -52 6 -199 9 -327 2 -127 1 -235 -2 -238 -4 -4 -8 -39 -9 -78 0
-40 -2 -81 -3 -92 -2 -11 1 -85 5 -165 4 -80 7 -155 6 -167 0 -13 -1 -33 -2
-45 -1 -13 -1 -59 0 -103 0 -44 -1 -222 -3 -395 -2 -173 -7 -344 -11 -380 -3
-36 -1 -103 5 -150 6 -47 13 -119 15 -160 3 -41 9 -113 15 -160 6 -47 12 -112
13 -145 2 -33 9 -76 15 -95 7 -19 12 -69 13 -110 1 -41 -2 -98 -6 -127 -5 -31
-3 -77 4 -115 6 -34 14 -117 17 -183 2 -66 7 -174 10 -240 3 -66 6 -174 7
-240 1 -66 5 -124 8 -130 3 -5 3 -38 0 -73 -4 -34 -3 -69 2 -79 6 -9 16 -109
24 -222 7 -113 15 -221 17 -239 2 -18 7 -44 10 -58 4 -14 13 -87 21 -162 8
-75 18 -209 21 -297 3 -88 8 -167 11 -175 3 -8 7 -80 10 -160 2 -80 6 -179 7
-220 2 -41 11 -115 20 -165 8 -49 18 -133 21 -185 3 -52 11 -129 17 -170 6
-41 12 -100 13 -131 1 -31 6 -62 10 -69 4 -6 9 -84 11 -173 2 -89 8 -205 14
-257 5 -52 12 -144 16 -205 3 -60 7 -195 9 -300 3 -118 12 -245 25 -335 12
-80 25 -159 30 -176 6 -17 10 -72 10 -122 0 -56 -4 -92 -10 -92 -6 0 -35 19
-65 42 -30 24 -78 61 -106 83 -29 22 -73 55 -98 73 -25 18 -80 49 -121 68 -41
20 -91 44 -110 53 -19 9 -55 30 -80 47 -25 17 -61 39 -80 49 -19 10 -50 31
-69 48 -19 16 -49 36 -67 43 -18 8 -35 18 -39 24 -3 6 -40 33 -82 60 -42 28
-82 50 -89 50 -7 0 -19 8 -26 18 -7 9 -27 22 -45 28 -22 8 -34 9 -42 1 -6 -6
-11 -21 -11 -33 0 -13 16 -35 43 -57 24 -20 65 -48 90 -64 25 -15 74 -46 107
-68 34 -22 91 -66 127 -98 36 -31 77 -60 92 -64 14 -3 51 -23 81 -44 30 -20
75 -44 100 -52 25 -8 72 -30 105 -48 33 -18 100 -68 149 -111 48 -43 93 -78
98 -78 5 0 28 -19 51 -41 23 -23 51 -49 62 -59 11 -9 39 -27 63 -38 23 -12 57
-22 74 -22 18 0 41 8 52 18 12 10 41 26 66 35 25 9 53 17 63 17 9 0 25 4 35 9
9 5 46 20 82 32 36 13 92 37 125 55 33 18 96 45 140 60 44 15 84 31 89 35 6 5
17 9 26 9 10 0 30 7 47 15 16 8 38 16 49 18 10 2 37 12 59 21 22 10 67 31 100
47 33 16 65 29 71 29 6 0 38 13 72 30 34 16 66 30 71 30 5 0 14 7 21 15 7 8
23 15 36 15 14 0 51 11 83 24 32 13 84 27 117 31 32 4 64 10 69 14 6 4 37 15
70 25 33 10 87 29 120 41 33 13 83 30 110 38 28 8 79 25 115 37 36 12 88 26
115 32 28 5 68 18 90 28 22 10 68 28 103 39 34 12 77 21 95 21 17 0 50 5 72
11 22 6 56 12 75 13 19 2 53 10 75 18 22 9 56 21 75 28 19 7 69 25 110 41 41
16 109 36 150 44 41 9 89 22 105 29 17 8 41 18 55 24 14 6 34 13 45 17 11 4
54 16 95 26 41 11 118 23 171 28 52 5 104 13 115 19 10 6 49 23 87 37 37 15
118 40 180 56 61 16 121 31 132 34 11 3 45 12 75 22 30 9 60 19 65 23 6 4 37
13 70 20 33 7 78 21 100 31 22 9 80 29 128 44 49 15 119 31 155 36 37 5 85 14
107 20 22 6 49 15 60 19 11 4 58 19 105 33 47 14 141 39 210 55 69 16 169 46
224 66 54 20 107 36 118 36 10 0 58 13 106 28 48 16 123 34 167 41 44 6 100
14 125 17 25 3 51 12 57 21 7 9 27 18 45 20 18 1 42 7 53 12 11 5 36 16 57 25
20 9 43 16 51 16 8 0 46 13 84 29 39 16 90 32 114 36 24 4 76 18 114 32 39 13
87 26 107 28 21 2 64 11 95 20 32 9 67 17 78 19 11 1 38 6 60 10 22 5 45 12
50 16 6 4 34 10 63 13 29 4 68 10 85 16 18 5 75 19 127 31 52 13 124 31 160
42 36 10 79 24 95 30 17 5 64 19 105 30 41 11 93 21 115 24 22 2 69 13 105 25
36 12 73 25 82 30 10 5 27 9 37 9 11 0 22 4 25 9 3 5 23 11 43 14 21 3 72 17
113 32 41 15 95 29 120 32 25 3 53 10 63 15 13 7 17 17 13 32 -5 21 0 24 52
36 31 6 86 22 122 34 36 12 79 29 95 39 17 9 41 21 55 28 14 6 34 15 45 20 11
5 52 21 90 35 39 14 97 30 130 35 33 5 89 16 125 24 36 9 85 18 110 20 25 3
56 8 70 11 14 4 55 7 92 9 37 1 74 8 82 14 8 7 19 10 23 8 5 -3 35 0 68 7 33
7 70 18 83 25 12 6 22 16 22 20 0 5 21 12 47 16 26 4 59 13 73 20 14 7 60 18
102 24 42 6 88 16 102 22 14 7 26 16 26 21 0 4 10 8 23 8 12 0 45 9 73 19 28
11 71 23 95 26 24 4 71 10 104 15 33 5 87 15 120 23 33 8 92 23 130 32 39 9
95 29 125 44 30 14 60 25 67 23 7 -2 23 3 35 10 13 7 39 18 58 25 19 7 49 13
67 13 18 0 42 4 55 9 13 6 49 13 81 16 44 5 60 11 68 28 8 13 12 78 11 179 0
86 -3 162 -6 167 -4 5 -9 65 -11 133 -3 68 -8 168 -13 223 -4 55 -5 177 -2
270 4 94 5 451 3 795 -2 344 -8 684 -13 755 -5 72 -9 283 -10 470 -1 187 -3
468 -5 625 -1 157 -7 346 -13 420 -6 74 -14 286 -17 470 -3 184 -8 508 -10
720 -3 212 -7 399 -9 415 -3 17 2 154 10 305 7 151 16 363 18 470 3 107 10
278 17 380 6 102 12 214 14 250 2 36 7 250 11 475 4 226 8 473 8 550 1 77 -3
196 -7 265 -5 69 -10 328 -13 575 -2 258 -10 531 -18 640 -8 105 -18 262 -22
350 -3 88 -8 196 -9 240 -2 44 -8 145 -14 225 -7 95 -9 334 -5 695 3 303 6
595 6 650 1 55 -2 244 -5 420 -3 176 -10 338 -16 360 -6 22 -11 63 -11 90 0
28 -5 66 -11 85 -6 19 -13 123 -15 230 -2 107 -4 267 -4 355 0 88 -5 234 -10
325 -9 137 -13 168 -28 183 -14 13 -24 16 -42 9 l-24 -9 -2 -319 c-2 -175 1
-375 7 -444 5 -69 10 -201 10 -295 1 -103 6 -186 14 -210 8 -26 13 -127 15
-295 1 -140 6 -349 11 -465 5 -115 8 -268 6 -340 -1 -71 -2 -170 -2 -220 0
-49 4 -164 9 -255 4 -91 8 -169 8 -175 0 -5 -2 -88 -6 -184 -3 -120 -2 -179 6
-188 7 -8 8 -33 4 -67 -3 -29 -1 -111 4 -182 6 -71 12 -176 15 -234 2 -58 7
-166 10 -240 3 -74 8 -148 10 -165 2 -16 9 -108 14 -204 6 -96 8 -178 5 -183
-3 -4 -5 -70 -5 -147 0 -76 5 -167 11 -202 7 -35 14 -116 16 -179 3 -63 7
-216 9 -340 3 -124 5 -279 4 -345 0 -66 -1 -136 0 -155 0 -19 0 -79 0 -132 1
-53 -3 -108 -8 -121 -6 -15 -6 -41 0 -67 7 -29 6 -45 0 -50 -6 -3 -10 -37 -9
-75 0 -39 -2 -122 -6 -185 -3 -63 -8 -161 -10 -217 -2 -56 -7 -106 -10 -112
-4 -6 -2 -19 3 -30 6 -10 10 -39 8 -63 -1 -23 -6 -46 -11 -50 -6 -4 -11 -124
-12 -286 -1 -189 -6 -298 -14 -334 -8 -29 -14 -111 -14 -183 -1 -71 0 -182 2
-245 2 -63 2 -122 2 -130 -1 -8 1 -49 4 -90 3 -41 8 -91 10 -110 2 -19 -2 -41
-7 -49 -7 -8 -10 -69 -9 -163 1 -82 4 -153 7 -159 4 -5 8 -33 11 -62 2 -28 6
-146 9 -262 2 -115 7 -262 10 -325 4 -63 10 -166 15 -229 4 -65 4 -125 -1
-138 -5 -14 -5 -33 1 -48 5 -14 9 -49 9 -77 0 -29 1 -91 2 -138 0 -47 0 -119
-2 -160 -1 -41 -2 -149 -2 -240 0 -91 0 -223 -1 -295 0 -71 3 -174 7 -228 3
-54 9 -102 12 -107 3 -5 1 -12 -5 -15 -6 -4 -9 -14 -6 -23 2 -10 8 -75 12
-147 5 -71 8 -224 8 -340 -1 -115 -1 -255 -2 -310 0 -55 0 -265 1 -467 1 -203
-1 -368 -5 -368 -4 0 -8 -10 -8 -22 0 -13 -2 -36 -4 -53 -2 -16 -5 -32 -6 -35
-1 -3 -1 -9 0 -15 1 -5 4 -50 8 -100 3 -49 6 -189 6 -310 0 -145 -3 -229 -11
-246 -10 -23 -20 -28 -65 -34 -29 -3 -78 -13 -108 -22 -30 -9 -64 -17 -75 -19
-11 -1 -27 -4 -35 -6 -8 -2 -30 -11 -49 -21 -18 -9 -38 -14 -43 -11 -5 3 -18
-2 -28 -11 -10 -9 -42 -20 -72 -25 -29 -5 -80 -16 -113 -25 -33 -9 -69 -18
-80 -21 -11 -2 -42 -7 -70 -10 -27 -4 -84 -19 -125 -34 -41 -15 -113 -36 -160
-46 -47 -9 -103 -27 -125 -40 -22 -12 -56 -25 -75 -29 -19 -4 -41 -11 -50 -15
-8 -5 -44 -20 -80 -34 -36 -14 -81 -26 -100 -26 -19 -1 -62 -8 -95 -16 -33 -9
-72 -18 -88 -21 -15 -3 -30 -9 -33 -14 -3 -5 -30 -9 -60 -9 -30 0 -70 -6 -88
-14 -19 -8 -49 -14 -67 -14 -19 -1 -68 -7 -109 -15 -41 -9 -97 -26 -125 -38
-27 -13 -58 -23 -68 -23 -10 -1 -21 -6 -25 -12 -4 -6 -22 -14 -40 -17 -19 -4
-47 -17 -64 -28 -17 -12 -47 -26 -67 -30 -20 -4 -61 -15 -91 -24 -30 -9 -74
-22 -97 -28 -24 -5 -45 -8 -47 -6 -3 2 -7 17 -10 33 -3 16 -11 115 -17 220
-10 151 -10 246 0 457 8 166 10 368 6 540 -3 151 -11 321 -16 379 -6 58 -12
119 -15 135 -2 17 -6 77 -9 135 -2 58 -7 132 -11 165 -3 33 -12 101 -19 150
-8 50 -16 115 -19 145 -3 30 -8 93 -11 140 -3 47 -10 186 -16 310 -5 124 -12
239 -14 255 -3 17 -7 71 -10 120 -3 50 -10 113 -15 140 -5 28 -16 111 -24 185
-9 74 -20 180 -26 235 -5 55 -12 125 -15 155 -2 30 -9 82 -15 115 -5 33 -16
98 -24 145 -8 47 -27 150 -41 230 -14 80 -30 174 -36 208 -5 35 -16 96 -25
135 -9 40 -23 85 -31 101 -8 16 -21 67 -29 115 -7 47 -23 136 -34 196 -12 61
-29 169 -40 240 -10 72 -24 155 -30 185 -6 30 -13 64 -15 75 -2 11 -13 92 -25
180 -12 88 -22 170 -21 183 0 13 -3 32 -9 41 -5 10 -12 45 -15 78 -3 32 -16
113 -30 178 -14 66 -36 174 -50 241 -14 66 -31 143 -39 170 -7 27 -25 94 -40
149 -14 55 -33 116 -41 135 -8 19 -21 69 -30 112 -8 42 -20 89 -26 105 -6 15
-22 75 -35 133 -14 58 -29 130 -33 160 -5 30 -27 110 -49 177 -23 67 -53 146
-67 174 -15 28 -24 53 -21 56 3 3 -1 18 -9 33 -8 15 -23 60 -34 101 -11 41
-44 144 -74 229 -29 85 -60 166 -67 180 -7 14 -21 35 -31 48 -10 13 -21 44
-25 70 -4 25 -21 74 -39 108 -18 34 -35 74 -39 90 -4 16 -27 70 -51 119 -24
50 -48 107 -55 127 -6 21 -16 40 -21 43 -5 4 -9 14 -9 24 0 10 -6 24 -14 31
-8 6 -13 17 -10 24 2 6 -16 52 -41 101 -26 50 -51 94 -56 100 -5 5 -9 15 -9
23 0 8 -34 84 -76 169 -42 85 -96 184 -121 220 -24 36 -48 76 -53 89 -6 14
-28 49 -50 79 -22 30 -40 61 -40 70 0 8 -4 15 -8 15 -4 0 -28 39 -52 88 -24
48 -55 103 -69 122 -14 19 -32 39 -38 43 -7 4 -13 16 -13 27 0 10 -8 26 -17
36 -10 9 -27 29 -38 44 -11 15 -44 59 -73 98 -29 39 -56 72 -60 74 -4 2 -26
33 -50 69 -23 37 -60 83 -82 103 -22 20 -40 42 -40 47 0 6 -49 60 -110 121
-60 60 -110 113 -110 117 0 4 -11 14 -25 21 -14 8 -28 24 -31 37 -5 17 -13 23
-34 23 -18 0 -33 -8 -44 -25 -9 -13 -16 -31 -16 -39 0 -7 -11 -17 -25 -20 -16
-4 -41 -29 -68 -67 -23 -34 -62 -85 -87 -113 -25 -29 -52 -63 -60 -76 -8 -12
-30 -41 -47 -64 -18 -22 -48 -59 -67 -81 -18 -22 -49 -58 -68 -80 -19 -22 -51
-64 -72 -92 -21 -29 -42 -53 -46 -53 -5 0 -19 -10 -31 -22 -11 -13 -31 -39
-44 -58 -12 -19 -34 -48 -49 -63 -14 -16 -41 -52 -60 -80 -18 -29 -43 -61 -55
-71 -11 -11 -21 -23 -21 -28 0 -6 -20 -33 -43 -61 -24 -29 -47 -59 -51 -67 -3
-8 -15 -28 -26 -45 -11 -16 -24 -39 -29 -51 -5 -11 -20 -33 -33 -50 -13 -16
-42 -56 -65 -90 -22 -33 -60 -98 -83 -145 -22 -46 -47 -93 -53 -104 -7 -11
-30 -51 -51 -90 -22 -38 -52 -86 -66 -105 -15 -19 -36 -55 -48 -80 -11 -25
-23 -56 -27 -70 -4 -14 -18 -40 -32 -58 -13 -17 -22 -36 -19 -41 3 -5 0 -14
-8 -20 -7 -6 -21 -33 -31 -59 -9 -26 -19 -51 -21 -57 -2 -5 -24 -46 -48 -90
-24 -44 -76 -144 -116 -223 -40 -78 -84 -156 -96 -174 -13 -18 -24 -44 -24
-59 0 -15 -5 -31 -10 -34 -6 -3 -19 -25 -29 -48 -10 -23 -30 -69 -44 -102 -14
-33 -37 -82 -51 -110 -14 -27 -26 -55 -26 -61 0 -5 -9 -29 -20 -52 -11 -22
-20 -48 -20 -57 0 -9 -7 -23 -15 -31 -8 -8 -19 -32 -25 -52 -5 -21 -16 -46
-24 -57 -9 -11 -16 -26 -16 -34 0 -7 -12 -41 -26 -75 -14 -33 -31 -74 -38 -91
-7 -16 -23 -55 -36 -85 -12 -30 -25 -67 -27 -82 -3 -16 -9 -28 -14 -28 -5 0
-9 -13 -9 -28 0 -15 -4 -32 -9 -38 -5 -5 -23 -49 -41 -99 -17 -49 -40 -122
-50 -162 -10 -40 -21 -77 -24 -82 -4 -5 -11 -36 -17 -68 -6 -32 -14 -62 -19
-68 -4 -5 -10 -23 -13 -40 -2 -16 -19 -85 -36 -153 -17 -68 -31 -133 -31 -146
0 -12 -4 -26 -9 -32 -5 -5 -14 -36 -20 -68 -6 -33 -11 -79 -11 -102 0 -28 -5
-44 -15 -48 -8 -3 -15 -13 -15 -23 0 -10 -9 -54 -20 -98 -10 -44 -38 -177 -61
-295 -23 -118 -44 -244 -47 -280 -2 -36 -8 -69 -12 -75 -5 -5 -13 -37 -19 -70
-5 -33 -13 -78 -16 -100 -4 -22 -11 -62 -16 -90 -6 -27 -14 -81 -19 -120 -4
-38 -18 -124 -30 -190 -12 -66 -26 -133 -32 -150 -5 -16 -16 -91 -25 -165 -8
-74 -18 -169 -23 -210 -5 -41 -15 -104 -23 -140 -8 -36 -21 -103 -27 -150 -7
-47 -12 -98 -11 -115 1 -16 3 -39 3 -50 0 -11 -4 -33 -10 -50 -6 -16 -16 -109
-23 -205 -7 -96 -13 -254 -15 -350 -1 -96 -4 -182 -8 -190 -3 -8 -4 -96 -2
-195 1 -99 5 -196 9 -215 3 -19 10 -66 15 -105 6 -38 15 -92 20 -120 5 -27 10
-88 10 -135 1 -47 7 -157 13 -245 6 -88 13 -187 15 -220 2 -33 13 -157 24
-275 12 -118 23 -247 24 -286 2 -39 7 -77 11 -84 4 -7 12 -79 16 -159 4 -80
10 -193 13 -251 4 -58 9 -116 12 -130 3 -14 7 -48 9 -77 2 -29 7 -57 11 -64 4
-6 8 -42 9 -78 2 -36 5 -104 9 -151 3 -47 8 -161 11 -255 3 -93 9 -192 12
-220 4 -27 6 -63 5 -80 0 -16 6 -61 13 -99 8 -38 12 -73 9 -77 -2 -4 1 -27 7
-51 6 -24 15 -83 20 -133 5 -49 13 -130 17 -180 5 -49 14 -135 20 -190 7 -55
17 -138 22 -185 6 -47 15 -112 20 -145 5 -33 14 -89 19 -125 6 -36 11 -71 11
-77 0 -8 -12 -13 -28 -13 -16 0 -36 -8 -46 -18 -9 -11 -29 -19 -44 -20 -16 0
-68 -10 -116 -22 -48 -11 -95 -25 -104 -30 -10 -5 -44 -16 -77 -25 -33 -10
-82 -25 -110 -35 -27 -10 -84 -28 -125 -40 -41 -12 -111 -33 -155 -47 -44 -14
-109 -37 -145 -50 -35 -14 -80 -26 -100 -28 -19 -1 -48 -5 -65 -9 -16 -4 -39
-11 -50 -16 -11 -5 -47 -16 -80 -25 -33 -10 -85 -30 -115 -45 -30 -15 -66 -31
-80 -35 -14 -4 -56 -22 -95 -40 -38 -18 -99 -45 -135 -60 -36 -15 -79 -34 -97
-41 -17 -8 -35 -14 -40 -14 -4 0 -24 -8 -43 -19 -20 -10 -62 -24 -95 -31 -33
-7 -87 -25 -120 -40 -33 -15 -79 -31 -103 -35 -30 -5 -52 -16 -69 -36 -15 -16
-33 -29 -41 -29 -7 0 -26 -6 -40 -14 -15 -7 -38 -18 -52 -24 -14 -6 -39 -14
-56 -17 -29 -6 -30 -4 -42 42 -7 26 -19 98 -28 158 -8 61 -19 151 -25 200 -6
50 -12 117 -14 150 -2 33 -5 60 -5 60 -1 0 -2 54 -4 120 -2 66 -10 213 -19
328 -9 114 -14 214 -11 222 4 8 2 21 -4 28 -6 7 -11 50 -11 96 0 46 -5 89 -11
96 -6 7 -8 24 -5 37 4 13 -1 65 -9 114 -8 49 -16 135 -17 192 -1 56 -5 105
-10 108 -5 3 -9 18 -9 33 0 15 -3 31 -7 35 -4 3 -8 46 -9 94 -1 48 -9 121 -17
162 -9 41 -18 131 -22 200 -3 69 -9 175 -12 235 -2 61 -8 171 -12 245 -4 74
-10 140 -14 147 -4 6 -12 58 -18 115 -6 57 -12 114 -14 128 -2 14 -13 108 -24
210 -13 108 -24 276 -27 405 -3 121 -7 303 -10 405 -3 102 -9 206 -14 232 -5
26 -14 136 -20 245 -5 109 -10 279 -11 378 0 99 -7 216 -14 260 -8 44 -16 114
-19 155 -4 41 -9 154 -13 250 -4 96 -8 263 -7 370 0 107 0 308 0 445 -1 138
-1 322 -1 410 0 88 4 304 8 480 4 177 4 324 1 328 -4 4 -9 247 -11 539 -3 380
-8 572 -19 672 -8 78 -19 173 -24 211 -5 39 -14 140 -19 225 -5 85 -12 207
-15 270 -3 63 -8 171 -10 240 -3 69 -10 185 -16 258 -6 74 -21 188 -34 255
-14 67 -36 235 -50 372 -14 138 -33 347 -42 465 -9 118 -20 332 -24 475 -4
143 -5 314 -3 380 2 66 4 131 4 145 0 14 -5 151 -10 305 -6 154 -17 348 -26
430 -8 83 -17 222 -19 310 -2 88 -9 207 -15 265 -6 58 -15 182 -21 275 -5 94
-17 235 -25 315 -9 80 -20 197 -25 260 -5 63 -14 144 -20 180 -6 36 -15 220
-20 410 -5 190 -12 458 -15 595 -2 138 -9 302 -14 365 -5 63 -15 160 -21 215
-7 61 -9 148 -5 224 4 85 2 140 -6 175 -7 28 -17 57 -22 64 -5 6 -15 12 -23
12z m6080 -3510 c8 0 30 -19 48 -42 18 -23 67 -78 109 -122 42 -45 132 -153
200 -241 69 -88 140 -182 159 -208 19 -26 56 -76 82 -110 26 -34 48 -66 48
-72 0 -5 11 -23 25 -39 14 -16 25 -35 25 -42 0 -7 9 -28 21 -46 11 -18 39 -64
61 -103 22 -38 57 -94 77 -124 20 -29 39 -58 43 -65 4 -6 26 -44 48 -84 23
-40 64 -126 92 -190 27 -64 55 -124 62 -132 7 -8 32 -55 56 -105 24 -49 47
-91 52 -93 4 -2 8 -11 8 -20 0 -9 10 -33 22 -52 12 -19 34 -73 50 -120 15 -47
32 -94 38 -105 5 -11 21 -49 36 -85 14 -36 33 -81 41 -100 8 -19 19 -44 24
-55 5 -11 13 -31 19 -45 5 -14 14 -32 19 -40 5 -8 23 -49 39 -90 17 -41 36
-93 43 -115 6 -22 15 -44 20 -49 5 -6 9 -17 9 -25 0 -9 14 -52 31 -96 17 -44
55 -156 85 -249 30 -93 61 -183 69 -200 7 -17 23 -62 34 -101 10 -38 22 -86
26 -105 3 -19 10 -44 15 -55 4 -11 14 -47 21 -80 7 -33 13 -65 15 -70 1 -6 11
-51 23 -100 12 -50 26 -106 33 -125 6 -19 23 -62 38 -95 16 -33 31 -85 35
-115 3 -30 10 -66 15 -80 4 -14 14 -52 21 -85 7 -33 18 -72 26 -87 7 -15 13
-42 13 -59 0 -18 12 -87 26 -153 14 -67 29 -130 34 -141 4 -11 13 -49 19 -85
6 -36 20 -121 31 -190 11 -69 24 -163 29 -210 4 -47 13 -96 20 -107 6 -12 11
-50 11 -85 0 -35 5 -81 11 -103 6 -22 13 -53 15 -70 3 -16 14 -79 25 -140 10
-60 24 -135 29 -166 6 -30 10 -69 10 -85 0 -16 11 -75 25 -129 14 -55 34 -127
45 -160 10 -33 28 -109 40 -170 11 -60 28 -144 36 -185 9 -41 18 -111 21 -155
3 -44 11 -93 19 -109 9 -19 18 -95 25 -205 6 -97 13 -183 16 -191 3 -8 7 -22
9 -30 1 -8 5 -35 8 -60 3 -25 8 -65 12 -90 3 -25 7 -74 10 -110 2 -36 9 -93
15 -128 6 -35 9 -80 5 -100 -3 -20 -1 -64 5 -97 6 -33 15 -69 20 -80 4 -11 10
-137 13 -280 4 -143 8 -285 10 -315 3 -30 7 -73 10 -95 3 -22 10 -62 15 -90 6
-27 15 -77 20 -110 6 -33 10 -107 11 -165 0 -58 5 -133 11 -168 6 -35 9 -79 6
-97 -3 -19 -1 -49 4 -68 5 -18 12 -134 15 -258 3 -123 6 -294 5 -379 -1 -85
-8 -236 -15 -335 -8 -99 -12 -196 -10 -215 2 -19 8 -93 14 -165 5 -71 12 -141
14 -155 3 -14 -2 -39 -10 -56 -10 -21 -31 -38 -67 -55 -37 -17 -53 -31 -57
-49 -5 -20 -11 -24 -32 -22 -14 2 -29 -1 -32 -7 -4 -6 -44 -22 -89 -36 -45
-14 -96 -32 -114 -40 -17 -9 -53 -19 -80 -24 -26 -6 -73 -16 -103 -24 -30 -8
-104 -31 -165 -50 -60 -20 -121 -38 -135 -41 -14 -3 -70 -15 -125 -26 -55 -11
-113 -25 -130 -30 -16 -5 -84 -21 -150 -36 -66 -14 -147 -31 -180 -39 -33 -7
-85 -21 -115 -30 -30 -9 -68 -19 -85 -22 -16 -2 -39 -8 -50 -13 -11 -5 -60
-21 -110 -36 -49 -15 -143 -44 -208 -66 -66 -22 -120 -38 -122 -36 -2 2 -10
68 -19 147 -9 80 -21 163 -25 185 -5 23 -9 95 -10 161 0 66 -6 163 -11 215 -6
52 -15 122 -21 155 -5 33 -17 128 -25 210 -8 83 -17 175 -19 205 -3 30 -7 98
-9 150 -2 52 -14 154 -25 225 -11 72 -22 183 -25 247 -3 65 -7 122 -10 126 -3
4 -5 37 -6 73 -1 35 -8 129 -15 209 -7 80 -13 152 -13 160 1 8 -2 74 -6 145
-3 72 -8 166 -11 210 -3 44 -7 139 -10 210 -3 72 -10 222 -15 335 -6 113 -14
257 -20 320 -5 63 -12 151 -15 195 -3 44 -10 127 -16 185 -6 58 -12 175 -15
260 -2 85 -9 180 -14 210 -5 30 -14 147 -20 260 -5 113 -15 255 -20 315 -6 61
-12 139 -15 175 -3 36 -8 112 -10 170 -3 58 -10 173 -16 255 -5 83 -14 218
-19 300 -5 83 -11 184 -14 225 -3 41 -8 104 -11 140 -2 36 -7 164 -10 285 -3
121 -8 240 -10 265 -3 25 -8 173 -12 330 -4 157 -8 551 -8 875 0 325 4 786 8
1025 5 239 8 477 7 529 0 51 -5 149 -10 218 -5 68 -9 220 -9 336 1 117 -2 248
-6 292 -3 44 -10 127 -15 185 -5 58 -16 146 -24 195 -9 50 -16 149 -16 220 0
72 -7 171 -15 220 -9 50 -20 117 -26 149 -5 33 -8 65 -5 73 3 7 12 13 20 13z
m-123 -110 c4 0 10 -37 14 -82 3 -46 15 -108 24 -138 14 -42 20 -104 25 -264
4 -116 13 -242 20 -280 8 -39 17 -111 21 -161 4 -49 9 -214 11 -365 2 -151 8
-320 14 -375 7 -55 12 -206 12 -335 1 -129 -2 -617 -5 -1083 -4 -471 -3 -856
2 -865 5 -10 12 -206 15 -437 4 -231 9 -445 11 -475 3 -30 9 -156 14 -280 6
-124 13 -286 16 -360 4 -74 10 -160 15 -190 5 -30 12 -107 15 -170 3 -63 8
-153 11 -200 2 -47 7 -98 9 -115 3 -16 12 -106 21 -200 8 -93 17 -228 20 -300
2 -71 8 -168 14 -215 5 -47 12 -175 16 -285 3 -110 9 -204 11 -209 3 -5 10
-77 14 -160 4 -83 13 -216 19 -296 7 -80 13 -176 15 -215 2 -38 10 -205 19
-370 9 -165 18 -343 21 -395 3 -52 7 -142 10 -200 3 -58 8 -132 10 -165 3 -33
7 -109 10 -170 3 -60 10 -127 15 -150 5 -22 11 -83 14 -135 2 -52 9 -135 15
-185 6 -49 14 -101 17 -115 3 -14 6 -67 6 -117 0 -51 3 -135 8 -185 5 -51 12
-140 15 -198 3 -58 10 -116 14 -130 5 -14 14 -90 20 -170 6 -80 13 -188 16
-240 3 -52 7 -124 10 -160 2 -36 7 -119 10 -185 4 -66 8 -135 10 -153 2 -17 0
-34 -4 -37 -4 -2 -32 -9 -62 -14 -30 -5 -94 -19 -144 -30 -49 -12 -139 -37
-200 -57 -60 -20 -200 -58 -310 -85 -110 -27 -211 -54 -225 -60 -14 -6 -68
-22 -120 -34 -52 -13 -117 -27 -145 -31 -27 -4 -93 -21 -145 -39 -52 -18 -129
-43 -170 -55 -41 -12 -93 -27 -115 -34 -22 -7 -74 -25 -115 -39 -41 -15 -100
-33 -130 -42 -30 -8 -77 -22 -105 -30 -27 -8 -86 -26 -130 -40 -44 -15 -126
-33 -183 -41 -57 -8 -119 -21 -139 -29 -19 -8 -47 -15 -62 -15 -14 0 -37 -6
-51 -13 -14 -7 -72 -26 -130 -41 -58 -15 -132 -36 -165 -47 -33 -12 -76 -24
-95 -29 -19 -5 -46 -12 -58 -16 -23 -6 -24 -5 -21 32 2 21 -1 89 -5 149 -5 61
-12 115 -16 120 -4 6 -10 64 -13 130 -4 66 -13 142 -22 169 -8 27 -15 73 -15
102 0 29 -4 86 -9 126 -6 40 -13 96 -16 123 -4 28 -9 73 -12 100 -3 28 -9 55
-14 61 -5 6 -8 28 -8 50 1 21 1 91 0 154 -1 63 -7 135 -12 160 -6 25 -12 108
-15 185 -2 77 -6 156 -10 175 -3 19 -10 80 -15 135 -5 55 -10 143 -12 195 -1
52 -5 100 -10 107 -4 7 -10 56 -12 110 -3 54 -7 134 -10 178 -3 44 -8 100 -11
125 -2 25 -8 74 -13 110 -5 36 -10 114 -10 173 -1 60 -7 132 -13 160 -6 29
-12 68 -14 87 -2 19 -6 53 -9 75 -2 21 -7 46 -11 55 -4 8 -8 33 -9 55 -1 22
-5 99 -9 170 -4 72 -11 184 -17 250 -5 66 -14 147 -19 180 -5 33 -14 112 -20
175 -6 63 -11 194 -11 290 -1 96 4 252 10 345 6 94 18 242 27 330 8 88 19 216
24 285 5 69 14 148 19 175 5 28 18 95 29 150 11 55 23 129 27 165 3 36 15 109
26 164 11 54 27 153 35 220 9 66 17 135 19 153 2 17 8 46 14 65 6 19 13 56 15
84 3 27 8 60 12 74 3 14 10 52 14 85 4 33 13 86 19 117 6 31 21 119 31 195 11
76 33 199 49 273 17 74 30 147 31 163 0 15 4 35 9 45 6 9 19 55 30 102 12 47
21 99 21 116 0 16 4 34 9 39 4 6 16 42 25 82 9 39 19 91 22 115 3 23 12 56 20
72 8 16 14 36 14 45 0 9 7 29 15 45 8 15 15 39 15 51 0 13 13 76 30 140 16 64
33 122 38 128 6 7 17 46 26 87 10 41 31 111 47 155 17 44 34 89 39 100 4 11
20 52 35 90 15 39 30 75 34 80 4 6 20 46 36 90 16 44 35 91 42 105 7 14 13 29
13 34 0 4 21 52 46 105 25 53 54 114 65 137 10 22 19 44 19 48 0 4 6 22 14 39
8 18 27 61 44 97 16 36 33 76 37 90 4 14 12 31 17 37 6 7 22 36 38 66 15 29
32 62 38 72 6 11 13 27 16 35 4 8 15 29 26 45 11 17 39 68 63 115 23 47 51
107 62 135 11 27 35 78 53 112 17 34 32 67 32 74 0 6 11 24 25 41 14 16 25 38
25 47 0 10 13 36 29 58 16 22 50 78 76 124 26 46 55 93 65 104 10 11 34 52 54
91 20 39 36 75 36 81 0 6 7 16 15 23 9 7 40 63 71 124 30 61 70 140 90 175 19
35 61 94 93 130 32 36 67 77 78 91 12 14 74 89 139 167 66 78 136 164 156 190
21 26 68 80 104 118 37 39 77 86 89 105 12 19 30 41 39 49 9 7 16 19 16 26 0
7 16 33 35 58 19 25 35 49 35 53 0 4 7 16 17 26 9 10 19 18 24 18z"/>
<g>
<path d="M7954 8149 c-10 0 -29 -4 -42 -10 -13 -5 -44 -27 -70 -48 -41 -35
-49 -49 -65 -108 -10 -37 -22 -75 -27 -84 -5 -9 -8 -85 -8 -168 1 -83 5 -154
10 -157 4 -3 8 -14 8 -25 0 -10 -4 -19 -9 -19 -5 0 -35 -42 -65 -93 -31 -52
-56 -97 -56 -101 0 -5 -6 -22 -14 -39 -8 -18 -23 -52 -34 -77 -13 -30 -22 -82
-26 -155 -4 -60 -7 -119 -7 -130 1 -11 5 -51 10 -90 5 -38 13 -83 17 -100 4
-16 24 -57 46 -90 21 -33 36 -65 34 -72 -3 -6 15 -29 39 -50 23 -21 60 -50 81
-65 20 -16 43 -28 51 -28 8 0 31 -9 52 -20 21 -10 79 -27 129 -36 76 -14 107
-15 184 -6 77 9 107 18 177 54 47 24 106 64 133 90 26 26 48 51 48 56 0 5 10
17 21 28 12 10 32 36 46 57 13 21 32 66 42 100 10 34 23 82 29 107 6 25 16 75
22 112 7 37 10 73 7 80 -2 7 0 20 4 30 5 9 4 62 -1 119 -8 85 -16 116 -45 176
-19 40 -35 76 -35 81 0 4 -18 29 -40 56 -22 26 -40 51 -40 55 0 4 -21 23 -46
42 -26 19 -65 45 -88 58 -23 13 -59 29 -81 35 l-40 12 -2 74 c-2 41 -7 78 -13
84 -5 5 -10 19 -10 31 0 11 -11 43 -24 70 -12 28 -39 65 -60 82 -20 18 -49 39
-64 47 -15 7 -57 19 -93 25 -36 6 -74 11 -85 10z m44 -120 c18 1 49 -8 70 -18
20 -10 49 -30 65 -44 15 -15 27 -32 27 -39 -1 -9 -4 -9 -13 3 -7 8 -37 23 -68
32 -43 14 -65 16 -98 8 -24 -5 -56 -22 -72 -37 -16 -15 -32 -25 -35 -21 -3 3
3 18 14 34 11 15 19 31 18 36 0 4 13 16 29 26 17 11 45 20 63 20z m-130 -184
c2 -23 10 -34 30 -41 17 -7 35 -27 49 -54 l21 -43 -44 -30 c-24 -16 -51 -26
-59 -23 -11 4 -15 23 -15 79 0 41 3 90 7 108 l8 34 3 -30z m172 15 c26 0 33
-6 45 -34 8 -19 20 -38 26 -42 6 -3 20 -27 32 -53 11 -25 21 -68 22 -96 1 -27
-5 -92 -12 -142 -7 -51 -16 -99 -19 -106 -3 -8 -16 -20 -30 -27 -13 -7 -27
-10 -31 -7 -3 4 1 43 11 88 13 58 15 100 11 147 -4 37 -15 99 -25 139 -10 40
-28 86 -40 102 l-21 31 31 0z m271 -270 c15 0 40 -5 54 -10 15 -6 53 -37 85
-70 39 -41 71 -87 98 -143 22 -45 45 -100 52 -121 8 -26 10 -62 6 -110 -4 -39
-9 -96 -10 -128 -2 -31 -7 -77 -10 -102 -4 -25 -11 -46 -17 -46 -5 0 -9 -8 -9
-17 0 -9 -9 -37 -21 -62 -11 -25 -28 -59 -36 -76 -9 -16 -39 -54 -67 -83 -28
-30 -73 -64 -101 -77 -27 -13 -66 -26 -85 -30 -19 -3 -58 -8 -87 -11 -29 -3
-85 -1 -125 6 -40 6 -91 19 -113 29 -22 10 -51 23 -65 28 -14 6 -40 23 -58 38
-18 15 -50 53 -72 84 -21 32 -45 81 -54 111 -11 36 -16 96 -17 186 0 77 4 141
10 153 6 11 11 30 11 43 0 13 6 36 13 51 6 15 15 27 20 27 4 0 7 7 7 16 0 9
21 51 47 93 26 42 67 95 90 118 24 23 52 45 63 48 11 3 20 11 20 16 0 5 12 9
26 9 25 0 26 -2 19 -32 -4 -18 -8 -41 -9 -51 -1 -10 -20 -30 -42 -45 -22 -15
-49 -36 -60 -48 -11 -11 -31 -43 -44 -70 -13 -27 -29 -56 -35 -64 -7 -8 -20
-45 -30 -82 -14 -54 -16 -86 -11 -165 4 -54 9 -109 10 -123 2 -14 7 -34 11
-45 5 -11 18 -33 30 -50 12 -16 25 -40 29 -52 4 -11 21 -32 39 -45 18 -13 54
-37 82 -53 47 -27 56 -28 175 -29 69 0 141 4 160 11 19 6 48 14 63 18 16 3 49
27 74 53 24 26 54 65 65 87 11 22 26 47 32 55 7 8 17 31 23 50 7 19 15 64 20
100 4 36 7 108 6 161 0 74 -6 106 -23 146 -13 32 -42 70 -75 101 -30 27 -71
57 -92 68 -21 10 -55 18 -75 18 l-38 1 0 51 c0 28 3 54 7 57 3 4 19 7 34 7z
m-28 -230 c19 0 44 -8 55 -17 12 -10 33 -26 47 -36 14 -10 37 -36 51 -58 23
-37 24 -46 21 -147 -3 -59 -9 -129 -16 -156 -6 -26 -25 -73 -42 -103 -18 -31
-48 -65 -71 -80 -36 -24 -51 -27 -154 -31 -101 -4 -120 -2 -166 18 -28 12 -64
34 -79 50 -15 15 -35 44 -44 66 -9 21 -19 70 -22 107 -4 40 -1 97 7 138 7 38
19 74 25 79 9 8 19 2 36 -21 13 -17 30 -37 38 -46 9 -9 24 -13 40 -10 14 3 33
1 43 -4 12 -6 31 0 70 26 30 20 69 58 90 90 29 41 38 65 38 95 0 39 1 40 33
40z m-243 -130 c11 0 20 -4 20 -10 0 -5 -9 -10 -20 -10 -11 0 -20 5 -20 10 0
6 9 10 20 10z"/>
</g>
<g>
<path d="M6545 7823 c-37 4 -68 2 -80 -5 -11 -6 -39 -27 -62 -46 -24 -19 -43
-40 -43 -47 0 -7 -7 -15 -15 -19 -8 -3 -15 -15 -15 -26 0 -11 -3 -20 -8 -20
-4 0 -16 -15 -26 -34 -13 -25 -17 -45 -12 -70 5 -27 3 -37 -11 -45 -12 -7 -14
-13 -7 -18 6 -5 11 -61 13 -143 1 -74 4 -142 7 -152 3 -9 -7 -33 -21 -55 -15
-21 -42 -51 -61 -66 -19 -16 -34 -33 -34 -38 0 -6 -11 -25 -24 -42 -13 -18
-26 -47 -30 -66 -3 -19 -13 -43 -22 -52 -11 -12 -19 -52 -25 -128 -7 -75 -6
-117 1 -130 5 -11 10 -36 10 -55 0 -19 7 -55 15 -80 8 -24 17 -57 19 -74 1
-16 12 -44 22 -63 10 -19 35 -50 56 -69 20 -19 51 -46 68 -59 18 -14 62 -35
99 -48 36 -12 93 -28 126 -34 45 -8 84 -8 155 1 52 7 102 18 110 25 8 7 38 18
67 25 29 6 76 28 105 48 28 21 67 57 85 82 17 25 43 59 56 75 13 17 30 46 39
65 9 19 28 64 43 99 14 35 29 93 33 130 4 36 7 109 7 161 0 78 -4 106 -24 155
-14 33 -35 74 -48 92 -13 17 -23 36 -23 42 0 6 -12 22 -27 36 -16 14 -50 39
-78 54 -27 16 -74 34 -103 41 -41 10 -55 18 -63 37 -5 13 -9 54 -9 91 0 37 -5
98 -10 135 -6 38 -17 90 -26 116 -8 27 -29 65 -46 85 -16 20 -51 47 -77 60
-25 13 -73 26 -106 29z m-20 -123 c20 0 50 -6 68 -14 18 -7 45 -28 60 -45 15
-18 27 -41 27 -52 0 -19 -1 -19 -27 -3 -16 10 -45 28 -65 41 -24 17 -44 23
-57 18 -12 -3 -33 -16 -49 -29 -15 -12 -39 -27 -54 -34 -16 -6 -28 -9 -28 -7
0 3 11 23 25 46 14 22 35 49 45 59 12 12 34 20 55 20z m11 -190 c9 0 33 -14
55 -31 28 -22 40 -40 44 -67 4 -20 16 -59 27 -87 18 -43 20 -63 14 -140 -3
-49 -14 -109 -24 -132 -9 -24 -20 -43 -24 -43 -4 0 -10 -16 -14 -35 -3 -20
-17 -44 -31 -55 -14 -11 -36 -20 -48 -20 -12 0 -25 3 -28 6 -4 4 4 20 17 35
14 16 37 54 52 86 16 35 30 87 35 133 5 44 5 96 0 125 -6 28 -28 87 -50 133
-23 45 -41 85 -41 87 0 3 7 5 16 5z m-138 -40 c3 0 19 -15 37 -33 18 -18 35
-46 38 -63 3 -16 9 -41 13 -56 4 -20 2 -28 -7 -28 -7 0 -20 -6 -28 -14 -9 -8
-29 -16 -45 -18 l-29 -3 2 93 c1 52 5 100 8 108 3 8 8 14 11 14z m412 -306 c8
-4 32 -10 52 -14 21 -4 46 -13 55 -21 10 -7 35 -29 56 -48 21 -20 49 -57 62
-82 15 -29 30 -87 40 -157 15 -99 15 -115 1 -154 -8 -25 -23 -60 -34 -79 -11
-19 -23 -47 -26 -64 -4 -16 -22 -50 -41 -75 -19 -25 -41 -52 -50 -61 -8 -9
-15 -20 -15 -26 0 -6 -7 -13 -15 -17 -8 -3 -15 -12 -15 -20 0 -7 -15 -21 -34
-30 -19 -9 -40 -16 -47 -16 -7 0 10 22 37 48 27 26 57 60 67 75 9 14 17 32 17
38 0 7 11 27 25 45 13 17 36 53 50 79 14 27 32 84 41 128 11 52 14 103 11 143
-4 37 -16 83 -31 113 -14 27 -40 61 -58 74 -18 14 -52 34 -75 46 -23 11 -58
21 -78 21 -27 0 -35 4 -35 18 0 10 5 23 12 30 7 7 19 10 28 6z m-332 -15 c6 1
12 -4 12 -9 0 -6 -10 -14 -22 -19 -13 -5 -49 -33 -80 -63 -41 -38 -60 -65 -64
-89 -4 -19 -12 -41 -19 -49 -7 -8 -20 -44 -29 -80 -8 -36 -23 -107 -31 -159
-9 -55 -13 -112 -10 -135 4 -23 21 -66 38 -96 17 -30 40 -67 51 -82 11 -16 24
-28 29 -28 5 0 37 -13 71 -29 33 -16 81 -35 106 -42 44 -14 44 -14 14 -17 -17
-2 -62 4 -100 13 -38 9 -87 27 -111 40 -23 14 -58 45 -77 69 -30 36 -40 60
-57 142 -11 54 -21 128 -20 164 0 36 2 76 5 90 3 14 9 41 12 60 4 19 11 44 17
55 5 11 22 34 36 52 14 17 44 55 66 84 22 28 65 69 95 90 30 21 61 38 68 38z
m310 -158 c20 -4 51 -14 69 -24 18 -9 40 -33 49 -52 11 -23 17 -62 17 -108 0
-40 -2 -79 -5 -87 -3 -8 -12 -32 -22 -52 -9 -21 -16 -45 -16 -54 0 -10 -11
-32 -25 -50 -14 -18 -25 -37 -25 -43 0 -6 -17 -29 -37 -51 -21 -23 -59 -55
-86 -72 -44 -28 -52 -30 -105 -23 -31 3 -83 16 -115 27 -35 13 -68 33 -84 52
-14 17 -35 51 -45 76 -14 32 -18 58 -14 90 3 25 9 74 15 110 5 36 13 76 18 89
l9 24 13 -31 c7 -16 22 -39 34 -50 18 -17 38 -21 101 -23 76 -3 79 -2 102 26
12 16 20 33 18 37 -3 5 -1 14 4 21 5 7 23 38 41 69 17 31 31 63 31 70 0 8 5
19 10 24 6 6 27 8 48 5z"/>
</g>
</g>
<g>
<path d="M16928 9669 c-12 -1 -32 -3 -43 -6 -11 -2 -31 -8 -45 -13 -14 -4 -58
-14 -98 -21 -40 -7 -75 -16 -78 -21 -3 -4 -12 -8 -21 -8 -9 0 -48 -21 -87 -47
-38 -27 -93 -69 -121 -95 -29 -26 -63 -63 -76 -82 -13 -19 -31 -37 -41 -39
-10 -3 -29 -31 -44 -63 -15 -33 -30 -61 -34 -64 -4 -3 -29 -36 -55 -75 -26
-38 -54 -85 -62 -103 -8 -18 -18 -91 -23 -161 -5 -70 -7 -138 -4 -152 3 -13
12 -37 19 -54 7 -16 27 -60 44 -97 17 -37 48 -94 68 -125 20 -32 65 -86 100
-120 34 -35 80 -74 100 -87 21 -13 52 -37 69 -53 17 -15 51 -39 75 -52 24 -13
67 -36 94 -51 28 -15 77 -32 110 -39 33 -6 74 -12 90 -13 24 -2 31 -8 33 -28
1 -14 4 -39 5 -57 1 -18 6 -35 10 -39 4 -4 7 -24 7 -44 l0 -37 -72 5 c-59 4
-91 13 -167 49 -53 25 -105 43 -119 41 -14 -2 -30 -11 -36 -20 -7 -12 -6 -24
3 -42 13 -23 11 -29 -15 -67 -16 -23 -32 -47 -35 -53 -3 -6 -13 -24 -21 -41
-9 -16 -19 -59 -23 -95 -4 -36 -14 -90 -22 -120 -8 -30 -19 -77 -24 -105 -4
-27 -12 -77 -18 -110 -5 -33 -12 -77 -16 -99 -3 -21 -8 -43 -11 -48 -3 -5 -10
-39 -15 -76 -4 -37 -11 -85 -14 -107 -3 -22 -8 -47 -11 -55 -3 -8 -7 -68 -10
-134 -2 -65 -8 -146 -15 -179 -6 -34 -11 -98 -12 -144 -2 -62 2 -86 13 -97 8
-8 26 -16 40 -18 21 -2 25 1 23 20 -2 16 4 25 20 31 23 9 23 11 22 163 0 84
-4 159 -9 166 -5 8 -2 18 8 25 12 9 19 40 25 127 5 63 16 169 25 235 8 66 19
133 25 148 6 16 11 43 11 62 0 18 11 69 25 112 13 43 27 95 30 116 3 20 10 37
14 37 5 0 11 -39 13 -87 3 -49 6 -184 7 -302 1 -118 4 -218 6 -221 2 -4 7 -49
10 -101 3 -52 11 -143 17 -204 7 -60 11 -156 10 -213 -2 -57 1 -109 7 -115 5
-7 17 -79 26 -161 9 -83 18 -153 21 -157 3 -5 9 -66 15 -136 6 -70 12 -166 15
-213 2 -47 11 -121 19 -165 10 -56 15 -170 17 -375 2 -162 2 -311 1 -330 -2
-19 -1 -51 1 -70 2 -19 6 -52 9 -72 4 -22 1 -40 -6 -46 -7 -5 -46 -14 -88 -20
-53 -7 -89 -7 -116 1 -34 9 -44 8 -66 -9 -20 -14 -26 -28 -27 -56 0 -31 4 -37
30 -47 22 -7 65 -7 143 0 62 6 140 13 175 15 51 5 62 9 62 24 0 10 7 20 15 24
12 4 14 18 9 68 -3 35 -9 79 -14 98 -5 19 -11 61 -14 93 -2 31 0 60 5 63 5 3
9 22 9 43 0 21 -4 61 -10 89 -5 28 -12 133 -15 234 -4 101 -8 212 -10 248 -2
36 -8 94 -14 130 -5 36 -12 92 -15 125 -3 33 -10 75 -15 94 -6 19 -8 37 -6 41
3 4 5 57 6 116 0 74 -4 120 -14 144 -8 19 -17 52 -20 73 -4 23 -2 37 5 37 6 0
33 -7 62 -16 28 -9 65 -22 81 -29 17 -7 66 -28 110 -47 44 -20 96 -41 115 -49
19 -7 52 -23 72 -36 21 -13 40 -23 44 -23 3 0 28 -14 55 -32 37 -24 49 -38 50
-57 0 -14 4 -91 9 -171 5 -80 11 -161 13 -180 3 -19 8 -127 12 -240 3 -113 10
-225 15 -250 5 -25 16 -130 24 -235 8 -104 22 -219 31 -255 9 -36 18 -78 20
-95 2 -16 7 -80 11 -141 7 -111 7 -112 -17 -125 -13 -7 -78 -21 -144 -30 -72
-10 -124 -13 -129 -8 -6 5 -13 9 -17 9 -4 0 -19 -16 -34 -35 -20 -28 -25 -42
-20 -65 5 -23 13 -31 40 -36 18 -3 42 -1 54 5 11 6 67 18 123 26 57 8 130 15
164 15 57 0 63 2 88 32 24 29 26 38 20 78 -4 25 -9 61 -11 80 -3 19 -6 78 -7
130 -1 52 -8 105 -15 118 -7 13 -10 31 -6 39 3 9 1 20 -6 23 -6 4 -16 27 -21
51 -6 24 -14 130 -19 234 -5 106 -15 212 -23 240 -8 28 -19 88 -24 135 -5 47
-9 105 -9 130 0 25 -6 133 -13 240 -7 107 -14 239 -15 292 -1 54 -5 101 -8
105 -4 3 -7 17 -7 29 0 13 4 25 8 28 5 3 2 60 -5 128 -8 68 -11 144 -8 169 3
25 1 78 -5 116 -5 39 -12 138 -15 219 -2 82 -10 185 -15 229 -6 44 -13 114
-15 155 -4 57 -2 71 6 57 6 -10 17 -57 24 -105 8 -48 16 -110 19 -138 3 -29 8
-65 12 -80 4 -16 10 -33 14 -39 4 -5 10 -30 14 -55 4 -25 9 -58 12 -75 2 -16
6 -72 9 -124 3 -51 10 -102 15 -112 6 -10 10 -35 10 -56 0 -21 9 -96 20 -168
12 -71 22 -152 24 -179 3 -31 11 -55 24 -69 14 -14 27 -18 45 -13 16 4 27 14
29 29 2 12 9 21 16 20 8 -2 12 10 12 33 0 20 -4 53 -9 73 -5 20 -17 81 -26
136 -8 55 -21 127 -27 160 -6 33 -15 65 -20 72 -5 6 -11 59 -13 117 -2 59 -7
121 -11 139 -4 17 -8 37 -9 42 0 6 -7 30 -14 55 -7 25 -17 52 -21 61 -5 10
-10 53 -11 97 -1 44 -8 97 -15 118 -7 21 -11 41 -8 45 3 5 -3 32 -11 61 -9 29
-22 67 -29 83 -7 17 -18 46 -25 66 -6 19 -11 44 -11 55 0 10 -6 37 -14 59 -7
22 -16 55 -19 73 -6 27 -4 32 13 32 13 0 20 7 20 20 0 11 -4 20 -10 20 -5 0
-21 24 -34 53 -14 28 -28 71 -32 95 -4 23 -10 42 -14 42 -4 0 -13 -7 -21 -16
-10 -12 -23 -14 -56 -9 -23 3 -69 8 -100 11 -32 2 -66 7 -75 10 -10 3 -18 12
-18 20 0 8 -7 29 -16 45 -8 17 -16 54 -16 83 -1 29 2 57 6 64 4 7 17 12 30 12
12 0 45 7 72 16 27 9 66 30 87 46 21 16 55 39 76 51 20 12 60 40 89 62 28 22
51 44 52 49 0 5 25 35 55 67 30 32 55 62 55 68 0 6 20 38 45 72 25 34 45 68
45 76 0 8 15 45 33 81 26 52 36 86 42 152 4 47 8 96 8 110 0 14 -6 57 -12 95
-7 39 -16 77 -21 86 -5 9 -12 38 -16 65 -4 27 -13 63 -20 80 -7 17 -20 36 -28
44 -9 7 -16 22 -16 33 0 11 -20 50 -44 87 -32 48 -58 75 -93 95 -26 15 -59 38
-73 50 -14 13 -45 32 -70 43 -25 10 -67 28 -95 40 -27 11 -68 24 -90 30 -22 5
-70 17 -107 26 -36 9 -77 15 -90 15z m-2 -130 c50 1 98 -7 165 -27 52 -16 106
-35 121 -43 15 -8 60 -33 100 -56 40 -22 85 -54 99 -70 14 -15 41 -55 60 -88
19 -33 34 -64 35 -70 0 -5 7 -26 16 -45 8 -19 20 -52 27 -73 7 -21 10 -49 7
-61 -4 -16 -1 -26 8 -29 11 -4 14 -19 11 -51 -2 -25 1 -48 6 -52 5 -3 7 -14 4
-25 -4 -10 -10 -55 -14 -100 -7 -68 -14 -88 -44 -132 -19 -29 -47 -77 -63
-107 -16 -30 -48 -77 -71 -104 -24 -26 -43 -52 -43 -56 0 -5 -44 -43 -97 -85
-54 -42 -123 -88 -153 -101 -30 -14 -80 -27 -111 -31 -49 -5 -58 -3 -70 15
-12 17 -26 20 -89 21 -44 1 -95 8 -125 19 -27 10 -59 23 -70 30 -16 10 -2 11
79 6 l99 -7 -5 41 c-3 22 -1 45 4 50 6 6 8 18 5 26 -4 9 -17 15 -29 15 -13 -1
-50 1 -83 4 -33 3 -93 11 -134 17 -40 7 -93 9 -116 6 -41 -7 -43 -6 -82 41
-22 26 -58 78 -80 114 -23 36 -49 87 -58 115 -9 27 -20 81 -24 119 -6 53 -4
85 9 135 10 36 32 99 51 140 18 41 35 77 36 79 1 2 21 -13 43 -33 24 -22 50
-36 66 -36 14 0 38 7 54 17 16 9 33 31 40 53 7 20 9 47 5 59 -4 12 -18 26 -32
32 -13 5 -40 9 -59 9 -25 0 -34 4 -30 13 3 6 9 19 12 27 4 8 32 37 63 63 31
26 79 67 106 90 28 24 81 54 120 68 39 15 90 34 115 42 25 9 77 16 116 16z
m-207 -1793 c14 -8 62 -17 106 -20 44 -4 103 -13 130 -21 28 -7 82 -21 120
-31 39 -9 84 -19 101 -22 l31 -4 0 -86 c-1 -48 3 -163 7 -257 4 -93 13 -186
18 -205 6 -19 14 -78 19 -130 4 -52 12 -129 18 -170 6 -41 13 -124 17 -185 4
-60 10 -171 14 -245 4 -74 11 -163 15 -197 5 -50 4 -63 -7 -63 -7 1 -24 7 -38
15 -14 8 -35 14 -48 15 -13 0 -35 13 -50 29 -21 22 -61 40 -167 76 -77 25
-149 50 -160 55 -11 5 -30 12 -43 15 -13 4 -37 20 -54 37 -18 17 -33 40 -34
52 -2 12 -8 75 -15 141 -6 66 -13 140 -15 165 -2 25 -6 115 -9 200 -2 85 -8
227 -11 315 -3 88 -6 205 -6 260 0 55 2 133 5 173 3 40 11 80 17 87 10 12 16
12 39 1z"/>
<g>
<path d="M16980 9039 c-14 0 -38 -5 -54 -9 -16 -5 -40 -22 -52 -37 -13 -15
-23 -39 -23 -53 -1 -14 3 -30 7 -36 4 -7 25 -19 47 -28 33 -14 47 -15 81 -6
27 8 46 21 58 41 12 20 15 39 10 64 -3 20 -16 42 -27 50 -12 8 -33 15 -47 14z"/>
</g>
<g>
<path d="M16640 8949 c-15 0 -42 -16 -70 -42 -25 -23 -59 -61 -75 -85 -15 -24
-43 -56 -62 -72 -18 -16 -33 -32 -33 -36 0 -4 -11 -22 -25 -40 -14 -18 -25
-43 -25 -57 0 -13 10 -33 23 -45 16 -15 36 -22 64 -22 24 0 46 -6 53 -15 7 -8
23 -15 36 -15 16 0 31 12 49 37 14 21 25 46 25 55 0 10 -7 18 -15 18 -8 0 -23
4 -33 9 -9 5 -25 12 -35 15 -18 6 -18 7 1 33 11 16 56 67 101 115 45 47 81 94
81 103 0 10 -8 24 -17 31 -10 7 -29 13 -43 13z"/>
</g>
</g>
<g>
<path d="M10779 4906 c-19 3 -38 1 -44 -4 -5 -5 -29 -16 -51 -25 -29 -11 -44
-13 -52 -5 -6 6 -23 7 -41 3 -18 -4 -39 -18 -49 -33 -9 -15 -21 -30 -26 -34
-6 -4 -23 -4 -38 -1 -15 3 -43 -1 -60 -8 -18 -7 -52 -25 -76 -40 -24 -15 -62
-31 -85 -34 -23 -4 -49 -12 -59 -19 -13 -8 -23 -8 -38 2 -11 6 -31 12 -45 12
-15 0 -41 -15 -65 -36 -22 -20 -40 -42 -40 -48 0 -7 -10 -22 -23 -34 -13 -12
-34 -22 -46 -22 -13 0 -41 -13 -64 -29 -23 -16 -62 -35 -86 -41 -24 -6 -60 -9
-79 -5 -19 4 -44 12 -56 20 -14 8 -29 10 -42 5 -12 -5 -25 -13 -29 -19 -3 -6
-25 -11 -49 -11 -29 0 -48 -6 -59 -18 -10 -10 -17 -24 -17 -32 0 -9 -10 -11
-42 -5 -24 4 -54 8 -67 7 -13 0 -40 -7 -60 -16 -20 -9 -49 -21 -66 -27 -16 -6
-32 -11 -35 -11 -3 -1 -20 -7 -39 -15 -29 -12 -35 -12 -50 1 -10 9 -29 16 -44
16 -17 0 -39 -13 -62 -35 -19 -20 -35 -39 -35 -44 0 -5 -19 -13 -42 -19 -24
-6 -75 -18 -114 -27 -38 -9 -86 -17 -104 -17 -19 -1 -58 -14 -86 -30 -29 -15
-63 -28 -77 -28 -13 0 -51 -14 -83 -32 -49 -26 -71 -32 -131 -33 -60 -1 -77
-6 -105 -27 -25 -19 -50 -26 -103 -31 -38 -3 -89 -1 -113 5 -40 10 -45 9 -70
-15 -15 -14 -42 -28 -61 -32 -22 -5 -31 -4 -27 3 4 6 3 29 0 52 -4 23 -11 39
-18 37 -6 -2 -16 -14 -22 -26 -6 -12 -24 -36 -40 -52 -16 -17 -45 -38 -64 -47
-19 -9 -40 -23 -47 -32 -6 -9 -29 -22 -50 -28 -21 -6 -67 -16 -103 -22 -36 -7
-83 -16 -105 -20 -22 -5 -65 -14 -95 -20 -30 -6 -59 -16 -65 -21 -5 -5 -23 -9
-40 -9 -17 0 -40 -6 -50 -14 -12 -8 -33 -12 -56 -9 -23 4 -40 1 -47 -8 -6 -8
-22 -27 -36 -44 -20 -25 -30 -29 -64 -26 -26 1 -50 -4 -66 -15 -17 -10 -45
-16 -77 -15 -45 1 -52 -2 -66 -27 -9 -16 -30 -36 -46 -45 -16 -9 -43 -17 -61
-17 -18 0 -69 -18 -115 -40 -45 -22 -86 -38 -91 -35 -4 2 -10 18 -14 35 -3 17
-12 33 -21 36 -8 4 -30 -6 -49 -22 -19 -16 -42 -43 -50 -61 -9 -17 -25 -35
-36 -38 -11 -4 -36 -1 -54 5 -19 6 -45 8 -58 5 -14 -4 -45 -26 -71 -49 -30
-29 -62 -47 -93 -55 -33 -8 -50 -9 -57 -2 -6 6 -21 11 -33 11 -14 0 -35 -18
-63 -54 -23 -30 -49 -57 -57 -60 -9 -3 -18 -6 -20 -6 -2 0 -4 15 -4 33 0 26
-6 37 -25 47 -22 12 -28 12 -41 -2 -8 -8 -17 -30 -19 -49 -2 -19 -8 -46 -14
-61 -7 -20 -21 -30 -50 -38 -22 -6 -57 -18 -78 -28 -21 -9 -49 -27 -62 -39
-22 -21 -23 -24 -8 -46 8 -13 26 -62 40 -108 14 -46 30 -105 36 -132 6 -26 11
-58 11 -72 0 -18 19 -38 81 -86 45 -34 100 -81 123 -104 22 -23 61 -53 86 -66
25 -13 53 -30 62 -37 9 -8 38 -25 64 -38 26 -13 51 -24 56 -24 5 0 36 -18 69
-40 33 -22 66 -40 73 -40 6 0 16 -4 21 -9 6 -5 28 -15 50 -22 22 -7 49 -13 60
-12 11 0 26 -8 33 -18 7 -11 25 -19 41 -19 15 0 36 -9 45 -19 10 -11 47 -31
82 -45 35 -14 75 -26 88 -26 14 0 37 -7 53 -14 15 -8 35 -18 43 -21 8 -3 29
-14 45 -25 17 -11 43 -26 58 -35 15 -9 32 -13 37 -10 5 3 17 1 27 -4 10 -5 51
-21 90 -36 40 -16 81 -37 90 -48 10 -10 30 -26 46 -33 18 -10 40 -12 62 -8 19
3 39 12 46 20 6 8 22 14 36 14 13 0 36 6 51 14 15 7 43 16 63 20 21 4 50 13
65 20 16 8 52 24 79 36 28 11 59 25 70 29 11 5 43 15 70 24 28 8 63 18 79 22
17 3 42 15 57 26 15 10 34 19 43 19 8 0 50 16 93 36 43 20 119 55 169 79 49
24 104 55 121 69 17 14 37 26 45 26 7 0 19 9 26 20 7 11 18 20 26 20 7 0 19 7
26 15 7 8 22 15 35 15 12 0 44 11 71 25 27 14 53 25 58 25 6 0 39 18 76 40 38
23 99 48 144 60 43 11 84 24 90 29 6 4 29 12 50 15 21 4 48 13 60 20 12 8 46
21 76 31 30 10 78 26 105 36 28 9 84 30 125 45 41 16 90 39 109 51 19 13 38
23 44 23 5 0 46 18 90 40 45 23 86 45 91 49 6 5 27 12 46 16 19 4 41 11 50 16
8 4 47 18 85 30 39 12 86 29 105 39 19 10 51 24 70 31 19 6 70 32 112 57 43
25 83 51 89 58 6 8 18 14 25 14 8 0 14 4 14 8 0 5 19 19 43 32 23 13 64 38 92
57 27 18 59 33 70 33 11 0 37 11 57 25 20 14 40 25 43 25 3 0 32 12 63 26 31
14 93 43 137 65 44 22 85 39 91 39 6 0 51 20 100 44 49 24 116 53 149 66 33
12 69 26 80 31 11 4 52 19 90 32 39 14 95 36 125 50 30 13 75 32 100 41 25 9
53 16 63 16 9 0 17 4 17 9 0 5 21 14 48 20 26 7 64 21 84 31 21 11 52 21 70
23 18 2 62 16 98 31 36 15 72 31 80 36 10 4 14 18 12 38 -2 16 1 33 6 36 6 4
3 26 -9 56 -10 28 -19 58 -19 67 0 9 7 24 16 34 14 16 14 19 -4 37 -10 10 -27
32 -36 48 -10 17 -41 40 -74 57 -31 15 -64 27 -73 27 -9 0 -38 21 -65 46 -27
25 -57 50 -66 55 -10 5 -18 16 -18 24 0 8 -11 22 -25 31 -13 8 -32 13 -43 10
-12 -4 -25 1 -36 13 -10 11 -25 35 -34 53 -13 25 -24 34 -49 36 -18 2 -41 -2
-53 -8 -14 -8 -26 -8 -40 0 -11 6 -29 33 -41 61 -12 27 -30 54 -40 59 -10 6
-27 10 -38 10 -12 0 -21 -4 -21 -9 0 -5 -7 -11 -15 -15 -8 -3 -24 4 -34 15
-11 12 -23 38 -26 59 -5 30 -13 41 -37 51 -22 9 -38 10 -58 2 -23 -9 -31 -7
-47 9 -11 10 -35 21 -54 24z m-33 -156 c3 0 17 -9 31 -20 14 -11 31 -20 37
-20 6 0 28 -5 49 -11 20 -5 51 -23 68 -40 16 -16 38 -29 49 -29 11 0 37 -7 57
-15 21 -8 56 -33 77 -55 30 -32 46 -40 73 -40 19 0 48 -9 64 -21 19 -13 29
-29 29 -45 0 -14 11 -36 25 -49 13 -14 31 -25 39 -25 8 0 18 5 21 10 3 6 12
10 19 10 7 0 19 -15 27 -32 11 -27 21 -34 49 -36 19 -2 42 -10 51 -18 9 -8 30
-19 45 -23 16 -4 29 -14 29 -22 0 -7 -9 -15 -20 -18 -11 -2 -32 -12 -47 -22
-14 -11 -30 -19 -36 -19 -5 0 -16 -10 -24 -21 -12 -19 -17 -20 -36 -10 -21 11
-21 12 -2 31 11 11 20 28 20 38 0 10 -7 28 -16 40 -8 12 -25 22 -38 22 -12 0
-33 -11 -46 -25 -24 -25 -24 -26 -7 -58 10 -18 15 -39 12 -47 -3 -8 -25 -27
-48 -41 -23 -15 -53 -30 -67 -34 -14 -4 -37 -16 -52 -26 -14 -11 -32 -19 -38
-19 -7 0 -33 -11 -59 -24 -25 -13 -63 -29 -84 -35 -33 -11 -40 -11 -51 4 -6 9
-31 21 -55 26 -38 9 -48 7 -76 -13 -18 -12 -41 -35 -50 -50 -15 -26 -20 -28
-60 -23 -33 4 -48 0 -68 -15 -14 -12 -41 -48 -59 -80 -18 -33 -41 -63 -51 -66
-10 -3 -26 1 -36 10 -10 9 -26 16 -35 16 -10 0 -34 -16 -54 -36 -32 -32 -38
-34 -59 -23 -18 9 -31 10 -61 1 -38 -12 -39 -13 -45 -68 -5 -47 -11 -60 -42
-88 -25 -23 -43 -32 -56 -29 -13 4 -25 -2 -35 -16 -8 -11 -23 -21 -32 -21 -9
0 -28 -7 -42 -14 -14 -8 -47 -26 -75 -40 -27 -15 -66 -35 -85 -46 -19 -11 -55
-29 -80 -40 -25 -11 -52 -24 -60 -29 -8 -5 -34 -17 -58 -27 -27 -11 -49 -29
-58 -46 -8 -16 -19 -26 -24 -23 -5 3 -28 -4 -50 -15 -32 -16 -51 -19 -90 -14
-40 5 -50 4 -50 -8 0 -8 -10 -24 -23 -36 -13 -12 -61 -33 -108 -47 -46 -14
-97 -32 -114 -39 -16 -8 -55 -22 -85 -32 -30 -9 -73 -23 -94 -31 -22 -8 -87
-30 -144 -49 -58 -19 -111 -33 -118 -30 -8 3 -14 15 -14 26 0 16 -6 20 -33 20
-21 0 -41 -8 -52 -21 -16 -16 -17 -25 -8 -48 10 -28 10 -29 -57 -55 -37 -14
-71 -26 -75 -26 -4 0 -37 -14 -74 -30 -36 -17 -79 -37 -94 -45 -16 -8 -39 -15
-51 -15 -12 0 -32 -7 -44 -16 -12 -8 -32 -17 -43 -19 -12 -3 -31 -12 -41 -22
-11 -10 -34 -18 -51 -18 -18 -1 -71 -20 -120 -44 -48 -24 -94 -40 -103 -37 -9
3 -18 15 -21 26 -4 13 -14 20 -30 20 -17 0 -51 -23 -105 -72 -44 -40 -99 -81
-122 -91 -22 -10 -66 -26 -96 -34 -30 -9 -62 -16 -71 -17 -9 -1 -32 -12 -53
-24 -20 -12 -46 -22 -57 -22 -10 0 -28 -6 -39 -12 -17 -11 -22 -9 -35 10 -9
12 -24 22 -34 22 -10 0 -32 5 -50 11 -17 6 -31 16 -31 23 0 7 -11 23 -25 36
l-25 24 27 28 c26 28 27 28 10 63 -12 25 -23 35 -39 35 -13 -1 -33 -9 -45 -19
-13 -11 -23 -30 -23 -44 0 -13 7 -30 16 -38 14 -11 12 -15 -18 -29 l-33 -16
-37 38 c-25 27 -45 38 -65 38 -16 0 -34 -5 -40 -11 -7 -7 -15 -2 -26 15 -11
16 -30 28 -53 32 -25 5 -47 1 -71 -10 -20 -9 -38 -14 -41 -11 -4 3 -13 29 -22
58 -12 40 -21 53 -37 55 -12 2 -35 -6 -50 -17 -15 -11 -39 -23 -53 -26 -22 -5
-27 -1 -38 28 -7 18 -12 42 -12 53 0 17 5 20 29 16 22 -3 36 2 55 21 14 15 26
33 26 42 0 9 -16 23 -37 31 -34 15 -38 14 -62 -4 -16 -12 -25 -28 -24 -41 2
-14 -3 -21 -13 -21 -10 0 -14 6 -10 15 4 11 -2 15 -23 15 -16 0 -41 -12 -61
-30 -19 -17 -39 -29 -44 -27 -6 2 -12 21 -14 43 -2 21 -9 45 -15 52 -7 9 -23
11 -48 7 -31 -5 -39 -3 -48 13 -6 11 -18 28 -27 36 -8 9 -22 16 -30 16 -8 0
-19 -11 -24 -25 -5 -14 -17 -25 -25 -25 -9 0 -18 7 -21 15 -3 8 -14 17 -24 20
-10 3 -21 16 -24 30 -3 13 -18 37 -32 54 -14 17 -32 31 -39 31 -8 0 -20 -7
-28 -15 -13 -13 -20 -9 -56 30 -23 25 -46 57 -51 71 -6 14 -10 30 -10 35 0 5
8 9 18 9 9 1 29 11 43 23 15 12 30 31 33 42 3 11 22 28 42 38 26 12 40 14 54
7 10 -5 23 -10 27 -10 5 0 40 20 77 45 38 25 76 45 85 45 9 0 26 7 38 15 12 8
43 18 70 22 26 3 57 12 68 18 11 7 49 18 85 25 36 6 74 15 85 19 11 5 45 15
75 24 30 9 68 19 84 22 16 3 57 20 93 37 52 26 66 29 73 18 4 -7 6 -27 4 -44
-2 -20 3 -36 16 -48 10 -10 23 -18 28 -18 5 0 21 11 37 24 22 19 26 29 21 49
-3 14 -13 27 -22 29 -14 3 -13 7 5 30 16 19 34 28 70 33 37 5 56 15 81 40 28
29 37 32 70 28 28 -4 42 -1 57 14 10 10 60 34 111 52 89 32 98 33 203 28 l110
-5 36 35 c19 20 58 51 85 69 28 19 56 34 62 34 7 0 18 -11 24 -25 8 -16 20
-25 35 -25 15 0 36 15 60 44 20 24 51 51 68 60 18 9 34 16 36 16 2 0 1 -5 -2
-10 -4 -6 1 -23 12 -38 10 -15 23 -36 28 -47 8 -13 20 -19 39 -18 19 1 47 23
99 77 40 41 84 79 98 85 15 5 78 8 141 6 l115 -4 34 30 c19 17 53 44 77 60 24
16 50 29 58 29 7 0 14 -4 14 -9 0 -5 14 -11 31 -15 26 -5 38 0 72 29 22 19 47
35 54 35 7 0 13 -9 13 -20 0 -10 9 -24 19 -30 11 -5 28 -10 39 -10 13 0 24 12
33 33 7 17 26 44 42 60 15 15 33 28 40 28 7 1 16 1 21 0 5 -1 44 10 87 24 44
15 90 28 102 30 12 1 49 12 83 23 50 17 70 20 120 12 32 -4 66 -11 75 -15 11
-4 26 5 45 29 16 19 42 40 59 46 16 6 67 13 113 16 47 2 99 11 118 20 19 9 44
14 56 11 12 -4 34 1 50 11 15 9 31 24 34 34 3 10 27 28 52 39 26 12 56 25 67
29 11 4 52 20 90 35 39 15 87 35 108 46 22 10 46 19 56 19 9 0 25 6 36 13 11
7 40 19 65 26 25 6 66 19 91 26 26 8 49 15 52 15 3 0 7 -10 9 -22 2 -17 12
-24 40 -30 21 -4 49 -3 63 2 14 5 28 17 32 26 3 9 1 25 -6 35 -6 11 -8 19 -5
19z m935 -626 c4 -2 10 -16 13 -30 4 -15 2 -32 -5 -40 -6 -8 -24 -14 -39 -14
-15 0 -33 -7 -40 -15 -7 -8 -19 -15 -26 -15 -8 0 -22 -4 -32 -9 -9 -4 -30 -15
-47 -23 -16 -9 -57 -23 -90 -32 -33 -9 -69 -20 -80 -25 -11 -4 -40 -17 -65
-29 -25 -12 -74 -31 -110 -42 -36 -11 -74 -20 -86 -20 -11 0 -38 -9 -60 -19
-21 -11 -49 -29 -61 -40 -12 -12 -28 -21 -36 -21 -8 0 -22 -9 -32 -20 -10 -11
-28 -20 -41 -20 -13 0 -26 -4 -29 -10 -3 -5 -27 -19 -52 -30 -25 -11 -51 -19
-57 -19 -6 1 -20 -2 -31 -6 -11 -5 -22 -11 -25 -14 -3 -3 -15 -12 -27 -18 -13
-7 -33 -13 -46 -13 -13 0 -44 -13 -70 -29 -25 -17 -62 -33 -81 -36 -19 -4 -40
-13 -47 -21 -6 -8 -17 -14 -23 -14 -6 0 -24 -7 -40 -15 -15 -8 -32 -13 -37
-10 -4 3 12 26 37 50 24 25 54 45 65 45 11 0 33 10 49 22 19 13 42 21 65 20
28 -1 43 5 63 27 15 16 45 34 67 41 22 7 44 19 48 26 4 8 15 14 23 14 9 0 45
16 80 35 35 19 70 35 78 35 9 0 31 14 49 30 19 17 43 30 54 30 11 0 29 9 41
20 12 11 26 20 33 20 6 0 30 10 53 21 22 12 48 25 56 29 8 4 29 5 47 3 25 -4
38 1 63 26 18 17 49 33 69 37 20 4 44 11 55 16 13 7 26 6 42 -3 22 -11 28 -10
62 22 20 20 56 41 79 49 23 7 48 10 57 7 8 -3 25 2 38 13 13 10 26 16 29 14z
m-3612 -144 c12 0 21 -6 21 -16 0 -9 -7 -14 -17 -12 -9 2 -18 9 -21 16 -2 7 5
12 17 12z m2805 -30 c8 -8 6 -14 -4 -20 -8 -5 -21 -10 -29 -10 -11 0 -10 5 4
20 13 15 22 17 29 10z m-626 -480 c2 -6 -1 -17 -7 -23 -6 -6 -14 -8 -17 -4 -4
4 -1 14 7 23 9 11 15 12 17 4z m-237 -111 c3 1 14 -5 24 -13 15 -11 17 -17 8
-27 -6 -8 -33 -25 -59 -39 -26 -14 -56 -33 -66 -42 -10 -10 -24 -18 -32 -18
-7 0 -24 -9 -38 -19 -13 -11 -42 -22 -64 -26 -21 -4 -49 -13 -61 -21 -12 -8
-31 -14 -42 -14 -11 0 -23 -4 -26 -10 -3 -5 -16 -10 -28 -10 -13 0 -31 -6 -42
-13 -11 -7 -40 -19 -65 -27 -25 -7 -54 -22 -66 -32 -11 -10 -29 -18 -40 -18
-11 0 -30 -9 -42 -20 -12 -11 -26 -20 -32 -20 -5 0 -10 4 -10 10 0 5 12 17 28
27 15 9 35 25 45 35 9 9 34 22 55 27 20 6 82 33 136 60 54 27 105 47 113 44 8
-3 35 13 63 36 27 22 57 41 68 41 11 0 32 10 48 22 15 13 49 33 74 45 25 12
48 22 51 22z m-4406 -379 c3 0 21 -7 40 -14 23 -10 35 -22 35 -35 0 -16 9 -21
46 -27 25 -3 58 -17 73 -30 15 -12 39 -26 53 -29 21 -5 27 -16 38 -60 11 -47
17 -56 44 -65 26 -9 33 -8 44 7 7 10 17 24 21 31 5 9 17 11 34 7 16 -4 33 -20
45 -43 13 -25 28 -39 50 -44 18 -5 39 -20 48 -33 15 -23 20 -24 70 -19 42 5
59 3 81 -11 15 -10 34 -26 41 -36 7 -10 29 -21 50 -25 20 -3 47 -12 59 -20 12
-8 29 -14 38 -14 9 0 19 -8 22 -17 4 -10 14 -23 22 -30 9 -7 26 -13 39 -13 13
0 37 -7 55 -16 18 -9 66 -40 108 -68 41 -28 85 -57 97 -63 12 -7 29 -13 37
-13 9 0 18 -7 21 -15 4 -8 23 -23 43 -32 20 -9 46 -25 58 -36 12 -10 20 -25
17 -33 -2 -8 -6 -21 -9 -29 -3 -11 -9 -13 -22 -6 -10 5 -45 17 -78 25 -33 9
-85 24 -114 34 -30 9 -67 27 -82 39 -15 13 -35 23 -46 23 -10 0 -28 6 -39 14
-11 8 -40 19 -64 25 -25 7 -58 18 -75 26 -16 7 -37 16 -45 19 -8 3 -22 10 -30
15 -8 5 -33 17 -55 26 -22 10 -48 22 -57 26 -10 5 -25 9 -33 9 -8 0 -61 23
-117 52 -57 29 -104 56 -106 60 -2 4 -8 8 -13 8 -6 0 -49 19 -97 41 -48 23
-101 56 -118 73 -17 17 -53 49 -79 71 -27 22 -67 58 -89 80 -24 23 -47 57 -54
81 -6 23 -12 51 -12 63 0 11 2 21 5 21z m3696 0 c5 0 9 -4 9 -10 0 -5 -7 -10
-16 -10 -8 0 -12 5 -9 10 3 6 10 10 16 10z m-95 -20 c13 0 25 -4 29 -10 3 -5
-8 -16 -24 -25 -17 -8 -37 -15 -46 -15 -8 0 -15 3 -15 7 0 3 7 15 17 25 9 10
26 18 39 18z m-235 -50 c10 0 23 -8 28 -18 7 -13 6 -23 -1 -30 -7 -7 -20 -12
-30 -12 -10 0 -46 -13 -80 -30 -34 -16 -69 -30 -78 -30 -9 0 -25 -7 -36 -15
-10 -8 -32 -15 -48 -15 -26 0 -28 2 -22 28 4 15 15 33 24 40 9 7 26 10 37 7
11 -4 31 -9 45 -12 19 -3 40 7 84 41 32 25 67 46 77 46z m-445 -200 c2 0 4 -4
4 -10 0 -5 -5 -10 -11 -10 -5 0 -7 5 -4 10 3 6 8 10 11 10z m-344 -80 c4 0 8
-7 8 -15 0 -8 -4 -15 -9 -15 -6 0 -12 4 -15 9 -3 4 -3 11 1 15 3 3 10 6 15 6z
m133 -20 c2 0 7 -4 10 -10 3 -5 -1 -10 -10 -10 -9 0 -13 5 -10 10 3 6 8 10 10
10z m-249 -50 c11 0 30 -9 42 -20 12 -12 22 -28 21 -38 0 -10 -22 -28 -57 -45
-31 -16 -111 -56 -177 -89 -66 -34 -167 -77 -225 -98 -58 -20 -116 -42 -130
-50 -14 -8 -29 -13 -34 -12 -4 2 -19 -4 -32 -13 -12 -8 -53 -26 -91 -40 -37
-14 -99 -33 -138 -41 -38 -8 -80 -17 -91 -19 -19 -4 -22 1 -28 57 -6 46 -4 63
6 69 7 5 23 9 36 9 12 0 31 6 42 12 15 10 22 10 32 0 6 -6 22 -12 34 -12 13 0
31 11 42 25 10 13 49 35 86 49 37 14 89 28 116 32 27 3 63 16 81 28 18 11 45
28 59 37 15 9 40 20 58 23 17 4 36 13 42 21 6 8 17 12 25 9 7 -3 44 11 82 30
39 20 79 36 89 36 11 1 35 9 54 20 19 11 44 19 56 20z m-1201 -110 c9 -7 13
-15 11 -17 -3 -3 -9 -2 -15 2 -6 3 -11 11 -11 17 0 6 6 6 15 -2z m147 -30 c5
0 13 -12 19 -27 5 -16 8 -32 7 -38 -2 -5 -10 -9 -18 -7 -8 2 -31 11 -50 20
-31 14 -32 17 -13 20 12 2 27 10 33 18 7 8 17 14 22 14z"/>
<g>
<path d="M10686 4490 c-12 0 -26 -3 -30 -7 -4 -5 -12 -9 -17 -9 -5 -1 -10 -2
-11 -4 -2 -1 -12 -4 -23 -7 -11 -3 -45 -5 -76 -5 -49 1 -59 -2 -84 -28 l-28
-29 36 -33 c20 -18 50 -40 66 -50 22 -12 30 -25 33 -50 3 -29 7 -33 34 -36 18
-2 39 -11 48 -21 12 -13 14 -24 6 -50 -6 -22 -6 -40 1 -52 6 -12 21 -19 38
-19 16 0 34 6 40 14 6 7 29 16 52 20 22 3 50 11 62 18 12 6 30 15 39 20 10 4
26 8 37 8 10 0 21 7 25 15 3 8 15 15 26 15 17 0 20 6 20 45 0 25 -3 45 -7 45
-3 0 -33 -13 -67 -29 -44 -20 -74 -27 -106 -26 -29 2 -48 9 -55 19 -8 13 -5
21 15 36 14 11 34 20 45 20 11 0 33 14 49 30 27 29 28 32 11 50 -11 12 -26 17
-44 15 -14 -3 -35 -6 -46 -7 -13 -2 -19 2 -17 11 1 7 -9 28 -23 47 -16 21 -35
34 -49 34z"/>
</g>
<g>
<path d="M10165 4448 c-6 5 -24 5 -40 0 -17 -6 -38 -23 -48 -40 -9 -16 -17
-39 -17 -51 1 -12 16 -44 35 -72 l34 -50 -36 -9 c-32 -8 -39 -6 -56 15 -10 13
-38 29 -61 36 -37 11 -44 11 -68 -7 -16 -12 -40 -19 -57 -18 -18 1 -38 -6 -51
-17 -18 -16 -21 -28 -17 -62 2 -24 10 -50 18 -59 7 -8 36 -27 63 -41 28 -14
58 -32 66 -40 8 -7 35 -27 60 -43 26 -17 59 -30 77 -30 22 0 36 6 43 19 5 11
10 36 10 56 0 33 2 35 25 29 14 -3 36 -3 49 0 14 3 28 15 31 26 4 11 24 29 46
40 21 11 39 25 39 30 0 6 22 -6 49 -25 27 -19 54 -42 61 -50 7 -8 25 -15 40
-15 16 0 30 5 32 12 2 6 24 14 49 17 43 6 44 7 47 47 3 34 -2 46 -26 70 -17
16 -45 40 -63 54 -18 13 -44 26 -58 28 -14 2 -33 11 -41 21 -8 11 -43 33 -76
50 -34 18 -70 41 -79 51 -10 11 -30 20 -45 20 -14 0 -30 4 -35 8z"/>
</g>
<g>
<path d="M9467 4175 c-60 0 -123 -4 -141 -10 -19 -5 -49 -24 -67 -40 -19 -17
-58 -57 -86 -89 -50 -54 -53 -61 -53 -111 0 -34 5 -57 15 -65 8 -7 15 -18 15
-26 0 -7 9 -18 21 -24 12 -7 85 -12 178 -13 l157 -2 75 38 c40 21 88 51 104
65 17 15 40 40 53 56 12 16 22 43 22 60 0 23 -9 41 -32 64 -18 17 -60 46 -93
64 -57 31 -65 33 -168 33z m-7 -112 c30 -2 69 -6 86 -9 18 -2 44 -14 58 -25
25 -20 26 -22 9 -35 -10 -8 -36 -23 -58 -34 -22 -11 -53 -28 -69 -37 -16 -8
-64 -19 -107 -24 -48 -6 -87 -5 -103 1 -15 5 -26 17 -26 27 0 10 14 35 30 57
16 22 50 48 77 61 37 17 61 21 103 18z"/>
</g>
<g>
<path d="M8877 3999 c-7 -1 -21 -3 -32 -6 -11 -3 -24 -9 -29 -14 -6 -5 -17 -9
-26 -9 -9 0 -46 -32 -83 -70 -46 -48 -67 -78 -67 -95 0 -14 -4 -25 -10 -25 -5
0 -17 -25 -25 -55 -13 -44 -14 -62 -5 -90 8 -24 22 -40 44 -50 18 -9 37 -15
42 -14 5 1 22 -1 37 -6 18 -4 45 -3 70 5 23 7 51 16 62 20 11 4 50 19 88 34
37 14 76 26 86 26 10 0 21 6 24 13 2 7 28 19 56 26 29 7 51 19 51 26 0 8 -10
22 -23 32 -13 10 -26 26 -30 36 -3 9 -14 17 -24 17 -10 0 -36 -9 -57 -21 -22
-12 -51 -23 -65 -25 -14 -2 -37 -7 -51 -10 -14 -3 -51 -19 -83 -35 -34 -17
-70 -29 -85 -27 -22 2 -26 7 -24 27 2 14 20 48 40 77 21 28 51 61 68 73 18 12
47 26 66 32 22 5 39 18 46 34 6 14 9 31 6 39 -3 7 -16 18 -30 25 -14 6 -30 10
-37 10z"/>
</g>
<g>
<path d="M8283 3940 c-11 0 -27 -8 -37 -18 -11 -13 -14 -28 -10 -51 4 -17 15
-36 25 -41 10 -6 26 -10 37 -10 10 0 26 8 35 18 10 10 17 28 17 39 0 11 -10
29 -23 41 -13 12 -32 22 -44 22z"/>
</g>
<g>
<path d="M8233 3780 c-7 0 -20 -11 -29 -24 -8 -14 -14 -35 -12 -48 2 -13 15
-28 32 -37 26 -12 31 -12 43 5 9 12 12 32 9 53 -3 19 -11 38 -18 43 -7 4 -19
8 -25 8z"/>
</g>
<g>
<path d="M9985 3710 c-7 0 -25 -14 -39 -31 -14 -17 -26 -34 -26 -39 0 -5 12
-18 27 -30 15 -11 36 -20 47 -18 11 2 25 16 32 35 12 28 11 34 -7 57 -11 14
-26 26 -34 26z"/>
</g>
<g>
<path d="M7802 3650 c-24 6 -37 4 -47 -7 -8 -8 -15 -30 -15 -49 0 -29 4 -35
28 -40 15 -3 50 -12 78 -20 28 -7 59 -23 69 -34 10 -11 22 -20 27 -20 5 0 33
-18 62 -40 29 -22 58 -40 65 -40 7 0 24 -9 38 -20 14 -11 41 -24 60 -29 29 -8
43 -6 74 9 21 11 45 20 54 20 8 0 15 -8 15 -18 0 -10 10 -28 23 -40 13 -12 31
-22 40 -22 9 0 19 5 22 10 4 6 16 10 28 8 17 -2 23 3 25 21 2 13 -6 36 -17 52
-11 15 -17 30 -13 32 4 2 26 10 50 17 24 7 47 22 53 31 6 12 5 20 -2 24 -6 4
-8 18 -5 31 5 19 1 27 -20 36 -21 10 -34 9 -73 -6 -25 -9 -70 -23 -98 -30 -29
-7 -59 -18 -66 -25 -8 -6 -34 -14 -59 -17 -39 -5 -55 -1 -119 31 -41 20 -81
43 -89 50 -8 7 -46 27 -85 45 -38 18 -85 36 -103 40z"/>
</g>
<g>
<path d="M9276 3559 c-12 -1 -32 -4 -46 -6 -14 -2 -36 -12 -49 -22 l-24 -18
24 -16 c13 -8 45 -18 71 -21 43 -6 48 -5 64 19 16 24 16 27 -1 45 -10 11 -28
19 -39 19z"/>
</g>
<g>
<path d="M7468 3550 c-18 0 -40 -5 -49 -10 -9 -5 -38 -14 -65 -20 -27 -6 -68
-21 -92 -33 -35 -17 -47 -19 -62 -9 -18 11 -22 7 -45 -42 -14 -29 -25 -64 -25
-78 0 -15 13 -36 35 -55 19 -17 35 -37 36 -45 0 -7 20 -30 44 -51 24 -21 51
-40 59 -41 9 -1 36 -21 61 -44 25 -23 57 -49 73 -59 15 -9 44 -32 65 -50 20
-18 48 -33 61 -33 13 0 32 3 41 6 9 4 20 17 25 30 5 13 28 31 57 44 26 11 55
28 64 36 9 8 36 25 60 37 24 12 45 30 47 39 2 10 -5 29 -15 42 -10 14 -24 26
-32 26 -7 0 -59 -22 -115 -49 -55 -27 -114 -52 -129 -55 -21 -5 -38 1 -72 24
-25 17 -45 35 -45 40 0 6 6 10 13 10 6 0 32 11 57 23 25 12 59 31 75 42 17 11
33 24 37 30 4 5 8 20 8 32 0 13 -9 27 -21 34 -12 6 -37 8 -58 4 -20 -3 -64
-20 -99 -36 -34 -16 -67 -27 -72 -24 -5 3 -15 -3 -22 -15 -7 -11 -18 -20 -25
-20 -6 0 -25 14 -42 31 -17 17 -31 36 -31 42 0 7 15 20 33 29 17 9 62 28 98
42 36 14 73 26 83 26 10 0 23 6 30 13 7 6 15 20 19 30 4 11 -1 25 -13 37 -12
12 -33 20 -52 20z"/>
</g>
<g>
<path d="M8843 3441 c-16 3 -39 2 -51 -2 -13 -5 -22 -18 -23 -31 -1 -13 0 -31
1 -42 1 -10 10 -28 20 -38 18 -19 19 -20 49 -2 16 10 36 31 42 47 9 20 9 34 2
45 -5 9 -23 19 -40 23z"/>
</g>
<g>
<path d="M6544 3400 c-19 0 -37 -6 -40 -13 -2 -7 -3 -24 -1 -37 3 -18 12 -27
33 -31 16 -4 37 -7 47 -8 12 -1 17 6 17 25 0 14 -5 34 -10 45 -8 13 -21 19
-46 19z"/>
</g>
<g>
<path d="M7013 3389 c-10 0 -34 -5 -53 -12 -29 -10 -36 -17 -38 -44 -3 -27 0
-33 17 -33 11 0 23 -4 26 -10 3 -5 14 -10 25 -10 10 0 21 -7 24 -16 3 -9 6
-25 6 -37 0 -12 7 -31 15 -41 8 -11 15 -26 15 -33 0 -8 13 -42 29 -76 16 -34
32 -80 36 -101 8 -38 7 -38 -16 -26 -13 7 -44 29 -68 49 -23 20 -53 43 -66 51
-12 8 -50 39 -84 68 -37 31 -72 52 -86 52 -13 0 -31 -7 -39 -16 -9 -8 -16 -28
-16 -44 0 -16 4 -31 9 -34 4 -3 14 -27 22 -53 7 -27 19 -59 26 -73 7 -14 13
-32 13 -41 0 -8 7 -24 15 -35 8 -10 15 -27 15 -37 0 -16 -2 -16 -30 -2 -16 8
-34 24 -40 34 -5 11 -34 33 -63 50 -29 17 -62 39 -72 51 -10 11 -39 32 -64 46
-25 15 -57 37 -71 50 -14 12 -38 28 -55 34 -27 10 -32 9 -52 -17 -13 -15 -23
-38 -23 -51 0 -15 10 -28 31 -40 18 -9 52 -32 78 -49 25 -18 62 -41 81 -52 19
-10 46 -29 60 -41 14 -12 36 -28 50 -35 14 -7 38 -27 54 -44 17 -17 35 -31 41
-31 7 0 20 -9 30 -20 10 -11 23 -20 29 -20 6 0 27 -11 46 -24 19 -13 49 -26
66 -30 23 -5 34 -2 49 14 18 20 18 22 -4 93 -13 39 -31 94 -42 121 -10 27 -19
55 -19 62 0 8 3 14 7 14 4 0 18 -11 32 -23 15 -13 67 -52 117 -85 50 -34 95
-62 101 -62 5 0 20 -9 33 -20 13 -11 36 -20 51 -20 18 0 32 7 39 19 5 11 10
27 10 36 0 9 -18 53 -40 98 -21 45 -44 106 -50 134 -7 29 -16 55 -21 59 -5 3
-9 16 -9 29 0 13 -4 26 -9 29 -5 3 -12 20 -15 38 -3 18 -17 54 -30 80 -13 25
-26 58 -30 73 -4 17 -18 31 -41 41 -19 8 -42 14 -52 13z"/>
</g>
<g>
<path d="M6052 3220 c-11 0 -26 -8 -35 -18 -10 -10 -17 -25 -17 -34 0 -8 8
-22 18 -31 9 -8 29 -18 44 -22 20 -5 29 -2 37 13 6 12 11 28 11 36 0 9 -9 25
-20 36 -11 11 -28 20 -38 20z"/>
</g>
<g>
<path d="M6508 3200 c-4 0 -16 -12 -27 -26 -12 -15 -21 -35 -21 -45 0 -12 10
-21 26 -25 14 -4 36 -2 50 5 13 6 24 19 24 29 0 10 -10 28 -23 40 -13 12 -26
22 -29 22z"/>
</g>
<g>
<path d="M7639 2870 c-17 0 -34 -8 -43 -21 -8 -12 -12 -29 -9 -38 3 -9 13 -24
21 -33 8 -10 24 -18 35 -18 11 0 26 8 33 18 7 9 14 28 14 43 0 14 -5 30 -12
37 -7 7 -24 12 -39 12z"/>
</g>
</g>
</g>
</svg>
