<?xml version="1.0" standalone="no"?>
<!DOCTYPE svg PUBLIC "-//W3C//DTD SVG 20010904//EN"
 "http://www.w3.org/TR/2001/REC-SVG-20010904/DTD/svg10.dtd">
<svg version="1.0" xmlns="http://www.w3.org/2000/svg"
 width="1596.000000pt" height="1596.000000pt" viewBox="0 0 1596.000000 1596.000000"
 preserveAspectRatio="xMidYMid meet">
<metadata>
Created by potrace 1.16, written by Peter Selinger 2001-2019
</metadata>
<g transform="translate(0.000000,1596.000000) scale(0.100000,-0.100000)"
fill="#000000" stroke="none">
<g>
<path d="M12485 15025 c-14 8 -32 9 -60 2 -22 -5 -56 -14 -76 -18 -20 -5 -54
-22 -76 -38 -28 -20 -45 -43 -56 -73 -8 -24 -19 -57 -24 -74 -7 -23 -7 -40 2
-61 7 -16 30 -44 51 -61 21 -18 54 -39 73 -48 25 -12 52 -15 100 -12 40 3 82
13 106 26 22 12 51 30 65 41 23 18 25 28 29 108 3 77 0 92 -20 130 -17 31 -33
46 -59 54 -19 7 -44 17 -55 24z m-37 -109 c19 -3 45 -15 58 -27 16 -15 24 -34
24 -56 0 -24 -8 -41 -27 -59 -25 -23 -33 -25 -88 -20 -33 3 -72 8 -87 12 -19
4 -28 13 -29 28 -1 11 -1 28 0 36 1 8 7 25 13 37 6 12 24 27 41 32 16 6 33 8
37 6 5 -3 12 0 16 6 4 7 20 9 42 5z"/>
</g>
<g>
<path d="M12397 14430 c-29 0 -42 -8 -76 -46 -23 -26 -41 -52 -42 -58 -1 -6 0
-22 0 -36 1 -14 16 -53 32 -87 16 -34 34 -65 39 -68 5 -3 26 -33 45 -66 29
-50 34 -67 29 -95 -3 -19 -10 -34 -15 -34 -5 0 -9 -12 -9 -27 0 -17 -14 -40
-42 -68 -24 -23 -55 -57 -70 -76 -15 -19 -28 -41 -28 -50 0 -9 -7 -30 -15 -45
-8 -16 -15 -37 -15 -46 0 -9 5 -20 10 -23 6 -4 23 -25 37 -48 14 -23 33 -47
42 -54 9 -7 37 -13 62 -13 34 0 49 4 53 16 3 8 1 24 -4 35 -6 10 -14 19 -18
19 -5 0 -25 15 -45 34 -34 31 -36 36 -27 66 5 19 20 45 33 59 13 14 35 42 49
61 14 19 35 54 47 77 11 23 27 70 35 103 11 45 12 70 4 98 -6 20 -18 50 -27
65 -9 16 -35 48 -58 71 -26 27 -44 55 -48 77 -5 29 -1 47 22 90 15 30 29 57
31 62 2 4 -12 7 -31 7z"/>
</g>
<g>
<path d="M10402 13840 c-4 0 -14 -5 -22 -10 -8 -5 -27 -10 -43 -10 -15 0 -37
-6 -48 -12 -12 -7 -40 -30 -62 -52 -26 -23 -47 -54 -54 -79 -11 -38 -10 -45
15 -90 14 -27 41 -60 58 -73 21 -16 50 -26 92 -30 39 -4 78 -2 107 6 28 8 55
24 71 43 13 16 31 45 39 64 8 20 15 52 15 72 0 20 -9 51 -20 69 -11 19 -33 44
-48 57 -15 14 -39 25 -54 25 -15 0 -30 5 -33 10 -3 6 -9 10 -13 10z m-22 -120
c42 0 61 -5 73 -17 8 -10 17 -25 18 -33 2 -8 0 -27 -4 -42 -4 -16 -20 -34 -36
-43 -23 -11 -41 -13 -77 -6 -29 6 -55 18 -66 31 -14 17 -15 27 -7 48 6 15 18
35 26 44 12 13 31 18 73 18z"/>
</g>
<g>
<path d="M14548 13655 c-35 2 -72 -1 -83 -6 -11 -4 -30 -16 -41 -26 -12 -10
-34 -43 -48 -74 -19 -42 -26 -72 -26 -119 0 -61 2 -65 38 -98 20 -19 51 -41
69 -48 18 -8 54 -14 80 -14 30 0 60 7 80 19 17 11 45 40 62 65 24 34 31 56 31
91 0 29 -10 68 -28 108 -16 34 -38 70 -50 81 -15 13 -40 19 -84 21z m3 -106
c10 1 24 -16 36 -45 17 -38 18 -53 10 -80 -8 -25 -19 -36 -44 -45 -26 -8 -42
-8 -66 2 -18 7 -35 18 -39 23 -4 6 -8 21 -8 33 0 12 9 38 21 57 11 19 32 39
47 45 15 5 34 10 43 10z"/>
</g>
<g>
<path d="M10528 13400 c-7 0 -18 -4 -24 -8 -7 -4 -10 -45 -10 -109 1 -81 5
-105 19 -121 9 -10 17 -22 17 -26 0 -4 18 -25 39 -45 22 -21 55 -45 74 -54 27
-13 65 -17 183 -16 l148 1 23 -28 c12 -16 29 -37 37 -46 9 -10 18 -30 22 -45
3 -16 12 -46 19 -68 7 -22 20 -52 27 -67 8 -14 27 -37 44 -50 16 -14 59 -39
96 -56 36 -17 78 -34 92 -38 16 -4 32 -1 41 6 8 7 15 23 15 36 0 14 -9 28 -22
35 -13 7 -25 12 -28 10 -3 -1 -34 13 -70 31 -36 18 -75 44 -87 58 -12 14 -25
43 -29 65 -3 22 -13 60 -21 85 -9 24 -26 59 -40 77 -13 17 -44 48 -68 68 l-44
35 -118 -11 c-93 -8 -126 -8 -158 2 -22 7 -50 19 -62 27 -13 8 -23 20 -23 27
0 6 -9 20 -20 30 -16 14 -19 26 -14 52 5 24 -1 47 -20 88 -14 30 -31 55 -38
55z"/>
</g>
<g>
<path d="M14055 13279 c-22 0 -52 -6 -67 -13 -15 -6 -41 -25 -58 -41 -16 -16
-30 -37 -30 -46 0 -10 -14 -44 -31 -76 -18 -32 -52 -77 -77 -99 -35 -33 -55
-43 -91 -47 -25 -3 -77 -2 -116 3 -38 5 -96 14 -128 20 -38 8 -62 9 -70 2 -6
-5 -26 -13 -42 -16 -17 -4 -43 -19 -58 -34 -15 -15 -43 -47 -63 -72 -20 -24
-40 -55 -45 -69 -5 -13 -7 -32 -4 -41 3 -11 19 -20 38 -23 18 -2 37 -3 42 0 6
2 25 28 43 58 18 30 41 57 52 60 11 4 20 10 20 15 0 5 16 14 35 20 24 8 40 8
54 1 10 -6 71 -14 134 -17 95 -6 120 -4 147 10 18 9 40 16 49 16 9 0 42 25 74
55 31 30 57 59 57 65 0 5 4 10 10 10 5 0 13 12 16 28 4 15 18 46 31 69 14 24
37 51 51 61 15 10 43 19 62 21 19 1 41 8 49 16 7 7 10 21 7 33 -4 11 -17 23
-29 26 -12 3 -40 5 -62 5z"/>
</g>
<g>
<path d="M12396 13180 c-18 0 -44 -11 -62 -25 -21 -17 -35 -39 -43 -71 -7 -25
-23 -55 -37 -67 -18 -16 -29 -41 -38 -87 -8 -36 -17 -92 -21 -125 -3 -33 -11
-72 -17 -87 l-10 -26 -261 1 c-144 1 -274 -1 -289 -5 -19 -6 -30 -19 -39 -45
-11 -34 -10 -38 11 -55 12 -10 28 -18 34 -18 7 0 50 -36 96 -80 46 -44 87 -80
91 -80 4 0 20 -11 36 -24 15 -12 55 -38 88 -56 33 -18 74 -42 90 -53 17 -11
31 -22 33 -23 2 -1 -8 -49 -22 -106 -14 -56 -32 -119 -39 -138 -7 -19 -17 -44
-23 -55 -6 -11 -17 -51 -24 -90 -7 -38 -23 -115 -36 -170 -13 -56 -24 -105
-24 -111 0 -6 11 -16 25 -22 14 -7 34 -12 45 -12 10 0 32 14 49 31 17 17 31
34 31 38 0 4 20 26 44 50 24 24 71 77 103 119 32 41 91 110 132 153 67 71 75
77 95 66 11 -7 52 -39 91 -71 38 -33 112 -100 163 -150 62 -62 92 -98 92 -113
0 -13 4 -23 9 -23 6 0 12 4 15 9 3 4 16 6 30 4 13 -3 33 0 44 6 11 6 23 26 26
45 4 19 3 43 -3 53 -5 10 -23 45 -39 78 -17 33 -44 101 -60 150 -17 50 -40
115 -52 145 -12 30 -25 71 -30 90 -4 19 -10 46 -14 60 -6 22 6 38 98 130 57
58 134 133 170 167 48 45 66 69 66 88 0 14 -9 34 -20 45 -11 11 -25 20 -31 20
-6 0 -18 -4 -27 -9 -10 -5 -82 -12 -162 -16 -80 -3 -159 -8 -176 -11 -30 -6
-31 -5 -48 58 -10 34 -22 74 -26 88 -4 14 -15 50 -24 80 -8 30 -18 67 -22 83
-3 15 -10 30 -15 33 -5 3 -9 16 -9 29 0 14 -7 43 -16 65 -14 35 -20 40 -48 40z
m-26 -220 c4 0 13 -21 19 -47 7 -27 18 -70 26 -98 8 -27 17 -65 21 -84 3 -19
2 -36 -4 -40 -5 -3 -42 -4 -82 -3 l-72 4 6 39 c4 22 10 48 15 57 5 9 13 28 19
42 6 14 18 49 27 78 9 28 20 52 25 52z m348 -361 c39 0 72 -3 72 -8 0 -6 -9
-16 -19 -23 -11 -8 -41 -40 -67 -71 -26 -32 -50 -54 -54 -50 -4 4 -13 28 -19
53 -7 25 -15 55 -18 67 -3 15 0 23 14 26 10 3 51 5 91 6z m-703 -15 c61 -1
113 -2 116 -3 4 0 -3 -45 -13 -98 -11 -54 -21 -99 -23 -101 -2 -2 -33 15 -69
37 -37 23 -73 41 -80 41 -8 0 -16 3 -18 8 -1 4 -27 27 -55 50 -29 24 -53 48
-53 52 0 5 19 10 43 12 23 2 92 2 152 2z m347 0 c62 -4 118 -11 125 -16 6 -5
15 -28 18 -51 4 -23 11 -48 16 -57 4 -8 13 -44 19 -79 l12 -65 -81 -78 c-45
-43 -88 -78 -95 -78 -7 0 -39 24 -70 53 -31 28 -69 62 -86 75 -20 16 -30 32
-30 50 0 15 9 60 20 101 11 41 20 80 20 87 0 7 4 24 10 39 l10 26 112 -7z
m235 -408 c7 -12 12 -32 13 -46 0 -14 9 -49 20 -79 12 -29 19 -58 17 -65 -2
-6 -30 15 -63 47 -32 31 -67 60 -76 63 -10 3 -18 9 -18 14 0 5 15 24 33 43 17
19 39 36 47 39 9 3 20 -4 27 -16z m-430 -5 c10 -5 42 -31 72 -58 l55 -49 -33
-35 c-18 -19 -53 -57 -77 -85 -24 -28 -44 -54 -44 -57 0 -3 -21 -26 -46 -52
-25 -26 -47 -45 -49 -43 -2 2 1 23 6 48 6 25 19 72 31 105 11 33 24 84 29 114
5 29 16 69 24 88 12 28 17 32 32 24z"/>
</g>
<g>
<path d="M12760 13135 c-3 0 -23 -1 -45 -3 -24 -2 -50 -12 -63 -25 -13 -12
-30 -36 -37 -54 -7 -17 -12 -39 -11 -47 1 -8 10 -24 21 -36 10 -11 32 -27 48
-35 17 -8 40 -15 51 -15 12 0 31 8 42 18 12 9 29 31 38 49 9 18 16 52 16 76 0
38 -4 46 -27 57 -16 8 -30 14 -33 15z"/>
</g>
<g>
<path d="M11973 13109 c-10 -1 -28 -4 -40 -6 -12 -2 -38 -22 -57 -44 -21 -22
-36 -50 -36 -63 0 -14 4 -36 10 -51 6 -15 24 -32 45 -40 19 -8 54 -15 78 -15
40 0 48 4 73 38 16 20 30 46 30 57 1 11 -4 31 -11 45 -8 14 -27 37 -43 53 -17
15 -38 26 -49 26z"/>
</g>
<g>
<path d="M4485 11579 c-49 -1 -119 -7 -155 -14 -36 -8 -84 -14 -107 -14 -23
-1 -44 -5 -47 -10 -3 -4 -34 -11 -68 -15 -35 -4 -124 -28 -198 -53 -74 -25
-144 -54 -156 -64 -11 -10 -25 -19 -31 -19 -6 0 -16 -7 -23 -15 -7 -9 -43 -36
-79 -60 -36 -25 -104 -82 -151 -128 -47 -46 -116 -117 -153 -159 -37 -41 -77
-90 -89 -109 -11 -19 -25 -37 -30 -40 -5 -3 -17 -21 -28 -40 -10 -19 -25 -47
-33 -64 -8 -16 -24 -39 -36 -49 -11 -11 -21 -27 -21 -36 0 -10 -7 -20 -15 -24
-8 -3 -15 -11 -15 -18 0 -6 -9 -21 -20 -33 -10 -11 -31 -42 -45 -68 -14 -27
-25 -53 -25 -59 0 -6 -6 -19 -13 -27 -7 -9 -22 -36 -32 -61 -10 -25 -24 -52
-31 -60 -6 -8 -17 -33 -24 -55 -7 -22 -16 -44 -20 -50 -3 -5 -14 -30 -22 -55
-9 -25 -19 -57 -22 -72 -3 -14 -10 -71 -16 -125 -5 -54 -13 -120 -17 -148 -4
-27 -6 -70 -5 -95 0 -25 3 -106 6 -180 3 -74 7 -146 10 -159 3 -12 10 -28 15
-35 5 -6 11 -52 14 -101 2 -50 12 -130 21 -180 9 -49 19 -133 22 -185 2 -52 8
-104 13 -115 5 -11 15 -63 22 -115 7 -52 14 -111 16 -130 2 -19 10 -75 19
-125 8 -49 19 -104 25 -121 5 -17 9 -46 9 -66 0 -20 6 -51 14 -69 7 -19 23
-88 36 -154 12 -66 26 -128 31 -137 5 -10 9 -27 9 -37 0 -11 6 -45 14 -75 8
-30 19 -64 25 -75 6 -11 11 -31 11 -44 0 -13 9 -32 20 -42 11 -10 20 -24 20
-32 0 -7 7 -25 16 -39 9 -13 14 -27 11 -31 -4 -3 1 -20 10 -37 9 -17 20 -39
24 -48 5 -10 9 -24 9 -32 0 -7 6 -19 14 -25 8 -7 17 -27 20 -45 3 -18 20 -54
37 -81 17 -27 33 -64 36 -82 3 -19 19 -47 34 -63 16 -16 29 -35 29 -43 0 -8
17 -50 37 -93 20 -44 45 -85 54 -91 9 -7 19 -28 23 -46 4 -20 24 -51 51 -79
25 -26 45 -50 45 -55 0 -4 14 -19 30 -33 17 -14 30 -30 30 -37 0 -7 4 -13 10
-13 5 0 19 -18 30 -40 12 -23 36 -58 54 -78 18 -20 40 -51 49 -68 9 -17 27
-42 41 -55 14 -13 26 -29 26 -34 0 -6 11 -17 24 -25 14 -8 48 -35 76 -60 29
-25 83 -76 121 -114 38 -37 69 -72 69 -77 0 -4 41 -45 90 -91 50 -45 92 -90
95 -99 3 -9 17 -21 30 -27 14 -6 25 -19 25 -27 0 -8 11 -21 25 -27 13 -6 27
-20 31 -30 3 -10 22 -29 42 -42 20 -13 70 -55 110 -94 40 -38 85 -76 100 -83
14 -8 40 -27 56 -42 17 -15 85 -64 151 -109 66 -45 132 -91 146 -103 15 -12
52 -32 83 -45 31 -12 56 -26 56 -31 0 -5 30 -24 68 -42 37 -17 72 -38 77 -45
6 -7 20 -14 32 -16 11 -3 35 -12 52 -20 16 -9 38 -16 49 -16 10 0 30 -6 45
-12 15 -7 27 -16 27 -20 0 -4 18 -17 40 -28 21 -11 54 -20 73 -20 18 0 37 -4
42 -9 6 -6 46 -14 90 -20 44 -5 104 -16 133 -23 47 -12 56 -19 91 -70 21 -31
54 -75 74 -98 20 -23 43 -58 52 -77 9 -19 25 -43 36 -54 10 -10 19 -23 19 -29
0 -5 9 -20 20 -32 10 -13 42 -61 70 -108 28 -46 54 -87 58 -90 4 -3 13 -16 20
-30 7 -14 21 -38 32 -55 11 -16 29 -47 40 -67 11 -21 20 -47 20 -59 0 -12 -7
-47 -16 -78 -9 -31 -20 -64 -25 -73 -5 -10 -9 -26 -9 -35 0 -10 -18 -52 -39
-94 -21 -41 -47 -104 -57 -140 -9 -35 -23 -73 -31 -84 -7 -11 -13 -28 -13 -39
0 -10 -16 -52 -35 -92 -20 -41 -42 -74 -49 -74 -8 0 -27 12 -44 28 -16 15 -42
36 -58 48 -16 11 -42 25 -59 31 -16 7 -85 17 -152 23 -93 9 -131 9 -155 1 -18
-7 -58 -14 -88 -17 -30 -4 -73 -13 -95 -21 -22 -8 -50 -17 -62 -20 -13 -3 -23
-9 -23 -14 0 -5 -15 -15 -34 -23 -29 -12 -33 -18 -28 -42 2 -16 9 -35 15 -41
5 -7 18 -13 30 -13 11 0 34 9 51 19 17 10 54 27 81 37 28 9 77 22 110 27 33 6
109 10 169 9 64 0 113 -5 119 -11 6 -6 18 -11 27 -11 9 0 24 -6 34 -13 16 -11
14 -13 -16 -15 -19 -1 -54 5 -79 13 -35 13 -68 15 -169 10 -69 -3 -138 -11
-155 -17 -16 -6 -56 -27 -87 -46 -31 -19 -59 -40 -62 -48 -3 -8 -12 -14 -21
-14 -8 0 -15 -4 -15 -8 0 -5 -9 -19 -19 -31 -11 -13 -17 -29 -14 -36 2 -8 14
-17 24 -20 11 -4 34 -3 52 0 17 4 41 16 52 26 11 10 34 30 51 44 18 14 36 25
40 25 5 0 21 7 36 14 15 8 30 11 33 6 3 -5 -20 -35 -52 -65 -32 -31 -65 -62
-74 -68 -9 -7 -28 -31 -43 -55 -17 -28 -25 -50 -21 -63 4 -11 18 -25 32 -30
14 -5 33 -7 42 -4 9 2 22 19 30 35 7 17 34 52 60 78 25 27 60 56 76 67 17 11
37 21 45 22 8 2 40 6 70 9 30 2 71 6 90 7 19 2 42 7 50 12 8 6 89 11 180 13
158 2 169 3 269 37 57 19 110 40 117 46 8 7 38 12 67 12 28 0 75 -8 104 -17
29 -10 57 -24 63 -31 6 -7 20 -11 30 -8 11 3 23 16 26 29 3 13 10 24 15 24 5
0 9 8 9 18 0 10 -5 23 -12 30 -7 7 -22 12 -34 12 -12 0 -35 6 -51 14 -15 8
-52 22 -82 30 -29 9 -66 16 -82 16 -16 0 -44 -9 -64 -20 -20 -11 -61 -31 -93
-44 -31 -13 -72 -26 -89 -29 -31 -6 -33 -5 -33 21 1 15 8 45 16 67 9 22 19 54
24 70 5 17 22 66 38 110 16 44 36 96 45 115 8 19 20 51 27 70 7 19 28 76 46
125 19 50 37 115 41 145 3 30 10 62 14 72 7 12 -1 28 -27 60 -20 23 -56 72
-79 108 -23 36 -50 81 -60 100 -10 19 -45 73 -79 120 -34 47 -72 102 -84 124
-12 21 -41 60 -64 87 -23 27 -38 52 -35 55 4 4 19 -2 34 -12 15 -10 38 -17 50
-15 12 1 36 -5 53 -14 18 -9 38 -14 46 -11 8 3 27 1 42 -5 15 -6 43 -15 62
-20 19 -5 53 -12 75 -14 22 -3 41 -9 43 -14 2 -6 10 -7 17 -5 8 3 36 -1 62 -9
26 -9 73 -16 103 -16 30 0 64 -2 75 -4 11 -3 31 -10 46 -15 14 -6 45 -8 70 -5
38 4 50 0 87 -26 23 -18 47 -43 52 -56 5 -14 14 -25 18 -25 5 0 37 -34 71 -75
34 -41 68 -80 75 -87 6 -7 36 -49 66 -93 29 -44 66 -98 81 -120 14 -22 39 -65
54 -95 27 -53 27 -57 15 -115 -6 -33 -14 -76 -16 -95 -2 -19 -12 -64 -23 -100
-11 -36 -31 -104 -45 -151 -14 -47 -26 -94 -26 -105 0 -10 -7 -32 -16 -49 -9
-16 -25 -56 -35 -89 -10 -32 -19 -70 -19 -83 0 -18 -8 -28 -30 -36 -21 -8 -30
-18 -30 -33 0 -12 -3 -36 -6 -53 -5 -24 -15 -36 -43 -48 -20 -9 -65 -22 -101
-31 -36 -8 -126 -18 -200 -21 -123 -6 -140 -10 -188 -35 -31 -17 -75 -56 -109
-95 -32 -36 -60 -68 -63 -71 -3 -3 -19 -32 -36 -65 -18 -33 -30 -68 -29 -78 2
-10 6 -25 9 -33 4 -11 17 -14 42 -12 34 3 39 7 81 88 25 47 59 100 76 118 18
18 55 44 84 57 36 17 69 25 107 25 31 0 56 -4 56 -9 0 -5 -15 -14 -32 -21 -18
-7 -42 -22 -53 -32 -11 -10 -39 -32 -62 -48 -32 -22 -43 -37 -43 -56 0 -14 -5
-35 -12 -47 -7 -12 -13 -35 -14 -52 -1 -16 -7 -48 -14 -71 -7 -22 -10 -53 -6
-68 4 -15 13 -29 21 -33 8 -3 26 -2 40 1 17 4 31 20 44 50 14 29 18 54 14 78
-3 20 0 53 7 74 7 22 29 56 49 77 19 20 54 46 76 57 22 11 42 18 45 17 3 -1
19 7 35 19 17 11 55 30 85 41 30 12 63 24 73 28 13 6 9 -7 -18 -52 -20 -34
-54 -73 -78 -91 -24 -17 -56 -49 -72 -72 -16 -23 -41 -79 -55 -124 -27 -82
-27 -84 -9 -118 10 -20 24 -38 31 -40 7 -3 23 -2 36 3 17 6 22 16 22 42 0 18
9 60 20 94 12 33 30 70 40 81 11 12 20 24 20 27 0 3 21 32 48 63 26 31 56 66
67 78 11 12 40 47 64 78 25 31 75 81 112 112 37 30 82 66 101 79 18 13 58 36
88 50 40 19 64 25 87 20 18 -3 36 -11 40 -18 5 -7 24 -21 43 -31 19 -11 43
-30 53 -43 10 -13 27 -23 37 -23 10 0 26 10 34 22 9 12 16 30 16 40 0 10 -4
18 -8 18 -5 0 -33 25 -63 56 -30 30 -66 61 -80 69 -15 8 -54 15 -88 17 -47 2
-66 -2 -88 -18 -15 -11 -48 -30 -73 -43 -25 -13 -54 -31 -65 -40 -11 -9 -27
-22 -36 -29 -14 -11 -15 -6 -7 44 5 31 15 69 23 85 8 15 15 38 15 49 0 12 5
31 12 43 6 12 15 42 19 67 4 25 12 77 19 115 6 39 20 95 32 125 11 30 29 87
40 125 11 39 26 95 34 125 8 30 16 69 17 87 2 19 -5 45 -17 65 -12 19 -38 56
-59 84 -21 27 -60 84 -88 126 -27 43 -49 82 -49 86 0 5 -12 21 -27 36 -16 15
-43 43 -61 64 -18 20 -51 58 -73 85 l-42 47 64 1 c35 0 168 3 294 5 127 3 266
5 310 5 44 1 96 1 115 0 19 0 49 1 65 4 17 3 68 8 115 11 55 5 94 13 110 24
14 10 59 23 100 29 41 6 100 15 131 20 31 5 66 14 77 20 12 6 58 15 104 21 46
5 117 14 158 20 41 7 88 10 104 7 16 -2 71 0 120 4 50 5 121 14 159 20 37 6
91 12 120 13 28 2 86 10 127 19 41 10 102 22 135 27 33 6 67 13 75 17 8 3 19
5 24 4 5 -1 28 7 52 19 24 11 54 20 67 20 13 0 32 7 43 15 10 8 30 15 44 15
14 0 36 7 48 16 12 8 22 20 22 25 0 5 -10 23 -22 39 -12 17 -26 30 -31 30 -5
0 -57 23 -116 51 -58 28 -128 63 -156 77 -27 14 -90 50 -140 80 -49 30 -124
73 -165 95 -41 22 -97 56 -125 75 -27 19 -59 42 -70 51 -11 9 -40 27 -65 40
-25 13 -54 32 -65 41 -11 9 -34 22 -51 29 -17 7 -73 14 -125 16 -52 2 -101 4
-109 4 -8 1 -36 1 -63 1 -26 1 -82 10 -125 21 -42 11 -81 25 -86 30 -6 5 -16
9 -24 9 -8 0 -28 6 -45 14 -18 7 -67 26 -110 41 -56 20 -84 36 -99 56 -16 22
-30 29 -54 29 -28 0 -35 6 -59 53 -15 28 -37 66 -49 82 -12 17 -27 41 -33 55
-6 14 -23 51 -37 82 -14 31 -26 59 -26 62 0 3 -15 29 -34 58 -18 29 -36 63
-40 75 -4 12 -26 55 -48 95 -23 40 -58 100 -78 133 -20 33 -55 92 -77 130 -22
39 -64 113 -94 165 -29 52 -70 117 -89 143 -20 26 -56 85 -80 130 -24 45 -54
96 -66 112 -12 17 -34 55 -48 85 -14 30 -43 84 -66 119 -22 36 -48 74 -58 85
-10 12 -24 34 -32 49 -8 15 -29 45 -47 67 -18 21 -33 43 -33 49 0 6 -13 17
-30 26 -16 9 -30 20 -30 25 0 5 -25 36 -55 68 -30 33 -55 67 -55 75 0 9 -14
36 -30 59 -17 24 -51 72 -75 108 -25 36 -61 88 -81 115 -20 28 -52 70 -72 95
-21 24 -41 52 -47 61 -5 10 -36 47 -67 82 -32 35 -58 73 -58 84 0 11 -11 30
-25 43 -14 13 -25 27 -25 32 0 5 -25 40 -55 78 -30 38 -66 81 -80 96 -14 15
-25 31 -25 37 0 5 -17 26 -38 46 -21 20 -50 52 -64 71 -14 19 -56 67 -92 105
-36 39 -66 73 -66 77 0 4 -15 28 -34 52 -22 29 -40 71 -54 122 -11 44 -23 129
-27 190 -5 97 -3 119 15 175 12 35 25 73 29 84 5 11 14 40 22 64 13 42 19 46
114 96 55 28 129 67 165 86 36 19 79 39 95 46 17 6 57 21 90 33 33 12 83 29
110 37 28 8 62 17 78 20 15 3 27 9 27 14 0 5 8 9 19 9 10 0 38 7 62 16 24 9
60 20 79 25 19 4 67 17 105 27 39 10 95 30 125 44 30 14 71 29 90 32 19 4 60
11 90 16 30 5 96 18 145 29 50 11 108 26 130 34 22 8 85 24 140 37 55 12 126
31 158 42 32 10 66 22 75 27 9 5 38 14 65 20 26 6 56 11 66 11 10 0 31 6 47
14 16 8 79 22 139 30 61 9 148 24 194 34 l84 19 13 44 c7 24 10 46 6 49 -4 3
-41 14 -82 24 -41 10 -79 22 -85 26 -5 4 -36 15 -67 24 -32 10 -62 15 -67 12
-5 -4 -72 8 -148 24 -76 17 -167 38 -203 46 -36 9 -93 20 -128 25 -35 4 -66
10 -70 13 -4 2 -95 14 -202 25 -107 11 -273 27 -367 36 -95 9 -176 14 -180 12
-5 -2 -37 -1 -73 4 -36 4 -83 10 -105 13 -22 3 -96 8 -165 11 -69 3 -161 13
-205 21 -44 9 -96 19 -115 24 -19 5 -78 16 -130 25 -52 9 -102 20 -111 25 -8
4 -53 16 -100 25 -46 9 -93 25 -104 34 -11 10 -43 32 -72 50 -29 18 -58 34
-66 35 -7 1 -31 19 -53 40 -21 21 -66 56 -99 78 -33 21 -71 41 -85 45 -14 3
-40 17 -58 30 -17 13 -47 29 -65 34 -17 6 -41 14 -52 19 -11 4 -54 16 -95 25
-41 10 -100 26 -131 36 -30 10 -111 25 -179 34 -69 8 -165 15 -215 14z m40
-106 c50 -1 131 -8 180 -17 50 -8 104 -18 120 -21 17 -3 55 -12 85 -20 30 -7
82 -21 115 -30 33 -9 97 -34 142 -56 45 -22 113 -67 152 -99 39 -33 81 -62 95
-66 13 -3 32 -14 42 -25 9 -10 21 -19 26 -19 4 0 39 -23 78 -50 38 -28 95 -59
127 -70 33 -11 90 -24 129 -29 38 -5 103 -17 144 -25 41 -9 99 -18 128 -21 29
-3 79 -11 111 -20 33 -8 94 -15 137 -15 44 0 122 -5 174 -11 52 -6 142 -12
200 -14 58 -2 134 -8 170 -14 36 -6 146 -18 245 -27 99 -8 200 -18 225 -20 25
-3 79 -9 120 -13 41 -5 89 -14 105 -19 17 -6 44 -13 60 -16 17 -2 51 -9 76
-15 25 -6 64 -13 87 -16 23 -2 56 -10 73 -17 27 -11 6 -13 -153 -13 -128 0
-190 -4 -205 -13 -14 -7 -77 -14 -165 -16 -79 -3 -190 -12 -248 -20 -58 -8
-145 -17 -195 -21 -49 -3 -124 -10 -165 -16 -41 -5 -122 -16 -180 -24 -58 -7
-134 -21 -169 -29 -35 -9 -73 -15 -85 -14 -11 1 -48 -1 -81 -6 -33 -4 -64 -11
-70 -16 -5 -4 -28 -10 -50 -14 -22 -4 -67 -14 -101 -22 -33 -8 -94 -17 -135
-19 -41 -3 -93 -8 -117 -11 -27 -4 -46 -12 -50 -23 -3 -9 -10 -19 -15 -23 -7
-4 -6 -17 2 -36 7 -17 22 -33 33 -36 12 -3 31 0 42 6 12 7 39 13 61 14 22 1
72 7 110 14 39 6 106 19 150 30 44 10 114 25 155 34 41 8 93 18 115 22 22 4
45 8 50 9 6 0 24 5 40 9 17 5 35 13 42 18 7 5 17 7 23 3 6 -4 57 -2 113 4 56
7 120 14 142 16 22 2 90 9 150 15 61 6 172 15 248 20 75 5 141 11 145 14 4 2
61 7 127 10 66 3 181 8 255 11 125 4 132 4 90 -9 -25 -7 -99 -28 -165 -45 -66
-18 -133 -37 -150 -43 -16 -5 -55 -14 -85 -20 -30 -5 -64 -13 -75 -17 -11 -5
-42 -15 -70 -24 -27 -9 -90 -24 -140 -33 -49 -9 -94 -21 -99 -25 -6 -5 -21 -9
-35 -9 -15 0 -40 -9 -57 -19 -17 -10 -46 -22 -65 -25 -19 -4 -43 -11 -54 -16
-11 -4 -47 -14 -80 -21 -33 -7 -80 -21 -105 -32 -25 -10 -81 -30 -125 -43 -44
-14 -116 -38 -161 -54 -45 -17 -90 -30 -100 -30 -11 0 -28 -6 -39 -14 -11 -7
-31 -17 -45 -21 -14 -4 -47 -17 -75 -30 -27 -12 -71 -30 -97 -39 -26 -10 -63
-28 -83 -42 -20 -13 -42 -24 -49 -24 -8 0 -30 -15 -50 -33 -20 -19 -33 -36
-30 -40 3 -3 -1 -20 -10 -38 -9 -18 -16 -39 -16 -48 0 -9 -7 -26 -15 -38 -8
-12 -13 -27 -10 -35 3 -7 -3 -40 -13 -73 -13 -41 -18 -87 -17 -145 1 -47 5
-119 9 -160 4 -41 15 -95 24 -120 8 -25 24 -57 34 -72 10 -14 18 -29 18 -34 0
-4 25 -35 56 -68 31 -34 93 -100 139 -147 45 -48 91 -99 101 -115 10 -16 24
-33 31 -37 7 -4 29 -34 49 -65 20 -31 52 -75 71 -97 19 -22 42 -49 52 -60 10
-11 28 -38 40 -59 12 -22 66 -98 120 -170 54 -72 124 -169 156 -215 32 -46 64
-91 71 -100 7 -9 29 -36 50 -61 20 -25 53 -70 72 -100 20 -30 45 -65 55 -77
11 -12 25 -31 31 -41 6 -11 37 -50 69 -88 32 -38 64 -82 71 -99 7 -16 29 -51
50 -78 20 -26 36 -49 36 -50 0 -2 29 -52 65 -112 36 -60 81 -132 100 -159 19
-28 62 -89 95 -136 33 -47 68 -101 78 -120 10 -19 29 -54 44 -76 15 -23 34
-57 42 -75 9 -19 43 -79 76 -134 33 -55 65 -111 71 -125 5 -14 21 -36 33 -50
13 -14 29 -43 36 -64 7 -22 23 -58 36 -80 13 -23 33 -61 45 -86 12 -25 39 -81
60 -125 22 -44 54 -108 72 -141 17 -34 40 -69 50 -78 9 -10 17 -26 17 -36 0
-10 5 -20 12 -22 6 -2 13 -13 14 -25 2 -12 19 -54 37 -94 23 -51 38 -104 47
-169 7 -52 16 -102 20 -110 4 -8 11 -35 15 -59 l7 -44 -83 6 c-46 3 -118 15
-159 26 -41 12 -109 30 -150 41 -41 10 -100 29 -130 40 -30 12 -82 35 -115 51
-33 16 -67 29 -76 29 -9 0 -22 7 -29 15 -7 8 -19 15 -27 15 -9 0 -52 18 -97
41 -44 23 -102 47 -127 55 -26 8 -52 21 -59 29 -7 8 -20 15 -29 15 -9 0 -27 7
-40 16 -13 9 -89 50 -170 90 -80 41 -155 80 -166 87 -11 6 -41 29 -67 49 -26
21 -50 38 -54 38 -4 0 -23 12 -43 28 -19 15 -56 41 -82 57 -26 17 -66 43 -90
59 -24 16 -68 46 -98 65 -30 20 -92 70 -138 111 -47 41 -104 91 -128 110 -24
19 -85 70 -136 112 -52 42 -135 116 -184 165 -50 48 -118 120 -151 158 -33 39
-71 83 -85 99 -13 16 -50 56 -81 90 -32 33 -58 64 -58 69 0 4 -21 34 -47 66
-27 33 -72 88 -100 124 -29 36 -53 70 -53 75 0 5 -9 17 -20 27 -11 10 -20 22
-20 27 0 4 -27 48 -60 96 -33 49 -60 94 -60 100 0 7 -4 12 -9 12 -4 0 -22 30
-39 68 -16 37 -33 77 -37 90 -4 13 -20 39 -37 58 -17 19 -35 34 -41 34 -6 0
-19 -7 -29 -17 -10 -9 -18 -26 -18 -39 0 -12 11 -35 24 -51 13 -15 36 -57 51
-93 15 -36 33 -72 40 -80 7 -8 25 -37 41 -65 15 -27 58 -92 96 -143 37 -50 68
-95 68 -98 0 -3 20 -30 45 -58 25 -29 45 -57 45 -62 0 -4 9 -17 20 -29 11 -11
47 -53 80 -94 33 -40 60 -77 60 -82 0 -4 35 -44 78 -88 42 -44 93 -101 112
-126 19 -25 41 -45 47 -45 7 0 13 -5 13 -10 0 -6 28 -38 63 -73 34 -34 75 -69
90 -77 16 -8 36 -27 45 -42 9 -15 21 -28 27 -28 7 0 18 -11 25 -25 8 -14 19
-24 26 -21 7 3 35 -16 62 -42 28 -26 73 -65 102 -87 29 -22 66 -54 84 -71 17
-17 50 -43 72 -58 22 -14 50 -40 62 -56 14 -18 38 -34 65 -41 23 -7 57 -25 75
-41 18 -15 37 -28 42 -28 5 0 12 -9 15 -20 3 -11 14 -20 24 -20 9 0 31 -14 48
-30 17 -17 48 -42 68 -55 20 -14 39 -25 42 -25 4 0 18 -11 32 -24 15 -13 44
-34 66 -47 22 -12 69 -38 105 -57 36 -20 82 -44 102 -54 20 -10 43 -18 51 -18
8 0 34 -11 58 -25 24 -14 51 -27 59 -31 8 -3 30 -13 48 -22 19 -9 44 -26 55
-39 12 -12 33 -23 47 -23 14 0 49 -11 78 -25 30 -14 62 -25 72 -25 11 0 22 -4
25 -10 3 -5 15 -10 27 -10 11 0 36 -13 55 -30 18 -16 42 -30 53 -30 10 0 22
-4 25 -10 3 -5 14 -10 24 -10 10 0 45 -12 77 -26 33 -14 67 -29 76 -35 10 -5
27 -9 37 -9 11 0 23 -5 26 -10 4 -6 10 -8 15 -5 4 3 27 -2 50 -10 23 -8 53
-12 66 -9 16 4 26 1 30 -9 4 -11 25 -15 91 -16 48 -1 92 -6 98 -11 7 -6 33 -6
70 0 32 5 62 15 66 21 4 7 0 35 -8 63 -8 28 -19 59 -24 68 -5 9 -9 23 -9 30 0
7 10 18 23 23 18 8 21 16 19 45 -2 19 -10 43 -18 54 -8 11 -14 28 -14 37 0 9
-7 22 -15 29 -8 7 -15 22 -15 33 0 11 -6 28 -14 36 -8 9 -31 47 -51 85 -20 37
-34 71 -31 73 3 3 11 3 18 -1 7 -3 20 -10 28 -14 8 -5 25 -14 37 -20 13 -7 42
-19 65 -27 24 -8 51 -15 60 -15 10 0 32 -9 50 -20 18 -11 43 -20 56 -20 13 0
32 -4 42 -10 10 -5 44 -11 76 -14 33 -2 79 -9 103 -16 24 -6 59 -9 77 -6 18 4
35 3 38 -2 3 -5 32 -8 66 -7 33 2 63 -1 66 -6 3 -5 16 -9 29 -9 12 0 25 -7 28
-14 3 -8 21 -23 39 -32 18 -9 35 -20 38 -23 3 -4 23 -18 45 -31 22 -13 42 -26
45 -29 3 -4 14 -11 25 -18 11 -7 65 -36 120 -64 55 -28 102 -55 103 -60 2 -5
13 -9 23 -9 11 0 34 -14 52 -31 18 -16 48 -39 67 -50 19 -10 42 -23 50 -28 8
-5 42 -17 75 -27 33 -9 65 -24 71 -32 5 -7 22 -15 36 -15 20 -2 24 -5 16 -15
-6 -6 -17 -12 -25 -12 -8 0 -27 -7 -43 -15 -16 -8 -55 -19 -87 -25 -32 -5 -78
-14 -103 -20 -25 -6 -67 -15 -95 -20 -27 -6 -133 -19 -235 -30 -102 -11 -219
-20 -260 -21 -41 0 -139 -9 -217 -19 -78 -10 -148 -22 -155 -26 -7 -5 -33 -11
-58 -15 -25 -4 -56 -9 -70 -12 -14 -3 -74 -12 -135 -21 -60 -8 -171 -22 -245
-30 -74 -9 -202 -19 -285 -23 -82 -3 -269 -7 -415 -7 -192 -1 -269 2 -280 11
-11 9 -25 9 -57 0 -35 -9 -74 -6 -230 16 -103 15 -217 34 -253 42 -36 9 -121
27 -190 41 -69 15 -132 27 -140 28 -9 1 -22 6 -30 11 -8 6 -35 16 -60 22 -25
7 -88 23 -140 34 -52 12 -110 27 -129 35 -18 8 -46 14 -61 14 -15 0 -40 4 -56
9 -16 5 -56 17 -88 26 -33 10 -74 28 -91 39 -17 12 -51 28 -76 36 -24 7 -82
34 -129 58 -47 25 -110 57 -140 72 -31 15 -69 39 -85 52 -17 13 -42 30 -57 37
-16 8 -28 18 -28 21 0 4 -34 32 -76 61 -42 30 -85 59 -96 65 -11 7 -60 46
-108 88 -49 42 -112 99 -141 127 -29 28 -124 118 -212 201 -87 83 -234 228
-326 322 -92 94 -191 196 -219 227 -29 31 -52 59 -52 63 0 4 -28 49 -62 99
-34 51 -66 97 -73 102 -6 6 -22 26 -36 45 -14 19 -44 68 -67 108 -23 41 -42
77 -42 81 0 3 -19 38 -41 76 -23 39 -57 99 -77 135 -19 35 -52 98 -73 139 -22
41 -39 82 -39 90 0 9 -7 36 -16 61 -9 25 -19 49 -23 55 -5 5 -21 51 -36 100
-15 50 -33 106 -41 125 -7 19 -22 71 -33 115 -10 44 -26 112 -34 150 -9 39
-25 118 -37 177 -11 59 -23 133 -26 165 -3 32 -10 72 -14 88 -5 17 -18 98 -29
180 -12 83 -25 184 -31 225 -5 41 -13 109 -16 150 -3 41 -13 113 -21 160 -8
47 -18 114 -23 150 -5 36 -12 127 -16 202 -4 87 -2 160 5 200 6 35 13 95 16
133 3 39 5 104 5 145 0 51 6 92 20 130 12 30 27 77 35 104 7 26 21 56 29 65 9
10 16 25 16 33 0 9 7 21 15 28 8 7 15 18 15 25 0 7 6 18 14 24 8 7 17 24 21
39 4 15 22 48 41 74 19 27 34 55 34 63 0 8 12 29 28 47 15 18 37 47 50 65 12
18 22 35 22 37 0 3 29 42 65 87 36 44 65 85 65 90 0 4 41 49 92 99 50 50 121
114 157 142 36 29 71 57 77 64 6 7 33 29 60 47 28 19 69 44 92 56 22 11 50 21
62 21 11 0 20 4 20 9 0 5 15 13 33 16 17 4 43 13 57 20 14 7 66 20 116 29 50
9 106 16 126 16 19 0 38 3 42 8 4 4 38 12 74 17 37 6 108 9 157 8z"/>
<g>
<path d="M4716 11384 c-61 3 -86 1 -89 -8 -3 -7 -22 -21 -42 -30 -20 -10 -40
-27 -45 -39 -6 -12 -14 -29 -19 -37 -5 -8 -13 -31 -19 -50 -6 -19 -9 -54 -7
-78 3 -24 14 -56 25 -72 12 -16 49 -43 83 -59 52 -24 72 -28 128 -26 48 2 82
10 122 29 30 15 64 37 74 48 14 16 18 35 17 92 0 49 -6 82 -20 108 -10 20 -42
55 -71 77 -50 40 -54 42 -137 45z"/>
</g>
</g>
<g>
<path d="M12650 11498 c-52 -1 -120 -6 -150 -10 -30 -4 -208 -9 -395 -11 -187
-1 -346 -6 -352 -10 -7 -5 -13 -20 -13 -35 0 -15 7 -37 15 -49 15 -22 16 -22
352 -17 185 2 399 9 475 16 107 9 152 9 197 0 31 -7 69 -12 84 -12 14 0 29 5
32 10 4 6 21 8 38 5 18 -4 45 -2 60 4 19 8 27 17 27 36 0 15 -9 30 -22 39 -13
8 -75 19 -138 25 -63 6 -158 10 -210 9z"/>
</g>
<g>
<path d="M11687 11224 c-65 6 -120 10 -122 8 -2 -2 -39 -4 -82 -5 l-78 -2 -3
-41 c-2 -25 2 -45 10 -51 8 -7 47 -8 110 -4 53 3 113 3 135 0 21 -4 81 -9 133
-13 52 -4 118 -11 145 -16 28 -6 79 -12 115 -15 36 -2 204 -10 375 -16 245
-10 373 -10 620 0 170 7 333 14 360 15 28 2 66 8 85 13 21 5 36 16 38 27 2 10
1 28 -2 41 -4 16 -19 27 -51 37 -36 12 -47 13 -53 3 -4 -7 -32 -17 -62 -21
-30 -5 -89 -8 -130 -7 -41 1 -145 -5 -230 -14 -96 -9 -186 -13 -240 -9 -47 4
-224 11 -395 16 -170 6 -332 15 -359 20 -28 6 -84 13 -125 16 -42 3 -129 11
-194 18z"/>
</g>
<g>
<path d="M11460 10765 c-75 3 -138 4 -140 1 -3 -2 -74 -6 -158 -9 -119 -3
-157 -7 -168 -19 -12 -11 -13 -23 -6 -49 8 -31 11 -34 43 -31 19 1 151 4 294
7 143 2 325 5 405 6 80 1 156 -1 170 -5 14 -3 189 -8 390 -10 201 -3 379 -7
395 -10 17 -3 113 -11 215 -17 102 -6 277 -13 390 -15 154 -3 261 1 430 16
124 11 236 20 250 20 14 0 35 1 47 3 12 2 28 9 37 16 9 8 16 23 16 35 0 13
-11 32 -25 44 -24 21 -27 21 -68 7 -23 -8 -74 -15 -114 -15 -39 0 -83 -4 -98
-10 -14 -5 -67 -12 -118 -16 -51 -3 -130 -5 -177 -5 -47 0 -128 2 -180 5 -52
3 -122 6 -155 6 -33 0 -69 0 -80 0 -11 0 -67 0 -124 1 -58 0 -109 3 -115 7 -6
4 -29 8 -51 8 -22 1 -121 5 -220 8 -99 4 -353 9 -565 11 -212 3 -446 7 -520
10z"/>
</g>
<g>
<path d="M2613 3285 c-153 2 -194 0 -289 -20 -61 -12 -124 -29 -140 -37 -16
-9 -49 -24 -74 -34 -25 -10 -52 -25 -60 -35 -8 -9 -30 -24 -47 -33 -18 -9 -33
-22 -33 -30 0 -7 -16 -27 -35 -45 -20 -18 -38 -45 -42 -61 -3 -16 -12 -35 -19
-41 -8 -6 -14 -19 -14 -29 0 -9 -8 -28 -18 -41 -10 -13 -22 -32 -25 -42 -5
-14 -13 -17 -41 -11 -26 4 -41 1 -58 -12 -13 -11 -43 -40 -67 -67 -39 -42 -43
-50 -33 -71 9 -21 7 -28 -16 -50 -15 -14 -39 -38 -53 -53 -14 -15 -33 -40 -43
-55 -18 -28 -18 -28 3 -28 14 0 21 6 21 20 0 10 11 27 25 37 14 10 53 39 86
66 33 26 65 47 70 47 5 0 9 -14 9 -31 0 -17 4 -39 10 -49 8 -14 19 -18 53 -15
37 2 57 13 122 65 l77 63 25 -32 c23 -30 30 -32 71 -29 41 3 48 0 59 -22 7
-14 14 -28 15 -32 2 -3 19 -9 38 -13 29 -5 45 0 94 29 32 20 65 36 73 36 12 0
14 -12 8 -67 -6 -61 -4 -70 15 -91 15 -16 28 -21 43 -16 12 3 26 10 31 15 6 5
11 55 11 111 2 74 -2 109 -12 124 -8 12 -22 20 -31 19 -9 -2 -32 -6 -49 -9
-23 -4 -33 -2 -33 7 0 7 35 39 77 71 42 32 92 65 110 72 18 8 46 14 62 14 16
0 33 -5 37 -11 5 -8 29 -10 74 -5 50 4 75 2 98 -9 16 -9 37 -27 46 -41 15 -21
16 -35 6 -102 -6 -42 -9 -108 -6 -147 3 -38 8 -86 12 -105 4 -19 16 -48 28
-65 11 -16 21 -32 22 -35 0 -3 6 -18 13 -35 7 -16 17 -37 22 -45 5 -8 12 -21
16 -29 3 -8 16 -24 27 -35 12 -12 29 -21 40 -21 17 0 18 -12 20 -190 2 -122 7
-198 14 -212 7 -12 12 -30 12 -41 0 -11 7 -25 15 -32 8 -7 15 -20 15 -29 0 -9
19 -38 43 -64 23 -26 53 -50 66 -52 13 -2 32 -12 43 -22 12 -11 40 -18 81 -21
34 -2 73 -9 86 -15 14 -7 68 -12 130 -12 l106 0 73 48 c45 29 77 58 83 75 7
17 8 61 4 117 -5 59 -14 103 -27 129 -11 22 -44 64 -72 92 -28 29 -62 65 -76
80 -14 16 -33 40 -42 54 -9 14 -24 39 -32 55 -8 17 -19 48 -24 70 -6 22 -13
105 -17 185 -3 80 -13 171 -21 203 -8 32 -22 75 -31 95 -9 20 -29 66 -45 101
-17 36 -46 84 -66 108 -20 24 -42 43 -49 43 -8 0 -18 12 -24 27 -5 14 -39 55
-74 90 -35 34 -67 63 -70 63 -4 0 -23 7 -43 16 -21 9 -44 20 -52 25 -8 5 -33
18 -55 28 -22 10 -64 24 -93 31 -29 7 -66 19 -83 27 -21 11 -76 15 -206 18z
m94 -107 c39 -4 107 -19 150 -34 43 -14 85 -31 93 -38 8 -7 26 -18 40 -24 14
-7 43 -22 65 -35 22 -12 41 -29 43 -37 1 -8 -12 -24 -30 -34 -18 -11 -57 -31
-86 -45 -47 -21 -55 -23 -68 -9 -13 13 -10 20 21 61 19 25 35 50 35 55 0 5
-12 12 -27 15 -15 3 -37 0 -48 -5 -11 -6 -28 -17 -37 -26 -10 -8 -18 -23 -18
-32 0 -14 -9 -15 -62 -12 -35 2 -67 8 -72 12 -5 5 3 32 18 65 21 41 25 59 17
69 -6 7 -23 11 -40 8 -17 -2 -37 -14 -45 -26 -8 -13 -19 -41 -25 -64 -7 -23
-15 -43 -19 -45 -4 -2 -19 -7 -33 -10 -18 -5 -32 -1 -47 14 -12 11 -27 40 -33
65 -7 25 -18 48 -26 51 -8 3 -26 0 -40 -6 -22 -10 -25 -16 -20 -45 3 -19 14
-52 25 -75 11 -22 17 -43 13 -46 -5 -2 -23 0 -41 5 -18 5 -43 16 -56 25 -13 8
-33 33 -44 55 -11 21 -20 46 -20 55 0 12 -6 15 -22 9 -13 -3 -30 -13 -40 -21
-13 -12 -14 -21 -6 -50 5 -19 18 -48 27 -64 10 -17 34 -41 52 -55 19 -14 34
-30 34 -36 0 -6 -23 -17 -50 -23 -28 -6 -56 -14 -62 -18 -7 -4 -22 0 -33 10
-12 10 -35 37 -51 59 -16 23 -42 47 -59 52 -26 10 -34 8 -58 -13 l-27 -23 29
-31 29 -30 -29 -25 c-16 -13 -47 -41 -69 -61 -22 -20 -52 -46 -67 -57 -16 -10
-28 -15 -28 -10 0 5 11 26 25 46 14 20 25 40 25 45 0 4 11 22 25 41 14 18 28
48 31 66 3 18 21 50 39 71 18 21 60 57 92 78 32 22 79 50 103 61 25 12 76 29
114 38 37 10 70 15 73 12 3 -3 17 0 32 7 14 6 69 14 121 17 52 3 127 2 167 -2z
m464 -249 c4 1 35 -29 69 -65 34 -36 67 -80 75 -98 7 -17 20 -49 29 -71 9 -22
16 -42 15 -45 -1 -3 5 -19 14 -37 10 -18 17 -45 17 -61 0 -22 -10 -35 -47 -63
-27 -19 -52 -36 -58 -38 -5 -2 -35 -20 -65 -40 -30 -20 -73 -53 -95 -73 -22
-21 -48 -38 -57 -38 -9 0 -20 10 -24 23 -4 12 -9 24 -13 27 -3 3 -15 23 -27
45 -12 22 -31 70 -43 107 -11 37 -21 84 -21 105 0 21 7 68 15 106 8 37 20 79
27 94 7 15 33 39 58 55 25 15 63 37 85 47 22 11 43 20 46 20z m-1056 -149 c8
-7 15 -16 15 -21 0 -5 -7 -9 -15 -9 -9 0 -15 9 -15 21 0 18 2 19 15 9z m144 3
c3 -2 -5 -14 -17 -26 -19 -19 -24 -20 -32 -7 -5 8 -6 18 -2 21 4 4 16 9 27 11
11 2 22 3 24 1z m1144 -392 c4 -4 8 -48 8 -97 0 -49 5 -105 11 -124 5 -19 22
-60 36 -90 15 -30 52 -81 82 -113 30 -33 56 -63 58 -68 2 -5 -6 -20 -17 -35
-11 -14 -17 -32 -14 -42 4 -9 11 -20 17 -24 6 -4 25 -8 41 -8 17 0 36 5 43 12
8 8 14 5 22 -16 5 -15 10 -49 10 -75 0 -45 -3 -50 -38 -75 -30 -21 -50 -26
-94 -26 -31 0 -60 5 -63 10 -4 6 9 10 33 10 22 0 54 3 71 6 17 4 37 16 42 27
8 15 8 22 -2 28 -8 4 -43 13 -80 20 -44 8 -76 8 -95 2 -20 -7 -32 -20 -40 -43
-6 -19 -16 -36 -22 -38 -5 -1 -43 9 -83 23 -40 14 -81 33 -92 42 -10 10 -30
40 -44 66 -21 43 -23 51 -10 65 8 10 27 42 43 72 15 30 38 68 51 84 15 17 21
32 15 38 -6 6 -23 2 -43 -10 -19 -10 -40 -30 -46 -44 -7 -14 -20 -31 -28 -38
-14 -11 -15 -3 -12 74 l3 87 62 56 c34 30 67 64 73 74 5 11 7 29 4 40 -5 15
-14 19 -32 17 -14 -2 -31 -12 -37 -23 -6 -11 -19 -32 -29 -47 -10 -16 -25 -28
-33 -28 -8 0 -14 10 -14 24 0 12 10 34 23 47 13 13 45 40 71 59 27 19 69 47
95 62 25 15 49 24 54 19z"/>
<g>
<path d="M3416 1900 c-6 -1 -26 -7 -43 -15 -27 -11 -33 -20 -33 -44 0 -24 7
-34 30 -46 16 -8 39 -13 52 -12 19 3 24 11 26 46 2 23 -2 49 -9 57 -6 8 -17
14 -23 14z"/>
</g>
</g>
<g>
<path d="M1958 2539 c-13 -1 -33 -4 -46 -6 -13 -3 -26 -11 -28 -18 -3 -8 -21
-19 -40 -25 -22 -8 -50 -31 -75 -62 -21 -27 -39 -56 -39 -64 0 -8 8 -14 17
-14 9 0 40 24 69 54 28 29 58 56 66 59 7 4 20 11 28 16 8 5 27 14 43 20 15 6
27 17 27 26 0 9 -8 14 -22 14z"/>
</g>
<g>
<path d="M2280 2480 c-26 0 -47 -7 -59 -19 -11 -11 -27 -35 -37 -53 -9 -18
-28 -45 -41 -60 -14 -14 -22 -31 -19 -37 5 -8 16 -6 37 4 16 9 29 19 29 23 0
4 29 31 65 61 36 29 65 60 65 67 0 10 -13 14 -40 14z"/>
</g>
</g>
</svg>
