<?xml version="1.0" standalone="no"?>
<!DOCTYPE svg PUBLIC "-//W3C//DTD SVG 20010904//EN"
 "http://www.w3.org/TR/2001/REC-SVG-20010904/DTD/svg10.dtd">
<svg version="1.0" xmlns="http://www.w3.org/2000/svg"
 width="1652.000000pt" height="2048.000000pt" viewBox="0 0 1652.000000 2048.000000"
 preserveAspectRatio="xMidYMid meet">
<metadata>
Created by potrace 1.16, written by Peter Selinger 2001-2019
</metadata>
<g transform="translate(0.000000,2048.000000) scale(0.100000,-0.100000)"
fill="#000000" stroke="none">
<g>
<path d="M11525 18668 c-27 -1 -90 -5 -140 -9 -49 -3 -103 -10 -120 -14 -16
-3 -39 -10 -50 -15 -11 -4 -56 -19 -100 -33 -44 -14 -105 -35 -135 -47 -30
-13 -94 -42 -142 -66 -48 -24 -118 -68 -156 -97 -38 -29 -90 -77 -116 -105
-25 -29 -61 -66 -81 -83 -19 -17 -55 -59 -80 -95 -25 -35 -50 -64 -56 -64 -5
0 -9 -5 -9 -11 0 -6 -9 -23 -21 -37 -11 -15 -66 -97 -122 -183 -56 -86 -113
-178 -126 -205 -13 -27 -30 -60 -36 -74 -7 -14 -21 -54 -32 -90 -11 -36 -28
-90 -36 -120 -9 -30 -23 -102 -31 -160 -8 -58 -20 -169 -25 -248 -6 -78 -15
-151 -21 -162 -6 -12 -10 -44 -10 -73 1 -29 -1 -74 -5 -102 -4 -27 -10 -158
-12 -290 -3 -165 -1 -264 8 -315 7 -41 12 -120 11 -174 -1 -61 -6 -102 -13
-107 -6 -3 -156 -10 -333 -14 -226 -5 -365 -3 -471 6 -82 7 -177 12 -210 11
-33 -1 -186 -6 -340 -12 -154 -6 -298 -12 -320 -15 -22 -3 -227 -7 -455 -9
-228 -2 -521 -7 -650 -10 -129 -4 -307 -7 -394 -7 -88 0 -163 4 -167 8 -4 4
-17 94 -29 198 -12 105 -23 219 -26 255 -3 36 -9 142 -14 235 -5 94 -14 211
-19 260 -6 50 -17 164 -26 255 -8 91 -22 206 -30 255 -8 50 -16 146 -18 215
-3 78 -12 164 -26 230 -13 58 -29 125 -37 150 -8 25 -26 74 -40 110 -14 36
-36 85 -48 110 -13 25 -43 81 -66 125 -28 51 -73 111 -123 165 -44 47 -94 94
-111 105 -17 10 -40 24 -51 30 -11 6 -29 16 -40 22 -11 6 -41 20 -66 32 -25
11 -54 21 -64 21 -10 0 -49 9 -87 21 -43 13 -116 23 -195 27 -83 5 -134 4
-147 -3 -12 -6 -46 -19 -76 -28 -30 -9 -75 -19 -100 -23 -25 -3 -70 -14 -101
-24 -31 -11 -101 -41 -155 -67 -55 -27 -126 -69 -159 -95 -33 -25 -85 -72
-115 -105 -30 -32 -63 -69 -73 -81 -9 -12 -17 -28 -17 -35 0 -7 -11 -28 -25
-47 -14 -19 -25 -40 -25 -47 0 -8 -7 -16 -15 -19 -8 -4 -36 -43 -61 -88 -26
-44 -55 -98 -66 -119 -10 -20 -23 -56 -28 -80 -5 -23 -16 -69 -25 -102 -9 -33
-21 -69 -27 -79 -6 -11 -17 -49 -25 -85 -7 -36 -18 -97 -24 -136 -5 -38 -12
-88 -15 -110 -3 -22 -10 -71 -15 -110 -6 -38 -14 -109 -19 -157 -4 -47 -11
-92 -16 -99 -4 -7 -11 -67 -15 -133 -4 -67 -10 -137 -13 -156 -3 -19 -11 -82
-17 -140 -6 -58 -11 -141 -11 -185 1 -43 -3 -84 -7 -90 -5 -5 -11 -39 -15 -75
-3 -36 -8 -96 -11 -135 -3 -38 -7 -101 -10 -140 -3 -38 -12 -137 -20 -220 -8
-82 -17 -199 -21 -260 -4 -60 -8 -146 -9 -190 -2 -44 -3 -143 -3 -220 0 -77
-1 -149 -1 -160 -1 -11 -3 -110 -6 -220 -2 -110 -7 -245 -11 -300 -4 -55 -6
-143 -5 -195 0 -52 8 -187 17 -300 8 -113 20 -230 27 -260 6 -30 10 -70 10
-90 -1 -19 -4 -66 -5 -105 -2 -38 -1 -115 3 -170 3 -60 12 -112 21 -130 12
-22 13 -36 7 -48 -7 -11 -5 -94 6 -240 8 -122 18 -235 21 -252 3 -16 9 -66 15
-110 5 -44 16 -123 24 -175 8 -52 19 -128 25 -169 6 -41 8 -81 5 -89 -3 -8 0
-20 6 -28 6 -7 12 -62 14 -121 2 -59 7 -148 11 -198 3 -49 13 -115 21 -145 9
-36 16 -123 18 -255 3 -110 10 -254 16 -320 6 -66 11 -131 12 -145 0 -14 4
-77 9 -140 5 -63 11 -155 13 -205 3 -49 12 -160 20 -245 8 -85 18 -166 21
-180 4 -14 8 -171 9 -350 1 -179 6 -365 10 -415 4 -49 13 -121 20 -160 8 -38
18 -88 23 -110 5 -22 14 -51 20 -65 5 -14 20 -63 33 -110 12 -47 25 -89 29
-95 4 -5 13 -28 20 -50 7 -22 19 -53 28 -70 8 -16 19 -37 23 -45 5 -8 12 -22
15 -30 3 -8 10 -24 16 -35 7 -11 30 -56 52 -100 23 -44 51 -94 62 -110 12 -17
25 -41 29 -53 4 -13 23 -52 43 -85 20 -34 44 -73 54 -86 10 -13 18 -31 18 -39
0 -8 19 -40 42 -71 23 -31 79 -92 123 -136 45 -44 101 -90 126 -102 24 -11 76
-36 114 -53 39 -18 88 -41 110 -51 22 -10 51 -21 65 -25 14 -4 36 -6 49 -5 13
2 40 -4 60 -12 20 -8 63 -21 96 -29 38 -8 124 -13 230 -13 118 0 182 4 210 14
22 7 63 24 90 36 28 12 73 33 100 46 28 12 52 24 55 24 3 1 16 6 30 12 14 6
56 24 92 41 36 16 70 36 74 43 5 8 18 20 29 27 11 6 27 15 35 19 8 4 23 16 33
27 10 12 55 59 101 106 45 47 97 110 116 140 19 30 40 58 46 63 7 4 24 31 37
60 14 28 28 68 32 87 4 19 11 40 15 45 4 6 10 26 14 45 4 19 14 82 23 140 9
58 17 128 19 155 2 28 5 82 8 120 3 39 8 156 11 260 4 105 11 207 16 228 6 21
10 111 10 200 0 89 0 205 0 257 -1 52 3 98 7 102 5 5 145 8 313 7 167 0 318 0
334 1 17 1 237 1 490 2 318 0 474 -4 505 -12 30 -8 222 -13 585 -16 297 -3
545 -6 552 -9 8 -3 10 -56 8 -200 -3 -114 0 -218 6 -248 6 -29 15 -83 21 -122
5 -38 11 -79 12 -90 2 -11 8 -45 14 -75 6 -30 13 -66 16 -80 2 -14 7 -38 11
-55 4 -16 32 -80 61 -141 29 -61 67 -154 84 -205 17 -52 39 -105 48 -119 10
-14 49 -88 87 -164 39 -76 86 -157 106 -180 20 -23 41 -51 47 -63 7 -12 45
-48 85 -80 39 -32 84 -66 99 -76 15 -9 34 -17 43 -17 9 0 30 -8 48 -17 18 -9
59 -22 92 -29 33 -7 101 -22 150 -34 50 -11 142 -27 205 -36 65 -9 167 -16
235 -15 99 2 132 6 195 28 41 14 78 31 82 37 4 6 10 7 14 4 3 -4 23 0 43 9 20
8 45 17 57 18 12 2 67 38 122 81 56 44 115 86 130 94 15 9 47 33 71 55 24 22
57 60 74 85 17 25 37 51 43 58 7 6 16 21 19 32 3 11 11 20 16 20 5 0 9 4 9 9
0 5 17 35 38 67 20 31 37 60 37 63 0 3 9 20 20 36 11 17 26 39 33 50 6 11 17
31 22 45 6 14 14 32 20 40 5 8 52 101 104 205 52 105 100 208 107 230 6 22 18
50 26 61 8 12 13 26 12 30 -2 5 5 27 15 49 10 22 26 58 36 80 11 22 22 49 25
60 3 11 6 22 6 25 1 3 5 10 10 16 5 7 21 59 35 115 14 57 32 124 40 148 8 24
17 69 21 100 3 31 14 103 24 161 11 58 26 192 34 299 8 107 14 220 14 250 0
31 7 124 15 206 8 83 17 260 21 395 3 135 8 315 10 400 3 85 10 223 16 305 6
83 15 184 21 225 7 41 13 125 14 185 1 61 5 151 8 200 4 50 11 117 16 150 5
33 14 213 20 400 5 187 12 417 15 510 2 94 7 253 10 355 4 102 8 199 10 215 2
17 7 75 10 130 3 55 11 156 16 225 7 75 9 234 5 395 -3 149 -8 403 -11 565 -3
162 -10 331 -15 375 -5 44 -12 202 -15 350 -4 149 -8 286 -10 305 -2 19 -4 53
-5 75 -1 22 -8 121 -15 220 -8 99 -17 241 -20 315 -3 74 -10 167 -15 205 -5
39 -18 120 -29 180 -11 61 -27 130 -35 154 -9 24 -16 53 -16 65 0 12 -6 30
-14 41 -7 11 -16 40 -19 65 -4 25 -11 63 -16 85 -5 22 -17 67 -26 100 -9 33
-20 65 -23 70 -4 6 -13 26 -20 45 -7 19 -20 55 -28 80 -8 25 -21 59 -28 75 -8
17 -32 68 -55 115 -22 47 -59 114 -80 150 -22 36 -54 83 -71 105 -17 22 -75
84 -128 138 -53 53 -99 97 -104 97 -4 0 -30 20 -58 45 -28 25 -68 56 -88 69
-20 12 -73 34 -117 49 -44 14 -109 31 -145 37 -36 6 -96 15 -135 20 -38 5 -92
9 -120 8z m-27 -124 c37 -1 115 -4 175 -9 59 -4 110 -11 113 -16 3 -5 21 -9
39 -9 19 0 54 -9 77 -21 24 -12 63 -32 88 -44 25 -13 65 -41 89 -62 25 -21 60
-54 79 -73 18 -19 59 -62 91 -95 31 -33 71 -78 88 -100 16 -22 36 -52 44 -67
8 -15 35 -65 62 -111 26 -47 47 -90 47 -96 0 -6 9 -30 19 -54 11 -23 32 -73
47 -112 15 -38 35 -97 45 -130 9 -33 22 -73 27 -90 6 -16 15 -48 21 -70 5 -22
15 -60 21 -85 7 -25 17 -56 23 -70 6 -14 12 -36 14 -50 2 -14 8 -50 14 -80 6
-30 15 -75 20 -100 5 -25 17 -137 28 -250 10 -113 26 -297 35 -410 8 -113 18
-248 21 -300 4 -52 8 -184 11 -293 2 -109 6 -228 9 -265 2 -37 9 -111 15 -165
5 -54 10 -180 9 -280 0 -100 0 -204 1 -232 0 -27 4 -153 8 -280 5 -126 7 -253
6 -282 -1 -29 -5 -119 -8 -200 -4 -81 -12 -204 -17 -273 -6 -69 -13 -186 -15
-260 -2 -74 -6 -269 -8 -433 -2 -163 -7 -364 -12 -445 -4 -81 -8 -185 -9 -232
-1 -47 -5 -110 -9 -140 -4 -30 -9 -75 -11 -100 -2 -25 -8 -74 -14 -110 -6 -36
-13 -121 -16 -190 -3 -69 -9 -172 -15 -230 -5 -58 -12 -168 -15 -245 -3 -77
-10 -234 -16 -350 -5 -115 -12 -277 -14 -360 -3 -82 -10 -213 -16 -290 -6 -77
-14 -234 -19 -350 -5 -129 -15 -237 -25 -280 -9 -38 -21 -115 -26 -170 -5 -55
-18 -140 -29 -190 -11 -49 -28 -119 -39 -155 -10 -36 -27 -90 -37 -120 -10
-30 -26 -67 -36 -82 -10 -14 -18 -30 -18 -36 0 -5 -12 -36 -26 -68 -14 -33
-35 -81 -46 -109 -12 -27 -32 -72 -45 -100 -13 -27 -28 -57 -33 -65 -5 -8 -32
-64 -61 -125 -28 -60 -55 -119 -59 -130 -5 -11 -17 -41 -28 -66 -11 -25 -28
-51 -37 -59 -9 -7 -27 -37 -41 -65 -13 -29 -39 -71 -57 -95 -17 -24 -39 -55
-47 -71 -8 -15 -41 -55 -73 -88 -32 -34 -77 -74 -100 -90 -23 -16 -53 -41 -67
-56 -14 -15 -50 -44 -80 -64 -31 -21 -67 -42 -80 -45 -14 -4 -41 -14 -60 -22
-19 -8 -43 -19 -52 -24 -10 -6 -27 -10 -37 -10 -11 0 -22 -4 -26 -9 -3 -6 -13
-10 -23 -10 -9 0 -44 -5 -77 -11 -34 -7 -111 -9 -180 -7 -66 3 -158 12 -205
21 -47 8 -116 22 -155 30 -38 8 -97 24 -130 36 -32 11 -86 34 -120 50 -34 17
-93 61 -137 102 -67 63 -87 91 -152 210 -41 76 -91 179 -111 230 -20 51 -62
152 -92 223 -31 72 -61 146 -69 167 -7 20 -18 62 -23 95 -6 32 -14 85 -20 118
-5 33 -12 100 -15 149 -3 49 -1 85 3 80 5 -5 18 -36 29 -69 11 -33 39 -102 61
-153 23 -51 49 -105 59 -120 10 -15 23 -36 29 -47 6 -11 35 -59 64 -107 28
-48 79 -116 113 -151 34 -35 81 -77 105 -93 24 -16 52 -34 63 -40 10 -6 29
-20 41 -31 12 -11 36 -27 52 -35 17 -9 59 -30 95 -47 36 -17 83 -34 105 -38
22 -4 101 -7 175 -6 74 0 151 3 170 6 19 3 72 10 116 16 49 6 119 25 175 46
52 21 96 40 99 45 3 4 15 10 28 14 12 4 22 12 22 17 0 5 4 9 10 9 5 0 21 10
35 22 14 12 25 28 25 35 0 8 4 12 9 9 4 -3 40 27 78 67 39 39 89 92 112 116
23 24 49 57 58 74 8 17 22 37 30 45 8 8 32 50 53 93 21 44 36 79 32 79 -4 0
-2 4 4 8 6 4 27 41 47 83 24 51 50 141 83 285 26 115 49 225 52 244 3 19 8 37
11 40 4 3 12 32 19 65 6 33 14 89 17 125 3 36 12 91 20 123 8 32 15 99 16 148
0 49 4 87 7 85 4 -2 8 12 9 32 1 21 6 60 12 87 5 28 10 84 10 125 1 42 10 107
20 145 17 59 21 119 27 390 3 176 7 334 7 350 0 17 -1 89 -3 160 -1 72 1 200
5 285 4 97 3 196 -4 265 -7 61 -14 130 -18 153 -3 26 -1 48 6 55 6 6 11 29 11
51 0 23 -7 47 -17 58 -9 10 -28 18 -42 18 -14 0 -32 -4 -39 -8 -9 -6 -13 -91
-17 -348 -3 -186 -5 -364 -5 -394 0 -30 4 -89 7 -130 3 -41 6 -95 6 -120 -1
-25 -3 -175 -6 -335 -3 -241 -8 -308 -25 -395 -12 -58 -29 -188 -38 -290 -9
-102 -19 -203 -21 -225 -2 -22 -9 -87 -14 -145 -6 -58 -17 -148 -26 -200 -8
-52 -23 -120 -33 -150 -11 -30 -31 -109 -45 -175 -14 -66 -32 -142 -40 -170
-9 -27 -16 -52 -16 -55 0 -3 -5 -24 -11 -48 -6 -23 -14 -44 -18 -47 -4 -3 -20
-31 -35 -62 -15 -32 -43 -91 -62 -130 -20 -40 -40 -73 -44 -73 -5 0 -9 -6 -9
-13 0 -8 -9 -24 -20 -37 -11 -13 -20 -26 -20 -29 0 -3 -14 -22 -31 -41 -17
-19 -48 -53 -68 -75 -21 -22 -59 -59 -84 -82 -25 -24 -49 -43 -53 -43 -4 0
-22 -11 -40 -25 -18 -14 -37 -25 -43 -25 -5 0 -22 -7 -38 -15 -15 -8 -53 -21
-83 -29 -30 -8 -104 -25 -165 -37 -60 -13 -147 -24 -191 -27 -45 -2 -108 1
-140 7 -31 6 -89 25 -128 43 -39 18 -123 68 -186 113 -63 44 -122 87 -131 95
-8 8 -36 47 -61 85 -25 39 -63 99 -85 135 -22 36 -56 93 -76 127 -20 33 -37
67 -37 75 0 7 -9 28 -20 46 -11 18 -18 37 -15 42 3 5 -2 22 -12 37 -10 15 -17
30 -17 33 1 3 -3 16 -8 30 -6 14 -17 48 -25 75 -8 28 -18 64 -23 80 -5 17 -18
62 -29 100 -11 39 -26 98 -32 133 -8 40 -23 78 -42 104 l-29 41 -97 -7 c-53
-3 -105 -8 -116 -10 -11 -2 -28 2 -38 9 -13 9 -104 11 -375 7 -253 -3 -392 -1
-477 8 -66 7 -190 14 -275 15 -85 2 -163 3 -172 4 -13 1 -17 15 -21 74 -3 39
-9 108 -15 152 -5 44 -13 186 -17 316 l-7 237 108 6 c60 3 145 11 189 17 44 6
98 15 120 20 22 6 49 14 60 19 11 5 34 11 50 14 17 2 37 6 45 8 8 2 21 7 28
11 6 5 16 6 21 3 4 -3 32 4 62 15 30 11 77 28 104 37 28 8 61 24 74 34 13 10
31 18 40 18 9 0 30 9 46 20 17 12 46 28 65 37 19 8 55 25 80 36 25 11 47 24
50 28 3 3 21 15 40 25 19 11 53 32 75 48 22 17 45 34 50 39 6 7 5 7 -4 2 -10
-6 -12 -4 -7 4 5 7 14 10 22 7 8 -3 14 -1 14 3 0 5 31 41 69 80 38 38 88 94
110 124 23 30 41 59 41 65 0 7 3 12 8 12 4 0 16 17 27 38 11 20 25 41 32 45 7
4 13 12 13 17 0 6 7 18 16 28 9 9 30 39 47 66 18 27 37 56 42 65 6 8 16 21 23
29 7 7 24 39 39 70 15 31 34 65 42 75 8 10 16 23 17 30 1 7 17 44 36 82 20 39
49 96 67 129 17 32 31 66 31 76 0 11 5 22 10 25 6 3 10 16 10 28 0 12 6 42 14
67 8 25 24 75 35 111 11 36 25 99 31 139 6 41 14 78 18 82 4 3 31 16 60 27 30
11 60 17 68 14 8 -3 16 2 19 10 4 8 28 29 55 46 33 21 55 46 70 76 14 30 24
73 27 125 4 59 1 98 -12 148 -9 37 -26 85 -36 108 -10 22 -19 45 -19 51 0 6
-14 42 -31 80 -17 37 -44 103 -59 145 -16 43 -40 92 -53 110 -14 18 -33 51
-42 73 -10 22 -35 61 -57 87 -21 26 -38 51 -38 56 0 5 -22 34 -50 65 -27 32
-70 86 -95 121 -30 42 -91 102 -176 173 -72 59 -143 114 -157 122 -15 7 -35
21 -45 30 -11 9 -39 27 -63 41 -25 14 -91 53 -147 87 -56 34 -151 83 -212 108
-60 26 -116 48 -125 50 -8 2 -73 18 -145 35 -71 18 -139 33 -150 35 -11 1 -51
7 -90 13 -38 6 -133 21 -210 33 -77 12 -179 22 -228 21 -76 0 -89 2 -101 20
-8 11 -13 34 -11 51 2 18 3 104 3 192 0 88 0 302 -1 475 l-2 315 65 2 c36 1
94 4 130 7 36 3 153 6 260 8 107 1 303 -4 435 -11 132 -8 355 -13 496 -12 141
2 271 6 290 10 20 4 38 16 45 29 6 12 18 30 26 39 8 10 20 32 26 48 6 17 16
66 22 110 7 44 16 103 21 130 5 28 13 84 20 125 6 41 19 131 30 200 11 69 25
150 30 180 5 30 15 78 21 105 6 28 23 75 38 105 15 30 31 71 35 90 4 19 23 68
41 108 19 40 34 78 34 85 0 7 4 17 8 23 4 5 23 45 41 89 18 44 46 107 62 140
16 33 40 78 54 100 13 22 35 60 48 85 13 25 30 62 36 82 8 23 43 67 94 120 46
46 101 97 123 115 23 17 57 41 76 51 19 11 44 25 54 30 11 6 72 36 137 67 64
31 134 59 153 61 20 2 44 9 54 14 10 6 79 11 152 11 83 1 149 -3 174 -11 21
-7 63 -23 92 -36 29 -13 61 -24 71 -24 10 0 57 -29 104 -65 48 -36 87 -70 87
-75 0 -5 13 -24 29 -42 16 -18 32 -47 35 -64 4 -18 23 -62 42 -98 19 -36 34
-75 34 -86 0 -10 9 -43 20 -72 10 -29 22 -68 25 -87 3 -19 9 -39 12 -44 3 -5
9 -37 14 -71 4 -33 14 -90 23 -126 8 -36 15 -88 16 -116 0 -28 7 -90 15 -138
8 -48 16 -126 16 -174 0 -48 7 -150 14 -227 8 -77 19 -171 24 -210 6 -38 13
-124 16 -190 2 -66 9 -154 14 -195 6 -41 11 -129 12 -195 1 -66 1 -217 -1
-335 -1 -118 -3 -426 -4 -685 -1 -344 -6 -489 -15 -540 -8 -38 -15 -110 -17
-160 -2 -49 -6 -148 -10 -220 -3 -71 -11 -186 -18 -254 -10 -95 -10 -136 -2
-170 7 -24 19 -49 27 -54 11 -7 25 -5 45 4 29 14 29 15 30 104 0 50 4 153 8
230 4 77 13 165 21 195 7 30 13 91 14 135 0 44 3 103 8 130 4 28 7 464 7 970
-1 781 -3 942 -17 1065 -9 80 -28 273 -42 430 -13 157 -27 303 -30 325 -3 22
-8 69 -11 105 -4 36 -10 75 -15 88 -5 13 -9 50 -9 83 0 32 -9 101 -21 152 -11
50 -29 124 -39 162 -11 39 -22 88 -26 109 -4 21 -22 66 -40 98 -19 33 -34 65
-34 71 0 7 -6 28 -13 47 -7 19 -26 56 -42 82 -19 29 -67 75 -130 123 -55 43
-117 86 -139 97 -21 11 -86 33 -143 49 -58 16 -122 30 -142 31 -20 1 -88 -2
-151 -6 -78 -5 -140 -16 -194 -33 -44 -14 -108 -40 -143 -59 -34 -19 -63 -32
-63 -30 0 3 -47 -19 -105 -49 -57 -29 -111 -59 -118 -67 -8 -7 -39 -36 -68
-63 -30 -28 -67 -59 -82 -69 -16 -9 -35 -33 -43 -51 -7 -19 -18 -36 -24 -40
-5 -3 -10 -13 -10 -22 0 -8 -10 -28 -22 -43 -13 -15 -32 -43 -42 -61 -11 -19
-30 -59 -43 -89 -12 -30 -23 -60 -23 -66 0 -7 -7 -14 -15 -18 -8 -3 -15 -12
-15 -19 0 -8 -12 -41 -26 -73 -14 -33 -33 -75 -41 -94 -8 -19 -24 -52 -34 -73
-10 -20 -40 -90 -65 -153 -25 -64 -48 -133 -51 -153 -3 -20 -12 -47 -19 -61
-7 -14 -18 -55 -24 -90 -6 -36 -15 -69 -20 -75 -4 -5 -11 -38 -15 -73 -4 -34
-11 -64 -15 -67 -4 -3 -11 -33 -14 -67 -4 -35 -12 -96 -18 -135 -6 -40 -15
-73 -19 -73 -5 0 -9 78 -9 173 0 94 7 264 16 377 9 113 17 225 18 250 2 25 6
68 10 95 4 28 12 86 17 130 6 44 20 112 31 150 11 39 20 75 21 80 2 6 6 16 11
24 5 7 11 30 13 50 3 20 9 40 14 46 5 5 9 17 9 28 0 10 19 54 41 97 23 44 50
87 60 96 11 9 19 21 19 25 0 5 25 45 55 90 30 45 55 83 55 86 0 3 15 24 32 47
18 22 35 43 38 46 3 3 13 16 22 30 8 14 39 52 68 85 29 33 61 63 71 67 9 4 20
17 24 30 4 13 26 42 48 66 23 23 44 42 48 42 4 0 35 19 70 43 35 23 111 66
168 95 57 28 114 52 127 52 12 0 25 4 28 9 3 5 16 11 28 14 13 3 41 11 63 17
22 6 82 19 133 28 52 9 124 17 160 16z m-6070 -185 c18 0 78 -10 135 -24 56
-14 118 -31 137 -38 19 -7 60 -26 90 -41 31 -16 88 -62 130 -105 42 -42 94
-103 116 -136 22 -33 49 -82 59 -110 10 -27 27 -62 37 -77 10 -14 18 -31 18
-38 0 -6 10 -32 22 -58 12 -26 22 -49 23 -52 1 -3 4 -14 8 -25 3 -11 9 -33 12
-50 4 -16 13 -64 21 -105 8 -41 17 -120 20 -175 3 -55 8 -104 11 -109 3 -5 10
-59 14 -120 5 -61 11 -142 14 -181 4 -38 10 -86 16 -105 5 -19 18 -132 29
-250 10 -118 21 -262 24 -320 2 -58 9 -117 15 -132 5 -14 11 -50 12 -80 1 -29
1 -62 0 -73 -2 -20 -2 -20 -16 -1 -8 11 -15 39 -15 61 0 23 -9 68 -21 101 -12
32 -27 86 -33 119 -7 33 -18 73 -24 88 -7 16 -12 34 -12 42 0 8 -12 47 -26 87
-14 40 -36 100 -49 133 -13 33 -31 94 -40 135 -10 41 -21 79 -26 85 -5 5 -9
16 -9 24 0 8 -11 42 -25 76 -13 34 -41 91 -61 126 -19 35 -41 71 -49 79 -7 8
-16 26 -20 40 -4 13 -78 94 -164 179 -134 133 -166 159 -231 190 l-75 36 -154
1 c-85 0 -193 -6 -240 -13 -47 -8 -108 -25 -136 -38 -27 -14 -65 -34 -84 -45
-18 -12 -50 -39 -70 -60 -21 -22 -42 -40 -48 -40 -6 0 -14 -11 -17 -24 -3 -14
-17 -38 -32 -55 -14 -16 -43 -62 -65 -102 -21 -39 -39 -81 -39 -93 0 -11 -6
-37 -13 -56 -7 -19 -15 -40 -19 -46 -4 -6 -11 -38 -17 -72 -5 -33 -14 -69 -19
-79 -5 -10 -13 -38 -18 -63 -4 -25 -9 -56 -9 -70 -1 -14 -8 -76 -14 -139 -7
-63 -17 -125 -22 -139 -5 -13 -7 -27 -4 -32 2 -4 5 -79 6 -166 1 -88 -2 -213
-6 -279 -4 -66 -8 -156 -10 -200 -2 -44 -7 -100 -12 -125 -5 -25 -8 -99 -7
-165 1 -66 2 -246 3 -400 0 -154 -2 -516 -6 -805 -3 -289 -6 -554 -7 -590 0
-36 3 -110 6 -165 3 -55 9 -134 12 -175 3 -41 8 -120 12 -175 3 -58 12 -109
20 -122 8 -13 24 -23 38 -23 14 0 30 10 40 25 15 23 16 43 6 198 -5 95 -12
190 -14 212 -2 22 -3 274 -3 560 0 286 0 700 -2 920 -1 220 -6 434 -11 475 -4
41 -7 95 -5 120 2 25 8 74 14 110 5 36 13 99 16 140 3 41 9 143 13 225 5 83 6
184 3 225 -3 41 -3 118 1 170 5 52 15 147 25 210 9 63 27 165 40 225 13 61 28
130 34 155 5 25 14 47 19 48 6 2 10 9 10 17 0 7 17 49 38 94 27 57 61 106 111
161 40 44 75 79 79 78 4 -1 34 11 67 27 44 22 82 32 140 37 44 4 106 11 138
16 34 5 87 4 125 -1 37 -5 91 -20 120 -33 34 -16 89 -58 155 -122 56 -53 117
-113 137 -133 19 -20 45 -50 58 -67 12 -17 22 -39 22 -50 0 -10 8 -26 18 -35
10 -10 29 -41 41 -70 13 -28 40 -89 62 -135 21 -45 39 -97 39 -115 0 -17 12
-63 26 -102 14 -38 34 -98 44 -131 10 -34 23 -71 29 -82 6 -11 19 -57 30 -103
10 -46 26 -104 34 -129 9 -25 25 -90 37 -145 12 -55 30 -130 40 -166 11 -36
20 -74 20 -85 0 -10 11 -43 25 -72 14 -30 25 -62 25 -72 0 -10 -7 -20 -15 -24
-8 -3 -15 -11 -15 -19 0 -7 6 -21 13 -30 11 -16 23 -16 132 -7 66 6 203 13
305 15 102 2 304 7 450 10 146 3 410 7 588 8 178 2 326 -1 328 -5 2 -3 5 -53
6 -110 1 -57 -1 -215 -3 -351 -3 -161 -1 -251 6 -257 6 -5 10 -55 9 -117 0
-59 -1 -126 -2 -149 l-2 -41 -107 -12 c-60 -7 -142 -17 -183 -22 -41 -6 -100
-15 -130 -21 -30 -6 -77 -17 -105 -24 -27 -6 -62 -17 -77 -22 -14 -6 -29 -16
-33 -21 -3 -6 -15 -11 -25 -11 -10 0 -41 -12 -67 -26 -26 -14 -75 -36 -108
-50 -33 -14 -94 -39 -135 -56 -41 -17 -98 -41 -127 -54 -28 -13 -58 -24 -65
-24 -7 0 -33 -14 -58 -30 -25 -16 -50 -34 -57 -40 -7 -5 -16 -10 -21 -10 -5 0
-17 -9 -28 -21 -10 -11 -32 -27 -49 -34 -16 -7 -58 -40 -93 -73 -34 -34 -72
-64 -84 -68 -12 -4 -71 -57 -130 -118 -59 -61 -108 -113 -108 -116 0 -4 -43
-51 -96 -106 -53 -54 -103 -111 -112 -126 -9 -16 -20 -28 -24 -28 -4 0 -8 -7
-8 -15 0 -8 -4 -15 -10 -15 -5 0 -19 -18 -30 -40 -11 -21 -20 -44 -20 -50 0
-6 -13 -40 -30 -75 -16 -35 -30 -74 -30 -86 0 -12 -7 -44 -17 -73 -9 -28 -20
-60 -24 -71 -4 -11 -10 -33 -12 -50 -2 -16 -19 -68 -36 -114 -17 -46 -31 -98
-31 -115 0 -17 -9 -76 -19 -131 -11 -55 -19 -129 -17 -165 1 -36 9 -76 17 -88
8 -13 35 -34 60 -48 26 -13 71 -32 100 -44 30 -11 77 -20 105 -20 l52 0 6 -42
c3 -24 8 -63 11 -88 4 -25 17 -72 31 -105 13 -33 27 -76 30 -95 4 -19 12 -44
17 -55 6 -11 12 -24 13 -30 2 -5 7 -24 12 -42 6 -17 8 -34 5 -37 -3 -3 4 -17
16 -32 11 -15 21 -30 21 -35 0 -4 16 -43 35 -86 19 -43 54 -114 77 -158 23
-44 59 -105 80 -135 21 -30 74 -86 117 -125 44 -38 140 -122 213 -186 73 -64
157 -132 185 -152 29 -21 56 -37 59 -37 4 0 34 -19 68 -42 33 -23 88 -54 121
-70 33 -16 74 -37 91 -47 18 -11 74 -31 125 -46 52 -14 110 -31 129 -37 19 -7
55 -15 80 -20 25 -5 61 -10 80 -12 19 -2 90 -7 158 -11 67 -4 122 -11 122 -14
0 -3 5 -33 11 -66 6 -33 13 -159 14 -280 2 -121 6 -258 9 -305 3 -47 1 -92 -4
-99 -7 -12 -116 -14 -647 -16 -351 -1 -644 -4 -650 -8 -6 -4 -12 -71 -15 -164
-4 -112 -11 -168 -22 -193 -8 -19 -34 -96 -57 -170 -23 -74 -45 -139 -49 -145
-5 -5 -21 -53 -38 -105 -16 -52 -43 -123 -60 -157 -17 -33 -43 -78 -57 -99
-15 -21 -33 -52 -41 -69 -8 -16 -34 -51 -58 -77 -24 -25 -69 -64 -99 -87 -31
-22 -58 -45 -61 -50 -3 -5 -53 -32 -110 -60 -57 -28 -113 -51 -124 -51 -11 0
-36 -7 -57 -16 -29 -12 -65 -14 -163 -11 -70 2 -145 9 -167 14 -22 6 -65 20
-96 32 -31 12 -66 32 -79 46 -13 14 -29 25 -35 25 -6 0 -30 19 -52 43 -23 23
-52 56 -65 74 -13 18 -55 77 -95 132 -39 55 -94 140 -121 190 -28 50 -54 105
-57 123 -4 18 -12 41 -18 53 -5 11 -14 27 -18 35 -5 8 -15 27 -24 41 -8 15
-17 41 -20 59 -3 18 -12 45 -20 60 -8 15 -19 45 -24 66 -5 22 -14 53 -20 69
-6 17 -22 75 -37 130 -14 55 -30 111 -35 125 -5 14 -14 57 -19 95 -5 39 -16
113 -24 165 -8 52 -19 127 -25 165 -6 39 -15 124 -21 190 -7 66 -18 167 -26
225 -8 58 -19 148 -24 200 -5 52 -19 136 -31 185 -14 57 -24 144 -29 240 -4
83 -16 181 -25 220 -16 62 -18 130 -19 583 -1 444 -3 514 -16 522 -8 5 -20 10
-27 10 -7 0 -24 -5 -38 -12 l-25 -11 0 -141 c0 -78 -1 -152 -2 -166 0 -14 0
-155 2 -315 1 -165 8 -342 16 -410 7 -66 18 -145 24 -175 5 -30 11 -73 14 -95
2 -22 8 -74 11 -115 4 -41 9 -82 10 -90 2 -8 8 -44 15 -80 6 -36 14 -83 16
-105 3 -22 16 -121 29 -220 13 -99 29 -240 35 -314 5 -73 15 -163 21 -200 5
-36 14 -79 19 -96 5 -16 12 -66 16 -110 3 -44 13 -109 21 -145 8 -36 19 -85
24 -110 5 -25 17 -67 28 -95 10 -27 24 -70 30 -95 7 -25 16 -63 22 -85 5 -22
14 -49 19 -60 5 -11 18 -40 28 -65 11 -25 32 -76 47 -115 15 -38 49 -116 76
-172 28 -55 56 -107 64 -113 8 -7 15 -18 15 -25 0 -6 10 -20 21 -31 12 -10 53
-65 91 -122 37 -56 92 -126 122 -155 29 -30 82 -70 117 -90 36 -19 87 -41 114
-48 28 -6 64 -19 80 -28 23 -12 64 -15 180 -16 134 0 157 3 220 25 39 13 72
25 75 25 3 0 22 7 43 14 21 7 58 25 83 39 25 15 54 32 65 38 10 6 29 22 42 35
13 13 47 42 77 64 29 22 68 53 86 68 18 16 40 42 49 58 8 16 22 44 32 62 9 17
34 60 57 95 22 34 44 62 48 62 4 0 8 7 8 14 0 8 12 52 26 98 14 46 34 101 44
123 9 22 23 56 30 75 7 19 22 61 33 93 14 41 23 54 28 44 5 -8 3 -43 -3 -78
-6 -35 -12 -89 -14 -119 -1 -30 -7 -111 -13 -180 -6 -69 -13 -168 -16 -220 -3
-52 -7 -115 -10 -140 -2 -25 -8 -87 -11 -137 -4 -51 -11 -93 -15 -93 -5 0 -9
-7 -9 -16 0 -8 -14 -57 -30 -109 -17 -51 -39 -104 -49 -117 -9 -13 -27 -40
-39 -61 -12 -21 -22 -44 -22 -52 0 -7 -51 -61 -114 -119 -62 -59 -129 -118
-147 -132 -19 -14 -73 -45 -121 -69 -48 -25 -93 -45 -101 -45 -8 0 -20 -6 -26
-14 -7 -8 -24 -17 -39 -21 -15 -4 -40 -13 -57 -20 -16 -8 -50 -19 -75 -26 -27
-7 -107 -11 -203 -10 -107 1 -170 6 -195 15 -20 8 -55 18 -77 22 -22 4 -44 8
-50 8 -5 0 -53 15 -105 33 -52 17 -126 49 -165 69 -38 21 -80 47 -93 58 -12
12 -46 41 -76 66 -29 25 -65 63 -80 85 -15 22 -45 65 -67 95 -22 30 -58 93
-81 140 -23 47 -56 108 -74 137 -18 29 -47 83 -65 120 -17 37 -47 102 -66 143
-20 41 -56 134 -81 205 -24 72 -55 169 -68 217 -13 47 -28 137 -34 200 -6 62
-13 129 -15 148 -3 19 -5 40 -5 45 -1 6 3 62 7 125 4 63 8 162 8 220 0 58 -4
168 -8 245 -5 77 -17 194 -27 260 -10 66 -21 174 -24 240 -4 66 -11 147 -16
180 -6 33 -11 95 -11 137 0 43 -4 110 -10 150 -6 40 -10 102 -10 138 0 36 -7
151 -15 255 -8 105 -21 242 -30 305 -9 63 -18 118 -20 121 -2 3 -6 57 -9 120
-3 62 -12 159 -20 214 -8 55 -19 145 -25 200 -6 55 -14 127 -19 160 -5 33 -12
101 -16 150 -3 50 -11 158 -16 240 -6 83 -12 202 -15 265 -3 63 -11 153 -19
200 -8 47 -17 155 -21 240 -3 85 -12 227 -19 315 -9 103 -12 263 -9 450 2 160
6 359 9 444 3 85 9 159 13 165 3 6 9 115 13 241 4 127 12 289 18 360 6 72 16
164 21 205 6 41 15 134 21 205 6 72 12 190 14 263 2 72 8 147 14 165 5 17 12
57 15 87 3 30 10 111 15 180 6 69 16 153 21 188 6 34 14 90 20 125 5 34 14
103 19 152 6 50 13 115 16 145 4 30 16 96 27 145 11 50 26 120 33 156 7 37 20
91 30 120 10 30 26 72 36 94 9 23 23 61 30 85 6 25 13 54 14 64 1 11 7 22 14
24 6 2 17 10 24 17 6 7 26 37 42 65 17 29 65 96 107 149 42 53 94 113 115 134
22 21 88 62 148 92 60 30 115 55 122 55 7 0 13 4 13 8 0 5 28 16 63 26 34 10
75 22 91 27 16 5 44 9 63 9 19 0 44 5 56 12 12 7 47 15 77 19 30 3 70 7 88 8z
m2867 -3955 c94 -2 199 -9 235 -14 36 -6 103 -15 150 -20 48 -5 124 -18 170
-29 47 -11 107 -23 134 -27 27 -4 97 -24 155 -44 58 -21 122 -44 141 -51 19
-7 71 -30 115 -52 44 -21 87 -44 95 -51 8 -7 31 -22 50 -32 19 -10 44 -26 55
-35 11 -8 54 -36 95 -61 41 -26 86 -58 99 -72 14 -14 29 -26 35 -26 6 0 49
-37 96 -81 47 -45 95 -88 108 -96 12 -8 22 -20 22 -26 0 -6 18 -32 40 -58 22
-26 40 -51 40 -56 0 -5 9 -16 20 -26 11 -9 20 -23 20 -32 0 -8 9 -19 20 -25
11 -6 20 -17 20 -24 0 -7 16 -33 35 -57 19 -24 35 -49 35 -54 0 -6 10 -21 23
-35 12 -14 33 -42 45 -62 13 -20 34 -67 47 -105 13 -37 33 -92 44 -122 12 -30
18 -57 16 -60 -3 -2 -18 8 -33 22 -16 15 -32 27 -37 27 -4 0 -27 16 -51 35
-23 19 -46 35 -51 35 -5 0 -31 15 -59 33 -27 17 -68 42 -91 55 -22 12 -48 22
-57 22 -9 0 -24 4 -34 9 -9 4 -30 13 -47 19 -16 5 -46 16 -65 23 -19 7 -48 18
-65 25 -16 7 -58 22 -91 33 -34 11 -86 25 -115 30 -30 5 -83 17 -118 25 -35 9
-112 23 -170 31 -58 7 -117 18 -131 23 -14 5 -66 10 -117 11 -50 1 -116 6
-145 11 -29 6 -123 16 -208 24 -85 8 -200 17 -255 20 -55 3 -165 8 -245 12
-91 4 -167 2 -205 -5 -33 -6 -102 -13 -153 -16 -51 -3 -102 -10 -113 -16 -11
-6 -27 -8 -35 -5 -8 3 -34 1 -57 -5 -23 -5 -89 -21 -147 -36 -58 -14 -150 -34
-205 -45 -55 -10 -121 -25 -146 -33 -26 -8 -56 -15 -67 -15 -12 0 -23 -4 -27
-9 -3 -5 -18 -12 -35 -16 -16 -3 -52 -17 -80 -31 -27 -13 -54 -24 -59 -24 -4
0 -79 -36 -166 -79 -86 -44 -167 -88 -179 -99 -11 -11 -31 -23 -42 -26 -12 -4
-29 -15 -39 -26 -10 -11 -26 -20 -35 -20 -10 0 -28 -9 -42 -19 -13 -11 -53
-36 -88 -57 -36 -21 -85 -53 -110 -72 -25 -19 -86 -74 -137 -123 -51 -49 -99
-89 -108 -89 -9 0 -15 9 -15 23 0 12 9 54 19 92 10 39 24 81 31 94 7 13 21 54
31 90 11 36 19 74 19 83 0 9 13 45 29 80 16 35 34 81 40 104 6 22 20 49 31 59
11 10 20 28 20 40 0 12 9 30 21 41 11 10 37 41 57 68 20 27 68 82 107 121 38
39 108 111 155 160 47 48 127 122 178 164 51 42 126 99 167 126 41 28 91 60
111 73 19 12 40 22 45 22 5 0 27 11 49 25 22 14 44 25 50 25 6 0 20 5 33 12
12 6 30 15 39 20 10 4 23 8 30 8 6 0 30 8 52 19 23 10 67 30 99 45 32 14 61
26 65 26 4 0 38 16 75 35 38 19 78 35 91 35 12 0 26 4 32 9 5 5 27 11 49 13
37 3 40 1 43 -23 2 -15 14 -32 31 -42 24 -14 61 -17 247 -16 121 0 277 -3 347
-7 95 -5 131 -3 142 6 8 7 15 25 15 40 0 15 -7 33 -16 40 -10 9 -72 16 -187
21 -95 4 -211 8 -259 8 -49 0 -88 4 -88 10 0 5 33 14 73 19 39 5 149 8 242 6z
m-81 -1019 c110 -2 251 -6 311 -9 61 -4 124 -9 140 -11 17 -3 71 -7 120 -10
50 -4 97 -8 105 -10 8 -2 65 -9 125 -15 61 -6 173 -20 250 -31 77 -11 205 -34
285 -51 80 -17 181 -44 225 -59 44 -16 89 -34 100 -39 11 -5 50 -18 87 -29 37
-11 82 -28 100 -38 18 -10 40 -20 48 -23 9 -3 58 -32 109 -65 51 -33 123 -86
160 -117 57 -48 71 -67 95 -126 19 -46 26 -79 22 -95 -3 -14 -24 -39 -45 -56
-28 -22 -48 -31 -70 -29 -25 2 -31 7 -31 25 0 17 -34 57 -116 137 -63 62 -141
128 -171 147 -31 19 -72 48 -92 65 -20 18 -52 41 -71 53 -19 12 -63 35 -97 51
-34 16 -101 41 -148 55 -47 13 -125 31 -173 39 -48 9 -136 23 -197 32 -60 9
-137 20 -170 25 -33 4 -130 10 -215 14 -85 3 -283 10 -440 16 -221 9 -329 9
-480 -1 -107 -7 -207 -12 -222 -12 -15 1 -30 -3 -33 -8 -4 -6 -33 -10 -65 -10
-32 0 -60 -4 -62 -9 -1 -4 -59 -20 -128 -35 -69 -15 -145 -31 -170 -35 -25 -5
-74 -20 -110 -34 -36 -13 -103 -32 -150 -42 -47 -9 -96 -21 -110 -27 -14 -6
-33 -14 -42 -19 -10 -5 -24 -9 -32 -9 -8 0 -76 -32 -152 -71 -77 -39 -148 -80
-160 -90 -11 -11 -23 -19 -26 -19 -2 0 -24 -18 -47 -40 -23 -22 -56 -47 -74
-56 -18 -9 -45 -28 -61 -41 -16 -14 -52 -54 -78 -89 -35 -46 -58 -66 -78 -71
-16 -3 -32 -14 -35 -24 -4 -11 5 -40 19 -69 14 -27 21 -52 16 -55 -6 -3 -5
-16 0 -31 6 -14 10 -30 10 -35 0 -5 -11 -9 -23 -9 -13 0 -50 9 -82 20 -32 11
-73 32 -92 46 -30 23 -33 30 -27 57 4 18 18 48 32 67 14 19 54 63 89 98 35 34
67 62 70 62 4 0 23 17 42 38 20 21 52 49 71 62 19 13 41 30 48 37 7 7 19 13
25 13 7 0 24 11 39 24 14 14 43 34 64 45 22 11 55 28 74 38 19 10 62 36 95 58
33 22 62 43 65 46 3 4 25 16 49 28 25 11 52 21 62 21 9 0 22 7 29 15 7 8 18
15 25 15 7 0 23 8 36 18 13 10 53 30 89 45 36 14 115 42 175 61 61 19 146 42
190 51 44 9 91 21 105 25 14 5 59 14 100 20 41 7 100 19 130 26 30 8 89 21
130 29 41 8 100 15 130 15 30 0 61 4 69 9 7 5 104 7 215 6z m-19 -241 c83 -2
168 -7 190 -9 22 -2 155 -7 295 -10 140 -3 287 -10 325 -15 39 -5 89 -12 113
-14 23 -3 47 -8 52 -11 6 -3 49 -10 98 -15 48 -4 130 -15 182 -23 52 -8 120
-23 150 -32 30 -9 75 -24 100 -33 25 -9 71 -31 103 -49 33 -18 73 -43 90 -55
18 -12 37 -26 42 -31 6 -4 32 -22 58 -41 26 -18 91 -75 143 -127 87 -85 97
-98 98 -133 1 -22 -1 -61 -5 -86 -5 -25 -11 -56 -14 -70 -3 -14 -7 -45 -10
-70 -2 -25 -21 -94 -41 -155 -21 -60 -43 -123 -50 -140 -7 -16 -15 -42 -18
-57 -4 -15 -12 -33 -19 -40 -7 -7 -21 -30 -30 -50 -10 -20 -22 -40 -27 -43 -6
-3 -10 -14 -10 -24 0 -10 -11 -37 -23 -62 -13 -24 -42 -78 -64 -120 -22 -42
-69 -114 -104 -160 -34 -46 -66 -86 -69 -89 -3 -3 -20 -28 -38 -56 -18 -28
-32 -54 -32 -58 0 -4 -19 -32 -42 -63 -24 -31 -70 -83 -103 -115 -33 -32 -84
-75 -112 -95 -29 -20 -53 -40 -53 -45 0 -4 -6 -8 -13 -8 -7 0 -22 -8 -33 -18
-11 -10 -32 -22 -46 -25 -15 -4 -33 -13 -40 -20 -7 -7 -65 -38 -128 -69 -63
-32 -135 -64 -160 -72 -25 -8 -56 -19 -70 -24 -14 -6 -52 -18 -85 -28 -32 -9
-68 -19 -80 -20 -11 -2 -40 -9 -65 -14 -25 -6 -67 -15 -95 -20 -27 -5 -92 -14
-142 -20 -51 -6 -191 -12 -310 -13 -120 -1 -238 1 -263 6 -25 4 -94 19 -155
33 -60 15 -119 32 -130 39 -11 6 -45 20 -75 30 -30 9 -91 36 -135 58 -44 23
-109 61 -145 85 -36 25 -76 54 -90 67 -14 12 -46 34 -72 49 -26 14 -53 34 -60
44 -7 9 -33 33 -58 53 -25 20 -85 74 -135 119 -49 45 -112 109 -140 141 -27
32 -65 88 -84 126 -18 37 -44 90 -58 118 -13 27 -38 86 -55 130 -17 44 -34 89
-39 100 -5 11 -18 45 -29 75 -11 30 -20 64 -20 75 0 12 -4 25 -9 30 -4 6 -14
26 -20 45 -7 19 -22 71 -32 115 -11 44 -23 130 -26 190 l-5 110 42 63 c23 35
54 71 69 80 14 9 61 43 104 75 42 33 77 64 77 69 0 5 8 11 18 15 9 3 30 15 45
26 16 10 49 31 75 44 26 14 63 34 82 43 19 10 55 27 80 38 25 11 65 26 90 32
25 7 50 13 55 15 6 1 17 5 25 8 8 3 29 8 45 12 17 4 49 9 73 12 23 3 42 8 42
12 0 4 21 12 48 19 26 7 74 20 107 29 33 9 78 21 100 28 22 7 63 16 90 20 28
4 50 6 50 4 0 -1 10 3 23 10 12 6 59 17 105 22 45 6 138 16 207 24 77 8 183
12 275 9z"/>
<g>
<path d="M8035 14163 c-11 3 -30 2 -42 -3 -19 -8 -23 -17 -23 -57 0 -26 -7
-82 -16 -123 -8 -41 -18 -100 -21 -131 -4 -44 -2 -59 12 -73 10 -9 27 -16 38
-14 11 2 23 10 27 18 5 8 16 68 26 132 9 65 20 122 24 127 4 7 25 5 60 -4 49
-13 56 -13 75 3 11 9 23 21 26 26 4 4 4 17 2 27 -3 10 -19 25 -36 34 -16 8
-49 15 -72 15 -22 0 -45 4 -50 9 -6 5 -19 11 -30 14z"/>
</g>
<g>
<path d="M9186 13739 c-23 -1 -50 -4 -62 -6 -12 -2 -27 -15 -34 -27 -7 -14 -9
-36 -5 -54 3 -16 15 -38 25 -47 11 -10 39 -20 64 -22 39 -5 48 -2 71 22 24 23
27 32 22 68 -3 23 -14 47 -23 54 -10 7 -36 12 -58 12z"/>
</g>
<g>
<path d="M6904 13579 c-16 0 -39 -4 -51 -9 -12 -5 -29 -20 -39 -34 -12 -20
-15 -37 -10 -71 5 -29 14 -49 26 -55 10 -5 27 -10 38 -10 10 0 33 7 50 16 18
8 39 25 47 37 8 12 15 35 15 52 0 20 -9 40 -23 53 -14 13 -36 22 -53 21z"/>
</g>
<g>
<path d="M9122 12800 c-4 0 -24 -16 -45 -35 -34 -31 -38 -39 -31 -68 3 -17 10
-42 15 -54 4 -12 17 -27 28 -32 11 -6 41 -11 68 -11 38 0 51 4 61 20 7 11 15
39 18 63 5 38 3 45 -25 70 -18 15 -43 32 -57 37 -14 6 -28 10 -32 10z"/>
</g>
<g>
<path d="M7032 12631 c-9 2 -33 3 -52 1 -19 -2 -43 -12 -53 -23 -10 -11 -20
-41 -24 -67 -4 -38 -1 -52 17 -74 19 -25 28 -28 79 -28 48 0 61 4 79 24 11 14
24 40 27 59 6 29 2 40 -24 70 -17 19 -39 36 -49 38z"/>
</g>
<g>
<path d="M7991 12560 c-15 0 -31 -3 -34 -7 -4 -3 -7 -54 -7 -113 0 -58 -10
-180 -21 -271 -12 -90 -21 -175 -20 -189 1 -13 10 -33 20 -43 13 -13 48 -24
112 -33 62 -10 101 -11 115 -5 13 6 23 21 26 40 2 17 2 35 -2 41 -4 6 -38 16
-76 21 -38 6 -74 16 -81 22 -6 7 -13 21 -14 32 -1 11 1 54 6 95 5 41 10 93 11
115 1 22 7 72 13 110 5 39 10 89 10 112 1 25 -5 48 -15 57 -8 9 -28 16 -43 16z"/>
</g>
<g>
<path d="M8322 11553 c-134 1 -246 0 -248 -3 -3 -2 -51 -8 -107 -12 -56 -4
-152 -11 -213 -16 -68 -4 -118 -13 -127 -21 -9 -7 -16 -24 -15 -38 2 -13 9
-30 17 -36 9 -8 53 -11 131 -10 64 1 197 9 296 18 136 13 222 15 359 9 99 -4
189 -7 200 -7 11 0 42 1 68 3 l49 4 -7 40 c-3 22 -14 49 -23 59 -14 16 -25 18
-62 12 -25 -4 -52 -6 -60 -5 -8 0 -124 2 -258 3z"/>
</g>
</g>
<g>
<path d="M9853 5900 c-7 0 -13 -6 -13 -14 0 -8 -7 -16 -15 -20 -8 -3 -15 -12
-15 -20 0 -8 11 -28 24 -43 20 -23 28 -26 42 -17 10 6 22 23 27 38 7 22 5 32
-14 52 -12 13 -28 24 -36 24z"/>
</g>
<g>
<path d="M6896 5700 c-12 -1 -27 -7 -33 -15 -8 -8 -10 -26 -7 -45 5 -21 14
-32 32 -37 14 -3 32 -1 41 4 9 6 17 20 19 32 2 13 -4 31 -14 42 -9 10 -27 19
-38 19z"/>
</g>
<g>
<path d="M9829 5597 c-13 2 -21 -5 -25 -21 -3 -13 -4 -36 -2 -52 2 -18 13 -34
30 -43 15 -9 30 -12 34 -9 3 4 9 27 11 50 4 33 1 47 -12 58 -9 8 -25 15 -36
17z"/>
</g>
<g>
<path d="M6912 5430 c-9 0 -23 -4 -31 -9 -10 -6 -12 -19 -7 -44 4 -19 13 -38
21 -41 8 -3 21 -3 28 0 7 2 18 14 25 25 11 17 11 25 -3 45 -8 13 -23 24 -33
24z"/>
</g>
<g>
<path d="M9864 5290 c-7 0 -20 -10 -28 -22 -10 -14 -16 -44 -16 -75 0 -48 3
-55 26 -65 22 -10 28 -10 39 6 8 10 13 35 13 56 0 21 3 43 7 50 4 6 -1 20 -11
31 -9 10 -23 19 -30 19z"/>
</g>
<g>
<path d="M6898 5188 c-22 3 -29 -2 -34 -22 -3 -13 -3 -33 0 -44 4 -11 14 -23
23 -26 10 -4 25 1 37 13 16 17 18 26 10 48 -7 20 -17 29 -36 31z"/>
</g>
<g>
<path d="M6905 4998 c-11 1 -26 -2 -34 -7 -8 -5 -16 -32 -19 -65 -2 -30 -2
-66 2 -79 3 -14 15 -27 26 -30 16 -4 24 2 36 31 9 22 14 59 12 92 -3 46 -6 55
-23 58z"/>
</g>
<g>
<path d="M9873 4860 c-13 0 -23 -6 -23 -12 0 -7 -1 -58 -2 -113 0 -55 3 -108
7 -117 4 -10 16 -18 27 -18 11 0 26 7 35 15 12 12 14 37 11 121 -2 79 -7 107
-18 114 -8 5 -25 10 -37 10z"/>
</g>
<g>
<path d="M6892 4680 c-20 0 -22 -5 -22 -64 0 -34 5 -77 11 -94 5 -16 19 -32
30 -35 12 -3 23 1 29 13 6 10 10 48 10 83 0 49 -4 68 -18 80 -10 10 -28 17
-40 17z"/>
</g>
<g>
<path d="M9883 4280 c-13 0 -25 -6 -28 -12 -2 -7 -10 -62 -19 -122 -8 -61 -13
-114 -10 -118 3 -4 16 -8 30 -8 14 0 27 6 30 14 3 8 6 20 8 28 1 7 4 18 7 23
3 6 12 45 19 87 10 63 10 81 0 93 -7 8 -23 15 -37 15z"/>
</g>
<g>
<path d="M6951 4259 c-9 -1 -24 -3 -33 -6 -15 -4 -18 -16 -18 -72 0 -39 5 -75
13 -85 9 -12 23 -17 42 -14 30 3 30 3 33 76 2 46 -1 79 -9 88 -6 8 -19 13 -28
13z"/>
</g>
<g>
<path d="M6961 3880 c-10 0 -23 -6 -27 -12 -5 -7 -9 -78 -9 -158 1 -80 7 -248
13 -375 6 -126 12 -278 13 -338 0 -59 -3 -113 -8 -120 -5 -7 -6 -56 -3 -110 3
-54 1 -106 -4 -114 -5 -9 -6 -54 -2 -100 l6 -83 -41 -37 c-23 -21 -69 -50
-101 -65 -33 -16 -63 -28 -67 -28 -4 0 -16 -9 -26 -20 -10 -11 -23 -20 -30
-20 -6 0 -22 -11 -35 -25 -13 -14 -31 -25 -41 -25 -9 0 -24 -11 -33 -25 -9
-14 -22 -25 -28 -25 -7 0 -23 -12 -35 -27 -13 -14 -23 -32 -23 -39 0 -7 12
-22 26 -33 15 -12 33 -21 41 -21 8 0 24 9 35 20 12 11 37 25 55 32 18 7 35 20
38 30 4 9 20 29 38 43 18 14 37 30 44 35 7 6 16 10 20 10 4 0 19 9 33 20 14
11 35 20 47 20 12 0 34 11 50 24 15 13 52 38 82 56 l53 33 -6 547 c-4 300 -11
586 -16 635 -5 50 -10 126 -10 170 0 57 -5 87 -16 103 -8 12 -23 22 -33 22z"/>
</g>
<g>
<path d="M9889 3880 c-15 0 -31 -6 -36 -12 -4 -7 -8 -38 -9 -68 0 -30 -4 -116
-8 -191 -6 -108 -4 -154 8 -222 13 -69 16 -146 14 -409 -2 -177 1 -401 5 -497
l8 -175 -28 -23 c-16 -13 -44 -34 -63 -47 -19 -13 -64 -54 -100 -91 -36 -38
-107 -111 -158 -163 -85 -87 -91 -96 -77 -112 8 -9 15 -26 15 -39 0 -12 7 -24
14 -27 8 -3 29 2 45 12 17 10 31 25 31 34 0 9 21 36 46 60 25 23 57 59 72 79
14 20 40 51 56 69 17 18 59 55 93 82 34 27 74 52 89 56 15 4 36 16 46 26 19
19 19 30 13 186 -3 92 -7 349 -9 572 -2 238 -8 454 -16 524 -8 73 -10 151 -5
200 4 45 7 90 6 100 0 11 -5 32 -12 48 -9 21 -18 28 -40 28z"/>
</g>
</g>
</svg>
