<?xml version="1.0" standalone="no"?>
<!DOCTYPE svg PUBLIC "-//W3C//DTD SVG 20010904//EN"
 "http://www.w3.org/TR/2001/REC-SVG-20010904/DTD/svg10.dtd">
<svg version="1.0" xmlns="http://www.w3.org/2000/svg"
 width="1705.000000pt" height="1291.000000pt" viewBox="0 0 1705.000000 1291.000000"
 preserveAspectRatio="xMidYMid meet">
<metadata>
Created by potrace 1.16, written by Peter Selinger 2001-2019
</metadata>
<g transform="translate(0.000000,1291.000000) scale(0.100000,-0.100000)"
fill="#000000" stroke="none">
<g>
<path d="M933 12898 c-7 2 -13 2 -14 0 0 -1 -2 -11 -4 -21 -2 -13 2 -17 13
-15 9 2 17 10 17 17 0 8 -6 16 -12 19z"/>
</g>
<g>
<path d="M12798 10210 c-18 -1 -42 -8 -53 -18 -12 -9 -27 -33 -34 -52 -8 -19
-23 -45 -34 -57 -11 -13 -26 -23 -34 -23 -7 0 -13 -5 -13 -10 0 -6 -17 -37
-37 -68 -21 -31 -49 -82 -64 -113 -15 -30 -34 -61 -42 -68 -9 -7 -30 -40 -48
-74 -18 -34 -37 -72 -44 -83 -6 -12 -21 -35 -33 -50 -12 -16 -38 -53 -57 -81
-19 -29 -35 -60 -35 -68 0 -9 -7 -18 -15 -21 -8 -4 -15 -12 -15 -19 0 -7 -7
-15 -15 -19 -8 -3 -15 -12 -15 -20 0 -8 -6 -19 -14 -23 -7 -4 -37 -43 -65 -85
-29 -42 -59 -82 -67 -88 -8 -7 -14 -18 -14 -24 -1 -6 -21 -33 -46 -61 l-44
-50 -28 32 c-15 18 -45 55 -67 84 -22 29 -62 76 -90 105 -27 30 -54 58 -60 63
-5 6 -58 56 -117 111 -59 56 -133 133 -164 171 -31 38 -89 100 -128 138 -39
37 -125 118 -191 181 l-120 113 0 68 c0 37 -4 71 -8 76 -5 4 -31 8 -57 8 -44
0 -52 -4 -84 -40 -20 -22 -36 -46 -36 -52 0 -7 5 -13 11 -13 8 0 8 -4 -1 -15
-9 -11 -7 -21 14 -48 14 -19 24 -36 22 -38 -2 -2 -8 -143 -12 -314 -4 -170 -7
-321 -6 -335 2 -14 6 -110 11 -215 5 -104 14 -235 20 -290 9 -84 9 -102 -3
-110 -8 -7 -68 -10 -148 -9 -73 1 -162 -2 -198 -7 -36 -5 -123 -11 -195 -13
-71 -2 -173 -6 -225 -9 -52 -3 -131 -8 -175 -11 -44 -4 -90 -9 -103 -12 -13
-2 -47 -7 -75 -10 -29 -2 -122 -11 -207 -19 -85 -8 -173 -17 -195 -19 -22 -3
-71 -9 -110 -13 -38 -5 -75 -12 -81 -16 -7 -4 -43 -10 -80 -13 -38 -3 -85 -6
-104 -6 -19 1 -93 1 -164 1 -98 0 -134 -4 -152 -15 -17 -12 -23 -24 -22 -54 0
-35 7 -44 81 -107 44 -37 114 -97 156 -133 42 -36 119 -106 171 -157 52 -51
103 -99 113 -107 9 -9 19 -16 22 -16 3 0 52 -44 108 -99 56 -54 157 -142 224
-195 66 -53 125 -96 130 -96 5 0 30 -26 57 -57 26 -32 68 -74 92 -94 24 -20
56 -52 71 -70 15 -19 45 -54 67 -78 23 -24 51 -55 64 -68 12 -13 22 -28 22
-33 0 -6 4 -10 9 -10 5 0 13 -9 16 -20 4 -11 31 -47 61 -79 30 -32 54 -65 54
-73 0 -8 -61 -74 -136 -148 -75 -74 -144 -143 -153 -152 -9 -10 -34 -38 -56
-64 -22 -25 -44 -50 -50 -54 -5 -5 -41 -36 -80 -70 -38 -34 -77 -67 -85 -74
-8 -8 -31 -24 -50 -37 -19 -13 -51 -38 -70 -54 -19 -17 -72 -67 -118 -112 -46
-46 -90 -83 -98 -83 -8 0 -15 -6 -15 -12 -1 -7 -3 -23 -4 -36 -1 -13 7 -37 19
-54 16 -25 33 -34 76 -44 30 -7 87 -13 125 -14 39 0 111 7 160 15 50 8 113 15
141 15 28 0 53 2 56 5 3 3 153 8 334 10 181 2 394 7 474 9 80 3 145 6 145 7 0
0 32 3 71 5 l72 4 7 -127 c4 -71 7 -135 6 -143 0 -8 -5 -132 -11 -275 -6 -143
-13 -298 -15 -344 -3 -45 0 -102 6 -125 7 -22 12 -61 12 -86 -1 -25 -4 -81 -7
-125 -4 -44 -11 -107 -16 -140 -6 -33 -10 -121 -9 -195 0 -74 4 -144 8 -155 4
-10 4 -31 0 -45 -5 -14 -13 -65 -19 -115 -6 -49 -10 -101 -10 -115 1 -14 1
-52 0 -85 0 -33 2 -83 5 -112 5 -44 10 -53 35 -63 22 -9 37 -9 64 0 19 6 43
23 53 38 9 15 24 38 31 51 7 14 14 32 15 42 2 9 8 23 14 31 6 7 25 42 43 78
17 36 36 72 41 80 5 8 19 35 31 60 12 25 26 46 30 48 4 2 10 20 14 40 4 20 18
45 31 55 12 10 23 23 23 28 0 6 11 25 24 42 14 18 27 44 31 59 4 14 15 34 26
44 10 9 19 21 19 27 0 5 14 29 30 54 17 24 30 46 30 49 0 3 21 35 47 72 26 37
61 85 78 107 16 22 38 49 48 60 10 11 47 60 82 108 36 48 65 92 65 98 0 5 17
33 38 62 22 29 45 64 53 80 l15 27 34 -35 c19 -19 42 -35 52 -35 11 0 26 -12
35 -27 9 -16 36 -43 60 -61 24 -17 50 -32 59 -32 8 0 20 -12 25 -27 5 -16 28
-40 50 -56 21 -15 43 -27 48 -27 5 0 19 -16 31 -35 12 -20 38 -44 58 -53 20
-9 34 -20 32 -24 -3 -4 15 -28 40 -53 24 -25 49 -45 55 -45 6 0 46 -34 88 -75
42 -42 77 -79 77 -83 0 -4 35 -43 78 -87 42 -44 94 -91 114 -105 21 -14 38
-30 38 -36 0 -5 15 -24 33 -42 18 -18 37 -32 42 -32 6 0 21 -19 35 -41 13 -22
38 -53 53 -69 20 -21 39 -30 61 -30 17 0 41 3 54 6 22 6 22 8 17 133 -3 69 -8
182 -9 251 -3 77 -10 145 -20 176 -9 29 -20 74 -26 100 -5 27 -18 90 -29 139
-10 50 -24 138 -30 195 -6 58 -18 184 -27 280 -9 96 -18 197 -20 224 -2 27 -6
56 -8 65 -3 9 -8 66 -11 126 -4 61 -8 132 -9 158 -2 36 1 50 13 56 9 5 49 12
89 15 40 4 126 7 190 7 64 0 169 4 232 10 63 5 140 11 170 13 30 2 129 9 220
15 91 7 237 18 325 26 88 8 194 21 235 29 41 9 152 20 245 25 110 7 194 17
237 29 37 11 70 17 72 15 2 -3 13 -2 24 1 11 4 22 16 25 26 3 13 -2 25 -15 34
-12 9 -18 21 -15 29 3 8 0 21 -6 29 -7 8 -42 27 -79 42 -37 15 -73 35 -79 43
-7 8 -42 28 -77 44 -35 16 -86 45 -113 64 -27 19 -51 35 -54 35 -3 0 -37 21
-75 47 -39 26 -70 51 -70 55 0 4 -5 8 -12 8 -6 0 -28 17 -47 38 -20 20 -52 50
-71 66 -19 15 -60 52 -90 81 -30 29 -90 89 -132 133 -42 45 -85 94 -95 109
-10 15 -36 48 -58 72 -22 24 -52 56 -66 70 -14 14 -55 53 -91 86 -36 33 -86
78 -112 100 -26 21 -71 54 -99 72 -29 18 -65 40 -82 49 -16 9 -40 25 -52 37
l-22 20 21 31 c12 17 33 45 47 62 14 17 42 50 61 74 19 24 42 53 50 65 8 12
27 40 41 61 14 22 56 74 93 117 36 43 66 81 66 85 0 4 19 27 43 52 23 25 54
61 69 80 15 19 52 62 82 95 31 33 56 64 56 68 0 4 44 52 97 105 53 53 117 121
142 151 24 30 56 65 70 78 14 12 30 23 34 23 4 0 13 5 20 10 7 6 23 18 36 28
19 15 22 23 16 38 -5 10 -9 33 -10 49 0 30 0 30 -55 28 -30 -1 -111 -6 -179
-12 -69 -6 -179 -13 -245 -16 -67 -3 -137 -7 -156 -8 -19 -2 -55 -6 -80 -10
-25 -4 -93 -9 -152 -11 -59 -3 -111 -7 -115 -9 -5 -3 -64 -8 -133 -12 -69 -4
-201 -10 -295 -14 -93 -4 -174 -3 -179 1 -5 4 -16 51 -23 105 -7 54 -16 132
-19 173 -3 41 -8 134 -13 205 -4 72 -4 141 -1 155 4 14 8 90 9 170 0 80 6 206
12 280 8 90 17 141 26 152 12 14 13 23 3 55 -7 21 -16 48 -21 61 -7 17 -16 22
-41 22z m-113 -340 c2 0 1 -138 -1 -307 -3 -170 0 -380 5 -468 5 -88 12 -180
16 -205 3 -25 8 -50 10 -57 2 -7 -11 -14 -33 -17 -20 -3 -144 -11 -275 -17
l-238 -13 -55 55 c-31 30 -60 62 -66 72 -7 14 -5 23 6 36 9 10 16 21 16 25 0
4 16 28 35 54 20 26 49 62 65 81 17 19 30 38 30 43 0 5 10 23 23 40 12 17 30
40 40 50 9 10 17 22 17 27 0 5 23 37 50 71 28 34 50 71 50 81 0 11 7 19 15 19
8 0 15 5 15 10 0 6 18 33 40 61 22 28 40 55 40 60 0 5 22 41 49 81 26 40 60
96 75 123 16 28 37 60 49 73 11 12 21 22 22 22z m-1706 -10 c2 0 42 -34 90
-76 47 -42 119 -108 159 -146 39 -39 72 -75 72 -81 0 -5 94 -103 208 -216 114
-113 228 -232 253 -264 24 -33 59 -79 77 -104 24 -32 32 -52 28 -68 -3 -13
-17 -36 -30 -52 -13 -15 -32 -44 -43 -63 l-20 -35 -135 -2 c-75 -1 -204 -9
-288 -18 -84 -8 -194 -15 -245 -15 l-92 0 -7 58 c-4 31 -9 75 -11 97 -3 22 -7
114 -11 205 -3 91 -7 303 -8 472 0 170 1 308 3 308z m985 -1043 c6 -2 17 -14
23 -28 12 -23 11 -24 -23 -27 -20 -2 -38 -1 -41 1 -2 3 3 17 13 32 9 14 22 24
28 22z m2102 -39 c139 2 146 2 133 -15 -7 -10 -36 -41 -64 -68 -28 -28 -58
-65 -65 -82 -8 -18 -23 -34 -33 -37 -11 -2 -16 -9 -13 -15 4 -5 -2 -16 -11
-23 -10 -7 -50 -51 -88 -98 -38 -47 -79 -94 -90 -105 -11 -12 -30 -35 -42 -53
-13 -17 -23 -33 -23 -36 0 -3 -11 -17 -25 -31 -14 -14 -29 -25 -33 -25 -4 -1
-23 -24 -43 -53 -20 -29 -64 -86 -98 -127 -34 -41 -70 -85 -81 -97 -11 -12
-20 -29 -20 -37 0 -9 -10 -20 -21 -27 -17 -9 -20 -17 -16 -45 5 -31 4 -33 -13
-24 -16 9 -24 3 -50 -34 -16 -25 -35 -48 -41 -51 -5 -4 -36 12 -67 36 -31 23
-75 58 -96 78 -22 20 -65 62 -95 94 -31 31 -60 57 -65 57 -5 0 -29 20 -53 45
-24 25 -47 45 -52 45 -4 0 -9 33 -9 73 -1 39 -6 173 -12 296 -6 124 -11 227
-12 230 0 3 0 16 1 27 1 19 9 23 65 28 35 4 119 9 187 11 68 2 165 7 214 10
50 4 99 8 110 9 11 2 40 6 65 10 25 4 70 8 100 10 30 2 111 7 180 11 69 4 126
8 127 9 1 0 68 2 149 4z m-1416 -93 l85 0 2 -125 c1 -69 4 -145 8 -170 3 -25
8 -83 11 -130 l5 -85 -30 35 c-17 19 -31 38 -31 43 0 4 -8 7 -17 7 -10 0 -29
19 -43 43 -14 23 -97 112 -185 199 -87 86 -156 161 -151 165 4 4 65 10 134 13
70 3 165 5 212 5z m-539 -33 c18 -3 84 -63 215 -196 104 -105 246 -251 316
-324 l127 -132 2 -217 c0 -120 0 -248 -1 -284 -1 -37 -7 -91 -15 -119 -12 -45
-12 -57 0 -79 9 -19 10 -32 3 -44 -6 -11 -7 -66 -3 -140 3 -67 6 -155 7 -195
1 -53 -4 -83 -18 -110 -10 -20 -22 -39 -25 -42 -3 -3 -18 -23 -33 -45 -14 -22
-41 -62 -58 -90 -18 -27 -33 -55 -34 -62 -1 -7 -10 -20 -19 -29 -9 -10 -58
-81 -109 -158 -51 -78 -104 -160 -117 -183 -24 -43 -24 -43 -84 -44 -33 -1
-73 -3 -90 -4 -16 -2 -66 -6 -110 -10 -44 -3 -136 -1 -205 5 -69 6 -156 13
-195 16 -38 3 -110 7 -160 10 -49 3 -117 6 -150 8 -33 2 -108 7 -167 11 -82 5
-110 11 -122 24 -12 13 -17 43 -20 107 -2 49 -6 97 -11 107 -4 10 -2 23 5 32
6 8 9 19 5 25 -3 5 -9 99 -12 208 -3 108 -6 337 -8 507 -1 171 -6 356 -10 412
l-8 102 89 85 c49 47 91 86 94 86 3 0 13 12 22 28 9 15 38 50 65 79 26 28 73
79 103 113 30 34 59 69 64 78 5 10 24 31 41 47 18 17 52 56 75 88 24 32 57 73
74 91 17 17 59 63 93 101 34 39 70 80 80 92 15 18 37 23 148 35 72 7 142 12
156 10z m-501 -20 c25 -3 46 -6 47 -6 1 -1 -21 -31 -50 -67 -28 -35 -62 -74
-74 -85 -13 -12 -23 -25 -23 -29 0 -4 -33 -44 -73 -89 -40 -44 -89 -101 -109
-126 -20 -25 -65 -75 -100 -112 -36 -36 -98 -103 -138 -148 -58 -64 -75 -78
-80 -65 -3 9 -5 65 -3 123 2 59 4 211 6 337 l2 230 80 7 c44 4 143 10 220 13
77 3 165 10 195 14 30 4 75 6 100 3z m-971 -42 c25 0 90 -3 144 -7 85 -5 97
-8 92 -23 -3 -9 0 -61 8 -116 7 -54 11 -124 10 -154 -1 -30 -5 -161 -9 -290
-6 -219 -8 -237 -28 -261 -12 -14 -37 -38 -57 -53 -19 -15 -69 -62 -111 -104
-42 -42 -108 -110 -147 -151 -39 -40 -71 -78 -71 -84 0 -6 -12 -22 -28 -36
-15 -14 -40 -42 -54 -61 -15 -19 -54 -64 -87 -100 l-59 -65 -73 79 c-41 43
-81 90 -90 105 -9 14 -28 37 -42 50 -15 13 -35 40 -45 60 -11 20 -55 72 -99
116 -44 44 -111 110 -149 146 -38 36 -85 76 -104 89 -19 13 -53 39 -74 57 -22
18 -42 33 -46 33 -3 0 -54 47 -114 105 -59 58 -114 105 -121 105 -7 0 -29 20
-50 45 -20 25 -68 78 -106 117 -38 39 -69 74 -69 79 0 5 -10 14 -22 20 -12 6
-48 37 -80 68 -55 52 -57 56 -36 62 13 3 29 1 36 -4 8 -6 16 -6 25 1 6 6 41
13 75 17 35 3 75 10 89 16 13 5 29 7 33 4 5 -3 49 4 97 16 48 12 122 23 163
24 41 2 124 8 183 14 60 6 112 13 117 16 5 3 71 8 147 11 76 3 143 9 148 12 6
4 89 10 185 14 96 4 218 10 270 13 52 4 97 9 99 11 2 2 25 4 50 4z m2354 -786
c50 -49 129 -118 175 -152 45 -35 82 -69 82 -75 0 -7 -15 -29 -32 -49 -18 -20
-49 -58 -69 -85 -20 -26 -42 -59 -49 -73 -7 -14 -33 -49 -57 -79 -25 -30 -55
-76 -68 -101 -13 -26 -36 -62 -51 -80 -24 -28 -29 -30 -34 -14 -4 10 -6 66 -4
126 1 59 5 143 9 187 5 53 3 81 -4 85 -6 4 -11 16 -11 27 0 10 -5 19 -12 19
-6 0 -3 9 8 21 17 18 19 39 20 167 1 81 2 151 3 156 0 5 43 -31 94 -80z
m-2120 -225 c14 1 17 -9 18 -61 1 -35 3 -76 5 -93 1 -16 2 -106 2 -200 -1 -93
-1 -183 -1 -200 -1 -16 3 -147 7 -290 4 -143 7 -278 6 -300 0 -22 -3 -42 -6
-45 -3 -2 -37 27 -76 65 -38 39 -99 99 -134 135 -35 35 -64 70 -64 77 0 7 -4
13 -9 13 -6 0 -29 20 -52 45 -23 25 -48 45 -56 45 -7 0 -13 5 -13 10 0 6 -25
37 -55 68 -30 31 -55 62 -55 69 0 6 -16 25 -37 42 l-36 30 46 48 c26 27 58 64
71 82 14 19 39 46 55 60 16 14 41 44 56 66 14 22 89 106 168 187 78 81 150
147 160 147z m2473 -59 c3 0 18 -7 34 -15 17 -9 30 -19 30 -23 0 -4 23 -20 51
-37 28 -16 85 -57 126 -90 42 -33 95 -74 117 -91 23 -17 75 -69 117 -115 42
-46 78 -89 80 -96 2 -6 58 -69 124 -139 66 -69 121 -130 123 -135 2 -5 21 -18
42 -30 21 -12 42 -29 47 -39 4 -10 40 -45 79 -79 40 -33 75 -61 79 -61 4 0 24
-14 44 -30 20 -17 41 -34 46 -38 6 -4 42 -28 80 -53 39 -26 88 -55 110 -66 22
-11 52 -23 66 -26 15 -4 29 -14 33 -22 4 -12 -2 -15 -29 -15 -18 0 -37 -5 -40
-10 -4 -6 -18 -10 -33 -9 -15 1 -67 -4 -117 -10 -49 -6 -117 -16 -150 -21 -33
-6 -120 -15 -192 -21 -73 -6 -136 -8 -141 -5 -4 2 -55 -2 -112 -10 -57 -8
-111 -12 -118 -9 -8 3 -31 1 -53 -5 -21 -6 -71 -12 -112 -14 -41 -2 -83 -8
-93 -14 -12 -7 -27 -7 -43 0 -16 6 -52 6 -91 2 -36 -5 -72 -7 -80 -6 -8 2 -75
3 -147 4 -73 0 -156 -3 -185 -7 -29 -3 -66 -9 -81 -12 -25 -4 -28 -2 -27 19 1
12 1 25 0 28 -1 3 -4 37 -6 75 -2 39 -6 93 -7 120 -2 28 -9 122 -17 210 -7 88
-10 176 -7 196 4 20 21 58 39 85 17 27 47 73 67 103 20 30 47 73 61 96 14 23
37 57 53 77 15 19 27 40 27 46 0 7 16 29 35 51 19 21 35 43 35 49 0 6 13 26
28 44 16 18 31 41 35 51 4 9 11 17 16 17 6 0 20 18 31 40 11 22 23 40 26 40z
m-3080 -610 c6 0 16 -11 22 -25 6 -14 18 -25 27 -25 8 0 15 -7 15 -15 0 -8 8
-24 18 -34 9 -10 30 -37 46 -60 16 -22 37 -43 46 -46 8 -3 23 -18 33 -34 9
-16 58 -70 109 -120 51 -50 96 -91 100 -91 5 0 8 -5 8 -12 0 -6 43 -53 95
-103 52 -51 95 -96 95 -102 0 -6 7 -16 15 -23 8 -7 15 -20 15 -29 0 -13 -12
-16 -58 -17 -31 -1 -156 -6 -277 -11 -121 -6 -278 -8 -350 -7 -71 2 -155 6
-185 8 -31 3 -105 0 -165 -5 -61 -5 -119 -10 -130 -10 -11 0 -60 -5 -110 -10
-49 -5 -109 -12 -132 -15 -28 -3 -43 -1 -43 6 0 6 32 41 71 78 39 37 104 96
145 132 40 36 187 178 326 317 139 139 258 252 264 253z m2493 -290 c4 0 13
-46 20 -102 6 -57 15 -128 20 -158 5 -30 11 -90 13 -132 l3 -78 -80 -2 c-44
-1 -105 -1 -135 -1 -30 0 -76 1 -102 2 -27 0 -48 5 -48 9 0 5 31 55 70 113 38
57 70 109 70 115 0 6 7 17 15 24 8 6 44 56 80 111 36 54 70 99 74 99z m-1311
-551 c49 -3 94 -9 99 -12 6 -4 82 -11 169 -17 87 -6 232 -11 320 -11 89 0 174
3 188 7 26 6 27 5 20 -22 -3 -16 -17 -37 -30 -47 -13 -10 -24 -27 -24 -37 0
-9 -6 -23 -13 -29 -8 -6 -42 -55 -76 -108 -35 -54 -72 -113 -84 -131 -12 -18
-37 -56 -55 -84 -18 -28 -32 -58 -30 -67 1 -9 -12 -31 -31 -48 l-34 -33 -27
20 c-15 10 -33 27 -41 36 -8 10 -32 30 -54 46 -22 16 -67 54 -100 85 -33 31
-78 72 -100 93 -22 20 -57 49 -77 64 -21 16 -38 35 -38 42 0 8 -4 14 -9 14 -5
0 -34 24 -65 54 -31 29 -56 58 -56 64 0 6 -9 16 -20 22 -11 6 -20 16 -20 22 0
6 -11 21 -25 34 -14 13 -25 28 -25 34 0 8 24 11 70 9 39 -1 72 0 74 2 3 2 45
2 94 -2z m1384 -131 c3 -56 9 -137 12 -178 4 -41 9 -109 13 -150 4 -41 6 -82
6 -90 -1 -8 2 -53 7 -100 5 -47 17 -152 25 -235 9 -82 27 -197 40 -255 13 -58
33 -148 45 -200 11 -52 24 -126 30 -165 5 -38 10 -96 10 -127 0 -32 -4 -58 -9
-58 -4 0 -113 105 -242 234 -129 128 -259 253 -289 278 -30 25 -87 76 -125
114 -39 38 -97 92 -129 119 -32 28 -84 72 -115 98 -31 27 -77 70 -103 95 -27
25 -48 52 -48 58 0 6 7 17 15 24 8 7 15 17 15 23 0 5 11 25 25 43 14 18 25 35
25 38 0 3 11 22 25 42 14 20 23 39 20 42 -3 3 11 24 30 48 19 23 35 46 35 51
1 4 14 24 30 43 17 19 30 39 30 46 0 6 9 19 20 29 11 10 20 23 20 30 0 7 11
25 24 40 14 16 33 45 43 64 10 20 26 46 35 59 17 23 20 24 239 28 122 2 225 6
228 10 3 3 9 -41 13 -98z m-1778 92 c2 0 32 -26 66 -57 34 -32 66 -68 70 -79
5 -12 46 -55 92 -95 46 -40 88 -82 93 -92 6 -10 23 -26 39 -35 16 -10 41 -30
55 -46 14 -16 58 -62 98 -102 40 -40 89 -85 110 -101 21 -15 58 -46 82 -69
l44 -42 -21 -27 c-12 -15 -22 -34 -22 -41 0 -7 -8 -19 -17 -26 -10 -7 -35 -38
-55 -69 -21 -30 -38 -60 -38 -65 0 -6 -11 -21 -25 -34 -14 -13 -25 -28 -25
-34 -1 -6 -9 -21 -19 -33 -11 -13 -26 -23 -35 -23 -9 0 -16 -6 -16 -14 0 -8
-11 -27 -24 -43 -13 -15 -63 -86 -111 -158 -48 -71 -93 -137 -100 -145 -7 -8
-26 -40 -41 -70 -15 -30 -47 -83 -71 -118 -24 -35 -48 -73 -54 -85 -5 -12 -18
-35 -29 -52 -11 -16 -26 -46 -35 -65 -9 -19 -22 -41 -29 -50 -8 -8 -19 -32
-27 -52 -7 -21 -17 -38 -22 -38 -6 0 -7 27 -3 68 4 37 12 108 17 157 6 50 10
167 9 261 -2 124 1 174 10 179 9 5 11 69 10 239 0 127 1 296 5 376 3 80 7 231
9 335 2 105 5 225 5 268 1 42 3 77 5 77z"/>
<g>
<path d="M12360 8210 c-19 -1 -46 -9 -60 -20 -14 -11 -33 -27 -42 -37 -10 -9
-18 -31 -18 -48 0 -18 9 -44 20 -58 12 -15 38 -31 58 -37 20 -5 47 -10 60 -10
13 0 29 6 36 13 6 6 22 26 34 44 12 17 22 43 22 58 0 14 -7 39 -15 54 -8 16
-25 31 -37 35 -13 3 -39 6 -58 6z"/>
</g>
<g>
<path d="M11776 8070 c-21 0 -40 -8 -53 -22 -16 -19 -20 -38 -22 -103 0 -44
-4 -105 -7 -135 -3 -30 -9 -86 -15 -125 -5 -38 -14 -149 -20 -245 -5 -96 -12
-192 -13 -213 -2 -21 -6 -41 -10 -44 -3 -3 -1 -12 5 -20 8 -9 8 -17 0 -26 -8
-10 -7 -17 1 -25 7 -7 19 -12 28 -12 9 0 20 -4 26 -8 5 -5 51 -14 103 -21 88
-12 96 -12 108 5 7 10 13 28 13 41 0 14 -6 23 -15 23 -8 0 -15 4 -15 10 0 5 7
13 16 18 11 6 14 16 9 31 -5 15 -14 21 -37 21 -18 0 -36 8 -44 18 -12 15 -13
15 -14 1 0 -9 -6 -19 -14 -22 -11 -5 -13 30 -11 211 1 119 8 250 14 291 6 40
14 127 17 192 3 76 1 125 -6 139 -7 14 -21 20 -44 20z"/>
</g>
<g>
<path d="M12281 6778 c-20 0 -99 -5 -176 -9 -77 -4 -176 -10 -220 -14 -44 -4
-120 -7 -170 -8 -49 -1 -140 0 -200 2 -70 2 -126 -1 -153 -9 -23 -7 -47 -19
-53 -26 -7 -8 -8 -29 -4 -54 4 -22 10 -40 13 -41 4 0 16 -3 27 -6 11 -3 47 -7
80 -8 33 -2 83 -6 112 -10 33 -4 60 -2 74 5 16 9 27 9 43 1 14 -7 65 -9 151
-6 72 3 210 7 309 9 98 2 181 8 185 13 3 4 13 8 21 8 8 0 16 8 18 18 2 10 -3
24 -11 30 -8 7 -17 22 -20 35 -3 12 -2 22 2 22 4 0 12 -5 18 -11 7 -7 13 -8
17 0 4 6 -1 22 -10 36 -13 20 -24 25 -53 23z"/>
</g>
<g>
<path d="M11249 8540 c-10 0 -19 -4 -19 -10 0 -5 -11 -10 -25 -10 -18 0 -34
-12 -55 -42 -16 -22 -30 -50 -30 -62 0 -12 15 -37 33 -57 17 -20 42 -41 54
-48 12 -6 37 -11 57 -11 25 0 40 7 55 26 11 14 23 45 26 69 4 26 2 52 -5 66
-7 13 -26 36 -42 52 -16 15 -38 27 -49 27z"/>
</g>
</g>
<g>
<path d="M3803 9959 c-4 -1 -22 -8 -40 -17 -17 -8 -34 -24 -37 -36 -3 -12 -6
-43 -6 -70 0 -39 -6 -57 -34 -95 -28 -38 -35 -58 -40 -115 -3 -38 -11 -75 -17
-82 -6 -8 -17 -14 -24 -14 -7 0 -16 -19 -19 -44 -4 -24 -14 -50 -21 -56 -8 -7
-15 -23 -15 -35 0 -13 -11 -30 -25 -39 -14 -9 -25 -22 -25 -28 0 -6 -8 -21
-19 -32 -10 -12 -30 -43 -45 -71 -14 -27 -26 -57 -26 -65 0 -9 -4 -20 -9 -25
-6 -6 -12 -23 -15 -39 -3 -16 -14 -38 -24 -50 -11 -12 -30 -49 -42 -84 -12
-35 -19 -70 -16 -78 3 -9 -1 -25 -9 -37 -8 -12 -15 -34 -15 -49 0 -15 -4 -30
-10 -33 -5 -3 -10 -28 -10 -55 0 -31 -8 -63 -20 -85 -11 -20 -20 -43 -20 -51
0 -8 -6 -36 -14 -62 -8 -26 -19 -72 -25 -102 -6 -30 -13 -62 -15 -71 -2 -9
-13 -38 -24 -65 -11 -27 -25 -71 -32 -99 -6 -27 -16 -66 -22 -86 -6 -22 -8
-75 -4 -132 5 -88 4 -96 -13 -102 -16 -5 -19 -18 -21 -93 -2 -48 -2 -103 -1
-122 2 -19 3 -57 4 -85 0 -27 -3 -95 -7 -150 -4 -57 -3 -121 3 -150 6 -34 6
-54 -1 -62 -6 -7 -7 -21 -2 -30 4 -10 8 -35 9 -55 1 -21 9 -46 17 -55 8 -10
18 -27 21 -38 3 -11 12 -36 19 -56 7 -20 35 -61 62 -93 27 -31 54 -56 61 -56
6 0 17 -11 23 -25 6 -14 20 -25 30 -25 11 0 30 -10 44 -22 14 -13 40 -34 58
-48 19 -14 43 -35 55 -47 12 -13 25 -23 28 -23 3 0 33 -18 67 -41 34 -22 64
-38 67 -36 2 3 35 -8 71 -25 37 -16 90 -39 117 -50 28 -11 59 -24 70 -28 11
-4 32 -12 47 -18 24 -10 26 -14 18 -43 -5 -17 -7 -57 -4 -88 3 -31 9 -72 13
-91 4 -19 6 -105 5 -190 -1 -85 -5 -247 -7 -360 -4 -136 -2 -217 6 -240 7 -22
10 -115 9 -247 -1 -117 -6 -250 -12 -295 -5 -46 -10 -135 -11 -198 -1 -71 -7
-128 -15 -149 -8 -18 -14 -61 -14 -95 0 -33 -8 -81 -16 -106 -12 -31 -17 -88
-19 -185 -1 -77 -10 -180 -19 -229 -9 -49 -16 -122 -16 -164 0 -65 -2 -73 -15
-62 -8 7 -15 10 -15 6 0 -4 -15 1 -32 10 -18 9 -54 40 -80 68 -26 28 -47 55
-48 59 0 4 -7 24 -16 45 -9 20 -18 44 -20 52 -1 8 -9 32 -16 52 -7 21 -16 38
-20 38 -5 0 -8 19 -8 43 -1 23 -7 71 -15 107 -8 36 -14 102 -15 147 0 45 7
115 15 155 9 40 15 111 14 158 -1 47 -10 121 -21 165 -10 44 -23 98 -29 120
-6 22 -26 72 -46 110 -19 39 -47 83 -62 98 -14 16 -46 37 -71 48 -24 11 -51
26 -60 33 -8 7 -30 18 -48 24 -19 7 -84 16 -145 22 -62 6 -149 15 -195 22 -46
6 -85 15 -88 20 -3 4 -14 8 -24 8 -11 0 -48 12 -82 26 -43 18 -69 36 -83 57
-11 18 -30 33 -42 35 -17 2 -24 -3 -28 -21 -4 -15 2 -39 16 -66 12 -24 29 -46
38 -49 9 -3 30 -20 46 -38 17 -17 40 -34 51 -38 12 -4 32 -15 44 -26 12 -11
26 -17 31 -14 5 3 29 -2 55 -11 26 -9 73 -15 107 -13 34 1 80 -1 102 -4 22 -4
63 -14 90 -23 28 -9 64 -22 80 -30 17 -7 42 -18 56 -25 15 -7 42 -33 61 -58
19 -26 41 -69 48 -97 6 -27 14 -61 17 -75 2 -14 10 -32 17 -40 8 -8 17 -33 21
-55 4 -22 7 -60 7 -85 0 -25 -3 -70 -8 -100 -4 -30 -8 -88 -8 -127 1 -40 -3
-73 -8 -73 -4 0 -8 -13 -8 -29 0 -16 9 -76 21 -133 11 -57 25 -128 29 -158 5
-30 12 -71 16 -90 4 -19 13 -44 19 -55 7 -11 18 -36 24 -56 6 -20 20 -52 30
-72 10 -20 41 -54 67 -75 27 -22 58 -49 68 -61 11 -11 25 -21 31 -21 7 0 27
-13 45 -30 18 -16 37 -30 42 -30 6 0 8 -48 5 -135 -5 -100 -10 -140 -22 -159
-12 -18 -18 -54 -20 -125 -2 -55 -6 -119 -9 -143 -3 -24 -7 -61 -10 -83 -2
-22 -11 -61 -19 -86 -9 -29 -14 -84 -13 -155 1 -60 5 -114 9 -121 6 -9 58 -12
198 -11 126 1 193 -2 201 -10 8 -8 8 -23 -1 -54 -7 -24 -19 -69 -27 -101 -7
-32 -21 -71 -29 -87 -8 -16 -15 -41 -15 -55 0 -14 10 -35 23 -46 12 -11 53
-41 90 -65 38 -24 72 -44 75 -44 4 0 32 -28 62 -61 30 -33 68 -66 85 -74 16
-7 48 -29 69 -49 28 -25 49 -36 71 -36 17 0 40 6 50 14 18 13 18 17 5 41 -11
21 -12 28 -1 34 8 5 11 17 7 28 -4 11 -18 25 -32 32 -15 6 -46 28 -71 49 -24
20 -69 58 -100 85 -31 26 -60 47 -64 47 -4 0 -10 9 -14 19 -3 10 -21 29 -40
42 -31 22 -35 29 -34 69 0 25 8 81 18 124 13 62 22 82 39 89 14 7 91 6 223 -1
174 -9 203 -13 215 -29 10 -12 14 -39 12 -85 -2 -62 -1 -69 27 -97 17 -17 33
-31 37 -31 3 0 36 -29 73 -65 37 -35 75 -67 86 -70 10 -4 19 -13 19 -21 0 -8
5 -14 10 -14 6 0 10 -6 10 -14 0 -8 11 -23 25 -34 14 -11 25 -24 25 -29 0 -5
27 -35 61 -66 48 -44 70 -57 104 -63 24 -3 53 -3 65 1 19 6 21 12 17 40 -3 18
-1 37 4 42 5 5 7 17 3 26 -3 9 -43 41 -89 72 -46 30 -91 68 -101 84 -11 16
-63 75 -118 132 -54 57 -102 114 -107 127 -5 13 -9 33 -9 45 0 12 4 28 9 35 4
7 26 18 47 23 21 5 86 9 144 8 58 0 152 -1 210 -1 58 0 144 2 193 5 l87 6 0
-95 c0 -75 -4 -103 -20 -134 -11 -22 -20 -48 -20 -59 0 -11 11 -28 25 -37 20
-13 23 -19 14 -36 -9 -16 -6 -24 15 -43 17 -16 56 -31 112 -45 47 -11 94 -20
105 -20 10 0 40 -22 67 -49 37 -39 58 -52 96 -61 27 -6 55 -9 62 -6 8 3 16 1
19 -4 4 -6 15 -10 25 -10 10 0 30 10 44 22 25 22 25 25 13 67 -7 24 -24 52
-38 62 -13 10 -30 19 -38 19 -7 0 -31 10 -52 22 -22 12 -39 25 -39 30 0 4 -6
8 -13 8 -7 0 -28 10 -47 23 -19 13 -66 36 -103 52 -38 16 -72 36 -77 44 -4 9
-9 45 -11 81 -2 36 -2 88 -1 117 l2 51 51 4 c28 1 54 -1 59 -7 5 -5 40 -10 79
-9 51 0 76 5 89 17 10 9 23 17 28 17 6 0 23 13 38 29 22 22 26 33 18 47 -5 12
-6 55 -1 109 5 50 15 113 23 140 9 28 18 66 20 85 3 19 10 71 16 115 6 44 15
94 21 111 5 17 9 44 9 60 0 16 5 45 11 64 6 19 14 60 19 90 5 30 16 76 25 102
10 27 20 48 24 48 3 0 7 -12 8 -27 2 -16 10 -197 18 -403 12 -277 21 -405 36
-490 11 -63 24 -192 28 -287 6 -134 12 -177 25 -197 9 -14 24 -26 34 -26 9 0
41 -9 70 -20 29 -11 61 -20 72 -20 11 0 20 -4 20 -9 0 -5 29 -13 65 -16 46 -5
69 -4 80 5 8 7 15 23 15 36 0 14 -4 32 -9 42 -5 9 -14 30 -20 46 -10 23 -16
27 -36 22 -15 -4 -37 0 -54 8 -16 9 -31 13 -34 9 -4 -3 -22 6 -41 20 -31 24
-34 31 -39 94 -3 37 -10 102 -16 143 -5 41 -17 109 -26 150 -9 41 -21 107 -26
145 -5 39 -12 194 -15 345 -3 151 -6 293 -8 315 -2 22 -6 57 -11 78 -4 20 -11
40 -16 43 -5 3 -9 18 -9 34 0 16 -4 32 -10 35 -5 3 -10 10 -10 16 0 5 7 9 16
9 13 0 15 7 11 38 -3 20 -13 102 -22 181 -15 123 -20 148 -40 169 -17 18 -29
23 -47 18 -12 -3 -37 -19 -53 -34 -22 -20 -36 -47 -49 -97 -10 -39 -22 -99
-27 -135 -4 -36 -17 -117 -28 -180 -11 -63 -29 -164 -39 -225 -11 -60 -23
-136 -27 -167 -3 -32 -11 -58 -16 -58 -5 0 -10 19 -10 43 -1 23 0 78 2 122 2
44 3 103 3 130 0 28 -3 183 -7 345 -4 162 -12 358 -17 435 -6 77 -15 280 -20
450 -6 171 -15 362 -21 425 -6 63 -14 138 -19 165 -5 28 -12 86 -14 130 -3 44
-8 118 -11 165 -3 47 -8 112 -10 145 -2 33 -8 116 -14 185 -5 69 -15 177 -21
240 -6 63 -11 141 -11 174 0 38 4 64 14 73 8 8 51 27 96 43 46 16 93 37 105
47 11 11 63 50 115 88 61 46 113 95 152 145 33 41 66 84 74 94 8 11 30 44 47
74 18 29 42 68 54 85 19 30 23 32 71 29 47 -3 52 -2 50 17 -1 17 -8 21 -33 21
-17 0 -37 7 -44 15 -10 12 -6 24 20 66 17 29 36 64 42 78 5 14 17 51 25 81 8
30 19 87 23 125 5 39 11 80 14 93 3 13 7 31 10 40 3 9 12 79 21 156 13 116 14
161 5 274 -6 74 -16 158 -21 186 -5 28 -15 85 -23 128 -8 42 -23 107 -34 145
-11 37 -27 100 -37 138 -9 39 -32 129 -51 200 -19 72 -46 173 -61 225 -14 52
-29 109 -33 125 -5 17 -18 62 -30 100 -12 39 -25 88 -30 110 -5 22 -18 67 -29
100 -11 33 -21 70 -21 81 0 12 -11 48 -26 80 -14 33 -41 91 -60 129 -19 39
-34 76 -34 82 0 7 -9 18 -20 25 -11 7 -25 30 -31 50 -9 35 -11 37 -42 31 -18
-3 -44 -12 -59 -20 -17 -8 -30 -25 -34 -41 -3 -15 -11 -45 -19 -67 -7 -22 -16
-55 -19 -73 -3 -18 -13 -40 -21 -48 -8 -9 -15 -25 -15 -37 0 -12 -12 -53 -26
-92 -14 -38 -32 -82 -40 -97 -8 -14 -14 -35 -14 -45 0 -10 -6 -27 -14 -38 -7
-11 -16 -36 -20 -55 -4 -19 -10 -62 -13 -95 -3 -33 -11 -67 -19 -76 -8 -9 -14
-27 -13 -40 0 -13 -6 -55 -15 -94 -8 -38 -18 -79 -22 -90 -4 -11 -21 -42 -36
-69 -16 -26 -37 -71 -47 -100 -11 -33 -24 -52 -36 -55 -10 -2 -34 1 -54 7 -20
5 -66 17 -103 26 -36 9 -99 16 -140 15 -40 0 -104 -4 -143 -8 -40 -5 -75 -4
-81 1 -7 5 -70 8 -140 8 -71 0 -176 1 -234 3 -58 2 -144 7 -191 12 -61 5 -88
4 -93 -4 -5 -8 -13 -8 -28 0 -11 6 -39 13 -62 15 -23 2 -46 11 -53 21 -7 9
-13 23 -13 31 0 8 -9 33 -19 56 -11 23 -33 97 -50 166 -16 69 -37 148 -45 175
-8 28 -25 77 -36 110 -11 33 -22 67 -24 75 -1 8 -9 27 -16 43 -7 15 -17 27
-22 27 -4 0 -8 6 -8 14 0 8 -16 42 -35 76 -19 34 -35 65 -35 68 0 4 -10 31
-21 62 -12 30 -25 63 -30 72 -5 10 -9 23 -9 28 0 6 -11 28 -25 48 -14 20 -25
44 -25 53 0 9 -7 22 -15 29 -8 7 -15 21 -15 31 0 10 -9 23 -19 29 -11 5 -23 9
-28 9z m1 -288 c7 -6 16 -28 19 -49 3 -20 34 -98 70 -172 36 -74 77 -171 91
-215 15 -44 36 -109 47 -143 12 -35 22 -71 23 -80 1 -10 10 -42 20 -72 11 -30
28 -61 38 -68 11 -8 17 -21 13 -31 -3 -10 -1 -42 5 -71 6 -30 16 -57 22 -61 7
-4 11 -23 10 -42 -1 -19 3 -39 10 -44 7 -6 29 -15 48 -22 19 -6 80 -13 135
-16 55 -4 303 -8 550 -10 248 -2 484 -5 526 -7 41 -3 80 -7 85 -10 5 -3 41 -9
79 -13 39 -5 86 -8 105 -9 28 -1 36 3 42 24 4 14 14 45 22 70 8 25 20 61 28
80 7 19 26 54 41 77 16 22 35 62 42 87 8 25 19 82 25 126 6 44 18 99 25 121 8
23 15 65 15 94 0 33 5 57 14 64 8 7 17 28 21 49 4 20 10 42 15 47 4 6 13 28
20 50 7 22 23 63 36 90 12 28 24 61 26 75 2 19 9 25 28 25 21 0 26 -6 33 -40
5 -22 22 -67 38 -101 16 -34 29 -66 29 -73 0 -6 10 -40 21 -74 12 -34 30 -96
40 -137 10 -41 25 -95 34 -120 9 -25 20 -74 24 -110 4 -36 20 -114 35 -175 15
-60 35 -135 43 -165 9 -30 19 -62 24 -71 4 -9 11 -34 14 -55 4 -22 13 -53 20
-69 8 -17 19 -71 25 -120 6 -50 15 -106 20 -125 5 -19 15 -64 21 -100 8 -37
13 -146 13 -255 1 -177 -1 -192 -19 -212 -11 -11 -38 -26 -60 -32 -22 -6 -56
-11 -75 -11 -20 0 -40 -4 -46 -10 -5 -5 -28 -11 -50 -13 -23 -2 -52 -11 -65
-21 -13 -9 -37 -16 -54 -16 -16 -1 -48 -8 -70 -16 -22 -9 -64 -20 -94 -25 -30
-5 -66 -11 -80 -13 -14 -2 -38 -7 -53 -11 -16 -4 -28 -10 -28 -14 0 -3 -21 -7
-48 -7 -26 -1 -68 -9 -93 -18 -26 -9 -67 -18 -91 -20 -24 -2 -62 -8 -84 -11
-21 -4 -47 -15 -57 -24 -11 -9 -23 -23 -28 -33 -5 -9 -6 -24 -3 -32 3 -9 20
-22 37 -31 16 -8 41 -15 55 -15 13 0 38 6 55 14 18 7 46 19 62 26 17 6 30 11
30 9 0 -1 23 10 52 25 29 14 63 26 77 26 16 0 25 7 29 21 5 17 11 20 30 15 13
-3 47 3 78 14 29 11 63 20 74 20 11 0 26 9 33 20 9 14 23 20 50 20 21 0 47 7
58 15 10 8 32 15 47 15 16 0 38 5 50 11 12 7 25 17 29 23 5 8 11 7 19 -1 7 -7
17 -8 28 -3 9 5 48 16 86 23 39 8 79 18 89 22 18 8 19 5 12 -46 -5 -30 -9 -63
-11 -74 -1 -11 -6 -48 -10 -82 -4 -35 -12 -63 -16 -63 -5 0 -9 -15 -9 -34 0
-18 -7 -39 -15 -46 -8 -7 -15 -18 -15 -25 0 -7 -15 -36 -32 -64 l-33 -52 -90
6 c-49 3 -119 7 -155 10 -36 3 -101 10 -145 16 -44 7 -106 13 -138 15 -32 2
-65 8 -72 14 -7 6 -32 10 -56 9 -24 -1 -60 1 -79 6 -27 5 -41 3 -59 -12 -20
-16 -22 -23 -14 -53 8 -31 15 -36 54 -46 28 -7 82 -9 142 -5 54 3 105 2 114
-2 9 -6 25 -5 40 2 19 9 29 9 39 0 9 -7 79 -13 200 -15 102 -1 188 -5 190 -7
3 -2 -12 -28 -31 -58 -20 -29 -52 -70 -71 -91 -19 -21 -34 -42 -34 -47 0 -5
-24 -33 -52 -63 -29 -29 -77 -69 -105 -87 -29 -19 -53 -38 -53 -43 0 -5 -12
-14 -27 -20 -16 -7 -36 -18 -45 -26 -10 -9 -18 -12 -18 -9 0 3 -31 -9 -69 -28
-38 -19 -84 -36 -103 -39 -18 -3 -60 -11 -93 -19 -33 -8 -76 -17 -95 -20 -19
-3 -55 -8 -80 -12 -25 -4 -49 -11 -55 -15 -5 -4 -62 -11 -125 -15 -63 -4 -128
-7 -145 -7 -16 1 -55 3 -85 5 -30 2 -79 9 -107 15 -29 6 -133 14 -230 18 -163
6 -182 8 -220 30 -23 13 -46 24 -51 24 -5 0 -12 -13 -15 -30 -6 -29 -8 -30
-54 -24 -26 3 -68 10 -93 16 -25 5 -54 12 -66 14 -11 2 -34 5 -50 7 -17 2 -36
7 -43 11 -7 4 -53 17 -104 27 -50 11 -96 24 -101 29 -6 6 -21 10 -36 10 -14 0
-34 7 -44 15 -11 8 -30 15 -43 15 -13 0 -23 4 -23 9 0 5 -12 12 -27 16 -16 3
-36 14 -45 22 -10 9 -18 22 -18 30 0 7 -4 13 -9 13 -5 0 -11 -5 -13 -10 -2 -7
-15 -7 -38 1 -19 6 -51 26 -70 44 -19 18 -49 41 -66 52 -17 10 -50 34 -73 53
-23 19 -64 57 -92 83 -27 26 -49 51 -49 54 0 3 -16 23 -35 44 -19 22 -35 44
-35 49 0 6 -10 24 -21 40 -21 27 -21 38 -21 342 0 208 4 341 13 398 7 47 12
103 11 125 -1 22 3 49 8 60 4 11 18 49 29 84 12 36 21 72 21 82 0 9 7 30 15
45 8 16 15 38 15 49 0 12 4 25 9 30 5 6 14 33 21 60 6 28 14 64 16 80 3 17 11
59 19 95 8 36 18 87 23 114 6 27 6 61 2 76 -4 16 -3 35 3 46 6 10 12 24 13 31
1 7 12 26 23 42 12 17 35 62 51 100 15 38 33 94 39 124 7 29 27 77 46 106 20
30 35 65 35 82 0 21 12 42 40 72 22 23 46 56 52 74 7 18 16 33 20 33 4 0 8 6
8 14 0 7 9 25 20 39 11 14 20 33 20 44 0 10 7 27 15 37 8 11 15 28 15 37 0 10
5 30 10 44 8 21 13 25 24 16z m434 -3316 c26 -4 72 -12 102 -17 30 -6 109 -12
175 -13 66 -2 147 -8 180 -13 33 -5 76 -15 95 -21 19 -7 85 -14 145 -16 61 -3
151 -5 201 -6 51 -1 96 1 102 4 5 4 47 9 93 13 46 3 109 13 139 21 30 8 74 16
97 19 38 5 43 4 48 -18 3 -12 3 -45 0 -73 -3 -27 -7 -108 -10 -180 -3 -71 -7
-182 -10 -245 -2 -63 -7 -216 -10 -340 -3 -124 -9 -432 -12 -685 -3 -253 -9
-509 -13 -570 -5 -60 -11 -159 -14 -220 -3 -60 -9 -303 -13 -540 -5 -236 -6
-484 -4 -550 2 -66 4 -147 5 -179 1 -58 0 -60 -29 -68 -16 -5 -138 -9 -270 -9
-132 -1 -269 -4 -305 -7 -36 -4 -76 -6 -88 -4 -21 3 -23 8 -18 35 2 18 1 61
-4 97 -5 36 -15 115 -23 175 -8 61 -23 153 -32 205 -9 52 -19 98 -21 102 -3 4
-10 61 -16 125 -6 65 -11 132 -10 148 0 17 -4 89 -9 160 -5 72 -14 162 -20
200 -6 39 -19 108 -29 155 -10 47 -21 113 -24 148 -3 35 -11 72 -17 84 -6 11
-13 35 -15 52 -2 17 -8 73 -14 124 -5 52 -13 98 -16 103 -3 5 -14 78 -24 162
-11 83 -29 193 -40 242 -12 50 -25 99 -30 110 -4 11 -17 54 -29 95 -11 42 -18
85 -15 97 3 12 -1 36 -10 55 -8 18 -22 74 -31 123 -9 50 -21 117 -26 150 -5
33 -14 68 -19 77 -6 10 -10 26 -10 37 0 10 -7 35 -16 56 -9 21 -13 49 -9 63 3
13 -6 76 -21 141 -14 64 -37 143 -49 176 -13 33 -33 90 -46 127 -12 37 -19 75
-15 84 5 14 14 15 54 9z m-174 -117 c5 -13 15 -36 23 -52 7 -16 13 -35 13 -43
0 -7 4 -21 10 -31 5 -9 19 -45 30 -79 11 -34 20 -74 20 -88 0 -15 4 -34 9 -43
5 -9 17 -60 26 -112 10 -52 21 -120 25 -152 4 -31 10 -60 13 -66 4 -5 11 -42
17 -83 6 -41 18 -88 26 -106 8 -18 18 -34 23 -37 5 -3 6 -23 4 -45 -3 -21 2
-67 11 -102 8 -35 20 -88 25 -117 6 -30 16 -63 23 -75 6 -12 13 -51 15 -87 3
-36 8 -69 13 -75 4 -5 13 -46 20 -90 6 -44 16 -98 21 -120 6 -22 11 -51 11
-65 -1 -14 6 -47 13 -75 8 -27 14 -61 14 -75 1 -14 3 -47 6 -75 3 -27 10 -84
17 -125 6 -41 16 -78 21 -81 5 -4 11 -33 13 -65 1 -33 10 -99 18 -147 12 -68
13 -92 4 -106 -9 -15 -8 -22 4 -35 9 -8 19 -33 22 -53 3 -21 8 -65 11 -98 4
-33 11 -65 15 -70 5 -6 9 -20 9 -30 1 -11 1 -27 2 -35 0 -8 -2 -37 -5 -65 -3
-27 -1 -93 5 -145 6 -52 17 -149 25 -215 9 -66 19 -133 24 -150 5 -16 12 -63
15 -102 3 -40 10 -96 15 -125 6 -31 7 -55 1 -61 -5 -5 -44 -8 -88 -7 -43 1
-104 1 -135 1 -31 -1 -59 3 -62 8 -4 5 -19 6 -34 3 -15 -4 -43 -7 -62 -7 -31
0 -35 3 -41 34 -5 24 -1 47 12 78 10 25 19 52 19 60 0 8 7 47 16 87 8 39 20
89 26 111 6 22 15 60 19 85 4 25 14 95 23 155 9 61 22 135 28 165 6 30 15 60
18 65 4 6 17 61 29 123 12 62 23 127 23 144 1 19 -6 36 -17 44 -11 8 -30 14
-43 14 -13 0 -36 -7 -52 -16 -16 -10 -32 -32 -39 -53 -6 -20 -25 -58 -43 -86
-17 -27 -53 -93 -80 -145 -26 -52 -48 -99 -48 -105 0 -6 -17 -38 -38 -71 -22
-32 -59 -102 -84 -154 -25 -52 -57 -124 -73 -160 -15 -36 -31 -72 -36 -80 -5
-8 -12 -22 -15 -30 -3 -8 -13 -30 -21 -48 -13 -26 -19 -30 -29 -20 -9 9 -10
27 -3 63 4 28 13 106 19 175 6 69 12 139 14 155 2 17 6 41 9 55 3 14 10 52 16
85 6 33 16 149 21 259 7 131 15 205 24 220 8 12 16 69 20 140 3 66 11 163 17
215 6 53 14 103 17 111 3 8 6 22 8 30 1 8 5 57 9 107 3 51 7 150 7 220 0 71 4
133 9 139 5 6 13 56 18 110 5 55 9 170 10 256 2 87 -1 163 -5 170 -4 6 -7 32
-5 57 1 26 -3 66 -9 91 -6 25 -12 87 -13 137 -1 51 1 93 6 93 4 0 7 15 7 34 0
25 7 39 25 53 18 13 26 29 28 58 2 37 0 40 -26 43 -16 2 -30 9 -32 15 -2 7 -6
83 -8 169 -2 87 -1 160 2 163 3 4 10 -4 15 -17z m1657 -580 c4 -7 10 -33 14
-58 3 -25 12 -59 18 -77 8 -24 8 -35 -2 -47 -7 -8 -10 -28 -7 -48 3 -18 8 -76
12 -128 4 -52 8 -115 10 -140 2 -25 5 -77 8 -116 2 -39 7 -104 10 -145 3 -41
8 -177 11 -304 3 -126 10 -255 15 -285 5 -30 12 -147 15 -260 4 -113 9 -245
11 -295 2 -49 7 -259 10 -465 2 -206 5 -431 4 -499 0 -68 -3 -128 -6 -132 -3
-5 -16 -2 -29 7 -18 12 -28 13 -44 5 -11 -6 -33 -11 -50 -11 -21 0 -34 7 -42
22 -6 11 -13 42 -15 67 -2 25 -6 87 -9 136 -2 50 -4 122 -5 160 0 39 2 135 4
215 2 80 9 307 14 505 6 198 16 459 23 581 8 155 9 230 2 251 -6 17 -7 36 -2
45 4 8 6 186 4 394 -3 208 -5 384 -5 389 0 6 5 46 11 89 8 58 8 86 0 104 -9
18 -9 28 0 39 10 12 14 12 20 1z m-1468 -2365 c4 -2 7 -24 7 -49 0 -25 -5 -55
-12 -67 -6 -12 -24 -92 -40 -177 -17 -97 -33 -159 -43 -166 -10 -8 -11 -14 -4
-21 8 -8 8 -31 -1 -81 -6 -39 -17 -78 -24 -87 -7 -9 -23 -17 -37 -16 -13 0
-42 2 -64 5 -22 3 -59 8 -82 11 -24 3 -43 10 -43 14 0 5 7 14 15 21 8 7 31 46
50 87 19 41 35 81 35 90 0 8 18 45 39 81 21 37 54 99 73 138 19 38 44 83 56
100 12 16 23 38 25 49 1 11 11 32 22 47 11 14 23 24 28 21z"/>
<g>
<path d="M4162 8095 c-35 0 -65 -7 -88 -19 -18 -11 -40 -34 -49 -52 -8 -18
-15 -43 -15 -57 0 -14 11 -39 25 -56 19 -21 41 -33 80 -42 36 -8 68 -9 97 -3
32 7 48 18 65 43 14 21 23 49 23 73 0 21 -8 50 -17 64 -9 14 -28 31 -42 37
-14 6 -50 12 -79 12z"/>
</g>
<g>
<path d="M5915 8064 c-11 2 -39 1 -62 -3 -29 -4 -54 -17 -76 -38 -21 -19 -39
-49 -45 -74 -10 -38 -8 -45 11 -67 12 -13 32 -35 44 -48 16 -18 33 -24 62 -24
22 0 51 4 65 10 16 6 35 29 51 59 14 28 25 64 25 80 0 17 -8 46 -17 66 -9 19
-21 35 -27 35 -6 0 -20 2 -31 4z"/>
</g>
<g>
<path d="M4893 7765 c-47 4 -54 1 -73 -22 -11 -14 -20 -41 -20 -60 0 -26 6
-36 24 -45 17 -7 40 -41 70 -102 25 -51 69 -118 97 -149 l51 -58 -21 -51 c-11
-28 -21 -57 -21 -64 0 -8 -4 -14 -9 -14 -5 0 -12 -20 -16 -45 -4 -33 -16 -55
-40 -80 -19 -19 -52 -39 -72 -44 -21 -6 -49 -11 -62 -11 -13 0 -42 -5 -65 -12
-22 -6 -47 -16 -53 -21 -7 -5 -13 -20 -13 -32 0 -16 -8 -26 -29 -33 -16 -6
-43 -23 -60 -38 -17 -15 -31 -31 -31 -36 0 -5 10 -20 23 -34 13 -14 40 -27 61
-31 20 -3 47 -1 59 5 12 6 63 27 112 48 50 21 101 45 115 53 14 9 46 32 72 51
31 23 49 45 54 65 3 17 10 35 14 40 5 6 12 25 17 44 5 19 14 36 20 38 7 3 15
-12 19 -34 4 -21 13 -50 20 -65 8 -15 14 -36 14 -47 0 -11 11 -33 25 -49 14
-17 25 -34 25 -39 0 -5 12 -18 28 -30 15 -11 43 -28 62 -38 19 -10 49 -20 67
-22 17 -2 43 1 57 7 15 5 26 17 26 27 0 10 -6 25 -13 33 -7 9 -27 22 -45 29
-18 8 -52 37 -76 65 -23 28 -47 69 -53 91 -6 22 -18 72 -27 110 -8 39 -18 86
-22 105 -4 19 -6 48 -5 65 1 16 6 34 11 39 6 6 10 17 10 26 0 9 9 34 21 55 11
22 27 63 35 90 7 28 14 73 14 101 0 47 -2 52 -27 62 -16 6 -57 13 -93 17 -36
3 -78 10 -95 15 -16 5 -52 12 -80 15 -27 4 -73 8 -102 10z m90 -125 c1 0 37
-7 80 -15 44 -8 83 -18 88 -21 5 -3 9 -12 9 -20 0 -8 -9 -32 -20 -54 -11 -21
-24 -41 -30 -45 -5 -3 -21 2 -35 11 -14 9 -41 42 -60 74 -19 32 -35 60 -35 64
0 3 1 6 3 6z"/>
</g>
<g>
<path d="M3848 7560 c-53 10 -93 13 -102 8 -9 -5 -16 -16 -16 -23 0 -8 9 -15
19 -15 11 0 32 -7 48 -14 15 -8 37 -18 48 -22 11 -4 27 -9 35 -10 8 -1 44 -8
78 -15 35 -6 93 -27 129 -45 36 -19 82 -38 102 -44 20 -5 61 -16 91 -25 30
-10 70 -19 88 -22 17 -3 32 -9 32 -14 0 -5 -15 -9 -32 -9 -18 0 -68 -9 -112
-20 -43 -11 -86 -20 -96 -20 -10 0 -31 -7 -46 -15 -16 -8 -43 -15 -61 -15 -17
0 -62 -6 -100 -14 -37 -8 -104 -17 -147 -20 -44 -3 -84 -10 -88 -14 -5 -5 18
-18 51 -29 50 -17 80 -20 166 -18 58 2 110 7 116 11 6 3 34 7 62 9 29 1 77 10
107 19 30 10 71 22 90 27 19 5 58 9 86 9 33 0 56 5 64 15 7 8 10 26 8 40 -3
14 -1 25 3 25 5 0 26 -9 46 -20 21 -11 50 -20 65 -20 20 0 31 7 41 28 7 15 12
35 9 45 -2 10 -24 27 -50 39 -26 11 -69 24 -97 29 -27 6 -70 14 -95 19 -25 5
-67 15 -95 23 -27 8 -76 22 -108 31 -32 9 -87 30 -122 47 -47 22 -70 29 -87
23 -13 -4 -27 -6 -33 -5 -5 2 -49 11 -97 21z"/>
</g>
<g>
<path d="M4580 7143 c-25 3 -67 0 -94 -6 -27 -7 -51 -18 -54 -24 -2 -7 -12
-13 -22 -13 -10 0 -22 -4 -25 -10 -3 -5 -20 -16 -38 -24 -18 -8 -42 -17 -54
-21 -13 -3 -23 -11 -23 -16 0 -5 -21 -20 -47 -33 -27 -13 -73 -37 -104 -53
-31 -15 -62 -33 -70 -39 -8 -7 -25 -15 -39 -19 -14 -4 -37 -20 -52 -36 -14
-15 -39 -31 -55 -35 -15 -4 -35 -12 -43 -19 -8 -6 -32 -19 -53 -29 -20 -9 -35
-21 -32 -27 4 -5 0 -9 -8 -9 -8 0 -22 -11 -31 -25 -15 -22 -15 -26 -2 -31 8
-3 34 8 58 24 24 16 46 29 50 28 3 0 17 9 31 22 13 12 32 24 43 26 10 2 32 9
48 15 16 7 31 9 34 7 2 -3 17 3 32 14 15 11 58 34 96 51 38 18 69 30 70 28 0
-2 9 3 19 11 9 8 27 20 39 27 11 7 32 17 46 24 14 6 39 18 55 26 17 7 48 25
70 38 22 13 50 24 63 24 13 1 33 6 45 12 12 7 24 15 27 18 3 3 18 13 34 21 16
8 31 21 33 28 3 7 4 14 2 16 -2 2 -24 7 -49 9z"/>
</g>
<g>
<path d="M4120 2730 c-5 0 -10 -7 -10 -15 0 -8 5 -15 10 -15 6 0 10 7 10 15 0
8 -4 15 -10 15z"/>
</g>
</g>
<g>
<path d="M6682 7002 c-6 6 -12 6 -17 -2 -4 -6 -3 -16 3 -22 6 -6 12 -6 17 2 4
6 3 16 -3 22z"/>
</g>
</g>
</svg>
