<?xml version="1.0" standalone="no"?>
<!DOCTYPE svg PUBLIC "-//W3C//DTD SVG 20010904//EN"
 "http://www.w3.org/TR/2001/REC-SVG-20010904/DTD/svg10.dtd">
<svg version="1.0" xmlns="http://www.w3.org/2000/svg"
 width="1413.000000pt" height="1130.000000pt" viewBox="0 0 1413.000000 1130.000000"
 preserveAspectRatio="xMidYMid meet">
<metadata>
Created by potrace 1.16, written by Peter Selinger 2001-2019
</metadata>
<g transform="translate(0.000000,1130.000000) scale(0.100000,-0.100000)"
fill="#000000" stroke="none">
<g>
<path d="M8238 10164 c-32 2 -59 1 -61 0 -1 -2 -36 -5 -77 -8 -41 -2 -91 -7
-110 -11 -19 -4 -48 -11 -65 -17 -16 -6 -44 -17 -62 -24 -17 -8 -43 -14 -57
-14 -14 0 -26 -4 -26 -9 0 -5 -22 -17 -49 -26 -27 -9 -55 -22 -61 -30 -6 -8
-35 -21 -63 -31 -29 -9 -59 -23 -68 -30 -8 -8 -31 -19 -50 -26 -19 -6 -55 -25
-80 -42 -26 -17 -69 -43 -95 -59 -27 -15 -78 -47 -114 -72 -36 -24 -70 -49
-77 -54 -6 -6 -35 -26 -65 -44 -29 -19 -64 -44 -78 -56 -14 -12 -47 -41 -73
-64 -27 -23 -65 -52 -85 -64 -20 -12 -64 -51 -98 -85 -33 -35 -150 -148 -259
-253 -108 -104 -216 -210 -239 -234 -22 -24 -56 -58 -75 -75 -19 -17 -64 -60
-101 -96 -37 -36 -103 -97 -146 -137 -44 -39 -108 -94 -143 -122 -35 -28 -82
-60 -105 -71 -22 -11 -58 -33 -78 -48 -21 -15 -67 -48 -103 -74 -36 -27 -70
-48 -74 -48 -5 0 -42 -17 -82 -37 -41 -20 -96 -51 -123 -70 -26 -18 -53 -33
-60 -33 -6 0 -38 -14 -71 -31 -32 -17 -107 -48 -166 -70 -58 -21 -112 -39
-118 -39 -6 0 -11 6 -11 13 0 8 9 22 21 33 12 10 28 32 36 48 8 15 15 48 15
73 0 37 -5 48 -34 73 -18 17 -57 39 -86 50 -33 13 -77 20 -119 20 l-65 0 6 53
c3 28 8 113 11 187 3 74 7 240 10 369 4 154 9 239 17 248 6 8 20 19 30 24 14
7 24 7 34 -1 9 -8 30 -10 59 -5 35 5 49 12 57 30 8 18 8 28 -2 40 -7 8 -21 15
-32 15 -11 0 -43 12 -70 27 l-50 27 5 51 c3 27 10 89 16 137 7 47 10 126 9
175 -3 88 -3 88 -30 91 -23 3 -30 -2 -38 -25 -6 -15 -15 -36 -20 -45 -6 -10
-10 -28 -10 -41 0 -12 -6 -31 -14 -42 -7 -11 -16 -62 -20 -116 -5 -75 -3 -104
9 -132 8 -20 15 -56 15 -79 0 -24 -3 -52 -6 -64 -3 -11 -31 -38 -62 -60 -31
-21 -88 -70 -126 -109 -37 -38 -85 -94 -104 -125 -20 -30 -42 -67 -49 -82 -7
-16 -18 -28 -25 -28 -7 0 -33 14 -57 30 -24 17 -53 30 -63 30 -11 0 -28 5 -40
11 -11 6 -54 14 -97 18 -43 5 -169 2 -293 -5 -120 -8 -246 -18 -282 -24 -35
-5 -81 -17 -102 -26 -21 -9 -63 -32 -93 -51 -31 -20 -84 -64 -118 -99 -34 -35
-83 -92 -109 -126 -26 -35 -69 -88 -94 -118 -25 -30 -69 -90 -96 -132 -27 -42
-61 -96 -75 -120 -15 -24 -45 -77 -66 -118 -22 -41 -55 -102 -73 -135 -18 -33
-41 -71 -50 -85 -9 -14 -27 -50 -39 -80 -13 -30 -33 -68 -45 -85 -11 -16 -31
-50 -43 -75 -12 -25 -23 -49 -23 -53 0 -5 -14 -41 -31 -80 -16 -40 -34 -81
-39 -92 -4 -11 -17 -45 -27 -75 -11 -30 -30 -86 -42 -125 -13 -38 -26 -79 -31
-90 -4 -11 -21 -65 -38 -120 -17 -55 -35 -125 -41 -155 -6 -30 -13 -67 -15
-83 -3 -15 -8 -32 -11 -37 -3 -5 -11 -54 -16 -107 -6 -54 -14 -132 -19 -173
-5 -41 -13 -116 -18 -167 -6 -55 -6 -132 -1 -190 4 -54 13 -125 18 -158 5 -33
21 -99 34 -146 14 -48 27 -92 31 -97 3 -6 2 -13 -4 -17 -5 -3 -10 -10 -10 -14
0 -5 8 -11 18 -13 9 -3 27 -25 40 -50 12 -25 52 -77 90 -115 37 -38 83 -77
102 -87 19 -10 63 -28 98 -41 34 -14 97 -32 140 -41 42 -9 151 -31 242 -49 91
-18 181 -38 200 -43 19 -6 62 -18 94 -27 33 -8 65 -19 70 -24 6 -4 40 -16 75
-25 39 -11 99 -18 155 -18 60 0 103 5 128 16 20 8 46 28 57 42 12 15 20 32 18
38 -2 6 -17 11 -33 11 -16 0 -45 -6 -64 -14 -21 -8 -70 -14 -123 -14 -48 0
-93 5 -100 11 -6 5 -25 12 -42 15 -16 3 -51 10 -77 16 -25 6 -64 17 -85 26
-21 9 -42 18 -48 19 -5 2 -23 6 -40 10 -16 4 -37 10 -45 13 -8 4 -26 7 -40 8
-14 1 -56 10 -95 19 -38 10 -88 21 -110 26 -22 5 -63 13 -91 19 -27 5 -70 15
-94 21 -25 7 -67 23 -95 37 -27 14 -70 41 -93 61 -24 19 -54 46 -67 60 -13 13
-41 61 -63 106 -22 44 -50 119 -62 166 -12 47 -24 96 -27 110 -3 14 -10 68
-16 120 -7 69 -7 145 1 280 7 102 19 226 28 275 9 50 20 108 24 130 5 22 20
82 34 133 14 52 28 97 31 102 3 4 21 64 40 132 20 67 40 132 45 143 5 11 12
31 16 45 4 14 17 48 30 75 12 28 26 64 30 80 4 17 20 51 36 76 15 25 28 51 28
57 0 7 18 47 40 89 22 43 40 83 40 89 0 5 17 45 38 87 21 42 46 85 54 94 9 10
32 52 52 94 19 42 56 106 81 142 25 36 45 70 45 75 0 5 7 15 16 23 9 7 23 27
32 44 9 18 33 54 52 80 19 27 93 109 164 182 71 73 138 135 150 139 11 3 39
15 62 25 23 11 74 26 115 34 41 7 176 18 300 24 124 6 236 8 250 5 13 -3 44
-10 69 -16 25 -6 70 -25 100 -41 30 -17 56 -31 58 -32 1 -2 -9 -36 -23 -78
-22 -66 -25 -92 -25 -209 0 -100 5 -151 19 -203 11 -38 22 -79 25 -90 5 -15
-6 -29 -46 -60 -28 -22 -80 -69 -115 -105 -35 -36 -76 -83 -91 -105 -15 -22
-37 -48 -49 -58 -13 -10 -23 -23 -23 -29 0 -6 -17 -36 -38 -67 -21 -31 -51
-81 -67 -111 -16 -30 -31 -57 -32 -59 -2 -2 -56 -7 -120 -11 -91 -5 -128 -3
-161 8 -29 9 -50 25 -62 44 -16 27 -17 35 -5 74 7 24 22 60 34 80 12 19 21 41
21 48 0 8 7 19 16 27 8 7 26 33 39 58 13 25 40 64 60 86 20 22 38 50 41 63 4
12 1 29 -6 37 -7 9 -29 15 -52 15 -21 0 -60 -9 -85 -21 -25 -11 -75 -40 -111
-63 -40 -26 -87 -69 -117 -106 -27 -34 -55 -67 -62 -74 -6 -7 -21 -46 -33 -85
-15 -49 -21 -89 -18 -124 2 -29 16 -78 31 -109 17 -35 44 -70 70 -92 24 -19
63 -44 88 -55 24 -11 52 -21 62 -21 10 0 31 -7 48 -15 20 -11 61 -16 120 -17
50 -1 92 -5 94 -8 2 -4 -5 -35 -16 -71 -11 -35 -24 -98 -30 -139 -5 -41 -9
-148 -9 -236 0 -111 5 -183 16 -230 8 -38 26 -88 40 -111 13 -23 24 -47 24
-53 0 -6 15 -30 33 -53 17 -22 55 -62 82 -89 28 -26 84 -68 126 -93 42 -25 79
-45 82 -45 4 0 48 -20 99 -44 51 -23 116 -52 143 -63 28 -11 92 -40 142 -64
84 -38 93 -46 97 -73 3 -17 8 -74 11 -126 3 -52 13 -126 21 -165 8 -38 25
-108 36 -155 12 -47 32 -109 45 -139 13 -29 23 -60 23 -67 0 -8 16 -46 35 -84
27 -54 35 -82 35 -123 0 -29 7 -78 16 -108 9 -30 25 -66 36 -81 11 -16 28 -28
37 -28 10 0 24 -6 30 -14 10 -11 9 -21 -4 -45 -8 -17 -19 -31 -24 -31 -5 0
-23 -28 -40 -61 -20 -38 -34 -84 -38 -121 -5 -52 -3 -61 17 -83 13 -14 43 -28
72 -34 27 -6 85 -11 128 -11 43 0 132 -7 197 -15 65 -9 147 -22 183 -30 36 -9
88 -22 115 -29 28 -8 70 -20 95 -26 25 -6 73 -22 107 -36 34 -13 69 -24 78
-24 9 0 40 -11 68 -24 29 -13 70 -29 92 -36 22 -7 51 -18 65 -25 14 -7 43 -18
65 -25 22 -7 140 -60 263 -118 122 -58 222 -108 222 -113 0 -4 -15 -11 -32
-14 -18 -3 -80 -10 -138 -15 -58 -5 -168 -17 -245 -25 -77 -8 -167 -18 -200
-20 -33 -3 -69 -8 -81 -10 -11 -3 -68 -7 -125 -10 -57 -3 -124 -10 -149 -15
-25 -5 -80 -11 -123 -15 -43 -3 -126 -15 -185 -26 -59 -11 -150 -27 -202 -34
-52 -8 -160 -28 -240 -46 -80 -17 -165 -35 -190 -39 -25 -4 -97 -22 -160 -38
-63 -17 -155 -43 -205 -58 -49 -14 -94 -30 -100 -33 -5 -4 -37 -16 -70 -26
-33 -11 -67 -25 -76 -32 -8 -7 -20 -13 -25 -13 -6 0 -27 -17 -47 -38 -20 -21
-37 -47 -37 -59 0 -12 12 -31 27 -42 16 -12 73 -57 128 -100 55 -43 159 -139
230 -213 72 -74 198 -206 280 -293 83 -88 174 -182 203 -211 l54 -52 -69 -11
c-37 -6 -111 -15 -163 -21 -52 -6 -138 -15 -190 -21 -52 -5 -124 -14 -160 -19
-36 -6 -105 -12 -153 -15 -48 -2 -91 -6 -95 -9 -5 -3 -64 -5 -132 -5 -69 0
-134 0 -145 0 -11 0 -65 0 -120 0 -55 0 -226 1 -380 2 -154 2 -311 0 -350 -3
l-69 -5 -7 -35 c-4 -19 -3 -42 2 -52 6 -10 21 -18 37 -18 15 -1 68 -9 118 -19
50 -10 96 -21 101 -24 6 -4 48 -14 94 -23 46 -8 122 -22 169 -30 47 -7 105
-16 130 -18 25 -3 97 -10 160 -16 63 -7 118 -14 121 -16 3 -2 71 1 150 7 79 5
164 12 189 14 25 3 81 10 125 16 44 6 97 12 118 15 20 2 46 8 56 14 11 5 33
10 50 10 17 0 48 9 68 20 21 11 54 20 73 20 19 0 49 9 65 20 17 11 47 20 67
20 20 0 39 4 42 8 3 5 30 14 61 21 31 7 68 19 83 27 15 8 41 14 57 14 21 0 44
-13 76 -43 26 -23 76 -68 112 -99 36 -32 98 -84 139 -116 41 -33 85 -65 99
-72 13 -7 38 -25 54 -40 17 -15 75 -54 130 -87 55 -33 125 -72 155 -87 30 -15
89 -39 130 -53 62 -21 95 -26 190 -27 63 0 140 3 170 8 30 5 64 15 75 22 11 8
38 14 62 14 37 0 48 6 93 50 29 28 65 54 81 57 16 3 29 9 29 14 0 5 8 9 18 9
11 0 62 39 114 88 53 48 112 98 132 112 19 14 36 29 36 33 0 4 37 44 83 88 45
45 105 102 132 127 28 26 57 61 65 79 8 18 41 60 73 95 32 35 72 78 88 95 16
18 29 35 29 37 0 3 27 44 60 93 33 48 76 112 96 141 21 30 47 58 59 62 13 5
26 21 30 37 5 15 7 37 6 48 -2 11 -10 31 -19 45 -9 14 -23 38 -29 54 -7 15
-13 34 -13 42 0 7 16 16 38 20 20 4 54 15 74 25 21 11 50 19 66 19 16 0 40 9
54 19 14 11 36 22 49 24 13 2 31 6 39 10 8 3 38 13 65 23 28 10 59 24 71 31
11 7 54 25 95 39 41 14 81 32 89 39 8 7 30 16 49 20 19 4 48 16 65 26 17 10
39 19 49 19 9 0 25 4 35 9 9 5 60 26 112 46 52 21 104 46 116 56 11 11 28 19
37 19 9 0 43 14 74 31 32 17 69 39 83 48 14 9 39 23 55 31 17 8 60 34 96 57
36 24 87 62 113 85 27 23 60 60 74 82 15 23 34 70 43 105 14 52 16 75 7 120
-5 31 -16 70 -23 86 -7 17 -34 93 -59 170 -25 77 -52 171 -60 210 -13 64 -13
72 2 89 9 10 26 22 37 26 12 5 30 2 45 -6 14 -8 60 -27 102 -44 43 -16 97 -33
120 -36 24 -4 50 -12 58 -19 8 -7 65 -24 125 -38 61 -15 153 -31 207 -38 53
-6 174 -9 270 -7 111 3 205 11 263 23 50 10 99 21 110 25 11 4 38 13 61 19 23
6 58 22 78 36 20 14 41 25 47 25 6 0 44 16 85 34 41 19 95 49 120 65 25 17 47
31 50 31 3 0 -1 -10 -7 -22 -7 -13 -36 -59 -65 -103 -29 -44 -91 -120 -138
-169 -47 -49 -86 -92 -86 -94 0 -2 -24 -27 -53 -56 -29 -28 -94 -89 -144 -136
-50 -47 -119 -110 -152 -140 -34 -30 -65 -55 -70 -55 -6 0 -47 -34 -91 -75
-45 -41 -91 -80 -102 -86 -10 -6 -40 -28 -66 -50 -25 -21 -60 -54 -76 -71 -16
-18 -35 -33 -41 -33 -7 0 -23 -12 -37 -28 -14 -15 -38 -36 -53 -47 -16 -11
-32 -19 -36 -18 -4 1 -19 -13 -34 -32 -14 -19 -30 -35 -36 -35 -5 0 -23 -12
-39 -27 -17 -15 -38 -28 -47 -29 -9 -2 -21 -10 -26 -20 -5 -9 -17 -22 -26 -30
-9 -8 -50 -42 -91 -77 -41 -34 -87 -70 -102 -80 -15 -9 -38 -26 -50 -37 -13
-11 -44 -38 -69 -60 -25 -22 -49 -40 -53 -40 -4 0 -33 -21 -64 -46 -31 -26
-75 -63 -98 -84 -22 -21 -44 -45 -47 -54 -4 -9 -13 -16 -21 -16 -9 0 -20 -9
-26 -19 -5 -11 -45 -48 -88 -82 -42 -34 -136 -122 -208 -196 -71 -73 -135
-133 -141 -133 -6 0 -34 -32 -64 -71 -30 -39 -61 -81 -69 -93 -8 -12 -25 -38
-37 -57 -16 -23 -23 -49 -23 -82 0 -38 5 -53 25 -73 14 -14 51 -37 83 -52 55
-26 62 -27 232 -26 96 0 195 4 220 7 25 4 97 16 160 27 63 11 156 26 205 35
50 9 113 22 141 30 28 8 98 24 155 34 57 11 178 35 269 54 91 18 194 39 230
45 36 6 97 16 135 23 39 6 83 15 99 20 16 5 45 9 65 9 20 0 72 5 116 11 44 6
96 14 115 19 19 5 71 12 115 15 44 2 117 9 163 15 45 5 97 12 115 14 17 3 57
8 87 11 30 3 132 13 225 21 94 8 222 19 285 23 63 5 154 14 202 21 48 7 85 16
83 21 -3 4 -60 5 -128 2 -67 -3 -120 -3 -117 0 3 3 27 7 54 9 31 2 51 8 54 17
4 12 -15 13 -119 7 -68 -4 -171 -11 -229 -16 -58 -6 -143 -14 -190 -20 -47 -5
-148 -14 -225 -20 -77 -7 -162 -16 -190 -21 -27 -5 -113 -16 -190 -25 -77 -8
-178 -19 -225 -24 -47 -6 -123 -17 -170 -26 -47 -8 -105 -20 -130 -25 -25 -6
-79 -16 -120 -23 -41 -8 -122 -23 -180 -34 -58 -12 -125 -25 -150 -31 -25 -5
-63 -14 -85 -20 -22 -6 -56 -14 -75 -17 -19 -3 -125 -24 -235 -46 -110 -22
-258 -46 -330 -54 -71 -7 -167 -14 -212 -14 -45 0 -110 7 -145 16 -35 9 -74
23 -87 31 -19 12 -22 21 -18 49 3 19 21 55 39 81 18 26 52 72 76 103 23 30 46
60 51 65 4 6 47 47 95 93 47 46 86 88 86 95 0 7 16 21 35 31 19 11 35 23 35
27 0 4 33 35 73 68 39 34 96 82 125 109 30 26 75 67 101 92 26 25 71 64 101
87 30 24 87 70 125 103 39 33 88 70 110 81 22 12 50 34 62 48 12 14 28 32 35
39 7 7 53 46 103 87 49 40 92 72 96 69 4 -2 14 5 23 17 8 12 32 33 53 48 22
14 70 52 109 84 38 32 110 91 159 132 50 41 94 75 99 75 4 0 46 37 92 82 46
45 92 86 101 91 10 6 45 32 78 60 33 28 78 67 100 88 22 21 95 92 162 158 67
66 140 145 163 175 23 30 47 57 54 59 7 3 38 43 69 90 30 46 69 112 86 145 17
34 31 67 31 74 0 7 30 45 67 83 36 39 89 99 118 135 28 36 68 92 87 125 19 33
44 80 56 105 12 25 32 81 46 125 14 44 34 114 46 155 11 41 27 98 35 126 8 28
18 84 21 126 l7 75 -35 26 c-30 23 -45 27 -104 27 -42 0 -108 -10 -162 -24
-51 -13 -98 -28 -105 -33 -7 -5 -31 -15 -55 -22 -24 -7 -76 -29 -117 -50 -40
-21 -86 -42 -102 -46 -15 -3 -33 -11 -40 -16 -6 -6 -61 -35 -122 -65 -61 -29
-144 -73 -184 -97 -39 -24 -85 -51 -102 -59 -16 -8 -57 -31 -90 -51 -33 -19
-80 -48 -105 -63 -25 -15 -61 -37 -80 -49 -19 -12 -84 -52 -143 -89 -60 -37
-125 -77 -145 -88 -21 -11 -46 -28 -57 -38 -11 -10 -33 -25 -50 -34 -16 -9
-39 -22 -50 -29 -11 -6 -34 -22 -52 -34 -17 -13 -35 -23 -39 -23 -4 0 -38 -21
-77 -47 -38 -27 -82 -56 -98 -66 -27 -18 -31 -18 -131 3 -57 12 -129 34 -161
48 -40 18 -59 33 -63 48 -3 13 -4 86 -2 163 2 91 7 144 15 152 9 9 18 8 40 -7
15 -10 37 -24 48 -30 11 -6 29 -15 40 -21 11 -6 36 -19 55 -27 19 -9 51 -25
70 -36 19 -11 47 -20 61 -20 18 0 34 10 51 33 14 17 30 47 36 66 7 19 12 59
12 90 0 38 -8 73 -24 106 -13 28 -30 57 -37 65 -8 8 -26 33 -39 55 -14 22 -46
62 -72 88 -27 27 -48 52 -48 57 0 4 37 47 83 96 45 49 91 100 102 113 11 13
57 61 103 105 45 45 82 88 82 97 0 9 20 33 44 53 24 19 58 59 74 88 17 29 46
69 65 89 19 19 56 66 81 104 25 37 53 91 62 119 9 28 23 62 30 76 7 14 23 57
35 95 11 39 24 81 29 95 4 14 8 57 9 95 1 39 -5 104 -13 145 -8 41 -19 94 -24
118 -5 24 -25 73 -43 109 -24 46 -59 92 -118 149 -54 53 -108 96 -151 118 -37
20 -73 43 -81 52 -7 8 -40 30 -73 47 -34 17 -81 41 -106 52 -25 11 -88 44
-140 73 -52 29 -104 58 -114 65 -11 7 -25 15 -30 20 -6 4 -42 28 -81 53 -38
25 -77 54 -86 65 -9 10 -20 19 -25 19 -5 0 -24 15 -41 33 -18 17 -51 53 -73
78 -22 26 -63 86 -90 133 -28 48 -55 106 -61 129 -6 23 -17 69 -26 102 -8 33
-19 103 -23 155 -5 52 -12 145 -16 205 -4 61 -1 189 5 285 7 103 20 205 32
249 10 41 19 81 19 89 0 7 11 37 25 67 14 29 32 58 40 65 8 7 25 32 39 56 14
24 30 70 37 101 6 32 11 78 11 103 -1 24 -7 58 -14 75 -7 16 -17 35 -23 40 -5
6 -31 24 -56 41 -29 20 -65 33 -100 38 -30 4 -80 9 -111 10z m-27 -55 c37 0
90 -3 118 -9 29 -5 65 -19 79 -30 15 -12 34 -34 43 -51 11 -19 15 -46 13 -81
-3 -35 -17 -77 -44 -131 -22 -44 -40 -86 -40 -94 0 -8 -7 -24 -14 -36 -8 -12
-22 -48 -30 -79 -8 -31 -21 -67 -29 -80 -8 -13 -25 -86 -38 -163 -15 -94 -22
-186 -23 -280 0 -77 5 -192 12 -255 7 -63 16 -144 21 -180 4 -36 13 -75 18
-85 6 -11 13 -36 17 -55 3 -19 23 -71 44 -115 20 -44 42 -84 49 -88 7 -4 13
-12 13 -18 0 -5 5 -15 11 -22 5 -7 27 -37 48 -67 20 -30 77 -90 126 -132 49
-42 107 -87 128 -100 21 -13 62 -38 90 -57 29 -18 102 -60 162 -93 61 -32 137
-72 170 -88 33 -17 80 -42 105 -56 25 -15 69 -43 98 -63 29 -20 61 -40 70 -45
9 -5 50 -46 90 -90 40 -45 82 -99 92 -121 10 -22 26 -71 36 -110 12 -47 18
-103 17 -170 -1 -78 -7 -119 -28 -185 -15 -47 -28 -89 -29 -95 -2 -5 -6 -19
-11 -30 -4 -11 -18 -44 -31 -72 -12 -29 -48 -90 -80 -135 -31 -46 -74 -106
-96 -135 -21 -29 -91 -109 -155 -179 -65 -70 -153 -168 -197 -218 -43 -50 -90
-106 -103 -123 -14 -18 -30 -33 -35 -33 -6 0 -28 19 -49 42 -35 38 -39 49 -39
94 0 28 -5 77 -11 110 -6 32 -20 80 -31 107 -11 26 -24 47 -29 47 -5 0 -9 7
-9 15 0 8 -9 24 -19 34 -11 11 -25 30 -32 43 -7 13 -33 47 -58 76 -25 29 -79
86 -118 125 -40 39 -73 76 -73 83 0 6 -33 44 -73 85 -45 46 -96 86 -135 107
-49 25 -74 32 -120 32 -32 0 -85 -5 -117 -11 -57 -10 -60 -10 -77 13 -10 12
-31 37 -47 53 -16 17 -50 56 -75 87 -25 32 -61 81 -78 110 -18 29 -38 59 -44
66 -7 6 -16 22 -20 35 -4 12 -17 35 -30 50 -13 16 -50 83 -83 150 -32 67 -64
140 -71 162 -6 22 -27 74 -45 115 -18 41 -43 104 -54 140 -12 36 -31 106 -42
155 -12 50 -22 98 -23 108 -1 9 -8 23 -14 29 -7 7 -12 23 -12 37 0 15 -9 64
-21 111 -11 47 -28 130 -38 185 -10 55 -29 141 -41 190 -12 50 -26 99 -30 110
-5 11 -11 29 -13 40 -3 11 -15 45 -26 75 -12 31 -30 73 -41 95 -11 22 -39 63
-63 91 -23 28 -57 62 -76 75 -19 13 -50 29 -69 36 -19 6 -59 10 -89 8 -29 -3
-62 -9 -73 -15 -10 -5 -29 -10 -42 -10 -13 0 -40 -9 -60 -20 -22 -12 -40 -16
-43 -10 -3 6 24 38 60 72 37 35 90 85 118 112 29 27 79 72 112 99 33 28 65 56
70 62 6 7 46 38 90 70 44 32 106 80 138 106 31 27 78 60 105 75 26 15 76 48
111 73 35 25 77 53 93 61 16 8 74 38 131 67 56 28 118 58 139 67 20 9 41 16
46 16 6 0 39 13 75 29 35 16 106 38 158 50 52 11 108 22 124 24 17 2 60 5 96
6z m-1416 -1007 c22 -2 56 -14 76 -25 20 -10 53 -39 72 -62 20 -24 48 -69 63
-101 14 -33 32 -72 39 -89 7 -16 20 -50 28 -75 9 -25 28 -97 42 -160 14 -63
34 -143 45 -177 11 -34 20 -70 20 -80 0 -11 4 -23 9 -28 5 -6 12 -44 15 -85 3
-41 13 -100 22 -130 8 -30 22 -82 30 -115 8 -33 24 -91 35 -130 12 -38 25 -77
29 -85 4 -9 11 -31 15 -50 4 -19 16 -49 26 -66 10 -17 19 -39 19 -49 0 -9 9
-28 20 -42 11 -14 20 -41 20 -59 0 -23 7 -38 26 -53 15 -11 24 -26 22 -33 -3
-7 8 -35 23 -63 15 -27 39 -74 54 -103 14 -29 41 -70 59 -90 18 -20 40 -53 49
-73 9 -19 25 -43 37 -54 11 -10 20 -23 20 -29 0 -6 27 -41 60 -78 33 -36 64
-77 69 -90 8 -23 5 -26 -57 -57 -37 -18 -85 -42 -107 -53 -22 -11 -49 -28 -60
-37 -11 -9 -45 -30 -75 -46 -30 -16 -75 -41 -99 -57 -24 -15 -47 -25 -51 -23
-4 2 -22 6 -41 9 -19 2 -63 12 -99 22 -42 11 -105 17 -180 17 -63 1 -146 -5
-183 -13 -64 -13 -69 -13 -85 6 -10 10 -24 37 -31 59 -8 22 -26 58 -41 80 -16
22 -38 69 -50 105 -12 36 -29 73 -38 83 -9 10 -16 25 -17 35 -1 9 -7 35 -15
57 -7 22 -16 45 -20 50 -3 6 -17 39 -29 75 -13 36 -29 79 -36 95 -6 17 -22 55
-33 85 -12 30 -28 80 -36 110 -8 30 -18 66 -21 80 -4 14 -15 52 -25 85 -10 33
-28 103 -40 155 -12 52 -32 129 -45 170 -13 41 -28 100 -35 130 -6 30 -16 69
-20 85 -5 17 -16 66 -25 110 -8 44 -15 134 -15 202 0 67 6 154 14 195 8 40 29
102 47 138 20 38 61 93 99 132 36 36 96 85 134 108 38 23 81 46 95 52 14 6 51
16 81 23 30 7 73 10 95 7z m-2282 -12 c5 -4 2 -59 -8 -121 -9 -63 -20 -159
-24 -214 -5 -55 -9 -162 -10 -237 -1 -86 -5 -138 -11 -138 -6 0 -23 28 -39 63
-16 34 -36 69 -45 76 -9 7 -16 19 -16 26 0 6 -9 22 -20 35 -11 13 -20 29 -20
35 0 7 -22 41 -50 75 -27 34 -50 69 -50 77 0 7 19 40 43 71 23 31 46 61 50 67
4 5 18 25 32 43 13 19 54 60 92 92 37 32 72 54 76 50z m1694 -307 c2 -6 -6
-39 -18 -74 -17 -50 -23 -95 -27 -208 -3 -93 0 -169 8 -215 7 -39 21 -102 31
-141 10 -38 27 -104 39 -145 11 -41 27 -89 35 -106 8 -17 24 -71 35 -120 12
-49 25 -93 30 -98 6 -6 10 -19 10 -31 1 -11 8 -38 16 -60 8 -22 28 -83 44
-135 15 -52 36 -117 45 -145 9 -27 20 -59 25 -70 4 -11 18 -49 30 -85 12 -36
29 -81 37 -100 8 -19 19 -44 23 -55 5 -11 23 -54 40 -95 17 -41 58 -129 90
-195 33 -66 60 -126 60 -132 0 -7 -12 -15 -27 -19 -16 -3 -41 -10 -58 -16 -16
-6 -79 -35 -139 -65 -60 -30 -138 -73 -175 -97 -36 -24 -77 -49 -91 -56 -14
-7 -48 -30 -77 -51 -29 -22 -60 -39 -70 -39 -10 0 -53 16 -97 35 -43 18 -86
41 -96 50 -10 9 -21 15 -26 13 -5 -1 -31 13 -58 31 -27 19 -98 82 -158 141
-59 59 -108 111 -108 117 0 6 -16 30 -35 53 -19 23 -35 53 -35 66 0 13 3 24 8
24 4 0 27 30 52 68 24 37 65 94 91 128 26 33 49 69 53 81 4 11 15 28 26 38 11
10 20 23 20 28 0 5 23 32 50 59 28 27 50 56 50 64 0 8 16 38 36 67 20 28 52
67 70 86 19 18 34 38 34 44 0 6 17 36 39 67 21 30 42 66 46 80 4 14 19 47 34
75 21 41 25 62 24 122 -1 55 -6 80 -23 108 -12 19 -25 35 -28 35 -4 0 -27 19
-52 41 -24 23 -69 52 -100 66 -30 14 -63 29 -72 34 -10 5 -29 9 -42 9 -14 0
-27 4 -30 9 -3 5 -50 16 -103 26 -54 10 -134 18 -178 19 -44 0 -109 -5 -145
-11 -36 -7 -75 -15 -88 -19 -18 -5 -21 -3 -16 10 3 9 14 16 23 16 9 0 26 7 38
15 11 8 57 33 101 55 45 22 84 44 87 50 4 6 21 17 38 25 18 8 41 20 51 27 11
7 62 41 113 74 51 34 109 77 129 95 21 19 72 66 113 106 42 39 114 109 160
154 47 45 86 78 88 72z m-1988 -197 c25 -36 58 -84 72 -108 14 -24 42 -71 62
-105 20 -33 37 -64 37 -69 0 -4 7 -16 16 -26 14 -14 14 -20 4 -33 -7 -8 -19
-15 -27 -15 -8 0 -38 -10 -66 -22 -29 -12 -72 -35 -96 -50 -25 -15 -50 -28
-56 -28 -6 0 -19 33 -28 73 -9 40 -17 109 -16 153 0 43 5 104 10 134 4 30 11
73 15 95 3 22 11 46 17 53 7 9 21 -3 56 -52z m446 -397 c29 -4 65 -15 79 -26
13 -10 29 -27 34 -39 8 -16 4 -32 -20 -72 -16 -29 -34 -52 -38 -52 -5 0 -29
28 -52 61 -24 34 -51 75 -61 92 -13 21 -15 32 -7 37 6 4 35 3 65 -1z m-217
-20 c11 1 13 -11 8 -54 -3 -30 -9 -80 -12 -111 -4 -35 -11 -57 -21 -61 -8 -3
-33 0 -56 7 -23 7 -55 17 -71 23 -17 6 -42 25 -58 42 -15 16 -28 33 -28 37 0
4 33 26 73 50 39 24 90 48 112 54 22 6 46 12 53 13z m91 -89 c4 0 26 -27 50
-61 23 -33 40 -66 37 -74 -2 -7 -15 -15 -28 -17 -13 -2 -35 -1 -50 1 -27 3
-28 6 -28 61 0 32 3 65 6 74 3 9 9 16 13 16z m993 -25 c64 -2 120 -5 125 -8 4
-3 24 -8 45 -11 20 -3 58 -13 85 -22 26 -9 69 -27 95 -40 25 -13 73 -49 107
-79 36 -34 64 -70 72 -92 6 -19 8 -52 5 -74 -3 -21 -22 -76 -42 -121 -20 -46
-47 -96 -60 -111 -13 -16 -24 -35 -24 -43 0 -8 -4 -14 -10 -14 -5 0 -10 -7
-10 -15 0 -8 -4 -15 -10 -15 -5 0 -18 -17 -29 -37 -10 -21 -31 -49 -45 -62
-14 -14 -26 -30 -26 -36 0 -7 -14 -30 -30 -51 -17 -22 -40 -52 -53 -68 -12
-15 -34 -47 -49 -70 -15 -22 -36 -52 -47 -66 -11 -14 -31 -41 -44 -60 -13 -19
-39 -58 -58 -85 -19 -28 -39 -60 -45 -70 -6 -11 -17 -20 -24 -20 -7 0 -28 27
-47 60 -19 33 -58 94 -89 135 -30 41 -68 104 -85 140 -17 36 -42 88 -56 117
-14 29 -33 60 -42 70 -9 10 -30 48 -48 84 -17 36 -43 79 -56 95 -14 16 -38 56
-54 89 -17 33 -42 84 -57 113 -14 29 -46 81 -71 117 -25 35 -45 68 -45 72 0 5
45 30 101 55 55 26 117 50 137 53 21 4 60 11 87 17 28 6 60 15 72 21 12 5 38
7 57 4 23 -4 39 -1 46 8 6 8 33 16 58 18 26 2 100 3 164 2z m-1375 -35 c8 0
35 -18 60 -40 26 -22 64 -44 87 -50 23 -6 58 -16 79 -22 21 -6 40 -15 43 -20
3 -5 3 -31 -1 -59 l-7 -50 -83 -39 c-45 -22 -90 -40 -99 -40 -9 0 -41 -13 -71
-30 -30 -16 -59 -30 -66 -30 -6 0 -33 -10 -58 -21 -25 -12 -53 -25 -61 -29 -9
-4 -36 -11 -60 -15 -25 -4 -51 -12 -57 -17 -7 -6 -13 -8 -13 -5 0 3 -21 -1
-47 -9 -25 -8 -52 -14 -60 -14 -7 0 -13 8 -13 19 0 10 9 30 20 44 11 14 20 32
20 40 0 9 5 19 10 22 6 4 33 34 61 68 27 34 91 106 142 160 50 53 95 97 100
97 5 0 20 9 34 20 14 11 32 20 40 20z m-781 -60 c7 0 15 -3 18 -8 2 -4 -13
-34 -35 -66 -22 -33 -56 -93 -75 -135 -19 -42 -39 -84 -45 -93 -5 -10 -9 -41
-9 -70 1 -41 6 -59 24 -79 12 -15 49 -36 81 -48 48 -18 77 -22 164 -20 84 1
106 -2 104 -12 -1 -8 -8 -30 -15 -49 -7 -19 -17 -41 -22 -49 -7 -11 -29 -13
-109 -8 -55 4 -105 11 -111 17 -5 5 -21 10 -36 10 -14 0 -47 17 -74 38 -27 20
-58 51 -68 67 -10 17 -27 49 -38 72 -11 22 -21 52 -22 65 -1 12 4 46 11 75 7
29 20 67 30 85 9 18 45 63 80 101 35 37 68 67 73 67 6 0 21 9 35 20 14 11 32
20 39 20z m1229 -61 l30 1 -40 -35 c-22 -19 -50 -34 -63 -35 -20 0 -23 4 -20
27 2 22 10 29 33 34 17 4 44 7 60 8z m105 -62 c8 -1 33 -29 56 -61 23 -33 56
-87 73 -120 18 -34 45 -83 62 -111 16 -27 43 -77 60 -110 17 -33 37 -67 44
-75 7 -8 28 -44 48 -80 19 -36 52 -94 72 -130 21 -36 49 -85 63 -110 14 -25
34 -56 44 -70 11 -14 53 -78 94 -144 42 -65 73 -124 70 -131 -3 -8 -35 -60
-72 -117 -36 -57 -75 -114 -85 -128 -10 -14 -28 -43 -40 -64 -11 -21 -35 -60
-53 -85 -18 -25 -47 -73 -66 -106 -18 -33 -44 -73 -56 -90 -12 -16 -25 -42
-29 -57 -4 -15 -14 -33 -22 -40 -8 -7 -26 -37 -39 -67 -14 -31 -32 -63 -41
-73 -9 -10 -25 -37 -37 -60 -12 -24 -28 -44 -37 -46 -8 -1 -25 6 -38 17 -13
11 -39 25 -58 32 -20 6 -51 22 -71 35 -19 13 -41 24 -48 24 -7 0 -28 9 -46 19
-18 11 -50 23 -71 27 -28 5 -44 15 -57 36 -9 16 -19 50 -20 76 -2 26 -3 117
-4 202 0 85 3 243 7 350 4 107 15 267 23 355 8 88 21 246 29 350 8 105 15 233
15 286 0 61 5 109 14 131 9 21 34 46 67 68 29 19 71 42 93 52 23 9 48 15 56
15z m-327 -138 c5 1 6 -3 2 -9 -3 -5 -39 -36 -80 -70 -41 -33 -81 -60 -88 -60
-7 0 -28 -11 -47 -25 -19 -14 -39 -25 -45 -25 -7 0 -20 -9 -30 -20 -10 -11
-25 -20 -33 -20 -9 0 -23 -6 -31 -14 -9 -7 -65 -32 -124 -55 -59 -22 -140 -48
-180 -56 -40 -9 -80 -18 -89 -19 -10 -2 -20 -1 -22 3 -3 4 7 32 22 62 l27 54
135 43 c74 24 160 51 190 59 30 9 75 27 100 40 25 13 52 23 62 23 9 0 19 4 22
9 4 5 32 17 64 27 31 9 62 21 69 26 6 5 24 13 40 18 15 4 32 9 36 9z m29 -64
c4 -6 3 -83 -2 -170 -5 -88 -16 -196 -23 -240 -8 -46 -11 -93 -6 -112 4 -18 3
-48 -1 -66 -5 -17 -13 -54 -19 -82 -6 -30 -9 -233 -8 -509 2 -389 0 -459 -12
-464 -8 -3 -51 13 -95 36 -45 22 -110 53 -146 67 -36 14 -74 30 -85 34 -11 5
-65 30 -119 57 -54 27 -127 72 -162 99 -34 28 -78 70 -97 95 -18 25 -46 70
-60 100 -15 31 -34 96 -43 145 -12 68 -15 134 -12 270 3 123 10 196 20 230 9
28 22 72 30 100 l14 49 89 23 c50 12 108 27 130 31 22 5 66 21 97 36 31 14 63
26 72 26 8 0 16 3 18 8 2 4 28 18 58 32 30 14 82 43 115 65 33 22 63 44 67 50
4 5 44 30 90 55 55 31 85 43 90 35z m3653 -865 c11 0 37 -5 57 -10 20 -6 60
-27 90 -46 29 -20 61 -46 72 -58 10 -11 62 -68 115 -126 53 -58 117 -127 142
-154 24 -27 58 -64 74 -82 17 -18 40 -46 52 -62 12 -16 31 -52 43 -81 11 -28
20 -68 20 -88 l0 -37 -62 61 c-35 34 -190 187 -344 340 -155 153 -287 289
-294 302 -10 19 -9 25 1 32 8 5 23 9 34 9z m-151 -40 c5 0 32 -24 61 -54 29
-29 56 -55 61 -57 6 -2 23 -21 38 -41 19 -25 36 -38 52 -38 17 0 24 -6 24 -20
0 -12 21 -40 48 -65 26 -25 53 -45 60 -45 7 0 17 -11 22 -25 5 -14 21 -30 35
-35 14 -5 25 -15 25 -21 0 -6 6 -9 14 -6 8 3 22 -4 33 -15 12 -14 13 -19 3
-13 -9 5 -8 0 4 -13 11 -12 24 -22 31 -22 7 0 20 -9 31 -21 10 -12 18 -24 17
-28 -2 -3 0 -6 5 -7 4 0 57 -49 118 -110 61 -60 119 -123 129 -141 17 -29 17
-40 7 -130 -6 -54 -14 -126 -18 -161 -4 -47 -11 -65 -25 -73 -14 -7 -25 -6
-42 6 -12 8 -155 145 -317 304 -162 159 -328 315 -367 348 -40 32 -96 76 -125
99 -29 22 -88 59 -130 82 -42 23 -103 50 -135 61 -32 11 -58 25 -58 31 0 6 38
32 85 57 47 25 112 61 145 81 33 19 83 43 110 53 28 10 54 18 59 19z m-2467
-80 c1 0 14 -17 27 -39 13 -21 75 -90 138 -152 62 -63 146 -137 186 -164 40
-28 85 -56 100 -64 15 -8 34 -18 42 -23 8 -5 35 -18 59 -30 l45 -21 -39 -31
c-22 -17 -63 -51 -91 -76 -28 -25 -91 -79 -140 -120 -49 -41 -126 -111 -172
-155 -46 -44 -89 -85 -95 -91 -7 -7 -61 -62 -121 -123 -60 -61 -113 -111 -119
-111 -5 0 -32 18 -59 40 -28 22 -56 40 -63 40 -6 0 -20 9 -31 21 -10 12 -70
57 -131 101 -62 44 -113 86 -113 93 0 6 9 20 20 30 11 10 20 24 20 31 0 7 12
26 26 41 14 15 46 70 70 121 24 52 55 108 69 124 14 17 32 44 39 62 7 17 26
44 40 60 15 16 32 38 37 50 6 11 18 35 28 51 9 17 53 86 98 155 45 69 92 137
104 153 13 15 24 27 26 27z m1598 -102 c52 1 123 -6 168 -16 42 -9 77 -21 77
-27 0 -5 -49 -33 -108 -61 -59 -28 -133 -61 -165 -74 l-58 -23 -29 34 c-16 19
-29 40 -30 48 0 8 -12 30 -26 48 -15 19 -22 38 -18 43 5 5 29 12 54 17 25 6
86 10 135 11z m-268 -38 c15 0 31 -14 52 -46 17 -25 31 -48 31 -53 0 -4 11
-18 25 -31 14 -13 25 -29 25 -35 0 -6 -26 -22 -57 -36 -32 -14 -76 -31 -98
-39 -22 -7 -67 -20 -100 -27 -33 -8 -94 -21 -135 -28 -41 -8 -128 -14 -192
-14 -72 -1 -118 3 -118 9 0 5 37 34 83 64 46 30 112 70 147 90 36 20 92 49
125 65 33 16 89 40 125 54 36 14 75 26 87 27z m653 -40 c14 0 49 -9 79 -21 30
-11 91 -38 135 -60 45 -23 90 -49 102 -60 11 -10 24 -19 28 -19 4 0 22 -11 40
-25 18 -14 36 -25 41 -25 4 0 18 -10 29 -22 12 -13 40 -38 62 -56 21 -19 184
-177 362 -352 177 -175 322 -325 322 -332 0 -7 -14 -35 -30 -63 -27 -46 -30
-58 -30 -145 0 -52 5 -111 10 -131 6 -20 28 -63 50 -95 34 -50 40 -67 40 -111
0 -30 -5 -53 -10 -53 -6 0 -27 11 -48 23 -20 13 -54 30 -75 36 -21 7 -50 23
-66 37 -15 13 -39 28 -52 34 -13 5 -60 33 -104 61 -44 28 -85 52 -91 53 -6 1
-25 13 -42 26 -18 14 -51 40 -73 58 -23 17 -44 32 -49 32 -4 0 -25 16 -46 35
-21 19 -45 35 -54 35 -8 0 -35 20 -60 45 -25 24 -52 44 -60 45 -9 0 -31 15
-50 33 -19 19 -47 37 -61 40 -14 4 -31 18 -37 32 -6 14 -17 25 -24 25 -7 0
-23 10 -35 23 -13 12 -34 33 -46 46 -12 13 -33 34 -46 45 -14 12 -63 59 -110
106 -48 47 -111 115 -140 150 -30 36 -70 80 -88 97 -18 18 -33 37 -33 42 0 4
-10 20 -22 34 -13 15 -43 51 -68 82 -25 31 -48 67 -51 80 -6 22 -1 27 64 57
39 18 125 61 191 95 67 34 132 62 146 63z m-471 -212 c9 -2 20 -13 26 -24 6
-12 26 -42 45 -68 19 -26 82 -104 139 -174 58 -70 168 -190 246 -267 77 -77
164 -161 193 -187 29 -27 56 -48 60 -48 4 0 18 -10 32 -22 14 -13 49 -45 79
-71 30 -27 69 -54 88 -62 18 -8 33 -18 33 -23 0 -4 18 -18 40 -31 22 -12 40
-26 40 -31 0 -5 27 -27 61 -50 33 -22 65 -40 70 -40 5 0 9 -4 9 -8 0 -5 24
-24 52 -43 29 -19 66 -40 83 -47 16 -7 39 -21 50 -31 11 -9 47 -33 80 -53 33
-20 89 -51 125 -70 36 -19 89 -47 118 -63 29 -16 57 -36 61 -44 5 -9 12 -35
16 -58 6 -41 6 -42 -32 -61 -21 -11 -56 -34 -78 -51 -22 -17 -45 -35 -52 -41
-7 -5 -36 -24 -65 -41 -29 -17 -63 -40 -75 -51 -20 -19 -26 -19 -55 -8 -18 7
-40 19 -48 25 -8 7 -27 15 -42 19 -16 3 -28 11 -28 16 0 6 -7 10 -15 10 -8 0
-23 4 -33 10 -9 5 -51 23 -92 39 -41 17 -96 35 -122 42 -27 6 -48 15 -48 20 0
4 -17 11 -37 14 -21 4 -56 15 -78 26 -22 11 -47 24 -55 28 -8 5 -27 14 -42 21
-15 7 -36 10 -48 7 -14 -3 -28 1 -41 14 -12 12 -33 19 -58 19 -23 0 -66 13
-103 30 -34 16 -71 30 -81 30 -10 0 -39 9 -64 21 -26 12 -55 18 -69 15 -12 -3
-26 -2 -29 4 -3 5 -22 10 -41 10 -20 0 -44 4 -54 10 -10 5 -33 12 -51 15 -19
2 -63 12 -99 21 -36 9 -105 21 -155 26 -49 6 -157 10 -240 10 -82 0 -228 -7
-324 -16 -95 -9 -227 -24 -292 -33 l-119 -17 -28 27 c-16 15 -32 27 -38 27 -5
0 -18 10 -29 22 -11 12 -27 33 -36 46 -9 13 -39 42 -65 64 -27 22 -96 83 -152
136 -57 54 -111 101 -120 106 -10 5 -27 20 -39 33 -13 13 -23 28 -23 33 0 4
93 98 208 208 114 110 230 219 259 243 28 24 85 72 126 107 41 34 105 85 142
113 63 47 69 50 97 38 20 -8 78 -10 201 -6 115 4 200 12 257 25 47 11 117 29
155 40 39 12 94 29 123 40 29 10 55 22 59 26 4 4 14 5 22 4z m4128 -339 c1 0
13 -3 27 -9 22 -8 26 -16 26 -51 0 -23 -9 -78 -21 -123 -11 -44 -32 -121 -45
-171 -14 -49 -39 -125 -55 -167 -17 -42 -50 -108 -74 -147 -24 -38 -48 -76
-53 -83 -6 -7 -37 -42 -69 -78 -31 -36 -63 -66 -70 -68 -8 -2 -13 6 -13 21 0
13 -8 31 -17 39 -10 9 -31 22 -48 30 -16 8 -58 21 -93 28 -43 9 -112 11 -225
7 -89 -2 -202 -12 -252 -22 -49 -9 -128 -25 -175 -35 -47 -10 -112 -24 -145
-30 -33 -6 -73 -15 -90 -20 -16 -5 -68 -16 -114 -25 -46 -8 -106 -22 -133 -30
-26 -7 -86 -17 -133 -21 -47 -4 -85 -4 -85 -1 0 3 24 20 53 38 28 18 60 38 69
44 10 5 34 22 55 36 21 14 71 47 110 72 40 26 75 47 79 47 3 0 24 13 47 28 23
16 98 63 167 104 69 42 166 99 215 128 50 29 133 77 185 107 52 30 163 88 245
128 83 40 198 93 256 118 59 25 142 55 185 67 44 12 104 26 134 30 30 4 56 8
57 9z m-6646 -39 c7 0 81 -34 164 -74 82 -41 159 -81 170 -89 19 -15 18 -17
-29 -113 -27 -55 -58 -119 -69 -144 -11 -25 -24 -54 -27 -65 -4 -11 -12 -31
-18 -46 -5 -14 -15 -51 -22 -83 -10 -50 -14 -56 -26 -44 -8 8 -23 38 -34 68
-11 30 -20 64 -20 75 0 11 -8 34 -18 50 -10 17 -25 64 -34 105 -10 41 -22 104
-27 140 -6 36 -13 100 -17 143 -5 61 -4 77 7 77z m4391 -40 c10 0 21 -7 25
-16 3 -9 -2 -32 -12 -50 -11 -21 -26 -34 -38 -34 -15 0 -18 5 -13 23 4 12 9
34 12 50 4 18 13 27 26 27z m87 -110 c10 0 35 -18 55 -40 20 -22 36 -46 36
-54 0 -7 14 -31 31 -52 18 -22 40 -57 50 -79 10 -22 19 -59 19 -83 0 -24 -5
-52 -10 -63 -8 -13 -21 -19 -48 -19 -21 0 -46 6 -57 14 -11 7 -31 17 -45 21
-14 4 -61 31 -105 61 l-80 53 3 44 c3 34 13 56 44 93 22 27 51 61 64 77 13 15
33 27 43 27z m-4063 -70 c7 0 55 -29 108 -65 53 -35 127 -89 164 -118 37 -30
73 -62 81 -71 13 -15 9 -23 -40 -73 -30 -30 -65 -67 -79 -82 -14 -15 -68 -78
-120 -140 -52 -62 -103 -125 -113 -142 -11 -16 -21 -29 -24 -29 -2 0 -14 5
-26 12 -12 6 -36 23 -53 37 -18 14 -51 50 -74 79 -40 52 -41 54 -35 110 4 31
14 80 22 107 9 28 19 55 23 60 4 6 11 26 15 45 4 19 28 78 53 130 25 52 54
105 65 118 11 12 26 22 33 22z m3822 -250 c3 0 2 -28 -2 -62 -4 -35 -8 -89
-11 -121 -2 -33 -6 -61 -8 -64 -3 -2 -12 17 -21 43 -9 26 -16 60 -16 75 0 14
9 46 20 71 10 24 22 47 26 51 4 4 9 7 12 7z m-3416 -51 c10 1 82 -59 160 -133
79 -74 184 -173 233 -219 50 -47 88 -87 85 -90 -3 -2 -99 -16 -215 -32 -179
-24 -232 -27 -365 -22 -104 3 -173 11 -210 22 -30 9 -61 23 -69 30 -11 11 -7
19 21 51 18 22 50 59 69 84 20 25 57 68 83 95 25 28 78 87 118 132 40 45 81
82 90 82z m5158 -284 c74 -3 150 -9 169 -14 19 -6 45 -20 58 -33 16 -15 23
-33 23 -57 0 -20 -4 -41 -8 -46 -4 -6 -25 -23 -48 -38 -22 -15 -50 -35 -60
-45 -11 -9 -36 -25 -55 -36 -19 -10 -59 -31 -89 -46 -30 -16 -88 -45 -128 -64
-39 -20 -82 -36 -95 -36 -12 0 -35 -7 -51 -15 -16 -8 -67 -18 -115 -21 -47 -3
-102 -11 -121 -17 -20 -6 -100 -10 -190 -9 -85 1 -180 7 -210 13 -30 6 -89 17
-130 25 -41 9 -115 27 -165 41 -49 14 -127 41 -172 60 -46 20 -81 39 -78 43 2
4 35 27 72 52 64 43 74 46 153 52 47 3 117 10 155 15 39 5 93 14 120 20 28 5
86 17 130 25 44 8 152 31 240 52 88 20 171 38 185 40 14 1 68 10 120 18 52 9
109 17 125 20 17 2 91 3 165 1z m-5762 -74 c3 -8 22 -31 43 -50 21 -20 47 -43
58 -51 14 -10 18 -19 12 -28 -7 -11 -16 -10 -48 6 -22 11 -44 26 -50 34 -5 7
-15 27 -20 43 -5 17 -8 37 -5 45 5 13 6 13 10 1z m4108 -42 c10 -9 50 -26 88
-38 38 -11 80 -21 93 -21 13 0 23 -4 23 -10 0 -5 -19 -23 -42 -40 -22 -16 -53
-30 -68 -30 -15 0 -44 7 -64 15 -29 13 -36 20 -36 44 0 16 -3 44 -7 62 -6 33
-5 33 13 18z m-2271 -5 c77 -2 158 -6 180 -8 22 -2 81 -7 130 -10 50 -3 133
-13 185 -22 52 -8 109 -21 125 -29 17 -7 46 -16 65 -18 19 -2 82 -17 140 -31
58 -15 124 -36 147 -47 24 -10 51 -19 60 -19 10 0 49 -11 88 -26 38 -14 88
-33 110 -44 22 -10 87 -37 145 -60 58 -23 125 -51 150 -62 25 -11 98 -46 163
-76 64 -31 117 -61 117 -67 0 -5 -19 -21 -42 -35 -22 -14 -70 -46 -105 -72
-35 -27 -67 -48 -71 -48 -4 0 -50 -29 -102 -65 -52 -36 -100 -65 -106 -65 -7
0 -14 -7 -18 -15 -3 -8 -12 -15 -20 -15 -8 0 -23 -10 -33 -23 -10 -13 -26 -26
-35 -30 -10 -3 -18 -13 -18 -22 0 -8 -9 -15 -21 -15 -11 0 -29 -5 -39 -10 -11
-6 -39 -12 -62 -14 -24 -3 -72 -7 -108 -10 -36 -3 -119 -7 -185 -10 -66 -4
-158 -11 -205 -16 -47 -5 -161 -15 -255 -22 -93 -6 -219 -12 -279 -12 -79 -1
-110 2 -114 12 -2 6 -11 12 -20 12 -9 0 -30 9 -47 20 -16 11 -61 36 -100 54
-38 18 -104 49 -145 69 -41 19 -114 54 -162 76 -48 23 -92 41 -98 41 -5 0 -18
4 -28 9 -9 4 -38 18 -65 30 -26 11 -54 21 -61 21 -8 0 -45 14 -82 30 -37 17
-101 40 -141 50 -40 11 -90 26 -110 34 -21 8 -83 25 -138 37 -55 12 -131 28
-170 35 -38 7 -149 16 -245 19 -96 4 -190 11 -209 17 -33 10 -33 11 -29 58 4
36 18 67 62 134 54 83 58 86 94 86 20 0 57 -5 82 -11 25 -6 99 -10 165 -10 66
0 157 3 202 5 46 3 87 8 93 11 6 4 79 7 163 7 98 0 185 -6 245 -16 52 -9 119
-26 150 -37 32 -11 71 -28 87 -36 17 -9 80 -59 140 -110 61 -52 121 -104 135
-117 14 -13 37 -31 51 -40 25 -15 27 -15 53 5 23 18 27 27 22 53 -4 17 -18 48
-31 68 -14 21 -31 38 -37 38 -7 0 -26 13 -43 29 -16 16 -46 38 -65 50 -19 11
-53 30 -74 42 -22 12 -46 27 -53 34 -7 8 -26 16 -42 20 -16 3 -50 27 -75 52
-31 30 -44 49 -37 56 5 5 63 15 128 23 65 7 151 17 191 23 41 5 76 12 80 15 3
3 -1 7 -9 7 -8 1 0 5 16 10 17 4 93 6 170 3z m-1661 -94 c14 0 28 -5 31 -11 4
-6 5 -13 1 -16 -3 -3 -17 -3 -31 1 -14 4 -25 11 -25 16 0 6 11 10 24 10z
m3888 -231 c4 1 12 -7 17 -17 5 -10 15 -50 22 -88 7 -38 16 -73 21 -78 4 -6 8
-19 8 -29 0 -11 13 -47 29 -81 16 -33 37 -88 46 -121 9 -33 21 -78 26 -100 6
-21 7 -56 4 -77 -4 -22 -26 -63 -54 -100 -27 -35 -66 -77 -87 -93 -21 -17 -59
-43 -84 -60 -25 -16 -67 -41 -95 -55 -27 -15 -96 -52 -152 -83 -56 -32 -107
-57 -111 -57 -5 0 -15 -6 -21 -14 -7 -8 -27 -18 -44 -22 -18 -3 -97 -33 -177
-66 -80 -33 -164 -68 -187 -79 -24 -10 -48 -19 -54 -19 -6 0 -32 -11 -58 -24
-25 -14 -104 -46 -176 -71 -71 -26 -155 -58 -185 -70 -30 -13 -74 -29 -98 -36
-23 -7 -44 -10 -45 -8 -2 2 -18 32 -35 66 -32 61 -32 65 -26 155 6 92 6 93
-25 138 l-31 45 22 15 c13 8 36 27 53 41 16 15 40 29 52 33 13 4 46 25 75 47
29 21 57 39 63 39 6 0 22 11 37 24 14 14 50 40 79 57 30 18 68 43 84 54 24 18
60 25 185 39 85 9 214 21 285 26 72 6 153 15 180 20 28 4 91 11 140 15 50 3
126 13 170 21 44 9 105 23 135 31 30 9 68 22 83 30 16 8 26 17 23 20 -3 3 2
19 10 35 15 28 14 31 -8 55 -13 14 -45 42 -73 62 -27 20 -97 64 -155 96 -57
33 -113 65 -124 70 -11 6 -20 14 -20 19 -1 5 60 51 134 102 74 51 138 93 142
93z m-345 -229 c1 0 30 -17 65 -37 35 -20 86 -54 113 -76 28 -22 75 -55 105
-75 30 -19 60 -42 67 -51 9 -12 8 -18 -2 -24 -8 -4 -33 -11 -57 -16 -24 -5
-77 -16 -118 -25 -41 -8 -102 -18 -135 -21 -33 -3 -118 -10 -190 -15 -71 -5
-170 -14 -220 -20 -49 -5 -109 -13 -132 -16 -28 -4 -43 -3 -43 4 0 6 20 25 44
41 25 17 55 36 68 41 13 6 115 73 228 150 113 77 206 139 207 140z m-910 -492
l46 0 -25 -16 c-14 -9 -45 -30 -69 -47 -24 -16 -57 -40 -73 -53 -15 -12 -45
-29 -65 -38 -20 -8 -41 -20 -46 -27 -6 -7 -39 -32 -74 -56 l-63 -43 -51 35
c-29 19 -79 50 -112 68 -33 19 -95 52 -137 73 -42 22 -75 43 -72 47 2 4 28 10
57 13 28 4 104 8 167 11 63 3 194 10 290 16 96 6 177 12 178 14 2 2 24 3 49 3z
m-1184 -39 c21 0 21 -1 2 -9 -11 -5 -24 -9 -28 -9 -5 -1 -5 4 -2 9 3 6 16 10
28 9z m1230 0 c21 0 21 -1 2 -9 -11 -5 -24 -9 -28 -9 -5 -1 -5 4 -2 9 3 6 16
10 28 9z m-1403 -21 c14 0 19 -2 13 -5 -7 -2 -19 -2 -25 0 -7 3 -2 5 12 5z
m399 -9 c19 0 57 -10 85 -23 28 -13 104 -49 169 -80 65 -31 121 -56 124 -56 3
0 34 -19 69 -42 35 -23 64 -45 64 -49 0 -4 -36 -29 -81 -56 -44 -26 -94 -57
-112 -67 -18 -10 -57 -35 -87 -56 -30 -20 -99 -63 -153 -96 -55 -32 -129 -75
-166 -94 -37 -20 -75 -42 -84 -50 -10 -8 -23 -20 -30 -25 -7 -6 -37 -23 -67
-39 -30 -16 -62 -34 -70 -40 -8 -7 -28 -18 -45 -26 -16 -8 -54 -30 -84 -48
-30 -19 -102 -59 -160 -90 -58 -30 -119 -63 -136 -73 -16 -10 -57 -32 -90 -49
-33 -17 -67 -35 -75 -40 -8 -5 -72 -36 -142 -69 -70 -34 -133 -61 -139 -61 -7
0 -20 -6 -28 -13 -9 -7 -38 -22 -66 -34 -27 -11 -81 -30 -120 -42 -38 -12
-110 -28 -160 -37 -49 -9 -117 -19 -150 -23 l-59 -8 -71 61 c-38 34 -106 98
-151 143 -45 45 -96 101 -115 124 -19 23 -60 69 -93 103 -32 33 -70 77 -84 96
-15 19 -87 95 -161 168 -75 72 -140 132 -146 132 -6 0 -28 17 -49 39 -34 34
-36 40 -22 54 8 8 35 24 58 35 24 11 64 29 90 41 26 11 55 21 65 21 9 0 41 7
72 16 31 9 73 23 93 30 20 7 92 26 160 43 68 16 141 32 163 36 22 4 45 10 50
15 6 4 35 10 65 14 30 3 80 10 110 15 30 5 66 11 80 14 14 3 68 12 120 21 52
8 147 22 210 30 63 8 160 20 215 26 55 5 147 15 205 21 58 6 150 15 205 20 55
5 154 14 220 19 66 6 199 19 295 29 96 10 190 19 209 20z m-676 -10 c4 0 7 -3
7 -9 0 -5 -17 -9 -37 -9 -38 1 -38 1 -8 9 17 4 33 8 38 9z m-80 -10 c4 0 7 -3
7 -9 0 -5 -12 -10 -27 -10 -16 0 -46 -3 -68 -7 -22 -3 -37 -2 -33 2 4 4 31 11
60 15 29 4 56 8 61 9z m1323 -279 c7 0 26 -16 43 -35 17 -20 31 -42 31 -49 0
-8 -7 -27 -15 -42 -8 -16 -15 -51 -15 -77 0 -29 8 -64 21 -90 12 -23 30 -54
41 -69 18 -26 18 -27 1 -36 -10 -5 -42 -17 -70 -26 -29 -10 -55 -22 -58 -27
-4 -5 -24 -9 -45 -9 -21 0 -41 -4 -44 -8 -3 -5 -45 -21 -93 -36 -48 -15 -110
-36 -138 -46 -27 -10 -79 -28 -115 -39 -36 -12 -108 -34 -160 -50 -52 -16
-115 -34 -140 -41 -25 -6 -59 -18 -77 -26 -18 -8 -57 -19 -88 -25 -31 -6 -76
-19 -100 -29 -24 -10 -56 -21 -72 -24 -15 -3 -50 -12 -78 -21 -27 -9 -65 -23
-83 -31 -18 -8 -42 -14 -53 -14 -11 0 -28 -4 -38 -10 -10 -5 -53 -16 -95 -25
-42 -9 -85 -19 -94 -22 -9 -3 -6 3 9 15 14 11 58 36 99 56 40 20 81 43 90 51
9 8 22 15 28 15 7 0 29 11 50 24 20 13 61 36 91 52 29 16 87 47 127 69 41 22
104 58 141 79 38 22 82 49 98 61 17 12 38 24 48 28 10 4 51 26 90 49 40 24 79
47 88 53 9 5 39 23 65 39 27 16 76 46 109 67 33 21 72 43 88 50 15 7 27 16 27
20 0 4 24 19 53 34 28 15 66 39 82 52 17 14 55 40 85 59 30 19 60 34 66 34z
m148 -444 c12 0 28 -18 43 -45 13 -24 23 -48 23 -52 0 -4 -19 -35 -42 -70 -24
-34 -49 -71 -57 -83 -8 -11 -34 -52 -59 -91 -25 -38 -69 -103 -100 -143 -30
-41 -90 -117 -134 -170 -43 -53 -126 -145 -184 -205 -57 -60 -104 -113 -104
-117 0 -5 -17 -19 -37 -32 -21 -12 -63 -45 -93 -71 -30 -27 -65 -57 -76 -68
-12 -10 -25 -19 -30 -19 -4 0 -16 -8 -27 -17 -10 -10 -40 -30 -65 -45 -26 -15
-72 -40 -102 -56 -31 -17 -87 -35 -127 -42 -40 -6 -76 -16 -79 -21 -3 -5 -10
-7 -15 -3 -5 3 -69 7 -142 9 -127 3 -135 4 -216 40 -46 21 -105 50 -131 66
-26 16 -52 29 -58 29 -6 0 -55 30 -109 67 -54 36 -127 89 -163 117 -36 27
-108 86 -160 130 -52 44 -107 91 -122 105 -15 14 -28 29 -28 33 0 4 15 11 33
16 17 5 86 30 152 56 66 26 135 54 153 62 18 8 41 14 50 14 10 0 81 16 158 35
76 20 159 42 184 50 25 7 63 18 85 24 22 6 72 20 110 31 39 12 88 26 110 32
22 6 45 15 50 19 6 4 26 10 45 13 19 4 55 14 80 21 25 8 70 22 100 31 30 8 80
25 110 37 30 12 60 25 67 30 7 5 31 11 54 13 24 3 51 10 62 16 10 5 33 11 50
13 18 1 52 12 77 22 25 11 65 26 90 33 25 7 74 24 110 38 36 13 69 27 74 30 5
3 22 6 36 7 15 2 59 12 96 24 38 12 87 31 109 41 22 10 60 25 85 33 25 8 54
14 64 13z m3812 -596 c8 0 12 -4 9 -10 -3 -5 -10 -10 -16 -10 -5 0 -9 5 -9 10
0 6 7 10 16 10z m-92 -11 c11 1 17 -2 13 -5 -3 -3 -12 -4 -19 -1 -8 3 -5 6 6
6z m-464 -39 c6 0 10 -2 10 -4 0 -3 -4 -8 -10 -11 -5 -3 -10 -1 -10 4 0 6 5
11 10 11z m-360 -42 l25 0 -25 -8 c-14 -4 -34 -8 -45 -8 l-20 -1 20 9 c11 5
31 8 45 8z m-170 -18 c5 0 12 -4 15 -10 3 -5 -3 -10 -15 -10 -12 0 -18 5 -15
10 3 6 10 10 15 10z m-5260 -11 c23 0 23 -1 8 -13 -10 -7 -75 -32 -145 -54
-71 -23 -175 -53 -233 -68 -58 -14 -127 -32 -155 -40 -27 -7 -95 -18 -150 -24
-55 -7 -109 -16 -121 -20 -12 -5 -129 -7 -260 -6 -131 2 -259 8 -284 14 -25 6
-74 16 -110 22 -36 6 -81 15 -100 20 -19 5 -71 14 -115 22 -44 7 -80 17 -80
21 0 5 209 10 465 11 271 2 498 8 545 14 44 6 125 16 180 22 55 6 177 22 270
36 94 13 190 28 215 33 25 5 56 9 70 10z"/>
</g>
<g>
<path d="M12864 2679 c-11 0 -14 -3 -6 -6 7 -3 16 -2 19 1 4 3 -2 6 -13 5z"/>
</g>
<g>
<path d="M12608 2653 c-9 3 -18 4 -20 2 -2 -2 -57 -6 -123 -9 -66 -3 -163 -10
-215 -16 -52 -5 -144 -12 -205 -15 -60 -3 -130 -9 -155 -12 -25 -4 -50 -5 -57
-4 -7 1 -85 -6 -175 -15 -90 -9 -199 -19 -243 -23 -48 -4 -78 -10 -75 -16 3
-5 23 -10 45 -9 22 0 65 3 95 6 30 3 64 2 75 -3 17 -6 16 -8 -10 -10 -16 -1
-37 -3 -45 -4 -8 -1 -22 -3 -30 -4 -8 0 -10 -4 -5 -9 6 -5 62 -5 125 0 63 5
134 13 158 18 23 6 58 10 77 10 23 0 35 5 35 14 0 9 17 16 48 21 27 3 89 4
137 0 50 -3 91 -2 94 3 3 5 21 13 39 17 19 4 32 3 32 -4 0 -5 15 -9 33 -9 17
1 42 8 55 16 17 11 25 12 36 3 11 -9 16 -9 23 2 6 11 37 16 113 20 58 2 116 9
129 14 19 8 21 11 9 16z m-790 -84 c24 0 25 -1 7 -9 -11 -5 -23 -9 -27 -9 -5
-1 -8 4 -8 9 0 6 12 10 28 9z m-183 -21 c17 0 24 -2 18 -5 -7 -2 -21 -2 -30 0
-10 3 -4 5 12 5z"/>
</g>
<g>
<path d="M12715 2658 c-16 0 -22 -2 -12 -5 9 -2 23 -2 30 0 6 3 -1 5 -18 5z"/>
</g>
<g>
<path d="M11940 2570 c-5 0 -12 -4 -15 -10 -3 -5 3 -10 15 -10 12 0 18 5 15
10 -3 6 -10 10 -15 10z"/>
</g>
</g>
</svg>
