<?xml version="1.0" standalone="no"?>
<!DOCTYPE svg PUBLIC "-//W3C//DTD SVG 20010904//EN"
 "http://www.w3.org/TR/2001/REC-SVG-20010904/DTD/svg10.dtd">
<svg version="1.0" xmlns="http://www.w3.org/2000/svg"
 width="1735.000000pt" height="1735.000000pt" viewBox="0 0 1735.000000 1735.000000"
 preserveAspectRatio="xMidYMid meet">
<metadata>
Created by potrace 1.16, written by Peter Selinger 2001-2019
</metadata>
<g transform="translate(0.000000,1735.000000) scale(0.100000,-0.100000)"
fill="#000000" stroke="none">
<g>
<path d="M6464 16870 c-5 0 -17 -6 -26 -12 -8 -7 -33 -38 -55 -68 -22 -30 -47
-70 -57 -87 -9 -18 -46 -61 -83 -95 -37 -35 -98 -92 -136 -128 -38 -36 -76
-78 -84 -94 -13 -24 -13 -39 -4 -87 7 -32 12 -107 12 -166 0 -60 5 -173 10
-253 5 -80 11 -158 13 -175 3 -16 7 -75 10 -130 4 -55 13 -235 22 -400 8 -165
19 -397 24 -515 5 -118 12 -303 15 -410 4 -107 10 -233 15 -280 5 -47 12 -156
16 -242 4 -87 3 -158 -1 -158 -4 0 -32 26 -61 59 -29 32 -68 65 -86 74 -18 9
-49 32 -67 51 -19 20 -39 36 -43 36 -5 0 -34 20 -66 46 -31 25 -81 64 -110 87
-30 23 -59 47 -66 53 -6 6 -22 16 -35 23 -13 7 -80 60 -150 117 -69 57 -152
127 -184 156 -32 28 -68 59 -80 67 -12 8 -46 38 -75 65 -29 28 -63 57 -76 66
-13 8 -38 31 -57 50 -19 20 -47 45 -64 58 -16 12 -55 42 -85 65 -30 24 -80 67
-110 96 -30 30 -79 69 -109 88 -30 20 -86 66 -125 104 -39 38 -74 69 -78 69
-5 0 -8 26 -7 58 0 31 4 86 9 122 4 36 21 113 36 171 16 63 24 117 20 132 -3
15 -17 29 -34 35 -22 7 -32 6 -48 -7 -14 -11 -23 -33 -27 -67 -3 -29 -13 -73
-21 -100 -9 -27 -25 -98 -37 -159 -11 -60 -23 -124 -25 -141 -5 -27 1 -37 53
-89 32 -31 78 -71 103 -88 25 -17 71 -51 104 -76 32 -25 82 -65 110 -89 28
-23 56 -46 61 -50 6 -4 30 -23 55 -42 25 -18 63 -50 86 -69 22 -20 53 -47 70
-61 16 -14 71 -61 123 -105 51 -44 127 -107 167 -140 40 -33 115 -95 166 -138
51 -42 152 -123 224 -180 72 -56 157 -120 189 -142 32 -22 81 -59 109 -83 28
-24 97 -84 153 -133 91 -82 102 -95 107 -132 4 -23 9 -213 11 -422 3 -209 6
-432 8 -496 2 -100 0 -116 -13 -111 -8 3 -28 16 -45 28 -16 13 -46 37 -65 53
-19 17 -59 50 -88 75 -29 25 -65 52 -80 60 -16 8 -34 22 -41 30 -7 9 -68 42
-135 75 -79 38 -159 68 -230 86 -95 24 -122 27 -210 22 -55 -3 -148 -8 -205
-10 -63 -3 -151 -16 -220 -33 -64 -15 -123 -33 -131 -39 -8 -6 -44 -24 -80
-40 -36 -15 -76 -36 -90 -45 -14 -10 -77 -69 -141 -131 -64 -63 -145 -148
-180 -191 -35 -42 -75 -93 -87 -114 -13 -21 -27 -54 -30 -74 -3 -19 -13 -46
-23 -60 -9 -14 -27 -59 -39 -100 -12 -41 -29 -96 -37 -123 -8 -26 -21 -80 -28
-120 -7 -39 -21 -112 -30 -160 -12 -66 -15 -127 -11 -250 3 -102 10 -181 19
-214 9 -28 20 -61 26 -72 6 -11 11 -35 11 -53 0 -19 12 -57 28 -85 15 -28 46
-82 69 -120 22 -37 52 -79 65 -93 12 -14 36 -35 51 -47 16 -12 26 -26 23 -31
-3 -5 -122 -11 -263 -12 -142 -2 -463 -4 -713 -4 -447 -1 -456 -1 -500 21 -25
11 -61 37 -79 57 -19 20 -39 36 -44 36 -4 0 -45 31 -90 68 -45 37 -93 75 -107
85 -14 9 -58 39 -98 66 -40 28 -83 53 -95 57 -12 3 -36 21 -53 38 -17 18 -64
56 -105 84 -41 28 -103 80 -139 114 -36 35 -83 77 -105 93 -22 17 -58 42 -80
58 -22 15 -56 39 -75 53 -19 14 -44 35 -56 47 -11 12 -38 36 -59 52 -21 17
-64 52 -94 79 -31 27 -59 54 -62 60 -3 6 -11 49 -18 96 -7 47 -17 96 -22 110
-4 14 -20 98 -34 187 -15 95 -33 176 -44 195 -10 18 -26 35 -35 36 -10 2 -29
1 -43 -3 -21 -5 -24 -10 -20 -33 3 -15 13 -54 22 -87 9 -33 20 -82 24 -110 4
-27 15 -66 26 -85 16 -29 19 -58 21 -172 l1 -137 30 -28 c17 -16 41 -34 55
-40 13 -6 45 -28 69 -49 25 -22 63 -53 84 -71 22 -18 68 -54 102 -80 34 -26
87 -66 119 -88 31 -22 107 -83 168 -136 61 -52 138 -115 171 -140 33 -24 96
-68 140 -98 44 -30 136 -97 205 -150 69 -52 146 -113 173 -134 26 -22 46 -42
44 -44 -2 -1 -69 -8 -148 -13 -79 -6 -169 -11 -199 -11 -30 -1 -120 2 -200 6
-80 4 -244 8 -365 8 -121 0 -374 -1 -563 -2 -323 -3 -344 -2 -364 15 -11 11
-45 52 -75 93 -31 41 -67 86 -82 100 -14 14 -37 46 -50 71 -13 25 -37 71 -54
102 -16 32 -45 75 -64 95 -18 21 -36 48 -39 60 -4 13 -10 23 -15 23 -5 0 -9 9
-9 20 0 11 -6 23 -14 26 -8 3 -26 31 -41 62 -15 31 -32 60 -39 64 -6 4 -22 8
-36 8 -15 0 -31 -5 -38 -12 -7 -7 -12 -20 -12 -29 0 -9 21 -42 46 -73 25 -31
79 -106 120 -166 63 -94 74 -117 74 -152 0 -36 6 -49 39 -83 22 -22 58 -61 82
-88 23 -26 52 -69 64 -95 12 -27 37 -65 55 -85 20 -23 47 -41 72 -48 22 -6 50
-8 62 -5 12 3 48 7 81 10 33 3 114 8 180 11 66 3 190 9 275 13 85 4 427 6 759
5 l603 -3 86 -62 c46 -35 101 -77 121 -94 20 -17 52 -41 71 -54 19 -13 55 -42
80 -63 25 -22 93 -86 151 -141 59 -56 124 -113 145 -129 22 -15 59 -43 84 -63
25 -19 83 -70 129 -112 46 -42 94 -84 106 -92 12 -8 32 -26 46 -39 13 -12 39
-34 57 -48 17 -14 32 -30 32 -36 0 -6 -29 -7 -82 -3 -46 3 -135 2 -198 -3 -67
-6 -137 -18 -168 -30 -30 -11 -64 -26 -75 -34 -12 -7 -42 -19 -67 -26 -25 -7
-55 -17 -68 -22 -13 -5 -33 -9 -46 -9 -12 0 -48 -16 -80 -35 -32 -19 -84 -48
-117 -65 -32 -16 -76 -41 -96 -55 -21 -14 -52 -35 -69 -47 -17 -13 -65 -48
-106 -79 -40 -31 -86 -70 -101 -88 -15 -18 -27 -38 -27 -45 0 -7 -9 -21 -20
-31 -11 -10 -20 -22 -20 -27 0 -4 -17 -25 -38 -46 -22 -22 -43 -56 -51 -82 -7
-25 -25 -72 -41 -105 -15 -33 -31 -76 -35 -95 -4 -19 -18 -62 -30 -95 -13 -33
-31 -97 -40 -143 -14 -71 -15 -99 -5 -210 7 -70 15 -165 19 -212 4 -47 15
-110 25 -140 10 -30 25 -70 32 -88 8 -18 14 -48 14 -67 0 -18 5 -37 10 -40 6
-3 10 -17 10 -29 0 -13 16 -55 36 -92 20 -38 50 -96 67 -129 16 -33 53 -89 82
-125 28 -36 56 -72 61 -81 5 -9 28 -32 51 -50 24 -19 61 -47 83 -64 23 -16 66
-56 98 -87 31 -31 62 -63 68 -70 6 -7 27 -27 46 -44 19 -18 46 -35 59 -39 13
-4 44 -18 69 -31 25 -12 65 -32 90 -42 25 -11 54 -23 65 -28 11 -4 45 -14 75
-21 30 -8 94 -19 143 -25 48 -7 87 -14 87 -18 0 -3 -58 -67 -130 -141 -71 -74
-134 -138 -140 -144 -6 -5 -82 -80 -170 -165 -87 -85 -176 -170 -197 -188
l-38 -34 -170 8 c-93 4 -282 8 -420 10 -137 2 -297 6 -355 9 -58 2 -249 8
-425 12 -176 3 -331 6 -345 6 -14 -1 -43 -3 -65 -6 -22 -3 -72 -8 -111 -12
l-70 -8 -73 63 c-40 34 -76 71 -79 81 -4 10 -56 70 -115 133 -59 63 -107 118
-107 122 0 4 -34 39 -75 77 -41 38 -75 75 -75 82 0 7 -15 22 -33 32 -28 17
-36 18 -65 6 -19 -8 -32 -20 -32 -31 0 -10 34 -54 75 -98 41 -43 79 -82 83
-86 4 -4 50 -49 102 -100 52 -51 114 -118 138 -148 23 -30 58 -75 77 -100 19
-25 42 -59 50 -77 l15 -31 82 4 c46 3 117 8 158 10 41 3 199 8 350 11 164 3
342 1 440 -6 91 -7 342 -16 559 -21 217 -5 396 -11 398 -14 2 -2 -6 -15 -19
-28 -13 -13 -34 -38 -48 -56 -14 -17 -30 -31 -36 -32 -6 0 -38 -28 -70 -62
-32 -34 -118 -123 -190 -198 -71 -74 -150 -162 -175 -194 -24 -33 -147 -164
-274 -290 -126 -127 -281 -284 -343 -348 l-113 -118 -62 25 c-33 14 -63 29
-66 34 -4 5 -38 28 -77 52 -39 24 -95 64 -124 89 -29 25 -63 56 -74 68 -12 13
-49 44 -84 68 -35 24 -73 44 -86 44 -13 0 -30 -8 -39 -18 -10 -10 -17 -26 -17
-35 0 -9 12 -28 27 -42 16 -14 37 -28 48 -31 11 -4 45 -27 75 -52 30 -25 77
-67 105 -94 27 -26 53 -48 59 -48 5 0 24 -11 42 -25 18 -14 39 -25 48 -25 8 0
17 -4 21 -9 3 -6 31 -24 63 -42 31 -18 72 -45 90 -61 18 -15 37 -28 42 -28 5
0 63 55 127 122 65 67 215 221 334 342 120 122 289 302 376 401 88 99 248 271
357 382 l197 202 187 2 c103 2 252 2 332 1 80 -1 328 -2 553 -4 224 -1 407 -3
407 -5 0 -1 -20 -23 -44 -47 -24 -25 -86 -98 -138 -163 -52 -65 -125 -169
-161 -231 -37 -62 -67 -115 -67 -118 0 -3 -8 -24 -19 -47 -10 -23 -28 -62 -38
-87 -11 -25 -24 -54 -28 -65 -4 -11 -11 -36 -15 -55 -5 -19 -13 -60 -19 -90
-6 -30 -14 -75 -17 -100 -3 -25 -9 -61 -14 -80 -6 -19 -10 -55 -10 -80 0 -25
5 -63 11 -85 6 -22 16 -69 23 -105 7 -36 23 -87 35 -115 12 -27 32 -70 44 -95
12 -25 25 -47 29 -50 4 -3 22 -35 41 -71 19 -35 46 -85 62 -109 15 -25 64 -82
109 -128 44 -45 97 -93 116 -105 19 -11 41 -27 48 -34 7 -7 18 -13 24 -13 6 0
26 -11 44 -25 18 -14 41 -25 52 -25 10 0 27 -9 37 -20 10 -11 25 -20 33 -20 8
0 54 -22 102 -50 48 -27 91 -50 95 -50 5 0 16 -6 24 -14 9 -8 61 -32 116 -55
55 -22 114 -43 130 -47 17 -4 37 -13 47 -21 9 -8 31 -17 50 -19 18 -3 44 -9
58 -14 14 -5 41 -8 60 -6 19 2 64 -1 100 -6 36 -6 110 -12 165 -15 55 -3 145
-5 200 -5 58 0 127 7 165 17 36 9 97 25 135 36 39 11 93 29 120 39 28 11 54
20 58 20 4 0 30 16 57 35 27 19 52 35 56 35 3 0 21 12 40 26 19 15 36 25 38
23 2 -2 7 -191 10 -419 3 -228 10 -478 15 -555 6 -77 12 -158 15 -180 2 -22 7
-129 11 -238 l7 -198 -34 -40 c-18 -23 -58 -66 -88 -97 -30 -32 -75 -76 -100
-98 -25 -23 -76 -76 -115 -117 -38 -42 -74 -76 -80 -76 -5 -1 -35 -25 -66 -55
-30 -29 -101 -104 -157 -167 -56 -63 -165 -175 -244 -250 -79 -74 -163 -153
-188 -175 -41 -37 -49 -40 -90 -37 -25 2 -90 11 -145 19 -55 9 -138 28 -185
43 -47 15 -116 35 -155 45 -38 9 -79 16 -91 16 -11 0 -25 -5 -32 -12 -7 -7
-12 -27 -12 -45 0 -25 5 -36 23 -42 12 -5 56 -15 97 -21 41 -7 100 -21 130
-32 30 -11 69 -22 85 -24 17 -3 64 -9 105 -15 41 -6 108 -19 147 -30 40 -10
80 -19 89 -19 9 0 54 37 100 82 46 46 101 99 122 118 22 19 124 125 228 235
104 110 241 252 305 315 64 63 152 149 195 191 43 42 94 92 112 112 18 21 36
37 41 37 5 0 11 -75 14 -168 3 -92 8 -225 11 -297 3 -71 12 -159 20 -195 l14
-65 -31 -30 c-18 -17 -53 -46 -79 -65 -27 -18 -48 -37 -48 -42 0 -5 -10 -12
-23 -17 -13 -5 -39 -20 -59 -33 -19 -13 -56 -44 -82 -68 -26 -24 -70 -60 -99
-80 -29 -19 -83 -59 -120 -88 -54 -44 -67 -59 -67 -82 0 -16 7 -36 16 -44 8
-9 23 -16 33 -16 9 0 33 16 52 36 18 20 50 46 69 59 19 12 71 55 115 94 44 39
87 78 95 85 8 8 38 27 65 43 28 17 70 43 95 59 25 16 71 49 103 73 49 38 57
48 53 70 -2 14 -10 62 -16 106 -6 44 -15 112 -21 150 -5 39 -12 193 -15 343
l-4 273 289 290 c160 159 345 352 413 427 67 75 175 190 239 255 65 65 120
114 123 108 4 -5 10 -29 15 -53 5 -24 20 -72 34 -108 13 -36 38 -94 55 -130
17 -36 49 -96 71 -135 22 -38 47 -83 55 -100 8 -16 26 -45 40 -64 14 -19 26
-38 26 -43 0 -4 15 -27 33 -50 18 -24 44 -56 57 -73 14 -16 52 -56 85 -88 33
-32 87 -73 120 -91 33 -18 92 -43 130 -56 39 -12 86 -28 105 -36 19 -7 53 -18
75 -25 22 -7 45 -16 50 -20 6 -4 55 -8 110 -10 55 -1 163 2 240 6 77 4 148 12
158 17 11 5 38 11 62 13 27 1 50 10 64 24 11 11 29 21 40 21 10 0 30 9 44 20
14 11 32 20 41 20 9 0 38 11 64 24 26 13 59 26 75 30 15 3 27 10 27 15 0 6 35
29 78 52 42 23 95 59 117 79 22 20 66 51 98 70 31 19 57 38 57 42 0 5 28 21
63 37 34 16 69 37 77 48 9 10 42 47 74 83 32 36 77 90 100 120 23 30 64 88 91
128 28 41 53 79 57 85 3 7 18 41 32 77 14 36 33 97 41 135 9 39 24 112 35 163
11 52 20 128 20 169 0 42 -5 116 -12 164 -6 49 -9 91 -6 95 4 3 33 -12 65 -34
32 -22 90 -71 128 -109 39 -37 109 -97 155 -132 47 -35 102 -78 123 -95 20
-17 68 -57 105 -89 37 -31 88 -76 114 -99 25 -23 55 -46 65 -51 10 -6 38 -26
63 -46 25 -20 53 -43 63 -52 15 -14 18 -40 22 -190 3 -96 8 -408 11 -694 3
-286 6 -536 6 -555 0 -19 4 -69 9 -110 5 -41 11 -104 14 -140 3 -36 8 -105 12
-155 3 -49 6 -110 6 -135 -1 -42 -5 -48 -73 -112 -39 -37 -76 -68 -82 -68 -6
0 -45 -24 -87 -52 -42 -29 -154 -130 -249 -225 -95 -95 -179 -173 -187 -173
-8 0 -16 -17 -20 -41 -5 -27 -3 -50 6 -65 8 -16 21 -24 40 -24 20 0 35 10 57
41 17 22 93 107 170 187 110 115 155 155 209 184 37 21 83 50 101 65 19 16 50
42 70 59 21 17 58 45 83 62 36 24 48 39 53 65 4 19 2 47 -4 61 -5 15 -10 84
-10 152 0 69 -5 134 -10 144 -6 11 -12 61 -15 112 -2 51 -9 253 -15 448 -5
195 -12 499 -15 675 -3 176 -7 340 -11 365 l-6 45 32 -33 c18 -17 36 -32 40
-32 4 0 18 -10 32 -22 14 -13 65 -54 113 -93 48 -38 113 -89 144 -113 31 -24
63 -51 71 -60 8 -9 45 -41 81 -69 37 -29 71 -53 76 -53 4 0 29 -18 55 -41 26
-22 60 -50 77 -62 16 -12 58 -45 93 -74 35 -29 83 -70 108 -93 25 -22 72 -64
104 -93 32 -28 98 -91 146 -138 47 -48 104 -98 126 -112 21 -14 64 -49 93 -78
30 -30 69 -70 87 -89 l32 -35 -38 -145 c-20 -80 -51 -181 -67 -226 -17 -44
-37 -93 -45 -110 -9 -16 -28 -76 -43 -134 -15 -58 -31 -109 -36 -115 -5 -5 -9
-25 -9 -45 0 -30 5 -39 26 -49 15 -6 34 -9 44 -6 10 3 21 16 25 28 5 12 9 31
11 42 2 11 15 63 30 115 14 52 33 113 41 135 8 22 21 54 28 70 8 17 23 53 34
80 11 28 36 103 56 167 21 68 46 130 60 147 14 16 25 34 25 40 0 6 -11 16 -24
21 -13 5 -27 17 -30 28 -4 10 -18 24 -32 31 -15 6 -47 28 -73 48 -25 21 -59
49 -76 64 -16 15 -57 52 -90 82 -33 30 -92 84 -131 119 -38 34 -103 92 -143
128 -40 36 -103 92 -140 125 -37 33 -107 92 -155 130 -49 39 -96 75 -104 80
-9 6 -71 50 -137 100 -66 49 -163 125 -215 168 -52 43 -119 100 -149 125 -30
26 -71 58 -90 73 -20 14 -43 34 -51 44 -13 15 -15 83 -17 449 -2 237 -7 459
-12 494 -6 35 -8 69 -5 77 5 11 11 11 34 -3 16 -9 48 -30 72 -47 24 -16 64
-47 89 -67 25 -21 50 -38 56 -38 6 0 28 -12 49 -26 21 -15 55 -36 74 -47 19
-11 57 -31 83 -44 26 -13 70 -28 97 -34 27 -6 52 -15 56 -20 3 -5 12 -9 21 -9
8 0 37 -11 65 -25 27 -14 59 -25 69 -25 11 0 29 -5 41 -11 11 -6 39 -12 61
-14 23 -2 69 -7 102 -10 33 -3 93 0 133 6 40 6 85 17 100 25 15 7 37 14 50 14
12 0 30 4 40 9 9 5 42 15 72 21 30 7 75 24 100 37 25 13 61 34 80 45 19 12 64
41 100 64 36 23 87 61 115 85 27 24 61 56 75 70 14 14 42 46 62 70 21 24 55
62 76 85 21 23 43 43 49 45 5 2 29 32 52 65 22 34 48 67 56 74 8 7 15 17 15
22 0 5 20 41 45 79 24 38 47 80 51 93 3 14 12 27 20 30 8 3 19 18 25 33 6 16
22 69 36 118 13 50 31 111 39 137 8 26 14 57 14 69 0 12 7 30 15 39 10 11 18
58 25 156 5 77 7 178 4 224 -4 64 -13 101 -35 150 -16 36 -31 75 -33 86 -3 12
-11 42 -20 68 -9 25 -28 74 -42 109 -14 34 -42 88 -61 120 -19 32 -33 61 -29
64 3 3 45 7 93 10 48 2 160 5 247 8 88 2 183 9 210 14 28 6 86 10 129 10 42 1
107 5 144 11 37 6 260 12 502 14 l436 3 54 -51 c30 -28 90 -85 133 -126 42
-41 124 -118 180 -171 57 -53 121 -111 143 -130 22 -18 87 -77 145 -130 58
-53 121 -104 140 -114 19 -10 53 -37 75 -60 22 -24 77 -76 121 -116 45 -41
102 -90 128 -109 43 -32 46 -38 46 -80 0 -25 -5 -72 -11 -105 -6 -33 -15 -94
-19 -135 -5 -41 -18 -120 -29 -175 -11 -55 -26 -136 -34 -180 -8 -44 -18 -103
-21 -132 -5 -40 -3 -55 9 -67 9 -9 29 -16 44 -16 15 0 32 5 39 12 7 7 12 31
12 55 0 23 4 73 10 110 5 38 17 118 25 178 8 61 22 149 29 197 8 49 22 121 31
160 9 40 25 88 36 106 12 21 17 42 13 58 -4 17 -17 27 -45 34 -21 6 -41 15
-45 21 -3 6 -14 13 -24 17 -10 4 -72 57 -138 117 -65 61 -159 142 -208 182
-49 40 -131 107 -183 150 -52 43 -109 90 -127 104 -19 14 -73 62 -121 105 -48
43 -132 123 -187 176 -55 54 -98 100 -95 102 2 3 65 5 139 6 74 1 162 -2 195
-7 33 -5 110 -5 170 -1 61 4 187 8 280 9 94 1 200 2 237 2 l67 0 58 -54 c32
-30 73 -73 92 -97 18 -24 60 -71 92 -105 32 -33 59 -66 59 -72 0 -6 10 -21 23
-32 12 -11 31 -23 41 -27 13 -4 27 1 42 15 18 17 21 26 13 45 -5 14 -28 44
-51 68 -24 24 -59 63 -78 87 -19 24 -64 72 -98 108 -35 37 -73 83 -83 103
l-19 38 -103 1 c-56 0 -199 -1 -317 -3 -118 -1 -357 -3 -532 -3 l-316 0 -74
70 c-40 39 -113 106 -162 150 -49 44 -123 112 -165 151 -42 39 -114 102 -161
139 -47 38 -89 74 -95 81 -5 6 -41 38 -80 70 -38 33 -97 79 -130 103 -33 25
-61 48 -63 52 -2 4 -29 27 -60 50 -31 24 -84 68 -118 99 -33 30 -84 74 -112
98 -29 24 -52 46 -52 50 0 4 35 22 78 41 42 19 118 54 167 78 62 31 109 63
150 103 33 32 67 60 75 62 9 1 47 36 84 77 37 41 75 86 84 100 9 14 30 44 47
66 18 22 46 66 63 97 18 31 32 65 32 76 0 10 9 27 20 37 10 9 24 33 30 51 7
19 15 34 20 34 4 0 17 23 29 50 12 28 33 101 47 163 25 110 25 115 13 267 -11
143 -15 163 -52 255 -22 55 -51 114 -64 132 -14 18 -22 37 -18 42 3 6 -5 46
-19 90 -14 44 -47 114 -75 158 -28 44 -51 86 -51 94 0 8 -14 34 -31 59 -16 24
-33 47 -37 50 -5 3 -23 25 -40 50 -18 25 -58 68 -89 95 -31 28 -76 70 -100 95
-25 25 -68 61 -96 82 -29 20 -92 57 -140 82 -49 25 -93 46 -99 46 -5 0 -38 13
-72 29 -33 16 -92 37 -131 46 -38 9 -131 19 -205 22 -110 4 -156 1 -249 -16
-63 -12 -127 -21 -143 -21 -27 0 -26 2 65 135 50 74 101 150 112 169 11 18 61
82 110 141 50 59 110 134 134 167 l43 59 147 -6 c80 -3 214 -8 296 -12 83 -4
341 -6 575 -5 234 2 574 5 755 7 182 3 389 7 460 10 72 3 175 4 230 4 55 -1
123 -3 150 -5 28 -2 97 -4 154 -4 57 0 106 2 109 4 2 3 25 -12 51 -32 25 -20
64 -54 86 -74 22 -20 58 -49 80 -63 22 -15 42 -31 43 -36 2 -5 11 -9 19 -9 9
0 25 -9 37 -20 12 -10 37 -34 56 -53 19 -19 43 -46 53 -60 9 -14 23 -24 30
-21 7 2 21 18 30 34 17 28 17 30 -3 50 -11 11 -26 20 -34 20 -8 0 -16 3 -18 8
-1 4 -53 51 -114 104 -61 54 -139 128 -174 165 l-62 68 -307 1 c-168 0 -382
-3 -476 -7 -93 -4 -276 -10 -405 -13 -129 -4 -451 -6 -715 -5 -264 1 -500 3
-525 4 -25 2 -137 6 -250 10 -113 4 -207 9 -209 11 -3 2 7 17 21 32 14 15 37
46 52 69 14 23 34 47 44 52 11 6 44 41 74 78 29 37 65 86 78 108 13 22 47 65
74 96 28 30 61 76 74 101 12 25 29 48 37 51 7 3 34 40 58 82 25 41 68 101 96
133 28 31 80 93 115 137 36 44 79 98 96 120 17 22 48 66 69 98 21 32 49 70 62
85 13 15 36 44 52 64 15 21 27 40 27 42 0 3 11 17 25 32 13 14 37 47 52 73 14
25 46 70 70 99 24 30 55 70 68 91 13 20 40 54 59 75 20 22 36 44 36 49 0 5 15
27 33 49 17 21 50 60 73 86 22 26 66 81 97 122 30 41 70 90 87 109 l31 33 162
-7 c89 -4 173 -12 187 -17 14 -5 68 -8 120 -7 52 1 112 -1 132 -6 36 -7 37 -7
49 34 9 31 9 45 1 53 -6 6 -23 11 -39 11 -15 0 -93 -1 -173 -2 -119 -2 -170 2
-283 23 -76 14 -154 26 -173 26 -24 0 -34 -5 -34 -15 0 -8 -4 -15 -9 -15 -5 0
-17 -17 -26 -37 -10 -21 -41 -69 -69 -106 -28 -37 -89 -116 -136 -174 -47 -58
-105 -135 -130 -172 -25 -36 -68 -95 -96 -131 -27 -36 -70 -94 -94 -130 -24
-36 -62 -88 -85 -116 -22 -28 -58 -77 -80 -109 -22 -31 -80 -110 -130 -175
-49 -64 -126 -161 -170 -215 -44 -54 -96 -119 -115 -145 -19 -26 -63 -85 -97
-131 -34 -46 -86 -117 -115 -157 -29 -40 -78 -103 -108 -141 -30 -38 -80 -101
-110 -140 -30 -39 -75 -94 -100 -121 l-45 -50 -360 -4 c-198 -3 -398 -8 -445
-12 -82 -7 -85 -7 -70 12 8 10 27 32 42 49 14 16 48 60 75 97 26 37 61 89 78
115 16 26 49 90 73 143 24 52 48 111 54 130 5 19 14 40 19 46 6 7 16 59 24
115 8 57 20 135 27 172 9 52 9 87 0 150 -7 45 -14 91 -16 102 -2 11 -7 43 -11
70 -4 28 -12 61 -18 75 -5 14 -15 50 -23 80 -7 30 -17 71 -22 90 -5 19 -17 51
-26 70 -9 19 -24 49 -33 65 -9 17 -27 43 -40 58 -12 16 -23 35 -23 43 0 8 -7
17 -15 20 -8 4 -15 17 -15 31 0 13 -11 35 -24 48 -13 13 -31 34 -40 47 -9 12
-48 57 -87 100 -40 43 -77 78 -83 78 -6 0 -33 18 -61 40 -27 22 -55 40 -61 40
-5 0 -19 8 -30 18 -11 9 -33 26 -49 38 -17 11 -52 33 -78 47 -26 15 -54 27
-61 27 -7 0 -28 7 -47 16 -19 8 -41 19 -49 24 -8 6 -73 39 -144 75 -70 36
-138 65 -150 65 -12 0 -26 4 -31 8 -6 5 -28 14 -50 20 -22 6 -60 15 -85 21
-25 5 -58 13 -75 17 -16 4 -109 8 -205 10 -96 1 -220 -2 -274 -8 -72 -7 -113
-16 -149 -34 -31 -16 -53 -22 -59 -16 -5 5 -13 68 -18 138 -5 71 -13 185 -19
254 -6 69 -13 191 -17 272 l-6 147 69 73 c38 40 96 106 128 146 33 41 71 88
85 105 14 16 50 56 80 87 30 31 69 77 85 101 17 24 47 62 68 84 21 22 59 66
85 99 26 32 69 81 95 110 27 28 79 87 116 131 37 44 75 92 84 107 9 15 49 62
89 106 40 43 93 103 118 132 25 30 59 70 75 89 17 20 40 47 53 61 13 14 37 44
53 67 16 23 35 46 42 50 7 4 21 21 32 37 11 16 32 50 46 75 25 44 28 46 70 45
24 0 114 -6 199 -13 85 -7 171 -17 190 -22 19 -5 65 -9 102 -9 60 0 69 3 83
24 12 18 13 30 6 49 -6 15 -20 29 -33 31 -13 3 -97 10 -188 16 -91 6 -199 15
-240 21 -41 5 -94 15 -118 21 -42 11 -44 10 -78 -23 -18 -18 -34 -38 -34 -45
0 -6 -20 -34 -45 -62 -25 -27 -45 -53 -45 -58 0 -4 -6 -14 -14 -23 -8 -9 -32
-35 -53 -58 -21 -23 -43 -48 -49 -56 -6 -7 -31 -40 -55 -73 -24 -33 -55 -71
-67 -84 -13 -14 -49 -59 -80 -100 -31 -41 -77 -100 -104 -130 -26 -30 -90
-104 -140 -164 -51 -60 -119 -138 -150 -175 -32 -36 -88 -104 -125 -150 -38
-47 -90 -110 -118 -141 -27 -31 -79 -90 -115 -132 -36 -41 -94 -110 -129 -152
-35 -42 -65 -75 -68 -72 -2 2 -6 242 -8 533 -2 290 -5 611 -8 713 -2 102 -9
223 -15 270 -7 47 -17 168 -22 270 -6 102 -15 217 -20 255 -5 39 -6 105 -3
148 6 74 8 79 43 111 21 18 44 37 51 42 8 5 41 39 73 76 32 38 85 86 118 108
33 22 66 40 73 40 6 0 19 8 28 18 8 9 18 29 22 43 5 21 1 31 -25 53 -17 14
-36 26 -40 26 -5 0 -23 -13 -40 -30 -17 -16 -35 -30 -39 -30 -5 0 -67 -54
-137 -121 -71 -66 -147 -133 -169 -148 l-40 -27 1 -140 c1 -76 4 -179 7 -229
3 -49 13 -169 21 -265 9 -96 20 -209 25 -250 5 -41 10 -139 11 -217 0 -78 3
-153 5 -165 2 -13 6 -283 9 -602 l4 -578 -56 -62 c-31 -33 -100 -108 -153
-166 -54 -58 -124 -132 -156 -166 -32 -33 -83 -89 -113 -124 -30 -35 -95 -109
-143 -164 -48 -56 -91 -100 -95 -99 -4 1 -10 17 -15 35 -4 18 -10 70 -12 116
-3 46 -11 98 -19 115 -7 18 -16 50 -20 71 -4 22 -17 62 -29 90 -12 28 -55 116
-96 196 -40 80 -85 161 -100 180 -14 19 -57 68 -96 108 -38 41 -104 102 -145
136 -41 35 -88 66 -104 70 -15 4 -69 27 -120 52 -50 25 -138 63 -196 85 -57
22 -115 42 -130 44 -14 3 -44 9 -68 15 -23 5 -93 13 -155 17 -61 4 -152 7
-200 6 -54 -1 -103 -7 -128 -17 -22 -9 -58 -16 -80 -16 -23 0 -66 -7 -97 -15
-32 -9 -75 -21 -97 -27 -22 -6 -60 -17 -85 -25 -25 -8 -55 -21 -67 -29 -12 -8
-28 -14 -35 -14 -7 0 -24 -9 -38 -20 -14 -11 -32 -20 -41 -20 -9 0 -24 -9 -34
-20 -12 -13 -29 -20 -49 -18 -17 1 -47 -7 -66 -16 -19 -10 -49 -29 -67 -42
-17 -13 -35 -24 -40 -24 -4 0 -21 -13 -38 -29 -16 -16 -86 -85 -155 -153 -69
-68 -145 -147 -170 -177 -25 -29 -56 -77 -70 -105 -14 -28 -33 -76 -42 -106
-10 -30 -20 -67 -22 -81 -3 -14 -16 -41 -29 -60 -13 -19 -29 -57 -36 -84 -7
-28 -17 -75 -22 -105 -6 -30 -15 -122 -20 -205 -6 -82 -13 -182 -16 -221 -3
-49 0 -84 10 -115 9 -27 12 -48 6 -54 -6 -6 -27 8 -57 37 -26 25 -57 49 -69
52 -12 4 -51 31 -88 61 -37 30 -81 70 -99 88 -18 17 -75 66 -126 107 -51 41
-111 93 -134 115 -22 23 -66 59 -96 82 -31 22 -85 68 -120 102 -36 33 -88 78
-116 98 -49 37 -52 40 -58 97 -3 32 -6 116 -6 185 0 69 -5 144 -10 166 -5 22
-14 128 -19 235 -6 107 -13 265 -16 350 -3 85 -12 290 -20 455 -8 165 -22 415
-31 555 -9 140 -18 382 -20 538 l-4 282 24 38 c13 20 50 62 82 93 33 31 97 96
142 145 46 49 92 105 102 125 10 19 26 41 34 48 9 8 16 22 16 33 0 11 -5 29
-11 41 -7 12 -17 25 -23 29 -6 4 -16 8 -22 8z m2371 -2476 c113 -2 220 -10
265 -19 41 -9 101 -25 133 -36 33 -11 81 -31 108 -44 26 -14 53 -25 60 -25 6
0 43 -15 82 -34 40 -19 95 -50 124 -68 28 -18 84 -64 124 -103 39 -38 96 -99
125 -136 30 -36 65 -92 80 -125 14 -32 42 -90 61 -129 20 -38 45 -88 56 -110
11 -22 31 -83 44 -135 13 -52 30 -151 38 -220 8 -69 15 -130 15 -135 0 -6 -16
-29 -36 -50 -20 -22 -159 -166 -308 -320 -150 -154 -301 -311 -337 -350 -35
-38 -107 -115 -160 -170 -53 -55 -130 -137 -172 -182 -42 -45 -77 -85 -77 -90
0 -5 -33 -42 -73 -83 -40 -41 -91 -91 -113 -111 -21 -20 -50 -42 -63 -49 -13
-7 -42 -29 -65 -50 -25 -23 -55 -39 -77 -43 -20 -3 -66 -2 -103 3 -49 6 -74
15 -98 35 -18 15 -84 75 -147 134 -63 58 -175 164 -250 235 -75 71 -179 163
-231 205 -52 42 -97 79 -100 82 -3 4 -24 17 -47 29 -24 12 -43 25 -43 29 0 4
-24 23 -52 41 -29 19 -75 51 -103 73 -27 22 -71 62 -97 90 -32 35 -54 71 -72
121 -14 39 -30 95 -36 125 -5 29 -10 91 -10 137 0 46 5 118 10 161 6 43 15
114 21 158 5 44 23 125 40 180 17 55 44 136 60 180 17 44 40 94 52 110 13 17
29 42 37 58 7 15 45 58 83 95 38 37 90 87 116 112 26 25 65 61 87 81 21 19 62
51 89 70 28 19 70 44 95 56 25 12 64 27 88 34 23 7 42 16 42 20 0 5 18 18 40
29 21 11 48 20 59 20 11 0 86 20 168 44 81 24 177 51 213 59 50 12 109 14 255
11z m2116 -574 c5 0 9 -26 9 -57 0 -32 7 -146 15 -253 8 -107 20 -242 25 -300
6 -58 10 -115 10 -126 0 -16 -20 -33 -77 -67 -55 -32 -119 -86 -214 -179 -75
-73 -157 -163 -182 -199 -26 -37 -55 -84 -64 -105 -9 -22 -26 -66 -38 -99 -12
-33 -34 -93 -48 -132 -14 -40 -35 -119 -46 -175 -11 -58 -20 -149 -21 -208 0
-60 6 -142 16 -190 8 -47 19 -89 23 -95 4 -5 13 -37 20 -70 7 -33 37 -111 68
-173 30 -63 67 -128 82 -145 15 -18 45 -60 66 -95 22 -35 56 -84 75 -111 19
-26 60 -77 90 -112 30 -34 83 -94 118 -131 35 -38 60 -73 57 -78 -3 -6 -20
-10 -36 -10 -22 0 -43 13 -80 47 -28 26 -58 61 -66 78 -9 16 -30 46 -47 66
-17 20 -43 51 -58 70 -15 19 -46 61 -70 94 -24 33 -61 88 -82 122 -21 33 -49
71 -62 84 -13 12 -24 27 -24 33 0 6 -18 35 -40 64 -22 29 -40 57 -40 62 0 5
-24 33 -53 62 -29 29 -67 70 -85 90 -18 21 -37 48 -43 61 -5 12 -24 30 -41 40
-23 13 -34 15 -44 6 -8 -6 -14 -20 -14 -30 0 -10 6 -24 13 -31 8 -7 12 -20 9
-30 -2 -10 -1 -25 2 -34 5 -13 9 -14 21 -4 8 6 19 9 25 5 6 -4 22 -24 35 -46
14 -21 25 -43 25 -48 0 -5 -33 -15 -72 -22 -40 -7 -77 -16 -83 -20 -5 -4 -32
-10 -60 -14 -27 -5 -68 -15 -90 -23 -22 -8 -94 -21 -160 -28 -66 -6 -181 -19
-255 -27 -74 -9 -178 -19 -230 -23 -52 -4 -117 -7 -145 -7 -38 0 -64 7 -105
31 -31 17 -98 47 -149 66 -52 19 -98 39 -102 43 -4 4 -2 16 6 26 9 13 35 22
77 28 35 5 81 13 103 18 22 5 67 16 100 26 33 9 76 20 95 25 19 4 60 19 90 34
30 14 60 26 67 26 6 0 42 16 80 36 37 19 72 39 78 45 5 5 18 9 30 9 11 0 43
11 70 25 28 14 76 47 108 73 32 26 90 74 130 106 40 33 94 82 120 110 27 28
69 83 94 121 26 39 56 81 69 95 12 14 31 41 42 60 12 19 38 71 59 115 22 44
49 121 61 170 12 50 22 107 22 127 0 20 4 39 9 43 5 3 9 68 9 145 0 120 3 143
19 164 10 13 69 82 132 152 62 71 130 148 150 170 20 23 97 106 172 185 75 79
155 165 179 192 23 26 46 47 51 47z m-4692 -430 c6 0 41 -26 78 -57 38 -31 93
-78 123 -103 30 -25 93 -78 140 -118 47 -39 99 -84 116 -99 17 -15 49 -41 70
-58 22 -16 69 -57 105 -90 37 -33 86 -77 110 -97 23 -21 46 -38 50 -38 3 0 13
-7 20 -17 8 -9 36 -33 64 -54 27 -20 66 -51 85 -68 19 -17 38 -31 41 -31 4 0
12 -15 19 -32 7 -18 16 -42 21 -53 4 -11 15 -40 23 -65 8 -25 32 -79 53 -119
21 -41 54 -92 74 -115 19 -23 45 -57 56 -76 11 -19 31 -60 44 -90 14 -31 45
-76 74 -106 28 -28 80 -75 115 -105 36 -30 81 -66 100 -80 20 -15 84 -50 142
-78 59 -28 112 -51 118 -51 6 0 22 -7 35 -16 13 -9 50 -22 82 -29 32 -7 92
-21 133 -30 41 -9 92 -21 112 -27 21 -6 45 -19 53 -28 14 -15 13 -19 -4 -34
-11 -10 -30 -18 -43 -18 -13 0 -74 12 -137 26 -62 14 -125 32 -140 40 -14 8
-55 24 -91 36 -36 12 -79 23 -96 25 -17 1 -94 24 -170 50 -76 26 -153 56 -170
66 -17 10 -38 19 -46 19 -8 0 -47 16 -87 35 -39 19 -106 44 -149 56 -42 11
-82 25 -89 30 -6 6 -26 8 -43 5 -18 -2 -35 -8 -38 -11 -4 -4 -7 -28 -7 -53 0
-41 -7 -57 -51 -118 -28 -38 -55 -81 -59 -95 -4 -13 -13 -31 -20 -39 -7 -8
-27 -44 -45 -80 -18 -36 -52 -94 -75 -130 -24 -36 -69 -114 -100 -175 -32 -60
-69 -126 -84 -145 -14 -19 -32 -44 -39 -55 -7 -11 -20 -32 -30 -47 -9 -15 -28
-32 -42 -36 -14 -5 -41 -14 -61 -21 -19 -6 -47 -11 -61 -11 -14 0 -33 -9 -43
-20 -12 -13 -31 -20 -54 -20 -20 0 -52 -4 -70 -10 -19 -5 -37 -7 -40 -5 -2 3
7 18 20 33 14 15 37 45 51 67 14 23 46 83 71 135 24 52 54 131 66 175 12 44
27 139 35 210 8 72 12 171 10 220 -2 50 -8 115 -14 145 -6 30 -16 73 -22 94
-5 22 -15 51 -21 65 -5 14 -17 46 -26 71 -9 25 -42 88 -73 140 -31 52 -70 109
-87 125 -18 17 -38 41 -45 55 -7 14 -17 48 -21 75 -5 28 -9 248 -10 490 -1
242 -5 468 -10 503 -5 44 -4 62 4 62z m5266 -295 c66 -4 136 -11 156 -16 19
-5 68 -11 108 -14 40 -2 78 -8 85 -13 6 -5 49 -21 96 -37 47 -15 96 -33 110
-40 14 -7 60 -29 102 -49 42 -20 82 -36 89 -36 6 0 37 -14 68 -32 31 -17 63
-37 71 -43 8 -7 26 -16 40 -20 14 -4 34 -15 45 -25 11 -10 41 -33 67 -52 26
-18 70 -51 99 -72 28 -22 90 -86 138 -142 47 -57 97 -120 110 -141 13 -21 42
-69 63 -107 21 -38 38 -76 38 -84 0 -9 13 -55 29 -102 15 -47 35 -119 44 -160
9 -41 21 -115 28 -165 8 -69 8 -111 -1 -180 -6 -49 -15 -119 -19 -155 -4 -36
-15 -82 -24 -104 -9 -21 -17 -46 -17 -55 0 -9 -16 -48 -35 -85 -19 -38 -35
-74 -35 -81 0 -7 -7 -18 -14 -25 -8 -6 -22 -34 -32 -62 -10 -31 -36 -72 -65
-104 -27 -29 -57 -70 -68 -91 -11 -21 -40 -58 -65 -83 l-46 -45 -363 1 c-199
0 -501 4 -672 8 -170 5 -319 9 -330 9 -11 0 -31 -1 -45 -2 -14 -1 -38 1 -55 5
-16 3 -47 13 -67 22 l-38 16 7 65 c5 36 7 183 5 326 -1 143 -5 279 -7 303 -5
40 -4 42 15 30 11 -7 22 -20 25 -28 3 -8 32 -37 66 -65 33 -27 71 -64 85 -82
13 -18 66 -69 117 -114 50 -46 123 -117 161 -158 39 -42 76 -78 84 -79 7 -2
23 6 33 17 11 12 26 21 34 21 8 0 15 8 15 18 0 9 -27 48 -61 85 -33 37 -64 67
-69 67 -4 0 -36 26 -70 58 -33 31 -125 122 -203 202 -78 79 -152 154 -164 167
-12 12 -34 39 -50 60 -27 35 -28 41 -30 162 0 69 -4 270 -7 446 -4 176 -6 347
-6 380 0 33 -4 132 -10 220 -10 155 -9 161 10 175 11 8 48 25 83 38 34 12 95
26 135 31 41 5 77 12 80 16 4 4 61 4 127 0z m-1361 -154 c6 -13 5 -50 -3 -99
-6 -42 -17 -112 -25 -154 -8 -43 -24 -106 -36 -140 -12 -35 -34 -85 -48 -113
-15 -27 -30 -52 -33 -55 -3 -3 -18 -27 -33 -55 -16 -27 -38 -62 -49 -78 -12
-15 -47 -58 -78 -95 -31 -37 -82 -94 -115 -126 -32 -33 -89 -85 -127 -118 -37
-32 -75 -58 -83 -58 -9 0 -28 -6 -42 -14 -15 -8 -34 -17 -42 -20 -8 -3 -22
-10 -30 -15 -8 -6 -58 -28 -110 -51 -52 -23 -108 -48 -125 -56 -16 -7 -52 -18
-80 -24 -27 -5 -84 -20 -125 -34 -41 -14 -86 -25 -100 -25 -24 0 -23 1 15 36
22 20 87 82 145 138 58 56 132 132 165 169 33 37 85 93 115 124 31 32 71 77
90 102 18 25 97 109 174 187 78 78 205 209 282 290 78 81 175 183 215 226 68
72 74 77 83 58z m842 19 c7 0 14 -49 18 -147 4 -82 9 -368 12 -636 2 -268 6
-492 9 -497 3 -5 -3 -17 -15 -27 -11 -10 -20 -21 -20 -26 0 -5 6 -23 14 -40 8
-18 19 -70 24 -117 5 -47 7 -214 3 -377 -4 -160 -9 -295 -13 -298 -4 -4 -20 2
-37 14 -16 12 -31 31 -33 43 -2 13 -12 24 -25 28 -11 3 -56 43 -98 90 -41 47
-106 131 -143 188 -37 56 -91 140 -121 185 -30 45 -65 111 -78 147 -13 36 -38
119 -55 185 -28 104 -32 138 -34 255 -1 119 2 150 28 255 16 66 33 129 37 140
5 11 23 52 40 91 17 39 31 74 31 77 0 4 12 26 28 49 15 22 32 50 39 61 6 11
55 66 108 123 54 57 123 123 154 146 31 24 58 45 61 49 3 3 16 13 30 22 13 9
30 17 36 17z m-5634 -241 c31 -4 80 -12 110 -19 29 -7 71 -18 93 -25 22 -7 72
-28 110 -45 39 -18 101 -53 139 -79 38 -25 83 -55 100 -66 17 -11 61 -47 96
-80 36 -33 90 -85 121 -115 l56 -55 7 -105 c3 -58 6 -244 7 -415 1 -170 -2
-391 -6 -490 -3 -99 -13 -211 -20 -250 -7 -38 -13 -119 -14 -179 0 -101 -2
-112 -23 -133 -22 -22 -29 -22 -288 -28 -146 -3 -278 -8 -295 -10 -16 -2 -97
-7 -180 -10 -82 -3 -226 -5 -320 -5 -93 0 -233 2 -310 5 -77 3 -197 7 -266 9
l-125 4 -56 58 c-31 33 -74 82 -97 111 -25 32 -55 89 -75 145 -19 51 -42 120
-50 153 -8 33 -20 105 -26 159 -9 75 -9 128 0 220 6 67 13 132 16 146 2 14 15
77 28 140 13 63 31 133 40 155 10 22 28 70 41 107 13 37 38 93 55 125 17 31
50 80 72 108 23 27 98 106 167 174 99 97 140 130 191 154 36 17 67 34 71 39 3
4 45 21 95 37 49 17 118 35 154 40 36 6 101 11 145 12 44 0 103 4 130 7 28 4
76 4 107 1z m2061 -305 c6 -4 39 -28 72 -53 33 -24 68 -52 77 -60 10 -9 60
-50 113 -91 53 -41 145 -120 206 -175 60 -55 134 -120 163 -145 30 -25 59 -54
66 -65 7 -11 54 -58 106 -105 l94 -85 -38 -3 c-20 -1 -66 6 -102 17 -36 11
-83 26 -105 34 -22 9 -72 33 -111 54 -39 21 -102 61 -140 90 -38 28 -78 62
-89 75 -11 13 -39 47 -63 76 -24 30 -50 69 -57 86 -8 18 -21 38 -29 46 -9 7
-16 18 -16 25 0 7 -17 34 -39 61 -21 27 -46 63 -55 79 -9 17 -28 48 -41 70
-14 22 -25 48 -25 58 0 12 4 16 13 11z m-1134 -314 c3 0 20 -18 38 -39 17 -21
46 -68 63 -105 18 -37 38 -94 46 -126 7 -33 16 -72 19 -87 2 -15 9 -52 15 -82
5 -29 10 -92 10 -140 -1 -47 -5 -120 -11 -161 -5 -41 -13 -105 -17 -141 -4
-37 -12 -73 -18 -80 -6 -8 -19 -36 -29 -64 -10 -27 -38 -86 -62 -130 -24 -44
-52 -91 -63 -105 -10 -14 -21 -22 -25 -19 -3 3 -5 44 -6 90 0 46 2 113 4 149
2 36 9 117 15 181 6 67 8 238 6 410 -3 162 -2 329 2 372 3 42 9 77 13 77z
m1034 -410 c1 0 23 -7 48 -14 26 -8 55 -19 65 -24 11 -6 46 -21 79 -34 33 -14
96 -35 140 -48 44 -12 94 -29 111 -36 17 -8 58 -20 90 -28 32 -8 77 -20 99
-26 22 -6 90 -26 150 -45 61 -18 136 -40 167 -50 32 -9 60 -20 63 -24 2 -5
-13 -13 -34 -19 -21 -7 -55 -25 -75 -41 -20 -16 -51 -33 -69 -36 -18 -4 -41
-16 -52 -26 -12 -10 -48 -32 -80 -48 -33 -16 -78 -34 -100 -41 -22 -7 -44 -16
-50 -20 -5 -4 -55 -20 -110 -35 -55 -15 -110 -34 -122 -41 -12 -8 -27 -14 -32
-14 -5 0 -39 -13 -74 -30 -36 -16 -76 -30 -90 -30 -13 0 -37 -4 -53 -10 -16
-5 -56 -14 -89 -19 -33 -6 -117 -19 -188 -30 -70 -11 -153 -27 -185 -36 -31
-9 -74 -22 -95 -28 -20 -5 -40 -7 -43 -4 -4 3 4 23 17 44 13 21 39 58 58 83
18 25 48 74 66 110 18 36 49 96 69 133 20 37 47 84 61 105 14 20 25 42 25 48
0 6 16 29 35 51 19 23 35 45 35 50 0 4 15 31 34 58 18 28 55 74 81 103 26 28
48 52 48 52z m2926 -313 c7 -1 21 -15 30 -32 9 -16 32 -52 51 -80 19 -27 69
-95 112 -150 43 -55 98 -125 122 -155 24 -30 67 -88 96 -128 29 -40 50 -75 47
-78 -3 -3 -31 7 -64 21 -32 15 -76 29 -98 32 -22 2 -56 10 -75 18 -19 7 -71
23 -115 35 -44 12 -107 32 -140 44 -33 13 -107 35 -165 50 -58 15 -136 36
-175 46 -38 10 -101 27 -140 38 -38 11 -90 27 -113 36 -24 9 -61 25 -83 36
-21 11 -46 20 -56 20 -10 1 -41 9 -70 19 -28 9 -58 23 -65 29 -8 6 -41 18 -73
27 -32 8 -63 19 -69 25 -6 6 -4 11 5 14 8 3 100 12 204 21 105 8 233 22 285
30 52 8 116 14 141 15 26 0 62 7 82 15 19 8 86 19 148 26 63 6 125 15 139 20
14 4 31 7 39 6z m-1679 -81 c18 -1 26 -7 28 -25 2 -13 -2 -28 -10 -32 -7 -5
-23 -9 -35 -9 -12 0 -43 -7 -68 -15 -25 -9 -50 -13 -56 -10 -6 4 6 23 28 45
20 22 49 41 63 43 14 3 36 4 50 3z m140 -26 c6 0 10 -4 10 -10 0 -5 -4 -10
-10 -10 -5 0 -10 5 -10 10 0 6 5 10 10 10z m-416 -30 c14 0 9 -8 -20 -31 -22
-17 -52 -38 -67 -46 -16 -8 -42 -13 -60 -11 -29 3 -26 6 48 45 44 23 88 42 99
43z m517 -41 c4 0 12 -6 20 -15 7 -8 38 -32 68 -52 31 -19 106 -72 166 -117
61 -45 135 -98 165 -117 30 -20 96 -65 145 -101 50 -37 107 -80 128 -98 20
-17 37 -34 37 -39 0 -4 -71 -8 -157 -9 -87 -1 -183 -5 -213 -10 -30 -5 -148
-9 -262 -10 l-208 -1 0 27 c0 16 -3 134 -5 263 -3 129 -1 241 3 248 5 7 31 17
58 21 27 5 52 9 55 10z m232 -13 c12 -4 54 -15 92 -25 39 -11 99 -30 135 -44
36 -14 119 -50 185 -82 66 -31 206 -99 310 -151 105 -52 198 -94 207 -94 10 0
52 -16 95 -36 43 -20 100 -47 126 -59 26 -13 44 -26 39 -29 -4 -2 -119 -7
-254 -11 -243 -6 -246 -5 -283 17 -20 13 -75 56 -122 96 -47 40 -113 91 -147
114 -33 23 -70 50 -81 61 -11 10 -57 44 -102 75 -46 32 -114 79 -153 106 -38
27 -70 53 -70 59 0 5 10 6 23 3z m-470 -27 l27 1 1 -112 c1 -62 3 -172 5 -245
2 -72 5 -138 6 -145 2 -10 -17 -13 -82 -12 -47 0 -191 1 -320 2 -129 1 -284 5
-343 9 l-108 6 33 34 c18 19 56 49 83 68 28 18 68 53 91 77 23 23 71 68 108
98 38 30 96 79 129 108 44 37 71 52 92 53 16 0 80 13 140 29 61 15 122 28 138
29z m-515 -110 c7 1 -11 -20 -40 -46 -30 -27 -63 -56 -74 -65 -10 -9 -50 -46
-89 -81 -38 -35 -101 -90 -140 -122 -38 -32 -72 -62 -75 -66 -3 -4 -148 -7
-322 -7 -198 0 -316 4 -312 10 3 5 45 27 92 49 48 23 137 66 197 97 61 30 135
62 165 70 30 7 89 22 131 32 42 9 81 20 87 24 5 3 27 8 48 12 22 3 57 10 79
16 22 5 48 16 59 24 11 8 32 14 46 15 14 0 50 9 80 19 30 10 61 19 68 19z
m1647 -59 c5 0 68 -16 140 -36 71 -20 137 -39 145 -42 8 -3 44 -14 80 -24 36
-10 81 -22 100 -27 19 -4 62 -18 95 -31 33 -12 96 -36 140 -52 44 -16 118 -41
164 -57 80 -26 83 -28 52 -34 -19 -4 -72 -7 -120 -7 -83 0 -90 2 -176 46 -50
26 -120 57 -156 69 -36 13 -83 34 -105 47 -21 14 -41 25 -44 26 -3 0 -18 3
-35 7 -16 3 -46 10 -65 16 -19 6 -64 22 -100 37 -36 14 -78 34 -95 44 -16 10
-26 18 -20 18z m-2606 -171 c2 0 -4 -8 -14 -19 -10 -11 -24 -20 -32 -20 -7 0
-21 -8 -31 -18 -11 -11 -27 -21 -38 -25 -10 -3 -51 -19 -90 -35 -59 -25 -82
-29 -133 -27 -35 2 -65 6 -69 9 -3 3 1 17 8 31 10 18 22 25 44 25 17 1 56 7
86 15 30 7 73 19 95 26 22 7 69 17 105 24 36 7 67 13 69 14z m6386 -177 c77
-3 142 -6 144 -8 2 -2 -28 -45 -67 -96 -38 -51 -96 -127 -127 -168 -32 -41
-72 -93 -90 -115 -18 -22 -41 -56 -51 -75 -11 -19 -30 -51 -43 -70 -14 -19
-47 -62 -75 -95 -28 -33 -55 -63 -60 -67 -6 -3 -36 -11 -68 -17 -33 -6 -87
-24 -121 -41 -34 -18 -71 -40 -83 -51 -11 -10 -26 -19 -32 -19 -7 0 -39 -27
-72 -60 -33 -33 -64 -60 -68 -60 -5 0 -45 -40 -91 -89 -45 -50 -101 -120 -124
-158 -22 -37 -56 -104 -75 -148 -18 -44 -40 -105 -49 -135 -8 -30 -19 -71 -24
-90 -5 -19 -14 -69 -19 -110 -5 -41 -12 -86 -14 -99 -3 -13 -14 -30 -25 -37
-11 -8 -21 -27 -23 -42 l-3 -27 -23 25 c-13 14 -45 54 -70 89 -26 35 -51 72
-57 82 -5 11 -13 19 -17 19 -4 0 -19 21 -34 48 -15 26 -40 63 -56 83 -15 20
-28 41 -28 45 0 5 -16 29 -35 53 -19 24 -35 48 -35 54 0 5 -15 31 -34 57 -34
47 -34 49 -26 111 5 35 15 109 23 164 8 55 19 113 26 128 7 18 15 26 23 21 7
-4 20 -13 28 -20 8 -7 44 -27 80 -44 36 -18 72 -38 80 -45 8 -7 47 -29 85 -50
39 -20 74 -41 80 -46 5 -5 19 -9 30 -9 12 0 30 10 41 21 11 13 15 23 8 26 -6
2 -28 19 -49 38 -20 19 -44 35 -51 35 -8 0 -42 14 -76 32 -35 18 -72 40 -84
50 -11 10 -47 31 -79 48 -32 16 -64 30 -71 30 -7 0 -14 5 -16 12 -3 7 8 58 22
113 15 56 30 107 34 113 4 7 2 26 -6 42 -10 23 -19 30 -40 30 -19 0 -28 -5
-28 -16 0 -9 -14 -60 -31 -113 -17 -53 -33 -102 -35 -109 -2 -8 -24 1 -66 26
-35 22 -89 55 -121 76 -31 20 -81 49 -110 65 -28 15 -77 43 -107 62 -30 19
-85 56 -123 83 -37 26 -71 55 -76 65 -5 9 -12 39 -16 66 -5 28 -14 59 -21 70
-7 11 -21 64 -30 117 -10 54 -15 100 -12 103 3 4 21 -1 39 -9 19 -9 41 -20 49
-25 8 -5 26 -14 40 -20 14 -5 48 -24 75 -40 28 -17 100 -56 162 -87 61 -30
147 -64 190 -75 43 -10 112 -20 153 -20 41 -1 98 2 125 6 28 4 109 18 180 32
72 14 155 32 185 40 30 8 69 18 85 23 17 4 63 21 103 38 41 17 93 43 115 59
23 15 58 40 77 55 30 23 48 29 110 33 41 3 172 7 290 10 118 3 222 7 230 8 8
2 78 1 155 -1z m-2023 -24 c40 -4 134 -8 208 -8 74 0 185 1 245 1 61 1 214 0
340 -1 127 -1 254 1 283 5 37 5 52 4 52 -4 0 -6 -29 -25 -64 -41 -35 -17 -71
-30 -80 -30 -8 0 -17 -4 -20 -9 -3 -5 -56 -20 -118 -35 -62 -14 -169 -35 -237
-46 -68 -11 -157 -20 -198 -20 -40 0 -109 7 -151 15 -52 11 -116 35 -197 76
-66 33 -129 66 -140 75 -15 11 -17 17 -7 22 6 5 45 5 84 0z m-522 2 c6 0 10
-7 10 -16 0 -8 -4 -12 -10 -9 -5 3 -10 10 -10 16 0 5 5 9 10 9z m-150 -12 c40
2 48 -2 73 -32 l27 -35 -25 -27 c-14 -15 -25 -31 -25 -35 0 -5 -8 -9 -18 -9
-10 0 -43 14 -73 31 -30 17 -76 46 -103 64 l-49 34 74 4 c41 1 94 4 119 5z
m-4131 -8 c2 0 -2 -7 -9 -15 -7 -9 -15 -13 -19 -10 -3 3 1 10 9 15 8 6 17 10
19 10z m216 -6 c11 -3 163 -5 338 -5 174 0 317 -3 317 -7 0 -4 -26 -33 -57
-63 -32 -30 -80 -73 -108 -94 -27 -21 -77 -66 -111 -99 -33 -34 -109 -104
-168 -156 -59 -52 -119 -107 -132 -123 -20 -24 -27 -27 -39 -17 -8 7 -15 19
-15 26 0 8 -6 14 -13 14 -7 0 -43 30 -79 68 -36 37 -116 115 -178 175 -111
105 -113 108 -95 127 10 11 22 20 27 20 5 0 30 12 56 28 26 15 89 46 141 69
53 22 104 39 116 37z m-430 -6 c59 -1 85 -5 85 -13 0 -7 -17 -32 -38 -55 l-38
-43 -34 29 c-18 16 -41 38 -51 48 -10 10 -16 23 -13 27 2 4 43 7 89 7z m3911
0 c52 2 71 -2 120 -28 33 -17 69 -32 81 -34 12 -3 58 -23 102 -46 43 -23 87
-50 96 -60 17 -18 16 -21 -9 -50 -14 -18 -26 -37 -26 -44 0 -6 -20 -32 -45
-56 -25 -24 -45 -50 -45 -56 0 -7 -27 -40 -60 -75 -33 -34 -60 -71 -60 -81 0
-10 -4 -18 -9 -18 -4 0 -42 23 -82 50 -41 28 -91 62 -111 76 -21 13 -85 69
-143 124 -58 55 -109 100 -114 100 -5 0 -50 32 -100 70 -50 39 -95 79 -101 90
-9 17 -8 20 12 21 13 0 91 0 173 0 83 -1 175 3 205 7 30 4 83 9 116 10z
m-2454 -8 c139 0 341 -5 448 -10 107 -6 305 -11 440 -11 135 -1 340 2 455 7
116 4 230 8 255 8 25 0 74 -1 110 -2 58 -2 69 -6 105 -37 22 -19 64 -56 93
-82 29 -26 71 -60 93 -75 23 -15 62 -44 88 -64 25 -21 71 -61 101 -89 30 -29
93 -81 139 -116 46 -35 93 -71 105 -80 11 -8 37 -22 56 -29 19 -8 51 -28 72
-46 20 -18 47 -38 60 -45 12 -7 60 -41 106 -76 46 -34 87 -63 93 -63 5 0 26
-16 47 -35 21 -19 49 -39 63 -45 13 -5 53 -27 89 -48 l65 -38 0 -535 c0 -293
4 -565 8 -604 4 -38 10 -167 12 -285 3 -118 9 -413 13 -655 l9 -440 -67 -75
c-37 -41 -125 -139 -196 -218 -71 -79 -141 -160 -157 -180 -15 -20 -45 -62
-66 -92 -21 -30 -48 -64 -60 -74 -11 -11 -21 -25 -21 -31 0 -7 -26 -41 -58
-76 -32 -35 -68 -75 -79 -89 -12 -14 -50 -60 -85 -103 -34 -44 -78 -102 -96
-129 l-34 -51 -81 7 c-45 3 -169 9 -275 12 -106 3 -248 12 -315 19 -67 7 -167
16 -222 19 -55 3 -120 8 -145 12 -25 3 -54 7 -65 9 -11 2 -36 9 -55 14 -19 6
-58 11 -86 11 -28 0 -53 3 -57 6 -3 3 -32 7 -64 9 -32 2 -134 9 -228 14 -93 6
-326 10 -517 10 l-348 -2 -47 53 c-26 29 -60 68 -74 86 -14 18 -32 47 -39 64
-7 16 -16 30 -20 30 -5 0 -24 22 -43 48 -19 27 -79 98 -133 158 -54 60 -116
129 -139 154 -22 24 -67 73 -99 107 -33 35 -65 63 -73 63 -7 0 -13 4 -13 9 0
4 -28 35 -62 67 -35 33 -96 93 -138 134 -41 42 -115 109 -165 150 -49 41 -99
83 -110 93 -11 10 -59 50 -106 89 l-87 71 -5 211 c-3 116 -5 288 -5 381 0 94
-5 211 -11 260 -7 50 -18 167 -26 260 -8 94 -15 287 -15 429 l0 259 158 156
c87 86 194 185 239 219 45 35 89 74 98 88 8 13 21 24 29 24 7 0 55 45 106 100
50 55 96 100 102 100 5 0 55 42 111 92 56 51 122 113 147 138 25 25 79 74 120
110 41 36 80 70 86 75 6 6 39 35 74 65 35 30 80 72 101 93 l38 37 253 0z
m-3292 -17 c14 -1 155 -7 315 -14 164 -6 387 -9 515 -5 124 3 263 10 310 16
47 5 116 6 154 2 41 -4 71 -12 73 -19 3 -8 -32 -31 -89 -58 -51 -25 -98 -45
-103 -45 -6 0 -46 -14 -90 -30 -44 -17 -88 -35 -97 -40 -10 -6 -23 -10 -31
-10 -7 0 -30 -10 -52 -21 -22 -12 -76 -29 -120 -38 -54 -11 -133 -16 -245 -16
-163 0 -166 1 -255 34 -49 19 -105 39 -123 46 -19 7 -42 19 -53 29 -11 9 -24
16 -29 16 -5 0 -29 10 -52 22 -24 12 -59 34 -78 50 -19 15 -38 28 -43 28 -4 0
-22 10 -38 23 l-31 22 69 5 c37 3 79 4 93 3z m-496 -4 c123 0 187 -4 201 -12
11 -7 55 -38 97 -69 42 -32 80 -58 83 -58 4 0 19 -9 34 -19 15 -11 67 -40 117
-66 49 -25 132 -62 184 -81 52 -19 131 -41 175 -49 48 -8 125 -12 195 -9 66 2
151 12 200 24 47 11 119 29 160 40 41 11 86 26 100 34 14 7 68 28 119 46 52
18 147 60 210 92 64 33 123 65 131 72 8 7 21 16 28 20 10 6 12 0 6 -31 -4 -21
-15 -60 -25 -86 -11 -27 -16 -59 -13 -71 4 -19 -2 -29 -28 -49 -18 -14 -58
-38 -88 -55 -30 -16 -95 -51 -145 -77 -49 -27 -104 -59 -121 -72 -17 -12 -38
-23 -47 -23 -9 0 -18 -4 -21 -9 -3 -4 -27 -14 -53 -21 -27 -7 -70 -25 -98 -40
-27 -15 -72 -35 -100 -45 -27 -10 -59 -25 -70 -32 -11 -7 -23 -13 -26 -13 -4
0 -16 16 -28 35 -15 26 -27 35 -47 35 -25 0 -26 -1 -19 -52 3 -29 9 -60 11
-70 4 -12 -5 -19 -33 -28 -21 -7 -45 -18 -53 -25 -8 -7 -41 -21 -72 -30 -32
-9 -60 -21 -63 -26 -4 -5 -3 -18 0 -30 4 -11 17 -24 30 -29 18 -7 41 0 104 31
45 21 87 39 94 39 8 0 25 -50 45 -135 19 -74 40 -165 48 -202 8 -38 20 -90 25
-118 6 -27 15 -66 19 -85 5 -19 16 -62 24 -95 8 -33 21 -91 30 -128 8 -37 16
-88 17 -114 2 -35 -2 -49 -16 -59 -10 -7 -30 -40 -44 -71 -15 -32 -39 -80 -54
-108 -14 -27 -35 -60 -46 -73 -16 -19 -24 -21 -39 -13 -11 6 -30 27 -42 48
-12 21 -35 71 -51 113 -17 41 -44 102 -61 135 -17 33 -56 89 -87 125 -31 36
-85 97 -121 136 -36 40 -82 92 -102 117 -21 25 -38 49 -38 54 0 5 -23 33 -52
61 -28 28 -81 66 -117 85 -36 19 -106 48 -156 64 -49 17 -130 42 -180 56 -49
14 -119 31 -155 37 -36 7 -83 21 -105 31 -22 10 -79 53 -126 96 -47 43 -114
103 -150 134 -35 31 -84 73 -109 93 -25 20 -130 109 -235 198 -104 88 -197
168 -205 179 -8 10 -55 52 -105 93 -49 42 -94 76 -100 76 -5 0 -26 14 -45 30
l-35 30 255 1 c140 0 377 3 525 6 149 3 272 7 274 8 2 2 85 4 185 4z m6885 1
c5 0 12 -7 15 -16 3 -9 6 -18 6 -21 0 -3 -7 0 -15 7 -8 7 -15 16 -15 21 0 5 4
9 9 9z m-4734 -40 c3 0 11 -5 18 -10 7 -6 24 -19 40 -31 15 -11 27 -27 27 -34
0 -7 -15 -23 -34 -34 -18 -12 -41 -21 -50 -21 -11 0 -16 10 -18 33 0 17 0 41
1 52 0 11 3 26 6 33 2 6 7 12 10 12z m4664 -40 c8 0 30 -14 48 -32 19 -18 33
-42 33 -55 0 -13 -6 -23 -12 -23 -7 0 -34 10 -60 22 -26 13 -47 29 -48 36 0 7
6 21 12 32 7 11 19 20 27 20z m-87 -114 c7 -1 38 -16 69 -34 30 -17 68 -43 82
-56 27 -25 27 -25 27 -176 0 -83 -5 -206 -11 -273 -6 -67 -13 -124 -15 -126
-2 -2 -12 2 -21 10 -10 9 -29 21 -43 27 -14 7 -62 38 -106 70 -45 31 -118 83
-163 115 -44 32 -81 60 -81 62 0 3 9 21 21 42 12 21 33 53 48 71 14 19 35 49
46 67 11 18 46 71 77 118 31 47 63 84 70 83z m-4474 -17 c2 1 0 -9 -3 -20 -4
-12 -26 -50 -49 -84 -22 -35 -46 -71 -52 -81 -9 -15 -11 -15 -16 -3 -3 8 1 33
9 54 8 22 17 53 20 68 4 22 16 33 47 47 22 10 42 19 44 19z m99 -9 c9 0 39
-22 67 -50 28 -27 80 -79 116 -116 36 -36 95 -96 133 -132 37 -36 67 -73 67
-82 0 -9 -31 -45 -68 -81 -38 -35 -90 -82 -116 -104 -26 -22 -57 -48 -68 -57
-11 -10 -65 -59 -120 -110 -55 -51 -109 -99 -121 -107 -12 -7 -43 -34 -68 -58
-29 -28 -49 -41 -53 -34 -4 6 -5 19 -2 29 3 9 8 91 12 182 3 91 8 168 10 172
3 4 5 57 5 118 0 98 2 113 20 131 12 12 27 35 34 52 7 18 38 72 69 120 30 49
58 97 61 108 4 10 14 19 22 19z m4642 -130 c5 0 17 -24 25 -53 9 -30 25 -96
36 -148 11 -52 27 -116 35 -144 9 -27 27 -99 41 -160 14 -60 29 -128 34 -150
4 -22 7 -42 4 -44 -2 -2 -28 11 -59 30 -30 18 -55 37 -55 41 0 4 -23 24 -51
45 l-51 36 7 46 c4 25 9 78 12 116 2 39 6 122 8 185 2 63 4 134 4 158 1 23 5
42 10 42z m-5017 -28 c5 -5 3 -37 -5 -73 -8 -35 -22 -104 -31 -154 -8 -49 -18
-115 -22 -145 -5 -43 -19 -74 -64 -145 -31 -49 -59 -95 -61 -100 -2 -6 -29
-48 -60 -95 -31 -47 -73 -112 -94 -145 -21 -33 -42 -62 -45 -65 -4 -3 -17 -23
-29 -45 -12 -22 -37 -61 -56 -87 -19 -25 -50 -77 -69 -115 -21 -41 -37 -62
-40 -53 -3 8 -17 62 -31 120 -15 58 -36 150 -47 205 -11 55 -29 141 -40 190
-11 50 -30 122 -44 162 -13 39 -24 90 -24 112 0 37 3 42 38 57 20 10 49 27 63
38 14 12 59 38 100 58 41 20 130 64 199 97 69 33 173 87 232 118 58 32 110 61
114 66 4 4 12 3 16 -1z m78 -62 c6 0 10 -23 10 -50 0 -37 -6 -59 -22 -80 -12
-17 -25 -30 -30 -30 -4 0 -8 10 -8 23 0 12 9 40 20 62 11 22 20 47 20 57 0 10
5 18 10 18z m5068 -30 c4 0 17 -16 30 -35 12 -19 22 -37 22 -40 0 -3 28 -45
63 -93 34 -48 68 -97 75 -108 7 -10 25 -39 40 -62 15 -24 55 -87 89 -139 35
-53 71 -106 81 -117 10 -12 33 -45 51 -73 l33 -53 -12 -85 c-7 -47 -17 -88
-22 -91 -6 -4 -20 5 -32 18 -11 14 -38 35 -59 48 -20 12 -50 34 -66 48 -16 15
-50 45 -75 67 -26 22 -56 44 -66 49 -11 5 -24 25 -30 45 -5 20 -16 68 -24 106
-8 39 -19 95 -25 125 -6 30 -13 84 -16 118 -4 35 -11 76 -17 90 -6 15 -12 36
-14 47 -2 11 -10 38 -18 60 -8 22 -15 48 -16 58 0 9 3 17 8 17z m105 -17 c12
-3 29 -11 37 -18 8 -7 38 -25 65 -41 28 -15 56 -34 64 -41 7 -8 30 -22 51 -33
21 -11 42 -24 45 -30 4 -6 21 -17 38 -25 18 -9 48 -25 67 -38 20 -12 46 -30
59 -39 l24 -17 -23 -150 c-13 -83 -27 -156 -32 -163 -8 -11 -11 -10 -15 1 -3
8 -21 31 -39 51 -19 21 -34 44 -34 53 0 9 -4 18 -9 22 -5 3 -39 51 -76 106
-37 55 -73 115 -80 133 -8 18 -21 38 -29 46 -9 7 -16 18 -16 24 0 7 -16 28
-36 47 -20 18 -47 51 -60 71 -13 21 -24 40 -24 42 0 2 10 2 23 -1z m2156 -141
c20 -4 77 -6 126 -5 50 1 95 2 100 3 6 0 46 -6 90 -15 44 -9 99 -23 122 -30
24 -8 51 -19 60 -23 10 -5 32 -17 50 -26 17 -9 36 -16 42 -16 6 0 40 -20 77
-45 36 -25 67 -45 69 -45 2 0 28 -18 57 -40 29 -22 91 -79 137 -127 46 -49 89
-95 96 -103 7 -8 27 -44 45 -80 18 -36 45 -83 60 -105 15 -22 37 -63 49 -90
12 -28 29 -63 37 -78 8 -16 14 -36 14 -46 0 -9 4 -21 9 -26 5 -6 21 -46 36
-90 15 -44 33 -90 41 -102 8 -12 14 -29 14 -36 0 -8 6 -19 13 -25 8 -7 13 -40
14 -93 1 -45 7 -105 14 -133 6 -28 9 -76 6 -106 -3 -30 -10 -82 -16 -115 -5
-32 -16 -75 -24 -95 -9 -19 -21 -50 -28 -69 -7 -18 -22 -48 -34 -65 -12 -18
-30 -54 -40 -80 -10 -26 -41 -82 -69 -125 -28 -42 -82 -114 -120 -159 -38 -47
-97 -103 -135 -129 -36 -25 -70 -52 -76 -58 -5 -7 -24 -19 -42 -28 -17 -9 -37
-22 -45 -29 -7 -7 -52 -32 -98 -55 -47 -23 -113 -52 -147 -63 l-62 -21 -53 40
c-29 22 -111 86 -183 141 -71 55 -155 119 -185 141 -30 22 -77 58 -105 80 -27
22 -74 59 -104 82 -29 23 -63 49 -75 57 -11 8 -59 43 -106 77 -47 34 -102 77
-123 95 -21 18 -63 51 -92 73 -29 22 -124 106 -212 187 -87 81 -196 182 -242
226 l-83 79 -5 69 c-3 48 0 80 10 104 9 19 45 69 81 110 36 41 72 89 80 105 8
17 28 43 44 58 16 16 38 47 48 70 10 23 40 68 66 100 27 32 48 64 48 71 0 7
10 21 21 32 12 10 36 42 54 69 18 28 59 82 91 122 32 39 73 91 89 114 17 23
48 71 70 107 22 36 51 73 65 83 14 10 52 22 85 25 33 4 62 10 65 14 3 4 39 12
80 19 41 7 79 16 84 21 4 4 25 5 45 2z m-7311 -58 c1 -10 -2 -87 -8 -169 -7
-83 -11 -197 -11 -255 1 -98 0 -106 -23 -130 -14 -14 -49 -50 -78 -80 -29 -31
-61 -62 -70 -69 -15 -11 -17 -9 -16 21 0 18 4 38 8 43 5 6 18 69 29 140 12 72
24 141 26 155 3 14 12 58 20 99 7 40 21 88 29 106 9 18 22 37 29 43 7 6 24 35
38 64 17 36 25 46 27 32z m6804 -45 c4 1 9 -3 13 -8 3 -5 -24 -54 -61 -108
-36 -54 -82 -115 -101 -135 -20 -20 -45 -52 -57 -71 -12 -19 -40 -62 -63 -96
-23 -34 -60 -80 -82 -103 -23 -22 -41 -46 -41 -53 0 -7 -6 -17 -13 -23 -6 -6
-27 -39 -45 -74 -18 -35 -45 -79 -60 -99 -15 -21 -40 -55 -57 -78 -16 -22 -36
-40 -42 -41 -8 0 -13 14 -13 36 0 20 11 71 24 113 14 42 34 108 45 146 12 39
29 82 38 95 10 14 32 51 48 82 17 32 57 88 90 125 33 38 97 102 142 143 46 41
98 82 116 92 17 9 50 26 72 37 22 11 43 20 47 20z m-7018 -289 c1 0 3 -21 5
-47 1 -27 -5 -70 -14 -98 -8 -27 -29 -110 -45 -184 l-30 -134 -98 -100 c-53
-55 -124 -126 -156 -158 -33 -33 -65 -59 -73 -59 -8 0 -13 12 -13 34 0 23 22
77 63 158 35 68 86 159 115 203 28 44 65 98 82 121 16 23 30 45 30 50 0 6 20
38 45 72 25 34 45 64 45 66 0 3 9 21 21 40 12 20 22 36 23 36z m-2139 -17 c61
-2 120 -6 132 -9 13 -2 76 -45 140 -95 65 -50 133 -103 152 -117 18 -15 92
-80 163 -144 71 -65 146 -130 166 -145 20 -15 56 -43 78 -63 23 -19 84 -70
137 -114 53 -43 116 -99 140 -125 24 -25 71 -68 105 -96 34 -27 67 -63 73 -80
6 -16 20 -52 30 -79 10 -27 19 -57 19 -67 0 -10 -9 -23 -20 -29 -11 -6 -32
-30 -47 -53 -14 -23 -44 -61 -67 -85 -23 -24 -103 -107 -178 -183 -76 -76
-138 -143 -138 -149 0 -5 -4 -10 -9 -10 -5 0 -54 -50 -108 -112 -54 -62 -169
-183 -256 -270 -87 -87 -187 -193 -223 -235 -36 -43 -100 -113 -141 -155 -41
-42 -77 -78 -81 -80 -4 -2 -28 -27 -52 -57 -25 -29 -78 -80 -118 -112 -73 -59
-73 -59 -141 -59 -42 0 -111 11 -186 30 -65 17 -150 45 -189 62 -39 17 -93 47
-121 67 -27 19 -80 64 -116 99 -36 35 -79 72 -95 82 -16 10 -49 38 -74 62 -25
24 -66 71 -91 104 -26 32 -64 88 -86 124 -22 36 -55 97 -75 135 -19 39 -44 95
-55 125 -11 30 -25 71 -32 90 -7 19 -16 51 -21 70 -5 19 -11 55 -14 80 -4 25
-13 99 -21 165 -8 66 -17 134 -19 150 -2 17 0 78 5 137 5 72 15 128 32 175 14
37 39 104 57 148 17 44 40 98 52 120 12 22 46 76 76 120 31 44 96 120 146 168
50 48 130 114 177 146 48 32 97 62 110 66 13 4 53 22 89 40 36 17 92 44 125
59 33 14 83 31 111 36 29 5 81 19 115 31 35 11 102 24 149 28 47 4 135 6 195
4z m7239 7 c7 0 19 -7 26 -15 7 -8 18 -15 26 -15 7 0 18 -8 23 -17 5 -10 43
-40 85 -68 73 -48 76 -52 100 -120 14 -38 28 -86 31 -105 4 -19 17 -71 30
-115 13 -44 29 -111 36 -150 7 -38 18 -84 26 -102 7 -18 13 -48 13 -68 l0 -35
-162 6 c-131 5 -173 3 -212 -10 l-49 -15 7 77 c4 42 7 229 7 415 -1 278 2 337
13 337z m-6886 -56 c15 -3 70 -21 123 -39 53 -18 131 -51 174 -72 52 -25 97
-57 132 -92 29 -30 68 -74 86 -98 17 -25 69 -87 115 -138 46 -51 108 -124 138
-161 31 -38 61 -81 69 -95 8 -15 10 -31 5 -39 -6 -10 -23 1 -71 48 -34 34 -63
62 -66 62 -2 0 -41 30 -86 66 -45 36 -118 96 -161 132 -43 37 -95 83 -116 102
-20 19 -63 58 -95 85 -32 28 -67 56 -79 64 -12 8 -30 25 -41 36 -11 12 -38 35
-60 51 -22 16 -52 40 -67 53 -16 13 -28 28 -28 33 0 5 12 6 28 2z m7255 -215
c17 -13 59 -43 92 -67 33 -24 62 -47 65 -51 3 -4 20 -18 39 -30 30 -22 33 -27
27 -60 -3 -20 -10 -58 -16 -86 -6 -27 -13 -66 -15 -85 -2 -19 -8 -59 -13 -89
-5 -29 -16 -57 -23 -62 -8 -5 -22 -9 -32 -9 -10 0 -19 6 -21 13 -2 6 -11 38
-20 70 -10 32 -19 66 -21 75 -2 9 -11 46 -19 82 -8 36 -20 83 -26 105 -6 22
-15 58 -20 80 -5 22 -14 56 -20 75 -5 19 -10 41 -10 48 0 9 10 6 33 -9z m343
21 c1 0 19 -30 40 -67 20 -38 51 -88 69 -113 18 -25 42 -64 54 -87 12 -24 19
-43 15 -43 -3 0 -38 29 -77 64 -40 35 -85 75 -101 88 l-29 24 13 67 c8 37 15
67 16 67z m-5625 -99 c4 -9 9 -146 12 -306 3 -162 10 -322 17 -363 7 -40 10
-75 7 -79 -4 -3 -35 -6 -69 -5 -35 1 -112 5 -171 8 -94 6 -107 9 -102 23 4 9
11 41 16 71 5 30 14 100 19 155 5 55 14 136 20 181 5 45 16 97 25 117 8 19 41
62 73 94 32 33 79 73 103 89 37 25 45 28 50 15z m5593 -159 c6 -4 43 -33 81
-62 39 -30 72 -58 75 -61 3 -4 23 -21 45 -39 22 -17 61 -50 88 -73 26 -23 47
-44 47 -47 0 -3 -75 -6 -167 -8 -93 -2 -183 -5 -201 -8 -21 -2 -34 1 -38 9 -2
7 2 40 11 72 8 33 15 78 15 102 0 23 7 61 16 83 11 27 20 38 28 32z m-5902
-112 c4 -11 5 -26 3 -33 -3 -6 -14 -91 -25 -187 -11 -96 -24 -191 -28 -210
l-8 -35 -84 0 -84 0 -8 30 c-4 17 -12 55 -17 85 -5 30 -12 62 -16 71 -4 11 6
28 32 53 21 20 43 36 48 36 6 0 18 13 27 28 9 15 37 49 62 75 25 26 46 51 46
56 0 6 10 20 22 31 l22 21 8 -21z m-371 -200 c4 0 9 -6 12 -14 3 -8 -3 -22
-14 -32 -10 -9 -22 -15 -24 -12 -3 3 0 17 6 32 7 14 16 26 20 26z m5589 -37
c9 -8 38 -10 94 -6 45 3 138 2 207 -2 l125 -7 12 -86 c7 -48 17 -130 23 -182
9 -78 8 -117 -6 -225 -10 -71 -19 -137 -20 -146 -2 -8 -10 -45 -19 -82 -9 -37
-23 -95 -31 -129 -8 -35 -24 -115 -36 -178 -18 -94 -27 -120 -50 -145 -15 -16
-47 -55 -71 -86 -23 -31 -78 -98 -120 -148 l-78 -92 0 221 c0 122 -4 274 -10
338 -5 64 -12 248 -15 407 -3 160 -8 351 -11 425 -5 108 -4 133 6 123z m513
-16 c7 -2 11 -20 9 -43 -2 -21 -7 -43 -11 -47 -5 -5 -11 10 -15 33 -3 23 -4
46 0 51 3 6 11 8 17 6z m227 -4 c25 -2 107 -6 184 -8 76 -2 141 -6 143 -9 3
-2 -12 -28 -31 -56 -20 -29 -36 -61 -36 -71 0 -10 -37 -71 -82 -135 -46 -64
-93 -133 -105 -153 -12 -20 -25 -43 -29 -51 -4 -8 -28 -46 -53 -85 -25 -38
-48 -74 -51 -80 -3 -5 -17 -29 -33 -52 -15 -24 -31 -43 -36 -43 -4 0 -11 28
-15 62 -3 35 -11 88 -16 118 -5 30 -17 101 -26 157 -13 90 -13 105 0 125 8 14
19 75 26 150 l13 127 51 4 c28 2 71 2 96 0z m-6295 -87 c5 -1 16 -29 23 -61 7
-32 10 -60 8 -63 -3 -2 -37 -7 -77 -10 -61 -4 -71 -3 -68 11 2 8 27 40 54 71
28 30 54 54 60 52z m6845 -36 c6 0 13 -7 17 -15 3 -9 23 -25 45 -36 22 -11 74
-50 116 -87 42 -36 95 -83 117 -103 22 -20 67 -61 100 -91 33 -30 85 -73 115
-95 30 -22 71 -57 89 -77 19 -20 39 -36 44 -36 6 0 37 -24 71 -53 34 -29 75
-59 92 -66 18 -7 44 -26 60 -42 15 -16 32 -29 37 -29 6 0 15 -6 21 -14 6 -7
66 -58 134 -112 68 -55 143 -113 169 -131 25 -17 79 -58 121 -90 41 -32 88
-69 103 -81 16 -13 26 -29 23 -34 -5 -7 -52 -9 -143 -4 -75 4 -161 11 -191 15
-30 5 -100 25 -155 45 -55 19 -107 36 -115 36 -8 0 -66 25 -128 55 -63 30
-128 67 -145 81 -18 15 -84 74 -147 133 -63 58 -141 133 -172 166 -32 33 -71
85 -88 116 -16 31 -30 62 -30 68 0 7 5 9 11 5 7 -4 10 -1 7 7 -3 8 -13 14 -23
14 -10 0 -21 7 -26 15 -4 8 -19 40 -33 69 -14 30 -26 65 -26 77 0 12 -11 66
-25 119 -14 54 -32 107 -40 118 -8 12 -15 29 -15 39 0 10 5 18 10 18z m-100
-40 c5 0 18 -33 30 -72 11 -40 25 -89 30 -108 5 -19 16 -64 25 -100 9 -36 22
-81 31 -100 8 -19 22 -48 31 -65 9 -16 25 -48 36 -70 11 -22 25 -50 30 -63 6
-12 86 -95 179 -185 92 -89 195 -186 228 -215 33 -29 75 -59 93 -67 17 -7 71
-30 118 -49 47 -20 90 -36 95 -36 5 0 38 -11 74 -24 36 -14 108 -35 160 -47
66 -15 145 -24 260 -29 123 -5 176 -3 210 6 44 13 45 13 80 -19 19 -18 55 -50
79 -72 24 -22 55 -51 70 -65 14 -14 75 -64 136 -113 60 -48 119 -95 130 -105
11 -10 58 -47 105 -84 47 -36 102 -84 122 -106 20 -22 62 -59 95 -83 32 -24
90 -74 129 -111 38 -37 88 -81 110 -97 21 -15 86 -74 144 -129 58 -55 101
-104 97 -109 -5 -4 -156 -8 -335 -9 -180 0 -370 -3 -422 -7 -52 -4 -124 -11
-160 -17 -36 -5 -117 -12 -180 -15 -63 -3 -236 -10 -385 -16 l-270 -11 -25 29
c-14 16 -75 76 -136 134 -61 57 -123 114 -136 127 -14 12 -29 22 -32 22 -3 0
-37 20 -74 44 -38 24 -100 57 -138 74 -38 16 -100 42 -138 57 -66 27 -73 27
-268 27 -110 -1 -214 -5 -232 -11 -17 -5 -53 -12 -81 -16 -27 -4 -63 -9 -80
-11 -16 -1 -72 -17 -123 -33 -51 -17 -126 -49 -167 -71 -40 -23 -79 -47 -85
-55 -7 -8 -16 -15 -21 -15 -5 0 -53 -29 -107 -64 -54 -35 -147 -105 -207 -155
-61 -50 -118 -91 -127 -91 -10 0 -18 6 -18 13 0 6 5 30 11 51 6 22 15 72 19
110 5 39 13 105 20 146 8 50 19 85 35 105 13 17 50 56 82 87 32 31 122 113
200 182 79 69 147 126 153 126 6 0 15 -12 20 -26 6 -14 10 -47 10 -74 0 -42 4
-51 29 -69 16 -12 36 -21 44 -21 8 0 20 7 27 15 8 9 10 28 7 48 -4 17 -16 64
-26 102 -11 39 -21 78 -21 87 0 9 33 50 73 91 39 41 105 111 146 156 41 45 87
89 102 97 16 8 50 35 76 59 27 25 55 45 64 45 8 0 25 13 37 30 12 16 35 36 51
45 19 9 32 26 36 45 5 23 2 37 -11 51 -10 11 -26 19 -35 17 -10 -2 -59 -41
-111 -88 -51 -47 -130 -121 -176 -165 -45 -44 -99 -98 -120 -120 -20 -22 -61
-64 -89 -95 -44 -45 -55 -52 -63 -40 -5 8 -14 31 -19 50 -5 19 -14 100 -20
180 -7 79 -17 153 -23 163 -5 11 -8 31 -5 46 3 14 11 43 19 63 8 20 25 48 39
62 13 13 34 38 46 54 12 16 32 53 43 83 12 30 38 86 59 124 21 39 42 81 46 95
4 14 13 32 20 40 7 8 34 56 60 105 27 50 52 97 56 105 4 8 17 34 28 58 12 23
21 49 21 58 0 8 9 25 20 37 12 12 23 32 26 44 4 13 10 23 14 23z m-170 -110
c6 0 10 -9 10 -19 0 -11 -4 -22 -9 -25 -5 -3 -23 -31 -40 -61 -17 -30 -31 -66
-31 -79 0 -13 -4 -26 -8 -28 -4 -1 -18 -17 -30 -35 -12 -17 -22 -36 -22 -42 0
-6 -16 -34 -35 -62 -19 -28 -35 -56 -35 -61 0 -5 -9 -21 -19 -34 -11 -14 -30
-59 -42 -100 -13 -43 -30 -79 -39 -84 -10 -5 -21 -22 -24 -36 -4 -15 -13 -36
-20 -46 -12 -17 -14 -15 -24 24 -6 24 -13 60 -16 80 -4 33 2 48 55 125 33 48
71 106 85 128 14 22 39 59 55 82 16 23 29 44 29 48 0 3 14 27 32 53 18 26 36
52 40 57 4 6 18 24 31 40 13 17 29 40 36 53 6 12 16 22 21 22z m-6170 -17 c8
-3 71 -7 140 -10 69 -3 130 -10 136 -14 6 -5 15 -60 20 -122 4 -61 7 -229 6
-372 -1 -143 -2 -266 -2 -273 0 -9 -9 -7 -30 8 -16 11 -42 33 -57 48 -15 15
-62 58 -103 96 -41 38 -115 108 -163 155 l-89 86 5 50 c3 28 15 93 26 145 12
52 21 107 21 122 0 15 5 38 11 52 7 15 22 27 38 29 14 2 33 2 41 0z m-394 -14
c40 1 42 -1 58 -43 9 -24 21 -59 27 -77 5 -19 14 -54 19 -79 l8 -45 -36 41
c-21 22 -63 71 -94 108 -32 37 -58 71 -58 76 0 5 8 11 18 13 9 3 36 5 58 6z
m188 1 l56 0 0 -40 c0 -21 -4 -61 -9 -87 -5 -26 -12 -65 -16 -85 -3 -21 -10
-38 -14 -38 -5 0 -12 8 -16 18 -4 9 -16 53 -27 97 -11 44 -22 92 -25 108 -5
27 -5 27 51 27z m-553 -112 c5 -8 -4 -59 -22 -124 -17 -60 -44 -143 -61 -184
-17 -41 -41 -97 -53 -125 -12 -27 -45 -95 -71 -149 -27 -55 -59 -119 -72 -144
-13 -24 -39 -65 -57 -90 -19 -25 -35 -49 -35 -54 0 -6 -20 -33 -44 -61 -24
-29 -72 -74 -106 -102 -34 -27 -83 -67 -109 -87 -25 -21 -59 -48 -76 -61 -16
-13 -56 -38 -87 -56 -32 -18 -58 -37 -58 -42 0 -5 -7 -9 -16 -9 -9 0 -31 -8
-48 -19 -17 -10 -58 -28 -91 -41 -33 -12 -69 -26 -80 -31 -11 -4 -40 -14 -65
-22 -25 -8 -82 -18 -127 -21 -46 -4 -83 -6 -83 -4 0 3 35 40 78 84 42 43 140
145 217 226 77 81 209 219 294 307 84 88 162 172 171 186 10 15 46 57 81 94
35 37 107 114 159 171 52 57 109 117 126 134 17 17 66 66 110 108 43 43 88 89
98 104 15 21 20 24 27 12z m134 2 c7 -6 20 -32 30 -58 10 -26 32 -76 51 -112
18 -36 40 -81 49 -100 8 -19 31 -62 50 -95 19 -33 39 -69 44 -81 5 -11 23 -41
41 -68 18 -26 43 -67 56 -92 13 -25 24 -51 24 -59 0 -8 6 -18 14 -22 12 -7 12
-16 0 -63 -8 -30 -19 -93 -24 -140 -6 -47 -17 -150 -25 -230 -9 -80 -20 -188
-26 -240 -5 -52 -11 -105 -13 -118 -2 -13 -8 -28 -14 -34 -6 -6 -24 -1 -53 18
-24 15 -62 42 -85 61 -23 18 -45 33 -50 33 -5 0 -27 13 -49 28 -22 15 -65 45
-95 67 -31 22 -65 46 -77 52 -12 7 -29 10 -38 7 -9 -4 -20 -14 -25 -24 -8 -14
-4 -22 16 -34 13 -9 22 -21 19 -26 -4 -6 0 -10 7 -10 7 0 45 -21 85 -48 39
-26 97 -63 129 -82 31 -19 84 -52 118 -72 34 -20 84 -48 111 -62 28 -14 57
-30 65 -35 8 -6 45 -29 83 -51 37 -22 71 -40 75 -41 4 0 27 -16 52 -35 25 -19
59 -40 75 -47 17 -7 61 -28 100 -47 38 -19 72 -42 75 -50 4 -8 12 -25 18 -37
7 -13 12 -39 12 -58 0 -20 7 -52 15 -72 8 -19 15 -37 15 -40 0 -2 -10 -1 -22
3 -13 3 -48 23 -78 44 -30 20 -73 43 -95 50 -22 7 -62 24 -90 36 -27 13 -63
24 -80 24 -16 0 -52 7 -80 15 -27 9 -79 20 -115 26 -36 6 -169 11 -297 10
-199 0 -242 -3 -305 -20 -40 -11 -102 -30 -138 -41 -36 -12 -74 -26 -85 -32
-11 -6 -49 -26 -85 -44 -39 -20 -93 -60 -135 -101 l-70 -68 -480 1 c-264 0
-589 1 -722 2 -134 1 -243 4 -243 7 0 3 80 85 178 182 97 98 244 248 325 334
l149 156 76 8 c42 4 91 9 107 11 17 1 55 7 85 13 30 5 76 14 101 20 25 5 58
15 75 22 16 6 43 17 59 24 17 7 46 18 65 25 19 8 80 44 135 80 55 36 125 86
156 110 31 25 85 68 120 97 35 28 91 80 124 115 33 35 83 97 111 138 28 41 72
118 98 170 26 52 52 102 56 110 5 8 21 40 35 70 15 30 29 67 32 83 3 15 9 27
13 27 3 0 11 15 17 33 6 17 23 64 38 102 15 39 38 99 51 135 13 36 24 73 24
82 0 9 5 28 12 42 8 19 15 23 23 16z m178 -81 c50 -52 109 -115 129 -140 21
-25 49 -51 63 -59 14 -8 28 -24 31 -37 4 -12 1 -62 -6 -110 -6 -49 -14 -99
-16 -112 l-5 -25 -24 30 c-13 16 -24 33 -25 37 0 5 -22 45 -49 91 -27 45 -52
93 -56 107 -4 13 -24 56 -45 96 -21 40 -50 101 -64 137 -14 35 -26 68 -26 72
0 4 42 -35 93 -87z m6108 -109 c3 0 14 -50 23 -111 14 -92 15 -114 4 -128 -7
-10 -37 -51 -67 -90 -29 -40 -55 -70 -58 -67 -2 2 2 26 10 53 9 26 23 77 31
113 9 36 24 102 34 147 9 46 20 83 23 83z m-5758 -250 c6 0 42 -30 81 -66 39
-37 105 -99 146 -138 41 -39 99 -92 128 -117 l52 -45 1 -220 c0 -120 0 -248
-1 -284 -1 -36 -4 -90 -8 -120 -4 -30 -11 -55 -16 -55 -5 0 -40 52 -78 115
-39 63 -83 139 -100 168 -16 30 -34 81 -39 115 -5 34 -22 100 -36 147 -14 47
-27 92 -29 100 -1 8 -14 56 -28 105 -14 50 -35 113 -46 140 -11 28 -24 74 -29
103 -5 34 -5 52 2 52z m-69 -80 c2 0 13 -28 24 -62 11 -35 29 -97 40 -138 12
-41 24 -93 27 -115 l7 -40 -26 30 c-14 17 -25 33 -26 37 0 3 -16 35 -36 70
-33 58 -35 67 -29 118 4 30 8 64 10 75 1 11 3 21 4 23 0 1 3 2 5 2z m5888 -12
c4 -7 8 -24 8 -38 0 -14 7 -38 15 -54 12 -22 13 -37 6 -64 -6 -19 -16 -42 -24
-51 -7 -9 -25 -44 -40 -77 -15 -34 -27 -68 -27 -76 0 -8 -9 -23 -20 -33 -11
-10 -20 -28 -20 -39 0 -12 -7 -34 -15 -50 -8 -15 -15 -34 -15 -42 0 -7 -9 -18
-19 -23 -10 -6 -27 -35 -36 -64 -9 -30 -27 -67 -41 -83 l-23 -29 -1 30 c0 17
7 58 16 90 9 33 22 103 29 155 7 52 19 129 26 170 9 51 22 89 43 120 16 25 52
73 80 108 35 43 52 58 58 50z m-5916 -269 c8 -6 14 -16 14 -22 0 -6 9 -20 19
-31 10 -12 31 -43 45 -71 15 -27 32 -59 39 -70 7 -10 29 -47 50 -81 20 -34 44
-83 52 -110 8 -27 15 -60 15 -73 0 -13 7 -44 15 -70 8 -25 23 -93 34 -151 11
-58 31 -158 46 -224 14 -65 24 -120 23 -122 -2 -1 -43 18 -93 42 -49 25 -108
58 -130 74 -22 16 -55 31 -72 35 -18 3 -36 11 -40 18 -5 7 -28 29 -52 48 -24
18 -47 43 -51 54 -4 11 -3 28 2 38 5 11 12 33 14 50 2 18 9 70 14 116 6 46 15
176 20 290 5 113 12 221 16 239 5 26 9 30 20 21z m5653 -55 c2 -2 -1 -43 -8
-91 -7 -49 -24 -142 -38 -208 -13 -66 -31 -163 -40 -215 -8 -52 -18 -116 -22
-142 -5 -31 -20 -63 -44 -94 -20 -26 -37 -55 -37 -64 0 -9 -7 -25 -15 -36 -8
-10 -15 -14 -15 -9 0 6 -3 26 -5 45 -2 19 -13 109 -24 200 -11 91 -23 193 -26
227 -6 59 -4 63 27 100 18 21 59 67 93 103 33 36 80 93 105 127 25 33 47 59
49 57z m336 -15 c7 -13 17 -101 23 -196 l11 -172 -60 -58 c-33 -32 -77 -69
-98 -83 -20 -14 -68 -55 -106 -91 -39 -36 -89 -83 -112 -104 -24 -20 -43 -33
-43 -27 0 6 15 42 34 79 19 37 41 85 50 107 9 21 16 51 16 66 0 15 9 35 20 45
11 10 29 36 40 59 11 23 20 45 20 48 0 3 16 35 36 70 20 34 54 99 77 143 22
44 49 93 60 109 l20 28 12 -23z m-5402 -9 c6 0 30 -17 52 -38 22 -21 48 -43
58 -48 9 -6 58 -48 108 -95 51 -46 99 -88 108 -93 9 -6 34 -26 56 -45 22 -20
91 -85 153 -145 61 -61 112 -114 112 -118 0 -4 -47 -57 -105 -117 -58 -59
-105 -111 -105 -114 0 -3 -33 -39 -73 -79 -41 -40 -88 -90 -105 -112 -20 -26
-36 -37 -46 -33 -9 4 -28 25 -43 47 -16 23 -49 67 -74 98 -25 31 -65 85 -88
118 l-43 62 10 128 c5 71 9 145 9 164 0 19 0 122 1 228 2 146 5 192 15 192z
m4719 -388 c3 -4 11 -68 17 -142 7 -74 16 -180 21 -235 5 -55 9 -122 9 -150
-1 -49 -2 -51 -75 -115 -41 -36 -83 -74 -94 -84 -17 -17 -23 -18 -45 -6 -14 7
-42 32 -64 54 -21 23 -73 74 -115 115 l-77 74 36 54 c19 29 57 77 83 107 26
29 103 117 172 194 69 78 128 138 132 134z m354 5 c3 -3 4 -12 1 -19 -3 -8 -6
-5 -6 6 -1 11 2 17 5 13z m-5317 -117 c4 0 14 -12 22 -27 8 -16 22 -37 32 -47
9 -11 22 -35 29 -53 7 -18 15 -33 19 -33 3 0 12 -19 18 -42 6 -24 13 -105 15
-181 2 -86 0 -137 -6 -135 -6 2 -17 22 -25 43 -8 22 -20 67 -28 100 -7 33 -22
87 -34 121 -11 34 -25 81 -31 105 -6 24 -15 62 -20 83 -4 22 -6 46 -3 53 3 7
8 13 12 13z m1021 -216 c41 -44 120 -131 175 -194 56 -63 118 -140 140 -170
21 -30 58 -78 82 -106 l43 -52 -37 -4 c-20 -2 -129 -5 -242 -6 -166 -2 -234
-7 -352 -27 -81 -14 -157 -25 -169 -25 -13 0 -38 17 -61 43 -21 23 -48 61 -60
84 l-22 42 40 50 c23 28 65 78 94 111 30 34 104 113 164 176 61 63 114 125
120 136 8 19 15 14 85 -58z m-812 -94 c6 0 13 -12 17 -27 3 -16 29 -54 58 -85
29 -32 69 -84 90 -117 20 -33 37 -65 37 -70 0 -5 -12 -16 -26 -26 -25 -16 -27
-16 -92 22 l-67 38 -8 55 c-4 30 -10 90 -13 133 -4 50 -2 77 4 77z m6172 -15
c74 -2 174 -10 222 -18 70 -12 114 -28 215 -78 71 -35 147 -80 170 -101 24
-21 48 -38 55 -38 7 0 57 -46 111 -101 53 -56 95 -105 91 -108 -3 -3 -42 -9
-87 -13 -45 -4 -125 -10 -177 -13 -52 -3 -113 -7 -135 -10 -22 -2 -96 -9 -165
-15 -69 -6 -190 -11 -270 -11 -80 0 -212 -1 -295 -4 -82 -2 -202 -7 -265 -11
-63 -3 -191 -7 -285 -9 -93 -2 -198 -6 -232 -10 -56 -5 -63 -4 -63 12 0 10 39
51 88 93 48 41 94 81 102 88 8 8 65 45 125 84 61 39 140 91 177 116 37 24 82
48 100 52 18 5 56 17 83 27 28 11 75 24 105 31 30 6 87 18 125 26 45 9 119 13
205 11z m-1888 -126 c4 1 62 -53 129 -119 66 -66 119 -124 117 -129 -1 -6 -47
-51 -101 -101 -55 -49 -102 -90 -105 -90 -4 -1 -94 -2 -199 -4 -146 -2 -193 0
-193 9 0 7 17 32 38 56 21 24 52 65 69 90 17 25 39 52 49 60 9 8 30 32 46 54
16 22 55 70 86 107 31 37 60 67 64 67z m646 -26 c2 -12 -5 -34 -15 -49 -14
-22 -19 -24 -21 -12 -2 9 5 32 15 50 16 30 18 31 21 11z m-191 -133 c2 0 3 -3
3 -7 0 -5 -9 -23 -21 -42 -15 -25 -23 -31 -32 -22 -8 8 -3 19 18 41 16 16 30
30 32 30z m-5779 -11 c123 1 235 -3 327 -14 77 -9 171 -25 208 -35 37 -11 82
-26 99 -34 17 -9 35 -16 40 -16 4 0 46 -25 93 -55 47 -30 85 -56 85 -58 0 -2
-33 -6 -72 -8 -40 -2 -230 -4 -423 -3 -192 0 -493 2 -667 5 -175 2 -318 7
-318 11 0 3 13 19 28 35 16 15 42 35 58 43 16 8 37 20 46 28 12 10 28 12 52 8
29 -6 35 -4 30 8 -3 8 3 19 15 25 11 6 63 22 116 34 80 20 128 24 283 26z
m1060 -19 c4 0 27 -14 50 -31 23 -17 42 -34 42 -38 0 -3 -14 -22 -32 -41 l-32
-35 -7 33 c-4 19 -12 39 -18 45 -6 6 -11 24 -11 39 0 15 4 28 8 28z m4794 -46
c4 -3 8 -25 8 -49 0 -24 -4 -46 -9 -49 -4 -3 -16 3 -25 13 -16 17 -16 21 0 54
10 20 21 34 26 31z m-4592 -71 c10 -3 26 -13 36 -24 13 -15 14 -19 3 -23 -8
-2 -34 -9 -57 -16 -24 -6 -46 -9 -49 -6 -3 2 7 20 21 39 19 24 33 33 46 30z
m4386 7 c12 0 27 -6 33 -14 9 -10 5 -26 -15 -67 -15 -30 -28 -56 -30 -57 -1
-2 -40 -6 -85 -9 l-83 -5 44 49 c24 26 60 60 80 75 19 15 45 28 56 28z m-3363
-90 l104 -5 29 -35 c16 -19 63 -69 106 -111 42 -41 113 -102 158 -135 45 -32
100 -74 122 -91 22 -18 44 -33 49 -33 5 0 9 -5 9 -11 0 -8 -17 -10 -56 -5 -32
4 -87 13 -123 21 -36 9 -85 20 -109 25 -23 6 -53 10 -67 10 -13 0 -27 5 -30
10 -3 6 -23 10 -44 10 -20 0 -41 4 -46 9 -6 5 -28 11 -50 14 -22 3 -74 13
-115 22 -41 9 -99 20 -128 25 -33 6 -67 20 -90 38 -20 16 -55 38 -77 49 -22
12 -56 26 -75 33 -19 7 -49 17 -65 24 -17 6 -43 21 -58 33 -16 12 -44 27 -63
33 -19 6 -34 18 -34 26 0 8 6 14 13 14 7 0 48 4 92 10 44 5 161 12 260 15 99
4 181 7 182 8 1 1 48 0 106 -3z m489 8 c145 2 363 -2 483 -8 121 -7 238 -15
260 -19 37 -6 41 -10 48 -46 5 -22 15 -53 23 -68 8 -16 14 -47 14 -70 0 -23 7
-84 15 -136 9 -52 22 -108 30 -125 8 -17 15 -47 17 -66 3 -33 1 -35 -27 -34
-16 0 -62 4 -102 7 -40 3 -101 11 -135 17 -35 6 -101 18 -148 26 -47 8 -107
20 -135 26 -27 7 -65 25 -83 40 -19 16 -52 41 -74 56 -23 15 -49 32 -59 37 -9
6 -37 28 -61 48 -23 20 -71 58 -105 85 -34 26 -92 74 -130 107 -38 33 -77 70
-87 83 -9 12 -15 26 -12 30 2 4 123 9 268 10z m2995 -8 c4 0 17 -10 30 -22 13
-12 23 -25 23 -30 0 -4 -15 -8 -34 -8 -19 0 -36 6 -39 13 -2 6 0 20 5 30 5 9
12 17 15 17z m2345 -2 c45 2 47 1 82 -53 20 -30 53 -90 72 -132 20 -43 40 -87
45 -98 4 -11 18 -45 30 -75 11 -30 30 -100 40 -155 11 -55 21 -104 22 -110 1
-5 -2 -59 -7 -120 -4 -60 -17 -150 -28 -200 -11 -49 -24 -99 -29 -110 -4 -11
-16 -45 -25 -75 -10 -30 -26 -70 -36 -88 -10 -18 -18 -38 -18 -45 0 -7 -14
-39 -30 -72 -17 -33 -41 -78 -55 -100 -13 -22 -27 -48 -31 -57 -3 -10 -9 -18
-13 -18 -4 0 -27 -27 -51 -61 -25 -34 -108 -124 -185 -202 -77 -77 -154 -153
-171 -169 -17 -15 -35 -28 -40 -28 -5 0 -34 -20 -64 -45 -30 -25 -64 -48 -75
-51 -11 -4 -27 -12 -35 -18 -8 -7 -40 -21 -70 -32 -30 -12 -71 -27 -90 -34
-19 -7 -51 -15 -70 -17 -19 -3 -41 -10 -48 -16 -7 -5 -55 -12 -106 -15 -52 -2
-129 1 -172 7 -44 6 -124 28 -179 47 -55 20 -131 48 -170 61 -38 14 -128 61
-200 105 -71 43 -161 104 -199 134 -38 30 -74 54 -80 55 -6 0 -24 16 -39 34
-17 21 -32 55 -38 87 -5 29 -14 127 -20 218 -5 91 -10 233 -9 317 1 96 -4 180
-14 230 -8 43 -17 170 -21 283 -3 113 -10 232 -15 264 -5 32 -10 90 -11 128
-2 58 2 73 18 90 12 11 43 24 69 30 27 5 182 13 344 17 162 4 300 9 305 11 6
1 22 2 38 1 15 0 27 -6 27 -12 0 -7 -9 -21 -20 -33 -11 -12 -54 -60 -95 -109
-41 -48 -106 -117 -146 -155 -40 -37 -105 -101 -145 -142 -40 -41 -102 -107
-139 -147 -50 -53 -66 -77 -63 -95 2 -17 8 -22 25 -20 14 2 23 -4 28 -18 4
-12 15 -20 30 -20 14 0 30 11 41 28 9 15 54 70 98 122 45 52 128 139 185 195
57 55 130 134 162 175 31 41 80 102 107 135 42 50 49 63 41 82 -8 21 -6 23 14
21 12 -1 51 1 87 5 36 3 180 9 320 12 140 3 345 13 455 22 110 8 227 19 260
23 33 4 81 8 107 8z m-4449 -38 c6 0 48 -7 92 -14 44 -8 150 -19 235 -25 85
-7 205 -16 265 -21 61 -6 202 -14 315 -20 112 -6 208 -14 212 -18 5 -5 -2 -20
-15 -33 -13 -13 -50 -55 -82 -94 -32 -38 -79 -95 -104 -125 -25 -30 -65 -75
-88 -100 -37 -39 -53 -48 -135 -73 -51 -16 -109 -32 -128 -37 -19 -4 -57 -14
-85 -21 -27 -8 -80 -13 -117 -12 -37 1 -94 9 -127 18 -32 8 -72 15 -89 15 -16
0 -35 7 -42 15 -6 8 -18 40 -25 72 -7 32 -22 94 -33 138 -11 44 -30 130 -41
190 -12 61 -21 118 -21 128 0 9 6 17 13 17z m-3958 -15 c215 -3 510 -6 657 -8
148 -1 268 -6 268 -11 0 -4 16 -5 36 -1 20 3 82 6 137 6 91 -1 104 -3 138 -27
33 -22 38 -32 48 -87 6 -34 15 -96 22 -137 6 -41 14 -82 17 -90 3 -8 14 -80
23 -160 10 -80 23 -219 28 -310 5 -91 12 -249 15 -352 3 -112 10 -196 16 -209
7 -12 10 -38 7 -58 -2 -20 0 -106 4 -191 4 -85 10 -216 14 -290 4 -83 3 -145
-3 -161 -6 -15 -30 -45 -54 -67 -24 -22 -68 -59 -98 -81 -30 -23 -60 -41 -66
-41 -6 0 -37 -12 -68 -26 -32 -14 -92 -35 -134 -46 -42 -11 -106 -24 -142 -29
-36 -5 -146 -8 -245 -8 -99 0 -207 5 -240 10 -33 6 -85 15 -115 20 -30 6 -73
15 -95 21 -22 7 -46 13 -52 14 -7 1 -59 24 -115 50 -57 26 -109 54 -116 61 -7
7 -20 13 -29 13 -8 0 -27 9 -42 19 -14 11 -68 39 -119 64 -51 25 -120 63 -155
83 -34 21 -78 49 -97 63 -19 14 -72 64 -117 111 -46 47 -92 104 -103 127 -12
23 -28 47 -36 53 -7 7 -14 20 -14 30 0 9 -11 29 -25 44 -14 15 -25 30 -25 34
0 4 -16 45 -36 92 -20 47 -45 105 -56 130 -15 35 -20 71 -21 160 -1 63 1 129
5 145 4 17 16 71 27 120 11 50 26 108 34 130 8 22 29 72 46 110 17 39 35 77
40 85 5 8 31 57 58 108 26 51 68 118 93 148 25 31 55 69 66 84 12 16 37 48 55
72 19 23 66 75 104 115 l70 73 390 -5z m1695 -5 c50 0 61 -4 96 -34 21 -19 37
-36 34 -39 -3 -3 -32 3 -64 14 -33 10 -71 19 -86 19 -15 0 -33 6 -39 13 -6 8
-8 17 -4 20 3 4 32 7 63 7z m-232 -64 c15 -3 56 -13 92 -22 36 -9 103 -25 150
-35 47 -11 114 -25 150 -32 66 -12 66 -12 175 -123 61 -61 130 -135 155 -164
25 -29 138 -146 251 -259 113 -113 213 -220 222 -238 l17 -32 -58 -11 c-31 -6
-66 -13 -77 -16 -11 -3 -51 -9 -90 -13 -38 -5 -114 -18 -168 -30 -54 -12 -107
-27 -118 -34 -15 -9 -19 -21 -17 -47 l3 -35 55 4 c30 2 63 7 73 13 10 5 26 11
35 14 9 2 46 11 82 20 36 8 94 22 130 29 36 8 84 19 108 25 23 5 57 10 75 10
27 0 40 -10 82 -61 28 -34 62 -75 76 -92 14 -18 31 -42 38 -54 9 -18 20 -23
50 -23 23 0 44 6 52 16 11 14 10 19 -9 34 -12 10 -22 23 -22 29 0 6 -21 34
-47 62 -27 29 -60 65 -75 80 -16 15 -28 31 -28 36 0 5 48 17 108 27 59 10 127
22 152 26 25 4 79 15 120 24 41 10 113 24 160 32 47 8 108 18 135 23 43 8 52
7 65 -8 8 -10 38 -28 65 -40 28 -12 57 -27 65 -32 8 -5 47 -25 87 -44 39 -19
77 -35 85 -35 7 0 42 -14 78 -32 36 -18 68 -37 72 -43 4 -5 2 -13 -5 -16 -7
-4 -46 -10 -87 -14 -41 -3 -100 -13 -130 -20 -30 -7 -79 -21 -109 -30 -30 -9
-62 -18 -72 -20 -9 -2 -38 -13 -65 -24 -27 -11 -86 -34 -131 -51 -57 -22 -113
-54 -184 -106 -55 -42 -124 -89 -153 -106 -28 -17 -68 -44 -89 -62 -21 -17
-63 -56 -95 -87 -31 -31 -78 -80 -103 -108 -26 -28 -45 -51 -42 -51 2 0 -19
-43 -48 -95 -28 -52 -60 -119 -70 -147 -11 -29 -26 -94 -33 -144 -12 -77 -11
-115 0 -230 7 -77 13 -162 14 -190 0 -39 -5 -57 -22 -78 -13 -14 -57 -61 -100
-104 -42 -42 -91 -90 -110 -107 -19 -16 -45 -46 -60 -65 -14 -19 -99 -111
-189 -204 -90 -93 -167 -174 -171 -180 -3 -6 -70 -75 -148 -154 -77 -78 -143
-142 -146 -142 -3 0 -11 -6 -18 -13 -7 -7 -18 -21 -24 -32 -5 -11 -23 -28 -40
-37 l-29 -17 -7 127 c-3 70 -11 183 -16 252 -6 69 -12 150 -14 180 -2 30 -7
136 -11 235 -4 99 -7 281 -8 405 -1 124 0 261 2 305 2 44 10 96 18 115 8 19
31 53 53 75 21 22 52 64 69 93 17 29 47 104 67 165 20 62 39 121 44 132 4 11
14 37 23 57 9 20 26 96 37 169 16 97 21 160 17 242 -2 62 -12 153 -21 202 -10
50 -33 136 -52 192 -19 56 -34 113 -34 127 0 14 -9 49 -21 78 -11 29 -42 96
-68 148 -26 52 -54 113 -61 135 -7 22 -27 60 -45 85 -18 25 -47 72 -64 105
-17 33 -31 61 -31 63 0 3 12 2 28 -2z m487 -16 c6 0 24 -9 40 -20 20 -13 24
-20 14 -20 -9 0 -27 9 -40 20 -13 10 -19 19 -14 20z m3404 -7 c85 -1 156 -5
159 -7 2 -3 -12 -19 -31 -36 -20 -17 -75 -61 -124 -97 -48 -37 -113 -85 -143
-108 -34 -26 -70 -45 -95 -49 -22 -3 -58 -9 -80 -12 -22 -3 -50 -12 -63 -20
-13 -9 -36 -14 -52 -12 l-29 3 71 85 c39 47 87 103 107 125 20 22 47 56 61 74
14 18 27 37 30 41 3 4 12 9 20 12 8 3 84 3 169 1z m404 -13 c91 0 117 -3 117
-13 0 -8 -8 -21 -17 -29 -10 -8 -31 -18 -47 -22 -17 -4 -41 -15 -55 -25 -14
-10 -57 -24 -95 -31 -38 -7 -87 -23 -110 -36 -23 -13 -48 -24 -57 -24 -8 0
-38 -11 -65 -25 -27 -14 -55 -25 -62 -25 -10 0 -10 5 -2 20 6 11 16 20 22 20
6 0 28 15 49 33 22 17 56 47 78 65 21 17 42 32 47 32 5 0 25 14 44 30 34 29
37 29 153 30z m290 -71 c4 0 7 -5 7 -13 0 -8 -11 -41 -24 -73 -13 -32 -33 -82
-45 -112 -12 -29 -21 -58 -21 -64 0 -6 -12 -40 -27 -76 -23 -58 -27 -80 -27
-176 -1 -60 7 -180 16 -265 10 -85 25 -184 33 -220 8 -36 29 -103 47 -150 22
-62 51 -111 103 -181 40 -53 78 -106 85 -119 7 -12 29 -41 50 -64 35 -39 37
-46 48 -141 6 -55 14 -147 18 -205 4 -58 8 -248 8 -422 1 -175 -2 -318 -6
-318 -4 0 -41 28 -83 63 -42 34 -101 82 -130 107 -30 25 -96 81 -147 124 -51
43 -127 104 -168 135 -41 31 -86 67 -100 81 -15 14 -42 39 -61 55 -19 17 -59
50 -89 75 -30 25 -71 61 -92 80 -28 26 -46 57 -69 120 -17 47 -36 99 -43 115
-6 17 -21 46 -33 65 -13 19 -35 53 -51 75 -15 22 -74 88 -132 147 -67 67 -136
126 -190 160 -47 30 -112 68 -145 85 -33 17 -73 38 -90 47 -16 9 -59 29 -95
45 -36 15 -96 40 -135 55 -38 15 -79 31 -90 35 -18 7 -15 10 21 33 22 15 54
39 70 55 16 15 42 37 58 48 16 11 48 37 71 57 23 21 57 44 76 52 19 8 60 38
91 66 l57 51 135 -20 c75 -11 144 -25 155 -31 11 -5 46 -14 78 -19 32 -5 90
-14 128 -20 39 -6 86 -16 106 -22 30 -9 36 -15 31 -33 -3 -11 -18 -37 -33 -56
-15 -19 -30 -46 -34 -60 -4 -18 0 -32 15 -48 11 -12 26 -22 32 -22 6 0 24 14
40 32 15 17 28 36 28 42 0 6 18 46 40 89 21 43 48 93 59 110 10 18 29 57 42
87 12 30 37 74 55 96 20 25 36 59 40 83 4 23 11 44 15 47 5 3 16 20 25 37 8
18 25 48 37 69 12 20 39 61 60 92 21 31 51 63 68 71 16 9 46 22 67 29 20 8 40
14 45 15z m-3971 -39 c7 0 38 -7 68 -16 30 -9 77 -20 105 -25 27 -5 86 -27
130 -50 44 -23 96 -54 115 -69 19 -15 80 -46 135 -69 55 -24 127 -57 160 -73
33 -17 92 -46 130 -67 39 -20 92 -49 119 -64 27 -15 57 -27 67 -27 11 0 19 -4
19 -10 0 -5 12 -13 28 -16 15 -4 32 -10 37 -13 6 -4 44 -20 85 -36 41 -16 77
-32 80 -36 3 -3 19 -13 35 -22 l30 -16 -27 -1 c-15 0 -37 -4 -50 -9 -13 -5
-32 -13 -43 -17 -11 -4 -51 -14 -90 -21 -38 -7 -104 -18 -145 -23 -41 -6 -117
-20 -169 -30 -52 -11 -105 -20 -117 -20 -13 0 -31 11 -41 25 -10 14 -73 81
-141 148 -68 67 -163 162 -210 211 -48 50 -139 143 -202 208 -63 65 -116 123
-118 128 -2 6 2 10 10 10z m4077 -10 c5 0 12 -12 15 -26 4 -15 11 -90 17 -168
5 -78 14 -215 19 -306 6 -91 15 -189 20 -219 6 -30 10 -101 10 -157 0 -57 4
-125 9 -151 6 -26 12 -100 14 -163 3 -63 8 -123 12 -132 5 -12 3 -18 -6 -17
-8 0 -45 47 -82 103 -38 57 -80 134 -93 172 -13 38 -29 78 -34 89 -5 11 -12
47 -15 80 -4 33 -13 83 -20 111 -7 27 -16 114 -20 193 -4 96 -3 159 5 194 6
29 34 115 62 192 27 77 56 155 64 173 7 17 18 32 23 32z m-4736 -33 c6 -2 23
-23 37 -48 14 -24 37 -71 50 -104 13 -33 39 -87 58 -120 19 -33 39 -73 44 -90
6 -16 16 -59 23 -95 7 -36 21 -85 30 -110 10 -25 22 -63 27 -85 5 -22 13 -65
19 -95 5 -30 13 -77 18 -105 6 -27 10 -92 10 -143 1 -51 -6 -144 -15 -205 -9
-62 -21 -121 -27 -132 -6 -11 -14 -36 -18 -55 -4 -19 -23 -78 -42 -130 -18
-52 -48 -123 -65 -157 -17 -34 -36 -65 -42 -68 -6 -4 -13 -5 -15 -3 -2 2 -9
71 -14 153 -6 83 -13 222 -15 310 -2 88 -9 198 -15 245 -5 47 -11 189 -12 315
-1 127 -5 273 -10 325 -4 52 -11 115 -14 140 -2 25 -11 90 -19 145 -8 55 -12
104 -9 108 3 4 10 6 16 4z m4340 -28 c16 1 15 -5 -9 -46 -16 -27 -46 -79 -69
-118 -23 -38 -52 -95 -64 -125 -12 -30 -42 -91 -66 -135 -27 -50 -48 -78 -57
-76 -7 2 -44 8 -83 12 -38 4 -97 12 -130 18 -33 6 -89 17 -125 25 -36 7 -90
17 -120 21 -30 3 -72 11 -92 16 -21 5 -38 14 -38 19 0 5 9 12 20 15 11 4 28
17 36 31 9 13 21 24 26 24 5 0 15 6 23 13 7 6 22 20 34 30 12 9 25 17 29 17 4
0 32 22 62 50 47 42 61 50 96 50 22 0 54 7 70 14 16 8 72 24 124 35 52 12 145
41 205 65 61 24 118 45 128 45z m-3099 -70 c16 0 45 -3 65 -8 20 -5 65 -14
101 -20 36 -6 137 -25 225 -42 88 -17 180 -35 204 -40 25 -5 54 -17 65 -27 12
-9 23 -19 26 -22 3 -3 37 -30 75 -62 39 -31 86 -71 105 -89 20 -19 53 -48 75
-66 37 -29 39 -33 24 -48 -9 -9 -34 -19 -55 -22 -35 -4 -43 -1 -73 31 -19 20
-40 36 -47 36 -6 0 -27 11 -47 24 -19 13 -46 27 -58 31 -13 4 -37 12 -54 18
-16 7 -58 27 -92 45 -35 17 -71 32 -81 32 -10 0 -45 14 -77 30 -32 17 -63 30
-67 30 -5 0 -26 11 -46 25 -20 14 -44 25 -54 25 -9 0 -30 11 -46 25 -17 14
-37 25 -45 25 -9 0 -19 5 -22 10 -4 6 -25 19 -48 30 -23 10 -51 21 -62 23 -14
3 -11 5 9 6z m2335 -149 c3 0 -8 -13 -25 -28 -17 -15 -63 -51 -103 -79 -45
-33 -83 -53 -100 -53 -15 0 -35 6 -45 13 -10 7 -15 19 -11 28 3 9 20 26 37 39
17 12 47 27 67 32 20 5 65 16 100 24 36 8 67 17 70 19 2 3 7 5 10 5z m-1499
-10 c8 -1 42 -7 76 -14 33 -7 66 -16 72 -20 7 -4 51 -9 99 -12 47 -3 120 -11
161 -19 42 -8 79 -18 83 -22 4 -5 10 -25 14 -45 7 -37 7 -37 -37 -48 -23 -6
-50 -14 -58 -17 -8 -4 -46 -12 -85 -19 -68 -11 -71 -11 -105 14 -19 14 -38 31
-42 38 -5 7 -27 23 -50 37 -24 14 -65 48 -93 76 -27 28 -43 51 -35 51z m616
-94 c7 -3 29 -8 48 -12 20 -3 36 -10 36 -14 0 -4 -21 -11 -46 -15 -33 -5 -49
-3 -54 6 -5 7 -6 18 -3 26 3 8 11 12 19 9z m481 4 c1 0 5 -4 8 -10 3 -6 -4
-10 -17 -10 -18 0 -20 2 -8 10 8 5 16 10 17 10z m-187 -66 c25 -2 64 -7 88
-10 23 -3 42 -9 42 -13 0 -4 -46 -50 -102 -103 -57 -54 -128 -122 -158 -153
-30 -30 -62 -55 -71 -55 -9 0 -21 6 -26 13 -5 6 -15 41 -22 77 -7 36 -19 84
-27 108 -8 23 -14 51 -14 62 0 15 10 20 48 25 26 4 61 11 77 16 17 4 50 15 75
23 26 9 64 13 90 10z m260 -40 c14 -3 31 -7 38 -10 6 -2 12 -7 12 -12 0 -4
-28 -27 -63 -50 -35 -23 -74 -53 -87 -67 -13 -14 -29 -25 -37 -25 -7 0 -39
-19 -70 -43 -32 -24 -65 -47 -73 -52 -8 -4 41 50 110 121 69 71 129 132 135
136 5 4 21 5 35 2z m-663 -45 c17 1 24 -6 28 -26 3 -16 13 -54 22 -86 9 -31
14 -60 10 -63 -3 -3 -32 9 -64 28 -32 18 -79 47 -105 63 -26 17 -48 33 -48 38
0 4 8 7 18 7 9 1 40 9 67 20 28 10 60 19 72 19z m-303 -79 c19 0 49 -11 70
-25 20 -14 40 -25 43 -25 4 0 22 -10 40 -22 18 -13 33 -26 33 -31 0 -4 -12 -5
-27 -1 -16 3 -53 15 -83 27 -30 11 -67 29 -82 39 -16 11 -28 24 -28 29 0 5 15
9 34 9z m561 -371 c11 0 32 -7 45 -16 14 -9 27 -20 30 -24 3 -3 19 -14 35 -23
17 -9 49 -31 72 -49 23 -17 86 -65 139 -106 53 -41 124 -100 158 -131 34 -31
89 -77 124 -101 35 -24 86 -58 114 -75 27 -18 64 -45 81 -62 18 -16 59 -52 93
-78 33 -27 84 -70 112 -96 29 -25 52 -54 52 -65 0 -10 11 -68 24 -128 13 -61
28 -141 32 -180 5 -38 7 -77 6 -85 -2 -8 -5 -40 -7 -70 -3 -30 -14 -91 -24
-135 -10 -44 -25 -107 -32 -140 -7 -33 -22 -76 -33 -95 -11 -19 -32 -58 -48
-87 -16 -29 -55 -81 -86 -117 -31 -35 -81 -92 -111 -126 -32 -37 -94 -89 -157
-131 -57 -38 -108 -77 -113 -88 -6 -10 -31 -31 -55 -45 -25 -14 -51 -33 -59
-41 -8 -8 -98 -56 -199 -107 -101 -51 -197 -98 -214 -105 -16 -7 -50 -19 -75
-27 -25 -9 -70 -18 -100 -20 -30 -3 -92 -10 -139 -15 -47 -6 -121 -10 -165
-10 -50 1 -87 6 -101 16 -12 7 -26 13 -30 11 -5 -1 -31 3 -59 10 -27 7 -68 18
-90 25 -22 6 -67 22 -100 35 -33 13 -72 32 -86 42 -14 10 -36 21 -50 25 -13 3
-49 29 -80 58 -30 29 -74 75 -97 103 -23 28 -57 78 -75 110 -19 32 -52 88 -74
124 -22 36 -55 94 -75 130 -19 36 -50 110 -68 165 -18 55 -37 109 -42 120 -4
11 -12 42 -18 69 l-11 49 58 61 c31 33 125 129 208 211 83 83 203 211 267 285
64 74 183 201 265 281 81 80 177 173 212 205 36 32 86 79 112 104 25 25 69 65
96 90 27 25 86 86 132 137 78 86 87 93 135 101 28 5 60 10 71 11z m-267 -30
c6 0 12 -2 12 -5 0 -3 -21 -31 -47 -62 -27 -31 -83 -91 -126 -132 -44 -41
-212 -208 -375 -371 -164 -163 -314 -316 -334 -340 -20 -24 -60 -71 -89 -104
-28 -33 -114 -124 -189 -202 -76 -79 -140 -143 -143 -143 -2 0 -8 35 -13 78
-4 42 -9 136 -9 207 0 96 4 144 16 185 10 30 31 82 48 115 17 33 31 66 31 73
0 6 4 12 9 12 5 0 27 28 49 63 23 34 63 83 89 108 26 26 82 73 125 105 42 33
118 89 170 126 51 37 102 75 113 85 11 10 31 23 45 30 14 6 48 17 75 24 28 7
82 26 120 42 39 16 95 38 125 47 30 10 93 25 140 34 47 8 99 17 115 19 17 2
36 5 43 6z m503 -19 c12 0 30 -6 38 -13 9 -7 36 -20 61 -27 25 -7 52 -19 60
-25 8 -7 55 -34 104 -61 48 -27 106 -58 127 -69 21 -11 88 -68 148 -127 60
-59 128 -131 150 -161 23 -29 46 -68 52 -86 6 -18 8 -35 5 -38 -4 -4 -23 9
-44 29 -20 19 -51 45 -69 57 -18 12 -45 34 -61 49 -15 15 -54 45 -86 67 -32
22 -93 68 -135 103 -42 34 -94 77 -116 96 -22 19 -69 59 -105 90 -36 31 -69
56 -74 56 -4 0 -24 14 -43 30 -31 27 -32 30 -12 30z"/>
<g>
<path d="M9361 13659 c-3 -1 -15 -3 -26 -6 -11 -3 -35 -19 -52 -36 -26 -24
-33 -39 -33 -67 0 -25 7 -43 23 -57 12 -11 32 -24 44 -27 12 -4 31 -9 43 -11
15 -3 28 7 51 38 24 32 29 50 27 81 -2 33 -9 44 -37 63 -19 13 -37 22 -40 22z"/>
</g>
<g>
<path d="M7902 13620 c-26 0 -59 -8 -74 -17 -19 -12 -29 -29 -33 -55 -4 -20
-4 -46 0 -57 3 -11 24 -31 46 -45 33 -19 47 -22 76 -16 20 5 40 13 46 19 6 6
12 35 15 66 3 40 0 61 -12 80 -14 21 -24 25 -64 25z"/>
</g>
<g>
<path d="M8591 13370 c-10 0 -25 -8 -34 -17 -11 -13 -17 -48 -22 -118 -3 -55
-12 -127 -19 -160 -8 -33 -19 -107 -26 -165 -7 -58 -19 -130 -26 -160 -8 -30
-14 -71 -14 -92 0 -27 5 -40 20 -48 10 -6 52 -10 92 -9 40 1 80 3 89 5 13 4
15 14 11 52 -2 26 -6 49 -9 52 -3 3 -18 6 -34 6 -16 1 -38 2 -49 3 -18 1 -19
7 -15 114 2 61 8 139 13 173 5 33 14 70 21 82 6 11 11 32 11 45 0 14 6 40 14
58 8 19 17 53 21 76 4 29 1 52 -10 73 -9 17 -24 30 -34 30z"/>
</g>
<g>
<path d="M9171 12439 c-14 -1 -62 -7 -106 -15 -44 -8 -105 -18 -135 -23 -30
-4 -70 -6 -87 -3 -18 2 -39 0 -45 -6 -7 -6 -96 -17 -198 -26 -102 -8 -252 -18
-335 -22 -114 -5 -154 -10 -167 -22 -10 -8 -18 -27 -18 -42 0 -14 5 -31 12
-38 8 -8 45 -12 103 -12 49 0 119 5 154 10 36 5 117 10 180 11 64 1 136 8 161
15 25 8 72 14 105 15 33 0 87 5 120 9 33 5 100 14 149 20 65 7 92 7 102 -1 11
-9 20 -7 39 5 14 9 25 20 25 24 0 5 -6 14 -12 20 -10 10 -10 17 1 34 12 19 11
23 -5 35 -10 7 -29 13 -43 12z"/>
</g>
<g>
<path d="M11700 12745 c-19 2 -48 0 -65 -3 -23 -6 -33 -16 -42 -44 -9 -27 -9
-45 -2 -68 8 -21 23 -35 46 -45 20 -8 44 -15 55 -15 11 0 35 15 53 33 26 26
31 38 28 62 -3 17 -12 41 -22 53 -10 14 -30 24 -51 27z"/>
</g>
<g>
<path d="M12057 12120 c-1 0 -15 -7 -31 -15 -16 -9 -36 -24 -43 -35 -8 -11
-45 -40 -84 -65 -38 -25 -74 -45 -79 -45 -5 0 -49 -36 -97 -80 -49 -44 -96
-87 -105 -95 -11 -9 -15 -22 -11 -32 3 -10 19 -30 35 -45 16 -16 35 -28 42
-28 6 0 23 -18 36 -40 14 -22 28 -40 32 -40 4 0 22 10 42 23 19 12 38 29 41
37 4 9 -10 30 -40 58 -26 23 -45 47 -43 52 2 5 31 41 66 80 35 38 67 70 72 70
5 0 37 16 72 36 35 20 78 50 96 67 21 20 32 40 32 58 0 15 -7 29 -16 33 -9 3
-16 6 -17 6z"/>
</g>
<g>
<path d="M12699 11799 c-22 8 -33 5 -63 -15 -23 -16 -36 -33 -36 -47 0 -12 5
-39 11 -60 7 -25 18 -41 34 -47 14 -5 37 -5 59 1 19 5 42 20 51 32 8 12 15 35
15 52 0 20 -9 40 -22 53 -13 11 -35 25 -49 31z"/>
</g>
<g>
<path d="M5181 12440 c-27 0 -44 -7 -61 -25 -15 -16 -24 -41 -28 -73 -3 -37 0
-52 13 -65 9 -9 27 -20 41 -23 13 -3 35 -4 47 0 13 3 36 15 50 27 21 16 27 29
27 59 0 27 -8 48 -26 69 -20 24 -34 31 -63 31z"/>
</g>
<g>
<path d="M4898 11784 c-21 5 -30 2 -38 -13 -5 -11 -10 -26 -10 -34 0 -8 18
-37 40 -63 22 -27 40 -56 40 -66 0 -10 14 -33 30 -52 17 -19 67 -110 112 -203
45 -92 88 -173 97 -180 9 -7 26 -13 38 -13 16 0 37 19 73 64 27 35 66 76 85
90 22 17 35 36 35 49 0 13 -7 33 -16 45 -8 13 -26 22 -40 22 -16 0 -43 -18
-80 -55 -31 -30 -59 -55 -63 -55 -4 0 -45 63 -91 140 -46 77 -89 145 -96 151
-7 5 -20 37 -30 69 -10 33 -27 68 -38 79 -12 10 -33 21 -48 25z"/>
</g>
<g>
<path d="M4380 11603 c-14 3 -34 3 -45 0 -11 -3 -28 -12 -38 -21 -10 -9 -25
-31 -32 -48 -9 -22 -11 -44 -5 -69 5 -20 16 -45 25 -55 9 -10 30 -20 47 -24
25 -5 39 0 74 26 24 18 48 45 55 61 9 21 9 34 -1 56 -6 16 -21 38 -33 49 -12
11 -33 23 -47 25z"/>
</g>
<g>
<path d="M5901 11560 c-10 0 -45 -28 -78 -62 -33 -35 -83 -88 -110 -118 -27
-30 -85 -100 -129 -155 -43 -55 -100 -127 -124 -159 -25 -33 -74 -89 -110
-124 -36 -35 -73 -76 -82 -91 -10 -14 -18 -35 -18 -47 0 -11 8 -28 18 -37 10
-10 29 -17 42 -17 14 0 40 18 69 48 25 27 60 64 76 83 17 19 62 74 100 123 39
48 88 112 110 140 22 29 60 74 85 101 25 27 88 93 141 146 76 76 94 100 87
113 -5 9 -15 16 -23 16 -8 0 -19 9 -25 20 -6 11 -19 20 -29 20z"/>
</g>
<g>
<path d="M14153 9486 c-28 6 -38 1 -68 -29 -25 -25 -35 -44 -35 -65 0 -18 10
-41 23 -56 13 -15 38 -27 62 -31 30 -4 48 0 73 15 27 17 32 25 32 60 0 29 -7
47 -27 70 -16 16 -43 33 -60 36z"/>
</g>
<g>
<path d="M12978 9127 c-36 5 -37 4 -47 -35 -6 -22 -15 -85 -21 -139 -5 -54
-10 -174 -11 -267 -1 -92 -8 -209 -15 -260 -7 -50 -13 -109 -14 -132 0 -27 6
-46 18 -57 10 -10 32 -17 48 -17 16 0 35 4 43 9 9 6 12 21 9 47 -3 22 -1 56 4
78 5 21 11 57 13 80 3 22 7 153 10 290 3 137 10 276 16 309 8 49 8 63 -3 74
-8 7 -31 16 -50 20z"/>
</g>
<g>
<path d="M13455 8850 c-6 0 -20 -7 -31 -15 -16 -10 -24 -32 -32 -87 -6 -40
-11 -100 -12 -132 -1 -33 -3 -63 -5 -66 -2 -3 -1 -11 3 -17 4 -6 30 -14 59
-18 l51 -7 4 120 c1 66 5 123 8 125 3 3 23 1 45 -3 22 -5 85 -21 140 -34 55
-14 116 -30 135 -37 19 -6 42 -16 50 -20 8 -5 32 -18 52 -29 21 -11 46 -20 58
-20 12 0 25 10 32 25 9 21 9 29 -3 40 -8 8 -48 24 -89 36 -41 11 -96 31 -122
44 -26 13 -55 21 -65 19 -10 -3 -75 13 -143 35 -69 23 -130 41 -135 41z"/>
</g>
<g>
<path d="M14190 8002 c-19 3 -43 4 -52 1 -9 -2 -26 -19 -37 -37 -17 -27 -19
-39 -11 -68 6 -19 21 -47 35 -62 15 -17 35 -26 54 -26 16 0 36 -3 45 -6 9 -3
26 5 41 20 20 20 25 35 25 73 0 42 -4 51 -33 74 -17 14 -48 28 -67 31z"/>
</g>
<g>
<path d="M3015 8910 c-45 7 -49 5 -82 -28 -28 -27 -33 -39 -28 -60 3 -14 15
-38 26 -54 12 -16 33 -35 48 -42 15 -8 43 -17 63 -21 29 -6 40 -3 57 14 11 11
23 32 27 47 4 15 3 43 -2 62 -5 19 -21 44 -36 55 -15 11 -48 23 -73 27z"/>
</g>
<g>
<path d="M4435 8639 c-53 0 -55 -1 -55 -27 -1 -15 -3 -160 -5 -322 -2 -162 -7
-327 -10 -366 -5 -54 -4 -73 6 -80 7 -4 28 -9 46 -11 28 -3 35 0 43 22 5 14
12 74 15 133 3 59 8 154 12 212 3 58 7 121 9 140 1 19 3 90 4 157 1 67 -1 126
-4 132 -4 5 -31 10 -61 10z"/>
</g>
<g>
<path d="M3949 8258 c-28 -1 -53 -6 -56 -11 -3 -4 -3 -38 -1 -75 l3 -67 -37
-3 c-21 -2 -54 2 -75 8 -21 6 -117 20 -213 30 -96 10 -202 26 -235 35 -33 9
-72 19 -86 22 -15 3 -36 0 -48 -6 -11 -7 -21 -20 -21 -30 0 -10 11 -26 25 -35
13 -9 41 -16 62 -16 21 0 76 -7 123 -16 47 -9 103 -18 125 -21 22 -2 90 -13
150 -24 61 -11 121 -24 135 -29 14 -5 60 -11 102 -14 62 -5 80 -3 93 10 13 13
15 34 11 122 -3 59 -5 110 -6 115 0 4 -23 6 -51 5z"/>
</g>
<g>
<path d="M3060 7634 c-28 3 -54 0 -69 -9 -13 -7 -28 -19 -32 -27 -5 -7 -9 -26
-9 -42 0 -16 11 -44 26 -63 23 -31 29 -33 84 -33 52 0 62 3 75 24 9 13 18 39
21 57 5 28 1 39 -23 61 -20 19 -43 29 -73 32z"/>
</g>
<g>
<path d="M12060 8548 c-14 0 -19 -2 -12 -5 6 -2 18 -2 25 0 6 3 1 5 -13 5z"/>
</g>
<g>
<path d="M12177 5479 c-12 0 -28 -3 -34 -6 -7 -2 -34 -37 -60 -76 -27 -40 -51
-73 -55 -75 -5 -2 -8 -9 -8 -16 0 -7 -11 -30 -25 -50 -14 -20 -25 -43 -25 -51
0 -8 7 -15 15 -15 8 0 19 -9 25 -20 6 -11 20 -20 31 -20 11 0 22 6 24 13 2 6
9 23 15 37 6 14 19 39 30 55 11 17 25 40 31 52 7 12 19 25 28 28 11 4 26 -5
46 -28 17 -19 39 -52 50 -74 11 -21 26 -45 34 -53 8 -8 38 -65 68 -127 30 -62
52 -117 49 -121 -3 -5 6 -31 19 -59 13 -28 33 -56 44 -63 15 -8 27 -8 41 0 11
6 20 21 20 34 0 13 -9 34 -19 48 -11 13 -31 49 -44 79 -14 30 -43 92 -65 139
-22 47 -70 130 -106 184 -36 55 -66 107 -66 116 0 10 -9 29 -21 44 -11 15 -30
26 -42 25z"/>
</g>
<g>
<path d="M13115 5300 c-17 0 -39 -6 -48 -12 -9 -7 -23 -30 -32 -50 -8 -21 -15
-47 -15 -58 0 -12 14 -35 30 -52 26 -25 36 -29 63 -24 18 3 43 18 56 33 19 22
22 35 19 75 -3 27 -13 57 -23 68 -11 12 -31 20 -50 20z"/>
</g>
<g>
<path d="M12257 4210 c-18 0 -41 -6 -52 -12 -11 -6 -28 -20 -37 -32 -10 -11
-18 -31 -18 -43 0 -12 18 -41 40 -64 33 -35 43 -40 67 -35 15 4 38 17 51 30
12 12 25 38 28 57 5 28 1 41 -21 67 -20 24 -35 32 -58 32z"/>
</g>
<g>
<path d="M5454 5680 c-5 0 -26 -15 -47 -34 -26 -23 -36 -38 -31 -50 4 -10 26
-30 49 -44 24 -15 108 -89 188 -165 79 -76 155 -146 168 -154 13 -9 35 -29 49
-43 14 -15 30 -29 37 -31 7 -2 33 -22 60 -44 26 -22 73 -64 105 -92 32 -29 64
-53 72 -53 9 0 27 11 41 25 14 14 25 28 25 30 0 2 -4 15 -9 29 -6 13 -36 44
-67 67 -31 23 -88 71 -126 105 -38 35 -75 64 -81 64 -6 0 -41 30 -77 68 -37
37 -109 106 -161 153 -52 48 -115 105 -140 128 -25 22 -50 41 -55 41z"/>
</g>
<g>
<path d="M5513 5160 c-5 0 -23 -18 -40 -39 -18 -22 -30 -46 -28 -53 3 -7 37
-37 75 -66 46 -35 67 -57 64 -67 -4 -8 -10 -15 -14 -15 -5 0 -39 -26 -76 -57
-38 -32 -96 -85 -129 -118 -33 -33 -77 -73 -98 -90 -22 -16 -51 -37 -67 -45
-15 -8 -46 -32 -69 -52 -22 -21 -41 -47 -41 -58 0 -10 9 -24 19 -30 11 -5 24
-10 30 -10 5 0 42 32 83 71 40 40 96 88 123 109 28 21 86 67 130 104 43 37 96
72 118 78 24 7 53 28 78 56 28 32 39 54 39 77 0 26 -7 37 -39 60 -22 15 -65
54 -95 86 -31 32 -59 59 -63 59z"/>
</g>
<g>
<path d="M4479 4937 c-29 2 -57 -4 -82 -18 -21 -11 -43 -32 -48 -47 -8 -21 -7
-34 7 -59 9 -18 27 -39 39 -47 13 -8 40 -16 61 -17 22 -2 50 3 64 11 13 7 31
19 39 27 9 10 12 27 8 55 -3 23 -14 53 -25 67 -15 20 -29 27 -63 28z"/>
</g>
<g>
<path d="M5453 4020 c-4 -1 -22 -7 -39 -14 -17 -8 -40 -26 -52 -41 -12 -15
-22 -39 -22 -52 0 -15 14 -37 37 -58 26 -24 51 -37 82 -41 42 -6 47 -5 73 27
19 23 28 44 28 69 0 27 -7 43 -27 62 -16 14 -38 31 -50 37 -12 6 -25 11 -30
11z"/>
</g>
<g>
<path d="M9420 4074 c-14 3 -33 -1 -44 -9 -14 -11 -24 -12 -39 -3 -15 8 -101
7 -316 -2 -226 -10 -301 -11 -318 -2 -12 7 -33 12 -47 12 -14 0 -26 -2 -26 -5
0 -2 5 -26 11 -54 8 -40 15 -50 35 -55 13 -4 96 -7 183 -7 88 -1 165 2 172 7
7 4 114 7 237 6 124 -1 234 -4 244 -8 11 -3 41 0 68 6 40 10 49 16 53 38 3 14
3 31 0 38 -2 7 -12 16 -21 19 -9 4 -51 9 -92 11 -41 2 -86 6 -100 8z"/>
</g>
<g>
<path d="M9313 3638 c-37 -1 -93 -3 -123 -5 -39 -3 -64 -11 -87 -29 -27 -20
-33 -32 -33 -61 l0 -36 58 7 c31 3 85 9 120 13 56 5 62 4 62 -13 0 -10 -9 -59
-21 -109 -12 -49 -30 -119 -40 -155 -11 -36 -31 -91 -45 -124 -21 -47 -24 -63
-15 -82 6 -13 15 -24 20 -24 5 0 21 4 35 10 19 7 26 17 26 37 0 16 14 80 30
143 17 63 32 120 33 125 2 6 9 30 16 55 7 25 19 65 28 90 9 25 20 50 23 55 4
6 10 27 14 47 6 31 3 39 -13 47 -11 6 -50 10 -88 9z"/>
</g>
<g>
<path d="M9835 3019 c-6 -1 -21 -4 -35 -6 -14 -3 -37 -14 -52 -25 -16 -10 -39
-39 -53 -62 -14 -24 -25 -55 -25 -70 0 -15 7 -40 15 -55 8 -16 25 -31 37 -35
13 -3 44 -6 70 -6 45 0 47 1 82 54 28 42 36 65 36 98 0 37 -6 49 -33 76 -18
18 -37 31 -42 31z"/>
</g>
<g>
<path d="M8538 2997 c-39 3 -61 -1 -81 -14 -16 -10 -32 -33 -37 -53 -6 -19
-10 -47 -10 -62 0 -14 3 -34 6 -43 4 -8 20 -23 36 -31 22 -11 44 -14 78 -9 34
5 56 15 75 35 20 21 29 42 32 77 4 42 2 51 -21 72 -19 18 -40 25 -78 28z"/>
</g>
</g>
</g>
</svg>
