<?xml version="1.0" standalone="no"?>
<!DOCTYPE svg PUBLIC "-//W3C//DTD SVG 20010904//EN"
 "http://www.w3.org/TR/2001/REC-SVG-20010904/DTD/svg10.dtd">
<svg version="1.0" xmlns="http://www.w3.org/2000/svg"
 width="1323.000000pt" height="1323.000000pt" viewBox="0 0 1323.000000 1323.000000"
 preserveAspectRatio="xMidYMid meet">
<metadata>
Created by potrace 1.16, written by Peter Selinger 2001-2019
</metadata>
<g transform="translate(0.000000,1323.000000) scale(0.100000,-0.100000)"
fill="#000000" stroke="none">
<g>
<path d="M6574 12185 c-27 2 -80 -2 -119 -10 -38 -7 -92 -14 -120 -14 -27 -1
-66 -6 -85 -11 -20 -5 -45 -16 -55 -24 -20 -14 -20 -15 4 -40 22 -24 32 -26
100 -26 42 0 101 7 131 15 30 8 74 15 97 15 23 0 45 5 48 10 4 6 10 8 15 5 5
-3 21 6 37 19 26 23 27 26 12 41 -9 9 -37 18 -65 20z"/>
</g>
<g>
<path d="M7308 12048 c-46 15 -59 16 -73 6 -12 -9 -15 -20 -11 -36 3 -13 26
-35 52 -50 25 -16 51 -28 58 -28 7 0 50 -22 95 -50 68 -41 91 -50 130 -50 26
0 52 -5 57 -10 6 -6 18 -8 27 -4 9 3 17 17 17 30 0 12 -10 30 -22 38 -12 9
-35 16 -51 16 -16 0 -38 5 -50 11 -12 7 -48 34 -80 60 -32 27 -67 49 -76 49
-10 0 -43 8 -73 18z"/>
</g>
<g>
<path d="M5645 11926 c-5 1 -37 -7 -70 -19 -33 -11 -64 -27 -68 -34 -4 -7 -15
-13 -23 -13 -9 0 -45 -28 -80 -62 -35 -33 -64 -66 -64 -73 0 -6 -8 -20 -18
-31 -9 -10 -23 -32 -30 -48 -9 -21 -10 -32 -1 -42 6 -7 8 -18 4 -24 -3 -5 -4
-10 -1 -10 3 0 16 5 30 12 14 6 28 19 31 28 3 9 40 48 81 86 42 38 84 76 93
85 9 9 23 25 31 37 8 12 24 22 35 22 12 0 32 11 44 24 13 13 21 32 19 42 -1 9
-7 18 -13 20z"/>
</g>
<g>
<path d="M7950 11470 c-3 0 -14 -6 -24 -13 -11 -8 -16 -21 -12 -39 2 -15 11
-42 19 -60 8 -18 18 -45 21 -59 3 -14 19 -43 35 -66 20 -28 38 -42 59 -45 26
-4 31 -1 35 21 4 16 -4 47 -20 81 -14 30 -31 62 -38 70 -7 8 -16 26 -20 40 -4
14 -17 35 -28 48 -11 12 -23 22 -27 22z"/>
</g>
<g>
<path d="M4984 11260 c-8 0 -19 -12 -24 -26 -6 -15 -12 -41 -15 -58 -2 -17
-11 -46 -20 -64 -9 -18 -24 -63 -32 -100 -9 -37 -17 -78 -18 -92 -1 -14 -8
-38 -14 -55 -8 -19 -9 -43 -5 -65 5 -19 7 -43 6 -53 -1 -10 8 -22 23 -29 14
-6 27 -9 30 -6 3 3 7 34 9 69 2 42 11 79 26 109 13 25 25 61 27 80 2 19 9 53
15 75 6 22 13 45 14 50 1 6 7 34 13 63 9 44 8 57 -5 78 -9 13 -23 24 -30 24z"/>
</g>
<g>
<path d="M8198 10660 c-8 0 -23 -19 -33 -42 -9 -24 -28 -65 -40 -93 -13 -27
-28 -63 -34 -78 -6 -16 -8 -39 -5 -53 4 -15 2 -24 -5 -24 -6 0 -16 -11 -21
-25 -5 -14 -10 -50 -11 -80 -1 -30 -6 -55 -11 -55 -4 0 -8 -9 -8 -19 0 -11 10
-27 22 -35 20 -14 24 -14 40 1 10 9 18 21 18 27 0 6 6 23 14 38 8 15 13 35 11
45 -1 10 2 23 7 29 5 7 8 16 6 20 -1 5 5 34 14 64 9 30 22 87 28 125 6 39 14
89 17 113 4 32 2 42 -9 42z"/>
</g>
<g>
<path d="M4873 10287 c-6 2 -14 -1 -18 -7 -4 -6 -4 -42 0 -78 4 -37 22 -105
41 -153 19 -47 34 -91 34 -97 0 -7 12 -19 26 -29 14 -9 30 -27 35 -40 5 -13
13 -23 18 -23 6 0 13 16 17 35 5 26 1 44 -15 70 -12 20 -21 44 -21 54 0 9 -9
35 -19 57 -11 22 -22 55 -26 74 -3 20 -18 58 -33 85 -15 27 -32 50 -39 52z"/>
</g>
<g>
<path d="M7798 9758 c-9 2 -23 -4 -31 -13 -9 -8 -20 -15 -26 -15 -6 0 -66 -54
-133 -121 -67 -66 -138 -132 -160 -145 -21 -13 -38 -30 -38 -37 0 -7 6 -22 14
-32 13 -18 17 -19 51 -6 20 7 57 25 80 40 26 15 57 48 77 78 18 29 36 53 39
53 4 0 33 33 65 73 32 39 64 78 72 86 7 7 11 18 9 25 -2 6 -11 12 -19 14z"/>
</g>
<g>
<path d="M5283 9550 c-8 0 -12 -4 -9 -9 4 -5 2 -11 -3 -13 -5 -1 13 -41 41
-87 31 -51 63 -90 81 -100 16 -9 45 -26 64 -38 18 -13 46 -23 61 -23 16 0 33
5 40 12 7 7 12 20 12 29 0 10 -41 47 -101 90 -56 40 -117 88 -137 106 -19 18
-41 33 -49 33z"/>
</g>
<g>
<path d="M5982 9180 c-15 0 -22 -6 -22 -20 0 -11 17 -37 38 -58 24 -26 55 -45
92 -56 30 -9 81 -20 113 -23 47 -5 61 -3 77 12 11 10 20 29 20 42 0 19 -5 23
-29 23 -16 0 -44 7 -64 15 -19 8 -37 12 -39 9 -3 -3 -34 3 -69 12 -35 10 -71
23 -80 31 -8 7 -25 13 -37 13z"/>
</g>
<g>
<path d="M7079 9147 c-39 -1 -76 -5 -82 -8 -7 -4 -67 -12 -135 -18 -67 -6
-130 -15 -140 -20 -9 -5 -30 -15 -45 -22 -23 -11 -27 -17 -22 -38 4 -14 12
-29 18 -33 7 -4 53 -5 102 -1 57 3 116 15 160 30 39 14 80 27 92 30 12 3 28
11 34 19 6 8 22 14 34 14 13 0 30 3 39 6 9 3 16 14 16 24 0 16 -8 18 -71 17z"/>
</g>
<g>
<path d="M6555 8358 c-22 0 -76 -6 -120 -14 -44 -8 -127 -18 -185 -23 -58 -5
-127 -14 -154 -20 -27 -6 -59 -17 -70 -24 -12 -7 -41 -19 -66 -27 -25 -7 -52
-20 -61 -27 -8 -7 -19 -13 -23 -13 -4 0 -34 -13 -68 -30 -33 -16 -66 -30 -74
-30 -8 0 -14 -4 -14 -10 0 -5 -20 -19 -45 -31 -25 -12 -45 -25 -45 -30 0 -5
-7 -9 -15 -9 -9 0 -18 -7 -21 -15 -4 -8 -11 -15 -18 -16 -6 0 -31 -16 -56 -35
-25 -19 -55 -39 -67 -46 -13 -6 -23 -15 -23 -20 0 -4 -5 -8 -10 -8 -6 0 -25
-10 -43 -22 -17 -13 -36 -28 -42 -34 -5 -6 -36 -28 -67 -48 -32 -21 -66 -52
-77 -69 -11 -18 -38 -50 -61 -72 -25 -24 -57 -72 -80 -120 -20 -44 -47 -90
-59 -103 -12 -12 -19 -27 -16 -32 3 -6 1 -10 -4 -10 -6 0 -11 -9 -11 -19 0
-11 -4 -22 -9 -25 -5 -4 -12 -24 -16 -45 -3 -22 -13 -47 -20 -58 -8 -10 -15
-28 -15 -40 0 -12 -4 -24 -9 -27 -5 -3 -11 -20 -14 -38 -3 -18 -13 -60 -21
-93 -13 -47 -16 -108 -15 -280 0 -137 6 -251 15 -303 7 -45 20 -95 27 -110 8
-15 17 -54 21 -87 3 -33 13 -80 20 -105 8 -25 25 -67 40 -94 14 -27 26 -54 26
-59 0 -6 6 -18 14 -26 8 -9 31 -47 52 -86 20 -38 59 -94 86 -124 27 -30 60
-68 73 -85 13 -17 59 -67 102 -112 43 -44 115 -110 160 -147 45 -37 117 -85
160 -106 43 -21 130 -63 193 -94 64 -31 138 -63 165 -73 28 -9 60 -18 72 -19
11 -2 38 -9 60 -16 21 -7 45 -19 54 -26 9 -7 45 -25 80 -39 54 -22 79 -26 156
-25 51 0 132 5 180 11 49 5 142 10 209 10 66 0 147 5 180 11 32 5 75 17 94 26
19 9 37 19 40 22 3 3 30 18 60 34 30 15 91 49 135 77 44 27 85 49 90 50 6 0
22 11 36 24 14 13 35 27 47 30 12 4 21 12 19 18 -1 6 15 20 37 32 21 12 75 59
121 104 46 45 108 119 137 164 30 46 68 108 85 138 17 30 39 78 48 105 10 28
22 54 27 59 4 6 8 20 8 32 0 12 9 57 19 100 11 44 19 96 19 116 0 20 3 42 7
48 4 6 13 41 21 76 7 36 16 91 19 122 3 31 5 100 4 152 -1 52 -2 140 -3 195
-1 55 -8 119 -15 143 -7 24 -14 87 -15 140 -3 71 -10 117 -29 172 -14 41 -35
107 -46 147 -12 40 -26 75 -31 78 -6 3 -10 15 -10 26 0 11 -18 58 -40 104 -23
46 -56 104 -75 129 -19 24 -35 51 -35 59 0 7 -12 24 -26 38 -15 13 -44 46 -66
73 -21 27 -60 66 -87 87 -27 22 -52 39 -56 39 -5 0 -23 18 -42 40 -19 22 -41
40 -48 40 -8 0 -18 6 -22 14 -4 8 -25 26 -46 40 -21 15 -61 38 -87 51 -27 14
-62 25 -78 25 -15 0 -32 4 -38 8 -5 4 -25 13 -44 20 -19 6 -73 16 -120 22 -47
6 -114 13 -150 15 -36 3 -78 8 -95 11 -16 3 -59 10 -95 14 -36 5 -83 9 -105 8z
m-20 -113 c66 -2 167 -7 225 -13 58 -6 139 -13 180 -16 41 -2 114 -16 161 -29
47 -14 102 -35 122 -46 21 -12 43 -21 50 -21 7 0 32 -16 56 -35 24 -19 47 -35
50 -35 3 0 20 -13 38 -28 17 -15 48 -40 69 -57 21 -16 60 -52 87 -80 27 -27
78 -94 114 -149 36 -54 72 -115 80 -135 9 -20 19 -43 23 -52 4 -8 19 -44 32
-80 14 -35 42 -120 62 -188 21 -69 44 -166 53 -215 8 -51 17 -188 20 -311 3
-133 0 -248 -6 -290 -6 -38 -17 -110 -25 -160 -9 -49 -19 -110 -24 -135 -5
-25 -19 -81 -30 -125 -12 -44 -24 -91 -28 -105 -4 -14 -19 -41 -34 -60 -15
-19 -40 -59 -55 -88 -16 -29 -39 -65 -52 -78 -13 -14 -21 -30 -18 -35 4 -5 -1
-9 -9 -9 -9 0 -16 -4 -16 -9 0 -5 -28 -37 -61 -70 -34 -34 -67 -61 -73 -61 -6
-1 -29 -19 -51 -40 -22 -22 -45 -40 -52 -40 -7 0 -17 -9 -23 -20 -6 -12 -21
-25 -33 -31 -12 -5 -32 -16 -44 -23 -13 -7 -31 -20 -41 -29 -10 -10 -26 -17
-34 -17 -9 0 -23 -11 -32 -25 -9 -14 -24 -25 -34 -25 -10 0 -23 -5 -30 -12 -7
-7 -12 -9 -12 -5 0 4 -10 -1 -22 -13 -12 -11 -32 -20 -45 -20 -13 0 -34 -6
-46 -14 -12 -7 -44 -17 -72 -21 -27 -5 -90 -7 -140 -6 -49 1 -154 -5 -232 -13
-97 -11 -151 -13 -168 -6 -14 5 -29 9 -33 8 -4 -2 -29 3 -57 11 -27 7 -77 21
-110 31 -33 10 -81 21 -107 25 -25 3 -64 15 -87 25 -22 11 -44 20 -50 20 -5 0
-22 6 -38 14 -15 8 -64 32 -108 53 -44 21 -82 38 -85 38 -3 0 -16 8 -30 16
-14 9 -50 31 -80 49 -30 18 -75 49 -100 69 -25 19 -76 67 -113 106 -38 38
-110 118 -160 176 -51 58 -104 126 -119 150 -15 24 -32 51 -37 59 -6 8 -19 35
-31 60 -11 25 -32 68 -47 95 -14 28 -30 66 -35 85 -4 19 -13 73 -18 120 -5 47
-12 105 -16 130 -3 25 -11 54 -18 65 -9 14 -12 73 -11 195 0 96 4 180 8 187 4
6 9 31 12 55 2 23 7 54 9 68 3 14 10 34 15 45 5 11 17 47 26 80 9 33 28 85 42
115 14 30 32 66 39 80 8 14 23 44 34 67 11 23 25 45 30 48 5 3 15 18 23 33 8
15 21 39 29 55 9 15 49 58 91 95 42 37 94 81 117 97 23 17 53 40 68 52 15 13
43 36 62 52 19 17 54 36 77 43 29 8 43 18 45 32 2 13 19 24 56 36 29 10 61 25
71 34 9 9 24 16 32 16 9 0 25 11 36 24 11 13 36 26 56 30 19 4 40 13 47 21 7
8 23 15 36 15 12 0 25 4 28 9 3 5 26 12 51 16 25 3 60 12 78 20 18 7 73 16
122 20 50 4 104 13 120 19 19 8 74 12 150 11z"/>
<g>
<path d="M7258 7469 c-29 -1 -60 -3 -68 -5 -8 -3 -24 -19 -34 -37 -11 -17 -20
-47 -21 -65 -2 -23 5 -43 22 -63 14 -16 38 -36 54 -44 15 -8 46 -15 67 -15 25
0 45 7 55 18 10 10 17 26 17 34 0 9 4 18 10 20 6 2 7 24 3 56 -4 34 -14 61
-29 77 -19 21 -32 25 -76 24z"/>
</g>
<g>
<path d="M5621 7409 c-31 0 -66 -5 -78 -11 -13 -6 -28 -29 -37 -59 -9 -26 -16
-62 -16 -79 0 -20 9 -39 25 -54 14 -13 45 -29 70 -35 24 -6 53 -11 64 -11 11
0 32 5 46 12 14 6 25 19 25 29 0 10 4 20 9 23 4 3 11 22 14 41 3 20 1 48 -4
63 -6 15 -22 39 -37 55 -22 23 -33 27 -81 26z"/>
</g>
<g>
<path d="M6401 7083 c-10 2 -26 0 -35 -5 -9 -5 -16 -18 -16 -29 0 -12 -6 -44
-14 -72 -8 -29 -17 -101 -21 -162 -4 -60 -13 -144 -20 -185 -8 -41 -15 -84
-15 -95 -1 -11 -3 -47 -6 -80 -5 -55 -3 -62 20 -84 24 -23 29 -23 80 -13 36 7
66 8 88 2 18 -6 35 -10 38 -10 3 0 5 24 4 53 0 52 0 52 -35 55 -19 1 -45 5
-58 8 l-23 5 6 117 c3 64 6 153 6 197 0 44 -3 92 -6 107 -4 18 1 32 15 45 13
12 23 38 27 66 4 30 2 52 -5 61 -6 8 -20 16 -30 19z"/>
</g>
<g>
<path d="M6823 5995 c-111 2 -204 0 -208 -3 -4 -4 -55 -7 -113 -8 -59 0 -198
-4 -310 -9 -201 -8 -204 -8 -220 -32 -11 -18 -13 -30 -6 -41 6 -9 33 -22 60
-30 38 -10 90 -11 239 -5 105 4 285 8 400 9 116 0 241 2 279 3 48 3 74 9 86
21 9 9 19 24 23 33 3 9 -2 26 -11 37 -16 20 -28 22 -219 25z"/>
</g>
</g>
<g>
<path d="M10375 8285 c-106 5 -123 4 -142 -12 -16 -14 -19 -23 -13 -39 5 -12
15 -26 22 -30 7 -5 69 -14 138 -20 70 -6 132 -7 142 -2 9 4 32 8 50 8 18 0 38
4 43 8 6 4 18 19 28 34 16 26 16 28 -3 38 -11 6 -48 10 -82 10 -35 -1 -117 2
-183 5z"/>
</g>
<g>
<path d="M2937 8209 c-23 0 -52 -4 -64 -9 -13 -5 -23 -18 -23 -28 0 -11 6 -24
13 -30 6 -5 44 -12 82 -16 39 -3 87 -10 107 -15 20 -5 39 -7 41 -5 2 2 12 -5
22 -16 12 -14 31 -20 57 -20 22 0 48 5 59 11 19 10 19 10 -1 40 -15 20 -30 29
-48 29 -15 0 -52 9 -82 20 -30 11 -67 20 -82 20 -15 0 -30 5 -33 10 -3 6 -25
10 -48 9z"/>
</g>
<g>
<path d="M11210 8159 c-8 0 -21 -6 -27 -14 -7 -8 -13 -26 -13 -40 0 -14 6 -28
13 -30 6 -3 23 -7 37 -9 14 -3 30 -5 35 -5 6 -1 21 -11 35 -24 14 -12 44 -37
67 -55 27 -21 51 -32 65 -30 15 2 24 11 26 26 2 12 -7 35 -20 51 -13 17 -44
46 -70 65 -25 20 -66 42 -90 51 -23 8 -50 15 -58 14z"/>
</g>
<g>
<path d="M2265 8139 c-5 -1 -30 -8 -55 -17 -25 -8 -54 -18 -65 -22 -11 -5 -47
-20 -80 -35 -33 -15 -71 -37 -83 -49 -13 -12 -33 -33 -43 -48 -16 -22 -18 -32
-9 -48 7 -13 21 -20 38 -20 20 0 43 15 82 54 35 35 68 58 94 66 23 6 59 19 81
30 26 11 56 16 85 14 25 -2 52 1 60 6 12 7 12 12 -4 29 -11 12 -35 25 -55 31
-20 5 -40 9 -46 9z"/>
</g>
<g>
<path d="M9825 8066 c-5 1 -53 -15 -105 -37 -52 -21 -102 -39 -112 -39 -9 0
-18 -3 -20 -7 -1 -5 -23 -26 -48 -48 -25 -22 -53 -57 -62 -78 -10 -22 -18 -45
-18 -52 0 -8 9 -17 21 -20 13 -4 37 2 65 17 24 12 44 28 44 34 0 6 8 18 18 27
10 10 26 17 34 17 9 0 30 14 48 30 18 17 36 30 40 30 4 0 19 6 33 13 14 7 37
27 52 45 14 17 25 39 23 49 -2 9 -7 17 -13 19z"/>
</g>
<g>
<path d="M3630 7960 c-10 0 -22 -5 -25 -10 -4 -6 -15 -10 -24 -8 -10 2 -18 -1
-17 -7 0 -5 13 -19 28 -30 15 -11 58 -43 95 -72 37 -29 85 -73 106 -98 27 -31
46 -45 63 -45 23 0 25 3 19 31 -4 18 -13 47 -21 65 -9 22 -35 48 -76 75 -35
23 -78 55 -96 71 -18 15 -41 28 -52 28z"/>
</g>
<g>
<path d="M1476 7629 c-11 0 -42 -10 -69 -21 -35 -15 -49 -28 -53 -47 -4 -14
-12 -33 -18 -41 -7 -8 -18 -26 -25 -40 -6 -14 -14 -35 -16 -45 -2 -11 -4 -22
-6 -25 -1 -3 -3 -9 -4 -15 -1 -5 -5 -23 -10 -39 -5 -19 -4 -31 5 -36 7 -5 20
-6 28 -2 9 3 24 14 34 24 10 10 18 22 18 26 0 5 9 17 20 27 11 10 17 21 14 26
-2 4 17 36 43 69 26 34 57 72 67 85 16 20 17 27 6 40 -7 8 -22 15 -34 14z"/>
</g>
<g>
<path d="M11718 7515 c-7 3 -18 -3 -24 -13 -7 -10 -9 -32 -7 -48 3 -16 14 -40
23 -54 10 -14 23 -43 30 -65 7 -22 17 -48 22 -58 5 -10 11 -34 14 -54 2 -19 7
-39 10 -44 3 -5 16 -9 29 -9 13 0 26 4 29 9 4 5 9 30 12 55 5 30 1 64 -11 105
-10 33 -29 71 -42 85 -13 14 -26 39 -29 56 -4 20 -12 30 -24 30 -10 0 -24 2
-32 5z"/>
</g>
<g>
<path d="M9109 7360 c-5 0 -17 -9 -26 -19 -10 -10 -29 -36 -43 -56 -14 -20
-32 -44 -41 -53 -8 -9 -23 -35 -32 -57 -11 -25 -19 -74 -21 -133 -3 -81 -1
-94 15 -102 10 -6 21 -19 24 -30 3 -11 13 -20 21 -20 10 0 14 15 13 63 -1 34
2 76 6 92 4 17 17 53 28 80 12 28 26 53 31 57 6 4 7 8 3 8 -4 0 8 29 27 65 20
35 36 66 36 69 0 2 -7 12 -16 20 -8 9 -20 16 -25 16z"/>
</g>
<g>
<path d="M4050 7310 c-10 5 -20 6 -24 3 -3 -3 -6 -19 -6 -34 0 -15 5 -31 10
-34 6 -4 8 -10 5 -15 -3 -5 -1 -11 4 -14 5 -3 18 -24 30 -46 12 -22 21 -48 22
-58 0 -9 15 -44 32 -77 26 -49 37 -61 61 -63 l28 -4 -4 82 c-2 60 -7 85 -19
93 -9 7 -24 27 -33 45 -9 18 -33 51 -53 73 -20 22 -44 44 -53 49z"/>
</g>
<g>
<path d="M1112 6790 c-4 -1 -17 -6 -29 -13 -12 -7 -34 -28 -48 -47 -25 -34
-25 -37 -19 -155 4 -66 12 -133 19 -150 7 -16 18 -50 26 -74 8 -26 21 -46 33
-51 15 -5 23 -3 28 9 4 9 7 77 7 151 0 74 -4 160 -8 190 -5 30 -5 60 -1 65 5
6 10 19 11 30 2 11 0 26 -4 33 -5 6 -11 12 -15 12z"/>
</g>
<g>
<path d="M11834 6600 c-18 0 -25 -7 -30 -27 -3 -16 -8 -35 -11 -43 -3 -8 -7
-42 -8 -76 -2 -37 -11 -76 -25 -101 -11 -22 -23 -57 -27 -76 -4 -29 -2 -36 15
-42 12 -3 30 -1 41 4 11 6 23 21 27 33 3 13 12 30 19 38 7 8 18 63 25 122 6
59 9 121 5 137 -5 24 -12 31 -31 31z"/>
</g>
<g>
<path d="M8939 6520 c-5 0 -17 -12 -26 -27 -14 -22 -18 -46 -16 -119 1 -56 8
-106 17 -129 9 -21 16 -44 16 -52 0 -8 12 -30 26 -49 15 -19 33 -34 40 -34 11
0 14 19 14 81 0 44 -4 88 -9 98 -6 10 -11 40 -12 67 -1 27 -6 69 -12 94 -5 25
-14 51 -20 58 -5 6 -13 12 -18 12z"/>
</g>
<g>
<path d="M4197 6480 c-28 0 -28 -1 -22 -44 4 -24 8 -88 8 -141 2 -81 5 -100
20 -109 13 -8 24 -7 45 4 26 15 27 18 25 95 -2 44 -4 87 -6 95 -2 8 -11 34
-22 58 -16 35 -23 42 -48 42z"/>
</g>
<g>
<path d="M1231 5897 c-15 9 -23 9 -37 -1 -9 -7 -19 -22 -20 -32 -2 -10 4 -27
13 -36 9 -10 13 -18 10 -18 -3 0 1 -24 9 -52 9 -29 27 -74 41 -100 14 -26 65
-85 113 -132 48 -48 93 -86 99 -86 6 0 11 8 11 19 0 10 -7 24 -15 31 -9 7 -35
41 -59 75 -24 35 -49 79 -56 99 -6 19 -16 38 -21 41 -5 4 -9 17 -9 31 0 13 -4
32 -9 42 -5 9 -19 37 -30 62 -11 25 -29 50 -40 57z"/>
</g>
<g>
<path d="M11516 5827 c-25 4 -36 2 -36 -6 0 -7 -6 -19 -14 -27 -8 -7 -16 -17
-18 -21 -1 -5 -30 -28 -63 -53 -32 -25 -67 -52 -76 -60 -10 -8 -24 -21 -33
-28 -9 -7 -13 -20 -9 -30 3 -9 13 -23 21 -29 9 -7 24 -13 34 -13 10 0 46 27
80 60 34 33 66 60 70 60 4 0 19 10 33 22 13 12 32 41 41 65 9 24 15 46 12 49
-3 3 -22 8 -42 11z"/>
</g>
<g>
<path d="M9322 5720 c-5 0 -12 -3 -15 -7 -4 -3 -7 -16 -7 -28 0 -11 16 -37 36
-56 20 -18 44 -50 55 -71 10 -20 31 -45 47 -56 15 -12 40 -24 55 -27 15 -4 38
-4 52 -1 14 4 25 11 25 17 0 6 -21 33 -47 59 -27 27 -63 68 -82 90 -19 23 -52
50 -72 61 -21 10 -42 19 -47 19z"/>
</g>
<g>
<path d="M4058 5659 c-13 0 -29 -3 -37 -6 -7 -3 -26 -20 -42 -37 -16 -17 -29
-35 -29 -40 0 -5 -16 -28 -35 -52 -19 -23 -35 -49 -35 -58 0 -8 -5 -18 -12
-22 -8 -5 -6 -11 7 -20 15 -11 24 -10 59 8 22 11 58 39 79 62 21 22 49 57 63
77 20 30 23 41 15 63 -7 18 -17 26 -33 25z"/>
</g>
<g>
<path d="M11023 5329 c-24 7 -35 6 -43 -4 -6 -7 -34 -16 -63 -20 -29 -4 -65
-13 -81 -21 -16 -8 -48 -14 -72 -14 -30 0 -46 -5 -52 -17 -8 -13 -4 -21 14
-36 15 -12 47 -21 83 -24 49 -5 67 -1 114 21 31 14 59 26 62 26 4 0 22 7 41
16 25 12 34 23 34 40 0 13 -1 24 -3 24 -1 0 -16 4 -34 9z"/>
</g>
<g>
<path d="M9964 5320 c-8 0 -17 -7 -20 -15 -3 -8 3 -29 13 -47 10 -18 30 -38
44 -45 13 -6 46 -14 72 -17 27 -4 67 -10 91 -16 23 -5 65 -7 94 -5 28 2 56 6
62 10 5 3 10 19 10 35 0 18 -7 33 -17 38 -10 5 -67 13 -127 16 -69 5 -127 15
-158 27 -27 10 -55 19 -64 19z"/>
</g>
<g>
<path d="M1767 5228 c-17 2 -29 -2 -33 -12 -3 -8 -4 -23 -2 -32 2 -10 55 -53
120 -96 111 -75 119 -78 179 -81 41 -1 63 2 66 10 3 7 -10 22 -29 33 -18 11
-44 23 -58 27 -14 3 -41 19 -61 34 -20 16 -40 29 -44 29 -4 0 -18 9 -32 20
-14 11 -33 20 -42 20 -9 0 -21 10 -26 23 -6 13 -21 23 -38 25z"/>
</g>
<g>
<path d="M3525 5148 c-23 2 -46 -3 -53 -10 -6 -6 -12 -9 -12 -5 0 4 -30 -5
-67 -18 -38 -14 -74 -33 -80 -42 -7 -9 -13 -25 -13 -35 0 -15 8 -18 49 -18 27
0 62 7 77 15 16 8 38 15 50 15 11 0 41 10 67 23 44 21 46 23 34 47 -10 19 -21
26 -52 28z"/>
</g>
<g>
<path d="M2807 5025 c-30 2 -57 2 -60 -1 -3 -4 -41 -9 -84 -13 -62 -5 -78 -9
-81 -23 -2 -9 8 -24 22 -34 17 -10 47 -17 84 -17 31 0 89 1 127 2 39 1 76 5
84 10 8 5 11 16 6 30 -3 11 -15 26 -25 31 -11 6 -43 12 -73 15z"/>
</g>
<g>
<path d="M6532 4220 c-56 -1 -93 -5 -104 -14 -10 -7 -18 -22 -18 -32 0 -10 6
-26 13 -35 9 -12 29 -17 69 -18 32 0 60 4 63 9 4 6 24 10 46 10 26 0 42 5 45
15 4 8 -1 26 -10 40 -16 24 -22 25 -104 25z"/>
</g>
<g>
<path d="M7136 4186 c-58 4 -106 5 -107 3 0 -2 -2 -12 -4 -22 -2 -10 10 -27
29 -42 25 -19 57 -29 129 -39 53 -8 107 -20 119 -27 13 -6 30 -18 39 -26 14
-12 19 -12 33 2 9 9 16 31 16 48 0 18 -4 38 -9 46 -5 7 -21 14 -37 16 -16 1
-45 9 -65 18 -21 9 -81 19 -143 23z"/>
</g>
<g>
<path d="M5917 4029 c-6 0 -22 -4 -35 -9 -12 -5 -32 -19 -45 -31 -12 -11 -36
-32 -54 -46 -18 -13 -41 -44 -52 -67 -12 -23 -21 -48 -21 -55 0 -7 9 -11 23
-9 12 2 26 13 32 26 5 12 15 22 22 22 6 0 18 8 25 18 7 9 24 18 38 20 14 1 30
9 36 17 6 8 18 15 27 15 9 0 24 11 33 25 15 23 15 27 0 50 -9 14 -22 25 -29
24z"/>
</g>
<g>
<path d="M7795 3874 c-17 4 -34 4 -38 0 -4 -4 -7 -15 -7 -25 0 -10 34 -57 75
-106 41 -48 75 -93 75 -100 0 -6 8 -14 19 -18 10 -3 26 -3 35 1 11 4 16 18 16
49 0 27 -6 47 -16 56 -9 8 -27 30 -40 51 -13 20 -38 48 -56 61 -18 14 -47 28
-63 31z"/>
</g>
<g>
<path d="M5370 3558 c-3 0 -15 -3 -27 -5 -14 -3 -33 -24 -53 -57 -16 -30 -30
-61 -30 -70 0 -9 -4 -16 -10 -16 -5 0 -10 -9 -10 -20 0 -11 -9 -38 -21 -60
-12 -22 -25 -40 -30 -40 -5 0 -9 -11 -9 -25 0 -13 5 -35 12 -49 6 -14 20 -28
31 -32 10 -3 23 -2 28 3 6 6 12 35 15 67 3 43 13 69 42 112 20 31 47 73 60 94
13 22 25 49 27 62 3 12 -1 26 -8 30 -6 4 -14 7 -17 6z"/>
</g>
<g>
<path d="M8135 3230 c-19 0 -25 -7 -30 -33 -4 -22 0 -48 15 -81 11 -27 22 -65
24 -85 3 -20 7 -76 11 -126 4 -49 12 -96 17 -102 6 -7 16 -13 23 -13 7 0 21
17 31 38 9 20 20 61 22 91 3 29 -1 79 -8 110 -8 31 -17 61 -21 67 -5 6 -10 25
-11 43 -1 18 -6 35 -10 37 -4 3 -8 13 -8 24 0 10 -7 21 -16 24 -9 3 -26 6 -39
6z"/>
</g>
<g>
<path d="M5282 2630 c-4 0 -15 -17 -25 -38 -17 -36 -17 -43 -1 -157 14 -95 24
-133 51 -185 19 -36 44 -73 55 -82 11 -10 27 -18 34 -18 8 0 17 6 20 14 3 7
-8 36 -24 62 -17 27 -32 69 -35 94 -3 25 -8 63 -11 85 -3 22 -8 60 -11 84 -3
24 -10 50 -16 58 -7 7 -9 16 -6 20 3 3 0 18 -9 34 -8 16 -18 29 -22 29z"/>
</g>
<g>
<path d="M8139 2310 c-5 0 -9 -7 -9 -15 0 -8 -6 -15 -14 -15 -8 0 -22 -10 -30
-22 -9 -12 -16 -34 -16 -49 0 -15 -7 -29 -15 -33 -8 -3 -15 -14 -15 -24 0 -10
-5 -23 -11 -29 -6 -6 -16 -20 -23 -31 -6 -11 -24 -44 -39 -73 -16 -30 -39 -68
-52 -85 -22 -29 -23 -33 -9 -53 8 -11 26 -21 39 -21 15 0 31 11 44 29 12 16
21 34 21 39 0 6 10 23 23 39 12 15 35 53 50 83 16 30 32 62 36 70 4 8 14 26
21 40 7 13 19 46 26 72 10 41 10 51 -3 63 -8 8 -19 15 -24 15z"/>
</g>
<g>
<path d="M5656 1820 c-6 0 -17 -5 -24 -12 -7 -7 -12 -16 -12 -21 0 -5 16 -29
37 -53 20 -25 63 -67 95 -94 41 -34 79 -56 123 -69 39 -12 77 -18 98 -14 22 3
37 12 40 23 2 9 0 24 -4 33 -5 8 -24 19 -42 22 -17 4 -36 11 -42 14 -5 4 -26
14 -45 21 -19 8 -44 23 -55 33 -11 11 -31 26 -45 35 -14 9 -44 31 -68 49 -24
18 -49 33 -56 33z"/>
</g>
<g>
<path d="M7647 1700 c-7 0 -30 -15 -52 -32 -22 -18 -58 -51 -80 -73 -22 -22
-53 -47 -70 -55 -16 -8 -42 -22 -57 -32 -14 -10 -40 -18 -57 -18 -18 0 -43 -7
-56 -16 -14 -9 -25 -22 -25 -29 0 -7 6 -17 13 -23 6 -5 29 -13 51 -16 21 -4
42 -8 46 -11 5 -3 21 0 36 5 16 6 55 30 89 52 33 23 82 62 108 87 26 25 55 62
63 81 8 19 12 45 9 57 -3 13 -11 23 -18 23z"/>
</g>
<g>
<path d="M6716 1416 c-54 1 -109 -4 -136 -12 -25 -8 -66 -16 -92 -18 -33 -3
-50 0 -59 10 -6 8 -22 14 -35 14 -13 0 -24 -6 -25 -12 0 -7 -2 -24 -4 -38 -1
-14 1 -32 6 -41 5 -9 21 -19 36 -22 15 -3 51 -1 78 5 28 5 102 13 165 17 98 6
121 11 152 32 21 13 38 27 38 30 0 4 -7 13 -16 20 -11 9 -48 14 -108 15z"/>
</g>
</g>
</svg>
