<?xml version="1.0" standalone="no"?>
<!DOCTYPE svg PUBLIC "-//W3C//DTD SVG 20010904//EN"
 "http://www.w3.org/TR/2001/REC-SVG-20010904/DTD/svg10.dtd">
<svg version="1.0" xmlns="http://www.w3.org/2000/svg"
 width="1752.000000pt" height="2048.000000pt" viewBox="0 0 1752.000000 2048.000000"
 preserveAspectRatio="xMidYMid meet">
<metadata>
Created by potrace 1.16, written by Peter Selinger 2001-2019
</metadata>
<g transform="translate(0.000000,2048.000000) scale(0.100000,-0.100000)"
fill="#000000" stroke="none">
<g>
<path d="M8977 19804 c-98 0 -179 0 -180 0 -1 -1 -42 -4 -92 -8 -49 -3 -115
-9 -145 -11 -30 -3 -64 -9 -75 -14 -11 -5 -42 -19 -70 -31 -27 -12 -60 -26
-72 -31 -13 -5 -33 -14 -45 -19 -13 -6 -33 -12 -46 -15 -13 -2 -35 -10 -50
-18 -15 -7 -36 -18 -47 -24 -11 -6 -51 -26 -90 -44 -38 -19 -72 -36 -75 -39
-3 -3 -14 -11 -25 -17 -11 -7 -48 -29 -83 -49 -34 -20 -68 -41 -75 -48 -7 -6
-25 -18 -42 -26 -16 -8 -39 -22 -50 -31 -11 -9 -31 -19 -45 -22 -14 -4 -37
-18 -52 -32 -15 -14 -30 -25 -34 -25 -4 0 -39 -26 -78 -59 -39 -32 -96 -74
-126 -94 -30 -20 -68 -47 -84 -61 -16 -14 -32 -26 -35 -26 -3 0 -25 -17 -47
-37 -23 -21 -65 -58 -95 -83 -29 -25 -60 -43 -69 -41 -8 1 -17 7 -20 11 -3 4
-34 18 -69 30 -58 19 -65 20 -87 5 -13 -8 -24 -22 -24 -30 0 -9 10 -20 23 -25
12 -5 42 -26 66 -47 l44 -39 -67 -68 c-36 -38 -66 -76 -66 -86 0 -9 8 -24 18
-33 10 -10 24 -17 31 -17 7 0 48 36 92 80 43 44 84 80 92 80 7 0 17 -3 21 -7
4 -5 11 -8 15 -8 4 0 29 -18 57 -41 27 -22 65 -47 84 -54 19 -8 55 -28 80 -45
25 -16 53 -31 62 -33 9 -1 53 -20 96 -42 44 -22 86 -40 94 -40 9 0 26 -8 39
-18 13 -10 35 -22 49 -28 14 -6 66 -30 115 -54 50 -23 99 -46 110 -50 11 -5
50 -23 88 -40 37 -18 73 -33 80 -34 6 -2 19 -6 27 -9 8 -3 56 -16 105 -29 79
-20 114 -22 290 -22 110 0 220 3 245 8 25 4 88 11 140 16 52 5 129 14 170 20
41 7 113 18 160 25 47 8 114 21 150 30 36 9 103 26 150 38 47 11 108 29 135
40 28 10 61 21 75 25 14 3 35 11 47 19 12 8 46 21 75 29 29 8 61 17 71 19 9 2
30 12 45 22 15 11 50 31 78 46 29 15 57 27 63 27 5 0 59 27 118 60 59 33 113
60 120 60 7 0 51 26 99 58 47 31 98 65 112 74 15 10 32 18 37 17 6 0 32 -27
60 -60 38 -45 56 -59 77 -59 16 0 33 9 42 22 9 12 16 33 16 46 0 13 -13 35
-28 50 -15 15 -34 35 -41 44 -10 13 -10 22 0 39 6 12 25 34 42 48 17 14 44 31
61 36 23 8 32 18 37 45 4 19 3 42 -1 51 -5 9 -18 19 -28 21 -10 3 -27 2 -37
-2 -11 -4 -50 -35 -87 -69 -61 -57 -69 -61 -90 -50 -13 6 -50 39 -83 73 -33
34 -86 90 -117 123 -31 33 -89 82 -130 108 -40 27 -80 56 -88 65 -8 10 -27 20
-41 24 -14 3 -38 17 -53 31 -15 14 -31 25 -36 25 -5 0 -26 7 -47 16 -21 9 -54
25 -73 34 -19 10 -61 32 -93 49 -31 17 -62 31 -68 31 -6 0 -57 22 -114 50 -56
27 -135 57 -176 66 -41 9 -88 23 -106 30 -17 8 -37 14 -45 14 -7 0 -22 6 -33
13 -11 8 -49 22 -85 32 -50 14 -105 18 -243 19z m-280 -135 c16 1 21 -3 17
-14 -4 -8 -12 -15 -20 -15 -8 0 -23 -4 -34 -10 -11 -5 -30 -15 -42 -21 -12 -7
-32 -15 -44 -18 -12 -3 -48 -28 -80 -56 -32 -27 -82 -74 -111 -103 -29 -30
-53 -60 -53 -67 0 -7 -8 -23 -19 -36 -10 -13 -30 -67 -45 -119 -17 -56 -31
-136 -35 -195 -5 -72 -2 -135 10 -225 9 -69 27 -154 39 -190 12 -36 33 -85 47
-108 14 -24 26 -55 28 -68 2 -19 -1 -22 -11 -13 -7 5 -31 34 -53 63 -23 29
-52 73 -66 97 -13 24 -32 60 -41 79 -9 19 -23 60 -32 90 -8 30 -17 91 -19 134
-3 52 1 105 12 155 9 42 29 114 44 161 16 47 34 101 42 120 7 19 26 54 42 78
16 24 56 72 89 107 33 35 69 67 81 71 12 3 29 12 37 19 8 7 56 29 105 48 50
20 100 36 112 36z m277 -5 c41 -2 104 -13 142 -25 37 -12 82 -32 101 -45 18
-12 55 -33 81 -45 26 -12 67 -38 92 -58 25 -20 59 -50 75 -68 17 -17 36 -40
42 -50 7 -10 19 -31 27 -48 8 -16 26 -64 39 -105 20 -60 25 -98 26 -187 1 -84
-3 -132 -19 -194 -12 -45 -30 -94 -41 -107 -10 -14 -19 -31 -19 -38 0 -8 -4
-14 -10 -14 -5 0 -10 -4 -10 -9 0 -6 -14 -30 -30 -54 -17 -25 -46 -59 -65 -76
-20 -17 -47 -34 -60 -37 -14 -3 -25 -10 -25 -15 0 -5 -21 -18 -47 -29 -27 -12
-76 -35 -110 -53 -59 -30 -63 -31 -79 -15 -17 16 -17 18 1 38 10 11 25 20 34
20 8 0 45 20 81 44 36 24 112 92 168 151 56 58 102 112 102 120 0 7 5 15 11
17 5 2 14 24 20 48 5 25 13 54 19 65 5 11 16 47 26 80 10 35 17 91 16 134 -1
48 -6 79 -15 90 -8 9 -24 35 -36 58 -12 24 -62 85 -112 137 -50 52 -111 107
-136 122 -25 14 -50 27 -57 28 -6 1 -26 12 -43 24 -17 12 -40 22 -51 22 -12 0
-24 5 -27 10 -3 6 -14 10 -23 10 -9 0 -50 10 -89 22 -40 13 -73 25 -73 29 0 3
33 5 74 3z m465 -74 c11 -5 32 -10 46 -10 15 0 59 -14 98 -31 40 -17 104 -46
143 -64 39 -18 81 -36 94 -40 13 -4 78 -35 145 -69 66 -34 140 -76 165 -93 25
-18 63 -45 84 -60 22 -15 97 -85 168 -155 70 -71 128 -134 128 -141 0 -8 -25
-32 -56 -55 -31 -23 -62 -42 -69 -42 -8 0 -15 -4 -17 -8 -1 -4 -19 -18 -39
-30 -20 -12 -46 -22 -58 -22 -11 0 -21 -4 -21 -8 0 -5 -19 -16 -42 -27 -24
-10 -55 -26 -69 -36 -14 -10 -45 -25 -70 -35 -24 -9 -51 -22 -59 -29 -8 -7
-35 -20 -60 -29 -25 -10 -81 -32 -125 -50 -44 -19 -102 -40 -130 -49 -27 -8
-72 -23 -100 -33 -27 -9 -69 -26 -92 -36 -24 -10 -54 -18 -68 -18 -25 0 -23 3
22 41 26 23 55 49 64 58 9 10 28 37 41 62 14 24 42 71 62 103 20 33 36 67 36
77 0 9 8 36 19 60 14 32 19 72 20 149 1 58 -3 139 -9 180 -5 41 -22 113 -37
160 -15 47 -37 101 -50 120 -12 19 -28 42 -35 50 -7 9 -43 37 -80 63 -38 27
-68 50 -68 53 0 3 9 0 19 -6z m-652 -20 c18 0 33 -5 33 -11 0 -7 14 -10 38 -7
20 3 51 -1 69 -8 17 -8 35 -19 38 -24 5 -8 -11 -10 -47 -9 -29 1 -80 -1 -113
-6 -33 -4 -82 -18 -110 -30 -27 -12 -60 -25 -72 -29 -13 -4 -23 -14 -23 -22 0
-8 -5 -14 -12 -14 -6 0 -34 -24 -62 -53 -28 -29 -63 -79 -78 -112 -14 -33 -32
-87 -40 -120 -7 -33 -12 -87 -12 -120 1 -33 5 -99 8 -148 4 -48 11 -99 17
-115 6 -15 10 -27 9 -27 -1 0 3 -13 9 -28 6 -16 11 -39 11 -52 0 -13 5 -27 10
-30 6 -4 16 -21 24 -38 7 -18 26 -47 41 -66 16 -18 59 -48 99 -66 39 -19 89
-38 111 -43 22 -6 69 -14 104 -17 l65 -7 -29 -15 c-16 -9 -56 -17 -89 -19 -45
-3 -80 3 -135 21 -41 14 -89 35 -107 46 -19 11 -53 44 -77 72 -23 29 -47 63
-53 77 -6 14 -20 54 -32 90 -11 36 -28 100 -36 144 -9 43 -16 118 -16 168 0
49 5 121 11 161 6 39 17 80 24 92 7 11 16 35 20 53 4 18 23 54 42 80 20 26 40
49 46 51 5 2 29 22 53 46 25 23 86 63 136 88 54 28 106 47 125 47z m-534 -10
c23 0 26 -3 18 -18 -5 -9 -19 -26 -30 -36 -12 -11 -21 -23 -21 -29 0 -5 -13
-26 -28 -46 -16 -20 -34 -52 -42 -71 -7 -19 -18 -41 -23 -48 -6 -7 -19 -37
-29 -65 -11 -29 -23 -65 -28 -82 -5 -16 -16 -57 -25 -90 -12 -47 -15 -87 -9
-188 3 -79 11 -139 20 -155 8 -15 14 -38 14 -52 0 -14 6 -36 14 -50 7 -14 32
-61 55 -105 23 -44 65 -103 92 -131 27 -27 46 -53 43 -57 -4 -4 2 -7 14 -7 11
0 24 -5 27 -11 4 -6 4 -13 1 -16 -3 -4 -18 0 -33 7 -16 7 -34 12 -41 11 -8 -1
-23 4 -35 12 -12 8 -39 17 -60 21 -21 4 -66 19 -100 33 -34 14 -76 32 -94 39
-17 8 -36 14 -42 14 -6 0 -11 6 -11 13 0 7 -36 26 -80 42 -44 17 -80 33 -80
38 0 4 -8 7 -18 7 -10 0 -27 7 -38 15 -10 8 -25 15 -32 15 -8 0 -55 20 -105
45 -51 25 -103 52 -117 59 -14 8 -38 20 -55 26 -16 7 -32 12 -35 12 -3 0 -17
9 -32 19 -14 10 -29 19 -33 19 -4 0 -20 10 -35 23 -15 12 -37 29 -49 37 -11 8
-21 22 -21 32 0 9 27 38 60 63 33 25 63 51 67 59 4 7 33 31 64 54 31 23 61 42
67 42 7 0 24 14 39 30 15 17 43 41 63 53 19 12 50 35 68 51 18 16 54 42 81 58
27 15 52 32 56 38 3 5 15 10 25 10 10 0 31 10 47 23 15 12 48 33 73 46 25 13
54 32 65 41 11 10 57 36 101 59 45 23 87 41 93 41 7 0 29 11 49 25 20 14 49
25 65 25z m764 -50 c4 0 32 -10 63 -21 30 -12 79 -33 108 -47 29 -13 65 -39
80 -57 15 -19 57 -66 94 -107 38 -40 68 -78 68 -84 0 -7 7 -25 15 -40 8 -16
15 -45 15 -65 0 -20 -9 -63 -20 -95 -10 -33 -28 -86 -40 -119 -11 -33 -26 -71
-32 -85 -7 -14 -29 -44 -48 -67 -20 -22 -74 -72 -120 -110 -47 -37 -91 -73
-97 -80 -7 -6 -31 -14 -53 -18 -22 -4 -42 -10 -45 -15 -3 -4 -19 -10 -37 -14
-18 -3 -55 -8 -82 -11 -26 -3 -73 -1 -105 6 -31 6 -60 14 -66 18 -5 3 -25 11
-44 16 -18 6 -33 12 -31 15 1 3 -13 22 -32 42 -24 27 -43 66 -66 135 -25 78
-33 124 -39 224 -5 69 -5 146 -2 170 4 25 18 70 32 100 14 31 50 79 82 112 32
31 64 57 71 57 7 0 34 10 61 21 34 15 71 22 126 23 50 1 80 -3 85 -11 4 -6 21
-15 37 -19 17 -4 64 -38 105 -77 41 -38 89 -91 108 -117 18 -26 39 -71 47 -99
9 -35 11 -62 4 -84 -5 -18 -23 -64 -39 -103 -29 -65 -35 -72 -86 -98 -30 -15
-61 -29 -68 -30 -8 -1 -20 -7 -27 -13 -8 -6 -36 -14 -64 -18 -27 -4 -85 -8
-127 -9 l-78 -1 -24 45 c-13 25 -32 72 -41 105 -9 33 -17 78 -17 101 1 23 11
66 22 97 14 37 34 67 63 92 38 34 46 37 89 33 25 -3 54 -12 63 -21 9 -10 22
-17 29 -17 7 0 21 -10 32 -22 11 -13 28 -40 37 -61 9 -21 17 -48 17 -60 0 -12
-14 -38 -31 -56 -23 -25 -33 -31 -42 -22 -6 6 -26 11 -44 11 -18 0 -33 5 -33
10 0 6 12 16 26 22 24 11 26 16 21 56 -3 24 -9 48 -15 54 -6 6 -29 8 -56 4
-38 -6 -50 -14 -70 -42 -21 -31 -22 -40 -14 -86 5 -28 16 -57 24 -65 8 -8 14
-18 14 -22 0 -4 17 -13 39 -19 21 -7 50 -12 64 -12 14 0 37 -5 50 -11 21 -9
30 -7 56 12 18 13 51 48 73 77 34 43 42 63 44 100 1 29 -4 58 -14 75 -9 15
-20 27 -23 27 -4 0 -10 8 -14 19 -3 10 -26 39 -50 65 -25 25 -57 52 -72 60
-16 8 -42 15 -58 17 -17 2 -58 -1 -92 -5 -35 -5 -68 -15 -74 -22 -6 -8 -17
-14 -24 -14 -7 0 -29 -17 -49 -37 -20 -21 -36 -42 -36 -48 0 -7 -12 -40 -26
-76 -24 -58 -26 -72 -20 -152 4 -48 16 -118 28 -155 11 -36 29 -78 39 -91 11
-14 29 -31 40 -39 12 -8 36 -18 55 -22 19 -4 76 -4 127 1 50 5 103 10 116 9
13 0 29 4 35 9 6 5 28 18 49 30 21 12 46 21 57 21 10 0 36 10 57 22 21 12 46
28 56 37 10 8 38 56 61 106 24 51 47 114 51 142 4 29 1 76 -5 111 -7 34 -21
69 -31 78 -11 9 -19 28 -19 41 0 12 -5 23 -10 23 -6 0 -44 34 -85 76 -41 42
-87 83 -101 90 -14 8 -44 24 -65 36 -21 12 -39 25 -39 30 0 4 3 8 7 8z"/>
</g>
<g>
<path d="M11077 19010 c-10 0 -29 -11 -42 -25 -15 -14 -25 -36 -25 -52 0 -16
9 -36 20 -46 11 -9 29 -17 40 -17 10 0 29 5 42 10 19 9 23 19 25 64 2 48 -1
55 -20 60 -12 3 -30 6 -40 6z"/>
</g>
<g>
<path d="M6520 18820 c-20 0 -35 -8 -48 -28 -11 -15 -21 -34 -23 -42 -2 -8 0
-25 4 -36 4 -12 18 -25 30 -28 12 -3 31 -6 42 -6 12 0 28 12 38 29 9 16 17 38
17 48 0 10 -7 29 -16 41 -10 14 -26 22 -44 22z"/>
</g>
<g>
<path d="M7709 17680 c-14 0 -30 -5 -35 -10 -6 -6 -8 -29 -5 -53 5 -34 10 -43
30 -45 12 -2 34 -1 47 2 19 5 24 13 24 40 0 19 -8 40 -18 49 -10 10 -30 17
-43 17z"/>
</g>
<g>
<path d="M10295 17570 c-7 0 -23 -12 -34 -27 -12 -14 -24 -37 -27 -50 -4 -12
-4 -30 0 -38 3 -9 18 -15 39 -15 22 0 41 8 55 23 12 13 22 30 22 39 0 8 -9 27
-21 42 -11 14 -27 26 -34 26z"/>
</g>
<g>
<path d="M8759 16800 c-3 0 -14 -6 -24 -14 -14 -10 -19 -27 -19 -67 -1 -48 2
-55 25 -66 24 -12 30 -10 58 16 17 16 31 38 31 48 0 11 -15 33 -33 51 -18 18
-35 32 -38 32z"/>
</g>
<g>
<path d="M9373 16669 c-21 0 -60 -11 -88 -25 -27 -13 -57 -24 -66 -24 -9 0
-20 -7 -23 -16 -3 -9 -6 -24 -6 -34 0 -10 9 -25 20 -33 16 -11 30 -12 63 -4
23 5 49 13 57 17 8 4 20 16 25 26 6 11 20 29 33 42 12 12 22 29 22 37 0 11
-10 15 -37 14z"/>
</g>
<g>
<path d="M10766 16549 c-6 -1 -28 -8 -48 -16 -21 -9 -38 -20 -38 -26 0 -6 -12
-23 -27 -39 -23 -24 -25 -31 -15 -53 7 -14 19 -28 28 -32 9 -3 24 -1 33 5 9 7
30 19 46 28 17 8 36 27 43 42 6 14 12 35 12 47 0 12 -5 26 -12 33 -7 7 -17 12
-22 11z"/>
</g>
<g>
<path d="M9659 16228 c-15 2 -32 -5 -42 -16 -10 -11 -22 -34 -27 -53 -6 -19
-10 -38 -10 -44 0 -5 4 -15 8 -21 4 -6 17 -14 30 -18 16 -6 24 -3 29 11 4 10
16 34 28 53 14 23 19 43 15 60 -4 17 -14 26 -31 28z"/>
</g>
<g>
<path d="M8435 16200 c-19 0 -28 -9 -40 -37 -15 -35 -14 -37 7 -60 12 -12 27
-23 33 -23 7 0 20 9 30 20 16 18 17 25 6 60 -10 33 -16 40 -36 40z"/>
</g>
<g>
<path d="M11217 16170 c-14 0 -18 -6 -15 -27 2 -20 9 -28 22 -28 10 0 24 8 30
18 8 14 8 20 -4 27 -8 5 -23 10 -33 10z"/>
</g>
<g>
<path d="M7910 16120 c-17 0 -30 -7 -34 -17 -5 -12 -9 -14 -18 -5 -7 7 -23 12
-36 12 -17 0 -43 -19 -82 -58 -49 -50 -56 -62 -47 -78 6 -10 23 -31 38 -46 16
-16 43 -30 66 -34 35 -5 42 -3 61 21 13 16 22 42 22 61 0 19 5 34 10 34 6 0
21 10 34 23 17 18 22 31 18 55 -4 27 -8 32 -32 32z"/>
</g>
<g>
<path d="M6954 16040 c-12 0 -30 -7 -38 -16 -9 -8 -16 -19 -16 -24 0 -5 18
-24 40 -43 22 -19 40 -39 40 -45 0 -6 8 -16 18 -21 11 -6 35 -5 65 2 37 8 52
17 63 38 8 16 14 35 14 43 0 9 -14 23 -32 32 -24 13 -36 14 -50 5 -10 -6 -24
-11 -31 -11 -8 0 -22 9 -32 20 -10 11 -28 20 -41 20z"/>
</g>
<g>
<path d="M8941 16030 c-10 0 -20 -2 -22 -4 -3 -3 -27 -6 -54 -7 -32 -2 -75
-15 -120 -37 -38 -18 -89 -52 -113 -75 -24 -23 -50 -54 -58 -69 -8 -15 -14
-32 -14 -37 0 -6 9 -15 20 -21 16 -8 27 -5 61 20 24 17 51 44 61 60 10 17 25
30 35 30 9 0 24 6 32 13 9 8 35 19 57 25 23 7 63 12 90 12 27 0 85 -12 129
-27 63 -21 88 -35 117 -67 20 -22 36 -41 35 -42 -1 -1 -42 2 -92 6 -49 5 -127
13 -172 20 -58 8 -98 8 -138 1 -31 -6 -84 -24 -118 -40 -44 -20 -84 -31 -137
-35 -41 -3 -86 -8 -100 -12 -14 -3 -39 -12 -57 -20 -17 -8 -46 -35 -63 -60
-18 -28 -33 -66 -38 -97 -6 -45 -10 -52 -32 -55 -14 -2 -45 -10 -70 -19 -25
-9 -57 -25 -72 -35 -14 -10 -33 -18 -41 -18 -9 0 -19 -4 -22 -10 -3 -5 -13
-10 -22 -10 -9 0 -24 -6 -32 -14 -9 -8 -41 -27 -71 -42 -30 -15 -70 -39 -87
-53 -18 -14 -33 -31 -33 -37 0 -6 -9 -19 -21 -30 -11 -10 -30 -37 -40 -59 -16
-33 -19 -52 -14 -105 4 -36 10 -79 15 -97 4 -17 23 -51 42 -74 18 -22 64 -66
102 -95 38 -30 77 -54 85 -54 9 0 27 -6 41 -13 14 -7 44 -19 67 -26 23 -8 40
-17 38 -21 -3 -4 -24 -10 -47 -14 -24 -3 -56 -13 -73 -21 -16 -8 -46 -22 -65
-30 -19 -8 -51 -27 -70 -41 -19 -14 -52 -41 -72 -60 -20 -19 -41 -34 -45 -34
-4 0 -32 -23 -60 -50 -40 -38 -53 -58 -53 -79 0 -16 7 -34 15 -41 8 -7 15 -18
16 -24 0 -6 27 -34 60 -63 41 -35 84 -61 137 -81 42 -16 106 -36 142 -45 36
-9 130 -26 210 -38 80 -12 165 -23 190 -25 25 -1 66 -7 91 -13 26 -6 120 -11
209 -12 89 0 183 4 208 10 26 6 99 22 162 35 63 14 130 27 147 30 18 3 57 1
85 -5 29 -6 105 -14 169 -18 64 -5 142 -5 173 0 32 4 73 15 93 24 19 9 46 15
60 12 14 -2 48 4 76 14 29 11 61 19 72 19 12 0 33 -6 48 -12 15 -7 27 -18 27
-25 0 -7 -6 -16 -12 -20 -7 -4 -22 -21 -34 -38 -11 -16 -26 -45 -33 -63 -8
-18 -36 -53 -63 -77 -28 -25 -56 -45 -63 -45 -8 0 -21 -7 -30 -16 -9 -9 -33
-23 -53 -30 -20 -7 -41 -9 -46 -4 -5 5 1 24 14 45 16 25 19 40 12 47 -6 6 -8
17 -5 26 5 12 -1 14 -41 10 -26 -3 -55 -13 -64 -21 -11 -10 -17 -29 -16 -54 1
-21 -2 -45 -7 -54 -6 -11 -34 -20 -91 -29 -46 -7 -135 -24 -198 -37 -63 -14
-126 -26 -140 -28 -14 -2 -52 -8 -85 -14 -33 -5 -118 -15 -190 -21 -71 -6
-148 -13 -170 -15 -22 -3 -62 -11 -90 -19 -27 -8 -77 -17 -110 -20 -33 -4 -72
-9 -87 -11 -15 -3 -60 1 -100 9 -40 8 -95 18 -123 22 -27 5 -53 7 -58 6 -4 -1
-47 5 -95 13 -48 8 -107 22 -132 30 -25 9 -52 21 -61 28 -8 7 -23 24 -33 38
-16 26 -16 28 8 64 14 21 56 57 92 81 37 24 92 51 123 60 31 9 68 21 84 26 18
7 27 17 27 33 0 13 -10 27 -25 35 -16 8 -40 11 -72 6 -26 -3 -52 -11 -57 -16
-6 -6 -18 -10 -27 -10 -9 0 -22 -7 -30 -16 -7 -9 -41 -29 -76 -46 -46 -23 -77
-48 -118 -97 -51 -59 -56 -70 -52 -103 3 -23 19 -54 43 -83 22 -26 56 -55 76
-66 20 -10 70 -24 110 -30 40 -6 105 -18 143 -26 39 -7 81 -16 93 -18 13 -2
26 -6 30 -9 3 -3 -11 -6 -30 -6 -23 0 -38 -5 -42 -16 -3 -9 -6 -25 -6 -36 0
-12 36 -54 89 -106 49 -48 96 -93 105 -99 8 -7 20 -13 25 -13 5 0 27 -10 47
-22 21 -12 47 -23 58 -23 12 -1 43 -2 70 -3 42 -2 47 -4 36 -17 -7 -8 -10 -25
-7 -37 4 -13 31 -47 60 -77 l55 -53 103 0 c57 0 136 6 174 13 39 6 83 13 98
14 16 2 36 10 46 19 10 9 22 16 27 16 5 0 25 8 44 18 19 9 72 42 118 72 45 30
85 62 88 72 2 9 17 34 31 55 18 25 27 52 28 77 0 39 1 40 50 54 28 7 64 18 80
24 17 6 42 13 58 15 15 3 27 9 27 13 0 5 10 12 23 15 12 4 52 27 88 52 36 24
82 64 103 88 20 24 36 51 36 59 0 8 5 28 12 43 7 15 34 50 61 76 26 27 57 70
69 95 12 26 37 67 57 92 19 25 43 51 53 58 11 8 18 26 18 45 0 18 -7 41 -15
51 -8 10 -31 22 -52 25 -23 4 -38 12 -38 20 0 8 17 24 38 35 21 12 60 41 87
64 27 24 64 64 81 89 18 26 38 72 45 102 12 51 12 60 -6 97 -13 26 -37 51 -68
71 -26 16 -81 50 -122 75 -51 31 -100 51 -152 63 -43 10 -78 20 -78 23 0 3 17
22 38 41 21 20 54 59 73 86 20 28 41 65 47 84 7 19 12 48 12 65 0 17 -9 46
-20 64 -11 17 -40 51 -65 75 -24 24 -70 55 -102 69 -32 14 -83 33 -113 43 -30
9 -61 22 -67 27 -7 6 -13 22 -13 37 -1 14 -6 35 -13 47 -7 11 -45 51 -85 89
-41 38 -87 78 -104 88 -17 10 -37 25 -45 33 -8 8 -18 14 -23 14 -5 0 -23 12
-41 28 -18 15 -33 25 -33 23 -1 -2 -16 3 -33 13 l-33 16 20 33 c11 17 20 45
20 60 0 23 -4 27 -18 23 -12 -4 -29 5 -52 28 -18 20 -47 38 -64 42 -17 4 -33
7 -36 6 -3 0 -13 4 -23 10 -10 5 -43 16 -73 24 -30 8 -63 14 -73 14z m-112
-281 c20 0 59 -4 86 -10 28 -5 101 -16 163 -24 65 -9 132 -24 158 -36 25 -12
86 -53 137 -90 50 -38 95 -76 100 -85 5 -8 6 -18 3 -21 -3 -3 -12 0 -20 6 -11
9 -20 10 -36 1 -11 -6 -24 -9 -28 -6 -4 2 -30 7 -58 10 -28 3 -64 10 -80 17
-16 6 -99 12 -184 15 -85 2 -176 6 -202 9 -26 3 -57 9 -70 13 -13 5 -55 7 -95
6 -39 -1 -80 -7 -91 -13 -10 -5 -49 -13 -86 -17 l-66 -7 6 30 c5 25 1 34 -22
52 -28 22 -28 23 -10 37 11 7 36 16 55 19 20 4 70 13 111 21 41 9 102 29 134
45 34 17 75 29 95 28z m-438 -200 c4 1 12 -6 19 -14 11 -13 6 -15 -31 -15 -43
0 -43 1 -19 14 14 8 28 14 31 15z m306 -89 c40 0 117 -6 171 -14 53 -8 150
-15 214 -14 64 0 141 -6 170 -13 29 -7 57 -16 63 -21 5 -4 19 -8 30 -8 12 0
30 -9 41 -21 16 -18 27 -20 69 -16 33 3 66 -1 100 -13 27 -10 86 -30 130 -45
44 -15 99 -36 122 -47 23 -11 63 -43 88 -71 41 -47 45 -56 40 -87 -4 -19 -15
-46 -25 -60 -10 -15 -45 -50 -77 -79 -32 -30 -68 -60 -80 -68 -12 -8 -57 -19
-100 -23 -43 -4 -96 -13 -118 -20 -22 -6 -62 -16 -90 -22 -27 -6 -61 -15 -75
-21 -14 -6 -32 -19 -40 -28 -9 -10 -43 -21 -80 -27 -36 -6 -87 -16 -115 -23
-28 -7 -117 -12 -205 -11 -85 0 -240 2 -345 5 -104 3 -201 7 -215 10 -14 3
-52 11 -85 17 -33 7 -98 26 -145 43 -47 17 -105 42 -130 55 -25 14 -62 38 -83
54 -20 17 -52 51 -69 76 -28 40 -32 55 -32 112 -1 51 4 74 24 110 14 24 42 56
63 70 20 14 59 36 85 49 26 12 54 27 62 32 8 5 26 14 40 20 14 5 43 18 65 28
22 10 49 22 60 26 11 5 100 11 198 15 113 4 182 11 189 18 7 7 43 12 85 12z
m1028 -691 c6 0 44 -6 85 -14 41 -7 100 -20 130 -28 30 -7 79 -26 108 -41 29
-16 75 -48 102 -73 29 -26 50 -53 50 -65 0 -12 -10 -41 -22 -66 -13 -24 -41
-60 -62 -78 -22 -19 -67 -47 -100 -63 -34 -16 -86 -41 -116 -55 -30 -14 -78
-38 -106 -53 -28 -16 -70 -36 -93 -47 -38 -16 -61 -18 -175 -13 -72 3 -142 8
-156 11 -14 3 -45 10 -70 16 -25 6 -61 8 -80 5 -19 -3 -62 -10 -95 -16 -33 -7
-62 -15 -65 -20 -3 -5 -51 -16 -105 -24 -63 -11 -156 -16 -250 -16 -82 0 -172
3 -200 6 -27 3 -72 7 -100 10 -27 2 -99 13 -160 24 -60 10 -149 24 -197 31
-49 7 -88 16 -88 20 0 3 -24 15 -52 25 -33 12 -73 38 -105 68 -29 28 -53 55
-53 62 0 6 17 25 38 41 20 16 50 42 66 57 16 16 58 46 92 67 35 21 80 44 101
51 21 7 92 13 160 13 102 1 124 4 141 20 19 16 34 17 164 12 79 -4 195 -11
258 -16 63 -5 143 -12 177 -16 42 -5 85 -2 135 9 40 9 118 26 173 37 55 12
127 28 160 37 33 9 65 19 70 22 6 3 42 14 80 24 39 10 88 22 110 26 22 5 45 9
50 10z m25 -1040 c2 0 -18 -21 -45 -49 -27 -27 -65 -57 -84 -65 -20 -9 -45
-20 -56 -25 -11 -5 -56 -19 -100 -30 -44 -12 -89 -29 -100 -38 -11 -10 -36
-26 -55 -36 -19 -11 -42 -23 -50 -27 -8 -5 -37 -18 -65 -31 -27 -12 -61 -23
-74 -25 -13 -2 -36 -10 -50 -17 -14 -8 -57 -19 -96 -26 -38 -7 -81 -14 -95
-16 -14 -3 -52 -9 -85 -14 -33 -6 -85 -15 -115 -19 -30 -5 -75 -5 -100 -1 -25
5 -74 14 -110 20 -44 8 -77 21 -105 42 -22 17 -59 52 -82 77 -23 25 -42 56
-43 68 0 12 -8 24 -17 27 -10 3 2 3 27 1 25 -3 63 -8 85 -11 21 -4 82 -1 135
5 52 7 120 14 150 16 30 2 75 9 100 15 25 6 88 15 140 20 52 6 133 15 180 22
47 6 90 14 95 18 6 4 35 12 65 18 30 6 71 14 90 17 19 3 60 10 90 15 30 5 98
14 150 21 52 6 122 14 155 19 33 4 62 8 65 9z m-465 -370 c6 0 3 -3 -5 -9 -8
-5 -11 -12 -7 -16 4 -4 -3 -18 -15 -31 -12 -13 -28 -23 -36 -23 -8 0 -28 -11
-44 -26 -17 -14 -53 -36 -80 -50 -28 -14 -84 -34 -126 -45 -43 -11 -113 -22
-158 -25 -62 -5 -87 -3 -110 9 -16 8 -42 29 -58 46 l-29 30 27 7 c14 3 33 3
42 0 9 -3 46 1 82 10 37 9 90 19 117 24 28 5 91 15 140 24 50 9 126 29 170 45
44 16 85 29 90 30z"/>
<g>
<path d="M8214 14984 c-49 5 -64 4 -74 -9 -11 -14 -9 -25 13 -70 15 -30 24
-61 21 -68 -4 -10 8 -13 51 -13 45 1 59 5 67 20 6 11 10 40 9 65 -1 25 -7 51
-14 57 -6 6 -39 15 -73 18z"/>
</g>
<g>
<path d="M8770 14588 c-8 1 -32 -16 -53 -37 -35 -36 -38 -44 -33 -78 3 -21 5
-42 6 -46 0 -5 19 -7 41 -5 40 3 43 5 61 55 18 45 18 55 6 79 -7 16 -20 30
-28 32z"/>
</g>
<g>
<path d="M9202 14489 c-4 -1 -22 -4 -39 -8 -18 -3 -42 -14 -53 -23 -14 -13
-20 -30 -20 -62 0 -37 3 -45 23 -50 12 -3 32 -6 43 -6 16 0 23 8 28 31 3 19
13 33 25 36 11 3 22 12 26 20 3 9 -2 26 -10 39 -9 13 -19 23 -23 23z"/>
</g>
</g>
<g>
<path d="M9713 15740 c-5 0 -17 -8 -25 -17 -8 -10 -18 -26 -22 -36 -4 -13 2
-29 18 -48 l25 -29 30 26 c17 14 31 34 31 43 0 10 -10 27 -23 39 -13 12 -28
22 -34 22z"/>
</g>
<g>
<path d="M10440 15665 c-23 0 -49 -4 -57 -10 -11 -8 -13 -21 -8 -47 4 -20 14
-43 23 -52 10 -8 29 -17 43 -21 23 -6 30 -1 48 28 11 19 21 41 21 49 0 8 -6
23 -14 33 -10 14 -27 20 -56 20z"/>
</g>
<g>
<path d="M7755 15560 c-1 0 -7 -6 -13 -12 -5 -7 -13 -28 -17 -45 -4 -19 -1
-48 7 -70 7 -21 19 -48 26 -60 8 -13 21 -23 28 -23 8 0 14 5 14 12 0 6 12 26
26 45 14 18 27 43 29 55 3 14 -5 30 -23 47 -15 14 -38 31 -51 38 -13 7 -24 13
-26 13z"/>
</g>
<g>
<path d="M11445 15509 c-5 0 -24 -7 -42 -16 -21 -11 -33 -25 -37 -46 -3 -16
-6 -44 -6 -62 0 -19 3 -40 6 -49 4 -9 18 -16 34 -16 19 0 36 9 49 26 12 15 21
33 21 41 0 8 8 31 17 50 16 35 16 36 -8 54 -13 10 -28 18 -34 18z"/>
</g>
<g>
<path d="M7404 15307 c-23 -1 -40 -9 -49 -24 -8 -12 -15 -37 -15 -56 0 -18 6
-41 13 -49 6 -9 28 -20 48 -23 26 -5 39 -2 49 10 7 8 15 37 18 64 3 35 0 52
-13 64 -10 11 -29 16 -51 14z"/>
</g>
<g>
<path d="M6615 15013 c-11 4 -28 2 -38 -4 -9 -6 -26 -27 -37 -48 -11 -23 -17
-48 -13 -62 3 -13 13 -30 22 -38 14 -12 10 -13 -26 -8 l-43 5 -15 -51 c-8 -28
-15 -55 -15 -61 0 -6 20 -22 45 -35 l44 -23 35 21 c26 17 37 32 42 59 4 20 15
55 25 77 10 22 19 63 19 91 0 30 -5 56 -12 62 -7 5 -22 12 -33 15z"/>
</g>
<g>
<path d="M10755 15018 c-14 0 -35 -8 -47 -18 -17 -13 -22 -29 -22 -66 -1 -48
0 -49 30 -52 25 -2 37 3 58 28 14 17 26 40 26 51 0 10 -4 19 -10 19 -5 0 -9 3
-9 8 1 4 1 12 0 18 0 6 -12 12 -26 12z"/>
</g>
<g>
<path d="M11001 14760 c-5 0 -23 -12 -40 -26 -25 -21 -31 -33 -31 -66 0 -30 8
-50 31 -79 20 -25 39 -39 54 -39 12 0 28 7 35 16 11 12 11 27 1 82 -7 37 -20
77 -27 90 -8 12 -19 22 -23 22z"/>
</g>
<g>
<path d="M7223 14647 c-20 14 -24 13 -47 -10 -17 -17 -26 -40 -31 -82 -7 -51
-5 -60 11 -72 13 -9 32 -12 59 -7 22 3 49 14 59 25 18 17 19 19 3 37 -9 10
-20 35 -24 56 -5 22 -18 45 -30 53z"/>
</g>
<g>
<path d="M7605 14615 c-15 9 -27 9 -48 1 -15 -5 -30 -20 -33 -33 -4 -13 -4
-30 0 -38 3 -9 18 -15 40 -15 19 0 42 7 51 16 9 9 15 26 13 37 -2 11 -12 25
-23 32z"/>
</g>
<g>
<path d="M10818 14001 c-7 3 -29 3 -48 1 -19 -2 -43 -11 -52 -19 -10 -9 -18
-26 -18 -38 0 -13 -7 -28 -15 -35 -8 -7 -15 -27 -15 -44 0 -18 5 -37 12 -44 7
-7 19 -12 27 -12 8 0 22 -7 32 -16 13 -12 28 -15 53 -10 20 4 44 18 55 33 15
18 19 33 14 52 -3 14 -13 33 -22 41 -10 10 -15 28 -13 51 2 23 -2 38 -10 40z"/>
</g>
<g>
<path d="M7007 13940 c-25 0 -49 -5 -52 -11 -4 -6 -4 -35 0 -65 6 -48 11 -58
38 -74 24 -15 34 -16 45 -8 7 6 20 24 28 39 8 16 14 39 14 54 0 14 -4 25 -9
25 -5 0 -11 9 -14 20 -4 16 -14 20 -50 20z"/>
</g>
<g>
<path d="M10235 13407 c-11 1 -32 -2 -47 -7 -15 -4 -41 -19 -57 -32 -19 -14
-30 -33 -30 -48 -1 -14 6 -36 15 -48 10 -14 25 -22 44 -22 19 0 33 7 40 20 6
11 19 20 29 20 11 0 25 -17 39 -48 12 -27 22 -58 22 -69 0 -12 6 -23 14 -26 9
-4 13 4 14 26 1 18 -5 53 -13 79 -7 26 -11 55 -9 65 3 10 -5 34 -18 53 -13 19
-33 36 -43 37z"/>
</g>
<g>
<path d="M7761 13087 c-55 0 -60 -2 -67 -26 -4 -14 -6 -35 -5 -46 2 -11 8 -26
14 -34 8 -9 24 -11 53 -7 23 3 45 1 52 -6 5 -5 15 -7 21 -4 6 4 11 25 11 47 0
22 -4 49 -10 59 -8 14 -21 18 -69 17z"/>
</g>
<g>
<path d="M7015 12980 c-8 0 -21 -10 -30 -23 -8 -13 -18 -37 -21 -54 -6 -29 -3
-33 35 -52 22 -12 44 -21 50 -21 5 0 13 13 19 28 5 16 8 40 5 55 -3 14 -14 35
-24 46 -11 12 -26 21 -34 21z"/>
</g>
<g>
<path d="M10278 12799 c-13 0 -30 -3 -39 -7 -9 -4 -30 -23 -47 -43 -18 -20
-32 -40 -32 -43 0 -4 12 -11 26 -16 14 -6 23 -14 19 -19 -3 -5 -1 -13 5 -16 6
-4 28 -4 50 0 24 4 44 15 53 28 8 12 17 34 21 49 5 21 1 33 -14 48 -11 11 -30
20 -42 19z"/>
</g>
<g>
<path d="M6234 12637 c-6 2 -25 -12 -43 -32 -17 -20 -31 -39 -31 -44 0 -4 8
-15 18 -24 10 -10 27 -17 38 -17 11 0 29 6 40 14 18 14 18 17 4 57 -8 23 -20
44 -26 46z"/>
</g>
<g>
<path d="M8758 12607 c-7 5 -22 7 -33 5 -11 -2 -26 -9 -32 -14 -7 -6 -22 -30
-34 -53 -14 -29 -19 -52 -15 -69 5 -20 13 -26 32 -26 16 0 34 10 48 27 11 14
26 36 33 47 7 12 12 33 13 47 0 15 -6 31 -12 36z"/>
</g>
<g>
<path d="M7293 12060 c-23 0 -33 -5 -33 -15 0 -8 -6 -24 -12 -35 -9 -14 -10
-25 -2 -36 6 -10 24 -17 47 -18 32 -1 38 3 48 29 7 17 11 37 9 45 -1 8 -7 18
-13 22 -7 4 -27 8 -44 8z"/>
</g>
<g>
<path d="M3950 11946 c-69 1 -136 0 -150 -2 -14 -2 -50 -9 -80 -15 -30 -6 -64
-16 -75 -22 -11 -5 -37 -12 -58 -14 -21 -2 -47 -8 -57 -13 -11 -6 -32 -12 -47
-15 -15 -2 -50 -12 -78 -21 -27 -10 -66 -26 -85 -37 -19 -11 -53 -29 -75 -40
-22 -11 -47 -23 -55 -28 -8 -5 -40 -22 -70 -38 -30 -16 -86 -59 -124 -95 -37
-36 -71 -66 -75 -66 -4 0 -33 -30 -64 -67 -32 -38 -68 -82 -80 -100 -12 -18
-43 -62 -69 -98 -27 -36 -48 -69 -48 -72 0 -3 -10 -20 -23 -37 -13 -17 -29
-47 -37 -66 -8 -19 -22 -50 -32 -68 -10 -18 -23 -54 -29 -80 -5 -26 -19 -99
-30 -162 -16 -90 -20 -157 -20 -305 1 -104 4 -221 6 -259 4 -54 11 -75 30 -98
14 -16 25 -38 25 -47 0 -10 10 -33 23 -52 12 -19 40 -63 61 -99 22 -36 84
-110 140 -165 56 -55 119 -114 141 -131 22 -17 67 -46 100 -65 33 -19 69 -38
80 -42 11 -5 54 -15 95 -23 41 -8 113 -21 160 -30 47 -8 132 -15 190 -15 58
-1 114 1 125 3 19 3 20 -2 17 -117 -1 -66 -4 -151 -6 -190 -2 -38 1 -81 6 -95
5 -15 3 -68 -6 -135 -10 -75 -11 -113 -5 -122 8 -9 -7 -29 -55 -74 -36 -33
-98 -84 -137 -112 -39 -29 -80 -57 -90 -63 -10 -6 -27 -18 -37 -27 -10 -10
-21 -17 -25 -17 -3 0 -29 -13 -57 -30 -28 -16 -60 -30 -72 -30 -11 0 -29 -11
-40 -25 -11 -14 -26 -25 -34 -25 -8 0 -17 -7 -20 -15 -4 -8 -12 -15 -20 -15
-7 0 -24 -11 -37 -24 -13 -13 -38 -31 -56 -40 -17 -9 -31 -23 -31 -31 0 -8 -5
-15 -12 -15 -7 0 2 -15 19 -32 22 -23 30 -40 27 -58 -2 -14 -14 -52 -26 -85
-12 -33 -25 -64 -29 -70 -4 -5 -13 -39 -19 -75 -6 -36 -29 -130 -50 -210 -21
-80 -38 -152 -38 -160 -1 -8 -9 -52 -19 -98 -10 -45 -24 -86 -31 -91 -7 -4
-45 -6 -84 -4 -62 3 -75 0 -94 -18 -21 -20 -34 -21 -154 -21 -102 0 -141 3
-173 17 -23 10 -52 22 -64 28 -15 7 -36 6 -67 -2 -25 -6 -56 -11 -69 -11 -13
0 -34 9 -47 20 -16 13 -37 20 -67 20 -24 0 -54 -6 -66 -14 -12 -8 -65 -27
-117 -41 -63 -18 -121 -27 -171 -28 -63 -1 -81 3 -106 21 -30 21 -41 22 -240
22 -114 -1 -246 -2 -293 -5 -47 -2 -121 -9 -165 -15 -44 -7 -101 -14 -127 -17
-31 -3 -57 1 -80 11 -27 13 -36 26 -46 60 -6 24 -19 46 -28 50 -8 3 -130 8
-270 11 l-254 6 0 -30 c0 -16 6 -31 13 -33 6 -3 59 -2 117 2 58 5 107 6 110 5
3 -2 32 -6 65 -10 33 -4 87 -10 120 -13 49 -6 60 -11 65 -28 3 -12 22 -40 42
-63 32 -34 44 -41 75 -41 21 0 89 9 151 19 70 11 149 17 210 15 53 -2 147 1
207 7 61 6 133 10 162 9 28 0 66 -5 83 -10 17 -5 40 -20 51 -34 18 -22 24 -24
77 -19 31 3 62 9 67 13 6 5 37 11 70 15 33 4 76 13 95 20 19 8 68 21 108 30
l72 17 35 -26 c32 -25 41 -27 105 -23 38 2 105 -2 147 -10 50 -9 107 -11 158
-8 44 4 100 7 125 7 25 0 77 7 117 14 40 8 84 14 98 14 22 0 25 -3 19 -27 -3
-16 -10 -50 -16 -78 -6 -27 -16 -70 -23 -95 -8 -25 -17 -63 -21 -85 -4 -22 -6
-48 -5 -57 1 -10 -3 -26 -9 -38 -6 -11 -15 -48 -20 -83 -5 -34 -13 -82 -18
-107 -6 -25 -15 -77 -22 -116 -10 -60 -9 -80 5 -130 9 -33 21 -77 26 -99 6
-22 13 -56 16 -75 3 -19 9 -39 13 -45 4 -5 10 -30 14 -55 4 -24 10 -49 15 -55
4 -5 13 -28 20 -50 6 -22 14 -53 16 -70 2 -16 6 -37 8 -45 2 -8 9 -34 16 -58
7 -24 9 -52 6 -62 -4 -11 -2 -20 3 -20 5 0 17 -32 26 -72 10 -39 22 -110 27
-157 6 -47 10 -93 11 -101 1 -8 0 -23 0 -33 -2 -13 -32 -32 -99 -63 -54 -24
-118 -55 -143 -67 -24 -12 -51 -28 -58 -34 -7 -7 -19 -13 -25 -13 -7 0 -33
-14 -59 -30 -29 -18 -48 -37 -48 -48 0 -10 6 -30 13 -45 6 -15 18 -29 25 -32
7 -2 21 4 32 15 11 11 22 20 24 20 2 0 36 18 77 40 40 23 109 57 154 76 44 20
100 45 125 56 25 11 77 35 116 54 39 19 75 34 80 34 6 0 32 16 59 34 27 19 52
33 56 31 4 -3 7 -35 7 -72 0 -38 3 -203 7 -368 4 -165 9 -365 12 -445 3 -80 6
-217 7 -305 1 -88 5 -174 10 -192 4 -18 9 -49 11 -70 2 -21 7 -129 10 -239 6
-189 5 -202 -12 -208 -17 -7 -17 -8 0 -21 14 -10 19 -28 20 -72 1 -32 6 -61
12 -65 5 -4 29 -8 51 -8 24 0 47 6 53 14 7 8 8 17 3 20 -5 3 -10 38 -11 78 -2
40 -5 107 -7 148 -2 41 -4 138 -3 215 0 81 -4 152 -11 169 -6 16 -13 59 -15
95 -2 36 -7 147 -10 246 -3 99 -7 207 -10 240 -2 33 -8 231 -11 440 -4 209 -7
390 -7 403 1 12 3 32 7 45 4 15 28 33 83 59 43 21 107 54 143 73 36 19 112 53
170 76 58 23 112 48 121 55 8 8 23 14 32 14 9 0 43 12 74 28 32 15 60 30 63
33 3 4 41 25 85 48 44 24 87 48 95 55 8 7 44 28 80 45 36 18 85 43 110 57 25
14 70 40 100 56 30 17 93 51 139 75 46 24 86 41 89 38 4 -4 7 -135 8 -293 1
-158 5 -368 8 -467 3 -99 8 -227 11 -285 3 -58 8 -181 10 -275 2 -93 7 -255
10 -360 4 -104 8 -196 10 -202 3 -7 15 -13 29 -13 13 0 34 8 46 18 18 15 23
29 23 68 1 27 -3 96 -7 154 -5 58 -10 141 -12 185 -1 44 -5 157 -8 250 -2 94
-4 179 -4 190 0 11 1 31 1 45 0 14 -3 108 -8 210 -4 102 -8 334 -9 517 l-1
331 125 60 c69 34 168 86 220 117 52 30 133 73 180 95 47 22 96 47 110 54 14
8 40 22 58 33 33 18 34 18 49 -4 l15 -22 38 19 c21 11 42 25 46 31 3 6 0 22
-7 37 -11 19 -11 26 -2 29 6 2 40 26 75 52 35 26 90 65 123 86 33 21 62 41 65
44 3 4 39 29 80 56 41 27 77 52 80 56 3 4 50 28 105 54 55 26 117 59 138 72
l38 24 36 -21 c29 -17 41 -19 71 -10 22 5 109 8 212 5 96 -3 247 -5 335 -6
114 -1 176 -6 215 -17 41 -12 102 -16 240 -16 102 -1 239 3 306 7 90 6 139 4
197 -7 42 -8 87 -20 99 -27 13 -7 89 -16 173 -21 83 -4 175 -11 205 -14 30 -4
96 -7 147 -7 51 0 98 4 105 10 7 6 42 13 78 17 36 3 97 12 135 20 39 8 111 24
160 35 50 11 106 21 126 21 19 0 58 7 85 16 27 9 64 28 83 42 l34 26 91 -24
c50 -13 105 -32 121 -42 17 -10 37 -21 45 -25 8 -3 32 -17 52 -30 21 -13 46
-23 56 -23 10 0 22 -4 28 -9 5 -5 64 -15 131 -21 l122 -12 88 40 c51 23 111
43 143 46 30 3 93 8 140 11 47 3 126 10 175 16 50 6 114 15 144 20 30 5 74 9
97 9 24 0 46 5 49 10 4 6 16 9 28 8 12 -1 83 1 157 5 74 5 187 17 250 27 64
11 176 21 250 24 74 3 149 10 165 15 17 4 44 17 62 27 17 11 70 47 116 81 47
35 92 63 101 63 8 0 18 5 22 11 5 8 33 10 93 5 47 -3 96 -8 108 -10 12 -3 31
-10 42 -16 12 -6 21 -21 21 -35 0 -13 -5 -27 -10 -30 -6 -4 -7 -11 -3 -18 3
-6 5 -32 4 -58 -2 -42 1 -49 27 -68 17 -11 41 -21 54 -21 12 0 55 9 93 21 39
11 81 24 95 29 14 4 51 19 82 32 31 14 63 29 70 34 7 6 51 23 98 39 47 16 97
37 111 47 20 15 42 19 105 19 43 -1 115 -2 159 -5 50 -2 97 2 125 10 25 8 81
21 125 30 44 8 105 18 135 21 30 3 57 9 60 13 3 4 82 20 175 35 94 15 202 30
241 34 39 5 115 6 170 4 54 -2 212 -5 349 -6 138 -2 295 1 350 5 55 4 131 13
169 20 61 10 70 10 81 -5 7 -9 17 -17 24 -17 6 0 16 -11 20 -24 5 -12 33 -43
63 -67 29 -25 80 -56 113 -69 33 -13 78 -25 100 -26 22 -1 51 -6 65 -11 14 -6
43 -13 64 -17 22 -4 54 -17 71 -29 17 -12 53 -41 78 -63 26 -23 47 -48 47 -57
0 -8 24 -32 53 -53 28 -21 73 -48 98 -60 25 -12 61 -25 80 -29 19 -4 39 -11
44 -15 6 -4 35 -10 65 -13 30 -3 106 -10 169 -16 63 -6 128 -15 145 -20 17 -6
45 -13 61 -16 17 -4 55 -11 85 -17 30 -5 73 -7 95 -5 22 3 60 10 85 17 25 6
54 19 65 29 11 10 30 22 41 25 12 4 33 17 47 29 13 12 33 28 43 35 11 7 32 20
48 30 16 9 43 29 60 43 17 15 47 36 66 48 19 11 55 30 79 41 24 11 52 18 63
14 10 -3 25 0 33 6 8 7 31 13 52 14 21 2 68 3 106 4 64 2 67 3 67 27 0 24 -3
25 -57 26 -32 1 -80 1 -108 -1 -27 -1 -58 -6 -68 -12 -10 -5 -36 -11 -58 -13
-22 -3 -68 -18 -102 -34 -34 -17 -78 -45 -97 -62 -19 -17 -48 -38 -65 -46 -16
-7 -50 -25 -75 -39 -25 -15 -61 -38 -80 -53 -19 -15 -59 -35 -89 -44 -29 -9
-63 -17 -75 -17 -13 0 -42 7 -67 15 -25 8 -103 16 -179 19 -74 3 -155 8 -180
12 -25 3 -54 9 -65 14 -11 5 -41 11 -68 14 -26 3 -61 12 -77 21 -16 8 -38 15
-49 15 -11 0 -23 5 -26 10 -3 6 -12 10 -20 10 -8 0 -25 10 -38 23 -12 12 -34
38 -47 57 -13 19 -37 50 -54 68 -16 17 -36 32 -43 32 -7 0 -13 5 -13 10 0 6
-19 19 -43 29 -23 10 -58 22 -77 25 -19 4 -46 12 -60 18 -14 6 -33 14 -42 19
-10 5 -29 9 -44 9 -14 0 -50 7 -79 16 -41 11 -69 29 -114 72 -33 31 -68 73
-79 92 -10 19 -23 34 -28 33 -5 -2 -29 -5 -54 -9 -25 -3 -61 -13 -80 -22 -28
-12 -83 -16 -285 -19 -137 -2 -360 -5 -495 -7 -135 -2 -273 -9 -307 -15 -35
-6 -75 -16 -89 -22 -15 -5 -57 -9 -93 -8 -36 0 -97 -7 -136 -16 -38 -9 -99
-21 -135 -26 -36 -5 -99 -15 -140 -23 -47 -8 -109 -11 -165 -8 -49 3 -110 6
-135 6 -25 0 -74 -12 -110 -26 -36 -14 -90 -36 -120 -47 -30 -12 -69 -29 -87
-36 -17 -8 -40 -15 -51 -15 -12 0 -23 -4 -26 -9 -3 -4 -34 -19 -68 -31 -35
-13 -74 -28 -88 -33 -14 -6 -34 -11 -45 -12 -11 -1 -39 -5 -62 -9 -26 -5 -49
-3 -62 4 -20 10 -21 16 -15 95 l7 84 -54 25 c-30 14 -75 27 -100 29 -25 2 -51
7 -58 12 -7 4 -17 3 -23 -3 -6 -6 -16 -8 -24 -5 -7 3 -41 -5 -75 -17 -35 -12
-88 -39 -119 -61 -31 -21 -58 -39 -62 -39 -3 0 -22 -16 -42 -35 -21 -19 -42
-33 -47 -29 -5 3 -24 0 -43 -6 -18 -6 -69 -11 -113 -12 -44 0 -84 2 -89 5 -5
3 -65 -3 -134 -14 -69 -10 -161 -25 -205 -33 -44 -8 -129 -17 -190 -21 -60 -3
-130 -8 -155 -11 -25 -2 -85 -6 -133 -9 -49 -2 -110 -7 -135 -10 -26 -3 -72
-10 -102 -15 -30 -6 -82 -13 -115 -16 -33 -3 -87 -7 -120 -8 -34 -2 -77 -11
-100 -22 -22 -10 -43 -24 -47 -30 -5 -8 -43 -12 -104 -11 -79 0 -110 5 -174
28 -43 15 -96 39 -119 53 -22 14 -47 26 -55 26 -8 0 -18 5 -21 10 -3 6 -15 10
-25 10 -11 0 -41 10 -67 21 -27 12 -56 26 -65 30 -10 5 -31 9 -48 9 -19 0 -30
-5 -30 -14 0 -7 -10 -20 -22 -28 -13 -8 -36 -17 -53 -20 -16 -3 -43 -10 -60
-16 -16 -6 -46 -15 -65 -21 -19 -6 -53 -13 -75 -17 -22 -3 -47 -9 -55 -14 -8
-4 -37 -11 -65 -15 -27 -4 -58 -12 -69 -17 -10 -6 -44 -12 -75 -15 -31 -2 -69
-9 -86 -14 -16 -5 -97 -9 -180 -11 -82 -1 -193 4 -245 11 -52 7 -119 17 -149
22 -30 5 -58 14 -62 20 -4 6 -35 13 -70 16 -35 2 -69 9 -76 15 -7 5 -16 8 -20
5 -4 -3 -118 -8 -252 -11 -134 -3 -247 -9 -252 -12 -5 -3 -32 0 -61 5 -29 6
-75 16 -103 22 -27 5 -183 12 -345 15 -162 3 -315 6 -340 8 -25 1 -53 3 -62 4
-12 1 -15 7 -11 19 4 9 14 24 23 33 9 9 43 33 76 53 33 21 64 37 69 37 6 0 16
9 23 20 7 11 21 20 31 20 11 0 23 5 26 10 4 6 37 30 73 54 37 24 87 54 112 68
25 13 72 41 104 63 33 22 76 50 95 62 20 12 61 33 91 48 30 14 60 29 66 33 6
4 29 19 52 34 22 15 43 37 47 48 4 11 4 33 0 49 -4 20 -14 31 -31 35 -17 5
-34 0 -53 -13 -15 -11 -34 -27 -41 -35 -7 -9 -16 -13 -21 -10 -5 3 -22 -4 -38
-15 -16 -12 -32 -21 -36 -21 -3 0 -37 -20 -73 -44 -37 -24 -92 -62 -122 -85
-30 -22 -77 -53 -105 -68 -27 -16 -60 -36 -73 -44 -20 -12 -24 -12 -33 1 -8
12 -9 12 -7 -4 2 -13 -14 -30 -52 -57 -30 -21 -77 -50 -105 -64 -27 -15 -66
-38 -85 -51 -19 -13 -53 -37 -76 -54 -23 -16 -45 -30 -49 -30 -4 0 -22 -11
-40 -24 -28 -22 -46 -26 -153 -31 -82 -5 -133 -3 -159 5 -21 6 -58 21 -82 32
-24 10 -58 18 -75 17 -17 -1 -38 1 -47 5 -9 4 -48 3 -85 -2 -38 -4 -93 -7
-122 -4 -46 3 -54 8 -67 33 -9 16 -25 31 -38 34 -12 3 -44 4 -72 2 -27 -2 -57
-6 -65 -9 -8 -4 -42 -10 -75 -14 -33 -4 -73 -7 -89 -8 -25 -1 -34 6 -59 49
-16 28 -40 61 -53 76 -13 14 -35 53 -49 88 -13 35 -29 69 -35 76 -6 7 -17 37
-24 66 -8 30 -17 76 -21 103 -4 27 -10 56 -15 65 -4 9 -16 41 -25 71 -9 30
-25 87 -36 125 -11 39 -24 79 -29 90 -5 11 -16 49 -25 84 -9 35 -24 86 -34
115 -11 28 -31 98 -46 156 -14 58 -31 113 -36 122 -5 10 -13 34 -18 55 -5 21
-17 63 -25 93 -8 30 -20 64 -25 75 -5 11 -15 47 -21 80 -7 33 -15 74 -17 90
-2 17 -7 53 -10 80 -3 28 -10 56 -15 63 -6 6 -19 12 -30 12 -10 0 -21 8 -25
18 -3 9 -14 25 -24 35 -10 9 -26 17 -35 17 -9 0 -48 -27 -88 -59 -39 -33 -90
-77 -114 -98 -24 -21 -55 -46 -70 -55 -15 -10 -47 -27 -72 -39 -25 -12 -52
-26 -60 -30 -8 -5 -24 -13 -36 -18 -11 -5 -33 -20 -50 -34 -16 -13 -45 -32
-64 -42 -19 -10 -51 -30 -70 -45 -19 -15 -41 -30 -49 -35 -11 -6 -12 8 -8 76
3 46 7 130 11 187 3 57 7 154 8 217 2 82 -1 117 -11 129 -12 14 -10 16 12 16
14 0 37 5 51 12 14 6 28 19 32 30 3 10 22 27 42 37 20 10 51 21 67 25 17 3 75
20 130 38 55 17 118 39 140 50 22 10 47 22 55 27 8 5 35 19 60 30 25 11 59 23
75 27 17 4 35 12 40 19 6 6 50 38 100 71 49 32 110 79 135 104 25 25 53 57 63
73 10 15 24 27 33 27 8 0 13 4 10 9 -4 5 4 22 17 38 13 15 26 33 28 38 2 6 25
49 51 96 30 54 50 104 54 135 4 27 12 56 19 64 6 8 17 35 24 60 6 25 16 74 21
110 6 36 15 106 21 155 5 50 7 131 4 180 -4 50 -13 115 -20 145 -8 30 -24 82
-35 115 -12 33 -32 81 -44 106 -12 25 -40 74 -62 109 -21 34 -55 79 -75 99
-20 20 -44 48 -53 64 -10 15 -23 27 -30 27 -6 0 -42 30 -81 65 -38 36 -103 88
-143 115 -41 28 -86 53 -100 56 -15 3 -40 11 -57 18 -16 7 -52 18 -80 24 -27
7 -86 19 -130 28 -44 10 -136 18 -205 20z m-2 -112 c84 -2 185 -11 225 -19 39
-9 79 -18 88 -20 11 -4 15 -13 11 -30 -2 -13 -10 -30 -18 -36 -8 -6 -14 -23
-14 -37 0 -14 7 -34 17 -44 11 -12 30 -18 58 -18 32 0 47 6 68 28 15 15 27 37
27 48 0 12 3 23 6 26 3 4 32 -12 65 -33 32 -22 59 -43 59 -48 0 -5 24 -27 53
-49 28 -22 77 -65 107 -94 30 -30 60 -61 66 -70 6 -8 29 -41 52 -74 22 -32 53
-86 70 -119 16 -33 37 -85 46 -117 9 -31 16 -81 16 -111 0 -31 5 -59 11 -63 7
-4 9 -39 6 -103 -3 -53 -10 -128 -15 -167 -5 -40 -17 -98 -27 -130 -9 -33 -27
-88 -40 -124 -13 -36 -29 -81 -36 -100 -8 -19 -29 -60 -48 -90 -19 -30 -55
-80 -80 -110 -25 -30 -63 -74 -85 -97 -22 -24 -43 -43 -46 -43 -3 0 -50 -29
-104 -65 -54 -35 -108 -67 -120 -71 -11 -3 -57 -22 -101 -41 -44 -20 -94 -42
-112 -49 -17 -8 -38 -14 -48 -14 -9 0 -28 -6 -43 -14 -16 -8 -57 -22 -92 -30
-36 -9 -99 -32 -140 -50 -41 -19 -97 -43 -125 -54 -27 -11 -79 -27 -115 -36
-40 -10 -92 -14 -135 -12 -38 2 -97 9 -130 15 -33 6 -92 20 -132 30 -39 10
-81 26 -94 35 -13 9 -30 16 -39 16 -9 0 -42 24 -75 53 -32 28 -99 91 -147 140
-60 58 -101 110 -125 155 -20 37 -47 81 -60 98 -13 17 -23 43 -23 59 0 15 -7
33 -16 39 -14 10 -16 44 -18 232 -1 120 2 244 6 274 5 30 13 66 18 80 5 14 12
45 15 69 4 23 10 54 16 68 5 13 9 35 9 49 0 13 5 34 12 47 6 12 15 29 19 37 5
8 21 37 35 65 15 27 36 63 48 80 11 16 36 47 54 68 17 20 32 43 32 51 0 8 31
45 68 83 38 37 97 96 133 129 35 34 91 76 124 94 33 18 72 41 87 51 14 11 35
19 45 19 10 0 27 6 38 14 11 7 61 27 110 44 50 16 124 40 165 52 41 13 95 26
120 30 25 5 114 6 198 4z m448 -2684 c8 0 12 -36 13 -116 1 -65 4 -120 6 -124
2 -3 14 -80 26 -171 12 -90 25 -222 30 -294 4 -71 12 -238 18 -370 6 -132 15
-271 21 -310 5 -38 15 -137 21 -220 6 -82 13 -153 15 -157 2 -3 7 -35 9 -70 3
-35 10 -79 16 -98 6 -19 9 -53 7 -75 -2 -34 -8 -43 -35 -56 -18 -9 -38 -21
-45 -26 -7 -6 -24 -14 -37 -18 -13 -4 -34 -16 -47 -28 -13 -11 -39 -30 -58
-41 -19 -12 -56 -34 -83 -50 -26 -16 -64 -42 -83 -57 -19 -14 -58 -39 -87 -53
-28 -15 -53 -31 -55 -35 -2 -4 -35 -26 -75 -49 -39 -23 -74 -42 -77 -42 -3 0
-29 -18 -58 -39 -28 -22 -63 -43 -77 -46 -14 -4 -28 -10 -31 -14 -3 -4 -27
-20 -55 -36 -27 -15 -84 -53 -125 -84 -41 -30 -108 -87 -148 -125 -40 -39 -83
-77 -97 -85 -13 -8 -26 -13 -29 -10 -2 2 -6 53 -7 113 -1 60 -6 125 -10 145
-5 20 -13 124 -20 231 -6 107 -13 245 -15 305 -2 61 -7 126 -10 145 -4 19 -8
49 -10 65 -2 17 -3 62 -3 100 0 39 2 78 5 87 3 10 2 23 -3 30 -4 7 -9 31 -9
53 -1 22 -5 74 -9 115 -4 41 -11 154 -16 250 -4 96 -12 201 -17 232 -5 35 -5
81 1 118 10 59 10 60 61 86 28 14 76 40 106 56 30 17 82 51 115 77 33 25 81
60 108 77 27 17 72 53 100 81 29 27 89 81 134 119 45 38 108 86 140 106 32 20
92 60 133 88 41 28 80 48 87 46 7 -3 17 3 23 14 6 11 30 28 53 38 24 11 72 42
107 71 35 28 69 51 76 51z m139 -270 c2 0 12 -26 21 -57 9 -32 29 -98 45 -148
17 -49 34 -99 39 -110 5 -11 17 -54 25 -95 9 -41 19 -82 22 -90 3 -8 7 -29 9
-46 1 -17 11 -51 22 -75 11 -24 29 -80 42 -124 12 -44 28 -93 36 -110 8 -16
28 -88 45 -158 16 -70 31 -142 32 -160 2 -18 15 -53 30 -78 15 -25 27 -50 27
-55 0 -5 19 -29 41 -54 22 -25 42 -55 45 -67 4 -13 10 -23 15 -23 5 0 9 -7 9
-15 0 -13 -10 -14 -57 -9 -32 4 -62 10 -68 14 -5 4 -32 15 -59 24 -31 10 -53
13 -59 7 -5 -5 -15 -7 -23 -4 -7 2 -23 -2 -35 -11 -20 -14 -24 -13 -50 4 -15
11 -32 20 -37 20 -6 0 -13 24 -16 53 -3 28 -8 101 -11 161 -3 60 -12 139 -20
177 -8 38 -15 79 -14 92 0 12 -2 74 -6 137 -3 63 -8 149 -11 190 -3 41 -7 138
-8 215 -2 77 -10 180 -20 229 -9 49 -16 106 -16 127 0 22 2 39 5 39z m-1477
-835 c2 -2 5 -86 7 -187 2 -101 6 -230 9 -288 2 -58 7 -124 11 -146 6 -40 5
-42 -26 -48 -17 -3 -42 -6 -55 -6 -13 0 -24 -5 -24 -11 0 -8 -14 -9 -42 -5
-23 4 -45 11 -49 17 -3 6 1 31 9 57 9 26 19 49 22 52 4 3 10 25 13 50 4 25 14
93 22 151 8 58 20 125 28 150 8 24 20 64 27 89 7 25 20 64 29 87 8 23 17 40
19 38z m2304 -670 c74 0 86 -3 111 -25 16 -14 38 -28 50 -31 12 -3 45 -4 72
-3 28 1 88 5 135 9 74 6 94 3 145 -15 33 -12 89 -28 125 -36 36 -8 81 -13 100
-10 32 5 30 3 -20 -22 -30 -15 -77 -43 -104 -62 -28 -19 -66 -44 -86 -55 -21
-11 -57 -35 -81 -53 -24 -18 -53 -39 -64 -47 -11 -8 -45 -32 -75 -54 -30 -22
-74 -51 -98 -63 l-42 -22 -16 23 c-9 13 -32 52 -50 88 -19 35 -34 75 -34 89 0
13 -4 23 -9 22 -5 -2 -23 16 -40 39 -17 24 -31 46 -31 50 0 4 -18 28 -41 55
-22 26 -47 60 -54 75 -13 25 -13 29 5 38 10 5 56 10 102 10z m-558 -5 c24 0
59 -7 79 -15 19 -8 59 -15 88 -16 30 -1 69 1 87 6 26 5 38 3 54 -12 11 -10 40
-44 64 -75 24 -31 44 -61 44 -66 0 -5 14 -23 30 -40 17 -18 30 -38 30 -45 0
-8 9 -22 19 -31 11 -10 32 -47 47 -82 15 -35 31 -64 36 -64 4 0 8 -9 8 -20 0
-11 5 -20 10 -20 6 0 15 -11 20 -25 5 -14 14 -25 20 -25 5 0 10 -4 10 -9 0 -5
-19 -18 -42 -30 -24 -12 -70 -37 -103 -56 -33 -19 -67 -35 -76 -35 -9 0 -23
-7 -30 -16 -7 -9 -72 -45 -144 -80 -71 -35 -161 -82 -200 -103 -38 -22 -73
-37 -76 -35 -4 2 -12 34 -18 72 -6 37 -14 83 -17 102 -3 19 -9 94 -14 165 -5
72 -14 153 -19 180 -5 28 -7 62 -4 76 3 15 -2 37 -10 50 -8 13 -20 63 -26 112
-7 48 -14 94 -17 102 -4 10 0 15 14 15 12 0 23 -4 26 -9 4 -5 19 -5 36 2 17 6
30 15 30 19 0 4 20 8 44 8z m-1915 -76 c9 -3 31 -11 50 -16 24 -7 41 -6 57 3
13 6 41 12 63 13 l41 1 1 -45 c0 -25 2 -61 4 -80 2 -19 8 -96 14 -170 6 -74
18 -211 26 -305 8 -93 19 -291 23 -440 4 -148 7 -348 7 -443 l0 -174 -93 -50
c-52 -27 -96 -47 -100 -44 -3 4 0 12 6 18 9 9 6 18 -14 39 -21 22 -28 42 -34
101 -5 40 -18 111 -30 158 -11 47 -26 103 -32 125 -6 22 -13 47 -14 55 -2 8
-7 33 -13 55 -5 22 -17 76 -26 120 -9 44 -21 85 -26 91 -5 6 -12 33 -15 60 -4
27 -12 58 -18 69 -6 11 -13 36 -15 55 -2 19 -6 37 -11 40 -4 3 -3 39 2 80 5
41 16 125 23 185 8 61 20 139 26 175 6 36 15 72 19 81 4 8 14 50 20 93 7 42
17 79 21 82 5 3 9 18 9 33 0 15 3 31 7 35 4 3 14 4 22 0z m1701 -304 c4 0 11
-8 16 -17 4 -10 8 -27 10 -38 1 -11 5 -65 8 -120 4 -55 13 -140 21 -190 9 -49
16 -119 18 -154 l2 -64 -85 -44 c-47 -24 -106 -58 -133 -74 -26 -16 -51 -29
-55 -29 -4 0 -35 -17 -68 -38 -32 -21 -84 -49 -114 -62 -30 -13 -60 -30 -66
-37 -6 -7 -14 -13 -18 -13 -3 0 -39 -19 -79 -43 -39 -24 -106 -60 -147 -80
-41 -20 -104 -49 -140 -66 -36 -16 -76 -32 -90 -36 -14 -4 -54 -20 -90 -37
-36 -16 -74 -35 -85 -41 -11 -6 -60 -30 -108 -54 -48 -24 -92 -43 -97 -43 -6
0 -10 43 -10 103 0 56 -3 160 -7 231 l-6 129 24 -7 c13 -4 31 -8 41 -9 9 -1
43 23 75 53 32 31 78 71 103 90 25 19 74 59 109 89 35 30 93 70 130 89 36 19
78 41 94 49 15 8 27 18 27 23 0 5 26 21 58 36 31 16 82 43 112 61 30 18 61 33
68 33 7 0 23 9 35 21 12 11 55 43 95 70 41 27 79 49 86 49 7 0 21 9 31 20 10
11 22 20 27 20 5 0 24 11 42 25 18 14 37 25 42 25 5 0 33 18 63 40 29 22 57
40 61 40z"/>
<g>
<path d="M4493 11448 c-13 7 -33 1 -75 -20 -32 -17 -76 -48 -98 -69 -22 -21
-40 -47 -40 -57 0 -11 9 -27 19 -36 17 -16 23 -16 44 -4 14 7 47 28 73 47 41
28 54 32 88 28 29 -4 48 -14 66 -37 23 -28 25 -38 20 -89 -3 -32 -12 -65 -21
-73 -8 -9 -29 -23 -46 -31 -17 -9 -33 -13 -37 -10 -3 3 -15 -2 -26 -12 -11
-10 -20 -28 -20 -40 0 -12 8 -29 18 -37 12 -11 34 -15 72 -13 48 1 55 4 58 23
2 12 9 22 17 22 7 0 24 15 37 33 14 17 32 55 41 82 9 28 16 71 16 97 -1 33 -7
56 -22 74 -12 15 -32 39 -44 52 -13 14 -23 28 -23 32 0 4 -12 13 -26 21 -15 7
-37 12 -50 11 -12 -2 -31 1 -41 6z"/>
</g>
<g>
<path d="M3448 11380 c-9 0 -29 -11 -43 -25 -15 -16 -25 -37 -25 -54 0 -16 6
-33 13 -39 6 -5 23 -11 37 -12 14 -1 31 -2 37 -1 7 1 19 14 28 31 8 16 15 38
15 49 0 11 -10 27 -22 35 -12 9 -30 16 -40 16z"/>
</g>
<g>
<path d="M4776 10780 c-6 -1 -33 -10 -61 -21 -27 -12 -74 -32 -103 -46 -29
-14 -55 -30 -58 -34 -3 -5 -14 -9 -25 -9 -11 0 -43 -17 -72 -38 -29 -21 -63
-43 -77 -50 -14 -7 -34 -18 -45 -25 -12 -7 -27 -18 -35 -24 -8 -7 -32 -27 -52
-45 -21 -17 -38 -39 -38 -48 0 -9 8 -24 18 -33 10 -10 32 -17 49 -17 23 0 39
9 62 35 17 19 35 35 42 35 6 0 23 9 37 20 15 12 51 36 81 55 29 19 59 35 67
35 7 0 17 6 21 14 4 7 30 25 58 40 27 14 56 26 64 26 8 0 32 12 53 26 21 15
41 38 44 51 4 13 1 30 -6 38 -7 8 -18 15 -24 15z"/>
</g>
</g>
<g>
<path d="M8511 11427 c-28 10 -30 9 -40 -20 -6 -16 -11 -40 -11 -52 0 -15 8
-25 23 -29 12 -3 31 -3 42 0 11 3 28 16 38 30 10 13 15 29 12 34 -3 6 -13 10
-21 10 -8 0 -14 4 -14 8 0 4 -13 13 -29 19z"/>
</g>
<g>
<path d="M9271 7200 c-4 0 -11 -3 -14 -6 -4 -4 -4 -10 -1 -15 2 -4 11 -6 19
-3 8 4 12 10 9 15 -3 5 -9 9 -13 9z"/>
</g>
<g>
<path d="M6841 6899 c-11 6 -22 8 -24 4 -2 -5 -9 -28 -16 -53 -8 -25 -19 -58
-27 -75 -7 -16 -20 -57 -29 -90 -9 -33 -22 -78 -28 -99 -7 -24 -32 -61 -63
-93 -29 -29 -59 -53 -68 -53 -9 0 -40 -14 -70 -30 -29 -17 -83 -60 -120 -96
-37 -36 -99 -92 -138 -125 -42 -35 -87 -63 -112 -70 -22 -6 -52 -15 -66 -18
-17 -5 -26 -16 -28 -33 -3 -21 2 -26 27 -31 17 -4 46 -4 63 0 18 3 41 15 52
25 11 10 25 18 31 18 6 0 67 54 135 121 99 96 139 127 190 151 36 16 75 34 88
41 13 6 32 20 43 32 11 11 32 38 45 59 14 21 34 62 44 90 10 28 24 78 30 111
7 33 15 65 19 70 4 6 13 28 20 50 8 22 18 43 24 46 5 4 7 14 4 22 -3 9 -15 20
-26 26z"/>
</g>
<g>
<path d="M320 6885 c-19 2 -51 0 -70 -5 -19 -5 -53 -14 -75 -20 -22 -6 -58
-16 -80 -21 -22 -6 -52 -13 -67 -16 -24 -4 -28 -10 -28 -39 0 -24 5 -34 15
-34 9 0 70 11 138 24 67 13 140 22 162 21 22 -1 79 -6 128 -10 48 -4 90 -11
93 -16 3 -5 16 -9 29 -9 13 0 26 -4 30 -9 3 -6 27 -13 53 -16 26 -3 70 -11 97
-17 28 -6 55 -14 60 -18 6 -4 33 -10 62 -13 30 -3 68 -16 90 -31 21 -13 64
-32 97 -41 40 -12 77 -15 120 -11 33 3 90 8 126 11 36 4 69 11 75 16 5 5 22 9
38 9 21 0 42 -13 80 -50 28 -27 59 -50 68 -50 10 0 21 -4 24 -10 3 -5 17 -10
29 -10 13 0 36 6 50 14 15 7 41 27 59 43 18 15 46 38 64 51 17 12 36 22 42 22
6 0 11 -6 11 -13 0 -7 13 -25 28 -40 15 -15 39 -27 53 -27 13 0 53 15 89 33
36 17 66 40 68 49 2 12 -5 19 -22 24 -15 3 -32 2 -39 -3 -6 -5 -30 -15 -52
-22 -35 -12 -40 -12 -50 4 -5 9 -18 28 -28 41 -12 15 -29 24 -46 24 -16 0 -43
-11 -62 -25 -19 -14 -42 -28 -51 -31 -10 -4 -18 -10 -18 -15 0 -5 -18 -20 -39
-35 -26 -16 -47 -24 -59 -19 -11 3 -42 28 -68 55 -27 28 -56 50 -64 50 -9 0
-20 4 -25 9 -6 6 -58 2 -135 -9 -69 -10 -150 -17 -180 -16 -41 2 -77 13 -140
43 -47 23 -107 46 -135 52 -27 5 -93 16 -145 22 -52 7 -99 16 -105 21 -5 4
-19 8 -31 8 -12 0 -27 7 -34 15 -8 9 -21 13 -32 9 -10 -3 -24 -1 -31 4 -7 5
-39 12 -72 16 -33 4 -76 8 -95 11z"/>
</g>
<g>
<path d="M17383 6870 c-39 0 -75 -4 -78 -10 -3 -5 -13 -10 -21 -10 -8 0 -31
-10 -52 -23 -20 -13 -63 -38 -95 -55 -32 -18 -65 -32 -73 -32 -8 0 -14 -3 -14
-7 0 -5 -10 -9 -22 -10 -13 -1 -54 -3 -93 -4 -38 -1 -106 1 -150 5 -44 3 -101
2 -127 -2 -33 -7 -69 -4 -129 8 -46 9 -92 20 -102 25 -10 4 -42 5 -70 2 -29
-3 -92 -11 -141 -17 -49 -7 -100 -9 -115 -5 -14 3 -69 12 -121 20 -52 8 -138
14 -190 15 -52 0 -127 -7 -165 -15 -39 -8 -95 -15 -125 -14 -30 0 -86 7 -125
15 -38 8 -96 20 -127 26 -49 9 -68 7 -143 -12 -69 -18 -102 -21 -163 -16 -43
3 -91 10 -107 15 -17 5 -80 14 -140 21 -97 11 -117 10 -158 -4 -26 -9 -55 -16
-63 -16 -8 0 -42 -13 -76 -30 -33 -16 -66 -30 -73 -30 -8 0 -20 -6 -27 -14 -8
-7 -25 -17 -38 -22 -14 -4 -31 -7 -38 -5 -8 1 -20 -3 -28 -10 -8 -6 -27 -9
-43 -6 -19 4 -33 1 -41 -8 -9 -11 -7 -19 14 -40 14 -14 32 -25 40 -25 9 0 55
18 102 40 48 22 97 40 110 40 13 0 24 5 24 10 0 6 5 10 11 10 6 0 25 6 42 14
18 7 51 19 74 25 23 6 53 9 65 6 13 -3 77 -10 143 -16 66 -6 159 -13 207 -16
61 -3 104 0 140 11 29 8 80 16 113 17 40 1 73 -4 100 -16 27 -12 70 -19 132
-20 51 -2 136 3 190 11 54 8 103 16 108 18 6 2 57 0 115 -5 58 -5 137 -13 175
-19 39 -6 90 -12 115 -14 25 -3 79 2 120 9 41 7 91 16 111 18 21 3 42 0 48 -6
6 -6 37 -15 68 -20 32 -5 99 -7 148 -6 50 2 110 3 135 2 25 -1 85 -4 133 -8
72 -6 100 -4 150 11 34 10 114 48 177 84 91 52 120 64 140 59 14 -4 39 -7 56
-8 23 -1 40 -12 67 -43 l37 -42 0 44 c0 25 -4 50 -8 56 -4 5 -18 18 -32 27
-17 12 -45 17 -97 17z"/>
</g>
<g>
<path d="M8620 6859 c-25 -1 -70 -7 -100 -14 -30 -8 -80 -16 -110 -19 -30 -3
-78 -12 -105 -19 -28 -8 -61 -19 -73 -26 -12 -7 -26 -10 -30 -7 -5 3 -33 -7
-63 -23 -30 -15 -79 -35 -110 -44 -36 -12 -79 -37 -122 -73 -37 -31 -67 -60
-67 -65 0 -5 3 -9 6 -9 3 0 15 5 27 12 12 7 30 13 40 15 10 2 37 14 60 27 23
14 56 27 72 29 17 3 39 8 50 12 11 4 40 17 65 29 25 11 52 26 60 33 8 6 44 18
80 27 36 8 106 20 155 27 50 6 111 14 137 16 33 4 59 0 83 -11 20 -10 49 -36
65 -59 16 -23 42 -60 59 -83 18 -25 50 -51 85 -69 34 -17 56 -35 56 -45 0 -12
10 -16 38 -16 20 -1 50 -4 66 -8 16 -4 38 -12 48 -17 11 -6 22 -8 25 -5 3 3
15 -1 27 -9 11 -8 30 -15 41 -16 11 0 34 -9 50 -19 17 -11 49 -29 73 -40 23
-11 42 -24 42 -29 0 -5 24 -12 53 -15 28 -4 83 -12 122 -18 51 -8 92 -7 155 1
47 6 131 21 188 33 56 11 105 18 109 14 3 -3 13 0 22 7 9 7 66 22 126 32 61
10 120 19 132 21 12 1 27 5 33 9 6 4 39 9 73 11 34 3 94 9 132 15 39 6 185 12
327 15 233 4 261 3 310 -14 29 -11 100 -33 158 -50 58 -17 134 -34 169 -38 43
-5 62 -4 58 3 -5 7 14 9 56 6 50 -4 77 0 137 21 41 15 99 29 130 33 30 3 62 9
71 14 9 4 20 4 25 -1 5 -5 43 -14 84 -19 41 -6 117 -16 167 -23 86 -11 94 -10
113 7 11 10 17 22 13 26 -5 4 -37 9 -73 12 -36 3 -87 10 -115 16 -27 7 -83 19
-124 28 -50 11 -97 14 -150 10 -42 -4 -105 -16 -141 -28 -36 -12 -87 -21 -115
-20 -27 1 -72 -3 -98 -8 -35 -6 -64 -5 -105 6 -31 7 -66 18 -77 23 -11 5 -42
16 -70 24 -27 8 -68 22 -90 30 -22 8 -56 15 -76 16 -20 0 -39 3 -43 8 -4 4
-39 7 -77 7 -38 0 -69 -4 -69 -8 0 -5 -53 -7 -117 -5 -65 1 -158 -3 -208 -11
-49 -7 -173 -26 -274 -43 -101 -16 -191 -33 -200 -38 -9 -5 -47 -14 -86 -20
-38 -6 -92 -14 -120 -17 -27 -3 -54 -8 -60 -13 -5 -4 -41 -11 -80 -16 -38 -5
-113 -8 -165 -8 -65 1 -117 8 -167 23 -40 12 -85 32 -100 45 -15 13 -55 35
-88 49 -33 14 -73 29 -90 33 -16 4 -44 6 -61 5 -18 -1 -53 9 -80 23 -27 13
-64 35 -83 48 -18 13 -65 64 -105 113 -42 53 -86 97 -106 107 -19 9 -55 17
-80 17z"/>
</g>
<g>
<path d="M7261 6548 c-21 3 -22 1 -17 -50 3 -29 7 -61 9 -70 2 -10 6 -21 10
-24 4 -4 7 -14 7 -21 0 -8 12 -30 26 -49 15 -19 54 -55 88 -80 33 -25 69 -52
79 -60 10 -8 35 -22 55 -31 20 -8 48 -21 62 -28 14 -7 43 -19 65 -26 22 -8 45
-14 50 -14 6 -1 21 -7 35 -15 14 -8 61 -27 105 -43 44 -15 92 -31 107 -34 20
-4 30 -1 34 11 4 10 -1 25 -11 36 -10 11 -25 20 -34 20 -9 0 -33 9 -54 20 -20
11 -44 20 -52 20 -9 0 -32 8 -53 18 -20 10 -44 18 -52 17 -8 -1 -23 5 -32 13
-10 8 -18 12 -18 9 0 -4 -36 11 -79 33 -44 22 -85 40 -91 40 -7 0 -22 11 -34
23 -12 13 -29 28 -37 33 -8 5 -33 30 -54 57 -22 26 -51 80 -66 120 -21 56 -31
73 -48 75z"/>
</g>
<g>
<path d="M720 6142 c-19 3 -51 2 -70 -2 -19 -3 -64 -18 -100 -33 -36 -14 -83
-30 -104 -36 -22 -6 -43 -8 -47 -5 -4 2 -25 7 -46 9 -21 3 -71 11 -112 19 -40
8 -101 12 -135 9 -33 -2 -71 -6 -83 -9 -19 -4 -23 -11 -23 -40 l0 -36 47 7
c26 4 87 7 135 6 48 0 96 -5 107 -11 11 -5 53 -10 94 -10 40 0 77 3 81 7 3 4
17 8 29 10 12 2 50 14 85 28 34 14 80 25 101 25 21 0 60 -10 87 -21 27 -12 70
-37 97 -55 26 -19 55 -34 65 -34 11 0 24 -11 30 -24 6 -13 21 -28 34 -32 13
-3 41 -19 63 -33 22 -15 56 -32 76 -39 19 -7 45 -12 57 -12 12 0 22 4 22 8 0
5 -19 19 -42 32 -24 13 -65 39 -93 57 -27 19 -72 54 -99 78 -26 25 -54 45 -61
45 -7 0 -19 7 -26 17 -8 9 -41 28 -74 43 -33 15 -76 29 -95 32z"/>
</g>
<g>
<path d="M12233 5550 c-22 0 -24 -3 -19 -27 4 -16 21 -40 39 -55 18 -15 40
-28 50 -29 9 -1 21 -2 26 -3 5 0 13 -4 17 -8 4 -5 19 -8 34 -8 17 0 38 -12 59
-34 33 -34 34 -37 26 -88 -4 -29 -8 -66 -8 -82 0 -20 9 -38 28 -53 15 -13 37
-23 49 -21 16 2 20 9 17 28 -2 14 -3 70 -2 124 l2 99 -37 38 c-20 21 -51 41
-68 45 -17 3 -65 17 -106 31 -41 14 -76 30 -78 34 -2 5 -15 9 -29 9z"/>
</g>
<g>
<path d="M1389 5529 c-46 -1 -111 -5 -144 -10 -33 -4 -73 -10 -90 -13 -16 -2
-45 -7 -63 -11 -18 -4 -35 -12 -38 -16 -3 -5 -18 -9 -33 -9 -16 0 -46 -8 -67
-18 -22 -10 -58 -30 -81 -44 -23 -15 -44 -32 -48 -38 -4 -6 -15 -8 -25 -5 -13
4 -22 -1 -29 -14 -6 -11 -11 -28 -11 -39 0 -11 7 -22 15 -26 8 -3 30 -3 47 1
18 3 56 25 85 49 28 23 62 45 75 49 13 3 39 12 58 19 19 8 60 22 90 32 46 16
84 19 230 18 143 0 183 -3 220 -18 25 -9 75 -19 112 -22 52 -3 70 -1 83 12 9
9 14 19 11 22 -3 3 -18 6 -33 8 -16 1 -47 8 -71 13 -23 6 -50 15 -60 21 -9 5
-47 16 -83 25 -36 8 -103 14 -150 14z"/>
</g>
<g>
<path d="M7864 5405 c-22 2 -50 1 -64 -3 -14 -5 -26 -17 -28 -29 -2 -14 4 -23
20 -28 13 -4 27 -7 32 -6 4 1 14 -3 20 -9 7 -5 15 -7 19 -4 3 3 27 -7 54 -22
26 -16 57 -37 68 -47 11 -10 45 -35 75 -55 30 -20 82 -58 114 -84 32 -26 73
-54 90 -63 17 -9 49 -27 71 -40 22 -14 45 -28 50 -32 6 -5 26 -28 45 -53 19
-25 41 -54 48 -65 7 -11 25 -47 41 -80 16 -33 33 -73 37 -90 4 -16 20 -49 35
-73 16 -24 29 -46 29 -49 0 -4 7 -14 16 -24 12 -13 16 -41 17 -111 1 -60 -8
-152 -25 -262 -16 -92 -25 -173 -22 -178 4 -6 2 -13 -4 -17 -6 -4 -17 -38 -23
-76 -7 -39 -14 -88 -15 -110 0 -22 -2 -57 -3 -77 0 -20 -8 -43 -16 -52 -8 -8
-15 -26 -15 -40 0 -14 4 -27 10 -31 5 -3 18 3 29 14 10 10 24 42 30 70 6 29
11 65 11 80 0 16 9 49 20 73 11 25 23 74 26 109 3 35 8 67 10 70 2 4 13 53 24
110 12 57 23 124 26 149 3 25 8 84 11 132 3 63 0 104 -12 143 -8 30 -25 70
-36 90 -12 19 -25 35 -29 35 -4 0 -15 15 -23 33 -9 17 -32 68 -52 112 -21 44
-55 107 -77 140 -22 33 -60 76 -84 95 -24 19 -68 48 -97 63 -28 15 -94 59
-145 97 -51 39 -97 70 -103 70 -5 0 -9 3 -9 8 0 4 -35 31 -79 60 -53 36 -91
55 -117 57z"/>
</g>
<g>
<path d="M5555 5350 c-11 0 -26 -4 -34 -9 -9 -6 -11 -18 -8 -32 4 -13 22 -34
41 -46 18 -12 51 -25 72 -28 22 -4 64 -13 94 -21 30 -8 66 -20 80 -26 14 -7
33 -19 42 -26 10 -8 24 -12 32 -9 8 3 20 -1 26 -8 7 -8 16 -12 22 -9 5 3 14 1
21 -4 7 -6 29 -13 49 -17 21 -4 42 -13 49 -21 6 -8 17 -14 24 -14 7 0 37 -30
68 -67 30 -38 109 -123 176 -189 66 -67 121 -129 121 -137 0 -9 6 -20 14 -24
8 -4 24 -30 36 -58 12 -27 27 -57 34 -65 8 -8 16 -32 20 -52 4 -21 11 -38 16
-38 4 0 19 -27 32 -60 12 -33 26 -60 30 -60 4 0 12 -19 18 -42 6 -24 15 -52
20 -63 4 -11 11 -32 14 -47 4 -16 12 -28 19 -28 7 0 21 6 30 13 10 7 17 27 17
52 1 22 -9 69 -22 105 -13 36 -36 88 -53 115 -16 28 -30 55 -31 60 0 6 -15 37
-32 70 -18 33 -36 67 -41 75 -5 8 -19 35 -31 60 -13 25 -37 63 -53 85 -17 22
-45 54 -62 70 -17 17 -56 53 -87 80 -30 28 -84 85 -119 128 -50 59 -79 83
-124 106 -33 16 -87 36 -120 46 -33 9 -83 27 -110 41 -28 13 -64 24 -82 24
-18 0 -33 6 -37 15 -3 10 -19 15 -48 15 -26 0 -55 8 -73 20 -16 11 -39 20 -50
20z"/>
</g>
<g>
<path d="M4255 4917 c-16 1 -36 0 -42 -3 -7 -3 -13 -12 -13 -20 0 -7 -11 -16
-25 -20 -14 -3 -41 -25 -60 -47 -19 -22 -35 -49 -35 -59 0 -10 -4 -18 -9 -18
-5 0 -12 -12 -15 -26 -4 -14 -18 -43 -32 -63 -13 -21 -33 -62 -44 -91 -11 -29
-17 -57 -14 -62 3 -5 -6 -42 -21 -83 -14 -42 -28 -93 -30 -114 -2 -22 -6 -59
-9 -83 -3 -25 2 -79 12 -128 16 -81 19 -86 52 -102 19 -9 38 -17 42 -18 4 0
10 16 14 35 4 26 1 43 -12 63 -14 20 -18 48 -19 112 0 48 7 122 18 170 10 47
25 95 33 107 7 12 14 32 14 44 0 11 6 35 14 52 7 18 19 43 25 57 7 14 23 45
36 70 14 25 25 50 25 57 0 6 29 38 65 69 47 41 65 64 63 79 -2 14 -11 21 -33
22z"/>
</g>
<g>
<path d="M5145 4902 c-11 3 -40 3 -65 -1 -35 -5 -48 -12 -60 -34 -14 -26 -14
-29 3 -42 13 -9 47 -13 110 -12 51 1 99 -3 107 -8 8 -5 20 -10 25 -10 6 0 39
-15 75 -33 36 -17 72 -38 80 -44 8 -7 27 -29 41 -48 15 -19 29 -49 33 -67 4
-17 13 -37 21 -43 8 -6 12 -17 9 -25 -3 -7 7 -19 24 -28 17 -8 36 -11 42 -7 7
4 13 26 13 49 0 24 -7 49 -17 59 -9 10 -16 25 -16 33 0 8 -9 30 -19 50 -10 19
-35 53 -55 76 -21 22 -56 49 -79 59 -23 10 -56 29 -74 42 -21 16 -39 21 -52
17 -12 -3 -26 -3 -33 1 -7 5 -31 9 -53 10 -22 0 -49 3 -60 6z"/>
</g>
<g>
<path d="M1676 4830 c-17 0 -68 -19 -114 -43 -46 -23 -104 -58 -129 -77 -26
-19 -71 -58 -100 -87 -29 -29 -83 -80 -120 -115 -38 -35 -85 -84 -105 -110
-21 -26 -38 -50 -38 -54 0 -3 -14 -24 -31 -45 -17 -21 -28 -43 -25 -48 4 -5 2
-12 -4 -16 -5 -3 -16 -20 -23 -38 -8 -18 -24 -56 -36 -86 -11 -29 -21 -62 -21
-73 0 -11 -5 -28 -11 -40 -6 -11 -13 -36 -15 -55 -3 -19 -9 -44 -15 -55 -6
-10 -14 -61 -19 -111 -6 -51 -12 -105 -14 -122 -3 -16 -7 -51 -10 -76 -3 -25
-6 -50 -7 -55 -1 -5 1 -16 4 -24 3 -8 7 -24 9 -35 2 -12 12 -21 26 -23 16 -3
25 4 33 25 5 15 8 36 5 47 -3 11 0 54 5 95 6 42 14 110 19 151 5 41 18 117 28
168 11 51 27 103 36 117 9 13 16 29 16 36 0 6 6 25 14 42 8 18 23 53 34 79 11
25 40 72 64 103 23 32 48 65 53 74 6 9 62 68 126 131 64 63 136 132 162 153
25 20 72 50 104 67 32 16 75 31 95 33 20 2 44 9 53 17 14 12 14 15 -1 31 -10
11 -30 19 -48 19z"/>
</g>
<g>
<path d="M15370 4673 c-25 3 -101 1 -170 -2 -69 -4 -136 -13 -149 -20 -13 -7
-19 -16 -15 -21 5 -4 50 -13 100 -19 50 -6 122 -11 160 -11 38 0 87 -5 109
-11 22 -5 58 -12 80 -15 22 -2 65 -7 95 -11 30 -3 69 -7 85 -8 17 -1 55 -10
85 -19 30 -10 73 -21 95 -25 23 -4 45 -10 51 -14 6 -3 100 -13 210 -22 109 -8
206 -18 214 -20 8 -2 55 -7 104 -11 49 -3 99 -9 110 -14 12 -4 44 -11 72 -14
27 -4 66 -9 85 -11 19 -3 57 -7 84 -10 28 -4 57 -9 65 -12 8 -3 38 -7 65 -9
28 -2 94 -6 148 -10 79 -4 97 -3 97 8 0 10 -27 18 -97 27 -54 7 -118 15 -143
17 -25 3 -57 9 -72 14 -15 5 -83 14 -150 20 -68 7 -131 16 -140 21 -10 5 -35
9 -55 9 -21 0 -56 5 -78 10 -22 6 -114 19 -205 30 -91 11 -183 20 -204 20 -22
0 -53 4 -70 9 -17 5 -53 16 -81 24 -27 9 -85 25 -127 36 -43 12 -102 21 -132
21 -30 0 -82 9 -117 19 -35 11 -84 22 -109 24z"/>
</g>
<g>
<path d="M4494 4600 c-10 0 -25 -4 -33 -9 -7 -5 -10 -14 -6 -21 4 -6 1 -19 -7
-28 -8 -9 -20 -39 -26 -67 -6 -27 -11 -66 -10 -85 0 -19 9 -52 19 -72 11 -21
19 -44 19 -53 0 -9 8 -27 17 -41 9 -14 24 -40 33 -57 10 -18 35 -44 56 -60 21
-15 58 -41 82 -57 24 -17 47 -28 52 -25 5 3 35 -1 67 -8 32 -7 93 -12 137 -10
43 1 83 6 90 11 6 6 46 21 90 36 43 14 89 26 101 26 13 0 33 8 46 18 14 12 20
25 16 35 -5 13 -18 15 -69 11 -35 -2 -76 -9 -93 -15 -16 -6 -39 -15 -50 -19
-11 -4 -46 -14 -78 -21 -48 -10 -73 -10 -135 0 -43 7 -80 17 -83 22 -3 5 -13
7 -22 3 -10 -4 -27 5 -46 25 -17 17 -35 31 -40 31 -5 0 -22 15 -38 34 -17 19
-33 50 -36 73 -4 22 -16 52 -27 66 -14 18 -20 40 -20 79 0 42 6 62 25 88 14
19 25 39 25 45 0 7 -8 19 -18 28 -10 10 -27 17 -38 17z"/>
</g>
<g>
<path d="M17190 4380 c-10 0 -21 -4 -24 -9 -3 -5 4 -11 16 -14 12 -3 25 -4 30
-1 5 3 6 10 3 15 -4 5 -15 9 -25 9z"/>
</g>
<g>
<path d="M9627 4360 c-7 0 -18 -5 -25 -12 -7 -7 -12 -19 -12 -27 0 -8 12 -35
26 -60 15 -25 49 -67 76 -93 27 -26 52 -47 56 -46 4 1 31 -6 59 -16 29 -10 55
-22 58 -27 4 -5 14 -9 23 -9 10 0 31 -13 48 -28 17 -15 35 -35 40 -43 5 -8 21
-24 36 -36 15 -11 42 -39 60 -61 18 -23 47 -60 63 -82 17 -23 45 -57 63 -76
17 -20 32 -39 32 -43 0 -4 13 -20 29 -35 16 -16 35 -41 41 -57 7 -16 17 -29
22 -29 5 0 30 -19 55 -42 26 -24 69 -65 97 -91 28 -27 78 -62 111 -78 34 -17
91 -34 130 -40 38 -5 97 -7 130 -3 33 3 74 12 90 19 17 7 46 17 65 20 19 4 40
11 45 15 6 4 26 11 45 15 19 4 45 13 57 21 12 8 33 14 45 14 13 0 55 9 93 20
39 11 82 20 97 20 15 0 29 4 33 9 3 6 120 11 278 12 149 1 299 3 332 3 47 1
60 4 63 18 3 13 -9 17 -70 23 -40 4 -198 4 -351 1 -213 -4 -290 -9 -330 -22
-28 -9 -77 -24 -107 -34 -30 -10 -84 -26 -120 -35 -36 -9 -78 -24 -93 -32 -15
-8 -34 -12 -42 -9 -8 3 -27 -2 -43 -10 -16 -7 -64 -17 -106 -21 -50 -4 -97 -1
-134 7 -31 7 -64 18 -72 24 -8 6 -31 19 -50 29 -20 10 -68 48 -107 85 -39 37
-95 96 -123 132 -28 36 -64 84 -78 108 -15 23 -45 67 -67 97 -22 29 -53 72
-69 94 -17 23 -35 41 -41 41 -6 0 -36 30 -66 66 -41 49 -68 72 -114 93 -33 16
-82 36 -108 46 -33 12 -59 32 -85 64 -21 25 -46 58 -55 74 -10 15 -23 27 -30
27z"/>
</g>
<g>
<path d="M2679 4140 c-21 0 -41 -4 -44 -10 -3 -5 -14 -10 -23 -10 -9 0 -64
-23 -122 -51 -58 -28 -125 -61 -150 -72 -25 -12 -74 -43 -110 -71 -36 -27 -98
-83 -138 -124 -39 -41 -86 -96 -104 -123 -17 -27 -35 -49 -40 -49 -4 0 -8 -7
-8 -15 0 -8 -4 -23 -9 -33 -5 -9 -17 -39 -26 -67 -9 -27 -35 -87 -56 -133 -21
-45 -39 -95 -39 -110 0 -15 -8 -39 -17 -52 -12 -17 -18 -49 -21 -100 -1 -41 2
-131 9 -200 10 -115 15 -133 56 -220 24 -52 47 -100 51 -106 4 -6 21 -29 37
-51 17 -22 37 -50 45 -62 8 -11 22 -21 32 -21 9 0 21 -6 25 -13 4 -7 27 -27
49 -45 23 -17 66 -45 95 -60 30 -16 74 -40 99 -54 25 -14 59 -28 75 -32 17 -3
51 -8 78 -11 26 -2 55 -8 65 -13 9 -5 46 -13 82 -17 36 -4 90 -10 120 -14 30
-3 171 -5 312 -4 198 1 277 6 340 19 46 9 137 20 203 23 91 5 131 12 165 28
25 11 65 26 90 33 25 7 57 18 72 26 14 8 36 14 48 14 12 0 42 12 68 27 26 15
49 30 52 34 3 3 47 28 99 55 52 27 102 54 111 59 9 6 36 30 59 54 23 24 50 63
58 85 9 23 22 48 29 56 7 8 27 53 44 98 20 51 30 92 26 106 -3 13 -13 27 -23
30 -10 4 -26 -3 -45 -21 -19 -18 -28 -37 -28 -59 0 -17 -7 -37 -15 -44 -8 -7
-15 -21 -15 -31 0 -10 -4 -21 -10 -24 -5 -3 -10 -15 -10 -25 0 -11 -13 -35
-30 -53 -16 -19 -30 -39 -30 -45 0 -6 -12 -24 -26 -41 -16 -19 -35 -31 -50
-31 -13 0 -24 -4 -24 -9 0 -5 -12 -12 -26 -15 -14 -4 -58 -29 -97 -55 -40 -27
-83 -51 -97 -54 -14 -3 -44 -10 -68 -16 -23 -6 -50 -15 -60 -20 -9 -5 -35 -18
-57 -29 -22 -11 -69 -27 -105 -36 -36 -9 -99 -18 -140 -20 -41 -2 -106 -10
-145 -16 -38 -7 -84 -12 -102 -11 -17 1 -34 -2 -37 -7 -3 -5 -63 -7 -133 -6
-70 2 -132 3 -138 3 -5 0 -39 -2 -75 -5 -36 -2 -110 0 -165 6 -55 6 -156 20
-225 32 -84 13 -144 29 -185 49 -33 16 -77 38 -97 50 -21 11 -38 25 -38 30 0
5 -7 9 -16 9 -9 0 -42 21 -72 47 -31 27 -66 58 -79 71 -13 13 -23 30 -23 39 0
8 -11 28 -25 45 -14 16 -25 40 -25 53 0 12 -12 44 -27 71 -15 27 -28 54 -30
59 -1 6 -6 33 -10 60 -5 28 -8 95 -7 150 1 55 6 123 11 150 5 28 29 97 52 155
23 58 49 121 58 140 9 19 25 55 37 80 11 25 35 65 51 90 17 25 66 80 110 122
44 43 104 94 133 113 30 19 58 35 63 35 5 0 17 4 27 10 9 5 40 19 67 31 28 12
59 29 70 38 11 10 41 25 67 35 26 10 73 20 105 22 32 3 64 11 72 19 7 7 11 20
8 28 -3 8 -20 17 -37 21 -18 3 -50 6 -71 6z"/>
</g>
<g>
<path d="M3655 3894 c-5 0 -30 0 -55 -2 -24 -2 -51 -8 -58 -14 -7 -6 -12 -22
-10 -36 3 -22 9 -25 53 -28 28 -2 73 -6 101 -9 40 -5 61 -15 108 -53 32 -26
70 -53 83 -60 13 -8 29 -24 35 -38 6 -13 18 -26 27 -29 9 -3 25 -19 36 -37 11
-18 34 -58 50 -88 17 -31 31 -64 32 -75 1 -11 4 -36 7 -56 2 -20 -2 -63 -10
-95 -7 -33 -17 -68 -22 -79 -5 -11 -26 -54 -46 -96 -21 -42 -55 -95 -77 -119
-21 -23 -45 -50 -52 -59 -6 -10 -43 -33 -82 -52 -38 -18 -73 -33 -76 -34 -3 0
-22 -9 -42 -20 -31 -16 -41 -18 -57 -7 -17 10 -21 10 -26 -3 -4 -8 -17 -15
-29 -15 -13 0 -61 -9 -107 -21 -46 -11 -112 -27 -148 -35 -36 -8 -98 -22 -138
-31 -40 -9 -87 -16 -105 -16 -18 1 -84 4 -147 8 -65 4 -124 12 -135 19 -11 7
-44 21 -74 31 -30 10 -71 27 -90 38 -20 12 -38 24 -41 27 -3 3 -31 14 -63 24
-32 11 -63 28 -68 38 -5 10 -15 18 -22 18 -7 0 -25 18 -41 39 -15 21 -38 44
-51 51 -13 7 -28 23 -34 37 -6 13 -11 30 -11 37 0 7 -12 23 -26 37 -14 13 -30
33 -35 44 -5 11 -17 34 -27 50 -10 17 -27 30 -37 30 -10 0 -23 -8 -29 -17 -9
-14 -4 -31 23 -80 19 -35 55 -94 80 -133 25 -38 68 -92 96 -120 27 -27 72 -64
99 -82 27 -18 61 -35 77 -38 15 -4 33 -13 40 -21 6 -8 20 -14 31 -14 10 0 31
-8 46 -17 15 -10 29 -20 32 -23 3 -3 14 -7 25 -8 11 -2 38 -13 60 -25 33 -17
60 -21 150 -22 61 0 122 -5 137 -9 18 -5 49 -1 95 12 37 11 82 24 98 28 17 4
39 8 50 9 11 1 46 5 77 9 32 4 60 12 64 17 3 5 9 7 14 4 5 -3 22 0 37 8 15 8
51 18 78 22 28 4 64 8 80 10 17 1 48 12 70 23 22 12 46 22 53 22 8 0 25 9 39
20 14 11 33 20 42 20 9 0 25 7 35 15 10 8 50 42 88 77 38 34 82 84 98 110 17
27 30 56 30 66 0 10 5 23 12 30 6 6 18 28 25 49 8 21 19 56 24 78 6 22 10 73
11 115 0 53 -6 94 -22 139 -12 36 -38 90 -58 120 -20 31 -63 82 -95 114 -32
31 -62 57 -68 57 -5 0 -9 7 -9 16 0 8 -5 12 -11 9 -6 -4 -20 2 -32 12 -12 11
-33 26 -47 34 -14 9 -47 21 -75 28 -27 7 -54 14 -60 15z"/>
</g>
<g>
<path d="M2765 3685 c-11 3 -47 -8 -82 -25 -35 -17 -63 -34 -63 -38 0 -4 -18
-27 -41 -52 -22 -25 -49 -63 -61 -85 -11 -22 -25 -60 -30 -85 -5 -25 -10 -54
-12 -65 -1 -11 -5 -27 -8 -35 -4 -8 -9 -28 -13 -45 -3 -16 -6 -37 -6 -45 0 -8
4 -34 9 -58 5 -23 17 -51 27 -62 10 -11 26 -22 36 -25 11 -4 19 -12 19 -20 0
-8 9 -17 20 -20 11 -3 20 -11 20 -16 0 -6 10 -9 23 -7 18 2 23 10 25 46 3 36
0 43 -20 51 -13 5 -33 19 -45 32 -18 20 -21 34 -18 89 1 36 4 72 7 80 3 8 10
31 17 51 6 19 11 43 11 53 0 10 6 24 13 31 6 7 28 36 47 64 26 36 43 51 66 56
18 3 37 12 44 20 7 8 19 15 28 15 8 0 21 8 28 18 7 9 14 29 14 45 0 19 -5 27
-17 27 -10 0 -27 3 -38 5z"/>
</g>
<g>
<path d="M3478 3690 c-5 0 -17 -9 -28 -20 -19 -19 -19 -23 -6 -48 8 -15 28
-40 45 -55 17 -16 31 -35 31 -42 0 -8 8 -19 19 -24 12 -7 21 -25 23 -48 3 -21
1 -43 -4 -50 -5 -7 -7 -21 -3 -33 4 -14 15 -20 34 -20 16 0 34 6 40 14 7 8 16
29 21 46 7 23 5 42 -5 65 -7 19 -11 36 -8 39 3 3 -12 27 -33 53 -22 26 -44 54
-51 60 -6 7 -16 13 -21 13 -5 0 -18 11 -28 25 -10 14 -22 25 -26 25z"/>
</g>
<g>
<path d="M3132 3609 c-9 -1 -32 -7 -51 -14 -27 -9 -37 -21 -48 -56 -12 -35
-13 -53 -4 -94 7 -27 20 -67 30 -88 10 -22 40 -55 67 -75 45 -34 54 -37 107
-34 40 2 60 8 64 18 3 8 0 21 -6 28 -7 8 -35 20 -63 26 -35 9 -52 18 -55 31
-3 11 -14 19 -25 19 -17 0 -19 5 -15 27 3 15 -1 37 -10 50 -9 14 -13 33 -9 48
4 14 13 25 20 25 8 0 17 15 20 35 4 20 4 40 1 45 -3 6 -14 9 -23 9z"/>
</g>
<g>
<path d="M5816 3600 c-12 0 -35 -11 -50 -25 -15 -14 -33 -25 -41 -25 -8 0 -23
-17 -34 -39 -12 -22 -30 -41 -43 -45 -13 -3 -34 -6 -46 -6 -13 0 -42 -15 -64
-34 -21 -19 -55 -37 -74 -40 -19 -4 -34 -11 -34 -15 0 -5 -30 -12 -66 -16 -37
-4 -85 -13 -107 -21 -29 -10 -64 -12 -132 -8 -63 5 -94 3 -99 -4 -4 -7 -20 -9
-39 -6 -18 4 -56 13 -85 21 -29 8 -65 12 -78 9 -14 -4 -42 -2 -62 5 -20 6 -50
17 -65 25 -16 8 -41 14 -57 14 -16 0 -31 4 -34 9 -3 5 -26 12 -50 15 -25 4
-56 16 -69 27 -14 10 -32 19 -41 19 -9 0 -16 3 -16 8 0 4 -11 15 -25 24 -18
14 -29 16 -50 8 -23 -9 -24 -12 -14 -31 6 -12 34 -44 61 -70 28 -27 56 -48 62
-47 6 1 31 -4 56 -11 25 -7 54 -17 65 -22 11 -5 32 -13 48 -19 15 -5 27 -14
27 -19 0 -5 10 -9 23 -9 12 -1 67 -8 122 -16 55 -8 103 -12 108 -9 5 3 20 0
33 -8 20 -10 36 -10 87 0 39 8 72 9 87 3 16 -5 66 -3 135 6 61 8 121 19 135
24 14 6 33 14 42 19 10 5 27 9 39 9 12 0 46 12 76 26 29 15 53 30 53 35 0 5 9
9 21 9 11 0 30 5 42 12 12 7 29 13 37 14 8 2 20 11 27 20 7 10 13 24 13 31 0
7 11 13 24 13 13 0 26 8 30 18 4 9 15 33 26 52 10 19 19 43 20 53 0 11 -8 17
-24 17z"/>
</g>
<g>
<path d="M135 3470 c-14 0 -27 -6 -30 -12 -2 -7 -9 -40 -16 -72 -6 -33 -15
-67 -19 -75 -5 -9 -15 -43 -24 -76 -8 -33 -22 -96 -31 -141 -11 -59 -15 -148
-15 -326 0 -134 3 -247 6 -250 3 -3 6 -56 8 -117 1 -70 6 -115 14 -123 7 -7
12 -26 12 -43 1 -16 7 -48 15 -70 8 -22 19 -41 25 -43 5 -2 10 -13 10 -25 0
-12 9 -28 20 -35 11 -7 20 -20 20 -30 0 -10 6 -26 14 -37 7 -11 21 -49 31 -85
9 -36 24 -96 32 -135 8 -38 18 -86 22 -106 4 -20 20 -52 36 -72 18 -25 40 -40
68 -48 23 -6 56 -9 74 -6 19 4 44 0 61 -9 15 -7 33 -14 41 -14 8 0 22 -6 30
-13 9 -8 36 -21 61 -29 25 -9 63 -20 85 -25 22 -4 135 -8 250 -8 l210 0 70
-36 c56 -28 76 -45 101 -85 18 -27 41 -58 53 -70 11 -12 24 -35 27 -53 4 -17
11 -34 15 -37 5 -3 9 -19 9 -35 0 -16 6 -32 14 -35 8 -3 27 -24 42 -47 15 -23
46 -59 68 -80 23 -21 64 -49 91 -61 28 -13 66 -27 85 -31 19 -4 53 -9 75 -10
23 -2 50 3 62 11 12 8 27 14 33 14 6 0 35 11 63 24 29 13 61 27 72 31 11 4 46
9 78 12 36 2 57 0 57 -6 0 -6 8 -11 17 -11 9 0 36 -9 60 -21 24 -11 69 -23
101 -26 31 -3 91 0 132 7 41 7 106 15 144 16 38 2 74 0 80 -5 6 -6 25 -10 41
-9 17 0 62 -9 100 -21 39 -12 90 -28 114 -35 32 -11 50 -12 63 -5 11 6 18 18
16 27 -2 11 -17 19 -43 23 -22 3 -80 18 -130 33 -49 16 -108 35 -129 42 -29
10 -78 12 -194 9 -85 -3 -158 -7 -162 -10 -3 -2 -27 2 -53 10 -25 7 -56 19
-69 26 -13 7 -25 16 -28 20 -3 4 -26 8 -50 8 -25 1 -70 -3 -100 -7 -30 -5 -76
-18 -101 -31 -26 -12 -74 -30 -107 -40 -49 -15 -70 -17 -106 -9 -25 5 -46 14
-46 19 0 5 -10 9 -22 9 -13 1 -40 11 -60 23 -20 12 -54 45 -76 73 -22 28 -47
65 -56 82 -9 17 -16 40 -16 51 0 11 -5 23 -11 26 -5 4 -22 32 -36 63 -14 32
-31 64 -39 72 -7 8 -31 33 -53 56 -23 23 -60 49 -84 59 -23 9 -51 22 -62 29
-13 7 -100 11 -265 11 -175 1 -254 5 -275 14 -16 7 -39 21 -50 31 -11 10 -47
26 -80 35 -33 10 -87 20 -120 24 -33 3 -67 11 -76 16 -8 6 -23 30 -32 55 -9
25 -19 68 -22 95 -3 28 -8 67 -11 88 -3 20 -10 37 -14 37 -5 0 -8 8 -7 18 0
10 -18 58 -42 108 -23 49 -49 103 -56 119 -8 17 -21 59 -29 95 -8 36 -17 83
-20 105 -2 22 -8 67 -11 100 -4 33 -16 94 -28 135 -11 41 -21 95 -23 120 -1
25 -3 74 -4 110 -1 36 8 107 20 160 12 52 26 115 31 140 6 25 11 54 13 65 1
12 5 25 8 30 3 6 18 57 32 115 14 58 26 113 26 123 0 12 -8 17 -25 17z"/>
</g>
<g>
<path d="M6627 3200 c-7 0 -21 -14 -31 -30 -9 -17 -21 -28 -25 -25 -5 2 -16
-4 -26 -15 -10 -11 -22 -20 -27 -20 -5 0 -35 -17 -66 -37 -31 -20 -66 -45 -77
-55 -11 -10 -62 -53 -114 -96 -51 -42 -105 -85 -120 -94 -14 -9 -53 -31 -86
-48 -33 -18 -64 -36 -69 -41 -6 -5 -20 -9 -33 -9 -12 0 -37 -6 -55 -14 -18 -8
-78 -20 -133 -26 -55 -7 -107 -16 -116 -21 -9 -5 -20 -21 -23 -35 -5 -18 -3
-30 6 -36 7 -4 23 -6 36 -3 13 3 50 8 83 11 33 3 81 12 107 19 26 8 57 15 68
15 12 0 27 6 33 14 7 8 20 12 30 9 10 -2 24 2 32 9 8 8 34 24 59 37 25 12 56
28 70 36 14 8 79 62 145 120 65 58 144 123 175 143 30 20 77 48 104 62 26 14
55 37 64 51 9 16 12 36 8 53 -3 14 -12 26 -19 26z"/>
</g>
<g>
<path d="M4690 2227 c-8 1 -33 -8 -55 -20 -22 -11 -41 -25 -43 -29 -2 -4 -10
-8 -17 -8 -7 0 -48 -18 -90 -40 -42 -22 -82 -46 -90 -54 -8 -8 -28 -17 -45
-21 -16 -4 -30 -11 -30 -16 0 -5 -7 -9 -16 -9 -8 0 -36 -10 -62 -22 -26 -12
-49 -22 -52 -23 -3 0 -22 -7 -42 -14 -21 -7 -38 -16 -38 -20 0 -4 -18 -8 -41
-9 -22 -1 -49 -7 -60 -12 -10 -6 -36 -13 -56 -15 -21 -3 -85 -10 -143 -16 -58
-6 -111 -14 -119 -18 -8 -4 -20 -16 -28 -28 -12 -18 -11 -22 13 -38 24 -16 36
-17 98 -7 39 6 96 15 126 22 30 6 82 19 115 30 33 10 85 24 115 30 36 7 60 17
68 30 7 11 22 20 33 20 12 0 60 21 108 47 47 25 97 52 111 59 14 8 31 14 38
14 6 0 12 7 12 15 0 8 7 15 15 15 8 0 15 5 15 10 0 6 11 10 24 10 13 0 29 6
35 14 7 8 26 18 42 21 16 4 29 12 29 18 0 7 10 17 23 22 12 6 22 17 22 25 0 8
-7 16 -15 17z"/>
</g>
<g>
<path d="M7888 2156 c-14 1 -52 -7 -83 -18 -31 -10 -69 -19 -84 -19 -14 0 -47
1 -73 3 -42 3 -52 -1 -100 -39 -29 -23 -69 -55 -89 -70 -20 -15 -46 -44 -58
-65 -12 -21 -25 -38 -29 -38 -4 0 -27 -19 -52 -41 -25 -23 -66 -52 -92 -64
-26 -12 -53 -26 -60 -32 -7 -6 -24 -13 -38 -16 -14 -3 -43 -10 -65 -16 -22 -6
-85 -18 -140 -26 -55 -9 -115 -23 -132 -31 -18 -8 -33 -20 -33 -27 0 -7 4 -18
9 -25 6 -10 26 -9 101 8 52 11 108 20 124 20 17 0 48 6 71 14 22 8 58 19 80
25 22 5 49 13 61 16 11 3 29 13 40 23 10 10 36 28 56 41 21 12 41 28 45 35 5
6 20 21 34 32 15 11 50 48 79 82 28 35 64 68 78 73 15 6 34 16 42 24 10 9 40
13 96 12 61 -1 87 3 107 16 14 9 45 22 69 28 24 6 112 11 198 11 85 -1 155 -2
155 -2 0 -1 27 -2 60 -3 33 -1 61 2 63 6 1 4 2 14 2 23 0 12 -9 15 -42 13 -24
-1 -52 1 -63 5 -11 4 -27 11 -35 15 -8 5 -29 2 -46 -5 -17 -7 -34 -10 -38 -7
-3 3 -38 9 -78 13 -44 4 -76 3 -79 -3 -4 -6 -12 -6 -20 -1 -8 5 -26 9 -41 10z"/>
</g>
<g>
<path d="M8365 2130 c-8 0 -15 -6 -15 -14 0 -8 7 -17 16 -20 9 -4 19 -4 22 -2
2 3 2 12 -1 21 -4 8 -13 15 -22 15z"/>
</g>
</g>
</svg>
