<?xml version="1.0" standalone="no"?>
<!DOCTYPE svg PUBLIC "-//W3C//DTD SVG 20010904//EN"
 "http://www.w3.org/TR/2001/REC-SVG-20010904/DTD/svg10.dtd">
<svg version="1.0" xmlns="http://www.w3.org/2000/svg"
 width="1991.000000pt" height="2016.000000pt" viewBox="0 0 1991.000000 2016.000000"
 preserveAspectRatio="xMidYMid meet">
<metadata>
Created by potrace 1.16, written by Peter Selinger 2001-2019
</metadata>
<g transform="translate(0.000000,2016.000000) scale(0.100000,-0.100000)"
fill="#000000" stroke="none">
<g>
<path d="M5015 18048 c-16 0 -73 -4 -125 -8 -72 -5 -114 -15 -173 -39 -43 -17
-94 -35 -115 -40 -20 -6 -57 -15 -82 -21 -24 -6 -49 -15 -55 -20 -5 -4 -28
-11 -50 -15 -22 -4 -53 -11 -70 -17 -16 -5 -39 -14 -50 -18 -11 -5 -33 -11
-50 -13 -16 -3 -48 -10 -69 -15 -21 -6 -42 -14 -45 -19 -3 -4 -26 -22 -51 -38
-25 -17 -46 -33 -48 -37 -2 -5 -10 -8 -18 -8 -8 0 -14 -4 -14 -10 0 -5 -17
-14 -38 -20 -22 -5 -47 -19 -56 -29 -10 -11 -28 -22 -40 -25 -13 -3 -35 -23
-50 -45 -20 -28 -44 -46 -87 -65 -33 -14 -65 -30 -72 -36 -6 -5 -36 -28 -64
-50 -29 -22 -53 -44 -53 -49 0 -5 -19 -22 -43 -38 -23 -15 -68 -48 -99 -73
-31 -25 -66 -62 -78 -83 -12 -21 -31 -43 -41 -50 -11 -7 -50 -52 -88 -102 -37
-49 -85 -115 -106 -145 -21 -30 -44 -76 -51 -102 -6 -26 -10 -48 -8 -48 3 0
-16 -28 -42 -62 -32 -40 -54 -83 -67 -127 -10 -36 -24 -87 -31 -113 -6 -26
-17 -53 -24 -60 -6 -6 -12 -26 -12 -43 0 -17 -7 -58 -15 -90 -9 -33 -24 -81
-35 -106 -12 -28 -22 -80 -25 -130 -3 -46 -10 -122 -16 -169 -6 -47 -14 -123
-18 -170 -4 -52 -3 -93 3 -105 5 -11 11 -58 14 -105 2 -47 5 -110 7 -140 2
-30 7 -95 11 -145 3 -49 10 -94 15 -99 5 -6 9 -22 9 -37 0 -15 11 -47 25 -70
14 -24 25 -57 25 -73 0 -16 9 -47 19 -70 11 -23 27 -59 36 -81 10 -22 31 -69
48 -105 17 -36 39 -77 49 -92 11 -16 17 -32 14 -36 -3 -5 0 -26 7 -48 6 -21
27 -52 44 -67 18 -16 33 -39 33 -51 0 -11 14 -53 32 -93 18 -40 38 -72 43 -73
6 0 21 -16 34 -35 13 -19 29 -35 36 -35 6 0 20 -9 30 -20 10 -11 21 -20 25
-20 4 0 24 -15 45 -32 21 -18 59 -54 83 -80 25 -27 49 -48 53 -48 4 0 31 -16
60 -36 30 -20 62 -49 72 -64 10 -15 34 -36 55 -45 20 -10 60 -33 89 -51 28
-19 58 -34 65 -34 8 0 29 -16 48 -35 19 -19 39 -35 46 -35 7 0 38 -14 70 -31
32 -17 64 -35 72 -41 7 -6 36 -15 63 -19 28 -4 70 -17 93 -29 23 -11 49 -20
57 -20 8 0 19 -4 25 -9 5 -5 32 -12 59 -15 28 -3 71 -6 97 -6 26 1 58 -5 70
-12 13 -7 43 -13 68 -15 25 -1 148 -5 275 -10 l230 -8 3 -39 c1 -21 6 -46 11
-55 5 -9 5 -39 -1 -71 -6 -30 -10 -131 -10 -225 0 -110 6 -193 15 -235 8 -36
11 -69 7 -75 -4 -5 -11 -29 -15 -52 -5 -31 -17 -51 -52 -85 -26 -23 -56 -50
-68 -58 -12 -8 -46 -35 -76 -60 -29 -25 -81 -71 -115 -103 -35 -32 -89 -71
-122 -87 -33 -15 -62 -33 -66 -38 -3 -6 -40 -27 -82 -46 -41 -20 -81 -36 -89
-36 -7 0 -27 -11 -43 -25 -17 -14 -43 -28 -59 -31 -18 -4 -36 -17 -47 -35 -10
-16 -28 -36 -40 -45 -21 -13 -28 -13 -69 1 -25 8 -53 12 -64 9 -10 -4 -28 -18
-40 -32 -16 -18 -23 -38 -23 -68 0 -39 2 -43 27 -46 23 -2 29 -9 36 -43 5 -22
11 -64 14 -93 4 -41 1 -58 -12 -72 -9 -10 -14 -23 -11 -29 3 -5 1 -22 -4 -37
-6 -16 -11 -55 -11 -89 0 -39 -6 -69 -17 -85 -10 -15 -21 -64 -28 -125 -6 -58
-7 -110 -2 -124 6 -15 4 -28 -4 -38 -7 -8 -13 -22 -15 -32 -1 -9 -5 -50 -8
-91 -3 -41 -9 -91 -15 -110 -5 -19 -10 -47 -10 -63 0 -15 -4 -35 -9 -45 -5 -9
-14 -35 -20 -57 -5 -22 -13 -71 -17 -110 -3 -38 -8 -86 -10 -105 -2 -19 -8
-71 -13 -115 -6 -44 -14 -102 -18 -130 -5 -27 -8 -122 -6 -210 1 -88 3 -176 4
-195 1 -19 -1 -96 -5 -170 -3 -74 -9 -176 -12 -226 -5 -75 -3 -92 10 -103 9
-8 16 -21 16 -30 0 -9 -4 -21 -9 -27 -5 -5 -11 -27 -14 -50 -2 -22 0 -49 5
-58 7 -13 5 -31 -8 -64 -10 -26 -19 -58 -21 -72 -1 -14 -4 -80 -7 -147 -2 -67
-9 -143 -15 -170 -5 -26 -16 -93 -22 -148 -6 -55 -14 -128 -16 -163 -4 -39 -1
-67 6 -76 8 -10 8 -21 1 -40 -5 -15 -10 -56 -10 -90 0 -34 -5 -88 -11 -119 -9
-43 -9 -60 0 -71 8 -9 10 -32 5 -68 -4 -29 -13 -62 -20 -72 -10 -14 -10 -23
-3 -32 6 -8 9 -43 7 -86 -3 -40 -11 -87 -18 -105 -13 -30 -12 -34 9 -57 13
-13 21 -29 17 -34 -3 -5 2 -19 11 -32 13 -19 22 -22 63 -18 35 4 61 15 103 47
31 23 57 45 57 48 0 4 -7 15 -16 25 -12 12 -14 21 -7 30 6 8 9 57 7 118 -2 58
-7 155 -12 215 -7 88 -6 113 5 126 7 9 11 23 7 32 -3 9 -8 47 -10 84 -2 38 -5
93 -7 123 -2 30 -1 60 3 65 5 6 13 62 19 126 5 64 8 128 5 142 -2 14 6 79 18
144 14 80 22 169 24 278 2 88 8 189 14 225 6 36 13 97 16 135 3 39 5 90 5 115
0 25 -2 83 -4 130 -2 47 -9 105 -16 130 -6 25 -10 65 -8 90 2 25 6 52 10 60 3
8 8 60 12 115 4 54 11 107 16 116 5 10 11 64 14 121 3 56 8 114 11 128 3 14
10 50 15 80 5 30 12 87 15 125 3 39 9 79 14 90 5 11 12 34 15 50 6 27 8 28 15
10 4 -11 12 -36 18 -55 7 -21 8 -47 3 -65 -4 -17 -4 -37 -1 -45 4 -8 12 -31
17 -50 5 -19 8 -64 7 -100 -1 -36 -2 -134 -3 -219 -1 -85 1 -191 5 -235 3 -45
11 -89 16 -98 5 -10 13 -93 19 -185 6 -92 15 -173 20 -180 6 -7 10 -85 9 -192
0 -100 3 -181 8 -181 4 0 8 -136 9 -302 0 -167 1 -343 1 -393 0 -49 1 -146 2
-215 1 -69 1 -255 1 -415 -1 -159 -1 -294 -2 -300 0 -5 5 -46 10 -90 6 -44 11
-104 10 -133 0 -29 4 -58 8 -65 4 -6 9 -32 9 -57 1 -25 7 -94 13 -155 6 -60
14 -229 17 -375 4 -146 10 -272 14 -280 5 -9 7 -90 5 -180 -1 -91 1 -170 6
-176 6 -7 5 -22 -2 -37 -9 -19 -9 -44 -1 -98 6 -40 8 -77 5 -83 -4 -5 -8 -111
-9 -236 -2 -124 -5 -324 -8 -445 -2 -127 -9 -232 -16 -249 -6 -17 -11 -64 -10
-105 0 -42 -2 -148 -5 -236 -3 -88 -10 -205 -16 -260 -6 -55 -11 -183 -11
-285 0 -102 0 -216 1 -255 0 -38 0 -81 -1 -95 0 -14 0 -38 1 -55 1 -16 0 -50
-3 -75 -3 -25 -5 -103 -6 -174 0 -78 -5 -135 -12 -143 -7 -9 -7 -17 2 -28 10
-12 11 -62 6 -213 -3 -108 -10 -213 -14 -232 -5 -20 -15 -46 -21 -59 -11 -20
-10 -27 8 -52 12 -15 21 -43 21 -61 0 -18 6 -40 13 -49 7 -10 33 -19 62 -22
28 -3 70 -10 95 -16 25 -5 86 -10 135 -11 50 0 114 -7 145 -16 30 -9 73 -19
95 -24 22 -4 51 -12 65 -17 20 -9 35 -6 75 13 27 13 53 28 58 33 4 4 9 23 9
40 1 22 -6 37 -21 47 -17 12 -21 22 -16 43 4 19 0 32 -12 43 -10 9 -32 23 -49
31 -20 10 -69 18 -140 21 -60 2 -136 7 -169 11 -33 3 -79 11 -102 18 -31 8
-43 17 -46 34 -2 13 0 43 5 67 6 28 5 62 -3 102 -6 32 -13 103 -16 157 -3 58
0 103 6 110 6 8 7 35 2 71 -5 35 -4 75 2 99 7 28 7 49 -1 71 -7 18 -12 50 -12
72 0 22 5 45 11 51 7 7 10 50 9 120 -1 59 -2 119 -1 133 0 14 0 70 0 125 -1
55 -2 147 -1 205 0 58 3 184 6 280 3 96 8 225 12 285 3 61 8 144 11 185 2 41
7 104 10 140 4 36 6 92 6 125 0 33 -5 96 -10 140 -5 47 -5 104 0 139 6 39 5
86 -3 137 -7 48 -8 85 -2 96 5 10 11 90 12 178 2 88 3 198 3 245 0 47 -3 168
-6 270 -4 102 -9 239 -12 304 -3 66 -10 125 -16 132 -9 11 -8 22 4 46 9 18 14
35 12 38 -2 4 -6 40 -9 80 -3 41 -9 90 -12 110 -3 19 -12 44 -19 56 -7 11 -11
33 -8 50 3 16 10 34 15 40 5 8 0 23 -17 42 -14 16 -25 38 -25 49 0 10 5 24 11
30 8 8 7 57 -1 174 -6 90 -13 223 -14 294 -2 72 -1 165 2 208 5 78 5 78 30 72
14 -3 48 -1 76 6 28 7 62 22 76 33 14 12 34 26 45 32 11 6 31 17 45 25 13 8
30 21 37 29 7 8 13 11 13 7 0 -5 21 10 46 32 26 23 53 41 60 41 7 0 30 10 51
22 21 12 58 36 83 53 25 17 65 41 90 53 25 13 74 48 110 78 36 31 82 67 102
81 21 14 40 34 43 44 4 11 11 19 16 19 5 0 33 16 62 36 28 21 68 50 88 65 20
16 41 29 46 29 5 0 27 15 49 33 21 18 56 40 77 50 21 9 47 32 58 52 16 26 32
38 67 49 26 8 61 21 77 30 17 9 40 16 53 16 18 0 22 -6 23 -32 1 -18 0 -37 -1
-43 -1 -5 -4 -75 -7 -155 -3 -80 -5 -158 -4 -175 0 -16 4 -133 7 -260 4 -126
7 -390 7 -585 0 -195 -4 -447 -8 -560 -4 -141 -3 -225 5 -270 6 -36 11 -81 11
-100 0 -19 -3 -50 -7 -67 -3 -18 -3 -41 1 -50 5 -10 10 -25 12 -33 3 -8 6
-100 8 -205 2 -104 6 -216 9 -249 3 -32 7 -60 9 -63 3 -2 -1 -20 -9 -38 -9
-21 -11 -43 -6 -57 4 -13 5 -106 2 -208 -3 -102 -2 -190 3 -197 4 -6 5 -78 1
-160 -4 -81 -9 -200 -10 -263 -2 -63 -6 -158 -9 -210 -3 -52 -6 -104 -6 -115
0 -11 4 -54 9 -95 5 -41 14 -86 21 -99 9 -15 11 -40 7 -69 -3 -25 -1 -63 6
-86 7 -22 18 -45 25 -51 11 -8 11 -21 1 -69 -11 -58 -11 -59 15 -80 15 -12 27
-29 27 -39 0 -9 -4 -17 -10 -17 -5 0 -10 -8 -10 -18 0 -11 8 -26 18 -35 10
-10 24 -17 30 -17 6 0 14 -11 18 -25 3 -14 16 -31 28 -38 11 -6 59 -13 106
-14 47 -1 101 -5 120 -7 19 -3 59 -10 87 -15 29 -5 58 -13 64 -17 7 -4 35 -9
63 -11 33 -3 64 -13 87 -28 19 -14 44 -25 54 -25 10 0 29 -10 42 -22 19 -18
23 -19 23 -5 0 11 14 20 43 28 23 6 49 14 57 18 8 4 22 31 32 60 18 50 18 54
1 82 -10 16 -21 29 -25 29 -4 0 -8 9 -8 19 0 11 -6 23 -12 28 -7 4 -22 6 -33
5 -12 -2 -34 4 -50 12 -17 9 -38 16 -48 16 -10 0 -31 7 -47 15 -23 12 -39 13
-72 6 -24 -5 -68 -7 -98 -5 -30 3 -73 10 -95 16 -22 5 -68 23 -102 38 -51 23
-63 33 -63 52 0 13 4 39 10 58 9 31 7 37 -16 59 -23 20 -25 30 -21 65 4 28 1
46 -9 57 -8 9 -17 45 -20 80 -3 34 -11 71 -18 81 -7 9 -11 34 -8 55 2 21 3 43
3 48 0 6 -3 46 -6 90 -3 44 -10 94 -15 110 -5 17 -9 88 -9 158 -1 71 -4 133
-7 139 -4 6 -6 89 -5 185 1 114 -3 180 -10 189 -6 7 -7 19 -3 26 4 7 9 33 10
58 2 25 6 65 9 89 5 28 2 58 -6 84 -10 32 -11 41 -1 45 7 2 12 21 12 41 0 21
-4 62 -10 90 -6 30 -6 68 -1 89 5 24 4 44 -3 55 -8 12 -8 22 2 37 6 11 12 44
12 73 0 30 -2 56 -5 59 -3 3 -7 59 -10 124 -2 66 -6 133 -10 149 -3 17 -8 104
-10 195 -2 91 -5 208 -5 260 -1 52 -2 133 -1 180 0 47 0 137 0 200 1 63 3 160
5 215 2 55 0 108 -5 117 -6 10 -5 19 1 23 5 3 10 28 10 54 0 27 -6 67 -14 89
-11 30 -12 42 -3 45 6 2 13 21 14 43 1 21 5 82 7 134 4 65 0 124 -11 187 -14
76 -14 99 -4 130 7 21 12 47 11 58 0 11 -3 98 -5 194 -3 96 -7 176 -10 179 -2
3 0 13 6 24 6 10 15 81 21 156 5 75 11 184 12 242 1 58 8 132 14 165 7 33 12
98 12 146 0 47 4 89 8 95 5 5 15 29 22 54 8 25 15 97 16 160 2 63 7 133 13
155 5 22 10 92 11 155 1 63 -2 143 -5 178 -5 50 -4 63 9 68 13 5 15 41 16 247
1 133 3 375 6 537 3 234 1 314 -11 385 -9 57 -12 101 -7 120 5 17 5 42 -1 58
-5 15 -7 41 -4 57 4 18 1 32 -8 40 -9 7 -15 24 -14 39 0 14 -2 73 -5 131 -4
58 -11 154 -16 214 -5 61 -8 112 -5 114 2 2 9 1 14 -3 6 -3 9 -11 6 -16 -4 -5
0 -21 9 -36 8 -16 21 -53 29 -83 8 -30 15 -71 16 -90 1 -19 5 -48 10 -65 5
-16 13 -84 17 -150 4 -66 8 -138 9 -160 1 -22 4 -47 7 -55 4 -8 9 -59 13 -113
3 -54 13 -117 21 -140 8 -23 22 -84 30 -136 8 -52 22 -108 31 -125 12 -22 17
-61 19 -132 1 -56 5 -107 8 -113 4 -6 9 -35 11 -63 3 -29 10 -64 17 -77 10
-19 10 -25 1 -28 -8 -3 -13 -24 -13 -56 0 -29 5 -70 11 -92 6 -22 12 -78 14
-125 2 -47 8 -119 14 -160 6 -41 11 -101 11 -132 0 -35 5 -62 13 -70 9 -8 12
-23 7 -43 -4 -16 -5 -46 -3 -65 2 -19 6 -98 9 -175 3 -77 7 -165 9 -195 2 -30
-4 -98 -13 -150 -9 -52 -15 -128 -15 -168 1 -67 4 -76 35 -112 20 -23 46 -41
65 -45 27 -6 39 -1 82 33 28 22 56 42 63 44 11 4 11 9 0 29 -7 13 -13 51 -14
84 -1 33 1 92 4 132 3 40 4 74 1 76 -2 2 -6 57 -8 122 -2 65 -9 132 -14 149
-6 17 -13 74 -16 126 -3 52 -7 145 -10 205 -2 61 -7 155 -10 210 -3 55 -11
134 -19 175 -8 41 -21 98 -30 125 -11 35 -16 90 -16 185 0 74 -5 162 -10 195
-6 33 -13 78 -15 100 -3 22 -14 72 -26 110 -11 39 -22 86 -23 105 -2 19 -8 60
-16 90 -7 30 -16 60 -20 65 -5 6 -11 33 -15 60 -4 28 -14 58 -23 68 -14 16
-14 21 5 61 14 28 18 48 12 57 -5 8 -9 31 -9 52 0 21 -5 48 -11 59 -6 11 -12
75 -14 142 -2 73 -11 159 -23 217 -12 52 -35 137 -51 187 -17 51 -31 101 -31
112 0 10 -4 22 -10 25 -5 3 -10 19 -10 36 0 16 -7 57 -17 92 -9 34 -21 67 -28
72 -6 6 -22 28 -35 50 -13 22 -29 43 -34 47 -6 4 -29 5 -51 1 -22 -3 -53 -13
-70 -22 -16 -9 -53 -37 -81 -63 -29 -26 -64 -50 -79 -54 -14 -4 -48 -17 -73
-29 -26 -12 -62 -26 -81 -30 -19 -4 -66 -28 -104 -54 -39 -25 -89 -56 -111
-69 -23 -12 -53 -30 -67 -40 -14 -9 -46 -30 -70 -46 -24 -15 -60 -39 -79 -51
-19 -13 -47 -29 -63 -36 -15 -7 -29 -10 -31 -8 -2 2 -9 78 -15 168 -5 91 -8
167 -6 170 2 4 8 69 15 146 6 77 13 148 16 157 3 9 24 28 47 41 23 13 60 27
82 31 22 4 51 10 65 12 14 3 36 7 50 8 14 2 45 13 70 25 25 11 55 21 67 21 12
0 24 4 27 9 3 5 26 12 51 15 25 4 71 18 103 32 31 13 69 31 84 39 14 8 35 15
46 15 11 0 25 6 31 14 7 8 26 18 43 21 17 4 67 25 112 46 45 21 105 51 134 68
29 16 61 36 70 44 9 8 38 22 65 32 26 10 69 34 95 54 26 20 57 44 67 54 11 10
42 36 69 58 27 23 60 46 73 52 13 5 23 15 23 21 0 6 60 73 133 149 73 76 138
145 145 155 6 9 26 44 42 77 17 33 36 69 43 80 7 10 27 41 45 67 17 26 32 52
32 58 0 5 9 15 20 22 11 7 20 18 20 25 0 7 8 28 17 48 9 19 20 35 25 35 4 0 8
7 8 16 0 8 5 25 12 37 7 12 20 45 30 72 9 28 17 58 18 68 0 9 9 25 21 35 12 9
32 34 45 54 13 21 24 43 24 50 0 7 7 27 16 43 9 17 22 64 30 105 8 41 20 127
28 190 7 63 12 178 11 255 -2 77 -10 176 -19 220 -9 44 -23 98 -30 120 -8 22
-24 72 -36 110 -12 39 -42 111 -66 160 -23 50 -48 110 -54 134 -6 24 -15 51
-20 60 -5 9 -19 39 -31 66 -12 28 -37 81 -56 120 -19 38 -47 84 -61 102 -15
18 -37 46 -50 62 -13 17 -35 54 -50 83 -15 29 -34 63 -42 76 -8 13 -66 75
-127 138 -62 63 -120 126 -129 140 -9 14 -31 32 -48 40 -17 8 -42 21 -55 28
-13 8 -35 24 -50 36 -14 12 -64 49 -111 82 -47 33 -95 64 -107 69 -13 5 -23
13 -23 19 0 6 -4 9 -9 6 -5 -3 -14 1 -21 9 -7 8 -18 15 -24 15 -6 0 -38 13
-71 30 -33 16 -67 34 -75 40 -8 5 -54 28 -102 50 -48 23 -95 43 -105 44 -10 2
-36 12 -58 21 -22 10 -58 26 -80 35 -22 10 -67 22 -100 25 -33 4 -65 11 -71
16 -6 5 -33 16 -60 24 -27 9 -80 20 -119 25 -38 5 -92 14 -120 19 -27 6 -87
17 -132 25 -54 10 -92 12 -113 6 -17 -5 -43 -5 -62 1 -18 5 -46 8 -63 7z m-35
-205 c14 -4 84 -7 155 -8 77 0 138 -5 150 -11 11 -6 47 -15 80 -19 33 -4 75
-13 94 -21 18 -8 56 -14 83 -14 33 0 59 -7 76 -19 15 -10 45 -24 67 -31 22 -7
57 -19 78 -26 20 -8 50 -14 65 -14 15 0 32 -4 37 -9 6 -5 42 -21 80 -36 39
-16 81 -36 95 -45 14 -10 45 -27 69 -39 25 -11 50 -21 57 -21 6 0 35 -16 63
-35 28 -19 75 -47 105 -61 31 -14 60 -32 67 -40 6 -8 17 -14 23 -14 6 0 29
-18 50 -40 26 -27 48 -40 66 -40 18 0 31 -8 40 -26 8 -14 37 -44 64 -67 27
-23 89 -81 137 -128 47 -47 90 -96 94 -108 4 -12 19 -37 35 -54 15 -18 45 -59
66 -92 21 -33 57 -96 80 -140 23 -44 44 -90 48 -102 5 -16 2 -23 -14 -28 -17
-5 -20 -12 -15 -35 5 -24 0 -35 -34 -69 -22 -22 -43 -53 -47 -68 -3 -16 -12
-42 -20 -60 -8 -17 -14 -37 -14 -45 1 -7 9 -37 19 -66 10 -29 28 -64 41 -77
21 -23 29 -24 116 -22 82 2 95 5 117 26 14 12 30 20 36 16 6 -3 11 -13 11 -20
0 -8 7 -36 16 -62 10 -26 18 -57 19 -68 1 -11 7 -32 13 -46 6 -15 16 -72 23
-128 10 -80 10 -129 0 -229 -7 -70 -23 -167 -37 -217 -14 -49 -36 -112 -48
-140 -13 -27 -37 -79 -54 -115 -16 -36 -37 -81 -46 -102 -9 -20 -16 -41 -16
-46 0 -6 -5 -14 -10 -17 -6 -3 -18 1 -27 11 -10 9 -27 35 -40 58 -12 23 -36
70 -53 105 -19 38 -36 92 -41 130 -5 36 -15 89 -23 116 -8 28 -22 75 -30 105
-9 30 -21 76 -28 103 -7 26 -22 57 -35 68 -13 13 -40 23 -65 25 -32 3 -49 0
-64 -14 -12 -10 -26 -27 -33 -39 -6 -12 -11 -37 -11 -56 0 -20 6 -37 14 -40 7
-3 23 -25 35 -49 11 -25 21 -56 21 -70 0 -14 11 -48 25 -75 14 -26 29 -77 34
-113 5 -36 18 -91 30 -122 11 -32 18 -70 17 -85 -3 -25 -8 -28 -37 -28 -19 1
-38 -5 -44 -12 -5 -7 -32 -16 -60 -19 -27 -3 -62 -11 -77 -17 -15 -6 -32 -22
-37 -35 -6 -12 -11 -41 -11 -63 0 -22 6 -46 13 -54 8 -7 48 -15 92 -19 50 -4
83 -2 91 5 7 6 48 12 90 15 42 2 83 9 91 16 12 9 16 9 24 -3 5 -8 6 -32 3 -53
-4 -22 -13 -46 -21 -54 -7 -8 -23 -33 -35 -56 -11 -22 -26 -45 -33 -51 -6 -5
-33 -41 -58 -80 -25 -38 -69 -90 -98 -114 -42 -36 -55 -42 -68 -34 -10 6 -30
9 -44 6 -15 -3 -30 -9 -33 -14 -3 -5 -31 -9 -62 -10 -31 0 -89 -6 -129 -13
-40 -7 -78 -18 -85 -23 -7 -6 -65 -14 -128 -18 -91 -5 -119 -11 -139 -26 -14
-11 -30 -34 -35 -52 -6 -18 -11 -50 -11 -72 0 -33 4 -42 28 -53 15 -7 27 -17
27 -23 0 -5 14 -9 31 -9 17 0 39 5 49 10 14 7 25 7 38 -1 14 -9 25 -8 50 5 17
9 43 16 57 16 15 0 28 -7 32 -17 4 -11 0 -21 -12 -27 -10 -6 -47 -30 -83 -54
-35 -24 -80 -45 -100 -48 -20 -2 -39 -8 -42 -12 -3 -4 -22 -18 -43 -30 -21
-12 -52 -24 -69 -27 -17 -3 -61 -21 -97 -39 -36 -18 -93 -41 -126 -50 -33 -10
-96 -28 -140 -42 -44 -13 -87 -22 -95 -21 -8 1 -51 -10 -96 -25 -44 -15 -107
-32 -140 -38 -32 -6 -120 -15 -193 -20 -122 -7 -140 -6 -183 11 -27 10 -59 19
-71 19 -13 0 -38 12 -57 28 -19 15 -43 37 -55 48 -11 12 -38 29 -59 38 -21 9
-41 16 -44 16 -3 0 -2 -3 1 -6 3 -4 2 -14 -3 -24 -6 -11 -4 -26 6 -46 8 -16
28 -39 45 -52 18 -15 29 -33 29 -49 0 -23 -3 -25 -32 -18 -18 4 -51 8 -73 9
-22 1 -58 6 -80 12 -22 6 -76 17 -120 23 -44 7 -97 21 -118 32 -21 10 -45 19
-55 19 -9 0 -34 9 -55 20 -20 11 -46 20 -57 20 -12 0 -34 7 -50 15 -17 9 -30
20 -30 25 0 5 -17 14 -38 20 -21 5 -49 21 -62 35 -13 14 -27 25 -30 25 -4 0
-45 25 -90 55 -46 31 -109 77 -139 103 -31 25 -58 49 -61 53 -3 3 -19 14 -37
22 -17 9 -42 31 -54 49 -13 18 -29 37 -37 42 -8 4 -38 29 -67 55 -28 25 -65
58 -81 73 -16 14 -39 39 -51 54 -13 15 -23 31 -23 37 0 5 -11 22 -25 39 -15
18 -25 42 -25 61 0 17 -11 47 -24 66 -14 20 -27 47 -29 61 -2 14 -7 32 -10 40
-4 8 -11 26 -17 40 -5 14 -14 32 -20 40 -5 8 -18 36 -29 61 -11 25 -27 51 -35
58 -8 7 -18 27 -21 44 -4 18 -18 64 -30 102 -13 39 -26 88 -28 110 -3 22 -10
74 -17 115 -6 41 -13 89 -16 105 -2 17 -4 156 -5 310 0 230 3 288 15 324 9 24
16 60 16 80 0 20 7 77 15 126 8 50 23 120 33 156 10 37 24 73 31 80 6 8 22 31
36 52 14 21 25 42 25 46 0 5 16 42 35 82 19 41 39 96 44 123 5 27 16 53 25 58
9 5 16 15 16 22 0 7 15 28 34 47 18 19 66 77 107 130 41 52 116 135 167 182
51 48 98 87 103 87 6 0 22 14 36 30 14 17 43 40 65 51 21 11 41 26 45 34 3 8
11 15 18 15 7 0 18 7 25 15 7 8 19 15 26 15 7 0 34 14 59 32 25 17 45 35 45
40 0 4 6 8 13 8 8 0 28 7 46 16 17 8 36 24 41 35 6 10 15 19 21 19 6 0 48 18
94 40 46 22 90 40 99 40 8 0 23 11 32 25 11 17 28 26 62 31 26 3 56 12 67 19
12 7 46 18 78 25 31 6 59 15 62 20 3 5 37 16 75 24 38 9 111 20 161 26 61 6
98 15 108 25 11 11 24 14 41 8z m1029 -4923 c25 0 29 -5 34 -36 4 -20 2 -44
-3 -54 -6 -11 -3 -27 12 -50 17 -29 19 -42 12 -99 -5 -36 -7 -73 -6 -81 1 -8
6 -62 11 -120 6 -58 15 -143 20 -190 6 -47 15 -125 20 -175 6 -49 13 -164 16
-255 3 -91 6 -230 6 -310 1 -80 -1 -304 -3 -498 -3 -194 -8 -355 -11 -358 -3
-3 -1 -19 4 -36 5 -17 5 -38 0 -47 -5 -9 -11 -57 -14 -106 -3 -50 -10 -130
-17 -180 -6 -49 -15 -137 -20 -195 -4 -58 -13 -139 -19 -180 -6 -41 -15 -129
-21 -195 -6 -66 -11 -177 -10 -246 1 -126 1 -126 -26 -148 -15 -11 -37 -21
-49 -21 -12 0 -36 -7 -52 -15 -17 -9 -36 -22 -43 -30 -7 -8 -24 -15 -39 -15
-15 0 -41 -12 -58 -27 -17 -16 -52 -43 -76 -60 -24 -18 -48 -33 -52 -33 -4 0
-33 -16 -64 -37 -31 -20 -83 -61 -116 -92 -33 -31 -75 -67 -93 -81 -19 -14
-57 -44 -85 -68 -29 -24 -89 -69 -135 -100 -46 -31 -91 -61 -100 -67 -10 -5
-45 -31 -79 -57 -34 -27 -68 -48 -76 -48 -7 0 -27 -12 -43 -26 -16 -14 -69
-46 -119 -70 -49 -25 -97 -49 -105 -54 -8 -5 -33 -17 -55 -26 -22 -10 -48 -24
-58 -32 -9 -8 -20 -12 -23 -9 -4 3 -8 34 -10 69 -2 35 -7 78 -10 96 -3 18 -2
38 4 45 5 6 10 46 11 87 1 41 -3 81 -8 89 -6 10 -5 24 5 42 10 21 12 59 8 171
-2 78 -5 148 -5 153 -1 6 2 32 5 58 3 30 1 55 -7 67 -9 15 -9 27 1 52 7 20 8
36 2 43 -5 6 -9 62 -9 125 -1 63 -5 147 -11 185 -5 39 -15 93 -20 120 -6 28
-12 111 -15 185 -2 74 -9 187 -15 250 -6 63 -10 187 -10 275 1 88 -2 196 -4
240 -3 44 -10 112 -16 150 -6 39 -10 79 -10 90 0 11 0 54 0 95 -1 41 -5 89
-11 106 -5 17 -9 44 -9 60 1 16 1 110 1 209 0 99 1 209 4 245 2 38 12 82 24
106 11 22 27 46 35 54 9 7 16 22 16 34 0 11 4 26 8 31 4 6 21 19 37 31 17 11
46 29 65 39 19 10 37 21 40 24 3 3 30 18 60 32 30 15 85 41 123 60 37 18 67
36 67 41 0 4 6 8 13 8 7 0 25 13 40 28 15 15 27 38 27 49 0 15 13 29 40 44 22
12 42 30 45 39 3 8 18 23 34 33 16 9 34 17 40 17 5 0 21 10 33 23 13 12 46 38
73 57 27 19 60 43 74 52 14 10 36 22 47 27 12 5 32 20 45 33 13 13 36 40 51
60 16 20 38 40 50 43 13 4 33 17 46 28 12 11 22 18 22 14 0 -4 26 10 57 30 32
20 67 45 77 55 11 10 25 18 32 18 7 0 17 6 21 13 4 8 24 22 43 32 19 10 43 22
53 27 10 5 57 12 103 15 47 3 87 10 90 15 3 4 18 8 33 8z"/>
<g>
<path d="M5894 15893 c-45 5 -66 3 -80 -8 -10 -8 -25 -15 -33 -15 -8 0 -32
-18 -53 -41 -21 -22 -38 -47 -38 -54 0 -8 -8 -20 -18 -27 -11 -7 -24 -23 -31
-36 -10 -20 -10 -27 3 -41 9 -10 16 -29 16 -44 0 -17 9 -33 26 -44 14 -10 38
-28 54 -40 22 -19 41 -23 92 -23 50 0 75 6 117 28 43 22 60 38 84 81 26 49 29
61 24 118 -2 35 -11 71 -18 79 -8 9 -30 27 -49 39 -21 13 -60 24 -96 28z"/>
</g>
</g>
<g>
<path d="M13963 17700 c-4 0 -23 -8 -41 -17 -18 -9 -44 -30 -58 -48 -14 -19
-40 -37 -63 -44 -24 -7 -49 -24 -61 -41 -12 -17 -26 -30 -31 -30 -5 0 -27 -11
-48 -25 -21 -14 -44 -38 -51 -53 -8 -15 -12 -47 -11 -72 2 -25 12 -55 22 -69
12 -14 19 -40 19 -65 0 -23 -10 -75 -21 -116 -12 -41 -23 -89 -24 -105 -2 -17
-8 -48 -14 -70 -6 -22 -15 -105 -20 -185 -6 -80 -14 -167 -20 -195 -5 -27 -6
-98 -3 -156 4 -58 5 -129 4 -157 l-4 -52 -91 6 c-51 3 -104 9 -118 14 -14 4
-93 6 -175 4 -82 -2 -176 -6 -209 -10 -33 -3 -118 -5 -189 -4 -72 0 -138 6
-150 12 -11 6 -56 12 -100 14 -69 3 -83 7 -97 25 -11 15 -22 20 -34 16 -9 -4
-19 -16 -22 -27 -3 -11 -14 -22 -24 -25 -11 -4 -26 -17 -34 -29 -9 -13 -39
-33 -69 -46 -39 -16 -64 -36 -91 -71 -21 -28 -45 -49 -56 -49 -10 0 -28 -9
-38 -19 -11 -11 -35 -28 -52 -37 -18 -9 -38 -22 -45 -28 -6 -6 -27 -24 -47
-39 -20 -16 -39 -38 -43 -50 -4 -12 -17 -34 -29 -49 -22 -25 -23 -35 -21 -172
1 -84 7 -150 13 -158 6 -7 13 -29 17 -48 3 -19 6 -42 5 -50 -1 -8 -2 -112 -3
-230 -1 -118 2 -237 6 -264 5 -31 4 -64 -3 -85 -6 -20 -13 -43 -17 -51 -3 -8
-7 -53 -8 -100 -1 -47 -5 -112 -10 -145 -6 -41 -6 -71 2 -95 6 -19 10 -80 9
-135 -2 -55 -6 -122 -10 -150 -4 -27 -14 -76 -22 -108 -14 -51 -14 -59 -1 -75
12 -13 14 -29 8 -71 -4 -30 -3 -74 1 -98 5 -24 4 -54 -1 -67 -5 -13 -9 -68
-10 -122 -1 -55 -1 -117 0 -139 0 -22 -5 -53 -12 -69 -11 -26 -9 -31 10 -44
12 -8 22 -25 22 -38 0 -12 4 -34 10 -49 7 -18 6 -38 -4 -68 -8 -23 -15 -51
-15 -62 -1 -11 -3 -64 -4 -117 -1 -54 -5 -98 -9 -98 -5 0 -8 -42 -8 -92 0 -51
-4 -129 -10 -173 -6 -44 -18 -107 -27 -140 -8 -33 -17 -96 -20 -140 -2 -44 -9
-92 -15 -108 -6 -15 -8 -44 -4 -65 4 -31 1 -45 -19 -71 -14 -21 -26 -54 -31
-87 -3 -30 -10 -57 -15 -60 -5 -3 -9 -19 -9 -35 0 -16 -7 -45 -14 -64 -12 -27
-12 -42 -4 -66 7 -21 7 -34 0 -41 -7 -7 -8 -37 -5 -79 4 -41 2 -74 -4 -81 -6
-7 -10 -36 -10 -63 0 -28 -3 -57 -7 -63 -4 -7 -7 -52 -6 -100 1 -48 1 -103 1
-122 -1 -19 -1 -54 -1 -78 0 -23 -7 -54 -16 -67 -14 -22 -15 -51 -10 -229 5
-158 3 -205 -7 -209 -9 -3 -9 -11 -1 -35 8 -22 9 -33 1 -41 -6 -6 -12 -39 -13
-73 -1 -35 -4 -74 -6 -88 -3 -14 -9 -37 -12 -51 -4 -14 -1 -43 7 -66 9 -27 11
-48 5 -64 -5 -13 -11 -67 -14 -119 -2 -52 -6 -126 -8 -165 -3 -38 -6 -108 -8
-155 -3 -67 1 -93 15 -123 14 -30 16 -42 6 -53 -8 -10 -12 -58 -12 -142 0 -70
0 -192 2 -272 1 -80 0 -167 -1 -195 -2 -27 -7 -56 -12 -63 -5 -8 -18 -11 -35
-7 -15 3 -61 6 -102 7 -41 1 -84 -4 -96 -10 -12 -7 -48 -12 -80 -12 -33 0 -64
5 -71 12 -9 9 -17 9 -36 -1 -18 -10 -33 -11 -57 -3 -19 6 -68 13 -109 16 -41
4 -93 12 -115 18 -22 6 -49 10 -60 9 -11 -2 -30 -12 -44 -22 -13 -10 -34 -19
-47 -19 -15 0 -28 -9 -38 -27 -8 -16 -25 -37 -38 -49 -12 -12 -43 -29 -68 -38
-25 -10 -56 -25 -70 -34 -14 -9 -29 -17 -35 -17 -5 0 -12 -11 -13 -25 -2 -14
-11 -33 -19 -42 -9 -10 -41 -29 -71 -43 -30 -14 -65 -25 -77 -25 -13 0 -30 -6
-37 -13 -7 -7 -28 -17 -47 -23 -19 -5 -39 -18 -45 -29 -5 -11 -18 -32 -28 -47
-10 -15 -18 -34 -18 -42 0 -7 -7 -16 -15 -20 -10 -4 -15 -20 -15 -50 0 -42 2
-46 48 -74 27 -17 65 -50 84 -73 19 -24 47 -65 63 -91 15 -27 31 -48 37 -48 6
0 28 -18 49 -40 22 -22 39 -46 39 -53 0 -7 18 -30 40 -51 22 -21 40 -43 40
-49 0 -7 9 -30 21 -52 11 -22 54 -74 95 -115 41 -41 95 -106 121 -145 26 -38
61 -88 78 -110 17 -22 59 -67 93 -99 42 -40 65 -71 72 -96 5 -20 28 -62 50
-92 22 -31 46 -58 55 -62 8 -3 15 -13 15 -23 0 -10 16 -42 35 -70 19 -29 44
-57 55 -63 11 -6 20 -20 20 -32 0 -11 13 -42 29 -67 15 -26 32 -57 35 -69 4
-13 18 -29 31 -38 13 -8 25 -28 28 -48 3 -18 16 -45 29 -59 12 -14 34 -40 47
-57 13 -18 35 -37 48 -43 16 -7 23 -19 23 -38 0 -16 14 -45 35 -71 19 -23 41
-50 49 -58 7 -8 41 -49 75 -90 34 -40 65 -87 68 -103 4 -22 19 -38 55 -60 29
-18 48 -37 48 -49 0 -10 6 -28 13 -41 6 -12 24 -37 39 -55 16 -18 37 -50 47
-71 11 -21 40 -58 64 -82 25 -24 48 -55 52 -69 4 -14 18 -39 31 -57 13 -17 24
-36 24 -40 0 -5 14 -22 31 -39 17 -16 37 -44 46 -62 9 -18 28 -39 42 -47 18
-9 32 -30 45 -67 12 -31 37 -71 62 -98 24 -25 57 -61 74 -81 16 -20 30 -43 30
-51 0 -8 13 -30 30 -49 16 -19 61 -74 100 -123 38 -49 70 -93 70 -99 0 -6 17
-31 38 -56 21 -25 47 -60 59 -76 12 -17 32 -37 46 -44 14 -7 30 -30 37 -52 7
-22 28 -57 47 -78 18 -22 33 -43 33 -48 0 -4 17 -26 38 -48 20 -22 50 -50 65
-62 15 -13 27 -29 27 -36 0 -8 9 -22 20 -32 11 -10 20 -26 20 -35 0 -10 7 -23
15 -30 8 -7 15 -21 15 -32 0 -10 7 -21 15 -24 8 -4 15 -12 15 -19 0 -7 16 -30
35 -51 18 -21 43 -48 53 -59 11 -11 22 -36 26 -56 3 -19 3 -38 0 -42 -4 -4 -9
-109 -11 -234 -2 -126 -6 -248 -8 -273 -2 -25 -7 -58 -11 -74 -5 -21 -3 -32 9
-41 14 -10 14 -15 -3 -53 -13 -28 -21 -78 -25 -154 -4 -62 -8 -147 -10 -188
-2 -41 -6 -93 -10 -115 -4 -22 -14 -65 -21 -95 -8 -30 -22 -61 -32 -68 -9 -7
-15 -19 -13 -25 2 -7 4 -46 6 -88 2 -62 7 -83 25 -109 13 -18 38 -39 56 -46
18 -8 54 -14 79 -14 32 0 50 6 63 19 9 11 23 27 30 35 7 9 22 16 33 16 11 0
38 -12 61 -27 26 -17 62 -30 97 -34 31 -4 92 -13 136 -19 44 -7 89 -17 100
-23 11 -6 54 -10 95 -9 41 1 89 7 107 13 18 6 43 23 56 39 15 17 27 48 31 78
3 27 13 55 21 62 8 7 15 20 15 29 0 10 23 31 53 48 28 18 72 41 97 53 25 11
62 31 82 43 21 13 49 34 63 47 14 13 25 34 25 46 0 13 -11 43 -24 68 -13 25
-29 77 -36 115 -9 53 -9 105 0 218 6 82 9 171 6 198 -3 28 -10 95 -16 149 -5
55 -12 107 -14 115 -2 9 -7 52 -10 96 -4 44 -11 154 -17 245 -6 91 -12 185
-14 210 -1 25 -3 65 -3 90 -1 25 1 117 3 205 3 88 0 180 -5 205 -5 25 -10 77
-11 115 0 39 0 88 0 109 1 22 10 59 21 83 10 24 33 55 50 69 17 15 38 40 47
58 8 17 26 43 40 57 13 14 32 48 42 75 15 39 25 50 49 56 19 5 34 18 42 37 6
16 27 40 46 53 19 13 37 32 40 44 3 11 33 47 66 80 33 32 67 73 75 89 7 17 19
39 26 50 6 11 21 34 33 50 11 17 37 54 57 82 21 29 37 57 37 62 0 5 10 18 23
28 12 10 36 36 53 58 16 22 44 69 62 105 17 36 44 75 61 87 16 12 43 43 60 68
17 25 31 50 31 56 0 5 8 22 17 37 10 15 40 51 68 80 27 30 76 90 107 135 31
45 72 100 91 122 18 22 51 68 72 102 21 35 42 63 47 63 4 0 14 12 20 28 7 15
27 45 45 68 18 23 33 46 33 52 0 6 13 30 29 54 17 24 44 56 61 72 17 16 40 46
51 67 11 22 35 55 54 75 19 20 35 38 35 42 0 3 19 26 43 51 23 25 63 66 90 93
26 26 47 53 47 59 0 6 11 20 24 30 14 11 28 34 31 52 4 17 13 39 20 47 7 8 29
45 49 81 20 36 36 72 36 80 0 8 20 37 45 66 25 28 45 57 45 63 0 7 15 29 33
50 17 20 52 62 77 94 25 31 64 78 88 104 24 26 50 59 58 75 8 15 20 27 27 27
8 0 31 13 53 30 21 16 44 30 50 30 6 0 18 8 28 19 9 10 33 26 54 35 25 12 43
30 55 55 9 21 17 43 17 49 0 7 -11 18 -25 24 -18 8 -25 19 -25 38 0 14 -9 36
-20 48 -15 16 -32 22 -65 22 -24 0 -47 5 -50 10 -3 6 -19 10 -35 10 -16 0 -76
14 -133 30 -58 17 -116 30 -131 30 -15 0 -37 5 -49 12 -12 6 -37 15 -57 20
-19 5 -58 11 -85 12 -28 2 -69 9 -90 16 -22 7 -58 20 -80 30 -23 10 -66 23
-96 29 -41 9 -64 21 -87 44 l-31 32 -11 178 c-6 98 -13 192 -17 210 -3 18 -9
39 -14 48 -5 10 -3 21 4 28 9 9 12 71 13 214 0 111 6 255 13 319 11 101 11
121 -2 146 -10 21 -11 35 -4 48 6 11 11 110 12 239 1 121 -2 247 -7 280 -5 33
-9 103 -9 155 -1 52 2 118 5 145 3 28 8 79 10 115 2 36 9 101 16 145 6 44 16
81 21 83 5 2 9 9 9 15 0 6 -8 19 -17 29 -14 16 -15 24 -6 48 7 18 7 32 1 38
-6 6 -6 17 0 28 5 11 12 48 15 84 4 48 11 69 25 81 12 9 23 33 26 60 3 24 8
94 11 154 3 61 10 144 17 185 6 41 11 129 10 195 -1 66 -7 158 -12 205 -6 50
-9 204 -6 372 3 181 9 300 16 320 8 22 9 49 3 83 -6 34 -5 64 3 95 7 25 17 73
23 106 6 34 14 126 17 205 4 79 11 152 16 161 5 10 9 73 10 140 0 68 4 134 8
148 4 14 1 83 -7 155 -12 113 -12 141 1 224 10 62 12 101 5 112 -6 12 -5 44 3
91 7 40 12 100 11 133 -1 33 -2 92 -3 130 -1 39 4 97 10 130 7 36 13 175 13
345 l2 285 -50 53 c-44 46 -53 52 -79 46 l-29 -6 6 44 c4 28 2 49 -5 56 -7 7
-40 12 -74 12 -36 0 -78 7 -100 17 -22 9 -42 16 -47 15 -4 -1 -24 5 -43 13
-20 8 -57 15 -83 15 -25 0 -64 5 -86 10 -22 6 -80 10 -128 11 -48 0 -125 7
-170 15 -45 9 -136 17 -201 19 -84 3 -122 8 -127 17 -5 7 -9 40 -9 73 0 33 -2
76 -5 95 -3 19 -5 64 -4 100 1 36 2 72 2 80 -1 8 -4 146 -7 305 -5 192 -3 320
4 380 6 50 18 115 27 145 10 36 16 95 16 173 0 65 -4 122 -9 127 -5 5 -31 21
-59 36 -49 27 -53 27 -261 30 -128 1 -220 6 -232 13 -11 6 -37 11 -59 11 -21
0 -62 0 -92 1 -33 0 -69 8 -92 20 -21 10 -42 19 -46 19z m100 -230 c56 0 101
-5 124 -15 23 -10 69 -15 135 -15 83 0 100 -3 105 -17 4 -10 -1 -22 -14 -33
-12 -10 -44 -18 -75 -20 -29 -2 -71 -4 -93 -4 -22 0 -70 5 -107 12 -40 7 -76
9 -90 3 -13 -5 -54 -4 -98 2 -41 5 -77 11 -79 13 -2 2 2 10 9 19 7 8 20 15 30
15 10 0 28 9 41 20 20 16 39 19 112 20z m504 -230 c7 0 14 -10 15 -22 0 -13 0
-30 0 -38 -1 -8 -5 -58 -8 -110 -3 -52 -6 -104 -6 -115 0 -11 2 -53 5 -94 3
-41 2 -84 -3 -95 -4 -12 -2 -64 5 -116 6 -52 11 -123 11 -156 -1 -34 -7 -68
-13 -75 -6 -8 -14 -32 -17 -54 -4 -23 -2 -53 4 -69 6 -16 12 -57 15 -93 3 -36
2 -76 -1 -90 -7 -25 -8 -25 -68 -18 -34 4 -73 7 -87 6 -26 0 -26 1 -17 47 5
26 6 62 3 81 -4 19 -2 37 3 40 6 4 7 41 1 100 -5 53 -5 100 0 110 5 9 10 61
10 116 1 55 0 123 -2 150 -2 28 0 55 4 60 3 6 2 42 -3 80 -5 39 -6 99 -3 135
3 36 11 85 18 110 7 25 16 51 20 58 5 6 21 12 38 12 17 0 36 8 46 20 10 11 23
20 30 20z m-638 -54 c58 -3 143 -7 189 -9 45 -2 86 -7 91 -13 6 -5 6 -40 1
-87 -5 -43 -5 -88 -1 -100 5 -12 5 -32 0 -44 -4 -12 -9 -53 -10 -91 -1 -38 2
-76 7 -85 5 -9 7 -53 3 -99 -3 -46 -2 -99 2 -120 5 -22 4 -56 -2 -85 -6 -26
-15 -104 -21 -173 -8 -105 -13 -129 -31 -148 -13 -14 -27 -20 -37 -16 -8 4
-40 11 -70 15 -30 4 -75 12 -100 18 -25 6 -83 15 -129 21 -46 5 -86 11 -89 14
-3 3 -4 36 -3 72 1 37 6 75 12 85 6 13 6 25 0 37 -6 10 -10 81 -10 158 1 76 5
162 10 189 5 28 11 79 14 115 2 36 8 85 11 110 3 25 12 54 19 65 6 11 15 43
19 70 4 28 9 63 12 79 l6 28 107 -6z m-1432 -1147 c12 0 25 -3 28 -9 3 -5 30
-10 58 -10 33 0 62 -6 76 -17 20 -13 48 -16 155 -15 72 1 172 6 221 11 50 5
148 10 219 11 71 0 133 3 137 6 5 2 16 0 26 -5 10 -5 81 -20 158 -32 77 -12
190 -27 250 -34 61 -6 115 -10 122 -8 6 3 24 -2 40 -10 15 -8 75 -18 133 -22
58 -4 150 -9 205 -12 55 -2 132 -5 170 -7 39 -2 104 -7 145 -10 41 -4 138 -9
215 -11 77 -3 163 -7 190 -10 28 -3 102 -7 165 -10 88 -5 132 -12 185 -31 39
-14 77 -28 85 -31 8 -3 49 -7 90 -10 41 -2 79 -8 84 -13 5 -5 2 -15 -7 -24 -9
-9 -20 -16 -25 -16 -5 0 -24 -8 -43 -17 -25 -14 -58 -18 -129 -18 -52 0 -124
7 -160 14 -36 8 -76 20 -90 26 -14 7 -50 18 -80 25 -30 7 -60 19 -68 26 -7 8
-37 15 -65 15 -29 1 -84 3 -123 5 -40 1 -106 10 -147 18 -41 9 -86 19 -99 24
-12 4 -45 7 -73 6 -27 -1 -131 -5 -230 -8 -99 -3 -214 -7 -255 -9 -41 -2 -106
3 -144 10 -38 7 -115 13 -170 13 -56 0 -319 2 -586 4 -282 3 -531 1 -595 -5
-60 -6 -150 -12 -199 -14 -56 -3 -95 0 -103 7 -7 6 -27 8 -47 4 -21 -4 -37 -2
-41 4 -4 7 3 22 16 36 12 13 32 27 43 30 12 4 34 17 49 30 16 13 41 27 55 30
15 4 34 13 42 20 9 7 33 19 55 27 22 8 50 15 62 16z m-484 -386 c6 -4 81 -8
166 -10 86 -2 205 -3 265 -3 60 1 116 4 125 9 9 5 270 7 581 6 311 -2 682 -6
825 -10 143 -4 263 -9 267 -11 3 -2 55 -3 115 -3 59 1 131 1 158 0 28 0 82 -5
120 -10 39 -5 97 -16 130 -25 33 -9 78 -17 100 -17 22 -1 58 -6 80 -12 22 -5
51 -9 64 -9 13 1 40 -7 58 -18 19 -11 53 -23 76 -27 23 -3 60 -14 82 -24 22
-10 60 -19 85 -19 25 0 62 4 83 9 29 7 41 5 57 -8 13 -11 21 -33 25 -71 3 -30
9 -102 15 -160 5 -58 14 -143 18 -190 5 -47 7 -107 5 -135 -2 -27 -4 -68 -5
-90 -1 -22 0 -107 2 -190 1 -86 7 -157 14 -167 8 -13 7 -26 -1 -49 -7 -18 -10
-36 -7 -41 3 -5 -2 -32 -12 -61 -11 -32 -17 -79 -16 -122 0 -38 4 -96 7 -129
5 -42 3 -61 -6 -66 -7 -5 -14 -36 -16 -77 -2 -37 -11 -115 -20 -173 -9 -58
-18 -132 -20 -165 -2 -33 -4 -99 -4 -148 -1 -48 -6 -90 -11 -93 -5 -4 -6 -24
-3 -47 4 -22 7 -64 7 -91 0 -28 -2 -75 -5 -104 -4 -29 -10 -58 -14 -65 -4 -7
-9 -118 -10 -247 -1 -129 -4 -284 -8 -345 -3 -60 -7 -123 -8 -140 -1 -16 -8
-40 -15 -52 -6 -12 -12 -39 -12 -60 0 -22 4 -43 9 -48 6 -6 0 -29 -15 -60 -17
-35 -23 -60 -19 -82 3 -17 -2 -63 -10 -102 -9 -38 -15 -78 -13 -88 1 -10 -1
-23 -5 -30 -4 -7 -16 -52 -27 -100 -11 -48 -20 -102 -20 -118 0 -17 -5 -36
-10 -41 -6 -6 -12 -32 -14 -60 -3 -27 -9 -62 -15 -77 -6 -15 -10 -38 -10 -50
0 -12 -2 -76 -6 -142 -3 -65 -10 -125 -16 -131 -5 -7 -7 -23 -4 -36 5 -19 1
-29 -19 -42 -19 -12 -26 -25 -26 -49 0 -18 -7 -42 -15 -53 -8 -11 -14 -42 -15
-76 0 -31 -4 -67 -9 -80 -5 -15 -5 -45 1 -78 7 -38 6 -72 -1 -111 -6 -31 -14
-123 -17 -204 -3 -94 -1 -152 6 -160 6 -7 7 -35 4 -71 -4 -32 -6 -71 -5 -86 0
-16 1 -40 2 -55 0 -16 0 -48 0 -73 0 -25 0 -160 0 -300 0 -140 0 -262 -1 -270
0 -8 2 -46 5 -85 3 -38 7 -90 8 -115 2 -25 8 -54 14 -65 9 -15 8 -25 -6 -45
-16 -22 -17 -32 -7 -80 6 -31 10 -110 9 -175 -1 -66 -5 -134 -8 -152 -3 -17
-1 -34 5 -38 5 -3 10 -18 10 -33 0 -24 6 -29 44 -40 23 -8 56 -20 72 -28 28
-15 30 -14 50 12 18 22 27 25 50 20 15 -4 59 -10 96 -12 37 -3 86 -11 109 -19
23 -8 54 -15 69 -15 15 0 44 -7 63 -15 20 -8 52 -15 70 -15 19 0 48 -7 65 -16
17 -8 77 -22 134 -30 57 -9 129 -21 162 -27 32 -6 61 -17 63 -24 3 -7 -13 -42
-36 -76 -22 -35 -57 -81 -76 -103 -20 -21 -47 -62 -59 -89 -13 -28 -31 -57
-40 -64 -9 -7 -16 -24 -16 -36 0 -12 -7 -29 -16 -36 -9 -7 -26 -36 -38 -64
-13 -27 -31 -57 -41 -65 -10 -8 -36 -40 -58 -70 -23 -30 -66 -84 -98 -120 -31
-36 -64 -80 -73 -98 -9 -17 -20 -32 -24 -32 -4 0 -13 -15 -21 -32 -8 -18 -24
-42 -35 -54 -12 -11 -28 -29 -36 -40 -9 -10 -25 -35 -37 -54 -12 -20 -33 -49
-47 -64 -13 -16 -32 -47 -42 -68 -9 -21 -23 -38 -31 -38 -7 0 -13 -6 -13 -13
0 -7 -11 -23 -25 -35 -14 -12 -25 -27 -25 -32 0 -6 -16 -34 -35 -63 -19 -28
-35 -57 -35 -63 0 -7 -11 -19 -25 -28 -14 -9 -25 -23 -25 -31 0 -8 -13 -21
-30 -30 -21 -11 -30 -23 -30 -40 0 -13 -6 -28 -14 -32 -7 -4 -20 -22 -29 -38
-8 -17 -24 -39 -36 -49 -12 -11 -21 -24 -21 -31 0 -6 -15 -29 -33 -51 -19 -21
-46 -60 -60 -85 -15 -25 -37 -55 -48 -65 -12 -10 -29 -35 -40 -55 -10 -20 -34
-54 -54 -74 -19 -21 -35 -42 -35 -47 0 -5 -6 -15 -12 -22 -7 -8 -20 -23 -28
-36 -8 -12 -24 -32 -36 -45 -11 -12 -26 -43 -33 -68 -10 -34 -19 -47 -37 -51
-14 -4 -26 -16 -30 -31 -3 -14 -10 -25 -15 -25 -5 0 -16 -15 -25 -32 -9 -18
-31 -50 -48 -71 -17 -20 -57 -63 -88 -95 -32 -32 -58 -63 -58 -68 0 -6 -13
-20 -30 -32 -17 -13 -33 -37 -40 -61 -7 -26 -28 -55 -65 -90 -30 -29 -55 -58
-55 -64 0 -7 -20 -39 -44 -72 -24 -33 -56 -74 -70 -91 -14 -18 -26 -36 -26
-42 0 -5 -7 -15 -16 -23 -8 -7 -24 -29 -34 -48 -10 -20 -28 -46 -39 -58 -12
-12 -21 -26 -21 -32 0 -5 -16 -19 -35 -31 -24 -15 -34 -27 -30 -39 2 -9 -2
-28 -9 -43 -8 -15 -33 -50 -56 -76 -23 -27 -56 -80 -72 -118 -17 -38 -39 -78
-49 -90 -11 -11 -19 -34 -19 -51 0 -22 -16 -49 -58 -101 -32 -40 -84 -122
-115 -184 -31 -62 -57 -120 -57 -129 0 -8 -6 -23 -13 -33 -12 -17 -17 -13 -59
45 -25 35 -60 92 -78 127 -17 34 -36 65 -41 68 -5 3 -9 13 -9 22 0 10 -27 44
-60 77 -33 33 -60 66 -60 74 0 8 -22 38 -50 67 -27 29 -50 62 -50 73 0 12 -5
21 -11 21 -5 0 -17 17 -26 38 -8 20 -33 58 -54 83 -22 26 -39 51 -39 55 0 5
-21 32 -48 61 -26 28 -54 64 -62 80 -9 15 -30 37 -47 48 -18 11 -32 26 -33 33
0 8 -15 32 -34 55 -18 23 -36 51 -40 62 -3 11 -19 29 -35 40 -17 11 -32 29
-35 41 -4 13 -19 35 -34 51 -16 15 -45 53 -66 82 -20 30 -55 75 -77 100 -21
26 -61 81 -89 124 -27 43 -50 82 -50 87 0 6 -4 10 -9 10 -5 0 -12 9 -16 20 -3
11 -31 44 -62 73 -44 42 -57 62 -59 87 -1 18 -9 37 -18 42 -9 5 -33 32 -55 61
-21 29 -45 66 -54 82 -9 17 -41 57 -71 90 -31 33 -55 64 -54 70 2 5 -9 22 -22
37 -14 15 -35 40 -48 55 -12 15 -34 42 -47 59 -14 18 -25 39 -25 47 0 9 -4 18
-9 21 -5 3 -26 31 -46 61 -20 30 -58 81 -85 111 -29 33 -52 71 -56 90 -3 18
-12 38 -20 45 -8 6 -14 20 -14 30 0 10 -9 24 -21 32 -11 8 -40 46 -64 83 -24
38 -63 103 -86 144 -23 41 -60 98 -83 125 -22 28 -57 67 -78 88 -21 21 -38 43
-38 49 0 6 -16 35 -36 65 -20 30 -42 57 -50 60 -8 3 -14 13 -14 22 0 10 -21
44 -46 77 -25 32 -53 66 -62 75 -10 9 -39 41 -67 73 -27 31 -57 70 -67 87 -9
17 -45 64 -80 106 -34 41 -74 92 -88 113 -14 21 -41 62 -61 92 -19 29 -44 66
-53 82 -12 19 -15 31 -7 35 6 4 42 4 80 0 39 -3 118 -5 177 -3 69 2 113 -1
121 -8 7 -6 30 -12 51 -13 20 -2 80 -6 132 -9 52 -3 140 -14 195 -23 79 -13
139 -15 285 -10 102 3 193 9 203 12 9 4 15 11 12 15 -3 5 6 17 20 29 15 11 25
28 24 38 -1 10 -3 90 -4 178 -2 88 -7 207 -13 265 -8 83 -7 112 3 140 8 19 14
49 14 65 1 17 2 44 2 60 1 17 -1 140 -4 275 -3 135 -8 255 -11 267 -2 12 -5
125 -5 250 0 125 0 260 0 298 -1 39 4 135 10 215 7 80 13 179 15 220 2 41 5
107 7 145 2 39 7 122 11 185 4 63 9 133 11 155 2 22 8 78 14 125 6 47 12 153
15 235 2 83 7 158 11 168 4 9 5 24 2 32 -4 8 -3 17 2 19 4 3 12 56 16 118 5
62 9 136 10 163 0 28 6 63 13 78 6 16 12 34 12 42 0 8 -5 17 -11 20 -6 5 -4
11 7 19 9 7 18 23 20 37 2 13 10 56 18 94 8 39 20 86 29 105 8 19 15 55 16 80
0 25 4 65 9 90 5 25 9 95 11 155 1 61 8 157 16 215 8 61 14 195 14 320 0 194
-2 218 -20 248 -10 18 -19 40 -19 49 0 9 7 24 15 33 11 13 16 49 20 145 2 80
0 136 -7 148 -8 16 -6 23 10 36 19 15 20 28 21 191 0 96 3 198 6 225 3 28 6
106 5 175 0 69 0 132 0 140 -1 8 2 47 5 85 4 39 9 99 12 135 2 36 6 142 7 235
2 94 0 190 -4 215 -5 25 -5 65 0 90 5 25 5 48 1 52 -3 4 -5 46 -4 92 1 47 -1
105 -6 130 -4 25 -6 48 -3 50 3 3 10 3 15 -1z m3780 -73 c9 0 17 -6 18 -12 1
-7 3 -58 4 -113 2 -55 -1 -118 -7 -140 -6 -22 -12 -130 -14 -240 -2 -115 -8
-216 -15 -237 -8 -26 -9 -52 -2 -85 5 -28 6 -87 1 -143 -5 -52 -6 -138 -3
-190 3 -52 1 -178 -5 -280 -6 -102 -13 -216 -15 -255 -1 -38 -8 -104 -15 -145
-7 -41 -13 -111 -15 -155 -1 -44 -7 -106 -13 -137 -6 -31 -14 -62 -18 -69 -4
-7 -9 -37 -11 -68 -2 -31 -4 -105 -4 -166 0 -60 1 -160 3 -222 2 -72 7 -116
16 -124 6 -7 12 -18 12 -25 0 -6 -9 -18 -20 -25 -17 -13 -18 -19 -9 -64 7 -39
6 -52 -4 -60 -7 -5 -16 -17 -19 -25 -3 -9 0 -24 8 -34 11 -15 10 -25 -3 -57
-12 -32 -13 -45 -3 -68 6 -16 9 -43 5 -64 -4 -20 -2 -44 4 -56 6 -11 16 -53
20 -92 6 -46 6 -81 0 -98 -6 -14 -13 -44 -15 -66 -3 -22 -11 -80 -18 -130 -7
-49 -11 -106 -9 -126 3 -23 -1 -46 -10 -60 -9 -14 -18 -56 -20 -99 -3 -41 -12
-101 -21 -132 -8 -31 -15 -81 -15 -110 1 -29 -2 -107 -6 -173 -5 -66 -8 -156
-9 -200 0 -44 1 -127 3 -185 2 -58 9 -163 16 -235 l14 -130 -27 -21 c-25 -20
-25 -23 -14 -63 10 -31 10 -46 1 -63 -6 -12 -12 -64 -13 -116 0 -52 1 -95 4
-97 3 -2 4 -78 3 -168 -1 -134 -5 -171 -18 -191 -11 -16 -13 -26 -5 -31 7 -4
9 -35 4 -93 -4 -48 -8 -90 -10 -93 -2 -4 1 -20 6 -36 6 -16 15 -69 21 -119 5
-49 12 -120 15 -159 2 -38 7 -98 10 -132 5 -49 3 -68 -10 -88 -9 -14 -20 -24
-24 -22 -4 1 -20 -7 -36 -18 -16 -11 -46 -36 -66 -56 -20 -19 -51 -41 -68 -48
-18 -7 -39 -11 -47 -7 -9 3 -17 11 -19 18 -2 7 -9 31 -16 53 -7 22 -12 79 -11
135 1 52 1 102 1 110 0 8 -1 44 -1 80 0 36 0 160 0 275 0 116 1 219 2 230 0
11 0 29 0 40 -1 11 -1 72 -1 135 0 63 6 142 12 175 6 33 12 161 12 285 1 176
5 240 19 295 9 39 17 106 17 150 0 45 4 85 9 90 4 6 13 31 20 57 6 26 11 63
11 83 0 20 5 46 12 58 6 12 15 40 19 62 4 22 14 69 23 105 8 36 17 103 21 150
3 47 7 101 9 120 3 19 9 57 16 85 6 27 18 58 27 67 11 12 14 27 9 49 -3 17 -1
39 4 49 5 10 15 49 21 87 6 37 13 84 15 103 2 19 10 80 18 135 8 55 20 132 27
170 7 46 9 104 4 170 -4 55 -8 125 -7 155 0 30 0 152 1 270 0 118 5 238 11
265 6 28 12 88 14 135 2 47 9 157 15 245 6 88 18 183 26 210 9 28 23 124 32
215 9 91 18 228 19 305 2 77 2 205 2 285 0 80 0 192 -1 250 0 58 0 152 0 210
0 58 -1 148 -2 200 0 52 -7 119 -13 149 -7 29 -12 71 -12 92 0 21 6 43 13 48
6 6 26 22 42 35 17 14 38 26 48 26z m-30 -6760 c4 0 26 -9 48 -21 22 -11 51
-19 63 -17 13 1 29 -2 37 -8 8 -6 41 -20 74 -32 33 -12 80 -25 105 -28 25 -4
88 -17 140 -31 52 -13 114 -33 138 -45 23 -11 56 -21 72 -22 16 -1 32 -5 36
-9 4 -4 -2 -9 -12 -13 -10 -3 -33 -12 -51 -20 -21 -10 -71 -14 -154 -14 -67 0
-159 7 -203 15 -45 8 -99 17 -121 19 -22 3 -76 11 -120 19 -44 7 -86 17 -94
21 -7 5 -61 17 -119 27 -58 10 -109 22 -114 27 -5 5 3 14 21 22 17 7 31 17 31
22 0 5 20 18 45 29 24 11 46 23 49 27 3 5 24 9 47 11 24 1 50 6 58 11 9 5 20
10 24 10z m-4969 -63 c12 -6 62 -12 111 -13 50 -1 103 -7 118 -13 16 -6 60
-11 99 -11 52 0 76 -4 89 -16 17 -15 19 -15 34 0 9 9 19 16 23 17 4 0 25 2 47
4 22 2 67 8 99 14 33 5 63 8 67 5 4 -2 9 -20 11 -40 2 -20 -2 -60 -9 -88 -8
-30 -11 -70 -8 -97 5 -34 3 -49 -9 -58 -8 -7 -20 -10 -25 -6 -6 3 -19 2 -28
-3 -10 -6 -66 -12 -126 -15 -75 -3 -118 -1 -145 9 -20 7 -71 13 -113 14 -44 0
-92 6 -112 15 -21 9 -83 17 -149 20 -62 3 -160 7 -218 11 -58 3 -111 7 -119
10 -11 4 -11 8 3 22 9 10 16 24 16 30 0 6 10 18 22 26 12 9 34 16 48 16 14 0
48 14 76 31 27 18 55 40 62 50 7 11 23 19 36 19 12 0 35 13 51 30 24 25 31 28
49 17z m3157 -3937 c5 0 16 -11 24 -24 13 -20 14 -33 4 -95 -8 -50 -9 -82 -2
-104 6 -20 7 -58 2 -97 -5 -36 -6 -82 -3 -102 4 -27 2 -38 -7 -38 -9 0 -10
-22 -5 -92 3 -50 12 -101 20 -113 9 -13 16 -66 20 -145 4 -69 9 -165 11 -215
2 -49 7 -119 11 -155 4 -36 8 -74 10 -85 2 -11 4 -44 4 -73 1 -31 -4 -60 -12
-69 -10 -12 -13 -57 -12 -176 1 -101 6 -163 13 -170 6 -6 11 -16 11 -23 0 -7
-18 -15 -40 -19 -22 -4 -40 -11 -40 -15 0 -5 -8 -11 -19 -15 -10 -3 -29 -14
-41 -25 -13 -11 -28 -20 -35 -20 -8 0 -13 21 -13 63 -1 34 -5 94 -10 132 -4
39 -4 90 0 115 4 25 6 51 3 58 -3 7 -4 63 -4 125 1 62 1 130 1 152 0 22 -3 67
-5 100 -3 33 -6 94 -5 135 0 41 0 86 0 100 -1 14 -6 102 -12 195 -6 94 -11
194 -10 224 1 30 2 57 2 60 1 3 -2 23 -6 44 -5 20 -16 41 -25 47 -15 8 -15 11
1 42 9 18 19 43 23 56 3 12 11 22 16 22 5 0 9 8 9 19 0 10 7 25 17 32 9 8 25
33 35 57 10 23 23 42 29 42 5 0 15 11 21 25 6 14 15 25 19 25z m-354 -620 c5
0 7 -44 5 -98 -2 -54 1 -132 8 -172 7 -41 12 -122 12 -180 -1 -58 -1 -141 -1
-185 1 -44 1 -89 1 -100 0 -11 -1 -112 -1 -224 -1 -112 4 -221 9 -242 7 -24 7
-46 1 -62 -6 -15 -7 -55 -2 -97 5 -47 4 -73 -3 -78 -6 -3 -40 -7 -76 -9 -46
-2 -84 4 -130 19 -36 11 -91 34 -122 50 -32 16 -58 35 -59 41 0 7 -2 66 -3
132 -2 66 1 122 5 125 4 3 13 57 19 120 7 63 16 123 22 133 5 10 7 51 4 92 -3
44 -1 87 5 103 6 15 10 60 10 100 -2 48 4 89 15 117 15 40 20 44 48 44 17 -1
48 6 69 15 20 9 37 21 37 26 0 6 7 10 16 10 12 0 14 5 9 18 -4 9 -10 27 -13
40 -2 13 1 35 8 50 7 15 16 34 21 42 4 8 17 33 28 55 11 22 26 57 35 78 8 20
19 37 23 37z"/>
<g>
<path d="M13758 15482 c-52 2 -91 -2 -120 -12 -24 -8 -54 -22 -66 -30 -13 -8
-35 -37 -49 -64 -13 -27 -22 -58 -19 -68 2 -11 0 -28 -6 -38 -7 -10 -8 -31 -3
-56 5 -21 7 -47 6 -57 -1 -9 5 -24 13 -33 9 -8 16 -24 16 -35 0 -13 17 -27 53
-45 28 -15 68 -31 87 -35 19 -4 58 -15 87 -23 39 -11 61 -12 88 -5 23 7 59 32
94 67 32 31 64 68 73 82 11 19 14 44 11 100 -3 49 -10 84 -22 100 -9 14 -20
33 -24 42 -3 9 -37 37 -74 61 -63 42 -74 45 -145 49z m-13 -182 c16 0 33 -13
54 -42 17 -23 31 -50 31 -59 0 -9 -6 -22 -14 -28 -7 -6 -27 -8 -47 -5 -19 4
-44 13 -56 20 -17 11 -23 24 -23 49 0 18 7 41 16 49 8 9 26 16 39 16z"/>
</g>
<g>
<path d="M13037 14700 c-23 0 -50 -6 -59 -13 -9 -7 -39 -57 -67 -110 -28 -54
-50 -101 -49 -105 1 -4 -17 -45 -39 -92 -22 -47 -45 -97 -51 -112 -6 -16 -17
-28 -23 -28 -6 0 -28 18 -48 40 -20 22 -45 57 -56 78 -11 20 -26 43 -32 50 -7
7 -13 18 -13 23 0 5 -10 25 -22 44 -13 19 -29 35 -36 35 -9 0 -10 5 -3 19 8
15 4 27 -20 57 -17 22 -35 41 -40 45 -5 3 -23 4 -39 1 -16 -2 -41 -16 -56 -30
-22 -22 -25 -32 -20 -64 3 -21 15 -54 26 -73 11 -20 20 -44 20 -54 0 -10 7
-21 15 -25 8 -3 15 -12 15 -19 0 -8 9 -22 20 -32 11 -10 20 -28 20 -40 0 -12
9 -30 20 -40 11 -10 20 -25 20 -34 0 -9 8 -26 18 -38 9 -11 26 -23 37 -25 13
-2 22 -15 27 -38 4 -19 5 -54 2 -77 -4 -27 -16 -50 -35 -69 -16 -15 -29 -35
-29 -44 0 -9 -16 -49 -36 -88 -20 -40 -41 -72 -46 -72 -5 0 -17 -20 -28 -45
-10 -24 -17 -55 -15 -67 3 -13 13 -30 23 -38 11 -9 38 -22 60 -30 37 -12 44
-11 60 3 10 10 23 17 29 17 5 0 17 8 25 18 9 9 16 32 16 51 1 24 9 42 30 61
16 15 33 38 37 51 4 13 15 33 25 44 10 11 25 44 34 74 9 30 23 62 31 71 8 9
25 37 39 62 13 25 32 55 41 66 10 11 31 53 48 93 17 41 36 78 44 82 7 4 24 31
38 60 13 29 37 65 52 82 16 16 26 38 25 49 -2 10 0 22 5 25 4 3 16 23 26 44 9
21 17 49 17 62 0 13 -9 40 -21 59 -19 32 -25 36 -62 36z"/>
</g>
<g>
<path d="M14863 14583 c-5 3 -27 -2 -51 -10 -33 -11 -47 -11 -57 -3 -8 7 -19
9 -25 5 -6 -4 -8 -14 -4 -24 4 -9 8 -32 10 -51 1 -19 -4 -69 -13 -110 -9 -45
-12 -95 -8 -126 4 -35 1 -71 -10 -110 -9 -33 -20 -68 -25 -79 -5 -11 -14 -37
-20 -57 -6 -21 -16 -40 -21 -43 -5 -4 -9 -15 -9 -26 0 -10 -8 -27 -19 -38 -13
-13 -33 -18 -74 -19 -42 0 -60 4 -73 19 -14 16 -17 42 -18 171 0 84 2 179 7
210 7 55 6 59 -24 93 -18 20 -40 35 -53 35 -11 0 -40 -9 -63 -20 -39 -17 -42
-22 -43 -57 0 -21 1 -47 2 -58 1 -11 1 -74 0 -140 -1 -66 -5 -139 -8 -162 -4
-29 -1 -52 10 -74 9 -18 16 -39 16 -46 0 -8 8 -29 17 -46 10 -18 26 -42 37
-54 11 -13 27 -23 37 -23 9 0 22 -7 29 -15 9 -11 32 -13 103 -10 56 2 112 11
143 22 29 10 68 31 88 46 20 16 38 40 41 55 3 15 16 50 29 77 13 28 29 70 35
95 7 25 14 56 17 70 3 14 16 48 29 75 19 42 24 72 29 186 l6 137 -30 37 c-17
21 -30 44 -30 51 0 7 -3 15 -7 17z"/>
</g>
<g>
<path d="M13614 14489 c-22 -1 -54 -5 -72 -9 -17 -4 -47 -18 -66 -31 -19 -12
-32 -28 -29 -34 2 -7 -8 -20 -23 -29 -14 -10 -37 -16 -50 -13 -22 4 -24 1 -24
-34 0 -21 -9 -53 -19 -71 -12 -20 -24 -68 -30 -123 -5 -49 -15 -119 -21 -154
-7 -35 -9 -79 -5 -97 4 -25 19 -45 56 -74 28 -22 57 -40 65 -40 7 0 33 -11 58
-25 25 -14 49 -25 55 -25 5 0 22 -5 38 -12 15 -6 47 -17 70 -23 23 -6 66 -11
95 -10 29 1 69 10 88 19 19 9 45 22 57 30 12 7 32 24 43 38 11 15 20 31 20 38
0 6 9 35 21 63 11 29 27 64 35 78 8 15 12 44 9 68 -2 22 0 43 5 46 4 3 6 33 3
68 -3 39 -14 77 -29 104 -13 23 -24 46 -24 51 0 5 -19 30 -42 56 -30 32 -73
61 -144 96 -73 36 -113 50 -140 49z m12 -159 c1 0 17 -6 35 -14 19 -8 56 -31
82 -51 27 -20 53 -49 58 -63 6 -15 12 -64 15 -110 3 -63 0 -89 -11 -106 -9
-13 -13 -30 -10 -38 3 -8 -12 -36 -35 -66 l-41 -51 -47 6 c-26 3 -71 15 -99
25 -29 11 -53 23 -53 28 0 5 -14 17 -31 25 -31 16 -31 17 -24 78 3 34 10 73
14 87 5 14 14 44 21 68 8 23 19 47 27 53 7 6 13 20 13 31 0 10 19 37 43 58 23
22 43 40 43 40z"/>
</g>
<g>
<path d="M12743 13280 c-10 0 -27 -6 -38 -12 -11 -7 -24 -16 -30 -22 -5 -6
-25 -31 -43 -56 -18 -25 -46 -65 -62 -90 -16 -25 -30 -53 -30 -63 0 -10 -13
-45 -30 -78 -16 -33 -35 -87 -42 -121 -10 -46 -18 -63 -35 -71 -12 -5 -27 -24
-33 -42 -6 -18 -8 -39 -4 -48 3 -9 -6 -46 -21 -82 -14 -37 -31 -92 -37 -123
-5 -32 -9 -68 -9 -82 1 -13 9 -32 19 -41 9 -9 34 -20 55 -23 23 -4 37 -3 37 4
0 5 11 10 25 10 19 0 28 8 36 28 6 15 22 64 35 110 13 45 24 88 24 95 0 6 4
18 8 25 5 8 45 14 113 18 81 4 108 2 115 -8 6 -7 18 -56 29 -108 10 -56 28
-111 42 -133 20 -31 27 -36 48 -31 15 4 32 1 40 -6 13 -11 21 -10 41 0 16 9
24 21 22 34 -2 12 6 28 16 37 19 16 19 19 -22 135 -31 87 -41 129 -37 156 3
20 1 39 -4 42 -5 4 -7 15 -4 25 3 11 -4 28 -16 40 -12 12 -21 31 -22 44 -1 12
0 34 1 49 1 14 -12 50 -29 80 -17 30 -31 64 -31 75 0 11 -7 34 -15 49 -8 16
-15 51 -15 77 0 34 -4 49 -16 54 -9 3 -27 17 -40 29 -12 13 -31 24 -41 24z
m-21 -388 c10 -10 21 -34 24 -54 l6 -35 -52 -6 c-29 -4 -56 -4 -61 -2 -4 3 9
30 29 61 35 54 36 54 54 36z"/>
</g>
<g>
<path d="M13448 13120 c-8 0 -30 -10 -49 -23 -27 -18 -35 -31 -38 -62 -2 -22
-3 -66 -2 -98 1 -32 -2 -63 -5 -68 -3 -6 -7 -45 -9 -87 -2 -42 2 -96 7 -120 7
-27 7 -47 1 -53 -5 -5 -5 -42 0 -96 7 -62 7 -91 -2 -104 -6 -11 -11 -27 -11
-37 0 -10 -5 -23 -12 -30 -8 -8 -8 -15 1 -25 9 -11 9 -21 0 -39 -8 -18 -8 -36
1 -67 6 -23 16 -44 23 -46 7 -2 29 -6 51 -9 33 -4 42 -1 66 24 16 17 31 50 38
82 7 29 11 72 10 96 -1 23 2 45 5 49 4 3 31 -4 60 -17 28 -13 72 -40 96 -59
24 -19 73 -63 110 -98 36 -35 70 -63 76 -63 6 0 22 -13 36 -28 15 -18 39 -32
63 -36 29 -6 43 -4 54 8 13 13 14 19 3 40 -7 13 -10 29 -7 35 4 6 14 11 22 11
8 0 14 10 14 23 0 15 -9 29 -25 37 -13 7 -28 23 -32 34 -4 12 -8 26 -8 31 -1
6 -3 21 -3 34 -2 20 -6 23 -34 19 -25 -4 -45 5 -107 46 -43 29 -84 66 -95 85
l-20 34 37 33 c19 18 54 57 76 87 l41 54 -14 77 c-9 42 -24 89 -34 104 -11 15
-23 43 -27 62 -4 19 -15 40 -24 48 -9 7 -29 20 -46 29 -17 9 -68 19 -122 23
-83 6 -97 10 -121 33 -16 15 -35 27 -44 27z m166 -220 c17 0 39 -7 49 -14 9
-7 17 -21 17 -30 0 -9 7 -33 15 -52 11 -28 12 -41 4 -57 -7 -12 -19 -29 -28
-37 -9 -8 -28 -23 -43 -33 -15 -9 -40 -17 -56 -17 -16 0 -34 6 -40 13 -5 6
-12 49 -13 94 l-4 82 34 26 c20 14 48 25 65 25z"/>
</g>
<g>
<path d="M14629 13100 c-3 0 -14 -9 -23 -19 -10 -10 -36 -22 -59 -25 -23 -4
-55 -7 -72 -7 -16 0 -84 -7 -150 -15 -77 -10 -126 -21 -137 -31 -10 -9 -20
-30 -23 -47 -3 -17 1 -63 9 -101 8 -39 16 -131 17 -205 1 -74 -3 -146 -8 -160
-5 -14 -7 -53 -5 -88 3 -55 7 -65 27 -74 19 -9 23 -16 18 -38 -3 -15 0 -31 6
-34 6 -4 11 -15 11 -25 0 -10 18 -29 41 -44 22 -15 54 -27 69 -27 16 0 32 -5
36 -11 5 -8 37 -10 106 -6 54 3 105 10 113 17 8 7 20 10 27 8 7 -3 35 4 63 14
27 10 67 18 87 18 28 0 44 7 60 25 12 14 27 25 34 25 7 0 16 12 22 28 5 15 6
36 2 47 -5 13 -24 25 -54 33 -41 11 -51 10 -84 -6 -29 -14 -66 -19 -167 -21
-109 -2 -137 0 -174 16 l-44 19 -3 81 -2 81 61 11 c34 7 94 16 132 21 39 5 84
13 100 18 17 6 45 18 63 27 18 9 43 14 55 11 18 -4 26 1 41 29 18 33 18 34 -3
68 -12 19 -29 38 -37 41 -9 3 -37 -1 -62 -9 -29 -10 -97 -18 -183 -21 -99 -3
-140 -1 -145 8 -4 6 -8 25 -10 42 -1 16 2 40 7 53 4 12 22 29 38 37 20 11 64
17 134 19 79 2 110 7 131 20 15 10 32 28 37 41 9 19 5 31 -23 72 -18 26 -42
56 -53 66 -11 9 -23 17 -26 18z"/>
</g>
<g>
<path d="M12677 11939 c-7 -1 -25 -6 -42 -11 -16 -6 -37 -14 -45 -18 -10 -5
-14 -20 -13 -46 1 -22 3 -62 5 -91 2 -32 11 -59 22 -72 14 -15 17 -28 11 -61
-4 -22 -14 -54 -22 -70 -9 -19 -25 -32 -41 -35 -15 -3 -44 -9 -66 -14 -28 -6
-48 -5 -72 5 -18 8 -42 14 -53 14 -11 0 -25 9 -31 20 -7 12 -7 27 -2 38 5 9 8
26 6 37 -2 11 -6 43 -10 70 -4 28 -13 54 -20 58 -8 4 -14 21 -14 36 0 15 -9
36 -21 47 -12 11 -23 14 -27 9 -4 -6 -23 -21 -43 -34 -33 -22 -35 -27 -28 -55
4 -17 13 -53 19 -81 7 -27 12 -63 12 -80 1 -16 -1 -109 -3 -206 -4 -158 -6
-179 -24 -199 -16 -18 -17 -24 -7 -41 7 -11 10 -24 6 -30 -3 -6 -1 -30 6 -54
7 -24 20 -50 29 -58 9 -8 30 -19 47 -25 23 -7 35 -7 43 1 6 6 11 20 11 30 0
10 9 30 20 44 11 14 20 38 20 53 0 15 -7 33 -15 40 -8 7 -12 17 -8 23 4 6 6
27 5 47 -1 19 1 48 6 64 6 20 18 31 44 41 20 6 70 15 111 19 42 4 78 3 81 -2
3 -5 6 -31 7 -58 1 -27 -1 -69 -5 -94 -5 -27 -4 -62 3 -85 10 -40 12 -41 68
-51 36 -7 66 -8 79 -2 12 6 26 29 36 61 15 49 14 53 -2 67 -16 13 -19 36 -21
180 -2 91 -2 185 -2 210 0 25 2 99 4 166 4 119 4 121 -24 157 -15 20 -33 37
-40 36z"/>
</g>
<g>
<path d="M13845 11840 c-11 0 -34 -11 -51 -24 -18 -14 -36 -43 -44 -68 -8 -24
-22 -54 -32 -67 -10 -13 -18 -37 -18 -52 0 -16 5 -29 11 -29 8 0 9 -12 4 -37
-3 -21 -6 -53 -5 -72 0 -18 -4 -39 -10 -47 -7 -7 -9 -22 -6 -32 4 -11 -2 -29
-14 -45 -11 -14 -20 -40 -20 -61 0 -19 5 -46 11 -60 10 -20 8 -32 -9 -65 -12
-23 -21 -59 -21 -83 0 -24 -3 -65 -6 -93 -4 -27 -14 -58 -22 -67 -9 -10 -12
-25 -8 -36 3 -11 15 -32 26 -46 18 -22 28 -26 75 -26 50 0 54 2 60 28 4 15 17
39 30 54 12 15 27 50 33 78 6 28 11 58 11 65 0 8 8 15 18 15 9 0 35 -9 57 -19
22 -10 47 -24 55 -32 8 -8 29 -26 47 -40 22 -19 44 -27 71 -27 27 -1 46 5 57
18 12 13 15 27 10 50 -4 19 -2 36 5 45 6 8 10 24 8 37 -2 17 -14 26 -56 38
-39 12 -64 28 -93 60 l-41 44 22 18 c12 10 28 18 34 18 7 0 25 19 41 43 25 37
29 53 33 136 4 73 0 106 -14 153 -13 40 -28 66 -48 81 -16 12 -44 36 -62 52
-18 17 -43 38 -56 48 -13 9 -32 24 -43 32 -11 8 -29 14 -40 15z m75 -300 c6 0
14 -10 19 -23 6 -15 5 -39 -2 -65 -6 -23 -15 -42 -19 -42 -4 0 -8 29 -8 65 0
38 4 65 10 65z"/>
</g>
<g>
<path d="M13377 11829 c-7 0 -20 -10 -30 -21 -10 -11 -25 -17 -33 -14 -9 3
-25 1 -37 -6 -14 -8 -76 -12 -170 -13 l-147 -1 -30 -35 c-16 -19 -29 -43 -30
-53 0 -11 8 -28 17 -38 9 -11 18 -24 20 -31 1 -7 7 -32 13 -57 8 -34 8 -60 -1
-107 -10 -48 -10 -68 -1 -88 8 -18 9 -32 2 -45 -5 -10 -10 -37 -10 -60 0 -25
-8 -53 -19 -69 -10 -14 -20 -33 -22 -41 -1 -8 3 -28 10 -45 6 -16 14 -36 16
-42 2 -7 15 -13 28 -13 13 0 37 -4 53 -10 16 -5 68 -13 116 -18 64 -6 94 -5
110 4 13 7 32 11 43 8 11 -2 75 -6 142 -7 79 -2 124 1 126 7 2 6 -2 35 -8 66
-7 30 -18 67 -25 83 -7 15 -20 27 -28 27 -8 0 -20 -7 -26 -15 -8 -11 -37 -16
-111 -19 -55 -2 -111 1 -125 6 -13 5 -45 11 -70 13 -25 2 -50 4 -56 4 -8 1 -9
14 -4 42 4 22 13 46 19 52 7 7 49 14 95 17 45 3 102 2 127 -1 27 -4 49 -2 58
5 7 6 21 11 30 11 8 0 17 9 20 20 2 11 9 24 16 30 7 5 15 22 19 36 4 19 0 31
-13 43 -11 10 -38 20 -60 23 -23 3 -46 1 -53 -5 -9 -7 -29 -7 -58 -2 -25 5
-67 11 -95 14 -31 3 -54 12 -63 23 -7 10 -12 29 -10 43 2 19 12 28 43 38 22 8
67 18 100 23 32 6 65 15 72 21 7 6 28 7 47 4 28 -5 39 -2 61 18 18 17 25 31
21 42 -3 9 -1 23 6 31 10 12 9 18 -5 28 -9 7 -17 19 -17 27 0 9 -7 21 -15 28
-8 6 -19 9 -24 6 -5 -4 -12 -2 -16 4 -3 5 -12 10 -18 9z"/>
</g>
<g>
<path d="M14726 11779 c-17 -1 -51 -7 -76 -15 -25 -8 -65 -18 -90 -21 -25 -4
-63 -7 -85 -6 -22 0 -52 4 -67 8 -15 4 -43 4 -62 1 -26 -5 -39 -15 -50 -38 -9
-17 -16 -37 -16 -45 0 -7 5 -22 12 -33 11 -17 8 -24 -16 -49 -27 -28 -29 -34
-23 -91 4 -46 11 -67 27 -82 14 -13 19 -25 14 -37 -5 -9 -8 -52 -9 -96 -1 -44
-7 -90 -13 -102 -9 -17 -10 -29 -2 -42 5 -11 10 -29 10 -40 0 -11 17 -34 38
-51 28 -23 44 -30 64 -26 24 5 29 2 36 -27 6 -24 19 -38 51 -55 41 -21 52 -22
212 -18 165 3 168 3 166 -17 -1 -13 5 -23 15 -25 9 -2 22 6 28 18 8 15 10 51
5 116 -7 92 -8 94 -40 114 -21 13 -40 18 -51 13 -11 -4 -28 -15 -39 -26 -15
-14 -29 -17 -55 -13 -19 3 -79 11 -133 18 l-97 12 -11 40 c-6 23 -15 56 -22
73 -6 18 -9 34 -6 36 2 3 36 0 74 -5 39 -6 118 -10 177 -10 97 -1 109 1 137
23 17 13 35 41 41 61 7 26 8 44 0 57 -5 11 -10 29 -10 40 0 14 -6 21 -20 21
-12 0 -32 -7 -46 -16 -20 -14 -42 -16 -114 -12 -50 3 -96 10 -102 15 -7 6 -40
13 -72 16 -32 3 -62 9 -66 14 -4 4 -10 23 -13 41 l-6 32 52 0 c37 1 69 9 111
30 41 21 82 31 133 36 40 4 78 13 84 20 7 9 7 25 -2 56 -7 24 -19 53 -27 66
-10 16 -23 22 -46 21z"/>
</g>
<g>
<path d="M13339 5239 c-13 -1 -37 -4 -54 -6 -16 -2 -44 -6 -62 -8 -22 -4 -55
-28 -105 -75 -68 -66 -73 -73 -75 -117 -2 -27 -3 -62 -3 -79 -1 -16 6 -55 14
-85 7 -30 22 -73 31 -97 11 -28 27 -47 42 -53 14 -5 29 -7 34 -4 4 3 22 -1 39
-10 26 -13 42 -14 118 -4 48 6 104 18 125 27 20 8 54 36 75 61 20 25 43 56 50
69 6 13 12 37 12 53 0 15 5 31 10 34 6 3 10 22 10 41 0 19 -5 44 -12 57 -6 12
-15 29 -20 37 -4 8 -13 27 -19 43 -6 15 -14 27 -19 27 -4 0 -27 15 -51 33 -24
18 -60 38 -80 45 -19 6 -46 11 -60 11z m-10 -219 c4 0 17 -7 29 -16 12 -8 22
-26 22 -39 0 -13 -5 -27 -10 -30 -6 -4 -9 -14 -8 -22 2 -10 -8 -20 -25 -25
-19 -7 -37 -6 -57 2 -25 10 -28 15 -19 37 5 13 21 40 35 59 15 19 29 34 33 34z"/>
</g>
</g>
</g>
</svg>
