<?xml version="1.0" standalone="no"?>
<!DOCTYPE svg PUBLIC "-//W3C//DTD SVG 20010904//EN"
 "http://www.w3.org/TR/2001/REC-SVG-20010904/DTD/svg10.dtd">
<svg version="1.0" xmlns="http://www.w3.org/2000/svg"
 width="1906.000000pt" height="837.000000pt" viewBox="0 0 1906.000000 837.000000"
 preserveAspectRatio="xMidYMid meet">
<metadata>
Created by potrace 1.16, written by Peter Selinger 2001-2019
</metadata>
<g transform="translate(0.000000,837.000000) scale(0.100000,-0.100000)"
fill="#000000" stroke="none">
<g>
<path d="M14980 6779 c-19 -1 -56 -6 -82 -12 -30 -8 -67 -28 -100 -56 -29 -25
-72 -68 -95 -97 -25 -31 -43 -63 -43 -78 0 -14 -4 -27 -9 -30 -5 -3 -11 -16
-14 -28 -3 -13 -12 -50 -21 -83 -9 -33 -20 -127 -26 -210 -6 -82 -8 -206 -5
-274 3 -69 13 -150 22 -180 8 -31 24 -68 35 -83 11 -16 17 -28 13 -28 -3 0 10
-17 29 -37 20 -21 36 -44 36 -51 0 -8 10 -28 23 -45 12 -16 60 -70 107 -118
47 -48 96 -99 109 -113 13 -14 32 -26 42 -26 11 0 22 -7 25 -15 3 -8 -4 -27
-16 -42 -12 -15 -45 -55 -73 -87 -29 -33 -67 -73 -84 -89 -18 -17 -33 -38 -33
-47 0 -8 -15 -24 -32 -35 -18 -10 -37 -24 -41 -32 -4 -7 -13 -13 -20 -13 -6 0
-32 -20 -57 -44 -25 -24 -70 -57 -100 -72 -30 -15 -71 -40 -90 -54 -19 -15
-55 -34 -80 -43 -25 -10 -53 -17 -62 -17 -10 0 -23 10 -29 23 -7 12 -41 58
-75 102 -35 44 -93 116 -129 160 -35 44 -65 83 -65 86 0 3 -50 51 -110 107
-61 55 -130 112 -153 126 -23 14 -73 41 -111 61 -37 20 -96 45 -130 55 -33 10
-85 24 -115 30 -33 8 -84 10 -130 7 -42 -3 -92 -13 -111 -21 -19 -8 -53 -28
-74 -45 -25 -20 -51 -56 -74 -104 -33 -68 -35 -78 -36 -183 -1 -108 0 -112 32
-163 17 -29 32 -58 32 -66 0 -7 13 -26 29 -41 16 -16 53 -48 83 -71 29 -24 80
-65 113 -91 33 -27 75 -57 93 -67 17 -11 32 -23 32 -27 0 -4 19 -22 42 -38 23
-17 51 -30 63 -29 11 1 38 -3 60 -9 22 -7 55 -12 73 -12 18 0 42 -5 53 -11 11
-6 92 -15 180 -21 143 -10 161 -9 177 5 10 10 24 17 31 17 7 0 51 18 97 41 46
22 87 38 93 35 5 -3 23 -35 40 -70 17 -36 36 -68 41 -71 6 -3 10 -19 10 -34 0
-16 8 -39 18 -52 11 -13 22 -37 27 -54 4 -16 8 -44 9 -60 1 -17 6 -37 11 -45
5 -8 11 -26 13 -39 2 -14 8 -34 14 -45 6 -11 12 -40 13 -65 2 -25 6 -94 10
-154 4 -59 11 -109 15 -112 4 -2 5 -28 3 -57 -2 -29 -6 -63 -9 -75 -2 -14 -14
-24 -34 -28 -16 -4 -32 -11 -35 -16 -4 -5 -16 -9 -28 -9 -12 0 -33 -7 -47 -14
-14 -8 -53 -28 -87 -45 -33 -18 -66 -38 -73 -45 -6 -8 -22 -17 -36 -20 -13 -4
-36 -16 -51 -29 -14 -12 -38 -35 -52 -51 -14 -16 -43 -39 -63 -52 -21 -14 -38
-30 -38 -38 0 -8 -11 -16 -24 -20 -13 -3 -42 -27 -65 -53 -23 -27 -59 -67 -79
-91 -20 -23 -45 -51 -54 -62 -10 -11 -18 -24 -18 -30 0 -5 -6 -13 -14 -17 -7
-4 -36 -35 -63 -68 -28 -33 -55 -70 -62 -82 -6 -12 -11 -33 -11 -47 0 -14 -4
-27 -9 -30 -5 -3 -14 -30 -21 -58 -6 -29 -14 -60 -17 -68 -3 -8 -6 -30 -7 -48
-1 -25 4 -37 19 -44 11 -6 27 -20 36 -31 10 -11 43 -36 75 -54 33 -18 75 -40
93 -48 20 -9 79 -18 136 -22 84 -5 107 -3 138 12 20 9 37 23 37 29 0 6 29 31
64 54 36 23 83 64 106 90 23 26 61 75 85 109 24 34 62 98 84 142 23 45 50 107
60 139 11 31 32 86 47 122 15 36 31 85 35 110 5 25 13 74 18 110 5 36 13 95
16 132 l6 67 42 15 c23 9 89 27 147 41 58 13 166 31 240 40 74 9 203 18 285
21 116 5 173 2 250 -11 55 -9 116 -18 135 -19 19 -1 45 -7 56 -14 20 -10 22
-19 19 -85 -1 -41 -4 -78 -8 -83 -3 -5 -4 -67 -2 -139 1 -71 8 -170 14 -220 6
-49 14 -103 17 -120 3 -16 12 -43 19 -60 7 -16 25 -70 40 -120 14 -49 36 -121
48 -160 11 -38 36 -102 54 -142 18 -40 33 -76 33 -82 0 -5 16 -22 35 -37 19
-16 48 -39 64 -52 16 -12 53 -33 83 -47 29 -14 67 -25 85 -25 18 0 58 7 90 16
32 9 76 20 98 25 22 6 50 17 63 25 13 8 36 43 51 77 15 34 34 78 41 97 7 19
16 67 21 105 5 39 8 117 7 175 -1 87 -6 118 -30 185 -16 44 -32 89 -35 100 -4
11 -18 38 -31 60 -14 22 -39 65 -55 95 -16 30 -36 62 -44 72 -8 9 -15 22 -17
30 -1 7 -30 48 -65 91 -35 42 -67 77 -70 77 -4 0 -21 14 -39 30 -18 17 -38 30
-43 30 -6 0 -29 15 -52 33 -23 19 -64 47 -92 63 -27 16 -77 35 -110 44 -44 11
-59 19 -56 30 3 8 6 53 8 100 2 47 8 94 12 105 5 11 13 38 19 60 5 22 15 63
22 90 7 28 13 61 14 75 2 14 7 34 13 45 6 11 23 63 38 115 15 52 31 111 36
130 4 19 27 70 49 112 l41 77 32 -13 c17 -7 64 -14 102 -15 39 -1 131 5 205
12 99 10 146 20 175 36 22 11 45 21 52 21 6 0 13 4 15 9 2 5 37 21 78 35 41
15 93 39 115 54 22 15 67 54 100 87 33 33 70 74 82 90 12 17 26 58 32 91 6 33
12 90 12 126 1 36 -4 75 -10 87 -7 11 -10 21 -7 21 3 0 0 15 -6 33 -6 17 -23
48 -36 67 -14 19 -42 51 -63 71 -27 26 -51 39 -86 45 -31 6 -67 5 -103 -2 -30
-6 -73 -21 -95 -33 -22 -12 -58 -36 -81 -54 -23 -18 -69 -52 -104 -77 -35 -25
-101 -83 -147 -129 -46 -46 -90 -96 -98 -112 -8 -15 -41 -63 -73 -106 -32 -43
-75 -112 -96 -153 -21 -41 -42 -78 -45 -82 -4 -4 -27 -1 -51 6 -25 8 -89 34
-143 59 -54 25 -126 63 -160 83 -34 20 -86 53 -116 73 -29 20 -60 41 -69 46
-9 6 -34 26 -56 45 -23 19 -81 75 -130 125 -49 49 -104 106 -123 125 -18 20
-33 46 -33 58 0 12 4 30 9 40 5 9 13 28 19 42 6 14 25 60 41 103 17 43 31 84
31 90 0 7 7 24 15 40 8 15 19 53 24 84 6 30 18 70 27 87 9 17 18 56 21 86 3
30 9 60 13 65 5 6 10 35 11 65 2 30 3 132 2 226 -1 119 -6 191 -17 234 -9 34
-27 80 -40 103 -14 23 -49 70 -78 104 -29 35 -72 76 -95 93 -22 17 -63 37 -90
45 -26 8 -64 14 -83 14z m30 -116 c25 -3 63 -18 85 -32 22 -14 52 -37 67 -50
16 -13 28 -30 28 -38 0 -7 7 -16 15 -19 8 -4 15 -14 15 -23 0 -9 7 -27 16 -39
8 -12 17 -32 19 -44 3 -12 9 -26 15 -32 5 -5 10 -29 10 -51 0 -23 3 -45 8 -49
4 -4 8 -80 8 -169 1 -89 -3 -172 -7 -185 -5 -13 -18 -64 -29 -115 -11 -51 -25
-109 -33 -129 -7 -21 -16 -41 -20 -44 -4 -4 -7 -23 -7 -42 0 -20 -14 -72 -31
-116 -17 -45 -38 -96 -47 -113 -8 -18 -20 -33 -26 -33 -6 0 -17 9 -24 21 -8
13 -19 18 -31 14 -10 -3 -29 3 -44 15 -14 11 -29 20 -35 20 -5 0 -34 27 -65
59 -32 33 -57 63 -57 68 0 4 -14 23 -30 42 -17 18 -35 52 -41 75 -6 22 -13 47
-15 54 -2 6 -14 12 -26 12 -13 0 -28 4 -34 8 -5 4 -16 34 -24 67 -7 33 -14 78
-15 100 -1 22 3 87 7 145 5 58 11 134 13 170 2 36 8 88 14 115 6 28 16 67 24
87 7 21 16 41 20 44 4 4 7 16 7 26 0 10 3 18 8 18 4 0 17 17 30 38 13 20 43
52 68 71 24 18 61 39 82 47 23 8 54 11 82 7z m-1650 -1378 c47 -3 92 -6 100
-8 8 -1 21 -6 28 -11 7 -4 28 -10 45 -13 18 -3 46 -11 62 -18 17 -7 47 -27 69
-44 21 -17 43 -31 48 -31 5 0 41 -26 81 -57 40 -32 98 -84 130 -116 31 -33 57
-65 57 -72 0 -7 7 -15 15 -19 8 -3 15 -11 15 -19 0 -7 20 -33 45 -57 25 -24
45 -49 45 -55 0 -5 16 -26 35 -45 19 -19 35 -37 35 -42 0 -4 13 -28 30 -54 21
-33 27 -51 20 -59 -6 -7 -32 -20 -58 -30 -26 -10 -58 -24 -71 -33 -20 -12 -57
-15 -192 -13 -93 1 -187 5 -211 10 -24 5 -65 14 -93 21 -27 6 -73 23 -102 38
-28 14 -78 48 -110 75 -32 27 -78 66 -103 88 -25 21 -60 49 -78 62 -18 14 -50
49 -71 79 -21 30 -43 77 -50 104 -6 27 -9 63 -7 81 3 18 10 48 17 68 7 19 16
35 21 35 4 0 5 6 2 13 -2 7 13 31 35 54 22 22 59 48 83 56 31 11 67 15 128 12z
m3475 -17 c22 -1 51 -7 65 -14 14 -7 34 -23 46 -36 11 -12 29 -41 40 -63 16
-34 18 -52 12 -115 -4 -41 -15 -95 -24 -120 -10 -25 -29 -58 -43 -73 -14 -16
-51 -48 -81 -71 -30 -24 -66 -47 -80 -51 -14 -4 -61 -24 -105 -45 -44 -21 -93
-41 -110 -45 -16 -4 -57 -12 -90 -18 -33 -5 -115 -11 -182 -11 -67 -1 -124 2
-128 5 -3 4 5 27 18 52 13 24 46 77 73 117 26 40 54 74 61 77 7 3 13 13 13 23
0 9 59 77 131 150 86 86 147 139 174 151 24 11 50 17 58 13 9 -3 16 2 20 15 3
12 23 29 49 41 23 10 61 19 83 18z m-1731 -129 c4 1 26 -16 47 -36 21 -21 82
-82 135 -135 53 -53 112 -107 132 -121 21 -13 70 -45 109 -71 40 -26 75 -51
78 -56 3 -5 75 -42 161 -84 85 -42 162 -76 170 -76 8 0 23 -4 33 -10 10 -5 21
-16 24 -24 4 -9 0 -28 -8 -43 -8 -15 -15 -34 -15 -40 0 -7 -4 -13 -9 -13 -6 0
-10 -8 -10 -17 0 -10 -2 -34 -4 -53 -2 -19 -13 -51 -25 -70 -12 -19 -26 -44
-31 -56 -5 -11 -12 -47 -16 -80 -4 -32 -11 -66 -16 -75 -4 -8 -24 -77 -44
-154 -20 -76 -40 -172 -45 -213 -6 -42 -12 -78 -15 -81 -3 -3 -20 0 -37 7 -17
6 -74 16 -127 22 -53 6 -148 16 -211 23 -63 7 -144 9 -180 6 -36 -4 -101 -12
-145 -19 -44 -7 -107 -13 -140 -15 -33 -1 -92 -8 -132 -14 -39 -6 -94 -20
-122 -31 -28 -11 -57 -17 -66 -14 -12 5 -15 30 -15 143 0 75 -6 168 -14 208
-7 40 -11 74 -8 77 3 3 1 11 -5 18 -5 7 -15 38 -22 68 -7 30 -18 71 -23 90 -6
19 -17 53 -25 75 -8 22 -21 54 -28 70 -6 17 -22 57 -34 90 -12 33 -27 68 -32
77 -5 10 -9 24 -9 32 0 7 26 24 58 37 31 13 73 32 92 43 19 11 58 39 86 61 29
22 94 75 145 117 52 42 106 87 121 100 14 13 59 61 100 108 40 47 82 95 93
107 11 12 24 22 29 22z m718 -1639 c5 0 30 -5 56 -11 26 -6 74 -25 107 -42 33
-17 92 -56 130 -88 39 -31 84 -70 100 -87 17 -16 49 -51 73 -78 24 -26 55 -69
70 -94 14 -25 31 -52 38 -60 7 -8 31 -53 54 -98 23 -46 39 -86 36 -90 -3 -3 1
-16 10 -30 13 -20 15 -50 12 -185 -3 -154 -5 -165 -32 -222 -16 -33 -32 -66
-35 -74 -4 -7 -33 -27 -66 -45 -51 -26 -71 -31 -130 -31 -53 0 -82 6 -116 23
-26 12 -58 33 -72 45 -14 12 -37 45 -50 74 -13 29 -29 59 -36 67 -7 8 -21 57
-33 108 -11 51 -22 107 -25 123 -3 17 -13 40 -21 53 -8 12 -21 48 -29 80 -8
31 -19 75 -24 97 -6 22 -16 81 -24 130 -7 50 -15 117 -16 150 -1 33 2 111 6
173 4 61 12 112 17 112z m-1362 -81 c13 1 14 -14 10 -96 -3 -54 -9 -104 -13
-110 -4 -7 -10 -29 -13 -50 -2 -21 -7 -47 -10 -58 -3 -11 -16 -45 -29 -75 -13
-30 -30 -71 -39 -92 -9 -20 -16 -45 -16 -56 0 -11 -7 -27 -15 -36 -8 -8 -15
-19 -15 -24 0 -5 -9 -17 -20 -27 -11 -10 -20 -24 -20 -30 0 -7 -6 -18 -14 -24
-7 -6 -16 -24 -19 -40 -4 -16 -18 -41 -32 -56 -14 -16 -25 -31 -25 -35 0 -3
-28 -29 -62 -56 -35 -28 -93 -63 -131 -78 -55 -23 -76 -27 -115 -22 -26 4 -63
13 -82 21 -19 7 -52 16 -72 20 -27 4 -45 16 -64 40 -22 30 -25 40 -19 77 4 24
18 62 31 86 13 23 24 55 24 69 0 15 6 34 14 42 8 9 21 28 28 42 8 15 36 53 63
85 28 32 63 70 80 84 16 14 48 43 71 65 23 22 78 74 124 115 45 41 103 89 130
107 26 17 61 35 76 39 16 4 32 12 36 17 3 6 33 21 65 33 32 12 65 23 73 23z
m-255 -19 c8 0 12 -6 9 -14 -3 -8 -14 -16 -25 -19 -16 -4 -17 -2 -8 14 5 10
16 19 24 19z"/>
<g>
<path d="M14976 6610 c-34 0 -67 -4 -75 -9 -9 -6 -15 -28 -15 -63 -1 -48 1
-53 22 -56 13 -2 32 4 42 13 12 11 35 17 61 17 36 -1 48 -7 79 -39 20 -21 40
-46 43 -56 4 -10 13 -17 20 -15 6 3 13 19 15 37 2 19 -2 47 -8 65 -7 17 -17
41 -22 53 -7 13 -29 28 -56 38 -25 8 -73 15 -106 15z"/>
</g>
<g>
<path d="M14802 6360 c-9 0 -26 -8 -38 -18 -11 -9 -26 -39 -32 -67 -6 -27 -15
-69 -18 -92 -5 -35 -3 -43 14 -52 11 -6 32 -11 45 -11 14 0 30 7 37 15 7 8 10
22 6 31 -3 8 -11 12 -17 8 -9 -5 -11 8 -6 50 4 42 11 61 28 75 18 15 20 21 10
39 -6 12 -19 22 -29 22z"/>
</g>
<g>
<path d="M15188 6183 c-9 11 -18 14 -27 8 -10 -7 -12 -21 -8 -53 4 -29 2 -49
-6 -57 -8 -8 -9 -16 -1 -29 7 -10 15 -33 19 -51 4 -21 2 -42 -6 -57 -9 -18
-10 -27 -1 -36 8 -8 15 -8 25 1 8 6 18 30 22 54 4 23 9 62 11 87 1 25 -1 61
-6 80 -5 20 -15 43 -22 53z"/>
</g>
<g>
<path d="M14814 5847 c-6 2 -15 -2 -21 -9 -5 -7 -11 -32 -12 -56 -1 -35 4 -49
31 -82 19 -23 42 -40 54 -40 12 0 27 7 34 15 10 12 10 18 -1 31 -8 9 -27 44
-44 78 -16 33 -35 62 -41 63z"/>
</g>
<g>
<path d="M15121 5710 c-9 0 -26 -10 -37 -22 -11 -13 -21 -36 -22 -53 -2 -16
-6 -39 -11 -50 -4 -11 -13 -35 -19 -53 -6 -19 -8 -40 -6 -47 3 -7 12 -16 20
-19 8 -3 25 -1 39 4 17 6 27 21 35 52 6 24 20 62 32 84 18 39 19 44 4 73 -9
17 -24 31 -35 31z"/>
</g>
<g>
<path d="M13390 5224 c-19 2 -51 1 -70 -3 -19 -5 -46 -13 -60 -19 -14 -6 -32
-17 -41 -24 -8 -7 -24 -27 -34 -44 -18 -31 -18 -33 1 -55 14 -18 27 -23 52
-21 23 2 32 8 32 21 0 10 7 24 16 32 10 8 54 14 122 16 71 3 115 9 130 19 12
8 22 20 22 28 0 7 -10 18 -22 24 -13 6 -43 13 -68 16 -25 3 -61 7 -80 10z"/>
</g>
<g>
<path d="M13754 5090 c-11 0 -25 -5 -32 -12 -7 -7 -12 -22 -12 -35 0 -15 10
-28 30 -38 16 -8 34 -24 40 -35 6 -11 21 -20 35 -20 13 0 30 3 39 6 9 3 16 14
16 23 0 9 -22 38 -48 64 -26 26 -57 47 -68 47z"/>
</g>
<g>
<path d="M13243 4910 c-7 0 -13 -9 -13 -19 0 -11 4 -30 9 -43 5 -13 28 -42 50
-65 25 -26 51 -43 65 -43 12 0 25 3 28 6 3 3 4 14 1 25 -3 10 -9 19 -15 19 -5
0 -22 10 -38 22 -17 12 -30 26 -30 30 0 5 -10 22 -22 38 -12 17 -28 30 -35 30z"/>
</g>
<g>
<path d="M14002 4776 c-43 7 -43 7 -36 -21 4 -14 22 -51 42 -81 21 -32 45 -57
59 -60 13 -4 30 -1 38 6 8 7 15 21 15 32 0 11 -12 35 -27 53 -16 17 -32 39
-38 48 -5 9 -29 20 -53 23z"/>
</g>
<g>
<path d="M13558 4660 c-2 0 -11 -7 -21 -15 -18 -13 -18 -15 5 -45 12 -18 40
-41 60 -51 21 -10 51 -19 67 -19 17 0 42 10 57 23 16 14 24 29 20 35 -4 7 -29
12 -55 12 -32 0 -53 5 -62 16 -7 8 -25 22 -40 30 -16 8 -29 14 -31 14z"/>
</g>
<g>
<path d="M13927 4600 c-36 -1 -69 -6 -79 -14 -10 -7 -18 -18 -18 -24 0 -6 14
-19 31 -28 22 -11 44 -14 74 -10 32 5 45 13 54 32 6 14 9 30 6 35 -4 5 -34 9
-68 9z"/>
</g>
<g>
<path d="M16799 5190 c-32 0 -55 -7 -72 -21 -16 -12 -25 -28 -24 -39 2 -11 6
-23 10 -26 4 -4 32 -6 62 -5 34 1 66 -4 85 -14 16 -8 30 -20 30 -25 0 -6 4
-10 9 -10 5 0 12 7 15 16 4 9 3 32 0 51 -5 24 -16 41 -38 54 -19 11 -49 19
-77 19z"/>
</g>
<g>
<path d="M16532 5030 c-32 0 -45 -7 -81 -44 -29 -29 -42 -50 -38 -60 4 -10 18
-16 35 -16 18 0 40 11 58 28 16 15 40 34 53 43 17 10 22 21 18 32 -4 12 -18
17 -45 17z"/>
</g>
<g>
<path d="M16853 4910 c-17 0 -46 -14 -71 -35 -24 -19 -52 -37 -61 -40 -10 -3
-23 -17 -29 -31 -7 -14 -12 -27 -12 -29 0 -2 20 -7 45 -11 39 -5 51 -3 85 21
21 15 46 38 55 51 8 13 15 35 15 49 0 21 -5 25 -27 25z"/>
</g>
<g>
<path d="M16370 4776 c-9 2 -26 -3 -38 -12 -14 -9 -22 -26 -22 -44 0 -25 4
-29 48 -39 26 -5 65 -13 87 -16 33 -5 45 -1 68 18 15 14 27 29 27 35 0 5 -7
13 -16 16 -8 3 -13 10 -10 15 4 5 -24 12 -61 16 -38 4 -75 8 -83 11z"/>
</g>
<g>
<path d="M14660 4570 c-14 0 -40 -12 -57 -26 -23 -17 -33 -34 -33 -52 0 -15 3
-36 6 -48 4 -15 19 -24 54 -33 27 -7 58 -10 68 -7 10 4 28 24 40 45 12 21 22
46 22 55 0 8 -17 27 -37 41 -21 14 -49 25 -63 25z"/>
</g>
<g>
<path d="M15439 4542 c-23 4 -40 -3 -71 -28 -36 -28 -41 -37 -41 -73 0 -30 5
-46 20 -56 11 -7 30 -15 44 -16 13 -1 37 -1 52 -1 15 1 38 13 51 25 21 21 23
29 16 66 -4 23 -15 50 -24 60 -10 11 -31 21 -47 23z"/>
</g>
<g>
<path d="M15040 4410 c-10 0 -22 -6 -27 -12 -4 -7 -20 -42 -35 -78 -16 -35
-28 -72 -28 -81 0 -10 -6 -24 -13 -31 -7 -7 -18 -28 -25 -46 -7 -20 -8 -42 -3
-55 7 -17 22 -25 67 -34 33 -7 73 -14 89 -17 17 -2 37 -1 44 3 7 5 15 26 18
49 5 40 5 41 -33 51 -22 6 -47 11 -57 11 -10 0 -20 6 -23 14 -3 7 13 51 35 96
23 45 41 86 41 90 0 5 -7 16 -16 24 -8 9 -24 16 -34 16z"/>
</g>
<g>
<path d="M14865 3985 c-68 5 -95 3 -108 -7 -14 -10 -18 -24 -15 -53 l3 -40 55
-7 c30 -3 98 -12 150 -19 52 -7 148 -14 212 -16 73 -3 125 0 138 7 15 8 20 21
20 55 0 24 -6 47 -12 52 -7 4 -62 9 -123 10 -60 2 -137 5 -170 7 -33 3 -100 7
-150 11z"/>
</g>
<g>
<path d="M15900 3350 c-5 0 -18 -12 -29 -26 -12 -15 -21 -38 -22 -53 0 -14 -1
-52 -2 -84 -2 -49 0 -57 16 -57 10 0 28 5 40 11 12 7 26 17 30 23 4 6 5 43 1
81 -3 39 -10 78 -15 88 -6 9 -14 17 -19 17z"/>
</g>
<g>
<path d="M16123 3269 c-4 0 -13 -3 -19 -5 -7 -3 -9 -15 -6 -27 3 -12 28 -48
55 -79 39 -45 56 -58 78 -58 15 0 30 4 34 10 3 5 -3 24 -13 42 -10 18 -24 43
-32 56 -8 13 -32 32 -52 43 -21 10 -41 19 -45 18z"/>
</g>
<g>
<path d="M15991 2920 c-10 0 -25 -8 -35 -19 -15 -16 -15 -27 -6 -92 6 -41 15
-84 20 -96 6 -15 18 -23 32 -23 13 0 29 4 37 9 13 8 13 20 2 78 -6 37 -16 85
-22 106 -7 25 -15 37 -28 37z"/>
</g>
<g>
<path d="M16416 2769 c-11 -1 -28 -3 -36 -5 -12 -4 -14 -17 -12 -62 2 -33 10
-64 19 -74 9 -10 22 -18 29 -18 6 0 17 14 23 31 6 18 11 44 11 58 0 14 -3 36
-6 49 -4 14 -13 22 -28 21z"/>
</g>
<g>
<path d="M16198 2439 c-26 22 -38 27 -51 20 -12 -7 -17 -23 -17 -50 0 -37 3
-41 43 -59 23 -11 55 -20 70 -20 17 0 37 10 51 25 13 14 29 39 36 55 7 16 10
36 6 45 -3 8 -13 15 -23 15 -10 0 -26 -14 -35 -30 -9 -17 -24 -30 -32 -30 -9
0 -30 13 -48 29z"/>
</g>
<g>
<path d="M14309 3280 c-9 0 -27 -8 -40 -18 -13 -10 -39 -24 -57 -31 -18 -8
-35 -18 -38 -23 -3 -5 0 -15 6 -23 7 -8 28 -15 47 -15 27 0 44 10 81 45 39 37
44 47 32 55 -8 5 -22 10 -31 10z"/>
</g>
<g>
<path d="M14342 3109 c-10 5 -24 6 -33 0 -9 -5 -22 -23 -29 -40 -12 -27 -11
-33 1 -43 8 -6 13 -19 11 -28 -2 -12 3 -18 13 -18 11 0 15 6 10 19 -3 10 1 24
10 31 8 7 15 19 15 26 0 8 5 14 10 14 6 0 10 7 10 15 0 8 -8 19 -18 24z"/>
</g>
<g>
<path d="M13973 2997 c-16 1 -44 -6 -64 -17 -19 -10 -47 -36 -61 -57 -13 -21
-27 -51 -30 -66 -5 -23 -1 -30 19 -38 20 -7 28 -5 44 13 10 13 18 28 19 34 0
6 9 19 20 29 11 10 20 26 20 36 0 10 12 21 30 28 17 5 30 16 30 23 0 8 -12 14
-27 15z"/>
</g>
<g>
<path d="M14220 2860 c-9 0 -26 -19 -39 -44 -12 -26 -36 -53 -56 -65 -19 -11
-35 -27 -35 -35 0 -8 -7 -19 -17 -24 -10 -6 -14 -16 -10 -26 4 -10 18 -16 40
-16 24 0 42 9 66 32 18 18 46 51 62 74 16 24 29 51 29 61 0 11 -5 24 -12 31
-7 7 -19 12 -28 12z"/>
</g>
<g>
<path d="M13776 2680 c-18 0 -36 -3 -39 -7 -4 -3 -7 -19 -7 -36 0 -19 11 -41
33 -64 17 -19 49 -43 69 -54 21 -10 53 -19 73 -19 27 0 44 9 73 35 36 34 36
36 18 50 -17 13 -22 13 -42 0 -13 -8 -31 -15 -41 -15 -10 0 -30 11 -45 24 -14
13 -33 38 -42 55 -14 25 -23 31 -50 31z"/>
</g>
</g>
<g>
<path d="M4747 6177 c-14 6 -33 6 -54 0 -18 -6 -33 -15 -33 -22 0 -6 -9 -20
-20 -30 -11 -10 -20 -23 -20 -30 0 -6 -69 -83 -152 -170 -84 -88 -178 -185
-208 -217 -30 -31 -91 -94 -135 -140 -44 -46 -105 -111 -134 -145 -33 -39 -67
-67 -88 -74 -18 -6 -37 -19 -43 -28 -6 -12 -5 -22 2 -29 8 -8 0 -24 -33 -59
-24 -26 -48 -53 -54 -59 -5 -7 -50 -55 -100 -107 -49 -52 -101 -109 -115 -127
-14 -17 -37 -46 -53 -64 -15 -17 -37 -44 -50 -59 -12 -15 -30 -38 -39 -49 -10
-12 -18 -25 -18 -30 0 -5 -6 -16 -12 -24 -7 -8 -23 -25 -34 -37 -12 -12 -25
-29 -30 -38 -5 -9 -29 -40 -54 -69 -25 -29 -55 -62 -67 -73 -13 -12 -23 -25
-23 -29 0 -5 -15 -28 -32 -50 -18 -23 -47 -54 -63 -69 -17 -15 -37 -40 -45
-56 -8 -15 -37 -54 -63 -85 -31 -36 -60 -59 -78 -63 -16 -4 -36 -13 -44 -22
-8 -8 -15 -28 -15 -44 0 -17 -5 -40 -12 -52 -6 -12 -19 -28 -30 -35 -10 -7
-18 -18 -18 -24 0 -6 -7 -16 -14 -22 -8 -6 -42 -45 -75 -86 -34 -41 -61 -83
-61 -92 0 -10 -13 -31 -30 -46 -16 -15 -30 -36 -32 -47 -2 -11 -11 -27 -20
-35 -9 -8 -48 -53 -87 -100 -39 -46 -71 -93 -71 -103 0 -10 -27 -49 -60 -86
-33 -37 -60 -72 -60 -78 0 -6 -13 -26 -30 -44 -16 -19 -30 -40 -30 -48 0 -8
-17 -37 -38 -65 -21 -28 -45 -62 -52 -76 -7 -14 -16 -27 -20 -30 -4 -3 -19
-26 -34 -52 -15 -25 -33 -51 -41 -58 -7 -6 -23 -30 -35 -53 -12 -23 -35 -57
-51 -75 -16 -18 -29 -39 -29 -46 0 -8 -7 -16 -15 -20 -8 -3 -15 -10 -15 -16 0
-6 -10 -25 -22 -42 -13 -17 -30 -39 -39 -49 -9 -9 -35 -48 -57 -86 -23 -38
-49 -76 -58 -84 -9 -8 -27 -34 -38 -60 -12 -25 -38 -66 -59 -91 -20 -25 -37
-49 -37 -55 0 -5 -9 -18 -19 -30 -10 -11 -26 -33 -34 -49 -9 -16 -29 -42 -44
-59 -16 -16 -33 -37 -37 -45 -4 -8 -24 -45 -44 -81 -20 -37 -50 -87 -67 -112
-21 -32 -37 -46 -52 -47 -13 0 -40 -16 -62 -35 -24 -22 -40 -47 -43 -66 -4
-23 0 -33 16 -41 12 -6 23 -12 25 -14 1 -1 -9 -18 -24 -38 -15 -19 -29 -48
-31 -65 -4 -25 0 -32 23 -44 15 -8 35 -12 43 -9 8 2 29 19 45 36 17 17 42 54
56 81 l26 50 104 8 c57 4 185 11 284 15 99 4 304 7 455 6 151 -1 471 -7 710
-14 239 -7 525 -9 635 -6 110 4 241 11 290 16 50 5 187 12 304 15 118 4 218 8
222 11 4 2 19 0 33 -6 14 -5 26 -16 26 -24 0 -8 16 -20 35 -26 28 -9 39 -9 50
0 8 7 15 21 15 30 0 13 11 21 33 26 17 4 333 7 701 7 l669 1 15 -22 c9 -14 25
-22 42 -22 15 0 33 7 40 15 9 11 33 15 89 15 43 0 122 -7 177 -15 54 -8 169
-17 254 -20 85 -3 214 -8 285 -11 72 -4 155 -8 185 -10 30 -1 93 -8 140 -14
47 -6 112 -17 145 -26 35 -9 75 -12 98 -9 20 4 37 13 37 20 0 7 -7 18 -15 25
-14 11 -13 14 4 27 20 13 20 15 3 51 -9 20 -34 60 -54 87 -21 28 -47 68 -58
90 -11 22 -31 60 -45 84 -13 25 -28 47 -33 50 -5 3 -26 38 -47 76 -21 39 -47
87 -57 108 -11 20 -24 37 -29 37 -5 0 -9 8 -9 19 0 10 -15 41 -33 67 -18 27
-40 63 -49 79 -8 17 -30 55 -48 85 -19 30 -40 66 -49 80 -8 14 -26 48 -39 75
-13 28 -27 57 -32 65 -5 8 -18 33 -28 55 -10 22 -20 45 -21 50 -2 6 -6 12 -11
15 -4 3 -24 35 -44 72 -20 37 -36 74 -36 82 0 8 -8 21 -18 28 -10 7 -32 38
-49 69 -18 31 -30 59 -27 62 3 2 -6 14 -20 25 -15 11 -26 25 -26 31 0 6 -12
36 -26 67 -14 31 -41 80 -60 109 -19 30 -34 60 -34 68 0 7 -13 31 -30 53 -16
21 -30 48 -30 60 0 11 -10 30 -23 42 -13 12 -34 44 -47 70 -13 26 -35 65 -49
87 -14 22 -31 49 -37 60 -6 11 -21 39 -33 63 -13 23 -27 42 -32 42 -5 0 -9 9
-9 20 0 11 -4 20 -10 20 -5 0 -10 6 -10 13 0 8 -8 21 -18 30 -10 10 -29 41
-41 70 -13 28 -34 73 -47 99 -13 27 -24 54 -24 61 0 8 -11 19 -24 26 -13 7
-33 32 -45 56 -11 23 -21 47 -21 52 0 6 -17 30 -38 54 -22 24 -39 51 -39 59 0
8 -12 35 -28 60 -15 25 -45 65 -65 90 -20 25 -50 68 -66 95 -16 28 -29 52 -29
55 0 3 -10 21 -22 40 -13 19 -28 44 -35 55 -7 11 -23 34 -35 51 -12 17 -36 57
-53 90 -18 32 -43 72 -56 87 -13 16 -24 34 -24 40 0 6 -8 20 -19 31 -10 12
-38 57 -61 101 -23 44 -54 99 -69 123 -14 23 -56 89 -93 146 -37 58 -72 107
-78 111 -5 3 -10 13 -10 22 0 9 -16 35 -35 59 -19 23 -35 45 -35 49 0 3 -29
50 -65 103 -36 53 -82 120 -101 147 -19 28 -41 57 -48 66 -8 9 -17 26 -20 36
-4 11 -16 24 -29 30z m7 -237 c6 -1 30 -29 54 -63 23 -34 64 -96 91 -137 27
-41 58 -85 69 -96 11 -12 18 -25 15 -28 -4 -3 -1 -6 4 -6 6 0 30 -32 52 -71
23 -39 41 -74 41 -77 0 -4 14 -25 30 -46 17 -22 30 -45 30 -51 0 -7 9 -20 19
-29 10 -10 21 -26 24 -36 3 -11 -1 -24 -9 -30 -7 -7 -30 -20 -51 -31 -20 -10
-45 -19 -55 -19 -9 0 -33 -13 -51 -30 -19 -16 -39 -30 -43 -30 -5 0 -31 -12
-59 -25 -27 -14 -56 -25 -63 -25 -7 0 -45 -16 -85 -35 -56 -27 -74 -32 -83
-22 -9 8 -10 27 -4 65 5 30 12 135 15 235 3 100 10 214 14 252 5 39 15 130 22
203 8 79 17 132 23 132z m-118 -40 c0 0 -1 -37 -3 -82 -2 -45 -9 -88 -15 -96
-8 -9 -13 -73 -15 -190 -1 -98 -6 -215 -9 -262 -4 -47 -8 -124 -8 -172 -1 -47
-4 -90 -8 -94 -4 -4 -14 -1 -23 6 -8 7 -79 45 -158 84 -78 40 -169 90 -202
111 -33 21 -61 37 -62 34 -2 -2 -21 7 -43 21 -22 14 -40 31 -40 39 0 8 46 63
103 121 56 59 126 133 155 166 29 32 63 70 75 84 13 14 45 46 73 71 27 26 58
57 69 69 11 12 40 38 65 56 25 18 45 34 46 34z m-665 -710 c11 0 50 -20 87
-44 37 -24 78 -47 92 -51 14 -4 45 -19 70 -33 25 -13 79 -43 120 -65 41 -22
80 -46 86 -53 6 -8 17 -14 24 -14 7 0 3 -9 -10 -20 -13 -11 -27 -20 -32 -20
-6 0 -22 -9 -37 -19 -15 -11 -39 -23 -53 -26 -14 -4 -34 -14 -45 -23 -10 -10
-42 -28 -72 -42 -29 -13 -60 -35 -68 -47 -9 -13 -23 -23 -33 -23 -9 0 -32 -11
-51 -25 -19 -13 -64 -40 -101 -59 -38 -19 -68 -33 -68 -30 0 3 -13 -4 -29 -15
-16 -12 -36 -21 -45 -21 -9 0 -60 -24 -114 -53 -53 -29 -113 -59 -132 -66 -19
-7 -48 -19 -65 -26 -16 -8 -59 -21 -95 -30 -36 -9 -72 -21 -81 -25 -9 -5 -33
-12 -53 -15 -22 -5 -36 -3 -36 3 0 5 7 15 16 23 8 7 24 30 35 52 11 21 45 66
76 100 31 34 99 109 152 166 53 57 108 123 122 148 14 24 58 81 98 126 39 45
75 87 80 92 4 6 38 38 74 73 37 34 76 62 88 62z m1279 -31 c3 0 13 -6 23 -13
9 -7 17 -20 17 -28 0 -9 9 -27 20 -41 11 -14 20 -28 20 -31 0 -3 12 -18 26
-33 15 -15 33 -41 41 -58 8 -16 20 -39 26 -51 7 -12 24 -36 37 -53 14 -18 31
-39 38 -46 6 -8 12 -17 12 -22 0 -5 24 -47 54 -93 30 -47 66 -100 80 -119 14
-19 26 -40 26 -47 0 -7 14 -33 30 -56 17 -24 47 -67 67 -96 20 -29 34 -55 31
-58 -3 -3 -47 9 -99 26 -51 16 -107 41 -124 55 -18 13 -59 36 -91 51 -33 14
-75 34 -94 43 -19 9 -37 19 -40 22 -3 3 -30 19 -60 35 -30 16 -66 37 -80 47
-14 10 -56 36 -93 58 -38 23 -78 48 -89 57 -12 10 -28 24 -37 32 -9 8 -76 49
-148 90 -73 41 -133 78 -133 82 0 3 19 16 43 27 24 12 50 21 58 21 8 0 55 20
104 45 50 24 116 56 147 70 31 14 61 25 65 25 5 0 15 6 21 12 7 7 32 20 55 30
23 9 44 17 47 17z m-686 -330 c17 1 18 -5 12 -76 -3 -43 -5 -130 -4 -193 1
-63 1 -130 0 -148 0 -19 -6 -40 -13 -48 -9 -11 -9 -18 -1 -26 7 -7 12 -22 12
-34 0 -18 -7 -22 -46 -28 -26 -3 -124 -6 -218 -6 -94 0 -220 -7 -281 -15 -60
-8 -138 -18 -172 -24 -34 -5 -77 -14 -95 -20 -18 -5 -69 -15 -113 -21 -44 -5
-165 -15 -270 -20 -104 -5 -203 -10 -220 -10 l-30 0 35 16 c19 9 42 19 50 24
9 4 31 11 50 14 19 4 58 14 85 23 28 8 73 26 100 38 28 13 62 27 78 30 15 4
30 11 33 16 3 5 16 9 29 9 13 0 26 4 30 9 3 5 30 19 59 30 30 11 74 29 98 40
23 11 59 27 78 35 19 8 55 27 80 42 25 14 68 41 95 59 28 17 65 38 83 45 18 7
36 19 40 26 4 7 95 58 202 113 107 54 203 99 214 100z m121 -39 c2 0 21 -9 42
-21 21 -12 45 -26 53 -33 8 -7 29 -18 45 -26 17 -8 53 -29 82 -47 28 -18 66
-46 85 -63 18 -17 51 -40 73 -52 22 -11 49 -26 60 -32 11 -6 36 -23 55 -37 19
-15 69 -43 110 -64 41 -20 78 -42 81 -47 4 -6 11 -8 17 -4 5 3 25 -5 43 -19
19 -13 45 -29 59 -35 24 -11 24 -12 6 -26 -15 -11 -60 -14 -185 -16 -91 -1
-218 -2 -281 -2 -63 0 -164 3 -224 7 -59 3 -111 8 -114 11 -3 3 -7 41 -10 83
-3 43 -5 92 -5 108 -1 17 0 94 1 173 1 78 4 142 7 142z m915 -608 c47 -3 123
-10 170 -16 63 -9 86 -16 88 -27 2 -9 -27 -55 -63 -103 -36 -48 -65 -89 -65
-92 0 -3 -11 -20 -25 -38 -14 -18 -25 -37 -25 -43 0 -5 -9 -18 -19 -27 -11
-10 -22 -35 -26 -56 -4 -21 -15 -46 -26 -56 -11 -10 -36 -44 -55 -76 -20 -32
-37 -65 -38 -72 -1 -8 -7 -20 -13 -27 -6 -8 -21 -39 -34 -69 -12 -30 -28 -62
-35 -70 -7 -8 -24 -41 -39 -73 -15 -31 -31 -60 -36 -63 -5 -3 -9 -15 -9 -28 0
-13 -9 -31 -20 -41 -11 -10 -20 -28 -20 -40 0 -14 -9 -26 -25 -33 -14 -6 -25
-19 -25 -28 0 -9 -11 -29 -25 -46 -14 -16 -25 -37 -25 -47 0 -10 -13 -31 -30
-47 -16 -16 -30 -33 -30 -38 0 -4 -13 -25 -28 -45 -16 -20 -36 -53 -46 -73 -9
-21 -25 -42 -34 -47 -10 -5 -24 -22 -32 -38 -8 -15 -25 -42 -37 -59 -13 -17
-23 -40 -23 -52 0 -13 -23 -45 -55 -77 -30 -31 -55 -61 -55 -66 0 -6 -16 -30
-35 -53 -19 -24 -35 -46 -35 -50 0 -3 -15 -27 -34 -53 -18 -27 -37 -58 -40
-70 -4 -13 -12 -23 -17 -23 -5 0 -9 -7 -9 -15 0 -9 -16 -41 -35 -71 -19 -30
-35 -66 -35 -79 0 -14 -4 -25 -9 -25 -5 0 -14 -12 -20 -27 -6 -16 -12 -32 -12
-38 0 -5 -7 -14 -15 -18 -8 -4 -14 -14 -14 -21 0 -7 -9 -23 -20 -36 -11 -13
-20 -29 -20 -35 0 -7 -6 -17 -13 -23 -10 -8 -19 -3 -40 23 -14 18 -43 64 -63
102 -20 37 -47 84 -59 103 -12 19 -44 69 -71 110 -26 41 -56 84 -66 95 -9 11
-28 39 -40 62 -13 22 -38 65 -56 96 -17 30 -39 60 -47 67 -8 7 -15 18 -15 25
0 6 -13 31 -30 53 -16 23 -30 45 -30 48 0 3 -13 23 -29 43 -16 20 -40 57 -53
81 -13 25 -31 56 -39 70 -8 14 -27 42 -44 62 -16 20 -38 47 -48 60 -10 13 -32
44 -50 69 -18 26 -59 87 -93 135 -33 49 -64 96 -67 104 -4 8 -21 38 -37 65
-16 28 -40 73 -53 100 -14 28 -33 57 -42 65 -9 8 -21 23 -26 35 -5 11 -32 63
-60 115 -29 52 -59 110 -67 128 -9 17 -20 32 -24 32 -4 0 -8 7 -8 15 0 8 -9
30 -20 50 -11 20 -20 40 -20 44 0 5 -19 41 -41 81 -23 39 -38 74 -34 78 3 4
86 11 183 15 97 5 209 8 247 7 39 -1 90 4 115 10 25 7 52 14 60 17 8 4 20 7
25 8 6 2 39 10 75 18 36 9 96 21 133 27 38 6 150 14 250 17 100 4 310 5 467 3
157 -3 386 -4 510 -3 124 0 252 5 285 11 33 5 98 7 145 4z m-2603 -192 c5 0
16 -15 25 -32 9 -18 19 -40 23 -48 3 -8 17 -33 30 -55 14 -22 34 -59 45 -82
11 -23 25 -45 30 -48 6 -3 10 -14 10 -24 0 -10 19 -47 43 -82 23 -35 49 -80
57 -99 8 -19 27 -56 42 -81 15 -25 28 -53 28 -62 0 -8 22 -42 48 -74 27 -32
54 -74 62 -93 7 -19 24 -49 37 -67 12 -17 23 -36 23 -42 0 -6 5 -11 10 -11 6
0 10 -6 10 -14 0 -8 6 -16 13 -19 7 -3 -3 -18 -28 -41 -22 -20 -43 -36 -48
-36 -4 0 -26 -12 -50 -27 -23 -16 -46 -30 -52 -33 -5 -3 -44 -27 -85 -54 -41
-27 -122 -73 -179 -103 -58 -29 -108 -50 -112 -46 -4 5 -11 103 -16 218 -4
116 -8 300 -8 410 0 110 4 287 8 393 4 106 10 201 13 210 3 9 8 23 10 30 2 6
7 12 11 12z m2996 -19 c5 -5 15 -20 23 -33 7 -12 23 -43 35 -68 13 -25 29 -52
37 -60 8 -8 27 -37 42 -65 16 -27 47 -86 70 -130 22 -44 49 -89 59 -100 10
-11 25 -33 33 -50 9 -16 35 -66 58 -110 23 -44 55 -104 71 -134 16 -30 29 -60
29 -67 0 -7 3 -14 8 -16 4 -1 19 -21 35 -43 l27 -40 -59 -30 c-32 -16 -85 -48
-117 -69 -33 -22 -63 -44 -69 -50 -5 -6 -28 -20 -50 -31 -22 -11 -59 -36 -81
-55 -23 -19 -65 -43 -94 -53 -28 -10 -54 -17 -56 -15 -2 2 1 85 6 184 5 110 5
229 0 309 -5 72 -11 266 -13 433 -2 192 0 299 6 293z m-114 -11 c3 0 7 -33 7
-72 0 -40 4 -206 7 -368 3 -162 6 -392 7 -510 0 -118 0 -236 -1 -262 l-1 -47
-31 16 c-18 9 -61 35 -97 59 -36 23 -77 54 -92 68 -15 14 -29 26 -32 26 -3 0
-20 10 -38 23 -18 12 -49 34 -68 48 -19 15 -68 44 -107 65 -40 21 -73 42 -73
45 0 4 16 35 35 69 19 34 35 68 35 74 0 7 9 23 20 36 11 12 39 57 62 99 23 42
48 85 54 96 7 11 22 40 33 64 12 24 21 47 21 51 0 4 9 27 21 51 11 24 40 71
64 104 24 33 58 89 76 125 19 36 46 82 62 103 16 20 32 37 36 37z m-3015 -91
c5 1 6 -20 2 -46 -3 -27 -8 -183 -12 -348 -3 -174 -1 -392 5 -519 6 -120 9
-221 7 -223 -2 -3 -12 0 -23 5 -10 5 -34 17 -53 27 -19 10 -47 28 -62 41 -15
12 -44 28 -65 34 -21 7 -46 21 -56 31 -10 11 -24 19 -31 19 -7 0 -44 21 -82
48 -38 26 -79 53 -89 59 -11 7 -46 26 -77 43 -32 17 -58 34 -58 39 0 4 10 19
23 33 12 14 51 65 86 113 35 48 71 101 79 119 9 17 24 40 34 50 10 11 18 24
18 29 0 5 25 36 55 70 30 33 55 65 55 70 0 5 12 24 28 43 15 18 43 52 62 75
19 23 37 48 40 56 3 7 28 40 55 73 28 32 54 59 59 59z m-630 -923 c17 -6 44
-19 59 -29 14 -9 33 -17 42 -17 9 0 27 -11 41 -25 14 -14 39 -28 54 -32 16 -3
31 -11 34 -18 2 -7 37 -29 78 -50 40 -21 85 -45 99 -52 15 -7 32 -20 39 -28 7
-8 18 -15 24 -15 6 0 30 -13 54 -29 42 -28 42 -28 25 -50 -10 -12 -25 -23 -33
-25 -8 -2 -24 -6 -35 -10 -11 -4 -60 -27 -110 -51 -49 -24 -103 -57 -119 -74
-17 -17 -34 -31 -39 -31 -4 0 -33 -12 -63 -27 -30 -14 -54 -30 -54 -35 0 -4
-6 -8 -14 -8 -8 0 -28 -13 -46 -30 -18 -16 -38 -30 -45 -30 -6 0 -20 -9 -29
-19 -10 -11 -42 -29 -72 -41 -30 -12 -54 -26 -54 -31 0 -5 -15 -15 -32 -23
-18 -7 -49 -27 -68 -45 -19 -17 -49 -33 -67 -37 -18 -3 -44 -16 -58 -28 -14
-12 -42 -28 -62 -35 -20 -8 -58 -26 -85 -42 -27 -16 -55 -29 -61 -29 -7 0 -17
-4 -23 -9 -5 -5 -33 -19 -63 -31 -29 -11 -56 -18 -59 -16 -2 3 6 20 20 38 14
18 33 49 42 69 10 21 30 50 46 65 16 16 30 37 30 47 0 9 5 17 10 17 6 0 10 5
10 11 0 6 19 34 42 61 23 27 49 64 59 81 10 18 25 47 34 65 8 17 19 32 23 32
4 0 21 25 37 55 15 30 32 55 37 55 4 0 8 4 8 9 0 5 18 35 40 67 22 33 61 91
86 129 26 39 74 111 107 160 33 50 65 93 69 96 5 3 24 1 42 -5z m3147 -55 c44
-25 105 -60 134 -76 30 -17 73 -44 95 -60 23 -17 57 -42 75 -57 18 -16 37 -28
41 -28 5 0 21 -12 37 -25 15 -13 27 -28 27 -32 0 -4 -15 -17 -33 -27 -17 -11
-54 -32 -82 -47 -27 -14 -97 -55 -155 -90 -58 -35 -126 -75 -152 -88 -26 -13
-55 -32 -64 -42 -10 -11 -23 -19 -30 -19 -7 0 -22 -12 -32 -28 -13 -17 -31
-28 -48 -30 -15 -1 -51 -20 -79 -42 -29 -22 -57 -40 -64 -40 -7 0 -20 -9 -29
-19 -10 -11 -44 -34 -76 -51 -33 -18 -105 -66 -161 -106 -57 -40 -114 -78
-128 -83 -25 -10 -26 -9 -16 17 6 14 21 47 34 72 13 25 26 52 29 60 3 8 17 33
30 55 14 22 36 60 50 83 14 24 37 58 51 75 15 18 42 56 61 84 19 29 34 58 34
66 0 7 5 18 11 24 6 6 16 20 23 32 6 11 29 46 51 78 22 31 45 70 50 85 6 15
39 66 75 114 36 47 87 110 113 139 l48 53 80 -47z m1190 49 c3 0 13 -8 21 -17
8 -10 52 -92 97 -183 45 -91 97 -192 114 -225 18 -33 48 -88 67 -122 18 -35
37 -63 41 -63 4 0 14 -17 23 -37 9 -21 22 -47 29 -58 6 -11 31 -49 53 -85 23
-36 59 -96 79 -135 21 -38 51 -88 66 -109 16 -22 29 -46 29 -53 0 -7 -3 -13
-8 -13 -4 0 -30 15 -57 34 -28 18 -60 36 -73 40 -13 5 -69 42 -125 84 -56 43
-127 93 -157 113 -30 20 -100 58 -155 85 -55 26 -124 64 -153 83 -30 20 -66
43 -81 52 -16 8 -46 29 -67 45 -21 17 -57 41 -79 54 -22 13 -58 40 -80 60 -22
20 -61 52 -87 70 -27 18 -48 39 -48 45 0 6 21 23 48 36 26 14 74 42 107 64 33
21 76 49 95 61 19 13 51 30 71 38 19 8 41 22 49 30 7 9 17 16 23 16 6 0 20 9
32 20 11 11 43 31 70 45 28 14 53 25 56 25z m-2967 -27 c6 -3 30 -25 53 -47
24 -23 43 -45 43 -50 0 -4 11 -22 25 -40 14 -17 37 -44 50 -61 14 -16 25 -34
25 -40 0 -6 6 -23 13 -38 6 -15 15 -27 19 -27 3 0 23 -29 44 -65 21 -36 42
-65 46 -65 4 0 8 -5 8 -11 0 -7 16 -31 35 -55 19 -23 35 -49 35 -58 0 -9 4
-16 9 -16 5 0 18 -19 29 -42 11 -24 29 -51 40 -62 12 -10 24 -31 27 -46 3 -16
13 -34 21 -41 8 -6 14 -22 14 -35 0 -13 9 -28 20 -34 11 -6 27 -24 35 -40 8
-16 26 -41 40 -56 14 -15 25 -30 25 -35 0 -4 -6 -6 -12 -5 -7 2 -25 9 -40 16
-16 7 -28 17 -28 22 0 4 -6 8 -14 8 -7 0 -24 8 -37 18 -13 9 -58 32 -99 51
-41 18 -91 40 -110 48 -19 8 -42 19 -50 24 -8 5 -53 28 -100 50 -47 23 -96 50
-110 60 -14 9 -48 30 -75 45 -28 15 -86 46 -130 69 -44 23 -98 58 -119 78 -22
21 -46 37 -53 37 -7 0 -28 16 -48 36 -19 19 -64 50 -98 68 -34 18 -62 37 -62
42 0 5 20 19 45 32 25 13 52 30 60 37 8 7 28 17 44 21 15 4 64 31 108 60 44
30 82 54 85 54 3 0 25 16 49 35 23 19 49 35 57 35 8 0 27 7 43 14 15 8 32 12
38 9z m2274 -394 c9 1 12 -32 13 -126 1 -71 3 -150 4 -178 1 -27 2 -88 3 -135
1 -47 1 -98 2 -115 0 -16 1 -57 2 -90 l2 -60 -159 1 c-88 1 -290 2 -450 2
-159 0 -345 -1 -412 -2 -66 0 -119 3 -116 7 3 5 38 33 78 63 41 30 78 54 83
54 5 0 15 6 21 14 7 8 36 27 64 41 29 15 70 41 92 57 22 16 72 53 112 83 39
29 84 59 100 67 15 8 57 31 91 52 35 20 69 36 74 36 6 0 26 14 45 30 18 17 40
30 48 30 8 0 18 6 22 13 4 6 40 27 78 46 39 19 83 44 100 55 16 12 43 29 60
38 16 9 36 17 43 17z m-2882 -9 c12 0 32 -8 45 -18 13 -10 38 -24 54 -32 17
-8 72 -45 123 -82 50 -38 95 -68 98 -68 3 0 20 -11 37 -24 18 -13 43 -27 56
-31 14 -4 47 -25 74 -46 27 -22 53 -39 58 -39 6 0 40 -18 77 -40 37 -23 78
-43 92 -47 14 -3 32 -11 40 -18 8 -6 31 -17 50 -24 19 -7 44 -17 55 -21 11 -4
53 -24 94 -45 40 -20 96 -52 123 -72 28 -19 63 -39 79 -45 16 -5 29 -14 29
-19 0 -5 7 -9 16 -9 9 0 14 -6 12 -12 -3 -9 -43 -15 -124 -20 -65 -4 -195 -12
-289 -18 -93 -5 -310 -10 -482 -10 l-312 0 -7 22 c-4 12 -8 112 -9 223 -2 110
-5 266 -7 348 -4 145 -4 147 18 147z m-150 -10 c21 0 22 -5 24 -127 1 -71 4
-202 7 -293 2 -91 4 -192 3 -225 0 -32 -4 -63 -8 -67 -5 -5 -35 -8 -68 -7 -32
0 -322 2 -644 3 -340 2 -585 7 -587 12 -2 5 15 17 37 27 22 9 47 17 55 17 9 0
45 13 80 29 36 17 65 34 65 39 0 5 21 19 48 31 26 12 61 29 77 39 17 10 50 31
75 46 25 16 92 60 150 97 58 38 114 76 125 85 11 9 53 31 93 50 40 18 98 51
130 72 31 21 77 46 102 57 25 10 52 25 61 32 8 7 23 13 31 13 9 0 18 3 20 8 2
4 26 19 53 34 28 15 60 28 71 28z m3150 -30 c4 0 29 -17 57 -37 28 -21 62 -48
75 -60 14 -13 29 -23 35 -23 5 0 32 -17 61 -37 28 -21 60 -46 71 -56 11 -10
37 -27 57 -38 20 -10 39 -23 43 -29 3 -5 25 -19 48 -30 23 -11 51 -26 62 -32
11 -7 41 -25 66 -40 25 -16 51 -28 57 -28 6 0 48 -23 94 -51 46 -29 103 -68
128 -88 25 -20 70 -53 101 -74 30 -20 60 -37 65 -37 5 -1 25 -14 44 -30 28
-25 31 -30 15 -31 -11 0 -63 1 -115 2 -52 1 -151 3 -220 4 -69 1 -190 7 -270
13 -80 7 -179 17 -220 23 -41 6 -103 10 -137 9 -49 -1 -66 3 -82 19 -17 17
-19 34 -20 136 -1 65 -4 122 -7 127 -3 5 -8 62 -11 126 -2 64 -5 149 -5 187 0
39 1 71 1 73 1 1 4 2 7 2z"/>
<g>
<path d="M5303 3880 c-18 -1 -39 -12 -60 -33 -19 -19 -36 -51 -44 -80 -6 -26
-10 -49 -8 -51 2 -1 18 -12 36 -24 21 -15 46 -22 78 -22 40 0 52 5 81 34 19
19 34 44 34 55 0 12 -11 39 -25 61 -14 21 -33 44 -44 50 -11 5 -32 10 -48 10z"/>
</g>
<g>
<path d="M4041 3829 c-20 0 -51 -6 -70 -13 -18 -6 -41 -21 -51 -33 -10 -13
-17 -41 -18 -75 -2 -50 0 -54 31 -75 20 -14 48 -23 71 -23 20 0 49 7 64 15 15
8 37 25 49 38 11 12 23 38 26 56 5 27 0 39 -30 72 -29 32 -42 39 -72 38z"/>
</g>
<g>
<path d="M4745 3620 c-13 0 -31 -7 -39 -16 -9 -8 -16 -26 -16 -39 0 -13 4 -25
8 -27 4 -1 18 -17 30 -35 12 -17 22 -38 22 -46 0 -9 3 -17 8 -19 4 -1 24 -35
43 -75 20 -39 34 -75 30 -80 -3 -4 -16 -14 -28 -20 -13 -7 -29 -13 -36 -13 -7
0 -23 -10 -35 -23 -12 -13 -22 -30 -22 -38 0 -8 7 -22 14 -31 7 -10 24 -19 37
-20 13 -1 56 13 94 30 39 18 77 36 85 41 9 5 16 26 18 52 2 29 -1 47 -11 54
-8 5 -26 33 -40 62 -15 28 -31 54 -36 57 -5 4 -12 19 -16 35 -3 16 -13 35 -21
42 -8 6 -14 18 -14 26 0 8 -12 30 -26 49 -17 21 -35 34 -49 34z"/>
</g>
<g>
<path d="M4521 2950 c-50 0 -61 -3 -73 -22 -8 -13 -18 -35 -22 -50 -5 -22 -1
-30 19 -44 14 -9 42 -17 63 -16 20 0 100 5 178 11 77 6 158 17 180 24 36 13
39 17 39 53 l0 39 -60 -2 c-33 0 -104 -3 -157 -6 -56 -3 -100 -2 -103 4 -4 5
-32 9 -64 9z"/>
</g>
</g>
<g>
<path d="M15286 5240 c-7 0 -20 -8 -29 -18 -10 -10 -17 -23 -17 -29 0 -5 10
-21 23 -35 12 -14 47 -40 78 -57 31 -17 65 -31 76 -31 11 0 26 11 33 25 10 19
11 27 0 39 -6 9 -24 22 -39 29 -14 8 -42 23 -61 33 -19 10 -39 25 -43 32 -4 6
-14 12 -21 12z"/>
</g>
<g>
<path d="M14835 5187 c-11 0 -27 -1 -35 -4 -8 -2 -39 -33 -67 -67 -29 -35 -53
-73 -53 -84 0 -11 8 -22 18 -24 9 -2 29 0 45 5 15 5 27 13 27 17 0 5 20 21 44
36 25 16 49 38 55 50 6 14 6 29 -3 45 -6 13 -20 25 -31 26z"/>
</g>
<g>
<path d="M15630 5030 c-9 0 -25 -9 -35 -19 -16 -19 -16 -21 4 -49 11 -17 39
-39 61 -51 27 -14 50 -19 66 -15 14 4 32 17 41 30 12 19 13 27 3 39 -7 8 -37
26 -67 40 -31 14 -63 25 -73 25z"/>
</g>
<g>
<path d="M14549 4960 c-4 0 -17 -13 -29 -30 -12 -16 -30 -30 -40 -30 -11 0
-38 -10 -61 -21 -22 -12 -43 -28 -46 -36 -3 -7 0 -20 7 -28 7 -8 26 -15 43
-15 16 0 48 5 71 12 22 6 54 23 69 37 23 21 26 31 21 56 -3 16 -11 36 -16 43
-6 6 -14 12 -19 12z"/>
</g>
<g>
<path d="M15924 4860 c-22 0 -45 -5 -52 -12 -7 -7 -12 -19 -12 -27 0 -9 15
-26 33 -38 18 -13 41 -23 51 -23 9 0 26 5 37 10 10 6 19 21 19 34 0 13 -8 30
-18 39 -11 10 -35 17 -58 17z"/>
</g>
<g>
<path d="M16171 4440 c-3 0 -22 -10 -41 -21 -19 -12 -42 -29 -51 -39 -9 -9
-23 -30 -32 -46 -8 -16 -12 -35 -10 -41 3 -7 0 -13 -5 -13 -5 0 -7 -14 -3 -32
5 -24 13 -34 30 -36 12 -2 31 4 42 14 11 10 17 25 14 35 -4 11 10 49 34 92 22
41 37 77 34 81 -4 3 -9 6 -12 6z"/>
</g>
<g>
<path d="M14244 4360 c-12 0 -27 -6 -33 -14 -8 -9 -8 -22 0 -44 6 -17 22 -38
36 -47 22 -15 27 -15 39 -3 12 12 12 21 -3 61 -13 36 -22 47 -39 47z"/>
</g>
<g>
<path d="M14315 4144 c-17 3 -38 1 -47 -5 -10 -5 -18 -15 -18 -20 0 -6 9 -18
20 -27 12 -10 25 -35 30 -57 5 -22 10 -54 10 -72 0 -22 6 -36 19 -43 11 -5 24
-10 29 -10 5 0 13 10 17 23 4 12 8 31 10 42 1 11 -2 45 -8 76 -5 31 -15 63
-21 71 -6 8 -25 18 -41 22z"/>
</g>
<g>
<path d="M16051 4120 c-6 0 -16 -10 -22 -22 -6 -13 -19 -31 -28 -40 -9 -9 -21
-24 -28 -32 -7 -8 -15 -36 -19 -63 -5 -38 -3 -52 10 -62 9 -8 26 -10 43 -7 27
6 28 9 31 79 2 43 9 81 18 95 9 13 13 30 10 38 -3 8 -10 14 -15 14z"/>
</g>
<g>
<path d="M11616 3930 c-22 0 -24 -5 -30 -77 -4 -43 -7 -96 -6 -118 1 -21 6
-45 11 -51 7 -8 7 -14 0 -18 -6 -4 -8 -20 -5 -35 5 -24 1 -32 -21 -47 -15 -10
-31 -28 -35 -40 -6 -15 -3 -38 8 -70 13 -34 27 -54 50 -67 18 -11 39 -16 48
-13 13 5 11 13 -11 50 l-26 45 30 70 c18 40 31 86 31 110 0 23 -5 41 -11 41
-7 0 -8 26 -3 80 4 56 3 84 -5 94 -8 10 -9 16 -1 21 6 3 8 11 5 16 -4 5 -17 9
-29 9z"/>
</g>
<g>
<path d="M11266 3840 c-13 0 -26 -6 -29 -14 -3 -7 -2 -17 3 -22 4 -5 22 -35
39 -67 24 -45 29 -62 21 -77 -5 -10 -10 -28 -10 -39 0 -11 -6 -24 -13 -28 -7
-4 -18 -30 -25 -58 -8 -34 -9 -60 -3 -82 5 -17 7 -34 4 -36 -2 -3 4 -10 14
-16 11 -5 43 -13 72 -17 l53 -7 -4 29 c-2 19 -10 30 -23 32 -11 3 -26 9 -32
14 -7 6 -13 20 -13 32 0 11 6 37 13 56 7 19 21 50 30 67 12 22 15 42 11 60 -4
15 -21 50 -37 78 -16 27 -33 60 -38 72 -6 15 -17 23 -33 23z"/>
</g>
<g>
<path d="M9152 3800 c-6 0 -12 -8 -12 -17 0 -9 6 -24 14 -32 8 -9 19 -38 25
-66 9 -44 8 -52 -7 -65 -10 -8 -27 -34 -39 -57 -12 -23 -25 -68 -28 -100 -6
-53 -5 -60 19 -85 14 -16 34 -28 46 -28 11 0 29 -6 40 -12 16 -10 23 -10 35 3
15 14 13 19 -21 53 -33 33 -36 41 -31 76 3 21 17 64 31 96 15 33 26 74 26 99
0 37 -6 50 -43 89 -23 25 -48 46 -55 46z"/>
</g>
<g>
<path d="M14396 3800 c-6 -1 -20 -9 -31 -18 -11 -10 -22 -24 -24 -32 -3 -8 -5
-38 -5 -66 0 -32 7 -61 17 -78 10 -14 26 -26 37 -26 10 0 22 5 25 10 4 6 9 41
12 78 2 37 6 73 9 81 2 8 -3 22 -12 32 -10 11 -22 19 -28 19z"/>
</g>
<g>
<path d="M15995 3793 c-5 2 -22 0 -37 -5 -23 -8 -28 -15 -28 -44 0 -21 8 -42
20 -54 12 -12 25 -18 30 -15 6 4 10 13 10 21 0 8 9 14 19 14 11 0 22 4 25 9 4
5 -2 23 -11 40 -10 17 -22 32 -28 34z"/>
</g>
<g>
<path d="M8781 3750 c-6 0 -14 -7 -18 -16 -3 -9 4 -33 16 -54 11 -21 21 -44
21 -51 0 -8 -7 -27 -15 -43 -9 -16 -13 -31 -11 -34 3 -2 -4 -16 -14 -30 -11
-13 -20 -34 -20 -44 0 -11 12 -43 26 -72 14 -28 33 -59 41 -68 10 -11 30 -18
52 -18 20 0 46 3 59 6 16 5 22 14 22 35 0 28 -2 29 -45 29 -32 0 -51 6 -65 20
-11 11 -20 29 -20 39 0 11 5 23 10 26 6 3 19 25 30 48 11 22 20 53 20 68 0 14
-3 41 -6 59 -4 17 -21 47 -39 66 -18 19 -38 34 -44 34z"/>
</g>
<g>
<path d="M15459 3545 c-17 4 -30 0 -40 -12 -9 -10 -14 -25 -12 -34 2 -9 27
-23 57 -32 29 -9 67 -17 85 -17 18 0 46 8 62 17 16 10 29 23 29 30 0 6 -5 15
-10 18 -6 4 -41 11 -78 16 -37 5 -79 11 -93 14z"/>
</g>
<g>
<path d="M15045 3503 c-46 8 -52 6 -74 -17 l-23 -24 25 -16 c20 -14 40 -15
106 -10 47 4 85 12 92 20 6 7 9 19 7 26 -3 8 -21 13 -44 13 -21 1 -62 4 -89 8z"/>
</g>
<g>
<path d="M14727 3440 c-23 0 -54 -7 -69 -14 -15 -8 -37 -21 -48 -29 -16 -11
-17 -16 -7 -30 6 -8 23 -17 37 -18 14 -2 35 2 47 9 12 7 38 12 58 12 22 0 38
6 41 14 3 8 1 24 -6 35 -8 16 -20 21 -53 21z"/>
</g>
<g>
<path d="M11435 3208 c-11 0 -33 -3 -50 -5 -16 -2 -69 -18 -117 -36 -49 -17
-88 -36 -88 -43 0 -6 -9 -19 -19 -28 -10 -9 -17 -25 -14 -35 2 -9 -3 -23 -11
-30 -9 -8 -16 -29 -16 -48 0 -19 7 -47 15 -62 11 -23 13 -61 10 -189 -3 -127
-1 -169 10 -196 8 -20 15 -62 15 -95 0 -33 5 -63 10 -66 6 -3 10 -37 10 -75 0
-38 -4 -72 -10 -75 -6 -4 -2 -21 10 -46 11 -21 25 -39 30 -39 5 0 26 -15 46
-32 21 -18 38 -31 38 -29 1 3 28 -4 61 -15 49 -16 88 -19 215 -18 85 1 173 5
195 11 22 5 51 16 65 23 14 7 45 18 70 25 39 10 45 15 52 46 4 19 5 77 2 130
l-6 96 50 7 c27 3 55 13 62 21 7 8 18 15 25 15 7 0 25 10 40 23 15 12 43 36
62 52 32 28 35 36 37 85 0 30 -5 74 -13 97 -8 24 -22 45 -32 48 -10 3 -30 18
-46 34 -15 15 -55 37 -88 49 -33 12 -71 22 -85 24 -21 3 -25 8 -24 33 0 17 2
55 3 85 2 30 -1 71 -6 91 -4 20 -19 50 -31 67 -14 18 -30 28 -38 25 -8 -3 -45
4 -82 15 -37 11 -89 25 -117 31 -27 6 -88 16 -135 21 -47 5 -94 9 -105 8z m15
-119 c31 1 80 -6 110 -15 30 -8 80 -20 110 -26 30 -5 59 -14 65 -19 6 -6 -56
-9 -155 -8 -91 1 -176 1 -190 0 -14 -1 -47 0 -73 3 -27 2 -50 6 -53 9 -2 2 6
11 19 20 13 8 43 20 68 25 24 5 69 10 99 11z m408 -194 c2 -2 5 -110 8 -241 3
-131 8 -242 10 -246 3 -4 -1 -52 -7 -107 l-13 -99 -65 -18 c-36 -10 -77 -19
-91 -20 -14 -1 -66 -3 -115 -4 -50 -2 -106 2 -125 8 -19 6 -51 13 -70 16 -19
4 -47 18 -62 31 -23 19 -28 33 -28 68 0 25 -9 88 -20 141 -11 53 -20 133 -20
179 -1 45 -1 111 0 145 l0 64 53 -7 c28 -4 66 -14 82 -23 20 -10 54 -16 101
-15 38 0 97 8 130 18 32 9 75 24 94 32 19 8 50 27 70 42 19 16 42 30 50 33 8
3 16 4 18 3z m116 -165 c15 0 43 -7 64 -15 20 -9 47 -26 60 -38 13 -12 28 -30
34 -40 6 -12 5 -27 -4 -48 -7 -16 -22 -32 -33 -36 -11 -3 -26 -14 -33 -24 -7
-10 -31 -24 -52 -30 -22 -7 -42 -10 -44 -8 -3 2 -8 57 -11 122 l-7 117 26 0z"/>
</g>
<g>
<path d="M9080 3113 c-36 2 -99 1 -140 -2 -52 -5 -99 -17 -155 -41 -44 -19
-90 -33 -103 -32 -12 1 -38 -8 -58 -21 -34 -21 -34 -24 -30 -72 3 -27 8 -84
11 -125 3 -41 8 -86 10 -100 3 -25 2 -25 -68 -27 -39 -1 -83 -7 -97 -14 -14
-6 -32 -15 -40 -20 -8 -5 -33 -17 -55 -27 -31 -14 -50 -34 -78 -81 -20 -34
-37 -69 -37 -77 0 -8 -4 -22 -9 -32 -4 -9 -15 -33 -24 -52 -9 -19 -19 -45 -22
-58 -4 -12 -4 -35 0 -50 3 -15 20 -44 38 -65 18 -20 49 -42 68 -49 18 -6 98
-14 176 -17 91 -4 147 -11 155 -19 9 -9 9 -24 1 -64 -7 -36 -7 -59 0 -73 5
-11 13 -27 17 -35 4 -8 27 -27 52 -41 25 -15 83 -39 129 -52 54 -17 135 -30
224 -38 77 -7 172 -12 210 -10 39 1 99 11 135 23 36 12 75 27 86 35 19 12 23
30 34 131 9 80 10 157 5 247 -5 71 -8 155 -7 185 1 30 -7 106 -17 170 -10 63
-18 129 -18 145 -1 17 -5 56 -10 88 -5 32 -7 60 -3 62 4 3 -4 27 -17 55 -19
40 -29 50 -49 50 -14 0 -35 9 -46 20 -12 11 -40 29 -62 39 -23 10 -63 24 -91
29 -27 6 -79 13 -115 15z m-48 -114 c74 1 114 -4 165 -21 38 -11 75 -27 83
-35 12 -11 10 -13 -14 -13 -15 0 -53 7 -84 16 -38 11 -77 15 -126 11 -39 -2
-102 -14 -141 -26 -38 -13 -92 -31 -120 -43 -27 -11 -57 -21 -65 -21 -11 -2
-16 9 -17 36 -2 25 2 37 11 37 8 0 27 7 42 15 16 8 40 15 54 15 14 0 45 7 70
14 25 8 88 15 142 15z m333 -259 c8 0 17 -11 21 -25 4 -14 7 -38 8 -53 1 -15
4 -32 8 -38 4 -5 9 -37 13 -70 3 -32 5 -99 4 -149 -1 -49 -2 -106 -2 -125 -1
-19 0 -69 2 -110 1 -41 -1 -100 -6 -130 -7 -50 -11 -56 -43 -72 -19 -9 -63
-22 -98 -28 -34 -7 -91 -10 -125 -7 -34 3 -89 10 -122 16 -33 5 -78 12 -100
16 -22 3 -58 13 -80 21 -22 9 -56 24 -75 34 -34 17 -35 20 -36 77 0 32 -4 94
-8 138 -4 44 -11 139 -15 210 -4 72 -5 135 -1 140 4 6 6 40 5 78 -2 37 2 67 7
67 5 0 36 -13 70 -30 33 -16 76 -30 97 -30 20 0 56 -5 81 -11 31 -7 78 -7 155
1 83 8 123 18 163 38 29 14 55 30 58 34 3 4 12 8 19 8z m-780 -144 c29 -1 30
-2 25 -41 -2 -22 -4 -62 -3 -90 1 -27 5 -82 8 -121 l7 -71 -98 -9 c-91 -9
-104 -8 -163 13 -36 12 -71 29 -79 37 -12 12 -11 24 9 87 16 51 35 87 60 114
25 27 54 46 91 58 29 9 67 19 83 21 17 2 44 3 60 2z"/>
</g>
<g>
<path d="M925 2750 c-8 0 -15 -7 -15 -15 0 -8 7 -15 15 -15 8 0 15 7 15 15 0
8 -7 15 -15 15z"/>
</g>
</g>
</svg>
