<?xml version="1.0" standalone="no"?>
<!DOCTYPE svg PUBLIC "-//W3C//DTD SVG 20010904//EN"
 "http://www.w3.org/TR/2001/REC-SVG-20010904/DTD/svg10.dtd">
<svg version="1.0" xmlns="http://www.w3.org/2000/svg"
 width="836.000000pt" height="836.000000pt" viewBox="0 0 836.000000 836.000000"
 preserveAspectRatio="xMidYMid meet">
<metadata>
Created by potrace 1.16, written by Peter Selinger 2001-2019
</metadata>
<g transform="translate(0.000000,836.000000) scale(0.100000,-0.100000)"
fill="#000000" stroke="none">
<g>
<path d="M2154 7974 c-44 3 -142 -1 -219 -9 -77 -7 -187 -20 -245 -30 -58 -9
-127 -24 -155 -32 -27 -9 -66 -23 -85 -33 -19 -10 -55 -25 -80 -35 -25 -9 -54
-22 -65 -28 -11 -6 -40 -22 -65 -35 -25 -13 -52 -30 -60 -37 -8 -7 -51 -32
-95 -54 -44 -23 -100 -58 -125 -78 -25 -19 -73 -61 -106 -94 -34 -32 -66 -59
-70 -60 -5 0 -32 -28 -61 -62 -29 -34 -66 -79 -83 -99 -18 -21 -52 -76 -76
-124 -24 -48 -44 -91 -44 -95 0 -4 -16 -31 -35 -60 -19 -30 -35 -60 -35 -68 0
-8 -6 -22 -13 -30 -8 -9 -24 -50 -36 -91 -12 -41 -27 -91 -32 -110 -5 -19 -15
-64 -22 -100 -8 -42 -11 -145 -10 -296 1 -198 5 -245 24 -325 12 -52 25 -98
29 -104 4 -5 15 -33 23 -61 8 -28 34 -87 57 -130 23 -44 45 -86 50 -94 5 -8
18 -34 29 -58 12 -23 21 -52 21 -64 0 -11 16 -40 35 -64 19 -23 35 -47 35 -53
0 -6 18 -31 40 -55 22 -24 40 -51 40 -60 0 -9 6 -16 14 -16 8 0 33 -24 57 -52
24 -29 63 -75 88 -103 25 -27 88 -90 140 -138 62 -57 117 -98 160 -119 36 -18
86 -49 111 -69 25 -20 63 -46 85 -58 22 -11 47 -21 57 -21 9 0 66 -21 125 -47
59 -26 115 -52 123 -59 8 -7 50 -24 94 -38 43 -14 90 -26 105 -26 14 0 39 -7
54 -15 16 -8 51 -17 79 -20 27 -2 64 -7 81 -10 18 -2 127 -7 243 -9 170 -4
222 -2 265 10 30 9 86 24 124 34 39 9 90 26 115 37 25 11 58 25 73 32 15 6 34
11 42 11 7 0 42 13 77 30 34 16 86 42 113 57 28 16 77 46 109 68 33 22 98 65
145 95 78 50 92 64 153 155 37 54 70 111 73 126 3 15 15 35 26 45 10 9 19 21
19 26 0 5 9 28 20 50 11 23 20 49 20 59 0 9 7 22 15 29 8 7 15 17 15 23 0 6
16 41 35 78 19 37 39 84 44 105 5 22 15 57 21 79 6 22 17 67 24 100 7 33 19
79 25 103 7 23 10 46 7 50 -3 5 2 35 11 68 11 45 14 87 9 174 -3 63 -12 147
-19 185 -8 39 -14 72 -15 75 0 3 -3 19 -7 35 -3 17 -13 57 -22 90 -9 33 -21
85 -28 115 -7 30 -25 91 -40 135 -15 44 -32 91 -38 105 -6 14 -12 32 -13 40
-2 8 -9 19 -17 25 -7 5 -17 22 -20 36 -4 15 -23 55 -42 88 -19 34 -34 65 -33
69 0 4 -7 25 -16 47 -10 21 -31 55 -47 74 -16 20 -29 40 -29 44 0 5 -19 32
-42 61 -24 28 -79 88 -123 133 -44 46 -85 83 -90 83 -6 0 -29 18 -50 41 -22
22 -53 48 -70 56 -16 9 -34 21 -40 28 -5 6 -47 37 -92 68 -45 32 -84 57 -87
57 -3 0 -17 5 -33 12 -15 6 -37 13 -47 15 -11 2 -58 22 -105 44 -47 23 -90 42
-96 43 -5 1 -15 5 -21 8 -6 4 -22 9 -37 12 -15 2 -31 7 -35 10 -5 3 -78 12
-161 21 -84 8 -156 17 -161 20 -4 2 -43 7 -86 9z m-124 -121 c14 -2 63 -5 110
-7 47 -2 126 -9 175 -14 50 -6 120 -13 158 -16 45 -3 88 -15 130 -35 34 -16
86 -38 115 -50 28 -12 75 -31 104 -42 29 -12 70 -33 91 -48 22 -14 51 -33 64
-42 13 -9 58 -43 101 -75 42 -32 126 -108 186 -168 59 -61 126 -137 148 -170
23 -32 78 -131 123 -220 45 -89 101 -215 123 -281 22 -66 54 -176 71 -245 17
-69 38 -161 46 -204 10 -48 17 -132 17 -210 0 -91 -5 -154 -17 -206 -9 -41
-18 -84 -20 -95 -1 -11 -5 -27 -8 -35 -2 -8 -10 -35 -17 -60 -7 -25 -18 -63
-26 -85 -7 -22 -20 -60 -29 -84 -9 -24 -35 -85 -59 -135 -23 -50 -50 -107 -59
-126 -9 -19 -27 -53 -39 -75 -13 -22 -35 -56 -50 -76 -16 -20 -28 -39 -28 -43
0 -3 -15 -23 -32 -42 -18 -20 -51 -45 -73 -56 -22 -12 -62 -37 -90 -57 -27
-20 -82 -56 -121 -79 -38 -23 -73 -42 -77 -42 -3 0 -22 -11 -42 -24 -19 -14
-58 -29 -86 -35 -27 -6 -60 -17 -72 -25 -12 -8 -58 -24 -102 -36 -44 -12 -96
-27 -115 -33 -23 -8 -119 -12 -275 -13 -132 -1 -258 3 -280 8 -22 5 -52 12
-67 15 -16 3 -28 8 -28 12 0 3 -34 7 -76 9 -65 2 -86 7 -147 40 -40 20 -74 39
-77 42 -3 3 -21 11 -40 18 -19 8 -48 17 -65 21 -16 5 -59 23 -95 41 -36 18
-89 49 -119 69 -30 20 -75 48 -100 63 -25 15 -56 32 -68 39 -12 6 -73 63 -135
125 -62 63 -130 133 -150 156 -21 24 -56 65 -78 92 -23 26 -60 75 -82 107 -23
33 -46 59 -50 59 -4 0 -8 7 -8 15 0 8 -11 36 -24 62 -14 27 -37 74 -52 106
-14 31 -31 60 -36 63 -6 4 -24 36 -41 73 -17 36 -32 71 -32 76 -1 6 -9 35 -19
67 -9 31 -18 71 -20 90 -2 18 -9 80 -15 138 -6 58 -11 168 -12 245 -1 96 2
140 10 143 6 2 11 18 11 35 0 18 9 61 20 97 11 36 25 75 30 88 6 12 15 34 22
50 7 15 20 39 30 54 10 14 18 33 18 41 0 8 15 37 33 63 17 27 41 67 51 89 11
22 43 76 72 120 32 48 96 122 162 185 60 58 131 119 157 135 27 17 61 38 75
47 14 9 43 26 65 37 22 12 60 32 85 46 25 14 54 32 65 39 11 7 47 23 80 35 33
12 74 31 90 41 17 10 48 23 70 29 22 5 54 13 70 16 17 3 86 12 155 21 69 8
141 18 160 22 19 4 46 6 60 5z"/>
<g>
<path d="M3333 7179 c-4 -1 -17 -4 -28 -8 -11 -4 -35 -13 -53 -20 -20 -8 -34
-22 -38 -37 -3 -13 -3 -40 0 -59 4 -22 17 -42 35 -55 20 -13 45 -20 77 -20 38
0 53 5 76 27 21 20 28 36 28 66 0 21 -5 47 -11 59 -6 11 -26 26 -44 34 -19 8
-38 14 -42 13z"/>
</g>
<g>
<path d="M1924 6956 c-30 3 -48 -2 -80 -23 -35 -23 -43 -35 -48 -69 -4 -25 -2
-52 5 -68 7 -15 23 -29 36 -32 13 -4 40 -4 59 -1 19 3 48 16 64 29 25 20 29
30 29 74 1 27 -5 58 -12 68 -8 11 -30 20 -53 22z"/>
</g>
<g>
<path d="M2813 6842 c-10 3 -28 1 -40 -3 -12 -4 -26 -17 -32 -28 -6 -11 -11
-29 -11 -40 0 -11 14 -50 30 -86 17 -36 30 -71 30 -77 0 -6 32 -75 70 -154 39
-78 70 -147 70 -152 0 -5 20 -45 44 -88 33 -60 41 -82 32 -91 -6 -6 -47 -16
-90 -21 -49 -7 -89 -18 -105 -30 -14 -10 -27 -31 -29 -46 -2 -16 4 -36 14 -47
14 -15 25 -18 58 -12 23 3 65 14 95 24 30 9 60 15 66 12 7 -2 16 0 20 6 3 6
27 11 53 11 27 0 57 7 70 16 13 9 22 26 22 41 0 15 -13 47 -29 72 -16 25 -32
57 -36 69 -4 13 -16 33 -26 43 -10 10 -19 26 -19 34 0 8 -4 15 -10 15 -5 0
-10 6 -10 14 0 8 -7 22 -16 30 -8 9 -17 30 -19 48 -3 17 -27 71 -54 121 -28
49 -52 101 -54 117 -3 15 -12 43 -22 63 -9 19 -18 41 -19 49 -1 7 -10 29 -18
49 -9 20 -24 38 -35 41z"/>
</g>
<g>
<path d="M3379 5689 c-2 -1 -31 -11 -65 -24 -33 -12 -67 -22 -75 -23 -8 0 -63
-8 -124 -17 -60 -9 -120 -14 -134 -12 -13 3 -38 1 -55 -4 -17 -4 -53 -11 -81
-14 -27 -3 -108 -10 -180 -16 -71 -6 -143 -10 -159 -9 -16 0 -32 -4 -36 -10
-4 -6 -49 -12 -101 -15 -86 -4 -96 -6 -116 -30 -13 -14 -23 -32 -23 -39 0 -7
9 -22 20 -34 16 -17 28 -20 67 -16 27 2 111 12 188 20 77 9 172 16 210 15 39
-1 94 5 123 13 29 8 68 12 86 9 19 -3 65 2 104 11 39 9 88 16 109 16 21 0 64
8 95 18 32 10 60 21 64 25 4 4 17 7 29 7 13 0 28 7 35 15 7 8 20 15 29 15 9 0
22 5 29 12 7 7 12 19 12 28 0 9 -10 26 -23 38 -13 12 -25 21 -28 21z"/>
</g>
</g>
<g>
<path d="M7404 7797 c-13 2 -31 -7 -47 -22 -17 -18 -27 -42 -32 -75 -4 -31 -2
-62 6 -84 9 -24 22 -39 41 -45 15 -5 40 -8 54 -5 15 3 40 14 55 25 16 11 34
32 41 47 7 15 18 27 23 27 6 0 12 -22 15 -50 5 -50 5 -50 49 -59 37 -8 46 -7
57 9 13 17 15 17 32 2 10 -9 28 -17 39 -17 11 0 28 9 38 20 13 14 16 28 11 55
-4 20 -13 35 -21 35 -8 0 -16 4 -19 9 -4 5 1 22 11 38 10 19 14 38 9 56 -5 22
-12 27 -36 27 -18 0 -34 -8 -44 -22 -10 -13 -13 -32 -9 -47 3 -14 13 -34 21
-44 14 -16 14 -20 -7 -40 -21 -21 -23 -21 -32 -4 -6 10 -22 23 -36 28 -20 7
-23 13 -15 21 7 7 12 19 12 28 0 9 -9 25 -19 34 -16 14 -24 15 -40 6 -17 -8
-27 -8 -49 4 -15 9 -40 21 -57 27 -16 7 -39 14 -51 16z"/>
</g>
<g>
<path d="M5608 7738 c-59 0 -108 -2 -110 -3 -2 -2 -17 -6 -33 -9 -17 -3 -57
-15 -90 -28 -33 -12 -62 -25 -65 -29 -3 -4 -17 -10 -31 -14 -14 -3 -46 -24
-72 -46 -25 -22 -60 -61 -78 -86 -17 -26 -33 -62 -36 -80 -3 -18 -10 -36 -14
-39 -5 -3 -9 -15 -9 -27 0 -12 -10 -42 -21 -67 -11 -25 -27 -76 -36 -115 -8
-38 -17 -104 -19 -145 -2 -41 2 -97 8 -125 6 -27 21 -73 33 -101 12 -28 46
-75 74 -104 28 -29 51 -57 51 -62 0 -5 19 -34 42 -64 24 -30 60 -62 83 -73 22
-11 67 -28 100 -38 49 -15 90 -18 229 -16 168 2 170 3 193 28 13 14 30 25 39
25 8 0 51 18 97 39 45 21 96 49 112 62 17 13 53 47 80 75 33 35 61 78 83 127
18 42 36 97 41 124 5 26 8 80 7 118 -2 39 -7 91 -11 117 -4 26 -14 53 -21 59
-8 6 -14 23 -14 38 -1 14 -7 55 -15 91 -7 35 -20 69 -29 76 -9 6 -16 15 -16
19 0 4 -24 33 -52 64 -29 31 -79 73 -112 93 -32 20 -70 39 -85 43 -14 3 -44
14 -66 24 -22 10 -60 26 -85 34 -30 10 -81 15 -152 15z m9 -124 c39 -2 100
-16 165 -39 56 -20 122 -47 145 -61 24 -14 43 -31 43 -39 0 -8 -8 -18 -17 -24
-13 -7 -18 -22 -18 -56 0 -40 5 -51 31 -75 24 -21 39 -26 60 -23 16 3 37 12
46 20 15 14 18 13 23 -13 4 -16 16 -56 27 -89 12 -33 23 -92 26 -132 2 -39 1
-92 -2 -116 -7 -45 -7 -45 -42 -41 -19 2 -65 -5 -102 -16 -37 -12 -85 -26
-107 -32 -22 -7 -54 -22 -71 -35 -21 -15 -31 -32 -31 -49 0 -14 9 -31 20 -39
12 -8 32 -15 44 -15 12 0 37 9 55 20 18 11 41 20 51 20 10 0 35 9 57 20 22 11
44 20 50 20 5 0 10 -4 10 -10 0 -5 -16 -28 -36 -50 -20 -22 -61 -53 -92 -70
-30 -16 -61 -30 -68 -30 -6 0 -17 -6 -23 -14 -7 -8 -38 -17 -69 -21 -31 -3
-73 -6 -92 -7 -19 0 -72 3 -116 7 l-81 7 -7 -26 c-3 -14 -12 -26 -20 -26 -7 0
-28 5 -47 11 -19 6 -43 14 -54 19 -11 4 -27 10 -36 13 -9 3 -46 45 -82 94 -36
48 -74 99 -85 113 -10 14 -26 52 -35 86 -9 33 -17 89 -17 125 0 35 11 111 25
169 14 58 39 133 56 168 16 34 40 78 54 98 13 19 39 46 58 58 19 13 52 29 73
35 22 7 48 17 59 22 11 5 40 13 65 18 25 5 73 7 107 5z"/>
<g>
<path d="M5671 7328 c-29 -1 -56 -5 -60 -8 -4 -3 -13 -15 -20 -27 -6 -12 -11
-30 -11 -41 0 -10 10 -27 23 -38 12 -11 33 -25 47 -30 14 -6 32 -9 40 -7 8 2
25 18 38 36 12 18 22 44 22 58 0 13 -7 32 -14 42 -10 13 -26 17 -65 15z"/>
</g>
<g>
<path d="M5927 7260 c-7 0 -24 -8 -35 -19 -12 -10 -22 -24 -22 -30 0 -7 20
-37 46 -68 l45 -56 -30 -28 c-17 -15 -31 -37 -31 -48 0 -12 9 -30 20 -41 12
-12 33 -20 53 -20 21 0 36 7 45 20 7 11 23 20 36 20 13 0 28 6 33 13 6 6 13
23 16 36 3 13 1 33 -4 44 -6 11 -31 46 -55 78 -25 32 -58 67 -73 79 -16 11
-36 20 -44 20z"/>
</g>
</g>
<g>
<path d="M7020 7729 c-25 0 -71 -6 -103 -13 -31 -7 -63 -18 -69 -24 -7 -7 -19
-12 -28 -12 -9 0 -29 -10 -43 -23 -15 -12 -27 -29 -27 -38 0 -8 -4 -19 -9 -24
-4 -6 -14 -48 -20 -95 -10 -66 -10 -92 -1 -112 7 -15 31 -34 59 -47 25 -11 71
-30 101 -41 32 -11 80 -20 113 -20 33 0 71 7 89 16 17 9 41 28 54 42 13 15 24
33 24 40 0 6 4 12 9 12 4 0 16 19 25 43 9 23 16 61 16 82 0 22 -9 57 -20 78
-11 20 -20 44 -20 52 0 8 -24 30 -52 50 -42 28 -62 35 -98 34z m-59 -129 c43
0 49 -3 63 -31 12 -24 13 -35 5 -45 -6 -8 -15 -14 -19 -14 -5 0 -14 16 -20 35
-6 19 -17 35 -23 35 -7 0 -27 -4 -45 -9 -17 -5 -32 -6 -32 -2 0 4 5 12 12 19
7 7 33 12 59 12z m-101 -90 c4 0 17 -11 30 -25 13 -14 32 -25 42 -25 10 0 18
-6 18 -14 0 -8 10 -22 22 -30 12 -9 19 -18 17 -21 -3 -3 -27 1 -53 9 -26 8
-58 22 -71 30 -15 10 -25 26 -25 40 0 12 3 26 7 29 3 4 9 7 13 7z"/>
</g>
<g>
<path d="M7472 7541 c-30 6 -38 3 -85 -39 -29 -25 -53 -49 -55 -53 -2 -4 2
-34 7 -66 6 -32 16 -60 22 -62 6 -2 20 -12 31 -23 16 -16 27 -18 75 -12 31 3
71 16 89 28 22 14 35 32 40 53 6 32 6 32 23 12 9 -11 39 -26 68 -33 l52 -14
36 39 c26 29 35 48 35 75 0 19 -4 43 -10 53 -5 10 -23 21 -41 25 -17 3 -48 3
-70 0 -32 -6 -40 -12 -49 -40 -7 -19 -16 -34 -21 -34 -5 0 -9 -8 -9 -17 -1
-14 -6 -11 -25 12 -14 17 -25 35 -25 41 0 7 -12 20 -27 29 -15 10 -42 21 -61
26z m-16 -113 c9 -1 22 -11 28 -20 5 -9 7 -20 3 -25 -5 -4 -16 -2 -25 3 -9 6
-19 19 -20 28 -3 12 2 17 14 14z"/>
</g>
<g>
<path d="M7661 7189 c-25 -1 -63 -5 -84 -9 -20 -4 -47 -16 -60 -26 -12 -11
-42 -33 -66 -49 -23 -16 -47 -40 -52 -54 -6 -13 -7 -31 -4 -39 3 -8 -1 -20 -9
-26 -11 -9 -12 -25 -5 -86 8 -59 15 -80 34 -97 13 -13 43 -29 67 -37 24 -8 86
-17 139 -21 87 -6 100 -4 135 15 21 12 47 29 57 38 9 8 17 21 17 27 0 7 7 18
16 26 12 10 15 26 11 73 -3 44 -16 84 -43 141 -27 56 -49 87 -73 103 -24 15
-48 22 -80 21z m-70 -153 c18 -3 38 -6 45 -6 8 0 14 -5 14 -11 0 -6 -11 -8
-27 -5 -16 3 -35 0 -45 -8 -10 -7 -21 -27 -24 -43 -4 -19 -1 -33 6 -38 7 -4
33 -9 58 -11 26 -3 61 -6 77 -8 17 -1 32 -6 35 -11 3 -4 -6 -16 -20 -26 -21
-16 -36 -18 -98 -12 -56 5 -78 11 -97 29 -18 16 -25 34 -25 59 0 27 4 35 18
35 9 0 25 14 35 31 15 28 21 31 48 25z"/>
</g>
<g>
<path d="M6936 7150 c-8 0 -18 -5 -22 -11 -3 -6 -30 -26 -59 -44 -35 -23 -56
-45 -65 -67 -6 -18 -17 -44 -24 -57 -6 -13 -11 -52 -10 -87 0 -57 4 -67 36
-106 25 -30 54 -50 95 -67 32 -12 67 -27 78 -31 11 -5 39 -11 63 -13 24 -3 56
-1 73 3 16 5 45 22 64 38 20 16 44 46 55 67 11 21 18 41 16 44 -2 3 -1 26 4
50 4 25 4 71 0 104 -6 40 -16 68 -32 84 -13 14 -40 36 -62 50 -32 21 -45 24
-86 18 -35 -5 -56 -2 -78 9 -17 9 -38 16 -46 16z m47 -151 c5 0 6 -12 2 -28
-5 -25 -2 -33 19 -46 14 -9 33 -15 43 -13 10 2 24 16 31 31 11 22 11 31 2 43
-7 7 -8 14 -3 14 5 0 16 -6 25 -12 8 -7 18 -21 21 -30 3 -9 -1 -22 -9 -28 -8
-7 -14 -19 -14 -27 0 -7 -9 -23 -20 -35 -11 -12 -20 -29 -20 -39 0 -9 7 -22
15 -29 8 -7 15 -16 15 -20 0 -4 -20 -4 -45 1 -25 5 -58 15 -74 24 -17 8 -36
15 -42 15 -7 0 -21 7 -31 17 -12 11 -18 30 -18 62 0 28 7 54 18 68 9 12 31 24
47 26 17 2 34 5 38 6z"/>
</g>
<g>
<path d="M7482 6044 c-37 2 -92 1 -122 -3 -30 -4 -77 -15 -105 -25 -27 -9 -66
-24 -85 -32 -19 -9 -53 -24 -75 -34 -22 -11 -59 -22 -82 -26 -30 -5 -44 -12
-49 -26 -3 -11 -12 -17 -19 -14 -7 2 -25 -15 -43 -42 -16 -26 -33 -58 -37 -72
-4 -14 -16 -45 -27 -70 -13 -27 -21 -68 -22 -106 0 -36 4 -67 11 -76 7 -8 10
-18 6 -21 -3 -4 -6 -44 -5 -90 0 -59 6 -94 21 -127 11 -25 37 -61 58 -81 21
-20 65 -55 98 -77 33 -22 71 -43 85 -47 14 -4 39 -15 56 -25 16 -9 68 -29 115
-43 46 -14 109 -28 139 -32 30 -4 75 -9 99 -11 26 -2 68 5 102 16 32 11 82 35
113 53 37 23 72 56 106 102 27 37 50 73 50 80 0 7 7 18 15 25 8 7 15 22 15 34
0 11 7 35 16 51 12 22 16 55 15 125 0 52 -7 124 -15 160 -8 36 -19 81 -24 100
-5 20 -22 55 -38 79 -16 24 -36 55 -44 67 -8 13 -42 47 -75 75 -33 29 -88 65
-123 81 -43 20 -83 30 -130 32z m-93 -114 c3 0 34 -4 69 -9 34 -5 83 -19 107
-31 25 -12 47 -26 50 -30 3 -5 -3 -15 -13 -22 -10 -7 -24 -23 -31 -36 -10 -19
-10 -29 3 -56 8 -18 27 -38 41 -44 14 -7 35 -12 45 -12 11 0 25 9 32 20 7 11
18 20 24 20 6 0 21 -21 33 -47 12 -27 23 -55 25 -63 1 -8 8 -35 16 -60 7 -25
12 -84 12 -132 -1 -48 -6 -105 -13 -128 -7 -22 -18 -45 -26 -51 -7 -6 -13 -17
-13 -24 0 -7 -7 -18 -15 -25 -9 -7 -14 -18 -12 -23 2 -6 -35 -31 -82 -54 -84
-43 -87 -44 -161 -38 -41 3 -86 7 -100 8 -14 2 -49 11 -79 20 -29 9 -96 37
-150 63 -67 32 -109 60 -139 92 -24 25 -50 62 -59 81 -10 23 -17 76 -19 146
-3 94 -1 112 15 130 10 11 30 42 45 68 15 26 41 63 58 82 16 19 35 35 41 35 5
0 24 11 42 24 17 13 49 32 71 41 21 9 59 21 84 26 25 6 53 12 64 15 10 2 21 6
24 9 3 3 8 5 11 5z"/>
<g>
<path d="M7348 5894 c-21 5 -34 -1 -62 -28 -26 -24 -36 -42 -36 -63 0 -24 6
-33 29 -43 18 -7 46 -9 69 -5 29 4 42 13 51 31 6 14 11 33 11 43 0 10 -8 28
-17 39 -10 11 -30 23 -45 26z"/>
</g>
<g>
<path d="M7439 5759 c-2 0 -15 -6 -29 -12 -14 -6 -31 -20 -39 -30 -8 -11 -38
-46 -67 -79 -37 -41 -54 -69 -54 -87 1 -14 7 -37 14 -49 7 -13 32 -39 55 -57
26 -21 48 -31 60 -28 11 3 31 22 45 44 14 21 26 41 26 43 0 3 -15 9 -32 14
-25 6 -34 14 -36 33 -2 17 11 39 47 79 28 30 51 64 51 76 0 11 -8 28 -18 37
-10 10 -20 17 -23 16z"/>
</g>
<g>
<path d="M7215 5400 c-12 0 -28 -6 -34 -14 -7 -8 -11 -29 -9 -47 2 -26 8 -32
28 -35 14 -1 41 -11 60 -23 19 -11 49 -23 65 -27 17 -3 47 -9 69 -11 26 -4 41
-1 47 8 4 7 4 19 -2 25 -5 6 -7 18 -4 25 3 8 1 19 -3 25 -4 6 -17 16 -29 23
-12 6 -33 11 -47 11 -13 0 -45 9 -71 20 -26 11 -57 20 -70 20z"/>
</g>
</g>
<g>
<path d="M5615 5934 c-22 3 -51 1 -65 -4 -14 -4 -38 -8 -54 -9 -16 -1 -43 -12
-60 -25 -18 -13 -40 -25 -50 -27 -11 -2 -58 -40 -106 -84 -47 -44 -103 -104
-123 -133 -21 -29 -38 -65 -39 -80 -1 -15 -8 -37 -16 -49 -7 -12 -18 -68 -23
-125 -6 -57 -8 -125 -4 -153 3 -27 16 -67 27 -87 12 -21 25 -38 29 -38 4 0 22
-26 40 -57 18 -31 57 -81 88 -109 36 -35 73 -59 110 -72 31 -11 89 -28 130
-37 61 -15 99 -17 210 -11 120 5 142 9 196 35 36 16 80 48 105 75 24 26 57 66
72 89 15 23 35 65 44 92 9 28 20 55 24 60 4 6 11 33 14 60 4 28 2 82 -3 122
-6 39 -18 93 -27 120 -8 26 -29 75 -46 108 -17 33 -49 84 -70 113 -22 29 -47
56 -55 59 -9 3 -35 26 -59 50 -24 23 -53 43 -64 43 -11 0 -37 9 -57 20 -21 11
-45 20 -54 20 -9 0 -29 7 -45 14 -16 8 -47 17 -69 20z m-30 -127 c39 -2 79 -9
90 -15 11 -6 29 -13 39 -17 18 -5 16 -8 -12 -25 -24 -15 -32 -27 -32 -49 0
-16 8 -39 18 -51 9 -11 31 -23 47 -24 16 -2 40 0 54 5 21 9 23 14 19 59 l-5
49 30 -21 c17 -12 45 -38 64 -58 19 -19 39 -45 46 -56 7 -12 29 -53 49 -92 28
-53 34 -72 25 -80 -7 -5 -22 -13 -34 -16 -12 -4 -47 -37 -79 -74 -32 -37 -69
-78 -82 -92 -14 -14 -28 -35 -33 -48 -5 -13 -9 -36 -9 -52 0 -24 5 -31 26 -36
15 -4 38 -3 52 2 16 6 37 30 56 66 17 31 55 80 84 109 l52 52 0 -54 c0 -30 -7
-75 -15 -101 -7 -26 -25 -67 -39 -90 -14 -24 -39 -57 -56 -75 -17 -18 -45 -39
-63 -47 -17 -7 -85 -19 -150 -25 -74 -6 -127 -7 -142 -1 -14 5 -25 7 -25 3 0
-3 -9 2 -20 12 -14 13 -28 16 -50 11 -21 -4 -43 0 -68 13 -20 11 -53 35 -72
54 -19 19 -43 45 -52 58 -10 13 -33 44 -52 69 -18 25 -37 59 -41 75 -5 17 -8
59 -8 95 1 36 8 92 17 124 9 33 24 74 33 93 10 18 54 69 98 114 44 45 100 95
125 111 41 27 51 29 115 25z"/>
<g>
<path d="M5818 5560 c-78 0 -88 -2 -102 -22 -9 -12 -16 -28 -16 -35 0 -6 18
-20 40 -29 30 -13 39 -22 35 -35 -3 -10 -3 -29 1 -43 3 -15 14 -30 23 -35 9
-5 30 -6 48 -4 24 4 38 15 54 42 11 20 27 40 35 44 8 5 14 24 14 47 0 29 -6
43 -22 54 -16 12 -47 16 -110 16z"/>
</g>
<g>
<path d="M5539 5530 c-8 0 -32 -11 -54 -23 -34 -19 -40 -27 -40 -56 0 -28 6
-38 30 -51 17 -10 47 -19 67 -22 31 -3 38 0 47 20 6 12 11 38 11 56 0 21 -8
40 -23 54 -13 12 -30 22 -38 22z"/>
</g>
</g>
<g>
<path d="M6565 4004 c-36 3 -74 0 -95 -7 -19 -7 -46 -10 -60 -7 -14 3 -50 2
-80 -3 -30 -5 -73 -10 -95 -12 -22 -2 -58 -9 -80 -15 -22 -6 -69 -17 -104 -25
-35 -8 -72 -21 -81 -30 -9 -8 -30 -15 -47 -15 -16 0 -41 -9 -54 -21 -13 -11
-42 -29 -64 -39 -22 -10 -49 -28 -59 -39 -11 -12 -28 -21 -39 -21 -10 0 -33
-8 -50 -17 -17 -10 -52 -34 -77 -53 -25 -19 -85 -73 -133 -120 -49 -47 -93
-87 -100 -89 -6 -2 -20 -14 -31 -26 -12 -13 -34 -40 -51 -60 -16 -21 -37 -45
-46 -54 -10 -9 -24 -33 -32 -53 -8 -20 -13 -39 -10 -41 2 -3 -4 -10 -15 -16
-12 -6 -22 -26 -26 -52 -4 -23 -20 -62 -37 -86 -16 -25 -39 -70 -50 -101 -11
-31 -34 -97 -51 -147 -21 -62 -34 -130 -43 -216 -7 -70 -12 -154 -10 -187 3
-33 5 -64 6 -68 1 -5 -1 -17 -5 -26 -5 -10 -5 -41 -2 -70 3 -29 7 -71 10 -93
2 -22 8 -60 13 -85 5 -25 12 -50 15 -56 4 -5 9 -30 13 -54 3 -25 15 -85 26
-134 10 -49 26 -100 34 -112 8 -13 15 -31 15 -40 0 -9 27 -72 59 -140 33 -68
67 -127 75 -130 9 -3 16 -12 16 -18 0 -7 17 -28 38 -47 20 -19 55 -49 77 -67
22 -18 51 -42 65 -53 14 -11 45 -35 69 -52 24 -18 63 -42 85 -55 22 -12 50
-31 61 -41 11 -9 49 -38 85 -62 36 -25 79 -50 95 -56 17 -7 77 -26 135 -44 58
-18 110 -36 116 -41 6 -4 33 -15 60 -22 27 -8 94 -15 149 -15 55 -1 179 -12
277 -26 103 -15 216 -24 272 -23 53 0 122 5 153 10 32 5 66 13 75 18 10 6 23
10 29 10 6 0 37 11 68 25 32 15 61 35 66 48 6 12 23 28 40 37 16 8 35 21 43
28 7 6 19 12 26 12 7 0 27 12 45 27 18 16 68 62 113 103 44 41 94 90 111 108
17 18 49 56 70 85 21 29 52 65 68 80 16 16 47 56 70 90 23 33 48 74 56 91 8
17 23 47 33 66 10 19 21 51 25 70 4 19 12 49 20 65 7 17 17 48 23 70 6 22 16
87 22 145 6 58 15 128 21 155 5 28 7 127 4 220 -2 94 -9 190 -15 215 -6 25
-14 74 -19 110 -5 37 -20 84 -34 110 -14 25 -33 65 -41 90 -8 25 -20 67 -26
95 -6 27 -15 52 -19 55 -4 3 -28 46 -53 95 -25 50 -53 108 -63 130 -10 22 -46
75 -79 118 -34 43 -68 91 -77 107 -9 16 -72 85 -141 153 -78 77 -143 132 -171
145 -25 12 -48 26 -52 32 -3 5 -14 10 -24 10 -10 0 -33 7 -52 17 -19 9 -45 25
-58 35 -13 10 -37 18 -53 18 -16 0 -27 4 -24 9 4 5 -11 12 -31 15 -21 3 -85
13 -143 21 -58 9 -123 20 -145 25 -22 5 -67 11 -100 14z m-63 -119 c68 -1 143
-7 168 -14 24 -7 74 -14 110 -16 36 -1 85 -8 110 -14 25 -7 59 -18 75 -26 17
-7 56 -25 87 -38 31 -14 83 -43 115 -65 32 -22 108 -90 170 -151 61 -61 136
-148 168 -193 31 -46 73 -107 94 -137 21 -29 44 -69 51 -90 7 -20 30 -72 50
-116 21 -44 43 -98 50 -120 7 -22 24 -67 38 -100 14 -33 29 -78 33 -100 4 -22
17 -78 29 -124 21 -79 22 -99 17 -315 -3 -127 -11 -256 -16 -286 -6 -30 -15
-56 -20 -58 -5 -2 -7 -12 -4 -22 3 -10 -5 -49 -16 -85 -12 -36 -34 -91 -50
-123 -16 -31 -36 -70 -44 -87 -9 -16 -39 -57 -66 -90 -28 -33 -68 -82 -90
-110 -21 -27 -69 -79 -106 -115 -36 -35 -71 -72 -76 -81 -5 -10 -35 -37 -66
-61 -32 -24 -72 -51 -88 -59 -17 -9 -50 -26 -74 -39 -24 -13 -63 -27 -85 -31
-23 -5 -70 -14 -106 -22 -36 -8 -85 -22 -110 -31 -25 -10 -53 -22 -63 -27 -11
-6 -52 -7 -100 -3 -45 3 -87 10 -92 15 -6 4 -44 15 -85 24 -41 9 -96 23 -121
32 -26 9 -54 13 -63 10 -11 -4 -16 -15 -14 -29 3 -22 0 -23 -61 -20 -35 2 -80
9 -100 16 -20 8 -61 24 -91 36 -30 12 -85 31 -121 40 -36 10 -81 26 -101 37
-19 10 -70 42 -112 71 -43 28 -80 52 -84 52 -3 0 -26 17 -51 38 -25 21 -64 50
-86 64 -22 14 -71 51 -110 83 -38 31 -76 69 -84 84 -8 14 -18 28 -22 31 -5 3
-27 42 -50 85 -22 44 -52 109 -65 144 -14 35 -34 101 -44 148 -11 46 -20 94
-20 106 0 12 -5 39 -10 59 -6 21 -16 43 -23 50 -7 7 -13 33 -15 58 -1 25 -3
113 -5 195 -1 83 2 191 6 240 4 50 10 106 14 125 3 19 9 40 13 45 4 6 20 48
35 95 15 47 32 90 37 97 5 7 7 17 3 23 -3 5 6 25 20 44 15 19 54 90 87 157 53
109 69 131 142 203 46 45 111 106 145 136 34 30 79 63 99 74 20 10 39 22 42
26 3 4 32 24 65 45 33 21 62 41 65 44 3 3 25 16 50 28 25 12 70 31 100 43 30
12 60 26 67 32 7 5 16 8 20 5 4 -3 46 2 93 10 47 8 111 17 142 20 31 2 62 10
67 17 8 9 45 12 133 11z"/>
<g>
<path d="M6293 3749 c-10 -1 -29 -6 -43 -11 -14 -6 -35 -26 -47 -45 -13 -19
-23 -43 -23 -54 0 -11 5 -29 10 -40 6 -10 17 -19 26 -19 8 0 26 -7 39 -16 21
-13 29 -14 62 -3 21 7 44 18 52 23 7 6 17 21 22 35 6 13 7 37 4 52 -4 17 -21
37 -45 53 -22 14 -48 26 -57 25z"/>
</g>
<g>
<path d="M7307 3449 c-18 -1 -43 -4 -56 -6 -14 -3 -40 -16 -58 -30 -20 -15
-33 -34 -33 -48 0 -12 10 -35 22 -50 12 -15 36 -34 54 -41 19 -8 42 -14 53
-14 11 0 34 14 51 32 18 17 36 42 41 55 5 13 9 28 9 33 0 5 -12 22 -26 39 -20
24 -33 31 -57 30z"/>
</g>
<g>
<path d="M6676 3369 c-12 -1 -31 -4 -43 -6 -13 -2 -23 -8 -23 -13 0 -5 -8 -11
-18 -14 -9 -3 -23 -20 -31 -36 -7 -17 -43 -64 -80 -105 -36 -40 -79 -91 -95
-112 -15 -21 -31 -43 -35 -48 -3 -6 -18 -18 -33 -28 -20 -13 -28 -26 -28 -47
0 -16 5 -32 10 -35 6 -3 10 -12 10 -18 0 -7 33 -46 73 -89 39 -42 81 -79 93
-82 14 -4 27 1 40 16 11 13 21 36 23 51 2 23 -7 38 -44 73 -25 24 -50 54 -54
67 -7 17 -2 30 20 58 16 20 29 40 29 43 0 3 10 18 23 33 12 15 40 47 62 72 23
26 64 74 93 107 29 34 52 68 52 76 0 8 -5 19 -12 26 -7 7 -21 11 -32 11z"/>
</g>
<g>
<path d="M6011 2420 c-3 0 -16 -8 -27 -18 -12 -9 -24 -31 -27 -48 -4 -23 -1
-36 11 -47 9 -8 34 -17 55 -21 20 -4 37 -11 37 -16 0 -6 7 -10 16 -10 9 0 37
-11 63 -24 25 -13 64 -31 86 -41 22 -9 58 -26 80 -37 22 -12 47 -27 56 -34 8
-8 20 -14 26 -14 5 0 22 -11 36 -24 14 -13 40 -27 58 -31 17 -4 35 -3 39 1 5
5 13 27 19 48 9 33 8 43 -5 57 -9 10 -52 39 -97 66 -45 27 -111 62 -147 77
-36 16 -85 37 -110 49 -25 11 -72 30 -104 43 -33 13 -62 24 -65 24z"/>
</g>
</g>
<g>
<path d="M2420 3849 c-107 -1 -215 -5 -240 -10 -25 -6 -74 -14 -110 -19 -36
-5 -82 -12 -103 -16 -20 -3 -40 -10 -43 -15 -3 -5 -13 -9 -22 -9 -9 0 -44 -11
-77 -24 -33 -13 -121 -47 -195 -76 -74 -29 -151 -61 -170 -73 -19 -11 -71 -48
-115 -81 -44 -33 -125 -99 -180 -147 -55 -47 -135 -123 -178 -168 -42 -44 -77
-85 -77 -90 0 -5 -9 -13 -21 -16 -11 -4 -27 -21 -34 -39 -8 -18 -21 -38 -30
-46 -8 -7 -39 -45 -69 -84 -29 -39 -57 -82 -61 -96 -4 -14 -15 -36 -25 -50
-10 -14 -27 -46 -39 -72 -19 -43 -24 -47 -49 -42 -15 3 -34 0 -42 -8 -9 -7
-25 -44 -37 -83 -12 -38 -26 -88 -32 -110 -6 -22 -18 -71 -26 -110 -9 -38 -21
-90 -27 -114 -6 -25 -11 -85 -11 -135 0 -50 5 -129 11 -176 5 -47 18 -121 27
-165 10 -44 20 -82 24 -85 4 -3 16 -27 26 -55 11 -27 20 -59 21 -70 1 -11 24
-61 50 -112 27 -51 72 -129 99 -174 28 -44 68 -98 89 -118 22 -20 57 -54 78
-76 22 -22 57 -59 79 -83 23 -23 47 -42 55 -42 8 0 34 -10 57 -22 23 -12 49
-25 57 -29 8 -5 46 -27 85 -49 38 -23 82 -44 97 -47 16 -3 31 -10 34 -14 3 -5
17 -9 32 -9 15 0 65 -16 112 -35 47 -19 100 -35 117 -35 18 0 54 -5 80 -11 27
-7 66 -18 88 -26 31 -12 93 -15 275 -14 173 1 255 5 310 17 41 8 101 19 133
25 32 5 81 16 110 25 29 8 62 20 75 25 13 5 32 9 44 9 11 0 64 14 117 31 53
17 114 38 136 46 22 8 47 20 55 27 8 6 39 24 68 40 28 15 52 24 52 21 0 -4 16
2 36 14 19 12 39 21 44 21 5 0 39 17 75 37 37 21 74 43 83 48 10 6 33 21 52
34 19 14 73 59 119 100 46 42 96 94 110 116 14 22 36 60 48 85 13 25 23 50 23
57 0 6 6 18 13 25 6 7 31 54 54 103 23 50 49 122 57 160 9 39 18 117 21 175 2
58 7 137 10 175 4 46 1 87 -8 122 -7 28 -10 57 -6 65 4 7 1 67 -7 133 -7 66
-16 129 -18 140 -3 11 -12 38 -20 60 -8 22 -24 63 -36 90 -12 28 -27 61 -33
75 -5 14 -9 29 -8 33 1 5 -8 35 -20 68 -12 33 -26 62 -30 65 -5 3 -9 15 -9 26
0 12 -12 45 -26 74 -14 29 -32 58 -40 65 -8 6 -14 20 -14 31 0 10 -14 47 -31
81 -18 34 -49 87 -70 117 -21 30 -75 93 -121 140 -46 47 -103 102 -128 121
-25 20 -67 47 -93 60 -27 13 -60 30 -75 38 -15 8 -29 17 -32 21 -3 3 -23 15
-45 27 -22 11 -58 30 -80 41 -22 11 -58 25 -80 30 -22 6 -76 18 -120 26 -56
11 -138 15 -275 15z m-5 -125 c105 -2 213 -8 240 -15 28 -6 63 -13 80 -15 16
-2 39 -7 50 -10 11 -4 72 -33 135 -64 63 -32 131 -66 150 -76 19 -10 88 -71
153 -135 83 -83 127 -135 151 -181 18 -34 48 -90 66 -123 18 -33 50 -103 72
-155 21 -52 47 -117 57 -145 10 -27 28 -77 39 -110 11 -33 31 -90 45 -126 13
-36 29 -96 35 -135 6 -38 16 -123 22 -189 7 -66 12 -122 13 -125 0 -3 -3 -72
-7 -155 -4 -82 -14 -177 -22 -211 -7 -33 -21 -78 -29 -98 -9 -20 -29 -66 -45
-102 -17 -35 -30 -68 -30 -73 0 -4 -17 -34 -38 -67 -22 -32 -69 -88 -105 -124
-36 -36 -88 -82 -116 -102 -27 -21 -54 -38 -60 -38 -6 0 -11 -4 -11 -9 0 -4
-39 -27 -87 -51 -49 -23 -115 -55 -148 -70 -33 -16 -94 -45 -135 -64 -42 -20
-82 -36 -91 -36 -8 0 -23 -6 -34 -14 -11 -7 -47 -19 -80 -26 -33 -7 -85 -19
-115 -27 -30 -8 -107 -26 -170 -39 -63 -14 -124 -29 -135 -35 -11 -5 -29 -10
-40 -10 -11 0 -112 2 -225 5 -113 3 -223 10 -245 15 -22 5 -58 14 -80 20 -22
6 -58 11 -80 11 -23 0 -46 5 -53 12 -6 6 -28 18 -49 25 -21 8 -61 21 -90 28
-28 7 -78 25 -110 40 -32 15 -80 39 -108 53 -27 14 -75 37 -105 53 -37 18 -87
60 -152 128 -54 55 -98 104 -98 108 0 5 -10 19 -23 33 -12 14 -35 46 -50 73
-15 26 -32 47 -37 47 -6 0 -10 9 -10 19 0 11 -7 26 -15 35 -8 8 -15 18 -15 21
0 4 -10 28 -23 54 -13 25 -31 75 -41 110 -10 35 -26 77 -37 95 -10 17 -19 47
-19 67 0 20 -3 39 -7 42 -3 4 -8 29 -10 57 -2 27 -9 80 -16 117 -7 38 -10 81
-5 98 4 17 10 42 13 58 3 15 11 27 19 27 7 0 20 8 29 18 8 9 23 60 31 112 14
81 27 116 89 240 39 80 71 147 71 150 -1 3 10 21 25 40 15 19 33 45 41 56 8
12 35 50 59 85 25 35 50 69 56 74 6 6 42 47 80 93 37 45 71 82 74 82 3 0 40
30 82 68 42 37 89 79 105 93 16 14 57 44 89 66 33 22 76 56 96 76 19 19 51 38
69 42 19 4 50 16 70 26 19 9 64 29 100 44 36 14 74 30 85 35 11 5 40 17 65 26
25 8 70 20 100 26 30 6 59 14 65 19 5 5 23 9 40 9 16 1 57 7 90 14 40 8 123
11 250 10z"/>
<g>
<path d="M2952 3560 c-20 0 -42 -4 -47 -8 -6 -4 -24 -25 -40 -47 -16 -22 -30
-47 -30 -55 0 -8 7 -26 15 -40 8 -14 19 -28 25 -32 5 -4 35 -8 66 -8 30 0 62
6 71 13 8 6 22 23 32 37 9 13 16 35 16 49 0 14 -14 37 -36 57 -27 26 -44 34
-72 34z"/>
</g>
<g>
<path d="M2782 3099 c-4 0 -19 -8 -34 -17 -19 -12 -28 -25 -28 -43 0 -14 8
-33 18 -41 9 -9 62 -28 117 -43 55 -15 114 -33 130 -41 17 -7 43 -18 59 -24
17 -6 49 -23 73 -38 23 -15 45 -34 48 -43 3 -9 -1 -29 -10 -45 -8 -16 -15 -37
-15 -46 0 -9 -4 -19 -9 -22 -5 -3 -11 -15 -14 -26 -3 -13 2 -28 16 -40 12 -12
35 -20 53 -20 23 0 38 7 48 22 9 12 16 31 16 41 0 10 9 35 20 56 11 22 26 58
34 81 8 22 13 49 11 58 -2 9 -4 20 -4 25 -1 4 -6 7 -11 7 -6 0 -61 24 -123 54
-62 29 -146 63 -187 76 -41 13 -103 34 -138 47 -34 12 -66 23 -70 22z"/>
</g>
<g>
<path d="M2070 2623 c-30 3 -64 3 -75 0 -11 -2 -28 -20 -37 -39 -10 -19 -18
-52 -18 -74 0 -29 6 -43 22 -54 13 -10 44 -16 74 -16 47 0 55 3 84 37 29 32
32 41 27 80 -2 25 -9 48 -13 53 -5 5 -34 10 -64 13z"/>
</g>
<g>
<path d="M3597 2578 c-22 3 -36 -5 -60 -31 -18 -18 -41 -50 -52 -70 -11 -20
-48 -85 -82 -144 -34 -59 -63 -121 -64 -138 -2 -17 -20 -49 -41 -74 -21 -24
-51 -64 -68 -89 -22 -33 -28 -52 -23 -71 3 -14 8 -29 10 -33 2 -5 26 -8 53 -8
48 0 50 1 77 48 15 26 30 49 33 52 4 3 18 30 32 60 14 30 34 75 44 100 10 25
29 60 41 79 13 18 32 60 44 92 12 32 27 60 34 63 7 2 16 17 19 33 4 15 17 38
29 51 17 18 19 27 11 50 -7 19 -17 28 -37 30z"/>
</g>
</g>
</g>
</svg>
