<?xml version="1.0" standalone="no"?>
<!DOCTYPE svg PUBLIC "-//W3C//DTD SVG 20010904//EN"
 "http://www.w3.org/TR/2001/REC-SVG-20010904/DTD/svg10.dtd">
<svg version="1.0" xmlns="http://www.w3.org/2000/svg"
 width="1872.000000pt" height="1451.000000pt" viewBox="0 0 1872.000000 1451.000000"
 preserveAspectRatio="xMidYMid meet">
<metadata>
Created by potrace 1.16, written by Peter Selinger 2001-2019
</metadata>
<g transform="translate(0.000000,1451.000000) scale(0.100000,-0.100000)"
fill="#000000" stroke="none">
<g>
<path d="M12630 13109 c-14 0 -32 -3 -40 -6 -8 -3 -25 -15 -37 -26 -13 -11
-23 -30 -23 -42 0 -12 5 -36 10 -52 6 -17 22 -35 36 -42 14 -6 35 -11 48 -11
12 0 34 13 49 28 20 20 27 40 29 70 1 32 -4 45 -23 61 -13 11 -35 20 -49 20z"/>
</g>
<g>
<path d="M14142 12765 c-13 0 -38 -10 -55 -22 -17 -13 -34 -29 -39 -35 -4 -7
-8 -26 -8 -43 0 -16 4 -35 8 -41 4 -6 17 -16 29 -23 12 -6 34 -11 50 -11 15 0
37 8 49 18 12 9 28 35 36 57 10 25 13 48 7 62 -4 12 -18 25 -31 29 -13 4 -34
8 -46 9z"/>
</g>
<g>
<path d="M12666 12749 c-11 0 -26 -3 -33 -5 -7 -3 -44 -38 -84 -77 -40 -40
-81 -82 -93 -94 -11 -13 -27 -23 -35 -23 -8 0 -23 -7 -33 -17 -10 -9 -28 -22
-41 -29 -12 -7 -44 -24 -72 -38 -45 -22 -68 -26 -230 -34 -99 -5 -182 -8 -185
-6 -3 1 -44 6 -90 10 -47 4 -101 8 -120 8 -19 0 -66 -3 -105 -6 -38 -4 -104
-7 -145 -8 -56 0 -83 -5 -107 -20 -30 -18 -32 -22 -22 -47 7 -16 13 -132 16
-278 2 -137 5 -296 6 -353 l2 -103 -47 -30 c-27 -16 -48 -33 -48 -39 0 -5 -8
-10 -18 -10 -11 0 -27 -9 -37 -20 -10 -11 -24 -20 -30 -20 -7 0 -33 -22 -59
-50 -25 -27 -46 -53 -46 -58 0 -5 7 -15 15 -22 8 -7 15 -16 15 -20 0 -4 44
-52 98 -106 53 -55 115 -125 137 -157 22 -32 51 -79 64 -105 14 -28 25 -67 26
-97 1 -27 7 -72 13 -100 6 -27 19 -81 27 -120 9 -38 20 -72 24 -75 4 -3 17
-50 30 -105 12 -55 24 -106 27 -113 2 -7 14 -16 28 -21 17 -7 42 -4 86 10 34
10 89 19 123 19 59 0 61 -1 96 -42 20 -23 63 -68 96 -100 33 -32 78 -70 100
-85 22 -15 60 -42 84 -60 24 -18 62 -38 85 -44 23 -5 59 -19 81 -30 22 -10 87
-30 145 -43 58 -14 142 -28 187 -31 71 -6 83 -10 89 -28 4 -11 8 -100 10 -196
2 -97 4 -186 4 -198 0 -12 4 -24 9 -27 4 -3 6 -17 3 -31 l-4 -25 -172 -1 c-94
-1 -256 -1 -361 0 -104 1 -222 4 -262 7 l-71 6 -10 -36 c-6 -19 -33 -62 -60
-93 -27 -32 -56 -76 -63 -98 -7 -22 -21 -49 -30 -60 -9 -11 -22 -30 -28 -42
-6 -12 -11 -33 -11 -46 0 -14 -7 -30 -15 -37 -8 -6 -14 -15 -13 -18 1 -4 -6
-32 -16 -62 -11 -30 -25 -64 -32 -75 -7 -11 -15 -37 -18 -57 -2 -20 -9 -52
-15 -70 -5 -18 -15 -53 -22 -78 -6 -25 -13 -56 -15 -70 -2 -14 -8 -50 -13 -80
-6 -30 -17 -91 -26 -135 -8 -44 -19 -100 -24 -124 -5 -25 -7 -51 -4 -58 3 -7
0 -13 -6 -13 -6 0 -11 -17 -11 -37 0 -21 -9 -82 -20 -136 -11 -55 -23 -103
-26 -109 -4 -5 -19 -7 -35 -4 -16 3 -62 1 -102 -4 -39 -5 -137 -12 -216 -15
-80 -4 -153 -11 -162 -16 -10 -5 -57 -9 -106 -9 -48 0 -137 -7 -198 -16 -60
-9 -146 -17 -190 -19 -44 -2 -129 -7 -190 -10 -60 -3 -182 -8 -270 -11 -88 -2
-221 -5 -295 -5 -74 -1 -146 3 -160 8 -14 5 -38 7 -55 3 -16 -3 -49 -2 -73 2
-30 5 -54 3 -76 -6 -24 -10 -35 -22 -39 -42 -3 -16 -1 -34 4 -41 6 -6 27 -14
47 -17 20 -4 128 -11 239 -16 192 -10 205 -12 275 -41 40 -17 84 -39 98 -48
14 -9 34 -22 45 -29 11 -7 34 -19 50 -28 17 -8 40 -21 53 -28 12 -7 57 -46
100 -87 42 -41 82 -81 87 -90 6 -9 45 -47 88 -85 50 -43 99 -99 132 -149 29
-44 83 -110 121 -147 38 -37 80 -75 94 -85 14 -10 36 -24 50 -32 13 -8 49 -20
80 -27 30 -7 69 -13 87 -14 18 0 54 7 80 15 26 9 72 23 102 33 30 9 65 27 77
40 13 12 28 22 34 22 6 0 33 16 61 35 34 23 63 35 85 35 22 0 34 -5 34 -13 0
-8 8 -21 18 -30 11 -10 36 -17 60 -17 29 0 56 9 84 26 23 15 49 35 58 45 14
17 18 17 55 3 22 -8 63 -22 90 -30 28 -8 68 -20 90 -25 22 -6 62 -12 88 -13
35 -2 50 2 57 13 9 14 12 14 25 -3 11 -14 16 -48 17 -115 1 -53 3 -118 4 -146
1 -27 5 -111 8 -185 4 -74 10 -178 15 -230 5 -52 10 -158 12 -235 1 -77 1
-189 -1 -250 -2 -60 -4 -137 -4 -170 1 -33 4 -122 7 -197 4 -84 2 -140 -4
-143 -5 -4 -6 -11 -3 -17 4 -5 -1 -36 -10 -67 -10 -31 -24 -77 -32 -103 -8
-25 -28 -127 -44 -225 -17 -98 -37 -203 -45 -233 -8 -30 -18 -95 -21 -145 -3
-49 -8 -97 -11 -105 -3 -8 -7 -53 -9 -100 -3 -47 -6 -97 -8 -113 -1 -15 -6
-30 -9 -34 -4 -3 -7 -19 -7 -34 0 -15 6 -53 14 -83 8 -30 21 -70 29 -88 8 -18
17 -42 20 -53 3 -11 15 -47 27 -80 11 -33 27 -73 34 -90 8 -16 17 -48 19 -70
3 -22 12 -57 21 -78 9 -20 26 -74 37 -120 11 -45 24 -98 29 -117 4 -19 14 -51
21 -70 7 -19 18 -44 25 -55 6 -11 17 -52 24 -92 6 -40 20 -88 30 -108 10 -20
21 -59 25 -88 3 -29 13 -68 21 -88 10 -23 26 -39 47 -47 28 -11 35 -9 69 13
34 23 36 27 31 62 -4 21 -19 66 -34 101 -16 34 -36 84 -45 110 -8 26 -17 55
-20 66 -2 10 -13 37 -25 60 -12 22 -28 59 -36 81 -8 22 -16 47 -18 55 -2 8
-13 49 -25 90 -12 41 -25 93 -31 115 -5 22 -19 72 -30 110 -12 39 -25 80 -30
93 -5 12 -13 32 -18 45 -5 12 -23 74 -40 137 -18 63 -37 131 -43 151 -9 28 -9
59 1 125 6 49 23 161 37 249 13 88 26 169 28 180 2 11 17 65 34 120 17 55 33
118 36 140 2 22 16 72 31 110 15 39 31 90 35 115 5 25 11 53 15 63 5 11 18 17
39 17 17 0 69 -7 116 -15 47 -8 103 -16 125 -19 22 -2 69 -9 105 -16 36 -6 85
-15 110 -20 25 -5 83 -14 130 -21 46 -6 88 -13 92 -15 5 -3 21 -8 36 -10 15
-3 70 -14 122 -24 52 -11 135 -24 185 -29 49 -6 130 -18 180 -26 49 -9 124
-23 165 -31 41 -8 78 -18 82 -22 5 -5 10 -46 12 -92 2 -47 7 -92 11 -102 3 -9
-1 -46 -10 -83 -9 -36 -14 -76 -11 -88 3 -11 0 -27 -6 -34 -8 -10 -8 -20 0
-39 8 -15 8 -31 3 -42 -5 -9 -14 -57 -20 -107 -6 -49 -15 -153 -21 -230 -5
-77 -8 -178 -6 -225 2 -47 7 -104 13 -127 6 -24 22 -61 37 -83 14 -22 26 -45
26 -52 0 -7 7 -22 15 -32 8 -11 15 -27 15 -36 0 -8 9 -32 20 -53 12 -21 30
-64 41 -95 11 -31 35 -91 53 -132 19 -41 41 -97 50 -125 9 -27 16 -58 16 -68
0 -10 6 -28 14 -40 8 -12 27 -58 41 -102 15 -44 34 -104 41 -134 8 -29 17 -86
20 -125 3 -39 7 -91 9 -116 2 -31 10 -50 25 -62 12 -10 33 -18 45 -18 13 0 31
8 40 17 13 13 15 26 10 57 -4 23 -11 60 -15 84 -4 23 -4 45 0 47 5 3 4 24 -1
47 -6 24 -17 58 -25 76 -8 18 -22 63 -30 100 -9 37 -15 78 -15 91 1 12 -5 37
-13 55 -7 17 -22 59 -31 94 -10 35 -22 65 -27 68 -4 3 -8 16 -8 29 0 13 -9 48
-19 77 -11 29 -27 80 -36 113 -9 33 -20 65 -25 70 -4 6 -10 24 -13 40 -3 17
-11 53 -17 80 -6 28 -15 59 -20 70 -4 11 -17 57 -29 101 -12 45 -19 94 -16
110 3 16 10 115 16 219 6 105 12 242 15 305 2 63 6 124 9 135 2 11 7 82 10
157 4 75 9 158 13 185 l7 48 80 40 c44 22 99 46 121 53 22 6 49 21 59 32 10
11 26 20 35 20 10 0 35 7 56 16 20 9 111 51 201 95 90 43 170 79 177 79 8 0
18 4 21 10 3 6 13 10 22 10 8 0 37 11 65 25 27 14 52 25 54 25 2 0 4 -7 4 -15
0 -9 9 -15 24 -15 16 0 32 -10 44 -27 10 -16 34 -57 53 -92 19 -35 46 -77 62
-93 15 -16 27 -34 27 -40 0 -5 14 -26 30 -45 17 -18 30 -43 30 -54 0 -11 5
-30 11 -42 7 -12 33 -52 59 -88 38 -53 50 -78 55 -121 5 -36 3 -63 -5 -78 -6
-12 -16 -65 -21 -118 -5 -53 -14 -111 -19 -128 -6 -18 -15 -54 -20 -80 -5 -27
-17 -87 -28 -134 -11 -47 -20 -102 -20 -122 0 -21 4 -38 8 -38 5 0 10 -10 12
-23 2 -15 11 -23 29 -25 20 -2 32 5 52 32 17 21 27 47 27 68 0 19 7 43 15 56
11 15 16 44 15 99 -1 43 4 101 9 128 5 28 19 88 31 135 11 47 25 112 30 145 5
33 10 87 11 120 2 44 -3 71 -19 101 -11 22 -28 46 -36 53 -9 8 -32 41 -53 75
-20 33 -46 72 -58 86 -12 14 -53 77 -90 140 -37 63 -78 132 -91 152 -13 21
-24 41 -24 46 0 5 19 14 43 21 23 7 60 23 82 36 22 12 58 26 80 30 22 3 107
34 190 66 82 33 156 66 165 73 8 7 24 16 35 19 11 3 57 20 101 39 45 19 93 41
106 50 14 9 48 23 76 32 29 8 65 21 80 29 15 7 51 25 80 40 l52 27 0 -50 c0
-28 -4 -58 -9 -68 -5 -9 -13 -28 -19 -42 -5 -14 -14 -47 -20 -75 -6 -27 -16
-81 -23 -120 -6 -38 -19 -90 -28 -115 -9 -25 -16 -47 -16 -50 -1 -3 -7 -23
-14 -45 -8 -22 -17 -45 -22 -51 -5 -5 -16 -37 -25 -70 -9 -32 -19 -76 -21 -98
-3 -21 0 -50 7 -65 7 -14 19 -38 26 -53 8 -14 14 -31 14 -37 0 -6 21 -33 48
-59 26 -26 70 -63 97 -82 28 -18 70 -51 95 -72 25 -21 65 -58 88 -81 24 -23
69 -67 99 -98 l56 -56 -6 -139 c-3 -96 -13 -174 -30 -254 -14 -63 -27 -142
-28 -175 -1 -33 3 -72 9 -86 6 -15 18 -29 27 -33 9 -3 28 -6 41 -6 15 0 27 7
30 18 3 9 10 26 15 37 5 11 9 31 9 45 -1 14 1 79 3 145 3 66 12 156 22 200 9
44 19 126 22 183 5 100 4 105 -23 143 -15 22 -58 69 -96 105 -39 36 -83 73
-98 83 -16 9 -61 49 -102 88 -40 39 -97 100 -125 136 -29 36 -53 75 -53 86 0
12 4 29 9 39 5 9 16 44 26 77 9 33 21 69 26 80 4 11 11 36 15 55 4 19 7 38 6
42 -1 4 3 19 8 34 6 14 15 69 20 122 6 52 14 100 20 107 5 6 16 38 23 71 8 33
19 69 24 80 6 10 27 67 47 127 33 96 36 115 33 190 -2 46 -8 90 -12 97 -5 8
-10 73 -13 144 -2 72 -3 232 -2 356 1 124 3 286 3 360 1 74 -2 186 -6 249 -6
102 -5 115 10 127 14 11 15 16 5 22 -9 6 -10 16 -1 40 6 18 13 32 16 32 3 0
38 -16 77 -36 39 -20 98 -57 131 -82 33 -25 76 -62 96 -81 20 -20 62 -67 94
-106 32 -38 67 -75 77 -81 10 -5 15 -13 11 -17 -4 -4 5 -20 20 -35 15 -15 53
-55 84 -90 32 -34 94 -100 138 -146 45 -46 92 -89 105 -96 14 -7 34 -25 45
-39 11 -14 44 -52 72 -83 29 -32 53 -61 53 -65 0 -5 7 -16 14 -26 8 -10 20
-15 30 -11 9 3 16 10 16 16 0 5 -14 30 -32 56 -18 26 -41 56 -51 67 -10 11
-27 34 -38 51 -11 18 -31 39 -44 48 -14 9 -25 21 -25 27 0 6 -14 28 -31 48
-17 20 -64 70 -103 111 -39 41 -103 111 -142 155 -39 44 -81 96 -94 115 -13
19 -36 49 -51 65 -15 17 -45 51 -66 77 -21 25 -65 66 -98 91 -33 25 -100 68
-148 96 -49 27 -105 56 -125 62 -21 7 -57 21 -81 31 -24 11 -53 18 -65 17 -11
-1 -40 3 -64 10 -23 6 -82 13 -130 14 -48 1 -152 -1 -232 -5 -81 -4 -158 -3
-175 2 -16 5 -84 16 -150 25 -66 9 -151 21 -189 26 -37 5 -83 18 -101 29 -18
11 -43 20 -55 20 -13 0 -32 7 -42 17 -15 14 -24 14 -58 4 -29 -8 -42 -19 -46
-36 -5 -19 -15 -26 -43 -31 -20 -3 -44 -8 -54 -11 -10 -2 -26 -13 -35 -24 -10
-10 -49 -30 -88 -45 -38 -14 -85 -31 -104 -37 -19 -6 -44 -18 -55 -28 -11 -10
-46 -32 -77 -48 -32 -17 -65 -31 -75 -31 -9 0 -49 -16 -90 -36 -40 -20 -79
-34 -86 -31 -9 3 -16 29 -21 69 -3 34 -10 99 -16 143 -5 44 -14 107 -19 140
-6 33 -18 101 -27 150 -8 50 -17 104 -18 120 -2 17 -8 64 -14 105 -6 41 -15
95 -21 120 -5 25 -18 90 -29 145 -11 55 -26 138 -33 185 -6 47 -22 118 -35
159 -13 41 -21 77 -19 81 2 4 0 24 -6 46 -5 21 -20 64 -31 94 -12 30 -27 62
-34 70 -6 8 -16 31 -22 52 -9 33 -7 40 27 87 20 27 53 77 74 109 28 44 37 69
37 101 0 24 -8 56 -17 73 l-18 29 36 33 c28 26 49 35 95 42 32 4 66 9 74 11 8
1 31 6 50 10 28 7 36 14 38 35 3 21 -6 32 -42 58 l-45 33 24 29 c17 20 24 40
23 60 -1 18 -10 34 -23 40 -11 6 -25 18 -32 27 -9 12 -8 24 3 50 8 18 14 35
14 37 0 2 -7 4 -15 4 -8 0 -15 9 -15 20 0 11 -7 23 -15 27 -9 3 -25 -3 -35
-12 -11 -10 -20 -24 -20 -30 0 -7 -7 -16 -16 -19 -9 -4 -22 -2 -28 3 -6 5 -22
11 -36 13 -17 2 -26 10 -28 25 -2 12 -10 27 -18 34 -8 7 -28 12 -45 11 -17 0
-38 -7 -48 -15 -9 -8 -40 -17 -68 -21 -34 -4 -61 -15 -76 -29 -21 -19 -25 -34
-31 -127 -3 -57 -10 -108 -15 -113 -5 -5 -26 -4 -47 2 -22 6 -54 11 -73 11
-26 0 -41 -8 -67 -37 -19 -20 -34 -43 -34 -50 0 -7 -4 -13 -8 -13 -4 0 -16
-15 -26 -32 -11 -18 -31 -48 -45 -67 -14 -19 -42 -64 -62 -100 l-36 -66 -59 1
c-32 0 -105 2 -160 3 -56 2 -105 6 -111 10 -5 3 -14 24 -21 46 -8 25 -14 115
-15 245 l-2 205 69 8 c38 4 89 17 115 28 25 12 64 27 85 35 22 8 74 35 118 61
60 35 112 81 231 202 84 86 158 170 166 188 10 24 20 32 49 37 20 4 87 10 149
15 61 5 116 12 121 15 6 3 72 8 146 10 75 1 140 6 144 10 4 4 6 57 6 117 -1
89 -5 114 -19 129 -12 13 -17 35 -17 67 1 26 -5 86 -13 133 -9 47 -17 92 -20
100 -3 8 -8 47 -11 85 -4 39 -6 87 -6 108 0 21 7 46 16 56 9 10 16 21 16 24 0
4 17 31 37 59 20 29 53 70 74 90 31 31 36 43 35 80 -1 38 -5 45 -33 58 -18 8
-33 23 -33 32 0 10 -13 24 -30 33 -16 9 -30 19 -30 23 0 5 -15 16 -32 25 -18
10 -46 25 -63 35 -28 17 -30 23 -36 98 -4 43 -14 133 -22 199 -9 66 -18 181
-20 257 -3 75 -8 142 -12 148 -6 10 -42 11 -149 6 -77 -4 -145 -10 -150 -13
-5 -3 -57 -6 -116 -6 -60 0 -112 3 -118 7 -6 3 -64 2 -131 -4 -66 -5 -150 -9
-187 -9 -49 1 -75 7 -101 23 -19 11 -52 36 -73 54 -20 17 -41 32 -46 33 -5 0
-36 20 -69 45 -33 24 -76 53 -96 63 -19 11 -41 27 -48 35 -8 9 -23 16 -35 15z
m-17 -129 c3 0 33 -16 66 -36 33 -20 62 -39 65 -43 3 -3 16 -12 30 -19 14 -7
36 -22 50 -33 l25 -19 -176 2 c-96 1 -180 -2 -186 -5 -6 -4 -18 -4 -26 -1 -9
3 -13 12 -10 19 2 8 39 41 81 75 41 33 78 60 81 60z m1183 -221 c63 1 68 -1
72 -21 3 -13 8 -50 12 -83 3 -33 8 -80 9 -105 2 -25 6 -101 10 -169 4 -69 4
-122 -1 -120 -5 3 -31 18 -57 34 -26 17 -93 64 -148 105 -55 41 -126 93 -158
115 -32 22 -81 60 -109 85 -28 25 -74 62 -102 83 -27 21 -50 43 -50 48 0 5 24
10 53 10 28 1 99 1 157 1 58 -1 137 2 175 7 39 4 100 9 137 10z m-1042 -35
c207 -1 265 -4 310 -18 30 -9 82 -36 115 -60 33 -25 86 -64 118 -88 31 -24 75
-57 97 -75 22 -17 57 -41 77 -54 21 -12 49 -32 63 -44 14 -13 63 -49 110 -80
47 -32 99 -70 115 -86 17 -15 49 -37 72 -49 23 -12 56 -37 72 -55 25 -29 30
-44 35 -112 3 -43 11 -96 17 -118 6 -22 15 -80 21 -128 9 -74 8 -91 -5 -105
-8 -9 -24 -35 -35 -57 -10 -22 -32 -62 -46 -90 -15 -27 -40 -66 -55 -85 -15
-19 -31 -47 -34 -62 -4 -14 -19 -40 -33 -57 -14 -17 -29 -31 -34 -31 -4 0 -6
15 -4 33 1 17 5 77 9 133 4 75 2 113 -9 145 -7 24 -19 85 -25 134 -6 50 -22
119 -36 155 -14 36 -37 88 -50 115 -14 28 -48 83 -76 122 -28 40 -85 104 -127
143 -42 38 -84 70 -93 70 -10 0 -21 4 -24 10 -3 5 -52 32 -109 59 -56 26 -136
55 -177 64 -41 9 -126 21 -189 28 -64 6 -131 9 -150 6 -19 -3 -78 -13 -130
-22 -52 -9 -115 -22 -140 -30 -25 -8 -68 -22 -96 -33 -28 -11 -67 -22 -87 -26
-19 -4 -46 -15 -58 -25 -13 -10 -49 -27 -79 -39 -31 -11 -74 -30 -96 -41 -23
-12 -51 -33 -64 -46 -13 -14 -29 -25 -35 -25 -7 0 -30 -19 -52 -42 -22 -24
-75 -74 -117 -113 -51 -46 -86 -86 -102 -119 -13 -27 -27 -65 -30 -85 -4 -20
-10 -40 -14 -46 -4 -5 -15 -41 -25 -80 -9 -38 -20 -96 -25 -127 -4 -31 -7
-120 -5 -197 1 -77 -2 -138 -6 -135 -5 3 -9 11 -9 18 0 7 -9 21 -20 31 -11 10
-20 22 -20 28 0 5 -11 23 -25 41 -14 17 -35 42 -45 54 -15 18 -20 39 -20 80 0
32 -4 73 -9 92 -5 19 -12 100 -16 180 -6 143 -5 146 17 167 13 11 37 28 53 36
17 8 40 26 53 40 13 13 22 29 20 35 -2 5 14 22 35 36 21 14 42 26 47 26 5 0
17 10 27 23 10 12 26 27 34 32 9 6 34 22 55 36 21 14 70 56 109 93 38 36 74
66 79 66 5 0 37 25 70 55 34 31 112 102 174 158 63 56 122 108 132 115 12 9
63 16 132 20 62 4 228 7 368 6z m-978 -39 c252 0 314 -3 306 -12 -6 -7 -15
-13 -21 -13 -6 0 -48 -35 -93 -77 -45 -43 -102 -94 -125 -113 -23 -19 -57 -50
-75 -67 -18 -18 -36 -33 -39 -33 -4 0 -21 -12 -38 -27 -17 -16 -50 -47 -73
-70 -24 -24 -48 -43 -53 -43 -5 0 -13 -9 -16 -21 -4 -11 -22 -27 -41 -35 -19
-8 -46 -28 -61 -44 -14 -17 -32 -30 -38 -30 -7 0 -18 -7 -25 -15 -7 -8 -16
-15 -21 -15 -4 0 -10 24 -13 53 -3 28 -8 137 -10 240 -3 126 -1 196 6 213 8
17 8 31 0 48 -9 20 -8 27 5 37 8 8 36 16 62 19 25 3 188 5 363 5z m964 -306
c11 1 47 -4 80 -10 32 -6 70 -11 84 -11 14 0 59 -8 100 -18 41 -10 116 -40
165 -66 50 -26 108 -61 130 -77 22 -17 62 -54 88 -81 26 -28 64 -76 84 -106
20 -30 49 -84 65 -120 16 -36 33 -74 38 -85 5 -11 14 -45 21 -75 6 -30 15 -64
19 -75 5 -11 12 -56 16 -100 4 -44 7 -89 7 -100 -1 -11 -6 -69 -12 -130 -6
-60 -14 -123 -17 -140 -3 -16 -9 -39 -14 -50 -4 -11 -13 -40 -20 -65 -7 -24
-35 -83 -63 -130 -28 -47 -78 -113 -111 -147 -33 -35 -65 -71 -71 -81 -5 -11
-33 -39 -61 -63 -28 -24 -71 -61 -95 -81 -24 -20 -55 -45 -69 -55 -14 -11 -54
-31 -90 -46 -36 -15 -101 -35 -146 -46 -64 -15 -91 -17 -135 -9 -30 5 -58 9
-64 9 -5 0 -23 -3 -39 -7 -15 -4 -60 -1 -100 5 -39 6 -100 19 -136 27 -36 8
-79 19 -96 23 -18 5 -46 16 -64 25 -18 9 -38 16 -45 16 -6 0 -51 26 -98 58
-48 31 -122 92 -166 135 -44 42 -99 108 -124 145 -24 37 -62 101 -84 142 -22
41 -46 98 -52 125 -7 28 -17 67 -22 87 -5 21 -14 85 -19 144 -6 66 -6 140 0
197 5 51 16 117 24 147 7 30 15 62 17 70 2 8 6 17 9 20 3 3 13 21 22 40 9 19
20 46 24 60 4 14 35 53 70 87 35 34 64 67 64 72 0 6 4 11 9 11 5 0 32 18 61
41 28 22 100 65 158 94 59 30 148 69 197 88 50 19 106 39 125 45 19 5 78 18
130 27 52 9 115 20 140 24 25 5 54 9 66 10z m1289 -345 c8 -4 15 -10 15 -15 0
-5 6 -9 13 -9 6 -1 30 -16 51 -34 l40 -34 -35 -46 c-19 -25 -40 -47 -46 -50
-9 -4 -13 5 -14 27 -1 18 -2 37 -3 42 -1 6 -5 29 -10 52 -4 24 -12 45 -17 49
-5 3 -9 9 -9 14 0 5 7 7 15 4z m-2774 -165 c3 1 9 -36 13 -81 3 -46 9 -112 13
-147 5 -52 3 -63 -8 -59 -8 2 -21 20 -31 39 -9 19 -34 48 -57 63 -22 15 -47
39 -57 53 -15 24 -15 27 2 44 11 9 42 33 69 53 28 19 53 35 56 35z m2751 -377
c3 -4 12 -53 18 -110 7 -57 10 -105 7 -108 -2 -3 -1 -22 5 -42 5 -20 15 -77
22 -127 8 -53 10 -95 5 -101 -5 -6 -60 -14 -127 -18 -64 -3 -146 -10 -182 -14
-36 -5 -75 -6 -87 -4 -13 2 -23 8 -23 12 0 5 7 15 15 24 8 8 15 19 15 25 0 5
25 33 55 62 30 28 55 60 55 70 0 9 17 39 37 66 20 26 55 80 78 118 23 39 44
77 48 85 4 8 13 24 19 35 7 11 17 23 23 27 5 4 13 4 17 0z m-2572 -302 c5 0
23 -20 39 -44 17 -24 48 -58 68 -74 23 -18 46 -50 58 -79 10 -26 32 -67 48
-91 16 -23 26 -49 23 -57 -4 -10 -21 -15 -55 -15 -27 0 -55 -2 -63 -5 -7 -2
-23 11 -35 31 -13 19 -23 42 -23 49 0 8 -4 16 -9 19 -4 3 -11 25 -15 48 -4 23
-11 47 -15 53 -5 5 -14 42 -20 82 -6 39 -11 74 -11 77 0 3 4 6 10 6z m2293
-960 c4 0 7 -9 7 -21 0 -11 -7 -35 -16 -52 -9 -18 -21 -40 -25 -49 -5 -10 -9
-23 -9 -29 0 -6 -7 -17 -15 -26 -9 -8 -22 -12 -30 -9 -8 3 -15 10 -15 16 0 6
13 32 28 58 15 26 37 62 47 79 11 18 23 33 28 33z m198 -20 c5 0 9 -2 9 -4 0
-2 -7 -7 -16 -10 -8 -3 -12 -2 -9 4 3 6 10 10 16 10z m-42 -30 c3 0 7 -17 8
-37 2 -31 -5 -44 -43 -85 -24 -26 -44 -51 -44 -56 0 -4 -16 -14 -35 -21 -19
-7 -40 -9 -45 -6 -7 4 7 27 34 55 26 27 46 54 46 60 0 5 16 28 36 50 20 22 39
40 43 40z m-432 -144 c8 -3 21 -6 28 -6 7 0 64 -43 127 -95 62 -52 121 -101
130 -109 10 -9 20 -26 24 -40 4 -19 -5 -38 -47 -91 -51 -65 -52 -66 -71 -48
-10 10 -27 34 -37 53 -15 29 -25 36 -62 42 -24 3 -82 7 -129 7 -47 1 -102 4
-123 8 -21 3 -41 12 -44 19 -3 7 10 35 29 61 18 26 38 54 45 63 6 8 35 43 64
78 33 41 57 61 66 58z m-1377 -324 c47 -4 108 -5 135 -4 28 2 151 3 275 3 124
0 281 -2 350 -5 69 -3 181 -10 250 -16 69 -5 148 -15 176 -20 28 -6 55 -10 60
-9 5 1 15 1 22 0 6 0 12 -6 12 -12 0 -6 -11 -25 -24 -42 -13 -18 -36 -57 -50
-88 -14 -31 -32 -61 -40 -68 -8 -7 -39 -49 -70 -95 -31 -46 -56 -88 -56 -93 0
-5 -9 -18 -20 -28 -11 -10 -20 -26 -20 -35 0 -10 -7 -20 -15 -24 -8 -3 -15
-12 -15 -19 0 -8 -10 -27 -22 -42 -12 -16 -35 -53 -51 -84 -17 -31 -37 -69
-45 -86 -8 -16 -22 -38 -30 -48 -9 -9 -27 -39 -41 -66 -14 -26 -33 -61 -43
-77 -9 -16 -39 -53 -67 -82 -28 -29 -51 -57 -51 -63 0 -6 -22 -32 -49 -58 -27
-25 -51 -55 -55 -66 -3 -12 -19 -29 -36 -38 -16 -10 -42 -35 -57 -55 -15 -20
-56 -65 -90 -99 -34 -35 -67 -63 -71 -63 -5 0 -20 -16 -33 -35 -13 -19 -27
-35 -31 -35 -3 0 -20 -12 -37 -26 -17 -14 -31 -33 -31 -42 0 -10 -43 -59 -96
-109 -53 -51 -99 -93 -104 -93 -4 0 -10 33 -14 73 -3 39 -6 137 -6 217 1 80
-4 206 -10 280 -6 74 -12 386 -13 692 -3 500 -2 558 12 562 9 2 54 1 101 -2z
m-251 -148 c2 -2 5 -95 6 -206 2 -112 6 -315 10 -453 4 -137 9 -302 12 -365 2
-63 5 -137 6 -164 2 -48 1 -49 -33 -61 -24 -8 -41 -9 -54 -3 -12 7 -51 6 -115
-1 -53 -7 -117 -14 -143 -17 -25 -2 -48 -1 -51 3 -2 5 6 87 18 183 13 96 33
227 45 290 12 63 28 142 36 176 8 33 14 70 14 82 0 12 9 41 19 64 11 24 35 88
55 143 19 55 38 115 42 134 3 19 12 48 20 66 7 17 20 37 28 45 9 7 16 18 16
24 0 6 14 23 32 38 18 14 35 25 37 22z m1603 -37 c5 -9 8 -76 7 -149 -1 -73
-1 -146 0 -163 1 -16 4 -160 6 -320 2 -159 6 -339 10 -400 4 -60 8 -245 11
-410 2 -165 6 -399 8 -520 2 -121 6 -236 9 -255 3 -19 8 -80 12 -135 3 -55 11
-120 16 -145 6 -25 18 -54 28 -65 9 -11 23 -42 29 -70 6 -27 14 -104 18 -170
3 -66 7 -130 9 -142 2 -12 8 -30 13 -40 6 -10 15 -64 22 -118 6 -55 15 -116
20 -135 5 -19 15 -87 21 -150 7 -63 13 -142 15 -175 1 -33 5 -162 9 -287 4
-125 8 -235 9 -245 1 -16 -7 -18 -71 -16 -40 1 -96 9 -125 17 -29 8 -109 20
-178 26 -69 6 -141 13 -160 16 -19 2 -42 7 -50 10 -8 3 -62 15 -120 26 -58 11
-127 23 -155 28 -27 4 -65 12 -83 18 -19 6 -91 14 -160 18 -70 4 -145 13 -167
21 -22 8 -49 16 -60 18 -11 2 -51 11 -90 19 -38 9 -83 16 -100 16 -16 0 -42
11 -56 23 -21 17 -28 34 -33 82 -4 33 -9 85 -12 115 -2 30 -6 226 -7 435 -2
209 -9 430 -15 490 -6 61 -14 169 -18 240 -3 72 -6 161 -5 199 1 37 -3 132 -9
210 -6 77 -13 185 -17 239 -3 54 -2 97 3 97 5 0 32 18 59 41 28 22 67 55 88
72 20 18 57 57 81 87 24 30 74 84 112 120 37 36 105 103 150 150 45 47 99 109
121 137 22 29 60 74 84 100 25 27 73 80 107 120 34 40 62 75 62 78 0 4 15 25
34 48 18 23 44 65 58 92 14 28 31 61 39 75 8 14 26 41 40 60 14 19 45 74 68
123 22 48 45 87 50 87 4 0 25 27 45 59 20 32 36 62 36 67 0 4 6 15 14 23 8 9
26 39 41 66 15 28 39 61 54 75 15 14 35 38 45 54 16 25 20 27 28 13z m178
-167 c5 0 15 -19 21 -42 7 -24 17 -49 22 -55 5 -7 22 -40 38 -74 16 -33 29
-71 29 -82 0 -12 7 -42 16 -67 9 -25 17 -61 19 -80 2 -19 8 -71 14 -114 6 -44
15 -93 20 -110 6 -17 17 -56 25 -86 9 -30 25 -106 35 -167 11 -62 23 -118 27
-124 4 -7 11 -49 15 -93 4 -45 10 -99 14 -121 3 -22 12 -69 20 -105 8 -36 19
-103 25 -150 5 -47 10 -90 10 -97 0 -6 -21 -19 -47 -28 -27 -10 -77 -31 -113
-48 -36 -16 -90 -36 -120 -43 -30 -8 -58 -14 -62 -14 -4 0 -6 15 -6 33 1 17 0
118 -1 222 -2 117 -8 224 -18 279 -13 72 -13 96 -4 123 7 18 10 46 7 61 -3 15
-9 72 -13 127 -4 55 -6 138 -5 185 1 47 4 193 6 325 3 132 8 264 11 293 4 28
10 52 15 52z m-1759 -1140 c4 0 11 -6 16 -12 4 -7 9 -69 10 -138 1 -69 4 -149
8 -178 6 -49 5 -54 -20 -73 -20 -17 -25 -29 -23 -53 2 -25 8 -32 31 -34 17 -2
27 -9 28 -20 0 -9 2 -71 4 -137 2 -107 1 -121 -16 -136 -10 -9 -40 -19 -65
-23 -37 -5 -59 0 -117 24 -40 16 -94 34 -122 41 -27 7 -59 16 -69 22 -11 5
-25 14 -30 19 -6 5 -19 14 -29 21 -12 8 -21 33 -26 71 -4 33 -9 155 -10 272
-2 166 1 219 12 247 8 19 19 37 24 40 5 3 67 9 138 12 71 4 133 9 138 12 5 3
30 7 55 10 26 3 49 7 51 9 2 2 8 4 12 4z m-603 -51 c43 1 62 -3 63 -11 0 -7 3
-31 6 -53 4 -22 6 -52 6 -67 -1 -16 -1 -101 -2 -190 0 -90 1 -207 4 -261 l4
-98 -32 -19 c-18 -11 -50 -20 -72 -20 -22 0 -51 -6 -65 -13 -14 -8 -48 -26
-77 -41 -28 -15 -57 -33 -63 -40 -6 -8 -31 -19 -55 -26 -25 -7 -48 -17 -51
-21 -3 -5 -16 -9 -29 -9 -13 0 -27 -4 -30 -10 -3 -5 -24 -10 -46 -10 -21 0
-47 4 -57 9 -9 5 -36 17 -59 27 -23 11 -75 51 -115 91 -40 39 -89 93 -108 120
-19 26 -109 122 -201 213 -91 91 -177 174 -190 186 -13 11 -48 37 -76 57 -29
21 -58 37 -65 37 -7 0 -24 9 -38 20 -14 10 -22 21 -20 24 3 2 37 7 75 10 39 3
120 10 180 16 61 5 169 12 241 14 71 3 143 10 158 16 15 5 56 10 91 10 35 0
108 5 162 11 54 5 166 14 248 18 83 4 178 9 213 10z m3677 -140 c11 0 29 -5
40 -12 11 -8 61 -19 110 -26 50 -7 131 -19 180 -27 50 -8 106 -19 125 -24 19
-6 48 -10 64 -10 16 0 103 -18 194 -40 91 -23 170 -44 175 -47 5 -3 -30 -21
-79 -40 -49 -19 -114 -43 -144 -54 -30 -11 -68 -27 -83 -35 -16 -8 -39 -14
-52 -14 -12 0 -44 -12 -70 -27 -26 -14 -84 -39 -129 -55 -44 -16 -118 -40
-164 -54 -46 -13 -100 -31 -120 -40 -20 -9 -68 -26 -107 -39 -38 -13 -86 -29
-105 -36 -19 -6 -44 -16 -55 -20 -11 -4 -58 -17 -105 -28 -47 -11 -164 -47
-260 -81 -96 -34 -209 -70 -250 -80 -41 -10 -95 -21 -120 -25 -25 -4 -50 -11
-56 -16 -7 -5 -28 -10 -48 -11 -20 -1 -36 -5 -36 -10 0 -4 -13 -8 -29 -8 -17
0 -33 -4 -36 -10 -3 -5 -17 -10 -31 -10 -14 0 -42 -9 -63 -20 -34 -17 -40 -18
-45 -4 -3 9 -6 94 -6 189 0 105 -4 176 -10 180 -5 3 -10 12 -10 19 0 7 11 18
25 24 14 7 45 14 68 18 23 3 74 14 112 25 39 11 91 27 118 36 26 8 54 12 62 9
12 -4 15 -25 15 -99 0 -65 5 -104 16 -125 13 -26 21 -32 49 -32 18 0 41 7 50
16 8 9 13 24 10 33 -3 10 -8 53 -10 97 -3 43 -8 98 -11 121 -5 36 -3 44 12 49
11 3 33 12 49 19 17 7 45 16 62 20 18 3 35 10 38 15 3 5 26 18 53 31 26 12 54
28 62 34 8 7 42 22 75 34 33 12 69 28 81 36 11 7 45 20 74 29 29 9 81 29 114
45 34 16 88 40 121 54 33 14 69 25 80 26z m974 -62 c12 1 21 -2 21 -8 0 -5
-12 -9 -26 -9 -14 0 -23 4 -20 8 2 4 14 8 25 9z m84 -207 c8 0 17 -10 21 -22
3 -13 6 -48 6 -79 0 -31 4 -78 9 -105 5 -27 10 -123 11 -214 1 -91 -2 -228 -6
-305 -4 -87 -2 -180 5 -245 6 -58 12 -161 12 -230 l1 -125 -42 -36 c-32 -27
-58 -40 -103 -49 -33 -6 -67 -16 -76 -20 -9 -5 -104 -52 -211 -103 -107 -52
-206 -98 -220 -102 -14 -4 -52 -20 -85 -35 -33 -16 -89 -40 -125 -53 -36 -14
-107 -42 -159 -61 -51 -20 -99 -36 -107 -36 -8 0 -24 -6 -37 -12 -12 -7 -25
-17 -28 -22 -4 -5 -31 -6 -61 -2 -30 4 -62 4 -71 0 -9 -3 -17 -16 -17 -28 0
-18 -9 -25 -51 -35 -28 -7 -61 -23 -75 -36 -13 -12 -44 -28 -69 -35 -25 -7
-45 -17 -45 -21 0 -5 -7 -9 -15 -9 -9 0 -39 -12 -68 -27 -28 -15 -55 -31 -58
-35 -3 -5 -59 -33 -124 -63 -66 -30 -126 -55 -134 -55 -8 0 -51 -17 -96 -39
-44 -21 -99 -46 -123 -55 -23 -9 -44 -16 -46 -16 -3 0 0 16 5 35 6 20 7 46 3
58 -4 12 -8 36 -10 52 -1 17 -3 76 -3 132 -1 56 -5 113 -11 127 -5 14 -12 92
-16 173 -3 82 -13 175 -21 208 -8 33 -17 85 -20 115 -2 30 -10 69 -18 85 -8
17 -17 66 -21 110 -4 44 -7 98 -6 120 1 22 -6 90 -15 150 -9 61 -20 115 -25
122 -7 8 1 14 26 19 20 3 36 9 36 13 0 4 26 12 58 19 31 7 69 18 83 26 14 7
43 16 65 20 21 4 80 20 129 36 50 16 131 41 180 56 50 15 169 53 265 84 96 32
202 72 235 89 33 17 70 31 83 31 12 0 30 4 40 10 9 5 38 18 64 30 26 11 71 26
100 34 29 8 73 21 98 30 25 9 51 16 58 16 7 0 41 13 75 29 34 15 82 34 107 40
25 7 59 17 75 23 17 5 53 17 80 25 28 9 73 26 100 38 28 13 93 44 146 69 53
25 116 53 139 61 32 11 46 12 56 4 8 -6 21 -9 30 -5 8 3 12 10 9 16 -3 5 0 10
8 10z"/>
<g>
<path d="M12960 11310 c-9 0 -20 -4 -25 -9 -6 -5 -66 -19 -135 -30 -69 -12
-143 -21 -166 -21 -32 0 -46 -6 -69 -30 l-29 -30 22 -47 c12 -27 24 -65 28
-85 3 -20 13 -39 21 -43 9 -3 99 -8 200 -11 159 -5 186 -4 208 10 21 14 25 24
25 64 0 27 -4 52 -9 58 -6 5 -11 40 -12 77 -2 56 -6 71 -23 83 -11 7 -28 14
-36 14z"/>
</g>
<g>
<path d="M12143 11259 c-15 -1 -75 -6 -133 -11 -58 -5 -141 -9 -185 -8 -69 1
-84 -2 -103 -20 -16 -16 -21 -28 -16 -43 3 -12 10 -26 14 -32 4 -5 11 -31 14
-57 4 -26 14 -55 23 -63 12 -13 47 -15 213 -15 145 1 201 5 209 14 6 7 12 47
15 90 3 43 1 86 -4 95 -5 9 -11 24 -14 34 -4 11 -15 17 -33 16z"/>
</g>
<g>
<path d="M12334 11060 c-17 0 -38 -7 -45 -16 -8 -10 -12 -37 -11 -73 1 -31 9
-94 17 -141 8 -47 14 -120 14 -163 -1 -55 4 -85 15 -102 11 -16 26 -25 43 -25
14 0 42 4 62 10 20 5 55 15 79 20 l43 11 -3 52 -3 52 -60 0 -60 0 -8 50 c-4
28 -12 78 -17 111 -6 34 -10 90 -10 126 0 36 -5 69 -12 76 -7 7 -26 12 -44 12z"/>
</g>
<g>
<path d="M12440 10393 c-64 5 -110 4 -119 -2 -8 -5 -19 -7 -25 -5 -6 2 -20 -3
-30 -11 -16 -12 -17 -18 -8 -27 7 -7 12 -20 12 -29 0 -9 7 -23 17 -30 10 -9
44 -15 92 -15 42 -1 135 -5 206 -9 l130 -7 18 32 c9 17 17 38 17 46 0 7 -12
22 -27 31 -20 13 -48 18 -103 18 -41 0 -122 4 -180 8z"/>
</g>
</g>
<g>
<path d="M11074 12700 c-14 0 -35 -11 -49 -26 -13 -14 -26 -43 -30 -65 -6 -35
-4 -42 19 -60 14 -11 26 -27 26 -34 0 -7 13 -16 28 -20 16 -3 40 -1 55 4 14 6
30 18 36 28 5 10 12 35 16 56 5 23 3 49 -5 67 -9 21 -19 30 -36 30 -12 0 -26
5 -29 10 -3 6 -17 10 -31 10z"/>
</g>
<g>
<path d="M14522 11690 c-15 0 -39 -11 -54 -25 -15 -14 -30 -41 -34 -61 -5 -29
-2 -40 17 -60 12 -13 33 -24 46 -24 13 0 39 6 57 14 19 8 37 19 41 25 3 7 4
29 0 50 -3 21 -15 48 -26 60 -11 11 -32 21 -47 21z"/>
</g>
<g>
<path d="M10805 11514 c-11 7 -33 10 -50 8 -16 -2 -38 -11 -49 -20 -10 -9 -24
-29 -32 -44 -8 -15 -14 -38 -14 -52 0 -14 9 -31 22 -40 13 -10 44 -16 75 -16
45 0 55 4 69 25 12 19 14 35 7 76 -5 35 -14 55 -28 63z"/>
</g>
<g>
<path d="M14377 10498 c-12 1 -37 -7 -55 -18 -18 -11 -32 -28 -32 -39 0 -11
-4 -22 -9 -25 -4 -3 -8 -18 -7 -33 1 -19 9 -31 26 -40 14 -7 39 -13 57 -13 22
0 38 8 52 26 12 15 21 38 21 51 0 14 -7 39 -15 57 -10 20 -23 32 -38 34z"/>
</g>
<g>
<path d="M6003 10443 c-15 2 -78 1 -140 -3 -61 -5 -128 -13 -148 -20 -20 -7
-65 -18 -100 -25 -49 -11 -76 -24 -126 -64 -35 -28 -78 -59 -96 -68 -17 -10
-52 -37 -77 -61 -25 -23 -46 -47 -46 -52 0 -5 -10 -15 -22 -21 -13 -7 -44 -35
-70 -62 -27 -28 -48 -53 -48 -57 0 -3 -20 -26 -45 -51 -24 -24 -45 -51 -45
-60 0 -9 -7 -22 -15 -29 -8 -7 -15 -21 -15 -31 0 -10 -4 -21 -10 -24 -5 -3
-19 -27 -30 -53 -12 -26 -29 -83 -39 -127 -10 -44 -24 -117 -31 -163 -7 -46
-10 -85 -7 -89 4 -3 1 -15 -5 -27 -7 -12 -13 -89 -14 -189 -3 -122 0 -179 10
-210 8 -23 17 -54 20 -70 4 -15 21 -60 40 -100 18 -39 39 -88 46 -107 8 -19
23 -46 34 -61 12 -14 34 -46 50 -72 17 -26 36 -47 43 -47 7 0 13 -3 13 -7 0
-5 38 -41 84 -81 l85 -74 -101 -96 c-56 -54 -145 -141 -197 -195 -53 -54 -105
-116 -116 -137 -11 -20 -28 -52 -39 -71 -10 -18 -25 -39 -33 -47 -9 -9 -33
-14 -66 -13 -29 0 -77 -4 -107 -9 -30 -6 -104 -15 -165 -20 -60 -6 -146 -17
-190 -25 -44 -8 -111 -17 -150 -20 -38 -3 -84 -8 -101 -11 -24 -3 -35 -12 -45
-35 -9 -24 -10 -36 -1 -50 7 -10 12 -23 12 -27 0 -5 -28 -31 -61 -57 -34 -27
-78 -74 -98 -104 -20 -31 -51 -72 -70 -91 -18 -19 -57 -62 -86 -95 -29 -33
-63 -80 -76 -105 -13 -25 -38 -68 -56 -97 -18 -29 -33 -57 -33 -63 0 -6 -8
-23 -17 -38 -9 -15 -35 -56 -57 -92 -23 -36 -47 -75 -54 -85 -6 -11 -17 -31
-22 -45 -6 -14 -17 -37 -25 -52 -8 -14 -15 -32 -15 -40 0 -8 -9 -34 -20 -59
-12 -24 -25 -51 -30 -59 -6 -8 -17 -28 -25 -45 -8 -16 -37 -94 -64 -172 -27
-77 -55 -170 -61 -205 -7 -34 -15 -67 -20 -73 -4 -5 -10 -23 -13 -40 -3 -16
-12 -50 -20 -75 -9 -25 -20 -63 -25 -85 -6 -22 -17 -58 -25 -80 -8 -22 -17
-56 -20 -75 -3 -19 -13 -62 -22 -95 -9 -33 -18 -75 -21 -94 -2 -18 -6 -37 -9
-41 -3 -4 -11 -79 -19 -166 -9 -100 -13 -227 -10 -344 2 -102 6 -196 9 -209 4
-15 0 -28 -12 -37 -10 -7 -25 -14 -34 -14 -9 0 -28 -9 -42 -20 -14 -11 -30
-20 -37 -20 -6 0 -30 -12 -53 -27 -23 -16 -49 -29 -57 -31 -8 -2 -28 -16 -45
-32 -16 -16 -52 -39 -80 -51 -27 -12 -59 -29 -70 -39 -11 -10 -46 -31 -77 -48
-32 -17 -70 -39 -85 -49 -15 -11 -50 -29 -78 -40 -27 -11 -72 -28 -100 -36
-27 -9 -79 -21 -113 -27 -35 -6 -78 -17 -95 -25 -18 -7 -66 -23 -107 -35 -41
-13 -79 -26 -85 -30 -5 -4 -32 -15 -60 -25 -27 -10 -55 -22 -62 -27 -7 -5 -44
-25 -83 -44 -40 -19 -86 -34 -105 -34 -18 0 -45 -6 -60 -14 -16 -8 -32 -21
-36 -28 -5 -7 -9 -25 -9 -40 0 -18 7 -31 21 -38 14 -8 19 -18 16 -33 -3 -12
-2 -89 3 -172 5 -82 13 -195 19 -250 7 -55 16 -116 22 -135 6 -20 11 -166 13
-330 2 -231 0 -301 -11 -322 -9 -18 -10 -29 -2 -33 7 -5 7 -11 0 -19 -8 -9 -2
-19 21 -37 18 -13 48 -33 68 -44 20 -11 58 -33 84 -50 27 -16 65 -44 85 -61
20 -17 61 -39 91 -49 30 -10 62 -22 70 -26 8 -5 22 -12 30 -16 8 -3 26 -14 40
-23 14 -9 50 -25 80 -35 30 -9 73 -25 95 -35 22 -9 94 -27 160 -39 66 -12 155
-29 198 -37 43 -9 93 -18 110 -21 18 -2 50 -9 72 -15 22 -5 56 -18 75 -28 19
-9 53 -20 75 -24 22 -4 74 -18 115 -31 41 -13 104 -31 140 -40 36 -9 72 -16
80 -17 8 0 40 -7 70 -15 30 -8 94 -23 141 -33 48 -10 96 -23 107 -29 11 -6 37
-11 57 -11 29 0 44 8 83 48 27 26 75 68 109 95 33 26 66 47 73 47 7 0 29 14
49 30 20 17 41 35 47 39 6 5 26 17 45 26 19 10 55 35 80 57 25 21 50 38 56 38
7 0 20 11 31 25 11 14 24 25 30 25 5 0 15 7 22 15 7 8 21 15 32 15 10 0 29 11
42 25 13 14 29 25 36 25 7 0 38 12 70 26 33 15 63 36 70 50 7 13 21 26 30 29
9 3 34 21 55 40 21 20 48 38 61 41 12 3 32 18 44 34 11 15 39 35 61 45 21 10
39 21 39 25 0 4 26 26 58 48 32 23 65 48 72 57 7 9 45 35 83 58 39 22 72 48
74 57 3 10 39 33 81 54 42 20 86 42 96 49 11 6 31 22 45 35 14 12 30 22 34 22
5 0 57 27 115 60 59 32 122 71 141 85 19 14 38 25 41 25 4 0 3 -19 -1 -42 -5
-24 -15 -78 -23 -121 -9 -42 -20 -86 -26 -96 -5 -11 -10 -38 -10 -60 0 -22 -4
-43 -10 -46 -5 -3 -10 -21 -10 -38 0 -18 -4 -48 -9 -67 -6 -19 -12 -53 -16
-75 -3 -22 -10 -58 -16 -80 -6 -22 -12 -47 -14 -55 -2 -8 -6 -26 -9 -40 -3
-14 -17 -77 -32 -140 -14 -63 -32 -128 -39 -144 -7 -16 -11 -34 -9 -41 3 -6
-3 -28 -11 -49 -9 -21 -18 -62 -21 -91 -5 -52 -5 -52 27 -59 17 -3 57 -6 89
-6 31 0 78 -7 105 -14 26 -8 73 -18 104 -22 31 -3 70 -12 87 -19 17 -7 51 -16
75 -20 23 -4 61 -17 82 -28 22 -11 61 -22 88 -25 l49 -5 0 39 c-1 22 0 48 2
59 2 13 -4 20 -17 23 -11 2 -29 7 -40 11 -11 5 -51 19 -89 30 -38 12 -76 26
-86 31 -9 5 -55 11 -101 14 -46 2 -117 13 -158 25 -41 11 -79 25 -85 31 -7 7
-6 25 2 55 7 25 12 58 12 73 0 15 11 72 24 127 13 55 31 120 41 145 9 25 18
56 20 70 1 14 13 72 25 129 12 56 19 109 16 117 -3 7 -1 26 4 41 4 15 21 80
36 143 15 63 34 159 43 213 14 87 19 100 41 112 14 7 65 30 113 51 49 20 106
50 128 66 21 15 43 28 48 28 5 0 16 -16 25 -35 9 -19 21 -35 26 -35 6 0 10 4
10 9 0 5 -6 11 -12 14 -7 2 -10 8 -5 12 4 5 18 -2 31 -14 14 -13 26 -38 29
-63 3 -22 10 -45 16 -51 6 -6 13 -8 16 -6 2 3 0 27 -5 55 -5 27 -14 67 -20 89
-6 22 -15 56 -20 75 -5 19 -11 105 -14 190 -3 85 -5 184 -5 220 0 36 1 90 1
120 0 30 0 75 -1 100 0 25 0 128 0 230 0 102 1 212 1 245 0 33 1 70 2 83 0 12
3 22 6 22 3 0 43 -7 90 -15 47 -7 119 -23 160 -34 41 -12 95 -26 119 -31 24
-6 52 -15 63 -21 11 -6 29 -12 40 -14 11 -3 23 -6 25 -9 3 -3 -5 -60 -16 -128
-12 -67 -26 -163 -31 -213 -5 -49 -16 -130 -24 -180 -8 -49 -22 -128 -30 -175
-8 -47 -26 -128 -41 -180 -15 -52 -31 -113 -36 -135 -6 -22 -19 -103 -30 -180
-11 -77 -36 -252 -55 -390 -19 -137 -39 -263 -44 -280 -5 -16 -10 -59 -11 -95
-1 -36 -1 -72 0 -81 0 -9 9 -20 19 -24 9 -4 35 -11 57 -15 22 -4 83 -19 135
-33 52 -14 132 -31 177 -38 67 -10 85 -10 98 1 14 12 14 15 0 30 -8 9 -15 22
-15 29 0 6 6 14 14 17 8 3 24 0 36 -6 16 -9 25 -8 36 1 8 6 12 14 10 16 -2 3
-22 9 -43 14 -21 5 -65 12 -98 15 -33 2 -91 11 -130 19 -38 8 -95 22 -125 32
l-55 18 2 50 c1 28 2 77 3 110 2 33 6 65 11 70 4 6 13 53 19 105 6 52 18 136
26 185 8 50 14 128 14 175 0 47 5 103 10 125 5 22 12 60 15 84 4 24 12 60 19
80 7 20 20 61 28 91 9 30 25 96 37 145 11 50 25 115 30 145 5 30 16 96 25 145
8 50 18 113 22 140 3 28 7 68 9 90 2 22 6 54 10 70 4 17 8 44 10 60 2 17 8 57
14 90 5 33 12 70 16 82 5 15 2 24 -12 31 -10 5 -54 13 -98 17 -44 3 -93 12
-110 20 -16 7 -61 23 -100 35 -38 12 -101 25 -140 27 -38 3 -74 9 -80 13 -5 5
-27 11 -48 15 -26 5 -42 15 -49 30 -8 18 -7 29 6 46 9 13 16 40 16 60 0 31 7
43 42 73 23 20 48 36 56 36 10 0 12 8 7 30 -4 19 -3 30 4 30 6 0 11 6 11 14 0
8 -7 16 -15 20 -8 3 -21 3 -29 0 -8 -3 -29 2 -48 12 -18 10 -58 18 -88 19 -30
2 -93 10 -139 19 -47 8 -89 20 -94 25 -5 5 -12 24 -17 42 -5 19 -20 77 -34
129 -15 52 -33 112 -41 133 -9 21 -13 42 -10 47 3 5 1 17 -4 27 -5 10 -21 61
-36 113 -15 52 -32 99 -36 105 -5 5 -9 19 -9 30 0 21 7 22 123 31 67 5 150 8
184 8 34 0 65 -2 68 -6 3 -3 -11 -29 -31 -59 -20 -30 -44 -62 -55 -72 -18 -17
-18 -19 -2 -42 10 -14 27 -27 38 -31 12 -3 63 -7 115 -8 52 -2 151 -9 220 -16
69 -6 247 -13 395 -15 149 -2 329 -6 400 -10 82 -4 141 -2 158 4 20 8 27 17
27 37 0 14 6 38 13 52 8 15 20 41 29 57 8 17 32 57 52 90 20 33 39 71 43 85 3
14 23 54 45 89 22 34 42 79 45 98 5 27 2 38 -10 45 -10 5 -14 15 -10 25 6 15
-3 15 -88 9 -52 -5 -107 -10 -124 -12 -16 -2 -64 -8 -105 -13 -41 -5 -193 -8
-337 -6 -145 2 -293 7 -330 11 -37 4 -73 13 -81 20 -7 8 -17 14 -21 14 -4 0
-47 -39 -94 -87 -48 -49 -94 -99 -103 -111 -11 -16 -23 -22 -37 -18 -11 2
-105 -2 -208 -9 -104 -8 -217 -19 -252 -25 -34 -5 -72 -10 -83 -10 -14 0 -24
8 -28 23 -3 12 -8 49 -12 82 -3 33 -8 63 -10 66 -2 3 -8 106 -14 228 -9 192
-8 225 5 251 8 16 15 42 15 57 1 15 7 48 14 73 7 25 17 56 23 70 6 14 23 59
38 100 15 41 34 100 43 130 9 30 19 57 23 60 3 3 9 26 13 52 4 26 11 50 16 53
4 3 13 33 19 67 6 35 20 95 32 133 11 39 25 90 29 115 5 25 18 71 30 103 17
45 30 63 60 82 21 13 42 29 46 36 4 7 -1 16 -10 21 -16 9 -16 11 0 29 13 14
14 22 6 32 -9 10 -25 12 -64 6 -29 -4 -96 -8 -148 -9 -52 -1 -122 -6 -155 -11
-33 -4 -112 -13 -175 -19 -63 -6 -151 -17 -195 -25 -44 -8 -99 -16 -122 -19
-24 -2 -43 -1 -43 3 0 4 13 27 28 52 16 24 59 73 95 109 36 36 74 72 84 81 10
8 40 39 67 68 27 29 66 64 87 78 21 14 47 40 58 59 l20 33 43 -19 c24 -11 53
-20 65 -20 12 0 35 -11 51 -25 17 -14 33 -25 37 -25 4 0 49 -16 99 -36 50 -21
127 -48 171 -61 44 -13 91 -26 105 -29 14 -2 40 -7 58 -10 19 -3 67 0 108 5
41 6 109 16 152 22 42 6 93 14 112 19 19 5 58 14 85 20 28 7 75 23 105 37 30
13 69 31 85 40 17 8 41 21 55 28 14 7 57 28 95 46 49 23 99 58 167 121 76 70
103 103 126 151 17 34 35 80 42 102 6 22 16 54 22 70 5 17 19 60 29 98 11 37
24 102 29 145 5 42 15 156 20 252 11 170 10 178 -14 285 -14 61 -29 126 -34
145 -5 19 -30 81 -55 137 -25 56 -66 131 -91 166 -25 35 -72 88 -104 118 -32
30 -83 73 -113 95 -30 23 -94 67 -142 98 -48 31 -104 63 -125 72 -20 9 -71 29
-112 45 -41 16 -88 29 -105 29 -16 0 -54 7 -82 14 -29 8 -95 14 -147 14 -52 0
-108 2 -123 5z m96 -107 c9 -3 50 -8 91 -11 41 -4 102 -13 135 -21 33 -8 92
-27 130 -41 39 -15 90 -37 115 -50 25 -13 54 -32 65 -42 12 -9 27 -20 35 -24
8 -4 24 -13 35 -19 11 -7 58 -44 104 -83 46 -38 108 -100 138 -137 30 -38 61
-85 70 -106 8 -20 28 -64 43 -97 15 -33 35 -82 43 -110 8 -27 23 -68 33 -90
15 -33 17 -67 17 -205 -1 -91 -6 -196 -12 -235 -6 -38 -16 -104 -21 -145 -6
-41 -14 -82 -17 -90 -3 -8 -7 -19 -7 -25 -1 -5 -7 -20 -14 -33 -7 -12 -10 -27
-7 -32 4 -6 -2 -30 -13 -53 -11 -23 -23 -56 -27 -73 -3 -17 -14 -42 -23 -54
-9 -13 -28 -34 -42 -46 -14 -13 -51 -45 -82 -73 -37 -32 -109 -76 -210 -125
-128 -64 -177 -82 -298 -112 -132 -33 -153 -36 -239 -30 -77 5 -96 9 -107 25
-8 11 -32 22 -55 26 -33 6 -53 20 -111 81 -39 40 -73 73 -77 72 -3 -1 -19 5
-34 12 -25 12 -31 11 -55 -7 -15 -11 -29 -28 -30 -37 -2 -10 4 -26 14 -37 16
-18 16 -19 -2 -19 -11 0 -60 14 -109 31 -49 17 -129 54 -177 81 -48 28 -88 54
-88 58 0 5 -9 12 -21 15 -11 4 -43 29 -69 55 -27 27 -66 75 -87 107 -21 32
-44 67 -51 78 -7 11 -20 36 -28 55 -9 19 -22 42 -29 50 -7 8 -16 31 -20 50 -4
19 -11 40 -15 45 -5 6 -14 64 -20 129 -7 69 -10 147 -5 185 4 36 8 80 9 96 2
17 6 50 11 75 4 25 9 63 10 85 0 22 9 72 19 110 10 39 32 98 47 132 16 35 29
65 29 67 0 3 13 25 30 49 16 24 36 50 45 57 8 7 15 17 15 22 0 6 12 22 28 37
15 15 54 56 86 89 33 34 63 62 67 62 4 0 28 17 53 38 24 20 64 52 89 70 24 17
51 32 60 32 9 0 31 9 50 20 19 11 56 27 83 34 27 8 123 17 214 21 91 4 167 9
169 11 3 2 12 2 20 0z m-491 -2547 c17 0 32 -1 32 -4 0 -3 -11 -22 -24 -43
-13 -20 -33 -46 -45 -56 -11 -11 -21 -26 -21 -35 0 -9 -16 -32 -35 -50 -20
-18 -45 -50 -56 -70 -11 -20 -46 -85 -79 -146 -33 -60 -66 -126 -75 -145 -8
-19 -18 -40 -22 -46 -5 -6 -16 -22 -26 -36 -9 -14 -42 -88 -73 -164 -30 -76
-71 -170 -90 -209 -19 -38 -34 -79 -34 -90 0 -12 -4 -25 -9 -30 -5 -6 -18 -39
-30 -75 -12 -36 -26 -78 -31 -95 -5 -16 -12 -47 -16 -68 -3 -20 -10 -40 -15
-43 -5 -3 -9 -12 -9 -20 0 -8 -9 -34 -20 -56 -11 -23 -20 -52 -20 -64 0 -13
-4 -25 -8 -28 -5 -3 -16 -40 -26 -83 -9 -43 -21 -92 -26 -109 -6 -17 -10 -38
-10 -46 0 -11 -12 -18 -37 -22 -21 -3 -94 -9 -163 -12 -69 -4 -159 -8 -200
-10 -41 -1 -88 -4 -105 -4 -16 -1 -97 -1 -180 0 -82 1 -179 -3 -215 -9 -36 -6
-91 -11 -124 -11 l-58 0 6 33 c4 17 8 39 10 47 2 8 6 22 9 30 3 8 11 49 16 90
6 41 13 107 16 145 3 39 8 104 11 145 3 41 14 100 24 130 10 30 22 91 25 135
4 44 9 94 12 110 3 17 9 55 13 85 5 30 15 82 23 115 8 33 24 98 36 144 11 46
21 97 21 113 0 16 9 54 20 85 11 32 20 72 20 90 0 19 11 50 24 71 13 21 37 47
52 57 15 10 38 30 51 46 19 22 34 28 76 32 28 2 99 12 157 21 58 9 206 27 330
40 124 13 234 26 245 29 11 2 47 8 80 11 33 4 101 14 150 22 50 8 133 19 185
24 52 5 120 14 150 18 30 5 70 10 88 11z m17 -189 c2 0 2 -16 0 -36 -3 -19
-12 -59 -21 -87 -9 -29 -20 -62 -25 -75 -5 -13 -9 -37 -9 -53 0 -17 -13 -71
-30 -121 -16 -49 -30 -97 -30 -106 0 -9 -6 -28 -13 -42 -7 -14 -19 -45 -26
-70 -7 -25 -17 -54 -21 -65 -4 -11 -15 -36 -23 -55 -8 -19 -18 -53 -22 -75 -4
-22 -17 -62 -30 -89 -13 -28 -21 -54 -18 -58 3 -5 -3 -18 -12 -28 -15 -17 -16
-29 -7 -106 5 -48 8 -93 5 -101 -3 -7 0 -20 6 -27 7 -8 12 -38 11 -68 -1 -29
2 -84 8 -123 5 -38 15 -98 22 -133 7 -35 10 -65 8 -68 -3 -2 -41 -11 -84 -18
-43 -8 -137 -17 -209 -21 -71 -3 -142 -8 -157 -11 -26 -5 -28 -3 -28 28 0 19
4 38 9 43 4 6 13 31 20 57 6 25 16 59 22 75 7 15 25 64 41 108 16 44 40 112
53 150 13 39 35 109 49 157 15 47 38 103 53 124 14 21 45 89 69 151 24 62 59
143 78 181 19 38 49 93 67 123 18 30 51 90 74 134 23 44 49 94 57 110 9 17 29
55 44 85 15 30 36 67 46 83 11 15 21 27 23 27z m-1693 -200 c5 0 6 -21 2 -47
-3 -27 -8 -51 -10 -54 -2 -4 -6 -27 -9 -50 -3 -24 -11 -66 -19 -94 -8 -27 -21
-81 -29 -120 -9 -38 -21 -95 -27 -125 -7 -30 -16 -73 -22 -95 -6 -22 -14 -67
-19 -100 -4 -33 -11 -71 -14 -85 -4 -14 -6 -46 -6 -72 0 -26 -4 -50 -10 -53
-5 -4 -9 -20 -9 -36 0 -17 -4 -38 -9 -47 -5 -9 -12 -64 -15 -122 -4 -58 -16
-170 -28 -250 -11 -80 -26 -152 -33 -160 -7 -9 -11 -29 -8 -47 3 -18 12 -38
19 -44 8 -7 36 -12 62 -13 26 0 85 6 132 13 47 7 198 17 335 22 138 5 277 11
310 14 33 3 80 10 104 16 25 5 71 9 103 8 32 -1 61 0 64 4 4 4 10 4 15 1 4 -2
6 -26 3 -52 -3 -26 -9 -76 -15 -112 -6 -36 -10 -119 -10 -185 1 -66 5 -185 9
-264 6 -118 5 -154 -8 -205 -9 -33 -22 -73 -27 -87 -8 -17 -24 -29 -51 -37
-21 -7 -46 -12 -53 -12 -8 0 -50 -14 -94 -30 -44 -17 -89 -35 -100 -40 -11 -5
-49 -21 -85 -35 -36 -15 -78 -32 -95 -39 -16 -7 -73 -29 -125 -49 -52 -20
-138 -50 -190 -67 -52 -18 -144 -49 -205 -70 -60 -20 -203 -83 -317 -139 -114
-55 -210 -101 -214 -101 -3 0 -39 -15 -78 -34 -39 -19 -78 -36 -86 -38 -12 -2
-15 10 -17 62 -1 36 -5 142 -7 235 -3 94 -8 220 -11 280 -4 61 -8 192 -10 292
-3 111 -1 185 5 188 6 3 10 23 10 43 0 20 9 91 19 157 10 66 28 147 39 180 11
33 32 96 46 140 15 44 26 88 26 97 0 10 6 37 14 60 8 24 24 77 36 118 12 41
33 104 47 140 14 36 31 81 39 100 7 19 16 46 19 60 4 14 31 75 60 135 29 61
63 130 74 155 11 25 37 72 56 105 19 33 43 76 53 95 9 19 22 41 29 48 6 6 15
22 18 33 4 11 21 42 38 67 17 26 49 70 71 97 22 28 43 52 46 55 3 3 39 47 80
98 41 50 78 92 82 92z m3272 -1252 c33 2 37 -1 31 -15 -4 -10 -16 -43 -27 -73
-10 -30 -25 -66 -31 -80 -6 -14 -29 -53 -49 -88 -21 -34 -38 -69 -38 -77 0 -8
-5 -15 -11 -15 -8 0 -9 13 -4 38 3 20 31 74 61 119 30 46 57 90 60 98 4 8 -1
26 -10 40 -15 23 -21 25 -65 19 -28 -4 -57 -2 -67 4 -17 10 -17 11 6 16 14 3
43 7 65 9 22 2 57 4 79 5z m-890 -8 c25 0 46 -4 46 -10 0 -5 -18 -10 -39 -10
-22 0 -43 5 -46 10 -4 6 12 10 39 10z m107 -7 c13 -4 18 -8 10 -11 -7 -2 -18
1 -23 6 -8 8 -4 9 13 5z m328 1 c30 -2 58 -7 64 -13 6 -6 -8 -12 -39 -17 -27
-5 -83 -8 -124 -7 -41 1 -100 3 -130 5 -30 3 -55 9 -55 14 0 5 52 12 115 15
63 3 139 5 169 3z m-567 -75 c4 1 10 -4 14 -10 3 -6 -9 -26 -27 -45 -18 -19
-41 -37 -51 -40 -14 -4 -18 -14 -16 -37 3 -30 7 -33 83 -59 50 -17 102 -28
139 -28 32 0 110 -5 173 -12 76 -8 108 -14 94 -20 -11 -4 -62 -5 -113 -3 -51
3 -113 7 -138 9 -25 2 -103 7 -175 11 -71 3 -140 8 -152 11 -13 2 -23 9 -23
15 0 5 15 25 33 44 17 20 59 64 92 99 33 36 63 65 67 65z m189 -29 c14 0 50
-7 80 -16 36 -11 90 -17 159 -17 58 0 141 8 185 17 44 9 116 16 160 16 44 0
86 -4 94 -9 11 -7 10 -14 -6 -37 -11 -16 -27 -46 -36 -66 -10 -20 -23 -40 -29
-44 -6 -4 -35 -6 -65 -5 -29 1 -75 9 -101 16 -26 8 -96 19 -157 25 -60 6 -122
13 -137 16 -15 3 -67 7 -115 9 -48 2 -103 6 -122 9 -18 3 -36 8 -39 11 -3 3 5
13 18 23 13 9 38 25 54 34 17 9 43 17 57 18z m-975 -121 c5 1 21 -14 34 -31
14 -18 26 -37 27 -43 2 -5 9 -39 17 -75 7 -36 21 -83 31 -105 10 -22 22 -48
27 -59 6 -10 14 -48 19 -84 5 -36 16 -84 23 -106 8 -23 17 -61 21 -85 7 -43 7
-44 -16 -38 -13 4 -78 12 -144 17 -66 6 -136 12 -155 15 -19 2 -62 8 -95 14
-33 6 -111 13 -174 16 -63 3 -117 8 -121 10 -4 3 -8 58 -8 122 0 65 -1 123 -3
128 -1 6 1 55 5 110 4 55 9 109 11 120 4 19 17 22 142 34 76 7 172 15 214 17
42 3 89 9 105 14 16 4 34 9 40 9z m-383 -663 c56 -4 188 -16 292 -26 105 -11
216 -24 247 -30 32 -5 66 -13 75 -19 10 -5 30 -31 44 -58 23 -43 30 -48 60
-48 31 0 34 2 31 28 -2 15 1 27 7 27 6 0 11 7 11 15 0 8 5 15 12 15 6 0 38 -5
70 -12 32 -7 58 -17 58 -23 0 -6 -19 -26 -42 -45 -22 -19 -85 -65 -139 -102
-88 -61 -101 -67 -136 -62 -21 3 -47 9 -58 14 -11 4 -29 11 -40 15 -11 5 -94
12 -185 17 -91 5 -223 12 -295 16 l-130 7 1 35 c1 19 4 80 7 135 4 55 6 102 7
104 0 2 46 1 103 -3z m909 -288 c3 -13 6 -38 7 -55 l1 -33 -52 0 c-29 0 -59 4
-67 9 -7 5 -10 14 -7 20 4 6 31 27 59 46 52 35 52 35 59 13z m-797 -104 c61
-7 148 -15 195 -19 47 -4 99 -9 115 -11 17 -1 38 -3 49 -3 15 -1 16 -4 6 -16
-7 -8 -47 -35 -89 -61 -42 -26 -98 -58 -126 -73 -27 -15 -61 -33 -75 -40 -14
-8 -34 -19 -45 -24 -11 -6 -44 -23 -72 -39 -29 -15 -57 -28 -61 -28 -5 0 -49
-23 -98 -52 -49 -28 -118 -67 -154 -85 -36 -19 -72 -41 -81 -49 -8 -8 -18 -14
-22 -14 -4 0 -41 -21 -84 -46 -43 -26 -103 -60 -133 -77 -54 -29 -56 -30 -170
-24 -64 3 -127 10 -142 16 -14 5 -95 10 -180 11 -91 1 -181 8 -223 17 -38 8
-130 17 -202 20 -92 4 -136 10 -144 19 -9 11 -3 17 28 30 21 9 56 26 78 37 22
11 46 25 53 31 8 5 53 25 100 43 48 19 122 47 165 63 43 17 85 37 93 45 9 8
27 18 42 21 15 3 46 12 70 20 23 8 53 14 65 14 12 0 53 11 92 25 38 14 74 30
79 35 6 6 20 10 32 10 12 0 27 7 35 16 7 8 25 22 40 30 16 8 40 14 54 14 14 0
50 11 78 24 29 13 79 32 112 43 33 12 85 28 116 37 31 9 67 16 82 16 14 0 27
5 29 11 2 6 44 13 93 17 52 4 137 2 200 -4z m524 -65 c2 1 47 -6 100 -14 53
-8 112 -16 131 -17 l35 -3 11 -72 c6 -39 9 -93 7 -120 -2 -26 -5 -115 -7 -198
-2 -82 -6 -196 -10 -252 -4 -66 -3 -104 4 -108 6 -4 7 -12 1 -23 -5 -10 -9
-28 -10 -42 0 -14 -2 -96 -4 -182 -3 -86 -8 -161 -12 -167 -3 -6 -32 -23 -63
-38 -31 -14 -74 -37 -94 -50 -21 -13 -44 -23 -53 -23 -8 0 -15 7 -15 15 0 8 4
23 9 33 5 9 16 34 25 55 9 21 16 44 16 52 0 7 11 35 24 62 13 26 30 67 36 90
7 23 9 50 5 60 -4 10 -8 27 -9 38 -1 14 -17 25 -66 41 -36 13 -89 23 -118 23
-29 1 -62 6 -73 11 -10 6 -40 15 -66 21 -27 5 -123 23 -215 39 -92 16 -175 33
-185 38 -10 5 -52 15 -93 21 -41 7 -102 21 -135 31 -33 10 -108 26 -167 36
-60 9 -108 21 -108 26 0 5 8 11 18 14 9 3 30 11 46 17 16 6 40 21 54 34 14 13
34 23 46 23 12 0 33 15 49 35 16 20 37 35 49 35 11 0 38 10 59 22 22 12 39 25
39 28 0 4 30 19 68 35 37 15 105 47 152 70 47 23 117 59 155 80 39 20 82 44
98 52 15 8 27 21 27 28 0 8 18 19 42 25 23 7 57 23 75 38 19 14 53 38 76 53
23 15 44 28 46 28z m-2707 -263 c3 -22 7 -84 8 -136 1 -52 5 -133 8 -180 7
-81 8 -85 35 -94 21 -8 35 -6 60 7 18 9 70 22 117 28 47 7 126 13 175 14 50 1
144 -4 209 -11 66 -7 131 -15 145 -18 14 -3 87 -8 161 -11 74 -3 182 -10 240
-16 58 -7 108 -15 113 -19 4 -3 -10 -20 -30 -36 -21 -16 -51 -36 -68 -44 -16
-8 -47 -25 -67 -39 -21 -13 -35 -28 -32 -32 3 -5 2 -8 -3 -7 -4 1 -29 -8 -55
-21 -27 -12 -57 -34 -67 -48 -11 -13 -36 -29 -55 -34 -20 -6 -36 -14 -36 -19
0 -6 -7 -10 -15 -10 -9 0 -28 -8 -43 -19 -15 -10 -58 -38 -97 -63 -38 -24
-101 -61 -140 -82 -38 -21 -73 -43 -77 -50 -4 -6 -11 -11 -15 -11 -4 -1 -29
-9 -54 -19 -40 -15 -54 -16 -110 -6 -35 7 -89 16 -119 21 -30 4 -68 11 -85 14
-16 3 -66 14 -110 24 -44 11 -114 25 -155 31 -41 7 -88 16 -104 21 -16 5 -41
9 -56 9 -15 0 -49 10 -75 21 -27 12 -76 27 -109 34 -34 7 -90 15 -125 19 -35
4 -71 11 -80 16 -9 5 -63 25 -121 44 -58 19 -130 43 -161 55 -32 11 -95 25
-140 30 -46 5 -104 15 -129 21 -25 7 -67 22 -94 34 l-49 22 108 53 c60 29 129
57 154 63 25 6 84 24 131 41 47 16 105 33 130 37 25 4 72 17 105 29 33 12 94
38 135 57 41 20 93 45 115 56 22 12 49 28 60 38 11 9 47 30 80 47 33 17 103
54 155 82 52 28 124 62 160 75 l65 24 7 -42z m1457 -451 c14 -3 94 -14 176
-26 83 -11 166 -26 185 -32 19 -6 40 -12 45 -14 6 -2 42 -10 80 -18 39 -8 88
-18 110 -24 22 -5 93 -23 157 -39 64 -17 144 -32 178 -33 34 -1 97 -13 142
-26 44 -12 91 -23 104 -23 14 0 40 -6 58 -14 l34 -14 -28 -95 c-16 -53 -38
-115 -49 -140 -11 -24 -23 -64 -27 -88 -4 -24 -13 -58 -21 -76 -7 -18 -34 -48
-59 -67 -26 -20 -52 -36 -58 -36 -6 0 -17 -9 -24 -20 -7 -11 -17 -20 -22 -20
-6 0 -79 -39 -163 -87 -84 -47 -156 -92 -160 -100 -4 -7 -14 -13 -21 -13 -7 0
-35 -17 -62 -37 -27 -21 -56 -42 -65 -48 -9 -5 -50 -37 -92 -70 -41 -33 -97
-75 -124 -93 -26 -18 -76 -52 -110 -75 -34 -23 -100 -73 -148 -112 -47 -38
-98 -77 -112 -85 -15 -8 -35 -23 -45 -32 -10 -10 -22 -18 -27 -18 -5 0 -36
-17 -68 -39 -32 -21 -87 -53 -121 -70 -35 -18 -82 -49 -105 -70 -23 -22 -58
-48 -77 -60 -19 -12 -46 -27 -60 -34 -14 -6 -59 -34 -100 -61 -41 -27 -94 -62
-117 -77 -23 -16 -43 -29 -46 -29 -3 0 -8 7 -11 16 -4 9 -11 49 -17 88 -6 39
-13 87 -15 106 -3 19 -7 62 -11 95 -3 33 -11 69 -16 80 -6 11 -14 47 -18 80
-3 33 -13 87 -22 120 -10 36 -18 122 -21 215 -3 85 -9 248 -12 363 -4 147 -3
207 5 207 6 0 11 6 11 13 0 8 10 23 23 34 12 11 36 25 54 32 18 7 37 19 44 27
6 7 23 20 38 28 14 7 44 23 66 35 22 12 54 34 71 50 17 16 51 39 76 51 25 11
54 30 64 41 11 10 24 24 29 29 6 5 24 20 40 33 17 14 39 27 50 31 11 3 44 22
73 41 30 19 57 35 61 35 4 0 16 9 27 21 10 12 36 30 56 40 21 10 44 19 53 19
9 0 28 12 43 28 14 15 38 35 51 44 14 9 36 15 50 13z m-2892 -225 c14 0 42 -4
62 -10 20 -5 74 -19 121 -30 46 -12 89 -25 95 -29 5 -5 31 -11 56 -14 26 -4
77 -16 115 -28 38 -11 78 -25 89 -29 11 -4 34 -13 50 -19 17 -5 50 -15 74 -21
25 -7 62 -13 83 -15 20 -3 64 -12 95 -20 32 -9 78 -21 103 -26 25 -5 66 -16
92 -25 29 -9 60 -13 78 -9 17 4 28 10 26 14 -3 4 -1 13 3 20 5 8 17 11 30 6
11 -3 21 -11 21 -16 0 -5 -4 -9 -10 -9 -5 0 -10 -7 -10 -15 0 -10 10 -15 29
-15 16 0 41 -6 56 -14 15 -8 33 -12 39 -10 7 3 26 -2 42 -11 16 -8 42 -15 57
-15 15 0 40 -6 55 -14 15 -7 56 -16 92 -20 36 -4 103 -18 150 -32 47 -14 91
-28 98 -30 7 -2 17 -15 22 -29 6 -15 12 -77 14 -138 3 -62 7 -161 10 -222 3
-60 9 -144 12 -185 4 -41 8 -86 10 -100 2 -14 8 -68 13 -120 6 -52 15 -129 20
-170 6 -41 17 -102 26 -135 9 -33 19 -80 22 -105 3 -25 5 -70 5 -100 0 -30 -1
-63 -3 -73 -1 -10 -9 -16 -18 -13 -9 2 -38 7 -66 11 -27 4 -54 10 -60 15 -5 4
-32 11 -60 15 -27 4 -104 20 -170 36 -66 17 -140 34 -165 40 -25 5 -57 17 -72
25 -15 8 -54 24 -85 34 -32 11 -67 20 -78 20 -11 1 -38 7 -60 15 -22 8 -87 19
-145 25 -58 6 -125 17 -150 25 -25 8 -81 22 -125 31 -44 9 -107 25 -140 36
-33 10 -76 26 -95 34 -19 9 -60 28 -90 43 -30 15 -66 34 -80 42 -14 9 -38 24
-54 35 -16 10 -39 26 -51 34 -13 8 -48 32 -79 54 -31 21 -63 48 -71 59 -11 16
-15 51 -15 139 0 72 -4 119 -11 123 -6 4 -8 13 -5 20 3 8 5 74 6 147 1 73 -1
160 -4 193 -3 33 -10 87 -16 120 -5 33 -14 92 -19 130 -6 44 -6 111 -1 179 5
60 7 113 4 118 -3 4 -2 13 1 18 3 6 18 10 32 10z"/>
<g>
<path d="M6191 8930 c-20 0 -50 -9 -68 -20 -26 -15 -31 -25 -29 -47 2 -15 4
-35 5 -44 0 -8 18 -25 40 -37 21 -12 46 -22 54 -22 9 0 28 11 44 24 22 19 28
33 28 64 0 26 -7 48 -19 61 -13 14 -31 21 -55 21z"/>
</g>
<g>
<path d="M6933 8699 c-15 0 -43 -7 -61 -15 -18 -8 -37 -26 -42 -40 -6 -14 -10
-38 -10 -53 0 -16 10 -37 23 -49 13 -12 36 -22 51 -22 15 0 42 8 59 18 18 9
37 24 44 32 7 8 13 30 13 48 0 22 -8 41 -25 57 -15 16 -35 25 -52 24z"/>
</g>
<g>
<path d="M6438 8650 c-7 0 -22 -10 -33 -23 -11 -12 -29 -35 -40 -51 -11 -15
-30 -45 -43 -65 -12 -20 -32 -57 -44 -83 -12 -27 -27 -48 -34 -48 -6 0 -28 11
-48 25 -25 17 -50 25 -79 25 -36 0 -44 -4 -54 -27 -9 -18 -10 -30 -2 -39 5 -6
22 -15 36 -19 14 -3 51 -24 81 -46 32 -23 67 -39 83 -39 15 0 34 3 43 6 8 3
18 22 22 42 4 21 12 44 18 52 7 8 18 33 25 55 8 22 38 68 67 102 35 40 54 70
54 87 0 15 -8 30 -19 36 -11 5 -26 10 -33 10z"/>
</g>
</g>
<g>
<path d="M11366 10306 c-17 1 -44 -6 -61 -17 -16 -10 -37 -35 -47 -55 -9 -21
-14 -43 -11 -51 3 -7 8 -13 13 -13 4 0 18 -9 31 -21 18 -16 32 -19 58 -15 18
3 41 12 51 21 10 9 23 36 30 61 12 42 11 46 -10 66 -12 12 -36 22 -54 24z"/>
</g>
</g>
</svg>
