<?xml version="1.0" standalone="no"?>
<!DOCTYPE svg PUBLIC "-//W3C//DTD SVG 20010904//EN"
 "http://www.w3.org/TR/2001/REC-SVG-20010904/DTD/svg10.dtd">
<svg version="1.0" xmlns="http://www.w3.org/2000/svg"
 width="1400.000000pt" height="1919.000000pt" viewBox="0 0 1400.000000 1919.000000"
 preserveAspectRatio="xMidYMid meet">
<metadata>
Created by potrace 1.16, written by Peter Selinger 2001-2019
</metadata>
<g transform="translate(0.000000,1919.000000) scale(0.100000,-0.100000)"
fill="#000000" stroke="none">
<g>
<path d="M11940 18077 c-8 2 -22 -1 -30 -7 -8 -5 -54 -10 -101 -10 -70 0 -88
-3 -93 -16 -3 -9 -6 -56 -6 -104 0 -79 -2 -91 -20 -100 -11 -6 -37 -10 -58 -9
-20 1 -50 -3 -65 -10 -16 -6 -30 -11 -31 -11 -2 0 -6 33 -9 73 -3 39 -8 85
-10 100 -2 15 -7 30 -11 34 -3 3 -24 -2 -46 -12 -35 -16 -52 -17 -126 -9 -75
9 -87 8 -101 -8 -13 -14 -15 -38 -11 -140 3 -84 9 -130 19 -146 7 -12 22 -25
31 -28 9 -3 25 -1 35 5 10 5 40 17 67 25 27 9 57 16 67 16 11 0 19 -11 23 -31
3 -17 6 -89 6 -160 l0 -129 -30 -1 c-16 -1 -42 -3 -57 -5 -16 -1 -50 -8 -78
-13 -27 -6 -80 -15 -117 -20 -38 -5 -80 -16 -94 -26 -16 -10 -35 -14 -50 -11
-14 4 -30 3 -36 0 -6 -4 -30 -7 -52 -7 -23 1 -62 4 -88 8 -39 6 -48 4 -56 -11
-5 -11 -8 -112 -8 -229 2 -170 6 -222 20 -270 10 -33 22 -83 26 -112 5 -28 11
-57 15 -63 5 -8 30 -10 79 -6 39 4 159 2 266 -2 117 -6 199 -6 205 0 6 5 10
32 10 61 -1 29 -7 96 -15 150 -9 66 -10 101 -3 108 5 5 42 10 82 11 61 0 73 3
82 20 8 14 7 71 -1 195 -6 96 -9 178 -5 181 3 3 16 7 28 9 12 2 46 8 76 13 30
6 69 10 86 10 31 0 33 -2 39 -46 3 -26 6 -65 6 -88 0 -23 3 -58 6 -78 4 -24
15 -43 32 -54 22 -14 34 -15 101 -4 54 9 76 9 79 1 2 -6 9 -11 16 -11 7 0 21
9 31 20 18 20 18 29 7 157 -9 91 -18 145 -30 165 -16 27 -18 28 -82 22 -36 -3
-75 -7 -87 -10 -18 -3 -23 0 -23 15 0 11 -9 43 -20 71 -11 28 -24 81 -30 117
-6 43 -5 73 1 85 8 15 22 18 84 18 48 0 77 4 82 13 4 6 7 59 5 117 -1 58 -6
121 -10 140 -4 19 -14 36 -22 37z m-45 -91 c6 -2 11 -18 13 -36 2 -19 1 -49
-3 -67 -6 -33 -7 -33 -60 -33 -51 0 -54 1 -57 28 -2 15 -1 39 1 54 2 18 12 30
30 37 14 5 35 12 46 14 11 3 25 4 30 3z m-508 -66 l63 0 0 -59 c0 -37 -5 -63
-14 -70 -7 -6 -39 -16 -71 -22 -31 -6 -60 -8 -63 -4 -3 3 -8 33 -10 67 -4 51
-2 64 14 75 10 7 44 13 81 13z m310 -161 c6 0 14 -3 17 -8 3 -5 11 -44 17 -87
6 -44 17 -89 25 -101 8 -12 14 -40 14 -61 l0 -38 -87 -11 c-49 -7 -100 -15
-114 -18 l-26 -7 0 151 c0 83 3 154 8 157 5 3 37 9 72 13 34 5 67 9 74 10z
m227 -369 c47 0 54 -3 60 -22 3 -13 6 -53 6 -90 0 -63 -2 -68 -22 -69 -13 -1
-34 -1 -47 -1 -14 1 -29 6 -34 11 -5 5 -13 43 -17 83 -4 40 -5 76 -3 81 2 4
28 7 57 7z m-478 -50 l41 0 6 -132 c3 -78 2 -139 -4 -150 -7 -13 -21 -18 -54
-18 l-44 0 -7 61 c-4 33 -12 63 -19 65 -6 3 -45 0 -86 -7 -41 -6 -101 -12
-134 -13 -33 -1 -68 -6 -77 -10 -15 -7 -18 -22 -18 -92 0 -75 2 -84 22 -95 15
-8 56 -9 135 -5 105 7 113 6 114 -11 1 -10 4 -40 7 -68 2 -27 5 -72 6 -99 l1
-48 -140 3 c-77 1 -168 2 -202 0 -59 -2 -63 -1 -77 27 -8 16 -13 32 -10 34 2
3 -3 34 -12 69 -14 52 -16 93 -11 219 5 129 9 157 23 167 9 7 21 10 26 7 5 -3
54 6 111 19 56 14 154 33 217 42 63 10 122 21 130 26 8 5 33 9 56 9z m-189
-271 c23 1 45 -4 49 -10 3 -6 2 -15 -3 -20 -5 -5 -41 -12 -80 -15 -47 -3 -74
-1 -78 6 -4 6 -5 14 -2 17 4 3 21 9 39 13 18 4 52 8 75 9z"/>
</g>
<g>
<path d="M9740 17342 c-19 3 -47 2 -61 -1 -14 -3 -43 -20 -63 -38 -20 -18 -36
-35 -36 -39 0 -4 -8 -13 -17 -20 -15 -10 -18 -25 -16 -79 2 -36 7 -75 13 -85
5 -10 35 -30 66 -44 31 -14 74 -26 96 -26 30 0 52 9 88 35 38 28 50 44 58 77
6 24 8 57 5 73 -2 17 -7 37 -10 45 -4 8 -7 18 -8 23 -2 4 -3 11 -4 17 0 5 -18
21 -38 34 -21 13 -54 26 -73 28z"/>
</g>
<g>
<path d="M2903 17190 c-26 -1 -64 -9 -83 -18 -20 -10 -42 -32 -52 -52 -11 -21
-18 -58 -18 -91 0 -53 3 -59 35 -88 20 -17 52 -38 71 -46 24 -10 50 -13 76 -9
22 4 49 16 60 28 11 12 27 35 34 53 8 18 14 51 14 73 0 22 -6 56 -14 74 -7 18
-27 43 -44 55 -21 15 -44 21 -79 21z"/>
</g>
<g>
<path d="M5938 16588 c-18 2 -30 -3 -37 -17 -6 -11 -11 -31 -11 -45 0 -13 -5
-37 -11 -53 -6 -15 -12 -44 -14 -63 -1 -19 -16 -79 -34 -134 -17 -54 -31 -114
-31 -132 0 -18 -7 -59 -16 -91 -9 -32 -20 -80 -25 -108 -6 -27 -17 -84 -26
-125 -8 -41 -24 -100 -34 -130 -10 -30 -25 -86 -33 -125 -8 -38 -26 -108 -39
-155 -13 -47 -29 -108 -36 -136 -7 -28 -14 -69 -17 -90 -2 -22 -16 -85 -30
-142 -16 -64 -23 -114 -19 -133 4 -16 15 -34 26 -40 11 -5 24 -7 29 -4 5 3 63
13 127 21 65 9 170 18 233 20 63 2 145 9 182 15 37 6 80 8 96 4 21 -4 35 0 53
15 22 18 23 21 7 33 -9 7 -16 22 -15 33 2 17 -4 19 -48 17 -27 -1 -144 -7
-260 -13 -115 -5 -226 -15 -246 -20 -20 -6 -48 -10 -62 -10 -24 0 -25 1 -20
68 3 37 14 100 24 141 10 41 19 86 19 100 0 14 10 60 21 101 12 41 29 107 40
145 10 39 23 96 29 128 6 32 24 97 40 145 16 48 34 121 40 162 6 41 24 127 40
190 15 63 36 160 44 215 9 55 23 114 32 131 9 17 14 42 12 55 -2 18 -10 25
-30 27z"/>
</g>
<g>
<path d="M8910 16554 c-14 3 -34 1 -45 -3 -11 -4 -37 -15 -57 -24 -21 -9 -46
-17 -57 -17 -11 0 -23 -4 -26 -10 -3 -5 -16 -10 -28 -11 -12 0 -43 -13 -69
-27 -26 -15 -72 -44 -102 -65 -49 -34 -56 -37 -82 -26 -16 6 -38 16 -50 21
-12 6 -43 11 -70 11 -27 1 -78 -7 -114 -17 -36 -11 -70 -25 -76 -33 -6 -7 -20
-13 -30 -13 -10 0 -30 -16 -44 -36 -14 -19 -41 -56 -61 -82 -20 -26 -51 -71
-68 -100 -17 -29 -31 -57 -31 -63 0 -5 -25 -52 -55 -104 -30 -52 -62 -118 -71
-146 -13 -39 -15 -71 -11 -140 4 -49 14 -117 22 -150 9 -33 29 -82 45 -108 17
-27 30 -53 30 -59 0 -6 -10 -18 -22 -27 -13 -8 -35 -32 -50 -53 -15 -20 -46
-73 -70 -117 l-43 -80 0 -130 0 -130 47 -97 c43 -89 55 -103 124 -160 42 -35
90 -69 107 -76 17 -7 51 -11 76 -10 l45 3 22 -85 c12 -47 27 -96 34 -110 7
-14 32 -40 56 -57 25 -18 50 -33 57 -33 7 0 31 -9 54 -20 22 -10 67 -23 99
-28 33 -6 85 -6 117 -2 32 5 79 13 105 19 26 5 79 15 117 21 39 5 102 16 140
24 39 8 90 21 114 30 24 9 50 16 57 16 8 0 52 23 99 51 49 30 107 75 139 109
30 33 66 83 80 112 16 33 30 87 38 147 6 51 17 94 22 96 6 1 29 8 51 15 22 7
63 28 91 45 28 18 72 60 98 93 25 33 46 64 46 67 0 4 6 21 14 38 7 18 19 46
24 62 6 17 18 62 27 100 9 39 16 106 17 150 0 52 -7 106 -20 155 -12 41 -25
89 -30 105 -6 17 -19 50 -30 75 -12 25 -39 61 -62 80 -23 19 -56 50 -73 68
-17 18 -45 39 -62 47 -16 8 -52 17 -80 21 -27 4 -54 9 -60 9 -5 1 -33 3 -61 3
l-51 2 1 98 c0 53 -3 135 -7 182 -3 47 -15 108 -26 136 -11 28 -34 72 -51 98
-17 25 -36 46 -43 46 -6 0 -31 17 -56 38 -35 29 -58 40 -96 45 -27 4 -61 9
-75 11z m-9 -78 c44 -2 82 -11 113 -27 26 -13 63 -41 82 -62 20 -21 45 -60 56
-85 14 -34 23 -87 31 -188 8 -110 8 -150 -2 -186 -12 -41 -17 -47 -54 -57 -23
-7 -67 -22 -97 -33 -30 -12 -83 -44 -117 -71 -34 -28 -74 -66 -88 -87 -14 -20
-25 -47 -25 -61 0 -14 14 -44 31 -67 29 -40 34 -42 80 -42 27 0 66 7 87 16 20
8 50 27 66 42 15 15 43 51 62 80 19 29 34 55 34 57 0 3 10 27 22 53 12 26 29
52 38 59 8 7 44 12 80 13 43 0 85 -8 126 -23 44 -16 82 -41 136 -90 67 -61 76
-73 92 -130 10 -34 26 -87 37 -118 14 -40 19 -83 19 -153 0 -54 -4 -105 -9
-115 -5 -9 -11 -30 -14 -46 -2 -17 -9 -43 -15 -58 -7 -16 -12 -32 -12 -36 0
-4 -14 -30 -32 -57 -17 -27 -47 -66 -67 -88 -20 -21 -55 -47 -79 -57 -24 -10
-57 -19 -73 -19 -23 0 -30 5 -35 28 -3 15 -8 34 -11 42 -3 8 -7 25 -9 37 -2
12 -13 41 -23 65 -10 25 -42 65 -73 94 -42 38 -68 53 -107 62 -29 7 -67 12
-85 12 -19 0 -40 -8 -50 -19 -9 -10 -21 -33 -26 -52 -6 -19 -7 -53 -4 -77 5
-34 19 -57 68 -111 33 -37 79 -79 101 -94 22 -14 66 -33 97 -42 47 -13 58 -21
67 -46 6 -16 8 -44 5 -62 -3 -18 -11 -45 -16 -62 -6 -16 -21 -52 -34 -80 -13
-27 -40 -68 -61 -91 -21 -23 -69 -60 -107 -83 -37 -22 -73 -41 -80 -41 -6 0
-45 -12 -86 -26 -41 -14 -100 -29 -130 -34 -30 -5 -80 -14 -110 -19 -30 -6
-71 -13 -91 -16 -20 -3 -49 -9 -65 -14 -16 -4 -67 -4 -114 1 -47 5 -105 16
-130 25 -25 10 -58 26 -73 37 -16 12 -39 44 -52 71 -13 28 -25 67 -26 87 -2
20 -1 39 1 42 3 2 30 6 60 7 30 2 90 16 134 31 44 15 91 38 104 50 14 13 38
50 53 83 22 46 27 68 22 95 -3 19 -14 53 -23 75 -10 22 -27 49 -39 59 -12 11
-29 20 -39 21 -9 1 -32 5 -50 9 -26 6 -38 3 -65 -19 -17 -14 -58 -49 -89 -77
-41 -36 -58 -58 -58 -75 0 -14 -9 -32 -20 -41 -11 -10 -31 -44 -44 -77 -22
-54 -27 -60 -56 -63 -20 -2 -51 6 -83 23 -29 14 -78 50 -109 78 -37 34 -66 72
-82 107 -21 47 -25 72 -27 170 -1 73 2 130 11 155 7 22 21 48 31 58 10 9 36
43 58 75 21 32 46 64 55 71 14 12 21 12 41 1 14 -7 25 -17 25 -22 0 -4 22 -19
48 -32 27 -14 87 -35 133 -46 65 -17 99 -21 153 -16 43 4 82 14 103 27 18 11
40 30 48 42 8 12 15 36 15 55 0 18 -11 54 -24 80 -13 26 -37 60 -53 75 -21 19
-46 30 -81 36 -29 4 -67 7 -84 6 -18 -1 -58 -9 -88 -17 -30 -9 -85 -29 -123
-46 -37 -17 -73 -29 -80 -26 -6 3 -25 26 -42 52 -16 26 -35 67 -41 92 -7 25
-15 66 -19 91 -4 26 -2 71 4 100 6 30 17 75 24 101 7 25 20 55 29 65 8 10 19
28 22 40 4 12 20 38 36 58 17 21 30 47 30 59 0 11 8 33 18 48 9 14 30 43 46
65 17 21 49 57 73 80 23 22 59 47 80 53 21 7 44 17 50 22 7 6 37 7 70 3 32 -3
66 -13 77 -20 17 -13 17 -15 -10 -52 -16 -21 -32 -39 -36 -41 -5 -2 -8 -8 -8
-14 0 -6 -7 -16 -15 -22 -8 -6 -17 -36 -21 -68 -5 -43 -3 -67 10 -95 9 -21 21
-45 25 -53 4 -8 23 -25 41 -37 18 -13 45 -23 61 -23 15 0 45 10 67 21 22 12
57 42 78 67 38 45 39 48 42 142 l4 95 -36 49 c-29 41 -33 53 -23 65 7 8 57 35
112 61 55 26 114 53 130 59 17 6 60 9 96 7z m-421 -216 c8 0 25 -17 36 -38 12
-20 23 -49 24 -62 1 -14 2 -41 1 -61 -1 -28 -10 -45 -38 -73 -21 -20 -47 -36
-59 -36 -12 0 -32 8 -44 18 -15 12 -24 33 -27 63 -4 32 0 56 12 80 10 19 32
51 49 71 17 21 38 38 46 38z m633 -461 c10 1 16 -2 14 -6 -2 -5 -21 -43 -41
-86 -27 -56 -48 -84 -74 -102 -23 -16 -51 -25 -74 -25 -26 0 -40 6 -47 18 -7
13 -5 28 6 50 9 18 33 47 55 64 22 17 63 43 91 58 29 15 60 28 70 29z m-886
-392 c73 -2 85 -5 108 -27 14 -14 29 -40 34 -58 8 -28 7 -34 -12 -46 -12 -8
-47 -17 -77 -21 -34 -4 -66 -2 -85 5 -16 7 -41 14 -55 16 -14 2 -45 12 -70 21
-25 8 -53 23 -63 31 -17 15 -17 16 0 26 10 6 45 21 78 33 47 18 78 22 142 20z
m865 -307 c13 0 42 -9 65 -19 24 -12 55 -37 73 -62 17 -24 33 -54 36 -68 3
-14 11 -43 19 -64 l14 -38 -32 6 c-18 4 -50 18 -72 32 -22 14 -57 44 -78 66
-21 23 -43 59 -49 79 -6 20 -8 44 -5 52 4 9 17 16 29 16z m-707 -291 c16 -5
35 -15 43 -23 8 -8 17 -35 19 -60 5 -45 4 -49 -39 -90 -33 -31 -61 -47 -106
-60 -34 -9 -77 -19 -96 -21 -19 -3 -38 0 -41 6 -4 5 -1 25 6 42 7 18 29 56 48
86 20 30 58 70 86 91 43 32 54 36 80 29z"/>
</g>
<g>
<path d="M4300 15136 c-85 0 -182 -3 -215 -7 -33 -4 -77 -11 -98 -15 -22 -3
-42 -14 -48 -25 -6 -13 -8 -112 -4 -287 3 -147 8 -294 10 -326 2 -35 10 -65
19 -74 13 -13 21 -14 55 -2 30 9 87 11 230 7 160 -5 193 -3 206 9 8 8 17 31
21 51 4 20 3 105 -2 187 -4 83 -8 192 -8 241 -1 50 2 110 5 135 4 25 3 50 -1
55 -4 6 -9 19 -12 30 -3 18 -12 20 -158 21z m-29 -80 c53 -2 100 -6 106 -9 5
-3 15 -115 23 -250 7 -134 10 -256 6 -270 -5 -22 -12 -26 -58 -29 -29 -1 -80
-1 -113 2 -33 3 -87 3 -120 0 -34 -3 -68 -4 -77 -2 -13 2 -18 20 -22 80 -3 42
-7 157 -9 254 -2 98 -1 182 2 186 3 5 20 12 36 16 17 4 53 11 80 16 28 5 93 7
146 6z"/>
</g>
<g>
<path d="M3107 14779 c-169 0 -200 -3 -218 -17 -20 -17 -20 -20 -8 -122 6 -58
11 -159 11 -225 -1 -66 -4 -163 -7 -215 -4 -69 -2 -106 8 -135 10 -29 20 -40
33 -39 11 1 55 7 99 14 52 8 143 10 260 7 150 -4 191 -9 247 -27 37 -13 73
-20 81 -17 8 3 18 20 22 39 5 18 8 92 7 163 0 72 -1 212 -3 313 -1 100 -6 182
-10 182 -4 0 -9 10 -11 23 -3 19 -10 23 -68 28 -36 4 -106 12 -156 18 -49 6
-179 10 -287 10z m35 -86 c100 -1 228 -7 284 -12 55 -6 108 -13 116 -16 11 -5
18 -25 22 -63 3 -31 7 -154 8 -272 l3 -215 -25 3 c-14 1 -88 7 -165 13 -77 5
-187 7 -245 5 -58 -3 -122 -8 -142 -12 l-36 -6 -1 192 c0 105 -3 232 -7 280
-3 48 -4 92 -1 96 3 5 88 8 189 7z"/>
</g>
<g>
<path d="M10895 14736 c-5 2 -19 -2 -30 -8 -11 -7 -63 -13 -117 -14 -53 -1
-102 -5 -109 -9 -9 -6 -10 -44 -6 -150 4 -79 11 -155 17 -170 5 -14 10 -42 10
-61 l0 -34 -61 0 c-33 0 -80 5 -104 11 -32 8 -48 8 -64 -1 -20 -10 -22 -17
-17 -78 4 -37 9 -112 12 -167 3 -55 9 -151 13 -212 4 -62 11 -117 16 -122 6
-5 42 -14 82 -20 39 -6 94 -11 121 -11 l50 0 7 -107 c4 -60 8 -124 8 -143 l2
-35 -161 -11 c-88 -7 -170 -14 -180 -18 -11 -3 -50 -7 -88 -8 -65 -2 -69 -3
-80 -30 -8 -18 -10 -48 -5 -85 4 -32 8 -119 8 -193 1 -74 5 -141 10 -148 6
-10 27 -13 77 -9 38 2 89 7 114 11 25 4 62 11 82 17 21 5 66 12 100 15 34 3
70 10 80 15 9 5 23 9 31 9 12 0 14 -29 13 -177 l-1 -177 -32 -13 c-18 -7 -130
-22 -250 -33 -120 -11 -234 -24 -253 -30 -19 -5 -55 -10 -81 -10 -25 0 -53 -6
-62 -13 -15 -10 -19 -35 -23 -139 -5 -104 -3 -132 11 -157 l16 -31 162 1 c89
0 185 5 212 10 28 5 121 14 208 19 87 6 167 15 179 21 20 11 20 16 14 134 -4
67 -4 139 -1 159 5 26 13 37 29 41 11 2 59 11 106 20 47 9 123 20 170 23 47 4
103 6 125 6 22 -1 59 -5 82 -9 35 -6 44 -5 49 9 3 9 1 53 -6 99 -7 45 -21 129
-31 187 -10 58 -22 125 -25 150 -4 25 -13 57 -20 72 -8 15 -18 29 -23 32 -4 3
-33 -1 -62 -10 -30 -8 -61 -16 -69 -18 -8 -2 -22 -6 -30 -9 -8 -3 -44 -14 -80
-25 -36 -11 -94 -22 -130 -26 -36 -3 -74 -7 -84 -9 -14 -1 -22 7 -28 28 -5 17
-9 72 -10 123 -1 50 2 95 6 99 4 4 50 6 102 5 53 -1 104 -7 115 -13 11 -5 28
-7 39 -4 12 4 22 19 26 41 4 20 1 116 -5 215 -7 113 -16 193 -26 215 -14 33
-18 36 -45 30 -17 -3 -73 -9 -125 -12 l-94 -7 -5 34 c-3 19 -8 110 -11 202 -3
93 -7 174 -8 180 -1 8 16 11 58 9 33 -2 64 -8 70 -13 5 -5 17 -9 27 -9 9 0 22
10 29 21 8 17 8 40 -1 98 -8 49 -10 124 -6 216 5 122 4 145 -11 174 -10 19
-22 36 -28 37z m-62 -108 c24 2 27 -2 29 -30 1 -18 1 -46 1 -63 -1 -16 -2 -78
-3 -137 l-2 -108 -59 0 c-33 0 -59 2 -59 4 0 2 -7 40 -15 83 -8 43 -15 115
-15 160 l0 82 48 4 c26 2 59 4 75 5z m-249 -414 c39 -3 76 -7 82 -9 7 -2 15
-25 18 -52 3 -26 8 -120 12 -209 5 -143 4 -162 -10 -167 -9 -4 -51 0 -93 8
-42 8 -78 17 -81 19 -2 3 -6 90 -9 194 -2 104 -1 196 3 206 5 13 17 15 78 10z
m361 -496 l40 -3 6 -115 c4 -63 8 -128 9 -145 1 -16 2 -36 1 -42 -1 -10 -28
-13 -100 -13 l-99 0 -7 73 c-3 39 -7 106 -8 147 l-2 75 52 5 c28 3 55 9 60 13
4 4 25 7 48 5z m-279 -392 l51 0 6 -140 c5 -104 3 -142 -6 -148 -7 -4 -26 -8
-44 -8 -17 0 -63 -7 -101 -15 -38 -8 -116 -15 -173 -17 l-103 -3 -4 115 c-1
63 0 129 3 146 5 29 10 32 63 43 31 7 102 16 157 20 55 4 123 7 151 7z m556
-257 c17 1 28 -5 32 -16 2 -10 9 -43 15 -73 5 -30 15 -86 20 -125 6 -38 12
-88 13 -109 2 -33 0 -40 -18 -42 -12 -2 -55 -5 -95 -8 -41 -2 -110 -9 -155
-15 -44 -6 -105 -17 -134 -25 -30 -8 -57 -13 -61 -10 -3 2 -4 37 -1 79 3 43
-1 95 -8 122 -6 27 -18 64 -26 85 -10 28 -10 38 -1 46 7 5 66 19 132 31 66 13
127 25 135 28 8 3 26 7 40 9 14 2 39 8 55 13 17 5 42 10 57 10z m-514 -540 c8
1 12 -17 12 -57 0 -36 6 -66 15 -78 8 -10 15 -31 15 -45 0 -25 -4 -28 -47 -33
-27 -3 -77 -8 -113 -10 -36 -3 -94 -12 -130 -20 -36 -9 -103 -15 -150 -15 -47
1 -114 4 -150 8 -60 5 -65 8 -69 31 -1 14 2 49 9 77 6 29 15 55 19 58 5 2 46
11 92 20 46 9 154 22 239 30 85 8 175 19 200 24 25 5 51 9 58 10z"/>
</g>
<g>
<path d="M1342 14492 c-52 2 -99 0 -105 -4 -6 -4 -11 -65 -13 -165 -1 -87 -5
-210 -8 -273 -3 -63 -9 -149 -12 -191 -4 -42 -4 -89 0 -104 7 -26 8 -27 64
-22 31 3 82 11 112 18 30 7 118 13 195 13 l140 1 -1 55 c-1 30 -7 107 -12 170
-6 63 -11 165 -11 225 0 61 4 135 8 165 5 30 5 57 1 60 -4 3 -12 14 -18 25
-10 18 -22 20 -129 22 -65 0 -160 3 -211 5z m47 -87 c24 -3 89 -5 144 -5 l99
0 -7 -27 c-4 -16 -8 -48 -8 -73 1 -25 5 -130 11 -235 5 -104 7 -193 3 -197 -3
-3 -61 -9 -129 -13 -68 -3 -134 -10 -148 -15 -14 -6 -33 -10 -43 -10 -16 0
-17 19 -16 282 l2 283 24 7 c13 4 44 5 68 3z"/>
</g>
<g>
<path d="M6053 14240 c-29 0 -46 -6 -62 -24 -13 -14 -35 -29 -50 -36 -18 -7
-36 -29 -54 -68 -14 -31 -32 -79 -38 -107 -7 -29 -13 -156 -14 -304 l-3 -254
-28 -20 c-16 -11 -41 -32 -56 -46 -16 -13 -28 -22 -28 -18 0 3 -34 -14 -75
-38 -42 -25 -86 -45 -100 -45 -14 0 -26 7 -28 18 -3 9 -15 56 -27 103 -12 47
-36 112 -54 145 -22 42 -41 64 -66 76 -22 11 -58 18 -95 18 -33 0 -71 -6 -85
-13 -14 -8 -41 -17 -59 -20 -19 -4 -57 -20 -85 -37 -44 -25 -54 -37 -70 -80
-14 -40 -17 -65 -11 -118 4 -37 13 -79 21 -94 7 -14 19 -29 26 -32 7 -3 -21
-3 -62 0 -41 3 -102 7 -135 9 -33 2 -179 15 -325 29 -146 14 -314 31 -375 37
-88 8 -122 8 -170 -3 -43 -9 -86 -11 -150 -6 -49 4 -110 12 -135 18 -25 5 -72
12 -105 15 -33 3 -78 8 -100 11 -22 3 -65 6 -95 8 -30 2 -81 9 -113 15 -45 10
-61 10 -72 1 -8 -7 -15 -23 -15 -35 0 -13 11 -32 25 -43 14 -11 44 -22 67 -26
24 -3 102 -11 173 -18 72 -6 229 -13 350 -14 121 -2 288 -8 370 -13 83 -5 161
-13 175 -16 14 -3 90 -10 170 -15 80 -6 168 -12 195 -15 28 -3 84 -10 127 -15
42 -6 203 -12 357 -13 l282 -2 -5 -45 c-3 -25 -8 -126 -12 -225 -3 -99 -10
-194 -15 -210 -8 -27 -16 -32 -67 -43 -31 -7 -82 -23 -112 -34 -30 -12 -80
-38 -110 -57 -30 -20 -67 -41 -82 -47 -14 -7 -34 -24 -43 -38 -9 -14 -25 -28
-36 -31 -10 -3 -33 -28 -50 -55 -17 -27 -37 -51 -44 -54 -6 -2 -28 -29 -48
-59 -34 -50 -37 -62 -37 -124 0 -63 3 -72 28 -95 15 -13 42 -31 60 -38 20 -8
53 -11 86 -7 30 3 73 16 97 29 24 13 67 41 94 63 28 22 73 66 101 97 29 32 70
94 93 137 23 44 41 86 41 94 0 9 11 37 25 63 14 26 25 53 25 59 0 7 6 17 13
23 8 7 37 7 92 0 53 -7 101 -21 142 -41 34 -17 78 -45 97 -63 20 -19 38 -44
40 -56 3 -13 7 -97 9 -188 3 -140 7 -175 26 -230 13 -35 31 -80 41 -100 9 -19
25 -49 34 -66 9 -17 25 -39 36 -49 18 -16 24 -17 59 -5 30 10 43 22 60 55 11
23 24 56 27 73 4 17 1 68 -6 114 -6 45 -25 118 -41 162 -16 44 -49 110 -74
146 -25 36 -54 76 -65 90 -20 25 -20 26 -1 100 11 41 31 110 45 153 14 43 37
99 51 126 13 27 38 60 56 75 l32 27 36 -34 c20 -18 61 -49 91 -69 30 -19 65
-40 77 -47 12 -6 37 -11 55 -11 19 1 57 15 88 33 40 24 61 44 76 75 11 24 21
63 23 87 1 28 -5 58 -18 82 -11 21 -36 49 -55 62 -27 17 -49 23 -93 23 -32 1
-74 -3 -93 -7 -19 -4 -67 -25 -107 -46 -39 -22 -74 -39 -76 -39 -3 0 -15 15
-26 33 -11 18 -32 46 -46 62 -14 17 -35 47 -46 68 -11 22 -18 41 -15 44 3 3
69 5 148 4 78 0 157 -6 175 -12 21 -7 142 -9 355 -6 178 3 348 10 378 15 30 6
120 16 200 21 80 5 183 6 230 1 47 -4 120 -4 165 1 44 5 134 14 200 19 66 6
231 13 366 16 153 4 248 3 252 -3 3 -5 -1 -22 -9 -37 -7 -16 -14 -32 -14 -36
0 -5 -15 -41 -34 -82 -18 -40 -50 -120 -71 -178 -20 -58 -46 -134 -57 -169
-11 -35 -20 -91 -21 -125 -2 -59 -1 -61 24 -64 19 -2 28 3 37 23 7 14 12 37
12 50 0 14 6 42 14 62 8 21 17 62 21 92 3 29 12 65 19 80 8 14 25 51 39 81 13
30 39 93 57 140 18 47 40 102 48 122 9 21 23 40 31 43 9 2 77 7 151 10 74 2
179 8 233 11 93 7 99 6 122 -16 14 -13 25 -27 25 -32 0 -5 9 -28 20 -51 12
-23 30 -57 41 -76 11 -18 26 -40 34 -48 8 -8 15 -22 15 -30 0 -9 7 -24 15 -33
9 -10 24 -41 34 -70 13 -37 26 -57 42 -62 12 -5 26 -5 30 -1 5 5 9 24 10 43 1
19 -6 51 -16 70 -9 19 -34 59 -55 90 -21 30 -59 92 -85 138 -26 45 -45 86 -41
90 4 4 56 8 114 9 59 2 159 6 222 9 85 5 118 11 126 22 6 9 9 25 6 36 -3 12
-9 27 -15 34 -5 6 -22 12 -38 12 -15 0 -30 -4 -33 -8 -2 -4 -24 -9 -47 -11
-23 -1 -46 -4 -49 -6 -4 -3 -22 0 -41 6 -24 7 -70 6 -151 -2 -105 -11 -119
-11 -142 4 -14 10 -26 26 -26 36 0 11 -3 21 -7 23 -5 2 -21 30 -38 63 -16 32
-43 78 -60 100 -16 22 -52 73 -79 113 -27 39 -53 72 -57 72 -4 0 -12 14 -18
30 -5 17 -17 30 -25 30 -8 0 -23 -11 -33 -23 -10 -13 -50 -89 -90 -168 -39
-79 -84 -177 -100 -218 -15 -40 -37 -80 -49 -87 -16 -11 -76 -14 -280 -15
-172 -1 -279 -6 -319 -15 -33 -7 -71 -13 -85 -13 -14 1 -182 -4 -375 -9 -192
-6 -368 -15 -391 -21 -22 -6 -132 -13 -245 -16 -112 -4 -208 -6 -214 -6 -5 0
-118 3 -250 6 -132 3 -271 10 -310 16 -38 5 -74 14 -79 19 -5 5 -11 33 -14 63
-4 53 -3 54 36 86 22 17 50 51 62 75 11 25 36 64 54 88 17 24 41 66 53 93 11
28 28 73 37 101 9 28 20 78 23 110 3 33 6 93 7 135 1 50 -4 86 -14 103 -8 15
-33 39 -56 52 -24 14 -57 24 -81 24z m0 -80 c10 0 32 -8 48 -17 29 -17 29 -18
29 -108 0 -51 -7 -111 -15 -139 -8 -27 -15 -59 -15 -72 0 -12 -14 -53 -31 -91
-18 -37 -35 -70 -38 -73 -3 -3 -18 -22 -34 -42 -15 -20 -27 -40 -27 -45 -1 -4
-14 -24 -30 -43 -25 -29 -30 -31 -31 -15 0 11 -4 45 -9 75 -5 37 -1 116 11
236 10 103 25 199 34 220 9 22 32 56 53 77 20 20 45 37 55 37z m2708 -420 c3
0 25 -30 49 -67 23 -38 54 -80 68 -95 14 -15 36 -45 48 -65 13 -21 34 -59 48
-84 14 -26 22 -49 19 -53 -4 -3 -51 -6 -105 -6 -55 0 -107 -4 -116 -9 -9 -5
-56 -12 -104 -16 -71 -5 -88 -4 -88 7 0 7 11 35 25 62 14 27 25 53 25 58 0 5
28 67 63 138 34 72 65 130 68 130z m-3457 -186 c22 -3 43 -7 48 -10 4 -3 17
-22 27 -42 10 -20 28 -64 39 -97 11 -33 23 -74 27 -91 5 -29 3 -32 -37 -48
-33 -13 -70 -17 -158 -16 l-115 1 -44 43 c-31 31 -45 55 -51 84 -4 25 -3 51 5
69 7 15 24 39 38 51 14 13 42 28 64 34 21 5 56 13 78 18 22 5 58 6 79 4z m549
-209 c6 -18 5 -31 -2 -38 -6 -6 -29 -12 -51 -12 -22 0 -40 2 -40 5 0 3 19 20
42 38 l43 33 8 -26z m-3 -131 c22 -1 38 -8 45 -20 5 -11 12 -21 15 -24 3 -3
12 -18 21 -35 9 -16 19 -42 23 -57 3 -15 22 -44 42 -65 20 -21 40 -46 46 -56
8 -16 3 -26 -26 -56 -19 -20 -47 -63 -61 -96 -14 -33 -33 -73 -42 -90 -8 -16
-24 -70 -34 -119 -10 -48 -20 -91 -23 -93 -3 -3 -33 15 -68 39 -35 25 -81 51
-103 58 -22 7 -74 21 -115 30 -70 16 -75 18 -71 41 2 13 5 127 7 254 2 196 5
231 19 241 9 6 48 15 88 19 40 3 101 12 137 19 36 6 81 11 100 10z m525 -205
c22 1 52 -7 65 -16 14 -9 28 -22 32 -27 4 -6 8 -29 8 -51 -1 -22 -7 -49 -15
-59 -8 -11 -26 -27 -40 -36 -20 -13 -36 -15 -66 -10 -21 4 -65 25 -96 46 -31
22 -61 47 -67 57 -9 15 -6 21 14 37 14 11 48 29 75 39 28 11 68 20 90 20z
m-1002 -456 c4 -2 1 -16 -7 -31 -7 -15 -19 -38 -25 -52 -6 -14 -28 -56 -49
-95 -21 -38 -51 -90 -67 -115 -16 -25 -56 -68 -89 -96 -34 -28 -81 -58 -106
-66 -25 -9 -60 -19 -79 -22 -24 -4 -41 -1 -60 14 -26 18 -27 22 -20 74 5 40
16 67 41 98 18 23 58 66 88 96 30 29 75 66 100 82 25 16 50 34 56 39 6 5 40
21 75 35 35 13 80 29 99 34 19 5 38 7 43 5z m542 -237 c8 -11 15 -26 15 -33 0
-7 4 -13 10 -13 5 0 16 -13 24 -29 9 -16 22 -48 30 -72 9 -24 16 -50 16 -57 0
-7 9 -32 20 -54 13 -27 20 -62 20 -98 0 -32 -5 -71 -11 -89 -6 -17 -14 -31
-19 -31 -4 0 -19 17 -34 38 -14 21 -26 44 -26 51 0 6 -7 26 -16 44 -9 17 -23
56 -30 87 -7 30 -13 105 -13 165 0 99 1 108 14 91z"/>
</g>
<g>
<path d="M1845 13364 c-19 4 -36 1 -48 -8 -14 -11 -20 -39 -28 -137 -6 -68
-15 -151 -20 -184 -6 -33 -14 -107 -19 -164 -6 -70 -6 -110 1 -123 9 -16 17
-19 42 -14 18 4 78 9 134 13 72 4 107 2 117 -6 8 -7 25 -9 39 -6 21 6 26 14
29 48 2 23 -2 66 -8 96 -7 29 -13 113 -14 185 -1 75 4 156 11 188 13 55 12 58
-11 83 -23 24 -30 26 -110 24 -47 -1 -98 1 -115 5z m90 -87 c36 -2 68 -7 72
-10 3 -4 8 -106 10 -226 l3 -219 -77 3 c-43 2 -91 3 -106 4 l-28 1 2 118 c1
64 6 125 11 136 6 10 14 46 19 81 5 34 13 75 19 89 10 26 12 27 75 23z"/>
</g>
<g>
<path d="M3297 12960 c-30 0 -56 -2 -58 -5 -3 -2 -68 -7 -144 -11 -77 -3 -169
-7 -205 -9 -36 -1 -77 -7 -91 -13 -15 -6 -29 -17 -32 -24 -2 -7 0 -24 5 -38 5
-14 11 -216 14 -450 2 -234 9 -461 14 -505 6 -44 10 -121 10 -171 0 -74 3 -94
18 -105 12 -11 41 -15 97 -14 44 1 123 4 175 8 52 4 129 4 170 0 41 -5 85 -7
97 -5 18 3 23 12 29 59 4 31 2 119 -4 197 -6 78 -14 231 -17 341 -4 110 -7
272 -9 360 -1 88 1 201 5 250 4 50 4 92 0 95 -4 3 -10 13 -14 23 -5 13 -18 17
-60 17z m-136 -94 l126 0 2 -225 c1 -124 6 -278 11 -341 5 -63 12 -220 16
-347 l7 -233 -24 -2 c-13 -1 -71 -2 -129 -3 -58 -1 -146 -5 -196 -9 l-91 -8
-8 94 c-4 51 -9 107 -10 123 -1 17 -6 75 -10 130 -5 55 -8 231 -7 390 0 160 1
315 1 346 l1 56 53 12 c28 6 70 12 92 14 22 1 97 3 166 3z"/>
</g>
<g>
<path d="M8816 12940 c-8 0 -23 -8 -33 -17 -11 -10 -26 -38 -32 -61 -7 -24
-24 -63 -37 -85 -14 -23 -39 -71 -55 -107 -17 -36 -44 -90 -59 -120 -15 -30
-30 -71 -34 -91 -3 -19 -15 -53 -26 -74 -11 -22 -20 -48 -20 -58 0 -10 -20
-78 -45 -151 -24 -73 -52 -164 -61 -202 -8 -38 -18 -81 -21 -97 -3 -15 -18
-40 -34 -55 -16 -15 -29 -34 -29 -43 0 -9 6 -21 13 -27 7 -6 30 -11 52 -11 22
1 60 -4 85 -10 29 -6 59 -7 85 -1 22 5 58 10 81 10 22 0 96 19 165 41 115 38
133 42 254 45 72 2 152 7 180 11 46 8 50 10 52 38 2 17 -3 41 -9 55 -7 14 -22
36 -34 50 -12 14 -40 61 -62 105 -23 44 -57 115 -76 157 -20 43 -36 80 -36 84
0 3 -24 61 -54 128 -29 66 -62 141 -73 166 -11 25 -26 59 -33 75 -6 17 -13 42
-15 56 -2 14 -16 52 -31 85 -16 32 -32 61 -36 62 -4 2 -8 12 -8 23 0 10 -6 19
-14 19z m-11 -160 c3 0 15 -24 29 -52 13 -29 49 -105 79 -168 30 -64 58 -131
62 -150 4 -19 25 -71 47 -115 22 -44 60 -127 84 -185 25 -58 56 -122 69 -142
14 -21 25 -42 25 -47 0 -5 -35 -12 -77 -15 -43 -4 -100 -9 -127 -12 -28 -2
-75 -12 -105 -20 -31 -8 -63 -18 -71 -21 -8 -3 -24 -8 -35 -10 -11 -1 -29 -7
-40 -13 -11 -5 -47 -13 -80 -17 -33 -4 -92 -6 -132 -3 -39 3 -75 8 -79 12 -4
4 -2 39 4 77 7 38 27 109 46 157 19 49 39 109 46 134 7 25 16 55 21 68 5 13 9
34 9 47 0 13 4 26 9 30 5 3 12 20 16 38 4 17 16 52 26 77 11 25 45 97 77 160
31 63 65 127 75 143 10 15 20 27 22 27z"/>
</g>
<g>
<path d="M1570 11918 c-8 0 -27 -3 -41 -5 -24 -4 -27 -9 -32 -61 -3 -31 -5
-151 -3 -267 2 -115 6 -223 9 -240 3 -16 8 -91 12 -165 3 -74 11 -163 17 -197
7 -45 7 -72 -2 -97 -9 -28 -8 -40 4 -64 l15 -29 142 -2 c78 -1 146 -4 150 -6
4 -3 61 -7 127 -10 107 -4 121 -3 136 14 9 10 21 49 26 87 5 38 18 166 29 284
11 118 22 278 26 355 3 77 9 175 13 218 6 63 5 83 -7 100 -9 12 -14 24 -13 27
2 3 -12 8 -30 12 -18 4 -76 10 -128 13 -52 3 -131 7 -175 11 -44 3 -120 9
-170 14 -49 5 -97 9 -105 8z m73 -92 c34 -2 145 -9 247 -15 102 -7 196 -15
209 -17 l24 -5 -6 -127 c-4 -70 -11 -201 -17 -292 -5 -91 -15 -219 -20 -285
-6 -66 -13 -138 -16 -160 -4 -22 -11 -46 -16 -52 -8 -10 -40 -11 -127 -7 -64
3 -161 9 -216 12 l-100 7 -7 100 c-3 55 -12 190 -19 300 -7 110 -13 238 -12
285 0 47 3 124 7 173 l8 87 61 -4z"/>
</g>
<g>
<path d="M9840 11546 c-8 1 -44 -4 -80 -11 -36 -7 -69 -11 -73 -8 -4 3 -29 0
-55 -6 -26 -6 -92 -13 -147 -15 -55 -3 -138 -10 -184 -15 -46 -6 -88 -8 -92
-5 -5 3 -55 -1 -112 -10 -56 -8 -145 -19 -197 -26 -52 -6 -150 -15 -218 -20
-67 -5 -137 -6 -156 -3 -21 3 -46 -1 -64 -10 -17 -8 -36 -11 -43 -6 -7 4 -18
4 -24 -1 -6 -5 -92 -10 -190 -10 -138 -2 -185 -5 -203 -16 l-23 -15 22 -31 22
-30 181 6 c100 3 199 10 221 16 22 5 75 10 117 10 43 0 151 7 240 15 90 9 196
20 236 25 40 6 106 10 145 10 40 0 90 5 112 10 22 5 119 13 215 19 96 6 213
16 259 23 48 7 92 19 104 29 18 14 20 21 12 45 -6 16 -17 29 -25 30z"/>
</g>
<g>
<path d="M3220 11067 c-16 7 -33 7 -46 1 -20 -9 -21 -16 -18 -136 2 -70 4
-174 5 -232 1 -58 6 -111 12 -118 8 -10 34 -12 116 -7 58 4 131 8 161 11 30 2
132 6 225 9 94 3 215 12 270 20 55 8 177 16 270 18 94 3 224 0 290 -5 66 -5
134 -11 150 -13 17 -3 42 -7 56 -11 17 -4 30 0 38 10 12 14 10 41 -8 166 -11
82 -21 167 -21 189 0 30 -4 41 -15 41 -9 0 -15 9 -15 25 0 16 -6 25 -15 25 -9
0 -48 -6 -88 -14 -40 -8 -180 -18 -312 -22 -132 -4 -296 -7 -365 -6 -69 1
-197 3 -285 6 -88 2 -200 7 -250 11 -49 4 -99 10 -110 15 -11 4 -31 12 -45 17z
m1391 -108 c27 1 27 0 38 -101 7 -57 16 -110 21 -119 4 -9 5 -21 1 -28 -6 -10
-38 -10 -147 -1 -76 6 -188 10 -249 9 -60 -1 -159 -6 -220 -11 -60 -5 -127
-13 -148 -19 -20 -5 -104 -12 -185 -14 -81 -3 -221 -10 -311 -16 -90 -5 -164
-9 -166 -7 -2 2 -6 21 -11 43 -4 22 -8 87 -8 145 l-1 105 30 -3 c17 -2 219 -4
450 -5 231 -1 503 0 605 2 102 1 205 7 230 11 25 4 57 8 71 9z"/>
</g>
<g>
<path d="M11906 11029 c-12 -1 -43 -5 -71 -10 -27 -5 -97 -11 -155 -13 -58 -3
-139 -10 -180 -16 -41 -7 -91 -14 -110 -16 -19 -2 -62 -8 -95 -13 -33 -5 -94
-16 -135 -25 -41 -9 -95 -21 -120 -26 -25 -5 -72 -12 -105 -15 -33 -3 -87 -9
-120 -14 -33 -5 -143 -10 -244 -10 -102 -1 -241 -6 -310 -12 -69 -5 -175 -12
-234 -14 -59 -2 -123 -9 -142 -15 -18 -6 -41 -23 -51 -37 -15 -24 -16 -41 -8
-152 4 -69 8 -244 9 -389 1 -216 3 -265 15 -277 11 -10 45 -15 130 -16 62 -2
141 -9 173 -16 32 -8 129 -18 215 -23 87 -6 231 -10 322 -9 91 0 183 4 205 8
22 4 65 3 95 -1 31 -4 128 -4 215 0 88 4 185 4 215 0 30 -3 161 -9 291 -13
174 -5 239 -4 244 5 4 6 6 53 6 103 -1 51 -2 101 -2 112 -1 11 -1 76 -1 145 1
69 1 132 1 140 0 8 5 51 11 95 5 44 11 168 12 276 l1 197 -28 26 c-15 14 -37
25 -49 25z m-6 -84 c4 -2 8 -64 9 -137 1 -73 -3 -200 -9 -283 -5 -82 -11 -238
-13 -345 l-4 -195 -159 0 c-87 0 -190 6 -229 13 -48 8 -113 10 -205 6 -74 -3
-207 -8 -295 -10 -88 -1 -236 -3 -330 -3 -93 -1 -233 6 -310 14 -77 8 -165 19
-195 25 -30 6 -91 13 -135 16 -44 3 -88 10 -97 15 -16 9 -18 29 -18 187 0 97
-3 209 -5 247 -2 39 -7 109 -11 157 l-6 87 38 10 c22 6 68 12 104 15 36 3 99
7 140 10 41 2 140 7 220 11 80 3 217 10 305 16 88 5 189 14 225 18 36 5 99 15
140 21 41 7 84 16 95 21 11 4 67 15 125 24 58 8 130 20 160 25 30 5 100 14
155 19 55 6 143 10 195 11 52 1 96 3 99 5 2 3 7 3 11 0z"/>
</g>
<g>
<path d="M7875 10605 c-66 4 -124 3 -128 -1 -5 -5 -300 -9 -656 -9 -545 0
-651 -2 -665 -14 -10 -9 -16 -25 -14 -42 1 -15 -5 -36 -14 -46 -12 -13 -17
-39 -18 -88 -1 -39 -2 -133 -2 -210 1 -77 0 -210 -1 -295 -1 -85 1 -163 6
-174 7 -17 18 -18 195 -12 103 3 219 12 257 20 39 8 83 17 99 21 17 3 145 8
285 11 141 3 281 7 311 8 30 2 118 7 195 11 77 5 163 9 190 9 28 0 83 -5 123
-10 55 -8 75 -8 83 2 6 8 7 63 3 156 -4 78 -7 168 -7 198 0 30 2 129 5 220 3
91 9 173 13 183 6 14 2 20 -14 24 -11 3 -21 12 -21 20 0 11 -13 14 -52 12 -29
-1 -107 2 -173 6z m-105 -72 c47 -2 128 -7 180 -11 l95 -7 1 -220 c1 -129 6
-237 12 -260 7 -25 9 -64 4 -105 -7 -58 -9 -65 -27 -60 -11 2 -36 4 -55 4 -19
0 -118 -3 -220 -8 -102 -5 -203 -10 -225 -11 -22 -1 -65 -3 -95 -5 -30 -1 -71
-6 -91 -11 -24 -6 -65 -5 -115 3 -44 6 -90 12 -104 12 -14 0 -67 -6 -118 -12
-52 -7 -138 -21 -192 -32 -55 -11 -127 -20 -162 -21 -35 0 -83 2 -108 5 -25 3
-57 5 -73 5 l-27 1 5 228 c3 125 5 234 4 242 0 8 -1 38 -2 65 -1 28 3 74 10
104 6 30 16 58 21 63 5 5 121 12 258 14 137 2 332 4 434 3 102 -1 226 -1 275
-1 50 0 122 5 160 10 39 5 108 7 155 5z"/>
</g>
<g>
<path d="M3108 9650 c-29 -1 -65 -7 -79 -15 -15 -8 -41 -36 -58 -61 -17 -26
-31 -51 -31 -55 0 -3 -12 -11 -27 -17 -16 -5 -57 -17 -93 -25 -36 -9 -85 -23
-110 -32 -25 -9 -68 -27 -95 -41 -28 -13 -92 -52 -142 -87 -49 -34 -107 -77
-128 -94 -21 -18 -43 -33 -50 -33 -6 0 -34 -30 -61 -67 -27 -38 -65 -99 -84
-138 -19 -38 -42 -90 -50 -115 l-16 -45 -65 -8 c-35 -4 -84 -17 -109 -29 -25
-12 -61 -34 -80 -50 -19 -16 -49 -43 -67 -60 -17 -17 -49 -65 -69 -107 -33
-66 -38 -89 -45 -176 -4 -60 -3 -107 3 -118 5 -10 11 -28 14 -40 2 -12 14 -42
26 -66 13 -25 44 -65 69 -91 26 -25 75 -60 110 -77 35 -17 76 -35 90 -41 15
-6 48 -14 75 -18 27 -4 67 -8 89 -8 32 -1 41 -6 51 -26 7 -14 17 -36 23 -50 6
-14 25 -50 42 -80 17 -30 37 -62 45 -71 8 -8 14 -20 14 -26 0 -5 9 -18 20 -28
11 -10 20 -22 20 -27 0 -5 17 -31 38 -56 20 -26 82 -90 136 -144 54 -53 112
-102 127 -108 16 -7 31 -20 34 -30 3 -10 12 -21 20 -24 8 -3 15 -12 15 -21 0
-9 -6 -26 -14 -38 -8 -12 -19 -49 -25 -82 -6 -33 -14 -76 -17 -95 -3 -19 -6
-48 -6 -65 0 -16 3 -55 7 -85 3 -30 14 -90 25 -134 10 -43 25 -85 33 -95 7 -9
19 -30 26 -47 6 -17 22 -40 34 -52 12 -12 36 -33 53 -47 18 -14 39 -25 48 -25
9 0 19 -7 22 -15 3 -8 25 -20 48 -26 22 -6 59 -18 82 -26 29 -10 71 -13 150
-10 60 2 135 11 167 20 32 8 63 20 70 25 7 6 41 22 77 37 36 15 74 35 86 46
11 10 24 19 28 19 4 0 28 16 53 35 25 19 67 59 92 88 26 30 59 74 74 99 16 28
31 75 38 119 6 41 9 114 6 163 -5 68 -12 101 -33 145 -15 31 -54 95 -86 142
-32 48 -70 94 -83 103 l-25 17 27 37 c15 20 42 55 60 76 18 22 62 98 97 170
35 72 73 156 84 186 11 30 26 80 35 110 8 30 18 67 21 82 3 15 14 29 24 32 9
3 46 12 82 20 36 8 86 26 112 41 26 15 62 45 80 68 18 23 46 53 61 66 15 13
35 37 44 55 9 17 16 51 16 76 -1 25 -9 77 -18 115 -10 39 -31 95 -47 125 -17
30 -48 73 -69 95 -21 22 -65 53 -96 69 -32 15 -68 33 -80 39 -12 5 -45 7 -76
4 l-53 -7 -18 58 c-10 31 -24 75 -32 98 -8 22 -22 56 -32 75 -10 18 -40 65
-67 103 -28 38 -81 100 -120 138 -48 48 -92 81 -142 105 -40 19 -92 36 -115
38 -24 2 -62 4 -85 4 -36 1 -44 5 -63 36 -13 21 -39 43 -65 55 -27 12 -65 20
-97 20z m37 -88 c23 -3 47 -14 57 -26 9 -12 17 -38 18 -58 0 -26 -7 -45 -21
-59 -18 -18 -29 -21 -74 -16 -29 3 -62 11 -73 18 -12 7 -26 23 -32 35 -10 17
-8 29 9 62 15 30 28 42 48 45 16 2 46 1 68 -1z m198 -102 c23 0 71 -10 107
-22 36 -12 81 -33 100 -47 19 -14 39 -31 43 -38 4 -7 13 -13 20 -13 7 0 37
-28 67 -62 30 -33 57 -66 59 -72 2 -6 12 -23 22 -38 11 -14 19 -32 19 -39 0
-7 11 -24 24 -38 14 -15 32 -53 40 -86 9 -32 16 -64 16 -70 0 -5 -36 -40 -79
-77 -57 -48 -92 -87 -121 -137 -27 -46 -47 -95 -57 -143 -12 -61 -13 -86 -3
-148 7 -43 23 -94 38 -120 14 -25 34 -54 44 -66 10 -11 44 -32 76 -46 31 -14
76 -32 99 -39 39 -11 42 -15 37 -38 -3 -14 -9 -37 -14 -51 -4 -14 -14 -47 -21
-75 -7 -27 -30 -86 -52 -130 -21 -44 -53 -108 -70 -141 -18 -34 -47 -81 -66
-105 -19 -24 -50 -58 -70 -76 -28 -24 -40 -29 -54 -21 -10 5 -50 18 -90 28
-40 10 -92 20 -117 21 -25 1 -78 -1 -119 -5 -47 -4 -87 -13 -108 -26 -19 -11
-39 -20 -44 -20 -5 0 -51 -20 -102 -44 -68 -33 -106 -59 -146 -100 -29 -31
-58 -56 -65 -56 -6 0 -29 16 -51 36 -22 20 -63 53 -91 75 -29 22 -87 81 -131
132 -44 51 -90 108 -104 127 -13 19 -32 48 -41 65 -10 16 -38 69 -63 117 -25
48 -45 92 -45 97 0 5 21 24 48 43 26 18 65 42 87 53 22 11 59 39 82 62 23 22
52 61 65 85 19 37 22 56 20 134 -1 49 -11 124 -21 166 -11 42 -29 94 -40 115
-11 21 -31 51 -45 67 -15 16 -35 34 -45 40 -11 6 -40 25 -65 43 -30 21 -64 35
-97 39 -48 6 -50 8 -44 32 3 13 25 66 49 116 25 53 62 113 90 143 26 29 82 77
124 107 43 29 101 68 131 86 30 17 98 48 150 67 53 19 123 41 156 48 l60 13
37 -43 c27 -31 52 -47 93 -60 31 -9 66 -15 78 -12 12 3 38 10 57 14 23 6 45
22 67 52 18 23 33 51 33 62 0 16 7 19 43 19z m668 -621 c31 0 72 -5 90 -13 19
-8 57 -37 84 -63 28 -27 58 -63 68 -81 10 -18 15 -32 12 -32 -3 0 1 -10 9 -22
9 -12 16 -33 16 -46 0 -13 4 -31 9 -40 4 -9 11 -29 15 -44 5 -24 -4 -39 -74
-116 -68 -76 -88 -93 -137 -111 -38 -14 -86 -22 -138 -24 -53 -1 -100 4 -140
16 -33 9 -71 25 -85 35 -13 11 -35 45 -48 78 -20 49 -23 71 -19 131 4 47 14
92 30 126 13 29 49 80 81 114 32 35 71 66 89 72 18 5 43 12 57 14 14 2 50 5
81 6z m-1879 -106 c98 -3 114 -6 151 -31 23 -15 61 -46 83 -70 23 -24 44 -53
47 -65 3 -12 12 -41 21 -63 8 -23 18 -82 22 -132 l7 -91 -44 -60 c-24 -33 -50
-61 -58 -61 -8 0 -29 -11 -47 -25 -18 -14 -39 -25 -48 -25 -8 0 -18 -5 -22
-11 -3 -6 -31 -26 -61 -46 -51 -32 -59 -34 -121 -30 -37 2 -83 10 -102 18 -19
8 -56 27 -81 42 -25 15 -60 42 -77 61 -17 19 -40 52 -51 74 -11 22 -24 65 -27
95 -5 38 -1 78 11 129 10 40 23 80 30 88 6 8 17 29 24 47 7 18 33 49 58 69 24
20 74 49 110 64 60 26 72 27 175 23z m1184 -1248 c6 -2 42 -6 80 -10 41 -5 88
-17 116 -32 26 -13 52 -31 59 -39 6 -8 16 -14 21 -14 5 0 27 -19 48 -42 22
-24 40 -47 40 -52 0 -5 15 -27 34 -50 18 -23 41 -57 51 -76 10 -19 20 -64 23
-100 2 -36 -1 -99 -7 -139 -7 -41 -21 -93 -31 -115 -11 -23 -34 -60 -51 -84
-17 -23 -63 -66 -102 -94 -40 -27 -101 -64 -137 -80 -36 -17 -90 -38 -120 -48
-30 -10 -81 -23 -113 -30 -46 -9 -78 -9 -145 1 -62 8 -103 21 -143 43 -31 17
-73 51 -94 75 -20 25 -49 70 -65 100 -15 31 -32 88 -38 126 -6 39 -13 87 -16
109 -3 21 2 75 10 119 11 59 27 100 60 156 24 42 50 83 57 92 6 9 32 28 56 43
24 16 65 39 90 53 25 13 73 36 106 50 33 13 92 28 130 32 39 5 75 7 81 6z"/>
</g>
<g>
<path d="M9315 8734 c-11 3 -28 1 -38 -5 -10 -6 -24 -9 -30 -6 -7 2 -39 1 -72
-4 -33 -4 -114 -12 -180 -18 -66 -6 -158 -13 -205 -16 -47 -3 -111 -10 -142
-16 -31 -5 -87 -12 -125 -14 -37 -3 -75 -7 -83 -10 -8 -2 -58 -7 -110 -10 -52
-4 -124 -10 -160 -15 -36 -5 -87 -12 -115 -15 -27 -3 -90 -10 -140 -16 -49 -6
-101 -12 -115 -15 -14 -2 -86 -7 -160 -10 -74 -3 -148 -10 -165 -14 -16 -5
-111 -11 -210 -14 -99 -3 -217 -9 -262 -12 -46 -4 -87 -12 -92 -18 -5 -6 -10
-74 -10 -151 -1 -77 -1 -163 -1 -192 0 -29 5 -74 11 -100 6 -27 10 -120 10
-208 -1 -88 3 -223 8 -300 6 -77 13 -214 17 -305 3 -91 7 -385 9 -655 2 -269
4 -502 4 -517 1 -20 6 -28 19 -28 10 0 45 7 77 16 33 8 85 16 115 16 30 1 66
5 79 10 13 4 132 8 265 8 132 0 310 -2 394 -4 152 -3 153 -3 182 -31 17 -17
35 -25 44 -22 9 4 16 13 16 21 0 8 8 17 18 20 9 3 35 5 57 5 22 0 74 -1 115
-1 41 -1 182 0 313 2 130 1 240 6 243 11 3 5 15 3 27 -3 16 -10 102 -13 327
-13 168 0 350 2 405 4 55 3 103 6 106 8 4 2 73 5 154 8 81 3 175 8 209 10 33
2 66 5 72 5 6 0 16 16 22 36 9 29 7 58 -8 143 -10 58 -23 147 -29 196 -7 50
-16 124 -21 165 -5 41 -12 106 -16 143 -6 64 -5 69 15 74 19 5 21 10 15 42 -4
20 -9 39 -11 44 -2 4 -13 7 -24 7 -15 0 -19 7 -20 38 -1 20 -1 189 0 374 0
205 4 345 10 356 7 13 7 22 -1 30 -8 8 -11 58 -9 154 1 79 4 166 7 193 3 28 7
115 10 195 2 80 9 170 14 200 6 30 7 81 4 114 -5 38 -14 66 -28 81 l-21 23
-385 0 c-212 0 -394 3 -405 6z m328 -89 c349 -1 420 -4 428 -16 6 -9 7 -51 2
-109 -4 -52 -7 -117 -7 -145 0 -27 1 -81 3 -120 2 -38 -2 -108 -9 -155 -7 -50
-9 -125 -6 -181 l6 -96 -43 -8 c-23 -4 -51 -9 -62 -10 -11 -2 -67 -8 -125 -14
-58 -7 -193 -12 -300 -11 -107 0 -239 2 -294 5 -54 2 -100 6 -101 7 -1 2 3
107 8 233 6 127 11 298 11 380 1 83 2 169 4 192 2 39 4 42 35 46 17 2 220 3
450 2z m-597 -7 c12 1 27 -5 34 -13 8 -10 12 -45 10 -107 -1 -51 -4 -147 -5
-213 -2 -66 -6 -210 -9 -319 -4 -110 -8 -201 -9 -203 -2 -1 -196 -4 -433 -7
-236 -2 -442 -5 -459 -7 l-30 -4 -7 75 c-4 41 -9 107 -12 145 -3 39 -8 99 -11
135 -4 36 -8 126 -11 200 -2 74 -4 144 -4 155 1 11 1 32 2 47 1 23 6 28 32 32
17 3 58 7 91 10 33 3 103 10 155 16 52 5 133 12 180 16 47 3 103 11 125 16 22
6 108 14 190 18 83 4 160 8 171 8z m-1033 -99 c27 1 27 1 28 -71 1 -40 1 -125
1 -188 -1 -63 8 -202 19 -309 11 -107 18 -200 15 -207 -3 -7 -24 -15 -48 -19
-24 -3 -113 -8 -198 -10 -85 -2 -184 -6 -220 -8 -36 -3 -94 -8 -128 -11 -35
-3 -69 -9 -75 -13 -7 -4 -25 -8 -42 -9 -16 0 -103 -2 -193 -3 -90 -2 -165 -1
-167 1 -2 1 -6 77 -8 168 -3 91 -10 189 -16 219 -6 30 -13 84 -16 120 -3 36
-7 103 -9 148 -4 58 -1 84 8 92 7 6 53 11 102 12 49 1 116 5 149 10 33 5 87
12 120 15 33 2 96 9 140 14 44 5 116 10 160 11 44 1 141 10 215 20 74 9 147
18 163 18z m2036 -815 c3 -3 6 -176 6 -383 l0 -378 -235 1 c-129 1 -332 -3
-452 -7 l-216 -8 -4 58 c-2 32 0 64 5 70 6 8 5 29 -1 55 -6 23 -9 45 -6 50 3
5 0 42 -6 83 -6 41 -12 137 -12 212 -1 76 0 157 1 181 l1 42 253 -2 c138 -1
304 0 367 4 63 3 153 9 200 13 47 4 87 9 89 11 2 2 7 1 10 -2z m-1356 -27
l377 2 1 -207 c0 -114 2 -216 5 -227 2 -11 7 -85 11 -163 5 -118 4 -145 -8
-153 -8 -4 -147 -6 -309 -4 -162 2 -324 8 -360 13 -36 5 -74 9 -85 9 -11 0
-54 0 -96 1 l-77 2 4 351 c2 194 5 353 7 355 2 3 37 8 78 12 41 4 244 8 452 9z
m-637 -27 c17 0 25 -9 34 -35 6 -19 8 -44 5 -55 -4 -12 -7 -154 -7 -316 0
-161 -3 -296 -8 -299 -5 -3 -116 -10 -247 -16 -131 -5 -251 -11 -268 -13 -16
-2 -104 -7 -195 -12 -91 -5 -183 -8 -205 -8 -22 0 -65 4 -97 8 l-56 7 -2 297
c-2 163 -3 313 -4 332 l-1 35 141 6 c77 4 151 10 165 15 13 4 43 7 67 6 23 0
42 3 42 8 0 4 20 8 45 8 24 0 49 3 55 7 6 4 121 8 256 10 135 1 248 6 251 9 4
3 16 6 29 6z m1731 -782 c81 -3 177 -9 213 -13 36 -4 68 -12 72 -18 4 -6 5
-14 2 -18 -2 -4 2 -36 11 -71 8 -35 14 -108 13 -165 0 -57 4 -115 10 -130 6
-16 18 -71 26 -124 9 -53 16 -108 16 -123 0 -18 -6 -26 -17 -27 -10 -1 -38 -3
-63 -5 -25 -1 -75 -3 -112 -3 -37 -1 -109 -5 -160 -11 -51 -6 -206 -12 -345
-13 -139 -1 -254 1 -257 4 -3 3 -10 36 -15 74 -5 39 -15 142 -21 230 -6 88
-12 211 -14 273 -2 64 1 115 6 118 5 3 46 8 91 10 45 2 148 4 228 5 81 1 151
4 157 8 5 3 77 3 159 -1z m-1755 -8 c33 0 38 -3 38 -22 1 -13 3 -48 6 -78 3
-30 4 -93 3 -140 -2 -47 -3 -171 -3 -275 l0 -191 -100 3 c-56 1 -239 3 -408 3
-169 1 -312 -2 -319 -6 -6 -4 -60 -8 -118 -10 l-106 -3 -2 172 c-1 95 -5 233
-9 307 -3 74 -7 149 -7 165 l-2 30 85 1 c47 1 162 5 255 9 94 4 186 9 205 11
19 2 125 7 235 10 110 3 202 7 204 10 2 2 22 4 43 4z m266 -5 c86 -4 300 -8
475 -9 313 -1 318 -1 312 -21 -4 -11 -7 -27 -6 -35 0 -8 3 -107 6 -220 3 -113
10 -252 15 -310 4 -58 6 -108 4 -111 -2 -4 -59 -4 -126 -1 -68 3 -134 5 -148
5 -14 -1 -170 -2 -348 -3 -177 -2 -324 -1 -326 1 -2 2 -6 137 -10 299 -4 162
-7 302 -8 310 -1 8 0 35 0 59 l2 43 158 -7z"/>
<g>
<path d="M9620 8508 c-14 -1 -43 -3 -65 -5 -22 -3 -44 -9 -49 -14 -6 -5 -18
-9 -27 -9 -9 0 -33 -18 -52 -39 -20 -22 -43 -50 -51 -64 -9 -13 -24 -53 -34
-88 -14 -53 -15 -74 -7 -119 6 -30 15 -64 20 -75 5 -11 18 -29 30 -40 12 -11
35 -29 51 -41 16 -12 39 -24 50 -28 11 -3 47 -9 80 -12 32 -3 75 -9 94 -14 19
-5 55 -5 80 -1 25 4 64 20 88 36 24 16 52 46 63 67 11 21 22 64 25 97 4 33 1
88 -6 125 -8 42 -23 81 -41 105 -15 22 -49 52 -73 66 -25 15 -69 33 -98 41
-29 7 -64 13 -78 12z m13 -93 c38 -3 83 -11 100 -19 18 -7 42 -24 54 -37 11
-13 31 -43 43 -67 19 -36 22 -54 18 -110 -4 -60 -9 -71 -38 -101 -18 -18 -44
-37 -57 -42 -13 -5 -42 -9 -63 -9 -22 0 -63 5 -92 11 -29 6 -69 19 -88 29 -19
10 -43 21 -52 24 -9 3 -24 16 -32 29 -9 13 -19 44 -22 69 -5 35 -1 55 15 89
12 24 28 56 36 70 8 15 21 31 27 37 7 6 29 15 48 21 19 6 66 8 103 6z"/>
</g>
<g>
<path d="M8621 8439 c-9 -1 -37 -7 -62 -14 -26 -7 -67 -25 -90 -39 -24 -14
-60 -40 -80 -58 -25 -22 -40 -47 -47 -77 -7 -28 -7 -53 -1 -68 5 -13 9 -35 9
-47 0 -13 13 -41 28 -62 16 -21 48 -52 71 -68 24 -17 55 -31 69 -33 15 -1 48
-7 73 -13 42 -10 52 -8 103 16 33 15 73 46 96 72 22 24 44 61 50 81 5 20 10
48 10 63 0 15 -7 49 -16 75 -10 29 -34 66 -62 95 -28 29 -63 53 -91 63 -24 8
-52 14 -60 14z m24 -95 c16 -2 42 -10 56 -16 14 -6 38 -33 52 -59 23 -41 26
-52 18 -92 -4 -24 -18 -59 -30 -76 -12 -17 -42 -39 -66 -50 -41 -18 -45 -18
-106 -2 -35 10 -73 22 -84 28 -11 6 -32 24 -46 40 -16 16 -30 46 -34 69 -6 40
-5 43 46 87 28 25 65 48 83 53 17 4 42 11 56 15 14 4 38 5 55 3z"/>
</g>
<g>
<path d="M7542 8348 c-13 -1 -49 -9 -81 -18 -31 -8 -68 -24 -82 -35 -13 -12
-30 -30 -37 -40 -6 -11 -23 -43 -37 -71 -19 -41 -24 -63 -21 -116 2 -49 8 -72
27 -97 13 -18 37 -42 54 -55 16 -13 46 -27 65 -31 19 -4 67 -8 106 -8 62 0 76
3 114 29 24 16 57 52 74 79 23 38 31 65 34 115 2 36 -1 85 -8 110 -8 29 -26
57 -52 82 -23 21 -46 37 -52 36 -6 -1 -27 3 -46 10 -19 6 -45 11 -58 10z m-2
-90 c41 2 67 -2 91 -16 19 -10 42 -34 52 -53 13 -25 16 -46 11 -79 -4 -25 -15
-61 -26 -81 -11 -20 -32 -43 -47 -52 -15 -8 -55 -22 -90 -30 l-62 -15 -47 32
c-26 17 -52 42 -59 56 -7 14 -13 43 -13 65 0 23 10 57 23 79 13 23 41 51 66
66 31 17 62 26 101 28z"/>
</g>
<g>
<path d="M9650 7652 c-25 2 -76 -4 -113 -13 -37 -9 -81 -22 -97 -29 -16 -7
-47 -35 -68 -64 -21 -28 -44 -61 -50 -73 -7 -12 -12 -47 -12 -79 0 -42 7 -71
28 -112 15 -30 44 -72 65 -94 21 -22 54 -46 72 -54 19 -8 53 -14 75 -14 22 0
57 9 77 20 21 11 45 20 54 20 9 0 36 9 61 20 24 10 52 27 61 37 9 10 25 39 36
63 13 29 21 66 21 105 0 33 -7 85 -15 115 -10 39 -24 63 -47 83 -18 16 -49 37
-68 46 -19 10 -55 20 -80 23z m-42 -83 c30 1 68 -6 86 -14 18 -9 47 -31 65
-51 33 -35 34 -36 29 -110 -5 -70 -8 -78 -39 -109 -24 -22 -59 -40 -116 -59
-46 -14 -91 -23 -100 -20 -10 4 -34 13 -53 21 -19 9 -43 22 -52 30 -10 9 -27
34 -39 56 -15 29 -20 53 -16 79 3 20 19 57 37 81 17 24 48 52 68 63 20 10 46
21 57 25 11 4 44 7 73 8z"/>
</g>
<g>
<path d="M8580 7615 c-104 4 -119 2 -156 -18 -22 -12 -54 -33 -72 -46 -17 -14
-35 -34 -38 -45 -4 -12 -14 -29 -23 -40 -11 -13 -16 -36 -15 -82 0 -36 6 -70
12 -76 7 -7 12 -22 12 -34 0 -13 22 -47 52 -80 29 -31 71 -65 93 -75 22 -10
49 -19 60 -19 11 0 33 -7 49 -15 15 -8 37 -15 48 -15 10 0 48 14 82 30 46 22
72 43 96 77 18 25 39 71 46 102 8 31 14 75 14 97 0 23 -7 61 -15 85 -9 24 -27
60 -40 81 -13 20 -39 44 -57 53 -23 12 -66 18 -148 20z m5 -79 c52 -1 99 -8
110 -15 11 -7 33 -32 49 -55 22 -30 30 -53 31 -86 0 -26 -9 -68 -23 -100 -12
-30 -37 -68 -55 -84 -18 -15 -42 -32 -54 -37 -13 -5 -44 -7 -70 -5 -27 2 -68
13 -93 24 -25 11 -60 36 -77 55 -18 20 -37 53 -42 74 -6 21 -11 59 -11 86 0
40 5 53 33 83 17 19 50 41 72 49 26 9 72 13 130 11z"/>
</g>
<g>
<path d="M7565 7546 c-38 2 -89 -2 -111 -9 -23 -7 -49 -18 -58 -26 -10 -8 -23
-26 -31 -41 -8 -15 -21 -57 -30 -95 -8 -37 -12 -77 -8 -89 3 -12 6 -32 4 -46
-1 -17 7 -32 26 -47 15 -13 53 -41 83 -63 30 -23 65 -43 78 -47 12 -3 47 -2
77 2 30 3 68 16 86 28 18 12 46 39 63 60 27 34 31 48 34 112 4 62 0 82 -19
122 -12 26 -31 59 -41 72 -10 14 -33 33 -51 44 -21 13 -55 21 -102 23z m-5
-78 c8 1 34 -7 57 -17 30 -14 48 -31 64 -63 16 -30 22 -59 21 -97 -1 -29 -4
-62 -7 -72 -4 -11 -24 -29 -46 -40 -23 -11 -61 -21 -87 -21 -37 -1 -58 6 -99
33 -33 22 -56 45 -63 65 -7 20 -7 46 0 82 5 29 14 60 19 70 5 9 17 25 28 34
10 9 36 18 58 21 22 2 47 4 55 5z"/>
</g>
<g>
<path d="M9559 6759 c-8 0 -26 -6 -41 -13 -15 -6 -38 -22 -52 -35 -14 -13 -43
-60 -64 -105 -21 -44 -43 -94 -47 -111 -4 -16 -7 -40 -6 -51 1 -12 10 -43 19
-69 10 -27 28 -56 42 -66 14 -11 50 -26 80 -35 30 -9 71 -18 90 -21 22 -3 58
3 94 16 32 11 73 32 92 46 19 14 44 45 56 68 16 31 23 65 26 135 4 87 3 94
-19 117 -13 13 -37 37 -53 53 -19 20 -46 33 -85 41 -31 7 -70 16 -87 22 -17 5
-37 9 -45 8z m61 -104 c19 -2 50 -7 68 -11 18 -4 46 -19 62 -34 26 -25 30 -35
30 -83 0 -31 -5 -68 -11 -84 -6 -15 -20 -39 -32 -51 -12 -13 -35 -31 -52 -39
-16 -9 -56 -16 -90 -16 -33 -1 -70 2 -82 5 -12 4 -31 12 -42 18 -12 6 -28 22
-37 36 -13 18 -15 36 -10 76 4 28 18 72 31 97 13 26 31 53 40 61 9 7 33 17 53
21 20 4 53 6 72 4z"/>
</g>
<g>
<path d="M7575 6672 c-22 3 -51 3 -65 1 -14 -2 -34 -8 -45 -13 -11 -4 -39 -16
-62 -26 -24 -10 -46 -28 -53 -43 -7 -14 -16 -33 -21 -41 -5 -8 -12 -22 -15
-30 -3 -8 -9 -22 -13 -30 -5 -9 -5 -36 -1 -60 4 -25 11 -53 15 -64 5 -10 35
-36 68 -57 51 -33 68 -39 114 -39 31 0 68 7 86 16 18 10 47 28 65 42 18 14 43
43 54 66 12 24 21 60 21 91 1 29 -7 73 -17 99 -14 35 -27 51 -54 65 -21 10
-55 20 -77 23z m-40 -85 c11 1 35 -1 53 -3 27 -4 36 -12 48 -39 8 -19 14 -50
14 -70 0 -28 -9 -45 -38 -77 -34 -36 -45 -42 -93 -45 -30 -3 -66 0 -81 6 -16
6 -37 25 -48 43 -11 18 -20 47 -20 65 0 25 10 40 46 72 25 22 58 41 72 43 15
2 36 4 47 5z"/>
</g>
<g>
<path d="M8626 6739 c-50 0 -107 -6 -126 -13 -19 -6 -48 -17 -65 -24 -16 -7
-40 -27 -51 -45 -12 -17 -30 -66 -39 -108 -13 -53 -16 -92 -11 -131 7 -51 12
-60 49 -90 23 -18 53 -39 67 -45 14 -6 42 -17 62 -23 22 -7 61 -8 98 -4 36 4
89 20 129 39 59 29 70 39 90 79 16 35 22 66 22 126 1 76 -1 81 -40 138 -22 33
-52 70 -67 81 -23 18 -40 21 -118 20z m-4 -82 c62 -2 71 -6 102 -36 20 -19 42
-53 50 -76 8 -26 10 -48 5 -56 -5 -8 -9 -28 -9 -46 0 -24 -9 -39 -37 -62 -23
-19 -54 -33 -82 -38 -25 -4 -64 -6 -87 -6 -22 1 -58 9 -80 18 -21 9 -49 26
-61 37 -15 14 -23 33 -23 53 0 17 7 54 15 81 8 27 26 61 40 77 13 15 41 34 62
41 22 9 66 14 105 13z"/>
</g>
</g>
<g>
<path d="M12616 8700 c-2 0 -5 -2 -7 -5 -3 -2 -68 -9 -144 -15 -77 -7 -153
-12 -170 -12 -16 0 -124 0 -239 1 -130 1 -213 -3 -221 -9 -7 -6 -10 -22 -7
-38 2 -15 8 -31 12 -37 4 -5 4 -125 -1 -265 -5 -140 -11 -307 -14 -370 -3 -63
-8 -137 -10 -165 -3 -27 -7 -278 -9 -558 -3 -442 -1 -509 12 -520 12 -9 95
-11 356 -9 188 1 388 -2 446 -6 79 -7 113 -6 138 4 17 7 32 18 32 24 0 5 -4
18 -9 28 -5 9 -19 60 -31 113 -18 82 -21 122 -19 280 2 101 2 222 1 269 -1 47
-7 117 -13 155 -6 39 -13 159 -14 267 -2 111 -8 206 -14 217 -6 11 -11 105
-12 228 -1 114 -5 233 -9 265 -3 31 -2 66 2 78 6 17 2 28 -23 51 -17 16 -32
29 -33 29z m-64 -102 l38 2 -1 -62 c-1 -35 -1 -100 0 -144 0 -45 5 -121 11
-170 7 -49 13 -129 15 -179 3 -49 6 -121 9 -160 3 -38 8 -135 11 -215 4 -79 9
-149 12 -154 3 -5 7 -135 8 -290 1 -220 5 -297 18 -352 9 -40 18 -77 19 -83 2
-9 -45 -12 -182 -10 -102 1 -286 2 -410 3 l-225 1 2 455 c2 269 9 557 18 705
9 138 15 291 14 340 -1 50 2 131 6 181 4 51 11 98 16 105 6 11 68 15 296 19
158 4 305 7 325 8z"/>
</g>
<g>
<path d="M8990 5358 c-52 0 -108 -3 -125 -5 -16 -2 -75 -15 -130 -28 -55 -13
-124 -36 -152 -50 -29 -14 -60 -25 -68 -25 -8 0 -34 -7 -57 -16 -24 -9 -65
-25 -93 -36 -27 -11 -59 -24 -70 -29 -11 -4 -31 -11 -45 -15 -14 -4 -61 -24
-105 -45 -44 -21 -97 -54 -119 -73 -21 -20 -44 -36 -50 -36 -6 0 -23 -11 -38
-25 -15 -14 -31 -25 -36 -25 -5 0 -30 -21 -56 -47 -27 -26 -60 -63 -74 -82
-14 -20 -47 -59 -72 -87 -25 -29 -57 -67 -73 -84 -15 -18 -48 -65 -73 -104
-26 -39 -55 -82 -65 -96 -11 -14 -29 -45 -40 -70 -11 -25 -33 -72 -49 -105
-15 -33 -37 -82 -48 -110 -11 -27 -29 -81 -40 -120 -11 -38 -25 -104 -31 -145
-6 -41 -10 -106 -10 -145 1 -46 -4 -80 -15 -100 -9 -16 -16 -35 -16 -41 0 -7
6 -14 14 -17 8 -3 16 -29 21 -64 4 -32 15 -76 24 -98 10 -23 28 -74 41 -115
13 -41 45 -117 72 -169 27 -52 62 -110 77 -130 15 -20 46 -61 69 -91 22 -30
72 -88 110 -127 39 -40 74 -73 79 -73 4 0 25 -11 45 -25 20 -14 48 -25 61 -25
14 0 27 -7 31 -15 3 -8 12 -15 20 -15 9 0 35 -8 58 -19 24 -10 66 -26 93 -35
28 -9 65 -17 83 -19 17 -2 35 -7 39 -10 3 -4 32 -7 64 -7 48 0 60 -4 69 -20 6
-11 19 -20 30 -20 10 0 23 7 28 16 8 14 34 16 187 15 98 0 183 3 189 8 6 4 25
12 41 16 17 4 73 11 125 16 52 5 138 13 190 19 52 6 124 16 160 23 36 7 79 20
95 29 17 10 57 31 90 48 33 17 83 46 112 63 28 18 71 50 95 72 24 21 69 61
100 87 31 26 62 48 67 48 6 0 39 28 74 63 35 34 95 109 133 166 38 57 87 133
109 170 22 36 55 88 73 115 17 28 32 58 32 69 0 10 7 56 17 103 12 64 20 85
35 90 15 4 18 13 15 44 -2 21 -10 46 -18 56 -10 12 -12 35 -9 83 3 36 5 100 5
141 0 41 -2 104 -4 140 -3 35 -10 88 -17 116 -6 29 -15 57 -18 63 -4 5 -11 35
-17 66 -6 31 -19 65 -29 75 -11 11 -23 32 -26 47 -4 16 -20 49 -36 74 -15 25
-28 49 -28 52 0 4 -17 32 -38 64 -20 32 -48 69 -62 83 -14 14 -54 59 -90 100
-36 40 -83 94 -105 118 -22 25 -66 62 -98 83 -31 20 -83 45 -115 54 -31 10
-70 23 -87 31 -16 7 -61 18 -100 24 -38 6 -85 18 -102 27 -18 8 -39 13 -47 10
-8 -3 -20 0 -26 8 -6 7 -25 15 -43 18 -18 3 -50 10 -72 16 -22 6 -83 10 -135
9z m90 -79 c30 -3 62 -8 70 -12 8 -3 28 -8 43 -12 l29 -6 -7 -272 c-4 -150 -6
-308 -6 -352 1 -44 -2 -86 -7 -93 -7 -11 -21 -11 -73 -2 -35 7 -116 11 -179
11 -63 -1 -128 -4 -145 -6 -16 -3 -102 -9 -190 -15 -88 -5 -181 -10 -206 -10
l-46 0 -8 163 c-5 89 -9 225 -9 302 l-1 139 41 16 c23 8 47 20 55 25 8 6 46
20 84 33 39 12 92 28 118 37 26 8 56 15 66 15 9 0 37 7 62 15 24 8 91 18 149
23 58 4 130 4 160 1z m239 -65 c9 -4 42 -11 74 -15 32 -5 84 -17 116 -28 32
-10 82 -30 112 -45 30 -14 75 -43 100 -64 26 -21 77 -73 113 -115 37 -41 70
-77 74 -79 4 -2 34 -39 68 -83 34 -44 80 -115 103 -157 24 -43 40 -81 37 -86
-3 -5 -35 -5 -73 0 -37 5 -117 7 -178 5 -60 -3 -153 -8 -206 -10 -52 -3 -99
-7 -105 -8 -5 -1 -71 -1 -146 0 l-137 1 -7 37 c-4 21 -7 53 -7 73 0 19 3 70 6
112 3 43 8 82 11 87 4 5 8 85 10 178 2 92 7 176 11 186 5 12 13 16 24 11z
m-1054 -137 c6 -2 12 -77 16 -183 3 -98 9 -222 13 -274 4 -52 3 -101 -2 -108
-5 -7 -36 -15 -73 -17 -35 -2 -93 -7 -129 -10 -36 -3 -74 -9 -85 -12 -11 -4
-31 -8 -45 -10 -14 -2 -92 -8 -175 -14 -109 -8 -160 -16 -189 -30 -24 -11 -44
-15 -49 -10 -5 5 -5 17 2 28 5 11 26 40 46 64 19 24 45 55 56 68 11 13 35 42
54 66 19 23 35 46 35 51 0 5 25 34 55 64 30 30 55 61 55 70 1 8 46 44 102 80
55 36 105 67 111 69 6 2 20 13 32 23 11 11 52 35 90 54 39 18 75 32 80 31z
m634 -611 c3 -2 58 -7 121 -11 63 -4 131 -8 150 -9 l35 -1 2 -333 3 -332 -63
-1 c-34 -1 -78 -1 -97 -1 -19 1 -127 2 -239 1 -112 0 -262 -4 -334 -10 -71 -5
-132 -7 -134 -5 -3 2 -5 87 -5 188 -1 101 2 249 6 330 8 142 9 148 30 147 11
-1 50 1 86 5 36 3 124 8 195 11 72 4 152 8 178 9 26 2 51 6 54 10 3 3 9 4 12
2z m933 -12 c286 0 312 -2 324 -18 7 -10 19 -41 28 -70 8 -28 19 -87 25 -131
6 -44 11 -120 10 -170 0 -49 -4 -116 -8 -147 -4 -32 -10 -60 -13 -63 -3 -3
-120 -8 -259 -10 -140 -2 -297 -9 -349 -15 -52 -6 -117 -13 -145 -16 -27 -2
-75 -8 -104 -14 -31 -6 -59 -6 -64 -1 -4 4 -9 152 -10 327 l-2 319 87 -2 c47
-1 105 1 128 5 23 4 181 7 352 6z m-1554 -35 c11 1 12 -59 8 -325 -2 -179 -7
-328 -9 -330 -2 -3 -29 -7 -58 -9 -30 -3 -112 -10 -184 -16 -71 -6 -159 -12
-195 -15 -36 -2 -76 -6 -90 -9 -14 -3 -83 -12 -155 -20 -71 -8 -157 -15 -190
-15 -55 0 -61 2 -72 26 -9 19 -9 32 -2 46 5 10 9 47 9 81 -1 34 2 85 5 112 4
28 16 64 25 80 10 17 28 61 39 99 12 38 33 95 47 127 22 49 30 58 57 62 18 2
64 12 102 21 39 9 102 19 140 22 39 2 131 13 205 24 74 11 173 24 220 29 47 4
91 9 98 10z m1732 -661 l185 -3 -3 -50 c-1 -27 -16 -85 -33 -128 -17 -42 -49
-108 -71 -145 -23 -37 -69 -110 -104 -162 -35 -52 -89 -122 -122 -155 -32 -33
-73 -71 -92 -85 -18 -14 -68 -57 -111 -96 -43 -39 -115 -92 -159 -118 -44 -25
-85 -46 -92 -46 -6 0 -22 -9 -34 -20 -14 -14 -37 -22 -65 -23 l-44 -2 1 165
c1 91 6 190 12 220 7 38 8 138 1 320 -5 145 -5 268 -1 272 5 5 58 15 118 23
60 7 179 17 264 20 85 4 157 9 160 11 2 3 87 3 190 2z m-1090 -53 c36 -3 74
-5 85 -5 11 0 60 -1 110 -1 49 0 90 -1 91 -2 1 -1 5 -63 10 -137 4 -74 8 -184
8 -245 0 -60 -6 -180 -13 -265 -7 -85 -14 -200 -15 -255 l-1 -100 -105 -13
c-58 -8 -134 -15 -170 -17 -36 -2 -92 -9 -125 -16 -33 -7 -64 -15 -70 -19 -5
-4 -87 -10 -182 -14 l-172 -7 -6 24 c-4 13 -7 84 -7 158 0 74 -1 229 0 344 0
116 -1 284 -1 375 l-2 165 50 7 c28 4 129 9 225 10 96 1 186 5 200 9 14 5 54
6 90 4z m-653 -31 c7 0 15 -3 18 -5 3 -3 5 -140 5 -305 0 -164 -1 -310 -2
-324 -1 -14 0 -92 0 -175 1 -82 1 -157 1 -165 -1 -8 2 -27 6 -42 6 -25 5 -28
-19 -28 -15 0 -42 6 -61 14 -31 13 -36 13 -43 -1 -7 -11 -14 -13 -28 -5 -10 5
-37 13 -59 17 -22 5 -44 9 -50 11 -5 1 -34 11 -63 22 -29 10 -58 24 -65 31 -6
6 -17 11 -24 11 -7 0 -32 10 -55 22 -24 12 -70 50 -104 83 -33 33 -76 80 -95
105 -19 24 -42 53 -51 62 -10 10 -18 22 -18 27 0 5 -7 16 -15 25 -9 8 -47 78
-84 154 -48 95 -77 171 -95 242 -14 57 -26 111 -26 121 0 11 3 19 8 20 4 0 27
2 52 5 25 2 119 11 210 20 91 8 179 19 195 23 17 5 59 9 95 10 36 0 103 5 150
11 47 6 112 12 145 13 33 1 65 2 72 1z"/>
</g>
<g>
<path d="M2790 4113 c-69 2 -163 -1 -210 -7 -47 -7 -98 -17 -115 -24 -16 -7
-41 -17 -55 -22 -14 -5 -61 -19 -105 -30 -44 -12 -101 -27 -127 -34 -25 -7
-59 -21 -74 -32 -14 -10 -35 -24 -46 -30 -11 -6 -31 -23 -46 -36 -15 -14 -38
-28 -52 -32 -14 -3 -69 -44 -123 -91 -53 -47 -132 -129 -175 -181 -42 -53 -89
-114 -105 -137 -15 -23 -32 -43 -37 -45 -6 -2 -10 -8 -10 -14 0 -6 -13 -27
-28 -47 -15 -20 -42 -67 -59 -106 -17 -38 -45 -110 -62 -158 -17 -48 -36 -97
-41 -108 -6 -11 -20 -52 -30 -91 -10 -40 -17 -75 -15 -79 3 -3 -2 -26 -10 -50
-8 -24 -18 -77 -23 -118 -5 -43 -5 -130 0 -205 6 -72 14 -138 18 -147 5 -9 12
-34 15 -55 4 -22 21 -82 37 -134 17 -52 34 -99 38 -105 4 -5 17 -36 29 -67 13
-32 29 -62 37 -69 8 -6 14 -18 14 -26 0 -8 10 -28 23 -43 12 -16 37 -49 55
-73 17 -24 32 -47 32 -50 0 -3 14 -21 31 -39 17 -18 39 -49 50 -68 11 -19 32
-55 47 -80 16 -25 55 -67 88 -93 32 -27 77 -61 98 -75 22 -15 51 -35 65 -44
14 -9 58 -35 96 -57 39 -22 90 -47 115 -56 25 -9 54 -21 65 -26 11 -5 56 -13
100 -18 44 -6 102 -13 129 -17 40 -6 45 -9 30 -17 -10 -6 -31 -13 -47 -16 -15
-3 -29 -10 -30 -16 -1 -5 25 -13 58 -17 32 -4 73 -12 90 -18 16 -5 71 -12 121
-15 59 -4 128 -1 200 9 60 9 136 23 169 32 33 8 76 19 95 23 19 4 58 20 87 34
29 15 56 27 61 27 6 0 64 36 131 81 66 44 131 94 143 110 13 17 32 41 43 53
11 12 44 55 73 94 28 40 52 74 52 76 0 2 20 34 45 72 25 37 45 72 45 76 0 5
16 31 35 59 19 28 35 60 35 70 0 11 6 22 14 25 8 3 19 25 25 48 6 24 17 49 26
56 8 7 15 20 15 29 0 9 6 25 13 36 8 11 22 43 32 70 10 28 22 55 26 60 4 6 13
30 19 55 7 25 19 92 26 150 8 58 18 132 24 165 6 33 13 114 17 180 3 74 1 152
-7 205 -7 47 -17 93 -22 103 -5 10 -20 62 -34 114 -13 53 -28 101 -33 107 -5
6 -12 22 -16 36 -4 14 -27 71 -51 127 -24 57 -56 122 -71 145 -15 24 -55 77
-89 118 -34 41 -84 95 -111 120 -28 25 -74 63 -102 85 -29 22 -66 51 -84 65
-18 14 -41 31 -52 37 -11 7 -47 26 -80 42 -33 16 -102 46 -153 66 -51 20 -116
39 -145 41 -29 3 -70 7 -92 9 -22 2 -96 6 -165 8z m-70 -85 c14 1 84 -3 155
-8 72 -6 148 -12 170 -14 22 -2 64 -13 93 -25 29 -12 59 -21 68 -21 8 0 32
-11 54 -25 22 -14 45 -25 53 -25 7 0 47 -25 89 -55 42 -30 79 -55 83 -55 4 0
35 -23 69 -52 33 -29 73 -64 88 -78 14 -14 58 -66 97 -115 40 -50 91 -131 116
-182 24 -51 48 -105 51 -120 4 -16 10 -33 15 -38 4 -6 15 -30 24 -55 9 -25 25
-81 36 -125 11 -44 25 -100 32 -125 8 -28 11 -107 10 -213 -1 -93 -7 -192 -13
-220 -7 -29 -18 -90 -26 -137 -7 -47 -16 -101 -20 -120 -4 -19 -12 -44 -19
-55 -7 -11 -20 -45 -30 -75 -10 -30 -21 -63 -26 -72 -5 -10 -13 -26 -18 -35
-6 -10 -16 -31 -24 -48 -9 -16 -29 -56 -45 -87 -16 -31 -37 -67 -46 -79 -9
-13 -16 -30 -16 -37 0 -8 -34 -64 -75 -125 -42 -62 -88 -130 -104 -152 -16
-22 -54 -63 -83 -90 -30 -28 -81 -71 -114 -96 -33 -25 -95 -63 -139 -84 -44
-20 -115 -48 -159 -61 -74 -22 -80 -23 -92 -6 -9 12 -28 17 -71 19 -32 1 -110
2 -173 2 -63 0 -173 8 -245 17 -71 9 -174 27 -227 40 -56 13 -130 41 -175 64
-43 23 -87 50 -99 61 -11 10 -23 19 -26 19 -4 0 -35 19 -70 42 -35 23 -89 66
-120 96 -32 30 -58 60 -58 67 0 7 -9 20 -20 30 -11 10 -22 27 -26 39 -3 11
-15 30 -26 41 -11 11 -43 54 -72 95 -29 41 -73 113 -98 160 -26 47 -54 107
-63 135 -9 27 -20 54 -25 60 -4 5 -10 28 -14 50 -3 22 -10 60 -15 85 -5 25
-17 66 -25 90 -9 25 -16 72 -17 105 0 33 -4 71 -8 85 -4 14 -2 57 5 95 6 39
17 108 24 155 6 47 17 101 23 120 6 19 15 39 19 45 4 5 8 15 8 22 0 7 25 66
56 131 30 64 65 135 77 157 11 22 32 59 46 81 14 23 56 86 93 140 39 59 94
124 136 162 39 35 83 75 99 88 15 14 61 50 101 81 41 30 88 62 105 71 18 8 43
23 57 33 14 9 48 22 75 28 28 5 81 19 119 30 37 11 74 25 80 30 7 6 55 15 107
21 52 5 110 12 129 13 19 2 46 5 60 5z"/>
<g>
<path d="M3513 3710 c-4 -1 -26 -7 -48 -15 -22 -8 -65 -20 -95 -25 -30 -6
-104 -15 -165 -20 -60 -6 -132 -15 -158 -20 -26 -6 -114 -10 -195 -11 -81 0
-205 -5 -277 -10 -71 -4 -174 -11 -227 -13 -53 -3 -134 -8 -180 -11 -46 -3
-89 -6 -95 -5 -7 0 -19 0 -25 0 -7 0 -40 -4 -73 -9 -33 -5 -99 -10 -147 -10
-82 -1 -89 -3 -104 -26 -12 -18 -16 -47 -16 -103 1 -62 -3 -80 -17 -92 -16
-13 -17 -25 -9 -110 4 -52 10 -113 13 -135 2 -22 7 -125 10 -230 2 -104 7
-244 9 -310 3 -66 7 -165 10 -220 3 -55 8 -162 11 -237 3 -75 10 -163 15 -195
6 -32 10 -92 10 -133 0 -41 3 -92 6 -112 4 -21 16 -48 28 -61 17 -17 30 -22
66 -20 25 1 124 2 220 2 96 0 211 -2 255 -3 44 -2 114 3 156 9 41 6 80 15 86
18 6 4 22 3 35 -2 14 -5 126 -3 278 5 140 7 303 17 361 23 58 6 117 15 131 20
14 5 28 8 31 5 2 -2 46 0 98 6 52 5 111 18 131 28 34 16 38 21 44 69 3 28 7
148 7 265 1 117 -2 312 -6 433 -4 121 -14 261 -22 310 -8 50 -22 151 -30 225
-9 74 -22 194 -30 265 -8 72 -21 195 -30 274 -12 118 -19 148 -35 163 -10 10
-23 18 -27 18z m-83 -114 c54 -1 55 -2 66 -36 7 -19 15 -64 18 -100 4 -36 13
-128 21 -205 8 -77 19 -176 25 -220 5 -44 19 -145 31 -225 13 -81 24 -211 25
-295 2 -82 4 -280 4 -439 1 -223 -2 -293 -12 -302 -7 -7 -62 -20 -123 -28 -60
-8 -155 -20 -210 -26 -55 -6 -154 -16 -220 -22 -66 -6 -196 -12 -289 -14 -94
-1 -195 -6 -225 -10 -31 -4 -197 -8 -370 -8 -250 -1 -317 1 -328 12 -8 9 -13
38 -13 80 0 37 -7 99 -16 137 -9 44 -16 143 -19 265 -2 107 -7 240 -11 295 -4
55 -8 123 -10 150 -2 28 -5 134 -8 237 -4 158 -2 187 10 192 12 5 14 23 10 98
-3 51 -8 147 -12 214 -5 88 -4 123 5 128 6 4 89 12 184 18 95 6 204 12 242 14
39 1 138 8 220 14 83 6 184 15 225 20 41 5 165 12 275 15 109 4 202 8 205 10
3 2 35 6 70 10 36 3 90 10 120 14 30 5 80 8 110 7z m-1680 -526 c6 0 10 -7 10
-15 0 -8 -2 -15 -4 -15 -2 0 -6 7 -10 15 -3 8 -1 15 4 15z"/>
<g>
<path d="M2785 3515 c-61 3 -103 0 -130 -9 -22 -7 -60 -20 -85 -27 -25 -7 -65
-24 -90 -37 -25 -13 -72 -40 -105 -60 -33 -20 -88 -58 -122 -84 -34 -27 -64
-48 -67 -48 -2 0 -34 -30 -71 -67 -37 -38 -73 -84 -81 -103 -8 -19 -20 -39
-27 -45 -7 -5 -32 -62 -56 -125 -24 -63 -47 -119 -51 -125 -3 -5 -12 -28 -18
-50 -7 -22 -14 -73 -17 -114 -3 -49 2 -105 15 -167 14 -69 31 -117 65 -181 26
-47 57 -100 70 -117 12 -17 33 -51 45 -76 13 -25 52 -73 88 -107 36 -35 70
-63 75 -63 4 0 23 -11 40 -24 18 -13 60 -36 94 -52 44 -20 63 -35 63 -48 0
-14 5 -17 21 -13 11 3 70 -3 130 -13 60 -11 136 -19 169 -19 33 0 63 -2 67 -4
5 -3 35 1 68 8 33 8 98 24 145 36 47 12 103 26 125 32 30 9 60 32 124 100 46
48 90 99 97 113 8 14 27 42 43 62 15 21 47 75 69 122 23 49 56 145 77 228 20
78 34 146 31 151 -3 4 -7 50 -10 102 -2 52 -12 123 -21 159 -9 36 -21 69 -26
74 -5 6 -9 20 -9 32 0 11 -13 45 -28 75 -16 30 -44 80 -62 112 -18 32 -74 101
-125 153 -64 65 -108 101 -141 115 -27 11 -62 26 -79 33 -16 7 -46 20 -65 29
-19 9 -60 21 -90 27 -30 6 -95 13 -145 15z m70 -92 c27 -7 63 -13 80 -13 16 0
61 -14 100 -30 38 -17 75 -30 81 -30 7 0 60 -47 118 -103 58 -57 117 -120 131
-140 13 -20 35 -61 48 -89 14 -29 34 -78 45 -108 12 -30 28 -84 37 -120 10
-46 14 -101 11 -185 -2 -66 -9 -136 -16 -155 -7 -19 -18 -49 -26 -67 -8 -17
-14 -36 -14 -43 0 -6 -16 -44 -35 -84 -19 -40 -35 -81 -35 -90 0 -9 -3 -16 -7
-16 -5 0 -19 -17 -33 -38 -13 -20 -44 -62 -69 -92 -24 -30 -58 -68 -75 -85
-16 -16 -47 -38 -68 -47 -21 -9 -66 -24 -101 -32 -34 -7 -80 -16 -102 -17 -22
-2 -110 -4 -195 -4 -116 1 -171 5 -218 18 -35 10 -89 30 -120 44 -31 15 -69
31 -85 37 -15 6 -59 40 -97 74 -41 37 -81 84 -94 111 -14 26 -31 53 -40 60 -8
7 -20 29 -27 49 -7 20 -20 48 -30 61 -11 13 -19 28 -19 32 0 5 -11 32 -25 61
-15 30 -29 85 -35 133 -9 70 -7 91 10 157 11 42 36 116 55 164 20 49 46 108
58 133 12 24 30 54 39 65 9 12 38 45 63 75 26 29 66 70 91 90 24 20 57 46 73
59 16 12 34 22 40 22 6 0 11 4 11 9 0 5 10 13 23 17 12 3 34 15 49 25 14 11
31 19 38 19 6 0 18 6 26 14 7 8 45 24 84 36 38 12 100 25 137 28 44 5 86 3
118 -5z"/>
<g>
<path d="M3055 3209 c-33 -1 -98 -6 -145 -11 -47 -5 -112 -13 -145 -18 -33 -5
-131 -20 -218 -34 -88 -14 -191 -25 -230 -24 -63 0 -73 -2 -90 -23 -18 -22
-19 -35 -13 -177 3 -85 10 -162 16 -171 5 -10 11 -87 14 -172 3 -86 8 -162 11
-170 2 -8 6 -76 8 -152 2 -84 8 -142 14 -148 9 -9 31 -9 85 0 40 7 143 20 228
30 85 11 162 22 170 25 8 3 47 13 85 22 39 9 95 20 125 24 30 5 91 13 135 20
44 6 81 13 83 15 2 2 7 20 12 40 5 20 9 101 9 178 1 78 -4 171 -10 207 -5 36
-14 99 -19 140 -5 41 -12 129 -15 195 -3 66 -8 130 -11 143 -2 12 -12 31 -21
42 -14 16 -29 20 -78 19z m-40 -85 c11 -2 30 -4 42 -4 12 0 24 -8 27 -17 3
-10 8 -76 12 -148 3 -71 10 -137 15 -147 5 -9 9 -39 9 -66 0 -27 3 -52 6 -55
4 -4 9 -37 11 -74 3 -37 4 -95 4 -128 -1 -33 -4 -81 -7 -108 -5 -41 -10 -48
-33 -53 -14 -3 -54 -12 -88 -20 -34 -8 -80 -14 -102 -14 -22 0 -60 -6 -83 -14
-24 -7 -61 -18 -83 -24 -22 -6 -105 -17 -185 -26 -80 -8 -162 -19 -182 -24
l-37 -10 -6 47 c-3 25 -10 59 -15 74 -6 19 -5 35 2 46 7 12 6 33 -5 76 -8 33
-12 65 -8 70 4 6 6 60 5 120 -1 61 -5 118 -9 128 -4 9 -4 33 -1 52 5 23 2 45
-9 66 -13 23 -15 47 -12 93 3 33 6 62 6 62 1 1 22 4 49 8 26 4 101 14 167 22
66 8 145 22 175 29 30 8 82 17 115 20 33 4 92 10 130 15 39 4 79 6 90 4z"/>
<g>
<path d="M2740 3034 c-36 2 -91 -1 -124 -6 -38 -5 -70 -16 -92 -33 -19 -15
-52 -50 -75 -80 -22 -29 -44 -66 -49 -81 -5 -16 -18 -54 -30 -84 -16 -43 -21
-77 -21 -153 1 -70 5 -108 17 -133 9 -19 31 -42 48 -51 17 -8 38 -21 46 -28 8
-6 44 -20 80 -30 52 -14 85 -16 160 -11 52 4 115 12 140 19 25 7 55 19 66 27
12 8 29 31 39 50 10 19 28 49 39 65 12 17 24 32 29 33 4 2 14 17 22 32 8 16
15 52 15 81 0 29 -11 86 -25 128 -16 48 -44 101 -76 144 -38 52 -61 73 -97 89
-28 12 -73 21 -112 22z m-41 -86 c48 2 72 -2 106 -18 27 -13 63 -44 90 -78 27
-34 52 -79 61 -111 10 -34 14 -70 10 -98 -3 -24 -19 -63 -35 -87 -16 -23 -45
-54 -63 -68 -19 -15 -52 -34 -74 -43 -22 -10 -78 -19 -130 -22 -55 -4 -104 -1
-125 6 -19 6 -54 28 -78 49 -37 32 -45 45 -48 81 -2 23 1 68 8 99 6 30 23 83
37 116 14 34 37 75 50 91 14 17 34 36 45 44 11 8 35 19 52 25 17 6 60 12 94
14z"/>
</g>
</g>
</g>
</g>
</g>
</g>
</svg>
