<?xml version="1.0" standalone="no"?>
<!DOCTYPE svg PUBLIC "-//W3C//DTD SVG 20010904//EN"
 "http://www.w3.org/TR/2001/REC-SVG-20010904/DTD/svg10.dtd">
<svg version="1.0" xmlns="http://www.w3.org/2000/svg"
 width="1149.000000pt" height="1149.000000pt" viewBox="0 0 1149.000000 1149.000000"
 preserveAspectRatio="xMidYMid meet">
<metadata>
Created by potrace 1.16, written by Peter Selinger 2001-2019
</metadata>
<g transform="translate(0.000000,1149.000000) scale(0.100000,-0.100000)"
fill="#000000" stroke="none">
<g>
<path d="M5515 10149 c-11 0 -46 -10 -77 -20 -35 -13 -59 -28 -63 -39 -3 -10
-17 -25 -30 -34 -14 -9 -32 -27 -40 -40 -9 -13 -20 -59 -24 -101 -7 -59 -6
-92 5 -132 8 -30 24 -73 37 -96 13 -22 43 -56 68 -74 24 -18 54 -37 66 -42 11
-6 24 -14 27 -19 2 -4 39 -17 80 -27 l76 -19 28 27 c15 15 38 27 50 27 13 0
22 6 22 15 0 8 15 22 33 31 17 9 46 31 62 49 17 18 36 40 43 49 6 8 12 20 12
26 0 5 4 10 9 10 5 0 13 10 17 23 4 12 6 53 5 92 -1 52 -9 84 -29 125 -14 30
-33 61 -42 68 -8 7 -43 28 -77 48 -51 29 -77 37 -150 44 -48 5 -97 9 -108 9z
m46 -94 c42 -3 100 -12 130 -21 39 -12 66 -28 96 -60 26 -27 44 -57 49 -79 3
-20 4 -54 1 -75 -3 -24 -18 -57 -38 -81 -18 -23 -47 -48 -63 -56 -17 -7 -45
-22 -62 -32 -17 -10 -45 -22 -63 -26 -19 -4 -51 -2 -75 5 -22 6 -59 23 -81 38
-26 17 -50 47 -67 81 -16 30 -28 71 -28 90 0 20 3 53 6 73 4 21 17 49 30 63
13 15 24 29 24 33 0 4 15 17 33 30 28 20 40 22 108 17z"/>
<g>
<path d="M5614 9924 c-22 2 -46 2 -56 0 -9 -3 -23 -20 -32 -39 -9 -18 -16 -46
-16 -62 0 -15 6 -36 14 -45 7 -9 32 -22 57 -27 42 -10 46 -8 77 21 27 27 32
39 32 80 0 36 -4 50 -19 57 -10 6 -36 12 -57 15z"/>
</g>
</g>
<g>
<path d="M6002 9720 c-10 0 -27 -9 -38 -21 -19 -21 -18 -21 16 -50 19 -17 40
-34 47 -39 7 -6 28 -10 46 -10 26 0 36 5 40 20 3 10 0 25 -7 33 -6 7 -28 25
-48 40 -20 15 -45 27 -56 27z"/>
</g>
<g>
<path d="M6370 9698 c-3 -1 -27 -3 -55 -5 -34 -3 -58 -11 -75 -27 -14 -13 -41
-33 -61 -45 -20 -11 -39 -29 -43 -39 -3 -9 -17 -32 -31 -51 -14 -19 -30 -52
-36 -75 -6 -22 -9 -68 -7 -101 2 -33 12 -79 23 -102 10 -24 22 -43 27 -43 4 0
8 -6 8 -13 0 -8 8 -21 18 -29 9 -9 44 -30 77 -46 33 -16 76 -32 95 -36 19 -3
62 -2 94 4 39 6 68 18 85 33 14 13 42 33 61 45 19 11 50 38 69 59 19 21 42 56
52 77 14 31 16 55 12 110 -3 39 -9 73 -13 76 -3 3 -16 21 -27 40 -12 19 -34
47 -50 61 -15 14 -50 38 -78 53 -27 16 -70 34 -95 42 -25 8 -47 13 -50 12z
m-16 -90 c11 1 50 -10 86 -25 36 -14 79 -39 95 -54 17 -15 38 -44 49 -63 15
-28 17 -46 11 -91 -5 -45 -14 -65 -38 -91 -18 -18 -59 -49 -91 -69 -45 -26
-71 -35 -106 -35 -26 0 -69 7 -96 15 -42 12 -54 22 -75 57 -13 24 -29 56 -35
73 -6 16 -9 47 -8 67 2 20 12 54 23 76 11 22 35 54 53 72 18 18 50 40 71 49
22 9 49 18 61 19z"/>
<g>
<path d="M6364 9453 c-13 4 -27 -4 -43 -25 -13 -17 -25 -43 -26 -59 -1 -20 5
-33 21 -44 13 -8 37 -15 53 -15 18 0 38 9 50 21 11 12 22 32 25 45 4 14 2 33
-4 44 -6 11 -14 20 -18 21 -4 0 -14 2 -23 4 -9 1 -25 5 -35 8z"/>
</g>
</g>
<g>
<path d="M5133 9589 c-29 0 -57 -14 -113 -52 -41 -29 -76 -61 -78 -71 -3 -11
3 -25 13 -32 12 -9 25 -10 45 -3 15 6 38 21 50 34 13 14 39 28 59 31 20 4 41
14 48 23 7 9 13 28 13 44 0 25 -3 27 -37 26z"/>
</g>
<g>
<path d="M5425 9465 c-5 1 -20 0 -32 -2 -14 -3 -25 -14 -29 -29 -3 -13 -4 -31
-1 -38 4 -9 15 -13 29 -11 13 3 29 13 36 22 7 10 11 27 10 37 -2 11 -7 20 -13
21z"/>
</g>
<g>
<path d="M5687 9410 c-12 0 -27 -4 -33 -8 -7 -4 -10 -26 -9 -50 1 -24 8 -49
14 -55 6 -6 11 -18 11 -27 0 -9 8 -24 18 -33 10 -10 30 -17 44 -17 24 0 25 2
17 38 -4 20 -13 59 -18 85 -6 27 -13 53 -16 58 -4 5 -16 9 -28 9z"/>
</g>
<g>
<path d="M4701 9310 c-3 -1 -30 -9 -59 -20 -29 -10 -68 -28 -86 -40 -19 -11
-37 -27 -40 -35 -3 -8 -3 -22 1 -31 5 -13 16 -15 50 -11 24 2 52 11 61 20 9 8
31 18 48 21 18 4 39 15 49 26 16 17 16 20 0 44 -10 14 -20 26 -24 26z"/>
</g>
<g>
<path d="M6830 9310 c-3 0 -21 -13 -40 -29 -23 -19 -32 -33 -25 -39 6 -6 26
-18 45 -29 19 -10 47 -27 62 -36 15 -10 39 -17 55 -15 20 2 29 9 31 25 2 15
-6 31 -25 48 -15 13 -33 25 -39 25 -6 0 -21 11 -34 25 -13 14 -26 25 -30 25z"/>
</g>
<g>
<path d="M5336 9250 c-6 0 -23 -12 -39 -25 -21 -19 -26 -30 -21 -50 3 -14 11
-25 18 -26 6 0 19 -2 29 -4 9 -2 24 6 32 18 8 12 15 31 15 42 0 12 -5 26 -12
33 -7 7 -17 12 -22 12z"/>
</g>
<g>
<path d="M2368 9183 c-40 1 -84 1 -98 -1 -14 -1 -68 -12 -120 -23 -52 -11
-113 -25 -135 -31 -22 -6 -65 -24 -95 -39 -30 -16 -82 -40 -115 -55 -33 -14
-79 -36 -103 -47 -23 -12 -51 -31 -61 -42 -11 -11 -45 -48 -77 -81 -33 -34
-69 -75 -82 -90 -12 -16 -36 -45 -52 -64 -17 -19 -30 -40 -30 -46 0 -7 -11
-26 -25 -42 -14 -17 -25 -34 -25 -40 0 -5 -18 -41 -40 -78 -22 -38 -40 -77
-40 -87 0 -10 -7 -32 -16 -48 -8 -17 -19 -59 -22 -92 -4 -34 -7 -109 -6 -167
0 -58 3 -114 6 -125 3 -11 11 -49 18 -85 7 -36 19 -76 27 -88 8 -13 12 -26 9
-29 -3 -4 -1 -12 5 -19 6 -7 13 -28 16 -46 3 -18 12 -46 20 -63 9 -16 26 -44
39 -62 13 -17 24 -36 24 -42 0 -6 4 -11 9 -11 5 0 13 -10 17 -22 3 -13 33 -53
65 -90 33 -36 59 -70 59 -74 0 -4 44 -50 98 -103 89 -88 111 -102 225 -159 70
-35 144 -66 164 -69 21 -3 46 -10 56 -15 10 -5 73 -14 139 -19 67 -5 124 -11
127 -15 3 -3 9 -42 12 -87 3 -45 12 -130 19 -188 7 -59 11 -113 7 -121 -3 -10
-45 -22 -129 -37 -67 -13 -159 -30 -203 -38 -44 -8 -96 -19 -115 -23 -19 -5
-64 -15 -99 -22 -47 -11 -69 -21 -80 -38 -12 -18 -16 -52 -17 -134 -1 -82 -8
-139 -27 -216 -14 -58 -30 -145 -36 -195 -7 -49 -14 -110 -16 -135 -2 -25 -6
-88 -10 -140 -3 -52 -10 -225 -15 -384 -6 -192 -13 -293 -21 -302 -8 -10 -9
-21 -2 -37 7 -15 6 -46 -2 -100 -9 -59 -9 -85 -1 -102 6 -13 22 -27 35 -30 15
-4 30 0 42 11 17 15 19 33 18 168 0 83 2 241 5 351 3 110 8 265 11 345 4 80
10 177 15 215 5 39 12 94 15 124 4 30 11 66 17 80 9 25 10 25 21 6 7 -13 11
-123 13 -330 1 -170 5 -373 9 -450 4 -77 8 -156 10 -175 1 -19 6 -80 9 -135 4
-55 3 -230 -2 -390 -6 -159 -13 -321 -17 -360 -4 -38 -8 -106 -9 -150 -1 -44
2 -109 6 -145 5 -36 11 -103 13 -150 3 -47 8 -101 10 -120 2 -19 6 -134 10
-255 3 -121 6 -318 6 -438 0 -119 -3 -222 -6 -227 -3 -5 -1 -19 5 -30 6 -12
13 -102 15 -218 2 -108 4 -285 4 -392 -1 -107 -2 -221 -4 -252 -2 -49 0 -59
19 -71 11 -8 32 -17 46 -21 14 -4 48 -16 75 -28 28 -11 63 -27 78 -35 16 -8
31 -12 34 -9 3 3 18 -3 33 -14 16 -11 32 -20 37 -20 5 0 14 -5 21 -12 6 -6 19
-13 28 -14 9 -2 39 -10 65 -18 26 -9 76 -29 111 -45 41 -20 68 -27 78 -21 9 5
15 24 16 48 0 39 -1 41 -56 66 -31 14 -67 26 -81 26 -14 0 -34 7 -45 15 -10 8
-25 15 -33 15 -8 0 -56 20 -108 45 -51 25 -96 45 -100 45 -4 0 -33 12 -64 26
l-56 26 -8 277 c-4 152 -9 335 -10 406 -2 72 -5 148 -8 170 -3 22 -8 223 -11
446 -3 223 -10 449 -16 501 -5 52 -13 153 -17 224 -5 71 -8 188 -8 259 0 72 4
173 8 225 4 52 9 156 12 230 3 74 8 150 11 168 4 28 13 37 52 54 25 11 80 24
121 29 42 5 96 13 121 18 25 6 77 18 115 27 39 9 88 20 110 24 22 5 72 16 110
24 39 9 84 19 100 22 17 2 53 11 80 19 28 7 88 23 135 35 47 12 105 26 130 31
25 6 59 13 77 16 24 4 32 1 37 -14 3 -10 2 -72 -3 -138 -4 -66 -6 -145 -4
-175 1 -30 7 -95 12 -145 5 -49 7 -162 5 -250 -1 -88 -7 -218 -13 -290 -5 -71
-10 -214 -10 -317 -1 -103 -5 -219 -11 -258 -6 -40 -12 -194 -15 -343 -3 -150
-7 -319 -10 -377 -3 -58 -7 -121 -10 -140 -2 -19 -5 -142 -6 -273 -1 -147 2
-242 8 -248 6 -6 17 -11 26 -13 8 -1 21 -7 28 -12 8 -6 41 -19 74 -28 33 -10
70 -22 83 -27 13 -5 30 -9 38 -9 8 0 40 -12 71 -26 30 -15 73 -27 94 -28 21 0
41 3 45 7 5 4 3 17 -4 28 -7 11 -11 23 -8 27 3 5 1 14 -4 22 -5 7 -19 15 -32
17 -13 2 -47 15 -76 28 -29 14 -57 25 -63 25 -6 0 -45 12 -87 26 -42 14 -83
32 -90 39 -9 8 -15 52 -19 126 -4 63 -6 123 -6 134 0 11 1 54 3 95 1 41 8 163
15 270 7 107 14 276 14 374 1 99 5 184 8 189 3 5 7 144 9 310 2 166 7 352 11
412 4 61 7 169 7 240 0 72 -2 470 -5 885 -3 415 -6 760 -8 765 -2 6 -3 91 -2
190 1 109 5 174 10 166 5 -8 12 -64 16 -125 4 -61 11 -133 16 -161 5 -27 14
-86 20 -130 6 -44 12 -91 14 -105 3 -14 7 -70 11 -125 4 -55 12 -113 20 -130
7 -16 16 -66 19 -110 3 -44 7 -105 9 -135 3 -30 7 -82 11 -114 3 -33 11 -68
16 -78 6 -11 21 -18 37 -18 15 0 33 4 39 8 7 5 13 19 14 33 0 13 -2 35 -5 49
-4 14 -11 68 -17 120 -5 52 -12 101 -14 108 -3 7 -7 41 -10 75 -4 34 -15 89
-25 122 -12 37 -23 120 -30 219 -6 88 -13 162 -15 165 -2 4 -9 45 -15 91 -7
47 -14 105 -16 130 -1 25 -8 92 -14 150 -6 58 -17 148 -25 200 -8 52 -21 119
-30 149 -8 30 -22 64 -30 77 -8 13 -26 26 -40 30 -14 3 -51 -3 -87 -15 -35
-11 -81 -23 -103 -26 -22 -4 -87 -16 -145 -27 -58 -11 -123 -26 -145 -33 -22
-7 -60 -14 -85 -15 -25 -2 -53 -2 -62 -1 -12 1 -18 9 -18 25 0 14 -5 37 -10
51 -6 15 -13 55 -17 88 -3 34 -7 100 -7 147 l-1 84 27 3 c14 1 57 9 95 19 37
9 88 27 113 40 25 13 56 25 70 27 14 2 34 7 45 11 11 4 42 16 69 27 27 10 53
19 58 19 6 0 47 24 91 54 55 36 101 77 141 126 32 39 72 95 90 123 17 29 43
68 57 87 15 19 38 55 51 80 14 25 36 74 50 110 17 42 33 116 44 205 10 77 19
199 19 270 0 94 -5 149 -18 200 -10 39 -25 97 -33 130 -8 33 -20 71 -25 85 -6
14 -24 52 -41 85 -17 33 -47 80 -67 105 -20 25 -43 52 -51 61 -8 9 -44 41 -80
71 -37 30 -93 73 -125 95 -33 22 -96 57 -140 78 -44 20 -89 41 -100 45 -11 5
-33 11 -50 15 -16 4 -59 11 -95 16 -36 5 -98 11 -137 14 -40 3 -106 6 -145 8z
m37 -99 c72 -1 177 -9 235 -17 58 -9 129 -25 159 -37 30 -12 82 -36 115 -53
34 -18 67 -38 74 -45 8 -6 23 -17 35 -24 12 -6 64 -50 115 -97 69 -64 103
-105 136 -163 25 -43 50 -94 56 -114 7 -19 10 -38 7 -41 -3 -3 -18 7 -33 22
-23 23 -33 27 -70 22 -24 -2 -55 -12 -69 -21 -18 -12 -25 -25 -25 -49 0 -23 8
-41 28 -59 15 -14 41 -29 59 -33 18 -3 41 -1 53 5 12 6 28 27 36 46 8 19 19
34 24 34 5 0 14 -17 19 -37 5 -21 15 -65 22 -98 7 -33 12 -109 11 -170 -1 -60
-7 -147 -12 -193 -5 -45 -17 -113 -26 -150 -9 -37 -30 -94 -45 -128 -16 -33
-56 -103 -91 -155 -40 -60 -63 -88 -66 -77 -2 9 -14 24 -27 32 -19 13 -34 14
-72 7 -26 -5 -57 -10 -68 -10 -11 -1 -45 -3 -76 -5 -30 -2 -77 -7 -105 -10
-27 -4 -83 -9 -124 -11 -41 -2 -97 -7 -125 -10 -27 -4 -58 -9 -67 -11 -9 -3
-18 -17 -20 -32 -2 -16 4 -34 14 -44 14 -14 30 -17 80 -13 35 2 77 6 93 9 17
2 84 7 150 12 66 4 154 8 195 10 41 1 88 6 105 10 l29 7 -31 -39 c-17 -21 -63
-64 -101 -93 -39 -30 -94 -63 -124 -74 -29 -10 -93 -31 -143 -47 -49 -15 -121
-37 -160 -49 -53 -16 -100 -21 -195 -22 -81 -1 -135 3 -152 11 -21 10 -31 10
-42 1 -11 -9 -31 -7 -93 9 -43 12 -86 23 -95 25 -10 2 -60 26 -112 53 -52 27
-114 67 -137 88 -22 22 -65 64 -94 94 -29 30 -81 89 -115 130 -34 41 -67 82
-73 90 -7 8 -26 51 -44 95 -18 44 -35 94 -38 110 -4 17 -14 46 -23 65 -10 19
-20 37 -23 40 -3 3 -9 35 -13 71 -3 36 -12 88 -19 115 -8 33 -10 72 -5 119 4
39 17 104 29 145 11 41 41 116 65 166 24 50 53 99 64 109 11 10 30 35 42 54
11 20 38 54 59 76 21 22 56 60 78 84 23 24 58 53 79 63 20 11 46 28 57 38 11
10 54 32 95 49 41 17 79 31 84 31 5 0 17 6 25 14 9 7 63 25 121 39 58 15 121
28 140 30 19 2 94 2 165 1z m680 -2487 c19 -2 20 -9 19 -117 0 -63 -3 -254 -6
-423 -4 -170 -9 -311 -12 -314 -3 -4 0 -13 6 -20 9 -11 13 -101 14 -316 1
-166 0 -316 -3 -332 -4 -27 -10 -32 -51 -43 -26 -6 -64 -14 -85 -17 -20 -2
-45 -9 -56 -14 -10 -6 -40 -15 -66 -21 -26 -6 -60 -12 -74 -14 -14 -2 -60 -14
-101 -28 -41 -14 -104 -29 -140 -33 -35 -3 -79 -13 -97 -20 -17 -7 -67 -19
-110 -25 -43 -6 -94 -16 -113 -21 -19 -5 -66 -14 -105 -20 -38 -5 -88 -13
-110 -16 -22 -3 -46 -10 -53 -16 -7 -5 -15 -8 -17 -5 -3 3 -10 54 -15 114 -5
60 -13 161 -16 224 -4 63 -8 255 -9 425 -1 171 -5 353 -9 405 -4 52 -9 164
-10 249 -2 151 -1 154 22 169 13 8 45 19 70 24 26 5 70 13 97 18 28 6 73 15
100 20 28 6 91 17 140 25 50 7 128 19 175 25 47 6 110 15 140 20 30 4 80 15
110 23 30 8 114 25 185 37 72 12 137 26 145 31 8 5 24 8 35 6z"/>
<g>
<path d="M2188 8389 c-12 0 -30 -3 -38 -6 -8 -4 -20 -11 -26 -18 -6 -6 -15
-30 -19 -53 -5 -30 -3 -48 6 -58 7 -9 24 -20 38 -26 14 -5 42 -6 62 -3 29 5
39 12 45 33 5 15 9 37 10 50 0 13 -11 36 -26 53 -17 17 -38 29 -52 28z"/>
</g>
<g>
<path d="M2865 8250 c-8 0 -17 -5 -21 -12 -4 -6 -7 -31 -6 -55 0 -25 7 -52 14
-61 8 -9 21 -33 28 -52 7 -19 23 -57 35 -85 13 -27 28 -72 35 -98 7 -26 10
-50 8 -53 -3 -2 -29 -7 -58 -11 -31 -4 -61 -14 -72 -25 -10 -10 -18 -25 -18
-33 0 -8 11 -22 25 -31 22 -15 32 -15 83 -4 31 7 74 15 94 17 20 3 45 15 57
27 l20 21 -30 45 c-16 24 -37 69 -45 99 -9 31 -20 60 -25 66 -5 5 -9 19 -9 32
0 12 -13 52 -30 88 -16 36 -30 69 -30 73 0 5 -9 18 -20 30 -12 12 -27 22 -35
22z"/>
</g>
</g>
<g>
<path d="M9125 9177 c-44 5 -118 5 -165 1 -47 -4 -98 -10 -115 -12 -16 -2 -48
-7 -70 -11 -22 -4 -74 -18 -115 -31 -41 -13 -91 -29 -110 -35 -19 -7 -52 -27
-73 -45 -20 -19 -42 -34 -48 -34 -6 0 -30 -18 -53 -40 -22 -22 -78 -77 -124
-121 -45 -45 -89 -94 -98 -110 -8 -16 -19 -29 -24 -29 -5 0 -24 -30 -43 -67
-18 -38 -43 -84 -54 -103 -11 -19 -25 -60 -32 -90 -7 -30 -17 -86 -22 -125 -5
-38 -13 -115 -17 -170 -5 -55 -7 -122 -7 -150 1 -27 9 -70 19 -95 9 -25 24
-61 32 -80 9 -19 39 -82 67 -139 37 -74 68 -120 108 -161 31 -32 80 -76 108
-99 29 -22 85 -56 124 -75 40 -18 93 -43 118 -54 26 -12 66 -26 90 -32 24 -6
62 -16 84 -21 22 -6 58 -14 80 -19 22 -4 56 -11 75 -15 l35 -7 -2 -180 c-1
-103 2 -189 8 -199 8 -15 6 -17 -8 -12 -10 4 -29 13 -43 20 -14 7 -29 13 -33
13 -4 0 -29 9 -55 21 -26 11 -67 31 -92 43 -25 13 -63 29 -85 36 -22 7 -49 19
-60 26 -11 8 -32 14 -48 14 -19 0 -38 -10 -58 -32 -17 -19 -38 -61 -49 -97
-11 -35 -20 -75 -20 -90 0 -15 -6 -35 -14 -46 -7 -11 -23 -63 -35 -115 -13
-52 -33 -135 -46 -185 -14 -49 -29 -124 -35 -165 -6 -41 -13 -122 -15 -178 -2
-57 -9 -109 -14 -116 -6 -7 -11 -24 -10 -37 0 -13 -5 -53 -10 -89 -6 -36 -18
-114 -26 -175 -8 -60 -20 -164 -26 -230 -6 -66 -14 -125 -19 -130 -6 -7 -5
-26 1 -49 6 -20 17 -40 26 -43 8 -3 27 -2 41 3 19 7 28 19 34 44 4 19 8 96 8
170 1 74 8 184 16 244 7 59 18 124 23 145 5 20 14 72 20 116 6 44 17 139 25
210 8 72 21 162 30 200 8 39 19 86 25 105 6 19 11 47 11 61 0 15 7 32 15 39
14 11 16 8 15 -26 0 -21 -1 -48 -1 -59 0 -11 1 -225 2 -475 1 -250 2 -682 2
-960 -1 -278 -4 -559 -7 -625 -4 -66 -6 -129 -6 -140 0 -11 0 -63 1 -115 0
-52 0 -158 -1 -235 -1 -77 1 -183 5 -235 4 -52 9 -140 10 -195 2 -55 6 -320 9
-590 3 -274 11 -524 17 -568 11 -72 10 -79 -7 -92 -11 -8 -39 -21 -64 -30 -25
-9 -54 -20 -65 -24 -11 -5 -36 -13 -56 -20 -19 -6 -45 -11 -57 -11 -11 0 -24
-4 -27 -10 -3 -6 -19 -10 -35 -10 -17 0 -38 -9 -50 -22 -11 -12 -20 -27 -20
-34 0 -6 6 -16 13 -22 6 -6 24 -13 38 -17 17 -4 55 3 105 20 43 14 93 32 111
40 17 8 40 15 50 15 11 0 51 16 91 35 39 20 76 44 81 54 7 12 6 42 -3 92 -8
41 -19 103 -25 139 -7 39 -10 156 -8 290 2 124 0 235 -5 248 -4 12 -10 165
-13 340 -4 174 -8 344 -10 377 -2 33 -6 177 -8 320 -2 143 -1 316 4 385 4 69
8 211 8 315 0 105 0 236 -1 293 0 57 4 108 9 113 7 7 30 1 71 -20 33 -17 93
-39 132 -50 40 -11 78 -25 84 -31 7 -5 44 -26 82 -46 38 -20 85 -44 104 -54
19 -9 60 -30 90 -45 30 -16 87 -44 125 -64 39 -20 93 -46 121 -59 28 -12 56
-22 62 -22 7 0 17 -11 22 -24 5 -13 7 -61 5 -107 -2 -46 -6 -176 -10 -289 -3
-117 -2 -211 3 -219 6 -7 6 -29 1 -50 -5 -20 -8 -151 -8 -291 0 -140 2 -280 4
-310 2 -30 9 -154 15 -275 7 -121 12 -227 12 -235 -1 -8 -1 -57 -2 -108 0 -52
2 -97 4 -101 3 -4 6 -121 7 -261 1 -140 7 -302 13 -360 6 -58 10 -137 8 -177
-4 -71 -4 -72 -35 -79 -17 -3 -70 -26 -117 -49 -48 -23 -100 -45 -117 -48 -18
-3 -73 -27 -124 -51 -76 -38 -93 -50 -95 -70 -1 -14 4 -30 12 -37 8 -7 29 -12
47 -11 17 0 33 6 35 12 2 6 29 23 60 39 32 15 82 36 112 46 30 9 87 32 127 51
39 19 94 40 122 47 28 7 57 20 64 28 10 11 12 45 6 149 -3 74 -9 149 -12 165
-4 17 -8 71 -11 120 -3 50 -8 185 -11 300 -3 116 -8 275 -10 355 -2 80 -5 219
-6 310 -1 91 -6 194 -10 230 -5 36 -8 259 -8 495 0 237 1 493 3 570 2 77 3
273 3 435 0 162 1 338 1 390 1 52 7 178 13 279 6 102 8 210 4 240 -6 52 -5 55
10 40 11 -10 19 -39 22 -75 3 -33 11 -72 18 -87 8 -15 12 -37 10 -49 -3 -12
-1 -26 4 -32 5 -6 12 -74 16 -151 4 -77 11 -160 15 -185 5 -25 15 -76 23 -115
9 -38 17 -97 18 -130 2 -33 6 -64 10 -70 4 -5 10 -50 14 -100 4 -49 9 -101 10
-115 1 -14 6 -37 10 -53 4 -17 16 -29 31 -33 13 -3 31 -3 39 0 13 4 16 22 14
83 -1 43 -6 103 -11 133 -5 30 -13 73 -19 95 -5 22 -11 69 -13 105 -2 36 -9
88 -15 115 -7 28 -14 64 -16 80 -2 17 -6 41 -9 55 -2 14 -7 52 -11 85 -3 33
-11 96 -17 140 -5 44 -12 98 -14 120 -2 22 -8 56 -13 75 -6 19 -17 69 -25 110
-8 41 -18 104 -21 140 -3 36 -8 94 -10 130 -2 36 -12 117 -21 180 -9 63 -17
141 -19 173 -1 31 -5 60 -9 64 -3 3 -6 18 -6 33 0 14 -6 33 -12 42 -7 8 -35
23 -63 31 -27 9 -85 28 -128 42 -42 14 -85 25 -95 25 -10 0 -22 4 -27 9 -6 6
-41 15 -80 21 -38 6 -76 16 -85 23 -8 6 -16 12 -18 13 -2 1 2 12 8 24 9 16 9
38 1 84 -5 33 -13 91 -16 127 -4 52 -2 69 10 79 8 7 15 27 15 46 0 18 -5 36
-11 40 -8 4 -7 9 2 15 8 5 34 9 59 9 25 0 90 15 145 34 55 18 127 41 160 51
33 10 74 25 90 33 17 8 62 42 100 76 39 33 91 88 115 120 25 33 52 71 60 86 8
15 27 49 41 76 14 27 45 85 67 128 28 53 47 107 57 161 11 55 14 114 10 185
-3 58 -9 145 -14 194 -5 49 -17 108 -26 130 -10 23 -23 56 -31 74 -8 18 -14
39 -14 47 0 7 -11 36 -25 63 -14 28 -25 55 -25 61 0 7 -14 38 -31 69 -18 31
-51 77 -74 102 -24 25 -57 60 -74 78 -17 17 -58 50 -91 71 -35 23 -106 54
-173 75 -61 20 -148 39 -192 43z m-78 -103 c116 -1 140 -4 230 -33 55 -18 127
-48 159 -67 32 -19 75 -54 96 -77 21 -23 50 -55 66 -72 15 -16 34 -46 41 -65
8 -19 20 -42 28 -51 7 -8 13 -19 13 -23 0 -3 7 -23 17 -44 9 -20 22 -53 29
-72 8 -19 14 -45 14 -57 0 -12 4 -24 9 -27 5 -3 12 -22 15 -41 3 -19 9 -52 12
-72 3 -21 10 -48 16 -59 7 -15 7 -28 -2 -43 -9 -17 -9 -26 1 -38 9 -10 13 -49
14 -118 0 -56 -5 -113 -11 -126 -6 -13 -25 -60 -43 -104 -17 -44 -31 -84 -31
-89 0 -4 -15 -27 -32 -49 -18 -23 -40 -57 -49 -77 -9 -19 -41 -62 -70 -94 -30
-33 -68 -75 -86 -93 -18 -19 -66 -49 -107 -68 -41 -18 -92 -37 -113 -41 -21
-4 -69 -18 -108 -32 -49 -18 -89 -25 -135 -24 -36 0 -76 1 -90 2 -14 1 -45 -1
-70 -3 -24 -2 -62 1 -85 8 -22 7 -65 18 -95 24 -30 7 -72 17 -92 23 -21 6 -38
15 -38 20 0 4 -6 8 -13 8 -8 0 -34 11 -58 25 -24 14 -64 35 -88 46 -24 12 -81
59 -127 104 -65 66 -90 100 -119 162 -20 43 -47 101 -60 128 -14 28 -29 81
-36 119 -7 40 -9 96 -5 135 4 36 8 82 9 101 2 19 7 42 12 50 5 8 8 24 7 36 -2
11 4 52 12 91 8 39 27 97 42 129 15 33 45 84 66 115 21 31 85 99 141 152 56
53 115 107 130 122 16 14 50 37 77 50 27 14 84 37 127 51 43 14 116 32 162 40
46 7 85 15 87 16 1 2 60 3 131 2z m-529 -2214 c14 0 75 -22 136 -48 61 -27
127 -55 146 -61 19 -7 44 -17 55 -21 11 -4 34 -13 50 -19 17 -6 46 -12 65 -15
19 -2 55 -11 80 -21 25 -9 76 -26 115 -37 38 -10 75 -24 81 -29 6 -5 38 -16
70 -25 33 -8 63 -19 68 -24 4 -4 8 -70 7 -147 -1 -76 -4 -356 -8 -623 -3 -267
-6 -510 -7 -540 0 -30 1 -100 3 -155 2 -55 2 -137 1 -182 -1 -46 -6 -85 -10
-88 -5 -3 -37 6 -72 21 -35 14 -74 34 -88 44 -14 10 -45 29 -70 42 -25 14 -59
28 -76 31 -17 3 -55 22 -84 41 -30 20 -59 36 -64 36 -5 0 -51 20 -102 45 -50
25 -96 45 -101 45 -6 0 -35 8 -66 19 -31 10 -81 35 -110 55 l-55 38 -7 211
c-4 117 -7 417 -7 667 0 250 4 498 7 550 3 52 8 116 11 143 5 42 8 47 32 47z"/>
<g>
<path d="M8247 8580 c-20 0 -41 -8 -51 -19 -9 -10 -19 -34 -22 -52 -5 -27 -1
-39 18 -56 13 -13 37 -25 53 -28 18 -4 37 -1 49 7 11 9 20 32 23 60 4 37 2 49
-16 67 -13 13 -34 21 -54 21z"/>
</g>
<g>
<path d="M8893 8382 c-21 3 -43 -2 -64 -15 -28 -18 -30 -24 -25 -56 3 -20 16
-44 28 -54 16 -14 32 -17 57 -13 18 3 42 13 52 22 11 9 19 29 19 43 0 14 -8
36 -18 47 -9 12 -31 24 -49 26z"/>
</g>
<g>
<path d="M8476 8320 c-13 0 -30 -8 -39 -18 -10 -10 -17 -25 -17 -33 0 -8 -6
-30 -13 -49 -8 -19 -24 -57 -36 -85 -12 -27 -34 -83 -48 -123 -22 -62 -23 -76
-12 -87 8 -7 46 -23 85 -34 39 -12 78 -21 87 -21 9 0 23 7 31 16 9 8 16 29 16
45 0 19 -5 29 -15 29 -8 0 -33 7 -55 16 -33 13 -40 21 -40 43 0 15 12 56 26
92 14 35 32 71 40 80 8 8 14 23 14 33 0 9 5 26 10 37 8 13 7 25 0 39 -6 11
-21 20 -34 20z"/>
</g>
<g>
<path d="M8278 7759 c-13 0 -29 -3 -35 -6 -7 -2 -13 -17 -13 -33 0 -20 10 -35
36 -55 19 -15 63 -38 97 -52 34 -13 83 -38 109 -55 26 -16 66 -32 88 -34 23
-3 60 -15 82 -26 30 -16 46 -19 66 -12 15 5 29 21 35 37 7 22 5 32 -7 46 -9
10 -38 23 -64 29 -26 6 -63 15 -82 20 -20 5 -54 20 -75 34 -22 14 -62 34 -90
44 -27 10 -67 28 -87 41 -21 13 -48 23 -60 22z"/>
</g>
</g>
<g>
<path d="M5741 9089 c-9 0 -22 -3 -28 -6 -7 -2 -13 -19 -13 -37 0 -21 8 -40
23 -54 13 -12 28 -22 34 -22 6 0 16 7 23 15 7 9 9 22 5 32 -5 10 -7 24 -6 31
1 8 -3 20 -10 28 -6 8 -19 14 -28 13z"/>
</g>
<g>
<path d="M7258 9082 c-26 3 -50 3 -53 0 -3 -3 -5 -13 -5 -22 0 -10 9 -29 21
-44 15 -19 30 -26 55 -26 20 0 47 -9 63 -21 16 -12 37 -19 47 -17 11 2 20 13
22 25 2 12 -2 31 -8 42 -6 12 -30 29 -53 40 -23 10 -63 21 -89 23z"/>
</g>
<g>
<path d="M4245 9060 c-12 0 -42 -16 -66 -35 -24 -19 -50 -35 -56 -35 -8 0 -13
-14 -13 -34 0 -26 5 -36 21 -41 14 -5 34 2 62 22 23 15 54 33 70 40 15 7 30
19 33 28 4 9 -2 25 -11 35 -10 11 -28 20 -40 20z"/>
</g>
<g>
<path d="M6203 9039 c-16 0 -41 -8 -56 -17 -15 -10 -30 -27 -33 -39 -4 -13 0
-29 9 -38 9 -8 27 -15 41 -15 14 0 35 9 46 20 12 12 20 33 20 55 0 32 -3 35
-27 34z"/>
</g>
<g>
<path d="M5280 8977 c-14 0 -32 -1 -41 -3 -13 -4 -17 -19 -18 -69 -1 -50 2
-65 13 -65 8 0 16 -5 18 -10 2 -6 16 9 31 32 20 31 27 53 25 78 -3 29 -7 35
-28 37z"/>
</g>
<g>
<path d="M5796 8930 c-6 0 -16 -4 -22 -8 -6 -4 -17 -18 -24 -31 -11 -21 -9
-26 11 -47 16 -16 31 -22 46 -18 12 3 24 17 27 30 4 15 0 34 -10 49 -9 14 -21
25 -28 25z"/>
</g>
<g>
<path d="M6100 8860 c-29 0 -41 -6 -54 -25 -10 -15 -14 -34 -11 -45 5 -16 12
-19 33 -14 15 4 39 13 55 21 15 7 27 18 27 22 0 5 -3 16 -6 25 -4 11 -19 16
-44 16z"/>
</g>
<g>
<path d="M7690 8779 c-14 -1 -37 -8 -52 -16 -16 -8 -28 -20 -28 -27 0 -8 28
-20 73 -31 39 -9 96 -28 126 -41 29 -13 59 -24 65 -24 7 0 20 6 30 13 15 11
16 17 6 38 -7 14 -31 34 -58 47 -26 12 -67 26 -92 32 -25 5 -56 9 -70 9z"/>
</g>
<g>
<path d="M3802 8769 c-9 -1 -31 -4 -48 -8 -17 -5 -43 -16 -57 -27 -15 -10 -27
-22 -27 -26 0 -4 -15 -14 -34 -22 -19 -8 -37 -24 -41 -36 -4 -12 -1 -27 5 -35
7 -8 23 -15 36 -15 13 0 39 10 58 23 19 12 52 32 73 45 22 13 45 33 52 43 6
11 9 29 6 40 -4 10 -14 19 -23 18z"/>
</g>
<g>
<path d="M5897 8709 c-18 -1 -53 -5 -79 -8 -35 -5 -57 -16 -92 -49 -25 -23
-50 -42 -55 -42 -5 0 -19 -19 -31 -42 -12 -24 -28 -65 -35 -93 -7 -27 -13 -72
-14 -98 -2 -40 5 -62 39 -125 23 -42 54 -89 70 -103 16 -15 41 -29 55 -33 15
-4 59 -7 97 -7 64 0 72 2 107 33 21 18 57 44 80 58 22 13 41 28 41 33 0 5 12
28 28 51 15 22 36 60 46 83 12 28 17 55 13 85 -3 23 -7 54 -9 68 -3 14 -12 39
-21 56 -9 17 -32 39 -51 48 -19 9 -38 21 -42 27 -4 6 -31 22 -61 35 -29 13
-68 23 -86 23z m-16 -80 c24 1 61 -11 107 -34 38 -20 77 -46 86 -60 9 -14 16
-45 16 -72 0 -26 -6 -64 -13 -83 -7 -19 -19 -46 -26 -60 -8 -14 -24 -33 -35
-42 -12 -10 -25 -21 -31 -26 -5 -4 -26 -15 -45 -24 -19 -9 -56 -22 -83 -28
-37 -10 -54 -10 -76 0 -16 6 -36 19 -44 28 -8 10 -27 38 -41 64 -16 28 -26 63
-26 86 0 22 8 64 17 93 12 38 31 68 63 101 26 25 58 48 71 51 13 2 40 5 60 6z"/>
<g>
<path d="M5900 8489 c-25 0 -56 -8 -70 -16 -14 -9 -31 -27 -38 -41 -7 -14 -12
-40 -12 -57 0 -19 7 -35 20 -42 10 -7 36 -15 57 -18 28 -4 46 -1 70 14 18 11
35 32 39 46 3 14 9 25 14 25 4 0 7 13 8 30 0 20 -7 35 -21 45 -12 8 -41 15
-67 14z"/>
</g>
</g>
<g>
<path d="M5181 8670 c-9 0 -27 -7 -39 -16 -16 -11 -22 -25 -22 -54 0 -29 5
-42 20 -50 16 -9 23 -6 37 11 10 12 26 29 36 39 18 17 18 19 2 44 -10 14 -25
26 -34 26z"/>
</g>
<g>
<path d="M7610 8560 c-14 0 -37 -8 -52 -18 -16 -9 -28 -22 -28 -29 0 -7 1 -13
3 -14 1 0 47 -7 102 -16 55 -8 122 -17 148 -20 30 -3 53 0 62 7 8 7 15 19 15
26 0 7 -13 20 -29 28 -15 8 -66 20 -112 26 -46 5 -95 10 -109 10z"/>
</g>
<g>
<path d="M3830 8526 c-25 2 -52 0 -60 -3 -8 -3 -18 -11 -22 -17 -4 -6 -8 -16
-8 -22 0 -6 12 -16 26 -23 14 -6 54 -14 88 -18 33 -3 68 -9 77 -14 9 -4 25 -5
37 -2 12 3 22 13 22 22 0 10 -12 28 -27 41 -16 13 -41 26 -58 28 -16 2 -50 6
-75 8z"/>
</g>
<g>
<path d="M6770 8504 c-45 1 -89 -2 -100 -6 -10 -4 -21 -11 -24 -16 -3 -6 7
-24 23 -41 27 -29 32 -30 82 -26 30 3 68 9 84 13 21 6 31 16 33 31 2 13 -1 28
-7 34 -5 5 -46 10 -91 11z"/>
</g>
<g>
<path d="M7176 8506 c-45 0 -92 -3 -106 -6 -14 -3 -26 -13 -28 -22 -2 -9 10
-26 25 -38 26 -20 35 -21 108 -15 44 4 88 11 97 16 10 5 18 16 18 23 0 8 -7
20 -17 27 -10 9 -44 14 -97 15z"/>
</g>
<g>
<path d="M4304 8500 c-44 0 -84 -3 -87 -7 -4 -3 -7 -15 -7 -25 0 -11 14 -23
38 -33 20 -9 66 -21 102 -26 36 -5 74 -11 85 -12 14 -1 21 5 23 19 2 15 -9 31
-35 53 -35 29 -43 31 -119 31z"/>
</g>
<g>
<path d="M5260 8482 c-14 3 -38 3 -55 1 -16 -2 -42 -9 -57 -14 -15 -6 -29 -17
-32 -25 -3 -8 5 -21 19 -30 18 -12 58 -17 159 -20 74 -3 137 -1 140 4 3 5 3
18 0 29 -3 12 -19 27 -34 33 -16 7 -34 9 -40 5 -6 -3 -25 -2 -43 3 -17 6 -43
12 -57 14z"/>
</g>
<g>
<path d="M4788 8480 c-37 0 -69 -5 -76 -12 -7 -7 -12 -20 -12 -30 0 -9 10 -23
23 -30 14 -7 55 -11 112 -9 56 1 95 7 103 15 7 7 10 20 7 28 -4 9 -26 21 -50
27 -24 6 -72 11 -107 11z"/>
</g>
<g>
<path d="M6451 8479 c-9 -1 -27 -4 -41 -8 -14 -4 -53 -6 -88 -4 -48 4 -63 1
-68 -10 -3 -8 6 -26 22 -42 15 -15 38 -29 51 -31 13 -3 45 5 71 16 26 12 57
28 70 36 19 12 21 18 11 30 -6 8 -19 14 -28 13z"/>
</g>
<g>
<path d="M3574 8409 c-10 0 -25 -3 -31 -6 -7 -2 -13 -18 -13 -34 0 -26 7 -32
72 -64 40 -19 79 -35 86 -35 8 0 22 10 32 22 13 16 15 28 9 40 -5 9 -37 30
-72 47 -35 17 -72 31 -83 30z"/>
</g>
<g>
<path d="M7695 8302 c-13 3 -44 -5 -70 -17 -26 -13 -56 -32 -68 -42 -12 -11
-30 -23 -39 -26 -10 -4 -18 -12 -18 -20 0 -7 5 -18 12 -25 7 -7 26 -12 44 -12
17 0 42 8 55 19 13 10 33 21 44 25 11 3 32 16 47 28 20 17 26 29 22 45 -3 12
-16 23 -29 25z"/>
</g>
<g>
<path d="M5079 8280 c-4 0 -21 -17 -38 -37 -17 -21 -29 -44 -26 -51 3 -8 5
-20 5 -27 0 -7 12 -16 26 -19 15 -4 32 -2 38 4 6 6 16 29 23 52 10 37 10 45
-4 60 -9 10 -20 18 -24 18z"/>
</g>
<g>
<path d="M3943 8193 c-26 5 -35 2 -47 -14 -8 -12 -12 -28 -9 -36 3 -7 35 -27
72 -44 43 -19 78 -29 101 -27 30 3 35 7 38 30 3 24 -3 30 -60 56 -35 16 -77
32 -95 35z"/>
</g>
<g>
<path d="M5518 8200 c-13 -1 -39 -14 -58 -31 -34 -29 -34 -31 -16 -45 11 -8
30 -14 41 -14 12 0 29 8 38 18 10 10 17 31 17 45 0 21 -5 27 -22 27z"/>
</g>
<g>
<path d="M7655 8130 c-25 0 -40 -8 -64 -35 -17 -19 -34 -35 -39 -35 -5 0 -14
-12 -21 -26 -6 -15 -9 -35 -6 -45 4 -11 15 -19 28 -19 13 1 52 28 91 65 60 55
68 66 57 79 -8 9 -28 16 -46 16z"/>
</g>
<g>
<path d="M3592 8120 c-5 0 -13 -5 -20 -12 -7 -7 -12 -18 -12 -26 0 -7 27 -47
61 -88 38 -46 68 -74 80 -74 11 0 22 -7 25 -15 4 -9 19 -15 40 -15 24 0 37 6
45 21 9 18 6 26 -17 50 -16 17 -38 32 -49 35 -11 3 -38 27 -60 54 -22 26 -50
53 -63 59 -13 6 -26 11 -30 11z"/>
</g>
<g>
<path d="M5990 8083 c-9 2 -26 0 -38 -4 -12 -5 -22 -16 -22 -25 0 -9 7 -29 17
-44 10 -18 27 -30 45 -32 20 -3 32 0 38 12 6 11 3 29 -8 53 -9 19 -24 37 -32
40z"/>
</g>
<g>
<path d="M7198 8090 c-36 -1 -67 -9 -98 -25 -25 -13 -56 -33 -69 -43 -15 -13
-22 -25 -18 -36 4 -11 18 -16 43 -16 21 0 45 7 55 16 10 9 35 18 57 21 22 3
52 15 67 28 19 14 26 27 22 38 -5 13 -19 17 -59 17z"/>
</g>
<g>
<path d="M4951 8079 c-25 -1 -55 -4 -66 -8 -11 -4 -33 -13 -50 -20 -16 -8 -58
-44 -92 -80 -39 -40 -63 -74 -63 -88 0 -12 -9 -28 -20 -36 -15 -11 -19 -21
-14 -44 4 -22 2 -32 -9 -36 -12 -4 -15 -27 -16 -105 -1 -88 1 -104 23 -141 13
-23 39 -53 59 -67 20 -13 40 -24 46 -24 5 0 31 -9 58 -21 31 -14 78 -23 134
-26 57 -3 89 -1 93 6 4 6 16 11 27 11 11 0 36 9 57 19 20 10 58 38 84 61 26
23 54 56 62 73 8 18 17 48 20 67 3 19 9 54 12 77 5 35 1 54 -26 109 -18 38
-55 95 -83 128 -27 33 -59 67 -71 76 -11 9 -43 28 -70 43 -34 19 -62 27 -95
26z m26 -100 c18 -4 47 -15 64 -25 18 -11 61 -53 95 -94 36 -43 65 -90 70
-110 4 -19 6 -53 5 -75 -2 -22 -14 -61 -27 -87 -13 -25 -35 -55 -49 -66 -14
-11 -40 -24 -58 -27 -18 -4 -36 -11 -42 -15 -5 -4 -20 -10 -33 -13 -13 -3 -40
1 -60 10 -20 8 -48 23 -62 33 -14 9 -37 20 -52 24 -19 4 -29 2 -36 -10 -6 -11
-16 -14 -29 -10 -11 3 -30 25 -43 47 -20 37 -22 50 -17 125 5 66 12 94 33 131
16 27 39 63 52 81 14 18 38 42 55 54 17 12 46 24 66 28 20 3 50 3 68 -1z"/>
<g>
<path d="M4931 7800 c-17 0 -37 -11 -54 -28 -15 -16 -27 -40 -27 -54 0 -15 12
-39 29 -57 16 -17 39 -31 51 -31 12 0 31 5 43 12 12 6 30 20 40 31 9 11 17 23
17 26 0 3 -5 23 -11 44 -7 26 -18 41 -35 47 -14 6 -38 10 -53 10z"/>
</g>
</g>
<g>
<path d="M5394 8060 c-15 6 -35 0 -69 -20 -26 -15 -51 -33 -55 -40 -5 -7 -3
-24 3 -37 6 -13 19 -23 31 -23 12 0 42 17 68 38 31 24 47 44 45 56 -1 10 -11
22 -23 26z"/>
</g>
<g>
<path d="M6137 7975 c-29 2 -68 -2 -87 -9 -19 -7 -49 -19 -66 -27 -17 -8 -45
-26 -62 -41 -18 -15 -32 -31 -32 -36 0 -5 -7 -15 -16 -23 -8 -7 -24 -30 -35
-52 -11 -21 -22 -53 -24 -70 -3 -18 -7 -58 -10 -89 -2 -32 -1 -58 3 -58 4 0
13 -15 21 -32 8 -18 24 -43 35 -56 12 -13 32 -35 46 -48 14 -14 45 -34 70 -45
41 -19 51 -20 110 -9 36 7 96 28 134 47 39 19 91 52 117 74 39 32 51 51 67
102 11 34 22 75 25 92 3 16 -3 52 -14 82 -14 37 -36 67 -75 102 -31 28 -68 54
-82 57 -15 4 -38 13 -50 21 -13 8 -47 16 -75 18z m-13 -90 c27 -2 56 -11 65
-19 9 -8 29 -18 45 -22 15 -3 43 -22 62 -41 18 -18 37 -45 40 -59 4 -14 4 -48
2 -75 -3 -28 -14 -62 -25 -77 -11 -15 -37 -40 -59 -55 -21 -15 -66 -41 -99
-57 -47 -24 -67 -28 -100 -24 -22 4 -51 13 -65 22 -14 9 -36 28 -50 42 -14 15
-31 39 -38 54 -7 15 -12 59 -12 97 0 39 5 79 10 90 6 10 20 19 31 19 13 0 24
10 31 31 8 24 24 37 62 55 39 19 62 23 100 19z"/>
<g>
<path d="M6106 7780 c-10 0 -36 -18 -57 -41 -21 -23 -39 -51 -41 -63 -2 -11 2
-34 10 -49 7 -16 29 -35 49 -43 28 -12 41 -13 62 -4 14 6 36 27 49 47 17 27
22 47 20 82 -3 41 -6 46 -28 49 -14 2 -29 8 -34 13 -6 5 -19 9 -30 9z"/>
</g>
</g>
<g>
<path d="M4377 7935 c-28 5 -39 2 -43 -9 -3 -8 -4 -23 -2 -33 2 -9 17 -24 33
-33 16 -8 35 -22 42 -31 7 -9 33 -19 60 -22 27 -3 54 -1 61 5 6 6 12 18 12 27
0 10 -10 27 -22 39 -13 11 -36 24 -53 28 -16 4 -35 11 -41 15 -6 5 -27 11 -47
14z"/>
</g>
<g>
<path d="M6765 7892 c-11 2 -40 3 -65 1 -25 -2 -67 -14 -93 -26 -45 -21 -48
-24 -45 -57 2 -25 8 -36 22 -38 10 -2 37 4 60 13 22 9 50 22 61 28 11 6 33 17
48 25 16 8 31 21 34 29 3 7 4 15 2 17 -2 2 -13 5 -24 8z"/>
</g>
<g>
<path d="M7362 7880 c-15 0 -38 -8 -52 -18 -14 -10 -51 -42 -82 -73 -43 -40
-58 -61 -58 -82 0 -21 5 -27 23 -27 14 0 56 32 116 88 60 56 92 92 87 100 -4
7 -19 12 -34 12z"/>
</g>
<g>
<path d="M7617 7880 c-12 0 -29 -6 -37 -13 -8 -7 -16 -19 -18 -27 -2 -8 -10
-19 -18 -23 -8 -4 -14 -13 -14 -19 0 -7 -9 -21 -19 -32 -11 -12 -20 -30 -21
-41 -1 -11 -2 -26 -1 -32 0 -7 8 -13 16 -13 9 0 30 10 46 23 17 12 38 36 46
52 8 17 26 42 40 56 21 23 23 30 14 48 -7 12 -21 21 -34 21z"/>
</g>
<g>
<path d="M3741 7700 c-15 0 -31 -3 -34 -7 -4 -3 -7 -14 -7 -24 0 -10 17 -28
39 -41 22 -13 65 -45 95 -71 49 -43 57 -47 75 -35 12 7 21 20 21 30 0 9 -15
27 -32 39 -18 13 -55 42 -82 66 -32 28 -57 43 -75 43z"/>
</g>
<g>
<path d="M4077 7700 c-7 0 -22 -6 -32 -14 -18 -13 -18 -15 9 -47 16 -19 49
-51 75 -72 25 -20 57 -46 70 -58 14 -12 31 -17 42 -14 11 4 19 10 19 14 0 4
-5 22 -11 39 -6 18 -39 54 -85 91 -40 34 -80 61 -87 61z"/>
</g>
<g>
<path d="M5719 7698 c-14 2 -27 0 -31 -3 -3 -3 -23 -7 -44 -9 -37 -3 -39 -6
-39 -37 l0 -34 60 3 c43 3 66 9 80 23 15 15 17 23 9 37 -6 9 -22 18 -35 20z"/>
</g>
<g>
<path d="M5416 7670 c-46 0 -67 -4 -77 -16 -7 -9 -14 -22 -15 -30 -1 -8 2 -17
8 -20 6 -4 36 -8 67 -9 31 -2 62 2 69 7 6 6 12 23 12 39 0 29 0 29 -64 29z"/>
</g>
<g>
<path d="M6957 7600 c-20 0 -26 -6 -31 -33 -5 -26 -17 -39 -61 -65 -35 -21
-55 -40 -55 -51 0 -10 7 -24 15 -31 9 -8 23 -9 39 -3 14 4 54 34 90 66 38 33
66 66 66 77 0 11 -9 24 -19 30 -11 5 -31 10 -44 10z"/>
</g>
<g>
<path d="M5170 7360 c-22 0 -29 -6 -34 -26 -5 -18 -2 -32 9 -44 8 -9 13 -24
10 -31 -3 -8 4 -25 15 -37 11 -12 32 -22 45 -22 15 0 25 6 25 15 0 7 -7 39
-14 70 -8 30 -18 60 -21 65 -3 6 -19 10 -35 10z"/>
</g>
<g>
<path d="M7236 7350 c-13 0 -33 -11 -46 -25 -12 -13 -28 -33 -34 -43 -6 -10
-25 -40 -43 -66 -17 -26 -29 -54 -26 -62 3 -8 15 -14 28 -14 14 0 40 18 68 46
25 26 54 66 66 89 12 24 18 50 15 59 -3 9 -16 16 -28 16z"/>
</g>
<g>
<path d="M5916 7329 c-6 -1 -23 -7 -37 -15 -14 -7 -33 -22 -43 -33 -11 -13
-15 -27 -11 -40 5 -16 15 -21 44 -21 24 0 44 7 53 18 9 9 19 27 23 40 4 13 2
29 -5 37 -7 8 -18 15 -24 14z"/>
</g>
<g>
<path d="M4494 7300 c-17 0 -34 -3 -37 -7 -4 -3 -7 -14 -7 -24 0 -9 10 -23 23
-32 12 -8 40 -31 62 -51 22 -20 58 -45 80 -55 28 -13 45 -16 58 -10 9 6 17 15
17 21 0 6 -9 25 -20 44 -12 18 -34 39 -50 46 -17 7 -30 16 -30 21 0 4 -15 16
-32 27 -18 11 -47 20 -64 20z"/>
</g>
<g>
<path d="M6525 7280 c-8 0 -19 -8 -24 -19 -6 -10 -33 -36 -61 -57 -28 -21 -57
-49 -65 -61 -11 -16 -12 -29 -5 -48 5 -14 14 -25 19 -25 6 0 39 25 73 56 35
31 73 61 85 67 12 5 26 22 32 37 8 24 6 29 -15 39 -14 6 -31 11 -39 11z"/>
</g>
<g>
<path d="M4204 7210 c-6 0 -16 -6 -22 -13 -8 -9 -3 -28 16 -68 15 -30 33 -61
39 -69 7 -8 33 -41 58 -72 42 -53 49 -58 86 -58 35 0 39 3 39 25 0 14 -4 25
-9 25 -5 0 -26 25 -46 56 -20 30 -43 58 -51 61 -7 3 -23 21 -35 41 -12 21 -32
45 -43 54 -12 10 -26 18 -32 18z"/>
</g>
<g>
<path d="M6026 7190 c-18 0 -36 -3 -39 -7 -4 -3 -7 -17 -7 -29 0 -13 -5 -35
-12 -49 -10 -21 -9 -29 5 -42 14 -14 20 -15 41 -3 14 7 32 28 41 46 9 20 13
44 9 59 -5 20 -12 25 -38 25z"/>
</g>
<g>
<path d="M5749 7140 c-8 0 -22 -6 -31 -12 -8 -7 -28 -36 -43 -64 -17 -29 -26
-58 -22 -67 4 -10 17 -17 29 -17 15 1 33 15 53 43 17 23 37 55 45 70 12 24 12
30 0 37 -8 6 -22 10 -31 10z"/>
</g>
<g>
<path d="M5260 7110 c-13 0 -24 -11 -33 -32 -7 -18 -10 -37 -5 -43 4 -5 18
-22 30 -36 23 -27 24 -27 47 -8 12 10 24 26 25 36 2 10 -8 29 -21 43 -12 13
-23 28 -23 32 0 5 -9 8 -20 8z"/>
</g>
<g>
<path d="M5563 6979 c-26 -1 -68 -5 -93 -8 -25 -4 -60 -16 -77 -29 -17 -12
-54 -47 -82 -78 -28 -30 -51 -61 -51 -69 0 -7 -6 -24 -13 -38 -10 -19 -17 -23
-29 -16 -11 6 -26 5 -42 -2 -14 -7 -27 -18 -30 -25 -3 -8 6 -21 19 -30 15 -10
32 -13 47 -8 19 6 21 4 11 -7 -6 -8 -10 -28 -9 -45 2 -17 6 -36 10 -42 4 -7 4
-16 1 -22 -3 -5 10 -34 29 -62 19 -29 44 -62 55 -73 11 -11 27 -26 36 -34 9
-7 40 -22 68 -32 37 -13 65 -17 97 -13 25 3 68 20 97 37 28 18 79 56 114 86
34 29 70 69 80 90 9 20 22 51 28 69 6 18 8 54 4 80 -3 26 -11 54 -18 62 -6 8
-22 36 -34 63 -13 26 -42 62 -64 81 -23 18 -56 41 -74 50 -18 9 -53 15 -80 15z
m-16 -81 c6 1 38 -13 71 -31 33 -17 69 -44 81 -58 11 -14 29 -49 40 -79 18
-47 19 -55 6 -81 -8 -15 -15 -34 -15 -41 0 -7 -10 -25 -23 -39 -12 -15 -43
-43 -69 -62 -26 -20 -66 -46 -89 -57 -39 -20 -44 -21 -78 -7 -20 9 -48 18 -63
21 -15 4 -34 19 -45 36 -9 17 -20 30 -24 30 -4 0 -15 20 -24 45 -12 30 -15 56
-10 82 3 20 17 58 31 84 13 26 45 70 71 98 39 41 55 51 88 54 22 2 45 4 52 5z"/>
<g>
<path d="M5513 6750 c-13 0 -36 -17 -60 -45 -32 -36 -39 -50 -35 -75 3 -24 13
-35 44 -50 35 -17 42 -17 73 -4 18 7 41 24 49 36 9 12 16 31 16 40 0 10 -6 28
-12 40 -7 12 -22 30 -33 40 -11 9 -30 17 -42 18z"/>
</g>
</g>
<g>
<path d="M6150 6978 c-30 2 -41 -3 -78 -41 -23 -24 -60 -54 -81 -68 -27 -16
-41 -34 -45 -53 -4 -19 -2 -33 6 -38 7 -4 23 -8 36 -8 14 0 41 18 72 49 27 27
66 57 87 67 33 17 38 23 38 54 0 33 -2 35 -35 38z"/>
</g>
<g>
<path d="M4894 6970 c-6 0 -18 -8 -27 -18 -10 -10 -17 -24 -17 -30 0 -7 15
-26 33 -42 17 -16 37 -30 43 -30 6 0 19 -9 30 -21 10 -11 27 -25 37 -30 12 -7
29 -6 52 2 30 11 34 17 31 43 -2 23 -10 32 -32 39 -16 6 -54 27 -84 48 -31 22
-61 39 -66 39z"/>
</g>
<g>
<path d="M6950 6930 c-16 0 -39 -9 -50 -20 -10 -10 -29 -41 -41 -67 -12 -26
-23 -51 -26 -55 -2 -4 5 -16 17 -28 11 -11 25 -20 30 -20 6 0 10 6 10 13 0 7
15 30 33 52 17 22 38 55 44 75 7 19 13 38 13 43 0 4 -13 7 -30 7z"/>
</g>
<g>
<path d="M4663 6689 c-4 0 -14 -3 -20 -6 -7 -2 -13 -10 -13 -17 0 -7 7 -27 16
-45 9 -18 23 -35 30 -38 8 -3 28 -25 45 -49 16 -24 36 -44 43 -44 7 0 21 -9
31 -20 11 -12 31 -20 51 -20 18 0 40 7 48 16 9 8 16 18 16 22 0 4 -16 18 -36
32 -20 13 -65 52 -99 86 -34 34 -72 67 -83 73 -11 6 -24 11 -29 10z"/>
</g>
<g>
<path d="M5981 6660 c-35 0 -39 -3 -45 -31 -3 -17 -6 -46 -6 -64 0 -18 6 -38
14 -44 11 -9 20 -10 36 -1 11 6 25 22 30 36 6 14 10 43 10 65 0 39 0 39 -39
39z"/>
</g>
<g>
<path d="M5971 6404 c-12 11 -21 15 -21 8 0 -6 -8 -12 -18 -12 -13 0 -21 -14
-30 -55 -7 -31 -10 -64 -7 -75 4 -11 18 -23 32 -26 19 -5 30 -2 38 10 7 9 16
42 20 73 6 49 4 58 -14 77z"/>
</g>
<g>
<path d="M6572 6409 c-4 0 -13 -3 -19 -6 -7 -2 -13 -12 -13 -21 0 -9 -17 -36
-38 -61 -21 -25 -44 -56 -50 -68 -7 -12 -12 -30 -12 -41 0 -11 7 -26 16 -33
14 -12 19 -10 33 10 9 13 31 39 48 58 18 19 42 55 53 80 11 25 20 51 20 58 0
7 -7 16 -16 19 -9 3 -19 6 -22 5z"/>
</g>
<g>
<path d="M5621 6270 c-15 16 -33 25 -43 23 -10 -3 -21 -15 -24 -29 -4 -13 -1
-31 6 -39 7 -8 10 -26 6 -39 -4 -17 -1 -26 10 -30 9 -3 27 -6 40 -6 16 0 25 6
26 18 0 9 2 30 3 46 1 19 -6 38 -24 56z"/>
</g>
<g>
<path d="M5090 6280 c-8 4 -25 4 -37 -1 -13 -5 -23 -13 -23 -18 0 -6 8 -27 18
-47 9 -20 32 -52 51 -71 19 -19 43 -39 53 -44 11 -6 35 -8 53 -5 24 5 32 11
30 24 -2 9 -4 21 -4 26 -1 4 -29 35 -63 68 -35 33 -70 63 -78 68z"/>
</g>
<g>
<path d="M5907 6090 c-19 0 -36 -2 -39 -5 -3 -3 -3 -27 0 -54 2 -26 -1 -57 -6
-68 -8 -15 -8 -24 1 -35 7 -8 19 -18 28 -21 9 -3 22 -1 29 3 8 5 19 28 26 51
9 28 10 48 3 60 -5 10 -9 29 -9 43 0 23 -4 26 -33 26z"/>
</g>
<g>
<path d="M5685 6080 c-11 0 -26 -4 -34 -9 -9 -6 -11 -16 -7 -27 4 -11 9 -35
12 -54 2 -19 9 -39 14 -44 6 -6 10 -18 10 -27 0 -10 12 -27 26 -38 27 -21 27
-21 41 -1 12 17 12 27 -1 72 -8 29 -20 70 -28 91 -9 26 -19 37 -33 37z"/>
</g>
<g>
<path d="M6307 5990 c-8 0 -37 -25 -65 -55 -28 -30 -59 -69 -67 -85 -9 -17
-19 -30 -24 -30 -5 0 -11 -7 -15 -15 -3 -8 -1 -26 4 -40 5 -14 16 -25 23 -25
8 0 33 19 55 42 23 23 42 47 42 53 0 7 8 19 19 29 10 9 26 34 36 56 10 21 15
46 12 54 -4 9 -13 16 -20 16z"/>
</g>
<g>
<path d="M5408 5890 c-10 0 -22 -9 -29 -21 -9 -17 -7 -25 10 -43 12 -12 21
-27 21 -34 0 -6 10 -18 22 -26 12 -9 34 -16 49 -16 15 0 32 7 39 15 6 8 10 22
8 32 -2 9 -26 34 -53 55 -28 21 -58 38 -67 38z"/>
</g>
<g>
<path d="M5846 5829 c-6 0 -25 -6 -43 -12 -18 -7 -42 -20 -53 -29 -11 -10 -30
-18 -41 -18 -12 0 -34 -14 -50 -31 -15 -16 -40 -55 -55 -85 -21 -42 -28 -73
-30 -134 -2 -44 1 -82 6 -85 6 -4 10 -17 10 -30 0 -16 18 -40 58 -75 31 -28
69 -54 85 -57 15 -3 30 -10 33 -14 3 -5 40 -9 82 -8 42 0 91 6 109 12 18 7 55
35 84 62 29 28 60 68 70 90 10 22 19 55 19 74 0 18 -5 52 -12 75 -6 22 -18 50
-25 61 -7 11 -13 27 -13 36 0 9 -16 30 -35 48 -19 17 -58 45 -85 61 -28 17
-57 30 -64 30 -8 0 -19 7 -26 15 -7 8 -18 15 -24 14z m1 -105 c12 -1 45 -15
73 -30 29 -16 64 -43 80 -62 15 -18 33 -57 40 -86 7 -30 10 -70 6 -89 -4 -22
-18 -46 -37 -61 -16 -14 -49 -31 -72 -37 -23 -6 -65 -14 -94 -18 -42 -6 -60
-4 -95 13 -26 13 -50 35 -63 56 -11 19 -22 62 -25 95 -5 48 -2 68 16 105 12
25 30 53 40 62 11 9 39 25 64 36 24 10 55 18 67 16z"/>
<g>
<path d="M5893 5636 c-42 1 -56 -3 -74 -22 -12 -13 -30 -26 -41 -30 -12 -4
-18 -15 -18 -37 0 -20 11 -45 29 -66 28 -34 30 -35 67 -23 22 6 52 14 67 17
17 3 31 15 37 31 6 14 10 37 10 52 0 15 -6 38 -13 52 -11 21 -20 25 -64 26z"/>
</g>
</g>
</g>
</svg>
