<?xml version="1.0" standalone="no"?>
<!DOCTYPE svg PUBLIC "-//W3C//DTD SVG 20010904//EN"
 "http://www.w3.org/TR/2001/REC-SVG-20010904/DTD/svg10.dtd">
<svg version="1.0" xmlns="http://www.w3.org/2000/svg"
 width="1526.000000pt" height="1375.000000pt" viewBox="0 0 1526.000000 1375.000000"
 preserveAspectRatio="xMidYMid meet">
<metadata>
Created by potrace 1.16, written by Peter Selinger 2001-2019
</metadata>
<g transform="translate(0.000000,1375.000000) scale(0.100000,-0.100000)"
fill="#000000" stroke="none">
<g>
<path d="M7679 12750 c-42 0 -78 -2 -81 -5 -3 -3 -202 -5 -444 -5 -241 -1
-455 -5 -474 -10 -19 -5 -114 -12 -210 -16 -96 -3 -411 -8 -700 -10 -289 -2
-588 -7 -665 -11 -84 -5 -192 -4 -270 2 -71 6 -204 9 -295 8 -91 -2 -190 -8
-220 -15 -30 -6 -68 -12 -85 -13 -16 -1 -122 -3 -235 -4 -113 -2 -232 -7 -265
-11 -33 -5 -116 -12 -185 -15 -69 -3 -154 -9 -190 -15 -36 -5 -101 -14 -145
-20 -44 -5 -152 -12 -240 -15 -88 -3 -205 -10 -260 -16 -55 -6 -154 -15 -220
-19 -66 -4 -153 -10 -193 -14 -41 -3 -82 -11 -93 -17 -11 -5 -24 -7 -29 -4 -6
4 -43 2 -83 -4 -39 -6 -180 -12 -312 -12 -132 -1 -303 1 -380 5 -136 6 -140 5
-176 -19 -21 -13 -40 -33 -44 -44 -3 -12 0 -33 8 -48 9 -16 20 -41 26 -58 5
-16 15 -58 22 -93 8 -43 10 -150 6 -350 -3 -164 -10 -313 -17 -347 -7 -33 -13
-132 -14 -220 0 -88 2 -284 7 -435 4 -151 10 -327 12 -390 3 -63 7 -207 9
-320 2 -113 9 -232 15 -265 5 -33 15 -118 21 -190 5 -71 13 -191 18 -265 4
-74 7 -279 7 -455 0 -176 -3 -417 -7 -535 -4 -118 -12 -316 -17 -440 -6 -124
-14 -286 -18 -360 -4 -74 -8 -279 -7 -455 0 -176 4 -383 9 -460 4 -78 5 -162
1 -188 -6 -39 -13 -50 -37 -62 -22 -12 -29 -23 -29 -45 0 -23 10 -36 48 -64
26 -19 63 -47 82 -61 19 -14 72 -55 117 -90 45 -36 87 -65 93 -65 6 0 29 -12
53 -26 23 -15 55 -37 70 -50 16 -13 56 -37 90 -54 34 -17 77 -41 95 -53 19
-12 51 -37 72 -54 27 -24 47 -33 73 -33 20 0 39 5 42 10 4 6 11 8 16 4 6 -3
220 -8 477 -10 257 -2 499 -6 537 -9 39 -2 101 -10 139 -16 39 -6 95 -9 125
-7 31 3 90 1 131 -3 42 -5 145 -5 235 1 88 5 214 12 280 15 66 3 179 10 250
15 72 5 292 10 490 10 197 0 375 2 395 5 19 2 208 7 420 10 212 2 453 7 535
10 83 3 227 12 320 20 94 8 271 17 394 20 124 3 239 7 255 10 17 3 137 12 266
20 129 9 269 20 310 25 41 5 138 12 215 15 77 3 295 9 485 12 190 4 449 6 575
6 127 -1 356 -2 510 -3 154 -1 368 1 475 4 107 3 251 8 320 11 69 3 172 10
230 16 58 5 128 14 155 19 28 5 109 12 180 15 72 3 173 10 225 15 52 6 158 12
235 15 77 2 259 7 405 10 146 3 310 8 365 10 55 3 136 7 180 10 44 3 150 7
235 10 85 3 227 10 315 15 88 6 219 13 290 15 72 3 234 10 360 16 127 6 243
16 259 22 26 9 31 8 48 -16 11 -15 28 -27 38 -27 10 0 22 6 27 13 4 6 9 82 9
167 1 85 7 191 15 235 9 58 13 188 12 470 -1 215 -6 440 -12 500 -6 61 -16
184 -21 275 -5 91 -15 257 -22 370 -7 113 -13 396 -14 630 0 234 -3 493 -6
575 -3 83 -1 256 3 385 4 129 10 262 14 295 4 33 7 299 6 590 -1 292 -6 559
-12 595 -5 36 -14 157 -19 270 -4 113 -18 273 -29 355 -11 83 -22 201 -24 262
-3 70 -9 118 -17 128 -7 9 -21 13 -34 9 -15 -3 -31 3 -51 23 -17 15 -34 28
-40 29 -5 2 -26 8 -45 15 -19 7 -51 19 -70 26 -19 8 -44 19 -55 24 -12 6 -27
11 -35 12 -8 2 -30 10 -49 20 -19 9 -40 17 -47 17 -7 0 -51 18 -98 40 -47 22
-88 40 -91 40 -3 0 -30 11 -58 24 -29 12 -72 26 -97 30 -24 4 -52 14 -62 23
-10 9 -38 16 -70 17 -29 0 -129 -3 -223 -7 -93 -5 -177 -8 -185 -8 -8 1 -83 1
-167 1 -84 0 -162 -4 -175 -9 -13 -5 -109 -6 -214 -4 -105 3 -267 0 -360 -6
-93 -6 -234 -11 -314 -12 -80 -1 -278 1 -440 5 -162 3 -347 8 -410 11 -63 3
-214 7 -335 9 -121 2 -240 6 -265 10 -25 3 -153 8 -285 11 -132 3 -397 8 -590
10 -192 3 -408 7 -480 9 -71 3 -218 10 -325 15 -107 6 -229 11 -271 11z m-391
-104 c444 -2 881 -6 972 -9 91 -4 385 -9 654 -12 269 -3 491 -7 495 -9 3 -2
67 -7 141 -10 74 -4 137 -9 140 -11 3 -1 205 -6 450 -10 245 -4 447 -8 450
-10 3 -2 91 -4 195 -4 105 -1 319 1 477 5 279 6 288 6 331 -15 24 -11 50 -21
58 -21 8 0 35 -13 60 -28 24 -16 50 -36 57 -45 7 -8 27 -19 43 -22 16 -4 29
-11 29 -16 0 -5 6 -9 14 -9 7 0 20 -7 27 -17 13 -15 -3 -16 -221 -10 -146 4
-260 12 -302 21 -36 8 -122 17 -190 21 -67 3 -235 8 -373 11 -137 3 -270 7
-295 9 -24 2 -163 7 -310 10 -146 4 -339 6 -430 6 -91 -1 -253 -4 -360 -7
-107 -2 -224 -6 -260 -9 -36 -3 -90 -7 -120 -9 -30 -2 -291 -7 -580 -11 -329
-4 -590 -12 -700 -22 -112 -9 -308 -15 -545 -16 -203 -1 -440 2 -525 6 -85 4
-164 7 -175 8 -11 0 -83 1 -160 2 -77 1 -297 1 -490 0 -192 -1 -429 -4 -525
-7 -96 -2 -253 -7 -348 -10 -96 -3 -177 -8 -180 -10 -4 -2 -38 -4 -75 -5 -38
0 -72 -3 -76 -6 -4 -2 -57 -7 -117 -10 -60 -3 -152 -7 -204 -10 -52 -2 -189
-9 -305 -15 -115 -6 -225 -15 -243 -21 -19 -6 -47 -9 -62 -5 -16 3 -64 1 -107
-4 -43 -6 -152 -15 -243 -20 -91 -6 -181 -13 -200 -15 -19 -2 -105 -6 -190
-10 -85 -3 -207 -10 -270 -16 -63 -5 -207 -19 -320 -30 -123 -12 -228 -18
-263 -14 -31 4 -60 11 -63 16 -3 5 -44 8 -92 8 -75 -2 -95 2 -142 24 -30 14
-75 31 -100 37 -25 7 -64 23 -88 36 -23 13 -47 24 -52 24 -5 0 -35 12 -67 27
l-58 28 265 6 c146 4 288 9 315 11 28 3 93 10 145 17 52 7 109 16 125 21 17 5
82 11 145 15 63 3 185 12 270 20 85 7 220 19 300 25 80 6 253 20 385 31 132
11 389 27 570 35 182 8 366 19 410 24 44 5 159 6 255 2 96 -4 339 -6 540 -4
201 1 534 7 740 13 206 5 415 11 463 13 49 3 91 7 94 9 2 3 367 4 811 3z
m5107 -43 c72 -2 169 -5 216 -7 47 -2 94 -8 105 -14 10 -5 44 -13 74 -16 30
-4 66 -11 80 -16 14 -5 39 -15 55 -21 17 -7 50 -20 75 -29 25 -10 88 -36 140
-59 52 -22 105 -41 116 -41 12 0 27 -6 33 -14 11 -13 -3 -15 -96 -18 -59 -2
-247 0 -418 4 -170 4 -364 7 -430 7 -91 0 -141 5 -205 21 -47 12 -105 31 -130
42 -25 11 -54 28 -66 39 -11 10 -48 32 -81 48 -34 17 -64 34 -67 39 -3 6 0 12
7 14 6 3 48 6 92 7 44 2 145 6 225 11 80 4 204 5 275 3z m-2630 -219 c264 -2
527 -6 585 -8 58 -2 116 -7 130 -11 14 -5 158 -11 320 -15 162 -4 338 -13 390
-20 52 -7 115 -17 140 -22 25 -6 196 -14 380 -18 184 -5 367 -9 405 -10 42 -1
78 -8 90 -16 16 -12 20 -33 27 -127 4 -61 10 -211 13 -332 4 -121 11 -249 16
-285 6 -36 15 -99 20 -140 5 -41 13 -119 18 -172 5 -53 10 -134 11 -180 1 -46
-2 -191 -6 -323 -5 -132 -9 -366 -9 -520 0 -154 4 -345 10 -425 5 -80 10 -260
9 -400 0 -140 -2 -453 -5 -695 -4 -242 -2 -496 2 -565 4 -69 9 -191 11 -272
l3 -146 -90 -8 c-49 -4 -207 -7 -350 -6 -143 0 -312 3 -375 6 -63 4 -524 8
-1025 10 -515 2 -956 0 -1015 -6 -58 -5 -529 -8 -1050 -7 -520 1 -1033 3
-1140 3 -107 1 -339 -3 -514 -7 -176 -4 -323 -10 -328 -13 -5 -3 -199 -7 -431
-9 -232 -2 -487 -7 -567 -10 -80 -3 -213 -10 -297 -16 -84 -5 -208 -12 -275
-14 -68 -3 -199 -7 -293 -10 -93 -3 -251 -7 -350 -10 -99 -3 -187 -7 -195 -10
-8 -2 -80 -7 -160 -10 -80 -3 -237 -10 -350 -15 -113 -5 -302 -13 -420 -16
-118 -4 -316 -7 -440 -7 -124 1 -277 4 -340 8 -63 3 -132 11 -153 16 -21 6
-78 9 -125 8 l-87 -2 -7 34 c-4 19 -10 878 -12 1909 -4 1588 -2 1909 11 2100
8 124 18 280 21 348 7 116 9 124 32 142 20 16 42 20 109 20 46 0 143 7 215 14
72 8 196 20 276 26 80 5 224 15 320 21 96 5 220 14 275 18 55 5 134 14 175 20
41 6 131 13 200 15 69 3 238 12 375 21 138 8 340 20 450 25 110 6 211 12 225
15 14 2 138 9 275 14 138 6 340 13 450 17 110 3 202 8 205 9 3 2 100 4 215 4
116 0 230 -1 255 -3 25 -2 135 -4 245 -3 110 0 218 0 240 0 22 0 211 -8 420
-18 320 -15 408 -16 560 -6 99 7 198 14 220 16 22 2 81 7 130 10 50 3 248 5
440 5 290 0 397 5 625 25 151 13 300 26 330 29 30 2 271 2 535 0z m-8425 -29
c12 -2 27 -8 34 -13 6 -5 56 -29 111 -52 55 -23 108 -46 117 -51 10 -5 22 -9
28 -9 5 0 38 -13 72 -28 35 -16 85 -37 111 -47 32 -12 52 -27 58 -41 5 -14 4
-125 -3 -266 -6 -134 -11 -445 -12 -693 0 -247 1 -799 2 -1225 1 -426 1 -1085
-1 -1465 -2 -458 0 -707 7 -740 6 -27 10 -67 8 -88 l-3 -37 -117 61 c-64 34
-124 67 -132 73 -8 7 -41 25 -72 41 -31 15 -83 52 -115 81 -32 30 -62 55 -66
57 -5 1 -4 158 2 347 6 190 13 480 15 646 3 165 1 341 -4 390 -5 49 -14 157
-20 239 -6 83 -13 170 -15 195 -2 25 -9 101 -15 170 -5 69 -14 285 -20 480 -5
195 -13 447 -17 560 -4 113 -7 248 -8 300 0 52 5 145 11 205 7 61 18 144 25
185 8 48 13 177 13 355 0 154 -3 301 -8 327 -8 46 -8 47 14 43z m11030 -80
c14 -3 81 -9 150 -15 77 -6 238 -7 420 -2 162 4 362 6 444 5 82 -1 153 -6 157
-10 5 -5 13 -40 18 -78 6 -39 13 -106 16 -150 3 -44 10 -111 15 -150 5 -38 14
-137 19 -220 6 -82 13 -170 15 -195 2 -25 9 -83 16 -130 7 -58 10 -256 7 -625
-2 -297 -9 -634 -16 -750 -6 -115 -10 -304 -9 -420 1 -115 1 -385 1 -600 -1
-214 2 -453 7 -530 5 -77 13 -219 19 -315 6 -96 13 -237 17 -314 l6 -139 -129
7 c-70 3 -144 8 -163 10 -19 3 -172 7 -340 10 -168 3 -378 6 -467 6 -161 0
-163 0 -167 23 -3 12 -7 92 -10 177 -3 85 -10 256 -16 380 -6 124 -8 304 -5
400 3 96 8 256 11 355 3 99 7 201 10 228 3 26 -2 206 -11 400 -12 245 -15 440
-11 642 4 160 7 412 7 560 1 149 -2 311 -5 360 -4 50 -11 131 -17 180 -6 50
-17 139 -26 200 -11 82 -14 179 -11 395 2 170 7 290 13 297 6 7 21 10 35 8z
m-10971 -4517 c25 -25 77 -59 116 -77 38 -19 83 -44 100 -56 16 -13 71 -43
120 -67 50 -25 102 -50 116 -56 l27 -11 6 -198 c4 -109 12 -217 18 -241 7 -29
8 -99 2 -225 -4 -100 -7 -297 -6 -438 1 -140 4 -265 7 -277 3 -16 -1 -22 -15
-22 -10 0 -21 4 -24 9 -3 5 -17 12 -31 15 -15 4 -48 22 -75 41 -28 19 -52 35
-55 35 -3 0 -16 9 -28 21 -12 11 -47 33 -77 49 -30 15 -90 56 -132 90 -43 34
-78 68 -78 76 0 8 -10 24 -21 35 -19 19 -21 29 -16 93 3 39 2 141 -3 226 -6
85 -10 342 -10 571 -1 228 2 423 6 433 6 15 13 11 53 -26z m9086 -164 c490 -2
980 -7 1090 -11 110 -5 322 -7 471 -5 l272 2 6 -22 c3 -13 11 -115 17 -228 7
-132 9 -312 4 -505 -4 -165 -8 -329 -10 -363 -1 -35 2 -83 6 -105 4 -23 4 -45
1 -49 -4 -3 -61 -10 -127 -14 -66 -4 -147 -8 -180 -9 -33 -1 -175 -4 -315 -8
-140 -4 -343 -10 -450 -13 -107 -3 -208 -7 -225 -10 -16 -2 -106 -9 -200 -14
-93 -6 -226 -17 -295 -25 -69 -8 -174 -17 -235 -21 -60 -3 -211 -10 -335 -14
-124 -4 -436 -6 -695 -3 -258 3 -481 5 -495 5 -14 0 -226 -5 -472 -11 -246 -6
-536 -17 -645 -26 -109 -9 -270 -22 -358 -31 -88 -8 -281 -19 -430 -26 -148
-6 -297 -12 -330 -13 -33 -1 -193 -7 -355 -13 -162 -6 -398 -14 -525 -17 -126
-3 -369 -10 -540 -15 -170 -5 -443 -12 -605 -15 -162 -3 -342 -8 -400 -11 -58
-2 -152 -9 -210 -14 -58 -6 -211 -10 -340 -10 -129 0 -275 5 -325 10 -49 6
-108 12 -130 14 -22 3 -231 7 -465 11 -234 3 -464 10 -513 16 -48 5 -99 6
-113 3 -15 -4 -29 -2 -33 4 -4 6 -8 62 -10 124 -1 62 -5 116 -7 120 -3 4 -4
126 -3 270 2 145 3 304 4 353 1 50 -4 144 -11 210 -7 66 -14 170 -16 232 l-4
112 30 3 c17 2 49 -2 71 -8 22 -6 74 -12 115 -13 41 -1 183 -6 315 -11 132 -5
296 -7 365 -5 69 2 222 9 340 14 118 6 274 15 345 21 72 5 281 17 465 25 184
9 448 17 585 19 138 1 365 10 505 19 140 9 350 19 465 22 116 4 347 8 515 10
168 2 460 9 650 16 190 8 390 13 445 13 55 0 588 -2 1185 -3 654 -2 1117 1
1165 7 48 5 437 8 970 6z m2308 -19 c210 -5 414 -10 452 -11 39 -2 102 -5 140
-8 39 -2 108 -10 154 -16 47 -6 99 -9 117 -5 l32 6 2 -123 c1 -68 1 -175 1
-238 -1 -63 -3 -180 -5 -260 -2 -80 -9 -197 -16 -260 -7 -63 -13 -140 -12
-170 1 -30 -1 -74 -4 -97 -5 -41 -6 -42 -30 -31 -18 9 -51 8 -129 -1 -57 -6
-211 -16 -342 -21 -131 -5 -332 -14 -448 -20 -115 -6 -217 -12 -225 -15 -11
-4 -20 10 -34 46 -15 43 -17 79 -16 223 1 94 1 284 1 421 -1 138 -6 313 -11
390 -5 77 -10 153 -10 169 l0 29 383 -8z"/>
<g>
<path d="M8997 11948 c-13 2 -32 -4 -41 -13 -9 -9 -19 -28 -22 -43 -3 -15 -8
-31 -10 -37 -2 -5 -26 -45 -54 -88 -27 -43 -50 -83 -50 -88 0 -4 -15 -37 -34
-72 -19 -35 -37 -80 -41 -100 -5 -24 -3 -42 5 -52 7 -8 20 -15 29 -15 11 0 31
29 58 84 l41 83 54 6 c29 4 70 7 91 7 35 0 37 -2 37 -31 0 -17 7 -56 16 -86
11 -39 23 -57 41 -66 19 -9 26 -8 34 4 5 8 9 22 9 31 0 9 5 20 10 23 6 3 10
14 10 24 0 9 -5 22 -12 29 -6 6 -13 17 -14 24 -2 7 -8 40 -14 73 -7 33 -17 69
-22 79 -6 11 -12 33 -15 50 -2 17 -22 63 -43 101 -29 54 -43 71 -63 73z m-6
-164 c5 -3 9 -18 9 -35 0 -19 -5 -29 -15 -29 -8 0 -18 1 -22 3 -5 1 -7 11 -5
21 1 11 7 25 13 33 6 7 15 10 20 7z"/>
</g>
<g>
<path d="M10134 11924 c-14 5 -27 2 -37 -9 -10 -9 -20 -28 -23 -41 -4 -14 -1
-58 5 -98 7 -40 9 -104 6 -142 -3 -38 -8 -77 -11 -86 -3 -9 2 -30 10 -46 8
-16 26 -36 40 -46 15 -9 46 -16 76 -16 30 0 68 8 96 21 25 12 57 37 71 56 14
18 29 52 33 75 5 23 4 52 -1 65 -4 12 -20 25 -34 29 -14 3 -25 10 -25 15 0 4
9 23 19 41 11 18 23 56 26 84 7 48 5 52 -21 73 -25 20 -39 22 -119 20 -49 -1
-99 2 -111 5z m134 -94 c31 0 42 -4 42 -16 0 -8 -4 -23 -10 -33 -5 -10 -29
-24 -54 -31 -25 -7 -53 -10 -61 -6 -11 4 -15 15 -13 33 2 17 12 32 28 40 14 7
44 13 68 13z m-24 -214 c33 -3 65 -11 70 -16 7 -7 7 -16 0 -28 -6 -9 -26 -25
-45 -34 -19 -10 -49 -18 -66 -18 -26 0 -33 4 -33 19 0 10 3 33 7 51 l6 33 61
-7z"/>
</g>
<g>
<path d="M10996 11350 c-14 0 -29 -7 -34 -16 -5 -9 -22 -17 -38 -19 -16 -2
-99 -11 -185 -19 -85 -8 -265 -18 -400 -21 -134 -3 -284 -8 -334 -11 -49 -2
-128 -8 -175 -12 -47 -4 -263 -6 -480 -5 -217 1 -573 3 -790 5 -217 1 -405 0
-417 -4 -18 -6 -23 -15 -23 -41 0 -18 5 -38 12 -45 7 -7 22 -12 33 -12 13 0
23 -7 24 -17 1 -10 1 -191 0 -403 -1 -212 -5 -452 -10 -535 -4 -82 -15 -208
-24 -280 -9 -71 -21 -193 -25 -270 -5 -77 -13 -201 -19 -275 -6 -74 -15 -187
-20 -250 -6 -63 -10 -194 -10 -290 0 -96 -3 -260 -7 -365 -4 -104 -10 -200
-15 -211 -4 -12 -5 -32 -2 -44 3 -12 19 -28 35 -34 24 -11 42 -9 116 12 48 13
114 28 147 33 33 5 98 14 145 19 47 5 173 9 280 8 107 0 215 5 240 10 25 6 77
15 115 21 39 5 77 10 85 10 8 0 74 2 145 5 72 2 202 7 290 10 88 3 318 2 510
-2 238 -5 414 -3 550 5 110 7 234 13 275 13 41 1 81 7 88 12 6 6 12 31 12 57
0 25 -4 62 -9 81 -6 19 -12 49 -14 65 -3 17 -10 50 -15 75 -6 25 -16 189 -23
365 -6 176 -9 370 -5 430 4 61 9 182 11 270 3 88 10 327 17 530 7 204 12 507
10 675 -2 168 1 330 6 359 9 53 8 56 -18 83 -16 16 -39 28 -54 28z m-71 -130
l43 0 7 -242 c4 -134 7 -281 8 -328 0 -47 -4 -223 -10 -392 -5 -170 -13 -311
-16 -315 -4 -4 -27 -6 -52 -4 -24 1 -62 -3 -82 -8 -21 -5 -117 -15 -213 -21
-96 -6 -215 -15 -265 -20 -49 -6 -207 -11 -350 -13 l-260 -2 -8 115 c-4 63 -9
291 -11 505 -2 215 -6 454 -8 532 l-4 143 50 -2 c28 -1 131 4 229 11 98 7 256
11 350 10 95 -2 255 2 356 9 102 7 187 15 190 17 2 3 23 5 46 5z m-2139 -42
c39 1 96 -3 125 -9 35 -8 162 -11 361 -10 l307 2 11 -38 c6 -21 15 -105 20
-188 5 -82 9 -251 9 -375 1 -124 1 -234 1 -245 -1 -11 -1 -47 -1 -80 0 -33 4
-127 8 -208 4 -82 6 -150 3 -152 -3 -2 -104 -6 -225 -9 -121 -3 -281 -11 -355
-16 -74 -6 -171 -12 -215 -15 -44 -2 -111 -7 -150 -10 -38 -4 -79 -10 -90 -15
-11 -5 -54 -12 -95 -15 -41 -3 -118 -7 -170 -8 l-95 -2 0 25 c-1 14 5 79 11
145 7 66 15 201 19 300 3 99 8 236 11 305 4 69 8 186 9 260 2 74 0 171 -4 215
-3 44 -5 90 -3 103 3 22 6 22 150 23 81 1 179 5 217 9 39 4 102 8 141 8z
m2057 -1353 c45 -2 84 -9 94 -16 14 -12 15 -34 8 -179 -4 -91 -8 -235 -8 -320
-1 -85 2 -258 6 -385 3 -126 9 -266 12 -310 4 -44 9 -91 11 -105 3 -14 7 -40
11 -57 4 -24 2 -33 -8 -34 -8 0 -43 -2 -79 -4 -36 -3 -113 -10 -173 -16 -75
-8 -243 -10 -553 -5 l-445 6 -4 470 c-2 259 -7 475 -11 481 -3 5 -1 15 4 22 5
7 12 97 14 200 3 115 10 193 16 199 7 7 96 13 244 15 128 3 256 6 283 8 28 2
124 6 215 10 91 4 192 11 225 15 33 5 95 7 138 5z m-1354 -42 c74 -2 127 -7
131 -14 4 -5 4 -87 1 -182 -3 -95 -5 -206 -5 -247 0 -41 1 -169 1 -285 0 -115
2 -248 4 -295 2 -47 3 -119 3 -160 0 -41 -1 -95 -3 -120 -2 -25 -6 -55 -8 -67
-5 -22 -9 -23 -112 -23 -58 -1 -151 -5 -206 -10 -55 -6 -118 -12 -140 -15 -22
-3 -58 -8 -80 -10 -22 -3 -153 -9 -291 -15 -138 -5 -300 -16 -360 -25 -60 -8
-134 -17 -164 -20 -30 -3 -63 -8 -73 -11 -16 -5 -17 2 -17 73 0 43 0 204 0
358 0 154 7 368 15 475 8 107 20 245 25 305 6 61 13 127 14 148 2 21 6 40 9
43 3 4 25 8 49 10 24 2 59 6 78 9 19 2 58 9 85 15 28 6 66 12 85 15 19 2 91 6
160 9 69 4 179 9 245 12 66 3 163 7 215 10 52 2 122 8 155 12 33 4 116 6 184
5z"/>
</g>
<g>
<path d="M4735 11253 c-104 2 -210 -1 -235 -6 -25 -4 -76 -18 -115 -29 -38
-11 -97 -29 -130 -40 -33 -11 -91 -36 -130 -56 -38 -20 -93 -50 -120 -68 -28
-17 -57 -39 -64 -48 -7 -9 -19 -16 -25 -16 -6 0 -42 -25 -81 -56 -38 -31 -112
-95 -164 -143 -51 -47 -99 -92 -105 -98 -6 -7 -26 -32 -44 -55 -18 -24 -53
-68 -78 -98 -25 -30 -52 -68 -60 -85 -7 -16 -25 -48 -39 -70 -14 -22 -30 -51
-35 -65 -6 -14 -17 -38 -24 -55 -8 -16 -21 -47 -30 -68 -9 -21 -16 -45 -16
-55 0 -9 -9 -37 -20 -61 -11 -24 -29 -90 -40 -145 -10 -56 -24 -143 -31 -195
l-13 -93 -48 6 c-26 4 -69 4 -96 0 -26 -3 -55 -11 -63 -18 -9 -6 -19 -20 -22
-31 -4 -14 1 -26 21 -40 22 -17 49 -21 157 -26 72 -3 274 -12 450 -19 288 -12
340 -12 525 4 113 9 261 21 330 26 69 5 230 14 359 20 128 6 256 15 285 20 28
5 131 14 229 20 98 5 271 10 385 10 114 0 277 5 362 10 133 9 162 8 199 -5 34
-12 47 -13 58 -3 10 8 48 11 111 10 54 -2 121 -5 150 -8 47 -6 52 -5 52 14 0
11 7 25 15 32 8 7 15 18 15 24 0 7 -11 23 -24 36 -24 21 -31 22 -148 19 l-123
-4 -6 60 c-3 33 -11 76 -17 95 -6 19 -18 62 -26 95 -8 33 -23 83 -32 110 -10
28 -20 52 -24 55 -3 3 -15 23 -26 45 -11 22 -42 81 -69 130 -26 50 -61 109
-77 132 -15 23 -32 53 -38 67 -5 14 -14 26 -20 26 -5 0 -10 6 -10 13 -1 6 -14
30 -30 52 -16 22 -40 56 -54 75 -13 19 -53 65 -88 101 -34 37 -74 72 -87 79
-13 7 -49 31 -80 55 -31 24 -75 53 -99 65 -23 12 -45 26 -47 31 -3 5 -36 25
-73 45 -37 21 -74 43 -82 49 -8 6 -31 17 -50 25 -19 7 -48 18 -65 25 -16 7
-73 23 -125 35 -52 12 -111 26 -130 31 -19 4 -120 10 -225 12z m-45 -104 c143
0 209 -4 290 -19 58 -10 143 -33 189 -50 47 -16 92 -36 100 -44 9 -7 36 -23
61 -35 25 -12 61 -32 80 -44 20 -12 82 -53 138 -90 63 -42 124 -93 161 -135
33 -37 83 -99 113 -139 29 -39 67 -93 83 -119 17 -26 35 -55 40 -64 6 -8 40
-67 76 -130 36 -63 74 -142 84 -175 10 -33 22 -65 26 -71 5 -6 23 -59 39 -118
17 -58 30 -117 30 -130 0 -13 -7 -26 -15 -30 -8 -3 -103 -3 -210 0 -111 2
-242 0 -303 -7 -59 -6 -144 -13 -190 -15 -45 -2 -86 -5 -90 -7 -4 -2 -66 -4
-139 -5 -73 0 -140 -5 -151 -11 -14 -7 -44 -8 -96 -1 -45 6 -104 6 -144 1 -38
-5 -81 -7 -94 -4 -14 3 -28 1 -32 -5 -3 -6 -23 -6 -52 -1 -25 5 -50 7 -54 4
-5 -3 -57 -10 -117 -15 -59 -6 -129 -10 -154 -10 -26 1 -86 -4 -135 -11 -49
-6 -129 -13 -179 -16 -49 -2 -246 -5 -438 -7 -282 -2 -350 0 -359 11 -8 10 -8
20 0 38 8 17 8 33 2 51 -6 14 -10 42 -10 62 0 20 7 66 15 102 8 36 18 81 23
100 5 19 15 49 21 65 6 17 16 39 21 50 5 11 24 58 41 105 18 47 41 94 51 106
10 11 18 23 18 26 0 3 16 30 36 59 20 30 50 72 67 94 18 22 90 96 160 165 71
69 165 151 210 182 45 32 105 72 132 91 28 18 64 42 80 53 17 10 41 24 54 31
13 7 28 13 33 13 5 0 28 9 51 19 23 10 67 26 97 35 30 9 78 22 105 30 34 9
109 14 235 15z"/>
<g>
<path d="M5960 10169 c-19 0 -43 -3 -52 -7 -9 -4 -26 -19 -37 -34 -13 -16 -21
-41 -21 -65 0 -30 7 -45 28 -65 15 -14 37 -31 49 -37 12 -6 33 -11 46 -11 13
0 32 9 43 21 14 15 20 40 22 94 4 67 2 74 -19 89 -13 9 -39 16 -59 15z"/>
</g>
<g>
<path d="M3883 10020 c-19 0 -40 -8 -50 -18 -10 -11 -26 -29 -35 -41 -10 -12
-18 -31 -18 -44 0 -12 7 -33 16 -46 9 -13 32 -29 50 -37 18 -8 44 -14 58 -14
14 0 40 14 60 34 24 22 36 42 36 61 0 15 -7 39 -16 54 -8 14 -27 32 -42 39
-14 6 -41 12 -59 12z"/>
</g>
</g>
<g>
<path d="M7878 10746 c-18 5 -58 8 -89 6 -45 -2 -61 -8 -79 -27 -13 -14 -29
-25 -35 -25 -7 0 -29 -35 -51 -77 -30 -61 -38 -89 -39 -133 0 -37 7 -68 21
-95 11 -21 42 -54 68 -72 37 -25 59 -33 93 -33 30 0 59 9 89 26 25 15 51 38
58 53 8 14 24 35 36 46 12 11 29 33 37 48 9 19 13 55 12 110 l-1 82 -44 41
c-24 22 -58 45 -76 50z m-59 -96 c27 0 44 -7 61 -25 17 -18 25 -40 28 -80 4
-50 2 -57 -28 -92 -18 -21 -46 -45 -62 -54 -16 -8 -43 -13 -59 -11 -16 2 -40
17 -54 34 -14 16 -26 37 -26 46 -1 9 0 23 1 31 1 8 8 20 16 28 8 8 14 20 14
27 0 7 16 31 36 54 30 35 41 42 73 42z"/>
</g>
<g>
<path d="M11932 9969 c-9 -1 -53 -7 -97 -13 -44 -7 -174 -14 -290 -15 -115 0
-223 -4 -240 -6 -16 -3 -38 -15 -47 -26 -10 -12 -18 -27 -18 -34 0 -7 6 -17
13 -23 9 -8 100 -11 278 -11 145 1 282 2 304 3 22 1 55 3 73 4 24 2 35 8 42
26 5 13 14 27 19 31 6 3 11 17 11 30 0 12 -7 26 -16 29 -9 3 -23 6 -32 5z"/>
</g>
<g>
<path d="M6914 9766 c-105 2 -134 0 -146 -12 -8 -9 -13 -26 -10 -39 2 -15 13
-26 29 -30 14 -3 55 -6 92 -5 36 0 212 -4 391 -10 179 -6 384 -14 456 -18 79
-4 137 -12 146 -19 11 -10 21 -10 46 -1 18 7 32 17 32 23 0 6 9 18 20 28 l21
18 -23 30 c-23 29 -23 30 -93 22 -38 -4 -122 -7 -185 -7 -63 0 -234 4 -380 9
-146 4 -324 9 -396 11z"/>
</g>
<g>
<path d="M2350 9625 c-19 2 -45 -1 -58 -7 -12 -6 -25 -22 -29 -36 -4 -17 1
-30 15 -44 17 -18 32 -20 103 -19 45 1 87 5 92 8 6 3 67 5 137 5 102 -1 130 1
140 13 7 8 10 22 6 30 -3 8 -17 20 -30 25 -14 5 -96 12 -183 15 -87 3 -174 7
-193 10z"/>
</g>
<g>
<path d="M7765 9230 c-12 0 -27 -6 -32 -12 -6 -7 -12 -23 -15 -35 -3 -12 -1
-43 4 -70 5 -26 10 -119 11 -206 2 -128 5 -160 17 -167 8 -5 21 -10 27 -10 7
0 19 14 28 30 9 17 22 30 30 30 11 0 15 11 15 39 0 21 -6 43 -13 49 -9 8 -14
46 -15 124 -1 62 -5 133 -8 158 -4 25 -11 51 -16 58 -6 6 -21 12 -33 12z"/>
</g>
</g>
<g>
<path d="M11673 4788 c-21 0 -54 -3 -73 -5 -19 -2 -42 -7 -50 -10 -8 -3 -17
-7 -20 -8 -3 0 -21 -5 -40 -9 -19 -5 -50 -15 -67 -23 -18 -8 -33 -22 -33 -29
0 -8 -8 -14 -19 -14 -10 0 -25 -7 -32 -16 -8 -9 -31 -28 -52 -41 -21 -13 -35
-28 -32 -33 3 -5 -9 -20 -27 -33 -18 -14 -50 -30 -71 -37 -21 -7 -41 -19 -45
-28 -3 -9 -6 -31 -6 -49 0 -19 9 -42 21 -55 20 -21 21 -28 12 -68 -6 -25 -9
-73 -6 -108 3 -38 11 -70 21 -81 9 -9 16 -23 16 -29 0 -6 -7 -15 -16 -20 -13
-7 -15 -15 -7 -38 7 -20 31 -41 89 -75 65 -39 91 -48 145 -53 65 -7 67 -8 73
-38 3 -17 2 -36 -3 -42 -5 -6 -13 -39 -17 -74 -3 -34 -8 -62 -9 -62 -2 0 -38
-7 -80 -15 -43 -8 -83 -20 -91 -26 -7 -6 -42 -12 -77 -14 -35 -2 -80 -10 -100
-19 -20 -8 -37 -21 -38 -28 0 -7 -2 -31 -4 -53 -3 -22 -16 -80 -30 -130 -14
-49 -27 -99 -29 -110 -2 -11 -11 -47 -19 -80 -8 -33 -22 -80 -31 -105 -9 -25
-20 -54 -26 -65 -5 -11 -23 -56 -40 -100 -17 -44 -40 -106 -51 -137 -10 -32
-24 -93 -30 -135 -6 -43 -20 -111 -30 -150 -11 -40 -19 -83 -19 -96 0 -15 9
-29 24 -37 14 -7 32 -10 40 -7 9 4 16 16 16 27 0 11 4 20 9 20 5 0 19 19 30
41 21 39 21 43 5 60 -14 15 -15 25 -6 66 6 26 16 80 23 118 6 39 17 84 24 100
8 17 24 59 36 95 12 36 25 69 29 73 4 5 10 -2 13 -16 4 -13 4 -34 1 -48 -3
-13 -9 -67 -14 -119 -4 -52 -5 -99 -3 -103 3 -4 0 -72 -6 -150 -6 -78 -13
-248 -16 -377 -2 -129 -11 -282 -19 -340 -8 -58 -17 -172 -20 -255 -3 -82 -10
-167 -16 -188 -6 -21 -13 -70 -14 -109 -2 -40 -8 -74 -14 -76 -6 -2 -46 9 -89
24 -43 14 -85 33 -94 41 -9 7 -32 16 -51 19 -34 6 -35 5 -41 -31 -4 -21 -4
-42 -1 -47 4 -5 27 -19 53 -30 25 -11 70 -26 98 -34 29 -7 70 -24 91 -38 20
-13 43 -31 51 -40 8 -9 28 -16 47 -16 27 0 35 5 38 23 3 12 12 114 21 227 8
113 15 258 15 322 0 64 4 127 9 140 5 13 12 75 16 138 4 63 8 202 7 309 0 142
3 190 11 182 6 -6 17 -11 24 -11 8 0 13 12 13 30 0 19 7 33 19 39 10 6 61 15
112 20 52 6 139 17 194 25 55 8 125 22 155 30 30 9 58 12 63 7 4 -4 3 -52 -3
-107 -6 -54 -15 -133 -20 -174 -6 -41 -13 -129 -16 -195 -3 -66 -9 -133 -14
-150 -4 -16 -11 -68 -14 -115 -4 -47 -11 -119 -17 -160 -5 -41 -13 -119 -17
-172 -4 -53 -11 -100 -15 -105 -5 -4 -38 8 -73 27 -36 19 -72 42 -81 52 -9 10
-30 18 -48 18 -18 0 -38 -7 -45 -14 -6 -8 -10 -25 -8 -38 2 -17 23 -34 78 -65
41 -23 91 -50 110 -61 19 -11 46 -32 59 -46 15 -16 35 -26 52 -26 15 0 40 11
56 24 25 21 26 26 15 50 -6 15 -12 68 -12 119 1 50 8 169 16 262 8 94 22 206
30 250 9 44 18 141 21 215 3 74 9 140 13 145 4 6 13 73 20 150 8 100 16 142
26 148 8 4 14 17 14 27 0 11 -5 20 -11 20 -8 0 -7 5 2 16 10 13 10 17 -1 24
-10 6 -11 25 -6 82 3 40 11 98 16 128 5 30 16 114 25 186 8 71 20 145 25 164
6 19 10 58 10 87 0 28 4 55 10 58 5 3 12 -6 16 -21 4 -14 4 -112 0 -218 -4
-105 -9 -222 -12 -261 -2 -38 -4 -123 -5 -188 -1 -104 1 -120 17 -132 11 -8
22 -15 25 -15 4 0 18 10 33 21 15 12 32 33 37 46 7 19 4 36 -12 71 -18 41 -21
64 -20 167 1 66 4 152 6 190 3 39 6 138 7 220 2 83 -1 159 -6 170 -4 11 -10
47 -13 80 -2 33 -5 80 -7 105 -2 25 -7 67 -11 94 -6 34 -16 57 -34 73 -19 17
-34 22 -56 18 -16 -3 -43 -7 -60 -10 -16 -3 -63 -12 -103 -21 -40 -9 -76 -14
-79 -11 -3 3 1 37 7 75 l13 70 86 4 c54 4 99 12 121 23 19 10 64 40 100 66 36
26 81 69 100 94 19 25 42 54 51 63 9 9 19 26 23 37 4 11 16 65 26 120 17 95
17 102 -1 173 -10 40 -25 83 -34 95 -8 12 -27 37 -40 56 -14 19 -39 43 -55 53
-17 10 -30 22 -30 28 0 6 -14 19 -32 30 -17 10 -35 17 -38 15 -4 -3 -32 4 -63
15 -31 11 -73 19 -94 18z m14 -113 c63 -2 99 -8 114 -19 12 -8 42 -34 66 -57
25 -23 57 -65 73 -93 16 -28 32 -74 36 -103 3 -30 1 -74 -6 -105 -7 -29 -23
-72 -36 -94 -13 -23 -56 -71 -96 -106 -40 -35 -85 -71 -100 -81 -14 -9 -57
-21 -94 -27 -49 -8 -82 -8 -123 1 -31 6 -60 14 -66 17 -5 3 -25 7 -43 9 -18 1
-52 11 -76 22 -24 10 -52 31 -63 47 -11 16 -25 50 -31 76 -7 26 -12 76 -12
112 0 36 4 75 9 88 5 13 17 43 27 68 10 25 24 53 33 63 13 16 16 16 38 1 19
-12 31 -13 57 -4 18 6 39 21 46 34 8 15 10 38 5 65 -5 31 -4 41 7 41 7 0 26 7
43 16 16 8 46 19 65 24 19 4 76 6 127 5z m12 -1000 c19 -2 38 -10 42 -17 5 -7
6 -26 4 -43 -2 -16 -7 -68 -10 -115 -4 -47 -11 -107 -17 -134 -6 -28 -12 -70
-13 -95 -1 -25 -8 -95 -14 -156 -6 -60 -16 -128 -21 -150 -6 -22 -15 -83 -20
-135 -6 -52 -12 -104 -15 -115 -2 -11 -4 -25 -4 -32 -1 -6 -25 -18 -53 -27
-29 -8 -70 -17 -92 -20 -21 -4 -43 -9 -49 -13 -7 -4 -36 -11 -67 -16 -30 -5
-75 -11 -100 -12 -25 -2 -83 -8 -130 -14 -46 -6 -89 -11 -95 -11 -6 0 -9 29
-7 78 2 42 5 131 7 197 2 66 6 134 9 150 3 17 10 71 15 122 5 51 12 96 15 102
3 5 9 46 12 92 3 46 12 115 20 153 8 38 19 75 25 83 7 7 22 13 36 13 13 0 43
8 66 19 23 10 87 24 142 31 55 7 107 13 115 15 8 1 28 7 43 14 16 6 34 11 42
11 7 0 28 7 46 15 19 9 49 13 68 10z"/>
</g>
</g>
</svg>
