<?xml version="1.0" standalone="no"?>
<!DOCTYPE svg PUBLIC "-//W3C//DTD SVG 20010904//EN"
 "http://www.w3.org/TR/2001/REC-SVG-20010904/DTD/svg10.dtd">
<svg version="1.0" xmlns="http://www.w3.org/2000/svg"
 width="1123.000000pt" height="1123.000000pt" viewBox="0 0 1123.000000 1123.000000"
 preserveAspectRatio="xMidYMid meet">
<metadata>
Created by potrace 1.16, written by Peter Selinger 2001-2019
</metadata>
<g transform="translate(0.000000,1123.000000) scale(0.100000,-0.100000)"
fill="#000000" stroke="none">
<g>
<path d="M5533 10086 c-87 6 -101 5 -106 -10 -4 -9 -13 -16 -22 -16 -8 0 -15
5 -15 11 0 7 -31 8 -102 4 -57 -4 -134 -14 -173 -22 -38 -8 -95 -18 -125 -23
-30 -4 -84 -13 -120 -19 -36 -6 -97 -27 -135 -46 -39 -19 -73 -35 -77 -35 -4
0 -36 -19 -72 -42 -35 -24 -83 -54 -105 -68 -23 -13 -74 -56 -115 -95 -46 -43
-87 -95 -110 -136 -20 -37 -44 -91 -52 -120 -9 -30 -28 -74 -43 -99 -14 -25
-32 -61 -38 -80 -7 -19 -13 -45 -13 -56 0 -12 -16 -63 -35 -115 -19 -51 -37
-118 -40 -149 -3 -30 -8 -73 -10 -95 -3 -22 -8 -101 -11 -175 -4 -81 -2 -151
4 -175 6 -22 20 -76 32 -120 11 -44 28 -98 36 -120 9 -22 20 -49 24 -60 4 -11
13 -36 20 -55 6 -19 25 -63 42 -96 17 -34 50 -88 74 -120 23 -33 47 -63 52
-69 4 -5 35 -32 67 -60 32 -27 83 -72 114 -100 30 -27 66 -62 79 -77 13 -16
28 -28 32 -28 5 0 28 -13 52 -30 24 -16 61 -43 83 -58 23 -16 60 -37 83 -47
23 -11 42 -22 42 -27 0 -4 8 -8 18 -8 11 0 50 -13 88 -28 52 -22 70 -34 74
-52 4 -15 16 -26 33 -31 15 -4 99 -7 188 -7 104 1 164 -3 171 -10 7 -7 15 -95
20 -229 5 -120 7 -231 6 -247 l-3 -28 -125 0 c-69 0 -195 3 -280 7 -96 3 -174
2 -205 -5 -27 -6 -103 -13 -169 -16 -65 -3 -137 -11 -160 -18 -38 -11 -41 -14
-43 -50 0 -23 -14 -59 -35 -94 -19 -31 -40 -70 -47 -87 -7 -16 -34 -61 -60
-100 -26 -38 -89 -153 -139 -255 -50 -102 -94 -198 -98 -214 -4 -16 -18 -48
-31 -71 -13 -24 -30 -49 -38 -55 -8 -7 -15 -17 -15 -22 0 -5 -17 -35 -38 -66
-22 -32 -47 -70 -58 -87 -10 -16 -29 -52 -41 -78 -13 -27 -48 -86 -78 -132
-30 -46 -55 -88 -55 -92 0 -5 -16 -33 -36 -63 -20 -30 -43 -68 -50 -85 -8 -16
-18 -37 -22 -45 -5 -8 -20 -39 -35 -68 -15 -28 -27 -59 -27 -67 0 -9 -9 -15
-25 -15 -16 0 -28 7 -31 18 -3 9 -11 28 -17 42 -6 14 -24 44 -39 67 -15 23
-28 45 -28 49 0 4 -11 22 -25 40 -14 18 -25 36 -25 41 0 4 -25 57 -56 118 -31
60 -60 112 -63 115 -4 3 -15 24 -25 47 -10 23 -28 50 -38 60 -11 10 -35 48
-54 85 -18 36 -38 69 -44 73 -5 3 -10 15 -10 25 0 11 -13 34 -28 52 -16 18
-34 49 -42 68 -7 19 -19 42 -25 50 -7 8 -37 67 -68 131 -30 64 -74 144 -97
178 -24 35 -49 79 -56 99 -7 21 -13 46 -14 58 0 11 -9 29 -19 38 -10 10 -40
64 -67 121 -28 61 -56 108 -68 115 -12 6 -62 14 -111 18 -50 4 -120 4 -156 0
-37 -3 -78 -13 -92 -22 -19 -13 -26 -29 -31 -68 -4 -28 -7 -103 -7 -165 0 -63
4 -119 7 -125 4 -6 11 -58 17 -117 6 -58 11 -180 12 -271 0 -91 6 -201 13
-245 8 -53 9 -107 3 -160 -5 -44 -9 -167 -9 -274 0 -106 4 -217 9 -245 5 -28
9 -69 7 -91 -1 -22 -2 -60 -2 -85 0 -25 2 -108 3 -185 2 -77 7 -147 12 -156 6
-13 31 -17 111 -22 57 -3 123 -11 148 -17 l45 -13 1 -286 c1 -157 2 -371 3
-476 1 -104 2 -284 2 -400 1 -115 2 -259 4 -320 1 -60 5 -144 8 -185 4 -41 10
-118 14 -170 4 -52 7 -142 8 -200 1 -58 7 -136 13 -173 7 -37 22 -170 34 -295
12 -125 23 -254 25 -287 2 -33 7 -106 11 -163 4 -57 5 -167 1 -245 -3 -78 -3
-144 0 -147 4 -3 11 -14 17 -25 6 -11 58 -44 115 -72 57 -29 109 -53 116 -53
6 0 19 -13 28 -28 10 -16 25 -32 35 -38 9 -5 35 -21 57 -36 26 -17 48 -25 62
-21 11 3 21 10 22 17 0 6 2 28 4 48 4 34 1 40 -28 54 -18 9 -45 27 -60 40 -16
13 -39 27 -53 30 -13 3 -24 10 -24 14 0 5 -35 28 -77 53 -43 25 -86 54 -97 66
-16 17 -18 32 -14 96 3 42 1 78 -4 81 -5 3 -9 36 -10 72 0 37 -1 119 -2 182 0
70 -6 123 -13 136 -8 14 -15 85 -18 185 -4 93 -15 210 -26 269 -10 58 -19 116
-19 130 0 14 1 34 1 45 1 11 -4 72 -11 135 -7 63 -15 165 -16 225 -2 61 -7
143 -10 183 -3 46 -1 84 6 101 9 22 8 60 -5 166 -13 110 -16 238 -15 609 0
259 1 482 1 496 0 14 2 79 4 145 2 66 -2 142 -7 169 -8 36 -7 67 2 118 11 54
11 74 2 89 -7 10 -12 29 -12 42 0 13 5 28 10 33 6 6 10 78 11 177 0 92 -3 172
-7 178 -3 6 -8 45 -10 88 -2 42 -6 231 -8 421 -2 194 -9 365 -15 390 -6 25
-10 79 -10 120 0 41 4 93 8 115 7 33 9 36 15 20 5 -11 20 -49 34 -85 15 -36
29 -67 32 -70 3 -3 14 -18 25 -35 11 -16 36 -62 56 -102 20 -39 57 -104 81
-145 25 -40 68 -116 96 -169 29 -53 59 -102 67 -109 8 -7 15 -21 15 -32 0 -10
7 -21 15 -24 8 -3 17 -16 21 -27 4 -12 19 -40 34 -63 15 -22 53 -94 85 -160
32 -65 67 -131 77 -146 10 -15 24 -42 30 -60 6 -18 18 -42 27 -53 10 -11 25
-38 35 -60 11 -22 22 -47 26 -55 4 -9 6 -47 3 -85 l-4 -70 47 -39 c41 -35 52
-39 92 -37 25 1 60 8 78 16 21 9 36 23 40 40 3 14 4 35 1 48 -3 12 -10 38 -14
57 -8 29 -4 47 21 105 17 39 41 86 54 106 12 20 22 41 22 46 0 6 9 22 21 37
11 15 36 58 55 96 18 39 46 89 61 112 15 24 40 68 56 98 16 30 44 75 62 100
18 25 45 70 61 100 15 30 35 66 45 80 9 14 27 43 39 64 12 22 30 61 40 86 10
25 51 113 91 195 40 83 94 182 120 222 26 39 55 85 64 102 8 17 22 31 30 31
12 0 15 -14 15 -57 0 -32 7 -155 15 -273 8 -118 17 -226 19 -240 3 -14 8 -180
12 -370 3 -190 8 -455 9 -590 2 -135 3 -456 3 -715 0 -258 -2 -490 -4 -515 -2
-25 -4 -211 -3 -415 0 -203 0 -467 -1 -585 -1 -118 -2 -289 -1 -380 0 -91 2
-190 2 -220 1 -30 0 -217 -3 -415 -3 -198 -9 -382 -13 -410 -4 -28 -2 -61 3
-76 6 -15 26 -33 49 -43 21 -9 45 -21 53 -26 8 -6 39 -21 68 -34 28 -14 52
-29 52 -35 0 -6 21 -22 48 -38 26 -15 61 -38 79 -51 22 -16 42 -22 65 -20 32
3 33 4 31 48 -2 32 -8 49 -24 61 -12 9 -59 36 -103 59 -45 23 -88 49 -97 56
-8 8 -21 14 -27 14 -6 0 -15 6 -19 12 -4 7 -21 20 -38 28 -24 13 -31 23 -33
55 -2 22 1 101 7 175 6 74 11 182 11 240 1 58 -7 195 -16 305 -9 110 -16 216
-16 235 0 19 3 96 7 170 5 74 10 324 12 555 2 230 0 431 -5 445 -4 14 -5 72 0
130 4 58 11 283 14 500 4 217 7 406 6 419 0 23 1 23 66 16 37 -4 99 -9 137
-10 39 -2 169 -11 289 -20 120 -8 224 -19 230 -23 6 -3 34 -7 61 -8 28 -1 115
-4 195 -7 80 -3 222 -10 315 -16 94 -6 234 -14 313 -17 121 -6 142 -10 142
-23 0 -9 -7 -83 -16 -166 -8 -82 -19 -224 -24 -313 -6 -90 -13 -168 -16 -173
-3 -5 -8 -47 -10 -92 -3 -45 -9 -95 -15 -112 -5 -16 -11 -95 -13 -175 -3 -80
-9 -165 -14 -190 -6 -25 -13 -119 -17 -210 -3 -91 -10 -196 -15 -235 -6 -38
-12 -124 -14 -190 -3 -66 -8 -154 -11 -195 -3 -41 -6 -151 -7 -245 -2 -93 0
-237 4 -320 4 -82 9 -172 12 -200 3 -27 7 -93 9 -145 2 -59 9 -104 18 -118 8
-14 64 -48 134 -83 66 -33 124 -64 130 -69 5 -4 21 -9 35 -10 14 -1 31 -2 39
-1 10 1 12 10 8 37 -4 25 -2 37 8 41 11 3 12 10 5 23 -5 10 -27 20 -51 24 -23
4 -53 16 -67 26 -13 11 -28 20 -33 20 -4 0 -25 11 -46 25 -21 13 -46 32 -55
42 -11 9 -18 31 -18 52 0 20 -4 51 -10 69 -5 19 -12 82 -15 140 -4 59 -8 166
-9 237 -2 79 -8 141 -16 157 -10 22 -10 36 0 73 8 30 10 71 6 123 -4 48 -3 97
5 127 6 28 13 118 14 200 2 83 8 170 14 195 6 25 11 83 11 130 0 47 5 141 11
210 6 69 16 211 24 315 7 105 18 210 23 235 6 25 13 92 17 150 4 58 6 135 5
172 -1 37 3 75 9 86 6 11 12 62 15 115 2 52 9 103 14 114 6 10 8 46 5 81 -3
36 -1 67 4 74 6 7 14 27 17 43 4 17 8 93 11 170 2 77 4 194 4 260 0 66 0 129
0 140 1 11 0 238 0 505 -1 267 -2 535 -2 595 -1 61 4 156 12 212 7 57 17 101
21 98 4 -2 10 -17 13 -32 3 -16 17 -45 31 -66 14 -21 26 -46 26 -56 0 -10 7
-24 15 -31 8 -7 15 -18 15 -24 0 -6 14 -38 30 -71 16 -33 34 -83 39 -110 5
-28 26 -81 45 -118 20 -37 36 -73 36 -80 0 -7 9 -20 20 -29 11 -10 22 -30 25
-45 3 -15 13 -52 22 -82 10 -29 29 -69 45 -88 15 -19 36 -58 47 -87 11 -29 28
-68 40 -87 11 -19 30 -54 43 -79 12 -25 21 -50 20 -56 -1 -6 5 -17 13 -24 8
-7 15 -22 15 -34 0 -12 4 -26 9 -31 5 -6 19 -39 31 -75 12 -36 27 -74 34 -85
7 -11 16 -32 20 -48 3 -15 24 -44 46 -64 22 -19 52 -59 66 -87 14 -28 30 -54
36 -57 6 -4 10 -35 9 -69 0 -34 4 -71 10 -82 6 -10 31 -28 57 -40 42 -17 53
-18 100 -8 44 10 57 18 78 50 22 33 26 52 28 124 2 73 6 90 29 125 15 22 27
43 27 46 0 4 13 23 30 43 16 20 39 60 51 87 12 28 33 68 47 90 14 22 48 83 75
135 26 52 59 115 73 140 13 24 24 57 24 72 0 15 4 28 9 28 5 0 32 37 59 83 27
45 53 92 56 105 4 12 11 22 16 22 4 0 25 26 46 58 21 31 51 80 66 107 15 28
62 119 104 204 42 84 91 179 110 210 19 31 34 66 34 79 0 13 6 22 15 22 9 0
25 16 36 35 12 19 26 32 31 29 6 -4 8 -21 5 -40 -3 -18 1 -53 8 -77 9 -30 12
-78 9 -144 -2 -54 -7 -123 -10 -153 -3 -30 -8 -82 -12 -115 -4 -33 -4 -116 1
-185 4 -69 11 -192 16 -275 4 -82 7 -278 5 -435 -3 -157 -6 -367 -8 -467 -2
-99 -7 -186 -11 -192 -3 -6 -8 -78 -10 -159 -2 -81 -7 -268 -10 -417 -3 -148
-6 -274 -6 -280 0 -5 0 -77 0 -160 0 -82 0 -184 -1 -225 0 -41 2 -163 6 -270
3 -107 8 -226 11 -265 3 -38 8 -194 12 -345 3 -151 7 -324 9 -385 2 -60 6
-141 10 -180 3 -38 5 -81 4 -95 -1 -14 -1 -32 -1 -40 0 -8 6 -55 12 -105 7
-52 18 -97 27 -108 8 -9 28 -23 44 -31 15 -8 42 -17 59 -21 18 -4 56 -22 85
-41 29 -19 55 -38 59 -44 3 -5 14 -10 24 -10 10 0 26 -9 36 -20 10 -11 30 -20
44 -20 14 0 31 4 37 8 6 4 14 18 17 32 3 14 0 33 -7 42 -7 10 -53 38 -101 63
-49 25 -97 45 -107 45 -10 0 -18 4 -18 10 0 5 -15 16 -32 23 -18 8 -41 23 -51
34 -15 17 -19 51 -28 223 -5 112 -14 243 -19 291 -6 48 -10 134 -9 191 0 57
-2 150 -6 208 -3 58 -10 197 -16 310 -5 114 -7 468 -4 800 2 327 7 669 10 760
3 91 5 182 5 203 0 32 2 37 23 37 13 0 59 9 102 20 42 11 99 22 126 24 27 3
53 7 59 11 5 3 10 30 10 58 0 29 -4 67 -10 85 -5 19 -10 140 -11 270 -1 131 4
329 11 441 8 138 10 284 5 450 -4 135 -9 266 -12 291 -3 25 -5 172 -4 326 1
251 -1 283 -16 295 -11 10 -50 15 -122 16 -58 2 -128 4 -156 5 -50 3 -50 3
-81 -47 -18 -27 -44 -62 -58 -76 -14 -15 -26 -32 -26 -37 0 -6 -12 -33 -26
-59 -15 -26 -42 -70 -60 -98 -17 -27 -46 -77 -62 -110 -17 -33 -48 -94 -70
-135 -23 -41 -47 -90 -56 -107 -8 -18 -31 -60 -50 -93 -20 -34 -36 -66 -36
-71 0 -5 -5 -15 -10 -22 -6 -7 -32 -41 -58 -76 -26 -35 -52 -73 -58 -85 -6
-11 -22 -43 -35 -71 -13 -27 -34 -66 -46 -85 -13 -19 -28 -41 -34 -49 -7 -7
-18 -32 -26 -54 -8 -22 -26 -60 -40 -86 -15 -25 -40 -71 -56 -101 -16 -30 -48
-84 -71 -120 -24 -36 -48 -78 -54 -95 -6 -16 -21 -55 -34 -85 -13 -30 -31 -69
-40 -86 -16 -29 -22 -32 -80 -37 -40 -4 -64 -2 -67 5 -2 5 -23 34 -47 64 -25
30 -55 78 -69 107 -14 28 -34 68 -45 87 -10 19 -69 140 -129 269 -61 129 -115
239 -121 245 -5 5 -10 18 -10 28 0 10 -4 26 -9 36 -6 9 -22 44 -37 77 -14 33
-46 101 -69 150 -24 50 -46 101 -50 115 -4 14 -18 52 -32 85 -13 33 -29 71
-35 85 -6 14 -14 33 -19 42 -5 10 -9 23 -9 29 0 6 -14 41 -31 78 -17 36 -39
82 -49 101 -10 19 -30 66 -44 104 -14 37 -26 77 -26 87 0 10 -9 33 -20 52 -11
18 -30 39 -42 45 -13 7 -32 12 -43 13 -11 0 -67 1 -123 2 -57 1 -106 -1 -108
-5 -3 -4 -109 -5 -237 -3 -128 3 -278 7 -335 9 -56 2 -105 6 -109 9 -3 4 -7
46 -8 94 -1 49 -7 153 -14 232 -7 79 -8 147 -4 152 4 4 40 9 78 10 42 1 84 9
105 19 19 10 58 25 86 34 29 9 60 16 70 16 11 0 44 18 74 40 30 22 66 45 80
51 14 5 39 23 55 38 17 16 38 33 48 38 9 5 68 58 130 119 61 60 137 141 168
179 31 39 76 108 101 155 25 47 58 107 73 135 15 27 32 65 37 85 5 19 14 58
19 85 5 28 11 73 15 100 3 28 10 66 15 85 6 19 14 71 19 115 7 64 3 122 -16
285 -20 162 -31 215 -50 254 -13 28 -24 60 -24 72 0 13 -4 25 -9 28 -5 4 -17
30 -26 60 -10 30 -28 65 -41 77 -13 12 -24 26 -24 31 0 5 -20 40 -45 78 -25
38 -49 72 -55 75 -5 3 -10 14 -10 24 0 9 -18 36 -40 59 -22 22 -40 45 -40 50
0 5 -22 29 -50 53 -27 24 -67 59 -88 77 -22 17 -46 32 -54 32 -9 0 -21 7 -28
15 -7 8 -65 40 -129 71 -64 31 -125 60 -136 65 -11 4 -49 16 -85 25 -36 9 -77
18 -91 19 -14 1 -30 5 -36 8 -6 4 -55 10 -110 13z m-33 -104 c25 -1 88 -9 140
-18 52 -8 109 -20 126 -25 17 -5 40 -9 51 -9 12 0 51 -18 88 -40 36 -23 76
-45 88 -51 12 -5 60 -33 107 -62 72 -44 97 -68 173 -162 49 -60 95 -126 103
-144 8 -19 27 -51 42 -70 15 -20 42 -67 61 -106 18 -38 42 -92 53 -119 10 -28
26 -83 34 -123 9 -41 25 -154 35 -251 11 -97 20 -201 19 -231 0 -29 -7 -65
-14 -80 -7 -14 -21 -67 -30 -116 -9 -50 -25 -115 -36 -145 -11 -30 -39 -93
-63 -139 -23 -45 -76 -124 -118 -175 -42 -50 -88 -104 -102 -119 -15 -15 -31
-36 -37 -47 -6 -11 -16 -20 -23 -20 -7 0 -31 -18 -52 -40 -21 -22 -45 -40 -52
-40 -7 0 -13 -3 -13 -7 0 -5 -17 -19 -37 -33 -21 -14 -51 -37 -68 -52 -17 -14
-55 -40 -85 -56 -30 -16 -75 -33 -100 -37 -25 -4 -50 -11 -55 -16 -6 -4 -44
-8 -85 -7 -41 0 -124 -3 -185 -8 -60 -5 -139 -5 -175 -1 -36 5 -92 15 -125 24
-33 8 -96 26 -140 40 -44 14 -89 30 -100 36 -11 6 -34 16 -51 22 -17 6 -59 29
-93 51 -35 21 -89 63 -121 91 -31 29 -70 63 -86 75 -16 12 -54 45 -84 72 -30
28 -81 78 -112 111 -32 33 -58 65 -58 71 0 6 -18 36 -40 67 -21 31 -45 76 -51
99 -7 24 -18 50 -26 59 -7 8 -13 23 -13 32 0 9 -14 58 -31 109 -17 51 -34 131
-39 178 -5 47 -7 133 -5 192 2 59 8 122 14 140 6 18 10 47 10 63 0 17 3 53 6
80 4 28 14 57 21 66 8 8 28 62 45 120 20 68 55 150 102 237 54 100 84 144 119
175 26 23 65 56 85 73 21 17 49 37 63 44 14 7 27 16 30 19 3 3 19 15 35 27 17
11 62 32 100 46 39 14 93 32 120 41 28 8 57 15 65 16 8 0 40 4 70 10 30 5 78
15 105 21 28 6 91 15 140 21 50 6 117 14 150 18 33 3 80 5 105 3z m-466 -3258
c11 -4 43 -8 71 -9 27 -2 129 -6 225 -9 96 -4 230 -3 298 2 67 5 151 5 185 1
34 -4 143 -9 242 -11 99 -1 224 -1 278 1 54 2 101 0 105 -4 4 -3 7 -61 7 -128
0 -67 -4 -171 -10 -232 -5 -60 -9 -164 -9 -230 0 -66 3 -309 7 -540 4 -231 8
-465 8 -520 0 -55 -2 -187 -6 -293 -4 -106 -11 -195 -16 -197 -4 -3 -64 -5
-131 -4 -68 0 -170 3 -228 6 -58 3 -139 6 -180 7 -41 2 -138 6 -215 10 -77 3
-187 9 -245 12 -58 2 -132 9 -165 15 -33 5 -114 11 -180 13 -66 3 -161 11
-211 20 -51 8 -110 20 -133 26 -23 6 -49 10 -59 8 -14 -2 -17 5 -18 37 -1 22
-1 110 -1 195 0 85 0 209 0 275 0 66 -2 183 -6 260 -4 77 -6 156 -5 175 1 19
2 105 1 190 0 85 -2 187 -5 225 -2 39 -10 131 -16 205 -7 74 -16 191 -20 260
-4 69 -5 141 -2 160 5 33 8 36 50 43 25 4 59 9 75 11 17 2 86 6 155 10 69 4
127 10 129 12 3 2 14 1 25 -2z m3724 -39 l77 -3 8 -108 c4 -64 4 -119 -2 -135
-6 -17 -6 -78 -1 -158 5 -72 11 -135 14 -140 3 -5 6 -148 7 -317 0 -176 -5
-376 -13 -464 -7 -85 -13 -198 -12 -250 0 -52 3 -156 6 -230 4 -74 8 -154 11
-178 3 -27 0 -45 -7 -47 -6 -2 -25 -6 -42 -8 -17 -3 -41 -10 -52 -16 -11 -6
-40 -11 -63 -11 -38 0 -41 2 -34 23 4 12 9 153 11 312 2 182 8 300 15 317 6
15 9 31 6 35 -3 5 -11 71 -17 148 -7 77 -12 145 -12 150 1 6 3 35 5 65 2 30 0
98 -3 150 -4 55 -1 149 6 225 9 83 12 214 9 364 -3 128 -2 244 1 257 6 22 9
23 82 19z m-6333 -36 c42 -4 80 -11 83 -14 4 -4 6 -78 4 -164 -1 -94 2 -169 8
-186 7 -20 7 -31 -1 -41 -7 -9 -9 -43 -5 -101 3 -49 8 -144 11 -213 3 -69 6
-208 8 -310 1 -102 8 -252 14 -335 6 -82 15 -235 19 -340 4 -104 6 -199 6
-210 -1 -11 -2 -39 -2 -63 0 -35 -4 -44 -23 -51 -12 -5 -53 -4 -91 0 -39 5
-77 15 -85 23 -12 12 -15 60 -18 247 -2 128 -8 238 -13 244 -6 7 -8 69 -5 146
2 74 5 229 5 344 1 116 -4 248 -9 295 -6 47 -11 125 -11 173 0 49 -5 142 -11
207 -7 69 -8 159 -4 214 5 69 12 102 25 119 17 22 22 23 95 16z"/>
<g>
<path d="M6130 9293 c-21 4 -48 1 -67 -8 -23 -10 -34 -23 -42 -51 -6 -23 -7
-43 -1 -54 5 -9 20 -25 34 -34 14 -9 43 -16 65 -16 23 0 46 7 56 17 9 9 21 27
26 40 6 16 4 35 -5 57 -8 19 -18 36 -22 38 -5 3 -25 8 -44 11z"/>
</g>
<g>
<path d="M4825 9230 c-7 0 -25 -13 -38 -30 -14 -16 -28 -39 -32 -50 -3 -10 -1
-28 4 -39 6 -11 25 -27 42 -35 18 -9 42 -16 55 -16 12 0 32 12 43 26 12 15 21
41 21 58 0 17 -6 39 -14 48 -7 10 -25 22 -40 28 -15 5 -33 10 -41 10z"/>
</g>
<g>
<path d="M5615 8940 c-25 0 -37 -6 -46 -21 -6 -12 -9 -40 -6 -63 3 -23 11 -68
17 -101 7 -33 23 -100 37 -149 21 -73 23 -90 12 -97 -8 -5 -21 -9 -29 -9 -9 0
-26 -8 -39 -17 -13 -10 -34 -29 -47 -42 -13 -13 -24 -27 -24 -31 0 -4 9 -19
21 -34 11 -14 31 -26 43 -26 13 0 35 9 49 21 15 11 48 27 74 36 27 9 58 25 71
36 12 11 22 30 22 41 -1 12 -8 39 -16 61 -8 22 -28 85 -43 140 -16 55 -32 126
-35 159 -4 32 -11 67 -17 77 -6 13 -21 19 -44 19z"/>
</g>
<g>
<path d="M5755 8104 c-93 2 -199 1 -235 -4 -36 -5 -113 -10 -172 -11 -77 -1
-111 -6 -119 -15 -6 -8 -26 -14 -45 -14 -23 0 -38 -7 -48 -22 -9 -12 -16 -35
-16 -50 0 -22 7 -31 28 -39 20 -8 39 -8 72 1 25 6 90 14 145 16 55 3 106 7
114 10 8 3 116 4 240 3 124 -1 239 -2 255 -2 19 0 36 9 48 23 10 12 18 35 18
50 0 15 -8 35 -19 44 -13 12 -27 15 -47 11 -16 -4 -33 -7 -39 -7 -5 0 -86 3
-180 6z"/>
</g>
</g>
<g>
<path d="M8957 10090 c-9 0 -19 -4 -22 -10 -3 -5 -15 -10 -26 -10 -11 0 -51
-18 -90 -40 -39 -22 -75 -40 -81 -40 -6 0 -32 -16 -59 -36 -27 -19 -78 -68
-115 -107 -36 -40 -73 -85 -81 -102 -9 -16 -26 -43 -39 -58 -13 -16 -24 -35
-24 -44 0 -8 -15 -29 -32 -47 -18 -18 -42 -48 -53 -66 -11 -19 -26 -45 -34
-59 -7 -15 -21 -35 -31 -46 -10 -11 -21 -31 -25 -45 -4 -14 -15 -38 -24 -55
-9 -16 -27 -55 -38 -85 -12 -30 -24 -68 -28 -84 -3 -15 -14 -47 -24 -70 -10
-22 -23 -61 -30 -86 -7 -25 -19 -88 -27 -140 -8 -52 -17 -172 -20 -266 -5
-123 -3 -186 6 -225 7 -30 24 -88 37 -129 14 -41 41 -106 60 -144 19 -38 47
-88 61 -110 15 -23 50 -71 80 -108 29 -37 63 -78 75 -90 13 -13 50 -41 83 -62
32 -22 78 -52 102 -68 23 -15 45 -28 49 -28 3 0 21 -11 39 -25 18 -14 39 -25
46 -25 8 0 18 -4 23 -9 6 -5 26 -14 46 -20 20 -7 63 -36 95 -66 44 -42 65 -55
89 -55 16 0 35 4 41 8 6 4 14 23 17 44 3 23 1 43 -8 55 -8 10 -15 29 -15 42 0
14 -7 32 -16 42 -13 14 -26 17 -58 13 l-42 -6 -89 118 c-50 65 -112 147 -139
183 -27 36 -59 85 -71 110 -12 26 -34 71 -48 101 -14 30 -34 87 -46 125 -11
39 -30 111 -42 160 -11 50 -23 117 -25 150 -2 33 -7 80 -11 105 -3 25 -6 47
-6 50 1 3 6 56 12 118 7 63 18 137 25 165 8 29 25 86 39 127 14 41 42 116 62
165 20 50 47 101 59 115 12 14 35 45 51 70 16 25 38 61 48 80 11 19 59 95 107
170 51 78 116 163 154 200 47 47 66 73 66 91 0 14 -8 33 -18 42 -10 10 -26 17
-35 17z m-295 -320 c4 0 4 -10 -1 -23 -5 -12 -18 -38 -28 -57 -11 -19 -32 -53
-47 -74 -14 -21 -26 -43 -26 -47 0 -5 -13 -28 -30 -51 -16 -22 -30 -46 -30
-53 0 -7 -20 -42 -44 -79 -24 -37 -53 -93 -64 -124 -11 -31 -27 -84 -36 -117
-9 -33 -27 -107 -41 -165 -18 -78 -25 -138 -27 -235 -1 -71 1 -161 6 -200 4
-38 11 -83 16 -99 6 -16 10 -43 10 -60 0 -17 7 -44 15 -60 8 -15 15 -41 15
-56 0 -15 5 -42 12 -61 6 -19 19 -45 30 -58 10 -13 18 -34 18 -46 0 -12 11
-42 25 -66 13 -24 36 -68 50 -98 14 -30 41 -74 60 -97 19 -23 35 -47 35 -54 0
-8 -6 -8 -21 0 -11 7 -52 37 -90 67 -38 31 -69 61 -69 67 -1 6 -21 31 -45 56
-25 25 -45 48 -45 51 0 3 -17 37 -38 75 -20 38 -47 101 -59 139 -11 39 -28 95
-36 125 -9 30 -18 111 -22 180 -5 92 -2 152 10 225 8 55 21 125 27 155 6 30
23 84 36 120 13 36 32 88 42 115 10 28 34 79 53 115 19 36 46 85 60 110 15 25
34 61 44 80 9 19 43 68 75 107 32 40 58 75 58 79 0 3 21 30 48 60 26 29 50 54
54 54z"/>
</g>
<g>
<path d="M1870 9906 c-8 2 -26 -2 -40 -9 -18 -9 -27 -25 -33 -56 -7 -33 -5
-46 4 -52 7 -4 42 -11 76 -15 61 -6 66 -9 133 -71 39 -36 98 -99 131 -140 33
-41 72 -98 87 -125 15 -28 32 -59 38 -69 6 -11 18 -27 26 -36 9 -10 34 -70 57
-133 23 -63 47 -120 52 -126 6 -7 17 -36 24 -65 8 -29 12 -56 9 -60 -3 -5 0
-18 6 -29 6 -11 17 -75 25 -142 8 -68 22 -145 30 -172 9 -29 15 -85 14 -135 0
-47 -5 -111 -10 -141 -5 -30 -12 -100 -15 -155 -2 -55 -12 -125 -21 -155 -9
-30 -20 -59 -24 -65 -4 -5 -21 -43 -38 -83 -16 -40 -52 -103 -78 -140 -26 -37
-65 -89 -87 -117 -22 -27 -72 -83 -110 -122 -38 -40 -77 -73 -87 -73 -9 0 -19
-7 -23 -15 -3 -8 -14 -15 -25 -15 -12 0 -26 -14 -39 -37 -14 -29 -17 -43 -9
-60 5 -12 19 -23 31 -25 11 -2 57 2 101 7 44 6 127 26 185 44 58 19 112 40
121 47 8 8 23 14 33 14 9 0 30 7 45 15 16 8 39 23 52 34 13 11 53 45 89 74 36
30 87 86 112 124 26 38 52 82 59 99 6 16 15 38 19 49 5 11 16 42 24 69 9 27
16 59 16 71 0 11 6 29 13 40 7 11 19 38 25 60 6 22 14 74 18 115 4 41 11 80
16 87 6 7 9 100 9 215 -1 179 -4 215 -27 317 -14 63 -34 131 -45 152 -10 21
-19 51 -19 67 0 17 -21 80 -46 142 -25 62 -54 130 -64 150 -11 21 -30 50 -43
66 -13 16 -33 50 -46 75 -12 26 -32 58 -44 71 -12 13 -35 41 -51 62 -15 20
-59 69 -97 107 -37 38 -73 69 -80 69 -6 0 -28 13 -48 29 -20 16 -54 38 -76 50
-22 11 -75 29 -117 40 -42 11 -96 29 -120 40 -24 11 -57 23 -73 26 -17 4 -37
9 -45 11z m364 -256 c8 0 37 -19 63 -42 27 -24 93 -98 148 -165 70 -86 116
-154 155 -230 30 -59 65 -130 76 -158 12 -27 27 -63 33 -80 6 -16 29 -100 50
-185 33 -132 40 -179 47 -315 4 -88 8 -171 7 -185 -1 -14 -10 -70 -22 -125
-11 -55 -30 -133 -41 -174 -12 -41 -25 -82 -30 -92 -6 -10 -10 -27 -10 -38 0
-12 -16 -54 -36 -94 -22 -45 -62 -102 -104 -148 -39 -43 -88 -85 -116 -99 -27
-14 -51 -28 -54 -31 -3 -4 -21 -14 -40 -23 -19 -8 -42 -20 -50 -25 -8 -5 -39
-16 -68 -24 l-53 -15 73 79 c40 44 97 110 127 147 29 37 63 87 75 112 12 25
32 61 44 80 12 19 22 42 22 50 0 8 9 32 20 53 14 25 20 56 20 97 0 32 6 79 14
102 8 24 17 84 21 133 4 50 7 124 6 165 -1 41 -3 114 -6 161 -2 47 -11 114
-19 150 -9 36 -20 96 -27 135 -6 38 -15 96 -20 128 -5 33 -13 64 -18 70 -5 6
-20 43 -32 81 -12 39 -39 107 -60 153 -22 46 -39 85 -39 88 0 3 -25 42 -55 87
-30 45 -67 100 -82 122 -15 22 -29 43 -31 48 -2 4 3 7 12 7z"/>
</g>
</g>
</svg>
