<?xml version="1.0" standalone="no"?>
<!DOCTYPE svg PUBLIC "-//W3C//DTD SVG 20010904//EN"
 "http://www.w3.org/TR/2001/REC-SVG-20010904/DTD/svg10.dtd">
<svg version="1.0" xmlns="http://www.w3.org/2000/svg"
 width="1258.000000pt" height="2048.000000pt" viewBox="0 0 1258.000000 2048.000000"
 preserveAspectRatio="xMidYMid meet">
<metadata>
Created by potrace 1.16, written by Peter Selinger 2001-2019
</metadata>
<g transform="translate(0.000000,2048.000000) scale(0.100000,-0.100000)"
fill="#000000" stroke="none">
<g>
<path d="M10145 18856 c-110 0 -222 -3 -250 -7 -27 -5 -115 -15 -195 -24 -80
-8 -170 -15 -200 -16 -30 0 -143 -11 -250 -24 -107 -13 -222 -29 -255 -34 -33
-6 -91 -17 -130 -25 -38 -8 -133 -15 -209 -15 -77 -1 -142 -3 -145 -5 -3 -2
-67 -7 -141 -10 -75 -4 -165 -11 -200 -16 -36 -5 -101 -10 -145 -10 -43 0
-129 -5 -190 -10 -60 -6 -137 -15 -170 -21 -33 -5 -85 -14 -115 -20 -30 -5
-95 -15 -145 -20 -49 -5 -128 -11 -175 -13 -47 -1 -121 -6 -165 -10 -44 -4
-83 -10 -87 -13 -5 -2 -65 -6 -136 -9 -70 -2 -149 -6 -177 -9 -27 -2 -72 -7
-100 -11 -27 -4 -75 -8 -105 -10 -30 -1 -104 -6 -165 -9 -60 -3 -130 -10 -155
-16 -25 -6 -155 -12 -290 -15 -135 -2 -303 -6 -375 -10 -71 -3 -152 -7 -180
-9 -27 -3 -104 -7 -170 -10 -66 -3 -145 -7 -175 -9 -30 -3 -104 -7 -163 -10
-60 -3 -112 -8 -116 -10 -4 -3 -34 -6 -67 -7 -32 -1 -64 -6 -69 -10 -6 -4 -58
-10 -115 -14 -58 -3 -127 -10 -155 -15 -27 -6 -66 -12 -85 -14 -19 -3 -100 -8
-180 -11 -80 -4 -149 -9 -154 -12 -4 -3 -45 -7 -90 -10 -44 -2 -100 -11 -124
-19 -23 -8 -60 -14 -81 -14 -21 0 -54 -6 -73 -14 -18 -8 -76 -19 -128 -26 -52
-6 -138 -15 -192 -19 -53 -5 -101 -12 -107 -15 -5 -4 -56 -13 -113 -21 -57 -8
-121 -17 -143 -19 -22 -3 -85 -13 -140 -22 -73 -13 -168 -18 -350 -20 -137 -1
-320 -5 -405 -8 -85 -4 -164 -9 -176 -11 -11 -2 -49 -7 -85 -11 -52 -5 -73 -2
-113 15 -27 12 -57 19 -67 16 -11 -4 -31 -8 -47 -10 -15 -2 -33 -4 -39 -4 -7
-1 -13 -8 -13 -16 0 -9 11 -20 24 -25 13 -5 27 -13 30 -18 3 -5 1 -40 -5 -78
-5 -38 -14 -157 -19 -264 -4 -107 -13 -233 -19 -280 -7 -52 -9 -174 -6 -315 3
-126 7 -345 10 -486 3 -141 10 -293 15 -337 6 -45 10 -110 10 -144 0 -35 -1
-139 -1 -233 0 -93 -4 -186 -9 -205 -5 -19 -11 -147 -13 -285 -2 -137 0 -374
4 -525 5 -151 11 -374 14 -495 4 -121 5 -290 4 -375 -1 -85 -1 -218 1 -295 1
-77 2 -169 3 -205 0 -36 -3 -117 -7 -180 -4 -63 -9 -239 -12 -390 -2 -151 -6
-372 -8 -490 -2 -118 -9 -267 -15 -330 -6 -63 -13 -243 -15 -400 -3 -157 -8
-298 -11 -315 -3 -16 -8 -75 -11 -130 -2 -55 -7 -325 -10 -600 -3 -275 -6
-543 -7 -595 -1 -52 3 -230 8 -395 6 -165 10 -415 10 -555 0 -140 -4 -277 -8
-305 -5 -27 -10 -207 -13 -400 -3 -192 -4 -390 -4 -440 0 -49 5 -139 11 -200
6 -60 14 -164 19 -230 4 -66 8 -176 9 -245 1 -69 8 -195 16 -280 8 -85 17
-193 21 -240 3 -47 13 -139 22 -205 10 -79 17 -235 19 -460 3 -198 0 -426 -7
-545 -7 -113 -13 -221 -15 -240 -1 -19 -6 -98 -10 -175 -4 -77 -9 -230 -11
-340 -1 -110 -5 -355 -9 -545 -5 -217 -3 -465 4 -670 6 -179 17 -392 23 -475
6 -82 12 -274 13 -425 1 -222 4 -286 18 -333 13 -45 16 -103 16 -265 0 -114 5
-232 11 -262 6 -30 13 -68 15 -85 2 -16 7 -75 9 -130 3 -55 10 -143 16 -195 6
-52 14 -166 19 -252 5 -100 13 -163 21 -173 7 -8 23 -15 36 -15 13 0 24 4 24
10 0 5 13 7 29 4 21 -5 38 0 59 15 16 11 59 36 96 56 36 19 75 35 86 35 10 0
21 4 25 9 3 6 24 19 48 30 23 11 76 34 117 52 41 17 91 36 110 41 19 6 82 32
140 59 58 28 114 55 125 61 11 7 31 17 45 24 14 7 52 24 85 39 33 15 71 31 85
37 14 6 32 14 40 19 8 4 51 26 95 47 44 22 107 51 140 65 33 14 84 35 114 47
29 12 62 23 73 25 11 3 70 23 130 46 61 23 122 48 137 55 14 8 33 14 42 14 9
0 34 7 55 16 22 9 63 27 92 40 29 13 55 24 59 24 3 0 33 13 67 29 34 16 92 43
129 60 37 17 73 31 80 31 7 0 54 16 105 36 50 19 92 40 92 46 0 6 6 8 14 5 7
-3 23 1 34 9 11 8 61 27 110 43 49 16 111 39 138 51 27 12 58 26 69 31 11 5
76 25 145 44 69 20 175 52 235 72 61 19 121 41 135 48 14 7 43 16 65 19 22 4
60 14 85 23 25 8 80 24 123 34 43 10 90 25 105 32 15 8 50 20 77 27 28 6 64
18 82 26 17 8 47 14 66 14 20 0 39 4 42 10 3 5 25 14 48 20 23 6 56 17 72 25
17 8 66 31 110 51 44 20 91 43 105 51 14 8 68 35 120 59 52 25 104 49 115 54
11 4 43 18 70 30 28 11 64 28 80 37 17 8 66 33 110 55 44 22 87 44 95 49 8 5
22 12 30 15 8 4 60 28 115 55 55 26 127 58 160 70 33 13 67 24 75 25 8 2 23 7
35 13 11 5 40 19 65 29 25 11 56 23 70 27 14 4 68 28 120 52 52 25 118 55 145
68 28 13 70 33 95 44 25 11 52 24 60 29 8 5 25 14 38 20 12 7 30 16 40 21 9 4
60 29 112 53 52 25 111 51 130 58 19 7 76 32 125 55 50 23 103 45 118 49 16 4
46 18 67 31 21 13 51 27 67 31 15 4 35 12 43 19 8 7 45 26 81 43 36 18 72 32
80 32 8 0 19 4 25 10 5 5 30 16 54 24 25 8 90 30 145 50 54 20 102 40 105 45
3 4 41 22 85 40 44 18 94 38 110 46 17 7 50 21 75 30 25 9 53 21 62 26 10 5
23 9 30 9 6 0 57 22 112 49 56 28 113 55 129 60 15 6 27 16 27 23 0 7 9 19 19
25 17 11 19 27 19 222 1 116 6 254 11 308 6 54 13 152 16 218 2 66 7 136 10
155 3 19 8 69 11 110 2 41 11 167 19 280 8 113 17 267 21 343 3 75 8 149 10
165 2 15 8 119 14 232 5 113 12 223 15 245 3 22 10 87 15 145 5 58 12 123 15
145 3 22 9 72 15 110 5 39 11 108 14 155 3 47 8 177 12 290 3 113 10 284 15
380 6 96 14 310 19 475 4 165 11 314 14 330 2 17 10 64 15 105 6 41 13 111 16
155 2 44 9 114 15 155 5 41 19 136 30 210 11 74 27 234 35 355 9 121 22 276
31 345 8 69 17 139 19 157 2 18 9 58 14 90 6 32 15 135 21 228 5 94 14 217 20
275 5 58 14 125 20 150 6 25 15 79 20 120 6 41 13 82 16 90 3 8 15 71 25 140
11 69 24 179 29 245 6 66 15 156 20 200 6 44 17 123 26 175 8 52 22 149 30
215 8 66 21 212 29 325 8 113 17 252 20 310 2 58 8 161 11 230 3 69 8 139 10
155 2 17 6 80 9 140 2 61 7 178 11 260 3 83 8 153 11 158 2 4 9 123 14 265 5
141 11 291 13 332 3 41 8 143 12 225 3 83 12 292 19 465 7 173 11 450 9 615
-2 165 0 428 6 585 5 157 16 377 25 490 8 113 21 282 30 375 8 94 17 204 20
245 3 41 11 152 17 245 6 94 12 422 13 730 0 464 3 564 15 582 10 16 12 31 4
60 l-9 38 -200 1z m-55 -83 c69 -2 135 -9 147 -15 21 -11 22 -17 24 -167 1
-86 1 -322 1 -526 -1 -203 -8 -487 -16 -630 -8 -143 -15 -267 -14 -275 0 -8
-8 -103 -18 -210 -9 -107 -18 -231 -19 -275 0 -44 -4 -98 -8 -120 -4 -22 -9
-87 -12 -145 -3 -58 -8 -175 -12 -260 -3 -85 -6 -291 -7 -457 0 -166 -3 -304
-6 -307 -3 -3 -35 -8 -70 -11 -36 -4 -92 -11 -125 -16 -33 -6 -91 -14 -130
-20 -38 -5 -83 -14 -100 -20 -16 -5 -48 -12 -70 -15 -22 -4 -44 -10 -49 -15
-6 -5 -21 -9 -34 -9 -13 0 -51 -7 -83 -15 -33 -9 -80 -20 -105 -24 l-45 -9 4
227 c2 124 9 363 16 531 7 168 14 514 15 770 2 256 7 515 11 575 4 61 7 124 6
140 0 17 -2 129 -4 250 -1 121 -6 225 -9 231 -4 6 -30 14 -57 17 -31 4 -67 1
-93 -7 -24 -8 -73 -19 -110 -26 -36 -6 -76 -9 -88 -5 -12 4 -35 0 -54 -9 -18
-8 -55 -18 -82 -20 -27 -3 -94 -8 -149 -11 -55 -3 -120 -10 -145 -16 -25 -5
-74 -14 -110 -20 -36 -5 -81 -12 -100 -14 -19 -3 -51 -8 -70 -11 -19 -4 -43
-6 -52 -5 -10 1 -45 -5 -79 -13 -33 -9 -64 -14 -68 -12 -4 3 -34 -1 -67 -8
-32 -7 -97 -12 -144 -12 -47 1 -132 2 -190 4 -94 2 -107 4 -118 22 -9 15 -10
30 -3 58 6 20 13 141 16 267 3 127 8 255 12 285 3 30 6 74 5 98 -2 41 -1 42
31 43 17 1 51 3 75 4 24 2 64 8 90 13 26 6 117 13 202 16 85 4 243 13 350 21
107 8 245 15 305 14 61 0 148 7 195 15 47 9 96 18 110 22 14 3 36 7 50 9 14 2
45 7 70 11 25 4 59 8 75 10 17 2 50 6 75 8 25 2 68 7 95 11 28 3 64 8 80 10
17 2 71 5 120 5 50 1 124 6 165 11 41 4 102 10 135 13 33 3 71 9 85 14 14 5
81 8 150 5z m-2566 -234 c19 1 19 -7 12 -276 -4 -153 -9 -291 -10 -308 -1 -16
-3 -58 -4 -92 l-2 -61 -92 -6 c-51 -3 -194 -8 -318 -10 -124 -3 -292 -12 -375
-19 -82 -8 -157 -15 -165 -15 -8 0 -44 -3 -80 -6 -36 -3 -103 -12 -150 -20
-47 -8 -134 -20 -195 -26 -60 -7 -114 -15 -120 -20 -5 -4 -17 -7 -25 -8 -8 0
-70 -5 -137 -11 -67 -6 -129 -8 -137 -5 -7 3 -17 0 -21 -5 -3 -6 -10 -9 -14
-6 -5 2 -34 -2 -65 -10 -32 -8 -74 -13 -94 -10 -20 3 -71 -1 -112 -10 -41 -9
-86 -18 -100 -20 -14 -1 -88 -10 -165 -19 -77 -8 -156 -20 -175 -26 -19 -6
-72 -13 -117 -15 -46 -2 -87 -6 -92 -9 -5 -4 -29 -9 -53 -12 -24 -3 -59 -7
-78 -9 -19 -2 -114 -6 -210 -10 -101 -3 -180 -11 -187 -17 -10 -8 -19 -6 -34
8 -20 18 -21 25 -13 124 4 58 7 112 7 120 0 8 -1 49 -2 90 -1 41 -1 151 -1
245 0 93 -4 172 -9 175 -5 3 -11 15 -15 26 -6 19 -2 22 41 28 27 3 66 8 89 10
22 2 92 11 155 20 63 8 179 20 259 26 80 6 186 11 235 12 50 0 100 4 113 9 13
5 74 10 135 10 62 1 130 5 152 10 22 4 81 8 130 9 50 0 169 1 265 1 96 0 189
1 205 4 17 2 62 6 100 10 39 3 102 10 140 15 39 6 135 12 215 14 80 3 177 9
215 15 39 5 111 10 160 11 50 0 128 8 175 16 47 8 175 18 285 24 110 5 214 13
230 19 17 5 39 10 49 10z m-3486 -261 l70 3 -1 -43 c0 -24 3 -124 7 -223 4
-99 9 -258 9 -353 2 -166 1 -172 -18 -172 -11 -1 -114 -3 -230 -5 -115 -2
-275 -6 -355 -8 -80 -3 -170 -7 -200 -11 -30 -3 -85 -8 -121 -11 -37 -2 -125
-13 -195 -25 -71 -11 -138 -24 -149 -29 -11 -6 -40 -14 -65 -20 -25 -5 -63
-15 -85 -21 -22 -6 -67 -18 -100 -26 -33 -9 -78 -19 -100 -24 -22 -4 -58 -12
-80 -16 -22 -4 -45 -11 -52 -16 -7 -5 -22 -9 -35 -7 -13 1 -31 -2 -41 -6 -16
-7 -18 -20 -16 -119 0 -61 9 -221 19 -356 13 -177 19 -374 20 -710 1 -256 2
-476 3 -490 1 -14 -2 -144 -6 -290 -4 -146 -11 -326 -15 -400 -4 -74 -6 -306
-4 -516 2 -255 -1 -390 -8 -409 -7 -18 -14 -25 -20 -19 -7 7 -41 6 -98 -2 -48
-6 -134 -17 -192 -24 -57 -6 -109 -15 -115 -18 -5 -4 -26 -12 -45 -19 -19 -7
-47 -13 -62 -13 -15 0 -30 -5 -33 -10 -4 -6 -11 -8 -16 -4 -5 3 -23 -2 -40
-10 -17 -8 -64 -18 -104 -22 l-73 -7 -6 264 c-4 145 -9 390 -12 544 -2 154 -4
473 -4 709 -1 275 3 432 9 440 7 8 9 83 7 202 -2 104 -6 225 -9 269 -3 44 -8
256 -12 470 -4 215 -8 446 -9 515 -1 69 1 168 5 220 4 52 12 156 18 230 6 74
16 177 22 228 10 82 15 95 34 102 12 5 71 11 131 14 60 3 183 11 274 17 91 6
262 12 380 14 118 1 244 8 280 15 36 6 88 14 115 16 28 2 86 6 130 9 44 3 103
12 130 20 28 8 124 24 215 36 91 12 179 22 196 24 17 1 36 5 42 9 6 3 48 11
94 17 46 6 91 15 101 20 10 6 52 12 94 15 42 2 80 7 85 10 5 3 44 8 86 11 42
3 78 6 79 6 1 1 33 3 71 5z m5217 -426 c17 -3 32 -7 35 -9 2 -2 6 -70 8 -151
2 -81 4 -183 5 -227 0 -44 -2 -114 -7 -155 -4 -41 -6 -253 -6 -470 1 -217 2
-426 2 -465 0 -38 0 -164 1 -280 0 -115 0 -226 0 -245 0 -19 -3 -80 -6 -135
-3 -55 -8 -257 -12 -450 -3 -192 -8 -377 -10 -410 -3 -33 -7 -157 -10 -275 -3
-118 -9 -285 -12 -370 -4 -85 -9 -204 -10 -265 -2 -60 -6 -369 -8 -685 -2
-316 -6 -714 -10 -884 -3 -170 -8 -327 -11 -350 -3 -22 -7 -50 -9 -62 -3 -15
-18 -24 -55 -33 -27 -7 -52 -17 -56 -22 -3 -5 -10 -9 -16 -9 -7 0 -8 23 -4 68
3 37 12 159 20 272 10 145 11 224 4 269 -6 35 -8 80 -5 100 3 20 1 65 -5 101
-5 36 -16 92 -23 125 -8 33 -17 82 -21 109 -4 27 -13 61 -20 75 -8 14 -14 34
-14 44 0 9 -4 25 -10 35 -5 9 -21 44 -36 77 -14 33 -39 96 -56 140 -16 44 -28
80 -27 80 1 0 -5 23 -15 51 -9 28 -39 84 -67 125 -27 41 -60 90 -73 109 -13
19 -36 46 -51 59 -16 13 -67 44 -114 69 -47 24 -95 53 -106 63 -11 10 -40 27
-65 38 -25 12 -65 33 -90 48 -25 14 -48 31 -52 37 -4 6 -8 7 -8 2 0 -5 -6 -4
-12 1 -7 5 -46 20 -86 33 -40 12 -75 26 -78 31 -2 4 0 48 6 96 6 48 11 158 10
243 0 85 0 164 -1 175 0 11 2 38 4 61 3 22 7 54 11 70 3 16 8 76 11 134 2 58
7 150 10 205 3 55 8 127 10 160 3 33 9 119 15 190 6 72 15 168 21 215 6 47 12
230 13 408 2 177 6 325 10 329 3 3 6 25 6 47 0 23 -7 52 -16 64 -8 12 -24 22
-34 22 -10 0 -20 -4 -22 -8 -1 -4 -17 -17 -33 -29 -17 -12 -48 -24 -68 -28
-21 -4 -44 -14 -52 -21 -7 -7 -48 -25 -91 -39 -42 -14 -82 -29 -88 -33 -6 -5
-31 -14 -55 -21 -24 -7 -78 -14 -119 -16 -56 -3 -78 -7 -84 -19 -5 -9 -19 -16
-31 -16 -12 0 -33 -6 -47 -13 -14 -7 -49 -14 -79 -15 -30 -2 -75 -8 -100 -13
-25 -5 -79 -16 -118 -24 -40 -7 -103 -20 -140 -29 -38 -8 -93 -20 -123 -26
-30 -6 -66 -12 -80 -14 -14 -3 -43 -6 -65 -8 -22 -1 -86 1 -141 6 -75 6 -108
5 -125 -4 -12 -7 -54 -15 -93 -17 -39 -3 -76 -9 -83 -15 -7 -6 -14 -5 -18 2
-4 6 -19 9 -33 5 -15 -3 -70 -7 -122 -9 -52 -2 -120 -7 -152 -11 l-56 -8 -7
64 c-3 35 -4 188 -1 339 3 151 11 331 18 400 7 70 12 222 11 345 -1 121 -4
253 -8 293 l-6 72 50 0 c27 0 52 4 55 9 3 4 36 9 72 10 37 1 72 5 78 10 6 5
34 11 61 15 28 4 84 11 125 16 41 5 89 12 105 14 17 3 68 8 115 12 47 3 101 7
120 9 19 1 89 8 155 15 77 8 310 13 650 15 292 2 566 6 610 9 44 3 114 11 155
17 41 5 97 12 124 15 27 3 61 10 75 16 14 5 42 12 61 14 19 2 58 9 87 15 28 5
105 12 171 13 66 2 124 6 130 10 6 3 55 11 109 16 54 5 121 16 148 23 28 8 64
12 80 9z m-3450 -306 l30 -1 7 -120 c4 -66 8 -157 8 -203 0 -46 -3 -89 -7 -95
-4 -7 -8 -32 -9 -57 -1 -25 -4 -112 -7 -195 -4 -82 -10 -177 -14 -210 -4 -33
-6 -166 -5 -295 2 -129 4 -253 5 -275 l2 -40 -75 -13 c-41 -8 -112 -13 -157
-13 -46 1 -128 -6 -183 -14 -55 -8 -131 -15 -169 -15 -39 0 -72 -4 -75 -8 -3
-5 -28 -10 -57 -11 -28 -1 -57 -5 -63 -8 -6 -4 -35 -9 -65 -10 -34 -2 -62 -10
-74 -21 -18 -16 -20 -16 -32 1 -12 17 -14 16 -34 -10 -19 -25 -22 -26 -31 -11
-7 12 -23 17 -48 16 -22 0 -43 -8 -52 -18 -9 -11 -36 -21 -66 -25 -40 -5 -55
-3 -67 9 -8 9 -22 16 -29 16 -7 0 -24 -7 -36 -16 -13 -9 -30 -13 -38 -10 -8 3
-33 -6 -56 -20 -32 -21 -48 -25 -77 -20 -20 4 -52 7 -71 8 -19 0 -80 -2 -135
-6 -55 -3 -148 -12 -207 -20 -59 -8 -111 -17 -115 -19 -5 -3 -89 -6 -188 -8
-99 -1 -192 1 -207 5 -19 6 -28 4 -28 -3 0 -6 -7 -11 -16 -11 -15 0 -16 -13
-10 -127 4 -71 12 -191 16 -268 5 -77 11 -156 14 -175 2 -19 7 -66 11 -105 4
-38 9 -74 12 -79 4 -5 7 -41 9 -80 2 -39 5 -330 8 -646 3 -316 6 -695 6 -841
0 -147 -2 -273 -4 -280 -3 -8 -8 -36 -11 -64 -4 -27 -10 -86 -15 -130 -5 -44
-9 -152 -10 -240 -1 -88 -6 -203 -11 -255 -5 -52 -11 -139 -13 -192 -3 -54 -6
-157 -7 -228 0 -72 -5 -145 -9 -163 -5 -18 -14 -61 -20 -97 -6 -36 -18 -105
-26 -155 -9 -53 -19 -197 -24 -350 -4 -143 -15 -321 -24 -395 -9 -74 -22 -166
-28 -205 -6 -38 -13 -99 -16 -133 -3 -58 -6 -63 -24 -59 -12 4 -29 -2 -41 -14
-11 -10 -31 -19 -44 -19 -12 0 -46 -9 -75 -21 -29 -11 -78 -27 -108 -35 -30
-9 -73 -19 -95 -24 -22 -4 -74 -18 -115 -30 -41 -12 -79 -25 -85 -29 -5 -5
-32 -15 -60 -24 -27 -9 -79 -21 -115 -27 -36 -6 -81 -17 -100 -25 -20 -7 -57
-16 -83 -20 l-48 -7 6 183 c4 101 11 238 16 304 5 66 14 208 20 315 6 107 10
312 10 455 -1 143 3 292 9 330 5 39 12 158 15 265 3 107 7 285 10 395 3 110 8
220 11 245 3 25 8 72 10 105 2 33 9 161 15 285 7 124 13 540 15 925 1 385 7
761 12 835 6 74 10 146 10 160 0 14 3 277 8 585 4 308 8 601 8 650 0 50 -2
164 -6 255 -3 91 -11 219 -18 285 -6 66 -9 162 -6 214 4 52 11 101 18 108 6 7
25 20 42 27 17 8 60 23 96 34 36 11 90 27 120 36 30 9 101 27 157 41 56 14
116 25 132 25 17 0 73 9 124 19 50 11 126 23 167 27 41 3 84 8 95 10 11 2 61
9 110 15 50 6 97 10 105 10 8 -1 43 -3 78 -5 34 -2 62 -1 62 2 0 4 105 4 232
1 128 -4 319 -5 423 -4 105 1 206 5 225 8 19 3 59 8 88 11 30 3 57 8 61 11 4
2 76 9 160 15 83 6 161 14 174 19 12 5 56 12 97 15 41 4 127 15 190 26 63 10
167 23 230 29 63 6 140 13 170 15 30 1 69 2 85 2z m2270 -1200 c5 -1 13 -18
17 -37 5 -19 6 -122 3 -229 -3 -107 -10 -249 -16 -315 -5 -66 -14 -172 -19
-235 -6 -63 -15 -164 -21 -225 -5 -60 -12 -155 -14 -210 -3 -55 -8 -154 -10
-220 -3 -66 -8 -205 -10 -310 -3 -104 -9 -228 -14 -275 -5 -47 -13 -116 -17
-153 -5 -54 -10 -67 -22 -62 -8 3 -33 9 -56 14 -22 5 -72 14 -111 21 -38 6
-99 18 -134 26 -35 9 -82 17 -105 19 -22 2 -77 9 -121 15 -44 6 -105 16 -135
21 -30 5 -75 15 -100 21 -25 5 -76 17 -115 24 -38 8 -138 21 -220 28 -83 8
-197 13 -255 10 -58 -2 -127 -9 -155 -14 -27 -6 -90 -12 -140 -15 -49 -2 -132
-14 -185 -25 -52 -11 -117 -27 -144 -35 -26 -8 -60 -15 -73 -15 -14 0 -53 -12
-87 -26 -33 -15 -74 -32 -91 -39 -16 -7 -46 -16 -65 -20 -19 -4 -39 -11 -45
-15 -5 -4 -35 -15 -65 -25 -30 -10 -77 -28 -105 -40 -27 -13 -61 -26 -75 -30
-14 -4 -50 -18 -80 -31 -30 -14 -65 -30 -77 -37 -12 -6 -54 -34 -94 -61 -39
-28 -92 -68 -118 -91 -25 -22 -59 -50 -76 -60 -16 -11 -39 -24 -49 -30 -11 -5
-44 -39 -74 -75 -29 -36 -72 -87 -95 -113 -23 -26 -54 -69 -68 -95 -14 -26
-37 -65 -52 -87 -14 -22 -40 -59 -56 -82 -17 -24 -51 -85 -76 -138 -25 -52
-45 -97 -45 -101 0 -3 -9 -26 -21 -52 -11 -26 -29 -65 -39 -87 -11 -22 -33
-75 -50 -117 -16 -42 -30 -86 -30 -98 0 -12 -9 -61 -21 -109 -11 -47 -27 -106
-35 -131 -8 -25 -22 -85 -33 -135 -10 -49 -26 -121 -35 -158 -8 -38 -20 -117
-27 -175 -6 -59 -14 -114 -18 -122 -4 -8 -8 -31 -9 -50 -1 -19 -9 -78 -17
-130 -8 -52 -19 -124 -24 -160 -6 -36 -19 -139 -30 -230 -12 -91 -26 -210 -32
-265 -6 -55 -15 -122 -20 -148 -5 -27 -7 -53 -4 -58 4 -5 -1 -35 -9 -66 -8
-32 -19 -94 -25 -138 -6 -44 -13 -125 -16 -180 -3 -55 -12 -147 -20 -205 -9
-58 -20 -139 -25 -180 -5 -41 -16 -145 -24 -230 -9 -85 -24 -189 -34 -230 -10
-41 -29 -142 -41 -225 -12 -82 -26 -168 -31 -191 -5 -23 -12 -71 -16 -108 -4
-36 -10 -66 -14 -66 -4 0 -8 -21 -9 -46 0 -26 -8 -79 -17 -118 -9 -39 -21
-111 -29 -161 -7 -49 -20 -148 -29 -220 -9 -71 -26 -186 -37 -255 -10 -69 -23
-165 -29 -215 -5 -49 -14 -119 -19 -155 -6 -36 -18 -117 -27 -180 -9 -63 -23
-135 -31 -160 -8 -24 -16 -62 -19 -85 -3 -22 -12 -62 -21 -90 -8 -27 -19 -54
-24 -59 -5 -6 -9 -20 -9 -32 0 -12 3 -29 6 -38 4 -9 18 -16 35 -16 15 0 50 12
78 28 27 15 61 37 75 50 15 12 30 22 35 22 5 0 35 12 67 27 33 14 70 35 84 45
14 11 52 35 84 54 l59 34 15 -21 c13 -19 20 -20 71 -14 31 4 60 9 64 12 5 3
31 7 59 9 28 1 83 11 123 20 62 15 92 15 231 6 87 -5 224 -11 304 -12 80 -1
165 -4 190 -6 25 -3 63 -7 85 -9 22 -2 45 -4 51 -4 6 -1 14 -31 18 -68 3 -38
9 -99 11 -138 3 -38 7 -110 10 -160 3 -49 8 -146 10 -215 3 -69 5 -221 5 -339
0 -117 -3 -218 -6 -223 -4 -6 -8 -58 -9 -117 -2 -58 -4 -129 -4 -156 l-1 -51
-62 -28 c-35 -16 -85 -36 -113 -46 -36 -12 -94 -19 -213 -22 -131 -4 -166 -9
-181 -22 -9 -9 -25 -16 -35 -16 -9 0 -35 -16 -56 -37 -28 -25 -40 -45 -40 -63
0 -22 -8 -30 -42 -45 -24 -10 -61 -24 -83 -33 -22 -8 -45 -18 -51 -23 -5 -4
-48 -22 -95 -38 -46 -16 -101 -33 -122 -36 -21 -4 -41 -14 -44 -21 -3 -8 -10
-14 -17 -14 -6 0 -22 -6 -36 -13 -14 -7 -70 -30 -125 -52 -55 -21 -107 -44
-115 -51 -8 -6 -26 -15 -40 -19 -14 -3 -61 -18 -104 -32 -44 -13 -91 -33 -104
-44 -14 -10 -34 -19 -46 -19 -12 0 -31 -7 -42 -15 -10 -8 -26 -15 -35 -15 -9
0 -35 -18 -58 -40 -23 -22 -48 -40 -56 -40 -7 0 -29 -15 -47 -34 -18 -18 -44
-48 -58 -67 -13 -18 -35 -57 -47 -88 -12 -30 -25 -75 -29 -100 -4 -26 -11 -57
-16 -71 -6 -14 -17 -50 -25 -80 -10 -36 -16 -112 -18 -224 -2 -130 -5 -170
-16 -177 -8 -5 -22 -9 -32 -9 -9 0 -35 -11 -56 -25 -22 -13 -51 -27 -65 -31
l-25 -6 3 168 c1 93 5 246 9 339 3 94 8 238 12 320 4 83 10 240 15 350 5 110
11 214 14 230 3 17 7 53 11 80 3 28 7 86 9 130 2 44 11 125 21 179 9 55 21
108 26 119 6 10 8 21 6 24 -3 3 1 26 9 51 7 26 14 74 15 107 0 33 5 85 9 115
5 30 14 98 20 150 6 52 15 120 21 150 5 30 14 127 20 215 5 88 16 228 25 310
9 83 17 238 20 345 2 107 6 254 10 325 3 72 11 157 19 190 7 33 13 67 13 75 0
8 2 71 6 140 3 69 13 163 21 210 8 47 17 103 20 125 3 22 9 101 14 175 5 74
13 212 16 305 4 94 9 190 12 215 3 25 6 137 7 250 1 113 8 288 14 390 7 102
19 250 27 330 9 80 20 208 26 285 5 77 15 172 20 210 6 39 12 90 15 115 3 25
9 72 14 105 5 33 12 128 15 210 3 83 8 206 11 275 3 69 14 172 25 230 10 58
23 128 28 155 6 28 12 70 15 95 3 25 8 131 11 235 3 105 10 233 15 285 5 52
12 199 14 325 3 138 10 250 18 280 10 39 13 245 11 944 0 557 -5 929 -11 985
-6 50 -16 156 -22 236 -6 80 -12 196 -13 259 l-2 114 40 4 c22 2 62 11 88 19
26 9 53 14 60 11 7 -3 44 2 82 10 47 10 137 16 270 18 110 1 223 7 250 13 28
6 104 24 170 41 66 16 143 37 170 46 28 9 79 19 115 21 36 2 112 12 170 23 58
11 119 24 137 29 18 6 60 13 95 16 35 3 119 11 188 17 69 5 195 12 280 14 85
2 178 6 205 9 28 4 64 11 80 16 17 5 48 13 70 16 22 4 99 8 170 10 72 1 141 5
155 8 14 3 70 10 125 16 55 6 127 15 160 20 40 7 89 6 147 -1 64 -8 97 -7 125
1 21 7 61 16 88 21 28 6 77 14 110 18 33 5 84 14 113 20 30 6 74 18 100 26 25
9 51 14 58 11 7 -3 16 -1 19 3 2 5 34 12 70 16 36 3 67 11 71 16 3 5 20 9 37
8 18 -2 48 2 67 8 19 6 87 18 150 27 63 9 149 19 190 23 64 7 75 11 73 26 -1
15 4 18 25 14 14 -3 32 -3 39 0 7 3 13 11 13 17 0 7 -11 19 -25 26 -14 7 -22
16 -19 19 3 3 24 14 47 23 23 9 46 16 52 14z m-3527 -456 c1 0 2 -7 2 -15 0
-8 -7 -15 -15 -15 -13 0 -14 3 -3 15 7 8 14 14 16 15z m5579 -601 l32 1 -4
-162 c-2 -90 -7 -215 -10 -278 -4 -63 -8 -162 -10 -220 -2 -58 -6 -136 -9
-175 -3 -38 -8 -140 -11 -225 -3 -85 -8 -168 -10 -185 -3 -16 -8 -122 -11
-235 -3 -113 -7 -221 -9 -240 -1 -19 -8 -154 -14 -300 -6 -146 -14 -311 -17
-367 -4 -55 -8 -141 -9 -190 -1 -48 -5 -122 -9 -163 -4 -41 -11 -138 -17 -215
-5 -77 -13 -176 -18 -220 -5 -44 -12 -118 -16 -165 -4 -46 -11 -95 -16 -108
-5 -13 -6 -28 -3 -33 3 -6 1 -15 -4 -22 -5 -7 -10 -19 -10 -27 0 -8 -3 -30 -6
-48 -3 -18 -7 -36 -10 -40 -3 -5 -8 -55 -11 -113 -3 -57 -13 -158 -21 -224 -8
-66 -17 -140 -20 -165 -2 -25 -11 -77 -19 -117 -8 -40 -15 -86 -15 -102 0 -16
-4 -40 -9 -53 -5 -13 -16 -73 -24 -133 -9 -61 -19 -146 -22 -190 -4 -44 -8
-116 -10 -160 -2 -44 -10 -143 -19 -220 -9 -77 -20 -162 -26 -190 -5 -27 -14
-90 -20 -140 -5 -49 -13 -151 -16 -225 -4 -74 -8 -137 -9 -140 -2 -3 -6 -48
-10 -100 -4 -52 -13 -120 -20 -150 -7 -30 -16 -88 -19 -129 -4 -41 -9 -85 -12
-98 -4 -13 -14 -23 -23 -23 -9 0 -21 -4 -27 -9 -5 -5 -56 -26 -114 -46 -58
-20 -127 -43 -155 -51 -27 -8 -94 -22 -148 -30 -54 -9 -101 -14 -103 -11 -3 3
9 123 26 267 17 144 33 294 35 333 3 40 9 142 15 227 5 85 12 205 15 265 3 61
7 126 10 145 2 19 6 64 10 100 3 36 8 110 11 165 2 55 9 143 14 195 5 52 11
167 14 255 3 88 8 248 11 355 4 107 12 258 20 335 8 77 17 196 20 265 3 69 7
172 10 230 3 58 7 200 10 315 4 116 8 548 11 960 3 413 6 782 8 820 2 39 6
135 10 215 3 80 9 240 13 355 4 116 6 269 4 340 -2 101 0 133 11 142 7 5 42
15 78 22 36 7 76 16 90 21 14 4 75 20 136 34 61 14 144 30 185 36 41 6 101 13
134 16 33 3 76 9 95 14 19 4 49 8 67 9z m-3383 -1096 c43 -2 101 -8 128 -13
28 -6 68 -10 88 -10 21 0 82 -11 136 -25 55 -14 131 -30 169 -36 39 -6 106
-14 150 -19 44 -5 118 -15 165 -24 47 -8 106 -19 132 -25 27 -6 81 -16 120
-21 40 -6 98 -17 128 -26 30 -8 80 -22 110 -32 30 -9 71 -25 90 -36 19 -11 55
-30 80 -43 25 -14 61 -35 80 -47 19 -12 62 -39 95 -58 33 -20 83 -47 110 -61
28 -14 73 -48 102 -77 29 -29 62 -71 74 -94 11 -22 31 -59 43 -81 11 -23 28
-52 37 -66 9 -13 21 -44 27 -69 6 -25 24 -79 41 -120 17 -41 36 -86 43 -100 6
-14 17 -38 25 -55 8 -16 25 -70 39 -120 14 -49 29 -124 34 -165 5 -41 13 -118
19 -170 6 -52 11 -142 12 -200 0 -58 -4 -143 -10 -190 -5 -47 -13 -150 -16
-230 -4 -80 -8 -186 -10 -236 -3 -50 -9 -103 -14 -117 -6 -14 -11 -65 -12
-114 -1 -48 -5 -115 -10 -148 -4 -33 -10 -80 -13 -103 -3 -24 -10 -50 -16 -57
-6 -7 -10 -17 -8 -21 1 -5 -1 -29 -5 -54 -3 -25 -9 -90 -13 -145 -3 -55 -15
-144 -25 -198 -10 -54 -19 -114 -19 -132 0 -19 -4 -36 -9 -39 -5 -3 -12 -20
-15 -38 -4 -18 -8 -44 -9 -58 -2 -14 -11 -66 -21 -115 -9 -50 -22 -106 -27
-126 -5 -20 -9 -48 -9 -63 0 -15 -14 -71 -31 -124 -17 -53 -37 -115 -46 -137
-9 -22 -19 -53 -23 -70 -5 -16 -16 -57 -24 -89 -9 -33 -37 -110 -61 -172 -25
-63 -52 -135 -61 -161 -8 -26 -24 -66 -34 -88 -10 -22 -22 -51 -26 -65 -4 -14
-27 -66 -51 -117 -25 -51 -51 -97 -59 -104 -8 -6 -14 -19 -14 -28 0 -9 -13
-32 -28 -51 -15 -19 -36 -54 -46 -77 -11 -24 -22 -43 -26 -43 -4 0 -15 -19
-26 -42 -10 -24 -30 -58 -44 -75 -14 -18 -45 -54 -70 -80 -25 -27 -56 -64 -69
-83 -14 -19 -65 -77 -115 -128 -50 -52 -117 -119 -150 -150 -32 -32 -91 -89
-130 -127 -39 -39 -98 -94 -131 -122 -33 -29 -86 -70 -118 -93 -32 -22 -61
-40 -66 -40 -4 0 -19 -9 -32 -21 -13 -11 -46 -35 -73 -52 -27 -18 -54 -35 -60
-39 -6 -4 -38 -19 -71 -34 -33 -14 -76 -32 -95 -40 -19 -8 -43 -19 -52 -24
-10 -6 -24 -10 -32 -10 -8 0 -43 -13 -78 -29 -35 -16 -92 -39 -128 -50 -36
-12 -74 -26 -85 -31 -11 -5 -31 -12 -45 -16 -14 -5 -29 -7 -33 -6 -4 1 -18 -3
-30 -10 -12 -6 -47 -17 -77 -24 -30 -7 -82 -20 -115 -29 -33 -9 -89 -25 -125
-36 -36 -10 -108 -28 -160 -39 -52 -10 -156 -24 -230 -30 -74 -6 -254 -11
-400 -11 -146 1 -313 6 -370 11 -58 6 -168 10 -245 10 -77 -1 -165 4 -195 10
-30 6 -97 11 -148 11 -51 0 -108 -4 -125 -10 -18 -5 -68 -12 -112 -15 -44 -4
-90 -9 -102 -12 -13 -4 -23 -2 -23 2 0 5 30 29 67 54 37 25 86 61 108 81 22
20 64 51 93 68 29 17 57 31 63 31 5 0 28 18 49 39 22 22 40 44 40 50 0 5 30
32 68 58 37 26 93 72 125 102 31 30 57 63 57 73 0 10 5 18 12 18 7 0 70 59
140 131 70 71 128 135 128 140 0 5 11 14 24 19 14 5 33 22 43 37 9 15 31 43
48 61 16 18 42 40 57 47 18 10 41 45 73 110 26 52 56 100 66 106 10 5 19 16
19 24 0 8 13 29 29 48 16 18 38 53 47 78 10 24 22 49 26 54 4 6 19 24 33 41
14 18 25 39 25 47 0 8 7 20 15 27 8 7 15 16 15 21 0 5 10 31 22 57 12 26 24
49 27 52 3 3 12 14 18 25 7 11 25 45 40 75 15 30 33 61 40 68 7 7 13 20 13 29
0 8 8 27 19 41 10 15 24 45 32 67 7 22 14 42 14 45 0 3 4 19 8 35 4 17 17 50
29 75 12 25 24 52 28 60 4 8 14 40 23 70 9 30 23 83 32 118 8 35 15 72 15 82
0 11 6 34 14 52 7 18 21 56 30 83 10 30 16 83 16 133 0 54 6 96 16 120 9 20
24 75 34 122 10 47 24 111 31 142 11 51 11 62 -4 93 -9 19 -22 35 -29 35 -7 0
-20 -6 -29 -13 -9 -7 -19 -30 -23 -52 -4 -22 -9 -78 -13 -125 -3 -47 -9 -90
-14 -96 -5 -6 -13 -39 -18 -75 -5 -35 -17 -86 -26 -114 -10 -27 -21 -72 -25
-100 -5 -27 -13 -68 -20 -90 -6 -22 -12 -47 -14 -55 -3 -8 -10 -37 -16 -65 -7
-27 -23 -84 -35 -125 -13 -41 -26 -91 -29 -110 -4 -19 -12 -48 -18 -65 -6 -16
-31 -71 -55 -121 -23 -51 -43 -96 -43 -101 0 -6 -9 -18 -20 -28 -11 -10 -20
-24 -20 -30 0 -7 -6 -18 -14 -24 -8 -7 -18 -26 -22 -43 -3 -17 -17 -51 -29
-75 -13 -24 -29 -59 -35 -78 -6 -19 -22 -55 -35 -80 -13 -26 -40 -70 -60 -98
-20 -29 -57 -86 -81 -127 -25 -41 -60 -100 -79 -130 -19 -30 -44 -70 -57 -88
-13 -19 -59 -75 -103 -125 -44 -51 -152 -164 -240 -252 -89 -88 -194 -192
-235 -230 -41 -39 -106 -96 -145 -127 -38 -31 -91 -76 -117 -100 -26 -24 -63
-54 -83 -68 -21 -14 -54 -39 -74 -56 -20 -17 -63 -49 -96 -71 -33 -23 -78 -50
-100 -62 -22 -12 -53 -30 -70 -39 -16 -9 -58 -34 -93 -54 -35 -21 -68 -38 -73
-38 -5 0 -9 -4 -9 -9 0 -5 -22 -18 -49 -30 -27 -11 -55 -21 -61 -21 -7 0 -34
-11 -60 -24 -27 -13 -50 -22 -53 -20 -2 2 2 26 9 52 7 26 17 61 23 77 5 17 14
59 20 95 5 36 14 90 20 120 6 30 16 96 22 145 6 50 12 101 14 115 2 14 10 46
18 72 8 26 15 80 16 120 1 40 3 87 6 103 2 17 9 77 15 135 5 58 15 132 20 165
6 33 17 105 25 160 8 55 18 116 21 135 3 19 12 67 20 105 8 39 26 151 40 250
13 99 31 214 39 255 8 41 23 118 34 170 11 52 27 169 36 259 8 90 18 167 21
172 3 5 12 55 20 111 9 57 20 146 25 198 6 52 17 140 25 195 8 55 21 154 29
220 7 66 16 127 19 135 4 9 8 49 10 90 3 41 10 109 17 150 6 41 12 89 11 105
0 17 4 53 9 80 4 28 15 88 23 135 8 47 17 125 19 173 3 49 10 94 16 100 6 6
11 31 11 55 0 24 4 62 9 85 5 23 14 69 20 102 5 33 17 110 26 170 9 61 23 139
30 175 8 36 17 82 21 103 3 20 10 40 15 43 5 3 9 17 9 32 0 15 7 50 16 77 9
28 22 64 30 82 7 17 18 60 24 95 6 34 22 86 35 113 13 28 33 70 44 95 12 25
30 59 41 75 10 17 19 40 19 51 1 12 8 27 16 34 8 7 15 16 15 21 0 5 12 34 26
66 15 32 30 60 33 63 4 3 26 37 50 75 23 39 58 93 77 120 20 28 50 66 68 85
18 19 66 69 107 110 41 41 121 107 177 145 56 39 110 75 120 80 10 6 36 24 57
40 22 17 60 40 85 51 25 12 68 31 97 43 28 11 61 21 72 21 12 0 21 4 21 9 0 5
10 12 23 16 12 4 29 9 37 10 9 1 26 8 39 14 12 7 44 18 69 26 26 7 92 27 147
45 55 17 109 33 120 35 11 2 47 11 80 20 33 9 76 20 95 25 19 5 73 14 120 20
47 6 130 13 185 17 55 3 127 9 160 13 33 4 95 6 139 3z m-4493 -313 l38 0 3
-62 c2 -35 0 -178 -4 -318 -3 -140 -9 -289 -12 -330 -3 -41 -8 -140 -11 -220
-4 -79 -8 -147 -11 -151 -2 -4 -6 -101 -9 -216 -3 -114 -7 -253 -9 -308 -3
-55 -8 -165 -11 -245 -4 -80 -8 -148 -10 -151 -2 -3 -6 -82 -9 -175 -3 -93 -8
-299 -11 -459 -3 -159 -10 -339 -15 -400 -5 -60 -12 -195 -15 -300 -3 -104
-10 -230 -15 -280 -5 -49 -14 -225 -19 -390 -6 -165 -9 -331 -7 -370 2 -38 6
-83 11 -98 4 -15 2 -62 -4 -105 -6 -42 -13 -116 -15 -164 -2 -47 -8 -92 -12
-100 -5 -7 -9 -53 -10 -103 -1 -49 -6 -151 -12 -225 -8 -94 -8 -193 -1 -325 5
-104 9 -381 9 -615 -1 -234 -2 -474 -3 -535 l-2 -110 -85 -17 c-47 -10 -112
-23 -145 -28 -33 -6 -73 -15 -90 -20 -16 -5 -55 -16 -85 -25 -30 -9 -64 -20
-75 -24 -11 -5 -41 -16 -67 -26 -26 -9 -57 -15 -70 -13 -14 2 -25 13 -30 33
-5 17 -11 71 -13 120 -3 50 -7 176 -10 280 -2 105 -9 237 -16 295 -6 58 -13
130 -15 160 -3 30 -4 163 -4 295 0 132 2 332 4 445 3 113 10 239 16 280 6 41
10 188 10 325 -1 138 -3 279 -6 315 -2 36 -4 461 -4 945 1 697 4 901 15 980 7
55 16 238 20 410 4 171 11 346 17 390 6 44 11 224 13 400 1 176 5 403 9 505 4
102 9 253 11 335 2 83 4 167 4 188 1 20 6 37 11 37 6 0 23 8 38 19 15 10 74
28 132 40 58 13 114 26 125 31 11 5 74 22 140 38 67 16 153 30 195 31 41 1 76
4 79 6 2 3 21 5 42 5z m6947 -2031 c1 1 0 -32 -2 -71 -3 -40 -8 -109 -11 -153
-3 -44 -7 -100 -10 -125 -2 -25 -7 -110 -11 -190 -3 -80 -8 -148 -10 -151 -2
-3 -4 -93 -5 -200 -1 -107 -6 -250 -10 -319 -5 -69 -12 -156 -14 -195 -3 -38
-7 -88 -9 -110 -2 -22 -7 -60 -10 -85 -4 -25 -11 -124 -15 -220 -5 -96 -18
-319 -31 -495 -12 -176 -26 -336 -30 -355 -5 -19 -16 -93 -25 -165 -10 -71
-23 -168 -30 -215 -7 -47 -11 -89 -8 -93 3 -4 0 -29 -6 -55 -6 -26 -13 -72
-15 -104 -3 -31 -10 -132 -16 -225 -6 -92 -13 -175 -16 -183 -3 -8 -9 -82 -14
-165 -5 -82 -14 -190 -20 -240 -7 -49 -19 -133 -27 -185 -7 -52 -22 -160 -32
-240 -11 -80 -26 -190 -35 -245 -8 -55 -20 -134 -26 -175 -6 -41 -15 -104 -20
-140 -5 -36 -13 -87 -19 -115 -5 -27 -8 -53 -5 -56 2 -4 -5 -53 -16 -110 -11
-57 -26 -175 -34 -264 -8 -88 -18 -270 -21 -405 -4 -135 -8 -310 -10 -389 -3
-88 -9 -148 -16 -157 -6 -8 -16 -14 -22 -14 -5 0 -35 -12 -66 -26 -31 -14 -67
-32 -81 -39 -14 -7 -65 -30 -115 -50 -49 -20 -112 -49 -140 -63 -27 -14 -61
-31 -75 -38 -14 -8 -54 -28 -90 -45 -36 -17 -83 -39 -105 -49 -22 -10 -69 -31
-105 -48 -36 -16 -85 -39 -110 -50 -25 -11 -54 -23 -65 -28 -11 -4 -22 -8 -25
-9 -3 -1 -18 -7 -35 -14 -16 -7 -48 -21 -70 -31 -22 -10 -104 -43 -183 -74
-79 -31 -159 -66 -178 -76 -19 -11 -41 -20 -48 -20 -7 0 -19 -7 -26 -15 -7 -8
-24 -15 -39 -15 -15 0 -31 -4 -36 -9 -6 -5 -32 -18 -60 -29 -27 -11 -102 -41
-165 -67 -63 -26 -142 -57 -175 -70 -33 -12 -123 -46 -200 -75 -77 -29 -158
-60 -180 -70 -22 -10 -51 -21 -64 -25 -14 -4 -44 -18 -68 -30 -24 -13 -58 -26
-75 -30 -18 -4 -55 -17 -83 -30 -27 -13 -124 -52 -215 -86 -91 -34 -198 -74
-238 -90 -41 -16 -80 -29 -88 -29 -8 0 -22 -4 -32 -9 -9 -5 -57 -28 -105 -50
-49 -23 -92 -41 -96 -41 -5 0 -14 -7 -21 -15 -7 -8 -19 -15 -26 -15 -7 0 -46
-16 -85 -35 -40 -19 -76 -35 -82 -35 -5 0 -22 -9 -37 -20 -16 -11 -43 -23 -62
-26 -18 -4 -42 -11 -53 -17 -11 -5 -22 -13 -25 -16 -3 -4 -21 -12 -40 -18 -19
-6 -114 -44 -210 -83 -96 -39 -194 -79 -217 -90 -24 -11 -46 -20 -50 -20 -3 0
-61 -23 -127 -52 -67 -28 -123 -54 -126 -58 -3 -4 -16 -10 -30 -13 -14 -3 -35
-15 -47 -27 -12 -11 -34 -20 -48 -20 -15 0 -50 -11 -78 -24 -29 -14 -124 -54
-212 -91 -88 -37 -177 -75 -197 -85 -21 -11 -93 -38 -160 -61 -68 -23 -127
-45 -133 -50 -5 -5 -15 -9 -22 -9 -7 0 -41 -13 -75 -30 -34 -16 -68 -30 -75
-30 -7 0 -21 -4 -31 -9 -9 -6 -30 -16 -47 -24 -16 -8 -50 -24 -75 -37 -25 -13
-47 -26 -50 -29 -3 -4 -18 -14 -35 -23 -16 -9 -95 -49 -175 -88 -80 -40 -195
-96 -256 -125 -61 -30 -123 -57 -138 -61 -14 -3 -26 -2 -27 2 0 5 -2 41 -5 79
-3 39 -5 91 -4 117 1 42 -2 49 -24 60 l-26 11 -2 291 c-1 160 -2 323 -4 361
-1 39 4 153 12 255 7 102 20 246 29 320 8 74 18 178 21 230 3 52 9 121 13 152
4 31 9 191 10 355 2 164 5 460 6 658 2 198 8 502 14 675 5 173 10 470 11 660
0 293 3 346 15 353 8 4 15 18 15 30 0 13 -5 28 -12 35 -9 9 -13 176 -16 695
-1 375 -3 732 -2 792 0 61 3 146 6 190 3 44 14 179 25 300 14 144 22 325 24
525 2 168 7 361 10 429 5 100 10 127 23 137 9 7 49 18 87 24 39 6 97 20 130
30 33 10 76 22 95 25 19 4 40 11 45 15 6 4 33 12 60 19 28 7 66 16 85 22 19 5
62 15 95 23 33 8 89 20 125 25 36 6 92 22 125 36 33 13 75 25 93 25 17 0 32
-3 32 -7 -1 -5 -5 -39 -10 -78 -6 -38 -12 -92 -15 -120 -3 -27 -10 -131 -16
-230 -6 -99 -12 -324 -14 -500 -2 -176 -5 -372 -8 -435 -3 -63 -8 -153 -11
-200 -4 -47 -11 -134 -17 -195 -5 -60 -17 -141 -25 -178 -8 -38 -17 -123 -20
-190 -3 -67 -7 -135 -9 -152 -2 -16 -8 -59 -13 -95 -6 -36 -13 -94 -17 -130
-3 -36 -6 -112 -5 -170 1 -58 1 -112 1 -120 0 -8 0 -63 0 -121 -1 -58 -5 -139
-10 -180 -6 -41 -13 -112 -17 -159 -4 -47 -8 -103 -9 -125 -2 -22 -6 -71 -9
-110 -4 -38 -12 -113 -17 -165 -6 -52 -13 -120 -14 -150 -2 -30 -6 -62 -9 -70
-2 -8 -10 -67 -16 -130 -6 -63 -18 -153 -26 -200 -8 -47 -21 -112 -30 -145 -8
-33 -24 -113 -35 -178 -10 -65 -19 -158 -18 -205 1 -48 -6 -120 -15 -161 -8
-40 -13 -78 -10 -83 3 -5 1 -80 -5 -166 -5 -86 -13 -220 -16 -297 -3 -77 -10
-199 -17 -272 -9 -104 -9 -141 1 -174 7 -23 9 -45 4 -48 -4 -3 -9 -19 -10 -36
0 -16 -4 -88 -8 -160 -4 -71 -11 -134 -15 -140 -4 -5 -10 -23 -14 -39 -5 -20
-2 -34 10 -47 9 -11 23 -19 30 -19 7 0 28 13 46 30 18 16 48 35 67 41 19 7 66
28 105 47 l69 36 29 -34 c15 -19 28 -42 28 -52 0 -10 7 -21 15 -24 8 -3 19
-20 25 -37 6 -18 34 -58 63 -89 28 -31 79 -77 111 -102 33 -26 103 -67 155
-92 53 -25 109 -52 125 -60 16 -9 75 -24 130 -35 80 -17 122 -20 203 -15 56 3
113 10 126 15 14 5 56 29 93 53 38 24 89 53 114 65 25 11 71 33 103 48 32 15
61 33 64 41 3 8 10 14 15 14 6 0 45 16 87 36 42 20 90 42 106 50 17 7 49 20
71 28 23 8 64 26 90 40 27 14 55 26 62 26 7 0 49 19 95 41 45 23 82 40 82 39
0 -2 19 7 42 18 23 12 44 26 47 31 4 5 25 12 49 16 23 4 82 28 132 54 49 25
92 48 95 51 3 3 30 18 60 32 30 15 78 32 105 39 28 6 55 15 60 20 6 4 93 50
195 102 102 51 220 107 264 122 43 16 111 45 150 65 39 20 107 56 151 80 44
23 99 56 123 72 24 17 68 39 99 49 30 11 95 43 145 72 49 29 144 81 211 115
67 35 136 74 152 86 17 13 50 33 75 45 25 12 59 29 75 39 17 9 57 33 90 52 33
19 69 42 79 52 11 10 26 18 34 18 8 0 25 9 39 19 13 11 35 35 49 53 13 18 34
49 46 68 13 19 29 51 35 70 7 19 13 46 13 60 0 15 5 31 10 36 6 6 12 51 15
100 3 56 -1 117 -10 167 -8 43 -27 102 -41 132 -15 30 -35 63 -45 74 -18 19
-18 20 9 39 15 11 50 31 78 46 29 15 60 36 69 46 10 11 26 20 36 20 10 0 30
11 46 24 24 20 28 30 26 67 -1 24 -2 116 -3 204 -1 88 0 207 3 265 3 58 12
143 20 190 9 47 21 141 28 210 7 69 12 138 11 155 -1 16 5 54 13 85 7 30 19
91 24 135 6 44 13 103 16 130 3 28 9 110 15 184 5 74 8 137 5 140 -2 4 1 27 5
52 5 25 10 97 12 160 l2 113 52 56 c28 30 83 93 123 138 39 46 71 88 71 94 0
5 16 29 35 52 19 24 35 48 35 53 0 5 9 18 20 28 11 10 20 26 20 36 0 10 6 22
13 26 7 4 23 33 37 63 13 30 32 64 42 76 10 11 18 25 18 31 0 6 9 21 19 35 11
13 23 38 27 54 4 16 20 56 36 88 15 32 26 61 23 64 -3 3 1 12 7 19 7 8 21 38
31 66 10 29 21 62 24 75 3 12 21 52 39 89 19 36 34 75 34 87 0 12 4 26 9 32 5
5 15 34 21 64 7 30 13 66 14 80 2 14 6 36 11 50 4 14 17 48 30 75 12 28 26 72
30 100 4 27 13 62 21 77 8 15 14 39 14 54 0 15 7 63 15 108 9 45 21 99 27 121
6 22 15 69 20 105 5 36 11 94 14 130 3 36 10 70 15 76 5 6 11 29 13 50 2 22 9
71 16 109 6 39 13 101 15 138 3 37 11 105 20 150 8 45 20 105 25 132 5 28 12
120 16 205 3 85 9 186 13 224 l6 70 70 17 c39 9 71 18 73 18z m419 -2939 c2 0
0 -39 -2 -87 -3 -49 -11 -122 -16 -163 -6 -41 -11 -93 -11 -114 1 -22 -2 -44
-5 -50 -4 -5 -8 -21 -9 -35 -1 -15 -2 -66 -3 -116 -1 -49 -1 -97 0 -105 1 -8
-2 -80 -5 -160 -4 -80 -8 -179 -11 -220 -2 -41 -7 -115 -10 -165 -3 -49 -8
-164 -11 -255 -3 -91 -6 -226 -8 -300 -2 -74 -8 -150 -14 -168 -6 -19 -14 -73
-18 -120 -4 -48 -10 -91 -14 -97 -4 -5 -8 -35 -8 -65 0 -30 -6 -102 -11 -160
-6 -58 -13 -181 -16 -275 -3 -93 -9 -222 -15 -285 -5 -63 -12 -162 -15 -220
-3 -58 -9 -151 -15 -208 -5 -57 -12 -107 -15 -111 -2 -5 -5 -48 -6 -97 -1 -49
-5 -99 -10 -111 -4 -12 -11 -90 -14 -174 -3 -84 -10 -182 -15 -218 -5 -37 -12
-131 -16 -211 -4 -80 -8 -168 -8 -196 -1 -28 -7 -58 -14 -67 -8 -9 -43 -31
-78 -48 -36 -18 -68 -37 -70 -41 -3 -4 -13 -8 -23 -8 -10 0 -24 -6 -30 -14 -6
-7 -33 -21 -59 -31 -26 -10 -74 -30 -107 -45 -33 -16 -87 -38 -120 -50 -33
-12 -64 -25 -70 -29 -5 -5 -36 -18 -67 -29 -32 -12 -66 -26 -75 -31 -10 -6
-60 -26 -110 -46 -51 -19 -95 -35 -98 -35 -3 0 -27 -10 -53 -21 -26 -12 -96
-45 -157 -74 -60 -29 -148 -69 -195 -90 -47 -20 -94 -40 -105 -45 -11 -5 -58
-25 -105 -45 -47 -20 -123 -55 -170 -77 -47 -22 -141 -67 -210 -100 -69 -33
-152 -73 -185 -88 -33 -15 -80 -36 -105 -47 -25 -12 -98 -41 -163 -67 -64 -25
-141 -57 -170 -70 -28 -14 -83 -38 -120 -55 -38 -17 -70 -31 -73 -31 -2 0 -86
-40 -187 -89 -100 -49 -240 -115 -312 -145 -71 -31 -177 -81 -235 -111 -58
-30 -134 -63 -168 -74 l-62 -19 0 52 c-1 28 -1 107 -1 176 0 69 1 141 1 160 1
19 -1 175 -3 345 -3 179 0 331 5 360 6 28 14 57 18 66 5 9 6 25 4 36 -4 16 6
23 63 41 38 13 88 34 112 47 24 14 48 25 54 25 7 0 36 10 67 21 30 12 63 25
72 30 10 5 25 9 33 9 9 0 45 14 80 30 35 17 70 30 78 30 8 0 26 9 40 20 14 11
30 20 35 20 6 0 23 7 39 14 15 8 66 26 113 41 47 14 111 36 143 49 31 13 60
26 64 30 3 3 17 6 30 6 13 0 45 9 71 21 26 11 61 26 77 34 17 7 57 25 90 40
33 15 96 45 140 66 45 22 84 39 88 39 5 0 49 20 100 44 51 24 108 50 127 58
19 8 49 20 65 25 17 6 50 17 75 24 25 8 79 31 120 51 41 21 83 38 93 38 10 0
43 13 75 29 31 15 75 34 96 41 22 7 71 28 110 46 39 18 89 45 111 59 22 14 47
28 55 31 8 4 42 17 75 30 33 12 69 31 80 42 11 10 30 24 42 30 12 7 40 12 63
12 24 0 60 10 90 26 28 14 50 30 50 35 0 5 9 9 20 9 11 0 23 7 26 15 4 8 15
15 25 15 11 0 29 6 41 13 13 6 28 19 34 27 7 8 10 18 7 23 -2 4 0 14 6 21 8 9
9 34 4 72 -4 33 -6 64 -4 69 2 6 5 29 6 52 2 23 8 50 14 61 8 15 6 23 -10 38
-18 16 -19 27 -15 108 3 50 8 168 11 261 3 94 10 222 16 285 6 63 19 171 31
240 11 69 26 175 34 235 8 61 19 146 24 190 6 44 13 100 16 125 3 25 7 61 9
80 2 19 12 80 23 135 10 55 23 127 27 160 4 32 9 68 11 80 3 11 7 38 9 60 2
22 9 85 15 140 7 55 14 114 16 130 2 17 8 89 14 160 5 72 12 141 15 155 3 14
12 111 20 215 8 105 19 244 25 310 6 66 13 125 15 131 2 6 34 19 72 27 37 9
92 18 121 22 29 3 85 17 125 31 39 14 83 28 97 31 14 2 30 6 35 8 6 1 15 4 20
6 6 1 30 11 55 20 25 10 46 18 47 19z m-1721 -563 c1 -1 -2 -81 -7 -177 -5
-96 -11 -213 -14 -260 -3 -47 -10 -112 -16 -145 -5 -33 -11 -69 -12 -80 -1
-11 -7 -23 -13 -27 -7 -5 -9 -27 -6 -58 3 -30 -2 -77 -11 -113 -9 -35 -18
-129 -21 -217 -4 -85 -8 -173 -10 -195 -3 -22 -8 -71 -11 -110 -4 -38 -8 -83
-11 -100 -2 -16 -6 -57 -9 -90 -3 -33 -5 -125 -5 -204 1 -126 -2 -145 -17
-157 -10 -8 -47 -30 -83 -50 -36 -21 -82 -52 -103 -71 -22 -20 -43 -31 -50
-26 -7 4 -48 37 -92 74 -52 44 -101 75 -135 87 -30 11 -77 24 -105 30 -27 6
-86 14 -130 17 -58 5 -98 2 -145 -10 -36 -9 -84 -25 -107 -36 -24 -10 -49 -19
-56 -19 -7 0 -17 -4 -22 -9 -6 -5 -59 -23 -119 -40 -60 -17 -113 -31 -118 -31
-6 0 -24 -6 -41 -13 -18 -8 -57 -22 -87 -32 -30 -10 -69 -26 -86 -36 -17 -11
-36 -19 -42 -19 -7 0 -10 54 -9 160 1 88 6 160 10 160 5 0 5 4 2 10 -3 5 -1
56 4 112 6 57 13 246 16 421 3 174 8 324 11 332 4 8 14 15 24 15 11 0 22 5 25
10 3 6 23 10 44 10 22 0 44 6 51 15 7 8 25 15 41 15 16 0 63 9 104 20 41 11
94 27 118 36 23 8 60 20 82 25 22 5 49 14 60 19 11 5 43 19 70 31 28 11 82 36
121 55 39 19 76 34 83 34 6 0 41 18 77 40 36 22 70 40 75 40 5 0 9 4 9 9 0 5
28 22 63 39 34 16 73 39 86 51 13 11 28 21 33 21 5 0 23 10 41 23 18 12 54 40
82 62 27 22 66 56 85 75 19 19 55 54 80 77 25 23 78 78 119 122 41 45 76 80
77 78z m-1760 -948 c19 1 21 -6 24 -61 2 -35 3 -72 2 -83 0 -11 -3 -128 -6
-260 -3 -132 -11 -305 -17 -385 -6 -80 -12 -231 -14 -337 -1 -105 -6 -196 -10
-202 -3 -7 -4 -25 0 -41 5 -23 12 -30 30 -30 12 0 36 -3 53 -6 27 -6 29 -8 17
-21 -8 -8 -15 -26 -15 -40 0 -25 0 -26 -61 -19 -41 5 -65 3 -75 -5 -8 -6 -14
-22 -14 -35 0 -14 13 -33 35 -51 19 -15 35 -34 35 -42 0 -10 -9 -6 -27 11 -16
15 -37 35 -49 45 -11 11 -50 34 -87 53 -37 18 -67 37 -67 42 0 4 3 8 6 8 4 0
24 -5 46 -12 23 -7 42 -8 47 -2 5 5 12 135 15 289 3 154 8 336 11 405 3 69 7
154 10 190 3 36 7 177 8 315 l3 250 40 12 c21 6 48 12 60 12z m-209 -39 c23 0
23 -1 25 -122 1 -68 2 -145 2 -173 0 -27 -3 -160 -8 -295 -4 -135 -9 -265 -10
-290 -2 -25 -7 -107 -11 -182 -7 -135 -8 -138 -34 -153 -14 -8 -40 -21 -58
-30 -17 -8 -53 -20 -80 -26 -26 -6 -57 -15 -68 -20 -11 -5 -27 -13 -35 -18 -8
-5 -54 -29 -102 -52 -48 -24 -90 -40 -93 -38 -3 3 -1 80 5 170 6 99 6 245 1
369 -5 113 -6 214 -2 225 4 11 6 137 5 280 -1 143 -2 276 -2 295 -1 19 0 35 1
36 1 1 98 5 216 8 118 3 217 8 219 11 3 3 16 5 29 5z m-624 -22 l72 -3 1 -35
c0 -19 4 -62 7 -95 4 -33 7 -118 7 -190 0 -71 -1 -333 -4 -582 -2 -249 -7
-457 -11 -463 -3 -5 -8 -78 -9 -162 -2 -84 0 -161 6 -170 5 -10 17 -18 28 -18
10 0 23 6 27 14 4 7 18 17 31 20 19 6 22 4 22 -21 0 -15 4 -33 8 -39 4 -6 18
-17 31 -24 13 -6 33 -14 45 -15 11 -2 46 -10 77 -18 32 -8 79 -27 105 -42 27
-16 53 -34 57 -42 4 -7 13 -13 20 -13 7 0 18 -13 25 -29 8 -17 12 -56 10 -93
-3 -62 -3 -62 -16 -33 -8 17 -21 45 -30 63 -10 21 -42 51 -85 80 -46 30 -89
50 -130 59 -34 8 -92 19 -129 25 -50 9 -74 9 -92 0 -21 -9 -24 -17 -21 -42 2
-17 18 -47 36 -67 17 -20 38 -53 46 -72 8 -20 21 -43 28 -51 7 -8 22 -43 34
-78 11 -35 23 -97 27 -138 5 -49 3 -74 -4 -74 -6 0 -24 22 -40 48 -16 26 -33
59 -37 73 -4 13 -23 51 -42 84 -19 33 -46 74 -59 92 -13 17 -24 36 -24 41 0 4
-14 35 -30 67 -17 32 -40 91 -52 129 -12 39 -27 76 -32 83 -6 6 -49 16 -96 22
-47 6 -132 17 -190 24 -58 7 -113 17 -124 23 -14 9 6 12 92 16 73 4 127 1 159
-7 26 -7 67 -21 90 -30 24 -9 54 -14 67 -11 18 4 25 15 30 46 3 21 5 92 5 157
-1 65 -2 141 -2 168 0 28 3 84 7 125 4 41 9 224 11 405 1 182 -1 366 -5 410
-5 44 -12 136 -16 204 -3 68 -7 129 -7 135 0 6 1 19 1 29 2 15 11 17 75 15z
m-3245 -299 l23 1 -6 -422 c-3 -233 -8 -484 -10 -558 -2 -74 -6 -238 -9 -364
-3 -127 -10 -232 -14 -235 -5 -3 -5 -39 0 -81 4 -41 6 -280 3 -530 -4 -348
-10 -504 -26 -665 -11 -115 -24 -252 -29 -303 -5 -51 -12 -96 -15 -102 -3 -5
-8 -71 -12 -147 -4 -76 -5 -205 -3 -288 1 -82 3 -240 3 -350 0 -110 -4 -248
-9 -307 -7 -81 -6 -111 3 -124 8 -11 11 -42 9 -88 -3 -39 -6 -75 -7 -81 -2 -5
2 -20 9 -32 8 -15 22 -23 40 -23 15 0 50 11 77 25 28 13 54 25 58 25 5 0 25 8
45 17 21 9 56 29 79 45 23 15 45 28 48 28 4 0 23 7 43 16 21 9 44 20 52 25 8
5 39 20 69 34 29 14 59 25 65 25 6 0 36 16 66 35 30 19 59 35 66 35 6 0 19 9
29 20 10 11 43 29 74 41 31 11 63 26 71 33 8 7 36 20 62 30 26 10 50 22 53 27
4 5 15 9 25 9 11 0 45 12 77 26 32 14 72 32 88 40 17 7 66 25 110 39 44 14 94
32 110 39 17 8 46 22 67 30 20 9 43 16 51 16 8 0 20 7 27 15 7 8 19 15 26 15
7 0 29 9 49 20 20 11 44 20 55 20 11 0 35 8 55 17 19 9 35 20 35 24 0 3 14 9
30 13 17 3 70 22 118 43 48 20 89 40 93 45 3 4 32 21 64 38 32 16 69 30 82 30
13 0 41 9 61 19 20 11 60 28 87 40 28 11 68 25 90 31 22 7 77 30 121 51 45 21
88 39 97 39 9 0 19 4 22 10 3 5 23 14 45 20 21 6 67 24 102 41 35 16 70 34 78
39 8 5 47 21 87 35 39 14 74 33 77 41 3 7 16 14 30 14 13 0 53 16 89 35 36 19
71 35 79 35 7 0 30 11 50 25 20 14 45 25 56 25 10 0 22 3 26 7 3 4 23 13 44
20 20 8 57 21 82 29 25 9 52 23 62 31 11 10 18 11 23 3 4 -6 1 -33 -5 -60 -9
-36 -9 -107 -2 -272 5 -123 9 -257 9 -298 0 -41 1 -102 2 -135 1 -33 0 -143
-3 -244 -4 -113 -10 -187 -17 -191 -5 -4 -58 -23 -117 -42 -59 -20 -145 -47
-192 -61 -47 -14 -150 -46 -230 -71 -80 -25 -168 -52 -195 -60 -28 -7 -86 -23
-130 -35 -44 -12 -91 -27 -105 -33 -14 -6 -33 -14 -42 -19 -10 -5 -25 -9 -33
-9 -8 0 -23 -4 -33 -9 -9 -6 -47 -21 -84 -35 -36 -15 -73 -26 -80 -26 -8 0
-18 -4 -24 -9 -5 -4 -40 -20 -79 -35 -38 -15 -85 -34 -102 -42 -18 -8 -48 -20
-65 -28 -18 -8 -53 -21 -78 -29 -25 -8 -125 -49 -222 -91 -98 -42 -181 -76
-184 -76 -3 0 -36 -12 -72 -26 -37 -14 -79 -32 -94 -40 -14 -8 -32 -14 -40
-14 -7 0 -25 -6 -39 -14 -14 -7 -81 -32 -150 -55 -68 -24 -141 -51 -163 -62
-22 -10 -43 -19 -48 -19 -4 0 -38 -14 -75 -31 -38 -16 -131 -61 -208 -99 -77
-37 -201 -98 -277 -134 -75 -36 -148 -68 -162 -72 -14 -3 -26 -10 -26 -15 0
-5 -11 -9 -24 -9 -13 0 -41 -9 -63 -19 -21 -11 -63 -30 -93 -44 -30 -14 -109
-50 -175 -81 -66 -31 -137 -69 -158 -83 -27 -19 -41 -23 -49 -15 -6 6 -15 68
-19 139 -5 70 -13 157 -19 193 -5 36 -10 97 -10 135 0 39 -5 97 -10 130 -5 34
-11 97 -12 140 -1 44 -6 89 -11 99 -5 11 -11 108 -13 215 -1 124 -8 229 -18
285 -12 62 -17 150 -17 300 0 116 0 220 0 231 0 11 -4 76 -9 145 -6 69 -12
190 -15 270 -2 80 -7 190 -10 245 -3 55 -6 245 -6 423 1 178 3 327 5 330 2 4
7 177 10 386 4 208 11 412 16 452 5 41 10 136 11 211 0 76 5 158 11 183 5 25
9 207 9 410 0 201 -5 401 -11 445 -6 44 -17 143 -24 220 -8 77 -13 141 -12
141 0 1 51 24 111 52 61 27 133 53 160 57 28 4 55 10 60 14 6 3 46 14 90 24
44 10 98 21 120 26 22 5 50 9 63 10z m4957 -655 c33 -1 87 -9 120 -17 33 -8
77 -22 97 -31 20 -8 56 -29 80 -45 24 -16 70 -58 102 -92 31 -34 64 -76 73
-93 9 -17 19 -33 22 -36 3 -3 16 -25 28 -50 12 -25 24 -61 28 -80 3 -19 1 -80
-4 -135 -6 -55 -15 -122 -21 -149 -5 -27 -27 -76 -48 -108 -20 -32 -40 -58
-44 -58 -4 0 -45 -22 -90 -49 -46 -26 -103 -60 -128 -75 -25 -14 -72 -44 -105
-66 -33 -22 -75 -47 -94 -55 -18 -9 -50 -26 -70 -39 -20 -12 -70 -37 -111 -55
-41 -18 -82 -39 -90 -46 -8 -7 -35 -24 -60 -38 -25 -13 -65 -35 -90 -48 -24
-13 -49 -29 -55 -35 -5 -6 -23 -18 -40 -27 -16 -8 -51 -25 -76 -36 -26 -12
-54 -30 -64 -41 -10 -11 -25 -20 -34 -20 -9 0 -25 -6 -36 -14 -11 -7 -69 -40
-130 -71 -60 -32 -145 -76 -188 -97 -42 -21 -82 -38 -88 -38 -6 0 -23 -7 -37
-14 -15 -8 -76 -36 -137 -61 -60 -25 -119 -50 -130 -55 -11 -6 -27 -14 -35
-19 -8 -5 -53 -27 -100 -49 -47 -22 -105 -49 -130 -59 -25 -11 -79 -35 -120
-54 -41 -18 -93 -44 -114 -57 -21 -13 -62 -32 -90 -42 -28 -10 -89 -35 -136
-55 -47 -20 -116 -52 -155 -69 -38 -18 -97 -44 -130 -57 -33 -13 -62 -26 -65
-29 -3 -3 -32 -15 -64 -25 -33 -11 -64 -25 -70 -30 -6 -6 -28 -21 -48 -33 -21
-13 -50 -27 -66 -31 l-28 -8 20 56 c17 48 19 84 20 261 1 177 -1 210 -16 239
-10 19 -18 42 -18 53 0 10 -4 26 -9 36 -5 9 -21 51 -37 92 -15 41 -48 104 -73
140 -25 36 -59 82 -76 102 -16 21 -34 38 -38 38 -5 0 -46 29 -92 65 -47 36
-89 65 -94 65 -5 0 -11 3 -13 8 -1 4 -32 22 -68 39 -36 18 -90 41 -120 52
l-55 18 55 25 c30 14 80 33 110 43 30 10 62 23 70 30 8 6 65 33 125 59 61 26
128 56 150 66 22 10 83 33 135 50 52 18 102 35 110 39 8 4 49 18 90 30 41 13
93 32 115 42 23 10 52 15 67 12 22 -4 30 0 39 20 7 15 19 28 28 30 9 1 45 -3
81 -10 36 -8 105 -18 154 -23 49 -5 116 -16 148 -25 33 -8 68 -15 79 -15 11 0
22 -8 25 -17 4 -10 12 -32 20 -50 8 -17 14 -36 14 -42 0 -6 4 -19 10 -29 5 -9
25 -52 45 -96 19 -43 50 -99 68 -125 17 -25 35 -48 38 -51 3 -3 18 -32 33 -65
16 -33 37 -70 48 -82 12 -13 18 -29 14 -40 -3 -10 -2 -34 4 -52 5 -19 6 -39 2
-45 -5 -6 -7 -30 -6 -52 1 -23 5 -51 9 -63 5 -18 13 -21 37 -19 18 2 36 11 42
23 6 11 14 22 17 25 3 3 11 21 17 40 6 19 18 62 27 96 8 33 15 92 15 130 0 38
-7 97 -15 131 -8 35 -24 91 -36 125 -11 35 -30 78 -41 96 -20 32 -20 32 0 32
11 0 42 -5 69 -11 29 -7 71 -28 103 -53 30 -23 61 -54 68 -68 7 -14 19 -75 27
-134 9 -60 13 -114 11 -121 -3 -6 2 -25 10 -42 8 -16 21 -32 29 -35 8 -3 21
-3 29 0 7 3 19 17 26 32 7 15 22 54 33 87 18 51 21 83 20 213 0 126 -3 156
-17 171 -9 9 -16 22 -16 28 0 6 -21 28 -46 49 -25 22 -54 43 -65 48 -10 5 -19
12 -19 15 0 4 19 5 43 3 30 -3 51 -13 75 -35 18 -18 40 -45 48 -62 9 -16 19
-50 22 -75 6 -36 12 -45 32 -50 14 -4 31 -5 38 -2 10 4 12 25 6 96 -4 59 -16
117 -33 164 -15 40 -39 86 -53 101 -15 16 -53 37 -90 48 -45 15 -81 20 -123
17 -33 -2 -78 -6 -100 -9 -22 -2 -73 -10 -112 -17 -40 -6 -75 -10 -77 -7 -2 2
-6 25 -8 50 -5 43 -4 45 17 41 17 -3 25 2 30 17 3 12 18 24 32 27 14 4 68 4
121 1 52 -4 100 -10 106 -15 6 -5 47 -19 91 -32 44 -12 87 -29 96 -36 8 -8 20
-14 25 -14 5 0 35 -24 66 -52 40 -38 66 -75 93 -130 20 -43 41 -80 45 -83 5
-3 14 -22 21 -43 6 -20 21 -47 32 -59 11 -13 28 -23 38 -23 11 0 22 13 29 34
6 20 8 57 5 88 -4 29 -18 89 -33 133 -14 44 -33 89 -42 100 -10 11 -21 31 -25
44 -7 23 -6 23 46 16 30 -4 80 -15 111 -25 35 -11 67 -29 82 -46 15 -16 35
-43 46 -60 11 -17 22 -46 24 -65 3 -19 9 -46 15 -62 6 -15 18 -30 26 -34 9 -3
27 -1 41 6 14 6 24 17 23 23 -2 7 3 31 9 53 7 22 12 54 12 70 0 17 -11 50 -25
74 -14 23 -25 55 -25 70 0 14 -6 38 -14 53 -10 19 -11 28 -3 30 7 2 28 3 47 2
19 -1 52 -2 73 -3 28 -1 45 -9 67 -31 16 -16 38 -30 48 -30 11 0 25 7 32 15
10 12 10 21 0 45 -7 16 -25 43 -42 60 -16 17 -40 35 -54 40 -14 6 -40 10 -58
10 -18 0 -46 4 -62 10 -16 5 -67 17 -114 25 -47 9 -130 21 -185 26 -55 6 -104
14 -109 19 -5 5 -2 19 7 34 9 14 38 34 63 45 26 12 53 21 61 21 7 0 24 6 36
14 12 7 54 22 92 31 39 10 74 22 79 27 6 4 21 8 35 8 15 0 50 9 79 20 29 11
61 20 72 20 11 0 20 4 20 10 0 5 17 12 38 16 20 4 48 13 62 20 14 8 43 18 65
23 22 5 67 7 100 5z m-1106 -336 c1 -5 1 -12 -2 -14 -3 -3 -16 -4 -29 -2 l-23
5 25 10 c15 6 26 7 29 1z m369 -49 c9 -1 28 -5 42 -9 20 -6 16 -8 -23 -9 -30
-1 -46 3 -42 9 3 6 14 10 23 9z m90 -109 c21 0 53 -5 71 -11 18 -6 38 -24 47
-41 l15 -29 -40 26 c-22 15 -58 29 -81 32 -22 3 -43 10 -46 14 -3 5 12 9 34 9z
m-1230 -111 c6 1 12 -6 12 -14 0 -8 -3 -15 -7 -15 -5 0 -19 3 -32 7 -23 6 -23
7 -5 14 10 4 25 8 32 8z m587 -79 c8 0 15 -4 15 -10 0 -5 -7 -7 -15 -4 -8 4
-15 8 -15 10 0 2 7 4 15 4z m-2267 -631 c30 0 84 -7 120 -16 37 -9 91 -27 121
-40 29 -14 76 -39 105 -58 28 -18 65 -47 81 -64 17 -17 36 -31 44 -31 8 0 29
-17 47 -37 19 -21 48 -60 65 -88 18 -27 42 -66 55 -85 12 -19 25 -51 29 -70 4
-19 16 -53 25 -75 10 -22 23 -67 29 -100 6 -33 14 -85 17 -115 4 -30 6 -68 4
-85 -1 -16 -4 -61 -6 -100 -2 -38 -8 -92 -14 -118 -5 -27 -16 -61 -24 -75 -9
-15 -22 -41 -30 -59 -9 -17 -29 -41 -45 -52 -16 -12 -32 -21 -36 -21 -3 0 -13
-7 -21 -15 -12 -11 -40 -15 -117 -15 -56 0 -136 7 -177 15 -41 8 -93 21 -115
29 -22 8 -78 33 -125 57 -47 23 -105 58 -130 78 -25 20 -73 65 -107 101 -35
36 -63 71 -63 78 0 6 -4 12 -10 12 -5 0 -10 7 -10 16 0 8 -11 30 -25 48 -14
18 -25 40 -25 49 0 11 8 17 21 17 12 0 35 6 52 14 18 8 93 35 167 60 74 25
145 46 156 46 13 0 25 10 32 25 7 14 12 32 12 38 0 7 -5 18 -12 25 -9 9 -19 7
-42 -7 -17 -10 -78 -35 -136 -56 -58 -20 -114 -41 -125 -45 -11 -4 -42 -15
-70 -25 -27 -10 -58 -18 -68 -19 -16 -1 -19 10 -23 89 -3 50 -1 117 5 150 5
33 16 87 24 120 8 33 22 86 30 117 8 32 19 63 24 70 6 7 14 28 18 46 4 18 28
55 54 84 39 42 59 55 107 69 32 9 83 17 112 18z"/>
<g>
<path d="M6559 13986 c-86 2 -159 1 -162 -3 -4 -3 -35 -7 -69 -9 -35 -1 -96
-7 -137 -12 -40 -6 -77 -15 -81 -21 -3 -7 -14 -9 -23 -5 -9 3 -33 0 -54 -7
-21 -7 -41 -12 -45 -11 -4 1 -27 -5 -50 -14 -24 -9 -54 -20 -68 -26 -14 -6
-33 -14 -42 -19 -10 -5 -27 -9 -37 -9 -11 0 -23 -5 -26 -10 -4 -6 -39 -26 -78
-44 -40 -19 -88 -37 -107 -41 -19 -4 -41 -11 -50 -16 -8 -5 -64 -30 -125 -57
-60 -27 -141 -68 -180 -92 -38 -23 -80 -51 -92 -63 -13 -11 -23 -26 -23 -33 0
-6 -6 -14 -14 -17 -8 -3 -30 -30 -50 -60 -20 -30 -36 -61 -36 -70 0 -9 -9 -21
-20 -27 -11 -6 -20 -19 -20 -29 0 -9 -15 -43 -32 -75 -18 -31 -43 -76 -55 -99
-13 -23 -23 -52 -23 -64 0 -12 -4 -23 -9 -25 -5 -1 -20 -39 -32 -83 -17 -63
-23 -115 -26 -240 -3 -127 -1 -171 12 -215 9 -30 20 -71 24 -90 4 -19 19 -53
32 -75 13 -22 31 -52 38 -67 8 -16 18 -28 22 -28 4 0 10 -11 13 -24 3 -13 22
-43 41 -66 19 -23 35 -45 35 -49 0 -4 21 -34 46 -67 25 -32 71 -76 102 -98 32
-22 62 -45 67 -52 6 -7 26 -24 45 -38 19 -14 58 -41 85 -60 28 -19 76 -48 107
-64 31 -17 112 -53 180 -81 68 -28 150 -58 183 -67 33 -9 76 -18 95 -19 19 -2
62 -8 95 -14 33 -5 103 -16 155 -25 52 -8 106 -18 120 -21 14 -3 88 -12 165
-20 77 -9 167 -20 200 -26 33 -6 117 -13 188 -16 90 -3 132 -2 142 7 9 7 51
11 117 10 57 -1 150 4 208 10 58 6 123 15 145 19 22 5 69 16 105 26 36 9 73
20 82 26 10 5 23 9 29 9 6 0 25 7 42 15 18 8 52 21 77 30 25 9 79 26 120 37
41 11 86 28 100 38 14 10 43 26 65 37 22 11 79 41 128 66 48 25 109 62 135 83
26 21 72 60 103 88 31 28 87 76 124 106 37 30 80 67 95 82 15 15 43 54 63 87
19 32 38 70 42 83 3 12 10 32 15 43 4 11 15 36 24 57 9 20 16 43 16 51 0 8 12
50 26 93 23 72 25 90 21 199 -3 82 -11 143 -25 192 -12 39 -45 118 -74 175
-29 57 -55 105 -59 108 -3 3 -10 16 -14 29 -4 14 -49 65 -100 115 -50 50 -109
100 -131 111 -21 11 -43 25 -49 32 -5 7 -55 33 -110 58 -55 26 -113 53 -129
61 -16 8 -35 14 -43 14 -7 0 -13 5 -13 11 0 5 -15 15 -32 21 -18 6 -82 36
-143 66 -60 30 -118 58 -127 63 -9 4 -57 20 -107 34 -49 14 -97 22 -105 19 -9
-4 -23 -1 -30 6 -8 6 -49 20 -91 30 -43 10 -107 20 -144 21 -36 2 -75 9 -86
16 -11 7 -38 13 -61 13 -23 0 -44 4 -46 10 -1 5 -28 14 -58 20 -30 6 -87 10
-126 9 -39 -1 -76 1 -83 5 -6 4 -33 5 -59 1 -28 -3 -61 -1 -78 6 -16 6 -99 13
-185 15z m-27 -83 c67 -2 195 -8 283 -13 95 -7 221 -23 310 -40 83 -17 179
-35 215 -40 36 -6 121 -25 190 -41 69 -17 166 -45 215 -61 50 -17 101 -38 115
-47 14 -10 57 -32 95 -51 39 -18 115 -54 170 -80 55 -26 126 -60 159 -75 32
-14 83 -43 115 -63 31 -19 88 -67 126 -106 39 -39 85 -93 103 -119 17 -26 32
-51 32 -56 0 -5 23 -54 50 -109 34 -68 55 -127 66 -182 9 -52 13 -110 10 -163
-3 -48 -15 -111 -29 -152 -13 -38 -32 -97 -42 -130 -10 -33 -33 -87 -51 -120
-18 -34 -64 -91 -103 -130 -39 -38 -79 -73 -89 -78 -9 -5 -21 -15 -27 -21 -5
-7 -42 -40 -81 -74 -40 -34 -103 -78 -140 -98 -38 -20 -87 -48 -109 -62 -22
-14 -65 -38 -95 -53 -30 -15 -84 -35 -120 -44 -36 -9 -78 -22 -95 -30 -16 -7
-50 -22 -75 -33 -25 -12 -92 -35 -150 -52 -58 -18 -142 -36 -188 -41 -45 -4
-86 -10 -91 -13 -5 -3 -51 -6 -102 -6 -52 -1 -155 1 -229 3 -74 2 -182 1 -240
-3 -72 -5 -130 -3 -185 6 -44 8 -123 17 -175 20 -52 3 -108 10 -125 15 -16 4
-79 15 -140 24 -60 9 -149 24 -196 35 -47 11 -114 30 -150 44 -35 13 -98 38
-139 55 -41 17 -84 37 -94 42 -11 6 -40 23 -65 37 -25 14 -62 37 -81 51 -19
15 -48 35 -65 46 -16 10 -45 33 -64 52 -19 18 -39 33 -46 33 -6 0 -27 17 -47
38 -20 20 -61 72 -92 116 -31 43 -63 94 -72 112 -9 19 -20 34 -24 34 -3 0 -20
26 -36 57 -15 31 -29 64 -31 72 -1 8 -6 24 -11 36 -6 11 -15 49 -20 85 -6 36
-14 93 -18 127 -4 37 -2 83 6 115 6 29 15 62 19 73 5 11 14 49 21 85 6 36 15
70 19 75 4 6 13 30 20 55 7 25 17 52 22 60 4 8 20 35 35 60 15 25 42 65 61 89
18 24 33 48 33 53 0 6 11 23 25 40 14 16 25 40 25 52 0 16 9 25 38 35 20 7 49
24 63 37 14 13 68 47 120 74 52 28 105 53 119 57 14 3 37 14 52 24 14 11 32
19 38 19 7 0 46 16 86 35 40 19 78 35 84 35 7 0 25 9 41 21 16 11 33 18 38 15
5 -3 14 0 20 8 7 8 27 17 45 20 19 4 40 13 47 22 7 8 18 13 25 10 7 -3 50 4
96 16 45 11 88 24 94 29 6 5 51 13 100 18 49 5 101 8 115 6 14 -2 31 0 37 4 5
3 66 5 134 4z"/>
<g>
<path d="M5880 13534 c-19 4 -41 2 -49 -3 -8 -5 -20 -7 -27 -4 -7 3 -27 -5
-43 -16 -16 -12 -33 -21 -38 -21 -4 0 -23 -24 -41 -54 -26 -44 -32 -65 -32
-112 0 -51 5 -66 36 -111 19 -28 50 -58 69 -67 21 -10 52 -15 83 -13 27 2 67
13 88 23 21 10 44 30 51 43 6 13 16 27 23 31 6 4 16 25 20 46 5 21 10 53 10
70 0 18 -7 55 -16 83 -14 41 -25 55 -58 75 -23 13 -57 27 -76 30z"/>
</g>
<g>
<path d="M7798 13420 c-58 0 -81 -4 -99 -19 -13 -10 -38 -25 -56 -34 -17 -9
-39 -31 -48 -49 -10 -20 -19 -66 -21 -113 -4 -69 -1 -86 18 -125 14 -28 40
-56 68 -75 40 -27 53 -30 116 -29 53 1 84 7 119 25 36 18 53 35 73 74 23 42
27 63 27 132 0 58 -5 86 -16 100 -8 10 -20 29 -27 43 -7 14 -28 35 -46 48 -26
18 -46 22 -108 22z"/>
</g>
<g>
<path d="M6863 12908 c-50 6 -76 4 -98 -7 -16 -7 -43 -25 -58 -40 -16 -14 -35
-40 -43 -56 -8 -17 -17 -42 -20 -55 -3 -14 -5 -31 -5 -37 0 -7 1 -32 2 -55 1
-24 10 -60 20 -80 11 -21 28 -42 38 -47 11 -7 23 -29 29 -58 6 -27 16 -75 22
-108 6 -33 13 -103 15 -155 3 -52 5 -99 6 -105 0 -5 -2 -19 -6 -31 -5 -14 2
-30 20 -52 15 -18 35 -32 45 -32 10 0 42 22 72 49 29 27 62 66 73 87 11 22 29
53 41 69 12 17 29 59 39 95 9 36 19 81 22 100 3 19 5 78 5 130 0 52 -5 115
-12 140 -6 25 -16 63 -21 85 -5 22 -20 58 -32 79 -12 22 -36 48 -54 58 -17 11
-62 22 -100 26z m-8 -95 c11 -2 32 -9 47 -15 15 -5 35 -22 44 -37 10 -14 24
-51 32 -81 8 -30 17 -85 19 -122 3 -37 -1 -98 -7 -135 -6 -38 -13 -78 -15 -90
-2 -11 -6 -32 -10 -45 -5 -12 -18 -36 -30 -53 -13 -16 -26 -39 -29 -50 -4 -11
-17 -28 -30 -37 l-23 -17 -6 122 c-3 67 -12 149 -21 182 -8 33 -17 75 -20 94
-2 18 -9 38 -15 44 -6 6 -11 18 -11 27 0 8 -12 28 -28 44 -22 24 -27 37 -24
70 3 23 13 51 25 64 11 12 35 26 51 31 17 5 40 7 51 4z"/>
</g>
</g>
</g>
<g>
<path d="M361 12858 c-8 3 -12 -1 -9 -9 2 -7 10 -15 17 -17 8 -3 12 1 9 9 -2
7 -10 15 -17 17z"/>
</g>
</g>
</svg>
