<?xml version="1.0" standalone="no"?>
<!DOCTYPE svg PUBLIC "-//W3C//DTD SVG 20010904//EN"
 "http://www.w3.org/TR/2001/REC-SVG-20010904/DTD/svg10.dtd">
<svg version="1.0" xmlns="http://www.w3.org/2000/svg"
 width="1102.000000pt" height="1511.000000pt" viewBox="0 0 1102.000000 1511.000000"
 preserveAspectRatio="xMidYMid meet">
<metadata>
Created by potrace 1.16, written by Peter Selinger 2001-2019
</metadata>
<g transform="translate(0.000000,1511.000000) scale(0.100000,-0.100000)"
fill="#000000" stroke="none">
<g>
<path d="M4835 14106 c-11 3 -26 0 -32 -7 -7 -7 -13 -23 -13 -34 0 -17 -16
-29 -77 -58 -43 -20 -94 -45 -113 -56 -19 -10 -92 -46 -161 -80 -69 -34 -129
-61 -133 -61 -4 0 -82 -36 -174 -81 -92 -44 -183 -87 -202 -94 -19 -7 -84 -36
-145 -65 -60 -28 -117 -56 -125 -61 -8 -5 -49 -25 -90 -45 -41 -20 -106 -51
-145 -69 -38 -18 -92 -43 -120 -55 -27 -11 -59 -25 -70 -30 -11 -4 -36 -15
-57 -24 -20 -9 -43 -16 -51 -16 -8 0 -70 -21 -138 -46 -68 -25 -140 -52 -159
-59 -19 -8 -71 -27 -115 -43 -44 -17 -143 -55 -220 -85 -77 -30 -180 -71 -230
-92 -49 -20 -124 -50 -165 -65 -41 -15 -113 -45 -160 -67 -47 -22 -126 -56
-175 -76 -50 -19 -108 -39 -130 -43 -22 -4 -83 -30 -135 -59 -52 -28 -117 -60
-143 -70 -26 -10 -53 -27 -59 -38 -8 -15 -5 -29 11 -62 18 -35 29 -45 64 -55
23 -6 96 -15 162 -19 75 -5 136 -15 163 -26 l43 -18 -3 -71 c-2 -55 -6 -71
-18 -71 -8 0 -30 -14 -48 -31 -21 -19 -33 -39 -30 -50 2 -12 13 -20 31 -22 16
-2 31 -10 34 -19 3 -8 7 -31 7 -51 1 -21 3 -67 4 -103 1 -36 8 -73 16 -84 7
-10 24 -19 37 -21 13 -1 27 -3 32 -3 4 -1 7 -18 7 -40 0 -21 -6 -43 -13 -49
-7 -6 -35 -12 -62 -14 l-50 -3 1 -95 c0 -52 8 -170 16 -262 9 -91 19 -171 22
-177 4 -6 20 -11 36 -11 16 0 31 -4 34 -9 3 -4 9 -34 12 -66 l7 -58 -44 8
c-24 4 -60 8 -79 9 -33 1 -35 -1 -35 -29 0 -22 5 -31 20 -33 11 -2 24 -7 28
-11 4 -5 10 -32 12 -62 2 -30 7 -101 11 -158 6 -80 11 -108 25 -122 10 -10 26
-15 36 -13 11 3 25 -1 32 -10 7 -8 11 -33 9 -58 l-3 -43 -56 -1 c-31 0 -60 -4
-66 -7 -7 -4 -9 -24 -6 -50 3 -23 11 -68 18 -99 7 -32 11 -67 8 -77 -3 -11 1
-37 8 -58 7 -21 12 -52 10 -68 -1 -17 2 -43 8 -58 8 -21 17 -27 41 -27 19 0
30 -5 30 -14 0 -8 -22 -19 -57 -27 l-58 -14 3 -140 c2 -77 8 -160 13 -185 6
-25 8 -63 5 -85 -4 -30 -1 -46 14 -65 13 -18 29 -25 52 -25 31 0 33 -2 41 -49
4 -27 6 -54 3 -61 -2 -7 -26 -15 -52 -18 -29 -3 -53 -12 -61 -22 -8 -13 -9
-23 -2 -36 5 -11 16 -19 25 -19 8 0 18 -10 23 -23 5 -13 12 -54 16 -92 4 -38
8 -109 9 -157 1 -67 5 -91 16 -98 8 -5 32 -10 52 -10 l37 0 5 -52 c3 -29 9
-84 13 -123 8 -66 9 -70 33 -70 l25 0 3 115 c1 63 6 118 10 122 4 4 25 10 47
14 22 3 43 8 47 10 3 2 9 17 13 33 3 16 -3 77 -15 136 -11 59 -22 111 -25 115
-3 5 -6 43 -7 85 0 41 -5 78 -10 81 -4 3 -8 14 -8 25 0 10 -4 19 -8 19 -5 0
-30 -6 -56 -14 -47 -14 -47 -14 -57 10 -5 14 -9 39 -9 55 0 26 3 29 34 29 25
0 40 7 55 26 14 18 19 35 15 57 -3 18 -12 61 -20 97 -8 36 -16 126 -17 200
l-2 135 -32 3 c-19 2 -33 9 -33 16 0 9 19 16 53 20 29 4 58 11 66 15 11 7 12
22 6 73 -5 34 -9 97 -10 138 -1 41 -7 102 -14 135 -6 32 -16 64 -22 70 -5 5
-27 10 -47 10 l-37 0 -3 58 c-3 57 -3 58 32 72 20 8 48 15 63 15 15 0 34 4 41
9 11 7 10 29 -4 127 -9 65 -19 149 -21 186 -3 42 -10 71 -19 79 -11 9 -23 9
-55 0 -21 -7 -44 -9 -49 -6 -6 3 -10 28 -10 54 l0 48 59 6 c33 3 65 8 72 12 9
6 10 49 6 169 -4 89 -11 215 -17 280 -6 78 -15 125 -24 134 -10 11 -18 11 -34
3 -11 -6 -28 -11 -36 -11 -12 0 -16 10 -16 40 0 31 4 40 18 42 9 0 22 2 27 3
6 2 22 3 38 4 23 1 27 5 22 24 -3 12 -9 83 -14 158 -6 74 -13 142 -16 151 -5
12 0 17 17 20 15 2 24 11 26 26 2 13 10 26 18 29 7 3 42 -4 76 -16 35 -11 88
-27 118 -35 30 -8 87 -20 125 -26 39 -7 79 -18 90 -25 12 -7 50 -17 85 -23 36
-6 79 -16 95 -23 17 -7 41 -14 55 -15 14 -1 57 -12 95 -24 39 -12 138 -37 220
-56 83 -19 186 -38 230 -43 44 -5 91 -14 105 -19 14 -5 50 -13 80 -17 30 -3
80 -13 110 -20 30 -8 113 -25 184 -39 71 -15 161 -26 200 -26 39 0 91 -5 116
-11 25 -6 59 -12 75 -14 17 -2 80 -13 140 -25 61 -12 166 -35 235 -51 69 -17
157 -36 197 -44 39 -7 137 -19 217 -26 80 -7 146 -16 146 -20 0 -3 -13 -9 -30
-12 -23 -5 -30 -12 -30 -30 0 -13 6 -29 12 -35 8 -8 14 -60 16 -153 l4 -141
29 -10 c24 -8 29 -15 29 -44 0 -19 -6 -36 -12 -39 -7 -2 -30 -6 -50 -10 -31
-5 -38 -10 -38 -28 0 -13 9 -30 20 -40 18 -15 20 -29 20 -145 0 -97 4 -137 16
-160 13 -27 21 -32 50 -32 31 0 34 -3 34 -29 0 -27 -4 -30 -52 -40 -28 -7 -58
-16 -65 -23 -7 -6 -13 -18 -13 -28 0 -10 10 -24 22 -32 17 -11 25 -32 35 -99
8 -46 17 -126 20 -177 l5 -92 32 -8 31 -8 0 -112 c0 -61 5 -115 10 -120 6 -5
23 -6 42 0 26 7 33 15 39 43 3 19 7 79 8 132 l1 98 43 13 c38 13 42 17 42 45
0 18 -7 102 -16 187 -10 93 -21 159 -28 165 -7 6 -15 16 -17 24 -3 8 -18 15
-33 17 -16 2 -35 5 -43 8 -9 4 -13 16 -11 33 2 22 11 30 53 44 50 17 50 18 49
61 0 24 -6 97 -13 163 -7 65 -17 127 -22 137 -6 12 -21 18 -44 18 -18 0 -40 3
-49 6 -9 4 -16 18 -16 33 0 15 6 35 13 44 6 9 28 17 47 19 32 3 35 6 43 46 6
29 3 67 -8 125 -10 45 -20 106 -24 135 -7 48 -6 52 13 52 12 0 59 -7 105 -15
46 -8 101 -20 122 -25 22 -6 56 -14 77 -19 20 -5 62 -13 92 -16 30 -4 88 -18
128 -31 40 -13 84 -24 98 -24 14 0 72 -9 127 -20 56 -12 138 -32 182 -45 44
-13 130 -33 190 -45 61 -12 139 -28 175 -37 36 -8 97 -21 136 -28 39 -8 89
-18 111 -24 22 -6 96 -15 164 -21 68 -5 187 -16 264 -24 77 -9 154 -20 170
-24 30 -8 30 -9 37 -98 4 -49 4 -104 1 -122 -4 -23 0 -39 12 -53 11 -11 26
-17 36 -14 9 3 20 2 23 -3 3 -5 8 -28 12 -50 6 -39 5 -42 -17 -42 -16 0 -31
11 -44 30 -11 17 -27 29 -35 28 -8 -2 -18 -21 -23 -46 -6 -31 -5 -48 4 -58 8
-10 13 -69 16 -182 2 -115 8 -176 17 -197 8 -16 19 -42 25 -57 6 -16 17 -28
25 -28 9 0 20 -9 26 -19 5 -11 10 -38 10 -60 0 -23 -5 -41 -10 -41 -6 0 -13 7
-16 15 -4 8 -17 15 -30 15 -14 0 -27 -7 -31 -15 -3 -9 -1 -41 6 -73 6 -31 13
-102 17 -157 3 -55 10 -127 16 -160 6 -33 10 -70 9 -82 -1 -13 -2 -40 -3 -60
-1 -21 2 -135 6 -253 5 -147 11 -217 19 -223 7 -4 32 -6 57 -5 l45 3 3 -42 c3
-40 2 -42 -27 -41 -16 1 -37 -6 -45 -15 -9 -8 -16 -24 -16 -34 0 -10 7 -29 16
-41 12 -18 15 -50 13 -175 -1 -85 1 -159 5 -165 4 -7 22 -12 41 -12 31 0 35
-4 44 -37 6 -21 11 -46 11 -55 0 -10 -5 -18 -10 -18 -6 0 -19 6 -30 12 -16 10
-22 10 -34 -2 -10 -11 -15 -47 -16 -135 -2 -66 -2 -140 -1 -165 1 -25 5 -51
10 -59 5 -8 29 -17 53 -20 41 -6 43 -8 46 -42 3 -35 2 -36 -39 -45 l-41 -9 -3
-140 c-1 -79 2 -145 8 -152 5 -7 27 -13 48 -13 l38 0 -1 -160 c0 -115 3 -164
12 -175 7 -8 20 -15 30 -15 10 0 22 6 28 13 8 9 8 39 0 103 -8 61 -9 113 -2
160 l9 69 45 3 c24 2 50 8 57 14 9 7 12 45 12 123 0 61 -3 125 -8 141 -4 16
-14 30 -22 30 -8 1 -35 2 -61 3 l-48 1 0 36 0 36 45 -6 c40 -7 45 -5 45 13 0
10 5 21 12 23 8 3 9 45 1 172 -6 95 -16 173 -22 179 -6 6 -11 20 -11 30 0 15
-5 18 -22 14 -13 -3 -36 -9 -51 -13 l-28 -7 3 49 c3 47 4 49 35 52 17 2 37 9
43 17 8 10 8 55 0 175 -6 89 -16 174 -21 188 -6 15 -10 28 -10 30 1 1 1 6 1
11 0 6 -17 11 -37 13 -37 3 -38 4 -41 46 -3 38 -1 42 19 42 12 0 30 7 39 15
13 12 14 27 8 92 -4 43 -12 133 -18 200 -5 67 -15 134 -20 148 -6 16 -17 26
-27 24 -10 -1 -24 -1 -30 0 -7 0 -13 8 -13 16 0 9 8 18 18 21 9 3 29 10 45 16
l27 10 0 199 c0 109 -4 200 -9 203 -4 3 -11 20 -15 37 -5 29 -9 31 -38 26 -18
-3 -43 -8 -55 -12 -22 -7 -23 -5 -23 45 l0 52 44 -6 44 -7 7 42 c4 23 4 99 0
168 -4 69 -8 153 -11 186 -2 33 -4 84 -4 113 l0 52 -35 0 c-29 0 -37 5 -46 27
-5 15 -8 37 -5 49 5 17 13 22 34 21 27 -2 27 -1 26 53 -1 30 -5 89 -9 130 l-7
75 40 60 c22 33 58 77 80 97 22 20 77 62 122 93 44 32 89 69 98 84 9 14 38 52
64 83 26 32 64 72 85 90 21 18 49 45 63 60 14 15 59 66 100 114 41 47 116 129
165 180 50 52 204 210 343 350 139 141 283 292 319 335 35 44 69 76 75 73 5
-4 7 -20 4 -38 -3 -17 -2 -47 2 -66 8 -35 8 -35 63 -35 51 0 54 -1 54 -25 0
-21 -6 -26 -42 -33 -27 -5 -47 -16 -54 -29 -9 -17 -6 -25 16 -48 22 -23 27
-39 33 -111 7 -83 7 -84 37 -89 20 -3 30 -11 30 -23 0 -10 -15 -25 -35 -35
-23 -11 -36 -25 -38 -41 -2 -13 2 -27 9 -31 7 -5 13 -19 15 -32 2 -12 9 -71
17 -130 8 -58 18 -112 22 -118 4 -6 18 -15 32 -21 21 -8 24 -14 21 -46 l-3
-38 -60 -3 c-32 -2 -65 -8 -72 -14 -7 -6 -13 -19 -13 -30 0 -13 11 -24 30 -31
24 -9 30 -18 34 -52 3 -22 8 -79 12 -127 l6 -87 34 -7 34 -6 0 -59 0 -58 -52
-3 c-46 -3 -54 -7 -68 -31 -14 -27 -14 -29 14 -52 28 -23 29 -24 33 -146 2
-68 6 -130 8 -136 2 -7 16 -13 30 -13 24 0 26 -3 23 -37 -3 -35 -6 -38 -38
-43 -20 -4 -41 -10 -48 -14 -7 -4 -12 -20 -12 -37 0 -22 5 -29 20 -29 13 0 25
-10 32 -27 6 -16 12 -77 12 -138 1 -60 5 -116 9 -122 5 -7 17 -13 27 -13 10 0
21 -9 25 -19 3 -11 3 -31 -1 -45 -5 -22 -12 -26 -44 -26 -21 0 -43 -6 -49 -14
-9 -10 -10 -30 -5 -63 4 -26 8 -76 8 -109 1 -44 6 -68 19 -81 9 -11 17 -34 17
-51 0 -27 4 -32 24 -32 13 0 27 -7 30 -16 3 -9 6 -45 6 -80 0 -36 5 -85 11
-110 8 -32 16 -44 30 -44 10 0 23 9 29 20 7 13 9 50 4 104 -4 47 -4 96 0 110
5 21 14 27 46 32 22 4 45 13 51 20 7 9 9 29 6 52 -4 20 -11 57 -16 82 -6 25
-10 75 -11 112 0 48 -5 71 -16 83 -9 9 -23 14 -30 11 -8 -3 -21 -9 -30 -12
-13 -6 -15 0 -12 31 2 21 10 42 18 46 8 5 32 15 53 23 37 15 37 15 37 73 0 32
-5 74 -11 93 -6 19 -10 72 -10 117 0 59 -4 85 -15 94 -9 7 -29 9 -53 5 -30 -5
-40 -2 -45 10 -3 9 -6 26 -6 38 0 18 9 25 38 34 20 6 55 15 77 19 31 7 40 13
40 30 0 12 3 24 7 28 3 4 -3 22 -14 42 -16 27 -23 60 -28 149 -4 63 -10 117
-13 120 -3 3 -22 1 -43 -5 -20 -6 -41 -8 -46 -5 -4 3 -8 27 -8 53 0 47 1 48
39 59 21 7 43 18 49 25 7 8 8 34 1 82 -6 39 -14 113 -19 165 -4 52 -9 97 -9
99 -1 2 -14 1 -31 -2 -29 -6 -30 -6 -30 34 0 36 3 40 30 45 16 4 35 13 41 20
8 10 10 40 5 97 -4 45 -12 123 -19 172 l-13 90 -39 0 c-26 0 -40 4 -39 13 1 6
2 16 3 21 0 5 15 11 31 15 20 4 30 11 30 24 0 10 5 23 12 30 9 9 8 18 -2 39
-7 16 -16 64 -19 108 l-6 80 -40 5 c-25 3 -41 11 -43 20 -1 9 12 24 29 34 l32
19 -6 103 c-4 57 -10 128 -13 159 -7 54 -6 55 33 92 21 21 84 82 140 136 72
70 106 111 118 142 12 32 13 49 6 63 -9 16 -33 20 -240 31 -127 6 -261 18
-298 26 -38 8 -113 19 -168 25 -55 6 -138 15 -185 20 -47 5 -112 16 -145 24
-33 9 -118 25 -190 36 -71 12 -170 23 -220 26 -49 2 -146 9 -215 15 -69 6
-154 17 -190 24 -36 8 -155 21 -265 29 -110 9 -236 21 -280 26 -44 6 -114 14
-155 20 -41 5 -111 12 -155 16 -44 3 -120 10 -170 15 -49 5 -115 10 -145 13
-30 2 -82 9 -115 16 -33 6 -114 18 -180 26 -66 8 -172 21 -235 29 -63 8 -158
21 -210 30 -52 8 -129 19 -170 24 -41 6 -118 17 -170 25 -52 8 -140 26 -195
40 -55 14 -145 33 -200 42 -55 9 -136 25 -180 36 -44 11 -89 22 -100 24z m50
-98 c22 -2 39 -7 39 -13 -1 -5 -36 -20 -77 -33 -55 -16 -78 -28 -82 -43 -4
-11 -4 -33 0 -49 5 -24 19 -35 72 -62 57 -28 76 -32 138 -31 40 0 81 6 93 12
11 6 26 27 32 46 7 20 9 48 5 63 -3 15 -18 40 -33 55 l-27 28 55 -6 c30 -3 87
-13 125 -22 39 -8 90 -21 115 -28 25 -7 59 -16 75 -19 17 -3 53 -8 80 -11 28
-3 113 -12 190 -19 77 -8 165 -22 195 -30 30 -9 72 -16 92 -16 21 0 70 -5 110
-11 40 -5 100 -14 133 -20 33 -5 98 -12 145 -15 46 -3 91 -9 100 -13 8 -5 83
-14 165 -20 83 -6 175 -14 205 -17 30 -4 66 -8 80 -10 14 -2 93 -10 175 -19
83 -9 202 -20 265 -25 63 -6 162 -14 220 -19 58 -5 164 -18 235 -30 72 -11
175 -22 230 -26 55 -3 129 -8 165 -10 36 -3 81 -8 100 -11 19 -3 118 -20 220
-39 102 -19 235 -41 295 -49 61 -9 142 -18 180 -22 39 -4 80 -10 93 -15 12 -5
22 -13 22 -19 0 -5 -6 -10 -14 -10 -7 0 -18 -12 -24 -27 -6 -16 -13 -48 -16
-73 -3 -25 -2 -50 2 -56 4 -6 27 -21 51 -34 37 -19 55 -21 103 -16 32 3 58 3
58 1 0 -3 -11 -10 -25 -15 -14 -5 -25 -16 -25 -23 0 -7 -30 -40 -67 -73 -37
-32 -115 -104 -173 -159 -57 -55 -251 -246 -430 -425 -180 -179 -369 -373
-421 -431 -52 -58 -123 -138 -159 -179 -36 -41 -76 -85 -88 -99 -13 -14 -49
-55 -80 -90 -32 -36 -86 -97 -121 -135 -35 -39 -68 -72 -72 -74 -5 -2 -9 18
-9 45 0 26 -4 53 -8 59 -4 5 -23 19 -42 31 -22 13 -55 21 -88 22 -29 1 -72 -4
-95 -10 -23 -6 -61 -19 -84 -30 -24 -12 -54 -34 -68 -51 -16 -19 -25 -42 -25
-65 0 -28 8 -43 37 -70 l36 -35 -59 7 c-32 3 -86 10 -119 16 -33 5 -130 21
-215 35 -85 13 -180 31 -210 39 -30 8 -101 26 -156 40 -56 13 -130 29 -165 34
-35 5 -154 23 -264 41 -110 17 -229 37 -265 45 -36 7 -112 23 -170 34 -58 11
-172 32 -255 46 -82 14 -193 34 -245 45 -52 11 -108 20 -125 20 -16 0 -77 9
-135 19 -58 11 -141 24 -185 31 -44 6 -96 15 -115 20 -19 5 -87 19 -150 30
-63 11 -151 27 -195 35 -44 9 -93 17 -110 19 -16 3 -70 12 -120 21 -49 8 -106
18 -125 21 -19 3 -80 14 -135 24 -55 11 -167 31 -250 46 -82 14 -187 31 -231
38 -45 8 -86 16 -92 20 -5 3 -42 13 -81 21 -39 8 -85 17 -103 20 -18 3 -51 9
-73 15 -22 5 -87 20 -145 34 -58 13 -121 27 -140 31 -19 4 -64 15 -100 25 -36
10 -107 27 -157 39 -51 12 -135 31 -185 42 -51 12 -124 33 -163 46 -38 14 -82
24 -97 24 -15 -1 -29 3 -32 8 -4 5 2 12 11 15 10 3 34 8 54 11 21 4 52 19 70
34 29 24 33 34 35 82 3 50 1 55 -37 91 -22 21 -49 38 -59 38 -11 0 -20 5 -20
10 0 6 21 20 48 31 26 12 81 34 122 51 41 16 98 40 125 53 28 13 79 36 115 50
36 14 79 33 97 41 17 8 38 14 46 14 9 0 19 5 22 10 3 6 13 10 21 10 9 0 48 14
87 32 40 17 95 40 122 50 28 11 64 23 80 28 17 5 66 22 110 40 44 17 109 40
145 52 36 11 90 29 120 40 30 11 69 28 86 39 17 10 37 19 44 19 6 0 117 52
245 115 128 63 238 115 245 115 6 0 24 8 38 18 15 9 70 37 122 61 52 24 102
47 110 51 8 4 35 18 60 32 25 14 72 35 104 47 33 12 98 42 145 66 47 24 143
71 213 104 70 33 137 63 150 66 13 3 34 15 48 26 17 13 38 18 65 17z m67 -99
c20 1 49 -4 63 -11 14 -6 25 -17 25 -24 0 -7 -4 -15 -8 -18 -4 -2 -27 -7 -51
-10 -25 -2 -56 1 -77 10 -19 8 -34 18 -34 23 0 4 10 13 23 19 12 6 39 11 59
11z m4433 -470 c11 0 32 -5 48 -12 l28 -12 -42 -47 c-23 -27 -45 -48 -50 -48
-5 0 -9 13 -9 29 0 16 -4 41 -9 55 -7 17 -7 26 2 30 7 2 21 5 32 5z m-162 -50
c4 1 22 -6 39 -15 l32 -17 -33 -29 c-28 -25 -39 -29 -79 -26 -45 3 -47 4 -47
33 0 26 5 31 40 41 22 7 44 13 48 13z m36 -470 c1 -6 1 -13 -2 -16 -3 -3 -11
-2 -17 2 -9 6 -9 10 1 16 8 5 15 4 18 -2z m-69 1 c14 0 17 -9 16 -46 -2 -26
-8 -49 -16 -54 -8 -5 -18 -6 -22 -4 -4 3 -8 24 -8 48 0 23 3 46 7 49 3 4 14 7
23 7z m-324 -170 c2 0 4 -4 4 -10 0 -5 -5 -10 -11 -10 -5 0 -7 5 -4 10 3 6 8
10 11 10z m-57 -75 c2 -3 -4 -14 -15 -26 -10 -11 -28 -26 -39 -31 -17 -9 -16
-6 5 18 14 16 29 32 35 36 5 4 11 5 14 3z m-6884 -30 c11 -2 28 -6 38 -10 9
-4 17 -13 17 -20 0 -7 -20 -20 -44 -29 -26 -10 -64 -16 -92 -14 -26 2 -49 8
-51 15 -2 6 7 19 22 29 14 9 40 20 58 24 17 4 41 6 52 5z m-222 -5 c5 0 5 -10
1 -22 -4 -13 -7 -47 -6 -76 2 -47 0 -53 -15 -49 -10 3 -45 13 -78 22 -33 9
-66 19 -72 21 -7 2 -13 10 -13 17 0 7 10 19 23 25 12 7 51 23 87 36 36 14 69
25 73 26z m7596 -45 c2 -2 5 -19 7 -37 2 -18 7 -40 9 -50 3 -9 2 -19 -3 -22
-6 -3 -14 0 -19 7 -6 6 -13 22 -16 34 -3 13 0 34 6 47 7 14 14 23 16 21z
m-611 -35 c1 0 2 -2 2 -4 0 -3 -7 -12 -16 -20 -8 -9 -21 -16 -27 -16 -7 0 -1
9 13 20 14 11 26 20 28 20z m-70 -70 c8 0 -9 -24 -36 -52 -28 -29 -63 -67 -79
-85 -15 -18 -46 -46 -68 -63 -22 -18 -56 -51 -76 -75 -20 -25 -51 -56 -68 -71
-18 -15 -34 -24 -37 -22 -2 3 31 42 74 87 43 45 81 78 85 75 4 -4 7 -1 7 6 0
8 42 55 93 106 50 51 98 93 105 94z m-6463 -185 c17 -2 70 -14 119 -25 49 -11
91 -22 94 -25 3 -3 -8 -5 -24 -5 -16 1 -56 7 -89 14 -33 7 -76 21 -95 30 -35
16 -35 16 -5 11z m7165 -25 c6 0 10 -12 11 -27 0 -16 8 -58 18 -95 9 -37 14
-73 10 -80 -6 -9 -11 -9 -18 -3 -5 6 -11 24 -13 40 -2 24 -8 31 -30 33 -16 2
-28 7 -28 11 0 5 9 11 20 14 17 4 20 14 20 56 0 28 5 51 10 51z m-6883 -40 c6
0 40 -7 75 -15 35 -9 88 -22 118 -31 30 -8 118 -28 195 -45 77 -16 172 -36
210 -44 39 -8 104 -21 145 -29 41 -9 98 -20 125 -25 28 -6 88 -17 135 -25 47
-8 117 -20 155 -26 39 -6 93 -16 120 -21 28 -4 100 -17 160 -28 61 -11 131
-23 158 -26 26 -3 47 -10 47 -15 0 -5 -36 -7 -82 -4 -46 3 -105 10 -131 15
-26 5 -63 9 -82 9 -19 0 -54 4 -77 10 -24 5 -90 19 -148 31 -58 12 -130 28
-160 36 -30 8 -86 19 -125 24 -38 5 -95 13 -125 19 -30 6 -77 15 -105 19 -27
5 -81 17 -120 26 -38 10 -93 26 -121 36 -29 10 -80 25 -115 35 -35 9 -81 18
-102 20 -21 2 -55 8 -75 14 -20 6 -48 17 -62 25 -14 8 -20 14 -13 15z m-635
-131 c4 0 5 -43 1 -96 -3 -54 -8 -100 -10 -103 -2 -2 -8 1 -12 8 -4 7 -8 34
-9 60 -1 26 -4 63 -8 84 -4 30 -2 37 13 41 10 3 21 5 25 6z m103 -1 c1 -2 5
-47 9 -100 7 -93 6 -98 -12 -98 -11 0 -23 7 -26 16 -3 9 -6 44 -6 78 0 40 6
69 16 84 9 13 17 22 19 20z m6338 2 c5 0 0 -13 -10 -30 -10 -16 -48 -62 -83
-102 -36 -40 -86 -95 -113 -122 -26 -27 -50 -46 -53 -43 -3 3 1 15 9 27 8 11
29 37 48 58 19 21 65 73 104 117 38 44 74 83 80 87 5 4 14 8 18 8z m-4009
-231 c11 1 17 -2 13 -5 -3 -3 -12 -4 -19 -1 -8 3 -5 6 6 6z m76 -12 c25 0 35
-2 23 -4 -13 -2 -33 -2 -45 0 -13 2 -3 4 22 4z m90 -17 c8 0 98 -14 199 -30
101 -17 187 -32 190 -34 3 -2 35 -7 71 -10 36 -4 70 -12 75 -17 7 -7 -33 -8
-120 -4 -71 4 -136 10 -145 15 -8 4 -35 11 -60 15 -25 4 -79 16 -120 27 -41
11 -82 24 -90 29 -13 7 -13 8 0 9z m4864 -40 c9 0 16 -8 16 -19 0 -10 7 -24
15 -31 8 -7 24 -10 35 -7 16 4 24 -1 31 -21 5 -14 9 -44 7 -66 -2 -28 -8 -41
-18 -41 -8 0 -18 17 -25 40 -5 22 -14 46 -18 53 -5 7 -17 10 -28 7 -13 -4 -19
-2 -19 8 0 8 -3 29 -6 46 -5 24 -3 31 10 31z m-1317 -23 c2 -3 -3 -17 -12 -30
-9 -14 -22 -28 -30 -31 -8 -3 -25 -27 -39 -53 -13 -26 -36 -59 -50 -72 -18
-17 -30 -21 -36 -15 -7 7 14 36 62 89 40 43 79 87 87 97 7 11 15 17 18 15z
m-6041 -117 c10 0 14 -13 14 -48 0 -27 7 -72 15 -101 12 -37 15 -83 12 -163
-3 -111 -3 -112 -30 -121 -15 -5 -35 -6 -44 -3 -13 5 -14 17 -9 69 4 34 9 85
12 112 4 34 1 56 -9 69 -9 12 -20 16 -34 12 -16 -5 -22 -18 -27 -59 -3 -28 -6
-83 -6 -120 0 -50 -3 -68 -12 -65 -7 3 -16 24 -20 49 -5 24 -4 56 1 70 5 14 5
48 0 78 -4 29 -9 84 -10 123 -2 51 2 72 12 79 8 5 22 9 32 9 11 0 24 -13 33
-36 10 -24 20 -34 32 -32 12 2 18 15 20 41 2 24 8 37 18 37z m3200 0 c8 0 12
-4 9 -10 -3 -5 -10 -10 -16 -10 -5 0 -9 5 -9 10 0 6 7 10 16 10z m2341 -81
c28 0 58 -2 67 -5 9 -3 16 -14 16 -24 0 -9 -8 -26 -18 -38 -10 -11 -38 -28
-63 -36 -24 -9 -55 -16 -69 -16 -14 0 -44 9 -67 20 -24 10 -43 24 -43 30 0 5
9 19 20 30 11 11 30 22 42 24 13 3 32 7 43 9 11 3 43 5 72 6z m-1310 -39 c12
0 43 -4 70 -9 26 -6 80 -15 118 -21 39 -6 84 -15 100 -20 17 -5 82 -20 145
-34 63 -13 149 -32 190 -40 41 -9 101 -19 133 -22 32 -3 70 -10 85 -14 20 -7
5 -9 -53 -9 -44 1 -131 9 -193 20 -62 10 -155 30 -207 44 -52 14 -104 25 -116
25 -11 0 -78 14 -147 31 -70 17 -131 35 -136 40 -6 5 -2 9 11 9z m-1038 -25
c6 -3 13 -25 16 -48 4 -24 5 -56 3 -73 l-3 -29 -15 30 c-9 17 -25 31 -37 33
-11 2 -23 13 -27 24 -3 12 -1 28 3 36 6 10 10 11 15 4 4 -6 13 -9 21 -5 8 3
15 12 15 20 0 8 4 12 9 8z m2430 -92 c3 -2 -9 -18 -26 -34 -24 -25 -34 -29
-48 -22 -15 9 -11 14 26 35 24 13 46 23 48 21z m-473 -53 c19 0 33 -4 30 -8
-3 -5 -19 -7 -36 -4 -16 2 -30 6 -30 8 0 2 16 4 36 4z m2298 -40 c8 0 16 -6
19 -12 2 -7 2 -19 -1 -25 -2 -7 -10 -13 -18 -13 -8 0 -14 10 -14 25 0 15 6 25
14 25z m-93 -22 c8 -3 16 -13 18 -24 2 -10 8 -25 14 -32 7 -9 23 -11 52 -6
l42 6 7 -57 c3 -31 4 -61 1 -66 -4 -5 -19 -9 -36 -9 -26 0 -29 3 -29 34 0 18
-7 39 -15 46 -13 10 -19 10 -35 -5 -20 -18 -20 -17 -20 26 0 24 -3 55 -7 68
-4 18 -2 22 8 19z m-1839 -88 c14 0 33 -9 43 -20 9 -10 15 -26 12 -35 -4 -8
-13 -15 -21 -15 -8 0 -19 -8 -25 -17 -5 -10 -12 -16 -14 -13 -3 3 -8 26 -12
53 -7 45 -6 47 17 47z m-2302 -110 c12 0 22 -11 28 -32 6 -18 13 -70 16 -115
4 -59 2 -83 -7 -86 -7 -2 -17 3 -24 12 -7 9 -13 26 -13 39 0 12 -6 22 -13 22
-7 0 -18 -5 -25 -12 -7 -7 -12 -27 -12 -45 0 -21 -5 -33 -14 -33 -7 0 -17 6
-22 13 -5 6 -8 61 -6 120 2 77 7 107 15 104 7 -2 17 -21 23 -43 6 -22 17 -39
25 -39 8 0 15 10 17 23 2 13 -2 29 -8 37 -6 8 -9 19 -5 25 3 5 15 10 25 10z
m-3203 -130 c8 0 15 -6 17 -12 2 -7 11 -62 21 -121 10 -63 13 -113 8 -118 -5
-5 -22 -11 -39 -15 l-31 -6 -9 63 c-6 42 -15 65 -27 73 -15 9 -21 7 -33 -8 -8
-12 -14 -43 -14 -75 0 -33 -4 -51 -9 -45 -5 5 -16 34 -24 64 -9 31 -14 83 -13
120 3 54 6 65 21 65 11 0 21 -13 29 -35 8 -25 17 -35 31 -35 15 0 21 8 23 30
2 17 11 36 20 43 8 6 22 12 29 12z m7377 -137 c8 -18 18 -33 22 -33 4 0 16 7
26 17 10 9 18 22 18 30 0 7 4 13 9 13 5 0 11 -10 15 -22 3 -13 9 -65 13 -115
6 -92 6 -93 -17 -93 -20 0 -22 4 -18 38 3 21 -1 49 -9 65 -7 15 -18 27 -23 27
-5 0 -13 -8 -19 -17 -5 -10 -11 -16 -14 -13 -2 3 -7 34 -11 70 -6 63 -6 64 8
33z m-1881 -63 c26 0 27 -2 27 -60 0 -47 4 -62 16 -67 11 -4 22 1 30 12 8 10
14 38 14 61 0 24 4 45 9 49 5 3 12 -3 15 -12 3 -10 8 -93 12 -185 5 -115 3
-168 -4 -168 -6 0 -18 3 -26 6 -14 5 -15 17 -10 68 3 36 1 73 -5 89 -7 19 -17
27 -28 25 -12 -2 -20 -18 -25 -48 -5 -25 -6 -55 -3 -67 3 -13 1 -23 -4 -23 -6
0 -15 9 -20 19 -6 10 -14 82 -17 160 l-7 141 26 0z m-2253 -140 c5 0 14 -9 20
-20 6 -12 13 -44 16 -73 3 -29 9 -67 15 -85 6 -17 8 -45 4 -61 -3 -16 -12 -34
-19 -40 -9 -7 -18 2 -36 34 -14 25 -29 45 -34 45 -5 0 -17 -7 -27 -16 -16 -14
-18 -13 -23 13 -3 15 -10 62 -16 103 -5 46 -5 79 0 84 6 5 12 7 15 4 3 -3 9
-25 13 -49 7 -38 11 -44 32 -44 23 0 25 4 26 45 1 25 2 48 3 53 0 4 5 7 11 7z
m-3345 -210 c18 0 25 -5 25 -18 0 -11 9 -27 21 -38 16 -14 24 -16 37 -7 10 6
16 22 15 37 -1 14 2 26 6 26 4 0 13 -27 20 -60 8 -33 11 -76 8 -95 -3 -19 -1
-51 5 -72 8 -31 7 -39 -8 -50 -10 -7 -29 -13 -42 -13 -24 0 -25 1 -19 64 4 44
2 69 -7 81 -7 9 -21 16 -32 13 -14 -2 -21 -16 -27 -57 -5 -29 -13 -49 -17 -45
-5 5 -9 29 -11 54 -1 25 -2 75 -1 113 2 64 3 67 27 67z m7556 -40 c4 0 9 -6
12 -14 3 -7 9 -50 12 -95 6 -58 4 -81 -4 -81 -6 0 -11 17 -11 39 0 22 -7 46
-15 55 -9 8 -22 13 -30 9 -9 -3 -18 -17 -21 -32 -3 -14 -9 -37 -14 -51 -6 -19
-9 -9 -14 45 -4 39 -9 81 -12 93 -3 17 -1 23 8 20 7 -3 14 -14 16 -25 2 -12
10 -24 18 -27 9 -3 20 -4 25 0 5 3 9 15 9 28 0 12 3 26 7 29 3 4 10 7 14 7z
m-1814 -241 c7 1 14 -21 18 -51 4 -29 3 -98 -2 -153 -7 -83 -11 -100 -25 -103
-16 -3 -18 5 -15 74 1 52 -2 78 -10 81 -6 2 -17 -6 -24 -19 -7 -12 -12 -49
-12 -80 1 -32 -3 -60 -8 -63 -4 -3 -12 3 -18 13 -5 10 -15 72 -20 138 -6 65
-11 126 -10 134 0 8 7 3 15 -12 8 -16 21 -28 29 -28 8 0 21 13 30 29 8 16 20
31 27 34 7 3 18 6 25 6z m-5754 -202 c7 -2 18 -16 26 -31 11 -23 18 -27 42
-24 16 3 29 2 30 -1 0 -3 4 -40 8 -81 5 -41 14 -101 20 -133 7 -33 10 -65 7
-73 -3 -8 -17 -14 -31 -14 l-25 0 0 108 c0 59 -4 113 -9 121 -7 11 -15 12 -33
4 -22 -9 -23 -15 -24 -117 -1 -59 -4 -109 -7 -112 -3 -3 -11 4 -17 17 -8 14
-13 76 -14 168 0 80 3 152 7 159 5 7 14 11 20 9z m5671 -197 c11 0 16 -10 16
-31 0 -20 -4 -29 -12 -27 -7 3 -14 17 -16 31 -2 19 1 27 12 27z m-1 -130 c12
0 17 -9 17 -30 0 -16 5 -41 12 -55 9 -21 18 -25 41 -23 27 3 31 -1 39 -30 5
-19 8 -55 6 -80 l-3 -47 -23 38 c-15 26 -28 37 -40 35 -14 -3 -17 -14 -17 -58
0 -44 -3 -55 -17 -58 -15 -3 -18 4 -18 40 0 24 -3 94 -7 156 -5 100 -4 112 10
112z m-5505 -281 c8 1 12 -15 12 -47 0 -27 3 -52 7 -56 4 -4 15 -44 25 -89 9
-45 17 -94 18 -109 0 -24 -4 -28 -30 -28 l-30 0 0 70 c0 40 -4 70 -10 70 -5 0
-10 9 -10 21 0 16 -5 20 -27 17 l-28 -3 3 -87 c3 -74 1 -88 -11 -88 -9 0 -18
4 -21 8 -2 4 -10 64 -16 132 -6 69 -13 133 -16 143 -4 13 0 17 19 17 16 0 26
-7 30 -20 3 -12 14 -20 26 -20 17 0 21 6 21 29 0 16 6 32 13 34 6 3 18 6 25 6z
m5652 -279 c5 -8 10 -21 10 -28 0 -7 -4 -10 -10 -7 -5 3 -10 16 -10 28 0 18 2
19 10 7z m-80 -31 c4 -8 11 -32 15 -54 4 -22 11 -48 16 -57 5 -10 19 -18 30
-18 16 0 18 5 13 25 -4 15 -2 25 5 25 7 0 11 -27 10 -77 0 -74 -1 -77 -16 -55
-8 12 -21 22 -29 22 -7 0 -18 -9 -24 -20 -6 -11 -15 -20 -19 -20 -5 0 -12 42
-16 93 -3 51 -3 105 1 121 5 20 9 24 14 15z m124 -482 c6 -2 14 -53 19 -118 4
-62 5 -119 2 -126 -2 -7 -11 -13 -20 -13 -10 0 -15 10 -15 28 0 15 -5 33 -10
38 -7 7 -5 23 6 49 12 30 13 44 5 57 -6 10 -11 31 -11 46 0 16 3 32 7 36 4 3
12 5 17 3z m-94 -34 c5 -4 11 -30 14 -58 4 -27 6 -72 6 -100 -1 -27 -3 -51 -5
-53 -2 -2 -13 -1 -26 3 -21 7 -22 11 -16 101 3 51 8 98 12 104 4 7 11 8 15 3z
m103 -453 c14 0 30 -6 36 -14 7 -8 11 -37 9 -67 -2 -29 -8 -54 -13 -56 -6 -2
-15 7 -20 19 -6 13 -18 24 -28 26 -10 2 -24 -2 -32 -8 -8 -7 -15 -21 -15 -31
0 -11 -7 -19 -15 -19 -12 0 -15 14 -15 66 l0 66 29 -7 c21 -4 30 -2 34 9 4 9
17 16 30 16z"/>
</g>
<g>
<path d="M4936 10200 c-22 -1 -57 -9 -76 -20 -19 -10 -52 -33 -73 -52 -36 -31
-38 -35 -27 -65 7 -18 18 -33 26 -33 7 0 32 20 54 43 22 24 59 52 82 62 24 10
48 23 55 28 6 4 9 15 6 23 -3 9 -20 14 -47 14z"/>
</g>
<g>
<path d="M5339 10160 c-15 0 -29 -7 -33 -16 -3 -9 -2 -23 2 -31 5 -8 33 -27
63 -42 31 -16 60 -40 70 -57 9 -16 24 -29 35 -29 12 0 20 8 22 24 2 12 1 34
-2 47 -4 13 -16 33 -29 45 -12 12 -40 30 -62 40 -22 10 -52 19 -66 19z"/>
</g>
<g>
<path d="M9511 10000 c-22 0 -44 -6 -51 -15 -6 -8 -10 -22 -8 -31 2 -12 22
-22 66 -32 55 -13 65 -14 73 -1 5 8 9 23 9 35 0 13 -10 25 -25 32 -14 7 -43
12 -64 12z"/>
</g>
<g>
<path d="M4724 9960 c-6 6 -17 5 -31 -5 -11 -8 -28 -32 -36 -53 -9 -22 -23
-42 -32 -46 -9 -3 -48 -3 -88 0 -40 4 -106 1 -147 -5 -59 -9 -106 -27 -216
-82 -77 -38 -159 -85 -181 -104 -23 -19 -46 -35 -51 -35 -6 0 -44 -34 -86 -75
-41 -41 -82 -88 -91 -105 -9 -18 -31 -51 -50 -75 -18 -24 -45 -69 -59 -99 -14
-30 -26 -61 -26 -68 0 -8 -9 -31 -20 -53 -11 -22 -20 -45 -20 -52 0 -7 -8 -29
-19 -50 -11 -23 -23 -83 -30 -148 -10 -91 -10 -131 3 -235 8 -69 22 -150 32
-180 9 -30 26 -84 37 -120 11 -36 36 -96 56 -135 19 -38 56 -99 80 -135 25
-36 71 -90 101 -120 31 -30 80 -76 110 -101 30 -25 87 -64 126 -87 38 -23 75
-42 82 -42 6 0 26 -9 44 -20 19 -11 67 -24 108 -31 41 -6 156 -11 255 -11 171
-1 183 1 235 24 30 13 71 31 90 38 19 8 60 29 90 47 30 18 58 33 63 33 4 0 7
-34 7 -76 0 -70 2 -79 26 -101 21 -19 25 -29 19 -51 -4 -15 -7 -28 -8 -29 -1
-1 -42 -3 -90 -4 -58 -2 -91 1 -99 9 -7 7 -23 12 -38 12 -14 0 -32 -6 -41 -13
-9 -7 -19 -36 -23 -71 -3 -32 -17 -86 -30 -120 -12 -34 -27 -74 -33 -91 -6
-16 -27 -68 -47 -114 -19 -46 -43 -95 -53 -110 -9 -14 -19 -35 -20 -46 -2 -11
-11 -42 -20 -70 -9 -27 -29 -79 -45 -113 -15 -35 -28 -71 -28 -79 0 -8 -11
-28 -25 -45 -14 -16 -25 -38 -25 -48 0 -10 10 -36 22 -57 12 -21 34 -54 49
-73 14 -19 37 -69 49 -110 13 -41 41 -109 64 -150 23 -41 52 -97 64 -125 11
-27 33 -80 47 -116 14 -36 25 -72 25 -81 0 -8 13 -32 30 -54 16 -21 30 -45 30
-52 0 -7 9 -41 20 -75 12 -34 29 -78 38 -97 9 -19 25 -46 35 -59 9 -13 17 -33
17 -45 0 -14 -34 -54 -97 -115 -54 -51 -130 -115 -168 -141 -39 -26 -77 -56
-85 -65 -8 -10 -33 -26 -56 -36 -24 -10 -45 -27 -49 -38 -3 -12 -3 -26 0 -31
4 -6 10 -24 15 -40 8 -28 5 -32 -33 -59 -23 -16 -60 -39 -82 -51 -22 -13 -60
-35 -85 -49 -25 -13 -47 -28 -50 -32 -3 -4 -59 -39 -125 -78 -66 -39 -129 -78
-140 -86 -11 -8 -40 -30 -65 -48 -25 -18 -70 -47 -100 -65 -30 -17 -70 -46
-89 -64 -19 -18 -47 -40 -61 -48 -15 -8 -59 -41 -96 -73 -38 -32 -85 -67 -104
-77 -19 -10 -48 -33 -65 -50 -16 -18 -72 -64 -123 -104 -52 -39 -129 -96 -172
-126 -43 -30 -116 -83 -162 -117 -45 -35 -94 -71 -108 -81 -14 -11 -50 -33
-81 -49 -31 -17 -68 -33 -82 -37 -14 -3 -38 -16 -54 -29 -15 -13 -53 -36 -83
-51 -30 -16 -68 -38 -85 -50 -16 -13 -37 -25 -45 -28 -8 -3 -53 -29 -99 -57
-46 -28 -90 -51 -97 -51 -6 0 -15 20 -18 45 -4 25 -4 78 -1 117 3 40 11 103
17 140 9 52 8 71 -1 82 -7 8 -27 16 -44 18 -24 2 -33 9 -37 28 -4 14 -5 30 -2
37 3 8 17 10 46 7 39 -6 44 -4 49 17 3 12 3 113 0 223 -3 111 -10 207 -16 213
-5 7 -29 13 -54 13 l-44 0 3 37 c3 34 6 38 41 46 28 7 39 15 43 34 4 14 4 123
2 241 -5 193 -8 217 -24 229 -10 7 -30 13 -46 13 -26 0 -28 3 -28 38 0 20 4
43 9 50 4 8 27 16 49 19 23 3 48 13 57 23 14 15 14 27 5 86 -6 37 -11 98 -11
135 0 37 3 88 6 113 4 25 4 61 1 80 -7 34 -8 35 -59 38 l-52 3 -3 63 c-2 34 0
62 5 63 4 0 21 3 38 5 16 3 35 10 41 15 9 7 11 64 10 197 -1 103 -5 193 -10
200 -6 10 -22 11 -61 7 -49 -7 -53 -5 -58 17 -4 12 -7 40 -7 60 0 32 3 37 29
43 15 3 32 5 37 4 5 -1 15 -1 23 0 7 0 11 7 8 15 -3 7 -1 18 5 24 7 7 6 16 -1
30 -7 13 -11 103 -12 242 -1 209 -2 223 -22 255 -12 19 -29 34 -38 35 -14 0
-19 16 -25 83 -5 45 -8 95 -9 112 0 27 4 30 45 38 25 5 49 12 53 16 4 5 3 102
-2 217 -7 132 -16 227 -26 258 -8 28 -21 54 -28 58 -6 5 -28 6 -48 2 -33 -5
-37 -3 -47 23 -6 15 -13 72 -17 127 -3 54 -11 109 -17 122 -8 17 -18 24 -32
22 -19 -3 -21 -9 -20 -83 1 -44 5 -113 9 -154 l8 -74 -45 7 c-34 5 -48 3 -57
-8 -10 -11 -9 -50 4 -183 8 -92 17 -195 20 -228 3 -33 7 -77 11 -98 4 -28 12
-41 30 -47 13 -5 37 -7 54 -4 25 5 30 3 34 -17 3 -13 7 -61 11 -106 l5 -82
-37 2 c-33 2 -38 -1 -41 -21 -2 -12 -12 -28 -23 -35 -10 -6 -19 -21 -19 -32 0
-11 9 -25 19 -32 15 -10 20 -30 26 -105 5 -51 8 -121 7 -155 0 -34 -8 -86 -18
-116 -9 -30 -14 -62 -11 -70 3 -8 21 -17 41 -21 30 -6 36 -12 41 -39 4 -18 5
-51 3 -72 -3 -36 -6 -40 -31 -41 -15 -1 -33 -6 -39 -12 -6 -6 -11 -43 -11 -84
1 -40 4 -124 7 -187 4 -63 12 -121 18 -128 7 -9 27 -13 52 -11 l41 3 3 -72 c3
-72 2 -73 -22 -73 -14 0 -28 5 -31 10 -3 6 -14 10 -24 10 -16 0 -19 -15 -29
-117 -5 -64 -8 -122 -5 -129 2 -7 -1 -56 -7 -109 -9 -74 -9 -99 0 -111 8 -9
32 -14 71 -14 57 0 59 -1 61 -27 0 -16 0 -39 -1 -53 -1 -14 -7 -29 -12 -34 -5
-6 -20 1 -39 19 -25 24 -34 27 -48 19 -12 -8 -17 -24 -16 -60 0 -27 2 -140 4
-252 2 -160 6 -206 17 -218 8 -8 32 -14 53 -14 25 0 40 -5 44 -16 3 -9 6 -24
6 -34 0 -10 -5 -22 -11 -26 -6 -3 -22 -1 -35 6 -20 11 -27 11 -44 -5 -17 -16
-20 -32 -21 -124 -1 -58 -2 -151 -3 -206 l-1 -100 54 -8 c30 -4 57 -9 59 -12
2 -2 7 -24 9 -50 3 -25 2 -45 -2 -45 -4 0 -18 12 -32 26 -13 14 -31 24 -41 22
-14 -3 -17 -16 -18 -78 -1 -41 -3 -136 -5 -212 l-4 -136 29 -23 30 -23 -25 -6
c-19 -5 -24 -13 -25 -41 0 -19 -1 -42 -2 -51 -1 -10 -17 -24 -35 -31 -22 -10
-37 -11 -49 -4 -12 8 -23 6 -43 -9 -15 -10 -37 -24 -48 -31 -11 -6 -23 -16
-27 -23 -4 -6 -31 -28 -60 -48 -29 -20 -51 -40 -49 -44 2 -3 -6 -17 -17 -30
-12 -13 -27 -34 -34 -46 -9 -19 -9 -30 0 -53 7 -16 9 -44 6 -63 -4 -18 -2 -45
3 -58 7 -18 30 -33 86 -57 42 -17 99 -36 126 -41 28 -5 103 -26 167 -46 64
-20 146 -50 182 -66 36 -16 81 -37 100 -45 19 -8 46 -21 60 -28 14 -7 52 -23
85 -35 33 -12 132 -46 220 -75 88 -30 179 -63 202 -74 22 -11 81 -32 130 -46
48 -14 113 -34 143 -44 30 -11 80 -26 110 -35 30 -8 116 -32 190 -52 74 -20
180 -50 235 -67 55 -17 159 -50 230 -73 72 -23 148 -46 170 -50 22 -3 45 -10
50 -14 6 -5 37 -13 70 -19 33 -6 89 -16 125 -22 36 -6 76 -12 90 -13 14 -1 78
-28 143 -60 65 -31 143 -66 175 -77 31 -11 104 -36 162 -55 58 -18 125 -41
150 -50 25 -9 67 -25 94 -35 26 -10 69 -21 95 -25 25 -4 46 -6 46 -4 0 2 14
-4 30 -12 17 -8 45 -18 63 -22 19 -3 62 -19 95 -34 34 -16 78 -36 97 -45 19
-8 78 -31 130 -49 52 -19 118 -42 145 -51 28 -9 111 -30 185 -48 74 -17 149
-38 167 -45 17 -8 35 -14 41 -14 5 0 49 -13 98 -29 49 -16 116 -34 149 -40 33
-6 105 -26 160 -43 55 -17 109 -34 120 -39 11 -4 74 -24 140 -44 66 -20 167
-51 225 -70 58 -18 112 -33 120 -33 8 -1 40 -9 70 -20 30 -11 82 -23 115 -27
33 -5 62 -9 65 -10 3 -1 23 -6 45 -12 22 -6 65 -17 95 -23 30 -7 82 -20 115
-30 33 -10 94 -27 135 -39 41 -12 78 -21 82 -21 4 0 26 25 49 55 23 31 54 79
68 108 15 29 44 79 65 112 22 33 54 87 71 120 18 34 53 113 78 175 25 63 58
142 73 175 15 33 44 109 65 169 21 59 46 120 56 135 10 14 25 42 34 61 8 19
19 48 23 63 4 16 21 53 39 83 18 30 44 76 59 102 15 26 39 72 54 102 15 30 51
97 81 148 29 51 62 105 72 120 10 15 38 60 62 100 24 40 64 106 89 147 25 40
58 93 74 117 16 23 48 72 71 108 24 36 48 76 55 90 7 14 21 34 30 45 10 11 47
68 83 126 36 59 89 140 120 180 30 41 62 81 71 89 10 7 26 30 36 50 10 20 38
58 63 86 24 27 52 65 62 84 9 19 34 58 55 85 20 28 51 79 69 114 28 58 31 71
31 160 0 53 -3 106 -6 119 -4 12 -18 29 -33 36 -14 7 -57 19 -96 26 -38 7 -76
14 -82 16 -7 2 -13 17 -13 34 0 17 -7 46 -14 65 -8 19 -12 35 -8 36 4 0 17 2
30 3 12 2 28 8 34 14 9 9 8 28 -1 78 -8 36 -15 109 -16 162 -2 54 -4 102 -4
109 -1 6 -10 14 -21 18 -10 3 -28 1 -39 -4 -14 -8 -22 -7 -29 2 -5 6 -11 28
-12 47 -2 19 -2 43 -1 53 1 13 10 17 41 17 29 0 42 5 47 18 4 9 7 33 6 52 0
19 -3 89 -5 155 -3 66 -8 128 -13 138 -5 12 -18 17 -45 17 -31 0 -39 4 -44 23
-3 12 -6 30 -6 40 0 12 8 17 29 17 16 0 33 6 39 13 7 8 10 85 9 214 -1 142 -6
206 -14 214 -7 7 -29 15 -50 18 -37 6 -38 7 -41 54 -2 27 2 55 8 63 10 12 15
12 33 -1 12 -8 29 -15 39 -15 13 0 18 8 18 28 0 15 -5 83 -11 152 -6 69 -15
151 -21 183 -7 36 -17 61 -26 65 -9 3 -18 0 -20 -6 -2 -7 -9 -12 -17 -12 -7 0
-15 19 -19 50 -4 28 -4 55 0 61 3 6 16 8 28 5 11 -3 27 -1 35 3 11 7 11 29 2
127 -6 66 -9 152 -6 191 4 45 2 81 -5 94 -9 15 -18 19 -36 15 -13 -3 -36 -9
-50 -12 -25 -6 -25 -5 -22 41 2 36 8 50 23 58 11 6 27 13 35 17 11 6 14 21 12
56 -2 27 -9 121 -15 209 l-12 160 -35 5 c-30 4 -35 10 -42 40 -4 19 -5 41 -2
49 3 10 16 12 53 7 36 -5 51 -3 60 8 9 11 11 55 5 173 -3 87 -11 166 -16 176
-5 10 -20 17 -38 17 -17 0 -31 5 -31 10 -1 6 -1 17 -1 25 0 8 0 19 1 24 0 6
13 3 29 -5 15 -7 30 -14 33 -14 3 0 11 12 18 26 6 14 9 29 6 34 -3 4 -5 87 -6
184 0 97 -5 178 -10 182 -5 3 -9 16 -9 30 0 23 -3 24 -35 18 -29 -5 -35 -3
-35 11 0 9 5 25 11 37 9 16 17 19 43 14 27 -5 35 -2 54 23 18 24 20 34 11 63
-5 18 -8 94 -7 168 1 94 -2 142 -11 158 -10 18 -19 23 -44 20 l-32 -3 -1 140
0 140 -27 3 c-22 3 -27 -2 -37 -35 -7 -21 -14 -84 -17 -141 -3 -56 -10 -105
-15 -108 -5 -3 -16 0 -24 7 -11 9 -18 9 -26 1 -6 -6 -11 -26 -10 -44 1 -18 1
-108 2 -200 0 -93 3 -168 7 -169 5 0 16 -2 26 -4 10 -2 25 -6 33 -9 11 -4 13
-13 8 -28 -4 -13 -15 -29 -25 -36 -11 -7 -19 -19 -19 -26 0 -7 -11 -18 -25
-24 -19 -9 -25 -19 -25 -42 0 -16 4 -30 9 -30 5 0 16 -6 23 -13 10 -10 12 -36
7 -108 -4 -52 -8 -116 -8 -142 -1 -46 1 -49 34 -63 32 -13 35 -18 35 -54 0
-31 -4 -40 -17 -40 -9 0 -26 9 -38 20 -19 18 -24 19 -34 6 -9 -11 -13 -69 -14
-198 l-2 -183 23 -3 c14 -2 27 -14 33 -29 5 -14 12 -42 15 -62 6 -36 6 -36
-15 -17 -20 18 -21 18 -53 -17 -19 -19 -34 -47 -36 -61 -1 -17 5 -29 18 -36
15 -8 19 -17 14 -34 -3 -12 -7 -58 -9 -102 -1 -43 0 -109 2 -146 5 -52 10 -69
23 -73 10 -3 30 -1 45 5 22 8 30 8 37 -2 4 -7 8 -30 8 -50 0 -36 -1 -37 -42
-40 l-43 -3 0 -188 c0 -167 2 -190 17 -198 9 -5 38 -8 65 -6 l48 2 6 -50 c3
-27 4 -56 1 -63 -3 -10 -9 -9 -28 3 -13 8 -31 15 -40 15 -15 0 -16 -8 -11 -67
4 -38 7 -121 7 -185 0 -93 3 -120 16 -132 8 -9 26 -16 40 -16 17 0 27 -8 35
-27 5 -14 7 -46 3 -70 -3 -23 -10 -43 -15 -43 -5 0 -9 7 -9 15 0 8 -7 15 -16
15 -9 0 -18 -9 -21 -19 -3 -11 -15 -22 -28 -25 -14 -4 -24 -15 -27 -31 -4 -18
0 -26 14 -31 11 -3 24 -18 29 -32 6 -15 12 -61 15 -102 2 -41 6 -104 9 -140 3
-46 9 -68 22 -77 9 -7 23 -13 30 -13 7 0 17 -9 23 -19 5 -11 10 -29 10 -41 0
-18 -4 -21 -27 -16 -19 4 -35 0 -50 -12 -20 -16 -21 -22 -14 -92 4 -42 6 -112
4 -155 -3 -44 0 -92 5 -106 8 -19 20 -28 46 -33 l36 -7 0 -54 c0 -30 -4 -55
-10 -55 -5 0 -19 9 -31 21 -11 11 -27 18 -34 15 -8 -2 -17 -26 -21 -52 -4 -26
-4 -125 -2 -221 3 -95 5 -173 4 -173 0 0 -36 7 -79 15 -43 8 -99 15 -124 15
-25 0 -111 9 -192 20 -80 11 -168 24 -196 29 -27 5 -75 14 -105 21 -30 6 -73
15 -95 19 -22 5 -56 12 -75 15 -19 3 -60 12 -90 20 -30 8 -125 33 -210 54 -85
22 -176 43 -202 47 -26 3 -55 13 -64 22 -14 14 -15 36 -9 170 6 116 4 157 -5
168 -7 9 -29 15 -52 15 l-39 0 3 78 c2 44 7 76 13 75 6 -1 26 -4 45 -8 33 -6
36 -4 45 27 6 19 7 50 3 73 -4 22 -10 122 -13 223 -2 101 -7 186 -9 191 -3 4
-30 6 -61 3 l-55 -4 -2 66 c-1 36 -2 76 -2 89 -1 16 5 23 24 25 14 1 35 5 47
7 13 3 30 20 39 37 14 27 16 61 12 252 -3 136 -10 232 -17 250 -11 28 -13 29
-66 23 l-54 -5 -5 31 c-3 18 -7 65 -9 105 -3 40 -8 77 -13 82 -5 5 -18 10 -29
12 -19 3 -20 -2 -17 -128 2 -116 0 -132 -14 -138 -11 -4 -26 1 -39 14 -12 11
-26 20 -32 20 -6 0 -14 -19 -19 -42 -4 -24 -8 -150 -9 -280 -2 -182 1 -240 10
-248 7 -6 37 -9 66 -8 l54 3 8 -68 c5 -38 6 -75 3 -83 -3 -8 -13 -14 -22 -14
-10 0 -26 8 -36 17 -14 13 -23 15 -36 7 -9 -6 -20 -25 -25 -43 -5 -20 -4 -37
2 -44 5 -7 12 -39 16 -72 3 -33 15 -106 26 -163 14 -73 17 -113 11 -135 -5
-18 -5 -42 -1 -55 7 -18 16 -22 49 -22 31 0 40 -4 41 -17 1 -10 1 -49 1 -87
-1 -37 -3 -70 -5 -73 -3 -2 -16 2 -28 9 -13 7 -29 20 -36 28 -9 12 -14 12 -24
3 -8 -9 -12 -52 -12 -142 1 -71 4 -134 8 -140 3 -6 0 -14 -8 -17 -8 -3 -41 4
-73 14 -33 11 -75 23 -94 27 -19 4 -75 19 -125 35 -49 15 -115 31 -145 35 -30
4 -63 11 -72 16 -9 5 -45 14 -80 20 -35 5 -97 14 -138 19 -41 6 -100 17 -130
26 -30 8 -84 24 -120 34 -36 11 -86 24 -112 30 -26 5 -62 16 -80 24 -18 8 -67
20 -108 26 -41 7 -95 18 -120 25 -25 8 -91 24 -147 36 -56 12 -107 26 -114 30
-9 5 7 27 56 73 38 36 71 66 75 66 3 0 39 34 80 76 41 42 128 130 194 195 77
77 128 120 147 124 20 5 31 15 35 31 4 16 -1 39 -12 62 -11 20 -31 57 -46 82
-15 25 -34 70 -42 100 -9 30 -37 114 -62 185 -29 81 -47 147 -47 175 0 25 10
78 21 119 11 40 21 98 21 129 0 45 -6 63 -27 91 -15 20 -37 56 -48 81 -12 25
-37 77 -55 115 -18 39 -43 84 -55 100 -12 17 -31 48 -43 70 -12 22 -34 61 -49
86 -15 25 -45 77 -66 115 -22 38 -63 105 -93 149 -29 44 -59 89 -66 99 -13 19
-18 19 -98 7 -46 -7 -111 -17 -144 -22 -33 -5 -116 -13 -184 -18 -68 -5 -129
-7 -137 -4 -7 2 -20 22 -28 44 -9 21 -20 39 -25 39 -5 0 -14 21 -21 48 -6 26
-12 82 -11 126 l0 78 71 70 c48 49 92 107 139 187 38 64 79 143 90 176 13 37
24 98 27 160 4 55 1 150 -4 211 -6 60 -15 130 -21 155 -5 24 -16 73 -24 109
-9 36 -27 97 -41 137 -13 39 -33 89 -44 110 -10 21 -27 52 -38 69 l-18 32 37
41 c22 25 34 47 31 56 -4 8 -8 15 -10 15 -2 0 -18 -9 -36 -20 -18 -11 -40 -20
-49 -20 -9 0 -45 35 -82 78 -36 42 -87 98 -114 125 -27 26 -85 68 -128 93 -56
31 -115 54 -194 75 -63 17 -118 32 -123 35 -4 3 -8 12 -8 21 0 9 5 32 12 50 8
22 9 36 2 43z m-205 -186 c26 -1 84 -7 131 -14 47 -7 119 -20 160 -30 41 -9
109 -33 150 -53 41 -20 101 -58 133 -85 32 -28 66 -60 75 -73 9 -13 21 -28 27
-34 7 -5 33 -37 58 -71 26 -33 47 -63 47 -67 0 -3 13 -25 28 -49 16 -24 36
-56 44 -73 9 -16 25 -50 36 -75 11 -25 27 -70 36 -100 8 -31 20 -91 26 -135 6
-44 15 -96 20 -115 5 -19 10 -98 11 -176 0 -102 -4 -155 -15 -195 -9 -29 -33
-84 -54 -120 -20 -36 -58 -97 -83 -135 -26 -38 -62 -83 -80 -100 -19 -17 -64
-53 -100 -80 -36 -27 -139 -86 -230 -132 -90 -45 -186 -86 -213 -91 -28 -5
-79 -5 -123 1 -53 6 -79 6 -88 -2 -9 -7 -43 -9 -102 -5 -48 4 -108 13 -133 20
-25 7 -63 21 -85 32 -22 10 -68 35 -103 57 -35 21 -62 40 -60 41 2 2 23 0 46
-5 24 -4 89 -8 145 -9 56 -1 128 -6 160 -10 32 -4 70 -6 83 -3 22 4 25 9 22
46 -3 40 -4 41 -48 48 -25 4 -121 9 -215 13 -93 3 -176 8 -183 11 -7 2 -22 -1
-33 -6 -10 -6 -19 -17 -19 -25 0 -8 -3 -15 -6 -15 -3 0 -18 7 -32 16 -15 9
-47 41 -72 71 -25 30 -56 66 -70 81 -14 15 -45 68 -69 117 -24 50 -48 97 -52
106 -4 9 -19 61 -32 115 -14 54 -33 135 -42 179 -9 44 -15 98 -13 120 l4 40 9
-33 c5 -21 17 -38 31 -44 15 -7 35 -8 55 -2 17 5 38 18 45 29 12 18 11 26 -4
55 -14 29 -23 36 -54 38 -22 2 -47 -3 -62 -13 l-24 -16 4 33 c2 18 9 60 15 93
6 33 27 105 46 160 18 55 46 118 61 140 15 22 32 52 38 66 7 14 33 55 60 90
26 35 66 81 88 102 23 21 84 66 136 101 52 35 114 73 137 84 23 12 72 33 110
47 37 15 93 29 122 33 30 4 75 6 100 6z m4897 -756 c16 -3 19 -12 18 -63 -1
-33 -2 -90 -3 -127 -1 -60 -3 -68 -20 -68 -17 0 -20 8 -23 48 -3 40 -6 47 -25
50 -17 2 -24 -3 -28 -21 -4 -14 -5 -33 -3 -43 1 -11 -2 -21 -7 -24 -6 -3 -11
33 -13 93 -1 53 1 97 5 97 5 0 13 -10 18 -22 6 -13 19 -24 31 -26 15 -2 24 5
33 26 7 16 9 41 5 56 -6 24 -4 27 12 24z m-62 -613 c13 -9 31 -13 40 -9 14 5
16 -4 16 -70 0 -60 -3 -76 -15 -76 -8 0 -20 10 -26 22 -7 12 -21 29 -32 38
-17 14 -19 23 -13 63 7 46 8 46 30 32z m-50 -405 c8 0 17 -21 22 -52 8 -47 12
-53 34 -53 20 0 27 7 36 40 l12 40 1 -70 c0 -38 -3 -75 -7 -81 -4 -6 -17 -14
-29 -18 -15 -5 -28 -1 -41 12 -10 10 -26 21 -35 25 -9 3 -17 14 -18 24 0 10 0
40 1 68 1 27 4 53 6 57 3 5 11 8 18 8z m-4179 -160 c8 -7 15 -19 15 -26 0 -8
-7 -14 -15 -14 -10 0 -15 10 -15 26 0 22 2 25 15 14z m-3170 -193 c5 -2 11
-14 13 -28 1 -13 5 -43 8 -66 4 -30 12 -46 26 -54 18 -9 24 -8 35 7 7 10 13
43 13 75 0 32 5 61 11 65 6 3 18 -1 27 -10 13 -12 17 -50 22 -188 4 -95 3
-177 -1 -182 -4 -5 -15 -6 -23 -3 -9 4 -16 15 -16 25 0 10 -6 26 -13 36 -10
13 -20 16 -36 11 -19 -6 -22 -13 -19 -48 2 -36 0 -42 -19 -45 -18 -3 -23 4
-32 50 -6 29 -14 117 -18 196 -5 89 -4 147 2 153 5 5 14 8 20 6z m3250 3 c7 0
20 -12 30 -26 11 -17 13 -30 7 -36 -5 -5 -22 -8 -38 -6 -18 2 -30 10 -32 21
-2 10 2 24 8 32 7 8 18 15 25 15z m630 -74 c6 -1 24 -29 40 -62 17 -32 39 -75
50 -94 10 -19 20 -44 22 -55 2 -11 12 -38 22 -60 10 -22 21 -53 25 -70 4 -16
25 -70 47 -120 22 -49 44 -98 49 -107 6 -10 10 -23 10 -28 0 -6 11 -35 24 -63
13 -29 38 -89 55 -134 17 -45 31 -91 31 -103 0 -11 4 -28 10 -38 5 -9 19 -39
31 -67 17 -37 23 -70 23 -130 0 -44 -5 -116 -12 -159 -8 -44 -22 -102 -32
-130 -10 -28 -26 -82 -34 -121 -9 -38 -20 -88 -24 -110 l-8 -40 -84 -7 c-47
-4 -146 -8 -220 -9 -74 -1 -155 3 -180 9 -25 6 -79 13 -120 17 -41 3 -85 8
-97 11 -17 3 -22 13 -28 56 -4 29 -16 78 -27 108 -11 30 -25 62 -32 70 -7 8
-22 31 -33 51 -11 20 -39 89 -61 155 -22 65 -50 142 -62 169 -12 28 -28 75
-37 105 -8 30 -19 75 -24 100 -6 25 -14 52 -18 61 -5 8 -16 49 -25 90 -10 40
-24 101 -32 134 -9 33 -31 110 -49 170 -19 61 -44 144 -56 185 -12 41 -22 86
-23 100 l-1 25 105 2 c58 1 134 8 170 16 36 9 118 20 183 26 64 6 170 16 235
22 64 7 131 15 147 19 17 5 35 7 40 6z m3467 -56 c5 0 12 -9 15 -20 4 -14 14
-20 34 -20 25 0 28 -4 34 -42 4 -24 4 -56 2 -73 -3 -16 -6 -34 -6 -39 -1 -5
-8 -3 -16 4 -8 6 -20 10 -27 8 -7 -3 -17 -27 -23 -54 -5 -27 -15 -49 -20 -49
-6 0 -11 36 -13 80 -2 44 0 108 3 143 4 34 11 62 17 62z m-4410 -110 c10 -12
18 -31 18 -41 0 -11 12 -63 26 -117 14 -53 34 -117 44 -142 10 -25 27 -76 39
-115 11 -38 27 -104 36 -145 9 -41 23 -100 31 -130 8 -30 21 -80 30 -110 8
-30 16 -88 18 -130 2 -51 -2 -86 -12 -110 -11 -24 -16 -78 -18 -170 -2 -74 0
-148 4 -165 6 -20 16 -31 33 -35 18 -4 25 -13 27 -37 3 -28 0 -32 -24 -35 -15
-2 -36 -15 -47 -30 -19 -25 -19 -29 -5 -45 10 -11 18 -48 23 -97 l7 -78 -34
-29 c-18 -15 -38 -28 -44 -29 -6 0 -39 57 -74 128 -35 70 -64 132 -65 137 -1
6 -5 19 -9 30 -4 11 -16 45 -27 75 -11 30 -40 96 -65 147 -24 51 -49 95 -54
98 -6 3 -10 16 -10 29 0 13 -13 49 -29 82 -16 32 -54 116 -85 185 -31 69 -56
138 -56 153 0 16 6 40 14 54 8 15 32 83 55 152 22 69 47 142 54 162 7 21 16
41 20 44 4 4 7 14 7 21 0 8 17 49 37 91 20 42 47 94 60 114 13 21 23 42 23 48
0 6 8 22 17 37 l17 25 18 -22z m1233 -280 c1 0 21 -29 44 -64 22 -35 41 -68
41 -74 0 -5 9 -30 20 -54 11 -25 27 -51 35 -58 8 -7 15 -22 15 -33 0 -12 12
-33 26 -48 24 -26 25 -29 18 -113 -4 -47 -11 -86 -15 -86 -5 0 -9 8 -9 18 0 9
-9 42 -21 72 -11 30 -34 96 -50 145 -17 50 -34 99 -39 110 -5 11 -16 38 -25
60 -9 22 -23 59 -30 83 -7 23 -12 42 -10 42z m3296 -132 c5 -2 11 -58 13 -126
3 -98 1 -122 -10 -122 -10 0 -14 14 -14 45 0 34 -5 47 -19 55 -14 7 -22 7 -26
0 -4 -6 -5 -31 -4 -57 2 -26 -1 -48 -7 -50 -5 -2 -18 3 -28 10 -16 12 -19 29
-20 117 -1 75 2 104 12 107 7 3 15 -7 18 -26 4 -18 14 -33 26 -37 10 -3 26 0
34 7 10 8 13 21 9 36 -3 13 -3 28 1 34 3 6 10 9 15 7z m-7391 -158 c4 0 11
-10 14 -22 3 -13 9 -66 12 -118 5 -77 3 -99 -10 -115 -14 -19 -15 -17 -16 35
0 30 -4 71 -8 90 -5 19 -6 56 -4 83 2 26 8 47 12 47z m5774 -300 c21 0 24 -6
30 -61 3 -34 6 -105 6 -158 0 -53 -5 -112 -10 -132 -6 -22 -18 -39 -30 -42
-10 -3 -21 -3 -24 0 -2 3 -2 29 1 58 4 41 2 57 -10 70 -13 12 -21 14 -37 5
-14 -8 -20 -21 -21 -48 -1 -20 0 -52 1 -69 1 -31 0 -33 -33 -33 -33 0 -36 2
-41 38 -4 20 -7 91 -8 157 -2 90 1 128 12 150 9 18 23 30 35 30 17 0 20 -8 23
-45 1 -25 5 -60 7 -77 5 -27 11 -33 30 -33 16 0 26 8 31 23 4 12 7 50 5 85 -1
34 1 67 4 72 4 6 17 10 29 10z m-5697 -30 c2 0 3 -18 3 -40 0 -29 -4 -40 -15
-40 -10 0 -15 10 -15 28 0 15 5 33 12 40 7 7 13 12 15 12z m7278 -50 c8 0 16
-6 16 -12 1 -7 1 -17 0 -22 -1 -5 5 -24 14 -42 11 -24 23 -34 39 -34 21 0 24
-6 28 -47 3 -27 1 -52 -4 -57 -5 -6 -19 1 -36 17 -15 15 -38 27 -50 27 -21 0
-22 4 -22 85 0 69 3 85 15 85z m-3049 -150 c2 0 10 -21 18 -47 8 -27 29 -81
45 -122 17 -40 31 -79 31 -85 0 -7 9 -31 20 -53 11 -23 17 -49 14 -57 -3 -9
-22 -20 -43 -25 -20 -5 -71 -17 -114 -26 -44 -10 -83 -13 -87 -9 -5 5 0 42 11
83 11 40 27 90 35 110 9 20 24 61 35 91 10 30 19 71 19 91 0 20 3 39 7 42 3 4
8 7 9 7z m-1131 -32 c23 -1 35 -8 46 -27 9 -17 13 -49 11 -93 -2 -52 -6 -68
-17 -68 -10 0 -15 10 -15 29 0 16 -3 36 -6 45 -3 9 -11 16 -17 16 -6 0 -19 -7
-29 -17 -17 -15 -18 -14 -18 44 0 33 3 63 6 66 4 3 21 6 39 5z m-3072 -138
c24 0 24 -2 29 -107 3 -61 1 -116 -4 -127 -6 -10 -14 -14 -18 -10 -5 5 -10 20
-12 34 -2 19 -9 25 -28 25 -22 0 -25 -5 -28 -37 -2 -27 -9 -39 -23 -43 -11 -4
-23 -4 -26 -1 -3 3 -11 38 -18 78 -7 44 -9 85 -4 102 5 16 6 33 3 38 -3 5 -3
16 0 25 5 13 11 9 25 -18 13 -24 25 -34 42 -34 18 0 25 6 27 25 2 14 5 31 7
38 2 6 15 12 28 12z m3196 -80 c4 0 16 -31 25 -69 l17 -70 -27 -43 -28 -43
-11 45 c-9 39 -15 46 -40 50 -25 4 -30 10 -30 35 0 26 4 30 30 33 17 2 36 8
43 14 6 6 12 19 12 29 0 11 4 19 9 19z m4086 -114 c8 -11 15 -27 15 -36 0 -8
7 -26 16 -38 8 -12 24 -22 35 -22 17 0 19 -7 19 -64 0 -36 -4 -68 -10 -71 -6
-3 -10 4 -10 18 0 14 -7 30 -16 38 -12 10 -20 10 -34 1 -10 -6 -21 -8 -24 -5
-3 4 -6 49 -6 102 1 87 2 94 15 77z m-4182 -97 c4 1 10 -6 13 -14 4 -8 3 -27
0 -41 -5 -20 -12 -25 -33 -22 -14 2 -32 13 -41 25 -13 21 -13 23 4 29 11 3 26
9 34 14 8 5 19 9 23 9z m312 -33 c44 -2 116 -9 160 -16 44 -6 132 -11 195 -11
63 1 141 4 173 7 57 7 57 6 57 -20 0 -14 -9 -59 -20 -98 -11 -40 -20 -86 -20
-103 0 -25 -16 -44 -101 -120 -56 -49 -107 -94 -115 -98 -8 -5 -40 -3 -72 3
-31 6 -77 16 -102 22 -24 5 -83 14 -130 20 -47 6 -94 12 -106 13 -11 1 -24 4
-30 7 -5 3 -30 9 -55 13 -45 7 -47 9 -62 53 -14 46 -16 47 -51 44 -32 -3 -36
-1 -36 20 0 13 5 29 12 36 7 7 19 12 28 12 9 0 24 8 32 18 11 12 14 32 11 68
-4 51 -4 52 34 68 21 9 56 28 78 42 36 22 48 24 120 20z m784 3 c24 1 24 0
-10 -36 -18 -21 -54 -59 -79 -85 -25 -27 -49 -48 -54 -48 -4 0 -6 29 -4 65 2
36 9 70 16 77 7 7 33 15 60 19 26 3 58 7 71 8z m1366 -19 c6 0 16 -5 23 -12 7
-7 12 -25 12 -41 0 -15 5 -37 10 -48 6 -10 17 -19 25 -19 8 0 19 9 25 19 5 11
10 36 10 56 0 32 3 36 23 33 22 -3 22 -5 25 -171 2 -157 1 -168 -15 -165 -15
3 -18 13 -16 59 2 46 -1 59 -18 75 -15 14 -24 16 -37 8 -9 -6 -16 -24 -17 -40
-1 -16 -2 -46 -3 -66 -1 -21 -6 -38 -11 -38 -5 0 -14 21 -20 48 -6 26 -17 89
-26 140 -8 50 -15 105 -15 120 0 16 3 32 7 35 3 4 11 7 18 7z m-5524 -206 c4
-2 4 -17 0 -32 -4 -15 -6 -61 -5 -102 2 -41 6 -94 9 -117 3 -24 1 -51 -5 -63
-6 -11 -15 -20 -21 -20 -5 0 -15 14 -21 31 -8 25 -15 30 -37 27 -20 -2 -26 -8
-26 -28 0 -14 -6 -26 -15 -27 -8 -2 -20 0 -27 5 -6 4 -12 30 -13 57 -1 28 -1
91 -1 142 1 83 3 93 22 103 11 7 23 9 26 7 2 -3 5 -43 6 -89 2 -71 5 -83 20
-86 10 -2 24 1 31 8 9 6 17 44 21 93 4 45 12 85 18 89 6 4 14 5 18 2z m2975
-4 c9 0 14 -12 14 -36 0 -24 -8 -46 -25 -66 -16 -19 -23 -37 -20 -49 5 -14 -6
-26 -48 -53 -31 -20 -70 -50 -89 -67 -18 -17 -85 -57 -148 -88 -63 -32 -136
-69 -162 -84 -26 -15 -52 -27 -57 -27 -6 0 -11 6 -11 13 0 8 17 27 38 44 20
16 78 60 127 98 50 37 112 92 138 121 27 30 89 85 139 124 50 38 97 70 104 70z
m4301 -185 c7 -11 13 -29 13 -42 0 -13 7 -26 17 -30 10 -4 23 2 34 15 9 12 19
22 21 22 2 0 2 -28 1 -62 -1 -35 -4 -72 -6 -83 -2 -11 -8 -20 -13 -20 -5 0
-10 10 -12 22 -2 12 -9 26 -16 32 -8 6 -21 8 -30 5 -12 -5 -16 -16 -14 -36 2
-17 -1 -30 -7 -30 -5 0 -14 20 -18 44 -4 23 -5 70 -1 103 3 33 9 64 12 69 3 5
11 1 19 -9z m-4206 -25 c10 0 19 -7 19 -15 0 -9 -9 -15 -25 -15 -18 0 -23 4
-19 15 4 8 15 15 25 15z m119 -24 c14 -4 70 -12 125 -17 55 -5 125 -15 155
-23 30 -8 74 -17 97 -21 24 -4 45 -10 48 -15 3 -4 -27 -38 -65 -76 -39 -37
-70 -76 -70 -86 0 -10 14 -66 31 -126 18 -59 40 -123 49 -142 10 -19 27 -71
39 -115 12 -44 40 -132 62 -195 22 -63 43 -122 48 -130 4 -8 14 -40 21 -70 8
-30 24 -88 37 -129 13 -40 23 -82 23 -93 0 -11 25 -94 56 -185 30 -91 60 -176
66 -189 8 -17 8 -27 -1 -38 -7 -9 -36 -31 -64 -50 -29 -18 -86 -51 -127 -72
-41 -21 -88 -48 -105 -60 -16 -12 -40 -25 -52 -28 -11 -4 -24 -14 -27 -23 -4
-9 1 -26 9 -39 9 -13 21 -24 28 -24 6 0 53 28 102 61 50 33 140 85 202 116
100 52 112 61 116 88 3 16 1 35 -3 40 -5 6 -11 28 -15 50 -4 22 -24 92 -45
155 -21 63 -46 135 -55 160 -9 25 -26 70 -37 100 -11 30 -24 64 -28 75 -5 11
-20 63 -35 115 -14 52 -35 122 -46 155 -12 33 -41 123 -66 200 -24 77 -48 149
-53 160 -4 11 -15 43 -23 70 -8 28 -18 76 -22 108 l-6 57 82 81 c64 61 88 79
104 75 11 -3 79 -22 150 -42 72 -19 180 -46 240 -60 61 -13 130 -29 155 -34
25 -5 88 -21 140 -35 52 -13 133 -33 180 -44 47 -10 117 -24 155 -31 39 -6 84
-15 100 -20 17 -4 66 -16 110 -25 44 -9 150 -35 235 -57 85 -22 179 -47 208
-55 l52 -14 0 -49 c0 -39 4 -52 19 -60 11 -5 37 -10 58 -10 36 0 39 -3 51 -40
6 -22 12 -53 12 -69 0 -17 -4 -32 -10 -36 -5 -3 -17 -1 -27 5 -13 8 -26 9 -45
1 -16 -6 -28 -18 -28 -29 0 -9 7 -27 15 -39 12 -17 15 -57 14 -202 0 -99 2
-185 6 -190 3 -6 31 -11 61 -11 l54 0 0 -50 c0 -27 -4 -50 -10 -50 -5 0 -17
11 -26 24 -9 15 -21 23 -30 19 -11 -4 -14 -21 -13 -67 1 -33 -1 -70 -4 -81 -4
-11 -1 -76 7 -144 11 -109 15 -126 35 -142 13 -11 32 -19 42 -19 11 0 21 -9
24 -22 2 -13 7 -53 10 -90 4 -59 2 -69 -14 -78 -11 -5 -29 -10 -40 -10 -11 0
-24 -8 -30 -17 -5 -10 -6 -24 -1 -34 5 -8 10 -56 11 -105 1 -49 0 -109 -3
-134 -3 -25 -10 -59 -16 -75 -5 -17 -6 -40 -1 -53 8 -21 13 -22 64 -16 30 4
55 3 55 -2 1 -5 5 -28 9 -51 7 -37 6 -43 -10 -48 -12 -4 -30 2 -45 14 -18 14
-31 18 -42 12 -8 -5 -17 -24 -19 -42 -2 -19 1 -43 6 -54 6 -11 12 -88 13 -172
3 -136 5 -155 24 -180 12 -15 31 -29 43 -31 16 -3 21 -10 21 -34 0 -29 -1 -30
-40 -23 -35 6 -40 4 -45 -17 -3 -13 -4 -88 -1 -168 2 -80 9 -157 15 -172 7
-20 18 -28 35 -28 13 0 27 -7 30 -16 3 -9 6 -33 6 -55 0 -40 0 -40 -33 -34
-31 6 -35 4 -46 -23 -8 -19 -11 -62 -9 -113 l3 -82 -32 -9 c-21 -5 -42 -22
-58 -46 -15 -22 -25 -51 -25 -73 0 -20 -5 -49 -10 -66 -7 -19 -7 -38 -1 -54 5
-14 21 -36 36 -49 15 -14 38 -36 51 -49 20 -20 29 -22 61 -15 21 4 46 7 56 6
10 -1 31 5 47 13 16 8 34 15 40 15 8 0 9 -11 5 -31 -4 -17 -17 -46 -28 -64
-16 -25 -30 -34 -49 -35 -15 0 -39 5 -55 11 -15 6 -50 17 -78 24 -27 7 -118
25 -200 39 -83 14 -180 34 -217 46 -36 11 -87 29 -112 41 -26 11 -50 27 -53
35 -3 8 -14 14 -25 14 -11 0 -62 9 -112 20 -50 11 -111 27 -136 35 -25 8 -70
21 -100 29 -30 8 -86 28 -123 45 -38 17 -74 31 -79 31 -6 0 -49 18 -95 40 -47
22 -124 51 -171 66 -48 14 -96 29 -107 34 -11 5 -38 11 -60 14 -22 3 -61 10
-87 15 -27 6 -118 35 -203 66 -86 30 -167 55 -180 55 -13 0 -26 4 -29 9 -3 5
-18 12 -33 15 -16 4 -59 16 -98 28 -38 11 -95 29 -125 41 -30 11 -67 29 -81
39 -15 10 -56 25 -90 34 -35 9 -84 24 -109 34 -25 10 -90 32 -145 48 -55 17
-156 45 -225 62 -68 18 -138 38 -155 46 -16 7 -77 27 -135 44 -58 18 -116 35
-130 40 -14 4 -43 13 -65 19 -22 5 -80 22 -129 37 -50 15 -105 36 -123 46 -18
11 -54 26 -80 33 -27 8 -100 32 -163 54 -63 21 -137 42 -165 46 -27 4 -54 11
-60 15 -5 4 -35 13 -65 19 -30 7 -77 21 -105 31 -27 10 -66 22 -85 26 -19 3
-62 17 -95 29 -33 13 -87 30 -120 38 -33 9 -98 27 -144 41 -47 13 -87 24 -90
24 -4 -1 -17 3 -31 9 -14 6 -45 16 -70 22 -25 6 -74 19 -110 30 -36 10 -99 29
-140 41 -41 11 -104 32 -140 46 -36 14 -78 31 -95 38 -16 8 -63 26 -102 41
-40 14 -75 31 -79 36 -3 5 9 9 26 9 17 0 55 8 83 17 29 9 62 24 75 34 13 10
36 21 53 24 21 5 40 22 64 58 19 29 35 64 35 79 0 18 -12 39 -36 62 -20 19
-57 43 -83 52 -25 10 -52 23 -60 30 -8 7 -11 21 -7 36 3 12 26 35 50 51 24 15
47 27 51 27 4 0 31 17 59 37 28 20 78 52 111 70 33 18 103 55 155 83 52 28
113 61 135 73 22 13 56 32 75 42 19 11 82 56 140 101 58 44 122 91 143 103 20
12 37 26 37 31 0 4 24 23 53 41 28 18 79 53 112 78 33 25 94 75 135 111 41 36
104 85 139 110 35 25 79 59 100 76 20 17 59 46 86 64 28 19 87 61 132 92 44
32 83 58 86 58 2 0 35 21 73 46 38 25 104 64 147 85 43 22 80 46 83 54 3 7 36
34 74 59 37 25 72 46 77 46 4 0 19 9 33 20 14 11 28 20 32 20 3 0 18 -25 32
-55 14 -31 46 -86 71 -123 25 -38 45 -72 45 -76 0 -4 16 -42 36 -84 20 -42 46
-99 59 -127 13 -27 37 -80 54 -118 17 -37 31 -75 31 -85 0 -10 4 -22 8 -27 5
-6 14 -29 22 -52 7 -23 10 -48 7 -56 -3 -8 -23 -21 -44 -27 -21 -7 -105 -46
-187 -87 -82 -41 -173 -83 -203 -94 -29 -11 -58 -29 -63 -40 -8 -14 -6 -25 6
-44 9 -14 20 -25 24 -25 4 0 29 12 56 26 27 15 102 53 166 85 64 33 124 59
133 59 8 0 23 4 33 9 9 6 46 21 82 35 61 23 65 27 71 62 5 27 -1 60 -21 119
-15 45 -32 90 -38 101 -6 10 -17 35 -25 54 -8 19 -24 56 -36 82 -12 26 -21 51
-21 57 0 6 -17 50 -39 98 -21 48 -53 112 -70 142 -18 29 -50 87 -71 128 -22
41 -40 80 -40 87 0 7 12 21 28 32 15 12 81 49 147 83 66 35 136 73 156 85 20
11 58 40 86 64 28 23 58 42 67 42 9 0 16 -4 16 -9 0 -5 -8 -15 -17 -22 -9 -8
-29 -32 -45 -53 -15 -21 -28 -51 -28 -65 0 -15 7 -36 15 -47 8 -12 40 -34 71
-49 38 -18 73 -28 103 -28 25 0 65 3 88 8 25 4 57 21 78 39 25 21 38 42 42 68
3 20 2 50 -2 65 -3 15 -28 48 -53 72 -39 36 -43 43 -22 37z m-107 -87 c9 1 17
-5 17 -13 0 -7 6 -19 14 -26 8 -6 12 -18 9 -26 -3 -8 -2 -21 1 -29 4 -13 10
-14 26 -5 11 6 23 22 26 36 4 16 10 22 16 16 5 -5 8 -20 6 -33 -2 -15 -14 -26
-38 -35 -19 -7 -54 -13 -77 -13 -25 -1 -61 8 -88 21 -25 12 -45 28 -45 34 0 7
5 16 11 19 5 4 19 -1 29 -10 12 -11 20 -13 25 -6 3 6 4 20 0 30 -4 14 1 22 22
29 15 6 36 11 46 11z m2485 -139 c7 0 12 -13 12 -32 0 -18 6 -44 13 -58 7 -14
21 -25 32 -25 16 0 22 11 31 50 9 35 13 43 15 25 1 -14 3 -69 4 -122 2 -80 0
-98 -12 -98 -7 0 -22 13 -31 30 -11 19 -25 30 -39 30 -13 0 -23 -4 -23 -10 0
-5 -9 -10 -19 -10 -16 0 -20 10 -26 66 -4 36 -5 81 -2 101 4 20 12 40 19 45 7
4 19 8 26 8z m-5696 -132 c21 -3 24 -9 28 -65 3 -34 10 -67 16 -73 7 -7 22
-10 35 -8 19 2 24 9 25 33 1 17 2 39 4 50 1 11 5 2 9 -20 4 -22 6 -78 6 -124
0 -53 -4 -86 -11 -88 -7 -2 -14 8 -18 22 -4 16 -13 25 -26 25 -10 0 -21 -8
-24 -17 -2 -10 -7 -33 -11 -50 -4 -18 -13 -33 -20 -33 -8 0 -16 4 -19 9 -3 4
-8 83 -12 175 l-6 168 24 -4z m7380 -80 c17 -2 24 -13 30 -43 5 -22 13 -44 17
-48 5 -5 18 -6 30 -2 17 5 21 15 21 46 0 28 4 39 15 39 9 0 15 -9 15 -22 0
-13 3 -46 6 -75 l7 -52 -31 11 c-28 11 -34 10 -52 -10 -12 -12 -25 -22 -30
-22 -6 0 -10 -18 -10 -40 0 -37 -2 -40 -19 -31 -15 8 -19 23 -20 78 -1 37 -2
75 -3 83 -1 8 0 32 0 53 2 34 5 38 24 35z m-1698 -81 c8 0 18 -7 21 -14 3 -10
-1 -13 -12 -11 -9 2 -18 8 -20 14 -2 6 3 11 11 11z m258 -58 c24 -4 93 -22
153 -39 61 -18 175 -45 254 -60 79 -16 158 -34 176 -40 17 -6 97 -22 176 -36
79 -14 203 -34 274 -44 72 -10 177 -26 235 -35 58 -10 109 -21 114 -25 4 -5
10 -27 11 -50 3 -33 -1 -47 -18 -64 -12 -11 -39 -36 -60 -54 -21 -18 -43 -47
-48 -65 -5 -17 -9 -50 -9 -73 0 -29 6 -46 23 -62 17 -16 45 -24 116 -32 51 -7
104 -9 117 -6 17 5 24 2 24 -8 0 -9 -13 -30 -29 -48 -16 -18 -53 -70 -82 -114
-30 -45 -62 -95 -71 -110 -10 -16 -49 -72 -88 -124 -38 -52 -74 -106 -80 -119
-6 -13 -26 -42 -45 -64 -19 -22 -35 -46 -35 -53 0 -6 -8 -18 -17 -25 -9 -8
-45 -59 -81 -113 -35 -55 -71 -116 -80 -135 -9 -20 -23 -44 -31 -54 -8 -9 -20
-27 -27 -40 -7 -12 -38 -71 -69 -132 -31 -60 -74 -141 -95 -180 -21 -38 -57
-108 -79 -155 -23 -47 -52 -105 -65 -131 -13 -25 -36 -76 -51 -113 -15 -37
-44 -93 -65 -125 -21 -31 -54 -89 -74 -128 -20 -39 -36 -77 -36 -84 0 -8 -9
-25 -20 -39 -11 -14 -20 -31 -20 -38 0 -8 -6 -28 -14 -45 -7 -18 -34 -78 -60
-133 -25 -56 -46 -106 -46 -112 0 -6 -5 -14 -10 -17 -6 -4 -32 1 -59 10 l-48
16 -6 81 c-4 45 -13 91 -22 104 -8 12 -25 24 -37 26 -19 2 -24 10 -26 42 -2
23 2 42 9 46 6 5 25 3 41 -2 21 -7 33 -7 44 3 13 11 15 37 12 175 -3 139 -6
165 -21 182 -10 11 -26 19 -35 17 -9 -1 -25 2 -34 7 -11 5 -18 20 -18 38 0 28
2 30 40 30 34 0 42 4 50 25 5 13 7 100 4 197 -3 100 -11 184 -17 198 -7 14
-16 28 -22 32 -5 4 -20 8 -32 8 -16 0 -25 8 -29 24 -3 14 -4 33 -2 43 2 13 14
19 46 21 24 2 45 9 47 15 3 7 -1 68 -8 135 -8 77 -10 148 -5 189 4 39 4 72 -2
83 -6 10 -10 28 -10 39 0 17 -6 21 -29 21 -17 0 -33 -4 -36 -10 -3 -5 -13 -10
-21 -10 -11 0 -14 16 -14 74 0 41 3 81 6 90 4 11 19 16 45 16 34 0 39 3 38 23
0 12 -3 52 -8 89 -4 37 -3 103 1 145 5 54 4 91 -5 122 l-12 43 -43 -5 -43 -5
3 52 3 51 40 0 c32 0 39 3 37 17 -1 9 2 19 7 22 6 4 6 17 -1 36 -6 19 -8 90
-5 185 3 89 1 157 -4 161 -5 3 -9 17 -9 31 0 26 0 26 -60 20 -44 -5 -62 -3
-65 6 -3 6 -6 37 -7 67 l-3 54 44 8 c25 4 49 16 57 26 11 17 20 18 56 11z
m1574 -32 c3 -3 4 -12 1 -19 -3 -8 -6 -5 -6 6 -1 11 2 17 5 13z m-102 -163 c9
-3 16 -11 16 -16 0 -5 -5 -8 -12 -6 -6 2 -14 10 -16 16 -2 7 2 10 12 6z
m-1684 -69 c6 -3 10 -20 10 -36 0 -17 7 -44 16 -60 11 -22 21 -29 37 -27 19 3
22 9 23 58 1 38 6 57 17 64 12 8 20 7 29 -2 9 -9 13 -53 13 -155 l0 -142 -25
0 c-20 0 -26 5 -28 30 -1 17 -8 40 -14 53 -6 12 -20 22 -30 22 -10 0 -19 -6
-19 -12 -1 -7 -1 -34 1 -60 1 -27 -2 -48 -7 -48 -4 0 -13 4 -19 8 -7 4 -13 43
-15 92 -1 47 -2 116 -1 153 1 43 6 66 12 62z m1690 -35 c4 0 15 -9 25 -20 18
-20 17 -20 -13 -20 -20 0 -32 5 -32 13 0 8 3 17 7 20 3 4 9 7 13 7z m-7400
-70 c6 0 10 -18 10 -41 0 -22 5 -49 10 -60 6 -10 19 -19 29 -19 10 0 24 6 30
14 6 7 12 32 13 55 1 22 4 41 8 41 4 0 13 -14 20 -30 9 -23 10 -60 4 -148 -7
-93 -12 -117 -24 -117 -9 0 -17 14 -21 38 -3 21 -13 45 -21 53 -8 9 -22 12
-32 8 -15 -6 -17 -14 -12 -45 3 -21 2 -40 -3 -43 -5 -4 -17 -3 -26 0 -15 6
-16 19 -11 108 3 56 8 115 10 131 2 17 5 36 5 43 1 6 6 12 11 12z m7422 -52
c27 -2 36 -10 52 -43 10 -22 23 -43 29 -47 7 -4 20 1 30 10 14 12 17 24 12 50
-5 29 -4 33 12 30 13 -3 18 -12 16 -36 0 -21 -14 -48 -36 -75 -24 -29 -49 -47
-83 -59 -37 -12 -66 -15 -123 -10 -51 5 -77 12 -84 23 -5 9 -7 29 -3 44 4 15
21 41 38 57 17 16 36 27 42 25 6 -2 14 -23 17 -46 3 -24 12 -46 19 -51 7 -4
19 -6 26 -3 7 3 17 24 22 46 7 32 5 48 -5 65 -14 23 -14 23 19 20z m261 -108
c4 0 7 -11 7 -24 0 -13 -29 -72 -65 -131 -36 -60 -78 -125 -93 -146 -15 -21
-49 -69 -76 -106 -27 -37 -68 -90 -91 -118 -23 -27 -65 -83 -93 -123 -29 -39
-52 -74 -52 -77 0 -3 -15 -26 -34 -52 -18 -27 -46 -71 -62 -99 -16 -29 -53
-91 -82 -138 -29 -47 -59 -91 -65 -98 -7 -7 -37 -51 -68 -98 -30 -47 -60 -96
-67 -110 -6 -14 -39 -68 -72 -120 -32 -52 -59 -100 -60 -106 0 -6 -11 -21 -25
-34 -14 -13 -25 -29 -25 -35 0 -6 -12 -27 -26 -46 -23 -29 -25 -31 -19 -9 4
14 25 61 47 105 22 44 49 96 59 115 10 19 25 49 32 65 8 17 34 66 58 111 24
45 59 108 78 140 19 32 64 102 99 154 36 52 87 124 115 159 28 35 58 76 66 91
9 16 43 65 76 110 33 45 71 99 85 120 14 21 54 85 89 142 36 57 88 137 116
178 27 41 64 93 80 115 17 22 37 45 45 52 8 7 18 13 23 13z m-1829 -293 c6 -2
13 -30 16 -63 3 -32 4 -89 2 -126 -3 -51 -7 -68 -18 -68 -8 0 -18 10 -23 23
-5 13 -17 29 -26 37 -13 11 -21 11 -35 2 -15 -9 -20 -8 -24 6 -3 9 -8 55 -11
100 -6 77 -5 83 12 80 14 -3 17 -12 16 -43 -2 -25 3 -45 14 -57 9 -10 24 -18
34 -18 13 0 20 10 25 35 3 19 4 45 0 58 -3 13 -3 27 1 31 4 3 12 5 17 3z
m-5839 -77 c10 0 15 -10 15 -30 0 -16 5 -41 12 -55 6 -14 16 -25 23 -25 6 0
16 5 23 12 9 9 12 -7 12 -74 0 -48 -4 -89 -9 -92 -5 -3 -12 1 -15 10 -3 9 -6
27 -6 40 0 14 -7 27 -15 30 -8 4 -22 1 -30 -6 -11 -9 -13 -23 -9 -54 6 -35 4
-39 -7 -28 -10 9 -15 47 -17 128 -2 63 -1 122 2 130 3 7 12 14 21 14z m5873
-520 c9 0 12 -36 12 -145 0 -80 -4 -145 -9 -145 -5 0 -11 9 -14 20 -3 11 -2
45 2 75 5 38 4 61 -4 73 -7 9 -15 37 -19 61 -5 32 -3 47 6 53 7 4 19 8 26 8z
m-5826 -44 l43 -1 6 -64 c4 -37 12 -67 20 -72 8 -5 22 -9 32 -9 12 0 17 9 18
33 1 17 0 47 -1 65 -1 23 3 32 14 32 8 0 31 -8 51 -17 19 -9 35 -23 35 -31 0
-8 -17 -31 -38 -52 -28 -28 -56 -44 -112 -60 -41 -13 -89 -23 -106 -23 -17 1
-46 9 -65 18 -19 10 -46 29 -61 43 -16 14 -28 32 -28 39 0 7 10 23 21 34 l21
21 22 -26 c19 -23 23 -25 46 -13 15 7 26 23 28 37 2 14 5 30 7 36 2 7 22 11
47 10z m-255 -37 c0 1 -1 -17 -4 -40 -4 -24 0 -51 8 -67 7 -15 26 -41 42 -59
l29 -31 -33 8 c-19 5 -65 20 -102 33 -37 14 -71 27 -74 31 -4 4 15 29 43 57
27 28 58 55 69 59 11 5 21 9 22 9z m5991 -84 c2 -22 8 -45 13 -51 5 -6 6 -25
3 -43 -4 -17 -12 -30 -18 -28 -6 2 -12 23 -14 48 -2 24 0 59 4 79 l8 35 4 -40z
m-6131 -115 c1 0 17 -8 35 -19 18 -10 60 -24 93 -31 33 -7 69 -19 81 -27 12
-7 55 -24 97 -38 41 -13 94 -33 118 -44 23 -12 48 -21 53 -21 6 0 48 -15 92
-34 45 -18 137 -48 205 -66 68 -18 133 -36 144 -40 11 -5 43 -15 70 -23 28 -9
75 -21 105 -27 30 -7 102 -27 160 -45 58 -18 134 -41 170 -50 36 -10 79 -23
95 -30 17 -7 46 -17 65 -23 19 -6 82 -25 139 -42 57 -18 109 -33 115 -34 6 -1
52 -15 101 -29 50 -15 98 -32 108 -37 9 -6 28 -8 42 -4 15 4 25 2 25 -4 0 -6
25 -22 56 -36 31 -14 66 -26 78 -26 12 0 26 -4 32 -9 5 -4 50 -20 99 -36 50
-15 101 -31 115 -35 14 -5 52 -16 85 -25 33 -9 85 -25 115 -35 30 -10 78 -23
105 -30 28 -7 54 -17 59 -21 6 -5 22 -9 37 -9 15 0 31 -4 34 -10 3 -5 23 -10
44 -10 22 0 44 -6 51 -15 7 -8 21 -15 31 -15 11 0 38 -9 62 -19 23 -11 58 -24
77 -29 19 -6 60 -15 90 -22 30 -6 72 -14 92 -19 20 -4 50 -17 65 -27 15 -10
36 -17 46 -16 9 2 20 -3 23 -12 3 -8 18 -17 32 -21 15 -3 38 -7 51 -10 12 -2
29 -9 35 -14 7 -6 53 -24 102 -40 49 -17 123 -39 164 -50 41 -11 89 -24 105
-29 17 -5 44 -15 60 -22 17 -7 44 -18 60 -25 17 -7 46 -16 65 -20 19 -4 42
-13 50 -20 8 -7 33 -18 55 -25 22 -7 55 -19 73 -26 17 -8 47 -20 65 -28 17 -8
61 -23 97 -34 36 -11 94 -30 130 -42 36 -12 108 -37 160 -55 52 -18 112 -41
134 -50 21 -9 36 -18 34 -20 -2 -3 -53 7 -114 21 -60 14 -118 30 -129 34 -11
5 -54 18 -95 30 -41 12 -93 29 -115 39 -22 10 -56 21 -75 24 -19 3 -96 21
-170 40 -74 19 -163 45 -198 56 -34 12 -82 29 -105 37 -23 9 -61 25 -84 35
-24 10 -47 19 -53 19 -6 0 -18 4 -28 9 -9 5 -43 21 -75 35 -32 15 -111 40
-175 56 -64 17 -151 44 -192 60 -41 16 -93 33 -115 39 -22 5 -92 28 -155 50
-63 21 -165 62 -226 90 -62 28 -152 59 -200 70 -49 11 -129 27 -179 36 -49 9
-146 35 -215 56 -69 22 -133 44 -144 50 -10 6 -39 17 -65 25 -25 7 -59 14 -74
14 -15 0 -38 6 -50 14 -12 7 -44 19 -72 26 -27 7 -96 28 -153 46 -57 19 -115
34 -128 34 -14 0 -64 13 -112 29 -48 15 -127 41 -177 56 -49 16 -97 32 -105
36 -8 4 -37 16 -65 27 -27 11 -66 25 -85 30 -19 6 -80 27 -135 47 -55 21 -117
41 -138 46 -21 5 -45 13 -55 18 -9 5 -46 23 -82 39 -36 17 -96 44 -133 61 -37
17 -76 31 -85 31 -9 0 -28 6 -42 13 -14 7 -54 21 -90 31 -36 10 -81 22 -100
27 -19 5 -60 16 -90 25 -30 8 -70 23 -89 32 -18 9 -36 23 -39 30 -3 8 1 18 9
23 8 5 15 9 16 9z m6143 -280 c6 0 10 -9 10 -19 0 -11 -4 -23 -10 -26 -6 -4
-10 5 -10 19 0 14 5 26 10 26z m89 -30 c5 0 12 -42 16 -92 4 -51 5 -109 3
-128 -1 -19 -7 -35 -13 -35 -5 0 -13 20 -17 45 -4 25 -15 51 -25 57 -13 10
-20 10 -31 1 -10 -9 -12 -24 -8 -56 4 -32 3 -43 -7 -39 -6 2 -16 27 -20 57 -5
29 -6 73 -2 99 7 45 8 45 22 24 9 -13 24 -23 34 -23 10 0 23 9 29 19 5 11 10
31 10 45 0 14 4 26 9 26z m-78 -495 c5 -4 9 -25 9 -47 0 -23 7 -49 15 -58 14
-15 14 -18 0 -30 -8 -7 -15 -23 -15 -36 0 -13 -5 -24 -10 -24 -6 0 -15 12 -21
28 -6 15 -9 55 -6 88 2 34 8 67 11 73 4 6 12 9 17 6z m106 -15 c3 0 3 -43 1
-95 -1 -52 -6 -95 -11 -95 -4 0 -10 8 -13 18 -3 9 -10 26 -15 37 -7 15 -6 29
5 50 9 17 16 39 16 51 0 11 3 24 7 27 3 4 8 7 10 7z m463 -120 c6 0 10 -2 10
-4 0 -3 -4 -8 -10 -11 -5 -3 -10 -1 -10 4 0 6 5 11 10 11z m-12 -34 c2 -3 -4
-25 -13 -50 -10 -25 -21 -46 -26 -46 -5 0 -18 -33 -29 -72 -12 -40 -34 -100
-51 -133 -16 -33 -29 -69 -29 -79 0 -11 -6 -27 -14 -35 -8 -9 -27 -54 -44
-101 -16 -47 -46 -119 -66 -160 -21 -41 -45 -90 -56 -108 -10 -18 -25 -41 -32
-50 -8 -9 -29 -47 -46 -83 -17 -36 -37 -71 -45 -78 -12 -9 -16 -8 -20 4 -4 8
21 73 54 145 33 72 68 146 78 163 10 18 32 55 49 83 18 28 32 55 32 59 0 4 22
53 49 109 28 56 66 140 85 188 20 48 36 96 36 106 0 11 7 25 15 32 8 7 15 16
15 21 0 5 12 27 26 49 15 22 29 38 32 36z m-540 -358 c11 -20 26 -34 40 -36
20 -3 23 -8 21 -50 -1 -26 2 -66 6 -89 7 -40 6 -43 -26 -62 -19 -12 -42 -21
-51 -21 -10 0 -18 4 -18 8 0 4 4 12 9 17 5 6 6 61 2 130 -4 66 -6 124 -3 128
2 5 11 -7 20 -25z m-98 -178 c6 0 10 -8 10 -18 0 -10 7 -27 15 -38 8 -10 15
-25 15 -31 0 -7 -7 -13 -15 -13 -9 0 -29 7 -45 15 -17 9 -30 22 -30 30 0 8 9
24 20 35 11 11 25 20 30 20z m-807 -191 c5 1 18 -4 30 -11 12 -6 35 -15 52
-19 16 -4 77 -26 135 -48 62 -24 172 -55 270 -75 91 -19 190 -38 220 -42 30
-3 72 -16 93 -27 21 -11 53 -23 70 -26 18 -4 33 -14 35 -23 3 -13 -4 -14 -43
-7 -26 5 -51 12 -57 15 -6 4 -65 19 -132 34 -66 16 -152 36 -191 45 -38 9
-104 23 -145 32 -41 9 -102 23 -135 32 -39 11 -63 24 -69 36 -5 11 -39 34 -75
52 -36 17 -62 32 -58 32z"/>
<g>
<path d="M4379 8800 c-16 0 -38 -9 -49 -20 -13 -13 -20 -33 -20 -58 0 -25 7
-45 18 -55 10 -10 35 -17 55 -17 28 0 40 6 53 25 11 17 14 35 10 60 -4 19 -14
41 -22 50 -9 8 -29 15 -45 15z"/>
</g>
<g>
<path d="M4013 8658 c-11 2 -23 0 -26 -5 -3 -4 -5 -37 -5 -73 0 -36 -5 -132
-11 -215 -10 -138 -10 -151 6 -162 10 -8 45 -12 84 -12 38 1 76 7 85 14 12 8
15 18 9 31 -4 10 -9 26 -9 34 -1 11 -14 15 -56 15 l-55 0 -2 65 c-1 36 -1 90
-1 120 1 30 1 84 2 120 1 59 -1 65 -21 68z"/>
</g>
</g>
<g>
<path d="M9714 9868 c-21 2 -33 -2 -37 -12 -3 -8 3 -39 15 -68 11 -29 25 -63
29 -76 6 -14 16 -22 26 -20 10 2 22 20 30 47 12 41 11 48 -10 85 -18 33 -29
42 -53 44z"/>
</g>
<g>
<path d="M9113 9859 c-5 0 -18 -5 -29 -11 -12 -5 -29 -27 -38 -47 -8 -20 -23
-54 -32 -76 -10 -22 -23 -55 -30 -74 -11 -29 -10 -39 2 -63 8 -15 21 -28 28
-28 8 0 16 16 20 40 3 22 18 69 32 104 17 43 33 67 50 74 13 7 24 16 24 21 0
5 -4 21 -10 35 -5 14 -13 26 -17 25z"/>
</g>
<g>
<path d="M5539 9830 c-5 0 -13 -10 -18 -22 -5 -13 -18 -61 -28 -108 -11 -47
-17 -93 -15 -102 2 -10 10 -18 18 -18 7 0 22 17 33 38 10 20 22 67 26 103 4
37 4 76 0 88 -3 11 -11 21 -16 21z"/>
</g>
<g>
<path d="M9760 9557 c-8 2 -20 0 -26 -5 -6 -4 -15 -27 -19 -52 -4 -25 -14 -54
-21 -65 -8 -11 -14 -32 -14 -47 0 -23 4 -28 23 -28 19 0 30 12 51 54 20 40 26
65 24 97 -2 29 -8 45 -18 46z"/>
</g>
<g>
<path d="M9108 9400 c-9 0 -19 -9 -23 -20 -3 -10 1 -32 9 -48 8 -16 23 -32 31
-36 9 -3 25 -6 36 -6 12 0 19 7 19 21 0 11 -12 36 -27 55 -16 18 -36 34 -45
34z"/>
</g>
<g>
<path d="M9538 9268 c-13 -1 -42 -3 -66 -5 -26 -3 -45 -10 -49 -19 -3 -8 0
-21 7 -29 8 -9 30 -15 60 -15 34 0 52 5 65 20 9 10 15 26 12 35 -4 8 -17 14
-29 13z"/>
</g>
<g>
<path d="M1772 8820 c-4 0 -40 -15 -80 -32 -51 -21 -91 -47 -128 -83 -30 -30
-54 -62 -54 -72 0 -11 6 -27 13 -37 7 -10 22 -17 32 -15 10 2 27 21 38 42 11
21 38 50 61 64 22 14 64 37 93 49 29 13 53 29 53 35 0 5 -5 19 -10 30 -6 10
-14 19 -18 19z"/>
</g>
<g>
<path d="M2238 8740 c-13 0 -32 -6 -42 -13 -13 -9 -16 -20 -12 -35 5 -15 19
-23 44 -28 20 -4 59 -22 87 -41 27 -18 58 -33 67 -33 11 0 18 7 18 19 0 10
-10 29 -23 42 -13 13 -35 34 -49 46 -15 12 -35 26 -46 32 -12 6 -31 11 -44 11z"/>
</g>
<g>
<path d="M1492 8500 c-11 0 -30 -12 -41 -27 -12 -14 -24 -38 -27 -52 -3 -14
-10 -36 -15 -49 -5 -13 -9 -38 -9 -55 0 -18 5 -38 12 -45 7 -7 20 -12 30 -12
10 0 25 15 36 38 15 29 16 43 8 65 -7 20 -7 36 3 60 7 18 15 42 18 55 4 17 1
22 -15 22z"/>
</g>
<g>
<path d="M2430 8480 c-3 0 -11 -5 -17 -11 -8 -8 -10 -37 -7 -83 3 -39 7 -81
10 -93 3 -15 12 -23 24 -23 13 0 24 10 31 28 6 15 9 53 7 84 -3 37 -11 64 -23
78 -10 11 -21 20 -25 20z"/>
</g>
<g>
<path d="M1495 8127 c-6 2 -16 -2 -23 -9 -7 -7 -12 -27 -12 -46 0 -19 9 -51
20 -71 12 -20 35 -46 53 -58 18 -13 42 -30 54 -39 17 -12 26 -13 42 -4 12 6
21 19 21 30 0 10 -12 28 -26 39 -15 12 -33 21 -40 21 -7 0 -23 15 -36 32 -13
18 -28 48 -33 67 -6 19 -15 36 -20 38z"/>
</g>
<g>
<path d="M2408 8130 c-3 0 -10 -6 -16 -12 -5 -7 -19 -31 -30 -53 -11 -22 -41
-60 -66 -85 -25 -24 -46 -51 -46 -60 0 -9 5 -21 12 -28 7 -7 18 -12 25 -12 7
0 31 17 54 37 22 20 51 58 65 84 13 26 28 50 34 54 5 3 10 14 10 24 0 10 -8
25 -18 34 -10 10 -21 17 -24 17z"/>
</g>
<g>
<path d="M1803 7909 c-15 0 -34 -3 -40 -6 -7 -2 -13 -13 -13 -23 0 -9 6 -22
13 -27 6 -6 25 -13 40 -17 16 -4 37 -4 48 -1 12 4 19 15 19 30 0 14 -8 29 -19
35 -11 5 -32 10 -48 9z"/>
</g>
<g>
<path d="M2172 7910 c-11 0 -25 -7 -32 -15 -7 -8 -10 -22 -6 -31 3 -9 15 -14
28 -12 17 2 24 11 26 31 3 21 -1 27 -16 27z"/>
</g>
<g>
<path d="M7890 7617 l-62 6 4 -28 c2 -21 10 -31 29 -35 14 -4 42 -15 62 -25
20 -9 44 -15 52 -11 9 3 15 18 15 35 0 20 -7 34 -20 41 -10 6 -47 13 -80 17z"/>
</g>
<g>
<path d="M7365 7507 c-11 1 -37 -6 -57 -17 -20 -11 -43 -34 -52 -51 -9 -18
-16 -42 -16 -55 0 -13 5 -26 11 -30 7 -4 22 7 36 25 13 17 29 31 35 31 5 0 23
9 40 21 22 16 28 28 26 48 -2 17 -10 27 -23 28z"/>
</g>
<g>
<path d="M8074 7390 c-17 0 -24 -6 -24 -19 0 -10 12 -44 26 -75 18 -40 31 -56
42 -54 10 2 18 15 20 31 2 15 -6 48 -18 72 -17 35 -27 45 -46 45z"/>
</g>
<g>
<path d="M7196 7150 c-20 0 -24 -6 -30 -48 -3 -28 -1 -62 5 -80 10 -28 15 -32
47 -32 25 0 32 3 23 9 -8 5 -14 31 -16 67 -2 33 -3 65 -4 72 -1 6 -12 12 -25
12z"/>
</g>
<g>
<path d="M8129 7080 c-5 0 -14 -12 -19 -26 -6 -14 -10 -31 -10 -38 0 -8 -7
-19 -15 -26 -8 -7 -15 -20 -15 -29 0 -9 5 -22 12 -29 7 -7 20 -12 29 -12 9 0
21 12 27 28 6 15 14 44 18 65 4 24 2 43 -6 52 -7 8 -17 15 -21 15z"/>
</g>
<g>
<path d="M7289 6830 c-9 0 -19 -7 -23 -15 -3 -8 1 -30 9 -49 10 -24 28 -40 58
-55 24 -12 54 -21 66 -21 13 0 31 10 42 23 10 12 18 25 19 28 0 4 -21 10 -47
14 -35 5 -53 15 -76 41 -17 19 -38 34 -48 34z"/>
</g>
<g>
<path d="M7912 6790 c-9 0 -24 -5 -32 -10 -8 -5 -27 -10 -42 -10 -21 0 -29 -6
-34 -26 -4 -17 -1 -31 9 -42 14 -13 20 -14 41 -2 14 7 39 26 56 43 16 16 27
33 24 38 -3 5 -13 9 -22 9z"/>
</g>
</g>
</svg>
