<?xml version="1.0" standalone="no"?>
<!DOCTYPE svg PUBLIC "-//W3C//DTD SVG 20010904//EN"
 "http://www.w3.org/TR/2001/REC-SVG-20010904/DTD/svg10.dtd">
<svg version="1.0" xmlns="http://www.w3.org/2000/svg"
 width="1422.000000pt" height="2048.000000pt" viewBox="0 0 1422.000000 2048.000000"
 preserveAspectRatio="xMidYMid meet">
<metadata>
Created by potrace 1.16, written by Peter Selinger 2001-2019
</metadata>
<g transform="translate(0.000000,2048.000000) scale(0.100000,-0.100000)"
fill="#000000" stroke="none">
<g>
<path d="M8966 19500 c-40 0 -75 -2 -77 -4 -2 -3 -51 -9 -109 -15 -58 -6 -143
-13 -190 -15 -47 -3 -110 -10 -140 -16 -30 -6 -104 -13 -165 -15 -60 -3 -166
-7 -235 -10 -69 -3 -161 -10 -205 -16 -44 -6 -89 -12 -100 -13 -11 -2 -47 -8
-80 -15 -33 -7 -82 -18 -110 -26 -27 -8 -63 -16 -80 -19 -16 -3 -61 -11 -100
-19 -38 -8 -83 -19 -100 -25 -16 -6 -75 -18 -130 -27 -57 -10 -121 -14 -150
-11 -33 4 -56 2 -66 -7 -14 -10 -17 -49 -23 -257 -4 -134 -9 -247 -12 -251 -2
-3 -6 -109 -9 -235 -3 -126 -7 -287 -10 -359 -2 -71 -7 -231 -10 -355 -3 -124
-8 -398 -10 -610 -3 -212 -10 -437 -15 -500 -5 -63 -14 -140 -20 -170 -5 -30
-12 -73 -15 -95 -3 -21 -10 -57 -16 -79 -6 -22 -20 -46 -30 -54 -10 -7 -19
-24 -19 -36 0 -13 7 -29 15 -36 8 -7 15 -19 15 -26 0 -8 10 -14 21 -14 12 0
27 7 33 16 10 13 56 15 371 14 198 0 371 -1 385 -2 14 -1 153 2 310 6 157 4
303 11 325 16 22 5 92 14 155 20 63 7 118 14 122 16 3 2 28 7 55 10 26 3 95
12 153 20 58 8 143 21 190 29 47 8 119 19 160 25 41 7 91 9 110 6 19 -3 42 -1
49 4 12 7 14 31 12 117 -1 59 -6 135 -11 168 -5 33 -14 112 -19 175 -6 63 -15
187 -20 275 -6 88 -13 212 -17 275 -3 63 -7 221 -9 350 -3 129 -9 296 -14 370
-6 74 -13 187 -16 250 -4 63 -11 153 -16 200 -5 47 -12 114 -14 150 -3 36 -10
97 -15 135 -6 39 -16 99 -22 135 -6 37 -11 170 -11 308 l1 242 -72 0z m-58
-81 c28 0 52 -2 53 -6 0 -5 2 -37 3 -73 2 -36 6 -128 10 -205 3 -77 9 -158 11
-180 3 -22 7 -65 10 -95 3 -30 7 -86 10 -125 3 -38 15 -151 26 -250 11 -99 24
-196 29 -215 5 -19 12 -91 15 -160 3 -69 8 -228 10 -355 2 -126 7 -291 11
-365 3 -74 7 -157 9 -185 2 -27 8 -149 15 -270 6 -121 15 -247 20 -280 6 -33
10 -97 10 -142 0 -45 -5 -85 -10 -88 -6 -3 -47 -12 -93 -20 -45 -8 -125 -21
-177 -29 -52 -9 -120 -20 -150 -26 -30 -5 -111 -17 -180 -26 -69 -8 -138 -17
-155 -20 -16 -2 -79 -10 -140 -18 -76 -10 -225 -16 -480 -17 -203 -1 -495 -1
-647 0 l-278 1 0 31 c0 18 4 48 10 68 5 20 16 75 25 122 9 47 18 112 20 145 2
32 6 136 9 229 3 94 8 325 11 515 3 190 10 444 15 565 5 121 12 328 14 460 3
132 10 353 17 490 7 155 16 254 23 261 6 6 52 18 101 27 50 9 119 23 155 31
36 8 85 21 110 29 25 9 113 29 195 45 83 16 184 35 225 41 41 6 145 16 230 21
85 5 207 12 270 14 63 3 153 12 200 20 47 8 117 15 155 15 39 1 106 5 150 10
44 4 104 9 133 10z"/>
<g>
<path d="M8830 18230 c-14 0 -54 -18 -88 -39 -35 -21 -77 -51 -92 -66 -16 -15
-32 -42 -36 -59 -4 -17 -6 -42 -5 -56 2 -14 9 -32 17 -41 8 -9 37 -29 66 -44
47 -25 57 -27 127 -22 75 6 76 6 119 52 23 26 42 54 42 63 0 10 -7 44 -15 77
-9 33 -17 67 -18 75 -2 8 -23 25 -47 38 -24 12 -56 22 -70 22z m-7 -71 c9 1
27 -11 40 -25 12 -14 25 -35 29 -47 3 -12 6 -39 7 -59 1 -33 -2 -37 -35 -48
-20 -7 -56 -12 -80 -12 -29 1 -54 9 -74 24 -16 12 -30 29 -30 39 0 9 10 19 23
23 14 3 27 18 35 38 6 18 24 40 39 50 16 9 36 17 46 17z"/>
</g>
</g>
<g>
<path d="M1414 19200 c-5 0 -17 -5 -26 -11 -10 -5 -18 -21 -18 -35 0 -15 7
-27 18 -30 9 -3 28 -11 41 -17 13 -7 68 -55 121 -108 58 -57 127 -114 169
-139 39 -23 88 -48 109 -55 l37 -13 -25 -10 c-14 -6 -32 -17 -39 -26 -7 -9
-19 -16 -26 -16 -6 0 -20 -9 -30 -20 -10 -11 -23 -20 -30 -20 -7 0 -20 -9 -30
-20 -10 -11 -23 -20 -30 -20 -7 0 -47 -34 -90 -75 -42 -41 -81 -75 -85 -75 -5
0 -30 -28 -57 -61 -26 -34 -56 -69 -65 -77 -10 -9 -18 -20 -18 -25 0 -4 -9
-27 -20 -49 -13 -28 -20 -62 -20 -105 l0 -63 50 -39 c28 -22 60 -43 73 -46 12
-4 51 -20 87 -37 36 -17 94 -45 130 -63 36 -18 83 -38 105 -45 22 -7 57 -22
78 -33 20 -10 37 -25 37 -33 0 -8 -15 -29 -33 -47 -19 -17 -52 -66 -74 -108
-22 -41 -43 -89 -46 -105 -3 -16 -11 -51 -17 -79 -7 -27 -14 -71 -17 -97 -5
-45 -3 -49 39 -93 23 -25 59 -55 80 -65 20 -11 38 -23 40 -28 1 -4 45 -39 96
-77 50 -37 92 -69 92 -71 0 -1 -22 -25 -49 -53 -32 -31 -55 -66 -63 -93 -7
-24 -13 -88 -13 -143 1 -74 5 -108 17 -131 9 -17 33 -43 52 -57 19 -15 37 -27
39 -27 3 0 29 -16 58 -35 29 -19 65 -37 80 -40 15 -4 33 -13 40 -21 6 -8 17
-14 24 -14 7 0 18 -7 25 -15 10 -12 10 -23 -4 -58 -9 -23 -16 -51 -16 -61 0
-11 17 -40 38 -65 20 -25 82 -92 137 -148 55 -56 110 -113 122 -126 20 -22 21
-26 8 -37 -11 -9 -15 -33 -15 -87 0 -53 5 -81 17 -101 10 -15 25 -33 33 -40 8
-7 29 -19 46 -27 18 -8 102 -24 188 -35 114 -15 162 -18 176 -10 11 6 20 15
20 21 0 5 -10 13 -22 18 -13 5 -52 12 -88 15 -36 4 -100 14 -144 22 -43 8 -79
14 -81 14 -1 0 -11 8 -21 18 -11 9 -28 30 -38 45 -14 23 -16 39 -11 77 4 27
15 56 25 65 10 9 23 14 29 11 5 -4 59 -7 118 -7 95 -1 115 2 166 24 50 23 57
29 57 55 0 16 -8 36 -18 45 -12 11 -45 19 -94 23 -48 4 -94 2 -129 -6 -30 -7
-61 -16 -69 -21 -8 -4 -31 -14 -50 -23 -32 -14 -37 -13 -63 3 -15 10 -80 69
-143 132 -64 63 -120 123 -124 134 -4 11 -3 31 2 44 5 13 17 36 28 50 l18 26
219 0 c158 0 229 4 258 14 22 7 50 26 62 41 12 15 28 48 34 72 7 25 10 52 6
60 -3 9 -32 29 -64 44 -42 21 -73 28 -113 28 -30 0 -97 -11 -148 -26 -50 -14
-111 -38 -135 -54 -23 -16 -62 -46 -86 -66 -33 -29 -53 -38 -80 -38 -22 0 -65
14 -106 35 -39 20 -81 42 -95 50 -14 8 -46 32 -71 54 -40 35 -48 47 -57 98 -7
35 -8 72 -3 93 4 19 20 59 35 88 14 28 31 52 36 52 5 0 16 15 24 33 7 18 24
40 38 49 17 11 53 17 119 19 52 2 171 0 264 -5 l171 -8 43 36 c23 20 48 36 55
36 7 0 22 10 34 23 12 13 22 27 22 32 0 5 7 16 15 25 9 10 13 24 9 33 -3 9
-20 24 -37 33 -23 13 -64 18 -152 21 -66 3 -151 0 -190 -6 -38 -5 -90 -14
-115 -19 -25 -5 -66 -20 -92 -33 -26 -13 -72 -41 -103 -63 -53 -36 -57 -38
-88 -25 -17 7 -78 44 -135 83 -57 38 -117 85 -133 104 -28 31 -29 37 -26 105
3 54 12 89 36 141 17 38 31 74 31 81 0 6 7 25 15 41 7 16 31 45 52 64 22 19
50 41 64 48 18 9 48 11 104 7 44 -4 195 -8 335 -9 l255 -3 65 27 c36 15 110
48 165 74 84 40 103 53 116 82 16 33 16 35 -4 45 -11 6 -37 9 -58 6 -30 -4
-51 2 -95 25 -32 16 -82 36 -113 45 -31 9 -74 18 -97 20 -28 3 -44 0 -53 -11
-10 -12 -17 -13 -30 -4 -14 8 -24 6 -47 -10 -16 -11 -50 -23 -76 -27 -25 -3
-52 -13 -58 -20 -7 -8 -23 -15 -37 -15 -13 0 -43 -10 -66 -22 -23 -12 -51 -23
-62 -24 -10 -1 -21 -7 -23 -13 -2 -6 -12 -11 -23 -11 -10 0 -49 -16 -86 -36
-45 -23 -82 -35 -109 -35 -22 -1 -61 5 -85 11 -24 7 -49 16 -54 20 -6 5 -35
18 -65 30 -30 11 -91 38 -135 59 -44 22 -107 51 -140 66 -33 15 -70 37 -82 48
-18 16 -23 31 -23 69 0 27 7 63 16 81 9 18 33 55 52 82 20 28 74 87 120 133
46 45 114 103 150 127 37 25 99 68 137 95 69 50 71 50 129 45 32 -4 66 -10 75
-15 9 -5 63 -18 121 -29 58 -11 153 -27 211 -35 60 -9 136 -14 176 -11 41 3
109 19 165 39 52 18 119 49 149 69 31 20 61 48 69 62 12 22 11 29 -6 61 -10
19 -26 41 -34 49 -8 7 -49 23 -90 34 -41 11 -100 27 -130 36 -30 8 -93 15
-142 15 -47 0 -99 -5 -115 -11 -15 -6 -67 -12 -115 -14 -85 -2 -88 -3 -155
-47 -37 -25 -84 -51 -103 -58 -19 -7 -42 -20 -50 -29 -8 -9 -28 -23 -43 -30
-23 -12 -38 -13 -83 -3 -30 6 -83 28 -117 49 -34 20 -121 95 -193 165 -73 70
-136 128 -140 128z m1066 -215 c8 -2 49 -7 90 -10 41 -4 82 -9 90 -11 8 -1 33
-6 55 -10 22 -4 61 -18 88 -31 26 -13 47 -29 47 -36 0 -7 -12 -25 -27 -39 -16
-14 -55 -34 -88 -43 -33 -10 -69 -21 -80 -26 -11 -4 -44 -13 -73 -18 -29 -6
-77 -11 -106 -11 -29 0 -104 7 -167 16 -63 8 -127 17 -144 19 -16 2 -63 12
-103 21 l-73 17 28 23 c15 13 33 23 39 24 6 0 17 6 23 14 7 8 47 25 89 39 42
14 113 31 157 37 44 7 94 16 110 20 17 5 37 7 45 5z m92 -916 c52 1 92 -7 177
-35 61 -19 111 -39 111 -44 0 -4 -15 -15 -32 -23 -18 -8 -67 -31 -108 -50
l-76 -35 -194 -4 c-107 -3 -237 -3 -287 0 -52 2 -90 8 -87 14 3 5 27 19 52 31
26 13 56 28 67 34 11 6 41 20 66 31 26 11 64 24 85 28 22 4 53 14 69 23 17 9
44 19 60 22 17 4 60 7 97 8z m36 -830 c18 0 48 -6 67 -13 19 -8 35 -18 35 -22
0 -4 -8 -13 -17 -21 -10 -7 -35 -23 -56 -34 -21 -11 -59 -21 -85 -22 -26 -1
-116 -1 -200 1 -117 1 -153 5 -150 15 2 6 29 24 59 39 30 15 75 30 99 33 25 4
83 10 130 14 47 5 100 9 118 10z m117 -625 c27 -3 64 -12 82 -21 18 -8 33 -22
33 -30 0 -8 -11 -24 -25 -37 -13 -12 -48 -28 -77 -34 -29 -6 -91 -11 -138 -11
-47 -1 -109 2 -137 5 l-53 6 34 27 c18 15 51 34 72 43 22 9 66 26 99 37 41 13
76 18 110 15z m75 -592 c17 -2 30 -8 30 -13 0 -5 -26 -9 -57 -8 -55 1 -56 1
-30 13 15 7 41 10 57 8z"/>
</g>
<g>
<path d="M3953 18880 c-6 0 -16 -7 -23 -15 -6 -8 -18 -69 -26 -135 -8 -67 -23
-149 -34 -182 -11 -34 -20 -85 -20 -114 0 -41 4 -55 18 -62 9 -5 35 -12 57
-15 22 -4 49 -8 60 -11 11 -2 24 -5 29 -5 5 -1 6 -103 0 -253 -5 -139 -9 -449
-10 -688 -1 -239 0 -613 3 -832 3 -218 9 -402 13 -408 5 -8 48 -16 111 -21 57
-5 129 -13 159 -19 30 -6 78 -12 106 -14 28 -1 56 -6 63 -10 7 -5 72 -12 146
-16 73 -5 150 -13 171 -19 22 -5 95 -11 164 -13 l125 -3 3 25 c2 14 7 133 12
265 4 132 11 380 14 552 3 172 10 363 15 425 6 62 12 219 15 348 3 129 10 363
16 520 6 157 12 326 13 377 1 62 -2 96 -10 104 -7 7 -58 16 -120 20 -60 5
-133 15 -163 24 -30 9 -87 23 -125 31 -39 7 -129 21 -200 29 -72 8 -173 23
-225 33 -52 11 -138 29 -190 41 -52 12 -109 26 -126 32 -17 5 -35 9 -41 9z
m65 -81 c15 0 47 -4 72 -9 25 -5 77 -15 115 -23 39 -8 84 -18 100 -21 17 -3
66 -12 110 -20 44 -9 114 -20 155 -26 41 -6 111 -15 155 -21 44 -7 89 -16 100
-22 11 -6 25 -12 30 -13 6 -1 37 -7 69 -13 33 -6 74 -11 91 -11 17 0 39 -6 49
-13 16 -12 17 -32 16 -202 -1 -105 -5 -395 -10 -645 -5 -250 -12 -479 -15
-509 -3 -30 -8 -58 -10 -61 -2 -4 -5 -96 -5 -206 -1 -109 -6 -237 -10 -284 -5
-47 -12 -188 -15 -315 -3 -126 -8 -240 -12 -252 -5 -21 -11 -23 -73 -23 -37 0
-105 6 -151 14 -46 8 -127 17 -179 20 -52 4 -113 12 -134 17 -22 6 -74 15
-115 20 -42 5 -116 15 -166 24 -49 8 -93 15 -97 15 -3 0 -9 46 -12 103 -3 56
-8 156 -10 222 -3 66 -6 347 -6 625 -1 278 2 653 6 833 4 180 11 330 16 333 4
3 8 18 8 33 0 22 -7 31 -27 39 -16 6 -48 14 -73 18 -25 3 -51 11 -57 16 -7 6
-13 25 -13 43 0 18 9 77 20 131 11 55 27 118 36 142 13 35 20 42 42 41z"/>
<g>
<path d="M4889 17436 c-33 10 -44 8 -99 -17 -33 -16 -74 -29 -90 -29 -21 0
-30 -6 -35 -22 -3 -13 -10 -32 -14 -43 -5 -11 -16 -37 -25 -58 l-16 -38 32
-29 c31 -29 32 -29 141 -25 98 3 112 6 134 27 14 13 32 36 40 52 11 21 14 47
10 90 -4 43 -10 62 -24 70 -10 6 -34 16 -54 22z m-34 -76 c18 0 35 -6 38 -13
3 -7 3 -25 0 -40 -3 -14 -12 -32 -20 -38 -8 -7 -27 -14 -43 -16 -16 -1 -35 -4
-42 -5 -8 -2 -14 10 -16 33 -3 30 2 41 24 58 15 12 41 21 59 21z"/>
</g>
</g>
<g>
<path d="M10868 17829 c-7 0 -24 -14 -37 -30 l-24 -30 22 -48 c21 -44 22 -61
22 -246 0 -110 -2 -346 -5 -525 -2 -179 -6 -336 -10 -350 -4 -14 -2 -39 4 -54
l10 -28 114 7 c76 4 121 3 134 -4 11 -6 64 -17 119 -25 54 -8 139 -17 189 -20
51 -3 98 -8 106 -11 8 -3 21 1 28 10 12 14 10 58 -10 283 -20 237 -22 292 -14
487 4 121 7 264 6 319 -2 54 2 123 8 153 6 29 8 67 5 84 -7 29 -8 30 -48 24
-23 -4 -69 -13 -102 -21 -33 -9 -78 -20 -100 -26 -22 -6 -94 -10 -160 -9 -66
1 -145 6 -177 12 -41 8 -58 16 -61 30 -3 11 -11 19 -19 18z m577 -83 c19 -1
20 -9 23 -141 2 -77 -2 -183 -9 -236 -9 -77 -9 -153 1 -375 7 -154 15 -313 17
-355 4 -61 1 -78 -12 -89 -13 -11 -37 -12 -133 -2 -64 6 -143 18 -175 27 -32
8 -97 15 -145 15 -48 0 -93 4 -100 8 -10 7 -14 66 -18 238 -3 126 -2 373 2
549 l6 320 192 1 c162 0 202 4 261 21 39 11 79 20 90 19z"/>
<g>
<path d="M11315 17284 c-29 5 -46 2 -62 -9 -13 -9 -28 -25 -34 -36 -8 -16 -7
-26 6 -46 10 -15 14 -34 11 -48 -5 -18 1 -29 25 -49 17 -15 43 -26 59 -26 19
0 36 10 54 31 21 24 26 41 26 83 0 42 -5 57 -22 73 -13 12 -41 24 -63 27z m3
-76 c9 -2 18 -12 20 -23 1 -11 -2 -27 -8 -35 -9 -13 -11 -13 -20 0 -5 8 -10
25 -10 38 0 17 5 23 18 20z"/>
</g>
</g>
<g>
<path d="M11428 15647 c-20 4 -29 0 -38 -17 -10 -18 -9 -36 0 -82 9 -39 11
-90 6 -151 -4 -51 -9 -130 -11 -177 -2 -47 5 -188 16 -314 10 -126 19 -311 19
-412 l0 -184 -112 5 c-62 3 -128 8 -146 11 -19 3 -39 0 -47 -6 -7 -6 -11 -21
-8 -33 3 -12 10 -28 16 -35 6 -7 28 -11 56 -10 25 1 84 1 131 0 47 -1 91 -6
99 -11 9 -6 17 -35 21 -73 4 -35 13 -77 21 -93 8 -17 22 -31 32 -33 15 -3 17
1 13 30 -3 18 -8 64 -12 102 l-6 69 105 -7 c59 -4 124 -2 149 3 23 5 72 12
108 15 36 3 155 6 265 7 110 0 207 -3 216 -6 11 -4 24 3 38 24 19 26 21 36 12
68 -5 21 -13 76 -16 123 -3 47 -11 126 -16 175 -6 50 -22 140 -35 200 -14 61
-30 124 -35 140 -6 17 -12 46 -14 65 -3 19 -9 73 -15 120 -6 47 -15 110 -20
140 -5 30 -16 93 -24 140 -9 47 -19 106 -23 132 l-8 48 -330 4 c-181 2 -341 7
-355 11 -14 4 -37 9 -52 12z m147 -83 c28 -2 124 -6 215 -9 91 -2 197 -4 237
-5 l71 0 11 -32 c6 -18 13 -53 16 -78 2 -25 9 -63 15 -85 5 -22 10 -66 10 -98
0 -32 6 -70 13 -85 8 -15 15 -49 16 -77 1 -27 10 -79 20 -115 11 -36 28 -110
40 -165 12 -55 26 -165 32 -245 6 -80 13 -169 16 -198 l5 -53 -59 2 c-32 1
-149 -1 -260 -4 -111 -4 -223 -11 -249 -17 -26 -6 -67 -8 -91 -4 -24 3 -58 8
-76 9 -18 2 -42 3 -53 4 -21 1 -22 4 -27 274 -3 149 -8 299 -12 332 -3 33 -10
97 -14 142 -5 46 -5 142 0 215 5 73 10 167 11 208 3 74 3 75 33 81 17 4 53 5
80 3z"/>
<g>
<path d="M12079 15120 c-18 0 -40 -13 -68 -42 -35 -36 -41 -49 -41 -85 0 -34
5 -45 28 -61 15 -11 44 -23 64 -27 22 -4 38 -3 43 4 3 6 11 9 16 5 6 -3 19 2
30 12 15 13 19 30 19 79 0 58 -2 64 -32 89 -17 14 -44 26 -59 26z m6 -83 c5
-2 10 -15 10 -28 0 -17 -6 -25 -22 -27 -13 -2 -23 1 -23 7 0 6 6 20 12 31 7
11 17 19 23 17z"/>
</g>
</g>
<g>
<path d="M6891 15450 c-10 0 -20 -2 -23 -5 -2 -3 -63 -5 -134 -5 -71 -1 -176
-5 -234 -10 -58 -5 -157 -12 -220 -16 -63 -4 -131 -8 -150 -10 -19 -2 -116 -4
-215 -4 -99 -1 -185 -6 -191 -10 -7 -6 -10 -88 -8 -242 0 -128 -2 -303 -7
-388 -5 -100 -4 -205 3 -295 7 -77 11 -187 11 -245 -1 -59 -8 -131 -17 -165
-9 -32 -16 -79 -16 -102 0 -41 -1 -43 -29 -43 -19 0 -35 -8 -45 -22 -11 -15
-12 -26 -5 -40 6 -11 21 -18 38 -18 17 0 31 -6 35 -16 3 -9 6 -29 6 -45 0 -24
4 -29 25 -29 17 0 26 7 29 23 3 12 7 31 8 42 3 18 13 21 123 26 66 4 136 9
155 13 19 4 64 11 100 16 36 5 97 12 135 15 39 3 104 10 145 16 41 6 93 17
115 24 22 8 94 25 160 38 66 14 153 26 193 26 40 1 88 -3 106 -9 23 -7 41 -8
61 0 l28 11 -7 147 c-4 81 -13 185 -21 232 -8 47 -17 141 -20 210 -3 69 -11
154 -16 190 -6 36 -17 97 -24 135 -8 39 -22 140 -32 225 -9 85 -19 189 -22
230 -3 41 -10 81 -14 88 -5 6 -16 12 -26 12z m-147 -82 l129 3 -6 -38 c-4 -21
3 -112 14 -203 11 -91 26 -185 34 -210 7 -25 14 -69 14 -99 1 -29 4 -57 6 -61
3 -5 14 -106 26 -227 12 -120 24 -276 28 -347 4 -83 2 -130 -4 -132 -5 -2 -62
-8 -125 -15 -63 -6 -122 -12 -130 -13 -8 -2 -35 -6 -60 -10 -25 -4 -74 -16
-110 -26 -36 -10 -101 -25 -145 -33 -44 -8 -143 -21 -219 -27 -77 -7 -164 -18
-195 -24 -31 -6 -97 -10 -148 -8 -86 3 -92 4 -95 25 -2 12 0 51 4 87 4 36 12
99 19 140 8 56 9 132 1 295 -5 121 -8 267 -7 325 2 58 7 204 10 326 l7 221
152 6 c83 3 201 10 261 16 61 6 178 15 260 19 83 4 208 8 279 10z"/>
<g>
<path d="M6728 14863 c-29 3 -51 0 -57 -7 -5 -6 -15 -38 -22 -72 -7 -33 -10
-68 -6 -76 3 -9 26 -26 52 -38 34 -16 57 -21 86 -17 23 3 49 13 60 23 10 9 19
29 19 44 0 15 -3 41 -6 58 -4 20 -19 39 -43 55 -20 14 -57 27 -83 30z m23 -73
c4 0 15 -7 23 -16 9 -8 16 -22 16 -30 0 -8 -10 -18 -22 -23 -13 -5 -29 -6 -35
-4 -7 3 -13 15 -13 27 0 12 5 27 12 34 7 7 15 12 19 12z"/>
</g>
</g>
<g>
<path d="M4148 15077 c-29 4 -38 1 -47 -14 -5 -11 -15 -127 -20 -259 -6 -131
-15 -313 -21 -404 -5 -91 -9 -338 -9 -550 0 -225 -5 -424 -11 -480 -7 -52 -13
-240 -15 -417 l-3 -322 22 -24 c19 -21 33 -25 82 -26 32 -1 131 -4 219 -7 88
-4 205 -7 260 -7 55 0 143 1 195 2 52 1 110 -1 127 -5 29 -6 34 -3 43 21 7 19
7 38 1 59 -6 17 -13 63 -16 101 -4 39 -8 239 -9 445 -1 206 -8 429 -14 495 -7
66 -17 210 -24 320 -6 110 -14 270 -18 355 -4 85 -10 227 -13 315 -4 88 -9
206 -13 263 l-6 102 -176 -5 c-98 -2 -231 0 -297 6 -66 6 -138 15 -160 21 -22
5 -56 12 -77 15z m104 -93 c46 -3 111 -13 146 -21 39 -9 78 -12 100 -8 20 4
91 7 157 6 65 -1 124 -6 129 -11 5 -5 13 -98 17 -207 4 -109 12 -210 18 -225
6 -16 8 -64 5 -112 -2 -47 2 -166 11 -266 8 -100 15 -216 15 -259 0 -43 5
-103 10 -132 6 -30 14 -110 17 -179 4 -69 7 -159 7 -200 0 -41 -2 -201 -4
-355 -2 -154 -1 -299 4 -322 l8 -42 -49 -8 c-26 -4 -131 -7 -233 -6 -102 1
-241 7 -310 12 -69 5 -141 14 -161 20 -32 10 -37 16 -49 63 -8 31 -13 107 -13
188 0 74 6 227 12 340 7 113 14 223 17 245 2 22 6 184 9 360 2 176 6 392 10
480 3 88 7 219 10 290 3 72 10 175 16 230 6 55 13 105 15 112 2 9 25 11 86 7z"/>
<g>
<path d="M4665 13984 c-14 4 -29 -5 -50 -31 -16 -20 -33 -45 -36 -57 -3 -12 0
-33 7 -47 8 -16 30 -33 54 -43 22 -9 52 -16 66 -16 14 0 36 11 49 25 19 18 25
35 25 68 0 28 -7 53 -17 66 -10 12 -31 23 -48 26 -16 2 -39 6 -50 9z m32 -74
c17 0 24 -5 21 -16 -2 -9 -10 -22 -20 -27 -12 -8 -21 -7 -32 2 -12 11 -14 17
-5 27 6 8 22 14 36 14z"/>
</g>
</g>
<g>
<path d="M9949 14979 c-19 -1 -52 -5 -75 -9 -22 -5 -123 -11 -225 -15 -101 -3
-281 -10 -400 -14 -119 -5 -223 -12 -230 -16 -7 -5 -26 -10 -43 -11 -17 -1
-89 -5 -159 -8 -79 -3 -134 -9 -143 -17 -11 -9 -13 -23 -8 -56 4 -28 2 -48 -6
-58 -9 -10 -10 -32 -5 -72 3 -32 13 -98 22 -147 9 -58 15 -167 16 -315 1 -124
1 -435 -1 -691 -2 -256 0 -483 3 -505 4 -22 12 -46 17 -52 6 -8 33 -13 64 -13
29 0 75 -7 101 -16 43 -15 97 -16 514 -10 257 4 506 11 554 17 48 5 96 7 106
4 11 -4 21 1 28 13 8 14 6 57 -4 148 -9 71 -20 147 -25 169 -5 22 -30 128 -54
235 -36 155 -46 216 -47 295 -1 55 -2 165 -3 245 0 80 0 228 1 330 0 102 6
220 12 263 6 43 14 130 18 193 l6 114 -34 -1z m-62 -72 l26 3 -8 -149 c-4 -83
-10 -165 -14 -183 -5 -19 -6 -209 -4 -423 3 -335 7 -405 24 -495 11 -58 30
-150 44 -205 13 -55 28 -129 35 -165 6 -36 15 -103 20 -150 6 -56 6 -88 0 -94
-6 -6 -103 -14 -218 -17 -114 -4 -349 -8 -522 -9 -263 -2 -322 1 -357 14 -24
8 -43 14 -43 12 0 -2 -21 3 -47 9 -45 11 -48 15 -55 51 -4 21 -8 100 -9 174
-1 74 -2 158 -2 185 0 28 2 212 6 410 4 198 8 398 8 445 1 47 -2 123 -7 170
-5 47 -9 141 -9 210 l0 125 40 3 c22 1 65 7 95 13 30 5 91 16 135 24 47 8 199
17 370 21 160 3 330 9 378 13 49 3 100 7 114 8z"/>
<g>
<path d="M9732 14220 c-4 0 -23 -13 -42 -30 -19 -16 -45 -29 -56 -30 -12 0
-25 -7 -28 -16 -3 -9 -6 -26 -6 -38 0 -13 9 -35 21 -50 11 -14 33 -33 49 -41
15 -8 43 -15 62 -17 18 -1 39 2 46 6 6 4 19 32 28 61 8 30 13 64 9 74 -3 11
-22 34 -41 50 -19 17 -38 31 -42 31z m-8 -93 c6 -2 12 -13 14 -25 3 -17 -2
-22 -17 -22 -14 0 -21 6 -21 18 0 10 3 22 7 26 4 3 12 5 17 3z"/>
</g>
</g>
<g>
<path d="M1715 13803 c-16 3 -40 2 -52 0 -12 -2 -25 -13 -28 -23 -4 -11 1 -59
10 -106 14 -73 15 -136 10 -403 -3 -174 -12 -401 -20 -504 -8 -104 -20 -219
-26 -255 -8 -45 -9 -109 -4 -202 5 -74 9 -175 9 -225 l1 -90 65 0 c36 0 139 6
230 13 91 7 219 19 285 27 66 8 179 17 250 20 72 3 162 8 200 10 39 1 104 6
146 10 43 4 83 11 90 16 11 6 11 18 1 61 -7 29 -17 85 -22 123 -5 39 -14 124
-20 190 -6 66 -10 149 -11 185 0 36 4 130 9 210 5 87 5 193 -1 265 -5 66 -10
222 -11 347 0 124 -5 230 -9 234 -4 4 -38 9 -75 10 -37 1 -123 5 -192 9 -69 3
-159 15 -201 25 -41 11 -131 22 -199 25 -68 3 -127 8 -132 11 -5 3 -68 7 -141
10 -72 2 -145 5 -162 7z m90 -75 c22 1 70 -3 108 -8 37 -6 122 -12 190 -14 67
-3 142 -7 167 -11 25 -4 74 -13 110 -20 36 -8 97 -16 135 -19 39 -3 106 -8
150 -11 43 -3 80 -7 81 -8 1 -1 4 -72 7 -157 3 -85 10 -222 17 -305 9 -114 9
-200 0 -355 -10 -186 -9 -223 9 -403 12 -108 21 -215 21 -237 0 -22 -3 -39 -7
-38 -5 1 -51 -1 -103 -5 -52 -4 -153 -9 -225 -13 -71 -3 -186 -12 -255 -20
-69 -8 -207 -19 -307 -25 -100 -6 -189 -9 -198 -5 -11 4 -15 18 -14 48 0 24
-4 93 -10 153 -6 61 -8 151 -5 200 4 50 10 97 14 105 4 8 11 69 14 135 4 66 9
242 12 390 3 149 5 347 5 442 -1 170 -1 172 22 176 12 2 40 5 62 5z"/>
<g>
<path d="M2538 13040 c-24 0 -46 -8 -65 -24 -16 -14 -35 -42 -41 -64 -7 -22
-12 -48 -12 -59 0 -10 15 -34 34 -52 28 -27 42 -33 82 -34 45 -2 49 0 76 39
27 40 27 44 17 100 -8 38 -19 65 -33 76 -11 10 -38 18 -58 18z m14 -68 c5 -5
12 -27 15 -49 4 -28 1 -42 -11 -52 -14 -12 -19 -11 -36 4 -11 10 -20 26 -20
35 0 10 10 29 21 44 14 17 25 24 31 18z"/>
</g>
</g>
<g>
<path d="M9948 11350 c-10 0 -18 -4 -18 -10 0 -5 -9 -10 -21 -10 -12 0 -34
-14 -49 -30 -16 -17 -43 -33 -61 -37 -19 -3 -56 -15 -84 -26 -27 -10 -63 -22
-80 -26 -16 -5 -55 -18 -85 -30 -30 -13 -107 -47 -170 -77 -63 -30 -122 -59
-130 -64 -8 -5 -46 -28 -85 -51 -38 -24 -106 -69 -150 -100 -44 -32 -119 -95
-167 -141 -48 -46 -119 -126 -158 -178 -38 -52 -88 -129 -110 -172 -22 -42
-55 -116 -74 -165 -19 -48 -41 -122 -49 -163 -9 -41 -17 -111 -18 -155 -2 -44
0 -100 5 -125 4 -25 19 -99 32 -165 14 -66 32 -130 39 -142 8 -12 15 -29 15
-38 0 -9 9 -33 20 -53 10 -20 39 -78 64 -128 l45 -91 -50 -71 c-27 -39 -49
-77 -49 -83 0 -7 -9 -32 -20 -55 -16 -32 -22 -70 -26 -161 -3 -66 -1 -153 6
-198 6 -44 13 -128 15 -188 2 -59 7 -112 10 -117 3 -6 3 -10 0 -10 -4 0 -39
22 -78 50 -40 27 -105 81 -145 120 -39 38 -81 70 -92 70 -10 0 -30 -5 -43 -11
-14 -6 -29 -21 -35 -34 -6 -12 -18 -63 -27 -111 -9 -49 -21 -114 -26 -144 -6
-30 -22 -88 -35 -128 -13 -40 -36 -130 -50 -200 -15 -70 -30 -152 -34 -182 -4
-30 -14 -80 -22 -111 -9 -30 -23 -76 -31 -101 -9 -25 -19 -81 -22 -124 -4 -44
-19 -131 -35 -194 -16 -63 -36 -153 -45 -200 -10 -47 -21 -105 -25 -130 -5
-25 -15 -70 -23 -101 -9 -31 -20 -65 -26 -75 -6 -11 -29 -97 -52 -193 -41
-168 -42 -174 -24 -187 10 -8 29 -14 41 -14 12 0 27 7 34 15 7 9 17 34 21 58
5 23 14 67 19 97 5 30 17 93 25 140 8 47 23 124 34 171 10 47 24 96 30 108 7
12 9 26 5 32 -3 6 1 18 10 27 8 10 23 60 31 112 9 52 22 133 29 180 6 47 17
94 23 106 7 12 10 37 6 58 -3 19 -1 41 4 48 5 7 11 35 12 63 2 27 8 59 14 70
6 11 14 38 19 60 5 22 13 63 18 90 5 28 14 82 19 120 5 39 16 98 25 133 9 35
25 82 35 105 11 24 23 55 26 70 4 15 11 30 16 33 5 3 9 -122 9 -288 0 -161 5
-333 10 -383 6 -49 12 -101 15 -115 2 -14 9 -70 15 -125 6 -55 15 -145 19
-201 5 -56 13 -110 19 -120 5 -10 13 -59 16 -109 3 -49 8 -193 12 -320 3 -126
9 -234 11 -238 3 -5 8 -37 10 -70 3 -34 5 -152 5 -262 0 -110 -5 -238 -11
-285 -6 -46 -11 -142 -11 -212 0 -120 -1 -129 -26 -165 -14 -21 -39 -64 -55
-95 -16 -32 -29 -62 -29 -69 0 -6 -8 -23 -19 -37 -10 -15 -22 -41 -25 -58 -4
-18 -20 -53 -36 -78 -16 -25 -32 -57 -36 -71 -3 -13 -12 -29 -20 -36 -8 -6
-14 -21 -14 -32 0 -12 -10 -37 -23 -56 -12 -20 -28 -45 -34 -56 -7 -11 -21
-39 -32 -61 -10 -23 -22 -57 -26 -75 -4 -19 -13 -45 -21 -59 -7 -14 -36 -73
-64 -132 -27 -59 -50 -111 -50 -116 0 -5 -14 -36 -31 -68 -18 -32 -40 -70 -50
-83 -11 -13 -19 -31 -19 -41 0 -9 -10 -26 -23 -38 -13 -12 -51 -79 -86 -149
-35 -71 -75 -153 -90 -183 -16 -30 -31 -68 -35 -85 -4 -16 -19 -54 -33 -83
l-26 -52 79 -75 c43 -41 81 -76 84 -77 3 -2 26 -28 51 -58 26 -30 57 -64 69
-75 12 -11 31 -31 43 -44 12 -12 43 -47 69 -77 26 -29 60 -73 75 -96 15 -24
30 -45 33 -48 3 -3 16 -19 28 -37 12 -17 37 -48 54 -70 18 -21 59 -63 90 -93
32 -31 58 -61 58 -68 0 -7 4 -12 8 -12 4 0 31 -29 60 -65 29 -36 52 -68 52
-71 0 -3 4 -10 9 -17 6 -7 25 -30 43 -52 19 -22 52 -65 74 -95 22 -30 48 -72
57 -92 10 -20 22 -40 27 -43 6 -3 10 -15 10 -25 0 -13 -14 -27 -37 -39 -21
-10 -71 -30 -112 -45 -41 -15 -86 -33 -100 -40 -14 -8 -46 -20 -71 -27 -25 -7
-79 -27 -120 -45 -41 -17 -91 -35 -110 -39 -19 -4 -43 -14 -52 -23 -10 -8 -18
-25 -18 -37 0 -11 5 -26 12 -33 7 -7 21 -12 31 -12 10 0 35 7 55 17 21 9 69
31 107 48 39 18 81 36 95 39 14 4 43 14 65 23 22 8 49 20 59 25 11 6 49 22 85
35 36 14 100 38 141 52 67 24 76 30 81 56 3 20 -1 38 -13 54 -10 13 -18 32
-18 41 0 10 -7 23 -16 31 -8 7 -36 44 -61 83 -25 39 -74 107 -108 151 -34 44
-81 97 -104 118 -22 20 -41 42 -41 47 0 6 -22 39 -49 73 -27 34 -78 90 -113
123 -34 34 -82 85 -105 115 -24 29 -43 59 -43 66 0 7 -13 30 -28 51 -16 20
-55 66 -88 101 -32 35 -112 118 -176 185 -73 74 -118 128 -118 141 0 11 14 47
30 79 17 32 30 65 30 73 0 9 15 45 34 82 18 36 53 107 77 156 24 50 58 108 76
131 18 23 33 46 33 51 0 6 9 22 20 35 11 14 35 68 53 119 19 52 51 128 71 171
20 42 36 80 36 85 0 4 26 62 57 128 32 65 105 214 163 330 l106 210 34 -3 c19
-1 49 5 66 15 32 16 33 16 71 -8 21 -14 49 -30 63 -37 14 -7 34 -18 45 -25 11
-7 43 -25 70 -42 28 -16 64 -39 80 -50 17 -12 52 -32 80 -45 27 -12 61 -31 74
-41 13 -11 31 -19 40 -19 9 0 37 -19 61 -43 25 -23 106 -85 180 -138 74 -52
161 -110 193 -128 45 -26 57 -38 57 -57 0 -14 -9 -53 -21 -87 -11 -34 -29 -80
-40 -103 -10 -22 -19 -45 -19 -51 0 -6 -11 -35 -25 -65 -14 -29 -31 -64 -38
-78 -7 -14 -23 -43 -34 -65 -12 -22 -33 -71 -48 -110 -15 -38 -31 -77 -36 -85
-5 -8 -15 -29 -23 -46 -8 -17 -26 -67 -41 -110 -15 -43 -37 -92 -50 -108 -12
-17 -34 -57 -49 -88 -14 -31 -26 -60 -26 -64 0 -4 -6 -15 -13 -23 -8 -9 -26
-47 -42 -86 -15 -38 -43 -101 -61 -140 -18 -38 -42 -93 -53 -122 -12 -28 -21
-62 -21 -75 0 -13 -9 -34 -20 -48 -11 -14 -20 -33 -20 -44 0 -10 -11 -31 -24
-47 -15 -18 -22 -36 -19 -49 3 -11 15 -27 26 -35 12 -8 29 -15 39 -15 9 0 19
-8 22 -17 3 -10 32 -40 63 -68 32 -27 75 -68 96 -90 21 -22 59 -67 85 -99 26
-33 75 -90 110 -126 34 -37 62 -71 62 -76 0 -5 16 -31 35 -59 20 -27 43 -61
53 -75 9 -14 31 -39 49 -57 17 -17 38 -45 47 -61 8 -16 47 -62 85 -103 39 -41
71 -78 71 -83 0 -5 23 -37 52 -70 28 -34 70 -79 93 -101 23 -22 54 -58 70 -80
16 -22 33 -43 37 -46 5 -3 -17 -14 -49 -24 -32 -10 -80 -28 -108 -41 -27 -12
-61 -25 -75 -29 -14 -4 -93 -41 -176 -81 -84 -41 -164 -74 -178 -74 -16 0 -31
-9 -41 -24 -12 -18 -13 -30 -6 -50 6 -15 18 -26 28 -26 10 0 73 27 141 60 67
33 126 60 129 60 4 0 25 9 47 19 23 10 70 33 106 49 36 17 115 44 175 62 61
17 116 38 123 47 6 9 12 24 12 34 0 9 -19 36 -42 60 -24 24 -64 69 -89 99 -25
30 -65 74 -87 96 -23 23 -42 47 -42 53 0 6 -3 11 -7 11 -5 0 -18 15 -31 33
-12 19 -34 40 -47 47 -14 7 -25 18 -25 25 0 6 -15 26 -32 46 -18 19 -41 45
-51 59 -9 14 -37 55 -61 91 -24 37 -71 97 -104 135 -33 38 -83 94 -111 124
-28 30 -51 55 -51 57 0 2 -27 35 -60 75 -33 39 -60 77 -60 83 0 7 -22 32 -48
56 -26 24 -61 56 -77 71 -17 14 -45 42 -62 61 -18 19 -33 41 -33 50 0 8 19 61
41 118 23 57 45 108 50 113 5 6 9 16 9 23 0 8 9 33 21 56 11 23 38 87 61 142
22 55 64 150 93 210 29 61 67 139 83 175 16 36 39 90 52 120 12 30 27 69 35
85 7 17 42 89 78 160 35 72 68 141 72 155 4 14 17 45 29 70 11 25 32 79 46
120 21 61 29 76 48 78 14 2 27 14 33 29 5 15 7 34 4 42 -4 9 -8 41 -9 71 -2
30 -13 109 -24 175 -12 66 -28 197 -36 290 -9 94 -20 220 -26 280 -6 61 -13
117 -16 124 -3 8 -7 161 -10 340 -2 180 -10 373 -16 431 -6 58 -12 112 -13
120 -2 8 -6 49 -9 90 -4 41 -13 140 -21 220 -8 80 -20 197 -25 260 -6 63 -12
126 -15 140 -2 14 -8 57 -14 95 -6 39 -13 93 -15 120 -3 28 -10 68 -16 90 -7
22 -15 63 -20 91 -4 29 -11 61 -15 73 -3 12 -4 21 -2 21 3 0 21 -27 41 -61 20
-33 36 -63 36 -65 0 -3 14 -26 32 -52 17 -26 35 -48 40 -50 4 -2 8 -9 8 -16 0
-6 18 -36 41 -66 22 -30 47 -63 56 -74 8 -10 21 -33 29 -50 7 -17 36 -62 63
-101 28 -38 72 -100 97 -137 26 -38 50 -68 55 -68 4 0 16 -16 25 -35 9 -19 20
-35 25 -35 5 0 9 -11 9 -23 0 -13 13 -37 30 -53 16 -16 34 -45 40 -65 5 -20
21 -48 35 -63 14 -15 25 -33 25 -41 0 -8 4 -16 9 -19 4 -3 20 -29 35 -58 15
-29 40 -71 57 -93 16 -22 36 -55 45 -74 9 -19 40 -75 71 -125 30 -49 61 -95
69 -101 7 -5 25 -36 39 -67 13 -32 36 -75 50 -95 13 -21 37 -56 53 -78 16 -22
34 -55 40 -73 6 -18 20 -45 30 -60 10 -15 22 -35 25 -44 4 -10 10 -18 15 -18
5 0 44 -71 87 -157 43 -87 90 -176 105 -198 15 -22 30 -55 34 -74 3 -19 17
-48 29 -65 13 -17 36 -53 51 -79 25 -43 31 -48 59 -45 25 2 31 7 29 21 -2 10
1 24 6 30 6 8 -4 36 -32 83 -22 40 -60 100 -84 135 -24 35 -66 111 -94 169
-28 58 -60 116 -70 129 -10 13 -18 30 -18 37 0 7 -13 33 -29 56 -16 24 -54 82
-85 130 -31 47 -56 93 -56 102 0 8 -11 23 -25 32 -14 9 -25 20 -25 25 0 5 -13
37 -30 71 -16 34 -30 66 -30 71 0 5 -11 23 -25 41 -14 17 -45 56 -68 86 -24
30 -64 93 -90 140 -26 47 -52 92 -57 100 -6 8 -19 33 -31 55 -12 22 -32 54
-45 71 -13 17 -24 35 -24 41 0 5 -19 38 -42 73 -24 35 -55 82 -70 104 -15 23
-42 68 -59 101 -17 33 -46 78 -63 100 -18 22 -48 65 -68 95 -19 30 -45 74 -56
97 -12 23 -36 63 -54 90 -18 26 -38 53 -44 58 -7 6 -28 33 -46 60 -19 28 -53
89 -76 137 -24 47 -52 94 -63 103 -10 10 -19 22 -19 27 0 5 -13 26 -29 46 -17
20 -33 50 -37 65 -3 16 -16 35 -29 43 -12 8 -46 37 -76 64 -30 27 -73 56 -96
64 -24 8 -56 31 -74 51 -17 20 -50 45 -73 56 -22 10 -50 25 -61 31 -11 7 -38
24 -60 38 -22 14 -57 34 -78 44 -23 12 -33 22 -26 27 7 4 9 22 5 50 -4 24 -10
73 -15 109 -5 36 -12 103 -16 150 -4 47 -8 112 -9 145 0 33 2 95 6 139 5 49
17 99 32 132 14 30 37 70 52 89 l27 36 56 -53 c31 -30 79 -72 106 -94 28 -22
73 -56 100 -76 28 -19 108 -65 178 -101 71 -37 149 -81 175 -100 36 -26 69
-38 142 -52 71 -14 139 -19 270 -19 123 0 199 5 255 16 44 9 121 31 170 49 50
17 94 36 100 40 5 5 16 9 24 9 8 0 35 9 60 20 25 12 59 28 74 35 16 8 33 15
38 15 5 0 26 11 47 24 20 12 48 27 62 31 14 4 39 18 56 31 17 13 38 24 46 24
9 0 21 7 28 15 7 8 17 15 22 15 6 0 42 23 82 52 39 28 128 98 197 155 69 56
148 127 175 156 27 29 85 102 129 161 44 59 88 122 97 139 10 18 31 64 47 102
16 39 43 124 60 190 30 117 31 125 27 305 -3 152 -7 197 -24 250 -12 36 -35
105 -52 155 -17 49 -38 97 -46 106 -7 8 -19 30 -25 49 -7 18 -34 62 -61 97
-26 36 -57 82 -68 102 -10 21 -43 60 -74 88 -30 28 -89 66 -133 87 -43 21
-117 57 -165 82 -48 25 -120 54 -160 64 -40 11 -84 22 -98 25 -14 3 -47 10
-75 16 -27 5 -142 10 -255 10 -113 -1 -219 -4 -237 -7 -20 -4 -44 0 -64 10
-18 9 -40 16 -51 16z m435 -92 c79 -4 171 -14 204 -22 34 -9 72 -16 86 -16 14
0 28 -4 31 -9 3 -4 18 -11 34 -14 16 -3 89 -35 163 -71 74 -36 156 -82 183
-103 28 -21 68 -61 90 -90 23 -28 61 -79 86 -114 25 -34 60 -90 78 -123 18
-34 48 -108 67 -166 18 -58 39 -127 45 -155 6 -27 14 -105 18 -171 4 -67 4
-141 0 -165 -4 -24 -14 -71 -23 -104 -10 -33 -21 -68 -26 -77 -5 -10 -9 -30
-9 -45 0 -16 -13 -57 -28 -93 -16 -36 -44 -87 -63 -115 -19 -27 -70 -97 -113
-155 -43 -58 -95 -120 -115 -139 -20 -19 -81 -71 -136 -114 -55 -44 -107 -87
-115 -96 -8 -9 -44 -37 -80 -63 -36 -25 -123 -75 -195 -112 -71 -36 -174 -86
-229 -111 -54 -25 -103 -45 -108 -45 -6 0 -24 -7 -41 -15 -18 -8 -86 -27 -152
-42 -72 -16 -148 -26 -190 -25 -38 0 -97 5 -130 11 -33 6 -85 11 -115 11 -31
0 -97 9 -147 20 -63 14 -109 31 -154 58 -35 22 -100 57 -144 78 -46 22 -128
77 -195 130 -63 51 -130 108 -149 127 -32 34 -33 36 -17 58 9 13 16 34 16 46
0 19 -6 23 -28 23 -15 0 -33 -5 -40 -12 -9 -9 -15 -8 -27 8 -8 10 -33 55 -55
99 -21 44 -51 113 -66 154 -14 41 -35 115 -46 165 -11 50 -23 116 -28 148 -4
31 -10 60 -13 65 -3 5 3 51 13 103 10 52 20 102 23 110 3 8 22 69 43 135 22
69 54 146 75 180 21 33 51 75 66 93 15 19 30 39 33 46 3 7 21 32 40 55 19 24
44 50 54 59 11 9 40 35 65 58 25 22 71 61 102 87 31 26 59 47 62 47 4 0 44 25
91 55 46 30 87 55 90 55 4 0 24 11 46 25 22 14 42 25 44 25 3 0 7 -19 10 -42
3 -24 9 -72 12 -108 4 -36 6 -84 5 -107 -1 -33 3 -45 21 -57 12 -9 31 -16 41
-16 15 0 18 5 13 25 -5 19 -3 23 9 19 11 -5 15 1 15 24 0 17 -5 43 -11 59 -6
15 -10 59 -10 97 1 39 5 74 7 78 3 5 22 0 41 -12 20 -11 74 -32 120 -45 47
-14 98 -25 113 -25 20 0 31 6 35 21 5 14 1 25 -12 34 -10 8 -49 24 -88 36 -38
12 -81 26 -95 31 -14 6 -36 16 -50 23 -13 8 -26 18 -28 24 -2 6 9 16 25 22 15
6 37 15 48 20 11 4 67 24 125 44 57 20 109 40 115 44 5 5 19 8 30 8 11 0 29
-6 40 -13 11 -8 38 -14 61 -14 33 0 49 7 74 30 25 24 47 33 93 39 33 4 68 6
78 4 10 -3 24 -1 32 4 9 4 80 5 160 1z m-2075 -2908 c31 -27 60 -50 65 -50 5
0 34 -20 65 -44 32 -24 113 -71 182 -104 69 -34 168 -93 220 -131 52 -39 111
-78 130 -88 19 -10 42 -24 50 -33 9 -8 31 -27 48 -42 20 -18 33 -40 37 -65 4
-21 11 -49 16 -63 5 -14 8 -34 7 -45 0 -11 5 -49 11 -84 7 -35 19 -80 26 -100
8 -20 18 -72 24 -116 5 -44 19 -108 30 -141 11 -34 24 -121 31 -195 6 -74 15
-172 20 -219 5 -47 14 -143 19 -215 6 -71 15 -173 20 -225 5 -52 12 -176 16
-275 3 -99 8 -256 11 -350 3 -93 9 -192 14 -220 5 -27 12 -79 15 -115 3 -36
10 -103 15 -150 5 -47 12 -130 15 -185 3 -55 16 -167 29 -250 12 -82 21 -157
18 -167 -4 -16 -6 -16 -40 0 -21 8 -128 77 -240 151 -112 75 -224 149 -250
164 -26 15 -74 41 -107 57 -33 16 -93 51 -133 79 -41 28 -77 51 -80 51 -4 0
-52 29 -107 65 -55 36 -106 65 -113 65 -11 0 -12 33 -6 193 4 105 8 296 8 422
1 127 -2 274 -7 329 -4 54 -9 101 -11 105 -2 3 -7 121 -10 261 -4 144 -13 296
-22 348 -8 51 -12 98 -8 103 3 6 -2 28 -11 50 -14 30 -15 42 -6 53 10 11 7 40
-10 133 -12 65 -23 129 -25 143 -1 14 -4 32 -7 40 -3 8 -10 69 -14 136 -4 66
-8 262 -8 435 0 173 4 320 8 327 6 9 24 -1 65 -38z"/>
<g>
<path d="M10493 10956 c-39 6 -42 4 -57 -24 -9 -17 -16 -40 -16 -52 0 -11 11
-32 25 -45 16 -17 35 -25 59 -25 29 0 38 5 51 30 8 16 15 38 15 48 0 11 -8 29
-17 41 -11 12 -36 23 -60 27z"/>
</g>
<g>
<path d="M8887 10600 c-19 0 -31 -7 -38 -23 -9 -20 1 -34 110 -144 69 -71 131
-125 146 -129 20 -5 32 -1 48 14 19 19 20 24 6 48 -8 15 -30 39 -49 53 -19 14
-71 61 -115 104 -61 57 -88 77 -108 77z"/>
</g>
</g>
<g>
<path d="M3548 10909 c-18 -1 -51 -5 -73 -9 -22 -5 -94 -11 -160 -14 -66 -4
-138 -9 -160 -12 -22 -3 -56 -10 -75 -16 -19 -5 -51 -16 -70 -25 -19 -8 -46
-19 -60 -25 -14 -5 -36 -15 -50 -22 -14 -7 -34 -18 -45 -24 -11 -6 -59 -29
-107 -52 -48 -22 -90 -40 -93 -40 -3 0 -32 -19 -63 -42 -31 -23 -97 -80 -147
-127 -49 -47 -97 -95 -105 -107 -8 -12 -35 -48 -60 -80 -25 -33 -54 -72 -65
-89 -12 -16 -42 -65 -68 -108 -26 -43 -47 -83 -47 -90 0 -7 -4 -17 -9 -22 -5
-6 -18 -37 -29 -70 -11 -33 -27 -94 -36 -135 -8 -41 -20 -122 -25 -180 -7 -70
-7 -140 -1 -210 5 -58 16 -132 24 -165 7 -33 17 -67 20 -76 4 -9 0 -21 -9 -29
-8 -7 -15 -18 -15 -25 0 -6 -8 -19 -17 -28 -10 -9 -25 -31 -35 -49 -9 -18 -26
-54 -37 -79 -12 -25 -21 -54 -21 -65 0 -12 -3 -24 -7 -28 -4 -4 -8 -42 -9 -85
-1 -50 -8 -92 -19 -114 -11 -25 -18 -69 -20 -144 -2 -59 -7 -121 -11 -138 -3
-16 -6 -91 -5 -167 1 -75 -3 -156 -8 -180 -5 -23 -14 -115 -20 -203 -6 -88
-14 -185 -16 -215 -3 -30 -8 -82 -11 -115 -3 -33 -8 -109 -10 -170 -2 -60 -6
-144 -9 -185 -4 -41 -8 -127 -10 -190 -2 -63 -6 -182 -8 -265 -2 -82 -7 -193
-11 -246 -4 -53 -2 -161 3 -240 6 -79 11 -301 12 -494 1 -192 5 -431 10 -530
5 -99 10 -337 12 -530 1 -201 7 -356 12 -365 5 -8 10 -19 10 -25 0 -5 11 -10
25 -10 20 0 26 7 32 35 4 19 3 71 -3 115 -6 44 -11 143 -11 220 0 77 0 194 1
260 1 66 -3 167 -10 225 -6 58 -14 296 -17 530 -3 234 -5 628 -4 876 1 314 5
460 13 480 7 18 13 108 15 229 1 110 8 284 14 386 6 102 16 231 21 285 6 54
12 125 14 156 1 31 6 61 10 68 4 6 8 64 10 129 2 64 9 157 15 206 7 54 17 97
27 107 11 12 17 42 19 93 2 41 7 83 12 92 5 10 13 62 16 117 6 79 12 106 32
137 13 21 24 43 24 48 0 5 6 14 14 20 12 10 21 0 51 -54 21 -37 49 -80 63 -97
14 -17 33 -43 41 -59 9 -15 37 -49 62 -76 25 -26 57 -58 72 -70 14 -12 44 -34
67 -49 22 -15 40 -31 40 -35 0 -5 5 -9 11 -9 6 0 41 -14 78 -31 36 -17 73 -35
81 -40 8 -5 31 -16 50 -24 19 -9 51 -20 70 -25 19 -5 60 -15 90 -23 30 -7 66
-19 79 -27 14 -7 59 -15 100 -19 l76 -6 5 -54 c3 -30 0 -95 -7 -145 -7 -50
-10 -111 -8 -136 3 -25 8 -117 11 -205 3 -88 7 -177 7 -199 l2 -38 -80 -27
c-44 -15 -89 -33 -100 -39 -11 -6 -51 -25 -90 -43 -38 -18 -92 -48 -119 -67
-27 -19 -73 -54 -102 -77 -28 -23 -85 -76 -126 -116 -41 -41 -92 -101 -113
-134 -22 -33 -42 -62 -45 -65 -3 -3 -17 -23 -32 -45 -15 -22 -44 -76 -65 -120
l-38 -80 1 -180 c0 -151 4 -195 23 -275 13 -52 31 -113 42 -136 10 -23 19 -45
19 -49 0 -5 17 -31 38 -59 21 -28 45 -62 52 -76 7 -14 31 -47 54 -74 23 -28
61 -69 86 -93 25 -24 74 -68 110 -98 36 -31 119 -86 185 -124 66 -37 138 -73
160 -79 22 -6 71 -17 110 -24 l70 -14 7 -39 c3 -22 11 -131 17 -242 6 -111 15
-223 20 -250 5 -26 12 -138 15 -248 4 -110 10 -225 13 -255 4 -30 8 -73 10
-95 2 -22 5 -125 7 -230 2 -104 6 -365 10 -580 4 -214 7 -437 7 -494 -1 -57
-3 -107 -6 -111 -3 -5 0 -66 6 -137 6 -70 12 -427 13 -793 1 -366 6 -715 10
-775 5 -72 5 -124 -2 -149 -9 -30 -8 -43 4 -61 13 -20 27 -24 97 -30 45 -4
116 -15 159 -26 42 -10 86 -19 97 -19 12 0 40 -9 64 -19 23 -10 82 -23 132
-29 56 -6 96 -7 107 -1 10 5 18 16 18 24 0 8 -4 15 -10 15 -5 0 -10 11 -10 24
0 13 -6 29 -14 36 -8 6 -38 11 -68 10 -29 -2 -66 3 -83 10 -16 6 -52 15 -80
20 -27 4 -110 18 -183 31 -73 12 -140 27 -148 33 -12 9 -16 46 -20 176 -3 91
-7 435 -9 765 -2 330 -8 803 -14 1050 -5 248 -12 675 -16 950 -3 275 -11 521
-16 546 -6 25 -8 99 -6 165 3 84 1 129 -9 154 -7 19 -15 85 -18 145 -3 61 -8
169 -12 240 -4 82 -2 140 4 157 11 25 13 26 114 31 75 3 134 13 218 37 63 18
133 34 155 37 22 2 58 9 80 15 22 5 61 21 87 34 26 13 52 24 58 24 6 0 10 -34
10 -88 0 -49 4 -113 10 -143 5 -30 17 -216 25 -414 9 -198 20 -385 25 -415 5
-30 11 -197 14 -370 4 -173 8 -362 11 -419 3 -57 12 -170 20 -250 8 -80 20
-236 26 -346 7 -110 13 -339 14 -510 2 -170 6 -436 11 -590 4 -154 8 -332 8
-395 1 -63 5 -125 9 -137 5 -13 14 -24 20 -25 7 0 17 -2 22 -3 6 -1 35 -5 65
-9 30 -4 89 -14 130 -22 41 -8 120 -27 175 -44 64 -19 123 -30 162 -30 34 0
65 5 68 10 4 6 2 17 -4 24 -6 7 -8 27 -5 44 l6 30 -75 0 c-48 1 -97 8 -138 22
-35 11 -82 23 -104 26 -22 3 -62 10 -90 15 -27 6 -71 17 -97 25 l-46 15 -11
67 c-6 37 -15 150 -21 252 -5 102 -12 383 -16 625 -4 242 -8 456 -9 475 -1 19
-5 67 -8 105 -4 39 -9 113 -12 165 -3 52 -7 124 -10 160 -4 36 -11 108 -16
160 -6 52 -12 185 -15 295 -2 110 -6 286 -9 390 -3 105 -7 235 -10 290 -3 55
-9 114 -14 130 -4 17 -9 71 -10 120 -1 50 -4 177 -6 282 -2 106 -7 198 -11
205 -4 6 -7 73 -5 147 1 79 7 146 14 161 8 17 31 31 76 47 35 12 76 31 92 41
16 10 76 64 134 121 86 85 113 118 149 189 27 50 59 137 80 211 19 69 39 158
45 196 6 39 11 111 12 160 1 50 -2 125 -6 168 l-8 77 39 0 c21 0 56 -5 77 -11
21 -6 47 -19 58 -30 10 -10 22 -19 26 -19 3 0 14 -7 24 -16 13 -12 22 -13 37
-5 11 6 22 21 26 35 3 13 4 31 1 38 -3 8 -29 26 -58 40 -29 15 -78 29 -112 33
-33 3 -79 8 -101 11 -37 4 -44 9 -62 47 -11 23 -25 60 -31 82 -6 22 -29 75
-52 119 -29 54 -66 104 -124 162 -45 46 -88 84 -96 84 -8 0 -19 4 -25 9 -5 5
-41 25 -80 45 -38 20 -83 38 -100 40 -16 2 -50 9 -76 15 -25 6 -58 16 -73 23
l-26 12 2 255 c1 141 -3 288 -9 326 -5 39 -9 84 -9 100 0 17 -3 84 -8 151 -6
101 -5 122 6 126 8 3 55 35 105 70 50 35 121 91 159 123 37 33 106 105 153
160 47 55 110 138 141 185 31 47 61 98 68 114 7 15 26 85 42 155 17 73 30 160
31 206 1 44 2 114 2 155 1 41 -2 89 -6 105 -4 17 -8 50 -9 75 -2 42 0 45 23
46 14 1 36 -4 50 -11 14 -7 50 -29 80 -49 30 -20 70 -46 89 -58 19 -13 50 -39
69 -58 19 -19 62 -78 96 -130 34 -52 83 -133 108 -180 26 -47 56 -109 68 -139
11 -30 30 -65 40 -79 11 -14 20 -32 20 -41 0 -9 9 -34 20 -56 11 -22 20 -48
20 -58 0 -10 6 -31 14 -46 8 -15 22 -58 31 -96 8 -38 20 -74 26 -82 6 -7 18
-50 25 -95 8 -46 24 -117 35 -158 11 -41 27 -97 35 -125 8 -27 18 -70 23 -95
5 -25 19 -85 31 -135 11 -49 28 -110 36 -135 9 -25 18 -61 21 -80 2 -19 7 -42
10 -50 3 -8 7 -35 9 -60 2 -25 15 -94 28 -155 14 -60 32 -148 42 -195 9 -47
18 -107 20 -135 2 -27 8 -68 14 -90 5 -22 14 -87 20 -145 6 -58 15 -136 20
-175 5 -38 14 -110 20 -160 5 -49 13 -191 15 -315 3 -124 7 -282 9 -353 3
-118 5 -128 26 -147 17 -15 27 -17 41 -9 13 7 19 21 19 47 0 21 -4 42 -9 47
-5 6 -12 152 -15 325 -4 173 -11 340 -16 370 -6 30 -17 105 -25 165 -7 61 -19
153 -25 205 -6 52 -15 118 -20 145 -5 28 -14 98 -20 157 -6 59 -18 129 -26
155 -9 26 -17 62 -20 78 -2 17 -11 55 -20 85 -9 30 -20 80 -25 110 -4 30 -15
84 -24 120 -8 36 -24 103 -35 150 -12 47 -22 94 -25 105 -2 11 -10 52 -19 90
-9 39 -30 126 -47 195 -17 69 -35 157 -41 195 -6 39 -16 84 -23 100 -6 17 -17
44 -23 60 -6 17 -18 66 -27 110 -10 44 -25 91 -34 105 -10 14 -23 45 -30 70
-7 25 -29 88 -49 140 -21 52 -46 106 -58 120 -11 14 -33 50 -48 80 -15 30 -36
72 -46 92 -12 26 -14 40 -7 47 8 8 2 22 -20 48 -16 21 -63 66 -104 100 -41 34
-84 71 -95 81 -12 11 -35 28 -50 39 -16 11 -51 23 -78 27 -27 3 -62 13 -78 21
-21 10 -36 11 -54 5 -14 -6 -32 -10 -40 -10 -8 0 -14 9 -14 19 0 11 -4 23 -10
26 -5 3 -10 14 -10 23 0 9 -9 28 -20 42 -11 14 -40 54 -65 90 -24 36 -54 77
-67 92 -13 14 -41 52 -63 83 -22 31 -85 103 -141 160 -92 95 -109 107 -200
150 -54 25 -110 52 -124 59 -14 8 -43 19 -65 24 -22 6 -62 13 -90 17 -27 3
-60 13 -72 21 -12 8 -37 13 -55 13z m-88 -85 c8 -1 51 -6 95 -10 44 -3 91 -11
105 -16 14 -6 48 -16 75 -23 28 -8 73 -26 100 -41 28 -15 68 -37 90 -48 22
-12 60 -35 85 -52 25 -18 77 -65 115 -105 39 -41 91 -104 117 -141 25 -36 44
-69 40 -72 -3 -3 -15 -6 -26 -6 -12 0 -31 -8 -42 -18 -12 -9 -26 -31 -32 -49
-6 -18 -7 -44 -3 -59 5 -19 21 -35 52 -51 29 -16 54 -22 74 -18 17 3 43 15 58
26 28 20 29 20 42 2 8 -10 23 -43 35 -73 12 -30 30 -104 40 -165 l19 -110 -22
-17 c-12 -9 -33 -20 -45 -23 -13 -3 -47 -17 -75 -31 -29 -14 -81 -34 -117 -46
-36 -11 -83 -26 -105 -34 -22 -7 -80 -25 -130 -39 -49 -14 -112 -35 -140 -47
-27 -11 -69 -29 -92 -39 -24 -11 -48 -19 -54 -19 -6 0 -43 -16 -82 -35 -40
-20 -93 -50 -119 -68 -27 -17 -48 -37 -48 -43 0 -6 6 -16 13 -21 6 -5 23 -10
37 -11 15 -2 47 12 79 32 30 19 68 38 85 41 17 4 54 18 81 30 28 13 88 39 135
58 47 19 114 44 150 55 36 11 92 28 125 37 33 9 74 25 90 35 17 10 50 21 75
25 25 4 50 11 55 15 6 4 22 10 37 14 14 3 34 9 44 13 16 6 17 -1 10 -98 -4
-57 -11 -120 -16 -139 -5 -19 -11 -50 -14 -68 -2 -19 -21 -68 -42 -110 -21
-42 -69 -117 -106 -166 -38 -50 -92 -117 -121 -149 -29 -32 -83 -85 -122 -118
-38 -33 -102 -82 -142 -109 -45 -30 -79 -46 -91 -43 -11 2 -31 -6 -48 -19 -16
-13 -63 -35 -104 -48 -41 -12 -84 -26 -95 -30 -11 -5 -40 -15 -65 -23 -25 -9
-83 -23 -130 -31 -47 -8 -118 -17 -157 -19 -70 -4 -73 -3 -73 17 0 12 -5 27
-12 34 -7 7 -21 12 -31 12 -10 0 -27 -10 -36 -21 -17 -21 -20 -21 -117 -10
-54 6 -117 17 -139 23 -22 6 -64 22 -92 35 -29 13 -66 26 -83 29 -16 4 -35 13
-41 20 -6 8 -18 14 -25 14 -8 0 -22 7 -31 16 -10 8 -42 31 -70 50 -29 18 -56
34 -61 34 -4 0 -30 24 -58 53 -28 28 -71 81 -95 117 -24 36 -54 78 -66 93 -12
15 -29 42 -37 60 -8 18 -19 47 -25 66 -11 34 -10 36 39 81 27 25 50 51 50 57
0 6 21 26 46 44 25 19 64 49 85 68 21 18 39 39 39 47 0 7 -12 17 -26 20 -15 4
-36 1 -51 -7 -15 -8 -61 -48 -103 -91 -43 -42 -85 -86 -94 -99 -8 -13 -18 -21
-20 -18 -3 3 -10 32 -17 64 -7 33 -13 112 -13 175 0 63 2 140 6 170 4 30 14
90 23 133 8 43 19 87 25 97 5 10 10 29 10 43 0 13 13 48 28 78 15 30 44 75 64
101 20 26 40 58 44 70 4 13 24 45 44 73 21 27 73 86 116 131 44 44 116 110
160 147 45 37 87 67 93 67 6 0 26 8 44 18 17 10 51 30 74 45 24 15 46 27 49
27 4 0 43 17 88 39 44 21 110 45 146 54 36 9 108 19 160 22 52 4 118 10 145
14 28 5 57 7 65 5z m322 -2297 c4 -23 9 -67 12 -97 3 -30 7 -73 10 -95 2 -22
9 -103 16 -180 6 -77 10 -219 8 -315 -3 -150 -5 -174 -18 -171 -8 2 -51 8 -95
13 -44 4 -150 8 -235 9 -85 1 -171 -2 -190 -7 -19 -4 -53 -8 -75 -8 -39 -1
-40 -1 -46 44 -4 25 -10 110 -14 190 -4 80 -6 195 -6 256 0 60 5 134 11 163 5
29 8 56 5 61 -2 4 2 16 10 26 11 16 25 19 80 17 37 -1 98 4 137 12 38 8 81 21
97 29 15 8 61 24 102 35 41 10 99 28 129 40 l55 20 7 -42z m-307 -923 c116 -2
242 -10 280 -17 l70 -13 0 -64 c0 -36 4 -75 8 -87 6 -16 16 -23 35 -23 15 0
36 -6 47 -13 11 -8 49 -21 85 -31 36 -9 86 -24 112 -33 39 -14 49 -14 63 -3 9
7 13 21 10 31 -4 11 -2 19 4 19 6 0 11 6 11 14 0 8 -8 17 -17 21 -10 5 -40 10
-68 12 -27 3 -57 9 -67 14 -9 5 -27 9 -40 9 -13 0 -34 9 -48 20 -14 11 -31 20
-37 20 -8 0 -13 13 -13 33 0 19 3 36 6 40 4 3 22 0 41 -8 20 -8 46 -15 59 -15
12 0 26 -4 29 -10 3 -5 16 -10 28 -11 12 0 36 -9 52 -19 17 -11 48 -29 70 -41
22 -12 54 -33 70 -46 17 -14 51 -50 78 -81 26 -31 47 -59 47 -63 0 -3 -22 -16
-50 -27 -39 -16 -52 -28 -65 -58 -9 -22 -13 -50 -10 -66 4 -15 16 -35 28 -43
12 -8 40 -15 63 -15 26 0 46 6 56 18 9 9 20 30 25 46 l9 29 17 -27 c10 -15 27
-61 37 -102 11 -41 26 -89 35 -107 8 -18 19 -77 24 -131 6 -55 8 -111 6 -125
-2 -14 -9 -57 -15 -96 -6 -38 -16 -92 -22 -120 -5 -27 -21 -88 -35 -134 -14
-46 -42 -112 -62 -145 -21 -34 -40 -66 -42 -73 -2 -7 -38 -47 -79 -89 -41 -42
-93 -89 -115 -104 -22 -15 -71 -42 -109 -59 -38 -17 -75 -31 -82 -31 -8 0 -45
-16 -82 -35 -38 -19 -98 -42 -133 -50 -35 -8 -120 -29 -189 -46 -69 -17 -154
-36 -190 -41 -36 -5 -94 -6 -130 -2 -36 3 -90 8 -119 10 -30 1 -77 6 -104 9
-27 4 -73 18 -101 31 -28 13 -73 37 -101 52 -27 16 -70 42 -95 58 -25 16 -76
58 -113 94 -38 36 -72 66 -77 68 -5 2 -34 32 -65 68 l-57 64 27 22 c15 12 43
45 61 74 19 30 59 72 89 95 30 23 85 53 122 69 58 23 68 31 68 51 0 20 -5 24
-37 27 -26 2 -53 -6 -95 -28 -32 -17 -73 -42 -92 -55 -18 -14 -68 -60 -110
-104 l-77 -79 -21 32 c-12 17 -33 54 -48 81 -15 28 -28 59 -29 70 -2 11 -8 31
-13 45 -6 14 -14 50 -18 80 -5 30 -8 114 -7 185 1 103 6 143 22 194 12 35 29
76 38 90 9 14 19 28 22 31 3 3 14 18 24 33 9 16 19 39 20 52 1 13 43 67 97
125 52 55 130 130 174 166 44 36 118 87 165 114 47 27 120 62 163 79 43 17 87
31 99 31 20 0 21 -4 15 -63 -4 -41 -2 -72 6 -87 10 -19 21 -25 47 -26 19 -1
69 -8 110 -17 41 -8 109 -28 150 -43 41 -15 80 -31 87 -36 7 -6 18 -6 29 0 10
5 17 25 19 50 l3 40 -56 21 c-32 11 -90 28 -130 36 -41 8 -77 13 -82 10 -5 -3
-28 5 -52 18 -42 22 -43 23 -43 72 1 48 2 50 35 62 25 8 97 11 245 7z"/>
<g>
<path d="M4052 10039 c-15 -1 -47 -9 -72 -18 -25 -9 -50 -23 -57 -31 -7 -8
-13 -23 -13 -32 0 -11 10 -20 26 -24 15 -4 41 0 65 12 35 15 46 16 87 5 26 -6
52 -17 58 -24 6 -7 14 -24 18 -40 6 -24 1 -31 -39 -59 -25 -17 -73 -39 -108
-48 -35 -9 -68 -20 -74 -23 -6 -4 -8 -18 -6 -31 3 -14 13 -26 22 -28 9 -2 40
0 70 4 29 5 72 20 96 33 23 14 59 40 79 58 33 28 39 40 43 83 4 35 0 60 -10
81 -13 24 -31 36 -87 57 -39 14 -83 25 -98 25z"/>
</g>
<g>
<path d="M3362 9979 c-20 0 -46 -4 -57 -9 -11 -4 -33 -33 -50 -64 l-30 -56 30
-25 c17 -13 48 -27 70 -30 22 -4 51 -2 65 3 14 5 34 19 44 31 11 12 19 34 19
51 0 16 -12 44 -27 64 -23 30 -33 36 -64 35z"/>
</g>
<g>
<path d="M4230 6943 c-25 2 -61 1 -80 -3 -20 -3 -56 -17 -80 -31 -37 -20 -46
-30 -48 -56 -3 -28 1 -33 23 -39 20 -5 31 0 50 20 20 22 33 26 80 26 42 0 60
-5 75 -20 11 -11 20 -25 20 -30 0 -6 -15 -26 -32 -43 -18 -18 -45 -41 -60 -50
-15 -9 -34 -17 -43 -17 -8 0 -15 -9 -15 -19 0 -11 3 -26 6 -35 3 -9 18 -16 33
-16 14 0 38 8 52 18 15 9 47 36 72 59 25 24 51 51 57 62 5 11 10 36 10 56 0
20 -6 48 -14 63 -8 15 -25 33 -38 39 -12 6 -43 13 -68 16z"/>
</g>
<g>
<path d="M3563 6819 c-10 0 -29 -6 -43 -12 -14 -7 -37 -20 -51 -30 -17 -11
-29 -30 -32 -50 -2 -18 0 -41 5 -53 5 -11 22 -28 38 -37 15 -10 40 -17 55 -17
14 0 39 7 55 15 16 8 34 24 40 34 5 11 10 42 10 70 0 46 -3 52 -30 66 -16 8
-37 15 -47 14z"/>
</g>
<g>
<path d="M4511 6699 c-14 -1 -35 -3 -46 -6 -11 -2 -31 -9 -45 -15 -14 -5 -41
-17 -60 -26 -19 -9 -50 -27 -68 -40 -18 -13 -54 -33 -80 -45 -26 -11 -52 -22
-59 -23 -7 -1 -25 -11 -40 -22 -15 -11 -95 -52 -178 -91 -82 -39 -166 -81
-185 -92 -19 -11 -67 -36 -106 -54 -48 -23 -73 -42 -77 -56 -3 -11 -3 -27 -1
-34 3 -7 17 -15 32 -18 18 -4 35 0 52 13 14 11 77 49 142 84 64 36 140 75 170
86 29 12 87 41 129 66 42 24 79 44 83 44 5 0 24 8 44 17 21 9 50 26 67 37 16
12 39 26 50 33 11 6 34 18 51 26 18 8 61 25 97 37 36 12 68 29 72 37 3 9 0 22
-6 29 -6 8 -23 13 -38 13z"/>
</g>
</g>
</g>
</svg>
