<?xml version="1.0" standalone="no"?>
<!DOCTYPE svg PUBLIC "-//W3C//DTD SVG 20010904//EN"
 "http://www.w3.org/TR/2001/REC-SVG-20010904/DTD/svg10.dtd">
<svg version="1.0" xmlns="http://www.w3.org/2000/svg"
 width="1209.000000pt" height="1209.000000pt" viewBox="0 0 1209.000000 1209.000000"
 preserveAspectRatio="xMidYMid meet">
<metadata>
Created by potrace 1.16, written by Peter Selinger 2001-2019
</metadata>
<g transform="translate(0.000000,1209.000000) scale(0.100000,-0.100000)"
fill="#000000" stroke="none">
<g>
<path d="M6525 10872 c-132 3 -289 2 -350 -3 -60 -4 -186 -10 -280 -14 -93 -3
-188 -9 -210 -14 -22 -4 -85 -9 -139 -10 -55 -2 -109 -7 -122 -11 -12 -5 -76
-8 -141 -8 -66 1 -126 -3 -134 -7 -8 -5 -27 -11 -44 -12 -16 -1 -77 -7 -135
-13 -58 -5 -168 -14 -245 -19 -77 -5 -179 -12 -226 -15 -47 -3 -98 -10 -113
-16 -15 -5 -42 -10 -60 -10 -18 0 -35 -3 -39 -6 -3 -3 -41 -8 -84 -11 -43 -2
-96 -9 -118 -14 -22 -5 -49 -14 -60 -18 -11 -5 -64 -23 -118 -40 -54 -17 -106
-31 -116 -31 -10 0 -20 -3 -24 -6 -3 -4 -37 -17 -74 -31 -37 -13 -99 -33 -138
-45 -38 -11 -91 -29 -117 -39 -26 -11 -54 -19 -63 -19 -9 0 -28 -8 -42 -17
-15 -10 -42 -19 -61 -20 -19 -1 -51 -13 -71 -28 -21 -14 -42 -25 -47 -25 -6 0
-19 -9 -29 -20 -10 -11 -23 -20 -30 -20 -6 0 -29 -8 -51 -19 -21 -10 -66 -31
-99 -46 -33 -15 -77 -46 -97 -69 -21 -22 -38 -44 -38 -48 0 -4 1 -10 3 -12 1
-2 -5 -12 -13 -22 -9 -11 -26 -39 -39 -64 -13 -25 -34 -54 -46 -65 -13 -11
-37 -56 -55 -100 -18 -44 -41 -91 -51 -104 -11 -13 -19 -31 -19 -40 0 -10 -10
-37 -21 -61 -18 -37 -22 -66 -24 -170 -1 -69 -8 -163 -15 -210 -7 -48 -21 -96
-31 -111 -12 -17 -18 -42 -17 -70 1 -24 -3 -66 -9 -94 -6 -27 -9 -122 -8 -210
2 -95 8 -172 15 -190 7 -16 16 -55 20 -85 4 -30 12 -68 18 -85 6 -16 18 -66
28 -110 10 -44 20 -82 23 -85 4 -3 24 -40 46 -83 21 -43 41 -89 42 -102 2 -13
10 -36 18 -52 8 -15 15 -33 15 -39 0 -6 7 -17 15 -24 8 -7 15 -21 15 -31 0
-10 9 -21 20 -24 11 -3 20 -15 20 -25 0 -10 9 -22 20 -25 11 -3 20 -12 20 -20
0 -7 11 -26 24 -42 13 -15 31 -43 40 -61 9 -18 28 -37 41 -42 14 -5 25 -15 25
-22 0 -7 18 -28 40 -45 21 -18 45 -33 52 -33 7 0 28 -14 47 -30 18 -17 38 -30
43 -30 6 0 23 -11 40 -25 19 -16 42 -25 64 -25 19 0 34 -4 34 -8 0 -5 39 -21
88 -37 48 -16 92 -32 97 -36 6 -4 30 -12 54 -18 25 -5 55 -6 73 0 26 7 36 4
59 -15 21 -18 49 -27 116 -35 48 -7 120 -17 158 -23 39 -7 73 -13 78 -14 4 -1
43 -2 87 -3 l80 -1 -1 -107 c-1 -60 0 -147 1 -194 2 -48 0 -91 -3 -96 -4 -6
-73 -13 -155 -16 -81 -3 -160 -11 -175 -16 -15 -6 -55 -13 -90 -16 -34 -3
-100 -8 -145 -10 -46 -2 -97 -10 -112 -17 -15 -6 -35 -24 -44 -39 -10 -18 -13
-30 -6 -34 5 -3 10 -10 10 -15 0 -4 -15 -17 -32 -27 -18 -11 -55 -25 -83 -33
-37 -10 -67 -30 -116 -76 -36 -34 -75 -66 -86 -73 -12 -6 -35 -35 -52 -65 -17
-30 -54 -78 -81 -107 -28 -30 -72 -76 -99 -104 -27 -27 -63 -75 -79 -106 -16
-31 -47 -83 -68 -115 -22 -32 -50 -79 -62 -104 -13 -25 -34 -60 -47 -79 -14
-18 -31 -39 -39 -45 -8 -6 -29 -38 -45 -71 -17 -33 -31 -65 -31 -71 0 -6 -9
-19 -20 -29 -13 -12 -20 -31 -20 -55 0 -24 -5 -40 -14 -43 -8 -3 -19 -21 -25
-39 -5 -18 -19 -58 -31 -88 -12 -30 -26 -73 -30 -95 -5 -22 -13 -56 -18 -75
-5 -19 -14 -44 -20 -55 -6 -11 -20 -47 -31 -80 -10 -33 -22 -76 -25 -95 -3
-19 -12 -48 -20 -65 -8 -16 -23 -61 -34 -100 -11 -38 -30 -151 -41 -250 -12
-99 -26 -203 -32 -232 -5 -28 -12 -73 -14 -100 -2 -28 -9 -62 -15 -78 -7 -20
-7 -51 0 -108 9 -61 9 -102 0 -165 -7 -45 -9 -111 -6 -145 4 -34 9 -100 12
-147 2 -47 11 -114 19 -150 7 -36 21 -94 30 -130 9 -36 19 -77 22 -92 3 -15
11 -33 19 -39 8 -7 14 -30 14 -55 0 -23 4 -45 9 -49 5 -3 13 -20 17 -38 3 -17
22 -66 41 -107 19 -41 41 -90 49 -107 8 -18 19 -33 23 -33 5 0 11 -13 14 -28
3 -15 21 -50 40 -78 19 -27 38 -60 42 -73 4 -13 35 -64 69 -113 33 -49 66 -97
71 -106 6 -9 12 -19 15 -22 3 -3 10 -16 16 -30 7 -14 21 -37 33 -50 11 -14 48
-67 81 -119 34 -51 74 -107 91 -125 16 -17 29 -34 29 -39 0 -4 32 -39 72 -77
40 -39 76 -70 81 -70 4 0 29 -21 55 -46 26 -25 54 -52 63 -60 9 -8 23 -14 31
-14 9 0 22 -10 31 -23 8 -12 40 -35 71 -51 31 -16 72 -30 90 -31 18 -2 56 -17
84 -35 29 -17 52 -36 52 -41 0 -5 5 -9 11 -9 6 0 17 -6 24 -13 8 -6 21 -18 29
-24 8 -7 21 -13 28 -13 7 0 22 -7 32 -15 11 -8 34 -15 52 -15 18 0 36 -4 39
-10 3 -5 17 -10 31 -10 14 0 27 -7 30 -15 3 -8 18 -21 32 -28 15 -8 44 -23 65
-35 21 -12 44 -22 52 -22 8 0 35 -11 61 -25 26 -14 53 -25 61 -25 8 0 31 -9
53 -20 22 -11 54 -20 72 -20 18 0 47 -8 63 -18 17 -10 44 -22 60 -26 17 -4 53
-9 80 -11 28 -3 79 -10 115 -17 36 -6 135 -11 220 -10 85 0 187 4 225 7 39 3
108 8 155 10 47 2 110 9 140 15 30 6 75 13 100 16 25 3 83 6 130 8 47 2 121 7
165 11 44 4 152 8 240 9 88 2 183 8 210 15 28 6 64 14 80 16 17 2 62 7 100 11
39 4 81 12 95 19 17 9 98 15 240 19 118 4 233 12 255 18 22 5 67 10 100 9 33
0 80 4 105 10 25 6 61 14 80 19 19 5 86 13 147 19 62 6 125 17 140 24 16 8 71
27 123 41 52 15 118 33 145 41 28 7 75 20 105 27 30 8 64 19 75 25 11 5 38 19
60 29 21 10 65 38 96 61 32 23 77 52 100 64 24 12 66 39 94 60 27 21 68 56 89
78 22 23 43 41 48 41 4 0 52 42 105 92 54 51 129 126 167 165 38 40 73 73 79
73 5 0 24 12 43 28 19 15 73 63 120 107 48 44 101 96 118 115 17 19 64 65 104
103 39 39 72 76 72 83 0 7 34 48 76 91 42 43 94 104 116 135 21 32 47 77 58
100 11 24 25 52 32 63 7 11 21 26 31 33 9 7 17 19 17 25 0 7 23 53 52 102 28
50 82 151 120 225 37 74 68 138 68 142 0 5 11 31 24 58 14 28 28 65 31 83 4
18 13 46 20 62 8 17 29 71 49 120 19 50 38 106 41 125 4 19 11 40 15 45 4 6
13 40 19 76 6 36 11 89 11 117 0 28 4 62 10 76 5 14 11 108 14 208 3 118 0
218 -8 283 -8 55 -19 147 -26 205 -6 58 -20 134 -30 170 -11 36 -24 92 -30
125 -6 33 -13 76 -16 95 -4 19 -25 91 -49 160 -23 69 -59 169 -78 224 -20 54
-47 113 -60 130 -13 17 -26 38 -30 46 -4 8 -20 38 -36 65 -17 28 -40 68 -52
90 -12 22 -39 61 -60 86 -22 26 -39 50 -39 54 0 4 -35 42 -78 84 -43 42 -106
100 -140 128 -34 28 -73 63 -87 76 -15 13 -43 34 -63 46 -20 13 -84 52 -142
87 -58 35 -123 69 -144 75 -21 6 -55 19 -75 30 -20 10 -42 19 -50 19 -8 0 -22
6 -30 14 -9 7 -42 21 -73 30 -32 9 -88 18 -125 20 -62 3 -69 5 -81 30 -11 22
-19 26 -40 22 -15 -3 -72 -9 -127 -13 -55 -4 -161 -6 -235 -5 -74 2 -136 5
-138 7 -2 2 2 13 8 25 8 15 8 40 1 93 -6 40 -12 113 -13 162 0 50 3 148 7 218
l8 129 36 -7 c20 -4 79 -7 132 -6 59 0 114 6 140 16 24 8 64 15 88 15 25 0 74
7 110 16 36 9 73 22 81 29 8 7 35 23 60 35 25 13 72 45 105 71 33 27 65 54 70
59 6 6 39 41 75 79 36 38 80 88 99 111 19 22 57 75 84 118 28 42 58 100 67
129 9 29 19 55 23 59 4 4 7 13 7 20 0 6 18 42 41 79 22 37 49 99 60 138 11 40
24 95 29 122 5 28 14 100 19 160 5 61 14 130 20 155 6 25 10 106 9 180 0 74
-6 180 -13 235 -6 55 -19 127 -27 160 -9 33 -21 85 -27 115 -6 30 -18 91 -27
135 -10 46 -25 88 -36 98 -10 10 -18 31 -18 48 0 17 -11 61 -25 97 -14 37 -36
87 -48 112 -12 25 -27 52 -34 60 -7 8 -27 32 -45 53 -18 21 -62 71 -98 112
-36 40 -69 73 -75 74 -5 1 -27 18 -48 40 -20 21 -68 59 -106 85 -38 25 -102
60 -143 77 -40 17 -82 33 -93 37 -11 3 -49 23 -85 45 -56 35 -85 44 -210 68
-80 15 -165 33 -190 40 -25 6 -61 13 -80 15 -19 1 -82 3 -140 4 -58 0 -271 0
-475 -1 -203 -1 -478 0 -610 3z m10 -119 c50 -1 119 -5 155 -8 35 -3 297 -6
581 -6 483 -1 520 -2 575 -20 32 -11 77 -22 99 -25 22 -2 65 -10 95 -16 30 -7
64 -17 75 -24 11 -7 35 -15 54 -19 19 -4 50 -16 68 -26 19 -11 43 -19 53 -19
11 0 30 -11 41 -24 11 -13 41 -32 66 -41 24 -9 64 -28 89 -42 24 -14 49 -33
55 -44 5 -10 14 -19 19 -19 6 0 22 -10 36 -22 14 -13 39 -35 55 -50 16 -16 35
-28 42 -28 8 0 22 -18 32 -40 10 -22 24 -40 31 -40 7 0 22 -12 33 -26 12 -15
21 -32 21 -39 0 -7 18 -43 41 -80 22 -37 43 -74 46 -83 4 -10 15 -28 25 -41
10 -14 18 -40 18 -64 0 -22 9 -58 19 -81 10 -23 24 -59 30 -81 7 -22 16 -69
21 -105 5 -36 14 -90 19 -120 6 -30 16 -80 21 -110 6 -30 13 -102 15 -160 2
-58 6 -125 8 -150 3 -25 1 -52 -3 -61 -5 -8 -11 -40 -14 -70 -3 -30 -11 -106
-17 -169 -6 -63 -16 -124 -23 -135 -8 -11 -17 -39 -21 -63 -4 -23 -18 -64 -31
-92 -13 -27 -24 -55 -24 -61 0 -6 -6 -23 -13 -37 -7 -15 -39 -79 -70 -142 -32
-63 -57 -123 -57 -133 0 -11 -9 -21 -20 -24 -11 -3 -20 -8 -20 -12 0 -4 -13
-20 -29 -37 -15 -16 -31 -39 -35 -51 -4 -12 -15 -24 -24 -27 -9 -3 -54 -41
-99 -83 -44 -43 -96 -86 -115 -95 -18 -9 -44 -20 -57 -23 -13 -4 -50 -23 -82
-42 -48 -28 -68 -34 -111 -33 -29 1 -76 0 -104 -3 -27 -2 -54 -6 -60 -8 -5 -3
-63 -4 -129 -3 -66 1 -156 2 -200 3 -54 0 -98 7 -135 21 -30 11 -64 20 -75 20
-11 0 -40 14 -64 30 -24 17 -52 30 -61 30 -10 0 -23 7 -30 15 -7 8 -25 15 -41
15 -16 0 -29 5 -29 10 0 6 -5 10 -10 10 -6 0 -34 15 -63 34 -29 18 -68 48 -87
66 -19 17 -47 38 -62 46 -16 8 -28 18 -28 22 0 5 -16 16 -35 25 -19 9 -35 21
-35 26 0 5 -16 19 -35 31 -19 12 -55 52 -80 89 -25 38 -45 75 -45 83 0 8 -5
19 -12 26 -7 7 -20 12 -29 12 -9 0 -24 11 -33 25 -9 13 -16 33 -16 43 0 10 -4
22 -9 28 -6 5 -11 32 -13 59 -1 28 -7 56 -13 64 -6 9 -9 76 -8 175 1 89 7 211
13 271 5 61 19 139 29 175 11 36 36 97 56 135 21 39 53 88 71 110 19 22 53 62
76 88 24 27 60 66 82 88 21 22 58 53 82 70 24 16 44 34 44 38 0 5 15 14 33 22
17 7 51 25 74 41 23 15 47 28 53 28 7 0 29 8 49 19 20 10 61 26 91 36 30 10
60 21 65 25 6 4 30 10 55 13 25 4 59 9 75 11 17 3 71 8 120 11 50 4 104 9 120
11 17 2 61 10 100 18 38 9 73 23 78 31 4 8 19 15 32 15 14 0 35 12 50 27 14
15 25 33 25 39 0 6 11 23 25 38 14 15 28 38 31 52 3 13 1 39 -6 57 -7 17 -18
46 -26 62 -7 17 -36 52 -63 78 -28 26 -58 47 -66 47 -8 0 -15 5 -15 10 0 6 -7
10 -15 10 -8 0 -39 13 -68 29 -28 16 -87 37 -130 45 -42 9 -128 21 -190 26
-61 6 -141 14 -177 18 -36 4 -252 7 -480 7 -228 0 -473 -3 -545 -7 -71 -4
-211 -9 -310 -12 -99 -3 -220 -9 -270 -12 -49 -3 -94 -9 -100 -13 -5 -3 -26
-6 -45 -5 -19 1 -89 -3 -155 -8 -66 -5 -171 -8 -232 -8 -62 1 -121 -3 -130 -8
-10 -5 -162 -13 -337 -17 -176 -4 -330 -11 -343 -16 -14 -5 -59 -9 -101 -9
-51 0 -95 -6 -130 -19 -28 -11 -61 -17 -71 -14 -11 3 -37 -1 -58 -7 -21 -7
-44 -17 -51 -23 -7 -6 -23 -12 -35 -13 -12 -1 -49 -9 -82 -17 -33 -8 -81 -18
-106 -21 -33 -5 -59 -17 -88 -43 -36 -30 -41 -39 -36 -64 4 -15 1 -37 -5 -48
-6 -12 -8 -38 -4 -61 6 -34 13 -44 43 -59 20 -10 52 -26 71 -36 19 -10 46 -26
60 -35 14 -10 41 -20 60 -24 19 -3 48 -13 64 -21 15 -8 36 -15 46 -15 10 0 40
-15 67 -34 26 -18 60 -37 73 -41 14 -5 43 -9 65 -11 22 -2 58 -7 81 -12 23 -5
57 -21 76 -35 19 -15 44 -27 56 -27 12 0 38 -7 59 -16 21 -9 52 -24 68 -32 17
-9 39 -24 49 -34 11 -10 25 -18 31 -18 6 0 21 -11 33 -25 12 -13 37 -31 56
-39 20 -8 45 -31 59 -53 14 -21 46 -58 71 -83 25 -24 46 -48 46 -52 0 -5 16
-31 35 -59 19 -28 35 -62 35 -75 0 -13 4 -32 10 -42 5 -9 23 -46 40 -82 16
-36 30 -77 30 -93 0 -16 5 -37 11 -49 6 -11 11 -44 11 -74 1 -40 6 -62 21 -81
16 -20 21 -39 19 -74 -1 -26 2 -50 8 -54 5 -3 7 -45 5 -96 -3 -50 -7 -95 -10
-99 -3 -5 1 -21 10 -34 11 -16 14 -33 10 -47 -4 -13 -9 -46 -10 -73 -2 -28 -8
-73 -13 -101 -6 -32 -6 -56 0 -68 7 -14 5 -24 -11 -41 -12 -12 -21 -35 -21
-51 0 -15 -24 -75 -52 -134 -31 -61 -69 -121 -90 -142 -21 -20 -38 -41 -38
-45 0 -5 -15 -25 -33 -44 -18 -19 -65 -65 -105 -102 -40 -37 -90 -75 -112 -84
-22 -10 -40 -23 -40 -29 0 -7 -17 -17 -37 -23 -21 -6 -60 -16 -88 -23 -27 -6
-76 -12 -107 -11 -41 0 -62 5 -74 17 -15 15 -27 16 -73 9 -31 -5 -144 -9 -251
-9 -107 0 -211 3 -230 7 -19 4 -102 26 -185 48 -82 23 -179 50 -215 61 -36 10
-108 31 -161 46 -78 23 -105 36 -144 71 -26 23 -52 42 -57 42 -5 0 -34 23 -64
51 -30 29 -54 55 -54 60 0 4 -25 45 -56 91 -30 46 -59 85 -65 86 -5 2 -9 12
-9 23 0 11 -9 29 -20 41 -11 12 -20 29 -20 38 0 8 -21 63 -46 120 -25 58 -54
136 -64 175 -9 38 -27 118 -39 177 -12 59 -24 122 -26 140 -3 18 -5 97 -6 174
0 101 4 160 16 205 9 35 21 82 27 104 6 22 12 51 14 64 1 14 10 65 19 115 9
50 26 125 37 166 12 41 26 102 33 135 6 33 18 78 26 100 7 22 21 50 31 63 9
13 20 37 23 55 4 18 15 41 25 52 9 11 29 40 43 65 14 25 43 62 63 82 20 21 61
52 92 70 32 17 60 35 63 40 3 4 36 24 75 43 38 19 77 35 86 35 10 0 43 11 74
25 31 14 64 25 73 25 9 0 21 4 27 9 5 5 38 17 74 26 36 10 77 20 92 22 14 3
37 16 49 29 12 13 31 24 41 24 11 0 28 5 39 11 11 6 42 16 67 23 26 6 70 13
97 15 28 1 68 11 90 21 22 10 79 28 127 39 47 12 104 21 125 21 21 0 61 6 88
13 28 8 77 15 110 16 33 1 75 6 93 12 18 6 43 9 55 6 12 -3 74 -2 137 3 63 4
140 15 170 23 36 11 116 18 232 21 98 3 228 10 290 15 62 5 153 10 202 11 49
0 93 3 97 6 5 3 25 7 46 10 21 3 76 5 123 5 47 0 157 7 244 15 88 9 176 14
195 12 20 -3 59 -2 86 1 28 4 91 6 140 4z m440 -359 c88 -1 241 -5 340 -9 99
-3 196 -7 215 -9 19 -1 42 -5 50 -9 8 -3 42 -9 75 -12 33 -4 81 -8 106 -10 25
-1 55 -8 67 -14 11 -6 27 -11 35 -11 8 0 40 -19 72 -42 38 -29 65 -42 81 -40
17 3 24 -1 24 -14 0 -10 7 -25 15 -34 9 -10 17 -30 18 -45 2 -23 -5 -32 -43
-53 -25 -13 -56 -31 -70 -38 -14 -8 -40 -14 -59 -14 -19 0 -73 -7 -119 -16
-47 -9 -99 -14 -115 -11 -16 2 -58 -3 -92 -12 -35 -9 -69 -22 -76 -28 -8 -6
-23 -13 -34 -14 -11 -2 -26 0 -33 4 -7 5 -23 0 -38 -12 -15 -12 -34 -21 -43
-21 -9 0 -32 -6 -51 -13 -19 -6 -46 -20 -60 -29 -13 -10 -31 -18 -38 -18 -8 0
-42 -18 -76 -40 -33 -22 -95 -67 -137 -101 -42 -34 -84 -69 -92 -78 -9 -9 -22
-21 -29 -27 -7 -6 -30 -29 -50 -52 -21 -23 -38 -44 -38 -48 0 -3 -13 -22 -30
-41 -16 -18 -30 -39 -30 -45 0 -7 -11 -21 -25 -33 -17 -13 -28 -34 -31 -60 -4
-22 -15 -59 -25 -82 -11 -22 -21 -62 -22 -87 -2 -25 -10 -53 -19 -63 -13 -14
-17 -54 -23 -189 -3 -93 -8 -233 -9 -310 -4 -131 -2 -141 20 -181 13 -23 24
-55 24 -71 0 -16 11 -46 25 -66 14 -20 25 -43 25 -52 0 -8 6 -24 13 -37 6 -12
15 -24 18 -27 3 -3 18 -24 33 -47 14 -24 45 -62 69 -85 24 -24 68 -64 99 -90
31 -27 64 -48 73 -48 10 0 40 -20 67 -45 28 -25 56 -45 64 -45 7 0 18 -9 24
-20 6 -11 19 -20 29 -20 10 0 24 -7 31 -15 7 -8 18 -15 24 -15 6 0 57 -22 111
-50 55 -27 108 -50 117 -50 9 0 19 -4 22 -9 4 -5 30 -14 58 -21 29 -6 59 -17
68 -25 9 -8 31 -17 48 -19 17 -2 44 3 58 10 19 10 30 11 39 4 11 -9 11 -16 0
-38 -7 -15 -16 -79 -20 -142 -4 -63 -7 -137 -7 -164 0 -27 6 -52 12 -56 7 -4
7 -16 -1 -39 -6 -18 -9 -49 -5 -70 4 -28 2 -42 -9 -51 -8 -7 -15 -18 -15 -26
0 -7 9 -16 20 -19 11 -3 20 -10 20 -14 0 -4 -53 -11 -117 -15 -65 -4 -195 -8
-289 -8 -94 0 -176 2 -182 6 -6 3 -29 -3 -52 -15 -22 -12 -46 -31 -52 -43 -6
-11 -31 -47 -54 -79 -24 -31 -44 -61 -44 -66 0 -4 -9 -16 -19 -25 -11 -10 -23
-31 -26 -46 -3 -15 -17 -42 -31 -61 -13 -18 -24 -42 -24 -53 0 -11 -10 -31
-23 -45 -13 -15 -36 -54 -50 -87 -15 -34 -27 -67 -27 -74 0 -6 -9 -24 -19 -39
-11 -14 -27 -50 -36 -79 -10 -29 -21 -55 -26 -58 -5 -3 -9 -13 -9 -22 0 -9
-11 -39 -25 -67 -13 -27 -25 -68 -25 -90 0 -22 -12 -62 -26 -90 -14 -27 -27
-72 -30 -100 -3 -27 -12 -57 -20 -66 -8 -9 -19 -43 -25 -75 -6 -32 -16 -77
-22 -99 -6 -22 -15 -46 -21 -54 -6 -8 -10 -17 -9 -20 2 -3 0 -15 -3 -26 -3
-11 -12 -34 -19 -51 -8 -16 -17 -50 -21 -75 -4 -24 -12 -55 -19 -69 -7 -14
-15 -51 -18 -84 -3 -33 -13 -66 -22 -76 -15 -17 -15 -21 -2 -40 8 -12 13 -29
10 -39 -4 -15 3 -20 39 -25 25 -4 52 -4 61 0 9 3 17 12 17 19 0 7 7 79 15 161
9 82 23 174 31 204 8 30 22 75 30 100 9 25 25 74 36 110 10 36 26 94 35 130 8
36 38 130 65 209 27 79 52 160 55 180 3 20 16 46 28 58 13 12 26 33 30 45 3
13 26 64 50 113 24 50 50 106 59 125 8 19 25 51 38 70 13 19 32 53 41 75 10
22 23 51 30 65 7 14 20 26 30 28 9 2 17 -2 17 -9 0 -7 -8 -21 -17 -31 -14 -16
-15 -23 -5 -39 7 -11 10 -25 6 -30 -3 -6 2 -28 11 -50 15 -32 16 -44 6 -65 -7
-17 -8 -30 -2 -38 6 -7 6 -53 2 -116 -4 -58 -4 -114 0 -125 4 -11 14 -43 22
-71 11 -38 13 -68 7 -125 -5 -44 -4 -79 1 -85 5 -6 7 -18 4 -27 -4 -8 -1 -35
5 -58 7 -24 19 -59 27 -77 14 -30 14 -34 -1 -51 -9 -9 -16 -23 -16 -29 0 -7 5
-12 10 -12 6 0 10 -11 10 -24 0 -14 5 -28 11 -31 7 -5 8 -25 4 -56 -5 -34 -3
-49 4 -49 8 0 9 -6 3 -17 -4 -10 -9 -45 -11 -77 -1 -33 -6 -67 -11 -76 -6 -11
-2 -27 11 -50 12 -19 16 -35 11 -39 -6 -3 -10 -31 -10 -62 1 -31 -2 -61 -5
-66 -4 -6 0 -27 8 -46 9 -21 16 -82 19 -157 2 -68 9 -127 15 -133 8 -8 6 -16
-6 -29 -14 -16 -15 -25 -6 -61 8 -28 9 -57 3 -82 -5 -22 -11 -88 -13 -147 -2
-60 0 -108 5 -108 4 0 6 -11 2 -25 -4 -16 -2 -25 6 -25 9 0 10 -11 6 -35 -5
-24 -2 -42 8 -56 10 -15 12 -29 6 -44 -4 -12 -8 -102 -9 -201 0 -98 4 -183 9
-189 5 -6 10 -42 11 -81 1 -38 8 -81 15 -95 11 -22 11 -29 -1 -46 -8 -12 -17
-59 -20 -114 -4 -52 -6 -134 -6 -184 0 -49 2 -153 3 -230 2 -96 -1 -147 -10
-162 -9 -17 -9 -33 0 -72 9 -41 8 -60 -5 -105 -9 -33 -12 -58 -6 -61 5 -4 6
-37 2 -78 -3 -40 -6 -91 -6 -113 0 -35 -4 -44 -24 -53 -13 -6 -31 -11 -39 -11
-8 0 -22 -4 -32 -10 -9 -5 -44 -17 -77 -25 -33 -9 -82 -20 -110 -25 -27 -4
-68 -11 -90 -16 -22 -4 -53 -15 -70 -24 -20 -11 -33 -28 -39 -53 -8 -32 -6
-40 14 -62 13 -14 33 -25 44 -25 12 0 34 7 50 15 15 8 35 15 42 15 8 0 22 4
32 9 9 5 31 15 47 22 17 7 33 12 38 11 4 -1 27 2 50 7 23 5 69 15 102 21 33 6
88 12 122 15 35 2 67 7 73 10 5 3 10 32 10 64 0 31 -6 80 -14 107 -11 36 -13
96 -11 234 2 102 6 394 8 650 4 369 1 487 -10 570 -8 58 -16 217 -18 355 -2
138 -8 333 -12 435 -4 102 -6 237 -5 300 2 76 6 119 15 126 6 7 39 19 72 27
42 10 109 14 225 12 91 -1 185 -4 210 -7 25 -3 79 -9 120 -13 41 -4 107 -13
147 -21 39 -7 83 -18 97 -24 15 -5 57 -17 94 -26 37 -9 77 -17 89 -18 12 0 28
-7 35 -13 6 -7 21 -13 32 -13 12 -1 53 -19 91 -41 39 -22 82 -44 98 -50 15 -6
27 -15 27 -20 0 -4 14 -24 30 -42 17 -19 30 -40 30 -46 0 -7 12 -29 27 -49 15
-20 38 -50 52 -65 14 -16 25 -29 23 -30 -2 -1 0 -11 3 -22 4 -11 14 -36 22
-55 9 -19 21 -42 29 -50 7 -8 13 -19 13 -25 0 -5 3 -32 7 -60 3 -27 13 -68 21
-90 8 -22 14 -76 14 -120 1 -44 4 -84 9 -90 4 -5 11 -30 15 -55 5 -25 9 -139
10 -255 1 -203 0 -211 -23 -253 -13 -24 -26 -62 -28 -85 -3 -23 -8 -67 -12
-97 -5 -30 -14 -66 -21 -80 -8 -14 -18 -28 -24 -31 -5 -4 -5 -15 3 -28 9 -17
8 -28 -4 -53 -9 -17 -16 -35 -16 -40 0 -6 -9 -21 -20 -35 -11 -14 -20 -32 -20
-40 0 -8 -11 -39 -25 -68 -13 -30 -27 -66 -31 -80 -3 -14 -10 -28 -15 -31 -5
-3 -9 -13 -9 -22 0 -10 -13 -44 -29 -78 -17 -33 -39 -68 -50 -78 -11 -10 -18
-23 -15 -30 3 -7 -7 -29 -21 -50 -14 -20 -25 -41 -25 -46 0 -5 -9 -14 -19 -20
-11 -5 -23 -20 -27 -32 -4 -13 -19 -39 -33 -58 -14 -19 -33 -42 -41 -51 -8 -9
-27 -31 -42 -48 -16 -17 -28 -38 -28 -46 0 -8 -5 -15 -11 -15 -6 0 -34 -23
-62 -51 -29 -28 -70 -62 -92 -76 -22 -14 -51 -36 -65 -48 -14 -12 -37 -25 -52
-29 -14 -3 -53 -28 -86 -56 -33 -27 -63 -50 -66 -50 -3 0 -41 -16 -84 -36 -42
-20 -127 -60 -188 -90 -61 -30 -131 -58 -155 -62 -24 -5 -62 -16 -84 -26 -22
-10 -65 -28 -95 -41 -30 -13 -68 -27 -85 -31 -16 -3 -43 -8 -58 -9 -16 -2 -34
-8 -40 -14 -6 -6 -22 -11 -37 -11 -14 -1 -49 -9 -78 -19 -29 -10 -55 -21 -59
-25 -4 -3 -21 -3 -39 0 -20 4 -53 -1 -84 -11 -35 -12 -68 -15 -99 -12 -30 4
-54 2 -70 -7 -18 -10 -34 -11 -62 -3 -26 6 -69 6 -131 -2 -51 -6 -118 -15
-148 -20 -34 -5 -62 -5 -74 1 -10 6 -47 7 -85 3 -36 -3 -115 -1 -176 4 -60 6
-191 13 -290 16 -99 3 -268 8 -375 10 -107 2 -238 8 -290 14 -52 6 -111 13
-130 15 -19 3 -62 10 -95 15 -33 6 -90 15 -126 21 -37 5 -82 10 -102 10 -20 0
-39 5 -43 11 -4 7 -23 9 -50 5 -26 -3 -44 -1 -46 5 -2 7 -30 11 -66 10 -45 0
-82 7 -130 25 -45 17 -78 24 -101 20 -27 -4 -34 -1 -38 14 -3 11 -12 20 -20
20 -8 0 -35 12 -59 26 -25 15 -57 36 -71 48 -13 11 -37 33 -53 47 -15 14 -43
37 -61 50 -19 13 -41 31 -50 39 -9 8 -40 35 -69 60 -29 25 -55 47 -59 50 -3 3
-38 43 -76 90 -39 47 -93 113 -120 148 -28 34 -69 86 -93 115 -23 29 -58 76
-78 105 -19 30 -61 108 -93 175 -43 90 -65 154 -85 242 -16 66 -33 134 -38
150 -6 17 -12 64 -13 105 -1 41 -6 84 -12 95 -5 11 -8 74 -6 140 2 66 5 167 7
225 2 58 7 113 11 122 4 10 5 24 2 30 -2 7 -1 57 3 111 4 54 16 130 25 170 10
40 24 88 31 107 8 19 19 58 23 85 5 28 19 79 31 115 12 36 26 74 30 85 5 11
18 47 30 80 11 33 37 84 57 113 20 29 60 75 90 102 36 33 66 51 91 56 20 3 48
13 60 21 13 8 37 16 52 18 16 2 55 9 87 15 32 5 70 10 83 11 14 0 88 2 165 4
77 2 219 13 315 25 96 11 211 25 255 32 44 6 150 11 235 11 85 -1 196 -2 245
-4 84 -4 90 -5 87 -24 -2 -11 -5 -54 -6 -95 -2 -41 -8 -118 -15 -170 -7 -52
-13 -183 -15 -290 -2 -107 1 -215 6 -240 5 -25 12 -61 15 -80 3 -19 7 -78 8
-130 1 -52 3 -97 4 -100 1 -3 4 -57 6 -120 3 -63 7 -173 10 -244 2 -72 9 -134
13 -138 5 -5 7 -42 4 -81 -2 -40 -9 -80 -13 -89 -6 -10 -5 -19 1 -23 6 -3 10
-18 11 -33 0 -15 2 -74 3 -132 2 -58 4 -109 5 -115 2 -5 2 -30 1 -55 -1 -25
-7 -48 -13 -52 -9 -6 -9 -12 -1 -26 7 -10 10 -42 9 -72 -2 -30 1 -60 7 -67 5
-7 5 -13 0 -17 -5 -3 -10 -76 -10 -161 0 -86 -4 -170 -7 -186 -4 -16 -2 -35 3
-42 6 -7 12 -23 14 -37 2 -18 11 -26 33 -31 17 -4 47 -14 67 -23 21 -9 46 -16
56 -16 10 0 27 -9 37 -20 10 -11 31 -20 47 -20 15 0 28 -4 28 -10 0 -5 6 -10
13 -10 7 0 30 -18 51 -39 21 -21 51 -41 66 -44 15 -4 39 -9 53 -13 l26 -6 -2
65 -2 66 -50 27 c-27 15 -79 42 -115 61 -36 19 -94 51 -130 72 l-65 38 -2 84
c-2 46 -7 149 -12 229 -6 80 -8 255 -7 390 2 135 -1 274 -6 310 -5 36 -11 121
-13 190 -3 77 -11 143 -21 174 -13 39 -14 53 -5 68 8 13 10 48 6 106 -3 48 -7
103 -10 122 -3 19 -8 78 -11 130 -3 52 -5 106 -5 120 1 13 -4 39 -10 58 -8 24
-8 46 1 82 9 37 9 88 1 208 -8 115 -8 168 -1 188 6 16 13 76 15 134 3 57 10
117 16 133 9 21 9 33 0 50 -8 16 -13 154 -16 472 -3 248 -5 461 -6 475 0 14
-5 68 -10 120 -6 52 -15 114 -21 137 -5 23 -6 47 -2 55 4 7 9 49 10 93 2 44 5
107 8 140 3 33 5 63 6 68 0 4 4 7 9 7 5 0 11 -15 14 -32 3 -18 7 -44 11 -57 3
-13 15 -34 26 -46 11 -12 20 -28 20 -37 0 -9 12 -60 26 -115 14 -54 32 -110
40 -125 8 -15 14 -34 14 -43 0 -8 11 -38 25 -67 14 -28 30 -88 36 -135 7 -45
16 -83 21 -83 4 0 8 -14 8 -31 0 -17 4 -38 9 -48 6 -10 12 -39 16 -65 3 -27
12 -58 20 -69 8 -12 15 -30 15 -40 0 -11 6 -33 14 -50 8 -18 17 -45 21 -62 3
-16 10 -59 15 -95 4 -35 13 -66 19 -68 6 -2 11 -21 11 -43 0 -26 7 -46 20 -59
17 -17 18 -24 8 -45 -9 -19 -7 -36 7 -82 10 -32 27 -77 37 -100 14 -32 25 -43
42 -43 12 0 30 6 41 13 15 12 17 23 12 73 -4 32 -8 66 -10 74 -3 8 -8 30 -12
48 -4 18 -12 35 -16 38 -5 3 -9 17 -9 32 0 15 -12 70 -26 122 -14 52 -30 113
-34 135 -5 22 -16 60 -26 85 -9 25 -17 54 -18 65 -1 11 -10 47 -20 80 -10 33
-24 76 -32 97 -7 20 -16 60 -20 90 -4 29 -13 62 -20 73 -6 11 -14 40 -17 65
-3 25 -19 92 -36 150 -17 58 -35 114 -40 125 -5 11 -19 49 -30 85 -11 36 -38
101 -60 145 -23 44 -51 96 -63 116 -13 20 -36 55 -52 77 -16 23 -36 42 -45 42
-9 0 -23 -5 -31 -10 -10 -6 -22 -4 -39 7 -19 12 -41 14 -120 8 -53 -4 -108
-14 -123 -21 -16 -8 -39 -12 -53 -8 -14 3 -25 10 -25 14 0 4 -19 13 -42 19
-24 6 -81 10 -128 9 -47 -1 -116 2 -153 7 -38 4 -71 13 -73 19 -3 7 -6 54 -8
106 -2 52 -7 122 -10 155 -4 33 -3 65 1 72 5 6 20 14 33 17 14 3 75 14 135 26
61 12 130 23 156 25 26 2 78 20 124 44 44 22 102 59 129 83 28 24 77 70 111
103 33 33 78 83 99 112 22 29 58 85 79 125 22 40 52 98 67 128 16 30 40 91 55
135 19 57 29 109 33 180 2 55 7 158 9 229 3 82 -2 177 -12 262 -9 73 -29 183
-45 246 -16 62 -34 129 -40 148 -6 19 -13 46 -16 60 -3 14 -19 54 -35 90 -17
36 -38 81 -47 100 -10 19 -32 57 -51 85 -19 27 -55 75 -79 105 -25 30 -61 70
-80 88 -19 18 -62 49 -96 68 -34 19 -79 48 -101 64 -25 18 -53 29 -73 30 -20
0 -40 8 -50 19 -10 10 -44 34 -77 51 -33 18 -72 39 -87 47 -15 8 -71 20 -125
27 -54 7 -107 18 -118 24 -11 6 -49 25 -84 42 -34 16 -75 30 -90 30 -14 0 -51
13 -81 28 -30 16 -56 36 -58 46 -2 9 1 23 8 31 6 7 38 16 70 20 33 4 63 11 66
16 3 5 24 9 47 9 24 0 53 7 66 16 13 9 57 23 99 30 42 7 114 16 159 19 46 3
105 13 131 21 34 10 122 16 317 20 148 3 273 8 278 11 6 3 23 8 40 9 16 2 36
-1 43 -7 9 -7 19 -7 34 1 15 8 35 9 68 1 32 -6 94 -7 186 0 76 5 147 14 156
19 10 5 20 7 23 4 3 -3 56 1 119 10 77 10 134 13 177 7 36 -4 84 -4 107 0 24
5 99 11 166 15 68 3 145 6 173 5 27 0 65 4 84 9 22 6 39 6 46 0 7 -6 14 -7 17
-4 4 3 71 9 150 13 78 5 215 7 303 5z m1312 -3544 c7 0 13 -7 13 -15 0 -9 11
-20 25 -25 14 -5 32 -7 40 -4 9 4 23 0 33 -9 9 -8 35 -17 57 -20 22 -3 55 -9
74 -13 19 -4 50 -17 69 -31 20 -13 47 -26 61 -29 14 -3 53 -18 86 -35 33 -16
66 -29 73 -29 7 0 15 -7 18 -15 4 -8 15 -15 25 -15 10 0 19 -4 19 -9 0 -5 8
-12 18 -15 9 -3 27 -12 40 -20 13 -7 32 -22 42 -32 10 -11 25 -24 33 -30 8 -7
27 -19 44 -27 16 -9 38 -27 47 -41 9 -15 25 -26 36 -26 10 0 26 -12 35 -27 9
-16 34 -40 56 -55 21 -15 49 -44 63 -65 13 -21 32 -45 43 -54 10 -8 27 -18 36
-22 9 -3 17 -15 17 -26 0 -10 19 -39 43 -63 27 -28 47 -61 56 -92 7 -26 22
-53 32 -59 11 -7 19 -18 19 -26 0 -8 18 -45 40 -83 22 -39 40 -72 40 -75 0 -3
9 -18 20 -33 14 -20 19 -37 14 -54 -4 -18 -2 -28 9 -32 13 -5 14 -10 4 -31 -9
-21 -8 -27 5 -34 9 -5 19 -27 23 -50 4 -22 12 -43 19 -45 7 -3 11 -16 8 -33
-3 -19 4 -37 23 -59 19 -23 30 -51 37 -95 5 -34 8 -84 8 -110 -1 -27 3 -54 8
-60 6 -7 12 -32 16 -57 3 -25 8 -70 11 -100 3 -30 6 -107 8 -170 2 -63 7 -131
12 -150 4 -19 8 -78 8 -131 0 -53 -8 -131 -18 -175 -10 -43 -22 -89 -28 -102
-6 -13 -10 -42 -10 -65 1 -22 -3 -47 -8 -53 -6 -7 -9 -23 -8 -36 1 -13 -2 -34
-8 -48 -6 -14 -18 -52 -28 -85 -9 -33 -30 -88 -46 -123 -16 -35 -29 -68 -29
-74 0 -6 -22 -57 -49 -112 -27 -56 -53 -113 -56 -129 -4 -15 -11 -30 -16 -33
-5 -3 -9 -13 -9 -22 0 -9 -11 -30 -25 -46 -14 -16 -25 -39 -25 -51 0 -13 -7
-28 -14 -35 -8 -6 -30 -35 -48 -63 -18 -29 -38 -56 -45 -62 -7 -5 -23 -30 -36
-55 -13 -25 -30 -57 -38 -70 -7 -14 -35 -60 -62 -102 -27 -43 -53 -78 -58 -78
-5 0 -16 -15 -25 -32 -9 -18 -64 -85 -123 -148 -58 -63 -115 -120 -127 -126
-11 -6 -45 -35 -75 -65 -30 -30 -81 -76 -113 -104 -31 -27 -67 -61 -79 -73
-12 -13 -34 -30 -48 -38 -15 -7 -29 -24 -33 -38 -4 -16 -17 -28 -38 -36 -20
-7 -62 -43 -103 -89 -38 -43 -86 -86 -105 -97 -19 -10 -54 -39 -78 -64 -24
-25 -46 -49 -50 -55 -4 -5 -27 -24 -52 -41 -25 -17 -63 -39 -85 -49 -22 -10
-51 -30 -65 -45 -14 -14 -53 -39 -87 -53 -35 -15 -89 -38 -120 -52 -32 -13
-85 -32 -118 -40 -33 -9 -69 -21 -80 -26 -11 -6 -47 -16 -80 -24 -33 -7 -78
-19 -100 -25 -22 -6 -60 -16 -85 -20 -25 -5 -79 -14 -120 -21 -41 -6 -102 -15
-135 -19 -33 -4 -73 -13 -89 -19 -15 -6 -69 -16 -120 -22 -50 -5 -127 -12
-171 -14 -44 -2 -127 -6 -185 -10 -58 -4 -123 -11 -145 -17 -22 -5 -78 -13
-125 -18 -47 -5 -121 -14 -165 -20 -44 -6 -93 -10 -110 -9 -16 2 -46 2 -65 1
-19 -1 -98 -4 -175 -7 -77 -2 -158 -7 -180 -10 -22 -3 -80 -8 -130 -11 -49 -2
-108 -9 -130 -14 -22 -5 -112 -15 -200 -21 -88 -7 -189 -15 -225 -18 -36 -3
-126 -4 -200 -4 -77 1 -165 8 -205 17 -38 8 -86 19 -105 25 -19 5 -66 17 -105
26 -38 10 -74 21 -79 26 -6 5 -18 9 -28 9 -9 0 -41 11 -70 24 -29 13 -70 31
-92 40 -21 9 -47 16 -57 16 -10 0 -33 12 -51 28 -18 15 -51 37 -73 48 -22 12
-51 25 -65 29 -14 4 -62 25 -107 46 -46 22 -109 55 -140 74 -32 19 -70 35 -84
35 -14 0 -34 7 -45 15 -10 8 -26 15 -34 15 -8 0 -50 32 -93 70 -43 39 -84 70
-92 70 -8 0 -21 12 -30 28 -9 15 -30 36 -46 48 -16 12 -70 65 -119 120 -50 54
-90 106 -90 116 0 10 -13 27 -30 40 -16 12 -33 31 -36 42 -4 12 -28 48 -54 81
-26 33 -57 79 -68 101 -12 23 -33 55 -47 72 -14 16 -25 33 -25 38 0 4 -6 15
-13 23 -8 9 -21 35 -30 57 -9 23 -36 73 -61 112 -25 38 -55 96 -67 128 -12 33
-30 78 -40 101 -11 23 -19 47 -19 53 0 5 -4 18 -9 28 -5 9 -19 53 -31 97 -13
44 -26 85 -30 90 -4 6 -10 30 -12 55 -3 25 -15 95 -26 155 -12 61 -26 147 -33
191 -6 45 -8 96 -4 114 5 21 2 41 -6 57 -11 21 -11 29 3 54 13 21 17 54 17
131 0 57 2 150 5 209 4 58 10 119 15 136 5 16 7 42 4 57 -3 14 2 41 11 60 9
19 23 65 30 103 8 37 19 97 24 133 6 36 17 92 26 124 9 37 12 65 6 75 -6 11
-2 23 13 39 11 12 29 48 38 78 10 31 15 70 12 89 -3 19 -1 35 6 39 6 4 11 16
11 26 0 10 6 23 14 27 7 4 23 31 34 58 11 28 32 84 47 125 15 41 38 98 51 125
12 28 25 57 28 65 3 8 12 24 18 35 7 11 36 54 63 95 28 42 55 85 62 95 7 11
39 65 72 120 33 55 71 111 83 125 13 14 43 50 68 80 25 30 53 64 64 75 10 11
30 35 45 54 14 19 61 69 104 110 43 42 105 91 138 109 33 17 87 44 122 58 34
14 89 34 122 46 33 11 76 24 95 29 19 4 58 15 85 25 28 9 66 23 85 30 19 8 73
18 120 24 46 5 123 10 170 10 47 0 119 8 160 17 55 12 125 16 263 17 127 0
191 -4 195 -11 4 -6 25 -15 47 -19 22 -4 49 -7 59 -5 11 2 48 0 82 -4 l62 -6
6 -82 c4 -45 9 -185 11 -312 3 -126 7 -246 8 -266 2 -19 7 -40 11 -47 4 -6 3
-20 -3 -30 -6 -11 -6 -34 -1 -58 4 -21 11 -75 14 -119 3 -44 10 -109 15 -144
7 -47 7 -72 -2 -95 -7 -17 -10 -47 -7 -66 3 -19 2 -51 -2 -70 -4 -19 -8 -54
-8 -77 0 -23 4 -44 10 -48 6 -4 5 -16 -1 -33 -6 -15 -8 -44 -5 -65 l6 -37
-247 1 c-137 1 -291 -3 -343 -9 -52 -6 -117 -14 -145 -16 -27 -3 -97 -11 -155
-17 -58 -6 -179 -9 -270 -8 -114 2 -172 -1 -187 -9 -12 -7 -34 -12 -49 -12
-15 0 -41 -4 -58 -9 -17 -6 -63 -19 -102 -31 -54 -15 -86 -33 -130 -70 -33
-27 -78 -65 -101 -86 -24 -20 -43 -41 -43 -46 0 -5 -18 -33 -40 -63 -25 -34
-40 -65 -40 -83 0 -16 -9 -37 -19 -46 -12 -11 -21 -36 -24 -64 -3 -26 -12 -75
-20 -109 -8 -35 -19 -69 -24 -75 -6 -7 -15 -38 -21 -69 -6 -31 -8 -66 -5 -78
3 -11 -6 -50 -21 -85 -21 -54 -27 -90 -35 -218 -4 -84 -8 -164 -8 -178 0 -14
-1 -59 -3 -100 -1 -43 2 -76 7 -77 7 -3 5 -17 -3 -41 -7 -20 -13 -47 -14 -59
0 -12 4 -24 8 -27 5 -3 9 -76 11 -163 1 -87 3 -169 5 -183 1 -14 6 -42 10 -62
4 -20 15 -39 23 -42 11 -4 13 -14 8 -36 -4 -17 -2 -36 3 -43 5 -7 13 -31 17
-54 4 -23 15 -53 26 -67 10 -13 19 -36 19 -49 0 -14 4 -37 10 -51 5 -14 16
-26 25 -26 8 0 15 -8 15 -18 0 -10 4 -22 8 -27 5 -6 14 -29 22 -52 7 -23 24
-52 36 -64 13 -13 24 -26 24 -31 0 -4 7 -16 15 -25 9 -10 30 -34 48 -54 18
-19 40 -51 50 -71 9 -19 37 -57 61 -84 25 -27 54 -59 65 -72 12 -12 21 -25 21
-27 0 -2 10 -19 23 -37 12 -19 32 -45 45 -58 13 -14 28 -25 35 -25 6 0 18 -13
25 -28 9 -18 19 -26 28 -23 8 3 14 -1 14 -9 0 -8 7 -15 15 -15 8 0 25 -16 37
-35 14 -22 31 -35 44 -35 13 0 36 -17 58 -44 21 -26 51 -49 71 -56 19 -6 35
-15 35 -20 0 -5 7 -16 16 -24 8 -9 25 -16 36 -16 11 0 33 -9 49 -21 16 -11 34
-17 40 -13 7 4 17 0 23 -8 6 -8 25 -22 43 -31 18 -10 47 -17 66 -17 18 0 37
-4 43 -10 5 -5 49 -14 99 -19 49 -6 91 -8 93 -6 3 3 11 0 17 -5 7 -6 37 -10
66 -10 30 0 61 0 69 0 8 1 35 -2 60 -6 25 -3 63 -13 85 -22 22 -8 61 -16 87
-18 26 -1 53 -6 60 -10 7 -4 43 -9 80 -10 36 -1 110 -7 163 -15 77 -10 113
-10 178 -1 63 9 83 9 95 -1 8 -6 31 -13 51 -13 20 -1 97 -7 171 -13 74 -6 176
-13 225 -16 50 -3 133 -5 185 -5 52 1 100 5 105 9 6 4 55 6 110 4 55 -2 159
-4 230 -4 72 -1 167 1 211 4 45 3 92 10 104 17 12 7 37 9 59 5 20 -3 50 -1 66
5 17 7 41 14 55 16 14 2 41 6 60 9 19 2 58 11 87 19 28 8 61 19 72 25 11 6 32
11 46 11 15 0 49 11 76 25 28 13 73 27 102 30 29 4 77 12 108 20 32 7 83 26
115 43 33 17 70 34 83 37 13 4 45 23 71 41 26 19 54 34 61 34 8 0 22 7 32 14
9 7 17 18 17 24 0 5 7 13 16 16 9 3 24 6 34 6 11 0 35 13 53 30 19 16 44 30
55 30 12 0 44 19 71 42 27 24 77 63 110 88 34 25 70 54 79 65 10 11 37 37 59
57 23 20 47 46 53 57 6 12 16 21 23 21 7 0 24 15 38 32 13 18 29 40 34 49 6 9
27 41 48 72 21 32 42 57 48 57 6 0 6 6 0 19 -8 14 -6 23 10 37 12 11 27 31 35
46 8 16 11 28 7 28 -5 0 0 5 10 11 9 5 34 36 55 67 20 31 53 91 73 132 20 41
40 86 44 100 4 14 15 41 25 60 10 19 28 66 39 104 12 38 21 75 21 82 0 6 18
70 39 140 22 71 44 154 50 184 6 30 13 91 15 135 3 44 8 132 12 195 5 84 2
151 -11 250 -9 74 -30 200 -46 280 -16 80 -39 177 -53 215 -13 39 -37 93 -54
120 -17 28 -45 75 -61 105 -16 31 -51 80 -77 109 -26 29 -62 63 -80 75 -17 11
-56 37 -85 56 -30 20 -74 42 -99 49 -25 7 -56 19 -70 25 -14 7 -50 20 -80 28
-30 9 -89 25 -130 37 -41 11 -97 24 -125 27 -27 4 -55 11 -62 16 -7 6 -86 14
-175 19 -90 4 -224 8 -298 8 -85 1 -157 -5 -195 -14 -33 -8 -67 -14 -75 -15
-13 0 -15 21 -15 132 -1 73 -4 219 -7 325 -4 113 -11 201 -18 213 -7 12 -14
38 -16 57 -3 19 -9 44 -15 55 -7 14 -7 23 1 33 8 10 8 53 0 167 -7 84 -14 239
-17 345 -3 106 -2 204 1 219 l7 27 94 -7 c62 -4 102 -2 122 5 19 8 142 13 393
14 201 2 394 5 429 9 35 3 66 8 69 11 3 3 11 5 19 5z"/>
<g>
<path d="M3760 9270 c-26 0 -52 -6 -58 -12 -5 -7 -17 -30 -26 -52 -9 -21 -16
-46 -16 -56 0 -10 14 -30 30 -43 17 -14 30 -30 30 -35 0 -5 12 -14 26 -21 20
-9 35 -9 61 0 21 7 38 20 44 36 5 13 9 46 9 73 0 38 -6 55 -26 79 -22 27 -32
31 -74 31z"/>
</g>
<g>
<path d="M8118 9228 c-20 2 -39 -1 -42 -7 -4 -5 -19 -12 -34 -16 -15 -3 -39
-20 -53 -38 -15 -18 -29 -46 -33 -62 -5 -25 -2 -34 25 -55 17 -14 36 -29 43
-35 6 -5 31 -11 56 -12 25 -2 59 2 77 8 22 7 38 23 53 51 13 25 17 43 11 47
-5 4 -23 31 -38 61 -26 50 -32 55 -65 58z"/>
</g>
<g>
<path d="M4824 9206 c-27 11 -35 10 -62 -7 -18 -10 -41 -33 -52 -51 -11 -18
-20 -47 -20 -64 0 -20 9 -39 28 -58 16 -14 46 -31 66 -37 31 -8 41 -7 55 5 10
9 22 16 28 16 6 0 16 14 22 31 6 18 11 44 11 59 0 15 -10 42 -22 60 -13 19
-37 39 -54 46z"/>
</g>
<g>
<path d="M7042 9209 c-15 -1 -34 -3 -42 -6 -8 -2 -33 -28 -56 -56 -23 -29 -44
-66 -47 -83 -5 -26 0 -36 31 -67 21 -20 51 -39 68 -43 20 -4 42 0 62 10 17 9
40 28 51 42 15 19 21 41 21 74 0 36 -7 56 -30 88 -23 33 -36 42 -58 41z"/>
</g>
<g>
<path d="M7521 8990 c-10 0 -29 -8 -41 -18 -19 -15 -21 -23 -14 -53 4 -19 7
-37 6 -42 -1 -4 -4 -54 -6 -110 -2 -57 -8 -112 -13 -123 -6 -10 -8 -25 -6 -31
3 -7 -1 -13 -7 -13 -8 0 -10 -10 -6 -32 3 -18 6 -37 7 -43 0 -5 -3 -23 -6 -40
-4 -16 -11 -40 -17 -52 -6 -13 -9 -25 -7 -28 3 -2 48 -11 100 -19 51 -8 110
-18 130 -22 26 -4 40 -2 52 11 12 11 17 33 17 71 0 48 -2 54 -22 58 -13 3 -51
10 -85 17 l-62 13 -6 50 c-3 28 -5 67 -4 86 1 19 8 88 16 154 11 87 12 125 4
142 -6 13 -19 24 -30 24z"/>
</g>
<g>
<path d="M4426 8940 c-7 0 -19 -9 -29 -20 -9 -11 -17 -33 -17 -50 0 -16 4 -31
9 -35 6 -3 10 -13 10 -23 0 -9 3 -42 6 -72 4 -30 13 -68 20 -85 7 -16 15 -46
18 -65 3 -19 8 -42 11 -51 5 -10 -6 -25 -33 -47 -22 -18 -49 -32 -61 -32 -11
0 -32 -12 -45 -26 -16 -18 -25 -39 -25 -60 0 -27 6 -36 30 -49 27 -14 34 -14
58 -2 15 8 58 31 95 51 37 20 72 34 77 31 4 -3 15 -2 24 1 9 3 16 12 16 20 0
8 -6 14 -14 14 -8 0 -18 5 -21 11 -4 6 2 21 14 33 12 12 19 25 15 28 -3 3 -14
40 -24 82 -11 41 -27 90 -37 108 -10 18 -18 40 -19 49 -1 9 -9 31 -18 50 -16
33 -16 34 6 51 l23 18 -39 35 c-22 19 -44 35 -50 35z"/>
</g>
<g>
<path d="M8026 8250 c-19 0 -38 -5 -42 -11 -4 -7 -24 -9 -53 -6 -28 3 -63 -1
-91 -10 -34 -12 -87 -15 -220 -15 -96 1 -211 -3 -255 -9 -66 -8 -84 -14 -103
-36 -13 -14 -22 -35 -20 -47 2 -11 12 -22 23 -25 11 -2 23 -9 27 -16 5 -8 22
-12 40 -10 18 2 76 8 128 13 70 8 98 8 108 -1 10 -8 56 -11 141 -9 69 2 155 9
191 16 36 7 89 12 118 11 44 -3 52 0 52 15 0 10 -6 20 -14 23 -8 3 -13 17 -11
36 1 17 5 34 9 38 3 3 6 15 6 25 0 14 -8 18 -34 18z"/>
</g>
<g>
<path d="M4070 8194 c-36 2 -74 2 -85 -1 -12 -2 -31 -23 -44 -48 -15 -28 -21
-51 -16 -65 4 -13 12 -19 21 -16 7 3 16 1 19 -4 4 -6 98 -9 223 -9 119 0 250
0 290 0 69 -1 77 2 113 32 25 21 38 39 37 52 -2 13 -16 24 -42 33 -24 8 -118
14 -245 17 -113 3 -235 7 -271 9z"/>
</g>
</g>
</g>
</svg>
