<?xml version="1.0" standalone="no"?>
<!DOCTYPE svg PUBLIC "-//W3C//DTD SVG 20010904//EN"
 "http://www.w3.org/TR/2001/REC-SVG-20010904/DTD/svg10.dtd">
<svg version="1.0" xmlns="http://www.w3.org/2000/svg"
 width="1845.000000pt" height="1845.000000pt" viewBox="0 0 1845.000000 1845.000000"
 preserveAspectRatio="xMidYMid meet">
<metadata>
Created by potrace 1.16, written by Peter Selinger 2001-2019
</metadata>
<g transform="translate(0.000000,1845.000000) scale(0.100000,-0.100000)"
fill="#000000" stroke="none">
<g>
<path d="M4298 16275 c-10 1 -19 1 -21 -1 -2 -2 -29 -4 -60 -5 -31 -1 -57 -5
-57 -8 0 -4 -26 -7 -57 -8 -32 -1 -84 -9 -116 -17 -32 -8 -83 -28 -113 -43
-30 -15 -76 -48 -103 -73 -27 -25 -57 -52 -68 -61 -10 -9 -40 -43 -66 -75 -26
-33 -68 -84 -92 -115 -25 -31 -45 -59 -45 -64 0 -4 -13 -24 -29 -44 -16 -20
-44 -65 -62 -101 -18 -36 -36 -66 -41 -68 -4 -2 -8 -9 -8 -16 0 -7 -13 -32
-30 -54 -16 -23 -30 -46 -30 -50 0 -5 -9 -27 -20 -50 -11 -22 -20 -48 -20 -57
0 -9 -11 -38 -25 -65 -14 -27 -25 -62 -25 -76 0 -15 -6 -35 -14 -43 -8 -9 -21
-38 -30 -65 -9 -27 -30 -83 -45 -125 -16 -42 -41 -116 -57 -166 -15 -49 -31
-94 -36 -99 -4 -5 -35 4 -71 22 -36 18 -70 32 -76 32 -6 0 -19 4 -29 9 -9 5
-38 14 -64 20 -26 6 -61 11 -78 11 -17 0 -39 -4 -48 -9 -9 -5 -37 -11 -62 -14
-25 -2 -54 -8 -65 -12 -11 -4 -31 -12 -45 -18 -14 -6 -33 -18 -42 -26 -10 -8
-18 -11 -18 -8 0 4 -21 -3 -46 -13 -25 -11 -68 -41 -95 -67 -28 -27 -55 -49
-60 -51 -5 -2 -9 -10 -9 -17 0 -8 -6 -18 -13 -22 -7 -4 -29 -31 -50 -59 -20
-29 -37 -56 -37 -62 0 -5 -7 -15 -15 -22 -8 -7 -15 -20 -15 -30 0 -9 -22 -46
-50 -81 -27 -35 -61 -86 -75 -114 -14 -27 -32 -60 -39 -73 -7 -12 -23 -33 -35
-46 -12 -12 -23 -32 -26 -43 -2 -12 -15 -39 -29 -62 -14 -22 -26 -48 -26 -57
0 -9 -10 -33 -22 -53 -12 -19 -24 -40 -25 -46 -1 -5 -14 -55 -30 -110 -15 -55
-28 -125 -28 -155 -1 -30 -6 -64 -12 -75 -8 -14 -7 -73 3 -209 12 -172 16
-194 41 -245 15 -31 34 -62 41 -69 7 -8 20 -28 29 -45 9 -18 29 -48 44 -67 16
-19 29 -38 29 -42 0 -4 14 -21 31 -38 18 -16 36 -30 41 -30 4 0 36 -25 71 -56
34 -31 73 -66 87 -79 14 -13 38 -27 54 -31 16 -4 57 -28 91 -55 34 -26 106
-69 159 -96 53 -26 127 -64 164 -83 37 -19 79 -43 92 -52 l23 -17 -24 -20
c-13 -11 -32 -20 -42 -21 -11 0 -51 -15 -90 -34 -40 -19 -98 -57 -129 -85 -31
-28 -71 -75 -89 -104 -17 -28 -35 -54 -38 -57 -4 -3 -16 -23 -27 -45 -11 -22
-28 -53 -36 -70 -9 -16 -21 -41 -27 -55 -5 -14 -17 -63 -27 -109 -11 -59 -14
-106 -9 -155 3 -39 8 -87 10 -106 2 -19 6 -43 8 -52 2 -10 6 -21 10 -24 4 -4
7 -17 7 -29 0 -13 7 -28 15 -35 9 -7 14 -19 11 -25 -2 -7 1 -28 8 -48 6 -19
17 -41 23 -48 6 -8 23 -41 39 -74 16 -33 43 -78 61 -101 18 -23 33 -46 33 -53
0 -6 4 -11 9 -11 5 0 34 -24 64 -52 31 -29 78 -74 106 -100 28 -27 57 -48 66
-48 8 0 29 -12 47 -27 18 -16 42 -34 53 -40 11 -7 36 -20 55 -29 19 -9 44 -20
55 -24 11 -5 29 -12 40 -16 11 -4 25 -8 31 -9 6 -2 51 -15 100 -29 49 -15 100
-31 114 -36 14 -5 57 -12 95 -14 39 -3 117 -14 175 -25 57 -10 125 -17 150
-15 25 2 62 9 83 16 20 6 37 14 37 17 0 3 15 7 33 7 17 1 57 9 87 17 30 9 91
34 135 55 57 29 84 37 93 30 6 -6 12 -16 12 -22 0 -6 11 -28 25 -49 14 -20 23
-37 19 -37 -4 0 2 -10 13 -22 11 -13 25 -50 32 -83 7 -33 21 -87 30 -120 10
-33 16 -64 13 -69 -3 -5 -7 -26 -8 -47 -2 -22 -1 -39 4 -39 4 0 9 -28 10 -62
2 -34 6 -67 10 -73 3 -5 9 -86 13 -180 4 -99 2 -181 -3 -197 -7 -20 -5 -43 7
-85 11 -38 15 -75 11 -108 -3 -27 -1 -88 4 -135 5 -47 14 -116 19 -155 5 -38
10 -119 11 -180 1 -60 7 -141 12 -180 5 -38 12 -284 15 -545 3 -261 7 -511 10
-555 2 -44 6 -190 9 -325 2 -135 4 -299 3 -365 0 -65 -2 -122 -5 -126 -2 -4
-6 -213 -9 -466 -3 -252 -8 -501 -11 -553 -3 -52 -7 -160 -10 -240 -3 -80 -7
-199 -8 -265 -2 -66 -6 -131 -9 -145 -4 -14 -10 -74 -14 -135 -3 -60 -8 -144
-9 -185 -2 -41 -6 -106 -9 -145 -3 -38 -11 -92 -16 -120 -6 -27 -14 -74 -19
-104 -5 -29 -13 -65 -19 -80 -5 -14 -12 -46 -15 -71 -2 -25 -7 -58 -11 -74 -3
-16 -10 -37 -15 -46 -5 -9 -11 -28 -14 -41 -2 -13 -19 -76 -37 -139 -17 -63
-39 -126 -48 -139 -8 -13 -16 -31 -18 -40 -1 -8 -14 -39 -29 -68 -15 -30 -31
-56 -35 -59 -5 -3 -9 -15 -9 -28 0 -12 -23 -67 -51 -122 -29 -54 -63 -121 -77
-149 -14 -27 -36 -61 -49 -75 -12 -13 -23 -28 -23 -31 0 -3 -14 -22 -30 -40
-17 -19 -38 -47 -46 -62 -8 -16 -30 -48 -49 -73 -18 -24 -48 -62 -67 -85 -18
-23 -56 -67 -83 -98 -28 -31 -61 -72 -75 -91 -13 -19 -38 -51 -55 -70 -18 -19
-58 -64 -91 -100 -32 -36 -77 -81 -100 -100 -23 -19 -62 -51 -87 -70 -26 -19
-49 -42 -52 -52 -3 -9 -16 -23 -29 -32 -13 -8 -46 -37 -74 -63 -27 -26 -67
-64 -88 -83 -21 -20 -53 -52 -71 -73 -18 -20 -37 -37 -43 -37 -5 0 -10 -4 -10
-10 0 -5 -7 -10 -15 -10 -7 0 -18 -7 -22 -15 -5 -8 -36 -34 -70 -58 -33 -23
-85 -63 -113 -87 -29 -25 -71 -57 -94 -72 -22 -16 -47 -28 -54 -28 -8 0 -25
-9 -39 -20 -14 -11 -44 -25 -67 -30 -22 -6 -63 -21 -91 -33 -27 -12 -53 -26
-56 -30 -3 -5 -35 -16 -70 -26 -35 -10 -75 -23 -89 -29 -14 -6 -44 -16 -67
-22 -27 -7 -52 -23 -73 -47 -29 -33 -31 -40 -25 -82 4 -25 9 -49 12 -54 2 -4
13 -3 23 3 10 5 25 7 34 4 8 -3 62 9 118 26 57 18 108 36 113 40 6 4 26 10 45
13 19 2 44 7 55 11 11 3 40 11 65 17 25 6 53 15 62 20 10 5 24 9 32 9 8 0 16
4 18 10 2 5 30 16 64 25 34 8 81 25 105 36 24 12 52 28 61 36 9 8 21 12 26 9
5 -3 21 3 35 14 14 11 34 20 44 20 10 0 29 7 41 16 12 8 26 13 31 9 5 -3 31 6
57 20 26 14 64 25 84 25 22 0 48 8 63 20 14 11 32 20 40 20 8 0 20 7 27 15 7
8 25 15 40 15 15 0 41 7 58 16 18 8 32 19 32 23 0 5 23 12 52 15 28 4 57 10
62 14 6 4 13 7 16 8 3 0 25 10 50 21 25 12 70 24 100 27 30 4 57 11 58 16 2 6
11 10 20 10 10 0 51 12 92 25 41 14 82 25 92 25 10 0 18 4 18 10 0 5 19 14 43
20 23 6 58 17 77 24 19 8 55 21 80 31 25 9 59 23 75 30 17 7 37 16 45 19 8 4
25 12 36 19 12 7 28 18 35 23 8 6 35 19 62 29 26 10 47 22 47 26 0 5 9 9 19 9
11 0 56 27 100 60 45 33 84 60 87 60 3 0 36 26 72 58 37 31 69 60 70 65 2 4 9
7 16 7 7 0 32 18 56 40 24 22 47 40 51 40 4 0 20 11 36 24 15 13 38 26 51 30
12 4 31 5 41 1 11 -3 62 -58 115 -123 53 -64 107 -129 121 -143 14 -14 25 -31
25 -37 0 -5 13 -22 30 -35 16 -14 30 -32 30 -39 1 -7 19 -26 40 -43 22 -16 47
-47 57 -67 9 -21 20 -38 24 -38 4 0 39 -32 78 -72 39 -40 71 -75 71 -79 0 -4
23 -30 50 -58 28 -28 50 -60 50 -71 0 -14 5 -18 18 -14 9 3 26 9 37 14 11 5
28 11 37 14 9 3 29 24 44 47 14 23 28 60 30 81 2 22 7 44 10 50 4 6 8 35 11
66 2 30 9 64 14 75 6 11 19 63 30 116 10 53 23 114 28 136 6 22 15 65 21 95 6
30 16 80 22 110 6 30 14 90 17 132 3 42 10 80 14 84 4 5 11 3 15 -3 4 -6 26
-16 50 -23 23 -7 42 -18 42 -25 0 -6 19 -21 43 -33 23 -12 49 -26 57 -30 8 -5
31 -17 50 -27 19 -10 50 -27 69 -37 19 -10 39 -22 45 -28 5 -5 21 -10 35 -10
13 0 32 -6 40 -14 9 -8 36 -22 61 -31 25 -9 54 -17 64 -16 11 0 26 -9 33 -19
8 -11 21 -20 30 -20 9 0 37 -13 62 -29 25 -16 65 -32 88 -36 23 -3 51 -15 63
-25 12 -10 27 -17 34 -14 7 3 32 -4 57 -15 24 -12 56 -21 71 -21 15 0 29 -4
32 -9 3 -5 18 -11 33 -14 16 -3 81 -19 147 -36 65 -17 133 -31 150 -31 18 0
36 -4 42 -9 5 -5 36 -13 69 -18 33 -4 83 -7 112 -6 28 1 61 7 72 13 13 6 21
21 21 36 0 17 -8 27 -24 34 -18 6 -22 14 -19 33 4 20 -3 28 -41 51 -25 14 -88
60 -140 100 -51 41 -103 82 -114 92 -11 11 -42 41 -70 67 -28 27 -58 65 -68
85 -9 20 -27 51 -39 67 -12 17 -30 50 -40 75 -11 25 -24 48 -29 52 -6 4 -8 9
-5 12 3 3 73 13 155 21 82 9 199 22 259 30 61 8 133 18 160 22 28 3 59 8 70 9
11 1 72 7 136 13 64 6 150 11 190 12 41 1 85 6 98 10 15 6 28 6 36 -1 8 -7 78
-9 200 -7 167 4 189 6 213 24 19 14 28 31 30 56 3 29 -1 38 -20 48 -13 7 -26
17 -30 23 -4 6 -18 12 -30 13 -13 1 -88 9 -168 17 -80 8 -174 24 -209 35 -35
12 -71 21 -80 21 -9 0 -25 7 -35 15 -11 8 -27 15 -36 15 -9 0 -25 9 -35 20
-10 11 -22 20 -28 20 -5 0 -39 15 -76 32 -36 18 -72 38 -79 45 -7 7 -20 13
-29 13 -8 0 -28 10 -44 23 -16 12 -56 42 -90 67 -34 25 -89 69 -123 99 -33 29
-85 77 -115 105 -29 28 -80 85 -113 126 -32 41 -79 100 -103 130 -25 30 -52
68 -61 84 -9 16 -24 37 -33 47 -9 10 -38 69 -65 131 -27 62 -56 120 -63 129
-7 8 -13 21 -13 28 0 7 -13 43 -29 80 -16 37 -32 88 -36 112 -3 24 -16 71 -26
104 -11 33 -24 69 -29 80 -5 11 -11 36 -14 55 -3 19 -13 71 -22 115 -9 44 -18
103 -19 130 -1 28 -7 64 -14 80 -7 17 -14 50 -16 75 -2 25 -9 74 -15 110 -6
36 -15 74 -20 85 -4 11 -11 47 -15 79 -3 33 -10 64 -14 70 -5 6 -14 47 -21 91
-6 44 -19 116 -30 160 -10 44 -23 109 -29 145 -7 36 -16 97 -22 135 -5 39 -12
117 -14 175 -2 58 -8 170 -14 250 -6 80 -14 179 -17 220 -3 41 -9 176 -14 300
-5 124 -12 272 -15 329 -3 57 -10 109 -15 116 -5 7 -7 14 -5 17 3 3 6 174 7
379 1 221 -4 431 -11 514 -6 77 -12 174 -12 215 0 41 -7 181 -15 310 -9 129
-18 269 -20 310 -2 41 -10 118 -19 170 -9 52 -21 169 -26 260 -4 91 -11 203
-15 249 -4 57 -2 91 6 106 9 16 18 21 38 18 15 -3 34 -7 42 -10 8 -3 67 -4
130 -2 63 1 126 3 140 3 14 1 32 6 40 11 8 6 40 15 70 22 30 6 67 12 81 12 15
1 32 7 38 15 7 8 27 17 45 20 19 4 50 18 70 31 20 14 39 25 41 25 3 0 32 28
66 63 34 34 70 78 80 97 11 19 31 51 44 70 13 19 32 46 43 60 10 14 31 50 46
80 16 30 34 67 42 81 7 14 24 68 38 120 14 52 23 104 20 115 -3 11 4 60 16
109 15 64 21 113 19 181 -2 52 0 96 3 100 4 3 42 7 85 9 43 2 141 11 218 20
77 9 167 24 200 32 33 9 71 23 85 32 14 8 46 34 72 58 26 24 51 43 55 43 4 0
55 46 113 103 58 56 147 147 197 202 51 56 109 123 128 151 26 36 39 69 46
115 6 35 8 91 4 124 -3 33 -10 83 -15 110 -6 28 -19 95 -30 150 -11 54 -20
113 -20 130 0 16 -12 77 -26 135 -14 57 -30 113 -35 122 -5 10 -12 37 -15 60
-4 23 -17 57 -30 74 -13 17 -24 34 -24 39 0 4 -18 27 -40 52 l-41 43 32 40
c18 22 35 40 38 40 3 0 12 14 20 32 8 17 32 50 54 72 22 23 51 59 66 80 14 21
31 47 36 57 6 9 27 37 45 60 19 24 47 57 61 74 14 16 32 41 39 55 7 14 34 57
59 95 25 39 49 73 55 77 5 3 11 32 14 63 3 39 -1 69 -13 98 -9 23 -21 49 -25
58 -4 8 -20 39 -35 67 -15 28 -55 77 -89 109 -34 32 -82 72 -106 88 -25 17
-46 33 -48 37 -2 4 -24 18 -50 30 -26 13 -55 31 -66 40 -10 9 -34 24 -52 33
-18 8 -36 20 -40 26 -3 6 -39 26 -78 45 -40 18 -97 39 -127 45 -30 6 -58 15
-64 20 -5 5 -19 9 -31 9 -12 0 -37 6 -55 14 -19 7 -61 17 -94 21 -33 5 -70 7
-82 6 -13 -1 -23 2 -23 8 0 5 -16 13 -35 17 -19 3 -35 11 -35 18 0 6 33 38 72
71 40 33 85 74 101 90 16 17 41 55 57 85 15 31 33 75 40 98 6 24 11 108 12
187 0 79 -5 167 -11 196 -7 30 -16 72 -22 94 -5 22 -11 49 -13 60 -2 11 -23
57 -46 103 -28 54 -59 97 -91 126 -26 24 -90 64 -142 90 -51 25 -97 46 -101
46 -4 0 -20 8 -34 19 -15 10 -40 22 -57 26 -16 4 -48 9 -70 10 -22 2 -60 10
-85 18 -25 9 -90 24 -145 34 -77 14 -146 18 -300 17 -180 -1 -213 -3 -325 -28
-69 -16 -152 -41 -186 -57 -33 -16 -67 -29 -75 -29 -8 0 -31 -14 -53 -30 -21
-16 -54 -34 -72 -40 -19 -7 -34 -15 -34 -20 0 -5 -20 -18 -45 -29 -25 -11 -45
-25 -45 -30 0 -6 -8 -11 -17 -11 -9 0 -35 -12 -57 -27 -23 -14 -52 -34 -66
-43 -14 -9 -41 -23 -61 -33 -19 -9 -52 -30 -73 -47 -22 -16 -45 -30 -52 -30
-7 0 -36 -20 -65 -45 -29 -25 -56 -45 -60 -45 -5 0 -28 -13 -52 -30 -24 -16
-61 -47 -83 -70 -21 -22 -44 -40 -51 -40 -7 0 -17 17 -22 38 -6 20 -11 44 -11
53 0 9 -7 34 -16 55 -9 22 -27 62 -41 91 -14 29 -31 57 -39 64 -8 6 -14 20
-14 31 0 11 -19 43 -42 72 -23 28 -53 62 -67 76 -14 14 -53 43 -86 65 -33 22
-63 39 -67 37 -3 -1 -12 5 -18 13 -7 8 -20 15 -30 15 -9 0 -25 9 -35 21 -11
11 -53 37 -95 57 -41 20 -76 40 -78 44 -2 4 -10 4 -18 1 -8 -3 -20 -1 -27 4
-6 6 -36 18 -64 28 -29 11 -53 22 -53 26 0 3 -42 10 -92 15 -51 4 -101 9 -110
9z m45 -132 c17 -2 46 -5 63 -7 17 -1 62 -15 100 -30 38 -15 85 -35 104 -44
19 -8 38 -15 43 -14 4 1 7 -2 7 -6 0 -4 17 -14 38 -21 20 -8 59 -29 86 -48 27
-20 55 -36 62 -37 7 -1 35 -18 61 -36 26 -19 59 -46 73 -60 14 -14 44 -47 66
-75 22 -27 50 -69 62 -92 11 -22 35 -85 53 -140 21 -65 34 -128 38 -188 l6
-90 39 -3 c21 -2 46 0 55 4 9 4 19 8 23 8 3 1 16 12 27 25 12 13 21 28 21 32
0 4 9 10 20 14 10 3 28 21 39 38 11 18 48 51 83 75 36 23 74 53 86 67 12 14
35 28 52 31 16 4 31 12 34 19 3 8 24 23 48 34 24 12 77 41 118 67 41 25 82 52
90 59 8 7 26 16 39 20 13 4 56 34 96 66 39 33 79 59 87 59 9 0 18 5 20 11 2 6
26 15 53 20 27 5 53 16 57 24 5 8 25 19 46 25 20 6 66 18 102 26 36 8 79 17
95 20 17 3 64 10 105 15 41 5 122 12 180 14 58 2 128 0 155 -6 28 -5 61 -11
75 -14 14 -2 45 -9 70 -14 25 -5 79 -17 120 -26 41 -8 83 -15 92 -15 10 0 52
-18 95 -39 43 -22 94 -46 113 -55 20 -9 59 -37 87 -61 29 -25 65 -65 81 -89
16 -24 37 -65 45 -92 9 -27 21 -80 27 -119 6 -38 11 -130 11 -203 -1 -82 -5
-141 -13 -155 -6 -12 -10 -22 -7 -22 2 0 -10 -25 -27 -55 -18 -31 -56 -78 -85
-107 -30 -28 -100 -96 -156 -151 -57 -55 -103 -103 -103 -107 0 -4 14 -20 30
-37 26 -26 35 -29 65 -24 19 4 61 2 92 -3 32 -6 77 -13 101 -16 23 -3 63 -7
90 -10 26 -2 71 -9 101 -15 29 -5 74 -16 100 -24 25 -7 83 -32 128 -54 45 -22
113 -61 150 -86 37 -25 93 -64 123 -86 30 -22 68 -48 84 -57 17 -10 39 -29 50
-42 12 -13 38 -40 59 -60 21 -20 48 -56 60 -81 11 -25 20 -61 20 -81 -1 -19
-11 -55 -23 -80 -13 -24 -25 -46 -29 -49 -3 -3 -20 -25 -36 -49 -17 -24 -41
-60 -55 -81 -14 -21 -34 -50 -44 -66 -11 -16 -30 -40 -42 -54 -13 -14 -42 -54
-66 -90 -24 -37 -72 -101 -108 -143 -36 -42 -73 -77 -82 -77 -10 0 -18 -7 -18
-15 0 -8 -6 -15 -13 -15 -7 0 -23 -20 -35 -45 -12 -24 -19 -51 -16 -59 3 -8
19 -20 35 -26 17 -7 59 -47 94 -88 36 -42 65 -83 65 -92 0 -8 6 -24 13 -35 7
-11 21 -47 31 -80 9 -33 19 -67 20 -75 2 -8 6 -26 10 -40 3 -14 8 -43 11 -65
3 -22 11 -89 19 -150 8 -60 20 -130 26 -155 6 -25 9 -78 6 -118 -4 -55 -12
-85 -31 -118 -15 -25 -65 -89 -113 -142 -47 -54 -119 -134 -161 -179 -41 -46
-79 -83 -84 -83 -5 0 -30 -18 -56 -40 -26 -22 -52 -40 -59 -40 -6 0 -26 -13
-44 -28 -28 -25 -49 -31 -148 -45 -63 -9 -153 -21 -199 -26 -46 -5 -89 -8 -95
-6 -6 2 -48 6 -92 9 -77 5 -84 4 -118 -22 -36 -27 -37 -27 -32 -87 3 -33 10
-103 16 -155 6 -62 7 -112 1 -145 -6 -27 -12 -75 -14 -105 -2 -31 -10 -73 -17
-95 -7 -22 -16 -49 -20 -60 -4 -11 -13 -39 -19 -61 -6 -23 -18 -47 -26 -54 -8
-7 -15 -20 -15 -29 0 -9 -22 -47 -50 -83 -27 -37 -50 -71 -50 -75 0 -5 -26
-36 -57 -69 -32 -34 -78 -73 -102 -88 -24 -15 -84 -38 -135 -51 -50 -13 -120
-28 -156 -34 -36 -6 -108 -11 -160 -12 -52 0 -120 2 -150 6 -30 4 -66 12 -80
18 -14 5 -44 9 -68 8 -24 -2 -48 2 -55 7 -7 5 -44 21 -82 36 -39 14 -76 26
-83 26 -8 0 -28 11 -45 24 -18 14 -44 27 -59 31 -15 4 -29 13 -32 21 -3 8 -11
14 -17 14 -6 0 -29 18 -50 40 -22 22 -43 40 -49 40 -5 0 -20 21 -32 48 -12 26
-25 49 -28 52 -3 3 -16 19 -28 37 -12 17 -22 36 -22 42 0 7 -8 21 -18 31 -10
11 -32 22 -49 26 -25 5 -34 1 -52 -21 -11 -15 -21 -34 -21 -42 0 -8 -8 -28
-17 -44 -10 -16 -23 -29 -31 -29 -7 0 -11 -4 -8 -8 3 -5 -15 -51 -40 -103 -25
-52 -49 -101 -55 -109 -5 -8 -17 -28 -27 -44 -9 -16 -38 -53 -63 -81 -26 -29
-48 -56 -50 -61 -2 -5 -26 -27 -54 -49 -27 -23 -63 -46 -78 -53 -15 -7 -63
-12 -105 -12 -49 0 -87 6 -106 15 -16 8 -34 14 -40 13 -6 -1 -36 5 -66 14 -30
10 -82 24 -115 33 -33 9 -71 21 -85 28 -14 6 -47 27 -75 46 -27 19 -56 43 -63
53 -7 10 -19 18 -25 18 -7 0 -18 12 -24 28 -7 15 -31 63 -55 108 -24 44 -48
94 -55 110 -7 16 -19 46 -28 66 -11 27 -23 39 -43 43 -15 4 -35 10 -44 16 -10
5 -19 6 -19 2 -1 -5 -3 -18 -4 -29 -1 -12 -12 -36 -24 -53 -12 -17 -27 -31
-33 -31 -5 0 -21 -9 -35 -20 -14 -11 -33 -20 -42 -20 -9 0 -38 -12 -66 -25
-27 -14 -59 -25 -71 -25 -11 0 -34 -7 -51 -15 -22 -11 -66 -15 -159 -16 -98
-1 -140 3 -174 15 -24 9 -62 16 -85 16 -22 -1 -69 6 -105 15 -36 8 -80 18 -99
20 -19 3 -66 21 -104 40 -38 19 -78 35 -87 35 -10 0 -23 7 -30 16 -8 8 -29 22
-49 30 -19 8 -63 40 -98 72 -35 31 -94 86 -133 121 -38 35 -70 69 -70 75 0 6
-8 16 -18 22 -9 7 -39 56 -67 110 -27 55 -53 101 -57 104 -3 3 -9 29 -12 58
-3 29 -11 62 -16 72 -6 11 -11 37 -11 57 0 21 0 66 0 101 1 35 6 81 11 103 6
21 15 58 21 81 5 24 23 64 40 90 16 27 29 52 29 57 0 4 13 26 30 47 16 22 48
57 71 80 22 22 62 51 87 65 26 13 53 30 60 37 7 6 20 12 28 12 8 0 49 16 90
35 41 19 82 35 92 35 10 0 26 6 36 13 15 11 17 22 11 65 -5 38 -13 55 -31 66
-13 9 -30 16 -39 16 -8 0 -15 4 -15 10 0 5 -18 15 -40 21 -22 7 -45 18 -51 26
-6 7 -17 13 -24 13 -8 0 -15 4 -17 8 -1 4 -32 23 -68 40 -36 18 -90 46 -120
62 -30 17 -63 33 -74 36 -10 3 -46 25 -80 48 -33 22 -63 44 -66 48 -3 3 -37
23 -75 43 -39 21 -108 72 -154 114 -46 41 -86 84 -89 93 -2 10 -8 18 -12 18
-5 0 -19 20 -31 45 -12 25 -26 45 -30 45 -5 0 -11 17 -14 38 -3 20 -13 51 -21
67 -8 17 -19 80 -26 140 -6 61 -11 121 -11 135 1 14 6 59 12 100 6 41 20 113
32 160 12 47 32 110 46 140 13 30 33 73 44 95 12 22 37 69 56 105 19 36 49 90
68 120 19 30 38 64 44 75 5 11 23 38 41 60 17 22 34 52 37 66 3 15 29 58 58
96 29 37 66 81 82 96 15 16 51 46 78 66 28 21 68 44 90 52 22 7 52 22 67 33
17 12 54 21 104 26 57 6 88 4 117 -6 22 -8 48 -14 58 -14 11 0 19 -3 19 -8 0
-4 12 -12 28 -19 15 -6 47 -21 72 -32 25 -12 56 -28 70 -36 14 -8 37 -15 51
-15 14 0 35 10 46 23 11 12 26 47 32 77 5 30 16 82 24 115 7 33 18 71 24 85 6
14 19 48 28 75 9 28 28 84 42 125 13 41 35 98 48 125 13 28 29 69 36 92 7 24
20 50 31 59 10 10 18 26 18 37 0 10 8 33 18 50 9 18 20 34 24 37 3 3 10 18 13
33 4 15 11 27 16 27 5 0 9 5 9 11 0 6 10 25 23 42 12 18 30 49 39 69 9 21 21
38 26 38 5 0 18 22 30 48 12 26 36 64 54 84 18 20 38 43 43 50 6 8 24 33 40
56 17 23 36 41 43 42 6 0 12 4 12 8 0 5 10 20 23 34 12 14 51 41 87 61 36 20
94 46 130 57 39 13 105 23 165 27 55 3 101 6 103 8 1 1 17 0 35 -2z m1110
-5504 c10 -6 21 -18 24 -27 4 -9 15 -26 25 -37 10 -11 41 -42 68 -70 27 -27
66 -65 86 -82 20 -18 43 -33 50 -33 7 0 26 -11 43 -25 16 -14 69 -39 118 -55
48 -16 95 -30 104 -30 9 0 23 -8 32 -17 8 -10 16 -35 16 -55 1 -21 2 -46 2
-55 0 -10 -1 -45 -1 -77 0 -33 2 -94 5 -135 3 -42 10 -90 16 -107 5 -17 8 -50
7 -75 -1 -24 4 -80 11 -124 7 -44 17 -101 22 -126 6 -25 12 -86 15 -135 2 -49
6 -154 8 -234 3 -80 10 -184 16 -232 6 -48 10 -105 10 -125 0 -21 2 -85 5
-142 2 -57 7 -106 10 -109 3 -3 5 -35 4 -71 0 -36 -4 -74 -8 -85 -6 -17 -10
-15 -34 14 -26 30 -30 32 -75 25 -26 -4 -55 -11 -64 -16 -9 -5 -25 -26 -35
-47 -10 -20 -18 -53 -18 -73 0 -20 6 -48 14 -61 7 -14 25 -32 40 -41 18 -11
40 -14 68 -10 26 3 50 15 64 29 12 13 26 24 31 24 4 0 8 -99 8 -220 0 -120 4
-241 9 -267 6 -26 12 -149 15 -273 4 -124 9 -277 12 -340 2 -63 7 -124 9 -135
2 -11 7 -105 10 -210 4 -104 8 -208 10 -230 1 -22 8 -71 13 -110 6 -38 16
-126 21 -193 6 -68 15 -129 20 -136 5 -6 15 -43 21 -81 6 -39 14 -90 19 -115
4 -25 15 -74 25 -110 9 -36 21 -81 27 -101 5 -20 9 -55 9 -77 0 -22 4 -43 9
-46 4 -3 6 -16 4 -30 -3 -13 0 -27 6 -30 6 -4 11 -29 11 -57 0 -27 4 -49 8
-49 5 0 14 -42 20 -94 7 -52 12 -110 12 -128 0 -18 7 -46 15 -62 8 -15 15 -39
15 -53 0 -13 6 -36 13 -51 8 -15 19 -54 26 -87 7 -33 21 -88 32 -123 10 -34
19 -73 19 -85 0 -13 9 -40 19 -60 10 -21 17 -45 14 -55 -2 -10 3 -24 11 -31 9
-8 16 -23 16 -35 0 -13 11 -33 25 -46 15 -14 25 -35 25 -52 0 -15 8 -36 18
-46 9 -9 23 -37 31 -62 7 -25 27 -72 44 -105 17 -33 41 -68 54 -78 13 -10 21
-22 18 -27 -3 -5 8 -19 24 -32 15 -13 40 -44 55 -69 14 -25 37 -52 51 -59 14
-7 25 -17 25 -21 0 -4 33 -41 73 -82 40 -42 82 -87 92 -101 11 -14 25 -26 30
-26 6 0 30 -17 53 -38 23 -20 59 -51 79 -68 21 -17 49 -37 63 -44 14 -7 41
-27 62 -44 20 -17 54 -40 75 -51 21 -11 52 -30 69 -42 17 -13 39 -23 48 -23
10 0 33 -12 52 -26 18 -14 31 -30 28 -35 -3 -6 -22 -9 -42 -9 -20 1 -55 -3
-77 -9 -22 -6 -63 -11 -92 -11 -28 0 -63 -4 -77 -10 -14 -5 -83 -12 -153 -15
-70 -4 -150 -11 -178 -17 -27 -6 -115 -12 -194 -13 -141 -3 -145 -3 -162 -27
-10 -14 -23 -36 -28 -51 -8 -21 -5 -35 14 -72 14 -25 25 -50 25 -56 0 -5 11
-27 25 -49 14 -22 25 -45 25 -52 0 -7 16 -35 35 -62 19 -27 32 -52 30 -56 -3
-4 1 -10 9 -13 8 -3 27 -28 43 -56 15 -28 34 -51 41 -51 6 0 12 -4 12 -8 0 -5
18 -26 40 -48 23 -21 45 -47 51 -57 10 -17 7 -18 -38 -12 -26 4 -63 11 -81 17
-18 5 -39 11 -45 12 -7 1 -32 9 -57 18 -25 9 -79 26 -120 38 -41 12 -88 28
-105 35 -16 8 -45 17 -62 20 -18 4 -33 11 -33 16 0 5 -6 9 -12 9 -7 0 -24 9
-38 20 -14 11 -31 20 -38 20 -8 0 -30 7 -50 16 -21 8 -55 23 -77 33 -22 11
-62 29 -90 41 -27 12 -68 35 -90 50 -22 14 -47 30 -55 33 -8 4 -27 15 -42 25
-14 9 -55 33 -90 54 -34 20 -76 50 -93 67 -16 17 -39 31 -49 31 -11 0 -27 7
-37 16 -13 12 -28 15 -53 10 -30 -6 -37 -12 -45 -44 -5 -20 -13 -102 -17 -182
-3 -80 -10 -149 -14 -155 -4 -5 -13 -35 -20 -65 -8 -30 -14 -64 -16 -75 -1
-11 -7 -49 -13 -84 -7 -36 -14 -68 -17 -73 -3 -4 -10 -34 -16 -65 -5 -32 -11
-76 -13 -98 -1 -22 -10 -65 -19 -95 -9 -30 -21 -62 -27 -70 -9 -13 -12 -12
-22 5 -7 10 -24 32 -40 48 -15 16 -33 39 -40 52 -6 12 -32 39 -57 59 -25 20
-56 46 -68 58 -13 13 -42 46 -63 73 -22 28 -64 82 -94 120 -29 39 -71 92 -92
119 -21 27 -65 78 -98 115 -33 36 -72 77 -87 89 -16 13 -26 28 -23 32 3 5 -3
14 -15 20 -16 8 -31 5 -77 -19 -32 -16 -83 -52 -113 -80 -30 -28 -82 -70 -115
-93 -33 -22 -88 -67 -121 -98 -34 -32 -80 -68 -102 -81 -22 -13 -74 -48 -117
-76 -42 -29 -80 -53 -83 -53 -4 0 -38 -16 -75 -34 -38 -19 -74 -39 -80 -44 -7
-5 -25 -12 -41 -16 -17 -4 -41 -15 -55 -25 -14 -10 -42 -21 -61 -24 -19 -3
-61 -17 -93 -32 -32 -14 -81 -29 -110 -32 -29 -3 -59 -12 -68 -19 -9 -8 -38
-20 -65 -28 -27 -8 -71 -17 -97 -21 -26 -3 -76 -15 -110 -27 -34 -11 -69 -26
-77 -33 -8 -7 -37 -20 -64 -29 -26 -9 -58 -22 -70 -28 -11 -7 -28 -13 -36 -14
-8 -2 -55 -14 -105 -28 -49 -14 -104 -33 -122 -43 -18 -9 -36 -14 -40 -9 -4 4
3 17 17 27 14 11 45 38 70 59 25 21 72 66 105 100 33 34 73 74 90 89 16 14 70
63 120 108 49 45 123 113 163 150 40 37 97 98 127 134 29 37 68 82 84 100 17
18 31 38 31 44 0 5 13 23 30 38 16 16 73 82 127 148 54 67 106 135 115 152 10
18 24 37 31 42 7 6 29 35 49 66 21 31 56 95 78 143 23 47 45 86 48 86 4 0 13
15 21 33 7 17 20 48 28 67 8 19 41 89 73 155 32 66 64 140 70 165 6 25 17 65
25 90 7 25 20 68 29 95 8 28 17 62 20 76 2 14 11 53 20 85 8 32 18 77 22 99 4
22 8 54 10 70 1 17 7 62 13 100 6 39 17 115 25 170 8 55 14 111 14 125 0 14 2
77 6 140 3 63 11 196 17 295 5 99 12 263 14 365 3 102 7 235 10 295 3 61 5
169 6 240 1 72 2 146 1 165 0 19 2 154 5 300 3 146 6 324 7 395 0 72 -1 202
-3 290 -2 88 -3 236 -3 329 1 94 -2 174 -5 179 -3 5 -7 77 -8 160 -2 83 -4
196 -5 252 -1 55 -1 190 -1 300 0 110 -2 216 -4 235 -3 19 -7 71 -9 115 -3 44
-8 121 -12 170 -4 50 -11 101 -17 115 -5 14 -11 57 -12 95 -1 39 -5 167 -9
285 -4 118 -9 260 -12 314 -2 55 -9 145 -15 200 -6 56 -12 116 -14 133 -2 18
0 35 5 38 5 3 28 -3 52 -14 24 -11 63 -25 88 -31 25 -7 56 -17 70 -22 14 -6
38 -12 55 -14 16 -2 31 -8 33 -14 2 -5 17 -10 33 -10 16 0 46 -7 67 -16 22 -9
80 -18 142 -21 97 -4 109 -3 160 20 42 19 84 55 176 149 67 68 135 147 153
176 17 29 31 56 31 60 0 4 17 41 37 82 21 41 42 78 47 82 6 4 18 2 29 -3z"/>
<g>
<path d="M5138 8287 c-18 1 -49 -8 -68 -19 -19 -11 -43 -29 -52 -41 -10 -12
-18 -39 -18 -60 0 -21 8 -50 17 -65 9 -15 23 -33 32 -39 8 -7 36 -13 61 -13
32 0 58 7 81 23 19 12 39 39 47 59 13 33 13 41 -3 74 -9 20 -25 39 -36 41 -10
3 -21 13 -24 22 -3 10 -17 17 -37 18z"/>
</g>
<g>
<path d="M5720 8075 c-16 4 -38 -1 -60 -13 -32 -18 -35 -24 -34 -62 0 -24 7
-46 15 -51 8 -5 30 -9 49 -9 19 0 59 -9 88 -19 30 -11 60 -25 68 -32 8 -6 14
-20 14 -30 0 -10 4 -20 9 -23 5 -3 11 -20 13 -36 4 -25 -1 -35 -23 -51 -21
-15 -52 -21 -125 -26 -76 -5 -105 -11 -128 -27 -24 -16 -31 -29 -31 -53 0 -23
7 -38 23 -49 18 -12 37 -14 90 -9 37 3 99 13 137 21 39 8 80 17 93 20 13 3 41
22 62 44 29 30 40 51 45 85 4 25 4 65 1 90 -4 25 -11 45 -17 45 -5 0 -9 8 -9
18 0 9 -12 31 -26 47 -14 17 -34 39 -43 51 -9 11 -32 28 -51 37 -19 8 -57 18
-85 21 -27 3 -61 8 -75 11z"/>
</g>
<g>
<path d="M6055 7381 c-5 2 -53 1 -105 -3 -52 -4 -115 -10 -140 -13 -25 -3 -54
-10 -65 -15 -11 -5 -45 -11 -75 -14 -30 -3 -84 -7 -120 -10 -36 -2 -77 -6 -92
-9 -15 -3 -31 -8 -36 -11 -5 -3 -34 -8 -63 -11 -30 -4 -61 -9 -69 -12 -8 -3
-27 -5 -42 -4 -15 1 -41 -6 -58 -16 -17 -10 -39 -32 -50 -50 -15 -25 -16 -35
-6 -48 7 -9 34 -21 60 -26 30 -5 65 -5 94 2 25 5 52 7 60 4 8 -3 69 4 136 15
66 11 149 25 182 30 34 6 79 10 100 10 22 0 55 5 74 11 19 5 77 11 129 13 84
3 96 5 113 26 10 12 18 38 18 60 0 23 -7 43 -17 52 -10 8 -22 17 -28 19z"/>
</g>
</g>
<g>
<path d="M11668 11500 c-38 0 -50 -5 -67 -26 -11 -14 -23 -35 -26 -47 -4 -12
-12 -35 -20 -52 -7 -16 -24 -55 -38 -85 -14 -30 -32 -77 -41 -105 -8 -27 -20
-66 -27 -85 -7 -19 -15 -44 -19 -55 -5 -11 -17 -43 -29 -72 -12 -28 -21 -58
-21 -65 0 -7 -16 -46 -35 -85 -19 -40 -35 -74 -35 -77 0 -3 -5 -17 -12 -33 -6
-15 -12 -32 -14 -38 -2 -5 -17 -46 -35 -90 -17 -44 -41 -105 -52 -135 -11 -30
-26 -68 -32 -85 -7 -16 -18 -48 -25 -70 -7 -22 -16 -44 -20 -50 -3 -5 -20 -44
-37 -85 -17 -41 -43 -109 -58 -150 -16 -41 -31 -77 -35 -80 -4 -3 -11 -21 -15
-40 -4 -19 -11 -39 -15 -45 -4 -5 -18 -41 -29 -80 -12 -38 -35 -106 -52 -150
-17 -44 -35 -87 -40 -95 -5 -8 -17 -31 -25 -50 -9 -19 -27 -49 -40 -67 -13
-17 -24 -42 -24 -55 0 -13 3 -33 6 -45 4 -13 12 -23 18 -23 7 0 17 -5 22 -10
6 -6 55 -13 110 -16 54 -3 119 -5 144 -4 24 0 108 -4 185 -10 77 -5 178 -13
225 -16 47 -4 90 -10 96 -15 6 -5 14 -6 17 -2 4 3 30 5 59 4 29 -1 55 -6 58
-12 4 -5 5 -57 4 -114 -1 -57 -5 -133 -9 -167 -3 -35 -8 -74 -9 -88 -2 -14 -6
-32 -9 -40 -3 -8 -8 -33 -11 -55 -3 -22 -12 -74 -19 -115 -8 -41 -16 -75 -17
-75 -1 0 -7 -27 -14 -60 -9 -49 -15 -60 -31 -61 -11 -1 -22 -2 -25 -4 -3 -1
-48 -4 -100 -7 -52 -2 -178 -6 -280 -8 -102 -2 -309 -7 -460 -10 -151 -3 -297
-10 -323 -16 -33 -8 -47 -16 -43 -24 2 -7 10 -50 17 -94 7 -45 15 -81 19 -81
3 0 5 -207 4 -460 -1 -253 -5 -464 -8 -469 -4 -5 -8 -54 -10 -108 -3 -54 -8
-172 -12 -263 -3 -91 -8 -168 -11 -172 -2 -4 -6 -78 -9 -165 -3 -87 -10 -176
-16 -198 -5 -22 -11 -53 -13 -70 -2 -16 -8 -86 -14 -155 -5 -69 -15 -140 -21
-158 -7 -18 -9 -39 -6 -48 3 -8 -1 -26 -10 -39 -9 -13 -14 -34 -13 -47 2 -13
-2 -33 -9 -45 -7 -12 -12 -32 -12 -45 0 -14 9 -34 20 -46 11 -12 39 -26 61
-32 23 -6 55 -10 73 -9 17 2 76 0 131 -5 55 -4 147 -14 205 -22 58 -9 123 -17
145 -19 22 -3 157 -7 300 -10 143 -3 325 -5 405 -4 80 1 168 2 197 3 28 1 55
4 59 8 3 4 15 3 26 -3 10 -5 23 -7 28 -4 5 3 46 9 92 13 46 4 115 6 153 6 39
-1 135 -7 215 -14 80 -7 312 -14 515 -16 204 -1 429 -7 500 -13 72 -6 182 -10
245 -8 63 2 133 0 155 -4 22 -4 82 -10 134 -14 51 -3 127 -13 168 -21 41 -8
89 -14 107 -14 19 0 40 8 48 18 10 11 18 49 22 112 4 52 9 111 12 130 2 19 6
85 8 145 2 68 10 127 20 154 9 24 16 57 16 74 0 17 4 44 9 61 5 17 16 54 24
81 8 28 18 68 22 90 3 22 7 60 9 85 2 25 19 95 37 155 18 62 33 134 33 165 1
30 7 65 14 77 7 13 17 43 22 68 6 25 15 66 20 92 6 26 17 57 25 70 9 13 13 23
9 23 -3 0 1 11 10 25 9 13 16 38 16 55 0 17 -8 42 -17 56 -9 14 -26 30 -38 34
-14 5 -65 2 -131 -9 -82 -13 -156 -17 -297 -15 -103 1 -238 8 -300 15 -61 6
-137 13 -167 14 -30 1 -69 3 -87 4 -22 1 -36 8 -44 22 -6 12 -13 40 -14 63 -2
22 -6 100 -10 172 l-5 131 52 40 c29 23 67 47 83 56 17 8 39 24 49 36 11 12
24 21 31 21 6 0 20 9 32 19 11 10 34 26 51 35 18 9 32 21 32 26 0 6 8 10 17
10 9 0 42 22 74 50 32 27 65 50 74 50 10 0 32 12 50 28 17 15 47 36 66 47 18
11 49 29 69 40 19 11 37 23 40 26 3 4 36 23 73 43 38 20 76 36 85 36 9 0 32
18 50 40 17 21 32 45 32 53 0 8 -5 28 -11 46 -8 22 -16 30 -26 27 -8 -3 -24
-1 -36 6 -12 6 -28 19 -35 30 -7 10 -19 18 -26 18 -7 0 -49 24 -92 53 -44 28
-97 65 -119 82 -22 16 -60 47 -85 68 -25 21 -65 58 -90 83 -25 24 -49 44 -53
44 -5 0 -26 14 -48 32 -21 17 -39 37 -39 43 0 6 17 20 37 31 20 10 48 26 63
34 15 8 47 32 73 53 l46 39 163 -12 c90 -6 195 -15 233 -21 39 -5 117 -18 175
-28 58 -11 116 -22 130 -25 14 -2 55 -7 92 -11 36 -3 93 -13 125 -21 32 -7 95
-16 141 -19 l82 -5 20 32 c10 17 17 35 14 39 -2 4 -6 20 -9 36 -2 15 -8 44
-14 63 -5 19 -17 55 -26 80 -10 25 -21 68 -25 95 -5 28 -16 77 -25 110 -9 33
-19 96 -22 140 -3 44 -9 84 -14 89 -5 6 -9 19 -9 29 0 10 10 27 23 38 12 10
25 18 29 19 4 0 27 14 51 30 25 17 50 30 56 30 6 0 19 4 29 9 9 5 40 19 69 30
28 12 63 21 76 21 14 0 27 7 31 15 3 8 16 15 30 15 14 0 28 -5 32 -11 4 -7 16
-1 34 16 20 19 28 37 29 63 0 21 -4 60 -9 87 -5 28 -12 75 -16 105 -3 30 -8
69 -10 85 -2 17 -10 102 -19 190 -10 106 -13 215 -10 322 3 89 9 181 14 205 5
24 15 92 22 151 9 77 10 113 2 125 -5 9 -32 25 -59 34 -27 10 -57 18 -66 18
-9 0 -21 8 -27 17 -6 12 -13 14 -23 7 -7 -6 -53 -9 -108 -8 -52 2 -95 4 -95 5
0 1 -11 3 -25 5 -14 2 -63 6 -110 10 -47 3 -193 7 -325 9 -132 1 -301 5 -375
9 -74 3 -178 11 -230 16 -52 5 -153 13 -225 16 -71 4 -150 8 -175 10 -25 2
-94 6 -155 9 -60 3 -182 9 -270 15 -88 5 -205 12 -260 15 -55 4 -149 10 -210
15 -60 5 -132 15 -160 21 -27 6 -77 17 -110 25 -33 7 -73 15 -90 18 -16 2 -61
10 -100 16 -38 7 -83 14 -100 16 -16 1 -60 5 -97 8 -38 3 -74 8 -80 13 -7 4
-35 8 -63 9 -27 1 -79 9 -115 18 -36 9 -86 16 -112 16z m86 -135 c12 -3 91
-12 176 -21 85 -9 178 -17 205 -19 28 -2 70 -9 95 -15 25 -6 65 -16 90 -21 25
-5 65 -11 90 -15 25 -3 68 -12 97 -20 28 -8 73 -14 99 -14 26 0 84 -4 128 -10
45 -5 133 -14 196 -20 63 -5 176 -11 252 -13 80 -2 149 -9 167 -17 22 -9 35
-9 44 -2 8 7 40 10 78 7 35 -2 129 -6 209 -9 80 -3 183 -11 230 -16 47 -6 103
-15 125 -20 22 -6 59 -12 82 -14 24 -3 45 -1 48 4 3 4 22 8 42 7 21 0 50 -9
66 -19 23 -17 27 -17 27 -4 0 14 16 16 133 11 72 -3 223 -7 335 -10 111 -2
237 -9 280 -15 42 -6 111 -18 152 -27 41 -8 80 -20 86 -27 8 -8 7 -45 -2 -131
-7 -66 -15 -183 -18 -260 -4 -77 -9 -148 -12 -158 -3 -10 -1 -23 4 -30 5 -7
12 -64 15 -127 4 -63 11 -178 17 -254 6 -77 12 -144 13 -150 1 -5 -48 -35
-108 -66 -61 -30 -134 -65 -163 -78 -28 -13 -59 -22 -69 -20 -11 2 -24 27 -39
77 -13 41 -24 93 -25 115 -2 23 -11 61 -22 86 -11 25 -23 70 -27 100 -5 30
-14 73 -20 95 -6 22 -15 63 -20 90 -5 28 -9 81 -9 119 -1 57 -5 74 -23 93 -12
13 -30 23 -40 23 -10 0 -35 -7 -56 -16 -20 -9 -44 -18 -52 -20 -8 -2 -40 -8
-70 -13 -30 -6 -107 -17 -170 -25 -63 -8 -122 -17 -130 -20 -8 -3 -44 -7 -79
-11 -35 -3 -67 -7 -71 -10 -4 -2 -88 -5 -186 -6 -99 -1 -197 -5 -219 -9 -22
-5 -92 -11 -155 -14 -63 -4 -172 -8 -242 -11 -69 -3 -152 -7 -185 -10 -32 -3
-143 -12 -248 -21 -104 -8 -242 -21 -305 -29 -63 -8 -162 -17 -220 -20 -58 -4
-118 -11 -133 -16 -16 -5 -80 -11 -142 -15 -71 -4 -140 -2 -184 6 -38 6 -79 9
-91 5 -11 -3 -23 -18 -26 -33 -4 -15 -10 -31 -14 -37 -4 -5 -10 -44 -13 -85
-4 -41 -9 -88 -12 -105 -2 -16 -9 -82 -14 -145 -5 -63 -10 -122 -10 -130 -1
-8 -4 -105 -6 -215 -3 -110 -7 -206 -10 -212 -3 -8 -23 -13 -50 -13 -26 0 -54
4 -63 9 -9 5 -66 11 -127 14 -60 4 -144 11 -185 16 -41 5 -124 13 -185 16 -60
3 -120 9 -133 12 -13 3 -21 11 -19 17 2 6 12 38 22 71 10 33 29 76 42 95 13
19 23 47 23 62 0 15 5 30 10 33 6 3 10 15 10 25 0 10 15 57 34 103 18 46 37
99 41 117 4 19 21 63 37 99 16 36 33 75 38 86 4 11 13 36 20 55 7 19 16 44 20
55 4 11 20 52 35 90 15 39 33 84 40 100 7 17 24 53 38 81 14 29 32 77 41 107
9 30 29 82 46 115 16 34 30 66 30 71 0 6 18 59 40 118 22 60 44 117 49 128 5
11 19 45 32 75 13 30 27 60 31 66 4 6 19 31 32 55 13 25 29 56 37 69 8 14 23
35 33 47 12 15 27 21 40 18z m2889 -964 c28 -6 32 -12 44 -66 7 -33 16 -67 19
-75 3 -8 5 -15 5 -15 0 0 6 -27 14 -61 8 -34 19 -89 25 -123 5 -33 15 -89 20
-123 6 -35 20 -105 32 -157 l21 -94 -27 -24 c-15 -13 -31 -21 -35 -18 -5 2
-16 -4 -26 -15 -10 -11 -25 -20 -33 -20 -8 0 -35 -15 -61 -34 -25 -18 -80 -50
-121 -72 -41 -21 -98 -55 -125 -75 -28 -20 -60 -39 -72 -43 -12 -4 -38 -20
-58 -36 -21 -17 -42 -30 -47 -30 -4 0 -27 -12 -51 -27 -23 -15 -50 -32 -59
-38 -9 -5 -38 -22 -64 -37 -25 -16 -53 -28 -60 -28 -7 0 -18 -10 -25 -21 -9
-18 -17 -20 -47 -15 -21 3 -58 10 -83 15 -25 5 -145 19 -267 31 l-221 22 -88
82 c-48 44 -121 116 -161 159 -67 70 -78 77 -113 77 -21 0 -45 -7 -53 -16 -9
-8 -19 -27 -22 -41 -4 -16 5 -59 25 -120 18 -53 30 -97 28 -99 -2 -2 -28 0
-58 5 -30 6 -106 13 -169 16 -63 3 -182 8 -265 11 -82 4 -157 6 -165 6 -8 1
-20 4 -25 9 -6 4 -84 10 -175 14 -91 4 -176 9 -190 11 -14 1 -31 3 -37 3 -10
1 -13 32 -13 120 0 76 -4 122 -11 127 -6 4 -9 22 -6 43 3 20 0 72 -5 116 -9
67 -8 92 6 155 10 41 20 89 22 105 3 17 15 63 27 102 l22 73 70 0 c39 0 129 7
200 15 72 8 148 15 169 15 25 0 43 -6 51 -17 11 -15 13 -15 19 4 5 16 20 22
74 31 37 6 101 16 142 21 41 6 113 13 160 16 47 3 148 13 225 21 77 8 174 14
215 13 41 -1 156 1 255 5 99 3 225 13 281 21 65 10 109 13 125 7 13 -5 30 -7
37 -5 6 3 12 0 12 -6 0 -6 9 -11 19 -11 11 0 21 4 23 9 2 5 42 11 90 15 48 4
94 9 101 12 7 2 78 11 158 19 79 7 167 17 194 20 28 4 56 11 64 15 7 4 27 4
44 1z m200 -851 c4 0 7 -3 8 -7 0 -5 2 -28 5 -53 2 -25 9 -70 14 -100 5 -30
12 -68 14 -85 3 -16 12 -66 21 -110 8 -44 18 -95 22 -114 l6 -34 -84 6 c-46 4
-158 18 -249 32 -91 15 -192 31 -226 36 -33 6 -78 12 -100 14 -21 1 -59 3 -83
4 -38 1 -42 3 -31 16 7 9 29 23 49 32 20 9 50 27 66 39 17 12 68 42 115 66 47
24 108 60 135 80 28 20 64 40 80 44 17 4 32 10 35 13 3 4 28 21 56 39 28 18
56 32 62 32 6 0 17 6 24 13 7 7 22 18 33 25 11 6 23 12 28 12z m-2858 -356
c60 -3 153 -9 205 -14 52 -5 158 -12 235 -16 77 -4 149 -6 160 -5 11 0 108 -8
215 -20 107 -12 199 -25 203 -29 5 -4 19 -61 33 -126 14 -65 30 -146 35 -179
5 -33 15 -74 21 -92 9 -25 9 -35 -1 -47 -7 -9 -17 -14 -20 -11 -4 2 -32 -14
-62 -36 -30 -22 -66 -51 -80 -64 -14 -14 -31 -25 -38 -25 -7 0 -27 -12 -45
-26 -17 -14 -69 -52 -116 -85 -47 -33 -92 -65 -100 -72 -8 -7 -31 -23 -50 -36
-19 -13 -40 -30 -45 -37 -6 -6 -42 -33 -80 -59 -38 -26 -74 -53 -81 -59 -6 -6
-47 -33 -89 -61 -43 -27 -85 -55 -94 -60 -9 -6 -54 -35 -100 -65 -47 -30 -108
-66 -135 -80 -48 -24 -51 -27 -50 -63 1 -20 9 -46 18 -56 9 -10 41 -28 70 -39
28 -11 90 -46 137 -79 46 -32 109 -75 140 -96 31 -20 67 -47 81 -60 14 -13 42
-34 64 -46 21 -13 53 -35 72 -50 18 -14 52 -43 75 -63 23 -20 39 -39 36 -42
-3 -4 -62 -10 -130 -16 -68 -5 -180 -7 -249 -6 -69 2 -186 9 -260 16 -74 7
-153 14 -175 15 -22 2 -87 7 -146 11 l-105 7 -30 -28 c-16 -15 -27 -32 -25
-39 2 -6 3 -36 2 -65 -1 -30 -7 -87 -12 -125 -6 -39 -11 -83 -10 -99 1 -15 -5
-41 -14 -57 -8 -16 -15 -55 -15 -90 0 -33 -4 -60 -9 -60 -5 0 -12 -13 -16 -29
-3 -16 -8 -45 -11 -63 -3 -18 -9 -73 -14 -123 -5 -49 -12 -105 -16 -122 -3
-18 -3 -43 0 -55 3 -13 13 -32 21 -42 10 -14 35 -22 77 -28 35 -5 93 -12 129
-17 37 -5 73 -12 80 -17 8 -4 67 -9 132 -10 65 -2 137 -5 160 -9 23 -3 76 -13
117 -22 41 -8 100 -24 130 -35 30 -11 75 -26 100 -34 25 -8 59 -12 78 -9 31 6
32 7 32 55 0 28 4 50 9 50 4 0 11 24 15 53 3 28 11 81 16 117 5 36 12 78 15
94 3 16 15 46 26 67 15 30 17 44 9 59 -7 12 -7 21 0 25 5 3 10 12 10 19 0 7
-10 22 -21 35 -14 15 -29 21 -43 17 -11 -2 -57 -8 -101 -11 -44 -3 -92 -8
-107 -11 -14 -3 -29 -1 -32 4 -3 6 18 31 46 57 29 26 64 55 78 64 14 9 43 33
66 53 22 21 61 53 85 71 25 17 82 63 127 101 45 38 82 72 82 76 0 4 11 12 25
18 14 7 32 12 39 12 7 0 57 -29 111 -65 54 -36 102 -70 107 -77 4 -7 8 -10 8
-6 0 4 15 -3 33 -15 17 -12 48 -34 67 -49 19 -14 60 -39 90 -55 30 -15 64 -36
75 -46 11 -9 37 -31 58 -48 20 -17 37 -36 37 -43 0 -6 10 -17 22 -25 12 -7 35
-17 50 -22 25 -7 30 -5 41 19 6 15 20 33 29 40 10 7 18 20 18 28 0 9 -5 25
-12 37 -7 12 -13 66 -14 122 -1 55 -4 116 -6 135 -3 19 -3 40 -1 47 3 8 27 10
71 9 37 -2 76 0 88 4 11 5 28 3 39 -2 10 -6 75 -15 144 -21 69 -5 220 -10 335
-11 l208 -1 -6 -69 c-4 -39 -13 -77 -21 -86 -8 -9 -15 -23 -15 -31 0 -8 -16
-77 -36 -154 -20 -77 -45 -183 -55 -235 -11 -52 -22 -102 -26 -110 -3 -8 -7
-26 -9 -40 -2 -14 -8 -47 -13 -75 -5 -27 -19 -88 -31 -134 -12 -46 -25 -121
-30 -165 -6 -45 -14 -104 -19 -132 -5 -27 -12 -88 -16 -136 l-7 -88 -59 0
c-32 0 -68 4 -81 9 -13 5 -71 12 -129 17 -57 4 -117 7 -134 6 -16 0 -95 -1
-175 -1 -80 0 -172 5 -205 12 -35 7 -108 11 -175 9 -63 -2 -225 -4 -360 -4
-135 -1 -288 2 -340 6 -52 4 -97 9 -100 11 -4 2 -69 5 -146 5 -76 1 -174 -3
-216 -9 -42 -6 -173 -10 -290 -10 -117 0 -242 -1 -278 -2 -36 -1 -76 -2 -90
-2 -14 1 -95 4 -180 7 -85 4 -189 9 -230 12 -41 2 -88 9 -105 14 -16 5 -46 12
-65 15 -19 3 -60 8 -90 10 -30 3 -95 10 -144 16 -49 5 -93 12 -98 15 -4 3 -8
41 -8 84 0 44 5 101 11 127 6 27 16 59 20 71 5 13 11 65 14 115 2 51 9 115 16
142 6 28 11 84 10 125 -1 41 3 152 8 245 6 94 13 233 16 310 2 77 9 262 15
410 6 149 13 358 15 465 3 107 5 225 4 262 0 37 5 76 10 87 10 18 22 20 148
21 76 0 149 2 163 4 14 2 42 8 62 14 20 5 39 8 42 5 3 -3 157 -5 343 -5 186 0
346 -3 357 -7 16 -6 3 -23 -85 -108 -57 -56 -125 -117 -150 -136 -25 -20 -53
-47 -62 -60 -9 -14 -30 -34 -47 -43 -16 -10 -32 -25 -35 -34 -3 -8 -26 -28
-52 -44 -27 -17 -51 -30 -55 -30 -3 -1 -29 -25 -57 -54 -28 -29 -51 -58 -51
-63 0 -6 4 -7 10 -4 5 3 26 2 45 -4 20 -5 50 -21 68 -35 18 -15 84 -71 147
-125 64 -54 128 -106 142 -115 16 -10 40 -16 60 -14 32 3 33 5 30 41 -3 34 -1
37 23 37 18 0 25 5 25 20 0 11 -9 29 -20 40 -11 11 -26 20 -34 20 -7 0 -34 18
-59 40 -25 22 -48 40 -52 40 -3 0 -31 21 -61 47 -30 26 -54 52 -54 59 0 7 19
34 43 60 23 26 49 53 57 60 8 7 85 83 170 168 85 85 162 162 170 171 8 9 44
38 79 63 35 26 80 58 101 72 21 14 50 34 66 44 16 10 41 27 56 37 15 11 32 19
37 19 5 0 37 18 70 40 37 25 63 50 67 65 3 13 3 33 -1 44 -4 15 -15 21 -35 21
-16 0 -35 -6 -42 -12 -7 -7 -48 -30 -91 -51 -43 -20 -126 -72 -185 -115 -59
-43 -113 -82 -121 -86 -12 -8 -13 5 -8 81 4 49 13 119 21 154 7 35 21 118 31
184 9 66 21 129 26 140 4 11 12 76 18 144 7 81 15 127 23 132 7 5 62 6 123 3z
m1234 -99 c31 -4 70 -14 88 -22 18 -8 49 -36 70 -61 21 -26 53 -60 71 -75 17
-16 32 -32 32 -36 0 -4 -25 -19 -55 -35 -30 -15 -57 -32 -60 -37 -4 -5 -14 -9
-23 -9 -9 0 -28 -11 -42 -25 -15 -14 -39 -27 -54 -28 -24 -2 -29 4 -42 38 -7
22 -14 56 -14 76 0 19 -5 40 -11 46 -7 7 -15 45 -19 85 -4 40 -5 77 -2 82 2 4
30 5 61 1z m356 -35 c39 -1 80 -6 91 -13 16 -9 20 -17 14 -32 -4 -11 -24 -26
-45 -34 l-38 -13 -46 46 -46 46 70 0z m141 -20 c8 0 12 -4 9 -10 -3 -5 -10
-10 -16 -10 -5 0 -9 5 -9 10 0 6 7 10 16 10z m-136 -240 c10 0 30 -11 46 -25
16 -14 58 -48 93 -75 35 -28 98 -80 139 -118 41 -37 91 -83 111 -102 20 -19
54 -44 76 -57 22 -12 54 -28 71 -36 17 -8 35 -20 39 -26 4 -7 0 -23 -9 -36 -8
-13 -37 -34 -63 -47 -26 -12 -92 -53 -145 -90 -54 -38 -100 -68 -104 -68 -3 0
-27 -17 -53 -38 -25 -21 -62 -47 -81 -58 -19 -10 -39 -22 -45 -27 -5 -4 -28
-21 -50 -37 -22 -17 -65 -46 -95 -66 -30 -20 -67 -45 -82 -55 -15 -10 -32 -19
-38 -19 -6 0 -10 27 -10 67 0 37 -4 80 -10 97 -5 17 -16 55 -25 85 -9 29 -16
72 -17 95 0 22 -4 46 -9 52 -5 6 -11 40 -13 76 -2 36 -11 78 -19 94 -8 16 -20
71 -27 121 -10 75 -10 96 0 108 7 8 17 15 22 15 5 0 19 11 31 25 12 13 57 42
99 65 43 22 82 40 89 40 6 0 22 9 36 20 14 11 34 20 43 20z m-483 -270 c16 0
27 -8 33 -25 5 -13 12 -47 16 -75 4 -28 11 -53 15 -56 5 -3 9 -18 9 -34 0 -17
4 -49 10 -72 5 -24 26 -146 45 -273 20 -126 39 -242 41 -256 4 -22 -1 -31 -28
-50 -18 -13 -39 -29 -46 -36 -7 -7 -19 -13 -26 -13 -7 0 -30 -15 -50 -32 -21
-18 -53 -42 -71 -53 -18 -11 -61 -43 -96 -72 -35 -29 -86 -70 -112 -93 -26
-22 -52 -40 -58 -40 -5 0 -23 7 -38 15 -16 8 -31 21 -34 30 -4 8 -13 15 -21
15 -8 0 -45 27 -83 60 -37 33 -72 60 -76 60 -4 0 -18 9 -30 21 -12 11 -36 27
-53 34 -18 7 -49 30 -70 50 -22 20 -84 66 -139 102 -55 37 -102 69 -105 71 -3
2 12 19 33 37 21 19 47 37 58 40 10 4 19 14 19 24 0 10 11 27 25 39 14 12 31
22 38 23 6 0 26 9 42 20 17 10 37 22 45 26 8 4 26 19 40 33 14 15 46 39 72 54
26 14 59 41 72 59 14 18 45 43 69 55 25 12 80 50 123 84 44 34 81 65 84 68 3
4 24 17 48 29 23 12 42 25 42 30 0 5 17 16 38 24 20 8 50 29 66 46 17 17 40
31 53 31z m173 -963 c16 -1 20 -8 20 -35 0 -18 5 -76 12 -128 6 -52 8 -97 4
-102 -4 -4 -53 -5 -109 -4 -56 2 -134 5 -174 6 -39 1 -75 4 -78 8 -3 3 12 21
35 39 23 19 64 53 92 76 28 23 65 49 82 57 18 8 46 31 64 50 18 20 40 34 52
33z m-1531 -391 c53 -2 148 -9 211 -15 63 -6 215 -11 338 -10 122 1 225 -1
229 -4 3 -3 -8 -17 -23 -31 -16 -14 -33 -26 -37 -26 -5 0 -36 -27 -70 -60 -34
-33 -65 -60 -70 -60 -5 0 -34 -23 -66 -51 -32 -28 -67 -56 -78 -62 -12 -7 -43
-30 -69 -52 -46 -39 -50 -40 -128 -42 -45 -1 -89 -2 -98 -3 -10 -1 -22 -9 -27
-18 -4 -9 -11 -32 -15 -50 -4 -23 -1 -38 9 -49 9 -8 15 -33 15 -57 0 -23 6
-50 13 -59 7 -11 27 -18 53 -19 36 -1 46 4 92 50 49 47 55 50 85 42 17 -5 79
-11 137 -13 l105 -4 3 -47 c2 -26 -1 -53 -6 -59 -5 -7 -13 -32 -17 -57 -3 -25
-11 -60 -17 -78 -9 -31 -12 -32 -46 -26 -21 4 -44 10 -53 15 -9 4 -47 15 -85
23 -38 8 -86 17 -107 21 -22 3 -92 8 -156 10 -65 2 -151 11 -191 19 -40 9 -93
23 -116 32 l-43 16 6 102 c3 55 10 109 14 118 5 9 9 34 9 55 0 22 4 43 8 49 5
5 13 27 20 49 6 22 18 76 27 120 9 44 21 91 25 105 5 14 12 49 15 78 l7 53 97
-5z m1381 -1 c58 -4 126 -7 153 -6 41 2 48 -1 56 -21 5 -13 11 -62 14 -110 4
-48 2 -90 -2 -93 -5 -2 -44 20 -87 50 -44 30 -88 59 -100 64 -11 5 -50 32 -87
59 -36 28 -63 53 -59 57 4 4 54 4 112 0z"/>
<g>
<path d="M14045 10983 c-16 2 -37 2 -45 -1 -8 -3 -17 -8 -20 -12 -3 -4 -20
-12 -38 -18 -18 -6 -38 -9 -45 -6 -8 3 -13 -8 -15 -28 -1 -18 -3 -52 -4 -75 0
-24 7 -54 16 -68 10 -15 26 -25 41 -25 14 0 29 -8 35 -20 8 -16 19 -19 49 -16
21 2 50 11 64 21 15 9 27 14 27 10 0 -5 9 2 20 15 15 18 20 37 20 85 0 57 -2
63 -37 97 -21 19 -51 38 -68 41z"/>
</g>
<g>
<path d="M11305 9769 c-11 -1 -36 -7 -55 -14 -19 -7 -45 -27 -57 -45 -16 -23
-23 -48 -23 -81 0 -41 4 -51 26 -66 14 -9 51 -19 81 -21 30 -3 72 1 93 8 33
11 39 18 44 49 3 20 0 59 -7 86 -11 41 -19 53 -47 67 -19 10 -44 17 -55 17z"/>
</g>
<g>
<path d="M12978 6025 c-47 2 -89 1 -92 -2 -3 -3 -96 -7 -208 -8 -112 -2 -264
-9 -338 -15 -74 -7 -139 -13 -145 -13 -5 0 -46 3 -90 6 -53 5 -92 3 -115 -6
-24 -8 -36 -19 -38 -35 -2 -13 2 -36 8 -52 9 -21 20 -29 48 -33 20 -3 88 -9
149 -13 71 -4 117 -3 125 3 8 6 39 7 83 3 39 -5 73 -6 76 -4 3 2 62 7 130 10
68 4 194 7 279 7 85 -1 303 -2 484 -2 200 -1 334 3 341 9 7 6 15 6 21 0 5 -5
34 -11 64 -13 30 -3 79 -11 108 -18 38 -9 55 -10 64 -1 6 6 12 30 13 53 1 24
7 45 14 47 6 2 11 12 11 22 0 9 -6 23 -14 29 -10 8 -56 12 -133 11 -65 0 -205
-3 -312 -5 -107 -3 -251 -1 -320 5 -69 7 -165 13 -213 15z"/>
</g>
</g>
<g>
<path d="M12587 3667 c-13 2 -29 -4 -37 -12 -8 -8 -42 -37 -75 -63 -33 -27
-76 -58 -95 -70 -20 -11 -46 -32 -59 -46 -14 -14 -29 -26 -34 -26 -5 0 -41
-21 -81 -47 -39 -26 -72 -51 -74 -55 -2 -4 -12 -8 -22 -8 -10 0 -20 -3 -22 -7
-1 -5 -36 -36 -76 -70 -40 -35 -78 -63 -85 -63 -6 0 -28 -16 -48 -36 -25 -24
-35 -42 -32 -55 3 -10 11 -19 18 -19 7 0 34 12 60 26 25 15 61 40 78 55 17 16
39 29 49 29 10 0 30 14 45 30 14 17 34 30 43 30 9 0 25 9 35 20 10 11 26 20
34 19 9 -1 21 -1 27 0 7 0 14 10 17 20 2 11 27 31 54 44 27 14 55 33 62 41 7
9 48 35 90 58 42 23 81 46 86 50 6 5 31 24 58 44 26 19 47 43 47 53 0 10 -9
26 -21 37 -11 10 -30 19 -42 21z"/>
</g>
<g>
<path d="M11720 3610 c-15 0 -39 -9 -53 -20 -14 -11 -30 -20 -36 -20 -6 0 -11
-4 -11 -9 0 -5 -10 -11 -23 -15 -12 -3 -32 -14 -43 -24 -11 -11 -36 -25 -56
-31 -20 -7 -42 -19 -48 -27 -7 -7 -18 -14 -25 -14 -6 0 -20 -9 -30 -20 -10
-11 -24 -20 -31 -20 -7 0 -32 -18 -55 -40 -24 -22 -50 -38 -57 -35 -7 3 -30
-7 -50 -23 -20 -15 -43 -35 -50 -44 -6 -9 -33 -24 -60 -32 -27 -10 -63 -33
-86 -56 -22 -22 -45 -40 -52 -40 -6 0 -39 -18 -72 -40 -33 -22 -64 -40 -70
-40 -6 0 -15 -6 -19 -12 -4 -7 -18 -22 -31 -32 -12 -11 -32 -20 -45 -21 -12
-1 -26 -11 -32 -23 -5 -12 -22 -24 -37 -27 -14 -4 -32 -12 -38 -20 -6 -7 -22
-16 -36 -19 -13 -4 -41 -24 -62 -46 -20 -21 -54 -50 -75 -64 -21 -15 -42 -26
-48 -26 -5 0 -24 -10 -42 -22 -18 -13 -53 -40 -78 -60 -26 -21 -51 -38 -55
-38 -5 -1 -19 -9 -31 -19 -13 -11 -23 -24 -23 -30 0 -6 -6 -8 -14 -5 -9 3 -21
-5 -31 -20 -10 -14 -21 -24 -25 -21 -5 3 -15 -3 -22 -13 -7 -10 -29 -26 -48
-35 -19 -9 -42 -17 -50 -19 -8 -2 -23 -15 -32 -31 -10 -15 -18 -32 -18 -37 0
-5 10 -7 23 -5 12 3 35 8 52 11 16 4 49 23 71 43 23 20 54 43 70 51 16 8 45
27 65 42 20 15 42 28 49 28 6 0 27 15 46 33 18 17 48 44 67 59 18 14 55 38 81
52 27 14 54 26 61 26 6 0 17 11 23 25 7 14 20 25 31 25 11 0 36 16 56 36 22
21 42 33 51 30 8 -3 23 3 34 14 11 11 25 20 31 20 6 0 22 14 36 30 13 17 32
30 41 30 10 0 43 18 75 40 31 22 60 40 63 40 3 0 26 14 52 32 26 17 66 48 90
67 29 24 51 35 67 33 14 -2 25 1 25 6 0 6 24 25 53 44 28 18 66 38 84 43 18 6
50 27 72 48 21 20 47 37 58 37 10 0 41 13 68 29 28 16 57 36 64 45 7 9 28 16
46 16 24 0 48 12 84 40 28 22 53 51 57 65 4 15 1 32 -6 40 -7 8 -25 15 -40 15z"/>
</g>
<g>
<path d="M13638 3509 c-13 -1 -44 -6 -70 -11 -26 -6 -59 -21 -73 -34 -14 -13
-33 -24 -41 -24 -8 0 -17 -7 -20 -15 -4 -8 -11 -15 -17 -15 -5 0 -26 -12 -46
-27 -20 -16 -41 -27 -47 -25 -6 1 -17 -9 -24 -23 -7 -14 -27 -34 -44 -45 -17
-11 -40 -25 -50 -32 -11 -7 -53 -35 -94 -63 -41 -27 -82 -55 -93 -61 -10 -6
-29 -22 -43 -35 -14 -14 -49 -37 -78 -51 -29 -15 -61 -36 -70 -47 -10 -11 -38
-26 -63 -32 -25 -6 -43 -14 -40 -17 3 -3 -5 -16 -17 -29 -12 -13 -27 -23 -34
-23 -6 0 -17 -7 -24 -15 -7 -8 -23 -15 -36 -15 -14 0 -25 -8 -29 -21 -4 -11
-18 -24 -31 -29 -13 -5 -24 -14 -24 -20 0 -5 -4 -10 -10 -10 -5 0 -30 -15 -54
-32 -25 -18 -61 -44 -82 -58 -20 -14 -49 -37 -65 -52 -15 -16 -31 -28 -36 -28
-5 0 -20 -11 -33 -25 -13 -14 -28 -25 -34 -24 -6 1 -16 1 -23 0 -6 0 -30 -17
-53 -36 -23 -19 -48 -35 -55 -35 -7 0 -30 -17 -51 -39 -22 -21 -53 -46 -71
-55 -18 -9 -37 -25 -42 -35 -6 -10 -23 -21 -39 -24 -16 -3 -50 -26 -77 -51
-26 -25 -54 -46 -61 -46 -6 0 -14 -7 -18 -15 -3 -8 -12 -15 -21 -15 -8 0 -29
-15 -45 -32 -16 -18 -30 -38 -30 -45 0 -6 4 -14 9 -17 4 -3 23 0 42 6 19 6 45
16 59 22 14 5 44 25 66 43 23 18 53 38 68 44 14 7 26 15 26 20 0 4 17 14 38
22 20 8 48 27 61 41 14 14 30 26 36 26 6 0 28 18 48 40 19 22 44 40 55 40 10
0 27 9 38 21 10 12 35 29 54 39 19 10 49 30 65 45 17 15 60 49 97 76 37 27 71
49 77 49 5 0 23 16 40 35 17 20 31 40 31 45 0 6 18 10 40 10 23 0 42 6 47 14
4 8 25 26 46 40 21 14 44 26 52 26 8 0 18 6 22 13 4 7 23 23 41 36 18 13 39
24 48 25 8 1 33 21 57 43 23 22 52 44 65 48 12 3 22 11 22 16 0 6 9 9 19 7 12
-2 35 11 58 32 21 20 54 44 74 53 20 9 42 23 49 32 7 8 18 15 25 15 7 0 24 13
38 29 13 16 42 38 63 48 21 11 50 26 64 34 14 8 31 22 38 32 7 9 26 17 43 17
16 0 29 4 29 9 0 4 38 27 86 50 47 23 88 50 91 59 4 9 10 20 15 23 5 3 4 18
-1 32 -8 19 -17 27 -33 26z"/>
</g>
<g>
<path d="M10781 3449 c-9 0 -28 -4 -43 -9 -15 -4 -33 -13 -40 -19 -7 -6 -29
-21 -48 -34 -19 -12 -54 -32 -77 -45 -23 -12 -62 -34 -85 -49 -24 -15 -47 -26
-52 -25 -5 2 -15 -6 -23 -18 -8 -11 -19 -20 -25 -20 -5 0 -26 -7 -46 -16 -21
-9 -56 -25 -80 -37 -23 -11 -47 -26 -53 -33 -6 -7 -8 -23 -4 -34 6 -18 12 -20
38 -15 18 4 50 15 72 25 22 10 51 21 65 26 14 4 54 21 90 38 36 16 68 31 73
32 4 1 11 2 15 3 5 0 29 14 53 30 24 17 79 41 122 54 47 15 85 34 97 48 11 13
19 32 20 41 0 9 -12 26 -26 37 -15 12 -34 21 -43 20z"/>
</g>
<g>
<path d="M14302 3398 c-4 -1 -24 -3 -44 -5 -21 -2 -38 -8 -38 -14 0 -5 -6 -9
-12 -9 -7 0 -39 -20 -70 -45 -32 -25 -61 -45 -64 -45 -4 0 -26 -17 -49 -37
-23 -21 -65 -57 -93 -80 -28 -24 -58 -43 -66 -43 -9 0 -23 -11 -32 -25 -9 -14
-19 -23 -22 -21 -2 3 -16 -4 -30 -14 -13 -11 -29 -20 -35 -20 -5 0 -28 -19
-51 -41 -22 -23 -59 -50 -81 -59 -22 -10 -56 -34 -74 -54 -19 -20 -40 -36 -47
-36 -6 0 -24 -16 -38 -35 -15 -19 -32 -32 -40 -29 -7 3 -25 -11 -41 -30 -15
-19 -39 -37 -53 -41 -15 -4 -56 -28 -92 -54 -36 -26 -95 -67 -132 -91 -38 -24
-68 -47 -68 -52 0 -4 -7 -8 -17 -8 -9 0 -31 -18 -50 -40 -20 -23 -61 -52 -99
-70 -42 -21 -69 -41 -79 -59 -8 -16 -11 -31 -8 -35 4 -3 19 -6 34 -6 20 0 43
13 76 45 38 37 52 45 73 40 22 -5 33 2 69 44 37 42 47 49 62 40 15 -8 21 -6
27 9 4 10 23 33 43 50 20 18 44 32 52 32 9 0 31 9 51 20 19 12 37 28 40 36 3
8 10 13 16 9 5 -3 24 4 42 17 18 13 51 38 72 56 22 17 46 32 54 32 7 0 30 18
49 40 20 22 44 40 53 40 10 0 23 7 30 16 8 8 27 21 44 28 17 7 51 30 74 50 24
20 47 36 51 36 5 0 17 8 29 18 12 9 59 45 106 80 46 34 90 62 97 62 6 0 30 15
53 34 23 18 55 40 72 49 17 9 37 23 45 33 7 9 32 25 54 34 22 10 52 30 68 44
15 15 27 35 27 44 0 10 -7 28 -16 40 -8 12 -18 21 -22 20z"/>
</g>
</g>
</svg>
