<?xml version="1.0" standalone="no"?>
<!DOCTYPE svg PUBLIC "-//W3C//DTD SVG 20010904//EN"
 "http://www.w3.org/TR/2001/REC-SVG-20010904/DTD/svg10.dtd">
<svg version="1.0" xmlns="http://www.w3.org/2000/svg"
 width="1558.000000pt" height="2048.000000pt" viewBox="0 0 1558.000000 2048.000000"
 preserveAspectRatio="xMidYMid meet">
<metadata>
Created by potrace 1.16, written by Peter Selinger 2001-2019
</metadata>
<g transform="translate(0.000000,2048.000000) scale(0.100000,-0.100000)"
fill="#000000" stroke="none">
<g>
<path d="M5609 19399 c-75 0 -138 -2 -140 -4 -2 -1 -80 -6 -174 -10 -93 -4
-197 -11 -230 -15 -33 -5 -105 -16 -160 -25 -55 -8 -107 -18 -115 -21 -8 -3
-40 -10 -70 -15 -30 -5 -86 -18 -125 -30 -38 -11 -79 -24 -90 -29 -11 -4 -40
-13 -65 -20 -25 -7 -61 -18 -80 -25 -19 -8 -60 -23 -90 -33 -30 -11 -86 -35
-125 -53 -38 -18 -83 -38 -100 -44 -16 -7 -66 -25 -110 -40 -44 -16 -98 -40
-120 -54 -22 -15 -69 -40 -105 -56 -35 -17 -103 -52 -150 -80 -47 -27 -115
-65 -151 -85 -36 -19 -92 -53 -125 -75 -32 -22 -64 -44 -70 -50 -7 -5 -22 -18
-35 -27 -13 -9 -53 -38 -88 -65 -36 -26 -85 -63 -110 -82 -25 -18 -66 -52 -91
-76 -25 -23 -65 -57 -90 -76 -25 -19 -80 -68 -123 -109 -43 -41 -118 -113
-165 -160 -48 -47 -120 -122 -160 -167 -40 -45 -86 -98 -102 -118 -16 -21 -52
-82 -79 -136 -28 -54 -57 -128 -66 -164 -8 -36 -21 -78 -28 -93 -8 -15 -24
-70 -37 -122 -12 -52 -33 -131 -45 -175 -13 -44 -28 -109 -35 -145 -6 -36 -18
-96 -26 -135 -7 -38 -17 -117 -21 -175 -5 -58 -8 -244 -8 -415 0 -194 5 -338
12 -385 7 -41 18 -124 24 -185 9 -81 23 -139 51 -220 22 -60 48 -129 59 -152
10 -24 19 -50 19 -58 0 -9 9 -42 20 -74 10 -31 35 -89 55 -127 20 -38 40 -76
45 -84 5 -8 19 -37 31 -65 12 -27 28 -63 35 -80 8 -16 22 -44 32 -60 9 -17 27
-44 40 -59 12 -16 22 -33 22 -38 0 -5 15 -32 33 -61 18 -29 46 -79 61 -112 15
-33 39 -91 52 -130 13 -38 29 -86 37 -105 7 -19 23 -54 35 -77 12 -23 22 -47
22 -53 0 -5 22 -45 49 -88 26 -42 51 -87 55 -100 4 -12 12 -22 17 -22 5 0 14
-12 20 -27 6 -16 20 -48 32 -73 12 -25 31 -61 43 -80 12 -20 38 -81 59 -135
20 -55 54 -137 76 -183 22 -46 55 -100 73 -120 18 -20 37 -44 42 -53 5 -9 34
-44 64 -79 30 -34 87 -98 127 -142 39 -43 101 -101 137 -128 37 -27 86 -61
110 -74 25 -14 62 -37 83 -53 21 -15 77 -57 123 -93 47 -36 109 -80 138 -98
29 -18 56 -32 59 -32 3 0 28 -12 57 -26 28 -14 87 -39 131 -54 44 -16 125 -40
180 -55 55 -15 123 -33 150 -42 28 -8 75 -24 105 -36 30 -12 75 -32 100 -45
25 -14 92 -49 150 -80 58 -31 127 -67 155 -81 27 -14 66 -43 86 -63 20 -21 44
-38 52 -38 8 0 62 -11 119 -24 56 -12 141 -28 188 -34 47 -7 204 -14 350 -17
146 -4 312 -10 369 -16 58 -5 139 -9 180 -9 42 0 144 7 226 15 83 8 193 26
245 39 52 14 113 33 135 42 22 10 47 19 55 20 8 1 51 11 95 23 43 12 111 38
150 58 38 20 77 42 85 49 8 7 44 27 80 45 36 18 103 58 150 91 47 32 100 73
118 90 19 17 45 56 58 86 13 30 24 69 24 86 0 17 -7 56 -15 86 -8 30 -15 78
-15 106 0 34 -5 56 -15 64 -8 7 -15 18 -15 24 0 7 -6 18 -12 24 -7 7 -14 36
-15 64 -1 32 -9 61 -21 77 -13 18 -18 37 -14 59 4 27 -1 37 -24 57 -16 14 -32
25 -36 25 -5 0 -8 9 -8 20 0 12 6 31 14 43 7 12 16 41 20 63 4 31 2 45 -9 54
-12 10 -20 9 -41 -5 -17 -11 -29 -14 -36 -7 -7 7 11 30 51 69 45 44 61 67 61
87 0 15 -6 29 -12 31 -7 2 -31 9 -53 14 -22 6 -49 17 -59 24 -16 12 -17 16 -5
35 8 12 17 22 21 22 5 0 8 -8 8 -18 0 -14 8 -19 30 -20 24 0 30 4 30 19 0 11
-5 29 -10 40 -8 14 -6 25 6 43 8 14 13 33 10 43 -3 10 -23 29 -44 42 -20 14
-55 26 -77 27 -22 2 -57 10 -78 19 -31 13 -36 19 -28 33 5 9 27 33 48 53 21
20 58 49 83 65 25 16 54 34 65 40 13 8 19 21 18 39 -1 15 -4 29 -6 31 -2 3
-41 11 -86 19 -45 8 -87 17 -93 21 -7 4 -68 7 -137 6 l-125 -2 29 32 c17 18
41 44 55 58 13 14 54 44 90 67 l65 42 3 -27 c2 -15 9 -30 15 -34 7 -4 22 -8
34 -8 12 0 27 9 33 19 5 11 10 35 10 55 0 25 -5 35 -17 38 -12 2 -2 13 33 36
28 17 60 32 70 32 11 0 25 5 32 12 7 7 12 27 12 45 0 27 -4 34 -27 39 -16 3
-55 17 -88 31 -33 14 -89 39 -125 55 -36 16 -78 36 -95 44 -16 7 -59 23 -95
35 -55 18 -92 21 -242 22 -174 1 -178 2 -172 22 4 11 22 42 42 68 19 27 63 69
97 95 35 26 76 55 92 64 15 10 55 35 88 56 33 21 98 53 145 71 47 18 148 55
224 82 109 38 153 49 201 49 49 0 66 -4 80 -20 10 -11 28 -20 41 -20 13 0 25
3 27 8 3 4 8 25 11 47 l7 41 -68 32 c-37 17 -93 37 -123 42 -30 6 -102 20
-160 31 -58 10 -143 24 -190 30 -47 6 -105 18 -130 26 -25 8 -95 17 -157 20
-65 3 -154 0 -210 -7 -54 -6 -138 -20 -188 -31 -49 -10 -117 -27 -150 -38 -33
-11 -105 -36 -160 -56 -55 -21 -120 -43 -145 -51 -25 -7 -76 -25 -115 -39 -38
-15 -92 -35 -120 -45 -27 -9 -72 -29 -100 -42 -27 -14 -64 -33 -82 -44 -17
-10 -35 -15 -39 -12 -4 4 1 20 11 35 10 15 48 62 84 103 36 41 106 116 156
165 49 50 130 127 179 170 48 44 104 89 125 101 20 11 72 40 116 64 44 24 91
49 105 57 14 7 28 13 33 13 4 0 30 11 59 25 28 14 55 25 59 25 4 0 42 16 83
35 42 19 83 35 92 35 9 0 28 6 42 14 15 8 104 32 197 54 94 23 190 44 215 47
25 3 74 12 110 20 36 7 103 19 150 25 47 7 146 14 220 16 74 3 148 7 165 8 16
2 51 -3 78 -12 28 -9 51 -12 56 -6 5 5 12 27 16 50 6 38 4 42 -22 53 -16 6
-40 22 -54 34 -13 12 -41 31 -61 42 -21 11 -38 22 -38 26 0 3 -19 15 -42 28
-24 12 -50 26 -58 31 -8 5 -45 23 -83 39 -37 17 -76 31 -86 31 -11 0 -50 11
-88 24 -37 13 -99 33 -138 45 -38 12 -128 35 -200 53 -71 17 -139 35 -150 40
-11 5 -45 13 -75 18 -30 5 -104 16 -165 24 -60 8 -195 20 -300 27 -111 6 -278
8 -400 5 -115 -4 -257 -11 -315 -16 -58 -6 -127 -15 -155 -20 -27 -4 -84 -18
-125 -30 -41 -12 -97 -28 -125 -35 -27 -8 -79 -21 -114 -30 -35 -8 -98 -22
-140 -31 -42 -9 -128 -33 -191 -53 -63 -21 -169 -55 -235 -75 -66 -21 -138
-44 -160 -51 -22 -8 -59 -18 -81 -23 -31 -7 -41 -6 -40 2 1 7 18 38 39 69 21
31 42 59 47 62 6 4 34 36 63 73 29 37 59 81 65 97 7 17 25 49 40 71 15 23 89
95 164 160 75 65 176 148 224 184 48 36 127 89 176 118 48 28 90 52 93 52 3 0
23 11 44 24 21 13 89 50 152 82 63 31 137 71 164 89 28 17 76 46 107 63 32 18
66 32 76 32 9 0 26 6 37 14 11 7 45 22 75 34 30 11 102 41 159 66 57 25 111
46 121 46 10 0 43 11 74 25 31 14 65 25 75 25 10 0 35 7 56 15 20 9 84 25 143
36 59 11 154 28 212 39 58 11 179 27 270 35 91 9 201 13 245 10 44 -3 103 -11
130 -16 28 -6 73 -15 100 -20 28 -6 81 -17 118 -27 50 -12 73 -13 85 -6 9 6
18 24 20 40 3 28 -2 31 -160 111 -108 54 -188 87 -238 98 -41 10 -91 23 -110
30 -19 7 -60 18 -90 24 -30 5 -89 15 -130 22 -41 7 -91 13 -110 14 -19 2 -69
10 -110 18 -41 9 -127 19 -190 22 -63 3 -130 8 -149 10 -19 3 -102 7 -185 9
-83 2 -158 7 -166 10 -8 3 -73 11 -145 17 -71 6 -200 14 -285 16 -104 3 -213
-1 -330 -12 -96 -9 -236 -28 -310 -42 -74 -13 -169 -33 -210 -44 -41 -11 -97
-26 -125 -34 -27 -8 -81 -21 -120 -30 -38 -9 -97 -25 -130 -35 -33 -11 -78
-23 -100 -29 -22 -5 -80 -20 -130 -32 -49 -12 -133 -35 -185 -52 -52 -16 -101
-33 -110 -38 -8 -4 -55 -20 -105 -34 -49 -14 -119 -35 -155 -47 -36 -11 -97
-36 -136 -54 -38 -19 -76 -34 -82 -34 -7 0 -12 2 -12 5 0 3 21 38 47 77 27 41
102 125 177 199 72 70 186 172 253 227 67 55 159 126 205 158 46 32 89 64 96
71 8 8 60 44 115 80 56 37 111 73 122 79 11 6 61 33 110 59 50 26 119 63 155
82 36 20 90 50 120 69 30 18 87 45 125 59 39 15 93 35 120 45 28 10 100 25
160 35 61 9 137 21 170 26 33 5 121 16 195 24 74 8 180 15 235 15 55 0 210 -7
345 -15 135 -8 286 -20 335 -25 50 -6 131 -18 180 -26 50 -9 135 -27 190 -40
55 -13 132 -34 170 -46 39 -12 122 -41 185 -65 63 -24 129 -49 145 -57 17 -8
78 -37 137 -65 68 -32 114 -60 124 -77 10 -14 29 -30 42 -35 18 -7 31 -5 48 6
13 8 24 24 24 35 0 10 -17 35 -37 55 -21 20 -51 43 -68 51 -16 8 -47 25 -67
37 -20 13 -54 38 -76 57 -21 19 -48 41 -60 48 -13 7 -49 27 -80 43 -31 17 -89
53 -129 79 -40 27 -83 52 -95 56 -13 3 -54 25 -93 49 -38 23 -97 55 -130 72
-33 17 -91 47 -130 66 -38 19 -99 44 -135 55 -36 11 -78 27 -95 35 -16 9 -58
27 -92 41 -34 14 -72 26 -83 26 -12 0 -34 7 -49 15 -16 8 -48 17 -72 21 -24 3
-78 15 -119 26 -41 11 -109 27 -150 34 -41 8 -104 18 -140 23 -36 5 -126 9
-201 10z m-69 -83 c124 -2 259 -8 300 -15 41 -7 95 -17 120 -23 25 -5 86 -19
135 -29 50 -11 117 -25 150 -33 33 -8 80 -23 105 -35 25 -11 51 -21 59 -21 8
0 60 -18 115 -41 56 -23 169 -73 251 -112 83 -39 161 -78 175 -88 14 -9 53
-34 87 -55 35 -21 63 -42 63 -45 0 -4 -26 0 -57 8 -32 8 -83 19 -114 24 -31 4
-68 13 -83 19 -15 5 -76 21 -136 35 -60 14 -133 25 -162 25 -29 0 -71 5 -93
10 -22 5 -184 14 -361 20 -223 8 -365 8 -466 1 -80 -6 -167 -15 -194 -20 -27
-6 -92 -15 -144 -21 -52 -6 -130 -18 -175 -26 -44 -8 -88 -19 -97 -25 -10 -5
-27 -9 -37 -9 -11 0 -22 -4 -25 -8 -3 -5 -33 -17 -68 -27 -35 -10 -72 -25 -83
-32 -11 -7 -27 -13 -36 -13 -8 0 -38 -14 -65 -32 -27 -17 -58 -39 -69 -49 -11
-10 -67 -42 -125 -71 -58 -29 -134 -71 -168 -93 -35 -22 -113 -76 -172 -120
-60 -44 -128 -91 -151 -105 -23 -14 -74 -51 -113 -83 -39 -32 -116 -95 -171
-140 -55 -45 -154 -136 -220 -202 -66 -67 -129 -134 -140 -149 -11 -16 -25
-36 -30 -45 -6 -9 -24 -36 -40 -61 -16 -25 -32 -47 -36 -50 -3 -3 -31 -39 -62
-80 -31 -41 -57 -82 -57 -90 0 -9 5 -21 12 -28 7 -7 19 -12 28 -12 10 0 35 13
56 28 21 16 62 44 90 64 28 20 93 58 145 86 52 28 123 61 159 75 36 13 94 34
130 46 36 12 73 21 83 21 10 0 32 7 49 16 17 9 61 25 97 36 36 10 147 39 245
64 99 24 185 49 191 54 7 6 39 15 71 21 33 5 77 16 99 24 22 8 58 17 80 20 22
3 92 19 155 34 63 16 144 34 180 39 36 6 101 16 145 23 49 8 188 13 360 13
165 1 323 -4 385 -11 58 -7 148 -16 200 -19 52 -3 124 -7 160 -9 36 -2 119 -6
185 -9 66 -4 140 -9 165 -11 25 -3 90 -13 145 -21 55 -8 127 -19 160 -25 33
-5 92 -17 130 -25 39 -9 114 -29 168 -46 53 -17 97 -34 97 -39 0 -6 -43 -7
-101 -3 -67 4 -154 1 -262 -11 -89 -9 -205 -25 -257 -35 -52 -10 -115 -22
-140 -25 -25 -4 -86 -17 -136 -31 -51 -13 -145 -42 -210 -63 -66 -22 -159 -58
-209 -80 -49 -22 -121 -52 -160 -66 -38 -14 -97 -39 -130 -55 -33 -16 -87 -44
-120 -62 -33 -18 -62 -36 -65 -40 -3 -3 -52 -31 -110 -61 -58 -30 -123 -65
-145 -78 -22 -13 -55 -33 -74 -44 -18 -11 -79 -47 -135 -79 -55 -32 -115 -71
-132 -86 -18 -15 -58 -45 -90 -66 -33 -21 -90 -68 -127 -104 -38 -36 -77 -69
-89 -75 -11 -5 -48 -38 -81 -72 -36 -38 -67 -81 -75 -104 -7 -22 -33 -66 -57
-97 -23 -31 -55 -70 -69 -85 -14 -15 -26 -31 -26 -35 0 -4 -18 -29 -40 -56
-22 -26 -40 -51 -40 -55 0 -3 -20 -29 -45 -56 -34 -36 -45 -56 -43 -75 2 -18
10 -26 26 -28 13 -2 47 4 75 13 29 9 75 24 102 34 28 11 84 29 125 41 41 12
107 32 145 45 39 13 85 26 103 30 18 4 45 13 60 21 15 8 34 14 42 14 8 0 40
12 70 26 30 15 91 33 135 40 44 8 108 21 143 29 34 8 92 22 130 31 37 9 76 21
86 26 11 6 45 16 75 24 31 7 100 17 153 23 54 6 101 10 105 9 5 -1 55 2 113 6
58 4 175 8 260 10 89 1 241 -5 355 -15 110 -10 238 -24 285 -33 47 -8 108 -20
135 -26 28 -7 79 -20 115 -30 36 -10 92 -26 125 -35 33 -9 110 -32 170 -50 61
-19 133 -41 160 -49 28 -8 69 -22 93 -31 24 -8 73 -31 110 -50 37 -19 80 -45
96 -59 l29 -24 -64 -6 c-35 -3 -125 -10 -199 -16 -74 -6 -151 -15 -170 -20
-19 -5 -71 -14 -115 -20 -44 -7 -87 -14 -95 -18 -8 -3 -42 -11 -75 -18 -33 -7
-89 -19 -125 -28 -36 -8 -76 -18 -90 -21 -14 -4 -34 -10 -45 -15 -11 -5 -60
-22 -110 -39 -49 -17 -133 -48 -185 -69 -52 -22 -165 -75 -251 -119 -86 -44
-176 -95 -200 -114 -24 -19 -136 -127 -249 -241 -146 -146 -217 -225 -244
-271 -21 -36 -46 -73 -57 -83 -10 -9 -19 -22 -19 -29 0 -6 -16 -26 -36 -43
-27 -24 -35 -38 -32 -59 2 -23 9 -29 32 -31 21 -3 45 7 87 37 32 23 63 41 68
41 6 0 32 15 58 34 27 18 68 43 93 54 25 11 69 27 97 36 29 10 55 22 58 27 4
5 13 9 22 9 8 0 29 6 46 13 18 8 95 35 172 61 77 26 160 53 185 61 25 7 70 22
100 33 30 11 78 22 107 25 29 3 57 8 62 12 6 3 68 8 138 11 111 5 149 2 283
-21 85 -15 207 -35 270 -45 63 -11 126 -22 139 -26 19 -6 6 -13 -72 -40 -53
-18 -122 -44 -153 -58 -31 -14 -60 -26 -65 -26 -4 0 -50 -20 -101 -44 -52 -24
-100 -51 -107 -60 -7 -9 -18 -16 -23 -16 -6 0 -27 -13 -48 -30 -21 -16 -43
-30 -49 -30 -6 0 -19 -7 -28 -15 -10 -8 -41 -35 -69 -60 -29 -25 -65 -72 -83
-105 -17 -32 -50 -75 -73 -95 -38 -32 -41 -38 -32 -63 8 -23 15 -27 49 -26 22
0 128 4 235 9 l195 7 105 -40 c58 -22 145 -58 194 -81 l90 -42 -90 -65 c-49
-36 -96 -68 -104 -72 -8 -3 -38 -20 -66 -39 -28 -18 -59 -47 -69 -65 -9 -18
-42 -53 -73 -78 -31 -25 -69 -57 -84 -72 -15 -14 -28 -30 -28 -35 0 -5 6 -18
14 -28 14 -19 16 -19 82 -2 38 9 107 20 154 24 47 4 94 6 105 6 11 -1 42 -5
69 -9 27 -5 51 -14 52 -19 2 -6 -14 -22 -35 -36 -20 -15 -45 -42 -54 -62 -10
-19 -35 -50 -57 -67 -27 -21 -40 -40 -40 -56 0 -18 7 -25 28 -29 15 -3 63 -15
108 -27 45 -11 87 -23 93 -27 9 -6 3 -23 -21 -62 -18 -30 -39 -60 -45 -67 -7
-7 -13 -24 -13 -36 0 -13 6 -28 13 -34 6 -5 37 -18 67 -28 l55 -18 -62 -65
c-40 -41 -63 -73 -63 -88 0 -18 11 -29 44 -45 42 -20 44 -24 39 -52 -3 -17
-12 -43 -19 -58 -8 -15 -14 -29 -14 -33 0 -3 9 -5 20 -5 11 0 34 -9 52 -20 29
-18 32 -23 29 -61 -1 -23 2 -45 8 -48 6 -4 14 -35 17 -70 6 -55 12 -67 46
-103 34 -35 38 -45 38 -89 0 -28 7 -64 16 -80 13 -25 13 -39 4 -85 -7 -35 -22
-67 -40 -88 -16 -18 -48 -46 -72 -62 -24 -15 -58 -41 -76 -56 -17 -15 -56 -39
-85 -53 -28 -15 -70 -37 -92 -50 -22 -13 -84 -46 -137 -74 -54 -27 -117 -52
-140 -56 -24 -3 -52 -10 -63 -15 -11 -5 -48 -18 -82 -30 -34 -11 -71 -20 -82
-20 -11 0 -40 -7 -63 -15 -24 -8 -61 -17 -83 -20 -22 -3 -83 -8 -135 -12 -52
-4 -131 -7 -175 -6 -44 0 -237 6 -430 11 -192 6 -377 13 -410 16 -33 3 -98 12
-145 21 -47 9 -105 24 -130 33 -25 9 -67 30 -95 46 -27 16 -72 44 -100 61 -27
17 -133 72 -235 122 -102 51 -219 103 -260 116 -41 14 -113 35 -160 48 -47 12
-121 33 -165 47 -44 13 -134 50 -200 82 -76 37 -149 81 -200 122 -44 35 -103
80 -131 100 -29 20 -67 44 -85 54 -19 9 -61 38 -94 63 -33 25 -78 64 -100 86
-22 22 -81 88 -131 147 -51 59 -117 142 -148 186 -31 44 -56 82 -56 85 0 3
-13 35 -30 70 -16 36 -30 68 -30 72 0 3 -11 31 -25 61 -14 30 -25 61 -25 69 0
8 -4 15 -10 15 -5 0 -10 6 -10 13 0 8 -28 70 -63 138 -35 68 -82 155 -105 193
-23 37 -42 72 -42 76 0 4 -20 51 -45 104 -25 54 -45 106 -45 116 0 10 -4 21
-9 24 -5 3 -12 18 -16 33 -3 16 -21 60 -40 99 -18 39 -55 104 -81 145 -27 41
-58 92 -71 114 -12 22 -58 113 -102 201 -43 89 -89 193 -101 230 -12 38 -29
83 -36 101 -8 17 -14 36 -14 43 0 7 -6 26 -14 43 -7 18 -21 57 -29 87 -9 30
-21 75 -26 100 -6 25 -17 86 -25 135 -8 50 -17 119 -21 155 -3 36 -8 173 -10
305 -2 154 1 304 10 420 8 104 23 211 35 255 11 41 20 87 20 101 0 15 10 58
21 95 12 38 30 107 40 154 10 47 25 117 34 155 8 39 28 97 44 130 15 33 33 81
40 108 6 26 28 71 49 100 20 28 62 84 93 122 31 39 86 101 123 138 43 44 66
76 66 91 0 15 20 41 59 77 33 30 78 70 101 89 23 19 46 37 52 39 5 2 32 24 60
50 28 25 68 63 87 83 20 21 40 38 46 38 5 0 23 14 41 31 17 17 65 54 106 82
41 29 103 74 139 100 35 27 86 61 113 75 27 15 60 33 75 41 14 8 44 27 65 43
21 15 43 28 48 28 5 0 29 14 53 30 24 17 48 30 54 30 6 0 33 14 59 30 27 17
52 30 56 30 3 0 48 20 99 44 50 24 108 51 127 59 19 9 60 26 90 37 30 12 64
27 75 34 11 7 38 19 60 25 22 7 60 22 85 33 25 12 61 25 80 29 19 4 51 12 70
17 19 6 55 17 80 25 25 8 70 22 100 30 30 8 96 22 145 31 50 9 126 21 170 27
44 6 143 17 220 24 83 8 232 12 365 11z"/>
<g>
<path d="M5176 19230 c-17 0 -39 -5 -49 -11 -10 -6 -22 -22 -28 -36 -7 -20 -5
-33 12 -60 19 -31 25 -34 53 -29 17 3 39 16 49 27 9 12 17 36 17 53 0 18 -5
37 -12 44 -7 7 -26 12 -42 12z"/>
</g>
<g>
<path d="M5936 17940 c-17 0 -36 -4 -42 -8 -6 -4 -16 -17 -23 -29 -6 -12 -11
-33 -11 -46 0 -13 8 -31 18 -39 9 -9 24 -18 32 -20 8 -3 27 1 42 9 16 7 31 26
35 41 4 15 6 36 4 47 -2 11 -8 26 -13 33 -6 6 -25 12 -42 12z"/>
</g>
<g>
<path d="M6808 16390 c-21 0 -30 -9 -47 -43 -12 -24 -21 -46 -21 -49 0 -4 7
-14 16 -22 8 -9 31 -16 49 -16 18 0 41 7 49 16 9 8 16 30 16 48 0 19 -8 40
-18 49 -10 10 -30 17 -44 17z"/>
</g>
<g>
<path d="M7011 15250 c-16 0 -37 -7 -46 -16 -11 -11 -15 -29 -12 -56 2 -21 9
-44 16 -51 9 -9 16 -9 29 1 9 7 27 16 40 22 12 5 22 18 22 29 0 11 -4 31 -10
45 -7 20 -17 26 -39 26z"/>
</g>
<g>
<path d="M7072 14490 c-21 0 -30 -7 -41 -30 -7 -17 -10 -37 -7 -45 3 -8 16
-17 29 -20 18 -5 32 0 51 18 14 13 26 33 26 45 0 11 -7 23 -16 26 -9 3 -28 6
-42 6z"/>
</g>
<g>
<path d="M7187 13930 c-7 0 -20 -6 -29 -12 -8 -7 -17 -20 -20 -28 -3 -8 -2
-25 3 -37 6 -16 17 -23 34 -23 17 0 29 8 36 23 7 15 7 31 0 50 -6 15 -17 27
-24 27z"/>
</g>
<g>
<path d="M7321 13630 c-3 0 -17 -6 -31 -13 -17 -8 -25 -21 -25 -37 0 -20 6
-26 27 -28 20 -2 31 4 44 22 13 21 14 29 4 41 -7 8 -15 15 -19 15z"/>
</g>
<g>
<path d="M7343 13378 c-7 2 -18 -8 -25 -22 -8 -20 -8 -30 0 -38 6 -6 18 -8 27
-4 11 4 15 15 13 33 -2 14 -9 28 -15 31z"/>
</g>
</g>
<g>
<path d="M9615 18570 c-13 0 -31 -10 -39 -21 -8 -12 -12 -28 -9 -35 3 -8 9
-14 14 -14 4 0 18 -33 29 -72 12 -40 35 -100 52 -133 16 -33 38 -93 49 -135
10 -41 31 -102 46 -135 16 -33 30 -62 33 -65 3 -3 18 -31 33 -62 15 -31 27
-60 27 -63 0 -4 6 -21 13 -38 8 -18 21 -54 30 -82 9 -27 21 -81 27 -120 5 -38
26 -128 46 -199 19 -71 39 -136 44 -145 4 -9 16 -59 25 -111 10 -52 20 -111
22 -130 2 -19 11 -64 19 -100 8 -36 22 -100 30 -142 8 -43 24 -106 35 -140 11
-35 32 -115 45 -178 14 -63 30 -149 35 -190 5 -41 16 -102 24 -135 8 -33 23
-114 35 -180 11 -66 32 -172 46 -235 15 -63 30 -124 34 -135 4 -11 15 -60 23
-110 9 -49 19 -114 23 -144 3 -29 8 -70 11 -90 2 -20 8 -72 13 -116 5 -44 12
-246 16 -450 5 -304 4 -399 -10 -530 -8 -88 -18 -187 -20 -220 -3 -33 -7 -109
-11 -170 -3 -60 -10 -171 -16 -245 -5 -74 -17 -191 -25 -260 -8 -69 -18 -150
-24 -180 -5 -30 -18 -109 -29 -175 -11 -66 -26 -142 -32 -170 -6 -27 -20 -90
-31 -140 -11 -49 -34 -137 -50 -195 -16 -58 -41 -141 -54 -185 -14 -43 -28
-84 -33 -90 -4 -5 -15 -32 -25 -60 -10 -27 -29 -74 -42 -103 -13 -29 -24 -57
-24 -63 0 -6 -11 -34 -24 -62 -14 -29 -45 -101 -71 -162 -25 -60 -55 -126 -65
-146 -11 -20 -20 -44 -20 -53 0 -8 -8 -30 -18 -48 -10 -18 -24 -53 -32 -78 -7
-25 -19 -52 -25 -60 -6 -8 -18 -31 -27 -50 -8 -19 -56 -116 -105 -215 -50 -99
-111 -218 -135 -265 -25 -47 -55 -102 -67 -123 -12 -21 -41 -63 -64 -94 -23
-30 -51 -69 -61 -87 -11 -17 -51 -69 -90 -116 -38 -47 -113 -129 -165 -183
-53 -55 -102 -104 -109 -110 -7 -7 -38 -39 -70 -72 -31 -33 -81 -82 -111 -110
-29 -27 -94 -90 -145 -139 -50 -49 -165 -156 -256 -239 -91 -83 -173 -158
-183 -166 -10 -9 -28 -25 -40 -37 -12 -11 -40 -33 -62 -49 -22 -17 -56 -44
-75 -62 -19 -18 -71 -60 -115 -94 -44 -33 -109 -79 -145 -100 -36 -22 -86 -53
-112 -69 -25 -15 -68 -41 -95 -56 -26 -15 -60 -33 -74 -41 -15 -7 -32 -20 -39
-28 -7 -8 -17 -15 -23 -15 -5 0 -33 -15 -61 -34 -28 -18 -101 -59 -162 -90
-62 -31 -115 -63 -118 -72 -4 -9 -2 -22 4 -29 6 -7 44 -15 88 -18 61 -4 81 -1
95 11 9 8 17 24 17 34 0 10 8 21 18 25 9 3 24 11 32 17 8 7 40 20 70 30 30 10
64 24 75 31 11 6 38 18 60 25 22 7 45 16 50 20 6 4 35 14 65 23 30 9 87 22
125 27 39 6 102 15 140 20 39 6 95 14 125 19 30 5 82 13 115 17 33 4 74 8 90
9 17 1 101 12 187 23 121 17 241 23 530 29 205 4 423 7 483 6 61 -1 187 -4
280 -8 94 -3 206 -10 250 -15 44 -5 116 -12 160 -15 44 -3 103 -8 130 -11 28
-3 79 -9 115 -13 36 -5 88 -9 117 -10 28 -1 75 -6 105 -12 29 -5 66 -12 81
-14 16 -3 74 -12 130 -21 56 -9 127 -20 157 -25 30 -4 84 -15 120 -23 36 -8
90 -20 120 -26 30 -6 73 -18 96 -26 22 -9 44 -14 50 -13 5 2 43 -8 84 -20 41
-12 118 -36 170 -52 52 -17 115 -39 140 -49 25 -10 68 -25 95 -33 28 -9 97
-36 154 -62 57 -25 109 -49 115 -54 6 -4 86 -47 178 -94 91 -47 190 -101 220
-120 29 -19 80 -49 113 -67 33 -18 96 -58 140 -88 44 -30 141 -105 215 -166
74 -60 214 -184 310 -275 95 -91 188 -180 205 -200 16 -19 45 -57 63 -85 17
-28 50 -89 73 -136 22 -47 60 -125 84 -175 24 -49 55 -116 69 -147 14 -31 26
-62 26 -68 0 -6 6 -21 14 -33 7 -12 26 -60 41 -107 16 -47 32 -94 36 -105 4
-11 10 -38 13 -60 3 -22 19 -152 37 -290 17 -137 34 -284 39 -325 5 -41 13
-118 20 -170 6 -52 8 -116 5 -141 -4 -31 -2 -54 7 -68 8 -13 23 -21 40 -21 17
0 31 7 38 19 5 11 10 33 10 50 0 17 -5 31 -11 31 -5 0 -7 4 -4 10 3 5 -1 78
-10 162 -9 84 -20 172 -25 195 -6 23 -19 124 -30 225 -11 100 -27 228 -36 283
-9 55 -29 143 -44 195 -16 52 -43 133 -60 179 -17 46 -49 120 -71 165 -22 45
-45 85 -50 90 -5 6 -9 18 -9 28 0 10 -19 55 -43 101 -24 45 -56 105 -72 132
-15 28 -42 68 -59 90 -17 21 -71 78 -121 126 -49 47 -115 108 -145 134 -30 26
-64 58 -75 70 -11 12 -60 57 -110 99 -49 42 -102 88 -117 102 -15 13 -31 24
-37 24 -5 0 -14 6 -18 13 -4 7 -51 45 -103 84 -52 38 -129 87 -170 108 -41 21
-82 44 -90 50 -8 7 -35 23 -60 36 -25 13 -52 29 -60 36 -9 7 -74 42 -145 78
-72 37 -143 77 -160 89 -16 13 -60 35 -97 49 -36 15 -106 41 -155 58 -48 16
-106 38 -128 48 -22 10 -67 26 -100 36 -33 9 -89 26 -125 37 -36 11 -73 24
-83 29 -10 5 -39 14 -65 19 -26 5 -87 19 -137 30 -49 12 -119 27 -155 34 -36
7 -70 15 -75 18 -6 3 -53 13 -105 22 -52 9 -104 18 -115 20 -11 2 -54 7 -95
11 -41 3 -118 13 -170 20 -52 7 -176 21 -275 30 -99 9 -216 20 -260 26 -44 6
-150 14 -235 18 -85 5 -357 7 -605 5 -247 -2 -463 -6 -480 -9 -16 -2 -91 -7
-165 -10 -74 -3 -155 -11 -180 -17 -25 -5 -65 -12 -90 -14 -25 -2 -118 -13
-207 -24 -89 -11 -165 -20 -168 -20 -3 0 -4 4 0 10 3 5 11 7 18 4 7 -2 42 14
77 37 36 23 96 56 134 73 l69 30 15 -22 c8 -13 25 -22 39 -22 14 0 38 10 55
21 21 15 38 20 59 15 16 -3 29 -2 29 2 0 4 -7 18 -16 31 -11 15 -23 21 -36 18
-16 -4 -17 -3 -7 9 6 8 16 14 22 14 5 0 54 22 108 50 54 27 116 61 138 75 22
14 43 25 46 25 3 0 34 17 68 39 34 21 95 57 135 80 41 22 80 41 87 41 7 0 37
11 66 24 30 12 74 26 99 30 24 4 49 11 55 15 5 5 28 11 50 15 22 4 77 13 123
21 45 7 117 23 160 35 42 12 104 30 137 40 33 10 137 26 230 35 94 9 190 20
215 24 25 4 115 8 200 10 85 1 218 -3 295 -9 77 -5 174 -12 216 -15 42 -2 98
-7 125 -10 27 -3 95 -13 152 -21 57 -8 114 -19 127 -24 13 -5 43 -11 67 -14
23 -3 93 -14 153 -25 61 -12 130 -25 155 -30 25 -6 103 -20 175 -32 71 -11
170 -30 220 -40 49 -11 142 -34 205 -50 63 -17 153 -44 200 -61 47 -17 103
-38 125 -48 22 -10 69 -30 105 -45 36 -15 106 -46 155 -70 50 -23 125 -59 168
-79 44 -20 81 -36 85 -36 3 0 26 -9 51 -21 25 -11 84 -39 130 -61 46 -22 120
-65 165 -95 44 -30 97 -70 116 -87 19 -18 70 -59 112 -90 42 -31 91 -70 108
-86 18 -17 35 -30 39 -30 4 0 28 -22 53 -49 26 -27 64 -73 85 -103 22 -29 66
-100 99 -158 33 -58 78 -143 101 -190 23 -47 58 -121 79 -165 20 -44 59 -134
86 -200 28 -66 61 -149 74 -185 13 -36 33 -99 45 -140 12 -41 26 -91 30 -110
4 -19 15 -64 24 -100 8 -36 22 -105 30 -155 8 -49 19 -99 24 -110 5 -11 12
-45 16 -75 3 -30 21 -122 40 -205 19 -82 44 -188 54 -235 11 -47 23 -98 26
-115 4 -16 10 -75 15 -130 5 -55 12 -145 16 -200 4 -59 2 -142 -5 -201 -6 -55
-9 -108 -5 -118 5 -12 15 -16 37 -14 24 2 32 9 39 33 4 16 6 117 3 225 -2 107
-6 218 -10 245 -3 28 -15 109 -26 180 -11 72 -29 168 -40 215 -11 47 -27 108
-35 135 -7 28 -17 66 -20 85 -3 19 -16 87 -29 150 -13 63 -38 185 -54 270 -17
85 -36 173 -43 195 -6 22 -11 43 -10 47 1 3 -25 79 -58 167 -33 88 -73 190
-90 226 -16 36 -30 69 -30 73 0 4 -14 34 -31 67 -17 33 -37 77 -45 98 -7 21
-33 77 -56 125 -24 48 -45 89 -48 92 -3 3 -10 14 -17 25 -6 11 -26 46 -43 79
-17 32 -57 91 -88 130 -31 39 -84 98 -118 131 -35 34 -104 92 -155 130 -50 39
-110 86 -133 106 -22 19 -79 62 -126 94 -46 32 -125 77 -175 100 -49 24 -128
58 -175 75 -47 18 -92 39 -101 46 -8 8 -19 14 -22 14 -4 0 -46 18 -94 41 -49
22 -106 49 -128 59 -22 10 -76 33 -120 51 -44 17 -116 45 -160 62 -44 16 -174
54 -290 83 -115 30 -223 54 -240 54 -16 0 -73 10 -125 21 -52 11 -122 24 -155
29 -33 5 -85 14 -115 19 -30 6 -100 19 -155 31 -55 11 -127 25 -160 30 -33 6
-89 15 -125 21 -36 5 -139 16 -230 24 -91 8 -214 18 -275 21 -60 4 -153 7
-205 8 -52 0 -149 -3 -215 -7 -65 -5 -122 -10 -125 -12 -4 -2 -51 -9 -106 -15
-54 -6 -122 -12 -151 -14 -29 -2 -56 -7 -61 -10 -6 -3 -30 -8 -53 -11 l-44 -5
55 28 c31 15 80 37 110 50 31 12 62 22 71 22 8 0 19 4 24 9 6 4 45 14 87 20
42 7 98 20 125 31 26 10 71 26 98 35 28 10 59 22 70 26 11 5 45 18 75 29 30
11 64 25 75 30 11 5 72 30 135 56 63 26 153 60 199 76 46 15 107 39 137 53 29
13 65 27 79 31 14 3 28 10 31 15 3 5 15 9 28 9 12 0 26 4 31 9 6 5 28 14 50
21 22 6 63 17 90 24 28 7 77 18 110 25 33 6 92 18 130 26 39 8 104 21 145 30
41 9 89 20 105 25 17 5 75 20 130 33 55 14 123 28 150 33 28 4 53 7 57 6 4 -1
29 2 55 7 26 5 80 12 118 15 39 3 115 10 170 16 55 5 199 18 320 27 121 10
288 18 370 18 85 0 182 -6 225 -14 41 -8 102 -20 135 -28 33 -8 72 -16 86 -18
14 -2 46 -11 70 -19 24 -7 78 -22 119 -31 41 -9 116 -33 167 -52 50 -19 112
-48 138 -64 25 -16 69 -41 98 -55 29 -15 88 -52 132 -82 44 -31 82 -59 85 -62
3 -4 12 -11 21 -16 9 -5 40 -29 70 -54 29 -25 76 -66 105 -93 28 -26 71 -73
95 -104 24 -31 55 -68 68 -81 12 -14 48 -59 80 -101 31 -42 61 -85 67 -96 6
-11 28 -49 49 -85 21 -36 43 -72 50 -80 7 -8 39 -67 72 -130 32 -63 75 -155
94 -205 20 -49 46 -121 57 -160 11 -38 27 -99 36 -135 8 -36 20 -87 25 -115 5
-27 15 -79 21 -115 7 -36 19 -101 27 -145 7 -44 19 -208 24 -365 8 -220 8
-304 -2 -368 -11 -71 -10 -85 2 -93 8 -5 20 -9 26 -9 7 0 19 10 28 23 8 13 20
49 26 80 5 32 8 61 5 65 -3 5 -8 118 -11 253 -3 134 -8 258 -10 274 -2 17 -9
75 -15 129 -6 55 -16 110 -21 123 -5 14 -7 28 -4 32 2 5 0 23 -6 42 -5 19 -17
68 -25 109 -8 41 -17 86 -20 100 -3 14 -11 51 -19 83 -8 32 -26 87 -40 123
-14 35 -37 94 -51 131 -14 37 -29 74 -33 82 -4 9 -15 31 -24 49 -9 19 -17 38
-17 43 0 6 -16 35 -35 65 -19 30 -35 58 -35 62 0 4 -16 32 -36 62 -20 30 -50
74 -65 98 -16 23 -29 46 -29 51 0 5 -7 15 -16 22 -9 7 -19 21 -23 30 -3 10
-46 65 -95 124 -48 58 -98 116 -110 129 -11 12 -35 37 -52 56 -17 19 -50 52
-75 72 -24 20 -64 52 -89 70 -25 18 -73 52 -107 76 -35 23 -64 42 -66 42 -2 0
-35 20 -73 45 -38 25 -107 64 -154 87 -47 22 -107 49 -135 60 -27 11 -97 33
-155 48 -58 16 -150 38 -205 50 -55 12 -129 28 -165 37 -36 8 -117 17 -180 20
-63 3 -225 -3 -360 -12 -135 -9 -265 -19 -290 -21 -25 -2 -83 -8 -130 -14 -47
-5 -114 -12 -150 -15 -36 -2 -96 -7 -135 -11 -38 -3 -106 -13 -150 -21 -44 -8
-147 -32 -230 -53 -82 -21 -233 -55 -335 -75 -102 -20 -189 -40 -195 -44 -5
-5 -27 -11 -48 -14 -20 -3 -77 -20 -125 -38 -48 -17 -109 -42 -137 -54 -27
-12 -61 -26 -75 -30 -14 -4 -43 -15 -65 -25 -22 -9 -85 -34 -140 -55 -55 -20
-163 -62 -240 -92 -77 -30 -176 -68 -220 -83 -44 -16 -138 -43 -210 -61 -78
-19 -166 -49 -220 -74 -49 -24 -101 -46 -115 -50 -14 -5 -41 -18 -61 -31 -20
-12 -54 -26 -75 -30 -26 -4 -36 -3 -29 4 6 5 33 22 61 36 29 15 60 36 69 46
10 11 22 20 26 20 4 0 27 13 51 28 24 16 59 38 78 48 19 10 48 29 63 41 16 13
37 23 47 23 10 0 22 5 26 11 3 6 21 17 38 25 17 8 40 20 51 27 11 6 31 19 45
28 14 9 52 31 85 49 33 18 62 35 65 39 3 4 21 15 40 24 19 10 55 33 80 52 25
18 51 34 58 34 8 1 32 16 55 34 23 18 58 41 77 51 19 10 44 27 55 37 11 9 81
58 155 108 74 51 160 112 190 137 30 25 75 62 99 82 25 20 92 84 150 142 58
58 135 137 171 175 36 39 90 98 120 132 30 33 87 102 125 153 39 50 95 123
125 161 30 38 73 92 95 120 22 29 57 75 77 102 21 28 61 77 90 109 29 32 57
67 63 77 5 10 25 36 43 57 19 22 56 68 83 103 27 35 49 70 49 78 0 7 6 16 14
19 8 3 31 33 52 67 22 34 44 71 50 82 6 11 30 52 52 90 22 39 77 138 123 220
47 83 106 200 132 260 26 61 58 151 72 200 14 50 32 113 40 140 8 28 23 91 34
140 11 50 27 122 36 160 8 39 20 99 26 135 6 36 17 124 25 195 8 72 19 180 24
240 5 61 12 162 15 225 4 63 6 126 6 140 -1 13 3 49 8 80 5 30 12 109 16 175
3 66 8 136 10 155 3 19 9 98 15 175 6 77 17 205 25 285 8 80 19 188 25 240 5
52 11 174 11 270 1 96 -1 211 -5 255 -4 44 -14 125 -23 180 -8 55 -19 129 -23
165 -5 36 -20 117 -33 180 -14 63 -33 148 -42 189 -9 41 -18 78 -20 81 -3 4
-16 61 -29 126 -14 66 -31 157 -40 204 -8 47 -22 135 -31 195 -9 61 -25 151
-35 200 -11 50 -23 106 -28 125 -6 19 -17 60 -25 90 -9 30 -32 100 -51 155
-19 55 -47 141 -62 190 -15 50 -31 97 -35 105 -5 8 -18 51 -30 95 -12 44 -26
86 -31 93 -6 6 -21 12 -34 12 -14 0 -25 -8 -29 -20 -4 -12 -4 -39 0 -60 4 -22
15 -50 24 -62 10 -13 27 -52 39 -88 12 -36 53 -162 91 -280 39 -118 82 -264
97 -325 14 -60 32 -153 39 -205 8 -52 23 -159 34 -238 12 -79 25 -151 29 -160
5 -9 16 -51 25 -92 9 -41 21 -95 26 -120 5 -25 21 -88 35 -140 15 -52 33 -142
42 -200 8 -58 22 -157 30 -220 8 -63 19 -162 23 -220 4 -58 6 -161 4 -230 -1
-69 -7 -170 -13 -225 -5 -55 -19 -188 -30 -295 -11 -107 -24 -269 -30 -360 -5
-91 -12 -181 -15 -200 -3 -19 -9 -100 -15 -180 -5 -80 -14 -210 -20 -290 -5
-80 -12 -163 -15 -185 -3 -22 -12 -112 -21 -200 -8 -88 -19 -185 -24 -215 -5
-30 -13 -77 -18 -105 -5 -27 -17 -81 -27 -120 -9 -38 -28 -113 -41 -165 -13
-52 -31 -124 -40 -160 -9 -36 -25 -81 -34 -100 -10 -19 -27 -67 -39 -106 -11
-39 -30 -79 -41 -89 -11 -10 -20 -23 -20 -29 0 -6 -14 -38 -31 -71 -17 -33
-54 -105 -81 -160 -28 -55 -61 -114 -74 -132 -13 -17 -24 -34 -24 -37 0 -3
-13 -25 -30 -49 -16 -25 -30 -49 -30 -54 0 -6 -9 -18 -20 -28 -11 -10 -20 -24
-20 -31 0 -7 -23 -39 -51 -71 -28 -32 -58 -71 -66 -88 -9 -16 -33 -50 -55 -75
-22 -25 -50 -58 -61 -73 -12 -15 -43 -51 -68 -80 -25 -29 -80 -95 -121 -148
-42 -53 -83 -109 -91 -125 -8 -16 -25 -38 -37 -49 -11 -10 -44 -51 -73 -90
-28 -38 -54 -72 -57 -75 -4 -3 -33 -36 -65 -75 -32 -38 -61 -72 -65 -75 -3 -3
-44 -48 -91 -100 -46 -52 -138 -148 -203 -212 -66 -65 -123 -118 -127 -118 -4
0 -29 -20 -56 -45 -26 -24 -51 -45 -55 -45 -3 0 -20 -12 -37 -27 -16 -16 -45
-40 -64 -55 -18 -15 -47 -33 -63 -40 -16 -7 -47 -27 -68 -45 -22 -18 -44 -33
-48 -33 -5 0 -29 -15 -53 -32 -24 -18 -59 -43 -77 -56 -18 -12 -56 -37 -83
-55 -28 -17 -60 -38 -70 -45 -11 -6 -31 -18 -45 -24 -14 -7 -27 -15 -30 -19
-3 -3 -26 -18 -51 -32 -25 -15 -50 -27 -54 -27 -5 0 48 57 116 128 69 70 142
150 164 177 21 28 44 55 49 60 6 6 38 42 71 80 33 39 79 95 101 125 22 30 47
65 55 76 8 12 41 57 73 100 33 44 69 93 81 109 12 17 29 44 38 62 9 17 23 37
30 45 7 7 35 47 63 88 27 41 51 80 53 85 2 6 21 36 43 67 21 31 38 59 38 62 0
2 19 33 42 68 23 35 73 123 111 197 38 73 84 172 103 220 20 47 47 118 61 156
13 39 41 117 60 175 19 58 50 166 70 240 19 74 43 182 54 240 11 58 24 128 29
155 5 28 17 104 25 170 12 88 15 163 10 283 -3 90 -10 185 -16 210 -6 26 -11
63 -10 82 0 19 -4 76 -10 125 -6 50 -9 178 -8 285 1 107 1 252 1 321 -1 69 -8
168 -17 220 -8 52 -26 144 -40 204 -14 61 -30 134 -35 163 -5 29 -12 57 -15
62 -3 5 -8 22 -10 37 -2 16 -8 53 -14 83 -6 30 -29 165 -52 300 -23 135 -45
265 -50 290 -4 25 -15 88 -23 140 -9 52 -20 115 -25 140 -5 25 -24 108 -41
185 -18 77 -38 174 -46 215 -8 41 -20 133 -29 203 -8 71 -24 179 -36 240 -11
62 -27 146 -34 187 -8 41 -24 109 -36 150 -12 41 -25 84 -30 95 -4 11 -22 67
-38 125 -17 58 -36 121 -41 140 -5 19 -16 58 -24 85 -8 28 -20 66 -27 85 -7
19 -19 50 -26 68 -8 18 -27 70 -43 115 -16 45 -40 107 -54 137 -14 30 -26 64
-26 76 0 14 -12 26 -41 38 -34 15 -43 16 -50 5 -5 -8 -9 -22 -9 -32 0 -10 10
-33 23 -50 13 -18 35 -63 50 -102 14 -38 47 -124 73 -190 25 -66 62 -176 81
-244 18 -69 52 -178 73 -243 22 -65 49 -155 60 -199 12 -45 30 -132 41 -193
11 -61 27 -165 34 -231 8 -66 22 -160 31 -210 8 -49 26 -139 40 -200 13 -60
29 -129 34 -152 6 -24 14 -62 19 -85 5 -24 17 -88 26 -143 10 -55 23 -130 31
-167 8 -37 14 -83 14 -103 0 -20 5 -46 12 -58 6 -12 15 -56 19 -97 4 -41 15
-118 23 -170 8 -52 20 -124 25 -160 6 -36 15 -81 21 -100 6 -19 26 -113 46
-209 19 -95 36 -177 39 -181 2 -3 9 -37 15 -75 6 -37 13 -131 15 -209 3 -78 1
-193 -4 -256 -5 -77 -3 -169 5 -280 8 -91 18 -199 24 -240 6 -41 13 -149 15
-240 3 -91 0 -205 -5 -255 -6 -49 -14 -106 -19 -125 -6 -19 -17 -84 -27 -145
-9 -60 -27 -146 -40 -190 -12 -44 -26 -100 -29 -125 -4 -25 -22 -92 -41 -150
-18 -58 -48 -148 -67 -200 -18 -52 -40 -111 -49 -130 -9 -19 -29 -64 -43 -100
-15 -36 -31 -69 -35 -75 -4 -5 -11 -25 -15 -43 -3 -18 -12 -38 -20 -45 -7 -7
-27 -42 -46 -78 -18 -35 -56 -100 -84 -144 -29 -44 -64 -101 -77 -126 -14 -25
-44 -70 -67 -100 -22 -30 -41 -58 -41 -62 0 -5 -11 -23 -25 -41 -14 -18 -25
-36 -25 -39 0 -4 -16 -28 -35 -54 -19 -27 -39 -53 -44 -59 -5 -6 -36 -48 -70
-95 -34 -46 -74 -101 -89 -122 -15 -21 -38 -51 -52 -67 -14 -15 -45 -54 -70
-86 -25 -32 -97 -117 -160 -189 -63 -72 -146 -160 -184 -195 -37 -36 -78 -71
-90 -79 -11 -8 -23 -17 -26 -20 -3 -3 -39 -35 -80 -71 -41 -36 -118 -98 -170
-136 -52 -39 -109 -79 -125 -88 -17 -9 -39 -22 -50 -29 -11 -6 -43 -25 -70
-42 -28 -16 -59 -35 -70 -42 -11 -7 -55 -33 -97 -58 -42 -25 -83 -45 -90 -45
-8 0 -38 -18 -68 -41 -29 -22 -68 -47 -84 -55 -17 -7 -47 -23 -66 -35 -19 -12
-55 -29 -80 -39 -25 -10 -81 -34 -125 -55 -44 -20 -98 -45 -120 -55 -22 -11
-60 -28 -85 -39 -25 -11 -52 -24 -60 -29 -8 -5 -42 -21 -75 -37 -33 -15 -82
-39 -110 -53 -27 -13 -73 -40 -102 -58 -28 -19 -54 -34 -58 -34 -3 0 -11 -4
-18 -10 -7 -5 -33 -25 -58 -44 -25 -18 -94 -57 -153 -86 -59 -28 -110 -49
-113 -46 -3 3 10 13 31 21 20 9 45 24 55 34 11 11 30 25 43 32 13 7 61 44 106
83 46 39 93 76 105 83 11 6 44 35 71 62 28 28 83 76 121 107 39 30 140 121
225 203 85 81 182 173 216 204 33 31 64 57 67 57 4 0 36 30 72 67 36 36 65 69
65 73 0 4 69 77 153 162 83 86 168 177 187 202 19 25 53 68 74 94 21 26 43 49
47 50 5 2 9 8 9 13 0 5 20 35 44 66 23 32 50 72 59 88 8 17 24 48 36 70 11 22
47 90 80 150 33 61 80 151 104 200 25 50 51 106 60 125 8 19 29 64 45 100 17
36 42 97 57 135 14 39 44 110 66 158 21 48 39 92 39 98 0 6 14 40 31 77 17 37
37 81 45 97 8 17 25 61 38 99 13 37 29 73 35 79 6 6 11 19 11 29 0 9 6 32 14
50 8 18 21 49 30 69 8 19 27 73 41 120 14 46 35 113 45 149 11 36 31 117 46
180 14 63 34 162 44 220 10 58 31 186 48 285 17 99 34 227 37 285 3 58 8 112
10 120 2 8 9 112 15 230 6 118 15 253 20 300 6 47 12 114 15 150 2 36 7 144
11 240 3 96 1 288 -6 425 -6 138 -13 275 -15 305 -2 30 -6 84 -10 120 -3 36
-19 142 -35 235 -16 94 -38 199 -49 235 -11 36 -32 126 -46 200 -14 74 -30
151 -34 170 -5 19 -14 67 -21 105 -6 39 -17 102 -25 140 -7 39 -19 97 -25 130
-6 33 -13 71 -16 85 -2 14 -16 72 -30 130 -14 58 -29 114 -34 125 -5 11 -14
52 -20 90 -6 39 -15 93 -21 120 -5 28 -14 70 -20 95 -6 25 -16 79 -24 120 -7
41 -18 95 -25 120 -6 25 -20 71 -31 104 -10 32 -26 93 -35 135 -9 42 -20 94
-24 116 -5 22 -20 74 -34 115 -14 41 -37 98 -50 125 -13 28 -35 75 -49 105
-14 30 -35 91 -47 135 -12 44 -42 119 -66 168 -32 63 -44 99 -44 131 0 29 -7
52 -21 70 -12 15 -30 26 -44 26z m323 -8510 c2 0 0 -4 -3 -10 -3 -5 -12 -10
-18 -10 -7 0 -6 4 3 10 8 5 16 10 18 10z"/>
</g>
<g>
<path d="M4478 18460 c-32 0 -40 -5 -53 -30 -8 -16 -15 -39 -15 -52 0 -13 4
-28 8 -34 4 -6 17 -16 29 -23 12 -6 28 -11 35 -11 7 0 28 14 46 31 20 18 32
40 32 55 0 15 -10 34 -22 45 -13 10 -39 18 -60 19z"/>
</g>
<g>
<path d="M5316 17090 c-16 0 -31 -9 -41 -24 -9 -13 -20 -39 -25 -57 -6 -19
-10 -37 -10 -41 0 -3 7 -14 16 -22 8 -9 28 -16 43 -16 16 0 40 9 55 21 22 17
26 28 26 69 0 39 -4 52 -19 60 -11 5 -31 10 -45 10z"/>
</g>
<g>
<path d="M6265 15610 c-7 0 -24 -14 -40 -32 -19 -21 -28 -41 -27 -62 0 -19 9
-38 23 -48 11 -10 32 -18 45 -18 14 0 30 10 40 25 12 18 15 38 11 67 -3 23
-14 48 -23 55 -10 7 -23 13 -29 13z"/>
</g>
<g>
<path d="M6908 14845 c-8 3 -24 -5 -37 -19 -16 -17 -22 -33 -19 -57 3 -32 6
-34 43 -37 39 -3 40 -2 52 37 7 22 10 47 7 55 -3 9 -12 16 -19 16 -7 0 -20 2
-27 5z"/>
</g>
<g>
<path d="M1304 14790 c-5 0 -22 -12 -35 -27 -14 -16 -35 -45 -47 -65 -11 -20
-25 -53 -31 -73 -6 -23 -6 -47 0 -70 6 -20 18 -41 28 -47 17 -10 17 -14 4 -47
-9 -21 -13 -52 -10 -77 3 -30 -1 -47 -15 -65 -10 -13 -27 -44 -38 -68 -11 -24
-20 -51 -20 -61 0 -9 -10 -25 -21 -36 -12 -10 -39 -45 -60 -77 -28 -42 -39
-69 -39 -96 0 -20 9 -54 20 -76 l20 -39 -45 -57 c-25 -32 -45 -66 -45 -76 0
-10 -7 -27 -15 -37 -8 -11 -15 -30 -15 -42 0 -13 -4 -26 -10 -29 -5 -3 -10
-18 -10 -33 0 -15 7 -40 15 -55 12 -24 13 -32 2 -48 -7 -10 -25 -27 -39 -38
-14 -11 -31 -35 -38 -53 -7 -18 -23 -55 -36 -83 -15 -31 -24 -71 -25 -105 -1
-30 1 -65 5 -77 5 -15 -1 -34 -21 -64 -20 -31 -28 -57 -31 -103 -2 -39 2 -77
12 -106 16 -45 15 -45 -14 -87 -17 -23 -30 -48 -30 -57 0 -8 -4 -18 -10 -21
-6 -3 -10 -30 -10 -58 0 -29 5 -68 10 -88 5 -19 23 -49 40 -66 22 -22 43 -32
79 -37 l49 -6 -49 -92 c-27 -51 -49 -100 -49 -109 0 -9 -6 -22 -13 -28 -8 -6
-19 -30 -26 -53 -7 -23 -13 -64 -13 -90 1 -29 8 -62 19 -81 11 -19 30 -34 48
-38 17 -4 41 -9 55 -13 20 -4 28 -15 38 -50 7 -29 21 -51 37 -62 17 -11 35
-14 58 -10 18 3 66 22 106 41 41 20 76 34 78 31 2 -2 -12 -39 -32 -83 -21 -43
-52 -115 -71 -160 -19 -45 -34 -89 -34 -98 0 -9 -7 -27 -16 -41 -13 -19 -15
-37 -10 -82 4 -31 11 -61 16 -66 4 -4 31 -8 58 -8 27 0 67 7 88 17 21 9 55 24
74 33 19 9 63 36 98 60 35 24 65 42 67 40 3 -2 7 -47 11 -99 3 -52 12 -116 21
-143 10 -31 22 -50 35 -54 13 -3 17 -10 13 -21 -4 -9 -16 -41 -27 -71 -12 -33
-20 -84 -21 -127 -1 -59 2 -77 19 -100 12 -15 38 -40 60 -56 25 -17 64 -32
109 -40 l70 -12 0 -61 c1 -48 7 -70 29 -109 16 -27 48 -74 72 -104 23 -31 57
-71 76 -88 18 -18 56 -39 83 -48 28 -8 76 -17 108 -21 31 -4 57 -8 57 -10 0
-1 -18 -32 -40 -67 -22 -35 -54 -102 -71 -148 -22 -60 -30 -96 -26 -125 2 -23
18 -63 37 -91 20 -31 48 -57 74 -71 22 -11 61 -26 85 -32 24 -6 94 -12 157
-13 63 -1 114 -5 114 -9 0 -3 -3 -8 -8 -10 -4 -1 -26 -27 -50 -57 -24 -30 -74
-119 -112 -197 -38 -78 -79 -175 -90 -215 -11 -41 -20 -82 -20 -92 0 -10 6
-19 13 -21 6 -3 39 -12 72 -22 33 -9 74 -24 90 -33 17 -9 62 -48 100 -87 54
-54 82 -74 118 -84 26 -8 47 -18 47 -22 0 -3 -15 -17 -32 -29 -18 -13 -61 -48
-96 -78 -34 -30 -90 -88 -123 -129 -33 -41 -69 -93 -80 -115 -11 -26 -19 -65
-19 -102 0 -33 5 -78 11 -100 6 -22 22 -54 35 -72 13 -17 24 -38 24 -46 0 -8
10 -21 23 -30 12 -8 31 -23 42 -34 11 -10 37 -29 58 -42 20 -12 37 -26 37 -30
0 -5 -19 -21 -42 -36 -24 -16 -77 -61 -118 -101 -44 -43 -87 -96 -104 -129
-27 -52 -28 -60 -20 -118 l9 -62 45 -14 c25 -7 52 -17 60 -21 9 -4 43 -13 75
-20 33 -6 88 -18 122 -26 34 -8 78 -21 98 -30 20 -8 71 -21 114 -29 42 -8 88
-15 102 -14 13 0 76 -2 139 -6 63 -4 122 -7 130 -6 8 0 105 3 215 6 110 3 268
7 350 9 83 2 179 9 215 15 36 7 71 17 77 23 7 6 13 21 13 33 0 12 -7 28 -16
35 -12 11 -29 10 -91 -5 -55 -12 -126 -18 -252 -20 -97 -2 -255 -6 -351 -9
-96 -3 -245 -2 -330 2 -105 6 -182 16 -240 31 -47 12 -107 28 -135 36 -27 7
-95 24 -150 37 -96 22 -100 24 -109 55 -7 26 -4 41 17 80 14 26 55 78 91 115
37 37 91 81 121 98 l54 31 83 -39 c46 -22 99 -44 118 -50 19 -6 73 -18 120
-26 47 -9 103 -18 125 -22 22 -3 105 -9 185 -13 80 -3 151 -10 158 -15 7 -4
84 -8 170 -8 86 0 202 5 257 11 55 6 125 16 155 22 30 6 89 20 130 29 41 10
121 30 177 44 56 14 116 26 133 26 17 0 61 7 98 16 37 9 76 20 87 25 11 5 81
25 155 44 108 29 169 53 305 121 135 67 183 96 229 140 57 54 58 57 52 97 -4
25 -15 50 -29 61 -12 10 -53 34 -92 51 -38 18 -115 43 -170 55 -55 13 -122 25
-150 28 -27 3 -140 -1 -250 -7 -110 -6 -254 -13 -320 -15 -66 -2 -185 -9 -265
-15 -80 -7 -187 -16 -239 -22 -51 -5 -117 -16 -145 -25 -28 -8 -67 -19 -86
-24 -19 -5 -73 -19 -120 -30 -47 -12 -116 -33 -155 -47 -38 -14 -74 -26 -80
-27 -5 -2 -17 -5 -25 -8 -8 -3 -49 -15 -90 -27 -41 -12 -76 -26 -78 -31 -2 -6
-13 -10 -24 -10 -11 0 -33 -7 -49 -15 -16 -8 -41 -21 -56 -29 -16 -8 -50 -26
-77 -40 -27 -14 -54 -26 -59 -26 -6 0 -25 -11 -43 -25 -18 -14 -36 -25 -41
-25 -5 0 -26 -12 -47 -26 -29 -20 -45 -25 -68 -20 -17 3 -46 18 -65 33 -19 16
-48 42 -65 58 -17 17 -37 44 -45 60 -8 17 -21 41 -28 55 -8 14 -15 43 -15 65
0 22 6 58 13 81 6 22 28 60 47 84 19 24 50 60 68 80 17 21 32 42 32 48 0 5 8
12 18 16 9 3 36 20 59 38 23 18 62 50 87 72 45 38 46 38 98 28 29 -6 98 -22
153 -36 96 -25 110 -26 353 -25 139 1 274 6 300 11 26 4 63 10 82 12 19 2 89
9 155 16 66 6 122 13 125 15 3 2 50 8 105 14 55 6 132 16 170 22 39 6 97 16
130 24 33 7 101 21 150 30 50 9 110 21 135 27 25 5 90 23 145 40 55 16 114 35
130 42 17 7 83 38 147 69 65 32 124 57 133 57 8 0 15 4 15 9 0 5 10 11 23 15
13 3 51 31 85 62 34 31 73 75 87 98 21 36 24 50 18 96 -5 44 -13 62 -42 92
-25 26 -57 46 -104 63 -37 13 -104 29 -148 35 -45 6 -129 10 -188 9 -58 -1
-168 -10 -243 -20 -79 -10 -184 -32 -250 -52 -62 -19 -144 -42 -183 -52 -38
-9 -90 -20 -115 -25 -25 -4 -83 -17 -130 -29 -47 -12 -101 -27 -120 -33 -19
-6 -51 -17 -70 -24 -19 -7 -82 -28 -140 -46 -58 -17 -109 -32 -115 -33 -5 0
-19 -5 -30 -11 -11 -6 -47 -18 -80 -27 -33 -9 -82 -28 -109 -42 -27 -14 -55
-25 -63 -25 -7 0 -21 -4 -31 -10 -9 -5 -87 -39 -172 -76 -85 -37 -177 -80
-203 -96 -27 -16 -76 -47 -110 -69 -57 -38 -63 -40 -102 -30 -22 6 -56 17 -75
25 -19 8 -69 46 -111 83 -42 37 -94 74 -115 82 -22 8 -49 21 -61 29 -14 9 -23
24 -23 41 0 14 18 69 41 121 22 52 45 102 50 110 5 8 23 41 40 72 17 31 50 79
73 106 22 27 50 61 61 76 11 15 29 27 40 27 11 0 79 -4 150 -9 72 -5 231 -5
355 -1 124 5 239 10 255 13 17 2 62 7 100 10 39 4 84 8 100 11 17 2 66 9 110
15 44 6 105 16 135 22 30 7 57 14 60 17 3 3 21 13 40 22 19 9 86 36 149 59 62
23 152 49 199 57 48 8 109 23 137 34 27 10 55 19 62 19 7 0 54 20 105 45 51
25 97 45 103 45 5 0 58 21 117 47 90 39 119 57 176 112 37 36 79 82 93 101 13
19 30 45 36 59 7 13 13 52 13 87 0 59 -2 64 -32 88 -18 13 -53 32 -77 42 -37
14 -62 16 -175 10 -72 -4 -151 -11 -176 -16 -25 -5 -79 -14 -120 -20 -41 -6
-109 -18 -150 -26 -41 -9 -118 -27 -170 -41 -52 -14 -113 -31 -135 -38 -22 -7
-60 -16 -85 -20 -25 -4 -52 -9 -60 -10 -8 -1 -35 -6 -60 -10 -25 -3 -90 -21
-145 -38 -55 -17 -102 -34 -105 -37 -3 -4 -31 -15 -63 -25 -33 -10 -65 -24
-72 -31 -7 -7 -15 -10 -19 -7 -3 4 -16 1 -29 -5 -12 -6 -52 -22 -88 -36 -36
-15 -69 -26 -72 -26 -4 0 -30 -11 -59 -25 -28 -14 -56 -25 -62 -25 -6 0 -82
-36 -171 -80 -88 -43 -182 -97 -209 -120 -26 -22 -52 -40 -56 -40 -4 0 -43
-35 -86 -77 l-79 -78 -145 0 c-137 1 -148 2 -195 27 -27 14 -62 39 -76 55 -15
15 -29 41 -33 56 -4 17 1 53 14 95 12 37 30 81 40 97 11 17 31 50 44 75 14 25
33 55 43 67 17 20 29 22 168 26 83 2 164 9 180 15 17 6 62 16 100 21 39 6 100
15 137 21 37 6 91 17 120 26 29 9 107 37 173 64 66 26 136 53 155 61 19 7 60
23 90 37 30 13 69 29 85 37 17 7 59 25 95 41 36 16 72 35 80 43 8 8 37 24 65
36 27 13 78 36 112 52 33 17 74 34 89 37 16 4 53 19 84 33 30 14 105 48 165
76 61 29 147 73 191 99 45 26 106 70 135 97 44 39 59 62 78 117 13 37 23 86
23 108 -1 22 -9 47 -17 55 -9 10 -43 16 -100 19 -55 3 -120 -1 -183 -12 -53
-10 -115 -22 -137 -27 -22 -5 -67 -13 -100 -19 -33 -5 -98 -14 -145 -20 -47
-5 -100 -12 -118 -15 -19 -3 -55 -12 -80 -21 -26 -8 -63 -24 -82 -34 -19 -10
-82 -33 -140 -50 -58 -18 -109 -36 -114 -41 -6 -5 -17 -9 -25 -9 -9 0 -70 -33
-136 -73 -66 -40 -141 -88 -167 -107 -27 -19 -48 -37 -48 -42 0 -4 -4 -8 -10
-8 -5 0 -33 -16 -62 -35 -29 -19 -64 -43 -78 -52 -14 -9 -69 -46 -122 -82 -54
-36 -110 -75 -125 -86 -16 -11 -57 -42 -93 -69 -36 -27 -96 -77 -135 -110 -38
-33 -87 -77 -108 -99 l-37 -38 -73 7 c-39 4 -95 15 -122 25 -45 17 -59 30
-122 114 -54 71 -73 105 -78 138 -4 23 -5 58 -3 76 2 19 10 37 18 41 8 4 38
15 65 23 28 9 70 23 95 32 25 8 54 20 65 25 11 5 78 32 149 60 71 28 147 60
170 72 22 11 43 24 46 29 3 5 22 15 42 23 20 9 39 20 43 25 3 5 18 16 34 24
16 8 64 41 106 73 42 33 84 64 93 69 10 6 19 12 22 15 3 3 25 21 50 40 25 19
47 37 50 40 3 4 46 36 95 73 50 36 108 86 131 109 22 24 68 75 101 113 33 39
81 101 107 138 36 53 46 77 46 109 0 24 -8 51 -20 68 -16 23 -35 31 -115 50
-81 19 -112 21 -198 16 -56 -4 -124 -14 -152 -23 -27 -8 -66 -23 -85 -32 -19
-9 -63 -36 -96 -61 -34 -25 -98 -71 -143 -104 -45 -32 -120 -101 -168 -155
-48 -53 -108 -118 -133 -146 -26 -27 -64 -70 -86 -95 -21 -25 -63 -73 -94
-106 -30 -34 -72 -81 -92 -105 -20 -24 -52 -65 -72 -92 -20 -26 -36 -52 -36
-57 0 -6 -9 -23 -21 -39 -11 -15 -31 -57 -43 -92 -21 -58 -27 -64 -54 -67 -17
-2 -52 3 -79 11 -36 10 -56 24 -80 55 -27 36 -30 47 -26 84 3 24 16 81 29 126
12 46 30 92 40 103 9 10 22 19 29 19 7 0 53 36 104 80 51 43 138 121 194 172
56 51 133 123 172 159 38 36 110 103 159 150 49 46 102 98 118 114 16 17 36
44 45 60 8 17 22 37 30 46 9 11 16 52 19 120 6 97 4 107 -19 149 -21 39 -28
45 -55 44 -18 -1 -47 -15 -69 -32 -21 -17 -102 -95 -180 -174 -78 -78 -152
-156 -165 -173 -14 -16 -47 -59 -75 -95 -27 -36 -63 -85 -79 -109 -16 -24 -33
-51 -39 -59 -5 -9 -14 -21 -18 -26 -5 -6 -22 -33 -37 -61 -16 -27 -44 -80 -63
-116 -18 -36 -43 -80 -55 -96 -12 -17 -22 -36 -22 -42 0 -6 -8 -26 -17 -46 -9
-19 -22 -35 -29 -35 -6 0 -18 10 -27 23 -9 13 -16 53 -18 97 -1 41 -2 98 -1
125 2 44 8 56 48 100 25 28 67 73 94 102 27 28 57 64 67 80 10 15 33 44 51 63
19 19 50 59 70 88 20 30 44 64 52 76 8 12 24 37 35 55 11 18 30 49 42 67 13
19 32 56 43 82 12 26 25 56 30 67 5 11 16 41 25 67 8 25 16 78 17 116 1 46 -3
76 -11 86 -8 9 -25 16 -38 16 -16 0 -43 -18 -79 -52 -30 -29 -77 -84 -104
-123 -27 -38 -66 -99 -86 -135 -20 -36 -49 -83 -64 -105 -15 -22 -47 -76 -70
-120 -24 -44 -58 -108 -76 -142 -18 -34 -49 -103 -69 -154 -21 -50 -40 -112
-44 -137 -5 -41 -13 -51 -66 -95 -33 -26 -95 -66 -139 -88 -43 -21 -87 -39
-97 -39 -12 0 -24 11 -30 27 -7 19 -6 42 2 77 6 28 18 65 25 81 7 17 16 42 19
58 4 15 11 30 16 33 5 3 9 12 9 21 0 9 27 72 60 140 33 67 60 126 60 131 1 4
24 25 52 47 28 22 87 80 132 128 44 48 84 94 89 102 4 8 19 27 33 42 13 14 24
30 24 36 0 5 13 26 28 46 16 20 40 59 54 86 14 28 30 66 36 85 6 19 14 53 18
76 4 29 1 50 -11 74 -15 30 -20 32 -52 27 -20 -4 -49 -19 -65 -34 -17 -15 -58
-71 -93 -123 -35 -52 -90 -151 -123 -220 -32 -69 -66 -141 -75 -160 -8 -19
-27 -60 -40 -90 -17 -39 -41 -69 -78 -101 -30 -24 -82 -59 -117 -78 -38 -19
-73 -31 -90 -29 -24 3 -27 7 -27 38 0 29 5 37 30 50 17 8 57 34 90 56 33 23
85 68 115 101 30 33 61 69 67 79 7 10 35 51 62 89 28 39 73 115 101 170 46 87
51 105 47 144 -3 24 -11 47 -18 52 -8 4 -25 5 -39 2 -14 -3 -32 -11 -41 -17
-9 -6 -31 -25 -50 -41 -19 -17 -61 -62 -94 -102 -33 -40 -79 -96 -102 -125
-22 -29 -71 -97 -107 -150 -37 -54 -80 -127 -97 -162 -17 -35 -36 -67 -44 -70
-7 -2 -29 -1 -48 5 -31 8 -35 14 -40 50 -3 23 1 66 9 97 8 32 33 95 56 142 22
47 51 98 64 113 13 16 24 34 24 41 0 7 15 26 33 44 18 18 37 32 41 32 4 0 25
14 46 30 21 17 42 30 48 30 5 0 42 34 81 76 48 52 74 88 81 116 6 22 9 46 6
54 -3 8 -14 14 -24 14 -11 0 -37 -13 -58 -29 -21 -16 -64 -53 -94 -82 -30 -30
-73 -76 -95 -103 -22 -27 -42 -53 -44 -58 -1 -5 -20 -20 -42 -34 -26 -16 -53
-24 -84 -24 -36 0 -48 5 -60 24 -9 13 -18 40 -22 59 -3 21 2 55 12 86 9 29 29
65 43 80 22 23 38 30 84 34 37 4 80 17 120 38 35 18 80 47 101 64 21 16 56 47
77 68 28 27 40 47 40 67 0 16 -5 32 -10 35 -6 4 -27 1 -48 -5 -20 -6 -46 -15
-57 -20 -11 -5 -56 -25 -100 -46 -44 -20 -93 -46 -110 -58 -16 -11 -40 -29
-53 -40 -17 -15 -25 -17 -34 -8 -6 6 -11 34 -11 62 1 40 9 62 38 105 29 44 49
61 98 86 34 17 82 41 106 55 24 13 64 38 88 56 24 18 57 44 74 56 16 13 29 32
29 42 0 10 -5 22 -10 25 -6 4 -30 -3 -53 -14 -23 -12 -65 -34 -94 -50 -28 -15
-83 -49 -122 -76 -45 -31 -76 -45 -86 -41 -14 5 -16 15 -11 54 4 26 20 72 36
103 15 31 43 72 62 91 18 19 47 40 63 46 17 5 52 15 80 22 27 6 83 27 124 46
40 19 79 34 86 34 7 0 24 11 38 24 17 15 24 31 21 40 -3 9 -14 16 -23 16 -9 0
-39 -8 -66 -19 -28 -10 -66 -25 -85 -34 -19 -9 -68 -26 -108 -37 -40 -12 -79
-19 -87 -16 -10 4 -15 20 -15 49 0 24 5 59 12 78 6 19 22 47 35 62 12 16 23
35 23 42 0 7 15 23 34 34 18 12 55 23 82 26 27 2 75 7 107 11 51 5 57 8 57 29
0 14 -7 26 -18 29 -9 3 -60 5 -113 3 -69 -1 -100 2 -112 12 -10 7 -17 27 -17
44 0 17 12 48 26 69 15 21 36 40 48 42 12 3 48 8 81 13 55 7 60 10 60 33 0 22
-5 25 -43 28 -25 2 -45 9 -48 17 -3 8 2 32 12 55 11 25 25 40 35 40 10 0 25
10 33 22 9 12 16 26 16 30 0 3 -7 14 -16 23 -15 14 -15 23 -5 71 11 48 16 55
43 62 17 4 36 15 41 24 6 8 7 23 4 32 -5 12 -20 16 -62 16 l-55 0 0 44 c0 33
7 52 26 75 14 17 32 31 39 31 7 0 15 7 19 15 3 8 2 23 -1 33 -4 9 -11 20 -17
24 -6 4 -16 8 -22 8z m-198 -1820 c8 0 13 -4 10 -9 -3 -5 -36 -29 -73 -55 -38
-25 -87 -49 -110 -54 -33 -8 -40 -7 -36 4 3 7 13 16 24 19 10 4 19 10 19 15 0
5 25 21 55 35 31 14 62 25 70 25 7 0 17 5 20 10 3 6 13 10 21 10z m557 -330
c10 0 17 -3 17 -7 0 -4 -7 -36 -16 -72 -9 -36 -34 -93 -55 -126 -21 -33 -58
-87 -81 -119 -24 -33 -71 -90 -105 -128 -47 -51 -63 -63 -63 -48 0 11 4 28 9
38 5 9 41 83 81 164 39 80 80 154 91 164 10 9 19 22 19 28 0 6 20 33 43 59 24
26 51 47 60 47z m-250 -49 c7 -7 -5 -39 -38 -103 -26 -51 -53 -100 -60 -108
-7 -8 -21 -31 -31 -51 -11 -20 -51 -76 -90 -123 -39 -47 -99 -107 -133 -132
-35 -25 -65 -44 -67 -42 -2 2 1 22 7 43 6 22 24 59 40 82 16 23 29 46 29 51 0
5 8 16 17 23 9 8 48 56 87 107 39 52 81 107 92 123 12 15 47 54 79 84 40 39
61 53 68 46z m575 -108 c2 -14 -1 -46 -8 -70 -6 -25 -38 -101 -72 -171 -34
-70 -66 -128 -70 -130 -4 -2 -8 -8 -8 -13 0 -5 -25 -47 -56 -94 -31 -47 -60
-87 -65 -91 -5 -3 -34 -38 -63 -77 -30 -40 -75 -94 -101 -122 l-46 -50 6 38
c3 20 17 59 30 86 14 27 25 56 25 64 0 9 4 18 9 22 5 3 15 22 22 43 6 20 20
48 29 62 10 14 31 50 48 80 16 30 51 91 76 135 26 44 52 89 59 100 6 10 26 38
42 61 17 23 44 60 60 82 17 22 41 47 55 55 24 15 25 15 28 -10z m361 -213 c3
0 13 -7 23 -17 10 -9 18 -29 18 -44 0 -15 -5 -52 -10 -81 -6 -29 -21 -73 -33
-96 -13 -27 -94 -115 -207 -227 -102 -100 -254 -246 -339 -324 -84 -77 -157
-141 -162 -141 -5 0 16 48 47 108 30 59 79 145 108 192 28 47 69 112 90 144
21 33 62 84 90 115 28 31 119 123 201 205 83 81 155 152 160 157 6 4 12 8 14
9z m691 -315 c30 -2 69 -6 85 -9 17 -4 46 -12 65 -18 19 -6 38 -16 42 -21 3
-6 -3 -29 -14 -51 -11 -23 -38 -66 -60 -96 -21 -30 -80 -99 -130 -154 -51 -54
-117 -117 -147 -139 -31 -22 -58 -43 -61 -47 -3 -3 -27 -22 -54 -41 -26 -19
-61 -43 -76 -54 -16 -11 -72 -54 -127 -95 -54 -42 -120 -90 -148 -107 -27 -17
-91 -52 -141 -77 -50 -25 -96 -46 -103 -46 -7 0 -25 -6 -39 -14 -15 -8 -45
-21 -67 -29 -22 -9 -76 -29 -120 -45 -44 -16 -95 -33 -113 -36 -31 -7 -32 -7
-23 16 5 13 30 65 56 115 26 51 53 97 61 104 8 6 14 17 14 23 0 6 44 56 96
111 53 55 102 108 108 117 7 9 37 45 67 79 29 34 77 87 104 118 28 31 66 74
85 96 18 22 52 52 74 67 23 15 55 40 72 55 16 15 47 37 68 48 20 11 44 28 53
38 9 9 21 17 28 17 6 0 33 11 61 24 27 13 58 27 69 32 11 4 52 11 90 15 39 4
95 5 125 4z m1315 -571 c28 -1 63 -2 79 -3 28 -1 28 -1 21 -48 -3 -27 -20 -69
-37 -95 -16 -26 -57 -68 -91 -93 -33 -25 -67 -45 -74 -45 -7 0 -13 -4 -13 -9
0 -5 -65 -41 -143 -80 -79 -39 -151 -71 -160 -71 -8 0 -17 -4 -19 -8 -1 -4
-32 -18 -68 -31 -36 -12 -90 -34 -120 -47 -30 -14 -63 -30 -73 -35 -10 -6 -69
-36 -130 -67 -62 -31 -128 -63 -147 -71 -19 -8 -68 -29 -109 -48 -40 -18 -78
-33 -83 -33 -5 0 -48 -16 -96 -36 -48 -20 -100 -43 -117 -50 -16 -7 -71 -22
-122 -33 -50 -12 -103 -21 -116 -21 -13 0 -66 -9 -118 -19 -52 -11 -150 -23
-219 -26 l-125 -6 35 36 c19 20 66 62 105 93 38 31 79 65 89 74 11 10 38 30
60 45 23 15 43 31 46 34 3 3 66 46 140 96 74 49 173 115 220 146 47 31 103 70
125 86 22 16 63 41 92 55 28 14 55 26 59 26 4 0 26 9 48 20 23 10 83 33 135
50 52 17 115 41 140 54 25 14 69 31 96 39 28 9 64 18 80 22 17 3 71 12 120 19
50 7 158 27 240 44 83 17 161 32 175 34 14 2 48 3 75 2z m480 -760 c39 -2 87
-9 107 -15 21 -5 44 -19 53 -32 10 -15 13 -32 9 -57 -4 -19 -23 -57 -43 -84
-20 -27 -57 -71 -82 -97 -28 -28 -74 -59 -115 -79 -38 -17 -80 -37 -94 -44
-14 -8 -43 -19 -65 -26 -22 -7 -78 -30 -124 -51 -46 -22 -113 -48 -150 -58
-36 -11 -93 -25 -126 -30 -33 -6 -69 -13 -81 -15 -11 -2 -40 -13 -65 -23 -24
-11 -87 -34 -139 -52 -52 -18 -124 -41 -160 -52 -36 -11 -116 -24 -179 -29
-63 -6 -123 -13 -135 -15 -12 -3 -55 -10 -96 -16 -41 -6 -158 -12 -260 -14
-102 -3 -245 -2 -317 2 -89 3 -133 9 -133 17 0 6 14 26 30 44 16 17 32 32 34
32 2 0 17 11 32 25 16 13 65 47 109 75 44 27 105 62 135 76 30 15 105 51 166
80 61 30 118 54 126 54 8 0 36 11 64 24 27 13 74 33 104 46 30 12 59 23 65 25
5 1 19 5 30 9 11 5 40 16 65 25 25 10 65 23 90 31 25 7 54 16 65 20 11 4 58
15 105 24 47 9 130 27 185 41 55 13 141 35 190 48 50 14 127 30 170 36 44 7
95 17 114 22 18 6 81 17 140 25 58 7 138 11 176 8z m115 -989 c124 -3 191 -9
230 -20 30 -9 59 -21 64 -26 6 -5 18 -9 27 -9 10 0 27 -12 38 -26 11 -14 23
-40 27 -58 4 -23 -1 -43 -17 -70 -12 -20 -41 -52 -64 -69 -23 -18 -62 -43 -86
-54 -24 -12 -100 -49 -169 -81 -69 -33 -161 -71 -205 -85 -44 -14 -109 -33
-145 -42 -35 -9 -103 -23 -150 -31 -47 -7 -103 -18 -125 -23 -22 -6 -61 -15
-87 -20 -26 -6 -89 -15 -140 -21 -51 -5 -116 -14 -145 -19 -28 -5 -84 -13
-125 -16 -40 -4 -76 -9 -79 -11 -4 -2 -44 -6 -90 -9 -46 -3 -106 -10 -134 -15
-27 -5 -158 -11 -290 -12 -235 -2 -243 -1 -357 27 -76 19 -118 34 -118 42 0 7
24 26 54 41 29 15 76 39 104 54 28 15 102 48 164 74 62 25 136 56 163 68 28
12 77 33 110 45 33 13 76 29 95 36 19 7 69 23 110 35 41 12 100 30 130 40 30
10 93 30 140 44 47 14 123 37 169 51 46 14 94 25 105 25 12 0 80 15 151 34 72
19 164 44 205 55 41 11 100 23 130 26 30 4 73 10 95 15 22 5 119 7 215 5z
m-195 -1027 c77 0 160 -3 185 -8 25 -4 79 -17 120 -28 41 -11 86 -26 100 -34
14 -7 37 -21 51 -31 20 -13 25 -24 22 -40 -3 -12 -17 -32 -31 -45 -14 -12 -82
-51 -149 -85 -68 -34 -138 -70 -156 -79 -18 -10 -50 -23 -72 -30 -22 -6 -50
-13 -63 -14 -12 -2 -47 -12 -77 -23 -29 -11 -97 -31 -150 -45 -53 -14 -132
-30 -177 -36 -45 -6 -151 -29 -237 -51 -86 -21 -169 -39 -185 -39 -16 0 -45
-4 -65 -9 -20 -5 -88 -14 -151 -20 -83 -8 -147 -8 -230 0 -63 6 -149 13 -190
14 -41 2 -151 13 -245 25 -93 12 -174 24 -179 27 -5 4 -22 7 -37 8 -15 2 -62
19 -103 40 -42 21 -76 40 -76 43 0 2 8 11 18 18 9 8 63 38 120 66 57 29 126
65 155 80 29 14 77 34 107 43 30 9 64 21 75 25 11 5 39 15 63 24 23 9 59 20
80 25 20 5 75 20 122 34 47 14 139 39 205 55 66 17 140 33 165 36 25 3 108 8
185 12 77 3 167 9 200 15 33 5 119 9 190 10 72 1 162 5 200 9 39 4 133 7 210
8z"/>
</g>
<g>
<path d="M13039 14137 c-15 3 -30 0 -34 -7 -4 -7 -1 -16 6 -21 8 -5 61 -27
117 -49 57 -22 116 -40 131 -40 15 0 32 -5 39 -12 8 -8 15 -8 27 2 16 13 15
15 -1 27 -10 7 -24 13 -31 13 -7 0 -30 10 -51 23 -20 13 -68 31 -107 41 -38
10 -82 21 -96 23z"/>
</g>
<g>
<path d="M13714 13909 c-16 0 -39 -7 -51 -16 -13 -8 -23 -22 -23 -29 0 -10 13
-14 44 -14 32 0 53 -7 73 -23 15 -13 36 -27 47 -30 10 -4 24 -2 32 4 7 6 10
17 7 25 -3 7 -27 30 -53 49 -29 21 -59 35 -76 34z"/>
</g>
<g>
<path d="M7432 13870 c-10 0 -28 -10 -40 -23 -12 -13 -22 -28 -22 -34 0 -5 8
-17 18 -26 10 -10 26 -17 35 -17 9 0 24 11 32 24 12 18 13 30 6 50 -6 15 -18
26 -29 26z"/>
</g>
<g>
<path d="M12815 13660 c-12 0 -25 -3 -28 -7 -4 -3 -7 -14 -7 -23 0 -11 31 -32
94 -63 52 -26 104 -47 115 -47 11 0 23 5 26 10 4 6 1 18 -6 27 -7 8 -37 26
-66 39 -28 13 -56 24 -61 24 -5 0 -17 9 -27 20 -10 11 -28 20 -40 20z"/>
</g>
<g>
<path d="M14222 13482 c-12 12 -22 16 -26 10 -4 -6 -1 -43 5 -82 9 -54 18 -75
36 -90 13 -10 32 -16 43 -13 11 3 20 7 20 9 0 1 -11 14 -24 29 -15 16 -25 42
-29 71 -3 27 -13 54 -25 66z"/>
</g>
<g>
<path d="M13184 13450 c-6 0 -14 -3 -17 -7 -4 -3 -7 -16 -7 -27 0 -13 24 -42
61 -76 34 -30 69 -58 78 -62 9 -4 24 -7 34 -7 9 -1 17 6 17 15 0 8 -35 49 -77
90 -43 40 -83 74 -89 74z"/>
</g>
<g>
<path d="M12686 13010 c-13 0 -29 -6 -35 -13 -8 -11 -5 -19 12 -34 12 -12 42
-30 66 -42 25 -12 52 -21 62 -21 9 0 21 6 27 13 6 7 9 23 5 35 -3 14 -13 22
-27 22 -11 0 -36 9 -54 20 -18 11 -43 20 -56 20z"/>
</g>
<g>
<path d="M13738 12930 c-26 0 -30 -3 -25 -22 3 -13 11 -39 19 -58 7 -19 27
-53 43 -74 17 -22 46 -57 65 -78 31 -35 37 -38 54 -25 16 12 17 17 6 38 -7 13
-26 40 -42 59 -15 19 -28 39 -28 46 0 6 -11 21 -24 34 -14 12 -28 35 -31 51
-6 24 -12 29 -37 29z"/>
</g>
<g>
<path d="M14518 12890 c-14 0 -18 -8 -18 -39 0 -24 8 -48 21 -65 12 -16 30
-26 46 -26 20 0 24 4 18 18 -4 9 -12 35 -17 57 -5 22 -14 43 -21 47 -7 4 -20
8 -29 8z"/>
</g>
<g>
<path d="M13120 12800 c-15 0 -20 -7 -20 -25 0 -13 14 -40 31 -60 17 -19 37
-35 43 -35 7 0 23 -11 36 -25 13 -14 29 -25 36 -25 7 0 18 8 23 18 6 11 6 24
0 35 -5 9 -29 28 -54 42 -24 14 -51 37 -59 50 -9 14 -25 25 -36 25z"/>
</g>
<g>
<path d="M12455 12460 c-18 0 -38 -7 -45 -15 -6 -8 -10 -22 -8 -31 2 -12 20
-22 53 -31 28 -7 63 -13 78 -13 24 0 28 4 25 22 -2 12 -18 33 -37 45 -19 13
-48 23 -66 23z"/>
</g>
<g>
<path d="M12701 12300 c-4 0 -11 -3 -14 -7 -4 -3 -7 -14 -7 -23 0 -10 17 -30
38 -46 20 -15 39 -31 42 -36 4 -4 20 -11 38 -14 18 -4 32 -2 32 3 0 5 -9 28
-20 50 -14 30 -30 45 -60 57 -22 9 -44 16 -49 16z"/>
</g>
<g>
<path d="M13534 12270 c-13 0 -27 -6 -30 -14 -3 -8 6 -41 19 -73 14 -32 33
-77 43 -100 12 -29 24 -43 36 -43 10 0 21 7 25 16 3 9 -4 50 -17 92 -13 43
-29 87 -37 100 -8 13 -23 22 -39 22z"/>
</g>
<g>
<path d="M14677 12240 c-13 0 -27 -3 -30 -7 -4 -3 -7 -17 -7 -29 0 -13 5 -26
10 -29 6 -4 8 -15 5 -25 -4 -13 1 -22 15 -30 17 -9 22 -7 29 12 5 13 8 39 6
58 -2 19 -3 38 -4 43 -1 4 -11 7 -24 7z"/>
</g>
<g>
<path d="M14181 12150 c-10 0 -12 -11 -7 -47 3 -27 8 -70 12 -98 3 -27 11 -61
18 -75 6 -14 20 -25 31 -25 18 0 20 7 22 65 1 36 -2 69 -7 75 -4 5 -8 22 -8
37 0 17 -9 35 -23 48 -13 10 -30 19 -38 20z"/>
</g>
<g>
<path d="M12975 12030 c-7 0 -15 -6 -18 -12 -2 -7 -1 -22 3 -33 4 -11 27 -41
50 -68 23 -26 51 -52 62 -58 16 -8 24 -7 36 4 13 14 11 21 -22 66 -20 27 -51
62 -67 76 -17 14 -36 25 -44 25z"/>
</g>
<g>
<path d="M12183 11975 c-26 3 -54 2 -60 -1 -7 -3 -13 -14 -13 -24 0 -11 9 -24
19 -30 11 -5 31 -10 45 -10 14 0 26 -4 26 -9 0 -5 8 -11 19 -14 10 -2 26 0 35
5 9 5 16 14 16 21 -1 7 -9 22 -20 35 -13 16 -33 24 -67 27z"/>
</g>
<g>
<path d="M12395 11770 c-7 0 -15 -3 -18 -7 -4 -3 -7 -14 -7 -24 0 -10 14 -38
30 -63 24 -34 35 -43 51 -39 11 3 23 12 26 19 2 7 -1 23 -7 36 -7 13 -24 35
-38 51 -14 15 -31 27 -37 27z"/>
</g>
<g>
<path d="M13725 11740 c-24 0 -25 -2 -24 -62 0 -35 4 -83 7 -107 4 -25 14 -49
24 -55 14 -8 21 -7 34 6 15 15 16 25 5 95 -7 43 -14 88 -17 101 -3 16 -11 22
-29 22z"/>
</g>
<g>
<path d="M14719 11630 c-5 0 -18 -9 -29 -20 -11 -11 -20 -30 -21 -42 0 -13 -2
-53 -3 -90 -2 -52 0 -68 12 -73 8 -3 17 -4 19 -1 3 2 13 44 24 91 10 48 16 98
13 111 -3 13 -10 24 -15 24z"/>
</g>
<g>
<path d="M13241 11580 c-3 0 -12 -4 -20 -9 -8 -5 -11 -17 -8 -27 3 -11 18 -48
33 -84 14 -36 32 -68 38 -72 6 -4 14 -8 18 -8 4 0 12 8 17 18 7 14 4 37 -13
87 -13 37 -31 74 -41 81 -10 8 -21 14 -24 14z"/>
</g>
<g>
<path d="M12533 11524 c-10 3 -24 2 -32 -3 -9 -6 -11 -18 -7 -35 3 -14 11 -26
16 -26 5 0 23 -14 40 -30 26 -25 34 -28 51 -19 16 8 19 17 14 37 -4 15 -11 29
-17 31 -6 2 -18 11 -28 21 -10 10 -26 21 -37 24z"/>
</g>
<g>
<path d="M11806 11450 c-29 0 -51 -6 -61 -17 -16 -16 -16 -18 3 -33 11 -10 42
-20 68 -24 29 -4 52 -2 60 5 8 6 14 15 14 20 0 5 -9 18 -20 29 -14 14 -33 20
-64 20z"/>
</g>
<g>
<path d="M14315 11306 c-5 2 -17 -1 -27 -6 -13 -8 -16 -25 -14 -100 1 -53 7
-95 14 -102 9 -9 17 -7 33 11 20 22 21 29 13 109 -5 47 -13 87 -19 88z"/>
</g>
<g>
<path d="M11993 11290 c-20 0 -33 -5 -33 -12 0 -7 7 -22 15 -32 8 -11 15 -27
15 -37 0 -9 11 -24 24 -33 24 -15 26 -14 45 11 12 14 21 32 21 39 0 8 -6 14
-13 14 -8 0 -20 11 -27 25 -10 19 -21 25 -47 25z"/>
</g>
<g>
<path d="M12693 11188 c-12 2 -24 -2 -28 -8 -4 -6 -7 -34 -7 -62 1 -31 7 -57
15 -66 9 -8 23 -11 35 -8 11 4 25 20 32 36 10 25 9 35 -7 67 -12 22 -28 39
-40 41z"/>
</g>
<g>
<path d="M13332 11181 c-16 6 -24 5 -27 -4 -2 -6 -8 -27 -14 -46 -6 -19 -11
-47 -11 -63 0 -21 6 -31 23 -37 12 -5 30 -5 40 1 15 8 17 20 15 75 -3 58 -6
67 -26 74z"/>
</g>
<g>
<path d="M13794 11130 c-6 0 -17 -7 -24 -15 -9 -11 -10 -28 -4 -62 6 -30 15
-49 24 -51 9 -1 24 4 35 12 14 10 19 24 17 52 -2 22 -10 44 -19 52 -9 6 -22
12 -29 12z"/>
</g>
<g>
<path d="M12110 11070 c-11 0 -24 -9 -30 -19 -7 -14 -7 -27 2 -45 9 -20 18
-26 45 -26 28 0 33 4 33 23 0 12 -7 33 -16 45 -8 12 -24 22 -34 22z"/>
</g>
<g>
<path d="M11469 11030 c-5 0 -9 -7 -9 -15 0 -12 -13 -15 -55 -15 -42 0 -57 -4
-62 -16 -3 -9 -2 -24 4 -33 6 -9 30 -19 54 -22 24 -3 49 -4 55 -2 6 2 15 14
20 26 5 12 8 34 6 50 -2 15 -8 27 -13 27z"/>
</g>
<g>
<path d="M14630 10940 c-10 0 -22 -6 -28 -12 -5 -7 -17 -27 -26 -45 -10 -20
-14 -43 -10 -63 4 -17 15 -35 26 -41 10 -5 23 -7 28 -4 6 3 10 15 10 25 0 11
7 39 15 64 8 24 12 51 9 60 -3 9 -14 16 -24 16z"/>
</g>
<g>
<path d="M11551 10860 c-16 0 -31 -6 -34 -13 -3 -7 1 -26 8 -43 6 -16 19 -35
28 -42 9 -8 25 -10 42 -6 15 4 29 13 32 20 3 8 -7 30 -21 49 -20 26 -35 35
-55 35z"/>
</g>
<g>
<path d="M13311 10830 c-11 0 -24 -8 -29 -17 -5 -10 -8 -34 -8 -53 1 -33 3
-35 36 -35 30 0 35 4 38 26 2 14 -2 37 -7 52 -7 17 -18 27 -30 27z"/>
</g>
<g>
<path d="M12746 10820 c-22 0 -36 -6 -40 -16 -3 -9 -6 -24 -6 -34 0 -10 10
-26 22 -34 12 -9 26 -16 30 -16 5 0 8 5 8 11 0 7 7 17 16 24 12 8 15 20 10 38
-5 23 -12 27 -40 27z"/>
</g>
<g>
<path d="M12145 10800 c-6 0 -16 -5 -23 -12 -7 -7 -12 -35 -12 -64 0 -43 4
-54 23 -66 15 -11 29 -13 46 -6 22 8 23 12 18 60 -4 28 -14 59 -23 69 -10 11
-22 19 -29 19z"/>
</g>
<g>
<path d="M14229 10800 c-8 0 -19 -3 -22 -7 -4 -3 -7 -22 -7 -40 0 -19 -9 -52
-21 -74 -11 -23 -18 -48 -15 -56 4 -10 13 -12 28 -8 13 4 33 17 44 30 12 13
25 44 28 68 5 31 3 52 -6 66 -7 12 -20 21 -29 21z"/>
</g>
<g>
<path d="M13797 10710 c-14 0 -30 -6 -36 -14 -7 -8 -15 -31 -18 -51 l-6 -36
39 3 c34 3 39 7 47 37 4 18 6 40 3 47 -3 8 -16 14 -29 14z"/>
</g>
<g>
<path d="M11115 10654 c-11 3 -28 1 -37 -5 -10 -5 -18 -16 -18 -24 0 -8 15
-28 33 -44 17 -17 39 -31 48 -31 8 0 20 5 27 12 7 7 12 22 12 35 0 13 -10 29
-22 37 -13 8 -32 16 -43 20z"/>
</g>
<g>
<path d="M7245 10645 c-5 2 -35 -7 -65 -19 -30 -13 -82 -35 -115 -51 -33 -16
-69 -30 -79 -32 -11 -2 -28 -11 -37 -19 -11 -10 -26 -13 -38 -9 -12 4 -21 2
-21 -4 0 -6 -7 -11 -16 -11 -15 0 -16 -10 -9 -82 4 -46 9 -122 10 -171 1 -48
-2 -90 -6 -93 -5 -3 -9 -27 -9 -54 0 -28 -5 -50 -12 -52 -6 -2 -8 -9 -4 -16 4
-6 24 -16 44 -21 20 -5 60 -15 87 -22 28 -7 86 -29 130 -49 44 -20 93 -40 108
-44 23 -5 38 1 85 37 31 24 64 47 72 50 8 4 22 11 30 15 8 5 30 16 48 25 19 9
44 17 57 17 12 0 26 8 30 18 4 9 10 87 12 172 4 138 7 156 24 168 11 8 19 25
19 42 0 18 -12 42 -31 65 -17 19 -37 35 -45 35 -8 0 -22 4 -32 10 -9 5 -64 28
-122 51 -58 23 -109 43 -115 44z m25 -106 c14 -4 48 -16 75 -26 28 -11 65 -28
82 -39 18 -10 33 -22 33 -26 0 -4 -18 -19 -40 -33 -22 -14 -48 -25 -59 -25
-11 0 -23 -4 -26 -10 -3 -5 -19 -10 -35 -10 -16 0 -32 5 -35 10 -3 6 -14 10
-24 10 -9 0 -42 12 -72 27 -30 14 -71 31 -93 38 l-39 11 39 18 c22 10 54 25
72 34 18 8 47 18 65 22 18 3 43 3 57 -1z m-320 -139 c4 0 20 -4 36 -9 16 -5
49 -14 74 -22 25 -7 69 -23 98 -36 l52 -24 0 -72 c0 -39 -7 -106 -17 -149
l-16 -76 -50 19 c-28 11 -80 28 -116 38 l-66 18 -1 157 c-1 86 1 156 6 156z
m496 -71 c7 0 16 -26 21 -66 7 -47 7 -78 -2 -107 -11 -37 -19 -44 -98 -85 -47
-25 -89 -43 -92 -39 -4 3 0 57 8 119 13 104 16 114 43 133 15 12 46 26 69 32
22 6 45 12 51 13z"/>
</g>
<g>
<path d="M11620 10650 c-9 0 -24 -8 -34 -18 -10 -12 -15 -30 -12 -48 2 -16 7
-37 11 -46 4 -10 15 -18 25 -18 10 0 22 6 28 13 6 6 13 29 17 50 5 24 3 42 -5
52 -7 8 -20 15 -30 15z"/>
</g>
<g>
<path d="M11164 10490 c-16 0 -27 -8 -33 -23 -5 -13 -7 -35 -4 -49 4 -20 13
-29 34 -33 16 -4 33 -4 39 0 5 3 10 20 10 36 0 17 -5 39 -10 50 -6 11 -21 19
-36 19z"/>
</g>
<g>
<path d="M10852 10429 c-4 0 -16 -4 -28 -9 -12 -4 -24 -16 -28 -25 -3 -9 -1
-25 5 -36 6 -11 20 -24 32 -28 15 -6 27 -4 40 7 9 8 17 22 17 31 0 9 -7 27
-16 39 -8 12 -18 22 -22 21z"/>
</g>
<g>
<path d="M14503 10420 c-8 0 -17 -9 -20 -20 -3 -11 -9 -20 -14 -20 -5 0 -9 -8
-9 -18 0 -10 -20 -42 -45 -71 -25 -30 -45 -61 -43 -70 2 -9 15 -17 28 -19 17
-2 33 5 47 20 12 13 35 48 51 79 20 39 28 65 24 87 -2 20 -10 32 -19 32z"/>
</g>
<g>
<path d="M10813 10310 c-27 0 -33 -4 -33 -20 0 -12 12 -32 26 -46 24 -25 26
-25 45 -8 10 9 19 25 19 34 0 9 -5 21 -12 28 -7 7 -27 12 -45 12z"/>
</g>
<g>
<path d="M10537 10234 c-20 5 -29 2 -34 -10 -3 -9 3 -24 14 -36 14 -14 27 -18
42 -13 11 3 21 15 21 25 0 10 -3 21 -7 23 -5 2 -20 7 -36 11z"/>
</g>
<g>
<path d="M260 9800 c-5 0 -10 -4 -10 -10 0 -5 5 -10 10 -10 6 0 10 5 10 10 0
6 -4 10 -10 10z"/>
</g>
<g>
<path d="M8200 6924 c-162 2 -335 1 -385 -4 -49 -4 -112 -11 -140 -14 -27 -3
-84 -12 -125 -21 -41 -8 -151 -34 -245 -56 -93 -23 -213 -52 -265 -66 -52 -14
-124 -34 -160 -45 -36 -11 -110 -43 -165 -70 -55 -27 -107 -55 -115 -63 -8 -7
-25 -16 -38 -20 -12 -3 -36 -18 -53 -32 -17 -14 -65 -44 -107 -65 -42 -22
-102 -59 -133 -83 -31 -23 -67 -49 -80 -56 -13 -7 -42 -26 -64 -43 -21 -17
-53 -42 -69 -56 -17 -14 -70 -65 -118 -114 -48 -50 -105 -110 -125 -134 -21
-24 -74 -80 -118 -123 -44 -44 -83 -82 -87 -87 -4 -4 -24 -25 -44 -47 -20 -22
-42 -52 -50 -67 -7 -14 -24 -35 -37 -45 -13 -10 -34 -33 -47 -50 -13 -18 -31
-35 -41 -38 -9 -3 -20 -17 -23 -32 -5 -17 -1 -31 10 -44 9 -11 29 -19 43 -19
14 0 46 -8 71 -17 35 -12 86 -16 230 -16 114 -1 204 4 235 11 28 7 93 19 146
26 63 10 164 14 300 12 112 -1 218 -6 234 -10 17 -4 39 -11 50 -16 11 -4 41
-15 67 -25 26 -9 52 -14 57 -10 6 3 27 -3 48 -13 21 -11 52 -22 68 -26 17 -4
71 -22 120 -41 50 -18 97 -35 105 -37 8 -2 17 -5 20 -8 3 -4 25 -12 50 -19 25
-7 95 -33 156 -57 61 -24 115 -44 119 -44 5 0 29 -9 54 -21 25 -11 55 -25 65
-31 11 -6 40 -22 65 -36 25 -13 70 -46 100 -71 30 -25 74 -60 98 -76 23 -17
99 -85 169 -150 70 -66 168 -169 218 -230 51 -60 106 -134 124 -164 18 -29 79
-110 135 -180 56 -69 110 -139 120 -154 10 -15 39 -52 65 -81 26 -30 88 -100
137 -157 50 -57 122 -135 160 -174 39 -39 87 -85 107 -102 20 -18 67 -53 105
-79 37 -26 114 -69 170 -95 56 -27 109 -49 117 -49 8 0 17 -4 21 -9 3 -5 29
-16 58 -25 28 -8 93 -22 142 -30 50 -9 105 -16 123 -16 18 0 51 -6 73 -12 36
-11 45 -20 67 -68 14 -30 29 -66 35 -80 5 -14 13 -33 18 -42 5 -10 9 -22 9
-28 0 -6 13 -39 29 -74 17 -34 37 -68 45 -75 9 -8 16 -18 16 -24 0 -6 15 -40
32 -75 l33 -64 -155 -150 c-85 -82 -175 -162 -198 -178 l-44 -29 -61 31 c-34
17 -69 37 -79 45 -9 8 -29 13 -45 11 -19 -2 -32 -12 -42 -32 -7 -16 -49 -66
-92 -111 -46 -47 -79 -91 -79 -102 0 -11 6 -25 13 -31 6 -5 21 -11 32 -12 11
-1 26 -2 33 -1 6 0 12 7 12 14 0 6 33 47 74 89 40 43 77 78 82 78 5 0 25 -10
44 -22 l35 -22 -39 -8 c-22 -5 -55 -18 -74 -30 -31 -19 -33 -24 -29 -57 3 -20
13 -93 21 -164 8 -70 18 -132 21 -137 3 -6 17 -10 31 -10 14 0 24 6 24 14 0 8
4 16 9 18 6 2 6 33 1 78 -5 41 -9 97 -10 124 0 31 6 56 15 66 13 14 23 16 63
8 31 -6 56 -6 75 1 19 7 27 18 27 34 0 16 17 36 61 70 34 26 71 47 83 47 12 0
46 -23 76 -51 35 -31 62 -49 75 -47 11 2 20 11 20 21 0 10 7 22 15 27 11 7 12
13 2 34 -6 14 -19 26 -27 26 -9 0 -41 20 -70 44 l-54 44 84 82 c46 45 97 91
114 101 17 10 40 37 51 59 13 25 18 49 14 62 -3 12 -23 39 -43 62 -20 23 -48
59 -63 81 -14 22 -36 62 -48 90 -12 27 -32 65 -44 85 -16 24 -22 49 -21 80 1
25 3 52 3 60 2 13 32 15 200 15 l198 0 62 -54 c34 -29 96 -94 138 -145 41 -50
85 -102 98 -116 13 -14 61 -77 108 -141 48 -63 93 -121 102 -128 9 -8 16 -19
16 -26 0 -6 -29 -68 -63 -136 -35 -69 -80 -149 -99 -179 -20 -30 -57 -75 -83
-99 l-47 -45 -57 14 c-31 7 -76 14 -100 14 -40 1 -46 -2 -63 -32 -10 -18 -36
-57 -58 -85 -21 -29 -59 -74 -84 -102 -25 -27 -46 -54 -46 -58 0 -5 5 -17 10
-28 6 -10 20 -19 31 -19 12 0 43 23 72 53 29 29 78 81 109 116 47 53 60 62 79
56 l22 -7 -22 -17 c-21 -16 -22 -22 -15 -108 4 -62 3 -92 -4 -97 -7 -4 -9 -20
-5 -39 3 -18 13 -40 21 -49 8 -10 23 -18 32 -18 10 0 23 7 31 16 8 9 15 51 17
103 l4 87 50 20 c28 10 71 38 97 61 25 24 49 43 52 43 3 0 21 13 39 30 18 16
39 30 46 30 7 0 20 -21 30 -47 10 -25 29 -59 42 -75 14 -16 34 -28 48 -28 17
0 27 8 34 26 6 14 10 32 10 40 0 8 -9 23 -19 33 -11 11 -30 47 -43 80 -12 33
-28 61 -35 61 -7 0 -10 7 -7 15 4 8 -1 17 -9 21 -9 3 -37 -6 -64 -21 -26 -15
-60 -39 -75 -53 -16 -14 -28 -23 -28 -19 0 4 16 31 36 60 20 28 43 59 51 69 8
9 31 49 51 90 21 40 49 92 64 115 15 23 32 44 38 48 5 3 10 21 10 38 0 18 7
41 15 51 8 10 12 23 9 27 -3 5 -16 9 -28 9 -15 0 -39 17 -67 48 -25 26 -66 75
-92 109 -26 34 -47 65 -47 68 0 4 -14 24 -31 44 -17 20 -48 56 -68 81 -21 25
-60 70 -86 100 -26 30 -60 69 -77 87 -16 18 -27 36 -24 41 3 5 34 15 68 20 35
6 79 14 98 17 19 3 80 13 135 21 55 8 134 19 175 24 41 5 91 13 110 18 19 5
43 13 54 17 11 5 21 3 27 -6 8 -11 17 -6 43 25 l34 39 98 -8 c55 -5 137 -9
184 -8 47 0 170 5 273 10 117 6 192 14 199 21 7 7 21 12 32 13 12 0 59 13 106
28 72 23 86 31 94 54 6 17 6 37 0 55 -7 20 -27 36 -79 62 -38 19 -97 53 -129
75 -33 22 -71 47 -86 55 -15 8 -53 35 -85 60 -31 25 -127 114 -212 199 -85 85
-167 171 -181 190 -14 20 -42 52 -63 72 -20 20 -43 41 -51 45 -8 5 -40 38 -72
74 -33 36 -73 81 -90 100 -17 19 -63 71 -102 115 -39 44 -80 91 -90 104 -10
13 -51 60 -89 105 -39 45 -88 104 -111 131 -22 28 -58 75 -81 105 -22 30 -68
87 -103 125 -34 39 -109 120 -166 180 -57 61 -127 139 -157 175 -29 36 -72 90
-94 120 -23 30 -96 111 -163 180 -67 69 -154 168 -193 220 -39 52 -76 101 -82
109 -5 8 -32 36 -60 63 -27 27 -76 67 -107 89 -31 21 -61 45 -65 52 -4 7 -27
27 -50 45 -22 18 -82 59 -132 92 -51 33 -95 60 -100 60 -5 0 -14 7 -21 15 -7
9 -33 25 -56 35 -24 11 -45 24 -48 29 -4 5 -35 25 -71 45 -36 20 -74 36 -84
36 -10 0 -24 7 -31 15 -7 8 -16 15 -21 15 -4 0 -20 5 -36 12 -15 6 -30 12 -33
13 -3 1 -33 15 -68 32 -34 17 -68 35 -75 40 -6 6 -48 22 -92 37 -44 15 -104
30 -135 32 -30 3 -64 7 -75 9 -11 2 -153 6 -315 9z m-20 -80 c146 -3 285 -7
310 -10 25 -2 64 -7 87 -10 23 -3 65 -13 93 -23 28 -10 56 -23 63 -30 6 -6 16
-11 22 -11 5 0 37 -13 70 -29 33 -16 118 -57 190 -91 71 -34 152 -77 181 -96
28 -19 54 -34 56 -34 3 0 65 -40 138 -89 72 -48 172 -123 221 -166 50 -43 110
-97 134 -119 23 -23 61 -67 84 -98 23 -32 53 -65 66 -74 14 -9 25 -21 25 -26
0 -6 14 -27 31 -47 18 -20 73 -79 123 -131 50 -53 111 -120 136 -149 25 -29
50 -58 55 -65 6 -6 35 -42 65 -81 29 -38 83 -101 120 -140 36 -38 80 -87 97
-107 18 -21 36 -38 41 -38 4 0 15 -12 24 -27 9 -16 47 -62 85 -103 37 -41 81
-98 97 -125 16 -28 39 -61 50 -74 12 -12 28 -31 36 -40 8 -10 38 -44 66 -77
28 -32 64 -74 80 -92 16 -19 60 -68 98 -110 38 -42 150 -162 250 -265 99 -104
240 -248 311 -320 72 -73 153 -150 180 -173 28 -22 74 -57 103 -77 30 -20 81
-58 115 -85 34 -26 80 -56 101 -65 22 -10 35 -22 30 -26 -5 -5 -49 -20 -99
-35 -74 -21 -110 -26 -200 -25 -60 0 -145 -5 -189 -10 -55 -8 -113 -8 -195 0
-64 6 -172 10 -241 10 -69 0 -183 -3 -255 -7 -111 -5 -146 -3 -235 16 -58 12
-116 24 -130 26 -14 3 -65 16 -115 30 -49 14 -116 32 -148 40 -32 8 -92 28
-133 44 -41 17 -80 30 -87 30 -6 1 -35 15 -63 33 -28 18 -87 55 -130 84 -43
29 -111 75 -150 103 -39 27 -76 50 -82 50 -5 0 -12 6 -15 13 -3 6 -22 21 -43
32 -22 11 -41 23 -44 26 -3 4 -47 38 -99 77 -52 39 -148 124 -214 189 -66 65
-135 141 -154 170 -18 29 -33 57 -33 62 0 6 -9 26 -20 46 -11 20 -20 42 -20
50 0 8 -10 21 -21 29 -12 8 -29 12 -38 9 -9 -3 -23 -12 -32 -20 -10 -9 -14
-23 -11 -41 2 -15 12 -36 22 -47 9 -11 30 -47 46 -80 23 -48 63 -94 199 -228
94 -93 196 -188 227 -212 31 -24 69 -50 85 -58 15 -8 69 -45 118 -82 50 -37
97 -70 105 -73 8 -3 34 -20 57 -39 23 -18 45 -33 49 -33 4 0 26 -16 50 -35 23
-19 71 -49 106 -66 35 -17 71 -35 80 -40 10 -5 23 -9 30 -9 7 0 35 -9 63 -19
27 -10 77 -27 110 -36 33 -10 74 -21 90 -26 17 -4 66 -18 110 -29 44 -12 99
-28 123 -36 24 -8 71 -16 105 -18 34 -2 73 -5 87 -5 21 -2 18 -4 -15 -15 -22
-8 -70 -16 -107 -19 -37 -4 -81 -13 -98 -22 -17 -9 -65 -18 -107 -20 -41 -3
-82 -10 -90 -16 -8 -8 -71 -14 -164 -17 -90 -3 -172 0 -202 6 -29 6 -101 16
-162 22 -60 6 -135 13 -165 16 -30 3 -88 14 -128 24 -40 11 -94 30 -120 41
-26 12 -87 41 -136 66 -50 24 -126 73 -170 107 -45 35 -134 120 -198 188 -65
69 -154 170 -198 224 -44 54 -93 114 -108 132 -15 18 -33 39 -39 47 -7 7 -13
17 -13 20 0 4 -21 34 -47 68 -27 33 -62 76 -78 96 -17 20 -43 53 -58 73 -15
20 -27 41 -27 45 0 5 -36 50 -80 100 -43 50 -146 157 -227 237 -81 80 -159
153 -173 163 -14 9 -63 49 -110 88 -47 39 -108 83 -136 98 -28 15 -64 34 -80
42 -16 8 -35 15 -42 15 -6 0 -29 9 -49 20 -21 11 -43 20 -49 20 -7 0 -54 16
-105 35 -50 20 -108 43 -128 52 -20 8 -54 24 -77 34 -22 11 -48 19 -57 19 -9
0 -18 4 -21 9 -3 4 -23 11 -44 15 -22 3 -52 13 -68 21 -16 8 -35 15 -42 15 -7
0 -20 4 -30 9 -9 5 -62 22 -117 37 -55 15 -109 32 -120 38 -11 6 -69 16 -130
22 -60 7 -162 10 -225 8 -63 -1 -185 -15 -270 -30 -85 -14 -171 -28 -190 -31
-19 -2 -72 -4 -118 -4 -46 0 -106 5 -132 12 -27 7 -47 16 -44 21 3 5 27 18 52
29 26 12 65 29 87 39 22 10 60 21 85 25 25 4 50 11 55 15 6 4 53 19 105 33 52
14 124 28 160 32 36 4 81 11 100 16 19 5 98 16 175 24 77 8 166 15 197 15 37
0 62 -5 72 -15 8 -8 22 -15 32 -15 10 0 26 7 36 17 10 9 18 29 18 44 0 21 -7
32 -27 43 -17 8 -36 11 -48 6 -11 -4 -60 -10 -110 -14 -49 -4 -110 -14 -134
-22 -28 -9 -48 -11 -54 -5 -5 5 -26 7 -46 4 -20 -3 -43 -11 -51 -18 -8 -7 -51
-16 -95 -20 -44 -4 -83 -9 -88 -12 -5 -3 -23 -7 -40 -9 -18 -2 -45 -5 -62 -8
-16 -3 -59 -13 -95 -24 -36 -10 -72 -21 -80 -25 -8 -3 -33 -8 -55 -12 -22 -3
-60 -13 -85 -22 -25 -9 -49 -20 -55 -23 -5 -4 -22 -10 -37 -14 -26 -6 -25 -3
23 61 28 38 70 88 93 113 23 25 76 76 117 113 41 38 111 105 156 150 46 45 83
87 83 92 0 6 9 16 21 23 11 7 60 44 108 82 49 39 92 70 97 70 5 1 25 14 44 30
19 17 39 30 46 30 6 0 28 14 49 30 21 17 42 30 48 30 6 0 42 20 81 44 39 24
94 55 121 69 28 13 89 43 137 66 47 23 93 41 101 41 9 0 19 5 22 10 3 6 17 10
31 10 13 0 95 19 182 41 86 23 180 47 209 53 28 6 55 15 59 19 4 4 16 7 26 7
10 0 26 4 36 9 9 6 58 18 107 27 50 9 142 20 205 25 63 4 234 5 380 3z"/>
<g>
<path d="M6877 6569 c-23 0 -58 -6 -76 -13 -19 -7 -43 -23 -53 -37 -9 -13 -20
-51 -23 -84 l-6 -60 38 -25 c21 -14 51 -30 67 -37 15 -7 41 -13 57 -13 16 0
47 11 68 25 31 21 40 35 49 76 10 40 9 56 -2 82 -7 18 -28 45 -45 60 -25 20
-43 27 -74 26z"/>
</g>
<g>
<path d="M10192 3832 c-6 6 -12 6 -17 -2 -4 -6 -3 -16 3 -22 6 -6 12 -6 17 2
4 6 3 16 -3 22z"/>
</g>
</g>
<g>
<path d="M2983 4360 c-24 0 -34 -10 -68 -68 -22 -37 -68 -112 -102 -166 -35
-55 -63 -104 -63 -109 0 -6 -6 -18 -14 -26 -7 -9 -30 -47 -51 -86 -21 -38 -51
-94 -66 -124 -16 -30 -35 -61 -42 -70 -7 -9 -19 -27 -25 -41 -7 -14 -27 -50
-45 -81 -18 -31 -54 -89 -81 -130 -27 -41 -60 -87 -73 -102 -12 -16 -23 -37
-23 -48 0 -10 -9 -24 -21 -31 -11 -7 -43 -51 -71 -98 -28 -47 -59 -99 -68
-115 -9 -17 -38 -71 -65 -120 -26 -50 -53 -97 -60 -105 -7 -8 -17 -30 -24 -49
-6 -18 -24 -56 -41 -82 -16 -27 -30 -53 -30 -57 0 -4 -11 -24 -25 -44 -14 -20
-25 -46 -25 -57 0 -11 9 -25 19 -31 11 -5 27 -10 36 -10 9 0 24 13 33 30 9 16
24 33 32 37 8 4 69 8 135 10 66 2 181 7 255 12 74 5 176 14 225 20 50 6 205
16 345 23 140 7 320 12 400 11 80 -1 186 -7 235 -12 50 -6 162 -16 250 -22 88
-6 176 -12 195 -13 32 -1 35 1 33 27 -1 15 2 27 8 27 5 0 9 6 9 14 0 8 -16 34
-36 58 -20 23 -51 72 -68 108 -18 36 -44 83 -58 105 -14 22 -38 67 -54 100
-16 33 -39 76 -52 95 -12 19 -30 46 -40 59 -9 14 -35 47 -57 74 -22 27 -46 59
-54 71 -8 11 -25 32 -37 46 -13 14 -28 36 -34 50 -5 14 -19 39 -30 55 -10 17
-27 45 -36 64 -10 19 -35 57 -55 85 -21 28 -48 66 -61 84 -13 18 -38 53 -55
77 -18 24 -33 48 -33 54 0 5 -14 34 -32 63 -17 29 -46 76 -63 103 -18 28 -43
63 -56 79 -13 16 -36 42 -50 57 -15 15 -44 58 -65 94 -21 36 -43 65 -50 65 -6
0 -14 9 -17 20 -4 14 -13 20 -34 20z m13 -150 c2 0 10 -13 18 -29 8 -15 24
-39 36 -52 11 -13 52 -63 90 -112 38 -48 81 -111 95 -141 14 -30 32 -59 40
-66 7 -6 23 -30 35 -53 12 -23 27 -47 33 -52 7 -6 19 -22 27 -37 8 -15 30 -53
49 -85 19 -32 52 -81 73 -110 21 -29 38 -56 39 -60 0 -4 16 -28 35 -53 18 -25
56 -77 82 -115 26 -39 66 -95 88 -125 22 -30 68 -111 103 -180 35 -69 67 -127
71 -130 3 -3 14 -20 23 -39 9 -19 17 -40 17 -47 0 -10 -28 -12 -132 -8 -73 2
-142 6 -153 9 -11 2 -103 7 -205 10 -125 5 -213 3 -270 -5 -47 -7 -170 -14
-275 -16 -104 -2 -203 -6 -220 -8 -16 -3 -83 -10 -147 -16 -65 -6 -137 -10
-160 -10 -24 0 -105 -2 -180 -6 -133 -6 -138 -6 -138 13 0 11 12 42 26 69 14
27 32 60 39 74 7 14 44 79 81 145 37 66 91 162 121 213 30 51 65 105 78 120
12 15 26 38 30 52 4 13 14 30 21 37 7 8 28 33 47 56 19 23 43 58 52 77 10 19
30 51 45 70 15 19 44 69 65 110 20 41 41 82 46 90 4 8 19 35 32 60 13 25 39
72 56 105 18 33 44 71 57 86 13 14 24 29 24 35 0 5 23 35 51 67 28 31 52 57
55 57z"/>
<g>
<path d="M3194 3800 c-13 0 -34 -13 -49 -31 -17 -21 -25 -41 -23 -58 2 -21 12
-29 45 -41 38 -13 44 -13 62 4 11 10 23 31 26 48 5 23 2 35 -16 54 -12 13 -33
24 -45 24z"/>
</g>
<g>
<path d="M2847 3610 c-13 0 -33 -10 -44 -22 -11 -13 -26 -33 -32 -45 -10 -19
-7 -26 16 -48 18 -15 39 -25 59 -25 17 0 38 8 47 18 10 10 17 33 17 50 0 19
-8 40 -20 52 -11 11 -30 20 -43 20z"/>
</g>
<g>
<path d="M3130 3550 c-6 0 -19 -9 -30 -20 -11 -11 -20 -26 -20 -34 0 -8 14
-26 31 -40 17 -15 44 -33 60 -42 25 -13 28 -18 19 -35 -6 -11 -8 -33 -5 -50 4
-19 13 -29 25 -29 10 0 27 8 39 18 12 9 30 41 41 70 10 30 17 59 14 67 -3 7
-19 16 -36 19 -17 3 -53 22 -79 41 -27 19 -54 35 -59 35z"/>
</g>
<g>
<path d="M3396 3237 c-20 20 -24 20 -61 6 -22 -8 -49 -17 -60 -20 -11 -4 -41
-22 -66 -40 -26 -18 -49 -42 -52 -53 -3 -11 3 -26 12 -34 10 -9 23 -16 30 -16
7 0 31 11 54 24 23 14 65 30 92 37 28 6 51 13 53 14 1 1 6 16 11 32 7 24 5 33
-13 50z"/>
</g>
</g>
<g>
<path d="M4350 1190 c-5 0 -10 -5 -10 -11 0 -5 5 -7 10 -4 6 3 10 8 10 11 0 2
-4 4 -10 4z"/>
</g>
</g>
</svg>
