<?xml version="1.0" standalone="no"?>
<!DOCTYPE svg PUBLIC "-//W3C//DTD SVG 20010904//EN"
 "http://www.w3.org/TR/2001/REC-SVG-20010904/DTD/svg10.dtd">
<svg version="1.0" xmlns="http://www.w3.org/2000/svg"
 width="1790.000000pt" height="1790.000000pt" viewBox="0 0 1790.000000 1790.000000"
 preserveAspectRatio="xMidYMid meet">
<metadata>
Created by potrace 1.16, written by Peter Selinger 2001-2019
</metadata>
<g transform="translate(0.000000,1790.000000) scale(0.100000,-0.100000)"
fill="#000000" stroke="none">
<g>
<path d="M8917 15649 c-12 0 -33 -5 -47 -11 -14 -5 -83 -10 -154 -9 -71 0
-133 -2 -139 -6 -5 -3 -29 -7 -54 -9 -24 -2 -78 -10 -118 -19 -41 -8 -96 -15
-122 -15 -27 0 -76 -7 -108 -16 -33 -8 -94 -22 -135 -30 -41 -9 -95 -17 -120
-19 -25 -2 -58 -8 -73 -14 -16 -6 -47 -11 -70 -11 -24 0 -65 -11 -97 -26 -30
-15 -66 -31 -80 -36 -14 -6 -38 -16 -55 -23 -16 -7 -41 -17 -55 -23 -14 -5
-54 -24 -90 -41 -36 -17 -69 -31 -74 -31 -5 0 -32 -16 -60 -37 -28 -20 -53
-40 -54 -45 -2 -5 -18 -14 -35 -22 -18 -7 -57 -36 -88 -64 -31 -29 -60 -52
-63 -52 -3 0 -18 -10 -32 -22 -15 -13 -47 -42 -73 -65 -25 -24 -51 -43 -58
-43 -7 0 -16 -7 -21 -16 -5 -8 -19 -21 -33 -27 -13 -7 -36 -31 -51 -53 -15
-23 -57 -72 -94 -108 -38 -39 -71 -83 -79 -106 -7 -21 -30 -60 -50 -87 -20
-26 -56 -79 -80 -117 -25 -38 -45 -71 -45 -75 0 -3 -16 -39 -36 -79 -20 -40
-44 -77 -55 -83 -12 -6 -19 -21 -19 -42 0 -18 -7 -41 -15 -51 -8 -11 -15 -41
-15 -67 0 -26 -9 -77 -20 -113 -19 -59 -21 -93 -21 -333 0 -148 1 -358 3 -468
2 -122 8 -208 15 -220 6 -11 20 -54 30 -95 11 -41 21 -88 22 -105 0 -16 10
-49 21 -73 11 -24 18 -47 15 -52 -4 -6 1 -20 9 -32 9 -12 16 -32 16 -45 0 -12
5 -25 10 -28 6 -3 10 -18 10 -33 1 -15 7 -38 15 -52 8 -14 14 -33 15 -43 0
-10 12 -44 27 -75 15 -31 46 -86 70 -122 23 -36 50 -76 61 -90 10 -14 26 -41
35 -61 9 -19 25 -43 37 -54 11 -10 20 -22 20 -26 0 -5 15 -32 32 -61 18 -29
39 -60 48 -69 8 -9 28 -35 43 -58 16 -22 35 -41 43 -41 8 0 14 -5 14 -11 0 -6
26 -46 57 -88 32 -42 71 -87 87 -101 16 -14 54 -40 85 -57 31 -18 63 -36 71
-40 8 -4 29 -16 45 -28 17 -11 46 -32 66 -47 20 -16 41 -28 47 -28 7 0 12 -4
12 -8 0 -5 12 -15 28 -22 15 -8 50 -30 77 -50 28 -19 69 -48 92 -64 23 -15 71
-58 105 -95 35 -36 76 -86 93 -111 16 -25 36 -59 44 -75 7 -17 17 -37 22 -45
5 -8 20 -38 34 -66 14 -28 25 -60 25 -72 0 -11 4 -23 9 -26 4 -3 19 -34 31
-68 13 -35 29 -70 37 -79 7 -8 13 -25 13 -37 0 -12 5 -30 10 -40 6 -9 24 -69
41 -132 17 -63 35 -160 40 -215 5 -55 14 -145 20 -200 6 -55 13 -120 15 -145
3 -25 9 -72 15 -105 6 -33 13 -125 16 -205 4 -80 6 -166 6 -193 0 -26 -2 -50
-5 -52 -2 -3 -29 -1 -59 5 -30 5 -85 12 -124 15 -38 3 -153 6 -255 6 -102 0
-219 -5 -260 -10 -41 -6 -85 -11 -97 -11 -12 0 -31 9 -41 20 -11 12 -29 19
-43 18 -22 -3 -24 1 -22 32 0 19 2 91 2 160 1 69 -2 193 -6 275 -4 83 -8 191
-7 240 0 53 5 100 13 113 11 21 9 31 -15 78 -21 42 -32 54 -48 53 -12 -2 -52
7 -89 20 -38 13 -71 20 -74 17 -3 -3 -21 4 -39 15 -21 12 -57 22 -91 25 -32 2
-83 8 -113 13 -30 5 -67 14 -83 20 -15 6 -55 16 -90 22 -34 6 -87 13 -117 16
-30 2 -102 11 -160 19 -58 8 -121 16 -140 18 -19 2 -51 7 -70 10 -19 3 -96 10
-170 16 -74 5 -166 16 -205 25 -38 9 -99 20 -135 25 -36 5 -87 13 -115 19 -27
5 -77 14 -110 20 -33 5 -118 12 -189 15 -71 4 -147 11 -170 17 -23 6 -54 11
-71 10 -16 0 -51 4 -78 10 -26 6 -55 8 -65 4 -9 -5 -26 -8 -37 -9 -15 -1 -21
-9 -23 -33 -2 -18 4 -43 13 -56 11 -17 35 -29 79 -41 54 -15 70 -16 99 -5 26
9 61 9 159 0 69 -6 141 -16 159 -22 19 -5 57 -10 84 -10 28 -1 97 -7 155 -15
58 -7 134 -20 170 -28 36 -8 100 -15 143 -14 43 0 83 -4 90 -9 7 -6 44 -15 82
-22 39 -6 104 -14 145 -16 41 -3 111 -10 155 -15 44 -5 130 -16 190 -24 61 -8
146 -21 190 -30 44 -8 102 -17 129 -20 26 -2 53 -9 59 -15 8 -8 3 -11 -19 -11
-16 0 -78 -2 -139 -5 -60 -3 -144 -9 -185 -15 -41 -6 -102 -12 -135 -15 -33
-3 -69 -6 -80 -6 -11 0 -87 -5 -170 -10 -82 -5 -190 -12 -240 -15 -49 -3 -106
-9 -125 -14 -19 -5 -78 -12 -130 -15 -52 -4 -98 -9 -102 -12 -4 -2 -38 -6 -75
-8 -38 -2 -115 -11 -173 -20 -58 -9 -145 -23 -194 -31 -49 -8 -132 -18 -185
-21 -58 -4 -105 -12 -119 -21 -12 -8 -32 -12 -44 -9 -12 3 -29 2 -39 -3 -10
-6 -71 -12 -136 -15 -65 -3 -170 -8 -233 -12 -63 -3 -133 -8 -155 -9 -22 -2
-78 -8 -123 -13 -46 -5 -96 -12 -110 -15 -15 -3 -75 -8 -133 -10 -59 -3 -117
-7 -130 -11 -13 -3 -94 -10 -179 -15 -85 -6 -218 -14 -295 -20 -77 -5 -176
-12 -220 -15 -44 -4 -106 -12 -137 -20 -36 -8 -70 -10 -93 -5 -19 4 -52 4 -73
-1 -20 -5 -90 -11 -156 -14 -65 -3 -122 -7 -126 -10 -4 -2 -56 -5 -116 -5 -60
0 -156 2 -214 5 -58 4 -118 6 -135 6 -16 0 -61 0 -100 1 -38 0 -81 1 -95 1
-14 1 -35 11 -47 24 -11 12 -33 48 -48 80 -15 32 -31 60 -34 63 -4 3 -13 21
-20 40 -7 19 -17 44 -22 55 -4 11 -16 51 -25 89 -9 38 -17 109 -19 157 -1 78
-4 91 -29 123 -22 29 -34 36 -61 36 -18 0 -41 -7 -49 -16 -9 -8 -16 -24 -16
-35 0 -10 6 -36 14 -56 8 -21 19 -72 25 -113 7 -41 17 -88 22 -105 6 -16 15
-50 20 -74 5 -24 25 -76 45 -117 20 -40 37 -80 38 -87 1 -8 9 -26 19 -40 9
-15 17 -31 17 -37 0 -6 4 -18 9 -28 5 -9 13 -30 18 -47 6 -20 15 -30 28 -30
11 0 23 -4 26 -9 4 -5 74 -8 155 -7 82 1 165 6 184 11 19 5 156 11 303 14 147
3 272 8 278 12 6 3 50 8 97 11 48 3 94 9 103 14 9 4 52 8 95 8 43 0 131 8 194
17 63 9 169 20 235 25 66 5 161 10 210 13 50 2 175 11 279 20 105 9 192 18
194 21 3 2 12 0 21 -5 9 -4 43 -5 76 0 33 4 101 15 150 25 57 10 156 18 270
20 99 1 200 6 225 10 l45 6 13 -38 c8 -21 17 -72 21 -113 5 -41 7 -155 5 -255
-2 -99 -6 -198 -9 -220 -3 -22 -9 -78 -14 -125 -6 -47 -13 -125 -16 -175 -3
-49 -8 -172 -9 -272 -2 -99 -6 -185 -9 -190 -2 -4 -1 -55 4 -113 5 -58 9 -175
9 -260 0 -85 -3 -204 -6 -265 -3 -60 -7 -119 -8 -130 -1 -11 -5 -31 -9 -45 -3
-14 -9 -56 -11 -95 -3 -38 -5 -71 -6 -72 0 -1 -35 -1 -77 -1 -43 1 -215 -1
-383 -4 -168 -3 -386 -8 -485 -11 -99 -4 -247 -12 -330 -18 -82 -6 -278 -13
-435 -15 -157 -3 -314 -7 -350 -9 -36 -2 -166 -6 -289 -9 -157 -3 -229 -1
-242 7 -14 9 -22 7 -39 -8 -19 -17 -40 -20 -157 -23 -121 -3 -136 -2 -148 15
-12 17 -14 16 -32 -6 -17 -21 -29 -24 -99 -27 -43 -2 -94 -6 -111 -9 -26 -5
-33 -2 -33 10 0 8 -10 37 -21 63 -12 26 -32 70 -45 99 -13 28 -24 56 -24 61 0
5 -7 15 -15 22 -9 7 -13 15 -11 17 3 3 -8 39 -24 82 -15 42 -44 111 -64 155
-20 43 -36 86 -36 95 0 9 -5 22 -12 29 -6 6 -11 24 -10 40 0 19 -10 40 -28 61
-17 18 -39 31 -52 31 -13 -1 -33 -9 -45 -19 -17 -14 -22 -29 -22 -57 1 -22 8
-49 15 -61 8 -12 14 -31 14 -41 0 -11 12 -37 27 -58 14 -21 41 -71 58 -109 18
-39 36 -85 39 -103 4 -17 12 -34 17 -37 5 -4 9 -13 9 -21 0 -8 8 -34 19 -57
10 -23 22 -51 26 -62 4 -11 7 -28 6 -38 -1 -9 5 -20 13 -23 9 -3 16 -13 16
-22 0 -9 4 -29 9 -46 5 -17 15 -50 21 -74 6 -25 20 -48 34 -57 20 -13 41 -14
146 -6 67 6 127 15 134 20 7 6 100 13 217 16 112 3 220 8 239 12 19 3 108 13
198 22 90 9 165 14 168 10 2 -4 52 -5 111 -3 60 3 135 6 168 8 33 2 170 7 305
10 135 4 288 9 340 11 52 3 214 10 360 16 146 6 337 13 425 14 88 2 219 4 290
5 72 1 191 2 265 2 74 -1 180 1 235 4 55 3 107 5 115 5 8 0 150 0 315 -1 189
0 319 4 352 11 28 7 60 8 70 4 10 -4 32 -8 48 -7 17 0 111 4 210 8 99 4 221 7
270 7 50 0 155 -5 233 -11 83 -6 150 -16 159 -24 13 -10 12 -13 -9 -21 -12 -5
-35 -11 -49 -13 -14 -2 -47 -10 -73 -19 -25 -9 -50 -14 -54 -11 -4 2 -50 -7
-102 -20 -52 -14 -120 -27 -150 -29 -30 -2 -82 -6 -115 -9 -33 -4 -73 -10 -90
-15 -16 -5 -55 -12 -86 -15 -31 -3 -76 -13 -100 -22 -24 -9 -64 -18 -89 -19
-25 -2 -76 -8 -115 -14 -38 -6 -135 -17 -215 -26 -80 -8 -169 -20 -199 -25
-30 -6 -85 -10 -122 -10 -37 0 -70 -4 -73 -9 -3 -4 -20 -12 -38 -16 -18 -4
-41 -7 -51 -6 -10 1 -39 -4 -65 -13 -26 -8 -81 -18 -122 -22 -41 -4 -78 -7
-81 -6 -3 0 -23 -5 -45 -13 -32 -11 -40 -18 -42 -43 -2 -21 4 -36 19 -51 19
-18 30 -20 78 -15 31 4 115 17 186 31 72 13 153 26 180 29 28 3 57 8 65 11 8
3 26 8 40 9 14 2 77 12 140 22 63 11 165 23 225 26 61 4 139 11 175 15 36 5
88 15 115 23 28 9 82 23 120 32 39 9 84 16 102 16 17 0 35 5 38 10 3 6 28 10
55 10 27 0 51 4 54 9 4 5 48 9 99 9 50 1 124 8 163 16 39 8 95 25 125 37 30
12 77 23 104 24 28 1 60 7 70 12 11 6 40 16 65 23 25 6 86 20 135 30 50 10
109 23 131 28 23 5 54 18 70 29 16 11 37 22 46 26 14 5 16 15 12 54 -3 26 -6
107 -8 178 -2 72 -6 150 -9 175 -4 25 -11 97 -17 160 -6 63 -15 174 -19 246
-5 72 -14 141 -20 153 -9 15 -9 26 -2 34 6 8 9 95 6 237 -2 124 -4 274 -5 333
-2 59 0 111 3 114 4 3 58 7 121 8 63 2 120 6 127 11 7 4 54 9 104 11 49 2 151
4 225 4 74 1 155 -2 180 -5 25 -4 61 -11 80 -16 19 -5 63 -10 97 -11 37 -1 68
3 77 10 12 10 13 43 10 194 -2 100 -8 236 -14 302 -5 66 -14 143 -19 172 -6
28 -13 89 -16 135 -3 46 -12 133 -20 193 -8 61 -21 146 -30 189 -8 43 -21 86
-30 96 -8 9 -15 33 -15 53 0 20 -4 39 -10 42 -5 3 -10 17 -10 30 0 13 -4 27
-10 30 -5 3 -10 18 -10 32 0 13 -7 37 -15 51 -8 15 -32 71 -55 124 -22 53 -40
99 -40 102 0 3 -12 31 -26 63 -15 32 -44 78 -65 103 -22 26 -39 51 -39 58 0 6
-44 55 -97 108 -54 53 -125 114 -158 135 -33 21 -82 53 -108 71 -27 18 -63 44
-80 58 -17 14 -58 42 -91 62 -34 20 -81 47 -106 60 -25 12 -54 32 -65 44 -11
12 -32 29 -46 38 -15 9 -40 36 -55 59 -16 23 -34 49 -41 57 -7 8 -36 44 -65
79 -29 35 -73 96 -97 135 -24 39 -47 73 -50 76 -3 3 -21 26 -38 52 -18 25 -33
49 -33 53 0 3 -11 21 -24 38 -13 18 -33 50 -44 72 -11 22 -27 60 -35 85 -9 25
-32 90 -52 145 -20 55 -43 129 -51 165 -8 36 -25 99 -38 140 -14 41 -32 109
-41 150 -14 61 -17 139 -18 425 -1 193 1 388 5 435 4 47 17 128 29 180 11 52
39 136 61 185 23 50 46 95 52 100 7 6 28 42 48 82 20 39 52 93 70 120 18 26
38 55 43 64 6 9 22 34 37 56 14 22 54 72 89 112 34 40 89 98 122 129 33 31 70
68 81 80 12 13 40 35 64 49 23 14 48 32 55 42 7 9 19 21 28 26 9 6 35 23 58
38 23 15 58 43 79 61 20 18 62 46 92 61 30 16 62 35 71 42 9 8 40 23 70 34 30
11 67 25 83 31 15 6 48 21 73 34 24 13 52 24 62 24 9 0 21 4 26 9 6 5 80 24
165 41 85 18 178 33 205 35 28 2 73 11 100 20 28 9 73 18 100 20 28 2 88 7
135 10 47 3 119 11 160 18 41 7 114 11 162 9 l87 -3 -5 -112 c-3 -62 -9 -115
-12 -118 -4 -3 -90 -14 -192 -23 -102 -9 -206 -19 -232 -21 -26 -2 -52 -7 -59
-10 -6 -4 -28 -9 -48 -12 -20 -2 -56 -9 -81 -15 -25 -6 -55 -12 -67 -13 -13
-2 -76 -19 -140 -39 -65 -20 -149 -46 -188 -59 -38 -12 -74 -22 -80 -23 -5 0
-32 -10 -60 -23 -27 -12 -75 -39 -105 -59 -30 -20 -89 -65 -130 -99 -41 -34
-88 -74 -105 -88 -16 -15 -77 -72 -135 -129 -58 -57 -111 -111 -117 -122 -7
-10 -19 -33 -28 -49 -8 -17 -28 -44 -43 -61 -15 -16 -36 -43 -46 -59 -11 -17
-28 -36 -38 -43 -10 -7 -18 -19 -18 -26 0 -8 -6 -19 -14 -25 -8 -7 -25 -35
-39 -64 -14 -29 -27 -65 -30 -82 -3 -16 -9 -43 -13 -60 -4 -16 -18 -47 -31
-67 -12 -21 -23 -42 -23 -47 0 -5 -13 -36 -29 -68 -16 -33 -33 -71 -36 -86 -4
-15 -11 -27 -16 -27 -5 0 -9 -12 -9 -28 0 -15 -9 -60 -20 -100 -11 -39 -20
-85 -20 -102 0 -17 -4 -38 -9 -48 -5 -9 -14 -29 -21 -44 -7 -14 -10 -38 -6
-51 3 -13 1 -71 -4 -128 -6 -57 -10 -192 -10 -299 0 -143 4 -212 15 -260 9
-36 22 -94 29 -130 7 -36 16 -74 21 -85 5 -11 25 -35 46 -55 22 -21 42 -53 50
-80 7 -25 16 -47 19 -50 3 -3 16 -21 27 -40 12 -20 33 -46 47 -59 14 -14 26
-30 26 -37 0 -7 8 -19 18 -26 9 -7 29 -30 45 -50 15 -20 27 -40 27 -44 0 -3
24 -31 54 -60 30 -30 59 -54 65 -54 6 0 18 -11 27 -25 9 -14 70 -61 135 -105
66 -44 124 -80 129 -80 6 0 31 -20 57 -45 25 -25 49 -45 54 -45 4 0 37 -20 72
-45 36 -25 69 -45 73 -45 5 0 28 -18 51 -41 23 -22 60 -52 82 -67 22 -15 67
-53 100 -84 33 -32 79 -84 103 -115 23 -32 54 -72 68 -89 14 -17 32 -41 40
-53 8 -12 26 -43 40 -70 14 -27 42 -79 64 -115 23 -41 36 -74 33 -87 -3 -12 1
-23 12 -29 10 -5 27 -39 38 -77 12 -37 35 -129 51 -203 17 -74 34 -148 37
-165 4 -16 10 -66 15 -110 5 -44 12 -152 15 -240 4 -88 10 -185 15 -215 5 -30
8 -62 8 -70 -1 -8 7 -54 16 -103 14 -73 16 -147 15 -449 -1 -198 -5 -377 -9
-397 -5 -20 -12 -79 -16 -131 -4 -52 -8 -115 -7 -140 0 -25 -4 -88 -9 -140 -5
-52 -11 -207 -13 -345 -1 -137 -8 -329 -14 -425 -6 -96 -14 -193 -17 -215 -3
-22 -9 -53 -14 -70 -5 -16 -14 -50 -21 -75 -6 -25 -15 -58 -20 -75 -4 -16 -20
-67 -34 -113 -14 -46 -30 -91 -34 -100 -5 -9 -22 -48 -37 -87 -16 -38 -59
-115 -96 -170 -37 -55 -78 -111 -91 -125 -13 -14 -71 -68 -128 -121 -57 -53
-122 -111 -144 -130 -22 -19 -44 -40 -48 -46 -4 -7 -14 -13 -22 -13 -7 0 -32
-16 -55 -35 -23 -19 -45 -35 -48 -35 -4 0 -38 -27 -77 -60 -38 -33 -73 -60
-77 -60 -4 0 -24 -16 -45 -35 -21 -19 -42 -35 -46 -35 -5 0 -30 -17 -55 -37
-26 -21 -51 -44 -55 -50 -4 -7 -15 -13 -22 -13 -8 0 -15 -4 -15 -9 0 -5 -35
-32 -77 -60 -43 -28 -125 -89 -183 -137 -58 -47 -133 -112 -166 -144 -34 -33
-82 -83 -106 -112 -25 -29 -70 -90 -101 -135 -32 -45 -57 -88 -57 -95 0 -8
-20 -46 -44 -85 -24 -39 -50 -83 -58 -99 -8 -16 -19 -38 -26 -49 -6 -11 -18
-35 -26 -54 -9 -19 -16 -38 -16 -44 0 -5 -6 -23 -14 -40 -8 -18 -19 -48 -26
-67 -6 -19 -13 -62 -16 -95 -3 -33 -9 -80 -15 -105 -5 -25 -11 -94 -14 -154
-3 -60 -8 -113 -11 -117 -3 -5 0 -63 7 -130 6 -67 22 -154 34 -193 13 -40 34
-95 48 -122 14 -27 47 -94 73 -149 26 -55 53 -104 60 -108 8 -4 14 -13 14 -18
0 -6 13 -29 29 -52 15 -23 31 -52 35 -64 4 -12 20 -38 36 -58 17 -21 30 -42
30 -46 0 -5 29 -46 65 -91 36 -46 89 -112 118 -146 29 -35 85 -97 125 -137 39
-41 72 -76 72 -78 0 -3 29 -33 63 -68 35 -35 98 -88 140 -117 42 -28 88 -52
101 -52 16 0 27 -7 31 -21 4 -11 13 -18 20 -15 7 2 30 -8 52 -24 21 -16 46
-30 56 -30 11 0 21 -9 24 -20 3 -11 27 -30 58 -45 30 -14 58 -25 63 -25 5 0
17 -9 27 -20 12 -14 31 -20 58 -20 27 0 48 -8 69 -25 16 -14 38 -25 49 -25 10
0 40 -5 66 -11 27 -6 66 -17 88 -24 22 -7 65 -19 95 -25 30 -6 90 -20 133 -31
43 -11 82 -17 88 -14 5 4 16 2 23 -4 8 -6 51 -14 97 -18 46 -3 93 -10 104 -16
11 -6 63 -12 115 -14 52 -3 109 -6 125 -8 17 -2 33 -4 37 -4 4 -1 8 -22 7 -48
0 -27 6 -104 13 -173 7 -69 18 -133 24 -143 8 -14 31 -19 110 -26 54 -5 105
-6 112 -3 7 2 23 0 35 -6 12 -6 80 -13 150 -16 70 -2 196 0 280 5 84 6 199 12
257 14 58 3 128 9 155 14 28 6 95 17 150 25 55 8 114 17 130 21 17 3 53 10 80
15 28 5 75 14 105 20 30 7 67 18 82 26 15 8 34 14 42 14 8 0 37 14 63 32 26
18 50 36 51 40 2 4 10 8 18 8 7 0 30 9 51 21 21 12 45 27 54 35 8 8 20 14 26
14 6 0 44 27 85 60 40 34 83 70 94 80 12 11 27 20 33 20 7 0 50 36 97 80 46
44 89 80 94 80 5 0 12 10 16 23 3 12 59 74 124 137 64 63 129 135 145 160 15
25 31 47 35 50 4 3 17 25 30 50 12 25 31 55 42 67 11 11 34 50 52 85 18 34 40
77 49 93 9 17 30 59 47 94 16 35 30 74 30 87 0 13 4 25 9 28 5 4 12 25 16 48
4 23 16 58 25 78 10 19 21 55 25 80 4 25 11 50 15 55 4 6 11 48 16 95 4 47 7
130 7 185 0 55 -3 179 -7 275 -4 96 -9 224 -12 285 -3 60 -12 137 -20 170 -9
33 -17 74 -20 90 -2 17 -8 50 -13 75 -5 25 -24 74 -41 110 -17 36 -40 79 -51
95 -10 17 -27 46 -36 65 -10 19 -44 70 -75 113 -32 43 -58 87 -58 98 0 11 -17
38 -38 62 -21 23 -51 62 -67 86 -17 23 -37 56 -47 73 -9 16 -24 39 -35 50 -10
11 -36 32 -57 47 -21 14 -48 31 -59 38 -12 6 -35 25 -51 41 -17 16 -53 52 -81
79 -27 27 -58 61 -67 76 -10 14 -55 50 -100 80 -46 30 -94 58 -108 62 -14 4
-34 15 -45 25 -11 9 -38 27 -60 40 -22 13 -98 59 -170 103 -71 44 -139 88
-151 98 -11 11 -27 19 -35 19 -9 0 -29 13 -45 30 -16 16 -33 30 -38 30 -4 0
-27 15 -49 33 -22 17 -62 46 -89 63 -26 17 -57 43 -69 58 -11 15 -44 38 -72
52 -28 14 -80 56 -116 93 -37 36 -88 90 -114 118 -27 29 -64 83 -83 120 -18
37 -41 93 -49 126 -8 32 -15 80 -15 106 0 26 -9 83 -20 127 -12 43 -26 92 -32
108 -6 16 -13 38 -14 50 -1 12 -5 39 -9 61 -3 22 -17 101 -31 175 -13 74 -30
160 -36 190 -7 33 -11 153 -11 300 1 135 4 318 7 408 5 136 9 166 24 181 9 10
26 23 37 28 11 5 63 10 115 12 52 1 112 7 133 12 21 6 60 12 86 13 27 2 57 8
67 14 11 6 67 14 125 17 85 6 108 5 115 -6 5 -8 9 -106 10 -219 1 -146 6 -224
17 -270 9 -36 18 -78 21 -95 3 -16 8 -75 12 -130 3 -55 6 -107 6 -115 1 -8 5
-21 11 -28 6 -7 13 -54 16 -105 4 -51 2 -107 -3 -125 -7 -25 -6 -41 7 -67 14
-29 22 -35 47 -35 17 0 48 -11 68 -25 20 -14 48 -25 62 -25 14 0 39 -7 55 -16
17 -8 64 -24 106 -34 41 -10 84 -22 95 -28 10 -6 64 -20 119 -32 55 -13 127
-26 161 -29 33 -3 71 -13 85 -22 13 -9 38 -19 54 -22 17 -3 57 -13 90 -22 33
-9 96 -25 140 -35 44 -10 139 -25 210 -33 72 -8 146 -15 165 -15 19 0 60 -6
90 -12 30 -6 102 -15 160 -20 58 -5 129 -13 159 -19 30 -6 84 -12 120 -13 36
0 74 -5 84 -10 10 -5 36 -7 58 -3 31 5 42 13 55 40 10 22 13 45 9 65 l-7 30
-76 1 c-42 0 -142 2 -222 5 -80 2 -152 7 -160 10 -8 3 -55 8 -105 10 -49 3
-97 8 -105 11 -8 3 -46 9 -85 14 -38 5 -108 14 -155 19 -47 5 -109 16 -139 24
-30 9 -90 21 -133 28 -43 7 -78 15 -78 19 0 4 -17 10 -37 14 -21 4 -42 10 -48
13 -5 4 -37 13 -70 20 -33 7 -76 15 -95 18 -19 3 -77 16 -128 29 -51 13 -97
27 -103 31 -8 4 -8 8 -1 13 6 4 55 3 108 -1 54 -3 139 -3 188 1 50 4 123 6
161 5 39 -1 90 -3 115 -4 25 -1 99 1 165 5 66 3 125 5 130 5 6 -1 57 -3 115
-5 58 -2 121 -7 140 -11 19 -4 39 -6 44 -5 5 1 35 4 65 7 31 3 198 6 371 9
173 2 488 7 700 11 212 4 482 7 600 7 118 1 233 1 255 0 22 0 119 1 215 2 96
2 210 6 252 9 44 4 79 2 82 -3 4 -5 27 -8 52 -6 25 1 80 -1 122 -6 43 -5 173
-11 290 -13 117 -1 217 -7 222 -12 5 -5 14 -39 20 -74 6 -36 15 -87 19 -115 5
-27 18 -117 30 -200 12 -82 26 -161 31 -175 6 -14 12 -48 15 -76 2 -27 11 -67
20 -87 8 -20 21 -37 29 -37 7 0 27 5 45 11 20 7 33 20 38 37 3 14 -1 57 -10
96 -10 39 -24 123 -33 186 -9 63 -18 118 -20 122 -3 4 -7 26 -10 50 -3 24 -10
68 -15 98 -6 30 -15 100 -20 154 -5 55 -15 106 -21 113 -6 7 -17 13 -24 13 -8
0 -14 5 -14 10 0 6 -12 15 -26 20 -16 6 -31 7 -38 1 -6 -5 -54 -9 -105 -10
-52 -1 -99 -5 -103 -7 -5 -3 -59 -5 -121 -4 -62 0 -155 3 -207 5 -52 3 -173 5
-269 4 -96 0 -177 -2 -181 -4 -3 -2 -35 0 -71 6 -35 5 -140 9 -234 9 -93 0
-280 -2 -415 -3 -135 -2 -399 -7 -587 -10 l-343 -6 -1 57 c-1 31 -1 91 0 131
2 41 6 82 11 92 5 9 7 90 4 180 -3 90 -7 193 -9 229 -3 36 -5 74 -5 85 0 11
-1 101 -1 200 0 99 -4 250 -9 335 -5 85 -10 229 -11 320 0 91 -2 185 -4 210
-2 25 -3 133 -3 240 1 107 2 224 3 260 2 36 3 70 4 76 1 8 17 8 54 2 28 -4 75
-8 102 -9 28 0 100 -2 160 -4 61 -2 145 -9 189 -15 43 -5 82 -8 86 -5 5 3 44
-4 87 -16 51 -15 102 -21 149 -20 40 1 85 -4 100 -10 16 -7 47 -13 69 -14 22
-1 76 -7 120 -13 44 -6 136 -14 205 -17 69 -4 164 -11 211 -16 48 -5 101 -6
118 -3 19 4 39 1 53 -8 13 -8 50 -20 83 -27 33 -7 80 -11 105 -10 25 1 72 -1
105 -5 33 -3 67 -8 75 -11 9 -3 49 -10 90 -15 41 -6 98 -12 125 -14 28 -3 61
-9 75 -14 15 -5 83 -6 165 -2 77 4 144 5 149 2 6 -3 41 -7 79 -8 61 -2 73 -6
99 -31 17 -15 41 -45 54 -66 14 -20 47 -63 76 -95 28 -31 92 -101 142 -155 50
-54 92 -102 94 -108 2 -5 13 -9 24 -9 11 0 33 13 49 29 17 18 29 40 29 56 0
20 -27 52 -121 143 -67 64 -134 136 -150 159 -16 23 -43 57 -60 75 -17 18 -42
48 -57 66 -14 18 -38 40 -54 48 -20 10 -62 15 -141 15 -62 1 -137 1 -167 1
-30 0 -131 -1 -225 -2 -108 -2 -188 1 -220 9 -27 7 -117 19 -200 27 -82 8
-161 16 -175 19 -14 2 -52 9 -85 14 -33 6 -83 11 -112 11 -28 0 -55 5 -58 10
-4 6 -14 10 -23 9 -10 -1 -24 1 -32 4 -8 3 -76 9 -150 13 -74 4 -151 7 -170 7
-19 -1 -116 10 -215 24 -99 14 -198 27 -220 29 -22 3 -101 12 -175 20 -74 8
-211 19 -304 24 -141 8 -175 13 -212 32 -43 21 -45 21 -58 3 -13 -18 -13 -18
-24 1 -9 16 -14 17 -32 6 -11 -7 -24 -10 -29 -8 -4 3 -107 14 -228 26 -191 18
-268 20 -584 15 -200 -3 -425 -6 -499 -8 -74 -2 -171 2 -214 8 -44 6 -90 10
-103 7 -13 -2 -23 1 -23 7 0 6 10 11 23 11 12 0 31 7 41 15 11 8 28 15 37 15
10 0 30 5 46 11 15 7 37 13 49 14 11 2 37 13 58 25 21 11 48 20 60 18 11 -1
26 0 31 3 6 3 44 14 85 23 41 10 104 26 140 36 36 11 97 24 135 31 39 6 115
22 170 36 55 13 124 26 153 28 30 3 58 8 64 11 6 4 42 11 82 16 39 5 95 9 124
8 30 -1 60 4 68 11 8 6 26 9 42 6 15 -3 47 -1 72 4 25 6 71 12 102 14 32 2 70
11 85 19 16 8 38 20 51 25 14 7 22 19 22 35 0 14 -10 37 -23 51 -13 15 -33 27
-47 27 -14 0 -52 -5 -85 -11 -33 -7 -82 -16 -110 -21 -27 -5 -82 -15 -120 -23
-39 -7 -76 -16 -81 -20 -6 -3 -48 -9 -93 -12 -45 -3 -98 -9 -119 -13 -20 -5
-49 -8 -64 -8 -16 1 -28 -1 -28 -5 0 -3 -19 -10 -42 -14 -24 -4 -47 -7 -52 -6
-5 1 -31 -5 -56 -13 -26 -9 -92 -22 -146 -31 -55 -8 -115 -19 -134 -24 -19 -6
-63 -15 -97 -22 -35 -6 -63 -16 -63 -20 0 -5 -12 -9 -28 -9 -15 0 -65 -14
-112 -31 -47 -17 -105 -35 -130 -39 -25 -4 -56 -13 -70 -19 -14 -6 -68 -22
-120 -37 -52 -14 -129 -34 -170 -45 -41 -11 -98 -22 -126 -23 -41 -2 -57 -8
-86 -35 l-35 -32 3 -357 c2 -196 3 -372 3 -390 0 -18 7 -99 16 -180 11 -104
13 -172 7 -232 -5 -47 -7 -104 -4 -128 2 -24 -1 -48 -7 -56 -7 -8 -42 -17 -84
-21 -40 -4 -90 -9 -112 -12 -22 -3 -50 -6 -61 -8 -12 -2 -31 -8 -44 -15 -12
-6 -29 -9 -37 -6 -9 4 -21 2 -27 -3 -6 -5 -30 -11 -54 -15 -24 -3 -47 -8 -52
-11 -5 -3 -19 -1 -30 5 -16 9 -25 8 -35 0 -9 -8 -55 -12 -127 -11 -80 0 -118
-3 -131 -13 -13 -10 -17 -26 -16 -62 1 -27 -4 -69 -11 -94 -7 -25 -12 -79 -11
-120 2 -41 3 -82 3 -90 0 -8 -4 -76 -10 -150 -5 -74 -8 -173 -7 -220 1 -47 5
-132 9 -190 4 -58 12 -124 18 -147 6 -23 12 -64 13 -90 2 -26 8 -68 13 -93 6
-25 22 -102 36 -173 15 -70 31 -137 36 -150 5 -12 14 -67 20 -122 6 -55 17
-118 25 -140 8 -22 14 -48 15 -58 0 -10 12 -55 26 -100 23 -72 33 -89 83 -137
31 -30 63 -68 71 -83 8 -16 28 -38 45 -50 16 -12 62 -49 100 -83 39 -34 89
-72 110 -86 22 -14 63 -45 90 -70 28 -24 66 -53 85 -64 19 -10 55 -35 80 -55
25 -19 73 -55 107 -78 35 -24 65 -47 69 -52 3 -5 16 -9 29 -9 13 0 26 -4 29
-9 3 -5 25 -19 48 -31 24 -12 59 -34 78 -49 19 -15 52 -35 72 -44 20 -10 40
-22 43 -27 3 -5 29 -20 58 -33 29 -13 75 -41 102 -61 28 -21 84 -72 126 -114
42 -42 96 -95 120 -118 24 -23 69 -58 100 -78 39 -25 71 -58 108 -111 28 -41
51 -78 51 -81 0 -4 11 -22 25 -40 14 -18 25 -37 25 -43 0 -6 4 -11 9 -11 5 0
28 -33 52 -72 23 -40 56 -95 72 -123 16 -27 35 -54 42 -60 7 -5 22 -28 33 -50
11 -22 33 -76 47 -120 15 -44 31 -107 36 -140 5 -33 14 -105 20 -160 7 -55 13
-118 15 -140 2 -22 6 -125 9 -230 4 -104 6 -219 6 -255 -1 -36 -6 -94 -12
-130 -6 -36 -17 -88 -25 -116 -8 -28 -14 -64 -14 -80 0 -17 -4 -34 -9 -40 -4
-5 -21 -47 -37 -94 -16 -47 -41 -100 -56 -118 -16 -18 -28 -43 -28 -57 0 -13
-11 -37 -25 -53 -14 -17 -25 -37 -25 -46 0 -8 -8 -23 -19 -33 -10 -10 -22 -32
-25 -49 -4 -17 -21 -44 -37 -60 -17 -16 -40 -48 -51 -71 -12 -25 -84 -107
-180 -204 -88 -89 -167 -173 -175 -186 -8 -12 -20 -23 -25 -23 -6 0 -26 -13
-45 -30 -18 -16 -40 -30 -48 -30 -8 0 -15 -7 -15 -15 0 -7 -6 -18 -14 -22 -7
-4 -29 -20 -47 -35 -19 -15 -57 -45 -85 -67 -28 -22 -77 -53 -109 -70 -32 -17
-62 -31 -67 -31 -4 0 -32 -16 -61 -35 -28 -19 -68 -38 -87 -41 -19 -4 -47 -13
-61 -20 -14 -7 -35 -13 -45 -13 -10 -1 -46 -5 -79 -11 -33 -5 -100 -15 -149
-20 -49 -6 -97 -15 -107 -21 -10 -5 -80 -16 -156 -24 -76 -8 -203 -19 -283
-24 -80 -5 -194 -7 -255 -4 -60 2 -171 12 -245 21 l-135 18 -6 29 c-4 17 -7
67 -8 113 -1 80 0 82 22 78 12 -3 54 -10 92 -17 43 -8 169 -13 325 -13 140 0
295 3 343 7 49 4 146 16 215 27 70 10 153 28 184 40 32 11 66 20 77 20 11 0
23 5 26 10 4 6 10 8 15 5 4 -3 32 3 61 12 30 9 71 27 91 40 21 13 43 23 51 23
7 0 37 13 67 29 30 15 91 50 135 77 44 27 105 68 135 91 30 23 75 60 99 83 25
22 50 44 57 48 7 4 56 48 109 97 53 50 110 109 126 133 16 24 29 47 29 51 0 5
6 14 14 20 8 7 24 31 36 54 12 23 34 65 49 93 15 28 37 64 49 81 12 17 22 34
22 38 0 4 18 44 39 89 22 45 53 117 70 160 17 43 28 83 25 87 -3 5 1 19 7 31
7 13 16 39 20 58 4 19 16 76 27 125 12 50 23 110 26 135 3 25 10 105 16 179 6
74 9 173 6 220 -3 47 -8 123 -12 169 -4 45 -11 85 -15 88 -5 3 -9 19 -9 36 0
17 -30 106 -67 197 -36 91 -90 205 -118 253 -29 48 -79 122 -111 164 -33 42
-117 138 -189 212 -71 74 -150 156 -175 181 -25 25 -74 67 -110 93 -36 26 -74
55 -85 65 -11 10 -36 29 -55 42 -19 14 -60 41 -90 61 -30 20 -118 71 -195 112
-77 41 -174 90 -215 109 -41 18 -102 49 -135 68 -33 19 -87 48 -121 65 -33 17
-106 70 -161 116 -55 47 -112 94 -126 105 -14 11 -43 43 -66 71 -22 29 -59 86
-80 129 -22 42 -46 85 -54 94 -8 9 -18 30 -21 46 -4 17 -21 51 -37 78 -16 26
-29 55 -29 65 0 10 -7 28 -16 40 -9 13 -18 38 -19 55 -2 18 -8 57 -14 87 -7
30 -16 82 -22 115 -5 33 -10 146 -11 250 0 105 -4 195 -9 200 -4 6 -4 28 1 49
5 21 6 73 3 115 -3 42 -6 168 -7 281 -1 113 2 266 7 340 4 74 9 163 12 198 3
34 10 72 16 83 6 12 12 53 14 92 1 40 9 117 16 172 8 55 14 127 13 160 0 33
-3 130 -6 215 -4 85 -10 259 -13 385 -4 139 -2 250 4 280 5 28 14 68 20 90 5
22 17 60 25 85 9 25 21 54 27 65 5 12 11 39 13 60 2 22 7 49 11 60 5 11 19 33
32 48 13 16 23 34 23 40 0 7 9 23 20 37 11 14 20 33 20 44 0 10 12 33 28 52
15 19 47 58 72 88 25 30 52 67 60 83 8 15 28 43 45 62 16 18 45 48 63 66 17
17 32 37 32 42 0 6 12 19 28 29 15 9 60 49 101 88 41 39 99 97 130 129 30 32
84 82 119 110 36 29 80 63 100 75 19 13 37 32 39 43 3 10 10 19 17 19 6 0 48
36 94 80 46 44 88 80 93 80 5 0 9 7 9 15 0 8 6 15 14 15 7 0 24 16 37 35 13
19 27 35 31 35 4 0 31 21 60 46 29 25 85 75 123 110 39 36 73 68 77 72 3 4 17
18 31 32 13 14 62 61 108 105 46 44 105 105 132 135 27 30 80 89 117 130 38
41 95 107 127 145 32 39 71 94 85 123 15 29 25 59 22 66 -3 8 2 25 10 39 9 13
14 32 10 41 -4 11 2 26 15 40 11 12 30 56 41 97 10 41 29 103 40 139 12 36 27
112 34 170 7 58 12 170 11 250 -1 80 -5 177 -9 215 -4 39 -12 99 -17 135 -5
36 -15 83 -20 105 -6 22 -13 49 -16 60 -3 11 -7 34 -10 50 -3 17 -9 35 -14 41
-5 6 -21 46 -35 90 -15 43 -46 117 -70 164 -24 47 -62 114 -84 150 -22 36 -45
77 -51 93 -6 15 -15 27 -20 27 -4 0 -16 16 -25 35 -9 19 -41 63 -72 98 -30 34
-99 104 -151 155 -53 51 -116 104 -141 117 -25 14 -63 38 -85 54 -22 16 -71
46 -110 66 -38 21 -85 48 -104 61 -20 13 -41 24 -47 24 -6 0 -29 8 -50 17 -22
9 -46 18 -54 19 -8 2 -40 9 -70 18 -30 8 -98 24 -150 36 -65 14 -164 24 -310
31 -118 6 -235 7 -260 3 -25 -4 -70 -8 -100 -9 -30 -1 -98 -5 -150 -9 -52 -4
-108 -9 -125 -11 -16 -2 -37 -6 -45 -9 -8 -3 -50 -10 -94 -15 -43 -5 -85 -7
-94 -4 -12 5 -14 23 -9 112 4 58 9 126 12 151 6 39 3 49 -20 73 -14 15 -36 27
-48 26z m752 -404 c20 -2 108 -7 196 -10 88 -4 180 -10 205 -15 25 -4 72 -13
105 -19 33 -7 76 -18 95 -25 19 -8 64 -22 100 -31 36 -10 76 -25 90 -33 13 -9
54 -31 90 -50 36 -19 103 -60 149 -91 48 -31 137 -107 205 -174 67 -65 129
-122 138 -128 9 -5 19 -23 23 -40 4 -17 29 -54 56 -82 27 -29 49 -60 49 -69 0
-9 10 -29 23 -45 13 -15 56 -94 95 -175 40 -81 72 -156 72 -167 0 -11 5 -23
10 -26 6 -3 10 -19 10 -35 0 -16 5 -32 10 -35 6 -3 10 -18 10 -33 1 -15 7 -38
15 -52 8 -14 14 -41 15 -60 0 -20 6 -60 14 -90 9 -35 15 -123 17 -240 2 -118
-2 -212 -10 -260 -7 -41 -17 -94 -22 -117 -5 -23 -9 -55 -9 -70 0 -16 -7 -39
-16 -52 -9 -13 -20 -37 -24 -55 -5 -17 -17 -62 -29 -99 -11 -37 -34 -100 -51
-140 -18 -40 -35 -77 -39 -83 -3 -6 -20 -29 -37 -52 -17 -23 -73 -87 -125
-143 -52 -57 -114 -125 -139 -153 -25 -27 -74 -77 -109 -110 -36 -34 -86 -81
-112 -106 -26 -25 -60 -57 -76 -71 -15 -15 -42 -42 -59 -60 -16 -19 -54 -54
-83 -79 -30 -25 -59 -48 -65 -52 -6 -4 -51 -45 -101 -92 -49 -47 -96 -86 -102
-86 -7 0 -13 -6 -13 -13 0 -7 -15 -27 -32 -43 -18 -17 -61 -52 -94 -77 -34
-25 -119 -102 -190 -171 -71 -69 -135 -126 -141 -126 -7 0 -13 -4 -13 -9 0 -5
-37 -47 -83 -93 -46 -46 -129 -140 -185 -210 -56 -70 -102 -129 -102 -132 0
-3 -19 -32 -43 -63 -24 -32 -52 -78 -62 -103 -11 -25 -22 -47 -25 -50 -3 -3
-22 -39 -42 -80 -20 -41 -50 -129 -68 -195 -18 -66 -36 -129 -41 -140 -4 -11
-11 -49 -13 -85 -3 -36 -6 -105 -6 -155 0 -49 4 -171 10 -270 5 -99 11 -246
13 -327 2 -81 0 -173 -5 -205 -4 -32 -12 -112 -18 -178 -6 -66 -15 -156 -20
-200 -5 -44 -14 -123 -21 -175 -7 -62 -8 -214 -5 -435 4 -187 9 -443 12 -570
3 -126 12 -275 20 -329 8 -55 14 -112 14 -128 0 -15 9 -47 19 -71 11 -23 25
-60 31 -82 7 -22 22 -62 35 -90 13 -27 33 -72 46 -99 12 -27 22 -55 22 -63 0
-7 6 -13 13 -13 8 0 17 -12 20 -28 4 -15 14 -36 24 -47 9 -11 24 -36 33 -56 9
-20 42 -65 73 -100 32 -35 68 -71 80 -79 12 -8 52 -41 87 -72 35 -32 68 -58
72 -58 5 0 16 -6 24 -14 9 -8 39 -27 67 -43 27 -15 68 -39 90 -53 21 -14 75
-42 119 -62 44 -21 82 -45 83 -54 3 -11 11 -14 25 -10 11 3 26 1 32 -4 7 -5
50 -29 96 -52 48 -25 84 -49 84 -58 0 -9 13 -17 35 -21 19 -3 52 -13 74 -22
21 -9 64 -39 96 -67 32 -27 62 -50 68 -50 5 0 12 -7 15 -15 4 -8 23 -23 44
-35 21 -11 62 -37 91 -58 29 -21 61 -50 70 -64 10 -15 39 -43 65 -63 26 -20
47 -39 47 -43 0 -4 51 -59 113 -123 66 -67 128 -141 147 -175 18 -33 36 -61
40 -64 4 -3 24 -36 43 -75 20 -38 43 -81 51 -95 8 -14 22 -45 31 -70 9 -25 25
-63 34 -85 10 -22 28 -71 39 -110 15 -50 24 -112 29 -215 3 -80 6 -197 5 -260
0 -63 -6 -142 -12 -175 -6 -33 -15 -76 -20 -95 -5 -19 -12 -57 -15 -85 -4 -27
-13 -84 -22 -125 -9 -41 -24 -97 -35 -124 -11 -28 -30 -73 -42 -100 -13 -28
-33 -76 -46 -106 -12 -30 -30 -66 -39 -80 -9 -14 -27 -47 -41 -75 -14 -27 -30
-54 -36 -60 -7 -5 -15 -23 -18 -38 -4 -16 -11 -34 -16 -40 -5 -7 -30 -39 -56
-72 -26 -33 -72 -86 -103 -118 -31 -33 -98 -93 -149 -135 -52 -43 -110 -89
-130 -105 -20 -15 -53 -36 -72 -47 -19 -12 -48 -29 -65 -40 -16 -11 -49 -29
-72 -40 -24 -11 -43 -24 -43 -28 0 -4 -10 -8 -23 -10 -13 -1 -43 -12 -68 -25
-24 -13 -89 -38 -144 -55 -55 -17 -117 -34 -138 -37 -20 -4 -40 -11 -43 -16
-3 -5 -24 -9 -47 -9 -23 0 -57 -4 -74 -9 -18 -5 -121 -17 -230 -26 -133 -12
-247 -15 -348 -12 -82 3 -204 11 -270 17 -66 6 -136 15 -155 20 -19 5 -89 14
-155 20 -66 7 -131 13 -145 15 -14 2 -50 6 -80 10 -30 4 -82 11 -115 17 -33 6
-87 13 -120 17 -33 4 -70 12 -83 19 -12 7 -28 12 -35 10 -6 -1 -43 6 -82 16
-38 9 -88 22 -110 28 -22 5 -48 14 -57 19 -10 5 -23 9 -30 9 -6 0 -70 23 -142
51 -71 28 -141 58 -155 68 -15 9 -42 24 -61 33 -19 9 -42 19 -50 23 -8 3 -46
28 -85 56 -38 27 -99 69 -135 93 -36 24 -109 88 -162 144 -53 56 -115 125
-138 154 -22 29 -56 73 -76 98 -20 25 -60 72 -89 105 -29 33 -73 85 -98 115
-24 30 -48 66 -52 80 -4 14 -13 32 -20 40 -7 8 -20 31 -29 50 -8 19 -20 42
-25 50 -5 8 -12 22 -15 30 -3 8 -10 22 -15 30 -5 8 -27 53 -48 100 -22 47 -52
117 -67 156 -15 39 -31 110 -36 158 -6 48 -10 144 -9 214 1 73 7 148 15 176 8
27 14 61 14 75 0 14 12 69 26 121 14 52 37 127 51 165 14 39 34 79 44 91 11
11 19 25 19 31 0 6 12 32 27 59 14 27 32 56 39 64 7 8 20 35 30 60 9 25 26 54
38 66 12 11 39 46 61 78 22 32 82 103 134 157 51 55 98 99 104 99 5 0 31 17
56 37 25 20 62 52 81 70 19 19 45 36 58 39 12 4 22 9 22 13 0 4 32 32 71 62
39 30 82 60 95 67 13 7 29 22 34 33 6 10 15 19 21 19 5 0 33 15 62 34 29 19
64 46 79 60 15 14 32 26 37 26 5 0 17 10 25 21 8 12 29 31 47 43 18 11 41 26
51 32 11 6 55 40 99 75 45 35 117 98 162 139 45 41 107 100 137 130 31 30 77
84 102 120 25 36 75 124 111 195 36 72 83 184 105 250 21 66 47 152 57 190 10
39 22 93 27 120 5 28 13 109 18 180 5 72 11 279 15 460 3 182 10 411 16 510 6
99 15 234 19 300 5 66 7 323 4 570 -2 248 -9 481 -14 520 -6 39 -13 88 -15
110 -2 22 -6 63 -9 92 -2 28 -8 107 -11 175 -5 87 -14 145 -30 199 -13 41 -34
120 -46 174 -11 54 -32 123 -45 153 -13 30 -22 57 -19 60 3 3 -2 16 -11 29 -8
13 -35 62 -59 108 -24 46 -60 108 -79 138 -20 30 -36 58 -36 64 0 5 -12 20
-26 34 -14 13 -45 54 -69 90 -25 36 -67 85 -94 110 -28 24 -68 59 -89 77 -22
17 -44 32 -49 32 -5 0 -22 14 -38 30 -16 17 -35 30 -42 30 -7 0 -30 15 -50 33
-21 18 -67 55 -102 81 -35 26 -70 50 -80 54 -9 3 -38 23 -66 44 -27 21 -56 38
-63 38 -7 0 -31 17 -55 38 -23 21 -59 50 -79 65 -20 15 -64 53 -97 84 -34 32
-79 74 -102 93 -23 19 -48 51 -58 70 -9 19 -34 62 -55 95 -22 33 -50 71 -62
85 -13 14 -53 94 -89 179 -63 145 -68 159 -77 265 -6 61 -10 131 -10 156 0 25
2 101 6 170 3 69 10 166 15 217 6 50 21 131 35 180 13 48 29 113 35 143 7 30
23 78 36 107 14 28 25 60 25 71 0 11 7 25 15 32 8 7 15 20 15 29 0 9 13 43 29
77 16 34 32 76 36 95 4 19 20 50 34 69 15 19 41 57 57 83 16 26 41 64 56 85
15 20 43 60 62 87 18 28 69 86 112 131 44 44 117 114 164 155 47 41 92 79 101
84 9 6 58 38 110 73 51 34 98 62 105 62 7 0 32 9 56 21 23 12 56 27 71 35 16
8 39 14 52 14 13 0 27 5 30 10 3 6 14 10 24 10 10 0 32 7 47 15 16 8 38 15 49
15 11 0 52 12 90 25 39 14 82 25 97 25 14 0 53 7 85 15 32 8 106 16 165 19 59
2 111 6 115 9 5 3 43 9 84 13 41 4 94 8 119 9 25 1 92 10 150 18 58 9 173 24
255 32 83 9 201 18 263 20 62 1 116 5 119 9 3 3 22 4 42 1z m1023 -5119 c81
-4 168 -10 194 -13 29 -3 55 -1 71 8 18 10 26 10 31 1 5 -7 32 -10 77 -8 38 2
77 -2 87 -7 12 -8 35 -7 80 2 35 6 72 12 83 12 11 1 65 -2 120 -7 55 -4 107
-6 115 -5 8 1 56 3 105 5 50 2 95 4 100 6 6 1 12 1 15 0 3 -1 30 -4 60 -6 30
-2 107 -5 170 -7 63 -2 152 -7 198 -12 l82 -8 1 -101 c1 -55 2 -234 4 -396 2
-162 6 -331 9 -375 4 -44 7 -89 7 -100 0 -11 0 -57 -1 -102 0 -45 4 -149 10
-230 6 -81 10 -164 10 -183 -1 -19 -2 -186 -2 -370 -1 -184 -2 -355 -3 -380
-1 -25 -2 -79 -3 -121 l-2 -75 -87 -11 c-49 -6 -196 -9 -328 -7 -132 2 -531 5
-887 7 -356 2 -651 6 -654 10 -4 4 -2 18 4 32 7 14 12 44 12 66 0 22 -7 54
-17 72 -9 18 -24 84 -34 147 -10 63 -23 140 -29 170 -6 30 -14 129 -18 220 -5
91 -4 266 0 390 4 124 8 296 8 382 0 87 -2 168 -5 180 -3 13 -8 106 -11 208
-2 102 -4 244 -4 315 0 72 3 160 6 198 5 56 9 67 24 67 11 0 22 5 25 10 4 6
49 10 111 9 58 0 108 2 112 6 4 4 73 4 154 1z m-3772 -81 l125 0 -1 -30 c0
-16 -2 -61 -3 -100 -2 -38 0 -151 3 -250 4 -99 6 -216 6 -259 -1 -44 -3 -83
-6 -88 -3 -4 -4 -83 -3 -175 1 -92 3 -193 5 -223 1 -30 5 -215 7 -412 3 -196
7 -361 11 -366 3 -6 8 -27 11 -48 2 -22 11 -164 20 -318 9 -153 14 -281 11
-283 -3 -3 -42 -7 -88 -10 -46 -2 -126 -4 -178 -5 -52 0 -120 2 -150 3 -50 4
-55 6 -53 27 2 14 -3 22 -12 22 -9 0 -18 -7 -22 -16 -5 -14 -19 -16 -97 -11
-50 3 -170 2 -266 -2 -96 -4 -178 -5 -182 -3 -4 1 -76 3 -160 4 -84 0 -180 -2
-213 -6 -33 -4 -68 -9 -78 -12 -13 -4 -20 0 -24 15 -3 11 -15 27 -28 35 -12 8
-25 12 -29 9 -3 -3 -1 -14 5 -25 6 -11 8 -22 6 -25 -3 -2 -99 -7 -214 -9 -114
-3 -278 -6 -363 -7 l-155 -2 1 50 c1 28 4 75 7 105 4 30 11 94 17 141 8 57 9
150 4 270 -5 101 -8 290 -9 419 0 129 2 298 5 375 2 77 7 156 11 175 4 19 12
85 18 145 6 61 14 193 17 295 5 152 3 196 -10 246 -9 34 -16 87 -16 118 0 50
2 56 23 60 12 3 56 8 97 11 41 4 102 9 135 10 34 2 96 13 139 25 44 11 87 25
96 30 9 5 64 9 121 9 57 0 133 0 168 1 35 1 74 6 87 10 13 5 37 7 53 4 16 -3
39 -1 51 6 14 7 77 14 154 16 72 2 183 5 246 6 63 2 121 7 129 12 8 5 50 10
95 12 45 2 142 6 216 11 74 4 191 8 260 8z"/>
<g>
<path d="M8461 14193 c-94 4 -105 2 -126 -17 -13 -12 -26 -35 -30 -51 -4 -24
-1 -36 18 -53 21 -20 37 -23 133 -27 60 -2 183 -6 274 -9 91 -3 253 -7 360
-10 107 -3 238 -5 290 -5 52 0 140 5 195 10 55 6 141 15 190 20 50 5 111 9
136 9 32 -1 53 6 73 21 19 15 26 29 24 47 -2 14 -15 34 -31 46 -24 18 -40 20
-130 18 -56 -1 -113 -4 -127 -7 -14 -2 -74 -7 -133 -10 -60 -3 -116 -9 -125
-13 -10 -5 -98 -7 -197 -6 -99 1 -259 5 -355 9 -96 3 -195 8 -220 11 -25 2
-61 7 -80 9 -19 2 -82 6 -139 8z"/>
</g>
<g>
<path d="M9255 13608 c-90 2 -165 0 -168 -5 -3 -4 -7 -35 -8 -68 -4 -56 -3
-59 21 -65 14 -4 62 -5 108 -3 64 3 84 1 88 -10 3 -8 -2 -41 -11 -73 -10 -33
-19 -74 -22 -91 -3 -18 -9 -33 -14 -33 -5 0 -9 -11 -9 -25 0 -14 -4 -33 -9
-43 -5 -9 -16 -48 -25 -87 -9 -38 -16 -79 -16 -90 0 -11 -6 -37 -13 -57 -7
-21 -16 -41 -20 -44 -4 -4 -7 -17 -7 -29 0 -11 -5 -26 -11 -32 -5 -5 -13 -36
-16 -67 -5 -50 -3 -60 17 -81 13 -14 32 -25 42 -25 10 0 29 10 42 23 18 18 25
39 30 98 4 41 12 90 17 109 6 19 15 49 20 65 6 17 12 41 15 55 3 14 9 41 15
60 6 19 14 44 19 55 5 11 21 56 36 100 14 44 27 89 29 100 2 11 15 52 30 90
15 39 29 81 32 95 3 18 -3 32 -22 50 -26 24 -32 25 -190 28z"/>
</g>
<g>
<path d="M10231 12590 c-14 0 -36 -8 -49 -18 -12 -10 -29 -30 -37 -46 -8 -16
-15 -41 -15 -56 0 -21 10 -36 39 -59 21 -17 49 -31 60 -31 12 0 36 7 54 17 18
9 37 23 44 32 6 9 14 33 17 55 5 29 2 43 -10 57 -10 11 -31 26 -47 34 -17 8
-42 15 -56 15z"/>
</g>
<g>
<path d="M7982 12529 c-4 0 -22 -5 -41 -11 -19 -5 -42 -19 -52 -31 -10 -12
-18 -27 -19 -34 0 -7 -7 -16 -15 -20 -13 -8 -12 -15 4 -58 10 -27 29 -57 41
-67 16 -13 37 -18 65 -17 23 2 51 10 61 18 11 9 29 29 42 45 12 16 22 43 22
61 0 18 -8 43 -18 56 -11 12 -30 24 -43 26 -13 2 -27 10 -32 18 -4 8 -11 15
-15 14z"/>
</g>
<g>
<path d="M9870 5439 c-14 -1 -35 -4 -47 -6 -13 -2 -23 -10 -23 -17 0 -7 -16
-26 -35 -43 -19 -17 -35 -39 -35 -48 0 -9 7 -32 16 -50 8 -18 23 -40 33 -49
10 -9 29 -19 42 -22 13 -3 35 -8 49 -11 18 -3 35 4 63 29 31 27 39 42 45 83 4
28 6 62 4 78 -2 15 -9 27 -17 27 -7 0 -26 7 -41 15 -16 8 -40 14 -54 14z"/>
</g>
<g>
<path d="M7636 5329 c-12 0 -28 -3 -36 -7 -9 -4 -25 -14 -36 -22 -11 -8 -25
-34 -32 -57 -8 -28 -10 -49 -3 -60 5 -10 20 -27 33 -39 12 -11 37 -21 53 -22
17 -1 41 2 55 8 14 6 35 29 48 53 12 23 22 53 22 67 0 14 -4 30 -8 36 -4 6
-22 18 -41 27 -19 9 -44 17 -55 16z"/>
</g>
<g>
<path d="M8741 4969 c-14 0 -36 -4 -48 -9 -13 -5 -23 -17 -24 -27 0 -10 -2
-47 -5 -83 -3 -36 -10 -83 -15 -105 -5 -22 -12 -53 -14 -69 -2 -15 -8 -33 -13
-40 -5 -6 -12 -38 -16 -70 -4 -33 -11 -65 -16 -71 -5 -6 -9 -20 -9 -30 0 -11
-11 -63 -25 -115 -14 -52 -32 -114 -40 -137 -9 -24 -17 -63 -18 -88 -1 -35 4
-49 21 -64 16 -14 32 -18 64 -14 23 2 72 8 109 14 37 5 96 9 133 9 52 0 67 3
72 16 3 10 1 31 -5 47 -9 22 -9 33 -1 38 8 5 8 13 -1 28 -9 18 -17 21 -41 16
-17 -4 -43 -9 -57 -11 -15 -2 -53 -7 -84 -10 -55 -6 -57 -6 -63 19 -4 14 -2
34 4 45 6 12 11 32 11 46 0 15 6 52 14 84 8 31 24 95 35 142 12 47 25 108 30
135 6 28 19 84 30 125 12 41 21 87 21 102 0 15 -5 39 -12 53 -8 18 -19 25 -37
24z"/>
</g>
<g>
<path d="M8404 3492 c-18 4 -34 5 -36 2 -3 -2 -52 -7 -109 -10 -57 -3 -137 -7
-177 -9 -40 -3 -81 -9 -92 -15 -10 -6 -22 -26 -26 -45 -3 -19 -4 -41 -1 -49 3
-8 25 -20 49 -26 31 -9 51 -9 78 -1 19 7 53 11 75 10 22 -1 139 -1 260 -2 121
0 272 1 335 2 63 2 189 5 280 8 91 3 188 6 215 7 28 0 115 -1 195 -4 80 -2
150 -8 157 -12 6 -5 39 -7 72 -5 39 2 67 10 80 21 15 14 18 26 14 54 -3 21
-10 44 -14 54 -8 14 -33 16 -201 18 -106 1 -265 2 -353 1 -88 0 -297 -2 -465
-3 -168 -2 -319 0 -336 4z"/>
</g>
</g>
<g>
<path d="M17860 6800 c-5 0 -10 -4 -10 -10 0 -5 5 -10 10 -10 6 0 10 5 10 10
0 6 -4 10 -10 10z"/>
</g>
</g>
</svg>
