<?xml version="1.0" standalone="no"?>
<!DOCTYPE svg PUBLIC "-//W3C//DTD SVG 20010904//EN"
 "http://www.w3.org/TR/2001/REC-SVG-20010904/DTD/svg10.dtd">
<svg version="1.0" xmlns="http://www.w3.org/2000/svg"
 width="1466.000000pt" height="1864.000000pt" viewBox="0 0 1466.000000 1864.000000"
 preserveAspectRatio="xMidYMid meet">
<metadata>
Created by potrace 1.16, written by Peter Selinger 2001-2019
</metadata>
<g transform="translate(0.000000,1864.000000) scale(0.100000,-0.100000)"
fill="#000000" stroke="none">
<g>
<path d="M7084 17650 c-17 0 -33 -2 -36 -5 -3 -3 -23 -7 -44 -9 -21 -2 -52 -7
-69 -11 -16 -4 -44 -13 -62 -21 -18 -8 -35 -19 -38 -24 -3 -6 -16 -10 -28 -10
-12 0 -31 -6 -43 -13 -12 -6 -41 -25 -65 -41 -24 -16 -71 -57 -104 -91 -51
-53 -65 -75 -84 -137 -13 -40 -30 -83 -38 -96 -9 -15 -15 -57 -16 -125 -1 -56
1 -132 5 -169 4 -36 9 -72 10 -80 2 -8 -9 -14 -27 -16 -16 -2 -34 -8 -39 -13
-6 -5 -19 -9 -29 -9 -11 0 -47 -10 -79 -22 -35 -12 -63 -17 -68 -12 -5 5 -5
41 0 83 4 41 6 98 4 127 -1 29 -12 73 -24 98 -11 25 -51 77 -88 115 -39 40
-87 78 -116 90 -27 13 -78 29 -115 36 -36 8 -107 17 -158 21 -58 4 -116 2
-160 -6 -37 -6 -93 -19 -123 -27 -30 -8 -70 -18 -87 -20 -18 -3 -33 -9 -33
-14 0 -5 -7 -9 -15 -9 -8 0 -55 -21 -103 -47 -48 -26 -110 -69 -138 -96 -28
-27 -66 -75 -84 -107 -23 -42 -38 -57 -50 -55 -10 2 -44 16 -76 31 -46 21 -80
29 -154 34 -62 3 -112 1 -145 -7 -27 -7 -79 -20 -115 -31 -36 -10 -87 -28
-115 -41 -27 -12 -69 -31 -91 -41 -23 -10 -59 -34 -80 -52 -20 -18 -56 -59
-79 -90 -23 -32 -44 -55 -47 -53 -3 3 -44 16 -91 30 -47 14 -129 30 -184 36
-54 6 -132 10 -173 9 -41 0 -102 -8 -135 -16 -33 -9 -65 -17 -71 -18 -6 -1
-23 -9 -37 -19 -14 -9 -39 -19 -55 -22 -16 -3 -53 -16 -81 -29 -28 -13 -63
-35 -77 -49 -15 -15 -30 -24 -35 -21 -5 3 -32 -18 -59 -46 -28 -28 -50 -56
-50 -61 0 -5 -7 -12 -15 -15 -8 -4 -13 -10 -10 -14 3 -5 1 -11 -5 -15 -5 -3
-10 -13 -10 -21 0 -8 -8 -26 -17 -41 -10 -14 -18 -31 -20 -37 -1 -6 -11 -36
-22 -66 -11 -32 -25 -110 -32 -185 -6 -73 -9 -187 -6 -260 3 -71 9 -142 12
-157 7 -28 7 -28 -43 -28 -30 0 -86 -12 -138 -30 -47 -16 -94 -36 -104 -45 -9
-8 -21 -15 -26 -15 -5 0 -29 -19 -53 -42 -24 -23 -53 -62 -63 -85 -10 -23 -23
-45 -28 -48 -4 -3 -18 -33 -29 -68 -11 -34 -25 -87 -30 -117 -6 -30 -12 -95
-12 -145 -1 -62 3 -102 15 -128 8 -21 29 -55 44 -75 16 -21 37 -56 47 -79 11
-24 22 -43 26 -43 4 0 11 -12 16 -27 5 -16 8 -35 6 -43 -3 -8 -36 -37 -74 -65
-39 -27 -88 -71 -110 -96 -21 -26 -39 -50 -39 -53 0 -4 -13 -24 -29 -44 -25
-32 -30 -52 -41 -144 -10 -86 -10 -125 0 -205 7 -54 25 -134 39 -178 15 -44
37 -99 49 -122 12 -23 33 -55 47 -70 14 -15 41 -47 61 -71 20 -23 57 -57 83
-76 25 -18 58 -36 73 -40 l27 -6 -28 -43 c-15 -23 -38 -75 -50 -116 -16 -53
-21 -87 -16 -117 l6 -42 -118 2 c-95 1 -126 -3 -158 -17 -22 -10 -62 -30 -90
-44 -27 -15 -68 -39 -90 -54 -22 -15 -52 -40 -67 -56 -15 -15 -52 -66 -82
-113 -31 -47 -56 -94 -56 -105 0 -11 -9 -44 -20 -73 -11 -29 -24 -60 -29 -70
-5 -9 -14 -39 -22 -67 -7 -27 -14 -106 -15 -175 -3 -101 0 -135 15 -180 11
-30 26 -68 34 -85 9 -16 21 -41 27 -55 5 -14 19 -38 30 -55 11 -16 28 -46 39
-66 11 -20 43 -57 72 -83 29 -26 75 -58 103 -71 28 -13 76 -33 106 -44 30 -12
78 -24 105 -28 28 -3 67 -15 88 -26 20 -10 70 -22 110 -26 39 -3 101 -3 137 2
36 4 88 19 116 32 28 14 57 25 65 25 8 0 25 7 37 16 12 8 28 14 34 12 7 -3 5
-9 -5 -19 -8 -9 -20 -32 -25 -52 -6 -21 -9 -72 -8 -115 3 -67 9 -90 41 -158
21 -43 49 -103 61 -133 13 -30 36 -66 51 -81 15 -15 47 -48 71 -73 23 -25 42
-43 42 -40 0 3 15 -6 33 -20 18 -14 62 -38 98 -55 36 -16 101 -37 145 -47 43
-10 107 -17 140 -16 34 1 81 7 105 15 24 7 52 17 63 21 17 7 18 5 11 -26 -5
-19 -8 -72 -9 -119 0 -71 5 -97 28 -155 16 -38 37 -88 47 -110 9 -22 37 -59
61 -82 24 -23 68 -57 99 -76 30 -18 75 -39 100 -45 24 -6 76 -16 114 -21 39
-6 106 -11 150 -13 44 -1 109 4 144 10 35 6 67 10 70 7 4 -2 8 -30 9 -62 1
-32 9 -76 18 -98 9 -22 25 -60 36 -85 10 -25 46 -73 80 -107 33 -35 64 -63 69
-63 4 0 22 -13 38 -29 17 -17 68 -48 113 -70 46 -22 101 -44 123 -48 22 -4 92
-7 155 -7 103 0 121 3 174 27 32 15 69 27 81 27 13 0 46 12 75 27 29 15 77 54
108 89 31 34 66 79 77 101 11 21 33 61 49 88 16 28 37 72 48 100 10 27 18 58
18 68 0 17 8 18 113 11 61 -4 138 -6 171 -5 32 1 81 11 110 21 28 11 65 20 81
20 17 0 59 14 93 30 35 17 67 30 72 30 4 0 10 -17 14 -39 4 -28 17 -48 46 -75
23 -20 39 -40 36 -44 -2 -4 1 -17 7 -28 7 -12 28 -39 47 -61 19 -23 51 -48 70
-56 19 -8 55 -20 80 -26 25 -7 78 -21 119 -31 41 -11 95 -22 120 -25 25 -3 75
-7 111 -10 36 -4 112 -2 170 4 58 6 134 16 170 24 36 8 76 20 89 28 13 8 31
20 40 26 9 7 27 23 42 35 14 13 50 43 80 67 29 25 69 59 87 75 18 17 49 53 70
81 20 27 47 70 59 95 12 25 23 50 23 56 0 6 9 31 19 55 11 25 24 89 30 147 6
57 8 129 5 160 -3 32 -12 89 -21 127 -8 39 -26 96 -39 129 -13 32 -21 62 -18
67 3 5 14 9 24 9 11 0 45 10 77 22 32 11 72 36 89 53 17 18 49 42 71 54 22 11
52 34 67 51 14 17 26 37 26 44 0 7 13 30 28 52 16 21 47 75 69 119 23 44 52
118 66 165 14 47 30 106 36 133 6 26 11 92 11 147 0 54 -6 123 -14 152 -7 29
-21 70 -30 92 -9 21 -16 42 -16 45 0 4 22 13 50 20 27 7 52 17 56 22 3 5 26
18 52 30 26 11 61 27 79 35 17 8 66 54 109 102 42 48 80 96 84 107 4 11 20 47
36 80 25 53 28 71 28 160 0 76 -5 112 -21 151 -15 40 -17 54 -8 67 6 8 47 37
91 64 43 27 96 66 116 86 20 21 53 59 72 85 19 26 44 74 56 107 12 33 27 85
32 115 6 30 14 60 18 65 4 6 6 39 5 75 -2 47 -10 80 -30 120 -16 30 -31 57
-34 60 -3 3 -25 31 -48 62 -24 31 -53 67 -66 80 -13 13 -33 31 -44 41 -11 9
-46 24 -79 33 -32 8 -63 19 -68 24 -5 5 8 37 31 77 23 37 47 84 56 104 8 20
18 76 21 125 4 51 2 112 -4 144 -6 30 -13 73 -16 95 -3 22 -17 74 -31 115 -16
47 -37 88 -58 110 -18 19 -62 65 -97 102 -53 55 -63 70 -55 85 5 10 24 34 42
53 18 19 39 49 47 65 8 17 22 46 31 65 8 19 24 55 34 80 11 25 25 66 32 92 9
30 12 86 9 157 -2 70 -8 115 -16 123 -6 6 -12 22 -12 34 0 12 -7 38 -15 57 -8
20 -28 56 -43 81 -16 24 -42 55 -58 68 -16 13 -47 35 -70 50 -22 14 -63 34
-90 44 -31 11 -82 18 -139 19 -49 0 -90 3 -89 6 0 2 4 24 8 49 4 24 12 50 19
58 7 9 11 58 11 136 0 111 -3 129 -33 219 -21 64 -48 117 -76 156 -24 33 -54
65 -66 71 -12 7 -41 32 -65 55 -24 24 -64 53 -89 64 -25 11 -60 30 -78 43 -17
12 -47 23 -65 23 -19 1 -37 6 -40 12 -4 6 -17 13 -29 17 -12 4 -44 7 -70 7
-26 0 -64 -2 -83 -5 -19 -2 -52 -7 -72 -11 l-38 -7 -1 78 c-1 44 -2 84 -3 89
-1 6 -5 35 -10 65 -5 30 -20 80 -34 110 -15 30 -41 78 -58 105 -18 28 -54 71
-81 96 -26 26 -73 61 -103 77 -30 17 -68 33 -85 36 -16 2 -46 9 -65 15 -19 6
-49 11 -66 11z m33 -104 c25 -2 80 -23 139 -52 86 -43 103 -56 136 -104 21
-30 48 -73 59 -95 11 -22 27 -73 35 -113 8 -41 14 -111 14 -155 0 -78 -2 -84
-29 -110 -16 -15 -33 -27 -39 -27 -5 0 -16 45 -25 100 -11 71 -25 119 -48 167
-19 37 -58 91 -89 122 -30 31 -67 66 -82 77 -21 16 -38 21 -72 18 -25 -2 -48
1 -51 6 -3 6 -28 10 -55 10 -27 0 -52 -4 -55 -10 -3 -5 -14 -10 -24 -10 -9 0
-37 -10 -62 -21 -24 -12 -69 -47 -99 -78 -30 -31 -60 -68 -66 -81 -6 -14 -16
-36 -22 -50 -6 -14 -15 -41 -22 -60 -6 -19 -13 -66 -16 -105 -4 -49 -2 -82 9
-110 8 -22 18 -48 22 -58 7 -16 2 -18 -49 -14 -31 2 -59 6 -61 9 -3 3 -10 56
-17 119 -9 87 -9 132 1 197 6 46 23 106 36 134 13 27 43 74 67 103 24 30 51
54 61 55 9 0 17 5 17 10 0 6 7 10 15 10 8 0 15 4 15 9 0 4 21 16 48 26 26 10
54 23 62 30 8 6 29 17 46 24 16 6 59 16 95 21 35 4 83 7 106 6z m-117 -252
c19 -2 58 -9 85 -14 34 -7 68 -24 106 -55 41 -32 65 -63 93 -116 36 -68 38
-78 39 -163 0 -88 -1 -94 -35 -147 -19 -30 -50 -67 -68 -82 -18 -15 -47 -34
-65 -41 -24 -10 -50 -12 -101 -6 -38 5 -93 13 -122 19 -29 6 -61 15 -72 21
-11 6 -32 29 -45 50 -14 22 -29 40 -35 40 -5 0 -19 21 -30 48 -17 38 -21 62
-18 122 3 51 11 91 27 124 12 27 28 55 34 63 7 8 29 31 50 51 22 20 58 49 80
63 31 20 52 26 77 23z m-1295 -68 c50 -3 115 -9 145 -14 30 -4 82 -20 115 -35
45 -21 72 -42 107 -86 35 -42 52 -75 64 -121 13 -52 14 -78 5 -162 -6 -54 -8
-111 -5 -124 5 -19 0 -32 -22 -55 -15 -16 -31 -29 -34 -29 -4 0 -10 40 -13 89
-4 52 -16 114 -28 148 -12 32 -33 78 -48 103 -14 25 -30 51 -36 58 -5 7 -21
25 -35 40 -14 15 -45 42 -70 59 -25 18 -74 39 -109 48 -34 9 -82 17 -105 17
-22 1 -59 -2 -81 -6 -22 -4 -56 -14 -75 -23 -19 -9 -69 -31 -109 -51 -52 -24
-91 -52 -128 -90 -29 -31 -53 -62 -53 -70 0 -7 -8 -32 -19 -55 -10 -23 -21
-50 -24 -60 -7 -18 -8 -17 -34 2 -16 11 -36 27 -45 34 -10 8 -18 27 -18 44 0
16 8 40 18 53 9 12 39 45 65 71 27 27 69 61 95 75 26 15 63 37 82 50 19 12 65
32 102 43 37 11 91 23 120 27 29 4 60 11 68 16 8 5 56 6 105 4z m-90 -156 c11
0 53 -8 94 -17 63 -15 82 -25 126 -65 35 -32 64 -72 88 -120 20 -40 39 -91 42
-113 3 -22 8 -62 11 -90 5 -39 1 -63 -18 -110 -22 -54 -36 -70 -133 -152 -73
-61 -119 -93 -142 -97 -18 -3 -48 -9 -67 -12 -19 -3 -52 0 -72 6 -21 7 -43 17
-48 21 -6 5 -37 31 -70 58 -32 26 -71 68 -87 91 -16 24 -36 65 -44 92 -8 27
-20 93 -26 147 -10 77 -10 108 -1 139 9 28 32 58 76 99 55 52 75 63 157 91 52
17 103 32 114 32z m-920 -174 c57 -2 95 -9 130 -25 28 -12 59 -24 69 -27 11
-2 22 -7 25 -11 3 -5 20 -15 36 -23 17 -8 56 -42 88 -75 32 -33 65 -73 74 -89
8 -16 21 -49 29 -75 7 -25 16 -66 19 -91 4 -25 6 -67 6 -94 0 -27 -6 -65 -12
-85 -6 -20 -15 -44 -20 -53 -5 -10 -9 -24 -9 -33 0 -8 -9 -19 -19 -25 -11 -5
-24 -10 -29 -10 -6 0 -9 62 -8 158 1 151 0 160 -28 235 -23 62 -38 86 -75 119
-25 22 -57 45 -71 50 -13 5 -75 9 -136 9 -62 -1 -125 -5 -141 -11 -15 -6 -37
-15 -48 -20 -11 -5 -48 -21 -82 -36 -34 -14 -69 -24 -77 -21 -8 3 -27 1 -43
-5 -19 -7 -48 -39 -83 -90 l-55 -80 -30 35 c-16 19 -38 45 -47 58 -10 13 -18
29 -18 35 0 7 4 23 9 36 5 13 36 50 69 82 33 32 72 64 87 72 15 8 33 14 39 14
7 0 18 6 24 13 7 6 39 17 70 24 31 7 84 19 117 27 36 9 92 14 140 12z m3058
-7 c22 1 63 -3 91 -10 29 -6 64 -20 77 -31 l24 -20 -40 7 c-22 4 -44 6 -50 6
-5 0 -44 -3 -85 -7 -57 -5 -81 -11 -100 -28 -14 -12 -37 -28 -51 -35 -15 -7
-37 -26 -48 -42 -12 -16 -28 -29 -35 -29 -8 0 -32 -37 -55 -82 -26 -55 -44
-108 -51 -155 -8 -57 -7 -92 5 -165 9 -51 21 -113 27 -138 6 -25 17 -57 25
-72 7 -15 28 -41 45 -58 18 -16 67 -47 108 -68 l74 -37 137 0 c129 0 139 1
161 23 14 12 28 22 33 22 4 0 32 18 62 40 29 23 65 60 80 83 15 23 34 58 41
77 8 19 18 62 24 95 5 33 7 93 4 133 -4 52 -18 103 -45 173 -21 54 -37 99 -35
99 2 0 15 -12 29 -27 14 -16 37 -53 52 -83 14 -30 32 -77 39 -105 8 -27 14
-81 14 -118 0 -37 -7 -100 -16 -140 -10 -43 -29 -90 -47 -117 -17 -25 -63 -76
-102 -115 -39 -38 -84 -76 -100 -84 -17 -7 -43 -18 -60 -23 -16 -5 -66 -16
-110 -24 -44 -7 -107 -14 -141 -14 -34 0 -82 3 -107 6 -34 5 -47 12 -56 30 -6
13 -17 24 -24 24 -7 0 -28 16 -47 35 -19 19 -39 35 -46 35 -6 0 -27 24 -45 53
-19 28 -40 63 -46 77 -6 14 -18 41 -26 60 -9 19 -18 56 -22 82 -3 26 -14 70
-25 99 -13 40 -16 59 -8 78 5 14 7 47 3 74 -3 26 -1 55 4 66 6 10 13 31 15 48
3 16 13 43 21 61 9 17 43 56 76 86 33 30 95 71 137 92 42 21 99 43 127 49 27
6 67 12 88 14z m77 -155 c8 -1 42 -5 75 -9 46 -5 71 -15 108 -42 26 -19 47
-38 47 -42 0 -5 11 -19 24 -32 13 -14 36 -54 50 -89 13 -36 31 -86 39 -112 12
-40 12 -55 1 -90 -7 -24 -16 -64 -19 -90 -4 -32 -14 -54 -33 -72 -15 -14 -43
-40 -62 -58 -19 -18 -47 -41 -62 -51 -20 -12 -57 -18 -134 -22 -58 -3 -111 -2
-118 3 -6 4 -24 9 -41 11 -16 1 -53 20 -81 42 -46 36 -53 46 -73 113 -12 41
-25 105 -28 144 -3 42 -1 90 7 123 7 30 24 79 37 110 16 36 40 69 68 92 24 21
57 42 72 49 15 6 46 14 68 18 22 4 47 6 55 4z m-1296 -35 c72 1 116 -2 121 -8
3 -6 14 -11 24 -11 10 0 33 -7 52 -17 19 -9 59 -34 90 -55 32 -22 73 -63 96
-98 23 -32 44 -74 48 -92 4 -18 14 -46 22 -62 8 -15 15 -53 15 -82 0 -37 -5
-60 -16 -72 -9 -10 -20 -43 -26 -72 -8 -41 -24 -71 -68 -129 -31 -42 -70 -88
-87 -103 -16 -15 -41 -32 -55 -39 -14 -6 -33 -15 -43 -20 -10 -6 -59 -23 -110
-40 -57 -20 -112 -31 -147 -31 -30 0 -75 7 -100 17 -25 10 -64 20 -88 22 -34
4 -49 13 -75 43 -18 21 -52 72 -75 112 -23 41 -48 98 -56 126 -8 34 -12 87 -9
150 4 71 11 115 31 167 14 39 39 88 56 109 17 22 40 49 51 61 11 12 41 36 67
53 26 18 71 37 100 44 29 6 57 14 61 18 4 4 59 8 121 9z m-1728 -33 c22 -2 53
-9 70 -17 16 -8 43 -35 61 -61 19 -30 34 -67 39 -100 4 -29 7 -91 6 -138 -1
-47 -4 -96 -7 -110 -3 -14 -8 -42 -11 -63 -5 -29 -13 -41 -33 -49 -14 -6 -28
-12 -31 -12 -3 -1 -30 -14 -62 -29 -31 -15 -58 -31 -60 -36 -1 -5 -31 -39 -65
-74 -55 -58 -63 -63 -76 -49 -10 9 -38 16 -79 17 -35 2 -68 3 -75 4 -7 0 -23
13 -37 27 -16 18 -28 48 -36 93 -6 36 -21 95 -31 131 -11 36 -27 78 -36 93 -8
16 -17 54 -20 86 -5 51 -2 62 27 109 20 33 39 52 50 52 11 0 35 11 55 24 20
14 57 32 83 41 26 9 63 24 82 32 19 9 60 19 90 24 30 4 73 6 96 5z m-1136 -13
c36 -2 106 -11 155 -20 50 -9 95 -19 100 -23 6 -4 28 -13 50 -20 27 -9 65 -39
123 -97 46 -47 94 -108 109 -136 14 -29 37 -73 50 -99 13 -26 28 -67 33 -90 5
-24 14 -63 20 -88 8 -28 10 -84 6 -150 -3 -58 -8 -114 -10 -125 -3 -11 -11
-42 -17 -70 -6 -27 -21 -63 -33 -80 -12 -16 -30 -47 -41 -67 -11 -21 -23 -38
-27 -38 -4 0 -25 -27 -48 -59 -23 -33 -55 -65 -71 -71 -16 -7 -29 -16 -29 -20
0 -4 -17 -15 -37 -24 -21 -9 -65 -32 -98 -51 -33 -19 -68 -35 -78 -35 -10 0
-34 -8 -55 -17 -20 -9 -41 -17 -47 -18 -5 -1 -28 -5 -50 -9 -22 -4 -63 -14
-92 -22 -29 -9 -57 -13 -62 -10 -5 4 -13 1 -16 -5 -5 -7 -28 -8 -68 -4 -33 3
-95 17 -136 31 -42 14 -78 28 -81 32 -3 4 -21 16 -40 26 -19 11 -47 33 -62 50
-15 17 -28 38 -28 46 -1 8 -15 38 -30 65 -16 28 -43 79 -60 115 -17 36 -38 90
-46 120 -9 35 -14 105 -14 200 0 80 5 163 11 185 6 22 14 59 19 83 6 24 17 64
25 90 9 26 22 61 29 77 8 17 20 43 27 59 8 16 34 45 59 64 25 20 54 45 65 58
11 12 43 33 70 47 28 14 73 34 100 45 28 11 79 27 115 36 36 8 83 17 105 19
22 2 69 2 105 0z m3526 -54 c7 1 14 -6 17 -14 4 -8 0 -27 -8 -42 -8 -15 -15
-44 -15 -64 0 -21 -7 -42 -16 -50 -8 -7 -36 -12 -61 -12 -25 1 -51 7 -59 14
-7 8 -15 25 -17 39 -3 14 -14 42 -26 63 -12 21 -21 40 -21 42 0 3 35 5 78 6
42 0 86 4 97 9 11 5 25 9 31 9z m-1235 -226 c4 -11 5 -42 3 -69 -2 -27 -3 -57
-4 -67 0 -11 -21 -39 -46 -63 -26 -24 -67 -51 -93 -60 -25 -10 -60 -28 -78
-41 -31 -22 -33 -23 -70 -7 -21 9 -51 22 -68 29 -16 6 -50 21 -75 32 -25 11
-60 24 -77 27 -18 4 -40 17 -48 29 -8 11 -25 22 -37 24 -13 2 -42 25 -65 51
-35 39 -42 53 -40 84 1 22 7 38 14 38 7 0 33 -22 57 -48 25 -27 76 -65 113
-84 38 -20 87 -39 110 -43 24 -4 67 -1 100 5 32 7 78 21 103 32 25 11 63 37
85 57 22 21 55 50 74 65 33 26 35 27 42 9z m1246 -133 c6 0 16 -15 22 -32 5
-18 12 -47 16 -64 l6 -31 -57 1 c-56 1 -58 0 -86 -39 -16 -22 -38 -57 -49 -78
-19 -37 -21 -38 -39 -22 -17 16 -17 18 14 78 17 34 37 76 44 92 7 17 19 38 26
48 8 11 32 25 53 32 21 8 43 14 50 15z m-1967 -142 c3 1 37 -7 75 -18 39 -10
104 -30 145 -44 41 -14 82 -26 91 -26 9 0 19 -7 23 -15 3 -8 13 -15 22 -15 9
0 31 -12 49 -27 18 -16 49 -40 68 -56 20 -15 68 -65 107 -111 38 -46 70 -89
70 -96 0 -7 11 -32 25 -55 13 -24 32 -64 41 -91 14 -40 16 -74 11 -189 -3 -77
-9 -150 -13 -162 -3 -12 -13 -24 -21 -28 -9 -3 -18 -3 -21 0 -4 3 1 25 9 48 8
23 15 49 14 57 0 8 -4 44 -9 80 -4 36 -14 88 -23 115 -8 28 -33 85 -55 128
-30 56 -58 94 -105 137 -36 32 -86 69 -112 80 -25 12 -58 28 -72 35 -14 8 -76
19 -137 26 -85 9 -118 9 -137 1 -14 -7 -40 -12 -58 -12 -18 0 -51 -9 -74 -20
-24 -10 -43 -23 -43 -29 0 -5 -19 -21 -42 -35 -24 -14 -55 -37 -70 -50 -15
-13 -38 -51 -52 -85 -15 -33 -26 -68 -26 -77 0 -9 -6 -30 -14 -47 -8 -18 -24
-68 -37 -112 -12 -44 -24 -109 -28 -145 -4 -48 -10 -65 -21 -66 -8 0 -19 3
-25 7 -5 4 -37 17 -70 28 -32 12 -67 21 -76 21 -9 0 -22 14 -30 32 -9 22 -13
74 -12 159 1 91 7 144 19 186 10 32 21 60 24 63 3 3 15 25 28 50 12 25 34 63
47 85 13 21 54 67 91 102 37 34 94 75 128 91 33 16 102 39 151 50 50 12 101
23 115 25 14 2 27 5 30 5z m715 -8 c8 0 15 -4 15 -10 0 -5 -8 -18 -18 -27 -9
-10 -29 -27 -43 -38 -14 -11 -33 -32 -43 -47 -10 -16 -21 -28 -25 -28 -4 0
-17 9 -29 20 -12 12 -22 26 -22 33 0 7 17 20 38 29 20 9 54 24 75 32 20 8 37
20 37 25 0 6 7 11 15 11z m1256 -56 c9 -8 19 -29 21 -45 4 -24 0 -30 -16 -34
-12 -3 -37 -1 -56 3 -20 5 -35 14 -35 22 0 8 10 16 23 18 12 2 22 9 22 16 0 6
5 17 12 24 9 9 16 8 29 -4z m1189 -49 c8 -2 46 -6 83 -10 43 -4 87 -16 118
-32 27 -15 75 -54 107 -87 42 -45 61 -75 70 -111 8 -28 17 -68 20 -90 4 -22 6
-74 5 -115 -1 -41 -6 -92 -13 -115 -6 -22 -27 -71 -45 -110 -19 -38 -55 -92
-79 -120 -25 -27 -52 -57 -59 -66 -13 -14 -21 -15 -63 -4 -27 7 -47 16 -45 21
3 5 24 26 48 48 24 21 51 55 60 75 10 20 32 61 49 93 19 34 37 84 44 127 10
61 9 80 -6 143 -10 40 -26 85 -36 100 -10 14 -18 30 -18 36 0 5 -9 21 -21 36
-11 14 -40 38 -64 52 -26 15 -65 27 -96 30 -29 3 -56 7 -61 10 -4 3 -43 0 -86
-6 -42 -7 -82 -16 -89 -22 -7 -5 -17 -7 -23 -3 -5 3 -10 1 -10 -5 0 -6 -4 -9
-9 -6 -5 4 6 23 25 44 18 20 44 47 56 60 17 18 30 22 53 18 16 -2 39 -1 50 4
11 5 27 7 35 5z m-2413 -15 c7 0 18 -10 24 -22 10 -18 6 -31 -22 -85 -18 -35
-37 -63 -41 -63 -4 0 -14 11 -23 23 -14 22 -13 28 6 72 12 27 27 54 33 61 6 7
16 13 23 14z m990 -72 c19 -18 41 -45 48 -59 8 -15 11 -29 8 -33 -4 -3 -16 -6
-27 -6 -12 0 -36 -9 -54 -20 -18 -11 -37 -18 -41 -15 -5 2 -11 23 -15 46 -6
36 -3 48 20 81 l27 39 34 -33z m334 31 c8 1 30 -14 48 -33 22 -23 32 -41 29
-57 -3 -24 -5 -24 -117 -24 -88 0 -119 4 -132 15 -9 8 -20 25 -23 36 -6 21 -4
21 61 17 62 -5 70 -3 93 20 14 14 32 25 41 26z m-2867 -54 c11 -4 49 -11 84
-16 35 -4 67 -11 72 -14 6 -4 10 -10 10 -15 0 -5 -14 -33 -32 -62 -18 -29 -33
-54 -34 -56 -1 -2 -23 -4 -47 -4 -26 0 -56 8 -71 18 -25 16 -26 20 -20 78 4
33 9 65 11 69 3 5 15 6 27 2z m1644 -45 c4 0 29 -23 57 -51 49 -50 49 -51 30
-68 -11 -9 -25 -27 -30 -41 -6 -14 -12 -55 -14 -92 -2 -56 1 -72 18 -94 12
-15 21 -33 21 -40 0 -7 13 -29 30 -47 18 -21 52 -43 89 -57 45 -16 69 -20 105
-15 25 4 51 13 57 21 6 8 16 14 22 14 5 0 24 10 41 23 17 13 39 26 48 30 9 3
28 25 42 49 19 33 26 60 28 113 2 39 -1 85 -5 102 -8 30 -6 34 20 43 15 6 39
15 53 21 14 6 38 17 53 25 16 8 36 14 44 14 13 0 15 -8 9 -46 -5 -37 -15 -55
-56 -97 -28 -29 -66 -80 -85 -114 -18 -33 -38 -79 -44 -100 -5 -21 -16 -59
-23 -85 -9 -35 -17 -48 -30 -48 -10 0 -21 -8 -25 -17 -3 -10 -22 -33 -41 -51
-30 -29 -40 -33 -66 -27 -17 4 -80 10 -141 14 -102 6 -110 8 -113 27 -2 12
-17 28 -38 37 -19 9 -37 25 -41 34 -3 10 -13 26 -21 36 -11 12 -17 45 -19 105
-2 48 -8 103 -14 122 -6 19 -22 59 -35 88 -13 29 -24 56 -24 61 0 4 11 13 25
19 14 6 25 18 25 25 0 8 9 26 21 41 11 14 23 26 27 26z m2302 -26 c25 -2 59
-6 75 -9 17 -3 38 -8 48 -11 9 -3 32 -25 51 -50 22 -29 40 -69 51 -114 11 -46
15 -86 11 -115 -4 -24 -11 -47 -17 -50 -5 -4 -9 -16 -9 -27 0 -11 -10 -41 -22
-66 -13 -24 -41 -60 -63 -79 -22 -19 -53 -41 -70 -48 -16 -8 -55 -19 -85 -26
-30 -7 -86 -11 -123 -10 -44 1 -78 7 -95 18 -15 9 -46 35 -70 57 -24 23 -52
60 -63 84 -12 25 -20 64 -20 90 1 26 4 63 9 82 5 25 14 36 32 40 13 3 27 15
30 25 3 11 20 41 37 67 18 25 50 60 71 77 22 17 69 39 108 50 39 11 89 17 114
15z m-916 -4 c3 0 8 -4 11 -10 3 -5 1 -10 -4 -10 -6 0 -11 5 -11 10 0 6 2 10
4 10z m615 -12 c2 -5 -1 -14 -7 -20 -5 -5 -20 -8 -33 -6 -24 3 -23 4 6 20 18
10 31 12 34 6z m-2714 -9 c28 0 79 -8 114 -19 34 -11 75 -28 90 -38 14 -10 33
-22 41 -26 8 -4 25 -13 38 -20 12 -7 34 -24 47 -36 14 -13 25 -29 25 -36 0 -6
7 -17 15 -24 8 -7 22 -26 31 -44 9 -17 25 -56 35 -86 11 -30 22 -93 26 -140
l6 -86 -49 -43 c-27 -24 -59 -47 -72 -52 -19 -8 -21 -12 -12 -30 10 -18 6 -27
-32 -68 -24 -27 -59 -56 -78 -66 -19 -10 -44 -23 -55 -28 -11 -6 -60 -11 -110
-13 -66 -1 -114 4 -183 21 -81 20 -98 29 -145 70 -28 26 -63 53 -77 58 -14 6
-39 25 -56 42 -22 22 -33 45 -38 78 -4 25 -4 64 -1 86 3 23 12 55 20 73 7 18
16 56 20 83 4 28 21 79 37 114 16 36 43 81 60 100 17 20 45 44 61 54 17 10 36
25 43 32 8 7 40 19 71 25 32 7 63 14 68 15 6 2 33 4 60 4z m2603 -20 c6 1 12
-6 12 -14 0 -8 -4 -15 -8 -15 -4 0 -22 -35 -40 -78 -18 -43 -32 -92 -32 -110
0 -17 -4 -33 -9 -36 -5 -3 -16 6 -26 20 -12 19 -15 37 -10 72 3 26 18 68 33
95 14 27 36 53 47 58 11 4 26 8 33 8z m-343 -32 c8 0 15 -4 15 -9 0 -4 -4 -8
-9 -8 -6 0 -12 4 -15 8 -3 5 1 9 9 9z m168 -5 c9 -2 17 -6 17 -9 0 -2 -5 -25
-11 -51 -7 -26 -15 -50 -18 -55 -4 -4 -19 5 -33 20 -21 24 -24 33 -17 60 5 17
17 33 27 35 9 2 25 2 35 0z m-592 -4 c77 2 115 -2 142 -13 20 -8 48 -15 62
-15 14 0 76 -25 138 -55 98 -47 123 -65 204 -144 51 -50 104 -110 118 -135 14
-24 37 -72 51 -107 13 -35 31 -95 39 -134 8 -38 15 -102 15 -141 0 -44 -8 -98
-21 -140 -11 -38 -34 -94 -51 -124 -16 -30 -63 -88 -104 -128 -54 -53 -92 -81
-146 -106 -40 -18 -95 -41 -121 -50 -26 -9 -71 -17 -100 -17 -29 -1 -95 4
-147 11 -52 7 -114 19 -137 27 -34 12 -44 22 -56 56 -9 23 -17 65 -18 92 -3
50 -3 50 26 48 17 -1 55 -5 85 -8 30 -4 94 -9 141 -12 49 -3 111 0 143 7 38 8
79 27 123 57 36 24 78 58 93 75 15 16 32 40 37 51 6 12 19 45 30 72 11 28 26
66 32 86 6 19 11 49 11 66 0 17 -7 55 -16 84 -8 30 -24 81 -35 114 -11 33 -35
83 -54 110 -19 28 -53 71 -77 97 -24 25 -67 61 -97 79 -29 18 -79 39 -110 46
-31 8 -72 16 -91 19 -19 2 -48 6 -64 7 -16 2 -56 -1 -90 -6 -45 -6 -87 -23
-158 -63 -66 -37 -112 -71 -143 -107 -25 -28 -62 -83 -82 -122 -34 -68 -35
-72 -30 -153 l6 -84 -42 25 c-23 14 -49 36 -59 49 -14 20 -15 34 -7 98 5 41
19 102 31 135 12 33 37 81 55 106 18 26 33 51 33 56 0 5 19 27 43 49 23 22 67
57 97 76 30 20 73 41 95 47 22 6 54 12 70 14 17 1 78 4 136 5z m-911 -33 c16
-8 55 -15 86 -15 32 0 72 5 90 12 30 11 35 10 54 -12 11 -13 20 -28 20 -35 0
-6 -5 -37 -11 -69 -10 -49 -19 -63 -62 -101 -41 -37 -56 -45 -88 -45 -22 0
-58 9 -79 20 -22 11 -51 38 -65 60 -14 22 -25 50 -25 62 0 13 4 38 10 57 5 18
16 44 25 57 15 23 17 23 45 9z m-1936 -35 c8 0 18 -5 22 -12 4 -7 3 -8 -4 -4
-7 4 -12 2 -12 -3 0 -6 -4 -11 -10 -11 -5 0 -10 7 -10 15 0 8 6 15 14 15z
m-1523 -103 c53 -2 62 -6 84 -32 14 -17 24 -39 22 -50 -1 -15 -11 -21 -39 -23
-20 -2 -42 -10 -48 -18 -7 -8 -20 -14 -30 -14 -10 0 -23 -7 -30 -15 -6 -8 -15
-13 -20 -12 -4 1 -35 -23 -70 -53 -42 -38 -69 -72 -86 -109 -13 -29 -24 -60
-24 -67 0 -7 -9 -30 -19 -51 -12 -24 -22 -72 -26 -128 -4 -49 -7 -101 -6 -114
1 -13 8 -38 16 -54 8 -17 15 -34 15 -39 0 -4 -6 -8 -14 -8 -8 0 -21 12 -29 28
-8 15 -34 61 -58 102 l-43 75 2 100 c1 60 9 118 18 145 9 25 22 56 29 70 7 14
18 42 25 64 7 21 34 60 60 87 32 33 66 55 106 70 33 12 61 22 64 22 3 0 13 5
24 12 11 8 42 13 77 12z m1548 -7 c4 0 26 -9 49 -20 23 -11 42 -26 42 -33 0
-7 9 -30 20 -51 10 -22 22 -66 26 -99 l7 -60 -54 8 c-30 5 -88 8 -130 6 -57
-1 -79 2 -88 13 -9 10 -11 34 -7 73 3 32 6 64 7 71 1 7 29 30 62 52 33 22 62
40 66 40z m2852 -41 c9 0 42 -4 75 -10 32 -7 64 -15 69 -19 6 -4 24 -11 41
-14 17 -4 40 -15 51 -25 11 -10 29 -22 40 -25 12 -4 43 -33 70 -66 26 -32 58
-78 70 -102 12 -24 27 -63 35 -88 7 -25 13 -86 13 -136 -1 -74 -5 -96 -22
-125 -12 -18 -40 -51 -61 -73 -22 -21 -51 -44 -64 -52 -12 -7 -43 -24 -68 -36
-39 -20 -59 -22 -161 -22 -81 1 -132 7 -169 19 -29 10 -63 23 -76 30 -13 6
-60 50 -104 96 -49 50 -92 106 -107 138 -15 31 -27 78 -30 115 -4 48 0 74 18
121 13 33 24 67 25 75 2 8 20 30 40 48 21 17 39 30 41 28 2 -1 19 12 39 30 19
19 42 34 50 34 8 0 14 3 14 8 0 4 12 13 28 19 15 7 50 16 77 21 28 6 57 10 66
11z m-4252 -130 c3 0 13 -6 23 -16 10 -9 18 -22 18 -29 0 -7 21 -35 48 -61 26
-27 67 -59 92 -71 25 -12 60 -35 78 -51 30 -28 32 -34 32 -95 0 -36 -5 -88
-11 -117 -6 -28 -29 -85 -51 -126 -23 -41 -47 -77 -54 -80 -8 -3 -29 2 -47 10
-17 8 -50 20 -72 25 -22 6 -69 11 -105 11 -36 1 -78 3 -93 5 -15 2 -48 -1 -72
-6 -33 -7 -52 -6 -72 4 -17 8 -33 27 -40 48 -7 21 -10 67 -7 115 2 44 11 105
20 135 9 30 25 78 36 105 12 32 36 66 66 93 25 23 52 42 58 42 6 0 24 10 39
22 16 12 47 25 69 29 23 3 43 7 45 8z m1149 -19 c6 0 12 -11 12 -24 0 -13 2
-31 6 -39 3 -9 -5 -18 -23 -24 -15 -6 -43 -15 -62 -21 -19 -7 -36 -10 -38 -8
-2 1 0 17 3 34 4 18 12 32 18 32 6 0 25 11 41 25 17 13 36 24 43 25z m1929
-132 c9 -2 18 -8 20 -15 3 -7 -3 -9 -16 -6 -12 3 -21 10 -21 15 0 5 8 8 17 6z
m-2180 -9 c6 1 14 -3 17 -7 2 -4 2 -13 -2 -19 -4 -7 -24 -23 -45 -37 -21 -14
-40 -26 -42 -26 -3 0 -13 -8 -23 -17 -11 -10 -29 -26 -41 -35 -12 -10 -26 -18
-31 -18 -6 0 -10 20 -10 44 0 36 5 48 26 65 14 11 42 23 63 26 20 4 45 10 56
15 11 5 25 9 32 9z m473 -13 c14 -3 43 -7 65 -10 22 -3 65 -8 95 -11 30 -4 93
-18 138 -32 46 -13 106 -36 132 -49 26 -13 52 -24 58 -24 6 0 22 -13 35 -30
14 -16 32 -30 40 -30 8 0 31 -11 51 -25 20 -14 44 -31 52 -37 9 -7 43 -40 77
-73 34 -34 80 -83 102 -110 22 -28 53 -69 69 -92 15 -23 32 -59 37 -80 5 -21
8 -81 8 -134 -1 -53 3 -105 9 -116 8 -14 8 -48 1 -114 -6 -52 -14 -125 -18
-164 -5 -38 -11 -81 -15 -95 -3 -14 -19 -44 -36 -68 -16 -23 -30 -46 -30 -50
0 -4 -16 -27 -35 -51 -19 -24 -35 -49 -35 -55 0 -6 -28 -38 -63 -71 -34 -33
-77 -71 -96 -85 -18 -14 -50 -35 -70 -47 -20 -11 -70 -38 -111 -59 -41 -20
-86 -45 -99 -56 -13 -10 -40 -18 -60 -18 -20 0 -56 -5 -80 -11 -24 -5 -58 -12
-75 -16 -17 -3 -72 -8 -122 -10 -51 -2 -139 0 -197 5 -58 6 -139 21 -179 33
-40 13 -99 38 -130 56 -31 18 -62 33 -70 33 -7 0 -41 13 -75 29 -36 17 -82 50
-108 78 -26 26 -61 73 -80 103 -18 30 -36 75 -41 100 -4 25 -8 50 -9 55 -1 6
-11 30 -22 55 -12 25 -27 83 -34 129 -8 58 -9 123 -4 205 5 67 9 135 10 151 2
17 7 41 13 55 5 14 20 57 33 95 12 39 31 89 41 113 11 23 22 42 26 42 5 0 16
20 26 45 13 30 38 60 76 92 32 26 65 63 74 81 9 17 22 32 29 32 7 0 24 11 37
25 13 14 29 25 36 25 7 0 25 11 41 24 15 13 69 42 118 65 50 23 97 46 106 50
8 5 40 14 70 20 30 6 76 13 103 16 27 3 52 7 55 10 3 3 17 4 31 1z m3698 -36
c4 0 18 -9 32 -20 14 -11 37 -20 51 -20 14 0 33 -6 43 -13 16 -12 11 -17 -52
-49 -69 -35 -70 -36 -76 -15 -3 12 -6 43 -6 70 0 26 3 47 8 47z m-4464 -30
c12 0 16 -10 16 -38 0 -26 7 -45 20 -57 11 -10 20 -25 20 -33 0 -9 -7 -24 -17
-34 -9 -10 -19 -18 -23 -18 -4 0 -10 30 -14 68 -4 37 -9 77 -13 90 -4 16 -1
22 11 22z m-170 -10 c19 0 42 -7 50 -16 9 -8 19 -27 23 -42 3 -15 2 -59 -4
-99 -6 -43 -23 -97 -42 -135 -17 -35 -37 -72 -44 -83 -7 -11 -21 -33 -31 -50
-11 -16 -31 -42 -45 -57 -13 -16 -30 -28 -35 -28 -6 1 -21 9 -34 20 l-23 19
36 55 c19 30 35 60 35 66 0 6 14 37 30 69 26 49 31 73 36 157 3 54 7 105 10
112 2 6 19 12 38 12z m2858 -5 c64 -3 127 -9 140 -14 13 -5 43 -14 68 -21 25
-7 69 -23 98 -37 30 -13 75 -40 100 -60 26 -19 76 -64 111 -99 35 -36 69 -73
75 -83 6 -10 19 -34 30 -52 10 -19 27 -43 37 -54 10 -12 32 -59 49 -105 17
-47 37 -130 46 -184 8 -55 14 -147 13 -205 0 -58 -4 -151 -9 -207 -4 -55 -12
-109 -18 -120 -6 -10 -18 -41 -28 -69 -9 -27 -27 -66 -39 -85 -13 -20 -57 -73
-100 -118 -42 -45 -81 -82 -86 -82 -5 0 -33 -16 -61 -35 -28 -20 -67 -43 -87
-51 -20 -9 -45 -20 -56 -24 -11 -4 -38 -12 -60 -18 -22 -6 -65 -15 -96 -20
-34 -6 -72 -7 -100 -1 -24 5 -62 14 -84 20 -22 6 -65 15 -95 20 -30 5 -71 14
-90 20 -19 6 -53 19 -75 29 -22 9 -65 28 -95 40 -30 12 -66 27 -79 34 -14 6
-48 34 -76 61 -29 28 -76 84 -107 125 -30 41 -75 118 -100 170 -25 52 -49 110
-53 128 -4 18 -7 68 -7 110 0 42 5 108 12 146 10 66 10 69 -15 102 -24 31 -25
38 -19 116 3 46 10 99 16 118 6 19 21 49 34 67 13 17 24 36 24 41 0 5 42 51
93 103 50 53 107 107 124 122 18 15 37 27 42 27 5 0 14 6 20 14 7 8 30 24 52
35 22 12 44 21 50 21 5 0 29 9 52 19 23 11 74 24 112 29 39 6 81 15 95 21 16
7 68 9 142 6z m2157 -76 c82 1 101 -2 150 -25 31 -15 84 -51 118 -81 34 -30
75 -74 91 -97 16 -24 35 -59 41 -77 6 -19 17 -104 25 -189 13 -148 13 -158 -5
-214 -11 -32 -37 -81 -58 -110 -21 -28 -45 -65 -54 -81 -8 -17 -36 -49 -61
-72 -26 -24 -66 -54 -90 -68 -29 -17 -67 -27 -121 -33 -44 -5 -99 -5 -124 0
-24 4 -52 15 -61 23 -9 8 -19 13 -22 10 -3 -3 -30 21 -60 53 -36 39 -73 68
-112 85 -32 15 -65 27 -72 27 -8 0 -31 11 -52 24 -30 19 -41 35 -55 78 -9 30
-17 79 -16 109 1 30 4 65 8 79 4 14 4 35 -1 48 -5 14 -3 30 5 43 6 12 26 37
43 56 18 19 38 56 44 81 7 26 17 52 21 57 5 6 11 30 15 54 4 23 13 45 20 48 8
3 14 11 14 19 0 8 16 32 36 54 20 22 41 40 47 40 6 0 18 7 27 15 10 9 50 22
91 29 41 7 116 14 168 15z m-3133 -199 c14 -6 44 -9 67 -9 23 1 52 -1 65 -5
12 -4 22 -11 22 -15 0 -4 -11 -18 -25 -31 -14 -13 -25 -33 -25 -44 0 -12 -5
-28 -10 -36 -7 -12 -13 -12 -27 -4 -10 6 -20 19 -21 29 -2 9 -19 37 -38 62
-19 24 -34 49 -34 54 0 5 11 4 26 -1z m-2396 -172 c30 1 80 -5 110 -13 30 -8
75 -29 101 -47 26 -18 84 -69 129 -112 44 -44 86 -89 92 -100 7 -13 12 -93 12
-221 1 -177 4 -206 22 -255 11 -31 19 -64 17 -75 -1 -11 -5 -33 -7 -50 -3 -16
-11 -46 -20 -65 -8 -19 -44 -63 -80 -97 -36 -35 -70 -63 -76 -63 -6 0 -18 -4
-28 -10 -9 -5 -42 -16 -73 -24 -31 -7 -63 -10 -70 -5 -7 4 -27 5 -43 3 -17 -3
-69 -7 -116 -10 -64 -4 -107 0 -175 16 -49 11 -101 22 -114 24 -13 3 -55 35
-93 73 -38 37 -86 92 -105 122 -20 29 -47 83 -59 119 -13 36 -26 91 -29 121
-3 31 -7 89 -9 129 -2 40 0 93 5 117 4 24 15 58 24 77 8 18 21 42 28 53 6 11
35 42 62 67 28 26 74 70 104 98 29 27 58 50 63 50 5 0 22 8 36 18 15 10 61 26
102 35 41 9 89 18 105 20 17 2 55 5 85 5z m4900 -208 c6 0 10 -7 10 -16 0 -8
-4 -12 -10 -9 -5 3 -10 10 -10 16 0 5 5 9 10 9z m-94 -60 c7 0 15 -12 18 -26
4 -15 4 -39 1 -54 -3 -14 -1 -38 4 -53 6 -14 7 -28 2 -31 -4 -3 -34 -10 -67
-15 -32 -6 -70 -13 -83 -17 -15 -5 -22 -3 -18 3 4 6 2 36 -3 68 -8 50 -7 60 8
71 9 7 35 17 57 23 22 6 47 15 55 21 8 5 20 10 26 10z m111 -37 c2 -7 2 -19 0
-25 -3 -7 -5 -2 -5 12 0 14 2 19 5 13z m-676 -13 c14 0 30 -5 37 -12 7 -7 12
-19 12 -28 0 -9 17 -28 38 -41 l37 -25 -1 -71 c-1 -59 -6 -77 -25 -102 -13
-16 -35 -35 -49 -41 -14 -7 -33 -16 -43 -22 -10 -5 -22 -6 -27 -3 -5 3 -8 82
-7 175 l2 170 26 0z m232 -27 c28 -2 66 -11 84 -19 32 -14 32 -15 28 -74 -2
-33 -6 -68 -9 -78 -4 -11 -28 -31 -55 -46 -27 -14 -61 -41 -75 -59 -15 -17
-33 -41 -40 -52 -8 -11 -18 -17 -22 -13 -4 5 0 16 9 26 9 9 25 38 36 62 14 30
21 66 21 108 0 34 -7 79 -15 99 -8 19 -15 39 -15 43 0 5 24 6 53 3z m446 -13
c5 0 11 -9 14 -20 3 -13 -2 -25 -16 -35 -12 -9 -23 -11 -25 -7 -1 5 2 21 7 35
6 15 15 27 20 27z m14 -166 c37 -3 93 -14 123 -24 31 -11 80 -33 109 -50 34
-20 71 -53 104 -96 28 -37 51 -71 51 -76 0 -5 11 -24 23 -41 13 -18 29 -45 35
-62 6 -16 13 -73 17 -126 3 -53 2 -106 -4 -120 -5 -14 -12 -43 -15 -65 -4 -21
-11 -43 -16 -48 -6 -6 -10 -19 -10 -31 0 -11 -9 -38 -21 -60 -12 -22 -40 -59
-62 -83 -23 -24 -58 -52 -78 -62 -19 -10 -71 -28 -115 -39 -43 -11 -104 -27
-134 -36 -38 -11 -74 -14 -117 -10 -34 3 -82 15 -107 26 -26 11 -54 19 -64 18
-9 -1 -25 -1 -34 0 -9 0 -53 33 -98 72 -44 40 -89 87 -101 105 -12 19 -22 57
-24 90 -3 32 -8 67 -12 78 -3 12 -6 60 -5 109 1 48 7 108 13 135 6 26 13 56
14 67 2 11 4 25 4 32 1 7 10 20 20 30 11 10 23 31 27 47 4 17 21 41 37 55 17
15 39 33 50 41 10 8 34 27 52 43 18 15 38 27 45 27 7 0 28 9 47 21 20 13 62
24 106 29 40 5 102 6 140 4z m933 -84 c1 0 37 -12 80 -26 51 -16 90 -36 112
-57 17 -17 32 -36 32 -42 0 -6 13 -26 30 -45 16 -19 29 -39 30 -45 0 -5 14
-30 31 -55 31 -45 31 -45 24 -144 -3 -57 -15 -125 -27 -160 -11 -34 -33 -74
-49 -89 -15 -16 -31 -37 -34 -46 -3 -10 -29 -31 -58 -47 -28 -16 -56 -31 -62
-33 -5 -2 -31 -21 -56 -42 -26 -22 -51 -39 -55 -38 -5 0 -21 15 -36 33 l-28
33 60 24 c32 13 74 37 92 55 18 17 41 42 51 55 9 13 26 40 37 59 10 19 33 63
50 97 20 43 31 80 32 115 1 29 -6 79 -15 112 -10 32 -26 71 -37 86 -11 16 -43
47 -71 70 -27 24 -67 49 -87 56 -20 7 -52 13 -69 14 -18 0 -33 2 -33 5 0 3 12
17 28 30 15 13 28 25 28 25z m-3389 -133 c8 -7 15 -27 16 -43 2 -26 -1 -29
-30 -32 -18 -2 -33 1 -33 7 0 6 8 26 17 46 14 30 19 33 30 22z m1827 -28 c38
1 38 1 32 -30 -3 -17 -6 -46 -6 -63 0 -17 -4 -36 -8 -43 -4 -6 -34 -17 -67
-22 -33 -6 -72 -14 -87 -17 -27 -6 -27 -6 -17 32 6 22 15 43 20 49 5 5 9 19 9
31 0 12 10 28 23 37 13 8 32 17 42 20 11 2 37 5 59 6z m1151 -3 c11 -3 25 -6
31 -6 9 0 8 -9 0 -35 -7 -19 -15 -37 -18 -41 -4 -3 -15 12 -26 35 -11 22 -17
43 -14 46 4 3 16 4 27 1z m350 2 c17 1 47 -1 68 -4 23 -4 54 -21 82 -46 25
-22 54 -60 66 -86 12 -26 22 -68 22 -93 1 -37 -8 -62 -41 -119 -23 -40 -42
-76 -42 -80 0 -5 -21 -27 -47 -50 -27 -24 -68 -51 -93 -62 -25 -11 -64 -22
-88 -25 -30 -2 -51 2 -70 14 -15 10 -44 26 -65 36 -29 13 -43 28 -58 65 -12
26 -24 76 -27 110 -3 44 1 88 13 140 10 43 30 92 43 110 13 18 36 38 50 43 15
6 40 17 57 24 16 8 46 16 65 18 19 2 49 4 65 5z m-3288 -119 c6 0 19 -2 28 -5
9 -4 27 -28 40 -53 13 -26 31 -53 39 -60 9 -8 16 -19 16 -25 0 -7 21 -28 48
-48 26 -20 69 -59 96 -87 47 -47 49 -53 49 -103 0 -29 -4 -71 -10 -93 -5 -23
-20 -62 -33 -87 -12 -25 -41 -61 -64 -80 -22 -19 -52 -37 -66 -41 -14 -3 -43
-11 -65 -17 -22 -7 -51 -13 -65 -13 -14 0 -61 10 -105 22 -44 13 -108 29 -143
36 -35 7 -71 11 -81 8 -12 -3 -28 8 -48 34 -17 21 -36 55 -43 76 -7 22 -10 67
-8 100 3 43 13 82 36 127 21 43 59 95 112 150 44 46 80 89 80 95 0 7 9 20 20
30 14 13 28 16 51 11 18 -3 37 -2 43 3 6 5 22 11 36 14 14 2 30 5 37 6z
m-1972 -79 c7 0 20 -18 29 -40 9 -22 16 -43 16 -46 0 -2 -8 0 -17 5 -10 5 -26
16 -37 24 -13 9 -16 20 -12 35 4 12 13 22 21 22z m3707 -41 l48 2 -1 -38 c0
-21 0 -55 1 -75 1 -20 -1 -42 -5 -48 -4 -6 -13 -9 -21 -6 -7 3 -16 1 -19 -4
-4 -6 -20 -10 -36 -10 -16 0 -46 -7 -67 -15 -20 -9 -58 -38 -84 -66 -28 -28
-48 -59 -48 -72 0 -12 -3 -32 -6 -45 -6 -20 -12 -22 -51 -20 -38 3 -47 7 -55
28 -5 14 -7 54 -4 90 6 63 9 67 64 122 31 31 68 70 82 86 18 21 45 36 90 49
36 11 86 20 112 22z m-3783 -85 c14 -4 49 -24 77 -45 40 -29 52 -45 57 -73 5
-29 1 -41 -21 -66 -15 -16 -32 -30 -39 -30 -7 0 -32 26 -55 58 -24 31 -53 66
-65 77 -13 11 -23 25 -23 30 0 5 10 19 22 32 16 17 28 21 47 17z m201 -36 c11
-7 20 -18 20 -25 0 -7 -3 -13 -6 -13 -4 0 -13 8 -20 18 -7 9 -14 20 -14 25 0
4 9 2 20 -5z m130 -86 c19 -8 54 -23 77 -33 23 -10 46 -19 51 -19 5 0 15 -7
22 -15 7 -9 15 -13 18 -11 2 3 13 1 23 -5 11 -5 19 -14 19 -18 0 -5 -15 -12
-32 -15 -18 -4 -49 -9 -68 -12 -19 -3 -49 -12 -67 -20 -17 -8 -38 -14 -47 -14
-9 0 -26 -6 -39 -12 -12 -7 -28 -22 -37 -33 -8 -11 -24 -29 -36 -40 -12 -11
-25 -31 -29 -45 -4 -14 -16 -41 -25 -60 -10 -20 -21 -51 -25 -70 -4 -19 -9
-62 -11 -95 -2 -33 3 -89 12 -125 8 -36 22 -81 31 -100 9 -19 31 -50 47 -68
17 -18 56 -48 86 -67 30 -18 80 -40 111 -49 39 -12 74 -15 115 -10 32 3 84 11
115 19 30 7 65 17 77 24 11 6 28 11 38 11 11 0 15 -6 11 -17 -3 -10 -15 -45
-27 -78 -12 -33 -23 -73 -26 -90 -3 -16 -7 -45 -9 -64 -3 -18 -6 -35 -8 -38
-2 -2 -31 -4 -63 -4 -33 -1 -82 6 -110 14 -27 8 -104 42 -172 76 -67 33 -126
61 -131 61 -5 0 -20 9 -33 19 -12 11 -39 34 -59 50 -27 23 -43 49 -61 103 -14
40 -31 96 -38 123 -7 28 -12 73 -11 100 1 28 -3 74 -7 103 -7 38 -5 74 6 125
8 40 27 100 43 135 17 34 52 86 79 115 28 29 74 77 103 107 l52 56 35 -14z
m-515 2 c46 -5 55 -10 107 -67 56 -60 58 -63 56 -116 -1 -31 -12 -84 -26 -120
-19 -51 -25 -87 -26 -158 -2 -79 -5 -95 -21 -108 -11 -8 -25 -15 -31 -15 -6 0
-17 -6 -23 -14 -6 -8 -24 -16 -39 -19 -15 -3 -38 -8 -52 -12 -14 -4 -38 -7
-54 -7 -16 1 -40 11 -53 23 -12 13 -23 28 -23 35 0 7 -25 40 -55 72 -30 33
-72 67 -93 75 -20 8 -47 26 -58 39 -12 12 -27 40 -34 61 -6 21 -9 54 -5 76 3
22 13 47 20 58 8 10 15 25 15 34 0 8 13 28 30 44 23 22 29 35 25 57 -5 27 -4
28 42 29 27 0 64 2 83 4 19 2 49 6 65 9 17 4 46 10 65 15 19 5 58 7 85 5z
m-490 -8 c17 -3 48 -10 69 -14 l40 -7 -28 -18 c-15 -10 -41 -41 -59 -70 -18
-29 -38 -68 -45 -88 -7 -19 -12 -57 -12 -83 l0 -48 -32 7 c-18 4 -37 11 -42
16 -6 5 -10 35 -10 66 0 32 2 72 6 88 4 17 15 48 25 70 9 22 26 51 37 63 17
19 28 22 51 18z m2234 -6 c10 0 11 -6 5 -22 -4 -13 -8 -69 -7 -125 0 -66 5
-108 13 -118 7 -8 10 -22 6 -30 -3 -8 -13 -15 -22 -15 -10 0 -26 7 -36 17 -10
9 -18 27 -18 40 0 13 -6 23 -14 23 -8 0 -19 15 -25 33 -6 17 -11 58 -12 90 -2
33 2 62 9 69 7 7 12 9 12 5 0 -4 17 2 37 13 21 11 44 20 52 20z m3421 -10 c4
0 11 -7 14 -16 3 -9 6 -19 6 -24 0 -4 -9 -10 -20 -13 -13 -3 -20 0 -20 8 0 7
3 20 6 29 3 9 10 16 14 16z m-2509 -10 c5 0 9 -4 9 -9 0 -5 13 -14 30 -21 16
-7 32 -20 35 -30 3 -10 1 -45 -4 -78 -5 -33 -21 -84 -35 -114 -14 -29 -46 -76
-70 -104 -29 -33 -68 -63 -111 -84 -36 -18 -68 -36 -71 -41 -3 -5 -23 3 -45
18 -31 20 -37 29 -28 39 6 8 22 14 34 14 13 0 46 18 73 39 27 22 64 61 82 87
18 27 39 71 47 99 8 27 18 75 22 107 5 31 12 61 15 67 4 6 11 11 17 11z m1324
-2 c17 1 36 -2 44 -7 8 -5 16 -20 17 -33 1 -12 6 -36 10 -53 4 -18 32 -54 70
-90 l63 -61 -12 -49 c-9 -38 -20 -55 -46 -72 -22 -15 -42 -21 -55 -17 -12 3
-51 37 -88 74 -37 37 -88 78 -113 90 -25 12 -50 31 -56 42 -6 11 -8 37 -4 58
4 22 16 51 27 65 10 14 26 25 34 25 8 0 14 4 14 9 0 6 15 12 33 14 17 2 46 4
62 5z m-448 -31 c1 -1 3 -27 4 -57 l3 -55 -44 -8 c-25 -4 -60 -10 -77 -13 -30
-6 -33 -4 -33 21 0 14 5 35 10 46 6 10 18 19 28 19 9 1 37 12 62 25 25 12 46
22 47 22z m-696 -37 c6 0 9 -8 7 -17 -2 -9 -8 -18 -15 -20 -6 -2 -10 3 -8 14
2 10 4 19 4 21 1 1 6 2 12 2z m-1305 -31 c6 1 14 -21 18 -47 3 -26 12 -57 19
-67 7 -11 19 -37 26 -58 7 -21 11 -40 9 -41 -1 -2 -26 -10 -55 -19 -28 -10
-56 -17 -61 -17 -5 0 -12 27 -15 61 -3 33 -12 68 -20 77 -9 9 -19 29 -22 44
-6 22 -3 29 11 34 11 3 33 12 49 19 17 8 35 14 41 14z m1761 -20 c9 1 11 -10
9 -31 -2 -18 -4 -36 -5 -40 0 -5 -28 -21 -60 -36 l-59 -28 -23 29 c-16 19 -39
32 -69 38 -25 5 -52 12 -60 15 -13 4 -13 6 0 14 8 6 42 10 75 10 33 1 87 7
120 15 33 7 66 14 72 14z m-2206 -9 c14 0 29 -4 35 -8 5 -4 27 -14 49 -22 22
-8 71 -14 108 -15 l69 0 23 -55 c14 -30 24 -64 25 -76 0 -11 -7 -41 -16 -67
-13 -40 -25 -52 -70 -79 -30 -18 -54 -36 -54 -39 0 -4 -25 -26 -56 -49 -50
-38 -55 -40 -49 -19 4 13 13 39 21 56 8 20 12 63 10 110 -1 55 -9 94 -26 133
-13 30 -39 72 -59 93 -35 37 -35 37 -10 37z m4141 -1 c15 1 29 -3 32 -8 3 -4
32 -16 63 -24 47 -14 68 -27 108 -69 28 -29 60 -67 72 -84 12 -17 34 -67 48
-110 20 -58 26 -92 22 -129 -2 -27 -14 -75 -26 -106 -16 -42 -43 -79 -115
-153 -52 -54 -99 -96 -104 -92 -5 3 -26 -5 -46 -19 -20 -14 -65 -35 -100 -47
l-63 -22 -41 35 -41 34 45 7 c25 4 53 13 62 21 10 8 28 18 41 22 13 4 68 48
122 97 55 49 99 97 99 106 0 10 7 28 16 41 12 17 15 39 12 89 -3 45 -14 86
-32 125 -15 32 -51 81 -81 111 -44 44 -64 56 -107 66 -29 7 -81 10 -116 9 -34
-2 -62 -2 -62 0 0 2 14 19 30 38 17 18 30 39 30 44 0 7 10 9 23 5 13 -3 36 -1
52 3 17 5 42 10 57 10z m-4374 -34 c52 -3 99 -11 127 -24 29 -13 52 -33 69
-60 14 -22 30 -59 35 -83 5 -24 6 -65 1 -93 -4 -27 -20 -86 -36 -130 -16 -44
-40 -96 -54 -115 -13 -19 -34 -43 -45 -53 -11 -10 -36 -25 -55 -33 -19 -8 -46
-20 -60 -26 -14 -6 -33 -14 -42 -19 -10 -5 -46 -9 -80 -9 -35 0 -83 7 -107 16
-24 8 -57 22 -75 31 -17 8 -44 27 -59 42 -16 14 -37 46 -49 71 -11 25 -22 73
-25 108 -2 35 1 94 7 131 11 67 12 69 76 122 35 29 64 56 64 60 0 4 16 15 36
24 21 10 71 23 113 31 42 7 113 11 159 9z m1989 -36 c34 0 36 -2 19 -12 -11
-7 -30 -22 -42 -34 -11 -13 -24 -23 -27 -23 -3 0 -3 10 0 23 3 12 6 28 9 35 2
7 19 12 41 11z m718 -35 c11 -3 53 -9 93 -13 52 -6 94 -19 145 -44 40 -20 84
-47 98 -61 14 -13 42 -44 61 -68 19 -23 44 -66 56 -95 12 -29 36 -89 53 -135
28 -77 30 -92 30 -206 -1 -67 -6 -146 -12 -175 -6 -29 -17 -69 -25 -91 -8 -21
-28 -58 -44 -82 -17 -23 -30 -47 -30 -52 0 -5 -11 -30 -25 -55 -14 -25 -54
-71 -90 -103 -35 -33 -70 -64 -77 -70 -8 -6 -42 -30 -76 -53 -34 -24 -86 -52
-114 -63 -29 -11 -71 -24 -93 -28 -22 -5 -53 -13 -68 -19 -16 -6 -41 -11 -57
-11 -16 0 -31 -3 -33 -7 -3 -5 -31 -8 -64 -7 -32 0 -98 6 -147 13 -49 6 -105
21 -125 32 -20 11 -55 31 -78 45 -23 14 -55 42 -71 62 -16 20 -39 56 -51 80
-12 23 -19 42 -15 42 4 0 1 6 -6 14 -6 8 -18 39 -26 68 -10 35 -15 101 -14
199 0 112 5 165 20 227 11 44 29 100 39 124 10 24 34 64 54 89 19 26 41 57 47
70 7 13 22 34 34 45 12 12 34 37 51 55 16 19 51 53 78 76 27 23 87 61 133 84
46 23 87 40 90 36 4 -4 -2 -10 -14 -14 -11 -5 -43 -29 -71 -55 -27 -25 -58
-49 -68 -52 -10 -3 -52 -43 -93 -88 -41 -45 -83 -94 -92 -110 -10 -16 -18 -35
-18 -43 0 -8 -9 -32 -21 -54 -16 -31 -21 -60 -22 -133 0 -51 3 -115 7 -143 4
-27 16 -65 26 -85 9 -19 23 -52 29 -72 7 -21 16 -38 20 -38 4 0 15 -17 24 -38
10 -22 33 -48 58 -64 23 -15 76 -38 118 -51 42 -14 101 -30 131 -36 30 -7 66
-14 80 -17 14 -2 42 -7 63 -10 21 -4 66 -1 100 6 34 6 76 17 92 25 17 7 64 27
105 45 41 19 98 53 126 77 37 31 62 65 93 125 39 78 42 90 47 193 5 76 3 128
-7 170 -7 33 -14 65 -14 71 0 6 -6 22 -12 35 -7 13 -19 40 -28 59 -9 19 -25
53 -37 75 -11 22 -34 58 -51 79 -17 21 -61 58 -97 81 -36 23 -86 51 -113 63
-26 12 -60 23 -75 24 -15 1 -33 6 -39 11 -8 5 -46 7 -90 3 -69 -6 -76 -5 -60
8 10 8 31 12 47 10 15 -3 43 2 61 10 19 8 43 13 54 10z m-651 -55 c17 1 16 -2
-6 -24 -18 -18 -28 -43 -36 -90 -6 -40 -7 -77 -2 -96 6 -18 5 -35 0 -42 -5 -7
-20 -24 -33 -39 -14 -16 -27 -28 -30 -28 -3 0 -11 17 -16 38 -6 20 -11 51 -11
68 0 16 4 34 9 40 5 5 14 26 21 47 6 21 28 58 48 82 21 24 45 44 56 44z m117
-30 c3 1 9 -2 12 -5 3 -4 -14 -31 -40 -61 -25 -29 -48 -51 -50 -49 -3 3 -2 22
2 43 5 29 14 42 38 55 18 9 35 17 38 17z m1258 -4 c14 -3 32 -12 39 -19 11
-11 10 -22 -9 -67 -12 -30 -33 -69 -46 -86 -13 -18 -33 -33 -44 -33 -10 0 -19
-4 -19 -10 0 -5 -12 -13 -27 -16 -16 -4 -33 -11 -39 -16 -8 -5 -15 3 -24 24
-6 18 -16 41 -22 51 -5 11 -7 22 -3 25 4 4 27 14 53 23 30 10 52 25 64 45 10
16 21 36 24 44 4 8 12 21 17 28 7 8 20 11 36 7z m852 4 c46 1 63 -4 102 -30
33 -22 53 -45 72 -84 14 -30 25 -61 25 -70 0 -9 5 -25 10 -35 8 -14 7 -29 -3
-52 -8 -18 -43 -63 -78 -99 -35 -36 -88 -80 -117 -98 -39 -23 -64 -31 -100
-31 -26 0 -70 6 -98 14 -28 7 -64 20 -80 27 -16 8 -43 38 -62 69 -31 51 -33
60 -30 126 3 61 7 76 33 108 17 20 43 50 58 66 18 20 38 30 56 30 16 0 41 10
56 22 15 12 44 25 64 29 20 4 61 7 92 8z m-5956 -30 c22 1 55 -3 74 -9 19 -5
53 -12 75 -16 23 -3 62 -10 88 -14 26 -5 81 -26 123 -46 58 -28 93 -54 148
-110 39 -41 78 -92 87 -113 8 -21 20 -45 26 -52 6 -8 20 -41 32 -74 12 -33 23
-73 26 -90 2 -16 10 -52 17 -80 7 -28 12 -109 12 -186 l0 -136 -43 -79 c-25
-47 -63 -99 -95 -129 -30 -29 -92 -71 -146 -99 -52 -27 -111 -55 -131 -62 -21
-7 -57 -16 -80 -21 -24 -4 -65 -6 -91 -5 -27 1 -58 7 -70 14 -12 6 -47 18 -77
26 -30 7 -62 15 -70 16 -8 1 -26 6 -40 10 -14 4 -54 19 -90 34 -36 14 -87 45
-115 68 -33 27 -70 75 -108 138 -32 54 -60 111 -64 129 -3 18 -12 45 -20 60
-10 21 -12 53 -8 130 3 56 13 129 21 162 8 33 20 76 26 95 6 19 21 58 34 86
13 28 24 56 24 61 0 6 7 16 16 24 8 7 24 29 34 48 10 20 40 58 66 84 28 27 80
63 122 83 40 19 92 39 115 44 23 4 60 8 82 9z m4302 -10 c24 1 73 -10 110 -24
37 -14 92 -43 122 -63 30 -20 76 -64 103 -96 27 -32 61 -84 75 -115 13 -31 30
-85 36 -121 7 -36 11 -108 11 -160 -1 -90 -3 -98 -38 -160 -20 -36 -49 -76
-64 -88 -15 -13 -69 -44 -120 -68 -51 -25 -110 -51 -130 -57 -20 -7 -68 -12
-107 -11 -38 2 -77 4 -85 7 -8 2 -32 10 -53 16 -20 7 -50 15 -65 17 -15 3 -44
9 -65 14 -21 4 -56 20 -77 35 -21 15 -45 34 -53 43 -8 9 -33 62 -57 117 -31
74 -43 117 -46 165 -3 49 2 81 18 130 12 36 41 90 65 121 23 31 75 87 115 124
40 37 102 87 138 110 36 23 79 47 95 53 17 6 49 11 72 11z m1227 -9 c35 0 35
-1 29 -32 -3 -18 -10 -34 -14 -36 -5 -2 -11 -20 -15 -39 -4 -20 -12 -47 -19
-60 -8 -15 -11 -49 -8 -96 5 -62 10 -80 42 -127 20 -30 39 -56 44 -58 4 -2 7
-7 7 -10 0 -4 -42 -7 -93 -7 -67 0 -99 4 -111 15 -15 12 -17 27 -14 87 3 63 7
76 32 102 23 24 26 32 17 50 -8 13 -8 27 -2 38 5 10 16 34 25 55 9 20 16 39
16 42 0 4 7 22 14 41 13 31 19 35 50 35z m-2824 -17 c58 -2 128 -9 155 -15 28
-5 93 -30 145 -55 52 -25 113 -62 135 -81 22 -20 73 -72 113 -116 44 -49 86
-109 106 -151 19 -39 42 -90 51 -115 8 -25 20 -83 25 -130 8 -72 7 -97 -9
-160 -11 -41 -24 -106 -30 -143 -7 -38 -16 -76 -20 -85 -5 -9 -16 -34 -25 -55
-9 -21 -16 -44 -16 -52 0 -9 -6 -25 -12 -38 -7 -12 -23 -35 -35 -50 -13 -16
-23 -33 -23 -39 0 -6 -6 -18 -14 -27 -8 -9 -42 -45 -77 -81 -34 -36 -72 -70
-83 -77 -12 -7 -31 -17 -43 -22 -13 -6 -23 -14 -23 -19 0 -5 -19 -17 -42 -26
-24 -10 -65 -27 -93 -38 -27 -10 -70 -23 -95 -28 -25 -5 -65 -13 -90 -19 -28
-6 -83 -6 -145 -1 -55 5 -129 14 -164 19 -35 6 -83 18 -108 26 -24 8 -48 15
-53 15 -5 0 -37 16 -72 37 -35 20 -102 71 -150 113 -47 42 -105 99 -127 127
-32 41 -45 70 -64 149 -14 55 -29 131 -33 169 -4 39 -8 75 -8 80 0 6 3 30 7
55 4 25 9 77 11 115 3 39 11 93 19 121 8 28 27 73 41 100 14 27 32 58 39 69 6
11 30 42 52 70 21 27 59 69 82 93 23 23 46 42 50 42 5 0 35 25 68 55 33 30 65
55 70 55 6 0 27 12 48 26 21 14 59 32 85 41 26 8 92 23 147 33 71 13 131 16
205 13z m831 -3 c5 0 5 -15 1 -32 -4 -18 -7 -69 -6 -113 0 -44 6 -103 13 -132
10 -46 9 -58 -9 -110 -12 -32 -23 -65 -25 -73 -2 -8 -4 -18 -4 -22 -1 -5 -5
-8 -11 -8 -5 0 -10 5 -10 12 0 6 -10 31 -21 55 -18 38 -19 46 -7 56 12 10 13
34 9 122 -4 75 -2 120 6 141 7 18 22 48 34 68 11 20 25 36 30 36z m1772 -4
c39 -4 73 -8 75 -11 2 -2 -9 -30 -26 -62 -16 -32 -37 -71 -45 -87 -9 -16 -20
-32 -24 -35 -5 -3 -22 -23 -37 -44 -16 -20 -57 -60 -91 -87 -35 -28 -68 -50
-75 -50 -6 0 -25 -8 -41 -17 -22 -13 -29 -25 -29 -49 0 -24 5 -33 21 -37 12
-3 46 5 77 19 30 13 60 31 66 39 6 8 33 26 60 40 27 14 51 24 53 21 3 -3 2
-30 -2 -61 -5 -40 -12 -58 -23 -61 -9 -3 -33 -12 -52 -21 -19 -8 -66 -36 -105
-61 -38 -25 -80 -55 -93 -66 l-24 -21 7 95 c4 55 2 129 -4 175 -6 44 -12 88
-14 99 -1 13 15 27 62 52 35 18 72 41 82 50 11 9 19 21 19 27 0 5 14 29 30 54
17 24 37 58 46 75 l16 31 71 -7z m-1946 -140 c7 0 13 -19 15 -48 1 -26 1 -48
-2 -48 -3 0 -20 18 -37 40 -18 21 -33 41 -33 44 0 2 10 6 23 8 12 2 27 4 34 4z
m-2411 -155 c6 -31 16 -69 23 -84 6 -16 8 -33 5 -39 -4 -5 -33 -27 -65 -48
-43 -28 -69 -38 -95 -37 -32 2 -37 6 -50 42 -8 22 -21 64 -29 93 -8 29 -15 57
-15 62 0 6 12 10 26 10 14 0 40 6 57 14 18 7 55 20 82 29 l50 14 11 -56z
m4555 -232 c52 -1 123 -11 179 -24 65 -17 103 -32 129 -53 27 -22 35 -36 33
-55 -2 -20 4 -30 28 -42 21 -11 39 -34 57 -73 20 -46 27 -79 32 -165 3 -60 3
-111 -1 -114 -5 -2 -8 -22 -8 -43 0 -21 -5 -51 -11 -67 -6 -15 -17 -48 -24
-73 -8 -25 -24 -74 -38 -110 -13 -36 -44 -94 -68 -130 -24 -35 -59 -78 -78
-94 -18 -17 -59 -47 -91 -68 -32 -21 -84 -49 -115 -63 -31 -14 -86 -33 -123
-41 -37 -9 -74 -19 -82 -23 -8 -4 -63 -7 -121 -6 -96 2 -111 5 -159 31 -30 16
-67 43 -84 60 -17 17 -50 54 -73 81 -23 28 -51 72 -61 99 -13 33 -20 80 -22
144 -2 52 -3 127 -2 165 2 39 -2 79 -8 90 -9 18 1 41 70 155 45 74 87 140 95
145 7 6 46 40 86 75 40 36 81 73 91 83 10 9 23 17 29 17 6 0 29 11 52 24 23
14 71 32 107 41 36 9 72 21 80 26 8 5 54 8 101 8z m-4484 -19 c12 0 14 -7 9
-32 -6 -30 -2 -36 49 -83 42 -37 57 -59 61 -85 5 -32 3 -36 -25 -47 -23 -8
-40 -8 -66 0 -20 6 -47 21 -61 34 -18 16 -23 29 -19 46 4 15 1 30 -9 40 -9 8
-16 25 -16 36 0 11 14 36 31 56 17 19 38 35 46 35z m-203 -52 c14 -2 20 -9 18
-23 -1 -11 -3 -42 -4 -70 -1 -27 2 -69 6 -92 4 -24 12 -45 17 -49 5 -3 9 -14
9 -25 0 -11 -8 -22 -17 -25 -10 -3 -31 -13 -47 -21 -28 -15 -29 -15 -22 3 4
10 10 83 13 162 6 138 7 143 27 140z m424 -98 c3 0 19 -12 34 -27 17 -17 28
-37 28 -54 0 -21 5 -28 22 -31 12 -2 24 -9 26 -17 4 -11 -3 -13 -34 -7 -22 4
-48 9 -59 10 -11 2 -23 4 -27 5 -4 0 -6 25 -6 54 0 28 3 55 5 60 2 4 7 7 11 7z
m200 -110 c4 0 30 -9 59 -20 29 -11 60 -17 69 -13 14 5 15 1 9 -28 -4 -19 -9
-36 -11 -38 -1 -2 -18 6 -36 17 -18 11 -37 18 -43 16 -5 -2 -17 2 -26 9 -8 7
-18 22 -21 35 -4 12 -3 22 0 22z m238 -40 c8 0 19 -11 24 -25 5 -13 6 -47 3
-74 -3 -28 0 -79 7 -113 7 -35 23 -95 36 -135 12 -39 29 -84 37 -100 8 -15 27
-39 41 -52 14 -14 26 -30 26 -37 0 -6 -15 -15 -32 -18 -18 -4 -42 -8 -53 -9
-17 -2 -20 5 -22 38 -2 22 -7 78 -13 125 -6 47 -16 103 -22 125 -7 22 -24 65
-40 95 -15 30 -28 60 -28 67 0 7 5 35 11 63 7 32 16 50 25 50z m-240 -100 c3
0 25 -9 49 -20 30 -14 58 -38 86 -77 26 -35 46 -74 51 -102 5 -25 11 -57 13
-71 3 -14 10 -58 15 -97 6 -46 6 -82 0 -98 -5 -14 -12 -46 -16 -72 -3 -26 -22
-77 -42 -113 -19 -36 -44 -76 -56 -90 -11 -14 -27 -35 -33 -47 -7 -13 -13 -30
-13 -39 0 -10 -5 -14 -15 -10 -9 3 -21 -4 -31 -19 -9 -13 -48 -49 -88 -80 -40
-30 -76 -55 -81 -55 -5 0 -16 -7 -25 -15 -10 -9 -35 -18 -56 -21 -21 -3 -73
-6 -115 -6 -42 0 -94 6 -115 13 -21 7 -46 18 -54 24 -8 6 -35 20 -60 30 -25
11 -56 27 -70 37 -14 10 -51 49 -83 85 -31 37 -80 111 -107 165 -47 92 -50
103 -50 173 0 41 3 75 8 75 4 0 8 10 9 23 1 12 5 36 8 54 6 25 3 34 -12 44
-19 11 -16 16 46 75 53 51 72 63 99 64 17 0 32 -2 32 -5 0 -4 -7 -19 -15 -34
-8 -16 -18 -57 -22 -92 -4 -35 -8 -95 -8 -134 1 -38 7 -92 15 -120 11 -36 32
-67 77 -115 34 -37 84 -77 110 -91 26 -13 51 -29 55 -35 4 -6 30 -21 58 -33
42 -18 61 -21 118 -15 37 3 92 13 122 21 30 9 72 25 92 37 20 12 64 48 97 79
33 32 69 71 81 87 12 16 30 62 41 102 11 40 20 100 20 133 0 33 0 71 0 85 -1
13 -10 51 -22 84 -11 33 -25 69 -31 80 -6 12 -28 44 -49 72 -22 28 -39 54 -39
57 0 4 2 7 6 7z m2060 -20 c2 0 10 -12 18 -27 7 -16 17 -43 21 -60 5 -28 4
-33 -11 -33 -10 0 -30 -12 -46 -27 -15 -14 -31 -24 -34 -20 -3 3 -1 23 6 44 6
21 18 57 26 81 9 23 17 42 20 42z m-2371 -10 c33 0 78 -5 100 -12 22 -6 42
-12 45 -13 3 -1 22 -5 43 -9 20 -5 51 -21 68 -37 17 -16 28 -33 24 -38 -3 -6
4 -15 15 -21 11 -6 26 -26 34 -44 7 -18 17 -66 22 -107 4 -41 7 -78 7 -84 -1
-5 -9 -46 -18 -90 -16 -78 -19 -82 -81 -142 -37 -36 -88 -74 -120 -88 -30 -14
-76 -30 -102 -36 -26 -6 -66 -7 -90 -4 -24 4 -69 22 -100 42 -31 19 -69 42
-85 51 -15 10 -30 25 -33 35 -3 9 -9 17 -13 17 -4 0 -21 28 -37 63 -26 56 -29
72 -29 162 l0 100 54 70 c29 39 67 85 84 103 17 17 36 32 41 33 6 0 34 11 61
24 35 17 68 24 110 25z m-307 -20 c9 0 6 -11 -10 -32 -12 -18 -31 -42 -42 -53
-18 -20 -19 -20 -12 15 3 19 16 43 29 52 12 10 28 18 35 18z m3848 -160 c8 0
15 -9 15 -20 1 -11 3 -24 4 -30 1 -5 3 -21 4 -35 0 -14 7 -25 15 -25 8 0 17
-7 20 -16 4 -9 4 -25 1 -35 -4 -12 -16 -19 -33 -20 -15 -1 -36 0 -48 0 -11 1
-52 -7 -91 -18 -39 -10 -81 -25 -94 -32 -13 -6 -41 -25 -62 -42 -32 -24 -41
-28 -48 -16 -5 8 -9 19 -9 25 0 5 -13 23 -30 39 -16 16 -30 31 -30 34 0 3 28
14 63 24 34 10 85 28 112 40 28 12 72 35 99 51 27 16 60 40 74 53 14 12 31 23
38 23z m-1150 -41 c11 1 36 -12 54 -29 18 -16 44 -30 57 -30 13 0 23 -4 23
-10 0 -5 10 -10 23 -10 13 0 27 -4 33 -8 5 -5 45 -23 89 -41 44 -18 87 -36 95
-40 8 -4 79 -6 158 -4 96 3 142 0 142 -7 0 -6 18 -30 39 -53 22 -23 46 -60 55
-82 8 -22 20 -78 26 -125 5 -46 10 -116 10 -155 0 -38 -7 -115 -14 -170 -8
-55 -23 -122 -35 -148 -12 -27 -21 -56 -21 -66 0 -9 -4 -21 -9 -26 -6 -6 -26
-41 -46 -80 -20 -38 -43 -81 -50 -95 -8 -14 -36 -46 -62 -72 -26 -25 -80 -63
-120 -82 -39 -20 -80 -36 -90 -36 -10 0 -58 -11 -108 -25 -49 -14 -99 -22
-110 -19 -11 4 -36 18 -57 31 -20 14 -42 22 -48 18 -7 -4 -10 -18 -7 -31 4
-23 2 -24 -48 -24 -29 0 -76 9 -106 21 -30 12 -79 33 -109 47 -30 14 -75 47
-100 73 -25 26 -52 55 -60 66 -8 10 -32 42 -54 71 -21 30 -49 86 -62 128 -20
61 -24 96 -24 194 0 96 4 132 21 182 12 35 33 86 47 113 13 28 38 71 55 97 17
26 41 55 54 63 13 9 21 20 18 25 -3 5 27 44 66 87 39 43 79 90 88 105 10 15
36 43 58 63 23 19 56 46 74 59 19 14 43 25 55 25z m1148 -242 l59 -2 14 -58
c8 -32 13 -64 10 -71 -3 -7 -27 -16 -53 -20 -26 -3 -81 -24 -122 -47 -42 -22
-91 -56 -111 -74 -19 -19 -39 -35 -43 -35 -4 0 -8 17 -8 38 0 20 -3 60 -6 88
-6 47 -4 53 27 89 18 20 54 47 79 57 25 11 56 24 70 28 14 5 52 8 84 7z
m-2762 -51 c66 -3 84 -8 113 -31 20 -14 42 -36 50 -48 8 -13 34 -28 62 -35 26
-7 77 -22 113 -34 36 -12 70 -25 75 -29 6 -4 26 -9 45 -11 31 -3 35 -7 38 -33
2 -16 10 -34 18 -38 8 -4 14 -17 14 -27 0 -11 7 -40 16 -65 11 -35 12 -50 4
-60 -6 -7 -12 -28 -12 -45 -1 -18 5 -36 12 -40 10 -6 11 -22 6 -62 -4 -29 -9
-66 -10 -83 -2 -16 -13 -61 -25 -100 -12 -38 -27 -81 -32 -95 -5 -14 -25 -42
-44 -63 -19 -21 -35 -45 -35 -53 0 -8 -5 -14 -11 -14 -6 0 -33 -20 -60 -44
-37 -33 -69 -51 -131 -71 -68 -21 -102 -26 -186 -26 -56 0 -106 3 -112 6 -5 3
-31 6 -57 6 -26 1 -61 7 -78 14 -16 7 -49 18 -71 24 -28 7 -56 27 -87 60 -25
26 -54 66 -65 87 -11 21 -27 66 -37 99 -9 33 -21 89 -25 124 -7 51 -4 81 10
140 16 61 26 82 55 109 20 19 38 33 39 31 2 -2 -3 -28 -10 -58 -8 -30 -16 -81
-18 -115 -2 -34 1 -81 7 -106 5 -25 19 -65 29 -90 11 -25 36 -62 56 -83 20
-21 62 -50 92 -64 30 -14 78 -32 105 -39 28 -8 77 -14 111 -14 38 0 87 9 131
24 38 13 97 43 131 65 39 27 79 67 109 109 26 36 55 78 64 92 8 14 23 55 32
92 9 37 17 100 17 140 0 40 -5 91 -11 113 -6 21 -26 57 -45 78 -18 22 -49 51
-69 64 -20 14 -43 22 -50 19 -8 -3 -34 6 -57 19 -24 13 -76 30 -115 36 -57 10
-87 10 -159 -1 -48 -8 -108 -24 -131 -36 -24 -12 -43 -18 -43 -14 0 5 11 32
25 62 14 29 25 63 25 75 0 19 4 21 38 16 27 -4 42 -1 51 11 11 13 29 16 93 12z
m1070 -146 c10 0 18 -3 18 -7 0 -3 -11 -20 -24 -38 -13 -17 -32 -56 -41 -86
-9 -30 -19 -65 -21 -79 -3 -13 -7 -26 -10 -29 -2 -2 -21 1 -43 7 -21 7 -50 12
-65 12 -23 0 -26 4 -26 38 0 20 11 57 24 81 21 41 28 46 85 62 35 9 68 22 74
28 6 6 19 11 29 11z m1793 -41 c47 0 53 -3 117 -62 38 -35 88 -70 115 -81 26
-10 55 -25 63 -32 8 -7 33 -14 55 -16 29 -3 41 -9 44 -23 2 -10 14 -27 26 -37
13 -10 33 -33 44 -51 12 -21 22 -60 27 -108 4 -46 2 -103 -6 -147 -6 -40 -27
-103 -45 -140 -18 -37 -52 -88 -76 -112 -28 -28 -83 -65 -148 -98 -57 -29
-126 -58 -155 -63 -28 -6 -77 -10 -109 -9 -33 0 -103 9 -157 19 -55 10 -113
27 -133 40 -19 12 -42 32 -50 45 -9 13 -22 47 -31 77 -8 30 -18 79 -21 109 -4
30 -12 60 -17 67 -6 8 2 41 25 100 19 48 37 97 41 108 3 11 7 37 10 57 2 20 7
45 9 55 3 10 8 30 11 45 4 15 36 60 72 100 36 40 82 82 102 93 20 11 60 30 87
42 30 13 70 22 100 22z m-2825 -23 c42 -1 97 -10 125 -20 28 -10 64 -25 80
-34 17 -8 45 -28 62 -45 21 -19 38 -50 48 -84 9 -29 13 -63 10 -75 -2 -13 -7
-42 -9 -65 -3 -22 -9 -49 -14 -60 -5 -10 -18 -36 -28 -57 -10 -22 -27 -50 -38
-63 -10 -13 -48 -47 -85 -76 -36 -29 -86 -61 -111 -72 -31 -14 -66 -20 -120
-20 -41 0 -93 6 -116 13 -23 6 -62 31 -88 53 -26 23 -56 59 -67 81 -11 21 -24
69 -28 106 -5 44 -4 84 4 118 6 28 20 64 31 80 10 16 30 51 44 77 14 26 34 58
45 71 11 12 31 29 45 36 14 8 50 19 80 26 30 7 89 12 130 10z m583 -13 c12 -3
53 -8 90 -10 l69 -5 -6 -32 c-4 -17 -6 -46 -6 -63 1 -30 -2 -33 -30 -33 -17 0
-41 -5 -52 -11 -14 -8 -23 -8 -31 0 -5 5 -21 40 -33 77 -13 37 -24 71 -24 75
0 4 10 5 23 2z m2863 -145 c6 1 17 -24 24 -55 6 -32 16 -78 21 -103 5 -25 13
-65 16 -90 4 -25 7 -95 6 -155 0 -78 -5 -127 -18 -165 -9 -30 -24 -71 -33 -90
-9 -19 -38 -64 -66 -98 -28 -35 -81 -86 -118 -113 -38 -27 -68 -54 -68 -59 0
-6 -6 -10 -14 -10 -7 0 -19 -7 -27 -16 -7 -8 -34 -27 -61 -40 -26 -13 -48 -22
-48 -20 0 3 -21 -1 -47 -9 -27 -7 -106 -16 -178 -19 -103 -5 -154 -2 -245 14
-64 10 -149 33 -190 49 -55 22 -85 42 -113 73 -20 24 -40 52 -43 63 -4 11 -9
22 -13 25 -3 3 -14 22 -23 43 -10 21 -18 52 -18 70 0 23 13 48 47 90 l48 58 8
-28 c4 -15 9 -32 11 -38 2 -5 6 -23 11 -40 4 -16 17 -48 29 -70 11 -22 32 -49
46 -62 14 -12 45 -30 70 -41 25 -11 77 -27 115 -36 45 -11 113 -17 190 -17 66
0 141 4 165 10 25 6 73 24 108 41 34 16 65 30 68 30 3 0 34 18 67 41 34 22 76
59 93 82 17 23 50 77 72 119 23 42 49 110 58 150 11 50 15 96 11 148 -3 41
-17 110 -32 153 -15 43 -24 85 -21 92 3 8 22 16 43 18 21 2 43 4 49 5z m-2701
-94 c39 -2 93 -7 120 -11 28 -3 58 -10 67 -15 11 -5 17 -18 16 -34 -2 -14 -7
-29 -13 -33 -5 -5 -38 -4 -72 2 -45 8 -82 8 -130 0 -38 -6 -80 -15 -95 -18
-27 -7 -28 -6 -28 31 0 22 4 44 8 51 4 7 19 17 32 22 14 6 57 8 95 5z m40
-179 c17 -1 60 -8 98 -15 44 -9 67 -18 67 -27 0 -8 11 -39 25 -69 14 -30 25
-61 25 -69 0 -8 21 -45 47 -82 25 -37 58 -81 73 -98 14 -16 32 -42 39 -57 9
-16 11 -41 8 -64 -3 -20 -13 -44 -22 -54 -8 -9 -15 -23 -16 -31 0 -8 -28 -37
-62 -65 -34 -28 -82 -60 -107 -73 -25 -12 -56 -28 -70 -35 -14 -8 -47 -20 -75
-28 -42 -12 -61 -12 -118 -2 -47 9 -82 23 -115 46 -26 19 -62 56 -79 82 -23
33 -33 60 -33 86 0 21 6 52 14 70 10 25 11 41 3 69 -6 20 -17 44 -25 53 -13
15 -13 18 0 23 9 4 30 26 47 50 17 24 34 59 38 77 3 18 16 56 29 83 12 28 31
59 43 70 11 11 26 25 33 31 7 5 33 15 58 21 25 5 59 9 75 8z m-409 -425 c1 0
-1 -23 -4 -51 -3 -37 2 -70 19 -122 13 -40 30 -76 37 -80 6 -4 12 -15 12 -24
0 -9 17 -32 38 -51 20 -19 55 -47 77 -62 26 -18 66 -32 113 -41 68 -11 82 -11
160 8 48 12 107 28 132 38 25 9 54 25 66 36 11 10 24 19 28 19 5 0 30 16 57
36 27 20 49 41 49 48 0 7 14 25 31 42 17 16 37 44 45 63 8 18 14 44 14 57 0
14 6 24 14 24 8 0 31 -9 50 -21 20 -12 36 -29 36 -38 0 -10 -5 -33 -12 -52 -6
-19 -19 -45 -28 -59 -9 -14 -22 -44 -30 -67 -7 -24 -17 -43 -22 -43 -5 0 -11
-8 -15 -17 -4 -10 -19 -32 -34 -50 -14 -17 -28 -35 -30 -40 -2 -4 -20 -22 -39
-38 -22 -19 -79 -46 -144 -69 -104 -37 -112 -38 -215 -34 -90 3 -115 8 -163
31 -31 16 -67 30 -79 32 -12 3 -32 13 -43 23 -12 10 -39 30 -61 45 -22 15 -51
44 -64 64 -13 21 -32 49 -41 63 -10 15 -29 49 -44 77 -23 46 -25 60 -19 114 3
33 11 65 17 70 6 5 29 23 51 39 22 16 40 30 41 30z"/>
<g>
<path d="M7083 17168 c-16 0 -44 -3 -63 -5 -22 -3 -48 -16 -68 -36 -19 -18
-49 -53 -68 -78 -26 -35 -34 -56 -33 -85 0 -23 11 -57 28 -84 19 -32 41 -53
79 -72 40 -20 61 -25 94 -21 24 3 64 19 90 36 33 22 52 43 62 72 9 22 16 62
16 87 0 26 -4 58 -10 72 -5 14 -30 46 -54 71 -34 34 -52 45 -73 43z m-24 -85
c14 -3 34 -13 45 -22 10 -9 25 -30 32 -48 8 -18 14 -41 14 -53 0 -12 -16 -32
-42 -50 -23 -17 -54 -30 -70 -30 -17 0 -43 9 -58 20 -16 11 -32 29 -35 40 -4
11 2 34 12 52 10 18 31 48 47 65 23 26 35 31 55 26z"/>
</g>
<g>
<path d="M5665 16888 c-27 0 -64 -5 -81 -11 -17 -7 -37 -17 -45 -23 -8 -6 -31
-19 -51 -29 -21 -9 -38 -21 -38 -25 0 -5 -7 -16 -16 -25 -11 -10 -18 -41 -21
-93 -4 -61 -2 -86 11 -114 9 -19 29 -47 44 -60 15 -14 54 -35 88 -47 37 -13
85 -21 126 -21 49 0 76 6 109 23 24 13 50 35 57 50 7 15 15 48 19 75 3 27 0
81 -7 121 -9 56 -19 81 -43 107 -16 20 -46 43 -66 53 -20 10 -58 18 -86 19z
m-11 -93 c16 -3 34 -5 40 -5 6 0 22 -10 36 -23 14 -12 31 -35 38 -50 6 -15 12
-50 12 -76 0 -26 -5 -62 -11 -78 -9 -27 -17 -32 -55 -38 -25 -3 -68 -1 -100 6
-46 10 -60 19 -80 48 -13 20 -24 45 -24 56 0 11 14 40 30 64 17 24 30 49 30
55 0 6 12 19 28 29 17 11 38 15 56 12z"/>
</g>
<g>
<path d="M7905 16619 c-16 -1 -45 -5 -63 -9 -18 -4 -41 -15 -51 -24 -10 -9
-21 -13 -24 -9 -4 3 -16 -2 -27 -12 -11 -10 -20 -26 -20 -35 0 -10 -13 -23
-30 -30 -17 -7 -35 -21 -40 -31 -6 -10 -10 -39 -10 -65 0 -26 5 -64 11 -85 7
-21 28 -56 48 -77 33 -36 43 -40 103 -46 37 -4 87 -4 112 -1 25 4 66 20 90 35
40 26 45 34 56 86 7 32 9 79 5 107 -3 28 -14 62 -23 76 -10 14 -24 39 -32 55
-8 16 -28 38 -45 48 -16 10 -43 17 -60 17z m-19 -109 c13 0 35 -15 53 -35 17
-20 33 -46 37 -59 3 -13 4 -38 2 -57 -2 -24 -11 -37 -33 -50 -16 -10 -44 -20
-62 -22 -18 -3 -50 0 -73 5 -29 8 -45 19 -56 40 -13 24 -13 32 -2 45 7 9 20
34 28 57 11 29 25 46 50 58 19 10 45 18 56 18z"/>
</g>
<g>
<path d="M6615 16594 c-44 1 -96 0 -115 -2 -19 -1 -54 -5 -77 -7 -22 -3 -51
-15 -64 -25 -12 -11 -28 -20 -34 -20 -7 0 -15 -7 -19 -15 -3 -8 -11 -15 -19
-15 -7 0 -27 -15 -44 -32 -17 -18 -36 -43 -42 -55 -6 -13 -17 -56 -24 -98 -7
-41 -10 -78 -6 -82 4 -5 12 -47 18 -96 7 -62 18 -100 36 -132 15 -24 42 -58
61 -75 19 -16 49 -36 67 -43 18 -8 78 -17 134 -20 l102 -7 81 42 c52 27 92 56
114 83 19 22 48 69 66 102 23 43 34 80 37 125 3 39 -1 93 -11 141 -8 42 -24
94 -35 114 -10 21 -27 45 -37 54 -11 9 -39 27 -64 39 -35 18 -63 23 -125 24z
m-45 -88 c61 -2 98 -9 130 -25 33 -15 50 -31 62 -59 9 -20 22 -55 29 -76 7
-24 9 -68 6 -114 -4 -55 -11 -82 -26 -101 -12 -14 -25 -35 -30 -47 -5 -11 -25
-33 -44 -50 -20 -16 -48 -38 -64 -49 -15 -11 -32 -19 -36 -17 -4 1 -16 -2 -26
-8 -12 -6 -40 -6 -81 1 -34 5 -69 16 -77 24 -8 8 -25 15 -38 15 -14 0 -38 14
-58 33 -21 22 -37 50 -43 80 -6 26 -12 84 -13 129 -2 61 2 92 15 118 9 19 37
54 61 77 24 24 56 45 71 48 15 3 38 10 52 15 14 5 63 8 110 6z"/>
<g>
<path d="M6491 16440 c-22 0 -44 -6 -51 -15 -7 -8 -18 -15 -25 -15 -7 0 -20
-12 -30 -26 -9 -14 -25 -34 -35 -44 -11 -11 -22 -31 -26 -44 -4 -16 4 -50 21
-93 23 -59 33 -72 77 -101 28 -18 69 -37 90 -41 22 -5 51 -6 66 -1 15 4 38 13
52 19 14 7 36 28 49 46 13 19 26 55 28 79 3 25 2 53 -2 63 -5 10 -10 26 -12
37 -2 10 -17 35 -35 55 -17 20 -41 41 -52 48 -12 7 -31 12 -43 13 -12 0 -25 5
-28 10 -3 6 -23 10 -44 10z m33 -86 c11 -4 31 -10 43 -15 13 -5 32 -23 43 -41
15 -24 20 -45 17 -76 -3 -27 -13 -52 -27 -67 -19 -20 -30 -23 -59 -19 -20 3
-51 18 -70 33 -19 15 -39 40 -44 55 -7 20 -5 36 4 54 7 15 26 40 42 55 21 20
35 26 51 21z"/>
</g>
</g>
<g>
<path d="M4665 16523 c-11 3 -31 3 -45 1 -14 -3 -44 -14 -67 -26 -25 -13 -49
-35 -57 -53 -8 -17 -26 -47 -40 -68 -25 -36 -25 -38 -10 -80 9 -23 21 -53 27
-67 7 -14 19 -31 27 -37 8 -7 42 -26 74 -43 52 -26 66 -29 110 -24 28 4 65 13
81 22 17 8 40 24 53 35 17 16 22 31 22 71 0 27 -8 77 -17 109 -11 37 -32 76
-55 102 -21 23 -48 45 -60 48 -13 3 -32 7 -43 10z m-25 -93 c15 0 39 -9 54
-21 15 -11 32 -35 40 -52 7 -18 15 -48 18 -68 4 -20 3 -41 -1 -47 -3 -6 -19
-16 -34 -21 -16 -6 -38 -11 -49 -11 -12 0 -41 10 -66 21 -26 13 -47 32 -53 47
-6 16 -6 36 2 59 6 18 22 47 36 63 16 20 34 30 53 30z"/>
</g>
<g>
<path d="M3715 16499 c-38 -1 -92 -5 -118 -10 -27 -6 -65 -20 -85 -33 -20 -13
-48 -27 -62 -31 -14 -4 -42 -16 -63 -27 -21 -10 -67 -46 -102 -80 -36 -33 -65
-65 -65 -71 0 -5 -12 -21 -27 -35 -16 -14 -27 -28 -25 -31 1 -3 -4 -28 -13
-56 -9 -27 -23 -65 -32 -84 -8 -18 -17 -63 -19 -100 -2 -36 0 -107 4 -157 8
-78 13 -97 40 -135 17 -24 49 -63 70 -86 21 -24 65 -56 97 -73 32 -16 69 -30
81 -30 12 0 27 -6 33 -14 7 -8 43 -22 81 -30 38 -9 90 -16 116 -16 26 0 77 7
113 16 36 9 68 20 71 23 3 3 23 15 44 26 23 12 50 38 65 63 14 23 30 42 36 42
5 0 35 26 65 58 31 31 67 75 81 97 14 22 32 58 40 80 8 23 14 80 14 135 0 82
-5 108 -34 190 -18 52 -42 113 -53 135 -12 22 -41 63 -67 93 -25 29 -59 60
-76 69 -16 9 -55 29 -85 44 -46 24 -66 29 -125 28z m30 -106 c22 -2 54 -9 70
-16 17 -6 36 -16 43 -22 8 -5 37 -30 64 -55 28 -25 61 -67 75 -95 14 -27 31
-70 39 -95 8 -25 18 -58 22 -75 4 -16 7 -59 6 -95 0 -36 -3 -76 -6 -90 -3 -14
-10 -38 -17 -54 -6 -16 -53 -72 -104 -124 -51 -51 -110 -106 -133 -122 -23
-15 -64 -33 -92 -41 -40 -10 -69 -10 -129 -2 -43 6 -91 16 -108 23 -16 7 -40
14 -51 15 -12 1 -41 13 -65 27 -24 14 -59 40 -78 58 -18 18 -45 58 -60 89 -23
50 -26 67 -24 158 1 77 7 118 24 165 13 35 39 85 58 112 20 26 55 67 79 90 24
22 67 54 95 69 29 16 81 38 117 49 36 11 81 23 100 28 19 4 53 6 75 3z"/>
<g>
<path d="M3660 16243 c-25 3 -66 2 -91 -3 -25 -4 -60 -15 -76 -24 -17 -8 -33
-13 -36 -10 -2 3 -21 -14 -41 -37 -20 -24 -36 -47 -36 -53 0 -6 -7 -24 -15
-40 -9 -16 -20 -48 -25 -70 -6 -28 -5 -52 6 -85 8 -25 22 -68 31 -96 9 -27 23
-58 32 -69 9 -10 29 -25 45 -33 22 -11 51 -14 110 -11 53 3 98 12 131 27 38
16 58 33 80 68 17 26 35 56 42 68 7 11 16 46 21 77 5 31 5 82 1 112 -5 43 -16
66 -45 101 -21 26 -49 52 -63 60 -15 7 -46 15 -71 18z m-67 -83 c5 0 27 -5 50
-11 23 -5 57 -23 75 -38 30 -27 32 -32 32 -99 0 -39 -4 -74 -10 -77 -5 -3 -10
-13 -10 -22 0 -9 -11 -31 -25 -49 -15 -20 -38 -35 -57 -39 -18 -4 -37 -11 -43
-15 -5 -4 -27 -8 -49 -8 -21 -1 -46 3 -55 7 -9 5 -30 37 -46 70 l-29 61 18 75
c14 60 23 79 46 95 15 11 34 20 42 20 8 0 23 7 34 15 10 8 23 15 27 15z"/>
</g>
</g>
<g>
<path d="M8380 15739 c-14 4 -48 4 -76 1 -39 -4 -60 -13 -90 -39 -24 -22 -46
-54 -58 -85 -10 -28 -21 -82 -23 -121 l-4 -70 40 -39 c39 -38 43 -39 119 -44
72 -4 82 -2 120 22 23 14 52 43 65 64 13 20 30 54 37 76 8 24 10 57 6 88 -4
31 -17 64 -33 85 -15 19 -38 40 -52 45 -14 6 -37 13 -51 17z m-61 -89 c28 0
59 -8 77 -19 23 -14 33 -28 35 -53 2 -18 3 -43 1 -56 -2 -13 -21 -41 -41 -61
-26 -26 -46 -38 -62 -36 -13 1 -34 3 -47 4 -13 0 -34 13 -47 27 -14 15 -25 39
-25 54 0 15 7 45 16 66 9 22 23 47 32 57 10 11 30 17 61 17z"/>
</g>
<g>
<path d="M5427 15597 c-50 1 -90 -3 -102 -10 -11 -7 -46 -29 -78 -51 -35 -23
-65 -53 -76 -75 -12 -22 -21 -68 -24 -116 -4 -60 -2 -85 9 -99 8 -11 14 -26
14 -33 0 -7 8 -22 18 -34 9 -11 40 -32 67 -47 42 -22 62 -26 125 -25 44 1 90
8 110 17 19 9 48 26 65 39 16 12 43 37 59 55 17 19 31 39 32 45 2 7 6 23 10
37 4 14 7 39 7 55 0 17 -6 48 -12 71 -6 23 -21 56 -34 75 -12 18 -42 47 -66
64 -38 27 -51 30 -124 32z m-14 -77 c4 0 24 -7 45 -16 20 -8 52 -29 70 -47 18
-17 37 -48 42 -68 8 -30 7 -47 -7 -82 -15 -39 -27 -50 -78 -77 -50 -27 -68
-31 -110 -28 -27 3 -67 12 -87 22 -22 11 -40 28 -45 44 -5 15 -8 42 -6 60 1
18 11 49 22 70 10 20 30 47 43 59 13 13 42 32 64 43 21 10 43 19 47 20z"/>
</g>
<g>
<path d="M7277 15359 c-45 0 -91 -6 -101 -12 -11 -7 -35 -27 -52 -45 -18 -18
-36 -48 -40 -65 -3 -18 -16 -45 -27 -60 -11 -16 -22 -48 -24 -70 -3 -29 2 -57
16 -88 12 -27 40 -62 66 -83 24 -20 69 -48 98 -61 45 -19 64 -22 118 -18 35 3
77 12 92 20 15 8 45 32 65 55 20 22 43 59 50 82 7 23 11 65 8 93 -3 37 -14 68
-37 105 -18 29 -40 61 -48 71 -9 10 -35 32 -59 48 -39 26 -50 29 -125 28z m0
-79 c21 -1 52 -9 69 -18 17 -9 46 -35 66 -57 19 -22 40 -50 47 -62 6 -12 11
-36 11 -53 0 -17 -7 -45 -16 -63 -9 -18 -27 -43 -40 -56 -21 -20 -34 -24 -92
-24 -45 -1 -78 5 -102 17 -19 10 -47 30 -62 44 -15 14 -32 40 -38 57 -9 28 -6
39 22 90 18 32 47 73 65 92 25 26 39 33 70 33z"/>
</g>
<g>
<path d="M2950 15180 c-65 0 -65 -1 -123 -54 l-58 -54 4 -83 c4 -80 5 -83 37
-111 19 -15 41 -28 50 -28 9 0 20 -4 26 -9 5 -5 25 -10 44 -12 19 -1 59 2 89
6 37 6 64 17 86 37 18 15 40 43 49 62 9 19 16 55 16 81 0 26 -8 60 -17 76 -9
15 -28 33 -42 39 -15 6 -42 20 -61 31 -25 13 -54 19 -100 19z m20 -92 c15 1
43 -9 63 -22 19 -13 38 -22 41 -18 3 3 6 -5 6 -17 0 -12 -7 -35 -15 -51 -8
-16 -25 -36 -37 -44 -12 -9 -41 -16 -63 -16 -22 0 -54 9 -72 20 -18 11 -33 23
-33 27 0 5 9 23 20 41 11 18 20 38 20 46 0 7 10 17 21 22 12 6 34 11 49 12z"/>
</g>
<g>
<path d="M4435 14925 c-38 0 -108 -3 -155 -7 -69 -6 -99 -14 -159 -45 -44 -22
-99 -61 -133 -95 -31 -31 -73 -82 -93 -115 -19 -32 -35 -68 -35 -79 0 -12 -6
-27 -14 -33 -8 -7 -17 -24 -21 -38 -3 -15 -15 -40 -26 -55 -12 -17 -27 -66
-37 -121 -8 -50 -16 -132 -16 -182 0 -49 5 -109 11 -133 6 -23 23 -61 39 -84
16 -23 44 -57 62 -76 17 -19 32 -39 32 -43 0 -5 17 -27 37 -50 20 -22 55 -49
77 -60 23 -10 55 -21 71 -23 17 -3 46 -9 65 -14 19 -5 57 -19 84 -30 33 -15
69 -22 110 -22 34 0 87 4 117 10 30 5 63 12 74 14 11 2 30 7 43 11 12 4 22 11
22 16 0 5 6 9 14 9 7 0 24 8 37 19 13 10 35 22 49 26 14 4 32 13 40 20 8 7 42
28 75 45 33 18 66 40 73 49 7 9 28 34 47 56 19 22 48 61 65 87 17 25 38 72 46
105 12 44 14 91 11 193 -4 122 -8 143 -36 213 -17 43 -39 90 -49 105 -9 15
-27 38 -40 52 -13 14 -29 36 -37 50 -7 14 -40 45 -74 69 -34 25 -61 48 -61 53
0 4 -7 8 -16 8 -9 0 -22 6 -28 14 -6 7 -54 29 -106 47 -70 24 -113 33 -165 34z
m5 -93 c47 -2 103 -11 125 -20 22 -8 49 -21 60 -28 11 -7 39 -23 62 -36 24
-13 67 -44 97 -70 29 -26 71 -73 93 -105 21 -32 49 -85 60 -118 13 -36 24 -99
28 -160 4 -55 9 -103 11 -107 2 -3 -3 -35 -12 -69 -9 -35 -31 -86 -49 -114
-17 -27 -51 -69 -73 -92 -23 -24 -49 -43 -57 -43 -9 0 -25 -9 -37 -20 -12 -11
-28 -20 -35 -20 -7 0 -13 -5 -13 -10 0 -6 -19 -19 -42 -30 -24 -10 -60 -29
-80 -41 -36 -22 -38 -22 -57 -5 -18 16 -30 17 -98 11 -43 -4 -124 -7 -179 -7
-67 1 -120 7 -154 18 -32 10 -65 31 -86 53 -19 20 -57 61 -83 91 -27 30 -56
69 -65 87 -9 17 -19 49 -23 70 -5 21 -8 67 -7 103 0 39 9 89 21 125 12 33 29
88 39 123 9 34 21 65 25 68 5 3 9 13 9 22 0 10 16 40 35 67 19 28 46 67 60 87
14 21 50 58 81 82 31 24 74 49 97 56 23 7 51 16 62 21 11 5 38 10 60 12 22 2
78 2 125 -1z"/>
<g>
<path d="M4356 14606 c-6 2 -27 -4 -46 -12 -19 -8 -46 -17 -60 -19 -14 -2 -52
-15 -84 -30 -32 -14 -72 -40 -89 -58 -16 -18 -40 -60 -52 -94 -20 -53 -21 -65
-9 -80 7 -10 14 -42 14 -72 0 -30 8 -78 17 -106 14 -41 27 -58 63 -83 26 -18
66 -38 91 -46 24 -8 69 -21 100 -30 30 -9 87 -17 125 -18 38 0 96 7 129 16 41
11 71 27 98 53 21 21 44 47 50 58 6 11 14 40 18 65 4 27 1 81 -7 134 -9 53
-22 100 -34 116 -11 16 -20 33 -20 38 0 6 -28 35 -62 65 -54 47 -74 57 -147
76 -46 13 -89 24 -95 27z m34 -87 c2 0 34 -10 70 -24 36 -14 82 -41 102 -60
20 -19 46 -55 57 -80 14 -32 21 -69 21 -118 1 -40 0 -79 -2 -87 -2 -8 -12 -28
-23 -44 -10 -15 -39 -37 -63 -47 -30 -13 -67 -19 -118 -19 -45 0 -86 6 -102
14 -15 8 -46 18 -67 21 -22 4 -56 16 -75 25 -19 10 -43 26 -52 37 -13 14 -19
44 -23 111 -5 78 -3 99 14 137 15 33 30 49 58 62 20 10 45 26 55 35 9 9 32 19
50 22 18 3 47 7 63 9 17 2 32 5 35 6z"/>
</g>
</g>
<g>
<path d="M6400 14843 c-19 2 -55 2 -80 0 -25 -1 -83 -8 -130 -14 -47 -6 -89
-14 -94 -20 -6 -5 -19 -9 -29 -9 -11 0 -49 -14 -84 -32 -36 -17 -91 -57 -123
-87 -32 -31 -74 -81 -93 -111 -22 -36 -36 -72 -39 -103 -3 -26 -12 -55 -20
-65 -9 -9 -18 -35 -21 -57 -3 -22 -12 -68 -20 -103 -12 -53 -12 -76 -1 -137 7
-40 20 -88 30 -107 9 -18 29 -47 43 -64 14 -17 39 -48 55 -67 16 -20 52 -48
79 -63 28 -14 58 -30 66 -34 9 -4 39 -15 66 -25 28 -10 75 -23 105 -30 30 -7
86 -23 124 -35 56 -19 83 -22 146 -17 57 4 95 13 142 35 35 16 86 48 113 71
28 24 61 53 75 66 15 12 49 56 76 98 49 71 51 79 62 173 9 79 8 119 -3 202 -8
56 -22 119 -31 140 -8 20 -22 57 -31 82 -8 25 -21 52 -29 61 -8 8 -14 21 -14
28 0 6 -7 14 -15 17 -8 3 -24 21 -35 38 -11 18 -53 56 -95 85 -41 28 -94 58
-117 65 -24 8 -59 17 -78 19z m-42 -93 c20 0 52 -5 71 -11 20 -6 55 -20 79
-31 23 -12 73 -53 110 -92 59 -63 72 -83 100 -162 18 -50 37 -120 43 -155 6
-36 8 -102 4 -149 -4 -56 -14 -102 -30 -135 -12 -27 -43 -70 -67 -95 -24 -25
-57 -55 -73 -67 -17 -12 -41 -31 -55 -41 -14 -11 -49 -27 -79 -37 -30 -10 -75
-19 -100 -21 -25 -2 -73 1 -106 7 -33 6 -85 20 -116 30 -30 10 -65 19 -77 19
-13 0 -48 13 -80 29 -31 16 -68 38 -81 48 -13 10 -31 25 -40 34 -9 8 -29 31
-44 50 -15 18 -39 58 -54 88 -23 49 -25 63 -19 127 4 39 15 103 26 142 11 38
35 104 54 146 23 49 54 97 87 131 29 30 58 55 65 55 7 0 43 14 81 30 37 17 75
34 83 38 8 5 51 9 95 11 44 2 82 5 84 7 2 2 20 4 39 4z"/>
<g>
<path d="M6296 14550 c-23 0 -45 -2 -47 -4 -2 -2 -24 -5 -49 -7 -25 -1 -67
-13 -94 -27 -26 -13 -51 -32 -53 -43 -3 -10 -9 -19 -14 -19 -5 0 -31 -23 -59
-51 -48 -48 -50 -53 -51 -107 -1 -31 0 -65 1 -75 1 -10 10 -37 20 -61 14 -30
35 -53 72 -78 29 -19 79 -49 110 -66 48 -27 72 -33 147 -39 80 -5 93 -4 126
16 20 11 42 21 49 21 7 0 28 15 47 33 23 22 40 53 52 93 9 33 17 80 17 104 -1
25 -5 65 -11 90 -5 25 -11 50 -12 55 -2 6 -11 24 -20 42 -9 18 -33 48 -53 67
-24 24 -51 38 -85 45 -28 6 -69 11 -93 11z m10 -87 c11 -2 27 -5 35 -7 8 -1
31 -10 51 -20 20 -10 41 -23 46 -29 5 -7 18 -37 30 -67 15 -38 20 -71 18 -108
-2 -29 -9 -66 -16 -82 -7 -17 -31 -41 -59 -57 -39 -23 -57 -27 -121 -27 -67 0
-81 4 -135 36 -34 19 -74 46 -89 59 -15 13 -34 36 -41 50 -8 14 -13 39 -13 55
1 24 18 47 77 107 74 74 79 78 136 86 33 4 69 6 81 4z"/>
</g>
</g>
<g>
<path d="M8429 14909 c-30 -1 -81 -5 -114 -9 -44 -5 -75 -16 -118 -44 -31 -20
-73 -58 -92 -84 -19 -26 -35 -53 -35 -60 0 -8 -12 -48 -26 -90 -17 -49 -28
-109 -31 -163 -5 -83 -4 -89 27 -148 18 -33 37 -61 42 -61 5 0 16 -16 23 -35
13 -30 23 -37 82 -55 38 -11 82 -27 98 -35 17 -7 66 -17 110 -20 61 -5 94 -3
136 9 31 9 76 32 101 51 24 19 53 47 65 63 12 16 29 55 38 86 10 33 18 100 19
159 1 56 -2 113 -7 127 -5 14 -18 46 -30 73 -11 26 -24 47 -28 47 -4 0 -10 11
-13 24 -3 14 -25 46 -48 71 -23 26 -66 57 -94 71 -36 17 -66 24 -105 23z m-19
-86 c30 -3 78 -16 107 -29 32 -16 65 -41 84 -67 18 -23 38 -47 46 -53 7 -6 20
-47 29 -90 11 -53 15 -105 11 -157 -3 -49 -12 -87 -22 -104 -10 -15 -34 -42
-54 -60 -20 -19 -49 -41 -64 -49 -16 -9 -59 -18 -97 -21 -43 -4 -87 -1 -117 7
-26 7 -75 27 -108 44 -33 17 -67 40 -75 50 -8 11 -25 38 -38 60 -13 22 -25 58
-28 81 -5 31 3 67 31 153 21 62 50 130 65 151 15 21 45 46 66 56 22 10 55 22
74 26 19 4 60 5 90 2z"/>
<g>
<path d="M8357 14729 c-18 0 -43 -5 -56 -10 -13 -5 -40 -24 -60 -41 -28 -25
-39 -44 -48 -87 -7 -31 -12 -77 -13 -103 0 -36 7 -57 31 -93 17 -25 41 -52 52
-60 12 -8 47 -18 78 -23 46 -7 63 -5 89 8 17 9 49 33 70 54 21 21 44 54 51 73
7 21 9 57 5 90 -3 30 -13 67 -20 81 -8 15 -22 34 -32 43 -11 9 -41 28 -67 43
-26 14 -62 26 -80 25z m18 -85 c17 -4 44 -16 60 -27 17 -12 36 -28 43 -37 8
-9 11 -35 9 -68 -3 -44 -9 -59 -38 -88 -32 -34 -37 -36 -88 -31 -42 3 -58 9
-73 28 -10 13 -26 37 -34 53 -14 25 -14 35 -3 70 7 23 17 47 23 55 6 8 25 23
41 33 21 12 39 16 60 12z"/>
</g>
</g>
<g>
<path d="M2855 14526 c-60 2 -117 1 -125 -2 -8 -3 -35 -15 -60 -27 -25 -11
-69 -39 -99 -61 -29 -22 -68 -60 -87 -84 -19 -25 -34 -50 -34 -57 0 -7 -8 -27
-17 -46 -14 -27 -18 -56 -16 -138 1 -66 8 -122 19 -155 13 -39 32 -66 83 -114
38 -36 92 -75 126 -92 50 -23 79 -29 171 -35 78 -5 113 -4 118 4 4 6 20 11 35
11 17 0 47 14 75 36 26 19 64 59 86 87 21 29 45 59 52 68 7 8 24 38 38 64 22
44 25 62 25 155 -1 99 -2 108 -34 168 -18 34 -52 80 -75 101 -22 22 -52 48
-66 59 -14 11 -43 28 -65 37 -28 12 -74 19 -150 21z m-2 -90 c49 -4 87 -14
130 -35 34 -16 73 -40 87 -53 14 -13 38 -46 54 -73 22 -40 28 -66 31 -125 4
-71 2 -79 -36 -148 -21 -41 -55 -93 -73 -116 -24 -28 -51 -47 -83 -59 -28 -10
-79 -17 -123 -17 -41 0 -86 1 -100 4 -14 2 -43 11 -65 21 -22 9 -63 41 -91 70
-40 41 -55 65 -65 106 -7 30 -13 82 -13 116 0 40 6 70 17 87 9 14 17 32 17 40
0 8 11 28 25 44 14 17 25 34 25 38 0 5 44 31 98 57 93 46 100 48 165 43z"/>
<g>
<path d="M2810 14389 c-8 0 -22 -3 -30 -5 -8 -3 -33 -14 -55 -24 -22 -11 -59
-42 -83 -69 -23 -27 -47 -62 -53 -78 -6 -15 -13 -47 -16 -71 -4 -36 0 -51 28
-98 19 -31 46 -65 62 -76 19 -14 51 -21 103 -25 63 -5 83 -3 113 12 20 11 50
32 68 48 21 20 36 46 44 79 6 28 9 75 6 104 -4 41 -14 65 -39 97 -18 23 -39
48 -46 56 -7 8 -30 22 -50 32 -20 11 -43 19 -52 18z m-2 -100 c13 0 37 -7 53
-16 16 -10 29 -25 29 -35 0 -9 4 -20 10 -23 5 -3 9 -18 9 -33 -1 -15 -3 -43
-6 -64 -3 -28 -13 -42 -42 -62 -28 -20 -49 -26 -89 -26 -49 0 -53 2 -76 38
-13 20 -27 53 -30 72 -5 31 -1 40 34 80 22 25 40 48 40 52 0 4 10 9 23 11 12
2 33 5 45 6z"/>
</g>
</g>
<g>
<path d="M7781 14050 c-41 0 -69 -7 -108 -28 -28 -15 -65 -39 -82 -53 -16 -15
-39 -42 -50 -60 -12 -19 -21 -41 -21 -49 0 -9 -8 -23 -19 -32 -10 -8 -26 -42
-35 -74 -10 -33 -22 -75 -28 -96 -6 -20 -7 -53 -3 -74 4 -21 18 -58 32 -81 14
-24 33 -47 42 -52 9 -5 36 -30 61 -56 25 -25 58 -53 73 -61 16 -9 36 -13 44
-10 9 4 21 2 27 -2 6 -5 38 -16 72 -25 33 -10 72 -17 86 -17 14 0 49 12 77 27
28 14 74 50 103 79 30 31 62 78 79 116 16 34 33 87 40 117 6 30 9 69 6 86 -3
18 -14 52 -25 76 -11 24 -23 54 -26 65 -4 12 -35 48 -69 80 -34 33 -75 69 -90
82 -15 12 -51 27 -79 32 -28 6 -76 10 -107 10z m38 -71 c2 0 29 -7 60 -16 40
-13 69 -31 101 -63 25 -25 62 -77 83 -117 30 -57 37 -82 37 -127 0 -30 -5 -68
-12 -83 -7 -15 -24 -44 -38 -63 -14 -19 -31 -41 -38 -49 -7 -8 -20 -24 -29
-38 -8 -13 -30 -30 -47 -38 -20 -9 -51 -12 -86 -9 -30 2 -82 9 -115 15 -33 5
-69 18 -80 28 -11 10 -39 35 -62 56 -24 21 -43 43 -43 48 0 6 -7 18 -16 28
-10 11 -16 35 -15 66 0 26 6 66 14 88 8 22 25 63 38 90 12 28 36 67 52 88 17
22 52 49 81 62 28 13 65 26 81 28 17 2 32 5 34 6z"/>
<g>
<path d="M7866 13830 c-17 0 -38 -5 -46 -10 -8 -5 -25 -10 -38 -10 -13 0 -35
-6 -50 -14 -15 -8 -37 -31 -49 -53 -12 -21 -24 -64 -28 -95 -7 -54 -6 -58 16
-67 13 -5 39 -25 57 -45 23 -26 42 -36 65 -38 17 -1 49 -2 70 -2 22 -1 44 5
50 13 7 8 36 32 64 53 51 37 53 40 53 88 0 27 -5 62 -12 77 -6 15 -21 39 -32
51 -12 13 -36 30 -55 38 -18 8 -48 14 -65 14z m-14 -80 c45 0 50 -3 77 -40 28
-39 29 -42 14 -68 -9 -15 -29 -38 -45 -51 -23 -18 -36 -22 -63 -17 -19 4 -48
18 -65 32 -22 19 -30 34 -30 57 0 18 6 39 13 48 7 8 21 21 32 27 11 6 41 12
67 12z"/>
</g>
</g>
<g>
<path d="M8729 13810 c-8 0 -32 -9 -54 -19 -22 -10 -48 -28 -57 -40 -10 -12
-18 -24 -18 -27 0 -3 -14 -24 -31 -45 -27 -34 -30 -45 -24 -76 3 -19 10 -43
15 -52 4 -9 14 -29 21 -44 7 -16 22 -34 34 -40 11 -6 50 -11 86 -11 38 -1 76
5 90 12 13 8 35 27 48 44 20 25 25 45 29 107 4 72 3 77 -22 100 -14 14 -26 30
-26 36 0 6 -17 21 -39 33 -21 12 -45 22 -52 22z m3 -102 c26 -2 36 -10 49 -37
11 -23 14 -45 9 -72 -4 -21 -13 -45 -20 -54 -7 -8 -29 -15 -50 -15 -21 0 -47
8 -59 18 -12 9 -24 33 -27 52 -5 30 0 40 30 73 29 32 40 38 68 35z"/>
</g>
<g>
<path d="M5408 13620 c-13 -1 -43 -8 -68 -17 -25 -8 -53 -22 -64 -32 -10 -9
-20 -14 -23 -11 -2 3 -16 -6 -30 -20 -14 -13 -29 -34 -33 -46 -5 -12 -12 -54
-16 -93 -4 -49 -3 -85 6 -109 6 -20 23 -45 36 -55 13 -10 48 -23 77 -29 30 -6
62 -8 73 -4 10 4 37 9 59 11 22 2 54 10 71 19 16 8 41 27 54 41 14 15 28 48
35 83 10 46 9 66 -3 107 -8 28 -21 62 -30 77 -8 14 -39 38 -68 52 -29 14 -63
26 -76 26z m-29 -91 c25 1 57 -3 73 -10 15 -6 37 -27 49 -46 16 -26 20 -42 14
-71 -4 -20 -11 -45 -16 -55 -6 -10 -22 -23 -37 -28 -15 -6 -29 -10 -32 -11 -3
0 -9 -3 -15 -8 -5 -4 -24 -11 -41 -14 -21 -5 -43 -1 -67 10 -19 9 -40 28 -46
41 -6 13 -11 32 -11 43 0 10 5 22 10 25 6 3 10 18 10 32 0 15 13 38 33 57 25
25 42 33 76 35z"/>
</g>
<g>
<path d="M3070 13380 c-8 0 -38 -13 -65 -29 -28 -16 -56 -35 -62 -43 -7 -7
-18 -34 -26 -58 -8 -25 -15 -52 -15 -60 1 -8 -2 -32 -6 -53 -3 -22 -1 -47 6
-60 6 -12 29 -39 51 -59 24 -24 50 -39 68 -40 16 -1 44 -2 62 -4 17 -1 45 1
61 4 16 3 46 22 68 44 37 37 38 40 38 109 0 48 -7 91 -21 129 -13 37 -29 62
-45 70 -13 8 -24 17 -24 21 0 5 -17 13 -37 18 -21 6 -45 11 -53 11z m10 -101
c9 0 25 -6 37 -14 12 -9 27 -32 33 -53 5 -20 10 -56 10 -79 0 -32 -5 -45 -19
-53 -11 -5 -37 -10 -59 -10 -25 0 -49 8 -66 21 -20 15 -26 29 -26 57 0 20 7
55 16 79 11 28 23 43 38 46 11 2 28 5 36 6z"/>
</g>
<g>
<path d="M3972 13160 c-31 -1 -71 -7 -87 -14 -17 -7 -36 -21 -44 -30 -8 -10
-28 -24 -44 -32 -16 -9 -35 -31 -43 -49 -8 -19 -14 -52 -14 -74 0 -22 13 -67
29 -103 15 -34 38 -72 50 -83 19 -16 37 -19 119 -20 88 0 101 3 143 27 33 20
53 40 68 73 11 24 21 58 21 73 0 16 -7 50 -17 77 -9 27 -27 64 -40 84 -13 19
-37 43 -53 53 -21 12 -49 18 -88 18z m38 -88 c8 -3 21 -10 28 -15 8 -6 22 -28
33 -48 10 -21 19 -53 19 -72 0 -18 -6 -41 -13 -51 -7 -9 -31 -25 -52 -35 -22
-10 -61 -17 -87 -16 -33 0 -54 7 -70 22 -13 12 -31 38 -42 57 -17 33 -18 37
-3 60 9 14 38 39 63 57 26 18 61 35 78 39 17 4 38 4 46 2z"/>
</g>
<g>
<path d="M8305 13049 c-11 -1 -33 -4 -50 -8 -16 -4 -43 -14 -59 -22 -17 -8
-40 -36 -57 -69 -16 -30 -29 -68 -28 -85 0 -16 10 -50 22 -75 20 -39 28 -46
77 -62 30 -9 68 -17 84 -17 17 -1 44 10 63 25 19 15 43 46 54 71 10 25 19 59
19 76 0 17 -6 47 -12 66 -7 20 -19 43 -27 51 -8 8 -26 23 -40 32 -14 10 -35
17 -46 17z m-19 -99 c15 0 36 -7 46 -17 12 -10 18 -30 18 -56 0 -24 -7 -48
-17 -59 -9 -10 -30 -18 -48 -18 -18 0 -42 8 -53 18 -11 9 -23 30 -26 45 -5 22
-1 34 23 57 18 19 40 30 57 30z"/>
</g>
<g>
<path d="M2491 12878 c-20 -1 -54 -3 -75 -5 -24 -3 -55 -16 -77 -34 -20 -16
-50 -35 -66 -42 -16 -6 -47 -33 -71 -58 -23 -25 -42 -50 -42 -54 0 -5 -6 -16
-13 -24 -8 -9 -19 -42 -26 -73 -7 -31 -11 -101 -10 -155 2 -90 5 -103 35 -161
18 -34 46 -79 61 -100 15 -20 40 -49 55 -64 14 -15 65 -46 111 -68 69 -32 98
-40 149 -42 35 0 74 2 88 6 14 4 41 15 60 23 19 9 65 33 101 54 53 31 72 48
91 86 14 27 33 72 43 102 14 43 16 76 12 175 -3 90 -10 135 -26 176 -11 30
-21 56 -21 57 0 2 -7 3 -15 3 -9 0 -18 8 -22 18 -3 9 -31 41 -62 71 -31 29
-72 61 -91 71 -20 10 -62 23 -95 29 -32 6 -75 10 -94 9z m26 -89 c13 0 45 -7
72 -18 27 -10 66 -31 87 -47 22 -16 46 -36 55 -44 8 -8 37 -41 63 -72 l48 -58
-1 -119 c0 -103 -4 -126 -24 -173 -14 -29 -35 -63 -49 -75 -13 -13 -60 -41
-103 -63 -43 -22 -92 -40 -109 -40 -17 0 -65 12 -106 27 -61 23 -87 40 -138
90 -41 41 -71 82 -88 120 -21 47 -26 73 -26 136 1 43 7 94 13 115 7 20 25 54
41 74 15 20 28 40 28 45 0 4 24 22 53 39 29 17 66 36 82 42 17 6 41 13 55 15
14 2 35 5 47 6z"/>
<g>
<path d="M2468 12596 c-43 5 -56 3 -67 -10 -8 -9 -25 -22 -40 -29 -14 -7 -34
-30 -45 -52 -16 -34 -17 -46 -7 -83 6 -23 11 -57 11 -75 1 -17 9 -42 19 -54
11 -13 40 -32 65 -43 37 -15 55 -18 91 -11 24 5 46 7 48 5 2 -2 21 11 43 30
38 32 39 35 42 110 3 46 -1 88 -8 106 -7 16 -31 45 -55 64 -33 27 -56 37 -97
42z m-2 -76 c6 0 27 -16 47 -37 31 -31 37 -43 37 -79 0 -34 -5 -47 -22 -58
-13 -8 -37 -17 -54 -20 -22 -5 -34 -2 -46 11 -9 10 -24 37 -34 61 -13 35 -14
48 -5 66 7 12 24 30 39 39 15 9 32 17 38 17z"/>
</g>
</g>
<g>
<path d="M6652 12809 c-15 0 -48 -6 -75 -13 -26 -7 -55 -20 -65 -29 -10 -10
-24 -17 -30 -17 -7 0 -12 -7 -12 -16 0 -11 -6 -13 -19 -9 -15 4 -24 -4 -43
-38 -14 -24 -28 -60 -31 -80 -4 -24 1 -53 14 -87 10 -28 31 -72 44 -99 19 -36
35 -52 63 -63 20 -9 58 -21 85 -27 26 -6 58 -11 71 -11 14 0 45 9 69 19 25 11
64 36 87 57 23 21 48 53 57 73 11 24 16 64 16 118 0 64 -4 88 -21 115 -11 18
-33 45 -49 59 -16 15 -51 31 -81 37 -30 7 -66 12 -80 11z m7 -81 c25 0 59 -7
76 -14 18 -7 39 -24 48 -37 8 -13 18 -48 22 -78 5 -39 2 -64 -9 -90 -8 -20
-28 -45 -43 -55 -15 -10 -41 -25 -57 -32 -22 -9 -43 -10 -90 -1 -34 5 -72 18
-84 28 -13 10 -32 42 -43 72 -10 30 -18 61 -19 69 0 8 27 40 61 70 33 30 68
58 77 62 10 3 37 6 61 6z"/>
</g>
<g>
<path d="M5160 12903 c-41 2 -86 2 -100 0 -14 -2 -45 -11 -69 -19 -24 -8 -53
-20 -65 -26 -11 -7 -26 -13 -31 -14 -6 -1 -33 -11 -60 -23 -28 -12 -63 -29
-79 -38 -16 -9 -41 -26 -55 -37 -13 -12 -44 -41 -68 -66 -24 -25 -56 -71 -72
-102 -16 -31 -37 -70 -48 -85 -10 -15 -24 -39 -30 -53 -7 -14 -16 -41 -20 -60
-5 -19 -8 -93 -8 -165 1 -102 5 -140 20 -175 10 -25 28 -58 40 -75 12 -16 25
-40 29 -52 4 -12 32 -45 62 -72 31 -28 60 -51 64 -51 5 0 49 -24 97 -53 48
-29 108 -58 132 -64 27 -7 101 -10 190 -7 80 2 160 9 176 15 17 6 48 18 70 27
22 9 63 32 90 51 28 19 67 49 87 66 21 17 52 51 70 76 18 24 43 62 54 84 12
22 27 63 35 90 8 30 14 96 14 165 -1 63 -7 147 -14 185 -8 39 -30 109 -51 156
-20 47 -45 95 -56 106 -10 11 -46 44 -79 73 -33 29 -69 56 -80 61 -11 5 -35
18 -53 29 -18 11 -49 22 -69 24 -20 3 -39 9 -42 15 -3 5 -40 11 -81 14z m-74
-94 c29 1 86 -6 128 -15 47 -10 98 -29 137 -52 34 -20 88 -66 120 -101 49 -55
63 -78 86 -151 15 -47 28 -98 29 -115 1 -16 6 -55 12 -85 5 -30 9 -64 7 -75
-1 -11 -6 -38 -10 -60 -5 -22 -9 -44 -10 -50 -1 -5 -5 -27 -9 -47 -4 -21 -14
-42 -22 -49 -8 -6 -14 -17 -14 -23 0 -6 -17 -28 -38 -49 -20 -21 -61 -58 -90
-81 -30 -24 -69 -47 -87 -50 -19 -4 -40 -15 -47 -25 -11 -15 -30 -18 -128 -20
-78 -1 -134 3 -175 14 -33 9 -72 24 -87 35 -15 11 -30 20 -34 20 -4 0 -15 6
-23 14 -9 8 -28 18 -43 21 -22 6 -28 4 -28 -9 0 -9 -3 -16 -7 -16 -5 0 -22 9
-39 19 -17 10 -51 41 -74 69 -24 28 -54 78 -67 114 -15 39 -27 99 -31 158 -8
90 -6 99 22 175 16 44 55 118 86 165 32 47 76 101 99 119 23 19 54 41 69 48
14 8 42 24 62 36 19 12 62 32 95 44 33 12 83 22 111 22z"/>
<g>
<path d="M5066 12639 c-34 0 -72 -4 -86 -9 -14 -4 -59 -26 -100 -49 -41 -22
-92 -49 -112 -58 -21 -10 -38 -22 -38 -28 0 -5 -6 -21 -13 -35 -8 -14 -18 -59
-24 -100 -6 -41 -12 -92 -12 -114 -1 -21 5 -63 14 -92 12 -42 27 -65 69 -105
29 -27 80 -63 114 -79 34 -16 89 -34 122 -41 35 -7 89 -9 127 -6 43 4 86 16
120 33 29 15 66 39 82 53 15 14 32 37 36 50 4 14 16 32 26 40 11 9 26 43 35
76 10 38 13 76 9 105 -4 25 -16 68 -27 95 -11 28 -25 61 -31 74 -7 13 -30 44
-51 69 -27 30 -66 57 -120 83 -67 33 -90 39 -140 38z m6 -95 c21 -2 58 -12 83
-22 25 -10 65 -34 89 -55 27 -22 55 -59 72 -94 18 -37 29 -80 32 -118 3 -56 1
-64 -36 -121 -33 -50 -51 -67 -99 -91 -43 -21 -76 -30 -120 -32 -37 -1 -77 4
-104 15 -24 9 -60 23 -79 32 -19 8 -54 31 -77 50 -23 20 -47 49 -53 65 -5 17
-10 53 -10 81 0 28 6 71 14 95 7 25 28 62 46 83 19 21 39 38 46 38 7 0 19 8
26 18 7 10 40 27 73 39 35 12 76 19 97 17z"/>
</g>
</g>
<g>
<path d="M7798 12404 c-40 2 -87 0 -104 -4 -18 -4 -45 -17 -62 -29 -17 -11
-34 -21 -39 -21 -5 0 -20 -11 -33 -25 -13 -14 -29 -25 -36 -25 -7 0 -24 -15
-39 -33 -14 -19 -36 -54 -50 -78 -14 -24 -30 -55 -36 -69 -7 -14 -19 -41 -27
-60 -8 -19 -20 -69 -26 -111 -6 -43 -14 -81 -19 -85 -4 -4 -4 -24 -1 -43 4
-20 23 -67 43 -104 24 -47 60 -92 111 -140 41 -40 95 -82 120 -94 25 -11 66
-26 93 -32 26 -6 70 -11 98 -11 29 0 69 8 95 20 24 12 77 41 117 67 39 25 84
60 99 77 15 17 28 35 28 40 0 5 6 17 13 25 7 9 19 39 25 66 6 28 14 68 17 90
3 22 7 74 9 115 2 41 -1 89 -7 105 -5 17 -15 44 -22 60 -8 17 -22 50 -33 75
-11 25 -46 71 -78 102 -33 31 -87 70 -121 87 -48 25 -77 32 -135 35z m4 -95
c26 1 63 -7 83 -16 19 -9 35 -20 35 -25 0 -4 6 -8 13 -8 7 0 27 -12 44 -27 17
-16 53 -59 79 -98 l48 -70 0 -95 c0 -52 -4 -120 -8 -150 -5 -30 -23 -77 -39
-105 -16 -27 -44 -63 -63 -79 -18 -17 -75 -45 -126 -63 -51 -18 -112 -33 -134
-33 -23 0 -63 10 -90 21 -27 12 -57 30 -66 39 -10 10 -25 24 -35 32 -10 7 -39
40 -65 73 -25 33 -50 79 -56 103 -8 35 -6 59 14 138 13 53 27 101 32 108 5 6
16 31 25 56 9 25 33 62 53 83 20 20 40 37 44 37 5 0 15 6 22 13 7 7 29 21 48
31 19 10 49 22 65 26 17 4 51 8 77 9z"/>
<g>
<path d="M7835 12175 c-40 3 -72 -1 -95 -11 -19 -9 -55 -36 -79 -60 -31 -33
-48 -62 -62 -107 -10 -34 -19 -78 -18 -97 0 -19 6 -51 13 -70 8 -23 28 -46 60
-67 26 -18 65 -37 86 -43 20 -5 59 -7 86 -3 31 4 61 16 81 32 17 14 45 45 62
69 17 23 36 62 43 85 9 34 9 58 0 102 -7 32 -24 78 -38 102 -14 24 -37 49 -52
54 -15 6 -54 12 -87 14z m-15 -105 c48 0 63 -4 81 -22 11 -13 24 -32 28 -42 4
-11 4 -40 -1 -65 -4 -25 -21 -61 -37 -81 -15 -19 -41 -41 -56 -49 -24 -12 -37
-12 -74 -2 -25 7 -53 19 -62 27 -9 8 -21 32 -28 53 -8 27 -8 47 -1 65 5 14 14
26 19 26 6 0 24 20 41 45 31 45 31 45 90 45z"/>
</g>
</g>
<g>
<path d="M3530 11950 c-16 0 -32 -4 -35 -10 -3 -5 -17 -10 -30 -10 -13 0 -48
-20 -78 -45 -47 -38 -59 -54 -79 -112 -12 -38 -22 -78 -20 -90 1 -12 14 -42
28 -67 14 -25 38 -55 54 -66 15 -11 51 -26 80 -33 38 -10 67 -11 111 -4 49 8
65 16 89 43 16 19 37 59 45 89 12 40 14 73 9 127 -5 55 -13 81 -31 106 -14 19
-45 42 -70 53 -25 10 -58 19 -73 19z m1 -90 c3 0 21 -5 40 -12 19 -6 37 -16
42 -22 4 -6 7 -50 6 -98 -1 -73 -5 -90 -21 -105 -16 -14 -37 -18 -95 -18 -71
0 -76 2 -99 30 -13 16 -25 38 -26 50 -2 11 -1 32 3 47 4 14 26 44 49 65 23 21
54 43 68 50 15 7 30 12 33 13z"/>
</g>
<g>
<path d="M6102 11659 c-31 -1 -75 -7 -98 -13 -22 -6 -52 -19 -67 -28 -14 -10
-31 -18 -37 -18 -6 0 -28 -10 -48 -22 -20 -12 -58 -47 -84 -79 -27 -32 -48
-63 -48 -69 0 -5 -5 -10 -10 -10 -6 0 -18 -17 -28 -37 -9 -21 -20 -40 -24 -43
-4 -3 -16 -27 -27 -54 -12 -26 -21 -54 -21 -61 0 -8 -7 -20 -15 -29 -9 -8 -16
-19 -15 -23 0 -4 -3 -24 -6 -43 -4 -19 -11 -40 -15 -46 -5 -6 -10 -43 -10 -81
-1 -39 5 -88 12 -109 7 -22 18 -46 25 -54 6 -8 15 -27 20 -42 5 -14 40 -51 79
-82 39 -30 83 -65 98 -77 15 -12 60 -30 100 -41 45 -12 103 -19 153 -18 45 0
106 7 135 15 30 9 62 17 72 20 10 2 35 10 55 16 20 7 54 25 74 41 20 15 40 28
45 28 4 1 25 28 47 62 21 34 43 78 49 97 6 20 11 38 12 41 1 3 7 32 15 65 7
33 14 122 14 200 1 120 -2 144 -17 167 -10 15 -20 33 -21 40 -1 7 -10 29 -20
49 -9 20 -41 61 -70 90 -29 30 -66 64 -83 77 -17 12 -38 22 -46 22 -8 0 -20 6
-26 14 -7 8 -35 19 -62 25 -28 6 -76 10 -107 10z m43 -105 c22 -3 74 -22 115
-43 65 -33 80 -46 122 -105 27 -40 57 -101 72 -146 22 -70 24 -84 15 -151 -5
-41 -11 -90 -14 -109 -2 -19 -13 -64 -25 -99 -11 -35 -36 -83 -55 -107 -22
-26 -57 -53 -92 -69 -31 -15 -70 -29 -87 -32 -17 -3 -38 -9 -46 -13 -8 -4 -36
-8 -62 -8 -26 -1 -63 5 -82 13 -19 8 -41 22 -50 31 -9 9 -23 13 -31 10 -8 -3
-15 -15 -15 -26 0 -11 -4 -20 -10 -20 -5 0 -22 5 -37 12 -15 7 -48 28 -73 47
-25 20 -51 42 -58 51 -7 8 -26 35 -43 60 -16 25 -34 61 -39 81 -6 23 -7 58 -1
95 5 33 15 79 21 104 6 24 15 49 19 55 5 5 11 21 14 35 3 14 25 57 48 95 23
39 56 87 73 108 17 20 63 55 103 77 40 22 96 44 125 49 29 5 71 7 93 5z"/>
<g>
<path d="M6095 11345 c-22 2 -49 1 -60 -1 -11 -3 -42 -15 -70 -26 -35 -14 -61
-34 -85 -67 -20 -25 -40 -57 -47 -71 -6 -14 -16 -38 -22 -54 -10 -25 -9 -39
10 -90 12 -34 28 -75 35 -93 9 -20 30 -39 60 -55 25 -12 56 -29 69 -36 12 -6
43 -15 69 -18 35 -5 56 -2 93 16 26 12 61 34 76 48 16 15 40 46 54 70 22 37
25 54 24 123 -1 66 -6 89 -31 137 -16 32 -39 67 -52 79 -13 11 -36 24 -53 28
-16 4 -48 8 -70 10z m-14 -96 c42 1 50 -3 78 -34 17 -20 33 -45 35 -58 3 -12
9 -43 14 -68 6 -30 5 -54 -1 -65 -5 -11 -19 -30 -31 -42 -11 -13 -37 -32 -57
-42 -35 -19 -37 -18 -99 3 l-63 22 -29 67 c-22 54 -26 71 -17 90 6 13 19 38
29 57 11 20 35 41 57 52 21 9 59 18 84 18z"/>
</g>
</g>
<g>
<path d="M7239 11084 c-40 4 -69 0 -114 -15 -33 -11 -74 -32 -92 -45 -17 -13
-39 -24 -48 -24 -10 0 -25 -20 -39 -52 -13 -29 -27 -67 -30 -85 -4 -17 -16
-48 -27 -69 -10 -21 -19 -52 -19 -69 0 -16 5 -46 10 -65 5 -19 25 -51 43 -72
19 -20 49 -44 67 -53 17 -9 55 -20 83 -25 30 -4 78 -4 112 2 33 5 64 13 70 19
5 5 15 9 22 9 7 0 35 16 62 35 31 23 62 57 83 93 31 54 32 62 32 152 0 75 -5
105 -21 141 -12 26 -36 58 -55 72 -18 14 -45 30 -59 35 -14 6 -50 13 -80 16z
m-25 -95 c5 1 26 -4 47 -10 21 -7 47 -21 58 -33 10 -12 26 -46 35 -78 9 -31
16 -69 16 -85 0 -15 -9 -47 -20 -70 -16 -36 -29 -47 -84 -73 -42 -20 -88 -33
-127 -36 -48 -5 -71 -2 -100 13 -28 13 -43 29 -54 57 -11 26 -14 52 -9 82 5
36 11 44 35 53 22 8 29 16 29 36 0 15 8 40 17 56 10 16 39 39 68 53 27 14 57
27 65 30 8 2 19 5 24 5z"/>
</g>
<g>
<path d="M4387 11235 c-29 2 -63 1 -77 -1 -14 -3 -48 -12 -76 -19 -40 -12 -60
-25 -87 -59 -20 -24 -43 -62 -51 -85 -7 -23 -12 -52 -9 -64 3 -12 16 -45 29
-74 13 -28 24 -56 24 -61 0 -5 15 -25 34 -44 18 -19 50 -42 70 -52 20 -9 60
-18 89 -19 44 -2 60 3 105 33 34 21 68 56 93 93 21 33 40 69 41 81 0 11 0 32
-1 46 -1 14 -9 50 -18 81 -8 30 -23 64 -32 75 -9 10 -31 29 -50 42 -21 16 -50
25 -84 27z m-27 -86 c20 0 46 -6 58 -15 12 -8 31 -32 41 -52 10 -20 21 -50 24
-67 4 -22 -1 -44 -21 -79 -15 -27 -39 -58 -53 -68 -14 -11 -44 -22 -67 -25
-29 -4 -49 -1 -65 10 -13 8 -38 37 -55 64 -17 26 -33 69 -37 94 -5 36 -3 49
11 63 9 10 34 28 54 41 20 12 45 25 56 28 10 2 35 5 54 6z"/>
</g>
<g>
<path d="M5101 10710 c-44 0 -83 -4 -86 -10 -3 -5 -13 -10 -22 -10 -9 0 -26
-11 -39 -26 -13 -14 -31 -38 -39 -54 -8 -16 -20 -75 -26 -130 l-10 -101 35
-47 c26 -36 47 -52 83 -65 26 -9 62 -17 78 -16 17 0 58 10 92 22 35 13 79 38
103 61 25 22 50 58 61 85 13 35 16 63 12 112 -4 45 -12 73 -28 94 -13 17 -48
43 -78 58 -47 23 -69 27 -136 27z m3 -91 c49 1 65 -4 92 -24 22 -17 37 -40 44
-67 7 -22 9 -51 6 -64 -4 -13 -25 -42 -48 -64 -23 -22 -57 -45 -76 -51 -26 -8
-44 -9 -71 0 -20 6 -45 23 -55 38 -14 18 -19 42 -19 83 1 37 8 71 22 97 11 23
26 43 33 46 7 3 40 6 72 6z"/>
</g>
</g>
<g>
<path d="M11843 8594 c-76 2 -154 0 -173 -5 -19 -5 -57 -16 -85 -24 -27 -7
-96 -28 -152 -45 -55 -17 -106 -37 -112 -44 -7 -8 -24 -17 -39 -21 -15 -4 -34
-13 -42 -20 -8 -7 -31 -22 -50 -32 -19 -11 -60 -34 -90 -51 -31 -17 -84 -61
-118 -97 -34 -36 -65 -65 -69 -65 -5 0 -31 -29 -58 -65 -27 -36 -52 -65 -56
-65 -4 0 -32 -33 -63 -73 -31 -40 -56 -81 -56 -91 0 -9 -11 -28 -25 -42 -14
-14 -25 -33 -26 -42 0 -9 -9 -30 -19 -47 -10 -16 -30 -52 -45 -80 -15 -27 -36
-79 -48 -115 -11 -36 -21 -69 -21 -75 -1 -5 -6 -19 -13 -31 -7 -12 -20 -54
-29 -95 -9 -41 -25 -112 -35 -159 -10 -47 -22 -137 -25 -202 -5 -78 -3 -137 6
-180 6 -34 14 -72 16 -83 3 -11 11 -50 18 -87 8 -38 21 -79 30 -93 9 -13 22
-51 30 -83 7 -31 32 -92 55 -134 22 -43 41 -83 41 -90 0 -7 27 -49 60 -93 33
-44 60 -83 60 -87 0 -4 20 -34 45 -65 24 -32 63 -77 87 -100 24 -24 71 -68
106 -98 34 -30 88 -67 120 -81 31 -15 86 -37 122 -51 36 -13 84 -31 106 -39
23 -8 55 -21 70 -29 16 -8 35 -15 42 -15 6 0 21 -9 32 -20 11 -11 20 -32 20
-46 l0 -26 -55 31 c-30 17 -60 31 -67 31 -6 0 -41 12 -77 26 -36 14 -84 34
-107 45 -36 17 -45 18 -80 6 -39 -14 -39 -15 -52 -88 -7 -41 -18 -99 -23 -129
-6 -30 -15 -73 -22 -95 -6 -22 -14 -44 -17 -50 -4 -5 -12 -32 -19 -60 -7 -27
-19 -66 -26 -85 -8 -19 -17 -53 -21 -75 -4 -22 -6 -48 -5 -57 1 -10 -3 -34 -9
-55 -7 -21 -18 -83 -25 -138 -7 -55 -24 -143 -38 -195 -14 -52 -32 -129 -41
-170 -9 -41 -19 -104 -22 -140 -4 -36 -10 -72 -14 -80 -4 -8 -13 -49 -19 -90
-6 -41 -15 -109 -20 -150 -5 -41 -13 -87 -16 -102 -4 -15 -5 -38 -1 -52 3 -13
13 -26 21 -30 8 -3 22 -3 30 0 8 4 15 15 15 25 0 10 6 19 14 19 8 0 16 17 20
47 3 27 13 91 21 143 8 52 20 118 25 145 6 28 14 80 20 117 5 37 18 100 29
140 11 40 27 120 36 178 8 58 20 130 25 160 5 30 11 78 14 105 3 28 12 78 22
110 9 33 20 74 24 90 8 29 8 29 10 -10 1 -22 1 -110 1 -195 0 -85 4 -216 10
-290 5 -74 10 -182 9 -240 0 -58 -3 -118 -6 -135 -4 -16 -8 -70 -10 -120 -2
-78 -5 -90 -22 -96 -11 -4 -23 -12 -26 -18 -4 -6 0 -27 10 -46 9 -19 20 -35
25 -35 5 0 7 -81 4 -182 -3 -101 -6 -250 -6 -333 0 -82 -7 -199 -15 -260 -8
-60 -17 -159 -19 -220 -3 -60 -9 -157 -14 -215 -5 -58 -12 -202 -16 -320 -3
-118 -11 -294 -17 -390 -6 -96 -12 -202 -13 -235 -2 -54 -4 -61 -26 -67 -13
-4 -70 -22 -127 -39 -57 -16 -124 -39 -149 -50 -43 -18 -45 -21 -39 -51 3 -17
11 -37 17 -45 6 -7 20 -13 30 -13 10 0 34 9 53 21 20 12 69 30 109 41 39 11
107 25 150 32 51 7 81 16 86 26 4 8 4 53 0 100 -4 47 -3 155 2 240 5 85 11
295 15 465 4 171 8 321 9 335 1 14 5 41 8 60 3 19 9 80 12 135 4 55 8 125 10
155 2 30 6 82 9 115 4 33 7 104 7 158 0 53 -3 102 -6 107 -4 6 -1 26 5 45 6
18 11 87 12 152 0 65 2 130 5 146 3 15 11 27 17 27 6 0 47 -14 91 -31 44 -17
109 -38 145 -46 35 -8 73 -22 83 -31 11 -9 20 -15 21 -12 0 2 46 -13 101 -35
55 -21 107 -44 115 -51 9 -7 56 -31 105 -53 l90 -40 1 -318 c1 -175 4 -453 8
-617 4 -165 10 -304 13 -310 4 -5 6 -91 5 -191 -1 -99 -6 -245 -12 -325 -5
-80 -14 -214 -20 -298 -5 -84 -10 -181 -10 -217 0 -52 -3 -65 -17 -69 -10 -2
-52 -7 -93 -11 -41 -4 -91 -12 -110 -18 -19 -6 -40 -14 -45 -18 -6 -4 -30 -10
-55 -13 -25 -3 -52 -7 -61 -9 -10 -2 -24 -9 -33 -16 -9 -7 -16 -24 -16 -37 0
-12 10 -34 23 -48 21 -24 25 -25 67 -14 25 6 84 24 132 40 71 23 105 28 182
28 68 0 97 4 105 14 7 8 14 32 16 53 2 21 6 65 9 98 3 33 8 170 10 305 2 135
9 272 16 304 7 38 10 117 7 220 -3 89 -10 359 -17 601 -6 242 -11 451 -11 465
0 14 5 106 10 205 5 99 9 187 9 195 0 8 7 100 17 204 9 103 14 194 11 202 -3
8 -2 14 2 14 5 0 13 66 20 147 6 80 16 151 21 156 6 6 13 9 15 6 2 -2 9 -47
15 -99 6 -52 16 -174 21 -270 6 -96 13 -222 16 -280 3 -57 10 -113 16 -123 5
-10 19 -22 31 -26 12 -5 30 -5 39 0 9 5 19 21 23 37 3 15 -1 73 -9 127 -8 55
-18 188 -21 295 -4 107 -8 201 -11 208 -2 7 -6 39 -9 70 -4 31 -13 98 -21 147
-8 50 -17 104 -20 120 -2 17 -9 44 -13 60 -5 17 -12 64 -15 105 -3 41 -8 122
-11 180 -3 58 -8 121 -12 140 -3 19 -7 62 -9 95 -3 33 -6 80 -7 105 -2 25 -8
52 -13 60 -5 8 -18 21 -29 28 -11 7 -48 26 -82 42 -35 17 -67 30 -73 30 -6 0
-63 28 -128 61 -64 34 -127 68 -140 77 -12 8 -26 28 -31 46 -5 19 -4 36 2 44
5 6 22 12 37 12 15 0 44 7 63 15 20 8 60 15 89 15 29 0 85 5 123 10 39 6 90
17 115 25 25 8 83 27 130 41 47 15 90 30 95 34 6 4 27 13 48 20 21 6 67 29
102 51 36 21 67 39 69 39 3 0 25 14 50 30 25 17 69 54 98 83 29 29 60 61 68
72 8 11 41 62 73 114 31 51 57 95 57 98 0 2 11 28 25 58 14 29 32 58 40 65 8
7 15 20 15 29 0 9 11 33 25 53 14 20 25 46 25 56 0 11 9 39 20 63 11 24 24 51
29 59 5 8 18 49 30 90 12 41 26 84 30 95 5 11 14 45 20 75 6 30 13 60 14 65 2
6 10 24 17 40 10 22 13 91 13 255 0 189 -3 243 -21 340 -12 63 -27 138 -33
165 -6 28 -20 75 -32 105 -12 30 -51 111 -85 179 -35 69 -74 139 -85 155 -12
16 -62 69 -112 118 -60 58 -113 99 -158 123 -37 19 -75 35 -83 35 -9 0 -38 11
-65 25 -27 13 -77 30 -112 36 -34 7 -69 19 -79 27 -9 7 -31 16 -50 19 -18 3
-38 9 -43 13 -6 5 -35 12 -65 16 -30 4 -63 11 -72 16 -10 5 -80 10 -155 12z
m-12 -99 c71 -2 150 -12 205 -25 49 -12 141 -39 204 -61 63 -21 153 -55 200
-74 47 -20 99 -41 115 -46 17 -5 63 -41 103 -80 39 -39 72 -74 72 -78 0 -3 20
-33 44 -66 25 -32 49 -77 55 -100 6 -23 18 -52 28 -66 10 -13 24 -34 31 -46 6
-13 12 -29 12 -37 0 -7 11 -38 25 -68 14 -31 30 -88 36 -129 5 -41 12 -92 15
-114 2 -22 7 -55 10 -73 3 -18 8 -67 11 -110 3 -42 5 -115 5 -162 -1 -47 -9
-119 -18 -160 -9 -41 -21 -95 -26 -120 -5 -25 -11 -61 -14 -80 -3 -19 -15 -55
-27 -80 -11 -25 -21 -47 -22 -50 -1 -3 -5 -18 -10 -35 -4 -16 -20 -57 -35 -90
-15 -33 -30 -71 -34 -85 -3 -14 -17 -38 -31 -54 -14 -16 -25 -37 -25 -46 0 -9
-7 -31 -15 -47 -9 -17 -22 -36 -30 -43 -8 -7 -15 -18 -15 -26 0 -7 -7 -19 -15
-28 -9 -8 -22 -30 -31 -48 -8 -18 -25 -50 -37 -72 -13 -21 -31 -42 -40 -48 -9
-5 -17 -13 -17 -19 0 -5 -12 -23 -27 -40 -16 -17 -47 -44 -71 -60 -24 -16 -49
-29 -56 -29 -8 0 -19 -6 -25 -14 -7 -8 -26 -18 -42 -21 -16 -4 -31 -11 -34
-16 -4 -5 -30 -20 -58 -33 -29 -13 -72 -31 -97 -39 -25 -8 -65 -21 -90 -28
-25 -7 -49 -16 -55 -19 -5 -4 -32 -13 -60 -19 -27 -6 -93 -16 -145 -21 -52 -6
-113 -13 -135 -17 -22 -4 -53 -7 -70 -7 -28 -1 -30 1 -33 43 -2 25 -1 54 2 66
5 20 15 22 164 33 88 6 170 16 183 21 13 5 44 15 69 22 25 7 74 29 110 47 36
19 85 44 109 58 24 13 54 32 65 42 12 10 31 25 43 33 11 8 63 50 115 93 51 44
102 89 113 100 12 12 38 47 58 78 20 31 37 61 37 67 0 6 4 11 8 11 5 0 21 29
37 65 15 36 30 65 34 65 3 0 12 15 20 33 7 17 19 46 26 62 7 17 20 64 30 105
10 41 21 84 25 95 4 11 13 56 19 100 7 44 18 130 26 190 8 72 12 169 9 280 -4
146 -9 180 -30 245 -14 41 -41 107 -61 145 -20 39 -53 93 -72 120 -19 28 -53
73 -76 100 -22 28 -58 66 -80 86 -22 19 -61 51 -87 72 -25 20 -51 37 -56 37
-5 0 -27 13 -49 29 -23 16 -63 40 -89 52 -27 12 -76 28 -109 35 -33 7 -80 17
-105 23 -25 5 -83 15 -130 21 -47 7 -114 10 -150 7 -36 -2 -99 -11 -140 -20
-41 -8 -91 -21 -110 -27 -19 -7 -39 -17 -44 -21 -6 -5 -15 -9 -22 -9 -6 0 -33
-12 -60 -27 -27 -15 -55 -28 -62 -30 -8 -1 -22 -9 -31 -17 -10 -9 -23 -16 -29
-16 -7 0 -12 -4 -12 -8 0 -5 -21 -24 -47 -42 -27 -19 -92 -78 -145 -132 -54
-54 -98 -101 -98 -104 0 -3 -20 -28 -44 -55 -24 -27 -47 -61 -51 -76 -3 -16
-20 -48 -36 -72 -16 -25 -29 -52 -29 -60 0 -9 -9 -29 -20 -46 -11 -16 -20 -38
-20 -48 0 -10 -9 -39 -21 -65 -11 -26 -27 -60 -35 -77 -8 -16 -27 -75 -41
-130 -22 -86 -26 -122 -27 -255 0 -117 4 -175 18 -235 10 -44 29 -125 43 -180
13 -55 29 -104 34 -109 5 -6 9 -17 9 -26 0 -9 18 -52 40 -96 22 -43 46 -88 53
-99 7 -11 35 -49 63 -85 29 -36 89 -96 134 -135 59 -51 114 -86 200 -127 64
-31 133 -59 152 -63 19 -4 47 -17 61 -31 21 -19 24 -29 18 -51 -7 -26 -12 -28
-62 -31 -30 -2 -80 1 -110 7 -30 5 -83 21 -118 36 -35 15 -87 42 -117 61 -29
19 -95 76 -147 127 -51 50 -109 117 -129 147 -19 30 -64 105 -100 165 -36 61
-78 146 -93 190 -15 44 -32 89 -38 100 -5 10 -16 42 -24 70 -7 27 -20 88 -28
135 -7 47 -16 121 -20 165 -4 46 -2 107 5 145 6 36 15 88 20 115 5 28 13 66
18 85 6 19 20 69 32 110 11 41 27 89 34 105 8 17 21 50 29 75 8 25 25 67 36
94 12 27 35 69 51 93 17 24 30 49 30 55 0 5 10 23 23 38 12 15 41 54 64 86 23
33 80 97 125 144 46 47 101 101 122 120 22 19 55 45 75 57 20 12 61 35 92 51
31 16 65 37 76 47 12 10 39 24 60 32 21 8 56 20 78 27 22 8 58 18 80 24 22 6
72 19 110 31 58 17 90 19 186 16z m22 -251 c104 -2 152 -8 227 -28 52 -14 109
-31 125 -39 17 -8 55 -27 85 -42 30 -15 67 -39 82 -54 14 -14 41 -37 60 -51
18 -13 62 -56 96 -95 35 -38 75 -88 89 -110 15 -22 51 -86 81 -143 45 -85 55
-114 60 -170 3 -37 6 -132 6 -212 0 -80 -3 -176 -7 -215 -4 -38 -9 -92 -11
-120 -2 -27 -7 -63 -11 -80 -3 -16 -10 -39 -15 -50 -4 -11 -13 -47 -20 -80 -7
-33 -25 -87 -40 -120 -15 -33 -44 -94 -64 -135 -20 -41 -44 -83 -54 -95 -10
-11 -31 -39 -47 -63 -16 -24 -56 -66 -89 -95 -33 -29 -82 -73 -109 -99 -27
-27 -53 -48 -59 -48 -6 0 -39 -20 -75 -45 -36 -25 -102 -63 -148 -84 -45 -21
-95 -42 -111 -45 -16 -3 -69 -11 -119 -16 -49 -6 -115 -10 -145 -10 -30 1 -59
5 -64 10 -5 5 -6 19 -3 32 6 21 12 23 92 26 47 2 104 10 127 18 22 8 52 14 67
14 14 0 45 9 69 20 23 10 42 16 42 13 0 -3 6 -1 13 4 6 6 44 21 82 33 39 13
77 30 87 38 9 7 23 15 32 16 9 1 38 19 64 39 27 20 74 63 105 96 31 33 57 65
57 71 0 6 15 30 34 53 19 23 46 62 60 87 15 25 47 85 71 134 25 49 45 96 45
105 0 9 6 28 14 43 8 14 21 56 31 93 9 37 20 106 25 153 5 48 14 108 18 135 6
27 6 84 1 135 -5 48 -19 137 -30 197 -16 85 -33 135 -74 221 -31 64 -76 138
-106 175 -30 35 -76 87 -104 114 -27 28 -79 65 -115 82 -36 18 -85 40 -110 51
-25 10 -79 24 -120 31 -41 7 -90 17 -109 23 -18 5 -56 7 -85 4 -29 -4 -87 -9
-130 -11 -43 -3 -92 -11 -108 -20 -17 -8 -40 -15 -51 -15 -10 0 -38 -10 -61
-21 -22 -12 -49 -25 -58 -30 -10 -5 -24 -9 -32 -9 -8 0 -32 -10 -53 -22 -21
-12 -43 -26 -48 -32 -6 -6 -25 -21 -42 -33 -18 -13 -37 -23 -44 -23 -6 0 -43
-33 -83 -72 -41 -42 -83 -97 -100 -131 -16 -32 -36 -62 -45 -66 -9 -5 -27 -38
-40 -73 -13 -34 -35 -87 -48 -116 -13 -29 -23 -58 -23 -65 0 -7 -7 -25 -15
-40 -8 -15 -17 -45 -21 -65 -4 -20 -11 -46 -17 -57 -6 -11 -12 -35 -14 -55 -1
-19 -7 -83 -11 -142 -5 -59 -7 -158 -4 -220 2 -62 8 -117 13 -122 5 -6 9 -21
9 -33 0 -13 7 -37 15 -52 8 -16 11 -31 8 -35 -3 -3 18 -54 48 -112 30 -58 77
-132 104 -163 28 -32 70 -75 95 -97 25 -21 58 -51 75 -66 16 -16 62 -43 100
-62 39 -19 86 -42 105 -51 19 -8 47 -23 62 -31 16 -8 31 -26 34 -39 3 -13 3
-29 -1 -34 -3 -6 -14 -11 -23 -11 -9 0 -37 7 -62 16 -25 9 -49 19 -55 23 -5 5
-50 29 -100 55 -65 34 -112 68 -170 124 -44 42 -98 103 -120 134 -22 32 -52
79 -66 105 -14 27 -31 64 -39 83 -7 19 -19 51 -27 70 -7 19 -18 55 -22 80 -5
25 -19 92 -31 150 -12 59 -23 146 -24 200 0 52 2 127 6 167 4 39 19 104 32
145 14 40 34 98 45 128 11 30 32 82 46 115 15 33 45 96 67 139 22 44 59 100
82 125 22 26 89 94 148 154 59 59 110 107 112 107 3 0 30 16 60 35 29 19 88
50 129 70 42 19 85 35 95 35 10 0 22 3 26 8 4 4 37 14 73 22 44 11 106 15 196
14z m42 -190 c44 -2 114 -12 155 -23 41 -11 91 -26 110 -33 19 -8 55 -24 79
-37 24 -12 65 -44 91 -69 26 -26 66 -71 89 -101 22 -30 57 -89 77 -130 21 -42
43 -83 49 -91 7 -8 15 -31 18 -50 3 -19 12 -66 21 -105 9 -38 19 -86 22 -105
2 -19 5 -75 6 -125 0 -49 -2 -97 -5 -105 -3 -8 -11 -51 -17 -95 -7 -44 -18
-98 -25 -120 -7 -22 -20 -67 -30 -100 -10 -33 -27 -78 -37 -100 -10 -22 -24
-49 -31 -60 -6 -11 -23 -36 -37 -55 -14 -19 -30 -44 -37 -55 -6 -11 -21 -39
-32 -63 -11 -24 -56 -77 -101 -120 -46 -43 -108 -91 -143 -109 -34 -18 -71
-33 -82 -33 -11 0 -47 -12 -80 -26 -33 -14 -76 -30 -95 -36 -19 -6 -62 -16
-95 -23 -52 -11 -62 -11 -77 2 -9 9 -39 16 -66 18 -27 1 -54 5 -60 9 -6 4 -22
4 -35 1 -13 -4 -48 1 -78 11 -29 10 -86 36 -126 58 -40 23 -104 69 -143 104
-38 35 -70 69 -70 76 0 8 -7 20 -17 27 -9 8 -40 43 -68 79 -29 36 -56 77 -60
90 -4 14 -11 30 -16 35 -4 6 -15 42 -23 80 -8 39 -20 105 -26 147 -6 42 -8
118 -5 170 3 51 8 109 11 128 3 19 8 49 10 65 2 17 5 44 8 62 3 17 9 40 15 50
5 10 20 47 31 83 12 36 25 70 30 75 4 6 11 24 14 42 4 17 28 71 54 119 32 60
69 110 117 158 39 39 97 89 130 111 33 22 71 46 84 52 13 7 28 13 34 13 6 0
19 8 29 17 10 9 42 25 71 36 28 10 75 24 102 29 28 5 79 13 115 17 36 5 101 6
145 5z m-752 -2521 c6 -5 39 -20 72 -33 33 -13 103 -44 156 -69 52 -25 115
-54 140 -65 24 -10 51 -22 59 -27 8 -5 26 -14 40 -21 14 -6 94 -44 178 -85
102 -50 153 -80 154 -91 0 -9 3 -30 6 -47 2 -16 6 -106 7 -200 2 -93 3 -265 4
-382 0 -121 -3 -223 -9 -238 -6 -15 -8 -31 -5 -36 3 -5 1 -26 -4 -46 -5 -21
-12 -67 -14 -103 -3 -36 -10 -126 -17 -200 -6 -74 -14 -154 -16 -176 -4 -30
-10 -43 -24 -47 -10 -3 -34 6 -54 19 -19 13 -39 24 -43 24 -5 0 -51 21 -103
48 -52 26 -108 52 -125 59 -16 7 -50 18 -75 26 -25 8 -69 22 -99 31 -29 9 -63
16 -75 16 -12 0 -26 4 -31 8 -6 5 -26 15 -45 22 -19 7 -55 22 -78 34 l-44 21
5 80 c3 44 10 125 16 180 9 78 8 156 -5 355 -9 140 -15 298 -15 350 1 52 3
109 6 125 2 17 7 125 11 240 3 116 8 216 10 224 3 9 8 10 17 4z"/>
<g>
<path d="M11293 7725 c-17 5 -31 -2 -58 -28 -21 -21 -35 -44 -35 -59 0 -14 12
-35 28 -49 15 -14 40 -26 55 -28 19 -2 37 5 53 20 16 15 24 34 24 55 0 20 -9
43 -22 58 -13 13 -33 27 -45 31z"/>
</g>
<g>
<path d="M11965 7510 c-7 0 -27 -12 -44 -26 -23 -19 -31 -34 -31 -58 0 -20 8
-40 20 -51 12 -10 40 -22 63 -25 23 -3 52 -2 64 3 12 5 24 20 27 32 3 13 3 36
0 53 -4 21 -17 35 -46 51 -22 11 -46 21 -53 21z"/>
</g>
<g>
<path d="M11588 7447 c-7 5 -26 7 -43 4 -27 -6 -33 -15 -68 -106 -22 -55 -50
-123 -63 -152 -13 -28 -24 -57 -24 -62 0 -6 -3 -11 -8 -11 -4 0 -15 -15 -24
-32 -10 -18 -19 -46 -20 -62 -3 -26 3 -32 67 -67 39 -21 80 -38 93 -38 17 -1
22 5 22 25 0 21 4 24 20 19 15 -5 20 -2 20 13 0 10 -8 26 -17 35 -10 8 -30 18
-45 22 -14 4 -33 14 -42 24 -13 15 -12 21 13 61 15 25 31 59 35 75 4 17 7 39
7 50 0 11 5 22 10 26 6 3 11 13 13 22 1 9 9 24 17 34 8 10 22 32 32 50 9 17
17 38 17 46 0 8 -6 19 -12 24z"/>
</g>
<g>
<path d="M11192 6880 c-11 0 -24 -6 -30 -12 -5 -7 -13 -23 -16 -35 -6 -17 0
-27 31 -47 21 -14 46 -26 56 -26 11 0 33 -6 50 -14 18 -7 62 -25 98 -40 37
-15 102 -47 145 -72 54 -30 89 -44 115 -44 21 0 44 3 53 6 9 4 16 18 16 34 0
15 -8 34 -18 43 -10 10 -24 17 -30 17 -6 0 -34 14 -62 30 -28 17 -56 30 -62
30 -6 0 -19 6 -27 14 -9 7 -50 25 -91 40 -41 15 -88 31 -105 36 -16 4 -47 15
-67 24 -21 9 -46 16 -56 16z"/>
</g>
</g>
</g>
</svg>
