<?xml version="1.0" standalone="no"?>
<!DOCTYPE svg PUBLIC "-//W3C//DTD SVG 20010904//EN"
 "http://www.w3.org/TR/2001/REC-SVG-20010904/DTD/svg10.dtd">
<svg version="1.0" xmlns="http://www.w3.org/2000/svg"
 width="1883.000000pt" height="1310.000000pt" viewBox="0 0 1883.000000 1310.000000"
 preserveAspectRatio="xMidYMid meet">
<metadata>
Created by potrace 1.16, written by Peter Selinger 2001-2019
</metadata>
<g transform="translate(0.000000,1310.000000) scale(0.100000,-0.100000)"
fill="#000000" stroke="none">
<g>
<path d="M15618 11325 c-2 3 -15 -6 -28 -20 -13 -14 -21 -27 -18 -30 2 -3 15
6 28 20 13 14 21 27 18 30z"/>
</g>
<g>
<path d="M15574 11249 c-5 -1 -19 -12 -31 -25 -13 -14 -23 -31 -23 -39 0 -8
-4 -15 -8 -15 -4 0 -14 -16 -21 -35 -7 -19 -28 -51 -47 -72 -19 -20 -37 -46
-40 -57 -3 -12 -24 -41 -47 -66 -23 -25 -54 -64 -70 -88 -15 -24 -25 -47 -23
-51 3 -4 -4 -15 -14 -24 -11 -9 -22 -28 -26 -42 -3 -13 -23 -42 -43 -62 -20
-21 -50 -54 -66 -73 -17 -19 -38 -47 -47 -61 -9 -14 -23 -32 -30 -40 -7 -8
-35 -47 -61 -86 -26 -40 -53 -78 -60 -85 -7 -7 -40 -48 -75 -90 -34 -43 -62
-82 -62 -87 0 -5 -20 -28 -45 -52 -25 -24 -45 -46 -45 -50 0 -4 -18 -26 -41
-50 -23 -24 -54 -58 -70 -75 -16 -17 -29 -35 -29 -40 0 -5 -17 -25 -37 -45
-21 -19 -66 -65 -100 -100 -35 -36 -63 -68 -63 -72 0 -5 -29 -38 -65 -75 -36
-37 -80 -82 -97 -99 -18 -18 -38 -33 -45 -33 -7 0 -10 -6 -7 -14 3 -7 -2 -16
-10 -19 -9 -4 -16 -17 -16 -30 0 -13 3 -26 6 -29 3 -4 22 0 42 9 22 8 77 55
133 114 53 54 95 99 93 99 -2 0 8 14 23 31 16 17 50 54 76 83 27 28 55 58 63
67 8 9 14 19 14 24 0 5 26 36 58 69 31 34 77 84 101 113 24 28 48 60 55 71 6
11 40 55 75 98 35 43 70 88 77 102 7 13 35 48 63 77 28 29 51 57 51 62 0 6 9
18 21 29 11 10 27 33 34 51 8 19 21 36 30 39 8 3 15 12 15 19 0 7 7 18 15 25
9 7 24 32 35 54 10 23 33 55 50 71 17 17 39 46 47 65 9 19 33 60 53 90 20 30
50 76 66 102 16 25 53 81 82 123 38 56 52 86 52 111 0 24 5 34 15 34 8 0 15 4
15 9 0 5 3 16 6 25 3 9 2 16 -2 15z"/>
</g>
<g>
<path d="M14365 11238 c-2 3 -7 -1 -9 -9 -3 -8 -4 -30 -2 -49 2 -19 4 -41 5
-47 0 -7 6 -13 11 -13 7 0 9 21 5 57 -3 31 -7 58 -10 61z"/>
</g>
<g>
<path d="M14367 11096 c-2 3 -9 -2 -15 -9 -7 -7 -19 -31 -29 -53 -9 -21 -18
-48 -20 -59 -2 -11 -11 -42 -20 -70 -9 -27 -17 -57 -18 -65 -1 -8 -5 -31 -10
-50 -4 -19 -14 -47 -21 -62 -8 -15 -16 -45 -18 -65 -1 -21 -7 -49 -13 -63 -6
-14 -10 -43 -8 -64 1 -22 7 -42 13 -44 7 -2 10 -8 6 -13 -3 -5 -2 -9 1 -9 4 0
15 5 26 11 16 8 19 19 18 52 -1 23 6 80 16 127 9 47 23 96 30 110 7 14 15 49
19 79 4 30 10 60 14 65 4 6 8 31 10 56 1 25 7 62 13 83 6 22 8 41 6 43z"/>
</g>
<g>
<path d="M17413 10860 c-12 0 -25 -4 -28 -10 -3 -5 -14 -10 -23 -10 -10 0 -29
-11 -44 -25 -15 -14 -33 -25 -40 -25 -7 0 -21 -7 -30 -14 -10 -7 -18 -20 -18
-28 0 -11 7 -14 28 -10 15 3 38 12 52 21 14 8 27 18 30 22 3 3 31 19 64 34 42
20 54 30 45 36 -8 5 -24 9 -36 9z"/>
</g>
<g>
<path d="M17123 10689 c-10 0 -25 -3 -33 -5 -8 -3 -49 -22 -90 -42 -41 -20
-76 -40 -78 -44 -2 -5 -12 -8 -22 -8 -10 0 -20 -7 -24 -15 -3 -8 -13 -15 -23
-16 -10 0 -38 -14 -63 -30 -25 -16 -59 -35 -76 -43 -17 -8 -36 -22 -44 -30 -7
-9 -21 -16 -32 -16 -10 0 -45 -17 -76 -39 -31 -21 -68 -51 -81 -65 -14 -14
-32 -26 -40 -26 -9 0 -33 -11 -53 -25 -20 -14 -42 -25 -48 -25 -7 0 -24 -9
-38 -21 -15 -11 -43 -31 -62 -44 -19 -14 -52 -33 -72 -43 -21 -10 -35 -22 -31
-25 3 -4 2 -7 -4 -7 -5 0 -25 -13 -43 -30 -18 -16 -37 -30 -42 -30 -4 0 -42
-28 -84 -62 -42 -35 -83 -67 -93 -73 -9 -5 -25 -17 -35 -25 -10 -8 -32 -30
-49 -47 -17 -18 -35 -33 -40 -33 -5 0 -21 -9 -35 -20 -15 -12 -45 -35 -66 -53
-22 -18 -88 -81 -148 -140 -60 -61 -108 -117 -108 -127 0 -11 -8 -23 -17 -29
-10 -5 -14 -13 -10 -17 4 -5 20 -1 34 8 15 9 70 56 122 105 52 48 111 104 131
123 20 19 58 54 83 78 26 23 51 42 55 42 4 0 19 10 32 23 14 12 57 49 95 82
39 33 89 73 113 89 23 16 42 32 42 37 0 4 9 10 20 14 11 3 42 22 70 41 27 19
50 32 50 29 0 -3 14 7 31 22 17 16 35 27 39 26 5 -1 14 4 20 12 7 8 20 15 29
15 10 0 27 14 39 30 13 17 27 30 33 30 6 0 28 14 49 30 21 17 43 30 48 30 6 0
31 16 56 35 26 19 51 35 56 35 6 0 10 4 10 10 0 5 21 21 48 34 26 13 56 33 66
45 11 12 26 21 35 21 9 0 26 6 38 13 12 6 52 28 90 47 37 19 74 41 81 48 7 6
19 12 25 12 7 0 25 11 41 25 15 13 43 29 62 35 19 7 34 16 34 21 0 5 -8 9 -17
8z"/>
</g>
<g>
<path d="M15801 10600 c-14 0 -33 -6 -41 -13 -9 -7 -20 -22 -25 -34 -6 -11
-32 -46 -60 -76 -27 -31 -65 -76 -84 -101 -18 -25 -37 -46 -42 -46 -5 0 -9 -5
-9 -11 0 -7 -20 -36 -45 -64 -25 -29 -84 -93 -132 -142 -49 -48 -103 -105
-121 -126 -17 -22 -32 -35 -32 -30 0 4 -7 -5 -16 -22 -8 -16 -40 -50 -69 -75
-30 -25 -55 -50 -55 -55 0 -6 -22 -32 -48 -58 -27 -26 -50 -46 -53 -45 -2 2
-3 1 -2 -1 1 -1 -28 -31 -65 -66 -37 -34 -97 -89 -133 -122 -36 -33 -78 -68
-92 -78 -15 -9 -27 -24 -27 -31 0 -8 -6 -14 -12 -15 -7 0 -31 -22 -53 -49 -22
-27 -50 -52 -62 -56 -12 -3 -38 -25 -57 -48 -20 -22 -44 -49 -53 -59 -10 -10
-61 -48 -113 -85 -52 -36 -122 -89 -154 -116 -33 -28 -71 -63 -85 -77 -15 -14
-38 -29 -53 -32 -15 -4 -32 -16 -38 -27 -6 -11 -17 -20 -25 -20 -7 0 -26 -11
-42 -24 -15 -13 -39 -27 -53 -32 -14 -4 -29 -7 -33 -6 -4 1 -36 -13 -70 -32
-34 -19 -89 -48 -121 -65 -32 -17 -73 -31 -90 -31 -17 0 -47 -5 -67 -10 -20
-6 -62 -13 -95 -16 -32 -3 -84 -6 -114 -6 -30 0 -83 0 -117 0 -38 1 -63 5 -63
12 0 7 -57 9 -182 5 -101 -2 -208 -7 -238 -10 -30 -3 -77 -11 -104 -17 -27 -6
-96 -10 -153 -10 -57 1 -116 -4 -131 -10 -15 -6 -29 -12 -32 -13 -3 0 -27 -5
-55 -10 -27 -5 -61 -9 -75 -10 -14 -1 -54 -7 -88 -13 -35 -6 -76 -9 -90 -6
-15 3 -38 1 -52 -4 -14 -5 -37 -6 -55 -1 -16 5 -171 9 -342 10 -172 0 -313 3
-313 7 0 4 -100 8 -222 9 -123 0 -250 2 -283 2 -33 1 -130 -1 -215 -4 -85 -3
-240 -8 -345 -11 -104 -4 -216 -8 -247 -9 -32 -2 -79 -6 -105 -9 -27 -4 -154
-9 -283 -11 -129 -2 -260 -8 -290 -14 -30 -6 -120 -13 -200 -17 -80 -3 -177
-7 -217 -9 -39 -2 -77 -6 -83 -10 -6 -4 -47 -9 -91 -11 -44 -3 -85 -2 -91 2
-5 4 -54 6 -107 5 -53 -1 -118 -7 -146 -14 -27 -6 -54 -10 -60 -8 -5 1 -17 2
-25 2 -8 0 -30 -2 -49 -4 -28 -3 -36 1 -52 27 -10 17 -19 41 -19 54 0 12 -5
22 -10 22 -6 0 -10 6 -8 13 1 6 -4 36 -12 65 -8 29 -20 52 -27 52 -7 0 -13 9
-13 20 0 12 -12 44 -26 73 -15 29 -37 66 -49 82 -11 17 -30 49 -41 72 -12 27
-26 43 -36 43 -10 0 -18 6 -18 14 0 7 -6 25 -13 40 -8 14 -17 23 -20 19 -4 -3
-7 -1 -7 5 0 6 -11 22 -24 36 -13 15 -28 26 -35 26 -6 0 -11 4 -11 8 0 5 -16
25 -36 46 -19 20 -40 34 -45 31 -5 -4 -12 1 -15 10 -4 8 -12 14 -20 13 -7 -2
-32 13 -55 32 -24 19 -54 36 -68 37 -14 1 -66 4 -116 8 -49 3 -94 10 -100 15
-6 5 -31 12 -56 15 -24 3 -57 8 -74 11 -16 4 -34 9 -40 12 -5 4 -14 7 -20 7
-5 1 -49 5 -96 9 -47 4 -115 9 -150 10 -37 1 -79 9 -99 19 -19 10 -55 22 -80
28 -25 5 -58 16 -75 24 -16 8 -47 17 -67 20 -21 3 -38 11 -38 18 0 7 7 21 15
31 8 11 15 30 15 42 0 13 -10 33 -23 46 -13 13 -42 40 -64 60 -23 20 -39 39
-35 42 3 3 0 6 -6 6 -6 0 -22 11 -35 24 -13 13 -41 30 -61 37 -21 8 -49 26
-61 41 -13 15 -36 30 -51 34 -16 4 -33 10 -39 14 -5 4 -37 17 -69 29 -33 12
-72 31 -87 41 -15 11 -34 20 -42 20 -7 0 -24 9 -37 20 -13 11 -29 20 -35 20
-7 0 -32 9 -56 19 -24 10 -67 22 -94 26 -28 3 -63 8 -77 9 -15 2 -51 -1 -80
-6 -29 -4 -69 -10 -88 -13 -19 -2 -52 -7 -73 -11 -20 -3 -49 -8 -65 -10 -15
-3 -50 -6 -77 -8 -28 -1 -61 -9 -75 -16 -14 -8 -31 -13 -38 -11 -8 1 -19 -2
-25 -7 -7 -5 -26 -13 -44 -16 -17 -4 -34 -13 -37 -21 -2 -7 -21 -19 -40 -26
-20 -7 -36 -17 -36 -22 0 -4 -5 -5 -12 -1 -7 4 -8 3 -4 -4 4 -7 -10 -20 -36
-33 -24 -12 -45 -25 -48 -29 -3 -4 -21 -15 -40 -25 -19 -10 -37 -16 -39 -14
-2 2 -7 -5 -12 -16 -4 -11 -8 -16 -8 -12 -1 5 -22 -11 -48 -35 -25 -24 -60
-57 -77 -74 -17 -17 -59 -72 -94 -122 -34 -50 -62 -94 -62 -97 0 -3 -9 -26
-20 -51 -11 -24 -24 -44 -28 -44 -4 0 -13 -15 -20 -32 -7 -18 -13 -35 -13 -38
-1 -3 -6 -18 -11 -35 -5 -16 -11 -55 -14 -85 -3 -30 -5 -62 -4 -70 1 -8 1 -94
1 -190 -1 -158 1 -180 21 -230 12 -30 30 -64 40 -76 10 -11 18 -30 18 -42 0
-13 -20 -40 -50 -68 -28 -26 -58 -62 -66 -81 -9 -18 -21 -30 -27 -26 -5 3 -7
2 -4 -4 3 -5 -1 -19 -9 -31 -8 -12 -22 -22 -30 -22 -8 0 -23 -9 -34 -20 -10
-10 -17 -28 -15 -40 2 -11 0 -20 -6 -20 -5 0 -9 -7 -9 -15 0 -8 -4 -15 -10
-15 -5 0 -10 -6 -10 -13 0 -7 -26 -39 -57 -71 -32 -33 -58 -63 -58 -67 0 -5
-13 -20 -29 -34 -16 -14 -33 -25 -38 -25 -5 0 -12 -8 -16 -18 -4 -9 -22 -40
-41 -69 -19 -28 -38 -50 -42 -47 -4 2 -13 -1 -19 -8 -6 -7 -23 -32 -38 -54
-15 -23 -55 -72 -89 -110 -35 -38 -63 -72 -63 -76 0 -4 -13 -14 -30 -23 -16
-9 -30 -13 -30 -10 0 4 -13 -3 -29 -14 -16 -12 -40 -44 -52 -71 -12 -28 -28
-50 -34 -50 -6 0 -28 -16 -48 -36 -20 -21 -39 -44 -42 -53 -3 -9 -26 -31 -50
-50 -25 -18 -45 -37 -45 -42 0 -5 -6 -9 -13 -9 -7 0 -25 -12 -39 -27 -15 -17
-24 -36 -22 -48 3 -11 6 -42 8 -70 2 -27 7 -63 10 -80 4 -16 12 -48 19 -70 6
-22 17 -46 25 -54 7 -7 11 -19 8 -27 -3 -7 10 -28 27 -47 18 -19 38 -45 46
-58 8 -13 15 -42 17 -64 2 -22 13 -62 25 -90 12 -27 33 -74 46 -103 14 -29 36
-65 49 -81 21 -25 23 -33 14 -57 -6 -16 -9 -38 -6 -50 3 -12 20 -27 38 -35 18
-7 43 -25 55 -39 20 -23 23 -24 55 -12 18 7 37 14 42 15 5 1 14 -8 21 -20 6
-12 25 -35 41 -52 21 -21 36 -29 48 -25 9 3 21 15 27 25 6 13 21 19 43 19 19
0 45 9 60 21 15 11 33 19 40 16 8 -3 24 2 37 11 13 9 40 22 59 29 19 7 38 9
42 5 3 -4 2 -86 -4 -182 -6 -96 -10 -226 -9 -289 1 -62 6 -143 11 -180 5 -36
10 -85 10 -108 0 -23 7 -48 15 -57 8 -8 15 -21 15 -29 0 -8 7 -20 15 -27 8 -7
15 -23 15 -35 0 -12 7 -28 15 -35 8 -7 15 -16 15 -21 0 -5 32 -42 71 -82 40
-39 76 -71 82 -69 5 1 16 -3 25 -10 8 -7 40 -18 71 -24 31 -7 63 -8 72 -3 8 4
39 11 67 15 28 3 66 16 84 27 18 11 42 21 54 23 11 1 44 25 73 53 29 28 56 51
60 51 4 0 23 17 43 38 19 20 47 58 61 84 17 31 28 71 33 120 4 40 7 89 6 108
0 19 -3 93 -5 164 -4 114 -2 134 14 167 11 20 33 48 49 63 16 14 32 26 35 26
3 0 18 8 33 18 15 11 54 35 87 54 33 20 71 39 85 43 14 4 66 27 115 53 50 25
104 52 120 60 17 9 44 26 61 39 17 13 36 23 42 23 6 0 33 11 59 26 26 14 52
29 57 35 6 5 18 9 28 9 10 0 18 4 18 9 0 5 8 11 18 15 9 3 29 14 43 23 15 10
52 35 83 56 31 22 56 43 56 48 0 5 7 9 15 9 8 0 15 5 15 11 0 5 5 7 11 3 6 -3
23 5 37 18 15 13 43 36 62 50 19 14 46 28 60 33 14 4 36 14 50 23 14 9 27 17
30 18 3 0 14 4 25 9 11 5 31 17 44 27 13 10 31 18 41 18 9 0 27 11 40 25 13
14 28 25 33 25 5 0 24 12 42 28 17 15 42 34 55 42 13 8 41 29 64 47 23 17 65
43 94 58 28 14 52 30 52 35 0 5 10 10 23 12 19 3 26 -7 51 -62 16 -36 32 -74
36 -85 4 -11 14 -36 21 -55 7 -19 30 -60 51 -90 21 -31 38 -61 38 -67 0 -5 9
-22 21 -37 11 -14 18 -30 15 -35 -3 -5 4 -24 17 -42 16 -25 22 -48 21 -89 0
-30 -6 -77 -13 -105 -8 -27 -15 -70 -16 -95 -1 -25 4 -62 13 -83 11 -29 13
-58 8 -120 -4 -44 -11 -99 -16 -122 -5 -23 -11 -165 -14 -316 -2 -150 -7 -281
-10 -289 -3 -8 -7 -39 -10 -67 -3 -29 -1 -53 4 -53 5 0 2 -16 -6 -35 -11 -28
-14 -75 -12 -208 1 -95 -2 -205 -6 -245 -5 -39 -12 -74 -16 -77 -5 -3 -6 -13
-4 -23 3 -9 -5 -78 -16 -152 -12 -74 -28 -198 -37 -275 -9 -77 -16 -153 -15
-170 0 -16 -6 -52 -15 -78 -8 -27 -13 -56 -10 -66 2 -10 -2 -83 -9 -162 -8
-79 -13 -160 -13 -179 1 -19 -1 -69 -5 -110 -4 -41 -10 -93 -13 -115 -3 -22
-5 -46 -6 -53 0 -8 -12 -18 -26 -24 -14 -6 -109 -12 -211 -14 -102 -2 -232 -9
-290 -14 -74 -7 -112 -15 -130 -28 -13 -10 -28 -33 -33 -51 -5 -20 -4 -37 2
-44 5 -7 37 -14 71 -15 34 -2 67 1 73 6 7 5 23 12 37 15 14 3 81 9 150 12 69
3 198 7 287 9 146 4 164 6 184 24 20 19 22 31 24 174 2 84 8 189 13 233 6 44
8 121 5 172 -4 62 -2 97 5 106 6 7 11 38 11 68 0 30 3 68 6 84 4 17 11 86 17
155 5 69 14 141 20 161 6 20 8 59 5 87 -3 33 -1 56 8 69 7 10 20 63 28 118 10
64 16 166 16 285 0 102 2 226 5 275 2 50 8 135 14 190 5 55 7 183 5 285 -2
102 1 219 6 260 5 41 12 86 16 100 4 14 9 54 11 90 2 36 6 92 9 125 3 33 8 71
11 85 6 23 7 22 21 -15 8 -22 19 -49 23 -60 4 -11 15 -39 24 -63 9 -23 16 -50
16 -60 0 -9 7 -30 15 -46 8 -15 15 -33 15 -39 0 -6 15 -41 33 -76 17 -36 37
-70 43 -76 5 -5 23 -27 38 -48 l28 -39 4 -231 c1 -128 3 -248 3 -267 1 -19 1
-69 1 -110 0 -41 5 -131 11 -200 6 -69 12 -299 13 -513 0 -213 4 -387 9 -387
4 0 6 -3 6 -7 -1 -5 0 -10 1 -13 1 -3 4 -57 6 -120 3 -63 7 -148 10 -189 2
-41 8 -80 13 -85 4 -6 5 -90 1 -186 -4 -96 -6 -188 -4 -205 3 -16 6 -160 8
-320 2 -159 7 -327 11 -371 l8 -81 -39 -9 c-22 -4 -106 -9 -189 -11 -82 -1
-181 -7 -220 -12 -38 -6 -87 -18 -107 -27 -32 -14 -38 -22 -38 -48 0 -17 7
-39 15 -50 12 -16 22 -18 67 -12 28 4 57 10 62 14 6 3 83 8 171 9 88 2 176 8
195 13 19 6 62 10 95 10 l61 0 30 53 c30 51 31 55 28 162 -1 61 -5 144 -8 185
-3 41 -8 147 -10 235 -2 88 -7 167 -10 176 -4 8 -9 78 -11 155 -3 76 -5 146
-5 154 0 8 2 30 4 48 1 18 -1 56 -5 84 -5 32 -5 56 2 64 6 7 6 20 0 36 -5 14
-12 83 -15 154 -3 71 -8 152 -11 179 -2 28 -8 100 -12 160 -4 61 -7 164 -7
230 0 66 2 174 4 240 2 66 1 161 -2 211 -4 50 -8 130 -9 178 -1 47 -6 86 -11
86 -4 0 -6 12 -3 28 3 15 5 120 5 234 l1 207 34 17 c22 10 49 14 75 11 22 -2
71 0 108 4 37 5 99 11 137 14 39 2 85 7 103 10 18 3 216 7 440 7 224 1 502 0
618 -2 116 -2 215 -1 220 2 5 3 108 9 229 13 121 4 294 8 385 9 91 1 255 -3
365 -7 110 -5 227 -10 260 -12 33 -2 170 -4 305 -4 135 -1 373 4 530 9 157 5
344 13 415 16 72 4 139 6 150 6 11 -1 90 5 175 14 85 9 173 17 195 19 22 2 76
6 120 9 44 4 101 11 126 18 26 6 54 8 63 5 14 -6 15 -11 5 -28 -6 -12 -13 -81
-15 -153 -2 -72 -6 -170 -8 -219 -3 -53 -1 -87 5 -87 6 0 7 -24 4 -62 -4 -35
-7 -70 -7 -78 0 -8 0 -150 -1 -315 0 -165 0 -336 -1 -380 0 -44 1 -106 3 -138
2 -31 10 -62 18 -68 7 -6 13 -18 13 -25 0 -8 -4 -14 -9 -14 -5 0 -9 -26 -9
-57 0 -32 -3 -95 -7 -141 -5 -65 -4 -87 7 -100 9 -11 14 -37 13 -69 -1 -29 -4
-56 -8 -59 -3 -4 -3 -14 2 -23 5 -9 14 -40 21 -69 10 -45 10 -56 -1 -67 -8 -8
-43 -16 -79 -18 -36 -3 -72 -7 -80 -10 -8 -4 -26 -6 -40 -5 -14 1 -54 -4 -90
-11 -36 -7 -129 -14 -206 -16 -78 -3 -154 -9 -168 -15 -15 -5 -30 -20 -35 -32
-5 -13 -5 -24 0 -26 4 -2 11 -31 15 -64 5 -47 11 -62 25 -65 15 -4 16 -9 9
-24 -9 -15 -5 -21 22 -35 18 -9 37 -23 41 -30 4 -8 21 -14 37 -14 20 0 28 -4
24 -13 -3 -8 2 -19 10 -26 12 -10 17 -9 25 7 8 15 7 29 -3 54 -8 18 -15 53
-17 78 -2 25 0 51 4 57 4 5 26 13 49 17 24 3 70 9 102 12 33 3 65 8 70 12 6 3
18 8 26 9 8 2 86 5 173 7 128 3 161 7 176 20 9 9 23 16 30 16 6 0 16 12 22 27
5 15 8 38 4 50 -3 13 -9 23 -13 23 -5 0 -7 15 -5 32 2 18 3 64 3 102 -1 38 -5
77 -9 85 -4 9 -9 43 -10 76 -2 33 -6 66 -10 73 -5 8 -5 33 0 55 4 23 6 44 4
47 -2 3 -6 64 -9 135 -4 72 -9 235 -11 363 -2 128 -7 237 -10 242 -3 5 -1 11
4 14 4 3 5 24 1 46 -4 23 -6 78 -5 123 1 45 6 136 9 202 4 66 9 183 11 260 2
77 7 165 10 195 3 30 11 69 16 87 9 27 17 33 47 38 20 4 44 9 52 12 8 3 35 7
60 9 25 2 113 5 195 8 99 3 164 9 191 19 22 8 67 17 99 19 l59 3 14 -90 c7
-49 17 -94 21 -98 4 -4 4 -29 0 -55 -4 -26 -4 -51 0 -57 3 -5 9 -53 12 -105 4
-52 11 -126 17 -165 6 -38 18 -97 27 -130 9 -35 17 -123 20 -210 3 -82 8 -161
12 -175 3 -14 7 -41 9 -60 2 -19 6 -82 9 -140 3 -58 13 -124 22 -148 9 -23 19
-42 24 -42 4 0 6 -12 3 -26 -3 -14 2 -49 10 -78 8 -28 13 -62 12 -76 -1 -14 2
-41 7 -60 5 -19 13 -37 17 -40 5 -3 11 -37 14 -75 4 -39 11 -101 16 -140 6
-38 12 -86 14 -105 3 -19 10 -71 17 -115 6 -44 18 -100 26 -125 8 -25 17 -69
19 -98 2 -30 6 -58 10 -63 3 -5 7 -40 10 -77 2 -37 7 -92 10 -122 3 -30 6 -84
7 -119 2 -59 0 -64 -25 -77 -15 -8 -42 -14 -60 -14 -18 -1 -51 -7 -73 -15 -22
-8 -49 -15 -60 -15 -12 0 -25 -4 -30 -8 -6 -5 -30 -14 -55 -21 -24 -7 -56 -15
-69 -18 -14 -2 -31 -9 -38 -15 -7 -5 -34 -12 -59 -13 -33 -2 -55 -11 -76 -29
-26 -22 -29 -30 -23 -58 4 -18 9 -36 11 -39 2 -3 20 -17 41 -32 21 -14 55 -27
76 -30 25 -3 44 -14 58 -31 11 -14 27 -26 35 -26 8 0 14 8 14 18 0 9 -12 30
-27 46 -16 18 -23 31 -16 33 7 3 9 11 6 20 -3 8 0 19 8 24 8 5 52 20 98 35 46
14 107 30 135 34 28 5 69 13 91 19 22 6 63 11 91 11 32 0 56 5 63 14 8 9 8 16
2 20 -6 4 -8 13 -5 21 3 7 12 11 20 8 7 -3 17 2 20 11 4 9 1 35 -5 59 -6 23
-14 58 -17 77 -3 19 -5 62 -4 95 1 33 -4 80 -10 105 -6 25 -15 61 -21 80 -5
19 -10 67 -12 105 -1 39 -7 77 -12 85 -5 8 -13 42 -17 75 -5 33 -10 71 -11 85
-2 14 -12 52 -22 85 -10 33 -17 77 -16 98 1 21 -1 43 -5 49 -5 7 -9 28 -11 48
-2 19 -6 51 -10 70 -3 19 -7 40 -8 45 0 6 -4 17 -7 25 -4 8 -9 48 -12 88 -3
41 -9 79 -15 86 -6 6 -10 21 -10 31 0 11 -5 40 -11 65 -6 25 -13 60 -16 79 -2
18 -10 45 -18 60 -8 14 -19 79 -26 144 -6 64 -13 185 -16 268 -2 83 -7 155
-10 161 -3 5 -8 44 -10 86 -2 42 -6 105 -9 140 -2 35 -9 71 -15 81 -5 10 -7
21 -4 24 3 3 0 15 -6 28 -8 14 -13 78 -15 168 -1 80 -7 170 -13 200 -10 45 -9
57 6 79 14 22 16 52 14 217 -1 106 -7 214 -13 241 -6 27 -15 107 -20 178 -5
71 -13 134 -18 140 -4 6 -9 30 -10 52 -1 23 3 45 8 49 6 3 9 10 7 13 -2 4 -7
26 -10 48 -4 22 -8 50 -11 63 -2 12 -7 32 -11 44 -5 12 -7 30 -5 40 1 9 -5 63
-14 119 -9 56 -21 108 -26 115 -6 7 -9 16 -6 20 3 4 1 33 -4 63 -5 30 -11 78
-13 105 -2 28 -10 73 -16 100 -7 28 -14 84 -16 125 -2 41 -6 134 -8 205 -3 72
-5 167 -6 211 -1 45 2 90 8 99 6 11 6 32 0 59 -6 22 -10 92 -10 154 0 104 2
116 23 138 12 13 31 24 41 24 10 0 53 18 96 40 42 22 88 46 102 54 14 7 36 19
50 25 14 6 48 25 75 41 28 16 57 32 65 35 8 4 29 14 45 22 17 9 42 30 58 46
15 17 27 27 27 23 0 -4 14 4 31 18 17 14 34 26 38 26 3 0 21 14 39 30 18 17
38 30 43 30 5 0 24 13 42 29 17 16 43 39 57 51 14 11 45 37 69 58 24 20 64 55
90 78 25 22 60 50 76 63 17 13 64 55 106 94 42 40 92 86 111 102 19 17 76 70
128 119 52 49 149 143 215 208 66 65 164 165 217 221 54 56 145 150 203 210
58 59 121 131 139 160 19 28 52 71 74 94 22 23 43 39 46 35 3 -3 6 1 6 9 0 8
16 25 35 38 20 13 35 32 35 43 0 11 10 28 22 38 22 18 23 18 4 39 -11 12 -31
21 -45 21z m-10187 -718 c39 -2 72 -7 74 -11 1 -4 17 -5 34 -3 25 4 30 2 25
-11 -3 -9 1 -18 9 -21 9 -3 28 -6 44 -6 15 0 33 -6 40 -14 6 -8 21 -16 33 -18
12 -2 21 -9 20 -15 -2 -7 7 -17 18 -24 16 -8 20 -8 14 1 -6 9 -3 9 13 1 12 -6
24 -16 27 -21 4 -6 11 -8 16 -5 5 4 9 -1 9 -9 0 -9 4 -15 9 -13 5 1 26 -13 45
-31 20 -19 36 -41 36 -51 0 -9 23 -41 52 -70 28 -29 52 -62 53 -72 1 -10 12
-29 26 -41 14 -13 38 -32 54 -43 17 -11 33 -18 38 -17 4 1 7 -4 7 -12 0 -8 13
-17 29 -21 16 -3 35 -13 41 -21 7 -7 16 -11 21 -8 5 3 19 -1 31 -8 13 -7 33
-13 46 -15 12 -1 29 -9 38 -17 8 -9 21 -17 27 -17 7 -1 21 -3 32 -5 11 -1 35
-5 54 -8 19 -3 37 -9 40 -15 3 -5 18 -12 31 -16 14 -3 57 -7 95 -9 39 -2 77
-6 85 -9 8 -3 33 -8 55 -10 22 -3 82 -12 134 -22 52 -9 99 -19 105 -22 5 -4
21 -8 35 -11 15 -2 67 -6 116 -8 76 -5 94 -9 115 -29 14 -12 39 -26 56 -30 21
-4 61 -34 118 -90 47 -47 86 -91 86 -99 0 -8 7 -22 16 -30 8 -9 12 -20 9 -26
-3 -5 -1 -10 5 -10 6 0 27 -16 46 -36 21 -20 33 -41 30 -50 -3 -7 -1 -14 4
-14 6 0 10 -5 10 -11 0 -6 7 -17 16 -26 8 -9 13 -21 10 -29 -3 -7 1 -18 9 -24
7 -6 17 -30 20 -53 4 -23 16 -64 27 -92 10 -27 25 -64 33 -82 8 -17 15 -38 15
-47 0 -9 7 -19 15 -22 8 -4 15 -11 15 -16 0 -6 8 -26 17 -46 9 -21 22 -44 29
-52 6 -8 15 -49 18 -90 4 -41 11 -93 16 -115 5 -22 7 -41 5 -44 -3 -2 -1 -9 4
-15 5 -6 14 -45 19 -86 7 -46 7 -104 2 -150 -5 -41 -13 -87 -18 -101 -6 -14
-12 -40 -15 -56 -3 -17 -11 -48 -17 -69 -7 -22 -19 -53 -26 -69 -7 -17 -18
-44 -25 -60 -7 -17 -12 -33 -11 -37 1 -5 -3 -8 -8 -8 -6 0 -10 -13 -10 -28 0
-19 -11 -38 -32 -59 -18 -17 -51 -40 -74 -51 -22 -11 -46 -28 -54 -37 -7 -9
-27 -22 -44 -29 -17 -7 -33 -13 -36 -12 -3 0 -34 -20 -70 -44 -36 -24 -69 -47
-75 -52 -5 -4 -23 -19 -39 -33 -16 -14 -34 -25 -40 -26 -6 0 -20 -3 -31 -5
-11 -3 -38 -8 -60 -10 -27 -4 -65 3 -117 20 -43 14 -86 30 -97 36 -11 5 -20
18 -20 28 -1 9 -3 85 -6 167 -3 106 2 206 16 344 11 107 17 207 14 222 -3 15
0 43 8 62 13 30 13 48 0 143 -8 60 -24 152 -35 204 -12 52 -28 103 -37 113 -8
10 -16 28 -18 40 -2 12 -11 51 -20 86 -8 36 -28 88 -43 115 -14 28 -35 67 -46
86 -10 19 -27 41 -36 48 -10 7 -18 22 -18 32 0 11 -12 41 -27 67 -14 26 -36
62 -47 78 -12 17 -33 42 -48 58 -15 15 -36 27 -46 27 -10 0 -28 -7 -40 -16
-15 -10 -22 -25 -22 -47 0 -18 9 -43 20 -57 11 -14 20 -30 20 -35 0 -6 8 -15
18 -21 10 -6 26 -30 37 -53 11 -22 23 -41 27 -41 3 0 22 -31 41 -69 20 -38 33
-72 30 -75 -4 -3 -2 -6 4 -6 5 0 22 -30 36 -67 15 -38 26 -71 24 -75 -1 -3 7
-15 18 -25 12 -10 19 -25 17 -35 -2 -9 2 -19 7 -23 6 -3 11 -17 11 -30 0 -13
3 -25 8 -27 4 -1 15 -33 25 -70 9 -37 20 -101 24 -142 3 -42 10 -76 14 -76 4
0 6 -19 4 -42 -2 -24 -7 -101 -10 -173 -4 -71 -10 -132 -15 -135 -4 -3 -8 -25
-9 -50 0 -25 -2 -83 -4 -130 l-4 -85 -29 -3 c-16 -2 -33 -10 -37 -18 -5 -8
-12 -12 -16 -10 -5 3 -19 -6 -31 -19 -13 -14 -29 -25 -35 -25 -7 0 -30 -12
-51 -28 -21 -15 -52 -34 -69 -41 -16 -8 -32 -15 -35 -16 -3 -1 -17 -7 -32 -15
-16 -7 -28 -17 -28 -22 0 -4 -9 -8 -20 -8 -11 0 -20 -4 -20 -9 0 -4 -17 -25
-37 -45 -21 -20 -60 -48 -88 -63 -27 -14 -66 -38 -85 -54 -19 -15 -46 -30 -60
-34 -14 -4 -59 -26 -100 -48 -41 -22 -94 -50 -117 -63 -24 -12 -43 -20 -43
-17 0 2 -19 -12 -42 -31 -23 -20 -50 -36 -59 -36 -10 0 -31 -13 -46 -29 -15
-16 -52 -47 -81 -70 -30 -22 -59 -41 -65 -41 -6 0 -36 -22 -66 -48 -31 -27
-86 -63 -122 -80 -37 -18 -71 -32 -76 -32 -5 0 -24 -13 -43 -30 -19 -16 -39
-29 -45 -30 -5 0 -23 -13 -40 -30 -20 -19 -43 -30 -69 -33 -22 -3 -43 -12 -48
-21 -5 -9 -17 -16 -27 -16 -10 0 -26 -9 -36 -20 -10 -11 -23 -19 -29 -18 -6 1
-21 -2 -33 -6 -13 -4 -23 -12 -23 -18 0 -6 -10 -8 -23 -4 -16 4 -36 -5 -72
-34 -27 -22 -53 -36 -57 -32 -4 4 -2 25 3 47 6 22 13 54 15 70 3 17 10 49 16
73 6 23 14 42 19 42 5 0 16 14 24 31 9 17 48 61 86 97 39 37 77 79 85 94 8 15
31 45 52 66 20 20 52 54 70 75 17 20 32 40 32 44 0 4 28 34 63 67 34 34 109
111 167 173 57 61 107 120 111 130 4 10 8 28 8 41 1 13 -6 30 -14 39 -11 10
-25 13 -43 9 -15 -4 -31 -7 -37 -6 -5 0 -29 3 -52 6 -36 5 -49 1 -88 -25 -25
-17 -50 -31 -56 -31 -5 0 -9 -4 -9 -10 0 -5 -18 -14 -40 -20 -21 -6 -52 -22
-68 -35 -17 -14 -39 -25 -50 -25 -11 0 -22 -7 -26 -15 -3 -8 -27 -25 -53 -37
-26 -13 -51 -27 -54 -32 -4 -5 -13 -6 -21 -3 -8 3 -20 -4 -26 -14 -7 -10 -21
-19 -32 -19 -10 0 -25 -8 -32 -19 -7 -10 -27 -25 -44 -34 -16 -8 -53 -36 -81
-61 -28 -25 -58 -46 -66 -46 -9 0 -25 -12 -36 -26 -11 -14 -24 -23 -30 -20 -5
3 -11 -1 -15 -9 -3 -8 -27 -28 -53 -45 -26 -16 -55 -30 -63 -30 -9 0 -22 -9
-30 -20 -8 -11 -19 -20 -25 -20 -6 0 -30 -16 -52 -35 -23 -19 -48 -35 -57 -35
-9 0 -40 -12 -68 -27 -29 -15 -58 -28 -65 -29 -7 -1 -26 -12 -42 -23 -16 -12
-40 -21 -53 -21 -12 0 -36 -9 -53 -20 -16 -11 -56 -27 -88 -36 -32 -9 -60 -21
-63 -25 -3 -5 -16 -9 -29 -9 -13 0 -27 -5 -30 -11 -4 -6 -13 -8 -21 -5 -7 3
-28 -2 -46 -11 -18 -9 -45 -22 -60 -30 -14 -7 -33 -13 -42 -13 -9 0 -16 2 -16
5 0 2 14 33 32 67 17 35 41 77 52 93 12 17 23 32 26 35 3 3 10 14 17 25 6 11
26 47 43 80 18 33 39 69 48 80 10 11 23 30 30 42 6 13 12 35 12 50 0 16 7 41
15 57 8 15 15 40 15 55 0 15 -10 40 -22 57 -15 18 -34 30 -53 32 -16 2 -42 8
-57 13 -19 8 -32 7 -48 -1 -13 -7 -26 -8 -33 -2 -7 5 -43 13 -82 17 -38 4 -98
9 -132 10 -43 2 -74 9 -100 25 -21 12 -53 22 -73 22 -19 0 -41 5 -48 11 -8 6
-24 12 -35 14 -12 2 -28 5 -34 8 -7 2 -13 14 -13 26 0 12 11 30 25 41 14 11
36 39 50 62 14 24 41 57 60 75 19 17 35 35 35 40 0 5 16 29 35 53 20 23 80 90
134 148 54 58 121 132 149 165 27 33 61 71 76 84 14 14 26 32 26 40 0 9 9 22
20 29 11 7 20 17 20 23 0 6 34 44 75 86 41 41 75 79 75 84 0 6 21 32 48 58 26
26 54 57 62 70 8 13 30 40 48 60 18 20 39 47 47 61 7 14 49 60 92 101 43 41
117 118 165 170 49 52 94 103 100 112 7 9 27 19 43 22 26 5 33 1 54 -29 13
-20 33 -47 46 -60 13 -14 26 -22 29 -19 3 4 6 1 6 -5 0 -7 9 -12 19 -12 11 0
26 -3 35 -6 9 -3 13 -11 10 -16 -4 -6 13 -8 47 -5 30 2 61 7 69 9 8 2 32 20
53 38 21 19 47 55 58 80 12 25 21 68 21 97 0 29 -5 60 -12 68 -7 8 -10 15 -7
15 3 0 -11 18 -30 40 -20 22 -44 40 -54 40 -10 0 -21 5 -24 10 -3 6 -16 10
-28 10 -12 0 -33 9 -46 19 -23 18 -23 18 -3 32 11 8 27 32 36 54 14 32 14 45
5 67 -7 17 -19 28 -33 29 -11 1 -28 0 -36 -1 -8 -1 -23 -9 -32 -17 -10 -9 -15
-19 -12 -24 2 -5 -7 -11 -21 -15 -14 -3 -24 -9 -21 -11 3 -3 -6 -17 -20 -31
-13 -15 -24 -30 -24 -35 0 -4 -5 -5 -12 -1 -6 4 -8 3 -5 -3 3 -5 -8 -26 -26
-46 -18 -19 -48 -59 -67 -88 -19 -28 -43 -60 -52 -69 -9 -10 -14 -21 -11 -24
3 -3 -6 -8 -20 -11 -14 -4 -34 -18 -46 -31 -12 -13 -21 -31 -21 -39 0 -8 -11
-22 -24 -31 -16 -10 -23 -21 -19 -31 5 -12 2 -15 -10 -10 -10 4 -17 1 -17 -6
0 -7 -9 -18 -19 -24 -16 -10 -23 -9 -40 5 -11 9 -26 37 -34 61 -9 29 -13 74
-10 140 2 53 3 136 4 185 0 51 -4 92 -10 96 -7 4 -8 17 -1 39 5 19 16 44 25
57 8 13 22 44 30 69 9 24 30 67 47 95 17 27 39 52 48 55 10 3 43 37 74 76 31
38 56 73 56 79 0 5 15 20 33 34 19 15 38 26 43 26 5 0 17 9 27 20 9 11 23 20
31 20 7 0 19 7 26 15 7 9 19 14 25 11 7 -2 23 5 37 17 13 12 33 28 44 34 10 7
36 22 57 33 21 12 42 18 47 15 6 -3 10 -2 10 4 0 6 13 17 30 26 16 8 42 15 58
15 15 0 32 4 38 10 5 5 34 11 64 13 31 1 60 6 67 10 6 4 40 9 75 11 34 2 74 8
87 14 13 5 56 7 95 4z m7151 -1406 c39 -3 131 -8 205 -10 74 -3 151 -6 170 -9
19 -2 49 -7 65 -10 17 -3 46 -8 65 -11 l35 -6 3 -187 c1 -104 4 -236 6 -295 2
-60 7 -143 11 -185 5 -43 10 -91 11 -108 1 -16 3 -67 4 -112 0 -53 5 -87 14
-95 8 -9 13 -42 14 -91 1 -43 6 -86 11 -95 5 -10 9 -28 9 -42 0 -14 3 -47 7
-75 5 -27 11 -52 15 -55 4 -3 11 -52 14 -110 4 -57 11 -107 15 -110 5 -3 11
-21 14 -40 3 -19 8 -50 11 -69 3 -18 6 -51 8 -73 1 -21 5 -41 9 -44 4 -2 3
-19 -2 -37 -5 -17 -9 -46 -9 -64 0 -17 5 -35 10 -38 6 -4 9 -42 8 -88 -1 -45
3 -116 10 -157 6 -41 14 -92 17 -112 4 -26 1 -45 -9 -60 -9 -12 -16 -42 -16
-67 0 -27 -6 -51 -17 -63 -11 -12 -30 -18 -58 -18 -23 0 -64 -6 -91 -14 -27
-8 -65 -17 -84 -20 -19 -3 -103 -8 -185 -11 -91 -3 -169 -11 -199 -20 -42 -13
-52 -13 -65 -2 -9 8 -24 17 -34 20 -10 4 -30 -1 -45 -10 -15 -10 -29 -20 -32
-24 -3 -3 -61 -12 -130 -19 -69 -7 -152 -14 -185 -16 -33 -1 -80 -5 -105 -8
-25 -4 -94 -11 -155 -16 -60 -5 -188 -14 -283 -20 -95 -6 -236 -13 -315 -15
-78 -2 -232 -6 -342 -9 -110 -3 -265 -7 -345 -7 -80 -1 -161 1 -180 5 -19 3
-118 9 -220 11 -102 3 -196 5 -210 5 -14 0 -56 1 -95 2 -38 1 -140 2 -225 1
-85 0 -200 -3 -255 -7 -55 -3 -172 -8 -260 -11 -88 -3 -250 -5 -360 -4 -110 0
-208 0 -217 -1 -10 0 -28 0 -40 1 -13 0 -169 2 -348 3 -179 1 -347 -2 -375 -6
-27 -4 -93 -10 -145 -12 -52 -3 -97 -6 -100 -6 -3 -1 -48 -2 -100 -2 -82 -1
-95 2 -98 17 -2 9 -11 26 -20 36 -10 11 -26 30 -37 43 -11 13 -28 38 -37 56
-10 17 -18 37 -18 44 0 7 -12 23 -26 37 -14 13 -31 35 -37 49 -5 14 -18 45
-27 70 -10 25 -23 61 -30 80 -7 19 -24 67 -38 105 -14 39 -31 74 -39 78 -7 4
-13 17 -13 27 0 10 -4 21 -9 25 -5 3 -12 19 -16 35 -4 17 -10 30 -15 30 -4 0
-11 11 -14 25 -4 14 -20 46 -36 72 -17 26 -30 51 -30 56 0 4 -7 15 -15 24 -8
8 -13 18 -10 23 3 4 -2 13 -10 20 -8 7 -15 21 -15 33 0 11 -8 34 -18 51 -10
17 -24 51 -31 76 -7 25 -17 53 -22 62 -5 10 -9 25 -9 34 0 9 -9 27 -20 41 -11
14 -20 32 -20 39 0 8 -3 14 -8 14 -4 0 -13 13 -20 29 -7 15 -10 35 -6 44 3 8
23 23 45 31 22 9 45 14 51 10 5 -3 8 -15 5 -25 -3 -10 -1 -36 4 -57 5 -23 5
-52 -1 -72 -7 -26 -5 -43 9 -76 18 -41 21 -43 75 -49 31 -4 59 -11 62 -16 3
-5 16 -9 29 -9 13 0 25 -4 27 -10 2 -5 28 -14 58 -20 30 -6 80 -8 110 -4 30 3
75 15 100 27 25 12 65 36 90 54 25 18 51 38 58 44 7 5 27 15 45 21 17 6 41 19
52 28 11 10 39 28 62 40 23 12 47 28 54 36 6 8 21 14 32 14 12 0 41 21 66 48
27 27 69 91 100 152 29 58 62 129 72 159 11 30 19 75 19 100 0 26 6 55 13 66
7 11 19 39 25 62 7 23 13 86 14 140 1 58 -3 107 -10 120 -7 12 -12 39 -12 60
0 22 -4 43 -9 49 -5 5 -12 27 -14 49 -2 22 -7 47 -10 55 -3 8 -8 35 -12 60 -3
25 -8 55 -12 68 -5 20 -1 22 30 22 20 0 39 5 42 10 4 7 12 7 25 0 12 -6 28 -7
43 -1 13 5 101 9 194 9 129 0 185 4 227 16 31 9 111 19 179 22 67 3 140 7 162
8 22 2 64 7 93 11 29 4 55 12 58 16 3 5 9 7 13 5 4 -3 27 -5 52 -5 24 -1 114
1 199 4 85 2 179 7 208 10 29 4 99 8 155 10 56 1 161 6 232 10 72 4 133 9 136
11 3 1 68 3 145 3 76 1 148 1 159 1 11 1 119 2 240 4 121 1 231 -2 244 -6 15
-5 29 -4 37 3 8 6 25 8 39 5 15 -4 65 -9 113 -12 48 -3 155 -8 237 -10 83 -3
169 -5 193 -5 23 -1 50 0 60 0 9 1 91 2 182 3 91 0 183 2 205 3 22 2 83 11
135 20 52 9 122 16 155 15 33 0 103 4 155 9 52 6 118 13 145 17 28 3 52 8 55
11 3 3 37 2 75 -1z m-7277 -1486 c3 0 -3 -10 -12 -22 -9 -13 -24 -34 -33 -48
-9 -14 -51 -56 -94 -93 -42 -38 -84 -83 -93 -100 -8 -18 -47 -63 -86 -102 -38
-38 -70 -74 -70 -80 0 -5 -26 -35 -58 -65 -39 -37 -63 -69 -71 -95 -7 -22 -25
-67 -41 -100 -16 -33 -32 -82 -35 -110 -3 -27 -11 -79 -17 -115 -7 -44 -9
-137 -3 -290 4 -124 7 -238 6 -255 0 -16 -6 -49 -12 -73 -9 -31 -30 -62 -75
-107 -34 -35 -78 -71 -98 -79 -20 -8 -36 -20 -36 -25 0 -6 -17 -11 -37 -11
-21 0 -47 -1 -58 -1 -11 -1 -25 -5 -30 -10 -6 -4 -28 -4 -48 1 -22 5 -57 26
-85 51 -26 24 -51 50 -56 58 -5 8 -20 25 -33 37 -12 12 -23 28 -23 35 0 8 -6
23 -14 34 -7 11 -20 52 -29 90 -9 39 -19 111 -23 160 -3 50 -6 153 -4 229 1
77 8 169 16 205 7 36 14 83 14 104 0 25 -4 37 -14 37 -8 0 -13 6 -12 13 1 6 5
18 10 25 4 7 65 40 134 74 70 33 134 66 142 73 8 7 33 21 55 32 22 11 54 27
70 34 17 8 49 26 71 42 23 15 46 27 51 27 4 0 14 9 20 19 7 11 26 22 43 26 16
4 36 14 42 24 7 9 30 25 50 34 20 10 40 17 45 16 4 -1 24 5 43 14 19 9 55 35
80 57 24 22 48 40 53 40 5 0 27 13 50 29 24 16 66 43 95 60 29 17 57 31 63 31
5 0 22 9 38 20 15 12 39 22 54 24 16 1 33 8 39 14 7 7 14 12 16 12z m6559
-3614 c3 -2 -1 -15 -8 -28 -8 -14 -14 -18 -17 -10 -2 7 2 19 8 28 7 8 15 13
17 10z m-2 -46 c2 0 6 -4 9 -8 3 -5 -1 -9 -9 -9 -8 0 -12 4 -9 9 3 4 7 8 9 8z"/>
<g>
<path d="M6333 8430 c-4 0 -16 -5 -26 -11 -9 -6 -26 -7 -37 -4 -14 4 -33 -3
-61 -25 -22 -18 -49 -51 -61 -74 -11 -22 -22 -65 -24 -93 -2 -29 1 -53 7 -53
5 0 9 -6 9 -13 0 -7 9 -19 21 -27 11 -8 26 -29 34 -46 7 -17 26 -40 42 -52 25
-18 35 -19 69 -10 21 5 54 12 72 15 18 3 35 9 38 14 3 5 13 9 22 9 9 0 25 12
35 26 11 14 25 61 31 104 11 67 11 84 -1 107 -8 15 -19 30 -24 34 -6 3 -16 17
-22 29 -7 13 -19 26 -27 31 -8 4 -31 14 -52 23 -20 9 -40 16 -45 16z"/>
</g>
</g>
<g>
<path d="M17486 10270 c-7 0 -19 -7 -26 -15 -7 -8 -18 -15 -24 -15 -6 0 -17
-9 -24 -20 -10 -17 -10 -20 5 -20 10 0 33 14 51 30 17 16 32 32 32 35 0 3 -6
5 -14 5z"/>
</g>
<g>
<path d="M17331 10195 c-10 1 -40 -16 -66 -37 -27 -21 -53 -37 -59 -35 -5 2
-20 -5 -32 -16 -13 -11 -33 -26 -46 -33 -13 -7 -33 -18 -45 -23 -11 -5 -29
-19 -40 -29 -10 -11 -43 -32 -73 -48 -30 -15 -57 -31 -60 -35 -3 -4 -23 -14
-45 -23 -22 -9 -58 -34 -80 -55 -22 -21 -53 -46 -70 -55 -16 -10 -42 -35 -57
-56 -16 -21 -28 -40 -28 -42 0 -1 12 -3 28 -3 15 0 36 8 47 18 11 10 57 43
102 73 46 30 89 61 96 68 8 8 54 39 103 70 49 30 99 64 111 76 12 11 27 20 32
20 5 0 16 6 23 13 7 7 40 32 73 54 33 22 77 46 97 54 21 7 40 19 43 27 3 9 0
12 -9 9 -8 -3 -17 -3 -20 1 -4 3 -15 6 -25 7z"/>
</g>
<g>
<path d="M13550 2490 l-20 25 0 -22 c0 -13 5 -23 10 -23 6 0 10 -14 10 -31 0
-17 4 -28 10 -24 6 3 10 16 10 28 0 12 -9 33 -20 47z"/>
</g>
</g>
</svg>
