<?xml version="1.0" standalone="no"?>
<!DOCTYPE svg PUBLIC "-//W3C//DTD SVG 20010904//EN"
 "http://www.w3.org/TR/2001/REC-SVG-20010904/DTD/svg10.dtd">
<svg version="1.0" xmlns="http://www.w3.org/2000/svg"
 width="1905.000000pt" height="1121.000000pt" viewBox="0 0 1905.000000 1121.000000"
 preserveAspectRatio="xMidYMid meet">
<metadata>
Created by potrace 1.16, written by Peter Selinger 2001-2019
</metadata>
<g transform="translate(0.000000,1121.000000) scale(0.100000,-0.100000)"
fill="#000000" stroke="none">
<g>
<path d="M1424 10260 c-12 0 -32 -8 -44 -18 l-23 -18 22 -48 c11 -27 48 -79
82 -117 33 -37 71 -84 85 -104 13 -20 24 -39 24 -44 0 -4 14 -20 30 -36 17
-16 30 -32 30 -36 0 -5 20 -37 45 -72 25 -36 45 -68 45 -71 0 -4 12 -25 27
-49 15 -23 41 -60 59 -82 17 -22 39 -56 49 -75 10 -19 21 -37 24 -40 4 -3 20
-23 37 -45 16 -22 47 -75 68 -118 21 -43 55 -98 75 -122 20 -23 59 -71 86
-106 28 -35 69 -82 91 -106 23 -23 59 -64 80 -90 22 -26 62 -70 89 -98 28 -27
74 -77 102 -110 29 -33 77 -94 108 -135 31 -41 82 -103 112 -138 31 -35 73
-85 94 -112 22 -27 39 -52 39 -55 0 -4 15 -25 32 -48 18 -23 71 -87 118 -142
47 -55 91 -104 97 -108 7 -4 13 -14 13 -21 0 -7 10 -21 21 -32 12 -10 35 -47
52 -82 17 -35 49 -85 73 -110 23 -26 49 -63 57 -83 8 -19 40 -75 72 -125 32
-49 70 -110 84 -136 14 -25 51 -79 81 -120 30 -40 66 -95 80 -121 14 -26 35
-55 48 -63 12 -8 22 -20 22 -26 0 -6 15 -31 33 -55 17 -24 44 -60 60 -80 15
-20 27 -39 27 -44 0 -4 15 -29 33 -54 17 -26 47 -68 65 -93 18 -26 43 -64 57
-84 13 -20 30 -40 37 -45 7 -4 27 -34 43 -66 17 -32 50 -83 75 -114 25 -30 52
-67 60 -81 8 -15 38 -60 65 -101 28 -41 68 -93 90 -115 22 -23 72 -81 110
-130 39 -49 90 -112 115 -140 25 -28 58 -70 73 -92 16 -23 50 -65 77 -94 27
-29 62 -71 77 -93 15 -22 40 -53 56 -68 15 -15 27 -31 27 -34 0 -4 27 -42 60
-84 33 -42 69 -87 80 -101 11 -14 20 -28 20 -33 0 -4 29 -47 65 -96 35 -49 84
-116 109 -148 25 -32 84 -96 131 -142 47 -46 85 -87 85 -92 0 -4 30 -52 67
-106 37 -54 71 -102 75 -108 5 -5 22 -27 38 -49 17 -21 30 -44 30 -51 0 -7 7
-18 15 -25 9 -7 73 -98 143 -202 70 -103 138 -207 151 -231 13 -23 44 -66 68
-96 23 -29 43 -59 43 -66 0 -6 12 -30 28 -52 15 -21 32 -46 37 -55 6 -9 54
-83 109 -164 54 -82 113 -162 130 -179 18 -16 50 -52 71 -80 22 -27 69 -80
105 -118 36 -37 67 -72 68 -77 2 -6 16 -23 30 -39 15 -15 58 -62 97 -104 38
-42 75 -87 82 -101 7 -13 31 -37 53 -54 22 -16 100 -87 173 -158 73 -71 166
-160 208 -199 41 -38 90 -83 109 -100 19 -16 53 -42 75 -56 22 -14 76 -60 120
-100 44 -41 109 -98 143 -127 35 -29 69 -52 75 -52 7 0 18 -9 25 -20 7 -11 16
-20 22 -20 5 0 29 -14 52 -30 24 -17 65 -46 93 -65 27 -19 57 -35 65 -35 9 0
34 -9 55 -20 22 -11 73 -30 114 -41 41 -12 82 -24 90 -29 9 -4 32 -14 51 -23
19 -8 58 -22 85 -31 28 -9 73 -24 100 -32 28 -8 59 -19 70 -24 11 -5 52 -14
90 -20 39 -6 90 -14 115 -17 25 -3 50 -9 55 -13 6 -4 28 -11 50 -15 22 -4 58
-12 80 -20 22 -7 108 -20 190 -29 83 -9 197 -21 255 -26 58 -6 146 -19 195
-31 50 -11 108 -26 130 -34 22 -7 63 -18 90 -24 28 -7 70 -13 95 -15 25 -1 52
-5 60 -8 8 -3 44 -11 80 -17 36 -6 97 -17 135 -26 39 -8 144 -20 235 -27 91
-7 289 -13 440 -12 161 0 306 6 350 13 41 6 93 14 115 17 22 3 49 9 60 14 11
5 58 14 105 20 47 6 108 13 135 16 28 3 82 9 120 14 39 5 104 14 145 20 41 6
84 12 95 14 11 1 36 8 55 14 19 6 55 14 80 17 25 4 51 12 57 17 7 6 18 8 25 5
7 -2 63 6 123 19 61 13 121 26 135 28 14 2 97 15 185 29 88 14 216 32 285 41
69 8 152 18 185 21 33 4 76 10 95 15 19 5 55 12 80 15 25 3 90 12 145 21 55 8
145 24 200 36 55 11 107 20 115 20 8 1 20 4 26 9 5 5 37 16 70 25 32 9 75 20
94 24 19 5 60 17 90 28 30 11 114 48 185 83 72 35 144 69 160 76 17 6 41 19
55 27 14 9 57 30 95 47 39 17 84 37 102 45 17 8 34 14 37 14 4 0 44 18 91 41
46 23 90 48 96 56 7 8 26 21 43 30 17 9 51 32 76 52 25 19 84 71 131 113 48
43 90 78 93 78 4 0 28 16 54 36 26 19 124 109 217 200 94 91 177 171 185 178
8 7 31 33 50 57 19 24 63 73 99 109 35 36 89 95 120 132 31 37 66 80 78 97 13
16 26 37 30 47 4 11 23 42 44 69 20 28 46 69 58 93 12 24 37 64 56 90 19 26
44 59 55 74 11 14 20 35 20 46 0 12 4 23 9 26 5 3 35 52 67 108 33 57 68 121
79 143 11 22 22 42 25 45 3 3 22 43 43 90 20 47 37 89 37 93 0 5 9 21 19 36
10 14 24 46 31 71 6 25 18 52 26 61 7 8 19 31 25 50 6 19 15 43 19 54 5 11 16
43 25 70 9 28 22 59 29 70 7 11 18 37 25 57 7 21 23 58 37 83 13 26 24 55 24
65 0 11 4 29 9 42 5 13 26 82 47 153 20 72 47 153 60 182 13 28 24 56 24 61 0
6 11 43 24 82 14 40 32 112 42 159 9 47 27 118 41 156 14 39 44 149 69 245 24
96 44 198 44 227 0 28 6 78 14 110 8 32 18 112 22 178 4 66 8 145 9 175 1 30
5 127 10 215 5 104 4 204 -4 285 -6 69 -25 186 -42 260 -17 74 -46 200 -64
280 -18 80 -45 171 -59 202 -14 31 -26 63 -26 71 0 8 -6 27 -14 43 -8 16 -21
45 -30 64 -8 19 -22 58 -31 85 -9 28 -43 105 -76 172 -34 68 -78 141 -100 165
-22 24 -47 57 -56 73 -9 17 -35 55 -59 85 -23 30 -88 100 -144 155 -56 55
-123 127 -148 160 -25 33 -69 85 -97 115 -28 30 -57 64 -65 75 -8 11 -46 48
-85 81 -38 34 -110 90 -160 126 -49 36 -100 68 -111 72 -12 4 -29 15 -39 26
-10 11 -23 20 -28 20 -6 0 -20 8 -31 19 -12 10 -58 44 -103 75 -46 31 -89 56
-95 56 -7 0 -42 19 -78 43 -36 23 -87 56 -115 72 -27 16 -68 39 -90 51 -22 12
-68 35 -101 52 -34 16 -79 35 -100 42 -22 7 -51 19 -66 26 -14 8 -37 14 -50
14 -12 1 -34 7 -48 15 -14 8 -36 14 -50 15 -15 0 -30 4 -35 9 -6 6 -50 15
-100 21 -49 6 -106 15 -125 20 -19 5 -75 14 -125 20 -49 6 -115 18 -145 26
-30 8 -86 19 -125 25 -38 5 -110 14 -160 19 -49 5 -151 14 -225 20 -74 5 -261
17 -415 26 -154 9 -309 21 -345 27 -36 7 -71 16 -78 20 -7 5 -93 13 -190 17
-97 4 -189 12 -203 18 -14 6 -61 15 -105 22 -43 6 -90 15 -104 21 -14 5 -52
11 -85 13 -33 2 -109 10 -170 17 -60 7 -168 11 -240 10 -71 -1 -170 -6 -220
-12 -49 -6 -198 -12 -330 -14 -132 -3 -319 -10 -415 -16 -96 -6 -285 -11 -420
-10 -135 0 -281 5 -325 11 -44 6 -154 15 -245 20 -91 5 -248 10 -350 10 -102
0 -405 -2 -675 -5 -269 -4 -501 -6 -515 -7 -14 0 -297 3 -630 7 -333 3 -625 8
-650 11 -25 3 -162 7 -305 10 -143 3 -303 6 -355 7 -52 0 -142 0 -200 -1 -58
-2 -163 -7 -235 -13 -71 -6 -242 -10 -380 -9 -137 0 -479 2 -760 3 -280 1
-645 -1 -810 -5 -165 -4 -374 -10 -465 -14 -91 -3 -200 -10 -244 -15 -43 -5
-81 -7 -85 -5 -3 2 -67 0 -141 -4 -74 -5 -171 -12 -215 -15 -44 -3 -109 -10
-145 -14 -36 -5 -92 -5 -125 0 -33 4 -98 8 -145 8 -60 1 -97 7 -126 20 -23 11
-88 24 -145 30 -57 6 -144 13 -194 17 -49 3 -119 6 -155 5 -36 0 -89 3 -118 8
-38 6 -57 4 -71 -6 -15 -10 -33 -11 -83 -3 -35 5 -88 16 -118 25 -30 8 -64 15
-76 15z m4976 -125 c3 -2 76 -7 161 -11 85 -4 213 -6 284 -5 72 1 189 -3 260
-9 78 -7 434 -11 885 -10 415 0 1014 0 1330 1 348 1 614 -3 675 -10 55 -6 143
-15 195 -20 52 -5 172 -13 265 -16 110 -4 254 -1 410 9 132 8 294 15 360 15
66 0 201 3 300 6 99 4 194 10 212 15 17 4 92 6 165 5 73 -2 142 -6 153 -8 11
-3 92 -10 180 -17 92 -7 203 -22 260 -36 55 -13 150 -26 210 -29 61 -4 164
-15 230 -25 66 -10 208 -26 315 -34 107 -8 269 -18 360 -22 91 -3 167 -7 170
-9 3 -2 86 -10 185 -19 99 -9 212 -23 250 -31 39 -8 169 -31 290 -50 121 -19
263 -47 315 -61 52 -14 112 -29 134 -35 21 -5 64 -21 95 -35 31 -14 79 -36
108 -50 28 -13 54 -24 58 -24 3 0 56 -30 117 -67 61 -38 128 -78 147 -90 20
-13 43 -26 51 -30 8 -3 32 -19 52 -35 20 -16 58 -43 85 -61 26 -18 68 -43 92
-56 25 -12 63 -37 85 -55 23 -18 59 -43 81 -56 22 -13 47 -31 56 -39 9 -9 41
-36 70 -61 30 -24 81 -71 114 -105 33 -33 87 -94 120 -135 32 -41 104 -122
159 -180 54 -58 111 -118 126 -135 15 -16 55 -70 90 -120 34 -49 74 -103 87
-118 13 -16 41 -67 63 -112 22 -46 40 -90 40 -98 0 -7 15 -49 33 -93 19 -43
45 -110 59 -149 14 -38 31 -86 38 -105 6 -19 20 -69 31 -110 10 -41 23 -102
29 -135 6 -33 18 -91 26 -130 9 -38 22 -88 30 -110 8 -22 18 -94 23 -160 4
-66 7 -169 6 -230 -1 -60 -7 -213 -14 -340 -6 -126 -16 -246 -21 -265 -5 -19
-14 -87 -21 -150 -7 -71 -24 -157 -45 -225 -19 -60 -34 -116 -34 -123 0 -8 -6
-28 -14 -45 -7 -18 -21 -57 -29 -87 -9 -30 -18 -73 -21 -95 -4 -22 -14 -71
-23 -110 -9 -38 -36 -131 -60 -205 -24 -74 -57 -171 -72 -215 -15 -44 -38
-111 -51 -150 -13 -38 -43 -111 -67 -161 -23 -50 -43 -97 -43 -103 0 -7 -5
-22 -12 -34 -7 -12 -24 -56 -38 -97 -15 -41 -36 -95 -47 -120 -11 -25 -28 -65
-37 -90 -10 -25 -27 -62 -37 -83 -11 -22 -19 -44 -19 -49 0 -6 -19 -41 -42
-77 -23 -36 -50 -82 -60 -101 -10 -19 -22 -42 -27 -50 -5 -8 -17 -31 -26 -50
-9 -19 -31 -62 -50 -95 -18 -33 -39 -72 -45 -87 -7 -16 -16 -28 -20 -28 -5 0
-16 -12 -24 -27 -8 -16 -21 -42 -29 -59 -8 -17 -34 -59 -58 -93 -24 -35 -54
-80 -65 -102 -12 -21 -39 -59 -60 -85 -22 -26 -56 -65 -76 -87 -21 -21 -38
-42 -38 -46 -1 -3 -14 -17 -30 -31 -17 -13 -30 -30 -30 -37 0 -7 -13 -19 -29
-28 -16 -8 -39 -29 -52 -47 -12 -18 -90 -100 -173 -181 -83 -82 -167 -160
-186 -175 -19 -14 -60 -49 -91 -77 -30 -27 -93 -81 -138 -120 -46 -38 -111
-89 -145 -113 -33 -24 -70 -51 -81 -61 -11 -9 -40 -26 -65 -38 -25 -11 -63
-27 -85 -34 -22 -8 -42 -16 -45 -20 -3 -3 -26 -15 -51 -27 -25 -12 -49 -22
-53 -22 -5 0 -43 -16 -85 -36 -42 -19 -84 -40 -93 -45 -10 -5 -24 -9 -31 -9
-8 0 -22 -9 -32 -20 -10 -11 -22 -20 -26 -20 -5 0 -41 -16 -81 -36 -40 -19
-111 -48 -158 -65 -47 -16 -94 -29 -105 -29 -11 0 -33 -7 -49 -15 -15 -8 -40
-15 -55 -15 -15 0 -32 -5 -39 -12 -7 -7 -36 -15 -64 -20 -29 -4 -93 -14 -143
-22 -49 -9 -101 -18 -115 -22 -14 -3 -70 -13 -125 -21 -55 -7 -111 -15 -125
-18 -14 -2 -45 -6 -70 -9 -25 -3 -92 -10 -150 -16 -58 -7 -112 -14 -120 -17
-8 -3 -35 -6 -60 -8 -25 -2 -63 -6 -85 -10 -22 -3 -49 -9 -60 -12 -10 -3 -46
-10 -80 -15 -33 -5 -82 -13 -110 -17 -27 -5 -89 -16 -137 -24 -48 -8 -102 -20
-120 -26 -18 -5 -55 -15 -83 -21 -27 -6 -77 -16 -110 -21 -33 -5 -71 -11 -85
-13 -14 -2 -32 -6 -40 -9 -8 -3 -46 -10 -85 -16 -38 -6 -104 -13 -145 -16 -41
-4 -120 -13 -175 -21 -55 -8 -131 -21 -170 -29 -38 -8 -104 -18 -145 -23 -41
-5 -201 -8 -355 -7 -154 1 -327 7 -385 14 -58 6 -136 14 -175 17 -38 2 -98 14
-133 24 -35 11 -78 20 -96 20 -17 0 -69 9 -116 19 -47 10 -128 30 -180 44 -52
14 -133 32 -180 40 -47 9 -110 18 -140 21 -30 3 -89 8 -130 12 -41 3 -113 12
-160 20 -47 8 -103 18 -125 23 -22 5 -65 16 -96 24 -31 8 -83 18 -115 22 -33
4 -99 15 -149 26 -49 10 -135 35 -190 55 -55 20 -111 39 -125 42 -14 2 -32 10
-40 17 -8 7 -42 21 -75 32 -33 11 -82 29 -110 39 -27 10 -83 40 -123 66 -41
26 -76 48 -79 48 -3 0 -30 19 -60 43 -30 23 -71 57 -92 74 -21 18 -43 33 -48
33 -6 0 -33 22 -60 49 -27 27 -90 84 -139 127 -50 44 -112 97 -139 119 -26 22
-69 57 -94 77 -25 21 -53 44 -61 52 -8 8 -28 28 -44 43 -17 15 -51 48 -77 73
-26 25 -58 54 -71 66 -13 12 -43 43 -68 70 -25 27 -66 74 -91 104 -24 30 -53
67 -62 83 -10 15 -37 41 -60 57 -23 17 -51 44 -63 60 -11 16 -47 58 -80 93
-32 35 -77 90 -99 122 -22 32 -57 77 -77 98 -21 22 -38 46 -38 52 0 7 -16 33
-35 58 -19 25 -35 48 -35 50 0 3 -18 35 -41 72 -22 37 -58 85 -79 107 -20 22
-43 51 -51 66 -7 15 -32 54 -55 87 -22 33 -47 72 -55 86 -8 15 -23 42 -33 60
-10 19 -38 59 -61 89 -24 30 -51 71 -60 90 -10 19 -32 55 -49 80 -17 25 -37
49 -44 53 -6 4 -21 26 -32 48 -11 21 -25 39 -30 39 -6 0 -10 6 -10 13 0 8 -9
22 -20 32 -11 10 -20 22 -20 26 0 4 -16 25 -36 46 -20 21 -47 59 -60 86 -13
26 -29 47 -34 47 -5 0 -16 16 -24 35 -9 20 -41 65 -73 100 -32 36 -64 65 -70
65 -7 0 -19 12 -27 28 -8 15 -28 41 -43 57 -15 17 -46 53 -68 80 -22 27 -47
57 -55 66 -8 9 -20 24 -27 35 -7 10 -27 43 -44 72 -17 30 -38 56 -45 59 -8 3
-14 11 -14 18 0 8 -8 21 -17 31 -9 9 -30 33 -45 53 -15 20 -42 56 -60 81 -18
25 -37 51 -43 57 -5 7 -19 25 -30 39 -11 15 -32 40 -47 55 -16 15 -28 31 -28
37 0 5 -6 12 -14 15 -8 3 -33 34 -55 69 -22 35 -45 68 -51 73 -6 6 -27 26 -46
45 -19 19 -50 58 -68 85 -19 28 -66 84 -105 125 -38 41 -70 79 -71 84 0 5 -15
29 -33 55 -18 25 -44 66 -59 91 -14 25 -41 61 -60 80 -19 19 -52 62 -74 95
-21 33 -42 67 -45 75 -4 9 -31 50 -60 92 -30 42 -76 108 -104 147 -27 39 -53
71 -57 71 -4 0 -8 5 -8 11 0 7 -15 33 -34 59 -19 26 -42 63 -52 81 -9 19 -28
48 -41 64 -14 17 -60 84 -104 150 -43 66 -92 138 -108 160 -17 22 -35 50 -41
63 -5 12 -14 33 -20 47 -5 14 -14 25 -20 25 -5 0 -19 19 -31 43 -12 23 -47 76
-78 117 -31 41 -61 84 -68 95 -6 11 -19 34 -28 52 -9 18 -23 37 -31 44 -8 6
-14 20 -14 30 0 9 -13 27 -29 39 -17 11 -43 44 -60 73 -17 28 -40 63 -53 77
-13 14 -50 57 -84 95 -33 39 -92 111 -131 161 -39 49 -76 101 -83 114 -7 12
-38 51 -69 85 -31 35 -83 93 -116 130 -33 37 -66 78 -73 92 -8 14 -35 46 -61
72 -26 25 -72 75 -103 111 -30 36 -70 88 -88 115 -19 28 -60 80 -92 116 -32
36 -58 69 -58 73 0 4 -11 22 -25 40 -14 18 -25 37 -25 43 0 5 -9 18 -19 27
-11 10 -36 51 -56 92 -20 41 -41 76 -46 80 -5 3 -23 33 -40 67 -17 34 -55 91
-84 127 -28 36 -60 81 -70 100 -10 19 -33 55 -51 80 -19 25 -37 50 -42 55 -4
6 -18 25 -31 43 -13 18 -21 35 -18 38 3 3 49 0 104 -7 83 -10 110 -9 173 4 59
12 98 13 180 7 58 -5 163 -16 234 -24 71 -9 204 -18 295 -22 122 -4 200 -2
296 10 72 9 202 18 290 21 88 3 230 7 315 10 85 2 225 9 310 15 85 6 205 13
265 15 61 2 364 4 675 3 311 0 601 -2 645 -5 44 -2 145 -6 225 -7 80 -2 150 1
156 5 6 5 24 8 40 8 16 0 88 2 159 4 72 3 195 8 275 12 80 4 147 9 149 11 2 2
7 2 11 -1z"/>
<g>
<path d="M10965 9534 c-220 2 -431 0 -470 -4 -38 -5 -115 -9 -170 -9 -55 0
-199 -3 -320 -5 -121 -3 -393 -8 -605 -11 -212 -3 -498 -8 -637 -12 -195 -5
-256 -3 -267 6 -13 11 -22 9 -50 -8 -19 -12 -37 -28 -40 -36 -3 -10 -20 -15
-48 -15 -24 0 -72 -5 -108 -10 -36 -6 -94 -17 -130 -26 -36 -9 -74 -20 -85
-24 -11 -5 -45 -16 -75 -26 -30 -10 -86 -38 -125 -61 -38 -24 -87 -50 -107
-60 -21 -9 -38 -21 -38 -27 0 -6 -31 -39 -68 -73 -37 -34 -88 -82 -114 -105
-28 -26 -76 -91 -119 -163 -40 -66 -78 -124 -85 -128 -8 -4 -20 -31 -29 -59
-8 -28 -18 -56 -23 -62 -5 -6 -14 -36 -21 -66 -8 -30 -17 -59 -21 -65 -4 -5
-13 -57 -20 -115 -7 -62 -9 -137 -5 -184 4 -44 16 -105 27 -136 10 -30 25 -79
34 -109 8 -30 18 -60 23 -65 4 -6 13 -30 20 -54 6 -23 26 -64 44 -90 17 -26
45 -65 62 -87 16 -22 61 -69 98 -104 37 -36 98 -86 135 -113 37 -26 96 -61
132 -79 36 -17 79 -38 95 -47 17 -8 49 -26 72 -39 39 -22 56 -25 220 -30 98
-4 216 -6 262 -5 47 1 101 4 120 7 20 3 59 9 86 14 28 6 55 10 61 10 5 1 16
-22 23 -49 7 -28 10 -62 7 -75 -4 -14 0 -39 7 -57 8 -18 14 -63 15 -99 l2 -67
-49 -21 c-28 -11 -59 -21 -70 -21 -11 0 -22 -4 -26 -9 -3 -5 -20 -13 -38 -16
-17 -4 -48 -16 -67 -26 -19 -10 -59 -27 -89 -38 -29 -12 -62 -21 -71 -21 -10
0 -23 -7 -30 -15 -7 -8 -23 -15 -35 -15 -14 0 -37 -15 -56 -35 -21 -22 -43
-35 -59 -35 -14 -1 -36 -7 -50 -15 -14 -8 -37 -14 -53 -15 -20 0 -30 -7 -38
-26 -5 -15 -28 -44 -50 -66 -22 -21 -44 -49 -50 -61 -5 -12 -16 -33 -24 -46
-7 -13 -21 -28 -29 -33 -9 -5 -16 -15 -16 -23 0 -8 -13 -29 -28 -47 -15 -18
-37 -46 -47 -62 -11 -16 -24 -36 -30 -45 -5 -8 -34 -53 -62 -100 -29 -47 -53
-90 -53 -95 0 -6 -17 -36 -38 -66 -20 -31 -43 -62 -50 -70 -7 -8 -24 -35 -37
-60 -14 -25 -38 -73 -55 -107 -16 -35 -33 -63 -38 -63 -4 0 -18 -19 -30 -42
-12 -24 -32 -59 -43 -78 -12 -19 -29 -44 -38 -55 -10 -11 -32 -45 -49 -76 -16
-31 -69 -113 -116 -184 -48 -70 -104 -150 -126 -179 -21 -28 -54 -71 -72 -96
-19 -25 -44 -62 -57 -82 -12 -21 -20 -42 -17 -47 4 -5 -2 -16 -12 -23 -11 -7
-29 -33 -41 -58 -12 -25 -29 -57 -39 -72 -15 -25 -16 -31 -2 -54 8 -15 25 -31
37 -35 17 -6 29 -2 51 16 16 13 35 45 45 77 9 29 30 74 45 100 15 25 47 79 72
120 24 40 53 82 63 93 10 11 53 71 95 133 42 62 96 146 120 185 23 40 52 92
65 117 12 26 32 59 44 75 13 17 29 37 37 45 7 8 24 33 36 55 13 22 31 54 40
70 9 17 31 50 47 75 17 25 33 57 37 72 3 14 17 39 29 55 13 15 40 56 60 91 21
35 37 70 37 78 0 8 10 25 23 37 13 12 35 43 50 69 15 26 33 53 41 61 8 7 23
29 33 48 10 19 37 61 60 95 23 33 58 75 78 92 19 18 39 32 43 32 4 0 13 -24
21 -52 7 -29 17 -73 22 -98 6 -25 12 -74 15 -110 2 -36 9 -103 15 -150 6 -47
13 -96 15 -110 1 -14 7 -65 13 -115 6 -49 14 -119 19 -155 5 -36 14 -81 20
-100 6 -19 16 -71 22 -115 6 -44 16 -98 22 -120 5 -21 11 -53 13 -71 1 -17 6
-54 10 -81 3 -27 8 -60 11 -73 2 -14 10 -68 18 -120 8 -52 21 -113 29 -135 8
-22 18 -83 22 -135 4 -52 14 -119 21 -148 8 -29 14 -70 14 -90 0 -21 4 -42 9
-47 5 -6 12 -30 15 -55 2 -25 15 -101 26 -170 12 -69 25 -159 30 -200 4 -41
17 -102 29 -135 17 -45 21 -72 16 -110 -4 -37 -2 -55 9 -70 9 -11 16 -40 16
-65 0 -25 7 -81 15 -125 8 -44 21 -115 29 -158 8 -43 18 -82 21 -87 4 -6 13
-68 22 -138 8 -70 16 -158 18 -197 1 -38 9 -95 18 -125 9 -30 21 -72 27 -93
10 -32 8 -41 -9 -65 -11 -16 -39 -41 -63 -57 -24 -16 -59 -43 -78 -61 -19 -17
-48 -34 -63 -38 -16 -4 -46 -18 -68 -32 -22 -13 -45 -36 -51 -49 -9 -19 -7
-29 7 -51 14 -22 22 -25 50 -21 18 3 62 26 98 51 36 25 69 46 72 46 4 0 32 19
63 43 31 23 83 59 115 80 47 31 57 42 57 66 0 15 -7 50 -16 77 -8 27 -17 58
-20 69 -2 11 -10 45 -19 75 -8 30 -15 81 -15 114 0 33 -7 105 -16 161 -9 55
-22 134 -30 175 -8 41 -21 114 -29 162 -7 48 -21 101 -30 118 -9 17 -14 34
-12 38 3 4 -2 52 -10 107 -8 55 -17 129 -20 165 -2 36 -8 70 -12 75 -5 6 -13
30 -19 55 -6 25 -15 70 -21 100 -6 30 -19 111 -30 180 -11 69 -25 159 -31 200
-6 41 -13 95 -16 120 -2 25 -6 64 -9 88 -4 38 -3 42 18 42 12 1 32 9 45 19 12
11 22 23 22 28 0 4 23 34 50 66 28 32 50 62 50 67 0 4 21 30 48 58 26 27 77
81 113 119 36 38 76 85 90 104 13 18 32 40 42 47 9 7 17 19 17 27 0 8 13 24
30 37 16 12 33 30 36 41 3 11 60 74 125 141 65 66 119 124 119 129 0 4 107
114 238 245 130 131 249 256 264 278 15 21 93 107 173 189 80 83 145 154 145
158 0 5 64 73 143 152 78 79 185 190 237 246 52 56 102 109 110 118 8 9 27 33
43 53 15 20 52 61 82 90 30 29 60 59 67 67 7 7 40 39 73 70 33 31 83 80 112
110 29 30 53 60 53 68 0 7 4 13 9 13 4 0 20 11 35 25 14 13 26 29 26 35 0 5 4
10 8 10 5 0 33 25 63 56 30 31 77 80 104 108 28 28 89 94 137 146 47 52 96
107 107 122 12 14 21 29 21 33 0 4 11 16 25 27 14 11 25 27 25 36 1 9 16 28
34 42 18 14 55 52 83 85 27 33 83 94 124 135 41 42 104 104 142 139 37 35 67
66 67 70 0 4 21 20 47 37 26 16 76 50 110 77 34 26 65 47 69 47 3 0 34 24 67
53 34 28 69 60 79 70 10 9 23 17 28 17 6 0 59 48 117 108 81 81 108 103 111
89 2 -10 -3 -28 -10 -40 -8 -12 -22 -48 -32 -79 -9 -31 -24 -59 -32 -62 -8 -3
-14 -19 -14 -41 0 -20 -9 -53 -20 -75 -11 -22 -20 -44 -20 -49 0 -6 -13 -33
-30 -61 -16 -28 -30 -56 -31 -63 0 -7 -10 -31 -22 -53 -12 -23 -51 -100 -87
-170 -35 -71 -77 -148 -92 -170 -15 -23 -28 -48 -28 -57 0 -8 -10 -30 -23 -49
-13 -18 -29 -49 -35 -68 -7 -18 -25 -54 -41 -79 -16 -25 -40 -71 -54 -101 -13
-30 -35 -82 -48 -115 -13 -33 -34 -79 -46 -102 -12 -22 -32 -67 -44 -100 -11
-32 -30 -76 -40 -99 -10 -22 -19 -47 -19 -55 0 -8 -7 -24 -15 -35 -8 -10 -15
-25 -15 -31 0 -7 -15 -45 -34 -85 -19 -40 -47 -102 -64 -138 -16 -36 -46 -104
-66 -153 -20 -48 -36 -93 -36 -101 0 -8 -7 -16 -15 -20 -8 -3 -15 -15 -15 -27
0 -11 -8 -33 -19 -47 -10 -15 -35 -73 -54 -130 -19 -57 -42 -109 -50 -115 -8
-7 -25 -41 -37 -77 -12 -36 -31 -85 -42 -109 -11 -25 -33 -83 -50 -130 -16
-48 -36 -96 -44 -108 -8 -12 -21 -44 -30 -70 -9 -26 -31 -79 -49 -118 -18 -38
-36 -92 -40 -120 -3 -27 -11 -61 -18 -75 -6 -14 -17 -32 -23 -40 -7 -8 -24
-50 -38 -94 -14 -43 -26 -87 -26 -97 0 -11 -12 -38 -27 -62 -15 -23 -38 -71
-50 -107 -13 -36 -28 -80 -32 -98 -5 -18 -14 -39 -21 -47 -6 -8 -20 -31 -31
-52 -10 -20 -19 -45 -19 -54 0 -9 -6 -22 -13 -28 -8 -6 -19 -30 -26 -53 -7
-24 -26 -70 -41 -103 -16 -33 -35 -80 -43 -105 -8 -25 -20 -61 -27 -80 -7 -19
-22 -53 -33 -75 -11 -22 -36 -71 -56 -110 -20 -38 -47 -97 -59 -130 -13 -33
-30 -71 -38 -85 -8 -14 -22 -41 -30 -60 -9 -19 -34 -71 -55 -115 -21 -44 -39
-87 -39 -95 0 -9 -18 -46 -39 -83 -22 -37 -60 -111 -86 -164 -25 -53 -48 -113
-51 -133 -3 -20 -19 -51 -34 -68 -16 -18 -56 -89 -91 -158 -34 -69 -73 -134
-86 -144 -13 -10 -23 -21 -23 -26 0 -4 -7 -16 -17 -26 -9 -10 -21 -27 -27 -37
-6 -11 -33 -57 -60 -103 -28 -46 -64 -112 -82 -148 -17 -36 -39 -72 -48 -79
-9 -7 -16 -19 -16 -27 0 -7 -28 -41 -63 -76 -35 -35 -89 -85 -120 -113 -32
-27 -75 -66 -95 -85 -21 -19 -65 -58 -97 -87 -33 -28 -84 -69 -114 -90 -29
-21 -67 -50 -84 -64 l-30 -25 18 -37 c9 -20 20 -37 24 -38 3 0 15 -2 25 -4 12
-2 44 17 85 52 36 30 100 86 141 125 41 39 120 114 175 168 59 58 120 107 149
121 28 13 53 31 57 39 4 8 38 78 76 155 37 77 86 167 109 200 22 33 56 88 74
123 18 34 36 62 40 62 4 0 26 31 49 69 22 38 41 72 41 76 0 4 15 30 34 58 18
29 39 70 46 92 7 22 28 74 47 115 19 41 46 98 60 125 14 28 31 57 37 65 7 8
22 42 35 75 12 33 34 87 48 120 14 33 43 93 64 134 22 41 39 81 39 88 0 8 11
31 25 51 14 20 25 42 25 48 0 6 24 58 53 116 28 57 61 124 71 149 10 24 27 66
37 94 11 27 19 55 19 63 0 7 11 37 24 65 13 29 38 86 55 127 18 41 38 89 46
105 7 17 16 41 20 55 4 14 24 61 45 105 21 44 43 100 50 125 6 25 18 52 25 60
7 8 27 60 45 115 18 55 38 109 45 120 6 11 18 38 25 60 7 22 16 45 20 50 4 6
15 35 24 65 10 30 40 107 67 171 27 65 49 126 49 137 0 12 5 24 10 27 6 3 10
13 10 22 0 8 7 31 16 51 8 21 21 51 29 67 7 17 18 46 25 65 7 19 28 71 47 115
19 44 41 94 48 110 7 17 16 41 20 55 4 14 14 34 21 45 8 11 14 26 14 34 0 7
18 49 40 92 22 43 40 83 40 88 0 5 23 56 50 114 28 58 50 111 50 118 0 7 9 22
19 33 11 12 29 50 41 86 12 36 37 94 56 128 19 35 34 73 34 84 0 12 12 46 26
77 14 31 39 82 55 114 16 32 29 67 29 77 0 9 7 23 15 30 8 7 15 19 15 26 0 7
10 30 22 51 12 21 32 61 46 88 13 28 32 66 42 85 10 19 33 64 50 100 17 36 38
69 46 73 8 4 14 17 14 27 0 10 5 22 10 25 6 4 25 37 44 73 18 37 36 79 39 94
4 15 18 40 32 56 14 17 25 38 25 48 0 11 11 29 24 42 13 12 27 34 31 49 4 16
23 62 42 103 20 41 44 87 54 101 10 14 29 56 43 93 14 36 50 100 81 140 30 40
62 86 70 102 8 16 29 47 47 68 18 22 54 61 80 87 36 37 48 57 53 92 6 39 4 46
-16 61 -15 10 -44 16 -79 16 -31 0 -61 5 -67 11 -7 7 -38 11 -70 10 -32 -1
-85 3 -118 8 -33 6 -112 18 -175 27 -72 10 -173 16 -270 15 -85 -1 -216 -2
-290 -3 -74 -1 -232 1 -350 5 -118 3 -395 8 -615 11z m-125 -100 c113 -2 288
-6 390 -9 102 -2 280 -7 395 -11 116 -3 278 -4 360 -3 83 2 200 3 260 2 61 -1
144 -6 185 -12 41 -6 92 -13 113 -15 21 -2 41 -7 44 -10 4 -3 4 -8 2 -10 -2
-2 -83 -43 -179 -92 -96 -48 -193 -100 -215 -115 -23 -15 -87 -52 -143 -83
-56 -30 -161 -95 -234 -143 -73 -48 -135 -90 -138 -93 -3 -3 -39 -22 -80 -44
-41 -21 -124 -65 -185 -98 -60 -33 -117 -63 -125 -68 -8 -5 -44 -26 -80 -46
-36 -21 -78 -45 -95 -54 -16 -9 -97 -54 -180 -99 -82 -45 -157 -86 -165 -91
-8 -5 -89 -45 -180 -89 -91 -44 -201 -100 -245 -124 -44 -24 -93 -51 -110 -60
-16 -9 -113 -57 -215 -106 -102 -49 -221 -106 -265 -126 -44 -20 -97 -44 -118
-52 -20 -8 -140 -67 -265 -130 -125 -63 -234 -120 -242 -127 -8 -7 -41 -27
-73 -45 -32 -18 -64 -30 -70 -28 -7 2 -25 -7 -40 -19 -16 -13 -40 -24 -53 -24
-14 0 -35 -6 -47 -12 -12 -7 -49 -19 -82 -26 -33 -7 -91 -17 -130 -22 -38 -5
-86 -14 -105 -19 -23 -7 -111 -9 -250 -5 -118 3 -235 10 -260 15 -25 6 -61 17
-80 26 -19 8 -72 34 -117 56 -45 23 -97 54 -115 70 -18 16 -45 35 -60 43 -15
8 -50 35 -78 61 -28 26 -76 80 -106 119 -30 40 -54 79 -54 87 0 8 -8 25 -18
38 -10 13 -29 62 -41 109 -13 47 -31 110 -41 140 -12 37 -19 93 -21 170 -2 93
2 131 20 200 12 47 49 139 81 205 47 98 74 137 142 213 45 52 95 110 111 130
15 20 42 50 60 65 17 15 46 35 63 43 18 8 49 30 70 48 22 18 50 37 64 41 14 4
56 23 94 41 38 19 106 42 150 53 45 10 88 19 96 19 8 0 65 5 125 12 61 6 117
14 125 17 8 3 78 7 155 10 88 3 149 10 166 18 19 10 99 15 300 19 151 3 339 8
419 11 80 3 316 7 525 10 209 3 425 9 480 14 55 4 192 6 305 5z m1682 -215 c4
1 2 -10 -4 -24 -6 -14 -15 -25 -19 -25 -4 0 -22 -14 -40 -32 -19 -18 -46 -41
-61 -53 -15 -11 -57 -45 -95 -76 -37 -31 -82 -63 -98 -72 -17 -8 -57 -38 -90
-66 -33 -28 -73 -61 -88 -73 -15 -13 -39 -33 -53 -45 -14 -13 -31 -23 -38 -23
-7 0 -29 -12 -49 -27 -20 -16 -63 -47 -95 -70 -33 -24 -65 -43 -71 -43 -6 0
-28 -16 -50 -35 -21 -19 -41 -35 -45 -35 -4 0 -30 -16 -59 -35 -28 -19 -57
-39 -64 -45 -7 -5 -16 -10 -20 -10 -5 0 -16 -9 -26 -20 -9 -11 -23 -20 -30
-20 -8 0 -22 -9 -32 -20 -10 -11 -23 -20 -29 -20 -6 0 -31 -14 -56 -30 -25
-16 -57 -38 -72 -49 -14 -12 -30 -21 -35 -21 -5 0 -40 -20 -77 -45 -38 -25
-71 -45 -74 -45 -3 0 -19 -11 -37 -24 -18 -14 -54 -37 -81 -51 -27 -15 -66
-40 -86 -56 -20 -16 -41 -29 -46 -29 -6 0 -33 -15 -60 -32 -28 -18 -72 -46
-98 -63 -26 -16 -81 -50 -123 -75 -42 -25 -91 -55 -108 -65 -18 -11 -33 -23
-33 -27 0 -5 -8 -8 -19 -8 -10 0 -24 -7 -31 -15 -6 -8 -37 -24 -68 -35 -32
-12 -73 -31 -92 -43 -19 -13 -75 -42 -125 -66 -49 -24 -97 -47 -105 -52 -8 -5
-37 -20 -65 -32 -27 -13 -54 -25 -60 -26 -5 -1 -24 -11 -41 -22 -17 -10 -40
-19 -51 -19 -12 0 -26 -7 -33 -15 -7 -8 -18 -15 -25 -15 -8 0 -26 -10 -42 -23
-15 -12 -46 -29 -68 -36 -22 -8 -60 -29 -84 -48 -24 -18 -48 -33 -53 -33 -5 0
-25 -12 -43 -26 -19 -14 -51 -34 -72 -45 -20 -10 -47 -19 -59 -19 -12 0 -27
-7 -34 -15 -7 -8 -18 -15 -25 -15 -7 0 -33 -9 -59 -20 -25 -12 -50 -29 -55
-39 -6 -10 -31 -24 -56 -31 -25 -7 -57 -22 -71 -32 -13 -11 -41 -22 -62 -25
-33 -4 -38 -2 -49 24 -6 15 -17 53 -23 83 -6 30 -13 73 -16 95 -2 22 -5 49 -7
60 -2 17 9 23 78 40 44 11 86 26 93 32 7 7 24 13 36 13 13 0 36 11 52 25 16
14 32 25 35 25 3 0 19 11 35 25 16 14 34 25 39 25 6 0 33 15 60 33 28 18 79
43 115 56 36 13 76 34 91 47 14 13 34 24 45 24 12 0 29 9 39 20 10 11 22 20
27 20 5 0 68 29 141 64 73 35 148 69 167 77 19 7 53 23 75 36 22 12 77 40 123
62 46 23 87 41 93 41 5 0 17 4 27 9 9 5 37 19 62 31 25 12 74 37 110 57 36 19
67 38 70 43 3 4 55 31 115 60 61 28 119 56 130 61 11 5 27 13 35 18 8 5 63 33
122 63 59 29 130 65 157 79 27 15 62 36 79 47 16 12 80 48 143 80 63 33 139
73 169 91 30 17 96 52 145 76 50 25 124 64 165 86 41 23 102 57 135 77 33 20
92 62 130 93 39 31 80 60 93 64 13 4 54 24 92 46 38 21 72 39 76 39 3 0 23 14
45 30 21 17 93 60 161 94 68 35 126 64 130 65z m-761 -719 c12 0 19 -5 17 -12
-3 -7 -23 -26 -47 -43 -23 -16 -50 -42 -59 -56 -9 -14 -41 -49 -70 -77 -37
-36 -52 -58 -48 -70 4 -12 -6 -24 -36 -42 -22 -14 -62 -53 -88 -88 -27 -34
-63 -79 -82 -100 -18 -20 -46 -45 -61 -55 -15 -9 -27 -23 -27 -30 0 -7 -26
-40 -59 -73 -32 -34 -71 -80 -86 -102 -15 -23 -31 -42 -36 -42 -5 0 -42 -35
-83 -77 -41 -43 -84 -90 -95 -105 -12 -14 -21 -31 -21 -36 0 -6 -4 -12 -10
-14 -5 -1 -51 -41 -102 -88 -51 -47 -113 -106 -138 -132 -25 -26 -65 -70 -90
-98 -25 -28 -64 -70 -87 -94 -24 -24 -43 -46 -43 -50 0 -4 -15 -22 -32 -41
-18 -18 -58 -63 -88 -100 -30 -37 -69 -81 -86 -99 -17 -17 -34 -39 -37 -49 -4
-10 -12 -15 -18 -12 -6 4 -56 -38 -113 -96 -57 -57 -115 -122 -130 -143 -14
-21 -26 -36 -26 -32 0 4 -21 -16 -47 -43 -27 -27 -70 -75 -98 -106 -27 -30
-60 -68 -73 -83 -12 -15 -68 -73 -124 -129 -56 -57 -105 -103 -109 -103 -4 0
-25 -24 -47 -52 -22 -29 -68 -83 -103 -119 -35 -36 -71 -76 -79 -88 -8 -12
-67 -75 -130 -139 -63 -64 -128 -134 -144 -154 -15 -21 -36 -40 -47 -43 -10
-4 -19 -12 -19 -19 0 -7 -26 -42 -58 -77 -32 -35 -69 -80 -82 -99 -14 -19 -54
-66 -89 -105 -35 -38 -77 -88 -93 -110 -15 -22 -36 -51 -46 -63 -9 -13 -28
-35 -41 -48 -13 -13 -28 -24 -32 -24 -5 0 -9 8 -9 17 0 9 -4 30 -9 47 -6 17
-15 72 -21 121 -6 50 -18 119 -25 155 -8 36 -23 119 -35 185 -11 66 -25 152
-31 190 -6 39 -17 111 -26 160 -8 50 -19 115 -23 145 -5 30 -14 129 -20 220
-5 91 -14 181 -19 200 -6 19 -17 59 -26 88 -9 29 -13 57 -10 62 3 5 -2 30 -11
55 -8 26 -13 53 -10 61 3 8 13 14 23 14 10 0 32 9 48 21 17 11 58 33 93 50 34
16 93 41 131 54 38 14 76 25 84 25 9 0 36 11 59 24 24 13 67 29 96 35 29 6 83
28 120 49 37 20 124 65 194 100 70 34 133 62 141 62 8 0 22 9 32 20 10 11 27
20 37 20 10 0 21 7 24 15 4 8 13 15 22 15 8 0 23 6 31 14 9 8 84 49 166 91 83
43 184 95 225 117 41 23 82 47 91 54 8 8 22 14 30 14 8 0 19 4 25 8 5 5 25 15
44 22 19 7 46 21 60 30 14 10 48 25 77 34 28 9 57 24 63 32 7 7 19 14 27 14 8
0 29 7 46 16 18 9 41 22 52 28 11 6 47 25 80 42 33 17 87 48 120 68 33 20 64
36 68 36 4 0 49 26 100 58 51 32 108 64 127 72 19 8 56 30 82 50 27 19 48 41
48 48 0 6 7 12 17 12 9 0 46 16 82 37 36 20 77 45 91 55 14 11 63 44 110 74
46 30 88 54 93 54 4 0 41 22 82 49 41 27 83 52 95 56 11 4 35 20 53 36 17 17
46 37 62 46 17 9 48 30 70 48 22 17 50 37 62 44 12 6 43 29 68 51 25 22 55 40
66 40z"/>
<g>
<path d="M8790 8782 c-14 3 -40 0 -58 -8 -18 -8 -41 -29 -52 -47 -11 -17 -20
-39 -20 -48 0 -8 13 -28 29 -43 20 -19 43 -30 74 -33 24 -3 54 0 66 6 12 7 27
26 34 44 8 18 11 44 8 59 -3 14 -17 35 -31 46 -14 10 -36 21 -50 24z"/>
</g>
<g>
<path d="M7653 8780 c-29 0 -46 -8 -75 -35 -21 -18 -38 -43 -38 -53 0 -11 16
-34 35 -51 25 -22 46 -31 70 -31 19 0 50 8 70 17 26 12 36 25 41 49 3 18 3 41
0 51 -3 10 -19 26 -35 36 -16 9 -46 17 -68 17z"/>
</g>
<g>
<path d="M8160 8700 c-13 7 -23 3 -39 -14 -12 -13 -29 -48 -37 -77 -8 -30 -24
-92 -36 -139 -11 -47 -27 -98 -36 -115 -9 -16 -19 -48 -23 -70 -5 -22 -16 -68
-25 -103 -16 -58 -16 -63 0 -81 12 -13 38 -21 84 -26 37 -4 74 -11 83 -15 10
-6 24 -2 41 13 16 13 29 37 32 59 5 29 3 39 -11 46 -10 6 -39 13 -65 17 -45 7
-46 8 -37 33 6 14 15 62 21 106 6 45 16 92 23 106 7 14 15 45 19 70 4 25 13
54 20 65 7 11 17 35 21 53 4 21 2 38 -6 48 -7 8 -20 19 -29 24z"/>
</g>
<g>
<path d="M8140 7869 c-102 -1 -201 -5 -220 -10 -19 -6 -60 -9 -91 -9 -35 1
-60 -4 -66 -12 -6 -7 -14 -27 -17 -45 -6 -26 -3 -34 16 -47 13 -8 43 -15 68
-15 25 0 200 1 388 3 282 2 346 5 353 17 5 8 9 28 9 45 0 17 -6 36 -13 42 -6
6 -64 15 -127 21 -63 6 -198 10 -300 10z"/>
</g>
</g>
<g>
<path d="M16533 8048 c-68 2 -83 0 -105 -18 -15 -11 -35 -35 -46 -53 -11 -17
-23 -47 -27 -64 -5 -24 -1 -45 16 -79 13 -25 35 -52 49 -59 14 -7 45 -15 70
-19 33 -5 55 -2 77 9 18 9 42 33 55 53 13 20 28 52 34 70 8 20 9 46 4 69 -5
20 -17 48 -28 62 -17 24 -26 26 -99 29z"/>
</g>
<g>
<path d="M13135 7409 c-17 -1 -45 -5 -63 -9 -18 -4 -34 -9 -36 -11 -1 -2 -12
-25 -24 -50 -12 -25 -22 -55 -22 -66 0 -11 7 -26 15 -33 8 -7 15 -18 15 -25 0
-7 23 -25 52 -39 32 -16 69 -26 96 -26 38 0 50 5 85 40 38 39 40 42 34 90 -3
28 -14 61 -24 74 -10 14 -36 32 -58 40 -23 9 -54 16 -70 15z"/>
</g>
<g>
<path d="M15243 7190 c-17 0 -36 -9 -47 -21 -16 -20 -17 -28 -6 -82 6 -33 15
-67 19 -76 4 -9 17 -35 29 -58 12 -23 22 -48 22 -56 0 -7 14 -41 30 -75 17
-34 30 -67 30 -73 0 -6 15 -43 34 -82 18 -40 39 -88 46 -107 6 -19 17 -48 22
-65 6 -16 15 -38 19 -47 5 -10 9 -23 9 -29 0 -7 18 -56 40 -111 22 -55 41
-114 44 -131 2 -18 11 -54 20 -82 9 -27 23 -62 31 -76 8 -14 19 -48 25 -75 6
-27 17 -55 24 -64 7 -8 16 -26 19 -40 3 -14 16 -54 28 -90 11 -36 26 -76 31
-90 6 -14 17 -37 24 -52 8 -14 14 -35 14 -46 0 -11 -16 -33 -37 -48 -20 -16
-61 -44 -92 -61 -31 -18 -83 -46 -117 -63 -34 -16 -67 -30 -75 -30 -8 0 -22
-6 -31 -14 -10 -7 -21 -24 -27 -37 -6 -17 -5 -32 2 -45 5 -10 15 -22 21 -26 6
-4 23 -8 38 -8 15 0 30 5 33 10 3 6 70 42 148 81 78 39 161 83 184 98 33 20
42 32 43 54 0 20 6 30 20 34 11 3 20 13 20 22 0 9 -9 40 -20 69 -11 29 -20 60
-20 70 0 10 -13 44 -30 75 -16 32 -30 66 -30 75 0 10 -8 40 -19 67 -10 28 -29
73 -41 100 -12 28 -34 60 -49 72 -14 12 -20 22 -13 23 6 0 12 12 12 28 0 15
-9 52 -21 82 -11 30 -25 59 -30 65 -5 5 -9 24 -9 41 0 18 -4 35 -9 39 -5 3
-15 31 -22 63 -7 31 -23 79 -36 105 -12 27 -23 55 -23 63 0 8 -22 58 -50 111
-27 53 -50 105 -50 115 0 10 -14 53 -31 96 -17 42 -39 96 -50 120 -10 23 -19
47 -19 53 0 5 -8 29 -19 52 -10 23 -21 50 -24 60 -4 11 -17 17 -34 17z"/>
</g>
<g>
<path d="M16262 4389 c-9 -1 -30 -4 -47 -6 -16 -3 -34 -8 -40 -13 -5 -4 -57
-22 -115 -40 -58 -18 -130 -41 -160 -51 -30 -10 -111 -30 -178 -44 -68 -13
-127 -27 -130 -29 -4 -2 -30 -6 -59 -10 -28 -3 -62 -10 -75 -15 -13 -4 -48
-11 -78 -15 -30 -4 -73 -12 -95 -18 -22 -5 -49 -14 -60 -18 -11 -4 -42 -14
-70 -23 -27 -9 -72 -19 -100 -22 -27 -3 -97 -17 -155 -30 -58 -13 -136 -28
-175 -34 -38 -6 -92 -15 -120 -21 -27 -6 -59 -13 -70 -14 -11 -2 -27 -6 -35
-9 -8 -3 -51 -13 -95 -23 -44 -9 -100 -25 -125 -34 -25 -10 -74 -22 -110 -29
-36 -6 -111 -27 -168 -46 -57 -19 -112 -35 -122 -35 -10 0 -25 -11 -34 -25 -9
-13 -16 -31 -16 -38 0 -8 9 -26 21 -41 11 -14 27 -26 35 -26 9 0 39 11 67 24
29 13 106 40 172 60 66 21 128 42 137 47 10 5 29 9 44 9 14 0 33 4 43 10 10 5
43 13 72 19 30 5 98 20 152 35 53 14 110 26 127 26 16 0 53 6 82 14 29 8 64
18 78 24 14 5 49 12 79 16 29 4 106 21 170 38 64 17 134 35 156 40 22 5 54 12
70 14 17 3 91 17 165 30 74 14 178 35 230 47 52 11 106 21 120 22 14 0 32 4
40 8 8 3 26 8 40 10 14 2 32 7 40 10 8 3 58 17 110 32 52 14 103 25 112 25 9
0 37 12 62 28 36 22 45 33 46 55 0 16 -5 37 -10 48 -6 10 -18 18 -28 18z"/>
</g>
</g>
</g>
</svg>
