<?xml version="1.0" standalone="no"?>
<!DOCTYPE svg PUBLIC "-//W3C//DTD SVG 20010904//EN"
 "http://www.w3.org/TR/2001/REC-SVG-20010904/DTD/svg10.dtd">
<svg version="1.0" xmlns="http://www.w3.org/2000/svg"
 width="1731.000000pt" height="1717.000000pt" viewBox="0 0 1731.000000 1717.000000"
 preserveAspectRatio="xMidYMid meet">
<metadata>
Created by potrace 1.16, written by Peter Selinger 2001-2019
</metadata>
<g transform="translate(0.000000,1717.000000) scale(0.100000,-0.100000)"
fill="#000000" stroke="none">
<g>
<path d="M5925 16216 c-44 3 -83 3 -86 0 -3 -3 -61 -8 -129 -11 -69 -4 -129
-10 -135 -13 -5 -4 -41 -10 -80 -14 -38 -3 -106 -12 -150 -18 -44 -7 -89 -16
-100 -20 -11 -4 -40 -13 -64 -20 -25 -6 -55 -19 -68 -27 -13 -8 -23 -13 -23
-10 0 3 -17 -1 -37 -9 -21 -8 -51 -21 -68 -29 -16 -7 -59 -28 -95 -45 -36 -17
-91 -49 -122 -71 -32 -21 -87 -67 -123 -100 -36 -34 -65 -68 -65 -75 0 -8 -4
-14 -9 -14 -5 0 -32 -22 -60 -49 -28 -27 -51 -54 -51 -60 0 -5 -18 -28 -41
-51 -22 -22 -44 -40 -49 -40 -4 0 -28 -24 -54 -54 -26 -30 -78 -116 -116 -191
-38 -75 -79 -149 -90 -165 -11 -15 -20 -33 -20 -39 0 -7 -11 -33 -24 -59 -12
-26 -28 -68 -35 -94 -6 -26 -21 -65 -32 -85 -15 -27 -24 -68 -31 -148 -5 -60
-7 -132 -4 -160 3 -27 8 -64 10 -80 2 -17 9 -58 16 -90 7 -33 16 -69 22 -80 5
-12 10 -28 12 -38 1 -9 27 -44 57 -78 29 -34 61 -72 69 -84 8 -12 22 -30 30
-39 8 -10 27 -31 43 -46 15 -16 27 -32 27 -37 0 -6 26 -37 58 -69 31 -33 80
-80 107 -105 28 -24 77 -66 110 -91 33 -26 71 -56 85 -68 14 -12 42 -31 62
-43 20 -12 76 -48 123 -80 47 -32 114 -70 148 -84 34 -14 87 -32 117 -40 30
-8 96 -23 145 -33 50 -9 131 -30 180 -45 50 -15 98 -31 107 -36 9 -4 56 -13
105 -19 48 -6 113 -15 143 -21 30 -6 91 -16 135 -23 80 -13 80 -13 78 -42 -1
-16 -3 -56 -3 -88 -1 -33 4 -62 10 -66 8 -5 8 -20 1 -52 -6 -27 -8 -110 -5
-204 3 -88 5 -165 4 -171 0 -7 -1 -25 -1 -40 0 -16 2 -152 5 -303 3 -151 7
-284 8 -295 3 -19 -2 -20 -146 -17 -82 1 -151 4 -154 7 -2 2 -9 26 -14 52 -5
26 -11 59 -14 73 -2 14 -8 79 -14 145 -5 66 -12 131 -15 145 -3 14 -12 62 -19
108 -7 46 -10 104 -7 130 4 26 4 63 1 82 -3 19 -2 78 1 130 4 72 3 99 -8 111
-7 8 -13 21 -13 27 0 9 -46 12 -162 13 -90 1 -253 3 -363 6 -110 3 -375 5
-590 5 -214 0 -525 -2 -690 -4 -214 -2 -311 0 -338 9 -29 9 -43 9 -57 1 -10
-7 -23 -23 -29 -36 -6 -13 -8 -28 -5 -34 4 -6 6 -110 6 -232 -1 -165 -7 -254
-22 -351 -11 -71 -24 -154 -29 -183 -6 -29 -15 -115 -22 -190 -6 -75 -13 -159
-14 -187 -2 -27 -9 -83 -15 -122 -6 -40 -9 -77 -6 -82 4 -5 2 -21 -4 -35 -5
-14 -5 -28 -1 -31 5 -3 8 -13 6 -23 -2 -9 -7 -46 -11 -82 -4 -36 -7 -72 -5
-80 2 -8 -2 -37 -8 -65 -7 -27 -16 -106 -21 -175 -5 -69 -12 -152 -16 -185 -3
-33 -9 -78 -13 -100 -7 -40 -7 -40 -61 -47 -30 -4 -194 -7 -365 -8 -170 -1
-373 4 -450 10 -77 5 -241 14 -365 19 -210 7 -227 6 -257 -11 -17 -10 -34 -25
-37 -34 -3 -9 -6 -24 -6 -35 0 -11 -4 -27 -9 -37 -5 -9 -16 -34 -25 -54 -8
-21 -13 -44 -10 -52 3 -8 1 -17 -5 -21 -6 -3 -11 -20 -11 -36 0 -16 -9 -42
-19 -57 -11 -15 -22 -45 -26 -67 -4 -22 -12 -46 -18 -53 -5 -7 -11 -40 -13
-73 -1 -33 -7 -65 -12 -72 -5 -7 -17 -37 -26 -67 -9 -30 -23 -84 -31 -120 -7
-36 -23 -96 -35 -135 -12 -38 -29 -97 -37 -130 -9 -33 -22 -73 -28 -90 -7 -16
-15 -63 -19 -104 -3 -40 -15 -94 -25 -120 -11 -25 -22 -73 -25 -105 -2 -32
-10 -64 -15 -69 -6 -6 -11 -22 -11 -37 0 -14 -7 -56 -14 -94 -8 -38 -13 -73
-10 -77 2 -4 0 -29 -6 -56 -5 -26 -12 -79 -15 -118 -4 -38 -8 -178 -11 -310
-2 -132 -6 -263 -8 -291 -2 -27 -7 -86 -11 -129 -4 -44 -7 -136 -7 -205 0 -69
2 -153 4 -188 2 -35 0 -66 -5 -69 -4 -2 -7 -39 -6 -81 1 -43 -4 -124 -10 -181
-8 -68 -9 -107 -2 -114 6 -6 6 -18 1 -31 -5 -11 -15 -95 -21 -186 -6 -91 -13
-221 -15 -290 -2 -69 -6 -154 -10 -190 -3 -36 -5 -74 -5 -85 1 -11 1 -133 0
-270 0 -243 0 -252 22 -278 13 -18 29 -27 42 -25 13 2 21 11 22 26 1 13 7 27
14 31 8 5 9 15 2 32 -5 14 -12 79 -15 145 -3 65 -6 193 -6 284 0 91 3 197 5
235 3 39 7 81 10 95 3 14 8 101 11 195 3 93 7 172 9 175 2 4 6 94 10 201 3
107 10 218 16 247 6 31 10 145 8 270 -2 119 1 354 5 522 4 168 10 312 13 320
3 8 7 44 9 80 3 36 7 79 9 95 3 17 10 73 15 126 6 52 14 109 19 126 5 18 7 34
5 36 -3 2 2 35 11 73 9 38 20 87 25 109 5 22 14 65 21 95 6 30 15 66 20 80 4
14 11 43 14 65 3 22 9 51 14 65 5 14 18 57 29 95 12 39 28 97 38 130 9 33 29
101 44 150 15 50 33 115 40 145 7 30 30 107 51 170 22 63 41 123 44 134 2 10
7 21 10 25 3 3 10 -1 15 -9 5 -8 9 -31 9 -50 0 -19 4 -71 8 -115 4 -44 8 -114
7 -155 0 -41 -4 -151 -8 -245 -4 -93 -9 -208 -12 -255 -2 -47 -5 -102 -5 -122
0 -21 -3 -38 -7 -38 -4 0 -8 -15 -8 -32 -1 -18 -4 -109 -8 -203 -3 -93 -11
-195 -17 -225 -6 -30 -15 -62 -20 -71 -4 -9 -11 -56 -14 -105 -4 -49 -13 -145
-20 -214 -13 -107 -13 -127 0 -146 8 -12 29 -24 52 -28 21 -4 65 -11 98 -17
33 -5 112 -14 175 -20 63 -5 162 -14 220 -19 58 -4 180 -15 271 -24 92 -9 191
-21 220 -27 30 -6 128 -13 219 -15 91 -2 175 -6 186 -9 20 -5 22 -12 27 -172
4 -93 7 -204 7 -248 0 -44 0 -111 0 -150 0 -38 7 -102 15 -141 8 -40 23 -86
32 -103 l18 -30 105 5 c58 3 188 12 290 20 102 8 269 15 371 14 183 -1 185 0
196 22 6 13 16 97 23 188 6 91 9 271 7 400 -3 173 -9 246 -19 275 l-15 40 -99
7 c-54 4 -124 3 -154 -2 -30 -4 -73 -5 -95 -1 -22 3 -71 2 -110 -3 -38 -6
-137 -8 -220 -7 -82 2 -181 4 -220 5 l-70 1 -2 30 c-1 17 -2 120 -2 230 1 110
1 209 1 220 0 11 -1 72 -1 135 1 63 4 212 9 330 4 118 17 325 29 459 11 133
18 247 15 252 -3 5 0 62 6 127 6 64 16 144 22 177 6 33 12 71 14 85 1 14 6 52
9 85 l7 60 201 3 c110 2 205 6 209 8 5 3 26 3 48 -1 l40 -7 -5 -76 c-2 -43 -5
-129 -6 -192 -1 -63 2 -167 6 -230 4 -63 7 -176 7 -250 0 -74 -2 -175 -6 -224
-3 -49 -1 -96 4 -106 6 -10 5 -21 -1 -27 -5 -5 -11 -25 -13 -44 -2 -19 -8 -63
-15 -99 -6 -36 -15 -80 -20 -98 -6 -18 -8 -39 -5 -47 3 -7 -1 -26 -9 -42 -9
-18 -12 -36 -6 -50 4 -12 16 -24 26 -27 10 -3 74 -3 143 0 69 2 140 6 158 8
18 1 57 -1 85 -5 29 -5 142 -10 252 -12 123 -2 208 -8 220 -15 11 -6 62 -16
114 -21 51 -6 100 -16 108 -23 8 -7 20 -24 25 -38 6 -14 12 -63 15 -110 3 -47
5 -92 4 -100 0 -8 -3 -46 -6 -85 -3 -38 -7 -162 -8 -275 -3 -154 0 -216 11
-250 7 -25 15 -101 16 -175 2 -71 9 -166 16 -211 10 -62 10 -89 2 -114 -8 -21
-9 -37 -2 -44 5 -7 8 -94 5 -214 -2 -112 -8 -208 -13 -215 -6 -7 -8 -28 -6
-47 2 -19 5 -95 7 -168 1 -74 -1 -136 -6 -139 -5 -3 -6 -97 -3 -209 3 -113 10
-213 15 -223 6 -10 8 -20 6 -23 -3 -2 2 -74 11 -159 8 -85 15 -160 14 -166 0
-7 0 -19 0 -25 0 -7 2 -101 4 -208 2 -107 8 -226 14 -265 5 -38 7 -117 5 -174
-3 -78 -1 -111 11 -135 8 -17 20 -83 26 -146 6 -63 13 -131 14 -150 2 -19 7
-66 10 -105 3 -38 8 -119 11 -180 3 -60 10 -146 16 -190 5 -44 12 -91 14 -105
2 -14 8 -48 13 -76 5 -28 9 -130 11 -225 1 -96 7 -218 15 -273 8 -61 10 -117
5 -149 -5 -28 -5 -80 0 -116 5 -36 9 -95 9 -131 1 -36 5 -198 10 -360 6 -162
11 -304 12 -315 1 -11 1 -58 1 -105 0 -47 0 -119 1 -160 1 -41 2 -163 1 -270
0 -107 -1 -215 -2 -240 0 -25 0 -63 2 -85 2 -22 7 -62 11 -90 4 -27 8 -109 9
-180 1 -72 -2 -136 -7 -143 -4 -7 -5 -25 -2 -38 4 -14 9 -69 11 -122 3 -54 6
-134 8 -179 1 -49 7 -87 15 -95 6 -6 69 -22 139 -34 71 -13 166 -35 212 -49
46 -14 92 -25 102 -25 11 0 19 -4 19 -10 0 -5 17 -18 38 -28 20 -11 73 -25
117 -32 44 -8 104 -14 134 -14 52 -1 55 0 62 28 5 19 4 39 -4 55 -9 20 -21 27
-47 29 -19 1 -71 10 -115 18 -44 9 -96 23 -115 31 -19 9 -57 25 -85 38 -27 12
-81 31 -120 43 -38 11 -104 25 -146 31 -42 6 -88 16 -103 22 -22 10 -26 19
-27 53 0 23 -2 64 -4 91 -2 28 -7 138 -11 245 -3 107 -7 278 -9 380 -2 102 -3
264 -3 360 1 96 1 236 0 310 -1 74 -3 230 -6 345 -2 116 -9 275 -15 355 -6 80
-14 226 -17 325 -3 99 -7 203 -9 230 -2 28 -4 124 -4 214 0 110 3 169 11 178
6 8 25 21 42 30 16 8 37 23 45 33 9 9 32 23 51 30 19 8 67 34 107 59 39 25 99
64 133 86 34 22 74 48 89 57 14 10 33 21 41 25 8 4 29 20 45 35 17 15 38 28
48 28 9 0 17 5 17 10 0 6 6 10 14 10 7 0 25 9 39 20 14 11 32 17 41 14 10 -4
16 -1 16 7 0 8 26 31 58 51 31 20 68 42 82 47 14 6 57 33 95 61 39 27 99 64
135 82 36 17 73 39 83 50 10 10 26 18 36 18 10 0 24 7 31 15 7 8 19 15 27 15
8 0 57 28 109 62 52 34 94 65 94 70 0 4 11 8 24 8 13 0 40 12 61 26 21 14 48
30 59 35 12 5 37 21 56 34 19 14 40 29 46 34 6 5 24 16 40 24 16 8 38 25 49
37 11 13 36 29 55 38 19 8 37 15 39 16 2 0 19 16 38 34 19 17 42 32 51 32 9 0
37 18 61 40 25 22 50 40 56 40 7 0 23 11 37 24 14 12 32 26 39 29 8 4 57 38
109 77 52 38 106 75 120 82 14 7 48 31 75 53 28 23 77 60 110 82 34 23 67 48
74 57 7 9 18 16 23 16 5 0 32 19 59 41 42 36 51 40 65 28 14 -12 15 -30 10
-149 -4 -74 -7 -146 -7 -160 -1 -14 1 -95 4 -180 3 -85 8 -175 12 -200 4 -25
8 -77 8 -117 1 -39 5 -74 9 -78 4 -4 1 -16 -5 -26 -10 -16 -9 -21 2 -29 11 -6
12 -12 3 -23 -8 -9 -9 -24 -3 -44 5 -17 7 -79 5 -136 -3 -59 0 -108 5 -111 5
-4 5 -22 0 -47 -5 -22 -7 -44 -4 -49 3 -5 8 -62 11 -127 2 -65 7 -224 9 -353
3 -129 4 -267 4 -307 0 -39 -4 -96 -8 -125 -5 -31 -5 -63 1 -77 5 -13 6 -32 2
-40 -4 -9 -9 -106 -11 -216 -2 -110 -4 -207 -4 -215 1 -8 1 -33 1 -54 -1 -22
-5 -47 -10 -57 -6 -9 -7 -31 -4 -48 4 -16 2 -44 -4 -60 -7 -21 -8 -50 -2 -87
6 -34 5 -65 -1 -81 -7 -18 -6 -34 3 -54 11 -24 19 -29 49 -29 19 0 71 -9 115
-21 43 -11 102 -23 129 -26 28 -3 79 -13 115 -23 36 -10 85 -25 110 -33 25 -8
74 -24 110 -35 59 -18 67 -19 83 -4 16 15 16 16 -4 38 -12 12 -19 32 -17 45 2
18 -3 24 -29 31 -18 5 -35 13 -38 18 -3 6 -23 10 -44 10 -21 0 -69 13 -107 28
-38 16 -109 35 -159 42 -49 8 -92 15 -95 15 -3 1 -18 7 -33 13 -16 7 -38 12
-50 12 -12 0 -28 4 -34 8 -10 6 -13 58 -14 198 0 104 2 232 5 284 3 52 8 154
11 225 2 72 7 284 9 473 3 188 1 445 -3 570 -5 135 -13 237 -20 250 -7 12 -7
23 -2 27 5 3 10 60 10 128 0 67 -6 214 -14 326 -9 112 -16 290 -16 395 0 105
-5 232 -10 281 -5 50 -12 207 -15 350 -2 143 -8 312 -13 375 -4 63 -7 158 -6
210 2 52 3 110 4 128 1 32 2 33 44 31 24 -2 48 1 54 4 7 4 15 3 18 -3 4 -6 37
-11 73 -11 37 0 204 -1 372 -4 168 -2 373 -5 455 -7 138 -3 150 -2 149 15 -1
9 2 17 6 17 5 0 6 60 3 133 -3 72 -8 150 -12 172 -4 22 -8 137 -10 255 -1 118
-6 251 -11 295 -5 44 -9 114 -9 155 0 41 -3 161 -6 267 -3 105 -9 203 -15 218
-5 14 -10 114 -10 223 -1 108 -3 296 -5 417 -1 121 -4 227 -5 235 -1 8 1 80 5
160 4 80 8 217 10 305 1 88 6 201 10 252 l8 92 116 -7 c64 -4 153 -7 198 -6
l82 1 1 -156 c0 -86 1 -163 1 -171 0 -8 -4 -73 -10 -145 -6 -71 -14 -146 -18
-165 -4 -19 -8 -44 -9 -55 -2 -11 1 -43 6 -72 5 -31 6 -64 0 -80 -5 -15 -14
-104 -20 -198 -7 -93 -13 -195 -15 -225 -2 -34 3 -66 12 -83 9 -17 21 -27 31
-25 9 2 18 12 21 23 2 11 10 24 18 30 8 6 21 35 29 65 12 48 12 54 -4 66 -14
10 -16 25 -14 76 1 35 4 92 6 128 2 36 6 97 9 135 3 39 9 151 12 250 3 99 8
218 11 265 3 47 7 126 9 175 2 50 4 104 4 120 l1 31 213 -1 212 0 0 -130 c0
-72 -3 -222 -8 -335 -4 -113 -7 -261 -8 -330 0 -69 0 -171 0 -227 1 -88 4
-106 20 -122 17 -17 25 -18 53 -10 18 5 92 16 163 25 72 8 193 19 270 24 77 5
212 14 300 20 88 7 213 18 278 24 65 7 120 9 122 6 3 -4 7 -61 10 -126 4 -66
8 -175 10 -244 2 -69 6 -156 9 -195 4 -38 9 -90 13 -115 3 -25 8 -56 10 -70 3
-14 6 -178 8 -365 2 -187 6 -473 9 -635 3 -162 8 -322 11 -355 3 -33 6 -64 6
-70 0 -5 0 -44 0 -85 -1 -41 1 -102 4 -135 2 -33 7 -70 10 -83 3 -12 10 -69
15 -125 6 -56 13 -136 17 -177 3 -41 6 -131 5 -199 0 -78 4 -132 11 -145 6
-12 10 -25 9 -30 -2 -5 1 -12 7 -15 5 -3 14 -58 21 -121 6 -63 15 -133 19
-155 5 -22 10 -71 10 -109 1 -37 6 -75 11 -85 5 -9 14 -65 20 -126 6 -60 14
-180 17 -265 4 -109 10 -162 20 -177 8 -12 12 -26 10 -30 -3 -5 -1 -67 4 -138
5 -72 13 -166 19 -210 5 -44 12 -120 15 -170 3 -49 8 -108 11 -129 2 -22 7
-43 11 -49 3 -5 5 -48 4 -96 -1 -47 5 -167 14 -266 8 -99 23 -250 31 -335 8
-85 20 -187 25 -225 5 -39 9 -84 8 -100 0 -17 2 -86 6 -155 3 -69 10 -159 15
-200 5 -41 12 -86 15 -100 6 -23 2 -27 -42 -44 -26 -10 -70 -27 -98 -37 -27
-11 -57 -19 -66 -19 -9 0 -22 -7 -29 -15 -7 -8 -22 -15 -33 -15 -11 0 -62 -20
-113 -46 -50 -25 -100 -54 -109 -65 -10 -10 -23 -19 -29 -19 -6 0 -33 -11 -61
-25 -27 -13 -55 -25 -60 -25 -6 0 -19 -10 -30 -23 -11 -12 -20 -26 -20 -32 -1
-5 5 -20 13 -32 9 -15 24 -23 41 -23 15 0 57 16 95 36 37 19 85 46 105 58 20
13 70 40 110 60 40 20 101 43 135 52 33 8 70 21 82 29 11 7 51 23 88 34 38 12
78 21 91 21 19 0 23 7 28 42 3 26 1 48 -6 56 -6 8 -12 48 -14 88 -1 41 -6 80
-10 87 -4 7 -11 77 -15 157 -4 80 -9 170 -12 200 -2 30 -6 78 -9 105 -2 28 -9
100 -16 160 -6 61 -17 178 -25 260 -8 83 -15 196 -16 252 0 56 -6 125 -11 155
-6 29 -14 118 -19 198 -4 80 -13 195 -19 255 -7 61 -14 124 -17 140 -3 17 -10
59 -14 95 -5 36 -13 99 -19 140 -6 41 -11 120 -11 176 0 55 -4 125 -10 155 -5
30 -17 104 -26 164 -9 61 -16 124 -15 140 0 17 -3 44 -9 60 -5 17 -12 71 -15
120 -3 50 -8 108 -10 130 -3 22 -8 51 -12 65 -4 14 -8 45 -9 70 -2 25 -5 78
-8 118 -3 40 -10 89 -15 110 -6 20 -13 84 -16 142 -3 58 -8 123 -11 144 -4 21
-7 87 -9 146 -1 59 -6 114 -10 121 -5 7 -10 137 -12 288 -2 152 -3 292 -3 311
0 19 0 64 1 100 0 36 -1 203 -2 372 -2 169 0 310 4 314 3 4 28 1 54 -5 26 -7
64 -16 83 -22 19 -5 83 -20 142 -34 59 -14 121 -25 137 -25 16 0 40 -4 53 -9
13 -5 59 -12 103 -15 44 -4 136 -16 204 -27 68 -11 136 -25 150 -31 14 -5 26
-9 26 -7 0 1 27 -4 60 -11 33 -6 68 -16 78 -21 10 -6 53 -14 95 -19 42 -5 91
-14 107 -19 17 -6 74 -15 127 -20 54 -5 140 -19 190 -31 51 -12 136 -33 188
-46 52 -14 151 -37 220 -50 69 -14 144 -30 168 -36 l42 -11 -1 -76 c0 -42 -7
-104 -14 -137 -6 -34 -13 -102 -14 -150 -1 -49 -6 -124 -12 -167 -6 -44 -14
-90 -19 -103 -6 -16 -5 -34 6 -59 11 -26 12 -41 4 -55 -6 -12 -8 -45 -4 -82 3
-36 1 -83 -5 -108 -6 -25 -14 -106 -18 -180 -3 -74 -6 -256 -5 -405 0 -148 3
-387 7 -530 3 -143 6 -267 5 -275 0 -8 -2 -66 -5 -127 -4 -70 -2 -120 5 -132
6 -13 7 -22 0 -26 -6 -4 -8 -96 -5 -258 3 -139 5 -283 4 -321 0 -39 -3 -76 -7
-83 -4 -7 -4 -59 1 -115 4 -57 8 -132 7 -167 0 -34 4 -69 10 -75 7 -9 7 -38 0
-90 -6 -50 -6 -84 0 -96 5 -9 9 -39 9 -66 0 -27 2 -80 5 -119 3 -38 8 -112 10
-162 3 -51 7 -97 11 -103 3 -5 9 -58 11 -117 3 -60 12 -128 19 -153 8 -26 14
-87 14 -144 -1 -58 3 -101 10 -105 6 -4 12 -103 16 -266 3 -143 10 -275 16
-293 6 -18 9 -42 6 -53 -3 -11 -2 -48 3 -82 5 -34 14 -118 20 -187 6 -69 13
-147 15 -175 3 -27 5 -72 6 -100 1 -27 6 -55 11 -61 5 -7 8 -56 7 -110 -1 -55
-1 -135 0 -179 1 -44 6 -84 12 -90 5 -5 9 -20 9 -33 0 -16 -23 -45 -72 -93
-40 -39 -89 -81 -109 -94 -20 -13 -42 -29 -50 -37 -8 -8 -31 -24 -51 -36 -21
-13 -51 -41 -68 -63 -18 -21 -37 -39 -43 -39 -6 0 -23 -11 -37 -25 -14 -13
-47 -45 -74 -70 -28 -25 -58 -47 -68 -51 -10 -3 -18 -10 -18 -15 0 -5 -6 -9
-12 -9 -7 0 -23 -11 -35 -23 l-21 -23 20 -33 c18 -28 24 -31 52 -25 17 4 41
16 52 28 12 11 41 35 65 52 24 17 52 34 62 37 9 4 22 18 29 32 6 14 15 25 20
25 4 0 8 6 8 13 0 6 15 22 33 34 17 13 49 39 69 58 21 20 57 50 80 68 24 18
54 40 69 49 14 9 60 50 104 92 43 41 83 77 88 79 7 2 6 29 -2 78 -7 40 -15 98
-18 127 -2 30 0 83 6 118 8 51 7 74 -5 106 -8 22 -14 60 -14 85 0 24 -4 52 -9
61 -5 9 -11 51 -14 92 -3 41 -15 161 -26 265 -13 121 -21 259 -21 380 0 137
-4 201 -14 230 -10 28 -13 63 -9 118 3 43 1 101 -5 130 -6 29 -16 131 -23 227
-6 96 -15 195 -20 220 -6 25 -14 95 -19 155 -5 61 -14 171 -19 245 -6 74 -14
212 -17 305 -4 94 -7 359 -6 590 1 231 0 605 0 830 -1 226 -2 520 -1 655 0
135 5 340 12 455 6 116 16 278 22 360 6 83 12 206 15 275 2 69 8 154 14 190 5
36 13 103 17 150 5 47 5 121 1 165 -3 44 -6 190 -5 325 1 135 1 331 1 435 1
105 -3 249 -7 320 -5 72 -10 216 -12 320 -2 105 -6 289 -9 410 -4 121 -9 230
-12 242 -2 13 -7 69 -10 125 -3 57 -10 126 -15 153 -5 28 -12 82 -14 120 -3
39 -7 99 -11 135 -3 36 -7 178 -9 315 -2 138 -9 284 -15 325 -7 41 -14 93 -16
114 -2 22 -9 57 -15 78 -5 21 -7 53 -4 72 4 20 2 36 -4 40 -6 4 -11 28 -11 52
0 32 4 44 13 42 6 -3 14 -15 15 -28 2 -13 14 -38 27 -54 13 -17 28 -58 35 -91
6 -33 23 -77 37 -97 15 -23 23 -44 19 -54 -4 -9 1 -38 11 -63 9 -25 23 -50 30
-54 7 -4 13 -19 13 -32 0 -13 19 -79 41 -147 23 -68 43 -136 46 -153 2 -16 11
-40 19 -52 8 -12 14 -28 14 -35 0 -7 7 -26 15 -42 8 -15 12 -33 9 -38 -4 -5
-2 -20 3 -31 6 -12 15 -38 22 -58 6 -19 11 -45 11 -56 0 -11 7 -45 16 -74 9
-30 20 -63 24 -74 5 -11 14 -47 20 -80 7 -33 16 -78 20 -100 5 -22 16 -74 24
-115 9 -41 20 -82 25 -90 5 -9 12 -40 15 -70 4 -30 12 -71 18 -90 5 -19 16
-48 23 -65 7 -16 20 -66 28 -110 9 -44 21 -114 27 -155 7 -41 19 -100 26 -131
8 -31 14 -71 14 -88 0 -17 3 -31 8 -31 4 0 8 -10 8 -22 1 -13 4 -41 7 -63 3
-23 10 -52 15 -65 5 -14 7 -39 5 -56 -3 -17 6 -62 21 -106 14 -44 27 -108 29
-151 3 -41 8 -81 12 -87 4 -7 10 -31 13 -54 2 -23 9 -47 15 -54 6 -8 10 -31 9
-51 -2 -21 2 -51 9 -67 6 -16 13 -38 15 -49 2 -11 9 -45 14 -75 6 -30 16 -91
21 -135 6 -44 12 -96 14 -115 2 -19 6 -68 9 -109 3 -40 8 -76 11 -79 3 -3 5
-14 5 -24 0 -14 8 -18 34 -18 19 0 42 8 51 17 13 13 15 26 10 57 -4 23 -9 50
-11 61 -1 11 -10 63 -19 115 -8 52 -21 111 -27 130 -7 19 -12 40 -13 45 -1 6
-5 24 -9 40 -4 17 -10 37 -13 45 -3 8 -5 31 -4 50 1 19 -5 69 -14 110 -9 41
-18 86 -20 100 -2 14 -13 61 -24 105 -11 44 -34 152 -51 240 -18 88 -36 185
-41 215 -5 30 -10 62 -10 70 -1 8 -10 56 -21 105 -11 50 -25 108 -30 130 -5
22 -13 72 -18 110 -5 39 -14 95 -20 125 -6 30 -17 64 -24 75 -7 11 -13 36 -14
55 -2 19 -7 49 -11 65 -5 17 -14 46 -19 65 -5 19 -18 76 -27 125 -9 50 -21 99
-25 110 -5 11 -14 54 -21 95 -6 41 -25 127 -41 190 -16 63 -37 142 -47 175
-11 33 -29 94 -41 135 -12 41 -24 89 -26 105 -3 17 -9 39 -14 50 -5 11 -32 90
-61 175 -28 85 -60 171 -69 190 -10 19 -23 62 -30 95 -8 33 -19 72 -27 87 -7
15 -13 35 -13 45 0 10 -7 29 -14 43 -8 14 -41 79 -74 146 -48 96 -66 123 -89
132 -15 6 -59 17 -98 23 -38 6 -83 13 -100 15 -16 3 -66 12 -110 20 -44 8 -89
14 -100 12 -11 -1 -36 1 -55 5 -19 3 -86 13 -149 22 -62 9 -116 14 -118 11 -3
-3 -17 0 -32 6 -14 6 -91 14 -171 18 -83 4 -156 12 -171 19 -17 8 -33 31 -47
64 -11 29 -26 79 -33 112 -7 33 -16 65 -19 70 -4 6 -11 26 -14 45 -4 19 -16
69 -27 110 -10 41 -26 138 -34 215 -9 77 -18 158 -21 179 -5 31 -3 42 12 53
10 7 28 13 40 13 12 0 73 21 135 47 63 25 121 52 129 58 8 7 49 29 90 48 41
20 102 54 136 74 34 21 76 48 95 60 19 12 84 52 144 90 78 48 134 92 192 153
46 47 97 110 114 140 17 30 38 62 46 71 7 9 30 43 50 75 20 33 51 88 69 124
17 36 46 94 63 130 17 36 33 74 36 85 2 11 11 38 19 60 8 22 20 77 26 121 8
52 10 148 7 260 -3 99 -10 214 -15 256 -7 50 -21 97 -41 135 -17 32 -37 78
-46 103 -9 24 -27 63 -40 86 -14 24 -25 47 -25 52 0 5 -11 34 -26 63 -14 30
-36 72 -49 94 -14 22 -32 55 -41 73 -9 18 -32 47 -50 65 -19 17 -34 38 -34 47
0 8 -27 46 -61 83 -33 37 -64 67 -69 67 -4 0 -25 16 -46 36 -22 20 -70 56
-109 81 -38 25 -79 54 -91 64 -11 11 -45 27 -75 38 -30 10 -53 24 -51 30 1 6
-6 11 -17 11 -10 0 -54 9 -97 21 -44 11 -98 24 -120 29 -23 5 -77 12 -120 15
-44 4 -137 6 -208 6 -71 0 -152 -5 -180 -10 -28 -6 -67 -12 -86 -15 -19 -3
-60 -8 -90 -11 -30 -3 -82 -13 -115 -22 -33 -9 -78 -24 -100 -34 -22 -10 -70
-28 -107 -40 -40 -13 -81 -35 -103 -54 -20 -19 -53 -43 -73 -54 -20 -11 -70
-37 -111 -58 -41 -21 -97 -59 -125 -84 -28 -25 -66 -54 -83 -63 -18 -9 -33
-20 -33 -25 0 -5 -19 -21 -42 -36 -24 -16 -67 -52 -95 -81 -29 -30 -53 -58
-53 -64 0 -5 -7 -10 -15 -10 -8 0 -15 -4 -15 -9 0 -5 -30 -42 -67 -81 -38 -40
-84 -100 -103 -134 -19 -33 -46 -86 -59 -116 -13 -30 -29 -66 -36 -80 -7 -14
-11 -30 -8 -36 2 -6 -3 -17 -12 -24 -10 -8 -15 -30 -15 -66 0 -29 -5 -65 -10
-80 -6 -14 -19 -68 -30 -118 -11 -50 -19 -102 -19 -116 0 -14 8 -59 16 -100 8
-41 19 -83 24 -93 5 -10 7 -22 4 -27 -3 -4 2 -41 10 -82 9 -40 32 -109 52
-153 20 -44 42 -87 49 -95 6 -8 14 -26 17 -40 4 -14 28 -60 55 -102 27 -43 89
-121 138 -174 49 -53 124 -122 166 -154 43 -32 83 -63 90 -69 7 -5 32 -26 54
-45 23 -20 44 -36 48 -36 3 0 15 -8 27 -17 12 -10 36 -30 54 -45 18 -16 37
-28 42 -28 5 0 24 -11 43 -25 19 -14 44 -25 56 -25 13 0 25 -4 28 -9 3 -5 29
-16 58 -26 29 -9 75 -28 101 -41 27 -13 56 -24 66 -24 9 0 25 -6 36 -13 11 -7
40 -19 65 -27 25 -7 50 -18 57 -23 7 -5 73 -17 146 -27 74 -11 150 -26 169
-36 34 -16 35 -17 51 -123 10 -58 19 -137 21 -176 2 -38 9 -106 16 -150 7 -44
18 -93 25 -110 7 -16 16 -41 20 -55 4 -14 12 -30 17 -37 5 -7 7 -17 3 -22 -3
-6 3 -41 15 -77 11 -37 18 -69 16 -71 -2 -3 -33 1 -68 8 -34 6 -68 16 -74 20
-5 5 -30 11 -54 14 -25 3 -58 9 -75 14 -16 5 -64 14 -105 19 -41 6 -147 11
-235 11 -88 1 -200 4 -250 6 -49 3 -128 10 -175 16 -47 6 -139 19 -205 29 -66
10 -145 22 -175 25 -30 4 -136 13 -235 21 -99 8 -209 19 -245 24 -36 5 -105
15 -155 22 -49 7 -94 16 -100 19 -5 4 -41 9 -80 10 -67 4 -70 3 -83 -23 -7
-16 -17 -28 -21 -28 -5 0 -8 -19 -8 -42 0 -24 -2 -72 -6 -106 -3 -35 -12 -70
-18 -78 -7 -8 -9 -17 -6 -20 3 -3 -6 -31 -21 -62 -18 -41 -26 -76 -27 -122 -1
-36 -6 -74 -12 -85 -6 -11 -13 -36 -17 -55 -3 -19 -11 -55 -16 -80 -6 -25 -15
-63 -20 -85 -5 -22 -14 -69 -20 -105 -6 -36 -17 -82 -23 -103 l-12 -37 -228
-5 c-125 -2 -231 -6 -236 -9 -4 -3 -84 -9 -177 -13 -93 -4 -212 -8 -264 -8
-52 0 -151 4 -220 8 -69 5 -135 10 -146 12 -18 4 -22 14 -28 63 -4 32 -20 123
-36 203 -17 79 -37 176 -46 214 -9 39 -25 108 -36 155 -11 47 -23 101 -28 120
-5 19 -14 58 -20 85 -7 28 -19 68 -27 90 -8 22 -19 85 -24 140 -8 85 -13 104
-33 124 l-24 24 -29 -20 c-15 -11 -84 -45 -153 -75 -69 -30 -188 -81 -265
-113 -77 -31 -167 -69 -200 -84 -33 -15 -92 -40 -132 -55 -40 -15 -96 -41
-125 -57 -29 -16 -60 -33 -68 -38 -8 -5 -40 -20 -70 -33 -30 -14 -84 -37 -120
-51 -36 -14 -72 -28 -80 -31 -8 -4 -33 -17 -55 -31 -22 -13 -50 -29 -63 -34
-12 -6 -96 -13 -185 -16 -89 -4 -178 -8 -197 -10 -19 -3 -84 -5 -143 -6 -59
-1 -110 0 -112 3 -3 3 -10 60 -15 129 -6 68 -13 348 -16 623 -2 274 -7 502
-10 508 -3 5 22 9 63 8 37 0 111 4 163 10 72 8 122 22 210 57 63 25 122 46
130 46 8 0 20 3 25 7 6 4 48 17 95 29 47 13 100 29 118 37 18 8 39 14 46 14 8
0 31 9 53 19 21 11 63 31 93 45 30 14 69 28 85 32 17 3 58 22 93 41 34 18 77
42 95 52 18 10 48 28 67 39 19 12 43 22 53 22 10 0 50 16 90 36 40 20 90 45
112 57 22 11 64 36 93 56 29 20 62 41 73 47 12 7 35 25 52 41 18 16 43 37 57
46 14 9 62 42 108 72 45 30 127 99 180 153 54 53 135 138 180 187 44 50 113
132 152 183 38 52 70 98 70 103 0 5 11 19 24 30 14 12 30 35 37 53 7 17 18 38
25 46 7 8 26 49 42 90 18 46 34 112 41 172 8 60 10 146 6 228 -4 72 -9 141
-11 153 -2 12 -8 49 -14 82 -6 32 -15 64 -20 70 -6 7 -7 15 -3 18 3 4 2 17 -4
30 -5 12 -22 47 -36 77 -15 30 -33 64 -39 75 -7 11 -27 43 -45 72 -18 28 -71
86 -118 127 -47 42 -90 76 -96 76 -6 0 -33 11 -60 25 -27 13 -49 22 -49 20 0
-2 -16 7 -36 20 -20 14 -53 29 -73 35 -20 5 -44 10 -54 10 -10 0 -42 7 -70 17
-29 9 -56 19 -62 23 -5 4 -71 8 -145 10 -74 1 -169 3 -210 4 -41 1 -109 -5
-150 -12 -41 -7 -103 -27 -138 -44 -50 -24 -71 -29 -100 -24 -20 4 -89 11
-152 16 -63 5 -164 9 -225 10 -91 2 -127 -2 -208 -24 -66 -18 -110 -25 -135
-21 -20 4 -59 15 -87 25 -27 9 -84 27 -125 39 -41 11 -101 26 -133 32 -31 6
-81 13 -110 15 -28 3 -88 8 -132 10z m-5 -113 c47 -2 121 -8 165 -13 44 -5
100 -14 125 -20 25 -6 61 -15 80 -19 19 -5 50 -14 68 -21 17 -7 32 -15 32 -18
0 -4 -10 -12 -23 -18 -12 -6 -89 -46 -172 -89 -82 -42 -157 -83 -166 -91 -8
-8 -20 -14 -26 -14 -6 0 -16 -7 -24 -16 -7 -8 -31 -25 -53 -36 -23 -12 -75
-56 -116 -99 -41 -43 -86 -96 -99 -117 -13 -22 -38 -56 -57 -76 -19 -21 -41
-49 -49 -64 -9 -15 -31 -48 -50 -73 -18 -26 -35 -55 -37 -65 -2 -11 -11 -28
-20 -38 -10 -11 -18 -26 -18 -33 0 -7 -4 -21 -10 -31 -5 -9 -30 -62 -56 -117
-25 -55 -52 -117 -59 -137 -8 -21 -24 -94 -35 -163 -17 -94 -21 -148 -16 -213
3 -48 6 -96 6 -107 1 -10 5 -24 9 -30 5 -5 12 -27 15 -49 4 -21 18 -62 30 -90
13 -28 49 -79 81 -114 31 -34 76 -74 100 -88 24 -14 48 -31 55 -39 6 -7 30
-17 53 -20 23 -4 87 -22 142 -40 55 -18 125 -37 155 -43 30 -6 78 -13 105 -17
28 -3 82 -10 120 -16 39 -6 101 -18 139 -26 49 -11 93 -14 155 -10 47 4 109
15 136 25 28 11 95 40 149 66 55 26 119 62 143 79 24 18 85 65 134 105 50 39
96 72 103 72 7 0 45 31 86 70 40 38 87 91 104 118 17 27 46 73 65 102 19 29
46 88 62 132 15 44 29 82 32 84 2 3 44 9 93 15 49 5 118 19 153 29 35 11 73
20 85 20 13 0 54 15 92 34 44 21 93 56 132 95 34 33 68 75 77 93 8 18 22 44
30 58 7 14 19 57 25 95 9 52 9 101 1 190 -6 68 -19 144 -30 175 -11 30 -28 71
-37 90 -10 19 -37 61 -62 93 -24 32 -70 79 -101 105 -32 26 -80 61 -106 77
-27 17 -72 44 -101 60 -28 17 -58 35 -65 41 -8 6 -39 20 -69 32 -30 11 -85 28
-122 37 -38 10 -68 21 -68 25 0 5 21 12 48 17 26 4 128 7 227 6 106 -1 221 -8
280 -17 55 -9 120 -23 145 -31 25 -9 88 -37 140 -63 78 -39 110 -62 181 -132
70 -70 92 -100 126 -171 22 -47 50 -113 61 -145 11 -32 26 -102 32 -154 7 -52
11 -149 11 -215 -1 -66 -6 -149 -12 -184 -5 -34 -21 -86 -35 -114 -15 -28 -41
-73 -60 -101 -18 -28 -45 -67 -59 -86 -14 -19 -60 -80 -101 -135 -42 -55 -144
-168 -227 -251 -103 -102 -182 -171 -247 -214 -52 -35 -113 -79 -136 -99 -22
-20 -69 -54 -105 -75 -35 -22 -93 -54 -129 -73 -36 -18 -69 -33 -75 -33 -5 0
-53 -22 -105 -49 -52 -26 -126 -64 -165 -84 -38 -20 -90 -45 -115 -56 -25 -11
-56 -23 -70 -27 -14 -4 -51 -19 -83 -35 -32 -15 -95 -39 -140 -53 -45 -14
-107 -33 -137 -42 -30 -9 -82 -26 -115 -39 -33 -13 -89 -33 -125 -45 -45 -14
-112 -24 -219 -31 -115 -8 -179 -7 -255 2 -55 6 -141 14 -190 16 -49 2 -123
10 -165 17 -42 8 -116 24 -166 36 -49 13 -112 31 -140 40 -27 10 -77 24 -110
31 -33 6 -96 23 -140 37 -44 14 -87 30 -95 36 -8 7 -35 22 -60 35 -25 14 -83
52 -130 85 -47 33 -112 82 -145 109 -33 27 -77 63 -98 80 -20 18 -68 61 -105
97 -38 36 -102 104 -143 152 -41 48 -89 106 -107 130 -18 23 -47 71 -64 107
-30 65 -31 67 -31 241 -1 172 0 177 32 270 18 52 42 115 54 140 11 24 20 54
19 65 0 11 9 31 21 45 12 14 28 36 36 50 8 13 24 43 36 65 12 23 44 74 71 114
27 40 75 105 106 145 31 39 66 81 77 94 12 12 21 24 21 26 0 2 37 42 83 88 45
46 121 110 170 143 60 40 87 64 87 78 0 16 5 18 26 13 18 -5 45 2 92 25 37 18
76 40 87 50 12 11 77 29 170 47 83 17 175 34 205 38 30 3 64 8 75 11 11 2 76
8 145 14 69 5 134 11 145 13 11 2 58 1 105 -1z m1017 -69 c57 -4 113 -8 126
-9 12 -1 34 -3 50 -4 15 0 27 -4 27 -8 0 -5 -24 -24 -53 -43 -28 -19 -69 -50
-89 -69 -36 -31 -40 -33 -68 -21 -17 7 -30 16 -30 21 0 5 -31 29 -70 54 -38
25 -77 48 -85 51 -8 4 -15 10 -15 14 0 4 21 8 46 8 26 1 49 4 53 7 3 3 52 3
108 -1z m352 -60 c14 -4 43 -10 64 -14 21 -4 44 -13 50 -19 6 -6 17 -11 25
-11 7 0 44 -12 80 -26 37 -14 85 -35 107 -45 22 -11 51 -28 65 -38 14 -10 57
-37 95 -59 39 -23 95 -67 126 -99 30 -32 71 -85 91 -118 20 -33 44 -87 54
-120 10 -33 19 -69 21 -80 2 -11 5 -67 7 -124 2 -85 -1 -111 -16 -142 -10 -21
-18 -43 -18 -48 0 -5 -28 -38 -63 -73 -50 -50 -78 -69 -138 -92 -41 -16 -105
-36 -144 -43 -38 -8 -95 -17 -126 -20 l-55 -5 4 64 c2 35 -1 123 -6 195 l-8
133 -59 115 c-39 77 -78 137 -115 178 -32 34 -65 77 -74 95 -9 17 -21 32 -26
32 -6 0 -10 4 -10 10 0 5 -19 29 -43 52 -23 24 -63 61 -87 82 l-45 39 60 54
c33 30 76 65 95 77 19 13 42 31 49 40 10 12 22 15 40 10z m-667 -37 c40 -18
103 -51 138 -74 36 -23 78 -54 95 -67 l30 -25 -33 -34 c-17 -18 -32 -36 -32
-40 0 -4 -24 -42 -53 -85 -29 -43 -64 -107 -77 -143 -23 -59 -25 -78 -25 -234
0 -93 4 -179 9 -190 5 -11 10 -25 12 -32 1 -6 27 -43 58 -80 30 -38 77 -88
104 -111 27 -23 76 -53 108 -68 33 -14 91 -35 129 -46 41 -12 111 -22 170 -25
55 -2 106 -6 113 -8 9 -3 6 -21 -12 -69 -14 -35 -33 -77 -43 -93 -9 -15 -20
-30 -23 -33 -3 -3 -22 -27 -42 -55 -20 -27 -58 -71 -85 -96 -26 -25 -70 -61
-98 -79 -27 -19 -75 -55 -105 -80 -30 -26 -78 -63 -106 -83 -28 -20 -102 -61
-165 -91 -103 -49 -123 -55 -214 -63 -57 -6 -110 -6 -124 -1 -13 5 -80 15
-150 23 -69 8 -157 21 -196 31 -38 9 -101 25 -140 36 -38 11 -95 27 -125 36
-30 9 -59 19 -65 23 -5 3 -21 9 -35 12 -14 4 -47 27 -75 52 -27 25 -53 48 -58
52 -4 5 -22 31 -40 58 -18 28 -41 70 -51 95 -10 26 -20 84 -23 135 -3 50 0
119 6 155 6 36 18 97 25 135 8 39 20 86 26 105 7 19 17 41 23 47 5 7 7 19 4
26 -2 7 6 30 19 52 13 22 44 80 70 130 25 49 52 97 60 106 8 8 14 18 14 21 0
3 23 39 50 81 28 42 50 80 50 84 0 4 46 54 103 109 56 56 125 114 152 129 28
16 75 45 105 65 30 20 98 58 151 83 53 26 102 54 109 62 7 8 18 15 25 15 7 0
47 18 88 39 l76 39 73 -31z m5508 -1 c41 -4 118 -9 170 -12 52 -3 104 -9 115
-14 11 -4 67 -22 125 -40 58 -18 141 -49 185 -70 44 -21 98 -54 120 -74 22
-20 45 -36 52 -36 6 0 36 -23 67 -51 30 -27 84 -85 120 -127 36 -42 81 -107
101 -144 19 -37 35 -74 35 -82 0 -9 4 -16 9 -16 5 0 19 -24 31 -52 12 -29 40
-91 62 -138 22 -47 48 -102 59 -122 10 -21 26 -68 35 -105 9 -41 19 -139 22
-243 5 -116 3 -210 -5 -279 -7 -57 -22 -137 -33 -178 -11 -41 -34 -100 -52
-131 -17 -32 -39 -69 -49 -84 -11 -14 -19 -29 -19 -32 0 -3 -13 -24 -29 -48
-15 -24 -50 -77 -76 -118 -27 -41 -80 -113 -119 -159 -42 -50 -84 -90 -104
-98 -18 -8 -56 -30 -83 -49 -27 -19 -73 -48 -102 -63 -29 -16 -87 -49 -131
-74 -43 -25 -87 -55 -98 -66 -10 -12 -25 -21 -33 -21 -7 0 -46 -17 -87 -39
-40 -21 -100 -48 -133 -59 -55 -19 -76 -21 -245 -17 -112 3 -209 10 -245 19
-33 8 -80 20 -105 26 -24 6 -66 22 -92 35 -26 13 -79 35 -118 49 -39 14 -78
26 -86 26 -8 0 -47 16 -86 35 -39 19 -100 55 -137 80 -36 25 -86 63 -111 86
-25 22 -57 47 -72 55 -16 8 -28 18 -28 22 0 4 -14 16 -30 25 -17 10 -67 55
-113 100 -45 45 -110 116 -143 157 -33 41 -75 105 -92 141 -18 37 -32 69 -32
72 0 4 -11 30 -24 59 -13 29 -31 74 -40 99 -9 25 -24 86 -33 135 -9 49 -16
134 -15 189 0 61 8 137 20 195 11 52 27 120 36 151 8 31 38 98 67 150 28 52
58 106 65 120 8 14 37 52 65 85 28 32 103 112 166 177 63 64 121 117 128 117
8 0 20 6 27 13 7 7 31 24 53 37 22 13 69 44 104 69 35 25 78 58 96 74 18 15
39 27 47 27 8 0 18 4 24 9 5 5 45 28 89 51 44 23 107 51 140 61 33 11 68 24
77 30 10 5 31 9 48 9 16 0 72 7 122 15 51 9 100 19 108 24 9 4 40 9 69 9 30 1
57 5 60 8 3 3 40 3 81 0z m-5171 -226 c4 0 48 -42 98 -92 51 -51 126 -135 167
-187 41 -52 93 -133 117 -180 23 -47 47 -101 52 -121 6 -19 12 -102 14 -184 2
-82 0 -153 -4 -157 -4 -4 -48 -10 -98 -12 -49 -3 -101 0 -115 5 -13 5 -54 15
-90 23 -36 8 -84 24 -105 37 -22 13 -56 34 -75 47 -19 13 -55 47 -79 75 -24
28 -55 76 -69 106 -22 47 -25 67 -24 145 1 49 2 90 2 90 1 0 3 18 5 40 2 22 7
51 11 65 4 14 8 27 8 30 1 3 22 40 49 82 26 41 47 83 47 92 0 9 6 16 14 16 7
0 26 18 41 40 15 22 31 40 34 40z m-2487 -2816 c249 0 484 -6 552 -13 65 -6
197 -12 293 -12 106 -1 176 -5 179 -11 4 -6 9 -43 11 -82 3 -39 6 -89 7 -111
1 -22 4 -45 8 -50 3 -6 2 -44 -2 -85 -5 -47 -5 -92 2 -120 5 -25 12 -52 16
-60 3 -8 7 -33 8 -55 2 -22 6 -76 9 -120 3 -44 10 -96 15 -115 6 -19 10 -52
10 -73 0 -21 -5 -39 -12 -42 -7 -2 -67 -11 -133 -18 -66 -8 -176 -14 -245 -13
-69 1 -129 4 -135 8 -5 3 -39 9 -75 12 -36 4 -101 2 -145 -4 -44 -6 -114 -12
-155 -14 -42 -1 -84 -8 -95 -14 -11 -5 -78 -10 -150 -11 -96 0 -155 -6 -225
-22 -52 -12 -132 -25 -178 -29 -45 -4 -88 -12 -95 -18 -6 -6 -37 -15 -67 -21
-30 -6 -69 -14 -85 -18 -17 -5 -40 -15 -53 -24 -22 -16 -22 -18 -8 -61 9 -24
15 -64 14 -90 0 -25 2 -50 5 -55 4 -6 2 -25 -3 -44 -5 -19 -10 -135 -11 -259
0 -124 0 -232 0 -240 1 -8 0 -66 -3 -128 -2 -63 -7 -117 -11 -120 -3 -4 -41
-10 -83 -14 -42 -3 -144 -7 -227 -7 -82 0 -156 3 -164 8 -10 6 -12 27 -7 87 3
44 8 117 12 164 4 47 10 90 15 96 5 6 9 35 9 65 0 30 1 70 1 89 0 19 4 39 9
45 5 6 9 62 10 125 2 63 7 156 12 205 5 50 12 108 14 130 2 22 13 126 24 230
11 105 24 217 29 250 5 33 14 89 20 125 6 36 16 101 21 145 5 44 10 146 10
226 l0 147 123 -1 c67 0 204 3 305 6 101 3 185 7 187 9 2 1 198 3 437 2z
m3522 -474 c23 0 23 -1 30 -212 4 -117 9 -298 11 -403 2 -104 -2 -248 -8 -320
l-12 -129 -44 -8 c-25 -4 -49 -4 -55 1 -6 4 -40 5 -76 2 -36 -3 -132 -4 -215
-1 l-150 5 -1 135 c0 74 -4 162 -9 195 -4 33 -9 62 -10 65 -2 3 2 34 10 69 8
39 10 75 5 94 -5 18 -8 43 -7 57 2 20 -2 24 -18 22 -11 -2 -72 -4 -135 -5 -63
0 -145 3 -183 7 -42 5 -65 11 -61 18 4 6 53 32 110 59 56 27 106 49 110 49 3
0 43 16 88 36 44 20 95 42 111 49 17 7 53 21 80 31 28 10 62 26 77 36 14 10
40 21 57 24 17 4 34 11 37 15 3 5 13 9 22 9 10 0 36 9 57 20 22 12 64 28 93
36 29 9 56 22 59 30 3 8 15 14 27 14z m1980 -120 c13 0 82 -7 153 -15 70 -9
155 -20 188 -26 33 -6 76 -12 95 -14 19 -2 112 -10 205 -16 94 -7 177 -13 185
-14 8 -1 22 -5 30 -8 8 -3 51 -8 95 -11 44 -3 163 -14 265 -26 102 -11 241
-20 310 -20 69 0 181 -7 250 -15 69 -7 150 -19 180 -25 30 -7 73 -16 95 -22
22 -5 56 -12 75 -15 19 -3 40 -9 45 -13 6 -4 36 -10 69 -14 32 -3 67 -11 78
-17 11 -6 64 -15 117 -19 53 -5 137 -11 186 -15 50 -3 104 -10 120 -15 17 -5
57 -11 90 -15 32 -4 68 -9 80 -11 11 -2 61 -9 110 -14 50 -6 144 -20 210 -31
66 -10 129 -21 140 -24 17 -4 23 -17 33 -77 6 -40 16 -125 22 -188 6 -63 13
-121 15 -128 3 -7 9 -52 15 -100 6 -48 13 -103 16 -122 3 -19 8 -48 12 -65 4
-16 6 -127 5 -245 -1 -118 3 -276 8 -350 6 -74 14 -166 19 -205 5 -38 12 -95
16 -125 3 -30 8 -58 9 -61 2 -3 6 -48 9 -100 4 -52 11 -186 17 -299 7 -113 12
-218 11 -235 0 -16 -1 -119 -1 -228 -1 -109 2 -203 6 -210 4 -6 8 -21 10 -32
1 -11 3 -144 4 -295 1 -151 -1 -311 -5 -355 -4 -44 -7 -160 -6 -257 0 -98 -1
-178 -3 -178 -2 0 -48 7 -102 15 -54 8 -130 22 -169 30 -39 9 -100 23 -136 32
-36 8 -92 22 -125 29 -33 8 -109 23 -170 33 -60 10 -148 24 -195 31 -47 6
-128 20 -180 32 -52 11 -126 28 -165 38 -38 10 -110 25 -160 33 -49 8 -128 20
-175 27 -47 6 -134 20 -195 31 -60 10 -128 23 -150 28 -22 5 -56 14 -75 20
-19 5 -62 16 -95 25 -33 8 -73 19 -88 25 -18 7 -34 24 -44 48 -8 21 -15 63
-16 95 0 38 -4 58 -12 58 -8 0 -15 24 -19 63 -4 34 -7 69 -7 77 0 8 0 56 0
105 0 50 -2 135 -4 190 -2 55 -5 118 -8 140 l-4 40 96 -8 c53 -5 209 -9 346
-10 179 -2 256 -6 272 -15 12 -6 38 -12 57 -12 35 0 36 1 36 41 0 23 -7 89
-16 148 -8 58 -24 136 -35 172 -11 37 -21 93 -24 125 -2 33 -8 118 -14 189 -6
72 -15 146 -21 165 -5 19 -17 115 -26 213 -8 98 -19 190 -25 203 -5 14 -9 51
-9 82 0 31 -5 95 -11 142 -5 47 -12 112 -15 145 -3 33 -16 146 -30 250 -14
105 -29 215 -34 245 -5 30 -9 76 -9 101 -1 31 -7 51 -20 63 -17 15 -31 16
-152 6 -75 -6 -200 -9 -284 -5 -82 3 -158 9 -169 12 -10 3 -53 0 -95 -6 -42
-6 -164 -16 -271 -23 -107 -6 -220 -13 -250 -14 -30 -1 -95 -7 -145 -13 -49
-6 -115 -16 -145 -21 -30 -6 -82 -15 -115 -20 -33 -6 -81 -13 -106 -16 l-47
-7 -5 84 c-3 46 -6 147 -6 224 0 77 -7 196 -15 265 -9 69 -21 158 -27 199 -6
41 -8 84 -5 97 5 17 14 24 30 24z m-1858 -183 c3 -3 4 -12 1 -19 -3 -8 -6 -5
-6 6 -1 11 2 17 5 13z m30 -105 c9 -24 13 -46 11 -49 -3 -2 1 -20 9 -39 8 -19
23 -78 34 -132 11 -53 23 -137 26 -187 4 -57 11 -96 21 -106 8 -10 17 -41 20
-71 l5 -55 -38 -6 c-22 -4 -60 -7 -87 -7 l-48 0 6 98 c3 53 8 108 11 121 3 14
7 119 10 235 2 116 4 218 4 226 1 8 8 -5 16 -28z m1736 0 c4 -4 15 -55 23
-112 9 -64 15 -182 15 -302 0 -134 -4 -199 -11 -204 -6 -3 -47 -6 -92 -6 -44
1 -81 3 -83 4 -1 2 4 37 11 78 8 41 40 182 72 312 32 131 61 234 65 230z
m-2827 -123 c33 0 121 -4 194 -9 74 -6 137 -12 139 -15 2 -2 3 -60 3 -129 -1
-74 2 -127 8 -130 6 -4 8 -12 6 -19 -2 -7 -6 -63 -9 -125 -2 -63 -7 -117 -11
-120 -4 -4 -68 -7 -143 -7 -75 0 -231 2 -347 3 -115 1 -244 1 -285 -2 -41 -2
-106 -7 -145 -11 -38 -3 -83 -10 -99 -15 -16 -6 -69 -10 -119 -10 l-90 0 7 63
c4 34 12 88 19 120 10 53 16 61 59 92 26 19 59 37 73 41 14 3 25 11 25 18 1 6
38 29 82 51 45 22 95 47 111 56 16 8 32 19 35 25 4 5 39 26 78 47 40 20 83 37
96 37 14 0 28 3 32 7 3 4 14 8 24 10 9 2 58 7 107 12 50 4 117 9 150 10z
m-2095 -57 c58 -3 195 -5 305 -5 110 0 225 2 255 5 30 3 61 3 67 0 10 -3 13
-44 13 -156 1 -83 1 -171 1 -196 1 -25 5 -73 10 -108 6 -40 6 -69 0 -81 -8
-15 -27 -20 -103 -26 -51 -4 -252 -9 -448 -12 -195 -2 -362 -5 -370 -5 -8 -1
-42 2 -76 6 -48 6 -63 4 -72 -7 -7 -8 -12 -19 -11 -23 1 -5 0 -16 -4 -24 -3
-8 -8 -44 -10 -80 -3 -36 -10 -119 -17 -185 -6 -66 -16 -124 -21 -130 -6 -6
-107 -13 -232 -17 -122 -3 -274 -9 -337 -13 l-115 -6 -3 243 c-2 134 -3 248
-3 253 1 6 3 82 5 171 2 89 7 176 11 195 4 19 12 40 17 47 6 7 34 19 62 27 28
8 101 24 161 35 61 11 151 28 200 37 50 9 107 15 127 14 21 -1 70 5 110 14 40
8 118 15 173 16 55 0 123 4 150 9 28 4 97 5 155 2z m862 -4 c79 -3 257 -6 396
-5 204 2 249 0 235 -10 -9 -7 -21 -13 -25 -13 -5 0 -43 -22 -85 -50 -42 -27
-80 -50 -85 -50 -5 0 -40 -16 -78 -36 -38 -19 -71 -43 -74 -52 -3 -9 -8 -51
-11 -92 -3 -41 -11 -105 -16 -142 -6 -38 -16 -71 -21 -74 -6 -4 -56 -8 -112
-9 -56 -2 -132 -4 -171 -5 -38 -1 -75 -1 -82 -1 -8 1 -11 25 -11 79 1 42 -2
151 -6 242 -4 91 -9 177 -11 192 -2 15 0 28 5 30 6 2 74 0 152 -4z m5427 -402
c163 -3 335 -8 383 -12 l87 -6 6 -37 c3 -20 12 -88 20 -151 8 -63 19 -149 24
-190 5 -41 12 -113 16 -160 3 -47 15 -166 26 -265 11 -99 26 -229 33 -290 8
-60 17 -144 21 -185 4 -41 9 -78 11 -81 1 -3 10 -88 19 -190 8 -101 20 -204
25 -229 5 -25 16 -85 25 -135 8 -49 15 -105 15 -122 0 -24 -5 -33 -17 -34 -10
-1 -22 0 -28 1 -5 2 -127 4 -270 5 -143 1 -285 5 -315 7 l-55 5 -7 44 c-4 24
-7 97 -7 162 0 64 -5 126 -11 137 -6 11 -13 48 -15 82 -3 35 -14 142 -24 238
-11 96 -20 189 -20 205 0 17 -3 41 -6 55 -4 14 -7 30 -7 35 0 6 3 28 6 50 5
31 2 47 -14 74 -17 26 -25 32 -43 26 -12 -3 -71 -10 -132 -16 -60 -5 -186 -9
-280 -9 -93 -1 -206 -5 -250 -10 -44 -5 -137 -12 -206 -16 -70 -3 -140 -3
-157 0 l-30 7 -1 131 c-1 72 -3 134 -6 138 -2 4 -7 72 -10 151 -4 79 -10 160
-16 179 -5 19 -9 58 -9 87 0 28 -4 62 -9 75 -4 13 -11 49 -15 80 l-7 57 48 6
c26 3 98 14 158 25 61 11 144 24 185 30 41 5 152 14 245 20 94 6 200 12 238
14 37 2 70 6 74 10 4 3 140 4 302 2z m-1330 -118 c11 -2 16 -19 18 -63 1 -33
5 -80 8 -105 2 -25 9 -74 15 -110 6 -36 13 -96 16 -135 2 -38 9 -160 13 -270
5 -110 6 -204 4 -208 -3 -5 -89 -6 -192 -4 -102 3 -194 8 -203 12 -10 4 -20
22 -24 39 -3 18 0 59 7 92 6 32 15 86 19 119 5 33 13 78 19 100 6 22 19 90 30
150 11 61 28 151 37 200 9 50 19 106 22 125 2 19 9 38 13 41 5 3 46 6 91 8 45
1 85 4 87 7 3 3 12 3 20 2z m-463 -19 l187 3 -7 -38 c-3 -22 -13 -88 -21 -149
-8 -60 -22 -130 -29 -155 -8 -25 -17 -58 -20 -75 -3 -16 -8 -74 -11 -128 -3
-54 -12 -115 -20 -135 -8 -20 -13 -46 -13 -57 1 -11 -4 -42 -12 -68 -8 -32
-20 -52 -34 -59 -15 -6 -81 -6 -196 2 -96 5 -189 13 -205 16 -21 4 -38 0 -53
-13 -22 -18 -22 -23 -21 -233 0 -118 -1 -253 -2 -300 -2 -47 -3 -224 -2 -395
0 -170 4 -421 6 -557 3 -137 8 -252 12 -258 3 -5 1 -18 -4 -28 -6 -11 -8 -22
-5 -25 3 -3 7 -41 9 -84 1 -43 4 -78 5 -78 1 0 4 -65 7 -145 2 -80 6 -206 9
-280 2 -74 9 -250 15 -390 5 -140 12 -292 15 -337 l5 -81 -58 -9 c-32 -4 -233
-7 -448 -7 -214 1 -431 3 -481 6 -50 3 -97 9 -104 13 -9 6 -11 27 -6 80 4 39
8 80 10 91 2 10 7 78 10 149 4 72 9 159 12 194 3 36 7 67 9 71 2 3 7 107 11
230 3 124 8 263 9 310 1 47 5 112 9 145 4 33 18 233 32 445 16 239 26 485 27
650 0 146 0 396 -1 555 -1 160 -1 407 0 550 1 143 0 322 -2 399 -2 110 0 140
11 147 8 5 49 9 92 9 53 0 79 -4 82 -12 2 -7 6 -51 9 -97 3 -45 10 -88 15 -95
6 -7 8 -27 6 -44 -2 -18 1 -45 7 -60 6 -15 12 -58 13 -95 2 -37 8 -73 13 -80
6 -7 13 -37 16 -67 3 -30 8 -93 11 -140 4 -46 11 -90 16 -97 7 -8 7 -18 -1
-33 -6 -11 -8 -25 -5 -30 3 -5 8 -38 11 -72 3 -35 5 -76 5 -91 -1 -15 5 -42
13 -60 8 -18 17 -75 21 -127 4 -52 7 -105 7 -117 -1 -13 -1 -29 -2 -35 0 -7 4
-40 9 -73 5 -33 12 -67 15 -75 3 -8 11 -46 16 -85 6 -38 12 -103 13 -143 1
-55 6 -77 19 -86 12 -9 14 -16 6 -30 -6 -11 -7 -51 -3 -105 4 -47 13 -98 21
-113 8 -15 14 -50 14 -77 0 -28 4 -72 10 -98 5 -26 12 -79 15 -118 3 -38 7
-108 9 -155 2 -47 6 -102 11 -122 7 -36 9 -38 46 -38 37 0 39 2 41 33 1 17 2
39 1 47 0 8 -3 39 -7 69 -3 29 -9 58 -13 64 -3 5 -10 82 -14 171 -4 88 -13
186 -19 216 -5 30 -12 76 -15 102 -3 26 -9 58 -14 72 -6 13 -13 44 -16 67 -4
24 -8 58 -10 74 -2 17 -8 64 -14 105 -6 41 -15 122 -21 180 -6 58 -13 112 -17
120 -3 8 -7 35 -9 58 -3 24 -9 53 -15 64 -6 11 -9 38 -8 61 2 23 0 76 -5 117
-4 41 -11 109 -16 150 -5 41 -11 102 -14 135 -2 33 -10 107 -16 165 -6 58 -21
161 -32 230 -11 69 -21 141 -23 160 -1 19 -6 72 -10 116 -4 45 -4 84 1 87 5 3
65 1 134 -5 88 -7 217 -6 438 3 172 7 315 15 317 18 2 3 87 8 191 10z m-1671
-36 c120 -2 221 -6 224 -9 2 -2 4 -53 2 -112 -1 -60 4 -140 12 -182 11 -58 13
-150 10 -400 -2 -179 -3 -365 -3 -415 0 -49 0 -105 0 -124 0 -18 4 -39 10 -46
7 -8 7 -15 1 -19 -6 -4 -7 -35 -3 -79 4 -39 6 -137 6 -217 -1 -80 -5 -230 -9
-335 -3 -104 -8 -201 -9 -215 -2 -14 -7 -33 -11 -42 -4 -10 -7 -35 -7 -55 0
-21 1 -56 2 -78 1 -22 1 -42 0 -45 -1 -3 -4 -36 -6 -75 -3 -38 -6 -88 -7 -109
-1 -22 -7 -41 -13 -43 -7 -2 -15 8 -18 22 -4 14 -5 29 -2 33 2 4 7 88 11 186
3 99 8 182 10 186 2 3 1 84 -3 179 -4 94 -3 176 1 180 4 4 8 48 9 97 0 49 -3
127 -6 174 -4 47 -9 157 -11 245 -3 88 -5 184 -5 214 1 29 -4 67 -11 82 -6 16
-17 29 -25 29 -7 0 -58 -9 -113 -19 -55 -11 -170 -23 -256 -27 l-157 -7 6 99
c3 54 8 207 11 339 3 132 10 278 16 325 6 47 13 108 15 135 2 28 8 66 12 85 7
32 11 35 52 41 25 3 144 4 265 2z m-791 -7 c209 -3 381 -8 382 -9 2 -2 3 -32
4 -67 0 -36 -5 -132 -12 -215 -7 -82 -16 -155 -20 -161 -4 -6 -7 -60 -6 -120
0 -60 -1 -182 -4 -272 -2 -89 -8 -166 -14 -171 -5 -5 -108 -11 -229 -14 -121
-3 -281 -8 -355 -10 -74 -3 -157 -1 -184 4 -32 6 -53 6 -60 -1 -6 -6 -14 -6
-23 1 -8 7 -13 8 -13 1 0 -6 -25 -10 -60 -9 -32 0 -65 -5 -72 -10 -7 -6 -60
-12 -118 -14 l-105 -4 3 105 c1 58 5 128 8 157 4 28 3 57 -1 63 -4 7 -6 62 -5
123 1 62 4 173 6 247 2 74 5 177 8 228 2 52 6 96 9 98 2 3 53 9 113 14 60 6
165 15 233 20 68 5 127 13 130 16 3 4 177 4 385 0z m-1006 -43 c8 -2 22 -3 33
-3 16 0 19 -7 19 -54 0 -30 4 -56 9 -58 5 -2 5 -24 0 -53 -5 -27 -12 -210 -15
-405 -3 -195 -5 -378 -5 -406 1 -47 -2 -52 -22 -56 -13 -3 -34 -1 -47 4 -13 5
-27 4 -34 -1 -7 -6 -59 -8 -116 -7 -58 2 -110 4 -117 5 -7 0 -14 16 -17 34 -3
17 -8 65 -10 105 -2 41 -7 76 -10 79 -3 3 -1 14 5 24 5 11 13 104 16 207 4
103 6 221 6 262 -1 41 -4 113 -6 160 -3 47 -6 90 -8 95 -2 6 0 20 5 33 4 12
10 23 14 23 4 1 70 5 147 8 77 4 146 6 153 4z m-436 -23 l48 0 0 -92 c0 -51 1
-106 2 -123 1 -16 -2 -91 -7 -165 -4 -74 -8 -242 -9 -372 -1 -201 -4 -240 -17
-253 -10 -10 -41 -18 -80 -21 -35 -3 -73 -5 -83 -5 -10 0 -24 5 -30 11 -7 7
-6 50 3 143 7 72 17 182 21 242 4 61 5 158 2 218 l-5 107 -33 0 c-18 0 -36 -4
-39 -10 -3 -5 -23 -9 -43 -9 -20 1 -95 -4 -167 -10 -71 -7 -199 -12 -283 -12
-84 0 -174 -4 -202 -8 l-49 -8 -3 41 c-2 23 0 84 4 136 5 52 13 109 18 126 6
18 20 35 33 39 12 4 210 9 440 10 229 1 420 5 424 8 3 4 28 7 55 7z m-313
-414 c56 -3 86 -8 92 -17 5 -8 7 -68 4 -134 -3 -66 -12 -185 -20 -265 -8 -80
-15 -154 -15 -165 0 -16 -11 -24 -44 -34 -24 -7 -50 -11 -57 -10 -8 2 -29 -1
-47 -5 -20 -5 -38 -4 -45 3 -9 6 -26 7 -52 0 -22 -5 -77 -8 -121 -8 -45 1 -85
0 -90 -3 -5 -3 -47 -6 -94 -6 -47 -1 -93 1 -102 4 -13 4 -18 16 -18 40 0 19
-4 34 -10 34 -5 0 -10 15 -10 33 0 19 -3 37 -7 40 -4 4 -8 47 -9 95 -1 48 -3
94 -3 102 -1 8 0 29 2 45 3 17 -1 66 -9 109 -9 55 -10 83 -3 92 6 7 48 15 102
18 51 3 162 8 247 11 85 3 171 9 190 15 19 5 73 8 119 6z m-937 -61 l193 0 7
-130 c4 -71 14 -215 24 -320 12 -142 21 -195 33 -209 15 -17 26 -18 146 -12
72 4 225 11 341 16 116 5 219 13 229 16 16 7 17 -2 11 -127 -3 -74 -6 -224 -6
-334 0 -110 3 -227 7 -260 3 -33 6 -181 5 -330 -1 -177 3 -316 12 -405 8 -74
18 -214 21 -310 4 -96 9 -289 11 -429 2 -140 7 -258 11 -262 5 -5 64 -4 133 2
69 5 154 14 190 20 36 5 92 16 125 24 33 8 83 16 110 17 45 3 50 1 46 -17 -2
-11 -4 -69 -4 -130 -1 -60 1 -186 5 -280 3 -93 9 -185 13 -202 4 -18 14 -38
21 -44 11 -9 42 -9 127 0 61 7 144 17 182 22 39 5 97 11 130 13 33 3 139 5
235 7 96 1 183 6 192 11 10 5 82 15 160 23 79 7 206 16 283 20 77 3 165 8 195
10 30 3 80 8 110 11 30 4 62 10 71 15 9 4 64 11 122 14 99 5 107 4 107 -13 0
-10 -5 -23 -11 -29 -6 -6 -8 -17 -4 -23 4 -6 7 -49 7 -96 0 -46 -3 -88 -7 -94
-3 -6 -2 -52 4 -103 6 -50 13 -131 15 -179 3 -48 2 -90 -3 -92 -5 -3 -7 -18
-5 -33 2 -16 4 -39 5 -53 0 -14 0 -27 -1 -30 0 -3 -3 -27 -5 -55 -1 -27 -6
-73 -10 -102 -6 -42 -15 -60 -50 -96 -23 -24 -68 -64 -99 -88 -31 -24 -90 -68
-129 -96 -40 -29 -101 -73 -137 -97 -36 -24 -76 -56 -89 -70 -14 -14 -30 -26
-36 -26 -7 0 -47 -23 -89 -51 -42 -27 -137 -95 -211 -149 -74 -54 -141 -105
-149 -113 -8 -8 -29 -20 -48 -28 -18 -7 -57 -30 -87 -51 -30 -21 -60 -38 -68
-38 -7 0 -13 -4 -13 -8 0 -5 -17 -17 -37 -28 -21 -10 -44 -25 -52 -32 -7 -7
-49 -31 -91 -52 -43 -22 -81 -43 -84 -48 -3 -5 -52 -33 -108 -62 -57 -28 -120
-65 -140 -81 -20 -16 -42 -29 -48 -29 -6 0 -38 -17 -70 -37 -33 -21 -79 -50
-102 -65 -24 -15 -52 -33 -63 -40 -10 -7 -39 -27 -65 -43 -25 -17 -61 -37 -80
-45 -19 -7 -42 -19 -51 -27 -8 -7 -20 -13 -26 -13 -6 0 -41 -20 -77 -45 -37
-25 -71 -45 -75 -45 -5 0 -29 -16 -54 -35 -25 -19 -49 -35 -53 -35 -4 0 -30
-15 -58 -32 -28 -18 -70 -47 -94 -65 -24 -18 -49 -33 -56 -33 -7 0 -32 -14
-54 -30 -23 -17 -48 -29 -54 -28 -7 2 -16 17 -21 33 -4 17 -12 66 -17 110 -5
44 -14 105 -20 135 -5 30 -12 142 -14 248 -3 106 -10 200 -15 210 -5 9 -14 50
-21 89 -6 40 -15 75 -20 78 -4 2 -7 29 -6 59 1 30 -3 62 -9 70 -7 9 -9 37 -5
73 4 32 5 78 4 103 -2 25 -6 145 -8 267 -2 122 -7 226 -10 232 -4 6 -9 43 -11
83 -2 40 -9 168 -15 283 -5 116 -10 381 -10 590 0 209 2 396 4 415 3 19 7 78
10 130 2 52 2 99 -1 103 -3 5 -7 90 -9 190 -3 100 -7 189 -10 197 -3 8 -8 42
-10 75 -2 33 -9 105 -15 159 -7 55 -12 161 -13 235 -1 75 4 163 11 196 6 33
11 120 11 194 0 123 -1 136 -19 149 -11 8 -19 23 -17 34 2 17 -7 24 -52 40
-30 10 -80 21 -110 25 -30 3 -62 9 -71 14 -9 4 -47 11 -85 14 -38 3 -164 7
-281 9 -116 2 -216 6 -221 10 -5 3 -45 1 -88 -4 -44 -5 -104 -6 -134 -2 -32 5
-54 13 -53 19 1 6 5 60 8 118 3 59 8 112 12 118 3 5 8 28 10 51 2 22 5 182 6
354 1 173 -1 316 -5 318 -3 2 -4 66 -2 142 2 75 9 180 15 233 l12 97 36 6 c20
3 89 6 153 6 64 0 119 3 122 8 2 4 91 7 198 7z m-2321 -42 c118 -1 297 -7 397
-14 125 -8 263 -10 430 -4 136 4 265 7 287 6 22 -1 41 -3 42 -5 2 -2 -1 -54
-6 -117 -5 -63 -12 -138 -15 -167 -3 -29 -9 -58 -13 -65 -3 -6 -8 -90 -10
-186 -2 -97 -8 -207 -13 -245 -5 -39 -7 -73 -4 -77 2 -4 -1 -20 -7 -36 -6 -15
-13 -80 -15 -143 -2 -63 -8 -142 -13 -175 -5 -33 -8 -172 -7 -310 1 -137 -1
-261 -6 -274 -5 -13 -9 -72 -9 -130 0 -59 5 -136 11 -173 5 -36 7 -74 4 -83
-6 -15 -22 -16 -148 -11 -78 2 -199 12 -271 20 -71 9 -213 23 -315 31 -102 9
-241 20 -310 25 -69 5 -159 14 -200 20 -41 7 -89 14 -105 16 l-31 4 3 73 c2
39 8 128 14 197 5 69 13 136 16 150 3 14 7 32 8 40 1 8 8 71 14 140 6 69 11
143 9 165 -1 22 1 78 5 125 4 47 9 99 12 115 3 17 10 111 16 210 6 99 13 203
15 230 3 28 5 156 6 285 1 129 -2 258 -6 287 -5 29 -6 58 -4 65 4 10 52 13
219 11z m8954 -300 l150 -2 7 -58 c4 -32 14 -114 23 -183 8 -69 17 -149 19
-179 3 -30 8 -68 12 -85 4 -17 7 -35 5 -40 -1 -5 2 -48 8 -95 6 -47 13 -113
15 -146 3 -33 6 -96 7 -140 l2 -80 -79 -8 c-43 -5 -96 -8 -117 -7 -21 0 -55
-4 -75 -9 -20 -6 -86 -13 -147 -15 -60 -3 -157 -8 -215 -11 -58 -3 -169 -13
-248 -21 -78 -9 -161 -16 -184 -17 -41 -2 -42 -1 -51 38 -5 22 -9 96 -9 165 0
69 2 276 5 460 4 184 8 344 10 355 2 11 6 25 10 31 4 7 45 12 104 12 54 0 136
3 182 7 47 3 89 9 94 12 6 3 80 9 166 12 86 3 224 5 306 4z m-3135 -186 c30 1
62 -2 70 -7 11 -7 16 -39 21 -132 3 -68 5 -319 4 -558 -1 -239 -6 -559 -10
-710 -4 -151 -13 -316 -19 -367 -8 -53 -12 -190 -12 -322 l1 -230 -35 -5 c-19
-3 -66 -8 -105 -11 -38 -2 -106 -7 -150 -10 -44 -2 -134 -7 -200 -10 -66 -3
-183 -5 -260 -5 -77 0 -214 0 -305 1 -91 0 -248 0 -349 -1 -101 -2 -207 -8
-235 -14 -28 -6 -78 -10 -111 -8 l-60 4 3 71 c1 40 4 143 7 230 2 87 7 163 11
168 3 5 1 16 -6 24 -8 10 -8 19 -1 33 6 11 13 107 16 213 3 107 8 376 10 598
4 309 8 408 17 417 8 7 70 17 148 24 74 6 191 13 260 16 69 2 235 6 370 9 146
2 258 8 275 15 16 6 54 11 85 10 30 0 75 -1 100 -3 42 -2 45 0 47 23 1 14 5
108 8 210 4 102 9 210 13 240 l7 55 110 7 c61 3 135 10 165 15 30 4 80 9 110
10z m-616 -33 c69 0 129 -4 133 -8 5 -4 7 -49 6 -99 0 -51 -1 -135 -1 -187 -1
-80 -4 -98 -19 -111 -10 -9 -45 -22 -78 -29 -33 -6 -81 -16 -107 -20 -26 -5
-179 -9 -341 -9 -162 0 -323 -5 -358 -10 -35 -5 -119 -13 -186 -16 -68 -4
-124 -3 -124 1 -1 5 -3 66 -4 136 -1 70 -6 156 -10 192 -3 36 -4 75 0 86 5 17
15 20 63 20 32 0 73 5 92 10 19 6 105 13 190 15 85 3 236 8 335 11 99 3 197 5
218 4 21 0 44 3 52 7 7 5 70 8 139 7z m-1313 -56 c80 1 148 0 151 -4 3 -3 2
-22 -3 -42 -5 -23 -4 -54 3 -82 6 -25 10 -77 9 -117 -1 -39 2 -81 8 -92 8 -14
8 -22 0 -26 -6 -4 -8 -18 -5 -30 4 -14 0 -29 -9 -39 -9 -9 -27 -13 -47 -10
-18 2 -97 8 -176 13 -79 5 -147 12 -150 16 -4 4 -6 50 -4 103 2 54 5 122 6
152 2 30 4 76 4 102 2 45 3 47 35 51 17 2 98 5 178 5z m-331 -10 l46 2 -2 -69
c-2 -38 -5 -84 -9 -102 -3 -19 -8 -77 -11 -129 -3 -52 -8 -116 -11 -141 -4
-43 -3 -47 24 -57 16 -7 112 -14 227 -16 124 -3 202 -9 206 -16 3 -5 4 -36 0
-68 -3 -31 -4 -124 -2 -207 2 -82 3 -193 3 -245 0 -52 -3 -135 -7 -185 -3 -49
-8 -148 -10 -220 -2 -71 -6 -159 -8 -195 -2 -36 -7 -112 -10 -170 -3 -58 -8
-185 -11 -284 -3 -98 -8 -182 -10 -187 -3 -4 -31 -13 -63 -19 -31 -7 -97 -20
-147 -31 -49 -10 -108 -18 -130 -17 -22 0 -74 -4 -115 -9 -41 -6 -80 -8 -85
-6 -6 2 -10 37 -9 86 1 45 3 125 4 177 1 52 -3 187 -9 300 -6 113 -14 232 -17
265 -3 33 -7 95 -9 137 -1 42 -6 82 -10 87 -3 6 -5 75 -4 154 1 78 1 196 0
262 -2 66 -4 147 -6 180 -2 33 -4 139 -4 235 -1 96 1 234 4 305 3 72 8 140 10
152 5 19 13 22 68 26 34 2 82 4 107 5z m2438 -1507 c2 -41 -2 -87 -7 -103 -7
-20 -7 -36 -1 -48 6 -10 8 -25 5 -32 -2 -7 -6 -70 -9 -140 -2 -69 -7 -131 -11
-137 -3 -6 -3 -16 0 -22 4 -6 8 -44 9 -85 1 -41 -1 -80 -5 -86 -4 -7 -9 -6
-14 2 -4 7 -7 119 -7 250 0 131 2 243 6 248 3 5 8 36 11 68 3 32 9 82 13 109
l7 50 3 -74z m-4223 -198 c146 -1 231 -6 240 -13 7 -6 16 -26 19 -45 4 -19 7
-144 7 -277 1 -134 -2 -260 -5 -281 -3 -20 -8 -52 -11 -71 -4 -25 -13 -37 -34
-45 -17 -8 -79 -11 -162 -10 -74 0 -168 0 -209 0 -41 -1 -81 -7 -89 -14 -9 -8
-69 -13 -172 -16 l-159 -3 -11 28 c-8 19 -13 117 -14 286 -1 155 -5 262 -12
270 -5 7 -15 38 -22 69 -6 31 -9 68 -6 82 6 22 14 27 61 33 29 3 71 3 91 -1
21 -4 79 -6 130 -6 51 1 101 5 112 9 11 4 122 6 246 5z m4138 -614 c32 1 47
-3 47 -12 0 -6 -4 -28 -10 -46 -7 -27 -6 -38 5 -51 10 -12 12 -19 4 -27 -6 -6
-17 -93 -25 -194 -9 -101 -18 -186 -20 -189 -3 -3 -42 -8 -87 -12 -45 -4 -107
-12 -137 -17 -30 -6 -84 -13 -120 -16 -36 -2 -107 -7 -159 -10 -52 -3 -97 -7
-100 -9 -3 -2 -71 -7 -150 -10 -80 -4 -148 -9 -152 -11 -3 -3 -69 -11 -145
-20 -77 -8 -200 -15 -274 -16 -74 0 -191 -7 -260 -14 -69 -8 -151 -16 -183
-19 -54 -4 -58 -3 -70 22 -7 15 -15 59 -16 97 -2 39 -7 75 -12 80 -4 6 -6 94
-3 195 3 102 9 189 14 193 4 5 59 15 121 22 63 8 173 16 244 20 72 3 245 5
385 4 140 0 273 -2 295 -3 22 -2 155 1 295 6 140 5 302 16 360 23 58 7 126 13
153 14z"/>
<g>
<path d="M4995 15542 c-11 3 -31 3 -44 1 -14 -3 -36 -12 -50 -21 -14 -9 -38
-28 -52 -42 -14 -14 -32 -45 -39 -69 -14 -43 -14 -44 18 -72 17 -15 50 -33 74
-40 23 -6 59 -9 79 -6 21 3 47 16 62 31 15 15 30 43 33 64 3 21 1 57 -5 80 -7
24 -21 48 -34 56 -12 8 -31 16 -42 18z"/>
</g>
<g>
<path d="M5777 13663 c-225 1 -411 0 -413 -2 -2 -2 -4 -19 -4 -37 0 -22 6 -36
18 -42 9 -5 35 -13 57 -17 22 -4 276 -9 565 -12 289 -2 550 -5 581 -5 31 0 73
5 93 12 24 7 36 18 36 30 0 9 7 23 15 30 14 11 14 15 -2 32 -16 18 -26 19
-103 13 -47 -4 -164 -7 -260 -6 -96 1 -359 3 -583 4z"/>
</g>
<g>
<path d="M7659 15676 c-30 5 -40 0 -80 -38 -37 -34 -48 -52 -54 -87 -7 -40 -5
-45 29 -80 31 -32 44 -38 83 -40 26 -1 61 3 79 9 24 8 35 21 48 53 9 24 16 53
16 66 0 14 -17 41 -44 67 -29 30 -55 47 -77 50z"/>
</g>
<g>
<path d="M6331 15380 c-10 0 -25 -8 -34 -18 -10 -11 -17 -35 -17 -57 0 -21 5
-68 11 -104 5 -36 17 -83 26 -103 9 -21 20 -38 25 -38 5 0 6 -9 3 -20 -4 -11
-2 -20 4 -20 6 0 11 -15 11 -34 0 -19 5 -38 10 -41 6 -4 10 -30 10 -58 -1 -29
4 -86 10 -127 6 -41 18 -86 27 -100 9 -14 18 -41 20 -60 3 -24 -1 -38 -13 -47
-10 -7 -41 -13 -70 -13 -34 0 -56 -5 -64 -15 -7 -8 -21 -15 -31 -15 -10 0 -30
-5 -44 -12 -14 -6 -25 -19 -25 -28 0 -9 6 -24 13 -35 11 -15 22 -17 58 -12 24
4 78 13 119 20 41 7 85 19 97 25 12 7 34 12 49 12 24 0 26 3 21 30 -5 22 -3
30 8 30 8 0 15 7 15 15 0 9 -7 27 -16 40 -9 14 -13 25 -10 25 4 0 0 10 -8 23
-9 12 -29 76 -46 142 -17 66 -41 174 -55 240 -14 66 -32 145 -41 175 -9 30
-19 78 -23 105 -4 28 -10 56 -14 63 -5 6 -16 12 -26 12z"/>
</g>
<g>
<path d="M10981 15400 c-20 -1 -52 -8 -72 -18 -20 -9 -55 -37 -78 -62 -22 -24
-41 -48 -41 -52 0 -5 6 -24 14 -42 7 -18 25 -44 39 -58 19 -19 39 -26 85 -31
56 -6 63 -4 93 20 17 15 38 42 45 60 8 18 14 49 14 68 0 26 -9 48 -32 76 -26
32 -37 39 -67 39z"/>
</g>
<g>
<path d="M12015 15078 c-5 0 -25 -4 -43 -8 -18 -4 -43 -19 -57 -34 -13 -14
-27 -42 -31 -61 -5 -27 -2 -41 12 -56 11 -12 31 -27 46 -35 15 -8 45 -14 67
-14 29 0 46 6 61 22 11 12 25 38 30 58 5 19 6 49 2 65 -6 20 -20 36 -43 47
-19 9 -38 17 -44 16z"/>
</g>
<g>
<path d="M11314 14898 c-27 3 -33 -1 -43 -30 -7 -18 -18 -44 -25 -58 -7 -14
-22 -43 -34 -65 -12 -22 -31 -62 -42 -90 -11 -27 -28 -63 -37 -80 -9 -16 -31
-58 -50 -93 -18 -35 -33 -70 -33 -77 0 -7 -3 -15 -7 -17 -5 -1 -20 -19 -34
-38 -14 -19 -28 -43 -32 -52 -4 -11 3 -28 19 -47 22 -26 30 -29 85 -30 33 0
94 -6 134 -12 73 -13 74 -12 94 12 12 15 18 32 14 44 -3 11 -14 28 -25 39 -15
14 -39 19 -100 22 -45 2 -85 7 -89 11 -4 4 13 51 38 103 25 52 51 109 58 125
7 17 34 72 60 124 25 52 55 107 66 123 12 16 19 40 17 55 -2 23 -9 29 -34 31z"/>
</g>
<g>
<path d="M10940 13918 c-18 -1 -34 -7 -36 -13 -2 -5 -5 -23 -6 -40 -3 -27 2
-32 47 -54 28 -13 64 -30 80 -37 17 -7 56 -25 89 -39 32 -15 75 -29 95 -32 20
-3 70 -21 111 -40 41 -18 82 -37 90 -42 8 -4 45 -24 83 -44 37 -21 76 -37 87
-37 11 0 21 6 22 13 0 6 2 17 2 22 1 6 7 20 14 32 7 12 12 24 12 26 0 3 -44
26 -97 51 -54 26 -110 53 -125 61 -14 8 -34 15 -43 15 -10 0 -40 12 -69 26
-28 14 -58 30 -66 34 -8 4 -40 15 -71 23 -31 9 -62 24 -69 32 -7 8 -36 22 -65
30 -29 9 -67 14 -85 13z"/>
</g>
</g>
<g>
<path d="M15065 15552 c-5 2 -43 -1 -83 -8 -45 -8 -83 -21 -102 -36 -16 -13
-41 -46 -55 -75 -19 -39 -25 -68 -25 -116 0 -50 5 -71 23 -97 12 -19 38 -43
57 -54 19 -11 59 -23 90 -27 37 -4 66 -1 88 8 18 7 51 30 73 50 22 20 47 49
54 64 8 15 17 51 21 81 5 45 2 61 -23 108 -17 34 -36 56 -48 58 -11 2 -29 12
-40 22 -11 9 -24 19 -30 22z"/>
</g>
<g>
<path d="M2270 15456 c-19 4 -37 -6 -77 -43 -36 -33 -57 -62 -67 -93 -8 -25
-13 -64 -12 -85 1 -22 11 -53 21 -70 11 -16 27 -38 35 -47 8 -9 28 -21 43 -27
16 -6 55 -11 88 -11 44 0 71 6 100 23 25 14 47 37 60 64 14 29 20 59 18 100
-1 32 -8 69 -16 81 -8 13 -29 37 -46 52 -18 16 -52 34 -77 40 -25 6 -56 14
-70 16z"/>
</g>
</g>
</svg>
