<?xml version="1.0" standalone="no"?>
<!DOCTYPE svg PUBLIC "-//W3C//DTD SVG 20010904//EN"
 "http://www.w3.org/TR/2001/REC-SVG-20010904/DTD/svg10.dtd">
<svg version="1.0" xmlns="http://www.w3.org/2000/svg"
 width="1536.000000pt" height="2048.000000pt" viewBox="0 0 1536.000000 2048.000000"
 preserveAspectRatio="xMidYMid meet">
<metadata>
Created by potrace 1.16, written by Peter Selinger 2001-2019
</metadata>
<g transform="translate(0.000000,2048.000000) scale(0.100000,-0.100000)"
fill="#000000" stroke="none">
<g>
<path d="M7610 19102 c-51 4 -99 0 -150 -12 -41 -9 -92 -22 -114 -28 -21 -6
-71 -30 -112 -53 -51 -29 -78 -52 -88 -74 -8 -17 -25 -43 -38 -58 -13 -14 -34
-41 -47 -58 -21 -27 -25 -45 -29 -133 -3 -73 0 -118 12 -164 9 -34 26 -77 36
-95 11 -18 20 -40 20 -49 0 -9 21 -39 48 -67 26 -28 74 -67 106 -86 33 -19 68
-35 78 -35 10 0 36 -11 57 -24 21 -14 65 -30 98 -36 34 -7 80 -10 104 -8 24 3
81 17 127 31 46 14 109 42 139 62 31 21 74 57 96 81 22 24 46 56 54 71 8 15
26 56 40 91 22 57 25 75 21 161 -3 79 -9 106 -33 156 -15 33 -46 87 -68 120
-23 33 -56 75 -76 93 -19 17 -39 32 -43 32 -5 0 -27 14 -50 30 -22 17 -50 30
-60 30 -11 0 -27 4 -36 9 -9 4 -51 10 -92 13z"/>
</g>
<g>
<path d="M7578 17503 c-7 2 -23 1 -35 -4 -13 -5 -23 -13 -23 -19 0 -6 -42 -52
-93 -103 -51 -51 -122 -118 -157 -149 -36 -32 -76 -68 -90 -81 -14 -13 -41
-42 -60 -65 -19 -23 -39 -42 -45 -42 -7 0 -32 -22 -58 -50 -26 -27 -50 -50
-53 -50 -4 0 -58 -51 -120 -112 -62 -62 -153 -152 -203 -200 -50 -49 -95 -88
-100 -88 -5 0 -20 -13 -33 -29 -12 -15 -30 -38 -38 -50 -8 -11 -20 -21 -27
-21 -7 0 -13 -4 -13 -9 0 -5 -74 -83 -165 -175 -91 -91 -170 -166 -174 -166
-5 0 -16 -11 -25 -25 -9 -13 -87 -94 -173 -180 -87 -86 -225 -220 -307 -298
-82 -78 -231 -222 -330 -320 -100 -98 -206 -201 -236 -228 -30 -28 -106 -98
-169 -157 -62 -59 -201 -192 -308 -297 -107 -104 -202 -194 -210 -199 -8 -4
-49 -41 -91 -82 -41 -41 -77 -74 -79 -74 -3 0 -46 -42 -96 -93 -51 -51 -112
-117 -137 -146 -25 -29 -60 -66 -77 -83 -18 -17 -35 -38 -38 -47 -3 -9 -17
-22 -32 -29 -16 -7 -50 -26 -78 -42 -27 -16 -57 -32 -65 -36 -8 -4 -34 -22
-57 -39 -23 -18 -69 -40 -102 -49 -33 -9 -63 -21 -67 -27 -3 -6 -3 -21 0 -33
4 -16 15 -26 33 -29 17 -3 38 1 52 10 12 8 48 29 80 46 31 17 77 46 103 64 26
18 52 33 57 33 5 0 11 -7 15 -15 3 -8 17 -15 32 -15 22 0 30 9 51 58 17 39 37
65 57 77 17 10 51 30 76 43 25 13 50 30 55 37 6 7 26 21 45 32 19 10 55 32 80
47 25 16 64 42 87 58 23 15 44 28 48 28 4 0 42 25 85 55 43 30 82 55 87 55 4
0 26 14 47 30 22 17 44 30 49 30 4 0 51 29 102 65 52 36 98 65 103 65 5 0 17
9 26 19 10 11 37 29 59 41 23 11 61 33 83 48 23 15 61 41 84 57 24 17 55 36
69 44 14 8 72 44 128 80 56 36 123 80 149 96 26 17 70 44 98 62 28 17 56 37
63 42 7 6 15 11 19 11 4 0 15 7 25 16 9 8 39 27 67 42 27 15 109 67 183 115
74 49 150 100 169 113 19 13 73 50 120 82 47 32 148 101 225 153 77 52 145 96
150 99 6 3 37 23 69 45 32 22 75 50 95 62 20 12 43 25 51 29 8 5 48 31 88 58
41 28 86 59 100 68 15 10 34 21 42 25 8 4 38 23 65 42 28 20 59 42 70 49 11 6
27 15 35 19 8 3 29 18 46 32 17 14 52 40 79 56 26 17 61 38 78 47 16 9 41 27
56 41 14 13 51 39 81 58 30 18 57 37 58 41 2 5 8 8 13 8 6 0 33 18 62 40 29
21 78 51 109 65 31 14 64 37 73 51 15 23 15 29 2 57 -8 18 -18 68 -22 112 -3
44 -13 131 -21 192 -8 62 -17 143 -20 180 -3 38 -14 124 -24 193 -11 69 -26
157 -34 195 -9 39 -15 98 -16 133 0 35 -4 71 -10 81 -5 10 -15 21 -22 24z
m-62 -133 c5 0 26 -93 47 -212 20 -117 39 -233 43 -257 3 -24 8 -60 9 -80 2
-20 6 -76 10 -126 3 -49 8 -103 10 -120 2 -16 6 -66 10 -111 7 -77 6 -81 -16
-96 -13 -9 -34 -25 -47 -36 -12 -11 -38 -30 -57 -43 -19 -13 -35 -27 -35 -31
0 -5 -6 -8 -12 -8 -7 0 -53 -34 -103 -75 -49 -41 -93 -75 -97 -75 -4 0 -40
-25 -80 -56 -39 -30 -86 -61 -102 -68 -17 -8 -42 -24 -56 -37 -13 -13 -45 -35
-70 -48 -25 -13 -70 -42 -100 -65 -30 -23 -86 -61 -125 -84 -38 -24 -88 -56
-110 -72 -22 -17 -55 -38 -74 -47 -19 -9 -55 -33 -82 -52 -26 -20 -82 -58
-125 -86 -42 -27 -84 -54 -92 -60 -9 -5 -36 -24 -62 -42 -25 -18 -69 -46 -97
-63 -29 -17 -53 -36 -53 -41 0 -5 -6 -9 -14 -9 -8 0 -35 -16 -61 -36 -26 -19
-58 -39 -71 -44 -13 -5 -24 -14 -24 -20 0 -6 -16 -18 -36 -26 -19 -8 -51 -29
-70 -46 -19 -17 -51 -39 -73 -49 -21 -9 -41 -22 -45 -27 -3 -6 -34 -27 -69
-47 -34 -20 -82 -49 -107 -65 -25 -17 -58 -36 -75 -44 -16 -8 -41 -26 -54 -40
-14 -14 -28 -26 -33 -26 -5 0 -36 -18 -69 -40 -32 -23 -59 -38 -59 -35 0 3
-18 -7 -40 -21 -22 -15 -40 -30 -40 -33 0 -4 -17 -14 -37 -22 -20 -8 -55 -29
-77 -46 -23 -18 -47 -33 -53 -33 -7 0 -13 -4 -13 -10 0 -5 -17 -17 -37 -27
-21 -9 -56 -30 -78 -45 -22 -16 -63 -43 -90 -61 -28 -18 -71 -42 -96 -54 -25
-12 -51 -29 -59 -38 -7 -9 -32 -26 -54 -37 -23 -11 -50 -28 -61 -38 -11 -9
-60 -41 -110 -70 -49 -29 -108 -65 -130 -80 -22 -15 -47 -30 -55 -33 -8 -4
-27 -15 -41 -25 -15 -9 -42 -29 -60 -43 -19 -14 -42 -29 -52 -32 -14 -5 -16
-3 -8 11 5 9 54 60 108 112 54 53 127 122 163 155 36 32 148 140 250 239 102
100 268 260 370 356 102 96 261 250 355 342 93 92 224 218 290 280 66 62 201
192 300 290 99 97 288 284 420 415 133 131 321 315 419 408 98 94 202 193 230
220 28 28 81 77 116 109 36 32 142 132 235 221 94 89 188 178 210 198 22 20
45 37 51 37z"/>
</g>
<g>
<path d="M7791 15975 c-26 13 -30 13 -45 -3 -8 -10 -13 -27 -11 -38 3 -10 11
-47 19 -81 8 -34 16 -103 20 -155 3 -51 8 -172 12 -268 3 -96 7 -195 9 -220 2
-25 4 -53 4 -63 1 -10 12 -22 26 -27 16 -6 25 -17 25 -30 0 -16 13 -26 48 -41
26 -12 88 -39 137 -61 50 -22 104 -46 120 -53 17 -8 55 -25 85 -38 30 -13 102
-43 160 -66 58 -23 123 -50 145 -61 22 -10 65 -29 95 -40 30 -12 64 -23 75
-25 11 -2 67 -27 124 -55 57 -28 127 -69 157 -91 29 -21 58 -39 63 -39 5 0 62
-27 126 -60 64 -33 122 -60 129 -60 8 0 19 -7 26 -15 7 -8 25 -15 40 -15 15 0
33 -7 40 -15 7 -8 35 -22 62 -30 27 -8 60 -23 75 -35 14 -11 37 -20 50 -20 14
0 36 -9 50 -20 14 -11 32 -20 39 -20 7 0 25 -5 41 -12 15 -6 33 -12 38 -12 6
-1 26 -5 45 -10 19 -4 51 -16 70 -26 19 -9 58 -25 85 -35 28 -9 71 -25 97 -34
25 -9 52 -22 60 -28 7 -6 42 -21 78 -33 36 -11 79 -27 95 -34 17 -8 41 -17 55
-21 14 -4 50 -20 80 -35 30 -15 93 -42 140 -59 47 -18 93 -37 102 -42 10 -5
23 -9 29 -9 6 0 38 -13 71 -30 32 -16 66 -30 74 -30 9 0 28 -8 42 -19 15 -10
76 -41 135 -70 59 -28 116 -51 127 -51 10 0 21 -4 24 -9 3 -5 30 -14 58 -21
29 -7 63 -18 75 -26 12 -8 33 -14 47 -14 14 0 27 4 30 8 2 4 2 27 -1 50 -5 35
-10 43 -32 48 -14 3 -34 8 -45 11 -14 4 -17 11 -12 34 4 22 1 31 -14 39 -10 5
-27 10 -37 10 -10 0 -62 22 -115 49 -53 27 -128 70 -168 95 -39 26 -116 70
-171 99 -55 29 -108 57 -117 62 -9 6 -62 40 -117 76 -55 37 -145 96 -200 132
-55 36 -147 91 -205 122 -58 32 -116 65 -130 74 -14 9 -77 42 -140 74 -63 32
-124 64 -135 70 -11 7 -52 34 -93 60 -40 27 -112 69 -160 94 -48 25 -114 59
-147 76 -33 18 -102 60 -153 95 -51 34 -95 62 -98 62 -3 0 -50 33 -105 73 -55
39 -120 86 -143 102 -24 17 -70 49 -102 73 -33 23 -86 63 -119 87 -33 25 -76
56 -95 70 -19 14 -46 32 -60 42 -14 9 -63 44 -110 77 -47 33 -89 66 -95 72 -5
6 -38 31 -72 54 -35 23 -65 46 -68 50 -3 5 -55 43 -116 85 -61 42 -131 97
-156 121 -24 24 -57 51 -72 59z m59 -145 c5 0 17 -8 27 -18 10 -10 38 -34 63
-54 25 -19 52 -37 60 -40 8 -3 41 -26 72 -52 31 -25 63 -46 71 -46 8 0 17 -9
20 -19 2 -10 18 -27 33 -37 16 -10 56 -39 89 -65 33 -25 76 -55 95 -67 19 -12
49 -28 65 -36 17 -8 58 -39 92 -68 34 -29 81 -66 104 -83 23 -16 49 -34 57
-40 8 -5 22 -17 31 -25 9 -8 34 -24 56 -35 22 -11 41 -23 43 -27 2 -4 27 -24
55 -45 29 -21 61 -43 72 -50 11 -7 30 -17 43 -22 12 -6 22 -15 22 -20 0 -5 12
-14 28 -20 15 -6 36 -16 47 -23 11 -7 37 -28 58 -45 20 -18 44 -33 53 -33 9 0
33 -13 54 -30 21 -16 41 -30 45 -30 4 0 30 -13 57 -30 26 -16 57 -30 68 -30
10 0 21 -4 24 -9 3 -5 24 -18 46 -30 22 -12 47 -21 55 -21 8 0 31 -16 51 -36
20 -20 57 -48 82 -62 26 -14 70 -38 97 -53 28 -15 75 -40 105 -56 30 -15 89
-47 129 -71 41 -24 84 -48 95 -53 12 -5 39 -20 61 -34 22 -13 51 -29 65 -36
14 -6 30 -14 36 -18 7 -3 43 -27 81 -53 38 -27 73 -48 77 -48 4 0 26 -15 49
-34 23 -19 54 -37 69 -41 15 -4 29 -13 31 -20 3 -7 27 -27 54 -45 26 -18 109
-64 183 -103 74 -38 137 -73 140 -76 3 -4 21 -17 40 -29 19 -12 31 -22 27 -22
-5 0 -27 11 -50 23 -23 13 -71 32 -107 42 -36 10 -81 25 -100 33 -19 9 -75 30
-125 48 -49 18 -109 39 -133 48 -24 9 -53 23 -65 30 -12 8 -58 26 -102 41 -44
15 -87 33 -95 39 -8 7 -40 20 -70 30 -30 11 -77 29 -105 41 -27 13 -72 31
-100 40 -27 10 -63 23 -80 30 -16 7 -66 25 -110 39 -44 15 -89 31 -100 36 -11
4 -55 24 -98 44 -43 20 -82 36 -87 36 -5 0 -24 8 -42 18 -18 10 -64 31 -102
46 -37 15 -111 48 -163 73 -53 25 -161 83 -241 129 -80 46 -148 84 -151 84 -3
0 -19 7 -34 15 -15 8 -42 19 -60 24 -18 5 -54 18 -82 29 -27 10 -109 42 -182
71 -73 28 -137 51 -143 51 -5 0 -10 4 -10 9 0 5 -22 17 -50 26 -27 9 -52 21
-55 26 -4 5 -13 9 -21 9 -8 0 -39 15 -68 34 -29 18 -62 37 -74 40 -11 4 -40
18 -64 32 -24 13 -51 27 -60 30 -14 5 -18 19 -19 58 -1 28 -3 62 -4 76 -2 14
-10 126 -19 250 -8 124 -16 241 -17 260 0 19 -1 38 0 43 1 4 5 7 11 7z"/>
</g>
<g>
<path d="M7650 12924 c-52 3 -106 3 -120 0 -14 -2 -56 -9 -95 -15 -38 -6 -105
-20 -149 -30 -43 -11 -91 -19 -105 -19 -15 0 -31 -4 -37 -8 -5 -5 -38 -17 -74
-27 -36 -10 -105 -31 -155 -48 -49 -16 -117 -42 -151 -57 -34 -15 -97 -51
-140 -81 -43 -29 -114 -80 -157 -113 -43 -34 -108 -88 -145 -121 -37 -33 -95
-96 -129 -140 -34 -44 -93 -143 -133 -220 -39 -77 -77 -167 -85 -200 -9 -33
-20 -85 -26 -115 -6 -30 -16 -95 -23 -145 -7 -49 -12 -124 -11 -165 2 -41 6
-102 10 -135 4 -33 15 -87 25 -120 11 -33 27 -89 36 -125 10 -36 23 -72 29
-80 7 -8 29 -46 51 -83 21 -38 50 -88 64 -111 14 -24 41 -59 60 -78 19 -19 42
-44 50 -54 8 -10 29 -38 46 -62 18 -24 51 -64 75 -89 24 -25 66 -63 95 -85 28
-21 79 -52 113 -68 34 -17 66 -30 72 -30 5 0 27 -11 47 -25 20 -14 45 -25 54
-25 10 0 26 -4 36 -10 9 -5 60 -21 112 -34 52 -14 135 -30 184 -35 74 -9 94
-15 116 -36 14 -14 33 -25 41 -25 8 0 19 -4 24 -9 6 -6 30 -11 55 -11 25 -1
102 1 172 5 l127 8 9 -24 c5 -13 14 -96 21 -184 6 -88 12 -194 14 -236 l2 -75
-140 -13 c-77 -7 -194 -17 -260 -22 -66 -6 -210 -12 -320 -15 -110 -2 -234 -6
-275 -8 -41 -2 -103 -4 -137 -5 l-61 -1 -13 -37 c-6 -21 -20 -50 -30 -64 -10
-15 -23 -37 -28 -50 -5 -13 -28 -48 -50 -78 -23 -30 -41 -61 -41 -68 0 -8 -9
-30 -20 -51 -12 -20 -31 -53 -43 -73 -12 -19 -31 -51 -42 -69 -11 -18 -40 -63
-63 -99 -24 -36 -50 -79 -59 -94 -8 -16 -29 -48 -48 -72 -18 -24 -45 -68 -59
-97 -14 -29 -38 -74 -53 -100 -16 -25 -47 -70 -69 -100 -23 -29 -45 -64 -49
-78 -4 -14 -17 -38 -30 -55 -12 -16 -40 -64 -61 -105 -22 -41 -48 -87 -58
-102 -10 -15 -16 -37 -14 -50 2 -12 14 -28 27 -34 15 -8 34 -9 54 -3 17 5 141
6 276 3 135 -3 301 -5 368 -4 87 1 123 -2 129 -11 4 -7 9 -139 11 -293 3 -155
4 -319 3 -366 -1 -47 -3 -290 -4 -540 -1 -250 -5 -504 -9 -565 -5 -60 -12
-139 -17 -175 -5 -36 -13 -144 -17 -240 -4 -96 -8 -319 -8 -495 0 -176 4 -509
8 -740 4 -231 10 -600 13 -820 2 -220 9 -433 14 -473 6 -40 10 -135 10 -210 1
-75 7 -240 14 -367 7 -126 14 -237 14 -245 1 -8 4 -40 6 -70 2 -30 7 -147 11
-260 4 -113 10 -233 15 -268 5 -34 6 -86 3 -116 l-5 -53 53 -26 c29 -15 58
-27 64 -27 6 0 30 -9 53 -20 23 -11 57 -23 75 -27 17 -3 69 -24 114 -45 45
-21 101 -45 123 -53 22 -8 40 -12 40 -8 0 3 6 0 14 -6 7 -6 45 -20 84 -30 60
-16 74 -16 89 -5 17 12 17 15 -2 51 -20 36 -23 38 -130 64 -60 15 -135 37
-165 49 -30 13 -80 33 -110 45 -30 12 -75 29 -100 39 -25 9 -58 26 -73 38 -25
21 -29 32 -38 118 -5 52 -9 120 -8 150 1 30 -1 62 -4 70 -4 8 -11 94 -17 190
-5 96 -16 265 -25 375 -9 110 -16 272 -15 359 0 88 -4 196 -9 240 -6 45 -13
209 -16 366 -3 157 -8 452 -10 655 -3 204 -10 550 -16 770 -6 220 -8 454 -4
520 4 66 9 123 11 126 2 3 4 48 5 100 0 52 8 171 16 264 8 94 17 225 20 292
l6 121 91 6 c50 4 200 8 334 11 133 2 246 6 250 8 4 3 97 9 207 13 110 5 279
9 375 9 96 0 258 -4 360 -8 102 -4 214 -10 250 -13 36 -3 79 -7 96 -10 l31 -6
7 -281 c3 -155 6 -361 7 -457 0 -96 -2 -283 -6 -415 -3 -132 -7 -298 -10 -370
-3 -71 -10 -240 -16 -375 -7 -135 -13 -330 -16 -435 -2 -104 -4 -201 -5 -215
-1 -14 0 -115 1 -225 1 -110 6 -281 11 -380 6 -99 12 -349 14 -555 2 -206 7
-386 11 -400 3 -14 8 -63 10 -110 3 -47 7 -114 11 -150 3 -36 5 -84 5 -108 -2
-40 0 -43 29 -48 17 -4 33 -11 36 -15 3 -5 12 -9 19 -9 8 0 36 -13 62 -29 27
-16 68 -35 93 -41 25 -7 90 -33 145 -60 55 -26 112 -50 127 -54 21 -5 30 -2
38 14 8 15 7 27 -4 49 -9 16 -23 31 -31 35 -9 3 -27 6 -39 6 -12 0 -45 11 -72
25 -27 14 -54 25 -61 25 -7 0 -54 21 -105 46 -51 26 -108 57 -125 71 -23 17
-33 32 -33 51 0 15 -10 99 -21 187 -17 126 -22 224 -25 460 -2 165 -9 424 -15
575 -7 151 -13 374 -13 495 -1 121 3 315 7 430 5 116 10 260 12 320 3 61 7
144 11 185 4 41 8 136 11 210 2 74 5 453 6 841 2 562 5 709 15 722 11 13 10
22 -6 54 -17 33 -20 69 -26 263 -4 124 -8 243 -11 265 -2 22 -6 90 -10 150 -3
61 -12 200 -20 310 -8 110 -17 259 -20 330 -3 72 -8 145 -11 163 -4 17 -7 55
-8 82 l-2 50 50 0 c28 0 121 7 206 15 85 8 194 19 242 24 48 5 96 14 107 20
11 6 60 11 110 11 76 0 94 3 110 19 13 13 17 27 13 47 -3 16 -22 49 -44 73
-21 24 -38 50 -38 57 0 7 -11 26 -25 42 -14 17 -43 65 -66 109 -22 43 -55 101
-73 128 -19 28 -44 66 -56 85 -13 19 -41 69 -63 110 -22 41 -59 104 -82 140
-23 36 -54 90 -69 120 -15 30 -37 66 -50 80 -12 14 -28 38 -36 54 -8 16 -23
39 -32 50 -10 12 -37 46 -61 76 -24 30 -52 71 -62 90 -10 19 -33 53 -52 76
-34 40 -37 41 -110 47 -41 3 -136 -1 -211 -9 -75 -8 -168 -21 -207 -29 -38 -8
-121 -17 -182 -20 l-113 -7 -2 49 c0 26 -2 59 -3 73 -1 14 -8 103 -15 197 -6
95 -10 179 -7 186 3 8 42 21 94 31 48 10 93 21 98 25 6 5 31 14 58 21 26 7 69
26 95 43 26 16 94 54 152 84 58 30 127 71 155 91 27 20 89 70 137 110 48 41
88 78 90 83 2 5 32 43 68 84 35 42 74 93 87 113 12 20 33 60 47 87 14 28 39
90 57 139 17 48 39 143 49 210 11 66 21 139 25 161 3 22 10 61 15 86 5 25 7
54 5 65 -2 10 -7 51 -10 89 -3 39 -8 84 -10 100 -2 17 -17 84 -34 150 -17 66
-44 154 -60 195 -16 41 -39 100 -51 130 -12 30 -33 69 -46 87 -13 17 -24 34
-24 37 0 3 -17 31 -37 62 -21 31 -42 64 -48 73 -5 9 -28 41 -50 71 -22 30 -48
67 -57 82 -10 15 -57 55 -105 89 -49 35 -127 82 -174 105 -61 30 -120 49 -210
68 -68 14 -162 33 -209 41 -47 8 -128 17 -180 19z m-15 -81 c50 -3 104 -7 120
-9 17 -2 82 -12 145 -23 63 -11 135 -26 160 -32 25 -7 74 -23 110 -37 36 -14
86 -41 113 -59 26 -18 49 -33 52 -33 3 0 29 -18 58 -41 29 -22 69 -61 91 -87
21 -26 60 -79 86 -118 27 -39 68 -108 93 -155 25 -46 54 -102 65 -124 11 -22
27 -56 35 -75 8 -19 29 -75 47 -125 18 -49 41 -130 52 -180 13 -57 21 -131 22
-200 0 -60 -2 -130 -6 -155 -4 -25 -16 -88 -27 -141 -11 -52 -38 -152 -61
-221 -22 -70 -49 -137 -59 -150 -10 -12 -33 -50 -52 -83 -18 -33 -63 -88 -99
-122 -36 -35 -72 -69 -80 -77 -8 -8 -48 -48 -88 -89 -50 -52 -91 -84 -129
-101 -30 -15 -61 -26 -67 -26 -7 0 -34 -14 -62 -32 -27 -18 -58 -38 -69 -44
-11 -7 -40 -22 -64 -33 -24 -12 -82 -34 -130 -50 -47 -16 -107 -33 -133 -36
l-46 -7 -7 48 c-3 27 -10 56 -14 64 -4 8 -20 16 -34 18 -18 2 -29 -3 -37 -18
-6 -12 -8 -35 -5 -53 4 -18 8 -39 11 -47 3 -12 -8 -15 -64 -14 -37 0 -96 4
-132 8 -36 4 -110 14 -165 22 -55 9 -149 25 -210 36 -60 11 -149 30 -196 44
-47 13 -134 46 -193 73 -58 28 -132 70 -164 95 -31 24 -69 57 -83 72 -14 16
-50 61 -79 99 -29 39 -69 87 -88 107 -19 20 -44 53 -56 72 -12 20 -44 75 -73
123 -28 49 -61 117 -73 153 -12 36 -26 88 -31 115 -5 28 -14 86 -19 130 -6 44
-7 118 -5 165 3 47 10 121 16 165 6 44 24 123 41 175 16 52 43 124 60 160 17
36 51 94 75 130 24 36 55 81 69 100 13 19 48 59 77 89 29 29 82 78 120 108 37
29 67 58 67 62 0 5 8 11 18 15 9 3 58 31 107 61 50 31 127 74 171 95 45 22
101 44 125 49 24 5 73 19 109 31 36 12 72 25 80 28 8 3 18 5 22 4 4 -1 24 4
45 12 21 7 88 23 148 34 61 12 130 26 155 31 25 5 86 7 135 4z m743 -3269 c8
-2 22 -4 31 -4 15 0 19 -13 26 -82 4 -46 10 -119 12 -163 2 -44 3 -168 2 -275
-1 -107 -1 -289 0 -405 1 -115 5 -246 10 -290 5 -44 9 -81 8 -82 -1 -1 -49 -4
-107 -7 -58 -4 -149 -8 -202 -11 -96 -4 -98 -4 -104 19 -3 13 -3 59 0 102 4
44 7 101 8 127 1 33 -4 54 -16 65 -9 9 -42 22 -74 29 -31 7 -109 19 -172 28
-75 10 -146 13 -205 9 -49 -3 -135 -17 -190 -31 -95 -25 -102 -28 -147 -77
-34 -37 -47 -59 -48 -82 0 -17 11 -53 25 -80 20 -40 25 -64 25 -126 0 -42 -3
-79 -7 -81 -5 -3 -161 -6 -347 -8 l-339 -4 2 85 c1 47 5 139 9 205 4 66 7 188
7 270 0 83 -4 247 -8 365 -4 118 -10 249 -13 290 l-6 75 83 1 c46 1 120 5 164
8 44 4 143 9 220 11 77 3 154 6 170 9 17 2 80 7 140 11 61 4 119 9 129 11 11
2 51 6 90 9 39 3 123 7 186 10 63 3 126 5 140 5 14 0 97 11 185 24 88 14 192
29 230 34 39 5 76 8 83 6z m164 -104 c11 -14 58 -76 104 -138 46 -62 84 -117
84 -122 0 -5 20 -38 44 -74 25 -35 63 -100 86 -143 22 -43 50 -85 60 -95 11
-9 20 -23 20 -32 0 -8 4 -18 10 -21 5 -3 19 -28 31 -55 11 -26 32 -58 45 -71
13 -12 24 -30 24 -38 1 -9 23 -52 50 -96 27 -44 61 -104 75 -133 15 -28 35
-57 46 -62 10 -6 19 -19 19 -30 0 -12 -9 -20 -27 -24 -16 -2 -68 -10 -118 -16
-49 -7 -135 -19 -190 -27 -55 -8 -160 -17 -232 -20 -110 -5 -133 -3 -134 8 0
8 -2 23 -5 34 -2 11 -8 141 -13 288 -5 147 -7 276 -5 285 2 9 6 87 9 172 3 85
6 160 6 165 0 6 -2 69 -4 140 l-5 130 20 -25z m-2081 -130 c3 0 11 -48 18
-107 7 -60 14 -121 15 -138 2 -16 8 -95 14 -175 5 -80 8 -190 6 -245 -1 -55
-8 -190 -13 -300 -6 -110 -11 -211 -11 -224 l0 -23 -366 5 c-202 3 -369 8
-372 11 -3 3 2 14 10 23 9 10 19 29 23 42 4 13 20 46 36 73 16 27 29 51 29 54
0 3 11 20 25 38 14 18 32 54 41 79 8 25 24 53 35 63 10 9 19 22 19 28 0 6 12
24 26 39 14 15 43 61 64 102 21 42 50 91 64 110 14 18 26 37 26 41 0 4 15 25
33 48 18 23 51 70 73 106 22 36 46 80 53 98 8 17 17 32 22 32 4 0 11 10 14 23
4 12 17 36 29 52 12 17 35 56 51 87 17 32 33 58 36 58z m1194 -786 c28 -1 101
-10 164 -20 95 -15 115 -21 128 -40 8 -13 12 -28 8 -34 -3 -5 -13 -10 -21 -10
-8 0 -14 4 -14 8 0 4 -15 13 -32 19 -18 6 -57 17 -87 23 -34 8 -88 11 -144 7
-49 -3 -95 -11 -100 -16 -6 -6 -19 -11 -29 -11 -9 0 -42 -9 -73 -21 -39 -15
-59 -28 -65 -45 -5 -13 -13 -24 -17 -24 -5 0 -13 4 -20 8 -6 4 -16 20 -22 35
-9 23 -7 29 13 42 12 8 67 28 122 44 54 16 108 31 119 33 11 2 43 3 70 2z
m290 -195 c7 1 16 -69 24 -186 6 -104 14 -231 15 -283 3 -72 0 -100 -12 -118
-8 -13 -38 -35 -66 -50 -48 -24 -60 -26 -196 -26 -133 -1 -151 1 -215 26 -38
14 -78 29 -87 33 -10 4 -22 24 -28 46 -6 21 -10 55 -9 76 1 21 -1 71 -5 111
-4 47 -3 86 4 108 9 26 9 38 0 49 -6 7 -15 46 -19 87 -5 40 -7 76 -5 80 2 3
24 0 49 -8 26 -7 69 -11 98 -9 29 3 111 9 182 15 72 5 146 11 166 14 20 2 50
11 65 19 16 8 34 15 39 16z m506 -179 c11 0 19 -10 23 -27 3 -16 10 -82 16
-148 6 -66 12 -167 14 -225 3 -58 12 -204 20 -325 9 -121 20 -256 26 -300 5
-44 8 -105 7 -135 0 -30 0 -135 2 -233 2 -98 2 -179 0 -181 -2 -1 -119 3 -259
11 -140 7 -352 11 -470 9 -118 -2 -246 -6 -285 -9 -38 -2 -167 -7 -285 -11
-118 -3 -322 -9 -452 -11 l-238 -5 -2 117 c0 65 -1 125 0 133 1 8 1 159 1 335
-1 176 -2 441 -3 589 -1 180 1 269 8 272 6 2 72 5 146 8 74 2 231 6 348 8
l212 3 2 -85 c2 -47 3 -112 3 -145 0 -33 6 -73 13 -90 9 -21 32 -40 77 -64 35
-19 87 -38 115 -43 27 -4 74 -12 103 -17 28 -5 87 -10 129 -10 42 -1 100 4
129 10 29 6 66 18 83 25 17 8 47 25 67 37 20 12 47 29 59 37 18 13 22 25 22
60 -1 25 -6 79 -11 120 -6 41 -11 118 -11 170 l0 95 38 2 c20 1 102 5 182 9
80 3 147 8 149 10 2 2 12 4 22 4z"/>
<g>
<path d="M8114 12730 c-20 0 -43 -9 -58 -22 -13 -13 -27 -36 -30 -53 -5 -26
-2 -33 28 -53 20 -13 51 -24 75 -25 22 -1 46 4 52 10 6 6 12 30 13 52 0 29 -6
47 -23 65 -17 18 -35 26 -57 26z"/>
</g>
<g>
<path d="M6835 12595 c-16 2 -39 1 -51 -4 -11 -5 -26 -27 -34 -51 -9 -28 -11
-47 -4 -57 5 -8 27 -21 49 -29 22 -7 50 -14 63 -14 12 0 31 9 43 21 14 14 19
30 17 56 -2 25 -11 42 -28 54 -14 10 -38 21 -55 24z"/>
</g>
<g>
<path d="M7585 12546 c-20 4 -27 -1 -35 -21 -6 -15 -10 -32 -10 -39 0 -7 9
-21 20 -31 11 -10 34 -41 52 -69 18 -28 35 -53 38 -56 3 -3 26 -33 53 -67 26
-34 47 -67 47 -75 0 -7 -8 -26 -18 -43 -10 -16 -21 -39 -24 -51 -3 -12 -1 -29
4 -38 5 -9 19 -16 32 -16 13 0 29 8 37 18 8 9 27 40 42 68 15 29 27 67 27 86
0 26 -8 41 -32 64 -18 16 -53 53 -78 82 -25 29 -55 70 -66 92 -12 21 -31 51
-42 65 -12 14 -32 28 -47 31z"/>
</g>
<g>
<path d="M8063 11771 c-11 4 -23 5 -26 3 -2 -3 -53 -7 -113 -9 -60 -2 -154
-14 -209 -25 -55 -12 -149 -30 -210 -41 -60 -10 -116 -21 -122 -24 -7 -2 -13
-17 -13 -33 0 -16 8 -36 18 -45 16 -15 23 -15 77 -1 33 8 68 19 78 25 10 5 22
7 26 5 5 -3 33 1 62 8 30 8 74 16 99 20 25 3 95 9 155 13 61 3 130 7 155 7
l45 1 0 44 c0 36 -4 45 -22 52z"/>
</g>
<g>
<path d="M7710 9270 c-15 8 -21 6 -29 -8 -7 -13 -6 -25 3 -38 7 -10 16 -31 20
-46 4 -18 0 -43 -13 -70 -10 -24 -24 -58 -31 -75 -7 -18 -9 -48 -6 -66 4 -19
14 -41 24 -50 9 -8 36 -17 59 -21 29 -3 43 -1 46 8 3 7 2 17 -1 23 -4 5 -17
15 -29 22 -13 6 -26 23 -29 36 -4 17 2 39 20 69 17 28 26 59 26 86 0 22 -9 58
-20 80 -11 22 -29 44 -40 50z"/>
</g>
<g>
<path d="M7427 9190 c-4 0 -8 -3 -9 -7 0 -5 -2 -35 -2 -69 -1 -55 -5 -65 -38
-107 -34 -40 -38 -52 -38 -100 0 -39 6 -62 19 -78 15 -19 28 -23 72 -24 42 0
54 3 54 15 0 8 -7 14 -16 12 -9 -1 -24 7 -33 17 -10 11 -20 37 -23 58 -4 31 0
45 19 68 14 17 33 44 43 61 13 22 16 41 11 66 -3 20 -17 47 -29 62 -12 14 -26
26 -30 26z"/>
</g>
</g>
</g>
</svg>
