<?xml version="1.0" standalone="no"?>
<!DOCTYPE svg PUBLIC "-//W3C//DTD SVG 20010904//EN"
 "http://www.w3.org/TR/2001/REC-SVG-20010904/DTD/svg10.dtd">
<svg version="1.0" xmlns="http://www.w3.org/2000/svg"
 width="1246.000000pt" height="962.000000pt" viewBox="0 0 1246.000000 962.000000"
 preserveAspectRatio="xMidYMid meet">
<metadata>
Created by potrace 1.16, written by Peter Selinger 2001-2019
</metadata>
<g transform="translate(0.000000,962.000000) scale(0.100000,-0.100000)"
fill="#000000" stroke="none">
<g>
<path d="M2340 8929 l-225 0 -105 -34 c-58 -19 -114 -40 -125 -46 -11 -7 -29
-17 -40 -23 -11 -6 -34 -24 -52 -40 -17 -15 -42 -34 -55 -42 -13 -7 -36 -19
-53 -27 -16 -8 -47 -34 -68 -58 -21 -24 -64 -78 -95 -119 -32 -41 -76 -103
-99 -137 -23 -34 -51 -81 -62 -105 -10 -24 -25 -61 -32 -83 -7 -24 -12 -91
-12 -165 0 -69 3 -150 6 -180 4 -30 8 -76 10 -102 2 -28 20 -79 45 -132 23
-47 42 -89 42 -94 0 -5 17 -31 38 -58 20 -28 58 -75 83 -105 25 -30 61 -77 81
-105 20 -28 38 -60 42 -70 3 -11 21 -34 39 -51 17 -17 74 -52 125 -78 50 -25
92 -52 92 -60 0 -7 10 -19 23 -27 12 -8 33 -17 47 -21 14 -3 45 -13 70 -22 25
-9 101 -25 170 -36 69 -11 134 -23 145 -28 19 -8 20 -15 14 -107 -3 -55 -4
-225 -2 -379 1 -154 5 -296 9 -315 3 -19 7 -89 9 -155 1 -66 6 -187 10 -270 4
-82 11 -231 15 -330 5 -99 12 -252 16 -340 4 -88 8 -176 7 -195 0 -19 -1 -48
-2 -65 -2 -16 2 -51 7 -76 6 -25 12 -108 13 -185 1 -87 7 -162 17 -199 11 -44
16 -114 16 -260 l1 -200 -110 -8 c-60 -4 -121 -8 -135 -9 -14 -1 -106 2 -205
7 -99 4 -246 4 -326 0 -140 -7 -147 -8 -157 -30 -6 -12 -18 -63 -26 -111 -9
-49 -21 -111 -27 -139 -5 -27 -16 -77 -23 -110 -7 -33 -18 -78 -24 -100 -6
-22 -14 -62 -17 -90 -3 -27 -10 -61 -16 -75 -5 -14 -16 -56 -25 -95 -9 -38
-20 -99 -25 -135 -4 -36 -11 -83 -14 -105 -3 -22 -14 -76 -25 -120 -10 -44
-23 -101 -29 -127 -6 -26 -11 -58 -11 -72 0 -15 8 -30 19 -36 11 -5 26 -10 34
-10 9 0 17 16 21 48 4 26 9 65 12 87 2 22 11 69 19 105 7 36 19 103 26 150 7
47 18 112 26 145 8 33 19 80 24 105 6 25 14 54 19 65 5 11 11 38 14 60 2 22
10 60 16 85 6 25 15 65 19 90 5 25 14 70 21 100 6 30 14 65 16 78 3 13 9 20
14 17 6 -3 10 -33 10 -66 0 -33 5 -69 11 -80 6 -12 12 -128 15 -292 4 -201 9
-288 20 -332 13 -48 17 -145 21 -495 2 -239 5 -551 5 -692 0 -141 -3 -261 -6
-266 -3 -5 2 -18 10 -30 8 -12 39 -33 68 -46 29 -13 59 -31 67 -39 8 -8 37
-24 63 -36 27 -11 55 -21 64 -21 8 0 42 -24 76 -53 34 -30 70 -59 82 -65 11
-6 25 -8 31 -4 6 4 8 22 5 40 -3 25 -14 40 -46 60 -22 15 -52 37 -65 49 -13
12 -38 28 -55 37 -17 8 -56 26 -87 40 -32 15 -76 43 -99 64 l-41 37 -4 469
c-2 258 -7 520 -11 583 l-6 113 98 2 c55 1 113 3 129 4 17 0 64 9 107 18 54
13 125 18 245 19 92 1 244 -2 338 -7 93 -4 172 -9 175 -11 3 -1 129 -6 280
-10 151 -4 278 -10 282 -13 4 -4 8 -27 8 -52 1 -25 -1 -257 -4 -517 -4 -259
-9 -493 -11 -520 -3 -26 -8 -67 -11 -90 -3 -24 -1 -57 7 -80 7 -21 20 -46 28
-55 8 -10 24 -18 37 -18 12 0 35 -5 49 -10 15 -6 50 -29 78 -53 28 -23 60 -50
71 -59 11 -10 30 -18 44 -18 20 0 22 3 16 23 -4 12 -7 29 -6 39 0 9 -29 42
-65 75 -36 32 -90 91 -120 132 -50 67 -56 81 -63 141 -4 36 -4 93 1 125 5 33
8 255 8 492 0 318 3 439 12 455 7 13 13 36 15 53 1 16 -2 33 -7 36 -6 3 -10
14 -9 25 0 10 2 120 4 244 3 124 9 249 15 279 6 29 11 72 11 94 0 38 1 40 15
21 8 -10 15 -40 15 -66 0 -25 9 -67 20 -93 11 -25 27 -85 37 -133 9 -48 25
-96 35 -108 10 -11 15 -23 12 -27 -4 -4 1 -37 9 -74 9 -38 19 -87 22 -110 3
-23 9 -53 14 -66 6 -14 7 -27 4 -31 -3 -3 -2 -13 3 -23 4 -10 9 -25 10 -33 1
-8 8 -42 14 -75 6 -33 18 -70 26 -83 9 -13 23 -22 32 -20 11 2 19 17 23 42 3
21 3 50 -2 65 -4 14 -15 51 -24 81 -9 30 -21 80 -26 110 -5 30 -14 75 -18 100
-5 25 -12 63 -16 85 -4 22 -9 47 -12 55 -4 8 -5 18 -5 23 1 4 -3 29 -9 55 -7
26 -18 56 -26 67 -7 11 -13 31 -13 45 0 14 -7 45 -16 70 -9 25 -20 50 -25 57
-6 6 -9 17 -8 25 2 7 -1 38 -5 68 -4 30 -11 64 -16 75 -5 11 -18 69 -30 130
-13 65 -19 124 -16 147 5 32 3 40 -19 54 -18 12 -38 15 -66 11 -22 -3 -83 1
-135 9 -52 8 -97 13 -101 12 -5 -1 -24 1 -43 5 -19 4 -46 9 -60 12 -14 3 -135
10 -270 16 -135 7 -247 13 -249 15 -2 2 -4 16 -4 31 0 16 0 87 1 158 1 72 -3
171 -8 220 -6 50 -18 152 -26 227 -8 76 -13 147 -9 157 3 11 1 93 -5 183 -7
90 -14 210 -17 268 -2 58 -6 146 -8 195 -2 50 -7 140 -11 200 -3 61 -7 126 -9
145 -1 19 -5 179 -10 355 -4 176 -9 324 -12 328 -3 4 -4 103 -3 220 0 117 4
253 8 302 l7 90 65 1 c36 1 85 7 109 13 24 7 94 29 155 50 62 21 124 45 137
54 13 9 29 17 36 17 7 0 39 13 72 29 32 15 76 41 97 57 22 15 66 53 100 84 33
30 83 75 110 100 38 35 62 72 107 165 32 66 64 131 71 145 7 14 11 42 9 63 -3
20 -1 43 4 50 6 6 16 65 23 129 12 106 11 123 -4 182 -10 35 -17 75 -15 88 1
12 -3 42 -10 65 -6 23 -16 45 -21 48 -6 3 -10 15 -10 27 0 11 -7 36 -16 56 -8
21 -24 55 -36 77 -11 22 -28 54 -36 70 -9 17 -60 74 -114 128 -55 54 -131 121
-171 150 -40 29 -88 58 -107 64 -19 6 -51 14 -70 18 -19 4 -75 23 -125 42 -49
19 -110 39 -135 43 -25 5 -65 14 -90 19 -25 6 -146 10 -270 10z m-10 -73 c96
-2 209 -9 250 -16 41 -6 116 -23 165 -36 50 -14 99 -29 110 -34 11 -5 45 -16
75 -26 30 -9 71 -28 90 -41 19 -12 58 -39 85 -59 28 -19 74 -59 103 -87 30
-29 69 -68 87 -87 18 -19 42 -46 52 -60 11 -14 28 -47 38 -75 10 -27 28 -72
40 -100 13 -27 31 -86 41 -130 10 -44 18 -114 18 -155 0 -41 -5 -124 -11 -185
-7 -60 -16 -123 -22 -140 -5 -16 -17 -49 -25 -73 -9 -23 -30 -68 -48 -100 -18
-31 -61 -85 -96 -120 -34 -34 -80 -73 -100 -87 -20 -13 -57 -42 -82 -65 -25
-23 -90 -63 -145 -90 -55 -26 -118 -51 -140 -55 -22 -4 -51 -13 -65 -20 -14
-7 -47 -21 -74 -30 -28 -10 -74 -17 -110 -17 -33 1 -99 2 -146 2 -47 0 -128 7
-180 16 -68 10 -119 26 -180 55 -47 22 -110 53 -140 67 -30 15 -73 41 -94 57
-22 17 -54 46 -73 66 -18 20 -61 74 -95 121 -35 46 -85 116 -111 156 -27 40
-64 106 -83 147 -19 40 -38 96 -44 122 -5 26 -13 73 -19 103 -5 30 -8 103 -6
163 2 60 11 132 20 165 9 31 23 68 30 82 7 14 18 36 24 50 7 14 20 41 31 60
10 19 53 73 94 120 42 47 82 92 89 100 7 8 30 29 49 47 20 18 72 50 115 72 43
22 108 54 146 70 37 17 82 31 100 31 17 0 39 5 47 10 9 5 88 8 190 6z m135
-5126 c22 0 46 -5 52 -11 7 -7 34 -8 84 -2 41 4 142 5 224 2 83 -4 213 -17
290 -29 77 -12 178 -27 225 -33 l85 -12 6 -110 c3 -60 4 -166 3 -235 -2 -69
-8 -152 -14 -185 -7 -33 -11 -105 -9 -160 1 -55 3 -145 3 -200 l1 -100 -110 2
c-60 1 -166 2 -235 3 -69 0 -161 4 -205 10 -44 5 -107 11 -140 13 -33 2 -79 0
-103 -6 -31 -7 -46 -6 -57 3 -11 9 -63 13 -174 14 -120 1 -162 -2 -174 -13
-14 -11 -20 -11 -32 -1 -12 10 -37 11 -103 5 -48 -5 -145 -9 -217 -9 -119 -1
-130 0 -129 17 1 10 -4 64 -11 120 -7 56 -12 111 -13 122 0 11 0 83 -1 160 0
77 0 147 0 155 0 8 -5 74 -12 145 -6 72 -12 169 -12 217 -1 48 2 91 7 95 4 4
167 8 362 9 195 1 357 4 361 8 3 3 25 6 48 6z"/>
<g>
<path d="M1968 8429 c-7 0 -22 -4 -33 -9 -12 -4 -26 -14 -32 -21 -6 -8 -13
-24 -17 -35 -5 -15 1 -31 20 -53 17 -21 35 -31 54 -31 15 0 39 9 54 21 16 12
26 30 26 45 0 15 -12 38 -29 55 -16 16 -35 29 -43 28z"/>
</g>
<g>
<path d="M3023 8430 c-10 0 -35 -11 -56 -25 -25 -18 -37 -33 -37 -49 0 -13 13
-38 29 -55 24 -26 37 -31 73 -31 24 0 49 5 56 12 7 7 12 29 12 49 0 27 -8 45
-29 68 -16 17 -37 31 -48 31z"/>
</g>
<g>
<path d="M2544 8168 c-11 2 -27 -4 -34 -13 -12 -14 -11 -24 4 -63 10 -26 19
-54 21 -62 2 -8 13 -42 25 -75 12 -33 30 -76 41 -96 10 -20 19 -41 19 -46 0
-6 -24 -23 -52 -38 -29 -16 -56 -33 -60 -39 -4 -5 -2 -18 3 -28 7 -13 21 -18
51 -18 23 0 49 6 57 14 9 8 32 18 50 23 33 8 35 12 36 52 1 32 -7 57 -29 95
-17 28 -37 69 -45 91 -7 22 -19 46 -25 54 -6 8 -18 44 -26 80 -12 53 -19 67
-36 69z"/>
</g>
<g>
<path d="M2460 7532 c-74 2 -168 2 -207 0 -69 -3 -73 -4 -79 -28 -5 -17 -1
-31 10 -42 14 -15 44 -17 214 -18 108 -1 274 -2 367 -3 94 -2 176 -2 183 -2 7
1 12 9 10 19 -1 9 1 23 6 30 5 8 4 18 -2 24 -5 5 -64 10 -130 10 -66 0 -125
-3 -130 -6 -6 -3 -32 -2 -59 4 -26 5 -109 11 -183 12z"/>
</g>
</g>
<g>
<path d="M6170 8703 c-8 3 -24 2 -35 -3 -11 -5 -37 -9 -57 -9 -20 -1 -58 -12
-85 -26 -27 -13 -66 -38 -87 -55 -22 -16 -43 -30 -49 -30 -5 0 -40 -24 -76
-54 -37 -30 -80 -70 -96 -88 -17 -18 -38 -45 -47 -59 -9 -14 -23 -32 -30 -40
-8 -8 -41 -70 -75 -139 -34 -69 -67 -150 -74 -180 -7 -32 -13 -146 -15 -275
l-2 -220 59 -145 c32 -80 64 -156 70 -170 6 -14 18 -39 26 -57 8 -17 48 -64
88 -105 40 -40 101 -99 136 -130 35 -31 75 -65 89 -76 14 -10 48 -29 75 -41
28 -12 61 -29 75 -36 14 -7 55 -15 90 -16 36 -2 71 -5 78 -7 8 -3 12 -30 11
-91 0 -47 -4 -126 -8 -176 -4 -49 -1 -218 7 -375 7 -157 11 -329 9 -384 -3
-68 -9 -101 -18 -108 -8 -4 -27 -6 -44 -3 -16 2 -75 9 -129 15 -55 5 -153 8
-219 5 -66 -2 -142 -10 -171 -19 -28 -8 -69 -18 -91 -23 l-40 -8 -2 -53 c-1
-29 -6 -67 -12 -84 -6 -17 -11 -46 -11 -65 0 -18 -4 -41 -9 -51 -5 -9 -17 -52
-26 -94 -9 -42 -17 -94 -17 -115 0 -21 -6 -49 -13 -63 -7 -14 -16 -44 -20 -65
-4 -22 -10 -51 -15 -65 -5 -14 -14 -86 -21 -160 -6 -74 -14 -234 -16 -355 -2
-121 -8 -285 -13 -365 -5 -80 -12 -163 -15 -185 -4 -22 -8 -53 -10 -70 -2 -16
-7 -61 -10 -100 -4 -49 -2 -77 7 -95 8 -14 23 -26 34 -28 15 -2 23 4 28 20 4
13 9 70 10 128 2 58 9 150 15 205 6 55 13 150 16 210 3 61 7 175 9 255 2 80 8
195 12 255 5 61 7 130 6 155 -1 25 5 83 14 129 8 47 22 94 30 105 8 11 14 39
14 61 0 22 7 60 16 85 8 25 17 52 21 60 4 9 9 0 13 -24 4 -21 6 -84 4 -140 -2
-55 -6 -123 -9 -150 -2 -26 -1 -56 4 -65 4 -9 5 -50 1 -91 -3 -41 -3 -86 0
-100 4 -14 4 -36 0 -50 -4 -14 -2 -36 3 -50 6 -14 14 -117 18 -230 4 -113 12
-281 18 -375 6 -93 15 -194 20 -222 6 -40 5 -58 -6 -73 -8 -11 -12 -28 -9 -38
3 -9 8 -102 11 -205 2 -104 7 -193 11 -199 3 -5 8 -38 11 -71 2 -34 6 -96 8
-137 2 -41 6 -228 9 -415 3 -187 8 -356 12 -375 4 -19 8 -217 9 -440 1 -223 3
-411 4 -418 0 -7 19 -21 41 -31 22 -10 83 -54 135 -99 52 -45 104 -82 114 -82
11 0 22 4 25 8 2 4 2 27 -1 50 -5 37 -10 44 -48 63 -23 12 -60 37 -81 55 -21
19 -40 34 -43 34 -3 0 -23 15 -43 33 l-37 32 0 175 c0 96 -5 333 -10 525 -6
193 -11 400 -12 460 -1 61 -10 254 -20 430 -11 176 -18 374 -17 440 2 73 7
119 13 119 6 -1 92 -5 193 -8 121 -5 209 -3 262 5 49 7 85 8 93 2 6 -5 40 -10
75 -12 38 -2 68 2 77 9 11 9 22 9 50 0 19 -6 90 -12 158 -12 67 0 127 1 132 3
6 2 62 -3 127 -11 107 -12 117 -15 127 -37 7 -16 9 -64 4 -141 -3 -64 -4 -200
-2 -302 2 -102 3 -464 2 -805 0 -341 -4 -699 -8 -795 -6 -148 -4 -181 9 -212
12 -29 28 -42 73 -63 32 -15 76 -43 98 -62 22 -19 52 -45 67 -58 15 -13 44
-28 64 -34 20 -6 40 -8 45 -6 4 3 2 21 -4 41 -6 20 -24 45 -39 57 -16 12 -44
34 -62 49 -18 16 -51 36 -72 45 -22 10 -56 31 -76 47 l-36 30 6 340 c3 188 5
532 5 766 -1 234 -3 586 -5 783 -3 197 -1 360 4 363 4 3 8 14 8 25 0 11 -7 30
-14 42 -11 15 -15 50 -15 117 0 52 -2 165 -6 250 -3 85 -10 175 -15 200 -5 25
-12 88 -16 140 -4 52 -7 167 -6 255 1 88 4 171 6 185 3 14 8 95 12 180 3 85
11 163 16 174 5 10 13 14 17 10 4 -5 12 -31 19 -59 6 -27 14 -77 17 -110 3
-33 10 -73 15 -90 5 -16 12 -55 15 -85 3 -30 10 -125 15 -210 5 -85 14 -189
20 -230 6 -41 13 -102 15 -135 2 -33 7 -112 11 -175 3 -63 10 -123 16 -133 5
-10 9 -53 7 -95 -1 -42 2 -99 6 -127 4 -27 15 -58 23 -67 8 -10 23 -18 34 -18
11 0 18 7 18 19 0 11 4 23 10 26 6 3 4 18 -5 38 -8 18 -21 104 -30 192 -9 88
-18 183 -20 210 -2 28 -9 122 -16 210 -6 88 -13 174 -14 190 -2 17 -6 86 -10
155 -3 69 -11 157 -17 195 -5 39 -13 97 -18 130 -5 33 -18 102 -29 153 -11 50
-27 114 -35 140 -8 27 -20 100 -26 163 -7 63 -17 119 -22 124 -5 6 -50 10
-101 11 -51 0 -166 6 -257 12 -91 6 -208 17 -260 24 -52 6 -100 15 -107 20 -7
6 -9 34 -6 89 4 45 1 167 -6 272 -7 106 -13 266 -14 357 -1 91 2 217 5 280 l7
115 33 8 c18 5 58 12 88 17 30 5 75 14 100 21 25 7 49 16 55 20 5 5 20 9 35 9
14 0 45 7 70 16 25 8 59 21 77 29 17 8 37 15 45 16 7 0 36 8 63 18 28 9 65 26
84 36 18 11 58 42 87 69 30 27 69 60 87 75 19 14 50 53 70 86 20 33 54 114 77
180 38 112 41 128 42 240 1 66 -4 158 -10 205 -6 47 -13 94 -15 105 -2 11 -7
34 -11 50 -5 17 -22 66 -38 110 -17 44 -49 118 -72 165 -28 57 -63 108 -111
160 -38 41 -78 82 -90 90 -11 8 -24 20 -30 27 -5 6 -45 28 -88 47 -42 20 -83
36 -91 36 -7 0 -19 7 -26 15 -6 8 -22 17 -33 21 -12 3 -29 12 -37 20 -9 7 -60
24 -115 38 -63 16 -152 29 -240 35 -77 5 -147 12 -155 14z m44 -94 c65 1 158
-7 235 -20 69 -11 146 -28 171 -37 25 -8 56 -23 70 -32 14 -9 68 -37 120 -62
79 -39 108 -60 171 -125 44 -45 95 -112 122 -158 25 -44 60 -116 78 -160 17
-44 40 -129 51 -190 11 -60 21 -153 23 -205 2 -52 -1 -115 -7 -140 -5 -25 -16
-65 -24 -90 -7 -25 -25 -79 -40 -120 -14 -41 -28 -82 -31 -90 -3 -8 -48 -53
-99 -100 -52 -47 -105 -90 -117 -96 -12 -7 -65 -28 -117 -47 -52 -20 -111 -39
-130 -42 -19 -4 -39 -10 -45 -14 -5 -3 -39 -14 -75 -24 -36 -10 -87 -22 -115
-27 -27 -5 -90 -9 -140 -9 -60 0 -98 4 -115 14 -14 8 -35 14 -47 15 -16 0 -21
-4 -17 -15 4 -8 3 -15 -1 -15 -4 0 -39 14 -78 31 -40 18 -88 43 -107 58 -19
14 -57 45 -85 69 -27 23 -76 68 -108 100 -48 46 -71 82 -123 187 -35 72 -75
169 -88 215 -20 68 -24 109 -25 208 0 68 -2 126 -5 130 -3 5 2 55 11 112 8 58
19 114 23 125 5 11 16 37 25 59 8 21 15 47 15 57 0 10 8 23 19 28 10 6 31 35
46 66 16 30 31 55 34 55 4 0 17 18 31 40 14 22 28 40 31 40 4 0 21 14 39 30
18 17 36 30 41 30 5 0 9 7 9 15 0 8 9 15 19 15 11 0 33 11 49 25 17 14 33 25
37 25 4 0 21 10 38 22 17 12 51 28 76 34 25 7 95 13 155 13z m-316 -3065 c95
-2 176 -5 180 -8 4 -2 72 -7 149 -11 78 -3 168 -10 200 -15 32 -6 79 -10 105
-10 26 0 78 -4 115 -10 38 -5 127 -15 200 -21 80 -7 133 -16 136 -23 2 -6 0
-90 -5 -186 -4 -96 -10 -188 -13 -205 -3 -16 -7 -51 -10 -78 -3 -26 -6 -174
-7 -330 -2 -155 1 -327 5 -382 4 -55 9 -136 11 -180 2 -44 9 -131 15 -194 7
-63 14 -118 17 -122 2 -4 2 -38 -2 -75 l-7 -67 -86 7 c-47 4 -93 8 -101 8 -8
1 -44 0 -80 -1 -36 -2 -256 0 -490 3 -234 3 -449 10 -479 16 -30 5 -56 11 -57
13 -2 2 -6 57 -8 123 -3 65 -8 188 -12 273 -3 84 -11 167 -16 185 -6 17 -12
83 -15 146 -3 63 -5 337 -5 607 0 381 2 496 12 508 7 8 27 19 44 24 17 5 109
7 204 5z"/>
<g>
<path d="M5957 8250 c-7 0 -23 -10 -34 -22 -11 -13 -23 -39 -27 -58 -5 -32 -3
-38 23 -53 16 -9 40 -17 54 -17 16 0 34 10 46 26 12 15 21 36 21 48 0 11 -6
28 -13 37 -7 9 -22 21 -34 27 -12 7 -28 12 -36 12z"/>
</g>
<g>
<path d="M6795 8250 c-20 0 -39 -8 -53 -23 -13 -13 -22 -36 -22 -53 0 -16 4
-34 8 -40 4 -6 23 -16 43 -23 26 -8 43 -8 67 0 18 6 33 18 34 27 0 10 2 30 3
45 1 19 -6 34 -23 47 -14 11 -39 20 -57 20z"/>
</g>
<g>
<path d="M6438 8051 c-7 8 -23 13 -35 11 -18 -3 -23 -10 -23 -32 0 -16 14 -60
31 -97 17 -37 37 -87 46 -112 8 -24 17 -58 19 -75 2 -17 6 -45 10 -62 6 -30 4
-32 -43 -49 -26 -10 -58 -27 -70 -38 -13 -11 -23 -28 -23 -38 0 -10 10 -21 23
-25 12 -4 29 -7 37 -6 8 1 40 10 70 18 30 9 65 20 76 25 17 6 20 13 17 33 -3
14 -1 26 5 26 6 0 8 10 5 23 -3 12 -9 27 -13 32 -4 6 -15 39 -25 75 -9 36 -21
83 -27 105 -5 22 -23 64 -39 94 -16 30 -29 60 -29 66 0 6 -6 18 -12 26z"/>
</g>
<g>
<path d="M6353 7383 c-34 3 -64 3 -66 1 -2 -2 -39 -5 -83 -5 -43 -1 -85 -6
-91 -12 -7 -5 -13 -20 -13 -32 0 -12 7 -28 15 -35 11 -9 63 -14 173 -16 86 -1
189 -5 227 -8 39 -4 98 -11 133 -17 35 -5 67 -7 73 -4 5 4 9 17 9 30 0 13 5
27 10 30 8 5 7 11 -1 21 -8 10 -34 14 -87 14 -41 0 -112 6 -156 14 -45 8 -109
17 -143 19z"/>
</g>
</g>
<g>
<path d="M9750 8618 c-25 0 -92 -5 -150 -9 -68 -6 -131 -18 -180 -35 -41 -14
-115 -45 -165 -69 -49 -25 -107 -60 -128 -80 -21 -19 -42 -35 -47 -35 -5 0
-26 -15 -46 -32 -21 -18 -65 -60 -98 -93 -34 -34 -69 -71 -78 -83 -10 -12 -18
-26 -18 -30 0 -5 -11 -32 -25 -60 -14 -29 -25 -58 -25 -66 0 -8 -5 -16 -12
-18 -6 -2 -12 -13 -13 -24 -1 -10 -9 -33 -18 -50 -9 -17 -13 -34 -10 -37 3 -4
0 -13 -6 -21 -7 -8 -15 -59 -19 -113 -4 -54 -7 -116 -5 -138 1 -22 4 -71 7
-110 3 -38 10 -95 15 -125 6 -30 32 -98 58 -150 39 -79 62 -110 137 -186 62
-62 111 -102 151 -122 33 -17 94 -41 135 -55 41 -14 113 -28 160 -32 47 -5 96
-9 110 -10 14 -1 44 -7 66 -14 l42 -11 7 -83 c3 -46 3 -95 0 -110 -5 -17 -2
-33 6 -43 9 -11 14 -52 15 -123 1 -59 5 -118 9 -130 l7 -23 -334 6 c-183 3
-353 8 -378 11 -43 6 -49 3 -115 -47 -38 -28 -89 -72 -112 -96 -23 -24 -54
-67 -68 -96 -15 -28 -32 -56 -38 -61 -7 -6 -22 -25 -34 -42 -13 -18 -23 -37
-23 -43 0 -5 -9 -27 -20 -47 -11 -21 -20 -44 -20 -52 0 -8 -7 -22 -15 -31 -9
-9 -22 -41 -31 -71 -8 -30 -18 -68 -23 -84 -4 -17 -16 -48 -25 -70 -10 -22
-21 -49 -26 -60 -4 -11 -14 -36 -22 -55 -10 -23 -12 -43 -7 -57 5 -15 17 -23
32 -23 15 0 28 8 34 23 6 12 20 51 31 87 11 36 26 90 33 120 7 30 19 64 25 75
7 11 20 42 30 70 9 27 29 77 44 110 15 33 57 101 94 150 36 50 74 100 83 113
10 12 30 29 46 37 25 14 28 14 33 0 4 -9 2 -48 -4 -88 -7 -46 -10 -197 -7
-414 2 -188 6 -350 9 -360 3 -10 8 -103 10 -208 3 -104 8 -327 11 -495 3 -168
10 -363 16 -434 6 -72 12 -355 14 -630 1 -276 -2 -589 -6 -696 -5 -107 -12
-285 -15 -395 -4 -110 -9 -351 -11 -535 -2 -184 -4 -375 -4 -424 0 -49 5 -94
11 -100 5 -5 10 -27 10 -47 0 -28 6 -42 24 -56 13 -10 39 -27 58 -37 18 -10
71 -39 117 -63 47 -24 103 -46 126 -50 28 -3 45 -1 50 6 4 7 -1 21 -11 32 -9
10 -14 19 -9 19 4 0 2 7 -5 15 -6 7 -33 17 -58 21 -26 4 -56 16 -67 26 -11 11
-48 40 -82 64 -49 34 -64 52 -73 81 -5 21 -13 85 -18 143 -4 58 -4 301 0 540
3 239 12 530 19 645 6 116 11 253 11 305 0 52 -3 320 -6 595 -2 275 -7 536
-10 580 -3 44 -8 179 -11 300 -4 121 -9 346 -11 500 -2 154 -5 304 -6 332 -1
29 2 57 8 63 6 6 30 6 69 0 33 -5 83 -10 110 -10 28 0 55 4 61 10 6 6 23 6 49
-1 22 -6 65 -8 100 -5 33 4 76 6 95 5 19 -1 161 -2 315 -3 195 -1 286 2 300
11 11 6 86 14 166 18 81 4 172 4 204 0 l57 -7 -6 -161 c-4 -89 -9 -211 -11
-272 -3 -60 -8 -139 -11 -175 -3 -36 -7 -85 -8 -110 -2 -25 -4 -99 -5 -165 -2
-66 -7 -183 -11 -260 -5 -77 -12 -342 -15 -590 -3 -247 -6 -463 -7 -480 0 -16
0 -68 1 -115 1 -47 -1 -184 -4 -305 -3 -121 -7 -294 -10 -385 -3 -91 -8 -196
-11 -235 -2 -38 -4 -101 -4 -140 0 -38 -4 -104 -10 -145 -5 -41 -13 -158 -16
-260 -4 -102 -7 -206 -8 -232 -1 -31 5 -52 17 -65 9 -11 35 -26 57 -33 22 -7
40 -17 40 -21 0 -4 17 -13 38 -20 20 -6 40 -16 43 -21 3 -4 30 -18 60 -29 30
-12 68 -23 84 -26 17 -2 37 1 45 7 13 9 13 12 -2 21 -10 5 -18 16 -18 23 0 8
-6 19 -14 25 -8 7 -22 14 -32 16 -11 2 -42 12 -69 22 -28 10 -76 35 -107 55
-47 32 -56 43 -61 75 -3 21 -3 134 -1 251 2 117 6 217 8 221 3 4 8 122 11 262
3 140 8 272 10 294 2 22 7 193 10 380 3 187 7 504 10 705 3 201 8 446 10 545
3 99 10 286 15 415 6 129 15 287 20 350 5 63 14 212 20 330 6 118 15 237 21
264 8 40 7 52 -6 66 -13 14 -15 37 -10 141 4 68 12 198 19 289 7 91 14 157 15
146 0 -10 11 -35 22 -55 12 -20 32 -52 45 -71 12 -19 41 -91 63 -160 23 -69
45 -132 49 -140 5 -8 17 -55 27 -103 15 -70 23 -92 42 -104 12 -8 30 -12 39
-9 9 4 14 13 10 21 -3 9 -1 24 5 33 9 14 4 42 -25 128 -20 60 -43 132 -52 159
-9 28 -31 84 -49 125 -18 41 -44 100 -58 130 -14 30 -36 71 -49 90 -13 19 -29
49 -37 66 -7 17 -28 47 -47 65 l-35 34 -287 2 c-158 1 -323 3 -366 3 -44 1
-90 6 -103 11 -20 7 -23 16 -23 56 0 27 -4 75 -10 108 -5 33 -12 103 -15 155
-3 52 -5 113 -5 135 1 22 2 40 3 42 1 1 16 4 32 7 17 3 71 11 120 17 54 6 110
20 140 34 28 13 95 42 150 65 55 23 118 57 140 75 22 18 49 41 61 51 11 11 49
52 84 93 35 41 83 113 108 160 24 47 52 113 62 146 10 33 22 78 25 100 4 22 9
94 11 159 2 82 -1 140 -12 185 -8 36 -19 84 -24 106 -6 22 -15 69 -21 104 -6
35 -19 79 -30 97 -10 18 -29 46 -43 61 -14 15 -33 38 -44 51 -11 12 -23 22
-27 22 -4 0 -39 31 -79 70 -39 38 -91 83 -116 99 -25 17 -50 31 -56 31 -6 0
-22 8 -35 19 -13 10 -42 21 -64 25 -22 3 -71 10 -110 15 -38 6 -88 15 -110 20
-22 6 -60 10 -85 9z m-95 -79 c28 -1 97 -5 155 -10 58 -6 128 -14 155 -20 28
-6 86 -28 130 -49 44 -21 90 -48 102 -59 12 -12 25 -21 28 -21 4 0 38 -28 77
-62 39 -35 85 -85 102 -113 18 -27 40 -62 49 -76 8 -14 19 -44 22 -65 4 -21
18 -85 31 -141 18 -75 24 -132 24 -213 0 -80 -6 -132 -21 -192 -12 -46 -25
-88 -30 -93 -4 -6 -16 -33 -27 -60 -11 -28 -36 -75 -56 -105 -21 -30 -58 -77
-84 -103 -25 -26 -78 -72 -117 -101 -47 -36 -105 -67 -177 -95 -59 -23 -128
-48 -155 -56 -26 -8 -76 -15 -110 -17 -48 -2 -66 1 -81 16 -17 14 -33 17 -84
14 -35 -3 -121 2 -193 10 -86 9 -152 22 -195 38 -36 14 -74 30 -85 35 -11 6
-32 16 -46 24 -14 8 -60 51 -102 94 -58 60 -86 101 -116 163 -21 46 -47 116
-56 157 -15 61 -17 101 -12 225 5 127 10 163 32 231 15 44 35 96 46 115 10 19
28 58 40 85 12 28 38 71 58 97 20 26 43 47 51 48 9 0 38 23 65 50 28 28 73 62
100 76 28 14 61 36 75 49 14 12 43 29 65 36 22 7 47 18 55 24 8 7 47 19 86 28
40 9 82 17 95 17 13 0 31 5 39 10 8 6 38 10 65 9z m-575 -2318 c36 -3 103 -6
150 -6 47 0 121 1 165 3 44 1 121 0 170 -4 50 -3 99 -5 110 -4 11 1 50 2 87 3
36 1 70 5 74 9 4 4 12 4 18 -1 6 -4 50 -14 97 -21 48 -7 99 -10 115 -6 16 4
90 7 164 6 74 0 149 -3 165 -6 17 -3 38 -8 49 -11 17 -5 18 -16 13 -184 -3
-98 -9 -183 -12 -189 -3 -5 -8 -58 -10 -117 -2 -60 -4 -125 -4 -145 l-1 -38
-96 5 c-66 3 -141 -2 -238 -15 -78 -11 -177 -20 -221 -19 -44 0 -145 0 -225
-1 -80 0 -176 0 -215 0 -38 1 -133 0 -210 -1 -77 -1 -184 0 -238 3 -54 4 -101
8 -103 11 -3 2 1 46 7 97 8 65 9 111 2 158 -6 37 -9 92 -7 122 2 30 8 102 13
160 5 58 10 124 10 147 l1 42 53 4 c28 2 81 1 117 -2z"/>
<g>
<path d="M10031 8163 c-10 2 -25 1 -32 -4 -8 -5 -23 -9 -35 -9 -11 0 -28 -8
-36 -17 -10 -12 -14 -29 -11 -51 3 -18 16 -41 31 -52 13 -11 39 -20 57 -20 20
0 39 8 52 23 11 12 23 34 27 48 4 18 0 34 -14 52 -11 13 -28 27 -39 30z"/>
</g>
<g>
<path d="M9203 8140 c-20 0 -41 -8 -53 -20 -11 -11 -20 -33 -20 -48 0 -17 10
-37 23 -50 13 -12 35 -22 48 -22 14 0 35 10 46 23 11 12 23 30 26 40 4 10 2
28 -5 40 -6 12 -16 25 -22 29 -6 4 -26 8 -43 8z"/>
</g>
<g>
<path d="M9668 7918 c-19 2 -28 -2 -33 -17 -3 -12 -3 -31 0 -42 4 -12 22 -36
39 -54 18 -18 45 -53 60 -79 15 -25 24 -51 21 -56 -3 -5 -21 -12 -41 -16 -19
-3 -39 -14 -44 -24 -6 -10 -7 -26 -4 -35 4 -9 17 -20 29 -25 15 -6 39 -3 71 7
27 9 60 20 73 25 19 7 21 11 10 24 -9 11 -9 18 -1 26 6 6 8 18 5 27 -3 9 -14
25 -23 36 -10 11 -25 35 -34 52 -9 18 -26 43 -37 55 -11 13 -31 39 -43 58 -14
23 -31 36 -48 38z"/>
</g>
<g>
<path d="M10037 7480 c-13 0 -26 -2 -28 -4 -2 -2 -137 -7 -299 -10 -162 -4
-310 -6 -329 -6 -18 0 -39 -4 -47 -11 -8 -6 -14 -22 -14 -34 0 -12 6 -28 14
-34 9 -8 112 -11 352 -9 216 1 345 6 357 12 12 8 17 24 17 53 0 38 -3 43 -23
43z"/>
</g>
</g>
</g>
</svg>
