<?xml version="1.0" standalone="no"?>
<!DOCTYPE svg PUBLIC "-//W3C//DTD SVG 20010904//EN"
 "http://www.w3.org/TR/2001/REC-SVG-20010904/DTD/svg10.dtd">
<svg version="1.0" xmlns="http://www.w3.org/2000/svg"
 width="1712.000000pt" height="2048.000000pt" viewBox="0 0 1712.000000 2048.000000"
 preserveAspectRatio="xMidYMid meet">
<metadata>
Created by potrace 1.16, written by Peter Selinger 2001-2019
</metadata>
<g transform="translate(0.000000,2048.000000) scale(0.100000,-0.100000)"
fill="#000000" stroke="none">
<g>
<path d="M9752 19129 c-20 -1 -61 -14 -89 -29 -29 -15 -53 -26 -53 -24 0 2
-22 -8 -48 -21 -27 -13 -69 -46 -95 -73 -25 -27 -57 -71 -72 -98 -14 -27 -32
-60 -40 -74 -7 -14 -23 -50 -35 -80 -12 -30 -31 -75 -43 -100 -12 -25 -32 -56
-44 -70 -11 -14 -31 -44 -42 -66 -12 -23 -41 -61 -64 -85 -24 -24 -59 -66 -78
-92 -19 -26 -47 -67 -64 -91 -16 -23 -48 -64 -70 -92 -22 -27 -45 -55 -52 -61
-6 -7 -23 -37 -36 -65 -14 -29 -34 -78 -45 -108 -12 -30 -24 -67 -27 -81 -4
-16 0 -39 9 -57 9 -18 25 -31 41 -35 15 -2 44 0 66 4 22 5 50 19 62 30 12 11
37 29 55 40 17 12 32 24 32 29 0 5 10 12 23 16 12 3 34 15 48 25 14 10 57 34
94 54 38 19 84 48 103 63 19 15 58 41 87 57 29 17 67 42 85 57 18 15 49 29 69
32 20 3 58 8 84 11 47 6 49 5 96 -42 33 -33 54 -66 69 -108 11 -33 28 -91 37
-130 9 -38 28 -104 41 -145 13 -41 24 -88 24 -105 0 -16 7 -60 15 -97 7 -37
21 -83 30 -102 9 -19 17 -61 19 -94 1 -38 8 -69 20 -88 11 -16 60 -70 110
-121 50 -50 96 -97 102 -105 6 -7 20 -20 30 -28 11 -9 46 -34 79 -57 33 -23
76 -44 95 -48 19 -4 44 -13 55 -19 11 -7 49 -23 85 -35 56 -19 81 -22 191 -19
125 3 128 3 149 -22 12 -14 32 -46 45 -71 13 -25 31 -51 39 -58 9 -8 16 -21
16 -30 0 -10 7 -26 15 -37 8 -10 15 -36 15 -57 0 -22 -7 -51 -15 -65 -8 -15
-26 -53 -39 -85 -14 -32 -28 -73 -32 -92 -3 -19 -9 -35 -13 -35 -3 0 -15 -19
-26 -43 -11 -23 -28 -51 -37 -61 -13 -14 -39 -22 -95 -28 -43 -4 -105 -11
-138 -14 -33 -4 -64 -10 -70 -14 -5 -5 -37 -16 -70 -25 -33 -10 -76 -26 -95
-36 -19 -11 -42 -19 -51 -19 -9 0 -22 -7 -29 -15 -7 -8 -18 -15 -25 -15 -6 0
-20 -9 -30 -20 -10 -11 -23 -20 -29 -20 -7 0 -30 -17 -53 -37 -22 -21 -55 -50
-72 -65 -18 -15 -41 -30 -52 -33 -11 -4 -51 -38 -89 -77 -39 -39 -70 -75 -70
-80 0 -4 -6 -8 -14 -8 -7 0 -26 -25 -41 -55 -16 -30 -32 -55 -37 -55 -5 0 -14
-11 -20 -25 -6 -14 -17 -25 -23 -25 -7 0 -25 -18 -40 -40 -15 -22 -31 -40 -34
-40 -3 0 -11 -12 -18 -27 -6 -16 -17 -48 -23 -73 -7 -25 -18 -52 -24 -60 -7
-8 -17 -24 -21 -35 -4 -11 -10 -27 -12 -35 -2 -8 -5 -26 -8 -40 -3 -14 -12
-52 -21 -85 -9 -33 -20 -64 -24 -70 -4 -5 -11 -64 -15 -130 -4 -66 -9 -142
-11 -170 -3 -27 -4 -68 -4 -90 1 -22 19 -98 41 -170 22 -71 44 -148 50 -170 6
-22 15 -49 19 -60 4 -11 16 -40 26 -65 10 -25 23 -52 30 -60 6 -8 19 -31 29
-50 10 -19 31 -56 47 -81 16 -26 40 -52 53 -59 13 -7 49 -41 80 -76 31 -35 62
-64 69 -64 7 0 21 -9 31 -20 10 -11 23 -20 30 -20 6 0 39 -21 73 -47 34 -27
85 -65 113 -87 28 -21 75 -49 104 -61 29 -13 62 -35 73 -49 11 -14 27 -26 35
-26 8 0 17 7 20 15 5 12 12 12 39 3 18 -6 38 -18 44 -27 10 -13 15 -14 38 -2
20 11 34 12 63 3 21 -6 48 -14 61 -17 12 -4 29 -17 38 -29 11 -19 12 -29 3
-52 -6 -16 -9 -68 -7 -119 l3 -90 -35 3 c-19 1 -66 18 -105 37 -38 18 -96 43
-128 55 -51 19 -59 27 -78 67 l-21 45 -46 -6 c-26 -4 -56 -8 -67 -9 -11 -2
-30 -8 -42 -15 -12 -6 -29 -9 -39 -5 -14 5 -16 2 -12 -14 3 -11 0 -27 -7 -36
-6 -9 -52 -37 -101 -62 -49 -26 -101 -61 -116 -78 -16 -18 -28 -42 -28 -55 0
-12 -4 -30 -9 -40 -5 -9 -14 -30 -21 -47 -7 -16 -18 -43 -25 -60 -7 -16 -16
-41 -18 -55 -3 -14 -13 -50 -22 -80 -9 -30 -21 -75 -27 -100 -6 -25 -14 -50
-19 -56 -5 -6 -13 -31 -18 -55 -5 -24 -21 -87 -36 -139 -14 -52 -33 -135 -41
-185 -8 -49 -19 -117 -25 -150 -6 -33 -12 -78 -14 -100 -2 -22 -13 -71 -25
-110 -11 -38 -25 -92 -30 -118 -5 -27 -16 -63 -24 -80 -8 -18 -17 -63 -21
-102 -4 -38 -15 -88 -25 -110 -10 -22 -22 -53 -28 -70 -5 -16 -20 -66 -32
-110 -12 -44 -33 -99 -46 -122 -14 -24 -32 -79 -41 -123 -9 -44 -19 -80 -23
-80 -4 0 -13 -21 -20 -47 -6 -27 -16 -57 -21 -68 -5 -11 -16 -40 -24 -64 -8
-24 -15 -52 -15 -63 0 -11 -8 -32 -18 -46 -10 -15 -26 -47 -35 -72 -9 -25 -17
-55 -17 -67 0 -12 -4 -25 -10 -28 -5 -3 -10 -16 -10 -28 0 -12 -16 -73 -36
-137 -20 -63 -40 -123 -45 -132 -5 -10 -9 -29 -9 -44 0 -14 -11 -50 -25 -80
-14 -31 -23 -59 -20 -63 2 -5 -7 -21 -21 -37 -14 -16 -29 -38 -34 -50 -4 -11
-6 -32 -3 -47 3 -15 9 -27 13 -27 5 0 23 -21 42 -47 18 -27 39 -60 47 -75 8
-15 30 -40 50 -56 20 -16 51 -34 70 -40 19 -7 37 -12 42 -12 4 0 18 9 31 20
12 11 40 31 61 45 20 13 61 34 90 46 28 12 56 26 60 30 5 4 11 26 13 50 2 25
8 77 13 117 5 40 14 78 19 85 6 7 16 32 23 57 7 25 12 50 10 57 -1 7 5 29 14
49 8 20 15 51 15 69 0 18 7 38 15 45 8 7 15 21 15 32 0 11 6 34 13 51 8 18 19
49 26 69 7 20 14 46 16 56 2 11 8 28 13 38 6 11 17 35 26 56 9 20 16 47 16 60
0 12 11 54 25 92 14 38 25 77 25 87 0 11 5 19 10 19 6 0 10 7 10 15 0 9 7 32
15 52 8 20 18 33 21 30 3 -3 -1 -95 -11 -204 -9 -109 -20 -199 -25 -201 -5 -2
-6 -19 -3 -38 3 -18 1 -40 -5 -47 -6 -7 -14 -31 -16 -52 -3 -22 -8 -71 -11
-110 -3 -38 -10 -126 -15 -195 -5 -69 -14 -145 -19 -170 -6 -25 -13 -72 -17
-105 -3 -33 -7 -89 -8 -125 -2 -36 -6 -103 -11 -149 -4 -47 -12 -98 -17 -115
-5 -17 -14 -65 -20 -106 -5 -41 -12 -97 -14 -125 -2 -27 -6 -79 -9 -115 -2
-36 -6 -85 -9 -110 -2 -25 -11 -64 -20 -88 -8 -23 -13 -49 -9 -57 3 -9 -1 -22
-8 -31 -8 -10 -15 -58 -19 -133 -3 -65 -2 -137 2 -162 4 -24 10 -73 13 -109 3
-36 12 -175 21 -310 8 -135 17 -263 20 -285 2 -22 6 -111 9 -199 3 -96 9 -164
16 -172 6 -8 9 -23 6 -35 -3 -12 -2 -32 3 -45 5 -13 14 -52 20 -87 6 -34 13
-77 16 -96 2 -19 6 -37 9 -41 2 -3 5 -98 5 -211 1 -112 8 -262 17 -334 11 -92
15 -212 14 -410 -1 -154 -3 -298 -4 -320 -2 -40 -2 -40 -45 -43 -25 -2 -45 -9
-48 -17 -3 -8 -49 -27 -102 -44 -54 -16 -113 -32 -132 -36 -19 -4 -48 -14 -64
-22 -21 -11 -35 -12 -52 -5 -16 8 -33 8 -56 0 -18 -6 -44 -16 -58 -23 -14 -8
-30 -28 -37 -47 -7 -18 -12 -53 -12 -78 l-1 -45 -60 -1 c-42 0 -65 -5 -79 -18
-14 -13 -41 -18 -107 -21 -57 -2 -111 -11 -149 -24 -32 -12 -73 -21 -91 -21
-17 0 -43 -9 -58 -21 -15 -11 -33 -18 -41 -16 -7 3 -51 -3 -96 -14 -45 -11
-96 -28 -113 -38 -17 -10 -56 -23 -88 -30 -31 -7 -87 -16 -125 -21 -37 -4 -85
-13 -106 -18 -21 -6 -48 -18 -59 -28 -16 -16 -19 -26 -13 -64 4 -25 6 -74 5
-110 0 -36 -2 -92 -4 -125 -2 -33 -9 -73 -15 -90 -7 -16 -14 -84 -16 -150 -2
-66 -5 -127 -8 -135 -3 -8 -5 -22 -5 -30 0 -8 -3 -67 -7 -130 -4 -63 -9 -118
-11 -121 -2 -3 -8 -46 -13 -95 -6 -49 -13 -174 -17 -279 -3 -104 -10 -197 -15
-206 -4 -9 -8 -33 -8 -55 0 -21 0 -66 0 -98 0 -43 -5 -62 -16 -68 -9 -6 -15
-23 -15 -44 0 -27 8 -43 31 -65 17 -16 37 -29 45 -29 8 0 22 -9 31 -20 10 -11
21 -20 26 -20 4 0 20 -11 35 -25 15 -14 32 -25 37 -25 6 0 21 -8 34 -18 12 -9
80 -64 149 -123 70 -58 157 -128 194 -157 37 -29 70 -52 73 -52 2 0 19 -12 37
-27 17 -16 51 -47 75 -70 23 -24 48 -43 54 -43 6 0 20 -11 31 -25 11 -14 41
-37 66 -52 26 -15 59 -39 74 -53 15 -14 47 -43 73 -65 25 -21 70 -53 99 -70
30 -16 73 -43 96 -60 23 -16 76 -59 118 -95 43 -35 79 -67 82 -70 3 -3 14 -11
25 -17 11 -7 42 -24 68 -38 26 -14 58 -37 70 -52 12 -14 36 -32 52 -39 17 -8
39 -20 50 -27 11 -6 39 -24 62 -40 23 -15 46 -27 50 -27 5 0 36 -22 70 -49 33
-27 71 -55 83 -61 13 -7 33 -21 44 -31 12 -11 48 -41 81 -66 33 -26 71 -58 85
-71 14 -13 37 -30 53 -38 15 -8 27 -19 27 -24 0 -5 20 -19 44 -30 25 -11 59
-33 78 -50 20 -19 43 -30 62 -30 22 0 41 -12 80 -55 28 -30 59 -55 69 -55 10
0 47 14 82 30 35 17 71 30 78 30 8 0 20 6 26 14 7 8 43 24 80 35 38 12 71 27
74 34 3 7 43 26 90 41 47 14 90 33 96 40 7 8 27 17 46 20 19 4 38 13 42 20 5
7 35 18 67 24 33 7 68 19 77 28 10 9 40 20 66 25 26 5 56 18 67 28 12 11 41
24 66 31 25 6 59 17 75 25 17 7 62 23 100 36 39 12 80 30 92 39 13 10 40 21
60 25 20 4 46 13 57 21 11 8 30 14 42 14 12 0 27 6 34 14 6 8 45 25 86 37 41
12 79 28 85 35 6 8 17 14 24 14 8 0 26 7 42 15 15 8 59 23 97 35 38 11 76 20
84 20 9 0 23 7 33 16 9 8 55 24 101 34 45 10 112 28 148 40 36 11 73 25 82 31
10 5 33 9 53 9 19 0 68 11 109 25 41 14 82 25 91 25 9 0 40 11 68 24 29 14 81
34 117 45 36 12 76 28 91 36 14 7 50 17 80 21 29 3 59 12 64 18 6 7 32 16 59
19 27 4 64 16 81 26 18 10 52 22 76 26 24 4 49 11 54 14 6 4 37 13 70 20 33 7
65 17 71 22 6 5 46 12 89 16 56 4 83 11 97 25 11 11 32 18 58 18 36 0 39 2 44
33 3 17 5 41 5 52 0 11 -7 61 -15 110 -9 50 -22 106 -29 125 -7 19 -16 64 -19
100 -4 36 -11 83 -16 105 -5 22 -16 87 -26 144 -13 82 -16 139 -11 265 3 89
11 184 17 212 7 30 9 95 6 155 -3 57 -6 109 -6 114 0 6 2 26 4 45 3 19 8 81
12 137 5 84 4 103 -7 104 -8 1 -18 1 -23 0 -4 -1 -6 9 -2 22 4 16 0 29 -9 37
-8 7 -15 21 -15 31 0 11 -7 19 -15 19 -7 0 -18 -7 -23 -16 -8 -14 -13 -14 -53
0 -24 8 -69 25 -99 37 -30 11 -68 26 -85 33 -16 6 -37 16 -45 21 -8 5 -51 24
-95 43 -44 18 -98 37 -120 43 -22 6 -89 34 -150 63 -60 29 -130 58 -155 65
-25 7 -63 20 -85 29 -22 9 -56 29 -76 44 -20 15 -104 61 -185 101 -82 41 -165
81 -184 91 -19 9 -48 25 -65 36 -16 11 -70 41 -120 66 -49 25 -124 68 -165 95
-41 27 -88 55 -105 64 -16 8 -39 23 -50 32 -17 15 -25 47 -43 178 -12 88 -22
183 -22 210 0 28 -7 82 -15 120 -8 39 -15 93 -15 120 0 28 -6 73 -14 102 -8
28 -12 54 -9 56 2 3 -3 19 -12 36 -9 17 -15 51 -15 74 1 23 -4 94 -10 157 -6
63 -12 126 -12 140 -1 14 -7 79 -15 144 -7 65 -16 123 -19 128 -3 5 -6 34 -5
65 0 31 -4 64 -9 74 -6 10 -12 98 -14 196 -3 98 -7 207 -11 243 -4 36 -8 76
-10 88 -2 13 -8 29 -13 35 -5 7 -7 50 -6 97 2 47 6 112 10 145 3 33 7 89 9
125 2 36 8 93 15 126 7 34 10 86 7 115 -4 30 -8 200 -10 379 -3 179 -8 348
-12 375 -4 28 -16 60 -28 73 -16 17 -20 34 -19 75 1 28 7 115 13 192 6 77 12
150 15 162 2 12 13 25 24 28 11 3 20 12 20 20 0 7 -8 22 -17 34 -16 19 -17 37
-12 144 4 67 10 171 14 230 5 59 12 110 17 113 5 3 15 1 23 -6 10 -8 15 -8 20
0 4 6 4 26 1 45 -4 18 -13 39 -21 45 -10 8 -13 20 -8 34 3 12 7 55 8 96 1 41
3 126 5 188 1 61 5 112 10 112 4 0 8 24 7 53 -1 28 4 147 11 262 7 116 17 214
23 219 5 6 14 3 23 -10 10 -13 15 -46 16 -104 0 -47 3 -119 8 -161 4 -42 13
-83 20 -92 8 -9 17 -72 24 -164 6 -81 11 -177 13 -213 1 -36 6 -94 10 -130 4
-36 12 -74 18 -85 5 -10 12 -59 14 -107 2 -48 6 -134 9 -190 3 -57 5 -128 6
-158 0 -30 -1 -71 -2 -90 -1 -19 1 -69 5 -110 4 -41 9 -79 12 -84 4 -5 8 -21
10 -35 2 -14 5 -57 8 -95 2 -38 9 -74 14 -79 6 -6 7 -23 4 -38 -3 -18 -1 -29
6 -29 7 0 11 -20 11 -50 0 -40 5 -56 23 -74 23 -23 27 -24 158 -19 74 3 144 9
156 14 12 4 23 18 25 30 2 12 10 26 18 30 8 5 36 17 62 29 26 11 50 20 54 20
4 0 26 10 50 22 24 12 44 26 45 32 1 6 0 27 -1 46 0 19 -3 52 -6 74 -2 21 -7
43 -11 49 -4 6 -8 36 -9 67 -1 30 -11 98 -22 150 -11 52 -23 131 -27 175 -4
44 -12 89 -18 100 -6 11 -12 31 -14 45 -2 14 -5 39 -7 55 -2 17 -6 46 -10 65
-3 19 -10 62 -15 95 -6 33 -15 92 -20 130 -6 39 -15 93 -20 120 -6 28 -17 113
-26 190 -9 77 -20 178 -26 225 -6 47 -15 108 -21 135 -5 28 -15 59 -21 70 -6
11 -10 51 -9 89 1 40 -5 83 -13 104 -8 19 -15 45 -15 57 0 12 -6 38 -14 56 -7
19 -21 86 -30 149 -10 63 -22 125 -28 137 -6 12 -8 29 -5 37 4 9 0 37 -8 63
-8 27 -15 58 -15 71 0 13 -9 47 -21 75 -12 29 -26 62 -31 74 -6 11 -7 26 -4
32 4 5 -2 47 -13 93 -11 46 -23 112 -26 148 -4 36 -17 106 -30 155 -13 50 -26
122 -30 160 -4 39 -8 79 -10 90 -1 11 -8 39 -14 62 -8 30 -9 49 -1 62 5 11 10
37 10 59 0 32 -5 41 -25 50 -14 7 -45 12 -68 12 -23 0 -69 9 -102 19 -33 11
-76 26 -95 33 -20 7 -47 20 -61 29 -14 10 -70 36 -125 59 -54 24 -121 53 -149
65 -27 13 -66 26 -85 29 -19 4 -55 12 -80 17 -25 6 -74 20 -110 31 -36 11 -73
28 -83 36 -10 9 -15 23 -11 34 3 10 8 44 12 75 3 32 6 93 7 136 l0 77 54 0
c30 0 71 5 90 11 20 6 44 15 53 20 10 5 31 9 47 9 16 0 53 5 83 11 29 6 67 17
83 24 17 7 63 16 102 20 48 5 81 14 97 26 13 10 29 19 34 19 5 0 15 7 22 15 7
8 15 13 19 10 4 -2 22 5 39 16 18 10 37 19 42 19 5 0 47 23 92 52 46 29 95 61
110 72 15 12 45 45 68 75 22 30 40 60 40 67 0 6 7 17 16 24 8 8 29 41 46 74
17 34 41 81 53 106 12 25 34 86 49 135 15 50 31 99 36 110 4 11 13 40 19 65 7
25 15 83 20 130 4 47 7 171 7 275 -1 140 -6 214 -20 280 -10 50 -21 99 -26
110 -4 11 -15 47 -25 80 -9 33 -18 67 -19 75 -2 8 -11 33 -20 54 -10 22 -20
49 -22 60 -2 11 -17 33 -32 50 -16 17 -43 60 -60 96 -16 36 -42 76 -57 90 -15
14 -36 42 -46 62 -10 21 -28 42 -39 48 -11 6 -31 28 -44 49 -16 24 -44 48 -78
66 -29 15 -64 36 -77 46 -13 11 -30 19 -37 19 -8 0 -31 16 -53 35 -21 19 -45
35 -54 35 -9 0 -18 4 -21 9 -3 4 -27 14 -53 21 -27 7 -49 14 -51 15 -1 1 11
29 28 61 17 32 45 75 61 94 17 19 50 62 75 94 24 33 44 65 44 71 0 6 13 23 28
38 23 22 28 34 24 60 -2 17 -15 57 -29 87 -13 30 -38 82 -55 115 -16 33 -42
74 -57 90 -15 17 -37 47 -49 68 -12 21 -22 44 -22 52 0 8 18 16 50 20 35 5 54
13 61 26 8 15 5 25 -10 46 -12 14 -21 31 -21 37 1 6 20 23 44 39 24 15 46 27
50 27 4 0 55 24 114 54 59 29 121 60 138 69 17 9 39 26 49 37 10 11 22 20 27
20 5 0 34 19 64 42 30 24 54 46 54 50 0 5 7 8 15 8 8 0 15 3 15 8 0 4 23 21
51 37 27 17 71 45 97 62 26 18 54 35 63 39 8 3 23 18 32 33 8 15 42 49 74 76
32 28 77 69 102 93 24 23 46 42 49 42 2 0 14 10 26 23 12 13 37 32 56 42 19
11 44 27 55 37 11 9 61 34 110 54 50 20 113 45 140 56 28 11 65 24 83 29 17 6
32 14 32 18 0 5 15 12 34 15 19 4 36 10 38 14 2 4 18 15 36 25 19 9 39 17 46
17 7 0 21 9 31 20 10 11 31 20 46 20 18 0 34 8 41 20 9 14 24 20 50 20 21 0
38 4 38 8 0 4 16 14 36 21 19 7 38 19 40 26 3 7 -2 25 -11 39 -9 14 -14 30
-10 36 4 6 2 17 -5 25 -6 7 -29 16 -51 20 -23 4 -53 13 -67 21 -15 8 -34 14
-42 14 -8 0 -28 7 -45 16 -16 9 -66 30 -110 46 -44 17 -109 40 -145 53 -36 12
-69 21 -73 18 -5 -3 -16 2 -25 10 -10 9 -39 21 -66 27 -27 6 -74 22 -105 37
-31 14 -63 31 -71 38 -8 7 -32 18 -52 24 -20 7 -42 19 -48 27 -7 8 -30 14 -54
14 -38 0 -47 -6 -130 -90 -50 -50 -98 -90 -107 -90 -10 0 -38 -20 -62 -45 -25
-25 -54 -45 -64 -46 -10 0 -34 -11 -53 -25 -19 -13 -50 -34 -68 -45 -18 -12
-37 -29 -42 -39 -5 -9 -40 -27 -77 -40 -37 -12 -88 -23 -113 -24 -25 -2 -55
-8 -67 -15 -13 -6 -23 -18 -23 -26 0 -9 -18 -15 -57 -20 -32 -3 -110 -12 -173
-20 -63 -8 -160 -17 -215 -21 -55 -3 -154 -6 -220 -5 -66 1 -156 8 -200 17
-44 8 -98 22 -120 31 -22 10 -66 36 -98 60 -31 24 -63 43 -70 43 -6 0 -25 10
-40 23 -15 12 -59 51 -97 87 -37 36 -85 78 -105 93 -20 16 -47 51 -60 80 -13
29 -29 68 -36 87 -8 19 -33 63 -56 98 -24 34 -43 64 -43 67 0 2 -13 23 -29 47
-15 24 -34 60 -42 81 -9 24 -37 59 -84 100 -38 35 -85 74 -104 87 -24 17 -50
24 -90 26 -31 1 -69 7 -84 13 -16 6 -45 11 -65 10z m63 -166 c44 -3 93 -12
109 -20 16 -8 53 -40 83 -71 32 -34 68 -86 89 -130 20 -41 57 -107 83 -146 26
-39 55 -91 65 -116 10 -25 26 -61 34 -80 8 -19 36 -54 61 -78 25 -24 62 -55
81 -70 19 -14 53 -41 75 -60 22 -18 45 -36 50 -41 6 -4 33 -20 60 -36 28 -15
64 -38 80 -50 17 -12 53 -30 80 -40 28 -10 55 -22 60 -26 6 -4 29 -12 50 -18
22 -5 63 -16 90 -24 36 -10 90 -13 185 -11 74 2 175 6 223 9 48 3 98 10 110
16 13 8 117 14 297 17 151 3 316 4 367 4 73 -1 98 -6 127 -23 20 -11 36 -24
36 -28 0 -4 -21 -27 -47 -52 -27 -25 -75 -64 -108 -86 -33 -22 -82 -48 -110
-58 -27 -11 -65 -27 -83 -37 -18 -10 -37 -18 -42 -18 -5 0 -21 -5 -37 -12 -15
-7 -32 -13 -38 -13 -5 -1 -19 -5 -30 -10 -11 -4 -48 -20 -82 -36 -34 -16 -83
-34 -110 -40 -26 -7 -52 -15 -58 -19 -5 -4 -41 -17 -80 -28 -38 -12 -90 -27
-115 -33 -25 -6 -92 -14 -150 -18 -58 -3 -111 -10 -118 -14 -6 -5 -45 -13 -85
-18 -39 -5 -106 -10 -147 -12 -59 -1 -86 3 -125 20 -27 12 -74 26 -104 31 -50
9 -56 8 -78 -14 -12 -13 -23 -28 -23 -34 0 -6 10 -15 23 -20 12 -5 32 -20 44
-33 12 -13 58 -38 101 -56 71 -28 89 -31 183 -31 58 0 109 4 114 9 6 5 51 14
100 21 50 6 94 15 100 21 5 5 23 9 40 9 16 0 55 7 85 15 30 8 69 15 87 15 17
0 34 4 37 9 3 4 20 12 38 16 18 4 39 9 46 11 8 1 21 9 30 17 10 7 42 19 72 26
30 6 82 23 115 36 33 14 66 25 73 25 7 0 45 14 85 31 40 17 88 36 107 41 19 6
71 28 115 49 44 22 94 47 110 56 17 9 71 57 121 107 50 50 105 113 123 140 18
27 33 63 34 83 2 27 -4 39 -23 54 -20 14 -59 21 -183 30 l-157 12 22 25 c13
14 37 31 55 38 17 8 34 18 38 24 3 5 14 10 24 10 10 0 28 12 42 26 13 14 58
54 99 88 41 34 100 77 130 95 30 19 68 33 83 33 15 0 47 -10 70 -20 23 -11 53
-23 67 -27 14 -4 37 -16 52 -26 14 -11 33 -19 41 -19 9 0 37 -9 64 -21 26 -12
102 -36 168 -55 66 -19 138 -41 160 -50 22 -8 57 -23 78 -32 20 -9 36 -20 34
-26 -2 -5 -10 -13 -18 -17 -8 -4 -59 -28 -114 -54 -55 -25 -107 -50 -115 -56
-8 -5 -26 -14 -40 -19 -14 -6 -34 -15 -45 -20 -11 -5 -47 -19 -80 -31 -33 -11
-74 -27 -92 -35 -17 -8 -34 -14 -38 -14 -4 0 -20 -11 -37 -25 -16 -14 -37 -25
-47 -25 -10 0 -73 -54 -140 -120 -67 -66 -125 -120 -129 -120 -4 0 -22 -13
-40 -30 -18 -16 -38 -30 -44 -30 -6 0 -30 -17 -53 -37 -22 -21 -52 -45 -64
-53 -13 -8 -39 -27 -59 -42 -19 -16 -38 -28 -43 -28 -4 0 -14 -6 -21 -13 -7
-7 -21 -18 -31 -24 -13 -7 -31 -6 -58 1 -21 5 -41 7 -45 4 -3 -4 -6 -17 -7
-30 0 -13 2 -29 4 -36 2 -8 -3 -19 -12 -25 -13 -8 -23 -5 -44 11 -15 12 -34
22 -42 22 -8 0 -21 -7 -30 -15 -11 -12 -14 -27 -9 -54 5 -30 2 -40 -10 -45 -9
-3 -24 -6 -34 -6 -10 0 -28 12 -40 27 l-21 27 -35 -19 c-33 -18 -34 -21 -29
-59 6 -41 6 -42 -33 -59 -21 -9 -42 -17 -45 -17 -3 0 -18 12 -32 27 -24 27
-26 27 -53 12 -16 -9 -26 -23 -25 -35 1 -10 4 -28 8 -39 5 -16 0 -23 -27 -33
-31 -11 -34 -10 -68 23 -20 19 -43 35 -51 35 -8 0 -20 -5 -27 -12 -7 -7 -12
-20 -12 -30 0 -10 7 -30 16 -43 9 -13 14 -32 12 -41 -2 -10 -16 -21 -33 -26
-20 -5 -36 -3 -51 7 -12 8 -25 27 -29 43 -3 16 -18 44 -34 62 l-28 33 -21 -21
-22 -22 20 -52 c11 -29 20 -54 20 -55 0 -2 -11 -3 -24 -3 -18 0 -36 15 -68 59
-23 32 -48 66 -54 76 -6 11 -15 15 -23 11 -7 -4 -16 -19 -21 -32 -7 -18 -4
-35 15 -71 l24 -48 -36 -3 c-20 -2 -40 1 -45 6 -5 5 -10 16 -12 23 -1 8 -13
49 -26 92 -15 49 -31 82 -43 89 -14 7 -24 5 -38 -8 -13 -12 -18 -25 -14 -39 3
-11 8 -27 10 -35 2 -8 8 -31 13 -50 5 -20 14 -46 21 -59 7 -12 11 -25 8 -27
-3 -3 -28 -7 -55 -8 -41 -3 -52 -1 -56 13 -2 9 -9 45 -16 81 -6 36 -18 89 -27
118 -8 29 -23 56 -32 61 -9 5 -23 6 -30 2 -10 -7 -11 -29 -6 -97 5 -56 15
-102 27 -126 17 -32 18 -41 7 -54 -7 -8 -22 -14 -33 -12 -12 2 -28 17 -38 38
-12 26 -19 74 -23 180 -3 79 -11 150 -17 157 -6 7 -19 13 -29 13 -14 0 -19 -8
-21 -27 -1 -16 -2 -39 -2 -53 -1 -14 2 -38 6 -54 4 -16 3 -35 -2 -41 -6 -7 -6
-41 -1 -87 5 -42 12 -81 15 -87 4 -6 0 -14 -10 -18 -9 -3 -32 2 -51 12 -31 17
-34 22 -27 50 4 16 6 46 4 65 -1 19 -2 58 -2 85 1 28 5 84 9 125 5 46 4 87 -2
105 -5 17 -14 33 -20 37 -5 4 -18 -1 -29 -11 -16 -16 -18 -37 -20 -172 0 -85
1 -170 4 -189 4 -26 1 -35 -10 -37 -8 -2 -26 5 -39 16 -20 15 -27 36 -42 132
-10 63 -20 142 -21 177 -2 34 1 63 6 65 5 2 12 44 14 93 3 71 1 98 -12 122 -9
18 -21 32 -26 32 -5 0 -12 -6 -16 -12 -5 -7 -9 -41 -10 -75 -2 -35 -4 -66 -7
-70 -2 -5 -4 -33 -6 -63 -1 -30 3 -93 8 -140 6 -47 13 -109 16 -137 2 -29 1
-53 -4 -53 -5 0 -21 14 -35 30 -15 19 -27 48 -31 78 -3 26 -9 58 -12 72 -3 14
-5 83 -4 154 1 71 4 133 7 137 2 5 2 20 -2 34 -3 14 -10 25 -15 25 -5 0 -17
-17 -27 -37 -17 -32 -19 -55 -16 -153 2 -63 7 -136 10 -162 3 -27 2 -48 -3
-48 -5 0 -20 11 -33 25 -13 14 -21 25 -18 25 4 0 -2 24 -13 53 -15 40 -21 87
-24 205 -3 84 -7 157 -10 161 -2 5 2 22 11 39 10 21 14 52 12 94 -3 53 -6 63
-22 66 -12 3 -27 -5 -37 -19 -12 -15 -19 -41 -19 -71 0 -27 -4 -48 -10 -48 -5
0 -11 10 -11 23 -1 12 -2 56 -3 97 -1 61 -4 75 -16 73 -9 -2 -23 9 -32 25 -9
15 -22 54 -29 87 -13 54 -21 67 -84 130 -56 56 -80 73 -120 84 -27 8 -58 21
-68 30 -17 14 -19 14 -28 -1 -5 -9 -17 -15 -27 -13 -9 2 -26 4 -36 4 -11 1
-17 4 -13 7 3 3 1 19 -5 35 -6 17 -19 31 -32 35 -13 3 -37 2 -55 -3 -21 -5
-69 -45 -141 -117 -61 -60 -110 -113 -110 -117 0 -4 -9 -11 -20 -14 -11 -3
-26 -12 -32 -18 -7 -7 -41 -38 -75 -71 -34 -32 -67 -55 -73 -51 -7 4 -3 19 12
43 12 20 30 43 40 50 11 8 30 32 45 55 14 22 44 61 67 86 23 25 57 68 76 96
19 27 41 56 50 65 9 9 27 31 42 50 14 19 29 46 33 60 4 14 10 27 14 30 3 3 16
19 29 37 12 18 22 36 22 41 0 6 7 23 15 38 8 16 15 37 15 46 0 9 3 18 8 20 4
2 25 37 46 78 22 41 49 83 60 93 12 9 43 29 71 44 27 14 65 31 85 39 24 8 61
11 115 7z m1386 -2148 l202 0 54 -60 c30 -33 70 -83 88 -110 19 -28 46 -76 60
-107 14 -31 28 -67 30 -79 2 -12 -9 -47 -25 -78 -17 -31 -30 -61 -30 -67 0 -6
-10 -19 -21 -30 -12 -10 -31 -39 -41 -62 -11 -24 -35 -60 -53 -80 -18 -21 -35
-47 -39 -59 -4 -11 -13 -23 -20 -26 -8 -3 -33 -1 -57 4 -24 5 -53 13 -64 18
-11 5 -42 14 -70 21 -27 6 -84 13 -125 15 -41 3 -92 7 -113 11 -21 3 -41 12
-43 19 -3 7 6 31 20 54 14 22 26 44 26 49 0 4 8 19 17 32 10 14 18 31 19 38 2
7 14 28 28 47 14 18 26 36 26 40 0 3 10 20 23 38 12 17 28 38 35 45 6 7 12 27
12 43 0 18 -18 56 -48 101 -27 40 -54 89 -62 108 -7 19 -17 39 -22 45 -4 5 -8
14 -8 20 0 7 63 11 201 10z m-221 -836 c53 0 134 -6 180 -13 47 -8 97 -19 113
-25 15 -6 27 -15 27 -21 0 -5 -12 -10 -27 -10 -16 0 -50 -7 -77 -15 -27 -8
-64 -26 -82 -40 -18 -14 -36 -25 -41 -25 -5 0 -24 -12 -42 -27 -18 -16 -42
-36 -52 -45 -11 -10 -19 -28 -19 -40 0 -13 6 -30 13 -39 7 -9 24 -18 39 -21
21 -4 37 3 67 28 22 19 44 34 49 34 6 0 21 14 35 31 17 21 31 30 46 27 22 -3
22 -5 -16 -53 -22 -27 -43 -62 -46 -76 -5 -21 1 -32 31 -61 20 -19 45 -38 54
-41 11 -4 22 3 33 19 12 19 13 29 5 45 -7 11 -9 27 -6 35 3 8 10 14 15 14 5 0
12 -13 16 -29 3 -16 14 -39 24 -50 10 -12 30 -21 45 -21 15 0 29 6 32 14 3 8
2 48 -3 88 -7 60 -6 81 7 106 11 24 26 35 55 43 22 6 51 16 63 22 20 9 31 7
68 -13 24 -14 96 -58 159 -98 63 -40 124 -87 137 -105 12 -18 28 -35 35 -40 6
-4 32 -38 55 -75 24 -37 49 -76 56 -87 7 -11 22 -40 33 -65 12 -25 25 -52 30
-60 4 -8 18 -35 30 -60 12 -25 25 -54 30 -65 4 -11 19 -58 33 -104 14 -46 26
-96 26 -111 0 -14 -5 -31 -12 -38 -9 -9 -8 -15 8 -26 17 -13 19 -30 22 -156 2
-77 1 -152 -2 -165 -4 -14 -12 -25 -18 -25 -6 0 -22 -10 -35 -22 -13 -12 -23
-25 -23 -30 0 -4 16 -26 37 -48 35 -40 36 -43 27 -88 -7 -39 -12 -46 -29 -44
-11 2 -33 6 -49 9 -23 4 -33 1 -47 -18 -10 -13 -19 -30 -19 -37 0 -7 11 -17
25 -22 14 -5 25 -14 25 -20 0 -6 7 -18 16 -27 10 -11 13 -25 8 -47 -3 -17 -13
-38 -21 -48 -8 -9 -25 -19 -39 -22 -19 -5 -24 -13 -24 -39 0 -17 4 -38 9 -46
7 -10 2 -27 -12 -53 -12 -21 -29 -38 -37 -37 -8 0 -33 22 -55 49 -22 28 -45
50 -52 50 -6 0 -23 -4 -37 -10 -16 -6 -26 -17 -26 -30 0 -11 19 -38 41 -60 23
-22 45 -40 49 -40 4 0 12 -12 19 -26 10 -22 8 -29 -11 -54 -13 -15 -33 -34
-46 -41 -20 -11 -26 -9 -60 23 -20 20 -47 39 -59 42 -12 4 -31 1 -42 -6 -12
-7 -21 -21 -21 -31 0 -10 16 -33 35 -53 19 -19 35 -39 35 -43 0 -5 -20 -21
-44 -35 -25 -14 -54 -26 -64 -26 -12 0 -29 14 -42 35 -12 19 -28 35 -35 35 -7
0 -20 -3 -29 -6 -9 -3 -16 -14 -16 -24 0 -10 7 -33 15 -53 14 -35 14 -35 -15
-47 -21 -9 -38 -9 -59 -2 -16 6 -54 29 -83 52 -29 23 -57 48 -61 56 -4 8 -18
14 -31 14 -13 0 -29 -7 -36 -15 -7 -9 -10 -25 -6 -40 4 -15 22 -35 41 -47 19
-11 35 -24 35 -28 0 -4 11 -11 25 -14 14 -4 25 -10 25 -15 0 -5 -32 -12 -72
-16 -69 -7 -73 -6 -92 17 -12 14 -33 40 -48 59 -15 19 -28 39 -28 45 0 6 -6
17 -14 23 -7 6 -21 9 -29 5 -9 -3 -23 -20 -32 -37 -8 -16 -15 -34 -15 -38 0
-4 14 -21 30 -37 17 -17 30 -36 30 -42 0 -9 -10 -10 -32 -6 -19 4 -51 24 -74
47 -32 31 -48 40 -69 37 -15 -2 -33 -11 -39 -20 -8 -13 -7 -23 3 -39 13 -21
12 -22 -35 -16 -30 3 -53 12 -61 23 -7 11 -20 27 -28 37 -9 10 -13 22 -10 26
3 5 -2 11 -10 15 -8 3 -20 17 -26 30 -7 14 -18 27 -25 30 -7 3 -27 0 -44 -5
-16 -6 -30 -17 -30 -25 0 -8 -2 -14 -5 -14 -4 0 -20 7 -37 16 -17 9 -40 13
-54 10 -13 -4 -24 -12 -24 -18 0 -7 14 -27 32 -45 l32 -33 -35 0 c-18 0 -51 6
-71 13 -20 7 -46 21 -57 31 -11 10 -23 28 -27 40 -3 11 -13 29 -22 39 -8 9
-25 17 -37 17 -12 0 -25 -3 -29 -7 -3 -4 -13 -8 -21 -9 -8 -1 -17 6 -20 15 -3
10 -19 27 -35 40 -25 18 -39 21 -73 16 -37 -6 -47 -3 -86 27 -24 18 -54 38
-65 45 -12 7 -60 50 -106 95 -47 46 -103 108 -125 138 -22 30 -57 89 -77 130
-20 41 -39 93 -43 115 -4 22 -11 45 -15 50 -4 6 -17 48 -29 95 -13 47 -29 105
-37 129 -10 30 -13 69 -9 130 3 47 10 118 15 156 6 39 15 97 21 130 5 33 12
75 15 93 4 17 10 32 14 32 4 0 10 17 14 39 3 21 13 44 21 51 8 7 15 21 15 30
0 10 3 20 8 22 4 2 17 23 30 48 12 25 29 54 37 64 15 19 16 19 53 -16 33 -33
43 -37 98 -39 33 -1 65 1 71 4 6 4 14 18 17 31 3 14 20 47 37 74 23 38 30 62
32 106 2 54 0 60 -30 85 -18 15 -33 35 -33 44 0 9 4 17 8 17 4 0 24 15 44 33
19 17 80 64 133 102 54 39 119 78 144 87 37 15 51 16 78 6 25 -9 37 -9 55 1
13 6 41 22 63 35 22 12 54 25 72 29 18 3 35 2 38 -3 3 -6 1 -10 -5 -10 -6 0
-9 -4 -6 -9 3 -5 -10 -16 -28 -25 -19 -9 -51 -35 -70 -58 -21 -24 -36 -52 -36
-67 0 -13 7 -33 17 -43 9 -10 30 -18 48 -18 17 0 36 5 43 12 7 7 12 19 12 28
0 8 15 27 34 42 18 15 36 24 40 21 3 -4 6 -16 6 -27 0 -12 12 -32 26 -45 l25
-25 24 30 c13 16 27 43 30 59 4 17 21 60 38 96 l32 67 95 1z m-1054 -539 c2 0
4 -4 4 -10 0 -5 -5 -10 -11 -10 -5 0 -7 5 -4 10 3 6 8 10 11 10z m939 -2080
c27 0 50 -6 60 -16 8 -9 13 -24 11 -33 -3 -9 -10 -36 -15 -61 -5 -25 -13 -78
-17 -117 l-7 -73 -33 0 c-23 0 -37 -6 -44 -19 -5 -11 -10 -28 -10 -39 0 -10 9
-27 20 -37 11 -10 20 -22 20 -26 0 -5 -14 -16 -31 -25 -29 -14 -30 -18 -24
-52 4 -20 11 -45 17 -55 6 -12 17 -17 29 -14 10 3 21 2 24 -3 3 -4 24 -11 48
-14 23 -4 57 -15 75 -26 18 -11 86 -38 151 -60 66 -22 145 -45 176 -51 31 -6
96 -30 143 -55 l86 -44 2 -67 c2 -43 -3 -79 -12 -97 -8 -16 -14 -48 -14 -70 0
-23 -4 -79 -10 -126 -5 -47 -12 -141 -14 -210 -2 -69 -9 -176 -15 -239 -6 -62
-13 -116 -15 -120 -2 -3 -7 -34 -11 -68 -3 -34 -8 -71 -10 -84 -2 -12 -7 -130
-10 -263 -3 -132 -5 -281 -4 -331 0 -49 1 -121 1 -160 0 -38 -2 -92 -5 -120
-3 -27 -9 -111 -12 -185 -4 -74 -8 -137 -10 -141 -3 -3 -5 -33 -5 -65 -1 -32
-6 -106 -11 -164 -6 -58 -16 -136 -23 -175 -8 -38 -14 -81 -14 -95 0 -14 -2
-95 -6 -180 -3 -85 -8 -186 -11 -225 -3 -38 -10 -113 -16 -165 -6 -52 -20
-126 -31 -163 -12 -38 -27 -71 -35 -74 -7 -3 -13 -13 -13 -24 0 -10 -7 -22
-15 -27 -13 -6 -13 -14 -4 -39 7 -21 7 -38 1 -50 -6 -11 -6 -76 -1 -168 4 -82
10 -289 13 -458 4 -170 11 -373 17 -450 6 -78 12 -194 13 -257 2 -63 8 -160
14 -215 7 -55 14 -165 17 -244 3 -79 7 -147 10 -150 2 -4 6 -63 9 -132 3 -68
10 -182 16 -254 6 -71 13 -168 15 -215 3 -47 7 -186 10 -310 2 -124 9 -268 14
-320 6 -52 17 -147 26 -210 8 -63 19 -138 24 -166 4 -28 4 -61 -1 -74 l-9 -23
-28 27 c-20 20 -26 33 -23 54 3 22 -2 32 -21 45 -23 15 -24 20 -27 149 -2 73
-4 178 -5 233 -1 55 -5 174 -9 265 -4 91 -9 194 -11 230 -3 36 -7 119 -10 184
-3 66 -12 148 -20 184 -8 35 -13 67 -10 71 2 5 -5 62 -16 127 -11 65 -17 134
-14 152 4 21 1 40 -10 54 -8 13 -15 44 -15 73 0 27 -7 91 -15 140 -9 50 -18
110 -20 135 -3 25 -7 57 -11 72 -3 15 -7 46 -9 70 -2 24 -6 67 -9 96 -3 29 -8
58 -12 63 -3 6 -8 20 -10 32 -2 12 -6 33 -9 47 -2 14 -9 61 -15 104 -5 44 -9
118 -9 165 1 47 -4 99 -11 115 -6 16 -13 77 -16 135 -3 58 -7 112 -10 119 -2
7 -7 122 -11 255 -5 133 -7 262 -7 287 1 25 4 65 7 88 3 24 3 50 0 58 -3 8
-32 28 -64 44 -31 16 -60 34 -64 40 -3 6 -23 19 -43 29 -20 10 -86 44 -147 76
-60 31 -126 62 -145 70 -19 7 -80 28 -135 48 -55 19 -122 40 -150 47 -27 8
-54 19 -58 27 -4 7 -23 13 -41 13 -19 0 -47 7 -62 15 -16 8 -41 15 -56 15 -15
0 -30 5 -33 10 -3 6 -15 10 -25 10 -11 0 -25 -10 -31 -22 -7 -13 -19 -28 -28
-35 -9 -7 -28 -13 -43 -13 -18 0 -33 -9 -44 -25 -8 -13 -13 -28 -10 -34 3 -5
24 -12 46 -16 40 -7 41 -7 34 -43 -4 -21 -13 -56 -20 -79 -8 -23 -16 -80 -18
-127 -3 -47 -7 -89 -10 -94 -3 -5 -11 -54 -17 -108 -7 -62 -8 -142 -3 -214 4
-63 7 -191 6 -285 -1 -93 -4 -181 -7 -195 -4 -14 -8 -45 -11 -70 -2 -25 -9
-88 -15 -140 -7 -52 -12 -144 -11 -205 0 -60 5 -166 9 -235 6 -78 5 -152 -1
-197 -7 -50 -6 -98 2 -165 7 -51 14 -133 17 -181 2 -48 0 -99 -5 -112 -5 -13
-5 -36 -1 -52 4 -15 4 -64 0 -108 -5 -49 -4 -103 2 -140 6 -33 12 -73 14 -90
3 -16 8 -50 12 -75 4 -25 8 -101 9 -170 1 -69 7 -150 13 -180 7 -30 14 -62 18
-70 3 -8 6 -70 7 -137 1 -90 -2 -123 -11 -123 -7 0 -32 21 -57 46 l-45 45 5
272 c3 150 5 277 5 282 0 6 -2 42 -6 80 -3 39 -11 96 -17 127 -6 32 -8 73 -5
92 3 20 1 51 -4 70 -5 19 -11 144 -13 278 -2 168 -8 269 -19 326 -9 45 -19 87
-23 93 -4 6 -11 41 -15 78 -5 36 -12 83 -15 103 -4 23 -1 48 9 67 13 25 13 38
1 87 -7 31 -11 71 -8 88 3 17 9 49 14 71 5 22 14 99 20 170 10 103 10 151 -1
230 -7 55 -14 136 -16 180 -1 44 -4 188 -6 319 -2 168 1 262 11 315 7 42 16
95 21 119 4 23 11 45 14 48 3 4 2 15 -4 26 -7 14 -7 23 1 33 6 7 13 38 16 67
2 29 9 62 15 74 8 17 6 29 -10 60 -12 21 -21 49 -21 62 0 13 4 32 10 42 5 10
10 71 11 136 0 66 -2 127 -6 137 -5 12 -2 17 8 17 11 0 17 14 21 53 4 28 8 90
11 137 2 47 9 110 14 140 4 30 7 75 4 100 -2 25 1 54 6 65 5 11 14 63 21 115
6 52 15 109 20 125 5 17 14 80 20 140 7 61 13 144 15 185 2 41 6 82 9 90 2 8
11 49 20 90 8 41 28 131 44 200 16 69 35 161 42 205 7 48 14 205 16 390 2 171
6 328 9 350 2 22 7 81 11 130 6 75 4 93 -9 107 -9 8 -15 21 -14 29 2 8 6 20
10 27 5 6 5 17 2 22 -3 6 -13 10 -21 10 -8 0 -14 -10 -14 -24 0 -14 -13 -37
-29 -54 -16 -16 -34 -46 -40 -68 -7 -21 -14 -73 -17 -114 -4 -41 -12 -90 -20
-109 -8 -18 -14 -46 -14 -62 0 -16 -4 -29 -10 -29 -5 0 -10 -8 -10 -18 0 -11
-6 -32 -14 -48 -8 -16 -21 -45 -30 -64 -8 -19 -36 -107 -61 -195 -26 -88 -55
-189 -66 -225 -11 -36 -31 -108 -46 -160 -14 -52 -32 -116 -39 -142 -7 -25
-18 -57 -25 -69 -6 -12 -18 -48 -26 -78 -8 -31 -17 -72 -19 -91 -3 -19 -8 -42
-11 -50 -4 -8 -7 -17 -8 -20 -1 -3 -5 -18 -9 -35 -4 -16 -12 -39 -17 -50 -5
-11 -18 -47 -30 -80 -11 -33 -30 -91 -40 -130 -11 -38 -33 -96 -50 -128 -16
-31 -29 -66 -29 -76 0 -10 -6 -21 -14 -24 -7 -3 -16 -23 -19 -45 -4 -22 -14
-45 -22 -52 -9 -7 -15 -29 -15 -51 0 -21 -4 -40 -9 -43 -5 -3 -11 -20 -14 -38
-3 -18 -10 -52 -16 -76 -6 -24 -20 -62 -31 -85 -10 -23 -29 -76 -41 -117 -11
-41 -27 -97 -33 -125 -7 -28 -18 -50 -26 -50 -7 0 -21 16 -31 35 -11 19 -19
42 -19 50 0 9 15 51 33 95 19 44 37 94 41 110 4 17 18 57 30 90 13 33 31 89
41 125 9 36 21 73 26 82 5 10 9 29 9 42 0 13 7 48 16 77 9 30 24 72 34 94 11
22 28 69 38 105 11 36 25 85 32 110 8 25 29 88 47 140 19 52 43 118 52 145 10
28 26 77 36 110 10 33 21 69 25 80 5 11 15 36 23 55 9 19 20 55 26 80 5 25 13
63 17 85 4 22 6 46 5 53 -1 8 2 19 7 25 5 7 16 41 25 77 8 36 20 86 26 113 6
26 11 58 11 70 0 13 3 27 7 31 4 3 8 17 10 29 2 12 8 34 14 49 6 15 8 32 4 38
-4 6 -2 16 3 23 5 7 13 53 17 102 4 50 10 95 13 100 4 6 8 21 10 35 2 13 7 29
11 35 5 5 11 29 15 53 3 24 18 82 31 128 14 47 28 91 32 97 4 6 8 27 10 47 2
19 13 54 23 77 11 24 20 46 20 51 0 4 11 33 25 63 14 29 34 70 43 89 17 34 19
35 67 32 28 -2 77 -8 110 -13 33 -6 85 -17 115 -26 30 -8 100 -29 155 -45 55
-16 127 -43 160 -59 33 -16 70 -29 82 -29 11 0 23 7 27 15 3 9 18 15 35 15 16
0 37 7 45 16 9 8 18 25 21 37 3 12 7 63 9 112 3 50 7 113 10 140 3 28 11 84
17 125 6 41 13 85 16 98 4 19 12 22 48 22z m-648 -220 c12 0 25 -5 29 -12 4
-6 -1 -17 -11 -25 -11 -7 -34 -13 -52 -13 -18 0 -33 4 -33 9 0 6 10 17 22 25
12 9 32 16 45 16z m1067 -351 c11 1 17 -2 13 -5 -3 -3 -12 -4 -19 -1 -8 3 -5
6 6 6z m414 -184 c9 -2 19 -4 22 -4 3 -1 -2 -5 -10 -10 -8 -6 -18 -7 -22 -5
-4 3 -8 9 -8 14 0 4 8 7 18 5z m133 -125 c17 0 19 -7 19 -67 0 -38 -4 -75 -10
-83 -5 -8 -11 -12 -14 -10 -2 3 -9 37 -14 75 -5 39 -8 73 -5 78 2 4 13 7 24 7z
m-169 -188 c6 -6 15 -35 19 -64 4 -29 10 -102 12 -163 3 -60 8 -143 12 -184
l8 -74 -26 7 c-25 6 -26 5 -21 -24 4 -16 4 -30 2 -30 -3 0 -19 5 -37 11 -24 9
-30 16 -26 30 3 10 8 28 11 40 4 15 9 17 18 10 9 -8 18 -7 30 2 16 12 17 18 5
58 -7 24 -12 60 -11 79 2 21 -5 46 -16 63 -16 24 -18 36 -10 75 5 26 11 65 14
87 3 22 5 51 4 65 0 18 3 21 12 12z m256 -172 c5 0 14 -6 20 -12 5 -7 15 -31
22 -53 6 -22 14 -69 17 -105 3 -36 9 -73 14 -82 5 -9 9 -32 9 -51 0 -19 7 -40
15 -47 8 -7 15 -19 15 -27 0 -11 -8 -13 -32 -8 -18 4 -38 13 -44 21 -7 8 -15
36 -19 62 -5 26 -10 56 -13 67 -2 11 -6 68 -9 128 -2 63 0 107 5 107z m-1996
-192 c4 -7 8 -19 8 -25 0 -7 -7 -13 -15 -13 -8 0 -15 8 -15 18 0 10 3 22 7 25
4 4 10 2 15 -5z m1787 -266 c20 -21 31 -43 32 -65 1 -17 1 -36 0 -41 -1 -5 -3
-26 -4 -47 -1 -21 -4 -36 -8 -33 -4 2 -14 26 -23 52 -9 26 -18 74 -22 107 l-6
60 31 -33z m288 1 c15 -17 36 -40 46 -52 10 -13 27 -50 37 -84 10 -34 21 -78
25 -97 3 -19 2 -40 -2 -46 -5 -6 -27 -13 -50 -16 -39 -6 -42 -4 -48 21 -3 14
-10 62 -16 106 -6 44 -13 106 -16 139 l-5 59 29 -30z m-2178 -63 c5 0 13 -4
16 -10 3 -5 2 -10 -4 -10 -5 0 -13 5 -16 10 -3 6 -2 10 4 10z m1786 -10 c8 -7
15 -24 15 -38 0 -14 16 -49 37 -79 20 -29 41 -54 47 -54 6 -1 17 -1 24 0 7 1
15 -5 18 -14 4 -8 2 -21 -4 -28 -6 -6 -12 -43 -15 -80 -2 -38 -9 -73 -15 -79
-6 -6 -15 -7 -21 -4 -6 4 -11 18 -11 32 0 13 -4 32 -10 42 -5 9 -19 45 -30 79
-12 35 -20 73 -18 85 2 18 -2 24 -24 26 -24 3 -26 6 -22 40 3 20 7 48 10 60 4
20 7 22 19 12z m-1839 -164 c8 -11 14 -33 14 -49 0 -22 -4 -28 -17 -25 -10 2
-19 11 -21 21 -2 10 -1 31 3 45 6 26 7 26 21 8z m2114 -21 c5 -3 12 -22 15
-43 4 -20 11 -48 16 -61 5 -13 12 -62 15 -110 3 -47 9 -102 14 -121 5 -19 19
-78 31 -130 12 -52 23 -104 24 -115 1 -11 5 -47 9 -80 4 -33 12 -82 18 -110 6
-27 15 -62 20 -77 6 -15 11 -105 13 -200 1 -95 7 -199 13 -232 6 -32 14 -61
17 -64 2 -3 0 -11 -6 -19 -9 -10 -9 -28 -1 -71 6 -31 14 -75 17 -97 3 -22 7
-86 9 -143 3 -56 9 -117 15 -135 6 -18 13 -50 15 -72 3 -22 12 -73 20 -114 9
-40 13 -77 10 -82 -3 -5 2 -19 10 -31 8 -13 21 -55 30 -95 9 -40 16 -99 16
-132 l0 -61 -50 0 c-48 0 -50 1 -50 27 0 14 -7 34 -16 44 -8 9 -17 35 -20 56
-2 21 -6 89 -9 152 -3 62 -8 117 -11 122 -3 6 -8 76 -10 157 -3 81 -12 201
-20 267 -9 66 -17 138 -19 160 -3 22 -7 68 -10 103 -4 35 -11 77 -17 95 -6 18
-12 93 -13 167 -3 96 -11 173 -29 263 -15 71 -24 132 -22 136 3 5 1 36 -5 71
-5 34 -12 115 -15 179 -2 64 -5 123 -5 131 0 8 -7 57 -15 107 -8 51 -14 109
-14 128 0 21 4 34 10 30z m-311 -55 c3 -1 16 -22 28 -48 12 -26 25 -62 28 -80
4 -18 13 -36 21 -39 8 -3 21 -19 27 -36 11 -26 10 -36 -7 -70 -11 -22 -20 -56
-22 -76 -1 -20 -2 -48 -3 -63 -1 -16 -5 -28 -9 -28 -4 0 -20 27 -36 59 -26 56
-28 68 -31 220 -1 89 0 161 4 161z m465 -37 c15 -17 42 -41 61 -53 24 -15 37
-32 44 -58 5 -20 12 -53 16 -72 6 -33 5 -34 -10 -15 -15 19 -16 19 -50 0 -28
-14 -38 -16 -48 -6 -6 6 -15 42 -19 79 -4 37 -10 87 -13 112 l-6 45 25 -32z
m-2297 -3 c7 0 13 -7 13 -16 0 -9 -14 -61 -31 -116 -17 -55 -29 -111 -26 -125
3 -17 -3 -32 -19 -48 -13 -13 -24 -33 -24 -44 0 -11 -8 -35 -19 -53 -10 -18
-22 -52 -25 -76 -4 -24 -11 -53 -18 -65 -6 -12 -14 -28 -18 -36 -3 -8 -12 -17
-18 -19 -7 -2 -12 1 -12 6 0 6 7 17 15 26 8 8 15 26 15 40 0 14 6 49 14 78 8
29 22 69 32 88 10 19 19 40 19 45 0 6 6 37 14 70 7 33 17 76 23 95 5 19 16 49
24 67 8 17 14 40 14 50 0 11 3 23 7 26 3 4 12 7 20 7z m2337 -270 c8 0 16 -7
20 -15 3 -8 14 -15 24 -15 10 0 32 -15 49 -32 19 -20 31 -43 31 -58 -1 -14 6
-49 14 -79 8 -29 13 -64 10 -77 -3 -17 -11 -24 -26 -24 -12 0 -27 -5 -34 -12
-7 -7 -12 -27 -12 -46 0 -22 -4 -32 -12 -30 -7 3 -16 27 -20 54 -4 27 -9 58
-11 69 -2 11 -8 47 -11 80 -4 33 -11 76 -16 95 -4 19 -11 47 -14 63 -5 19 -2
27 8 27z m-509 -134 c8 -11 15 -25 15 -31 0 -6 12 -22 26 -36 24 -22 25 -28
20 -94 -3 -38 -7 -83 -7 -100 -1 -16 -1 -75 0 -130 1 -55 1 -135 1 -179 0 -63
-2 -77 -13 -68 -7 6 -19 28 -26 49 -8 21 -21 43 -29 49 -12 9 -15 32 -14 110
1 54 2 113 2 129 1 17 6 49 12 73 9 34 13 40 25 31 7 -7 16 -9 20 -6 3 4 -4
29 -16 56 -11 27 -18 56 -15 64 3 8 1 18 -5 22 -6 3 -11 23 -11 43 1 35 2 36
15 18z m613 -272 c20 -4 44 -10 53 -15 11 -5 19 -34 27 -90 7 -44 9 -85 6 -90
-3 -5 -15 -9 -27 -9 -12 1 -34 11 -48 23 -21 17 -28 37 -38 94 -6 39 -11 77
-11 83 0 7 13 9 38 4z m-2696 -94 c4 0 8 -1 8 -3 0 -2 -5 -29 -10 -60 -6 -31
-17 -69 -25 -84 -8 -16 -15 -41 -15 -58 0 -16 -9 -40 -19 -52 -11 -13 -26 -23
-35 -23 -15 0 -15 3 -1 30 8 16 15 35 15 43 0 8 7 28 15 43 8 16 15 38 15 48
0 11 10 41 22 68 12 26 25 48 30 48z m2685 -170 c5 0 32 -11 60 -24 l50 -25 7
-62 c3 -34 12 -72 19 -83 8 -12 19 -59 25 -106 6 -47 14 -114 17 -150 4 -36
12 -87 20 -115 7 -27 17 -68 22 -90 5 -22 7 -64 5 -93 -4 -46 -6 -52 -23 -47
-10 3 -27 1 -39 -5 -11 -6 -20 -18 -19 -28 0 -9 14 -28 31 -42 17 -13 42 -23
55 -22 12 1 23 -4 24 -11 1 -6 0 -25 -1 -40 -1 -15 4 -34 10 -42 6 -8 9 -19 5
-24 -3 -6 1 -45 9 -88 9 -43 18 -88 22 -99 4 -15 -1 -28 -17 -43 -12 -11 -37
-26 -56 -32 -19 -6 -40 -8 -48 -5 -9 3 -15 18 -15 35 0 16 -4 32 -9 35 -5 3
-12 36 -16 73 -4 38 -13 86 -21 108 -8 22 -17 74 -20 115 -4 41 -10 80 -14 85
-5 6 -11 51 -15 100 -3 50 -9 102 -11 118 -4 21 -2 27 13 28 14 1 15 2 2 6
-12 3 -19 29 -28 121 -7 64 -15 124 -18 132 -2 8 -8 73 -13 145 -5 71 -12 140
-16 153 -3 12 -2 22 3 22z m-634 -110 c4 0 7 -8 7 -19 0 -10 8 -29 18 -42 10
-13 26 -51 34 -85 8 -33 13 -75 10 -92 -2 -18 -7 -32 -11 -32 -3 1 -25 18 -49
39 -38 35 -41 42 -32 65 5 14 11 57 12 96 2 38 6 70 11 70z m-2168 -120 c10 0
13 -8 10 -27 -2 -16 -7 -49 -10 -74 -5 -36 -14 -53 -44 -82 -22 -20 -44 -37
-50 -37 -6 0 -11 6 -11 14 0 8 4 17 9 20 5 4 12 24 16 46 4 22 11 42 16 46 5
3 9 12 9 21 0 8 9 28 21 44 11 16 27 29 34 29z m2138 -180 c6 0 22 -15 33 -33
12 -17 26 -40 31 -49 4 -10 5 -65 1 -124 -4 -59 -9 -109 -12 -112 -3 -3 -13 1
-21 8 -12 10 -19 10 -27 2 -8 -8 -4 -24 19 -60 28 -45 29 -52 22 -108 -5 -32
-14 -139 -20 -237 -8 -118 -16 -176 -23 -174 -6 2 -17 16 -24 31 -11 22 -19
26 -37 22 -22 -6 -22 -4 -19 62 2 37 11 90 19 117 9 33 16 120 20 250 4 110 8
232 10 270 2 39 6 77 10 86 3 9 5 20 4 25 -1 5 -1 12 0 17 0 4 7 7 14 7z
m-2246 -130 c7 0 13 -4 13 -10 0 -5 -9 -14 -20 -20 -15 -8 -20 -8 -20 3 0 8 3
17 7 20 3 4 12 7 20 7z m901 -590 c10 0 28 -7 41 -17 13 -9 54 -19 90 -23 36
-4 98 -19 136 -35 39 -15 81 -29 95 -32 14 -3 32 -11 40 -18 8 -6 49 -29 90
-49 41 -21 87 -45 101 -54 14 -9 43 -29 65 -43 21 -15 48 -36 58 -48 17 -18
19 -37 19 -144 1 -67 0 -135 -1 -152 -2 -16 -1 -64 0 -105 2 -41 7 -81 12 -89
5 -8 11 -32 13 -55 2 -23 6 -81 8 -131 3 -49 7 -117 10 -150 2 -33 9 -80 14
-105 5 -25 7 -84 5 -132 -4 -70 -1 -96 16 -140 11 -29 20 -72 20 -96 0 -24 6
-71 14 -105 8 -34 19 -111 25 -172 7 -60 18 -155 25 -210 8 -55 20 -139 26
-187 7 -48 14 -100 16 -115 2 -15 10 -66 19 -113 8 -47 17 -107 19 -135 3 -27
8 -111 12 -185 3 -74 8 -166 10 -205 2 -38 5 -97 7 -131 2 -34 7 -65 10 -70 3
-5 9 -85 13 -177 l7 -168 -26 10 c-15 6 -37 17 -49 25 -13 8 -34 17 -48 21
-14 4 -36 16 -49 26 -13 11 -31 19 -40 19 -10 0 -30 14 -46 30 -16 17 -35 30
-42 30 -7 0 -20 11 -28 24 -9 13 -34 31 -56 40 -22 9 -55 16 -74 16 -19 0 -69
-11 -111 -25 -42 -14 -84 -25 -92 -25 -9 0 -38 -19 -65 -42 -30 -25 -65 -44
-91 -49 -22 -5 -66 -11 -95 -14 -30 -2 -67 -7 -82 -10 -26 -6 -27 -4 -30 37
-2 24 -2 91 1 150 5 97 7 109 28 123 12 9 22 24 22 34 0 10 -11 24 -25 31 -22
12 -25 20 -26 69 0 31 -2 110 -4 176 -1 66 -3 136 -4 155 -1 19 -8 78 -17 130
-8 52 -17 109 -19 125 -2 17 -9 89 -14 160 -6 72 -15 175 -21 230 -5 55 -12
133 -15 173 -2 41 0 93 5 116 5 23 10 145 10 271 1 127 5 257 10 290 5 33 11
98 15 145 3 47 10 135 16 195 7 77 7 219 -1 469 -6 197 -8 373 -4 390 3 17 8
34 11 39 2 4 12 7 21 7z m1281 -182 c9 -2 20 -13 26 -25 6 -11 17 -28 24 -36
7 -9 21 -56 31 -105 10 -49 18 -116 19 -148 0 -32 3 -92 6 -133 l6 -76 -48 50
c-27 28 -55 60 -63 73 -10 16 -28 25 -55 29 l-40 5 3 56 c2 32 6 64 9 72 4 8
8 24 9 35 2 11 7 42 12 68 5 26 14 53 20 59 7 7 12 24 12 38 0 15 3 30 7 34 4
4 14 5 22 4z m-1439 -18 c5 -8 10 -18 10 -22 0 -5 -4 -8 -10 -8 -5 0 -10 10
-10 23 0 18 2 19 10 7z m-5 -116 c7 -3 16 -22 19 -42 3 -20 5 -56 5 -80 0 -37
-4 -44 -25 -52 -14 -6 -27 -10 -30 -10 -2 0 -2 35 0 78 3 42 8 85 11 94 4 9
13 14 20 12z m10 -218 c5 -1 11 -36 12 -77 2 -41 5 -84 7 -97 2 -15 0 -19 -8
-13 -6 5 -20 11 -31 13 -13 2 -20 12 -21 28 -1 14 -3 44 -5 67 -2 32 2 47 16
62 11 11 24 19 30 17z m1377 -128 c16 -13 37 -27 46 -33 8 -5 26 -21 38 -35
22 -24 22 -25 43 -6 12 11 23 17 26 15 2 -3 7 -43 11 -89 l7 -84 -39 24 c-21
13 -52 32 -67 43 -18 12 -40 18 -62 15 l-33 -4 -4 51 c-2 27 -2 67 0 88 l3 37
31 -22z m-1374 -98 c10 0 12 -25 11 -104 -1 -93 -3 -105 -20 -109 -10 -3 -22
-1 -25 4 -3 6 -7 50 -7 100 -2 70 1 92 13 99 8 5 21 10 28 10z m1386 -144 c17
-8 59 -27 94 -42 l63 -28 -4 -38 c-2 -21 2 -46 9 -56 8 -11 9 -21 2 -29 -7 -9
-17 -5 -40 15 -17 15 -39 36 -49 46 -11 11 -19 23 -19 28 0 4 -9 8 -19 8 -11
0 -29 -12 -40 -27 -12 -14 -23 -24 -26 -22 -2 3 -6 37 -8 77 -2 39 -2 74 1 76
2 3 19 -1 36 -8z m-1415 -146 c10 0 22 -7 25 -16 3 -9 6 -36 6 -60 0 -44 0
-44 -35 -44 -23 0 -33 4 -30 13 2 6 6 32 9 57 2 25 5 46 5 48 1 1 10 2 20 2z
m1404 -26 c6 -4 26 -18 43 -31 17 -13 35 -23 39 -23 5 0 17 -8 28 -17 18 -17
20 -17 37 5 10 12 21 22 24 22 3 0 6 -30 6 -66 l0 -66 -32 7 c-18 4 -55 8 -83
8 -44 2 -50 0 -53 -20 -2 -12 6 -31 17 -42 12 -12 33 -21 49 -21 15 -1 42 -9
61 -18 l33 -17 0 -145 c1 -80 0 -178 -1 -218 l-1 -72 -57 6 c-56 7 -56 7 -50
-17 4 -13 7 -29 7 -35 0 -6 23 -21 50 -33 48 -21 50 -23 50 -61 0 -38 -2 -40
-30 -40 -23 0 -33 -6 -42 -25 -8 -19 -8 -28 2 -39 6 -9 27 -21 46 -28 l34 -12
0 -73 c0 -71 -1 -73 -25 -73 -14 0 -29 -8 -35 -21 -6 -11 -10 -30 -8 -41 2
-14 15 -25 35 -32 18 -6 36 -15 41 -21 5 -5 12 -38 15 -72 l5 -63 -39 0 c-27
0 -42 -5 -46 -16 -3 -8 -1 -26 6 -40 6 -13 22 -29 35 -34 14 -5 33 -17 43 -27
10 -10 24 -41 30 -68 7 -32 8 -56 2 -67 -7 -13 -17 -16 -33 -12 -13 3 -29 0
-37 -8 -8 -8 -22 -17 -31 -21 -12 -4 -18 -17 -18 -36 0 -25 5 -32 28 -38 15
-4 44 -7 64 -7 21 -1 38 -1 39 -1 0 0 3 -35 5 -79 l6 -79 -35 7 c-19 3 -42 4
-51 0 -9 -3 -16 -13 -16 -22 0 -8 7 -24 17 -34 9 -10 30 -18 47 -18 17 0 36
-4 43 -8 6 -4 14 -23 18 -42 3 -19 7 -51 9 -70 2 -19 7 -57 11 -83 l8 -48 -34
20 c-19 11 -50 22 -69 26 -28 5 -39 2 -54 -13 -13 -16 -15 -25 -7 -40 6 -10
21 -27 35 -36 14 -9 41 -16 60 -16 19 0 47 -5 62 -10 15 -6 24 -13 21 -17 -4
-3 -2 -13 2 -22 5 -9 12 -56 15 -106 4 -49 9 -98 12 -107 3 -10 -3 -21 -14
-27 -10 -5 -37 -7 -60 -4 -38 5 -41 4 -48 -22 -4 -18 -2 -32 8 -41 8 -8 40
-18 71 -21 50 -5 57 -8 57 -27 0 -12 5 -27 11 -33 7 -7 7 -22 0 -49 -6 -22
-20 -45 -31 -52 -11 -7 -20 -19 -20 -27 0 -9 16 -31 35 -51 24 -23 35 -44 35
-64 0 -15 3 -37 7 -47 7 -17 6 -17 -20 0 -14 9 -35 17 -45 17 -10 0 -23 -5
-30 -12 -7 -7 -12 -22 -12 -33 0 -12 9 -30 20 -40 15 -13 29 -16 58 -12 l38 7
2 -63 c1 -34 4 -73 7 -87 3 -14 1 -31 -4 -39 -5 -7 -13 -11 -19 -7 -5 3 -12
33 -14 66 -3 37 -11 67 -20 76 -10 10 -24 14 -36 10 -11 -4 -25 -19 -31 -34
-6 -15 -13 -58 -14 -96 l-3 -69 -52 -20 c-29 -11 -55 -17 -59 -13 -3 3 -2 16
3 28 6 13 7 40 4 61 -4 20 -9 40 -13 43 -3 3 -15 0 -27 -6 -12 -6 -29 -28 -38
-48 -8 -20 -18 -57 -21 -81 -3 -25 -11 -46 -17 -48 -8 -3 -10 15 -7 59 4 46 1
68 -10 83 -15 20 -16 20 -41 -4 -19 -18 -26 -35 -26 -62 0 -21 -4 -40 -9 -43
-5 -3 -12 -21 -15 -40 -4 -22 -14 -37 -26 -41 -11 -3 -32 -8 -46 -11 -19 -3
-33 2 -51 21 -14 14 -34 25 -44 25 -10 0 -23 -9 -29 -19 -5 -11 -10 -31 -10
-45 0 -17 -6 -26 -15 -26 -9 0 -28 -6 -43 -14 -15 -8 -44 -17 -64 -21 l-35 -7
4 69 c5 64 4 70 -22 96 -15 15 -34 27 -41 27 -8 0 -15 -6 -15 -12 -1 -7 -2
-20 -3 -28 0 -8 2 -32 7 -53 5 -27 3 -44 -7 -59 -10 -14 -12 -28 -6 -43 6 -16
5 -27 -3 -33 -7 -5 -27 -14 -46 -20 -18 -7 -38 -9 -43 -6 -6 4 -7 29 -4 63 4
31 12 85 18 121 7 41 18 71 31 83 10 9 30 17 43 17 12 0 26 5 29 10 3 6 16 10
28 10 12 0 31 7 41 15 11 8 28 15 39 15 10 0 69 16 131 36 61 20 126 43 144
50 18 8 43 14 55 14 13 0 28 5 33 10 6 6 36 11 69 13 55 2 60 4 87 41 25 35
27 41 14 61 -9 14 -16 70 -20 178 -4 86 -11 171 -17 189 -5 18 -12 76 -15 128
-2 52 -7 106 -11 120 -3 14 -7 117 -9 230 -1 113 -6 293 -9 400 -4 107 -12
206 -17 220 -6 14 -12 86 -15 160 -2 74 -9 164 -15 200 -6 36 -13 128 -15 205
-2 77 -4 149 -5 160 0 11 -4 56 -9 100 -4 44 -10 141 -14 215 -3 74 -8 160
-11 190 -2 30 -7 111 -10 180 -3 69 -5 130 -4 135 0 6 2 24 4 40 2 17 4 31 5
33 0 2 7 0 14 -4z m-1424 -156 c26 -3 26 -4 24 -78 -1 -41 -4 -115 -8 -165 -4
-49 -8 -92 -10 -93 -2 -2 -13 -1 -26 3 -21 7 -21 9 -14 114 5 58 8 132 8 164
0 57 1 58 26 55z m-14 -428 c11 0 15 -13 15 -54 0 -30 -4 -57 -9 -60 -4 -3
-11 15 -15 41 -3 25 -6 52 -6 59 0 8 7 14 15 14z m0 -200 c0 0 1 -18 2 -40 1
-22 -2 -40 -8 -40 -5 0 -9 15 -9 33 0 19 3 37 7 40 3 4 7 7 8 7z m6 -235 c5
-4 9 -15 9 -25 0 -10 4 -21 9 -25 6 -3 9 -28 9 -55 -1 -32 -6 -50 -14 -50 -6
0 -14 6 -17 13 -3 8 -8 39 -12 70 -4 30 -4 60 0 66 3 6 11 9 16 6z m12 -237
c18 -2 24 -12 31 -50 8 -39 6 -51 -7 -66 -10 -10 -17 -26 -17 -36 0 -9 11 -21
25 -26 14 -5 25 -17 26 -27 1 -10 3 -48 4 -85 3 -50 0 -68 -11 -72 -8 -3 -14
-17 -14 -30 0 -14 9 -31 22 -40 19 -13 22 -27 26 -101 l5 -85 -26 0 c-13 0
-29 6 -34 13 -5 6 -15 43 -23 81 -7 37 -12 87 -12 110 0 22 -7 71 -15 109 -11
49 -13 75 -5 95 6 15 9 56 8 92 -1 36 -3 70 -5 75 -2 6 -3 18 -2 28 1 13 8 17
24 15z m51 -698 c29 0 37 -4 42 -24 5 -19 -1 -31 -27 -54 l-32 -29 23 -34 c21
-28 25 -48 28 -131 4 -94 4 -98 -17 -98 -17 0 -21 6 -21 33 0 17 -4 46 -9 63
-5 17 -12 85 -16 152 l-7 122 36 0z m33 -470 c10 0 13 -6 9 -16 -3 -9 -6 -40
-6 -70 0 -41 -4 -54 -15 -54 -11 0 -15 13 -15 54 0 30 3 61 6 70 3 9 13 16 21
16z m701 -1 c1 1 20 -10 41 -24 22 -13 42 -29 46 -35 3 -5 14 -10 24 -10 10 0
35 -13 56 -30 21 -16 46 -30 57 -30 10 0 26 -4 36 -10 9 -5 43 -21 74 -35 32
-15 60 -31 64 -36 3 -6 16 -14 29 -19 18 -7 23 -18 28 -67 3 -32 4 -87 2 -123
-4 -63 -4 -65 -37 -76 -18 -6 -55 -14 -83 -18 -27 -4 -79 -22 -115 -40 -36
-18 -92 -38 -125 -45 -33 -7 -95 -22 -138 -33 -42 -11 -79 -24 -82 -28 -3 -5
-38 -13 -78 -20 -39 -6 -82 -14 -94 -16 -13 -2 -29 -18 -38 -38 -10 -21 -15
-56 -14 -97 1 -35 -1 -108 -6 -162 -6 -74 -12 -103 -25 -115 -10 -9 -18 -30
-18 -47 0 -16 10 -43 22 -60 11 -16 22 -31 22 -33 1 -2 19 -5 40 -8 21 -3 49
-11 61 -19 12 -8 33 -15 45 -16 13 0 37 -9 53 -20 17 -10 55 -30 85 -45 40
-18 63 -24 85 -19 17 4 44 7 60 7 17 0 46 -3 65 -7 19 -4 49 -18 67 -31 17
-13 41 -24 52 -24 17 0 21 6 21 29 0 22 -10 38 -42 65 -23 20 -39 39 -35 42 4
4 13 1 21 -6 10 -8 32 -10 63 -7 26 3 78 10 114 15 37 5 72 12 78 16 7 4 17 4
24 -1 7 -5 35 -16 62 -25 28 -9 64 -15 80 -13 17 1 34 3 38 4 5 0 7 13 5 28
-3 25 -8 29 -52 35 -29 4 -56 15 -68 27 -10 12 -23 21 -28 21 -6 0 -10 5 -10
10 0 6 11 10 24 10 12 0 36 5 52 10 24 9 45 6 107 -15 43 -14 90 -25 106 -25
16 0 31 6 34 14 3 7 -1 23 -9 35 -8 11 -24 21 -35 21 -10 0 -19 7 -19 15 0 8
10 17 23 20 12 3 36 -1 52 -9 17 -9 34 -16 39 -16 5 0 24 -11 42 -25 21 -16
46 -25 68 -25 29 0 36 4 38 20 0 11 1 24 2 29 1 5 -16 21 -37 35 -21 14 -47
26 -58 26 -12 0 -19 5 -17 12 3 7 16 15 31 19 19 5 32 2 48 -12 12 -10 30 -19
39 -19 9 0 32 -7 50 -16 23 -12 38 -14 49 -7 9 6 17 27 19 50 2 29 8 42 21 46
10 2 20 16 23 31 3 15 0 30 -8 37 -7 6 -15 43 -18 87 -3 42 -9 124 -14 182 -5
58 -8 106 -7 108 1 1 21 -12 44 -28 23 -17 90 -54 149 -81 59 -28 125 -60 147
-71 22 -12 49 -29 61 -39 11 -11 25 -19 31 -19 6 0 16 -7 23 -15 7 -8 20 -15
30 -15 9 0 37 -11 61 -25 24 -13 86 -45 138 -70 52 -25 120 -61 150 -79 31
-17 89 -43 130 -56 41 -13 110 -41 153 -62 44 -22 144 -64 221 -94 78 -31 168
-67 199 -82 51 -23 56 -28 43 -41 -10 -11 -39 -16 -97 -17 -46 -1 -135 -9
-200 -18 -64 -9 -142 -25 -174 -36 -31 -11 -72 -20 -89 -20 -18 0 -81 -14
-141 -31 -60 -17 -116 -35 -125 -40 -8 -4 -33 -10 -55 -13 -21 -3 -84 -17
-139 -31 -54 -15 -106 -30 -115 -35 -8 -4 -35 -11 -60 -15 -25 -4 -57 -13 -71
-21 -14 -7 -55 -19 -90 -27 -35 -8 -89 -18 -119 -22 -30 -3 -69 -11 -86 -16
-17 -5 -41 -12 -54 -14 -12 -2 -52 -13 -89 -24 -36 -11 -91 -25 -121 -32 -30
-6 -59 -14 -64 -17 -4 -2 -33 -6 -64 -9 -30 -2 -64 -10 -76 -18 -12 -9 -32
-13 -51 -10 -17 4 -96 -9 -190 -30 -88 -20 -200 -45 -250 -56 -49 -10 -113
-19 -140 -19 -28 0 -65 -4 -83 -9 -18 -6 -63 -11 -100 -12 -37 -1 -92 -7 -122
-15 -30 -7 -64 -16 -76 -19 -13 -4 -25 -1 -33 9 -8 9 -22 16 -33 16 -11 0 -39
16 -62 35 -24 19 -48 35 -53 35 -5 0 -18 9 -28 20 -10 11 -24 20 -31 20 -7 0
-26 11 -42 25 -17 14 -36 25 -42 25 -7 0 -31 15 -54 33 -23 19 -84 55 -136 81
-52 27 -102 54 -110 60 -8 7 -34 22 -57 34 -23 11 -52 27 -65 34 -13 7 -32 20
-43 30 -11 9 -48 31 -83 48 -35 18 -71 33 -79 34 -9 2 -26 14 -37 27 -12 13
-52 39 -89 58 -37 19 -70 38 -73 42 -3 5 -14 9 -24 9 -10 0 -25 6 -32 13 -7 6
-31 24 -53 38 -22 15 -51 30 -65 34 -14 5 -31 16 -38 26 -7 11 -18 19 -25 19
-6 0 -20 10 -32 21 -11 12 -60 43 -110 69 -49 26 -167 86 -261 134 -107 54
-184 86 -203 86 -23 0 -31 4 -29 15 2 8 -20 29 -52 50 -30 20 -72 41 -93 47
-21 6 -47 22 -57 35 -10 13 -20 23 -23 23 -3 0 -22 10 -43 22 l-36 21 43 18
c24 10 55 18 69 18 14 1 31 10 38 21 9 15 23 20 53 20 23 0 55 6 72 14 18 7
68 23 112 35 44 11 107 25 140 31 33 5 96 17 140 26 44 9 84 20 89 25 6 5 29
9 51 9 23 0 65 7 93 15 46 14 55 14 84 0 18 -8 67 -36 108 -60 41 -25 87 -50
103 -56 15 -6 27 -17 27 -25 0 -8 19 -27 42 -44 22 -16 51 -30 63 -30 12 0 30
9 40 20 10 11 28 20 41 20 13 0 26 5 29 10 3 6 15 10 25 10 11 0 27 -9 37 -19
10 -11 32 -25 48 -32 17 -7 33 -12 37 -11 3 1 12 -5 18 -13 7 -8 20 -15 29
-15 9 0 21 8 28 19 9 15 7 23 -13 45 -14 14 -29 26 -34 26 -6 0 -10 7 -10 15
0 9 6 18 14 21 7 3 30 -6 50 -20 20 -13 59 -29 87 -35 28 -6 55 -9 60 -5 5 3
9 18 9 33 l0 29 43 -14 c23 -8 53 -21 67 -28 21 -12 28 -12 43 -2 9 7 17 18
17 23 0 6 -7 16 -15 23 -8 7 -15 19 -15 27 0 10 6 13 18 10 9 -2 25 -8 34 -12
12 -5 20 -2 25 10 3 10 2 24 -3 32 -5 8 -6 51 -3 96 3 45 2 89 -2 98 -4 8 -5
37 -1 64 l7 48 55 3 c30 2 64 5 75 8 11 2 58 7 105 11 46 4 99 14 117 21 18 8
43 14 56 14 13 0 38 7 55 16 18 8 35 22 40 30 4 8 21 19 38 23 16 5 30 10 32
10z m-1080 -70 c18 0 31 -2 28 -6 -2 -5 -33 -22 -68 -40 -35 -17 -85 -42 -111
-55 -47 -22 -49 -23 -62 -4 -8 10 -12 23 -9 27 3 5 15 9 28 9 13 0 38 7 57 16
19 10 41 23 49 29 8 7 24 15 35 18 11 2 35 5 53 6z m208 -102 c18 -8 20 -16
17 -100 -2 -59 -7 -93 -15 -99 -7 -4 -19 -8 -26 -8 -7 0 -15 7 -19 16 -3 8 0
27 8 40 11 22 11 30 -2 52 -10 18 -23 27 -39 27 -19 0 -26 -6 -29 -25 -1 -14
-7 -27 -12 -30 -5 -3 -15 -24 -22 -45 -10 -28 -21 -41 -36 -43 -20 -3 -21 0
-15 35 5 31 2 42 -15 57 -17 15 -26 17 -44 9 -15 -7 -26 -26 -35 -59 -8 -27
-16 -55 -18 -62 -2 -8 -12 -12 -21 -10 -11 2 -17 12 -16 23 1 11 3 37 4 57 2
34 8 41 68 82 36 25 86 50 111 56 25 7 50 16 55 20 6 5 26 10 45 12 19 2 44 0
56 -5z m106 -48 c9 -5 26 -9 37 -9 12 0 21 -6 21 -13 0 -7 -5 -18 -11 -24 -7
-7 -15 -29 -18 -50 -5 -29 -11 -38 -26 -38 -17 0 -19 8 -19 72 -1 64 1 70 16
62z m-787 1 c1 0 22 -7 45 -15 23 -8 46 -12 51 -10 4 3 16 1 26 -4 10 -6 37
-15 59 -21 23 -6 48 -17 55 -26 10 -12 10 -20 1 -35 -7 -10 -12 -32 -12 -49 0
-16 -4 -30 -9 -30 -5 0 -24 6 -42 14 -19 8 -54 29 -78 46 -24 18 -59 37 -78
42 -23 6 -35 16 -39 34 -4 14 -1 31 6 39 7 8 14 15 15 15z m2029 -407 c26 -2
57 -8 68 -14 17 -9 -18 -24 -213 -90 -129 -44 -255 -84 -281 -89 -36 -7 -57
-6 -92 6 -25 9 -46 19 -46 23 0 4 12 14 28 23 15 8 52 18 82 22 30 4 73 12 95
18 22 6 67 21 100 33 33 13 94 34 135 48 52 17 90 23 124 20z m-3185 -113 c4
0 59 -27 122 -61 62 -34 130 -70 149 -81 19 -11 49 -27 65 -37 17 -10 102 -55
190 -101 88 -46 165 -86 170 -91 6 -4 42 -24 80 -44 39 -21 84 -44 100 -53 17
-8 49 -28 72 -44 23 -15 45 -28 49 -28 4 0 24 -11 43 -23 20 -13 59 -38 86
-55 28 -17 55 -36 62 -42 7 -5 22 -10 33 -10 12 0 40 -15 63 -34 23 -19 76
-51 117 -71 41 -20 82 -40 90 -45 8 -5 58 -35 110 -66 52 -32 111 -71 131 -86
20 -15 42 -28 48 -28 7 0 36 -18 66 -40 30 -22 57 -40 61 -40 4 0 43 -22 88
-48 45 -27 115 -68 156 -91 41 -23 91 -52 111 -64 20 -12 51 -34 70 -48 32
-25 34 -30 32 -80 -1 -30 -4 -245 -7 -479 -3 -234 -10 -506 -16 -605 -5 -99
-12 -205 -16 -235 -3 -30 -17 -145 -31 -255 -14 -110 -29 -230 -32 -267 l-6
-66 -59 25 c-33 14 -86 43 -117 64 -32 21 -61 39 -64 39 -3 0 -22 15 -41 34
-20 19 -49 38 -65 41 -16 4 -29 13 -29 20 0 8 -36 41 -80 75 -44 33 -84 60
-89 60 -4 0 -28 17 -52 38 -24 20 -58 47 -76 60 -18 12 -36 22 -41 22 -5 0
-19 11 -32 25 -13 14 -34 25 -48 25 -14 0 -32 11 -44 25 -11 14 -24 25 -29 25
-6 0 -27 12 -47 27 -20 15 -57 44 -82 64 -25 20 -63 46 -85 57 -22 11 -52 34
-67 50 -16 17 -48 43 -73 59 -25 15 -45 34 -45 41 0 6 2 12 5 12 2 0 16 -5 30
-12 14 -6 25 -14 25 -18 0 -3 19 -17 43 -30 23 -13 67 -40 97 -61 30 -20 78
-48 105 -61 28 -12 55 -26 60 -30 6 -4 24 -19 42 -33 17 -14 46 -31 65 -37 18
-6 58 -28 88 -50 31 -21 61 -38 68 -38 7 0 44 -27 84 -60 41 -35 81 -60 94
-60 12 0 30 3 39 6 8 4 22 22 30 41 8 20 15 44 15 54 0 11 9 28 21 40 11 11
46 28 77 37 31 8 82 17 112 18 30 2 56 8 58 14 2 6 9 16 16 23 7 7 12 40 13
77 0 36 3 164 6 285 3 121 11 267 18 325 6 58 15 110 19 115 4 6 12 33 18 60
6 28 11 68 11 89 0 23 -6 47 -16 58 -9 10 -22 18 -30 18 -8 0 -34 19 -58 43
-33 32 -47 54 -55 91 -6 27 -15 56 -20 65 -5 9 -10 56 -13 103 -3 75 -7 92
-31 126 -19 28 -39 43 -64 50 -20 6 -77 27 -127 47 -49 20 -107 44 -127 52
-21 9 -45 24 -54 34 -10 11 -24 19 -33 20 -9 0 -29 9 -46 20 -16 10 -41 24
-55 30 -14 6 -48 26 -77 45 -28 19 -55 34 -60 34 -5 0 -41 23 -81 50 -40 28
-76 50 -81 50 -5 0 -71 32 -147 71 -77 39 -159 81 -184 94 -25 13 -83 43 -130
66 -47 23 -95 47 -107 53 -13 6 -23 14 -23 19 0 4 -8 7 -18 7 -10 0 -38 13
-63 28 -24 15 -60 36 -81 45 -20 9 -41 17 -47 17 -6 0 -16 9 -23 20 -8 12 -24
20 -41 20 -16 0 -38 -10 -52 -25 -14 -13 -25 -33 -25 -43 0 -11 -14 -37 -31
-58 -17 -21 -36 -39 -42 -39 -7 -1 -24 -5 -39 -9 -20 -6 -34 -2 -57 15 -26 19
-34 21 -55 11 -14 -6 -33 -23 -42 -37 -14 -22 -15 -34 -7 -69 7 -32 6 -50 -2
-67 -7 -13 -15 -57 -19 -97 -3 -40 -13 -90 -22 -110 -11 -26 -16 -65 -15 -127
0 -52 -5 -109 -13 -135 -8 -25 -14 -52 -15 -60 0 -8 -5 -35 -11 -59 -10 -43
-10 -45 22 -80 18 -19 40 -41 48 -47 8 -7 39 -25 68 -40 30 -16 63 -39 73 -53
10 -13 19 -32 19 -42 0 -10 5 -21 11 -25 6 -4 10 -34 8 -78 -2 -39 -8 -83 -13
-98 -6 -16 -14 -28 -17 -28 -4 0 -46 27 -93 61 -47 33 -104 70 -128 82 -40 20
-44 26 -50 72 -4 28 -3 122 3 210 7 88 13 201 14 250 1 50 9 133 18 185 10 52
17 134 17 182 0 48 7 116 15 151 8 37 14 105 13 160 -1 59 3 101 10 110 6 7
11 29 10 48 0 19 7 65 16 102 10 38 15 76 12 84 -3 8 -3 25 0 39 3 13 9 24 13
24z m2499 -150 c10 0 37 -10 62 -23 25 -12 57 -30 71 -39 25 -17 25 -20 17
-85 -5 -38 -6 -80 -4 -95 3 -15 1 -30 -4 -33 -5 -3 -7 -12 -4 -19 3 -8 1 -17
-4 -20 -5 -3 -33 5 -63 17 -30 12 -65 32 -78 43 -23 21 -23 24 -16 138 6 98 9
116 23 116z m-2103 -396 c11 -4 49 -22 83 -40 35 -19 76 -34 91 -34 16 0 31
-8 39 -21 7 -11 37 -31 67 -44 29 -13 56 -29 60 -34 3 -6 14 -11 23 -11 10 0
36 -10 57 -21 22 -12 72 -37 110 -56 39 -20 97 -49 130 -65 33 -16 78 -40 100
-53 22 -14 50 -29 63 -35 13 -5 28 -10 33 -10 5 0 12 -7 15 -15 4 -8 11 -15
18 -15 6 0 36 -17 66 -37 30 -20 82 -51 115 -69 33 -17 98 -51 145 -76 47 -24
101 -50 120 -58 19 -7 42 -19 51 -26 8 -8 42 -22 75 -32 l59 -18 6 -84 c4 -47
14 -110 24 -140 9 -30 28 -76 42 -102 15 -28 44 -62 69 -80 36 -26 44 -37 43
-62 0 -17 -4 -53 -10 -81 -5 -27 -14 -90 -19 -140 -6 -49 -13 -157 -16 -240
-3 -82 -8 -190 -12 -239 l-7 -89 -45 -15 c-25 -8 -54 -18 -65 -23 -11 -4 -42
-18 -69 -30 -28 -12 -58 -32 -69 -45 -10 -13 -25 -24 -33 -24 -9 0 -48 20 -87
43 -40 24 -128 74 -197 111 -69 37 -130 70 -137 74 -6 4 -42 27 -80 52 -37 25
-84 54 -103 63 -19 10 -55 30 -80 46 -25 16 -51 30 -59 30 -7 1 -44 22 -82 47
-38 25 -71 49 -74 54 -3 4 -23 17 -45 29 -22 11 -71 44 -108 73 -37 29 -99 78
-139 110 -39 32 -74 58 -78 58 -4 0 -29 17 -57 38 -28 20 -71 56 -97 79 l-46
42 -1 103 c-1 83 -7 118 -27 177 -16 44 -39 87 -57 106 -18 18 -52 43 -77 56
-24 13 -51 35 -59 50 -7 15 -12 40 -9 56 3 15 9 93 15 173 5 80 17 181 25 225
9 44 16 95 15 113 l-1 32 54 0 c41 0 58 5 72 20 10 11 33 25 50 32 18 6 46 26
62 44 20 24 34 32 48 28z m5276 -155 c3 0 4 -176 2 -391 -2 -216 -4 -406 -4
-423 0 -16 7 -95 17 -175 9 -80 20 -154 24 -165 4 -11 13 -47 20 -80 6 -33 14
-71 17 -85 2 -14 7 -47 9 -75 2 -27 6 -60 9 -71 3 -12 -1 -27 -9 -33 -7 -6
-39 -18 -70 -26 -31 -8 -68 -15 -81 -15 -13 0 -26 -4 -29 -8 -3 -5 -31 -14
-63 -21 -31 -8 -64 -17 -73 -21 -8 -5 -35 -14 -60 -20 -25 -7 -56 -16 -70 -21
-14 -4 -43 -11 -65 -14 -22 -4 -62 -13 -90 -22 -27 -8 -72 -23 -100 -33 -27
-9 -88 -29 -135 -43 -47 -14 -114 -33 -150 -42 -36 -9 -123 -35 -195 -57 -71
-22 -148 -48 -170 -57 -22 -10 -74 -27 -115 -36 -41 -10 -80 -22 -85 -26 -6
-4 -42 -16 -80 -27 -39 -11 -86 -26 -105 -33 -19 -7 -54 -21 -77 -31 -24 -10
-49 -18 -56 -18 -7 0 -17 -4 -22 -8 -6 -4 -35 -18 -65 -29 -30 -12 -66 -24
-80 -28 -14 -3 -50 -17 -80 -30 -30 -13 -71 -30 -90 -38 -19 -9 -48 -19 -65
-23 -16 -3 -46 -15 -65 -25 -19 -10 -51 -24 -70 -32 -19 -8 -60 -26 -90 -40
-30 -13 -66 -28 -80 -32 -14 -4 -41 -16 -60 -26 -19 -11 -38 -19 -42 -19 -4 0
-31 -11 -60 -24 -29 -13 -71 -30 -93 -36 -22 -6 -64 -23 -93 -36 -29 -13 -61
-24 -71 -24 -10 0 -24 -6 -30 -14 -6 -7 -33 -19 -59 -26 -26 -7 -58 -21 -72
-30 -14 -9 -51 -25 -83 -34 -32 -10 -64 -24 -72 -32 -7 -8 -20 -14 -29 -14 -8
0 -20 9 -26 20 -6 12 -8 52 -5 102 4 46 10 101 15 123 5 22 12 60 14 85 3 25
7 65 11 90 3 25 7 77 10 115 2 39 8 88 14 110 5 22 10 120 9 217 0 97 3 181 6
186 3 4 8 100 12 213 4 112 7 236 6 274 0 39 -2 113 -5 165 -3 52 0 142 5 200
6 58 16 111 23 119 7 7 57 19 111 27 55 8 122 19 149 24 28 6 86 17 130 25 44
8 100 19 125 24 25 6 68 15 95 20 28 5 66 15 85 21 19 6 66 13 104 16 38 3 78
10 89 15 10 6 29 8 41 5 12 -3 35 1 50 9 16 8 54 18 85 21 31 3 84 14 118 25
34 10 70 19 81 19 10 0 22 4 28 9 5 6 32 11 59 11 28 1 76 9 108 19 33 9 57
22 57 30 0 10 10 12 38 8 20 -2 73 4 117 15 44 11 85 26 91 34 6 8 23 14 37
14 14 0 54 7 89 15 35 9 81 20 103 26 22 6 48 15 57 20 10 5 34 9 53 9 20 0
49 7 65 15 15 8 55 18 87 21 32 4 63 10 68 14 6 4 26 11 45 14 19 4 55 10 80
13 25 3 51 10 59 16 7 6 28 10 45 9 18 -2 68 6 111 18 44 12 123 24 175 27 52
3 104 10 114 16 11 5 62 13 115 17 53 4 99 8 102 9z m-4731 -1701 c10 -7 17
-14 15 -16 -2 -3 -11 -2 -20 1 -8 4 -15 11 -15 17 0 6 7 6 20 -2z"/>
<g>
<path d="M9716 18792 c-11 2 -46 -8 -78 -24 -31 -15 -66 -40 -78 -55 -18 -23
-21 -37 -17 -76 3 -37 11 -56 34 -79 20 -19 44 -31 70 -35 26 -3 57 1 85 11
24 10 49 26 56 37 7 11 13 49 13 86 1 60 -2 68 -31 98 -18 18 -42 35 -54 37z"/>
</g>
<g>
<path d="M10179 17758 c-9 1 -21 -3 -27 -11 -7 -8 -9 -29 -5 -50 3 -20 12 -42
20 -48 7 -7 15 -10 18 -8 2 3 5 29 7 59 2 43 0 55 -13 58z"/>
</g>
<g>
<path d="M10725 15358 c-22 1 -49 -4 -59 -11 -11 -7 -33 -27 -50 -46 -26 -29
-31 -44 -33 -90 l-3 -56 58 -27 c39 -18 76 -27 117 -28 33 -1 70 -2 83 -1 12
0 31 10 41 20 11 11 22 41 26 70 5 39 3 60 -10 87 -9 19 -29 40 -43 46 -15 6
-40 16 -57 23 -16 7 -48 13 -70 13z m25 -118 c15 0 33 -7 40 -15 11 -13 7 -15
-28 -15 -23 0 -43 4 -46 9 -3 4 -3 11 1 15 3 3 19 6 33 6z"/>
</g>
<g>
<path d="M10179 15190 c-8 0 -25 -7 -37 -16 -12 -8 -22 -19 -22 -25 0 -5 -11
-27 -25 -49 -14 -22 -25 -44 -25 -50 0 -5 -18 -33 -39 -61 -22 -29 -51 -76
-66 -106 -15 -31 -33 -80 -41 -112 -8 -31 -22 -70 -31 -87 -15 -30 -15 -33 3
-65 11 -19 31 -37 45 -41 13 -3 44 -12 69 -18 25 -6 60 -14 78 -17 18 -3 46 0
62 7 25 10 30 18 30 46 0 19 -3 34 -8 34 -4 0 -12 10 -17 23 -6 13 -21 23 -35
25 -14 2 -37 8 -52 14 -16 6 -28 17 -28 24 0 8 9 45 19 83 10 38 34 90 53 117
18 27 42 67 53 89 11 22 30 53 43 68 12 16 22 41 22 56 0 15 -8 35 -18 44 -10
10 -25 17 -33 17z"/>
</g>
<g>
<path d="M9897 14290 c-45 0 -49 -2 -63 -35 -7 -19 -14 -37 -14 -39 0 -3 13
-12 30 -21 16 -8 40 -15 54 -15 14 0 35 -4 48 -9 13 -5 40 -14 61 -21 22 -6
64 -16 95 -22 32 -5 77 -11 102 -13 25 -2 47 -4 50 -4 3 -1 21 -11 40 -23 19
-12 46 -22 60 -24 14 -1 33 0 43 3 10 3 23 16 28 31 7 18 6 34 -1 53 -7 15
-24 32 -38 37 -15 5 -47 15 -72 22 -25 7 -63 18 -85 25 -22 8 -76 17 -120 21
-44 4 -100 13 -125 20 -25 8 -67 14 -93 14z"/>
</g>
<g>
<path d="M12267 9837 c-16 16 -17 16 -17 1 0 -9 5 -20 11 -23 6 -4 13 -4 17
-1 3 4 -2 14 -11 23z"/>
</g>
<g>
<path d="M11495 7690 c-8 0 -15 -8 -15 -19 0 -10 7 -24 15 -31 9 -7 18 -10 21
-7 4 3 4 18 0 32 -4 14 -13 25 -21 25z"/>
</g>
<g>
<path d="M11581 5720 c-3 0 -14 -7 -24 -14 -13 -10 -16 -21 -11 -40 3 -14 10
-28 14 -31 4 -2 24 -7 46 -10 21 -3 45 -2 52 3 10 7 11 14 1 35 -7 15 -26 34
-42 42 -17 8 -33 15 -36 15z"/>
</g>
<g>
<path d="M8650 4110 c-20 0 -32 -6 -36 -17 -3 -10 -9 -27 -14 -38 -4 -11 -12
-36 -18 -55 -6 -19 -9 -46 -6 -60 3 -14 -4 -74 -16 -135 -11 -60 -24 -135 -29
-165 -5 -30 -12 -62 -15 -71 -4 -8 -9 -58 -12 -110 -2 -51 -5 -106 -6 -121 0
-15 5 -34 12 -43 7 -8 24 -15 37 -15 14 0 38 8 54 17 17 10 32 27 35 38 2 11
6 74 9 140 2 66 8 156 14 200 5 44 14 96 20 115 6 19 11 67 11 107 0 39 5 75
10 78 6 4 8 21 4 41 -4 22 -2 34 5 34 6 0 11 9 11 20 0 10 -9 24 -19 30 -11 5
-34 10 -51 10z"/>
</g>
<g>
<path d="M8998 3879 c-36 -1 -72 -11 -113 -31 -43 -22 -67 -41 -87 -71 -14
-23 -29 -63 -33 -88 -6 -40 -3 -49 19 -76 14 -17 50 -39 81 -51 31 -12 65 -22
76 -22 15 0 19 -7 19 -35 0 -19 -6 -52 -14 -72 -8 -21 -21 -60 -29 -88 -9 -27
-21 -99 -28 -158 -11 -94 -11 -110 2 -123 9 -8 32 -17 53 -21 27 -4 41 -2 47
8 5 8 9 28 9 45 0 17 5 45 10 61 6 17 19 81 30 144 10 63 28 148 40 189 12 41
27 99 34 127 8 29 18 59 24 66 8 9 8 25 2 53 -6 21 -15 56 -21 76 -6 26 -19
43 -39 53 -17 9 -52 14 -82 14z m-14 -111 c13 -2 22 -12 24 -27 2 -15 -6 -33
-23 -51 -18 -19 -33 -26 -50 -22 -13 2 -29 10 -35 17 -8 10 -2 22 27 50 23 22
45 35 57 33z"/>
</g>
<g>
<path d="M9397 3669 c-7 0 -31 -7 -54 -16 -24 -8 -43 -19 -43 -24 0 -5 -6 -9
-14 -9 -7 0 -26 -18 -41 -41 -17 -27 -29 -60 -32 -95 -5 -50 -3 -58 26 -94 18
-22 28 -40 23 -40 -5 0 -32 -38 -61 -84 -28 -46 -51 -94 -51 -108 0 -13 -5
-29 -11 -35 -6 -6 -9 -22 -6 -35 4 -14 23 -41 43 -62 20 -20 47 -41 60 -46 15
-6 41 -4 76 5 42 10 63 24 105 68 l53 55 0 81 c0 44 -6 101 -12 127 l-13 46
53 50 c29 27 56 57 61 66 5 9 8 26 7 37 -1 11 -14 46 -29 77 -26 54 -30 57
-78 67 -27 6 -55 11 -62 10z m25 -125 c4 -3 8 -11 8 -17 -1 -7 -14 -27 -30
-46 -25 -29 -31 -32 -45 -21 -9 7 -15 23 -13 34 2 12 17 28 37 38 19 9 38 15
43 12z m-77 -308 c6 -2 9 -17 7 -35 -1 -17 -12 -47 -25 -66 -12 -19 -29 -34
-37 -32 -8 1 -15 10 -15 21 0 10 14 40 30 67 17 27 35 47 40 45z"/>
</g>
<g>
<path d="M9798 3500 c-10 0 -46 -24 -80 -53 -34 -29 -79 -77 -99 -107 -21 -30
-42 -60 -47 -65 -5 -6 -12 -29 -15 -52 -4 -22 -14 -53 -22 -69 -8 -16 -15 -48
-15 -71 0 -24 -4 -43 -10 -43 -5 0 -10 -11 -10 -24 0 -14 -4 -28 -10 -31 -5
-3 -10 -13 -10 -22 0 -8 8 -17 18 -20 16 -4 18 -13 16 -71 -3 -52 0 -70 14
-85 9 -10 30 -26 46 -34 17 -9 44 -13 68 -10 22 2 45 10 51 16 6 6 19 11 29
11 10 0 24 13 33 29 8 16 18 31 22 33 5 1 15 19 24 38 13 29 14 44 4 90 -6 30
-19 67 -29 82 -10 15 -37 36 -60 48 -23 11 -48 20 -54 20 -7 0 -12 13 -12 29
0 16 6 36 13 43 7 7 24 35 37 62 12 27 44 68 69 92 25 24 56 52 69 63 12 11
22 31 22 45 0 14 -9 31 -22 40 -12 9 -30 16 -40 16z m-145 -530 c6 0 18 -7 27
-15 11 -10 15 -25 12 -41 -2 -13 -13 -29 -23 -35 -11 -5 -24 -7 -29 -4 -6 3
-10 23 -10 44 0 21 3 41 7 44 3 4 11 7 16 7z"/>
</g>
</g>
<g>
<path d="M3505 12705 c-71 2 -175 -1 -230 -6 -55 -5 -120 -16 -145 -25 -25 -9
-65 -26 -90 -39 -25 -13 -56 -26 -70 -30 -14 -4 -37 -16 -52 -26 -14 -11 -32
-19 -40 -19 -7 0 -36 -20 -65 -44 -29 -24 -49 -46 -46 -50 3 -3 -8 -9 -25 -12
-18 -4 -32 -10 -32 -14 0 -5 -12 -21 -27 -37 -16 -16 -35 -38 -45 -49 -9 -10
-41 -41 -72 -68 -31 -27 -56 -55 -56 -61 0 -6 -10 -17 -23 -24 -13 -7 -31 -26
-41 -42 -10 -16 -37 -49 -62 -73 -24 -24 -44 -50 -44 -59 0 -8 -7 -20 -15 -27
-8 -7 -25 -33 -37 -59 -12 -25 -28 -53 -34 -61 -7 -8 -19 -37 -29 -65 -9 -27
-20 -52 -23 -55 -4 -3 -16 -32 -26 -65 -11 -33 -20 -67 -21 -75 -2 -8 -7 -35
-14 -60 -6 -25 -15 -65 -20 -89 -7 -31 -5 -65 5 -120 8 -42 19 -101 24 -131 5
-30 14 -79 20 -108 6 -30 27 -91 47 -135 20 -48 51 -99 74 -122 21 -23 39 -44
39 -49 0 -4 22 -36 50 -71 28 -35 50 -68 50 -73 0 -6 49 -56 108 -112 59 -55
119 -107 132 -115 14 -8 32 -17 40 -21 8 -4 33 -24 55 -44 22 -20 76 -54 120
-75 44 -22 91 -42 105 -45 20 -5 24 -11 22 -32 -2 -23 4 -30 40 -47 24 -10 95
-26 158 -35 63 -9 135 -21 160 -26 25 -5 63 -13 85 -17 22 -4 65 -8 95 -7 30
0 105 6 165 14 61 7 119 18 130 25 11 7 50 16 85 21 36 4 74 8 85 8 16 0 20
-7 22 -34 1 -19 4 -118 6 -220 2 -102 8 -216 12 -253 7 -59 12 -72 36 -89 27
-20 27 -22 11 -47 -9 -14 -32 -42 -52 -62 -19 -20 -42 -45 -50 -55 -8 -11 -21
-31 -28 -45 -8 -15 -24 -37 -36 -50 -12 -13 -36 -45 -53 -70 -17 -25 -39 -51
-48 -59 -9 -7 -22 -28 -30 -47 -8 -18 -19 -33 -24 -33 -6 0 -27 -11 -47 -25
-20 -14 -34 -25 -31 -25 3 0 -7 -13 -22 -28 -26 -25 -28 -33 -23 -80 3 -38 1
-57 -11 -70 -8 -9 -17 -35 -20 -57 -3 -22 -15 -107 -26 -190 -12 -82 -25 -172
-31 -198 -5 -26 -10 -71 -10 -100 0 -29 -7 -79 -16 -112 -8 -33 -17 -76 -19
-95 -3 -19 -9 -75 -14 -125 -6 -49 -11 -117 -11 -150 -1 -33 -3 -123 -5 -200
-2 -77 -6 -180 -11 -230 -4 -49 -7 -106 -7 -125 0 -19 1 -101 2 -183 1 -81 0
-151 -4 -156 -3 -5 -8 -49 -11 -98 -4 -48 -6 -133 -6 -188 0 -55 4 -154 7
-220 4 -77 2 -138 -5 -170 -6 -27 -14 -84 -17 -125 -4 -41 -6 -91 -5 -110 1
-19 3 -87 5 -150 2 -63 7 -127 12 -143 4 -15 16 -32 26 -38 15 -8 26 -5 49 11
17 12 33 32 36 46 3 13 4 36 1 49 -2 14 0 28 5 31 5 3 3 15 -5 27 -8 12 -14
40 -15 61 -1 22 -4 61 -7 88 -4 32 -2 48 6 48 6 0 8 11 4 28 -3 16 -1 42 5 58
7 16 14 70 17 119 3 50 5 99 6 110 0 11 -1 43 -3 70 -1 28 1 124 6 215 4 91 7
224 7 295 0 72 -4 175 -8 230 -4 55 -7 109 -7 120 1 11 4 40 7 65 2 25 7 81
10 125 2 44 8 176 11 293 4 117 11 215 16 218 4 3 8 20 8 37 0 18 7 50 14 72
8 23 20 79 26 125 6 47 14 87 16 89 2 2 7 2 10 -1 3 -4 7 -23 10 -45 2 -21 9
-99 14 -173 6 -74 14 -197 19 -273 4 -75 11 -140 14 -144 4 -3 2 -12 -4 -19
-7 -8 -8 -21 -3 -31 4 -10 9 -31 10 -48 1 -16 4 -210 8 -430 3 -220 8 -550 11
-733 3 -184 7 -338 11 -343 3 -5 7 -30 8 -55 1 -25 -1 -47 -5 -50 -4 -2 -8
-80 -9 -173 0 -112 3 -172 10 -176 7 -4 9 -23 4 -50 -3 -24 -2 -50 2 -57 5 -7
7 -74 5 -148 -1 -83 2 -146 8 -164 7 -16 14 -101 16 -188 2 -88 7 -175 11
-194 3 -19 8 -79 9 -132 2 -53 6 -162 9 -242 3 -80 10 -174 16 -210 5 -36 14
-105 21 -155 8 -65 8 -101 0 -130 -7 -26 -9 -157 -7 -375 3 -184 0 -411 -5
-505 -5 -93 -11 -183 -13 -199 -3 -15 0 -39 6 -51 7 -16 7 -29 -2 -46 -9 -17
-14 -104 -16 -309 -2 -157 -5 -350 -8 -430 -3 -80 -8 -165 -10 -190 -4 -30 -1
-56 10 -77 8 -19 25 -35 37 -38 12 -2 58 -6 102 -9 44 -2 116 -11 160 -19 44
-8 94 -15 110 -15 17 0 50 -3 74 -7 25 -4 55 -2 71 5 21 9 30 21 35 48 6 32 3
40 -20 59 -14 13 -36 25 -48 27 -12 3 -71 9 -132 15 -60 6 -148 17 -195 24
l-85 12 2 120 c1 66 4 192 8 280 3 88 8 221 10 295 2 74 7 185 11 245 4 61 8
196 8 300 0 105 -3 264 -7 355 -4 91 -6 269 -6 395 1 127 1 249 0 273 -1 24
-7 55 -12 70 -6 15 -15 117 -21 227 -6 110 -12 234 -14 275 -2 41 -6 131 -9
200 -3 69 -10 148 -16 175 -6 28 -13 153 -14 279 -2 125 -8 285 -14 355 -6 69
-10 208 -8 307 l2 181 30 29 c17 17 40 42 53 57 13 16 28 40 35 54 6 14 56 73
112 131 55 59 116 122 136 142 19 19 70 67 112 105 43 39 96 88 120 110 23 22
54 48 69 58 l28 17 2 -57 c1 -32 3 -83 5 -113 2 -30 4 -90 4 -132 1 -43 5 -94
10 -115 4 -21 10 -99 13 -173 3 -74 8 -169 12 -210 3 -41 16 -138 29 -215 12
-77 28 -185 35 -240 6 -55 18 -134 25 -175 8 -41 17 -139 21 -217 3 -79 10
-143 14 -143 4 0 8 -44 8 -99 1 -54 6 -109 11 -123 5 -14 7 -44 4 -66 -3 -23
-2 -49 2 -59 4 -10 9 -38 10 -63 2 -25 4 -90 5 -145 1 -55 6 -107 11 -116 5
-9 11 -149 13 -310 4 -208 10 -314 20 -363 9 -38 14 -71 12 -75 -2 -3 2 -49
10 -101 7 -52 14 -144 14 -205 1 -60 -1 -158 -5 -216 -7 -93 -6 -107 9 -112 9
-4 16 -15 16 -25 0 -16 10 -20 53 -25 28 -4 80 -11 115 -17 34 -5 90 -15 125
-20 34 -6 104 -13 155 -15 52 -3 101 0 110 5 10 5 25 16 34 23 9 7 20 25 23
39 6 24 2 29 -34 47 -22 12 -49 21 -60 21 -12 0 -55 9 -98 21 -55 15 -88 19
-117 14 -23 -4 -61 -7 -86 -6 -25 1 -59 6 -76 11 l-31 11 -12 162 c-7 89 -12
203 -13 252 0 50 -4 108 -10 130 -6 22 -13 51 -15 65 -2 14 -6 63 -8 110 -2
47 -7 96 -10 109 -3 13 -9 58 -12 100 -3 42 -6 126 -7 186 -1 61 -7 202 -14
315 -7 113 -18 259 -23 325 -6 66 -13 145 -15 175 -2 30 -8 105 -14 165 -6 61
-15 133 -20 160 -5 28 -20 113 -34 190 -14 77 -27 154 -30 170 -4 17 -9 46
-12 65 -3 19 -5 52 -5 74 1 21 -3 53 -9 70 -5 17 -12 47 -14 66 -2 19 -7 67
-11 105 -3 39 -10 108 -15 155 -5 47 -12 121 -15 165 -3 44 -8 197 -11 340 -3
143 -7 384 -9 535 -2 151 -7 302 -11 335 -4 33 -8 76 -9 95 -1 19 -7 132 -13
250 -6 118 -11 278 -11 355 0 77 1 167 1 200 1 33 -1 123 -6 199 -4 77 -11
147 -17 158 -5 10 -12 53 -15 96 -4 42 -7 109 -8 147 -1 48 3 73 12 80 9 7 14
38 15 90 2 62 5 80 17 82 8 2 23 -9 33 -22 10 -14 20 -48 22 -75 2 -28 6 -54
10 -59 3 -5 10 -33 15 -63 6 -29 17 -78 26 -108 9 -30 25 -82 37 -115 13 -37
20 -79 18 -108 -1 -29 4 -58 12 -70 8 -12 17 -53 22 -91 4 -38 11 -77 15 -85
5 -9 16 -43 24 -76 9 -33 21 -75 27 -92 6 -18 12 -66 13 -107 2 -41 6 -78 9
-83 3 -4 7 -49 8 -98 2 -50 11 -121 20 -160 9 -38 25 -104 34 -145 10 -41 21
-118 26 -170 5 -52 9 -102 10 -110 1 -8 6 -35 12 -60 5 -25 14 -51 20 -58 5
-7 7 -15 5 -18 -3 -3 0 -25 7 -49 8 -24 12 -51 11 -62 -2 -10 6 -30 17 -44 17
-24 22 -25 50 -16 18 5 38 12 45 13 10 3 10 9 2 23 -5 11 -10 24 -10 30 0 6 7
11 15 11 8 0 15 6 15 14 0 7 -9 40 -19 74 -11 33 -23 82 -26 108 -4 27 -14 74
-22 104 -8 30 -21 107 -30 170 -8 63 -18 140 -22 170 -3 30 -9 60 -13 66 -4 5
-16 64 -28 130 -11 65 -22 162 -24 214 -2 52 -11 120 -20 150 -9 30 -24 76
-32 101 -8 26 -16 57 -17 70 0 13 -11 44 -24 68 -14 28 -23 61 -23 91 0 25 -7
55 -15 66 -8 10 -15 27 -15 37 0 9 5 17 11 17 7 0 9 9 6 23 -3 12 -13 49 -21
82 -8 33 -25 98 -38 145 -13 47 -29 94 -34 105 -6 11 -14 38 -16 60 -3 23 -15
61 -27 85 -11 24 -21 50 -21 58 0 8 -8 28 -17 45 -10 18 -26 43 -35 56 -10 13
-15 27 -12 32 2 5 -5 46 -18 91 -15 56 -30 89 -45 101 -13 10 -26 33 -31 50
-7 28 -12 32 -43 32 -27 0 -36 -5 -47 -27 -7 -16 -19 -28 -26 -28 -6 0 -26
-15 -44 -32 -17 -18 -38 -49 -46 -68 -8 -19 -35 -60 -61 -90 -25 -30 -48 -62
-50 -72 -3 -9 -12 -19 -19 -21 -10 -4 -17 12 -26 61 -7 37 -14 90 -15 117 -2
28 -5 121 -6 208 -3 127 0 160 12 171 7 8 30 24 49 35 19 11 59 32 88 46 30
13 68 36 85 51 18 14 69 61 113 104 45 44 95 100 113 126 17 26 31 55 31 64 0
10 7 24 16 31 9 7 29 40 45 73 16 33 29 64 29 68 0 5 11 24 24 41 14 18 30 55
37 82 6 28 15 59 20 70 4 11 11 34 14 50 4 17 9 46 12 65 2 19 8 58 13 85 5
28 9 100 10 160 0 68 -7 157 -19 232 -11 68 -25 142 -31 165 -7 24 -23 72 -37
107 -14 36 -52 108 -84 160 -44 74 -81 118 -158 191 -55 52 -127 119 -159 148
-32 28 -61 52 -65 52 -3 0 -17 11 -31 25 -13 13 -37 27 -53 31 -15 3 -48 19
-73 35 -25 15 -76 39 -115 53 -38 14 -101 41 -140 61 -38 19 -83 35 -98 35
-16 0 -52 7 -80 16 -29 8 -63 20 -77 26 -14 6 -83 12 -155 13z m-75 -137 c74
0 141 -5 165 -13 22 -7 66 -16 97 -19 32 -3 83 -17 114 -31 31 -14 65 -25 75
-25 11 0 36 -10 57 -23 20 -13 62 -33 92 -45 30 -13 74 -34 97 -47 l42 -25 -6
-69 c-6 -68 -5 -71 24 -100 17 -16 43 -33 58 -37 15 -4 40 -3 54 2 14 5 32 22
39 37 7 15 16 27 20 27 4 0 34 -27 67 -59 33 -33 67 -67 75 -78 8 -10 30 -41
48 -69 17 -28 32 -55 32 -60 1 -5 14 -25 30 -44 17 -19 30 -42 30 -52 0 -10 4
-18 9 -18 6 0 17 -26 27 -57 9 -32 20 -68 25 -81 5 -13 9 -34 9 -47 0 -14 -2
-25 -5 -25 -4 0 -18 6 -33 14 -16 8 -60 48 -99 89 -39 41 -74 84 -78 96 -3 12
-9 21 -13 21 -4 0 -18 18 -32 40 -20 33 -30 40 -55 40 -16 0 -37 -6 -46 -13
-9 -7 -19 -28 -23 -49 -5 -30 -3 -41 18 -63 13 -14 31 -41 40 -59 9 -18 45
-62 81 -97 36 -35 73 -68 81 -72 8 -5 24 -22 34 -39 14 -24 16 -34 6 -52 -6
-11 -19 -31 -29 -43 -11 -11 -34 -37 -52 -57 -29 -31 -33 -42 -28 -72 4 -25
14 -39 34 -49 15 -8 37 -15 48 -15 11 0 29 12 40 26 12 15 21 33 21 42 0 8 15
31 34 51 19 20 46 49 60 65 14 16 26 27 27 25 1 -2 3 -24 4 -49 2 -25 -1 -90
-7 -145 -7 -61 -17 -107 -26 -117 -8 -10 -21 -18 -28 -18 -7 0 -37 -19 -66
-43 -29 -23 -69 -52 -89 -64 -19 -12 -41 -34 -49 -47 -7 -14 -20 -28 -29 -31
-9 -3 -28 -24 -43 -45 -16 -22 -28 -49 -28 -60 0 -11 9 -29 20 -40 11 -11 32
-20 48 -20 20 0 37 11 62 42 19 23 56 64 81 90 25 27 52 48 58 48 9 0 10 -10
6 -32 -4 -18 -28 -73 -52 -123 -25 -49 -55 -108 -67 -129 -12 -22 -27 -41 -34
-44 -7 -2 -12 -9 -12 -17 0 -7 -37 -47 -82 -89 -45 -42 -87 -76 -93 -76 -7 0
-20 -9 -29 -19 -10 -11 -32 -27 -49 -36 -18 -8 -39 -20 -47 -25 -8 -5 -31 -16
-50 -24 -19 -8 -57 -21 -85 -30 -27 -8 -81 -21 -120 -27 -38 -6 -88 -15 -110
-20 -22 -4 -58 -12 -80 -18 -22 -6 -70 -11 -106 -11 -60 0 -68 3 -94 30 l-29
30 -122 0 c-67 0 -157 7 -200 15 -42 8 -95 23 -118 34 -23 10 -68 31 -101 45
-33 15 -82 44 -110 64 -27 21 -62 45 -77 55 -15 9 -54 41 -85 70 -32 28 -76
71 -98 93 -22 23 -58 63 -81 90 -22 27 -55 72 -74 99 -18 28 -44 63 -57 78
-13 16 -39 61 -58 102 -19 40 -42 94 -50 121 -8 27 -15 58 -15 69 0 11 -6 32
-14 47 -11 21 -12 51 -4 155 5 73 15 141 24 157 7 16 14 36 14 44 0 9 5 31 12
49 7 18 16 33 20 33 4 0 8 7 8 15 0 9 16 45 35 81 19 35 35 69 35 75 0 6 12
27 28 47 15 20 32 43 37 50 6 7 15 18 20 25 6 7 25 30 43 52 18 22 52 62 75
89 23 27 62 71 86 97 24 27 52 49 62 49 10 0 20 9 24 20 3 10 27 37 52 60 25
22 51 40 58 40 7 0 23 9 37 19 13 11 36 23 51 26 14 4 33 15 43 26 9 10 53 32
96 49 44 17 105 35 136 39 32 5 113 9 182 9z m1046 -2785 c12 -4 13 -45 9
-262 -3 -141 -5 -276 -5 -301 0 -25 2 -102 3 -171 1 -94 6 -130 17 -144 12
-15 15 -57 16 -229 0 -116 3 -341 7 -501 4 -159 11 -315 16 -345 5 -30 8 -108
7 -172 0 -65 2 -118 5 -118 3 0 9 -95 12 -212 l7 -212 -33 -28 c-17 -15 -35
-27 -39 -28 -4 0 -41 -33 -83 -74 -41 -41 -75 -79 -75 -84 0 -4 -27 -37 -60
-73 -33 -35 -60 -67 -60 -71 0 -4 -13 -14 -29 -22 -16 -9 -38 -31 -49 -51 -12
-19 -28 -35 -36 -35 -8 0 -42 -27 -75 -59 -34 -33 -61 -66 -61 -74 0 -8 -9
-22 -20 -32 -11 -10 -20 -23 -20 -28 0 -6 -10 -21 -22 -34 -12 -13 -24 -23
-28 -23 -3 0 -7 60 -8 133 -1 72 -2 143 -2 157 0 14 0 95 1 180 0 85 -3 196
-6 245 -4 50 -9 94 -12 98 -3 4 -1 13 4 20 6 7 6 51 2 107 -5 52 -11 215 -14
362 -3 147 -7 291 -10 320 -2 29 -11 76 -20 105 -10 32 -15 82 -13 135 1 45
-3 122 -9 170 -7 49 -15 92 -18 98 -3 5 0 10 8 10 10 0 16 14 19 43 3 23 1 53
-4 67 -5 14 -7 43 -4 65 4 22 7 84 7 137 1 68 5 98 13 101 7 3 34 37 60 76 26
40 49 78 52 86 3 8 25 34 47 59 23 24 60 65 81 90 22 26 48 60 58 76 10 17 22
30 28 30 5 0 10 4 10 10 0 5 16 33 36 60 20 28 45 55 55 61 10 5 28 26 38 47
11 20 29 45 40 54 12 10 21 23 21 30 0 7 16 31 36 53 20 22 47 54 61 72 14 19
30 30 39 26z"/>
<g>
<path d="M3604 12000 c-32 0 -46 -7 -75 -38 -29 -29 -37 -47 -42 -87 -5 -43
-2 -52 16 -66 12 -9 44 -23 71 -32 27 -10 59 -17 71 -17 11 0 40 19 63 43 23
23 42 49 42 57 0 8 -9 26 -20 40 -11 14 -20 30 -20 37 0 7 -15 23 -33 37 -23
18 -46 26 -73 26z"/>
</g>
</g>
<g>
<path d="M1349 730 c-5 0 -7 -4 -4 -10 3 -5 8 -10 11 -10 2 0 4 5 4 10 0 6 -5
10 -11 10z"/>
</g>
</g>
</svg>
