<?xml version="1.0" standalone="no"?>
<!DOCTYPE svg PUBLIC "-//W3C//DTD SVG 20010904//EN"
 "http://www.w3.org/TR/2001/REC-SVG-20010904/DTD/svg10.dtd">
<svg version="1.0" xmlns="http://www.w3.org/2000/svg"
 width="1147.000000pt" height="1147.000000pt" viewBox="0 0 1147.000000 1147.000000"
 preserveAspectRatio="xMidYMid meet">
<metadata>
Created by potrace 1.16, written by Peter Selinger 2001-2019
</metadata>
<g transform="translate(0.000000,1147.000000) scale(0.100000,-0.100000)"
fill="#000000" stroke="none">
<g>
<path d="M6188 10410 c-9 0 -29 -12 -43 -27 -14 -15 -25 -35 -25 -43 0 -8 -19
-35 -41 -60 -23 -25 -62 -72 -88 -105 -25 -33 -57 -74 -71 -90 -14 -17 -33
-42 -43 -55 -10 -14 -25 -37 -35 -52 -9 -14 -31 -46 -48 -70 -16 -23 -61 -88
-99 -143 -37 -55 -76 -109 -85 -120 -10 -11 -25 -33 -34 -50 -9 -16 -32 -52
-51 -80 -19 -27 -39 -55 -44 -61 -5 -6 -21 -30 -36 -55 -16 -24 -47 -69 -70
-99 -23 -30 -58 -79 -78 -109 -21 -29 -50 -70 -67 -90 -16 -20 -41 -52 -54
-71 -14 -19 -51 -73 -83 -120 -31 -47 -61 -88 -65 -91 -5 -3 -28 -37 -53 -75
-24 -38 -48 -74 -53 -80 -5 -6 -22 -30 -38 -55 -16 -24 -37 -60 -49 -80 -11
-20 -30 -48 -41 -62 -12 -15 -31 -27 -41 -27 -11 0 -30 -11 -42 -24 -16 -17
-22 -34 -20 -58 2 -22 -5 -47 -21 -73 -14 -22 -32 -49 -42 -60 -9 -11 -50 -72
-91 -135 -40 -63 -97 -148 -125 -188 -29 -39 -52 -75 -52 -80 0 -4 -10 -18
-23 -32 -12 -14 -40 -50 -61 -80 -20 -30 -58 -86 -83 -125 -25 -38 -63 -97
-84 -130 -21 -33 -43 -65 -48 -72 -6 -6 -24 -35 -42 -65 -18 -29 -57 -89 -86
-133 -30 -44 -74 -107 -98 -140 -24 -33 -52 -73 -61 -90 -9 -16 -48 -71 -86
-122 -39 -52 -78 -98 -88 -103 -10 -6 -27 -10 -38 -10 -12 0 -26 -16 -41 -46
-15 -30 -21 -54 -16 -71 4 -18 -1 -36 -18 -62 -13 -20 -27 -46 -31 -58 -4 -12
-17 -34 -29 -49 -12 -16 -32 -47 -43 -69 -12 -22 -34 -62 -49 -90 -15 -27 -33
-54 -41 -58 -8 -4 -14 -13 -14 -19 0 -6 -16 -38 -36 -72 -21 -33 -53 -85 -73
-114 -20 -30 -42 -66 -50 -80 -8 -15 -26 -45 -40 -67 -14 -22 -31 -49 -37 -60
-6 -11 -37 -63 -68 -115 -32 -52 -67 -107 -77 -123 -11 -15 -34 -53 -51 -85
-17 -31 -55 -93 -83 -137 -29 -44 -83 -129 -120 -190 -38 -60 -82 -135 -98
-165 -17 -30 -55 -98 -86 -150 -31 -52 -58 -104 -61 -115 -3 -11 -24 -28 -47
-39 -29 -13 -43 -26 -46 -45 -3 -14 0 -32 5 -39 8 -10 -17 -68 -98 -228 -60
-119 -119 -226 -130 -239 -12 -13 -20 -26 -18 -28 2 -2 -21 -53 -52 -113 -30
-60 -70 -129 -88 -154 -17 -25 -58 -92 -90 -150 -33 -58 -71 -123 -86 -145
-15 -22 -40 -65 -56 -95 -15 -30 -46 -84 -69 -120 -22 -36 -65 -108 -94 -160
-30 -52 -60 -102 -67 -110 -6 -8 -26 -42 -44 -75 -17 -33 -40 -73 -50 -90 -11
-16 -27 -46 -37 -65 -9 -19 -32 -57 -50 -83 -19 -26 -46 -72 -61 -102 -15 -29
-45 -87 -66 -127 -22 -40 -47 -84 -56 -98 -10 -14 -48 -81 -86 -150 -37 -69
-83 -148 -101 -177 -18 -29 -33 -54 -33 -57 0 -3 -15 -29 -34 -58 -18 -29 -50
-84 -71 -123 -21 -38 -43 -77 -50 -85 -7 -8 -29 -39 -49 -67 -20 -29 -36 -55
-36 -58 0 -3 -25 -45 -56 -93 -31 -48 -60 -88 -65 -90 -5 -2 -9 -9 -9 -15 0
-7 -20 -52 -45 -101 -25 -49 -45 -97 -45 -106 0 -9 8 -24 18 -33 10 -10 28
-17 39 -17 11 0 32 9 47 21 24 19 29 20 44 6 14 -12 41 -14 136 -12 65 2 171
-2 235 -9 64 -7 184 -14 266 -16 83 -2 238 -4 345 -4 107 0 222 3 255 7 33 4
104 12 158 17 53 6 143 15 200 22 64 7 296 12 627 13 289 1 608 4 710 8 102 3
282 9 400 12 118 4 218 9 223 12 5 3 155 7 333 9 178 1 360 8 405 15 44 6 102
9 128 6 26 -3 79 -2 118 3 39 5 133 12 209 15 77 4 159 8 184 9 25 2 95 6 155
10 70 5 131 4 168 -3 45 -8 66 -18 92 -45 20 -21 48 -37 69 -41 19 -4 39 -4
45 0 6 3 11 20 11 36 0 16 6 31 13 34 6 2 73 6 147 9 74 4 254 8 400 10 146 2
351 8 455 14 105 6 244 14 310 17 66 3 134 8 150 11 17 2 118 8 224 12 107 4
274 4 370 0 97 -4 275 -11 396 -17 121 -6 252 -17 290 -25 39 -8 109 -20 155
-27 47 -6 103 -14 125 -16 22 -2 272 -5 555 -6 283 -1 520 -5 526 -9 6 -4 65
-10 132 -12 66 -3 147 -12 179 -20 32 -8 80 -17 108 -21 27 -4 58 -13 69 -21
11 -8 32 -14 47 -14 21 0 28 7 39 40 12 38 11 43 -20 105 -18 35 -35 67 -38
70 -3 3 -18 42 -32 86 -15 45 -34 89 -43 99 -8 10 -29 48 -45 83 -17 36 -35
68 -41 71 -6 4 -11 16 -11 26 0 10 -6 31 -14 47 -8 15 -30 64 -50 108 -20 44
-50 107 -66 140 -16 33 -31 67 -35 75 -3 8 -19 38 -35 65 -16 28 -36 66 -45
85 -9 19 -34 72 -56 116 -21 45 -39 86 -39 91 0 5 -14 38 -30 72 -17 35 -34
77 -37 95 -3 17 -16 50 -29 74 -13 23 -24 47 -24 52 0 5 -15 33 -33 62 -19 29
-46 85 -61 125 -15 39 -34 77 -42 83 -8 7 -14 19 -14 26 0 8 -10 35 -23 62
-13 26 -28 56 -34 67 -6 11 -28 58 -48 105 -20 47 -43 92 -51 101 -8 8 -14 20
-14 25 0 6 -13 37 -30 69 -16 32 -30 64 -30 70 0 7 -11 28 -24 48 -13 19 -30
52 -37 73 -7 22 -21 50 -30 64 -9 14 -19 37 -23 53 -3 15 -11 27 -16 27 -6 0
-10 7 -10 15 0 8 -21 57 -46 110 -26 52 -50 98 -55 101 -5 3 -9 13 -9 22 0 10
-20 56 -45 102 -24 47 -63 123 -86 170 -23 47 -59 121 -81 165 -22 44 -52 96
-67 115 -15 19 -34 53 -41 75 -7 22 -16 45 -20 50 -4 6 -30 53 -57 105 -27 52
-61 114 -76 137 -15 24 -27 48 -27 54 0 6 -8 23 -18 37 -11 15 -30 50 -45 77
-14 28 -37 76 -52 108 -15 31 -31 60 -36 63 -5 2 -13 23 -20 46 -6 23 -21 55
-34 72 -13 17 -30 47 -40 66 -9 19 -29 60 -45 90 -17 30 -30 60 -30 67 0 7
-22 55 -50 108 -27 53 -50 102 -50 108 0 7 -13 34 -30 60 -16 26 -30 53 -30
59 0 6 -8 20 -17 30 -9 10 -17 36 -17 56 -1 23 -10 49 -23 66 -12 15 -62 109
-111 209 -50 100 -106 218 -127 262 -20 44 -47 103 -60 130 -13 28 -59 124
-103 215 -44 91 -89 186 -101 211 -11 25 -21 49 -21 53 0 4 -12 33 -26 64 -15
31 -55 116 -89 187 -34 72 -67 147 -74 168 -7 20 -30 69 -52 108 -30 55 -39
83 -39 120 0 26 -4 59 -10 73 -6 18 -17 26 -33 26 -13 0 -31 8 -40 18 -8 9
-30 49 -47 87 -18 39 -36 79 -41 90 -5 11 -13 27 -19 35 -5 8 -45 90 -90 182
-44 92 -80 171 -80 176 0 5 -14 31 -31 58 -18 27 -39 60 -48 74 -9 14 -30 54
-45 90 -16 36 -37 76 -46 90 -10 14 -45 78 -79 142 -33 64 -61 124 -61 133 0
9 -12 37 -27 63 -15 26 -30 49 -34 52 -3 3 -17 25 -30 50 -13 25 -29 60 -35
78 -7 18 -36 72 -65 120 -29 48 -57 89 -61 90 -4 2 -8 11 -8 20 0 10 -9 28
-20 42 -11 14 -20 29 -20 33 0 5 -13 28 -30 52 -16 24 -30 50 -30 58 0 8 -7
20 -15 27 -8 7 -15 18 -15 25 0 7 -7 18 -15 25 -8 7 -15 19 -15 27 0 8 -13 40
-29 71 -16 31 -37 73 -47 92 -10 19 -36 60 -58 90 -22 30 -52 80 -67 111 -16
32 -38 64 -51 73 -12 9 -30 16 -40 16z m-63 -260 c10 0 14 -21 15 -87 0 -49 2
-308 3 -578 2 -315 -2 -567 -10 -705 -7 -118 -12 -264 -11 -325 1 -60 1 -132
1 -160 -1 -27 -1 -200 -2 -382 -1 -183 -4 -333 -9 -333 -4 0 -30 15 -57 34
-28 19 -77 50 -110 69 -33 20 -71 47 -84 61 -14 14 -29 26 -34 26 -5 0 -38 20
-73 46 -35 25 -79 50 -97 56 -17 6 -69 33 -114 60 -45 26 -84 48 -87 48 -4 0
-32 16 -64 37 -31 20 -69 44 -84 55 -15 10 -37 18 -48 18 -11 0 -52 21 -90 46
-39 25 -73 52 -78 59 -4 7 -45 36 -92 64 -47 28 -98 62 -113 76 -16 14 -26 31
-23 38 4 7 12 21 19 32 7 11 28 45 47 75 19 31 40 63 45 71 6 9 30 43 55 75
25 33 58 79 75 104 16 25 35 56 42 69 7 13 31 45 53 71 22 26 40 51 40 55 0 5
16 27 35 51 19 23 35 47 35 52 0 5 8 16 17 23 9 8 29 31 44 53 16 21 27 42 24
45 -2 4 16 32 41 62 24 29 44 57 44 62 0 4 5 13 10 20 6 7 28 35 50 63 22 28
36 54 32 58 -4 4 0 11 8 16 9 5 33 35 55 67 21 32 50 76 64 98 14 21 33 47 41
56 8 9 23 27 33 40 9 13 17 27 17 32 0 5 19 32 43 60 23 28 47 58 52 68 6 9
33 50 61 90 29 41 65 90 82 109 17 19 43 50 57 68 15 17 33 32 40 32z m165
-95 c11 -16 20 -33 20 -36 0 -4 23 -49 52 -100 28 -52 59 -107 69 -124 10 -16
30 -52 45 -80 14 -27 39 -68 55 -89 16 -22 29 -43 29 -48 0 -4 22 -45 49 -90
27 -46 103 -191 170 -323 67 -132 135 -262 151 -290 16 -27 53 -97 82 -155 28
-58 58 -112 65 -121 7 -8 37 -64 68 -125 30 -60 59 -116 64 -124 5 -8 39 -78
76 -155 37 -77 71 -153 76 -169 7 -23 4 -32 -14 -47 -12 -10 -34 -18 -48 -19
-15 0 -32 -7 -39 -15 -7 -8 -21 -15 -32 -15 -11 0 -32 -6 -46 -14 -15 -7 -48
-23 -75 -35 -26 -11 -56 -21 -67 -21 -11 0 -20 -4 -20 -10 0 -5 -11 -10 -24
-10 -14 0 -27 -4 -30 -9 -3 -4 -27 -11 -54 -15 -27 -3 -75 -13 -108 -21 -32
-9 -64 -22 -70 -31 -7 -8 -19 -12 -28 -8 -9 3 -27 -1 -41 -10 -13 -9 -33 -16
-43 -16 -11 0 -25 -7 -32 -15 -7 -8 -20 -15 -29 -15 -9 0 -24 -7 -35 -15 -10
-8 -44 -19 -75 -26 -31 -6 -65 -18 -76 -25 -11 -8 -30 -14 -43 -14 -13 0 -39
-7 -58 -16 -27 -13 -37 -14 -49 -4 -11 9 -12 17 -4 31 6 11 10 99 9 212 0 105
0 199 0 207 -1 8 2 42 4 75 3 33 8 191 12 350 4 160 8 337 10 395 2 58 5 353
8 655 3 303 5 552 5 555 1 3 10 -8 21 -25z m-1456 -1815 c3 0 26 -15 50 -32
24 -18 78 -58 121 -88 43 -30 92 -67 109 -81 17 -14 78 -45 136 -69 58 -25
123 -55 145 -69 22 -14 49 -32 60 -42 11 -9 38 -25 60 -37 22 -11 69 -34 105
-51 36 -18 88 -46 117 -64 28 -17 64 -43 80 -57 16 -14 49 -35 73 -48 25 -12
59 -33 77 -45 18 -12 34 -27 37 -34 3 -7 -26 -21 -77 -38 -45 -15 -106 -33
-135 -41 -29 -8 -85 -19 -124 -25 -39 -6 -89 -17 -111 -25 -22 -8 -48 -14 -59
-14 -10 0 -38 -9 -61 -21 -23 -11 -67 -27 -97 -35 -30 -8 -70 -21 -87 -30 -18
-8 -51 -21 -74 -30 -23 -8 -47 -18 -53 -22 -6 -5 -30 -14 -52 -21 -23 -8 -46
-11 -52 -7 -5 3 -12 32 -16 63 -4 32 -9 85 -12 118 -4 33 -11 66 -17 73 -6 7
-14 45 -18 85 -4 40 -15 101 -24 137 -9 36 -21 88 -26 115 -4 28 -17 100 -28
160 -11 61 -24 133 -30 160 -6 28 -13 65 -16 83 -3 17 -3 32 -1 32z m-124 -85
c4 -3 15 -37 24 -77 9 -40 21 -86 26 -103 4 -16 11 -50 15 -75 3 -25 10 -56
15 -70 4 -14 20 -74 34 -135 14 -60 38 -195 52 -300 14 -104 27 -198 28 -209
0 -10 -6 -22 -14 -26 -8 -4 -41 -19 -73 -34 -31 -14 -62 -26 -67 -26 -6 0 -47
-18 -91 -40 -45 -22 -89 -40 -98 -40 -9 0 -38 -12 -66 -25 -27 -14 -60 -25
-73 -25 -12 0 -30 -4 -40 -10 -9 -5 -57 -20 -107 -34 -49 -13 -106 -28 -125
-31 -19 -4 -39 -10 -45 -13 -5 -4 -21 -8 -34 -10 -14 -2 -33 -8 -43 -13 -10
-5 -62 -23 -115 -40 -54 -16 -102 -34 -107 -39 -6 -6 -16 -10 -23 -10 -7 0
-13 7 -13 15 0 7 6 18 14 22 8 4 34 37 57 73 24 36 46 67 49 70 3 3 14 22 24
43 11 20 23 37 27 37 4 0 40 48 80 108 40 59 95 139 121 179 26 40 48 76 48
80 0 4 15 29 33 54 17 25 45 64 62 85 16 22 33 41 36 44 4 3 10 16 15 30 5 14
9 30 9 36 0 6 18 29 40 50 22 22 45 52 52 66 6 14 33 55 59 90 26 34 52 68 59
73 6 6 30 38 54 73 23 34 53 85 67 112 14 28 29 48 34 45z m2715 -278 c5 -2 9
-17 7 -33 -2 -16 -10 -51 -17 -79 -8 -27 -21 -95 -30 -149 -8 -55 -19 -104
-24 -110 -5 -6 -11 -24 -14 -41 -2 -16 -21 -97 -40 -180 -19 -82 -38 -172 -42
-200 -4 -27 -15 -72 -25 -100 -9 -27 -23 -69 -30 -92 -7 -24 -16 -43 -19 -43
-4 0 -24 12 -46 27 -22 15 -49 35 -59 45 -11 10 -24 18 -28 18 -5 0 -26 13
-46 30 -20 16 -62 40 -93 54 -30 14 -66 38 -80 52 -13 14 -44 37 -69 50 -25
13 -65 40 -90 58 -25 19 -50 35 -56 35 -6 1 -35 18 -65 39 -30 21 -85 60 -123
86 -38 27 -79 57 -90 68 -12 11 -34 25 -49 30 -15 6 -26 15 -24 22 2 6 39 26
83 44 43 19 102 38 129 43 28 6 64 16 80 23 17 8 78 35 138 61 59 25 137 52
175 60 37 8 81 17 97 21 17 4 39 13 50 19 11 7 37 16 57 19 20 4 59 16 85 27
26 11 57 24 68 29 11 5 37 16 59 25 21 8 48 15 60 15 11 0 30 7 41 15 10 9 24
14 30 12z m100 -178 c7 -8 45 -77 84 -155 39 -77 71 -144 71 -149 0 -4 9 -26
19 -49 11 -23 32 -68 46 -101 15 -33 51 -109 80 -170 29 -60 71 -148 93 -195
22 -47 55 -116 72 -155 18 -38 58 -122 89 -185 32 -63 68 -142 81 -175 13 -33
37 -84 52 -112 15 -29 28 -58 28 -64 0 -7 -10 -9 -27 -4 -16 3 -35 13 -43 20
-8 7 -28 17 -43 21 -16 3 -31 12 -34 19 -2 8 -35 35 -71 62 -37 27 -89 64
-115 81 -26 18 -50 32 -53 32 -3 0 -33 20 -67 44 -34 23 -77 50 -96 60 -19 9
-39 16 -45 16 -6 0 -17 9 -23 20 -7 10 -29 22 -49 26 -19 3 -38 12 -40 19 -3
7 -24 21 -47 31 -23 10 -60 33 -81 51 -22 18 -45 33 -52 33 -7 0 -25 12 -39
27 -22 25 -24 34 -21 88 2 33 11 88 20 121 9 34 23 74 31 90 8 16 15 46 15 67
0 22 6 53 14 70 8 18 17 46 21 62 3 17 10 48 16 70 5 22 14 60 19 85 5 25 16
65 24 89 9 24 16 55 16 68 0 14 7 48 17 77 9 28 18 57 20 65 3 13 6 13 18 0z
m-1441 -281 c20 -3 21 -8 18 -133 -2 -71 -4 -139 -5 -150 0 -11 0 -54 1 -95 0
-41 -1 -226 -3 -410 -2 -310 -4 -335 -20 -338 -10 -2 -29 1 -44 8 -14 7 -34
16 -43 21 -10 5 -30 9 -45 9 -16 0 -41 7 -58 16 -23 12 -46 15 -98 10 -48 -4
-76 -2 -95 8 -15 7 -49 16 -77 19 -27 3 -63 12 -80 21 -18 9 -77 17 -150 22
-66 4 -139 12 -162 19 -29 9 -43 9 -46 2 -2 -6 -9 -7 -16 -3 -7 5 -10 17 -8
28 3 11 -8 72 -25 136 -16 64 -34 135 -38 157 -5 22 -13 69 -19 105 -6 36 -14
93 -19 128 -6 42 -5 70 2 84 6 13 27 27 46 33 19 6 49 17 65 24 17 8 44 20 62
28 18 7 48 14 68 15 23 1 39 8 45 18 5 10 32 22 65 28 31 6 70 18 88 27 18 8
57 22 87 31 30 8 87 19 125 24 39 5 95 15 125 23 30 8 69 22 85 31 17 9 45 16
63 16 19 0 45 9 60 20 14 12 35 20 46 18z m189 -82 c34 -31 65 -56 70 -56 4 0
43 -25 87 -55 44 -30 82 -55 85 -55 3 0 24 -12 48 -27 23 -15 44 -30 47 -33 3
-3 21 -16 40 -30 19 -14 55 -36 80 -50 25 -13 65 -39 89 -57 24 -19 58 -41 75
-49 17 -9 64 -37 105 -62 40 -26 94 -65 118 -88 l45 -40 -13 -58 c-7 -31 -16
-59 -21 -62 -4 -3 -8 -15 -8 -27 0 -12 -9 -44 -19 -72 -10 -27 -22 -63 -25
-80 -3 -16 -10 -48 -16 -70 -6 -22 -16 -59 -21 -82 -6 -23 -16 -46 -22 -51 -8
-7 -42 -7 -97 -1 -47 6 -150 14 -230 20 -80 5 -179 12 -220 15 -41 3 -97 9
-123 14 -26 6 -65 10 -86 10 -21 0 -44 6 -51 14 -8 11 -11 102 -10 348 1 183
3 423 5 533 2 110 4 201 4 203 1 2 29 -21 64 -52z m-1356 -297 c7 1 14 -14 17
-31 3 -18 10 -73 16 -123 7 -49 22 -135 36 -190 13 -55 30 -121 38 -147 13
-41 13 -47 0 -52 -9 -3 -23 -2 -33 3 -10 6 -57 12 -105 15 -47 3 -107 11 -131
17 -25 6 -55 9 -67 6 -12 -3 -39 3 -61 14 -34 16 -62 19 -166 19 -69 0 -135 0
-146 0 -11 0 -49 5 -85 11 -36 7 -74 16 -85 22 -11 6 -58 12 -105 13 -47 1
-107 7 -135 13 -27 6 -54 16 -59 21 -7 7 -3 15 10 24 10 8 48 24 84 36 35 12
69 25 75 30 5 4 35 13 65 19 30 6 65 14 78 16 13 3 58 17 100 30 42 14 83 25
91 25 8 0 50 13 95 29 45 16 99 34 121 41 22 7 76 30 121 51 44 21 112 50 150
63 38 13 74 24 81 25z m2356 -379 c10 0 42 -20 70 -44 29 -24 92 -63 140 -87
49 -24 98 -53 109 -63 11 -11 53 -36 92 -56 39 -20 91 -50 116 -68 25 -17 73
-52 106 -77 34 -25 70 -55 80 -67 l19 -21 -105 7 c-58 3 -132 9 -165 13 -33 4
-73 7 -90 7 -16 0 -52 -1 -80 -3 -27 -1 -95 1 -150 3 -55 3 -131 10 -170 15
-38 5 -77 8 -87 5 -9 -3 -19 0 -23 6 -4 6 0 41 8 78 9 37 19 84 22 105 3 20
10 37 14 37 5 0 11 18 15 41 4 23 15 60 26 82 11 22 20 48 20 57 0 9 3 20 7
23 3 4 15 7 26 7z m-3085 -165 c37 -4 99 -10 137 -15 39 -5 124 -14 190 -20
66 -6 143 -16 170 -22 28 -6 61 -12 75 -14 14 -1 59 -7 100 -13 41 -7 99 -17
128 -23 29 -6 57 -17 62 -23 6 -7 13 -41 16 -75 3 -35 9 -73 14 -86 5 -12 14
-51 20 -86 6 -34 13 -71 16 -80 4 -14 1 -16 -24 -9 -15 5 -37 13 -48 19 -10 6
-44 19 -74 28 -30 9 -60 20 -66 25 -6 5 -28 15 -50 23 -21 7 -61 23 -89 35
-27 13 -75 36 -106 52 -31 16 -64 29 -72 29 -9 0 -37 11 -63 25 -26 14 -51 25
-56 25 -5 0 -41 20 -79 45 -38 25 -74 45 -79 45 -5 0 -24 10 -43 23 -18 12
-59 36 -90 52 -31 17 -57 34 -57 38 0 4 30 5 68 2z m-625 -8 c9 -3 11 -46 9
-183 -1 -98 -7 -204 -12 -234 -5 -30 -11 -122 -15 -205 -3 -82 -8 -181 -12
-220 -3 -38 -7 -119 -8 -180 -1 -60 -5 -128 -9 -150 -3 -22 -8 -65 -11 -95 -3
-30 -9 -93 -14 -140 -5 -47 -8 -99 -5 -116 3 -30 1 -32 -34 -37 -20 -3 -80
-16 -132 -28 -52 -12 -111 -23 -131 -24 -20 -2 -78 -9 -130 -16 -52 -6 -118
-20 -148 -31 -30 -10 -64 -18 -76 -18 -11 0 -25 -4 -30 -9 -6 -5 -35 -14 -65
-20 -30 -6 -86 -18 -125 -26 -38 -9 -78 -18 -87 -21 -16 -5 -16 -3 -2 25 9 17
20 31 25 31 5 0 9 9 9 19 0 11 11 33 25 49 14 17 25 33 25 37 0 3 11 21 25 39
14 18 25 39 25 46 0 7 12 35 27 64 15 28 57 96 94 151 37 55 91 143 120 195
29 52 61 104 71 114 10 11 43 64 74 118 31 54 60 101 65 104 5 2 17 24 27 48
11 23 36 66 56 94 20 28 36 55 36 58 0 4 11 22 25 40 14 18 25 36 25 39 0 3
11 21 25 39 14 18 25 36 25 40 0 4 22 39 48 79 27 40 61 99 76 132 16 33 44
83 62 112 19 28 34 59 34 68 0 9 6 15 13 12z m266 -67 c11 0 43 -19 72 -42 29
-24 75 -61 103 -82 28 -22 84 -62 123 -88 40 -26 76 -48 79 -48 4 0 30 -19 58
-43 28 -23 63 -50 78 -60 15 -9 37 -27 51 -39 13 -13 34 -31 48 -40 13 -9 47
-34 76 -55 28 -21 75 -54 102 -73 28 -19 88 -63 134 -97 45 -34 106 -80 135
-102 29 -23 56 -41 61 -41 5 0 15 -7 22 -16 7 -9 38 -32 69 -51 30 -20 73 -52
95 -72 22 -20 57 -47 78 -60 20 -12 37 -31 37 -41 0 -10 -10 -24 -22 -32 -13
-8 -60 -26 -105 -41 -45 -15 -129 -32 -185 -38 -57 -6 -120 -17 -140 -25 -31
-11 -39 -11 -50 0 -7 7 -51 54 -98 103 -47 49 -110 122 -140 162 -30 40 -92
118 -137 174 -46 56 -96 118 -111 137 -16 19 -58 72 -93 118 -35 46 -77 101
-94 121 -16 21 -54 66 -83 101 -30 35 -65 81 -79 104 -14 23 -29 43 -33 46 -4
3 -18 24 -30 48 -12 23 -26 45 -31 48 -5 3 -9 9 -9 15 0 5 9 9 19 9z m215 -10
c9 0 43 -17 74 -38 31 -20 74 -45 95 -55 21 -9 47 -17 57 -17 11 0 20 -4 20
-10 0 -5 18 -23 40 -39 22 -16 57 -32 77 -36 21 -4 52 -18 70 -31 17 -13 36
-24 42 -24 5 0 25 -9 44 -20 18 -11 60 -29 93 -40 32 -11 77 -29 99 -39 22
-10 49 -22 60 -26 19 -6 19 -7 2 -20 -12 -9 -17 -23 -15 -42 3 -24 7 -28 33
-28 25 0 30 4 33 28 3 22 7 27 20 22 9 -3 49 -17 87 -32 39 -14 88 -34 111
-43 22 -10 45 -24 51 -32 6 -7 23 -71 37 -143 15 -71 31 -148 36 -170 4 -22 7
-42 5 -44 -3 -2 -26 15 -54 38 -27 22 -72 57 -100 76 -28 19 -54 35 -59 35 -5
0 -17 9 -27 20 -10 11 -26 20 -37 20 -10 0 -18 4 -18 10 0 5 -30 34 -67 64
-38 30 -86 70 -107 89 l-39 34 22 22 c11 11 21 27 21 35 0 7 -7 19 -15 26 -12
10 -21 10 -40 2 -15 -7 -25 -20 -25 -32 0 -11 -2 -20 -5 -20 -2 0 -17 5 -32
12 -15 7 -47 25 -70 40 -23 16 -64 47 -90 69 -27 22 -65 56 -87 75 -21 19 -42
34 -47 34 -5 0 -29 15 -52 33 -24 17 -88 65 -143 106 -54 41 -103 78 -108 83
-6 5 -3 8 8 8z m1144 -64 c15 -3 101 -17 192 -32 91 -14 176 -28 190 -29 14
-2 45 -9 70 -15 25 -6 75 -10 112 -8 48 3 69 0 72 -9 3 -7 18 -13 33 -13 15
-1 75 -9 133 -19 l105 -18 7 -139 c3 -76 9 -202 12 -280 3 -77 2 -151 -1 -163
-4 -16 -10 -20 -22 -15 -9 4 -50 18 -91 32 -41 13 -84 28 -95 33 -11 4 -42 17
-70 28 -27 11 -71 25 -97 31 -26 5 -99 35 -162 65 -64 30 -119 55 -122 55 -3
0 -48 19 -100 42 -88 39 -95 45 -103 78 -5 19 -15 58 -21 85 -7 28 -16 73 -21
100 -4 28 -17 83 -28 123 l-19 73 26 -5z m-1395 -105 c9 -7 17 -18 17 -23 0
-5 16 -26 35 -46 19 -20 37 -45 40 -54 3 -9 24 -36 46 -60 22 -24 53 -58 69
-76 17 -18 30 -37 30 -43 0 -6 12 -26 28 -44 15 -19 43 -55 62 -82 19 -26 42
-55 51 -63 9 -8 52 -57 95 -109 44 -51 103 -125 133 -165 30 -39 65 -84 79
-101 13 -16 52 -61 86 -98 33 -38 61 -74 61 -80 0 -6 -43 -19 -100 -29 -55 -9
-136 -24 -180 -32 -44 -8 -91 -15 -105 -16 -21 0 -30 10 -54 63 -16 34 -46 97
-67 139 -20 43 -40 91 -44 108 -4 16 -11 32 -16 35 -5 4 -9 16 -9 29 0 13 -9
31 -20 41 -11 10 -20 25 -20 33 0 9 -10 45 -22 81 -11 36 -25 70 -30 75 -4 6
-8 18 -8 28 0 11 -8 33 -17 51 -10 18 -23 55 -29 82 -7 28 -29 95 -49 150 -20
55 -43 119 -50 143 -8 23 -11 42 -8 42 3 0 -1 8 -8 18 -13 15 -12 16 4 3z
m-113 -41 c5 0 13 -12 16 -27 4 -16 12 -50 20 -78 7 -27 21 -72 30 -100 9 -27
24 -66 32 -85 8 -19 20 -55 27 -80 7 -25 36 -106 63 -180 27 -74 62 -162 77
-195 15 -33 46 -109 70 -170 24 -60 53 -128 64 -150 20 -38 21 -41 4 -53 -10
-7 -29 -12 -43 -10 -15 2 -24 9 -22 17 1 7 -4 24 -13 37 -9 14 -25 24 -38 24
-12 0 -32 -7 -44 -15 -11 -8 -58 -22 -104 -31 -46 -9 -90 -21 -97 -27 -7 -6
-12 -22 -10 -36 2 -17 11 -27 26 -31 24 -5 24 -5 4 -23 -15 -14 -33 -17 -83
-15 l-63 3 1 40 c1 22 6 85 12 140 6 55 15 129 19 165 l7 65 38 -3 c34 -3 37
-1 37 21 0 14 -7 30 -15 37 -9 7 -26 9 -46 5 -27 -6 -30 -5 -25 11 3 11 8 80
11 154 3 74 8 173 11 219 2 46 9 124 14 175 5 50 10 115 10 144 0 28 4 52 10
52z m2600 -15 c30 -3 91 -10 135 -15 44 -6 100 -13 125 -15 25 -3 113 -10 195
-15 83 -6 173 -10 200 -8 47 3 50 1 53 -22 1 -14 -6 -63 -17 -110 -11 -47 -25
-102 -30 -122 -6 -21 -15 -53 -19 -71 -5 -18 -15 -46 -23 -61 -10 -20 -30 -34
-64 -47 -27 -11 -85 -28 -127 -39 -43 -11 -89 -20 -102 -20 -14 0 -51 -7 -82
-15 -31 -8 -75 -25 -98 -39 -33 -19 -50 -23 -92 -19 -32 3 -54 1 -58 -6 -4 -6
-20 -11 -36 -11 l-28 0 -1 208 c-1 114 -3 255 -5 314 -3 74 0 109 8 112 6 3
36 3 66 1z m980 -68 c30 -4 89 -9 130 -12 41 -2 122 -6 180 -10 58 -3 172 -10
253 -15 82 -5 154 -7 160 -5 7 3 18 1 26 -4 7 -5 10 -14 7 -20 -4 -6 -16 -11
-27 -11 -10 0 -19 -4 -19 -8 0 -4 -15 -13 -33 -20 -18 -7 -41 -12 -51 -12 -9
0 -27 -6 -39 -14 -12 -8 -40 -17 -62 -21 -22 -4 -49 -12 -60 -18 -11 -6 -31
-12 -44 -13 -13 -2 -29 -8 -34 -13 -6 -6 -23 -11 -37 -11 -15 0 -60 -9 -101
-19 -41 -11 -110 -31 -153 -45 -43 -15 -85 -26 -93 -26 -7 0 -21 -4 -31 -10
-9 -5 -42 -16 -72 -24 -30 -9 -77 -23 -104 -31 -48 -15 -48 -15 -43 8 2 12 16
67 31 122 14 55 26 113 26 129 0 16 5 46 11 67 12 38 12 38 68 41 31 2 81 -1
111 -5z m1053 -176 c6 -6 10 -64 9 -143 0 -73 -1 -198 -1 -278 -1 -80 -6 -194
-12 -255 -6 -60 -13 -209 -14 -330 -2 -121 -8 -256 -12 -300 -6 -50 -6 -86 0
-96 6 -9 7 -28 3 -42 -3 -15 -10 -27 -15 -27 -5 0 -62 28 -127 61 -66 34 -140
72 -165 85 -26 13 -54 24 -62 24 -8 0 -20 7 -27 15 -7 8 -18 15 -25 15 -6 0
-51 22 -100 49 -48 27 -91 53 -95 58 -5 4 10 40 32 78 22 39 39 70 38 70 0 0
6 16 14 35 8 19 26 46 40 59 14 14 26 32 26 41 0 9 12 36 28 61 15 24 36 69
46 99 11 30 30 73 43 96 12 22 23 47 23 54 0 7 12 32 28 57 15 24 42 68 61 96
18 29 44 73 58 100 14 26 29 50 34 53 5 3 25 33 46 67 20 34 51 90 69 124 17
34 35 67 39 73 5 8 11 8 18 1z m-191 -71 c4 0 8 -4 8 -10 0 -5 -7 -10 -15 -10
-8 0 -15 -6 -15 -14 0 -7 -13 -30 -30 -51 -16 -21 -30 -42 -30 -47 0 -5 -11
-24 -24 -41 -13 -18 -32 -51 -42 -74 -10 -24 -23 -43 -29 -43 -6 0 -23 -24
-38 -52 -15 -29 -33 -64 -41 -78 -7 -14 -24 -50 -36 -80 -12 -30 -33 -78 -47
-107 -14 -29 -22 -56 -19 -61 3 -5 -6 -27 -20 -47 -14 -21 -32 -55 -41 -77 -8
-21 -24 -43 -34 -48 -10 -6 -27 -29 -39 -53 -11 -23 -32 -63 -46 -89 -15 -27
-31 -48 -36 -48 -5 0 -27 9 -49 21 -23 11 -47 18 -55 15 -8 -3 -14 -1 -14 4 0
5 -44 31 -97 58 -54 27 -113 58 -130 68 -18 10 -33 21 -33 24 1 3 6 12 13 20
7 8 25 23 40 33 15 10 33 28 38 41 6 12 25 31 42 41 18 10 62 48 99 85 36 38
73 72 81 76 9 5 39 35 67 68 28 32 84 85 123 118 40 33 83 73 98 90 14 16 47
40 73 53 27 13 75 49 106 79 32 31 63 56 69 56 6 0 31 18 53 40 23 22 46 40
50 40z m-459 -51 c4 0 7 -3 7 -7 0 -4 -22 -25 -49 -45 -26 -20 -73 -49 -103
-64 -29 -16 -72 -43 -95 -60 -22 -18 -45 -33 -50 -33 -5 0 -19 -9 -31 -20 -12
-11 -32 -25 -44 -30 -13 -6 -30 -14 -38 -19 -8 -5 -26 -14 -40 -21 -14 -6 -47
-24 -75 -40 -27 -16 -83 -46 -122 -65 -40 -20 -75 -41 -78 -46 -4 -5 -13 -9
-21 -9 -8 0 -14 9 -14 21 0 11 5 29 11 41 6 11 15 49 20 85 5 36 18 77 28 92
16 22 42 34 150 64 71 20 137 37 145 37 9 0 16 4 16 8 0 5 16 16 35 25 20 9
45 17 55 17 11 0 53 9 93 21 39 12 99 27 132 34 33 7 63 13 68 14z m235 1 c2
0 0 -4 -3 -10 -3 -5 -12 -10 -18 -10 -7 0 -6 4 3 10 8 5 16 10 18 10z m-2571
-26 c21 -9 52 -21 68 -26 17 -6 50 -24 74 -40 24 -16 54 -30 65 -31 12 -1 46
-14 76 -29 30 -14 76 -36 101 -47 25 -12 54 -21 63 -21 9 0 24 -4 34 -9 9 -5
40 -16 67 -25 28 -8 74 -24 103 -34 29 -11 55 -22 59 -26 3 -3 -5 -6 -19 -6
-14 0 -51 -9 -83 -20 -32 -11 -66 -20 -77 -20 -10 0 -26 -4 -36 -9 -9 -5 -28
-13 -42 -19 -14 -6 -63 -16 -110 -22 -47 -6 -109 -15 -137 -21 -29 -6 -53 -14
-53 -19 0 -5 -15 -7 -32 -3 -18 3 -46 16 -63 28 -24 18 -33 35 -43 86 -8 35
-16 80 -19 99 -2 19 -13 73 -24 119 -11 46 -18 90 -15 98 5 11 12 11 43 -3z
m2511 -14 c9 0 5 -10 -10 -29 -13 -17 -42 -39 -66 -51 -24 -11 -45 -27 -49
-36 -3 -8 -17 -21 -32 -29 -14 -8 -44 -32 -66 -55 -22 -23 -51 -51 -64 -63
-13 -12 -52 -51 -87 -86 -50 -51 -64 -61 -69 -48 -3 9 -7 24 -10 32 -2 9 -18
18 -35 21 -16 4 -30 9 -30 13 1 3 40 31 88 62 48 31 136 87 195 125 60 38 134
86 165 106 32 21 63 38 70 38z m605 -27 c5 -3 23 -35 39 -72 16 -36 41 -91 56
-121 15 -30 29 -57 32 -60 3 -3 45 -84 93 -180 48 -96 110 -218 137 -270 28
-52 50 -98 50 -101 0 -3 25 -43 55 -89 30 -46 55 -88 55 -94 0 -6 27 -63 60
-126 33 -63 109 -216 171 -340 61 -124 117 -236 125 -250 9 -14 22 -41 30 -60
8 -19 26 -57 40 -83 14 -27 24 -50 22 -52 -2 -2 -26 7 -53 21 -28 13 -57 24
-66 24 -9 0 -34 16 -55 36 -22 19 -73 52 -114 72 -41 20 -96 50 -122 68 -27
18 -63 35 -80 39 -18 4 -46 19 -61 34 -15 14 -55 40 -87 56 -33 17 -134 67
-225 113 l-164 82 4 168 c3 92 9 193 13 224 5 31 5 88 0 125 -5 37 -6 109 -3
158 4 50 11 115 16 145 5 30 12 136 17 235 4 99 7 208 6 242 0 36 4 59 9 56z
m-1615 -174 c17 1 32 -2 32 -6 0 -5 -11 -39 -25 -78 -13 -38 -25 -81 -25 -95
0 -14 -7 -38 -15 -54 -8 -15 -15 -36 -15 -45 0 -9 -4 -22 -8 -29 -7 -10 -23
-5 -71 23 -35 19 -66 35 -70 35 -4 0 -43 19 -86 41 -44 23 -92 50 -106 60 -15
10 -37 23 -50 28 l-24 9 30 12 c17 7 75 24 130 37 55 14 120 28 144 30 40 5
43 4 36 -13 -4 -11 -9 -26 -12 -34 -2 -8 2 -23 10 -34 11 -15 17 -17 35 -7 15
8 22 21 22 42 0 22 -6 32 -22 38 l-23 9 25 10 c14 5 32 12 40 15 8 3 30 6 48
6z m473 -144 c4 -3 11 -21 15 -40 5 -28 11 -35 30 -35 12 0 26 5 30 11 4 7 10
7 16 1 7 -7 -1 -20 -24 -41 -20 -17 -68 -62 -109 -101 -41 -38 -81 -76 -89
-83 -8 -7 -33 -27 -56 -44 l-40 -32 -75 37 c-41 20 -87 46 -103 58 l-28 20 38
37 c22 20 44 37 50 37 6 0 22 9 36 19 14 11 87 52 162 90 76 39 142 68 147 66z
m-1060 -5 c19 0 34 -9 47 -28 11 -15 48 -40 84 -56 34 -16 71 -32 80 -37 10
-5 25 -9 34 -9 9 0 27 -9 41 -20 14 -11 33 -20 42 -20 10 0 33 -16 52 -36 28
-29 31 -37 19 -44 -8 -4 -32 -22 -54 -39 -21 -17 -44 -31 -51 -31 -7 0 -18 -7
-26 -16 -7 -8 -33 -26 -58 -39 -25 -13 -57 -35 -70 -49 -13 -14 -28 -23 -32
-20 -5 3 -19 0 -31 -7 -12 -6 -31 -20 -42 -30 -10 -10 -35 -24 -53 -30 -19 -6
-36 -9 -38 -7 -2 2 -4 35 -4 73 -1 39 0 113 2 167 1 53 5 100 10 104 4 4 7 42
7 84 0 42 3 80 7 83 3 4 19 7 34 7z m-148 -11 c4 1 5 -63 2 -141 -3 -79 -8
-192 -11 -253 -3 -60 -7 -119 -9 -130 -1 -11 -3 -24 -4 -29 0 -4 -18 6 -38 24
-21 17 -50 42 -66 56 -15 13 -46 36 -68 51 -23 16 -51 35 -63 43 -12 8 -55 42
-96 74 -41 33 -98 81 -127 108 -28 26 -57 48 -62 48 -6 0 -11 4 -11 9 0 4 35
9 77 10 43 1 80 6 83 11 3 5 23 13 45 19 22 5 56 14 75 20 19 5 76 21 125 34
50 14 101 30 115 36 14 5 28 10 33 10z m-687 -169 c11 0 31 -8 47 -18 15 -10
36 -27 46 -38 10 -10 45 -37 77 -59 31 -22 67 -49 78 -60 11 -11 59 -50 106
-87 47 -37 120 -95 163 -129 42 -35 77 -66 77 -70 0 -3 -34 -36 -75 -72 -42
-35 -88 -67 -103 -70 -15 -3 -36 -13 -47 -22 -11 -8 -51 -36 -90 -61 -38 -25
-78 -54 -88 -64 -10 -11 -26 -20 -37 -20 -10 0 -22 -4 -25 -10 -3 -5 -12 -10
-19 -10 -9 0 -15 21 -19 60 -4 34 -11 69 -16 79 -6 10 -11 37 -12 60 -2 23 -7
45 -11 47 -4 3 -8 33 -8 67 0 34 -6 88 -14 119 -7 32 -11 59 -9 62 3 2 -2 28
-10 58 -8 29 -18 95 -22 146 -7 85 -6 92 11 92z m-154 -21 c4 1 10 -3 13 -9 3
-5 12 -56 20 -112 8 -57 19 -123 25 -148 6 -25 16 -74 21 -110 5 -36 11 -76
13 -90 3 -13 8 -47 11 -75 3 -27 11 -76 17 -108 6 -32 8 -60 5 -64 -4 -3 -48
36 -99 88 -51 52 -116 121 -143 154 -28 33 -58 72 -68 87 -9 15 -30 34 -46 44
-16 10 -32 27 -35 38 -3 11 0 23 6 27 6 4 13 32 16 61 3 42 0 58 -13 71 -9 9
-21 17 -26 17 -5 0 -12 -12 -15 -27 -4 -14 -2 -34 4 -44 7 -10 8 -27 4 -39 -7
-19 -11 -16 -53 27 -25 27 -52 63 -59 81 -7 18 -11 34 -9 36 2 2 47 11 99 19
52 9 118 20 145 26 28 5 75 19 105 30 30 11 58 20 62 20z m1470 -120 c4 1 9
-3 13 -9 3 -5 -1 -39 -10 -74 -8 -36 -19 -74 -24 -83 -5 -10 -17 -68 -25 -128
-9 -61 -21 -126 -26 -146 -6 -19 -32 -59 -58 -87 -29 -31 -57 -52 -70 -52 -11
0 -50 25 -86 55 -35 30 -67 55 -70 55 -4 0 -44 30 -91 67 -47 36 -85 70 -85
75 0 4 4 8 8 8 5 0 38 19 73 42 35 23 76 48 90 54 14 6 45 24 70 40 24 16 64
39 88 52 25 14 72 46 106 72 33 26 67 49 75 53 8 3 18 6 22 6z m-1997 -16 c6
-2 29 -30 52 -62 23 -31 70 -91 104 -132 33 -41 67 -79 74 -84 6 -6 15 -20 19
-31 4 -12 28 -42 54 -67 26 -24 62 -62 81 -83 19 -22 83 -90 143 -152 59 -62
108 -119 108 -126 0 -7 -48 -47 -107 -88 -60 -42 -117 -85 -127 -97 -11 -11
-27 -21 -37 -21 -10 0 -21 -5 -24 -11 -4 -5 -17 -14 -28 -20 -12 -5 -31 -15
-42 -21 -11 -7 -22 -15 -25 -18 -3 -3 -22 -16 -42 -30 -21 -14 -38 -28 -38
-32 0 -5 -6 -8 -14 -8 -8 0 -28 -11 -44 -25 -17 -14 -34 -25 -40 -25 -5 0 -15
-7 -22 -15 -7 -8 -20 -15 -30 -15 -10 0 -22 12 -28 28 -6 15 -16 45 -24 67 -7
22 -20 51 -30 64 -10 13 -18 29 -18 36 0 7 -7 18 -15 25 -9 7 -13 20 -10 28 3
8 -5 33 -18 56 -14 22 -30 59 -37 81 -7 22 -23 60 -35 85 -12 25 -43 88 -69
141 -25 53 -46 101 -46 107 0 6 -8 26 -18 44 -10 18 -31 67 -46 108 -15 41
-38 91 -51 111 -13 20 -27 53 -30 73 l-7 36 43 0 c24 0 69 7 99 16 30 8 96 21
145 29 50 8 108 18 130 23 22 4 45 7 50 5z m2122 -13 c1 0 17 -10 35 -22 32
-22 33 -24 20 -52 -12 -24 -12 -30 1 -43 8 -9 20 -12 27 -8 7 4 10 19 6 36 -4
20 -2 29 8 29 7 0 21 -9 30 -19 16 -18 16 -20 -8 -47 -14 -16 -40 -45 -57 -64
-17 -19 -44 -49 -59 -67 -15 -17 -37 -36 -48 -42 -12 -6 -23 -8 -25 -4 -2 5 7
51 19 103 13 52 24 113 24 136 0 22 5 45 12 52 7 7 13 12 15 12z m-2869 -11
c15 1 22 -4 20 -11 -3 -7 -27 -16 -54 -20 -27 -4 -67 -10 -89 -13 l-40 -5 30
14 c17 8 48 18 70 24 22 5 51 10 63 11z m160 -87 c6 -2 12 -10 12 -17 0 -7 15
-44 34 -81 19 -38 41 -85 50 -106 9 -20 16 -39 16 -43 0 -5 16 -42 36 -84 20
-42 46 -96 58 -121 13 -25 26 -58 30 -73 4 -16 17 -45 29 -65 13 -20 33 -62
46 -92 12 -30 26 -64 31 -75 5 -11 17 -38 26 -60 9 -22 31 -76 49 -120 19 -44
43 -98 54 -120 12 -21 21 -46 21 -55 0 -9 -19 -27 -42 -40 -24 -13 -98 -60
-164 -104 -67 -45 -161 -106 -210 -137 -49 -30 -105 -62 -124 -69 -19 -8 -47
-21 -61 -29 -15 -9 -48 -29 -73 -46 -26 -16 -61 -40 -79 -52 -18 -13 -48 -30
-67 -39 -19 -9 -62 -35 -95 -59 -33 -23 -76 -50 -95 -60 -19 -10 -55 -35 -80
-55 -25 -21 -57 -40 -72 -44 -25 -6 -28 -3 -28 18 0 13 7 77 15 143 8 65 22
215 30 333 8 118 21 274 30 345 8 72 20 164 27 205 6 41 13 127 15 190 2 63 8
183 13 265 5 83 9 160 9 172 1 12 7 28 15 36 8 8 43 18 78 22 35 5 70 10 78
11 8 1 29 7 45 14 17 6 80 24 140 40 61 15 128 34 150 42 22 8 46 12 53 10z
m2956 -32 c8 0 18 -5 21 -10 4 -6 21 -17 38 -25 18 -8 39 -19 47 -24 8 -5 42
-23 75 -40 33 -17 80 -40 105 -51 25 -12 52 -25 60 -30 8 -6 25 -14 38 -20 12
-5 22 -12 22 -14 0 -3 -19 -33 -42 -68 -23 -34 -42 -69 -43 -78 -1 -8 -10 -32
-19 -52 -9 -21 -20 -38 -25 -38 -5 0 -27 -37 -51 -82 -23 -46 -55 -105 -70
-133 -16 -27 -47 -88 -70 -133 -22 -46 -40 -88 -40 -93 0 -5 -6 -10 -12 -10
-7 -1 -19 -1 -26 0 -7 1 -61 40 -120 86 -59 46 -139 111 -179 145 -40 33 -77
60 -83 60 -5 0 -10 1 -10 3 0 1 -4 16 -9 34 -7 22 -5 39 5 58 8 15 14 51 14
80 0 47 5 59 38 99 20 24 40 45 43 45 3 1 67 62 142 136 76 74 137 139 137
145 0 5 6 10 14 10z m-3639 -135 c6 -1 9 -7 8 -12 -1 -5 -5 -117 -8 -248 -4
-132 -9 -243 -11 -247 -3 -4 -7 -34 -9 -65 -3 -32 -10 -100 -16 -152 -6 -51
-12 -101 -14 -110 -2 -9 -6 -48 -10 -86 -3 -39 -12 -113 -20 -165 -7 -52 -17
-142 -20 -200 -3 -58 -10 -139 -15 -180 -5 -41 -12 -102 -16 -135 -4 -33 -8
-72 -8 -87 -1 -16 -3 -28 -6 -28 -3 0 -23 9 -45 20 -21 11 -50 30 -64 43 -14
13 -52 42 -83 65 -31 23 -63 42 -70 42 -7 0 -27 15 -43 33 -17 17 -73 66 -125
108 -52 42 -106 82 -120 89 -14 7 -77 54 -140 104 -63 51 -131 102 -150 115
-19 13 -48 37 -65 52 -16 15 -41 33 -55 39 -14 6 -41 21 -60 35 -19 13 -42 30
-50 37 -9 8 -39 29 -68 48 -43 27 -51 37 -46 54 4 12 22 44 40 72 18 27 41 67
49 88 9 21 26 51 37 67 12 16 22 36 23 46 1 10 10 38 22 63 11 25 27 51 36 59
10 7 17 20 17 28 0 8 18 49 40 91 34 65 47 80 82 96 23 11 58 23 77 27 20 5
74 17 121 28 47 11 126 30 175 42 50 12 112 30 139 40 27 11 58 19 70 19 12 0
26 4 32 10 5 5 50 10 99 11 50 1 102 6 117 11 15 6 53 16 85 23 32 7 63 11 68
10z m4156 -115 c3 0 16 -11 28 -24 13 -13 46 -34 74 -46 29 -12 82 -37 118
-56 37 -19 75 -34 85 -34 11 0 32 -14 48 -30 16 -17 33 -30 37 -30 4 0 18 -5
31 -10 13 -6 41 -21 63 -35 22 -13 51 -30 65 -36 14 -7 46 -21 71 -32 l46 -20
-4 -126 c-1 -69 -5 -169 -7 -221 -3 -52 -6 -160 -9 -240 -2 -82 -10 -172 -19
-208 -8 -35 -11 -65 -6 -68 4 -3 4 -14 -2 -24 -5 -10 -10 -40 -11 -67 0 -26
-4 -67 -7 -91 l-7 -43 -35 25 c-19 14 -47 34 -63 43 -15 10 -65 45 -111 78
-45 33 -126 95 -179 138 -53 42 -100 77 -106 77 -5 0 -11 3 -13 8 -1 4 -33 30
-70 57 -37 28 -110 77 -163 110 -53 33 -120 79 -149 103 -29 23 -57 42 -61 42
-4 0 -13 8 -20 17 -10 14 -10 23 3 50 9 18 19 33 24 33 4 0 8 6 8 14 0 7 17
47 39 87 21 41 45 88 54 104 8 17 30 64 48 105 19 41 55 108 82 149 27 42 47
85 47 101 0 15 10 40 22 56 12 16 27 32 33 36 5 4 13 8 16 8z m-1549 -26 c5
-3 6 -24 3 -47 -3 -23 -7 -164 -10 -312 -2 -149 -7 -280 -11 -290 -4 -11 -29
-41 -55 -66 l-48 -47 -49 47 c-27 25 -77 73 -113 107 -35 34 -103 102 -151
151 -49 50 -88 97 -88 105 0 8 12 26 28 40 15 14 87 63 160 109 73 46 161 102
196 124 34 22 78 50 96 62 19 12 37 20 42 17z m120 -24 c9 0 49 -26 88 -57 38
-32 92 -76 120 -98 27 -22 50 -46 50 -53 0 -7 -27 -40 -59 -75 -32 -34 -81
-87 -107 -117 -27 -31 -62 -66 -77 -79 -15 -13 -31 -20 -34 -17 -4 4 -7 100
-7 214 0 114 2 224 4 245 3 27 9 37 22 37z m348 -270 c4 0 20 -15 37 -32 l31
-33 -19 -115 c-11 -63 -24 -146 -30 -185 -5 -38 -24 -142 -40 -230 -17 -88
-35 -171 -41 -185 -5 -14 -12 -56 -14 -94 -3 -38 -8 -76 -13 -84 -7 -12 -41
18 -154 131 l-146 146 4 141 c3 132 4 143 26 168 13 15 33 37 44 49 11 12 25
26 30 32 6 6 27 25 48 42 20 17 37 36 37 43 0 6 13 20 30 29 16 10 60 54 97
97 37 44 70 80 73 80z m1861 -110 c5 0 51 -22 102 -48 50 -26 115 -56 142 -66
28 -10 57 -24 65 -31 8 -6 55 -33 104 -58 48 -26 93 -47 98 -47 6 0 27 -15 47
-33 20 -18 72 -51 116 -75 44 -23 100 -57 125 -75 25 -18 63 -42 84 -53 22
-11 41 -25 43 -30 1 -5 -39 -31 -90 -57 -50 -26 -97 -48 -102 -47 -6 0 -26
-16 -45 -35 -19 -19 -42 -35 -51 -35 -8 0 -26 -12 -40 -26 -13 -14 -44 -35
-69 -47 -25 -12 -66 -38 -93 -58 -26 -21 -56 -41 -67 -44 -11 -4 -20 -10 -20
-15 0 -5 -19 -18 -42 -28 -24 -11 -52 -29 -62 -41 -11 -11 -27 -21 -36 -21 -9
0 -25 -9 -34 -19 -10 -11 -29 -22 -43 -25 -13 -4 -43 -19 -66 -34 -23 -15 -46
-32 -50 -39 -4 -7 -15 -13 -23 -13 -8 0 -23 -6 -34 -12 -17 -11 -22 -10 -29 1
-5 8 -7 20 -4 27 3 7 7 68 9 136 2 68 5 147 8 177 3 30 8 66 11 79 3 14 8 68
10 121 2 53 6 191 10 306 3 116 8 222 11 238 3 15 10 27 15 27z m-2969 -11 c4
1 10 -11 13 -26 3 -16 13 -57 21 -93 8 -36 19 -81 24 -100 5 -19 14 -73 20
-120 6 -46 15 -89 18 -95 4 -5 8 -19 9 -30 1 -11 5 -36 7 -55 3 -20 12 -56 20
-80 8 -25 18 -61 21 -81 6 -34 2 -41 -87 -143 -51 -59 -104 -123 -118 -141
-14 -19 -44 -50 -67 -71 -24 -20 -43 -42 -43 -48 0 -7 -20 -33 -45 -59 -24
-26 -49 -47 -55 -47 -5 0 -10 -8 -10 -18 0 -9 -9 -23 -20 -30 -12 -7 -25 -10
-29 -7 -5 2 -12 22 -15 42 -4 21 -18 58 -30 83 -13 25 -27 60 -30 77 -4 18
-12 36 -17 39 -6 3 -15 18 -21 32 -6 15 -10 33 -9 40 1 7 -7 41 -19 74 -11 33
-28 74 -36 90 -9 16 -24 55 -34 86 -10 31 -34 93 -54 137 -20 43 -42 82 -48
86 -6 4 -8 14 -5 23 4 9 15 20 24 23 10 4 32 16 48 28 17 11 46 32 66 48 20
15 39 27 42 27 3 0 34 19 68 43 34 23 74 51 89 62 15 11 40 29 56 39 16 11 58
39 94 62 36 24 83 57 105 73 22 16 43 30 47 30z m1308 -41 c22 -18 60 -49 85
-68 25 -19 51 -40 58 -45 6 -6 32 -25 57 -42 25 -17 69 -50 98 -72 l53 -42
-44 -87 c-25 -48 -60 -118 -78 -157 -18 -38 -41 -81 -50 -95 -9 -14 -35 -56
-57 -95 -23 -38 -49 -95 -58 -125 -10 -30 -27 -68 -39 -85 -11 -16 -31 -47
-43 -68 -12 -21 -22 -45 -22 -53 0 -8 -7 -14 -15 -14 -9 0 -35 18 -59 40 -24
22 -56 58 -71 79 -24 35 -26 44 -16 73 5 18 13 58 16 88 3 30 13 84 20 120 8
36 24 114 35 173 11 60 18 113 14 118 -3 5 1 20 9 32 8 13 17 63 21 119 3 54
14 126 22 160 9 35 18 67 21 71 3 4 22 -7 43 -25z m-1142 -98 c5 0 19 -15 32
-32 13 -18 49 -55 79 -83 31 -27 82 -76 113 -108 32 -32 58 -61 58 -65 0 -4
-29 -40 -65 -80 -35 -41 -78 -85 -96 -98 -18 -13 -36 -24 -40 -24 -5 0 -11 17
-14 38 -3 20 -8 52 -11 70 -3 17 -11 32 -18 32 -8 0 -12 18 -12 58 -1 31 -8
104 -17 162 -9 58 -17 111 -17 118 0 6 4 12 8 12z m1597 -240 c9 0 18 -6 21
-14 3 -8 46 -44 95 -80 48 -36 93 -66 99 -66 5 0 10 -4 10 -10 0 -5 26 -23 59
-39 32 -17 76 -47 97 -67 22 -20 63 -53 92 -73 29 -20 64 -42 78 -49 13 -7 24
-17 24 -22 0 -4 30 -32 68 -62 37 -29 87 -66 111 -83 24 -16 61 -41 81 -55 20
-14 50 -34 67 -45 16 -11 49 -36 72 -57 34 -29 42 -42 39 -64 -2 -20 -20 -41
-63 -75 -33 -26 -65 -48 -71 -48 -5 -1 -37 -23 -70 -49 -33 -27 -82 -59 -109
-73 -28 -13 -54 -30 -58 -36 -4 -7 -14 -13 -21 -13 -7 0 -21 -9 -32 -21 -10
-11 -47 -36 -81 -56 -35 -19 -65 -39 -69 -44 -3 -5 -38 -31 -77 -57 -40 -26
-88 -59 -107 -72 -19 -14 -58 -42 -87 -63 -46 -34 -54 -37 -71 -25 -10 7 -45
45 -77 83 -32 39 -62 72 -65 75 -3 3 -48 52 -100 110 -52 58 -124 137 -160
175 -36 39 -79 90 -96 115 -30 45 -30 46 -12 75 10 17 25 46 35 65 9 19 37 80
63 135 26 55 53 116 61 135 7 19 23 48 36 63 13 16 26 41 29 55 4 15 12 34 19
42 7 8 19 30 29 49 9 19 16 43 16 53 0 10 12 30 26 43 15 14 24 25 21 25 -3 0
10 24 29 52 19 29 34 56 34 60 0 5 7 8 15 8z m-5089 -49 c19 -17 39 -31 44
-31 5 0 33 -16 62 -35 29 -19 76 -51 103 -70 28 -19 66 -48 86 -63 20 -15 61
-48 90 -73 30 -25 69 -54 87 -65 17 -10 32 -22 32 -26 0 -4 26 -24 58 -45 31
-21 59 -41 60 -46 2 -4 25 -18 50 -32 26 -13 61 -36 78 -52 17 -15 47 -41 65
-57 19 -16 59 -46 89 -67 30 -21 66 -47 80 -58 14 -11 29 -21 33 -21 4 0 32
-18 62 -40 30 -22 55 -43 55 -45 0 -2 -25 -20 -55 -40 -31 -19 -59 -35 -63
-35 -4 0 -32 -19 -62 -43 -30 -24 -74 -53 -97 -65 -23 -12 -50 -28 -60 -37
-10 -8 -36 -30 -57 -48 -21 -17 -45 -32 -52 -32 -7 0 -33 -16 -59 -35 -26 -19
-61 -45 -78 -58 -17 -12 -42 -25 -56 -29 -14 -3 -36 -15 -48 -26 -12 -11 -33
-26 -45 -33 -13 -7 -37 -19 -54 -27 -17 -8 -34 -20 -38 -25 -3 -6 -21 -14 -39
-17 -17 -4 -39 -13 -47 -19 -8 -7 -65 -42 -125 -78 -61 -37 -130 -86 -155
-108 -25 -23 -64 -52 -86 -64 -23 -11 -64 -33 -92 -48 -28 -15 -53 -32 -57
-38 -4 -6 -11 -8 -16 -5 -5 4 -22 -3 -38 -14 -16 -12 -34 -21 -40 -21 -5 0
-14 -6 -18 -12 -4 -7 -33 -26 -64 -41 -31 -16 -115 -67 -185 -113 -71 -47
-151 -98 -178 -112 -27 -15 -57 -32 -66 -37 -10 -6 -25 -17 -34 -24 -9 -8 -31
-22 -49 -32 -17 -10 -50 -28 -72 -40 -22 -12 -43 -26 -46 -32 -4 -5 -11 -7
-17 -4 -5 4 -18 -3 -28 -14 -10 -11 -44 -38 -76 -59 -32 -22 -60 -40 -63 -40
-3 0 -36 -20 -73 -44 -38 -24 -83 -51 -100 -60 l-32 -16 12 27 c7 16 25 44 40
64 15 20 28 43 28 51 0 8 9 23 21 34 11 10 34 38 50 62 16 24 29 49 29 57 0 7
11 27 25 43 14 17 25 34 25 40 0 5 19 41 41 78 23 38 54 87 69 109 14 22 41
69 60 105 18 36 40 76 49 90 9 14 22 34 28 45 7 11 19 36 28 55 8 19 19 42 25
50 5 8 16 29 23 45 8 17 26 44 40 61 15 18 27 37 27 44 0 7 9 25 20 40 11 15
42 70 68 122 26 51 59 111 74 133 14 22 29 51 33 65 4 14 20 41 34 60 15 19
50 73 77 120 28 47 54 92 58 100 4 8 12 24 19 35 7 11 23 36 35 55 12 19 22
43 22 53 0 9 4 17 9 17 5 0 16 16 25 35 9 19 21 37 26 40 6 4 22 27 36 53 14
26 41 76 60 112 19 36 41 70 49 76 8 6 20 27 27 45 6 19 26 57 45 84 18 28 42
64 54 80 11 17 29 45 40 63 l20 34 35 -31z m3938 29 c10 0 16 -9 16 -21 0 -12
-5 -19 -12 -17 -7 3 -14 12 -16 21 -2 10 3 17 12 17z m-1338 -103 c6 -7 19
-32 28 -57 10 -25 22 -54 27 -65 4 -11 21 -51 37 -90 17 -38 33 -81 37 -95 3
-14 10 -34 14 -45 5 -11 16 -38 24 -60 8 -22 32 -83 53 -135 20 -52 54 -132
75 -178 22 -45 39 -90 39 -98 0 -9 -15 -33 -32 -53 -18 -21 -43 -50 -55 -64
-13 -15 -23 -31 -23 -35 0 -4 -18 -25 -40 -47 -21 -21 -42 -52 -46 -69 -3 -17
-13 -39 -22 -48 -8 -10 -20 -18 -26 -18 -6 0 -27 -20 -46 -45 -19 -24 -39 -44
-44 -45 -5 0 -23 -15 -40 -32 -18 -18 -46 -53 -64 -78 -17 -25 -42 -58 -55
-73 l-24 -28 -107 60 c-59 32 -115 66 -124 74 -9 8 -28 18 -42 22 -13 4 -38
17 -54 29 -17 12 -39 29 -51 39 -11 10 -45 35 -75 54 -30 20 -76 54 -101 75
-26 21 -51 38 -56 38 -6 0 -18 10 -29 21 -10 12 -44 38 -74 58 -30 20 -66 42
-80 49 -14 7 -34 18 -45 25 -11 7 -62 43 -112 80 -51 38 -93 72 -93 77 0 5 13
18 29 29 16 12 33 21 38 21 5 0 32 14 59 32 27 18 89 58 137 90 48 32 91 58
95 58 4 0 24 13 43 29 20 17 56 41 80 53 24 13 73 43 108 66 36 23 69 42 73
42 5 0 35 17 66 38 31 21 84 53 117 72 33 18 87 52 120 75 33 23 67 44 75 48
8 3 51 30 95 61 60 40 83 51 91 43z m1254 -7 c3 0 18 -12 32 -27 15 -16 36
-36 47 -45 17 -15 19 -26 15 -100 -3 -46 -5 -191 -5 -323 0 -132 4 -262 9
-290 4 -27 4 -95 0 -150 -4 -55 -12 -125 -17 -155 -5 -30 -6 -89 -3 -130 4
-41 4 -151 0 -245 -3 -93 -7 -259 -7 -367 -1 -109 -5 -199 -10 -203 -5 -3 -12
3 -16 14 -3 11 -8 30 -10 43 -3 13 -8 39 -11 58 -3 19 -12 57 -20 83 -7 27
-16 83 -20 125 -3 42 -7 86 -9 97 -2 11 -11 55 -19 98 -9 43 -16 98 -16 122 0
24 -6 48 -12 52 -7 4 -13 24 -13 43 -1 19 -4 64 -9 100 -4 36 -12 119 -16 185
-5 66 -16 149 -25 185 -9 36 -20 85 -25 110 -4 25 -15 77 -24 115 -8 39 -16
84 -16 101 0 17 -8 57 -19 90 -10 32 -21 85 -24 117 -5 54 -4 60 20 80 15 12
69 66 122 120 52 53 98 97 101 97z m3520 -83 c21 -2 33 -18 76 -107 29 -58 68
-139 88 -182 20 -42 36 -82 36 -88 0 -7 21 -56 46 -109 25 -53 59 -122 75
-153 15 -31 32 -65 37 -75 5 -10 19 -38 32 -63 12 -25 31 -63 42 -85 11 -22
28 -56 38 -75 10 -19 33 -73 53 -120 19 -47 54 -125 76 -175 23 -49 46 -98 51
-107 6 -10 10 -26 10 -36 0 -10 4 -22 9 -27 5 -6 36 -64 69 -130 33 -66 77
-156 97 -200 21 -44 45 -100 55 -125 10 -25 41 -92 70 -148 28 -57 50 -108 48
-113 -2 -5 -17 1 -34 13 -16 13 -69 57 -118 98 -48 41 -101 85 -119 98 -18 13
-45 36 -62 51 -16 15 -77 66 -135 112 -58 46 -121 96 -140 111 -19 14 -69 52
-110 82 -41 31 -88 68 -105 82 -16 14 -58 47 -91 72 -34 26 -104 80 -155 120
-52 40 -132 102 -178 138 -46 36 -114 85 -150 109 -36 24 -91 62 -121 84 -30
23 -64 45 -75 51 -11 5 -49 30 -84 55 -35 25 -78 58 -96 73 -18 15 -78 59
-133 97 -56 39 -102 72 -102 75 0 3 23 21 52 40 28 19 56 40 63 46 6 6 25 19
42 27 17 9 37 22 45 30 7 7 31 26 53 42 22 16 47 37 55 46 8 9 25 19 37 23 13
4 35 10 50 12 15 3 47 21 71 41 24 20 46 42 49 49 3 8 11 14 17 14 7 0 30 13
52 30 21 16 44 30 49 30 6 0 27 11 47 25 20 14 44 25 52 25 9 0 16 5 16 10 0
6 11 10 24 10 14 0 28 5 31 10 3 6 14 10 23 10 9 1 46 19 82 40 38 24 75 39
90 37z m-3315 -117 c8 0 15 -4 15 -9 0 -5 21 -31 48 -57 26 -26 82 -86 125
-133 58 -64 77 -93 77 -114 0 -16 -5 -37 -11 -49 -6 -11 -20 -68 -30 -127 -11
-58 -25 -137 -31 -176 -6 -38 -14 -74 -19 -79 -5 -6 -9 -22 -9 -37 0 -15 -5
-51 -11 -81 -6 -29 -19 -71 -29 -93 -10 -22 -20 -62 -24 -90 -4 -27 -27 -111
-51 -185 -25 -74 -50 -155 -56 -180 l-12 -45 -9 30 c-5 17 -6 44 -3 60 4 17 9
154 13 305 4 151 7 336 7 411 l0 137 23 -9 c13 -5 40 -9 60 -9 31 0 39 5 50
29 7 16 10 41 6 55 -4 18 -13 26 -29 26 -12 0 -28 -7 -35 -15 -7 -8 -20 -15
-30 -15 -10 0 -21 -8 -25 -17 -6 -17 -7 -17 -17 0 -5 11 -10 101 -10 215 0
108 0 209 1 225 1 17 7 27 16 27z m-555 -157 c4 -4 13 -26 20 -48 7 -22 15
-51 16 -65 2 -14 7 -47 13 -75 5 -27 19 -99 31 -160 12 -60 28 -141 37 -180 8
-38 17 -92 19 -120 2 -27 8 -99 14 -160 6 -60 18 -153 26 -205 8 -52 15 -111
16 -130 1 -19 7 -44 14 -55 6 -11 17 -78 24 -150 7 -71 17 -141 22 -155 5 -14
11 -38 13 -55 1 -16 6 -51 10 -78 4 -26 16 -64 26 -84 11 -21 19 -55 19 -76 0
-26 -4 -37 -12 -35 -7 2 -34 46 -61 98 -26 52 -57 113 -70 135 -13 22 -35 61
-50 88 -15 26 -39 68 -54 94 -14 26 -32 54 -40 61 -7 7 -13 19 -13 26 0 6 -19
40 -42 75 -24 34 -50 75 -58 89 -9 15 -35 61 -58 102 -24 41 -48 84 -55 95 -7
10 -27 41 -44 67 -18 26 -33 51 -33 54 0 3 -20 47 -45 98 -25 50 -49 98 -54
106 -6 8 -24 45 -41 81 -30 64 -31 68 -15 95 9 16 26 43 38 59 12 17 51 60 87
96 36 37 100 104 142 150 42 46 94 103 114 127 20 24 40 39 44 35z m906 -233
c3 0 18 -7 34 -15 17 -9 30 -19 30 -23 0 -4 14 -22 30 -40 17 -18 30 -44 30
-57 0 -12 -7 -26 -16 -29 -8 -3 -24 -25 -34 -49 -10 -23 -22 -46 -26 -50 -4
-4 -20 4 -35 19 -23 22 -30 24 -48 15 -19 -11 -21 -9 -21 14 0 14 6 35 13 48
6 12 13 24 14 25 1 2 11 -6 22 -17 20 -20 23 -20 46 -5 14 9 25 24 25 33 0 9
-4 22 -9 30 -7 10 -20 12 -51 7 -38 -6 -42 -5 -35 11 4 10 11 33 17 51 5 17
11 32 14 32z m1844 -141 c3 0 43 -29 90 -64 47 -35 110 -78 140 -96 30 -18 69
-49 85 -69 17 -21 46 -46 65 -56 19 -10 49 -28 65 -40 17 -12 46 -29 65 -37
19 -8 62 -36 95 -63 33 -27 74 -59 92 -71 18 -13 36 -23 41 -23 6 0 20 -14 33
-30 13 -17 46 -45 73 -63 27 -18 59 -39 71 -47 12 -8 41 -29 66 -45 24 -17 71
-57 104 -89 33 -33 84 -70 113 -83 29 -14 60 -35 68 -48 9 -13 52 -55 97 -92
45 -38 109 -89 142 -113 33 -24 97 -76 143 -114 46 -39 102 -86 125 -104 23
-19 60 -48 82 -65 22 -18 49 -41 60 -52 12 -11 46 -41 76 -66 30 -25 73 -58
97 -74 23 -15 42 -32 42 -37 0 -5 -28 -6 -62 -3 -35 3 -83 8 -108 10 -25 2
-88 6 -140 10 -52 4 -315 8 -585 10 -269 2 -508 6 -530 8 -22 3 -71 8 -110 12
-38 4 -74 10 -80 14 -5 5 -30 11 -54 15 -24 4 -125 9 -225 12 -99 2 -208 9
-241 14 -33 6 -88 10 -122 10 -34 0 -68 2 -75 5 -12 5 -12 20 -1 103 7 53 14
104 16 112 2 8 6 22 9 30 3 8 14 69 24 135 9 66 21 147 25 180 4 33 14 131 23
218 8 86 17 161 20 165 3 5 6 30 7 58 1 27 6 56 10 65 4 8 9 83 10 165 1 83 7
179 13 213 6 34 18 66 26 71 8 5 17 9 20 9z m-1649 -49 c5 0 9 -4 9 -8 0 -4
18 -27 40 -50 22 -22 40 -45 40 -50 0 -5 21 -31 48 -58 26 -27 72 -78 102
-114 30 -36 72 -81 93 -101 20 -20 37 -39 37 -42 0 -4 24 -32 53 -63 28 -31
57 -66 64 -77 7 -12 12 -28 13 -34 0 -7 -6 -13 -14 -13 -8 0 -36 -19 -62 -43
-27 -23 -69 -58 -94 -77 -25 -19 -54 -43 -65 -54 -11 -10 -44 -34 -73 -53 -28
-18 -75 -54 -104 -80 -29 -25 -70 -54 -92 -64 -23 -10 -55 -32 -71 -49 -17
-17 -45 -38 -64 -46 -18 -8 -49 -27 -67 -44 -19 -16 -40 -30 -46 -30 -6 0 -25
-15 -43 -32 -17 -18 -51 -46 -76 -63 -24 -16 -72 -55 -106 -87 -34 -32 -66
-58 -72 -58 -6 0 -11 5 -11 10 0 6 7 24 15 40 8 16 21 48 29 72 7 24 17 63 20
88 4 25 20 70 35 100 16 30 34 80 42 110 7 30 35 97 61 148 26 51 48 99 48
107 0 8 7 31 16 52 10 21 29 65 45 98 15 33 31 73 35 88 3 16 20 56 35 88 16
33 29 65 29 73 0 7 12 31 26 52 15 21 40 71 56 109 16 39 34 86 40 105 5 19
12 38 15 43 2 4 8 7 14 7z m-251 -70 c5 0 12 -9 15 -20 3 -11 15 -20 25 -20
10 0 21 -3 23 -7 3 -5 -7 -33 -22 -63 -15 -30 -32 -75 -40 -100 -7 -25 -26
-72 -42 -104 -16 -33 -29 -69 -29 -81 0 -12 -6 -30 -14 -41 -8 -10 -18 -16
-22 -12 -4 4 -2 14 5 22 6 7 18 47 26 87 7 41 18 90 23 109 5 20 14 44 19 55
6 11 14 55 18 98 4 42 11 77 15 77z m1733 0 c5 0 6 -8 3 -17 -3 -10 -6 -79 -7
-153 -1 -74 -8 -170 -15 -214 -8 -43 -12 -82 -9 -86 2 -4 0 -45 -6 -91 -6 -46
-14 -120 -19 -164 -5 -44 -13 -120 -19 -170 -6 -49 -16 -105 -22 -123 -6 -18
-12 -57 -14 -88 -2 -30 -8 -60 -13 -67 -5 -7 -13 -36 -17 -64 -4 -29 -12 -53
-18 -53 -7 0 -63 52 -125 116 -62 64 -132 142 -155 173 -22 30 -64 81 -91 112
-28 32 -69 79 -92 106 -23 26 -78 92 -123 146 -44 53 -81 102 -81 107 0 6 13
13 29 16 16 4 45 21 65 40 20 19 42 34 49 34 8 0 24 11 37 25 13 14 29 25 36
25 7 0 19 9 26 19 8 11 35 29 61 42 26 13 47 27 47 31 0 4 6 8 13 8 7 0 28 15
46 34 18 19 50 42 72 51 25 12 39 25 39 37 0 12 7 18 24 18 14 0 51 14 83 32
32 17 60 34 63 38 3 3 32 23 65 43 33 20 63 37 68 37z m-4768 -10 c8 0 17 -5
21 -11 3 -6 38 -32 77 -57 38 -26 108 -71 156 -101 47 -29 102 -68 122 -86 20
-18 61 -48 90 -67 30 -19 60 -42 68 -51 7 -10 19 -17 26 -17 6 0 20 -9 31 -21
10 -12 37 -30 58 -41 21 -11 60 -35 86 -53 25 -18 68 -44 96 -59 27 -14 55
-26 62 -26 7 0 15 -7 18 -15 4 -8 14 -15 23 -15 9 0 32 -13 50 -28 l33 -28
-26 -31 c-14 -17 -26 -36 -26 -42 0 -6 -7 -11 -15 -11 -8 0 -15 -6 -15 -14 0
-8 -17 -25 -37 -37 -21 -12 -50 -36 -65 -53 -15 -17 -27 -34 -28 -38 0 -3 -98
-105 -217 -225 -120 -121 -225 -228 -234 -239 -9 -10 -43 -43 -75 -72 -33 -29
-67 -59 -76 -67 -9 -7 -27 -19 -40 -26 -13 -7 -73 -14 -140 -16 l-116 -4 -6
28 c-4 16 -3 80 2 143 5 63 8 207 7 320 -1 113 4 268 11 345 7 77 15 154 18
170 3 17 8 93 11 170 4 77 9 160 11 185 2 25 7 74 9 108 3 35 7 68 11 73 3 5
11 9 19 9z m-160 -24 c6 -2 9 -10 7 -17 -2 -8 -5 -43 -8 -79 -2 -36 -9 -139
-14 -230 -6 -91 -13 -212 -16 -270 -3 -57 -7 -108 -10 -111 -2 -4 -6 -58 -9
-121 -2 -62 -9 -127 -14 -144 -5 -17 -6 -64 -3 -105 3 -41 3 -130 1 -199 -2
-69 -4 -155 -4 -191 l0 -66 -450 1 c-247 1 -463 -1 -480 -2 -16 -2 -59 -8 -95
-13 -36 -4 -137 -13 -224 -19 -88 -7 -178 -14 -200 -18 -23 -3 -126 -5 -231
-4 -104 1 -269 6 -365 12 -96 5 -219 15 -273 22 -93 11 -96 12 -81 29 9 10 26
21 37 25 12 4 35 19 51 35 17 16 36 29 41 29 6 0 60 31 120 70 61 38 131 79
156 91 26 11 56 31 68 45 11 13 27 24 36 24 8 0 23 9 33 20 10 11 38 31 63 45
24 14 60 33 79 43 19 10 50 27 67 38 18 10 33 23 33 27 0 4 26 20 58 35 31 15
73 40 93 55 20 15 40 27 45 27 5 0 47 25 92 55 46 30 87 55 91 55 5 0 14 7 21
16 8 8 29 22 48 29 18 8 47 26 64 40 16 14 36 25 43 25 8 0 29 13 47 28 18 16
47 34 65 41 17 7 41 23 54 37 12 13 26 24 30 24 4 0 40 20 80 45 40 25 79 45
86 45 7 0 13 4 13 9 0 5 17 16 38 25 20 9 63 31 95 49 32 18 86 50 120 72 34
21 111 73 171 115 59 41 122 83 140 94 17 10 33 22 34 27 2 5 10 9 17 9 7 0
39 18 71 40 33 22 64 38 69 36z m1820 -66 c5 -1 31 -42 56 -93 26 -51 76 -148
111 -217 36 -69 86 -159 111 -200 26 -40 44 -77 41 -82 -3 -4 -11 -8 -18 -8
-7 0 -21 -9 -30 -19 -11 -13 -15 -27 -11 -40 4 -15 15 -21 35 -21 19 0 33 7
40 20 6 11 15 20 21 20 5 0 14 -12 19 -26 6 -14 24 -45 40 -69 17 -24 30 -46
30 -49 0 -3 23 -45 52 -93 28 -48 63 -104 78 -123 14 -19 32 -53 39 -75 8 -22
19 -47 26 -55 8 -8 17 -27 20 -42 4 -16 3 -28 -2 -28 -5 0 -20 11 -33 25 -13
14 -29 25 -35 25 -6 0 -22 11 -35 25 -13 14 -28 25 -34 25 -6 0 -45 18 -86 38
-41 21 -91 48 -110 60 -19 12 -40 22 -47 22 -7 0 -29 11 -50 25 -21 13 -56 37
-78 53 -22 16 -51 32 -65 35 -14 3 -43 22 -65 40 -22 19 -57 40 -77 48 -21 7
-38 16 -38 20 0 4 -8 9 -17 13 -10 3 -36 17 -58 30 -22 13 -63 36 -92 50 -28
14 -54 26 -58 26 -3 0 -15 9 -27 20 -12 11 -31 20 -42 20 -12 0 -36 13 -54 28
l-33 28 26 29 c15 17 41 46 59 65 18 19 59 67 92 105 32 39 70 82 84 96 14 14
36 41 50 59 14 19 49 59 78 90 28 31 52 61 52 66 0 6 5 15 12 22 7 7 17 12 23
12z m2193 -510 c4 0 29 -21 54 -47 25 -27 69 -77 96 -113 28 -36 58 -73 66
-82 9 -10 16 -22 16 -27 0 -4 33 -44 73 -87 39 -43 92 -100 117 -126 25 -26
62 -67 83 -90 21 -24 69 -81 107 -126 39 -46 70 -87 70 -91 0 -4 -34 -6 -75
-5 -41 1 -112 -2 -157 -7 -46 -5 -114 -11 -153 -13 -38 -3 -108 -9 -155 -15
-47 -6 -134 -11 -195 -10 -60 0 -114 0 -120 -1 -5 -2 -30 -4 -55 -5 -25 -1
-124 -7 -220 -14 -96 -6 -258 -11 -360 -10 -102 1 -211 -1 -242 -5 -48 -5 -58
-4 -58 9 0 8 4 15 8 15 4 0 48 38 97 85 49 47 91 85 95 85 3 0 26 18 50 41 25
23 68 59 97 80 29 21 57 39 63 39 5 0 10 6 10 13 0 6 19 21 43 32 23 11 71 40
107 64 36 24 97 69 135 100 39 31 81 61 95 67 14 6 68 46 120 89 52 42 97 80
100 84 3 3 22 21 43 39 21 17 41 32 45 32z m-2737 -120 c3 0 21 -11 40 -24 19
-14 78 -48 132 -76 54 -28 107 -53 117 -55 11 -2 46 -22 80 -44 34 -23 65 -41
69 -41 4 0 18 -11 31 -25 14 -14 35 -25 50 -25 15 0 36 -10 49 -24 13 -14 37
-30 54 -37 18 -8 59 -32 92 -54 33 -22 76 -50 96 -61 19 -12 64 -31 100 -43
35 -13 82 -37 104 -55 22 -18 65 -48 95 -66 30 -19 72 -47 93 -63 20 -16 37
-32 37 -36 0 -5 -51 -12 -112 -16 -62 -4 -142 -9 -178 -11 -36 -3 -105 -6
-155 -7 -49 -1 -94 -5 -100 -9 -5 -3 -89 -9 -185 -12 -96 -4 -193 -9 -215 -11
-22 -3 -71 -7 -109 -10 -39 -3 -72 -8 -75 -10 -2 -3 -10 0 -17 6 -7 6 -94 10
-231 10 -120 0 -288 -5 -373 -11 -85 -7 -177 -10 -205 -8 l-50 3 152 155 c83
85 184 189 223 230 39 41 104 116 144 165 41 50 91 106 112 125 22 20 59 59
84 88 25 28 48 51 51 52z"/>
<g>
<path d="M5772 9469 c-4 -1 -16 -4 -27 -6 -11 -2 -26 -16 -32 -30 -7 -15 -13
-34 -13 -43 0 -9 8 -24 18 -32 9 -9 30 -18 46 -21 22 -4 35 1 53 19 17 18 22
31 18 47 -4 12 -18 32 -31 45 -14 12 -28 21 -32 21z"/>
</g>
<g>
<path d="M5731 9004 c-87 2 -116 0 -127 -11 -8 -8 -14 -18 -14 -22 0 -4 8 -15
18 -23 10 -9 48 -18 91 -22 41 -4 77 -9 80 -11 2 -3 5 -31 5 -63 1 -52 3 -57
24 -60 13 -2 32 4 42 13 17 15 18 27 13 99 -3 44 -9 85 -13 89 -4 4 -58 9
-119 11z"/>
</g>
<g>
<path d="M6004 8960 c-7 0 -18 -9 -23 -19 -6 -10 -12 -34 -15 -52 -2 -19 -9
-54 -16 -79 -7 -25 -14 -54 -17 -65 -3 -11 -9 -38 -13 -60 -5 -22 -16 -62 -24
-90 -9 -27 -16 -55 -16 -61 0 -6 12 -16 26 -23 14 -6 30 -8 36 -5 5 4 17 22
24 41 8 19 19 53 24 76 4 23 15 67 24 97 9 30 18 90 22 133 4 54 2 82 -6 92
-7 8 -18 15 -26 15z"/>
</g>
<g>
<path d="M5292 8709 c-9 -1 -25 -3 -34 -6 -10 -2 -21 -15 -24 -28 -3 -12 -4
-35 -2 -50 2 -16 15 -37 30 -48 22 -16 33 -18 58 -11 17 5 38 21 47 35 14 23
14 30 2 57 -7 17 -24 36 -37 41 -12 6 -31 10 -40 10z"/>
</g>
<g>
<path d="M6681 9100 c-10 5 -26 3 -41 -6 -14 -7 -39 -13 -56 -14 -17 0 -37 -6
-43 -14 -7 -8 -26 -18 -42 -21 -16 -4 -36 -16 -44 -28 -8 -12 -15 -32 -15 -45
0 -12 7 -25 16 -29 8 -3 43 6 77 20 34 14 80 31 103 36 22 6 51 22 64 36 19
21 21 27 10 40 -7 9 -21 20 -29 25z"/>
</g>
<g>
<path d="M6711 8749 c-14 0 -48 -7 -76 -16 -27 -8 -56 -20 -63 -26 -7 -5 -12
-22 -10 -36 2 -18 12 -29 31 -35 20 -7 34 -7 48 2 11 7 23 10 28 8 4 -3 11
-39 14 -81 4 -41 14 -91 22 -111 8 -20 15 -61 15 -91 0 -30 5 -87 11 -126 6
-40 16 -78 21 -84 6 -7 19 -13 30 -13 10 0 21 7 24 15 3 8 -1 78 -10 157 -9
79 -23 165 -31 192 -8 27 -15 83 -15 125 0 42 -3 86 -6 99 -5 16 -13 22 -33
21z"/>
</g>
<g>
<path d="M7066 8179 c-1 0 -17 -6 -36 -13 -28 -10 -36 -19 -38 -42 -1 -16 7
-44 18 -61 15 -25 27 -33 49 -33 22 0 37 10 59 36 26 31 29 40 20 64 -6 18
-21 32 -40 39 -17 6 -31 11 -32 10z"/>
</g>
<g>
<path d="M6545 8010 c-25 0 -38 -6 -49 -22 -7 -13 -16 -35 -20 -49 -4 -19 0
-34 13 -50 13 -16 29 -23 55 -23 24 0 41 6 51 20 8 10 15 33 15 49 0 17 -7 41
-16 53 -10 15 -25 22 -49 22z"/>
</g>
<g>
<path d="M5213 7900 c-10 0 -49 -29 -87 -63 -56 -51 -67 -67 -62 -84 4 -12 14
-24 22 -27 9 -4 34 12 65 41 28 26 57 62 65 81 8 19 14 38 14 43 0 5 -8 9 -17
9z"/>
</g>
<g>
<path d="M5255 7740 c-7 0 -15 -9 -18 -20 -3 -11 -21 -29 -41 -41 -21 -12 -36
-29 -36 -40 0 -10 26 -43 57 -74 31 -30 65 -55 75 -55 11 0 20 10 24 26 5 20
0 32 -26 59 l-33 34 22 27 c11 15 21 37 21 49 0 13 -7 26 -16 29 -9 3 -21 6
-29 6z"/>
</g>
<g>
<path d="M5558 7590 c-10 0 -27 -9 -38 -20 -12 -12 -20 -33 -20 -55 0 -26 6
-39 25 -51 18 -12 31 -14 52 -7 16 6 30 20 36 37 7 21 4 34 -15 61 -12 19 -31
35 -40 35z"/>
</g>
<g>
<path d="M5159 7440 c-18 0 -32 -7 -39 -19 -5 -11 -10 -33 -10 -48 0 -16 5
-34 12 -41 7 -7 24 -12 39 -12 21 0 30 7 40 33 8 17 14 37 15 42 0 6 -6 18
-14 28 -8 9 -28 17 -43 17z"/>
</g>
<g>
<path d="M4750 7619 c-3 -1 -21 -4 -40 -8 -34 -6 -35 -7 -35 -51 0 -39 3 -46
28 -58 16 -8 39 -11 51 -8 12 3 27 16 33 28 6 13 7 30 4 38 -3 8 -13 25 -21
38 -8 12 -17 21 -20 21z"/>
</g>
<g>
<path d="M4348 7478 c-11 2 -25 -9 -38 -30 -11 -18 -20 -37 -20 -41 0 -5 -8
-25 -17 -45 -9 -21 -23 -45 -31 -54 -8 -10 -13 -18 -10 -18 3 0 2 -19 -2 -42
-5 -23 -6 -47 -3 -54 2 -7 11 -15 19 -18 8 -3 21 -3 28 0 8 3 20 30 27 60 7
30 15 54 19 54 3 0 16 24 29 54 14 33 21 69 19 93 -2 26 -8 39 -20 41z"/>
</g>
<g>
<path d="M4480 7450 c-13 7 -22 4 -35 -10 -14 -15 -16 -29 -10 -72 4 -29 11
-61 17 -70 5 -10 15 -18 23 -18 9 0 23 4 33 9 9 4 43 20 75 35 39 17 57 32 57
44 0 10 -5 23 -12 30 -7 7 -20 12 -30 12 -9 0 -21 -6 -25 -14 -4 -8 -17 -16
-28 -18 -13 -2 -21 3 -23 17 -2 11 -9 26 -15 33 -6 7 -18 17 -27 22z"/>
</g>
<g>
<path d="M4708 7280 c-19 0 -38 -3 -41 -7 -4 -3 -7 -23 -7 -44 0 -28 6 -42 22
-53 12 -9 30 -16 39 -16 10 0 27 12 38 26 12 15 21 34 21 44 0 9 -8 24 -18 33
-10 10 -34 17 -54 17z"/>
</g>
<g>
<path d="M7125 7690 c-12 0 -26 -7 -29 -16 -3 -9 -6 -22 -6 -30 0 -8 23 -48
51 -89 30 -44 58 -75 68 -75 9 0 22 5 29 12 7 7 12 20 12 29 0 9 -20 41 -44
71 -23 29 -46 63 -50 76 -5 14 -15 22 -31 22z"/>
</g>
<g>
<path d="M6915 7620 c-7 0 -20 -18 -28 -39 -9 -22 -21 -42 -27 -46 -6 -3 -17
-22 -25 -42 -11 -25 -12 -40 -5 -54 6 -10 19 -19 29 -19 10 0 26 9 37 21 10
12 18 24 18 28 -1 3 5 15 12 26 12 17 17 18 49 6 28 -10 39 -10 50 -1 8 7 15
22 15 34 0 16 -15 30 -56 54 -31 18 -62 32 -69 32z"/>
</g>
<g>
<path d="M6652 7520 c-7 0 -21 -9 -32 -20 -11 -11 -22 -31 -26 -44 -3 -15 0
-32 8 -43 7 -10 27 -19 45 -21 23 -2 34 2 42 17 6 11 11 33 11 49 0 16 -8 36
-18 45 -10 10 -24 17 -30 17z"/>
</g>
<g>
<path d="M6892 7300 c-10 0 -29 -11 -41 -24 -15 -16 -21 -33 -19 -52 2 -19 13
-34 35 -47 l33 -19 25 28 c14 15 25 38 25 50 0 13 -9 33 -20 44 -11 11 -28 20
-38 20z"/>
</g>
<g>
<path d="M7557 7360 c-8 0 -22 -9 -32 -20 -14 -16 -16 -26 -9 -51 7 -25 15
-32 39 -35 17 -2 37 4 47 13 10 9 18 26 18 38 0 13 -11 30 -25 39 -13 9 -31
16 -38 16z"/>
</g>
<g>
<path d="M7583 7157 c-15 3 -25 -1 -32 -16 -9 -17 -8 -24 9 -41 11 -11 27 -20
35 -20 8 0 20 -10 26 -22 7 -13 12 -25 10 -28 -1 -3 1 -17 4 -32 4 -14 13 -29
20 -32 8 -3 21 2 30 10 10 11 15 35 15 80 0 43 -4 66 -12 68 -7 2 -29 9 -48
15 -19 7 -45 15 -57 18z"/>
</g>
<g>
<path d="M7443 7120 c-7 0 -22 -9 -33 -20 -11 -11 -20 -33 -20 -49 0 -16 3
-36 6 -45 4 -12 20 -16 54 -16 28 0 52 5 56 12 5 7 7 25 6 41 -2 16 -14 38
-30 52 -15 14 -33 25 -39 25z"/>
</g>
<g>
<path d="M7802 6939 c-10 5 -23 7 -29 3 -6 -4 -14 -25 -18 -47 -4 -22 -11 -44
-15 -50 -4 -5 -11 -28 -14 -50 -4 -22 -8 -56 -9 -75 -2 -31 1 -35 23 -35 23 0
27 7 52 105 15 58 27 113 27 122 1 10 -7 22 -17 27z"/>
</g>
<g>
<path d="M5811 7130 c-25 0 -29 -4 -34 -32 -3 -21 2 -47 14 -70 11 -21 19 -48
19 -61 0 -12 4 -27 10 -33 5 -5 19 -36 30 -69 12 -33 26 -75 32 -93 10 -29 15
-33 42 -30 25 2 32 8 34 30 2 15 -5 42 -14 60 -9 18 -28 67 -40 108 -13 41
-24 87 -24 102 0 15 -5 30 -11 33 -5 4 -14 18 -19 31 -7 18 -17 24 -39 24z"/>
</g>
<g>
<path d="M5247 7020 c-6 0 -24 -10 -39 -21 -19 -14 -28 -30 -28 -48 0 -15 9
-37 20 -49 12 -12 26 -22 33 -22 7 0 20 7 29 14 10 7 21 27 24 44 4 22 1 40
-10 57 -9 14 -22 25 -29 25z"/>
</g>
<g>
<path d="M5581 6990 c-11 0 -30 -14 -43 -30 -13 -17 -47 -54 -75 -84 -37 -36
-53 -61 -53 -79 0 -14 5 -29 10 -32 6 -3 18 -3 28 0 9 3 40 33 67 65 28 33 54
59 58 60 5 0 21 -9 36 -19 15 -11 38 -22 52 -26 20 -5 27 -1 36 17 8 18 7 28
-2 41 -7 9 -17 17 -23 17 -5 0 -24 16 -41 35 -17 19 -39 35 -50 35z"/>
</g>
<g>
<path d="M5355 6650 c-13 0 -31 -10 -39 -22 -9 -12 -16 -28 -16 -34 0 -6 9
-23 21 -38 11 -14 28 -26 38 -26 10 0 25 8 34 18 10 10 17 30 17 45 0 14 -7
33 -16 41 -8 9 -26 16 -39 16z"/>
</g>
<g>
<path d="M6438 7040 c-11 0 -33 -14 -48 -30 -20 -21 -26 -37 -23 -53 3 -12 15
-30 27 -39 11 -10 29 -18 38 -18 9 0 29 12 45 26 l27 25 -23 45 c-16 29 -30
44 -43 44z"/>
</g>
<g>
<path d="M6647 6829 c-6 0 -18 -3 -24 -6 -7 -2 -13 -15 -13 -27 0 -12 9 -53
20 -91 l19 -70 -27 -20 c-14 -11 -35 -25 -47 -30 -13 -7 -20 -20 -20 -40 0
-24 5 -31 23 -33 13 -2 39 6 58 17 19 12 43 21 52 21 9 0 26 7 36 15 19 14 19
17 4 67 -9 29 -20 69 -23 88 -4 19 -16 52 -26 73 -11 20 -25 37 -32 36z"/>
</g>
<g>
<path d="M6890 6800 c-15 0 -36 -10 -48 -23 -12 -13 -22 -31 -22 -40 0 -9 9
-26 20 -37 11 -11 30 -20 43 -20 13 0 33 10 44 23 11 12 24 32 27 44 5 15 1
26 -16 37 -12 9 -34 16 -48 16z"/>
</g>
<g>
<path d="M6541 6421 c-83 15 -148 22 -161 17 -11 -4 -23 -15 -27 -24 -3 -8 2
-23 10 -32 11 -10 39 -17 79 -19 35 -2 88 -10 119 -18 31 -8 89 -15 129 -15
39 0 80 5 91 10 10 6 19 19 19 30 0 11 -11 27 -25 36 -20 13 -29 14 -59 3 -31
-11 -54 -10 -175 12z"/>
</g>
<g>
<path d="M4795 6924 c-37 6 -41 4 -52 -21 -7 -15 -13 -37 -13 -49 0 -16 9 -25
31 -33 21 -7 37 -7 50 -1 10 6 23 19 29 30 5 10 10 28 10 39 0 11 -3 22 -7 24
-5 3 -26 8 -48 11z"/>
</g>
<g>
<path d="M4528 6780 c-14 0 -28 -3 -31 -7 -4 -3 -7 -18 -7 -33 0 -15 10 -36
23 -48 13 -12 33 -22 45 -22 11 0 23 4 26 9 3 5 32 12 63 17 32 4 61 7 66 6 4
-1 7 14 7 33 0 22 -5 35 -13 35 -8 0 -40 -5 -72 -12 -51 -10 -59 -9 -70 5 -7
10 -23 17 -37 17z"/>
</g>
<g>
<path d="M4304 6750 c-14 0 -25 -8 -29 -20 -4 -13 2 -30 17 -50 13 -16 30 -28
38 -27 8 1 17 13 18 26 2 13 -2 35 -9 47 -7 15 -21 24 -35 24z"/>
</g>
<g>
<path d="M4840 6740 c-4 0 -14 -8 -23 -18 -10 -10 -17 -29 -17 -41 0 -12 11
-33 25 -46 13 -14 31 -25 38 -25 8 0 18 7 21 16 3 9 6 24 6 35 0 11 -10 33
-22 49 -12 17 -25 30 -28 30z"/>
</g>
<g>
<path d="M7349 6538 c-8 1 -26 -8 -41 -20 -15 -13 -28 -32 -29 -43 -2 -11 0
-30 4 -41 7 -20 11 -21 47 -12 35 9 40 15 46 46 4 19 2 42 -3 51 -6 9 -16 17
-24 19z"/>
</g>
<g>
<path d="M7480 6427 c-8 1 -33 -7 -56 -18 -23 -11 -51 -29 -63 -40 -11 -11
-21 -27 -21 -37 0 -14 -11 -17 -61 -18 -40 -1 -64 -6 -70 -15 -5 -9 -3 -19 5
-28 9 -9 39 -13 90 -13 41 0 80 3 85 7 6 3 22 -2 36 -11 20 -13 28 -14 40 -4
8 7 15 19 15 28 0 9 -9 26 -21 38 l-20 22 31 22 c21 15 30 29 28 43 -2 12 -10
23 -18 24z"/>
</g>
<g>
<path d="M7662 6389 c-4 -1 -14 -3 -23 -6 -9 -2 -21 -15 -28 -29 -6 -14 -11
-31 -11 -38 0 -7 8 -20 18 -29 10 -10 27 -17 38 -17 11 0 28 6 38 13 17 13 17
15 -3 60 -12 26 -25 46 -29 46z"/>
</g>
<g>
<path d="M4550 6396 c-8 1 -23 0 -33 -3 -11 -3 -28 -14 -40 -26 l-20 -20 31
-28 c25 -22 37 -27 54 -20 12 4 27 15 32 24 7 11 7 25 0 44 -5 15 -16 28 -24
29z"/>
</g>
<g>
<path d="M4851 6340 c-15 0 -31 -8 -38 -19 -10 -16 -9 -24 8 -45 11 -14 30
-26 42 -26 14 0 27 10 34 27 11 22 10 29 -4 45 -9 10 -28 18 -42 18z"/>
</g>
<g>
<path d="M4681 6330 c-4 0 -12 -5 -19 -12 -7 -7 -8 -17 -1 -30 5 -10 9 -24 8
-31 -1 -6 -1 -17 0 -23 0 -6 14 -17 30 -24 17 -6 35 -9 40 -5 6 3 11 21 11 40
0 25 -8 40 -31 59 -17 14 -34 26 -38 26z"/>
</g>
<g>
<path d="M3249 5730 c-24 0 -35 -10 -66 -58 -21 -31 -45 -71 -53 -87 -8 -17
-20 -34 -26 -40 -6 -5 -21 -35 -34 -65 -12 -30 -41 -82 -64 -115 -22 -33 -45
-67 -51 -76 -5 -9 -41 -54 -78 -100 -55 -68 -67 -90 -65 -114 2 -24 8 -31 28
-32 14 -2 34 5 46 15 11 9 32 38 47 63 15 25 36 54 47 64 11 10 20 23 20 30 0
7 9 20 20 30 11 10 20 23 20 30 0 7 9 20 20 30 20 18 20 17 20 -11 0 -17 -4
-34 -10 -40 -5 -5 -6 -22 -1 -39 7 -28 11 -30 57 -31 27 0 68 -4 91 -8 40 -8
42 -7 49 19 4 16 2 35 -3 44 -7 10 -25 16 -51 16 -22 0 -44 4 -48 8 -4 4 -7
27 -5 51 2 37 -1 45 -18 51 -12 3 -21 15 -21 25 0 10 5 22 10 25 6 3 10 14 10
23 0 10 15 40 33 68 17 28 37 59 44 70 7 10 26 42 42 71 17 29 28 59 25 68 -4
9 -18 15 -35 15z"/>
</g>
<g>
<path d="M3412 5390 c-10 0 -28 -7 -40 -16 -15 -10 -22 -25 -22 -48 0 -19 6
-38 13 -44 6 -5 22 -13 35 -16 14 -5 27 -2 38 8 8 9 18 31 21 49 3 24 0 39
-12 50 -9 9 -24 17 -33 17z"/>
</g>
<g>
<path d="M3211 5090 c-9 0 -27 -7 -39 -16 -12 -8 -22 -25 -22 -38 0 -13 9 -31
20 -41 11 -10 20 -24 20 -32 0 -7 6 -13 14 -13 7 0 24 11 38 24 20 18 25 30
21 52 -3 16 -12 37 -21 47 -8 9 -22 17 -31 17z"/>
</g>
<g>
<path d="M4504 5868 c-22 2 -43 0 -47 -4 -4 -4 -7 -19 -7 -34 0 -15 9 -35 19
-44 11 -10 29 -16 41 -14 12 2 29 15 38 31 13 21 14 31 6 45 -7 10 -26 18 -50
20z"/>
</g>
<g>
<path d="M4726 5613 c-10 4 -22 -2 -32 -18 -12 -19 -13 -28 -3 -46 10 -20 9
-25 -10 -40 -16 -14 -28 -16 -46 -9 -12 5 -26 6 -29 3 -3 -4 -6 -19 -6 -35 0
-15 4 -28 9 -28 4 0 28 -27 52 -60 24 -33 48 -59 54 -57 5 2 11 22 13 45 2 29
8 42 18 42 8 0 19 11 25 24 8 17 8 29 0 44 -6 11 -11 34 -11 51 0 16 -4 41 -9
54 -5 13 -17 27 -25 30z"/>
</g>
<g>
<path d="M4930 5530 c-9 0 -25 -9 -34 -19 -10 -11 -16 -31 -14 -48 3 -24 8
-28 40 -31 30 -3 40 1 54 23 16 25 16 27 -6 50 -13 14 -31 25 -40 25z"/>
</g>
<g>
<path d="M4910 5906 c-19 3 -38 2 -42 -2 -5 -4 -8 -13 -8 -21 0 -7 18 -31 41
-53 34 -33 44 -38 60 -29 10 5 19 20 19 33 0 13 -8 33 -17 45 -10 12 -34 24
-53 27z"/>
</g>
<g>
<path d="M5037 5898 c-9 2 -20 -4 -23 -13 -4 -9 -4 -48 -1 -87 3 -38 11 -76
18 -84 6 -8 16 -14 21 -14 5 0 7 43 6 97 -3 84 -5 98 -21 101z"/>
</g>
<g>
<path d="M5377 6240 c-20 0 -28 -6 -33 -26 -4 -14 -2 -37 5 -50 6 -14 18 -27
26 -30 8 -4 26 -3 40 0 20 5 25 13 25 40 0 19 -8 40 -18 49 -10 10 -31 17 -45
17z"/>
</g>
<g>
<path d="M5815 6170 c-7 0 -24 -9 -39 -21 -15 -12 -26 -30 -26 -44 0 -13 10
-31 22 -39 12 -9 32 -16 43 -16 12 0 31 9 43 20 12 12 22 27 22 34 0 7 -12 25
-26 40 -15 14 -32 26 -39 26z"/>
</g>
<g>
<path d="M5605 6156 c-5 2 -15 0 -21 -4 -7 -4 -22 -26 -34 -49 -12 -24 -26
-43 -32 -43 -5 0 -8 -14 -6 -31 2 -26 10 -33 43 -46 22 -8 50 -17 61 -20 15
-3 27 2 37 17 15 22 14 24 -16 45 -18 12 -30 28 -28 36 3 8 5 32 5 53 1 22 -3
41 -9 42z"/>
</g>
<g>
<path d="M5492 5957 c-27 4 -42 1 -51 -11 -12 -14 -11 -19 4 -36 10 -11 25
-20 34 -20 9 0 25 -6 36 -13 11 -8 38 -19 60 -25 22 -6 60 -18 84 -27 25 -9
55 -14 68 -10 14 3 23 13 23 25 0 12 -13 28 -32 40 -18 11 -42 20 -53 20 -12
0 -26 5 -32 11 -6 6 -25 12 -42 14 -17 1 -37 8 -45 14 -8 7 -32 15 -54 18z"/>
</g>
<g>
<path d="M4143 5747 c-6 2 -23 -9 -37 -24 -15 -16 -26 -40 -26 -55 0 -19 5
-28 15 -28 9 0 25 9 36 19 12 11 22 33 22 52 1 17 -3 34 -10 36z"/>
</g>
<g>
<path d="M4205 5568 c-17 1 -40 -5 -53 -14 -16 -11 -22 -24 -20 -42 2 -22 9
-28 33 -30 21 -2 43 -17 70 -47 34 -37 43 -42 63 -34 12 4 25 16 29 25 4 12
-4 25 -27 44 -18 15 -40 42 -49 61 -12 26 -23 35 -46 37z"/>
</g>
<g>
<path d="M4450 5323 c-13 3 -24 -1 -30 -13 -6 -10 -10 -23 -10 -29 0 -5 7 -17
16 -25 8 -9 24 -16 35 -16 12 0 21 9 25 25 3 14 1 31 -5 39 -7 8 -21 16 -31
19z"/>
</g>
<g>
<path d="M4295 5288 c-11 1 -26 -3 -33 -10 -6 -6 -12 -19 -12 -28 0 -9 5 -21
12 -28 7 -7 23 -12 36 -12 21 0 23 4 20 38 -2 28 -8 38 -23 40z"/>
</g>
<g>
<path d="M3784 5640 c-6 0 -16 -6 -22 -12 -5 -7 -12 -22 -16 -34 -4 -13 -1
-26 9 -34 8 -7 15 -20 16 -29 0 -13 2 -14 6 -1 4 8 14 21 25 28 10 7 18 23 18
36 0 12 -5 27 -12 34 -7 7 -17 12 -24 12z"/>
</g>
<g>
<path d="M3820 5450 c-12 0 -25 -10 -32 -26 -11 -23 -10 -28 9 -43 11 -9 29
-21 39 -27 17 -10 17 -13 -5 -64 -22 -51 -22 -54 -5 -67 10 -7 23 -13 29 -13
7 0 20 18 30 40 10 22 26 47 36 56 11 10 19 29 19 43 0 19 -10 32 -35 49 -19
12 -39 22 -44 22 -5 0 -11 7 -15 15 -3 8 -15 15 -26 15z"/>
</g>
<g>
<path d="M6537 6079 c-46 8 -49 7 -59 -18 -6 -15 -6 -32 -1 -40 6 -10 33 -16
84 -18 41 -1 96 -5 122 -8 26 -2 54 -2 62 2 8 3 15 16 15 29 0 17 -8 27 -26
34 -14 6 -53 10 -87 11 -34 0 -84 4 -110 8z"/>
</g>
<g>
<path d="M6570 5966 c-9 2 -21 -1 -28 -8 -7 -7 -12 -18 -12 -25 0 -7 13 -19
30 -28 16 -8 36 -15 45 -15 8 0 15 -3 15 -7 0 -5 -4 -24 -9 -44 -5 -21 -6 -41
-2 -47 3 -5 16 -12 28 -16 16 -5 23 -2 26 11 3 10 8 34 11 53 3 19 8 45 11 58
2 13 2 29 -1 36 -3 8 -26 17 -52 21 -26 3 -54 8 -62 11z"/>
</g>
<g>
<path d="M6774 5855 c-6 3 -23 -4 -37 -15 -15 -12 -27 -31 -27 -44 0 -12 5
-27 12 -34 7 -7 27 -12 45 -12 27 0 35 5 43 26 6 14 10 33 10 43 0 10 -8 21
-17 25 -10 3 -23 8 -29 11z"/>
</g>
<g>
<path d="M6455 5795 c-14 17 -25 24 -25 16 0 -7 -11 -22 -25 -33 -14 -11 -25
-26 -25 -33 0 -8 10 -23 22 -35 12 -11 27 -20 34 -20 7 0 20 7 28 16 9 8 16
25 16 37 -1 12 -12 36 -25 52z"/>
</g>
<g>
<path d="M7306 6075 c-57 12 -57 11 -77 -17 -11 -15 -23 -43 -26 -62 -5 -31
-3 -36 20 -41 18 -5 31 0 51 20 21 21 33 25 52 21 14 -4 32 -2 39 4 8 7 11 20
6 37 -6 23 -15 28 -65 38z"/>
</g>
<g>
<path d="M7558 6078 c-9 2 -23 -7 -32 -20 -9 -12 -16 -35 -16 -50 0 -24 4 -28
28 -28 17 0 37 9 48 21 17 19 17 23 3 47 -8 15 -22 28 -31 30z"/>
</g>
<g>
<path d="M7136 6030 c-12 0 -26 -3 -29 -7 -4 -3 -7 -31 -7 -62 0 -31 6 -67 13
-81 7 -14 19 -25 27 -25 11 0 18 20 26 72 6 42 7 78 2 87 -5 9 -19 16 -32 16z"/>
</g>
<g>
<path d="M7394 5968 c-12 2 -29 -4 -38 -13 -9 -9 -16 -27 -16 -39 0 -14 9 -27
24 -34 19 -8 27 -8 36 3 7 8 13 29 13 47 2 27 -2 34 -19 36z"/>
</g>
<g>
<path d="M8102 5348 c-9 5 -25 7 -34 5 -10 -3 -21 -15 -24 -28 -3 -13 -3 -32
0 -43 4 -11 18 -23 32 -26 14 -4 30 -4 35 0 6 3 14 16 19 28 4 11 4 29 -1 38
-5 10 -17 21 -27 26z"/>
</g>
<g>
<path d="M8101 5099 c-9 0 -36 -15 -60 -31 -37 -26 -47 -29 -63 -19 -11 7 -28
9 -39 6 -13 -4 -19 -15 -19 -34 0 -18 11 -38 33 -59 20 -19 43 -32 59 -32 20
0 27 6 31 29 5 23 16 34 52 50 35 15 45 25 45 43 0 13 -5 29 -12 36 -7 7 -19
12 -27 11z"/>
</g>
<g>
<path d="M8226 4969 c-6 -1 -19 -3 -28 -6 -9 -2 -20 -12 -23 -22 -3 -10 -3
-25 0 -33 3 -8 19 -22 36 -32 29 -17 31 -17 44 1 8 10 15 24 15 31 0 7 -7 24
-16 37 -9 14 -21 24 -28 24z"/>
</g>
<g>
<path d="M7912 4880 c-49 56 -61 65 -82 60 -17 -4 -26 -14 -28 -30 -2 -20 11
-38 67 -88 38 -34 77 -62 85 -62 11 0 16 9 16 28 0 19 -18 47 -58 92z"/>
</g>
<g>
<path d="M7628 5436 c-8 1 -23 -5 -33 -12 -15 -11 -17 -19 -9 -42 7 -20 17
-28 40 -30 27 -3 32 1 36 22 3 14 0 34 -7 43 -7 9 -19 17 -27 19z"/>
</g>
<g>
<path d="M7759 5368 c-14 2 -28 0 -32 -4 -4 -4 -7 -15 -7 -25 0 -9 8 -27 18
-38 l17 -22 22 21 c17 15 20 25 14 43 -5 13 -18 23 -32 25z"/>
</g>
<g>
<path d="M7635 5297 c-13 2 -45 -21 -88 -61 -53 -48 -68 -68 -65 -86 2 -14 16
-30 37 -41 22 -12 40 -15 55 -10 17 7 21 17 21 49 0 33 7 48 33 75 20 21 32
43 30 53 -2 11 -12 20 -23 21z"/>
</g>
<g>
<path d="M7391 5080 c-6 0 -15 -9 -21 -19 -5 -11 -10 -25 -10 -31 0 -6 17 -18
38 -26 20 -8 46 -19 57 -24 11 -5 30 -11 42 -15 12 -3 31 0 42 7 19 11 19 13
3 40 -10 18 -25 28 -40 28 -12 0 -40 9 -62 20 -22 11 -44 20 -49 20z"/>
</g>
<g>
<path d="M7341 5688 c-15 -1 -33 -4 -40 -6 -6 -2 -11 -17 -11 -32 0 -16 3 -31
8 -33 4 -2 22 0 40 5 27 7 32 13 32 38 0 27 -3 30 -29 28z"/>
</g>
<g>
<path d="M7152 5640 c-21 0 -42 -3 -45 -7 -4 -3 -7 -14 -7 -24 0 -9 11 -24 25
-33 13 -9 30 -16 38 -16 7 0 22 6 32 14 17 12 18 18 7 40 -10 21 -18 26 -50
26z"/>
</g>
<g>
<path d="M7061 5530 c-30 0 -40 -5 -49 -24 -8 -18 -7 -28 3 -43 13 -16 16 -17
41 -3 15 8 31 27 35 43 7 26 6 27 -30 27z"/>
</g>
<g>
<path d="M5374 5720 c-8 0 -17 -6 -20 -14 -3 -8 -4 -23 -2 -33 2 -10 12 -19
23 -21 11 -1 26 2 34 7 12 8 12 13 -3 35 -9 14 -23 26 -32 26z"/>
</g>
<g>
<path d="M5526 5650 c-13 0 -34 -8 -46 -18 -19 -16 -21 -22 -11 -40 6 -12 20
-22 31 -22 10 0 20 6 22 12 3 8 12 1 22 -15 11 -16 27 -27 40 -27 12 0 27 5
32 10 8 8 19 7 37 -1 15 -7 34 -23 42 -36 9 -12 23 -23 33 -23 9 0 23 4 30 8
7 5 10 16 6 25 -3 9 -12 17 -18 17 -7 0 -25 14 -41 30 -16 17 -37 30 -46 30
-10 0 -21 -5 -24 -10 -4 -7 -23 4 -46 25 -22 19 -50 35 -63 35z"/>
</g>
<g>
<path d="M5440 5530 c-12 0 -21 -10 -25 -30 -4 -19 -2 -37 6 -46 7 -8 22 -14
33 -12 15 2 22 12 24 31 2 16 -2 35 -9 43 -6 8 -20 14 -29 14z"/>
</g>
<g>
<path d="M8635 5120 c-12 0 -28 -12 -38 -30 -16 -26 -16 -34 -5 -57 7 -15 25
-32 40 -37 18 -7 35 -6 53 2 18 8 25 19 25 39 0 16 -11 39 -27 55 -15 15 -36
28 -48 28z"/>
</g>
<g>
<path d="M8765 4720 c-7 0 -20 -11 -29 -25 -9 -13 -16 -28 -16 -33 0 -5 -7
-15 -15 -22 -13 -10 -19 -10 -33 4 -10 9 -28 16 -39 16 -11 0 -28 -9 -37 -19
-15 -16 -15 -22 -4 -40 7 -12 17 -21 22 -21 6 0 26 -15 46 -34 27 -27 41 -33
62 -29 19 4 29 13 33 34 4 15 14 38 24 51 10 13 21 37 25 54 5 23 2 36 -9 48
-9 9 -22 16 -30 16z"/>
</g>
<g>
<path d="M8519 4606 c-25 8 -38 8 -44 0 -6 -6 -9 -21 -7 -32 2 -12 16 -33 33
-48 16 -14 29 -31 29 -36 0 -6 8 -19 18 -29 9 -11 25 -31 35 -45 10 -14 26
-26 37 -26 10 0 22 5 26 11 3 6 -2 29 -12 52 -10 23 -32 65 -50 92 -22 37 -40
54 -65 61z"/>
</g>
<g>
<path d="M8942 4469 c-4 0 -20 -16 -36 -35 l-29 -35 23 -24 c18 -19 34 -25 66
-25 31 0 46 5 53 18 6 11 5 28 -4 50 -8 18 -25 36 -40 42 -15 6 -29 10 -33 9z"/>
</g>
<g>
<path d="M6559 5480 c-9 0 -20 -7 -23 -15 -3 -9 0 -24 6 -35 7 -11 24 -24 38
-29 14 -5 37 -12 51 -15 21 -5 28 -2 32 15 3 12 3 27 0 35 -3 8 -15 14 -27 14
-12 0 -31 7 -42 15 -10 8 -26 15 -35 15z"/>
</g>
<g>
<path d="M6730 5440 c-3 0 -11 -9 -17 -20 -7 -10 -10 -26 -7 -34 3 -7 15 -16
28 -18 12 -3 27 -3 33 -1 6 2 9 14 6 26 -3 12 -13 28 -21 35 -9 6 -18 12 -22
12z"/>
</g>
<g>
<path d="M7256 5369 l-24 22 -15 -22 c-12 -16 -13 -27 -6 -41 5 -10 16 -18 23
-18 7 0 20 8 29 18 16 17 15 20 -7 41z"/>
</g>
<g>
<path d="M7140 5278 c-14 2 -29 0 -33 -4 -4 -4 -7 -17 -7 -29 0 -12 8 -29 18
-39 18 -15 20 -15 36 3 10 11 16 30 14 43 -2 16 -11 24 -28 26z"/>
</g>
<g>
<path d="M6308 5341 c-18 5 -31 3 -38 -6 -6 -8 -10 -26 -8 -42 2 -20 9 -29 26
-31 13 -2 30 2 38 9 8 7 14 24 12 37 -2 18 -11 28 -30 33z"/>
</g>
<g>
<path d="M6473 5260 c-7 0 -18 -11 -25 -25 -8 -18 -8 -28 1 -39 6 -7 22 -16
36 -18 19 -4 25 0 30 20 4 16 0 31 -11 43 -9 11 -23 19 -31 19z"/>
</g>
<g>
<path d="M6351 5240 c-3 0 -21 -13 -39 -28 -18 -15 -32 -35 -32 -46 0 -10 9
-34 21 -52 14 -23 28 -34 45 -34 17 0 25 7 28 23 2 12 5 33 5 47 0 14 1 33 1
43 1 10 -4 25 -11 33 -6 8 -14 14 -18 14z"/>
</g>
<g>
<path d="M6239 5120 c-5 0 -15 -11 -21 -25 -10 -22 -8 -29 12 -50 13 -14 30
-25 38 -25 11 0 13 8 9 36 -3 20 -11 42 -18 50 -6 8 -15 14 -20 14z"/>
</g>
<g>
<path d="M5990 5370 c-4 0 -14 -8 -23 -18 -10 -10 -17 -21 -17 -25 0 -3 7 -13
16 -21 8 -9 24 -16 34 -16 11 0 20 10 25 27 5 20 2 31 -11 40 -10 7 -21 13
-24 13z"/>
</g>
<g>
<path d="M5770 5260 c-17 0 -33 -6 -36 -14 -3 -8 -4 -22 -2 -32 1 -9 10 -21
19 -27 9 -6 24 -7 33 -4 11 4 16 18 16 42 0 32 -2 35 -30 35z"/>
</g>
<g>
<path d="M5934 5250 c-13 0 -28 -9 -34 -20 -8 -15 -6 -23 8 -37 10 -10 27 -23
37 -28 17 -11 17 -12 0 -38 -13 -21 -15 -30 -6 -41 7 -8 21 -12 31 -9 11 3 35
23 55 44 21 23 32 45 29 54 -4 8 -12 15 -18 15 -7 0 -28 14 -46 30 -18 17 -44
30 -56 30z"/>
</g>
<g>
<path d="M6026 5060 c-2 0 -15 -9 -29 -20 -14 -11 -32 -20 -39 -20 -8 0 -17
-3 -21 -6 -3 -4 1 -17 10 -30 8 -13 22 -24 31 -24 8 0 30 11 49 26 18 14 33
33 33 43 0 11 -7 22 -16 25 -9 3 -17 6 -18 6z"/>
</g>
<g>
<path d="M5526 5119 c-6 0 -17 -3 -23 -6 -7 -2 -13 -15 -13 -27 0 -12 5 -27
12 -34 7 -7 18 -12 25 -12 7 0 18 11 25 25 8 19 8 28 -2 40 -7 8 -18 15 -24
14z"/>
</g>
<g>
<path d="M5628 4980 c-2 0 -11 -5 -20 -11 -10 -5 -18 -16 -18 -23 0 -7 9 -21
20 -31 11 -10 20 -30 20 -45 0 -14 7 -35 15 -46 15 -19 15 -19 35 4 11 13 24
40 29 59 6 20 8 40 5 45 -3 4 -23 17 -44 28 -22 11 -41 20 -42 20z"/>
</g>
<g>
<path d="M5494 4960 c-5 0 -19 -6 -30 -14 -15 -12 -17 -18 -8 -33 7 -10 23
-18 39 -18 15 0 33 8 39 17 8 14 6 21 -9 32 -11 9 -25 16 -31 16z"/>
</g>
<g>
<path d="M5767 4850 c-7 0 -22 -8 -33 -19 -10 -10 -27 -28 -36 -40 -10 -12
-18 -32 -18 -46 0 -16 6 -25 15 -25 9 0 34 18 56 40 27 26 39 46 35 56 -3 9
-6 20 -6 25 0 5 -6 9 -13 9z"/>
</g>
<g>
<path d="M5180 5100 c-39 0 -39 0 -33 -32 3 -18 7 -34 8 -36 1 -1 16 1 33 4
27 6 32 11 32 35 0 27 -3 29 -40 29z"/>
</g>
<g>
<path d="M5079 5029 c-9 1 -19 -2 -22 -6 -4 -3 -7 -21 -7 -39 0 -18 7 -40 16
-48 8 -9 21 -13 26 -9 6 3 32 7 57 7 38 1 46 4 46 20 0 12 -17 29 -50 47 -27
15 -57 28 -66 28z"/>
</g>
<g>
<path d="M5217 4849 c-1 0 -8 -3 -14 -6 -7 -2 -13 -13 -13 -22 0 -10 9 -26 20
-36 19 -17 21 -17 40 0 11 10 20 23 20 30 0 6 -11 17 -25 23 -14 7 -27 12 -28
11z"/>
</g>
<g>
<path d="M6579 4980 c-5 0 -16 -12 -26 -26 -12 -19 -14 -30 -6 -43 5 -9 22
-17 36 -19 21 -3 30 3 39 24 11 23 10 28 -11 45 -13 11 -27 19 -32 19z"/>
</g>
<g>
<path d="M6551 4820 c-9 0 -26 -9 -37 -21 -20 -20 -23 -20 -52 -5 -23 12 -37
13 -56 6 -14 -5 -26 -14 -26 -20 0 -5 -4 -10 -8 -10 -5 0 -19 9 -32 20 -13 11
-31 20 -42 20 -11 0 -18 -7 -18 -19 0 -10 24 -39 54 -65 30 -25 59 -46 64 -46
6 0 12 17 14 38 l3 37 37 -38 c31 -34 39 -37 57 -28 12 7 21 18 21 26 0 8 8
20 18 27 10 7 21 21 25 31 3 9 4 24 1 32 -4 8 -14 15 -23 15z"/>
</g>
<g>
<path d="M6603 4738 c-17 3 -26 -4 -34 -25 -9 -24 -7 -30 12 -46 17 -13 25
-15 36 -6 8 7 13 25 11 43 -2 23 -9 32 -25 34z"/>
</g>
<g>
<path d="M4726 4900 c-3 0 -8 -4 -11 -10 -3 -5 -13 -10 -22 -10 -9 0 -24 -6
-32 -13 -9 -8 -36 -22 -61 -31 -25 -10 -57 -29 -72 -44 -16 -14 -28 -36 -28
-49 0 -13 6 -26 13 -28 6 -3 29 1 50 9 21 7 46 19 55 27 10 8 33 24 53 37 20
12 43 22 51 22 8 0 22 8 31 18 10 10 17 26 17 35 0 9 -9 21 -19 27 -11 5 -22
10 -25 10z"/>
</g>
<g>
<path d="M4775 4645 c-5 2 -18 1 -27 -2 -10 -2 -21 -15 -24 -29 -3 -13 -10
-24 -15 -24 -5 0 -15 -11 -21 -25 -10 -22 -8 -29 17 -55 16 -17 34 -30 41 -30
7 0 21 -10 31 -23 10 -12 35 -35 55 -50 27 -21 46 -27 70 -25 25 2 33 8 33 23
0 11 -15 29 -35 42 -19 12 -54 36 -78 53 -42 30 -42 31 -40 87 2 31 -1 57 -7
58z"/>
</g>
<g>
<path d="M5185 4410 c-23 0 -39 -7 -49 -21 -8 -12 -12 -29 -9 -38 3 -9 13 -24
21 -33 8 -10 23 -18 32 -18 9 0 25 9 35 20 13 14 16 28 11 55 -6 32 -10 35
-41 35z"/>
</g>
<g>
<path d="M4821 4180 c-9 0 -27 -10 -39 -23 -12 -13 -22 -35 -22 -50 0 -14 3
-28 8 -30 4 -2 19 -7 34 -11 17 -4 32 -1 42 9 8 8 19 15 25 15 6 0 11 10 11
23 0 13 -9 33 -20 45 -12 12 -29 22 -39 22z"/>
</g>
<g>
<path d="M6860 4950 c-4 0 -13 -7 -20 -15 -6 -8 -9 -23 -5 -35 3 -11 14 -20
24 -20 10 0 24 7 31 15 10 13 10 19 -5 35 -10 11 -21 20 -25 20z"/>
</g>
<g>
<path d="M4051 4820 c-16 -1 -33 -10 -43 -25 -10 -13 -18 -35 -18 -49 0 -16 9
-32 25 -42 14 -9 34 -14 47 -11 13 4 32 22 42 42 l19 35 -23 25 c-14 14 -34
25 -49 25z"/>
</g>
<g>
<path d="M3716 4712 l-34 34 -31 -25 c-20 -17 -31 -35 -31 -52 0 -15 9 -38 21
-53 11 -14 31 -26 43 -26 12 0 32 10 44 23 12 13 22 32 22 44 0 11 -15 36 -34
55z"/>
</g>
<g>
<path d="M3888 4575 c-8 3 -17 2 -21 -1 -4 -4 -7 -15 -7 -25 0 -10 9 -35 21
-56 12 -21 29 -47 39 -58 10 -11 34 -48 54 -82 20 -34 36 -70 36 -81 0 -11
-11 -24 -26 -31 -14 -6 -41 -23 -60 -38 -27 -20 -34 -32 -32 -52 2 -18 10 -27
26 -29 13 -2 35 7 53 22 17 14 40 28 52 31 12 2 31 6 42 7 10 2 26 15 35 30
11 21 12 32 4 45 -6 10 -26 47 -45 83 -18 36 -48 86 -66 112 -17 26 -39 63
-47 82 -8 20 -22 36 -30 36 -8 0 -21 2 -28 5z"/>
</g>
<g>
<path d="M4284 4077 c-10 1 -29 -3 -41 -9 -13 -6 -23 -15 -23 -20 0 -4 -4 -8
-10 -8 -5 0 -40 -14 -77 -31 -38 -16 -87 -39 -109 -49 -23 -10 -58 -22 -78
-25 -20 -4 -39 -11 -42 -16 -3 -5 -24 -19 -46 -30 -22 -11 -51 -19 -65 -16
-18 3 -25 -1 -29 -18 -3 -13 -4 -34 -2 -46 2 -19 10 -25 38 -27 25 -2 47 4 71
21 19 13 62 38 95 55 32 17 77 39 99 48 22 10 45 18 50 19 6 0 37 13 70 28 33
15 76 35 95 45 20 11 34 24 31 33 -2 8 -4 21 -5 29 -2 8 -11 16 -22 17z"/>
</g>
<g>
<path d="M7106 4830 c-7 0 -21 -9 -31 -20 -12 -13 -15 -27 -11 -45 4 -15 13
-25 25 -25 10 0 29 8 42 19 22 18 22 19 6 45 -10 14 -23 26 -31 26z"/>
</g>
<g>
<path d="M7115 4618 c-11 1 -27 -2 -35 -8 -8 -5 -32 -10 -53 -10 -23 0 -40 -5
-43 -14 -3 -8 0 -24 6 -36 10 -18 17 -21 51 -15 l39 7 0 -35 c0 -20 7 -41 18
-50 10 -10 23 -17 28 -17 5 0 15 14 23 30 9 21 10 34 3 43 -6 7 -12 33 -14 57
-2 36 -7 46 -23 48z"/>
</g>
<g>
<path d="M7265 4600 c-3 0 -8 -8 -11 -17 -4 -10 -22 -56 -42 -103 -19 -47 -48
-102 -65 -123 -17 -22 -30 -51 -31 -70 -1 -27 3 -32 25 -35 19 -2 31 4 42 21
9 13 22 30 29 38 8 8 40 66 71 130 31 64 57 119 57 123 0 4 -16 14 -35 22 -19
7 -37 14 -40 14z"/>
</g>
<g>
<path d="M6867 4520 c-7 0 -23 -9 -36 -19 -20 -16 -22 -22 -14 -47 6 -19 18
-30 33 -32 15 -3 31 5 46 21 l23 25 -20 26 c-11 14 -26 26 -32 26z"/>
</g>
<g>
<path d="M2608 4510 c-13 0 -34 -9 -46 -20 -12 -12 -22 -29 -22 -40 0 -10 12
-32 26 -49 14 -17 34 -31 44 -31 9 0 29 9 44 21 14 11 26 30 26 42 0 12 -11
34 -24 50 -13 16 -34 27 -48 27z"/>
</g>
<g>
<path d="M3165 4290 c-13 0 -29 -8 -34 -17 -5 -10 -12 -38 -15 -63 -3 -25 -8
-85 -11 -135 -2 -49 -11 -115 -19 -145 -7 -30 -14 -81 -15 -113 -1 -53 1 -58
25 -69 23 -11 28 -9 45 12 10 14 19 41 19 62 0 20 7 63 15 95 8 32 17 99 19
148 3 50 8 111 11 136 5 29 3 54 -4 68 -7 12 -21 21 -36 21z"/>
</g>
<g>
<path d="M2938 4259 c-7 -1 -24 -5 -38 -9 -14 -4 -89 -5 -166 -2 l-142 5 -7
-32 c-4 -18 -4 -35 0 -39 3 -4 71 -9 151 -13 80 -4 148 -10 152 -13 3 -4 7
-27 7 -51 0 -27 6 -51 16 -60 12 -12 21 -14 42 -6 15 6 27 17 27 25 0 8 6 17
13 20 8 3 7 8 -5 16 -10 6 -18 19 -18 28 0 10 5 23 10 28 7 7 4 25 -9 57 -11
26 -26 47 -33 46z"/>
</g>
<g>
<path d="M2404 4120 c-29 0 -32 -3 -44 -55 -10 -43 -11 -58 -2 -67 7 -7 12
-20 12 -30 0 -15 8 -18 46 -18 33 0 51 5 60 18 7 9 14 35 14 58 0 31 -6 46
-28 67 -18 17 -39 27 -58 27z"/>
</g>
<g>
<path d="M7747 4380 c-7 0 -18 -5 -25 -12 -7 -7 -12 -21 -12 -33 0 -11 8 -26
18 -33 9 -7 33 -23 53 -35 20 -12 64 -41 99 -64 35 -24 70 -43 79 -43 9 0 27
-7 39 -16 12 -8 32 -14 44 -12 11 2 26 11 32 21 8 12 8 22 0 35 -6 9 -22 22
-35 29 -13 6 -41 19 -61 29 -21 10 -38 21 -38 25 0 3 -22 16 -50 27 -27 12
-50 26 -50 31 0 6 -18 20 -40 31 -21 11 -45 20 -53 20z"/>
</g>
<g>
<path d="M7888 4116 c-7 5 -42 7 -78 4 l-65 -5 -3 -106 c-2 -96 -1 -107 18
-124 16 -15 25 -17 38 -9 13 9 18 29 20 88 l3 77 40 -2 c30 -3 43 1 50 14 6
11 6 23 0 35 -5 10 -16 23 -23 28z"/>
</g>
<g>
<path d="M7564 4010 c-6 0 -18 -8 -28 -19 -13 -14 -14 -24 -7 -44 6 -14 19
-31 30 -36 11 -6 26 -8 35 -5 8 3 18 20 22 36 5 26 2 35 -17 49 -13 10 -29 19
-35 19z"/>
</g>
<g>
<path d="M8045 3675 c-16 7 -41 9 -55 6 -21 -6 -25 -14 -28 -49 l-3 -42 44 0
c25 0 49 6 55 13 5 6 12 23 14 36 2 19 -3 27 -27 36z"/>
</g>
<g>
<path d="M5945 4450 c-7 0 -19 -8 -29 -19 -13 -14 -14 -24 -7 -45 8 -20 17
-26 41 -26 27 0 30 3 30 33 0 18 -5 38 -12 45 -7 7 -17 12 -23 12z"/>
</g>
<g>
<path d="M5935 4280 c-6 0 -16 -5 -23 -12 -7 -7 -12 -20 -12 -29 0 -11 -12
-18 -39 -23 -32 -5 -38 -9 -34 -25 3 -11 12 -26 21 -34 10 -9 24 -16 32 -18 8
-2 24 0 36 4 11 4 26 17 32 30 6 12 13 36 16 53 3 17 0 36 -7 43 -6 6 -16 11
-22 11z"/>
</g>
<g>
<path d="M5698 4260 c-10 0 -18 -4 -18 -10 0 -5 21 -37 46 -70 25 -33 54 -64
64 -70 13 -7 21 -6 30 5 6 8 8 20 4 26 -4 7 -30 36 -57 66 -28 29 -59 53 -69
53z"/>
</g>
<g>
<path d="M5997 4150 c-7 0 -21 -6 -31 -13 -10 -7 -17 -22 -14 -33 2 -10 11
-20 21 -22 10 -2 27 4 37 13 15 14 17 22 9 36 -5 11 -15 19 -22 19z"/>
</g>
<g>
<path d="M6236 4540 c-12 0 -26 -3 -29 -7 -4 -3 -7 -17 -7 -29 0 -13 9 -28 20
-34 15 -8 24 -6 40 10 16 16 18 25 10 40 -6 11 -21 20 -34 20z"/>
</g>
<g>
<path d="M6334 4460 c-8 0 -18 -10 -23 -22 -5 -13 -6 -29 -4 -35 3 -7 13 -13
23 -13 10 0 23 6 29 14 9 11 10 20 1 35 -6 12 -17 21 -26 21z"/>
</g>
<g>
<path d="M6263 4390 c-10 0 -32 -14 -50 -30 -17 -16 -33 -35 -34 -42 -1 -7 -1
-21 0 -31 0 -10 11 -22 24 -26 16 -7 27 -4 44 12 12 11 27 35 34 54 6 19 8 40
5 48 -3 8 -13 15 -23 15z"/>
</g>
<g>
<path d="M6438 4080 c-2 0 -12 -6 -22 -13 -12 -9 -17 -23 -14 -42 2 -25 8 -31
32 -33 16 -2 32 2 37 10 5 7 9 23 9 35 0 12 -9 27 -19 33 -11 5 -21 10 -23 10z"/>
</g>
<g>
<path d="M6229 3940 c-4 0 -12 -6 -18 -14 -7 -8 -16 -29 -21 -46 -7 -24 -5
-40 6 -61 8 -16 19 -29 25 -29 5 0 12 14 16 30 3 17 10 29 16 27 6 -2 14 -16
18 -31 4 -15 13 -34 20 -42 6 -8 19 -14 28 -14 9 0 33 16 54 35 20 20 37 42
37 49 0 8 -3 21 -6 30 -3 9 -13 16 -22 16 -8 0 -23 -7 -33 -16 -12 -11 -25
-14 -36 -9 -10 5 -21 9 -25 10 -5 2 -12 3 -18 4 -5 0 -10 9 -10 19 0 10 -5 23
-12 30 -7 7 -15 12 -19 12z"/>
</g>
<g>
<path d="M6443 3728 c-10 5 -25 7 -34 5 -10 -2 -19 -13 -22 -25 -3 -11 -3 -26
0 -34 2 -7 14 -16 26 -20 14 -4 25 -1 34 12 7 10 13 26 13 36 0 9 -8 21 -17
26z"/>
</g>
<g>
<path d="M8620 4080 c-9 0 -24 -8 -32 -17 -8 -10 -27 -39 -41 -64 -15 -25 -38
-56 -52 -69 -15 -14 -25 -34 -25 -52 0 -24 4 -28 28 -28 22 0 36 11 63 48 19
26 40 60 47 75 7 15 19 30 27 33 8 4 15 14 15 24 0 10 -3 25 -6 34 -3 9 -14
16 -24 16z"/>
</g>
<g>
<path d="M8642 3890 c-10 0 -23 -5 -30 -12 -7 -7 -12 -18 -12 -26 0 -8 -9 -27
-21 -43 -11 -16 -19 -39 -17 -51 2 -14 18 -31 42 -44 22 -12 59 -25 83 -29 24
-3 52 -3 64 0 15 5 18 12 13 28 -3 12 -13 28 -22 35 -9 6 -28 12 -42 12 -14 0
-31 5 -36 10 -8 8 -8 23 -1 49 6 21 7 45 4 54 -4 10 -15 17 -25 17z"/>
</g>
<g>
<path d="M8929 3760 c-14 0 -30 -5 -37 -12 -7 -7 -12 -20 -12 -30 0 -9 5 -29
12 -43 9 -20 18 -25 49 -25 24 0 39 5 43 16 3 9 6 26 6 38 0 13 -8 30 -18 39
-10 10 -30 17 -43 17z"/>
</g>
<g>
<path d="M8596 3560 c-7 0 -22 -10 -34 -23 -12 -13 -22 -34 -22 -48 0 -14 5
-30 12 -37 7 -7 26 -12 43 -12 16 0 37 5 45 10 9 6 14 21 12 42 -2 18 -12 41
-24 51 -11 9 -26 17 -32 17z"/>
</g>
<g>
<path d="M5172 3980 c-10 0 -23 -5 -30 -12 -7 -7 -12 -25 -12 -40 0 -22 6 -31
26 -38 19 -7 31 -7 40 1 8 6 14 20 14 31 0 11 -5 28 -10 39 -6 10 -19 19 -28
19z"/>
</g>
<g>
<path d="M5345 3800 c-6 0 -14 -3 -18 -6 -3 -3 -41 -16 -84 -29 -74 -21 -78
-24 -78 -51 0 -26 4 -29 33 -32 18 -2 39 1 45 6 7 6 23 11 37 13 14 2 31 0 38
-4 6 -5 12 -16 12 -26 0 -10 8 -25 18 -34 10 -10 26 -17 35 -17 13 0 17 9 17
38 0 21 -4 42 -10 48 -5 5 -11 23 -12 39 -1 17 -6 36 -11 43 -5 6 -15 12 -22
12z"/>
</g>
<g>
<path d="M5509 3650 c-5 0 -20 -18 -35 -41 -14 -23 -26 -53 -27 -67 -2 -20 3
-28 19 -30 11 -2 27 4 34 13 7 8 16 34 20 57 5 23 6 48 3 55 -3 7 -9 13 -14
13z"/>
</g>
<g>
<path d="M5044 3560 c-6 0 -19 -8 -28 -19 -11 -13 -15 -27 -11 -44 5 -18 16
-28 37 -32 21 -5 33 -3 40 6 4 8 6 27 3 44 -3 16 -11 33 -18 37 -6 4 -17 8
-23 8z"/>
</g>
<g>
<path d="M6763 4088 c-25 2 -33 -1 -38 -18 -4 -13 0 -31 9 -45 9 -14 20 -25
24 -25 4 0 15 7 25 14 12 10 17 24 15 43 -2 23 -8 29 -35 31z"/>
</g>
<g>
<path d="M6945 3960 c-6 0 -16 -5 -23 -12 -7 -7 -12 -22 -12 -35 0 -12 8 -27
18 -32 14 -7 25 -6 40 4 14 11 18 22 14 37 -3 13 -10 26 -16 30 -6 4 -16 8
-21 8z"/>
</g>
<g>
<path d="M6805 3880 c-13 0 -25 -6 -28 -12 -2 -7 -2 -39 1 -70 4 -54 3 -58
-16 -58 -12 0 -26 -8 -31 -19 -8 -14 -6 -22 7 -33 9 -8 35 -16 57 -16 22 -1
46 2 53 6 7 5 13 17 13 28 0 10 -3 48 -7 84 -4 36 -11 71 -17 78 -5 6 -20 12
-32 12z"/>
</g>
<g>
<path d="M6691 3580 c-6 0 -15 -9 -21 -19 -5 -11 -10 -25 -10 -31 0 -6 19 -20
43 -30 23 -11 57 -20 75 -20 20 0 32 5 32 14 0 7 -25 30 -55 50 -30 20 -59 36
-64 36z"/>
</g>
<g>
<path d="M5707 3945 c-7 6 -22 9 -34 7 -13 -2 -23 -9 -23 -17 0 -7 3 -20 6
-29 3 -9 16 -16 29 -16 15 0 25 7 29 22 3 13 0 28 -7 33z"/>
</g>
<g>
<path d="M5707 3860 c-16 0 -28 -9 -35 -25 -7 -14 -12 -35 -12 -46 0 -11 7
-22 15 -26 9 -3 23 2 33 10 12 11 22 13 33 6 12 -6 24 -3 40 10 20 16 21 21
10 35 -7 9 -24 16 -37 16 -13 0 -24 5 -24 10 0 6 -11 10 -23 10z"/>
</g>
<g>
<path d="M7251 3500 c-4 0 -17 -6 -31 -13 -15 -7 -26 -23 -28 -38 -2 -15 5
-32 17 -43 19 -18 22 -18 46 -2 17 11 25 26 25 44 0 16 -5 33 -12 40 -7 7 -14
12 -17 12z"/>
</g>
<g>
<path d="M7246 3250 c-16 0 -32 -9 -42 -25 -16 -24 -16 -27 2 -40 10 -8 27
-15 36 -15 10 0 42 -8 72 -17 37 -11 58 -24 65 -39 7 -16 6 -32 -2 -53 -8 -23
-9 -36 -1 -49 6 -9 20 -18 31 -20 10 -2 26 5 35 15 9 10 18 46 21 86 6 59 4
70 -13 87 -12 12 -34 20 -53 20 -17 0 -53 11 -79 25 -26 14 -58 25 -72 25z"/>
</g>
<g>
<path d="M6975 3120 c-5 0 -15 -4 -21 -8 -6 -4 -9 -23 -7 -42 4 -26 12 -40 34
-52 29 -17 29 -17 45 14 9 16 13 40 10 53 -3 12 -16 25 -28 29 -13 3 -27 6
-33 6z"/>
</g>
<g>
<path d="M7747 3010 c-10 0 -58 -37 -105 -82 -48 -45 -107 -105 -132 -132 -25
-27 -55 -60 -66 -73 -14 -15 -20 -31 -16 -48 3 -18 11 -25 28 -25 14 0 37 15
61 42 21 22 53 55 71 72 19 17 40 35 48 39 8 4 14 13 14 20 0 7 11 19 24 27
13 8 47 33 75 55 42 34 50 44 45 65 -3 14 -11 28 -17 32 -7 4 -20 8 -30 8z"/>
</g>
<g>
<path d="M2107 3040 c-2 0 -8 -5 -15 -12 -7 -7 -12 -22 -12 -35 0 -16 15 -32
55 -58 31 -19 58 -35 62 -35 3 0 31 -19 61 -42 30 -24 80 -68 111 -99 31 -31
65 -61 76 -67 15 -7 25 -7 38 3 9 6 17 20 17 30 0 11 -10 34 -22 52 -13 19
-45 47 -73 64 -27 16 -70 45 -95 65 -25 19 -65 47 -89 62 -24 15 -59 37 -78
50 -19 12 -35 22 -36 22z"/>
</g>
<g>
<path d="M1979 2780 c-5 0 -27 -18 -48 -39 -21 -22 -54 -47 -72 -56 -19 -10
-36 -21 -39 -25 -3 -4 -29 -23 -57 -43 -29 -21 -56 -37 -60 -37 -5 0 -19 -12
-32 -25 -22 -24 -22 -26 -7 -50 9 -14 25 -25 36 -25 11 0 28 9 38 21 9 11 49
43 87 71 39 28 72 54 75 57 3 3 12 7 20 9 8 2 23 11 33 20 16 15 20 13 47 -17
24 -25 35 -31 53 -25 12 3 28 11 35 16 6 6 12 17 12 26 0 8 -25 39 -55 69 -31
29 -60 53 -66 53z"/>
</g>
<g>
<path d="M1526 2720 c-6 0 -20 -6 -31 -12 -11 -6 -23 -16 -27 -22 -4 -6 -8
-29 -8 -51 0 -22 4 -46 9 -54 6 -9 18 -11 34 -7 14 3 29 2 32 -4 3 -5 10 -10
14 -10 5 0 14 13 20 29 7 15 13 43 13 61 1 23 -6 39 -22 52 -12 10 -27 18 -34
18z"/>
</g>
<g>
<path d="M1575 2247 c-31 4 -44 1 -58 -14 -9 -11 -17 -33 -17 -49 1 -16 9 -39
19 -51 11 -13 26 -23 34 -23 9 0 29 11 45 25 16 14 32 36 34 50 3 14 0 32 -6
41 -7 8 -30 18 -51 21z"/>
</g>
<g>
<path d="M4401 3450 c-10 0 -24 -7 -31 -15 -11 -13 -11 -20 0 -39 7 -14 20
-26 29 -29 9 -2 21 -5 26 -7 6 -1 21 -10 35 -20 14 -9 74 -43 133 -74 60 -31
114 -56 121 -56 8 0 19 7 26 15 7 8 10 25 6 40 -4 14 -14 25 -24 25 -9 0 -35
11 -57 25 -22 13 -51 29 -65 35 -14 6 -32 18 -41 26 -9 8 -44 28 -78 44 -34
17 -70 30 -80 30z"/>
</g>
<g>
<path d="M4328 3179 c-21 8 -31 7 -47 -7 -13 -11 -32 -64 -57 -152 -20 -74
-39 -147 -41 -162 -4 -23 -1 -29 23 -38 15 -6 33 -9 40 -6 6 2 15 27 19 55 4
28 11 53 16 57 5 3 9 26 9 51 0 29 8 58 22 81 20 33 23 34 68 29 42 -5 49 -3
60 18 7 13 10 35 6 50 -6 24 -9 26 -49 20 -23 -4 -54 -2 -69 4z"/>
</g>
<g>
<path d="M3926 2979 c-6 0 -26 -5 -43 -10 -27 -8 -33 -15 -33 -37 0 -16 6 -37
14 -47 10 -14 26 -20 54 -20 23 0 44 3 47 7 3 3 8 18 11 33 3 20 -2 35 -17 51
-13 13 -27 24 -33 23z"/>
</g>
<g>
<path d="M4433 2640 c-6 0 -20 -8 -31 -17 -11 -10 -23 -35 -26 -55 -7 -36 -6
-37 28 -43 19 -4 44 -4 55 0 16 5 21 15 21 44 0 24 -7 44 -18 54 -10 10 -23
17 -29 17z"/>
</g>
<g>
<path d="M5941 3450 c-4 0 -13 -11 -20 -24 -7 -13 -11 -32 -9 -42 2 -11 13
-20 26 -22 13 -2 32 4 43 14 10 9 19 25 19 34 0 9 -11 22 -25 28 -14 7 -29 12
-34 12z"/>
</g>
<g>
<path d="M5798 3390 c-3 0 -12 -8 -21 -18 -10 -10 -17 -26 -17 -35 0 -9 9 -21
21 -27 16 -9 25 -8 40 6 10 9 19 22 19 29 0 7 -8 19 -18 28 -10 10 -21 17 -24
17z"/>
</g>
<g>
<path d="M5913 3248 c-11 2 -25 -4 -32 -12 -9 -10 -11 -72 -10 -223 1 -114 3
-217 6 -229 3 -16 10 -19 31 -16 15 2 40 14 56 27 23 18 27 28 22 49 -3 14
-13 26 -20 26 -8 0 -17 14 -21 31 -4 17 -8 101 -9 187 -2 149 -3 157 -23 160z"/>
</g>
<g>
<path d="M5978 2599 c-7 0 -26 -6 -43 -12 -16 -7 -39 -17 -50 -24 -16 -10 -18
-15 -9 -30 8 -13 22 -17 45 -15 19 1 44 13 58 26 14 15 21 31 18 40 -4 9 -12
16 -19 15z"/>
</g>
<g>
<path d="M8971 3250 c-10 0 -25 -7 -32 -16 -7 -9 -14 -37 -14 -61 l0 -45 34 6
c18 3 44 12 57 21 17 11 24 25 24 45 0 23 -6 33 -26 40 -14 6 -33 10 -43 10z"/>
</g>
<g>
<path d="M9567 3197 c-31 1 -40 -3 -49 -22 -8 -18 -6 -36 8 -77 10 -29 21 -57
25 -63 3 -5 23 -41 43 -78 20 -37 52 -109 72 -160 19 -51 51 -123 71 -162 19
-38 45 -84 56 -102 12 -18 30 -34 40 -37 11 -3 23 5 34 20 15 24 14 29 -36
130 -28 58 -51 115 -51 127 0 11 -6 28 -13 36 -8 9 -22 39 -32 66 -10 28 -30
68 -44 90 -15 22 -32 51 -39 65 -6 14 -21 51 -32 83 -11 32 -18 64 -17 70 1 7
-13 13 -36 14z"/>
</g>
<g>
<path d="M9108 3010 c-27 0 -29 -3 -26 -32 3 -29 11 -37 72 -71 38 -20 86 -53
105 -73 20 -20 52 -44 72 -54 19 -10 41 -25 48 -34 7 -8 30 -24 52 -35 22 -12
45 -21 52 -21 7 0 17 8 23 18 5 9 10 61 10 115 -1 91 -3 100 -25 118 -13 10
-32 19 -42 19 -11 0 -23 -10 -28 -22 -4 -12 -2 -36 5 -57 7 -20 13 -42 14 -48
0 -7 -7 -13 -14 -13 -8 0 -37 14 -63 32 -26 17 -66 47 -89 65 -22 18 -56 39
-76 47 -19 8 -40 22 -48 30 -7 9 -26 16 -42 16z"/>
</g>
<g>
<path d="M9063 2870 c-11 0 -27 -8 -36 -18 -10 -10 -17 -25 -17 -33 0 -8 10
-26 23 -41 12 -14 31 -29 42 -32 11 -3 29 2 42 12 12 9 24 33 28 52 6 33 4 36
-28 48 -18 6 -43 12 -54 12z"/>
</g>
<g>
<path d="M6238 3330 c-10 0 -22 -9 -28 -21 -7 -11 -9 -27 -6 -35 3 -8 18 -19
32 -25 18 -6 31 -6 37 0 5 5 10 22 10 36 0 15 -7 31 -14 36 -8 5 -22 9 -31 9z"/>
</g>
<g>
<path d="M6282 2960 c-21 0 -32 -7 -40 -26 -9 -18 -9 -31 -1 -45 6 -12 17 -18
26 -15 8 3 21 6 29 6 10 0 14 12 14 40 0 37 -2 40 -28 40z"/>
</g>
<g>
<path d="M5569 3050 c-16 0 -31 -6 -33 -12 -3 -7 -7 -25 -10 -40 -5 -23 -3
-28 13 -28 11 0 23 -5 26 -10 4 -7 13 -7 26 0 10 6 19 21 19 35 0 13 -3 30 -6
39 -4 10 -18 16 -35 16z"/>
</g>
<g>
<path d="M5369 2701 c-15 7 -21 6 -25 -5 -3 -8 3 -29 13 -46 10 -18 32 -58 49
-89 21 -40 37 -57 54 -59 22 -4 23 -2 17 42 -4 25 -3 46 1 46 4 0 18 -9 32
-20 14 -11 37 -20 52 -20 17 0 31 7 37 19 6 10 14 36 19 58 5 21 5 49 1 61 -5
13 -17 22 -29 22 -14 0 -24 -10 -32 -31 -7 -20 -15 -28 -25 -25 -8 4 -26 9
-40 12 -19 5 -25 2 -30 -15 -3 -11 -10 -21 -15 -21 -5 0 -21 14 -35 30 -14 17
-34 35 -44 41z"/>
</g>
<g>
<path d="M5661 2479 c-9 0 -22 -3 -28 -6 -8 -2 -13 -22 -13 -44 0 -32 3 -39
20 -39 11 0 23 -1 26 -2 4 -2 16 9 27 24 20 27 20 28 2 48 -10 11 -25 20 -34
19z"/>
</g>
<g>
<path d="M8621 2450 c-10 0 -24 -6 -33 -12 -10 -8 -20 -44 -28 -98 -6 -47 -17
-101 -25 -120 -7 -19 -20 -84 -29 -145 -10 -60 -22 -128 -27 -150 -6 -22 -14
-62 -18 -89 -4 -28 -13 -52 -19 -54 -7 -2 -12 -12 -12 -22 0 -11 10 -31 23
-46 23 -26 24 -27 50 -9 15 10 30 29 33 44 3 14 9 35 14 46 5 11 11 47 15 80
4 33 8 74 10 90 2 17 8 59 15 95 7 36 23 101 35 145 13 44 26 111 30 148 5 47
3 72 -5 82 -7 8 -20 15 -29 15z"/>
</g>
<g>
<path d="M8945 2050 c-28 0 -36 -4 -40 -22 -2 -13 -6 -50 -9 -83 -2 -33 -7
-68 -11 -77 -4 -11 1 -22 20 -34 14 -9 43 -20 63 -25 20 -4 48 -10 62 -13 14
-3 48 -12 75 -20 28 -8 86 -24 130 -36 44 -11 105 -25 135 -30 30 -5 87 -18
125 -30 39 -12 76 -27 82 -32 7 -6 24 -7 38 -4 16 4 27 16 31 33 5 20 2 30
-14 43 -11 10 -40 20 -64 24 -24 4 -63 14 -88 22 -25 9 -76 22 -115 29 -38 8
-113 25 -165 39 -52 15 -102 28 -110 31 -8 2 -35 11 -60 18 l-45 15 3 53 c2
29 0 64 -3 76 -4 18 -12 23 -40 23z"/>
</g>
<g>
<path d="M9801 1859 c-3 -1 -19 -4 -34 -6 -18 -3 -31 -13 -38 -29 -5 -14 -9
-32 -9 -40 0 -7 14 -27 31 -44 18 -16 41 -30 53 -30 12 0 27 4 35 9 10 6 12
22 9 55 -3 26 -14 56 -23 66 -10 11 -21 19 -24 19z"/>
</g>
<g>
<path d="M9741 1600 c-5 0 -19 -13 -30 -29 -12 -16 -21 -40 -21 -53 0 -14 8
-32 18 -40 9 -8 26 -18 36 -22 14 -5 28 2 48 21 15 15 28 37 28 51 0 13 -6 29
-13 35 -7 7 -23 18 -35 25 -12 6 -26 12 -31 12z"/>
</g>
<g>
<path d="M6901 2570 c-10 0 -24 -7 -31 -15 -7 -8 -10 -25 -6 -39 3 -14 16 -28
28 -32 16 -5 27 -1 40 16 10 12 18 26 18 30 0 5 -7 16 -16 24 -8 9 -24 16 -33
16z"/>
</g>
<g>
<path d="M6585 2476 c-17 10 -25 10 -47 -2 -16 -8 -28 -21 -28 -28 0 -7 12
-29 28 -49 15 -20 30 -36 35 -37 4 0 7 5 7 11 0 6 7 17 16 26 8 9 14 27 12 41
-2 13 -12 31 -23 38z"/>
</g>
<g>
<path d="M6719 2438 c-24 3 -27 -1 -34 -34 -3 -21 -15 -55 -26 -76 -10 -20
-19 -47 -19 -58 0 -12 9 -24 23 -29 14 -5 40 -3 70 6 27 8 60 15 74 16 15 1
31 10 37 19 8 13 7 21 -1 29 -6 6 -29 13 -52 16 -22 3 -41 11 -42 17 0 6 -1
29 -2 51 -2 35 -5 40 -28 43z"/>
</g>
<g>
<path d="M6779 2170 c-15 0 -31 -4 -34 -10 -3 -5 -14 -10 -23 -10 -9 0 -46
-15 -81 -33 -35 -17 -72 -43 -83 -57 -12 -16 -16 -33 -12 -44 6 -15 14 -17 47
-12 24 4 55 20 79 40 25 22 54 36 82 40 32 5 46 13 59 35 12 21 13 31 5 39 -7
7 -24 12 -39 12z"/>
</g>
<g>
<path d="M7921 2630 c-15 0 -35 -8 -44 -18 -10 -10 -17 -24 -17 -30 0 -6 -12
-17 -27 -25 -16 -8 -48 -25 -72 -38 -24 -13 -53 -35 -65 -50 -12 -14 -29 -28
-39 -32 -10 -4 -17 -17 -17 -31 0 -13 6 -26 14 -29 8 -3 52 19 98 49 46 30 87
54 92 54 4 0 28 14 53 30 24 17 50 30 57 30 8 0 16 11 18 25 3 13 -1 34 -9 45
-8 12 -25 20 -42 20z"/>
</g>
<g>
<path d="M7841 2390 c-10 0 -23 -6 -29 -12 -5 -7 -19 -31 -30 -53 -11 -22 -29
-45 -40 -52 -14 -8 -19 -19 -15 -33 3 -12 22 -30 43 -40 21 -11 40 -25 43 -33
3 -8 17 -17 30 -19 19 -4 27 0 31 15 3 11 1 27 -4 36 -4 9 -18 25 -29 35 -21
19 -21 20 -2 40 11 12 20 35 22 51 1 17 1 38 1 48 -1 9 -10 17 -21 17z"/>
</g>
<g>
<path d="M8042 2200 c-15 0 -35 -5 -44 -11 -10 -5 -18 -7 -18 -3 0 3 -7 1 -15
-6 -8 -7 -15 -21 -15 -31 0 -10 10 -37 21 -59 18 -34 26 -41 47 -38 17 2 33
14 45 35 14 25 17 43 12 73 -6 35 -10 40 -33 40z"/>
</g>
<g>
<path d="M7755 2110 c-28 0 -47 -5 -49 -12 -3 -7 -6 -23 -9 -35 -4 -17 3 -27
31 -43 29 -18 40 -20 60 -10 21 9 23 15 18 42 -3 17 -6 37 -6 44 0 10 -14 14
-45 14z"/>
</g>
<g>
<path d="M3597 2659 c-7 0 -27 -8 -44 -16 -27 -14 -33 -22 -33 -50 0 -20 8
-41 20 -53 11 -11 31 -20 45 -20 13 0 33 10 45 22 11 12 20 32 20 44 0 12 -9
33 -21 48 -11 14 -26 26 -32 25z"/>
</g>
<g>
<path d="M3783 2388 c-10 6 -28 6 -40 1 -12 -4 -37 -30 -54 -56 -17 -26 -52
-64 -76 -83 -24 -19 -50 -47 -57 -62 -12 -23 -12 -30 1 -47 8 -12 20 -21 27
-21 7 0 30 -13 52 -30 21 -16 46 -30 55 -30 9 0 20 7 23 16 3 9 6 24 6 35 0
11 -11 31 -25 45 -14 14 -25 29 -25 33 0 5 29 41 65 81 36 40 65 81 65 91 0
10 -8 22 -17 27z"/>
</g>
<g>
<path d="M4044 2340 c-11 0 -29 -6 -39 -14 -15 -11 -19 -24 -16 -53 1 -21 10
-46 18 -55 9 -10 26 -18 37 -18 12 0 31 8 42 18 12 9 27 27 33 39 6 12 11 27
11 32 0 6 -15 20 -32 31 -18 11 -42 20 -54 20z"/>
</g>
<g>
<path d="M3471 1980 c-9 0 -22 -5 -29 -12 -7 -7 -12 -19 -12 -28 0 -9 18 -31
39 -48 22 -18 45 -32 52 -32 6 0 31 -20 56 -45 24 -25 41 -50 38 -56 -4 -5 -4
-16 -1 -24 5 -13 11 -12 43 3 21 9 41 22 45 27 4 6 8 19 8 29 0 11 -19 35 -42
55 -23 20 -73 57 -111 84 -38 26 -76 47 -86 47z"/>
</g>
<g>
<path d="M2420 2160 c-8 0 -26 -7 -40 -14 -14 -7 -45 -24 -70 -36 -25 -13 -56
-33 -70 -45 -14 -12 -38 -29 -55 -38 -16 -9 -59 -30 -95 -46 -36 -16 -78 -41
-94 -54 -19 -16 -27 -31 -23 -41 4 -9 17 -16 31 -16 13 0 53 16 89 35 36 19
71 35 80 35 8 0 20 7 27 15 7 8 19 15 26 15 8 0 34 16 59 35 25 19 62 37 83
40 20 4 51 13 69 21 18 8 35 19 38 24 3 5 1 20 -6 32 -7 13 -17 26 -23 30 -6
4 -18 8 -26 8z"/>
</g>
<g>
<path d="M2209 1856 c-19 1 -29 -3 -29 -13 0 -8 -20 -33 -45 -55 -25 -23 -45
-48 -45 -57 0 -9 27 -38 60 -65 33 -26 65 -57 71 -67 5 -11 16 -19 23 -19 8 0
24 8 37 19 l23 18 -54 57 -54 57 37 30 c20 17 37 39 37 49 0 9 -7 24 -16 31
-9 8 -30 14 -45 15z"/>
</g>
<g>
<path d="M2832 1654 c-23 12 -33 12 -58 1 -23 -9 -33 -21 -36 -42 -2 -16 0
-44 4 -61 8 -29 12 -32 47 -32 22 0 47 7 59 18 12 9 22 26 23 37 2 11 -1 30
-5 43 -4 12 -20 28 -34 36z"/>
</g>
<g>
<path d="M1874 1520 c-30 0 -44 -5 -48 -16 -4 -9 -3 -39 0 -66 4 -32 13 -52
25 -58 13 -8 30 -4 63 11 34 17 45 29 50 53 5 25 1 34 -21 53 -19 15 -42 22
-69 23z"/>
</g>
<g>
<path d="M5077 2520 c-17 0 -42 -26 -105 -108 -45 -60 -82 -113 -82 -117 0 -4
-7 -13 -17 -20 -9 -7 -14 -19 -10 -29 4 -9 10 -16 14 -16 4 0 41 33 80 73 40
39 89 93 108 119 19 26 35 58 35 72 0 20 -5 26 -23 26z"/>
</g>
<g>
<path d="M5123 2329 c-5 0 -14 -3 -20 -6 -7 -2 -13 -14 -13 -26 0 -12 -10 -42
-21 -67 -11 -24 -18 -54 -15 -65 4 -15 24 -26 78 -43 40 -12 81 -22 90 -22 9
0 20 10 24 22 5 16 0 27 -19 44 -15 13 -34 20 -49 18 -12 -3 -29 0 -37 5 -13
8 -13 15 -1 50 10 32 11 47 2 66 -6 14 -15 25 -19 24z"/>
</g>
<g>
<path d="M5239 2030 c-8 0 -23 -6 -34 -13 -13 -10 -16 -21 -11 -40 3 -14 15
-28 25 -32 11 -3 29 0 40 7 13 8 20 22 19 38 -1 14 -7 28 -13 32 -5 4 -17 8
-26 8z"/>
</g>
<g>
<path d="M7256 2090 c-23 0 -36 -8 -53 -31 -19 -28 -20 -34 -8 -63 11 -25 19
-31 42 -29 15 1 36 12 46 24 9 12 17 32 17 44 0 13 -3 30 -6 39 -4 10 -18 16
-38 16z"/>
</g>
<g>
<path d="M7280 1830 c-9 0 -20 -3 -23 -7 -4 -3 -7 -14 -7 -23 0 -9 -11 -31
-25 -50 -14 -19 -32 -38 -41 -43 -10 -6 -21 -3 -33 7 -11 10 -25 14 -37 10
-10 -4 -27 -14 -37 -22 -16 -14 -16 -16 -1 -34 10 -10 25 -18 36 -18 10 0 27
-9 38 -20 11 -11 32 -20 48 -20 15 0 39 12 55 25 15 13 27 34 27 45 0 12 9 33
20 47 11 14 20 38 20 52 0 15 -5 32 -12 39 -7 7 -19 12 -28 12z"/>
</g>
<g>
<path d="M7542 1750 c-9 0 -31 -10 -49 -21 -31 -20 -32 -22 -20 -51 7 -17 20
-36 30 -42 13 -8 24 -7 44 6 16 10 29 27 31 42 2 14 -2 34 -8 46 -6 11 -18 20
-28 20z"/>
</g>
<g>
<path d="M6835 1696 c-22 3 -43 3 -46 -1 -4 -3 -2 -21 3 -40 10 -32 13 -33 75
-40 35 -4 94 -15 131 -26 37 -10 69 -20 72 -20 3 -1 15 -6 27 -12 16 -7 27 -6
38 3 8 7 15 23 15 35 0 13 -8 25 -17 28 -10 3 -56 16 -103 30 -47 14 -101 28
-120 31 -19 4 -53 10 -75 12z"/>
</g>
<g>
<path d="M4610 2049 c-8 0 -21 -3 -27 -6 -7 -2 -13 -15 -13 -27 0 -12 10 -32
23 -44 13 -12 31 -22 41 -22 10 0 32 -8 49 -17 18 -10 42 -26 54 -36 11 -10
31 -17 44 -15 12 2 27 11 33 20 8 14 5 23 -18 47 -16 16 -49 39 -75 51 -25 12
-57 28 -71 36 -14 7 -32 13 -40 13z"/>
</g>
<g>
<path d="M4663 1833 c-12 3 -24 2 -27 -1 -3 -3 -6 -17 -6 -32 0 -23 7 -30 45
-45 39 -15 45 -20 39 -38 -4 -12 -12 -33 -19 -47 -7 -14 -29 -42 -49 -62 -20
-20 -36 -41 -36 -47 0 -5 10 -17 21 -25 12 -8 29 -12 39 -8 10 4 34 27 52 50
18 24 45 65 60 90 15 26 30 52 33 58 3 6 1 23 -4 37 -6 15 -17 27 -26 27 -8 0
-34 9 -58 19 -23 10 -52 21 -64 24z"/>
</g>
<g>
<path d="M5127 1586 c-8 3 -22 -2 -31 -11 -9 -9 -16 -32 -16 -50 0 -19 5 -45
11 -59 10 -21 17 -24 43 -19 17 3 36 11 42 17 7 6 15 25 18 41 5 23 1 36 -14
53 -11 12 -25 22 -30 22 -4 0 -15 3 -23 6z"/>
</g>
<g>
<path d="M4200 1580 c-5 0 -10 -9 -10 -20 0 -10 -9 -24 -20 -30 -11 -6 -20
-16 -20 -23 0 -7 11 -25 25 -40 14 -15 34 -27 45 -27 10 0 30 5 44 11 15 7 26
23 30 41 3 17 3 34 0 39 -3 5 -23 18 -44 29 -22 11 -44 20 -50 20z"/>
</g>
</g>
</g>
</svg>
