<?xml version="1.0" standalone="no"?>
<!DOCTYPE svg PUBLIC "-//W3C//DTD SVG 20010904//EN"
 "http://www.w3.org/TR/2001/REC-SVG-20010904/DTD/svg10.dtd">
<svg version="1.0" xmlns="http://www.w3.org/2000/svg"
 width="1508.000000pt" height="867.000000pt" viewBox="0 0 1508.000000 867.000000"
 preserveAspectRatio="xMidYMid meet">
<metadata>
Created by potrace 1.16, written by Peter Selinger 2001-2019
</metadata>
<g transform="translate(0.000000,867.000000) scale(0.100000,-0.100000)"
fill="#000000" stroke="none">
<g>
<path d="M14126 7860 c-13 0 -26 -3 -29 -7 -4 -3 -217 -8 -475 -10 -257 -1
-503 -5 -547 -9 -44 -3 -107 -5 -140 -5 -33 1 -96 -3 -140 -9 -44 -5 -183 -14
-310 -20 -126 -6 -284 -17 -350 -26 -66 -8 -156 -16 -200 -18 -44 -3 -138 -10
-210 -16 -71 -7 -141 -12 -155 -12 -14 0 -65 -5 -115 -10 -49 -6 -115 -11
-145 -13 -30 -1 -165 -5 -300 -9 -135 -4 -292 -11 -350 -17 -59 -5 -283 -8
-515 -6 -225 2 -443 0 -483 -4 -39 -4 -152 -9 -250 -10 -97 -2 -271 0 -387 4
-115 3 -230 9 -255 13 -25 3 -85 6 -134 5 -61 0 -92 -5 -98 -13 -4 -7 -8 -30
-8 -50 0 -32 5 -40 30 -53 29 -15 30 -18 30 -83 0 -37 2 -213 4 -392 3 -179 8
-422 12 -540 5 -118 8 -271 8 -340 0 -69 -4 -219 -9 -335 -4 -115 -9 -241 -11
-280 -1 -38 -2 -164 -2 -280 0 -115 -1 -217 -2 -225 -1 -8 -1 -44 -1 -80 1
-36 2 -83 3 -105 1 -22 -2 -179 -6 -350 -4 -170 -9 -330 -11 -355 -2 -25 -4
-112 -4 -194 0 -82 1 -152 4 -155 2 -4 7 -169 10 -366 4 -198 9 -364 13 -370
4 -5 7 -427 7 -937 0 -859 1 -929 17 -944 16 -16 69 -17 677 -16 363 0 664 3
669 6 5 3 242 5 528 5 285 -1 562 -2 614 -4 52 -1 138 -5 190 -9 52 -3 131 -9
175 -12 44 -3 82 -7 85 -9 3 -2 122 -6 265 -9 143 -4 496 -9 785 -11 289 -3
559 -8 600 -11 41 -3 230 -6 419 -6 257 0 345 2 351 11 4 7 12 42 18 79 6 37
16 119 23 182 7 63 14 153 16 200 2 47 6 137 9 200 4 63 6 203 7 310 0 107 -2
318 -6 468 -3 150 -9 277 -13 283 -4 7 -8 41 -10 78 -2 36 -6 305 -9 596 -4
292 -7 539 -7 550 -1 11 2 79 6 150 4 72 9 216 11 320 2 105 6 204 9 220 3 17
8 93 11 170 3 77 9 174 15 215 5 41 15 154 22 250 6 96 13 207 14 245 2 39 5
115 7 170 3 55 9 118 15 140 6 22 14 90 17 150 4 61 8 142 10 180 2 39 6 111
9 160 4 50 9 144 12 210 3 66 7 131 10 145 2 14 7 144 10 290 3 146 7 294 8
330 2 36 -1 70 -6 77 -6 7 -6 19 1 32 6 11 10 44 9 73 -1 29 2 75 6 101 7 38
5 51 -8 66 -9 10 -16 22 -16 28 0 6 -7 14 -16 17 -9 3 -26 6 -38 6z m-626
-132 c267 0 503 -3 525 -7 l40 -6 1 -245 c0 -135 -3 -339 -7 -455 -4 -115 -10
-231 -13 -256 -2 -25 -7 -111 -11 -190 -3 -79 -8 -175 -10 -214 -3 -38 -7
-119 -11 -180 -3 -60 -7 -135 -9 -165 -3 -30 -7 -74 -11 -97 -5 -35 -11 -43
-28 -43 -11 -1 -48 -3 -81 -6 -33 -3 -79 -9 -102 -14 -23 -6 -217 -10 -432
-10 -323 -1 -391 -3 -401 -15 -6 -8 -14 -28 -16 -45 -3 -18 0 -36 8 -43 7 -8
27 -18 43 -23 17 -5 199 -8 405 -8 296 0 383 3 415 15 22 7 54 14 70 14 17 1
39 4 50 8 11 3 26 3 34 -2 12 -8 13 -37 2 -203 -6 -106 -16 -242 -22 -303 -6
-60 -13 -162 -15 -225 -2 -63 -6 -142 -10 -175 -3 -33 -7 -413 -9 -845 -2
-524 1 -883 10 -1080 7 -162 13 -304 13 -315 1 -11 1 -137 1 -280 1 -143 -3
-357 -9 -475 -6 -118 -15 -244 -21 -280 -6 -36 -16 -109 -23 -162 -6 -53 -13
-99 -16 -101 -3 -3 -125 -7 -272 -10 -146 -3 -268 -3 -271 0 -3 3 -30 7 -59 9
-29 2 -206 6 -393 8 -187 3 -350 5 -362 5 -19 1 -22 8 -27 84 -4 45 -8 147
-10 227 -2 80 -9 195 -16 255 -7 61 -15 117 -19 125 -5 8 -10 76 -12 150 -2
74 -3 187 -4 250 0 63 1 160 2 215 1 55 0 138 -3 185 -2 47 -9 109 -14 139 -5
29 -7 57 -4 63 3 5 10 38 15 74 7 54 15 72 41 97 17 18 50 46 72 64 23 18 48
33 56 33 8 0 35 19 59 41 24 23 86 63 138 90 52 27 102 49 112 49 10 0 24 7
31 15 6 8 9 23 5 35 -3 11 -11 20 -17 20 -6 0 -8 13 -4 33 5 29 3 35 -16 44
-18 8 -35 6 -73 -9 -27 -11 -67 -32 -87 -49 -20 -16 -47 -34 -60 -39 -13 -5
-32 -16 -43 -22 -11 -7 -48 -34 -82 -60 -35 -27 -66 -48 -71 -48 -5 0 -31 -21
-58 -46 -27 -25 -68 -54 -92 -65 -27 -13 -47 -30 -53 -47 -6 -14 -8 -42 -5
-62 3 -19 9 -134 12 -255 4 -121 8 -296 9 -390 1 -93 7 -253 13 -355 7 -102
16 -207 22 -235 5 -27 14 -93 21 -145 6 -52 11 -173 10 -269 -1 -96 -3 -176
-4 -177 -1 -1 -46 -5 -99 -8 -53 -3 -118 -8 -145 -12 -27 -3 -107 -1 -179 6
-71 7 -214 13 -319 15 -104 2 -228 9 -275 15 -47 6 -236 13 -420 16 -184 2
-338 4 -342 4 -4 0 -5 75 -3 168 3 92 8 264 10 382 3 118 7 294 10 390 3 96 8
195 12 220 3 25 7 50 8 55 0 6 4 21 8 35 3 14 8 114 11 223 4 170 7 202 22
218 9 10 23 19 30 19 6 0 38 14 70 31 33 17 66 37 74 44 8 8 38 19 65 26 28 7
56 18 64 23 8 6 28 11 45 12 17 1 60 10 96 21 51 16 66 24 68 41 2 12 -1 22
-7 22 -7 0 -9 14 -5 40 l7 40 -35 0 c-19 0 -61 -9 -94 -21 -32 -11 -70 -23
-84 -26 -14 -2 -32 -7 -40 -10 -8 -3 -23 -8 -32 -9 -9 -2 -32 -13 -50 -24 -18
-11 -40 -23 -49 -26 -9 -3 -67 -29 -130 -58 -65 -30 -114 -59 -114 -67 -1 -8
-5 -27 -9 -43 -6 -19 -5 -36 3 -48 9 -14 8 -24 -3 -46 -10 -20 -16 -80 -21
-198 -3 -93 -7 -187 -9 -209 -2 -22 -9 -139 -15 -260 -6 -121 -13 -240 -16
-265 -3 -25 -7 -175 -9 -335 -3 -159 -7 -308 -11 -330 l-7 -41 -279 -2 c-154
-1 -316 -6 -360 -11 -52 -7 -123 -7 -207 -1 -70 6 -291 10 -492 9 l-365 -1 -8
44 c-4 23 -9 390 -12 813 -3 424 -7 820 -9 880 -2 61 -6 263 -10 450 -4 187
-10 343 -14 347 -4 4 -7 90 -5 190 1 101 5 230 10 288 4 58 7 112 6 120 -1 8
-3 47 -3 85 -1 39 0 274 3 523 3 250 7 455 9 458 3 2 54 6 114 10 60 3 199 11
309 19 110 7 233 11 273 9 40 -2 89 -8 108 -13 19 -5 44 -8 55 -6 10 2 24 7
29 10 6 3 10 10 10 14 0 5 -8 11 -19 14 -14 3 -17 11 -14 31 3 14 12 26 19 26
8 0 14 6 14 14 0 7 -7 19 -15 26 -12 10 -75 12 -288 7 -149 -4 -306 -8 -347
-11 -41 -2 -88 -5 -105 -7 -16 -1 -57 -1 -89 -1 l-59 2 7 83 c4 45 9 132 11
192 3 61 12 144 20 187 8 42 12 98 10 125 -3 26 -7 84 -10 128 -3 44 -7 101
-9 126 -1 25 -6 51 -10 57 -3 6 -2 14 4 17 7 5 9 84 6 248 -3 133 -7 289 -9
347 -2 61 1 112 7 122 7 11 6 24 -2 42 -8 17 -8 27 -1 32 7 4 8 35 4 89 l-7
83 238 -6 c132 -3 318 -6 414 -6 96 0 219 5 272 12 70 10 180 12 400 7 166 -3
306 -9 310 -13 4 -4 11 -37 14 -72 3 -36 15 -92 25 -124 11 -32 31 -86 46
-120 14 -34 31 -68 38 -76 7 -8 15 -27 19 -41 3 -15 23 -52 43 -83 21 -30 65
-85 98 -122 33 -37 85 -85 115 -107 30 -22 57 -44 58 -49 2 -4 11 -8 21 -8 9
0 32 -13 51 -28 19 -16 56 -40 83 -55 26 -16 47 -25 47 -21 0 3 10 0 23 -8 12
-8 33 -18 47 -21 14 -3 51 -15 82 -26 31 -12 83 -23 115 -27 32 -3 132 -7 223
-8 96 -2 207 2 265 9 63 8 122 23 160 40 33 14 71 31 85 37 14 5 41 18 60 27
19 9 62 34 94 55 33 22 71 51 86 65 14 14 43 41 64 59 21 18 67 66 102 106 35
40 64 77 64 81 0 5 15 31 32 59 18 27 41 73 51 101 10 27 27 75 37 105 10 30
26 96 35 145 10 50 19 117 21 149 2 36 -1 64 -8 73 -7 8 -8 17 -2 23 5 5 92
13 194 18 102 5 403 9 670 10z m-1008 -28 c20 0 28 -5 28 -17 -1 -10 -7 -54
-15 -98 -8 -44 -15 -100 -15 -125 0 -25 -6 -54 -14 -65 -7 -11 -23 -52 -35
-91 -12 -39 -28 -79 -36 -90 -8 -10 -38 -54 -67 -97 -29 -45 -92 -117 -147
-169 -53 -50 -105 -94 -116 -99 -11 -5 -48 -27 -82 -48 -35 -22 -63 -38 -63
-35 0 3 -9 0 -21 -6 -11 -6 -44 -18 -73 -25 -30 -8 -78 -17 -107 -20 -30 -3
-135 -5 -234 -5 -124 0 -205 6 -260 17 -44 9 -87 22 -95 28 -8 7 -33 18 -55
25 -22 7 -78 33 -125 57 -47 25 -92 51 -101 59 -8 8 -19 14 -23 14 -4 0 -34
25 -66 56 -32 31 -88 100 -124 153 -36 54 -73 115 -82 137 -9 21 -24 57 -34
79 -10 22 -23 56 -29 75 -6 19 -12 64 -13 99 l-3 64 155 3 c85 2 196 6 245 8
50 3 158 8 240 11 83 3 218 13 300 21 83 8 157 17 165 19 8 2 67 6 130 10 63
3 158 8 210 12 52 3 111 7 130 8 19 1 116 8 215 14 99 7 182 15 184 17 2 2 17
4 33 4z"/>
<g>
<path d="M12130 7419 c-14 -1 -35 -4 -47 -7 -12 -4 -33 -17 -47 -29 -14 -12
-28 -35 -32 -50 -4 -15 -11 -33 -15 -39 -5 -6 9 -27 36 -54 39 -39 47 -42 80
-37 19 3 48 16 64 29 16 13 34 33 40 46 6 13 11 36 11 53 0 21 -10 39 -32 60
-19 17 -43 29 -58 28z"/>
</g>
<g>
<path d="M11011 7380 c-17 0 -42 -11 -59 -25 -17 -14 -33 -25 -37 -25 -4 0
-14 -8 -21 -17 -7 -10 -13 -29 -14 -43 0 -17 10 -31 32 -45 18 -11 41 -26 53
-32 11 -7 38 -13 61 -13 27 0 46 6 57 18 10 10 17 29 17 43 0 13 -6 41 -14 62
-7 21 -20 47 -29 58 -10 11 -30 19 -46 19z"/>
</g>
</g>
<g>
<path d="M7221 7690 c-10 0 -20 -2 -22 -4 -3 -3 -31 -8 -64 -11 -33 -4 -78
-10 -100 -15 -23 -5 -173 -12 -335 -16 -162 -3 -304 -10 -315 -14 -11 -4 -59
-8 -108 -9 -48 0 -138 -8 -200 -17 -61 -8 -143 -17 -182 -19 -38 -2 -104 -7
-145 -10 -41 -3 -136 -10 -210 -16 -74 -5 -155 -12 -180 -15 -25 -3 -439 -6
-920 -8 -594 -2 -901 -7 -957 -15 -46 -6 -131 -14 -190 -17 -60 -3 -304 -5
-543 -5 -239 1 -466 4 -505 7 -38 3 -196 7 -350 8 -154 2 -401 8 -550 12 -148
5 -328 7 -400 6 -102 -3 -134 -7 -148 -20 -12 -10 -17 -27 -15 -46 2 -22 11
-35 31 -44 15 -7 27 -18 27 -25 0 -7 3 -77 6 -157 3 -80 7 -179 8 -220 2 -41
8 -187 16 -325 8 -159 10 -343 6 -505 -3 -140 -9 -268 -12 -285 -4 -16 -9 -79
-13 -140 -3 -65 -1 -165 7 -245 7 -78 11 -228 9 -355 -2 -121 0 -258 5 -305 4
-47 12 -139 18 -205 5 -66 13 -219 15 -340 3 -121 13 -287 22 -370 8 -82 17
-197 19 -255 2 -58 6 -148 9 -200 4 -52 8 -122 9 -155 2 -33 8 -139 14 -235 7
-96 14 -368 16 -605 3 -236 7 -486 9 -555 2 -69 7 -278 11 -465 5 -190 12
-348 18 -358 9 -17 19 -19 92 -15 46 3 87 8 93 11 6 4 37 9 69 12 33 3 111 10
174 15 71 6 138 6 175 0 33 -5 114 -17 180 -26 66 -9 184 -17 262 -19 79 -2
147 -6 151 -9 5 -3 128 -8 273 -11 145 -3 343 -10 439 -15 96 -6 193 -15 214
-21 29 -8 50 -8 77 0 21 6 104 11 186 11 81 0 159 -2 172 -5 14 -2 59 -9 101
-15 42 -6 143 -8 226 -5 82 3 176 5 209 6 33 1 114 -2 180 -6 66 -3 140 -7
165 -8 25 -1 104 2 175 6 72 5 162 15 200 22 39 7 107 16 153 20 45 4 84 10
86 14 3 4 105 6 228 4 123 -2 286 2 363 8 77 6 181 15 230 20 50 5 185 13 300
19 116 5 389 11 608 13 357 4 399 6 416 21 11 10 22 32 25 49 3 18 10 75 16
127 6 52 15 219 20 370 5 151 10 381 10 510 0 129 -2 280 -4 335 -2 55 -6 143
-10 195 -3 52 -9 156 -12 230 -3 74 -6 173 -8 220 -2 47 -6 117 -10 155 -3 39
-10 138 -15 220 -5 83 -7 242 -6 355 1 113 7 250 12 305 5 55 8 147 7 205 -1
58 -5 125 -8 150 -3 25 -7 88 -8 140 -1 52 2 145 6 205 5 61 8 200 7 309 0
162 2 203 14 216 8 9 15 25 16 36 1 10 1 34 1 52 -1 21 -7 32 -17 32 -12 0
-15 16 -17 78 -1 42 -1 91 0 107 1 17 1 91 2 165 0 74 0 137 0 140 -1 3 -1 59
1 125 1 66 1 176 0 245 -1 69 3 152 9 185 5 33 15 197 21 365 7 168 12 346 12
395 0 50 0 129 -1 178 -2 69 -5 87 -17 87 -8 0 -19 9 -25 20 -6 11 -19 20 -29
20z m-99 -131 c29 1 38 -3 44 -21 4 -13 7 -133 6 -268 -1 -135 -4 -292 -7
-350 -3 -58 -10 -172 -15 -255 -5 -82 -10 -312 -10 -510 -1 -198 -2 -407 -3
-465 l-2 -104 -271 -3 c-149 -1 -292 -7 -319 -13 -26 -6 -91 -15 -144 -20 -53
-5 -132 -12 -176 -15 -44 -3 -125 -10 -180 -15 -55 -5 -158 -14 -230 -20 -71
-7 -164 -17 -205 -23 -41 -6 -169 -10 -285 -9 -136 1 -270 -4 -380 -15 -117
-12 -262 -17 -467 -17 -164 0 -300 2 -302 5 -2 2 0 33 4 69 5 36 11 80 14 97
3 24 1 35 -11 41 -12 7 -17 31 -20 98 -3 49 -8 114 -13 144 -4 30 -7 73 -5 95
2 22 6 60 10 85 3 25 9 86 14 135 4 50 4 94 0 100 -5 5 -9 17 -9 26 0 14 16
18 108 22 59 4 125 9 147 11 22 3 71 15 110 26 38 11 101 30 139 41 56 17 78
31 116 70 26 27 55 49 64 49 9 0 19 7 23 15 3 9 20 23 37 32 17 9 61 48 99 86
37 39 67 74 67 78 0 5 13 23 28 41 16 18 49 62 73 98 25 36 53 88 63 115 11
28 22 55 27 60 4 6 15 33 24 60 9 28 22 64 30 80 7 17 19 57 26 90 7 32 13 76
14 96 0 34 3 38 30 43 17 3 163 15 325 26 162 11 305 22 317 25 12 3 104 11
205 19 101 8 244 18 318 22 74 4 214 6 311 5 96 -1 186 3 200 8 13 5 41 10 61
10z m-3145 -126 c48 -1 94 -2 101 -2 6 -1 12 -11 12 -23 0 -13 14 -78 31 -146
23 -90 28 -126 20 -136 -6 -7 -28 -13 -50 -14 -21 -1 -52 -7 -68 -13 -15 -6
-36 -18 -45 -26 -10 -9 -18 -26 -18 -37 0 -12 5 -28 10 -36 6 -10 26 -15 62
-15 29 0 89 9 133 19 44 10 90 22 103 27 17 7 22 14 17 29 -4 11 -2 20 4 20 6
0 11 8 11 18 0 10 -4 22 -9 28 -5 5 -22 47 -38 94 -15 47 -28 90 -29 95 0 6
-6 29 -12 51 -7 23 -9 50 -6 59 6 16 34 16 373 11 201 -3 432 -6 514 -6 81 0
147 -3 147 -8 0 -4 -8 -46 -19 -93 -10 -47 -24 -96 -31 -109 -7 -14 -18 -32
-25 -40 -6 -8 -20 -37 -29 -65 -10 -27 -30 -67 -44 -89 -15 -21 -31 -46 -37
-56 -5 -9 -21 -37 -34 -61 -13 -24 -49 -71 -81 -104 -32 -33 -67 -69 -77 -80
-11 -11 -43 -40 -73 -65 -30 -25 -61 -52 -70 -60 -8 -8 -38 -25 -65 -36 -28
-12 -66 -27 -86 -33 -19 -6 -46 -11 -58 -11 -13 0 -60 -9 -105 -20 -66 -16
-118 -20 -262 -20 -98 0 -188 -1 -199 0 -11 0 -65 2 -120 5 -55 3 -118 10
-140 16 -22 6 -74 22 -115 36 -41 13 -91 31 -110 39 -19 9 -45 20 -57 26 -13
6 -23 17 -23 25 0 7 -6 13 -14 13 -7 0 -61 48 -119 108 -59 59 -113 116 -120
127 -8 11 -30 50 -50 87 -20 36 -52 114 -72 173 -21 60 -38 117 -40 129 -2 12
-10 41 -19 65 -9 24 -14 47 -11 51 3 4 105 11 227 15 123 4 255 11 293 16 39
5 151 12 250 16 99 3 181 6 182 7 1 0 41 0 90 -1z m-2539 -19 c257 -2 645 -6
862 -9 217 -3 419 -8 448 -11 l52 -5 0 -38 c0 -20 4 -41 8 -46 5 -6 14 -35 22
-65 7 -30 17 -62 21 -70 4 -8 16 -35 27 -60 11 -25 22 -66 26 -92 3 -25 14
-61 25 -80 11 -18 30 -53 42 -77 12 -25 28 -52 36 -60 7 -9 55 -59 106 -111
50 -53 115 -116 142 -140 28 -25 66 -56 85 -70 19 -14 51 -32 70 -40 19 -8 37
-15 40 -15 3 -1 23 -4 45 -9 22 -4 74 -18 115 -31 62 -20 107 -25 258 -31 159
-6 182 -9 181 -23 0 -9 -4 -36 -8 -61 -4 -25 -2 -93 4 -152 7 -67 7 -114 2
-124 -5 -9 -9 -107 -8 -218 2 -110 5 -217 8 -236 3 -19 6 -48 7 -65 1 -28 -2
-30 -44 -37 -25 -3 -119 -4 -210 0 -91 4 -228 6 -305 4 -77 -1 -284 -2 -460
-2 -176 0 -459 2 -630 4 -170 3 -393 9 -495 15 -102 6 -243 13 -314 16 -71 4
-132 8 -136 10 -3 2 -53 6 -110 9 -58 3 -162 8 -233 11 -70 3 -133 8 -141 11
-7 3 -15 24 -18 47 -2 23 0 105 4 182 5 77 11 181 13 230 2 50 7 153 12 230 4
77 7 167 7 200 -1 33 -4 152 -7 265 -3 113 -8 223 -11 245 -4 22 -9 103 -11
180 -3 77 -8 175 -11 218 -3 50 -1 84 6 92 9 11 99 13 478 9z m5516 -1960 c94
-3 175 -10 180 -15 6 -5 8 -111 5 -266 -2 -142 -2 -339 1 -438 2 -99 4 -252 3
-340 -1 -88 -4 -277 -7 -420 -3 -143 -2 -332 4 -420 5 -88 15 -236 21 -330 6
-93 12 -217 14 -275 1 -58 6 -193 9 -300 4 -107 9 -201 12 -208 2 -7 -1 -124
-6 -260 -6 -136 -12 -348 -15 -472 -3 -124 -9 -259 -14 -300 -6 -41 -12 -84
-15 -95 -2 -11 -5 -26 -5 -32 -1 -8 -11 -11 -30 -7 -16 3 -75 1 -132 -5 -57
-6 -201 -13 -319 -16 -118 -3 -301 -7 -407 -10 -106 -3 -236 -10 -290 -15 -54
-6 -104 -13 -111 -15 -8 -3 -71 -8 -140 -11 -70 -4 -147 -10 -172 -13 -25 -4
-62 -2 -82 3 l-38 10 -1 81 c-1 44 -3 114 -4 155 -1 41 -3 77 -5 80 -1 3 -3
70 -5 150 -2 80 -7 172 -11 205 -4 33 -7 64 -5 69 1 5 2 59 2 120 0 61 -4 131
-9 156 -5 28 -3 82 4 142 7 53 11 132 10 175 -2 43 -6 125 -9 183 -3 58 -7
249 -9 425 -2 176 -7 326 -12 333 -4 7 -2 19 5 28 9 11 10 62 5 212 -4 108 -7
208 -6 222 0 14 0 165 0 335 0 171 -5 356 -10 411 -6 56 -12 218 -14 361 -3
143 -1 264 2 270 4 6 61 16 127 22 66 7 152 16 190 21 39 5 99 11 135 14 36 3
130 10 210 16 80 6 156 13 170 15 14 3 51 7 82 10 31 3 112 10 180 16 68 5
170 12 228 16 58 3 107 7 109 9 2 2 81 1 175 -2z m-5821 -84 c84 -1 224 -5
312 -10 88 -6 203 -12 255 -15 52 -3 142 -10 200 -16 58 -6 148 -10 200 -10
52 0 183 -2 290 -5 107 -2 260 -7 340 -9 80 -3 177 -5 215 -6 39 0 63 -3 55
-6 -8 -3 -27 -18 -43 -33 l-27 -28 24 -48 c19 -40 24 -66 26 -144 1 -52 2 -99
2 -105 -1 -5 -4 -84 -7 -175 -3 -91 -6 -205 -6 -255 0 -49 3 -191 7 -315 3
-130 10 -227 16 -231 5 -3 7 -21 4 -40 -4 -19 -8 -52 -11 -73 -2 -22 -2 -43 1
-48 3 -5 8 -82 10 -171 2 -89 8 -227 13 -307 5 -80 10 -192 10 -250 1 -58 6
-122 12 -143 5 -21 9 -66 9 -100 -1 -34 4 -120 11 -192 7 -71 12 -148 12 -170
1 -22 0 -67 -1 -100 0 -33 0 -100 2 -150 2 -49 4 -94 5 -100 1 -5 2 -82 2
-170 0 -88 4 -176 9 -197 6 -20 12 -60 15 -90 2 -29 7 -138 10 -242 2 -104 2
-200 -2 -213 l-6 -25 -236 6 c-130 4 -303 9 -386 12 -82 3 -153 8 -157 10 -5
3 -75 8 -156 10 -81 3 -192 9 -247 14 -55 5 -127 14 -160 21 -33 6 -76 13 -95
16 -19 3 -42 5 -50 6 -8 0 -91 -3 -185 -7 -93 -4 -172 -9 -175 -11 -3 -2 -26
-6 -52 -9 -31 -4 -50 -1 -57 7 -5 7 -10 22 -10 32 1 11 -2 74 -5 140 -3 66 -8
192 -11 280 -3 88 -8 239 -12 335 -4 96 -8 378 -9 625 -2 248 -7 497 -13 555
-5 58 -13 155 -16 215 -3 61 -8 139 -10 175 -2 36 -6 119 -10 185 -3 66 -8
140 -11 165 -3 25 -8 77 -11 115 -3 39 -9 186 -13 327 -5 141 -11 261 -14 266
-3 5 -8 65 -12 133 -3 68 -9 165 -13 216 -3 51 -3 103 0 116 4 13 5 69 4 123
-2 55 -1 102 2 107 2 4 73 7 156 7z m4005 -41 l93 1 -4 -70 c-3 -44 0 -76 8
-87 8 -13 9 -42 5 -98 -4 -44 -6 -83 -4 -87 2 -3 7 -98 10 -210 4 -111 10
-207 14 -211 4 -4 3 -30 -1 -56 -4 -27 -4 -64 1 -84 4 -19 6 -113 4 -208 -2
-96 -5 -196 -8 -224 -3 -27 -2 -79 3 -115 5 -36 12 -184 15 -330 4 -146 8
-422 10 -613 l3 -349 -66 6 c-36 3 -102 8 -146 11 -44 3 -154 11 -245 16 -91
6 -266 12 -390 14 -124 2 -288 7 -365 10 -77 3 -160 7 -185 7 -25 0 -67 0 -95
-1 -27 -1 -70 -1 -95 -1 -25 1 -45 1 -45 0 0 -1 -13 -3 -30 -5 -16 -2 -86 -6
-155 -10 -69 -3 -133 -8 -142 -11 -9 -3 -25 -6 -35 -8 -10 -2 -38 -6 -63 -10
-25 -3 -50 -2 -56 2 -6 4 -11 18 -11 32 0 14 -5 66 -11 115 -7 50 -17 151 -22
225 -6 74 -11 151 -11 170 0 19 1 114 2 210 2 96 0 236 -4 310 -4 74 -13 275
-20 445 -6 171 -11 393 -10 495 1 102 3 248 4 326 1 93 -2 148 -10 163 -9 17
-10 26 -1 36 7 9 9 34 5 71 -3 32 -11 64 -17 71 -6 8 -8 17 -4 21 4 4 175 8
379 9 205 0 451 1 547 1 96 0 328 1 515 1 187 1 385 5 440 10 55 4 142 9 193
10z m-1278 -2800 c27 -4 141 -8 252 -8 112 -1 273 -6 358 -12 85 -6 220 -13
300 -15 80 -2 165 -6 190 -8 25 -3 108 -10 185 -17 77 -7 143 -17 148 -23 4
-6 5 -22 1 -35 -3 -14 -7 -140 -10 -281 -3 -156 -1 -303 6 -376 7 -65 11 -132
9 -149 -1 -16 -3 -114 -3 -217 l-1 -187 -25 -4 c-14 -2 -74 -5 -135 -6 -60 -2
-113 -5 -118 -8 -4 -2 -31 -7 -60 -9 -29 -3 -110 -14 -182 -24 -98 -14 -159
-18 -245 -13 -63 3 -290 10 -505 14 -214 5 -430 12 -480 17 -49 5 -138 7 -196
5 -68 -4 -109 -2 -113 5 -3 6 -9 54 -12 109 -4 54 -8 159 -9 233 -2 74 -8 158
-14 185 -6 28 -13 71 -15 97 -3 25 -10 56 -16 68 -8 15 -9 42 -4 83 4 34 7
159 6 277 0 119 2 221 6 227 4 7 41 19 82 27 41 8 102 17 135 20 33 3 112 9
175 13 63 4 140 7 172 7 31 1 59 4 62 7 4 3 29 2 56 -2z"/>
<g>
<path d="M4525 6883 c-16 2 -46 1 -65 -4 -19 -4 -100 -11 -180 -14 -80 -3
-177 -8 -217 -10 -39 -2 -87 -6 -105 -10 -18 -3 -112 -6 -209 -8 -155 -2 -179
-4 -197 -20 -11 -10 -22 -34 -24 -54 -4 -30 -1 -36 21 -45 14 -6 103 -12 196
-15 94 -2 222 0 285 6 63 6 196 14 295 18 99 4 212 8 252 7 66 -1 72 1 75 20
2 12 0 34 -5 50 -7 21 -6 30 4 36 10 7 10 11 0 24 -9 10 -28 16 -55 15 -22 -1
-54 1 -71 4z"/>
</g>
<g>
<path d="M2550 6870 c-5 0 -10 -4 -10 -10 0 -5 5 -10 10 -10 6 0 10 5 10 10 0
6 -4 10 -10 10z"/>
</g>
</g>
</g>
</svg>
