<?xml version="1.0" standalone="no"?>
<!DOCTYPE svg PUBLIC "-//W3C//DTD SVG 20010904//EN"
 "http://www.w3.org/TR/2001/REC-SVG-20010904/DTD/svg10.dtd">
<svg version="1.0" xmlns="http://www.w3.org/2000/svg"
 width="1224.000000pt" height="2048.000000pt" viewBox="0 0 1224.000000 2048.000000"
 preserveAspectRatio="xMidYMid meet">
<metadata>
Created by potrace 1.16, written by Peter Selinger 2001-2019
</metadata>
<g transform="translate(0.000000,2048.000000) scale(0.100000,-0.100000)"
fill="#000000" stroke="none">
<g>
<path d="M6055 18259 c-11 0 -45 -7 -74 -15 -30 -8 -60 -13 -67 -10 -7 3 -23
-5 -37 -17 -13 -12 -52 -39 -85 -59 -50 -31 -68 -50 -104 -110 -42 -71 -43
-75 -49 -183 -3 -68 0 -135 7 -175 7 -36 19 -78 28 -95 9 -16 16 -35 16 -42 0
-7 25 -37 56 -67 32 -31 60 -53 64 -51 4 2 23 -7 43 -20 19 -14 55 -31 79 -39
24 -9 79 -18 124 -22 68 -6 89 -3 135 14 30 11 83 34 119 50 50 23 80 46 128
101 55 62 65 80 87 156 21 72 24 94 16 138 -5 29 -15 79 -21 112 -7 33 -24 88
-37 121 -18 45 -38 72 -71 100 -26 22 -57 44 -70 51 -12 7 -40 15 -60 19 -20
4 -42 11 -48 15 -6 5 -45 14 -85 19 -41 5 -83 9 -94 9z"/>
</g>
<g>
<path d="M6232 15460 c-9 0 -29 -10 -43 -23 -15 -12 -39 -40 -55 -62 -16 -22
-32 -42 -35 -45 -3 -3 -37 -50 -74 -105 -38 -55 -84 -121 -104 -147 -20 -26
-51 -69 -69 -95 -18 -26 -48 -70 -67 -98 -19 -27 -63 -93 -98 -145 -34 -52
-75 -115 -90 -140 -15 -25 -52 -79 -82 -120 -30 -41 -67 -93 -81 -115 -15 -22
-55 -74 -88 -115 -34 -41 -94 -118 -133 -170 -40 -52 -96 -124 -126 -160 -29
-36 -79 -102 -111 -145 -32 -44 -80 -109 -107 -145 -27 -36 -73 -91 -101 -123
-29 -33 -57 -66 -62 -75 -5 -10 -14 -21 -20 -27 -6 -5 -23 -27 -38 -47 -16
-20 -28 -41 -28 -46 0 -6 -4 -12 -9 -14 -5 -1 -40 -43 -78 -93 -37 -49 -94
-127 -125 -171 -32 -45 -62 -93 -67 -107 -5 -13 -23 -40 -39 -58 -16 -19 -57
-77 -92 -129 -34 -52 -67 -98 -72 -101 -6 -4 -8 -14 -6 -24 1 -10 -13 -35 -34
-58 -21 -22 -38 -44 -38 -49 0 -5 -16 -32 -35 -61 -19 -28 -35 -56 -35 -60 0
-5 -13 -26 -28 -46 -16 -20 -35 -52 -43 -71 -7 -19 -13 -38 -12 -41 1 -4 -9
-17 -22 -29 -14 -13 -25 -28 -25 -33 0 -6 -8 -19 -17 -29 -9 -10 -28 -40 -42
-66 -14 -27 -50 -84 -80 -128 -29 -43 -64 -101 -77 -129 -13 -27 -32 -61 -43
-75 -10 -14 -39 -56 -64 -95 -24 -38 -62 -99 -83 -135 -21 -36 -45 -74 -51
-85 -7 -11 -21 -37 -30 -57 -10 -21 -22 -36 -28 -35 -5 2 -17 -13 -27 -32 -10
-20 -36 -58 -59 -86 -22 -27 -48 -59 -57 -70 -10 -11 -39 -51 -65 -88 -26 -37
-47 -70 -47 -73 0 -2 -28 -32 -62 -67 -35 -34 -129 -131 -210 -215 -120 -125
-152 -152 -175 -152 -15 0 -39 -9 -52 -19 -22 -17 -23 -20 -11 -57 7 -21 19
-53 26 -70 8 -18 20 -34 26 -36 7 -3 28 -1 45 4 23 6 35 16 39 33 3 14 13 25
21 25 8 0 27 -7 43 -15 24 -13 35 -13 77 -1 26 8 82 20 123 28 59 10 254 13
910 12 566 -1 879 -5 970 -13 74 -7 151 -14 170 -16 19 -2 90 -11 158 -20 68
-8 127 -13 131 -11 4 3 52 -2 107 -11 64 -10 165 -15 284 -15 102 0 262 5 355
11 94 6 226 16 295 21 69 5 179 12 245 15 66 4 134 8 150 10 17 2 93 9 170 15
77 7 226 12 330 13 105 0 242 -1 305 -3 63 -1 144 -9 180 -16 36 -7 110 -15
165 -18 55 -4 156 -8 225 -11 69 -2 169 -9 223 -16 54 -6 122 -8 150 -5 29 4
59 7 67 8 8 0 113 -3 233 -6 137 -4 242 -12 283 -22 36 -8 69 -12 75 -8 5 3
32 0 60 -6 27 -7 57 -19 65 -27 12 -12 20 -13 37 -5 12 5 30 13 40 16 12 4 17
16 17 39 0 25 -15 54 -61 116 -33 46 -64 93 -70 104 -5 12 -15 31 -21 42 -7
11 -39 59 -70 107 -32 49 -58 90 -58 92 0 3 -13 24 -29 48 -16 24 -39 61 -52
83 -12 22 -34 60 -47 85 -14 25 -31 56 -38 70 -8 14 -14 30 -14 36 0 6 -9 22
-19 36 -11 13 -31 44 -44 69 -13 24 -37 67 -52 94 -15 28 -44 79 -65 115 -21
36 -45 83 -54 105 -9 21 -21 42 -26 45 -5 3 -36 57 -69 120 -32 63 -77 150
-99 193 -22 43 -44 83 -50 90 -5 6 -20 37 -33 67 -13 30 -47 99 -76 153 -29
54 -53 104 -53 110 0 7 -15 41 -34 77 -18 36 -43 83 -56 105 -12 22 -32 56
-43 75 -11 19 -40 73 -65 120 -25 47 -71 135 -102 195 -32 61 -78 146 -102
190 -24 44 -54 96 -66 115 -12 19 -47 82 -78 140 -32 58 -72 128 -89 155 -17
28 -44 61 -58 75 -15 14 -27 29 -27 34 0 4 -20 36 -45 70 -25 33 -49 66 -53
71 -5 6 -13 18 -18 27 -5 9 -25 35 -44 58 -19 24 -63 76 -97 116 -35 40 -63
78 -63 84 0 6 -17 29 -38 53 -21 23 -50 61 -65 85 -15 23 -32 42 -37 42 -6 0
-10 9 -10 19 0 11 -3 21 -7 23 -5 2 -27 26 -50 53 -23 28 -59 75 -81 105 -22
30 -56 75 -77 100 -20 25 -84 106 -142 180 -58 74 -120 152 -137 172 -17 20
-57 74 -89 120 -32 46 -69 99 -82 118 -14 19 -34 54 -45 77 -11 23 -25 45 -31
49 -6 3 -24 33 -39 65 -15 33 -33 66 -40 74 -7 9 -10 18 -7 22 4 3 2 14 -4 24
-5 11 -17 19 -27 19z m2 -235 c18 -33 51 -85 72 -117 22 -31 71 -98 110 -150
39 -51 90 -120 114 -153 24 -33 49 -65 54 -71 6 -6 20 -22 32 -36 11 -13 55
-69 97 -123 43 -55 94 -121 115 -146 20 -25 48 -60 62 -78 14 -19 43 -59 65
-91 22 -31 70 -96 108 -143 37 -46 67 -88 67 -92 0 -4 33 -46 73 -94 39 -48
97 -120 127 -160 30 -40 69 -90 86 -110 17 -20 69 -94 116 -166 47 -71 98
-152 112 -180 15 -27 37 -68 49 -90 13 -22 41 -74 64 -115 22 -41 50 -93 63
-115 12 -22 45 -83 71 -135 27 -52 63 -120 80 -150 17 -30 70 -132 119 -226
49 -94 96 -184 105 -200 8 -16 28 -56 44 -89 15 -33 47 -96 71 -140 23 -44 49
-93 57 -110 9 -16 56 -102 104 -191 49 -88 89 -163 89 -167 0 -3 23 -45 50
-94 28 -48 54 -95 59 -103 5 -8 37 -68 70 -132 34 -65 75 -140 91 -168 17 -28
30 -53 30 -56 0 -3 8 -18 18 -32 11 -15 32 -52 48 -82 15 -30 45 -81 66 -112
21 -31 38 -61 38 -67 0 -5 3 -11 8 -13 4 -2 19 -20 35 -40 15 -20 27 -40 27
-43 0 -4 13 -25 28 -48 16 -23 41 -64 56 -90 l27 -48 -63 2 c-35 1 -71 6 -80
11 -10 4 -103 10 -208 12 -105 2 -194 6 -197 10 -3 3 -12 1 -18 -4 -7 -6 -68
-10 -136 -11 -68 0 -142 3 -164 6 -22 3 -119 8 -215 11 -96 3 -182 8 -190 11
-8 3 -35 6 -60 8 -25 1 -76 6 -115 10 -38 4 -77 11 -86 16 -9 4 -137 8 -285 8
-148 0 -285 1 -305 1 -19 0 -73 -4 -120 -10 -46 -5 -116 -14 -154 -19 -39 -6
-143 -13 -230 -16 -88 -3 -200 -10 -250 -15 -49 -5 -124 -12 -165 -15 -41 -3
-149 -9 -240 -13 -91 -5 -205 -7 -255 -5 -49 1 -126 7 -170 13 -44 5 -123 15
-175 20 -52 6 -122 13 -155 15 -33 2 -85 6 -115 9 -30 3 -75 8 -100 12 -25 4
-63 9 -85 11 -22 2 -168 6 -325 7 -157 2 -546 4 -865 5 -319 0 -602 -1 -630
-3 -27 -2 -77 -9 -110 -15 -33 -6 -79 -11 -102 -11 -24 0 -43 4 -43 8 0 4 17
27 38 52 20 24 48 53 61 64 13 12 31 30 40 41 9 11 34 38 57 60 22 22 43 48
47 58 4 9 17 22 30 28 13 6 32 25 42 42 10 18 33 48 51 67 18 19 77 94 131
167 54 72 107 144 118 158 11 15 29 45 40 66 11 20 31 57 44 81 13 24 41 64
62 89 22 26 39 50 39 54 0 5 10 22 23 39 12 17 31 51 42 76 10 25 29 56 42 71
13 14 23 29 23 33 0 5 21 41 48 80 26 39 52 79 57 88 6 8 24 35 41 59 17 24
53 85 79 134 27 50 56 101 67 114 10 13 18 29 18 36 0 7 7 19 16 26 9 7 26 32
38 54 11 23 48 82 81 131 33 49 64 96 70 104 5 9 19 31 30 49 11 18 43 69 72
112 29 43 57 84 63 91 6 7 35 52 64 100 30 49 89 135 132 193 42 58 105 138
140 177 35 40 64 77 64 83 0 5 19 30 42 55 24 25 63 70 89 101 26 30 54 68 63
85 9 16 22 38 29 49 6 11 36 46 65 79 30 32 65 77 79 100 14 22 41 57 60 78
19 20 40 45 47 56 6 11 39 56 74 101 34 44 74 93 87 107 14 15 25 33 25 39 0
7 7 15 15 19 8 3 15 12 15 19 0 8 10 22 22 33 11 10 40 49 64 85 24 36 59 85
79 109 20 24 49 69 65 100 16 31 35 62 43 68 8 7 21 27 28 45 7 18 27 50 44
72 17 22 54 69 82 105 27 36 55 75 62 87 6 13 34 44 62 70 28 26 60 66 71 88
12 22 34 55 49 73 16 18 29 38 29 45 0 7 15 -15 34 -48z"/>
<g>
<path d="M7168 13539 c-13 0 -36 -9 -53 -20 -16 -10 -36 -26 -42 -36 -7 -9
-13 -32 -13 -51 0 -18 5 -42 10 -53 6 -10 24 -26 40 -34 16 -8 49 -15 73 -15
40 0 45 3 60 35 9 20 17 48 17 64 0 15 -7 42 -16 60 -8 17 -24 36 -34 41 -10
6 -29 10 -42 9z"/>
</g>
<g>
<path d="M5071 13489 c-3 0 -15 -5 -26 -10 -11 -6 -31 -29 -43 -52 -16 -30
-21 -51 -16 -72 5 -23 17 -35 53 -53 29 -15 54 -20 66 -16 11 4 32 18 48 32
17 17 27 36 27 55 0 16 -10 46 -21 67 -15 27 -30 40 -52 44 -16 3 -32 6 -36 5z"/>
</g>
<g>
<path d="M6270 13160 c-15 0 -35 -9 -45 -20 -11 -12 -15 -28 -12 -42 3 -13 26
-81 52 -153 26 -71 53 -148 59 -170 7 -22 15 -47 18 -55 3 -8 10 -31 17 -51 6
-19 11 -45 11 -57 0 -12 4 -30 10 -40 5 -9 21 -55 36 -102 15 -47 30 -89 33
-95 3 -5 7 -14 8 -20 1 -5 12 -39 23 -75 12 -36 32 -92 45 -125 13 -33 31 -86
40 -118 9 -32 15 -61 12 -63 -3 -3 -56 -7 -118 -10 -63 -2 -128 -4 -146 -4
-23 0 -37 -7 -51 -28 -11 -15 -22 -37 -26 -49 -5 -16 -1 -25 16 -37 12 -9 37
-16 54 -16 17 0 51 7 75 16 34 12 69 14 153 10 61 -3 120 -3 132 0 12 3 27 17
33 30 6 14 11 36 11 49 0 13 -4 26 -8 29 -5 3 -14 31 -21 63 -7 32 -16 67 -21
78 -5 11 -23 62 -39 113 -17 51 -37 107 -45 125 -8 17 -25 61 -39 97 -14 36
-28 81 -32 100 -4 19 -27 100 -52 180 -25 80 -51 159 -58 175 -7 17 -21 57
-30 90 -10 33 -21 65 -25 70 -4 6 -10 25 -14 44 -3 19 -11 40 -17 48 -6 7 -24
13 -39 13z"/>
</g>
<g>
<path d="M5184 11364 c-29 4 -49 0 -72 -14 -26 -16 -32 -26 -32 -55 0 -28 5
-37 23 -44 12 -4 137 -12 277 -17 140 -5 354 -7 475 -4 121 2 290 4 375 4 85
0 263 -2 395 -3 132 -2 245 -7 251 -12 7 -5 24 -5 43 2 20 7 53 9 84 4 29 -3
97 -9 151 -12 55 -2 108 -9 118 -14 11 -6 24 -6 35 2 10 6 24 23 31 37 6 14
12 34 12 43 0 10 -10 30 -23 45 -19 22 -27 25 -43 16 -11 -6 -69 -8 -139 -6
-66 2 -147 3 -180 4 -33 0 -292 -2 -575 -4 -283 -2 -573 -4 -645 -4 -71 -1
-159 3 -194 9 -36 5 -87 10 -115 9 -28 0 -87 2 -131 4 -44 3 -98 8 -121 10z"/>
</g>
</g>
<g>
<path d="M3235 9966 c-49 0 -121 -3 -160 -8 -38 -4 -113 -10 -165 -14 -52 -4
-120 -7 -152 -5 -39 1 -66 -4 -89 -17 -18 -10 -34 -23 -36 -29 -2 -6 6 -20 18
-32 18 -17 31 -19 73 -15 28 3 87 7 130 10 44 2 84 9 90 13 6 5 47 5 96 0 47
-5 105 -9 130 -8 25 1 59 -2 77 -6 29 -7 33 -5 39 19 4 17 12 25 23 24 12 -2
16 5 16 32 l0 35 -90 1z"/>
</g>
<g>
<path d="M6510 9950 c-9 0 -22 -6 -28 -12 -7 -7 -25 -14 -40 -16 -15 -1 -99
-5 -187 -8 -88 -2 -169 -5 -180 -5 -11 0 -40 -6 -65 -13 -31 -9 -46 -19 -48
-32 -1 -10 2 -25 7 -33 8 -12 30 -13 153 -2 78 6 187 12 240 13 63 0 103 -4
112 -11 10 -8 21 -9 33 -3 10 5 23 7 29 5 6 -2 14 6 18 19 3 13 6 31 6 40 0
10 -8 27 -17 38 -10 11 -25 20 -33 20z"/>
</g>
<g>
<path d="M7139 9943 c-135 4 -183 2 -208 -9 -29 -12 -32 -17 -26 -41 4 -16 12
-34 18 -41 7 -9 21 -11 41 -7 17 4 42 9 56 11 14 2 59 4 100 5 41 0 104 -2
140 -5 36 -4 88 -11 115 -16 28 -5 80 -12 118 -16 65 -6 67 -5 67 16 0 13 8
29 17 35 17 13 17 14 -1 33 -16 19 -28 20 -129 18 -62 -2 -117 0 -122 4 -6 5
-89 10 -186 13z"/>
</g>
<g>
<path d="M5443 9940 c-21 0 -44 -4 -51 -9 -8 -4 -48 -9 -90 -10 -42 -1 -120
-9 -172 -17 -52 -9 -103 -20 -112 -25 -10 -6 -18 -20 -18 -34 0 -14 7 -26 19
-30 11 -3 43 -3 73 0 29 3 85 11 123 16 39 5 106 9 150 8 44 -1 102 -7 130
-14 32 -9 56 -10 67 -4 10 5 25 23 33 39 8 16 15 33 15 38 0 5 -29 17 -65 26
-35 9 -81 16 -102 16z"/>
</g>
<g>
<path d="M4438 9930 c-2 0 -7 -2 -10 -5 -2 -3 -123 -7 -266 -9 -221 -3 -266
-6 -287 -20 -14 -9 -25 -23 -25 -31 0 -7 7 -21 16 -29 8 -9 30 -16 47 -16 18
0 46 4 63 9 17 5 50 5 73 1 23 -4 41 -3 41 2 0 5 46 6 108 3 59 -4 121 -8 137
-9 17 -2 42 -7 56 -11 17 -4 30 -2 34 5 4 6 18 15 31 20 16 6 24 17 24 33 0
13 -8 31 -18 40 -10 10 -21 17 -24 17z"/>
</g>
<g>
<path d="M9149 9903 c-25 4 -48 5 -51 2 -3 -3 -92 -10 -198 -16 -107 -6 -202
-15 -212 -20 -10 -5 -18 -18 -18 -28 0 -10 6 -23 13 -29 8 -7 66 -8 172 -3
119 5 178 4 230 -6 39 -8 104 -15 145 -17 41 -2 83 0 93 5 9 6 17 20 17 33 0
13 -9 35 -20 49 -18 23 -28 26 -73 24 -29 -1 -72 2 -98 6z"/>
</g>
<g>
<path d="M8071 9882 c-163 5 -165 5 -189 -19 -21 -21 -22 -25 -9 -44 13 -18
28 -21 143 -25 71 -3 143 -7 159 -10 17 -2 54 -8 83 -12 51 -8 54 -7 63 15 5
14 9 35 9 48 0 13 -5 27 -12 31 -6 4 -27 8 -47 10 -20 1 -110 4 -200 6z"/>
</g>
<g>
<path d="M3345 9293 c-22 2 -125 0 -229 -4 -168 -7 -191 -9 -208 -27 -13 -12
-20 -33 -20 -55 0 -21 7 -44 17 -53 9 -10 27 -33 40 -53 12 -20 30 -42 39 -50
9 -7 16 -19 16 -26 0 -7 20 -43 45 -79 25 -37 45 -71 45 -75 0 -3 13 -22 28
-41 16 -19 31 -42 34 -50 3 -9 34 -53 69 -99 35 -46 71 -93 79 -104 8 -12 36
-46 62 -75 26 -30 48 -59 48 -65 0 -7 10 -23 23 -37 12 -14 54 -63 92 -110 39
-47 79 -94 90 -105 12 -11 46 -54 78 -95 31 -41 65 -86 76 -100 11 -14 39 -49
63 -79 24 -30 54 -70 68 -90 14 -20 38 -57 53 -83 15 -26 33 -51 41 -55 7 -4
21 -24 31 -43 10 -19 31 -51 46 -71 16 -20 29 -41 29 -47 0 -5 11 -17 25 -26
14 -9 25 -22 25 -29 0 -7 23 -40 50 -74 28 -34 50 -66 50 -70 0 -5 16 -26 35
-47 19 -21 37 -46 40 -56 3 -10 16 -29 28 -42 12 -13 50 -61 85 -106 34 -45
62 -86 62 -92 0 -5 4 -10 9 -10 5 0 17 -20 28 -45 10 -25 21 -45 25 -45 4 0
20 -21 35 -47 15 -27 30 -50 34 -53 4 -3 20 -26 35 -51 16 -26 48 -71 70 -100
23 -30 56 -66 73 -82 17 -15 39 -45 47 -67 9 -22 20 -40 25 -40 5 0 15 -12 23
-27 8 -16 36 -55 63 -88 27 -33 61 -73 77 -90 15 -16 33 -43 41 -60 7 -16 24
-43 39 -58 14 -15 26 -32 26 -37 0 -5 15 -24 33 -42 18 -18 46 -51 62 -73 16
-22 32 -42 35 -45 3 -3 27 -34 53 -70 26 -36 68 -92 93 -125 25 -33 66 -87 92
-121 26 -34 82 -100 124 -148 42 -48 93 -111 113 -141 19 -30 41 -58 48 -62 7
-4 20 -21 29 -38 9 -16 30 -56 47 -88 17 -32 40 -70 50 -85 10 -15 35 -52 55
-82 20 -30 50 -73 66 -95 16 -22 43 -67 60 -100 17 -33 45 -85 63 -115 31 -51
36 -55 74 -58 l40 -3 23 60 c13 35 28 61 36 61 8 0 17 13 20 30 4 18 37 62 90
117 46 48 84 95 84 103 0 8 31 52 69 97 37 46 78 104 91 130 13 27 32 60 42
76 10 15 26 39 36 55 10 15 27 49 37 76 11 27 30 63 44 79 15 17 43 56 64 86
21 31 68 100 104 155 35 54 69 111 75 127 5 16 15 29 22 29 7 0 25 18 42 41
16 23 39 53 51 68 13 14 32 37 43 50 11 13 20 29 20 36 0 6 16 27 36 46 19 18
45 54 56 79 11 25 29 53 39 63 11 10 19 26 19 36 0 10 7 24 15 31 8 7 15 16
15 21 0 5 20 38 45 75 25 36 45 71 45 77 0 7 26 37 57 68 32 31 64 62 71 70 7
8 20 21 28 29 8 8 31 35 50 60 18 25 34 50 34 55 0 6 16 23 35 38 19 15 35 33
35 39 0 6 12 25 28 43 15 18 36 45 47 60 11 16 43 58 71 94 28 36 58 80 67 96
8 17 26 41 38 55 13 14 37 46 54 70 16 25 34 52 40 61 5 9 20 34 33 55 12 22
31 53 41 69 10 17 37 50 60 75 22 25 41 48 41 51 0 4 22 31 50 60 27 30 50 62
50 71 0 10 11 25 24 33 13 9 27 26 30 38 3 12 24 43 48 68 24 26 58 67 76 92
17 26 32 51 32 56 0 6 12 23 26 38 15 15 38 46 53 67 14 22 36 56 47 77 12 21
37 51 57 68 19 17 47 57 63 89 15 31 35 62 44 69 10 7 23 26 30 43 7 16 16 30
21 30 5 0 27 25 49 55 23 31 68 84 102 118 33 34 68 62 76 62 9 0 20 13 25 29
7 22 6 35 -7 57 -16 27 -16 30 11 71 15 24 33 55 39 69 7 15 28 39 48 55 20
16 36 35 36 42 0 6 4 12 9 12 5 0 14 15 22 33 7 17 28 56 48 85 31 48 33 55
21 77 -7 14 -16 23 -18 20 -3 -3 -10 -1 -16 4 -7 6 -29 6 -56 0 -25 -5 -103
-9 -175 -9 -71 0 -206 3 -300 6 -93 3 -197 6 -230 7 -33 0 -121 -5 -195 -12
-82 -7 -201 -10 -305 -6 -93 3 -208 8 -253 11 -46 3 -98 11 -115 16 -18 6
-135 12 -262 13 -126 2 -363 -1 -525 -6 -162 -5 -347 -14 -410 -19 -63 -6
-187 -17 -275 -26 -91 -9 -301 -17 -485 -20 -179 -2 -406 -6 -505 -8 -99 -3
-243 -7 -320 -11 -78 -4 -251 -2 -390 5 -137 7 -263 12 -280 13 -16 0 -70 4
-119 9 -49 5 -123 11 -165 13 -42 3 -92 7 -111 10 -19 3 -55 7 -80 9 -25 2
-90 7 -145 10 -55 3 -165 8 -245 11 -80 3 -163 7 -185 8z m4103 -90 c97 -2
240 -10 317 -18 77 -8 151 -17 164 -21 14 -3 152 -5 308 -5 156 0 288 3 293 6
5 3 92 6 192 6 101 1 282 -2 403 -6 121 -4 223 -10 227 -14 3 -3 -14 -35 -38
-71 -24 -36 -68 -101 -97 -145 -30 -44 -60 -91 -67 -105 -7 -14 -33 -50 -56
-80 -24 -30 -52 -66 -62 -80 -10 -14 -35 -49 -55 -77 -21 -29 -37 -58 -37 -64
0 -6 -39 -48 -86 -94 -85 -82 -86 -83 -80 -122 6 -34 4 -41 -25 -68 -17 -17
-57 -68 -88 -115 -32 -47 -85 -126 -118 -175 -34 -50 -68 -97 -77 -104 -9 -7
-16 -21 -16 -30 0 -9 -24 -42 -52 -73 -29 -31 -73 -81 -98 -111 -25 -30 -60
-74 -78 -98 -18 -24 -53 -72 -77 -107 -25 -34 -45 -67 -45 -73 0 -6 -13 -28
-28 -48 -16 -20 -35 -49 -44 -66 -8 -16 -21 -41 -29 -54 -8 -14 -26 -36 -41
-49 -16 -13 -28 -28 -28 -34 0 -5 -14 -23 -30 -40 -17 -16 -38 -44 -46 -62 -9
-17 -33 -49 -54 -71 -21 -22 -48 -56 -61 -76 -13 -20 -55 -77 -94 -125 -38
-49 -105 -125 -149 -169 -57 -58 -90 -103 -122 -165 -24 -47 -50 -94 -57 -104
-6 -11 -18 -26 -25 -35 -7 -9 -42 -61 -78 -116 -37 -55 -81 -116 -99 -135 -18
-19 -59 -71 -93 -115 -33 -44 -72 -102 -86 -129 -15 -27 -37 -63 -50 -80 -13
-17 -33 -50 -44 -72 -12 -23 -28 -44 -36 -47 -8 -3 -31 -32 -52 -64 -21 -32
-54 -94 -75 -139 -21 -44 -47 -91 -57 -105 -11 -13 -36 -55 -57 -94 -21 -38
-62 -93 -90 -122 -28 -28 -57 -64 -65 -80 -8 -15 -28 -46 -45 -68 -16 -22 -41
-49 -54 -59 -13 -11 -31 -32 -41 -48 l-18 -29 -30 53 c-16 29 -39 69 -50 88
-10 19 -44 68 -74 108 -31 41 -79 113 -107 161 -28 48 -78 123 -111 167 -32
43 -64 84 -69 91 -6 6 -18 25 -28 41 -10 16 -46 60 -79 98 -34 38 -91 105
-128 149 -37 44 -70 87 -74 95 -3 8 -22 38 -43 66 -21 28 -43 57 -51 65 -7 8
-31 39 -54 69 -23 30 -53 69 -67 85 -14 17 -43 51 -64 77 -21 26 -56 71 -78
99 -22 29 -58 79 -80 110 -22 32 -80 110 -130 175 -49 64 -107 140 -127 168
-21 28 -49 72 -64 99 -15 26 -31 47 -36 47 -4 0 -8 4 -8 10 0 5 -21 40 -47 77
-26 38 -75 109 -110 158 -34 50 -92 131 -128 180 -37 50 -74 101 -83 115 -9
14 -31 41 -49 60 -18 19 -33 38 -33 43 0 4 -25 41 -55 82 -30 40 -55 77 -55
80 0 3 -18 28 -40 56 -22 28 -40 54 -40 58 0 4 -18 27 -40 52 -22 24 -40 47
-40 51 0 4 -28 44 -63 90 -34 46 -71 97 -81 113 -11 17 -45 62 -77 100 -31 39
-65 79 -75 90 -11 11 -36 41 -56 67 -21 25 -38 51 -38 57 0 6 -3 11 -7 11 -5
0 -42 44 -83 97 -41 52 -94 119 -118 147 -24 28 -64 82 -90 120 -26 37 -54 78
-62 91 -8 13 -37 61 -65 107 -27 45 -52 88 -54 93 -2 6 -15 24 -28 41 -12 17
-23 36 -23 42 0 6 15 13 33 16 17 3 77 7 132 10 55 2 219 0 365 -5 146 -6 281
-12 300 -14 19 -2 78 -6 130 -9 52 -3 136 -11 185 -17 50 -7 110 -13 135 -14
25 -1 124 -5 220 -9 96 -4 209 -9 250 -11 41 -2 161 1 265 5 105 5 280 12 390
15 110 4 338 8 506 9 168 1 311 6 319 11 7 4 79 15 159 23 80 8 175 16 211 17
36 2 187 6 335 10 149 4 271 9 273 10 2 1 83 1 180 -2z"/>
<g>
<path d="M6530 8682 c-197 4 -339 2 -460 -7 -96 -7 -215 -18 -265 -24 -49 -6
-153 -13 -229 -16 -77 -4 -143 -8 -148 -11 -4 -3 -79 -4 -165 -3 -87 1 -189 3
-226 3 -47 1 -70 -3 -76 -13 -5 -7 -9 -33 -9 -57 -1 -38 2 -45 22 -50 13 -3
97 -6 187 -7 90 0 249 4 353 11 103 6 205 16 226 22 20 5 103 12 183 15 81 2
215 10 299 17 84 6 169 12 188 11 19 -1 85 -4 145 -7 61 -4 279 -8 486 -11
l376 -4 16 35 c10 19 17 38 17 42 0 4 -7 16 -16 27 -13 17 -28 20 -122 22 -59
1 -159 2 -222 2 -63 0 -151 -1 -195 -1 -44 -1 -208 1 -365 4z"/>
</g>
<g>
<path d="M6161 7989 c-14 -1 -60 -6 -101 -11 -41 -4 -86 -10 -100 -12 -14 -3
-43 -9 -64 -14 -21 -6 -43 -17 -48 -24 -5 -7 -6 -31 -3 -53 3 -22 24 -98 46
-170 22 -71 44 -139 49 -150 4 -11 18 -49 30 -85 12 -36 35 -112 51 -170 16
-58 36 -135 44 -171 8 -37 23 -91 35 -120 11 -30 20 -60 20 -68 0 -8 9 -32 19
-55 11 -23 28 -63 38 -91 17 -43 23 -50 50 -53 16 -2 35 3 41 11 6 7 12 27 14
43 1 16 -15 79 -36 139 -21 61 -43 116 -49 123 -6 8 -11 21 -12 30 -1 10 -7
42 -14 72 -7 30 -17 71 -21 90 -5 19 -18 76 -30 125 -12 50 -46 162 -75 250
-30 88 -58 177 -63 198 -10 35 -9 37 16 44 15 4 59 6 97 5 39 0 87 4 107 10
34 10 37 13 31 42 -3 17 -14 39 -25 49 -11 9 -32 16 -47 16z"/>
</g>
<g>
<path d="M7353 6625 c-27 7 -47 8 -69 0 -17 -5 -38 -16 -47 -24 -12 -10 -15
-25 -12 -59 3 -25 12 -56 20 -69 11 -17 25 -23 50 -23 18 0 45 4 59 10 14 5
32 23 41 39 8 17 15 43 15 58 0 15 -4 34 -9 42 -5 8 -27 20 -48 26z"/>
</g>
<g>
<path d="M5216 6590 c-16 0 -36 -10 -51 -26 -19 -20 -25 -38 -25 -70 0 -26 6
-49 16 -59 9 -9 27 -23 39 -31 15 -10 33 -12 50 -8 20 5 33 20 50 55 12 27 20
59 18 72 -3 12 -19 33 -37 45 -18 12 -45 22 -60 22z"/>
</g>
</g>
<g>
<path d="M6325 2915 c-55 1 -109 0 -120 -2 -11 -2 -34 -11 -52 -19 -17 -8 -34
-14 -39 -14 -4 0 -31 -18 -61 -41 -30 -22 -58 -50 -63 -62 -6 -12 -14 -29 -19
-37 -5 -8 -13 -26 -19 -40 -6 -14 -18 -55 -26 -91 -9 -36 -16 -105 -15 -155 0
-56 7 -107 17 -139 10 -27 27 -68 39 -90 11 -22 30 -48 41 -58 10 -10 46 -34
78 -54 57 -36 63 -37 164 -41 58 -2 134 1 170 7 36 5 78 13 94 17 16 4 46 18
65 31 20 13 53 40 74 59 20 20 37 42 37 49 0 7 17 35 38 62 l37 48 0 131 c0
88 -4 136 -12 146 -7 8 -19 42 -27 77 -8 34 -22 74 -31 88 -10 15 -53 42 -108
68 -51 24 -108 46 -127 50 -19 4 -80 8 -135 10z"/>
</g>
</g>
</svg>
