<?xml version="1.0" standalone="no"?>
<!DOCTYPE svg PUBLIC "-//W3C//DTD SVG 20010904//EN"
 "http://www.w3.org/TR/2001/REC-SVG-20010904/DTD/svg10.dtd">
<svg version="1.0" xmlns="http://www.w3.org/2000/svg"
 width="1822.000000pt" height="2048.000000pt" viewBox="0 0 1822.000000 2048.000000"
 preserveAspectRatio="xMidYMid meet">
<metadata>
Created by potrace 1.16, written by Peter Selinger 2001-2019
</metadata>
<g transform="translate(0.000000,2048.000000) scale(0.100000,-0.100000)"
fill="#000000" stroke="none">
<g>
<path d="M9138 18939 c-2 0 -14 -6 -28 -12 -14 -6 -27 -15 -30 -19 -3 -4 -41
-25 -85 -47 -43 -22 -82 -38 -86 -35 -4 2 -29 -7 -56 -20 -26 -13 -71 -32
-100 -41 -33 -11 -59 -27 -70 -43 -16 -24 -18 -52 -17 -267 1 -132 5 -253 9
-270 4 -16 11 -120 16 -230 5 -110 14 -211 19 -225 5 -14 10 -38 10 -55 -1
-16 -3 -93 -5 -170 -3 -77 -2 -191 3 -253 4 -62 4 -119 0 -126 -5 -8 -4 -26 2
-40 7 -18 5 -35 -5 -60 -9 -20 -15 -67 -15 -110 0 -41 4 -85 9 -98 6 -15 4
-50 -6 -98 -11 -56 -13 -119 -9 -250 3 -96 8 -188 10 -205 3 -16 8 -127 12
-245 3 -118 8 -249 10 -290 3 -41 6 -113 9 -160 2 -47 8 -132 14 -189 6 -57 9
-107 6 -110 -2 -4 2 -97 10 -207 8 -109 15 -224 15 -255 l0 -56 -46 -13 c-26
-8 -71 -23 -101 -35 -29 -12 -56 -25 -60 -29 -3 -3 -16 -6 -27 -6 -12 0 -64
-15 -116 -34 -52 -18 -104 -37 -115 -41 -11 -4 -40 -15 -65 -25 -25 -10 -62
-21 -84 -24 -21 -4 -67 -20 -101 -36 -34 -16 -81 -33 -103 -40 -23 -6 -44 -15
-47 -20 -3 -6 -13 -10 -20 -10 -8 0 -39 -11 -69 -25 -30 -14 -57 -25 -60 -25
-2 0 -62 -28 -133 -62 -70 -34 -138 -61 -151 -60 -13 1 -41 -7 -62 -18 -21
-11 -41 -24 -44 -29 -4 -5 -21 -13 -39 -16 -17 -4 -44 -18 -58 -32 -19 -17
-25 -31 -21 -46 3 -11 14 -31 25 -44 12 -13 27 -23 35 -23 10 0 13 -8 9 -27
-3 -16 1 -52 9 -82 7 -30 17 -91 21 -135 3 -45 6 -100 5 -123 0 -24 -2 -58 -3
-77 -2 -19 3 -42 11 -51 8 -10 13 -33 11 -56 -2 -28 1 -39 11 -39 8 0 25 -13
38 -30 14 -16 33 -29 43 -30 9 0 25 -4 35 -9 9 -5 35 -14 57 -21 22 -6 78 -28
125 -47 47 -20 90 -39 95 -43 6 -4 48 -15 95 -24 47 -9 108 -23 135 -31 28 -8
75 -22 105 -30 30 -9 69 -21 85 -26 17 -6 48 -15 70 -19 22 -4 58 -17 80 -29
21 -11 49 -21 61 -21 12 0 32 -9 45 -19 14 -10 45 -25 69 -32 25 -7 50 -16 55
-19 6 -4 47 -20 93 -35 45 -15 82 -31 82 -35 0 -4 16 -11 36 -15 20 -3 65 -20
101 -36 35 -16 70 -29 77 -29 7 0 40 -16 72 -35 32 -19 63 -35 70 -35 7 0 36
-11 66 -25 29 -14 66 -32 82 -41 20 -10 32 -12 40 -4 5 5 14 10 18 10 4 0 8
-6 8 -13 0 -7 16 -19 35 -26 19 -7 35 -16 35 -20 0 -4 28 -20 63 -35 34 -16
96 -44 137 -63 41 -19 84 -40 95 -46 11 -5 45 -24 75 -40 30 -16 64 -35 75
-42 11 -6 34 -15 50 -19 17 -4 53 -18 80 -31 28 -12 95 -42 150 -65 55 -23
114 -48 130 -57 17 -8 57 -24 90 -35 33 -11 67 -26 75 -32 8 -7 31 -17 50 -23
19 -6 60 -21 90 -33 30 -12 73 -25 95 -30 22 -4 78 -20 125 -35 47 -15 107
-36 134 -46 27 -11 57 -19 67 -19 11 0 27 -4 37 -9 9 -5 55 -23 102 -42 47
-18 90 -35 95 -39 6 -4 34 -15 64 -25 34 -11 55 -24 58 -36 3 -10 21 -27 40
-39 19 -11 49 -20 66 -19 18 0 44 8 59 17 15 9 50 31 77 49 28 18 53 28 55 24
3 -4 5 -30 4 -57 0 -27 2 -80 6 -119 4 -38 3 -91 -2 -116 -5 -26 -5 -54 -1
-62 5 -8 11 -111 14 -228 3 -118 7 -225 10 -239 3 -14 8 -144 11 -290 3 -146
9 -286 14 -312 5 -26 9 -131 8 -235 0 -103 1 -208 2 -233 2 -25 3 -63 3 -85 0
-22 -3 -190 -6 -373 l-6 -334 42 -39 c23 -21 50 -39 60 -39 10 0 34 -12 52
-26 19 -14 32 -31 29 -39 -3 -8 29 -39 83 -79 48 -36 95 -66 105 -66 9 0 36
-16 60 -35 23 -19 50 -40 58 -47 9 -8 31 -20 50 -28 19 -8 80 -38 135 -68 55
-30 104 -58 110 -63 5 -5 19 -9 31 -9 12 0 28 -9 35 -21 8 -11 35 -33 61 -47
25 -15 85 -53 131 -85 47 -32 93 -60 102 -61 9 -1 20 -8 24 -15 4 -6 23 -20
42 -31 19 -10 49 -25 66 -34 18 -8 50 -28 70 -43 21 -15 40 -31 41 -35 2 -5 9
-8 16 -8 7 0 37 -13 67 -30 30 -16 62 -30 72 -30 9 0 17 -6 17 -14 0 -8 15
-23 33 -34 17 -11 82 -45 142 -77 61 -31 117 -63 125 -70 8 -7 127 -63 265
-124 137 -61 260 -111 272 -111 12 0 33 4 47 10 21 8 26 16 26 44 0 21 6 36
15 40 8 3 15 18 15 33 0 23 15 42 72 93 39 36 90 83 112 105 23 23 71 72 107
110 36 39 102 99 147 135 45 36 82 71 82 78 0 6 9 12 21 12 11 0 35 16 52 36
18 19 46 44 63 55 21 12 34 30 38 50 3 18 2 37 -3 43 -6 7 -15 54 -22 106 -6
52 -15 99 -20 104 -5 6 -9 36 -9 67 0 32 -5 61 -10 64 -8 5 -7 11 1 21 7 8 9
30 5 56 -4 24 -11 95 -16 158 -5 63 -9 131 -8 150 1 19 1 51 1 70 0 19 -6 118
-12 220 -6 102 -14 208 -16 235 -2 28 -6 68 -9 90 -3 22 -9 69 -12 105 -4 36
-9 69 -11 73 -3 4 -4 65 -4 135 1 70 -3 162 -9 205 -5 42 -10 112 -10 155 0
42 1 84 1 92 0 8 -2 112 -6 230 -4 118 -13 244 -20 280 -8 42 -10 71 -3 83 5
9 6 22 2 28 -4 6 -8 48 -10 93 -2 44 -5 113 -8 151 -3 39 -8 106 -12 150 -3
44 -7 125 -9 180 -2 55 -6 163 -10 240 -4 77 -9 169 -11 205 -2 36 -6 153 -8
260 -3 107 -12 263 -20 345 -9 83 -18 175 -21 205 -3 30 -8 100 -11 155 -3 55
-7 111 -10 125 -3 14 -5 75 -5 135 1 61 -7 189 -18 285 -11 97 -20 213 -19
258 0 63 -3 87 -16 101 -9 9 -16 23 -16 30 0 6 -9 21 -19 33 -16 17 -38 22
-129 28 -61 5 -119 13 -130 19 -11 6 -44 16 -74 22 -29 6 -57 15 -63 19 -5 4
-26 11 -45 15 -19 4 -84 26 -145 50 -60 23 -123 46 -139 49 -15 4 -40 14 -54
24 -14 9 -50 27 -81 40 -31 13 -72 29 -93 37 -20 7 -53 25 -75 39 -21 13 -58
33 -83 42 -25 10 -56 26 -69 36 -13 10 -28 18 -33 18 -6 0 -21 9 -35 20 -14
11 -32 20 -40 20 -8 0 -26 9 -40 20 -14 11 -35 20 -47 20 -12 0 -39 16 -59 35
-20 19 -45 35 -54 35 -9 0 -24 6 -32 14 -9 8 -38 21 -66 29 -27 9 -66 21 -85
28 -19 6 -84 36 -145 65 -60 29 -128 61 -150 69 -22 9 -42 17 -45 17 -3 1 -17
8 -31 17 -14 9 -47 32 -74 51 -27 19 -65 49 -84 66 -20 16 -64 49 -98 72 -35
23 -65 42 -68 42 -3 0 -29 16 -58 36 -28 20 -54 39 -57 41 -2 2 2 8 9 13 11 6
12 23 7 71 -3 36 -12 66 -19 71 -8 4 -20 26 -27 50 -7 24 -17 47 -22 53 -4 5
-8 16 -8 24 0 8 -10 34 -21 59 -21 42 -23 44 -57 37 -20 -4 -52 -20 -71 -36
-20 -16 -42 -29 -50 -29 -8 0 -22 -6 -30 -14 -9 -8 -32 -23 -52 -34 -20 -11
-47 -26 -60 -34 -13 -7 -31 -18 -39 -24 -8 -6 -39 -19 -69 -28 -29 -9 -55 -15
-57 -13 -3 2 -7 121 -9 263 -3 143 -7 390 -11 549 -3 160 -8 313 -10 340 -2
28 -8 253 -14 500 -7 330 -6 477 2 550 7 55 11 149 11 210 -1 100 -3 111 -23
127 -13 11 -39 18 -62 18 -23 0 -59 5 -82 11 -22 6 -50 15 -61 19 -11 5 -67
20 -125 35 -58 14 -125 30 -150 35 -25 6 -70 19 -100 29 -31 11 -69 26 -85 35
-17 8 -58 21 -92 28 -35 6 -63 16 -63 20 0 4 -7 8 -15 8 -8 0 -15 4 -15 9 0 4
-29 18 -64 29 -35 12 -94 35 -132 52 -38 17 -82 37 -99 44 -16 8 -70 26 -120
41 -49 15 -115 38 -145 52 -30 14 -80 32 -110 40 -30 8 -68 21 -84 29 -16 7
-38 14 -48 14 -10 0 -32 7 -49 15 -16 9 -34 13 -39 10 -5 -3 -11 -1 -14 4 -4
5 -45 21 -94 35 -48 15 -107 33 -132 42 -25 9 -62 19 -82 23 -21 5 -43 13 -50
18 -7 6 -36 17 -65 26 -28 10 -53 17 -55 16z m5 -159 c12 0 35 -7 51 -15 15
-8 36 -15 45 -15 10 0 26 -6 36 -14 11 -8 25 -12 32 -9 7 3 19 1 26 -5 6 -5
31 -13 54 -17 22 -3 49 -13 60 -20 10 -8 31 -15 46 -15 15 0 49 -10 75 -21 26
-12 70 -28 97 -36 28 -8 67 -19 87 -24 20 -5 60 -18 88 -29 28 -11 58 -20 68
-20 9 0 44 -13 77 -28 33 -16 77 -31 98 -35 21 -3 99 -35 173 -71 74 -37 140
-66 147 -66 6 0 27 -9 45 -20 18 -11 42 -20 53 -20 11 0 70 -20 130 -45 61
-25 118 -45 129 -45 10 0 42 -9 72 -19 29 -11 85 -28 123 -40 39 -11 100 -23
138 -27 46 -5 67 -11 67 -20 0 -8 -24 -26 -52 -40 -45 -23 -68 -28 -153 -30
-74 -2 -106 1 -122 12 -12 8 -38 14 -58 14 -19 0 -35 4 -35 9 0 5 -26 17 -57
26 -32 9 -69 23 -83 30 -14 8 -52 19 -85 24 -33 6 -80 16 -105 22 -25 6 -58
15 -75 21 -16 6 -59 18 -95 28 -36 9 -96 31 -135 47 -38 17 -92 39 -120 48
-27 10 -54 22 -59 27 -6 4 -16 8 -24 8 -7 0 -48 18 -91 39 -43 22 -85 39 -92
38 -8 -1 -32 7 -54 17 -22 10 -49 23 -60 27 -11 5 -33 11 -48 13 -16 3 -35 11
-44 17 -8 7 -38 21 -66 32 -29 10 -106 34 -172 53 -66 18 -128 38 -137 44 -10
5 -23 10 -30 10 -7 0 -41 14 -76 32 -60 31 -62 33 -44 50 10 10 29 21 42 24
14 3 37 8 53 11 15 3 30 9 33 14 3 5 15 9 27 9z m-343 -140 c6 0 18 -9 27 -20
10 -11 21 -20 26 -20 5 0 25 -7 45 -16 21 -9 46 -20 57 -25 11 -4 47 -18 80
-30 33 -11 83 -28 110 -36 28 -9 55 -19 60 -23 6 -4 37 -15 70 -25 33 -9 74
-24 92 -31 17 -8 36 -14 43 -14 6 0 30 -9 53 -19 23 -10 67 -27 97 -36 30 -10
74 -26 97 -37 23 -11 71 -31 105 -43 35 -13 108 -42 163 -65 55 -23 116 -46
135 -52 19 -5 50 -16 68 -24 18 -9 50 -18 70 -21 20 -4 47 -12 58 -20 12 -8
37 -18 55 -24 19 -6 50 -15 69 -20 19 -5 82 -21 140 -34 58 -13 130 -31 160
-40 30 -10 73 -20 95 -25 22 -4 65 -18 96 -32 l57 -26 1 -118 c1 -66 5 -130 8
-144 3 -14 10 -31 15 -37 6 -7 7 -25 3 -40 -4 -16 -8 -44 -8 -63 0 -20 3 -52
7 -72 4 -23 1 -52 -9 -81 -11 -32 -13 -64 -9 -104 3 -32 10 -71 15 -87 5 -15
6 -33 2 -40 -4 -6 -6 -92 -4 -191 2 -104 7 -185 13 -192 7 -8 8 -44 3 -98 -4
-46 -3 -90 2 -97 4 -7 9 -51 10 -98 1 -47 2 -186 3 -310 1 -124 -2 -270 -5
-325 -3 -55 -6 -109 -7 -120 0 -11 0 -31 1 -45 1 -14 -3 -61 -9 -105 -6 -44
-10 -93 -9 -110 1 -16 2 -48 1 -70 0 -22 -3 -110 -7 -195 -3 -85 -6 -173 -6
-195 0 -22 3 -119 6 -215 4 -96 9 -236 11 -310 1 -74 3 -154 3 -178 0 -23 5
-79 11 -124 7 -50 8 -83 2 -87 -5 -3 -10 -84 -11 -181 -1 -96 -6 -222 -11
-280 -6 -58 -11 -112 -12 -120 0 -8 -5 -20 -9 -26 -5 -6 -11 -48 -14 -93 -2
-45 -7 -86 -10 -91 -3 -5 -8 -39 -12 -75 -5 -58 -8 -64 -22 -53 -9 7 -25 18
-36 24 -11 6 -47 25 -80 41 -33 17 -118 60 -190 95 -71 36 -146 74 -165 85
-19 11 -62 35 -95 53 -33 18 -65 37 -72 42 -6 5 -60 34 -120 65 -59 31 -120
64 -134 74 -14 10 -37 21 -52 24 -15 4 -27 11 -27 15 0 5 -33 25 -72 45 -40
20 -86 45 -103 56 -16 10 -37 22 -45 26 -8 4 -42 23 -75 42 -34 20 -74 44 -90
53 -17 10 -46 25 -65 35 -19 10 -37 20 -40 23 -3 3 -22 16 -43 28 -21 12 -42
22 -48 22 -5 0 -41 20 -81 45 -40 25 -80 45 -90 45 -10 0 -59 30 -110 67 -51
37 -108 82 -126 99 -27 24 -34 39 -35 70 0 21 2 62 6 91 4 28 7 123 8 210 1
87 -2 219 -6 293 -3 74 -10 152 -15 173 -4 21 -6 63 -3 95 3 31 0 107 -7 167
-7 61 -12 117 -12 125 0 8 -4 56 -10 105 -6 50 -12 142 -13 206 -2 64 -9 240
-15 390 -6 151 -11 400 -10 554 0 154 3 370 6 480 3 110 7 225 8 255 1 30 -1
210 -6 400 -5 190 -11 368 -13 395 -3 28 -8 97 -11 155 -4 58 -10 110 -15 116
-5 6 -7 13 -4 16 3 3 6 23 7 44 0 21 5 49 9 62 5 12 13 22 19 22z m2469 -621
c10 1 12 -15 7 -81 -4 -46 -6 -135 -5 -198 1 -63 3 -198 5 -300 2 -102 4 -221
4 -265 0 -44 -5 -90 -11 -102 -9 -17 -9 -32 1 -65 8 -24 15 -97 17 -163 2 -66
6 -127 10 -135 3 -8 6 -18 5 -22 -1 -4 -4 -34 -6 -67 -2 -33 -1 -63 2 -66 4
-3 7 -50 9 -103 1 -53 3 -115 4 -137 1 -22 -2 -55 -5 -74 -4 -21 -1 -45 8 -61
10 -20 10 -32 3 -46 -6 -11 -12 -49 -14 -86 -2 -43 1 -68 8 -68 7 0 10 -37 9
-107 -1 -60 0 -148 2 -196 2 -49 1 -90 -3 -92 -3 -3 -2 -28 2 -57 5 -29 8
-127 7 -218 0 -91 -2 -196 -2 -235 -1 -38 -5 -77 -9 -86 -5 -10 -2 -39 7 -70
9 -29 16 -88 16 -130 0 -43 4 -80 10 -84 6 -4 6 -15 -1 -33 -6 -14 -9 -58 -8
-97 1 -38 -1 -92 -5 -120 -4 -27 -7 -122 -8 -210 0 -88 3 -176 6 -195 4 -19 7
-53 7 -75 -1 -22 -1 -49 -2 -60 -1 -11 2 -65 5 -119 4 -54 9 -103 12 -107 3
-5 -2 -23 -10 -41 -8 -18 -17 -48 -20 -66 -4 -22 -1 -34 7 -38 10 -4 13 -33
12 -117 -1 -62 -2 -131 -3 -155 -2 -42 -3 -43 -69 -75 -38 -19 -84 -43 -103
-55 -19 -12 -41 -22 -48 -22 -7 0 -20 -7 -29 -15 -8 -9 -20 -14 -26 -12 -7 2
-10 34 -9 93 2 49 7 105 12 124 5 19 11 96 15 170 4 74 9 239 11 365 2 127 -1
291 -7 365 -6 74 -10 205 -10 290 0 85 2 322 4 525 2 204 8 561 12 795 4 234
7 432 7 440 0 8 -3 88 -5 177 -3 90 -8 167 -12 172 -3 6 -8 74 -10 153 -3 79
-8 294 -11 478 -4 184 -8 396 -8 470 -1 74 2 152 6 172 5 22 16 39 27 43 11 3
39 20 62 38 24 17 58 37 74 43 17 6 36 12 44 13z m378 -2461 c23 -16 46 -28
51 -28 5 0 17 -9 27 -20 10 -11 24 -20 32 -20 7 0 13 -4 13 -9 0 -5 10 -13 23
-16 12 -4 31 -15 42 -25 11 -10 36 -26 56 -37 20 -10 47 -30 60 -44 13 -14 36
-29 52 -33 15 -3 39 -20 54 -36 14 -17 31 -30 37 -30 6 0 56 -34 111 -75 55
-41 105 -73 111 -71 6 2 16 0 21 -5 5 -5 25 -17 44 -27 19 -11 73 -40 122 -65
48 -26 96 -47 107 -47 10 0 21 -4 24 -9 3 -5 27 -12 52 -16 28 -4 66 -20 95
-41 27 -19 53 -34 58 -34 5 0 58 -25 118 -55 61 -30 115 -61 122 -69 7 -8 27
-18 44 -21 18 -4 43 -17 57 -30 14 -12 43 -30 65 -40 22 -9 52 -23 67 -31 14
-8 36 -14 49 -14 12 0 36 -11 53 -23 17 -13 61 -34 98 -46 37 -11 101 -41 141
-64 40 -24 94 -49 120 -55 26 -7 67 -24 93 -38 25 -14 51 -23 58 -21 7 3 23
-1 37 -9 13 -7 35 -13 48 -14 14 0 41 -5 60 -11 20 -7 56 -20 81 -29 25 -10
64 -20 88 -23 24 -2 47 -8 52 -13 5 -5 -2 -21 -16 -37 -20 -23 -29 -27 -57
-22 -24 5 -39 1 -57 -12 -14 -11 -44 -29 -67 -41 -23 -12 -52 -31 -63 -42 -11
-11 -31 -25 -43 -30 -12 -5 -40 -21 -62 -35 -22 -14 -47 -28 -55 -32 -8 -3
-44 -25 -80 -48 -36 -23 -83 -54 -105 -68 -22 -15 -58 -40 -80 -56 -22 -17
-54 -37 -70 -46 -17 -8 -52 -33 -79 -55 -26 -22 -52 -40 -56 -40 -4 0 -22 -16
-41 -35 -19 -19 -38 -35 -43 -35 -4 0 -25 -12 -45 -27 -20 -16 -45 -34 -56
-40 -11 -7 -40 -25 -65 -40 -25 -15 -61 -39 -81 -54 -20 -16 -65 -44 -100 -64
-35 -19 -74 -39 -87 -45 -13 -6 -38 -21 -56 -35 -18 -14 -38 -25 -44 -25 -7 0
-40 -17 -74 -38 -35 -21 -70 -41 -78 -45 -8 -4 -22 -11 -30 -15 -8 -5 -28 -17
-45 -26 -16 -10 -38 -20 -47 -23 -10 -3 -18 -9 -18 -13 0 -4 -8 -10 -17 -14
-10 -3 -27 -11 -38 -18 -11 -7 -33 -22 -50 -33 -16 -12 -74 -43 -128 -70 -54
-28 -116 -59 -137 -70 -21 -11 -46 -27 -56 -35 -11 -9 -44 -29 -74 -44 -30
-16 -76 -44 -103 -62 -26 -19 -50 -34 -53 -34 -3 0 -31 -17 -62 -38 -31 -21
-128 -73 -216 -115 -87 -43 -172 -81 -188 -84 -20 -4 -37 0 -56 14 -15 11 -49
26 -77 33 -27 8 -75 26 -105 40 -30 15 -89 40 -130 55 -41 15 -104 38 -140 52
-36 13 -78 30 -95 38 -16 7 -50 22 -75 32 -25 11 -76 30 -115 42 -38 13 -88
31 -110 41 -22 9 -60 25 -85 35 -25 10 -63 26 -85 35 -22 10 -56 21 -75 25
-19 4 -55 18 -80 32 -25 13 -57 25 -70 26 -14 2 -38 10 -55 19 -16 8 -64 27
-105 41 -41 14 -106 37 -145 51 -38 13 -88 32 -110 41 -22 9 -58 25 -80 35
-22 9 -67 28 -100 41 -33 12 -67 29 -75 36 -9 6 -85 48 -170 93 -85 44 -183
94 -217 110 -34 17 -66 30 -71 30 -6 0 -12 3 -14 8 -1 4 -37 23 -78 42 -41 19
-105 52 -141 72 -37 20 -100 51 -140 68 -41 18 -82 36 -91 41 -10 5 -27 9 -37
9 -11 0 -23 5 -26 10 -3 6 -17 10 -30 10 -13 0 -27 5 -30 10 -3 6 -17 10 -30
10 -13 0 -26 4 -30 9 -3 6 -19 17 -37 25 -17 9 -38 16 -46 16 -7 0 -28 6 -45
14 -18 7 -47 19 -65 26 -17 7 -46 10 -63 6 -16 -3 -28 -2 -25 3 3 4 -7 17 -22
28 -15 10 -70 34 -122 52 -52 18 -117 43 -145 56 -27 12 -81 35 -120 50 -38
15 -76 33 -84 40 -11 11 -6 18 35 39 27 15 56 30 64 35 8 4 31 15 50 23 19 9
53 24 75 33 22 10 67 30 100 45 33 15 71 31 85 35 14 4 52 20 85 35 33 16 80
36 105 45 25 9 65 22 90 30 25 7 65 20 90 29 25 9 52 20 60 24 8 5 47 18 85
30 39 11 111 33 160 47 50 15 100 31 113 36 13 5 34 9 47 9 25 0 25 0 20 -82
-2 -46 -5 -121 -6 -168 0 -49 -7 -100 -16 -122 -13 -32 -13 -42 -2 -68 8 -16
43 -54 79 -83 36 -30 79 -62 95 -72 17 -10 39 -27 51 -37 11 -10 81 -49 155
-86 74 -38 152 -79 174 -92 22 -12 71 -41 108 -64 38 -22 85 -51 105 -62 20
-12 64 -36 97 -54 33 -18 86 -48 118 -66 32 -19 62 -34 67 -34 4 0 10 -4 12
-9 2 -4 32 -22 68 -40 36 -17 109 -55 162 -83 54 -29 107 -61 118 -70 11 -10
26 -18 33 -18 7 0 17 -4 22 -9 6 -5 118 -64 250 -131 132 -67 245 -126 250
-130 6 -4 35 -21 65 -37 30 -17 78 -42 106 -57 37 -19 59 -25 82 -20 18 4 32
11 32 16 0 6 12 8 26 5 19 -3 52 8 110 38 46 24 84 42 84 39 0 -2 15 5 33 16
17 11 44 25 59 31 14 6 29 17 32 25 3 8 14 14 24 14 10 0 33 7 49 15 17 9 37
22 43 31 10 12 10 20 0 42 -9 19 -14 114 -17 342 -2 173 -6 360 -9 415 -3 55
-7 428 -9 829 -3 471 -1 735 6 747 5 11 18 19 29 19 10 0 22 5 25 10 4 6 11 8
16 4 5 -3 15 -1 22 4 7 6 26 12 42 14 20 2 43 -5 72 -24z m2729 -1418 c18 0
24 -6 25 -22 1 -13 3 -32 5 -43 2 -11 8 -58 13 -105 6 -47 16 -107 22 -135 6
-27 14 -97 18 -155 4 -58 4 -136 -1 -174 -5 -46 -4 -73 3 -82 6 -7 8 -23 4
-34 -4 -12 -2 -50 4 -83 6 -34 13 -96 15 -137 2 -41 11 -151 20 -245 9 -93 18
-176 21 -184 3 -7 8 -160 11 -340 3 -179 7 -345 9 -368 2 -24 7 -48 10 -54 4
-6 9 -81 10 -167 2 -86 9 -182 15 -212 7 -30 14 -134 16 -230 2 -96 6 -227 8
-290 3 -63 9 -245 14 -405 4 -159 12 -297 17 -305 5 -8 10 -44 11 -80 1 -36 5
-128 8 -205 4 -77 9 -153 12 -170 3 -16 7 -64 10 -105 2 -41 6 -100 10 -130 3
-30 7 -134 10 -230 3 -96 7 -227 9 -290 2 -63 6 -135 10 -160 3 -25 7 -76 9
-115 2 -38 7 -97 11 -130 l7 -61 -44 -44 c-24 -25 -70 -67 -102 -95 -31 -27
-81 -74 -109 -104 -29 -30 -110 -112 -182 -183 -71 -70 -130 -128 -131 -128 0
0 -4 39 -7 88 -4 48 -13 119 -22 158 -8 38 -17 133 -19 210 -3 76 -10 200 -16
275 -5 75 -17 153 -25 173 -8 19 -15 53 -15 73 1 21 1 49 1 63 0 14 -3 75 -5
135 -3 61 -7 182 -10 270 -4 88 -11 234 -17 325 -6 91 -17 200 -25 243 -8 44
-16 83 -19 87 -3 5 -1 11 5 15 5 3 10 37 10 74 0 37 -3 70 -6 74 -4 3 -8 52
-10 109 -2 57 -6 117 -9 135 -3 17 -8 92 -10 165 -3 73 -5 140 -4 148 0 8 0
43 0 77 -1 34 -6 82 -12 105 -7 24 -11 72 -10 108 1 36 -5 110 -13 165 -9 67
-11 106 -4 119 6 10 7 33 2 55 -5 20 -7 43 -6 51 1 8 2 78 2 155 1 77 -6 208
-15 290 -8 83 -18 242 -20 355 -3 113 -5 228 -5 255 0 28 1 59 1 70 1 11 -2
114 -5 228 -5 170 -9 212 -23 233 -13 20 -21 24 -42 19 -14 -4 -46 -19 -71
-35 -25 -16 -95 -54 -156 -84 -61 -31 -114 -56 -118 -56 -4 0 -24 -13 -44 -29
-20 -17 -82 -53 -137 -80 -55 -28 -106 -51 -113 -51 -7 0 -25 -12 -40 -27 -14
-14 -67 -47 -117 -72 -50 -26 -105 -56 -122 -69 -17 -12 -36 -22 -41 -22 -6 0
-12 -3 -14 -7 -1 -5 -17 -16 -35 -25 -17 -10 -38 -18 -47 -18 -9 0 -35 -11
-57 -25 -22 -15 -96 -53 -164 -85 -68 -33 -128 -60 -134 -60 -5 0 -11 -6 -14
-14 -3 -8 -14 -12 -25 -9 -10 2 -26 -3 -35 -11 -8 -9 -22 -16 -30 -16 -7 0
-17 -3 -21 -7 -4 -5 -11 -8 -14 -9 -4 0 -24 -8 -46 -17 -21 -9 -46 -17 -56
-17 -10 0 -23 -7 -30 -15 -7 -8 -19 -15 -26 -15 -8 0 -28 -12 -45 -27 -17 -16
-32 -26 -32 -23 -1 3 -15 -4 -32 -16 -16 -11 -65 -38 -108 -60 -43 -21 -95
-53 -115 -70 -20 -16 -53 -36 -72 -44 -19 -8 -55 -27 -80 -42 -25 -15 -64 -37
-88 -48 -24 -11 -45 -20 -47 -20 -1 0 -5 51 -8 113 -3 61 -10 145 -16 184 -9
52 -9 78 -1 93 6 11 18 20 28 20 9 0 31 9 47 20 17 12 51 30 78 42 26 11 47
23 47 27 0 4 16 15 36 26 19 10 40 27 45 37 5 10 17 18 25 18 8 0 42 18 74 40
33 22 68 43 77 47 10 3 31 17 46 30 16 13 35 23 43 23 7 0 19 9 26 20 7 11 22
20 34 20 12 0 32 8 45 18 13 10 44 29 69 42 25 12 52 26 60 31 8 4 33 18 55
30 22 11 42 24 45 28 3 3 34 21 70 40 36 19 72 40 81 48 9 8 32 22 50 32 19 9
70 37 114 60 44 24 86 52 93 62 7 11 21 19 31 19 10 0 43 11 72 25 30 14 63
31 74 37 11 7 24 19 28 26 4 6 16 12 27 12 10 0 25 6 32 13 7 6 29 20 48 31
19 10 59 35 88 54 28 19 52 39 52 43 0 4 11 10 24 13 14 3 64 36 112 73 48 36
94 72 103 80 9 7 43 36 75 63 33 28 64 50 71 50 7 0 26 14 43 30 18 17 38 30
46 30 7 0 19 7 26 15 7 8 45 30 84 49 39 18 80 43 90 55 11 11 29 21 41 21 12
0 33 8 46 18 13 10 40 26 59 36 19 9 53 28 75 40 22 13 77 42 123 65 45 23 86
41 91 41 5 0 14 7 21 15 7 8 23 15 36 15z m-6941 -110 c2 0 26 -13 53 -29 27
-16 60 -32 73 -36 13 -4 40 -16 59 -26 19 -11 43 -19 53 -19 10 0 28 -6 40
-14 12 -8 67 -31 122 -51 55 -20 127 -45 160 -56 33 -12 77 -29 98 -39 22 -11
64 -26 94 -35 30 -9 78 -26 106 -39 29 -13 83 -36 121 -52 38 -16 194 -91 345
-168 152 -76 287 -146 301 -156 14 -9 41 -25 60 -34 19 -10 55 -24 80 -33 24
-8 58 -26 76 -39 17 -13 60 -36 95 -50 35 -14 72 -32 83 -40 11 -8 27 -14 36
-14 8 0 37 -11 65 -24 27 -14 86 -39 130 -56 44 -17 103 -38 130 -47 28 -8 61
-20 75 -25 14 -6 37 -17 52 -24 14 -8 32 -14 39 -14 7 0 42 -12 78 -26 36 -15
102 -40 146 -56 44 -17 100 -38 125 -47 25 -9 54 -22 65 -28 11 -6 36 -14 55
-18 19 -4 44 -14 55 -21 11 -7 54 -25 95 -39 41 -15 95 -36 120 -47 25 -11 68
-30 95 -43 28 -12 66 -28 85 -34 19 -7 50 -17 69 -23 19 -5 44 -16 55 -23 12
-7 53 -25 91 -41 39 -15 72 -30 75 -33 3 -4 30 -14 61 -24 31 -9 68 -28 82
-42 13 -14 27 -39 31 -56 3 -18 6 -83 6 -146 0 -106 -1 -115 -17 -108 -10 4
-49 18 -88 32 -38 13 -102 39 -141 58 -39 18 -93 37 -120 40 -27 4 -56 13 -64
20 -8 7 -28 15 -45 18 -16 3 -70 17 -120 31 -49 14 -120 36 -158 50 -37 14
-76 26 -87 26 -11 0 -29 9 -40 20 -11 11 -30 20 -42 20 -13 0 -45 11 -73 25
-27 13 -58 25 -68 25 -11 0 -32 9 -48 21 -17 12 -39 19 -49 16 -11 -3 -20 0
-20 6 -1 7 -31 26 -68 44 -37 18 -89 38 -117 45 -27 6 -54 15 -60 19 -5 4 -89
47 -186 95 -97 49 -194 97 -216 107 -22 9 -43 17 -48 17 -5 0 -45 18 -89 39
-45 22 -106 50 -136 64 -31 14 -77 32 -103 41 -26 9 -65 27 -87 41 -22 14 -44
25 -49 25 -6 0 -31 11 -57 25 -26 14 -53 25 -61 25 -8 0 -33 9 -56 21 -23 11
-69 29 -102 40 -33 11 -69 24 -80 29 -11 5 -40 14 -65 21 -25 6 -49 14 -55 19
-5 4 -48 24 -93 44 -46 20 -123 46 -170 57 -48 11 -103 23 -122 26 -19 3 -42
11 -50 18 -8 6 -37 18 -65 25 -27 7 -59 19 -70 27 -11 7 -40 13 -65 13 -25 0
-68 8 -95 19 -28 10 -68 26 -90 36 -22 10 -65 29 -95 43 -30 14 -63 27 -73 29
-10 2 -27 8 -38 14 -11 5 -24 21 -29 35 -6 14 -10 39 -10 55 0 17 -9 65 -19
107 -11 43 -25 124 -30 181 -6 57 -11 107 -11 112 0 5 2 9 5 9z m6310 -984 c6
-1 13 -36 17 -77 3 -41 9 -148 13 -239 4 -91 6 -228 5 -306 0 -77 4 -190 9
-250 6 -60 13 -149 16 -199 3 -49 8 -112 11 -140 4 -27 9 -54 12 -60 3 -5 7
-41 8 -80 1 -38 5 -160 8 -270 3 -110 8 -247 10 -304 3 -57 8 -133 11 -170 3
-36 7 -120 10 -186 2 -66 7 -160 10 -210 3 -49 10 -128 15 -175 5 -47 9 -138
10 -202 0 -64 5 -141 10 -170 6 -29 13 -100 15 -158 3 -58 8 -121 12 -140 4
-19 8 -93 10 -165 2 -71 5 -189 7 -261 2 -72 6 -136 10 -143 4 -6 0 -23 -9
-37 -13 -20 -15 -37 -9 -81 4 -31 7 -86 6 -122 0 -36 -3 -147 -7 -246 -3 -99
-9 -202 -11 -230 -3 -27 -7 -95 -8 -150 -2 -55 -9 -120 -16 -145 -8 -25 -14
-46 -15 -47 -1 -2 -55 19 -121 47 -65 27 -166 76 -224 109 -58 33 -110 61
-116 61 -6 0 -19 9 -28 19 -10 11 -28 22 -41 25 -14 4 -41 17 -61 31 -20 14
-42 25 -49 25 -7 0 -18 6 -24 14 -7 8 -31 24 -54 35 -23 12 -51 27 -61 34 -11
6 -48 30 -82 52 -34 22 -95 61 -136 87 -40 25 -86 52 -101 59 -15 7 -27 16
-27 21 0 4 -6 8 -14 8 -7 0 -19 7 -26 15 -7 8 -42 30 -79 49 -36 19 -97 55
-134 80 -38 25 -73 46 -78 46 -5 0 -27 11 -48 25 -22 13 -83 47 -136 75 -53
27 -133 75 -178 107 -45 31 -113 84 -152 117 -38 34 -77 69 -86 79 -13 13 -19
47 -24 135 -3 64 -8 182 -11 262 -2 80 -3 163 -2 185 2 22 3 117 3 210 0 94
-3 274 -8 400 -4 127 -10 320 -13 430 -2 110 -9 266 -14 347 -6 81 -13 254
-16 385 -5 194 -4 251 9 311 10 45 23 79 34 88 10 8 54 34 98 59 44 25 87 50
95 56 8 5 34 18 56 29 23 11 47 27 54 35 7 8 20 15 29 15 9 0 26 7 38 15 11 8
42 22 69 31 27 9 60 26 74 39 14 13 42 27 63 30 20 4 40 11 43 16 3 5 12 9 20
9 8 0 34 9 57 21 23 11 67 30 97 41 30 12 76 34 103 50 26 15 53 28 60 29 7 0
35 13 62 29 28 16 75 41 105 56 30 16 80 44 110 62 30 19 57 39 58 43 2 5 12
9 23 9 10 0 19 5 19 10 0 6 9 10 19 10 11 0 22 4 26 9 3 5 22 15 41 21 20 7
63 28 95 47 33 20 59 39 59 43 0 5 15 13 34 20 18 6 59 26 91 46 32 19 70 37
84 40 14 4 37 13 51 22 14 9 41 24 60 34 19 9 40 16 45 14z m292 -4968 c2 -10
2 -26 0 -35 -3 -10 -5 -2 -5 17 0 19 2 27 5 18z"/>
<g>
<path d="M9278 17879 c-18 -1 -49 -7 -68 -14 -19 -7 -59 -36 -87 -66 -29 -29
-52 -58 -51 -63 1 -6 -1 -40 -5 -76 -4 -36 -3 -98 2 -139 8 -63 14 -78 42
-107 18 -19 49 -38 69 -43 19 -5 57 -12 83 -16 37 -5 54 -2 75 11 15 10 34 27
44 38 10 12 26 40 37 63 11 22 23 71 27 107 5 53 2 79 -16 138 -19 59 -32 82
-72 121 -38 38 -54 47 -80 46z"/>
</g>
<g>
<path d="M10511 17596 c-47 2 -65 -2 -111 -26 -30 -16 -60 -29 -65 -30 -6 0
-18 -26 -27 -57 -9 -32 -22 -79 -28 -104 -7 -26 -12 -69 -12 -95 0 -27 5 -62
11 -77 6 -15 34 -52 62 -82 43 -45 58 -55 97 -61 26 -4 52 -2 62 3 8 6 34 14
55 17 22 4 47 13 55 19 8 7 27 30 42 52 19 29 30 63 38 120 6 44 8 98 4 120
-3 22 -20 69 -37 105 -22 45 -41 69 -61 79 -15 7 -53 15 -85 17z"/>
</g>
<g>
<path d="M9773 17220 c-5 0 -22 -9 -40 -19 -17 -11 -33 -28 -36 -38 -3 -10 -8
-45 -12 -77 -4 -33 -9 -132 -11 -220 -3 -89 -7 -177 -9 -196 -3 -19 -11 -82
-19 -140 -8 -58 -13 -134 -11 -170 2 -36 -1 -85 -7 -110 -5 -25 -11 -86 -13
-137 -1 -50 -6 -96 -9 -102 -4 -6 -9 -76 -12 -156 -2 -79 -10 -171 -18 -203
-9 -40 -10 -65 -4 -76 7 -12 6 -27 -1 -44 -6 -15 -16 -56 -22 -92 -6 -36 -12
-99 -12 -140 -1 -41 -5 -80 -9 -85 -3 -6 -4 -23 -1 -38 3 -15 19 -37 35 -48
21 -15 36 -19 56 -14 15 4 45 8 67 10 22 1 76 6 120 10 44 5 85 14 92 21 7 7
13 33 13 58 0 37 -4 48 -25 62 -15 9 -32 13 -46 9 -11 -4 -33 -9 -47 -11 -15
-2 -50 -6 -79 -9 -38 -3 -52 -1 -56 9 -3 8 -1 72 4 143 5 70 14 171 19 223 5
52 13 118 19 145 5 28 10 106 10 175 1 69 5 141 11 160 5 19 11 107 14 195 3
88 10 203 16 255 6 52 13 115 15 140 2 25 6 109 10 188 3 79 10 174 14 210 5
37 5 77 0 90 -5 12 -12 22 -16 22z"/>
</g>
<g>
<path d="M9232 14700 c-4 0 -18 -10 -30 -23 -14 -15 -22 -36 -22 -58 1 -31 7
-38 62 -74 34 -22 91 -55 127 -72 36 -18 70 -33 75 -33 5 0 59 -28 120 -62 61
-33 120 -66 131 -72 11 -7 45 -26 75 -44 30 -18 64 -38 75 -45 10 -7 42 -28
70 -47 27 -19 62 -42 77 -49 15 -8 44 -29 64 -48 20 -18 42 -33 48 -33 6 0 22
-9 36 -20 14 -11 29 -20 34 -20 6 0 41 -21 79 -47 38 -27 81 -55 96 -63 15 -8
37 -23 50 -32 13 -9 20 -21 16 -27 -4 -7 3 -11 17 -11 13 0 34 -7 46 -16 12
-8 32 -14 45 -12 16 2 22 10 23 28 1 14 7 37 14 52 11 23 11 30 -1 44 -7 9
-22 20 -34 26 -11 5 -33 17 -50 27 -16 9 -50 30 -75 46 -25 17 -54 38 -65 49
-11 10 -36 25 -55 33 -19 9 -70 42 -113 74 -43 33 -85 59 -92 59 -8 0 -30 14
-48 30 -19 17 -39 30 -45 30 -5 0 -15 6 -21 14 -6 7 -42 28 -79 46 -37 19
-101 55 -142 82 -41 27 -109 65 -150 85 -41 20 -137 69 -212 110 -75 40 -141
73 -146 73z"/>
</g>
</g>
<g>
<path d="M5697 10620 c-19 0 -55 -15 -87 -35 -30 -19 -67 -35 -81 -35 -15 0
-37 -12 -54 -30 -21 -22 -38 -30 -64 -30 -19 0 -42 -6 -50 -14 -9 -8 -61 -37
-115 -66 -55 -28 -113 -62 -130 -75 -17 -13 -62 -40 -99 -59 -37 -20 -98 -55
-135 -78 -37 -22 -128 -72 -202 -110 -74 -38 -144 -78 -156 -89 -12 -11 -44
-28 -72 -39 -27 -11 -69 -31 -93 -45 -24 -14 -56 -30 -71 -36 -16 -6 -28 -15
-28 -20 0 -5 -11 -9 -24 -9 -14 0 -28 -5 -31 -11 -4 -5 -17 -15 -28 -20 -12
-5 -40 -20 -62 -33 -22 -13 -78 -45 -125 -71 -47 -26 -92 -54 -100 -61 -8 -6
-35 -23 -60 -36 -25 -14 -67 -37 -94 -53 -28 -15 -59 -36 -70 -46 -11 -11 -27
-19 -35 -20 -9 0 -43 -18 -76 -39 -33 -22 -73 -46 -90 -53 -16 -8 -67 -39
-112 -68 -45 -30 -96 -63 -115 -73 -18 -11 -100 -53 -183 -95 -82 -42 -168
-84 -190 -94 -22 -9 -76 -37 -120 -61 -44 -24 -96 -52 -115 -63 -19 -10 -37
-21 -40 -24 -3 -3 -25 -16 -50 -30 -25 -13 -66 -39 -92 -56 -26 -18 -50 -33
-54 -33 -3 0 -25 -13 -48 -29 -24 -17 -77 -48 -119 -70 -41 -22 -94 -53 -118
-70 -23 -17 -48 -31 -54 -31 -7 0 -18 -6 -24 -14 -6 -7 -47 -35 -92 -61 -44
-26 -92 -57 -107 -70 -15 -12 -52 -35 -82 -51 -30 -16 -77 -46 -103 -66 -27
-21 -52 -38 -56 -38 -4 0 -16 -8 -27 -19 -11 -10 -36 -24 -56 -30 -20 -7 -41
-18 -47 -24 -5 -7 -11 -32 -12 -55 -2 -32 2 -46 17 -57 10 -8 30 -18 44 -21
14 -4 36 -15 49 -26 13 -10 31 -18 41 -18 10 0 28 -8 41 -18 13 -10 47 -30 74
-44 28 -14 66 -35 85 -47 19 -11 64 -36 100 -55 36 -19 97 -56 137 -83 39 -26
124 -88 189 -138 65 -49 147 -117 183 -150 36 -33 91 -78 121 -99 30 -22 82
-66 115 -97 33 -32 94 -83 135 -115 41 -32 101 -78 132 -103 31 -25 69 -55 84
-66 16 -11 36 -23 46 -27 10 -4 18 -14 18 -22 0 -8 25 -37 56 -65 30 -28 59
-51 62 -51 4 0 41 -33 83 -72 41 -40 101 -90 132 -112 32 -21 74 -55 95 -75
21 -20 78 -70 127 -111 49 -41 129 -110 179 -153 50 -43 96 -82 101 -88 6 -5
46 -46 90 -90 44 -44 103 -96 131 -115 28 -19 71 -52 95 -73 24 -21 71 -58
104 -82 33 -24 74 -57 90 -72 17 -16 53 -47 81 -70 28 -23 61 -49 74 -57 12
-8 35 -24 49 -35 14 -11 40 -30 58 -42 18 -13 35 -23 39 -23 3 0 24 -18 46
-40 22 -22 46 -40 54 -40 7 0 17 -6 21 -13 4 -6 26 -25 48 -41 22 -17 67 -53
100 -82 33 -28 74 -59 92 -67 17 -9 40 -28 51 -42 11 -14 24 -25 30 -25 6 0
12 -3 14 -8 2 -4 17 -18 33 -30 17 -13 47 -38 69 -55 21 -18 62 -53 90 -79 28
-25 74 -66 101 -90 28 -23 75 -61 105 -83 30 -22 68 -52 85 -68 16 -15 57 -52
90 -82 33 -30 63 -55 67 -55 4 0 33 -26 65 -58 32 -31 71 -67 88 -80 16 -12
33 -22 37 -22 5 0 30 -15 57 -33 27 -19 72 -54 101 -78 29 -24 72 -61 95 -82
23 -20 47 -37 52 -37 5 0 20 -12 34 -26 13 -15 49 -45 80 -68 31 -22 74 -61
96 -86 22 -25 74 -79 115 -120 42 -41 133 -129 203 -195 70 -66 139 -132 153
-147 14 -16 31 -28 39 -28 7 0 13 -6 13 -14 0 -8 30 -40 68 -73 37 -32 83 -70
102 -85 19 -14 60 -49 90 -77 30 -29 68 -59 84 -67 16 -9 41 -30 55 -46 14
-17 38 -38 53 -48 15 -9 53 -39 84 -66 31 -27 64 -57 73 -68 9 -10 40 -43 70
-72 30 -30 63 -56 73 -60 10 -3 18 -9 18 -13 0 -4 19 -27 41 -50 23 -23 44
-39 47 -37 3 3 12 -3 19 -14 8 -11 39 -38 68 -60 30 -22 57 -40 60 -40 3 0 29
-16 58 -35 28 -19 74 -49 101 -67 27 -18 60 -43 73 -56 14 -13 41 -34 61 -47
21 -13 62 -42 92 -64 30 -22 64 -45 75 -50 11 -5 32 -19 46 -32 14 -13 35 -30
45 -36 11 -7 33 -19 49 -28 17 -8 49 -32 72 -54 23 -21 45 -36 48 -33 3 3 20
-8 38 -25 17 -17 51 -41 75 -53 23 -13 42 -27 42 -30 0 -4 31 -21 68 -38 38
-18 79 -43 92 -57 13 -14 29 -25 36 -25 6 0 17 -6 23 -14 7 -8 49 -33 93 -56
44 -22 106 -58 137 -78 31 -20 65 -43 76 -50 11 -7 33 -20 49 -30 16 -9 44
-29 61 -45 18 -15 37 -27 43 -27 6 0 24 -12 39 -26 15 -15 42 -33 58 -40 17
-8 59 -33 95 -55 36 -23 90 -55 120 -71 30 -17 71 -38 90 -48 19 -10 46 -23
60 -29 14 -6 52 -27 85 -46 33 -20 74 -42 90 -50 17 -7 59 -31 95 -52 36 -22
106 -60 155 -84 50 -24 92 -47 95 -50 3 -3 37 -23 75 -44 39 -21 120 -63 180
-93 61 -30 121 -63 134 -74 13 -10 31 -18 40 -18 9 0 40 -16 68 -35 29 -19 57
-35 63 -35 5 0 15 -9 22 -20 7 -11 17 -20 22 -20 4 0 23 -12 41 -28 17 -15 53
-45 79 -67 27 -22 69 -53 95 -70 26 -16 66 -45 89 -64 35 -27 48 -32 75 -27
21 4 52 27 92 66 32 33 65 60 72 60 7 0 19 13 27 29 8 15 37 42 64 60 27 17
53 31 59 31 6 0 16 7 23 15 7 9 33 29 57 45 24 16 49 34 56 39 6 6 30 25 52
44 22 18 47 36 56 40 9 3 44 26 76 51 33 25 65 52 73 60 7 9 19 16 26 16 8 0
14 5 14 10 0 6 6 10 13 10 8 0 22 9 33 21 10 11 39 34 64 51 25 17 49 37 53
44 5 8 27 27 49 42 23 15 50 32 61 39 11 6 22 15 26 20 3 5 29 22 56 37 28 16
71 44 96 62 26 19 49 34 52 34 2 0 31 18 63 40 33 22 90 63 129 90 38 28 74
50 78 50 5 0 41 24 80 53 40 30 94 68 120 85 26 18 51 32 55 32 4 0 36 20 71
45 36 25 70 45 76 45 7 0 20 9 30 20 10 11 48 40 84 64 36 24 75 46 86 50 11
3 34 19 50 34 17 15 44 34 62 41 17 7 40 22 50 33 10 11 36 29 58 40 22 11 44
27 48 34 4 8 16 14 25 14 9 0 60 32 112 70 52 38 108 80 123 94 15 14 35 26
44 26 8 0 31 14 50 30 18 17 40 30 48 30 8 0 15 3 15 8 0 4 27 22 61 41 33 18
105 66 159 107 54 40 117 85 140 99 22 14 48 33 58 43 9 9 46 39 82 67 36 27
72 57 80 66 8 9 40 37 71 62 31 26 59 47 63 47 4 0 24 15 43 32 20 18 43 40
52 48 9 8 33 26 54 40 20 14 37 29 37 33 0 4 9 11 19 15 11 4 48 33 83 64 35
32 99 88 143 126 44 38 121 109 170 158 50 49 142 136 205 194 63 58 136 128
162 155 26 28 48 55 48 62 0 6 8 14 18 18 9 3 28 16 42 28 14 12 41 45 60 72
19 28 43 56 53 63 9 7 17 17 17 22 0 5 13 29 29 52 15 24 45 70 66 103 21 33
51 80 67 104 26 39 28 47 17 72 -8 22 -9 33 0 42 8 11 7 18 -7 30 -10 9 -34
23 -55 32 -20 8 -37 20 -37 25 0 6 -6 10 -14 10 -8 0 -31 16 -52 35 -20 19
-43 35 -50 35 -7 0 -16 5 -19 10 -3 5 -15 10 -26 10 -10 0 -36 16 -58 35 -21
19 -56 42 -77 51 -21 9 -54 31 -72 49 -19 18 -53 42 -77 54 -24 12 -46 28 -49
36 -3 8 -25 20 -50 26 -25 6 -47 17 -50 25 -3 7 -20 20 -38 29 -18 9 -42 21
-53 28 -12 6 -39 27 -62 45 -22 17 -44 32 -49 32 -4 0 -44 24 -88 54 -45 29
-140 85 -213 124 -73 39 -156 89 -186 110 -29 22 -78 52 -108 68 -30 15 -77
45 -106 66 -29 21 -55 38 -59 38 -4 0 -28 17 -53 37 -25 21 -59 50 -76 65 -16
15 -43 33 -60 40 -16 7 -41 22 -54 33 -14 11 -32 27 -41 36 -9 8 -25 19 -36
24 -10 4 -22 7 -27 7 -4 -1 -53 21 -110 49 -56 28 -109 57 -118 65 -8 8 -20
14 -25 14 -5 0 -34 12 -64 27 -30 15 -66 39 -80 53 -14 14 -42 33 -62 42 -20
9 -80 46 -135 81 -54 36 -111 71 -128 80 -16 9 -55 28 -85 43 -30 15 -65 35
-78 45 -13 10 -37 21 -54 24 -17 4 -53 20 -78 36 -26 16 -54 29 -61 29 -8 0
-35 11 -61 25 -26 14 -55 25 -66 25 -10 0 -22 4 -28 8 -5 4 -36 18 -69 31 -33
13 -79 32 -102 42 -24 10 -46 19 -50 19 -5 0 -26 9 -48 19 -22 11 -71 30 -110
44 -38 13 -86 29 -105 37 -19 7 -60 21 -90 32 -30 10 -62 20 -70 22 -8 2 -33
11 -55 21 -22 10 -69 26 -105 36 -36 10 -99 30 -140 44 -41 15 -79 31 -84 36
-6 5 -18 9 -28 9 -10 0 -26 4 -36 9 -9 6 -57 29 -107 51 -49 23 -108 50 -131
61 -23 10 -44 19 -48 19 -4 0 -31 15 -59 33 -29 19 -64 41 -79 50 -15 9 -32
17 -38 17 -6 0 -34 17 -63 38 -29 20 -70 46 -92 57 -22 11 -42 23 -45 26 -3 4
-34 19 -70 34 -36 15 -74 34 -85 41 -11 8 -27 14 -36 14 -9 0 -24 11 -33 25
-10 16 -33 30 -61 37 -25 7 -45 16 -45 20 0 4 -5 8 -12 8 -6 0 -19 7 -28 15
-9 8 -41 28 -71 44 -30 15 -69 36 -86 47 -18 10 -33 22 -33 27 0 4 -6 7 -13 7
-7 0 -32 9 -54 20 -23 11 -44 24 -48 30 -3 5 -25 19 -48 30 -23 11 -78 40
-122 64 -44 24 -109 58 -145 76 -36 18 -78 39 -94 46 -16 8 -32 11 -37 8 -5
-3 -9 2 -9 10 0 9 -18 25 -40 36 -21 11 -46 20 -54 20 -8 0 -16 4 -18 8 -1 5
-48 31 -104 59 -55 28 -118 56 -140 63 -21 7 -52 18 -69 25 -16 8 -61 27 -98
44 -38 17 -73 31 -78 31 -5 0 -17 4 -27 9 -9 5 -39 17 -67 26 -27 9 -97 40
-155 67 -58 28 -154 75 -214 104 -60 30 -117 54 -128 54 -10 0 -21 7 -24 15
-3 8 -22 19 -42 26 -21 6 -48 19 -62 29 -14 9 -44 22 -67 30 -24 7 -43 17 -43
21 0 4 -26 17 -57 29 -32 11 -79 32 -104 45 -26 14 -54 25 -62 25 -9 0 -20 6
-24 14 -4 8 -71 46 -148 85 -77 40 -147 75 -155 80 -8 4 -26 14 -40 21 -14 7
-46 24 -72 37 -26 13 -50 28 -53 33 -3 6 -14 10 -24 10 -10 0 -35 11 -55 25
-20 14 -43 25 -51 25 -7 0 -27 11 -43 25 -17 14 -34 25 -40 25 -5 0 -39 17
-73 38 -35 21 -75 43 -89 49 -14 7 -55 26 -92 42 -37 17 -71 31 -76 31 -5 0
-15 7 -22 15 -7 8 -38 22 -69 32 -31 9 -68 28 -83 41 -15 14 -36 30 -47 36
-11 6 -44 27 -73 47 -29 20 -88 55 -131 78 -42 23 -112 64 -155 90 -43 26 -93
53 -111 59 -18 6 -41 22 -51 35 -10 13 -66 47 -125 77 -58 30 -115 60 -126 66
-11 6 -30 21 -43 33 -12 11 -29 21 -38 21 -9 0 -21 7 -28 15 -7 9 -40 31 -72
50 -33 19 -64 35 -69 35 -5 0 -34 18 -63 40 -29 22 -58 40 -64 40 -7 0 -12 5
-12 10 0 6 -12 16 -27 23 -16 6 -32 17 -36 24 -4 7 -26 22 -48 33 -21 11 -39
24 -39 29 0 4 -44 37 -97 71 -54 35 -104 70 -111 77 -7 7 -17 13 -21 13 -4 0
-30 21 -58 48 -28 26 -69 63 -92 82 -23 19 -41 43 -41 54 0 11 16 37 36 57
l35 36 -21 36 c-18 30 -28 37 -53 37z m-186 -230 c14 0 34 -8 43 -19 15 -17
16 -24 3 -79 -10 -41 -11 -64 -4 -71 7 -7 6 -16 -4 -27 -7 -9 -15 -42 -16 -73
-1 -31 -5 -73 -9 -94 -4 -23 -2 -43 5 -51 7 -8 9 -25 6 -39 -4 -16 -19 -30
-37 -38 -17 -7 -45 -26 -62 -43 -17 -17 -32 -34 -32 -38 -1 -4 -2 -12 -3 -18
0 -5 -8 -10 -17 -10 -9 0 -20 -13 -26 -28 -7 -19 -24 -34 -52 -45 -23 -9 -55
-17 -72 -17 -20 0 -45 11 -69 30 -21 17 -41 30 -46 30 -4 0 -31 -21 -59 -46
-27 -26 -50 -50 -50 -54 0 -3 -30 -37 -67 -74 -36 -37 -68 -78 -69 -89 -1 -12
-3 -25 -3 -29 -1 -5 -12 -8 -25 -8 -13 0 -28 -6 -34 -12 -5 -7 -12 -22 -14
-33 -3 -15 -10 -19 -32 -17 -15 2 -34 -2 -42 -9 -10 -9 -35 -10 -87 -4 -39 5
-97 9 -127 9 -33 0 -84 -10 -130 -26 -41 -14 -86 -29 -100 -32 -14 -3 -30 -14
-37 -25 -7 -10 -13 -43 -14 -72 -3 -48 -7 -57 -43 -91 -21 -21 -43 -38 -47
-38 -4 0 -14 -8 -21 -19 -7 -10 -39 -33 -70 -51 -32 -17 -58 -38 -58 -45 0 -7
-11 -16 -25 -19 -13 -3 -32 -14 -42 -24 -10 -10 -40 -27 -68 -37 -27 -10 -68
-30 -90 -44 -22 -14 -46 -24 -53 -23 -8 2 -19 -1 -25 -6 -7 -5 -22 -12 -35
-15 -12 -3 -39 -1 -60 5 -20 5 -44 16 -52 23 -8 8 -34 18 -56 23 -28 6 -47 6
-61 -2 -11 -6 -47 -38 -81 -70 -34 -33 -62 -66 -62 -73 0 -7 -8 -13 -17 -13
-9 0 -24 -7 -34 -16 -10 -9 -15 -22 -12 -30 3 -8 -1 -14 -8 -14 -8 0 -25 -12
-38 -26 -13 -13 -43 -34 -67 -45 -24 -10 -48 -28 -54 -38 -6 -13 -17 -17 -29
-14 -11 3 -35 -4 -53 -15 -18 -11 -50 -23 -71 -26 -30 -6 -48 -2 -80 15 -23
12 -57 25 -76 30 -18 4 -45 3 -58 -2 -13 -5 -29 -22 -34 -39 -6 -16 -14 -30
-17 -30 -4 0 -42 -33 -84 -74 -43 -41 -78 -78 -78 -83 0 -6 -20 -32 -45 -59
-25 -27 -47 -56 -50 -64 -3 -8 -15 -20 -27 -26 -13 -6 -39 -19 -58 -30 -19
-10 -37 -22 -40 -25 -3 -3 -34 -12 -70 -19 -36 -7 -83 -14 -105 -15 -22 0 -50
-5 -62 -9 -13 -4 -23 -13 -23 -20 0 -7 6 -20 14 -31 11 -15 21 -17 67 -11 30
4 72 8 94 10 22 2 55 9 73 14 18 6 46 22 63 36 17 14 35 26 40 26 5 0 29 19
54 43 25 24 45 47 45 51 0 5 17 29 38 55 22 25 43 53 48 62 5 9 38 40 74 70
36 30 81 59 100 66 30 10 45 9 100 -7 49 -15 74 -17 104 -10 21 5 42 13 45 18
3 5 29 17 56 27 28 10 66 31 85 45 19 15 50 32 68 40 19 7 52 30 75 52 23 21
53 49 67 62 14 13 45 34 70 46 25 12 57 34 72 47 21 21 33 24 60 19 18 -3 51
-8 73 -11 22 -3 45 -7 51 -9 6 -2 34 2 62 9 28 8 67 21 87 30 19 10 35 21 35
25 0 4 12 11 27 15 15 3 38 14 52 24 14 10 47 28 73 40 25 12 79 52 119 89 39
37 100 96 135 132 36 36 70 77 77 93 6 15 15 27 19 27 3 0 13 6 20 14 8 7 41
22 73 32 39 12 95 19 160 20 55 1 123 5 150 9 28 4 57 13 65 19 8 6 32 20 53
30 21 11 37 26 37 37 0 10 18 28 43 42 23 14 78 64 121 111 52 57 86 86 100
86 12 0 26 -4 32 -9 5 -5 26 -11 47 -14 22 -3 55 2 81 12 24 9 62 33 84 53 23
21 53 55 68 78 20 30 33 40 54 40 15 0 36 -8 46 -17 18 -17 19 -27 13 -123 -4
-58 -5 -177 -3 -266 4 -153 3 -162 -17 -180 -11 -10 -29 -37 -40 -58 -10 -22
-19 -44 -19 -49 0 -4 10 -7 22 -5 13 2 24 11 27 23 2 11 11 27 20 35 9 8 25
29 36 45 16 25 20 52 22 160 2 72 5 140 6 152 2 13 6 25 10 29 3 3 12 -9 20
-28 8 -19 31 -51 52 -71 20 -19 52 -43 72 -52 29 -14 37 -15 44 -4 6 10 12 9
29 -6 20 -18 38 -20 204 -21 99 0 197 -4 216 -8 19 -5 46 -14 60 -21 14 -7 38
-19 54 -26 16 -8 31 -21 33 -29 3 -8 32 -33 66 -55 34 -22 66 -45 70 -52 4 -7
17 -13 27 -13 10 0 40 -11 66 -25 26 -14 53 -25 60 -25 7 0 18 9 24 19 5 11
10 26 10 33 0 7 -30 26 -66 42 -36 16 -81 41 -101 55 -20 14 -56 45 -80 69
-24 23 -43 48 -43 56 0 7 -14 19 -30 26 -17 7 -46 10 -67 7 -20 -4 -42 -2 -49
4 -6 5 -25 10 -40 11 -16 0 -116 -2 -223 -6 -157 -5 -198 -4 -215 8 -12 7 -38
30 -58 49 -21 20 -38 40 -38 46 0 6 -17 43 -37 83 -35 68 -38 79 -40 168 -1
68 3 101 13 117 8 12 14 29 14 37 0 7 -7 17 -16 20 -13 5 -15 19 -10 83 2 43
8 101 11 128 3 28 8 60 11 73 2 12 10 22 18 22 7 0 34 -18 59 -40 25 -22 50
-40 56 -40 6 0 11 -4 11 -9 0 -5 9 -13 20 -16 11 -3 20 -12 20 -19 0 -7 12
-18 28 -25 15 -7 52 -29 82 -49 30 -20 83 -60 117 -88 35 -28 80 -60 101 -70
20 -10 45 -26 54 -34 9 -8 24 -21 32 -27 8 -7 18 -13 22 -13 4 0 31 -15 61
-32 31 -18 75 -44 99 -58 24 -14 72 -42 107 -62 35 -21 70 -44 77 -53 7 -8 21
-15 31 -15 11 0 19 -4 19 -10 0 -5 6 -10 13 -10 6 0 50 -25 97 -56 47 -30 108
-70 135 -87 28 -18 64 -39 80 -48 17 -9 46 -25 65 -36 19 -11 68 -41 108 -66
40 -26 75 -47 79 -47 3 0 14 -6 22 -14 9 -8 54 -35 101 -62 47 -26 120 -65
163 -86 43 -21 83 -38 90 -38 7 0 20 -9 30 -20 9 -11 25 -20 36 -20 10 0 29
-8 42 -18 13 -10 51 -32 84 -49 33 -16 82 -42 110 -57 27 -15 56 -33 65 -41 9
-8 21 -15 27 -15 6 0 41 -16 77 -36 37 -19 71 -34 77 -32 6 2 25 -10 43 -27
18 -17 58 -38 91 -48 32 -10 71 -29 87 -42 16 -14 34 -25 39 -25 6 0 25 -11
43 -25 18 -14 37 -25 41 -25 5 0 52 -22 104 -49 53 -26 98 -48 101 -48 3 0 79
-36 170 -81 90 -45 170 -82 176 -82 6 0 17 -7 24 -15 7 -8 33 -26 59 -38 25
-13 71 -32 101 -42 30 -11 66 -27 79 -37 13 -10 28 -18 33 -18 5 0 33 -11 61
-24 29 -13 94 -40 145 -60 52 -20 99 -36 105 -36 7 0 23 -9 37 -20 14 -11 31
-20 38 -20 6 0 35 -11 64 -25 28 -14 59 -25 69 -25 9 0 22 -7 29 -15 6 -8 15
-14 18 -13 4 1 20 -4 35 -10 16 -7 35 -12 43 -12 8 0 14 -4 14 -10 0 -5 6 -10
13 -10 7 0 55 -22 107 -49 52 -26 109 -56 125 -65 17 -9 41 -21 55 -26 14 -6
43 -21 65 -35 22 -14 56 -32 75 -40 19 -9 41 -22 50 -29 8 -8 26 -17 40 -21
14 -4 36 -16 49 -26 13 -11 32 -19 41 -19 10 0 24 -7 31 -17 8 -9 40 -29 72
-44 32 -15 66 -34 75 -42 9 -8 47 -31 84 -51 37 -20 72 -36 78 -36 7 0 19 -9
28 -20 10 -11 53 -38 97 -61 44 -23 116 -61 160 -84 44 -23 121 -64 170 -90
50 -26 106 -59 125 -71 19 -13 39 -24 43 -24 5 0 21 -9 35 -19 15 -10 65 -38
112 -62 47 -24 86 -47 88 -51 2 -4 8 -8 13 -8 6 0 7 5 4 10 -3 6 -1 10 4 10 6
0 11 -3 11 -8 0 -4 15 -15 33 -24 17 -9 48 -23 67 -31 19 -8 59 -20 88 -27 29
-7 80 -25 113 -41 33 -16 67 -29 77 -29 10 0 27 -6 38 -14 11 -8 52 -26 91
-39 38 -14 125 -43 191 -66 67 -23 141 -52 166 -65 24 -13 60 -26 79 -30 19
-4 48 -13 63 -20 16 -8 49 -23 74 -34 25 -11 70 -27 100 -36 30 -9 87 -31 125
-50 39 -19 90 -42 115 -52 25 -10 52 -23 60 -29 8 -6 42 -22 75 -35 33 -13 83
-38 110 -56 28 -17 67 -39 87 -47 21 -9 59 -32 84 -51 26 -20 52 -36 59 -36 6
0 20 -9 29 -19 10 -11 32 -25 49 -32 18 -7 34 -16 37 -20 3 -4 28 -19 55 -34
28 -15 68 -40 90 -54 22 -14 60 -35 85 -46 25 -10 52 -24 60 -30 8 -6 40 -24
70 -40 30 -15 72 -36 92 -46 20 -11 41 -19 46 -19 5 0 19 -11 32 -25 13 -14
30 -25 39 -25 8 0 53 -26 99 -57 47 -32 103 -74 126 -94 22 -20 73 -56 111
-80 39 -24 79 -50 90 -56 11 -7 36 -20 55 -29 19 -10 44 -25 55 -35 11 -10 43
-29 72 -44 29 -14 55 -30 58 -35 3 -5 18 -15 33 -23 15 -7 61 -31 102 -52 41
-22 80 -44 87 -50 6 -5 59 -41 118 -80 59 -38 124 -79 144 -91 20 -11 56 -33
81 -49 25 -16 70 -42 101 -58 31 -16 68 -40 82 -53 14 -13 29 -24 33 -24 3 0
29 -17 58 -37 28 -20 68 -52 89 -70 20 -18 43 -33 51 -33 7 0 25 -12 40 -26
14 -15 26 -23 26 -18 0 5 4 4 8 -2 4 -6 33 -23 65 -39 33 -16 61 -34 64 -42 3
-7 3 -23 -1 -36 -3 -12 -33 -58 -66 -102 -33 -44 -60 -87 -60 -96 0 -8 -9 -25
-20 -37 -11 -12 -20 -27 -20 -34 0 -7 -17 -33 -38 -57 -20 -25 -80 -88 -133
-140 -53 -53 -125 -121 -159 -151 -34 -30 -94 -89 -133 -130 -40 -41 -93 -95
-118 -120 -26 -25 -66 -61 -90 -80 -24 -19 -61 -54 -83 -76 -23 -23 -73 -69
-113 -103 -40 -34 -75 -61 -78 -61 -4 0 -27 -17 -52 -37 -25 -21 -69 -59 -98
-86 -28 -26 -55 -47 -59 -47 -4 0 -12 -4 -19 -10 -7 -5 -35 -29 -63 -52 -28
-24 -78 -66 -110 -93 -32 -28 -84 -68 -114 -90 -30 -22 -61 -45 -68 -52 -8 -7
-23 -18 -35 -24 -11 -7 -26 -16 -31 -21 -6 -4 -31 -23 -56 -42 -25 -18 -79
-55 -119 -82 -40 -27 -81 -53 -90 -59 -9 -5 -30 -20 -48 -32 -17 -13 -35 -23
-39 -23 -3 0 -36 -22 -73 -49 -36 -27 -92 -66 -125 -87 -32 -22 -72 -48 -90
-59 -17 -10 -76 -48 -131 -83 -55 -36 -130 -85 -168 -111 -37 -25 -75 -50 -85
-56 -9 -5 -40 -27 -68 -47 -28 -21 -56 -38 -62 -38 -6 0 -23 -11 -39 -23 -15
-13 -62 -43 -103 -67 -41 -24 -100 -63 -130 -86 -30 -23 -71 -52 -90 -63 -19
-11 -46 -26 -60 -32 -14 -5 -36 -20 -50 -33 -14 -12 -47 -35 -75 -51 -27 -15
-80 -50 -117 -76 -37 -27 -71 -49 -74 -49 -3 0 -37 -21 -75 -46 -38 -25 -69
-49 -69 -54 0 -4 -33 -30 -72 -58 -40 -27 -91 -64 -113 -81 -22 -17 -58 -45
-79 -63 -22 -18 -49 -40 -62 -48 -12 -8 -57 -39 -100 -69 -44 -30 -105 -73
-136 -97 -31 -24 -61 -44 -66 -44 -5 0 -12 -7 -16 -15 -3 -8 -12 -15 -19 -15
-8 0 -26 -10 -41 -23 -14 -13 -52 -36 -84 -52 -31 -16 -79 -48 -106 -71 -27
-23 -57 -45 -67 -47 -13 -3 -51 18 -112 62 -51 38 -102 73 -114 79 -12 7 -28
18 -35 26 -8 7 -28 21 -45 30 -18 9 -38 16 -46 16 -8 0 -17 6 -20 14 -3 8 -23
22 -44 32 -21 10 -63 35 -93 55 -30 20 -68 39 -84 43 -17 4 -35 13 -40 20 -6
7 -49 30 -96 51 -47 21 -99 49 -117 62 -17 13 -38 23 -46 23 -8 0 -20 6 -26
13 -6 8 -30 22 -53 32 -24 9 -61 26 -83 38 -22 11 -49 27 -60 36 -11 9 -49 30
-85 46 -36 16 -78 38 -95 47 -16 10 -52 29 -80 44 -27 14 -58 33 -67 42 -10 8
-18 12 -18 8 0 -3 -21 5 -47 19 -27 14 -64 35 -83 47 -19 11 -53 31 -76 43
-22 12 -65 38 -96 59 -31 20 -62 43 -68 51 -7 8 -21 15 -31 15 -11 0 -19 4
-19 10 0 5 -15 18 -34 27 -19 10 -65 39 -103 64 -37 26 -84 56 -103 67 -19 11
-64 38 -100 61 -36 22 -82 48 -102 57 -21 9 -38 19 -38 23 0 4 -24 20 -52 35
-29 16 -69 41 -89 57 -20 16 -41 29 -46 29 -5 0 -35 18 -67 40 -31 22 -66 49
-78 60 -12 11 -26 20 -31 20 -5 0 -35 20 -67 45 -32 25 -64 45 -71 45 -6 0
-53 30 -103 67 -50 37 -106 78 -124 92 -18 14 -50 38 -70 54 -20 15 -46 34
-57 42 -11 8 -56 40 -100 70 -44 30 -111 75 -149 101 -38 25 -76 48 -85 51 -9
3 -29 20 -46 38 -16 18 -64 61 -105 96 -41 35 -86 73 -99 84 -14 11 -66 58
-115 104 -50 46 -102 97 -116 113 -14 15 -53 47 -87 70 -35 24 -126 98 -203
166 -77 68 -148 134 -156 148 -9 13 -21 24 -28 24 -6 0 -137 126 -291 280
-153 154 -285 280 -291 280 -7 0 -14 3 -16 8 -1 4 -34 34 -73 67 -38 33 -71
63 -73 68 -2 4 -9 7 -15 7 -6 0 -36 22 -66 48 -31 26 -67 55 -81 65 -14 9 -55
39 -93 65 -37 27 -97 75 -134 108 -37 32 -105 95 -151 139 -45 44 -98 89 -117
101 -19 11 -56 39 -82 61 -26 23 -82 70 -123 105 -41 35 -145 120 -230 189
-85 68 -186 147 -225 174 -38 27 -72 53 -73 57 -2 5 -16 15 -31 23 -15 7 -63
43 -105 79 -42 37 -104 84 -137 106 -32 23 -59 45 -59 50 0 5 -15 17 -32 26
-18 9 -44 29 -57 43 -14 14 -34 33 -46 41 -12 8 -69 52 -126 97 -57 45 -130
103 -162 130 -31 26 -81 69 -110 94 -28 26 -74 67 -101 92 -43 39 -48 48 -37
61 8 9 18 16 24 16 6 0 18 7 28 16 9 8 23 16 31 17 7 2 28 9 47 17 20 8 36 10
38 4 2 -5 7 -15 11 -22 5 -7 25 -15 44 -18 32 -6 36 -4 42 22 4 15 21 43 37
61 16 19 29 40 29 48 0 8 4 15 10 15 5 0 22 14 37 31 16 17 41 37 58 45 16 7
39 19 50 26 11 7 48 41 83 76 34 35 62 66 62 70 0 4 10 8 21 9 12 1 34 13 48
27 15 15 32 26 38 26 6 0 30 16 54 35 24 21 48 34 57 30 10 -4 51 31 122 105
72 73 114 110 129 110 12 0 37 7 56 14 19 8 35 20 35 27 0 7 9 9 25 5 18 -5
25 -2 25 8 0 8 15 23 33 35 17 11 39 28 48 38 9 10 38 38 64 63 26 25 60 63
76 86 15 23 36 44 44 48 9 3 30 6 45 6 22 0 34 7 45 28 l15 27 -2 -30 c-3 -25
1 -31 21 -33 21 -3 23 -1 16 25 -4 15 -11 51 -16 78 -5 28 -12 75 -15 105 -5
44 -1 71 19 132 15 42 27 91 27 110 0 18 -1 44 -2 57 -2 18 4 29 24 40 24 14
30 14 60 -2 18 -9 41 -23 51 -29 11 -7 35 -28 55 -46 29 -26 43 -32 64 -28 16
3 31 0 39 -10 6 -8 26 -21 43 -29 17 -8 54 -22 81 -31 28 -10 79 -17 115 -17
36 -1 82 3 103 7 22 4 37 13 37 21 0 8 -6 16 -12 16 -7 1 -47 2 -90 3 -62 1
-82 5 -107 24 -16 12 -33 22 -36 22 -3 0 -25 9 -48 19 -23 11 -53 28 -67 39
-14 12 -52 42 -84 69 -33 26 -76 65 -96 86 -23 23 -46 37 -61 37 -14 0 -30 -5
-37 -12 -6 -6 -14 -9 -17 -6 -3 3 3 32 15 64 11 32 21 84 21 116 1 32 -3 63
-8 70 -6 7 -13 29 -16 48 -3 23 4 63 21 115 15 48 25 101 25 132 -1 34 -10 69
-28 105 -22 44 -28 71 -32 161 -3 59 -9 107 -14 107 -5 0 -11 -12 -15 -27 -3
-16 -8 -34 -10 -41 -2 -7 -9 -10 -15 -6 -9 5 -10 -4 -4 -32 4 -21 10 -43 13
-49 4 -5 5 -19 3 -30 -1 -11 -8 -26 -13 -32 -7 -9 -7 -17 0 -25 5 -7 15 -32
21 -55 7 -24 16 -43 20 -43 5 0 11 -12 14 -26 3 -15 -2 -42 -9 -61 -8 -19 -14
-39 -12 -46 1 -7 -5 -23 -14 -37 -9 -14 -22 -47 -28 -74 -9 -42 -9 -51 5 -58
8 -5 15 -22 15 -40 0 -17 5 -47 12 -65 10 -28 9 -38 -5 -63 -11 -18 -15 -39
-12 -53 4 -14 -1 -47 -10 -73 -9 -27 -23 -59 -31 -72 -9 -13 -58 -43 -112 -68
-53 -25 -106 -49 -117 -54 -11 -5 -32 -11 -48 -14 -15 -4 -60 -7 -99 -7 -53
-1 -73 3 -79 14 -5 8 -26 18 -46 22 -21 4 -46 14 -57 23 -10 10 -29 38 -42 64
-13 26 -24 54 -24 63 0 10 -9 15 -26 15 -15 0 -61 -23 -105 -52 -44 -29 -79
-58 -79 -65 0 -7 -9 -13 -20 -13 -11 0 -23 -7 -26 -15 -4 -8 -11 -15 -16 -15
-5 0 -28 -15 -51 -34 -23 -19 -66 -46 -95 -61 -41 -21 -61 -25 -85 -20 -18 4
-57 8 -87 8 -54 2 -55 2 -55 -27 0 -24 7 -33 40 -50 32 -16 54 -20 110 -17 38
1 84 9 100 16 17 7 41 23 55 37 14 13 43 37 65 54 22 16 53 35 69 42 16 7 26
15 23 19 -4 3 17 18 45 33 l51 27 52 -53 c29 -29 65 -56 81 -59 16 -4 41 -12
55 -19 17 -7 69 -10 140 -9 63 2 127 3 144 3 16 0 39 7 52 15 12 8 28 15 34
15 7 0 20 6 28 13 9 7 35 20 57 29 26 9 47 12 57 7 11 -7 14 -21 11 -56 -3
-26 -8 -52 -13 -57 -5 -6 -11 -28 -14 -49 -3 -22 1 -71 10 -110 8 -40 19 -76
24 -81 5 -6 9 -16 9 -23 0 -10 -5 -11 -19 -3 -11 5 -29 10 -41 10 -11 0 -35
-7 -52 -16 -18 -9 -82 -67 -144 -129 -61 -62 -121 -116 -133 -120 -12 -3 -21
-13 -21 -21 0 -8 -9 -14 -19 -14 -11 0 -26 -7 -35 -15 -8 -8 -19 -15 -25 -15
-5 0 -14 7 -19 15 -6 12 -18 14 -50 9 -23 -4 -43 -12 -43 -18 -1 -6 -1 -15 0
-20 1 -5 -6 -17 -15 -27 -9 -10 -13 -22 -10 -27 3 -5 -6 -15 -19 -22 -14 -7
-25 -19 -25 -26 0 -7 -26 -33 -57 -58 -32 -26 -70 -57 -85 -71 -15 -14 -33
-25 -42 -25 -8 0 -18 -4 -21 -10 -3 -5 -23 -17 -43 -27 -20 -9 -55 -29 -77
-44 -22 -15 -65 -51 -95 -81 -30 -29 -77 -64 -103 -77 -27 -14 -61 -41 -77
-60 -15 -20 -35 -53 -43 -74 -9 -20 -23 -40 -32 -43 -9 -4 -21 -2 -28 5 -6 6
-26 11 -44 11 -19 0 -57 -12 -86 -26 -29 -15 -78 -45 -110 -66 l-59 -40 -26
25 c-15 14 -52 44 -82 66 -30 22 -75 58 -100 80 -25 22 -78 67 -119 101 -40
33 -77 60 -81 60 -4 0 -31 24 -61 53 -30 30 -62 58 -71 63 -9 5 -61 50 -115
101 -54 50 -126 115 -160 145 -33 29 -82 69 -108 88 -26 19 -81 63 -123 98
-42 35 -80 70 -85 77 -4 8 -21 22 -37 30 -17 9 -52 34 -79 58 -26 23 -83 71
-126 107 -42 36 -94 80 -114 97 -20 18 -41 33 -47 33 -6 0 -20 10 -31 23 -12
12 -43 38 -69 57 -26 19 -62 44 -79 55 -18 11 -52 33 -76 49 -24 17 -69 42
-99 57 -31 15 -61 33 -67 41 -7 8 -40 27 -75 43 -34 17 -69 36 -78 44 -8 7
-32 23 -52 35 l-38 21 28 28 c15 15 47 43 70 62 24 19 52 35 62 35 10 0 20 4
22 8 2 5 32 26 68 47 36 21 77 46 92 57 15 10 31 18 36 18 5 0 29 15 53 33 24
19 71 48 104 66 33 18 63 39 67 46 4 7 19 16 33 19 14 4 49 21 78 38 28 17 59
38 67 48 9 9 42 30 75 46 33 17 84 43 113 59 29 15 63 38 77 51 13 12 38 25
55 29 17 4 38 18 46 31 9 13 20 22 24 19 5 -3 28 5 52 17 24 12 45 25 48 28 3
3 25 12 49 20 24 8 54 22 66 32 13 10 29 18 37 19 7 0 36 14 63 30 28 16 65
37 83 46 17 9 32 20 32 25 0 4 6 8 13 8 8 0 28 7 46 16 18 9 35 22 38 30 3 8
13 14 23 14 9 0 25 9 35 20 10 11 21 18 24 15 4 -2 20 5 37 16 16 11 44 27 63
35 19 8 53 29 75 48 23 18 70 47 106 65 36 17 75 38 87 45 13 7 31 20 40 28
10 8 41 25 68 37 28 13 79 42 115 65 36 24 89 56 119 72 29 15 56 34 58 41 3
7 12 13 20 13 8 0 38 12 67 27 28 14 58 30 66 34 8 5 43 22 77 39 34 16 66 30
70 30 4 0 25 18 46 40 20 22 45 40 55 40 9 0 33 9 52 20 19 11 51 27 70 36 19
8 73 33 120 56 47 23 99 52 116 65 17 13 34 23 37 23 4 0 40 16 81 35 41 19
78 39 81 45 3 5 15 10 26 10 10 0 19 4 19 9 0 5 33 30 74 55 40 25 79 46 85
46 6 0 39 16 73 35 35 19 75 35 89 35z"/>
<g>
<path d="M6798 9135 c-10 2 -20 -1 -24 -6 -3 -5 -2 -13 1 -19 3 -5 14 -10 25
-10 10 0 20 7 24 15 3 8 2 15 -2 16 -4 0 -15 2 -24 4z"/>
</g>
<g>
<path d="M7018 9139 c-13 -1 -35 -4 -50 -6 l-27 -4 25 -42 c13 -23 33 -60 43
-82 10 -22 37 -61 60 -87 23 -26 63 -62 89 -81 26 -19 64 -37 85 -40 21 -3 51
-13 67 -21 21 -10 71 -15 170 -17 84 -2 144 -7 149 -13 5 -6 12 -25 16 -43 3
-18 15 -43 26 -57 11 -14 26 -40 35 -58 8 -18 23 -46 34 -63 10 -16 19 -36 19
-44 1 -8 17 -29 36 -47 18 -19 37 -34 40 -34 3 0 23 -12 45 -26 22 -15 46 -39
53 -53 8 -17 22 -27 40 -29 15 -2 27 -7 27 -11 0 -5 21 -16 48 -25 26 -10 56
-22 68 -27 12 -6 60 -8 114 -5 51 3 107 13 123 21 18 9 58 15 101 15 60 0 73
-3 84 -20 7 -11 21 -20 32 -20 11 0 20 -4 20 -10 0 -5 9 -10 19 -10 11 0 23
-4 26 -10 3 -5 17 -10 29 -10 15 0 37 -16 62 -45 22 -25 60 -69 87 -96 26 -28
53 -59 60 -69 7 -10 35 -37 62 -59 27 -23 57 -41 65 -41 8 0 32 -9 53 -20 20
-11 45 -20 55 -20 10 0 23 -5 28 -10 6 -6 26 -12 46 -14 19 -2 39 -6 45 -9 5
-4 29 -9 51 -13 25 -4 47 -2 54 4 7 6 24 11 38 11 14 1 38 2 53 2 16 1 30 -1
33 -4 2 -2 0 -17 -6 -32 -9 -22 -7 -31 6 -46 10 -11 23 -40 29 -66 8 -31 18
-47 26 -46 8 2 25 -14 39 -34 14 -21 41 -54 61 -75 20 -21 46 -38 57 -38 12 0
24 -5 28 -11 4 -7 21 -9 41 -6 23 4 43 1 59 -10 17 -11 38 -14 70 -10 29 3 56
0 73 -9 14 -8 47 -17 73 -20 26 -4 53 -13 59 -20 6 -8 22 -14 35 -14 14 0 34
-6 47 -12 12 -7 30 -19 39 -27 10 -7 27 -11 40 -8 17 5 27 1 36 -13 7 -11 31
-32 55 -47 23 -16 47 -28 54 -28 6 0 28 -20 47 -45 20 -25 36 -52 36 -60 0 -8
25 -41 56 -72 37 -38 64 -58 79 -58 13 0 27 -4 30 -10 3 -5 14 -10 24 -10 10
0 24 -6 30 -14 7 -8 28 -17 49 -21 20 -4 59 -18 85 -31 27 -13 56 -24 64 -24
9 0 31 -11 50 -26 18 -14 33 -31 33 -37 0 -7 13 -20 29 -30 16 -9 42 -17 58
-17 15 -1 40 -11 54 -23 15 -12 29 -34 33 -49 3 -15 35 -52 76 -89 58 -52 78
-63 112 -66 23 -3 50 -9 59 -14 10 -5 29 -9 43 -9 14 0 37 -6 52 -12 21 -10
28 -10 31 -1 3 8 22 10 61 6 31 -3 71 -13 87 -22 17 -9 51 -32 77 -51 26 -19
50 -44 54 -55 4 -10 12 -25 20 -32 7 -7 22 -13 33 -13 11 0 23 -4 26 -10 3 -5
16 -10 28 -10 12 0 35 -14 51 -30 16 -17 38 -30 49 -30 10 0 33 -8 50 -17 18
-10 40 -24 49 -32 11 -8 29 -11 45 -8 24 5 31 1 44 -22 12 -20 25 -28 45 -29
16 0 52 -3 79 -7 29 -5 62 -18 78 -31 16 -13 36 -24 45 -24 9 0 37 -26 62 -58
25 -31 57 -75 71 -98 14 -22 46 -56 70 -76 24 -20 79 -52 121 -72 43 -19 84
-33 92 -30 8 3 29 -2 46 -11 26 -14 72 -17 253 -20 122 -2 228 0 238 5 12 7
22 3 38 -15 11 -14 21 -30 21 -36 0 -6 9 -22 20 -36 11 -14 20 -33 20 -42 0
-9 18 -35 40 -59 22 -24 40 -51 40 -61 0 -10 18 -37 40 -60 22 -22 48 -41 58
-41 10 0 37 -16 59 -35 23 -19 48 -35 56 -35 8 0 20 -7 27 -15 7 -8 17 -15 23
-15 5 0 16 8 23 18 8 10 13 12 14 5 0 -7 9 -13 20 -13 12 0 32 -12 46 -27 13
-14 27 -24 30 -21 3 3 16 -4 30 -17 13 -12 24 -26 24 -31 0 -5 9 -15 20 -22
12 -7 25 -10 30 -7 5 3 12 -1 17 -9 5 -8 29 -26 55 -40 35 -19 56 -23 83 -19
26 4 41 1 55 -12 11 -10 20 -29 20 -42 0 -12 5 -23 11 -23 6 0 45 -36 88 -80
42 -44 85 -80 94 -80 8 0 18 -4 21 -9 3 -4 34 -12 68 -16 35 -4 90 -7 123 -5
33 1 65 6 72 12 7 6 18 6 30 0 10 -5 27 -8 38 -6 11 1 21 8 23 13 2 6 12 11
22 11 9 0 23 -7 30 -15 7 -8 21 -30 31 -48 10 -17 25 -48 35 -67 9 -19 20 -42
25 -50 5 -8 13 -25 19 -37 5 -13 16 -23 24 -23 7 0 21 -11 30 -25 9 -14 23
-25 31 -25 8 0 15 -6 15 -14 0 -7 11 -21 23 -29 13 -8 66 -23 118 -33 52 -9
109 -19 127 -22 25 -3 36 -12 46 -36 7 -17 23 -40 35 -50 11 -11 21 -24 21
-29 0 -5 21 -34 46 -63 25 -30 53 -54 63 -54 9 0 22 -5 28 -11 6 -6 42 -15 80
-19 37 -5 82 -11 100 -15 29 -7 33 -5 39 20 3 14 3 30 -2 35 -5 5 -38 11 -74
15 -36 4 -79 13 -96 21 -17 8 -45 29 -63 46 -17 17 -31 38 -32 47 0 9 -20 52
-42 96 -33 62 -46 80 -62 78 -11 -1 -45 -3 -75 -4 -30 -1 -79 2 -109 5 -30 4
-66 15 -80 24 -14 10 -39 24 -55 32 -16 8 -31 21 -34 30 -3 8 -18 31 -33 50
-15 19 -37 64 -50 100 -13 36 -29 76 -36 90 -7 14 -13 31 -13 37 0 9 -18 11
-67 8 -38 -3 -124 -7 -192 -10 -100 -5 -134 -2 -174 11 -31 10 -70 35 -100 63
-27 25 -67 77 -90 116 -23 38 -45 73 -50 76 -5 4 -43 10 -85 13 -73 7 -79 10
-142 60 -36 29 -73 55 -82 59 -10 3 -18 11 -18 16 0 5 -15 14 -32 19 -18 6
-53 13 -78 16 -25 3 -77 21 -117 40 -55 27 -81 47 -109 85 -20 27 -56 85 -80
128 -24 43 -53 100 -66 126 l-23 48 -85 -6 c-47 -3 -134 -9 -193 -13 -59 -4
-112 -3 -117 2 -4 4 -28 4 -52 -1 -27 -6 -53 -6 -68 0 -14 5 -34 13 -45 17
-11 4 -37 15 -58 24 -21 9 -42 16 -48 16 -6 0 -30 14 -54 30 -24 17 -48 30
-54 30 -6 0 -11 6 -11 13 0 7 -11 21 -25 31 -14 10 -31 24 -38 30 -8 6 -39 50
-70 97 -33 51 -70 96 -91 108 -18 12 -37 33 -40 46 -5 20 -13 25 -36 25 -16 0
-31 -4 -35 -9 -3 -6 -26 -13 -51 -17 -29 -4 -50 -2 -57 5 -6 6 -18 11 -27 11
-9 0 -25 9 -34 19 -10 10 -36 24 -59 30 -23 5 -57 22 -76 36 -19 14 -39 25
-44 25 -5 0 -44 21 -86 47 -42 27 -108 80 -147 120 -39 39 -82 75 -97 78 -14
4 -31 13 -38 21 -6 8 -22 14 -34 14 -13 0 -34 -13 -48 -30 -14 -16 -33 -30
-41 -30 -9 0 -16 6 -16 14 0 10 -18 13 -69 13 -60 0 -73 4 -112 31 -24 16 -58
45 -75 64 -25 26 -33 45 -39 90 -3 32 -10 60 -15 63 -5 3 -19 1 -30 -5 -15 -8
-25 -8 -34 -1 -6 6 -21 8 -32 5 -12 -3 -35 7 -63 28 -24 18 -62 47 -86 65 -24
17 -60 36 -81 42 -22 5 -67 12 -102 16 -34 4 -65 11 -68 16 -3 5 -14 9 -26 9
-11 0 -34 10 -51 22 -18 12 -47 38 -64 57 -18 20 -33 41 -33 47 0 6 -6 17 -14
23 -8 7 -18 25 -21 41 -4 18 -29 50 -62 80 -32 30 -64 50 -78 50 -12 0 -28 7
-35 15 -7 8 -22 15 -34 15 -12 0 -27 5 -34 12 -7 7 -12 8 -12 3 0 -4 -8 -2
-17 7 -10 8 -45 22 -78 32 -33 9 -69 21 -80 26 -11 4 -29 11 -40 16 -11 4 -33
6 -48 5 -15 -2 -34 2 -40 8 -7 5 -47 12 -90 14 -55 3 -83 9 -97 22 -11 10 -26
15 -36 11 -10 -4 -26 5 -45 25 -16 17 -29 35 -29 40 0 5 -6 9 -14 9 -7 0 -30
25 -50 55 -20 31 -43 81 -51 113 -8 31 -17 73 -20 92 -3 19 -13 41 -22 47 -13
10 -23 9 -52 -6 -20 -10 -49 -24 -66 -32 -16 -7 -57 -12 -90 -11 -33 2 -62 7
-63 12 -2 6 -23 19 -46 29 -23 11 -55 23 -71 27 -17 4 -41 15 -54 26 -13 10
-29 18 -36 18 -6 0 -39 25 -73 55 -38 35 -70 75 -86 108 -14 29 -48 74 -75
101 -28 26 -56 44 -62 41 -6 -4 -18 0 -27 8 -9 8 -32 18 -50 22 -18 4 -46 14
-63 22 -24 12 -49 14 -111 9 -44 -3 -87 -10 -96 -15 -10 -5 -48 -12 -87 -15
-38 -4 -90 -3 -115 3 -25 5 -62 14 -82 19 -20 5 -51 20 -68 33 -17 13 -52 42
-77 64 -26 22 -61 56 -79 75 -19 19 -41 50 -50 70 -9 19 -21 42 -25 50 -5 8
-15 29 -22 45 -8 17 -17 52 -21 79 -5 31 -16 57 -32 73 -23 23 -26 24 -186 21
-160 -3 -164 -2 -221 25 -32 15 -62 27 -67 27 -6 0 -15 9 -22 20 -7 11 -18 20
-24 20 -6 0 -19 10 -30 23 -10 13 -24 32 -30 43 -6 10 -18 33 -27 49 -8 17
-18 42 -22 58 -3 15 -12 27 -20 27 -8 0 -15 5 -15 10 0 6 -10 9 -22 9z"/>
</g>
<g>
<path d="M5586 7530 c-1 0 -11 -6 -21 -14 -16 -12 -17 -17 -6 -45 8 -17 17
-31 22 -31 5 0 29 -18 53 -40 24 -22 48 -40 53 -40 5 0 18 -9 28 -20 10 -11
24 -20 32 -20 7 0 13 -5 13 -10 0 -6 12 -16 28 -23 15 -6 41 -26 57 -43 17
-17 53 -39 80 -49 28 -10 55 -24 60 -30 6 -7 26 -17 45 -23 19 -6 54 -16 78
-23 23 -7 47 -18 53 -26 6 -7 18 -13 25 -13 8 0 14 -4 14 -10 0 -5 33 -28 73
-52 39 -24 81 -47 92 -52 11 -4 47 -8 80 -7 33 1 83 9 110 17 28 9 58 26 67
38 14 18 28 21 96 23 49 1 96 -4 122 -13 24 -8 50 -23 57 -32 7 -9 38 -54 68
-99 31 -46 62 -83 70 -83 7 0 17 -5 21 -11 4 -7 7 -21 8 -33 1 -14 9 -22 24
-24 17 -3 22 -10 22 -31 0 -16 7 -34 15 -41 8 -7 15 -9 15 -5 0 4 7 2 16 -5
13 -11 19 -10 36 7 l21 21 -38 39 c-20 21 -53 62 -71 91 -19 29 -34 57 -34 63
0 5 -6 17 -12 25 -7 9 -25 29 -40 46 -16 17 -28 34 -28 38 0 4 -11 19 -25 34
-13 14 -27 26 -30 26 -3 0 -15 9 -27 20 -19 17 -31 19 -92 14 -39 -3 -95 -10
-125 -15 -29 -5 -56 -7 -60 -5 -4 3 -27 -11 -50 -30 -29 -23 -56 -35 -80 -36
-20 -1 -49 -1 -66 0 -16 2 -35 9 -41 17 -6 8 -14 15 -18 15 -3 0 -32 20 -64
45 -31 25 -65 45 -75 45 -10 0 -21 8 -24 18 -4 9 -11 20 -17 24 -6 4 -20 8
-30 8 -11 0 -27 6 -35 14 -9 8 -36 16 -61 18 -26 2 -52 11 -63 21 -10 10 -31
20 -48 24 -17 3 -33 12 -36 19 -3 8 -11 14 -19 14 -8 0 -14 8 -14 18 0 10 -22
32 -53 51 -28 19 -68 45 -88 58 -19 13 -40 23 -47 23 -7 0 -12 6 -12 14 0 8
10 16 23 18 16 2 22 10 22 28 0 20 -6 26 -29 28 -16 2 -33 -1 -39 -7 -7 -7
-21 -5 -45 4 -19 8 -35 15 -36 15z"/>
</g>
<g>
<path d="M9090 7097 c-3 2 -12 -5 -20 -15 -8 -10 -29 -28 -47 -40 -17 -12 -40
-22 -51 -22 -10 0 -39 -15 -63 -33 -24 -19 -79 -51 -121 -71 -72 -34 -85 -37
-165 -37 -49 0 -96 -2 -105 -5 -11 -3 -18 -15 -18 -28 0 -13 6 -28 13 -33 6
-5 38 -10 70 -12 31 -1 81 2 110 9 28 6 69 20 89 31 20 10 44 19 53 19 8 0 25
6 38 13 12 6 37 24 54 39 18 15 47 31 65 37 18 5 47 14 65 19 26 8 40 6 85
-15 29 -14 65 -34 80 -44 14 -11 33 -19 42 -19 9 0 19 -7 23 -16 3 -8 15 -14
27 -12 12 1 44 -8 71 -21 28 -13 66 -25 85 -27 19 -2 79 -8 133 -12 54 -5 110
-8 125 -7 15 1 46 5 70 9 26 5 41 13 39 19 -2 7 -27 13 -58 13 -30 1 -76 5
-104 8 -27 4 -93 17 -145 28 -57 12 -120 34 -158 54 -35 19 -69 34 -75 34 -7
1 -28 14 -47 30 -19 17 -40 30 -46 30 -7 0 -21 10 -31 23 -10 12 -31 29 -48
37 -16 8 -32 16 -35 17z"/>
</g>
<g>
<path d="M7423 6709 c-5 0 -18 -4 -30 -9 -13 -5 -23 -14 -23 -20 0 -5 6 -10
14 -10 8 0 21 3 30 6 9 3 16 12 16 20 0 8 -3 14 -7 13z"/>
</g>
<g>
<path d="M7543 6685 c-12 3 -24 1 -28 -5 -4 -6 -5 -12 -4 -14 2 -1 19 -13 36
-25 18 -12 36 -34 39 -49 4 -15 15 -45 24 -67 10 -22 20 -48 24 -57 3 -10 11
-15 20 -12 10 4 16 -4 21 -25 3 -16 13 -35 21 -42 13 -10 17 -10 25 2 7 11 9
11 9 1 0 -8 10 -22 23 -33 12 -10 32 -18 44 -19 15 0 57 -34 120 -95 54 -52
103 -95 109 -95 7 0 24 -6 38 -14 15 -7 32 -21 39 -30 7 -8 21 -17 32 -19 11
-2 29 -8 40 -14 11 -6 40 -14 65 -18 24 -4 54 -14 66 -22 12 -7 29 -34 39 -58
9 -25 23 -45 30 -45 10 0 14 -14 14 -52 -1 -29 2 -70 6 -90 4 -21 11 -38 16
-38 4 0 14 -12 21 -26 8 -17 30 -33 62 -45 27 -10 65 -18 85 -17 20 1 45 -2
55 -7 14 -6 17 -5 12 3 -4 7 -4 12 1 12 4 0 24 -14 43 -31 19 -17 51 -46 71
-64 19 -18 46 -36 58 -40 12 -4 37 -19 54 -34 18 -15 46 -36 63 -46 24 -14 38
-15 60 -8 19 6 29 17 29 29 0 13 -8 20 -26 22 -14 2 -66 34 -115 72 -49 38
-102 81 -117 95 -15 14 -34 25 -41 25 -8 0 -19 6 -25 14 -7 9 -32 14 -62 14
-27 1 -60 4 -72 8 -12 4 -34 15 -49 26 -15 10 -34 33 -42 51 -8 18 -20 66 -27
107 -7 41 -19 91 -28 110 -12 25 -24 36 -46 40 -16 4 -44 14 -62 23 -18 9 -50
17 -73 17 -28 0 -40 4 -40 14 0 9 -7 12 -19 9 -12 -3 -35 11 -69 44 -28 26
-78 74 -111 106 -33 31 -67 57 -75 57 -7 0 -16 9 -19 21 -3 12 -10 18 -15 15
-5 -3 -27 3 -49 14 -21 10 -63 37 -93 59 -30 23 -57 41 -61 41 -3 0 -12 12
-20 28 -8 15 -21 33 -29 39 -13 11 -13 14 -1 22 12 8 11 14 -5 41 -10 18 -30
41 -44 51 -14 9 -35 20 -47 24z"/>
</g>
<g>
<path d="M7284 6659 c-11 0 -14 -3 -6 -6 7 -3 16 -2 19 1 4 3 -2 6 -13 5z"/>
</g>
<g>
<path d="M6658 6229 c-2 0 -9 -3 -17 -6 -8 -3 -37 -23 -65 -44 -28 -22 -59
-39 -68 -39 -9 0 -20 -4 -23 -10 -3 -5 -13 -10 -22 -10 -8 0 -27 -8 -41 -19
-15 -10 -52 -26 -82 -36 -30 -10 -65 -26 -76 -37 -12 -10 -25 -18 -30 -17 -5
1 -16 0 -24 -3 -8 -4 -36 -13 -63 -21 -31 -9 -50 -11 -54 -4 -3 6 -35 7 -81 4
-43 -3 -78 -11 -83 -18 -4 -7 -5 -17 -3 -24 3 -6 27 -21 55 -34 38 -16 61 -20
97 -16 26 4 63 8 82 9 18 2 36 8 38 15 2 6 12 11 21 11 10 0 32 7 49 16 18 8
34 19 37 24 3 5 20 16 38 25 17 9 52 23 77 32 25 8 52 21 61 29 8 8 20 14 26
14 5 0 21 10 35 23 14 12 37 23 53 24 15 1 46 -7 69 -19 22 -11 45 -27 49 -34
4 -8 18 -14 29 -14 12 0 30 -8 40 -17 11 -10 31 -18 46 -19 15 -1 30 -3 35 -3
4 -1 7 -7 7 -15 0 -8 14 -17 33 -21 17 -4 37 -10 42 -14 6 -3 28 -11 50 -16
24 -6 130 -9 260 -8 142 2 235 -1 262 -8 25 -7 45 -19 48 -29 3 -10 34 -47 68
-82 44 -46 72 -67 97 -71 19 -4 44 -16 55 -27 12 -11 42 -24 67 -28 25 -5 83
-6 129 -2 46 5 126 17 177 28 51 11 105 28 118 37 14 9 28 23 31 31 3 9 1 20
-5 26 -7 7 -15 8 -24 1 -7 -5 -33 -16 -58 -23 -25 -7 -52 -15 -60 -17 -8 -2
-62 -8 -120 -12 -58 -4 -118 -6 -135 -4 -16 2 -51 15 -77 29 -26 13 -54 24
-62 24 -8 0 -25 18 -37 40 -13 22 -25 40 -29 40 -3 0 -16 19 -29 43 -13 24
-38 53 -55 65 -27 18 -42 21 -96 17 -36 -3 -117 -7 -180 -10 -63 -3 -119 -6
-125 -6 -5 0 -62 6 -126 14 -64 8 -129 21 -145 30 -16 9 -58 30 -94 48 -36 18
-67 35 -70 39 -3 4 -31 28 -62 54 -32 25 -59 46 -60 45z"/>
</g>
<g>
<path d="M9070 5440 c-5 0 -11 -4 -15 -10 -3 -5 3 -18 15 -30 11 -11 28 -20
38 -20 9 0 26 -7 36 -15 11 -8 25 -15 30 -15 6 0 12 11 12 25 1 17 -3 25 -15
26 -9 0 -29 2 -45 4 -16 2 -34 11 -38 20 -5 8 -13 15 -18 15z"/>
</g>
<g>
<path d="M9324 5320 c-2 0 -4 -6 -4 -14 0 -8 4 -17 9 -20 5 -4 20 -2 33 3 l23
9 -28 11 c-16 6 -30 11 -33 11z"/>
</g>
<g>
<path d="M9428 5260 c-14 0 -18 -5 -14 -16 3 -9 6 -20 6 -25 0 -5 9 -9 19 -9
11 0 23 5 27 11 4 8 9 7 15 -2 4 -7 11 -10 15 -7 3 4 4 15 0 24 -3 9 -13 14
-21 10 -8 -3 -17 -1 -20 4 -4 6 -15 10 -27 10z"/>
</g>
<g>
<path d="M9571 5220 c-15 0 -31 -3 -34 -6 -4 -4 -4 -11 -1 -15 3 -5 12 -9 21
-9 9 0 22 -8 29 -17 9 -14 16 -15 24 -7 9 9 9 17 1 33 -8 14 -21 21 -40 21z"/>
</g>
<g>
<path d="M9689 5160 c-5 0 -9 -6 -9 -14 0 -7 7 -19 15 -26 8 -7 15 -18 15 -26
0 -7 13 -28 29 -46 15 -18 32 -43 36 -56 4 -15 12 -21 21 -18 8 3 24 -4 37
-17 17 -17 36 -22 92 -25 69 -4 71 -5 123 -55 31 -30 52 -60 52 -73 0 -14 13
-30 38 -46 20 -13 55 -36 77 -51 22 -14 63 -36 90 -49 28 -13 55 -29 60 -36 6
-7 28 -15 50 -17 22 -3 52 -14 67 -25 15 -11 31 -20 36 -20 5 0 31 -12 57 -26
25 -15 49 -34 52 -43 3 -9 25 -35 49 -58 24 -23 44 -51 44 -62 0 -11 5 -32 12
-46 6 -14 30 -46 54 -70 23 -25 47 -45 53 -45 5 0 14 -7 19 -17 8 -13 20 -15
73 -10 34 4 70 14 79 22 9 8 24 15 34 15 9 0 30 6 45 14 15 8 46 15 68 14 36
0 42 -4 57 -34 8 -19 22 -34 30 -34 8 0 20 -16 26 -35 6 -19 16 -35 20 -35 5
0 7 -7 4 -15 -4 -8 1 -31 10 -50 9 -18 31 -44 49 -56 17 -13 40 -31 50 -41 10
-10 29 -18 43 -18 14 0 44 -4 67 -10 23 -5 63 -12 89 -15 39 -5 56 -15 105
-61 37 -35 64 -53 76 -50 9 2 17 0 17 -5 0 -5 8 -9 18 -9 9 0 28 -9 42 -20 14
-11 32 -20 41 -20 8 0 21 -6 27 -12 10 -10 17 -10 33 0 12 8 18 9 15 3 -4 -6
7 -17 23 -26 17 -8 37 -15 45 -15 9 0 36 -16 62 -35 25 -19 77 -53 114 -76 38
-22 74 -47 81 -55 6 -8 17 -14 24 -14 7 0 42 -28 76 -63 37 -37 80 -68 101
-76 21 -7 42 -9 48 -6 5 3 10 14 10 25 0 10 -10 20 -22 24 -13 3 -41 28 -63
55 -22 27 -58 59 -80 72 -22 12 -49 30 -60 40 -11 10 -54 36 -96 57 -42 21
-85 48 -97 60 -11 11 -34 23 -52 27 -17 4 -50 18 -73 31 -23 13 -56 24 -73 24
-17 0 -38 8 -48 18 -9 11 -34 25 -56 32 -21 7 -41 19 -44 26 -3 8 -10 14 -16
14 -6 0 -22 13 -36 30 -14 16 -39 36 -56 45 -17 8 -38 15 -48 15 -9 0 -20 4
-26 9 -5 5 -46 11 -91 13 -69 3 -85 7 -103 26 -11 12 -24 22 -28 22 -4 0 -16
17 -26 38 -10 20 -22 45 -27 54 -5 10 -9 25 -9 33 0 8 -4 15 -10 15 -5 0 -10
7 -10 15 0 8 -19 34 -42 57 -23 24 -42 48 -43 53 0 6 -13 11 -28 13 -16 2 -34
-1 -40 -6 -7 -5 -30 -13 -52 -17 -21 -3 -49 -17 -61 -30 -19 -21 -26 -22 -60
-14 -22 4 -54 9 -71 9 -23 0 -33 5 -33 15 0 8 -7 15 -15 15 -8 0 -15 3 -15 8
0 4 -16 24 -35 45 -19 21 -35 46 -35 56 0 9 -11 32 -25 51 -14 19 -25 39 -25
46 0 6 -7 14 -15 18 -8 3 -15 12 -15 20 0 8 -15 26 -32 40 -18 13 -62 34 -98
46 -36 12 -69 25 -75 30 -5 4 -32 19 -58 34 -26 14 -52 26 -58 26 -6 0 -31 16
-56 35 -25 19 -53 35 -63 35 -9 0 -43 29 -74 65 -32 35 -66 79 -75 97 -9 18
-34 43 -56 56 -32 18 -50 22 -91 18 -39 -3 -59 0 -82 15 -17 10 -55 41 -84 70
-29 28 -63 55 -76 60 -13 5 -28 9 -33 9z"/>
</g>
<g>
<path d="M12929 4920 c-18 0 -30 -6 -33 -18 -4 -10 -21 -29 -39 -43 -17 -13
-54 -32 -82 -42 -27 -10 -63 -22 -80 -26 -16 -4 -67 -3 -113 2 -45 5 -94 6
-107 3 -16 -4 -27 -16 -31 -33 -5 -19 -2 -30 11 -40 11 -7 38 -13 62 -13 23 0
93 7 154 16 78 11 126 23 156 40 24 13 55 24 68 24 17 0 29 -9 40 -30 9 -17
28 -36 43 -41 15 -6 50 -17 79 -25 28 -7 91 -14 140 -15 48 -1 111 2 138 7 34
6 50 14 50 24 0 12 -15 15 -70 16 -38 0 -90 4 -115 8 -25 4 -67 15 -93 23 -27
9 -61 29 -77 44 -16 16 -39 49 -51 74 -19 37 -27 45 -50 45z"/>
</g>
<g>
<path d="M9683 4280 c-4 0 -19 -7 -33 -15 -14 -8 -50 -26 -80 -41 -30 -14 -66
-31 -80 -36 -14 -6 -34 -14 -45 -18 -11 -4 -54 -18 -95 -30 -45 -14 -120 -25
-187 -30 -67 -4 -118 -12 -127 -20 -9 -7 -16 -20 -16 -29 0 -9 15 -23 33 -31
18 -8 62 -14 102 -14 40 0 96 7 130 18 33 10 78 22 101 27 22 4 57 16 77 25
21 10 37 21 37 26 0 4 8 8 18 8 10 0 27 7 38 15 10 8 29 15 40 15 12 0 27 7
34 15 7 8 20 15 29 15 9 0 25 -7 35 -15 11 -8 29 -15 40 -15 12 0 32 -9 46
-20 14 -11 35 -20 48 -20 12 0 48 -9 79 -20 37 -13 83 -20 129 -20 41 0 87 6
107 15 20 8 42 13 49 10 7 -3 33 -37 58 -76 25 -39 57 -77 71 -85 15 -7 29
-20 32 -29 4 -8 12 -15 18 -15 7 0 21 -7 31 -17 11 -10 55 -22 109 -30 64 -9
96 -10 110 -3 11 6 17 15 14 21 -4 5 -12 9 -19 9 -8 0 -19 7 -26 15 -7 8 -23
15 -37 15 -13 0 -38 7 -56 15 -18 9 -41 21 -52 28 -11 6 -29 19 -40 27 -11 8
-38 42 -60 75 -21 33 -42 62 -47 63 -4 2 -8 13 -8 25 0 12 -6 29 -13 38 -7 9
-19 18 -27 21 -8 3 -34 -5 -57 -19 -32 -17 -59 -24 -105 -25 -35 -1 -82 1
-104 5 -23 4 -77 25 -120 46 -44 22 -100 49 -126 60 -26 12 -51 21 -55 21z"/>
</g>
<g>
<path d="M15904 4198 c-27 2 -36 0 -29 -7 6 -6 26 -14 44 -17 26 -6 33 -4 29
7 -3 8 -21 15 -44 17z"/>
</g>
<g>
<path d="M15988 4200 c-15 0 -28 -3 -28 -7 1 -5 9 -18 19 -30 11 -13 23 -23
28 -23 6 0 10 14 10 30 0 26 -4 30 -29 30z"/>
</g>
<g>
<path d="M10710 3910 c-9 0 -21 -5 -28 -12 -7 -7 -12 -17 -12 -23 0 -7 14 -9
35 -7 19 2 38 9 41 14 4 6 0 14 -7 19 -8 5 -21 9 -29 9z"/>
</g>
<g>
<path d="M12648 3345 c-77 7 -88 5 -88 -9 0 -9 7 -16 15 -16 8 0 23 -4 33 -9
9 -5 34 -17 55 -27 22 -11 44 -26 50 -35 7 -8 24 -24 39 -33 28 -18 28 -18 38
9 6 15 8 35 5 45 -3 9 -18 28 -33 42 -23 22 -40 27 -114 33z"/>
</g>
<g>
<path d="M12809 3210 c-5 0 -9 -9 -9 -19 0 -11 9 -23 20 -26 11 -3 20 -10 20
-14 0 -4 11 -13 25 -19 14 -6 25 -16 25 -22 0 -6 6 -18 13 -27 6 -8 30 -35 52
-58 22 -24 52 -46 67 -50 15 -4 30 -16 33 -26 4 -10 13 -19 20 -19 8 0 22 -12
32 -27 9 -16 31 -41 48 -56 16 -16 39 -32 50 -37 11 -4 57 -13 102 -19 46 -7
107 -23 137 -37 30 -13 59 -31 66 -39 6 -7 24 -17 40 -20 16 -3 34 -13 41 -21
6 -8 22 -14 35 -14 12 0 25 -4 29 -10 3 -5 12 -7 20 -3 9 3 21 1 28 -4 6 -6
29 -13 49 -16 24 -4 51 -18 74 -41 21 -20 41 -36 46 -36 5 0 24 -11 42 -25 18
-14 36 -25 40 -25 4 0 19 -9 33 -20 18 -14 33 -18 52 -13 14 3 29 11 33 16 3
6 2 20 -4 32 -5 12 -28 32 -50 44 -22 11 -45 21 -52 21 -7 0 -24 13 -39 28
-15 15 -27 32 -27 38 0 5 -12 17 -26 27 -21 16 -32 17 -71 9 -36 -8 -49 -7
-57 3 -6 7 -28 15 -49 18 -22 3 -55 19 -75 34 -20 15 -52 38 -70 51 -18 12
-39 22 -46 22 -6 0 -21 7 -32 15 -11 8 -42 15 -74 15 -30 0 -75 7 -100 14 -25
8 -60 22 -77 31 -18 9 -45 31 -60 50 -16 18 -46 46 -68 60 -22 15 -44 34 -48
41 -4 8 -15 14 -22 14 -8 0 -15 6 -15 13 0 6 -27 35 -58 64 -32 28 -76 58 -96
67 -21 9 -42 16 -47 16z"/>
</g>
<g>
<path d="M11874 2960 c-12 0 -55 -22 -96 -48 -40 -27 -92 -61 -116 -76 -28
-18 -42 -33 -40 -44 3 -13 12 -16 38 -14 19 1 41 9 50 16 8 8 26 17 40 21 14
4 40 14 59 23 32 15 36 14 80 -10 26 -15 74 -30 111 -35 36 -4 112 -8 170 -7
58 0 124 4 148 8 28 5 42 4 42 -3 0 -6 4 -11 9 -11 5 0 23 -13 39 -30 17 -16
37 -30 45 -30 8 0 22 -9 31 -19 10 -11 24 -17 31 -15 7 3 16 1 20 -5 3 -6 24
-11 45 -11 21 0 42 -5 46 -11 4 -7 23 -9 53 -4 25 3 57 6 71 6 14 -1 43 -1 64
-1 22 0 44 4 50 10 5 5 23 10 38 10 16 0 47 9 68 20 22 11 40 27 40 36 0 10
-6 14 -17 10 -10 -3 -47 -11 -83 -18 -36 -7 -103 -12 -150 -11 -65 2 -100 8
-149 28 -36 14 -71 25 -78 25 -7 0 -42 29 -78 64 -36 35 -65 69 -65 75 0 6 -5
11 -12 11 -7 0 -22 -12 -34 -27 -20 -25 -30 -28 -91 -31 -37 -2 -84 -4 -103
-4 -19 0 -65 9 -103 19 -37 11 -73 25 -79 31 -7 7 -17 12 -23 12 -7 0 -20 9
-30 20 -10 11 -28 20 -41 20z"/>
</g>
<g>
<path d="M11532 2789 c-26 -1 -92 -5 -146 -9 -79 -6 -103 -12 -113 -26 -7 -10
-13 -21 -13 -25 0 -3 12 -11 28 -17 15 -6 52 -12 82 -12 30 -1 77 3 104 9 27
6 55 16 62 22 7 6 22 8 32 5 11 -4 24 0 31 8 9 11 8 17 -4 30 -11 11 -32 16
-63 15z"/>
</g>
</g>
</g>
</svg>
