<?xml version="1.0" standalone="no"?>
<!DOCTYPE svg PUBLIC "-//W3C//DTD SVG 20010904//EN"
 "http://www.w3.org/TR/2001/REC-SVG-20010904/DTD/svg10.dtd">
<svg version="1.0" xmlns="http://www.w3.org/2000/svg"
 width="2048.000000pt" height="1880.000000pt" viewBox="0 0 2048.000000 1880.000000"
 preserveAspectRatio="xMidYMid meet">
<metadata>
Created by potrace 1.16, written by Peter Selinger 2001-2019
</metadata>
<g transform="translate(0.000000,1880.000000) scale(0.100000,-0.100000)"
fill="#000000" stroke="none">
<g>
<path d="M11495 17633 c-242 2 -480 0 -530 -5 -49 -4 -175 -12 -280 -18 -104
-5 -271 -13 -370 -16 -99 -4 -183 -8 -187 -11 -4 -2 -70 -6 -145 -9 -76 -3
-160 -8 -188 -10 -27 -2 -108 -8 -180 -14 -71 -6 -206 -17 -300 -26 -93 -9
-204 -20 -245 -25 -41 -5 -109 -14 -150 -19 -41 -5 -101 -14 -132 -19 -31 -5
-63 -13 -70 -17 -7 -5 -33 -10 -58 -11 -25 -2 -56 -5 -70 -7 -14 -2 -32 -6
-40 -10 -8 -3 -35 -7 -60 -10 -25 -2 -88 -13 -140 -25 -53 -12 -125 -25 -160
-30 -36 -5 -112 -21 -170 -35 -58 -15 -114 -31 -125 -36 -11 -4 -31 -11 -45
-15 -14 -3 -50 -10 -80 -15 -30 -4 -91 -18 -135 -30 -44 -12 -105 -28 -135
-35 -30 -7 -73 -19 -95 -25 -22 -7 -44 -15 -50 -19 -5 -4 -39 -15 -75 -25 -36
-10 -75 -22 -88 -27 -13 -5 -31 -9 -41 -9 -10 0 -24 -7 -31 -15 -7 -8 -23 -15
-35 -15 -13 0 -44 -9 -70 -20 -26 -11 -55 -20 -66 -20 -11 0 -27 -4 -37 -9 -9
-4 -33 -14 -52 -21 -19 -7 -66 -21 -105 -31 -38 -11 -88 -27 -110 -38 -22 -10
-71 -31 -110 -46 -38 -16 -94 -36 -123 -46 -29 -10 -60 -25 -68 -34 -8 -8 -22
-15 -30 -15 -8 0 -45 -14 -82 -31 -37 -17 -78 -36 -92 -43 -14 -7 -52 -26 -85
-43 -33 -16 -87 -43 -120 -58 -33 -15 -67 -32 -75 -36 -8 -5 -22 -12 -30 -15
-8 -3 -62 -29 -120 -57 -58 -28 -111 -50 -117 -49 -7 2 -13 -1 -13 -6 0 -5
-39 -27 -87 -49 -49 -22 -104 -46 -123 -53 -19 -7 -42 -19 -50 -26 -8 -6 -80
-44 -160 -83 -79 -40 -149 -76 -156 -81 -6 -6 -40 -25 -75 -43 -35 -18 -83
-39 -106 -47 -24 -7 -43 -16 -43 -20 0 -4 -24 -17 -52 -30 -29 -14 -72 -37
-95 -52 -23 -15 -46 -28 -51 -28 -5 0 -20 -9 -34 -19 -13 -11 -37 -23 -51 -26
-15 -4 -27 -11 -27 -15 0 -4 -29 -23 -65 -41 -36 -19 -78 -40 -93 -48 -15 -8
-40 -25 -55 -38 -16 -12 -32 -23 -37 -23 -4 0 -43 -21 -86 -47 -44 -26 -83
-51 -89 -55 -5 -4 -24 -19 -41 -33 -18 -14 -35 -25 -39 -25 -4 0 -24 -15 -44
-32 -20 -18 -52 -45 -71 -60 -19 -16 -38 -28 -43 -28 -5 0 -24 -12 -42 -27
-17 -16 -52 -44 -76 -63 -24 -19 -63 -52 -87 -72 -24 -21 -47 -38 -51 -38 -5
0 -42 -34 -82 -76 -41 -42 -86 -88 -100 -103 -14 -14 -39 -37 -55 -51 -16 -14
-50 -50 -75 -80 -25 -30 -65 -82 -88 -115 -23 -33 -57 -80 -76 -105 -18 -25
-34 -49 -34 -55 -1 -5 -16 -27 -35 -49 -19 -21 -42 -52 -50 -70 -8 -17 -29
-44 -46 -59 -16 -16 -30 -37 -30 -48 0 -10 -4 -19 -9 -19 -5 0 -12 -11 -15
-25 -4 -14 -11 -25 -16 -25 -6 0 -10 -5 -10 -10 0 -6 -21 -45 -47 -88 -25 -42
-50 -78 -55 -80 -4 -2 -8 -9 -8 -17 0 -7 -7 -18 -16 -25 -8 -8 -22 -29 -29
-48 -8 -18 -29 -52 -47 -75 -18 -23 -39 -52 -45 -65 -7 -13 -13 -31 -13 -38 0
-8 -4 -14 -8 -14 -5 0 -18 -21 -30 -47 -12 -27 -39 -75 -60 -108 -21 -33 -47
-82 -57 -110 -11 -27 -22 -52 -25 -55 -4 -3 -17 -26 -29 -52 -13 -27 -27 -48
-31 -48 -5 0 -14 -17 -20 -37 -7 -21 -22 -54 -35 -73 -12 -19 -26 -46 -30 -60
-4 -14 -21 -52 -38 -85 -17 -33 -33 -62 -37 -65 -4 -3 -11 -16 -15 -30 -4 -14
-23 -56 -40 -95 -18 -38 -42 -92 -54 -119 -12 -27 -21 -54 -21 -60 0 -7 -14
-39 -31 -72 -18 -32 -40 -75 -50 -94 -11 -19 -19 -39 -19 -46 0 -6 -11 -37
-25 -68 -14 -31 -22 -56 -19 -56 3 0 -13 -33 -36 -74 -22 -41 -40 -84 -40 -95
0 -11 -11 -44 -24 -73 -13 -29 -31 -79 -41 -110 -9 -31 -23 -62 -31 -69 -8 -6
-14 -21 -14 -32 0 -11 -5 -37 -12 -56 -6 -20 -19 -54 -28 -76 -10 -22 -20 -57
-24 -77 -4 -21 -11 -38 -17 -38 -6 0 -7 -4 -4 -10 3 -5 -6 -42 -20 -82 -15
-40 -30 -89 -35 -108 -4 -19 -15 -55 -23 -80 -9 -25 -23 -68 -32 -97 -8 -28
-15 -69 -15 -90 0 -21 -7 -49 -17 -62 -9 -13 -20 -42 -25 -65 -4 -23 -11 -66
-14 -96 -3 -30 -11 -60 -16 -67 -6 -7 -11 -32 -13 -55 -1 -24 -10 -85 -19
-137 -9 -52 -22 -101 -27 -108 -6 -7 -15 -50 -19 -95 -4 -46 -13 -102 -19
-125 -6 -23 -14 -73 -17 -110 -3 -37 -7 -90 -9 -118 -2 -27 -6 -57 -8 -65 -3
-8 -10 -30 -16 -49 -6 -18 -15 -84 -21 -145 -5 -61 -11 -131 -14 -156 -2 -25
-9 -76 -15 -115 -5 -38 -13 -90 -16 -115 -4 -25 -8 -70 -10 -100 -2 -30 -9
-78 -14 -107 -5 -29 -13 -123 -17 -210 -4 -87 -8 -176 -9 -198 -1 -22 -3 -121
-4 -220 0 -99 1 -299 4 -445 3 -146 9 -299 15 -340 5 -41 12 -127 15 -190 4
-63 11 -137 16 -164 5 -27 9 -75 9 -108 0 -33 4 -67 9 -76 5 -9 14 -57 20
-107 7 -49 14 -115 17 -145 3 -30 8 -62 11 -70 4 -8 7 -40 8 -70 1 -30 7 -86
13 -125 7 -38 18 -99 27 -135 8 -36 26 -126 40 -200 14 -74 37 -171 51 -214
13 -44 24 -85 24 -93 0 -7 9 -30 20 -50 11 -21 20 -45 20 -53 0 -8 11 -42 24
-75 13 -33 29 -78 36 -100 7 -22 25 -68 41 -103 16 -35 29 -72 29 -83 0 -10 4
-19 8 -19 5 0 20 -26 34 -57 15 -32 38 -88 52 -124 14 -36 26 -70 26 -76 0 -6
9 -28 19 -50 11 -21 31 -63 46 -95 15 -31 29 -59 33 -63 4 -4 7 -10 8 -13 0
-4 6 -26 14 -50 7 -23 19 -47 27 -53 7 -6 13 -17 13 -24 0 -7 19 -49 41 -92
23 -43 48 -87 55 -98 8 -11 14 -29 14 -42 0 -12 4 -24 9 -28 5 -3 23 -31 40
-62 17 -31 31 -60 31 -64 0 -5 12 -21 26 -36 15 -15 39 -55 55 -88 15 -33 38
-71 51 -86 13 -14 29 -34 35 -45 7 -10 21 -35 32 -54 10 -19 20 -39 22 -45 2
-5 13 -20 24 -33 11 -13 30 -42 42 -64 12 -23 26 -44 30 -47 4 -3 15 -18 23
-32 8 -14 24 -40 35 -58 11 -18 41 -60 68 -93 26 -33 47 -67 47 -74 0 -8 3
-14 8 -14 4 0 14 -15 21 -32 8 -18 30 -55 49 -83 20 -27 67 -89 106 -136 39
-48 92 -118 119 -155 26 -38 67 -91 92 -119 24 -27 71 -79 104 -115 32 -36 77
-87 100 -115 22 -27 69 -77 104 -110 34 -33 97 -91 138 -130 41 -38 108 -97
149 -130 41 -33 90 -75 109 -93 19 -18 46 -39 60 -47 14 -7 37 -24 51 -37 14
-13 48 -41 75 -63 28 -23 90 -70 139 -105 49 -36 113 -82 143 -103 30 -20 57
-37 60 -37 2 0 25 -16 50 -35 25 -19 54 -35 63 -35 10 0 24 -7 31 -16 7 -9 22
-20 34 -25 11 -5 61 -34 110 -65 50 -32 119 -73 155 -92 36 -19 79 -42 95 -51
17 -9 32 -19 35 -22 3 -4 41 -26 85 -49 44 -24 87 -48 95 -55 8 -6 56 -32 105
-56 50 -24 92 -46 95 -49 3 -4 21 -12 40 -19 19 -7 44 -16 55 -21 11 -4 58
-23 105 -43 47 -19 105 -40 129 -47 24 -6 54 -17 65 -25 12 -7 46 -21 76 -31
30 -10 61 -23 69 -28 7 -6 43 -23 79 -38 37 -15 72 -28 79 -28 7 0 21 -4 31
-9 9 -6 48 -19 86 -30 38 -12 79 -21 90 -21 11 0 58 -12 104 -26 47 -14 123
-32 171 -39 47 -8 110 -19 140 -25 29 -6 65 -20 80 -30 14 -10 53 -24 86 -30
33 -7 65 -15 70 -20 6 -4 51 -19 100 -34 50 -15 99 -31 110 -36 11 -5 35 -11
53 -14 19 -3 43 -1 53 5 14 7 24 7 33 0 7 -6 51 -11 97 -11 46 0 120 0 164 0
44 0 184 -7 310 -16 127 -8 277 -19 335 -24 58 -5 157 -13 220 -19 63 -5 158
-12 210 -16 52 -3 181 -8 285 -10 105 -3 222 -9 260 -14 39 -4 223 -6 410 -4
187 2 367 6 400 8 33 3 74 5 90 4 17 0 127 5 245 11 118 6 235 16 260 21 25 6
58 13 74 15 16 2 53 10 82 19 30 9 54 20 54 25 0 6 12 10 28 10 15 0 113 0
219 0 128 0 218 5 270 15 43 8 92 12 108 9 17 -3 64 4 107 15 43 12 95 21 115
21 21 0 60 7 87 15 27 8 72 15 100 15 28 0 67 4 86 9 19 6 51 12 70 16 19 3
87 8 150 11 63 3 140 10 170 15 30 5 75 14 100 18 25 5 71 16 103 25 32 9 70
16 85 16 15 0 44 8 64 18 20 11 62 24 95 30 32 6 72 13 88 16 17 2 68 14 115
26 47 12 94 26 105 31 11 5 58 23 105 40 47 17 123 39 170 50 47 11 103 25
125 30 22 6 58 14 80 18 22 5 72 20 110 33 39 14 92 28 119 32 27 4 56 11 65
16 9 5 54 18 101 30 47 11 110 25 140 31 30 6 66 16 80 22 14 7 40 22 59 35
19 12 41 22 49 22 8 0 56 21 106 46 50 26 93 50 96 54 3 4 23 13 45 20 22 7
74 30 115 52 41 21 84 44 94 51 11 7 25 15 30 20 6 4 34 22 61 39 28 17 61 38
75 48 14 9 45 27 70 41 25 13 65 40 90 60 25 20 55 39 68 43 12 4 22 11 22 16
0 5 33 25 74 44 40 19 92 39 114 46 23 6 53 21 67 34 14 13 50 36 78 50 29 14
64 37 76 50 13 14 49 37 80 52 31 15 62 36 69 46 7 10 19 18 27 18 7 0 17 9
20 20 3 11 13 20 21 20 8 0 22 9 31 20 10 11 22 20 28 20 6 0 54 34 106 75 51
41 120 96 153 122 32 27 78 67 103 89 24 23 56 50 70 60 14 11 61 47 104 82
43 34 81 62 85 62 3 0 40 34 81 75 41 41 78 75 82 75 4 0 13 9 21 20 8 11 20
20 26 20 7 0 24 13 37 30 14 16 32 30 41 30 8 0 17 8 20 18 4 10 27 36 52 58
25 21 89 83 142 137 54 54 110 117 125 140 16 23 52 69 80 101 29 32 59 69 67
81 8 12 34 44 57 71 23 27 72 87 108 134 36 47 91 118 123 159 31 40 87 110
124 155 37 44 74 95 82 111 8 17 26 45 40 64 14 19 26 40 26 46 0 6 14 25 30
44 17 18 44 59 61 92 17 32 35 62 40 65 5 3 25 37 45 77 19 40 51 99 70 132
19 33 42 74 50 90 9 17 23 44 32 61 9 17 31 46 49 65 18 19 43 50 57 69 14 19
37 55 52 80 14 25 39 64 55 88 16 23 29 49 29 57 0 8 6 18 13 22 8 4 29 33 48
63 19 30 45 80 59 110 13 30 34 71 45 90 11 19 42 80 69 135 27 55 60 123 74
150 13 28 24 50 22 50 -2 0 1 11 5 25 4 14 13 31 19 39 6 8 21 41 34 75 13 34
27 75 32 91 5 17 23 80 40 140 17 61 40 142 50 182 11 40 26 110 35 155 8 46
21 112 29 148 7 36 23 90 34 121 12 30 24 80 28 110 4 29 10 59 14 64 4 6 15
42 25 80 9 39 26 117 37 175 11 58 26 148 34 200 7 52 13 114 14 137 0 23 5
45 11 48 6 4 8 12 6 19 -3 6 6 79 18 161 13 82 22 152 19 157 -3 4 2 37 11 74
8 37 18 95 21 128 3 34 8 122 11 196 3 74 5 149 5 165 0 17 4 98 9 180 5 83
12 197 15 255 3 58 10 127 14 155 5 27 7 102 4 165 -3 63 -5 148 -5 189 1 41
-3 79 -8 85 -5 6 -13 46 -20 89 -6 43 -11 98 -11 122 0 24 -4 46 -9 49 -4 3
-11 29 -15 58 -4 29 -13 107 -21 173 -8 66 -19 145 -25 175 -7 30 -18 81 -26
112 -8 32 -14 68 -14 80 0 13 -7 36 -15 52 -8 16 -24 72 -34 125 -11 53 -22
112 -25 131 -3 19 -12 60 -20 90 -7 30 -18 67 -24 81 -6 15 -15 51 -21 80 -6
30 -20 92 -30 139 -11 47 -27 110 -35 140 -9 30 -16 64 -16 76 0 12 -7 27 -15
34 -8 6 -26 49 -40 95 -14 46 -25 89 -25 96 0 8 -6 25 -13 39 -7 14 -19 48
-27 75 -7 28 -17 54 -21 60 -5 5 -9 19 -9 31 0 13 -4 26 -10 29 -5 3 -10 16
-10 27 0 12 -12 60 -26 107 -14 47 -39 127 -55 176 -16 50 -39 124 -51 165
-12 41 -24 77 -28 80 -3 3 -11 21 -18 41 -6 19 -12 41 -12 47 0 6 -28 67 -62
134 -34 68 -74 148 -89 178 -15 30 -44 89 -63 132 -20 42 -45 100 -57 130 -11
29 -26 60 -33 68 -7 8 -21 35 -31 60 -10 25 -27 56 -36 70 -10 14 -29 53 -44
85 -15 33 -38 74 -51 92 -13 17 -24 37 -24 45 0 7 -37 67 -82 133 -44 66 -96
137 -115 158 -18 20 -33 40 -33 45 0 4 -10 19 -23 33 -12 15 -47 62 -77 104
-30 43 -83 113 -117 156 -35 43 -63 83 -63 88 0 6 -9 15 -20 21 -11 6 -20 15
-20 21 0 6 -18 32 -40 58 -22 26 -40 50 -40 54 0 4 -31 37 -70 74 -38 37 -70
72 -70 78 0 6 -57 67 -127 135 -69 69 -156 159 -192 200 -35 41 -99 113 -140
160 -42 46 -85 95 -96 108 -11 13 -51 56 -90 96 -38 39 -99 103 -135 141 -36
39 -99 102 -141 140 -41 39 -88 82 -105 97 -16 15 -45 43 -64 63 -19 19 -39
35 -45 35 -5 0 -19 10 -30 23 -11 12 -64 56 -118 97 -54 41 -106 80 -115 85
-9 6 -44 31 -77 56 -34 26 -71 50 -83 53 -12 4 -22 11 -22 15 0 5 -28 23 -62
41 -35 17 -90 47 -123 66 -33 18 -78 43 -100 54 -22 11 -58 31 -80 45 -22 14
-56 32 -75 41 -19 9 -82 38 -140 66 -58 27 -127 60 -155 73 -27 13 -72 33
-100 45 -27 13 -77 35 -111 51 -33 16 -67 29 -75 29 -8 0 -19 4 -24 9 -6 4
-71 27 -145 50 -74 23 -143 46 -152 51 -10 6 -24 10 -32 10 -8 0 -56 14 -107
30 -52 17 -138 42 -193 56 -55 13 -102 28 -105 32 -4 5 -54 18 -112 30 -58 12
-117 22 -130 22 -14 0 -29 4 -35 10 -5 5 -25 11 -44 14 -19 3 -57 8 -85 12
-27 4 -59 11 -70 17 -11 6 -31 12 -45 13 -14 2 -59 8 -100 14 -41 6 -97 18
-125 25 -27 8 -79 19 -115 24 -36 6 -92 15 -125 21 -33 5 -91 13 -130 15 -38
3 -81 7 -95 9 -14 2 -63 7 -110 11 -47 4 -94 10 -105 12 -11 3 -40 7 -65 9
-25 1 -85 5 -135 9 -49 3 -288 7 -530 8z m-140 -110 c11 -1 155 -5 320 -8 165
-3 323 -6 350 -6 28 1 79 -4 115 -9 36 -6 99 -14 140 -20 41 -5 113 -14 160
-20 47 -7 117 -15 155 -19 39 -4 120 -15 180 -25 61 -10 131 -24 156 -32 26
-8 60 -14 75 -14 16 -1 70 -10 119 -21 50 -11 115 -24 145 -29 30 -5 93 -18
140 -30 47 -11 105 -24 130 -30 25 -5 88 -21 140 -35 52 -15 113 -31 135 -36
22 -5 65 -19 95 -30 30 -12 87 -30 125 -40 39 -11 84 -25 100 -30 17 -6 61
-19 98 -30 37 -11 75 -24 85 -29 9 -5 67 -32 127 -59 61 -27 144 -62 185 -79
41 -16 127 -56 190 -89 63 -33 135 -72 160 -86 25 -15 78 -42 118 -62 41 -19
80 -42 89 -50 8 -8 21 -15 29 -15 8 0 39 -18 68 -40 29 -22 57 -40 63 -40 6 0
30 -11 55 -25 24 -13 55 -36 68 -50 13 -14 29 -25 35 -25 6 0 22 -12 36 -26
13 -14 51 -44 83 -65 33 -22 85 -62 115 -89 31 -26 97 -84 146 -129 50 -44
133 -122 185 -173 52 -52 151 -152 220 -223 69 -72 137 -145 150 -163 14 -19
32 -41 40 -50 8 -8 28 -32 43 -51 16 -20 70 -81 120 -136 50 -55 125 -134 167
-175 41 -42 112 -117 158 -167 45 -50 82 -96 82 -101 0 -5 8 -12 18 -14 10 -3
26 -20 35 -39 8 -19 36 -54 61 -79 25 -24 46 -52 46 -61 0 -9 9 -24 20 -34 11
-10 20 -24 20 -30 0 -7 7 -15 15 -18 8 -4 35 -38 61 -77 26 -38 50 -70 54 -70
4 0 13 -13 20 -29 6 -16 22 -39 36 -52 13 -12 24 -28 24 -34 0 -7 19 -32 43
-57 23 -26 51 -58 62 -73 11 -15 32 -49 47 -76 14 -27 36 -61 47 -75 12 -15
21 -35 21 -44 0 -10 6 -23 14 -29 7 -6 31 -53 52 -104 21 -50 53 -116 72 -146
19 -29 58 -103 87 -165 28 -61 66 -140 84 -176 17 -36 40 -81 50 -100 11 -19
32 -66 47 -105 16 -38 43 -98 61 -132 18 -34 33 -69 33 -78 0 -8 4 -23 9 -33
6 -9 21 -55 34 -102 14 -47 33 -114 42 -150 9 -36 30 -110 47 -165 16 -55 35
-116 43 -135 7 -19 21 -60 30 -90 9 -30 25 -86 37 -125 12 -38 27 -77 34 -85
6 -8 15 -35 18 -60 4 -25 11 -54 16 -65 5 -11 18 -48 30 -82 11 -34 20 -70 20
-79 0 -9 13 -62 29 -118 16 -55 41 -153 55 -216 15 -63 31 -131 36 -150 6 -19
15 -55 21 -80 6 -25 21 -92 33 -150 13 -58 31 -129 40 -159 9 -30 16 -66 16
-81 0 -14 6 -50 14 -80 8 -30 19 -95 25 -145 6 -49 15 -128 21 -175 5 -47 17
-128 25 -180 8 -52 19 -131 25 -175 5 -44 10 -120 11 -170 0 -49 -5 -173 -11
-275 -6 -102 -15 -214 -21 -250 -5 -36 -12 -130 -14 -210 -3 -80 -7 -190 -10
-245 -3 -55 -12 -165 -20 -245 -8 -80 -20 -176 -26 -215 -5 -38 -21 -144 -35
-235 -14 -91 -27 -180 -29 -198 -3 -18 -12 -51 -20 -75 -8 -23 -15 -61 -15
-85 0 -23 -7 -70 -16 -105 -8 -34 -20 -78 -25 -97 -5 -19 -28 -109 -50 -200
-22 -91 -49 -201 -59 -245 -10 -44 -23 -93 -29 -110 -5 -16 -15 -61 -21 -100
-7 -38 -18 -88 -25 -110 -8 -22 -26 -80 -41 -130 -15 -49 -40 -117 -57 -150
-16 -33 -33 -69 -38 -80 -4 -11 -17 -41 -28 -67 -12 -26 -21 -52 -21 -57 0 -6
-35 -80 -78 -163 -43 -84 -83 -162 -89 -173 -7 -11 -14 -27 -17 -35 -3 -8 -12
-24 -18 -34 -7 -11 -21 -29 -31 -40 -10 -12 -34 -48 -53 -81 -19 -33 -53 -87
-74 -120 -22 -33 -43 -66 -46 -73 -4 -7 -26 -43 -50 -80 -24 -37 -52 -78 -63
-92 -10 -14 -28 -41 -39 -60 -10 -19 -36 -63 -56 -97 -20 -34 -36 -66 -36 -73
0 -6 -17 -37 -37 -68 -21 -31 -44 -70 -51 -87 -7 -16 -22 -39 -32 -50 -11 -11
-42 -58 -70 -104 -27 -45 -57 -89 -65 -97 -8 -9 -15 -21 -15 -27 0 -7 -10 -23
-23 -37 -12 -14 -52 -63 -87 -110 -36 -47 -71 -89 -78 -93 -7 -5 -16 -17 -20
-27 -4 -10 -23 -37 -42 -60 -19 -24 -60 -70 -92 -104 -31 -34 -97 -116 -147
-182 -50 -67 -98 -124 -106 -128 -8 -3 -15 -11 -15 -19 0 -7 -36 -51 -80 -97
-44 -47 -80 -88 -80 -91 0 -4 -10 -14 -22 -22 -13 -9 -66 -56 -118 -106 -52
-50 -99 -91 -105 -91 -5 0 -28 -19 -50 -40 -22 -22 -43 -40 -47 -40 -5 0 -8
-6 -8 -12 0 -7 -18 -26 -40 -42 -22 -17 -40 -33 -40 -38 0 -4 -5 -8 -11 -8 -6
0 -27 -16 -48 -34 -20 -19 -52 -49 -72 -65 -20 -17 -42 -31 -48 -31 -6 0 -11
-5 -11 -10 0 -6 -7 -13 -15 -17 -9 -3 -29 -17 -44 -32 -15 -14 -56 -48 -90
-76 -35 -27 -88 -72 -119 -98 -32 -27 -69 -55 -84 -63 -16 -8 -28 -18 -28 -22
0 -4 -15 -16 -32 -27 -18 -10 -51 -33 -74 -52 -23 -18 -46 -33 -51 -33 -5 0
-30 -19 -55 -43 -25 -23 -55 -48 -67 -55 -11 -6 -27 -12 -34 -12 -8 0 -22 -9
-31 -19 -10 -11 -32 -27 -49 -36 -18 -9 -41 -22 -52 -28 -11 -7 -39 -25 -62
-40 -24 -15 -48 -27 -55 -27 -8 0 -30 -11 -50 -25 -20 -14 -43 -25 -51 -25 -8
0 -26 -9 -40 -20 -14 -11 -30 -20 -36 -20 -6 0 -11 -4 -11 -9 0 -4 -24 -23
-52 -42 -29 -18 -61 -37 -71 -41 -9 -4 -23 -12 -30 -18 -6 -5 -43 -30 -81 -55
-38 -25 -72 -45 -75 -45 -4 0 -25 -13 -47 -29 -21 -16 -66 -43 -99 -60 -33
-17 -62 -31 -66 -31 -4 0 -37 -18 -74 -39 -36 -22 -94 -49 -128 -62 -34 -12
-69 -28 -77 -34 -8 -7 -42 -22 -75 -34 -33 -13 -67 -28 -75 -36 -8 -7 -37 -16
-65 -20 -27 -4 -63 -13 -80 -20 -16 -7 -43 -15 -60 -18 -16 -3 -46 -10 -65
-17 -19 -7 -44 -17 -55 -21 -11 -5 -42 -13 -70 -18 -27 -6 -74 -15 -102 -22
-29 -6 -53 -16 -53 -20 0 -5 -10 -9 -22 -9 -12 0 -71 -12 -132 -26 -61 -14
-140 -35 -176 -46 -36 -11 -72 -22 -80 -25 -8 -3 -23 -8 -32 -9 -10 -2 -35
-13 -55 -24 -21 -11 -53 -22 -73 -26 -19 -3 -57 -10 -85 -15 -27 -6 -90 -21
-140 -34 -49 -13 -117 -29 -150 -35 -33 -7 -71 -16 -85 -21 -14 -5 -36 -11
-50 -14 -14 -2 -81 -14 -149 -25 -69 -12 -175 -26 -235 -31 -61 -5 -133 -12
-161 -15 -27 -2 -79 -9 -115 -14 -36 -6 -78 -14 -93 -20 -16 -5 -106 -19 -200
-30 -95 -11 -212 -24 -262 -30 -49 -6 -189 -12 -310 -15 -121 -2 -256 -7 -300
-10 -44 -3 -109 -11 -145 -17 -36 -6 -75 -15 -88 -19 -13 -5 -89 -9 -170 -9
-119 -1 -159 -4 -212 -21 -36 -11 -74 -24 -85 -29 -11 -5 -33 -11 -48 -15 -15
-3 -162 -8 -327 -11 -198 -4 -316 -2 -347 5 -27 6 -183 13 -348 17 -165 3
-318 8 -340 10 -22 2 -105 8 -185 13 -80 5 -185 15 -235 20 -49 6 -151 16
-225 22 -74 6 -247 12 -385 15 -137 2 -270 8 -295 14 -25 6 -63 16 -85 22 -22
6 -62 17 -90 25 -27 8 -59 18 -70 23 -11 4 -40 13 -65 20 -25 6 -53 16 -62 21
-10 5 -25 9 -33 9 -9 0 -32 8 -53 19 -20 10 -56 22 -79 26 -24 4 -45 11 -49
16 -3 5 -9 7 -14 4 -5 -3 -47 4 -92 16 -46 11 -99 25 -118 29 -19 4 -62 13
-95 19 -33 6 -78 16 -100 23 -22 6 -58 19 -81 29 -22 11 -47 19 -55 19 -8 0
-38 14 -68 30 -30 17 -62 30 -71 30 -9 0 -20 4 -26 9 -5 5 -43 20 -84 34 -41
14 -93 34 -115 45 -22 11 -69 32 -105 46 -36 14 -71 26 -78 26 -8 0 -48 16
-90 36 -42 19 -88 42 -102 50 -14 8 -59 32 -100 53 -41 21 -99 52 -128 69 -29
18 -57 32 -61 32 -5 0 -14 7 -21 15 -7 8 -31 24 -54 35 -22 12 -59 31 -81 43
-22 12 -53 32 -69 45 -16 12 -33 22 -39 22 -6 0 -20 8 -31 19 -12 10 -52 35
-91 56 -38 20 -91 52 -116 71 -26 19 -49 34 -52 34 -3 0 -35 20 -71 44 -36 24
-71 50 -79 57 -7 8 -53 41 -101 74 -47 33 -106 75 -129 93 -23 17 -75 57 -114
87 -40 30 -73 59 -73 63 0 5 -28 29 -63 55 -34 25 -105 87 -157 137 -52 49
-101 92 -110 95 -8 3 -33 29 -55 58 -22 28 -76 90 -119 137 -44 47 -105 112
-136 145 -31 33 -72 82 -91 108 -19 26 -44 61 -55 77 -12 16 -35 46 -52 67
-17 21 -58 74 -90 118 -32 44 -66 94 -75 110 -8 17 -27 41 -41 54 -14 14 -26
30 -26 37 0 6 -25 44 -55 83 -30 39 -55 74 -55 78 0 4 -15 29 -34 57 -18 28
-52 83 -75 121 -23 39 -62 97 -86 130 -24 33 -44 67 -44 76 -1 9 -8 22 -16 29
-8 7 -15 18 -15 26 0 7 -13 28 -28 46 -16 18 -34 47 -41 65 -7 18 -19 37 -27
43 -7 7 -43 71 -79 143 -37 73 -73 139 -81 148 -8 9 -14 20 -12 25 1 5 -14 43
-34 84 -20 41 -44 91 -53 110 -9 19 -24 49 -33 65 -8 17 -26 59 -40 95 -13 36
-27 79 -31 95 -5 17 -22 55 -39 85 -17 30 -31 57 -31 60 0 3 -2 17 -6 33 -4
15 -11 27 -16 27 -5 0 -9 6 -9 14 0 7 -13 42 -28 77 -16 35 -35 90 -42 122 -7
32 -17 60 -22 63 -4 3 -8 12 -8 21 0 8 -6 29 -13 46 -8 18 -24 57 -37 87 -12
30 -25 71 -28 90 -2 19 -8 40 -13 45 -4 6 -13 31 -19 55 -6 25 -18 82 -25 128
-7 46 -21 120 -30 165 -9 45 -20 100 -25 122 -5 22 -14 81 -21 130 -6 50 -13
101 -14 115 -2 14 -9 77 -15 140 -7 63 -14 122 -18 130 -3 8 -7 26 -8 40 -2
14 -8 70 -13 125 -6 55 -15 168 -22 250 -6 83 -15 202 -20 265 -4 63 -11 243
-14 400 -3 157 -6 305 -6 330 0 25 2 92 5 150 4 58 11 155 17 215 6 61 12 128
14 150 1 22 10 105 19 185 9 80 19 165 23 190 3 25 7 50 8 55 1 6 5 18 9 28 5
9 6 32 3 50 -2 17 -1 40 4 49 5 9 14 59 20 110 6 51 13 104 15 118 2 14 8 57
13 95 6 39 16 95 25 125 8 30 17 89 20 130 3 41 12 108 21 148 8 40 15 90 15
110 0 20 6 58 14 83 8 25 22 90 31 145 9 54 21 104 27 111 5 7 7 16 4 22 -4 5
1 47 10 93 9 46 22 97 30 115 8 17 13 35 12 40 -1 4 2 24 6 43 5 19 18 66 31
103 12 37 25 71 29 74 3 4 6 18 6 32 0 14 7 39 15 54 8 15 17 45 21 65 4 20
17 60 29 87 13 28 28 68 35 90 7 22 16 49 20 60 5 11 16 40 25 65 10 25 30 86
46 135 16 50 34 98 39 107 6 10 10 24 10 33 0 8 11 40 25 72 14 32 30 66 35
75 6 10 10 24 10 32 0 8 16 44 35 80 20 36 44 89 54 118 11 29 33 81 50 114
17 34 38 84 47 110 9 27 24 60 34 74 10 14 43 77 74 141 31 63 56 120 56 125
0 5 13 35 29 66 15 32 34 64 41 73 7 8 9 15 5 15 -4 0 4 12 19 26 14 15 26 31
26 36 0 6 8 26 17 46 9 21 25 48 35 61 10 13 18 31 18 40 1 9 20 50 45 91 24
41 61 104 82 139 21 35 46 75 55 90 10 14 27 45 38 69 10 23 24 42 30 42 5 0
10 6 10 13 0 8 9 22 20 32 11 10 20 24 20 32 0 7 4 13 9 13 5 0 12 12 16 27 3
15 15 39 26 54 10 15 19 30 19 33 0 3 14 20 30 38 17 17 30 35 30 40 0 6 17
28 38 50 20 22 36 43 35 48 -2 5 10 19 26 33 16 13 32 33 35 45 4 12 25 45 46
74 21 29 49 68 62 86 13 19 55 68 94 110 40 43 90 100 113 129 22 29 50 57 61
63 11 6 20 15 20 20 0 5 11 19 23 32 13 13 39 32 58 42 19 11 66 46 104 78 39
32 85 70 104 85 19 16 75 59 125 96 50 37 117 91 150 120 32 29 67 53 76 55
10 2 24 10 30 18 7 8 18 14 24 14 6 1 27 14 46 30 19 17 40 30 47 30 7 0 13 4
13 9 0 4 33 25 73 45 39 19 81 41 91 48 11 7 31 23 45 36 14 12 32 22 39 22 7
0 46 16 86 35 41 19 78 35 82 35 4 0 15 7 24 15 9 8 38 27 65 41 28 15 115 60
194 100 79 40 147 77 150 83 4 5 68 39 143 75 75 36 139 70 143 76 3 5 15 10
25 10 11 0 36 9 57 21 21 12 43 25 48 29 6 5 12 8 15 8 3 0 36 14 74 31 38 17
71 31 74 31 2 0 34 14 71 32 36 18 69 36 72 41 3 5 13 9 21 11 8 1 26 9 39 17
13 8 40 21 59 29 19 8 37 16 40 19 3 3 44 25 92 49 48 23 92 42 98 42 5 0 10
5 10 10 0 6 10 10 21 10 12 0 49 13 83 29 34 16 81 37 106 47 25 9 68 27 95
40 28 13 59 25 70 27 11 2 30 8 41 15 12 6 41 16 65 22 24 6 55 14 69 17 14 3
27 10 30 14 3 4 17 10 30 13 14 3 52 14 84 26 33 11 66 20 74 20 7 0 28 7 45
15 18 8 66 26 107 41 41 14 86 28 100 31 14 3 28 10 31 16 4 5 22 11 40 12 19
1 48 8 64 14 17 7 43 19 59 27 16 8 44 14 62 14 18 0 35 4 38 9 3 5 20 12 38
15 18 3 42 8 53 11 11 3 43 10 70 15 28 6 75 18 105 26 30 9 67 22 82 29 15 7
36 11 47 8 12 -3 31 1 43 9 13 8 48 18 78 23 30 4 70 9 88 10 18 1 35 5 39 9
3 3 16 6 28 6 12 0 25 3 29 8 4 4 24 8 44 9 20 1 66 9 102 18 36 9 85 18 110
20 25 2 52 5 60 8 8 3 31 8 50 12 19 3 76 12 125 20 50 7 108 19 130 25 22 6
56 13 75 16 19 2 112 11 205 20 94 9 193 18 220 20 28 1 50 3 50 4 0 1 20 3
43 5 24 2 87 6 140 10 53 3 99 8 102 10 3 1 79 8 170 15 91 6 228 13 305 15
77 2 147 5 155 8 8 3 94 8 190 12 96 3 204 9 240 14 36 4 144 9 240 10 96 1
211 6 255 9 44 4 89 6 100 5z"/>
<g>
<path d="M3817 14282 c-28 1 -72 -2 -96 -8 -36 -8 -52 -20 -83 -60 -21 -27
-38 -59 -38 -71 0 -12 -5 -25 -10 -28 -6 -4 -9 -28 -6 -58 4 -43 10 -56 38
-79 18 -15 58 -33 88 -40 30 -6 85 -12 122 -11 45 0 76 6 93 17 13 9 32 28 41
42 9 13 20 43 24 65 5 26 2 57 -7 89 -11 37 -27 61 -64 94 -43 38 -56 45 -102
48z"/>
</g>
<g>
<path d="M12725 14026 c-11 3 -23 3 -25 0 -3 -2 -115 -7 -250 -10 -135 -3
-294 -8 -355 -11 -60 -3 -146 -10 -190 -16 -44 -6 -132 -11 -195 -10 -63 0
-198 -5 -300 -11 -102 -6 -210 -12 -240 -14 -30 -1 -100 -5 -155 -7 -55 -3
-107 -8 -115 -10 -8 -3 -40 -8 -70 -11 -30 -4 -75 -8 -100 -10 -25 -2 -58 -7
-75 -10 -16 -3 -55 -11 -85 -16 -30 -6 -64 -12 -75 -14 -11 -1 -45 -8 -76 -14
-31 -7 -60 -12 -65 -11 -5 2 -25 -1 -44 -5 -19 -4 -44 -11 -55 -15 -11 -5 -58
-14 -105 -20 -47 -6 -119 -20 -160 -31 -41 -11 -129 -33 -195 -50 -66 -17
-128 -35 -137 -40 -10 -5 -24 -7 -32 -4 -8 3 -23 -3 -34 -14 -11 -11 -35 -22
-54 -26 -19 -3 -64 -18 -99 -32 -35 -14 -69 -27 -76 -28 -7 -1 -16 -5 -19 -9
-4 -4 -16 -7 -26 -7 -11 0 -36 -9 -56 -20 -20 -10 -80 -39 -132 -63 -52 -25
-131 -62 -175 -82 -44 -21 -89 -45 -100 -55 -11 -9 -39 -28 -63 -41 l-42 -23
-31 37 c-19 23 -44 40 -68 47 -21 5 -76 9 -122 8 -65 -1 -94 -6 -129 -24 -25
-12 -55 -33 -67 -46 -11 -13 -30 -41 -42 -63 -12 -22 -21 -58 -21 -80 0 -22 8
-61 18 -87 10 -26 21 -50 25 -54 4 -4 7 -13 7 -20 0 -7 -35 -38 -77 -70 -43
-32 -97 -77 -120 -101 -24 -23 -43 -47 -43 -53 0 -6 -7 -13 -16 -17 -9 -3 -30
-21 -48 -39 -18 -19 -37 -34 -41 -34 -4 0 -71 -64 -149 -143 -77 -79 -151
-156 -163 -173 -12 -16 -33 -42 -45 -59 -13 -16 -44 -52 -70 -80 -27 -27 -48
-54 -48 -60 0 -6 -16 -26 -35 -45 -19 -19 -35 -39 -35 -45 0 -6 -16 -26 -35
-45 -19 -19 -35 -38 -35 -43 0 -5 -18 -32 -40 -59 -22 -28 -40 -55 -40 -60 0
-5 -11 -24 -25 -42 -14 -18 -25 -38 -25 -43 0 -6 -6 -16 -14 -22 -8 -7 -24
-31 -36 -54 -12 -23 -26 -45 -31 -48 -6 -3 -19 -21 -30 -40 -11 -19 -31 -59
-45 -89 -14 -30 -32 -66 -40 -80 -8 -14 -35 -66 -60 -117 -24 -51 -44 -96 -44
-101 0 -5 -7 -15 -15 -22 -9 -7 -38 -59 -64 -114 -26 -56 -54 -119 -61 -141
-7 -22 -24 -60 -37 -84 -12 -24 -23 -51 -23 -60 0 -10 -4 -21 -8 -27 -5 -5
-15 -29 -22 -54 -7 -25 -19 -52 -25 -60 -7 -8 -21 -35 -32 -60 -11 -25 -25
-64 -32 -86 -6 -23 -21 -64 -33 -90 -12 -27 -21 -55 -19 -62 1 -8 -2 -19 -7
-25 -5 -7 -15 -29 -22 -50 -7 -22 -18 -51 -26 -65 -8 -15 -14 -34 -14 -43 0
-9 -7 -29 -15 -46 -8 -16 -24 -68 -35 -114 -12 -46 -27 -104 -35 -129 -8 -25
-21 -83 -30 -130 -9 -47 -22 -110 -29 -140 -8 -30 -23 -98 -34 -150 -11 -52
-30 -138 -41 -190 -10 -52 -27 -135 -37 -185 -9 -49 -23 -130 -30 -180 -7 -49
-20 -137 -29 -195 -9 -58 -18 -172 -20 -255 -2 -82 1 -204 6 -270 5 -66 16
-217 24 -336 8 -119 19 -254 24 -300 5 -46 15 -124 21 -174 6 -49 22 -139 36
-200 14 -60 34 -137 45 -170 10 -33 34 -111 54 -172 19 -62 35 -121 35 -131 0
-10 4 -22 9 -28 6 -5 14 -27 20 -49 5 -22 18 -67 29 -100 11 -33 34 -107 51
-165 16 -58 47 -175 67 -260 21 -85 43 -169 51 -187 7 -17 13 -34 13 -38 0 -4
12 -37 26 -73 14 -37 29 -76 34 -87 5 -11 14 -45 20 -75 7 -30 18 -68 25 -85
7 -16 20 -50 28 -75 9 -25 25 -72 37 -105 12 -33 39 -98 60 -145 21 -47 41
-92 44 -100 4 -8 15 -28 26 -45 11 -16 28 -46 38 -65 11 -19 42 -80 71 -135
28 -55 89 -154 136 -220 46 -66 101 -145 122 -175 20 -30 77 -109 127 -175 49
-66 117 -151 150 -190 34 -38 97 -103 140 -145 43 -41 91 -88 105 -105 14 -16
51 -56 81 -88 30 -32 141 -140 247 -240 106 -100 209 -196 230 -213 21 -17 65
-48 98 -70 33 -21 74 -47 90 -56 17 -9 57 -30 91 -47 33 -16 66 -37 73 -45 8
-9 20 -16 28 -16 8 0 38 -13 66 -28 29 -16 61 -34 72 -40 11 -6 39 -18 63 -26
23 -9 50 -16 60 -16 9 0 33 -11 53 -24 19 -13 71 -39 115 -56 43 -18 111 -47
149 -65 39 -17 95 -40 125 -50 30 -10 69 -27 85 -37 17 -10 48 -23 70 -29 22
-6 72 -26 110 -44 39 -18 88 -38 110 -45 22 -6 59 -20 82 -31 24 -10 52 -19
62 -19 11 0 23 -5 26 -10 4 -6 14 -8 24 -5 9 2 32 -3 51 -13 19 -11 98 -34
175 -52 77 -18 167 -40 200 -51 33 -10 96 -23 140 -29 44 -6 94 -15 110 -20
17 -5 100 -12 185 -15 85 -4 177 -11 204 -16 27 -5 83 -9 125 -9 42 0 103 -5
136 -10 33 -6 213 -13 400 -17 187 -3 367 -6 400 -6 33 0 106 3 163 7 56 3
137 13 180 20 42 8 110 14 150 15 41 0 79 4 85 8 7 4 37 8 67 9 30 1 123 7
205 14 83 6 159 16 170 21 11 5 63 11 116 12 52 2 101 7 107 11 7 4 12 5 12 2
0 -2 24 2 53 10 28 8 85 21 125 30 40 8 82 12 93 9 12 -4 21 -1 25 9 3 8 20
18 37 21 18 4 43 14 57 23 14 9 32 17 40 17 8 1 53 14 100 29 47 14 92 29 100
33 8 3 17 7 20 8 3 0 23 7 45 14 22 8 42 17 45 20 3 4 34 13 70 20 35 7 77 19
92 27 15 8 43 14 63 14 19 0 35 4 35 8 0 5 19 16 41 25 23 9 46 14 50 11 5 -3
9 -1 9 4 0 6 17 20 38 33 20 12 41 22 45 21 4 -1 21 5 37 13 16 8 37 15 48 15
10 0 29 11 42 25 13 14 29 25 36 25 6 0 17 6 23 14 6 7 33 21 59 31 26 10 54
24 63 31 8 8 30 14 47 14 17 0 34 5 37 10 4 6 29 22 57 36 29 15 58 32 66 40
7 8 20 14 27 14 7 0 27 11 43 25 17 14 34 25 39 25 5 0 20 11 33 25 13 14 28
25 32 25 5 0 26 12 46 28 20 15 39 30 40 35 2 4 10 7 18 7 7 0 21 11 30 25 9
14 22 25 28 25 6 0 25 11 41 25 17 13 50 40 74 60 24 20 58 42 75 50 17 7 49
31 72 52 23 21 50 44 60 51 10 6 28 16 39 21 11 5 31 21 44 35 14 14 29 26 35
26 6 0 31 14 55 30 24 17 50 39 58 50 8 11 20 20 27 20 8 0 31 19 53 43 22 23
49 48 59 55 10 6 26 15 34 19 8 4 42 29 75 56 33 28 64 58 70 68 5 10 27 42
48 71 21 29 49 69 62 88 14 19 31 42 40 51 8 9 15 21 15 28 0 6 6 14 13 16 6
3 37 37 67 75 29 39 57 70 62 70 4 0 5 7 2 15 -4 8 -1 15 5 15 6 0 19 17 28
37 10 21 31 56 47 78 17 22 33 42 37 45 3 3 14 21 24 40 10 19 24 39 31 43 8
4 14 14 14 21 0 8 11 24 25 37 13 13 25 32 25 41 0 9 6 23 14 30 7 8 21 29 30
47 9 17 26 41 36 51 11 11 22 32 26 47 4 16 12 35 19 43 6 8 31 56 55 105 24
50 46 92 50 95 4 3 11 16 14 30 4 14 16 44 27 68 11 24 22 56 26 72 3 16 11
31 18 34 7 2 16 20 20 38 3 18 11 44 17 58 6 14 17 37 24 52 8 14 14 36 14 48
0 12 7 42 15 68 9 26 29 108 45 182 15 74 33 155 40 179 6 24 20 55 30 69 11
13 20 34 20 46 0 11 7 34 15 50 8 15 15 40 15 55 0 14 18 97 39 183 21 86 42
161 45 166 3 6 13 48 22 93 9 46 19 88 22 94 4 5 8 25 9 43 1 19 7 40 14 48 6
8 9 14 6 14 -3 0 0 21 8 48 7 26 17 70 20 97 4 28 9 61 12 75 2 14 8 140 11
280 4 140 4 336 0 435 -4 99 -9 218 -13 265 -3 47 -10 126 -15 175 -5 50 -10
163 -10 253 0 90 -5 196 -10 235 -6 40 -17 101 -24 137 -8 36 -19 88 -24 115
-6 28 -16 84 -22 125 -6 41 -15 95 -20 120 -5 25 -12 59 -16 75 -3 17 -8 41
-9 55 -1 14 -12 61 -24 105 -13 44 -29 107 -37 140 -8 33 -27 98 -41 145 -14
47 -33 98 -41 115 -8 16 -23 63 -34 105 -11 41 -23 89 -27 105 -5 17 -21 64
-38 105 -16 41 -40 109 -52 150 -13 41 -29 93 -38 115 -8 22 -26 65 -40 95
-14 30 -29 64 -33 75 -5 11 -21 54 -36 95 -15 41 -40 102 -56 134 -15 33 -28
68 -28 77 0 10 -30 76 -66 146 -36 70 -70 133 -74 138 -5 6 -22 35 -38 65 -15
30 -35 66 -43 80 -8 14 -25 39 -39 56 -14 17 -33 44 -42 60 -10 16 -32 47 -48
69 -17 22 -69 96 -115 165 -46 69 -117 166 -157 217 -40 51 -109 136 -153 189
-44 53 -87 106 -95 118 -8 11 -62 66 -119 121 -57 55 -127 123 -155 150 -28
28 -78 80 -112 115 -33 36 -68 76 -78 90 -9 14 -56 65 -104 114 -48 48 -112
105 -142 126 -30 20 -96 76 -146 124 -51 47 -118 106 -150 129 -33 24 -79 61
-103 81 -25 21 -96 72 -159 114 -64 42 -131 88 -150 102 -19 14 -60 42 -91 62
-31 20 -85 51 -121 69 -36 17 -120 58 -187 90 -67 33 -127 59 -133 59 -6 0
-41 14 -78 31 -37 17 -97 41 -133 55 -36 13 -108 35 -160 50 -52 14 -116 29
-144 34 -27 4 -70 13 -95 18 -25 6 -70 11 -100 11 -30 1 -77 5 -105 9 -27 5
-169 9 -315 11 -146 1 -274 4 -285 7z m62 -114 c169 -1 364 -7 433 -13 69 -6
179 -16 245 -24 66 -7 148 -20 183 -29 34 -9 88 -22 120 -30 31 -7 82 -25 112
-39 30 -14 66 -28 79 -32 13 -4 62 -25 110 -47 47 -22 159 -76 249 -120 89
-44 183 -95 207 -114 25 -19 49 -34 53 -34 4 0 30 -18 58 -39 28 -21 77 -55
109 -75 31 -21 69 -48 83 -61 15 -14 30 -25 33 -25 4 0 46 -32 95 -71 49 -38
127 -103 174 -142 46 -40 110 -94 141 -122 32 -27 83 -72 115 -100 31 -27 79
-77 107 -110 27 -33 156 -168 286 -300 130 -132 252 -262 270 -289 19 -27 58
-74 87 -106 30 -31 65 -72 79 -91 13 -19 33 -52 44 -74 10 -22 28 -49 41 -60
12 -11 28 -32 36 -47 8 -15 36 -54 64 -87 27 -33 50 -63 50 -66 0 -3 19 -31
43 -62 23 -30 51 -70 63 -87 11 -17 33 -53 49 -81 15 -27 30 -52 34 -55 4 -3
30 -43 58 -90 28 -47 57 -101 65 -120 8 -19 27 -62 43 -95 15 -33 40 -87 56
-121 16 -33 36 -87 45 -120 9 -32 19 -70 22 -84 2 -14 10 -32 16 -40 7 -8 26
-42 44 -76 17 -33 38 -86 46 -116 8 -31 21 -69 29 -84 8 -16 22 -51 30 -79 8
-27 29 -83 46 -122 17 -40 34 -94 38 -120 3 -27 9 -52 13 -58 4 -5 11 -26 15
-45 3 -19 16 -66 27 -105 11 -38 29 -92 39 -120 10 -27 28 -90 40 -139 11 -50
25 -97 29 -105 5 -9 13 -41 18 -71 6 -30 16 -91 23 -135 7 -44 16 -102 20
-130 4 -27 14 -84 22 -125 8 -41 22 -111 30 -155 9 -44 20 -125 26 -180 6 -55
8 -145 5 -200 -3 -64 0 -147 11 -230 8 -71 20 -260 26 -420 6 -159 8 -369 5
-465 -5 -115 -14 -209 -27 -270 -11 -52 -28 -142 -39 -200 -11 -58 -25 -121
-31 -140 -6 -19 -17 -60 -25 -90 -8 -30 -16 -62 -18 -70 -2 -8 -9 -27 -14 -42
-6 -14 -16 -52 -21 -85 -6 -32 -13 -67 -15 -78 -3 -11 -16 -58 -30 -104 -14
-47 -26 -94 -26 -106 0 -11 -4 -25 -9 -31 -5 -5 -17 -35 -25 -66 -9 -32 -23
-84 -32 -115 -9 -32 -22 -83 -29 -113 -7 -30 -22 -92 -33 -138 -11 -45 -24
-88 -29 -95 -5 -6 -20 -46 -33 -87 -12 -41 -32 -97 -44 -124 -11 -27 -51 -108
-87 -180 -36 -72 -78 -153 -94 -181 -15 -27 -31 -55 -36 -60 -4 -6 -25 -44
-47 -85 -21 -41 -55 -100 -75 -130 -20 -30 -53 -79 -74 -108 -21 -29 -66 -90
-100 -135 -34 -45 -74 -98 -88 -117 -14 -19 -48 -63 -74 -96 -27 -34 -53 -68
-60 -75 -6 -8 -25 -35 -41 -60 -16 -25 -42 -58 -57 -73 -16 -14 -46 -42 -68
-61 -22 -19 -44 -35 -48 -35 -4 0 -27 -20 -51 -45 -25 -25 -48 -45 -54 -45 -5
0 -25 -15 -44 -32 -19 -18 -51 -46 -71 -62 -20 -17 -50 -37 -66 -45 -17 -9
-76 -49 -131 -89 -55 -39 -104 -72 -110 -72 -5 0 -14 -9 -20 -20 -6 -11 -17
-20 -25 -20 -7 0 -35 -18 -62 -40 -26 -21 -64 -52 -83 -68 -19 -15 -51 -36
-70 -45 -19 -8 -66 -42 -105 -74 -38 -32 -81 -64 -95 -71 -14 -6 -32 -16 -40
-21 -8 -5 -32 -17 -54 -27 -21 -11 -40 -25 -43 -31 -3 -7 -11 -13 -19 -13 -7
0 -30 -7 -51 -17 -21 -9 -58 -26 -83 -39 -25 -12 -76 -38 -115 -57 -38 -20
-105 -51 -147 -71 -43 -20 -82 -36 -88 -36 -6 0 -18 -4 -28 -9 -9 -5 -36 -19
-60 -30 -23 -12 -48 -21 -55 -21 -7 0 -29 -8 -49 -19 -20 -10 -56 -21 -80 -25
-24 -4 -63 -14 -88 -23 -25 -8 -63 -23 -85 -33 -22 -9 -67 -25 -100 -34 -33
-10 -71 -22 -85 -28 -14 -6 -33 -14 -42 -19 -10 -5 -50 -18 -90 -29 -40 -12
-98 -28 -128 -36 -30 -8 -91 -21 -135 -28 -44 -8 -109 -17 -145 -21 -36 -4
-81 -9 -100 -11 -19 -3 -46 -7 -60 -9 -13 -2 -65 -5 -115 -5 -49 -1 -130 -8
-180 -15 -49 -8 -130 -19 -180 -26 -49 -6 -112 -12 -140 -14 -27 -1 -97 -8
-155 -15 -62 -7 -237 -11 -425 -11 -176 1 -367 2 -425 4 -58 2 -175 9 -260 15
-85 7 -211 17 -280 24 -69 6 -138 12 -155 14 -16 1 -30 3 -30 5 0 1 -9 3 -21
4 -11 1 -51 8 -90 15 -38 7 -96 19 -129 27 -33 8 -76 18 -95 23 -19 5 -46 11
-60 14 -14 3 -95 25 -180 49 -85 25 -193 56 -240 70 -47 14 -98 30 -115 37
-16 6 -43 17 -60 25 -16 7 -61 27 -100 43 -38 17 -86 33 -105 37 -19 4 -62 21
-95 39 -33 18 -82 41 -110 50 -27 10 -65 24 -82 32 -18 8 -50 22 -70 31 -21
10 -54 27 -74 39 -19 12 -56 29 -81 37 -24 9 -85 34 -134 57 -49 23 -143 69
-209 102 -66 33 -135 72 -155 87 -19 15 -43 31 -52 34 -10 4 -18 11 -18 16 0
5 -15 15 -34 21 -25 8 -149 125 -443 418 -224 224 -423 426 -440 449 -18 23
-33 45 -33 49 0 4 -20 32 -45 63 -24 31 -51 65 -60 76 -8 11 -31 43 -50 70
-19 28 -50 73 -69 101 -19 29 -39 55 -45 58 -6 4 -11 15 -11 25 0 10 -10 25
-23 34 -13 8 -29 33 -36 55 -8 22 -24 51 -36 64 -12 14 -26 35 -30 49 -4 13
-15 35 -24 49 -10 14 -25 44 -36 68 -10 23 -21 42 -26 42 -4 0 -12 12 -18 27
-6 16 -15 35 -20 43 -5 8 -14 26 -20 40 -6 14 -15 32 -20 40 -5 8 -27 57 -50
108 -23 51 -41 99 -41 107 0 8 -11 35 -25 61 -14 26 -25 59 -25 73 0 14 -14
53 -30 86 -16 33 -30 69 -30 80 0 11 -6 31 -13 45 -8 15 -17 48 -20 74 -4 29
-17 60 -32 78 -14 16 -25 42 -25 57 0 15 -4 31 -8 37 -5 5 -14 45 -21 89 -7
44 -16 85 -20 90 -4 6 -13 41 -21 79 -7 38 -19 81 -26 95 -8 14 -14 33 -14 42
0 9 -9 38 -19 65 -10 27 -27 78 -36 114 -9 36 -25 85 -36 110 -10 25 -21 63
-25 85 -3 22 -20 85 -36 140 -17 55 -36 114 -43 130 -7 17 -21 62 -30 100 -9
39 -18 75 -19 80 -1 6 -5 15 -9 22 -4 6 -12 60 -17 120 -6 59 -14 162 -19 228
-5 67 -12 132 -16 145 -3 14 -7 81 -9 150 -3 69 -8 202 -13 295 -4 94 -7 217
-7 275 1 58 7 134 13 170 6 36 15 110 21 165 5 55 15 114 20 131 6 18 12 55
14 83 2 28 8 57 14 64 5 6 13 30 17 52 4 22 11 69 15 105 5 36 14 90 20 120 6
30 16 59 21 65 5 5 9 20 9 35 0 14 7 45 15 69 9 24 13 52 9 63 -3 11 -1 41 6
67 7 25 18 60 25 76 7 17 16 49 20 73 4 24 13 56 21 70 8 15 14 41 14 57 0 17
7 49 15 73 8 23 19 50 24 60 5 9 18 44 29 77 11 33 23 74 27 90 3 17 14 48 24
70 10 22 28 67 40 100 12 33 31 78 41 100 11 22 22 54 26 70 4 17 20 59 36 94
16 36 35 79 43 95 7 17 21 53 30 80 8 27 24 60 35 73 11 14 31 51 46 82 14 31
33 72 41 91 8 19 19 42 24 50 4 8 29 55 54 104 25 48 45 96 45 105 0 10 9 26
20 36 11 10 31 41 44 69 13 28 37 65 52 82 16 17 35 40 41 50 7 11 19 33 27
50 8 17 19 35 25 38 6 4 11 17 11 30 0 12 16 39 35 60 19 21 35 45 35 52 0 7
8 21 19 31 10 10 35 41 56 68 20 28 41 52 45 55 4 3 18 21 31 40 13 19 37 53
54 75 16 22 65 78 107 125 43 46 78 88 78 93 0 4 6 15 13 24 6 8 28 33 48 54
20 22 41 39 46 39 6 0 42 30 80 67 37 37 81 78 98 91 16 12 71 62 121 110 51
48 98 92 106 97 7 6 33 26 58 44 25 19 59 47 75 62 17 16 44 41 62 57 18 16
43 32 57 36 13 3 45 22 70 41 26 19 50 35 55 35 4 0 19 10 33 23 14 12 38 32
55 44 17 12 70 43 119 69 49 26 100 53 114 61 14 7 31 13 38 13 6 0 12 7 12
15 0 8 9 15 20 15 11 0 28 4 38 9 9 5 37 18 60 30 24 11 53 21 63 21 11 0 22
7 25 15 4 8 14 15 23 15 9 0 21 4 27 8 5 5 56 24 114 43 58 18 109 32 113 31
5 -1 19 6 33 17 13 10 54 26 91 36 38 9 77 21 88 26 11 4 54 17 95 28 41 12
98 26 125 31 28 6 68 15 90 20 22 5 74 16 115 24 41 9 95 21 120 27 25 5 59
13 75 16 17 3 66 12 110 20 44 8 117 20 163 26 45 6 82 14 82 18 0 4 15 3 34
-1 19 -4 39 -3 44 2 5 5 47 13 95 18 47 5 143 11 214 15 70 3 160 8 198 10 39
2 140 7 225 10 85 3 247 13 360 22 113 8 243 16 290 17 47 2 130 6 185 10 55
5 101 9 102 9 1 1 140 1 310 -1z"/>
<g>
<path d="M10145 12314 c-55 2 -122 0 -150 -5 -27 -4 -108 -15 -180 -24 -71 -8
-150 -18 -175 -21 -25 -2 -81 -12 -125 -20 -44 -9 -100 -20 -125 -26 -25 -6
-49 -14 -55 -19 -5 -4 -37 -9 -70 -12 -33 -2 -89 -12 -125 -21 -36 -9 -74 -20
-85 -25 -11 -5 -42 -17 -70 -26 -27 -10 -65 -26 -84 -37 -18 -10 -61 -30 -95
-44 -33 -14 -77 -32 -96 -40 -19 -9 -71 -34 -115 -56 -44 -22 -82 -43 -85 -47
-3 -3 -44 -26 -92 -49 -47 -24 -89 -50 -92 -58 -3 -8 -12 -14 -21 -14 -8 0
-15 -4 -15 -10 0 -5 -7 -10 -16 -10 -9 0 -34 -15 -54 -32 -21 -18 -58 -47 -82
-65 -24 -18 -52 -35 -63 -39 -10 -4 -26 -15 -35 -23 -9 -9 -33 -29 -54 -46
-21 -16 -47 -38 -59 -49 -12 -10 -37 -30 -55 -44 -18 -14 -66 -57 -106 -96
-41 -39 -125 -125 -188 -192 -63 -66 -133 -148 -156 -181 -23 -34 -48 -68 -57
-76 -8 -9 -15 -20 -15 -24 0 -5 -19 -38 -43 -74 -23 -35 -52 -84 -64 -109 -12
-25 -35 -75 -52 -113 -17 -37 -31 -72 -31 -78 0 -5 -9 -31 -21 -57 -11 -26
-24 -56 -28 -67 -5 -11 -21 -49 -36 -85 -15 -36 -33 -87 -40 -115 -8 -27 -23
-77 -34 -109 -12 -33 -21 -67 -21 -76 0 -9 -3 -20 -7 -24 -4 -4 -9 -19 -11
-33 -2 -15 -7 -34 -13 -44 -5 -10 -9 -25 -9 -33 0 -9 -10 -37 -21 -62 -19 -39
-21 -56 -16 -122 4 -42 11 -122 17 -177 6 -55 20 -199 30 -320 11 -121 22
-233 25 -250 2 -16 7 -57 9 -90 2 -33 7 -78 11 -100 3 -22 12 -56 20 -75 8
-19 22 -66 33 -105 11 -38 31 -117 46 -175 15 -58 33 -132 42 -165 8 -33 21
-76 28 -96 8 -19 19 -62 25 -94 6 -32 15 -61 20 -64 4 -3 30 -44 57 -91 27
-47 69 -108 95 -136 25 -28 54 -65 65 -83 10 -17 22 -31 26 -31 4 0 8 -7 8
-15 0 -9 6 -18 13 -21 8 -3 31 -28 53 -56 21 -29 52 -66 67 -83 16 -16 37 -46
47 -65 10 -19 40 -56 67 -82 26 -26 66 -69 88 -97 22 -28 43 -51 46 -51 3 0
40 -33 81 -72 42 -40 91 -83 110 -96 18 -12 50 -34 71 -47 21 -14 42 -25 46
-25 5 0 14 -7 21 -16 8 -8 27 -22 44 -30 17 -8 63 -34 101 -58 39 -25 106 -64
150 -87 44 -23 114 -60 155 -81 41 -21 118 -52 170 -69 52 -17 127 -42 165
-55 39 -13 79 -24 90 -24 11 0 52 -7 90 -16 39 -9 90 -22 114 -30 25 -8 61
-14 82 -14 21 0 40 -4 43 -9 3 -4 20 -12 38 -16 18 -4 47 -9 63 -11 17 -1 59
-8 95 -14 36 -6 80 -13 97 -15 18 -2 47 -8 65 -14 18 -6 53 -13 77 -16 23 -3
47 -7 52 -10 4 -3 73 -6 151 -6 79 1 197 7 263 16 66 8 144 15 174 15 29 0 83
7 120 15 36 7 104 22 151 31 47 9 105 22 130 30 25 7 79 22 120 34 41 12 98
29 125 37 28 8 59 18 70 23 11 5 37 14 58 20 20 6 37 15 37 20 0 4 11 11 25
14 14 4 75 31 136 61 61 30 119 55 129 55 9 0 28 8 41 19 13 10 29 16 35 14 6
-2 22 8 35 21 13 14 29 26 34 26 6 0 18 9 28 20 9 11 26 20 36 20 11 0 32 13
48 29 16 15 38 31 49 35 12 3 34 20 50 36 16 16 34 30 40 30 6 0 22 13 35 28
13 16 44 44 68 63 24 19 61 52 82 74 21 22 39 45 39 50 0 6 12 18 28 29 15 10
39 36 55 57 15 22 27 44 27 49 0 6 7 10 15 10 8 0 15 3 15 8 0 4 22 30 50 57
27 28 50 55 50 60 0 6 18 29 40 50 22 21 40 45 40 52 0 7 5 13 10 13 6 0 10 4
10 10 0 5 14 31 30 57 17 26 30 53 30 61 0 8 16 47 35 88 19 40 35 78 35 85 0
6 11 38 24 72 13 34 34 94 46 132 12 39 28 99 36 135 7 36 18 90 24 120 6 30
15 64 20 75 6 11 21 54 34 95 13 41 27 95 31 120 4 25 18 79 32 120 16 48 25
98 25 140 0 36 5 71 11 78 6 7 15 52 20 100 5 48 11 119 14 157 3 39 7 135 9
215 2 80 4 260 5 400 2 161 -1 277 -9 315 -6 33 -14 87 -17 120 -4 33 -10 74
-15 90 -5 17 -14 64 -20 105 -6 41 -25 116 -41 165 -17 50 -37 104 -45 122 -8
17 -14 39 -14 48 0 9 -6 29 -14 43 -8 15 -31 65 -51 112 -21 47 -48 111 -62
143 -18 44 -23 68 -18 96 6 34 2 43 -35 90 -23 28 -50 73 -61 99 -11 26 -35
70 -52 97 -18 28 -54 71 -81 98 -27 26 -54 47 -61 47 -7 0 -19 7 -26 16 -7 9
-41 29 -74 44 -33 15 -83 45 -110 66 -28 21 -86 59 -130 86 -44 26 -90 48
-101 48 -12 0 -27 6 -33 14 -7 8 -28 17 -47 21 -20 3 -52 13 -73 22 -20 8 -43
19 -51 23 -9 4 -30 11 -48 14 -17 4 -34 12 -37 17 -4 5 -17 9 -30 9 -13 0 -44
11 -68 25 -25 13 -47 22 -50 19 -3 -3 -33 9 -67 26 -34 17 -64 29 -67 26 -3
-3 -15 1 -27 9 -11 8 -29 15 -39 15 -10 0 -28 7 -42 16 -13 8 -38 16 -55 16
-18 1 -48 9 -68 20 -20 10 -47 18 -59 18 -13 0 -40 7 -60 15 -19 8 -55 15 -78
15 -23 0 -62 9 -86 19 -24 11 -78 27 -119 36 -41 9 -97 21 -125 26 -27 5 -99
11 -160 14 -60 4 -115 8 -122 10 -7 2 -15 0 -18 -5 -3 -6 -17 -5 -33 1 -15 6
-72 12 -127 13z m2 -108 c40 -3 76 -7 80 -9 5 -3 46 -8 93 -12 47 -4 124 -6
172 -5 48 1 95 -3 105 -9 11 -5 37 -12 59 -14 21 -2 50 -9 64 -14 14 -6 41
-14 60 -18 19 -4 78 -20 130 -37 52 -16 109 -33 125 -38 17 -5 55 -12 85 -16
30 -4 73 -15 95 -24 22 -9 72 -27 110 -40 39 -13 75 -27 81 -31 6 -5 45 -20
87 -34 42 -14 85 -29 94 -34 10 -5 53 -21 97 -36 43 -14 90 -32 105 -39 14 -7
41 -16 59 -19 19 -4 45 -16 59 -27 14 -11 32 -20 40 -20 8 0 42 -19 74 -42 33
-24 81 -61 107 -82 26 -22 65 -47 87 -57 26 -11 74 -54 131 -116 61 -66 101
-119 122 -163 17 -36 33 -78 37 -95 3 -16 18 -59 32 -95 14 -36 34 -84 44
-107 11 -24 19 -49 19 -57 0 -7 7 -19 15 -26 8 -7 15 -19 15 -26 0 -8 4 -22 9
-32 5 -9 14 -29 20 -44 6 -16 15 -38 21 -50 5 -13 23 -59 41 -103 17 -44 35
-100 40 -125 4 -25 15 -74 24 -110 9 -36 18 -85 21 -110 3 -25 8 -56 11 -70 3
-14 7 -38 9 -55 2 -16 8 -52 14 -80 5 -27 10 -86 11 -130 1 -44 -1 -152 -5
-240 -3 -88 -9 -221 -12 -295 -3 -74 -11 -207 -19 -295 -8 -88 -19 -187 -26
-220 -6 -33 -13 -67 -16 -75 -3 -8 -6 -31 -8 -50 -2 -19 -11 -55 -20 -80 -9
-25 -22 -72 -30 -105 -8 -33 -27 -100 -43 -150 -17 -49 -31 -103 -33 -120 -2
-16 -6 -34 -10 -40 -3 -5 -14 -44 -24 -85 -10 -41 -31 -115 -47 -165 -17 -49
-34 -95 -39 -101 -6 -7 -9 -16 -7 -20 1 -5 -7 -29 -18 -54 -12 -25 -27 -67
-35 -95 -7 -27 -15 -52 -18 -55 -4 -3 -15 -23 -26 -45 -11 -22 -24 -45 -30
-51 -5 -6 -20 -23 -32 -38 -13 -14 -23 -29 -23 -32 0 -4 -15 -23 -32 -44 -18
-20 -40 -46 -48 -56 -8 -11 -35 -44 -60 -74 -25 -30 -70 -81 -100 -112 -30
-32 -60 -58 -66 -58 -6 0 -17 -12 -24 -26 -8 -14 -27 -32 -42 -40 -16 -8 -26
-19 -23 -24 3 -5 -4 -12 -16 -15 -12 -4 -38 -21 -58 -39 -20 -17 -64 -53 -98
-79 -34 -26 -64 -47 -68 -47 -3 0 -36 -20 -73 -43 -37 -24 -95 -58 -130 -75
-34 -18 -68 -32 -75 -32 -7 0 -61 -24 -122 -54 -60 -30 -175 -75 -255 -101
-80 -26 -149 -51 -155 -55 -5 -4 -26 -10 -45 -13 -19 -4 -77 -15 -128 -26 -50
-11 -140 -23 -200 -27 -59 -3 -141 -12 -181 -20 -41 -8 -143 -17 -225 -18 -83
-2 -191 0 -241 4 -49 5 -106 16 -126 24 -21 8 -72 18 -115 22 -44 3 -87 10
-96 15 -9 5 -31 9 -48 9 -17 0 -40 5 -51 11 -11 5 -50 16 -87 24 -37 7 -92 20
-122 28 -30 8 -73 18 -95 22 -22 4 -44 10 -50 15 -5 4 -39 15 -75 25 -36 10
-93 25 -126 34 -34 9 -68 22 -75 28 -8 5 -45 22 -84 37 -38 15 -78 31 -87 36
-10 6 -26 14 -35 18 -10 5 -38 19 -63 32 -25 13 -63 36 -85 52 -22 16 -56 39
-76 52 -21 13 -48 27 -60 31 -13 4 -35 17 -49 30 -14 13 -43 32 -65 44 -22 12
-64 40 -94 62 -30 21 -84 68 -120 102 -36 35 -100 101 -141 147 -41 46 -82 93
-90 106 -8 12 -28 38 -44 58 -16 20 -53 61 -83 90 -29 30 -53 60 -53 68 0 7
-15 31 -32 52 -18 22 -47 56 -65 76 -17 20 -48 67 -68 106 -21 38 -48 83 -61
101 -13 17 -24 35 -24 40 0 5 -8 24 -18 43 -10 19 -31 73 -46 120 -16 47 -32
92 -37 102 -4 9 -11 40 -16 70 -4 29 -6 58 -5 65 2 6 -2 14 -8 18 -5 3 -10 16
-10 28 0 12 -12 65 -26 117 -14 52 -30 115 -35 140 -6 25 -14 72 -19 105 -5
33 -13 83 -19 110 -6 28 -16 97 -21 155 -6 58 -12 211 -15 340 -2 129 -7 259
-10 288 -4 31 -3 52 3 52 5 0 12 12 15 28 3 15 17 70 30 123 14 53 33 114 43
135 9 22 18 44 19 50 2 6 13 42 25 80 12 38 30 87 41 109 10 22 28 69 40 105
12 36 48 121 80 189 34 70 85 158 119 202 33 43 60 81 60 84 0 3 11 18 25 33
14 15 25 32 25 39 0 6 9 15 20 18 11 4 26 19 34 33 8 15 34 44 58 64 23 20 57
52 75 70 17 18 51 55 75 81 23 26 77 74 118 105 41 31 93 74 115 95 22 22 53
46 69 54 16 8 38 24 49 34 11 10 29 21 39 25 10 3 31 17 46 31 15 14 51 42 81
62 30 20 59 39 65 42 6 4 36 19 66 35 30 15 71 36 90 47 19 11 55 30 79 43 24
13 49 28 55 33 6 5 22 12 36 16 14 4 53 20 88 36 35 16 69 29 76 29 8 0 19 7
26 15 7 8 16 15 21 15 5 0 34 12 66 26 32 15 87 36 123 46 36 11 81 24 100 29
19 5 49 11 65 14 17 3 55 9 85 14 30 5 91 18 134 30 44 12 107 21 140 22 34 0
104 7 156 15 52 7 131 16 174 19 44 3 82 8 85 10 2 3 38 3 78 1z"/>
<g>
<path d="M11133 11704 c-59 1 -131 0 -159 -4 -28 -3 -58 -10 -65 -17 -8 -6
-47 -16 -88 -22 -40 -5 -79 -15 -84 -20 -6 -6 -19 -11 -28 -11 -10 0 -19 -3
-21 -7 -1 -5 -25 -19 -51 -32 -26 -13 -55 -24 -63 -24 -7 0 -14 -4 -14 -9 0
-4 -7 -8 -16 -8 -9 0 -30 -10 -47 -22 -18 -12 -34 -25 -37 -29 -3 -3 -21 -14
-40 -24 -19 -10 -40 -25 -47 -34 -7 -9 -13 -24 -13 -33 0 -10 -5 -18 -11 -18
-6 0 -9 -7 -5 -15 3 -8 1 -15 -4 -15 -5 0 -21 -12 -36 -27 -14 -16 -34 -46
-45 -68 -10 -22 -32 -55 -49 -73 -16 -18 -30 -36 -30 -38 0 -3 -15 -24 -34
-47 -19 -23 -38 -55 -42 -71 -4 -16 -19 -40 -33 -55 -15 -14 -46 -56 -69 -93
-23 -37 -42 -76 -42 -86 0 -10 -5 -23 -12 -30 -9 -9 -12 -64 -12 -191 l1 -178
-81 -7 c-45 -4 -110 -9 -146 -11 -36 -2 -83 -7 -106 -10 -30 -4 -44 -2 -54 10
-7 8 -16 15 -20 15 -4 0 -10 -9 -13 -21 -4 -15 -12 -20 -29 -18 -13 2 -35 -5
-50 -15 -21 -14 -28 -26 -28 -50 1 -19 11 -43 27 -61 21 -24 34 -30 67 -29 23
0 70 6 106 13 36 7 90 17 120 22 30 5 93 13 140 18 74 7 87 6 100 -9 9 -9 22
-37 29 -61 8 -24 29 -88 48 -141 18 -53 40 -113 48 -132 8 -19 27 -47 42 -61
16 -15 86 -66 157 -113 71 -48 134 -90 140 -94 6 -3 49 -24 96 -46 47 -22 99
-43 115 -47 17 -4 39 -10 50 -15 11 -5 46 -18 78 -29 32 -12 99 -30 150 -41
56 -12 128 -20 187 -20 52 0 117 6 144 14 28 7 52 18 54 25 2 6 8 8 14 5 5 -3
28 2 51 12 23 10 56 29 72 41 17 13 36 29 44 36 8 6 30 22 50 35 20 12 44 25
54 28 9 4 17 11 17 16 0 5 6 16 14 24 8 8 24 14 34 14 11 0 22 3 24 8 2 4 30
27 63 51 33 25 70 55 83 68 12 13 22 26 22 29 0 3 9 15 20 26 11 12 25 39 31
60 5 21 16 38 23 38 8 0 20 15 27 33 6 17 18 48 25 67 8 19 14 45 14 57 0 12
5 25 11 29 6 3 8 16 5 27 -3 13 6 44 22 77 l27 55 2 281 c0 164 -3 299 -9 325
-6 24 -14 53 -19 64 -4 11 -10 31 -13 45 -2 14 -16 58 -30 97 -13 40 -33 85
-44 100 -10 16 -21 35 -24 43 -3 9 -27 46 -52 83 -26 36 -71 91 -101 122 -30
30 -58 55 -63 55 -5 0 -19 11 -32 25 -13 14 -27 25 -32 25 -4 0 -30 14 -58 31
-27 17 -54 28 -60 24 -5 -3 -20 0 -32 6 -13 7 -34 14 -48 16 -14 3 -56 8 -93
13 -37 5 -76 12 -87 15 -10 3 -68 7 -127 9z m-99 -104 c5 0 20 -10 34 -22 22
-21 32 -23 165 -23 128 -1 150 -3 220 -28 43 -15 99 -42 124 -60 25 -17 68
-56 96 -85 29 -30 62 -72 74 -94 12 -22 29 -48 39 -59 9 -10 23 -29 30 -42 7
-12 28 -53 48 -92 19 -38 37 -92 41 -120 4 -27 13 -72 19 -100 7 -27 11 -81
10 -120 -1 -38 -3 -128 -4 -200 0 -71 -6 -159 -12 -195 -6 -36 -15 -73 -19
-82 -5 -10 -14 -41 -19 -69 -6 -29 -17 -66 -25 -82 -8 -17 -15 -35 -15 -41 0
-6 -18 -38 -40 -71 -23 -33 -71 -88 -107 -122 -37 -35 -70 -63 -74 -63 -4 0
-18 -9 -31 -20 -12 -11 -43 -35 -66 -55 -24 -19 -49 -35 -56 -35 -6 0 -18 -9
-26 -20 -8 -12 -42 -34 -74 -50 -33 -17 -66 -30 -74 -30 -9 0 -23 -7 -33 -16
-13 -12 -41 -16 -111 -17 -51 -1 -126 2 -167 6 -40 4 -105 19 -145 33 -39 14
-92 32 -117 40 -26 8 -96 39 -158 70 -61 30 -137 73 -168 95 -32 22 -75 51
-95 64 -20 14 -48 44 -61 67 -14 24 -46 83 -72 133 -29 56 -52 116 -60 160 -8
38 -18 93 -24 120 -5 28 -15 86 -21 130 -10 70 -9 92 9 181 13 66 29 115 46
140 14 22 33 49 43 62 9 13 25 37 34 54 10 17 22 36 28 42 5 5 10 17 10 26 0
8 9 21 20 28 11 6 26 27 34 46 8 19 29 51 48 72 18 22 46 56 61 76 15 20 27
41 27 47 0 6 5 11 10 11 6 0 10 7 10 15 0 8 16 33 36 55 20 22 42 40 50 40 7
0 28 14 46 30 18 17 38 30 44 30 7 0 32 10 56 21 23 12 73 37 109 55 36 19 68
31 72 28 3 -3 14 -1 26 5 11 6 46 14 78 17 31 3 59 7 62 9 2 3 9 5 15 5z"/>
<g>
<path d="M10719 11296 c-9 2 -23 -1 -30 -9 -8 -7 -23 -14 -34 -14 -11 -1 -42
-7 -70 -13 -27 -7 -61 -22 -73 -34 -13 -11 -30 -33 -38 -48 -8 -15 -24 -28
-36 -30 -12 -2 -27 -13 -33 -24 -6 -12 -17 -29 -24 -38 -11 -13 -11 -32 -1
-103 6 -49 19 -110 28 -137 11 -33 37 -68 79 -112 37 -38 71 -64 83 -64 12 0
34 -7 50 -15 16 -8 60 -18 98 -21 38 -4 87 -3 108 0 26 5 51 21 81 51 24 24
43 48 43 52 0 5 11 20 25 35 14 15 32 53 40 85 12 43 14 80 9 143 -4 47 -11
96 -16 110 -5 14 -19 36 -31 49 -12 13 -44 40 -72 60 -27 21 -63 42 -80 48
-16 6 -43 14 -60 18 -16 3 -37 8 -46 11z m-36 -156 c36 0 56 -4 52 -10 -3 -5
-19 -10 -34 -10 -24 0 -28 -3 -24 -23 4 -21 1 -23 -29 -19 -25 3 -38 -2 -56
-21 -13 -14 -20 -30 -16 -40 3 -9 17 -23 30 -32 13 -8 24 -23 24 -31 0 -9 -7
-28 -16 -44 -10 -15 -14 -35 -11 -44 4 -9 21 -25 39 -36 18 -11 44 -23 58 -27
14 -3 28 -11 33 -17 5 -8 10 -6 16 4 5 8 7 19 4 25 -3 5 0 5 7 -2 9 -8 19 -9
36 0 18 7 28 7 35 0 8 -8 3 -16 -17 -29 -19 -13 -45 -18 -84 -18 -42 0 -69 7
-109 30 -30 16 -64 44 -77 64 -12 19 -27 62 -33 94 -6 33 -11 62 -11 66 0 3
18 24 39 47 22 23 50 48 63 57 14 10 44 16 81 16z m103 -10 c3 0 20 -12 38
-26 17 -15 39 -38 48 -53 13 -18 18 -46 18 -93 0 -38 -4 -68 -10 -68 -5 0 -13
12 -16 28 -4 15 -20 46 -36 70 -20 30 -28 51 -24 66 3 13 -1 31 -9 42 -8 10
-15 22 -15 27 0 4 3 7 6 7z"/>
</g>
<g>
<path d="M11555 11087 c-11 1 -36 -3 -55 -9 -19 -5 -43 -19 -54 -30 -12 -13
-19 -40 -23 -86 -2 -42 1 -75 8 -89 7 -13 31 -34 54 -47 31 -19 49 -23 74 -18
25 6 38 17 59 53 25 44 25 49 13 102 -7 31 -22 71 -34 89 -13 18 -32 34 -42
35z"/>
</g>
<g>
<path d="M11386 10640 c-25 -1 -43 -14 -94 -70 -35 -39 -69 -70 -76 -70 -7 0
-18 -11 -26 -24 -7 -14 -24 -27 -37 -31 -14 -3 -26 -5 -28 -3 -1 2 -12 24 -24
50 -12 25 -28 49 -36 52 -9 3 -15 0 -15 -8 0 -8 -16 -21 -35 -30 -21 -10 -37
-26 -41 -42 -3 -13 -1 -38 6 -54 7 -16 23 -41 36 -55 13 -15 24 -38 24 -54 0
-16 10 -37 23 -49 19 -18 31 -21 58 -16 19 4 42 11 52 16 9 5 17 14 17 21 0 7
25 37 56 67 31 30 66 65 79 78 12 12 26 22 30 22 4 0 29 23 56 50 36 37 49 58
49 80 0 17 -9 38 -22 50 -12 11 -35 20 -52 20z"/>
</g>
<g>
<path d="M10640 10629 c-3 0 -12 -3 -20 -6 -8 -3 -23 -12 -32 -21 -12 -10 -18
-30 -18 -59 0 -24 6 -54 14 -66 7 -12 21 -65 30 -117 10 -52 24 -117 33 -143
9 -27 22 -51 30 -54 8 -3 33 0 55 6 40 12 40 13 35 54 -3 23 -19 109 -36 190
-17 81 -36 158 -42 170 -7 12 -19 27 -28 34 -9 7 -18 12 -21 12z"/>
</g>
<g>
<path d="M11585 10418 c-5 0 -19 -3 -31 -5 -14 -3 -25 -17 -33 -41 -8 -24 -9
-51 -4 -77 7 -31 18 -46 51 -68 23 -16 58 -31 77 -34 19 -3 48 0 65 7 28 11
30 16 30 62 0 27 -4 58 -10 68 -5 10 -26 28 -45 40 -19 12 -35 29 -35 37 0 11
-3 13 -13 5 -8 -7 -18 -7 -27 -2 -8 6 -19 9 -25 8z"/>
</g>
</g>
<g>
<path d="M10326 9346 c-9 3 -16 2 -16 -4 0 -5 -15 -13 -32 -16 -18 -3 -62 -9
-98 -12 -36 -3 -93 -12 -128 -20 -35 -8 -82 -14 -105 -14 -23 0 -50 -7 -61
-15 -10 -8 -18 -25 -18 -38 0 -13 5 -40 11 -59 10 -29 18 -36 44 -40 18 -3 55
-2 82 3 28 4 61 10 75 13 14 2 68 12 120 21 66 12 106 14 130 8 l35 -9 7 -175
c3 -96 9 -264 13 -374 4 -117 3 -225 -3 -260 -6 -40 -6 -67 1 -82 5 -12 18
-25 29 -28 10 -4 18 -11 18 -16 0 -5 14 -9 30 -9 20 0 33 6 37 17 4 9 6 31 6
47 0 17 -3 119 -7 226 -4 107 -8 324 -10 481 -3 241 -6 290 -20 317 -15 30
-20 32 -70 32 -30 0 -61 3 -70 6z"/>
</g>
<g>
<path d="M11700 8100 c-8 0 -28 -9 -45 -20 -16 -11 -37 -24 -45 -29 -8 -5 -23
-12 -33 -15 -10 -3 -27 -26 -38 -52 -16 -34 -19 -55 -14 -87 5 -27 18 -51 37
-69 25 -23 39 -28 80 -28 42 0 56 5 87 32 20 17 43 46 52 64 14 27 14 37 4 65
-7 19 -21 54 -31 79 -10 25 -23 48 -29 52 -5 4 -17 8 -25 8z"/>
</g>
<g>
<path d="M9433 7454 c-21 1 -56 -3 -78 -9 -22 -5 -50 -17 -62 -25 -16 -10 -23
-25 -23 -47 0 -17 5 -44 11 -60 5 -15 26 -47 45 -70 23 -28 43 -43 58 -43 13
0 37 7 54 16 18 8 48 35 67 58 19 24 35 53 35 65 0 12 -6 34 -14 49 -8 15 -23
35 -35 46 -11 10 -37 19 -58 20z"/>
</g>
</g>
<g>
<path d="M14818 10184 c-24 1 -65 -5 -93 -15 -42 -14 -52 -23 -64 -53 -7 -20
-18 -36 -22 -36 -5 0 -9 -34 -9 -76 0 -53 5 -84 16 -104 10 -15 33 -36 53 -45
20 -10 49 -21 65 -26 17 -5 48 -4 75 2 25 5 54 19 63 29 10 11 18 24 18 30 0
5 5 10 11 10 5 0 17 17 26 37 10 24 14 56 11 90 -3 36 -12 60 -26 76 -12 13
-22 28 -22 33 0 5 -13 18 -29 27 -17 10 -49 19 -73 21z"/>
</g>
<g>
<path d="M13191 8580 c-27 -1 -51 -7 -58 -15 -9 -10 -10 -21 -3 -40 6 -15 8
-30 5 -34 -2 -4 0 -39 6 -77 6 -38 13 -76 16 -84 3 -8 5 -23 4 -32 -1 -10 2
-18 7 -18 6 0 13 -35 16 -77 4 -43 7 -89 7 -103 1 -14 5 -59 11 -100 5 -41 22
-118 38 -170 16 -52 39 -151 51 -220 12 -69 25 -147 28 -175 4 -27 12 -60 19
-72 7 -12 12 -37 12 -55 0 -18 16 -118 35 -223 20 -104 40 -215 45 -246 6 -30
19 -82 30 -114 11 -32 20 -71 20 -86 0 -15 5 -40 11 -56 6 -15 17 -50 24 -78
7 -27 18 -84 25 -125 6 -41 15 -95 20 -120 5 -25 16 -74 25 -110 9 -36 25
-110 35 -165 10 -55 20 -119 23 -142 6 -41 6 -41 -31 -48 -20 -3 -105 -3 -187
1 -83 3 -171 6 -197 5 -27 0 -63 -1 -82 -2 -21 -1 -37 -7 -40 -16 -4 -9 -3
-37 0 -64 5 -35 13 -52 30 -64 20 -13 29 -13 56 -2 24 9 75 11 178 9 80 -2
156 -4 170 -3 14 0 75 2 135 4 61 1 116 6 123 10 6 5 16 22 20 40 7 23 4 46
-8 82 -10 28 -22 70 -28 95 -6 25 -15 65 -21 90 -6 25 -18 79 -27 120 -9 41
-25 103 -35 138 -11 34 -19 68 -19 75 0 7 -9 31 -20 52 -11 22 -19 51 -18 65
1 14 -1 50 -5 80 -5 30 -16 87 -24 125 -9 39 -29 97 -44 131 -14 33 -30 84
-34 112 -4 29 -11 54 -15 57 -5 3 -12 27 -16 53 -3 26 -11 56 -17 67 -6 11
-11 47 -12 80 -1 33 -5 67 -8 75 -3 8 -8 46 -12 85 -3 38 -10 74 -15 80 -6 7
-5 16 2 23 8 8 7 26 -6 70 -9 32 -16 82 -16 110 0 30 -8 70 -19 95 -11 23 -22
67 -26 97 -3 30 -12 68 -19 85 -8 16 -19 59 -25 95 -7 36 -14 96 -16 134 -3
38 -9 85 -15 105 -5 20 -10 57 -10 83 0 25 -9 90 -20 145 -12 54 -23 113 -27
131 -5 31 -7 32 -52 32z"/>
</g>
<g>
<path d="M14440 4850 c-114 0 -209 -2 -211 -4 -3 -3 -79 -6 -169 -7 -91 -1
-183 -5 -205 -10 -22 -4 -83 -11 -135 -14 -52 -3 -102 -8 -110 -10 -8 -2 -60
-7 -115 -10 -55 -3 -101 -8 -104 -10 -2 -3 -10 0 -17 6 -8 7 -37 6 -96 -4 -45
-8 -102 -12 -126 -9 -27 2 -48 -1 -58 -9 -12 -9 -65 -14 -188 -17 -94 -2 -187
-4 -206 -4 -19 -1 -192 2 -385 5 -192 4 -368 9 -390 12 -36 6 -43 3 -70 -25
-23 -24 -29 -38 -26 -63 1 -18 10 -40 18 -49 9 -10 30 -20 47 -23 17 -3 85 -9
151 -13 66 -5 123 -4 126 0 3 5 43 5 90 0 53 -6 91 -6 103 0 11 6 33 6 60 0
22 -5 70 -8 106 -6 36 2 124 6 195 8 72 2 150 9 175 16 24 6 61 9 81 6 21 -3
40 -2 43 3 4 5 54 9 111 9 58 -1 108 -5 111 -10 3 -5 21 0 40 11 27 16 39 18
63 10 20 -7 53 -7 108 1 43 7 107 14 143 16 36 2 94 8 130 14 36 6 117 10 180
8 63 -1 177 3 252 11 92 8 148 9 172 3 19 -6 99 -8 178 -5 114 4 146 8 155 21
10 13 10 19 -2 32 -8 9 -15 24 -15 34 0 9 5 14 10 11 6 -3 10 4 10 17 0 13 -5
29 -12 36 -9 9 -71 12 -218 12z"/>
</g>
</g>
<g>
<path d="M5606 12170 c-15 0 -34 -18 -61 -56 -22 -31 -52 -71 -66 -88 -15 -17
-29 -41 -33 -53 -4 -12 -26 -51 -49 -85 -23 -35 -48 -72 -55 -83 -6 -11 -16
-29 -21 -40 -5 -12 -16 -27 -25 -34 -9 -7 -16 -18 -16 -24 0 -5 -18 -47 -40
-93 -22 -45 -44 -85 -49 -88 -5 -4 -29 -41 -53 -82 -24 -42 -52 -92 -63 -112
-11 -21 -26 -43 -32 -50 -7 -7 -13 -20 -13 -27 0 -8 -13 -30 -30 -48 -16 -19
-30 -38 -30 -42 0 -5 -7 -15 -15 -24 -9 -9 -29 -34 -47 -56 -17 -22 -46 -64
-65 -94 -19 -29 -57 -76 -84 -104 -27 -28 -51 -59 -55 -69 -3 -10 -9 -18 -14
-18 -4 0 -13 -12 -19 -27 -6 -16 -21 -42 -34 -59 -12 -18 -31 -47 -42 -65 -11
-18 -27 -46 -36 -62 -8 -16 -21 -32 -29 -37 -7 -5 -31 -39 -51 -77 -21 -37
-48 -88 -60 -113 -12 -25 -29 -54 -40 -65 -10 -11 -27 -41 -39 -67 -11 -26
-25 -50 -30 -53 -5 -3 -20 -29 -33 -58 -13 -29 -31 -59 -39 -68 -9 -9 -30 -42
-47 -75 -17 -32 -42 -79 -56 -104 -14 -25 -25 -51 -25 -58 0 -7 -6 -15 -14
-18 -8 -3 -20 -20 -27 -37 -7 -18 -27 -54 -45 -82 -17 -27 -35 -61 -39 -74 -4
-13 -24 -49 -44 -80 -20 -31 -42 -65 -49 -76 -7 -11 -17 -30 -22 -43 -5 -13
-25 -43 -44 -68 -19 -25 -37 -57 -41 -72 -3 -15 -24 -47 -45 -72 -32 -35 -40
-52 -40 -82 0 -30 5 -41 27 -55 16 -10 33 -21 38 -25 6 -4 30 -24 55 -44 24
-20 54 -40 65 -45 11 -5 47 -27 80 -49 33 -22 69 -44 80 -49 11 -5 28 -18 39
-30 10 -11 39 -30 65 -43 25 -12 48 -25 51 -29 3 -5 30 -20 60 -34 30 -15 84
-42 118 -61 40 -22 71 -32 83 -29 13 4 20 17 21 38 1 18 2 39 3 47 0 8 4 21 8
28 5 6 5 17 1 23 -3 6 -34 24 -68 40 -33 16 -81 42 -106 58 -25 16 -53 30 -63
30 -10 1 -29 12 -42 25 -13 14 -35 28 -47 31 -13 4 -57 28 -98 54 -41 25 -103
72 -137 104 l-62 59 20 51 c11 29 25 63 32 77 6 14 36 63 66 110 30 47 73 121
96 165 23 44 54 98 68 119 15 21 27 43 27 48 0 5 11 26 25 46 14 20 25 44 25
52 0 9 13 34 28 56 16 21 35 54 43 72 8 17 17 32 21 32 5 0 8 6 8 14 0 7 10
26 22 42 13 15 33 50 45 76 12 27 33 63 46 81 14 17 28 43 32 57 4 14 32 65
61 113 30 49 54 92 54 98 0 5 12 19 26 32 14 12 32 36 40 52 7 17 25 49 38 72
14 24 36 58 48 77 13 18 43 60 67 92 25 33 50 64 56 69 7 6 23 26 36 45 13 19
27 40 31 45 4 6 27 33 52 62 24 28 47 62 51 74 4 13 23 46 43 73 19 28 46 65
59 81 13 17 28 35 33 42 6 7 10 15 10 18 0 4 11 21 24 38 12 18 58 103 101
190 43 86 81 157 85 157 4 0 17 21 30 48 13 26 41 70 62 99 21 29 38 57 38 63
0 6 29 48 65 93 35 45 69 87 74 93 5 6 12 20 15 31 5 16 0 27 -20 42 -15 12
-36 21 -48 21z"/>
</g>
<g>
<path d="M2731 6939 c-9 0 -26 -4 -37 -9 -12 -5 -25 -13 -28 -19 -4 -5 -4 -28
0 -50 5 -33 11 -41 28 -41 11 0 32 -9 46 -20 14 -11 32 -20 41 -20 8 0 24 -8
35 -18 10 -10 35 -19 54 -20 19 -2 44 -9 56 -17 12 -8 73 -30 135 -50 63 -20
141 -45 174 -57 33 -11 78 -24 100 -28 22 -4 62 -14 88 -23 26 -10 58 -24 71
-32 12 -8 74 -33 137 -56 63 -22 157 -52 209 -65 52 -14 115 -35 140 -46 25
-11 55 -22 66 -23 12 -2 37 -10 55 -18 19 -8 57 -24 85 -35 28 -12 70 -28 95
-36 24 -8 64 -18 89 -22 25 -4 48 -7 52 -6 4 1 20 -3 35 -9 15 -7 44 -13 63
-16 19 -2 42 -6 50 -10 8 -3 35 -9 60 -14 25 -4 72 -15 105 -23 33 -8 76 -19
96 -24 20 -5 49 -16 65 -25 16 -8 49 -20 74 -27 25 -7 65 -19 90 -27 25 -8 54
-18 65 -23 11 -4 36 -13 55 -20 19 -7 55 -18 80 -26 25 -7 72 -24 105 -38 33
-14 71 -26 85 -26 14 0 30 4 36 8 6 4 10 22 8 41 -1 19 3 44 8 57 8 17 8 27
-1 38 -6 7 -24 16 -39 19 -15 3 -40 9 -57 12 -16 4 -51 17 -76 30 -25 14 -70
31 -100 39 -30 8 -102 31 -161 51 -59 19 -117 35 -128 35 -11 0 -28 4 -38 9
-9 5 -60 21 -112 35 -52 14 -144 33 -205 42 -63 9 -167 35 -243 60 -73 24
-140 48 -150 53 -9 6 -30 13 -47 16 -16 4 -30 6 -30 4 0 -1 -15 6 -33 15 -18
9 -74 30 -125 45 -51 16 -123 41 -162 56 -38 15 -81 28 -95 29 -14 2 -74 24
-135 49 -60 26 -154 58 -209 72 -54 14 -107 30 -117 35 -10 6 -28 10 -41 10
-13 0 -41 9 -63 19 -22 11 -76 31 -119 45 -44 14 -97 38 -118 52 -24 17 -45
24 -59 21 -12 -3 -38 1 -57 9 -19 7 -42 14 -51 13z"/>
</g>
</g>
</g>
</svg>
