<?xml version="1.0" standalone="no"?>
<!DOCTYPE svg PUBLIC "-//W3C//DTD SVG 20010904//EN"
 "http://www.w3.org/TR/2001/REC-SVG-20010904/DTD/svg10.dtd">
<svg version="1.0" xmlns="http://www.w3.org/2000/svg"
 width="1340.000000pt" height="2048.000000pt" viewBox="0 0 1340.000000 2048.000000"
 preserveAspectRatio="xMidYMid meet">
<metadata>
Created by potrace 1.16, written by Peter Selinger 2001-2019
</metadata>
<g transform="translate(0.000000,2048.000000) scale(0.100000,-0.100000)"
fill="#000000" stroke="none">
<g>
<path d="M6855 18874 c-49 3 -102 2 -117 -3 -14 -5 -32 -13 -40 -17 -7 -5 -22
-9 -33 -10 -11 0 -112 -6 -225 -12 -113 -6 -221 -10 -240 -8 -19 2 -44 7 -54
11 -11 5 -57 9 -103 9 -61 1 -86 -3 -92 -13 -5 -7 -22 -15 -37 -17 -16 -1 -44
-6 -63 -9 -18 -4 -45 -15 -60 -25 -14 -10 -60 -26 -101 -35 -41 -9 -86 -22
-100 -30 -14 -7 -48 -25 -76 -38 -29 -14 -65 -39 -82 -56 -16 -18 -35 -46 -42
-64 -6 -18 -16 -40 -21 -49 -5 -10 -9 -43 -9 -74 0 -31 -5 -75 -11 -98 -6 -22
-18 -63 -26 -91 -9 -27 -26 -62 -37 -76 -12 -15 -28 -40 -38 -57 -9 -17 -28
-38 -42 -47 -15 -10 -39 -19 -55 -21 -16 -2 -48 -8 -72 -13 -24 -6 -63 -11
-87 -11 -24 0 -52 -5 -62 -10 -11 -6 -52 -11 -92 -12 -40 0 -84 -6 -98 -11
-14 -6 -52 -20 -85 -31 -45 -16 -65 -29 -82 -55 -13 -19 -23 -45 -23 -58 0
-13 -9 -49 -19 -81 -17 -51 -19 -83 -16 -302 2 -146 9 -294 18 -365 9 -66 21
-165 28 -220 6 -55 15 -129 20 -165 4 -36 8 -106 8 -156 1 -76 -4 -106 -33
-194 -23 -71 -42 -114 -63 -135 -16 -16 -42 -50 -58 -74 -16 -23 -40 -47 -54
-52 -13 -5 -40 -22 -60 -38 -20 -15 -64 -44 -97 -64 -34 -20 -73 -37 -87 -37
-13 0 -30 -7 -37 -15 -6 -8 -37 -31 -68 -51 -32 -21 -59 -40 -62 -44 -3 -3
-30 -22 -60 -42 -30 -20 -64 -45 -75 -55 -11 -11 -45 -36 -75 -57 -30 -21 -93
-75 -140 -121 -47 -46 -104 -110 -125 -142 -22 -32 -48 -67 -57 -77 -10 -11
-18 -23 -18 -27 0 -4 -11 -20 -24 -36 -13 -16 -34 -46 -45 -68 -12 -22 -27
-49 -33 -60 -6 -11 -15 -27 -20 -35 -4 -8 -12 -24 -17 -35 -4 -11 -16 -42 -26
-70 -9 -27 -30 -90 -45 -140 -16 -49 -36 -110 -45 -134 -9 -24 -20 -80 -26
-125 -5 -45 -14 -94 -20 -111 -6 -16 -15 -57 -21 -90 -5 -33 -11 -80 -13 -105
-2 -25 -5 -61 -8 -80 -3 -19 -8 -73 -12 -120 -3 -47 -11 -112 -16 -146 -9 -53
-7 -73 16 -165 15 -57 31 -121 36 -143 5 -21 16 -48 24 -60 8 -11 15 -34 15
-51 0 -17 20 -93 45 -170 25 -77 52 -152 60 -167 8 -14 15 -35 15 -46 0 -11
11 -34 25 -50 14 -17 25 -35 25 -40 0 -6 15 -41 34 -79 18 -37 44 -90 56 -118
12 -27 29 -65 38 -83 9 -18 25 -43 37 -55 12 -12 30 -36 39 -54 9 -17 78 -94
153 -171 76 -77 165 -156 198 -177 33 -21 80 -49 105 -62 25 -13 72 -32 105
-42 33 -11 88 -31 123 -46 35 -14 111 -40 170 -56 58 -17 142 -35 185 -41 78
-11 80 -12 95 -47 8 -20 17 -78 20 -128 3 -56 0 -118 -8 -155 -7 -37 -14 -168
-16 -313 -2 -137 -4 -268 -4 -290 1 -22 7 -46 13 -55 7 -8 21 -32 30 -54 10
-21 27 -40 37 -43 11 -3 20 -9 20 -13 0 -4 10 -11 23 -15 12 -4 60 -9 107 -11
47 -2 95 -6 107 -9 12 -3 28 -15 34 -26 7 -14 11 -76 10 -166 0 -80 -3 -148
-6 -153 -3 -5 0 -44 6 -87 6 -43 17 -92 25 -110 8 -17 19 -51 24 -75 5 -24 13
-58 17 -76 5 -19 35 -62 73 -104 40 -43 81 -78 108 -89 23 -10 42 -23 42 -28
0 -6 17 -13 38 -17 20 -4 49 -13 63 -20 18 -9 60 -12 135 -10 65 1 119 8 133
15 18 10 62 12 165 9 122 -4 146 -7 176 -26 25 -16 36 -31 40 -54 3 -18 2 -55
-3 -83 -5 -27 -7 -105 -4 -173 3 -70 10 -128 16 -136 9 -11 9 -16 0 -22 -6 -4
-131 -7 -278 -6 -146 0 -345 4 -441 7 l-175 7 -12 -23 c-6 -13 -17 -55 -24
-94 -7 -38 -20 -89 -31 -113 -10 -24 -18 -55 -18 -69 0 -14 -4 -42 -10 -62 -5
-20 -19 -79 -30 -131 -12 -52 -30 -114 -41 -137 -10 -24 -19 -55 -19 -69 0
-15 -4 -43 -9 -63 -6 -20 -19 -72 -30 -116 -11 -44 -23 -100 -25 -125 -2 -25
-10 -67 -16 -95 -7 -27 -13 -57 -15 -65 -1 -8 -7 -33 -13 -55 -6 -22 -14 -69
-17 -105 -4 -36 -13 -99 -22 -140 -8 -41 -16 -115 -19 -164 -3 -49 -9 -96 -14
-106 -5 -10 -12 -37 -15 -61 -3 -24 -7 -57 -10 -74 -3 -16 -8 -68 -11 -115 -4
-47 -8 -101 -10 -120 -1 -19 -3 -39 -5 -45 -1 -5 -3 -35 -4 -65 -1 -30 -7 -93
-13 -140 -6 -47 -11 -164 -11 -262 0 -98 -5 -194 -11 -217 -9 -34 -8 -45 6
-66 10 -15 26 -25 39 -25 14 0 26 8 30 19 3 11 12 22 20 25 8 3 15 13 15 23 0
10 -6 25 -13 34 -9 12 -11 38 -6 95 4 44 8 149 8 234 1 86 10 259 22 385 11
127 22 255 25 285 3 30 14 91 24 135 11 44 26 130 35 190 8 61 17 126 19 145
3 19 12 80 21 135 9 55 32 177 51 270 19 94 40 197 46 230 6 33 14 65 18 70 4
6 11 26 15 45 4 19 12 41 17 50 5 8 17 58 26 110 10 52 22 95 27 95 6 0 13
-40 16 -90 4 -49 14 -116 22 -149 9 -34 12 -67 8 -80 -4 -11 -4 -59 0 -106 5
-47 11 -123 14 -170 4 -47 2 -146 -3 -220 -5 -74 -6 -139 -2 -145 5 -5 9 -21
9 -35 0 -14 0 -36 0 -50 0 -14 0 -104 1 -200 0 -96 3 -256 5 -355 3 -99 7
-193 10 -210 2 -16 7 -104 11 -195 4 -91 8 -183 9 -205 1 -22 5 -98 9 -170 4
-71 9 -153 11 -182 3 -28 9 -181 15 -340 5 -158 12 -328 15 -378 3 -49 7 -159
10 -242 2 -84 8 -160 13 -170 5 -10 10 -76 11 -147 1 -71 4 -133 6 -136 2 -3
5 -58 6 -121 1 -63 6 -124 10 -137 5 -13 11 -80 14 -150 3 -70 10 -174 16
-232 6 -58 12 -139 15 -180 2 -41 11 -172 19 -290 9 -118 20 -278 26 -355 6
-77 13 -143 15 -147 2 -4 7 -85 10 -180 3 -95 10 -211 15 -258 5 -47 14 -128
19 -180 4 -52 15 -135 24 -185 8 -49 15 -128 15 -175 0 -47 4 -136 10 -197 6
-62 16 -124 21 -139 6 -14 15 -79 20 -143 7 -88 6 -119 -3 -128 -7 -6 -39 -20
-72 -32 -33 -11 -94 -32 -135 -46 -41 -14 -86 -31 -100 -38 -14 -6 -43 -23
-65 -37 -22 -15 -66 -38 -98 -53 -32 -15 -63 -27 -71 -27 -7 0 -20 -8 -29 -18
-10 -10 -17 -27 -17 -38 0 -11 5 -25 12 -32 7 -7 21 -12 33 -12 12 0 63 23
115 51 52 29 113 61 136 73 22 12 53 26 70 33 16 6 58 23 94 36 36 14 87 30
114 36 27 7 65 19 83 26 l34 15 -6 117 c-4 65 -10 132 -15 148 -5 17 -11 48
-13 70 -3 22 -12 94 -21 160 -9 66 -32 264 -52 440 -20 176 -40 354 -45 395
-4 41 -8 130 -8 196 -1 67 -7 159 -15 205 -8 46 -17 127 -21 179 -3 52 -12
181 -20 285 -8 105 -19 262 -25 350 -6 88 -15 225 -20 305 -5 80 -14 210 -20
290 -6 80 -15 206 -21 280 -5 74 -14 221 -20 325 -5 105 -14 312 -19 460 -5
149 -10 279 -11 290 -2 11 -2 32 -1 47 l2 27 73 -5 c39 -3 128 -14 197 -25 69
-11 161 -19 205 -18 44 1 97 -1 117 -6 20 -4 72 -9 115 -11 43 -2 161 -9 263
-14 102 -5 219 -11 260 -14 41 -3 138 -12 215 -22 105 -12 238 -17 530 -19
215 -2 419 -6 455 -10 36 -3 83 -10 105 -13 l40 -7 6 -92 c4 -50 10 -212 14
-360 4 -147 6 -493 6 -768 -1 -275 4 -628 10 -785 6 -157 13 -503 15 -770 2
-267 6 -568 8 -670 3 -102 10 -261 16 -355 6 -93 13 -228 16 -300 3 -71 10
-138 15 -147 5 -9 9 -61 9 -116 0 -55 -3 -119 -6 -144 -6 -40 -10 -46 -46 -61
-21 -10 -63 -22 -91 -28 -29 -6 -66 -17 -84 -25 -17 -8 -34 -14 -38 -14 -3 0
-27 -9 -53 -21 -26 -11 -85 -39 -132 -61 -47 -21 -92 -44 -100 -49 -8 -5 -26
-14 -40 -20 -14 -5 -49 -22 -78 -36 -30 -15 -59 -37 -64 -49 -6 -13 -8 -30 -5
-38 4 -10 19 -16 40 -16 19 0 40 7 47 14 6 8 28 20 48 26 20 6 64 24 97 40 33
15 78 37 100 48 22 10 71 36 110 56 38 20 92 43 120 51 27 8 64 16 80 18 17 2
39 7 50 12 11 4 38 16 60 25 22 10 48 24 59 32 15 12 19 30 20 104 2 49 -1
107 -5 129 -5 23 -11 86 -13 140 -3 55 -10 118 -16 140 -5 22 -10 85 -10 140
0 55 -5 177 -10 270 -6 94 -13 181 -17 195 -3 14 -7 306 -9 650 -2 344 -7 677
-12 740 -5 63 -9 390 -10 725 0 336 -3 682 -7 770 -3 88 -7 207 -9 265 -3 58
-7 211 -10 340 -4 129 -12 303 -18 385 -9 104 -11 362 -8 835 3 377 5 775 5
885 -1 110 -4 313 -7 451 -4 139 -10 263 -13 277 -4 14 -2 28 4 31 7 5 11 -4
11 -23 0 -17 12 -56 26 -88 14 -32 43 -116 63 -188 21 -71 41 -151 45 -178 4
-26 18 -72 31 -101 13 -30 21 -57 18 -60 -4 -3 -1 -16 5 -29 6 -12 13 -38 17
-57 3 -19 10 -63 14 -97 5 -35 14 -70 21 -78 7 -8 10 -25 6 -39 -3 -14 -2 -27
3 -30 5 -3 12 -33 16 -66 4 -33 11 -63 16 -66 6 -3 7 -13 5 -22 -3 -10 1 -30
9 -46 8 -15 15 -46 15 -67 0 -21 4 -40 9 -43 5 -3 7 -15 4 -26 -3 -11 3 -42
13 -68 10 -26 19 -54 19 -62 1 -8 5 -34 9 -57 4 -24 12 -45 17 -49 5 -3 9 -26
9 -52 1 -26 9 -82 19 -124 10 -43 23 -83 29 -90 6 -7 15 -38 22 -68 6 -30 15
-73 19 -95 5 -22 13 -51 18 -65 6 -14 13 -47 17 -75 4 -27 11 -72 17 -100 6
-27 14 -59 19 -70 4 -11 14 -54 20 -95 7 -41 14 -83 16 -94 2 -10 7 -23 12
-30 5 -6 13 -41 17 -79 4 -39 3 -67 -3 -67 -5 0 -16 -18 -25 -40 -11 -28 -21
-40 -35 -40 -11 0 -42 -10 -69 -21 -38 -17 -56 -34 -83 -78 -29 -46 -35 -66
-36 -116 -1 -33 2 -90 7 -126 4 -37 16 -81 26 -99 10 -18 26 -38 35 -44 12 -7
42 -4 107 12 50 12 119 22 154 22 36 0 68 -5 75 -12 7 -7 12 -29 12 -50 0 -24
-6 -43 -18 -53 -9 -7 -28 -22 -41 -33 -13 -10 -32 -38 -41 -61 -15 -40 -15
-47 2 -119 10 -43 20 -94 23 -114 3 -21 13 -44 21 -53 9 -8 26 -15 40 -15 13
0 33 5 43 12 10 6 25 8 34 5 9 -3 21 -25 27 -49 6 -24 15 -51 20 -60 6 -10 10
-37 10 -61 0 -24 -6 -52 -14 -63 -8 -10 -19 -20 -25 -20 -6 -1 -15 -2 -20 -3
-5 0 -16 -7 -23 -14 -7 -7 -33 -20 -58 -30 -25 -10 -62 -27 -82 -37 -27 -13
-40 -15 -46 -6 -5 6 -13 33 -16 59 -4 27 -9 59 -12 70 -2 12 -8 49 -13 82 -5
33 -16 72 -23 87 -11 23 -23 29 -82 39 -53 10 -78 10 -115 0 -25 -6 -57 -20
-71 -30 -23 -17 -25 -24 -22 -90 1 -40 11 -99 22 -131 11 -33 20 -79 21 -102
0 -24 6 -61 12 -82 10 -31 19 -41 42 -47 18 -5 57 -2 103 7 41 8 80 13 87 11
7 -3 15 -35 19 -77 3 -39 13 -84 21 -98 9 -15 24 -40 34 -57 12 -20 27 -31 46
-33 16 -2 61 5 100 16 38 11 93 24 120 27 28 4 59 12 70 18 11 6 27 10 36 9 8
-2 31 4 51 12 20 9 46 29 58 46 22 30 22 32 6 113 -9 45 -22 114 -30 152 -7
39 -19 100 -26 137 -11 60 -10 70 6 97 10 17 25 33 34 36 8 3 20 5 25 6 6 1
22 7 37 15 15 8 31 14 36 14 5 0 15 -20 21 -44 6 -25 11 -63 11 -84 0 -23 6
-45 15 -52 10 -8 29 -10 58 -6 23 4 61 9 83 13 23 3 54 15 69 27 l28 23 -9
103 -10 103 101 47 c55 26 108 50 117 54 10 3 27 20 38 38 11 18 20 48 20 66
0 19 -11 76 -25 127 -13 51 -36 126 -49 167 -13 40 -36 134 -51 208 -15 74
-37 181 -50 237 -13 56 -35 127 -49 157 -14 31 -30 56 -35 56 -6 0 -49 -19
-98 -41 -48 -23 -90 -45 -93 -49 -3 -4 -30 -24 -60 -45 -30 -21 -65 -49 -77
-64 -12 -14 -25 -45 -29 -69 -4 -26 -2 -53 4 -65 6 -12 11 -33 11 -47 -1 -14
2 -67 6 -117 8 -91 7 -93 -14 -93 -15 0 -21 6 -21 23 -1 12 -5 97 -9 188 -7
137 -12 172 -30 206 -11 23 -25 44 -31 48 -5 3 -38 1 -72 -5 -35 -6 -73 -18
-86 -26 -13 -8 -44 -18 -70 -21 -39 -4 -50 -2 -66 16 -11 12 -25 21 -32 21 -7
0 -18 9 -24 21 -6 11 -15 41 -19 67 -5 26 -32 153 -60 282 -28 129 -61 262
-72 295 -12 33 -25 78 -29 100 -4 22 -17 76 -28 120 -11 44 -28 121 -38 170
-9 50 -27 126 -39 170 -13 44 -30 114 -38 155 -8 41 -29 147 -46 235 -17 88
-37 185 -43 215 -6 30 -18 80 -28 110 -10 30 -23 82 -30 115 -6 33 -21 87 -32
120 -11 33 -22 74 -25 90 -2 17 -15 68 -29 115 -14 47 -30 99 -35 115 -6 17
-24 73 -41 125 -16 52 -33 100 -38 105 -4 6 -11 28 -15 50 -3 22 -13 54 -21
71 l-15 31 -197 7 c-108 3 -226 11 -262 17 -38 5 -217 8 -427 6 -200 -2 -363
0 -363 5 0 4 9 8 19 8 12 0 21 10 26 28 4 15 8 198 9 407 1 212 8 433 15 500
7 66 14 244 16 395 1 151 3 278 4 281 0 4 22 12 49 19 26 7 94 16 152 21 58 4
116 10 130 13 14 3 48 8 75 12 28 4 55 10 60 14 6 4 37 8 69 9 32 1 64 5 70 9
6 3 52 8 101 9 50 1 117 3 150 3 33 0 93 9 134 19 44 12 95 34 125 55 28 20
68 51 88 69 21 18 44 49 52 68 8 19 17 79 21 134 3 55 9 118 12 140 3 22 9
200 13 395 4 195 11 366 15 380 4 14 9 300 12 635 3 491 1 638 -11 755 -9 80
-17 233 -18 340 -3 172 -1 201 16 245 11 28 30 62 44 77 13 15 50 37 81 49 31
12 61 26 66 30 6 4 33 15 60 24 28 9 68 25 90 35 22 10 78 35 125 55 47 20
109 48 138 61 29 13 56 24 60 24 4 0 23 14 42 32 19 17 61 47 92 65 32 19 79
52 105 75 27 23 98 79 160 124 62 46 120 96 130 111 9 15 34 48 54 73 21 25
57 75 82 111 25 37 57 89 71 115 14 27 26 52 26 56 0 4 12 33 26 65 14 32 29
67 34 78 5 11 16 45 24 75 8 30 22 121 31 202 9 81 16 211 16 288 0 77 -3 145
-6 150 -3 5 -10 69 -15 142 -5 73 -16 166 -25 206 -9 40 -22 99 -29 130 -8 31
-24 82 -36 112 -12 30 -35 92 -51 137 -16 45 -29 88 -29 95 0 8 -23 60 -51
117 -28 57 -65 122 -82 145 -17 23 -56 72 -86 109 -30 38 -82 90 -115 115 -34
26 -76 58 -95 71 -19 12 -61 35 -92 51 -31 15 -67 37 -79 48 -13 12 -37 24
-54 27 -17 4 -44 11 -61 16 -16 5 -84 25 -150 44 -66 20 -133 41 -150 47 -16
5 -55 16 -85 24 -30 8 -100 24 -155 35 -55 12 -125 25 -156 30 -31 4 -69 14
-85 21 -20 8 -114 12 -314 13 -177 1 -293 5 -305 12 -11 5 -35 13 -53 16 -18
4 -45 16 -62 28 l-29 22 6 141 c4 108 2 161 -10 225 -9 46 -28 103 -42 127
-15 26 -33 44 -43 44 -10 0 -24 6 -30 13 -7 6 -48 15 -90 19 -42 4 -117 10
-167 12z m35 -100 c101 -5 156 -12 180 -23 23 -10 42 -30 55 -56 18 -36 20
-60 20 -251 0 -190 2 -214 18 -232 10 -11 44 -29 75 -42 31 -12 93 -28 137
-36 53 -9 147 -14 280 -13 110 0 207 -2 215 -5 8 -3 40 -8 70 -11 30 -3 75 -9
100 -15 25 -6 81 -17 125 -24 44 -8 109 -22 145 -31 36 -9 80 -21 98 -26 17
-5 49 -14 70 -20 20 -6 52 -13 70 -16 18 -3 35 -9 38 -14 3 -5 13 -9 23 -9 10
0 60 -14 112 -30 52 -17 106 -39 120 -49 14 -10 54 -33 90 -51 35 -18 96 -55
134 -83 39 -28 89 -72 112 -97 24 -25 45 -53 49 -62 3 -10 9 -18 13 -18 4 0
23 -21 41 -47 19 -27 38 -51 43 -54 4 -3 24 -37 43 -74 18 -38 34 -79 34 -91
0 -12 16 -56 35 -99 20 -43 49 -118 65 -168 17 -49 30 -98 30 -108 0 -10 4
-20 8 -23 4 -2 9 -20 10 -39 1 -18 7 -49 13 -68 6 -19 15 -88 19 -154 5 -66
14 -151 20 -190 7 -43 9 -118 5 -195 -3 -69 -17 -190 -30 -270 -13 -80 -28
-156 -33 -170 -5 -14 -35 -77 -66 -140 -30 -63 -64 -130 -75 -148 -10 -18 -42
-63 -70 -100 -27 -37 -60 -79 -73 -93 -13 -15 -81 -75 -153 -135 -71 -59 -132
-111 -135 -114 -3 -3 -27 -20 -53 -38 -26 -18 -50 -32 -53 -32 -2 0 -27 -16
-55 -35 -28 -19 -55 -35 -61 -35 -5 0 -18 -9 -29 -19 -11 -10 -48 -29 -82 -41
-34 -13 -79 -33 -99 -46 -20 -13 -92 -42 -160 -65 -68 -23 -154 -57 -192 -77
-58 -30 -75 -45 -107 -95 -22 -33 -39 -68 -39 -77 0 -10 -7 -33 -15 -51 -13
-32 -14 -22 -14 136 0 94 -3 260 -6 370 -2 110 -7 223 -10 250 -3 28 -10 84
-16 125 -7 41 -20 91 -30 111 -13 27 -26 38 -46 40 -15 2 -46 2 -68 -1 -22 -3
-52 -4 -66 -2 l-26 4 -7 241 c-4 133 -9 274 -11 312 -2 39 -6 117 -10 175 -3
58 -7 119 -9 135 -2 17 -7 140 -10 275 -4 135 -9 262 -12 282 -5 36 -5 37 48
61 29 14 63 28 76 32 12 3 28 18 36 33 8 15 19 47 26 71 8 30 12 139 11 328 0
231 -3 295 -17 350 -9 37 -32 91 -52 121 l-35 55 -216 -9 c-119 -4 -269 -9
-334 -9 -67 0 -122 4 -127 10 -4 6 -18 80 -30 165 -11 85 -30 198 -40 251 -11
52 -27 118 -36 145 -9 27 -18 54 -20 61 -2 9 -31 11 -104 8 -56 -3 -105 -7
-110 -10 -5 -3 -67 -8 -137 -11 -70 -4 -168 -8 -218 -9 -49 -2 -126 -5 -169
-9 -44 -3 -104 -10 -133 -16 -30 -7 -76 -10 -103 -7 -26 3 -72 0 -102 -5 -29
-5 -62 -13 -73 -18 -11 -4 -35 -13 -53 -19 -18 -6 -46 -19 -61 -30 -26 -19
-29 -26 -34 -107 -3 -48 -1 -209 4 -358 5 -149 11 -321 14 -382 2 -62 9 -122
14 -135 4 -13 10 -64 12 -114 l4 -89 -39 -7 c-21 -3 -42 -12 -47 -20 -5 -8
-10 -48 -11 -89 -1 -41 0 -102 1 -135 l3 -61 -125 -1 c-112 0 -126 1 -130 17
-3 10 -1 143 3 296 4 154 4 289 -1 301 -4 12 -22 29 -40 38 -17 9 -73 23 -123
30 -58 9 -157 12 -274 10 -115 -1 -187 -7 -196 -14 -10 -9 -13 -58 -10 -246 1
-130 5 -248 8 -263 4 -15 12 -80 20 -146 12 -103 17 -121 39 -143 24 -25 29
-26 152 -24 69 0 145 5 168 10 23 5 70 15 105 22 45 8 66 9 74 1 6 -6 14 -64
19 -129 5 -73 4 -135 -2 -162 -8 -37 -25 -60 -97 -132 -48 -47 -102 -104 -121
-125 -18 -21 -34 -44 -35 -50 -1 -6 -29 -41 -61 -78 -33 -37 -70 -86 -83 -109
-21 -39 -23 -51 -18 -152 3 -60 10 -240 16 -400 6 -159 13 -326 15 -370 2 -44
10 -118 19 -165 9 -47 16 -116 16 -155 0 -38 5 -113 11 -165 6 -52 12 -126 14
-165 1 -38 -1 -74 -4 -80 -3 -5 -6 -17 -7 -25 -1 -8 -2 -25 -3 -38 -1 -16 -11
-27 -35 -37 -18 -8 -45 -28 -59 -45 -14 -16 -31 -30 -37 -30 -6 0 -28 -12 -50
-26 -22 -15 -65 -57 -95 -95 -31 -38 -65 -94 -77 -124 -20 -53 -21 -62 -9
-148 6 -51 14 -182 17 -292 l5 -200 41 -53 c23 -29 44 -55 48 -57 4 -3 39 -9
76 -15 38 -6 89 -15 114 -19 25 -5 90 -18 145 -29 55 -11 147 -28 205 -37 58
-9 120 -18 138 -21 22 -4 32 -10 29 -18 -3 -8 -15 -44 -26 -82 -11 -38 -23
-105 -26 -149 -3 -44 -5 -90 -5 -101 0 -12 -6 -26 -13 -32 -6 -5 -37 -12 -67
-15 -30 -3 -90 -12 -133 -21 -42 -8 -99 -17 -125 -19 -26 -2 -56 -9 -68 -15
-11 -6 -29 -29 -39 -52 -16 -36 -17 -47 -6 -110 7 -39 17 -72 22 -76 5 -3 9
-18 9 -33 0 -16 7 -34 15 -41 11 -9 14 -34 14 -101 -1 -79 -3 -89 -19 -89 -10
0 -38 -9 -63 -19 -24 -11 -55 -34 -67 -51 -23 -33 -23 -34 -24 -389 l-1 -356
29 -80 c16 -44 39 -97 52 -117 13 -20 31 -39 41 -42 10 -2 45 -10 78 -17 33
-7 102 -13 153 -13 l93 -1 -2 -105 c0 -58 0 -162 0 -232 1 -75 7 -143 15 -165
10 -28 19 -39 37 -41 14 -2 37 -13 51 -25 23 -18 27 -31 29 -78 1 -30 -1 -61
-5 -68 -5 -7 -5 -38 -1 -69 6 -52 11 -61 57 -104 27 -26 64 -54 81 -63 22 -11
44 -14 72 -9 22 3 48 13 58 22 16 14 18 34 16 181 l-1 166 99 8 c54 4 108 5
121 2 13 -3 36 2 52 12 17 9 32 24 35 33 2 8 7 47 10 86 3 46 -2 118 -15 203
-13 86 -18 152 -13 191 l6 61 111 -3 111 -3 2 -30 c2 -16 8 -84 15 -150 6 -66
11 -144 10 -173 -2 -45 2 -57 23 -78 18 -18 30 -22 41 -16 9 5 39 5 67 1 29
-5 94 -7 145 -6 86 2 95 4 112 27 11 14 25 49 32 79 9 42 9 65 -1 110 -7 31
-17 94 -22 141 -8 62 -16 91 -31 107 -12 13 -43 26 -81 33 -34 6 -82 14 -107
16 -25 3 -65 7 -89 10 l-44 6 7 56 c4 31 11 74 17 94 5 21 22 49 37 63 15 14
35 26 44 26 10 1 21 2 26 3 4 2 25 7 47 13 22 7 103 13 180 14 77 1 273 2 435
0 186 -1 308 2 330 9 19 6 117 13 218 16 157 4 188 7 221 25 21 11 47 29 57
40 18 20 19 41 19 273 0 143 10 408 22 616 12 201 25 406 28 455 4 50 7 99 7
110 0 11 4 139 8 285 5 146 12 389 15 540 3 151 10 328 15 393 6 65 15 126 21
135 8 13 9 7 6 -25 -4 -29 -1 -46 9 -54 11 -9 14 -39 14 -128 -1 -64 5 -152
12 -196 7 -49 12 -175 12 -325 0 -135 -2 -276 -4 -315 -2 -38 -3 -149 -2 -245
0 -96 2 -213 2 -260 1 -47 2 -98 2 -115 0 -16 -4 -48 -7 -70 -4 -22 -8 -96
-10 -165 -2 -69 -6 -231 -9 -360 -3 -129 -8 -280 -11 -335 -3 -55 -11 -126
-18 -159 -11 -53 -17 -64 -76 -117 -35 -33 -76 -62 -90 -65 -14 -3 -35 -9 -46
-14 -11 -4 -28 -11 -37 -14 -9 -3 -75 -8 -145 -11 -70 -3 -168 -10 -218 -16
-49 -5 -130 -19 -178 -30 -48 -11 -136 -22 -195 -25 -59 -2 -123 -9 -142 -14
-19 -6 -47 -10 -61 -10 -15 0 -38 -9 -53 -21 -19 -15 -27 -30 -27 -52 0 -18
-1 -126 -3 -242 -2 -115 -7 -226 -11 -245 -5 -19 -8 -52 -9 -72 0 -21 -4 -38
-9 -38 -5 0 -8 -37 -7 -82 0 -46 -2 -121 -5 -168 -3 -47 -9 -112 -14 -145 -4
-33 -5 -64 -2 -70 3 -5 6 -73 7 -150 1 -77 2 -176 4 -220 1 -44 -1 -101 -5
-126 -4 -30 -3 -49 4 -53 6 -4 11 -15 11 -24 0 -16 -18 -17 -217 -16 -120 1
-243 3 -273 3 l-55 1 -2 43 c-1 23 -5 121 -9 217 -4 96 -12 186 -18 200 -6 14
-30 43 -53 64 -23 21 -47 35 -52 32 -5 -4 -31 -1 -58 5 -26 6 -92 12 -146 14
-54 1 -101 5 -104 8 -3 3 -23 -4 -45 -15 -26 -14 -66 -23 -115 -26 -45 -3 -91
0 -116 8 -23 7 -53 17 -67 22 -14 6 -43 20 -65 31 -22 11 -53 32 -69 46 -15
14 -38 49 -51 76 -13 28 -26 72 -31 100 -4 27 -18 72 -31 100 -22 47 -23 60
-22 225 1 109 -3 198 -11 235 -9 44 -21 68 -45 92 -30 30 -38 33 -102 35 -37
1 -81 2 -98 3 -16 1 -44 9 -62 18 -20 10 -35 29 -42 49 -5 18 -13 128 -16 243
-5 162 -2 247 11 370 10 97 14 190 10 235 -5 56 -15 94 -41 148 -19 40 -41 75
-50 78 -9 4 -33 0 -53 -8 -33 -13 -44 -12 -102 3 -36 9 -105 29 -154 43 -49
15 -128 40 -177 56 -49 16 -124 48 -166 71 -43 22 -96 56 -118 74 -22 18 -92
84 -156 147 -69 69 -138 149 -171 199 -31 46 -94 161 -141 254 -47 94 -97 202
-111 240 -13 39 -34 99 -45 135 -11 36 -30 97 -42 135 -11 39 -27 97 -35 130
-8 33 -19 78 -24 100 -6 22 -15 81 -20 130 -6 61 -6 124 1 195 6 58 17 150 24
205 7 55 24 161 39 235 14 74 34 167 43 205 9 39 27 94 40 123 13 29 23 58 23
65 0 7 17 50 38 97 21 47 73 143 117 213 43 70 81 127 86 127 4 0 41 39 82 88
42 48 95 102 119 119 23 18 88 67 143 109 55 41 130 95 168 120 37 24 73 44
80 44 7 0 28 10 47 23 19 13 60 37 90 53 30 15 71 40 90 53 19 14 48 36 64 50
15 14 32 36 37 49 5 12 15 22 23 22 8 0 28 16 45 35 17 19 42 61 57 93 15 31
36 89 47 127 11 39 22 102 24 140 2 39 -3 140 -11 225 -8 85 -22 214 -30 285
-8 72 -20 201 -27 289 -9 120 -9 182 -1 255 7 53 14 131 16 174 3 49 11 88 21
104 9 13 38 34 63 46 26 12 54 22 62 24 8 1 42 7 75 12 33 6 101 13 150 17 50
3 112 12 139 20 27 7 61 14 76 14 19 0 38 14 71 53 25 28 48 60 52 70 4 10 23
43 42 72 31 45 40 75 65 200 15 80 35 157 44 169 8 13 31 34 50 46 20 12 36
26 36 31 0 5 6 9 13 9 6 0 26 7 42 16 17 9 62 25 100 36 39 11 88 23 110 28
22 4 69 17 105 30 36 12 85 22 110 23 25 0 77 -5 117 -13 58 -11 77 -11 95 -1
16 8 32 9 48 3 14 -5 77 -7 140 -5 63 2 129 6 145 8 17 3 43 12 59 20 16 9 37
13 47 10 10 -4 27 -1 36 4 12 7 68 9 163 5z m-5 -262 c25 -3 36 -11 44 -31 6
-14 17 -60 25 -101 8 -41 23 -122 32 -180 9 -58 19 -131 21 -164 4 -42 1 -61
-9 -67 -7 -5 -33 -9 -58 -9 -31 0 -61 -9 -97 -30 -29 -17 -60 -41 -68 -54 -9
-13 -20 -60 -25 -105 -5 -45 -12 -98 -16 -118 -4 -19 -1 -68 5 -107 7 -39 19
-82 26 -96 7 -14 26 -33 43 -42 17 -11 61 -21 106 -24 l77 -7 -6 -115 c-3 -64
-1 -201 5 -306 6 -105 13 -222 15 -261 2 -38 5 -95 5 -125 1 -30 -1 -143 -5
-250 -3 -107 -5 -216 -5 -242 0 -46 -2 -48 -37 -64 -25 -10 -80 -18 -157 -22
-112 -5 -122 -3 -162 19 -40 21 -44 22 -61 6 -16 -14 -19 -36 -20 -193 -2 -98
-7 -182 -12 -187 -5 -5 -104 -12 -219 -15 l-208 -5 -20 89 c-10 49 -17 105
-15 124 2 19 8 44 14 55 6 11 11 29 13 40 1 11 18 54 37 95 19 42 54 100 78
130 24 30 57 72 74 94 24 31 44 43 105 63 42 14 118 28 175 33 55 5 134 9 175
10 41 0 82 5 90 10 11 7 15 29 15 92 0 46 -3 155 -8 243 -4 88 -10 185 -13
215 -2 30 -6 103 -8 161 -2 60 -9 116 -16 130 -7 13 -19 29 -26 36 -9 9 -50
13 -136 13 -68 0 -139 3 -159 6 l-36 6 -11 192 c-7 105 -15 261 -19 346 -4
114 -11 163 -22 184 -9 16 -39 41 -66 55 -28 15 -85 35 -127 45 -43 10 -88 16
-100 13 -13 -4 -31 -20 -41 -37 -13 -22 -18 -51 -18 -103 0 -39 2 -175 4 -302
3 -126 10 -264 15 -305 6 -41 10 -76 9 -77 -1 0 -59 -3 -129 -5 -71 -2 -133
-1 -139 3 -7 4 -16 31 -20 60 -5 30 -16 133 -23 229 -8 96 -18 315 -21 485 -6
295 -6 312 12 334 14 17 41 28 104 42 46 10 107 18 134 19 28 0 68 5 90 10 22
5 166 14 320 21 179 7 299 16 333 25 29 8 56 13 60 11 4 -3 15 -2 25 2 10 4
34 5 52 3z m-677 -516 c34 -4 71 -16 92 -30 l36 -24 12 -123 c7 -68 15 -198
18 -289 3 -91 7 -185 7 -210 l2 -45 -106 -3 -107 -3 -6 43 c-3 24 -9 181 -12
350 -4 169 -4 314 0 324 5 14 15 16 64 10z m1422 -121 c67 -4 120 -11 126 -18
6 -7 19 -31 28 -55 14 -36 17 -90 18 -325 2 -217 -1 -292 -12 -325 -9 -30 -25
-51 -49 -68 -20 -13 -41 -24 -48 -24 -7 0 -15 17 -18 38 -3 20 -14 87 -25 147
-11 61 -20 117 -20 126 0 8 -12 39 -26 67 -21 42 -36 58 -75 77 -38 20 -64 25
-121 25 -40 0 -107 -6 -148 -14 -41 -8 -97 -16 -125 -18 -34 -2 -49 1 -48 8 1
7 5 85 9 173 4 89 11 164 15 166 4 3 93 7 198 9 105 1 195 6 199 11 4 4 59 4
122 0z m-659 -15 c44 0 47 -2 51 -29 2 -16 -1 -99 -8 -186 -9 -109 -17 -161
-26 -167 -7 -5 -38 -7 -68 -4 -43 4 -60 11 -77 31 -18 20 -23 38 -23 80 0 30
5 87 11 127 6 40 15 82 19 94 4 11 23 28 41 37 19 9 55 17 80 17z m-1964 -294
c108 -2 208 -9 235 -16 26 -7 53 -19 59 -26 9 -11 9 -48 3 -145 -5 -72 -5
-137 -1 -145 4 -8 6 -67 3 -132 -3 -64 -5 -127 -5 -139 -1 -21 -6 -23 -59 -23
-32 0 -62 -3 -66 -7 -4 -5 -44 -13 -89 -20 -45 -7 -112 -12 -148 -13 -42 0
-70 5 -77 13 -6 6 -17 58 -26 115 -8 56 -17 106 -20 111 -3 5 -10 62 -16 127
-7 84 -7 142 1 199 6 44 12 85 14 92 3 8 54 11 192 9z m2373 -118 c36 0 77 -2
92 -4 17 -3 35 -18 47 -37 10 -18 21 -53 24 -79 3 -25 10 -64 16 -85 5 -21 15
-70 22 -108 6 -39 10 -79 8 -90 -3 -16 -15 -21 -50 -25 -34 -4 -59 -16 -90
-42 -24 -19 -55 -57 -68 -84 -20 -40 -25 -64 -24 -129 0 -44 6 -145 13 -225 7
-80 16 -230 20 -335 4 -104 13 -251 19 -325 7 -74 10 -152 8 -172 -3 -21 -2
-38 1 -38 4 0 7 -38 6 -85 -1 -74 2 -87 21 -105 11 -11 46 -25 76 -31 29 -6
69 -14 88 -18 l34 -6 2 -245 c2 -135 10 -312 18 -395 9 -82 18 -202 21 -265 2
-63 1 -146 -2 -185 -5 -52 -11 -70 -22 -70 -8 0 -20 -4 -27 -8 -6 -4 -19 -4
-27 -1 -9 4 -37 -1 -61 -11 -25 -9 -55 -15 -67 -13 -19 2 -23 9 -21 33 2 17 5
143 7 280 4 184 1 282 -10 370 -8 66 -18 141 -22 166 -5 25 -18 62 -30 81 -12
20 -35 41 -50 47 -16 7 -68 11 -126 9 -84 -3 -99 0 -111 15 -7 11 -15 68 -20
149 -6 114 -10 137 -31 169 -17 28 -32 39 -56 43 -18 3 -76 10 -128 17 -52 7
-127 11 -166 10 l-71 -2 -7 32 c-3 17 -6 69 -6 114 0 45 5 96 11 114 l11 31
91 1 c51 1 108 1 127 0 20 -1 56 5 80 13 25 9 53 16 63 16 10 0 32 14 49 30
l30 31 -2 157 c-1 86 -2 261 -1 387 0 127 -1 244 -4 260 -3 17 -8 157 -12 312
-5 240 -4 283 9 288 7 3 63 14 123 24 61 10 139 19 175 19z m-1028 -267 c17
-2 28 -11 32 -25 3 -11 5 -131 3 -266 -3 -204 -6 -252 -21 -290 -9 -25 -20
-65 -23 -90 -3 -25 -13 -64 -23 -87 -15 -33 -24 -43 -42 -43 -13 0 -31 6 -40
14 -10 7 -22 24 -27 38 -5 14 -12 106 -16 204 -3 98 -10 222 -15 274 -5 52
-10 118 -11 145 0 28 0 67 0 87 l1 37 78 3 c42 2 89 1 104 -1z m-601 -2 c4 1
12 -5 18 -13 7 -8 15 -46 18 -84 3 -38 3 -82 -1 -96 -6 -23 -12 -26 -46 -26
-34 0 -41 4 -46 25 -3 14 -3 59 1 101 6 64 10 77 28 84 12 5 25 9 28 9z m211
-3 l123 -1 2 -75 c1 -41 7 -163 14 -270 6 -107 13 -217 14 -245 1 -27 6 -88
10 -135 6 -65 12 -90 29 -108 11 -13 33 -30 49 -38 15 -8 27 -18 27 -22 0 -4
-25 -36 -56 -72 -31 -36 -66 -87 -79 -115 -13 -27 -37 -81 -54 -119 -24 -53
-31 -82 -31 -131 0 -35 5 -98 11 -141 8 -62 8 -79 -3 -85 -7 -5 -65 -9 -129
-9 l-116 0 -6 168 c-4 92 -9 183 -11 202 -3 19 -12 96 -21 170 -9 74 -21 164
-26 200 -6 36 -13 147 -16 248 -3 100 -2 202 1 226 l7 43 68 -5 c65 -4 70 -3
85 21 13 19 15 38 11 78 -3 30 -10 78 -15 108 -6 30 -10 67 -10 81 l0 27 122
-1z m526 -2 c9 -2 73 -5 142 -7 l125 -2 7 -150 c4 -82 11 -233 16 -335 6 -102
8 -198 5 -213 l-6 -28 -81 2 c-44 0 -119 -4 -165 -11 -46 -6 -90 -9 -97 -6 -8
3 -14 19 -14 38 0 18 9 69 20 113 13 51 24 139 29 240 5 88 6 203 2 255 -4 52
-6 98 -4 102 2 3 11 4 21 2z m1084 -244 c10 0 20 -10 22 -22 3 -13 8 -102 11
-198 4 -96 8 -195 10 -220 1 -25 7 -121 14 -215 6 -93 13 -219 16 -280 2 -60
7 -132 11 -160 3 -27 6 -59 6 -70 0 -11 -3 -69 -7 -130 -4 -60 -8 -111 -9
-112 -2 -2 -34 3 -72 10 l-69 12 -2 105 c-2 58 -8 164 -14 235 -6 72 -14 209
-19 305 -4 96 -16 238 -25 315 -11 88 -15 170 -11 220 4 54 13 94 29 125 15
29 35 51 57 62 19 10 43 18 52 18z m-2012 -52 c14 1 35 -1 46 -4 19 -5 21 -12
19 -72 -2 -37 -6 -90 -10 -119 -4 -28 -4 -60 0 -70 4 -10 9 -76 12 -148 2 -71
8 -134 12 -140 5 -5 11 -53 15 -105 4 -52 8 -106 10 -120 2 -14 9 -54 16 -90
6 -36 9 -86 6 -111 -4 -25 -3 -49 1 -53 4 -4 8 -51 9 -104 1 -53 0 -105 -3
-115 -5 -18 -17 -18 -206 -13 -111 3 -236 9 -277 12 -68 5 -77 3 -95 -16 -16
-18 -19 -34 -17 -118 1 -53 5 -119 8 -146 3 -28 10 -58 15 -67 5 -10 9 -43 9
-74 0 -31 5 -66 11 -77 6 -11 12 -35 14 -52 1 -17 8 -85 14 -151 6 -66 15
-138 20 -159 5 -21 18 -48 29 -58 10 -11 34 -21 53 -24 19 -3 72 -11 119 -19
47 -7 119 -17 160 -21 41 -4 86 -8 100 -10 14 -1 105 -3 202 -3 l178 -1 6 -25
c3 -13 1 -39 -5 -57 -7 -20 -11 -132 -10 -293 0 -143 -2 -285 -5 -315 -3 -30
-12 -88 -20 -127 -8 -46 -25 -90 -45 -121 -17 -26 -42 -59 -57 -73 -14 -13
-56 -64 -93 -114 -37 -49 -75 -103 -85 -119 -10 -15 -52 -64 -94 -108 l-76
-79 -100 5 c-56 4 -119 11 -141 16 -22 5 -85 19 -140 30 -55 11 -120 24 -145
29 -25 6 -87 18 -139 26 -83 14 -97 20 -126 49 l-32 33 -7 174 c-3 96 -9 220
-12 276 -5 82 -4 109 9 135 9 18 31 55 50 81 20 28 67 71 112 103 43 30 83 54
88 54 5 0 23 12 40 26 17 15 37 43 44 63 7 20 17 61 23 91 8 41 6 109 -5 260
-8 113 -22 261 -30 330 -8 69 -17 159 -20 200 -2 41 -9 167 -15 280 -5 113
-12 276 -15 363 -2 86 0 168 4 180 5 12 51 79 102 147 51 69 101 131 112 138
10 8 42 39 72 70 30 32 66 73 82 91 l28 35 0 190 0 191 75 6 c41 3 86 6 100 7z
m945 -1332 l70 -1 2 -55 c1 -30 7 -110 12 -177 7 -85 15 -132 27 -153 l18 -29
203 3 203 3 -1 -71 c-1 -39 -1 -102 0 -141 0 -42 -7 -90 -17 -120 -10 -27 -27
-65 -37 -84 -11 -19 -46 -64 -79 -100 -32 -36 -62 -67 -66 -69 -4 -1 -10 20
-13 48 -4 28 -18 90 -33 138 -14 48 -36 110 -49 138 -16 34 -31 53 -47 57 -13
4 -39 7 -58 7 -19 0 -66 -6 -105 -13 -40 -7 -141 -12 -237 -12 -92 1 -170 3
-172 6 -3 2 -6 142 -8 309 l-3 305 125 3 c69 1 141 4 160 6 19 1 67 3 105 2z
m-1284 -10 c22 -3 133 -9 247 -12 114 -3 210 -8 215 -11 4 -2 4 -97 1 -211 -4
-114 -8 -244 -8 -290 -1 -82 0 -84 31 -112 18 -16 52 -34 75 -41 24 -6 85 -15
136 -19 50 -3 95 -9 98 -13 3 -3 7 -24 8 -46 1 -23 -1 -46 -4 -51 -4 -6 -58
-14 -121 -19 -63 -5 -118 -6 -122 -4 -5 3 -66 9 -135 14 -70 4 -136 10 -147
12 -11 3 -51 8 -90 12 -38 4 -84 12 -102 18 -18 6 -34 20 -37 31 -3 12 -6 42
-6 68 0 26 -6 67 -14 90 -7 24 -19 93 -26 153 -6 61 -18 124 -26 140 -8 17
-17 55 -21 85 -4 30 -7 78 -7 105 0 28 4 63 8 79 7 27 9 28 47 22z m1543 0
c55 -3 125 -9 154 -14 29 -5 58 -14 64 -20 6 -6 17 -49 25 -94 8 -46 16 -107
19 -137 l6 -53 -79 6 c-43 4 -118 3 -168 -3 -75 -9 -92 -8 -104 4 -11 11 -17
53 -22 157 -5 78 -5 146 -2 151 3 6 48 7 107 3z m-920 -6 c35 0 91 -3 125 -6
l62 -7 -6 -126 c-3 -69 -2 -169 3 -221 4 -52 5 -129 2 -170 l-5 -75 -80 -1
c-44 0 -100 5 -125 10 -32 8 -48 18 -57 37 -10 20 -10 83 -2 284 5 142 12 262
15 267 3 4 34 8 68 8z m1978 -120 c33 0 60 -5 64 -12 4 -6 14 -48 22 -92 8
-48 16 -192 20 -356 4 -151 7 -327 7 -390 0 -63 -2 -137 -4 -165 -2 -27 -10
-131 -17 -230 -7 -99 -16 -277 -19 -395 -4 -118 -8 -273 -10 -345 -2 -71 -7
-240 -11 -375 -3 -135 -8 -267 -9 -295 -2 -27 -6 -144 -10 -260 -3 -115 -11
-241 -16 -280 -5 -38 -12 -194 -15 -345 -3 -151 -7 -280 -9 -286 -2 -7 -18
-19 -36 -28 -22 -11 -59 -16 -118 -16 -47 0 -162 -7 -256 -15 -93 -7 -208 -15
-255 -15 -47 -1 -227 -1 -400 -1 -256 1 -324 -2 -364 -14 -27 -8 -59 -15 -70
-15 -12 -1 -31 -9 -42 -19 -12 -9 -34 -41 -49 -70 -19 -38 -28 -76 -33 -135
l-7 -81 -107 -3 -108 -3 0 39 c0 21 -7 58 -15 83 -9 24 -24 53 -33 64 -10 11
-32 28 -49 38 -17 9 -51 17 -75 17 -31 0 -68 -12 -124 -39 -46 -22 -92 -53
-108 -71 -23 -28 -27 -41 -24 -79 l3 -46 -32 3 -33 4 0 220 0 221 48 -6 c26
-3 79 -11 117 -18 39 -6 109 -13 157 -14 48 -2 104 -6 125 -10 21 -4 205 -9
408 -11 204 -1 408 2 455 7 47 5 100 12 118 16 24 4 40 15 53 37 15 24 19 50
19 116 0 47 -5 112 -11 145 -5 33 -14 87 -20 120 -5 33 -12 150 -16 260 -4
133 -10 209 -19 226 -8 17 -38 37 -86 59 -55 26 -86 34 -125 33 l-53 0 0 116
0 116 60 19 c34 10 65 26 69 35 5 9 12 41 15 71 4 30 9 172 12 315 2 143 7
411 9 595 3 184 6 373 6 419 2 67 7 93 26 130 14 25 50 73 82 106 31 33 71 78
87 100 16 22 39 55 52 74 13 19 29 68 38 115 12 60 14 114 10 209 l-7 127 28
1 c16 1 61 1 101 0 40 0 82 -5 92 -11 11 -6 26 -32 34 -63 9 -28 19 -101 24
-162 6 -60 8 -164 6 -230 -1 -66 -5 -181 -9 -255 -3 -74 -8 -150 -11 -168 -5
-32 -7 -33 -47 -31 -23 2 -65 -6 -92 -16 -28 -10 -87 -36 -133 -57 -70 -34
-86 -46 -105 -81 -22 -42 -22 -46 -21 -458 l1 -417 29 -43 c17 -24 36 -60 43
-79 8 -19 29 -55 48 -79 18 -24 33 -50 33 -56 0 -7 9 -20 20 -30 11 -10 20
-26 20 -35 0 -9 -13 -29 -30 -45 -16 -15 -34 -43 -40 -60 -6 -17 -11 -117 -12
-221 0 -104 4 -251 11 -327 6 -76 8 -143 5 -148 -3 -6 -5 -67 -5 -137 1 -70 4
-156 6 -192 4 -44 11 -69 22 -77 8 -7 36 -15 62 -19 25 -4 100 -1 166 6 66 7
128 17 138 22 13 7 17 16 13 31 -4 12 -13 54 -21 93 -8 44 -16 173 -20 335 -3
145 -8 293 -11 329 -3 36 -9 70 -13 75 -4 6 -14 26 -21 45 -7 19 -39 80 -70
135 -31 55 -60 108 -63 118 -4 11 0 31 10 48 10 16 20 29 24 29 4 0 24 25 46
56 21 30 48 72 60 92 13 20 31 53 40 72 16 31 17 71 16 380 -1 190 -6 395 -12
455 -6 61 -14 127 -17 148 -5 30 -3 37 10 37 9 0 19 6 22 14 4 11 12 13 27 7
12 -4 64 -3 115 4 59 7 99 18 109 28 9 9 20 37 24 64 4 26 8 107 8 178 1 72
-4 180 -10 240 -6 61 -11 125 -10 144 0 18 -6 93 -14 167 -10 103 -11 156 -3
236 6 57 10 118 9 137 -1 19 4 38 11 43 7 4 39 8 70 8z m-1197 -561 c28 0 55
-3 61 -7 6 -4 14 -23 17 -42 3 -19 10 -53 17 -75 7 -22 19 -82 27 -134 8 -51
12 -108 9 -125 -4 -17 -34 -67 -69 -111 l-62 -80 -2 40 c-1 22 -8 92 -14 155
-6 63 -18 144 -26 180 -8 36 -21 72 -29 81 -9 10 -25 15 -42 12 -15 -2 -88 -6
-162 -8 -74 -2 -156 -7 -182 -10 l-48 -7 0 50 c0 28 4 53 8 56 5 3 90 6 188 7
98 0 197 4 219 9 22 4 63 8 90 9z m-200 -203 l80 -1 12 -70 c6 -38 17 -148 23
-243 9 -146 8 -176 -4 -200 -8 -16 -22 -34 -30 -41 -9 -8 -16 -18 -16 -23 0
-5 -10 -23 -22 -41 -13 -18 -35 -45 -49 -62 -15 -16 -49 -73 -76 -126 l-49
-97 12 -168 c6 -93 12 -297 13 -453 0 -176 4 -288 11 -295 5 -5 57 -13 115
-16 59 -4 110 -11 115 -16 5 -5 10 -56 12 -114 l3 -105 -63 -7 c-35 -4 -125
-9 -201 -11 -76 -2 -148 0 -160 5 -12 4 -28 23 -36 43 -11 26 -15 81 -15 224
0 104 4 201 10 215 8 22 6 28 -15 42 -14 9 -22 20 -19 25 3 5 -3 9 -13 9 -9 0
-53 9 -98 19 -44 11 -131 24 -193 29 -62 5 -116 13 -120 17 -4 4 3 14 16 22
12 9 22 20 22 25 0 5 30 40 68 77 37 38 92 101 122 141 30 40 76 96 102 126
26 29 53 66 61 81 7 15 21 57 31 93 9 36 20 102 24 148 5 45 9 209 11 365 1
155 5 298 7 317 3 19 9 38 12 42 4 3 54 11 112 16 58 5 141 9 185 8z m308
-396 c1 0 1 -154 1 -343 -1 -188 -4 -434 -8 -547 -3 -113 -8 -259 -12 -326
l-6 -120 -31 -12 c-17 -6 -32 -11 -33 -9 -1 1 -7 103 -13 227 -6 124 -12 277
-13 340 -1 63 -1 234 0 379 l3 264 27 32 c15 18 40 51 55 74 16 23 29 41 30
41z m622 -124 c6 -2 16 -56 23 -122 9 -75 14 -254 15 -484 2 -341 1 -367 -17
-400 -10 -19 -46 -70 -79 -113 -33 -43 -65 -76 -71 -74 -6 2 -22 26 -36 53
-14 27 -47 84 -73 126 l-48 77 -7 173 c-4 95 -6 263 -5 372 1 110 4 214 7 232
5 22 21 44 51 69 31 25 73 45 137 65 51 15 98 27 103 26z m-815 -173 c2 -2 5
-151 6 -331 0 -180 4 -390 7 -467 3 -77 9 -170 12 -207 l5 -68 -77 6 c-43 3
-83 7 -90 9 -7 3 -10 25 -8 67 2 35 4 144 5 243 2 99 -1 254 -5 345 l-8 165
32 64 c17 35 50 90 74 121 23 32 44 56 47 53z m-955 -857 c11 -2 72 -8 135
-12 63 -5 133 -8 154 -7 22 1 52 -5 67 -13 15 -8 39 -14 54 -14 19 0 25 -5 25
-22 0 -13 2 -108 4 -213 3 -104 5 -199 6 -209 0 -10 7 -31 15 -45 7 -14 26
-38 42 -52 18 -17 44 -28 72 -32 24 -3 127 -1 229 4 102 5 187 8 188 6 1 -1 5
-69 9 -152 l7 -150 -58 -26 c-44 -19 -90 -29 -179 -38 -86 -8 -148 -9 -220 -2
-55 6 -120 16 -145 24 -32 9 -49 21 -58 41 -10 19 -13 60 -11 134 2 59 3 162
3 229 l-1 121 -35 35 c-30 30 -46 37 -104 45 -38 6 -127 9 -198 7 l-129 -2 6
81 c4 45 13 108 22 141 11 40 27 71 48 93 22 22 38 31 52 28z m1671 -379 c18
-28 34 -60 34 -69 0 -9 5 -20 11 -23 5 -4 21 -30 33 -58 13 -29 26 -65 29 -82
3 -16 9 -106 13 -200 3 -93 7 -206 9 -250 1 -44 6 -118 10 -165 4 -47 11 -95
16 -107 5 -14 4 -25 -4 -31 -7 -5 -30 -12 -52 -16 -22 -3 -65 -9 -96 -12 -42
-5 -59 -3 -65 7 -5 8 -12 113 -15 234 -3 121 -12 298 -19 393 -11 142 -11 190
-1 265 7 51 18 101 23 112 6 11 17 28 26 37 14 16 17 14 48 -35z m-1521 -44
c28 -2 61 -10 75 -16 18 -9 27 -23 32 -52 4 -22 5 -87 2 -145 -3 -58 -7 -115
-10 -128 -3 -13 -2 -57 2 -99 6 -64 12 -81 36 -109 16 -18 33 -32 38 -31 5 1
15 -6 23 -17 10 -14 35 -21 113 -29 54 -5 128 -10 164 -11 36 0 112 3 170 8
83 7 123 16 193 43 48 20 90 40 94 47 4 6 6 56 5 111 -1 55 -5 134 -8 176 l-6
76 45 7 c36 6 54 3 85 -13 21 -11 44 -26 50 -33 7 -9 11 -55 11 -119 1 -57 2
-124 5 -149 2 -25 7 -67 10 -95 4 -27 11 -68 17 -90 5 -22 11 -78 14 -125 2
-47 7 -101 9 -120 3 -21 -2 -49 -12 -69 -15 -31 -21 -35 -62 -37 -25 -1 -83
-5 -130 -9 -47 -3 -150 -6 -230 -6 -80 0 -226 2 -325 5 -99 3 -232 8 -295 11
-63 4 -144 11 -180 17 -36 5 -91 13 -122 17 -31 4 -60 9 -63 13 -4 3 -7 57 -9
120 -1 62 -8 230 -15 373 -8 165 -10 299 -4 365 l8 105 110 6 c61 3 133 4 160
2z m-377 -24 c21 1 22 -3 24 -76 1 -43 1 -87 0 -98 -1 -11 -2 -38 -2 -60 0
-22 2 -92 5 -155 3 -63 8 -171 12 -240 4 -69 7 -170 8 -225 l0 -100 -25 3
c-14 2 -26 5 -27 6 -1 1 -3 65 -3 142 -1 76 -6 155 -12 174 -6 19 -21 48 -32
64 -12 17 -36 43 -54 59 -29 27 -40 30 -105 31 l-72 1 -8 50 c-4 28 -19 100
-32 160 -13 61 -26 126 -29 145 -4 23 -1 43 8 55 12 16 42 24 168 41 84 12
163 22 176 23z m-212 -563 c32 -4 66 -9 74 -12 9 -2 23 -19 33 -36 9 -18 20
-64 23 -103 3 -38 8 -73 9 -76 2 -3 -1 -39 -6 -80 -6 -41 -11 -75 -12 -76 -1
-1 -33 4 -70 11 -37 7 -73 18 -80 25 -6 6 -12 46 -14 89 -1 42 -6 119 -9 171
l-7 94 59 -7z m-166 -6 c24 0 28 -5 33 -37 3 -21 9 -103 13 -183 7 -139 8
-146 34 -171 15 -15 45 -32 66 -38 22 -6 61 -11 88 -12 31 -2 50 -7 55 -18 5
-9 6 -115 2 -235 l-6 -220 -65 1 c-36 1 -102 8 -148 16 -58 9 -87 19 -97 33
-7 10 -24 46 -37 79 -23 59 -23 66 -20 389 l3 328 25 34 c19 24 34 34 54 34z
m400 -460 c29 0 30 -1 31 -52 1 -29 2 -118 2 -198 1 -80 -2 -157 -6 -172 -6
-23 -13 -28 -38 -28 -24 0 -30 3 -25 16 3 9 6 110 6 225 l0 209 30 0z m426
-291 c28 1 46 -5 58 -18 11 -12 19 -41 21 -79 3 -41 0 -61 -8 -64 -7 -1 -41
-3 -77 -2 -36 0 -91 1 -122 2 -58 2 -58 2 -58 33 0 20 9 38 24 52 14 12 46 34
73 49 29 16 64 27 89 27z m-438 -239 l27 0 -3 -97 c-2 -54 -4 -163 -5 -243 -2
-125 -4 -145 -18 -148 -9 -2 -19 4 -23 13 -3 8 -9 89 -12 178 -4 89 -4 192 0
230 7 64 9 67 34 67z m148 0 c26 0 34 -4 34 -18 0 -10 4 -22 9 -27 4 -6 13
-73 20 -151 6 -77 11 -180 11 -228 0 -87 0 -88 -22 -82 -13 3 -42 6 -65 6
l-42 0 4 214 c2 118 7 231 11 250 6 33 9 36 40 36z m242 -2 l117 -3 7 -95 c4
-52 12 -113 17 -135 6 -22 13 -80 16 -130 4 -64 2 -97 -7 -115 -10 -18 -27
-28 -63 -36 -28 -6 -77 -9 -110 -7 -32 2 -61 6 -63 8 -2 2 -5 85 -7 184 -2 99
-8 188 -13 198 -5 10 -10 38 -11 62 -1 24 -2 47 -3 50 0 3 0 9 1 14 0 4 54 6
119 5z m525 -18 c12 0 64 -5 116 -10 52 -6 100 -15 106 -20 7 -6 15 -32 19
-58 3 -26 15 -76 27 -112 13 -43 18 -77 14 -102 -4 -20 -13 -42 -21 -49 -9 -8
-49 -9 -130 -6 -64 4 -119 8 -121 11 -3 3 -6 31 -8 63 -2 32 -8 94 -14 138 -5
44 -10 95 -10 113 -1 27 3 32 22 32z m-777 -560 c30 0 64 -5 75 -10 17 -10 19
-22 19 -146 0 -104 -3 -139 -14 -150 -8 -8 -21 -14 -30 -14 -8 0 -19 6 -23 13
-4 7 -22 23 -39 34 -22 16 -33 34 -40 65 -5 24 -8 80 -6 126 l3 82 55 0z
m1378 -1058 c4 -2 93 -6 196 -8 104 -3 191 -1 194 4 2 4 49 5 103 1 54 -4 136
-10 183 -14 47 -3 135 -9 195 -13 61 -4 115 -11 120 -14 7 -4 12 -91 13 -240
2 -128 7 -262 13 -298 6 -37 10 -229 10 -445 0 -209 -1 -389 -1 -400 -1 -11
-1 -99 0 -195 0 -96 -2 -278 -5 -405 -4 -132 -2 -311 5 -420 6 -104 13 -267
16 -361 l6 -171 -29 -5 c-16 -2 -64 0 -108 5 -44 4 -260 10 -480 12 -275 3
-443 9 -537 20 -75 9 -149 13 -163 9 -14 -3 -25 -11 -25 -18 -1 -6 -9 -1 -20
12 -19 23 -27 24 -242 33 -123 6 -250 12 -283 14 -33 2 -130 8 -215 14 -85 7
-175 16 -200 22 -25 5 -97 15 -160 22 l-115 12 -7 85 c-3 47 -6 133 -7 191 -1
59 -5 151 -11 205 -5 55 -14 254 -20 444 -6 190 -13 408 -16 485 -3 77 -6 147
-6 155 -1 8 2 116 6 240 5 157 4 246 -4 295 -7 39 -14 124 -16 190 -2 66 -12
165 -20 220 -9 55 -17 118 -17 140 -1 22 2 69 7 105 l8 65 756 -1 c416 0 782
2 812 6 30 3 59 4 64 2z m2559 -2805 c5 -2 17 -27 27 -57 10 -30 26 -88 35
-128 9 -41 23 -113 31 -160 8 -48 18 -109 23 -137 5 -27 17 -70 27 -95 9 -25
21 -49 26 -54 4 -6 8 -22 8 -36 0 -14 9 -58 20 -98 11 -40 18 -77 15 -83 -4
-5 -15 -9 -25 -9 -10 0 -21 -4 -24 -9 -3 -5 -33 -23 -66 -40 -32 -17 -65 -31
-73 -31 -11 0 -16 28 -21 123 -4 67 -8 142 -10 167 -2 25 -9 85 -15 134 -7 49
-21 109 -32 133 -11 23 -23 43 -28 43 -5 0 -32 -10 -60 -21 -28 -12 -54 -19
-57 -16 -3 3 -10 36 -15 74 -4 37 -8 91 -9 119 0 33 5 54 13 57 6 2 39 26 71
52 32 27 75 54 95 61 20 7 40 12 44 11z m-461 -98 c10 1 22 -8 28 -18 5 -11
12 -86 15 -168 4 -81 7 -155 7 -163 1 -8 0 -27 0 -42 -2 -20 -15 -37 -49 -62
-27 -20 -55 -41 -63 -48 -8 -7 -25 -19 -38 -25 -14 -7 -26 -13 -27 -13 -2 0
-7 24 -10 53 -4 28 -12 60 -19 69 -10 14 -31 17 -107 19 -52 1 -116 -4 -144
-11 -27 -6 -65 -14 -82 -17 -28 -4 -34 -1 -41 18 -5 13 -12 56 -16 96 -6 60
-4 77 11 100 10 15 29 38 43 50 14 12 41 25 61 28 29 5 49 0 99 -25 56 -28 64
-30 84 -17 13 9 27 35 35 65 l14 50 71 22 c39 13 80 26 91 31 11 4 28 8 37 8z
m327 -359 c5 0 11 -6 14 -13 3 -8 8 -45 12 -83 4 -38 11 -76 15 -84 5 -8 11
-85 14 -171 l5 -155 -31 -12 c-18 -6 -33 -10 -35 -8 -2 2 -17 108 -33 237
l-29 234 30 28 c16 15 33 27 38 27z m-148 -106 c3 -2 9 -41 13 -86 4 -46 11
-121 17 -168 5 -47 12 -109 15 -139 5 -45 3 -57 -12 -68 -10 -7 -28 -13 -41
-13 -13 0 -47 -12 -76 -26 -29 -15 -60 -33 -69 -42 -10 -8 -20 -30 -24 -49 -4
-19 -11 -32 -17 -30 -6 2 -19 32 -28 67 -10 35 -16 66 -14 70 3 4 32 18 65 30
35 13 71 35 85 52 13 16 26 43 29 61 3 18 7 94 10 171 4 116 8 141 23 156 10
10 21 16 24 14z m-139 -64 c3 0 4 -62 1 -137 -3 -82 -10 -143 -17 -149 -6 -7
-33 -21 -59 -32 l-48 -21 -10 27 c-6 15 -16 66 -22 113 l-11 87 30 26 c16 14
32 26 36 26 4 0 27 13 50 30 24 16 46 30 50 30z m-251 -170 c4 0 10 -4 13 -8
3 -5 7 -40 10 -79 3 -38 8 -77 11 -85 4 -9 0 -18 -10 -22 -12 -4 -20 3 -29 27
-8 17 -17 56 -21 85 -5 36 -3 57 5 67 7 8 16 15 21 15z m611 -264 c4 -6 8 -41
8 -77 l0 -66 -37 -6 c-20 -4 -39 -5 -41 -2 -2 2 -7 33 -9 68 l-5 64 38 15 c29
12 41 13 46 4z m-939 -111 c21 -1 42 -6 47 -11 5 -5 13 -52 19 -104 6 -52 15
-111 21 -130 5 -19 10 -38 10 -41 0 -4 -30 -12 -66 -19 -45 -9 -69 -9 -76 -2
-6 6 -19 50 -29 99 -11 48 -22 104 -25 124 -4 20 -1 45 5 57 6 11 21 23 33 25
13 3 40 3 61 2z m537 -128 c14 -18 20 -41 20 -79 1 -29 5 -73 11 -98 5 -25 11
-56 13 -70 2 -14 7 -40 11 -57 5 -24 4 -34 -6 -36 -8 -2 -30 -10 -49 -16 -19
-7 -75 -22 -125 -33 -49 -10 -106 -22 -127 -25 -30 -4 -39 -1 -51 19 -8 12
-20 47 -26 76 -6 29 -11 66 -11 81 0 26 5 30 49 41 27 6 57 20 67 31 10 11 30
19 49 19 19 0 57 15 94 37 l61 36 0 50 0 50 20 -26z"/>
<g>
<path d="M8960 17568 c-48 4 -52 3 -85 -32 -26 -28 -35 -46 -35 -72 0 -19 7
-46 16 -59 9 -14 32 -29 51 -34 20 -6 48 -7 64 -4 15 3 36 14 45 25 11 12 19
40 21 76 3 40 -1 63 -11 76 -10 12 -32 21 -66 24z"/>
</g>
<g>
<path d="M3656 15080 c-17 -1 -49 -13 -71 -28 -22 -15 -44 -39 -49 -53 -5 -14
-6 -43 -2 -64 5 -24 20 -51 41 -72 22 -22 42 -33 62 -33 15 1 46 13 68 28 24
17 43 40 48 59 5 17 6 48 2 69 -4 22 -19 49 -37 66 -20 19 -41 28 -62 28z"/>
</g>
<g>
<path d="M4203 14680 c-10 0 -26 -7 -36 -15 -10 -7 -23 -31 -29 -52 -5 -21
-14 -58 -19 -83 -5 -25 -18 -63 -28 -85 -11 -22 -29 -80 -41 -130 -13 -49 -29
-121 -36 -160 -7 -38 -20 -101 -28 -140 -8 -38 -21 -97 -30 -130 -8 -33 -25
-88 -37 -123 -18 -48 -21 -67 -13 -80 6 -9 15 -17 20 -17 5 -1 19 -4 31 -8 14
-5 39 -1 70 11 26 11 97 27 158 36 60 9 112 20 116 24 4 4 9 24 12 44 5 30 2
40 -12 48 -10 5 -21 7 -24 4 -3 -3 -36 -7 -74 -9 -37 -1 -94 -12 -125 -23
l-58 -20 0 21 c0 12 9 51 19 87 11 36 24 90 30 120 6 30 18 91 27 135 9 44 23
102 30 128 8 26 23 87 34 135 10 48 28 112 38 143 11 32 21 68 22 80 1 13 2
32 1 42 -1 9 -9 17 -18 17z"/>
</g>
<g>
<path d="M4267 13228 c-56 -1 -147 -5 -202 -9 -55 -5 -122 -11 -150 -14 -27
-4 -75 -2 -105 2 -30 5 -68 6 -84 3 -16 -3 -33 -12 -39 -21 -5 -9 -7 -28 -3
-42 5 -20 13 -27 31 -27 13 0 26 -3 28 -7 3 -5 76 -5 164 0 87 4 230 8 318 9
90 1 188 -3 225 -10 36 -6 106 -14 155 -18 50 -3 110 -5 134 -4 25 0 49 3 53
6 5 3 8 16 6 27 -1 12 1 27 5 34 4 6 5 18 2 26 -5 11 -44 15 -193 20 -103 3
-200 11 -216 16 -15 6 -73 10 -129 9z"/>
</g>
</g>
</g>
</svg>
