<?xml version="1.0" standalone="no"?>
<!DOCTYPE svg PUBLIC "-//W3C//DTD SVG 20010904//EN"
 "http://www.w3.org/TR/2001/REC-SVG-20010904/DTD/svg10.dtd">
<svg version="1.0" xmlns="http://www.w3.org/2000/svg"
 width="861.000000pt" height="550.000000pt" viewBox="0 0 861.000000 550.000000"
 preserveAspectRatio="xMidYMid meet">
<metadata>
Created by potrace 1.16, written by Peter Selinger 2001-2019
</metadata>
<g transform="translate(0.000000,550.000000) scale(0.100000,-0.100000)"
fill="#000000" stroke="none">
<g>
<path d="M5610 4403 c-63 1 -148 -1 -188 -5 -40 -4 -93 -14 -118 -23 -25 -8
-54 -15 -64 -15 -11 0 -28 -4 -38 -9 -9 -5 -42 -16 -72 -26 -30 -10 -65 -24
-77 -31 -12 -8 -43 -14 -68 -14 -35 0 -58 -8 -99 -34 -30 -19 -57 -39 -60 -45
-4 -6 -27 -20 -53 -31 -25 -11 -50 -20 -55 -20 -6 0 -29 -14 -52 -32 -22 -18
-48 -39 -57 -47 -9 -9 -48 -45 -88 -81 -39 -36 -71 -69 -71 -75 0 -6 -16 -34
-35 -62 -19 -29 -35 -58 -35 -66 0 -7 -4 -17 -9 -23 -4 -5 -24 -38 -43 -74
-20 -36 -39 -84 -43 -107 -3 -23 -13 -47 -21 -53 -7 -7 -16 -28 -19 -49 -4
-20 -12 -47 -19 -61 -8 -14 -17 -41 -21 -60 -4 -19 -11 -41 -15 -50 -4 -8 -15
-33 -25 -55 -10 -22 -26 -67 -36 -100 -10 -33 -19 -69 -19 -80 0 -11 -12 -49
-26 -85 -15 -36 -37 -89 -50 -118 -13 -29 -31 -81 -40 -115 -9 -34 -22 -75
-29 -92 -7 -16 -18 -46 -23 -65 -6 -19 -19 -60 -31 -90 -11 -30 -31 -75 -44
-100 -14 -25 -41 -74 -61 -110 -19 -36 -36 -75 -36 -87 0 -12 -21 -50 -48 -85
-26 -35 -60 -84 -75 -110 -15 -26 -51 -78 -79 -115 -28 -38 -65 -84 -82 -104
-17 -20 -44 -53 -61 -74 -16 -21 -45 -52 -64 -69 -19 -17 -41 -38 -50 -47 -9
-8 -32 -22 -51 -29 -19 -8 -56 -26 -81 -42 -25 -15 -78 -38 -118 -52 -40 -14
-80 -31 -90 -40 -9 -8 -27 -16 -41 -18 -14 -2 -31 -7 -37 -11 -7 -5 -13 -6
-13 -3 0 3 -21 -1 -47 -9 -27 -8 -89 -15 -138 -15 -68 0 -104 5 -145 21 -30
12 -65 23 -78 26 -12 3 -22 8 -22 12 0 4 -21 13 -47 21 -33 9 -65 30 -100 64
-29 28 -55 63 -59 78 -5 25 -3 27 38 38 23 5 86 27 138 46 52 20 116 47 141
60 26 13 54 24 63 24 9 0 16 4 16 9 0 5 14 13 32 16 17 4 61 27 97 51 36 24
101 73 144 108 43 36 108 102 144 148 37 46 85 115 108 153 23 39 57 102 77
140 19 39 44 104 56 145 12 41 29 116 39 165 13 67 17 129 16 244 -1 91 -6
158 -13 165 -5 5 -10 19 -10 30 0 11 -9 38 -19 60 -11 23 -26 62 -35 87 -8 26
-24 63 -36 84 -12 21 -37 59 -55 84 -19 25 -49 64 -67 86 -18 21 -49 56 -69
76 -20 20 -40 46 -44 58 -3 12 -24 30 -45 41 -21 11 -42 24 -45 30 -4 6 -46
29 -93 51 -48 22 -107 50 -132 62 -25 12 -47 25 -50 28 -3 3 -39 17 -80 32
-48 17 -116 30 -190 38 -63 6 -155 14 -205 19 -49 4 -133 6 -185 3 -52 -3
-124 -14 -160 -24 -36 -11 -87 -28 -115 -38 -27 -10 -97 -33 -155 -51 -58 -17
-152 -55 -210 -83 -58 -29 -130 -71 -160 -95 -30 -23 -79 -62 -108 -85 -30
-23 -71 -60 -92 -82 -21 -22 -64 -72 -97 -112 -32 -40 -76 -96 -98 -124 -22
-29 -52 -64 -66 -78 -15 -15 -38 -50 -53 -78 -14 -29 -26 -61 -26 -72 0 -11
-4 -23 -10 -26 -5 -3 -9 -16 -9 -28 1 -12 -6 -40 -16 -61 -9 -22 -19 -49 -21
-60 -3 -12 -8 -37 -11 -56 -3 -19 -12 -47 -19 -61 -8 -17 -14 -69 -15 -140 0
-63 2 -143 7 -179 4 -36 13 -74 20 -85 8 -11 14 -29 14 -41 0 -11 7 -35 16
-52 8 -18 19 -34 24 -37 5 -3 14 -23 20 -43 5 -20 23 -53 40 -72 16 -19 30
-38 30 -42 0 -4 16 -29 36 -55 20 -27 66 -71 103 -100 36 -29 93 -65 127 -81
33 -16 70 -39 82 -52 11 -12 25 -20 30 -16 5 3 22 -8 37 -24 16 -17 34 -30 41
-30 7 0 50 -18 96 -39 56 -27 114 -45 178 -56 52 -9 106 -18 120 -21 14 -3 57
-7 95 -8 39 -2 110 -9 160 -16 67 -9 105 -10 155 -1 36 6 84 12 107 15 30 3
43 0 47 -11 3 -8 6 -28 6 -44 0 -16 4 -29 9 -29 5 0 41 -29 81 -65 40 -36 87
-72 104 -79 17 -7 45 -19 61 -26 17 -8 32 -14 35 -15 3 0 16 -7 30 -14 14 -8
55 -20 93 -27 37 -7 107 -13 155 -13 56 0 114 8 162 21 41 11 102 33 136 49
34 16 68 29 76 29 9 0 21 6 27 14 6 7 26 16 43 20 17 3 60 22 96 42 35 20 88
57 117 83 29 25 71 61 94 79 23 18 67 64 99 101 31 37 65 78 74 89 10 12 26
38 38 59 11 21 26 47 33 58 6 11 32 49 57 85 25 36 61 97 80 135 19 39 62 117
96 175 34 58 65 121 69 140 4 19 13 44 20 55 6 11 35 88 63 170 28 83 54 175
57 205 4 30 15 66 25 80 9 14 23 43 30 65 7 22 18 49 25 60 6 11 15 31 18 45
3 14 15 50 26 80 11 30 36 100 56 155 20 55 39 109 42 120 3 11 19 58 36 105
17 47 39 96 49 109 10 13 18 29 18 36 0 7 27 49 60 93 32 44 74 90 92 103 18
13 44 32 57 43 12 12 31 28 40 36 9 8 38 30 63 48 26 17 49 32 53 32 3 0 26
14 51 31 24 16 72 39 107 50 34 11 71 24 82 28 11 5 65 23 120 41 55 17 152
38 215 46 75 10 148 13 210 8 52 -3 102 -6 110 -6 8 0 42 -9 75 -20 33 -12 69
-27 80 -35 11 -7 27 -13 36 -13 9 0 23 -7 30 -17 8 -9 30 -23 50 -32 19 -9 49
-28 66 -42 17 -15 48 -59 67 -99 20 -40 36 -76 36 -80 0 -4 -19 -11 -42 -15
-24 -4 -47 -7 -51 -6 -5 1 -20 -5 -35 -14 -15 -8 -56 -26 -91 -40 -35 -13 -98
-31 -140 -39 -42 -8 -87 -20 -101 -26 -14 -6 -42 -20 -62 -33 -20 -12 -79 -52
-131 -89 -52 -37 -125 -100 -161 -140 -36 -40 -75 -93 -87 -118 -12 -25 -26
-52 -31 -60 -4 -8 -19 -37 -32 -65 -14 -27 -32 -81 -42 -120 -9 -38 -20 -77
-24 -85 -4 -8 -15 -53 -24 -100 -9 -47 -16 -133 -16 -192 0 -84 4 -118 20
-158 11 -28 20 -57 20 -65 0 -8 14 -37 30 -65 17 -28 30 -59 30 -70 0 -10 13
-31 28 -47 16 -15 41 -47 55 -70 15 -23 54 -71 88 -107 34 -36 66 -66 71 -66
5 0 26 -13 46 -29 20 -16 47 -32 60 -36 12 -3 22 -11 22 -16 0 -5 8 -9 18 -9
9 0 42 -16 72 -36 30 -20 71 -38 90 -41 19 -3 54 -19 78 -35 24 -15 48 -25 54
-22 5 4 20 2 31 -4 12 -6 54 -15 92 -22 39 -6 84 -13 100 -14 17 -2 89 -6 160
-10 117 -7 136 -6 195 14 36 11 95 25 131 30 36 5 92 16 125 24 32 8 88 23
124 34 36 11 83 29 105 41 22 12 60 33 85 48 25 14 73 45 107 69 34 24 71 44
82 44 12 0 21 6 21 14 0 7 13 30 29 50 17 21 36 51 43 67 7 16 21 32 30 35 10
3 18 9 18 14 0 5 11 21 24 37 14 16 31 47 39 69 8 21 20 59 28 84 7 25 19 53
28 63 8 10 18 41 22 70 5 29 15 106 22 172 8 66 13 165 11 221 -1 55 -10 120
-18 145 -8 24 -17 58 -21 75 -3 18 -25 57 -48 88 -23 30 -52 70 -64 88 -12 18
-31 50 -42 70 -12 20 -53 63 -92 95 -39 32 -86 70 -105 85 -20 15 -57 34 -82
43 -26 9 -60 23 -77 30 -16 8 -50 20 -75 26 -25 7 -54 18 -65 25 -11 6 -40 15
-65 18 -25 4 -70 15 -100 26 -30 10 -91 21 -135 25 -44 3 -118 5 -165 5 l-85
-1 -22 49 c-13 28 -23 57 -23 65 0 8 -16 39 -36 68 -20 30 -50 69 -67 87 -17
17 -36 32 -42 32 -7 0 -20 9 -30 20 -10 11 -25 20 -33 20 -8 0 -31 13 -51 29
-20 15 -49 35 -66 43 -16 9 -46 19 -65 24 -19 4 -39 8 -45 9 -5 0 -26 4 -45 8
-19 4 -87 8 -150 10z m-3482 -519 c57 -3 156 -12 220 -20 64 -8 122 -20 129
-26 8 -6 30 -12 51 -14 21 -2 103 -36 192 -80 140 -70 161 -83 227 -151 40
-42 73 -78 73 -81 0 -3 17 -26 37 -51 21 -25 41 -47 45 -49 5 -2 8 -8 8 -14 0
-5 11 -24 24 -41 14 -18 32 -52 41 -77 9 -25 23 -67 32 -95 8 -27 22 -68 31
-90 11 -28 17 -84 19 -180 2 -82 -1 -157 -8 -180 -6 -22 -17 -55 -25 -73 -8
-18 -14 -39 -14 -48 0 -8 -15 -46 -34 -84 -19 -37 -37 -79 -41 -92 -4 -13 -27
-54 -51 -91 -24 -37 -44 -70 -44 -73 0 -3 -27 -40 -59 -82 -32 -42 -80 -97
-105 -122 -25 -24 -46 -49 -46 -56 0 -6 -17 -18 -37 -27 -21 -9 -65 -32 -98
-51 -33 -19 -97 -53 -142 -75 -44 -23 -84 -41 -88 -41 -3 0 -30 -10 -58 -23
-29 -13 -74 -31 -102 -40 -27 -9 -68 -21 -90 -26 -22 -6 -71 -15 -110 -21 -38
-6 -101 -15 -140 -20 -59 -7 -71 -6 -81 8 -10 14 -32 17 -111 19 -54 1 -150 4
-215 6 -93 4 -132 11 -195 33 -43 15 -100 40 -126 56 -26 15 -57 28 -67 28
-11 0 -20 3 -20 8 0 4 -8 12 -18 17 -10 6 -45 28 -77 50 -32 22 -65 45 -74 50
-9 6 -44 34 -77 62 -34 29 -69 67 -77 85 -9 18 -31 49 -48 68 -18 19 -45 62
-60 95 -16 33 -35 71 -43 85 -8 14 -21 59 -30 100 -9 43 -16 121 -16 181 0 66
6 127 15 160 9 30 30 99 47 154 18 55 41 116 52 135 11 19 42 62 68 94 27 33
48 65 48 70 0 6 33 45 73 86 39 42 108 109 153 151 44 41 105 92 135 114 30
22 56 43 57 47 2 5 12 8 23 8 10 0 29 11 41 25 12 14 32 25 44 25 12 0 64 16
114 35 50 19 98 35 106 35 9 0 40 11 70 25 30 14 61 25 69 25 8 0 33 7 55 16
22 9 81 22 132 29 54 8 137 12 196 9z m4342 -37 c41 -5 113 -18 160 -29 47
-11 123 -33 170 -48 47 -16 99 -33 115 -40 17 -7 53 -22 80 -33 28 -12 79 -45
115 -73 36 -29 81 -69 101 -90 19 -22 54 -63 77 -92 23 -30 55 -83 72 -119 17
-35 38 -97 46 -136 11 -49 16 -116 14 -211 -1 -86 -6 -154 -15 -178 -7 -21
-11 -48 -8 -58 3 -11 -11 -53 -31 -96 -20 -42 -34 -80 -31 -84 3 -5 0 -12 -5
-15 -6 -4 -15 -17 -21 -28 -5 -12 -13 -29 -17 -37 -5 -8 -14 -25 -20 -37 -7
-12 -9 -29 -6 -38 3 -8 2 -15 -2 -15 -5 0 -26 -16 -47 -35 -21 -19 -43 -35
-48 -35 -6 0 -40 -27 -76 -59 -37 -33 -78 -62 -91 -66 -14 -3 -38 -15 -53 -26
-15 -10 -32 -19 -38 -19 -5 0 -14 -6 -18 -13 -4 -7 -21 -18 -36 -25 -15 -6
-39 -12 -52 -12 -13 0 -27 -5 -30 -10 -4 -6 -12 -10 -18 -9 -7 1 -30 -1 -52
-5 -22 -5 -60 -15 -85 -23 -25 -9 -58 -15 -74 -14 -15 1 -33 -3 -40 -7 -6 -5
-27 -13 -46 -17 -19 -4 -87 -8 -150 -8 -63 -1 -142 3 -175 7 -33 5 -71 8 -85
8 -14 0 -30 4 -36 9 -6 5 -31 10 -55 10 -24 1 -55 7 -69 14 -14 7 -42 20 -63
29 -21 9 -46 16 -57 16 -10 0 -22 5 -25 10 -4 6 -21 17 -38 25 -18 8 -54 28
-82 43 -27 16 -68 41 -89 56 -21 14 -43 26 -47 26 -5 0 -28 21 -51 46 -24 26
-55 65 -70 88 -16 22 -28 44 -28 48 0 3 18 9 41 13 22 4 49 16 59 28 11 11 27
40 37 65 15 40 15 47 2 71 -8 14 -24 27 -34 28 -11 1 -42 5 -69 9 -48 7 -49 6
-81 -32 l-33 -39 -21 25 c-11 14 -23 36 -26 50 -3 14 -9 37 -14 52 -5 15 -5
75 -1 135 5 59 13 137 18 173 6 36 20 92 32 125 12 33 26 74 30 90 5 17 21 59
36 95 14 35 37 80 49 100 13 19 43 54 66 76 24 23 65 57 90 75 25 19 56 41 69
49 12 8 35 25 49 36 14 12 46 31 71 42 25 12 65 27 90 35 25 8 65 20 90 27 25
8 49 17 54 22 6 4 18 8 29 8 10 0 39 10 65 21 39 18 73 23 202 28 85 3 189 2
230 -2z"/>
<g>
<path d="M2828 3610 c-15 0 -37 -9 -47 -19 -11 -11 -23 -40 -26 -64 -4 -27 -2
-53 4 -66 7 -11 18 -21 26 -21 7 0 20 -6 28 -14 9 -10 28 -12 59 -9 37 4 48
11 63 36 10 17 19 44 21 61 1 17 -3 37 -9 44 -6 7 -29 22 -51 33 -22 10 -52
19 -68 19z"/>
</g>
<g>
<path d="M1904 3330 c-11 0 -36 -10 -55 -23 -23 -15 -36 -34 -42 -60 -6 -25
-5 -47 2 -66 7 -15 27 -35 47 -44 19 -10 49 -17 67 -17 22 0 45 11 71 33 39
33 39 33 30 83 -8 45 -13 51 -54 72 -24 12 -54 22 -66 22z"/>
</g>
<g>
<path d="M2566 3220 c-18 0 -36 -3 -39 -7 -4 -3 -7 -18 -7 -33 0 -21 27 -55
120 -150 92 -95 117 -127 108 -137 -6 -7 -20 -13 -32 -13 -12 0 -27 -5 -34
-12 -7 -7 -12 -26 -12 -43 0 -18 8 -39 18 -48 10 -10 32 -17 49 -17 17 0 36 7
44 16 7 8 40 28 74 44 l61 29 -1 44 c-1 24 -4 48 -7 53 -4 5 -29 18 -57 29
-28 11 -51 24 -51 31 0 6 -45 56 -100 112 -87 88 -105 102 -134 102z"/>
</g>
<g>
<path d="M2993 2656 c-15 1 -41 -4 -58 -11 -16 -7 -68 -25 -115 -40 -47 -14
-96 -28 -110 -29 -14 -2 -42 -15 -63 -29 -21 -14 -59 -29 -85 -33 -26 -4 -64
-15 -84 -25 -34 -18 -37 -22 -31 -52 3 -17 10 -40 15 -49 4 -9 25 -22 45 -27
20 -6 41 -7 47 -4 6 4 17 15 24 25 7 10 18 18 24 18 5 0 24 6 41 14 18 7 46
19 62 26 17 7 73 28 125 47 52 19 106 37 120 41 14 4 40 16 58 27 18 11 35 30
39 43 3 15 0 30 -10 39 -9 9 -28 17 -44 19z"/>
</g>
<g>
<path d="M6040 3489 c-19 0 -57 -7 -85 -15 -27 -8 -97 -21 -155 -29 -58 -9
-147 -22 -199 -30 -52 -8 -101 -20 -108 -28 -10 -10 -11 -20 -4 -40 6 -16 21
-29 37 -33 14 -4 51 -4 82 0 32 3 102 11 157 16 55 6 123 17 150 25 28 7 66
13 85 14 19 0 40 -5 47 -11 10 -8 19 -3 36 18 12 16 22 42 22 59 1 16 -6 35
-15 42 -8 7 -31 12 -50 12z"/>
</g>
<g>
<path d="M5737 3143 c-8 3 -20 1 -28 -4 -8 -5 -22 -9 -31 -9 -9 0 -28 -11 -42
-25 -19 -19 -36 -25 -67 -25 l-41 0 6 -34 c5 -27 3 -37 -11 -45 -17 -10 -16
-12 7 -31 14 -11 30 -20 37 -20 6 0 20 -15 32 -32 11 -18 26 -42 33 -53 7 -11
24 -37 37 -58 14 -21 37 -45 52 -52 25 -13 29 -12 53 10 14 13 26 28 26 32 0
5 -12 26 -27 48 -15 22 -44 62 -65 88 -21 27 -38 54 -38 61 0 7 25 26 55 41
30 16 55 35 55 42 0 7 -4 13 -9 13 -5 0 -12 11 -15 24 -3 13 -12 26 -19 29z"/>
</g>
<g>
<path d="M6249 2880 c-15 0 -36 -11 -51 -27 -14 -16 -33 -45 -43 -65 -9 -20
-15 -47 -13 -59 2 -12 15 -31 30 -42 15 -11 47 -23 73 -27 25 -4 48 -3 51 2 3
5 13 6 22 4 11 -4 27 6 44 28 15 19 30 52 34 75 6 35 3 43 -21 65 -15 14 -44
30 -64 36 -20 5 -48 10 -62 10z"/>
</g>
</g>
</g>
</svg>
