<?xml version="1.0" standalone="no"?>
<!DOCTYPE svg PUBLIC "-//W3C//DTD SVG 20010904//EN"
 "http://www.w3.org/TR/2001/REC-SVG-20010904/DTD/svg10.dtd">
<svg version="1.0" xmlns="http://www.w3.org/2000/svg"
 width="1224.000000pt" height="1107.000000pt" viewBox="0 0 1224.000000 1107.000000"
 preserveAspectRatio="xMidYMid meet">
<metadata>
Created by potrace 1.16, written by Peter Selinger 2001-2019
</metadata>
<g transform="translate(0.000000,1107.000000) scale(0.100000,-0.100000)"
fill="#000000" stroke="none">
<g>
<path d="M2905 9847 c-88 0 -180 -4 -205 -8 -25 -5 -54 -10 -65 -12 -11 -2
-51 -10 -90 -17 -38 -6 -85 -16 -102 -22 -18 -5 -33 -14 -33 -19 0 -5 -9 -9
-20 -9 -11 0 -38 -11 -60 -25 -22 -14 -47 -37 -57 -52 -10 -16 -23 -34 -30
-40 -6 -7 -14 -13 -17 -13 -3 0 -15 -10 -28 -22 -13 -13 -43 -50 -68 -83 -25
-33 -49 -63 -54 -66 -5 -4 -15 -24 -22 -45 -8 -22 -14 -48 -14 -58 0 -11 -10
-30 -21 -42 -13 -14 -23 -41 -26 -71 -3 -26 -9 -53 -14 -59 -5 -6 -13 -53 -19
-105 -6 -52 -11 -135 -12 -185 0 -50 8 -129 17 -175 9 -46 27 -111 40 -144 13
-33 27 -71 31 -85 4 -14 17 -41 29 -60 12 -19 32 -56 44 -82 16 -34 40 -60 89
-96 37 -27 99 -65 137 -85 39 -19 100 -45 137 -56 37 -11 104 -23 150 -26 46
-3 106 -11 134 -17 l51 -10 6 -113 c4 -61 12 -136 18 -166 6 -30 12 -112 14
-184 2 -71 7 -160 11 -197 5 -55 4 -68 -7 -69 -8 -1 -18 -1 -23 0 -4 1 -19 -5
-32 -14 -22 -14 -24 -14 -24 1 0 13 -6 15 -27 10 -16 -4 -46 -9 -68 -13 -22
-3 -45 -10 -52 -15 -7 -6 -19 -6 -30 0 -10 5 -49 9 -88 7 -45 -1 -77 3 -91 12
-16 10 -33 11 -73 3 -29 -5 -57 -12 -62 -15 -5 -4 -9 -19 -9 -36 0 -16 9 -38
20 -49 15 -15 18 -25 11 -43 -5 -12 -9 -50 -10 -85 0 -34 -11 -106 -25 -159
-13 -54 -29 -147 -36 -208 -6 -60 -13 -130 -15 -155 -1 -25 -7 -84 -12 -131
-6 -47 -13 -90 -16 -96 -4 -6 -7 -106 -8 -224 -1 -119 2 -225 8 -239 5 -14 8
-63 7 -109 -3 -59 1 -92 12 -112 8 -16 23 -29 33 -29 10 0 32 5 50 11 25 9 31
17 31 39 0 15 -6 63 -14 106 -8 44 -15 86 -15 94 -1 8 -3 119 -5 245 -1 127 1
240 5 252 5 13 10 64 13 115 3 51 12 140 20 198 9 58 18 124 22 148 3 23 9 42
13 42 5 0 13 -28 19 -62 6 -35 16 -97 22 -138 9 -55 9 -83 1 -103 -6 -16 -9
-32 -6 -36 2 -4 7 -34 10 -66 3 -32 8 -62 12 -68 3 -5 7 -44 9 -86 1 -42 7
-129 12 -194 6 -65 15 -123 20 -130 5 -7 13 -59 16 -117 4 -58 13 -141 21
-185 7 -44 18 -141 24 -215 6 -74 13 -198 15 -275 3 -77 13 -205 24 -285 10
-80 20 -174 21 -210 1 -36 5 -99 9 -141 4 -41 4 -158 0 -259 -4 -101 -5 -187
-2 -192 3 -4 9 -85 15 -180 5 -95 14 -202 19 -238 5 -36 13 -103 19 -150 6
-47 13 -134 16 -195 4 -60 10 -123 15 -140 5 -16 14 -68 19 -115 5 -47 10 -94
10 -105 0 -11 5 -101 11 -200 7 -99 17 -191 24 -205 6 -14 13 -59 14 -100 l3
-75 -63 -28 c-35 -15 -70 -27 -78 -27 -8 0 -30 -9 -48 -20 -21 -13 -50 -20
-83 -20 -43 0 -57 -5 -86 -30 -18 -16 -45 -30 -58 -30 -17 0 -29 -9 -40 -30
-8 -16 -15 -37 -15 -48 0 -10 10 -28 23 -40 13 -12 34 -22 48 -22 14 0 29 4
34 9 6 5 27 19 48 30 21 12 44 21 51 21 7 0 21 9 31 20 10 12 39 30 64 41 25
11 66 22 91 25 25 3 70 9 100 15 30 6 65 13 78 15 12 3 27 16 32 29 6 16 6 42
-1 72 -6 27 -14 73 -18 103 -5 30 -16 73 -26 95 -10 22 -19 51 -20 65 -2 14
-6 108 -10 210 -4 102 -12 191 -18 197 -5 7 -13 54 -17 105 -5 51 -13 120 -19
153 -5 33 -13 98 -16 145 -3 47 -11 112 -16 145 -6 33 -12 105 -14 160 -3 55
-8 111 -12 125 -3 14 -9 36 -11 50 -3 14 -6 180 -6 370 -1 190 -7 395 -13 455
-6 61 -11 121 -11 135 -1 14 -3 40 -6 58 -2 18 -9 45 -14 60 -6 15 -13 108
-17 207 -3 99 -6 193 -6 208 0 16 -6 63 -14 105 -8 43 -15 83 -15 90 0 6 7 12
15 12 8 0 15 -4 15 -9 0 -5 7 -12 16 -15 10 -4 44 -11 78 -16 34 -6 84 -15
111 -20 28 -6 79 -15 115 -20 36 -5 106 -14 155 -19 50 -5 131 -12 180 -16 50
-3 95 -11 100 -16 6 -6 11 -58 12 -117 1 -59 4 -163 6 -232 3 -69 5 -147 4
-175 0 -27 0 -59 0 -70 0 -11 8 -83 17 -160 10 -77 22 -153 28 -170 6 -16 12
-82 13 -145 1 -64 4 -121 8 -127 4 -6 10 -69 13 -140 3 -70 10 -148 16 -173 5
-25 12 -65 14 -90 2 -25 9 -74 15 -110 6 -36 12 -141 14 -233 2 -93 9 -185 16
-204 6 -19 9 -56 6 -82 -4 -25 1 -93 9 -151 9 -58 22 -128 30 -156 8 -28 16
-79 17 -115 2 -35 6 -69 10 -76 4 -6 11 -74 17 -150 5 -76 16 -165 25 -198 9
-33 17 -76 18 -95 0 -19 -2 -46 -6 -60 -5 -19 -29 -36 -109 -75 -56 -27 -120
-65 -142 -83 -23 -17 -52 -43 -66 -57 -14 -14 -30 -25 -37 -25 -6 0 -21 -13
-32 -29 -12 -16 -21 -35 -21 -43 0 -8 10 -24 23 -36 12 -11 34 -24 49 -27 23
-6 34 0 76 44 27 28 55 51 61 51 7 0 22 9 33 20 12 11 63 40 114 65 55 27 105
45 126 45 21 0 41 7 50 18 14 15 14 27 2 102 -7 47 -17 105 -23 130 -5 25 -16
86 -24 135 -8 50 -20 169 -27 265 -7 96 -17 180 -22 187 -5 6 -14 35 -19 65
-6 29 -14 82 -19 118 -5 36 -13 105 -19 154 -5 48 -10 160 -10 247 -1 87 -6
182 -12 211 -6 29 -12 64 -14 78 -1 14 -8 70 -14 125 -6 55 -13 111 -16 125
-2 14 -9 72 -15 130 -6 58 -13 132 -16 165 -2 33 -9 105 -15 160 -5 55 -17
147 -26 205 -8 58 -19 161 -23 230 -5 69 -10 204 -13 300 -2 96 0 186 5 200 5
13 14 28 20 31 7 5 5 22 -8 54 -14 38 -18 78 -18 189 -1 78 3 201 7 275 5 74
10 138 13 142 2 4 4 49 5 101 0 51 5 122 9 158 5 36 11 101 14 145 3 44 8 137
12 206 3 69 9 131 14 138 4 7 6 -11 5 -39 -1 -29 4 -73 12 -99 7 -25 13 -64
13 -86 -1 -22 4 -58 10 -80 7 -22 18 -69 24 -105 7 -36 20 -81 28 -101 11 -25
14 -56 11 -105 -3 -38 0 -94 6 -124 5 -30 13 -66 16 -80 3 -14 8 -74 11 -135
3 -60 8 -121 11 -135 4 -14 7 -38 8 -55 1 -16 2 -40 3 -52 1 -14 17 -33 40
-48 32 -21 44 -24 65 -16 18 7 27 18 27 32 0 12 -5 40 -11 63 -6 22 -14 57
-19 76 -5 19 -16 80 -24 135 -9 56 -16 122 -16 147 0 26 -6 75 -14 110 -8 35
-17 86 -20 113 -3 28 -12 100 -21 160 -8 61 -20 123 -25 139 -6 16 -10 52 -10
80 0 28 -6 71 -14 96 -8 25 -20 97 -26 160 -7 63 -19 139 -27 168 -8 29 -23
61 -34 71 -14 13 -18 26 -14 42 3 13 0 32 -7 41 -11 15 -22 17 -78 10 -36 -4
-90 -4 -120 0 -30 4 -93 12 -140 17 -51 5 -113 5 -154 -1 -44 -6 -72 -6 -78 0
-6 6 -14 45 -19 88 -5 44 -10 111 -10 149 1 39 -6 124 -14 190 -7 66 -15 158
-17 205 l-3 85 46 6 c25 4 54 12 65 17 10 6 51 22 89 35 39 13 102 34 140 46
39 12 88 31 110 41 22 10 59 38 83 62 23 23 68 70 100 103 32 33 68 76 80 95
12 20 39 72 61 116 22 43 45 108 51 144 7 36 16 90 22 120 5 31 7 106 4 169
-4 63 -13 140 -21 173 -9 32 -41 111 -72 175 -36 77 -74 139 -108 178 -29 33
-65 74 -81 90 -16 17 -49 47 -74 67 -25 19 -66 45 -92 57 -26 11 -50 21 -54
21 -4 0 -28 15 -53 34 -26 18 -69 38 -96 44 -28 6 -122 10 -210 9z m44 -122
c111 -4 161 -9 176 -19 12 -8 38 -18 59 -21 20 -4 36 -11 36 -15 0 -5 30 -29
68 -54 37 -24 98 -74 135 -109 37 -36 88 -96 112 -135 23 -39 49 -88 56 -109
7 -21 20 -52 29 -68 10 -17 22 -60 29 -96 6 -36 11 -104 11 -150 -1 -46 -5
-102 -9 -124 -5 -22 -14 -62 -21 -90 -7 -27 -19 -61 -27 -75 -7 -14 -25 -47
-39 -75 -14 -27 -36 -66 -49 -85 -13 -19 -33 -46 -44 -60 -11 -14 -39 -46 -61
-72 -22 -25 -53 -49 -68 -53 -15 -3 -53 -20 -85 -36 -32 -16 -70 -29 -86 -29
-16 0 -34 -7 -41 -15 -7 -8 -22 -15 -34 -15 -11 0 -34 -7 -51 -16 -18 -10 -60
-18 -104 -20 -54 -2 -77 1 -85 10 -7 9 -44 15 -111 19 -55 3 -131 10 -170 17
-38 6 -94 18 -122 27 -29 8 -55 19 -59 24 -3 5 -16 9 -28 9 -13 0 -29 7 -36
15 -7 8 -23 15 -35 15 -16 0 -39 19 -75 61 -28 34 -58 75 -66 91 -9 16 -30 75
-48 131 -19 56 -39 142 -46 192 -8 54 -10 125 -6 180 3 49 17 139 31 199 14
64 36 127 52 155 15 25 34 58 41 73 8 14 54 69 104 122 72 77 104 103 161 132
64 31 86 36 192 46 66 5 129 14 140 18 11 5 89 7 174 5z m-174 -2520 c62 0 89
-5 115 -21 19 -11 44 -19 55 -16 10 2 29 10 40 18 16 11 54 12 170 8 83 -2
176 -7 207 -11 40 -4 63 -12 77 -27 10 -11 20 -32 22 -46 1 -14 -3 -43 -9 -65
-7 -22 -12 -75 -12 -117 0 -42 -4 -99 -10 -125 -5 -26 -12 -169 -15 -318 -3
-148 -10 -322 -16 -385 -5 -63 -14 -160 -20 -215 -5 -55 -9 -127 -8 -161 l0
-61 -123 3 c-68 2 -154 8 -193 15 -38 6 -90 15 -115 20 -25 4 -72 11 -105 14
-33 4 -85 11 -115 17 -30 6 -79 21 -107 34 l-53 23 0 83 c0 46 -4 88 -9 93 -4
6 -13 30 -19 54 -6 25 -9 48 -7 51 2 4 -1 35 -6 71 -6 35 -10 100 -9 144 1 44
-4 129 -10 188 -6 59 -16 120 -22 135 -6 15 -12 101 -13 192 -1 91 -6 216 -10
278 l-8 112 94 1 c52 1 108 4 124 8 17 4 66 7 110 6z"/>
<g>
<path d="M2825 9279 c-49 -1 -77 -8 -123 -30 -34 -17 -72 -46 -91 -69 -17 -21
-36 -51 -41 -65 -5 -14 -10 -38 -10 -53 0 -15 4 -54 8 -87 5 -33 20 -82 32
-109 20 -41 31 -52 76 -72 29 -13 72 -24 96 -25 23 -1 66 1 93 5 33 5 69 20
105 44 30 20 63 51 73 69 13 24 18 52 18 110 0 63 -5 90 -26 135 -14 30 -41
72 -59 92 -19 20 -46 40 -61 46 -14 5 -54 9 -90 9z"/>
</g>
</g>
<g>
<path d="M9115 9709 c-5 -1 -26 -5 -45 -10 -19 -4 -84 -13 -145 -19 -60 -6
-123 -17 -140 -24 -16 -7 -52 -24 -79 -37 -26 -12 -50 -29 -53 -36 -3 -7 -14
-13 -24 -13 -11 0 -27 -9 -36 -20 -10 -11 -22 -20 -28 -20 -6 0 -39 -27 -73
-60 -35 -33 -69 -75 -77 -93 -8 -19 -20 -39 -28 -46 -8 -6 -18 -23 -21 -36 -3
-13 -20 -53 -36 -88 -17 -36 -30 -75 -30 -87 0 -11 -9 -39 -19 -61 -11 -22
-30 -102 -42 -177 -15 -98 -20 -164 -17 -233 4 -71 10 -106 25 -135 12 -21 27
-54 34 -72 6 -19 17 -39 24 -46 7 -6 24 -30 38 -53 15 -24 37 -49 49 -57 13
-9 52 -43 88 -76 36 -34 82 -70 102 -80 20 -11 57 -33 81 -50 25 -16 48 -30
52 -30 5 0 33 -12 64 -27 31 -14 78 -28 104 -31 39 -4 50 -9 61 -31 8 -14 17
-40 20 -58 4 -17 3 -40 -3 -51 -5 -10 -10 -41 -11 -68 0 -27 2 -133 5 -236 3
-103 9 -205 14 -227 4 -21 5 -45 1 -52 -6 -9 -21 -10 -62 -2 -29 5 -102 11
-161 12 -68 2 -120 -2 -138 -9 -17 -7 -32 -23 -35 -36 -4 -14 -1 -37 6 -53 9
-23 9 -34 -1 -53 -8 -12 -19 -39 -26 -58 -7 -19 -13 -46 -13 -60 0 -14 -6 -37
-13 -51 -8 -14 -17 -43 -20 -65 -4 -21 -9 -52 -13 -69 -3 -16 -10 -35 -16 -42
-5 -7 -8 -41 -7 -76 3 -43 -1 -70 -9 -80 -8 -9 -22 -67 -33 -129 -10 -62 -26
-160 -35 -218 -8 -58 -18 -131 -20 -163 -2 -32 -8 -67 -14 -77 -6 -11 -12 -49
-15 -84 -2 -36 -9 -75 -16 -87 -6 -12 -14 -59 -17 -104 -2 -46 -2 -99 2 -119
4 -21 16 -46 27 -57 15 -15 24 -17 39 -9 11 6 20 15 20 21 0 6 7 17 15 25 8 9
16 25 16 37 1 12 0 31 -1 42 -1 11 -6 24 -11 30 -5 5 -9 28 -9 52 0 23 4 62
10 85 5 24 17 80 25 125 9 45 14 86 11 91 -3 5 1 28 8 53 7 24 19 107 25 184
7 77 21 167 31 200 11 33 26 92 34 130 8 39 17 96 20 128 4 32 14 73 23 90 10
18 16 37 14 42 -2 7 1 7 7 0 4 -5 18 -82 30 -170 12 -88 24 -230 28 -315 3
-85 10 -160 16 -167 6 -7 11 -133 13 -317 2 -168 7 -312 12 -318 4 -7 11 -146
15 -308 4 -162 7 -311 6 -330 0 -19 -1 -69 -3 -110 -2 -41 -6 -109 -10 -150
-4 -41 -8 -91 -8 -110 0 -19 1 -172 3 -340 2 -168 9 -375 16 -460 6 -85 15
-211 19 -279 3 -68 10 -145 14 -170 5 -25 9 -122 10 -216 1 -93 5 -210 7 -260
3 -49 5 -101 6 -115 0 -14 7 -72 14 -129 8 -57 17 -190 21 -295 l6 -192 -29
-22 c-16 -13 -42 -33 -58 -45 -16 -12 -40 -35 -55 -51 -14 -16 -51 -47 -81
-69 -30 -22 -62 -41 -71 -42 -9 -1 -23 -8 -31 -16 -8 -8 -18 -27 -22 -43 -5
-22 -2 -34 15 -52 12 -13 33 -24 46 -24 14 0 39 16 63 40 22 22 43 40 48 40 4
0 30 19 57 41 28 23 74 59 103 81 29 22 69 46 87 54 23 9 37 23 41 40 4 14 1
53 -5 87 -6 34 -14 109 -16 167 -3 58 -14 166 -25 240 -11 74 -27 252 -35 395
-8 143 -17 280 -20 305 -3 25 -8 65 -10 90 -3 25 -9 79 -15 120 -5 41 -9 190
-9 330 0 140 -5 282 -11 315 -5 33 -10 162 -10 286 0 124 5 284 12 355 7 71
12 172 12 224 0 52 -1 118 -2 145 -2 28 -1 131 2 230 l5 180 23 -3 c13 -2 59
-13 103 -24 59 -15 98 -19 150 -15 39 3 139 3 222 -1 116 -6 156 -11 168 -23
12 -11 16 -49 20 -164 3 -83 10 -167 16 -187 5 -20 9 -81 8 -135 -1 -62 4
-118 14 -153 8 -30 18 -118 21 -195 4 -77 9 -174 11 -215 3 -41 8 -93 11 -115
3 -22 7 -51 9 -65 2 -14 6 -52 9 -85 3 -33 6 -100 7 -150 1 -49 8 -108 16
-130 11 -30 12 -66 7 -145 -4 -69 -2 -120 5 -148 7 -24 12 -78 12 -120 -1 -42
-2 -140 -3 -217 -1 -77 1 -162 5 -190 4 -27 12 -68 17 -90 6 -22 12 -86 15
-143 2 -57 9 -156 15 -220 7 -64 14 -120 16 -124 3 -4 5 -87 5 -184 l-1 -176
-34 -47 c-19 -25 -52 -61 -74 -79 -23 -17 -47 -32 -55 -32 -7 0 -23 -11 -35
-25 -12 -14 -31 -25 -42 -25 -11 0 -39 -24 -70 -61 -27 -33 -50 -70 -50 -83 0
-12 5 -27 12 -34 7 -7 29 -12 49 -12 31 0 47 10 106 63 38 34 76 68 84 74 8 7
32 29 54 49 22 19 57 47 78 61 20 14 37 29 37 33 0 4 14 13 31 21 l32 13 -7
115 c-3 64 -8 159 -11 211 -2 52 -12 167 -21 255 -10 88 -17 187 -16 220 1 33
-2 71 -8 85 -5 14 -16 81 -25 150 -9 70 -18 235 -21 375 -2 138 -6 264 -9 282
-3 17 -10 91 -16 165 -6 73 -12 162 -15 198 -2 36 -8 79 -14 95 -5 17 -11 77
-15 135 -3 58 -8 141 -11 185 -3 44 -7 121 -8 171 -2 50 -6 96 -9 101 -4 5
-11 70 -18 144 -6 74 -13 179 -15 234 -2 55 -7 127 -10 160 -3 33 -5 93 -4
134 0 41 -6 97 -15 129 -14 47 -16 92 -10 306 3 138 10 312 15 387 6 74 17
158 25 185 11 37 15 101 16 256 0 114 4 210 9 213 5 3 12 -11 15 -32 4 -21 14
-74 22 -118 9 -44 17 -98 19 -120 2 -22 9 -71 15 -110 7 -38 13 -95 14 -125 2
-30 5 -110 9 -176 3 -67 10 -152 15 -189 5 -37 7 -73 5 -80 -3 -7 2 -27 10
-44 9 -16 16 -43 16 -59 0 -16 5 -44 11 -63 6 -19 17 -45 24 -59 7 -14 15 -55
16 -90 1 -36 9 -94 17 -130 8 -36 19 -71 25 -77 5 -7 24 -13 42 -13 18 0 37 6
42 13 6 6 13 25 17 40 4 15 2 47 -4 70 -6 23 -17 56 -25 72 -7 17 -21 71 -31
120 -9 50 -23 115 -31 145 -9 30 -23 80 -34 111 -10 31 -20 75 -23 97 -3 23
-7 45 -9 50 -3 4 -8 79 -12 167 -3 88 -13 216 -21 284 -7 68 -11 128 -8 133 3
5 -1 20 -10 33 -9 13 -13 31 -10 39 3 9 3 24 -1 34 -4 9 -9 26 -10 38 -2 12
-10 50 -18 85 -9 35 -19 82 -22 104 -4 21 -13 51 -20 65 -7 14 -25 31 -39 38
-14 6 -26 18 -26 25 0 8 -8 21 -18 31 -14 12 -29 15 -58 11 -21 -4 -53 -8 -71
-10 -17 -2 -42 -10 -55 -19 -13 -9 -35 -13 -48 -10 -14 2 -44 8 -67 13 -23 4
-61 5 -85 1 -25 -3 -67 -4 -94 -1 -36 4 -50 11 -52 24 -2 10 3 17 11 17 9 0
17 6 20 13 2 6 1 21 -4 33 -4 11 -13 79 -19 150 -7 71 -14 154 -15 184 -2 30
-4 115 -6 188 -1 78 2 137 8 143 5 5 66 12 134 14 68 3 135 9 149 14 14 5 44
14 66 20 23 6 47 18 54 26 7 8 18 15 25 15 7 0 33 18 58 40 25 22 48 40 52 40
4 0 24 14 43 32 20 17 50 52 66 77 16 25 37 55 46 66 9 11 28 56 43 100 14 44
31 105 37 135 5 30 11 145 13 255 2 189 1 204 -22 265 -13 36 -41 101 -63 145
-22 44 -59 101 -82 126 -22 25 -52 59 -66 75 -14 16 -48 48 -76 71 -28 23 -64
45 -80 49 -16 4 -51 24 -79 44 -27 20 -65 44 -84 53 -19 9 -46 17 -60 17 -14
0 -44 7 -66 15 -22 8 -44 14 -50 14z m-4 -134 c48 -2 95 -8 105 -13 11 -5 39
-20 64 -32 25 -13 54 -31 66 -41 11 -11 23 -19 27 -19 4 0 26 -12 50 -27 23
-15 68 -52 100 -82 31 -30 57 -60 57 -67 0 -6 10 -19 21 -30 12 -10 31 -35 43
-54 12 -19 34 -69 49 -110 15 -41 30 -91 34 -110 4 -19 8 -75 7 -125 0 -49 -6
-133 -13 -185 -7 -52 -22 -126 -33 -165 -12 -38 -32 -87 -44 -107 -13 -21 -24
-41 -24 -44 0 -4 -23 -29 -51 -55 -29 -27 -55 -49 -59 -49 -4 0 -25 -14 -46
-31 -22 -17 -61 -43 -89 -57 -47 -24 -60 -26 -215 -29 -91 -2 -188 -8 -216
-14 -37 -8 -65 -8 -107 1 -31 6 -57 15 -57 20 0 4 -12 11 -27 15 -16 4 -38 8
-50 9 -12 1 -36 14 -52 30 -16 16 -38 34 -49 40 -10 6 -34 22 -53 35 -19 13
-61 55 -94 92 -50 56 -65 83 -92 161 -25 71 -32 110 -33 166 0 40 5 106 11
145 6 40 19 106 30 147 11 41 23 84 28 95 5 11 24 58 42 103 19 51 50 106 78
140 25 32 59 69 76 85 16 15 32 27 36 27 3 0 26 16 50 35 24 19 53 35 65 35
11 0 24 4 30 10 5 5 37 15 69 20 33 6 69 15 80 20 11 5 38 11 60 14 22 2 79 2
126 1z m-297 -2420 c39 -3 113 -13 164 -21 51 -9 101 -12 110 -8 9 4 20 7 24
6 4 -1 24 -4 45 -7 21 -3 88 -5 148 -5 61 0 127 2 147 4 23 2 41 -1 48 -9 7
-9 13 -106 17 -272 3 -142 5 -265 4 -273 0 -8 -7 -58 -15 -110 -9 -52 -17
-108 -19 -125 -2 -16 -8 -86 -13 -155 -5 -69 -9 -177 -8 -240 0 -63 2 -153 5
-200 l3 -85 -119 -2 c-66 -2 -165 -4 -220 -5 -55 -2 -133 2 -172 8 -50 8 -85
20 -113 39 -23 16 -42 31 -44 34 -2 3 -7 125 -11 271 -4 145 -9 269 -12 273
-3 5 -7 59 -9 121 -2 61 -6 156 -8 211 -2 55 -9 129 -15 165 -6 36 -14 76 -17
90 -3 14 -6 82 -6 152 0 70 3 132 7 138 5 8 29 10 79 5z"/>
<g>
<path d="M9073 9129 c-21 0 -58 -7 -83 -14 -25 -8 -56 -20 -70 -27 -14 -7 -36
-26 -50 -42 -14 -16 -28 -38 -33 -49 -4 -11 -10 -40 -13 -65 -3 -25 -7 -49
-10 -53 -2 -5 1 -29 7 -55 8 -29 24 -58 43 -76 17 -16 48 -38 69 -49 24 -13
59 -20 100 -21 44 -1 75 4 107 19 25 12 57 34 71 51 15 16 32 52 39 81 7 30 9
70 6 94 -4 23 -14 62 -22 87 -9 25 -23 53 -32 64 -9 10 -34 27 -54 37 -21 10
-54 19 -75 18z"/>
</g>
</g>
<g>
<path d="M6165 7234 c-16 3 -45 1 -63 -4 -19 -4 -84 -8 -145 -9 -75 -1 -121
-7 -141 -16 -16 -8 -41 -15 -55 -15 -14 -1 -47 -7 -73 -13 -32 -9 -65 -29
-100 -60 -29 -26 -58 -47 -65 -47 -7 0 -38 -17 -69 -37 -32 -21 -78 -50 -102
-64 -25 -14 -77 -61 -115 -105 -38 -43 -78 -98 -88 -121 -11 -23 -24 -45 -29
-48 -6 -3 -21 -30 -34 -58 -13 -29 -34 -73 -45 -99 -12 -26 -25 -49 -30 -52
-5 -4 -12 -25 -16 -49 -4 -23 -11 -46 -15 -52 -5 -5 -13 -35 -19 -66 -7 -43
-6 -84 4 -165 8 -60 15 -126 15 -146 0 -21 9 -66 21 -100 11 -35 27 -76 36
-93 9 -16 34 -49 55 -72 21 -24 38 -49 38 -56 0 -7 12 -25 28 -38 15 -14 49
-40 76 -57 27 -18 53 -32 58 -32 4 0 8 -4 8 -9 0 -5 -15 -8 -32 -7 -18 0 -35
-3 -38 -9 -3 -5 8 -12 25 -13 16 -2 38 -10 49 -18 11 -8 28 -14 38 -14 10 0
18 -4 18 -10 0 -5 22 -16 49 -24 27 -8 67 -23 88 -34 21 -11 61 -31 88 -45 28
-14 75 -38 105 -54 30 -17 84 -39 120 -51 36 -12 96 -24 135 -27 38 -3 73 -11
77 -18 4 -7 8 -25 8 -40 0 -16 2 -91 5 -168 3 -77 10 -161 14 -186 5 -27 5
-57 0 -70 -5 -14 -9 -37 -9 -53 0 -16 5 -32 10 -35 6 -3 10 -26 10 -50 0 -33
-4 -45 -17 -48 -10 -3 -81 -4 -158 -2 -77 1 -228 5 -335 9 -107 4 -206 12
-220 17 -14 5 -86 10 -160 11 -74 1 -196 1 -270 -1 -74 -2 -146 0 -160 3 -14
4 -66 9 -115 11 -50 2 -182 9 -295 14 -113 6 -231 8 -263 5 -49 -5 -60 -10
-69 -30 -8 -17 -8 -27 2 -39 7 -8 18 -15 25 -15 7 0 18 -7 25 -15 7 -9 21 -13
31 -10 10 4 80 1 156 -5 76 -7 181 -13 233 -15 52 -2 169 -6 260 -10 91 -3
251 -8 355 -11 105 -2 233 -7 285 -12 l95 -7 7 -130 c4 -71 9 -240 12 -375 3
-135 10 -326 17 -424 6 -99 15 -190 20 -203 5 -13 11 -130 14 -261 4 -130 11
-251 16 -268 6 -20 6 -40 0 -57 -7 -19 -6 -40 4 -74 11 -37 12 -56 4 -84 -9
-27 -7 -61 5 -140 8 -57 17 -138 20 -179 2 -41 5 -79 7 -85 2 -5 -2 -20 -9
-32 -7 -13 -32 -41 -55 -63 -23 -22 -47 -40 -53 -40 -6 0 -28 -16 -50 -36 -21
-19 -52 -42 -69 -51 -16 -8 -42 -27 -57 -41 -16 -14 -28 -33 -28 -42 0 -8 14
-28 31 -43 17 -15 42 -27 55 -27 17 0 31 12 49 40 14 22 40 50 59 62 18 13 60
43 92 68 32 24 80 54 106 67 32 16 50 31 54 48 3 13 1 62 -6 107 -6 46 -15
115 -20 153 -5 39 -14 93 -20 120 -6 28 -13 95 -15 150 -2 55 -7 123 -10 150
-2 28 -5 125 -5 217 0 92 -5 179 -10 193 -7 18 -7 33 0 45 7 13 6 43 -1 95 -8
54 -8 80 -1 87 7 7 32 5 84 -7 40 -9 91 -21 113 -26 22 -5 99 -14 170 -20 72
-6 166 -12 210 -14 44 -2 103 -7 130 -11 28 -3 136 -11 242 -18 161 -10 195
-15 212 -30 19 -18 20 -27 15 -283 -4 -181 -2 -268 5 -277 6 -7 13 -31 16 -52
2 -21 7 -59 11 -84 4 -25 8 -60 8 -77 0 -18 -6 -44 -13 -57 -9 -16 -11 -39 -6
-67 4 -24 9 -96 11 -160 l5 -115 -43 -35 c-23 -19 -71 -58 -105 -87 -35 -29
-84 -65 -110 -80 -26 -15 -55 -43 -65 -61 -11 -19 -18 -43 -16 -55 2 -16 13
-23 48 -29 l45 -9 77 75 c42 42 88 81 102 89 14 7 49 29 78 49 29 20 66 39 81
43 16 4 33 17 39 31 8 19 8 45 0 103 -6 42 -18 183 -26 312 -9 129 -18 262
-22 295 -4 33 -8 71 -10 85 -1 14 -3 144 -4 289 -1 222 -4 282 -22 375 -11 61
-21 129 -23 151 -1 22 2 45 6 50 3 6 10 25 14 43 4 18 2 99 -5 180 -6 81 -17
197 -25 257 -10 85 -10 128 -1 190 l11 80 190 3 c105 1 210 3 235 3 25 0 59
-1 75 -2 17 -1 70 4 118 9 48 6 93 14 99 18 6 4 47 9 89 11 43 3 104 -1 136
-8 32 -6 69 -13 83 -14 14 -1 57 -5 96 -9 49 -5 79 -4 94 4 17 9 19 14 10 25
-7 8 -9 27 -6 42 3 16 0 35 -7 43 -9 12 -41 16 -146 18 -74 1 -151 7 -171 12
-26 7 -73 6 -161 -5 -70 -9 -260 -17 -439 -21 -173 -3 -387 -5 -475 -5 -88 1
-180 2 -205 4 -25 1 -67 -2 -95 -8 -27 -6 -77 -10 -110 -9 -33 0 -70 4 -81 8
-20 6 -22 15 -27 129 -4 67 -12 183 -19 257 -8 74 -12 161 -10 193 l4 57 46 0
c26 0 79 12 117 26 39 14 106 38 151 54 44 15 107 45 140 66 32 21 73 50 89
65 17 14 42 29 58 33 15 4 45 23 67 42 22 20 64 71 93 113 29 42 68 103 85
136 17 33 45 103 62 155 17 52 35 111 41 130 5 19 13 104 18 189 8 129 7 161
-5 195 -8 23 -20 57 -25 76 -6 19 -14 44 -19 55 -4 11 -19 45 -33 75 -13 30
-50 87 -83 125 -32 39 -77 90 -99 114 -22 24 -50 47 -62 52 -12 4 -29 24 -37
43 -8 19 -27 42 -43 52 -15 10 -64 41 -108 69 -44 28 -92 59 -107 68 -15 9
-60 22 -100 28 -40 7 -80 17 -88 24 -8 7 -35 15 -60 19 -25 3 -58 8 -75 10z
m-25 -110 c67 -4 123 -14 190 -36 52 -16 110 -38 130 -49 19 -11 49 -27 65
-37 17 -9 53 -34 80 -54 28 -21 86 -75 130 -121 44 -46 96 -104 116 -128 20
-24 59 -88 87 -141 38 -72 53 -116 63 -173 10 -62 10 -100 0 -187 -8 -67 -26
-151 -47 -214 -18 -57 -51 -139 -74 -181 -22 -42 -40 -81 -40 -87 0 -6 -29
-40 -64 -76 -35 -36 -87 -84 -117 -107 -29 -24 -59 -43 -65 -43 -7 0 -33 -13
-57 -30 -24 -16 -65 -39 -91 -50 -26 -11 -53 -20 -59 -20 -7 0 -30 -10 -52
-21 -32 -18 -63 -23 -155 -27 -64 -2 -151 0 -195 6 -44 7 -109 23 -145 37 -36
14 -95 41 -133 60 -37 19 -74 35 -82 35 -9 0 -34 12 -56 26 -23 14 -62 35 -88
46 -25 10 -59 30 -76 42 -16 12 -37 25 -45 28 -8 3 -43 26 -78 52 -34 25 -82
73 -106 106 -25 33 -53 84 -64 113 -11 29 -25 109 -32 182 -7 72 -11 167 -8
212 4 65 11 95 36 146 18 35 32 70 32 77 0 6 9 24 20 40 11 15 24 39 30 54 5
14 14 26 20 26 5 0 10 4 10 9 0 6 15 32 32 58 18 26 44 61 58 77 14 16 59 62
100 104 41 41 95 86 120 100 25 14 50 31 55 38 6 7 33 18 60 24 28 6 79 23
115 37 40 16 90 28 130 30 36 1 85 7 110 12 25 5 88 7 140 5z m-473 -2650 c37
-1 75 -4 83 -7 8 -3 47 -9 85 -13 39 -5 77 -8 85 -7 8 1 66 4 130 7 63 3 196
9 295 12 99 4 226 8 282 10 91 4 102 2 107 -13 3 -10 8 -85 11 -168 4 -82 10
-168 15 -190 4 -22 9 -103 11 -180 1 -77 2 -158 2 -180 -1 -22 -5 -59 -8 -83
-5 -32 -1 -61 15 -111 12 -38 20 -77 18 -87 -3 -17 -16 -18 -181 -15 -99 1
-236 9 -305 17 -70 8 -154 17 -187 19 -33 3 -71 9 -85 14 -14 5 -72 12 -130
16 -58 3 -127 12 -155 20 -27 8 -61 16 -75 19 -14 2 -37 9 -52 16 -26 12 -26
13 -32 154 -3 77 -8 224 -11 325 -3 101 -10 192 -16 202 -5 10 -10 35 -11 56
-1 21 5 65 12 98 7 33 17 62 21 65 4 3 38 5 76 4z"/>
<g>
<path d="M6042 6930 c-5 0 -16 -8 -25 -18 -9 -10 -23 -45 -31 -77 -9 -33 -22
-106 -31 -162 -8 -57 -15 -116 -15 -132 0 -16 -7 -34 -15 -41 -8 -7 -15 -23
-15 -36 0 -13 -4 -33 -9 -46 -5 -13 -16 -48 -25 -78 -8 -30 -22 -84 -32 -120
-9 -36 -20 -94 -25 -130 -5 -36 -11 -94 -15 -130 -3 -36 -12 -90 -20 -121 -8
-31 -14 -79 -14 -105 0 -27 -5 -67 -11 -89 -6 -22 -13 -52 -16 -66 -4 -20 2
-32 28 -53 27 -23 39 -27 73 -22 23 3 104 6 181 6 77 1 154 -2 170 -5 17 -3
36 -1 44 4 9 6 11 15 5 27 -4 11 -9 37 -9 59 l0 40 -75 5 c-41 3 -95 3 -120 0
-25 -3 -71 -3 -103 -2 l-58 4 7 121 c4 67 10 129 14 137 4 8 10 33 13 55 3 22
9 69 12 105 4 36 21 112 37 170 17 58 37 130 44 160 7 30 22 87 33 125 14 47
21 100 21 160 0 73 4 96 20 120 11 17 20 46 20 66 0 28 -6 41 -25 53 -13 9
-28 16 -33 16z"/>
</g>
</g>
</g>
</svg>
