<?xml version="1.0" standalone="no"?>
<!DOCTYPE svg PUBLIC "-//W3C//DTD SVG 20010904//EN"
 "http://www.w3.org/TR/2001/REC-SVG-20010904/DTD/svg10.dtd">
<svg version="1.0" xmlns="http://www.w3.org/2000/svg"
 width="1331.000000pt" height="1331.000000pt" viewBox="0 0 1331.000000 1331.000000"
 preserveAspectRatio="xMidYMid meet">
<metadata>
Created by potrace 1.16, written by Peter Selinger 2001-2019
</metadata>
<g transform="translate(0.000000,1331.000000) scale(0.100000,-0.100000)"
fill="#000000" stroke="none">
<g>
<path d="M8884 11744 c-6 2 -16 0 -21 -5 -6 -6 -64 -12 -129 -14 -66 -1 -141
-6 -169 -10 -27 -5 -59 -14 -70 -21 -11 -7 -29 -13 -40 -13 -11 0 -54 -9 -95
-21 -41 -11 -82 -22 -90 -24 -8 -2 -35 -13 -60 -24 -25 -12 -54 -22 -65 -22
-11 0 -26 -9 -33 -20 -6 -11 -31 -30 -53 -42 -23 -13 -60 -33 -83 -44 -22 -12
-52 -34 -65 -48 -14 -14 -31 -26 -38 -26 -7 0 -29 -15 -47 -32 -19 -18 -59
-55 -90 -82 -30 -27 -73 -57 -95 -67 -23 -10 -41 -24 -41 -31 0 -7 -15 -30
-34 -50 -19 -20 -32 -39 -30 -41 2 -2 -23 -26 -56 -53 -33 -27 -60 -54 -60
-60 0 -7 -12 -25 -27 -42 -16 -16 -34 -38 -41 -48 -6 -11 -18 -30 -25 -44 -6
-13 -29 -40 -49 -58 -21 -19 -38 -39 -38 -46 0 -6 -14 -24 -30 -40 -17 -16
-49 -65 -70 -109 -24 -49 -48 -118 -60 -176 -14 -67 -20 -141 -22 -241 -1 -80
1 -172 4 -205 3 -33 9 -76 12 -95 4 -19 12 -53 18 -75 6 -22 22 -71 36 -109
13 -38 38 -94 53 -125 16 -31 29 -60 29 -64 0 -5 11 -23 23 -40 13 -18 30 -48
37 -67 7 -19 32 -75 56 -124 33 -67 41 -92 31 -98 -6 -4 -15 -8 -20 -8 -4 0
-29 -10 -55 -22 -26 -12 -58 -33 -72 -47 -14 -14 -30 -35 -35 -46 -6 -11 -19
-21 -29 -23 -11 -2 -25 -9 -33 -16 -8 -6 -24 -20 -36 -31 -12 -11 -40 -28 -62
-38 -22 -10 -46 -24 -55 -31 -8 -8 -37 -26 -65 -41 -27 -14 -62 -34 -76 -43
-14 -9 -39 -26 -54 -37 -27 -19 -29 -19 -39 -1 -6 10 -21 33 -33 51 -12 19
-19 36 -15 39 3 4 -10 23 -30 44 -20 20 -42 49 -49 63 -8 15 -25 46 -38 70
-13 24 -37 59 -52 77 -16 18 -29 40 -29 48 0 9 -20 43 -45 75 -25 33 -45 64
-45 70 0 6 -9 22 -20 36 -11 14 -20 32 -20 40 0 8 -13 33 -28 56 -16 23 -43
67 -60 98 -18 31 -32 63 -32 71 0 8 -11 25 -25 38 -14 13 -25 29 -25 36 0 6
-7 17 -15 24 -8 7 -12 16 -10 21 3 4 -6 31 -19 58 -14 27 -30 52 -36 56 -5 3
-10 13 -10 21 0 8 -9 34 -20 58 -10 23 -26 49 -35 56 -8 7 -15 18 -15 25 0 7
-7 18 -16 26 -9 7 -24 29 -34 48 -10 20 -35 70 -55 111 -20 41 -43 89 -52 105
-9 17 -20 37 -24 45 -4 8 -17 35 -29 60 -11 25 -25 52 -30 60 -5 8 -16 30 -24
49 -9 19 -16 40 -16 47 0 7 -5 16 -12 20 -7 4 -28 7 -47 5 -19 -1 -40 -10 -47
-19 -8 -9 -14 -29 -14 -43 0 -14 -9 -34 -20 -44 -11 -10 -20 -22 -20 -27 0 -5
-12 -27 -27 -51 -15 -23 -42 -70 -60 -105 -18 -34 -37 -68 -43 -75 -5 -6 -37
-48 -69 -92 -33 -44 -81 -105 -106 -135 -25 -30 -52 -69 -59 -86 -8 -17 -22
-36 -30 -44 -9 -7 -16 -17 -16 -22 0 -5 -23 -39 -51 -76 -27 -37 -67 -89 -89
-117 -21 -27 -59 -81 -84 -119 -25 -38 -46 -71 -46 -74 0 -3 -11 -18 -25 -32
-14 -15 -48 -62 -75 -106 -27 -43 -65 -101 -84 -129 -20 -27 -44 -64 -53 -81
-10 -16 -37 -64 -61 -105 -24 -41 -61 -103 -84 -139 -22 -36 -49 -80 -60 -99
-10 -18 -51 -80 -89 -137 -39 -57 -74 -106 -79 -109 -6 -3 -25 -38 -44 -76
-19 -39 -47 -86 -61 -104 -14 -19 -25 -38 -25 -44 0 -6 -10 -30 -22 -53 -12
-24 -30 -55 -40 -70 -10 -14 -18 -32 -18 -39 0 -6 -10 -26 -23 -43 -13 -17
-31 -47 -40 -67 -9 -20 -23 -42 -31 -49 -9 -6 -29 -41 -46 -76 -18 -35 -36
-66 -41 -70 -5 -3 -19 -27 -31 -52 -12 -26 -27 -54 -34 -62 -6 -8 -35 -62 -64
-120 -28 -58 -68 -136 -88 -175 -19 -38 -44 -81 -54 -94 -10 -13 -18 -30 -18
-37 0 -8 -21 -53 -47 -100 -27 -47 -60 -107 -75 -132 -15 -26 -34 -61 -42 -79
-9 -17 -29 -51 -45 -75 -16 -24 -47 -78 -70 -121 -23 -43 -46 -86 -50 -95 -5
-9 -15 -30 -22 -47 -7 -16 -18 -37 -25 -45 -6 -8 -17 -32 -24 -52 -6 -21 -18
-38 -25 -38 -7 0 -15 5 -17 12 -3 8 -10 6 -24 -6 -10 -9 -30 -25 -43 -35 -24
-18 -24 -18 -5 -44 12 -17 32 -29 57 -33 20 -4 37 -9 37 -12 0 -4 -6 -24 -14
-47 -7 -22 -23 -70 -35 -107 -12 -38 -26 -114 -32 -170 -5 -57 -12 -119 -16
-138 -3 -19 -5 -48 -4 -65 1 -16 1 -50 1 -75 0 -24 -5 -47 -11 -50 -5 -4 -13
-32 -16 -63 -4 -38 -2 -62 6 -71 10 -11 10 -20 1 -36 -7 -13 -10 -42 -6 -74 3
-28 6 -58 7 -66 0 -8 -4 -46 -11 -85 -6 -38 -18 -94 -27 -124 -8 -29 -15 -81
-15 -115 -1 -38 -10 -86 -24 -127 -14 -37 -22 -74 -18 -82 3 -8 1 -18 -5 -22
-6 -3 -11 -28 -11 -54 0 -26 -3 -51 -7 -55 -4 -3 -8 -16 -9 -29 -1 -12 -5 -64
-8 -116 -5 -70 -11 -100 -24 -114 -12 -14 -16 -33 -15 -69 2 -31 -5 -69 -17
-97 -10 -25 -21 -77 -23 -116 -3 -38 -2 -77 3 -85 4 -8 -1 -67 -11 -130 -10
-63 -21 -187 -24 -275 -3 -88 -7 -173 -10 -190 -2 -16 -6 -90 -8 -163 -4 -120
-2 -134 14 -142 10 -6 31 -10 47 -10 25 0 30 5 41 39 8 29 8 52 0 91 -8 39 -8
81 0 159 6 58 13 160 16 226 4 66 9 165 12 220 2 55 6 125 8 155 1 30 4 84 5
120 2 36 7 79 12 95 6 17 11 41 13 55 2 14 7 50 10 80 4 30 11 63 16 72 5 10
11 46 13 80 2 35 7 95 11 133 3 39 10 79 14 90 5 11 16 58 25 105 9 47 24 128
32 180 9 52 19 104 24 115 5 11 11 45 15 75 3 30 10 129 15 220 6 91 14 199
19 240 5 41 14 109 20 150 7 41 17 108 23 148 7 39 15 72 20 72 4 0 10 -17 13
-37 3 -21 10 -60 16 -88 5 -27 11 -106 13 -175 2 -69 6 -172 9 -230 3 -58 8
-130 12 -160 4 -30 11 -125 15 -210 5 -85 9 -429 9 -765 1 -335 2 -855 2
-1155 1 -300 1 -570 1 -600 0 -30 -1 -89 -1 -130 -1 -41 -5 -109 -11 -150 -5
-41 -11 -116 -14 -167 -3 -55 -2 -93 4 -95 7 -2 7 -15 1 -36 -5 -18 -13 -83
-17 -145 -3 -61 -6 -120 -6 -131 1 -10 9 -27 18 -37 9 -11 28 -19 41 -19 13 0
34 -5 46 -11 12 -7 24 -15 27 -19 3 -5 52 -24 110 -44 58 -20 114 -41 125 -46
11 -5 56 -21 100 -36 44 -15 85 -30 90 -34 6 -4 39 -16 75 -27 36 -12 79 -24
95 -28 17 -4 41 -9 53 -11 13 -3 49 -12 80 -21 32 -9 75 -17 97 -17 l40 -1 3
70 3 70 -38 -3 c-21 -2 -51 -4 -68 -5 -16 0 -55 7 -85 16 -30 8 -86 25 -125
36 -38 12 -72 26 -73 31 -2 6 -12 10 -22 10 -10 0 -37 9 -61 20 -24 11 -54 20
-66 20 -12 0 -38 9 -58 20 -20 11 -42 20 -49 20 -7 0 -19 6 -25 14 -6 7 -34
16 -62 18 -29 3 -55 12 -62 21 -7 9 -29 23 -49 32 -20 8 -40 20 -44 27 -4 7
-9 33 -11 58 -1 25 -2 94 -2 153 0 59 4 118 8 130 5 12 12 81 15 152 4 72 9
220 10 330 2 110 -1 277 -5 370 -5 94 -9 206 -10 250 -1 44 1 172 5 285 4 113
6 216 6 230 -1 14 -2 30 -2 35 0 6 0 127 0 270 0 143 1 274 2 290 1 17 2 66 3
110 1 44 0 96 0 115 -1 19 -1 107 1 195 2 88 -1 196 -5 240 -4 44 -10 130 -14
190 -3 61 -10 150 -15 200 -5 49 -12 95 -14 101 -3 7 -2 15 1 18 3 3 8 26 10
52 2 26 -1 121 -6 213 -6 91 -16 182 -22 201 -6 19 -16 43 -21 53 -5 10 -6 26
-3 36 3 10 1 30 -4 45 -8 21 -8 26 4 26 12 0 13 10 8 48 -3 26 -7 54 -7 62 -1
11 10 15 39 15 22 1 74 -5 115 -13 48 -8 102 -11 150 -6 41 3 89 8 105 9 17 2
71 9 120 15 50 6 132 13 183 16 67 4 98 2 108 -7 10 -9 18 -9 22 -2 4 5 43 13
87 17 44 4 118 9 165 12 47 3 130 11 185 19 55 8 174 19 265 24 91 6 212 13
270 17 57 3 108 8 112 10 5 3 50 10 101 15 50 5 124 16 164 24 39 8 78 12 86
9 8 -3 68 0 133 7 65 6 151 13 189 15 39 1 99 5 135 8 36 4 157 18 269 32 113
14 208 27 212 30 4 2 56 11 116 20 59 9 146 18 192 21 57 3 92 1 108 -8 20
-11 25 -10 36 4 9 12 39 19 107 25 52 5 127 6 165 3 39 -3 94 -4 123 -1 29 3
58 3 65 -1 6 -4 44 -2 82 5 39 6 78 10 88 8 15 -3 17 -9 11 -35 -5 -18 -7 -98
-7 -180 1 -81 4 -151 7 -156 3 -4 8 -116 10 -247 3 -131 10 -304 15 -384 6
-80 15 -192 21 -250 6 -58 14 -145 17 -195 3 -49 5 -101 4 -115 -1 -14 -2 -32
-1 -40 0 -8 3 -67 5 -130 3 -63 5 -166 5 -229 0 -76 4 -118 12 -128 7 -9 13
-32 14 -52 1 -20 4 -49 7 -65 3 -17 -1 -45 -8 -63 -10 -24 -11 -40 -3 -65 6
-20 10 -133 9 -283 -1 -167 3 -277 12 -331 10 -61 12 -121 5 -250 -5 -93 -6
-207 -2 -254 3 -47 6 -157 5 -245 -1 -88 -2 -218 -2 -290 -1 -77 5 -161 13
-205 12 -59 13 -78 3 -90 -7 -8 -15 -52 -18 -98 -4 -45 -11 -92 -18 -103 -9
-18 -7 -26 8 -48 12 -16 35 -29 59 -34 21 -5 47 -13 56 -18 10 -5 26 -9 36 -9
10 0 29 -11 42 -25 13 -14 29 -25 37 -25 7 0 33 -15 58 -34 24 -19 59 -37 77
-41 18 -3 43 -10 56 -16 12 -5 32 -13 45 -19 12 -5 56 -19 97 -30 41 -12 94
-28 118 -36 23 -8 54 -21 67 -30 17 -11 34 -14 57 -9 18 4 38 12 45 17 9 7 8
20 -5 55 -9 25 -24 48 -32 51 -8 3 -37 15 -65 27 -27 12 -66 26 -85 30 -19 3
-51 11 -70 17 -19 6 -60 20 -90 31 -30 10 -80 29 -110 40 -30 12 -62 26 -70
32 -8 6 -42 23 -75 37 -33 14 -71 29 -85 33 -14 4 -35 18 -47 32 -16 18 -20
31 -14 51 4 15 6 126 4 247 -2 121 -5 396 -8 610 -2 215 -6 496 -9 625 -2 129
-9 343 -16 475 -6 132 -15 252 -20 267 -5 17 -5 30 1 34 6 3 7 42 4 97 -3 51
-8 119 -10 152 -3 33 -7 140 -10 237 -3 97 -10 208 -16 245 -5 37 -14 106 -19
153 -5 47 -12 204 -15 350 -3 146 -7 309 -9 362 -3 54 -7 102 -11 107 -3 6 0
19 7 30 9 15 10 35 3 78 -6 32 -8 78 -5 103 l5 45 18 -65 c9 -36 27 -96 39
-135 11 -38 30 -90 40 -114 11 -25 29 -76 39 -115 11 -39 20 -78 20 -86 0 -8
3 -22 7 -30 3 -8 12 -40 19 -70 8 -30 18 -75 22 -100 5 -25 14 -72 21 -105 7
-33 13 -82 15 -109 1 -32 8 -53 18 -61 9 -7 15 -14 12 -17 -3 -2 2 -33 11 -69
8 -35 19 -72 25 -81 5 -10 9 -34 9 -54 0 -19 5 -44 11 -55 5 -11 11 -48 13
-82 1 -34 7 -71 13 -82 6 -11 18 -76 27 -145 10 -69 23 -150 31 -180 7 -30 11
-71 8 -91 -3 -21 0 -40 6 -43 6 -4 11 -17 11 -30 0 -12 4 -26 10 -32 5 -5 14
-43 20 -84 6 -41 13 -108 15 -149 3 -41 9 -79 15 -85 5 -5 10 -25 10 -42 0
-18 4 -35 9 -39 5 -3 16 -29 24 -58 8 -28 18 -79 22 -112 4 -33 9 -76 11 -95
1 -19 7 -75 13 -125 5 -49 15 -121 22 -160 7 -38 13 -88 13 -109 1 -25 7 -41
16 -44 8 -3 21 -11 28 -19 7 -7 21 -13 31 -13 10 0 25 8 35 19 15 16 15 19 1
31 -12 10 -13 15 -4 21 9 5 6 29 -10 95 -12 49 -26 105 -31 124 -5 19 -12 62
-15 94 -3 32 -17 116 -31 185 -13 69 -31 149 -39 176 -8 28 -22 84 -30 125 -9
41 -18 95 -21 120 -3 25 -12 63 -21 85 -8 22 -14 47 -14 55 0 8 -7 47 -14 85
-8 39 -18 93 -23 120 -6 28 -8 65 -5 83 4 21 -2 50 -17 84 -15 35 -21 64 -17
89 3 21 -1 67 -8 104 -7 37 -17 70 -22 74 -6 3 -16 44 -23 91 -7 47 -16 94
-20 105 -5 11 -11 28 -14 39 -4 10 -1 25 5 32 8 10 8 22 0 45 -6 18 -11 43
-11 57 0 13 -7 45 -15 71 -8 25 -21 71 -29 101 -8 30 -25 100 -37 155 -13 55
-23 105 -24 110 0 6 -7 30 -14 55 -7 25 -26 90 -42 145 -17 55 -43 143 -58
195 -16 52 -43 154 -61 225 -18 72 -33 138 -34 148 -1 9 -18 39 -37 65 -19 26
-36 52 -38 57 -2 6 -15 24 -28 41 -12 17 -23 36 -23 41 0 6 -15 38 -34 72 -19
33 -50 84 -68 113 -18 29 -39 62 -46 73 -6 11 -24 45 -38 75 -15 30 -32 62
-39 70 -7 8 -15 31 -19 51 -4 21 -16 48 -26 62 -11 14 -27 44 -35 66 -8 23
-12 41 -10 41 2 0 -12 30 -31 67 -19 36 -45 80 -57 97 -12 17 -27 40 -33 51
-6 11 -21 37 -32 58 -12 21 -22 44 -22 53 0 8 -11 31 -24 52 -13 20 -31 43
-40 51 -12 11 -14 17 -5 28 9 10 8 17 -3 31 -8 9 -25 44 -38 77 -13 33 -32 74
-42 90 -10 17 -25 46 -34 65 -9 19 -34 73 -56 120 -22 47 -44 92 -49 100 -5 8
-15 26 -23 40 -7 14 -16 34 -20 46 -5 16 5 28 56 65 35 24 80 53 101 63 20 11
37 23 37 28 0 4 6 8 14 8 7 0 42 22 77 48 36 26 89 64 119 84 30 20 65 39 77
42 11 4 41 22 65 41 23 19 49 35 56 35 6 0 12 -7 12 -16 0 -9 23 -42 50 -73
28 -31 55 -60 61 -66 6 -5 23 -23 38 -39 14 -16 65 -68 112 -115 47 -47 113
-108 147 -136 33 -27 101 -71 149 -97 48 -25 91 -44 95 -42 4 3 42 -11 84 -31
42 -20 111 -43 153 -51 42 -8 87 -19 101 -24 14 -4 69 -18 122 -30 54 -12 103
-20 110 -17 7 2 45 0 83 -4 39 -5 131 -13 205 -18 81 -5 155 -5 185 0 28 6 65
9 84 9 19 0 91 11 160 25 69 14 143 35 164 46 22 10 47 19 57 19 11 0 22 5 25
10 3 6 14 10 24 10 10 0 30 9 44 20 14 11 32 20 41 20 9 0 66 30 128 67 62 36
135 82 162 102 27 20 77 63 112 95 35 33 97 103 138 156 40 53 95 134 120 181
26 46 60 111 76 144 16 33 43 89 60 125 23 50 33 92 44 185 8 66 16 158 17
205 1 47 3 112 3 145 1 33 -2 67 -6 77 -4 9 -8 38 -9 65 0 26 -7 71 -14 98 -8
28 -19 79 -25 115 -6 36 -22 81 -35 100 -12 19 -31 58 -41 85 -10 28 -25 61
-33 75 -8 14 -30 45 -48 68 -18 24 -53 87 -79 140 -26 53 -56 103 -67 111 -12
8 -44 38 -72 65 -29 28 -74 85 -102 126 -28 41 -89 119 -136 173 -46 53 -115
120 -153 148 -38 29 -73 58 -77 65 -4 8 -13 14 -20 14 -7 0 -37 25 -67 55 -33
33 -64 55 -77 55 -12 0 -42 18 -67 39 -27 24 -78 52 -128 71 -46 18 -96 38
-113 45 -16 7 -77 18 -135 24 -58 6 -121 13 -140 16 -19 2 -39 7 -46 9z m-59
-120 c116 -1 175 -6 215 -19 30 -9 80 -22 110 -30 30 -7 69 -21 85 -29 17 -9
37 -16 46 -16 9 0 19 -7 23 -15 3 -8 16 -15 30 -15 14 0 28 -5 31 -10 4 -6 26
-20 51 -31 24 -12 44 -25 44 -30 0 -4 19 -19 43 -33 23 -14 67 -50 97 -81 30
-30 59 -55 65 -55 6 0 51 -44 100 -97 49 -54 105 -116 125 -137 19 -22 68 -73
108 -113 39 -40 72 -79 72 -87 0 -8 11 -21 25 -30 14 -9 25 -21 25 -28 0 -6
22 -41 50 -78 27 -37 56 -83 64 -101 8 -19 23 -45 33 -59 10 -14 28 -44 41
-66 12 -23 22 -51 22 -62 0 -11 7 -25 15 -32 8 -7 15 -21 15 -31 0 -10 4 -20
10 -24 5 -3 14 -22 21 -43 6 -20 15 -57 20 -82 5 -25 16 -85 25 -135 12 -69
14 -131 10 -265 -4 -120 -12 -202 -25 -260 -11 -47 -30 -110 -41 -140 -12 -30
-26 -70 -30 -89 -5 -19 -13 -37 -18 -40 -6 -3 -31 -41 -56 -84 -25 -43 -46
-82 -46 -88 0 -6 -11 -20 -25 -31 -14 -11 -25 -26 -25 -33 0 -7 -22 -37 -48
-67 -27 -29 -51 -58 -53 -64 -2 -6 -44 -46 -94 -90 -49 -44 -110 -91 -135
-103 -25 -12 -58 -31 -75 -41 -16 -10 -43 -26 -59 -34 -16 -9 -35 -16 -43 -16
-7 0 -13 -4 -13 -10 0 -5 -10 -10 -22 -10 -13 0 -36 -8 -53 -18 -16 -10 -50
-24 -75 -31 -25 -8 -65 -23 -90 -34 -25 -11 -57 -21 -71 -22 -14 -1 -30 -4
-35 -8 -5 -3 -70 -10 -144 -16 -74 -6 -171 -8 -215 -5 -44 3 -87 6 -95 6 -8 0
-64 4 -125 9 -60 5 -162 16 -225 25 -63 8 -124 19 -135 24 -11 5 -36 12 -55
15 -19 3 -53 14 -75 25 -22 10 -88 37 -147 61 -75 29 -119 54 -147 81 -22 21
-42 38 -44 38 -2 0 -26 21 -53 46 -27 25 -61 52 -76 60 -16 8 -28 18 -28 23 0
4 -43 52 -95 107 -52 54 -95 102 -95 107 0 4 -11 24 -23 45 -13 20 -39 64 -57
97 -18 33 -39 71 -46 85 -8 14 -23 45 -34 70 -11 25 -28 59 -37 75 -9 17 -22
41 -29 55 -8 14 -21 41 -30 60 -9 19 -25 47 -35 62 -11 15 -31 57 -44 93 -14
37 -34 111 -45 165 -10 54 -22 129 -25 167 -4 37 -2 111 4 163 6 52 13 116 15
141 3 25 16 81 30 125 14 43 37 95 51 114 14 18 25 38 25 42 0 5 8 18 19 29
10 11 36 45 57 77 21 31 67 91 102 132 36 41 114 128 174 192 61 64 129 129
152 145 22 15 66 48 96 74 30 25 69 54 85 65 17 10 43 28 58 41 16 13 92 55
169 93 77 39 151 70 164 70 12 0 25 4 28 9 3 5 23 11 43 14 21 3 63 11 93 17
30 6 75 14 100 18 25 5 117 7 205 6z m-3155 -1211 c4 -4 20 -33 36 -63 16 -30
32 -56 37 -58 4 -2 7 -11 7 -21 0 -9 7 -26 15 -38 8 -12 31 -52 51 -90 20 -37
41 -75 48 -83 7 -8 27 -44 46 -80 18 -36 38 -72 45 -80 7 -8 36 -62 64 -120
28 -58 76 -145 107 -195 31 -49 67 -112 80 -140 13 -27 32 -61 43 -75 10 -14
40 -62 67 -108 27 -46 60 -101 74 -123 14 -21 61 -97 104 -167 44 -70 85 -132
92 -137 6 -6 26 -35 43 -65 17 -30 42 -76 56 -102 13 -26 29 -49 34 -52 5 -4
21 -32 36 -64 14 -31 32 -69 40 -84 8 -14 15 -35 15 -47 0 -11 6 -24 14 -28 8
-4 28 -38 45 -76 17 -37 31 -70 31 -73 0 -3 50 -106 111 -227 61 -122 119
-238 129 -257 11 -19 30 -57 44 -85 13 -27 33 -68 45 -90 11 -22 28 -56 37
-75 9 -19 24 -51 34 -70 10 -19 28 -64 40 -100 12 -36 37 -90 55 -120 18 -30
51 -89 73 -131 23 -41 58 -108 79 -147 20 -39 34 -74 31 -77 -3 -4 -114 -8
-246 -10 -133 -2 -245 -6 -250 -9 -5 -3 -56 -8 -113 -11 -57 -4 -131 -11 -164
-16 -33 -6 -89 -14 -125 -19 -36 -5 -72 -11 -80 -14 -8 -3 -39 -8 -68 -11 -30
-3 -57 -7 -61 -10 -5 -2 -32 -6 -62 -9 -30 -3 -94 -10 -144 -16 -49 -6 -125
-15 -168 -21 -43 -6 -124 -12 -180 -15 -56 -3 -136 -9 -177 -15 -41 -5 -106
-11 -145 -14 -38 -2 -131 -11 -205 -20 -74 -8 -148 -17 -165 -20 -16 -3 -167
-14 -335 -26 -168 -11 -316 -23 -330 -25 -14 -2 -76 -9 -139 -14 -62 -5 -152
-12 -200 -14 -47 -3 -116 -5 -152 -5 -36 0 -113 -5 -170 -10 -57 -5 -142 -13
-189 -16 -47 -3 -105 -5 -130 -5 -25 0 -94 3 -155 7 -110 8 -110 8 -107 33 2
14 10 32 18 40 7 9 23 38 36 65 12 28 21 53 20 57 -1 3 5 12 13 18 8 7 15 21
15 31 0 10 5 21 10 24 6 4 8 10 5 14 -2 5 10 28 27 52 18 24 53 85 78 134 26
50 53 101 61 115 8 14 28 45 45 70 17 25 39 63 49 85 10 22 24 47 30 55 7 8
15 27 19 43 4 15 24 57 46 92 22 36 40 72 40 80 0 8 23 47 50 87 28 40 50 78
50 84 0 6 7 17 15 24 8 7 17 26 20 44 4 17 22 49 40 70 19 22 33 42 31 45 -2
3 5 20 15 36 10 17 26 46 35 65 10 19 45 80 78 135 33 55 77 134 98 176 21 42
45 82 53 89 8 7 15 18 15 25 0 7 7 18 15 25 8 7 15 23 15 36 0 13 8 28 18 33
10 5 30 31 44 58 13 26 31 59 39 73 8 13 31 48 52 77 20 29 37 56 37 61 0 5
15 29 33 53 18 24 38 55 45 69 6 14 16 32 21 40 5 8 12 22 15 30 4 8 16 31 28
50 12 19 34 58 49 87 15 29 42 71 60 94 19 24 53 70 77 103 23 34 59 86 80
116 20 30 40 57 45 58 4 2 7 12 7 21 0 10 10 26 21 37 12 10 35 39 52 64 17
25 33 47 36 50 4 3 18 22 34 42 15 20 27 40 27 45 0 4 15 24 33 44 17 21 42
50 54 65 12 16 29 38 37 49 9 11 36 48 61 83 25 34 45 65 45 69 0 4 9 16 19
27 11 12 40 50 65 86 25 36 73 109 107 163 34 54 66 94 69 90z"/>
<g>
<path d="M8783 11297 c-23 -1 -45 -10 -64 -28 -16 -15 -29 -37 -29 -51 0 -12
5 -40 11 -61 5 -20 20 -44 32 -52 14 -9 37 -13 57 -10 24 3 44 14 63 37 24 27
28 40 24 72 -3 23 -16 49 -32 66 -20 21 -36 28 -62 27z"/>
</g>
<g>
<path d="M9055 10373 c-11 2 -31 1 -45 -4 -14 -4 -59 -18 -100 -31 -41 -12
-82 -23 -90 -23 -8 0 -31 -9 -50 -20 -19 -10 -37 -20 -40 -20 -3 -1 -25 -4
-50 -8 -25 -4 -59 -16 -75 -27 -17 -11 -38 -20 -47 -20 -10 0 -18 -4 -18 -10
0 -5 -7 -7 -15 -4 -8 3 -25 -5 -39 -19 -14 -14 -43 -28 -65 -32 -22 -3 -42
-12 -45 -20 -2 -7 -24 -16 -47 -20 -24 -4 -49 -14 -57 -21 -10 -10 -12 -26 -7
-57 4 -23 21 -61 38 -84 17 -24 34 -43 37 -43 4 0 17 -22 29 -49 11 -28 25
-52 30 -56 6 -3 31 5 58 17 26 13 49 30 51 39 1 8 -11 33 -29 55 -17 21 -39
57 -50 78 -10 22 -18 40 -16 41 1 0 58 29 127 62 69 34 170 76 225 94 55 18
105 35 110 39 6 4 30 12 55 18 25 6 61 14 80 17 19 3 43 14 53 23 10 9 23 25
29 36 7 13 6 22 -4 31 -7 7 -22 15 -33 18z"/>
</g>
<g>
<path d="M7741 10128 c-19 -1 -32 -10 -40 -29 -10 -22 -8 -37 12 -91 13 -36
33 -76 45 -88 12 -13 22 -30 22 -37 0 -7 4 -13 8 -13 5 0 15 -12 23 -27 7 -16
23 -41 34 -58 11 -16 26 -39 33 -50 6 -11 15 -27 19 -35 3 -8 20 -28 37 -43
17 -15 52 -58 78 -95 26 -37 64 -98 84 -137 20 -38 43 -74 50 -78 8 -4 14 -14
14 -22 0 -8 12 -36 26 -62 15 -26 33 -52 40 -56 8 -4 14 -15 14 -23 0 -8 4
-23 10 -33 7 -13 17 -17 36 -13 15 3 29 13 31 23 3 10 15 19 27 21 13 2 22 11
24 25 2 12 -12 43 -32 72 -20 28 -36 55 -36 59 0 5 -11 19 -25 32 -13 12 -32
45 -40 71 -9 27 -20 49 -24 49 -4 0 -18 19 -31 42 -13 24 -49 69 -79 100 -30
32 -56 67 -58 77 -1 11 -12 36 -24 58 -12 21 -35 52 -49 68 -15 17 -33 47 -39
67 -7 20 -15 38 -19 40 -4 2 -20 23 -37 48 -16 25 -47 66 -68 93 -31 37 -45
47 -66 45z"/>
</g>
<g>
<path d="M9704 9885 c-19 1 -41 -7 -57 -21 -15 -13 -27 -29 -27 -37 0 -7 -5
-18 -11 -24 -8 -8 -6 -24 6 -59 9 -26 24 -53 33 -60 9 -8 25 -14 35 -14 11 0
34 7 53 16 19 9 44 34 59 59 14 24 25 52 25 63 0 11 -9 30 -20 43 -10 13 -19
20 -20 16 0 -4 -10 -2 -22 5 -13 6 -37 13 -54 13z"/>
</g>
</g>
</g>
</svg>
