<?xml version="1.0" standalone="no"?>
<!DOCTYPE svg PUBLIC "-//W3C//DTD SVG 20010904//EN"
 "http://www.w3.org/TR/2001/REC-SVG-20010904/DTD/svg10.dtd">
<svg version="1.0" xmlns="http://www.w3.org/2000/svg"
 width="980.000000pt" height="980.000000pt" viewBox="0 0 980.000000 980.000000"
 preserveAspectRatio="xMidYMid meet">
<metadata>
Created by potrace 1.16, written by Peter Selinger 2001-2019
</metadata>
<g transform="translate(0.000000,980.000000) scale(0.100000,-0.100000)"
fill="#000000" stroke="none">
<g>
<path d="M3435 8600 c-12 0 -29 -8 -38 -17 -8 -10 -20 -38 -27 -63 -7 -25 -18
-52 -25 -60 -7 -8 -20 -44 -29 -80 -9 -36 -21 -69 -26 -74 -6 -6 -10 -19 -10
-31 0 -12 -4 -25 -8 -30 -5 -6 -19 -48 -31 -95 -12 -47 -33 -113 -47 -148 -13
-34 -24 -69 -24 -76 0 -8 -7 -27 -15 -42 -8 -16 -15 -36 -15 -45 0 -8 -4 -19
-9 -25 -5 -5 -22 -50 -39 -100 -16 -50 -35 -118 -42 -150 -7 -33 -23 -106 -37
-164 -13 -58 -30 -127 -38 -155 -7 -27 -21 -77 -30 -110 -9 -33 -20 -69 -25
-80 -5 -11 -11 -31 -14 -45 -3 -14 -8 -38 -11 -55 -4 -16 -14 -46 -23 -65 -8
-19 -19 -55 -24 -79 -4 -24 -19 -68 -33 -97 -14 -29 -25 -60 -25 -68 0 -8 -4
-17 -9 -20 -5 -3 -12 -22 -15 -41 -4 -19 -12 -35 -18 -35 -5 0 -40 -14 -77
-31 -36 -17 -86 -40 -111 -52 -25 -11 -63 -29 -85 -40 -22 -11 -47 -26 -56
-33 -8 -8 -23 -14 -31 -14 -9 0 -39 -16 -68 -35 -29 -19 -60 -35 -70 -35 -9 0
-32 -10 -51 -23 -19 -12 -52 -30 -74 -39 -22 -9 -69 -28 -105 -43 -36 -15 -96
-43 -135 -62 -38 -19 -88 -41 -111 -49 -22 -7 -73 -32 -114 -54 -40 -22 -78
-40 -85 -40 -6 0 -68 -27 -136 -61 -68 -33 -142 -69 -164 -79 -22 -10 -85 -37
-140 -59 -55 -21 -149 -62 -209 -91 -60 -28 -133 -57 -162 -65 -29 -7 -62 -19
-73 -25 -18 -9 -20 -18 -16 -51 3 -22 9 -49 15 -59 5 -10 32 -35 60 -55 27
-20 50 -41 50 -47 0 -5 9 -22 19 -37 11 -15 23 -39 26 -53 4 -14 22 -41 41
-59 19 -18 34 -38 34 -44 0 -7 20 -30 45 -53 25 -22 45 -47 45 -56 0 -8 21
-34 47 -58 26 -23 73 -68 105 -100 32 -31 58 -60 58 -65 0 -4 45 -55 100 -112
55 -56 100 -108 100 -115 0 -6 25 -34 56 -61 31 -28 62 -56 68 -64 6 -8 60
-64 119 -123 59 -60 105 -113 102 -118 -4 -6 32 -48 78 -93 83 -81 85 -83 71
-110 -8 -14 -16 -39 -18 -54 -1 -15 -14 -50 -28 -78 -14 -27 -39 -79 -55 -115
-17 -36 -35 -81 -41 -100 -6 -19 -18 -66 -28 -105 -9 -38 -26 -85 -37 -104
-13 -22 -20 -49 -18 -80 1 -30 -6 -62 -19 -90 -12 -23 -19 -48 -17 -54 2 -7
-4 -29 -15 -50 -10 -20 -20 -60 -22 -87 -2 -28 -15 -71 -30 -99 -14 -28 -26
-60 -26 -71 0 -12 -15 -54 -34 -93 -19 -40 -39 -88 -45 -107 -6 -19 -10 -51
-10 -70 1 -19 -6 -68 -14 -109 -8 -40 -20 -76 -26 -80 -6 -4 -14 -30 -17 -57
-6 -47 -4 -52 26 -83 29 -28 34 -30 49 -18 12 11 43 14 141 10 69 -2 154 -7
190 -12 36 -5 137 -6 225 -4 88 3 165 9 171 14 6 5 19 7 28 3 9 -3 22 -2 29 4
8 7 30 7 67 0 30 -5 74 -8 98 -5 23 2 44 1 47 -3 2 -4 27 -8 55 -9 27 -1 136
5 242 13 146 12 210 13 263 5 39 -6 88 -13 110 -15 22 -3 104 -4 181 -4 l141
1 43 -53 c24 -29 52 -62 61 -73 10 -11 44 -49 76 -85 32 -35 71 -77 87 -92 15
-15 33 -28 40 -28 6 0 18 -11 26 -24 8 -13 49 -61 90 -107 41 -45 82 -89 90
-98 8 -9 26 -25 40 -36 14 -11 50 -51 81 -90 31 -38 88 -103 128 -142 39 -40
71 -77 71 -83 0 -6 19 -31 41 -55 23 -25 48 -45 55 -45 8 0 14 -4 14 -9 0 -5
45 -59 101 -120 55 -61 106 -111 112 -111 7 0 32 -23 56 -50 31 -34 55 -52 78
-56 18 -3 46 -19 61 -35 24 -24 34 -28 60 -23 25 5 41 22 82 82 28 42 63 91
78 109 15 19 56 66 92 105 36 39 76 81 90 92 14 11 55 51 92 88 37 38 85 92
106 121 22 28 61 72 87 96 27 25 69 68 94 96 25 28 58 66 74 85 15 19 27 40
27 47 0 7 4 13 8 13 4 0 26 26 49 58 22 31 65 84 95 117 30 33 68 80 85 106
17 25 58 74 90 110 32 35 78 91 103 124 25 33 51 72 57 86 l11 25 165 2 c91 1
196 6 234 11 37 6 105 11 149 12 45 1 86 -1 93 -5 6 -4 19 -5 29 -2 10 4 142
9 293 12 150 4 434 7 631 8 338 1 357 2 378 21 15 14 19 26 15 45 -4 14 -13
32 -20 40 -7 8 -16 42 -20 75 -4 33 -13 67 -20 75 -7 8 -15 40 -18 70 -3 30
-11 82 -17 115 -6 33 -15 80 -20 105 -5 25 -14 67 -19 93 -6 27 -13 52 -16 57
-3 5 -9 28 -14 52 -5 24 -19 86 -31 138 -12 52 -26 129 -31 170 -5 41 -12 102
-15 135 -3 33 -9 76 -15 95 -5 19 -13 73 -18 120 -5 47 -19 135 -31 195 -12
61 -26 117 -30 126 -5 9 -11 38 -15 65 -4 27 -21 103 -37 169 -16 66 -31 134
-33 150 -1 17 -6 53 -10 80 -4 28 -14 58 -23 68 -12 14 -13 22 -3 44 6 14 21
38 32 52 11 14 41 58 67 97 26 39 63 92 82 119 19 26 53 70 76 97 23 26 50 65
60 86 10 20 32 55 49 77 17 22 43 60 59 84 16 24 30 60 33 80 5 35 3 38 -63
86 -37 27 -75 54 -85 60 -10 5 -64 41 -121 79 -57 38 -112 77 -123 86 -11 10
-31 21 -44 25 -14 4 -45 22 -70 40 -25 17 -86 64 -135 103 -49 40 -99 72 -111
72 -17 0 -24 9 -34 48 -6 26 -19 81 -27 122 -8 41 -23 125 -35 185 -11 61 -24
142 -29 180 -5 39 -20 115 -34 170 -14 55 -26 111 -26 126 0 14 -6 31 -12 37
-7 7 -14 35 -15 63 -1 28 -6 55 -11 62 -5 7 -12 28 -16 48 -3 20 -15 54 -26
77 -11 23 -20 49 -20 59 0 10 -11 52 -24 93 -13 41 -31 93 -41 115 -10 22 -20
67 -22 99 -2 33 -11 78 -20 100 -8 23 -20 56 -26 74 -7 17 -17 32 -23 32 -7 0
-14 12 -17 28 -3 15 -14 68 -25 117 -11 50 -23 106 -27 125 -5 19 -11 40 -15
45 -4 6 -8 43 -9 83 -1 58 -7 79 -26 109 -14 19 -25 46 -25 58 0 12 -10 31
-22 42 -13 12 -40 24 -60 28 -28 5 -48 2 -80 -14 -24 -12 -71 -38 -106 -56
-35 -19 -73 -37 -85 -39 -12 -2 -35 -11 -52 -20 -16 -9 -33 -16 -37 -16 -4 0
-26 -13 -50 -29 -24 -15 -92 -53 -153 -84 -60 -31 -144 -72 -187 -92 -42 -19
-83 -35 -91 -35 -8 0 -20 -7 -27 -15 -7 -8 -19 -15 -26 -15 -8 0 -23 -4 -34
-10 -11 -5 -30 -15 -42 -21 -12 -7 -40 -21 -63 -33 -22 -12 -73 -43 -113 -69
-40 -26 -81 -47 -92 -47 -10 0 -21 -4 -24 -8 -3 -5 -31 -14 -63 -21 -32 -8
-71 -20 -88 -29 -16 -8 -32 -18 -35 -21 -3 -4 -23 -16 -45 -27 -22 -11 -62
-26 -90 -33 -27 -7 -59 -17 -70 -22 -11 -5 -35 -11 -53 -13 -19 -2 -48 3 -65
12 -18 8 -46 25 -64 38 -17 13 -37 24 -43 24 -6 0 -14 10 -19 23 -5 13 -40 41
-80 65 -39 23 -74 42 -78 42 -5 0 -25 11 -46 25 -20 14 -37 23 -37 20 0 -2
-55 23 -122 57 -68 34 -145 75 -173 91 -27 17 -64 38 -81 47 -17 10 -42 24
-55 32 -12 7 -32 21 -43 31 -11 9 -25 17 -32 17 -7 0 -17 6 -21 13 -4 8 -46
33 -93 56 -47 23 -94 47 -106 54 -11 7 -28 20 -38 30 -10 9 -23 17 -30 17 -8
0 -19 7 -26 15 -7 8 -30 20 -51 27 -22 6 -39 14 -39 18 0 4 -20 11 -45 14 -24
4 -47 12 -51 17 -3 6 -24 24 -46 40 -23 16 -50 29 -61 29 -11 0 -26 8 -33 18
-8 10 -13 12 -14 5 0 -7 -5 -13 -10 -13 -6 0 -5 8 2 19 9 15 9 23 -1 35 -8 9
-23 16 -36 16z m35 -180 c4 0 13 -7 20 -15 7 -9 21 -13 31 -10 10 3 21 0 26
-9 4 -8 49 -35 100 -61 51 -25 95 -50 98 -55 3 -5 11 -7 18 -4 7 2 28 -7 46
-20 19 -14 37 -24 40 -21 4 2 25 -11 48 -28 22 -18 67 -45 99 -62 32 -16 64
-37 71 -45 6 -8 15 -12 18 -8 4 4 24 -1 45 -12 20 -10 77 -44 126 -74 49 -30
94 -60 101 -66 7 -5 15 -10 18 -10 4 0 37 -18 75 -40 38 -22 75 -40 83 -40 8
0 24 -9 37 -20 13 -11 33 -20 46 -20 13 0 26 -5 30 -11 3 -6 21 -17 38 -25 17
-8 40 -20 51 -27 11 -6 54 -38 95 -69 41 -31 84 -66 96 -78 12 -11 24 -20 28
-20 4 0 22 -11 40 -25 18 -14 37 -25 43 -25 5 0 18 -10 29 -21 10 -12 35 -28
54 -36 19 -8 66 -41 105 -72 38 -32 88 -68 110 -81 22 -13 58 -38 81 -56 22
-18 59 -43 82 -56 23 -13 83 -45 135 -73 52 -27 129 -72 171 -100 43 -27 115
-78 162 -112 46 -35 87 -63 91 -63 5 0 30 -20 57 -45 27 -25 61 -53 75 -62 14
-10 41 -25 60 -35 18 -9 40 -26 48 -38 8 -11 22 -20 32 -20 9 0 35 -15 57 -33
21 -18 59 -47 83 -65 25 -18 49 -32 54 -32 6 0 26 -15 45 -32 19 -18 48 -45
63 -59 15 -15 31 -24 34 -21 3 3 19 -7 35 -23 17 -16 30 -25 30 -21 0 4 21
-11 46 -33 26 -23 53 -41 61 -41 9 0 28 -10 43 -22 16 -13 39 -31 51 -40 13
-10 37 -18 54 -18 23 0 33 -7 43 -28 7 -15 16 -51 19 -79 3 -29 2 -53 -2 -53
-4 0 -45 24 -92 53 -46 28 -93 57 -105 64 -11 6 -23 15 -27 20 -3 5 -28 20
-54 33 -26 14 -59 40 -73 58 -14 17 -31 32 -38 32 -7 0 -21 9 -31 20 -11 12
-42 32 -69 46 -28 14 -59 33 -69 42 -10 9 -28 17 -40 19 -12 2 -44 15 -72 29
-27 15 -56 31 -64 37 -7 6 -19 12 -25 13 -7 1 -33 14 -57 30 -24 15 -58 36
-76 45 -17 9 -66 43 -108 75 -42 32 -94 70 -115 84 -20 14 -57 38 -81 55 -24
16 -47 34 -51 39 -3 6 -20 17 -36 25 -16 9 -47 26 -70 38 -22 12 -46 29 -54
36 -8 8 -30 22 -48 32 -19 10 -48 27 -65 39 -16 12 -37 26 -46 31 -9 6 -29 19
-45 30 -16 10 -45 31 -64 46 -19 15 -64 42 -100 60 -36 18 -83 46 -105 63 -22
17 -41 34 -43 38 -2 4 -41 26 -86 48 -46 22 -101 54 -122 71 -22 17 -77 56
-124 86 -47 31 -103 67 -125 82 -22 14 -60 42 -85 62 -25 20 -89 58 -143 84
-54 26 -100 52 -103 56 -3 5 -14 9 -25 9 -10 0 -19 5 -19 10 0 6 -24 21 -54
35 -30 14 -59 25 -65 25 -5 0 -34 13 -63 29 -29 16 -69 34 -89 40 -20 6 -42
22 -49 36 -8 15 -22 25 -36 25 -14 0 -25 8 -29 20 -3 11 -14 20 -24 20 -10 0
-24 6 -30 14 -8 10 -23 13 -46 9 -22 -4 -47 1 -70 11 -20 10 -50 16 -68 14
-29 -3 -33 -7 -44 -53 -7 -27 -17 -59 -22 -70 -6 -11 -12 -40 -16 -65 -3 -25
-6 -52 -6 -60 -1 -8 -1 -28 1 -45 1 -16 -4 -50 -10 -75 -7 -25 -21 -65 -33
-90 -11 -25 -31 -59 -43 -77 -13 -17 -24 -38 -24 -47 0 -8 -4 -17 -9 -21 -5
-3 -12 -20 -16 -38 -4 -17 -17 -54 -30 -82 -13 -27 -33 -81 -45 -120 -12 -38
-28 -77 -35 -85 -7 -8 -15 -31 -19 -51 -4 -21 -13 -42 -21 -49 -8 -7 -15 -29
-15 -50 0 -23 -9 -51 -25 -74 -14 -20 -25 -40 -25 -44 0 -5 -16 -25 -35 -46
-23 -25 -35 -48 -35 -67 0 -24 -7 -32 -42 -49 -22 -11 -57 -23 -76 -26 -19 -4
-53 -17 -76 -30 -23 -13 -46 -24 -52 -24 -7 0 -5 17 6 48 9 26 22 60 28 75 7
16 12 34 12 40 0 7 9 37 21 67 11 30 27 82 35 115 8 33 26 107 40 165 14 58
32 123 41 145 8 22 23 78 34 125 10 47 24 112 32 145 7 33 19 70 25 81 6 12 9
24 5 27 -3 4 -1 12 5 19 5 7 26 54 46 104 20 50 36 100 36 111 0 10 4 23 9 29
6 5 24 58 41 118 17 59 35 118 40 130 4 11 14 41 21 66 6 25 20 68 29 97 9 28
22 59 29 67 8 9 17 16 21 16z m3273 -121 c5 1 7 -19 6 -44 -2 -32 2 -49 13
-57 9 -7 22 -29 30 -48 8 -19 20 -51 27 -70 7 -19 17 -57 23 -85 5 -27 14 -57
18 -66 5 -9 13 -43 19 -77 5 -33 18 -73 28 -88 10 -15 26 -55 36 -88 10 -34
26 -88 34 -121 9 -33 20 -69 24 -80 5 -11 16 -47 25 -80 9 -33 20 -65 24 -70
5 -6 14 -33 21 -60 6 -28 17 -61 24 -75 7 -14 20 -68 29 -120 9 -52 21 -115
27 -139 5 -24 12 -71 16 -105 3 -33 12 -70 19 -81 7 -11 15 -38 18 -60 3 -22
8 -65 10 -96 3 -31 12 -78 21 -105 8 -27 19 -62 24 -79 5 -16 12 -55 16 -85 3
-30 10 -73 15 -95 5 -22 21 -89 34 -150 14 -60 33 -146 42 -190 10 -44 28
-102 41 -128 12 -27 23 -56 23 -66 0 -10 6 -37 14 -62 7 -24 19 -69 26 -99 7
-30 16 -60 21 -65 4 -6 11 -37 15 -70 4 -33 7 -76 6 -95 -2 -26 -12 -45 -43
-75 -22 -22 -48 -56 -58 -74 -10 -19 -23 -37 -29 -39 -6 -2 -14 9 -17 25 -3
15 -10 46 -15 68 -5 22 -16 69 -24 105 -8 36 -22 110 -30 165 -9 55 -20 134
-26 175 -6 41 -21 118 -34 170 -14 52 -32 122 -41 155 -9 33 -23 81 -31 107
-9 26 -16 53 -18 60 -1 7 -5 19 -9 26 -5 6 -5 17 -2 22 4 6 0 39 -8 73 -8 34
-22 98 -32 142 -9 44 -30 132 -47 195 -16 63 -33 131 -38 150 -4 19 -11 46
-14 60 -3 14 -8 39 -12 55 -3 17 -20 66 -36 110 -17 44 -37 94 -44 110 -6 17
-19 47 -28 69 -9 21 -16 51 -16 67 0 16 -9 52 -21 81 -11 29 -29 75 -40 103
-10 27 -19 61 -19 75 0 14 -14 63 -31 110 -17 47 -42 117 -55 155 -14 39 -26
86 -28 106 -2 20 -6 41 -9 46 -3 5 0 21 7 35 8 14 11 38 9 52 -3 14 -11 26
-18 26 -7 0 -15 6 -18 14 -4 10 -15 13 -34 10 -15 -3 -35 -11 -43 -18 -8 -8
-31 -21 -50 -30 -19 -8 -76 -29 -127 -45 -50 -16 -102 -36 -115 -45 -14 -9
-27 -14 -30 -11 -3 3 -18 -1 -34 -10 -16 -8 -34 -15 -39 -15 -6 0 -44 -15 -85
-33 -41 -18 -91 -42 -110 -53 -19 -12 -46 -25 -60 -29 -14 -4 -46 -19 -72 -32
-26 -13 -53 -32 -60 -40 -7 -9 -54 -36 -105 -60 -51 -24 -94 -47 -98 -52 -3
-5 -33 -22 -68 -39 -35 -16 -83 -43 -106 -60 l-43 -32 -32 22 c-17 12 -35 28
-39 35 -4 7 -14 13 -21 13 -7 0 -23 11 -35 24 -13 13 -34 27 -48 31 -13 3 -23
11 -20 18 2 7 13 13 25 15 11 2 26 10 32 18 7 8 19 14 27 14 7 0 25 7 38 16
15 10 34 14 49 10 14 -3 28 0 35 8 6 7 46 28 89 45 42 18 90 39 105 47 16 8
37 14 46 14 10 0 29 9 43 19 13 11 51 32 83 48 33 17 108 55 166 86 59 31 129
62 155 68 27 7 60 20 74 29 14 9 48 25 75 35 28 10 64 28 80 40 17 12 74 45
127 74 54 28 106 55 115 60 10 5 38 16 63 24 25 8 61 20 80 27 19 7 42 16 50
21 8 4 19 8 23 8z m-2897 -413 c9 -3 19 -6 24 -6 4 0 10 -9 13 -20 3 -13 10
-18 21 -14 9 3 46 -6 84 -21 37 -15 157 -72 267 -127 110 -56 220 -116 245
-134 25 -18 69 -50 99 -70 49 -35 52 -39 35 -51 -10 -7 -27 -13 -38 -13 -12 0
-36 -9 -54 -20 -18 -11 -39 -20 -48 -20 -8 0 -32 -11 -52 -25 -20 -14 -46 -25
-58 -25 -11 0 -31 -11 -44 -25 -13 -14 -31 -25 -39 -25 -9 0 -33 -9 -54 -20
-20 -11 -42 -20 -48 -20 -7 0 -22 -11 -35 -25 -13 -14 -29 -25 -36 -25 -7 0
-30 -9 -51 -20 -20 -11 -42 -20 -47 -20 -6 0 -35 -16 -65 -35 -30 -19 -67 -38
-82 -41 -16 -4 -56 -25 -91 -46 -34 -21 -69 -38 -78 -38 -8 0 -32 -9 -53 -19
-20 -11 -43 -27 -50 -35 -8 -9 -22 -16 -32 -16 -10 0 -62 -22 -116 -50 -53
-27 -98 -48 -101 -46 -2 2 15 39 38 82 22 44 52 97 65 119 14 22 32 55 40 74
8 18 15 36 15 40 0 3 45 95 100 204 55 109 100 205 100 213 0 8 6 25 14 37 8
12 19 47 26 77 6 30 18 69 26 87 8 17 14 38 14 48 0 9 7 30 16 46 10 20 20 29
30 25z m2701 -20 c3 -3 0 -12 -7 -21 -10 -12 -9 -18 9 -32 12 -10 23 -27 25
-38 2 -11 14 -49 26 -85 12 -35 27 -75 34 -90 7 -14 27 -72 43 -130 17 -58 34
-122 37 -143 4 -21 16 -58 26 -83 11 -25 29 -82 40 -127 11 -45 25 -86 30 -91
6 -6 10 -20 10 -32 0 -13 5 -26 10 -29 6 -3 10 -16 10 -27 0 -12 11 -44 24
-72 14 -28 36 -103 50 -166 13 -63 31 -140 39 -170 8 -30 20 -86 27 -123 7
-37 11 -70 8 -72 -2 -2 -31 10 -63 27 -32 17 -88 54 -124 82 -36 28 -72 57
-81 65 -8 7 -49 38 -90 69 -41 30 -91 62 -110 70 -19 8 -61 38 -95 67 -33 29
-79 63 -102 75 -23 12 -47 28 -54 36 -6 8 -17 14 -24 14 -8 0 -15 4 -17 9 -1
5 -32 32 -68 60 -36 28 -98 74 -139 103 -40 29 -99 70 -130 90 -31 20 -78 49
-106 64 -27 14 -68 39 -91 54 -22 15 -66 39 -96 53 -31 15 -60 31 -63 37 -3 5
-21 17 -40 26 -19 9 -35 21 -35 28 0 6 28 27 63 47 34 21 108 60 165 89 56 28
102 55 102 59 0 4 17 13 38 20 20 7 57 26 81 42 25 16 49 29 54 29 5 0 47 18
93 40 46 22 89 40 96 40 7 0 37 14 67 30 30 17 63 30 73 30 10 0 32 7 49 15
16 9 51 20 77 26 26 6 62 13 80 16 18 3 35 10 38 15 3 5 8 7 11 4z m-1775
-487 c5 0 36 -21 70 -49 34 -27 67 -50 72 -50 6 0 18 -4 26 -10 12 -7 12 -12
-4 -29 -11 -12 -25 -21 -33 -21 -7 0 -13 -4 -13 -9 0 -5 -12 -11 -27 -14 -16
-3 -52 -26 -81 -51 -30 -25 -58 -46 -62 -46 -5 0 -29 -13 -53 -30 -25 -16 -54
-30 -65 -30 -12 0 -23 -4 -27 -10 -3 -5 -40 -25 -81 -45 -42 -19 -79 -35 -84
-35 -4 0 -13 -7 -20 -15 -7 -8 -36 -27 -64 -41 -28 -14 -65 -36 -83 -50 -17
-13 -38 -24 -46 -24 -8 0 -29 -10 -48 -22 -19 -13 -47 -29 -64 -37 -16 -7 -41
-18 -55 -23 -14 -6 -32 -14 -40 -19 -8 -4 -46 -25 -85 -45 -38 -20 -79 -44
-90 -54 -11 -9 -56 -34 -100 -56 -44 -21 -87 -43 -95 -49 -8 -6 -64 -32 -125
-58 -60 -25 -141 -58 -180 -72 -38 -14 -87 -35 -107 -46 -20 -10 -44 -19 -52
-19 -9 0 -16 -4 -16 -9 0 -5 -10 -13 -22 -16 -13 -4 -36 -12 -53 -19 -16 -8
-55 -25 -85 -40 -30 -14 -62 -30 -70 -35 -8 -6 -55 -28 -103 -51 -49 -22 -111
-50 -138 -60 -27 -11 -58 -20 -68 -20 -10 0 -24 -7 -31 -15 -7 -8 -22 -15 -35
-15 -12 0 -66 -22 -121 -50 -54 -27 -104 -50 -111 -50 -6 0 -51 -20 -100 -44
-48 -24 -122 -60 -163 -79 -41 -19 -100 -45 -130 -58 -30 -13 -68 -31 -85 -41
-16 -9 -89 -47 -162 -83 -73 -37 -143 -68 -155 -69 -13 -2 -39 -12 -58 -23
-19 -11 -50 -19 -69 -19 -29 1 -36 -3 -48 -31 -7 -18 -13 -39 -13 -47 0 -8 27
-42 60 -75 33 -33 60 -67 60 -76 0 -8 4 -15 8 -15 5 0 36 -27 70 -59 34 -33
62 -64 62 -69 0 -5 21 -32 48 -59 26 -28 103 -109 171 -181 68 -71 131 -148
141 -169 10 -22 31 -50 48 -61 16 -12 33 -33 36 -47 4 -14 12 -25 20 -25 7 0
20 -8 29 -17 13 -16 14 -20 1 -37 -8 -11 -14 -30 -14 -43 0 -13 -9 -51 -21
-85 -11 -35 -24 -71 -30 -80 -5 -10 -9 -23 -9 -30 0 -7 -9 -26 -19 -42 l-20
-30 -80 83 c-44 45 -104 110 -133 144 -29 34 -108 118 -175 186 -68 68 -123
127 -123 130 0 4 -31 41 -70 81 -38 40 -70 76 -70 79 0 3 -50 58 -112 121 -61
63 -127 140 -147 170 -20 30 -41 60 -47 65 -7 6 -42 56 -78 112 -37 56 -71
105 -76 108 -6 4 -10 17 -10 30 0 16 11 29 33 43 18 10 58 27 88 37 30 10 59
21 64 25 6 3 30 13 55 20 25 7 90 37 146 66 55 29 122 59 150 67 27 8 72 25
99 37 28 12 68 29 90 39 22 10 72 33 110 51 39 18 93 47 120 65 28 17 78 43
113 58 35 15 72 27 82 27 10 0 22 5 25 10 3 6 17 10 30 10 13 0 26 4 30 9 3 6
18 16 33 24 15 8 72 38 126 66 55 28 107 51 116 51 9 0 24 8 33 18 9 9 31 25
49 34 18 9 67 31 108 48 41 17 111 49 155 71 45 21 88 39 96 39 8 0 30 13 49
30 19 16 42 29 50 30 8 0 38 11 65 25 28 13 55 25 61 25 6 0 32 12 57 26 32
17 64 26 107 28 49 2 66 8 88 29 15 14 50 33 77 42 28 9 64 22 80 30 17 7 46
18 65 26 19 7 51 25 71 41 20 15 41 28 47 28 5 0 15 7 22 15 7 8 19 15 28 15
8 0 23 7 33 16 9 8 43 22 76 31 32 8 65 21 73 28 8 7 44 27 80 45 36 18 79 43
97 56 17 13 37 24 43 24 7 0 25 11 42 25 16 14 38 25 49 25 10 0 33 9 51 20
18 11 40 20 49 20 9 0 27 8 40 19 13 10 58 33 99 51 41 18 98 43 126 56 28 13
54 24 57 24 4 0 31 11 61 25 30 14 64 25 75 25 12 0 21 4 21 9 0 5 8 12 18 14
9 3 20 5 24 6z m320 -210 c5 1 25 -15 47 -34 21 -19 44 -35 50 -35 6 0 11 -3
11 -8 0 -4 17 -16 38 -27 20 -11 55 -33 77 -50 22 -16 86 -61 142 -100 56 -38
124 -82 150 -97 26 -15 63 -34 82 -43 18 -8 37 -15 42 -15 4 0 11 -9 14 -20 3
-11 12 -20 19 -20 7 0 21 -9 31 -20 10 -11 25 -20 33 -20 8 0 49 -31 91 -69
42 -37 86 -71 97 -75 12 -3 29 -15 39 -26 10 -11 24 -20 31 -20 7 0 25 -11 41
-23 15 -13 47 -32 71 -42 23 -11 42 -22 42 -26 0 -4 26 -15 58 -25 31 -10 67
-24 80 -32 12 -8 22 -20 22 -26 0 -7 5 -17 12 -24 9 -9 15 -9 27 2 11 10 23
11 39 5 13 -5 26 -18 29 -30 3 -12 11 -18 19 -15 7 3 30 -11 51 -31 21 -19 52
-45 69 -57 17 -11 59 -40 93 -63 35 -24 65 -43 68 -43 3 0 19 -10 36 -22 18
-13 43 -29 57 -37 14 -7 48 -25 75 -39 28 -14 64 -26 82 -26 29 -1 33 -5 47
-50 9 -26 16 -56 16 -65 0 -9 10 -43 21 -76 11 -33 24 -98 29 -145 5 -47 16
-119 25 -160 9 -41 22 -109 29 -151 8 -42 19 -86 25 -97 6 -11 11 -32 11 -45
0 -14 7 -41 15 -60 8 -20 19 -38 24 -41 5 -4 3 -18 -5 -35 -8 -16 -21 -34 -29
-41 -8 -7 -15 -16 -15 -21 0 -4 -25 -41 -56 -83 -30 -41 -62 -77 -70 -80 -7
-3 -14 -12 -14 -21 0 -8 -4 -15 -10 -15 -5 0 -16 -16 -24 -35 -8 -19 -30 -48
-50 -65 -19 -17 -41 -50 -50 -75 -8 -25 -28 -57 -45 -71 -16 -13 -47 -50 -68
-82 -22 -31 -51 -78 -66 -104 -15 -27 -32 -48 -37 -48 -5 0 -12 -9 -15 -20 -3
-11 -12 -20 -20 -20 -8 0 -16 -9 -20 -19 -3 -11 -17 -26 -30 -35 -14 -9 -29
-33 -35 -56 -6 -22 -15 -40 -20 -40 -5 0 -17 -16 -25 -36 -8 -20 -33 -54 -55
-76 -22 -23 -48 -57 -57 -77 -9 -20 -20 -38 -24 -41 -3 -3 -9 -15 -13 -27 -4
-13 -14 -23 -22 -23 -8 0 -14 -4 -14 -10 0 -5 -10 -18 -22 -29 -12 -12 -32
-38 -44 -58 -13 -21 -41 -75 -64 -120 -22 -46 -40 -86 -40 -91 0 -5 -14 -21
-31 -38 -18 -16 -40 -47 -51 -69 -11 -22 -27 -53 -35 -70 -9 -16 -32 -50 -52
-75 -20 -24 -41 -53 -48 -65 -7 -11 -21 -39 -32 -63 -11 -23 -40 -64 -64 -90
-23 -26 -48 -59 -54 -73 -9 -20 -21 -28 -55 -34 -23 -4 -59 -8 -78 -7 -19 0
-71 2 -115 5 -50 3 -85 1 -93 -5 -7 -6 -45 -10 -85 -9 -40 1 -76 2 -82 1 -5
-1 -59 -6 -120 -11 -60 -5 -132 -11 -160 -14 -27 -2 -99 -7 -160 -11 -60 -4
-356 -8 -656 -8 -469 -1 -548 1 -560 14 -8 8 -27 31 -44 51 -16 20 -39 49 -50
65 -11 16 -31 40 -45 54 -14 14 -39 42 -55 63 -17 22 -38 51 -47 65 -10 15
-45 56 -78 92 -33 36 -101 115 -151 175 -50 61 -95 121 -102 135 -6 14 -42 57
-79 96 -37 40 -68 76 -68 82 0 5 -13 18 -29 29 -15 10 -64 59 -107 110 -44 50
-88 103 -99 118 -11 15 -27 38 -35 50 -8 13 -33 45 -55 71 -22 27 -64 73 -92
103 -29 30 -53 61 -53 68 0 8 11 29 24 46 13 18 43 84 66 147 23 63 48 140 56
170 8 30 19 59 25 65 5 5 9 17 9 27 0 10 13 60 29 111 17 50 46 160 66 242 19
83 44 177 54 210 11 33 27 95 37 137 9 42 14 83 11 92 -3 8 2 25 12 38 10 13
23 46 30 73 7 28 27 88 45 135 18 47 52 137 75 201 22 64 41 134 41 157 0 34
4 42 28 51 15 6 41 20 57 31 17 11 44 27 62 35 18 8 38 15 45 15 6 0 32 9 57
21 25 11 54 25 63 30 10 5 23 9 29 9 6 0 23 8 37 18 15 10 49 24 77 30 27 7
55 18 62 24 8 6 44 26 80 44 37 19 74 34 84 34 9 0 22 6 28 14 7 8 20 14 29
14 9 -1 46 13 82 31 36 17 97 49 135 71 39 22 102 55 141 74 39 19 76 42 84
50 7 9 17 16 22 16 5 0 29 14 53 30 24 17 51 30 60 30 10 0 34 13 54 28 20 15
48 33 64 40 15 6 27 16 27 21 0 4 13 11 30 14 16 4 58 24 94 46 36 21 81 44
100 51 20 6 39 16 42 22 4 5 34 28 67 49 33 21 70 39 82 39 12 0 25 3 29 8 4
4 24 12 44 18 20 7 40 12 44 13z m-2133 -1039 c9 0 11 -7 8 -22 -3 -13 -9 -41
-12 -63 -4 -22 -15 -58 -25 -80 -9 -22 -21 -55 -25 -72 -3 -18 -11 -35 -16
-38 -5 -4 -9 -15 -9 -26 0 -11 -6 -30 -14 -42 -8 -12 -20 -49 -27 -82 -7 -33
-15 -64 -19 -70 -4 -5 -11 -28 -15 -50 -4 -22 -11 -45 -16 -51 -5 -6 -14 -33
-20 -60 -5 -27 -16 -83 -22 -125 -7 -41 -20 -86 -28 -100 -9 -13 -19 -48 -22
-78 -4 -30 -13 -61 -22 -71 -8 -9 -15 -27 -15 -41 0 -13 -6 -44 -14 -69 -8
-25 -31 -97 -51 -160 -19 -63 -35 -122 -35 -131 0 -9 -3 -19 -6 -22 -4 -4 -15
-30 -25 -59 -10 -29 -18 -61 -19 -70 0 -10 -7 -34 -16 -55 -9 -21 -25 -54 -34
-73 -10 -19 -21 -51 -25 -70 -4 -19 -20 -60 -35 -91 -15 -32 -31 -72 -35 -90
-4 -19 -18 -55 -30 -80 -13 -25 -28 -67 -34 -95 -5 -27 -19 -79 -30 -116 -11
-37 -27 -78 -35 -90 -9 -12 -16 -39 -16 -59 0 -24 -8 -48 -23 -66 -13 -15 -22
-35 -22 -43 1 -8 -9 -35 -21 -60 -12 -25 -30 -63 -39 -86 -9 -22 -18 -54 -19
-70 -1 -16 -12 -61 -24 -100 -12 -39 -31 -83 -42 -97 -11 -14 -20 -32 -20 -40
0 -8 -10 -26 -21 -41 -12 -15 -19 -30 -16 -33 4 -3 0 -21 -8 -40 -8 -20 -15
-44 -15 -55 0 -10 -9 -36 -19 -56 -10 -20 -24 -53 -30 -73 -6 -19 -11 -52 -11
-72 0 -32 4 -39 28 -48 15 -7 88 -11 172 -10 80 1 152 2 160 1 8 0 74 -3 145
-5 72 -3 193 -8 270 -10 77 -3 167 -7 200 -10 33 -3 120 -6 194 -6 108 0 137
3 151 16 17 15 20 14 46 -22 16 -21 32 -40 35 -43 3 -3 14 -21 24 -40 10 -19
27 -47 38 -62 11 -15 17 -31 13 -35 -4 -5 -60 -9 -124 -10 -65 -2 -187 -5
-272 -7 -85 -3 -173 -7 -196 -10 -23 -3 -46 0 -52 6 -5 5 -15 7 -21 4 -6 -4
-104 -10 -219 -13 -114 -3 -259 -5 -322 -5 -63 0 -203 3 -310 7 -107 4 -215
10 -240 14 -45 6 -45 6 -45 46 0 22 6 63 13 90 8 28 23 79 34 115 10 36 23 90
28 120 5 30 15 78 24 107 8 28 19 60 25 72 6 11 9 26 6 34 -3 7 6 33 19 58 16
28 26 60 26 86 0 23 4 44 8 47 5 3 15 31 22 63 7 32 23 95 36 141 13 45 28 91
34 102 6 12 20 49 31 83 11 34 29 96 40 137 11 41 32 92 46 113 14 20 41 73
59 117 18 44 36 94 39 112 4 17 18 53 32 80 13 27 27 65 30 86 3 20 9 42 13
47 4 6 21 57 39 115 18 58 41 121 51 141 10 19 22 53 25 75 4 21 13 50 20 64
7 14 23 57 35 95 13 39 29 79 37 90 7 11 13 28 13 38 0 11 11 40 25 66 13 25
41 100 60 166 20 66 50 158 66 205 17 47 34 99 39 115 5 17 22 66 38 110 17
44 40 105 53 135 12 30 30 73 39 95 10 22 24 60 31 84 10 33 20 46 43 56 17 8
38 16 46 19 8 4 47 26 85 51 39 24 76 45 84 45z m-398 -180 c12 0 19 -7 19
-20 0 -11 -4 -28 -9 -38 -6 -9 -23 -47 -40 -84 -16 -36 -32 -77 -34 -90 -2
-12 -13 -43 -24 -68 -11 -25 -30 -75 -42 -113 -11 -37 -21 -75 -21 -85 0 -9
-7 -26 -15 -36 -8 -11 -15 -28 -15 -38 0 -9 -11 -51 -24 -92 -14 -41 -31 -87
-39 -103 -8 -15 -18 -44 -22 -63 -4 -19 -16 -55 -27 -80 -11 -25 -31 -67 -43
-95 -13 -27 -29 -67 -35 -87 -6 -21 -16 -40 -21 -43 -5 -4 -9 -13 -9 -21 0 -8
-7 -31 -15 -51 l-15 -36 -48 50 c-27 28 -71 79 -98 113 -27 34 -69 83 -92 109
-24 25 -51 56 -59 69 -9 13 -29 30 -44 38 -16 8 -29 18 -29 23 0 4 -15 24 -32
43 -18 19 -60 66 -93 103 -33 37 -81 91 -107 119 -37 40 -45 55 -36 64 7 7 17
12 24 12 6 0 38 15 70 34 33 19 95 55 139 80 44 24 93 48 109 52 16 4 48 17
70 30 23 13 49 24 59 24 9 0 17 4 17 9 0 5 18 18 40 30 22 12 44 21 49 21 5 0
34 17 66 37 31 20 65 37 74 38 10 1 34 11 53 22 19 11 57 28 85 37 27 9 59 18
70 20 11 3 41 14 66 25 25 12 49 25 52 31 3 5 15 10 26 10z m4914 -10 c9 0 27
-11 40 -25 14 -13 25 -29 25 -35 0 -6 6 -10 13 -8 6 1 30 -8 52 -20 22 -13 65
-37 96 -55 31 -18 63 -37 70 -44 8 -6 39 -28 69 -48 30 -20 68 -44 83 -52 16
-8 50 -30 75 -50 26 -19 48 -39 50 -43 1 -4 -7 -28 -18 -55 -11 -26 -32 -61
-46 -78 -14 -16 -35 -48 -47 -70 -12 -22 -28 -50 -35 -63 -7 -13 -24 -32 -37
-42 -14 -11 -25 -26 -25 -32 0 -7 -11 -28 -25 -46 -14 -18 -25 -37 -25 -41 0
-5 -20 -23 -45 -41 -25 -17 -45 -38 -45 -45 0 -8 -19 -43 -42 -79 -24 -35 -52
-81 -62 -102 -11 -20 -34 -53 -52 -72 -18 -18 -43 -55 -56 -81 -13 -27 -28
-52 -35 -58 -6 -5 -13 -21 -15 -35 -2 -15 -11 -26 -22 -28 -11 -2 -28 -14 -37
-26 -10 -11 -19 -25 -19 -31 0 -5 -20 -35 -43 -67 -23 -31 -62 -82 -87 -115
-25 -32 -57 -78 -70 -103 -14 -25 -41 -68 -61 -95 -20 -28 -43 -56 -52 -63 -9
-7 -19 -26 -22 -42 -3 -16 -20 -47 -36 -69 -16 -23 -29 -44 -29 -47 0 -3 -19
-28 -43 -54 -24 -26 -49 -66 -56 -88 -8 -22 -24 -52 -37 -67 -13 -16 -24 -31
-24 -34 0 -4 -22 -30 -49 -58 -27 -28 -52 -61 -56 -72 -3 -12 -10 -21 -15 -21
-4 0 -20 -21 -36 -47 -15 -27 -44 -70 -66 -97 -21 -27 -38 -55 -38 -62 0 -8
-4 -14 -8 -14 -5 0 -43 -47 -85 -104 -43 -57 -86 -111 -97 -121 -11 -10 -20
-26 -20 -37 0 -10 -4 -18 -10 -18 -5 0 -10 -8 -10 -17 0 -10 -9 -29 -20 -43
-11 -14 -20 -33 -20 -42 0 -10 -8 -18 -17 -18 -10 0 -73 -2 -140 -3 -68 -1
-123 1 -123 6 0 4 6 10 13 13 8 3 32 33 54 67 23 34 58 89 79 122 21 33 49 80
62 105 13 25 32 54 43 66 10 11 19 23 19 26 0 4 27 47 60 97 33 49 67 105 74
123 8 18 24 42 35 52 12 11 21 24 21 30 0 6 16 33 35 61 20 27 39 52 44 55 5
3 18 23 30 45 12 22 33 58 46 80 13 22 27 47 31 55 4 8 26 38 48 65 23 28 48
58 58 68 9 11 31 46 48 79 18 33 49 78 69 100 20 22 47 52 61 66 14 15 41 52
61 82 19 30 54 78 77 105 24 28 46 55 51 61 5 6 20 29 35 52 14 23 34 46 44
51 11 6 25 24 32 41 7 16 16 30 21 30 5 0 9 5 9 11 0 5 25 41 55 79 30 38 55
73 55 77 0 5 13 24 30 43 16 19 29 40 30 47 0 6 25 37 55 68 30 31 55 59 55
64 0 4 27 34 59 68 32 33 68 77 79 99 11 21 33 52 47 67 15 15 31 42 36 60 6
18 13 41 16 52 3 11 7 33 10 49 5 22 0 33 -23 52 -16 13 -50 38 -76 55 -26 17
-50 40 -53 50 -4 13 -12 18 -22 15 -8 -3 -30 6 -49 22 -19 15 -34 34 -34 43 0
8 -4 19 -9 25 -4 5 -16 38 -25 74 -10 36 -20 73 -22 83 -4 11 0 17 11 17z
m103 -390 c4 0 21 -13 39 -28 l31 -27 -15 -47 c-9 -27 -20 -48 -24 -48 -4 0
-11 17 -14 38 -3 20 -10 51 -15 68 -6 17 -10 33 -10 37 0 4 3 7 8 7z m64 -820
c3 0 12 -21 18 -47 7 -27 14 -68 17 -93 3 -25 9 -50 14 -55 4 -6 17 -49 28
-95 11 -47 26 -114 35 -150 8 -36 22 -101 31 -145 9 -44 19 -96 22 -115 3 -19
9 -39 13 -45 4 -5 6 -21 4 -34 -3 -14 0 -38 6 -55 5 -17 15 -78 21 -136 6 -58
12 -116 14 -130 2 -14 9 -63 15 -110 6 -47 18 -114 26 -150 9 -36 22 -85 31
-110 8 -25 22 -79 30 -120 9 -41 17 -91 19 -110 1 -19 8 -55 14 -80 6 -25 17
-54 24 -65 6 -11 13 -34 14 -51 1 -17 9 -53 17 -80 8 -27 15 -55 15 -61 0 -9
-22 -13 -75 -13 -41 0 -86 -5 -99 -12 -20 -8 -35 -8 -66 1 -22 7 -45 9 -51 5
-6 -4 -80 -7 -163 -7 -84 0 -157 2 -163 6 -6 4 -22 3 -35 -2 -14 -5 -74 -9
-134 -9 -60 -1 -155 -4 -210 -7 -65 -4 -104 -3 -108 4 -4 5 -24 8 -46 6 -22
-2 -44 -6 -49 -10 -6 -3 -61 -8 -123 -10 -62 -3 -135 -8 -163 -12 -27 -3 -59
-8 -70 -10 -11 -2 -29 -4 -40 -3 -11 0 -74 0 -140 0 -66 1 -160 -2 -210 -6
-49 -3 -144 -7 -210 -9 -66 -2 -201 -6 -300 -9 -99 -3 -253 -9 -343 -14 -89
-4 -175 -4 -189 0 -15 4 -32 3 -38 -2 -6 -5 -76 -12 -155 -16 -80 -3 -214 -7
-299 -9 -84 -2 -204 -11 -265 -20 -69 -10 -157 -15 -227 -13 -96 2 -114 6
-114 19 0 8 -18 37 -40 64 -22 27 -55 64 -73 83 -20 21 -29 39 -24 44 5 5 87
9 183 8 96 -1 185 -1 199 -1 14 0 50 0 81 0 32 0 79 5 105 12 28 6 152 11 282
12 128 0 235 4 238 8 2 4 50 8 105 8 56 1 104 3 108 5 3 2 74 7 158 10 84 4
159 9 168 12 8 4 21 2 28 -4 9 -7 36 -8 87 -1 41 6 174 12 295 13 121 2 241 7
268 11 26 4 50 11 53 16 3 5 15 4 27 -3 15 -8 86 -12 217 -12 108 0 201 3 207
7 6 4 87 10 180 14 92 4 233 7 313 6 80 0 233 0 342 -1 l196 -1 61 30 c60 30
61 31 61 73 0 23 -7 51 -15 64 -9 12 -25 48 -35 79 -11 32 -20 67 -20 78 0 12
-4 25 -8 30 -5 6 -14 35 -21 67 -7 31 -12 85 -12 120 0 34 -9 117 -20 183 -11
66 -29 161 -40 210 -12 50 -25 104 -30 121 -5 17 -9 40 -9 51 0 12 -11 69 -25
127 -14 58 -25 123 -25 144 0 21 -7 63 -16 92 -10 33 -16 93 -16 156 l-1 102
34 34 c19 19 45 53 59 76 14 23 28 42 32 42z m-238 -321 c2 -2 14 -60 25 -128
12 -68 21 -135 21 -150 0 -14 7 -46 15 -70 9 -24 18 -64 21 -90 3 -25 10 -55
15 -66 4 -11 16 -51 24 -90 9 -38 18 -90 21 -115 2 -25 11 -76 19 -115 8 -38
14 -86 13 -105 -2 -19 6 -87 16 -150 9 -63 24 -130 32 -148 8 -18 14 -53 14
-77 l0 -44 -57 -17 c-32 -9 -65 -19 -73 -22 -8 -3 -19 -4 -25 -3 -5 2 -28 -3
-50 -10 -22 -7 -45 -16 -51 -21 -6 -4 -20 -6 -32 -3 -11 2 -32 -5 -44 -15 -21
-16 -44 -18 -216 -18 -105 0 -197 -4 -203 -7 -6 -4 -81 -9 -168 -11 -86 -3
-176 -5 -201 -6 -25 0 -62 0 -82 1 -27 1 -38 5 -38 16 0 9 5 21 10 28 6 7 30
39 54 73 24 33 49 72 56 85 7 13 31 47 52 75 21 28 38 55 38 60 0 5 15 25 33
44 19 19 62 73 98 120 35 47 73 101 83 120 11 19 40 59 65 88 25 30 56 68 69
85 12 17 22 41 22 52 0 12 14 34 31 51 17 16 51 59 75 96 24 37 48 70 54 73 5
3 10 13 10 22 0 9 16 40 36 70 19 29 53 74 75 101 22 26 44 52 49 59 5 6 27
41 50 77 22 37 40 72 40 78 0 6 2 9 4 7z m-4919 -249 c2 0 18 -15 34 -32 17
-18 31 -36 31 -40 0 -4 24 -33 53 -64 28 -31 58 -67 65 -80 7 -13 16 -24 20
-24 5 0 16 -16 25 -35 9 -19 22 -35 30 -35 7 0 21 -17 32 -37 11 -20 68 -84
128 -143 59 -58 107 -111 107 -118 0 -6 6 -15 13 -19 7 -4 26 -26 43 -48 16
-22 37 -49 48 -60 10 -11 36 -43 57 -72 21 -29 39 -55 39 -58 0 -4 12 -20 28
-36 15 -17 56 -61 92 -99 36 -37 76 -87 90 -110 14 -23 60 -78 103 -123 42
-44 77 -87 77 -94 0 -8 18 -33 41 -56 22 -23 57 -63 77 -89 20 -27 40 -48 46
-48 5 0 29 -21 53 -46 23 -25 43 -53 43 -61 0 -8 51 -64 113 -125 61 -60 115
-112 120 -116 4 -4 18 -18 30 -32 12 -14 48 -48 80 -77 32 -29 76 -75 98 -103
22 -27 64 -74 94 -104 30 -30 55 -59 55 -65 0 -5 18 -29 40 -51 22 -22 40 -48
40 -56 0 -8 58 -73 129 -145 72 -71 137 -129 145 -129 8 0 21 -7 29 -15 13
-13 18 -12 40 5 14 11 39 20 56 20 16 0 35 6 41 13 6 6 21 28 35 47 13 19 42
65 64 101 22 36 47 72 57 79 9 8 34 39 55 70 22 30 53 73 70 95 17 22 42 54
57 70 15 17 41 50 57 75 17 25 33 50 37 55 4 6 35 42 69 80 34 39 70 85 81
103 11 17 24 32 29 32 5 0 26 19 47 41 20 23 43 52 51 64 13 21 22 23 85 22
39 0 81 5 93 11 12 7 51 12 87 12 35 0 71 -3 80 -6 9 -3 16 -15 16 -25 0 -11
-20 -40 -45 -66 -25 -25 -45 -50 -45 -54 0 -5 -21 -31 -47 -57 -27 -27 -61
-67 -78 -91 -16 -23 -39 -53 -50 -68 -11 -14 -35 -42 -54 -62 -18 -20 -41 -47
-49 -61 -9 -14 -50 -67 -92 -118 -41 -52 -82 -105 -91 -118 -9 -14 -75 -84
-147 -157 -72 -72 -178 -181 -236 -242 -59 -60 -106 -113 -106 -118 0 -4 -19
-29 -43 -55 -23 -26 -49 -59 -56 -75 -8 -15 -21 -27 -30 -27 -9 0 -27 9 -41
20 -14 11 -30 20 -37 20 -6 0 -26 16 -45 35 -18 19 -85 82 -148 139 -63 58
-131 125 -150 150 -19 25 -50 53 -67 63 -18 10 -33 23 -33 29 0 6 -10 19 -21
30 -12 10 -32 35 -44 55 -13 19 -40 54 -61 77 -22 23 -55 63 -74 89 -19 26
-67 79 -105 118 -39 38 -87 88 -107 110 -20 22 -65 67 -100 101 -35 33 -74 74
-85 90 -12 16 -42 45 -66 64 -25 19 -53 47 -62 63 -9 15 -28 39 -41 52 -14 14
-29 25 -35 25 -6 0 -9 8 -7 18 1 10 -7 31 -19 47 -13 17 -27 35 -33 42 -5 6
-17 25 -27 41 -10 16 -37 53 -61 83 -23 30 -62 78 -85 108 -23 30 -49 64 -57
76 -8 12 -24 35 -35 51 -11 16 -46 61 -79 99 -33 39 -65 75 -70 81 -6 6 -28
33 -49 60 -20 27 -56 73 -80 103 -23 30 -57 74 -75 98 -18 23 -37 43 -42 43
-5 0 -15 11 -22 24 -7 13 -41 54 -75 90 -34 36 -70 78 -80 93 -9 16 -29 42
-43 59 -14 18 -33 42 -43 55 -10 13 -26 36 -35 52 -9 15 -24 30 -34 33 -10 3
-26 18 -35 32 -10 15 -30 40 -45 56 -15 17 -28 35 -28 41 0 6 4 15 9 20 4 6
18 44 31 85 12 41 28 87 36 103 8 15 16 27 19 27z m-137 -370 c4 0 20 -11 35
-25 15 -14 27 -30 27 -35 0 -6 27 -36 60 -68 33 -33 60 -62 60 -66 0 -3 16
-30 36 -59 20 -28 75 -93 123 -143 47 -50 114 -125 147 -166 34 -41 74 -95 90
-119 15 -24 48 -65 73 -90 25 -25 63 -65 84 -88 24 -27 37 -51 35 -64 -2 -17
-13 -23 -48 -29 -25 -5 -115 -6 -200 -2 -85 3 -202 9 -260 12 -58 4 -127 4
-155 1 -28 -4 -55 -2 -62 3 -7 6 -78 9 -165 8 -84 -1 -161 -2 -171 -1 -10 1
-20 7 -23 15 -3 8 1 30 9 48 8 18 18 47 22 63 3 17 11 57 17 90 6 33 17 67 24
75 7 8 16 29 20 45 4 17 15 46 25 65 9 19 29 67 43 105 14 39 30 95 36 125 6
30 34 101 61 157 27 56 49 106 48 110 -1 4 -1 14 0 21 0 6 4 12 9 12z m2957
-1296 c16 -4 76 -7 133 -5 77 2 102 0 102 -10 0 -7 -11 -24 -24 -38 -13 -14
-44 -48 -68 -76 -25 -27 -71 -83 -104 -124 -32 -41 -76 -99 -98 -130 -21 -31
-53 -72 -70 -91 -18 -19 -40 -46 -49 -60 -9 -14 -30 -44 -47 -68 -16 -23 -30
-49 -30 -56 0 -7 -14 -29 -30 -47 -17 -19 -38 -46 -46 -61 -8 -16 -20 -28 -28
-28 -7 0 -34 -11 -61 -25 -39 -21 -50 -23 -64 -13 -9 7 -43 40 -76 73 -33 33
-80 85 -105 114 -25 30 -70 83 -100 118 -30 35 -106 116 -167 180 -62 64 -113
119 -113 123 0 4 -19 25 -43 46 -24 22 -56 49 -71 62 -15 13 -26 30 -24 40 3
13 18 17 93 18 50 1 115 5 145 9 30 4 71 8 90 10 19 2 168 6 330 9 162 3 311
8 330 10 19 3 62 8 95 11 33 4 62 8 65 11 3 3 18 2 35 -2z"/>
<g>
<path d="M6065 5944 c-22 2 -51 1 -65 -2 -14 -4 -38 -16 -53 -26 -15 -10 -35
-32 -43 -47 -7 -15 -14 -43 -14 -61 1 -25 11 -43 44 -77 40 -40 48 -43 99 -45
42 -1 60 4 77 19 13 11 31 39 42 62 16 36 17 49 8 83 -6 22 -21 51 -33 65 -14
16 -36 26 -62 29z"/>
</g>
<g>
<path d="M3870 5817 c-19 1 -42 -1 -50 -3 -8 -3 -32 -12 -52 -21 -28 -12 -41
-26 -57 -64 -12 -26 -21 -54 -21 -61 0 -8 12 -26 28 -40 15 -15 39 -31 53 -37
15 -5 42 -9 60 -9 19 1 49 7 66 15 18 7 40 24 49 38 12 19 15 36 10 69 -4 25
-17 59 -29 78 -18 25 -30 33 -57 35z"/>
</g>
<g>
<path d="M4974 5550 c-38 0 -44 -3 -50 -25 -4 -15 2 -46 14 -77 11 -29 25 -69
32 -88 7 -19 21 -62 32 -95 11 -33 26 -76 33 -95 7 -19 18 -55 25 -80 7 -25
21 -70 30 -100 10 -30 23 -75 30 -100 7 -25 20 -70 30 -100 10 -30 20 -74 24
-97 3 -24 5 -43 3 -43 -2 0 -42 -14 -88 -30 -46 -17 -87 -34 -91 -38 -4 -4 -5
-25 -1 -45 4 -25 14 -44 29 -54 22 -14 29 -13 86 11 35 14 89 30 122 36 32 5
65 15 72 21 8 6 14 30 14 53 0 22 -7 55 -16 71 -9 17 -20 56 -25 88 -5 31 -23
84 -40 117 -17 33 -29 68 -28 77 1 10 -1 27 -5 38 -4 11 -12 29 -16 40 -5 11
-14 43 -20 72 -6 28 -18 60 -25 70 -8 10 -15 28 -15 40 0 12 -12 48 -26 80
-15 32 -28 74 -29 95 -2 20 -15 63 -30 97 l-28 61 -43 0z"/>
</g>
<g>
<path d="M5663 4150 c-4 -1 -21 -8 -38 -17 -16 -9 -52 -17 -80 -18 -27 0 -56
-5 -64 -9 -8 -5 -161 -10 -340 -12 -179 -1 -346 -5 -371 -8 -25 -3 -92 -7
-150 -10 -58 -3 -166 -10 -240 -17 -111 -10 -139 -15 -157 -32 -13 -11 -23
-28 -23 -38 0 -10 3 -25 6 -34 4 -9 17 -20 29 -25 11 -4 55 -4 96 1 41 5 130
12 199 15 69 3 157 9 195 14 39 4 165 8 280 8 116 0 278 3 360 7 83 3 177 10
210 14 33 5 81 5 107 1 26 -3 52 -3 59 1 7 4 18 24 25 45 8 22 11 46 8 55 -2
9 -27 26 -54 38 -27 12 -52 21 -57 21z"/>
</g>
</g>
</g>
</svg>
