<?xml version="1.0" standalone="no"?>
<!DOCTYPE svg PUBLIC "-//W3C//DTD SVG 20010904//EN"
 "http://www.w3.org/TR/2001/REC-SVG-20010904/DTD/svg10.dtd">
<svg version="1.0" xmlns="http://www.w3.org/2000/svg"
 width="1639.000000pt" height="2048.000000pt" viewBox="0 0 1639.000000 2048.000000"
 preserveAspectRatio="xMidYMid meet">
<metadata>
Created by potrace 1.16, written by Peter Selinger 2001-2019
</metadata>
<g transform="translate(0.000000,2048.000000) scale(0.100000,-0.100000)"
fill="#000000" stroke="none">
<g>
<path d="M16387 15362 c-1 2818 -2 513 -2 -5122 0 -5635 1 -7940 2 -5123 2
2818 2 7428 0 10245z"/>
</g>
<g>
<path d="M8017 19704 c-36 13 -38 13 -61 -15 -13 -16 -27 -42 -31 -58 -4 -17
-15 -33 -26 -36 -10 -4 -31 -22 -45 -40 -14 -19 -28 -52 -31 -73 -4 -30 0 -44
19 -67 14 -17 27 -37 30 -45 3 -9 24 -28 45 -43 23 -16 63 -31 96 -37 36 -6
69 -5 94 2 21 6 52 26 70 44 22 23 34 48 38 79 4 25 2 67 -5 97 -7 29 -18 64
-26 78 -7 14 -28 42 -47 63 -21 22 -44 37 -58 37 -13 1 -41 7 -62 14z m21
-114 c7 0 27 -13 43 -29 16 -16 29 -37 29 -45 0 -9 -8 -16 -17 -16 -9 0 -25
-7 -35 -17 -10 -9 -18 -22 -18 -29 0 -7 7 -20 16 -29 12 -11 25 -14 48 -9 19
4 27 3 21 -3 -5 -5 -28 -15 -51 -21 -34 -10 -46 -9 -72 4 l-32 15 25 23 c14
13 25 30 25 37 0 8 -6 21 -13 30 -7 9 -21 18 -32 21 -18 3 -16 7 15 36 19 18
41 32 48 32z"/>
</g>
<g>
<path d="M10472 18400 c-15 -1 -36 -8 -47 -18 -12 -9 -24 -25 -28 -35 -3 -9
-17 -21 -29 -26 -13 -5 -68 -54 -123 -108 -55 -55 -125 -117 -155 -138 -30
-22 -86 -64 -124 -95 -37 -30 -101 -75 -141 -100 -41 -25 -97 -61 -127 -81
-29 -20 -71 -52 -93 -72 -22 -20 -45 -37 -50 -37 -6 0 -20 -7 -30 -15 -11 -8
-63 -47 -115 -86 -52 -39 -131 -96 -176 -125 -44 -29 -87 -60 -94 -69 -7 -8
-16 -15 -21 -15 -4 0 -23 -14 -41 -31 -18 -17 -51 -40 -72 -51 -22 -11 -67
-38 -100 -61 -34 -22 -77 -54 -96 -69 -19 -16 -46 -38 -59 -51 -14 -12 -46
-38 -72 -57 -26 -19 -80 -61 -119 -93 -39 -33 -74 -65 -76 -72 -3 -8 -25 -23
-50 -34 -24 -12 -44 -26 -44 -31 0 -6 -5 -10 -11 -10 -6 0 -29 -15 -50 -32
-22 -18 -68 -58 -103 -89 -35 -31 -74 -62 -87 -69 -13 -7 -42 -28 -65 -47 -23
-18 -46 -33 -53 -33 -6 0 -11 -4 -11 -10 0 -5 -9 -10 -20 -10 -11 0 -20 4 -20
10 0 5 -11 12 -25 16 -13 3 -27 14 -30 23 -3 9 -17 24 -32 33 -16 9 -73 60
-128 113 -55 53 -116 109 -135 123 -19 14 -49 40 -66 57 -17 16 -45 41 -63 55
-18 14 -49 39 -69 55 -20 17 -41 34 -47 38 -5 4 -40 30 -77 57 -36 28 -69 50
-73 50 -3 0 -36 26 -73 57 -37 31 -68 60 -70 65 -2 4 -12 8 -22 8 -10 0 -30
14 -45 31 -14 18 -40 42 -58 55 -18 12 -57 37 -87 55 -30 18 -79 51 -108 73
-29 23 -70 56 -91 74 -21 17 -42 32 -47 32 -5 0 -34 21 -64 48 -29 26 -83 73
-119 105 -36 31 -84 73 -106 93 -22 19 -51 44 -64 54 -13 11 -27 17 -31 15 -4
-3 -13 2 -20 10 -7 8 -19 15 -26 15 -8 0 -14 4 -14 8 0 5 -27 30 -60 55 -33
26 -63 47 -68 47 -4 0 -27 18 -52 40 -24 22 -54 40 -66 40 -13 0 -32 -12 -43
-26 -12 -15 -21 -36 -21 -48 0 -12 8 -28 18 -36 9 -9 60 -43 112 -78 52 -34
104 -68 114 -74 11 -7 27 -21 37 -30 10 -9 28 -22 41 -29 13 -7 48 -34 78 -60
30 -26 96 -83 145 -126 50 -43 109 -93 131 -111 23 -18 46 -32 50 -32 5 0 25
-14 44 -31 19 -17 70 -57 114 -90 43 -33 89 -64 102 -69 12 -5 28 -18 34 -30
6 -11 16 -20 22 -20 7 0 37 -17 69 -37 31 -21 65 -50 75 -65 10 -15 30 -33 44
-40 14 -7 53 -33 86 -58 34 -25 101 -74 150 -110 49 -36 111 -86 138 -112 28
-27 54 -48 57 -48 4 0 59 -52 123 -115 63 -64 135 -130 159 -149 24 -18 53
-41 65 -51 17 -15 20 -26 15 -64 -3 -28 1 -68 11 -101 8 -30 16 -84 16 -120 0
-36 1 -105 2 -155 2 -49 6 -94 9 -100 4 -5 7 -99 7 -207 0 -108 3 -232 7 -275
4 -43 9 -81 11 -85 2 -3 5 -143 6 -310 1 -166 -4 -403 -11 -526 -11 -186 -11
-228 0 -250 7 -15 15 -30 17 -35 2 -4 -2 -6 -10 -5 -10 2 -14 -20 -18 -92 -3
-52 -2 -161 2 -242 4 -81 10 -164 12 -185 3 -21 8 -117 12 -213 l6 -175 -43
-45 c-24 -25 -75 -72 -113 -105 -37 -33 -109 -90 -160 -126 -50 -37 -100 -75
-112 -85 -11 -11 -32 -25 -46 -33 -15 -7 -48 -36 -73 -62 -26 -27 -55 -49 -64
-49 -10 0 -24 -11 -31 -25 -7 -14 -25 -32 -39 -42 -14 -9 -55 -41 -91 -72 -35
-31 -76 -66 -90 -79 -14 -13 -51 -42 -84 -64 -32 -22 -67 -49 -77 -59 -11 -11
-23 -19 -29 -19 -5 0 -32 -19 -59 -42 -27 -24 -71 -59 -98 -79 -26 -19 -69
-48 -95 -63 -27 -15 -48 -31 -48 -35 0 -5 -15 -15 -32 -22 -18 -7 -37 -18 -43
-25 -5 -6 -21 -14 -35 -18 -14 -3 -39 -19 -57 -36 -18 -16 -37 -30 -43 -30 -6
0 -27 -15 -47 -32 -20 -18 -50 -47 -68 -64 -18 -18 -57 -48 -88 -67 -30 -19
-61 -44 -68 -54 -8 -11 -47 -48 -88 -84 -41 -35 -106 -90 -145 -122 -39 -32
-78 -67 -86 -77 -8 -9 -53 -37 -99 -61 -58 -30 -90 -54 -103 -76 -11 -18 -29
-35 -41 -39 -11 -4 -43 -24 -70 -45 -27 -22 -53 -39 -59 -39 -5 0 -23 10 -39
23 -16 12 -44 33 -62 47 -18 14 -58 41 -89 60 -32 19 -58 38 -58 42 0 4 -6 8
-14 8 -8 0 -36 18 -63 41 -26 23 -66 57 -88 76 -22 19 -66 48 -99 64 -32 15
-79 45 -105 66 -25 20 -48 40 -51 43 -3 4 -50 43 -104 88 -55 45 -105 82 -111
82 -7 0 -20 10 -31 21 -10 12 -36 32 -56 45 -20 13 -59 43 -87 66 -27 24 -67
56 -88 71 -21 15 -69 51 -108 80 -38 29 -75 57 -81 62 -7 6 -47 38 -90 72 -44
35 -108 86 -144 114 -36 28 -109 80 -162 115 -53 35 -99 68 -103 73 -3 5 -25
19 -50 31 -24 12 -56 36 -69 53 -14 18 -32 39 -39 48 -8 9 -20 18 -27 21 -6 2
-12 15 -12 28 0 14 0 164 1 335 1 170 -1 354 -4 410 -3 55 -8 125 -11 155 -3
30 -10 165 -15 300 -5 135 -13 297 -18 360 -4 63 -5 225 -1 360 4 135 5 286 2
335 -3 50 -4 209 -4 355 1 146 4 285 7 310 6 43 4 47 -31 74 -33 26 -37 27
-52 12 -14 -14 -17 -43 -19 -174 -1 -86 -2 -413 -3 -725 0 -312 2 -572 5 -578
4 -5 11 -64 16 -132 5 -67 11 -220 13 -339 3 -119 8 -223 12 -230 5 -7 9 -78
10 -158 2 -80 2 -212 1 -295 -1 -82 -2 -202 -2 -265 0 -63 4 -127 9 -142 7
-25 4 -30 -24 -45 -17 -10 -59 -40 -93 -66 -34 -27 -86 -67 -115 -90 -29 -23
-65 -55 -80 -71 -15 -17 -36 -38 -47 -48 -11 -10 -45 -41 -76 -68 -31 -28 -61
-50 -67 -50 -6 0 -18 -10 -26 -21 -8 -12 -23 -27 -33 -33 -11 -6 -34 -20 -52
-31 -18 -11 -63 -39 -100 -62 -36 -24 -77 -51 -91 -60 -13 -10 -40 -33 -60
-51 -19 -19 -67 -58 -106 -87 -39 -29 -86 -61 -104 -70 -18 -9 -53 -32 -79
-50 -25 -18 -65 -42 -89 -54 -23 -12 -42 -26 -42 -31 0 -5 -12 -13 -27 -16
-16 -4 -50 -27 -78 -51 -27 -25 -61 -55 -75 -68 -14 -12 -69 -51 -122 -86 -54
-35 -123 -81 -155 -101 -32 -21 -89 -60 -128 -88 -38 -28 -79 -55 -90 -59 -11
-5 -51 -34 -90 -65 -49 -39 -76 -55 -90 -52 -11 3 -30 3 -41 0 -12 -3 -28 -23
-38 -45 -10 -21 -16 -49 -14 -61 2 -13 15 -27 35 -35 26 -10 34 -10 45 0 7 7
29 24 48 37 19 13 50 38 68 54 18 17 45 37 60 46 16 8 50 29 76 45 27 17 53
35 60 40 6 6 38 31 71 55 33 25 71 52 85 59 14 8 46 26 71 40 26 15 84 54 130
89 46 34 103 78 126 97 23 19 44 35 48 35 4 0 32 20 63 43 31 24 82 59 112 79
30 19 69 41 85 50 17 8 47 25 69 37 21 12 73 53 116 90 43 38 111 90 151 116
41 26 86 56 101 66 15 10 31 19 35 19 4 0 28 18 52 40 24 22 45 40 47 40 2 0
12 8 22 18 10 9 34 31 53 48 19 17 42 35 51 40 9 5 68 55 131 112 63 56 138
120 167 142 28 21 65 42 81 45 24 5 40 -3 106 -53 43 -33 84 -66 91 -75 8 -9
26 -19 42 -22 15 -3 36 -15 46 -26 10 -12 32 -27 49 -35 16 -8 44 -23 60 -33
17 -11 39 -26 51 -33 12 -7 39 -25 62 -40 22 -15 46 -35 54 -45 7 -10 49 -48
93 -84 44 -36 94 -74 110 -85 17 -10 44 -31 60 -45 17 -15 50 -43 75 -62 25
-20 69 -50 98 -67 28 -17 52 -35 52 -40 0 -5 20 -21 44 -35 23 -14 52 -35 62
-46 10 -12 56 -46 100 -75 45 -29 88 -64 96 -77 9 -12 35 -36 59 -52 24 -17
46 -33 49 -36 3 -4 23 -14 45 -23 22 -9 49 -25 60 -34 11 -10 34 -24 50 -32
17 -8 43 -26 58 -40 16 -14 49 -44 73 -67 25 -24 53 -43 62 -43 10 0 33 -12
51 -27 19 -16 54 -39 79 -53 25 -14 54 -36 64 -50 13 -18 21 -57 29 -140 6
-63 13 -198 16 -300 3 -102 6 -203 6 -225 1 -22 -1 -76 -2 -120 -2 -44 2 -138
8 -210 7 -71 13 -195 15 -275 2 -80 7 -185 10 -235 3 -49 8 -173 12 -275 3
-102 6 -304 6 -450 0 -146 -5 -310 -11 -365 -7 -61 -11 -282 -10 -571 1 -259
-1 -476 -5 -483 -4 -6 -26 -24 -48 -39 -22 -15 -59 -38 -83 -52 -24 -14 -69
-42 -102 -64 -32 -21 -74 -49 -93 -63 -19 -14 -91 -63 -160 -109 -69 -47 -141
-96 -160 -109 -19 -14 -41 -30 -48 -36 -8 -6 -57 -41 -110 -76 -54 -36 -100
-71 -104 -78 -4 -6 -32 -27 -61 -46 -30 -18 -64 -48 -75 -65 -13 -20 -33 -35
-51 -39 -17 -3 -56 -28 -87 -53 -32 -26 -69 -58 -84 -72 -15 -14 -44 -36 -64
-50 -21 -14 -57 -39 -80 -56 -24 -18 -53 -35 -65 -39 -12 -3 -47 -31 -77 -61
-31 -30 -60 -54 -65 -54 -5 0 -19 -6 -32 -12 -12 -7 -29 -19 -38 -25 -8 -7
-26 -14 -40 -14 -13 -1 -46 7 -74 19 -27 11 -81 36 -120 55 -38 19 -88 40
-110 46 -22 7 -49 16 -60 21 -11 5 -41 17 -67 25 -26 9 -105 43 -175 76 -71
33 -137 65 -148 69 -11 5 -49 20 -85 33 -36 13 -98 34 -138 47 -40 12 -75 26
-78 31 -3 5 -12 9 -20 9 -8 0 -33 12 -57 27 -23 15 -105 59 -182 98 -77 40
-150 75 -163 79 -13 4 -57 28 -98 52 -40 24 -86 47 -101 50 -16 4 -35 12 -43
19 -8 6 -32 20 -54 29 -21 10 -64 33 -95 52 -31 19 -64 34 -74 34 -10 0 -20
-7 -24 -16 -3 -8 -17 -20 -30 -25 -20 -7 -22 -12 -13 -29 6 -12 22 -25 35 -30
13 -5 26 -14 30 -19 3 -6 12 -11 20 -11 7 0 42 -17 76 -38 35 -21 89 -48 119
-61 30 -13 62 -27 70 -32 8 -5 33 -18 55 -29 22 -11 56 -29 75 -40 19 -11 42
-20 50 -20 9 0 31 -11 50 -25 19 -14 39 -25 44 -25 6 0 40 -15 76 -33 36 -19
92 -48 125 -65 33 -17 80 -38 105 -47 25 -9 98 -34 162 -55 64 -20 150 -54
190 -73 40 -20 105 -50 143 -67 39 -18 119 -49 178 -71 60 -21 123 -47 140
-57 18 -10 57 -27 88 -37 30 -10 68 -28 84 -41 29 -23 29 -23 29 -136 -1 -62
-2 -243 -2 -403 -1 -159 -2 -294 -2 -300 1 -5 1 -30 1 -55 0 -25 1 -63 1 -85
1 -22 -4 -80 -11 -128 -7 -48 -10 -120 -7 -160 3 -40 5 -81 5 -92 -1 -11 0
-51 1 -90 1 -38 2 -99 2 -135 0 -36 -3 -94 -7 -130 -3 -36 -6 -85 -7 -110 0
-25 -4 -85 -9 -134 -6 -63 -5 -95 3 -110 7 -11 14 -28 16 -36 2 -8 4 -125 6
-260 2 -169 6 -252 15 -268 8 -16 21 -22 44 -22 25 0 35 6 45 27 7 15 12 66
12 117 0 50 -5 120 -10 156 -6 36 -13 110 -18 165 -4 55 -6 174 -6 265 1 91 5
305 8 475 3 171 6 407 5 525 0 118 -1 332 -2 475 -1 143 1 283 4 310 4 28 7
61 8 75 1 19 21 41 81 88 44 35 103 79 131 97 28 19 54 35 57 35 3 0 39 31 81
68 42 38 97 81 122 95 25 15 55 37 65 48 10 12 31 27 46 35 14 7 64 46 110 85
45 39 100 86 121 105 21 19 42 34 47 34 5 0 30 15 55 33 26 17 54 37 63 42 10
6 49 31 87 56 39 26 79 56 89 68 11 11 23 21 28 21 5 0 35 18 66 39 31 22 116
77 187 123 72 46 144 90 162 97 18 7 37 19 44 27 6 7 31 24 55 36 42 20 47 21
72 6 15 -8 98 -52 186 -97 87 -44 163 -81 168 -81 6 0 22 -12 37 -28 16 -15
48 -44 72 -65 24 -20 67 -49 96 -63 29 -14 57 -32 64 -40 6 -8 16 -14 21 -14
5 0 86 -42 181 -94 95 -51 243 -135 331 -185 87 -50 208 -116 270 -147 61 -30
129 -66 150 -79 22 -13 45 -21 53 -18 7 3 13 -1 13 -9 0 -8 22 -29 48 -46 26
-17 122 -68 212 -114 91 -46 192 -96 225 -111 33 -15 89 -44 125 -64 36 -19
130 -69 210 -110 80 -40 159 -85 175 -98 30 -25 30 -26 40 -172 6 -82 8 -158
3 -170 -4 -12 -10 -46 -13 -75 -4 -29 -7 -136 -8 -238 0 -102 1 -280 3 -395 2
-116 1 -216 -3 -222 -5 -7 -6 -44 -3 -82 3 -39 9 -79 15 -90 6 -11 10 -76 8
-158 -1 -114 1 -144 15 -172 10 -18 15 -38 11 -44 -3 -5 -5 -94 -4 -196 1
-102 4 -247 6 -321 3 -74 6 -152 7 -173 3 -36 0 -40 -37 -60 -22 -12 -52 -33
-65 -46 -14 -12 -43 -35 -65 -51 -22 -15 -74 -44 -115 -65 -41 -21 -93 -51
-115 -65 -22 -15 -57 -35 -77 -45 -21 -9 -38 -21 -38 -25 0 -4 -42 -36 -92
-71 -51 -34 -126 -89 -167 -121 -40 -32 -79 -58 -86 -58 -6 0 -22 -11 -35 -25
-13 -14 -29 -25 -35 -25 -7 0 -38 -17 -71 -39 -32 -21 -99 -64 -149 -95 -49
-32 -128 -84 -175 -117 -47 -33 -101 -68 -120 -78 -19 -10 -62 -33 -95 -51
-33 -18 -83 -51 -112 -72 -28 -20 -54 -42 -58 -47 -3 -6 -31 -29 -63 -53 -31
-24 -88 -58 -127 -77 -39 -18 -82 -47 -97 -66 -15 -17 -79 -67 -143 -109 -63
-42 -115 -80 -115 -84 0 -4 -16 -18 -35 -31 -23 -16 -35 -31 -35 -47 0 -13 9
-28 20 -34 11 -6 31 -8 44 -4 14 3 40 20 58 38 18 18 49 41 68 51 19 11 59 38
89 59 30 22 67 53 82 70 15 17 53 46 86 65 32 19 77 47 100 62 23 16 44 29 47
29 3 0 41 28 84 63 42 35 104 78 137 97 33 19 71 41 85 51 14 9 64 42 111 73
47 30 94 65 104 76 10 11 22 20 28 20 5 0 38 22 73 50 35 27 69 50 77 50 7 0
21 6 32 14 11 7 46 28 79 45 32 18 91 56 130 85 39 29 96 74 126 100 30 26 69
55 85 63 17 9 56 36 87 60 32 24 95 64 140 88 46 24 104 55 130 69 26 13 67
39 90 57 24 19 45 36 48 39 3 3 27 20 54 38 27 18 55 32 61 32 6 0 30 -9 52
-20 23 -11 90 -66 150 -122 59 -56 122 -114 138 -128 17 -15 59 -54 95 -87 36
-32 90 -79 120 -103 30 -24 64 -52 75 -61 11 -10 36 -32 55 -48 19 -17 83 -71
142 -119 59 -49 126 -102 150 -118 24 -15 59 -42 79 -59 20 -16 47 -39 60 -50
13 -10 53 -39 89 -64 36 -24 79 -57 95 -72 17 -15 60 -53 96 -86 36 -32 105
-92 154 -133 49 -41 107 -88 130 -105 22 -16 54 -42 70 -57 22 -20 40 -28 68
-28 l37 0 0 44 c0 34 -6 49 -27 71 -16 15 -44 38 -63 50 -19 12 -77 59 -129
104 -52 45 -112 95 -135 111 -23 15 -61 49 -86 75 -25 26 -85 73 -133 106 -48
32 -90 59 -93 59 -3 0 -38 29 -77 65 -39 35 -85 71 -103 80 -17 8 -47 30 -66
47 -19 18 -60 54 -91 81 -30 26 -58 47 -61 47 -3 0 -25 19 -48 43 -24 23 -81
71 -128 107 -47 35 -121 96 -165 135 -44 38 -111 103 -149 142 -38 40 -92 88
-120 107 -28 19 -66 50 -85 70 l-34 35 -8 393 c-5 216 -13 429 -18 473 -5 44
-15 125 -21 180 -6 58 -11 281 -11 530 0 237 5 513 11 615 6 102 8 221 4 266
l-6 80 50 45 c27 24 82 67 123 94 41 28 139 115 219 195 80 80 163 159 185
177 22 18 54 42 70 55 17 12 44 36 61 53 18 16 54 49 80 71 27 23 72 59 99 79
28 21 80 65 117 99 37 33 91 81 120 106 29 25 77 64 106 85 28 22 52 42 52 46
0 4 21 23 48 43 26 19 72 56 102 81 30 25 87 69 125 99 39 29 124 92 190 139
66 47 128 93 139 103 10 9 28 22 40 28 11 6 55 36 96 67 41 31 112 81 157 112
45 32 88 57 96 57 8 0 22 -9 33 -21 10 -12 42 -37 71 -55 28 -19 58 -46 67
-59 9 -14 21 -25 26 -25 6 0 30 -20 56 -45 25 -25 49 -45 54 -45 5 0 22 -12
37 -26 15 -15 72 -58 126 -98 54 -39 146 -104 204 -143 58 -40 108 -73 111
-73 3 0 30 -19 60 -42 31 -24 88 -68 127 -98 40 -30 127 -98 195 -150 68 -52
151 -118 184 -146 34 -27 75 -59 91 -69 17 -10 50 -35 74 -54 25 -20 59 -45
76 -56 18 -11 83 -55 146 -98 63 -43 150 -102 194 -132 44 -30 88 -61 98 -67
10 -7 25 -33 34 -58 9 -28 17 -95 20 -175 3 -82 1 -150 -7 -185 -6 -30 -13
-149 -15 -263 -2 -159 -7 -216 -18 -240 -9 -18 -18 -77 -22 -132 -3 -55 -13
-192 -21 -305 -9 -113 -17 -261 -18 -330 -1 -69 2 -172 7 -230 4 -58 10 -154
11 -215 1 -60 6 -191 11 -290 4 -99 12 -188 17 -197 6 -12 20 -18 43 -18 18 0
41 8 50 17 14 14 16 28 12 77 -4 34 -11 203 -17 376 -6 173 -15 360 -19 415
-5 55 -7 161 -5 235 3 74 9 149 14 165 6 17 14 102 20 190 5 88 13 192 19 230
5 39 12 156 16 260 4 105 8 192 10 195 2 3 6 28 9 55 3 28 8 91 11 140 3 54 0
127 -8 183 -13 89 -13 93 7 110 12 10 40 28 63 40 23 11 70 42 105 68 35 27
79 59 98 73 19 15 52 35 73 45 20 11 54 34 75 51 20 18 62 48 92 68 31 19 62
42 69 51 7 9 18 16 24 16 5 0 49 24 96 54 47 30 103 61 124 70 20 8 37 20 37
25 0 6 5 11 10 11 6 0 31 15 56 33 25 17 75 55 112 82 37 28 81 56 98 64 18 7
49 28 69 47 21 19 60 47 86 62 27 15 82 47 121 72 40 25 92 64 116 87 23 23
54 49 70 57 15 8 36 23 46 35 11 12 23 21 29 21 5 0 44 25 86 56 42 31 92 69
111 83 19 15 62 42 95 60 32 19 93 62 135 97 41 35 98 75 125 88 28 13 55 30
61 37 6 8 14 33 18 57 5 34 3 44 -10 49 -9 3 -29 2 -45 -4 -15 -6 -58 -33 -95
-59 -37 -27 -86 -65 -108 -85 -23 -20 -59 -46 -81 -57 -22 -11 -58 -34 -80
-52 -22 -18 -56 -43 -75 -56 -19 -13 -78 -52 -130 -88 -52 -36 -120 -88 -150
-115 -30 -27 -71 -62 -90 -77 -19 -16 -44 -35 -55 -41 -11 -7 -42 -25 -70 -39
-27 -14 -70 -43 -95 -64 -25 -20 -59 -44 -77 -53 -17 -9 -38 -24 -47 -32 -8
-9 -26 -21 -38 -28 -13 -7 -51 -30 -86 -52 -34 -22 -111 -72 -170 -111 -59
-39 -122 -78 -139 -88 -18 -9 -47 -29 -65 -45 -18 -16 -53 -39 -78 -52 -25
-13 -68 -40 -96 -61 -28 -21 -54 -38 -57 -38 -4 0 -34 -19 -68 -42 -34 -23
-64 -48 -66 -55 -3 -7 -13 -13 -23 -13 -10 0 -27 -10 -37 -23 -10 -12 -52 -39
-93 -61 -41 -21 -92 -51 -112 -67 -24 -19 -43 -27 -54 -22 -10 4 -54 33 -98
66 -45 32 -118 83 -163 113 -46 30 -85 54 -88 54 -4 0 -53 36 -110 80 -57 44
-107 80 -111 80 -4 0 -37 25 -75 55 -37 30 -71 55 -75 55 -3 0 -21 12 -39 27
-18 16 -42 36 -54 46 -12 9 -40 31 -63 47 -23 17 -48 39 -55 50 -8 11 -21 20
-30 20 -9 0 -26 10 -38 23 -13 12 -34 30 -47 40 -12 9 -38 28 -57 42 -19 14
-39 25 -44 25 -4 0 -20 14 -34 31 -15 17 -36 35 -47 40 -12 5 -41 25 -66 44
-25 19 -60 42 -77 50 -18 9 -33 19 -33 23 0 4 -26 23 -57 41 -32 19 -79 52
-104 73 -25 21 -49 38 -55 38 -5 0 -28 17 -51 38 -22 20 -59 48 -82 62 -22 14
-41 30 -41 37 0 6 -4 13 -10 15 -5 2 -29 20 -52 41 -24 21 -69 58 -100 82 -32
25 -61 45 -66 45 -5 0 -8 80 -8 178 1 97 -2 364 -7 592 -4 228 -10 505 -12
615 -2 110 -5 405 -5 655 -1 250 4 556 9 680 6 124 11 295 10 380 0 85 5 202
11 260 5 58 13 134 16 170 l7 65 55 35 c30 19 59 37 65 39 5 2 19 11 30 20 11
9 40 33 64 54 24 20 47 37 51 37 4 0 55 33 112 74 58 41 129 91 159 113 30 21
129 97 220 170 91 72 185 147 209 165 23 18 57 45 75 59 17 14 50 36 72 48 22
13 53 34 70 48 16 14 73 50 125 80 52 31 111 68 130 82 19 15 51 33 70 40 19
7 46 18 60 24 14 6 50 28 80 48 30 19 88 58 128 84 41 27 81 59 88 71 8 12 28
27 43 34 16 6 39 22 52 36 12 13 27 24 33 24 6 0 43 26 81 56 39 31 73 62 77
68 5 8 12 8 25 -1 10 -7 36 -22 58 -34 22 -12 60 -39 86 -60 25 -22 53 -39 62
-39 9 0 21 -9 27 -20 6 -11 16 -20 22 -20 6 0 26 -11 44 -25 18 -14 38 -25 44
-25 6 0 23 -8 38 -17 15 -9 38 -26 52 -38 14 -12 41 -28 60 -35 19 -7 42 -19
50 -26 8 -7 57 -33 109 -58 51 -25 99 -50 105 -56 7 -5 32 -17 56 -25 24 -9
52 -24 62 -35 11 -11 22 -20 27 -20 4 0 59 -34 122 -76 63 -42 123 -85 134
-95 11 -11 49 -43 85 -72 36 -28 82 -65 103 -80 20 -16 50 -40 65 -54 15 -14
43 -37 62 -52 19 -14 45 -36 58 -48 13 -13 27 -23 32 -23 6 0 43 -30 82 -68
40 -37 94 -84 119 -104 25 -21 71 -61 102 -90 31 -29 77 -69 102 -88 26 -19
73 -59 106 -87 32 -29 65 -53 73 -53 8 0 26 21 40 46 14 26 26 53 26 60 0 7
-12 20 -28 28 -15 8 -36 23 -46 35 -11 12 -25 21 -31 21 -7 0 -30 19 -52 43
-21 23 -65 61 -96 85 -30 24 -57 47 -59 51 -2 3 -43 40 -91 81 -48 41 -102 85
-120 98 -18 12 -47 36 -66 52 -19 17 -54 45 -79 63 -24 17 -67 50 -95 72 -29
22 -74 53 -100 68 -26 16 -62 44 -79 63 -17 19 -36 34 -41 34 -6 0 -27 18 -48
39 -20 22 -63 53 -95 70 -33 17 -84 48 -114 70 -30 21 -89 56 -130 76 -41 21
-102 51 -135 68 -33 16 -83 45 -112 63 -28 19 -55 34 -59 34 -4 0 -22 11 -40
25 -18 14 -35 25 -38 25 -3 0 -31 16 -61 35 -31 20 -75 44 -99 54 -24 11 -59
33 -78 50 -20 17 -39 31 -43 31 -4 0 -29 18 -55 40 -26 22 -53 40 -58 40 -7 0
-13 56 -15 158 -3 90 -14 216 -27 297 -12 77 -24 172 -27 210 -3 39 -5 84 -5
100 1 17 1 99 1 184 0 85 -4 175 -10 200 -6 25 -17 105 -26 176 -11 101 -13
183 -8 370 4 132 8 319 11 415 2 96 6 294 9 440 2 146 9 335 15 420 5 85 13
167 16 181 5 21 0 31 -21 48 -15 11 -37 21 -49 21 -11 0 -30 -13 -41 -27 -14
-21 -20 -48 -23 -115 -3 -56 0 -93 7 -101 8 -10 9 -73 5 -213 -3 -109 -9 -312
-13 -450 -5 -138 -11 -257 -15 -263 -4 -7 -3 -18 3 -25 8 -9 7 -51 -1 -147 -7
-74 -11 -159 -9 -189 3 -30 4 -75 4 -100 1 -25 -1 -88 -3 -142 -2 -58 0 -102
6 -110 6 -7 12 -40 13 -73 2 -33 7 -68 12 -78 6 -10 8 -31 4 -47 -3 -15 -2
-31 4 -34 6 -4 10 -94 10 -234 0 -125 5 -267 10 -317 5 -49 13 -135 16 -189 4
-55 10 -109 14 -120 4 -12 7 -68 5 -126 -2 -58 -3 -108 -3 -112 -1 -3 -31 -30
-68 -59 -38 -29 -102 -83 -143 -119 -41 -37 -86 -70 -100 -74 -14 -3 -47 -23
-74 -43 -27 -21 -56 -42 -65 -48 -9 -5 -51 -34 -94 -62 -43 -29 -82 -53 -86
-53 -3 0 -30 -16 -60 -35 -29 -19 -56 -35 -60 -35 -4 0 -21 -13 -37 -29 -16
-16 -58 -44 -93 -61 -35 -18 -87 -52 -117 -76 -30 -24 -60 -44 -67 -44 -7 0
-24 -11 -37 -25 -13 -14 -30 -25 -37 -25 -8 0 -35 -20 -61 -43 -26 -24 -54
-48 -64 -53 -9 -5 -34 -25 -55 -45 -22 -20 -49 -42 -62 -48 -12 -7 -51 -37
-86 -67 -36 -30 -67 -54 -70 -54 -4 0 -31 -19 -60 -42 -30 -24 -69 -53 -87
-66 -18 -12 -49 -34 -68 -47 -19 -14 -46 -30 -60 -37 -14 -7 -45 -28 -69 -48
-24 -19 -59 -44 -77 -55 -18 -11 -71 -47 -118 -79 l-86 -60 -23 22 c-13 12
-27 22 -32 22 -5 0 -16 7 -25 15 -10 9 -43 31 -75 50 -32 19 -61 35 -65 35 -4
0 -13 7 -21 16 -7 9 -40 29 -73 46 -34 16 -86 46 -116 66 -30 20 -73 47 -95
61 -22 14 -58 40 -79 58 -21 18 -43 30 -49 26 -5 -3 -21 6 -36 20 -14 14 -39
37 -54 51 -15 14 -32 26 -36 26 -4 0 -28 15 -52 32 -24 18 -59 43 -77 55 -18
13 -50 32 -70 43 -20 11 -55 32 -77 46 -22 13 -60 34 -85 45 -25 11 -60 27
-77 36 -18 8 -33 19 -33 24 0 5 -15 15 -32 22 -18 8 -42 24 -52 36 -11 11 -27
21 -37 21 -10 0 -22 6 -26 13 -4 6 -19 19 -33 27 -14 8 -39 21 -56 30 -16 9
-43 25 -60 36 -16 12 -36 24 -44 28 -8 3 -35 17 -59 31 -24 14 -49 25 -56 25
-6 0 -48 27 -93 60 -45 32 -99 68 -122 80 -22 11 -40 25 -40 30 0 6 -6 10 -13
10 -7 0 -37 16 -67 37 -30 20 -85 62 -121 95 -37 32 -72 58 -77 58 -6 0 -16 9
-21 19 -6 10 -23 24 -38 30 -16 6 -48 27 -73 47 -25 19 -66 55 -91 80 l-46 44
-7 196 c-3 108 -13 249 -22 313 -12 91 -14 174 -9 386 3 149 10 311 15 360 5
50 11 182 12 295 1 113 -1 284 -5 380 -5 96 -12 290 -18 430 -5 140 -14 325
-19 410 -5 85 -12 189 -15 230 l-7 75 33 25 c19 13 73 59 121 102 48 43 89 78
92 78 3 0 27 15 53 32 26 18 60 45 74 59 15 15 41 36 59 46 18 10 43 24 56 31
13 7 24 17 24 21 0 4 40 40 89 80 49 39 92 78 94 86 3 7 30 29 59 48 29 19 64
46 77 61 14 14 33 26 43 26 10 0 18 4 18 9 0 4 39 32 88 61 48 30 105 67 126
84 22 17 55 39 75 49 20 11 59 36 86 57 28 21 75 53 105 73 30 19 74 50 97 68
23 19 83 63 135 99 51 35 97 70 101 77 4 7 22 20 38 29 17 8 48 32 71 52 22
20 62 48 88 62 26 14 81 48 121 75 41 28 97 73 126 101 29 27 65 57 80 65 15
8 58 43 96 79 37 36 94 89 127 119 52 46 58 57 56 86 -2 17 -6 37 -10 44 -4 6
-19 11 -34 11z m-2439 -5187 c7 -3 34 -22 62 -42 27 -20 63 -46 80 -58 16 -12
48 -34 70 -49 22 -15 62 -48 90 -73 27 -25 64 -56 82 -69 18 -12 37 -22 43
-22 6 0 13 -6 16 -14 3 -7 44 -37 92 -65 48 -29 92 -55 98 -59 6 -4 43 -28 82
-54 40 -27 76 -48 80 -48 4 0 45 -23 91 -50 46 -28 86 -50 88 -50 2 0 36 -22
76 -49 40 -27 98 -63 130 -80 31 -17 74 -41 95 -54 20 -13 66 -40 102 -59 36
-20 88 -48 115 -64 28 -15 73 -44 100 -63 28 -19 68 -47 90 -62 22 -15 49 -37
59 -48 11 -12 24 -21 29 -21 6 0 33 -17 61 -38 28 -20 65 -47 81 -59 17 -13
55 -37 85 -55 30 -17 69 -42 86 -55 17 -13 34 -23 38 -23 4 0 30 -16 59 -35
28 -19 55 -35 60 -35 4 0 31 -16 60 -35 28 -19 56 -35 62 -35 6 0 25 -13 43
-30 18 -16 36 -30 40 -30 4 -1 18 -10 31 -20 23 -20 23 -21 17 -183 -3 -89 -7
-293 -9 -452 -2 -160 -6 -296 -10 -302 -4 -6 -7 -198 -7 -425 0 -227 2 -505 5
-618 3 -113 8 -324 11 -470 3 -146 6 -281 6 -300 0 -19 0 -123 0 -230 -1 -107
2 -233 6 -280 4 -47 4 -112 0 -145 -4 -33 -5 -79 -2 -101 6 -41 5 -42 -53 -85
-32 -24 -83 -64 -113 -89 -30 -25 -63 -53 -74 -62 -11 -10 -24 -18 -29 -18 -6
0 -26 -12 -46 -27 -20 -16 -51 -38 -69 -50 -18 -13 -38 -27 -45 -33 -7 -5 -34
-27 -62 -48 -27 -21 -57 -41 -65 -45 -8 -4 -38 -24 -66 -45 -28 -20 -70 -53
-94 -72 -23 -19 -74 -61 -114 -92 -39 -31 -91 -75 -116 -97 -25 -22 -69 -59
-99 -83 -29 -24 -67 -53 -83 -64 -16 -12 -101 -84 -190 -159 -88 -76 -175
-153 -193 -172 -17 -18 -35 -33 -39 -33 -5 0 -29 -18 -54 -40 -26 -22 -76 -63
-111 -92 -35 -29 -70 -57 -79 -63 -8 -5 -64 -60 -124 -122 -61 -61 -116 -121
-125 -132 -8 -12 -20 -21 -27 -21 -8 0 -20 -7 -27 -17 -8 -9 -37 -33 -66 -55
-29 -21 -56 -38 -61 -38 -5 0 -25 -18 -46 -41 -31 -35 -40 -40 -64 -34 -15 3
-36 14 -47 24 -11 10 -47 30 -80 45 -33 16 -82 39 -109 52 -28 13 -55 24 -61
24 -6 0 -33 14 -61 32 -27 18 -60 38 -73 45 -13 7 -28 13 -34 13 -6 0 -18 7
-27 15 -10 9 -53 30 -96 48 -43 18 -109 49 -145 70 -36 20 -70 37 -76 37 -5 0
-28 13 -49 28 -21 16 -70 47 -109 70 -38 23 -77 46 -85 51 -8 5 -43 23 -77 40
-34 17 -68 31 -76 31 -8 0 -20 6 -26 14 -6 7 -50 33 -99 56 -48 24 -90 48 -93
53 -4 5 -16 14 -27 20 -11 7 -54 29 -94 51 -40 21 -82 46 -93 56 -11 9 -41 29
-66 43 -26 14 -48 24 -51 22 -3 -3 -13 4 -23 15 -10 11 -23 20 -28 20 -5 0
-44 16 -86 36 -42 20 -85 44 -96 54 -11 10 -39 26 -62 35 -23 9 -49 28 -58 41
-9 14 -25 24 -40 24 -13 0 -30 8 -37 18 -7 9 -21 22 -29 27 -9 6 -45 30 -79
55 -35 25 -86 57 -114 72 -28 16 -65 33 -84 39 -18 6 -45 22 -59 35 -14 13
-30 24 -35 24 -6 0 -22 9 -38 20 -25 18 -28 27 -34 97 -3 43 -7 265 -7 493 -1
233 3 461 9 520 6 58 12 179 13 270 1 91 -1 309 -5 485 -4 176 -12 361 -18
410 -6 50 -12 154 -13 232 -2 78 -6 166 -10 195 -3 29 -8 197 -10 373 -2 176
-6 334 -9 350 -2 17 -7 60 -11 97 -7 66 -6 68 22 95 16 16 45 39 64 53 19 14
59 48 89 76 30 28 80 67 110 88 30 20 58 36 62 36 5 0 23 12 40 28 18 15 53
46 79 70 25 23 51 42 58 42 6 0 11 4 11 8 0 5 46 49 101 98 56 49 125 106 153
127 28 20 77 61 109 89 33 29 67 57 76 63 10 5 39 26 65 45 27 19 57 43 69 53
11 9 24 17 29 17 5 0 30 14 56 32 26 17 49 35 52 38 3 4 39 29 80 56 41 27 87
55 102 63 15 8 36 22 45 31 10 9 59 46 110 82 50 37 122 92 160 123 37 31 88
74 113 95 25 21 65 56 90 78 25 21 56 47 69 58 14 10 40 34 59 52 19 17 40 32
46 32 6 0 33 17 58 38 26 20 68 53 94 72 26 19 84 67 128 105 45 39 96 83 114
98 19 15 39 24 45 20z"/>
<g>
<path d="M8281 11538 c-126 -2 -220 -9 -274 -19 -46 -9 -105 -19 -133 -22 -27
-3 -76 -10 -109 -17 -33 -6 -85 -18 -115 -25 -30 -7 -91 -23 -135 -35 -44 -12
-93 -27 -110 -35 -16 -7 -56 -25 -87 -39 -31 -14 -61 -26 -66 -26 -5 0 -20 -9
-34 -19 -13 -11 -38 -23 -54 -27 -16 -4 -40 -14 -54 -23 -14 -10 -36 -22 -50
-29 -14 -6 -52 -32 -85 -57 -33 -25 -67 -48 -75 -52 -8 -4 -46 -31 -83 -61
-37 -31 -75 -68 -83 -84 -8 -15 -22 -28 -32 -28 -10 0 -56 -41 -102 -91 -47
-51 -92 -104 -100 -119 -8 -15 -28 -49 -43 -76 -15 -27 -38 -67 -52 -89 -13
-22 -31 -55 -39 -74 -9 -18 -16 -38 -16 -43 0 -5 -11 -35 -25 -66 -14 -31 -37
-78 -50 -105 -14 -26 -25 -62 -25 -80 0 -18 -7 -43 -16 -55 -9 -13 -13 -30
-10 -39 4 -10 -1 -21 -13 -29 -13 -9 -21 -31 -25 -66 -4 -29 -7 -105 -8 -168
-1 -63 1 -178 4 -255 2 -82 10 -152 17 -170 8 -16 15 -41 17 -55 1 -14 6 -41
10 -60 4 -19 8 -44 10 -55 2 -11 7 -45 12 -76 6 -31 15 -65 20 -76 6 -11 21
-48 33 -84 12 -35 33 -86 46 -114 13 -27 36 -72 50 -100 15 -27 49 -81 76
-120 28 -38 77 -103 110 -142 33 -40 63 -73 68 -73 4 0 11 -10 15 -22 4 -13
19 -41 33 -63 15 -22 33 -52 40 -66 7 -15 33 -49 56 -76 24 -27 94 -88 157
-134 62 -47 155 -108 206 -137 51 -28 121 -61 155 -73 34 -12 76 -29 92 -39
17 -10 68 -33 115 -50 47 -18 113 -43 147 -56 34 -13 73 -24 87 -24 13 0 28
-4 31 -10 3 -5 30 -21 58 -33 36 -17 79 -26 141 -30 50 -4 109 -2 135 4 25 6
93 26 151 44 58 18 159 50 225 71 66 20 168 52 227 71 62 20 134 52 175 77 37
24 88 55 113 69 25 14 75 54 111 90 36 35 87 97 114 138 27 41 68 110 91 154
22 44 66 128 98 188 31 59 63 126 72 150 9 23 27 80 39 127 13 47 35 119 49
160 14 41 33 102 42 135 9 33 22 80 29 105 7 25 18 72 25 105 7 33 19 85 26
115 8 35 13 113 13 210 0 85 1 193 2 240 1 47 2 96 2 110 -1 14 -3 59 -6 100
-3 41 -8 127 -11 190 -3 63 -13 144 -22 179 -8 35 -19 71 -23 80 -5 9 -34 68
-66 131 -31 63 -62 124 -68 135 -7 11 -24 41 -40 66 -15 26 -41 73 -58 105
-16 33 -42 75 -57 95 -15 20 -56 63 -92 96 -36 33 -81 70 -100 83 -19 14 -49
39 -67 57 -18 17 -48 37 -68 44 -19 7 -35 17 -35 21 0 4 -8 8 -19 8 -10 0 -24
6 -30 14 -6 7 -30 20 -54 28 -23 9 -60 20 -82 26 -22 6 -65 18 -95 26 -30 9
-84 18 -118 21 -35 3 -81 9 -102 15 -22 6 -120 9 -229 8z m49 -113 c143 -3
244 -10 300 -21 47 -9 94 -21 105 -27 11 -6 33 -12 48 -14 16 -2 63 -17 104
-33 42 -17 93 -44 113 -60 21 -17 40 -30 43 -30 3 0 36 -28 73 -62 38 -35 77
-73 89 -85 11 -12 40 -47 65 -78 25 -31 68 -98 95 -149 28 -51 60 -106 73
-123 12 -17 22 -35 22 -40 0 -4 14 -37 31 -73 17 -36 37 -78 45 -95 7 -16 16
-46 20 -65 3 -19 10 -39 14 -45 4 -5 10 -41 14 -80 3 -38 8 -88 11 -110 3 -22
10 -50 16 -62 8 -14 8 -31 2 -50 -5 -16 -6 -103 -2 -208 3 -99 2 -220 -2 -270
-5 -49 -13 -142 -18 -205 -5 -63 -16 -135 -24 -160 -9 -25 -23 -81 -32 -125
-9 -44 -21 -96 -26 -115 -6 -19 -19 -53 -29 -76 -10 -22 -32 -89 -50 -150 -20
-72 -60 -168 -117 -282 -47 -96 -102 -197 -121 -225 -20 -29 -43 -66 -51 -82
-9 -17 -43 -55 -76 -86 -33 -31 -105 -83 -160 -116 -72 -43 -136 -70 -230
-100 -71 -23 -152 -46 -179 -52 -27 -7 -66 -21 -87 -31 -21 -11 -50 -20 -64
-20 -14 0 -40 -7 -57 -16 -17 -9 -54 -19 -82 -21 -28 -3 -94 -8 -146 -10 -55
-3 -118 0 -150 7 -30 7 -59 16 -65 20 -5 4 -30 11 -55 15 -24 4 -74 19 -110
32 -36 14 -74 27 -84 29 -11 2 -35 14 -55 27 -20 13 -67 36 -106 51 -38 15
-78 28 -90 29 -11 0 -37 12 -59 26 -21 15 -50 34 -65 43 -14 10 -32 18 -40 18
-7 0 -32 16 -55 35 -22 19 -48 41 -56 48 -9 7 -34 26 -55 42 -22 17 -46 35
-54 40 -8 6 -41 37 -74 70 -32 33 -66 74 -74 90 -9 17 -29 46 -44 65 -16 19
-29 39 -29 43 0 5 -12 25 -27 43 -16 19 -44 54 -64 77 -20 23 -48 60 -62 82
-14 22 -45 67 -69 100 -23 33 -65 112 -94 175 -29 63 -60 142 -69 175 -9 33
-21 91 -25 128 -5 38 -17 103 -27 145 -15 64 -18 121 -18 327 0 203 4 261 17
307 9 32 23 72 31 90 9 18 21 51 28 73 6 22 25 65 41 96 15 31 28 62 28 68 0
6 4 19 9 29 5 9 23 46 40 82 17 36 41 81 54 101 12 19 43 64 68 100 26 35 93
107 149 159 56 52 112 102 124 110 12 8 29 21 37 28 8 7 35 28 61 47 26 19 51
35 56 35 4 0 17 8 28 18 10 10 98 56 194 103 96 48 209 96 250 109 41 12 89
26 106 31 17 5 41 9 53 9 12 0 32 5 44 12 12 6 37 15 57 20 19 5 64 11 100 13
36 3 108 11 160 20 70 10 151 13 310 10z"/>
<g>
<path d="M9145 10588 c-22 0 -49 -3 -60 -5 -11 -2 -28 -17 -38 -34 -9 -17 -17
-45 -17 -64 0 -26 7 -38 36 -60 20 -15 46 -27 59 -27 12 0 35 6 51 13 15 8 35
26 43 41 13 23 14 34 3 75 -7 26 -19 51 -25 55 -7 4 -30 7 -52 6z"/>
</g>
<g>
<path d="M7108 10310 c-30 0 -46 -7 -69 -29 -21 -22 -29 -39 -29 -66 0 -29 8
-45 34 -71 27 -27 41 -34 63 -30 15 2 34 5 41 5 6 1 21 10 32 21 14 14 20 33
20 64 0 33 -7 52 -26 75 -21 25 -33 31 -66 31z"/>
</g>
<g>
<path d="M8210 10170 c-14 0 -31 -5 -38 -12 -7 -7 -12 -25 -12 -41 0 -17 21
-67 50 -117 28 -48 50 -91 50 -94 0 -4 11 -35 24 -69 14 -34 30 -75 37 -92 7
-16 18 -48 24 -70 7 -22 22 -62 33 -90 11 -27 27 -72 36 -100 10 -27 31 -86
47 -130 17 -44 36 -98 44 -120 8 -22 15 -49 15 -60 0 -14 -11 -24 -37 -33 -21
-7 -54 -17 -73 -22 -19 -5 -52 -10 -72 -10 -20 0 -44 -7 -52 -16 -9 -8 -16
-28 -16 -43 0 -16 7 -34 15 -41 10 -8 31 -10 66 -5 28 4 66 15 83 25 17 11 63
22 104 26 56 5 75 11 83 26 5 10 7 23 4 28 -3 5 -1 11 5 15 5 3 10 14 10 23 0
9 -7 30 -15 46 -8 15 -15 38 -15 50 0 13 -3 25 -6 28 -3 4 -21 50 -39 103 -19
53 -41 108 -50 121 -8 13 -15 31 -15 41 0 10 -15 61 -34 113 -19 52 -40 111
-47 130 -6 19 -23 62 -37 95 -13 33 -31 67 -38 76 -8 8 -14 21 -14 27 0 6 -15
42 -33 79 -18 38 -40 78 -48 91 -8 13 -24 22 -39 22z"/>
</g>
<g>
<path d="M8904 8676 c-10 1 -57 -2 -104 -7 -47 -5 -150 -16 -230 -24 -80 -9
-176 -25 -215 -35 -38 -10 -110 -21 -158 -25 -49 -4 -132 -12 -186 -19 -53 -7
-112 -11 -129 -8 -20 2 -42 -2 -57 -12 -15 -10 -25 -26 -25 -41 0 -13 7 -31
17 -40 14 -14 30 -16 112 -10 53 4 107 12 121 17 14 6 60 10 103 9 43 0 104 6
135 14 31 9 124 27 206 41 81 13 178 27 215 30 36 3 97 8 136 12 62 6 71 10
85 34 11 21 12 32 4 45 -6 10 -20 19 -30 19z"/>
</g>
</g>
</g>
<g>
<path d="M10406 15730 c-62 0 -115 -2 -117 -4 -3 -3 -20 -8 -39 -11 -19 -3
-64 -13 -100 -22 -36 -8 -83 -27 -105 -42 -22 -14 -62 -44 -90 -67 -27 -22
-71 -60 -96 -85 -25 -24 -49 -52 -52 -62 -4 -11 -16 -21 -26 -24 -11 -3 -32
-22 -46 -43 -15 -21 -35 -54 -46 -72 -11 -18 -24 -44 -30 -58 -7 -14 -21 -45
-32 -70 -11 -25 -28 -69 -38 -98 -10 -29 -26 -94 -35 -144 -12 -66 -15 -118
-11 -187 3 -53 12 -112 19 -131 7 -19 16 -40 20 -46 4 -6 14 -32 24 -59 9 -27
28 -67 42 -89 15 -23 29 -43 32 -46 3 -3 21 -30 40 -60 19 -30 50 -70 69 -88
19 -19 46 -39 60 -45 14 -6 28 -11 31 -11 3 -1 11 -5 19 -10 7 -5 51 -19 98
-32 47 -13 90 -27 97 -32 6 -5 38 -16 71 -24 33 -9 80 -22 105 -29 25 -6 120
-14 212 -16 165 -4 167 -4 207 21 22 14 43 26 45 26 3 0 33 18 68 40 34 23 65
44 68 48 3 4 54 52 113 107 97 88 114 109 151 185 23 47 48 103 54 125 7 22
16 72 20 111 5 40 5 130 1 200 -7 115 -11 138 -42 214 -19 47 -46 110 -59 140
-14 30 -57 93 -96 140 -39 47 -99 110 -134 142 -35 31 -76 68 -92 82 -16 14
-36 26 -44 26 -9 0 -25 8 -36 19 -12 10 -42 23 -68 30 -26 6 -58 11 -72 11
-15 0 -30 8 -36 20 -10 18 -21 20 -124 20z m-66 -121 c65 1 129 -5 165 -14 33
-9 94 -30 135 -47 53 -23 95 -50 140 -93 36 -33 81 -75 100 -92 19 -18 45 -44
58 -58 12 -14 22 -31 22 -37 0 -6 12 -32 28 -57 15 -25 33 -57 39 -71 6 -14
21 -51 32 -83 12 -32 29 -99 38 -150 9 -51 16 -119 15 -152 -1 -33 -6 -78 -12
-100 -6 -22 -19 -62 -27 -90 -9 -27 -30 -75 -47 -105 -16 -30 -38 -61 -47 -67
-9 -7 -32 -27 -51 -45 -18 -18 -63 -58 -98 -89 -36 -31 -90 -72 -120 -90 l-55
-34 -145 2 c-80 1 -176 8 -215 14 -38 7 -79 17 -90 24 -11 6 -47 17 -80 24
-33 7 -79 21 -102 32 -24 10 -51 19 -62 19 -10 0 -31 10 -47 22 -16 12 -37 31
-46 43 -9 11 -35 45 -58 75 -23 30 -56 87 -75 125 -18 39 -44 102 -56 140 -15
47 -23 95 -23 145 0 50 9 112 27 184 15 60 50 155 77 212 27 57 66 125 86 151
21 27 57 67 81 90 23 23 68 58 99 78 31 20 91 49 133 65 65 24 91 28 181 29z"/>
<g>
<path d="M9940 15007 c-14 1 -35 -2 -47 -7 -20 -8 -23 -17 -23 -59 0 -46 2
-51 26 -57 14 -4 36 -1 49 6 13 7 28 25 34 40 6 19 5 35 -3 51 -7 14 -21 25
-36 26z"/>
</g>
<g>
<path d="M10231 14810 c-16 -1 -33 -10 -45 -26 -10 -14 -24 -49 -32 -77 -7
-29 -21 -77 -30 -107 -9 -30 -17 -70 -16 -88 0 -20 8 -40 19 -48 13 -10 42
-14 101 -12 46 1 85 5 87 8 2 4 7 26 11 48 l7 42 -44 0 c-24 0 -50 4 -58 9 -9
6 -11 17 -7 32 4 13 15 56 25 95 10 39 16 83 14 98 -4 20 -11 26 -32 26z"/>
</g>
<g>
<path d="M10648 14808 c-28 2 -40 -2 -52 -20 -9 -12 -16 -29 -16 -38 0 -9 7
-26 16 -38 8 -12 25 -22 37 -22 12 0 30 7 40 14 14 11 17 25 15 58 -3 42 -4
43 -40 46z"/>
</g>
<g>
<path d="M10042 14430 c-25 0 -35 -6 -44 -26 -8 -18 -9 -30 -1 -42 5 -9 41
-27 79 -40 38 -13 89 -29 114 -36 25 -8 83 -25 130 -40 47 -14 88 -26 92 -26
4 0 14 7 22 16 9 8 16 28 16 43 0 15 -8 36 -19 45 -10 9 -40 21 -67 25 -27 5
-80 19 -119 31 -38 12 -92 28 -120 36 -27 7 -65 14 -83 14z"/>
</g>
</g>
<g>
<path d="M5415 15518 c-16 0 -61 -5 -100 -10 -38 -5 -77 -16 -86 -24 -8 -8
-23 -14 -33 -14 -9 0 -36 -9 -58 -20 -23 -11 -47 -20 -54 -20 -7 0 -38 -21
-71 -47 -32 -26 -78 -68 -103 -93 -26 -25 -66 -70 -91 -100 -25 -30 -60 -84
-78 -119 -18 -35 -39 -84 -47 -110 -8 -25 -19 -111 -25 -191 -9 -132 -8 -151
10 -215 10 -38 31 -101 45 -140 15 -38 40 -97 56 -130 17 -33 42 -78 55 -100
13 -22 52 -66 87 -98 35 -32 86 -77 113 -101 28 -24 96 -67 151 -95 59 -30
137 -60 185 -72 46 -11 91 -22 99 -24 8 -1 49 -6 91 -9 43 -4 112 -3 160 4 61
8 106 21 164 49 44 22 98 45 120 52 26 9 67 41 116 89 42 41 89 95 105 120 16
25 34 61 42 80 7 19 22 67 34 105 17 58 20 97 20 229 0 87 -4 176 -7 197 -4
22 -24 90 -46 151 -21 61 -45 118 -52 127 -8 9 -24 36 -35 61 -12 25 -33 65
-48 90 -14 25 -39 59 -54 77 -16 17 -32 38 -37 46 -4 7 -46 46 -92 85 -46 40
-91 72 -101 72 -10 0 -49 16 -87 36 -60 33 -82 38 -193 50 -69 8 -138 13 -155
12z m35 -123 c74 -3 160 -11 190 -16 30 -6 62 -17 70 -25 9 -7 40 -24 70 -38
30 -13 69 -37 86 -53 18 -15 64 -66 104 -113 51 -61 88 -118 130 -205 35 -73
68 -160 84 -222 21 -84 26 -124 26 -230 0 -79 -6 -153 -15 -192 -9 -36 -30
-90 -47 -120 -17 -31 -47 -75 -66 -99 -19 -24 -52 -54 -73 -68 -22 -13 -65
-34 -97 -45 -31 -12 -62 -27 -68 -35 -6 -8 -29 -16 -50 -18 -21 -3 -76 -11
-122 -17 -62 -9 -95 -10 -130 -1 -26 6 -72 14 -103 17 -31 3 -65 13 -75 20
-11 8 -25 15 -33 15 -8 0 -35 9 -60 21 -25 11 -59 28 -76 36 -16 9 -59 38 -93
65 -35 28 -79 64 -97 81 -18 18 -49 55 -68 82 -18 28 -50 82 -70 120 -20 39
-39 84 -43 100 -3 17 -18 65 -31 109 -23 71 -25 90 -20 195 3 78 12 138 26
183 12 37 37 90 56 118 19 29 35 55 35 59 1 3 8 15 18 26 9 11 46 45 82 75 36
31 83 68 106 82 22 14 63 35 90 46 27 11 67 27 89 36 32 13 65 15 175 11z"/>
<g>
<path d="M6001 14899 c-9 0 -25 -4 -37 -9 -12 -4 -24 -15 -27 -23 -3 -7 -2
-29 2 -48 4 -22 16 -39 33 -48 24 -14 29 -14 47 3 11 10 23 27 26 37 4 10 -1
34 -11 54 -9 20 -23 35 -33 34z"/>
</g>
<g>
<path d="M5266 14830 c-28 0 -36 -5 -47 -31 -10 -27 -10 -36 2 -58 10 -18 24
-27 47 -29 19 -2 40 2 48 9 8 6 14 23 14 38 0 15 -7 37 -16 49 -10 15 -25 22
-48 22z"/>
</g>
<g>
<path d="M5721 14639 c-11 7 -26 5 -42 -3 -20 -10 -24 -18 -21 -50 2 -21 13
-67 26 -101 14 -38 20 -69 15 -78 -5 -8 -29 -20 -54 -27 -39 -11 -45 -16 -45
-40 0 -15 9 -35 19 -44 11 -10 30 -18 43 -18 13 0 48 3 78 7 30 4 61 12 68 18
10 8 11 24 7 61 -4 28 -16 67 -26 87 -10 20 -26 69 -34 108 -11 45 -23 75 -34
80z"/>
</g>
<g>
<path d="M5834 14186 c-49 0 -105 -3 -124 -8 -19 -5 -99 -9 -177 -8 -132 1
-143 0 -152 -19 -6 -11 -11 -31 -11 -45 0 -14 8 -29 18 -34 9 -5 69 -8 132 -7
63 2 171 6 240 9 69 3 135 11 148 18 12 6 25 23 29 36 3 14 1 32 -4 41 -8 13
-29 16 -99 17z"/>
</g>
</g>
<g>
<path d="M15072 14980 c-20 0 -43 -4 -51 -9 -7 -5 -21 -6 -31 -4 -10 3 -35 -5
-57 -16 -22 -11 -52 -34 -66 -51 -15 -17 -29 -46 -33 -65 -3 -19 -3 -46 0 -59
3 -13 24 -46 45 -74 27 -34 49 -51 71 -56 18 -3 57 -6 87 -6 30 0 66 6 81 14
15 8 39 30 55 50 22 29 27 45 27 91 0 36 -7 69 -19 93 -11 20 -31 49 -46 65
-19 20 -35 27 -63 27z m-39 -100 c17 0 36 -8 43 -17 7 -10 14 -26 14 -36 0 -9
-11 -22 -24 -29 -14 -6 -27 -17 -31 -26 -3 -8 0 -21 6 -28 9 -11 5 -14 -23
-14 -22 0 -42 7 -52 19 -10 11 -15 25 -11 30 3 6 15 11 26 11 11 0 22 7 26 16
3 8 1 26 -5 39 -6 12 -8 26 -5 29 4 3 20 6 36 6z"/>
</g>
<g>
<path d="M1471 14119 c-14 -1 -37 -4 -51 -8 -14 -3 -46 -17 -72 -30 -36 -17
-48 -29 -48 -45 0 -12 -7 -31 -15 -42 -8 -10 -15 -33 -15 -51 0 -18 6 -56 14
-85 8 -29 17 -61 21 -71 4 -10 30 -23 64 -33 31 -9 75 -22 99 -30 23 -8 58
-14 76 -14 19 0 45 9 60 21 14 11 26 29 26 39 0 9 7 23 14 30 8 6 20 36 27 67
10 43 10 65 1 99 -7 25 -26 58 -43 75 -17 16 -53 41 -82 54 -28 14 -62 24 -76
24z m-13 -99 c15 0 38 -9 51 -19 l24 -19 -22 -11 c-16 -9 -21 -20 -19 -39 2
-21 11 -29 36 -37 19 -5 32 -16 32 -25 0 -9 -6 -24 -13 -34 -12 -16 -22 -17
-73 -11 -33 3 -66 10 -73 14 -7 4 -15 32 -18 62 -5 49 -3 58 22 87 18 21 36
32 53 32z"/>
<g>
<path d="M1440 13940 c-9 0 -21 -5 -28 -12 -7 -7 -12 -20 -12 -30 0 -9 9 -22
19 -28 11 -5 24 -10 30 -10 6 0 15 9 21 20 8 14 7 25 -2 40 -7 11 -20 20 -28
20z"/>
</g>
</g>
<g>
<path d="M12917 10989 c-12 0 -40 -9 -62 -19 -22 -10 -71 -28 -110 -40 -38
-12 -77 -28 -85 -35 -8 -7 -36 -23 -62 -35 -27 -13 -48 -27 -48 -31 0 -3 -13
-12 -30 -19 -16 -7 -46 -33 -67 -58 -21 -25 -52 -59 -69 -76 -18 -17 -60 -58
-95 -91 -35 -33 -74 -81 -87 -107 -13 -26 -27 -50 -32 -53 -5 -3 -16 -29 -26
-58 -9 -28 -24 -63 -33 -77 -9 -14 -23 -47 -31 -75 -10 -34 -14 -91 -13 -178
1 -88 7 -143 18 -178 9 -27 14 -57 11 -66 -4 -9 0 -25 7 -37 8 -12 17 -34 21
-51 4 -16 29 -54 54 -85 26 -30 58 -65 71 -77 13 -13 27 -23 31 -23 3 0 20
-12 38 -27 17 -16 50 -38 74 -50 24 -11 58 -28 77 -37 19 -9 40 -16 48 -16 8
0 33 -9 56 -21 23 -12 83 -32 132 -45 50 -13 119 -29 155 -35 36 -5 89 -14
118 -19 42 -7 66 -5 120 10 37 11 97 30 134 41 61 20 78 32 167 118 58 57 118
127 146 171 26 41 61 106 77 145 16 38 41 102 55 140 20 58 24 82 20 145 -3
41 -15 127 -27 190 -12 63 -24 122 -27 130 -3 8 -7 29 -9 45 -1 17 -21 68 -44
115 -22 47 -47 95 -54 108 -7 13 -28 39 -45 59 -17 19 -31 41 -31 49 0 8 -4
14 -9 14 -4 0 -39 31 -77 68 -45 45 -90 78 -128 96 -33 14 -78 31 -100 36 -23
5 -78 16 -124 24 -45 9 -92 16 -105 15z m-12 -110 c11 0 52 -6 90 -14 39 -7
88 -18 110 -24 22 -5 57 -17 78 -26 22 -9 78 -55 126 -103 59 -58 104 -115
136 -171 27 -46 55 -85 61 -88 7 -3 12 -21 12 -42 0 -21 3 -49 6 -62 4 -13 11
-33 16 -44 5 -11 14 -49 20 -85 6 -36 13 -78 16 -95 3 -16 10 -39 15 -51 8
-14 6 -38 -5 -81 -9 -34 -16 -70 -16 -80 0 -11 -11 -48 -25 -84 -14 -35 -30
-73 -35 -84 -5 -11 -20 -45 -33 -75 -17 -39 -52 -83 -118 -151 -87 -88 -99
-98 -164 -119 -38 -12 -74 -26 -79 -31 -5 -4 -30 -6 -55 -3 -25 4 -91 20 -146
36 -77 24 -111 29 -149 24 -42 -5 -63 0 -135 30 -48 20 -120 52 -161 72 -47
23 -99 59 -138 97 -35 33 -75 79 -89 102 -14 24 -33 71 -44 105 -10 35 -24
112 -31 171 -11 97 -10 115 6 180 10 40 32 97 47 127 16 30 37 69 47 85 10 17
29 48 44 70 14 22 79 93 145 157 65 64 134 125 153 136 19 10 61 33 92 51 31
18 85 41 120 51 35 10 72 19 83 19z"/>
<g>
<path d="M12397 10450 c-8 0 -24 -8 -35 -17 -11 -10 -22 -32 -25 -49 -3 -18
-1 -36 6 -43 6 -6 24 -11 40 -11 15 0 37 5 48 10 14 8 19 21 19 50 0 29 -5 42
-19 50 -11 5 -26 10 -34 10z"/>
</g>
<g>
<path d="M12994 10446 c-10 1 -29 0 -42 -3 -12 -2 -26 -12 -31 -21 -5 -10 -7
-29 -4 -44 3 -15 11 -32 19 -38 7 -6 25 -10 41 -8 19 2 32 12 41 31 9 19 11
36 4 55 -5 16 -16 28 -28 28z"/>
</g>
<g>
<path d="M12628 10318 c-30 3 -40 -1 -51 -20 -8 -13 -18 -36 -22 -53 -3 -16
-22 -66 -42 -110 -19 -44 -46 -102 -60 -129 -17 -34 -22 -58 -18 -78 4 -16 17
-36 30 -44 13 -9 28 -13 34 -10 5 3 40 2 77 -3 37 -6 74 -6 83 -1 11 5 16 22
16 52 l0 43 -50 3 c-27 1 -55 8 -62 15 -10 10 -7 24 17 72 16 33 30 64 30 68
0 5 14 37 31 72 18 38 29 75 27 92 -3 24 -8 28 -40 31z"/>
</g>
<g>
<path d="M12657 9744 c-178 1 -211 -1 -223 -15 -8 -8 -14 -23 -14 -31 0 -9 6
-20 13 -25 6 -5 35 -15 63 -22 30 -7 116 -12 209 -12 87 0 162 4 165 8 4 4 10
25 13 45 3 23 1 40 -6 45 -6 3 -105 7 -220 7z"/>
</g>
</g>
<g>
<path d="M3378 10244 c-62 3 -129 1 -148 -5 -19 -5 -59 -13 -88 -19 -30 -5
-84 -23 -120 -40 -37 -17 -89 -42 -117 -55 -27 -14 -72 -46 -98 -72 -26 -27
-67 -71 -91 -99 -23 -28 -53 -71 -65 -96 -12 -25 -28 -71 -36 -102 -8 -32 -12
-68 -9 -82 3 -13 1 -31 -5 -38 -7 -8 -12 -47 -12 -88 0 -40 5 -113 11 -161 6
-50 20 -105 31 -127 12 -22 25 -43 30 -45 5 -3 13 -23 19 -44 8 -31 33 -59
121 -139 95 -86 118 -102 162 -112 29 -7 87 -26 129 -42 47 -17 97 -29 127
-30 27 0 89 3 138 7 48 3 97 10 108 15 11 4 47 18 80 30 33 12 67 25 75 30 9
4 29 10 45 14 17 4 47 19 67 34 20 15 63 50 96 77 40 34 77 79 114 140 30 50
58 104 62 120 4 17 12 53 17 80 6 28 9 88 6 135 -4 47 -11 110 -17 140 -7 30
-16 74 -22 97 -6 24 -17 48 -24 54 -8 6 -14 19 -14 29 0 10 -12 38 -26 64 -14
25 -30 46 -35 46 -5 0 -9 7 -9 15 0 8 -18 41 -40 73 -21 32 -52 65 -67 72 -15
8 -44 25 -65 38 -20 13 -42 24 -50 26 -7 1 -19 5 -26 10 -7 4 -42 16 -77 26
-37 10 -114 21 -177 24z m-22 -109 c109 -3 154 -8 199 -24 32 -12 77 -33 99
-48 23 -15 58 -45 78 -68 20 -22 59 -80 85 -130 34 -62 55 -116 67 -175 10
-47 22 -95 27 -108 5 -13 9 -54 9 -92 0 -38 -6 -94 -14 -124 -8 -30 -24 -76
-36 -102 -11 -26 -46 -74 -78 -106 -31 -33 -82 -74 -112 -93 -31 -18 -109 -51
-175 -73 -112 -37 -127 -39 -230 -38 -92 1 -117 5 -152 24 -23 12 -53 22 -65
22 -13 0 -41 9 -62 21 -22 12 -73 51 -114 87 -40 37 -84 85 -97 107 -13 22
-35 70 -49 106 -20 55 -26 90 -30 205 -4 101 -2 155 9 199 7 34 26 84 41 113
14 28 34 54 44 57 9 3 23 17 31 31 7 14 31 40 54 57 22 17 42 34 45 37 3 3 20
16 38 29 18 13 38 24 45 25 7 2 19 6 27 9 8 3 42 15 75 26 33 11 69 22 80 25
11 3 83 3 161 1z"/>
<g>
<path d="M3786 9810 c-19 0 -40 -8 -49 -18 -10 -10 -17 -32 -17 -49 0 -16 8
-37 18 -46 10 -10 35 -17 54 -17 23 0 38 5 42 16 3 9 6 29 6 45 0 17 -5 39
-10 50 -7 13 -21 19 -44 19z"/>
</g>
<g>
<path d="M3232 9718 c-9 4 -32 6 -50 3 -22 -4 -39 -15 -50 -33 -12 -21 -14
-34 -6 -55 8 -22 18 -30 53 -37 41 -9 46 -8 68 18 12 15 23 34 23 42 0 9 -5
24 -10 34 -6 11 -18 23 -28 28z"/>
</g>
<g>
<path d="M3566 9630 c-12 0 -27 -5 -34 -12 -7 -7 -12 -18 -12 -25 0 -7 10 -34
21 -60 12 -27 28 -60 35 -75 8 -14 14 -33 14 -42 0 -9 -8 -16 -18 -16 -11 0
-27 -9 -36 -19 -10 -11 -16 -28 -14 -38 2 -10 14 -23 28 -30 19 -9 40 -9 90 0
65 12 65 12 68 48 2 27 -4 44 -28 73 -16 21 -31 47 -31 57 -1 11 -2 23 -3 29
0 5 -7 15 -13 22 -7 6 -13 18 -13 25 0 8 -7 25 -16 38 -9 14 -26 25 -38 25z"/>
</g>
<g>
<path d="M3523 9272 c-106 2 -197 2 -203 0 -5 -2 -10 -18 -10 -37 0 -18 6 -37
13 -43 8 -7 89 -13 203 -16 136 -4 199 -2 224 7 26 9 36 19 38 38 3 22 -2 27
-35 37 -21 7 -122 13 -230 14z"/>
</g>
</g>
<g>
<path d="M10545 5806 c-71 1 -166 -2 -210 -8 -73 -10 -88 -16 -168 -69 -49
-33 -95 -59 -104 -59 -8 0 -37 -21 -63 -47 -27 -27 -57 -55 -67 -64 -10 -8
-40 -44 -68 -79 -27 -35 -67 -90 -87 -123 -21 -32 -38 -64 -38 -71 0 -7 -4
-16 -8 -21 -5 -6 -15 -30 -23 -55 -9 -30 -14 -89 -13 -180 0 -107 4 -145 19
-185 10 -27 26 -62 34 -76 9 -14 25 -39 36 -55 11 -17 46 -53 77 -81 34 -31
97 -72 160 -102 57 -28 139 -60 183 -72 44 -11 125 -23 181 -26 75 -4 118 -1
170 11 38 9 92 26 119 37 28 12 59 26 70 32 11 6 40 21 65 33 25 12 61 38 80
56 19 19 45 47 58 63 13 15 35 51 49 79 14 28 36 94 49 146 13 52 26 145 30
206 5 88 3 127 -11 190 -9 43 -25 97 -34 119 -9 22 -32 70 -51 107 -19 37 -64
101 -98 142 -49 57 -80 83 -135 112 -72 38 -73 38 -202 40z m-38 -88 c24 1 64
-3 90 -9 27 -7 63 -19 82 -28 18 -9 45 -28 60 -42 14 -14 42 -45 61 -69 19
-24 48 -67 63 -94 16 -28 40 -80 54 -116 14 -36 30 -95 37 -131 7 -36 12 -74
11 -85 -1 -10 -5 -55 -9 -99 -4 -44 -15 -114 -23 -155 -8 -41 -23 -93 -33
-115 -10 -22 -35 -59 -54 -82 -24 -27 -67 -57 -124 -86 -49 -25 -117 -52 -151
-61 -35 -9 -88 -16 -119 -16 -31 0 -86 5 -122 10 -36 6 -94 20 -130 32 -36 11
-103 42 -150 69 -47 26 -97 60 -111 76 -14 15 -41 51 -61 78 -19 28 -42 73
-51 100 -9 28 -19 73 -23 100 -3 28 -1 91 5 142 6 57 18 108 32 135 12 24 36
61 53 83 17 22 33 42 37 45 3 3 28 32 55 66 27 33 88 90 135 127 52 39 108 72
140 83 30 9 63 21 74 25 11 5 45 10 75 12 30 2 74 4 97 5z"/>
<g>
<path d="M10387 5670 c-9 0 -26 -9 -37 -20 -11 -11 -20 -27 -20 -35 0 -8 9
-24 20 -35 11 -11 29 -20 39 -20 11 0 27 10 35 22 9 12 16 30 16 39 0 9 -8 23
-18 32 -10 10 -26 17 -35 17z"/>
</g>
<g>
<path d="M10472 5489 c-4 -1 -27 -7 -52 -13 -25 -7 -52 -16 -61 -20 -9 -4 -50
-15 -90 -24 -65 -15 -74 -20 -77 -42 -2 -14 9 -48 25 -77 18 -33 37 -56 54
-62 15 -5 32 -5 42 1 12 6 17 22 17 51 0 36 5 45 33 63 17 11 49 24 70 28 21
4 47 16 58 27 10 10 19 23 19 28 0 5 -7 17 -16 25 -8 9 -18 15 -22 15z"/>
</g>
<g>
<path d="M10707 5390 c-12 0 -33 -7 -45 -16 -12 -8 -22 -26 -22 -40 0 -13 9
-33 20 -44 11 -11 27 -20 36 -20 8 0 24 5 35 10 12 7 19 21 19 41 0 17 -5 39
-10 50 -6 10 -21 19 -33 19z"/>
</g>
<g>
<path d="M10016 5270 c-12 0 -30 -6 -40 -13 -13 -9 -16 -20 -11 -40 5 -17 40
-58 90 -103 45 -41 98 -97 116 -124 18 -27 43 -54 55 -61 12 -6 31 -8 43 -4
13 4 21 15 21 30 0 13 3 30 6 38 3 9 -14 35 -43 67 -26 29 -64 66 -83 84 -19
17 -56 52 -83 79 -28 27 -58 47 -71 47z"/>
</g>
</g>
<g>
<path d="M5895 5422 c-33 2 -82 0 -110 -3 -27 -4 -77 -12 -109 -18 -32 -6 -75
-16 -93 -22 -19 -6 -47 -17 -61 -25 -15 -8 -31 -14 -36 -14 -6 0 -26 -11 -46
-25 -19 -14 -60 -29 -90 -35 -41 -8 -60 -18 -81 -43 -16 -17 -44 -63 -64 -100
-20 -38 -48 -113 -62 -170 -19 -78 -24 -120 -21 -177 3 -41 10 -86 16 -100 7
-14 16 -32 21 -40 5 -8 16 -33 26 -55 9 -22 28 -58 43 -80 14 -22 44 -59 66
-82 22 -24 47 -43 56 -43 8 0 26 -9 40 -20 14 -11 31 -20 39 -20 8 0 22 -6 30
-13 9 -8 45 -22 81 -33 46 -13 98 -19 180 -19 69 0 133 5 160 14 25 7 52 16
60 19 8 3 28 7 43 9 16 1 49 12 74 23 25 11 73 36 106 57 34 20 77 49 95 63
18 15 51 58 73 96 23 38 48 89 57 114 13 34 17 76 15 175 -1 73 -7 148 -14
170 -7 22 -28 64 -46 93 -18 28 -37 52 -43 52 -5 0 -10 6 -10 14 0 7 -31 45
-68 83 -38 38 -90 81 -117 96 -26 15 -57 29 -69 31 -11 3 -34 9 -51 15 -16 5
-57 11 -90 13z m-77 -92 c23 0 42 -4 42 -10 0 -5 -6 -10 -13 -10 -7 0 -21 -6
-30 -12 -15 -11 -16 -17 -5 -46 8 -21 22 -35 37 -39 13 -3 31 -1 40 4 9 6 17
24 19 42 2 18 -2 39 -9 47 -9 11 -8 14 8 14 11 0 40 -6 64 -13 24 -8 60 -25
79 -38 19 -13 55 -46 80 -73 25 -27 56 -61 70 -76 14 -15 33 -44 44 -66 10
-21 25 -59 32 -84 8 -25 17 -81 20 -126 5 -61 2 -95 -10 -138 -10 -32 -29 -76
-43 -99 -14 -22 -37 -50 -51 -64 -15 -13 -52 -40 -82 -59 -30 -20 -69 -42 -87
-49 -18 -8 -60 -21 -95 -30 -35 -9 -112 -18 -172 -20 -106 -5 -111 -4 -199 31
-49 20 -110 48 -135 63 -31 18 -61 49 -90 92 -24 35 -56 87 -70 114 -24 45
-27 60 -27 155 0 63 6 124 15 152 12 41 18 47 44 50 16 2 32 10 36 18 4 8 16
33 26 55 10 22 35 55 54 72 19 18 40 33 45 33 6 0 28 10 50 21 22 12 70 32
107 45 37 13 82 24 100 24 18 0 40 5 48 10 8 5 34 10 58 10z"/>
<g>
<path d="M5837 5160 c-1 -1 -14 -8 -29 -16 -16 -8 -28 -19 -28 -25 0 -6 4 -19
10 -29 5 -10 27 -24 47 -30 21 -6 53 -18 71 -27 25 -11 32 -19 26 -31 -3 -9
-6 -25 -6 -35 0 -10 11 -27 24 -37 13 -11 31 -19 40 -20 10 0 24 12 31 28 7
15 19 46 27 69 7 22 10 52 6 66 -5 20 -14 26 -52 32 -26 4 -54 10 -63 15 -9 5
-35 16 -59 24 -23 9 -43 16 -45 16z"/>
</g>
<g>
<path d="M5531 5060 c-3 -1 -21 -7 -38 -15 -18 -8 -33 -19 -33 -24 0 -6 5 -22
12 -36 6 -14 23 -28 36 -32 14 -3 32 -1 41 4 11 7 15 21 13 44 -2 19 -8 40
-14 47 -6 6 -13 12 -17 12z"/>
</g>
<g>
<path d="M6157 4968 c-22 3 -36 -5 -63 -35 -20 -21 -44 -54 -54 -73 -10 -19
-32 -52 -49 -74 -17 -21 -31 -42 -30 -45 0 -3 13 -16 29 -29 15 -12 35 -19 43
-16 9 3 31 29 50 57 19 29 51 77 71 108 24 36 36 66 34 80 -2 18 -10 25 -31
27z"/>
</g>
</g>
<g>
<path d="M14953 5330 c-23 0 -45 -4 -48 -10 -3 -5 -14 -10 -23 -10 -10 0 -34
-14 -54 -30 -20 -17 -48 -51 -62 -76 -14 -26 -26 -57 -26 -69 0 -12 9 -34 20
-48 11 -14 20 -28 20 -32 0 -4 10 -15 23 -26 12 -11 43 -31 69 -44 26 -14 59
-25 72 -25 14 0 43 10 65 23 22 12 53 40 69 63 21 29 32 58 37 100 6 52 3 67
-16 103 -16 31 -34 49 -63 62 -23 10 -60 19 -83 19z m36 -100 c5 0 11 -14 15
-31 3 -17 6 -44 6 -59 0 -15 -9 -39 -21 -54 -12 -15 -30 -26 -44 -26 -13 0
-26 4 -30 9 -3 5 -1 12 5 16 5 3 10 17 10 30 0 18 -7 26 -25 31 -14 3 -32 4
-40 0 -8 -3 -15 -1 -15 4 0 4 12 23 27 41 l28 32 5 -24 c4 -14 14 -25 27 -27
11 -2 28 5 37 14 10 9 15 23 12 30 -3 8 -2 14 3 14z"/>
</g>
<g>
<path d="M1831 5226 c-57 3 -73 0 -114 -24 -26 -15 -54 -36 -61 -47 -7 -11
-16 -36 -20 -55 -4 -19 -8 -51 -7 -70 0 -27 7 -41 31 -61 18 -15 58 -36 89
-48 32 -12 74 -21 94 -21 20 0 47 4 60 9 14 5 43 27 66 49 36 34 41 44 41 84
0 24 -9 62 -19 85 -11 22 -37 52 -57 68 -30 23 -49 29 -103 31z m-14 -76 c7 0
18 -12 25 -27 7 -15 22 -29 33 -31 11 -2 23 -7 26 -10 4 -4 9 -19 13 -34 5
-20 1 -32 -16 -48 -12 -11 -34 -20 -49 -20 -16 0 -41 5 -56 12 -15 6 -36 18
-45 26 -10 9 -18 29 -18 46 0 18 8 38 19 48 10 8 27 20 37 26 11 6 24 12 31
12z"/>
<g>
<path d="M1794 5098 c-11 2 -28 -5 -37 -16 -13 -14 -14 -21 -5 -30 7 -7 25
-12 41 -12 25 0 28 3 25 28 -2 18 -9 28 -24 30z"/>
</g>
</g>
<g>
<path d="M8053 1104 c-21 2 -54 1 -73 -3 -19 -3 -54 -18 -77 -33 -23 -16 -49
-40 -57 -55 -8 -16 -23 -37 -35 -47 -16 -14 -21 -31 -21 -67 0 -30 5 -51 14
-56 7 -4 18 -18 25 -30 6 -13 17 -23 24 -23 7 0 32 -10 55 -23 39 -21 50 -22
119 -15 42 5 82 13 89 19 7 6 24 32 38 59 18 34 26 68 28 112 3 58 0 67 -26
99 -16 19 -37 40 -47 47 -10 7 -35 14 -56 16z m-54 -74 c5 0 21 -4 35 -10 14
-5 26 -16 26 -24 0 -7 -7 -17 -16 -20 -9 -3 -14 -15 -12 -28 2 -19 9 -23 36
-22 17 1 32 -1 32 -5 0 -4 -9 -26 -20 -49 l-21 -43 -58 5 c-37 2 -69 11 -84
22 -14 11 -28 30 -32 43 -3 13 -1 29 5 35 6 6 28 11 48 11 34 0 37 3 40 30 2
17 5 36 7 43 2 6 9 12 14 12z"/>
</g>
</g>
</svg>
