<?xml version="1.0" standalone="no"?>
<!DOCTYPE svg PUBLIC "-//W3C//DTD SVG 20010904//EN"
 "http://www.w3.org/TR/2001/REC-SVG-20010904/DTD/svg10.dtd">
<svg version="1.0" xmlns="http://www.w3.org/2000/svg"
 width="2024.000000pt" height="1379.000000pt" viewBox="0 0 2024.000000 1379.000000"
 preserveAspectRatio="xMidYMid meet">
<metadata>
Created by potrace 1.16, written by Peter Selinger 2001-2019
</metadata>
<g transform="translate(0.000000,1379.000000) scale(0.100000,-0.100000)"
fill="#000000" stroke="none">
<g>
<path d="M16307 12338 c-7 0 -28 -3 -47 -5 -19 -2 -80 -12 -135 -22 -62 -12
-153 -19 -240 -20 -77 -1 -223 -6 -325 -12 -102 -5 -219 -11 -261 -13 -41 -2
-138 -11 -215 -20 -76 -9 -186 -23 -244 -31 -58 -8 -161 -20 -230 -26 -69 -6
-156 -15 -195 -20 -38 -4 -194 -13 -345 -20 -151 -7 -302 -12 -335 -13 -33 0
-76 3 -95 6 -19 4 -74 12 -123 18 -77 11 -91 10 -112 -4 -14 -9 -26 -24 -26
-34 -1 -9 0 -21 1 -27 1 -5 4 -80 7 -165 2 -85 6 -211 8 -280 3 -69 7 -143 10
-165 2 -22 7 -103 9 -179 3 -77 8 -156 11 -177 4 -21 2 -40 -4 -43 -6 -4 -27
0 -48 9 -21 9 -40 16 -43 16 -3 0 -16 2 -30 5 -14 3 -79 21 -145 40 -66 19
-129 39 -140 43 -11 5 -65 23 -120 40 -55 17 -129 37 -165 46 -36 8 -121 28
-190 44 -69 16 -168 40 -220 54 -52 14 -129 35 -170 47 -41 11 -86 23 -100 24
-14 2 -59 13 -100 24 -41 12 -113 31 -160 42 -47 12 -114 28 -150 36 -36 8
-127 26 -203 39 -76 13 -177 34 -224 46 -48 12 -94 25 -102 29 -9 5 -56 23
-106 41 -49 18 -108 36 -130 41 -22 5 -76 15 -120 22 -44 7 -82 14 -85 16 -3
1 -12 5 -20 7 -8 3 -28 9 -45 15 -16 5 -39 14 -50 18 -11 4 -36 14 -55 21 -19
8 -42 15 -50 16 -8 1 -22 -5 -31 -13 -12 -11 -61 -20 -151 -29 -73 -8 -182
-16 -242 -19 -59 -4 -112 -8 -116 -11 -4 -3 -41 -9 -81 -15 -41 -6 -119 -15
-174 -20 -55 -6 -182 -17 -281 -25 -100 -8 -201 -18 -225 -24 -24 -5 -78 -15
-119 -21 -41 -6 -91 -16 -111 -21 -20 -5 -55 -9 -77 -9 -22 0 -67 -7 -99 -15
-32 -8 -112 -24 -178 -36 -66 -11 -169 -30 -230 -40 -60 -11 -132 -25 -160
-30 -27 -5 -88 -14 -135 -19 -47 -6 -112 -16 -145 -24 -33 -8 -87 -17 -120
-21 -33 -4 -94 -15 -135 -24 -41 -10 -109 -24 -150 -30 -41 -7 -89 -16 -106
-22 -18 -5 -60 -14 -95 -19 -35 -5 -84 -13 -109 -19 -25 -5 -72 -12 -105 -16
-33 -3 -64 -10 -70 -16 -6 -6 -4 -41 5 -97 7 -48 14 -119 15 -159 1 -41 8 -79
15 -88 7 -8 10 -23 8 -33 -3 -10 1 -65 9 -122 8 -58 16 -116 17 -130 2 -14 7
-52 11 -85 4 -33 11 -64 15 -70 4 -5 13 -57 20 -115 7 -58 14 -109 14 -115 1
-5 5 -15 9 -22 4 -6 8 -50 8 -98 1 -47 -1 -89 -5 -92 -3 -3 -43 5 -89 20 -45
14 -118 39 -162 56 -44 16 -102 38 -130 49 -27 11 -86 33 -130 50 -44 16 -123
47 -175 69 -52 22 -117 45 -145 53 -27 7 -54 16 -60 20 -5 4 -44 18 -85 30
-41 12 -99 31 -128 41 -29 11 -72 29 -95 41 -23 11 -44 20 -47 19 -3 0 -43 10
-90 25 -47 14 -119 36 -160 49 -41 13 -147 49 -235 80 -88 32 -185 65 -215 75
-30 10 -87 30 -127 44 -40 14 -85 32 -101 40 -16 8 -64 25 -108 37 -43 11
-100 26 -127 31 -26 6 -47 14 -47 19 0 4 -20 24 -45 43 -29 22 -52 32 -65 29
-11 -3 -25 -11 -31 -19 -9 -11 -45 -14 -158 -14 -81 0 -192 -7 -247 -15 -54
-8 -200 -19 -324 -25 -124 -6 -254 -13 -290 -16 -36 -2 -150 -11 -255 -19
-104 -8 -282 -17 -395 -20 -113 -3 -239 -8 -280 -10 -41 -3 -88 -7 -105 -9
-16 -2 -91 -9 -165 -15 -74 -6 -188 -16 -254 -22 -65 -6 -141 -11 -170 -10
-28 0 -109 -8 -181 -19 -71 -10 -168 -24 -215 -30 -47 -7 -107 -16 -135 -20
-27 -5 -90 -9 -140 -9 -49 -1 -139 -11 -200 -23 -60 -11 -137 -22 -169 -23
-48 -1 -63 -6 -78 -25 -10 -12 -18 -30 -18 -41 0 -10 4 -20 9 -23 5 -3 16 -29
26 -58 9 -29 19 -62 21 -73 3 -11 6 -42 9 -68 2 -26 9 -64 16 -85 6 -20 15
-41 19 -47 4 -5 10 -36 14 -68 3 -32 13 -71 21 -87 9 -17 12 -41 8 -63 -3 -22
2 -55 13 -88 10 -30 17 -58 16 -62 -1 -4 3 -17 9 -28 6 -11 10 -59 10 -105 0
-62 4 -92 15 -110 12 -18 15 -39 11 -77 -3 -34 0 -61 9 -79 8 -15 11 -39 8
-55 -3 -16 1 -54 9 -84 8 -29 16 -83 17 -118 1 -36 6 -74 13 -85 6 -12 12 -59
13 -106 1 -47 7 -123 13 -170 7 -47 12 -134 12 -193 -1 -60 3 -117 9 -127 6
-10 12 -59 14 -108 3 -49 9 -107 14 -128 6 -21 13 -93 17 -159 3 -66 18 -210
32 -320 14 -110 25 -211 24 -224 0 -12 6 -46 14 -75 8 -28 14 -70 14 -93 -1
-22 2 -46 6 -52 3 -6 6 -59 6 -118 0 -59 3 -111 6 -117 4 -5 8 -51 10 -101 2
-49 10 -121 18 -160 8 -38 18 -133 21 -210 4 -77 7 -153 7 -170 0 -16 4 -73 9
-125 5 -52 11 -122 14 -155 2 -33 11 -82 19 -110 8 -27 16 -79 19 -115 3 -36
12 -114 20 -175 8 -60 15 -148 16 -196 0 -47 4 -89 10 -95 5 -5 15 -70 21
-143 6 -73 8 -135 6 -138 -3 -2 -1 -19 5 -36 5 -18 11 -75 14 -127 2 -52 5
-134 8 -182 2 -48 7 -91 10 -96 3 -5 8 -116 11 -248 3 -131 10 -297 15 -369 6
-71 12 -226 15 -343 2 -117 8 -218 11 -224 4 -6 9 -120 11 -252 1 -133 5 -293
7 -356 3 -63 7 -158 10 -210 3 -52 9 -133 13 -180 3 -47 5 -99 4 -116 -1 -17
4 -36 13 -43 11 -9 28 -10 73 -2 32 6 84 13 115 15 31 3 78 8 105 11 26 4 102
21 168 37 66 16 140 33 165 38 25 5 81 18 125 30 44 11 96 26 115 32 19 6 44
15 55 20 12 5 28 10 36 11 9 2 28 10 42 20 15 9 31 17 37 17 6 0 18 4 28 9 9
5 67 24 127 41 61 18 128 39 150 48 22 8 56 18 75 22 19 4 55 12 80 19 25 6
101 22 170 37 69 14 145 33 170 41 25 8 77 21 115 28 39 8 97 22 130 30 33 9
85 20 115 25 30 5 71 13 90 20 19 6 62 15 95 21 33 5 85 14 115 18 30 5 73 14
95 20 22 5 67 17 100 26 33 9 101 23 150 31 50 8 110 18 135 24 25 5 77 15
116 23 39 7 85 23 102 35 27 20 31 30 37 85 3 34 7 89 7 122 1 33 1 170 1 305
0 135 -1 326 -1 425 0 99 -5 241 -11 315 -6 74 -13 173 -16 220 -2 47 -8 150
-11 230 -4 80 -7 154 -7 165 1 11 -6 142 -13 290 -7 149 -16 302 -19 340 -2
39 -7 153 -11 255 -3 102 -7 259 -10 350 -2 91 -8 224 -14 295 -5 72 -15 207
-20 300 -6 94 -12 213 -14 265 -3 52 -10 354 -15 670 -6 316 -14 679 -18 805
-4 127 -6 334 -5 460 1 127 6 340 12 475 6 135 12 288 15 340 3 52 8 163 11
245 4 96 2 190 -6 260 -6 61 -13 124 -15 140 -2 17 -7 74 -11 128 l-7 97 24 0
c14 0 58 -11 99 -24 41 -13 98 -29 125 -36 28 -7 70 -23 95 -35 25 -13 61 -26
80 -30 19 -3 76 -21 125 -40 50 -18 119 -43 155 -55 36 -12 94 -30 130 -39 36
-10 75 -23 87 -29 12 -7 31 -12 43 -12 12 0 34 -9 50 -20 15 -11 52 -26 81
-34 30 -7 101 -32 159 -54 58 -22 119 -45 135 -51 17 -6 100 -34 185 -62 85
-28 214 -73 285 -101 72 -28 162 -63 200 -79 39 -16 97 -38 130 -49 33 -11 83
-28 110 -36 28 -9 65 -23 84 -31 19 -9 56 -17 83 -19 36 -2 54 -9 68 -26 13
-15 19 -37 18 -63 -1 -22 4 -100 11 -174 6 -74 14 -137 16 -141 2 -4 9 -38 15
-76 6 -38 14 -120 19 -182 5 -62 14 -119 21 -127 7 -8 16 -70 21 -137 5 -68
13 -132 16 -143 4 -11 8 -27 8 -35 0 -8 5 -44 9 -80 5 -35 14 -74 21 -85 7
-11 16 -54 20 -95 4 -41 9 -98 11 -126 1 -29 9 -101 18 -160 8 -60 16 -134 17
-164 1 -30 6 -68 11 -85 4 -16 8 -77 8 -135 0 -58 5 -127 10 -155 6 -27 15
-104 21 -170 5 -66 14 -176 19 -245 6 -69 17 -172 25 -230 8 -58 20 -249 26
-425 6 -176 10 -344 10 -374 -1 -29 6 -88 15 -130 9 -45 13 -98 10 -131 -3
-30 -1 -86 5 -125 5 -38 11 -98 14 -133 2 -34 6 -136 9 -227 2 -90 6 -168 9
-172 3 -4 10 -62 16 -128 7 -66 16 -164 21 -217 7 -66 6 -106 -1 -124 -5 -15
-12 -75 -15 -133 -4 -82 -2 -116 10 -150 9 -24 13 -47 11 -52 -3 -4 2 -34 11
-66 9 -32 27 -75 40 -95 18 -28 31 -38 50 -38 14 0 33 8 42 19 13 14 52 24
152 41 74 12 145 26 158 31 13 5 37 9 53 9 29 0 30 -2 26 -36 -3 -20 -9 -40
-15 -46 -6 -6 -5 -19 3 -36 7 -15 18 -79 23 -142 6 -63 11 -174 10 -247 0 -72
3 -136 6 -141 3 -6 8 -79 11 -164 3 -84 9 -245 15 -358 5 -113 10 -216 10
-230 0 -14 2 -77 5 -141 2 -64 7 -123 9 -130 2 -8 8 -63 11 -124 4 -60 7 -126
7 -145 1 -19 -1 -107 -2 -195 -2 -88 -2 -252 -2 -365 1 -113 0 -275 -1 -360
-1 -85 -5 -159 -8 -165 -3 -5 -3 -37 1 -70 4 -33 10 -71 14 -84 3 -14 10 -29
15 -34 5 -5 21 -7 37 -5 18 2 33 12 42 28 11 20 12 67 6 230 -4 113 -8 255
-10 315 -1 61 -5 277 -8 480 -4 204 -11 474 -17 600 -6 127 -13 233 -15 236
-2 4 -6 108 -9 230 -3 123 -10 307 -15 409 -6 102 -12 237 -15 300 -3 63 -8
133 -10 155 -3 22 -7 88 -11 146 l-6 107 92 21 c50 11 120 21 154 21 38 0 111
12 182 31 75 19 175 35 269 44 83 7 209 21 280 29 72 9 170 21 220 27 49 6 99
15 110 19 12 4 81 13 155 19 74 7 191 18 260 26 69 8 195 22 280 30 85 8 166
18 180 21 14 4 76 10 139 15 62 4 127 13 145 20 17 7 36 19 42 27 6 9 7 40 3
85 -4 40 -10 243 -13 452 -3 209 -10 434 -15 500 -6 66 -13 208 -15 315 -3
107 -10 224 -15 260 -6 36 -13 92 -16 125 -3 33 -7 150 -10 260 -2 110 -6 211
-10 225 -3 14 -14 93 -25 175 -12 93 -20 210 -20 307 0 86 -4 190 -9 230 -5
40 -13 123 -17 183 -4 61 -8 254 -10 430 -2 176 -4 446 -4 600 0 154 -5 343
-10 420 -5 77 -12 311 -15 520 -3 209 -7 493 -10 630 -2 138 -7 401 -10 585
-3 184 -10 351 -15 370 -6 19 -10 61 -10 93 0 31 2 57 5 57 2 0 33 -11 69 -24
35 -13 90 -27 122 -31 33 -4 84 -14 114 -22 30 -8 65 -16 78 -19 12 -2 46 -14
75 -25 28 -12 86 -32 127 -46 41 -13 104 -31 140 -39 36 -9 139 -29 230 -44
91 -16 206 -40 255 -53 50 -13 124 -32 165 -42 41 -9 118 -28 170 -42 52 -13
127 -34 165 -44 39 -11 78 -25 87 -30 10 -5 26 -9 35 -9 10 0 70 -13 133 -29
63 -16 160 -39 215 -51 55 -13 125 -31 155 -42 30 -11 91 -31 135 -44 44 -14
135 -41 203 -60 68 -19 149 -43 180 -53 l57 -20 2 -138 c1 -76 7 -196 13 -268
5 -71 12 -161 14 -200 3 -38 8 -115 11 -170 3 -55 8 -170 10 -256 3 -86 9
-210 15 -276 6 -66 10 -133 10 -149 -1 -16 1 -270 4 -564 3 -294 8 -547 12
-563 3 -15 7 -80 9 -145 1 -64 6 -128 9 -142 4 -14 11 -86 16 -160 4 -74 11
-187 13 -250 3 -63 8 -149 10 -190 3 -41 8 -136 11 -210 4 -74 8 -144 11 -155
2 -11 7 -92 10 -180 4 -88 10 -194 15 -236 5 -43 6 -90 1 -105 -4 -16 -7 -40
-5 -54 1 -14 6 -110 9 -215 4 -104 8 -192 10 -195 2 -3 6 -147 10 -320 4 -173
9 -318 11 -321 2 -3 6 -61 9 -129 3 -67 10 -130 15 -140 5 -9 6 -26 3 -38 -3
-12 2 -33 10 -46 14 -21 20 -23 49 -16 18 5 67 19 108 31 41 12 102 25 135 30
33 5 105 17 160 28 75 15 101 17 107 8 4 -7 8 -39 8 -72 0 -33 3 -159 5 -280
3 -121 10 -254 15 -295 5 -41 12 -115 16 -165 3 -49 5 -97 5 -105 -1 -8 -1
-76 -2 -150 0 -74 5 -193 10 -265 6 -71 18 -239 26 -373 9 -134 17 -297 18
-364 1 -119 2 -120 28 -133 22 -12 29 -12 47 1 21 14 22 21 18 162 -3 81 -9
183 -15 227 -5 44 -12 146 -15 227 -3 81 -11 169 -16 195 -6 26 -12 127 -15
223 -2 96 -4 184 -5 195 0 11 -5 101 -11 200 -6 99 -12 205 -14 235 -1 30 -5
120 -9 200 -3 80 -7 197 -8 260 l-2 115 44 22 c25 12 63 25 85 29 22 3 58 14
80 24 22 9 83 25 135 34 52 9 111 21 130 26 19 4 78 16 130 26 52 9 115 23
140 30 25 8 117 23 205 34 88 12 187 27 220 35 33 8 96 21 140 30 44 8 109 23
145 31 36 9 115 27 175 40 61 13 175 35 255 48 80 13 188 29 240 36 52 6 109
13 126 16 18 2 37 11 44 19 9 10 9 32 0 87 -6 45 -10 182 -8 349 2 150 0 324
-4 384 -5 61 -10 196 -13 300 -3 105 -10 289 -15 410 -6 121 -13 337 -16 480
-3 143 -7 262 -9 265 -2 3 -6 102 -9 220 -4 118 -9 267 -13 330 -3 63 -7 129
-8 145 -1 17 -5 102 -9 190 -3 88 -9 207 -11 265 -3 58 -10 170 -15 250 -6 80
-13 181 -16 225 -3 44 -7 82 -10 86 -2 3 -10 93 -19 200 -8 107 -17 242 -19
301 -3 59 -7 111 -10 116 -2 4 -6 74 -7 155 -1 80 -6 170 -10 199 -5 29 -13
116 -19 193 -6 77 -13 154 -16 170 -2 17 -11 95 -19 175 -8 80 -20 183 -26
230 -6 47 -12 202 -14 345 -1 143 0 286 2 318 5 54 6 57 31 57 14 0 55 -14 91
-31 36 -17 93 -44 126 -60 33 -16 68 -29 78 -29 9 0 25 -4 35 -9 9 -6 37 -19
62 -29 25 -11 82 -34 127 -51 45 -17 85 -31 89 -31 4 0 30 -11 59 -24 28 -14
71 -32 96 -41 24 -9 64 -22 89 -30 25 -8 74 -23 110 -34 36 -11 97 -33 135
-49 39 -16 79 -33 90 -37 11 -4 25 -9 30 -11 6 -2 55 -21 110 -43 55 -21 137
-55 182 -74 45 -20 96 -44 115 -53 18 -10 39 -19 47 -20 7 -2 37 -12 65 -24
28 -12 60 -25 71 -30 11 -5 66 -29 123 -54 57 -25 110 -46 117 -46 8 0 60 -22
117 -49 57 -26 115 -51 129 -54 14 -4 42 -18 63 -32 20 -14 45 -25 54 -25 9
-1 35 -9 57 -20 22 -11 47 -19 55 -20 8 0 40 -12 70 -27 30 -15 56 -28 58 -29
1 -1 5 -57 7 -125 3 -68 7 -171 9 -229 3 -58 8 -195 11 -305 3 -110 10 -270
15 -355 6 -85 10 -261 10 -390 0 -129 7 -329 14 -445 8 -115 18 -282 21 -370
3 -88 10 -207 16 -265 5 -58 14 -184 19 -280 6 -96 17 -308 26 -470 8 -162 17
-405 19 -540 2 -135 6 -344 10 -465 3 -121 7 -341 10 -490 3 -148 7 -295 10
-325 2 -30 7 -269 10 -530 3 -261 10 -641 16 -845 5 -203 14 -401 19 -440 5
-38 12 -129 16 -201 l7 -131 29 -17 c27 -17 31 -17 54 -1 21 14 25 22 20 48
-3 18 -8 70 -11 117 -3 47 -8 114 -11 150 -3 36 -7 79 -9 95 -2 17 -6 134 -9
260 -3 127 -8 271 -11 320 -3 50 -7 200 -10 335 -3 135 -7 364 -10 510 -3 146
-8 357 -11 470 -3 113 -7 327 -8 475 -2 149 -7 421 -10 605 -4 184 -11 387
-16 450 -5 63 -14 225 -20 360 -6 135 -15 292 -20 350 -6 58 -14 173 -20 255
-5 83 -12 224 -15 315 -3 91 -10 202 -15 248 -6 45 -13 151 -15 235 -2 83 -7
265 -10 402 -3 138 -10 333 -16 435 -6 102 -12 331 -14 510 l-2 325 -47 32
c-26 18 -65 37 -87 43 -21 6 -41 15 -44 20 -3 6 -14 10 -24 10 -9 0 -22 5 -28
11 -7 7 -36 20 -65 31 -29 10 -69 24 -88 30 -19 7 -46 19 -60 29 -14 9 -108
49 -210 89 -102 40 -205 81 -230 92 -25 11 -61 27 -80 35 -19 8 -44 19 -55 23
-11 5 -51 23 -90 40 -38 17 -79 35 -90 40 -11 4 -36 15 -57 24 -20 9 -41 16
-46 16 -6 0 -23 5 -39 12 -15 6 -30 12 -33 13 -3 0 -27 11 -55 24 -27 13 -66
29 -86 36 -19 7 -59 25 -87 39 -28 14 -60 26 -70 26 -11 0 -68 16 -127 36 -59
19 -138 49 -174 66 -36 16 -75 33 -86 37 -11 5 -36 14 -55 20 -19 7 -69 25
-110 41 -41 15 -97 36 -125 46 -27 9 -70 27 -95 40 -25 12 -63 31 -85 42 -22
11 -64 29 -94 41 -29 12 -60 21 -67 21 -7 0 -30 8 -51 18 -21 9 -39 20 -41 25
-2 4 -9 6 -15 5z m-107 -121 c13 -2 15 -48 16 -342 0 -187 3 -362 6 -390 3
-27 10 -88 16 -135 7 -47 19 -148 28 -225 8 -77 19 -183 24 -235 4 -52 17
-201 28 -330 12 -129 23 -293 27 -365 3 -71 10 -159 15 -195 5 -36 10 -92 10
-126 0 -33 4 -85 10 -115 5 -30 14 -124 20 -209 6 -85 15 -193 20 -240 5 -47
12 -164 15 -260 3 -96 8 -200 10 -230 2 -30 6 -91 9 -135 3 -44 8 -190 11
-325 3 -135 10 -384 16 -555 6 -170 12 -364 14 -430 1 -66 5 -187 9 -270 4
-82 11 -259 17 -392 5 -132 9 -337 9 -455 -1 -117 -3 -257 -3 -310 -1 -59 -7
-102 -14 -109 -6 -6 -22 -13 -35 -15 -13 -1 -41 -5 -63 -9 -22 -3 -65 -10 -95
-15 -30 -5 -84 -14 -120 -21 -36 -6 -117 -22 -180 -34 -63 -13 -153 -33 -200
-44 -47 -12 -99 -25 -116 -31 -17 -5 -45 -10 -62 -10 -18 0 -58 -6 -90 -14
-31 -8 -79 -19 -107 -25 -27 -6 -79 -13 -115 -16 -36 -4 -105 -13 -155 -21
-49 -8 -108 -19 -130 -25 -22 -6 -62 -15 -90 -20 -27 -5 -104 -21 -170 -35
-66 -14 -149 -33 -185 -41 -36 -9 -92 -24 -125 -35 -33 -10 -69 -23 -80 -27
-11 -5 -27 -12 -37 -14 -11 -4 -18 1 -22 16 -3 12 -5 118 -5 235 -1 118 -3
217 -5 221 -3 4 -7 115 -10 247 -4 131 -8 304 -11 384 -3 80 -10 280 -15 445
-5 165 -12 415 -15 555 -3 140 -10 372 -16 515 -6 142 -12 262 -14 265 -2 3
-5 83 -6 178 -2 172 -2 173 23 200 13 15 32 43 40 62 8 19 17 53 19 75 2 22 3
67 3 100 0 41 -7 74 -22 105 -12 25 -40 64 -64 88 -32 34 -42 52 -44 80 -1 20
-5 75 -8 122 -4 47 -10 148 -12 225 -3 77 -7 402 -10 721 -4 554 -5 583 -24
626 -13 29 -28 48 -42 52 -13 3 -35 6 -50 6 -15 0 -51 9 -80 19 -29 10 -70 21
-91 24 -21 3 -88 21 -150 41 -62 19 -128 37 -148 40 -21 4 -41 12 -47 19 -5 6
-12 84 -16 172 -3 88 -9 189 -11 225 -3 36 -9 144 -15 240 -5 96 -11 220 -12
275 l-3 100 40 -2 c22 -1 60 -8 85 -17 26 -9 78 -16 122 -16 42 0 88 4 102 10
13 5 105 10 203 11 98 0 252 7 343 15 91 8 221 19 290 24 69 5 152 14 185 19
33 6 78 12 100 16 22 3 69 9 105 14 36 6 135 13 220 17 85 4 162 7 170 6 8 0
67 4 130 9 63 5 203 12 310 14 131 2 213 8 250 19 30 8 62 14 70 13z m-5862
-478 l72 1 1 -47 c1 -27 0 -58 -1 -70 -1 -12 4 -32 10 -44 7 -12 15 -67 18
-123 3 -55 5 -128 5 -161 0 -33 -1 -132 -2 -220 -1 -88 -2 -174 -1 -192 0 -18
5 -44 10 -58 6 -15 7 -31 4 -37 -4 -6 -6 -52 -4 -102 1 -50 4 -176 6 -281 2
-104 4 -210 4 -235 0 -25 -3 -61 -6 -81 -3 -21 -1 -40 5 -43 7 -4 9 -51 5
-129 -2 -67 0 -175 5 -240 6 -65 6 -128 2 -139 -4 -12 -4 -38 0 -58 4 -19 10
-86 12 -148 2 -62 0 -115 -5 -118 -5 -4 -6 -74 -3 -162 4 -87 9 -247 11 -357
2 -110 4 -219 4 -242 0 -24 0 -53 -1 -65 0 -13 2 -113 6 -223 3 -110 10 -215
15 -234 5 -19 7 -37 5 -40 -2 -4 1 -54 6 -111 6 -58 12 -168 14 -245 2 -77 8
-160 13 -185 6 -25 13 -76 17 -115 3 -38 8 -115 11 -170 2 -55 4 -109 5 -120
0 -11 0 -67 1 -125 0 -58 0 -112 0 -120 0 -8 6 -74 14 -147 8 -72 16 -198 19
-280 3 -81 12 -267 20 -413 7 -146 16 -399 19 -563 3 -164 8 -302 11 -307 3
-5 -3 -11 -12 -14 -10 -3 -72 -10 -138 -16 -66 -6 -136 -15 -155 -20 -19 -4
-82 -11 -140 -15 -58 -3 -154 -13 -215 -20 -60 -8 -166 -19 -235 -25 -69 -6
-147 -13 -174 -15 -27 -3 -53 -8 -58 -11 -5 -3 -52 -12 -106 -19 -53 -8 -122
-15 -152 -15 -30 0 -73 -5 -95 -11 -22 -6 -78 -14 -125 -19 -47 -5 -125 -13
-175 -19 -49 -6 -132 -19 -183 -30 -51 -11 -97 -23 -102 -26 -6 -3 -65 -10
-132 -14 -68 -5 -143 -16 -168 -24 -25 -9 -48 -13 -53 -8 -5 5 -10 28 -13 52
-2 24 -6 60 -9 80 -3 21 -7 90 -10 155 -2 66 -9 234 -15 374 -6 140 -13 284
-15 320 -3 36 -8 151 -10 255 -3 105 -8 228 -12 275 -3 47 -7 112 -8 145 -1
33 -7 98 -13 145 -6 47 -13 128 -17 180 -3 52 -10 124 -15 160 -5 36 -17 141
-26 233 -8 93 -14 214 -13 270 2 56 -1 200 -5 320 l-8 219 70 66 c49 47 76 82
91 119 12 28 21 66 21 83 0 17 -9 55 -19 85 -10 29 -31 70 -46 89 -15 20 -33
36 -40 36 -6 0 -20 9 -30 20 -10 11 -23 20 -29 20 -6 0 -23 10 -37 23 -24 20
-27 32 -38 142 -7 66 -16 217 -21 335 -5 118 -14 242 -19 275 -6 33 -17 105
-26 160 -8 56 -15 123 -15 150 0 28 -5 82 -11 120 -5 39 -10 97 -10 130 0 33
2 70 5 83 3 13 1 34 -4 46 -6 17 -20 26 -47 31 -21 3 -63 17 -93 30 -30 13
-95 36 -145 50 -49 14 -121 35 -160 46 -38 12 -91 30 -117 40 -26 11 -55 19
-66 19 -11 0 -24 6 -30 13 -5 6 -13 46 -16 87 -4 41 -11 109 -16 150 -6 41
-24 174 -40 295 -17 121 -33 240 -36 265 -2 25 -6 65 -8 90 -2 25 -10 103 -16
173 -7 70 -11 130 -8 132 2 3 58 14 124 26 65 12 137 25 159 29 22 5 69 13
105 20 36 6 135 25 220 42 85 17 178 35 205 40 28 4 75 11 105 14 30 3 129 19
220 35 91 16 183 33 205 39 22 5 63 11 90 14 28 2 70 9 95 15 25 6 70 16 100
22 30 6 66 15 80 20 14 5 39 11 55 13 17 3 75 10 130 16 55 7 103 14 106 16 3
2 57 8 120 14 63 6 164 16 224 21 61 6 126 12 145 14 19 2 98 14 175 25 77 12
212 26 300 31 88 5 169 11 180 13 11 2 53 4 93 5z m3217 -803 c11 -2 90 -23
175 -45 85 -23 175 -47 200 -55 25 -8 62 -17 82 -21 24 -4 42 -14 50 -28 9
-16 12 -159 13 -567 0 -300 3 -550 7 -555 3 -6 9 -67 12 -135 3 -69 8 -181 12
-250 3 -69 5 -129 3 -133 -2 -5 -36 -9 -75 -11 -58 -2 -81 -9 -130 -35 -41
-23 -70 -49 -96 -87 -21 -29 -38 -60 -38 -69 0 -8 6 -18 14 -21 11 -4 11 -17
-2 -77 -11 -53 -11 -76 -3 -89 6 -10 11 -29 11 -42 0 -19 16 -39 61 -76 33
-27 74 -57 91 -66 22 -11 59 -17 119 -17 81 0 87 -2 88 -21 0 -12 7 -95 15
-186 9 -91 17 -208 20 -260 3 -52 8 -257 11 -455 3 -198 8 -418 10 -490 3 -71
8 -179 11 -239 4 -60 8 -165 9 -235 2 -69 6 -268 9 -441 4 -173 9 -321 12
-329 2 -8 6 -133 7 -279 l3 -264 -26 -10 c-14 -5 -79 -19 -145 -29 -66 -11
-140 -23 -165 -28 -25 -5 -64 -15 -87 -22 -29 -9 -46 -10 -53 -3 -6 6 -12 53
-15 105 -2 52 -6 117 -9 144 -3 28 -8 77 -10 110 -3 33 -8 202 -12 375 -3 173
-8 318 -11 323 -2 4 -9 137 -15 295 -6 158 -10 316 -9 352 1 36 -3 119 -9 185
-6 66 -13 154 -15 195 -2 41 -9 199 -15 350 -5 151 -17 338 -25 415 -8 77 -17
230 -21 340 -4 110 -8 214 -9 230 -2 17 -6 86 -10 155 -3 69 -8 253 -10 410
-2 157 -6 299 -8 315 -3 17 -8 93 -13 170 -4 77 -8 183 -9 235 -2 52 -6 205
-10 340 -3 135 -10 288 -15 340 -5 52 -10 136 -10 186 0 50 3 94 7 98 4 4 17
5 28 2z m-9160 -32 c22 -3 61 -6 87 -7 25 -1 48 -4 51 -7 3 -3 10 -92 16 -198
7 -106 16 -203 21 -215 6 -12 14 -49 19 -82 5 -33 7 -63 5 -66 -2 -4 -7 -110
-10 -235 -3 -126 -8 -247 -10 -269 -2 -22 -6 -103 -9 -180 -3 -77 -9 -246 -13
-375 -4 -129 -5 -247 -1 -262 4 -15 11 -243 15 -505 4 -263 6 -500 5 -528 -1
-27 3 -167 9 -310 5 -143 10 -325 11 -405 0 -80 5 -197 10 -260 6 -63 11 -151
13 -195 2 -44 7 -179 10 -300 4 -121 9 -245 11 -275 3 -30 6 -122 8 -205 2
-82 6 -202 10 -265 4 -63 9 -165 10 -226 2 -61 7 -115 10 -121 4 -6 9 -129 12
-274 3 -145 7 -289 10 -319 3 -30 7 -111 10 -180 3 -69 7 -152 10 -185 3 -33
8 -87 11 -120 3 -33 4 -94 3 -135 -1 -41 -3 -89 -4 -107 -1 -18 -8 -40 -16
-49 -11 -13 -11 -18 -1 -21 6 -3 12 -14 12 -24 0 -11 -5 -29 -10 -40 -6 -10
-7 -19 -3 -19 4 0 6 -27 5 -60 -3 -43 -8 -60 -18 -60 -8 0 -14 -3 -14 -6 0 -4
7 -12 15 -18 11 -9 15 -40 16 -148 0 -75 -2 -142 -6 -148 -4 -6 -1 -17 5 -25
8 -10 10 -31 5 -64 -4 -27 -14 -56 -24 -65 -9 -9 -37 -18 -62 -21 -24 -3 -71
-12 -104 -20 -33 -7 -85 -16 -115 -19 -30 -3 -72 -10 -92 -16 -21 -5 -55 -15
-75 -21 -21 -6 -56 -14 -78 -18 -22 -4 -59 -13 -83 -20 -23 -6 -70 -16 -105
-21 -34 -5 -93 -16 -132 -24 -38 -7 -92 -19 -120 -26 -27 -7 -60 -16 -73 -21
-13 -5 -34 -9 -48 -9 -14 0 -62 -9 -107 -20 -45 -11 -91 -25 -102 -30 -11 -5
-65 -18 -120 -30 -55 -11 -114 -25 -131 -30 -17 -6 -42 -10 -56 -10 -14 0 -87
-18 -163 -40 -75 -22 -147 -46 -159 -52 -11 -6 -32 -13 -46 -14 -14 -2 -34 -7
-45 -12 -11 -5 -56 -24 -100 -41 -44 -18 -98 -37 -120 -42 -22 -5 -69 -18
-105 -29 -36 -11 -110 -31 -165 -44 -55 -14 -129 -34 -165 -44 -36 -10 -127
-27 -203 -37 -75 -10 -139 -16 -142 -13 -3 3 -8 16 -10 29 -3 13 -12 83 -21
154 -8 72 -13 146 -10 166 3 20 2 59 -3 86 -6 27 -13 184 -16 349 -4 164 -9
306 -12 314 -2 8 -7 94 -9 190 -2 96 -8 238 -14 315 -5 77 -12 214 -15 305 -3
91 -7 192 -10 225 -2 33 -6 98 -10 145 -3 47 -10 144 -15 215 -6 72 -17 207
-26 300 -8 94 -19 222 -25 285 -6 63 -10 133 -10 155 0 22 -11 105 -24 185
-13 80 -29 183 -35 230 -7 47 -18 164 -25 260 -8 96 -16 189 -19 205 -2 17 -7
66 -11 110 -3 44 -8 100 -10 125 -2 25 -9 95 -15 155 -7 61 -13 128 -15 150
-2 22 -6 87 -10 145 -4 58 -11 132 -15 165 -5 33 -12 85 -16 115 -3 30 -9 59
-11 63 -3 5 -9 52 -14 105 -5 53 -11 108 -14 122 -2 14 -11 86 -19 160 -8 74
-18 178 -22 230 -3 52 -12 135 -20 184 -7 49 -11 93 -8 97 3 5 0 44 -7 86 -6
43 -13 105 -15 138 -2 33 -8 114 -14 179 -6 66 -15 125 -20 131 -5 7 -9 29 -9
51 1 21 -4 89 -11 149 -6 61 -15 144 -20 185 -4 41 -15 131 -24 200 -9 69 -20
148 -26 175 -5 28 -12 66 -14 85 -2 19 -9 58 -15 85 -5 28 -15 79 -20 115 -6
36 -24 128 -41 205 -16 77 -30 145 -30 150 0 6 35 18 78 28 42 9 109 21 147
27 39 5 99 10 135 10 36 0 103 6 150 14 47 8 126 20 175 26 50 6 144 15 210
20 66 6 172 15 235 21 63 6 148 15 188 20 40 5 100 9 132 9 32 0 87 6 122 14
35 8 108 17 163 21 55 3 213 8 350 10 138 2 315 10 395 18 80 9 186 18 235 21
50 4 172 8 273 11 101 3 205 10 230 16 26 6 90 15 142 19 52 4 113 6 135 4z
m2921 -985 c38 -12 105 -32 149 -44 44 -13 98 -27 120 -30 22 -4 50 -13 62
-21 12 -8 35 -14 51 -14 16 0 35 -6 41 -14 6 -7 24 -16 40 -19 28 -6 29 -8 36
-84 3 -43 11 -118 16 -168 5 -49 11 -133 13 -185 2 -56 10 -110 19 -131 9 -20
18 -71 21 -115 2 -43 8 -126 11 -184 4 -58 8 -150 10 -205 2 -55 7 -137 12
-182 4 -46 6 -83 3 -83 -3 -1 -34 -3 -69 -6 -46 -4 -79 -14 -115 -35 -28 -16
-68 -44 -88 -62 -24 -21 -45 -53 -59 -92 -17 -44 -23 -82 -23 -140 0 -56 5
-92 18 -120 10 -22 24 -54 32 -72 7 -18 30 -43 51 -56 21 -13 52 -28 68 -34
17 -5 77 -10 134 -10 l105 -1 2 -48 c1 -27 5 -130 10 -229 4 -99 7 -205 6
-235 -2 -30 2 -116 8 -190 5 -74 12 -175 15 -224 3 -49 8 -93 11 -98 4 -5 10
-58 15 -116 4 -59 11 -136 14 -172 4 -36 11 -103 16 -150 5 -47 9 -120 9 -162
0 -42 4 -79 8 -82 4 -2 4 -55 -1 -118 -6 -77 -5 -139 3 -193 7 -44 13 -156 15
-249 2 -92 6 -232 10 -310 3 -77 8 -175 10 -216 2 -41 7 -129 11 -195 4 -66 7
-133 8 -149 1 -28 -2 -30 -59 -43 -33 -8 -80 -19 -105 -25 -25 -6 -81 -14
-125 -18 -49 -5 -85 -4 -92 3 -7 5 -13 29 -13 53 0 32 4 44 14 44 8 0 18 9 21
20 4 11 4 33 0 49 -3 16 -15 89 -26 162 -11 74 -23 150 -25 169 -3 19 -9 44
-14 55 -5 11 -14 67 -20 125 -6 58 -15 139 -20 180 -6 41 -17 192 -25 335 -9
143 -20 321 -25 395 -5 74 -14 196 -19 271 -6 75 -13 190 -16 255 -2 66 -5
171 -5 234 -1 63 -6 142 -10 175 -5 33 -12 98 -15 144 -3 46 -12 140 -20 210
-8 69 -19 162 -24 206 -6 44 -15 159 -21 255 -6 96 -15 189 -20 205 -4 17 -12
71 -16 120 -4 50 -8 101 -10 115 -1 14 -7 59 -13 100 -6 41 -13 95 -16 120 -3
25 -12 95 -21 155 -8 61 -21 146 -29 190 -8 44 -19 116 -25 160 -6 44 -15 105
-21 135 -5 30 -17 107 -25 170 -9 63 -17 125 -19 137 -2 13 -6 41 -10 63 -4
22 -8 52 -10 68 -2 15 -7 82 -11 149 l-7 122 69 -20z m6724 -869 c19 0 46 -6
60 -13 21 -11 25 -20 27 -67 1 -30 4 -114 7 -187 4 -111 2 -132 -11 -137 -8
-3 -33 -6 -56 -6 -23 0 -60 9 -82 19 -22 10 -55 32 -74 48 -30 25 -35 37 -39
85 -3 39 1 71 14 105 9 26 23 55 29 63 7 8 15 23 18 32 4 10 21 27 39 38 18
11 49 20 68 20z m179 -180 c5 0 12 -7 15 -16 4 -9 4 -25 1 -36 -4 -10 -11 -16
-16 -13 -5 4 -9 19 -9 36 0 16 4 29 9 29z m-6343 -521 c23 1 46 -5 52 -11 5
-7 13 -40 16 -73 3 -33 6 -69 6 -80 1 -11 6 -74 12 -139 11 -113 10 -120 -8
-133 -14 -11 -42 -14 -110 -11 -66 3 -99 9 -118 22 -16 10 -39 44 -57 83 -16
36 -29 77 -29 91 0 15 9 45 19 67 10 22 25 46 34 54 10 7 17 19 17 26 0 6 19
29 42 49 23 21 51 42 62 46 12 5 40 9 62 9z m200 -86 c19 -15 42 -44 50 -63 8
-19 15 -49 16 -67 1 -18 -10 -55 -23 -81 -13 -27 -34 -56 -46 -65 l-21 -17 -8
98 c-4 53 -7 120 -6 147 0 28 1 56 1 63 1 8 14 2 37 -15z"/>
<g>
<path d="M1875 7247 c-34 2 -59 -2 -80 -15 -16 -9 -39 -24 -51 -32 -11 -8 -43
-44 -70 -80 -27 -36 -58 -84 -68 -108 -11 -23 -25 -47 -33 -53 -7 -7 -13 -30
-12 -58 0 -25 4 -54 7 -63 4 -10 27 -39 52 -64 28 -30 73 -60 120 -82 66 -31
87 -36 171 -40 84 -4 101 -2 140 18 24 12 66 45 92 73 27 29 55 67 64 86 8 18
13 52 12 75 -2 22 -9 57 -17 76 -8 19 -20 46 -26 60 -6 14 -22 41 -37 60 -15
20 -57 53 -93 75 -37 22 -79 46 -94 54 -15 8 -49 16 -77 18z m29 -97 c10 0 36
-15 57 -32 21 -18 55 -46 75 -63 20 -16 45 -49 56 -74 10 -24 19 -58 20 -75 1
-18 -4 -41 -10 -53 -7 -11 -32 -39 -57 -61 -27 -23 -59 -42 -80 -45 -19 -3
-47 -4 -62 -1 -16 2 -46 9 -68 16 -22 6 -44 15 -49 20 -6 4 -17 8 -25 8 -8 0
-32 17 -53 37 -23 22 -38 47 -38 60 0 13 9 42 21 65 11 22 29 50 40 61 10 12
19 24 19 29 0 4 13 21 29 37 16 17 47 39 68 51 21 11 46 20 57 20z"/>
</g>
</g>
<g>
<path d="M11764 10567 c-45 3 -74 1 -79 -6 -3 -6 -17 -11 -31 -11 -13 0 -58
-9 -100 -20 -42 -11 -99 -32 -127 -46 -29 -15 -86 -47 -127 -72 -41 -25 -104
-73 -140 -106 -35 -32 -72 -73 -82 -90 -9 -17 -28 -53 -42 -81 -14 -27 -36
-97 -50 -155 -20 -79 -26 -131 -26 -212 0 -73 5 -125 17 -163 14 -44 36 -77
109 -159 50 -57 116 -126 146 -153 29 -27 87 -70 128 -95 41 -26 104 -58 140
-72 36 -14 103 -40 149 -58 59 -23 87 -40 94 -57 7 -13 33 -33 64 -46 36 -16
52 -29 51 -42 0 -10 5 -65 11 -123 6 -58 14 -124 17 -147 3 -24 2 -43 -2 -43
-5 0 -74 9 -154 20 -80 10 -161 22 -180 25 -19 4 -56 15 -82 26 -26 10 -53 19
-60 19 -8 0 -22 -6 -33 -13 -15 -12 -18 -31 -21 -113 -2 -54 -8 -128 -14 -164
-6 -36 -15 -123 -21 -195 -5 -71 -16 -155 -23 -185 -8 -30 -19 -79 -26 -107
-6 -29 -12 -74 -12 -100 0 -27 -6 -75 -13 -108 -7 -33 -16 -96 -21 -140 -4
-44 -9 -91 -10 -105 -1 -14 -7 -43 -13 -65 -6 -22 -17 -96 -25 -165 -8 -69
-14 -132 -13 -140 1 -8 -2 -58 -7 -110 -4 -52 -12 -99 -16 -105 -4 -5 -10 -46
-14 -89 -4 -44 -14 -92 -22 -107 -8 -15 -14 -45 -14 -66 0 -21 6 -49 13 -63 7
-14 20 -26 29 -28 9 -2 24 8 33 22 9 13 18 47 20 74 2 27 7 67 10 88 4 22 13
62 20 89 8 28 19 131 25 230 7 99 15 191 20 205 4 14 9 47 10 74 0 27 5 56 10
65 4 9 8 21 8 26 0 6 4 42 8 80 4 39 8 75 9 80 0 6 4 33 9 60 4 28 9 66 12 85
3 19 9 64 14 100 4 36 18 126 30 200 11 74 23 136 25 139 3 2 6 -4 7 -15 0
-10 3 -30 4 -44 2 -14 8 -136 13 -272 6 -135 9 -478 7 -761 -2 -496 -3 -516
-23 -554 -11 -21 -24 -59 -28 -83 -4 -24 -18 -73 -32 -109 -13 -36 -29 -79
-34 -96 -6 -16 -24 -84 -40 -150 -17 -66 -35 -140 -40 -165 -5 -24 -14 -49
-19 -54 -6 -6 -10 -18 -10 -28 0 -10 -11 -41 -25 -68 -14 -28 -23 -50 -20 -50
3 0 0 -10 -6 -22 -6 -12 -18 -52 -26 -90 -8 -38 -22 -83 -33 -101 -10 -17 -21
-52 -25 -77 -3 -25 -15 -72 -25 -105 -11 -33 -31 -97 -45 -143 -14 -46 -28
-102 -31 -125 -4 -23 -10 -46 -14 -52 -4 -5 -16 -39 -28 -75 -11 -36 -28 -94
-36 -130 -9 -36 -18 -80 -21 -99 -3 -19 -9 -39 -12 -44 -3 -6 -13 -38 -20 -71
-8 -34 -17 -78 -20 -99 -3 -20 -9 -40 -14 -43 -5 -3 -9 -14 -9 -26 0 -11 -6
-32 -14 -46 -8 -15 -25 -56 -40 -92 -14 -36 -30 -86 -36 -112 -5 -26 -17 -66
-26 -88 -9 -22 -22 -40 -28 -40 -7 0 -34 14 -62 32 -27 18 -56 37 -65 43 -10
5 -41 23 -69 38 -29 15 -71 42 -94 60 -23 17 -69 54 -103 82 -34 27 -78 60
-98 73 -20 12 -45 22 -55 22 -11 0 -23 -8 -28 -18 -6 -9 -6 -27 -2 -38 5 -12
23 -32 42 -45 18 -12 56 -41 83 -63 28 -23 61 -47 75 -55 14 -8 34 -19 45 -25
11 -6 50 -32 86 -59 37 -26 69 -47 72 -47 4 0 45 -25 91 -55 47 -31 88 -60 91
-65 4 -6 17 -10 31 -10 16 0 27 8 33 23 5 12 16 46 25 76 9 29 16 60 16 69 0
8 6 23 14 31 8 9 30 72 49 141 19 69 40 139 46 155 6 17 22 67 36 113 14 46
25 91 25 100 0 9 16 78 34 152 19 74 40 153 46 175 6 22 22 81 36 130 14 50
30 104 35 120 6 17 20 62 30 100 11 39 23 86 28 106 4 21 20 77 36 125 15 49
31 97 36 106 5 10 9 28 9 40 0 13 12 50 25 83 14 33 25 68 25 78 0 9 4 17 8
17 5 0 15 26 22 58 7 31 25 95 40 142 15 47 33 109 39 138 6 29 18 66 26 81 8
16 16 41 19 57 3 16 20 63 38 104 18 41 36 77 40 81 4 3 44 2 88 -3 44 -4 106
-15 138 -23 31 -9 73 -20 92 -25 19 -5 46 -11 60 -14 14 -3 50 -14 80 -25 30
-11 78 -27 105 -36 28 -9 66 -20 85 -25 19 -4 67 -20 106 -33 40 -14 98 -31
130 -37 33 -7 76 -15 97 -20 21 -4 44 -13 50 -19 7 -7 7 -18 -1 -36 -7 -16
-12 -80 -12 -165 0 -76 -5 -151 -10 -166 -6 -15 -12 -66 -15 -114 -2 -48 -9
-135 -15 -195 -6 -59 -11 -131 -11 -159 0 -28 -5 -92 -11 -142 -10 -82 -9 -96
7 -130 10 -22 36 -60 59 -85 22 -25 60 -70 84 -100 24 -30 79 -106 123 -169
45 -63 114 -154 155 -202 41 -48 74 -91 74 -95 0 -5 15 -24 33 -43 17 -19 50
-62 72 -95 22 -33 54 -76 70 -95 17 -19 39 -46 48 -60 10 -14 38 -52 62 -85
25 -33 49 -71 55 -84 9 -21 6 -28 -33 -65 -23 -22 -80 -74 -125 -114 -45 -40
-82 -79 -82 -86 0 -7 8 -20 18 -29 10 -10 30 -17 44 -17 19 0 40 17 83 65 31
36 62 65 68 65 7 0 42 32 80 72 37 40 67 80 67 90 0 10 -6 28 -12 41 -7 12
-19 26 -25 30 -7 4 -13 14 -13 22 0 8 -12 32 -27 53 -16 22 -55 74 -88 117
-33 42 -67 87 -75 99 -8 11 -19 26 -25 32 -5 6 -28 37 -50 69 -22 32 -58 79
-80 105 -22 26 -60 72 -85 104 -25 31 -71 91 -103 133 -32 43 -84 114 -117
158 -33 44 -85 109 -115 145 l-54 65 3 150 c2 83 8 227 14 320 6 94 16 204 22
245 6 41 13 122 16 180 2 58 6 118 8 134 1 15 13 36 25 45 20 15 21 23 16 81
-3 36 -8 144 -11 240 -3 96 -5 218 -4 270 1 52 -4 167 -10 255 -6 88 -15 222
-21 298 -6 76 -16 184 -24 240 -7 56 -10 106 -7 112 3 5 5 45 3 88 -1 56 1 77
9 72 6 -4 16 -19 22 -33 6 -15 19 -49 29 -76 10 -27 16 -53 13 -58 -3 -5 0
-16 7 -24 6 -8 9 -17 6 -20 -3 -3 -1 -18 4 -33 6 -14 15 -46 20 -71 6 -25 11
-52 13 -60 1 -8 11 -42 20 -75 10 -33 22 -70 27 -83 5 -13 9 -34 9 -48 0 -14
5 -34 11 -46 6 -11 13 -35 15 -53 2 -18 16 -70 30 -116 14 -46 28 -106 31
-134 3 -27 11 -59 19 -70 8 -11 14 -31 14 -45 0 -14 9 -52 20 -85 11 -33 32
-107 46 -165 15 -58 28 -118 31 -135 2 -16 8 -39 12 -50 5 -11 16 -60 26 -110
11 -60 24 -98 38 -113 12 -13 30 -22 42 -20 17 3 20 10 19 58 0 30 -8 91 -16
135 -9 44 -33 143 -53 220 -20 77 -43 155 -51 172 -8 18 -17 50 -19 70 -3 21
-11 54 -19 73 -8 19 -28 98 -45 175 -17 77 -33 145 -34 150 -2 6 -11 37 -21
70 -11 33 -27 86 -38 119 -10 32 -23 77 -28 100 -4 22 -17 77 -29 120 -12 44
-21 88 -21 98 0 10 -4 26 -9 36 -4 9 -25 69 -44 132 -20 63 -43 149 -51 190
-8 41 -19 116 -26 165 -6 50 -18 107 -27 128 -11 26 -24 39 -42 43 -14 3 -60
13 -101 24 -41 10 -104 26 -140 35 -36 10 -76 23 -90 30 -14 7 -66 22 -117 35
-51 12 -97 27 -102 34 -6 6 -13 36 -16 66 -4 30 -8 57 -11 61 -2 4 -5 52 -5
106 -1 54 -5 108 -10 120 -6 16 -4 23 9 28 9 4 49 15 88 25 39 10 111 38 160
61 49 24 115 65 147 91 32 26 64 48 71 48 6 0 30 19 52 43 22 23 52 58 66 77
14 19 32 51 41 70 8 19 24 68 35 109 14 51 20 110 21 195 1 66 -3 155 -9 196
-6 41 -15 79 -20 84 -6 6 -10 19 -10 30 -1 12 -13 45 -28 74 -15 29 -43 74
-62 99 -19 26 -73 85 -120 131 -46 46 -98 91 -116 100 -18 10 -62 35 -99 57
-37 22 -79 47 -94 56 -15 9 -59 21 -97 27 -38 6 -87 14 -109 18 -22 4 -72 9
-111 11z m36 -102 c53 -2 130 -12 174 -24 44 -12 87 -27 95 -35 9 -7 27 -17
41 -21 14 -4 57 -31 95 -60 39 -29 113 -97 165 -152 52 -55 104 -115 116 -135
11 -19 24 -56 27 -83 4 -26 12 -54 18 -61 6 -7 14 -62 18 -123 7 -89 5 -129
-9 -210 -15 -80 -26 -114 -56 -163 -21 -35 -54 -78 -74 -96 -19 -18 -55 -47
-80 -64 -25 -18 -47 -35 -50 -39 -3 -4 -34 -21 -69 -38 -35 -16 -68 -34 -75
-39 -6 -5 -39 -19 -74 -31 -34 -11 -83 -21 -109 -21 -26 0 -76 7 -112 16 -36
9 -97 31 -136 49 -38 17 -83 35 -100 39 -16 4 -66 25 -111 47 -45 21 -89 45
-96 53 -8 7 -30 21 -48 31 -19 10 -86 69 -149 132 -80 82 -120 131 -138 169
-21 47 -24 68 -24 157 1 56 5 123 10 147 5 25 12 54 14 65 3 11 12 39 20 61 9
23 27 60 42 83 14 23 42 60 62 82 20 23 79 70 130 106 51 35 121 76 155 90 35
14 86 32 113 40 28 8 66 19 85 23 19 5 78 7 130 5z m-301 -1889 c9 -3 30 -7
46 -10 17 -3 82 -12 145 -21 63 -8 138 -20 165 -26 28 -6 115 -29 195 -51 80
-22 168 -48 195 -58 28 -10 73 -24 100 -33 28 -8 72 -21 98 -28 l48 -14 -5
-45 c-3 -25 -6 -70 -7 -100 0 -30 4 -109 9 -175 6 -66 8 -123 5 -127 -2 -4 1
-97 8 -205 6 -109 11 -208 10 -220 0 -12 4 -34 9 -48 5 -14 15 -123 21 -243 6
-119 13 -293 15 -387 1 -93 4 -232 6 -308 l3 -139 -35 5 c-19 3 -62 12 -95 20
-33 8 -80 20 -105 26 -25 7 -94 27 -155 46 -60 18 -144 41 -185 50 -41 10 -84
23 -95 30 -11 7 -36 15 -55 19 -19 4 -46 11 -60 16 -14 4 -70 16 -125 25 -55
9 -110 19 -122 21 -23 4 -23 6 -23 167 0 89 -1 263 -2 387 -1 124 0 254 1 290
2 36 0 160 -3 275 -4 116 -9 235 -11 265 -2 30 -7 120 -10 200 -3 80 -8 186
-10 235 -2 50 -1 107 2 128 4 28 10 36 22 33z"/>
<g>
<path d="M11267 10140 c-23 0 -52 -7 -65 -15 -16 -12 -21 -24 -18 -47 2 -19
12 -38 24 -46 17 -11 28 -12 56 -2 19 6 37 18 40 26 3 9 6 31 6 50 0 33 -1 34
-43 34z"/>
</g>
<g>
<path d="M11530 9987 c-14 2 -33 -2 -43 -8 -10 -6 -50 -44 -90 -85 -39 -41
-80 -89 -90 -107 -10 -18 -16 -45 -15 -62 3 -27 8 -31 43 -37 22 -4 69 -11
105 -17 57 -10 67 -9 78 6 6 9 12 26 12 38 0 12 -5 26 -12 33 -7 7 -24 12 -39
12 -15 0 -34 3 -43 6 -9 3 -16 10 -16 15 0 5 32 41 71 79 58 58 70 75 67 97
-2 22 -9 29 -28 30z"/>
</g>
<g>
<path d="M11907 9920 c-10 0 -29 -11 -42 -24 -13 -13 -22 -32 -21 -42 2 -11
15 -26 29 -34 24 -13 30 -13 55 1 22 12 27 22 25 49 -1 18 -7 37 -15 41 -7 5
-21 9 -31 9z"/>
</g>
<g>
<path d="M11240 9616 c-27 4 -40 1 -53 -14 -12 -13 -14 -22 -8 -26 6 -4 8 -12
5 -20 -3 -8 10 -19 33 -28 21 -9 65 -23 98 -31 33 -9 83 -21 110 -28 28 -7 55
-15 60 -19 6 -4 33 -14 60 -23 28 -9 83 -28 123 -41 40 -13 81 -22 93 -19 14
4 19 12 17 27 -2 11 3 26 11 32 11 9 10 13 -3 27 -9 9 -36 21 -59 27 -23 6
-82 24 -132 41 -49 17 -112 37 -140 44 -27 8 -79 21 -115 30 -36 8 -81 18
-100 21z"/>
</g>
</g>
</g>
</svg>
