<?xml version="1.0" standalone="no"?>
<!DOCTYPE svg PUBLIC "-//W3C//DTD SVG 20010904//EN"
 "http://www.w3.org/TR/2001/REC-SVG-20010904/DTD/svg10.dtd">
<svg version="1.0" xmlns="http://www.w3.org/2000/svg"
 width="464.000000pt" height="454.000000pt" viewBox="0 0 464.000000 454.000000"
 preserveAspectRatio="xMidYMid meet">
<metadata>
Created by potrace 1.16, written by Peter Selinger 2001-2019
</metadata>
<g transform="translate(0.000000,454.000000) scale(0.100000,-0.100000)"
fill="#000000" stroke="none">
<g>
<path d="M2380 3693 c-69 4 -127 1 -170 -8 -36 -8 -121 -23 -190 -35 -69 -11
-150 -30 -180 -42 -30 -12 -86 -37 -124 -57 -38 -20 -78 -41 -90 -48 -11 -7
-48 -36 -81 -66 -33 -29 -79 -66 -102 -80 -23 -15 -74 -57 -113 -94 -38 -36
-70 -71 -70 -77 0 -6 -9 -17 -20 -24 -11 -7 -20 -20 -20 -30 0 -11 -11 -24
-25 -30 -13 -6 -33 -29 -45 -52 -11 -22 -25 -40 -31 -40 -5 0 -17 -17 -25 -37
-8 -21 -22 -53 -31 -72 -8 -18 -24 -36 -34 -38 -10 -3 -19 -10 -19 -16 0 -5
-16 -43 -36 -84 -19 -41 -42 -97 -50 -124 -8 -27 -19 -49 -23 -49 -5 0 -14
-21 -21 -47 -7 -27 -22 -60 -32 -75 -10 -15 -19 -43 -20 -62 -1 -19 -4 -34 -7
-32 -3 2 -6 -15 -6 -37 -1 -23 -4 -80 -8 -127 -4 -47 -4 -155 2 -240 8 -141
12 -162 41 -230 18 -41 36 -79 41 -84 5 -6 9 -19 9 -31 0 -12 16 -48 36 -81
19 -32 50 -75 69 -94 18 -19 37 -48 41 -63 3 -16 30 -48 61 -75 30 -26 71 -62
91 -81 20 -18 50 -40 67 -48 16 -9 45 -29 63 -44 18 -16 38 -29 46 -29 7 0 28
-13 46 -30 18 -16 42 -30 52 -30 10 0 18 -4 18 -8 0 -5 19 -19 43 -31 23 -13
74 -34 112 -48 39 -13 88 -28 110 -33 22 -5 69 -16 105 -24 36 -7 81 -20 100
-27 19 -7 44 -18 55 -25 11 -7 61 -18 111 -24 50 -7 122 -10 160 -6 38 3 113
11 166 18 53 7 100 16 104 21 4 4 24 7 44 7 20 0 45 7 56 15 10 8 29 15 40 15
12 0 24 7 28 15 3 9 18 15 38 15 18 0 53 9 77 20 24 11 51 20 60 20 10 0 21 3
25 7 4 5 11 8 14 8 4 0 40 22 81 48 40 27 92 55 115 64 22 9 55 25 71 35 17 9
44 24 60 33 17 8 42 23 56 32 14 10 50 35 80 55 31 20 96 79 146 132 50 53
100 116 112 141 12 25 26 45 31 45 6 0 10 5 10 12 0 6 7 19 15 27 8 9 29 46
48 81 18 36 41 79 50 95 9 17 32 69 51 116 19 47 40 108 47 135 6 27 13 61 15
75 2 14 8 47 13 72 6 25 8 74 5 109 -2 35 -6 70 -8 78 -1 8 -8 35 -15 60 -7
25 -23 79 -37 120 -13 41 -38 131 -54 199 -20 80 -41 139 -58 165 -15 23 -39
66 -54 96 -14 31 -33 62 -42 69 -9 7 -16 20 -16 29 0 8 -16 35 -36 59 -20 25
-47 49 -59 55 -13 6 -27 20 -33 32 -5 11 -64 63 -131 114 -67 50 -128 92 -135
92 -7 0 -28 10 -47 23 -19 12 -70 37 -114 54 -44 17 -91 34 -105 38 -14 3 -36
11 -50 17 -14 5 -38 16 -55 24 -16 7 -43 15 -60 18 -16 3 -57 12 -90 22 -33 9
-76 18 -95 20 -19 2 -64 6 -100 8 -36 2 -112 6 -170 9z m-75 -119 c11 -4 83
-11 160 -16 88 -5 181 -19 250 -35 61 -14 119 -31 130 -36 11 -6 33 -14 50
-18 16 -4 64 -21 105 -38 41 -17 91 -40 111 -51 20 -11 42 -20 49 -20 6 0 33
-18 58 -41 26 -23 61 -48 77 -56 17 -9 62 -42 100 -73 39 -32 98 -87 133 -123
34 -36 62 -74 62 -85 0 -11 7 -36 16 -57 8 -21 26 -54 38 -74 13 -20 25 -47
29 -61 3 -14 13 -45 21 -70 9 -25 20 -54 25 -65 5 -11 14 -33 19 -50 6 -16 14
-54 18 -84 3 -30 17 -84 30 -121 19 -54 23 -90 25 -187 1 -93 -2 -127 -15
-151 -9 -17 -16 -41 -16 -54 0 -13 -11 -44 -25 -70 -14 -26 -25 -53 -25 -60 0
-8 -19 -52 -43 -99 -24 -47 -56 -100 -73 -118 -16 -18 -31 -41 -34 -51 -3 -10
-30 -46 -60 -81 -30 -35 -84 -93 -120 -129 -37 -36 -79 -72 -95 -80 -17 -8
-39 -22 -50 -31 -11 -9 -36 -27 -55 -38 -19 -12 -49 -28 -67 -36 -17 -8 -34
-19 -38 -25 -3 -5 -13 -10 -22 -10 -8 0 -26 -9 -40 -20 -14 -11 -34 -20 -44
-20 -9 0 -19 -3 -21 -7 -1 -5 -28 -20 -59 -36 -31 -15 -60 -27 -65 -27 -5 0
-38 -12 -74 -26 -36 -15 -83 -35 -105 -45 -22 -11 -69 -24 -105 -29 -36 -6
-108 -15 -160 -21 -52 -5 -131 -10 -175 -9 -44 0 -96 5 -115 9 -19 5 -57 12
-85 16 -27 3 -68 15 -90 24 -22 10 -49 22 -60 26 -11 4 -42 11 -70 15 -27 5
-66 13 -85 18 -19 5 -64 23 -100 40 -36 18 -95 49 -131 69 -36 21 -101 66
-145 99 -43 34 -111 93 -149 130 -39 38 -87 91 -108 118 -20 27 -37 54 -37 60
0 7 -13 30 -29 52 -16 21 -29 41 -29 44 0 3 -4 19 -8 35 -4 17 -16 48 -27 70
-11 22 -26 84 -33 138 -7 53 -10 146 -8 205 2 59 6 121 8 137 2 17 10 44 17
60 7 17 13 37 14 46 1 9 10 42 19 75 9 32 22 73 27 89 6 17 14 45 19 63 5 19
15 39 23 45 8 7 25 35 37 62 12 28 28 57 35 65 6 8 22 42 35 75 13 33 40 82
60 109 19 27 78 94 130 149 52 56 131 136 175 179 44 43 85 78 92 78 7 0 45
22 86 50 51 34 104 59 173 81 54 17 122 38 149 45 28 8 91 19 140 26 50 6 99
18 110 25 11 8 29 11 40 7z"/>
</g>
</g>
</svg>
