<?xml version="1.0" standalone="no"?>
<!DOCTYPE svg PUBLIC "-//W3C//DTD SVG 20010904//EN"
 "http://www.w3.org/TR/2001/REC-SVG-20010904/DTD/svg10.dtd">
<svg version="1.0" xmlns="http://www.w3.org/2000/svg"
 width="1407.000000pt" height="1876.000000pt" viewBox="0 0 1407.000000 1876.000000"
 preserveAspectRatio="xMidYMid meet">
<metadata>
Created by potrace 1.16, written by Peter Selinger 2001-2019
</metadata>
<g transform="translate(0.000000,1876.000000) scale(0.100000,-0.100000)"
fill="#000000" stroke="none">
<g>
<path d="M6468 17996 c-433 1 -788 1 -790 -1 -2 -2 -152 -4 -333 -5 -182 -1
-373 -6 -425 -11 -52 -5 -126 -14 -165 -20 -38 -6 -122 -13 -185 -17 -63 -4
-120 -11 -126 -15 -7 -4 -54 -9 -105 -12 -52 -3 -150 -10 -219 -16 -69 -7
-168 -21 -220 -31 -52 -11 -162 -28 -245 -39 -82 -10 -179 -22 -215 -25 -36
-3 -128 -8 -205 -12 -98 -5 -165 -4 -222 5 -55 9 -162 12 -320 11 -224 -3
-238 -4 -241 -22 -2 -10 2 -29 8 -42 7 -12 23 -25 36 -28 13 -4 24 -11 24 -16
0 -6 9 -19 20 -30 11 -11 41 -31 67 -45 27 -15 65 -36 85 -48 20 -12 49 -32
65 -44 15 -13 33 -23 39 -23 6 0 17 -7 24 -15 7 -8 36 -26 66 -40 30 -14 61
-37 70 -50 9 -14 22 -25 30 -25 7 0 18 -9 24 -20 6 -11 17 -20 25 -20 7 0 26
-10 42 -23 15 -13 50 -36 76 -51 26 -15 62 -40 80 -55 18 -16 60 -43 95 -61
34 -17 64 -36 67 -40 3 -5 18 -15 33 -23 15 -8 44 -24 64 -34 20 -11 60 -41
89 -66 30 -26 57 -47 62 -47 4 0 20 -11 35 -25 15 -14 30 -25 33 -25 4 0 37
-20 73 -45 37 -25 71 -45 76 -45 5 0 30 -15 55 -32 26 -18 70 -50 98 -70 29
-21 66 -44 82 -52 17 -8 41 -26 55 -41 14 -15 34 -31 45 -37 11 -5 38 -20 60
-33 22 -13 60 -34 85 -46 25 -12 53 -29 63 -38 11 -9 40 -28 65 -44 26 -15 66
-36 90 -48 23 -11 42 -23 42 -27 0 -4 25 -24 55 -45 30 -20 59 -37 63 -37 5 0
31 -14 58 -32 27 -17 58 -39 69 -49 11 -9 38 -22 60 -29 22 -7 47 -18 55 -24
8 -6 31 -20 50 -30 19 -11 44 -24 55 -29 11 -6 27 -14 35 -19 8 -4 22 -11 30
-14 8 -4 37 -16 65 -28 27 -11 87 -40 132 -63 45 -23 97 -51 115 -61 18 -10
51 -29 73 -43 22 -15 50 -29 62 -33 13 -4 42 -18 65 -32 24 -14 50 -29 58 -33
8 -5 31 -16 50 -25 19 -9 53 -27 75 -40 22 -14 58 -34 80 -45 22 -12 47 -25
55 -30 8 -5 22 -12 30 -15 8 -4 27 -14 41 -24 14 -9 46 -30 70 -47 24 -16 78
-47 119 -68 41 -22 77 -42 80 -47 3 -4 39 -23 80 -43 41 -20 96 -48 122 -64
25 -15 75 -47 109 -70 35 -24 75 -43 89 -43 14 0 43 10 66 23 22 12 62 36 89
52 26 17 73 48 104 70 31 23 81 56 111 74 30 19 57 36 60 40 3 3 25 16 50 29
25 12 57 30 72 40 15 9 71 47 125 83 54 37 109 72 123 79 14 7 37 23 52 35 15
13 62 40 105 61 43 20 122 63 176 93 54 31 140 79 191 106 52 28 125 68 162
90 38 21 110 66 161 100 50 33 127 82 170 108 43 27 87 54 97 60 11 7 89 58
175 114 86 56 174 115 196 132 23 16 50 34 61 38 10 4 40 23 64 41 25 18 74
52 110 75 36 23 88 58 115 78 28 19 62 40 78 47 15 6 56 34 92 62 35 27 70 50
76 50 7 0 21 8 31 17 11 10 58 41 106 70 48 29 112 65 142 80 30 14 66 34 80
44 14 9 100 67 193 127 92 61 204 131 250 156 45 25 114 74 154 108 39 35 92
79 117 98 25 19 61 43 78 52 18 10 41 27 51 39 9 12 17 30 17 40 0 10 -10 25
-22 33 -13 8 -52 21 -88 29 -36 8 -137 18 -225 21 -88 4 -212 9 -275 11 -63 3
-173 7 -245 10 -71 3 -177 10 -235 15 -58 5 -163 12 -235 15 -71 3 -170 10
-220 15 -49 5 -128 17 -175 27 -70 14 -130 17 -340 16 -140 -1 -310 -6 -376
-12 -79 -6 -187 -7 -305 -1 -101 5 -319 12 -484 16 -165 3 -304 9 -310 12 -5
3 -364 7 -797 8z m362 -70 c41 -3 143 -8 225 -11 83 -3 235 -10 338 -15 104
-6 193 -8 197 -5 5 3 121 -2 257 -11 161 -10 308 -14 418 -10 94 3 184 7 200
10 17 3 102 7 190 11 115 4 194 1 280 -10 66 -8 163 -21 215 -29 52 -8 212
-22 355 -31 143 -9 370 -23 505 -30 135 -8 304 -15 375 -16 72 0 152 -4 180
-7 34 -5 51 -12 53 -23 2 -11 -20 -33 -60 -62 -35 -24 -88 -68 -118 -96 -30
-28 -59 -51 -65 -51 -5 0 -41 -21 -80 -46 -38 -26 -103 -69 -142 -96 -40 -26
-75 -48 -78 -48 -3 0 -27 -15 -53 -33 -26 -18 -96 -62 -157 -98 -60 -36 -117
-68 -125 -71 -8 -3 -107 -67 -220 -142 -113 -75 -213 -141 -222 -148 -9 -6
-37 -23 -61 -37 -25 -14 -114 -72 -198 -128 -85 -57 -205 -138 -268 -180 -63
-43 -119 -80 -125 -82 -6 -2 -24 -15 -39 -27 -16 -13 -33 -24 -39 -24 -5 0
-22 -9 -36 -21 -15 -11 -47 -33 -72 -49 -25 -16 -48 -30 -53 -30 -4 0 -47 -26
-95 -57 -48 -32 -91 -60 -97 -62 -5 -2 -35 -20 -65 -40 -30 -20 -86 -52 -125
-70 -38 -19 -77 -38 -85 -42 -8 -4 -45 -23 -81 -43 -36 -19 -108 -60 -160 -90
-51 -31 -97 -56 -102 -56 -4 0 -31 -16 -60 -35 -28 -19 -55 -35 -60 -35 -4 0
-33 -19 -64 -42 -31 -24 -89 -63 -129 -88 -40 -25 -135 -85 -211 -133 -76 -49
-173 -113 -215 -142 -43 -29 -97 -61 -122 -70 l-45 -17 -43 31 c-24 17 -66 42
-95 56 -28 14 -56 32 -62 39 -7 8 -26 20 -44 26 -18 7 -54 28 -82 45 -27 18
-81 48 -120 67 -38 19 -88 45 -110 59 -23 13 -50 30 -60 36 -11 7 -36 21 -55
32 -19 10 -78 42 -130 71 -52 29 -140 76 -195 103 -55 27 -123 65 -152 83 -28
19 -56 34 -61 34 -5 0 -62 28 -128 61 -65 34 -123 65 -129 69 -5 4 -37 18 -70
31 -33 13 -71 31 -85 40 -14 9 -56 33 -95 52 -38 20 -81 43 -95 51 -14 8 -45
24 -70 36 -24 12 -87 51 -140 87 -52 35 -120 82 -150 103 -30 21 -59 39 -63
39 -4 1 -63 34 -130 75 -68 40 -163 103 -212 139 -50 36 -146 100 -213 144
-68 43 -136 86 -150 95 -15 10 -34 21 -42 25 -8 3 -47 30 -87 59 -39 29 -106
76 -149 103 -43 28 -83 51 -89 51 -7 0 -20 9 -30 20 -10 11 -22 20 -26 20 -4
0 -51 29 -104 65 -52 36 -100 65 -105 65 -5 0 -13 6 -17 13 -4 7 -26 26 -48
43 -22 16 -44 32 -50 36 -5 4 -26 20 -45 36 -19 16 -73 51 -120 77 -47 26 -98
57 -115 69 -16 11 -43 28 -59 37 -17 9 -31 20 -33 26 -2 6 4 12 14 15 10 2 95
3 189 1 94 -1 179 -6 188 -9 9 -4 83 -4 164 -1 81 4 185 11 232 16 47 5 135
14 195 21 61 6 153 19 205 30 52 10 116 22 142 25 26 3 53 8 60 10 7 2 107 11
222 20 115 9 266 22 335 30 69 8 187 21 261 30 111 13 289 16 1018 19 485 1
885 6 889 10 4 4 41 5 83 2z"/>
<g>
<path d="M8723 17658 c-92 -2 -215 -4 -273 -5 -58 -1 -163 -7 -235 -13 -71 -7
-160 -20 -196 -31 -36 -10 -76 -19 -88 -19 -12 0 -47 -9 -79 -20 -41 -14 -69
-32 -99 -66 -31 -32 -43 -55 -43 -76 0 -20 14 -47 45 -85 25 -31 63 -69 83
-85 20 -17 54 -39 76 -50 21 -11 64 -26 95 -35 31 -8 90 -20 131 -28 41 -7 82
-13 90 -13 8 0 33 -3 55 -6 22 -4 81 -9 130 -12 50 -3 124 -1 165 5 41 6 129
24 195 40 66 16 149 37 185 46 36 9 69 21 75 26 5 5 20 9 33 9 13 0 33 5 45
11 12 7 46 28 75 47 32 21 60 49 72 73 11 21 20 51 20 68 0 21 -12 41 -42 73
-24 24 -69 60 -100 81 -34 22 -68 37 -87 37 -16 0 -59 7 -95 15 -48 11 -111
15 -233 13z m37 -78 c48 0 134 -7 192 -15 58 -8 116 -19 129 -24 13 -5 43 -23
65 -39 29 -22 43 -39 46 -61 3 -18 -1 -40 -9 -51 -8 -11 -32 -29 -53 -40 -22
-11 -77 -32 -122 -46 -46 -13 -105 -32 -133 -41 -27 -8 -90 -22 -140 -30 -49
-7 -112 -18 -140 -23 -27 -5 -86 -9 -130 -9 -44 0 -111 6 -150 14 -38 8 -106
15 -149 15 -51 0 -104 7 -150 21 -46 14 -90 36 -128 65 -31 24 -66 57 -77 73
-12 16 -21 36 -21 43 0 8 8 21 18 30 9 8 53 24 97 36 44 12 100 26 125 31 25
6 81 15 125 22 44 6 176 13 294 15 118 2 216 6 219 9 3 3 44 5 92 5z"/>
</g>
<g>
<path d="M4945 17625 c-100 3 -184 2 -188 -2 -5 -4 -41 -9 -80 -10 -40 -2
-151 -5 -247 -8 -96 -3 -193 -7 -215 -9 -22 -3 -58 -10 -80 -16 -22 -7 -60
-14 -85 -17 -25 -3 -52 -11 -60 -19 -9 -7 -41 -25 -72 -39 -32 -14 -60 -34
-63 -45 -3 -10 3 -36 14 -57 10 -21 31 -49 46 -63 15 -14 40 -43 55 -65 18
-26 52 -54 95 -78 38 -20 102 -47 144 -58 63 -18 119 -23 321 -29 135 -4 295
-13 357 -21 93 -11 123 -11 180 1 37 7 90 23 118 36 27 13 77 26 110 30 33 3
92 15 130 26 39 11 82 24 97 28 15 5 52 27 82 50 31 22 63 52 72 66 11 15 17
46 17 78 0 39 -7 65 -23 93 -13 21 -32 47 -43 57 -11 11 -38 24 -61 29 -22 5
-115 11 -206 12 -91 1 -181 7 -200 13 -19 6 -116 14 -215 17z m-60 -78 c66 1
158 -3 205 -9 47 -5 157 -13 245 -18 88 -5 176 -12 196 -15 24 -5 49 -20 73
-45 20 -21 36 -47 36 -58 0 -11 -22 -38 -52 -64 -29 -25 -63 -50 -75 -56 -12
-7 -31 -12 -43 -12 -12 0 -36 -6 -53 -14 -18 -8 -70 -20 -116 -26 -47 -6 -107
-20 -135 -30 -37 -13 -82 -19 -161 -20 -60 -1 -225 -2 -365 -1 -190 1 -273 5
-325 16 -38 9 -88 19 -110 22 -22 3 -54 16 -72 29 -17 13 -35 24 -39 24 -4 0
-28 17 -53 37 -25 21 -54 47 -63 58 -9 11 -22 30 -29 43 -10 18 -10 25 2 37 8
8 50 23 94 34 44 11 141 25 215 30 74 6 169 14 210 17 41 3 125 9 185 13 61 4
164 8 230 8z"/>
</g>
<g>
<path d="M6722 16648 c-29 -1 -54 -4 -56 -5 -2 -2 -36 -8 -77 -14 -41 -5 -135
-12 -211 -14 -75 -3 -148 -9 -163 -15 -14 -5 -52 -10 -83 -10 -31 0 -92 -7
-135 -15 -43 -8 -91 -22 -107 -30 -16 -8 -34 -15 -40 -15 -6 0 -40 -20 -75
-45 -41 -30 -70 -59 -83 -86 -14 -28 -18 -48 -13 -62 5 -12 23 -30 41 -40 19
-10 50 -25 69 -32 20 -7 45 -16 56 -20 11 -5 49 -19 85 -32 36 -13 101 -31
145 -40 59 -11 143 -15 325 -15 154 0 256 4 273 11 16 6 79 13 140 16 62 3
189 10 283 15 94 5 202 17 240 25 38 9 94 23 126 32 31 9 70 29 87 45 25 23
31 37 31 69 0 34 -7 48 -46 89 -25 27 -61 54 -80 60 -19 6 -34 16 -34 21 0 5
-10 9 -22 9 -13 0 -32 7 -42 15 -11 8 -29 15 -41 15 -12 0 -55 9 -96 19 -41
11 -108 23 -149 26 -41 3 -124 10 -185 16 -60 5 -134 8 -163 7z m138 -93 c118
-2 229 -9 245 -14 17 -6 57 -15 90 -20 33 -6 81 -14 106 -20 25 -5 70 -21 100
-35 30 -14 66 -37 82 -51 15 -14 27 -34 27 -45 0 -13 -11 -22 -37 -30 -21 -6
-54 -15 -73 -20 -19 -5 -66 -13 -105 -19 -38 -6 -137 -15 -220 -21 -82 -5
-197 -11 -255 -14 -58 -3 -150 -10 -205 -16 -55 -6 -163 -13 -240 -15 -84 -2
-178 1 -235 9 -52 7 -129 25 -170 41 -41 15 -100 34 -130 44 -30 9 -61 20 -67
24 -7 5 -13 12 -13 17 0 5 24 27 53 49 28 22 66 43 82 47 17 4 35 10 40 14 6
5 44 13 85 19 41 5 134 15 205 20 72 6 182 13 245 16 63 3 129 10 145 15 18 6
118 8 245 5z"/>
</g>
</g>
<g>
<path d="M10645 16030 c-5 0 -21 -7 -35 -14 -14 -8 -81 -38 -150 -67 -69 -28
-163 -72 -210 -97 -47 -25 -119 -65 -160 -90 -41 -25 -113 -70 -160 -100 -47
-30 -86 -59 -88 -63 -2 -5 -10 -9 -18 -9 -7 0 -38 -16 -68 -35 -30 -19 -58
-35 -61 -35 -3 0 -16 -9 -28 -21 -12 -11 -37 -27 -55 -34 -18 -8 -60 -35 -94
-61 -33 -26 -97 -72 -142 -102 -45 -31 -112 -71 -151 -90 -38 -19 -77 -40 -85
-47 -8 -7 -55 -34 -105 -59 -49 -26 -94 -51 -100 -56 -5 -4 -25 -11 -42 -15
-18 -3 -35 -10 -38 -15 -3 -4 -58 -34 -122 -66 -65 -32 -125 -63 -133 -69 -8
-6 -46 -24 -85 -40 -38 -16 -107 -52 -152 -81 -45 -28 -96 -63 -113 -78 -18
-14 -36 -26 -42 -26 -6 0 -19 -6 -27 -14 -9 -8 -63 -44 -121 -80 -58 -36 -132
-79 -165 -96 -33 -17 -69 -36 -80 -43 -11 -6 -35 -22 -52 -34 -17 -13 -36 -23
-42 -23 -6 0 -25 -8 -43 -18 -18 -10 -62 -31 -98 -46 -36 -16 -81 -35 -100
-43 -19 -8 -50 -21 -68 -29 -18 -8 -43 -14 -55 -14 -14 0 -63 -39 -140 -112
-65 -61 -141 -141 -170 -177 -28 -36 -86 -100 -128 -143 -43 -42 -87 -79 -99
-83 -15 -5 -25 -2 -31 6 -4 8 -18 27 -31 43 -13 16 -60 70 -105 120 -46 50
-83 95 -83 99 0 5 -35 47 -78 95 -42 48 -93 106 -111 130 -19 23 -37 42 -41
42 -4 0 -45 25 -91 55 -46 30 -93 62 -104 71 -11 8 -74 47 -140 85 -66 39
-129 79 -141 90 -11 10 -23 19 -27 19 -4 0 -35 20 -70 43 -34 24 -87 58 -117
75 -30 16 -86 49 -125 71 -38 23 -76 41 -84 41 -8 0 -28 10 -45 23 -17 13 -56
38 -87 55 -31 18 -63 32 -72 32 -8 0 -17 6 -20 13 -3 8 -20 21 -39 31 -18 9
-42 22 -53 29 -11 6 -44 27 -73 46 -30 18 -126 73 -214 122 -88 49 -165 89
-172 89 -6 0 -24 9 -41 21 -16 11 -39 24 -50 30 -11 5 -27 13 -35 18 -8 5 -31
16 -50 25 -19 8 -51 26 -71 38 -20 13 -56 36 -80 52 -24 16 -62 41 -84 55 -22
15 -61 36 -86 48 -25 12 -51 28 -58 37 -8 9 -19 16 -26 16 -7 0 -49 24 -92 53
-44 28 -87 57 -96 62 -9 6 -67 45 -129 87 -62 42 -129 87 -148 101 -19 13 -60
41 -91 61 -31 21 -65 36 -75 34 -11 -2 -34 -26 -51 -53 -18 -28 -36 -54 -41
-60 -4 -5 -23 -32 -41 -59 -19 -27 -42 -57 -53 -68 -10 -10 -18 -22 -18 -28 0
-5 -27 -38 -60 -73 -33 -35 -70 -77 -82 -92 -13 -16 -34 -46 -48 -66 -14 -21
-74 -104 -135 -184 -60 -81 -134 -174 -163 -207 -28 -33 -52 -64 -52 -69 0 -5
-22 -32 -50 -62 -27 -29 -61 -70 -75 -90 -14 -21 -25 -40 -25 -43 0 -2 -27
-39 -59 -82 -33 -42 -76 -93 -96 -112 -20 -19 -50 -57 -68 -85 -17 -27 -45
-66 -61 -86 -17 -19 -67 -82 -111 -139 -44 -56 -100 -125 -125 -153 -25 -28
-52 -58 -60 -67 -8 -8 -44 -54 -79 -100 -35 -47 -94 -116 -131 -155 -37 -38
-84 -95 -106 -125 -21 -30 -49 -68 -61 -85 -13 -16 -42 -59 -66 -95 -24 -36
-54 -74 -66 -84 -12 -11 -31 -36 -43 -55 -12 -20 -44 -62 -70 -94 -26 -32 -48
-62 -48 -66 0 -5 -11 -19 -24 -32 -12 -13 -42 -49 -65 -79 -23 -30 -61 -80
-84 -110 -22 -30 -43 -57 -47 -60 -3 -3 -30 -33 -59 -68 -51 -59 -54 -64 -41
-88 8 -14 48 -57 89 -97 41 -40 98 -95 125 -124 28 -28 61 -63 74 -78 12 -15
22 -32 22 -38 0 -7 21 -32 46 -56 25 -25 63 -67 84 -95 28 -38 40 -67 49 -116
6 -36 14 -119 17 -185 3 -66 5 -159 4 -206 -1 -53 3 -90 9 -94 6 -3 11 -30 11
-58 0 -29 5 -81 10 -117 5 -36 12 -128 15 -205 3 -77 13 -232 22 -345 9 -113
16 -239 15 -281 -1 -42 4 -103 11 -135 8 -37 12 -117 11 -214 -1 -85 1 -159 4
-165 4 -5 7 -53 8 -105 0 -52 7 -165 14 -250 7 -85 13 -186 14 -225 1 -38 4
-74 7 -80 4 -5 10 -77 14 -158 4 -82 11 -163 16 -180 6 -18 12 -66 15 -107 2
-41 6 -97 8 -125 3 -27 10 -72 16 -100 7 -27 14 -85 17 -127 3 -48 10 -82 19
-89 8 -6 14 -20 14 -30 0 -10 19 -33 41 -51 23 -18 57 -53 75 -77 19 -24 34
-55 34 -69 0 -18 28 -53 105 -132 58 -58 105 -111 105 -117 0 -6 29 -42 65
-79 36 -37 65 -72 65 -77 0 -5 21 -35 46 -68 26 -32 51 -59 55 -59 5 0 16 -14
24 -30 9 -17 48 -63 88 -103 40 -40 114 -123 165 -184 52 -61 104 -116 115
-123 12 -6 38 -31 57 -53 19 -23 68 -71 109 -107 42 -36 99 -87 128 -115 29
-27 53 -52 53 -55 0 -3 49 -54 109 -115 60 -60 135 -135 167 -166 33 -31 94
-94 137 -140 42 -46 98 -106 123 -134 25 -27 70 -78 100 -112 30 -35 54 -67
54 -73 0 -5 26 -30 57 -55 36 -28 62 -57 69 -77 10 -30 15 -33 55 -36 24 -2
51 -9 59 -16 8 -7 22 -16 31 -19 11 -4 27 5 44 25 25 27 31 29 71 23 24 -3
207 -8 406 -10 304 -3 364 -6 373 -18 7 -10 38 -17 95 -21 47 -3 164 -8 260
-11 96 -3 199 -11 228 -16 29 -6 80 -13 115 -15 34 -3 226 -7 427 -9 201 -2
433 -8 515 -14 83 -6 222 -12 310 -12 88 0 259 4 380 10 121 6 243 13 270 16
28 3 169 12 315 20 146 9 337 25 425 35 92 12 222 20 305 20 80 0 217 5 305
11 88 5 214 14 280 20 66 5 284 11 485 13 201 2 464 7 585 10 121 4 229 9 241
11 14 3 30 25 51 72 17 38 41 81 54 96 13 16 39 54 57 85 18 31 40 73 48 92 9
19 22 39 30 45 7 5 45 53 83 105 39 52 74 100 78 105 5 6 15 24 23 40 8 17 24
43 35 60 11 16 26 36 33 43 7 8 20 28 28 45 9 18 22 39 29 47 7 8 38 65 70
125 32 61 74 137 93 170 20 33 43 71 51 84 9 13 21 31 26 40 6 9 23 33 39 54
16 21 37 52 47 70 11 18 38 70 60 117 23 47 55 112 72 145 16 33 48 89 69 125
21 36 66 106 98 155 33 50 73 113 90 140 16 28 28 55 25 62 -2 7 4 14 13 17
10 3 23 18 30 33 6 16 22 42 34 60 13 17 42 63 66 101 24 38 49 78 55 89 7 11
37 58 68 104 31 46 77 122 101 169 25 47 56 101 69 120 13 19 36 51 50 70 15
19 39 58 54 85 15 28 45 82 67 120 23 39 51 81 63 95 13 14 41 54 62 90 22 36
56 98 77 139 20 41 50 90 66 110 17 19 30 40 30 44 0 5 12 23 26 40 21 25 25
37 19 66 -3 20 -10 87 -15 149 -4 61 -11 124 -14 140 -3 15 -8 72 -11 127 -3
55 -10 158 -16 228 -5 71 -11 544 -12 1052 l-2 924 69 70 c37 39 72 71 77 71
4 0 14 12 21 27 8 16 34 37 63 52 28 14 51 25 51 25 1 1 5 20 9 43 l6 41 -118
124 c-65 68 -129 138 -143 155 -14 17 -45 57 -70 88 -25 32 -71 87 -104 124
-32 36 -66 77 -75 91 -8 14 -41 59 -71 100 -31 41 -67 98 -80 125 -13 28 -37
69 -52 91 -15 23 -28 45 -28 49 0 4 -16 30 -35 56 -19 27 -35 51 -35 54 0 2
-39 62 -86 132 -47 71 -93 136 -102 146 -8 9 -20 26 -26 36 -6 10 -33 51 -61
91 -27 40 -68 95 -90 124 -22 28 -52 69 -66 91 -14 22 -53 80 -85 129 -32 49
-63 96 -69 104 -5 8 -49 74 -97 146 -48 72 -99 149 -115 171 -15 22 -72 92
-127 155 -54 63 -110 133 -125 154 -14 21 -31 47 -37 58 -6 10 -20 29 -31 41
-11 12 -50 63 -86 114 -37 51 -67 95 -67 99 0 4 -19 30 -43 58 -24 28 -57 71
-73 96 -17 25 -44 65 -60 90 -16 25 -33 48 -39 52 -5 4 -14 8 -20 8z m0 -112
c6 1 41 -45 78 -101 38 -56 86 -124 108 -152 22 -27 49 -66 59 -87 11 -20 38
-58 60 -85 22 -26 49 -58 60 -70 11 -12 29 -37 40 -55 10 -18 42 -57 69 -88
27 -30 87 -101 133 -157 46 -56 96 -121 111 -145 15 -24 45 -67 65 -95 20 -29
51 -76 67 -104 17 -28 48 -76 70 -107 23 -32 68 -95 101 -142 33 -47 69 -98
79 -114 11 -16 27 -39 35 -52 8 -12 33 -48 55 -79 22 -31 49 -72 61 -91 11
-18 30 -44 41 -56 11 -13 52 -71 91 -129 39 -59 90 -140 113 -180 22 -41 48
-87 57 -104 9 -16 55 -88 101 -160 46 -71 102 -152 124 -180 23 -27 57 -68 77
-91 19 -23 55 -67 80 -99 25 -32 81 -98 125 -148 44 -49 97 -110 118 -135 20
-24 37 -49 37 -56 0 -6 -30 -31 -67 -56 -36 -25 -92 -76 -124 -115 -32 -38
-84 -95 -116 -126 -32 -31 -89 -82 -128 -115 -38 -32 -74 -63 -80 -69 -5 -7
-39 -36 -75 -66 -36 -30 -67 -56 -70 -59 -3 -3 -52 -43 -110 -89 -58 -46 -124
-102 -147 -125 -24 -22 -43 -46 -43 -53 0 -7 -7 -13 -14 -13 -8 0 -28 -13 -43
-29 -15 -15 -89 -84 -163 -153 -74 -68 -172 -156 -216 -194 -45 -38 -124 -104
-175 -146 -52 -42 -110 -94 -130 -115 -19 -21 -70 -69 -112 -107 -43 -38 -97
-93 -120 -122 -23 -29 -73 -90 -112 -135 -38 -45 -95 -107 -126 -139 -31 -32
-60 -59 -65 -61 -5 -2 -26 -25 -47 -52 -21 -26 -47 -52 -57 -57 -10 -5 -25 -8
-32 -5 -7 3 -22 18 -33 34 -11 16 -54 71 -96 122 -41 52 -81 107 -88 124 -7
16 -34 56 -59 88 -26 33 -71 88 -100 123 -29 35 -58 64 -63 64 -6 0 -17 15
-25 33 -8 17 -26 47 -39 65 -13 19 -37 46 -53 60 -16 15 -37 41 -47 57 -10 17
-35 48 -56 70 -21 22 -75 82 -120 133 -46 50 -86 92 -91 92 -4 0 -8 6 -8 13 0
6 -17 30 -39 52 -21 22 -63 69 -94 105 -32 36 -57 70 -57 76 0 6 -12 22 -27
36 -16 14 -93 95 -173 179 -80 85 -212 220 -295 300 -82 81 -163 161 -180 178
-16 18 -77 80 -135 140 -58 59 -112 116 -121 127 -9 10 -44 44 -78 74 -33 30
-61 59 -61 65 0 5 -21 30 -48 55 -26 25 -97 98 -157 163 -61 66 -114 126 -119
135 -4 10 -25 33 -45 54 -20 20 -41 42 -46 50 -6 7 -49 60 -95 117 -47 57
-106 131 -131 165 -25 33 -58 72 -73 85 -14 14 -26 30 -26 36 0 6 -39 53 -86
104 -47 51 -84 99 -82 107 2 9 37 33 78 54 41 22 114 57 162 80 48 22 97 45
110 50 13 6 37 19 53 30 17 11 53 31 80 46 28 15 63 36 79 48 16 11 46 30 66
41 20 11 70 42 111 69 41 27 106 70 144 95 39 25 81 51 95 57 14 6 31 18 39
27 7 10 18 17 23 17 6 0 24 6 41 14 18 7 48 19 67 27 19 7 46 20 60 29 14 9
43 24 65 34 22 10 60 29 85 42 25 14 61 32 80 41 19 9 71 34 115 56 44 22 130
66 190 97 61 31 148 80 195 110 47 29 105 67 130 84 25 18 73 52 107 76 34 25
84 58 110 74 26 17 84 53 128 82 44 28 106 66 138 84 31 17 57 35 57 40 0 4 8
10 18 14 9 3 24 9 32 14 8 5 26 15 40 22 14 8 48 26 75 42 28 15 75 39 105 53
30 15 73 35 95 45 22 10 67 31 100 46 33 14 74 30 90 34 17 4 35 8 40 8z
m-7148 -68 c12 0 35 -13 51 -30 17 -16 35 -30 40 -30 5 0 17 -9 27 -20 10 -11
24 -20 32 -20 7 0 13 -5 13 -11 0 -5 4 -8 8 -5 5 3 22 -8 37 -24 16 -17 37
-30 46 -30 10 0 21 -5 24 -10 4 -6 21 -17 38 -25 18 -8 63 -36 100 -63 38 -26
85 -57 105 -67 20 -10 48 -29 62 -41 14 -12 50 -36 80 -53 30 -17 71 -38 90
-46 19 -9 46 -26 60 -39 14 -13 47 -31 74 -40 27 -9 57 -23 66 -31 10 -9 27
-17 39 -20 12 -2 34 -12 49 -22 15 -10 63 -36 107 -58 44 -22 82 -42 85 -46 3
-3 28 -19 55 -36 28 -16 73 -40 100 -52 28 -12 61 -32 75 -45 14 -12 61 -41
105 -63 44 -22 106 -57 137 -77 32 -20 60 -36 64 -36 4 0 15 -6 23 -14 9 -7
51 -32 94 -55 43 -22 82 -41 87 -41 6 0 56 -30 112 -67 56 -38 116 -77 134
-88 18 -11 67 -44 109 -72 43 -29 82 -53 87 -53 6 0 24 -10 41 -22 17 -12 45
-30 61 -39 17 -9 42 -22 56 -30 14 -8 47 -30 73 -49 26 -19 64 -50 84 -67 34
-31 35 -34 20 -55 -8 -13 -60 -69 -116 -125 -74 -75 -101 -109 -101 -127 0
-16 -8 -30 -22 -37 -12 -7 -30 -21 -40 -33 -10 -12 -26 -34 -35 -51 -9 -16
-37 -52 -63 -80 -26 -27 -81 -88 -121 -135 -41 -47 -78 -91 -84 -99 -5 -7 -26
-31 -46 -52 -20 -21 -54 -60 -75 -86 -22 -26 -60 -77 -86 -113 -26 -36 -62
-82 -80 -104 -18 -21 -41 -46 -51 -56 -10 -10 -41 -47 -68 -82 -27 -34 -91
-117 -141 -183 -50 -66 -102 -136 -115 -155 -13 -19 -43 -60 -66 -91 -23 -31
-75 -100 -116 -155 -41 -54 -77 -101 -81 -104 -4 -3 -10 -15 -14 -26 -4 -12
-14 -31 -24 -42 -9 -11 -34 -44 -55 -74 -20 -29 -48 -69 -61 -88 -14 -19 -32
-49 -41 -67 -9 -17 -25 -39 -36 -49 -10 -9 -19 -21 -19 -26 0 -5 -8 -21 -18
-36 -11 -15 -40 -60 -65 -99 -26 -40 -47 -75 -47 -78 0 -3 -12 -24 -27 -48
-15 -23 -36 -60 -47 -82 -10 -22 -33 -62 -51 -90 -18 -27 -59 -93 -90 -145
-32 -52 -86 -138 -120 -190 -34 -52 -102 -160 -152 -240 -50 -80 -98 -161
-108 -180 -10 -19 -39 -62 -66 -97 -26 -34 -50 -71 -54 -83 -3 -11 -15 -25
-26 -30 -10 -6 -28 -29 -40 -52 -12 -23 -28 -48 -35 -56 -8 -7 -14 -20 -14
-27 0 -8 -5 -17 -10 -20 -6 -4 -35 6 -66 20 -31 15 -95 58 -142 97 -48 39
-109 91 -136 117 -27 25 -66 59 -85 74 -20 16 -93 85 -162 153 -70 68 -131
124 -135 124 -5 0 -102 91 -215 203 -114 111 -235 236 -270 277 -35 41 -113
129 -174 196 -60 67 -132 149 -160 184 -27 35 -76 95 -107 133 -32 38 -58 73
-58 76 0 4 -48 56 -106 116 -58 60 -117 123 -131 140 -14 16 -69 75 -122 130
-53 55 -127 136 -165 180 -39 44 -99 110 -134 147 -53 54 -64 71 -59 90 4 12
53 73 109 133 57 61 114 128 127 150 14 22 53 84 88 137 35 53 69 103 76 110
7 7 46 58 86 112 41 55 78 105 82 110 5 6 37 47 72 91 35 44 71 86 80 94 10 7
17 18 17 24 0 5 21 33 48 62 26 28 67 76 92 105 25 30 54 68 66 85 11 17 31
42 45 57 13 14 42 48 64 74 22 26 65 80 95 119 30 40 83 108 117 151 34 43 77
98 95 122 18 23 50 63 72 89 21 26 69 88 107 138 37 49 82 106 99 125 17 19
49 62 73 94 23 33 58 76 77 97 19 20 54 61 78 90 23 30 90 119 148 199 58 80
131 172 163 205 31 33 90 104 131 158 54 70 81 97 97 97z m2837 -1730 c8 0 16
-4 18 -9 2 -5 37 -47 78 -92 41 -46 84 -93 96 -105 11 -11 24 -23 30 -25 5 -2
24 -27 42 -55 18 -29 44 -64 58 -79 13 -15 43 -50 64 -79 22 -29 40 -56 40
-60 0 -4 -34 -46 -76 -94 -41 -47 -84 -92 -95 -100 -11 -7 -25 -28 -33 -46 -8
-18 -28 -43 -45 -55 -17 -12 -31 -27 -31 -33 0 -6 -19 -36 -42 -67 -23 -31
-56 -72 -73 -92 -16 -20 -41 -50 -55 -65 -14 -16 -38 -48 -55 -70 -16 -23 -44
-60 -62 -83 -17 -23 -44 -51 -58 -63 -15 -12 -34 -36 -41 -55 -8 -18 -21 -33
-28 -33 -8 0 -26 -14 -40 -31 -14 -17 -26 -36 -26 -43 0 -7 -11 -23 -24 -35
-14 -13 -30 -37 -37 -54 -7 -18 -28 -54 -47 -82 -19 -27 -37 -52 -41 -55 -4
-3 -20 -26 -36 -52 -17 -27 -33 -48 -37 -48 -3 0 -20 -24 -37 -52 -16 -29 -59
-93 -95 -141 -36 -48 -66 -90 -66 -93 0 -3 -19 -29 -42 -58 -24 -30 -52 -69
-63 -87 -11 -18 -25 -40 -30 -49 -6 -9 -17 -24 -25 -32 -8 -9 -37 -48 -65 -87
-27 -39 -53 -71 -57 -71 -4 0 -23 -28 -42 -62 -19 -35 -44 -69 -55 -75 -11 -7
-28 -27 -37 -44 -9 -18 -29 -43 -45 -57 -16 -13 -44 -45 -61 -71 -17 -25 -38
-50 -45 -54 -7 -4 -13 -17 -13 -27 0 -11 -4 -20 -10 -20 -5 0 -22 -18 -36 -40
-15 -22 -33 -40 -40 -40 -8 0 -23 -19 -35 -42 -12 -24 -55 -86 -95 -138 -41
-52 -84 -108 -97 -123 -12 -16 -35 -46 -52 -67 -16 -21 -56 -70 -87 -108 -31
-38 -96 -109 -145 -158 -48 -49 -110 -106 -137 -127 -27 -20 -53 -37 -58 -37
-4 0 -8 -11 -8 -24 0 -14 10 -30 24 -39 19 -13 31 -14 62 -6 22 6 77 29 124
51 47 22 127 60 177 84 51 24 95 44 97 44 3 0 27 14 53 30 26 17 51 26 55 22
5 -5 11 -38 13 -73 2 -35 8 -83 13 -105 5 -24 5 -49 0 -57 -4 -9 -7 -60 -4
-114 2 -54 9 -226 16 -383 8 -174 10 -357 5 -470 -4 -102 -9 -237 -11 -300 -2
-63 -4 -126 -4 -140 0 -14 5 -90 10 -170 6 -80 15 -172 21 -205 6 -33 11 -76
10 -95 0 -19 0 -77 0 -129 0 -52 5 -117 11 -145 5 -28 13 -123 18 -211 5 -88
13 -198 19 -245 6 -47 15 -116 21 -155 6 -38 15 -108 20 -155 6 -47 9 -267 9
-490 -1 -223 -5 -430 -8 -460 -3 -30 -4 -76 -1 -103 5 -37 2 -51 -11 -63 -15
-14 -57 -15 -346 -9 -180 4 -364 8 -408 10 l-80 3 -1 419 c0 257 -5 445 -12
488 -6 39 -15 99 -21 135 -6 36 -15 94 -21 130 -6 36 -15 108 -20 160 -6 52
-14 147 -20 210 -5 63 -13 138 -16 165 -4 28 -8 84 -10 125 -1 41 -7 273 -13
515 -6 242 -9 589 -5 770 3 182 6 335 6 340 1 6 -3 87 -8 180 -5 94 -9 229 -9
300 1 72 5 218 9 325 6 141 6 214 -3 266 l-12 70 33 52 c18 28 42 66 53 84 12
18 47 78 79 133 33 55 76 125 97 156 21 31 51 80 66 109 16 28 40 72 55 98 15
26 32 58 39 72 7 14 27 45 45 70 17 25 34 55 38 67 4 11 20 36 36 55 16 18 30
38 30 43 0 6 21 42 46 80 26 39 62 93 80 121 19 28 34 55 34 61 0 6 6 13 14
16 8 3 40 43 70 89 31 46 76 110 101 143 24 33 52 71 62 85 9 14 44 60 76 103
32 43 64 88 70 100 7 12 20 31 30 42 9 11 46 57 82 103 36 45 65 85 65 87 0 3
42 54 93 113 50 59 105 125 121 147 16 22 57 72 90 110 34 39 74 87 90 108 15
21 42 53 60 71 17 18 49 54 71 81 22 26 87 98 145 160 58 62 130 143 160 180
30 37 85 97 121 134 37 37 78 86 93 109 14 23 33 42 40 42z m1009 -20 c7 0 40
-37 74 -83 35 -45 89 -110 120 -143 32 -34 75 -82 96 -107 20 -25 37 -52 37
-59 0 -7 27 -40 60 -73 33 -33 60 -63 60 -68 0 -5 28 -42 61 -84 34 -41 68
-77 76 -80 7 -3 20 -18 29 -34 8 -16 32 -41 54 -55 22 -15 40 -32 40 -38 0 -6
23 -34 52 -62 29 -28 85 -88 123 -134 39 -46 91 -104 116 -129 25 -26 82 -79
127 -119 44 -40 97 -95 118 -122 21 -28 64 -67 95 -88 31 -21 77 -62 102 -92
25 -30 64 -75 86 -100 21 -25 76 -85 122 -135 45 -49 91 -94 103 -100 11 -5
33 -23 48 -39 16 -16 28 -34 28 -40 0 -7 18 -29 40 -50 22 -21 40 -42 40 -47
0 -5 11 -9 24 -9 17 0 28 -9 40 -35 9 -19 28 -48 42 -65 15 -17 39 -37 55 -46
16 -8 29 -20 29 -27 0 -6 35 -48 77 -92 42 -44 86 -96 98 -115 12 -19 70 -82
127 -140 58 -58 117 -126 132 -152 15 -27 32 -48 36 -48 5 0 19 -17 31 -37 13
-20 43 -60 67 -87 24 -28 52 -62 63 -74 10 -13 19 -28 19 -32 0 -5 11 -26 25
-46 20 -29 25 -49 25 -96 0 -33 6 -69 12 -81 7 -12 14 -35 15 -52 1 -16 5 -68
8 -115 2 -47 5 -157 5 -245 -1 -88 -1 -179 -1 -202 0 -24 0 -49 0 -55 0 -7 -2
-76 -4 -153 -3 -79 1 -201 9 -280 7 -77 21 -167 31 -200 12 -39 19 -102 21
-180 2 -66 7 -178 13 -250 5 -71 14 -179 20 -240 6 -60 15 -126 20 -145 6 -19
13 -66 15 -105 3 -38 10 -97 16 -130 5 -33 14 -150 20 -260 5 -110 12 -252 15
-315 3 -63 7 -167 10 -230 3 -63 9 -173 15 -245 5 -71 15 -197 20 -280 6 -82
13 -172 16 -200 2 -27 9 -70 14 -95 5 -25 12 -76 16 -115 4 -38 6 -146 5 -239
-1 -93 -3 -171 -4 -172 -1 -2 -117 -6 -257 -9 -140 -3 -376 -7 -525 -10 -148
-2 -324 -7 -390 -10 -66 -4 -130 -9 -141 -11 -12 -3 -25 0 -30 8 -5 7 -9 53
-10 103 -1 49 -5 104 -8 120 -3 17 -10 84 -16 150 -6 66 -12 138 -15 160 -3
22 -5 155 -6 295 0 140 4 350 10 465 6 116 13 298 16 405 3 107 7 247 10 310
3 63 8 207 11 320 3 117 1 257 -5 325 -6 66 -13 199 -16 295 -2 96 -7 209 -10
250 -3 41 -7 91 -10 110 -2 19 -6 75 -9 123 -4 48 -11 119 -16 157 -5 38 -12
119 -16 180 -3 60 -2 110 3 110 4 -1 31 -9 58 -19 28 -9 68 -26 90 -36 22 -10
61 -28 86 -40 26 -13 60 -26 77 -30 26 -5 30 -3 36 19 5 19 -4 42 -38 96 -24
39 -88 117 -142 173 -55 56 -105 115 -113 130 -8 15 -20 27 -27 27 -8 0 -20
12 -28 28 -8 15 -29 41 -46 57 -18 17 -60 66 -93 110 -33 44 -80 100 -103 125
-24 25 -59 65 -78 90 -20 25 -36 50 -36 56 0 6 -9 19 -20 29 -10 9 -54 70 -97
134 -43 64 -99 141 -125 172 -27 30 -48 62 -48 70 0 8 -21 35 -46 59 -25 25
-55 61 -67 80 -12 19 -26 40 -32 45 -6 6 -37 49 -68 96 -31 47 -57 90 -57 94
0 4 -14 24 -30 45 -17 22 -49 74 -71 117 -23 43 -47 85 -54 93 -8 8 -19 26
-25 40 -6 14 -22 43 -35 65 -14 22 -29 49 -34 60 -5 11 -35 54 -67 95 -33 41
-75 100 -95 130 -20 31 -55 77 -78 104 -22 26 -41 52 -41 57 0 5 -15 31 -33
57 -18 26 -55 78 -82 116 -28 39 -57 77 -65 86 -8 9 -22 28 -30 43 -8 14 -40
68 -71 119 -32 51 -67 111 -79 133 -13 22 -30 51 -39 65 -9 14 -25 41 -36 59
-11 18 -55 85 -97 149 -43 64 -98 143 -124 175 -36 46 -45 63 -38 78 5 10 43
56 84 101 41 46 111 118 155 160 44 43 85 78 90 78 6 0 27 17 48 38 20 20 46
49 58 65 11 15 26 27 32 27z m-517 -537 c8 -3 26 -26 39 -52 14 -25 45 -75 69
-111 25 -36 58 -81 74 -100 16 -19 36 -49 45 -66 9 -17 31 -49 51 -72 19 -23
40 -59 46 -80 7 -20 20 -46 30 -57 10 -11 21 -30 25 -42 3 -13 24 -46 47 -74
22 -28 49 -71 59 -95 11 -24 24 -46 29 -49 6 -4 31 -39 56 -78 26 -40 56 -82
68 -95 11 -13 53 -71 93 -130 41 -59 98 -143 127 -187 29 -44 68 -93 85 -109
17 -17 31 -39 31 -50 0 -11 10 -36 23 -55 13 -20 36 -56 52 -81 16 -25 42 -70
59 -100 16 -30 34 -64 40 -75 6 -11 26 -41 44 -67 17 -26 32 -51 32 -56 0 -5
39 -61 86 -123 47 -63 116 -154 154 -204 38 -49 86 -112 107 -140 21 -27 61
-84 88 -125 27 -41 93 -134 146 -206 54 -73 102 -135 108 -138 5 -4 29 -32 53
-64 24 -31 50 -68 59 -82 9 -14 29 -38 45 -55 26 -28 28 -35 30 -139 2 -60 6
-123 10 -140 3 -17 9 -35 12 -41 3 -5 6 -45 7 -90 1 -44 7 -159 13 -256 6 -96
16 -189 22 -205 6 -16 9 -43 5 -60 -3 -17 -1 -42 4 -56 5 -13 12 -93 17 -178
4 -85 9 -191 10 -235 2 -44 5 -120 7 -170 3 -49 6 -148 7 -220 1 -71 -1 -170
-3 -220 -3 -49 -8 -106 -11 -125 -3 -19 -8 -177 -11 -350 -3 -173 -7 -331 -9
-350 -3 -19 -8 -93 -11 -165 -4 -71 -8 -215 -10 -320 -2 -104 -4 -251 -4 -325
-1 -74 3 -162 7 -195 5 -33 8 -75 5 -93 -2 -18 1 -41 6 -51 6 -10 13 -58 16
-107 3 -49 8 -103 11 -120 4 -19 1 -34 -8 -42 -8 -6 -23 -11 -33 -10 -11 0
-137 -3 -280 -6 -143 -4 -305 -14 -360 -22 -55 -7 -136 -16 -180 -19 -44 -2
-116 -7 -160 -10 -44 -2 -125 -7 -181 -11 -100 -6 -101 -5 -109 18 -4 12 -9
277 -11 588 -1 311 -10 729 -18 930 -9 201 -21 408 -27 460 -6 52 -15 118 -20
146 l-10 51 -122 6 c-72 4 -148 3 -187 -4 -39 -6 -115 -8 -190 -4 -69 4 -170
11 -225 17 -55 6 -154 9 -220 8 -79 -1 -124 -6 -133 -14 -7 -7 -17 -52 -23
-101 -5 -49 -11 -146 -12 -215 -1 -69 -6 -130 -10 -137 -4 -6 -10 -49 -13 -95
-4 -45 -7 -101 -7 -123 0 -22 2 -96 4 -165 1 -69 0 -231 -5 -360 -4 -129 -10
-329 -12 -445 -3 -115 -7 -271 -10 -345 -2 -74 -6 -149 -8 -166 -2 -17 -7 -41
-11 -53 -7 -22 -12 -22 -113 -21 -59 1 -206 1 -327 1 -121 0 -247 1 -280 3
-33 2 -107 9 -165 15 -58 7 -121 14 -140 17 -19 2 -93 7 -165 10 -111 5 -132
9 -145 25 -8 10 -33 22 -55 27 l-40 8 -5 579 c-3 319 -8 585 -12 590 -3 6 -11
64 -18 130 -6 66 -15 145 -20 175 -5 30 -16 147 -25 260 -8 113 -17 264 -19
335 -2 72 -12 250 -22 397 -16 233 -16 286 -5 411 7 79 12 218 12 308 -1 90
-3 241 -5 334 -2 94 -7 235 -11 315 -4 80 -7 294 -6 475 0 182 2 353 3 381 3
48 9 60 103 184 55 72 116 154 136 182 20 27 52 66 72 86 19 21 52 62 72 92
21 30 50 71 64 90 14 19 48 62 74 94 27 32 52 69 57 81 5 13 22 38 37 56 16
19 38 47 48 63 11 16 28 43 38 60 11 17 51 74 90 126 40 52 76 103 82 112 5 9
28 43 50 75 23 32 74 102 115 157 41 54 80 107 86 118 6 10 22 31 36 46 13 15
47 56 75 92 27 36 55 75 62 87 6 12 41 59 78 105 38 46 82 100 98 122 17 21
39 51 50 66 11 15 41 52 67 81 26 30 57 68 70 86 13 18 71 90 129 161 59 70
114 135 123 145 9 9 23 14 32 10z m5746 -1103 c4 0 10 -5 13 -11 4 -5 9 -249
11 -542 2 -293 6 -712 8 -932 3 -264 9 -439 19 -515 8 -66 13 -176 12 -260 -2
-80 1 -163 7 -185 7 -30 5 -51 -7 -85 -9 -25 -33 -72 -54 -105 -21 -33 -64
-105 -96 -160 -32 -55 -81 -136 -110 -180 -29 -44 -69 -110 -89 -148 -20 -37
-55 -98 -78 -135 -23 -37 -49 -76 -58 -87 -10 -11 -32 -47 -50 -80 -17 -33
-68 -118 -112 -190 -44 -71 -99 -158 -123 -192 -24 -34 -60 -90 -80 -125 -21
-35 -58 -96 -84 -136 -25 -41 -79 -124 -119 -185 -40 -62 -123 -211 -184 -332
-60 -121 -127 -245 -149 -275 -21 -30 -65 -98 -97 -150 -33 -52 -79 -131 -102
-175 -24 -44 -53 -98 -65 -120 -11 -22 -73 -120 -138 -217 -64 -97 -121 -179
-128 -183 -6 -4 -40 -52 -75 -106 -35 -55 -64 -103 -64 -107 0 -4 -9 -18 -20
-32 l-20 -25 0 50 c0 28 -2 94 -4 147 -3 54 -12 126 -20 160 -8 35 -17 106
-21 158 -3 52 -8 122 -10 155 -3 33 -9 119 -15 190 -5 72 -12 164 -14 205 -3
41 -8 113 -11 160 -3 47 -7 148 -10 225 -3 77 -7 160 -10 185 -3 25 -7 104
-10 175 -3 72 -12 177 -20 235 -9 58 -20 130 -25 160 -5 30 -17 127 -25 215
-8 88 -22 234 -30 325 -8 91 -26 235 -39 320 -23 147 -25 180 -26 615 -1 253
-1 504 -1 558 1 53 4 97 9 97 4 -1 17 -17 30 -36 12 -20 22 -41 22 -48 0 -6
26 -40 58 -75 31 -35 75 -83 97 -106 22 -24 51 -45 65 -47 19 -2 25 2 25 17 1
11 2 31 3 45 1 17 35 59 105 130 56 58 116 123 132 145 17 22 35 45 41 50 7 6
33 35 59 65 26 30 92 100 145 155 54 55 134 133 178 174 44 40 94 82 111 92
17 10 31 23 31 28 0 4 17 20 38 34 21 13 52 38 68 53 16 16 45 40 64 54 19 14
75 63 124 110 49 47 116 110 149 140 33 30 68 64 76 75 9 10 27 29 41 42 14
12 75 64 135 115 61 51 133 111 160 133 28 21 59 47 70 57 11 10 53 47 93 81
41 34 99 83 130 109 32 26 60 47 64 48z m-10992 -310 c6 0 22 -19 36 -42 14
-24 44 -54 66 -68 22 -14 48 -36 59 -50 10 -14 35 -50 55 -80 21 -30 116 -145
213 -255 96 -110 203 -229 237 -265 35 -36 75 -81 90 -100 15 -19 43 -48 63
-65 20 -16 63 -59 96 -96 33 -36 71 -73 85 -82 14 -8 52 -39 85 -68 33 -29 96
-89 141 -134 44 -44 122 -119 172 -167 51 -48 92 -92 92 -97 0 -6 5 -11 11
-11 6 0 36 -23 67 -51 31 -28 65 -56 77 -61 11 -5 27 -21 36 -36 8 -15 29 -34
45 -42 16 -8 42 -25 57 -37 16 -13 33 -23 40 -23 6 0 45 -18 88 -40 43 -22 83
-40 90 -40 7 0 9 9 5 24 -3 13 1 39 10 57 8 19 23 48 32 65 9 17 46 77 82 133
36 57 75 117 87 134 12 18 34 53 49 80 15 26 31 47 35 47 4 0 11 -35 15 -77 4
-45 2 -135 -4 -213 -7 -74 -10 -151 -7 -170 2 -19 8 -127 11 -240 4 -113 7
-238 6 -277 0 -40 -1 -86 -1 -103 0 -16 1 -63 2 -102 0 -40 0 -143 -2 -228 -2
-85 0 -276 5 -425 4 -148 7 -304 5 -345 -1 -41 3 -169 9 -285 6 -115 16 -259
21 -320 5 -60 16 -186 24 -280 8 -93 17 -217 20 -274 3 -58 10 -110 14 -115 5
-6 11 -36 14 -66 3 -30 13 -93 22 -140 13 -66 15 -117 10 -230 -3 -79 -8 -187
-11 -240 -3 -52 -8 -98 -10 -101 -2 -3 -4 -63 -5 -132 -1 -80 -5 -127 -11
-127 -6 0 -33 16 -60 36 -28 19 -76 63 -108 97 -31 34 -88 96 -125 137 -37 41
-75 78 -85 81 -9 4 -29 24 -46 44 -16 21 -99 110 -185 199 -86 88 -206 214
-268 280 -61 65 -124 128 -139 140 -14 11 -55 49 -91 84 -35 34 -67 62 -70 62
-3 0 -19 16 -34 35 -15 19 -34 35 -42 35 -8 0 -15 5 -15 11 0 6 -24 36 -54 67
-29 31 -57 64 -62 73 -5 9 -31 43 -59 74 -27 32 -75 86 -105 120 -30 34 -72
84 -92 111 -20 27 -50 66 -65 87 -15 21 -42 55 -59 75 -18 20 -50 62 -73 92
-23 30 -41 58 -41 62 0 4 -30 40 -66 80 -37 40 -74 86 -84 102 -10 15 -32 45
-49 65 -17 20 -46 57 -65 82 -23 30 -36 61 -39 90 -3 24 -15 98 -26 164 -11
66 -21 159 -21 206 0 47 -7 108 -15 135 -8 27 -21 119 -30 204 -8 85 -19 236
-25 335 -6 99 -15 212 -20 250 -5 39 -12 169 -15 290 -4 121 -8 249 -11 285
-2 36 -8 112 -13 170 -6 58 -10 125 -9 150 0 25 -5 92 -11 149 -6 57 -11 158
-11 225 0 66 -7 171 -15 231 -8 61 -20 216 -26 345 -6 129 -11 237 -11 240 0
3 0 17 1 33 0 15 6 27 11 27z m3201 -1258 c3 -9 7 -44 9 -77 2 -33 4 -80 4
-105 1 -44 1 -45 -60 -80 -34 -19 -77 -45 -95 -57 -19 -13 -40 -23 -47 -23 -7
0 -36 -12 -65 -26 -29 -15 -60 -33 -70 -42 -9 -8 -20 -13 -23 -9 -3 3 12 25
34 49 22 24 67 75 99 115 32 39 66 82 76 95 10 13 44 57 75 100 42 57 59 72
63 60z m4234 -512 c9 0 56 -41 106 -91 50 -50 88 -93 86 -95 -2 -2 -28 6 -58
18 -30 12 -58 25 -63 30 -6 4 -22 8 -36 8 -14 0 -31 5 -38 12 -7 7 -12 36 -12
65 0 41 3 53 15 53z m-2282 -2034 c56 -3 136 -8 177 -11 41 -3 84 -8 95 -10
11 -2 88 -4 170 -5 83 0 199 3 259 7 71 6 113 5 121 -2 9 -7 17 -58 24 -150 5
-77 10 -149 11 -160 1 -11 3 -65 5 -120 1 -55 6 -289 9 -520 4 -231 9 -553 13
-715 3 -162 6 -331 7 -375 l1 -80 -80 -8 c-44 -4 -154 -11 -245 -16 -91 -5
-217 -10 -280 -12 -63 -1 -197 1 -297 5 -119 6 -183 12 -186 20 -2 6 0 65 4
131 4 66 10 217 14 335 3 118 8 303 10 411 2 107 8 231 14 275 5 43 7 171 5
284 -3 113 0 270 5 350 6 80 15 192 21 249 6 57 13 108 16 113 3 5 51 7 107 4z"/>
<g>
<path d="M7398 10659 c-18 -1 -55 -8 -83 -15 -27 -8 -96 -18 -153 -24 -57 -5
-124 -17 -150 -27 -40 -14 -90 -18 -316 -20 -253 -2 -271 -3 -289 -22 -12 -11
-17 -26 -14 -36 4 -9 22 -22 41 -30 l35 -15 1 -127 c1 -71 0 -144 -1 -163 -1
-19 -2 -62 -2 -95 0 -33 1 -107 2 -165 1 -58 7 -146 12 -197 6 -50 11 -141 12
-202 2 -88 5 -114 19 -127 12 -12 32 -16 71 -15 31 0 86 5 124 10 37 5 142 9
233 10 91 1 192 6 225 11 33 4 131 8 217 8 87 0 162 3 168 7 5 3 10 30 10 58
0 29 -7 84 -16 122 -8 39 -22 140 -30 225 -7 85 -16 210 -18 277 -3 68 -9 131
-14 140 -5 10 -12 96 -14 192 -4 149 -7 174 -21 183 -9 5 -17 16 -17 23 0 10
-10 15 -32 14z m-30 -95 c1 0 4 -46 6 -100 3 -54 11 -153 20 -218 8 -66 13
-122 11 -126 -2 -3 -46 -2 -97 2 -51 4 -120 6 -153 4 -33 -2 -78 -7 -101 -11
-40 -7 -41 -6 -48 25 -3 18 -6 105 -6 194 0 88 4 166 8 173 4 7 70 21 147 32
77 11 156 22 175 23 19 2 36 3 38 2z m-629 -77 l171 2 1 -122 c1 -67 3 -152 5
-189 3 -55 1 -68 -11 -69 -8 -1 -18 -2 -22 -3 -5 -2 -37 -6 -73 -9 -36 -4 -92
-9 -125 -11 -33 -2 -64 -4 -70 -6 -5 -1 -23 -2 -40 -1 l-30 1 0 195 c0 138 3
198 12 203 6 4 88 8 182 9z m586 -445 c44 -3 83 -7 86 -11 3 -3 13 -85 23
-181 10 -96 22 -210 27 -254 6 -43 8 -80 6 -82 -3 -3 -78 -9 -168 -15 -90 -5
-187 -11 -215 -12 l-52 -3 -7 121 c-4 66 -10 186 -14 267 l-6 146 70 11 c39 6
93 13 120 14 28 2 86 1 130 -1z m-462 -33 l57 1 2 -47 c1 -27 2 -75 3 -108 1
-33 5 -123 9 -200 4 -77 3 -146 -2 -153 -6 -8 -54 -15 -144 -21 -74 -4 -140
-11 -146 -15 -6 -4 -23 -4 -36 0 -24 6 -26 10 -25 68 1 33 -5 115 -13 181 -8
66 -14 154 -14 195 l1 75 125 11 c69 6 151 12 183 13z"/>
</g>
<g>
<path d="M7435 7470 c-5 -1 -24 -7 -40 -14 -17 -7 -43 -28 -58 -45 -20 -24
-27 -43 -27 -75 0 -23 7 -52 16 -65 9 -13 35 -32 58 -42 22 -10 53 -19 67 -19
15 0 43 7 63 15 21 9 42 28 52 47 10 20 14 45 11 69 -3 21 -17 54 -32 73 -17
22 -41 39 -64 46 -20 5 -40 10 -46 10z m6 -80 c10 0 30 -10 44 -23 21 -18 25
-28 20 -50 -5 -18 -14 -27 -29 -28 -11 -1 -30 0 -41 1 -11 1 -27 8 -35 16 -13
12 -12 18 4 49 11 20 27 35 37 35z"/>
</g>
</g>
<g>
<path d="M12330 5328 c-19 0 -51 -4 -70 -10 -19 -5 -55 -12 -79 -14 -25 -3
-60 -17 -80 -30 -20 -13 -43 -24 -53 -24 -9 0 -19 -4 -22 -9 -4 -5 -37 -26
-74 -47 -37 -20 -87 -55 -112 -76 -25 -21 -61 -54 -81 -72 -21 -20 -40 -51
-48 -77 -7 -24 -19 -55 -28 -68 -8 -12 -20 -53 -25 -90 -6 -36 -10 -84 -9
-106 1 -22 7 -56 13 -75 6 -19 14 -43 19 -52 5 -10 9 -31 9 -46 0 -16 5 -44
12 -63 6 -19 33 -61 59 -95 26 -33 68 -79 93 -102 25 -23 50 -42 56 -42 8 0
10 -47 9 -144 l-2 -145 -98 91 c-84 77 -102 89 -124 84 -18 -5 -34 -24 -58
-74 -29 -57 -37 -91 -55 -227 -12 -88 -26 -205 -31 -260 -6 -55 -13 -136 -17
-180 -4 -44 -8 -107 -10 -140 -1 -33 -10 -148 -20 -256 -9 -108 -14 -207 -11
-221 5 -17 16 -28 33 -32 15 -4 31 -3 37 3 5 5 11 56 12 113 1 57 7 175 14
263 6 88 19 230 27 315 8 85 24 227 34 315 11 88 20 164 20 168 0 5 4 5 10 2
6 -4 10 -124 11 -313 0 -169 0 -406 -1 -526 0 -121 5 -290 11 -375 7 -86 12
-226 11 -311 -2 -85 4 -261 12 -390 9 -129 21 -354 27 -500 6 -146 9 -299 8
-340 -4 -68 -6 -76 -29 -87 -14 -6 -49 -14 -78 -17 -30 -3 -58 -8 -63 -11 -5
-4 -34 -10 -65 -15 -31 -5 -65 -17 -75 -26 -11 -10 -19 -25 -19 -34 0 -9 11
-22 24 -28 18 -8 38 -7 77 2 30 8 95 21 144 30 50 9 107 21 127 26 34 10 37
14 44 57 4 26 4 108 0 183 -4 74 -9 171 -11 215 -2 44 -9 159 -15 255 -6 96
-15 222 -19 280 -4 58 -8 217 -10 355 -1 137 -4 252 -6 255 -2 3 -7 54 -10
113 -6 89 -5 107 7 107 8 0 39 -29 69 -65 30 -36 70 -85 89 -109 19 -24 48
-51 63 -61 16 -9 34 -29 41 -44 6 -14 25 -45 41 -68 17 -23 38 -44 48 -46 9
-3 17 -14 17 -24 0 -10 27 -45 60 -78 l59 -58 0 -91 c1 -50 5 -147 10 -216 5
-69 11 -140 14 -158 4 -18 11 -69 17 -115 6 -45 17 -109 25 -142 7 -33 21
-125 29 -205 8 -80 18 -176 21 -215 3 -38 5 -115 4 -170 0 -55 -2 -149 -2
-210 l-2 -110 -109 -36 c-60 -21 -119 -42 -130 -47 -12 -6 -37 -15 -56 -21
-19 -5 -71 -17 -115 -26 -43 -9 -85 -21 -92 -27 -7 -6 -13 -23 -13 -38 0 -16
7 -30 16 -34 9 -3 19 -4 23 -2 3 3 60 16 126 31 66 15 140 33 165 41 25 9 59
21 75 28 17 7 53 20 80 30 28 9 64 16 82 16 17 0 34 4 37 8 3 5 1 141 -5 303
-5 162 -17 364 -25 449 -8 85 -17 175 -20 200 -3 25 -11 68 -19 95 -7 28 -16
93 -19 145 -4 52 -11 113 -16 135 -5 22 -13 117 -19 210 -6 94 -12 286 -15
428 -2 141 0 257 4 257 4 0 11 -7 14 -16 3 -9 6 -31 6 -49 0 -18 13 -64 29
-101 17 -42 31 -99 36 -144 4 -41 7 -84 7 -95 0 -11 7 -62 15 -114 9 -51 13
-113 10 -136 -2 -26 0 -48 7 -55 6 -6 13 -39 16 -73 5 -59 6 -62 33 -65 19 -2
29 2 34 14 4 10 1 68 -7 128 -7 61 -14 136 -16 167 -2 31 -10 115 -18 187 -9
72 -24 157 -35 189 -11 32 -27 99 -36 148 -9 50 -23 112 -31 139 -8 27 -14 65
-14 84 0 19 -6 48 -13 65 -8 18 -19 48 -25 67 -5 19 -13 76 -17 125 -4 50 -11
113 -15 142 -5 29 -25 85 -45 124 -24 49 -64 102 -122 163 -47 50 -99 110
-115 134 -26 38 -30 53 -36 150 -4 59 -5 135 -4 170 3 54 6 62 23 62 11 0 38
-9 60 -21 25 -12 76 -24 128 -30 47 -5 118 -9 157 -9 39 0 84 4 100 9 16 5 49
14 74 22 25 7 49 16 54 21 6 4 16 8 24 8 8 0 42 13 76 30 33 16 80 44 103 62
23 18 54 50 68 71 14 21 37 66 52 100 22 53 26 81 30 193 4 100 2 143 -10 180
-8 27 -21 65 -28 84 -8 19 -27 55 -43 80 -17 25 -67 88 -113 142 -45 53 -94
106 -109 117 -15 12 -31 21 -36 21 -5 0 -30 10 -56 22 -26 12 -78 27 -117 34
-38 7 -86 13 -105 12z m25 -94 c39 -3 84 -10 100 -16 17 -6 57 -23 90 -38 37
-17 75 -44 100 -72 22 -24 64 -75 93 -114 29 -38 60 -80 67 -94 8 -14 26 -55
40 -91 16 -41 25 -86 25 -120 0 -30 -5 -83 -11 -119 -5 -36 -19 -83 -30 -105
-11 -22 -27 -53 -36 -70 -9 -16 -26 -39 -37 -51 -12 -12 -53 -39 -93 -59 -39
-20 -104 -45 -145 -56 -40 -11 -95 -24 -123 -28 -28 -5 -87 -5 -133 -1 -64 7
-110 20 -200 57 -92 38 -128 59 -174 101 -31 30 -71 77 -87 105 -16 29 -34 77
-40 107 -6 30 -13 71 -16 90 -3 19 -5 62 -7 95 -1 35 6 82 16 111 9 29 40 79
71 117 32 39 83 84 122 110 38 24 91 56 120 71 29 14 55 26 58 26 3 0 5 -9 5
-20 0 -10 9 -24 19 -30 11 -5 28 -10 39 -10 11 0 25 7 32 15 7 8 13 29 14 47
1 25 7 34 26 40 14 4 57 5 95 2z m-576 -1304 c6 0 58 -55 118 -121 59 -67 146
-162 193 -211 l84 -89 9 -72 c4 -40 10 -96 12 -125 2 -28 9 -69 14 -90 6 -20
13 -91 17 -157 3 -66 10 -183 15 -260 5 -77 11 -198 14 -270 l5 -130 -38 40
c-20 23 -66 78 -101 123 -35 45 -128 148 -206 229 l-143 147 -6 306 c-3 168
-4 332 -1 365 2 33 4 117 4 188 1 72 5 127 10 127z"/>
<g>
<path d="M12206 5078 c-33 -1 -102 -4 -153 -7 -68 -4 -97 -10 -109 -23 -16
-16 -16 -20 2 -60 10 -24 39 -64 63 -90 24 -27 50 -48 57 -48 8 0 15 8 15 18
1 9 1 26 0 37 -1 11 -11 33 -22 48 -12 16 -18 31 -15 34 3 3 36 7 73 9 37 3
77 4 88 4 11 0 30 2 42 5 12 3 27 14 33 26 9 15 8 24 -1 35 -8 10 -30 13 -73
12z"/>
</g>
<g>
<path d="M12414 4980 c-13 0 -30 -10 -38 -22 -9 -12 -16 -30 -16 -40 0 -9 9
-22 21 -28 11 -6 30 -10 42 -8 13 2 24 13 27 28 4 14 2 35 -3 48 -6 13 -19 22
-33 22z"/>
</g>
<g>
<path d="M11882 4917 c-4 1 -15 -2 -24 -8 -10 -5 -22 -18 -28 -29 -9 -16 0
-29 56 -87 36 -37 78 -86 93 -108 21 -32 33 -40 56 -40 25 0 30 5 33 25 1 14
-3 34 -10 46 -7 12 -25 39 -40 61 -14 22 -50 62 -78 89 -28 27 -55 50 -58 51z"/>
</g>
</g>
</g>
</svg>
