<?xml version="1.0" standalone="no"?>
<!DOCTYPE svg PUBLIC "-//W3C//DTD SVG 20010904//EN"
 "http://www.w3.org/TR/2001/REC-SVG-20010904/DTD/svg10.dtd">
<svg version="1.0" xmlns="http://www.w3.org/2000/svg"
 width="733.000000pt" height="558.000000pt" viewBox="0 0 733.000000 558.000000"
 preserveAspectRatio="xMidYMid meet">
<metadata>
Created by potrace 1.16, written by Peter Selinger 2001-2019
</metadata>
<g transform="translate(0.000000,558.000000) scale(0.100000,-0.100000)"
fill="#000000" stroke="none">
<g>
<path d="M3825 5122 c-6 3 -18 2 -27 -3 -8 -5 -74 -12 -144 -15 -71 -4 -139
-7 -151 -8 -12 0 -25 -4 -29 -8 -4 -5 -23 -8 -43 -8 -20 0 -52 -5 -71 -10 -19
-6 -62 -13 -94 -15 -32 -3 -65 -10 -72 -16 -7 -6 -19 -9 -26 -7 -7 3 -35 -4
-63 -15 -27 -10 -66 -25 -85 -32 -19 -8 -53 -23 -75 -34 -21 -12 -47 -21 -56
-21 -9 0 -27 -11 -40 -25 -13 -13 -29 -25 -36 -25 -7 0 -39 -16 -72 -35 -34
-20 -76 -51 -93 -69 -18 -18 -62 -52 -97 -74 -36 -23 -72 -42 -81 -42 -9 0
-25 -7 -36 -15 -10 -8 -28 -15 -39 -15 -11 0 -28 -9 -38 -20 -9 -11 -22 -20
-29 -20 -7 0 -35 -16 -62 -35 -27 -19 -53 -35 -58 -35 -5 0 -27 -12 -51 -27
-23 -15 -55 -35 -72 -45 -16 -10 -45 -25 -64 -34 -19 -8 -49 -28 -67 -42 -19
-15 -34 -34 -34 -43 0 -10 -11 -19 -30 -22 -16 -4 -55 -30 -87 -60 -32 -30
-59 -60 -61 -67 -2 -7 -14 -22 -29 -33 -14 -11 -59 -61 -99 -111 -41 -50 -83
-100 -94 -111 -11 -12 -20 -24 -20 -29 0 -4 -12 -22 -27 -38 -16 -17 -38 -41
-50 -54 -12 -13 -25 -34 -29 -46 -3 -13 -20 -42 -37 -65 -17 -24 -34 -43 -38
-43 -4 0 -20 -26 -36 -57 -15 -32 -45 -80 -65 -108 -21 -27 -38 -55 -38 -62 0
-7 -9 -29 -21 -50 -12 -21 -27 -45 -35 -54 -8 -8 -14 -19 -14 -24 0 -5 -6 -16
-14 -24 -8 -9 -26 -41 -42 -71 -15 -30 -38 -69 -51 -87 -12 -17 -24 -41 -26
-52 -2 -11 -10 -28 -18 -38 -9 -10 -28 -51 -42 -91 -15 -40 -27 -84 -27 -98 0
-14 -9 -41 -20 -62 -12 -20 -34 -57 -50 -82 -15 -25 -29 -56 -30 -70 0 -14
-12 -47 -26 -75 -14 -27 -27 -65 -30 -83 -2 -19 -18 -73 -35 -120 -17 -48 -33
-100 -36 -117 -2 -16 -7 -37 -10 -45 -4 -8 -7 -17 -8 -20 -1 -3 -6 -30 -13
-60 -6 -30 -15 -109 -21 -175 -5 -66 -10 -127 -10 -135 -1 -8 -5 -40 -10 -70
-4 -30 -11 -62 -14 -70 -3 -8 -11 -69 -17 -135 -6 -66 -15 -159 -22 -207 -8
-65 -8 -118 1 -214 7 -70 19 -140 27 -155 8 -16 14 -39 14 -52 0 -13 8 -31 18
-40 10 -10 27 -17 38 -17 11 0 28 6 38 13 16 12 17 24 12 118 -4 57 -7 136 -7
174 0 39 1 142 4 230 2 101 8 169 16 183 10 18 10 27 0 38 -8 10 -8 18 -1 27
6 7 11 22 10 32 0 11 3 54 7 95 4 41 13 104 20 140 8 36 19 83 24 106 6 23 10
66 9 96 -1 37 4 62 15 79 9 13 17 33 17 46 0 12 10 41 23 65 12 24 24 61 25
83 2 21 6 44 10 50 4 5 13 26 19 45 7 19 15 52 19 73 3 20 10 40 15 43 5 3 9
16 9 29 0 13 11 36 24 52 12 15 28 38 35 51 7 13 10 36 6 53 -6 25 0 37 35 79
31 37 40 55 35 70 -5 16 4 31 36 65 32 33 43 52 44 79 0 21 10 45 23 59 12 13
22 30 22 38 0 8 6 23 14 34 7 11 17 36 21 55 4 19 16 41 27 48 10 8 28 34 39
58 12 24 34 55 49 67 18 16 30 38 35 66 5 31 13 45 31 53 13 6 24 15 24 20 0
5 10 23 23 40 12 18 36 45 54 60 17 16 41 49 53 73 11 24 40 63 63 87 23 24
59 64 80 91 21 26 35 47 30 47 -4 0 0 5 10 11 11 6 16 17 12 28 -3 11 6 28 25
46 17 16 42 34 55 40 14 5 49 30 79 55 30 25 55 50 56 56 0 7 11 19 25 28 13
9 30 16 37 16 7 0 31 14 52 30 22 17 43 30 48 30 4 0 8 -6 8 -13 0 -8 -11 -24
-25 -37 -14 -13 -32 -37 -40 -54 -9 -16 -13 -37 -10 -46 3 -10 -5 -26 -20 -40
-14 -13 -25 -31 -25 -39 0 -9 -7 -29 -16 -46 -9 -16 -18 -49 -19 -72 -2 -24
-12 -60 -23 -80 -11 -21 -24 -59 -31 -86 -6 -26 -11 -60 -11 -75 0 -16 -6 -37
-14 -48 -8 -10 -12 -29 -10 -41 4 -14 -2 -29 -16 -43 -13 -13 -19 -28 -15 -40
3 -10 2 -27 -3 -37 -5 -10 -15 -29 -22 -43 -8 -14 -17 -43 -21 -65 -4 -22 -13
-71 -19 -110 -7 -38 -18 -96 -26 -128 -9 -31 -13 -61 -9 -66 3 -5 1 -12 -4
-15 -4 -3 -12 -38 -16 -78 -5 -40 -9 -82 -11 -93 -1 -11 -5 -114 -9 -230 -4
-117 -12 -219 -18 -230 -6 -11 -13 -85 -15 -165 -3 -80 -5 -179 -4 -220 1 -41
7 -76 12 -78 5 -2 2 -15 -7 -28 -13 -20 -16 -60 -17 -234 0 -116 -4 -210 -7
-210 -3 0 -11 -60 -18 -134 -10 -105 -10 -138 -1 -156 10 -19 9 -29 -9 -60
-12 -21 -21 -53 -21 -71 0 -19 -4 -65 -9 -104 -5 -38 -14 -92 -20 -119 -8 -36
-8 -53 1 -63 6 -7 11 -26 10 -42 0 -21 6 -31 25 -40 14 -7 28 -9 32 -6 3 4 11
21 17 38 6 18 22 37 35 44 16 8 26 24 30 47 3 20 2 39 -3 44 -4 4 -9 42 -9 83
0 41 2 88 5 104 3 17 6 67 6 113 0 58 4 90 15 105 10 14 15 45 15 90 0 47 5
76 17 94 10 14 19 33 21 42 3 9 4 59 3 111 -1 52 -6 114 -12 138 -8 35 -6 46
6 59 12 11 16 33 15 77 -1 33 1 88 5 121 3 33 7 105 9 161 1 55 5 105 8 110 3
5 6 54 7 108 1 55 6 105 11 111 5 6 7 24 4 40 -3 16 0 69 6 119 6 50 13 120
16 156 3 36 7 81 9 100 3 19 7 46 9 60 3 14 10 57 16 95 6 39 13 84 15 100 2
17 9 55 15 85 7 30 16 71 20 90 5 19 16 66 24 105 9 38 13 78 10 87 -3 10 -1
18 5 18 6 0 11 7 11 15 0 9 7 26 14 38 8 12 16 41 17 65 2 23 7 42 11 42 4 0
8 6 8 13 0 8 7 29 16 47 13 25 14 39 6 66 -8 26 -7 36 4 45 8 6 14 20 14 30 0
10 5 21 11 25 6 3 19 27 30 52 11 24 17 47 14 50 -3 3 2 13 10 22 8 9 25 36
38 61 12 24 48 78 79 119 30 41 67 86 82 99 14 14 26 30 26 37 0 7 22 32 48
56 27 23 68 53 91 66 24 12 49 22 55 22 7 0 21 9 31 20 10 11 23 20 29 20 7 0
29 9 51 20 22 11 47 20 57 20 9 0 19 4 22 9 3 4 31 11 63 15 31 4 61 10 67 15
6 5 29 11 51 15 22 3 80 11 130 16 49 6 95 16 102 22 7 5 10 15 7 20 -4 7 9 8
37 4 24 -4 57 -10 73 -13 21 -4 26 -2 21 7 -5 9 -1 10 16 5 13 -4 46 -14 73
-23 45 -14 50 -14 62 2 9 13 17 15 31 8 10 -5 47 -10 82 -11 35 -1 73 -7 84
-13 12 -6 34 -11 49 -10 16 0 41 -6 56 -14 15 -7 35 -14 44 -14 9 0 19 -4 23
-9 3 -6 13 -10 23 -10 9 0 40 -2 67 -4 28 -2 64 -10 80 -19 17 -8 44 -23 60
-32 17 -9 41 -16 55 -16 14 0 41 -9 61 -19 19 -11 55 -25 80 -32 24 -7 55 -21
69 -31 14 -11 42 -30 63 -44 21 -13 44 -24 50 -24 7 0 40 -20 74 -44 33 -24
78 -53 99 -64 21 -12 61 -39 88 -61 26 -23 52 -41 58 -41 5 0 15 -16 23 -34 8
-19 21 -39 29 -43 7 -4 39 -32 70 -60 32 -29 61 -53 65 -53 5 0 24 -14 42 -31
19 -17 44 -45 56 -62 13 -17 63 -72 112 -122 48 -50 96 -103 106 -118 9 -15
23 -27 30 -27 8 0 17 -9 20 -20 4 -11 26 -42 51 -68 24 -26 48 -62 53 -80 5
-18 21 -42 34 -52 14 -11 28 -31 31 -45 4 -14 20 -47 36 -74 17 -26 30 -53 30
-58 0 -6 15 -33 33 -59 18 -27 54 -93 80 -147 26 -54 47 -107 47 -116 0 -10 7
-24 15 -31 8 -7 15 -17 15 -23 0 -6 14 -47 32 -91 17 -45 38 -90 45 -101 7
-11 13 -29 13 -42 0 -12 4 -24 9 -27 4 -3 11 -22 13 -43 3 -21 26 -81 52 -134
25 -53 46 -103 46 -110 0 -8 20 -82 45 -164 26 -83 46 -165 46 -184 1 -18 12
-56 25 -85 18 -38 24 -69 24 -121 0 -38 9 -119 20 -180 11 -60 22 -135 24
-165 2 -30 13 -100 25 -155 13 -60 20 -130 19 -175 -1 -41 -1 -116 0 -166 2
-85 4 -91 26 -104 14 -7 37 -13 53 -12 15 0 34 0 42 1 10 1 12 11 7 44 -6 39
-6 40 8 22 8 -11 17 -18 19 -15 3 3 6 68 7 145 1 77 0 187 -3 245 -2 58 0 138
5 179 7 49 7 80 0 95 -6 11 -13 52 -17 90 -3 38 -10 75 -16 82 -6 8 -8 31 -4
56 5 32 3 47 -7 56 -10 8 -12 27 -8 74 4 40 2 82 -7 116 -8 29 -11 62 -8 73 4
10 2 19 -3 19 -5 0 -12 10 -15 22 -4 12 -1 28 4 35 7 8 9 45 5 100 -3 49 -10
140 -16 203 -6 63 -11 122 -12 130 0 8 -4 20 -8 25 -3 6 -7 31 -8 58 -1 26 -6
56 -11 65 -5 10 -13 47 -17 82 -3 36 -10 70 -15 75 -4 6 -10 41 -13 79 -2 37
-9 73 -15 79 -6 6 -11 22 -11 37 0 14 -5 43 -11 65 -6 22 -20 52 -30 67 -14
19 -19 43 -19 91 0 58 -3 66 -25 81 -14 9 -25 25 -25 36 0 10 -4 22 -10 25 -5
3 -10 14 -10 23 0 9 -7 30 -15 46 -8 15 -15 33 -15 40 0 6 -14 29 -30 50 -16
21 -27 43 -24 48 4 5 -5 22 -19 36 -14 15 -32 43 -40 63 -8 20 -44 75 -81 124
-36 48 -66 91 -66 95 0 4 -13 23 -30 41 -16 19 -42 53 -57 77 -15 23 -30 42
-34 42 -4 0 -19 20 -33 45 -15 25 -31 45 -36 45 -6 0 -10 6 -10 13 0 6 -42 56
-93 109 -50 54 -122 128 -158 166 -36 38 -94 88 -128 111 -34 22 -69 41 -76
41 -7 0 -26 11 -42 24 -15 13 -44 31 -63 40 -19 9 -55 28 -80 41 -25 13 -52
23 -60 22 -9 -1 -27 8 -40 21 -13 12 -28 22 -33 22 -4 0 -23 11 -40 24 -18 14
-71 35 -117 47 -47 12 -90 26 -97 31 -7 5 -17 7 -22 3 -6 -3 -20 2 -31 13 -11
10 -43 24 -71 30 -28 7 -59 12 -69 12 -10 0 -49 15 -87 34 -38 19 -91 37 -118
41 -28 4 -65 13 -83 21 -17 8 -47 18 -65 21 -17 3 -52 6 -77 7 -25 0 -50 4
-55 8z m-27 -139 c26 -3 59 -9 74 -15 14 -5 36 -7 48 -3 11 4 26 3 33 -3 7 -5
38 -17 69 -26 32 -10 62 -15 68 -11 5 3 22 -3 35 -14 14 -10 45 -22 68 -26 23
-4 56 -13 72 -20 17 -7 48 -19 70 -25 22 -7 49 -18 60 -24 11 -7 43 -20 70
-30 28 -11 82 -35 120 -54 39 -19 79 -38 90 -43 11 -4 31 -11 45 -15 14 -4 37
-15 52 -25 14 -11 31 -19 38 -19 6 0 26 -11 44 -25 18 -14 37 -25 43 -25 5 0
27 -13 49 -30 21 -16 43 -30 48 -30 5 0 32 -15 60 -32 28 -18 73 -56 100 -85
26 -29 54 -53 62 -53 8 0 17 -7 21 -16 3 -8 15 -26 27 -40 11 -14 41 -46 65
-72 24 -26 54 -63 67 -84 13 -20 41 -56 63 -80 23 -23 41 -48 41 -55 0 -6 10
-20 23 -30 12 -10 31 -35 41 -55 10 -21 39 -58 63 -84 25 -25 49 -59 55 -75 5
-16 14 -29 19 -29 5 0 20 -21 34 -47 14 -27 34 -61 45 -78 11 -16 22 -34 24
-40 2 -5 9 -23 13 -40 5 -16 18 -35 29 -40 10 -6 20 -21 22 -35 1 -13 6 -27
10 -30 4 -3 9 -12 11 -20 2 -8 7 -28 11 -45 4 -16 19 -54 34 -84 14 -30 26
-62 26 -72 0 -9 9 -38 19 -65 10 -27 26 -74 34 -104 8 -30 22 -89 31 -130 9
-41 16 -82 16 -91 0 -9 7 -22 15 -29 9 -8 15 -27 14 -49 -1 -20 3 -85 9 -146
6 -60 16 -141 21 -180 5 -38 8 -72 5 -74 -2 -3 -9 0 -15 6 -6 6 -15 32 -20 58
-5 26 -23 76 -40 111 -18 35 -33 80 -34 100 -1 20 -6 39 -12 42 -5 4 -13 22
-16 40 -4 18 -26 73 -50 121 -24 48 -47 100 -51 114 -3 15 -10 27 -15 27 -5 0
-7 9 -4 20 3 11 0 20 -6 20 -6 0 -11 7 -11 15 0 8 -5 15 -11 15 -7 0 -9 9 -5
23 3 14 -2 35 -13 53 -10 17 -22 41 -26 55 -4 13 -20 40 -35 59 -14 19 -32 51
-40 70 -7 19 -19 42 -25 50 -7 8 -15 24 -19 36 -3 11 -26 42 -51 67 -28 29
-42 52 -39 62 4 8 2 15 -3 15 -5 0 -22 25 -38 56 -16 31 -37 61 -47 67 -10 7
-18 18 -18 25 0 7 -25 44 -55 83 -31 38 -69 79 -85 91 -17 12 -30 27 -30 33 0
6 -18 28 -40 49 -22 21 -40 41 -40 45 0 3 -15 15 -34 25 -19 10 -37 29 -40 42
-4 13 -17 29 -31 36 -13 7 -52 39 -87 71 -35 32 -92 84 -127 115 -34 31 -81
74 -102 95 -22 20 -43 37 -48 37 -5 0 -24 15 -43 33 -19 17 -52 38 -74 46 -21
8 -41 17 -44 20 -3 4 -21 18 -40 31 -19 14 -52 34 -75 46 -22 11 -53 28 -70
37 -16 9 -60 30 -96 47 -36 16 -73 30 -81 30 -9 0 -18 7 -22 15 -3 8 -14 15
-25 15 -10 0 -32 7 -47 15 -16 8 -39 15 -51 15 -12 0 -32 4 -45 9 -13 5 -45
14 -73 21 -27 7 -75 17 -105 21 -30 4 -71 11 -90 14 -19 4 -44 10 -55 15 -11
4 -38 12 -60 18 -22 5 -77 8 -122 7 -46 -2 -85 0 -88 4 -2 5 -86 8 -186 7
-177 -2 -181 -2 -159 16 12 10 26 15 32 12 5 -3 29 4 53 15 25 12 55 21 67 21
13 0 59 9 103 20 44 11 103 20 131 20 28 0 64 4 80 10 16 5 59 11 96 13 37 2
70 6 73 9 3 3 27 3 53 1z"/>
</g>
<g>
<path d="M2755 3822 c-34 4 -48 0 -90 -29 -44 -31 -51 -40 -57 -80 -5 -35 -3
-52 10 -72 9 -14 22 -32 29 -38 8 -9 44 -13 107 -13 93 0 95 0 115 29 12 16
21 45 21 64 0 20 -4 39 -10 42 -5 3 -10 14 -10 23 0 9 -17 29 -38 43 -20 14
-55 28 -77 31z"/>
</g>
<g>
<path d="M4837 3750 c-20 0 -39 -4 -42 -10 -3 -5 -17 -10 -30 -10 -13 0 -37
-12 -54 -26 -27 -22 -31 -32 -31 -75 0 -38 4 -51 20 -59 11 -6 20 -19 20 -30
0 -15 13 -23 54 -35 50 -15 57 -15 93 1 22 9 49 32 61 49 11 18 24 49 27 69 5
22 2 48 -5 65 -7 17 -26 37 -45 45 -18 9 -49 16 -68 16z"/>
</g>
<g>
<path d="M3700 3253 c-21 3 -50 -1 -70 -10 -19 -8 -63 -23 -96 -34 -34 -10
-72 -27 -85 -38 -13 -10 -28 -18 -34 -18 -5 1 -40 -38 -77 -87 l-68 -88 0 -70
c0 -44 6 -80 16 -101 9 -18 31 -45 48 -61 17 -16 54 -39 83 -53 46 -21 69 -24
210 -29 87 -2 170 -7 184 -10 20 -4 30 1 41 18 8 13 18 37 22 53 4 17 9 42 11
58 l4 27 -155 0 c-112 0 -171 4 -210 16 -35 10 -62 26 -78 45 -25 29 -25 32
-11 66 8 19 38 57 67 85 28 27 63 55 77 62 14 8 47 23 72 35 25 11 53 21 61
21 8 0 24 10 36 23 12 13 22 33 22 45 0 12 -8 25 -17 30 -10 5 -34 12 -53 15z"/>
</g>
<g>
<path d="M4748 2199 c-7 -1 -22 -4 -33 -6 -11 -3 -24 -9 -30 -13 -5 -4 -43 -8
-84 -9 -41 0 -77 -5 -80 -10 -3 -5 -141 -9 -311 -9 -168 1 -372 -2 -455 -6
-82 -4 -163 -10 -180 -15 -16 -4 -61 -4 -100 0 -38 5 -90 11 -115 13 -24 3
-49 1 -55 -4 -5 -4 -43 -5 -83 0 -47 5 -86 4 -108 -3 -28 -8 -37 -8 -44 2 -4
8 -13 10 -20 6 -6 -4 -46 -9 -88 -10 -43 -2 -113 -8 -157 -14 -44 -6 -114 -17
-154 -25 -55 -10 -80 -20 -93 -36 -11 -13 -16 -30 -13 -37 3 -8 5 -21 5 -29 0
-8 20 -23 45 -35 41 -19 50 -20 112 -9 38 6 95 16 128 22 33 5 269 12 525 15
256 3 589 7 740 8 151 1 280 3 285 4 6 2 23 2 38 1 16 -1 86 4 155 10 70 7
132 16 138 21 6 5 41 3 85 -6 41 -8 92 -19 114 -24 22 -6 51 -8 65 -5 14 3 36
11 50 17 14 7 31 19 37 27 7 8 12 29 11 47 -1 17 -6 29 -10 27 -4 -3 -8 2 -8
10 0 8 -7 22 -15 30 -12 11 -35 15 -83 15 -37 -1 -97 2 -134 6 -38 4 -68 11
-68 16 0 5 -6 8 -12 8z"/>
</g>
</g>
</svg>
