<?xml version="1.0" standalone="no"?>
<!DOCTYPE svg PUBLIC "-//W3C//DTD SVG 20010904//EN"
 "http://www.w3.org/TR/2001/REC-SVG-20010904/DTD/svg10.dtd">
<svg version="1.0" xmlns="http://www.w3.org/2000/svg"
 width="1360.000000pt" height="1360.000000pt" viewBox="0 0 1360.000000 1360.000000"
 preserveAspectRatio="xMidYMid meet">
<metadata>
Created by potrace 1.16, written by Peter Selinger 2001-2019
</metadata>
<g transform="translate(0.000000,1360.000000) scale(0.100000,-0.100000)"
fill="#000000" stroke="none">
<g>
<path d="M5500 12618 c-8 4 -100 4 -205 0 -104 -3 -228 -11 -275 -17 -47 -6
-97 -9 -113 -7 -20 2 -25 0 -17 -9 7 -9 -1 -12 -34 -13 -25 -1 -91 -14 -148
-28 -57 -14 -116 -28 -133 -31 -16 -3 -35 -9 -41 -14 -6 -5 -39 -15 -75 -23
-35 -9 -97 -24 -137 -35 -40 -11 -77 -23 -82 -26 -5 -3 -65 -22 -132 -41 -68
-20 -145 -42 -173 -49 -27 -7 -86 -25 -130 -39 -44 -15 -94 -33 -112 -41 -17
-8 -38 -15 -46 -15 -9 0 -19 -4 -22 -10 -3 -5 -17 -10 -30 -10 -13 0 -26 -4
-29 -9 -4 -5 -32 -17 -64 -27 -31 -10 -63 -24 -70 -31 -7 -7 -25 -13 -38 -13
-14 0 -22 -4 -19 -10 3 -5 0 -10 -8 -10 -8 0 -22 -9 -32 -20 -10 -11 -24 -20
-32 -20 -8 0 -28 -10 -46 -22 -17 -13 -43 -33 -57 -45 -13 -13 -32 -23 -41
-23 -8 0 -25 -13 -37 -30 -13 -16 -27 -30 -33 -30 -6 0 -29 -15 -51 -32 -22
-18 -74 -66 -114 -105 -41 -40 -79 -73 -84 -73 -6 0 -10 -5 -10 -12 0 -6 -44
-55 -97 -108 -54 -53 -116 -117 -139 -141 -22 -24 -65 -75 -95 -114 -30 -38
-63 -81 -74 -94 -11 -13 -39 -45 -62 -70 -24 -25 -43 -49 -43 -54 0 -4 -20
-36 -45 -71 -25 -36 -45 -68 -45 -71 0 -4 -11 -21 -23 -38 -13 -18 -46 -77
-73 -132 -26 -55 -51 -102 -55 -105 -3 -3 -9 -16 -12 -30 -3 -14 -10 -43 -16
-65 -6 -22 -18 -73 -26 -114 -9 -47 -14 -126 -13 -213 0 -97 8 -175 23 -261
13 -67 30 -142 38 -167 8 -25 29 -74 46 -110 18 -36 48 -95 69 -131 20 -36 45
-76 55 -89 9 -14 17 -28 17 -33 0 -5 25 -39 57 -75 31 -37 88 -103 127 -147
39 -43 95 -104 124 -135 l52 -57 -35 -36 c-19 -19 -43 -38 -54 -42 -11 -3 -30
-18 -43 -33 -13 -15 -57 -56 -98 -91 -41 -35 -128 -114 -194 -175 -65 -61
-146 -139 -178 -173 -33 -34 -66 -70 -73 -80 -7 -10 -29 -35 -49 -56 -20 -22
-48 -55 -63 -75 -15 -21 -54 -66 -88 -102 -33 -36 -76 -87 -95 -114 -19 -27
-47 -62 -62 -78 -15 -15 -30 -37 -33 -48 -4 -11 -10 -20 -15 -20 -5 0 -11 -9
-15 -20 -3 -11 -24 -42 -46 -70 -21 -27 -39 -53 -39 -58 0 -5 -8 -20 -18 -33
-10 -13 -36 -55 -57 -94 -21 -38 -59 -108 -83 -155 -24 -46 -53 -95 -63 -108
-10 -13 -32 -52 -49 -86 -17 -33 -50 -96 -73 -139 -23 -44 -71 -136 -106 -205
-35 -70 -70 -139 -78 -155 -8 -15 -27 -59 -43 -97 -16 -39 -27 -70 -25 -70 2
0 -6 -24 -16 -52 -11 -29 -33 -93 -49 -142 -17 -49 -30 -98 -30 -110 0 -12 -4
-26 -9 -31 -5 -6 -15 -56 -21 -113 -6 -57 -11 -124 -11 -150 1 -26 5 -74 10
-107 5 -33 15 -82 23 -110 8 -27 23 -64 34 -81 10 -16 33 -52 51 -80 18 -27
38 -56 46 -64 8 -8 20 -26 27 -39 7 -13 30 -41 52 -62 22 -20 58 -50 81 -65
23 -15 47 -33 52 -39 6 -6 24 -20 40 -32 17 -11 74 -43 128 -71 54 -28 119
-55 145 -61 26 -5 85 -23 132 -39 47 -17 103 -34 125 -37 22 -4 45 -11 50 -15
6 -5 42 -17 80 -28 39 -11 97 -25 131 -31 33 -6 84 -11 113 -11 l52 0 -5 -49
c-3 -27 -10 -60 -16 -73 -5 -12 -19 -77 -30 -143 -12 -66 -26 -136 -32 -155
-6 -19 -15 -64 -19 -100 -5 -36 -12 -90 -17 -120 -5 -30 -12 -62 -15 -70 -4
-8 -9 -28 -12 -45 -2 -16 -14 -93 -24 -170 -11 -77 -24 -181 -30 -231 -6 -58
-6 -106 0 -130 5 -22 9 -151 10 -288 0 -136 4 -280 10 -320 6 -39 12 -84 14
-101 2 -16 10 -73 19 -125 9 -52 20 -122 26 -155 6 -33 15 -89 21 -124 7 -35
25 -97 41 -139 16 -41 35 -87 42 -101 7 -14 20 -41 29 -59 9 -19 17 -39 17
-45 0 -7 14 -30 30 -51 17 -22 30 -45 30 -52 0 -6 21 -43 47 -80 26 -38 47
-71 46 -74 0 -3 2 -12 5 -20 3 -8 26 -40 51 -70 25 -30 49 -56 53 -58 5 -2 8
-11 8 -21 0 -9 22 -43 49 -74 27 -32 57 -74 67 -93 10 -19 22 -34 26 -34 5 0
8 -3 8 -8 0 -4 35 -44 78 -89 42 -45 93 -93 112 -106 19 -12 51 -29 70 -37 19
-7 47 -24 62 -36 15 -12 60 -34 100 -49 40 -15 87 -33 103 -40 17 -6 53 -18
80 -25 28 -6 86 -14 130 -17 44 -2 116 1 160 7 44 7 101 13 127 13 25 1 44 5
42 9 -3 4 6 13 18 19 13 7 33 14 46 15 13 2 47 18 75 36 29 18 59 40 68 48 9
8 45 40 79 70 34 30 80 80 101 111 21 32 47 79 58 106 10 27 22 76 26 108 4
33 18 104 30 158 13 54 26 101 29 104 3 4 33 -22 66 -58 33 -35 84 -89 113
-119 29 -30 78 -72 108 -93 30 -20 70 -52 91 -70 20 -17 46 -40 59 -50 13 -9
28 -17 34 -17 7 0 20 -9 30 -20 10 -12 38 -29 62 -40 23 -10 62 -34 87 -53 37
-28 54 -34 102 -36 32 -1 63 -5 68 -9 6 -4 13 -7 16 -8 3 0 19 -4 35 -8 17 -4
44 -14 62 -22 17 -8 42 -14 56 -14 14 0 29 -5 32 -10 4 -6 10 -8 15 -5 5 3 11
1 14 -4 4 -5 39 -21 79 -36 39 -15 84 -32 100 -39 15 -6 27 -14 27 -18 0 -5
10 -8 23 -8 13 0 28 -5 34 -11 5 -5 44 -19 84 -30 41 -11 92 -22 114 -25 22
-4 46 -11 53 -17 8 -6 37 -14 65 -19 29 -4 61 -10 72 -12 11 -3 43 -10 70 -16
28 -6 59 -15 70 -20 11 -4 58 -14 105 -20 47 -7 173 -14 280 -15 107 -2 254 1
325 7 72 5 148 17 170 25 22 8 58 18 80 20 22 3 46 10 52 15 7 6 43 17 80 24
37 8 74 20 83 27 8 7 49 24 90 37 41 12 104 37 140 55 36 18 79 41 96 51 17
11 58 37 90 59 33 21 75 51 94 66 19 15 62 41 95 59 33 18 77 43 97 54 20 12
83 52 140 91 57 38 132 93 167 122 34 28 70 61 78 72 8 12 21 21 29 21 8 0 22
-4 32 -10 9 -5 42 -20 72 -33 30 -13 80 -32 110 -41 30 -9 70 -22 89 -28 19
-6 62 -15 95 -20 34 -5 88 -11 121 -14 33 -3 83 -1 110 5 28 6 75 16 105 22
30 6 89 23 130 37 41 14 93 35 116 47 22 13 55 26 72 30 18 3 34 11 37 16 4 5
16 9 29 9 12 0 49 14 81 30 32 17 70 30 84 31 14 0 40 9 56 20 17 10 41 24 55
30 14 6 37 17 52 25 14 8 34 14 44 14 10 0 52 17 93 37 42 21 80 44 84 51 4 6
15 12 24 12 8 0 34 10 57 23 22 12 43 25 44 30 2 4 9 7 16 7 6 0 19 9 29 20 9
11 23 20 30 20 7 0 29 16 48 36 18 19 50 45 69 57 19 11 44 30 55 41 11 12 53
47 93 79 40 32 82 71 94 87 11 16 25 27 30 24 4 -3 8 0 8 6 0 6 17 27 38 45
20 19 39 35 42 35 3 0 22 21 41 47 20 27 49 73 65 103 15 30 33 62 40 70 7 8
21 32 33 53 12 21 21 42 21 48 0 6 7 27 16 47 9 21 24 54 35 75 10 22 19 49
19 62 0 13 6 28 13 32 8 4 22 33 32 63 10 30 21 64 25 75 4 11 15 43 23 70 9
28 28 95 42 150 14 55 28 118 31 140 3 22 9 69 14 105 5 36 7 106 5 155 -2 50
-9 135 -15 190 -7 55 -20 156 -31 225 -10 69 -30 156 -44 194 -14 38 -25 80
-25 94 0 13 -11 46 -25 74 -14 27 -25 55 -25 63 0 7 -7 18 -15 25 -8 7 -15 20
-15 29 0 10 -13 37 -29 62 -15 25 -34 62 -40 81 -7 20 -19 42 -28 50 -9 7 -30
42 -46 78 -16 36 -32 67 -36 70 -4 3 -28 35 -54 72 -41 57 -45 67 -30 72 10 2
45 8 78 11 33 4 98 19 145 33 47 15 91 33 98 39 7 7 19 13 27 13 7 0 26 7 41
15 16 8 39 15 50 15 12 0 27 7 34 15 7 8 19 15 27 15 8 0 28 11 45 25 16 14
40 25 53 25 12 0 28 6 34 13 6 8 30 20 53 28 24 7 57 21 73 30 17 9 62 29 102
43 39 15 134 59 210 98 76 39 150 79 165 89 14 11 29 19 33 19 3 0 33 18 66
40 33 22 64 40 68 40 4 0 17 10 29 23 11 12 33 31 47 42 15 11 41 32 58 48 18
15 37 31 42 36 6 4 43 44 82 87 40 43 95 108 123 144 28 36 68 90 89 120 21
31 46 62 55 69 9 7 16 19 16 25 0 7 14 25 31 42 17 16 38 44 47 63 9 19 34 66
56 105 23 39 53 85 68 101 15 17 47 71 72 120 24 50 54 119 66 155 12 36 28
99 35 140 7 41 13 84 13 95 0 11 -6 61 -13 110 -7 50 -23 124 -35 165 -12 41
-28 89 -36 107 -8 17 -14 34 -14 37 0 3 -13 34 -30 68 -16 34 -30 69 -30 78 0
10 -8 28 -18 41 -10 13 -31 51 -47 84 -15 33 -46 83 -68 110 -22 28 -74 83
-116 123 -42 40 -106 100 -144 133 -37 32 -72 59 -77 59 -5 0 -30 18 -57 40
-26 21 -63 52 -82 67 -19 15 -57 45 -85 66 -28 21 -63 48 -79 60 -15 12 -39
34 -54 50 -14 15 -30 27 -34 27 -5 0 -46 27 -92 60 -47 33 -89 60 -94 60 -6 0
-25 10 -44 23 -19 12 -52 28 -74 36 -22 8 -51 22 -64 32 -13 11 -32 19 -42 19
-10 0 -21 5 -24 10 -3 6 -16 10 -27 10 -12 0 -29 6 -37 14 -9 7 -47 21 -86 30
-38 10 -74 21 -80 25 -5 4 -28 13 -50 19 -22 7 -80 19 -129 27 -49 8 -94 19
-100 24 -6 4 -42 16 -81 25 -38 10 -88 22 -110 29 -22 6 -42 12 -44 13 -1 2
11 15 27 31 17 15 54 44 82 63 29 19 70 52 91 73 21 20 42 37 46 37 5 0 45 37
90 83 45 45 101 105 125 133 24 28 60 71 80 95 20 24 59 76 87 114 27 39 60
83 73 98 13 16 30 39 38 52 8 13 43 70 76 127 34 57 80 136 103 176 22 41 41
78 41 83 0 6 12 35 26 66 15 31 30 70 35 87 4 17 21 78 38 134 16 57 33 118
37 135 3 18 8 101 11 185 5 134 3 163 -17 240 -12 48 -30 103 -40 122 -11 19
-26 50 -35 69 -9 18 -26 48 -38 65 -12 17 -49 65 -82 106 -32 41 -86 102 -120
135 -33 33 -76 71 -94 85 -19 14 -44 34 -55 45 -12 11 -23 20 -26 20 -3 0 -18
9 -35 20 -16 12 -43 27 -60 35 -16 8 -41 22 -54 32 -13 10 -32 18 -42 18 -11
0 -19 4 -19 9 0 5 -17 15 -37 22 -21 6 -43 15 -48 20 -6 4 -33 15 -60 24 -27
10 -72 24 -100 31 -27 8 -93 26 -145 40 -52 14 -106 27 -120 28 -14 1 -52 8
-85 15 -33 7 -96 21 -140 31 -44 10 -109 24 -145 31 -36 8 -69 12 -74 11 -4
-2 -23 2 -41 8 -18 6 -110 11 -207 12 -95 0 -222 -5 -283 -11 -60 -7 -139 -16
-175 -21 -36 -6 -110 -17 -165 -26 -55 -8 -127 -19 -160 -24 -33 -5 -85 -14
-115 -20 -30 -7 -73 -16 -95 -21 -22 -5 -76 -15 -119 -24 -44 -8 -94 -24 -112
-35 -19 -10 -55 -26 -81 -34 -27 -8 -68 -22 -93 -31 -25 -9 -48 -21 -51 -26
-3 -6 -12 -12 -20 -13 -8 -1 -39 -14 -69 -28 -30 -14 -71 -32 -90 -39 -19 -7
-75 -37 -125 -66 -49 -28 -95 -57 -102 -63 -7 -5 -17 -10 -22 -10 -6 0 -45
-21 -88 -46 -43 -25 -80 -49 -83 -53 -3 -5 -12 -8 -20 -8 -8 0 -32 -10 -52
-23 -21 -12 -38 -26 -38 -30 0 -4 -8 -10 -17 -14 -10 -3 -31 -13 -48 -23 -16
-10 -52 -33 -78 -50 -26 -18 -52 -33 -58 -33 -5 0 -9 -4 -9 -8 0 -4 -26 -23
-57 -42 -32 -19 -59 -38 -61 -42 -2 -5 -10 -8 -17 -8 -7 0 -27 21 -44 48 -17
26 -64 90 -103 143 -40 53 -95 123 -123 157 -27 33 -56 61 -62 61 -7 1 -13 5
-13 11 0 5 -40 44 -89 86 -49 42 -106 86 -125 98 -20 11 -69 44 -110 73 -41
28 -100 63 -130 77 -30 14 -57 30 -61 35 -3 5 -20 13 -38 16 -17 4 -43 15 -57
24 -14 9 -42 24 -63 34 -21 9 -46 17 -56 17 -10 0 -23 6 -29 13 -6 7 -23 14
-38 15 -16 1 -33 7 -38 12 -6 6 -20 10 -33 10 -13 0 -23 5 -23 11 0 6 -9 9
-19 6 -11 -3 -29 2 -41 10 -12 8 -24 13 -27 9 -3 -3 -22 2 -42 10 -20 8 -56
20 -81 25 -25 6 -54 13 -65 15 -11 3 -47 10 -80 15 -33 6 -80 14 -105 19 -25
5 -81 13 -125 20 -44 6 -87 14 -95 18z m-160 -124 c91 -2 206 -9 255 -16 50
-6 126 -20 170 -30 44 -11 96 -21 115 -22 20 -2 49 -10 65 -18 17 -9 49 -19
73 -23 23 -4 66 -15 94 -26 29 -10 63 -19 75 -19 12 0 24 -4 27 -9 3 -5 18
-12 33 -15 16 -4 53 -19 83 -33 30 -14 100 -49 155 -76 55 -27 107 -55 115
-62 8 -7 38 -25 65 -41 28 -15 102 -67 165 -115 63 -48 144 -118 179 -156 35
-37 74 -79 86 -93 12 -14 31 -38 41 -55 10 -16 21 -32 24 -35 3 -3 17 -23 32
-45 15 -22 41 -58 57 -80 17 -22 37 -52 46 -67 8 -16 12 -28 8 -28 -5 0 -33
-23 -63 -50 -30 -27 -64 -58 -75 -69 -11 -10 -56 -56 -100 -102 -44 -46 -107
-115 -140 -154 -33 -38 -66 -74 -72 -78 -7 -4 -13 -13 -13 -18 0 -6 -15 -26
-32 -44 -18 -18 -47 -48 -64 -67 -17 -18 -36 -43 -43 -55 -6 -13 -18 -23 -25
-23 -8 0 -16 -10 -20 -23 -3 -13 -27 -48 -53 -79 -26 -30 -55 -64 -64 -75 -9
-11 -25 -37 -36 -59 -11 -21 -26 -51 -33 -66 -7 -15 -21 -36 -30 -46 -10 -10
-21 -29 -25 -42 -4 -13 -14 -30 -21 -37 -7 -8 -18 -30 -24 -51 -6 -20 -13 -69
-16 -108 -6 -67 -5 -74 34 -157 22 -48 38 -87 35 -87 -3 0 32 -36 77 -80 50
-48 112 -97 158 -122 42 -24 81 -45 87 -47 5 -2 38 -16 73 -32 34 -16 67 -29
72 -29 6 0 10 -4 10 -8 0 -5 44 -14 98 -21 53 -6 117 -11 142 -11 25 1 81 6
124 12 44 5 100 16 125 25 25 8 73 34 106 58 33 24 80 63 105 86 25 24 75 80
110 124 35 44 75 100 88 125 14 25 28 56 32 70 5 14 20 62 33 108 20 67 25
107 26 208 1 87 -3 143 -14 187 -9 34 -23 87 -31 117 -8 30 -23 80 -33 110
-11 30 -27 78 -36 105 -10 28 -26 73 -37 100 -11 28 -28 68 -39 90 -10 22 -19
43 -19 47 0 4 -22 40 -49 80 -28 40 -65 90 -85 110 -19 21 -37 46 -40 56 -4
11 2 29 14 45 11 14 30 29 43 33 12 4 44 22 72 41 27 19 52 38 55 42 3 4 26
20 51 34 25 15 51 27 57 27 7 0 25 12 41 28 16 15 44 34 63 43 18 9 53 26 78
38 25 12 54 27 65 34 11 6 23 17 27 22 4 6 11 10 15 11 4 0 24 8 43 18 19 9
60 30 90 47 30 17 66 38 80 47 14 9 29 15 34 14 5 -2 18 6 30 16 11 11 32 23
46 27 14 3 41 13 60 21 19 8 46 21 60 28 14 7 39 17 55 21 17 4 38 8 48 10 10
2 32 11 50 20 18 9 57 25 87 35 30 9 75 21 100 25 25 4 54 12 65 18 11 6 36
12 55 13 19 1 91 13 160 27 69 14 174 31 234 37 61 6 113 13 117 15 4 3 67 11
140 19 74 7 186 12 249 9 63 -2 140 -5 170 -7 30 -1 80 -8 110 -14 30 -7 64
-11 75 -11 11 1 47 -7 80 -16 33 -10 83 -21 110 -26 28 -4 97 -18 155 -30 58
-12 114 -25 125 -30 11 -4 36 -11 55 -15 19 -4 37 -9 40 -10 3 0 20 -5 38 -9
17 -4 32 -11 32 -15 0 -5 15 -11 33 -15 17 -4 74 -27 125 -51 51 -24 119 -61
150 -81 31 -21 66 -42 78 -49 11 -6 33 -22 50 -35 16 -13 66 -60 112 -104 46
-44 107 -113 135 -154 29 -40 62 -88 74 -105 12 -17 22 -36 22 -43 1 -7 8 -29
17 -50 9 -21 21 -46 26 -56 5 -10 12 -64 15 -120 3 -56 0 -147 -6 -202 -6 -55
-20 -134 -31 -175 -11 -41 -22 -85 -25 -97 -3 -12 -10 -35 -17 -50 -6 -16 -13
-36 -15 -47 -2 -10 -24 -62 -50 -115 -26 -53 -62 -120 -80 -149 -18 -29 -33
-54 -33 -57 0 -2 -18 -30 -40 -62 -22 -32 -57 -83 -77 -113 -21 -30 -41 -56
-45 -58 -5 -2 -8 -8 -8 -13 0 -6 -44 -65 -97 -132 -54 -67 -149 -174 -213
-237 -63 -63 -157 -147 -209 -185 -51 -39 -117 -90 -147 -114 -49 -40 -57 -43
-96 -37 -24 3 -86 10 -138 16 -52 6 -180 12 -285 13 -152 2 -204 0 -260 -14
-38 -9 -74 -15 -78 -12 -4 3 -14 0 -21 -6 -7 -6 -33 -14 -57 -17 -24 -3 -49
-10 -55 -15 -6 -5 -19 -10 -30 -12 -10 -1 -23 -5 -29 -9 -5 -3 -25 -9 -43 -13
-18 -4 -45 -13 -60 -21 -15 -8 -33 -14 -40 -14 -7 0 -20 -4 -30 -10 -9 -5 -39
-14 -67 -20 -27 -6 -70 -15 -95 -21 -25 -5 -64 -18 -87 -29 -24 -11 -51 -20
-60 -20 -10 0 -35 -6 -55 -13 -21 -7 -41 -16 -44 -20 -4 -4 -24 -7 -44 -7 -20
0 -40 -4 -45 -8 -6 -5 -37 -15 -70 -22 -33 -7 -64 -16 -70 -20 -5 -4 -30 -10
-55 -14 -24 -4 -79 -22 -122 -41 -44 -19 -106 -52 -139 -75 -33 -23 -77 -51
-97 -62 -20 -11 -56 -31 -79 -43 -23 -12 -70 -44 -104 -71 -35 -27 -86 -64
-114 -83 -27 -19 -63 -47 -80 -63 -16 -15 -35 -28 -41 -28 -7 0 -21 -18 -33
-40 -14 -28 -21 -59 -21 -98 0 -31 5 -77 11 -102 5 -25 21 -62 35 -82 14 -20
45 -45 68 -56 23 -11 76 -25 119 -32 43 -6 119 -9 170 -6 51 3 126 10 167 16
41 6 95 13 120 15 25 2 82 12 125 23 44 11 123 28 175 37 52 9 109 23 125 30
17 7 57 21 90 31 33 9 97 32 143 50 46 19 96 43 112 54 15 11 33 20 38 20 6 0
46 18 89 41 43 22 98 52 123 65 25 13 54 30 65 36 11 7 29 18 40 24 11 6 22
11 25 11 3 0 41 23 85 51 44 28 98 64 119 79 22 15 53 36 70 46 17 11 42 29
56 42 14 12 44 34 68 49 23 14 42 31 42 36 0 6 5 10 10 10 6 0 41 22 78 50 37
27 85 64 107 81 22 17 78 58 125 91 l85 60 70 -5 c39 -4 113 -18 165 -32 52
-14 126 -32 163 -40 38 -8 83 -19 100 -24 18 -6 61 -19 97 -30 36 -10 99 -29
140 -41 41 -13 104 -36 140 -52 36 -16 74 -33 84 -39 10 -6 63 -35 117 -64 53
-30 116 -66 139 -80 23 -15 77 -54 119 -88 42 -34 78 -64 81 -67 3 -3 32 -28
65 -56 33 -28 87 -70 120 -94 33 -24 101 -77 150 -118 50 -41 119 -104 155
-141 36 -36 79 -84 95 -106 17 -22 41 -60 53 -85 13 -25 44 -92 69 -150 25
-57 60 -150 79 -205 25 -72 36 -126 41 -191 3 -54 1 -118 -6 -160 -7 -38 -27
-100 -45 -139 -18 -38 -41 -90 -51 -115 -10 -25 -24 -52 -31 -60 -6 -8 -36
-55 -64 -105 -29 -49 -75 -120 -101 -157 -27 -37 -49 -70 -49 -73 0 -3 -8 -14
-17 -24 -10 -11 -36 -45 -58 -76 -22 -30 -62 -84 -89 -118 -26 -34 -58 -74
-71 -88 -12 -14 -26 -33 -31 -41 -5 -9 -56 -60 -114 -113 -58 -53 -142 -120
-186 -150 -45 -30 -86 -55 -93 -55 -6 0 -11 -3 -11 -8 0 -4 -8 -12 -19 -17
-10 -6 -54 -28 -97 -50 -44 -21 -81 -42 -84 -45 -3 -3 -26 -16 -52 -28 -27
-12 -67 -30 -90 -41 -24 -10 -83 -37 -133 -59 -49 -22 -110 -48 -135 -58 -25
-9 -54 -23 -65 -31 -11 -7 -27 -13 -37 -13 -10 0 -18 -4 -18 -10 0 -5 -17 -14
-38 -19 -20 -6 -60 -22 -89 -35 -28 -14 -63 -28 -77 -32 -14 -3 -29 -10 -32
-15 -3 -5 -14 -9 -24 -9 -11 0 -39 -6 -62 -14 -24 -8 -99 -16 -167 -19 l-124
-5 -56 52 c-31 29 -69 62 -86 75 -16 12 -84 73 -150 134 -66 62 -153 144 -195
183 -41 39 -98 87 -127 108 -28 20 -53 40 -55 44 -2 4 -34 32 -73 63 -38 31
-120 89 -180 130 -61 41 -129 83 -150 93 -22 11 -56 27 -76 38 -20 10 -46 18
-57 18 -11 0 -35 6 -53 14 -19 7 -86 16 -149 20 -63 3 -140 13 -170 21 -30 8
-65 15 -78 15 -12 0 -38 -15 -56 -32 -19 -18 -52 -67 -74 -108 -22 -42 -46
-104 -52 -138 -8 -36 -10 -92 -7 -132 3 -38 15 -90 27 -116 12 -29 55 -82 108
-137 48 -49 117 -109 154 -133 37 -24 100 -59 140 -77 40 -18 96 -39 123 -47
28 -7 59 -19 70 -25 11 -6 54 -21 95 -33 41 -11 109 -28 150 -37 41 -9 93 -20
115 -25 22 -6 83 -13 135 -16 52 -4 127 -7 165 -9 39 -1 159 -7 267 -14 109
-6 206 -15 215 -18 10 -4 49 -36 87 -72 37 -36 89 -97 114 -136 26 -38 52 -79
58 -90 6 -11 28 -47 48 -80 20 -33 48 -85 62 -115 15 -30 34 -73 44 -95 10
-22 28 -64 40 -94 12 -30 33 -91 46 -134 13 -44 36 -164 51 -266 19 -135 26
-226 26 -331 0 -80 -5 -181 -12 -225 -6 -44 -18 -98 -26 -120 -8 -22 -19 -58
-24 -80 -6 -22 -23 -77 -40 -123 -16 -46 -32 -86 -35 -89 -3 -4 -6 -14 -6 -24
0 -10 -9 -38 -21 -61 -11 -24 -25 -51 -30 -60 -5 -10 -9 -26 -9 -35 0 -10 -9
-29 -20 -43 -11 -14 -20 -30 -20 -35 0 -6 -12 -34 -27 -62 -16 -29 -48 -87
-72 -129 -25 -43 -72 -107 -105 -143 -34 -35 -92 -95 -131 -132 -38 -38 -74
-69 -80 -69 -6 0 -46 -32 -90 -72 -43 -39 -109 -91 -146 -114 -37 -24 -120
-71 -185 -105 -66 -34 -120 -65 -122 -70 -2 -5 -13 -9 -25 -9 -12 0 -35 -7
-52 -16 -16 -9 -59 -27 -95 -42 -36 -14 -67 -29 -70 -32 -3 -4 -14 -9 -25 -13
-11 -3 -47 -15 -80 -27 -33 -12 -69 -25 -80 -29 -11 -5 -33 -14 -50 -21 -16
-7 -66 -25 -110 -40 -44 -15 -110 -35 -148 -44 -37 -10 -100 -21 -140 -25 -39
-4 -85 -7 -102 -5 -16 1 -64 10 -105 19 -41 9 -100 26 -132 36 -31 10 -69 24
-85 30 -15 7 -42 18 -60 26 -18 7 -35 18 -39 24 -3 6 21 38 55 71 34 34 61 64
61 67 0 3 23 31 50 61 28 30 59 66 71 80 11 14 38 49 60 79 21 30 39 61 39 68
0 7 4 13 10 13 5 0 29 39 54 88 24 48 47 98 51 112 4 14 13 39 20 55 8 17 27
71 43 120 17 50 42 140 56 200 14 61 32 155 41 210 9 57 16 160 16 238 0 76
-7 179 -16 230 -8 51 -19 108 -24 127 -5 19 -19 69 -31 110 -12 41 -44 118
-70 171 -26 52 -69 127 -96 165 -27 39 -62 89 -79 111 -16 23 -42 48 -57 57
-15 10 -42 32 -60 51 -23 23 -66 47 -138 76 -58 23 -112 43 -120 44 -8 0 -26
6 -40 12 -14 7 -46 15 -72 18 -26 3 -50 10 -53 16 -4 5 -28 9 -54 9 -27 0 -76
-9 -109 -19 -33 -11 -73 -26 -89 -34 -15 -8 -39 -27 -52 -41 -14 -14 -30 -26
-36 -26 -7 0 -47 -27 -88 -60 -42 -33 -81 -60 -87 -60 -6 0 -54 -44 -108 -98
-53 -54 -104 -114 -114 -133 -9 -18 -32 -68 -52 -109 -19 -41 -48 -115 -65
-165 -16 -49 -37 -117 -45 -150 -8 -33 -18 -82 -21 -110 -3 -27 -8 -60 -10
-72 -3 -11 -7 -59 -10 -105 -3 -45 -8 -101 -11 -124 -2 -23 0 -61 7 -85 6 -24
12 -71 14 -104 2 -33 10 -87 19 -120 8 -33 25 -87 38 -120 12 -33 42 -98 66
-145 24 -47 47 -87 52 -90 4 -3 30 -42 59 -88 28 -46 51 -87 51 -90 0 -4 27
-36 60 -72 34 -36 75 -78 93 -95 17 -16 73 -70 123 -118 51 -49 108 -100 127
-113 20 -13 40 -24 45 -24 5 0 17 -9 27 -20 10 -11 23 -20 30 -20 7 0 22 -8
34 -19 11 -10 38 -21 59 -25 21 -3 47 -15 56 -25 18 -20 17 -21 -20 -57 -22
-20 -57 -48 -79 -63 -22 -14 -67 -46 -100 -72 -33 -25 -87 -60 -119 -78 -32
-18 -92 -55 -135 -82 -42 -26 -91 -60 -110 -74 -19 -14 -40 -25 -46 -25 -7 0
-18 -7 -26 -16 -7 -8 -30 -25 -52 -37 -22 -12 -48 -27 -57 -32 -10 -6 -24 -16
-32 -23 -8 -6 -18 -9 -21 -5 -4 3 -17 -3 -30 -15 -12 -11 -35 -25 -50 -31 -16
-6 -42 -11 -58 -11 -16 0 -29 -4 -29 -8 0 -4 -21 -14 -47 -21 -27 -7 -55 -15
-63 -18 -8 -4 -18 -5 -22 -5 -5 1 -8 -2 -8 -7 0 -4 -28 -16 -62 -26 -35 -10
-90 -22 -123 -27 -33 -5 -89 -13 -125 -18 -36 -5 -154 -9 -263 -9 -109 0 -230
4 -270 9 -40 5 -89 12 -111 15 -21 3 -43 8 -50 12 -6 4 -31 11 -56 15 -25 4
-88 16 -140 26 -52 11 -108 24 -125 30 -16 6 -69 23 -117 37 -49 15 -90 31
-94 36 -3 5 -18 9 -34 9 -16 0 -32 4 -35 10 -3 5 -25 14 -48 21 -23 6 -62 21
-87 33 -25 12 -74 33 -110 45 -36 13 -79 30 -97 37 -17 8 -37 14 -43 14 -7 0
-54 14 -104 31 -50 17 -109 40 -131 52 -22 11 -69 51 -105 88 -36 38 -80 87
-98 109 -18 22 -39 40 -46 40 -8 0 -17 -11 -20 -25 -6 -25 -7 -25 -34 -9 -16
9 -78 66 -138 127 -61 62 -134 141 -163 175 -31 39 -50 70 -47 80 3 10 9 51
15 92 6 41 13 120 16 175 4 58 2 133 -5 180 -6 44 -11 85 -11 90 0 6 1 24 3
40 1 17 -2 49 -6 71 -4 23 -9 126 -11 230 -2 146 -9 222 -29 334 -14 80 -35
179 -46 220 -12 41 -22 89 -24 106 -1 16 -6 36 -11 44 -5 7 -9 32 -11 54 -1
23 -7 59 -12 81 -6 22 -16 63 -22 90 -6 28 -15 58 -20 67 -6 10 -10 23 -10 30
0 7 -13 38 -28 68 -16 30 -45 81 -65 112 -20 31 -37 61 -37 67 0 5 -21 28 -46
50 -25 22 -74 54 -108 71 -35 16 -69 30 -77 30 -8 0 -20 5 -26 11 -7 7 -24 7
-57 -2 -25 -6 -46 -15 -46 -20 0 -5 -6 -9 -12 -9 -7 -1 -29 -22 -48 -48 -19
-26 -46 -78 -59 -117 -22 -62 -25 -87 -25 -220 -1 -87 6 -207 16 -286 10 -75
29 -176 43 -225 14 -49 32 -105 39 -124 8 -19 17 -62 21 -94 3 -33 9 -64 14
-70 4 -6 18 -40 30 -76 13 -36 38 -96 57 -133 19 -37 34 -79 34 -93 0 -14 12
-56 26 -92 14 -37 30 -80 36 -97 6 -16 22 -55 37 -85 14 -30 26 -60 27 -67 1
-7 16 -35 33 -63 17 -28 31 -54 31 -59 0 -5 3 -11 8 -13 4 -1 22 -26 40 -54
17 -28 32 -56 32 -62 0 -5 3 -12 8 -14 4 -1 23 -28 43 -58 20 -30 39 -62 42
-70 4 -8 18 -33 32 -55 13 -22 31 -51 39 -65 12 -21 12 -37 0 -110 -8 -47 -18
-107 -23 -135 -5 -27 -9 -52 -10 -55 -1 -3 -4 -14 -6 -25 -2 -11 -9 -47 -15
-80 -7 -33 -28 -93 -47 -132 -26 -54 -48 -83 -86 -114 -29 -23 -59 -50 -68
-59 -8 -10 -37 -29 -64 -44 -28 -14 -53 -26 -57 -26 -4 0 -19 -5 -35 -12 -15
-6 -32 -13 -38 -14 -5 -2 -44 -10 -85 -19 -41 -8 -109 -15 -150 -15 -41 0
-104 7 -140 15 -36 9 -96 28 -135 42 -38 15 -89 40 -112 55 -23 15 -44 28 -47
28 -3 0 -20 10 -39 23 -18 12 -57 40 -86 62 -30 22 -87 71 -127 109 -41 38
-74 73 -74 78 0 5 -18 34 -41 66 -22 31 -56 82 -76 112 -20 30 -39 57 -43 60
-3 3 -23 30 -43 61 -20 31 -37 63 -37 72 0 8 -3 17 -7 19 -5 2 -23 28 -42 58
-19 30 -45 76 -58 102 -12 27 -23 52 -23 57 0 5 -16 43 -35 84 -19 41 -35 81
-35 89 0 7 -6 22 -13 33 -8 11 -18 45 -24 75 -6 30 -12 71 -12 90 -1 19 -2 42
-4 50 -1 8 -6 21 -10 27 -4 7 -11 36 -14 65 -3 29 -9 58 -13 63 -3 6 -8 30 -9
55 -2 25 -5 48 -7 52 -2 3 -7 39 -10 80 -4 40 -10 80 -15 89 -4 9 -6 76 -4
150 2 74 4 233 4 354 1 121 1 227 0 235 0 8 4 49 10 90 5 41 13 98 16 125 3
28 10 66 15 85 4 19 11 62 15 95 4 33 16 101 27 150 11 50 26 124 35 165 8 41
26 125 39 185 14 61 25 115 25 120 1 6 5 17 10 26 6 12 29 19 76 23 37 4 86
12 108 18 22 5 52 12 68 14 15 2 31 5 36 8 5 3 31 6 60 7 28 1 51 5 51 10 0 4
37 10 83 14 45 4 100 14 122 22 22 8 77 27 123 43 46 16 153 63 237 105 85 42
157 80 160 85 3 5 22 14 43 20 20 7 42 17 47 24 6 6 37 29 70 51 33 22 66 46
75 53 8 7 44 37 80 66 36 30 101 91 145 138 44 46 99 110 123 143 23 33 53 77
66 97 14 20 37 70 52 110 14 40 30 87 34 105 4 17 2 87 -4 155 -10 101 -19
141 -51 223 -21 55 -53 123 -71 150 -17 28 -41 59 -53 69 -11 11 -21 24 -21
30 0 6 -44 56 -98 111 -89 92 -103 102 -162 120 -43 13 -93 20 -145 20 -57 0
-97 -7 -140 -22 -33 -12 -85 -32 -115 -43 -30 -12 -62 -22 -70 -22 -8 -1 -51
-37 -94 -82 -44 -45 -94 -103 -113 -131 -18 -27 -50 -74 -71 -104 -20 -30 -42
-63 -48 -73 -6 -10 -20 -29 -32 -41 -11 -12 -31 -41 -44 -64 -13 -23 -43 -77
-67 -120 -25 -43 -55 -92 -68 -109 -13 -17 -23 -38 -23 -47 0 -9 -5 -19 -11
-22 -5 -4 -15 -17 -20 -28 -5 -12 -18 -35 -29 -52 -10 -16 -37 -64 -58 -105
-22 -41 -51 -95 -66 -120 -14 -25 -26 -52 -26 -61 0 -9 -7 -22 -15 -29 -9 -7
-13 -15 -11 -18 3 -2 -6 -22 -20 -43 -13 -21 -24 -47 -24 -58 0 -11 -4 -23
-10 -26 -5 -3 -16 -20 -24 -38 -8 -18 -21 -52 -28 -77 -7 -25 -11 -53 -10 -64
1 -10 -3 -25 -10 -34 -7 -8 -18 -36 -25 -61 -6 -25 -18 -66 -26 -91 -8 -25
-19 -63 -23 -85 -9 -39 -10 -40 -54 -43 -25 -2 -76 1 -115 8 -38 6 -95 19
-125 27 -30 9 -71 24 -91 34 -20 11 -51 19 -68 19 -18 0 -44 6 -59 14 -15 7
-79 30 -142 51 -63 21 -124 42 -135 48 -10 5 -40 21 -65 35 -25 13 -54 30 -65
36 -11 6 -31 20 -44 31 -13 11 -53 46 -89 77 -35 31 -82 80 -103 110 -21 29
-41 60 -45 68 -3 8 -10 22 -15 30 -5 8 -16 30 -24 49 -8 19 -22 60 -30 92 -9
33 -16 105 -16 166 0 59 5 133 11 163 7 30 14 66 16 80 2 14 8 48 13 75 5 28
16 68 25 90 8 22 22 65 30 95 8 30 27 84 41 120 14 36 49 111 77 168 28 56 55
102 60 102 4 0 8 6 8 14 0 8 13 40 30 71 16 31 30 63 30 70 0 7 11 23 25 36
13 13 27 39 31 57 3 17 9 32 13 32 4 0 20 25 35 55 16 30 34 59 42 66 8 6 14
17 14 23 0 7 14 33 30 59 17 26 30 54 30 62 0 8 23 44 50 80 28 36 50 74 50
83 0 9 9 25 20 37 11 11 31 34 45 51 14 18 25 37 25 42 0 6 10 23 22 39 13 15
32 45 42 66 11 20 22 37 26 37 4 0 31 32 61 72 30 39 81 101 115 137 33 36 98
109 144 161 46 52 118 129 160 170 42 41 105 102 141 135 35 33 93 85 129 117
36 31 88 76 116 100 28 23 60 50 70 58 10 9 36 28 57 44 21 16 42 25 45 20 4
-5 27 -25 52 -44 25 -20 59 -44 75 -55 17 -10 55 -39 85 -64 30 -26 69 -56 87
-69 18 -12 35 -22 39 -22 3 0 20 -10 37 -22 18 -13 46 -30 62 -40 17 -9 53
-27 80 -41 28 -13 70 -33 95 -44 25 -11 79 -33 120 -48 41 -15 109 -41 150
-58 41 -16 100 -35 130 -43 30 -7 93 -22 140 -34 47 -11 123 -34 170 -51 47
-16 112 -37 145 -45 40 -10 104 -14 196 -13 74 0 155 5 180 10 24 4 121 11
214 14 94 3 196 8 228 11 32 3 94 20 137 38 43 19 91 43 106 55 15 11 31 21
35 21 5 0 33 16 64 35 30 20 66 45 81 58 14 12 49 45 77 73 37 36 59 70 77
115 23 59 25 76 25 229 -1 150 -3 171 -25 229 -13 36 -39 84 -57 108 -18 24
-33 46 -33 48 0 3 -8 18 -18 33 -10 15 -33 48 -50 74 -18 25 -32 50 -32 55 0
4 -24 28 -52 53 -28 25 -61 50 -72 57 -12 7 -30 16 -41 22 -11 5 -37 21 -58
35 -20 14 -63 39 -95 55 -31 16 -84 43 -118 60 -33 17 -85 35 -114 41 -29 5
-112 10 -184 10 -72 0 -180 -4 -241 -10 -60 -5 -135 -11 -165 -13 -30 -2 -73
-9 -95 -15 -22 -6 -78 -16 -125 -23 -47 -6 -89 -15 -95 -19 -5 -3 -37 -13 -70
-20 -33 -7 -83 -23 -112 -36 -28 -13 -54 -24 -58 -24 -3 0 -47 -20 -98 -44
-50 -24 -141 -67 -202 -96 -60 -28 -144 -69 -185 -91 -41 -21 -95 -49 -120
-61 -25 -13 -49 -27 -55 -31 -5 -4 -50 -33 -100 -63 -49 -31 -91 -60 -93 -65
-2 -5 -9 -9 -15 -9 -7 0 -29 -14 -51 -30 -28 -21 -43 -27 -55 -21 -9 5 -34 29
-56 54 -22 25 -47 55 -56 66 -9 12 -37 43 -62 70 -26 27 -57 58 -70 68 -12 10
-44 47 -71 81 -27 35 -60 85 -73 110 -14 26 -36 68 -50 95 -14 26 -29 50 -34
53 -5 2 -15 19 -23 37 -8 18 -23 61 -35 97 -11 36 -28 101 -37 145 -13 60 -17
128 -17 273 1 128 5 197 12 206 7 8 11 18 10 22 -1 5 1 23 5 39 4 17 12 39 17
50 5 11 11 36 14 55 3 19 15 52 25 73 11 21 20 44 20 51 0 7 9 21 20 31 11 10
20 26 20 36 0 10 9 24 20 32 11 8 17 17 13 20 -3 4 -1 7 5 7 7 0 12 7 12 15 0
8 9 23 20 32 11 10 20 22 20 27 0 5 24 37 53 72 28 35 68 84 87 110 19 26 45
58 57 71 13 13 23 27 23 31 0 5 68 79 152 166 84 87 191 192 238 234 48 43 98
87 113 99 14 12 38 30 54 39 15 10 46 32 68 49 22 16 49 36 60 43 11 7 34 21
50 32 17 10 35 22 41 27 5 4 20 14 33 21 13 7 73 34 135 59 61 25 147 59 191
75 44 17 100 36 125 43 25 7 56 17 70 23 14 5 45 15 70 22 25 7 55 16 67 21
12 4 71 20 130 34 59 15 122 32 138 40 17 7 46 16 65 20 19 4 40 11 45 15 6 4
29 10 53 14 24 3 51 10 60 15 9 5 46 14 82 20 36 7 88 17 115 23 28 6 64 15
80 21 17 5 55 14 85 19 30 5 102 15 160 23 69 9 162 12 270 9z m2042 -1164 c9
0 37 -28 63 -62 25 -35 53 -71 61 -81 8 -9 30 -48 48 -85 19 -37 56 -119 81
-182 26 -63 55 -146 65 -185 11 -38 26 -90 35 -114 8 -24 20 -86 26 -136 6
-51 9 -117 7 -146 -3 -30 -11 -81 -17 -114 -7 -33 -17 -66 -23 -72 -6 -7 -7
-13 -4 -13 4 0 -5 -21 -20 -47 -15 -27 -35 -57 -44 -68 -10 -11 -19 -25 -21
-32 -2 -6 -42 -53 -88 -103 -46 -50 -111 -109 -144 -130 -34 -22 -70 -41 -81
-41 -12 -1 -30 -3 -41 -5 -11 -2 -66 -6 -123 -10 -73 -5 -115 -3 -145 6 -23 7
-65 24 -94 36 -28 13 -58 24 -66 24 -8 0 -20 7 -27 15 -7 8 -19 15 -26 15 -8
0 -39 14 -68 30 -30 17 -88 66 -129 109 -47 49 -79 93 -87 117 -7 21 -17 44
-22 51 -6 7 -10 35 -10 62 1 27 6 69 12 93 6 24 21 63 32 88 11 25 27 60 36
78 9 17 20 32 24 32 3 0 9 8 12 18 4 11 28 46 54 79 26 33 94 116 151 184 57
68 129 153 160 189 31 36 80 89 109 119 28 30 52 58 52 62 0 4 21 28 48 53 26
25 67 63 92 84 25 22 56 49 70 61 14 11 32 20 42 21z m-2702 -1624 l135 -2
117 -58 c65 -31 133 -68 153 -82 20 -13 50 -31 68 -40 17 -9 59 -44 92 -78 33
-34 73 -82 89 -106 16 -25 37 -56 46 -70 9 -14 26 -43 37 -65 12 -22 31 -62
43 -90 18 -39 23 -76 28 -172 3 -81 1 -137 -7 -166 -9 -29 -31 -63 -70 -104
-32 -33 -80 -73 -107 -89 -27 -15 -62 -38 -79 -50 -16 -12 -54 -34 -82 -48
-29 -15 -53 -24 -53 -21 0 3 -10 -3 -22 -15 -14 -13 -36 -20 -62 -20 -23 -1
-88 -3 -146 -5 -58 -2 -179 -9 -270 -15 -91 -7 -201 -12 -245 -11 -44 1 -103
4 -132 7 -29 4 -58 12 -64 20 -6 8 -17 14 -25 14 -7 0 -25 5 -41 12 -15 6 -57
19 -93 29 -36 11 -101 28 -145 39 -44 11 -105 28 -135 36 -30 9 -73 24 -95 34
-22 10 -60 24 -85 31 -25 7 -67 24 -95 37 -27 13 -58 28 -68 33 -10 6 -37 20
-60 31 -23 12 -54 30 -69 40 -16 11 -28 17 -28 13 0 -3 -15 5 -32 18 -18 14
-46 32 -63 40 -16 9 -41 26 -56 39 -14 13 -32 28 -41 33 -8 6 -59 43 -113 84
l-97 74 23 18 c13 10 30 19 37 19 6 0 12 4 12 8 0 4 30 25 68 46 37 22 71 45
75 52 4 8 13 14 20 14 7 0 23 9 37 20 14 11 31 20 39 20 7 0 32 13 55 28 23
16 55 32 69 36 15 3 27 11 27 16 0 6 5 10 10 10 6 0 72 29 148 65 75 36 155
74 177 85 22 10 60 27 85 39 25 11 79 32 120 47 41 14 93 30 115 34 22 4 78
16 125 28 47 11 108 23 135 27 28 4 68 9 90 12 22 2 91 8 155 13 63 4 176 7
250 6z m5463 -420 c172 -2 241 -6 250 -15 9 -10 8 -14 -7 -23 -10 -5 -25 -19
-34 -29 -9 -10 -22 -19 -29 -19 -7 0 -21 -8 -31 -17 -9 -10 -27 -25 -38 -33
-12 -8 -66 -48 -120 -89 -55 -41 -125 -94 -157 -118 -31 -23 -59 -43 -62 -43
-3 0 -18 -11 -32 -24 -15 -14 -42 -33 -62 -43 -20 -10 -52 -31 -72 -46 -20
-16 -50 -36 -67 -45 -18 -9 -69 -38 -114 -63 -46 -26 -110 -61 -143 -79 -33
-18 -78 -39 -99 -46 -22 -8 -41 -12 -44 -10 -2 3 27 20 64 40 38 19 81 46 97
61 15 14 27 30 27 35 0 5 -9 14 -21 20 -15 9 -24 8 -35 -1 -9 -7 -24 -13 -34
-14 -9 -1 -30 -11 -45 -23 -15 -12 -32 -22 -38 -22 -5 0 -51 -26 -101 -57 -50
-31 -119 -77 -153 -101 -35 -24 -67 -50 -71 -58 -5 -9 -37 -22 -73 -30 -35 -8
-98 -21 -139 -29 -41 -7 -95 -18 -120 -24 -25 -6 -114 -20 -199 -31 -104 -14
-183 -19 -244 -16 -74 5 -97 10 -128 31 -23 15 -41 36 -45 53 -4 15 -11 32
-16 38 -5 7 -6 30 -2 52 3 23 13 43 20 46 8 3 14 11 14 18 0 7 10 22 23 33 12
11 39 32 59 45 21 14 38 28 38 33 0 4 6 7 13 7 8 0 24 11 37 25 13 14 31 25
41 25 9 0 42 20 72 45 31 25 60 45 66 45 6 0 11 4 11 9 0 5 10 13 23 16 12 4
45 22 72 40 28 18 70 41 95 52 25 11 54 23 65 28 11 4 49 15 85 25 36 10 79
22 95 28 17 6 59 16 95 22 36 7 90 22 120 35 30 12 78 26 105 30 28 4 53 11
56 17 3 5 21 13 40 18 19 4 88 22 154 39 66 18 129 36 140 41 11 5 43 16 70
25 28 9 68 21 90 25 22 5 65 14 95 21 30 6 66 14 80 19 14 5 132 7 263 6z
m-6664 -2293 c30 -3 66 -10 80 -16 14 -6 39 -20 54 -30 16 -11 62 -61 103
-111 41 -50 78 -95 82 -101 4 -5 18 -27 31 -47 12 -21 20 -38 17 -38 -3 0 5
-19 18 -43 13 -23 33 -71 45 -106 12 -35 21 -77 21 -92 0 -15 5 -31 11 -35 8
-5 10 -33 6 -90 -3 -45 -11 -91 -16 -101 -6 -10 -17 -35 -25 -55 -8 -21 -20
-38 -25 -38 -6 0 -11 -9 -11 -19 0 -11 -5 -23 -11 -26 -6 -4 -24 -26 -40 -48
-17 -23 -57 -69 -89 -102 -32 -33 -96 -95 -142 -137 -45 -42 -96 -87 -113
-100 -16 -14 -52 -39 -79 -57 -28 -18 -96 -57 -152 -87 -55 -30 -109 -54 -118
-54 -9 0 -16 -4 -16 -8 0 -5 -44 -29 -97 -54 -54 -25 -109 -49 -123 -53 -14
-3 -34 -10 -45 -15 -11 -5 -49 -15 -85 -24 -36 -8 -105 -22 -155 -31 -49 -9
-108 -20 -130 -25 -22 -5 -58 -12 -80 -17 -22 -4 -49 -8 -60 -10 -11 -1 -40
-3 -64 -5 -30 -3 -45 1 -48 10 -3 7 -1 23 6 35 6 12 13 31 14 42 2 11 10 34
16 50 7 17 15 46 18 65 3 19 11 49 19 67 8 17 14 38 14 46 0 9 5 19 10 22 6 3
10 14 10 23 0 9 7 28 15 42 7 14 23 44 34 66 11 23 30 67 41 98 12 31 27 62
33 69 7 7 22 33 35 57 12 25 22 49 22 53 0 5 13 27 28 50 15 23 33 53 40 67 7
14 23 43 36 65 12 22 40 69 61 105 21 36 53 94 72 130 18 36 48 86 66 112 17
26 48 72 67 102 19 31 39 56 43 56 5 0 6 4 2 9 -3 5 4 12 15 16 11 3 20 14 20
23 0 10 11 26 25 36 14 10 25 23 25 27 0 5 25 33 56 62 30 28 92 71 137 94 45
24 89 43 98 43 8 0 20 5 27 12 6 6 31 15 54 19 24 4 67 5 97 2z m5335 -553 c6
0 45 -5 86 -11 41 -5 116 -13 165 -18 56 -5 108 -16 137 -29 26 -12 50 -22 54
-22 3 0 39 -18 78 -40 39 -23 80 -46 90 -53 11 -7 52 -33 90 -58 39 -26 82
-59 96 -74 14 -15 48 -42 75 -60 28 -18 115 -91 195 -162 80 -72 175 -159 211
-194 36 -35 87 -81 113 -103 26 -21 46 -40 44 -41 -2 -2 -118 3 -258 11 -140
7 -286 18 -325 25 -38 6 -144 29 -235 51 -91 22 -169 44 -174 49 -6 5 -19 9
-29 9 -11 0 -77 28 -146 62 -114 56 -135 71 -217 153 -50 49 -101 109 -113
133 -12 24 -26 67 -32 97 -8 42 -7 66 5 103 8 27 28 77 46 111 18 33 37 61 44
61z m-745 -1812 c36 -3 91 -13 121 -22 30 -8 81 -24 112 -35 32 -12 84 -35
115 -52 32 -17 71 -40 86 -52 16 -11 56 -53 89 -95 32 -41 74 -99 93 -128 19
-29 43 -74 55 -101 11 -26 27 -59 34 -73 8 -14 23 -63 34 -110 11 -47 28 -128
37 -180 9 -56 16 -150 16 -230 0 -74 -4 -146 -9 -160 -5 -14 -13 -50 -16 -80
-4 -30 -14 -84 -22 -120 -8 -36 -22 -92 -30 -125 -8 -33 -31 -112 -51 -175
-19 -63 -40 -122 -44 -130 -5 -8 -20 -35 -32 -60 -13 -25 -32 -60 -43 -77 -10
-18 -22 -33 -26 -33 -5 0 -8 -5 -8 -10 0 -6 -18 -40 -41 -75 -22 -36 -48 -71
-58 -78 -9 -6 -27 -25 -40 -42 -12 -16 -66 -78 -118 -137 -53 -60 -100 -108
-105 -108 -4 0 -39 15 -76 32 -37 18 -69 36 -72 40 -3 4 -21 14 -40 22 -19 8
-57 36 -85 61 -27 25 -55 45 -62 45 -7 0 -22 10 -33 22 -12 13 -25 23 -29 23
-4 0 -55 48 -112 106 -57 58 -133 148 -168 200 -36 52 -69 97 -73 100 -5 3
-24 30 -43 59 -19 30 -40 70 -46 89 -6 20 -15 41 -19 46 -4 6 -11 21 -15 35
-4 14 -13 39 -20 55 -7 17 -18 48 -24 70 -6 22 -15 60 -20 85 -5 25 -12 90
-16 145 -5 69 -2 136 9 215 9 63 22 141 31 173 8 32 15 67 15 78 0 11 9 48 21
82 11 34 31 91 45 127 14 36 41 95 60 132 23 46 62 95 120 152 47 47 105 99
130 116 25 16 47 30 50 30 3 0 32 19 66 43 33 23 72 50 87 59 14 9 44 25 65
35 32 15 52 17 105 11z m-4522 -98 c6 0 24 -5 40 -10 15 -6 53 -38 85 -70 31
-33 63 -60 72 -60 9 0 13 -6 10 -14 -3 -7 8 -27 24 -43 18 -18 36 -52 46 -88
10 -33 26 -80 38 -105 11 -25 20 -47 20 -50 0 -3 7 -25 14 -50 8 -25 21 -88
30 -140 9 -52 19 -117 21 -145 3 -27 11 -58 19 -70 7 -11 20 -54 28 -95 9 -41
16 -96 16 -122 0 -26 4 -49 8 -52 5 -3 9 -27 10 -53 1 -26 6 -70 12 -98 5 -27
12 -115 15 -195 3 -80 8 -229 12 -332 3 -103 2 -213 -2 -244 -6 -47 -9 -54
-20 -43 -7 8 -37 59 -65 114 -29 55 -63 112 -76 127 -12 16 -26 38 -29 50 -4
13 -13 30 -20 38 -7 8 -18 32 -24 52 -7 20 -19 42 -27 48 -7 7 -14 20 -14 29
0 9 -6 28 -14 42 -7 15 -22 51 -31 80 -10 30 -21 59 -25 64 -5 6 -18 37 -30
70 -12 33 -26 74 -30 90 -5 17 -22 66 -37 110 -16 44 -39 109 -51 145 -12 36
-31 103 -43 150 -11 47 -27 112 -35 145 -7 33 -20 105 -29 160 -8 55 -16 150
-17 210 -1 61 0 133 3 160 4 28 17 73 30 100 12 28 30 60 38 72 9 12 21 23 28
23z"/>
<g>
<path d="M10097 10229 c-1 -1 -20 -5 -42 -8 -22 -4 -50 -13 -63 -19 -12 -7
-30 -25 -39 -40 -10 -15 -23 -31 -30 -35 -7 -4 -13 -19 -13 -32 0 -13 -4 -27
-10 -30 -5 -3 -10 -15 -10 -25 0 -10 12 -32 26 -50 15 -17 40 -38 58 -47 17
-9 38 -18 46 -20 8 -1 32 -6 52 -9 21 -4 42 -1 50 5 7 6 29 22 48 34 23 15 40
37 49 64 13 38 13 47 -4 98 -17 48 -26 60 -67 86 -27 16 -49 28 -51 28z"/>
</g>
<g>
<path d="M2763 8649 c-16 -1 -37 -4 -48 -8 -11 -3 -34 -15 -52 -26 -18 -11
-41 -36 -53 -56 -11 -20 -20 -47 -20 -59 0 -12 7 -37 16 -56 9 -18 32 -43 52
-55 27 -17 53 -23 98 -23 45 -1 67 4 81 16 10 10 27 40 37 68 12 33 16 62 12
84 -4 22 -22 48 -51 75 -31 29 -53 41 -72 40z"/>
</g>
<g>
<path d="M6852 8078 c-48 -1 -101 -5 -119 -9 -17 -3 -39 -14 -48 -23 -9 -9
-25 -16 -35 -16 -10 0 -37 -21 -59 -47 -23 -27 -41 -54 -41 -61 0 -7 11 -17
24 -23 14 -7 36 -9 50 -5 13 3 31 12 38 19 7 8 24 20 38 27 15 8 62 13 125 14
55 0 125 -6 155 -13 30 -8 82 -28 115 -45 33 -17 85 -48 116 -69 31 -20 60
-37 65 -37 6 0 26 -21 46 -47 20 -27 43 -64 51 -83 9 -19 23 -62 33 -95 14
-46 18 -95 18 -215 0 -100 -4 -165 -12 -183 -7 -16 -31 -51 -54 -79 -24 -28
-63 -71 -88 -95 -25 -25 -67 -60 -95 -78 -27 -18 -73 -45 -101 -59 -29 -14
-58 -26 -65 -26 -8 0 -27 -7 -42 -15 -16 -8 -67 -20 -115 -26 -47 -6 -109 -9
-137 -6 -39 4 -56 1 -74 -12 -17 -13 -21 -23 -16 -43 4 -15 15 -34 24 -42 11
-10 45 -18 92 -22 53 -4 91 -1 134 11 33 9 78 21 100 26 22 5 69 21 105 36 36
15 79 36 95 47 17 12 39 27 50 34 11 6 29 16 40 21 11 5 43 35 70 67 28 32 67
74 87 92 20 19 49 59 63 90 15 32 36 91 47 132 11 41 19 106 19 144 0 38 -3
92 -6 120 -4 28 -8 62 -10 76 -2 14 -10 52 -19 85 -8 33 -30 89 -48 124 -22
42 -45 71 -65 82 -17 9 -52 34 -79 54 -27 21 -89 57 -139 80 -49 23 -107 49
-128 58 -21 10 -53 17 -72 17 -18 0 -37 5 -40 10 -4 6 -42 10 -93 8z"/>
</g>
<g>
<path d="M8133 5297 c-35 -1 -66 -3 -67 -5 -2 -1 -72 -7 -157 -12 -85 -5 -253
-12 -374 -15 -121 -2 -290 -8 -375 -12 -85 -3 -184 -5 -220 -3 -36 3 -90 3
-120 2 -30 -1 -113 -2 -185 -1 -71 1 -146 2 -165 2 -19 0 -100 -3 -180 -7 -80
-4 -165 -11 -190 -17 -25 -5 -94 -11 -155 -14 -60 -2 -143 -9 -184 -14 -40 -6
-80 -16 -87 -22 -8 -6 -14 -24 -14 -40 0 -16 -4 -29 -10 -29 -5 0 -10 -5 -10
-11 0 -5 15 -16 34 -24 26 -11 53 -12 132 -5 54 5 144 14 199 20 55 5 145 13
200 17 55 4 154 8 220 8 66 1 125 2 130 3 6 1 204 4 440 7 237 3 511 8 610 10
99 3 250 10 335 16 85 6 177 11 203 10 43 -2 48 0 43 17 -3 10 3 36 13 58 14
27 16 43 9 51 -7 8 -33 12 -75 10z"/>
</g>
<g>
<path d="M2393 3947 c-6 2 -14 0 -17 -6 -4 -5 3 -15 15 -21 18 -10 20 -9 17 6
-1 9 -8 19 -15 21z"/>
</g>
<g>
<path d="M7160 10980 c-25 0 -52 -6 -61 -13 -9 -7 -14 -25 -13 -42 1 -16 2
-35 3 -42 0 -7 15 -28 32 -48 22 -24 40 -35 59 -35 16 0 30 7 34 15 3 8 12 15
20 15 8 0 22 14 30 32 9 17 16 39 16 49 0 10 -17 30 -37 44 -27 18 -51 25 -83
25z"/>
</g>
<g>
<path d="M7275 10650 c-19 0 -35 -4 -35 -9 0 -5 -16 -26 -35 -47 -19 -22 -41
-57 -48 -79 -14 -39 -13 -42 9 -68 14 -17 29 -25 39 -21 9 4 23 21 32 38 8 17
27 43 41 59 14 15 33 27 43 27 10 0 21 -13 28 -31 6 -18 11 -42 11 -55 0 -13
10 -30 22 -38 12 -9 29 -16 37 -16 7 0 20 8 27 18 7 9 14 27 14 40 0 12 -13
48 -29 80 -24 47 -37 61 -75 80 -26 12 -62 22 -81 22z"/>
</g>
<g>
<path d="M7571 10603 c-10 2 -23 2 -28 -2 -6 -3 -10 -21 -11 -40 0 -19 -5 -46
-11 -60 -6 -14 -15 -82 -20 -151 -6 -69 -8 -136 -4 -150 4 -14 15 -37 27 -52
11 -16 23 -28 28 -28 5 0 17 14 27 30 13 22 20 61 25 140 4 64 15 134 26 168
11 31 20 69 20 84 0 17 -7 31 -20 38 -13 7 -20 7 -20 1 0 -6 -7 -8 -15 -5 -8
4 -13 10 -10 14 3 4 -4 10 -14 13z"/>
</g>
<g>
<path d="M6924 10233 c-16 2 -41 -1 -55 -7 -14 -6 -33 -17 -42 -24 -11 -10
-14 -23 -10 -45 3 -18 19 -53 35 -79 19 -30 40 -50 61 -58 31 -11 33 -10 80
41 26 29 47 62 47 73 0 12 -8 31 -18 42 -9 12 -29 29 -43 38 -14 9 -39 17 -55
19z"/>
</g>
<g>
<path d="M3906 9490 c-15 0 -36 -11 -50 -27 -14 -15 -28 -40 -31 -55 -4 -15
-4 -36 -1 -46 4 -11 18 -24 32 -30 14 -7 40 -12 58 -12 21 0 40 8 54 23 13 14
22 36 22 56 0 23 -9 41 -29 62 -17 17 -40 29 -55 29z"/>
</g>
<g>
<path d="M5106 9490 c-7 0 -19 -7 -26 -15 -7 -8 -17 -15 -22 -15 -5 0 -17 -8
-27 -17 -10 -10 -21 -30 -25 -45 -5 -23 -1 -33 26 -58 24 -21 43 -29 70 -30
28 0 41 6 57 26 12 15 21 37 21 49 0 12 -14 41 -30 63 -17 23 -36 42 -44 42z"/>
</g>
<g>
<path d="M4634 9315 c-22 1 -52 -4 -66 -11 -14 -7 -29 -26 -32 -40 -5 -18 -3
-30 6 -35 7 -5 36 -9 64 -9 28 0 66 -5 85 -11 19 -7 41 -19 50 -28 8 -9 18
-24 22 -33 4 -12 -1 -25 -14 -37 -11 -10 -40 -21 -64 -24 -25 -4 -57 -4 -72
-2 -22 4 -33 -1 -50 -24 -13 -16 -25 -36 -29 -44 -3 -9 2 -20 15 -26 11 -6 44
-12 73 -12 29 -1 71 2 93 6 22 4 52 14 67 21 15 8 38 29 51 46 14 18 27 49 31
69 4 20 2 48 -4 63 -5 14 -29 46 -53 69 -32 33 -55 46 -88 52 -24 4 -62 9 -85
10z"/>
</g>
<g>
<path d="M4435 8773 c-77 2 -179 2 -226 0 -74 -3 -89 -7 -108 -27 l-22 -23 36
-31 35 -31 145 0 c80 0 194 -4 253 -10 59 -6 169 -15 244 -21 76 -5 144 -7
152 -4 7 3 17 24 20 46 4 23 2 46 -3 51 -6 6 -32 14 -58 19 -26 4 -111 13
-188 18 -77 5 -203 11 -280 13z"/>
</g>
<g>
<path d="M9757 9125 l-22 26 -35 -23 c-31 -21 -35 -29 -37 -71 -2 -45 -1 -46
32 -53 19 -3 46 -3 60 0 22 6 25 12 25 51 0 31 -6 51 -23 70z"/>
</g>
<g>
<path d="M9316 8900 c-23 0 -53 -8 -68 -17 -15 -10 -30 -30 -34 -46 -4 -20 -2
-33 7 -39 8 -5 29 -7 47 -4 23 3 32 1 32 -10 0 -8 -4 -14 -9 -14 -5 0 -15 -16
-21 -36 -7 -19 -9 -38 -6 -42 4 -3 22 -6 42 -6 26 0 43 8 69 35 35 34 35 35
25 89 -6 29 -18 62 -27 72 -11 12 -30 18 -57 18z"/>
</g>
<g>
<path d="M8534 8776 c-15 10 -24 10 -46 -2 -16 -8 -28 -18 -29 -22 -1 -4 -3
-26 -5 -48 -2 -26 1 -46 9 -52 7 -6 23 -12 37 -13 14 -1 33 -1 43 -1 10 1 21
12 26 24 4 13 3 38 -4 62 -7 22 -20 45 -31 52z"/>
</g>
<g>
<path d="M3231 6800 c-20 0 -47 -6 -61 -13 -18 -10 -24 -20 -22 -37 1 -13 12
-35 24 -47 15 -16 33 -23 59 -23 28 0 41 5 49 19 5 11 10 33 10 48 0 16 -5 34
-12 41 -7 7 -28 12 -47 12z"/>
</g>
<g>
<path d="M3651 6460 c-16 8 -21 6 -26 -13 -4 -12 -25 -52 -46 -88 -21 -36 -39
-73 -39 -82 0 -9 -6 -20 -13 -24 -7 -4 -28 -33 -46 -63 -17 -30 -37 -64 -44
-75 -7 -11 -33 -44 -59 -74 -27 -30 -48 -59 -48 -64 0 -4 -11 -23 -25 -41 -14
-18 -25 -44 -25 -58 0 -14 7 -32 16 -39 9 -7 21 -14 28 -15 6 -1 19 -5 28 -9
13 -5 22 3 37 36 12 24 21 47 21 52 0 5 14 25 30 44 17 18 30 42 30 52 0 11
11 29 25 42 13 13 25 32 25 42 0 9 4 17 9 17 5 0 18 18 30 40 12 22 21 48 21
56 0 9 11 29 25 46 16 19 25 42 25 65 0 20 9 46 20 60 11 14 20 38 20 54 0 18
-7 32 -19 39z"/>
</g>
<g>
<path d="M3228 6449 c-35 -1 -75 -8 -91 -16 -15 -8 -35 -28 -44 -46 -10 -18
-23 -44 -30 -59 -10 -23 -9 -31 8 -53 12 -14 31 -25 44 -25 14 0 34 13 49 31
14 17 26 34 26 39 0 4 8 11 18 15 9 4 27 9 40 11 21 4 22 1 22 -61 0 -60 2
-66 24 -76 14 -7 36 -9 50 -5 17 4 26 13 26 27 0 11 4 28 9 38 6 11 6 34 0 62
-5 24 -15 55 -21 67 -7 13 -25 30 -40 38 -16 8 -53 14 -90 13z"/>
</g>
<g>
<path d="M2800 5959 c-3 0 -14 -6 -24 -12 -11 -7 -28 -19 -38 -27 -10 -8 -18
-24 -18 -36 0 -11 9 -29 20 -39 11 -10 38 -19 61 -21 33 -3 44 0 60 18 10 13
18 33 19 45 0 15 -13 31 -37 48 -21 14 -40 25 -43 24z"/>
</g>
<g>
<path d="M9054 6360 c-12 0 -36 -13 -52 -30 -25 -25 -29 -34 -23 -62 4 -20 16
-38 31 -45 14 -7 36 -11 50 -7 14 3 28 11 32 17 4 7 8 26 8 44 0 18 -5 44 -12
58 -7 16 -19 25 -34 25z"/>
</g>
<g>
<path d="M9264 6187 c-22 1 -53 -5 -69 -13 -17 -8 -33 -19 -38 -23 -4 -4 -16
-31 -27 -60 -15 -42 -17 -58 -8 -84 6 -18 17 -39 25 -49 8 -9 27 -19 41 -23
15 -4 39 -8 54 -8 15 0 39 5 53 13 14 7 25 19 25 26 0 8 -17 22 -37 33 -21 10
-46 28 -56 39 -17 18 -17 21 -2 36 13 12 21 14 36 5 11 -6 33 -7 49 -4 16 3
34 13 41 21 10 12 6 22 -18 51 -24 30 -37 38 -69 40z"/>
</g>
<g>
<path d="M9642 6030 c-9 0 -26 -6 -37 -12 -11 -7 -26 -18 -33 -25 -8 -7 -11
-25 -8 -43 2 -17 10 -38 16 -46 7 -7 24 -14 39 -14 15 0 37 7 49 16 12 8 22
22 22 30 0 8 9 14 20 14 11 0 20 4 20 9 0 5 -9 12 -19 16 -11 3 -26 17 -35 30
-9 14 -24 25 -34 25z"/>
</g>
<g>
<path d="M9032 5992 c-21 3 -37 -1 -46 -11 -7 -9 -17 -26 -20 -37 -5 -15 -2
-24 10 -28 9 -3 20 -3 25 0 5 3 33 -9 62 -27 29 -19 54 -36 57 -39 3 -4 19
-13 35 -22 17 -8 53 -27 82 -41 28 -15 58 -24 67 -21 9 3 16 8 16 10 0 2 -31
34 -69 71 -38 37 -95 84 -127 104 -33 20 -74 39 -92 41z"/>
</g>
<g>
<path d="M8212 4348 c-20 -1 -37 -8 -43 -19 -5 -10 -9 -35 -9 -57 0 -25 8 -49
21 -66 15 -19 30 -26 56 -26 26 0 42 8 64 31 21 23 28 38 23 53 -3 11 -22 35
-42 53 -27 23 -46 32 -70 31z"/>
</g>
<g>
<path d="M8300 3709 c-3 0 -15 -5 -27 -11 -14 -7 -23 -20 -23 -34 0 -13 12
-49 26 -81 24 -54 25 -62 14 -111 -6 -28 -18 -59 -26 -67 -8 -8 -31 -17 -51
-21 -35 -7 -39 -4 -75 37 -21 24 -38 49 -38 55 0 5 -13 22 -28 37 -19 18 -39
27 -60 27 -29 0 -32 -3 -32 -32 0 -18 9 -48 21 -67 11 -19 29 -41 39 -50 10
-9 30 -36 43 -61 l25 -45 73 -3 c46 -2 85 2 108 11 20 8 39 15 44 16 4 1 10 1
15 1 4 0 17 15 30 34 17 25 24 52 28 113 5 78 5 80 -37 158 -23 44 -47 83 -53
87 -6 4 -13 7 -16 7z"/>
</g>
<g>
<path d="M7558 3640 c-23 0 -38 -5 -39 -12 -1 -7 0 -20 1 -28 1 -8 10 -33 20
-55 10 -22 28 -49 39 -59 11 -10 23 -32 27 -50 4 -17 17 -47 30 -66 13 -19 24
-44 24 -55 0 -11 33 -88 74 -170 41 -83 90 -167 109 -187 19 -21 44 -38 56
-38 15 0 21 6 21 23 0 18 5 23 28 22 21 0 26 4 24 20 -2 11 -18 32 -35 47 -18
14 -29 29 -26 33 4 3 -11 40 -33 83 -22 42 -47 88 -57 102 -10 14 -30 52 -45
85 -16 33 -35 78 -44 100 -8 22 -38 74 -65 115 -27 41 -55 78 -61 82 -6 4 -28
8 -48 8z"/>
</g>
<g>
<path d="M8635 3374 c-44 5 -52 3 -67 -16 -10 -12 -18 -39 -18 -61 0 -29 7
-46 29 -68 17 -17 40 -29 55 -29 16 0 42 14 65 35 36 33 39 38 30 68 -5 17
-17 39 -26 48 -10 10 -40 20 -68 23z"/>
</g>
<g>
<path d="M3536 4269 c-17 -1 -39 -3 -48 -6 -9 -2 -19 -17 -23 -33 -4 -17 -1
-37 7 -49 9 -14 23 -21 45 -21 22 0 40 8 57 26 14 16 22 34 19 43 -4 9 -10 22
-16 29 -5 6 -24 11 -41 11z"/>
</g>
<g>
<path d="M3794 4140 c-7 0 -20 -7 -28 -16 -9 -8 -16 -22 -16 -30 0 -8 8 -31
19 -52 10 -20 24 -55 31 -77 7 -22 16 -42 19 -45 3 -3 16 -23 28 -45 12 -22
29 -42 38 -43 10 -2 21 0 26 5 6 6 2 28 -11 58 -11 27 -22 60 -24 74 -1 15
-11 51 -21 81 -10 30 -24 63 -33 73 -8 9 -21 17 -28 17z"/>
</g>
<g>
<path d="M3672 4050 c-20 0 -55 -10 -77 -21 -22 -12 -43 -27 -47 -33 -4 -6 -7
-24 -5 -41 1 -16 11 -49 22 -72 17 -38 23 -43 52 -43 22 0 36 6 43 19 5 11 10
29 10 40 0 12 2 21 4 21 3 0 16 -4 30 -9 17 -7 27 -6 34 2 5 7 13 23 17 35 5
18 2 27 -13 38 -11 7 -23 25 -26 39 -5 21 -12 25 -44 25z"/>
</g>
<g>
<path d="M3723 3390 c-11 0 -32 -13 -47 -29 l-28 -30 25 -25 c20 -20 36 -26
70 -26 23 0 48 5 55 12 7 7 12 20 12 29 0 9 -15 28 -34 43 -19 14 -43 26 -53
26z"/>
</g>
</g>
</g>
</svg>
