<?xml version="1.0" standalone="no"?>
<!DOCTYPE svg PUBLIC "-//W3C//DTD SVG 20010904//EN"
 "http://www.w3.org/TR/2001/REC-SVG-20010904/DTD/svg10.dtd">
<svg version="1.0" xmlns="http://www.w3.org/2000/svg"
 width="1604.000000pt" height="1500.000000pt" viewBox="0 0 1604.000000 1500.000000"
 preserveAspectRatio="xMidYMid meet">
<metadata>
Created by potrace 1.16, written by Peter Selinger 2001-2019
</metadata>
<g transform="translate(0.000000,1500.000000) scale(0.100000,-0.100000)"
fill="#000000" stroke="none">
<g>
<path d="M8652 13843 l-28 27 -44 -23 c-39 -19 -46 -27 -51 -62 -5 -31 -3 -44
10 -56 9 -9 29 -19 44 -23 15 -3 46 -2 67 4 22 6 40 15 40 20 0 5 -5 12 -11
16 -6 3 -8 20 -5 38 5 26 1 37 -22 59z"/>
</g>
<g>
<path d="M6143 12987 c-11 12 -28 18 -43 16 -14 -2 -43 -19 -64 -37 -33 -27
-38 -37 -33 -58 6 -23 13 -26 64 -31 50 -4 61 -2 76 15 9 11 17 33 17 48 0 15
-8 36 -17 47z"/>
</g>
<g>
<path d="M13354 12040 c-12 0 -26 -4 -29 -10 -3 -5 -15 -10 -25 -10 -11 0 -24
-9 -30 -20 -6 -12 -8 -40 -4 -71 l7 -51 56 7 c34 4 61 13 69 23 9 12 11 31 7
62 -4 25 -12 51 -17 58 -6 6 -21 12 -34 12z"/>
</g>
<g>
<path d="M7258 12030 c-8 0 -26 -13 -41 -28 -15 -15 -27 -37 -27 -48 0 -12 9
-29 19 -39 12 -10 37 -18 60 -18 22 -1 42 1 45 4 2 2 6 23 9 46 2 23 1 46 -2
51 -3 5 -16 14 -28 21 -12 6 -28 11 -35 11z"/>
</g>
<g>
<path d="M2865 12010 c-11 0 -35 -13 -53 -29 -24 -23 -32 -38 -32 -65 0 -19 5
-38 12 -42 7 -4 33 -9 59 -10 35 -2 52 2 64 16 9 10 17 32 17 49 1 20 -7 40
-22 56 -13 14 -33 25 -45 25z"/>
</g>
<g>
<path d="M8252 11600 c-17 11 -38 14 -58 10 -17 -4 -36 -10 -42 -14 -7 -4 -12
-18 -12 -31 0 -13 -4 -27 -10 -30 -5 -3 -10 -10 -10 -14 0 -4 16 -15 35 -24
20 -9 45 -17 55 -17 12 0 28 13 40 32 10 17 17 35 14 40 -3 4 0 8 5 8 6 0 11
6 11 13 0 6 -12 19 -28 27z"/>
</g>
<g>
<path d="M8892 11587 c-17 20 -32 29 -42 25 -8 -4 -27 -15 -42 -25 -14 -10
-29 -25 -32 -33 -3 -8 -1 -25 5 -38 6 -13 22 -29 36 -35 13 -6 33 -11 43 -11
11 0 28 10 40 22 11 12 20 31 20 42 0 12 -13 35 -28 53z"/>
</g>
<g>
<path d="M7408 11245 c-7 3 -20 -3 -28 -12 -8 -10 -20 -30 -27 -45 -10 -23 -9
-30 5 -47 9 -11 33 -27 53 -35 29 -12 40 -13 51 -3 9 7 18 33 22 60 3 28 2 47
-4 47 -6 0 -10 7 -10 15 0 9 -9 15 -24 15 -13 0 -30 2 -38 5z"/>
</g>
<g>
<path d="M5244 11170 c-2 0 -4 -4 -4 -10 0 -5 -12 -13 -27 -16 -15 -4 -33 -13
-40 -20 -7 -7 -18 -14 -25 -17 -10 -4 -11 -7 0 -18 6 -7 12 -20 12 -29 0 -9 8
-24 18 -34 11 -9 36 -17 57 -19 35 -2 39 1 61 42 l24 45 -20 21 c-11 12 -20
26 -20 32 0 6 -7 14 -16 17 -9 3 -18 6 -20 6z"/>
</g>
<g>
<path d="M7901 11089 c-3 0 -11 -3 -18 -5 -6 -3 -23 -21 -38 -40 l-26 -34 28
-35 c26 -32 33 -35 80 -35 49 0 52 1 58 30 4 17 4 44 0 60 -5 22 -16 34 -42
45 -20 8 -38 15 -42 14z"/>
</g>
<g>
<path d="M9352 10985 c-37 6 -41 5 -36 -10 5 -11 0 -18 -15 -22 -11 -3 -21
-11 -21 -18 0 -7 9 -15 20 -18 12 -3 20 -14 20 -25 0 -12 8 -23 18 -26 9 -3
37 -6 62 -8 l45 -3 2 46 c2 40 -1 47 -25 61 -15 9 -46 19 -70 23z"/>
</g>
<g>
<path d="M8383 10949 c-25 26 -31 28 -53 18 -14 -7 -40 -22 -58 -35 -18 -13
-30 -27 -27 -32 3 -5 1 -11 -5 -15 -5 -3 -10 -11 -10 -17 0 -5 7 -7 16 -4 9 4
24 0 33 -7 9 -8 33 -17 55 -20 21 -3 51 -4 67 0 24 4 27 8 19 24 -6 10 -10 27
-10 38 0 11 -12 34 -27 50z"/>
</g>
<g>
<path d="M6477 10889 c-18 -1 -40 -3 -50 -6 -9 -2 -24 -18 -33 -35 -13 -26
-14 -35 -3 -54 10 -19 20 -24 48 -23 20 0 45 4 55 8 11 4 21 18 22 32 2 13 0
36 -2 52 -5 23 -10 27 -37 26z"/>
</g>
<g>
<path d="M6996 10718 c-27 0 -41 -6 -56 -25 -11 -14 -20 -36 -20 -49 0 -16 10
-28 31 -39 17 -9 48 -15 72 -13 24 2 42 8 42 15 0 6 3 15 8 19 4 4 7 15 7 24
0 9 -11 29 -24 43 -17 18 -33 25 -60 25z"/>
</g>
<g>
<path d="M10813 10700 c-12 0 -36 -14 -53 -32 -23 -23 -30 -37 -25 -52 4 -12
7 -29 6 -39 0 -16 6 -18 50 -13 27 3 58 10 68 16 11 5 23 19 26 30 4 11 4 33
0 49 -4 18 -14 31 -28 35 -12 3 -32 6 -44 6z"/>
</g>
<g>
<path d="M8503 10570 c-13 0 -32 -9 -43 -20 -11 -11 -20 -26 -20 -33 0 -8 10
-23 23 -35 13 -12 36 -22 53 -22 16 0 40 7 52 16 12 8 22 19 22 23 0 5 -14 23
-32 40 -17 17 -42 31 -55 31z"/>
</g>
<g>
<path d="M7666 10484 l-28 7 7 -48 c4 -26 11 -56 17 -66 8 -15 17 -18 46 -12
21 4 43 11 50 17 6 6 12 18 12 28 0 9 -9 29 -20 43 -11 14 -28 25 -38 25 -9
-1 -30 2 -46 6z"/>
</g>
<g>
<path d="M8320 10490 c-5 0 -12 -5 -16 -11 -3 -6 -17 -9 -30 -6 -18 3 -30 -3
-44 -23 -11 -16 -20 -35 -20 -43 0 -9 5 -19 10 -22 6 -3 10 -15 10 -27 0 -15
4 -18 18 -13 9 4 31 11 48 15 18 4 37 10 43 14 6 4 11 18 11 31 0 13 -8 31
-17 41 -13 13 -14 19 -5 22 7 2 10 8 6 13 -3 5 -9 9 -14 9z"/>
</g>
<g>
<path d="M7483 10450 c-10 0 -37 -9 -60 -20 -36 -16 -43 -24 -43 -47 0 -16 7
-39 16 -51 12 -18 24 -22 62 -21 26 1 57 4 69 7 l22 7 -19 45 c-10 25 -21 53
-24 63 -3 9 -13 17 -23 17z"/>
</g>
<g>
<path d="M8987 10400 c-18 -1 -44 -11 -59 -23 -16 -13 -28 -32 -28 -43 0 -11
12 -27 29 -37 16 -9 40 -17 53 -17 12 0 32 3 43 6 15 4 20 13 20 37 -1 18 -6
42 -13 55 -9 16 -22 22 -45 22z"/>
</g>
<g>
<path d="M7634 10309 c-11 0 -14 -3 -6 -6 7 -3 16 -2 19 1 4 3 -2 6 -13 5z"/>
</g>
<g>
<path d="M6408 10288 c-15 6 -30 7 -33 3 -3 -5 -13 -7 -24 -4 -15 4 -20 -2
-24 -34 -3 -23 1 -47 9 -60 8 -13 26 -30 39 -39 25 -16 26 -16 50 12 13 16 27
41 31 57 4 19 1 33 -7 41 -8 7 -26 17 -41 24z"/>
</g>
<g>
<path d="M9865 10283 c-5 2 -19 1 -30 -2 -11 -3 -35 -17 -52 -30 -18 -14 -33
-33 -33 -44 0 -10 8 -32 17 -48 10 -16 24 -29 33 -29 8 0 31 3 51 6 27 5 40
14 53 38 17 32 17 34 -6 69 -13 20 -27 38 -33 40z"/>
</g>
<g>
<path d="M7185 10254 c-32 25 -33 25 -66 7 -19 -10 -35 -27 -37 -40 -2 -12 2
-37 8 -56 11 -33 14 -35 55 -35 35 0 47 4 56 22 6 12 13 34 14 50 2 21 -5 33
-30 52z"/>
</g>
<g>
<path d="M7956 10269 c-6 -1 -20 -4 -30 -6 -11 -3 -26 -11 -33 -18 -7 -8 -13
-22 -13 -32 0 -10 8 -35 18 -54 l18 -36 52 17 c29 10 55 20 58 23 3 3 3 19 -1
36 -4 17 -18 40 -32 51 -14 11 -31 19 -37 19z"/>
</g>
<g>
<path d="M7470 10197 c-8 2 -34 -6 -56 -16 -23 -10 -44 -25 -46 -32 -3 -8 1
-27 10 -44 8 -16 16 -32 18 -34 2 -2 21 -6 43 -8 31 -4 41 -1 49 14 5 10 6 40
3 68 -4 33 -11 51 -21 52z"/>
</g>
<g>
<path d="M7661 10200 c-37 0 -52 -5 -68 -22 -11 -13 -23 -28 -27 -35 -4 -7 0
-23 9 -36 10 -17 29 -27 56 -31 32 -5 39 -10 35 -24 -3 -11 4 -24 21 -36 14
-10 38 -19 52 -20 14 0 42 3 62 7 31 6 37 5 42 -12 3 -11 17 -22 35 -26 17 -3
39 -2 50 4 11 6 22 25 25 47 5 30 2 41 -15 56 -16 14 -30 17 -52 12 -17 -3
-37 -11 -45 -17 -7 -6 -17 -20 -21 -32 -7 -15 -9 -10 -9 23 -1 26 -6 42 -13
43 -7 1 -21 0 -31 0 -9 -1 -24 5 -33 13 -8 9 -14 26 -13 39 2 12 0 28 -4 35
-5 7 -29 12 -56 12z"/>
</g>
<g>
<path d="M8178 10170 c-11 0 -33 -13 -49 -29 -16 -16 -29 -33 -29 -38 0 -5 6
-16 13 -25 6 -9 21 -18 32 -19 11 -1 32 1 47 5 15 5 30 17 33 27 4 11 1 26 -5
34 -7 8 -9 15 -5 15 4 0 2 7 -5 15 -7 8 -21 15 -32 15z"/>
</g>
<g>
<path d="M7310 10078 l-48 4 -8 -48 c-4 -27 -7 -52 -6 -55 1 -4 -12 -12 -28
-19 -17 -7 -30 -18 -30 -24 0 -6 9 -26 20 -44 19 -30 24 -33 62 -30 35 3 44 8
60 36 10 18 16 37 13 41 -2 5 7 13 20 19 20 9 25 19 25 47 0 20 -7 44 -16 52
-9 9 -37 18 -64 21z"/>
</g>
<g>
<path d="M8575 10019 c-5 -1 -18 -3 -27 -6 -13 -3 -18 -14 -18 -37 0 -18 6
-39 13 -48 6 -9 30 -18 52 -20 35 -4 43 -1 63 23 19 23 21 31 11 52 -8 17 -22
27 -48 31 -20 3 -40 5 -46 5z"/>
</g>
<g>
<path d="M7628 10009 c-2 0 -13 -4 -24 -9 -12 -5 -29 -19 -38 -31 -14 -20 -14
-25 2 -51 12 -21 22 -28 36 -24 11 3 26 0 33 -6 9 -7 19 -6 36 5 19 12 22 22
19 51 -3 28 -11 40 -33 51 -15 8 -29 15 -31 14z"/>
</g>
<g>
<path d="M8254 9996 c-10 1 -36 -3 -56 -9 -21 -6 -38 -14 -38 -19 0 -5 -9 -4
-19 2 -11 5 -33 10 -50 10 -17 0 -44 -8 -60 -18 -28 -17 -29 -20 -17 -44 8
-15 12 -29 9 -31 -3 -3 4 -10 14 -15 11 -6 39 -8 62 -5 31 4 45 11 48 24 3 11
9 19 14 19 4 0 14 -9 23 -21 13 -19 17 -20 53 -8 21 7 43 19 50 27 9 10 8 22
-1 50 -8 24 -20 37 -32 38z"/>
</g>
<g>
<path d="M6949 9957 c-24 2 -39 -2 -39 -9 0 -6 -7 -19 -15 -28 -13 -15 -13
-20 1 -48 13 -27 21 -32 53 -32 24 0 44 7 54 18 10 10 17 30 17 44 0 14 -7 32
-16 39 -9 7 -34 15 -55 16z"/>
</g>
<g>
<path d="M7813 9920 c-13 0 -35 -12 -48 -26 -14 -15 -25 -34 -25 -43 1 -9 9
-25 18 -36 10 -11 28 -26 40 -32 12 -7 28 -13 35 -13 8 0 26 14 41 32 14 17
26 37 26 42 0 6 -3 20 -6 31 -3 11 -17 26 -32 33 -14 6 -37 12 -49 12z"/>
</g>
<g>
<path d="M7570 9882 c-8 2 -35 2 -59 0 -25 -2 -57 -12 -73 -23 -15 -11 -28
-27 -28 -34 0 -8 11 -26 25 -40 14 -14 36 -25 48 -25 12 0 29 -5 37 -10 8 -5
10 -10 4 -10 -7 0 -15 -8 -18 -17 -5 -11 1 -23 16 -35 13 -9 35 -20 51 -23 15
-4 27 -11 27 -16 0 -5 -6 -9 -13 -9 -8 0 -22 -8 -31 -19 -9 -10 -29 -21 -44
-25 -15 -3 -34 -12 -44 -19 -9 -7 -17 -19 -18 -27 -1 -8 1 -24 4 -35 4 -11 18
-25 31 -31 19 -9 33 -9 62 1 21 7 39 20 41 29 2 9 13 16 25 16 12 0 32 8 45
18 18 14 21 23 16 51 -5 25 -15 37 -36 45 -15 6 -28 13 -28 17 0 4 9 9 19 12
11 2 21 15 23 28 2 13 -2 37 -9 52 -8 15 -11 32 -7 38 3 6 0 23 -7 37 -8 15
-21 32 -29 39 -8 6 -22 13 -30 15z"/>
</g>
<g>
<path d="M8037 9820 c-37 0 -47 -5 -66 -31 l-22 -30 30 -31 c18 -19 36 -28 45
-25 9 4 16 3 16 -1 0 -5 -15 -19 -32 -32 -18 -13 -35 -24 -38 -25 -2 0 -5 16
-5 35 -1 19 -3 40 -3 46 -2 9 -13 9 -39 3 -21 -6 -45 -11 -53 -13 -8 -2 -32 8
-53 21 -21 13 -46 21 -55 18 -9 -3 -30 -16 -47 -30 -28 -23 -28 -25 -12 -43 9
-10 17 -24 17 -30 0 -6 10 -14 23 -18 12 -4 38 -8 57 -9 19 -1 45 -7 58 -14
18 -10 21 -15 12 -26 -6 -7 -8 -25 -4 -42 4 -15 13 -40 20 -55 8 -15 22 -29
33 -33 11 -3 36 1 55 9 34 14 36 18 36 60 0 25 -5 57 -10 72 -6 15 -8 29 -5
32 3 3 11 -2 18 -10 11 -14 17 -14 67 3 41 14 60 16 75 8 15 -7 32 -6 59 3 29
9 42 21 49 41 8 24 5 31 -25 57 -18 16 -40 30 -49 30 -9 0 -19 -6 -22 -14 -3
-8 -18 -23 -32 -32 -18 -12 -29 -14 -36 -7 -7 7 -7 17 1 30 10 15 9 25 -4 51
-15 28 -21 32 -59 32z"/>
</g>
<g>
<path d="M7355 9790 c-17 0 -42 -10 -57 -24 -16 -13 -28 -30 -28 -38 0 -8 11
-27 25 -42 13 -14 31 -26 39 -26 8 0 21 -3 29 -6 9 -3 25 6 40 21 21 23 23 32
16 62 -4 20 -14 40 -21 44 -7 5 -26 9 -43 9z"/>
</g>
<g>
<path d="M6239 9774 c-14 3 -41 -3 -66 -17 -23 -12 -43 -29 -43 -38 0 -9 20
-35 45 -58 35 -33 51 -41 68 -36 12 4 28 14 35 23 6 9 12 32 12 51 0 20 -6 44
-13 53 -7 9 -24 19 -38 22z"/>
</g>
<g>
<path d="M4986 9719 c0 -1 -18 -10 -38 -20 -29 -15 -38 -25 -38 -45 0 -13 11
-36 25 -49 16 -17 35 -25 57 -25 18 0 41 7 51 14 9 7 17 20 17 29 0 9 -5 19
-10 22 -8 5 -8 11 0 20 8 10 8 15 -2 22 -7 4 -24 14 -37 20 -13 7 -24 13 -25
12z"/>
</g>
<g>
<path d="M8805 9650 c-19 0 -41 -7 -49 -16 -9 -8 -16 -29 -16 -45 0 -16 5 -29
10 -29 6 0 10 -6 10 -14 0 -8 15 -16 37 -19 20 -4 40 -3 43 1 3 4 14 12 25 18
14 8 19 21 18 40 -1 16 -12 37 -24 47 -12 9 -36 17 -54 17z"/>
</g>
<g>
<path d="M6732 9630 c-15 -1 -42 -7 -59 -15 -18 -8 -33 -17 -33 -20 0 -3 9
-26 20 -49 12 -27 28 -46 41 -49 12 -3 41 -1 64 5 41 11 42 12 35 45 -5 18
-15 45 -24 58 -11 17 -25 25 -44 25z"/>
</g>
<g>
<path d="M8258 9610 c-7 0 -24 -6 -38 -13 -13 -7 -30 -23 -37 -37 -11 -22 -9
-28 15 -53 24 -26 32 -28 72 -23 24 4 51 12 58 20 11 11 11 19 -1 49 -9 19
-24 40 -35 46 -12 6 -27 11 -34 11z"/>
</g>
<g>
<path d="M10869 9610 c-21 0 -45 -7 -53 -16 -9 -8 -19 -27 -22 -40 -4 -17 0
-31 11 -44 12 -13 31 -20 55 -20 23 0 43 7 52 18 8 9 18 28 21 42 4 15 0 31
-10 42 -10 11 -30 18 -54 18z"/>
</g>
<g>
<path d="M7132 9560 c-10 0 -30 -13 -45 -28 -15 -15 -27 -32 -27 -38 1 -5 9
-18 18 -30 10 -12 33 -23 52 -26 19 -3 45 -2 58 3 14 5 22 17 22 32 0 13 5 28
11 34 8 8 1 17 -29 32 -23 12 -50 21 -60 21z"/>
</g>
<g>
<path d="M7768 9549 c-7 0 -30 -7 -50 -15 -21 -9 -41 -26 -45 -37 -4 -12 -6
-31 -4 -42 2 -11 8 -26 14 -33 7 -9 24 -11 56 -6 25 3 54 14 64 23 17 17 17
19 -2 64 -11 26 -26 47 -33 46z"/>
</g>
<g>
<path d="M7411 9487 l-46 2 -2 -37 c-1 -26 4 -44 20 -60 16 -17 31 -22 62 -21
22 2 50 -3 63 -10 12 -6 22 -16 22 -21 0 -6 19 -10 43 -10 23 0 50 7 60 14 9
7 17 22 17 32 0 10 -12 31 -25 47 -13 15 -31 27 -40 27 -9 0 -25 -5 -36 -11
-17 -8 -27 -5 -56 17 -25 19 -51 29 -82 31z"/>
</g>
<g>
<path d="M8122 9489 c-15 -1 -34 -3 -42 -6 -8 -2 -24 -16 -34 -30 l-19 -26 29
-24 c16 -12 40 -23 54 -23 14 0 36 7 48 16 12 8 22 23 22 32 0 10 -7 28 -16
40 -10 14 -25 22 -42 21z"/>
</g>
<g>
<path d="M9196 9479 c-6 -1 -21 -12 -33 -25 -15 -16 -23 -37 -23 -59 0 -24 6
-37 20 -45 11 -6 25 -8 31 -4 6 4 15 1 19 -6 6 -10 15 -6 34 15 15 16 26 40
26 56 0 16 1 32 3 37 1 4 -9 9 -23 10 -14 2 -29 8 -34 13 -6 5 -15 9 -20 8z"/>
</g>
<g>
<path d="M9655 9450 c-12 0 -34 -12 -49 -26 -14 -15 -26 -37 -26 -49 0 -12 6
-27 13 -32 6 -6 24 -13 39 -17 18 -4 38 0 60 13 27 15 32 23 30 47 -1 16 -12
37 -24 47 -11 9 -30 17 -43 17z"/>
</g>
<g>
<path d="M8528 9430 c-13 0 -32 -6 -43 -12 -11 -6 -32 -22 -47 -36 -16 -14
-28 -31 -28 -37 0 -6 10 -11 21 -12 12 -1 29 -9 38 -17 10 -9 29 -16 42 -16
14 0 37 6 52 13 17 7 27 20 27 34 0 12 5 25 10 28 6 3 10 10 10 16 0 5 -11 9
-24 9 -13 0 -26 7 -30 15 -3 8 -16 15 -28 15z"/>
</g>
<g>
<path d="M7883 9382 c-25 14 -33 14 -67 3 -22 -8 -52 -11 -67 -8 -21 4 -34 -1
-52 -19 -18 -18 -23 -32 -19 -59 l4 -36 46 8 c26 5 73 10 104 11 31 2 58 5 61
8 2 3 7 21 11 40 5 31 3 38 -21 52z"/>
</g>
<g>
<path d="M7291 9337 c-12 7 -27 5 -59 -11 -39 -19 -43 -23 -40 -55 2 -20 11
-39 23 -46 16 -10 28 -11 55 -2 33 11 35 15 36 58 1 33 -3 48 -15 56z"/>
</g>
<g>
<path d="M8012 9350 c-15 -1 -36 -6 -47 -13 -11 -7 -21 -19 -21 -27 -1 -8 -5
-22 -9 -32 -5 -12 4 -23 30 -41 34 -23 35 -26 16 -32 -12 -3 -24 -17 -27 -30
-3 -13 -3 -32 0 -43 4 -10 18 -24 32 -31 14 -6 36 -8 50 -5 13 4 29 14 34 24
6 10 10 32 10 49 0 20 -7 34 -21 41 -20 11 -20 12 5 31 15 11 26 27 26 34 0 7
-12 27 -26 44 -17 21 -35 31 -52 31z"/>
</g>
<g>
<path d="M7505 9320 c-5 0 -14 -4 -20 -8 -5 -4 -18 -22 -27 -40 -16 -30 -16
-35 -2 -57 8 -12 24 -25 35 -28 11 -3 35 -1 53 4 28 8 34 14 34 37 0 15 -5 33
-10 40 -6 6 -7 12 -2 12 5 0 -4 9 -21 20 -16 11 -34 20 -40 20z"/>
</g>
<g>
<path d="M4070 9270 c-10 0 -28 -8 -41 -18 -13 -10 -32 -21 -41 -25 -12 -4
-18 -17 -18 -35 0 -17 10 -38 24 -51 19 -18 31 -22 53 -16 15 3 34 12 41 18 8
6 19 23 25 37 5 14 9 32 8 40 -2 8 -10 23 -18 33 -9 9 -24 17 -33 17z"/>
</g>
<g>
<path d="M6515 9240 c-12 0 -29 -8 -38 -18 -10 -10 -17 -30 -17 -44 0 -14 6
-30 13 -36 6 -6 24 -13 39 -17 16 -4 40 -2 56 6 25 11 29 18 29 55 0 39 -3 43
-30 48 -16 3 -39 6 -52 6z"/>
</g>
<g>
<path d="M8253 9210 c-26 0 -37 -7 -58 -37 -14 -21 -25 -41 -25 -45 0 -5 7 -8
15 -8 9 0 15 -9 15 -21 0 -20 4 -21 48 -17 27 3 61 13 75 24 15 10 27 23 27
27 0 5 -14 24 -32 43 -24 25 -41 34 -65 34z"/>
</g>
<g>
<path d="M7035 9189 c-5 0 -24 -6 -42 -14 -17 -7 -36 -22 -42 -33 -8 -15 -6
-24 13 -41 14 -14 35 -21 59 -21 21 0 50 8 65 17 15 9 29 18 31 20 2 2 -13 19
-35 38 -21 19 -43 34 -49 34z"/>
</g>
<g>
<path d="M7713 9190 c-13 0 -32 -13 -48 -35 -25 -31 -25 -36 -12 -55 8 -12 25
-29 36 -37 19 -13 25 -13 54 4 26 16 32 26 34 56 1 28 -4 41 -20 52 -12 8 -31
15 -44 15z"/>
</g>
<g>
<path d="M8865 9099 c-11 0 -29 -4 -40 -9 -12 -4 -27 -15 -34 -24 -7 -9 -20
-16 -27 -16 -8 0 -14 -4 -14 -9 0 -6 5 -13 10 -16 6 -4 8 -11 4 -16 -3 -6 4
-18 17 -27 13 -9 30 -20 39 -23 8 -3 29 0 47 8 18 7 33 10 33 6 0 -4 6 2 14
12 9 13 12 32 8 55 -3 19 -12 40 -21 47 -9 7 -25 12 -36 12z"/>
</g>
<g>
<path d="M7879 9017 c-19 1 -46 -4 -60 -10 -22 -10 -25 -18 -23 -54 1 -23 5
-46 9 -52 3 -6 22 -9 42 -6 19 2 44 7 54 10 10 4 23 21 28 38 6 22 5 38 -4 52
-8 13 -25 21 -46 22z"/>
</g>
<g>
<path d="M7261 8999 c-9 -1 -33 -11 -53 -23 -22 -12 -38 -29 -38 -39 0 -10 6
-20 14 -23 8 -3 13 -11 10 -19 -3 -7 2 -15 11 -18 8 -4 35 -4 58 -1 24 4 51
12 60 19 13 9 16 20 11 39 -3 15 -18 35 -31 46 -14 11 -33 20 -42 19z"/>
</g>
<g>
<path d="M8106 8945 c-32 6 -37 4 -55 -26 -12 -19 -21 -38 -21 -44 1 -5 7 -18
14 -27 7 -10 27 -21 44 -24 22 -5 38 0 61 17 17 13 31 32 31 44 0 11 -9 28
-19 37 -11 9 -36 20 -55 23z"/>
</g>
<g>
<path d="M8343 8887 c-23 -1 -40 -3 -38 -6 3 -2 -3 -17 -13 -33 -12 -21 -14
-33 -6 -46 6 -9 23 -24 38 -32 24 -14 29 -13 64 5 29 16 36 25 34 45 -2 13
-11 34 -20 46 -14 18 -26 23 -59 21z"/>
</g>
<g>
<path d="M9165 8850 c-19 0 -39 -8 -50 -20 -10 -11 -26 -22 -36 -25 -10 -3
-21 -15 -25 -27 -3 -12 0 -26 7 -34 8 -7 39 -16 69 -20 47 -5 58 -3 75 15 11
11 26 27 34 36 11 14 9 20 -15 46 -19 20 -37 29 -59 29z"/>
</g>
<g>
<path d="M10040 8840 c-12 0 -37 -15 -56 -34 -19 -19 -34 -38 -34 -42 0 -5 12
-21 25 -37 20 -23 30 -27 60 -23 20 3 47 12 61 21 13 8 24 22 24 30 0 7 -4 17
-10 20 -5 3 -10 15 -10 25 0 11 -9 24 -19 30 -11 5 -29 10 -41 10z"/>
</g>
<g>
<path d="M5803 8829 c-10 -1 -31 -4 -48 -8 -16 -3 -28 -10 -25 -14 3 -4 -2
-12 -10 -17 -12 -8 -12 -13 3 -44 9 -20 22 -36 29 -36 7 0 26 -7 42 -15 16 -9
33 -12 36 -8 4 4 12 23 19 42 6 19 11 44 11 57 0 13 -9 28 -19 34 -11 5 -28 9
-38 9z"/>
</g>
<g>
<path d="M7838 8750 c-24 0 -51 -5 -60 -11 -10 -5 -18 -21 -18 -34 0 -13 -4
-27 -10 -30 -5 -3 -10 -14 -10 -24 0 -14 10 -20 44 -24 23 -4 59 -4 80 0 34 5
36 8 36 44 0 22 -4 39 -10 39 -5 0 -9 3 -9 8 1 4 1 13 0 20 -1 7 -17 12 -43
12z"/>
</g>
<g>
<path d="M8787 8660 c-12 -1 -35 -8 -52 -17 -16 -9 -33 -21 -37 -27 -4 -6 -8
-18 -8 -26 1 -8 7 -23 14 -33 8 -10 29 -20 47 -22 19 -2 44 3 60 12 16 9 30
24 32 32 1 9 -6 31 -16 49 -12 21 -27 32 -40 32z"/>
</g>
<g>
<path d="M7231 8580 c-11 0 -36 -16 -55 -36 -34 -35 -34 -37 -19 -60 13 -20
23 -24 69 -24 42 0 55 4 64 19 5 11 7 33 4 51 -4 17 -15 35 -25 40 -10 6 -27
10 -38 10z"/>
</g>
<g>
<path d="M11858 8525 c-13 5 -18 2 -18 -8 0 -9 -10 -23 -22 -31 -15 -10 -22
-26 -22 -48 -1 -20 6 -40 18 -50 10 -10 26 -18 36 -18 9 0 21 -5 28 -12 9 -9
18 -6 38 13 14 13 30 33 34 44 4 12 1 33 -8 52 -8 18 -27 36 -41 42 -14 5 -34
12 -43 16z"/>
</g>
<g>
<path d="M8257 8466 c-8 3 -18 1 -22 -5 -3 -6 -3 -16 1 -23 4 -6 -1 -17 -10
-24 -13 -9 -16 -19 -10 -36 4 -13 7 -29 6 -35 -2 -9 13 -13 51 -13 29 0 58 5
65 12 7 7 12 25 12 40 0 18 -10 38 -26 53 -15 14 -33 25 -40 25 -7 0 -19 3
-27 6z"/>
</g>
<g>
<path d="M7000 8460 c-10 0 -32 -12 -49 -26 -21 -17 -31 -35 -31 -54 0 -15 6
-32 13 -37 6 -6 33 -13 59 -15 37 -4 48 -2 54 11 3 9 7 27 9 41 1 14 -7 37
-17 53 -11 15 -28 27 -38 27z"/>
</g>
<g>
<path d="M7648 8267 c-30 4 -47 1 -55 -8 -5 -8 -16 -25 -23 -37 -10 -21 -9
-27 11 -48 13 -14 34 -24 50 -24 16 0 40 5 54 12 19 8 25 19 25 42 0 17 -4 37
-9 45 -5 7 -28 15 -53 18z"/>
</g>
<g>
<path d="M9584 7985 c-17 1 -38 -8 -51 -22 -14 -13 -23 -34 -23 -51 0 -17 8
-39 18 -51 13 -17 24 -20 49 -15 24 5 37 16 51 43 18 34 18 38 2 66 -12 22
-24 30 -46 30z"/>
</g>
<g>
<path d="M6231 7830 c-14 -1 -38 -11 -53 -23 -18 -15 -28 -32 -28 -49 0 -16 9
-33 21 -42 14 -10 33 -13 53 -9 17 3 41 17 54 30 12 13 22 30 22 38 0 8 -10
23 -22 35 -12 11 -33 20 -47 20z"/>
</g>
<g>
<path d="M8662 7630 c-10 0 -36 -15 -58 -34 l-39 -34 23 -24 c12 -13 22 -30
22 -36 0 -7 10 -12 23 -12 12 0 37 9 55 20 27 17 32 25 32 60 0 29 -5 42 -19
50 -11 5 -28 10 -39 10z"/>
</g>
<g>
<path d="M6904 7520 c-6 0 -26 -13 -43 -29 -19 -18 -31 -39 -31 -55 0 -18 8
-30 31 -41 16 -9 45 -15 62 -13 27 2 34 9 44 38 10 33 9 37 -20 68 -17 17 -36
32 -43 32z"/>
</g>
<g>
<path d="M8200 7409 c-8 0 -30 -10 -47 -21 -18 -11 -33 -28 -33 -38 0 -11 5
-31 12 -45 7 -16 19 -25 34 -25 13 0 26 5 30 11 3 6 17 9 31 6 16 -3 27 1 30
10 4 9 0 32 -7 52 -7 20 -18 39 -24 43 -6 4 -18 7 -26 7z"/>
</g>
<g>
<path d="M8358 6980 c-4 0 -8 -6 -8 -14 0 -8 4 -17 9 -20 5 -3 11 0 14 8 3 8
3 17 0 20 -4 3 -10 6 -15 6z"/>
</g>
<g>
<path d="M7499 6929 c-2 -1 -16 -4 -31 -6 -14 -2 -32 -11 -40 -20 -7 -9 -14
-38 -15 -65 -1 -34 4 -56 15 -69 9 -10 27 -19 40 -19 13 0 37 7 55 16 18 9 35
22 39 27 4 6 2 19 -3 28 -5 10 -9 28 -9 42 0 13 -10 33 -23 45 -13 12 -25 21
-28 21z"/>
</g>
<g>
<path d="M12530 6596 c-210 3 -231 2 -315 -20 -49 -13 -96 -21 -104 -18 -7 3
-16 1 -20 -4 -3 -5 -27 -19 -52 -32 -25 -12 -51 -22 -57 -22 -6 0 -48 -17 -94
-38 -46 -22 -118 -51 -160 -65 -43 -14 -88 -36 -100 -47 -13 -12 -52 -43 -88
-71 -36 -27 -85 -66 -109 -87 -23 -20 -57 -51 -75 -68 -17 -16 -52 -62 -78
-101 -27 -39 -48 -80 -48 -92 0 -11 -11 -31 -25 -45 -14 -14 -25 -34 -25 -45
0 -11 -4 -23 -10 -26 -5 -3 -10 -17 -10 -29 0 -13 -7 -40 -15 -59 -8 -20 -15
-53 -15 -72 0 -20 -5 -45 -11 -56 -5 -11 -12 -63 -14 -116 -3 -53 -8 -112 -11
-130 -4 -19 -1 -62 6 -96 7 -34 15 -75 16 -92 2 -16 6 -48 9 -70 4 -22 13 -50
21 -62 8 -12 14 -31 14 -41 0 -11 27 -76 60 -145 32 -70 68 -135 80 -147 11
-11 20 -26 20 -34 0 -7 7 -19 16 -27 8 -7 21 -25 27 -41 7 -15 32 -53 57 -84
25 -31 86 -98 135 -149 57 -59 114 -105 155 -128 36 -21 76 -45 89 -56 l24
-19 -42 -27 c-24 -15 -63 -35 -88 -46 -25 -10 -50 -19 -57 -19 -7 0 -23 -11
-36 -25 -13 -14 -31 -25 -40 -25 -8 0 -42 -13 -73 -30 -32 -17 -62 -30 -67
-30 -4 0 -41 -22 -82 -49 -40 -27 -111 -70 -158 -96 -47 -26 -101 -53 -120
-61 -19 -9 -55 -19 -80 -24 -38 -7 -52 -5 -95 16 -28 13 -65 37 -82 52 -18 15
-52 39 -76 55 -25 15 -49 27 -55 27 -5 0 -12 6 -15 14 -3 7 -56 38 -119 69
-62 30 -148 71 -190 91 -42 20 -82 36 -88 36 -6 0 -26 15 -45 33 -18 17 -62
47 -97 65 -34 17 -73 32 -85 32 -12 0 -24 4 -28 9 -3 5 -31 17 -63 26 -31 10
-64 18 -72 20 -8 2 -89 17 -180 34 -91 17 -185 36 -210 41 -25 4 -63 14 -85
20 -22 6 -56 15 -75 21 -19 5 -68 16 -108 24 -39 9 -78 15 -85 14 -6 -2 -39 3
-72 9 -33 7 -80 17 -105 22 -25 6 -67 12 -95 15 -27 2 -79 9 -115 14 -36 6
-126 17 -200 26 -74 9 -151 20 -170 25 -19 6 -47 10 -63 10 -15 0 -35 4 -45 9
-9 5 -55 18 -102 30 -47 11 -152 27 -235 36 -82 9 -166 21 -185 26 -19 6 -51
8 -70 6 -35 -4 -35 -5 -36 -56 -1 -47 3 -56 35 -91 20 -21 48 -51 62 -66 14
-16 49 -46 79 -66 29 -21 58 -38 64 -38 6 0 31 -19 56 -41 25 -23 68 -56 95
-74 28 -18 59 -42 69 -54 11 -11 23 -21 27 -21 5 0 47 -28 94 -62 47 -35 102
-75 121 -89 20 -14 41 -33 46 -43 5 -9 18 -20 28 -24 10 -4 68 -49 129 -101
61 -52 110 -96 108 -98 -2 -1 -57 -12 -123 -23 -65 -11 -144 -26 -174 -35 -30
-8 -116 -24 -190 -35 -74 -12 -153 -26 -175 -33 -22 -6 -51 -12 -65 -14 -14
-1 -40 -3 -58 -3 -19 0 -43 -6 -55 -14 -12 -7 -58 -19 -102 -25 -44 -7 -88
-18 -99 -23 -10 -5 -43 -14 -75 -19 -31 -5 -76 -13 -101 -19 -25 -6 -74 -15
-109 -20 -36 -6 -69 -14 -75 -19 -6 -4 -36 -13 -66 -20 -30 -7 -86 -18 -125
-25 -38 -8 -83 -19 -100 -27 -16 -7 -43 -14 -59 -16 -15 -1 -72 -12 -125 -23
-53 -11 -134 -29 -181 -40 -47 -11 -112 -25 -144 -30 -32 -6 -67 -15 -77 -20
-10 -6 -29 -10 -42 -10 -14 0 -47 -7 -73 -15 -27 -8 -80 -22 -119 -30 -38 -9
-96 -25 -128 -36 -32 -10 -86 -23 -120 -29 -34 -6 -98 -20 -142 -30 -44 -10
-101 -21 -127 -25 -26 -3 -53 -8 -60 -10 -7 -3 -62 -14 -123 -25 -60 -10 -150
-29 -200 -40 -49 -12 -119 -25 -155 -30 -36 -4 -112 -20 -170 -34 -58 -13
-145 -32 -195 -42 -49 -9 -130 -22 -180 -29 -49 -6 -119 -19 -155 -27 -36 -9
-96 -21 -135 -28 -38 -6 -83 -18 -100 -25 -16 -7 -61 -18 -100 -25 -38 -6 -94
-16 -124 -21 -30 -5 -66 -11 -80 -13 -14 -2 -62 -11 -106 -20 -44 -8 -129 -24
-190 -36 -60 -11 -128 -22 -150 -25 -22 -3 -65 -8 -95 -11 -30 -3 -60 -10 -66
-15 -6 -5 -31 -13 -55 -18 -24 -5 -91 -18 -149 -31 -58 -12 -113 -23 -122 -25
-9 -2 -26 -8 -37 -14 -11 -6 -30 -11 -43 -11 -13 0 -50 -11 -83 -24 -33 -14
-102 -34 -153 -46 -51 -12 -105 -24 -119 -26 -14 -3 -37 -11 -52 -18 -14 -7
-55 -20 -91 -30 -36 -9 -88 -24 -116 -32 -28 -8 -61 -14 -73 -14 -12 0 -41 -9
-63 -20 -23 -11 -51 -20 -63 -20 -11 0 -46 -7 -77 -15 -31 -8 -69 -17 -85 -20
-15 -3 -74 -13 -131 -20 -57 -8 -107 -17 -111 -19 -4 -3 -39 -12 -77 -20 -38
-9 -107 -25 -154 -35 -47 -11 -87 -17 -89 -15 -2 2 -5 45 -7 96 -2 51 -4 163
-5 248 -2 85 -6 162 -11 172 -4 9 -10 53 -13 99 -3 47 0 87 5 94 7 8 4 18 -10
30 -10 9 -38 20 -62 22 -36 4 -47 1 -66 -20 -14 -14 -24 -38 -24 -57 -1 -17 4
-35 10 -39 6 -3 15 -36 19 -71 4 -36 7 -87 6 -115 -1 -27 -4 -78 -7 -112 -3
-35 -1 -65 5 -68 5 -4 9 -76 10 -163 1 -86 0 -173 0 -192 -1 -27 5 -40 31 -62
18 -15 41 -28 50 -28 10 0 34 7 55 16 21 9 56 25 78 35 22 10 56 20 75 22 19
3 46 8 60 11 14 4 50 11 80 17 30 6 69 12 85 15 17 2 41 6 55 9 14 2 68 13
120 25 52 11 115 23 140 26 25 3 49 10 54 15 6 5 22 9 36 9 14 0 30 4 36 9 5
4 32 14 59 21 28 6 65 14 83 16 18 2 72 17 120 33 48 16 125 39 172 51 47 13
92 22 100 23 8 0 20 3 25 7 6 4 35 13 65 20 30 7 66 18 80 25 14 7 75 25 135
39 61 14 151 33 200 42 50 9 95 19 100 23 6 4 42 13 80 19 39 7 93 14 120 17
28 3 70 10 95 14 25 5 86 18 135 29 50 10 142 27 205 36 63 9 129 21 145 26
17 4 62 14 100 20 39 7 79 16 90 21 11 5 40 15 65 24 25 8 62 15 82 15 20 0
49 5 65 11 15 6 57 15 93 21 36 5 79 11 95 13 17 2 53 8 80 14 28 6 115 24
195 41 80 18 172 38 205 46 33 8 103 21 155 29 52 8 115 17 140 21 25 4 50 10
55 14 6 4 44 11 85 15 41 4 87 13 101 21 15 7 29 11 32 8 3 -3 19 2 36 11 17
8 31 13 31 9 0 -4 6 -1 14 5 7 6 26 8 43 5 18 -3 41 0 54 7 13 7 49 16 79 20
30 4 96 17 145 29 50 12 104 28 120 35 17 7 64 18 105 25 41 6 86 16 100 20
14 5 50 14 80 20 30 7 64 16 75 20 11 5 35 13 54 19 19 6 47 11 62 11 16 0 46
6 66 14 21 7 62 18 92 23 52 10 54 9 86 -22 17 -18 42 -36 55 -40 13 -4 55
-33 94 -64 39 -32 87 -67 107 -79 19 -12 44 -31 55 -43 10 -12 39 -32 64 -45
25 -14 62 -34 82 -47 21 -12 47 -30 58 -40 11 -9 23 -17 27 -17 3 0 21 -11 39
-25 18 -14 35 -25 38 -25 3 0 34 -18 68 -40 35 -22 68 -40 73 -40 6 0 25 -14
44 -30 18 -17 39 -30 45 -30 6 0 25 -13 42 -29 17 -16 48 -38 70 -49 21 -11
107 -74 189 -141 83 -67 164 -128 180 -136 17 -9 50 -31 75 -50 25 -19 56 -40
70 -47 14 -6 57 -32 97 -57 39 -25 72 -49 72 -52 1 -3 -16 -11 -36 -17 -21 -6
-74 -20 -118 -32 -44 -11 -114 -30 -155 -42 -41 -11 -86 -26 -100 -31 -14 -6
-34 -11 -45 -12 -11 -1 -33 -5 -50 -9 -16 -4 -50 -15 -75 -24 -25 -8 -49 -19
-55 -23 -5 -4 -32 -10 -60 -14 -27 -4 -54 -11 -60 -15 -5 -4 -23 -10 -40 -13
-16 -3 -50 -10 -75 -16 -25 -6 -54 -15 -65 -20 -11 -5 -47 -16 -80 -24 -34 -9
-74 -21 -90 -28 -17 -7 -34 -13 -40 -15 -5 -2 -55 -13 -110 -24 -55 -12 -113
-28 -130 -35 -16 -7 -55 -18 -86 -24 -30 -6 -76 -23 -101 -36 -31 -16 -71 -27
-120 -31 -40 -4 -84 -11 -98 -17 -14 -6 -30 -11 -37 -13 -7 -1 -27 -9 -44 -18
-18 -9 -47 -16 -65 -16 -18 0 -45 -5 -61 -11 -15 -7 -38 -13 -50 -15 -12 -1
-48 -10 -80 -19 -32 -9 -71 -21 -88 -26 -16 -6 -34 -11 -40 -13 -5 -1 -19 -7
-30 -13 -11 -6 -38 -14 -60 -18 -22 -4 -56 -12 -75 -18 -19 -6 -42 -12 -50
-13 -8 -2 -30 -10 -50 -18 -19 -8 -80 -27 -135 -42 -55 -15 -107 -33 -116 -40
-8 -8 -44 -18 -80 -23 -35 -5 -95 -18 -134 -29 -38 -10 -108 -29 -155 -41 -47
-12 -101 -26 -120 -31 -19 -5 -82 -23 -140 -40 -58 -17 -113 -35 -122 -40 -10
-6 -26 -10 -37 -10 -11 0 -46 -11 -78 -24 -32 -13 -95 -35 -139 -50 -45 -14
-89 -26 -98 -26 -9 0 -27 -6 -39 -14 -12 -8 -53 -19 -91 -26 -38 -6 -85 -18
-104 -26 -19 -8 -47 -14 -63 -14 -15 0 -41 -5 -56 -12 -15 -6 -35 -17 -43 -24
-8 -7 -54 -18 -102 -24 -48 -6 -107 -15 -130 -20 -24 -5 -95 -20 -158 -34 -63
-14 -140 -28 -170 -31 -30 -3 -73 -11 -95 -16 -22 -6 -60 -20 -85 -30 -25 -11
-78 -21 -119 -24 -40 -3 -98 -14 -129 -25 -30 -11 -57 -18 -60 -16 -2 3 -25
-2 -50 -10 -26 -7 -58 -14 -72 -14 -14 -1 -52 -14 -85 -30 -55 -26 -61 -27
-72 -13 -7 9 -13 34 -13 54 0 21 -5 50 -12 66 -6 15 -15 53 -19 83 -4 30 -15
89 -24 130 -9 41 -23 125 -31 185 -7 61 -14 174 -15 252 0 78 3 158 7 177 4
23 2 36 -4 36 -6 0 -17 12 -24 27 -7 15 -21 29 -31 31 -10 2 -29 1 -43 -2 -20
-5 -24 -13 -24 -41 0 -18 -5 -37 -10 -40 -6 -4 -8 -65 -4 -168 3 -89 8 -178
10 -197 3 -19 10 -75 15 -125 6 -49 11 -101 13 -115 2 -14 6 -32 9 -40 3 -8
15 -64 27 -125 12 -60 24 -146 26 -190 3 -44 10 -99 16 -122 6 -24 18 -44 27
-47 9 -2 30 -7 47 -11 27 -5 35 -1 58 25 14 17 38 33 52 36 14 3 66 18 115 34
49 17 98 30 108 30 11 0 21 5 23 11 2 6 26 13 53 16 28 2 75 13 105 23 31 9
75 21 98 25 23 4 52 8 65 10 12 2 45 8 72 13 28 5 91 13 140 17 50 4 102 13
117 21 15 8 39 14 53 14 14 0 53 7 88 16 34 8 105 26 157 39 52 13 138 35 190
49 52 14 122 34 155 44 33 11 80 25 105 31 25 7 63 17 85 22 22 6 49 14 60 19
11 5 31 11 45 13 14 3 50 15 80 27 30 12 78 28 105 36 28 8 61 21 75 28 14 7
31 11 37 9 7 -3 38 4 70 15 32 11 74 23 93 27 19 3 55 11 80 17 25 6 50 14 55
18 6 4 37 12 70 19 33 7 74 17 90 23 17 5 46 13 66 17 19 4 50 15 69 24 18 9
40 17 49 17 9 0 40 9 69 20 29 11 61 20 72 20 11 0 62 14 113 31 50 16 101 34
112 39 11 5 36 11 56 13 20 3 56 14 80 24 24 11 62 25 84 31 22 6 81 23 130
38 50 15 106 28 125 29 19 2 49 9 65 16 17 7 59 21 95 32 36 10 93 25 126 33
34 7 75 19 90 25 16 7 32 11 37 11 4 -1 24 5 43 13 20 8 47 15 61 15 13 0 33
5 43 10 11 6 32 12 47 15 15 2 53 10 83 18 30 8 78 22 105 32 28 9 79 25 115
35 36 9 99 27 140 39 41 11 102 28 135 37 33 9 84 23 112 31 29 8 55 19 59 24
3 5 18 9 34 9 16 0 31 4 34 9 3 5 27 12 53 17 27 4 53 8 58 8 6 1 24 6 40 12
17 7 66 21 110 33 44 12 94 26 110 31 17 5 48 12 70 15 22 4 63 14 90 22 28 9
60 19 72 24 13 5 29 6 38 3 8 -3 35 4 59 16 25 12 85 30 133 39 48 10 108 24
133 32 25 7 50 16 55 19 6 4 55 19 110 34 55 15 132 38 172 52 39 13 83 24 97
24 15 0 34 4 44 9 9 4 33 14 52 20 19 7 76 23 125 37 50 14 106 29 125 34 19
5 58 16 85 26 28 9 75 26 105 37 30 11 72 22 93 24 20 3 40 9 43 14 3 5 16 9
29 9 13 0 27 5 30 10 3 6 19 10 34 10 15 0 31 4 37 9 5 5 32 11 59 15 49 6 51
5 97 -39 26 -24 66 -56 90 -71 24 -15 61 -41 83 -59 22 -17 61 -42 87 -54 27
-13 50 -27 53 -31 3 -5 31 -21 62 -36 32 -14 82 -43 113 -63 30 -20 57 -38 60
-41 3 -3 19 -13 35 -22 17 -9 59 -32 95 -50 36 -18 88 -49 115 -67 28 -19 65
-47 83 -63 18 -15 37 -28 43 -28 6 0 30 -16 53 -35 31 -25 53 -35 78 -35 28 0
37 5 46 25 7 14 12 32 12 40 0 7 11 27 25 43 14 17 25 34 25 40 0 5 6 15 14
21 7 6 16 30 20 52 4 22 15 50 26 62 11 11 30 43 42 69 12 26 25 48 30 48 4 0
8 6 8 13 0 8 14 33 30 55 17 23 30 46 30 51 0 4 23 39 50 77 28 38 53 80 57
93 3 14 18 35 33 48 16 13 31 35 35 50 3 15 15 39 26 54 10 15 19 34 19 42 0
8 7 20 15 27 8 7 15 23 15 37 0 13 11 35 25 49 14 14 25 31 25 38 0 8 15 30
33 50 18 20 40 36 49 36 9 0 18 12 22 30 4 23 11 30 30 30 13 0 26 7 30 15 3
8 3 22 -1 30 -3 9 -24 25 -47 37 -22 11 -52 28 -66 38 -14 9 -65 38 -113 64
-49 25 -100 55 -114 66 -13 10 -50 29 -80 40 -31 12 -68 29 -82 38 -14 9 -48
28 -76 42 -27 13 -58 32 -67 41 -10 10 -42 34 -71 53 -30 20 -59 36 -65 36 -6
0 -12 3 -14 8 -1 4 -16 15 -33 24 -16 9 -50 26 -75 38 -25 11 -56 27 -70 35
-14 8 -42 23 -62 35 -21 11 -38 25 -38 30 0 6 11 15 25 20 14 5 42 18 62 29
21 10 54 27 73 38 19 10 64 37 99 60 35 23 76 45 91 48 16 4 34 13 41 21 6 8
22 14 34 14 12 0 28 7 35 15 7 8 17 15 22 15 5 0 16 7 24 15 9 8 25 15 36 15
12 0 29 6 37 14 9 8 48 26 86 41 39 15 77 34 85 41 9 7 25 11 37 8 15 -4 23 0
27 14 4 11 13 25 21 32 10 9 22 6 53 -14 22 -14 43 -30 46 -35 4 -5 21 -13 39
-16 17 -4 37 -11 43 -16 7 -6 33 -10 58 -11 26 0 49 -4 51 -9 3 -4 31 -11 63
-15 39 -5 74 -17 110 -40 28 -19 52 -37 52 -42 0 -4 24 -25 53 -47 28 -21 75
-60 102 -86 28 -25 74 -63 104 -83 29 -20 74 -53 100 -74 25 -22 56 -44 68
-51 12 -6 57 -36 100 -66 43 -30 83 -58 88 -63 6 -4 44 -24 85 -44 41 -21 101
-49 134 -63 32 -14 68 -25 81 -25 12 0 32 -11 45 -26 14 -14 44 -34 69 -45 25
-11 65 -19 95 -18 28 0 71 4 96 9 25 5 68 15 97 22 29 7 58 19 65 26 6 6 20
12 30 12 10 0 35 16 57 35 21 19 43 35 49 35 6 0 20 12 32 28 12 15 34 34 49
42 16 8 48 28 72 44 24 16 50 37 57 48 7 10 20 18 27 18 8 0 20 9 27 20 7 11
18 20 25 20 6 0 20 17 30 37 10 20 34 46 54 57 20 12 65 54 100 95 35 41 78
89 95 107 18 19 34 39 37 46 3 7 20 33 38 58 19 25 44 65 56 90 13 25 39 71
58 104 19 32 35 69 35 81 0 13 5 27 10 30 6 3 10 16 10 27 0 11 9 36 21 54 11
18 22 45 25 60 3 14 12 37 21 50 12 19 15 41 10 98 -3 40 -11 83 -19 95 -7 12
-24 25 -38 28 -14 4 -32 6 -40 5 -8 -1 -37 18 -64 42 -27 25 -56 56 -65 70
-10 14 -55 67 -102 117 -46 51 -128 138 -183 193 -54 56 -105 111 -113 124 -9
12 -23 22 -33 22 -10 0 -24 7 -31 17 -8 9 -38 34 -68 57 -30 23 -70 53 -90 68
-20 15 -52 36 -72 47 -19 11 -52 34 -72 52 -20 18 -37 38 -37 45 0 8 -16 14
-37 16 -36 3 -38 5 -44 43 -3 22 -11 50 -17 63 -7 12 -10 22 -7 22 2 0 -4 21
-14 48 -10 26 -19 50 -20 55 0 4 -1 8 -2 10 0 1 -3 11 -6 22 -2 11 -7 32 -10
48 -3 15 -9 27 -14 27 -5 0 -9 7 -9 15 0 8 -9 29 -20 47 -11 18 -20 43 -20 54
0 12 -6 35 -13 50 -6 16 -21 43 -32 59 -11 17 -33 45 -50 63 -16 18 -41 50
-55 71 -14 21 -44 59 -67 85 -22 25 -48 46 -56 46 -8 0 -29 10 -48 23 -19 12
-51 31 -71 40 -21 10 -41 24 -45 32 -5 7 -53 32 -108 54 -54 23 -111 41 -126
41 -15 0 -71 12 -125 26 -91 25 -118 27 -324 30z m5 -149 c115 -3 191 -8 210
-16 17 -7 46 -15 65 -17 19 -2 58 -6 85 -9 28 -3 59 -10 70 -15 11 -5 40 -16
65 -24 25 -8 70 -27 100 -42 30 -15 84 -46 120 -70 36 -23 84 -63 105 -87 22
-25 57 -68 78 -96 20 -28 37 -55 37 -61 0 -5 14 -36 31 -70 16 -33 41 -99 55
-147 14 -49 32 -98 41 -111 8 -13 12 -31 9 -39 -4 -9 1 -27 9 -40 9 -13 13
-32 10 -42 -3 -11 0 -21 9 -24 8 -3 14 -20 15 -39 0 -18 5 -60 11 -93 6 -33
16 -94 22 -135 6 -41 11 -156 11 -255 0 -99 -2 -197 -6 -217 -3 -20 -10 -45
-15 -55 -5 -10 -18 -37 -30 -60 -12 -23 -22 -51 -22 -63 0 -12 -18 -48 -40
-80 -21 -33 -47 -77 -57 -97 -10 -21 -54 -74 -98 -118 -44 -44 -100 -94 -124
-110 -24 -16 -51 -34 -61 -40 -10 -5 -40 -22 -66 -36 -27 -14 -80 -33 -119
-43 -38 -10 -86 -21 -105 -26 -19 -5 -75 -14 -125 -20 -49 -7 -95 -13 -100
-15 -6 -1 -62 4 -125 11 -63 8 -133 16 -155 18 -22 2 -51 6 -65 8 -14 3 -34
10 -45 15 -11 6 -37 14 -58 17 -21 3 -54 13 -74 21 -19 8 -46 15 -60 15 -13 0
-41 11 -61 25 -20 14 -42 25 -49 25 -6 0 -18 6 -25 13 -7 7 -27 22 -44 34 -17
12 -37 23 -44 25 -8 2 -23 11 -34 21 -11 10 -43 30 -71 46 -28 16 -70 46 -94
67 -24 22 -78 73 -120 115 -42 41 -88 91 -103 110 -15 19 -28 40 -28 47 0 8
-16 32 -35 55 -19 22 -35 46 -35 53 0 7 -16 44 -35 83 -19 38 -35 79 -35 90 0
11 -6 24 -12 28 -7 4 -19 18 -25 30 -7 13 -13 32 -13 44 0 11 -6 35 -14 52 -7
18 -19 87 -26 154 -7 67 -9 146 -5 175 4 29 9 62 12 73 2 11 7 49 10 85 4 37
16 84 30 111 12 26 23 51 23 56 0 6 11 30 25 54 13 24 31 58 38 74 8 17 20 37
28 45 8 8 32 38 53 65 22 28 47 57 55 65 9 8 36 31 61 50 25 19 63 49 85 68
22 18 45 36 50 41 6 4 24 14 40 23 17 9 49 24 73 34 23 9 49 17 57 17 8 0 15
3 15 6 0 4 15 14 33 23 17 9 75 30 127 48 52 17 104 33 115 35 11 2 33 8 48
14 16 6 45 11 65 12 20 0 46 5 57 10 11 5 101 7 200 6z m1303 -1107 c4 0 32
-18 62 -41 30 -22 68 -50 83 -62 15 -12 33 -27 40 -33 7 -5 46 -39 87 -75 41
-35 130 -119 198 -187 67 -67 122 -127 122 -132 0 -6 33 -43 73 -82 39 -40 87
-90 104 -113 18 -22 33 -43 33 -47 0 -5 -7 -8 -15 -8 -8 0 -34 -9 -57 -19 -24
-11 -63 -27 -88 -38 -24 -10 -74 -37 -109 -60 -36 -24 -70 -43 -76 -43 -6 0
-17 -9 -25 -20 -8 -11 -20 -20 -27 -20 -7 0 -13 -4 -13 -9 0 -5 -14 -14 -31
-21 -17 -7 -64 -46 -105 -87 -40 -40 -78 -73 -84 -73 -6 0 -36 -21 -66 -47
-30 -27 -64 -63 -75 -80 -11 -18 -27 -33 -35 -33 -8 0 -17 -13 -21 -31 -3 -18
-20 -41 -39 -57 -19 -15 -34 -31 -34 -36 0 -4 -13 -24 -30 -43 -16 -18 -30
-38 -30 -44 0 -6 -25 -40 -55 -75 -30 -36 -55 -71 -55 -78 0 -6 -5 -17 -11
-23 -7 -7 -13 -27 -14 -45 -1 -19 -18 -66 -38 -105 -20 -39 -33 -74 -29 -77 3
-4 -25 -4 -63 0 -57 5 -76 12 -100 34 -16 15 -46 34 -65 43 -19 8 -72 41 -118
71 -46 31 -87 56 -92 56 -5 0 -24 14 -41 31 -17 17 -55 46 -83 65 -28 19 -73
50 -101 68 -27 19 -68 53 -90 75 -33 35 -37 43 -25 51 8 5 43 10 78 10 36 0
88 9 122 20 33 11 95 25 137 31 43 6 98 16 123 23 25 8 81 33 125 56 44 23
103 60 130 81 28 21 74 62 103 92 28 30 52 57 52 60 0 4 8 17 18 29 9 12 33
40 53 62 20 23 48 68 63 100 15 33 40 82 56 108 17 27 30 58 30 71 1 12 10 47
21 77 12 30 27 98 34 150 6 52 8 97 4 98 -5 2 -9 70 -9 150 0 81 -4 162 -10
181 -5 19 -7 38 -4 42 3 5 8 9 12 9z m-5926 -845 c18 -3 65 -9 104 -15 38 -5
106 -21 150 -36 43 -14 100 -26 126 -25 26 0 50 -4 53 -9 3 -4 29 -11 58 -15
28 -4 81 -9 117 -10 36 -2 126 -10 200 -19 74 -8 191 -27 260 -42 69 -14 141
-27 160 -28 19 -1 40 -5 47 -9 6 -4 49 -14 94 -23 46 -8 110 -27 144 -40 38
-16 87 -26 135 -29 41 -3 93 -8 115 -11 21 -4 46 -10 55 -15 8 -4 62 -20 120
-34 58 -15 109 -31 114 -36 6 -5 25 -9 43 -9 18 0 33 -4 33 -8 0 -5 -37 -16
-82 -26 -46 -10 -92 -22 -103 -27 -11 -4 -49 -13 -85 -19 -36 -6 -103 -24
-150 -40 -47 -15 -109 -33 -138 -40 -28 -7 -55 -16 -58 -21 -3 -5 -20 -9 -38
-9 -18 0 -46 -7 -62 -14 -16 -8 -54 -20 -84 -25 -30 -6 -80 -15 -110 -20 -30
-6 -79 -18 -110 -27 -30 -9 -76 -22 -102 -30 -26 -8 -59 -14 -75 -14 -15 0
-38 3 -50 6 -13 4 -23 13 -23 21 0 8 -19 33 -43 57 -24 23 -81 72 -128 109
-46 38 -99 80 -117 95 -19 15 -39 29 -45 31 -7 2 -47 35 -90 71 -42 37 -90 74
-105 81 -15 8 -54 32 -87 54 -33 22 -66 45 -73 52 -7 7 -50 37 -96 68 -46 30
-89 62 -96 70 -10 12 -6 13 22 10z m6781 -66 c15 0 27 -1 27 -4 0 -2 -8 -19
-18 -37 -9 -18 -28 -67 -41 -108 -14 -41 -30 -82 -37 -90 -7 -8 -19 -31 -27
-50 -8 -19 -23 -44 -34 -55 -10 -11 -30 -38 -43 -60 -13 -22 -27 -42 -32 -45
-4 -3 -31 -38 -60 -77 -29 -39 -77 -97 -106 -129 -30 -33 -80 -86 -113 -119
-32 -33 -75 -73 -95 -90 -19 -16 -48 -39 -63 -50 -15 -11 -67 -46 -114 -78
-48 -32 -110 -67 -139 -78 -29 -11 -83 -21 -120 -23 l-68 -4 6 26 c4 15 15 51
25 81 10 30 16 58 13 62 -3 5 0 9 6 9 6 0 15 10 20 23 6 12 14 29 19 37 4 8
21 41 37 72 16 32 32 58 36 58 3 0 22 25 43 55 20 30 40 55 46 55 5 0 9 8 9
18 0 9 14 33 31 52 18 19 48 58 69 85 20 28 44 56 53 64 10 7 17 11 17 7 0 -3
12 4 26 17 15 12 45 39 68 59 22 21 45 38 49 38 4 0 18 9 30 20 12 11 38 33
57 49 19 16 64 46 100 67 36 20 86 52 112 70 30 20 55 30 68 27 11 -3 28 1 37
8 9 8 30 19 47 25 17 7 43 12 59 13z m-4591 -470 c4 1 10 -4 13 -10 4 -6 26
-8 59 -4 40 5 65 2 111 -15 33 -12 75 -26 93 -31 18 -6 56 -24 83 -40 27 -16
52 -29 55 -29 2 0 26 -15 52 -33 26 -18 65 -41 87 -52 22 -11 55 -32 73 -47
18 -16 39 -28 47 -28 8 0 25 -10 39 -22 13 -13 41 -32 63 -43 21 -10 56 -31
78 -46 22 -14 74 -43 115 -64 41 -20 98 -49 125 -64 28 -15 90 -51 138 -79 49
-29 93 -52 97 -52 5 0 48 -25 95 -55 46 -30 91 -55 99 -55 7 0 19 -6 25 -14 6
-8 35 -24 63 -36 29 -12 70 -34 92 -47 21 -14 44 -26 50 -27 6 -1 29 -12 51
-23 l40 -21 -40 -9 c-22 -6 -80 -20 -130 -33 -49 -12 -99 -24 -110 -26 -11 -2
-60 -12 -110 -23 -49 -11 -121 -29 -160 -39 -38 -11 -122 -34 -185 -51 -63
-18 -130 -36 -148 -41 -19 -4 -41 -15 -50 -23 -9 -8 -33 -18 -52 -21 -19 -4
-62 -11 -95 -16 -33 -5 -114 -25 -180 -44 -66 -19 -145 -42 -175 -51 -30 -9
-74 -23 -97 -31 -40 -13 -45 -12 -80 8 -21 12 -58 32 -83 45 -24 13 -46 27
-50 32 -3 5 -29 25 -59 45 -29 20 -57 36 -62 36 -5 0 -39 27 -77 59 -38 33
-95 76 -127 97 -32 20 -96 67 -141 104 -46 38 -87 70 -91 71 -5 2 -18 16 -30
32 -18 23 -20 36 -16 87 l6 59 -53 57 c-31 34 -72 67 -102 81 -27 13 -60 23
-71 23 -12 0 -46 -7 -75 -14 l-52 -14 -48 34 c-26 19 -67 47 -92 62 -25 15
-74 55 -110 89 -35 34 -62 64 -59 68 4 3 20 7 37 10 17 2 35 6 39 8 5 3 53 13
108 22 55 9 109 22 120 29 11 7 34 13 51 14 18 0 51 6 75 13 24 7 53 14 63 16
11 2 34 12 51 23 18 11 46 20 63 20 16 0 49 9 73 20 24 11 55 20 69 20 13 0
42 6 65 14 22 8 85 22 140 32 55 9 123 23 150 30 28 7 53 13 57 13z m-1351
-323 c3 0 31 -29 62 -62 32 -34 57 -67 57 -73 0 -6 7 -11 16 -11 10 0 35 -15
58 -33 23 -19 70 -52 105 -75 36 -23 70 -42 75 -42 6 -1 21 -9 34 -20 20 -16
21 -23 14 -58 -7 -30 -5 -47 10 -79 11 -22 35 -59 54 -82 24 -27 49 -44 77
-52 24 -7 75 -9 120 -6 65 4 82 2 97 -11 10 -10 35 -28 55 -42 20 -14 46 -34
56 -45 11 -11 27 -28 36 -37 9 -10 23 -18 32 -18 8 0 41 -20 72 -45 32 -25 61
-45 66 -45 4 0 14 -9 21 -20 7 -11 20 -20 28 -20 9 0 36 -17 59 -37 23 -21 51
-46 63 -55 12 -9 36 -25 54 -34 18 -9 51 -30 73 -47 22 -17 42 -32 44 -34 2
-2 2 -5 -1 -8 -3 -3 -34 -10 -68 -16 -35 -5 -72 -15 -84 -22 -12 -6 -52 -19
-91 -28 -38 -10 -108 -29 -155 -44 -47 -15 -111 -35 -143 -44 -32 -9 -61 -22
-65 -28 -4 -5 -36 -12 -72 -15 -36 -3 -92 -15 -125 -27 -33 -12 -82 -29 -110
-37 -27 -9 -88 -26 -135 -39 -47 -13 -101 -29 -120 -36 -19 -6 -42 -14 -50
-17 -8 -2 -28 -6 -45 -8 -16 -3 -60 -13 -97 -23 l-68 -19 -52 28 c-29 15 -83
44 -120 64 -37 21 -71 44 -76 52 -5 8 -15 16 -23 18 -8 1 -40 20 -72 42 -32
21 -87 57 -121 79 -35 22 -81 54 -102 70 -21 17 -50 38 -64 47 -14 9 -47 37
-75 62 -27 25 -54 46 -60 46 -5 0 -24 14 -42 30 -18 17 -35 30 -38 30 -3 0
-30 18 -60 40 -29 22 -83 56 -119 76 -36 20 -66 40 -66 45 0 5 -6 9 -12 9 -7
0 -26 11 -43 25 -16 14 -66 43 -110 65 -44 22 -89 46 -100 53 -11 7 -45 29
-75 49 -30 21 -84 60 -120 88 -35 27 -70 50 -77 50 -7 0 -13 3 -13 8 0 4 -16
18 -35 31 -19 13 -35 27 -35 32 0 5 8 9 18 9 10 0 22 4 28 8 5 5 41 14 79 21
39 7 102 21 140 31 39 10 93 24 120 30 28 6 75 15 105 20 30 4 66 12 80 18 14
6 57 17 95 26 39 9 106 21 150 26 44 6 100 17 125 26 24 8 76 17 115 21 38 3
82 12 97 19 15 8 42 14 61 14 18 0 37 3 41 8 4 4 49 12 99 19 51 6 132 17 181
23 48 6 105 17 125 24 20 8 39 13 42 12z m3157 -757 c12 0 22 -3 22 -8 0 -6
-4 -13 -10 -16 -5 -3 -10 -15 -10 -26 0 -12 -16 -48 -35 -80 -19 -33 -35 -66
-35 -73 0 -7 -18 -37 -41 -67 -22 -30 -77 -110 -122 -179 -45 -69 -87 -137
-93 -150 -6 -14 -32 -68 -58 -121 -25 -53 -46 -99 -46 -103 0 -4 -17 -29 -37
-54 -21 -26 -38 -49 -40 -51 -1 -2 -17 4 -35 13 -18 9 -80 46 -138 83 -58 36
-125 77 -150 91 -25 14 -70 38 -100 54 -30 17 -57 33 -60 37 -3 5 -16 14 -30
21 -14 7 -62 37 -107 67 -45 29 -88 53 -95 53 -7 0 -35 18 -63 40 -27 22 -55
40 -61 40 -5 0 -23 13 -38 29 -16 16 -26 34 -22 39 3 5 20 12 38 16 18 4 35 7
38 7 3 1 13 5 24 11 10 5 50 19 90 29 39 11 78 22 86 26 8 3 18 5 23 5 4 -1
24 5 44 13 21 9 52 16 71 17 18 1 35 5 38 10 3 4 16 8 29 8 13 0 44 9 70 20
26 11 59 20 74 20 15 0 31 3 35 7 3 4 23 13 44 20 20 7 49 13 64 13 15 0 59
12 98 26 40 14 74 23 77 20 3 -2 17 0 31 5 15 6 63 17 107 25 44 8 91 19 105
25 13 6 40 13 60 15 19 3 58 8 85 13 28 5 60 9 73 10z"/>
<g>
<path d="M12115 6333 c-25 3 -49 0 -64 -8 -14 -8 -31 -26 -39 -40 -8 -16 -11
-38 -7 -58 4 -18 19 -44 33 -59 15 -17 36 -28 52 -28 14 0 42 11 62 25 20 14
40 34 43 46 4 11 4 35 1 53 -4 19 -14 40 -24 49 -9 8 -35 17 -57 20z"/>
</g>
<g>
<path d="M12344 5884 c-21 3 -50 -7 -104 -39 -41 -24 -86 -50 -100 -59 -14 -8
-41 -22 -60 -31 -19 -9 -57 -27 -85 -40 -27 -14 -74 -30 -102 -36 -39 -9 -55
-18 -59 -33 -4 -12 -15 -27 -25 -34 -14 -9 -18 -21 -14 -41 3 -16 11 -40 19
-55 7 -15 21 -35 30 -44 9 -9 36 -45 61 -79 35 -49 51 -63 71 -63 14 0 34 5
45 11 11 5 25 22 31 37 6 15 13 37 15 49 2 12 -2 26 -9 32 -7 6 -30 25 -50 42
-30 26 -35 36 -27 51 5 10 17 18 25 18 9 0 27 9 41 20 14 11 34 20 45 20 11 0
34 11 51 24 18 14 46 28 62 32 17 3 37 12 45 18 8 7 32 21 53 31 21 11 51 35
68 52 22 25 29 42 29 73 0 27 -4 40 -14 40 -7 0 -26 2 -42 4z"/>
</g>
<g>
<path d="M12900 5692 c-14 3 -37 1 -51 -5 -14 -5 -36 -25 -48 -43 -13 -19 -27
-34 -32 -34 -5 0 -9 -11 -9 -24 0 -14 4 -27 9 -31 5 -3 12 -18 16 -34 3 -17
16 -33 31 -40 14 -6 42 -11 63 -11 27 0 51 9 81 31 l42 31 -7 51 c-3 29 -14
60 -23 70 -9 11 -24 22 -32 27 -8 4 -26 10 -40 12z"/>
</g>
<g>
<path d="M11500 5460 c-3 0 -16 -13 -28 -30 -12 -16 -22 -42 -22 -57 0 -16 10
-42 22 -58 13 -17 54 -60 92 -97 38 -38 73 -68 78 -68 4 0 16 -8 26 -17 9 -10
35 -31 57 -48 22 -16 47 -34 56 -40 9 -5 34 -22 55 -36 22 -15 45 -33 52 -42
8 -9 35 -30 62 -47 41 -26 54 -30 88 -24 35 5 42 11 47 35 4 16 10 31 15 34 4
3 6 14 3 25 -3 11 -25 35 -48 55 -24 19 -47 35 -52 35 -5 0 -23 14 -41 30 -18
17 -37 30 -43 30 -5 0 -9 4 -9 9 0 5 -10 13 -22 17 -11 3 -46 26 -77 51 -31
25 -65 52 -76 61 -11 9 -39 29 -62 44 -23 15 -49 38 -58 52 -9 14 -37 39 -63
56 -25 16 -48 30 -52 30z"/>
</g>
</g>
<g>
<path d="M9424 6396 c-5 1 -18 -1 -29 -5 -11 -3 -35 -17 -52 -30 -24 -18 -33
-33 -33 -53 0 -16 7 -31 18 -36 9 -5 35 -10 58 -11 28 -1 45 4 56 16 8 10 17
25 20 33 3 8 -1 20 -8 25 -8 6 -15 21 -17 34 -2 14 -8 26 -13 27z"/>
</g>
<g>
<path d="M5986 5859 c-11 0 -31 -4 -43 -9 -12 -5 -29 -25 -38 -44 -10 -20 -21
-36 -26 -36 -5 0 -9 -4 -9 -9 0 -5 9 -13 20 -16 11 -3 20 -13 20 -22 0 -13 9
-15 51 -10 32 4 57 13 65 24 9 11 13 32 10 56 -2 21 -10 44 -16 52 -7 8 -22
15 -34 14z"/>
</g>
<g>
<path d="M11070 5185 c-6 3 -13 -1 -16 -9 -3 -8 -3 -20 1 -26 3 -5 10 -10 16
-10 5 0 9 9 9 19 0 11 -5 23 -10 26z"/>
</g>
</g>
</svg>
