<?xml version="1.0" standalone="no"?>
<!DOCTYPE svg PUBLIC "-//W3C//DTD SVG 20010904//EN"
 "http://www.w3.org/TR/2001/REC-SVG-20010904/DTD/svg10.dtd">
<svg version="1.0" xmlns="http://www.w3.org/2000/svg"
 width="1679.000000pt" height="1679.000000pt" viewBox="0 0 1679.000000 1679.000000"
 preserveAspectRatio="xMidYMid meet">
<metadata>
Created by potrace 1.16, written by Peter Selinger 2001-2019
</metadata>
<g transform="translate(0.000000,1679.000000) scale(0.100000,-0.100000)"
fill="#000000" stroke="none">
<g>
<path d="M10715 16088 c-176 0 -396 -5 -490 -9 -93 -4 -289 -13 -435 -19 -146
-6 -290 -13 -320 -16 -30 -2 -91 -9 -135 -14 -44 -5 -138 -12 -210 -16 -71 -3
-141 -8 -155 -9 -14 -2 -79 -6 -145 -9 -66 -4 -149 -9 -185 -11 -36 -3 -180
-12 -320 -20 -140 -7 -331 -17 -425 -20 -93 -3 -231 -10 -305 -16 -74 -5 -193
-14 -265 -19 -71 -6 -157 -12 -190 -15 -33 -2 -215 -9 -405 -15 -190 -5 -399
-12 -465 -14 -66 -2 -255 -6 -420 -10 -165 -4 -347 -9 -405 -11 -58 -3 -139
-7 -180 -10 -41 -3 -95 -7 -120 -10 -25 -3 -100 -9 -168 -15 -68 -5 -180 -17
-250 -25 -70 -9 -136 -20 -147 -25 -11 -5 -47 -11 -80 -15 -33 -4 -85 -11
-115 -15 -30 -4 -100 -18 -155 -30 -55 -12 -118 -25 -140 -27 -22 -3 -45 -9
-50 -13 -6 -5 -54 -18 -108 -29 -53 -11 -107 -26 -120 -33 -12 -7 -33 -14 -47
-16 -14 -2 -35 -10 -47 -18 -12 -8 -30 -16 -40 -18 -10 -1 -43 -15 -73 -29
-31 -15 -76 -41 -102 -59 -25 -18 -64 -50 -87 -70 -35 -32 -41 -44 -41 -77 0
-22 5 -43 10 -46 6 -3 10 -14 10 -25 0 -10 14 -44 31 -76 16 -33 54 -83 82
-113 29 -29 69 -66 91 -82 21 -16 84 -73 140 -126 55 -54 128 -118 161 -143
33 -25 78 -56 100 -67 22 -12 74 -37 115 -56 41 -18 89 -39 105 -45 17 -6 57
-16 90 -23 33 -6 83 -20 110 -30 28 -10 64 -19 82 -19 17 0 44 -5 60 -11 15
-5 57 -17 93 -25 36 -7 97 -23 135 -34 39 -11 93 -25 120 -31 28 -6 58 -15 67
-20 9 -4 54 -20 100 -34 46 -15 121 -38 168 -53 47 -14 89 -29 95 -34 5 -4 25
-8 44 -8 19 0 69 -9 110 -19 42 -11 105 -27 141 -36 36 -9 88 -21 115 -27 28
-6 73 -16 100 -23 28 -8 91 -23 140 -35 50 -12 98 -26 107 -31 10 -5 34 -9 53
-9 19 0 43 -4 53 -10 9 -5 64 -18 122 -29 58 -11 157 -29 220 -39 63 -11 147
-26 185 -32 39 -6 104 -16 145 -21 41 -6 98 -12 125 -15 28 -2 66 -9 85 -14
19 -5 58 -11 85 -14 28 -3 79 -10 115 -16 36 -6 105 -15 154 -20 49 -6 106
-14 125 -19 20 -6 59 -12 86 -15 28 -3 82 -9 120 -15 39 -6 117 -17 175 -25
58 -9 173 -20 255 -25 83 -6 231 -13 330 -16 99 -3 223 -8 275 -11 52 -3 198
-12 324 -20 126 -8 279 -14 340 -14 61 1 264 8 451 16 187 8 354 16 370 19 17
2 98 7 180 10 83 4 162 11 176 16 14 6 30 9 35 8 5 -2 83 3 174 9 91 7 197 17
235 22 39 5 99 10 135 11 36 2 81 6 100 10 19 4 107 10 195 14 88 3 214 13
279 21 66 8 127 19 137 25 10 5 22 8 26 7 4 -1 42 2 83 6 41 5 100 14 130 22
30 8 60 21 67 30 6 9 9 22 6 30 -5 13 -28 14 -139 10 -73 -3 -146 -8 -161 -12
-16 -3 -46 -12 -69 -19 -22 -8 -77 -15 -122 -17 -45 -2 -82 -7 -82 -11 0 -5
-4 -6 -8 -3 -5 3 -89 -1 -188 -8 -98 -7 -186 -14 -194 -14 -8 -1 -76 -8 -150
-16 -74 -8 -164 -17 -200 -20 -36 -4 -114 -11 -175 -16 -60 -6 -126 -12 -145
-14 -19 -3 -69 -7 -110 -10 -41 -3 -109 -8 -150 -11 -41 -2 -158 -10 -260 -17
-102 -6 -342 -12 -535 -12 -226 -1 -400 4 -490 13 -77 7 -183 15 -235 16 -52
2 -120 4 -150 5 -30 1 -158 6 -285 11 -126 5 -270 14 -320 20 -49 6 -121 15
-160 20 -38 6 -104 15 -145 21 -41 5 -93 12 -115 14 -22 2 -78 10 -125 18 -47
9 -188 29 -315 46 -126 17 -250 33 -275 36 -25 3 -56 8 -70 10 -14 3 -59 9
-100 15 -41 5 -93 13 -115 19 -22 5 -56 11 -75 14 -19 2 -93 15 -165 30 -71
14 -155 31 -185 37 -30 6 -71 14 -90 19 -19 5 -96 24 -170 43 -74 19 -164 42
-200 50 -36 9 -87 21 -115 27 -27 6 -99 21 -160 34 -60 13 -130 29 -155 36
-25 7 -58 18 -75 25 -16 8 -43 17 -60 21 -16 4 -89 26 -162 51 -73 24 -176 55
-230 69 -54 14 -150 38 -213 54 -63 15 -158 38 -210 51 -52 12 -126 32 -165
45 -38 12 -91 32 -116 43 -26 11 -52 28 -59 36 -7 8 -17 15 -22 15 -6 0 -40
21 -77 47 -36 26 -102 82 -146 124 -44 41 -111 102 -150 134 -38 32 -93 84
-122 116 -28 32 -54 67 -56 76 -3 10 -8 34 -11 54 -5 30 -2 42 20 68 14 17 31
31 38 31 7 0 21 9 31 20 10 11 24 20 31 20 7 0 14 3 16 8 2 4 32 21 68 39 36
17 86 39 111 47 25 9 84 26 130 40 46 13 136 35 199 49 63 14 142 30 175 36
33 6 89 14 125 17 36 4 70 10 75 14 6 4 28 11 49 14 22 4 114 16 205 27 91 11
222 24 291 29 69 6 148 12 175 15 28 3 154 9 280 14 127 5 370 12 540 15 171
4 351 9 400 12 50 3 223 10 385 15 162 6 356 14 430 19 74 5 142 10 150 10 8
1 56 6 107 11 50 5 199 13 330 19 131 5 281 12 333 15 52 4 187 13 298 21 112
8 223 14 245 13 23 -1 103 1 177 5 74 3 189 11 255 16 66 6 165 15 220 21 55
5 172 14 260 20 88 5 268 14 400 19 132 6 404 11 605 12 201 1 437 -1 525 -6
88 -4 210 -11 270 -17 61 -5 139 -11 175 -14 36 -3 88 -8 115 -12 28 -3 61 -7
75 -8 14 -1 102 -6 195 -10 94 -4 188 -9 210 -11 22 -2 146 -8 275 -14 129 -5
260 -12 290 -15 30 -3 96 -9 145 -14 50 -5 153 -16 230 -25 77 -10 172 -23
210 -31 39 -8 147 -26 240 -40 94 -15 217 -38 275 -52 58 -13 146 -38 195 -55
50 -16 115 -41 145 -55 30 -14 74 -41 98 -61 24 -19 56 -48 72 -66 17 -17 30
-36 30 -42 0 -6 7 -17 15 -24 9 -7 31 -41 50 -75 22 -39 35 -75 35 -98 0 -20
-12 -66 -26 -101 -17 -44 -40 -78 -69 -105 -23 -21 -85 -60 -136 -84 -52 -25
-121 -56 -154 -68 -33 -13 -64 -26 -70 -30 -5 -3 -35 -12 -65 -19 -30 -7 -89
-23 -130 -36 -41 -12 -106 -31 -145 -43 -38 -11 -99 -27 -135 -37 -36 -9 -87
-22 -115 -29 -27 -6 -67 -19 -87 -28 -21 -9 -48 -17 -60 -17 -13 0 -40 -9 -61
-20 -20 -11 -47 -20 -59 -20 -13 0 -59 -11 -103 -24 -44 -14 -105 -32 -135
-39 -30 -8 -91 -22 -135 -31 -44 -8 -145 -27 -225 -41 -80 -14 -161 -30 -181
-35 -20 -6 -55 -10 -79 -10 -23 0 -72 -7 -109 -15 -36 -8 -109 -22 -161 -31
-52 -9 -120 -20 -150 -26 -30 -5 -86 -14 -125 -19 -38 -5 -126 -16 -195 -24
-69 -8 -147 -19 -175 -24 -27 -6 -79 -13 -115 -16 -36 -3 -121 -12 -190 -20
-69 -8 -174 -19 -235 -24 -60 -6 -146 -13 -190 -16 -44 -3 -167 -10 -274 -16
-107 -5 -199 -13 -205 -16 -5 -3 -75 -10 -155 -15 -80 -5 -207 -13 -281 -19
-74 -5 -481 -12 -905 -15 -648 -5 -801 -3 -965 10 -107 9 -222 20 -255 26 -33
6 -85 16 -115 21 -30 6 -84 17 -120 24 -36 8 -85 17 -110 21 -25 3 -79 14
-120 24 -41 10 -100 21 -130 25 -30 3 -102 15 -160 26 -58 10 -115 21 -127 24
-13 3 -33 7 -45 10 -13 3 -59 12 -103 20 -44 8 -102 19 -130 25 -27 6 -86 17
-130 24 -44 8 -147 30 -230 50 -82 20 -175 43 -205 51 -30 8 -80 20 -110 26
-30 6 -68 17 -85 24 -16 7 -82 27 -145 44 -63 16 -135 37 -160 47 -25 9 -55
17 -66 19 -12 2 -37 10 -55 18 -19 9 -50 19 -69 22 -19 4 -57 17 -85 30 -27
12 -61 26 -75 30 -14 4 -56 21 -95 37 -38 16 -110 50 -160 75 -49 25 -114 61
-143 79 -29 19 -89 52 -135 75 -45 23 -92 53 -104 68 -12 14 -22 31 -23 38 0
7 10 18 22 24 12 6 55 22 96 35 41 13 82 24 90 24 8 0 63 11 121 24 58 14 147
29 198 35 50 6 160 16 245 21 84 5 169 12 188 15 19 3 64 7 100 10 36 2 117 9
180 14 63 6 156 15 205 20 50 6 140 15 200 21 61 5 142 14 180 20 39 5 151 14
250 20 99 5 205 12 235 15 30 3 183 12 340 20 157 8 440 17 630 20 190 3 397
7 460 10 63 3 149 10 190 15 41 6 165 15 275 21 110 6 256 13 325 14 69 2 181
6 250 10 69 3 211 12 315 20 105 8 282 19 395 25 113 6 293 14 400 20 107 5
272 12 365 15 94 3 370 5 615 6 245 1 515 -2 600 -5 85 -4 216 -14 290 -22 74
-8 164 -19 200 -25 36 -6 88 -14 115 -20 28 -5 91 -13 140 -19 50 -6 164 -15
255 -20 91 -6 201 -17 245 -25 44 -8 114 -21 155 -30 41 -8 82 -18 90 -22 8
-4 22 -7 30 -8 8 -1 42 -9 75 -18 33 -8 103 -21 155 -27 52 -7 118 -18 146
-25 29 -7 65 -20 81 -28 16 -9 34 -22 40 -29 5 -7 15 -34 22 -60 6 -26 11 -74
11 -107 0 -36 -7 -77 -19 -104 -10 -24 -36 -58 -57 -75 -22 -18 -68 -41 -109
-53 -38 -11 -106 -32 -150 -45 -44 -13 -112 -30 -150 -38 -39 -8 -83 -19 -98
-25 -15 -6 -55 -15 -90 -21 -34 -6 -107 -17 -162 -25 -55 -7 -107 -16 -115
-19 -8 -4 -74 -15 -145 -26 -72 -11 -189 -29 -262 -40 -73 -10 -158 -26 -190
-34 -32 -8 -83 -17 -113 -20 -30 -3 -102 -13 -160 -22 -58 -9 -116 -18 -130
-20 -14 -2 -61 -8 -105 -14 -44 -5 -114 -14 -155 -20 -41 -6 -109 -15 -150
-20 -41 -5 -136 -16 -210 -24 -74 -9 -140 -18 -146 -20 -6 -3 -78 -12 -160
-20 -82 -9 -192 -21 -244 -26 -52 -5 -169 -14 -260 -20 -91 -6 -221 -15 -290
-21 -69 -6 -204 -17 -300 -25 -96 -8 -224 -19 -285 -24 -60 -5 -166 -14 -235
-20 -69 -5 -192 -15 -275 -21 -92 -7 -216 -8 -320 -4 -93 4 -195 8 -225 10
-30 1 -91 5 -135 9 -44 3 -100 9 -125 11 -25 3 -106 7 -180 10 -74 3 -220 10
-325 16 -104 5 -246 16 -315 24 -69 8 -192 21 -275 30 -82 9 -163 20 -180 25
-16 5 -55 11 -85 14 -30 3 -109 16 -175 29 -66 14 -190 49 -275 78 -85 29
-173 58 -195 65 -22 7 -107 33 -190 59 -82 25 -179 58 -215 72 -36 14 -123 49
-195 78 -71 28 -152 64 -180 78 -27 14 -58 32 -69 39 -12 10 -16 21 -12 35 4
14 39 36 99 66 51 24 101 47 112 50 11 3 50 17 87 30 36 14 88 28 115 31 26 4
86 15 133 26 47 10 121 23 165 29 44 6 125 13 180 16 55 3 183 10 285 15 102
6 226 15 275 22 55 7 252 12 510 12 231 0 481 -3 555 -7 74 -4 196 -11 270
-16 74 -6 225 -10 335 -10 110 0 265 4 345 9 80 5 267 16 415 24 149 9 344 23
435 31 91 8 206 19 255 25 50 5 128 14 175 19 47 6 258 18 470 26 212 9 457
17 545 18 88 1 214 0 280 -2 66 -2 183 -7 260 -12 77 -6 217 -19 310 -30 94
-10 249 -26 345 -34 96 -8 207 -20 245 -26 39 -6 81 -17 95 -24 14 -7 43 -15
65 -19 22 -4 47 -9 55 -10 8 -2 34 -9 58 -16 30 -9 58 -29 88 -63 24 -27 44
-54 44 -61 0 -6 -4 -17 -9 -24 -4 -7 -48 -30 -97 -51 -49 -21 -125 -50 -169
-64 -44 -14 -98 -30 -120 -35 -22 -6 -70 -20 -108 -31 -37 -12 -76 -21 -88
-21 -11 0 -36 -7 -57 -16 -20 -8 -66 -22 -102 -30 -36 -8 -108 -21 -160 -29
-52 -7 -138 -18 -190 -25 -52 -6 -178 -18 -280 -26 -102 -7 -243 -18 -315 -24
-71 -5 -179 -14 -240 -20 -60 -5 -148 -13 -195 -19 -47 -5 -186 -12 -310 -16
-124 -4 -520 -7 -880 -7 -413 0 -694 5 -760 12 -65 7 -427 13 -940 15 -459 3
-911 7 -1005 9 -119 3 -186 10 -225 22 -30 9 -84 31 -120 49 -36 18 -99 44
-140 58 -41 13 -118 35 -170 47 -52 13 -106 27 -119 32 -15 5 -21 12 -15 18 5
5 34 15 64 21 30 6 98 15 150 19 52 5 138 13 190 19 52 6 138 15 190 21 52 5
147 15 210 20 63 6 363 15 665 20 303 5 690 12 860 14 171 3 366 10 435 16 69
6 172 15 230 20 58 6 163 15 234 21 71 5 132 12 136 14 3 2 111 11 240 19 129
9 332 23 450 31 118 8 267 20 330 27 70 7 301 12 590 12 331 0 507 -3 580 -12
58 -8 143 -17 190 -21 47 -5 97 -13 112 -19 14 -6 29 -21 33 -32 4 -12 3 -25
-2 -30 -4 -4 -27 -14 -50 -23 -23 -9 -86 -25 -140 -36 -54 -11 -154 -25 -223
-31 -69 -7 -132 -14 -140 -17 -8 -3 -44 -7 -80 -9 -36 -3 -96 -9 -135 -14 -38
-6 -110 -17 -160 -25 -49 -9 -135 -20 -190 -25 -55 -5 -131 -14 -170 -19 -38
-6 -115 -13 -170 -16 -55 -3 -176 -8 -270 -10 -93 -2 -208 -7 -255 -9 -47 -3
-112 -8 -145 -11 -33 -3 -181 -10 -330 -15 -148 -6 -319 -13 -380 -17 -60 -4
-182 -7 -270 -7 -88 1 -198 4 -245 7 -47 4 -159 6 -250 6 -91 0 -181 -2 -200
-4 -19 -2 -104 -2 -187 2 -87 3 -150 10 -147 15 3 5 24 8 47 7 23 -1 78 3 122
10 44 6 150 15 235 21 86 5 198 16 250 24 52 8 210 20 350 26 140 6 374 15
520 20 146 5 333 17 415 25 114 12 256 15 590 14 242 -1 459 2 483 6 34 6 46
13 54 34 5 15 6 32 1 40 -8 12 -86 14 -499 11 -269 -1 -502 -4 -519 -5 -16 -2
-100 -11 -185 -20 -85 -9 -279 -21 -430 -25 -151 -5 -360 -12 -465 -15 -104
-3 -251 -15 -325 -26 -74 -11 -196 -24 -270 -30 -74 -5 -199 -14 -277 -19 -79
-5 -162 -15 -185 -21 -24 -7 -50 -14 -58 -16 -8 -2 -48 -6 -88 -10 -43 -3 -80
-12 -88 -20 -8 -8 -14 -25 -14 -37 0 -16 10 -27 35 -39 20 -10 80 -25 133 -34
78 -14 173 -17 482 -19 212 -1 451 -5 532 -10 84 -4 295 -2 495 5 191 7 465
19 608 28 143 8 334 17 425 18 91 2 218 6 282 10 64 3 188 15 275 25 87 10
208 25 268 34 61 8 155 20 210 26 55 6 163 17 240 25 77 7 192 23 255 35 63
11 134 25 157 29 23 4 71 22 106 39 53 26 69 40 86 74 13 27 17 47 11 57 -4 9
-25 33 -45 54 -21 22 -56 47 -79 57 -23 9 -75 20 -116 24 -41 4 -91 9 -110 11
-19 2 -83 8 -143 14 -73 8 -260 10 -584 6 -263 -4 -480 -8 -483 -10 -3 -2 -61
-6 -130 -9 -69 -4 -170 -11 -225 -17 -55 -5 -194 -16 -310 -24 -115 -8 -271
-19 -345 -25 -74 -5 -193 -17 -265 -24 -71 -8 -188 -20 -260 -25 -71 -6 -193
-15 -270 -20 -77 -6 -347 -13 -600 -17 -253 -3 -610 -8 -793 -10 -213 -2 -387
-9 -480 -19 -81 -9 -174 -19 -207 -21 -33 -2 -91 -9 -130 -14 -38 -5 -110 -12
-160 -15 -49 -3 -108 -8 -130 -11 -22 -3 -53 -7 -70 -9 -16 -2 -72 -13 -124
-24 -52 -11 -96 -23 -98 -25 -2 -2 -6 -19 -9 -38 -5 -27 -1 -40 20 -65 17 -20
48 -39 89 -53 34 -12 85 -27 112 -35 28 -7 68 -16 90 -20 22 -4 76 -19 120
-34 44 -16 107 -42 140 -58 33 -17 85 -37 115 -46 30 -9 69 -19 85 -22 17 -4
381 -9 810 -12 429 -2 870 -6 980 -8 110 -2 227 -6 260 -9 33 -3 134 -7 225
-10 91 -3 203 -6 250 -7 47 0 270 -1 495 -1 226 -1 462 0 525 1 63 1 223 9
355 17 132 8 301 19 375 24 74 5 173 14 220 19 47 6 123 13 170 15 47 3 135 8
195 11 61 3 144 10 185 15 41 5 95 12 120 15 25 2 63 7 85 10 22 3 67 9 100
14 33 6 87 16 120 24 33 8 101 25 150 37 50 12 113 29 140 36 28 8 68 19 90
25 22 7 72 23 110 36 39 14 120 50 182 80 87 42 117 63 137 92 14 20 26 44 26
52 0 7 -14 34 -31 59 -16 25 -55 70 -85 101 -40 41 -65 59 -92 64 -20 4 -39 7
-42 8 -3 0 -36 9 -75 19 -38 11 -104 27 -145 37 -41 11 -124 22 -185 26 -60 3
-128 8 -150 10 -22 2 -94 9 -160 15 -66 6 -145 15 -175 20 -30 5 -125 15 -210
21 -85 6 -270 12 -410 13 -140 0 -356 -3 -480 -7 -124 -4 -292 -10 -375 -13
-82 -3 -215 -12 -295 -20 -80 -8 -212 -21 -295 -29 -82 -8 -204 -20 -270 -25
-66 -5 -196 -14 -290 -20 -93 -6 -199 -13 -235 -15 -36 -3 -159 -10 -275 -15
-115 -6 -287 -10 -382 -10 -94 0 -178 2 -185 5 -7 3 -123 12 -258 20 -173 10
-368 13 -665 10 -279 -2 -467 -9 -560 -19 -77 -8 -203 -18 -280 -21 -77 -3
-187 -8 -245 -11 -58 -3 -127 -10 -155 -16 -27 -5 -93 -16 -145 -23 -52 -8
-122 -21 -155 -29 -33 -8 -76 -19 -95 -24 -19 -6 -68 -22 -107 -36 -40 -14
-110 -44 -155 -65 -46 -22 -102 -58 -125 -80 -27 -27 -43 -51 -43 -66 0 -13
15 -41 33 -61 17 -21 58 -54 90 -75 32 -21 79 -45 105 -54 26 -10 79 -30 117
-45 39 -15 107 -42 153 -59 46 -17 89 -31 95 -31 7 0 23 -6 37 -13 14 -7 48
-21 75 -30 28 -9 77 -26 110 -36 33 -10 80 -22 105 -26 25 -4 58 -14 73 -22
16 -8 96 -36 179 -64 83 -27 160 -49 172 -49 12 0 26 -4 31 -8 6 -5 48 -14 95
-21 47 -6 105 -16 130 -21 25 -5 83 -14 130 -20 47 -6 139 -18 205 -25 66 -8
194 -21 285 -29 91 -8 215 -17 275 -20 61 -3 153 -8 205 -11 52 -3 181 -10
285 -16 105 -6 204 -12 220 -14 17 -2 93 -9 170 -16 82 -7 198 -9 280 -5 77 3
194 11 260 17 66 6 190 17 275 26 85 9 218 19 295 23 77 4 181 12 230 18 50 6
142 13 205 16 63 3 196 10 295 17 99 6 187 14 195 16 8 3 41 7 73 9 32 2 72 6
90 8 18 3 86 12 152 21 66 8 156 20 200 26 44 5 123 14 175 18 52 5 201 23
330 41 129 17 271 37 315 45 44 8 139 24 210 35 72 11 155 22 185 26 30 3 80
12 110 19 30 7 82 16 115 20 33 4 78 10 100 15 22 5 81 14 130 20 50 6 110 16
135 22 25 6 70 14 100 18 30 4 91 17 135 29 44 11 90 21 103 21 13 0 31 4 41
10 10 5 31 12 47 15 16 3 63 14 104 26 41 11 91 24 110 28 19 4 55 17 80 28
25 11 66 40 92 64 33 30 56 64 74 109 21 50 27 82 27 135 0 39 -8 103 -18 143
-10 42 -28 86 -42 103 -14 16 -30 29 -37 29 -6 0 -28 9 -49 19 -20 10 -74 26
-120 34 -45 9 -111 19 -147 23 -36 3 -96 14 -135 24 -38 10 -81 23 -95 28 -14
5 -27 10 -30 10 -3 0 -30 4 -60 10 -30 5 -86 15 -125 21 -38 7 -86 14 -105 16
-19 2 -91 9 -160 14 -69 6 -177 15 -242 21 -64 5 -122 12 -130 15 -7 2 -101
15 -208 29 -107 13 -274 29 -370 36 -118 7 -362 9 -755 5 -319 -3 -614 -8
-655 -10 -41 -2 -149 -6 -240 -10 -91 -4 -168 -9 -171 -11 -3 -2 -59 -4 -125
-5 -65 0 -202 -7 -304 -14 -102 -8 -203 -16 -225 -19 -22 -3 -103 -8 -180 -11
-77 -3 -194 -8 -260 -11 -66 -3 -199 -9 -295 -15 -96 -5 -247 -16 -335 -24
-97 -10 -321 -18 -570 -21 -225 -2 -482 -9 -570 -14 -88 -5 -225 -13 -305 -17
-80 -4 -148 -6 -151 -5 -4 1 -123 -7 -265 -18 -143 -11 -308 -24 -369 -29 -60
-6 -186 -19 -280 -30 -93 -11 -219 -23 -280 -26 -60 -3 -144 -10 -185 -15 -41
-5 -122 -14 -180 -20 -58 -5 -148 -12 -200 -15 -52 -3 -153 -14 -223 -25 -71
-11 -133 -22 -138 -25 -5 -3 -39 -12 -76 -20 -38 -8 -88 -19 -113 -25 -25 -6
-54 -14 -65 -19 -11 -5 -35 -15 -54 -22 -18 -7 -47 -23 -62 -37 -17 -14 -29
-34 -29 -48 0 -14 15 -40 35 -61 19 -20 41 -51 50 -69 10 -21 30 -39 60 -53
25 -11 49 -21 55 -21 5 0 67 -35 137 -77 71 -42 184 -103 253 -135 69 -33 134
-63 145 -68 11 -5 61 -20 110 -35 50 -15 104 -33 121 -40 18 -8 49 -17 70 -21
20 -4 49 -13 63 -20 14 -8 31 -14 37 -14 7 0 47 -11 90 -25 44 -14 93 -29 109
-34 17 -4 55 -15 85 -24 30 -9 73 -20 95 -25 22 -6 69 -18 105 -27 36 -9 135
-32 220 -51 85 -19 191 -41 235 -50 44 -9 100 -20 125 -25 25 -4 63 -11 85
-14 22 -3 51 -9 65 -14 14 -5 54 -15 90 -21 36 -7 88 -16 115 -21 28 -4 66
-11 85 -14 19 -4 113 -20 209 -36 96 -16 177 -32 182 -34 4 -3 26 -8 48 -11
22 -3 68 -12 103 -20 35 -8 72 -15 83 -15 10 0 24 -4 30 -8 5 -5 35 -11 65
-14 30 -3 127 -11 215 -18 111 -9 379 -13 880 -13 396 0 770 3 830 7 61 4 162
9 225 12 63 3 192 12 285 20 94 8 328 26 520 40 193 14 393 30 445 35 52 6
172 20 265 32 94 11 197 24 230 29 33 5 96 13 140 18 45 5 108 14 140 20 33 6
92 16 130 22 39 6 104 15 145 19 41 5 102 14 135 20 33 6 110 20 170 31 61 11
124 21 140 23 17 1 53 6 80 10 28 5 69 14 93 22 23 8 58 14 76 14 19 0 56 6
82 14 27 8 74 20 104 26 30 7 89 23 130 35 41 13 102 31 135 40 33 9 105 30
160 47 55 16 108 34 117 39 10 5 27 9 38 9 11 0 93 21 183 46 89 25 185 52
212 59 28 7 91 27 140 44 50 18 107 40 128 51 22 11 43 20 47 20 5 0 36 18 69
40 33 22 66 40 72 40 7 0 32 21 55 46 23 25 55 69 70 97 15 29 35 78 44 109
13 43 16 68 9 103 -5 25 -25 74 -45 108 -20 34 -57 91 -82 126 -26 35 -65 81
-87 103 -21 21 -80 59 -130 83 -50 24 -104 46 -120 50 -17 4 -46 12 -65 19
-19 8 -52 19 -72 25 -20 7 -47 14 -60 17 -13 3 -50 9 -82 15 -33 5 -63 12 -68
15 -5 3 -52 12 -106 20 -53 8 -131 19 -172 24 -41 5 -97 14 -125 20 -27 6 -70
13 -95 16 -25 2 -67 8 -95 14 -27 5 -131 16 -230 25 -99 8 -198 17 -220 20
-22 3 -148 9 -280 15 -132 6 -355 17 -495 26 -140 8 -293 19 -340 24 -47 5
-132 12 -190 15 -58 3 -168 10 -245 15 -77 6 -284 9 -460 8z"/>
</g>
<g>
<path d="M8978 12934 c-49 2 -91 0 -94 -5 -3 -5 -44 -9 -92 -9 -48 0 -114 -5
-147 -10 -33 -5 -71 -11 -85 -14 -14 -3 -54 -10 -90 -16 -36 -7 -83 -20 -105
-30 -22 -10 -63 -25 -90 -33 -28 -8 -86 -32 -130 -54 -44 -22 -98 -50 -120
-63 -22 -13 -53 -30 -70 -39 -16 -8 -34 -19 -40 -23 -5 -4 -30 -24 -55 -44
-25 -19 -58 -45 -73 -57 -16 -12 -47 -38 -69 -57 -23 -19 -67 -62 -99 -94 -33
-35 -61 -75 -68 -96 -6 -21 -18 -43 -26 -50 -8 -7 -15 -16 -15 -21 0 -5 -14
-38 -30 -75 -17 -37 -43 -100 -57 -141 -21 -60 -26 -95 -27 -181 0 -59 5 -143
11 -187 7 -44 20 -105 29 -135 9 -30 20 -75 26 -99 6 -24 28 -78 51 -120 22
-42 54 -96 71 -120 17 -25 67 -79 111 -122 44 -42 107 -99 140 -126 33 -27 93
-69 134 -93 41 -23 101 -55 135 -70 34 -15 97 -40 141 -55 44 -14 88 -28 97
-30 10 -2 28 -11 40 -19 12 -9 31 -16 40 -16 10 0 26 -4 36 -9 9 -5 49 -14 87
-20 39 -6 97 -15 130 -20 33 -4 93 -9 134 -10 56 -2 77 2 92 15 11 10 49 20
105 26 47 5 89 7 92 3 3 -3 7 -65 9 -138 1 -72 8 -184 14 -247 6 -63 12 -141
13 -172 l3 -57 -36 -12 c-20 -6 -133 -61 -251 -122 -118 -60 -228 -116 -245
-124 -16 -7 -48 -23 -70 -34 -22 -12 -87 -46 -145 -76 -84 -44 -119 -70 -177
-129 -39 -40 -81 -89 -93 -109 -12 -19 -36 -47 -54 -62 -18 -16 -39 -39 -46
-53 -7 -14 -29 -43 -49 -66 -20 -22 -54 -62 -76 -88 -22 -26 -85 -98 -140
-158 -55 -61 -124 -139 -152 -172 -29 -34 -76 -95 -104 -136 -28 -41 -72 -100
-98 -130 -26 -30 -58 -71 -71 -90 -13 -19 -81 -98 -150 -175 -70 -77 -135
-153 -145 -170 -11 -16 -34 -48 -53 -70 -18 -22 -38 -46 -44 -53 -7 -9 -7 -25
-1 -45 7 -25 15 -33 37 -35 19 -2 36 4 53 20 14 13 49 57 78 99 30 42 85 110
123 150 38 41 99 107 136 147 36 41 66 78 66 83 0 5 20 35 45 66 25 32 60 77
78 100 18 23 58 77 89 120 32 43 90 114 130 159 40 45 88 99 106 120 19 21 75
93 125 158 51 66 132 163 181 215 50 53 93 97 97 99 3 2 10 -5 13 -14 4 -10
11 -79 16 -153 5 -75 13 -172 16 -216 4 -44 8 -116 9 -160 2 -44 6 -140 9
-212 3 -73 10 -152 15 -175 5 -24 10 -95 11 -158 1 -63 -2 -211 -6 -328 -6
-193 -9 -214 -26 -223 -10 -5 -18 -20 -18 -33 0 -13 9 -34 19 -48 19 -23 20
-46 21 -439 1 -228 5 -478 8 -557 4 -78 3 -156 -1 -172 -4 -17 -4 -87 0 -157
5 -70 5 -165 1 -212 -4 -47 -7 -331 -5 -631 l2 -545 49 -65 c27 -36 95 -111
150 -167 55 -57 107 -115 115 -130 8 -16 31 -48 53 -72 21 -24 38 -49 38 -55
0 -6 18 -30 39 -54 29 -32 45 -42 69 -42 21 0 32 6 37 19 3 10 1 29 -4 42 -5
13 -22 42 -38 64 -15 22 -57 78 -93 124 -36 46 -113 131 -171 190 -58 59 -112
123 -121 142 -13 29 -16 89 -17 394 -1 198 -4 709 -6 1135 -2 426 -8 822 -12
880 -5 68 -4 138 4 199 6 52 9 100 6 107 -2 7 0 22 7 33 6 12 15 21 21 21 5 0
28 12 52 27 23 15 56 35 72 45 17 10 53 29 81 42 28 13 55 29 58 35 4 6 35 24
69 40 34 15 68 35 76 44 7 9 18 17 23 17 5 0 30 15 56 33 26 17 58 37 72 42
14 6 64 32 112 58 48 27 90 53 93 58 4 5 13 9 21 9 8 0 38 17 67 38 29 21 95
60 147 86 52 26 110 59 129 72 19 13 38 24 42 24 5 0 9 -28 9 -62 0 -35 -5
-144 -10 -242 -5 -99 -12 -401 -15 -670 -3 -270 -7 -646 -9 -836 -2 -190 -9
-522 -16 -738 l-12 -392 27 -36 c15 -19 66 -66 113 -105 48 -38 97 -82 109
-97 12 -15 57 -67 101 -117 44 -49 95 -105 114 -123 24 -22 46 -34 69 -35 33
-2 34 -1 34 34 0 32 -12 49 -100 145 -55 59 -138 146 -185 194 -47 47 -105
102 -129 121 l-44 36 1 134 c0 74 5 231 12 349 7 118 14 433 15 700 2 267 6
665 10 885 3 220 8 479 11 575 2 96 7 185 9 197 3 12 12 23 22 25 15 3 17 36
20 348 1 190 8 386 13 435 6 50 15 117 20 150 5 33 13 98 19 145 6 47 17 139
25 205 10 74 14 164 11 235 -3 63 -7 139 -10 167 -2 29 -2 59 1 68 4 8 10 15
15 15 4 0 37 -21 73 -46 36 -25 75 -57 87 -72 11 -15 57 -67 102 -116 45 -49
123 -120 172 -157 50 -38 118 -95 152 -126 34 -32 90 -80 125 -108 35 -27 101
-82 148 -121 47 -39 132 -117 190 -172 58 -56 117 -107 133 -113 20 -9 30 -9
41 0 8 7 12 25 10 44 -1 17 -3 35 -3 39 -1 4 -53 59 -117 123 -64 63 -120 115
-125 115 -4 0 -41 27 -81 60 -40 33 -82 69 -93 80 -12 11 -24 20 -29 20 -4 0
-33 23 -64 51 -31 28 -67 58 -81 67 -13 9 -45 39 -70 66 -25 26 -66 62 -91 79
-25 17 -106 92 -181 166 -74 75 -151 148 -170 162 -18 14 -53 36 -76 49 -26
14 -46 34 -52 52 -6 16 -21 32 -36 38 -15 6 -38 10 -51 10 -14 0 -53 -19 -87
-43 -34 -24 -93 -58 -131 -76 -38 -18 -97 -41 -130 -53 -34 -11 -100 -40 -148
-64 -48 -24 -89 -40 -91 -36 -3 4 -5 37 -6 75 -1 37 -8 129 -17 205 -8 75 -17
172 -19 215 -4 66 -2 80 13 93 10 9 57 32 104 52 47 20 91 42 99 47 8 6 34 21
59 35 25 13 63 37 85 52 22 16 78 56 125 90 47 33 126 102 175 153 50 51 100
113 112 137 12 23 33 68 47 99 14 31 26 65 26 75 0 11 4 24 9 30 5 5 11 29 14
54 2 25 10 76 17 114 8 44 10 125 7 225 -3 86 -8 177 -11 202 -3 26 -15 78
-26 115 -12 38 -30 98 -41 134 -11 36 -31 85 -44 110 -13 25 -37 72 -54 105
-16 34 -63 99 -104 145 -40 47 -80 90 -88 96 -8 6 -53 32 -101 58 -47 25 -101
53 -120 63 -18 9 -45 22 -60 30 -14 7 -42 13 -60 13 -19 0 -61 9 -93 20 -32
11 -95 22 -139 25 -45 3 -120 7 -168 9z m7 -109 c125 -2 214 -8 260 -18 39 -8
85 -20 104 -26 19 -6 37 -9 39 -6 3 2 58 -23 122 -56 100 -52 130 -73 192
-138 41 -42 87 -96 103 -121 16 -25 40 -67 53 -95 13 -27 29 -61 37 -75 7 -14
16 -41 20 -60 4 -19 11 -40 16 -45 4 -6 18 -58 30 -115 16 -78 22 -141 23
-245 1 -77 -2 -175 -6 -218 -4 -43 -15 -106 -23 -140 -9 -34 -21 -78 -28 -97
-6 -19 -18 -46 -27 -60 -8 -14 -26 -46 -40 -72 -13 -26 -61 -84 -107 -128 -45
-44 -84 -80 -88 -80 -3 0 -29 -18 -58 -40 -29 -21 -60 -46 -69 -55 -10 -8 -22
-15 -26 -15 -5 0 -28 -14 -51 -30 -23 -17 -52 -35 -64 -40 -12 -6 -29 -14 -37
-19 -8 -6 -51 -27 -95 -49 -44 -21 -108 -44 -142 -50 -35 -7 -89 -16 -120 -21
-32 -6 -114 -15 -183 -20 -69 -6 -145 -9 -170 -7 -25 2 -65 7 -90 10 -25 4
-63 12 -85 18 -22 6 -60 17 -85 25 -25 8 -53 19 -62 24 -10 5 -24 9 -32 9 -9
0 -57 19 -108 42 -51 23 -110 52 -130 65 -21 13 -41 23 -46 23 -5 0 -42 24
-83 53 -41 29 -117 97 -170 152 -57 59 -113 130 -138 173 -23 39 -58 120 -77
179 -20 58 -42 147 -50 197 -10 58 -13 116 -9 158 3 38 17 110 29 160 15 59
43 130 76 193 29 55 62 111 74 125 12 14 38 46 57 72 19 26 39 48 46 48 6 0
47 26 90 58 43 32 110 77 149 101 40 23 80 51 89 61 10 11 23 20 29 20 6 0 23
6 38 14 14 8 43 19 65 26 21 6 61 22 88 35 28 13 64 28 80 34 17 5 80 20 140
32 61 12 144 26 185 29 41 4 161 6 265 5z m746 -2663 c3 -4 11 -50 18 -103 7
-53 12 -134 12 -181 0 -46 -5 -97 -11 -113 -6 -16 -11 -54 -11 -84 0 -31 -4
-103 -9 -161 -6 -58 -10 -125 -11 -150 -1 -25 0 -49 1 -55 2 -5 0 -31 -4 -57
-5 -26 -4 -71 1 -100 5 -29 6 -100 2 -158 -4 -58 -15 -132 -23 -164 -9 -33
-19 -108 -22 -168 l-7 -108 -78 -48 c-43 -26 -111 -65 -151 -88 -40 -22 -102
-57 -137 -78 -35 -20 -80 -49 -100 -64 -20 -16 -74 -47 -121 -71 -47 -24 -92
-49 -100 -56 -8 -7 -32 -21 -52 -31 -20 -11 -81 -43 -135 -73 -54 -29 -105
-59 -113 -66 -8 -7 -58 -36 -111 -64 -54 -28 -100 -51 -104 -51 -4 0 -4 111 0
248 4 157 3 271 -4 312 -6 36 -15 137 -21 225 -6 88 -12 212 -14 275 -2 63
-12 192 -22 285 -10 94 -18 199 -19 235 l0 65 40 21 c22 12 69 37 105 56 36
19 169 87 295 152 127 64 264 131 305 147 41 17 147 65 235 109 88 43 205 99
260 124 55 25 102 42 106 38z"/>
<g>
<path d="M9387 12690 c-12 0 -34 -8 -49 -18 -24 -14 -28 -24 -28 -59 0 -35 5
-46 26 -59 22 -15 30 -16 62 -4 21 7 43 17 50 22 6 6 12 21 12 33 0 13 -12 37
-26 54 -14 17 -35 31 -47 31z"/>
</g>
<g>
<path d="M8199 12390 c-4 0 -18 -9 -33 -21 -18 -15 -26 -30 -26 -53 0 -21 8
-40 23 -54 13 -12 33 -22 46 -22 12 0 33 12 46 26 14 15 25 30 25 34 0 4 -7
23 -15 43 -8 20 -23 37 -37 41 -13 3 -26 6 -29 6z"/>
</g>
<g>
<path d="M8988 12330 c-13 -1 -29 -7 -36 -16 -8 -9 -10 -23 -6 -37 4 -12 25
-44 47 -72 22 -27 46 -54 52 -60 6 -5 31 -37 57 -70 25 -33 60 -73 77 -89 17
-17 31 -38 31 -48 0 -9 -16 -33 -35 -52 -20 -20 -35 -45 -35 -59 0 -13 5 -28
12 -35 7 -7 24 -12 38 -12 19 0 41 17 88 71 34 39 62 79 62 90 0 12 -35 58
-82 107 -45 48 -87 92 -93 97 -6 6 -24 28 -40 50 -16 22 -39 50 -50 61 -11 12
-30 33 -42 48 -12 15 -31 26 -45 26z"/>
</g>
<g>
<path d="M9500 11594 c-18 3 -53 -10 -120 -45 -52 -28 -134 -70 -181 -95 -47
-24 -90 -44 -95 -44 -5 0 -50 -21 -99 -46 -50 -25 -97 -52 -106 -60 -10 -9
-15 -24 -12 -37 3 -12 13 -28 21 -34 9 -7 24 -13 35 -13 10 0 56 23 103 50 47
28 86 50 89 50 2 0 46 20 97 45 51 25 128 64 171 88 42 24 91 56 107 70 17 15
30 30 30 35 0 4 -4 12 -8 19 -4 6 -18 14 -32 17z"/>
</g>
</g>
<g>
<path d="M5485 4184 c-39 7 -44 4 -130 -62 -50 -38 -108 -81 -130 -95 -22 -15
-63 -44 -91 -64 -28 -21 -77 -58 -109 -83 -32 -25 -70 -54 -86 -65 -15 -11
-98 -74 -183 -140 -86 -66 -181 -137 -211 -158 -30 -21 -55 -41 -55 -46 0 -4
-33 -32 -72 -62 -40 -29 -102 -79 -138 -110 -36 -31 -74 -61 -85 -67 -11 -6
-51 -36 -90 -66 -38 -31 -73 -56 -76 -56 -4 0 -46 -26 -92 -57 -47 -32 -131
-94 -188 -138 -56 -44 -145 -116 -197 -160 -52 -44 -136 -114 -187 -155 -50
-41 -115 -95 -145 -120 -29 -25 -76 -66 -104 -91 -28 -25 -112 -95 -186 -154
-74 -60 -189 -155 -255 -212 -66 -57 -129 -111 -140 -121 -11 -9 -45 -37 -75
-62 -30 -24 -84 -70 -120 -101 -36 -31 -74 -62 -86 -70 -12 -8 -47 -36 -79
-64 -32 -27 -74 -64 -94 -81 -20 -16 -63 -50 -97 -75 -34 -24 -87 -62 -119
-84 -31 -22 -105 -77 -162 -123 -58 -46 -112 -90 -121 -98 -8 -9 -38 -33 -66
-54 -28 -21 -64 -50 -81 -65 -16 -14 -53 -39 -81 -56 -29 -16 -55 -36 -58 -45
-3 -8 2 -26 12 -39 16 -24 22 -24 152 -25 74 -1 149 -3 165 -5 17 -2 102 -4
190 -5 88 0 177 2 197 4 21 2 42 7 47 10 5 3 184 6 397 6 214 0 430 6 479 12
50 5 149 12 220 13 72 1 166 3 210 4 44 1 104 -1 133 -5 42 -5 56 -4 71 10 13
12 33 17 63 15 24 -1 95 1 158 5 63 3 237 8 385 11 149 3 421 12 605 19 184 8
443 18 575 21 132 3 332 7 445 10 113 3 338 7 500 10 162 3 385 13 495 21 110
8 263 22 340 30 81 9 354 20 645 26 278 6 636 11 795 11 160 0 306 -3 326 -7
24 -5 39 -4 43 3 4 7 41 11 89 11 45 0 134 5 197 10 63 5 219 12 345 15 127 2
490 7 807 10 318 4 649 8 735 11 87 3 248 0 357 -6 110 -6 422 -11 695 -10
273 1 609 3 746 3 138 1 293 -2 345 -7 52 -5 259 -10 460 -11 222 -2 441 -9
560 -19 107 -9 242 -17 300 -18 58 -1 111 1 118 5 6 5 12 26 12 48 0 21 -4 39
-9 39 -5 0 -36 35 -69 78 -33 42 -76 95 -97 117 -20 22 -83 90 -139 150 -56
61 -125 135 -152 165 -28 30 -68 78 -89 105 -22 28 -86 98 -143 156 -57 58
-110 117 -120 130 -9 13 -30 38 -47 55 -16 17 -82 93 -145 169 -63 76 -135
163 -159 194 -24 31 -80 94 -125 141 -45 47 -117 125 -160 172 -44 48 -83 93
-87 100 -4 8 -79 87 -166 177 -87 90 -160 169 -163 175 -3 7 -16 27 -30 45
-14 18 -50 61 -80 96 -30 35 -71 83 -90 107 -19 23 -49 63 -65 88 -16 25 -60
82 -97 127 -38 45 -68 85 -68 90 0 4 -49 58 -109 119 l-108 112 -85 7 c-47 4
-139 3 -204 -3 -66 -6 -267 -8 -449 -6 -181 2 -649 6 -1040 9 -390 3 -731 5
-757 5 -26 -1 -77 6 -114 16 -36 9 -80 13 -97 10 -18 -3 -102 -5 -187 -5 -85
0 -238 0 -340 0 -122 -1 -211 4 -263 14 -43 8 -128 18 -190 21 -61 4 -137 12
-168 19 -35 8 -62 9 -70 4 -8 -5 -48 -7 -89 -3 -41 3 -80 10 -86 15 -7 6 -52
6 -116 0 -58 -5 -125 -5 -149 -1 -24 4 -116 13 -204 19 -88 6 -194 13 -235 16
-41 3 -230 8 -420 11 -190 4 -349 6 -355 5 -5 0 -91 -5 -190 -11 -99 -6 -310
-8 -470 -5 -159 3 -312 7 -340 9 -27 1 -68 6 -90 10z m1438 -93 c9 -2 17 -7
17 -11 0 -4 -7 -13 -15 -20 -8 -7 -15 -19 -15 -26 0 -8 -12 -19 -26 -24 -14
-6 -41 -10 -59 -10 -19 0 -45 -5 -59 -11 -19 -9 -29 -9 -40 0 -10 8 -45 12
-98 11 -46 -1 -110 2 -143 7 -33 4 -76 6 -95 3 -19 -3 -84 -2 -145 3 -60 4
-116 10 -124 13 -12 4 -10 9 7 26 21 21 32 22 329 30 170 4 340 9 378 10 39 2
78 1 88 -1z m-1348 -8 c22 -2 127 -5 232 -6 106 -2 196 -6 199 -10 4 -4 -1
-16 -11 -27 -10 -11 -31 -20 -47 -20 -16 0 -42 7 -58 15 -20 10 -36 12 -52 6
-13 -5 -114 -8 -225 -8 -154 0 -203 3 -203 12 0 7 6 17 13 23 7 6 35 12 62 14
28 2 68 2 90 1z m1655 3 c80 -4 217 -11 305 -17 88 -6 202 -16 253 -23 51 -7
98 -18 104 -24 7 -7 7 -20 1 -39 l-10 -28 -83 4 c-45 2 -97 8 -114 13 -17 5
-80 12 -141 14 -60 2 -175 6 -255 9 -80 3 -169 7 -199 10 -29 2 -55 6 -58 9
-3 2 8 21 23 42 l28 37 146 -7z m835 -83 c22 -3 67 -11 99 -18 33 -6 56 -14
50 -17 -5 -3 -56 -7 -114 -9 -100 -3 -105 -3 -102 16 2 11 9 23 15 27 7 4 30
5 52 1z m-2455 -55 c118 1 232 -1 253 -5 25 -4 36 -10 33 -18 -2 -7 -33 -50
-67 -95 l-63 -82 -106 6 c-58 4 -132 11 -165 16 -34 5 -144 11 -245 12 -102 1
-188 3 -193 5 -4 3 19 24 52 48 32 24 62 48 66 54 3 6 21 19 38 28 18 10 66
20 107 24 41 3 172 6 290 7z m4357 2 c17 0 34 -4 38 -9 3 -5 -4 -12 -15 -16
-11 -4 -34 -3 -52 0 -22 5 -27 9 -17 16 8 5 28 9 46 9z m2087 -5 c95 -3 99 -4
132 -36 19 -18 34 -36 34 -40 0 -3 -32 -9 -72 -11 -39 -3 -85 -2 -102 3 -17 4
-67 10 -111 13 -44 3 -96 8 -115 10 -19 3 -85 7 -147 10 -61 2 -116 7 -122 10
-6 4 -11 13 -11 21 0 10 31 12 163 8 93 -2 181 0 207 6 25 6 89 8 144 6z
m-862 -9 c157 -1 221 -5 229 -13 7 -7 11 -15 8 -17 -3 -3 -54 -5 -114 -6 -61
0 -121 0 -135 0 -14 0 -65 9 -115 19 l-90 18 217 -1z m-4983 -12 c108 -2 246
-8 306 -13 61 -5 142 -9 180 -9 39 0 85 -1 104 -1 28 -1 32 -4 26 -18 -4 -10
-10 -29 -13 -43 -3 -14 -14 -35 -26 -46 -20 -21 -32 -22 -311 -28 -159 -3
-333 -9 -385 -12 -52 -3 -119 -7 -147 -9 -45 -3 -53 -1 -53 14 0 10 10 27 23
38 12 11 40 45 61 75 l39 55 196 -3z m998 -19 c136 -1 298 -8 358 -14 61 -6
142 -13 180 -15 39 -2 82 -4 98 -5 25 -1 27 -4 27 -46 0 -33 -5 -47 -19 -54
-10 -6 -21 -8 -24 -5 -3 4 -196 5 -429 4 -233 -2 -440 -3 -460 -4 -21 0 -41 3
-45 7 -4 5 -1 18 7 30 8 12 21 36 30 52 8 17 19 35 22 41 5 7 86 10 255 9z
m1444 -33 c82 -2 149 -8 156 -14 8 -6 13 -33 13 -66 l0 -55 -262 8 c-145 4
-337 10 -428 14 l-165 6 3 40 c2 22 7 43 11 47 4 4 124 10 266 14 143 3 261 6
262 7 1 1 66 1 144 -1z m374 -9 c6 -1 142 -4 303 -6 161 -2 295 -7 299 -11 4
-3 10 -29 13 -56 4 -28 4 -52 2 -55 -3 -3 -164 -5 -358 -5 -327 0 -353 1 -357
18 -3 9 -8 33 -11 52 -3 19 -2 40 2 47 4 6 28 13 52 15 25 2 50 2 55 1z m1304
-9 c102 -3 189 -8 192 -10 4 -2 19 -33 34 -69 16 -36 26 -68 23 -71 -3 -3
-145 2 -314 11 -170 8 -355 15 -412 15 -73 0 -104 4 -107 13 -3 6 -6 32 -7 57
l-3 45 197 0 c108 0 200 4 204 8 4 3 91 4 193 1z m452 -19 c79 -3 227 -13 329
-22 102 -9 230 -15 286 -14 98 2 101 1 130 -26 16 -15 42 -47 58 -71 20 -30
26 -46 19 -53 -7 -7 -64 -7 -184 0 -96 6 -283 16 -416 22 -133 6 -256 14 -275
18 -26 5 -37 15 -55 51 -12 25 -25 58 -29 74 l-7 28 144 -7z m922 -45 c28 0
117 -7 197 -15 80 -8 208 -18 285 -22 l139 -6 48 -51 c26 -28 48 -57 48 -64 0
-10 -64 -12 -337 -6 -329 6 -338 7 -355 28 -10 11 -18 25 -18 30 0 4 -13 24
-30 43 -16 18 -30 40 -30 48 0 11 13 15 53 15z m-6418 -97 c33 -2 71 -6 85 -8
14 -2 59 -6 100 -10 41 -3 105 -11 143 -16 37 -6 67 -14 67 -19 0 -4 -21 -29
-47 -54 l-46 -46 -86 -1 c-47 0 -228 -2 -401 -3 -173 -2 -327 -7 -341 -11 -15
-4 -29 -3 -32 2 -4 5 8 23 26 39 18 16 55 46 82 66 l50 36 170 15 c94 8 197
13 230 10z m2213 -18 c206 -3 329 -8 336 -15 7 -7 6 -29 -3 -73 -7 -34 -16
-66 -20 -70 -4 -4 -91 -3 -192 2 -101 6 -317 11 -479 10 -162 0 -313 0 -335 1
-21 0 -41 3 -44 5 -2 3 4 24 14 47 10 24 26 52 36 62 15 17 37 19 186 23 92 3
170 6 172 9 2 2 150 2 329 -1z m-964 -7 c160 4 166 3 166 -16 0 -11 -6 -25
-13 -31 -8 -6 -22 -29 -32 -51 -16 -35 -23 -40 -61 -46 -24 -3 -97 -7 -162 -8
-64 0 -184 2 -267 7 -82 4 -212 10 -288 14 -76 3 -139 9 -141 12 -3 3 8 24 23
46 l27 40 144 11 c80 6 210 12 290 13 79 1 145 3 146 4 1 1 77 4 168 5z m1468
-4 c29 -1 154 -4 278 -8 124 -4 294 -9 378 -11 85 -2 157 -6 160 -10 4 -3 9
-35 12 -71 3 -35 2 -71 -3 -80 -6 -10 -18 -13 -35 -10 -15 3 -85 8 -157 12
-71 3 -210 9 -307 13 -98 3 -217 4 -264 1 -47 -3 -88 -2 -91 3 -2 4 -16 7 -30
7 -26 0 -26 0 -20 60 4 34 11 69 16 78 7 13 22 17 63 16z m1328 -32 c296 -3
336 -5 348 -19 6 -9 12 -26 12 -38 0 -12 7 -30 15 -41 8 -10 15 -29 15 -41 0
-21 -4 -22 -97 -25 -54 -2 -116 1 -138 6 -22 4 -158 6 -302 3 -189 -3 -263 -1
-265 7 -2 6 -4 40 -3 76 l0 65 40 5 c22 3 191 4 375 2z m677 -7 c125 -3 264
-8 308 -11 44 -4 136 -9 204 -13 120 -6 125 -7 140 -32 9 -14 23 -37 32 -50
10 -13 20 -34 23 -46 6 -18 2 -22 -21 -25 -15 -2 -143 0 -283 3 -140 4 -329
10 -419 14 l-163 8 -18 41 c-9 23 -20 58 -24 79 l-7 37 228 -5z m833 -49 c47
-4 168 -9 270 -11 102 -3 277 -12 390 -22 l205 -17 27 -30 c15 -16 32 -43 37
-58 l10 -29 -72 5 c-40 3 -110 10 -157 15 -47 6 -200 11 -340 12 -140 1 -277
4 -305 6 -44 4 -53 9 -77 41 -15 20 -38 50 -50 66 l-22 29 84 -7z m1229 -52
c113 -5 226 -8 251 -8 25 0 77 3 117 7 l71 8 18 -30 c10 -17 22 -31 26 -31 4
0 8 -5 8 -11 0 -5 13 -24 30 -42 16 -18 30 -36 30 -40 0 -5 -44 -5 -97 -1 -54
4 -111 6 -128 6 -16 -1 -41 -2 -55 -2 -14 -1 -108 6 -210 14 -102 8 -196 19
-210 24 -14 5 -32 18 -41 28 -9 11 -20 29 -23 41 -4 13 -4 28 -1 34 5 7 68 8
214 3z m-6714 -81 c33 -1 72 -2 88 -3 15 0 27 -6 27 -12 0 -7 -54 -66 -118
-131 l-118 -117 -354 -4 c-195 -3 -416 -9 -490 -14 -74 -5 -137 -7 -139 -5 -2
1 4 12 14 23 10 11 23 20 30 20 6 0 38 24 71 53 33 28 67 57 75 62 9 6 41 29
72 53 52 40 60 43 148 53 51 6 215 14 363 17 149 4 298 6 331 5z m1758 -6 c16
-5 53 -7 83 -4 30 3 141 2 247 -3 105 -5 227 -12 271 -16 l78 -6 -7 -57 c-4
-31 -13 -74 -21 -96 -7 -22 -14 -52 -14 -66 0 -25 -2 -26 -82 -32 -46 -4 -197
-7 -336 -7 -139 0 -328 4 -420 10 -92 5 -198 12 -237 14 -38 2 -82 5 -97 5
-22 1 -25 4 -20 24 3 12 18 42 32 67 15 25 44 71 65 103 l38 57 116 2 c64 1
139 1 166 0 28 -2 64 1 80 6 18 5 42 5 58 -1z m-1248 -1 c132 -4 287 -10 345
-14 58 -4 158 -7 223 -7 64 0 117 -4 117 -8 0 -4 -9 -27 -20 -49 -11 -23 -20
-46 -20 -50 0 -5 -18 -35 -41 -67 l-41 -58 -131 -7 c-73 -3 -307 -7 -521 -7
-221 0 -393 4 -398 9 -6 6 29 47 88 103 53 52 111 109 128 128 l31 34 240 -7z
m2265 -32 c129 -2 336 -9 460 -15 186 -9 227 -14 238 -27 7 -10 12 -48 12 -99
l0 -83 -347 0 c-192 0 -415 -5 -498 -10 -82 -5 -152 -6 -156 -2 -4 4 -1 25 7
47 7 22 14 49 14 60 0 10 8 45 17 77 l17 57 236 -5z m1031 -20 c3 -1 131 -5
285 -8 154 -3 287 -8 296 -11 9 -4 18 -24 22 -51 3 -25 13 -61 22 -79 9 -19
14 -42 12 -52 -3 -17 -17 -18 -168 -17 -91 1 -286 4 -434 8 -148 3 -271 8
-274 10 -2 3 -4 42 -4 87 1 46 6 87 12 93 6 6 43 10 83 9 39 -1 88 1 107 6 19
4 37 7 41 5z m839 -11 c41 -1 107 -7 145 -12 39 -5 202 -12 363 -16 l293 -8
45 -90 46 -90 -144 9 c-78 4 -302 8 -497 9 l-353 0 -19 70 c-10 39 -18 82 -18
97 -1 23 4 27 32 30 17 2 66 2 107 1z m1263 -38 c188 -2 380 -6 427 -9 47 -3
103 -9 126 -11 30 -4 50 -15 76 -43 19 -20 54 -61 77 -91 23 -30 40 -59 38
-64 -2 -8 -65 -10 -193 -9 -104 2 -220 5 -259 7 -38 2 -124 7 -190 10 -66 3
-169 10 -230 16 -60 5 -117 12 -125 14 -9 3 -23 20 -32 37 -10 18 -27 55 -38
81 -11 27 -20 52 -20 57 0 4 154 6 343 5z m815 -35 c37 0 137 -5 222 -10 85
-6 214 -12 285 -15 l130 -4 25 -32 c14 -17 44 -56 68 -85 23 -30 42 -56 42
-59 0 -3 -48 -5 -107 -5 -60 0 -218 3 -352 7 l-243 6 -28 31 c-16 17 -47 58
-69 91 -23 33 -41 63 -41 68 0 4 30 7 68 7z m-3513 -215 c138 0 256 -4 264 -9
11 -7 12 -29 7 -110 -3 -55 -10 -104 -14 -108 -5 -5 -110 -11 -235 -15 -142
-4 -295 -2 -409 6 -101 7 -225 16 -277 21 -51 5 -95 11 -98 14 -3 3 -5 15 -5
28 0 13 4 51 8 86 6 52 10 63 28 67 12 3 125 9 251 13 127 4 343 7 480 7z
m-3667 -7 c188 3 232 1 232 -10 0 -7 -14 -31 -32 -53 -18 -22 -38 -43 -44 -47
-6 -4 -28 -32 -49 -62 l-37 -55 -237 5 c-149 4 -267 1 -321 -6 -47 -6 -139
-13 -205 -15 -66 -2 -187 -6 -268 -9 -90 -4 -147 -3 -145 3 1 5 41 38 88 73
47 35 99 72 115 81 17 9 62 25 101 37 39 11 87 22 105 25 19 2 124 9 234 15
110 6 207 12 215 13 8 2 120 4 248 5z m925 -4 c295 0 538 -2 541 -5 2 -2 -15
-44 -37 -94 -22 -49 -42 -91 -43 -93 -1 -1 -91 -7 -200 -12 -110 -5 -376 -12
-591 -15 -310 -4 -393 -2 -393 8 0 7 36 53 81 102 44 50 86 95 93 100 8 6 206
10 549 9z m842 0 c88 -3 187 -10 221 -15 33 -5 231 -8 440 -6 l379 2 0 -77
c-1 -43 -3 -80 -6 -83 -3 -3 -136 -10 -295 -16 -165 -7 -440 -9 -642 -5 -194
3 -357 8 -362 11 -4 3 12 45 36 94 25 49 50 92 57 95 6 3 84 3 172 0z m2423 0
c81 -2 280 -7 442 -10 174 -4 300 -10 308 -16 6 -6 12 -27 12 -48 0 -20 6 -50
14 -66 8 -16 17 -42 20 -59 l6 -30 -227 2 c-126 1 -341 3 -480 3 -183 1 -254
4 -260 13 -4 6 -6 52 -4 102 1 49 7 95 13 102 7 8 50 11 156 7z m1257 0 c132
-1 317 -7 410 -13 94 -7 177 -14 185 -16 8 -3 25 -27 38 -53 13 -26 33 -64 45
-85 19 -33 20 -39 7 -47 -9 -6 -207 -10 -527 -9 l-512 2 -11 31 c-7 17 -20 60
-30 96 -10 36 -16 68 -12 72 4 4 43 11 87 15 44 4 188 7 320 7z m774 -38 c20
-3 106 -8 191 -11 85 -3 247 -10 360 -15 113 -5 252 -10 309 -10 94 0 107 -2
128 -22 13 -12 23 -26 23 -31 0 -6 11 -24 24 -41 13 -17 26 -41 30 -54 l8 -23
-354 5 c-194 3 -416 9 -493 12 -77 4 -149 8 -159 10 -11 2 -23 7 -27 11 -4 5
-17 24 -28 43 -12 19 -30 53 -40 75 -11 21 -17 43 -14 48 3 5 21 6 42 3z
m1279 -42 c97 -2 233 -6 301 -8 69 -2 154 0 190 5 l66 10 87 -93 c49 -51 88
-97 88 -102 0 -6 -87 -6 -227 -1 -126 4 -241 8 -258 10 -16 1 -96 3 -177 3
l-148 2 -27 43 c-15 23 -38 61 -50 84 -13 23 -23 44 -23 47 0 2 80 2 178 0z
m-5913 -211 c66 -4 248 -8 405 -8 157 0 396 4 533 9 239 8 247 8 247 -10 0
-10 -10 -50 -21 -89 -11 -38 -27 -99 -35 -135 -8 -35 -20 -67 -26 -71 -6 -4
-63 -10 -127 -13 -64 -4 -217 -11 -341 -17 -124 -6 -388 -13 -587 -14 -232 -3
-365 0 -369 6 -3 5 18 56 47 112 29 56 65 127 81 157 15 30 38 61 51 68 17 10
49 11 142 5z m-322 -5 c20 1 37 -1 37 -5 0 -4 -8 -28 -17 -53 -9 -25 -22 -52
-30 -61 -7 -8 -13 -20 -13 -25 0 -5 -15 -32 -34 -60 -18 -29 -36 -63 -39 -76
-4 -14 -17 -36 -30 -50 -22 -24 -29 -25 -178 -31 -85 -3 -240 -15 -345 -26
-112 -12 -312 -23 -487 -27 -163 -4 -297 -5 -297 -2 0 3 15 28 33 56 17 27 37
56 42 64 6 9 34 48 64 87 30 39 58 71 61 71 4 0 26 27 50 60 l43 59 441 2
c243 0 491 4 551 8 61 4 127 9 148 9z m1681 -2 c33 -3 81 -8 106 -10 25 -3 92
-8 150 -13 58 -4 242 -8 410 -8 l305 0 2 -121 2 -121 -67 -7 c-37 -3 -155 -6
-262 -6 -107 -1 -325 -5 -485 -10 -159 -5 -294 -5 -298 -1 -4 5 3 48 16 97 14
49 28 107 32 129 4 22 11 48 17 59 9 16 18 18 72 12z m-3149 -12 c97 -1 179
-5 182 -8 4 -3 0 -18 -8 -32 -7 -14 -36 -51 -63 -82 -27 -32 -73 -93 -102
-137 -29 -44 -66 -96 -83 -115 l-30 -35 -528 0 c-370 0 -577 -5 -690 -15 -90
-7 -166 -10 -170 -7 -4 4 4 15 18 24 13 10 44 36 69 60 25 23 64 57 87 75 23
18 74 60 115 92 40 32 89 74 108 91 19 18 51 36 70 39 19 4 94 9 165 12 72 2
182 7 245 10 63 4 129 8 145 10 17 2 89 6 160 9 72 4 131 8 132 9 1 1 81 1
178 0z m5890 -9 l520 0 62 -125 c34 -69 62 -133 62 -142 1 -16 -12 -18 -136
-19 -76 -1 -151 -3 -168 -4 -16 -2 -120 -4 -230 -4 -110 0 -285 6 -388 13
-111 8 -193 18 -200 25 -6 6 -17 30 -25 54 -7 23 -22 74 -32 112 -11 39 -20
73 -20 77 0 3 8 8 17 10 9 2 251 3 538 3z m740 -1 c17 -2 51 -6 76 -9 26 -3
182 -6 348 -6 165 0 348 -4 406 -8 85 -6 110 -12 125 -27 10 -10 46 -64 79
-119 33 -55 56 -103 52 -107 -4 -5 -242 -8 -529 -8 -288 0 -526 1 -530 4 -4 2
-17 24 -29 48 -13 24 -41 84 -62 133 l-40 90 37 6 c20 3 51 5 67 3z m-1905 -5
l498 -1 12 -26 c7 -15 21 -56 32 -92 10 -36 21 -81 24 -100 l5 -35 -528 0
c-290 0 -534 4 -540 8 -9 6 -13 40 -13 112 0 57 3 111 6 119 6 15 57 16 504
15z m3115 -26 c33 -2 121 -7 195 -13 74 -6 216 -11 315 -11 l180 -1 107 -114
c59 -63 113 -124 119 -136 l11 -21 -188 7 c-104 3 -279 9 -389 12 -110 3 -231
9 -269 13 -54 5 -71 10 -80 26 -6 11 -25 40 -42 65 -17 25 -45 71 -62 102 -18
32 -32 60 -32 62 0 3 17 6 38 8 20 2 64 2 97 1z m-3937 -326 l227 -2 0 -135
c0 -74 -2 -153 -5 -175 l-5 -40 -130 -11 c-71 -7 -209 -14 -305 -15 -96 -2
-303 -2 -460 -1 -157 2 -291 6 -298 10 -9 6 -8 19 3 57 8 28 24 101 35 164 11
63 22 116 24 118 2 2 41 6 87 8 46 3 198 7 338 10 140 2 256 7 258 9 3 3 107
4 231 3z m872 1 l541 2 15 -35 c8 -19 21 -65 30 -103 8 -37 24 -94 35 -126 10
-33 19 -66 19 -75 0 -14 -59 -16 -595 -17 l-595 -2 0 173 c0 94 2 174 5 177 3
2 248 5 545 6z m749 -24 c36 -4 264 -7 506 -8 242 0 466 3 498 8 l58 8 40 -89
c22 -48 62 -133 90 -188 27 -55 49 -107 49 -116 0 -12 -11 -15 -57 -12 -32 1
-134 5 -228 7 -93 3 -233 10 -310 15 -77 5 -246 15 -375 21 -129 6 -244 12
-255 14 -13 2 -21 12 -23 27 -2 13 -14 58 -27 99 -13 41 -28 103 -35 138 -6
34 -8 67 -5 73 5 7 30 8 74 3z m-2706 -6 c39 1 57 -2 58 -10 1 -7 0 -26 -1
-41 -1 -16 -12 -85 -25 -154 -13 -69 -28 -129 -35 -133 -6 -4 -80 -10 -163
-14 -84 -3 -188 -13 -232 -21 -44 -8 -136 -19 -205 -25 -69 -5 -213 -15 -320
-21 -107 -6 -265 -15 -350 -20 -85 -4 -199 -10 -253 -12 -67 -3 -100 -1 -103
7 -2 6 18 54 46 106 28 52 72 139 100 192 27 53 54 99 59 102 5 4 173 9 373
12 200 2 392 7 428 9 36 2 178 8 315 13 138 5 276 9 308 10z m4404 2 c280 -1
525 -3 545 -7 35 -5 41 -12 95 -102 32 -53 73 -118 91 -144 18 -27 44 -68 58
-92 13 -24 24 -49 24 -56 0 -9 -65 -11 -292 -5 -161 4 -309 9 -328 11 -19 2
-146 4 -282 4 l-247 2 -23 42 c-13 23 -34 67 -47 97 -13 30 -39 87 -56 125
-18 39 -35 82 -39 97 l-6 28 507 0z m816 -20 c56 -1 179 -5 272 -10 94 -5 257
-12 364 -14 106 -3 197 -8 200 -13 4 -4 27 -33 52 -63 24 -30 58 -73 74 -95
16 -22 65 -78 109 -125 l79 -85 -34 -3 c-19 -2 -247 1 -508 7 -312 7 -479 15
-487 22 -7 6 -35 48 -61 92 -26 45 -52 91 -58 102 -6 11 -32 52 -58 91 -26 39
-47 77 -47 83 0 8 30 12 103 11z m-6793 -22 c21 0 30 -4 30 -15 0 -9 -6 -24
-14 -32 -8 -9 -31 -45 -50 -81 -20 -36 -61 -114 -91 -175 -31 -60 -57 -110
-59 -112 -1 -1 -148 -5 -327 -9 -178 -3 -484 -6 -681 -7 -196 -1 -359 1 -363
5 -4 4 -1 15 6 26 8 10 33 41 57 68 24 27 72 87 107 134 35 47 73 95 84 108
17 19 30 22 88 22 37 0 183 2 323 5 140 3 289 10 330 15 41 6 116 14 165 20
50 6 151 13 225 16 74 3 136 7 138 8 1 2 16 3 32 4z m-1898 -72 c247 0 453 -3
459 -7 8 -5 8 -12 0 -27 -6 -11 -17 -26 -24 -34 -7 -7 -37 -44 -66 -83 -29
-38 -81 -101 -114 -138 l-62 -69 -155 6 c-85 3 -245 1 -355 -4 -110 -6 -276
-12 -370 -14 -93 -2 -240 -9 -325 -15 -85 -5 -193 -15 -240 -20 -47 -6 -107
-11 -135 -11 l-50 0 45 38 c25 20 88 75 142 122 53 47 120 105 150 129 29 24
62 47 73 51 11 4 63 17 115 28 52 12 154 26 225 32 72 6 155 12 185 14 30 1
256 2 502 2z m5905 -304 c54 -1 120 -3 147 -5 l50 -2 19 -85 c10 -47 30 -116
44 -155 14 -38 31 -95 38 -125 7 -30 27 -104 45 -165 17 -60 36 -127 41 -149
5 -21 7 -41 5 -44 -3 -3 -40 -6 -83 -8 -43 -1 -249 -3 -458 -3 -209 -1 -427
-5 -485 -11 -58 -5 -160 -11 -227 -12 -67 -2 -124 0 -128 3 -3 3 -8 87 -10
185 -3 98 -8 224 -11 279 -3 55 -8 137 -12 183 -4 46 -4 88 0 95 5 8 135 12
465 15 251 1 458 4 459 5 1 1 47 1 101 -1z m-2323 -20 c17 -4 227 -7 466 -7
239 0 500 2 580 5 l145 5 12 -120 c6 -66 12 -226 12 -355 0 -130 3 -243 6
-252 4 -9 1 -19 -5 -23 -7 -4 -143 -9 -303 -10 -161 -1 -482 -6 -714 -10 -233
-5 -423 -5 -423 -1 0 4 9 47 20 94 12 48 25 105 31 127 5 22 11 49 14 60 2 11
13 67 25 125 12 58 26 121 31 140 4 19 16 69 27 110 10 41 25 85 32 97 11 18
20 20 44 15z m2656 3 c10 -3 92 -8 182 -10 89 -3 195 -7 233 -10 39 -3 142 -9
230 -15 88 -6 221 -14 295 -18 74 -5 167 -7 205 -6 39 2 75 0 81 -4 6 -4 25
-28 42 -54 18 -26 32 -50 32 -55 0 -4 26 -62 59 -128 32 -66 77 -158 99 -205
23 -47 50 -107 62 -134 11 -27 18 -56 15 -64 -5 -12 -38 -13 -238 -6 -127 5
-277 9 -332 9 -55 -1 -257 -3 -449 -5 l-349 -5 -13 50 c-8 28 -21 79 -30 115
-8 36 -19 74 -24 85 -5 11 -11 29 -13 40 -3 11 -19 65 -36 120 -18 55 -43 142
-57 193 -13 51 -22 98 -18 103 3 5 14 7 24 4z m-2891 -16 l84 1 -6 -49 c-3
-27 -10 -58 -16 -68 -5 -10 -18 -56 -30 -103 -11 -47 -23 -112 -26 -144 -4
-33 -11 -66 -16 -75 -4 -9 -17 -53 -28 -97 -11 -45 -29 -113 -41 -153 -12 -40
-28 -75 -38 -80 -9 -4 -53 -11 -97 -14 -44 -3 -150 -13 -235 -22 -85 -8 -263
-19 -395 -24 -132 -5 -361 -9 -510 -10 -148 -1 -334 -4 -411 -7 -93 -4 -144
-3 -148 4 -3 6 10 46 30 89 19 43 58 123 86 178 28 55 59 116 68 135 10 19 34
71 55 115 20 44 44 91 52 105 8 14 23 44 34 67 l19 41 108 6 c59 3 157 11 217
16 61 6 218 15 350 20 132 6 303 17 380 26 77 8 205 21 285 28 80 7 183 14
229 15z m4496 -36 c105 -2 242 -5 305 -8 63 -3 225 -7 360 -10 l245 -6 28 -31
c15 -18 55 -79 90 -135 34 -57 72 -118 84 -136 11 -18 43 -68 69 -112 26 -44
56 -87 66 -96 10 -9 18 -21 18 -26 0 -5 11 -20 25 -33 14 -13 25 -34 25 -47
l0 -23 -237 2 c-131 1 -410 0 -620 -2 -313 -3 -384 -1 -398 10 -9 8 -25 32
-35 54 -11 23 -26 65 -36 94 -9 28 -20 52 -24 52 -5 0 -16 23 -25 50 -9 28
-21 50 -26 50 -5 0 -12 12 -15 28 -4 15 -25 61 -47 102 -23 41 -53 99 -69 129
-15 30 -28 62 -28 72 0 12 9 19 28 21 15 2 113 3 217 1z m1073 -17 c10 -3 62
-8 117 -12 55 -4 174 -9 265 -10 91 -2 271 -4 401 -7 215 -3 239 -5 260 -23
13 -10 44 -44 69 -74 24 -30 62 -75 85 -100 22 -25 53 -61 68 -80 15 -19 75
-83 132 -141 58 -59 105 -111 105 -116 0 -5 23 -31 50 -58 28 -27 50 -53 50
-57 0 -4 -39 -8 -87 -8 -49 0 -128 5 -178 11 -49 6 -277 12 -507 14 -229 2
-426 6 -437 10 -12 4 -43 38 -69 77 -26 38 -54 81 -62 94 -8 13 -44 70 -79
126 -35 57 -75 116 -88 131 -12 16 -23 33 -23 38 0 6 -18 37 -40 70 -22 34
-45 70 -51 80 -5 11 -7 24 -4 30 4 5 14 8 23 5z m-7338 -51 c41 -4 77 -9 79
-11 2 -2 -1 -14 -6 -27 -6 -12 -46 -94 -89 -182 -43 -88 -92 -185 -109 -215
-17 -30 -55 -108 -85 -173 -30 -65 -61 -123 -69 -130 -9 -8 -84 -14 -230 -18
-119 -3 -416 -13 -661 -22 -245 -10 -512 -21 -595 -25 -82 -4 -158 -6 -167 -4
-10 3 -18 8 -18 13 0 5 45 64 100 132 55 67 125 151 156 187 30 36 82 97 116
137 34 40 70 87 82 106 12 19 37 56 56 83 19 27 53 68 75 91 l40 42 619 5
c341 3 622 8 625 12 3 3 40 3 81 -1z m-1678 -5 c186 0 198 -1 198 -19 0 -10
-16 -38 -35 -62 -19 -24 -62 -80 -97 -123 -35 -44 -78 -100 -97 -125 -19 -25
-51 -64 -70 -86 -20 -22 -56 -61 -81 -86 -25 -26 -57 -60 -72 -77 -15 -17 -32
-41 -39 -54 -6 -13 -41 -57 -76 -100 -63 -75 -66 -76 -116 -80 -29 -2 -131 -5
-227 -7 -96 -1 -197 -7 -224 -12 -27 -5 -106 -12 -175 -15 -69 -3 -286 -8
-481 -11 -195 -3 -450 -5 -567 -5 -116 -1 -223 2 -237 6 -14 3 -26 10 -26 14
0 5 37 38 83 74 45 36 121 96 168 134 48 38 117 92 154 119 37 28 81 62 98 76
18 14 39 29 47 32 8 4 47 33 86 64 40 32 125 103 190 159 l119 101 90 7 c50 3
128 10 175 15 47 5 92 11 101 15 8 4 51 8 95 11 43 2 243 8 443 14 200 5 366
12 369 15 3 3 95 6 204 6z"/>
</g>
</g>
</svg>
