<?xml version="1.0" standalone="no"?>
<!DOCTYPE svg PUBLIC "-//W3C//DTD SVG 20010904//EN"
 "http://www.w3.org/TR/2001/REC-SVG-20010904/DTD/svg10.dtd">
<svg version="1.0" xmlns="http://www.w3.org/2000/svg"
 width="1937.000000pt" height="1090.000000pt" viewBox="0 0 1937.000000 1090.000000"
 preserveAspectRatio="xMidYMid meet">
<metadata>
Created by potrace 1.16, written by Peter Selinger 2001-2019
</metadata>
<g transform="translate(0.000000,1090.000000) scale(0.100000,-0.100000)"
fill="#000000" stroke="none">
<g>
<path d="M10350 10350 c-14 0 -36 -9 -49 -19 -22 -17 -23 -23 -20 -109 3 -77
7 -94 27 -114 12 -14 22 -29 22 -35 0 -5 32 -42 72 -81 l72 -72 -25 -27 c-14
-16 -35 -41 -46 -58 -11 -16 -23 -44 -27 -60 -4 -17 -15 -45 -26 -63 -11 -18
-27 -32 -36 -32 -8 0 -44 24 -78 53 -48 39 -64 58 -63 77 0 14 -3 35 -7 48 -4
12 -25 31 -49 42 -25 12 -61 20 -95 20 -29 0 -63 -5 -75 -11 -12 -6 -32 -21
-44 -32 -12 -11 -32 -25 -44 -31 -13 -6 -35 -31 -50 -56 -16 -26 -28 -60 -28
-82 -1 -20 4 -48 11 -62 6 -14 19 -28 30 -31 10 -4 28 -3 41 0 12 4 36 17 52
29 17 12 51 30 77 40 26 10 51 22 54 27 3 6 19 7 36 3 17 -3 51 -22 77 -40 25
-19 63 -48 84 -65 26 -21 35 -35 29 -42 -5 -7 -17 -37 -26 -67 -9 -30 -22 -63
-27 -74 -6 -10 -17 -39 -25 -65 -7 -25 -14 -56 -14 -69 0 -12 -6 -32 -12 -45
-7 -12 -15 -24 -18 -27 -3 -3 -12 -25 -20 -50 -7 -25 -17 -49 -21 -55 -4 -5
-7 -26 -7 -45 0 -20 -8 -54 -17 -75 -14 -33 -18 -79 -21 -250 -1 -115 -3 -213
-3 -217 -1 -5 -9 -6 -18 -4 -10 2 -35 10 -55 20 -21 9 -42 16 -49 16 -6 0 -23
7 -37 15 -15 8 -72 28 -127 45 -54 16 -122 30 -150 30 -27 1 -70 5 -95 11 -25
5 -82 14 -127 18 -45 5 -91 15 -101 23 -10 7 -33 29 -50 49 -17 19 -47 44 -66
54 -20 11 -36 24 -36 30 0 5 22 33 48 60 32 33 52 64 59 92 9 36 7 48 -15 97
-19 40 -32 56 -46 56 -10 0 -39 -16 -63 -36 -28 -23 -56 -60 -78 -105 -20 -38
-39 -69 -43 -69 -5 0 -19 11 -32 25 -13 14 -29 25 -36 25 -7 0 -25 -5 -39 -12
-18 -8 -25 -19 -25 -39 0 -22 13 -37 63 -77 35 -27 77 -57 93 -66 16 -8 41
-27 57 -40 15 -14 27 -27 27 -30 0 -2 -19 -6 -42 -9 -24 -2 -72 -10 -108 -16
-36 -6 -90 -19 -120 -28 -30 -8 -71 -22 -92 -31 -20 -8 -42 -25 -48 -37 -7
-13 -23 -28 -37 -34 -14 -6 -52 -35 -84 -63 -33 -28 -59 -56 -59 -63 0 -7 -11
-32 -24 -56 -13 -26 -26 -73 -30 -110 -7 -61 -6 -67 19 -91 23 -23 32 -26 76
-22 27 2 61 9 75 14 15 6 35 21 45 35 11 13 28 27 39 30 11 4 28 21 37 38 9
18 19 41 21 52 2 11 5 39 5 63 1 28 -4 46 -13 52 -8 5 -11 13 -6 17 4 4 60 11
124 15 64 3 158 10 208 13 64 5 93 4 98 -4 4 -6 14 -11 23 -11 8 0 54 -19 101
-41 48 -23 94 -46 102 -50 8 -5 22 -12 30 -16 8 -3 63 -29 121 -58 66 -32 142
-80 200 -127 52 -41 134 -112 183 -159 49 -46 96 -100 104 -119 7 -19 20 -42
27 -50 7 -8 22 -47 34 -86 12 -39 21 -82 21 -96 0 -13 4 -28 9 -34 5 -5 12
-36 16 -69 3 -33 6 -177 6 -320 0 -143 -5 -345 -11 -450 -6 -104 -17 -215 -23
-245 -6 -30 -9 -63 -8 -73 1 -10 -2 -24 -8 -31 -6 -7 -13 -35 -16 -62 -3 -26
-12 -90 -21 -142 -8 -51 -13 -100 -10 -108 3 -8 -1 -40 -8 -72 -7 -31 -19 -88
-26 -127 -7 -38 -20 -88 -28 -110 -9 -22 -24 -52 -34 -66 -11 -14 -32 -33 -49
-43 -16 -9 -60 -21 -97 -26 -37 -5 -98 -16 -137 -25 -38 -8 -79 -19 -90 -24
-11 -5 -48 -21 -81 -35 -34 -14 -71 -26 -83 -26 -12 0 -39 -9 -60 -19 -20 -11
-43 -27 -50 -35 -8 -9 -20 -16 -28 -16 -9 0 -31 -12 -49 -27 -19 -16 -49 -40
-68 -55 -18 -16 -38 -28 -44 -28 -5 0 -40 -30 -76 -67 -55 -55 -66 -73 -63
-93 3 -14 8 -36 11 -48 3 -13 -1 -34 -9 -45 -7 -12 -17 -49 -20 -82 -4 -37 -1
-110 9 -190 9 -71 21 -142 27 -157 6 -15 8 -31 5 -37 -4 -6 2 -28 13 -49 11
-21 25 -67 31 -103 6 -35 17 -71 24 -79 7 -8 18 -49 23 -90 6 -41 21 -97 33
-125 13 -27 24 -56 26 -62 1 -7 9 -20 18 -29 9 -9 23 -31 30 -49 8 -17 29 -42
47 -55 19 -13 48 -36 64 -51 17 -15 49 -37 73 -49 23 -12 44 -26 47 -30 3 -5
-15 -18 -39 -29 -24 -12 -74 -27 -112 -35 -38 -7 -79 -18 -91 -24 -12 -7 -40
-12 -63 -12 -32 0 -41 -3 -38 -16 2 -8 15 -23 30 -32 26 -16 32 -15 95 5 38
12 84 24 103 27 19 2 76 14 125 25 50 12 101 19 115 16 14 -3 44 -15 68 -27
23 -12 41 -26 39 -32 -2 -6 -12 -12 -23 -14 -10 -2 -32 -9 -49 -17 -16 -8 -56
-25 -87 -39 -31 -15 -62 -26 -67 -26 -6 0 -11 -7 -11 -15 0 -10 10 -15 33 -15
17 0 71 14 120 30 48 17 114 37 147 44 39 9 78 12 113 7 28 -4 62 -13 75 -20
15 -8 38 -10 63 -6 21 4 39 3 39 -2 0 -4 -17 -16 -38 -25 -20 -10 -68 -28
-107 -42 -38 -13 -85 -30 -102 -37 -18 -8 -33 -17 -33 -21 0 -4 11 -8 24 -8
12 0 38 5 57 11 19 6 43 14 54 19 11 5 78 23 149 40 71 17 154 40 185 50 31
10 101 22 156 25 l100 6 -25 -20 c-14 -11 -34 -24 -45 -27 -11 -4 -33 -16 -50
-28 -16 -11 -77 -37 -134 -56 -57 -19 -104 -39 -105 -45 -1 -5 9 -11 22 -13
12 -2 36 4 54 12 17 9 39 16 48 16 10 0 42 10 71 22 30 12 58 25 64 30 5 4 17
8 27 8 9 0 34 7 55 16 21 9 51 22 66 30 16 8 34 14 40 14 7 0 24 11 38 24 15
13 31 32 37 43 7 12 31 24 65 33 30 7 77 26 103 43 27 17 76 40 109 52 33 12
74 31 92 41 17 11 53 38 78 59 26 22 79 70 118 108 39 37 74 67 77 67 3 0 27
24 54 54 26 30 70 87 97 127 27 39 49 76 49 80 0 5 13 37 29 71 16 35 34 90
41 123 7 33 21 81 31 106 10 26 16 49 13 52 -2 2 0 17 6 32 6 16 15 128 21
249 l9 219 -32 32 c-18 18 -41 44 -51 59 -10 15 -42 38 -70 51 -29 12 -79 35
-112 50 -33 15 -67 33 -75 40 -8 7 -40 20 -70 30 -30 10 -82 31 -115 46 -33
15 -94 37 -135 49 -41 12 -89 29 -106 37 -19 9 -36 28 -46 51 -8 20 -24 62
-35 92 -12 30 -28 87 -37 125 -10 45 -17 139 -20 260 -3 139 0 213 11 280 8
49 19 119 24 155 5 36 13 108 19 160 5 52 14 131 19 175 5 44 23 136 39 205
17 69 35 150 41 180 6 30 13 73 16 95 3 22 7 69 10 104 3 35 8 69 13 75 5 6
15 27 22 46 7 19 37 71 66 116 29 44 71 100 93 125 22 24 43 52 47 63 3 10 42
55 85 100 43 44 116 118 161 164 46 45 108 99 138 120 30 20 77 55 104 77 27
22 60 45 74 52 13 7 31 13 38 13 8 0 37 -23 64 -50 l51 -51 -23 -42 c-13 -23
-40 -62 -60 -86 -21 -24 -38 -52 -38 -62 0 -10 5 -21 10 -24 6 -4 8 -10 6 -14
-3 -4 2 -17 10 -29 12 -17 25 -22 57 -22 23 1 58 9 77 18 19 10 51 28 72 40
20 13 44 40 54 60 11 24 17 62 18 108 0 51 -5 83 -19 113 -12 26 -29 44 -43
48 -13 3 -29 0 -35 -6 -6 -6 -18 -11 -26 -11 -8 0 -28 12 -43 27 -15 15 -28
34 -28 42 0 9 28 34 62 56 35 22 72 44 83 48 11 5 42 26 68 49 27 22 70 52 95
65 26 14 62 33 79 42 18 10 40 24 48 31 8 7 25 10 38 6 14 -3 43 5 77 22 29
15 65 33 79 40 14 8 35 33 45 55 10 23 27 51 36 62 10 11 25 35 35 54 14 27
16 52 13 119 -4 74 -8 87 -28 104 -13 10 -30 16 -39 13 -9 -4 -38 -8 -64 -11
-36 -3 -58 -12 -87 -36 -22 -18 -40 -41 -40 -50 0 -9 -4 -19 -9 -23 -6 -3 -17
-19 -25 -37 -9 -17 -16 -49 -16 -70 0 -22 -5 -59 -11 -83 -10 -39 -16 -46 -48
-55 -20 -5 -46 -10 -59 -10 -12 0 -48 -9 -79 -20 -32 -11 -61 -20 -65 -20 -5
0 -7 27 -6 60 2 45 -2 63 -14 72 -8 7 -18 22 -21 33 -3 11 -16 45 -29 75 -13
30 -37 74 -53 96 -17 23 -47 51 -67 63 -20 11 -48 21 -61 21 -13 0 -30 -8 -38
-17 -8 -10 -23 -36 -32 -57 -10 -21 -21 -66 -24 -100 -4 -41 0 -78 10 -114 9
-29 26 -66 37 -82 12 -17 27 -30 33 -31 7 0 27 -20 45 -45 17 -24 32 -49 32
-54 0 -5 -22 -16 -48 -24 -27 -7 -71 -24 -98 -36 -27 -12 -80 -38 -119 -57
-38 -19 -94 -44 -123 -55 -29 -11 -88 -39 -131 -63 -42 -24 -99 -49 -127 -55
-27 -6 -78 -20 -114 -32 -36 -12 -69 -24 -75 -28 -5 -4 -21 -10 -35 -14 -14
-4 -46 -9 -72 -12 -43 -5 -48 -4 -48 15 0 11 5 23 10 26 6 4 26 32 46 63 20
31 62 87 93 126 31 38 71 94 89 125 18 31 44 81 58 111 20 42 28 79 35 170 4
63 6 130 2 149 -4 24 -24 52 -67 95 -34 34 -83 72 -110 85 -40 19 -58 23 -104
18 -42 -5 -61 -12 -74 -29 -14 -17 -17 -33 -13 -62 3 -21 17 -57 30 -80 13
-22 34 -48 46 -56 12 -8 37 -27 57 -42 19 -16 43 -28 53 -28 11 0 19 -5 19
-10 0 -6 -10 -25 -22 -43 -13 -18 -34 -45 -47 -62 -13 -16 -37 -38 -52 -47
-16 -10 -29 -24 -29 -32 0 -7 -25 -32 -55 -55 -30 -23 -55 -46 -55 -52 0 -5
-17 -27 -37 -48 -21 -22 -58 -62 -83 -91 -25 -28 -62 -69 -84 -91 -21 -22 -55
-49 -76 -59 -30 -15 -40 -17 -48 -7 -6 7 -18 33 -26 57 -8 25 -19 74 -25 110
-5 36 -12 96 -16 134 -3 38 -1 96 5 130 5 33 18 98 27 144 17 81 19 83 78 135
33 29 74 62 90 74 17 11 33 21 38 22 4 1 11 1 17 1 5 0 17 11 26 25 14 21 15
31 6 50 -9 18 -19 25 -41 25 -17 0 -51 -15 -81 -35 -29 -19 -57 -35 -62 -35
-6 0 -7 7 -3 18 4 9 10 31 12 47 2 17 8 39 13 50 5 11 11 34 15 50 3 17 10 48
15 70 6 22 13 60 16 85 4 25 10 53 15 62 5 9 9 31 9 49 0 17 5 49 12 70 8 27
20 42 40 51 16 7 31 24 35 37 3 13 3 60 0 104 -5 72 -8 84 -31 102 -14 11 -26
25 -26 30 0 5 -18 26 -41 47 -22 20 -50 40 -62 44 -12 3 -29 12 -37 19 -8 8
-35 20 -60 29 -25 9 -56 16 -70 16z m36 -120 c8 0 37 -9 63 -21 28 -12 63 -38
84 -64 21 -24 42 -56 47 -71 7 -19 7 -30 -1 -40 -6 -8 -20 -14 -31 -14 -11 0
-39 13 -62 29 -23 16 -54 45 -68 63 -13 18 -30 48 -36 67 -7 19 -12 38 -12 42
0 5 7 9 16 9z m-378 -408 c6 -2 12 -8 12 -13 0 -5 -12 -12 -27 -15 -16 -4 -35
-12 -43 -18 -8 -6 -26 -17 -39 -24 l-24 -14 21 29 c12 17 27 35 34 40 7 6 22
13 33 15 11 2 26 2 33 0z m489 -15 c3 -3 0 -27 -6 -54 -6 -26 -20 -91 -31
-143 -11 -52 -20 -113 -20 -135 -1 -22 -7 -49 -15 -59 -8 -11 -15 -28 -15 -38
0 -10 -7 -29 -15 -42 -9 -13 -20 -52 -26 -87 -6 -35 -14 -68 -20 -75 -5 -6 -8
-20 -7 -30 1 -11 -1 -37 -6 -59 -4 -22 -14 -58 -22 -80 -11 -30 -14 -74 -11
-182 3 -77 8 -147 13 -155 5 -7 9 -29 10 -48 2 -19 14 -64 28 -99 14 -36 36
-75 48 -88 12 -13 33 -23 47 -23 14 0 53 15 86 34 43 23 87 63 153 137 51 57
96 108 100 113 4 4 52 52 108 105 55 53 125 124 154 159 33 38 57 59 63 53 6
-6 -11 -50 -43 -115 -31 -63 -66 -117 -85 -134 -18 -15 -42 -46 -54 -69 -12
-24 -26 -43 -31 -43 -6 0 -10 -6 -10 -13 0 -7 -13 -25 -28 -40 -16 -15 -39
-49 -52 -75 -13 -26 -34 -60 -47 -75 -12 -16 -23 -41 -23 -57 0 -15 6 -33 14
-39 7 -6 38 -12 67 -13 30 -1 81 4 114 11 33 7 84 19 114 28 29 8 66 16 82 18
15 2 46 9 68 15 22 6 43 15 46 20 3 6 14 10 24 10 9 0 81 32 159 70 78 39 144
70 148 70 3 0 18 8 32 19 15 10 38 22 52 26 14 4 66 27 117 51 50 25 117 53
147 64 31 10 56 16 56 12 0 -4 -26 -25 -58 -47 -31 -22 -64 -44 -74 -50 -9 -5
-46 -27 -82 -48 -36 -20 -78 -48 -93 -61 -15 -13 -64 -44 -108 -70 -44 -25
-100 -65 -125 -89 -25 -24 -54 -50 -66 -58 -11 -8 -40 -37 -65 -65 -24 -28
-51 -61 -59 -73 -8 -13 -41 -45 -73 -71 -31 -27 -73 -69 -92 -94 -19 -26 -35
-49 -35 -52 0 -3 -13 -19 -30 -37 -16 -18 -30 -35 -30 -39 0 -5 -22 -36 -50
-70 -30 -38 -57 -85 -70 -122 -11 -34 -21 -70 -23 -81 -1 -11 -6 -26 -10 -33
-5 -7 -11 -43 -14 -80 -2 -37 -9 -84 -13 -106 -5 -21 -6 -44 -3 -51 2 -7 -3
-27 -11 -44 -9 -16 -16 -43 -16 -59 0 -16 -9 -58 -20 -93 -11 -35 -24 -100
-30 -144 -6 -44 -12 -91 -14 -105 -3 -14 -9 -77 -15 -140 -6 -63 -17 -161 -26
-218 -8 -56 -19 -111 -25 -121 -6 -12 -8 -103 -5 -237 3 -165 8 -233 20 -274
9 -30 20 -71 25 -90 5 -19 15 -53 24 -75 8 -22 15 -49 16 -61 0 -11 18 -48 39
-81 21 -33 44 -63 49 -67 6 -4 24 -26 39 -49 16 -23 32 -49 36 -57 5 -8 19
-33 32 -55 13 -22 31 -53 40 -68 9 -16 15 -30 13 -33 -2 -2 -42 10 -88 26 -47
16 -91 30 -99 30 -7 0 -36 18 -64 40 -27 22 -61 43 -74 46 -17 5 -31 0 -49
-16 -13 -13 -22 -26 -19 -28 2 -3 -6 -19 -18 -35 -12 -17 -27 -44 -33 -61 -6
-16 -16 -32 -22 -34 -7 -2 -12 1 -12 8 0 6 -9 20 -19 31 -10 11 -24 40 -31 63
-6 24 -23 56 -36 71 -13 15 -24 34 -24 42 0 8 -11 13 -29 13 -15 0 -40 -9 -54
-20 -14 -11 -30 -20 -37 -20 -6 0 -41 -16 -76 -36 -36 -20 -86 -43 -112 -51
-26 -8 -72 -21 -102 -29 -30 -7 -72 -13 -92 -14 -21 0 -38 3 -38 7 0 4 12 20
27 35 15 15 39 49 54 76 16 26 38 67 50 92 12 25 35 73 51 106 15 34 28 65 28
70 0 5 9 25 19 45 10 19 26 62 34 94 9 33 22 92 31 130 8 39 22 122 32 185 9
63 22 149 30 190 7 41 19 109 27 150 8 41 15 110 16 152 1 43 6 124 11 180 6
57 13 229 16 383 3 182 1 311 -6 370 -6 49 -14 92 -19 95 -4 3 -8 23 -9 45 -2
22 -9 61 -17 87 -8 27 -26 72 -40 100 -14 29 -44 71 -65 93 -22 22 -54 56 -72
75 -18 20 -51 49 -73 65 -22 16 -71 58 -109 92 -38 35 -99 83 -135 107 -36 23
-109 63 -161 88 -52 25 -106 49 -120 53 -14 4 -29 11 -35 15 -5 5 -41 24 -78
44 -38 19 -95 40 -127 47 -44 9 -83 8 -162 -1 -56 -6 -105 -13 -108 -15 -3 -2
-12 0 -19 4 -9 6 2 14 35 24 27 9 67 18 90 20 23 2 92 0 155 -4 63 -5 155 -15
204 -23 50 -8 131 -20 180 -27 50 -6 120 -20 157 -30 37 -11 70 -24 73 -29 3
-6 14 -10 23 -10 9 0 54 -12 101 -26 47 -15 93 -33 101 -40 9 -7 34 -16 57
-20 l41 -6 6 38 c3 22 5 131 4 244 -1 161 2 225 16 300 10 52 27 122 38 155
11 33 31 78 43 100 13 22 26 63 30 90 4 28 17 73 30 100 12 28 33 75 45 105
13 30 36 72 51 92 16 20 29 41 29 46 0 5 14 40 31 77 16 37 33 65 36 62z m492
-487 c10 0 36 -13 59 -29 22 -17 43 -39 47 -51 4 -12 4 -24 1 -27 -3 -4 -17
-1 -31 5 -14 7 -44 28 -65 48 -22 20 -37 41 -34 45 3 5 13 9 23 9z m1515 -110
c5 0 15 -8 22 -17 7 -10 14 -30 14 -46 0 -16 -18 -54 -42 -91 -24 -35 -51 -69
-60 -75 -10 -6 -24 -8 -31 -5 -12 4 -12 14 -2 62 7 31 18 73 24 92 6 19 23 45
38 57 16 13 32 23 37 23z m-674 -10 c4 0 14 -8 22 -17 9 -10 31 -45 49 -78 19
-33 39 -80 46 -105 7 -25 12 -55 13 -67 0 -16 -6 -23 -18 -23 -10 0 -32 15
-49 33 -17 17 -34 42 -38 55 -3 12 -10 22 -14 22 -4 0 -13 11 -19 25 -7 14
-12 52 -12 84 0 32 3 61 7 64 3 4 9 7 13 7z m-3167 -772 c14 -2 29 -17 40 -40
10 -21 16 -46 12 -55 -3 -10 -21 -30 -38 -44 -18 -15 -52 -30 -76 -34 l-44 -7
7 28 c4 16 12 46 17 68 6 21 21 49 35 63 15 15 33 23 47 21z m3294 -118 c7 0
13 -10 13 -23 0 -13 -10 -33 -22 -44 -13 -11 -31 -23 -40 -26 -10 -4 -18 -4
-18 -2 0 2 5 17 12 32 6 15 18 36 26 46 9 9 21 17 29 17z m-2044 -2701 c9 1
17 -5 17 -12 0 -8 -11 -24 -25 -37 -14 -13 -25 -29 -25 -35 0 -7 -9 -20 -20
-30 -11 -10 -20 -22 -20 -27 0 -5 -15 -28 -32 -50 -18 -22 -57 -67 -85 -99
-29 -32 -53 -68 -53 -79 0 -11 12 -27 26 -37 23 -15 34 -15 95 -5 38 7 88 12
112 12 23 0 60 7 82 15 22 8 59 14 81 15 29 0 63 12 114 40 40 22 79 45 85 50
7 6 29 11 50 13 37 2 39 1 55 -46 9 -26 29 -60 43 -75 15 -16 27 -33 27 -38 0
-6 12 -22 28 -36 15 -15 40 -32 56 -38 24 -9 32 -7 47 6 11 10 19 29 19 44 0
14 12 51 28 81 15 30 34 55 43 57 8 1 51 -18 95 -43 43 -24 89 -45 102 -45 12
0 39 -7 59 -15 19 -8 47 -15 62 -15 14 0 48 -7 75 -15 37 -11 52 -12 63 -4 7
6 13 21 13 33 -1 11 -11 41 -24 66 -13 25 -36 70 -51 100 -15 30 -35 66 -46
81 -10 15 -19 34 -19 42 0 9 3 18 8 20 4 3 55 -12 113 -32 59 -20 113 -41 120
-47 8 -6 25 -15 38 -19 12 -4 38 -17 56 -29 18 -13 58 -30 88 -40 31 -10 68
-30 83 -44 14 -15 33 -37 41 -49 13 -20 13 -29 -3 -80 -14 -45 -30 -70 -71
-110 -30 -29 -66 -55 -81 -59 -15 -3 -54 -18 -87 -33 -33 -16 -89 -34 -124
-40 -44 -9 -121 -11 -251 -6 -108 3 -207 1 -232 -4 -23 -5 -70 -12 -103 -15
-33 -3 -145 -10 -250 -16 -104 -7 -206 -17 -225 -25 -24 -9 -43 -10 -60 -3
-14 5 -51 8 -83 5 -31 -3 -72 0 -90 5 -17 6 -39 14 -48 18 -8 4 -42 13 -75 20
-32 6 -76 18 -97 26 -21 8 -43 12 -48 9 -5 -4 -34 5 -64 19 -29 14 -60 26 -67
26 -8 0 -50 17 -94 38 -43 22 -85 46 -93 55 -7 10 -19 17 -27 17 -7 0 -45 31
-85 69 -65 62 -70 70 -59 90 6 13 32 37 57 54 25 18 67 49 92 70 25 21 91 60
147 88 56 27 108 49 117 49 9 0 18 4 21 9 4 5 30 16 59 25 28 8 88 23 132 32
44 9 96 20 115 24 19 4 43 8 53 9z m-825 -509 c4 0 13 -9 20 -20 7 -11 18 -20
25 -20 7 0 28 -16 47 -35 19 -19 41 -35 51 -35 9 0 38 -12 65 -27 27 -14 56
-32 64 -39 8 -7 49 -24 90 -38 41 -15 89 -31 106 -36 17 -6 44 -10 60 -10 16
0 40 -9 54 -20 14 -11 36 -20 51 -20 14 0 29 -4 35 -10 5 -5 41 -14 79 -20 39
-6 120 -14 182 -16 64 -4 126 -1 145 4 18 6 85 13 148 17 63 3 133 8 155 11
22 3 105 11 185 18 80 8 174 12 210 10 36 -1 111 -3 168 -4 77 -1 119 4 165
18 34 11 91 29 127 40 36 11 88 30 115 42 28 13 60 31 71 42 12 11 24 16 27
11 3 -4 1 -51 -5 -103 -5 -52 -13 -99 -17 -105 -4 -5 -16 -48 -26 -95 -10 -47
-27 -105 -38 -130 -10 -25 -29 -65 -41 -90 -13 -25 -29 -56 -37 -68 -8 -13
-36 -45 -63 -70 -27 -26 -61 -60 -75 -76 -14 -15 -49 -51 -77 -80 -28 -28 -79
-73 -113 -99 -35 -26 -75 -50 -89 -53 -24 -5 -31 2 -69 60 -34 51 -46 63 -62
59 -11 -3 -25 -11 -31 -18 -8 -10 -8 -20 1 -37 7 -13 25 -39 41 -58 15 -19 28
-40 28 -46 0 -6 -33 -23 -72 -37 -40 -14 -83 -28 -95 -32 -18 -5 -23 -2 -23
14 0 11 -6 26 -13 33 -7 7 -18 24 -25 38 -7 14 -18 34 -25 45 -7 11 -21 32
-31 48 -10 15 -26 27 -36 27 -12 0 -21 -10 -25 -31 -6 -26 -2 -37 27 -68 19
-20 46 -51 61 -69 15 -19 27 -39 27 -46 0 -6 -19 -17 -42 -24 -24 -6 -67 -13
-97 -14 l-54 -3 -64 93 c-34 51 -63 99 -63 106 0 8 -7 19 -15 26 -8 7 -15 20
-15 30 0 10 -6 23 -14 29 -11 9 -20 10 -35 1 -15 -7 -21 -21 -21 -45 0 -25 10
-46 40 -80 22 -25 40 -54 40 -63 0 -10 16 -32 35 -51 19 -18 35 -36 35 -41 0
-5 -8 -11 -17 -14 -10 -3 -44 -6 -77 -7 -52 -2 -61 0 -77 22 -11 13 -23 29
-29 36 -5 6 -30 51 -55 99 -25 48 -58 102 -73 120 -15 18 -37 33 -49 33 -15 1
-23 -5 -24 -16 -1 -10 0 -25 1 -33 1 -8 13 -27 26 -43 13 -16 24 -32 24 -37 0
-4 16 -32 35 -62 19 -29 44 -64 55 -76 11 -13 20 -28 20 -33 0 -5 -17 -9 -37
-9 -21 1 -57 5 -81 9 -25 5 -52 19 -67 35 -13 14 -29 26 -35 26 -5 0 -10 15
-10 33 0 20 -8 41 -18 50 -10 10 -29 41 -42 70 -12 28 -26 61 -31 72 -5 11
-10 43 -11 70 -3 41 -6 50 -23 53 -13 2 -26 -7 -37 -28 -13 -22 -15 -37 -8
-54 5 -13 6 -26 4 -29 -3 -3 2 -31 12 -63 9 -33 32 -80 50 -107 19 -26 34 -51
34 -56 0 -5 10 -16 23 -24 l22 -16 -31 0 c-16 -1 -53 10 -81 24 -28 15 -68 46
-87 70 -20 24 -36 48 -36 54 0 6 -11 33 -24 59 -13 26 -38 80 -56 120 -27 59
-37 72 -56 72 -13 0 -28 -8 -33 -18 -6 -10 -7 -28 -4 -40 3 -11 25 -60 49
-108 24 -49 44 -94 44 -102 0 -7 -4 -12 -8 -10 -5 2 -32 29 -60 60 -28 32 -59
75 -67 95 -9 21 -26 46 -38 55 -19 15 -20 20 -10 37 7 11 9 22 4 25 -4 3 -14
27 -21 53 -7 27 -17 54 -23 61 -5 6 -18 12 -28 12 -11 0 -28 -9 -39 -20 -20
-20 -20 -20 1 -57 12 -21 25 -42 30 -48 5 -5 9 -19 9 -32 0 -13 4 -23 9 -23 5
0 14 -14 20 -31 6 -18 11 -37 11 -43 0 -6 -11 3 -25 19 -13 17 -24 33 -25 38
0 4 -14 38 -31 75 -17 37 -35 76 -39 87 -4 11 -20 74 -35 140 -16 66 -39 147
-51 180 -12 33 -25 87 -29 120 -3 33 -13 97 -22 143 -9 50 -13 100 -8 127 3
25 9 45 13 45z"/>
<g>
<path d="M10402 7440 c-10 0 -31 -13 -46 -29 -22 -23 -27 -35 -22 -56 4 -14
17 -31 31 -37 13 -6 35 -8 49 -4 19 5 27 15 32 41 4 25 1 43 -10 60 -9 14 -25
25 -34 25z"/>
</g>
<g>
<path d="M10700 7410 c-24 0 -43 -7 -55 -20 -14 -16 -16 -26 -9 -52 8 -26 17
-34 47 -41 25 -6 42 -5 51 2 8 7 16 28 19 49 2 20 0 43 -6 50 -5 6 -26 12 -47
12z"/>
</g>
<g>
<path d="M10530 7270 c-9 0 -24 -8 -33 -18 -15 -16 -15 -21 -2 -39 8 -11 26
-24 40 -27 14 -4 24 -12 22 -18 -1 -7 -19 -20 -39 -30 -25 -11 -38 -24 -38
-36 0 -14 12 -25 37 -35 27 -10 45 -12 63 -5 14 5 35 19 48 30 15 15 22 33 22
57 0 20 -4 41 -8 47 -4 6 -27 25 -51 42 -24 18 -52 32 -61 32z"/>
</g>
<g>
<path d="M10524 6967 c-133 -2 -148 -4 -160 -22 -8 -11 -14 -26 -14 -35 0 -9
13 -23 29 -33 23 -13 44 -15 107 -11 44 3 100 10 126 15 26 6 52 17 59 25 6 7
8 25 5 39 l-6 25 -146 -3z"/>
</g>
</g>
<g>
<path d="M4475 9654 c-44 2 -108 1 -142 -1 -37 -2 -66 -10 -73 -18 -7 -8 -18
-15 -25 -15 -7 0 -46 -17 -86 -38 -41 -21 -98 -56 -127 -77 -28 -22 -52 -43
-52 -47 0 -4 -18 -17 -40 -28 -22 -11 -47 -33 -57 -48 -9 -15 -45 -54 -79 -87
-34 -33 -86 -91 -115 -130 -29 -38 -62 -88 -74 -110 -12 -22 -26 -49 -33 -60
-6 -11 -27 -60 -48 -110 -20 -49 -43 -117 -51 -150 -8 -33 -23 -89 -33 -125
-11 -36 -24 -95 -31 -132 -6 -37 -8 -80 -5 -94 4 -14 1 -42 -5 -63 -7 -20 -28
-62 -48 -94 -20 -31 -85 -105 -146 -165 -60 -59 -120 -122 -132 -140 -13 -18
-23 -35 -23 -38 0 -3 -11 -20 -23 -37 -13 -18 -32 -54 -42 -82 -10 -27 -28
-61 -41 -76 -13 -14 -24 -34 -24 -46 0 -11 -7 -37 -15 -56 -8 -20 -15 -51 -15
-69 0 -19 -6 -43 -14 -54 -8 -11 -19 -50 -25 -85 -6 -35 -13 -125 -16 -199 -3
-74 -5 -154 -5 -178 1 -23 -2 -48 -6 -54 -4 -7 -9 -28 -11 -48 -1 -19 -7 -57
-13 -85 -5 -27 -17 -90 -25 -140 -9 -49 -21 -117 -26 -150 -6 -33 -13 -134
-17 -225 -4 -91 -4 -201 1 -245 4 -44 12 -109 18 -145 6 -36 15 -101 20 -145
5 -44 13 -114 17 -156 4 -42 12 -82 18 -90 6 -8 17 -43 24 -78 8 -36 27 -92
43 -125 16 -34 32 -63 36 -66 4 -3 39 -44 79 -92 40 -48 87 -99 106 -113 18
-14 41 -25 52 -25 10 0 33 -7 49 -16 17 -9 44 -20 60 -23 l30 -7 0 -148 c0
-106 -3 -151 -12 -158 -7 -6 -13 -17 -13 -24 0 -8 -5 -23 -12 -33 -9 -15 -9
-27 3 -58 13 -31 14 -53 6 -113 -6 -41 -11 -96 -11 -123 -1 -26 -3 -47 -6 -47
-3 0 -6 -8 -7 -17 -1 -10 -13 -74 -27 -141 -14 -68 -32 -147 -40 -175 -8 -29
-17 -63 -20 -77 -2 -14 -14 -47 -25 -73 -12 -27 -21 -54 -21 -61 0 -7 -9 -21
-20 -31 -12 -11 -20 -31 -20 -50 0 -21 -9 -40 -26 -56 -14 -13 -32 -37 -40
-54 -8 -16 -23 -43 -33 -60 -11 -16 -29 -48 -40 -71 -12 -22 -21 -44 -21 -48
0 -4 -17 -30 -38 -59 -20 -29 -46 -70 -57 -92 -11 -22 -49 -70 -85 -108 -35
-37 -65 -73 -65 -81 0 -7 -35 -51 -78 -96 -43 -46 -85 -96 -95 -112 -9 -15
-23 -30 -32 -33 -8 -3 -40 -35 -70 -71 -30 -36 -86 -97 -125 -136 -38 -39 -86
-81 -105 -93 -19 -12 -63 -50 -97 -83 -34 -34 -79 -70 -100 -80 -21 -11 -49
-23 -63 -27 -14 -4 -44 -21 -67 -36 -23 -16 -45 -29 -49 -29 -3 0 -27 -15 -53
-33 -25 -17 -57 -37 -71 -43 -14 -7 -44 -17 -67 -23 -23 -6 -48 -17 -55 -24
-7 -6 -29 -21 -47 -31 -22 -12 -62 -21 -109 -24 -55 -4 -80 -10 -93 -23 -11
-11 -19 -26 -19 -34 0 -8 12 -22 26 -31 22 -15 34 -16 87 -6 34 5 80 15 101
20 22 6 53 17 70 25 17 9 54 26 81 40 28 14 105 53 172 87 67 34 130 70 142
81 11 10 25 19 31 19 5 0 10 3 10 8 0 4 15 16 32 27 18 11 47 29 64 40 18 11
52 37 76 57 24 20 86 79 138 130 52 51 109 111 125 133 17 22 60 71 96 110 37
38 109 118 160 176 52 58 105 119 119 135 14 16 40 50 58 77 18 26 30 52 27
57 -3 6 0 13 8 16 8 3 38 39 66 79 28 41 48 80 46 87 -3 7 8 28 25 46 16 18
30 38 30 43 0 6 14 30 30 54 17 24 30 55 30 68 0 14 6 27 13 30 8 3 34 47 60
99 25 51 52 125 60 163 8 39 22 90 32 115 9 25 18 69 20 98 2 29 7 63 11 75 4
12 10 29 12 37 2 8 8 49 13 90 5 41 13 98 18 125 6 28 13 93 16 145 4 52 9
111 12 130 3 19 5 82 4 140 -2 58 2 117 7 131 9 23 17 27 76 32 36 3 83 15
104 26 29 15 53 41 89 98 27 43 59 98 70 123 11 25 27 61 36 80 8 19 20 55 27
80 6 25 18 64 26 88 8 23 14 74 14 113 0 49 6 81 19 108 11 20 33 51 49 67 16
16 47 45 68 65 22 20 52 63 68 94 22 43 29 73 29 114 1 31 -6 72 -15 92 -14
32 -29 43 -129 91 -63 30 -123 65 -134 77 -17 20 -20 43 -26 184 -4 89 -8 241
-10 338 -1 96 -6 185 -10 197 -5 14 -17 22 -31 22 -13 0 -29 -4 -36 -9 -11 -7
-13 -76 -10 -367 4 -325 6 -363 23 -400 14 -31 33 -50 74 -75 31 -18 85 -49
121 -68 36 -19 70 -41 77 -50 7 -9 13 -35 13 -58 0 -36 -7 -50 -42 -90 -24
-26 -65 -66 -93 -88 -45 -37 -53 -49 -77 -124 -18 -56 -28 -108 -29 -160 -2
-64 -7 -86 -35 -142 -19 -37 -34 -73 -34 -81 0 -8 -4 -18 -8 -23 -5 -6 -17
-32 -27 -60 -10 -27 -31 -71 -48 -97 -25 -40 -36 -48 -76 -56 -25 -6 -73 -11
-105 -11 -33 -1 -91 6 -130 15 -46 11 -88 29 -120 52 -27 20 -75 70 -108 111
-32 42 -63 82 -69 89 -6 8 -20 37 -31 65 -11 29 -24 70 -30 92 -5 22 -14 74
-19 115 -5 41 -11 89 -14 105 -3 17 -10 66 -16 110 -5 44 -11 86 -14 93 -3 8
-10 86 -15 175 -7 114 -7 206 1 312 6 82 21 200 34 260 13 61 26 128 29 150 3
22 10 76 15 120 6 44 13 139 16 210 4 72 15 180 25 240 10 61 28 137 39 169
12 32 26 65 32 72 6 8 8 14 5 14 -4 0 2 13 13 29 12 16 21 34 21 39 0 5 8 27
18 48 9 22 26 53 37 69 11 17 67 78 125 136 58 58 133 143 168 188 57 74 65
91 78 158 8 41 14 97 14 125 0 28 7 77 16 111 8 33 13 68 11 77 -2 10 0 26 6
36 6 10 12 24 14 29 1 6 9 37 18 69 9 33 36 94 60 135 23 42 49 92 57 111 8
19 44 71 79 115 35 43 89 104 119 135 30 30 76 73 101 95 25 22 60 50 77 62
17 13 48 32 69 44 21 12 63 34 93 49 38 19 84 31 150 38 74 9 117 9 195 -2 55
-7 113 -19 129 -25 16 -7 35 -10 41 -7 7 2 25 -2 41 -8 16 -7 47 -22 68 -32
22 -10 55 -27 75 -37 20 -11 60 -42 89 -70 29 -29 75 -86 101 -127 26 -41 56
-100 65 -130 10 -30 24 -65 32 -77 8 -12 14 -39 14 -60 1 -21 7 -56 15 -78 9
-22 22 -89 30 -150 9 -60 18 -128 21 -150 2 -22 6 -58 9 -80 2 -22 8 -60 13
-85 7 -39 21 -58 100 -138 50 -51 103 -113 117 -137 14 -24 32 -46 40 -49 8
-3 15 -13 15 -22 0 -9 22 -62 48 -118 27 -55 56 -118 65 -139 9 -21 17 -55 17
-75 0 -21 6 -46 14 -57 7 -11 16 -40 20 -65 3 -25 13 -156 20 -292 8 -135 12
-268 9 -295 -3 -26 -5 -52 -5 -58 0 -5 5 -73 11 -150 6 -77 15 -180 20 -230 5
-49 17 -109 25 -133 9 -24 26 -58 38 -75 12 -18 32 -40 44 -49 12 -10 30 -39
42 -65 11 -26 23 -69 27 -94 5 -34 3 -55 -9 -77 -9 -18 -40 -59 -70 -92 -30
-33 -64 -81 -77 -108 -20 -42 -23 -62 -23 -192 -1 -80 1 -195 3 -257 3 -99 1
-116 -19 -157 -12 -25 -39 -60 -61 -77 -22 -17 -60 -37 -86 -45 -25 -8 -64
-14 -85 -14 -35 0 -38 2 -37 28 0 15 -2 56 -5 92 -4 36 -13 106 -21 155 -8 50
-21 140 -30 200 -9 61 -21 169 -26 240 -5 72 -11 290 -13 485 -2 195 -7 460
-11 588 -4 128 -12 235 -16 238 -4 2 -20 2 -34 -2 -15 -4 -30 -17 -35 -29 -5
-13 -9 -52 -9 -87 0 -35 1 -110 3 -168 1 -58 4 -274 6 -480 2 -206 10 -456 17
-555 7 -99 13 -187 13 -195 1 -8 7 -46 15 -85 7 -38 18 -101 24 -140 6 -38 17
-126 25 -195 8 -69 15 -141 15 -160 0 -19 2 -60 6 -90 3 -30 10 -75 15 -100 6
-25 17 -94 26 -155 8 -60 24 -134 34 -165 10 -30 21 -79 25 -109 3 -30 15 -74
26 -97 10 -24 19 -54 19 -68 0 -14 5 -28 10 -31 6 -3 10 -14 10 -23 0 -9 11
-55 26 -102 14 -47 33 -98 40 -113 8 -16 12 -33 9 -37 -3 -5 6 -46 21 -92 14
-46 30 -91 35 -100 5 -10 9 -29 9 -42 0 -14 4 -27 9 -31 5 -3 17 -29 26 -58
10 -28 29 -77 44 -107 14 -30 33 -62 41 -70 8 -8 25 -36 37 -62 13 -27 27 -48
32 -48 5 0 13 -10 17 -22 4 -13 20 -38 35 -56 16 -18 29 -39 29 -47 0 -8 25
-44 55 -80 30 -35 55 -71 55 -78 0 -8 7 -20 15 -27 8 -7 35 -43 60 -81 25 -37
45 -72 45 -76 0 -4 42 -49 93 -98 50 -50 114 -108 140 -130 26 -21 64 -53 85
-72 20 -18 42 -33 49 -33 8 0 27 -7 42 -15 16 -8 31 -22 33 -33 3 -11 22 -23
49 -32 24 -7 53 -21 64 -31 11 -9 29 -20 41 -23 13 -4 29 0 44 12 22 18 22 18
4 57 -13 27 -32 46 -59 60 -22 11 -72 40 -110 64 -39 24 -95 62 -125 85 -30
22 -62 48 -70 56 -9 8 -30 27 -46 41 -16 14 -67 66 -114 116 -47 50 -95 106
-108 125 -13 18 -53 76 -91 128 -37 52 -70 102 -74 110 -4 8 -27 42 -52 75
-24 33 -64 96 -88 140 -24 44 -61 127 -81 185 -21 58 -44 118 -52 133 -8 16
-14 37 -14 48 0 10 -9 49 -21 86 -11 38 -36 115 -54 173 -18 58 -43 148 -55
200 -13 52 -31 115 -40 140 -10 25 -21 63 -24 85 -4 22 -16 76 -26 121 -11 44
-26 132 -34 195 -8 63 -14 125 -13 139 2 22 9 26 72 38 39 7 83 16 100 19 19
4 52 29 88 67 32 34 70 82 83 108 24 48 24 48 18 281 -5 193 -4 243 9 294 10
36 27 73 43 89 14 16 49 63 76 104 l49 75 -5 70 c-3 41 -15 95 -30 130 -14 33
-39 75 -56 94 -17 20 -39 49 -50 66 -10 16 -21 48 -25 70 -4 22 -11 72 -15
110 -5 39 -12 167 -15 285 -4 118 -13 316 -21 440 -8 124 -19 257 -23 295 -5
39 -14 81 -20 95 -5 14 -22 66 -37 115 -14 50 -35 105 -46 123 -11 17 -17 32
-14 32 3 0 -9 28 -26 63 -18 34 -62 100 -97 146 -36 47 -91 110 -123 142 -32
31 -59 63 -59 70 -1 8 -3 23 -4 34 -2 11 -10 79 -19 150 -10 72 -23 166 -31
210 -7 44 -18 96 -24 115 -5 19 -16 62 -25 95 -8 33 -22 78 -31 100 -9 22 -25
57 -36 78 -12 21 -35 60 -53 87 -17 26 -55 73 -83 104 -28 30 -76 71 -107 91
-30 19 -61 35 -68 35 -7 0 -21 7 -32 15 -10 8 -38 17 -62 21 -24 3 -44 10 -44
14 0 5 -8 11 -17 14 -10 3 -63 13 -118 22 -55 8 -136 17 -180 18z"/>
</g>
<g>
<path d="M5115 9070 c-12 0 -31 -9 -42 -20 -12 -10 -26 -34 -32 -53 -8 -24 -8
-42 -2 -61 8 -20 18 -26 43 -28 18 0 42 0 53 1 11 0 28 11 38 23 14 16 17 32
13 57 -3 18 -15 44 -27 57 -13 13 -32 24 -44 24z"/>
</g>
<g>
<path d="M14050 9035 c-19 2 -48 0 -65 -6 -16 -5 -55 -7 -85 -5 -30 3 -89 -1
-130 -8 -41 -8 -100 -24 -130 -36 -30 -12 -74 -35 -98 -51 -24 -16 -48 -29
-54 -29 -7 0 -22 -10 -34 -21 -13 -12 -33 -27 -46 -33 -12 -6 -39 -34 -60 -61
-21 -28 -49 -72 -63 -98 -14 -27 -25 -60 -25 -73 0 -14 -9 -37 -21 -53 -13
-17 -24 -53 -29 -94 -4 -36 -11 -70 -14 -75 -3 -6 -6 -55 -7 -109 0 -54 2
-120 6 -148 3 -27 18 -73 32 -102 14 -29 31 -57 39 -64 8 -6 14 -16 14 -22 0
-5 19 -34 43 -63 26 -33 65 -65 102 -86 33 -18 71 -37 85 -42 14 -5 36 -16 50
-26 14 -9 59 -28 101 -43 41 -14 116 -31 165 -37 49 -5 187 -10 307 -10 145 0
226 4 240 11 19 11 25 7 53 -25 18 -21 45 -63 60 -94 15 -31 38 -71 51 -88 13
-17 23 -36 23 -42 0 -5 16 -34 35 -63 19 -29 32 -56 29 -60 -2 -5 -10 -6 -17
-3 -7 2 -49 1 -94 -4 -45 -6 -104 -6 -134 -1 -29 5 -80 9 -111 10 -44 2 -63
-2 -78 -16 -11 -10 -20 -28 -20 -41 0 -12 7 -29 15 -38 8 -8 15 -20 15 -26 0
-6 -9 -30 -20 -54 -10 -23 -27 -49 -36 -57 -9 -8 -35 -38 -58 -68 -23 -30 -60
-82 -83 -115 -23 -34 -43 -66 -43 -72 0 -6 -15 -31 -34 -55 -18 -24 -43 -63
-55 -87 -12 -24 -28 -45 -36 -49 -8 -3 -15 -12 -15 -19 0 -8 -18 -34 -40 -58
-22 -24 -40 -48 -40 -53 0 -5 -9 -18 -19 -27 -11 -10 -22 -29 -26 -44 -3 -14
-15 -38 -26 -54 -15 -20 -19 -36 -14 -58 4 -17 10 -30 15 -30 4 0 10 -14 14
-31 3 -18 31 -62 61 -100 30 -37 55 -72 55 -78 0 -5 18 -31 40 -56 22 -25 40
-52 40 -60 0 -7 10 -29 23 -49 12 -19 26 -35 31 -36 5 0 41 -33 80 -74 39 -41
77 -83 84 -93 7 -10 17 -30 23 -45 6 -16 15 -28 19 -28 4 0 20 -21 35 -47 15
-27 41 -60 57 -75 17 -16 37 -28 45 -28 7 0 16 -7 20 -16 3 -8 22 -34 42 -57
20 -22 46 -51 58 -64 13 -13 17 -23 10 -26 -7 -2 -41 2 -77 10 -36 7 -110 18
-165 23 -55 6 -134 14 -175 19 -41 4 -82 11 -90 14 -9 4 -26 -3 -41 -17 l-27
-23 9 -114 c4 -63 8 -120 8 -126 0 -7 0 -32 0 -55 0 -24 4 -92 10 -153 5 -60
12 -180 16 -265 3 -85 12 -209 20 -275 8 -66 17 -164 21 -218 3 -53 10 -100
15 -103 5 -3 9 -27 9 -53 0 -33 -5 -52 -17 -63 -10 -8 -35 -25 -55 -37 l-38
-23 -29 21 c-16 12 -32 21 -36 21 -3 0 -23 12 -43 27 -20 16 -43 36 -50 45 -7
10 -22 18 -32 18 -10 0 -26 -3 -34 -6 -9 -3 -30 -35 -46 -71 -17 -35 -30 -78
-30 -94 0 -17 -4 -39 -10 -49 -5 -10 -12 -37 -15 -60 -3 -23 -8 -46 -11 -51
-3 -6 -9 -53 -12 -107 -4 -53 -6 -135 -5 -181 2 -46 7 -88 11 -95 5 -6 12 -33
16 -61 3 -27 9 -61 12 -75 5 -22 -1 -30 -43 -58 -26 -17 -63 -45 -80 -62 -18
-16 -33 -37 -33 -46 0 -8 -6 -14 -12 -12 -7 3 -15 13 -17 24 -2 10 -8 25 -13
32 -6 6 -21 12 -34 12 -13 0 -33 -10 -44 -22 -15 -17 -20 -32 -18 -56 4 -28
-1 -37 -25 -54 -25 -18 -34 -20 -58 -11 -24 9 -33 8 -54 -9 -14 -10 -30 -16
-36 -12 -6 3 -9 17 -6 30 2 14 1 27 -4 30 -5 3 -7 23 -5 45 4 36 1 42 -26 59
-21 13 -42 16 -71 13 -23 -3 -51 -14 -63 -24 -11 -11 -28 -19 -37 -19 -9 0
-18 -4 -21 -9 -3 -5 -18 -12 -33 -15 -16 -4 -45 -11 -66 -15 -21 -5 -40 -5
-43 1 -3 5 -26 18 -51 30 -41 19 -50 20 -92 9 -25 -7 -62 -23 -81 -36 -19 -13
-56 -33 -82 -45 -26 -12 -52 -28 -59 -36 -6 -8 -17 -14 -23 -14 -7 0 -23 -11
-36 -25 -13 -14 -29 -25 -35 -25 -7 0 -33 -19 -60 -42 -26 -23 -58 -58 -71
-79 -13 -21 -58 -66 -100 -99 -44 -34 -87 -60 -100 -60 -12 0 -26 -4 -29 -10
-3 -5 -23 -17 -43 -27 -20 -10 -50 -31 -65 -48 -15 -16 -40 -48 -55 -70 -15
-22 -33 -46 -39 -53 -7 -7 -13 -18 -13 -23 0 -5 -14 -31 -30 -58 -17 -27 -33
-60 -35 -72 -2 -12 -11 -29 -20 -39 -8 -9 -15 -23 -15 -32 0 -8 3 -18 6 -21 4
-3 16 -1 27 5 11 6 31 21 43 33 12 12 39 25 58 29 26 5 42 2 59 -10 12 -9 29
-31 37 -48 8 -16 29 -38 45 -48 17 -10 44 -24 60 -31 17 -8 48 -20 70 -28 34
-13 40 -19 43 -47 2 -21 11 -36 25 -43 12 -7 26 -18 30 -25 4 -8 15 -14 22
-14 8 0 15 5 15 10 0 6 -7 22 -16 36 -9 13 -14 27 -12 30 3 2 57 -23 121 -56
63 -33 123 -60 133 -60 10 0 36 -6 59 -14 22 -7 67 -22 100 -32 33 -10 68 -26
78 -36 10 -10 31 -18 47 -18 20 0 38 -10 59 -32 16 -17 32 -45 35 -62 4 -18
23 -47 45 -68 22 -20 52 -43 69 -52 18 -9 60 -15 113 -16 46 -1 162 8 257 21
147 18 177 20 198 8 20 -10 34 -11 70 -1 24 7 90 12 145 12 57 0 110 -5 122
-12 12 -6 27 -17 32 -24 6 -7 43 -29 82 -49 69 -34 77 -35 155 -31 69 4 92 10
138 36 30 17 76 46 103 65 26 18 71 41 101 49 30 9 64 16 76 16 11 0 35 7 51
16 17 8 43 30 59 47 16 18 46 65 66 105 20 40 44 77 55 83 10 5 19 19 19 30 0
12 8 23 20 26 11 3 20 9 20 14 0 4 -4 19 -10 33 -5 14 -15 26 -21 26 -6 0 -23
-9 -39 -20 -15 -11 -36 -37 -46 -57 -10 -21 -17 -41 -16 -44 0 -4 -8 -15 -18
-24 -19 -17 -20 -17 -20 4 0 13 11 44 24 70 13 25 31 60 40 76 9 17 16 38 16
48 0 9 4 17 9 17 5 0 14 15 21 33 6 17 16 40 21 50 5 10 7 23 3 29 -4 5 0 14
7 19 11 6 11 13 3 26 -6 10 -28 26 -50 36 -26 12 -44 30 -53 50 -8 18 -38 81
-67 140 -30 60 -54 118 -54 131 0 12 -10 32 -23 44 -13 12 -35 22 -49 22 -21
0 -29 7 -38 35 -9 26 -17 35 -34 35 -13 0 -26 3 -29 6 -4 4 7 23 22 43 16 20
47 54 68 76 21 22 44 51 50 65 7 14 17 32 23 40 5 8 21 41 35 73 14 32 25 66
25 76 0 10 3 21 7 25 4 3 13 23 20 44 7 20 16 81 20 135 5 85 4 100 -12 117
-10 11 -26 20 -37 20 -10 0 -51 26 -91 58 -39 32 -89 68 -109 81 -21 12 -38
26 -38 30 0 4 -21 23 -47 42 -26 19 -57 39 -68 44 -15 8 -20 20 -19 45 1 19
11 69 22 110 11 41 26 93 32 115 6 22 26 85 45 140 18 55 45 141 60 190 15 50
34 113 43 140 8 28 21 66 28 85 7 19 25 76 39 125 15 50 32 104 40 120 7 17
18 55 24 85 7 30 16 71 21 90 6 19 19 67 31 105 12 39 25 74 29 78 4 4 22 10
40 12 18 3 46 17 62 32 17 16 36 43 44 62 l14 33 67 -7 c38 -4 100 -14 138
-22 39 -8 99 -18 135 -22 36 -4 75 -13 87 -19 12 -7 36 -12 54 -12 18 0 65 -8
103 -19 39 -10 92 -23 119 -30 26 -6 58 -11 72 -11 13 0 26 -4 30 -10 3 -5 18
-9 33 -9 15 1 61 -5 102 -12 41 -6 93 -13 114 -13 35 -1 41 -6 53 -33 7 -17
13 -58 13 -90 1 -32 6 -130 11 -218 6 -88 17 -189 25 -224 8 -36 17 -131 19
-213 4 -132 7 -154 30 -202 14 -29 34 -61 45 -71 11 -10 20 -25 20 -34 0 -9 7
-29 16 -46 9 -16 25 -47 36 -68 10 -20 23 -37 28 -37 5 0 21 -18 35 -40 14
-22 25 -47 25 -57 0 -9 8 -26 19 -37 10 -12 31 -55 46 -96 16 -41 32 -79 37
-85 4 -5 8 -23 8 -40 0 -19 8 -39 20 -50 12 -11 20 -31 20 -49 0 -17 9 -46 20
-64 11 -18 20 -39 20 -46 0 -7 10 -38 22 -67 12 -30 29 -65 39 -79 9 -14 27
-54 39 -90 12 -36 28 -87 35 -115 7 -27 13 -51 12 -52 -1 0 -42 -11 -92 -23
-49 -12 -128 -32 -175 -45 -47 -13 -116 -29 -153 -35 -53 -10 -71 -18 -83 -36
-9 -12 -17 -31 -19 -41 -1 -10 2 -26 7 -36 8 -15 17 -17 51 -12 23 4 71 13
107 21 36 9 74 19 85 23 11 5 47 14 80 20 33 7 92 18 130 25 39 7 81 19 94 25
13 7 36 10 52 7 16 -3 29 -2 30 2 0 4 2 22 5 41 2 21 -7 69 -25 125 -16 50
-37 109 -47 131 -10 22 -17 43 -16 47 1 4 -9 35 -22 70 -13 35 -31 79 -39 98
-8 19 -23 62 -33 95 -10 33 -26 71 -35 85 -9 14 -19 39 -23 55 -4 17 -20 55
-35 85 -16 30 -32 66 -36 80 -4 14 -13 32 -19 40 -7 8 -20 35 -30 60 -11 25
-25 59 -32 76 -8 18 -21 34 -29 38 -8 3 -15 16 -15 29 0 13 -9 32 -20 42 -11
10 -20 24 -20 32 0 7 -4 13 -9 13 -5 0 -20 21 -33 46 -12 25 -33 64 -45 87
-18 34 -22 60 -22 134 -1 51 -5 114 -11 140 -5 26 -17 107 -26 178 -9 72 -19
205 -21 298 -3 117 -2 167 6 167 6 0 11 14 11 31 0 17 -7 55 -16 85 -8 30 -19
54 -23 54 -5 0 -9 37 -9 83 -1 55 -8 101 -21 141 -12 33 -21 67 -21 76 0 10
-13 58 -30 107 -16 50 -32 110 -36 134 -4 24 -10 49 -14 54 -5 6 -13 35 -18
65 -6 30 -20 89 -31 130 -12 41 -30 116 -41 165 -11 50 -31 128 -45 175 -14
47 -37 119 -51 160 -14 41 -34 108 -45 148 l-20 73 28 22 c15 11 56 48 89 81
34 34 99 97 145 141 46 44 111 100 144 125 33 25 98 82 145 127 47 45 103 96
124 113 21 16 58 48 82 70 32 29 44 48 44 68 0 15 -4 32 -8 39 -4 7 -32 12
-67 12 -33 0 -74 -7 -90 -15 -17 -8 -41 -16 -52 -18 -12 -3 -30 -9 -40 -14
-10 -5 -38 -12 -63 -15 -25 -4 -76 -16 -115 -27 -38 -12 -92 -28 -120 -36 -27
-8 -68 -19 -90 -25 -22 -6 -49 -15 -60 -19 -11 -5 -51 -20 -90 -34 -38 -14
-88 -28 -110 -32 -22 -4 -50 -15 -63 -25 -23 -18 -25 -17 -76 2 -35 13 -81 20
-137 21 -48 0 -96 7 -111 15 -17 8 -62 13 -121 13 l-94 0 -49 54 c-27 30 -54
60 -59 67 -6 8 -32 53 -58 101 -26 48 -58 100 -71 115 -13 15 -26 38 -30 50
-4 11 -13 27 -21 33 -8 7 -15 19 -15 27 0 7 15 29 33 47 18 18 54 60 80 93 26
32 47 62 47 66 0 4 11 25 25 46 13 22 33 66 44 99 14 41 23 100 27 184 4 85 1
160 -9 245 -13 98 -23 136 -51 197 -23 49 -53 92 -83 122 -27 25 -75 63 -108
85 -33 21 -65 39 -71 39 -6 0 -42 14 -80 30 -38 17 -78 35 -89 40 -11 4 -54
11 -95 14 -41 3 -91 8 -110 11z m-40 -121 c80 -2 161 -6 180 -9 19 -2 51 -8
70 -13 19 -5 51 -17 70 -27 19 -11 37 -20 40 -20 3 -1 16 -5 30 -9 14 -5 51
-31 83 -58 31 -28 57 -56 57 -64 0 -8 6 -14 13 -14 6 0 22 -15 33 -33 12 -17
25 -43 30 -57 4 -14 8 -41 10 -60 1 -19 8 -61 14 -93 6 -32 11 -62 12 -65 1
-4 -2 -68 -6 -142 -5 -89 -12 -140 -21 -150 -8 -8 -14 -19 -14 -25 -1 -5 -20
-39 -43 -74 -24 -35 -50 -74 -59 -87 -8 -13 -32 -42 -53 -64 -20 -22 -43 -40
-50 -40 -8 0 -19 -6 -25 -14 -7 -8 -31 -24 -54 -36 -31 -17 -58 -22 -106 -21
-36 0 -69 5 -75 11 -7 7 -6 10 1 10 6 0 10 12 8 26 -1 15 -9 30 -16 36 -8 5
-38 6 -67 3 -29 -3 -81 -15 -115 -27 -34 -11 -71 -27 -82 -34 -11 -8 -43 -14
-71 -14 -32 0 -56 5 -63 14 -10 11 -5 16 26 23 32 7 38 14 45 43 6 29 3 38
-13 52 -16 13 -31 16 -59 12 -21 -3 -40 -2 -43 2 -2 5 2 40 10 79 8 38 16 71
18 74 2 2 0 12 -6 22 -5 11 -21 19 -34 19 -13 0 -31 -10 -39 -22 -9 -12 -19
-38 -22 -58 -3 -19 -12 -51 -19 -70 -7 -20 -11 -47 -9 -60 3 -14 1 -31 -4 -38
-7 -10 -21 -7 -68 15 -37 17 -82 51 -120 90 -37 38 -75 91 -95 131 -33 66 -34
70 -34 197 0 97 4 141 17 175 9 25 20 61 24 80 3 19 16 55 28 80 11 25 43 69
70 98 27 28 54 52 59 52 6 0 28 15 51 33 23 18 57 40 76 49 19 9 67 27 105 39
39 12 90 26 115 30 25 4 110 6 190 3z m2032 -1590 c3 -2 -19 -28 -50 -57 -31
-29 -109 -98 -172 -154 -63 -55 -132 -119 -154 -143 -21 -24 -70 -72 -109
-106 -39 -35 -74 -64 -78 -64 -4 0 -12 14 -18 31 -6 18 -11 49 -11 69 0 20 -3
40 -7 44 -4 4 -15 44 -24 89 -9 45 -14 85 -10 88 3 3 31 14 61 24 30 10 67 24
81 31 14 7 43 17 65 22 21 6 77 21 124 36 47 14 112 35 144 46 33 11 69 20 80
20 12 1 32 7 46 14 14 8 28 12 32 10z m-1227 -171 c55 -2 123 -8 151 -13 28
-5 91 -12 140 -16 49 -3 97 -11 106 -15 10 -5 31 -11 48 -13 18 -2 35 -7 40
-12 4 -5 18 -49 30 -99 12 -49 24 -108 27 -130 3 -22 9 -45 14 -51 4 -5 6 -20
2 -32 -3 -12 0 -29 7 -37 11 -13 -4 -32 -98 -128 -62 -62 -119 -122 -128 -134
-8 -13 -21 -23 -27 -23 -7 -1 -45 -32 -86 -71 -52 -50 -78 -68 -90 -63 -9 3
-36 9 -61 11 -41 4 -49 1 -87 -32 l-43 -36 -114 55 -114 55 -7 63 c-4 35 -22
101 -39 148 -18 47 -41 112 -51 145 -10 33 -24 74 -31 92 -8 17 -14 38 -14 47
0 9 -4 24 -9 34 -6 9 -19 55 -30 102 -11 47 -22 99 -24 117 l-3 32 105 -2 c58
-1 147 0 196 4 50 3 135 4 190 2z m-577 -165 c12 -2 20 -19 27 -55 6 -28 13
-55 18 -59 4 -4 7 -22 7 -40 0 -18 7 -39 15 -48 8 -8 15 -24 15 -35 0 -11 5
-23 10 -26 6 -3 10 -19 10 -35 0 -18 11 -42 30 -63 21 -24 26 -37 19 -44 -8
-8 -5 -31 10 -80 12 -37 26 -75 30 -83 5 -9 12 -39 16 -67 5 -38 3 -57 -8 -75
-9 -12 -23 -51 -31 -84 -10 -38 -16 -105 -16 -172 0 -63 4 -113 10 -117 6 -3
10 -14 10 -23 0 -9 21 -48 46 -87 25 -38 62 -87 81 -107 22 -23 37 -48 38 -65
1 -15 -1 -32 -5 -38 -3 -5 -12 -30 -19 -55 -7 -25 -17 -59 -22 -76 -5 -17 -9
-40 -9 -51 0 -12 -6 -23 -14 -26 -8 -3 -31 13 -56 40 -23 26 -53 65 -67 87
-14 23 -49 65 -78 94 -29 29 -76 87 -105 130 -29 42 -64 85 -76 95 -13 10 -24
23 -24 29 0 6 -33 43 -72 82 -40 39 -77 78 -83 88 -5 9 -39 58 -74 110 -35 51
-72 108 -82 126 -11 18 -19 39 -19 46 0 7 12 33 26 57 14 24 43 69 65 99 22
30 60 84 83 120 24 36 68 108 99 160 30 52 82 126 116 164 34 38 61 73 61 78
0 5 8 8 18 6z m1173 -408 c4 0 10 -7 13 -16 3 -9 6 -28 6 -44 0 -16 5 -30 11
-32 6 -2 15 -25 20 -52 5 -27 16 -62 24 -79 8 -17 15 -36 15 -44 0 -7 5 -13
11 -13 5 0 7 -5 4 -10 -3 -6 -2 -25 4 -43 5 -17 17 -57 25 -88 9 -31 16 -67
16 -82 0 -14 5 -29 10 -32 6 -3 10 -17 10 -30 0 -13 4 -26 9 -29 5 -3 11 -20
14 -38 4 -18 9 -49 13 -68 4 -19 13 -44 20 -55 8 -12 15 -45 17 -75 3 -30 12
-72 21 -92 9 -21 16 -51 16 -67 0 -16 10 -51 22 -78 16 -35 22 -71 24 -136 1
-48 8 -111 14 -140 7 -29 19 -63 27 -75 8 -13 12 -26 9 -29 -3 -3 -60 2 -128
11 -68 8 -141 20 -163 25 -22 6 -60 15 -85 20 -25 6 -83 18 -130 27 -47 9
-105 20 -130 25 -25 4 -70 13 -100 18 -30 5 -77 16 -105 25 -27 8 -63 16 -80
18 -23 2 -31 9 -36 33 -4 17 -21 78 -37 138 -17 59 -27 108 -24 108 4 1 48 2
99 3 78 1 95 4 115 22 12 12 41 27 63 34 24 8 61 35 95 69 30 31 68 82 83 113
17 34 31 80 34 115 5 55 4 59 -24 79 -15 12 -40 25 -53 29 -14 4 -36 16 -49
26 -13 11 -27 19 -32 19 -4 0 -28 14 -53 31 -26 17 -46 38 -46 47 0 9 91 106
202 214 112 108 206 197 209 198z m-813 -380 c4 0 32 -9 62 -21 30 -11 60 -25
67 -31 6 -5 14 -22 18 -37 4 -19 19 -35 47 -51 28 -16 61 -24 101 -26 32 -1
75 -10 95 -19 21 -10 53 -27 72 -37 19 -11 50 -26 68 -34 17 -8 32 -19 32 -24
0 -6 -7 -27 -16 -48 -8 -20 -29 -52 -46 -69 -18 -18 -36 -33 -41 -33 -5 0 -21
-8 -35 -19 -15 -10 -58 -28 -97 -41 -52 -16 -84 -21 -124 -17 -30 3 -60 12
-68 20 -8 8 -18 40 -23 73 -4 32 -13 70 -19 84 -6 14 -18 50 -26 80 -8 30 -28
95 -45 145 -16 49 -30 93 -30 97 0 4 3 8 8 8z m-109 -70 c6 0 11 -12 11 -28 0
-15 6 -36 13 -47 8 -11 27 -54 44 -95 17 -41 33 -94 36 -117 4 -32 2 -43 -9
-43 -7 0 -19 10 -25 23 -7 12 -16 24 -20 27 -4 3 -18 28 -29 55 -15 33 -24 79
-27 138 -4 61 -2 87 6 87z m166 -592 c2 -2 3 -5 2 -8 -1 -3 6 -18 16 -33 10
-16 17 -36 15 -45 -1 -9 1 -23 5 -29 5 -7 10 -21 11 -30 2 -10 6 -35 10 -55
l7 -38 -51 0 c-44 0 -52 3 -60 25 -5 14 -6 36 -1 52 5 15 17 59 26 96 10 37
19 67 20 65z m-701 -288 c9 0 33 -7 53 -15 23 -10 69 -15 130 -15 61 0 104 -5
121 -14 15 -8 57 -17 93 -21 61 -7 66 -9 77 -38 7 -18 8 -35 3 -41 -5 -6 -19
-45 -31 -86 -11 -41 -24 -82 -27 -90 -3 -8 -7 -33 -9 -54 -2 -22 -11 -53 -19
-69 -8 -17 -15 -40 -15 -52 0 -12 -5 -37 -11 -56 -6 -19 -20 -59 -32 -89 -12
-30 -27 -63 -35 -72 -8 -10 -12 -24 -8 -33 3 -8 -1 -30 -8 -48 -8 -17 -23 -66
-35 -107 -12 -41 -31 -104 -42 -140 -11 -36 -24 -74 -29 -85 -4 -11 -20 -60
-35 -110 -15 -49 -32 -108 -37 -130 -5 -22 -15 -66 -21 -97 -7 -31 -15 -59
-18 -62 -3 -3 -24 3 -47 14 -23 11 -42 22 -42 24 0 2 23 26 50 54 28 28 50 58
50 66 0 9 5 16 11 16 7 0 8 19 4 58 -4 31 -13 83 -21 115 -8 33 -22 127 -30
210 -8 84 -15 161 -16 172 0 11 -5 99 -10 195 -6 96 -11 198 -13 225 -1 28 -6
123 -10 213 -7 148 -6 162 9 162z m-305 -1440 c9 0 27 -9 39 -19 l24 -18 -32
-26 c-17 -15 -41 -27 -52 -27 -16 0 -19 4 -13 23 3 12 9 32 12 45 3 12 13 22
22 22z m183 -126 c10 -3 54 -30 98 -60 44 -30 84 -54 89 -54 5 0 14 -6 21 -14
6 -8 23 -16 38 -18 18 -2 31 -12 40 -30 7 -16 19 -28 26 -28 6 0 38 -25 70
-55 32 -30 78 -64 102 -75 23 -12 60 -40 82 -64 39 -43 40 -44 31 -92 -5 -27
-17 -69 -26 -94 -9 -25 -22 -52 -29 -60 -6 -8 -15 -26 -18 -40 -4 -14 -13 -36
-19 -50 -7 -14 -16 -31 -22 -38 -5 -8 -41 -48 -80 -89 -38 -41 -79 -80 -90
-86 -11 -5 -34 -13 -52 -17 -28 -7 -39 -3 -72 24 -21 17 -51 46 -66 64 -20 24
-35 32 -59 32 -18 0 -37 -5 -44 -12 -9 -10 -16 -8 -30 5 -9 10 -26 48 -38 85
-13 43 -27 68 -38 70 -9 2 -30 -6 -46 -18 -17 -12 -37 -19 -45 -16 -8 3 -15
15 -15 28 0 12 -6 49 -14 82 -7 34 -22 106 -31 161 -10 55 -21 114 -25 132 -5
17 -4 69 2 115 5 46 15 89 21 96 6 7 27 21 46 31 20 9 45 22 56 28 11 6 43 22
70 37 28 14 58 23 67 20z m-851 -710 c4 -2 10 -18 14 -36 4 -18 9 -58 11 -88
4 -47 10 -60 38 -85 31 -29 32 -32 31 -106 -1 -53 -6 -83 -18 -99 -9 -14 -17
-31 -17 -40 0 -8 -9 -26 -19 -40 l-19 -24 -6 34 c-3 19 -7 71 -11 114 -3 44
-11 92 -17 107 -7 16 -23 31 -37 34 -13 3 -29 1 -34 -4 -6 -6 -15 -11 -19 -11
-5 0 -4 10 3 21 6 12 12 54 12 94 1 44 -3 78 -11 87 -10 12 -5 17 31 28 23 7
47 14 52 15 6 1 13 1 16 -1z m530 6 c11 0 28 -14 39 -32 11 -18 20 -42 20 -54
0 -12 11 -26 25 -34 22 -12 30 -11 60 3 19 9 42 14 50 11 11 -5 14 -15 9 -38
-4 -27 0 -38 26 -65 29 -32 33 -33 80 -28 46 6 53 3 88 -26 20 -18 41 -38 45
-44 4 -7 27 -24 52 -38 43 -26 44 -26 94 -9 28 9 57 14 65 11 8 -3 20 -15 26
-26 9 -17 8 -21 -5 -21 -8 0 -15 -9 -15 -20 0 -11 -14 -33 -31 -50 -18 -16
-37 -30 -43 -30 -7 0 -20 -15 -30 -32 -10 -18 -35 -48 -55 -67 -20 -18 -46
-40 -59 -48 -17 -12 -25 -13 -36 -4 -7 6 -21 44 -31 84 -9 39 -28 100 -42 134
-15 38 -32 65 -44 68 -10 4 -36 1 -56 -6 -21 -6 -50 -18 -65 -25 -14 -8 -31
-14 -38 -14 -8 0 -10 13 -5 43 3 23 11 63 16 89 9 40 8 50 -8 72 -14 19 -24
23 -43 19 -14 -4 -42 -17 -62 -30 -21 -12 -44 -23 -52 -23 -7 0 -19 -6 -25
-14 -7 -8 -21 -12 -32 -9 -17 5 -20 13 -18 57 2 28 4 59 7 69 2 9 11 17 18 17
8 0 19 -11 24 -25 5 -14 16 -25 25 -25 8 0 15 3 15 7 0 4 -7 33 -16 65 -13 47
-14 61 -4 73 7 8 21 15 31 15z m-957 -50 c22 0 48 -5 56 -10 13 -8 13 -10 -1
-10 -9 0 -22 -13 -28 -30 -6 -16 -16 -43 -22 -60 -9 -25 -17 -30 -43 -30 -20
0 -35 -7 -44 -20 -10 -17 -9 -22 14 -36 21 -14 24 -22 18 -48 -3 -17 -11 -40
-18 -51 -7 -11 -16 -28 -19 -39 -6 -15 -4 -17 18 -12 20 5 26 2 31 -18 3 -13
3 -55 1 -93 -3 -37 -8 -84 -12 -103 -8 -34 -7 -35 12 -17 18 15 22 16 33 3 7
-9 11 -36 9 -63 -1 -26 1 -57 5 -68 4 -11 16 -40 25 -65 10 -27 25 -46 36 -48
15 -3 17 0 11 24 -4 16 -12 31 -17 35 -5 3 -11 30 -13 60 -2 30 -6 94 -10 143
-3 49 -10 94 -16 101 -5 6 -7 15 -3 19 4 4 6 22 5 41 -2 29 1 35 17 35 11 0
30 -15 42 -32 13 -18 42 -55 65 -82 23 -26 54 -73 69 -103 22 -46 26 -64 21
-107 -3 -28 -10 -94 -15 -146 -5 -52 -12 -104 -16 -116 -5 -16 0 -23 20 -32
22 -10 33 -9 61 4 19 9 43 28 54 42 11 13 20 33 20 43 0 10 5 21 12 25 6 4 22
-6 37 -25 14 -17 32 -31 39 -31 6 0 12 4 12 8 0 5 -11 19 -24 31 -13 13 -26
39 -30 62 -3 21 -12 39 -19 39 -7 1 -5 6 6 14 9 7 17 19 17 25 0 7 6 11 12 9
7 -3 17 -19 22 -36 5 -18 12 -32 17 -32 4 0 15 -7 24 -16 13 -13 15 -28 9 -73
-4 -31 -11 -59 -17 -63 -6 -4 -10 -30 -8 -60 1 -29 7 -59 13 -65 6 -7 22 -14
37 -14 20 -1 21 -2 6 -6 -11 -2 -27 -7 -35 -10 -8 -3 -21 -7 -28 -9 -7 -1 -23
-8 -35 -16 -15 -9 -39 -11 -77 -7 -30 3 -98 13 -150 22 -52 9 -121 20 -153 23
-42 4 -60 10 -64 22 -3 9 -14 35 -24 57 -10 22 -22 55 -25 73 -4 18 -11 35
-15 38 -5 3 -9 18 -9 33 0 15 -5 32 -10 37 -6 6 -12 30 -14 53 -2 24 1 52 7
62 9 14 9 21 -1 31 -6 6 -12 27 -12 46 0 18 -5 53 -11 78 -11 41 -10 47 10 65
11 11 21 22 21 24 0 2 -12 3 -27 2 -21 -2 -30 5 -41 26 -12 24 -18 28 -40 22
-15 -3 -33 -13 -39 -22 -7 -9 -13 -27 -13 -39 0 -13 5 -26 10 -29 6 -3 10 1
10 9 0 9 4 16 8 16 5 0 19 -11 32 -25 21 -22 22 -27 10 -56 l-13 -31 -20 26
c-10 14 -27 31 -38 36 -10 6 -30 8 -44 4 -22 -5 -25 -12 -25 -49 0 -25 6 -47
15 -55 8 -7 21 -10 29 -7 9 4 21 -5 31 -20 14 -21 15 -27 4 -34 -8 -5 -18 -9
-23 -9 -4 0 -6 7 -2 15 3 9 0 15 -9 15 -8 0 -15 -9 -15 -19 0 -11 -4 -22 -10
-26 -5 -3 -15 5 -23 17 -7 13 -22 59 -32 103 -11 44 -28 94 -38 112 -11 20
-24 30 -33 26 -8 -3 -14 -18 -14 -34 0 -16 7 -46 15 -66 8 -19 15 -50 15 -67
0 -17 9 -50 20 -74 10 -23 17 -48 14 -55 -2 -6 14 -31 36 -54 23 -23 37 -44
32 -47 -6 -3 -36 3 -68 15 -33 11 -67 23 -77 26 -16 5 -18 14 -12 87 3 44 11
98 17 119 8 28 8 41 0 49 -8 8 -13 3 -17 -18 -3 -16 -11 -48 -17 -71 -6 -24
-11 -63 -12 -88 -1 -27 -6 -45 -13 -45 -6 0 -22 4 -35 9 -13 5 -42 28 -65 50
-24 23 -49 55 -58 70 -8 16 -28 39 -45 51 -16 12 -34 18 -40 15 -5 -3 -10 -13
-10 -21 0 -9 14 -35 31 -59 17 -23 29 -49 28 -56 -1 -8 10 -39 24 -69 15 -30
27 -63 27 -73 0 -15 -3 -16 -20 -7 -11 6 -36 35 -56 64 -23 36 -48 59 -74 71
-26 12 -52 16 -75 12 -26 -4 -35 -2 -35 9 0 8 5 14 10 14 6 0 15 12 20 26 6
14 22 42 38 62 15 20 44 52 66 71 21 19 46 40 57 46 10 5 48 26 84 45 46 24
96 65 172 142 58 59 109 108 113 108 4 0 5 -13 2 -30 -2 -16 0 -30 4 -30 5 1
20 10 34 21 22 19 23 22 7 30 -9 6 -17 14 -17 19 0 5 15 24 33 42 19 18 52 48
75 66 22 17 52 32 65 32 14 0 30 7 37 15 7 8 20 15 30 15 10 0 23 7 30 15 7 9
29 15 54 15z m276 0 c3 0 11 -29 17 -64 9 -53 8 -78 -6 -141 -15 -71 -18 -75
-32 -58 -9 10 -22 34 -29 53 -7 19 -16 39 -20 43 -4 4 -19 5 -34 1 -19 -4 -26
-13 -26 -29 0 -13 11 -45 25 -72 13 -27 40 -66 60 -87 31 -33 35 -44 35 -90 0
-28 -5 -57 -11 -63 -6 -6 -18 -9 -25 -6 -8 3 -14 12 -14 20 0 8 -14 32 -30 54
-17 21 -33 47 -35 58 -2 11 -19 34 -37 50 -19 16 -44 38 -56 48 l-23 18 22 85
c11 47 18 100 16 118 -3 17 -4 32 -1 32 2 0 13 -5 24 -12 15 -9 30 -9 72 1 29
8 64 20 78 27 14 7 27 13 30 14z m447 -81 c6 0 21 -15 33 -34 12 -20 24 -55
27 -78 3 -27 13 -49 28 -62 13 -11 25 -27 26 -35 2 -8 -2 -30 -10 -48 -8 -18
-11 -35 -7 -39 3 -3 14 1 24 10 14 13 21 14 30 5 7 -7 12 -17 12 -23 0 -7 -8
-19 -18 -28 -10 -9 -32 -20 -50 -23 -29 -6 -31 -10 -38 -60 -3 -30 -10 -51
-15 -48 -5 3 -12 -3 -16 -13 -3 -10 -14 -37 -24 -60 -11 -23 -19 -49 -19 -57
0 -9 -5 -16 -10 -16 -6 0 -27 19 -48 41 -21 24 -40 57 -43 76 -3 18 -2 36 3
39 4 3 7 36 6 73 -1 37 2 73 7 81 4 7 11 71 14 143 l6 129 35 13 c19 7 40 13
47 14z m295 -136 c4 -2 3 -15 -2 -29 -5 -13 -9 -28 -8 -32 1 -4 -4 -27 -11
-50 -7 -24 -9 -57 -6 -73 4 -16 4 -29 2 -29 -3 0 -12 11 -20 24 -9 13 -19 45
-23 71 -3 27 -1 58 6 75 6 15 21 32 33 38 12 5 25 8 29 5z m-671 -70 c10 -3
19 -8 20 -12 0 -3 1 -24 2 -46 2 -22 6 -46 10 -52 5 -8 3 -13 -4 -13 -7 0 -23
10 -36 22 -13 12 -23 31 -23 42 0 12 3 31 6 42 4 15 11 20 25 17z m200 -143
c3 -25 3 -56 -1 -70 -4 -14 -8 -29 -9 -35 0 -5 -5 -10 -11 -9 -5 1 -14 2 -20
3 -5 0 -10 11 -10 24 0 12 7 42 16 66 8 25 18 50 22 55 4 6 10 -9 13 -34z
m607 20 c1 0 -2 -8 -7 -18 -6 -10 -28 -35 -51 -55 -22 -21 -43 -37 -48 -37 -4
1 -14 16 -23 35 l-16 34 40 7 c22 3 54 12 71 20 17 7 32 13 34 14z m653 -6 c4
-2 12 -42 19 -89 10 -68 10 -92 0 -116 -7 -16 -10 -32 -7 -35 3 -3 11 -3 17 1
6 4 15 18 20 31 5 13 14 24 19 24 5 0 17 -25 26 -55 8 -30 20 -55 25 -55 5 0
15 -12 22 -27 8 -17 25 -32 46 -38 26 -7 32 -14 32 -36 0 -16 -4 -30 -8 -33
-5 -3 -16 9 -26 26 -16 26 -20 28 -32 16 -8 -8 -19 -43 -25 -79 -5 -35 -17
-86 -26 -114 -9 -27 -24 -69 -34 -93 -15 -34 -28 -47 -63 -61 -23 -11 -53 -31
-64 -46 -12 -15 -20 -31 -17 -35 2 -4 -5 -16 -16 -26 -19 -17 -39 -19 -183
-19 -156 0 -163 1 -158 19 4 15 1 18 -11 13 -9 -3 -29 -2 -45 2 -22 7 -53 1
-132 -25 l-103 -35 -78 21 c-43 11 -94 20 -112 20 -21 0 -41 -8 -52 -20 -10
-11 -25 -20 -34 -20 -9 0 -33 20 -54 44 -20 25 -37 51 -37 59 0 8 20 18 52 26
48 11 55 10 80 -9 15 -11 36 -20 47 -20 11 0 25 9 30 19 6 10 25 24 42 30 18
6 53 11 78 11 25 0 52 4 60 9 7 5 10 14 7 20 -5 7 -30 9 -75 5 -42 -4 -81 -2
-104 5 -19 7 -38 20 -42 29 -4 9 -7 85 -6 167 l2 150 80 77 c50 48 86 75 95
71 9 -3 14 -20 14 -49 0 -24 4 -44 8 -44 4 0 13 5 19 11 8 8 17 8 31 0 10 -5
33 -26 49 -45 23 -25 29 -41 26 -60 -3 -14 0 -33 7 -40 8 -10 8 -20 1 -33 -5
-11 -6 -25 -2 -32 5 -7 5 -27 2 -44 -4 -17 -4 -56 0 -86 3 -31 5 -58 3 -60 -2
-2 -24 0 -49 6 -24 6 -47 8 -49 5 -3 -2 4 -17 16 -32 18 -24 25 -28 56 -23 25
4 33 3 28 -5 -4 -7 4 -23 18 -37 14 -14 31 -22 38 -20 7 3 22 20 34 38 11 17
28 55 37 82 9 28 19 68 23 90 4 22 10 47 15 56 4 8 4 21 -1 29 -7 11 -14 2
-29 -34 -12 -26 -21 -54 -21 -62 0 -7 -12 -39 -26 -71 -25 -55 -26 -57 -35
-33 -6 13 -11 60 -13 105 -2 44 -6 87 -9 95 -4 8 -3 21 2 28 4 7 15 14 24 16
9 1 28 13 42 26 14 13 25 28 25 34 0 6 9 22 20 36 11 14 20 32 20 40 0 8 20
36 44 63 24 26 48 47 52 47 5 0 32 -22 59 -50 28 -27 55 -50 62 -50 6 0 15 -4
18 -10 3 -5 -1 -51 -9 -102 -8 -51 -17 -130 -20 -175 -3 -45 -2 -85 3 -87 5
-3 6 -17 3 -31 -3 -16 2 -33 12 -44 10 -11 28 -18 41 -16 14 1 33 13 44 26 11
13 25 42 31 64 6 22 18 62 27 88 8 26 13 51 9 54 -3 4 -6 -1 -6 -10 0 -9 -8
-21 -19 -26 -10 -6 -22 -23 -25 -38 -4 -16 -14 -43 -24 -61 -9 -17 -21 -31
-26 -29 -5 2 -11 12 -13 23 -2 10 -7 42 -11 69 -4 28 -7 61 -6 75 1 14 4 32 8
40 3 8 8 31 10 50 2 19 4 41 5 48 1 8 20 -3 47 -27 26 -23 51 -41 55 -41 5 0
9 -9 9 -20 0 -11 4 -20 9 -20 5 0 11 8 13 18 3 11 22 23 46 30 22 7 52 26 66
43 14 17 26 35 26 40 0 5 -5 9 -11 9 -5 0 -26 -11 -46 -24 -19 -14 -41 -22
-49 -19 -7 3 -12 12 -10 21 2 10 6 24 9 32 3 8 7 24 9 35 2 12 -4 21 -14 23
-13 3 -18 -3 -18 -21 0 -13 -9 -32 -20 -42 -20 -18 -21 -18 -35 1 -8 10 -15
26 -15 34 -1 8 -3 26 -4 40 -2 14 -6 78 -11 143 l-8 117 34 0 c19 0 41 4 49 9
8 6 17 8 21 5z m-1482 -54 c10 0 26 -9 35 -19 10 -11 22 -37 28 -58 5 -21 13
-58 17 -82 7 -36 5 -51 -11 -78 -11 -18 -24 -33 -28 -33 -5 0 -16 10 -24 22
-9 12 -16 29 -16 38 0 8 -6 26 -13 40 -7 15 -11 53 -9 98 3 61 6 72 21 72z
m549 -22 c13 -3 16 -12 14 -38 -1 -19 -3 -46 -3 -60 0 -14 -5 -30 -10 -36 -5
-6 -6 -19 -3 -29 5 -13 3 -16 -7 -13 -9 3 -16 25 -19 61 -3 31 -2 70 3 87 6
22 13 30 25 28z m729 -8 c0 0 11 -17 23 -37 17 -29 20 -41 11 -55 -6 -10 -11
-25 -11 -33 0 -8 -6 -15 -12 -15 -7 0 -25 16 -40 34 -16 19 -28 42 -28 52 0
12 -6 15 -25 10 -14 -4 -25 -2 -25 3 0 5 7 12 16 15 9 3 20 4 25 1 5 -3 21 1
36 9 16 8 29 15 30 16z m-412 -33 c5 -2 8 -12 7 -23 -2 -10 4 -24 14 -31 14
-11 15 -17 6 -38 -6 -14 -17 -25 -24 -25 -7 0 -21 12 -32 26 -18 25 -18 27 0
60 10 19 23 33 29 31z m-253 -22 c6 -11 18 -24 25 -28 12 -7 11 -12 -4 -29
-10 -11 -26 -24 -36 -30 -16 -8 -18 -7 -14 9 3 10 8 36 12 58 6 35 8 37 17 20z
m-150 -37 c4 -7 5 -36 2 -64 -6 -48 -5 -52 24 -72 16 -12 35 -22 41 -22 7 0 8
-7 1 -22 -5 -13 -13 -51 -19 -85 -5 -33 -8 -100 -7 -147 2 -47 2 -86 1 -86 -1
0 -16 7 -34 16 -18 9 -51 18 -74 21 -23 2 -59 9 -79 15 -21 6 -38 15 -38 20 0
5 13 35 30 66 16 32 38 82 48 112 17 50 22 55 50 58 18 2 32 9 32 16 0 7 -9
21 -21 31 -16 16 -19 26 -13 59 3 22 16 53 27 68 15 20 23 25 29 16z m489 2
c5 0 14 -12 19 -26 6 -14 20 -34 32 -43 l21 -18 -24 -34 c-13 -19 -25 -36 -27
-38 -1 -3 -6 0 -11 5 -5 5 -11 42 -14 82 -3 41 -1 72 4 72z m-798 -10 c8 0 25
-8 37 -18 21 -17 21 -21 9 -60 l-12 -43 -28 27 c-19 18 -26 31 -19 39 5 6 7
21 3 33 -4 15 -1 22 10 22z m-636 -57 c2 -7 2 -19 0 -25 -3 -7 -5 -2 -5 12 0
14 2 19 5 13z m447 -43 c2 0 15 -17 30 -38 14 -21 26 -51 26 -67 0 -16 -12
-46 -26 -67 -15 -21 -32 -38 -38 -38 -7 0 -11 26 -11 74 0 41 4 78 8 82 4 4 7
18 7 31 0 13 2 23 4 23z m347 -17 c12 -3 25 -16 31 -28 7 -16 5 -32 -6 -58 -8
-20 -20 -37 -25 -37 -6 0 -11 20 -11 44 0 25 -4 47 -10 51 -5 3 -7 12 -4 19 3
8 14 12 25 9z m-70 -3 c5 0 9 -13 9 -30 0 -16 3 -30 8 -30 4 0 9 -19 11 -43 3
-23 5 -63 5 -89 1 -36 -5 -52 -23 -72 -14 -14 -34 -26 -45 -26 -15 0 -17 3 -8
12 7 7 12 25 12 40 0 17 7 31 16 35 11 4 14 13 9 32 -4 14 -9 35 -11 46 -3 11
-2 44 1 73 4 28 11 52 16 52z m-780 -30 c5 0 14 -12 20 -27 6 -16 17 -35 25
-45 9 -9 17 -27 19 -40 1 -12 6 -35 10 -50 4 -16 11 -28 15 -28 5 0 22 -25 39
-55 17 -30 31 -64 31 -75 0 -11 -7 -20 -15 -20 -8 0 -30 14 -50 31 -22 20 -35
40 -35 56 0 15 -12 34 -30 50 -16 13 -30 31 -30 38 0 7 -7 18 -14 25 -8 6 -24
31 -35 54 -12 23 -21 45 -21 49 0 4 8 7 19 7 10 0 24 7 31 15 7 8 17 15 21 15z
m-158 -220 c2 0 23 -7 48 -15 24 -8 50 -24 57 -35 12 -19 11 -20 -15 -14 -16
4 -43 18 -60 31 -18 13 -33 26 -33 29 0 2 1 4 3 4z m1045 -133 c46 -2 89 -10
107 -20 l30 -16 -35 -2 c-19 -1 -39 0 -45 1 -5 2 -23 2 -39 1 -16 -1 -45 6
-63 14 -18 9 -33 18 -33 21 0 2 35 3 78 1z m-130 -100 l71 2 36 -41 c19 -23
35 -45 35 -50 0 -4 -18 -8 -40 -8 -22 0 -50 6 -63 13 -12 6 -24 15 -27 18 -3
3 -18 9 -35 14 -16 4 -44 8 -62 9 -17 1 -35 5 -39 8 -4 4 7 13 23 20 17 7 62
14 101 15z m-359 -27 c3 0 11 -4 17 -8 6 -4 16 -17 22 -28 8 -15 25 -24 56
-28 28 -4 54 -16 70 -33 14 -14 44 -35 65 -47 22 -11 39 -25 38 -31 -1 -5 -22
-9 -47 -9 -25 1 -65 6 -89 12 -24 5 -46 14 -50 19 -3 4 -18 16 -33 26 -15 9
-31 30 -34 45 -4 15 -13 36 -21 48 -7 11 -10 24 -6 27 3 4 9 7 12 7z m389
-107 c26 -3 54 -9 62 -14 10 -5 -1 -8 -32 -9 -25 0 -53 3 -62 6 -9 3 -16 10
-16 15 0 5 21 6 48 2z m955 -24 c42 1 77 -2 77 -6 -1 -5 -28 -29 -61 -55 -46
-36 -70 -48 -97 -49 -20 -1 -48 0 -62 1 -14 1 -31 7 -37 12 -7 6 -13 14 -13
19 0 5 6 9 14 9 8 0 16 6 19 14 3 7 23 22 44 34 29 16 57 21 116 21z m-263
-19 c11 0 20 -4 20 -10 0 -5 -9 -10 -20 -10 -11 0 -20 5 -20 10 0 6 9 10 20
10z"/>
<g>
<path d="M13449 8243 c-12 3 -27 -3 -39 -16 -11 -12 -20 -35 -20 -53 0 -25 6
-34 29 -44 16 -6 38 -10 48 -8 12 2 20 16 24 43 5 29 3 45 -8 57 -8 9 -23 18
-34 21z"/>
</g>
<g>
<path d="M13980 8148 c-14 2 -34 -3 -44 -11 -13 -10 -19 -27 -20 -58 l-1 -44
44 0 c30 0 47 5 54 17 7 11 8 29 1 55 -7 30 -14 39 -34 41z"/>
</g>
<g>
<path d="M12410 2860 c-5 0 -10 -5 -10 -11 0 -5 5 -7 10 -4 6 3 10 8 10 11 0
2 -4 4 -10 4z"/>
</g>
<g>
<path d="M12364 2770 c-2 0 -4 -7 -4 -16 0 -8 5 -12 10 -9 6 4 8 11 5 16 -4 5
-8 9 -11 9z"/>
</g>
<g>
<path d="M12341 2670 c-17 0 -18 -5 -14 -42 3 -24 7 -45 9 -47 1 -1 7 0 13 4
6 3 11 24 11 46 0 32 -4 39 -19 39z"/>
</g>
<g>
<path d="M12280 2500 c-6 0 -15 -12 -21 -27 -5 -14 -8 -34 -6 -42 2 -11 8 -6
20 16 9 18 17 37 17 43 0 5 -5 10 -10 10z"/>
</g>
<g>
<path d="M14026 2280 c-3 0 -8 -4 -11 -10 -3 -5 -1 -10 4 -10 6 0 11 5 11 10
0 6 -2 10 -4 10z"/>
</g>
<g>
<path d="M13610 2155 c-6 3 -15 -6 -21 -22 -6 -15 -13 -41 -16 -58 -3 -16 -17
-43 -30 -58 -12 -16 -23 -39 -23 -53 0 -13 4 -24 8 -24 5 0 13 10 19 23 6 12
19 42 29 67 10 25 24 52 31 61 7 8 13 25 13 37 0 11 -5 24 -10 27z"/>
</g>
<g>
<path d="M13521 1920 c-17 0 -19 -7 -18 -45 1 -26 6 -44 12 -42 5 3 9 16 8 31
-1 14 2 26 8 26 5 0 9 7 9 15 0 8 -9 15 -19 15z"/>
</g>
</g>
<g>
<path d="M4392 8959 c-15 0 -36 -4 -47 -9 -12 -4 -26 -14 -33 -22 -8 -10 -10
-31 -6 -61 4 -26 13 -52 20 -58 7 -5 27 -11 44 -11 17 -1 43 8 58 19 19 14 28
31 30 55 2 23 -4 43 -18 61 -14 18 -31 27 -48 26z"/>
</g>
<g>
<path d="M4846 8890 c-6 0 -22 -6 -36 -13 -19 -10 -24 -20 -22 -42 2 -16 16
-44 32 -62 16 -18 32 -48 36 -67 3 -20 17 -47 30 -61 17 -18 24 -39 26 -71 1
-38 -3 -50 -32 -79 -19 -19 -48 -37 -65 -41 -18 -3 -44 -17 -58 -30 -15 -14
-27 -35 -27 -48 0 -18 7 -25 31 -30 17 -3 40 -6 51 -6 11 0 35 7 53 15 18 9
41 24 51 33 11 9 31 25 46 34 14 10 32 34 38 54 8 23 10 61 7 98 -3 34 -11 73
-17 86 -6 14 -17 35 -24 47 -7 13 -20 31 -28 40 -9 10 -19 28 -23 41 -3 12
-18 40 -33 62 -14 22 -30 40 -36 40z"/>
</g>
<g>
<path d="M5041 8269 c-9 -1 -27 -3 -41 -5 -14 -2 -63 -9 -110 -15 -47 -6 -114
-15 -150 -20 -36 -5 -96 -12 -134 -14 -45 -3 -76 -11 -88 -22 -10 -9 -18 -29
-18 -44 0 -18 7 -32 19 -39 11 -5 49 -10 85 -10 35 0 76 4 90 9 13 6 55 11 93
12 37 1 93 8 123 15 30 6 79 15 108 19 29 4 59 14 67 22 8 8 15 23 15 33 0 11
-10 28 -22 40 -12 11 -29 19 -37 19z"/>
</g>
<g>
<path d="M4750 4793 c-31 13 -41 12 -82 -2 -28 -9 -66 -35 -93 -61 -25 -25
-64 -78 -85 -118 -22 -41 -40 -86 -40 -102 0 -16 -4 -31 -9 -34 -5 -3 -15 -30
-21 -58 -7 -29 -17 -61 -22 -70 -5 -10 -10 -47 -13 -84 -2 -36 -8 -71 -14 -77
-5 -7 -14 -41 -21 -77 -6 -36 -16 -87 -21 -115 -6 -27 -13 -131 -15 -231 -4
-111 -2 -211 5 -260 7 -43 17 -101 22 -129 6 -27 27 -97 46 -155 19 -58 36
-110 37 -117 1 -7 10 -20 19 -31 9 -10 17 -23 17 -28 0 -5 18 -32 39 -60 21
-29 42 -62 46 -75 4 -13 22 -40 41 -59 19 -19 58 -61 87 -93 28 -33 86 -86
127 -120 41 -33 93 -78 115 -99 22 -20 57 -49 78 -63 21 -14 41 -25 46 -25 4
0 20 -14 36 -30 16 -17 49 -42 73 -56 24 -15 49 -27 56 -29 6 -1 24 -7 39 -13
16 -7 34 -12 41 -12 6 0 17 5 24 12 7 7 12 21 12 32 0 12 -6 28 -13 36 -7 8
-23 21 -37 28 -14 7 -43 22 -65 35 -22 12 -67 41 -100 64 -33 23 -77 57 -97
76 -20 19 -41 37 -47 38 -5 2 -49 40 -97 84 -48 44 -101 94 -118 111 -17 17
-49 52 -71 79 -22 27 -52 64 -67 84 -15 20 -28 39 -28 42 0 4 -18 38 -40 75
-22 38 -40 80 -40 94 1 16 21 47 60 90 33 36 60 68 60 72 0 5 15 29 34 55 19
27 34 50 33 53 0 3 16 41 37 85 21 44 51 106 66 138 16 32 36 84 46 115 9 31
17 62 18 67 1 6 5 16 9 22 4 7 12 76 17 153 5 76 10 201 9 277 0 76 -5 176
-11 223 -7 57 -20 105 -40 145 -16 33 -35 65 -41 72 -7 7 -28 18 -47 26z m-46
-93 c6 0 22 -7 34 -16 12 -8 22 -25 22 -38 0 -12 6 -28 13 -34 9 -10 12 -86
11 -315 0 -214 -4 -318 -13 -357 -8 -30 -22 -75 -33 -100 -11 -25 -24 -53 -29
-62 -5 -10 -9 -25 -9 -34 0 -9 -6 -28 -14 -42 -8 -15 -26 -54 -41 -87 -15 -33
-37 -79 -48 -103 -12 -23 -43 -72 -69 -107 -27 -36 -54 -65 -62 -65 -8 0 -19
15 -24 33 -5 17 -16 66 -23 107 -8 44 -14 146 -14 245 0 136 5 193 23 285 13
63 29 142 37 175 8 33 17 78 20 100 3 22 13 65 22 95 8 30 19 59 24 65 5 5 9
16 9 25 0 8 16 47 36 85 19 39 54 87 76 108 22 20 46 37 52 37z"/>
</g>
<g>
<path d="M10892 3749 c-15 0 -36 -4 -48 -9 -11 -4 -46 -24 -77 -44 -31 -20
-61 -36 -67 -36 -5 0 -24 -13 -42 -30 -17 -16 -36 -30 -43 -30 -7 0 -18 -7
-25 -15 -10 -13 -9 -15 10 -15 12 0 45 8 74 18 28 9 56 22 61 28 6 6 33 17 60
23 28 7 67 20 88 29 21 10 40 26 43 39 3 12 3 27 -1 32 -3 6 -18 11 -33 10z"/>
</g>
<g>
<path d="M17060 1970 c-5 0 -10 -7 -10 -15 0 -8 9 -19 20 -25 11 -6 20 -20 20
-30 0 -11 5 -20 11 -20 7 0 9 -14 5 -37 -3 -21 -8 -78 -11 -126 -3 -49 -7 -92
-10 -97 -3 -5 -18 -11 -33 -15 -15 -3 -35 -17 -45 -31 -10 -13 -13 -24 -7 -24
5 0 10 5 10 10 0 6 9 10 20 10 16 0 20 -7 20 -35 0 -19 -4 -43 -9 -53 -5 -9
-17 -42 -26 -72 -9 -30 -27 -77 -39 -105 -13 -27 -26 -62 -30 -78 -4 -15 -24
-56 -45 -90 -21 -35 -42 -74 -46 -88 -4 -13 -20 -42 -34 -63 -14 -22 -35 -56
-47 -75 -11 -20 -33 -58 -48 -86 -16 -27 -41 -63 -58 -80 -22 -23 -39 -30 -71
-32 -23 -1 -60 -4 -82 -7 -22 -3 -61 -8 -87 -12 l-48 -6 -1 43 c-1 24 0 61 1
83 1 21 11 57 21 80 11 22 34 67 52 98 18 31 38 66 45 77 11 19 10 21 -11 21
-13 0 -31 -8 -40 -18 -10 -10 -17 -25 -17 -33 0 -8 -9 -25 -20 -39 -11 -14
-20 -30 -20 -36 0 -6 -6 -17 -14 -23 -8 -7 -20 -35 -26 -64 -7 -29 -16 -59
-20 -67 -5 -8 -4 -35 0 -60 5 -25 4 -50 0 -55 -6 -7 -39 -8 -92 -4 -46 4 -87
3 -92 -1 -4 -5 2 -13 13 -20 12 -6 64 -12 114 -14 88 -2 94 -4 143 -39 48 -35
53 -36 102 -28 29 4 61 16 72 26 19 17 23 17 78 1 32 -9 72 -16 88 -16 17 0
48 -9 70 -19 22 -11 46 -26 53 -34 10 -12 4 -27 -28 -77 -23 -35 -38 -66 -35
-71 3 -5 11 -9 19 -9 7 0 27 8 44 17 20 12 38 36 52 68 12 28 26 53 32 57 6 4
34 7 62 7 28 0 73 5 100 12 28 6 77 24 110 39 36 17 70 26 85 23 19 -3 32 -19
54 -64 16 -33 42 -71 58 -84 22 -19 41 -25 74 -25 25 0 53 4 63 10 10 5 49 12
87 14 52 4 88 0 149 -17 65 -19 80 -26 80 -42 0 -18 8 -20 83 -21 46 -1 95 1
110 5 20 6 27 14 27 32 0 19 -6 25 -30 27 -16 2 -43 8 -58 14 -19 7 -30 20
-34 40 -3 15 -20 41 -37 56 -17 15 -66 45 -109 66 -63 31 -76 41 -66 52 6 8 9
21 5 29 -3 8 -12 15 -21 15 -8 0 -15 3 -16 8 0 4 -1 25 -3 47 -1 22 2 46 7 53
5 6 20 12 32 12 12 0 28 6 34 14 9 10 6 17 -13 30 -14 9 -32 16 -41 16 -8 0
-16 8 -16 18 -1 9 -1 21 0 26 1 5 -1 16 -5 25 -3 9 -8 34 -10 56 -3 22 -4 95
-4 162 0 104 -2 128 -20 160 -11 21 -20 43 -20 49 0 6 -13 29 -29 51 -16 22
-46 49 -67 59 -26 13 -45 34 -65 71 -15 28 -25 54 -22 56 2 3 -9 14 -24 26
-15 11 -35 26 -43 34 -8 7 -27 19 -42 26 -15 8 -44 31 -63 52 -19 21 -35 43
-35 49 0 6 -11 27 -24 48 -13 20 -34 47 -47 58 -13 12 -34 24 -46 27 -13 3
-25 1 -28 -3 -3 -5 -21 -2 -40 6 -19 8 -39 14 -45 14z m87 -60 c5 0 23 -15 39
-33 16 -19 35 -51 43 -72 7 -21 25 -57 39 -81 19 -31 35 -45 64 -54 22 -6 57
-29 78 -51 26 -27 41 -53 45 -77 3 -21 11 -48 18 -61 7 -13 19 -28 27 -32 8
-4 27 -10 41 -13 15 -3 37 -16 49 -29 12 -13 28 -39 34 -58 7 -19 11 -76 10
-129 -1 -52 -3 -106 -3 -119 -1 -13 6 -43 14 -67 8 -25 15 -69 15 -99 0 -43
-4 -56 -19 -65 -11 -5 -27 -7 -35 -4 -9 3 -16 10 -16 16 0 5 -7 16 -15 24 -8
8 -21 23 -28 34 -9 13 -30 20 -72 24 -44 4 -65 2 -83 -10 -14 -9 -34 -13 -47
-10 -15 4 -24 16 -29 37 -5 25 -10 30 -28 27 -20 -3 -23 -10 -26 -58 l-3 -55
-70 -49 c-40 -29 -66 -53 -61 -58 6 -6 25 0 48 12 21 12 48 30 59 40 11 9 27
20 35 22 8 3 34 -10 56 -28 23 -18 61 -38 85 -43 24 -6 63 -11 86 -11 23 0 45
-5 48 -10 3 -6 -2 -37 -12 -71 -10 -33 -30 -76 -46 -94 -17 -21 -33 -32 -42
-28 -8 3 -15 9 -15 15 0 5 -14 27 -32 49 -25 31 -38 39 -65 39 -18 0 -41 -4
-51 -9 -9 -6 -48 -24 -86 -42 -39 -18 -89 -34 -113 -37 -33 -3 -44 -1 -49 11
-3 9 4 31 17 49 12 18 38 50 57 70 20 21 32 41 28 45 -4 4 -21 2 -38 -5 -18
-6 -33 -11 -34 -9 -2 1 4 18 13 37 8 19 19 43 24 52 5 10 9 25 9 34 0 9 9 27
20 41 11 14 20 34 20 43 0 10 6 23 14 29 7 6 16 30 19 52 3 22 12 48 20 57 8
9 18 36 22 60 4 23 14 57 23 75 8 17 22 56 30 87 7 30 18 78 24 105 5 28 8 82
6 122 -3 60 -7 76 -28 98 -23 25 -29 27 -82 21 -46 -5 -58 -3 -58 9 0 7 4 16
9 20 5 3 8 40 7 83 -2 42 -6 89 -11 105 -4 15 -3 27 2 27z m64 -270 c4 0 15
-7 23 -16 11 -10 17 -36 18 -77 1 -34 1 -71 -1 -82 -1 -11 -4 -38 -7 -60 -2
-22 -12 -65 -20 -95 -9 -30 -20 -69 -25 -86 -5 -17 -9 -38 -9 -47 0 -9 -18
-51 -40 -93 -22 -43 -40 -84 -40 -91 0 -8 -11 -34 -24 -58 -14 -24 -28 -59
-31 -79 -4 -19 -25 -65 -47 -103 -22 -37 -42 -83 -45 -101 -4 -23 -12 -34 -30
-38 -13 -4 -38 -1 -56 6 -17 7 -41 16 -52 20 -11 5 -46 18 -77 31 -32 12 -58
26 -58 30 0 4 4 9 8 11 4 2 22 25 40 51 18 26 32 52 32 58 0 5 11 19 25 31 14
12 25 29 25 37 0 9 11 28 25 43 14 15 25 32 25 38 0 6 11 26 23 43 13 18 43
77 67 132 23 55 46 105 49 110 4 6 20 51 36 100 16 50 32 95 36 100 3 6 10 26
14 45 4 19 12 47 18 62 6 14 29 38 51 52 22 14 43 26 47 26z m229 -712 c23 1
45 -7 64 -22 20 -17 27 -29 22 -41 -5 -14 -16 -17 -61 -13 -40 3 -62 11 -80
28 -14 13 -25 27 -25 31 0 4 10 10 23 12 12 2 38 5 57 5z m196 -138 c19 0 22
-6 26 -62 3 -35 1 -73 -3 -85 -7 -18 -16 -23 -45 -23 -35 0 -36 1 -29 28 3 15
12 53 18 85 9 49 14 57 33 57z m-1141 -146 c8 -4 15 -8 15 -10 0 -2 -7 -4 -15
-4 -8 0 -15 4 -15 10 0 5 7 7 15 4z m1242 -44 c1 0 38 -18 82 -41 44 -22 84
-45 87 -51 4 -6 -12 -9 -42 -7 -27 2 -68 11 -92 22 -34 14 -59 17 -110 14 -37
-3 -85 -9 -107 -12 -33 -6 -38 -5 -27 6 6 7 37 14 68 16 38 2 69 11 97 28 23
14 43 25 44 25z"/>
<g>
<path d="M17361 1300 c-11 0 -27 -10 -35 -22 -8 -13 -18 -36 -22 -53 -4 -16
-10 -34 -14 -40 -4 -5 -10 -36 -14 -67 -6 -52 -4 -58 13 -58 10 0 24 6 30 14
6 7 20 51 31 97 10 46 22 94 26 107 5 18 2 22 -15 22z"/>
</g>
</g>
<g>
<path d="M16057 1940 c-13 0 -36 -9 -51 -21 -14 -11 -26 -27 -26 -36 0 -9 -10
-26 -22 -39 -13 -12 -33 -36 -45 -52 -13 -17 -23 -37 -23 -46 0 -8 -12 -28
-27 -43 -16 -15 -31 -27 -35 -26 -4 2 -16 -9 -27 -24 -12 -14 -21 -34 -21 -44
0 -9 -7 -25 -16 -33 -14 -14 -19 -14 -54 4 -22 11 -47 20 -56 20 -9 0 -30 -12
-48 -26 -17 -15 -55 -49 -84 -75 -29 -27 -66 -56 -82 -64 -15 -8 -39 -28 -52
-44 l-23 -29 -75 15 c-41 8 -145 21 -230 29 -85 7 -191 18 -236 24 -44 5 -113
10 -153 10 -56 0 -81 -5 -111 -22 -22 -13 -40 -27 -40 -32 0 -5 -7 -17 -15
-26 -12 -13 -14 -28 -9 -60 4 -23 14 -44 22 -48 9 -3 24 6 39 24 13 16 33 39
44 50 14 14 17 24 10 28 -6 4 -11 1 -11 -7 0 -7 -11 -19 -25 -25 -13 -6 -27
-7 -30 -3 -2 5 12 22 33 37 37 29 37 29 182 28 80 0 210 -6 290 -13 80 -7 155
-14 168 -17 14 -3 22 -12 22 -25 0 -14 10 -25 30 -32 17 -6 30 -17 30 -24 0
-7 -11 -29 -25 -49 -14 -21 -28 -47 -31 -58 -3 -12 -23 -33 -45 -48 -21 -15
-39 -34 -39 -42 0 -8 15 -20 33 -27 30 -12 26 -13 -78 -24 -103 -10 -107 -11
-60 -18 28 -3 76 -3 107 2 32 4 63 4 70 0 6 -4 50 -5 98 -2 l86 6 25 -34 c14
-19 29 -46 32 -60 4 -14 17 -41 30 -60 13 -19 30 -49 38 -67 7 -17 20 -32 28
-32 11 0 13 12 8 56 -4 42 -2 56 9 61 8 3 14 16 14 28 0 13 6 26 13 28 6 3 0
6 -15 6 -23 1 -28 6 -28 27 l0 25 85 -7 c78 -6 89 -5 130 17 25 13 45 27 45
30 0 3 12 19 28 36 15 17 32 45 39 63 11 29 10 33 -8 37 -11 3 -22 17 -25 32
-3 14 -10 36 -15 49 -7 17 -5 24 7 29 8 3 43 3 77 0 34 -3 63 -10 65 -16 2 -6
10 -11 18 -11 8 0 19 -12 24 -26 7 -16 7 -32 0 -44 -5 -10 -10 -31 -10 -47 0
-15 -7 -47 -15 -71 -8 -23 -27 -66 -42 -94 -15 -29 -39 -58 -56 -67 -17 -9
-66 -48 -111 -86 -45 -39 -94 -79 -109 -89 -21 -13 -44 -17 -80 -15 -29 2 -58
0 -64 -4 -7 -5 -13 -12 -13 -17 0 -5 15 -10 33 -12 17 -2 31 -7 31 -13 -1 -5
-13 -17 -27 -25 -14 -8 -67 -43 -118 -78 -51 -34 -104 -65 -118 -69 -14 -3
-38 -14 -53 -24 -14 -11 -35 -19 -46 -19 -12 0 -23 4 -27 9 -3 6 8 25 25 44
16 19 30 40 30 46 0 7 26 24 58 38 31 14 62 26 67 27 6 1 31 12 57 24 25 13
52 30 60 39 9 12 9 15 1 9 -8 -4 -13 -2 -13 5 0 8 -10 9 -32 5 -17 -3 -39 -13
-48 -21 -9 -8 -23 -15 -31 -15 -7 0 -36 -12 -64 -26 -28 -14 -77 -49 -108 -79
-31 -30 -57 -61 -57 -69 0 -9 -13 -22 -29 -30 -16 -9 -31 -22 -34 -31 -4 -8
-4 -22 0 -31 5 -13 15 -15 57 -10 28 4 69 13 91 21 22 7 92 38 155 69 63 31
135 67 160 81 25 14 52 25 61 25 9 0 40 21 68 46 l51 45 167 2 c105 1 168 6
167 12 -1 6 -19 13 -40 17 -21 4 -78 8 -126 8 -48 1 -90 5 -93 10 -3 5 8 16
24 25 17 8 38 15 49 15 10 0 28 10 40 23 12 13 22 28 22 34 0 6 23 30 50 53
28 23 50 50 50 61 0 10 -7 19 -15 19 -8 0 -15 4 -15 9 0 5 6 14 14 20 7 6 21
38 30 71 9 33 23 72 31 87 8 15 15 43 15 61 0 18 -5 42 -11 54 -6 11 -36 31
-67 46 -40 18 -77 26 -127 28 l-70 3 -5 38 c-3 21 -10 45 -15 53 -5 8 -8 30
-6 48 1 19 10 42 19 52 10 10 25 28 35 41 9 13 17 33 17 44 0 12 13 34 30 50
22 21 42 29 80 33 34 3 50 1 50 -7 0 -7 11 -22 25 -34 14 -12 37 -40 50 -62
13 -22 32 -57 41 -77 9 -21 20 -38 25 -38 5 0 20 -24 34 -54 14 -30 25 -62 25
-70 0 -8 6 -30 14 -48 8 -18 18 -42 22 -53 5 -11 9 -40 9 -65 1 -25 9 -63 17
-84 9 -21 26 -45 39 -52 13 -7 32 -13 42 -14 10 0 20 7 24 16 3 9 -5 34 -18
57 -14 25 -26 68 -30 106 -4 39 -2 84 6 118 7 30 22 64 33 76 10 12 22 35 26
51 l7 28 64 -7 c36 -3 79 -4 96 0 19 4 27 11 22 16 -5 5 -35 11 -67 13 -31 1
-62 8 -68 14 -8 8 -2 18 21 37 17 15 31 31 31 36 0 5 14 22 31 37 17 15 40 35
51 45 15 14 27 17 51 11 18 -4 48 -6 67 -5 24 2 48 16 84 48 28 25 62 61 77
81 15 21 43 46 63 56 20 11 36 25 36 33 0 7 -7 13 -15 13 -9 0 -30 -7 -48 -16
-18 -9 -50 -31 -72 -49 -22 -18 -60 -51 -85 -73 -25 -23 -47 -36 -49 -31 -2 6
7 21 20 35 12 13 28 24 34 24 6 0 21 10 33 23 12 13 22 29 22 35 0 7 -4 12 -9
12 -4 0 -26 -12 -47 -27 -21 -14 -56 -36 -76 -48 -33 -19 -45 -20 -110 -13
-40 5 -93 13 -118 17 -25 5 -58 13 -75 19 -16 6 -68 20 -115 32 -47 12 -96 30
-110 40 -14 9 -39 24 -57 33 -18 10 -43 17 -56 17z m-3 -70 c14 0 27 -4 30 -8
3 -5 23 -21 44 -36 30 -21 54 -28 113 -32 41 -3 94 -13 119 -21 25 -9 49 -20
55 -25 5 -4 21 -8 36 -8 15 0 31 -4 34 -10 3 -5 26 -10 51 -10 24 0 44 -3 44
-7 0 -3 -21 -29 -47 -58 -27 -28 -62 -69 -80 -90 -22 -26 -38 -36 -51 -33 -10
3 -57 2 -103 -2 -48 -5 -91 -4 -101 1 -10 6 -18 16 -18 23 0 8 -7 19 -15 26
-8 7 -12 16 -9 21 3 5 -16 32 -42 59 -25 27 -68 58 -95 70 l-49 20 35 51 c20
27 33 54 30 59 -4 6 5 10 19 10z m-397 -360 c6 0 28 -9 47 -21 22 -13 36 -29
36 -40 0 -11 6 -30 14 -42 8 -12 17 -40 20 -62 l7 -40 -51 -18 c-28 -10 -69
-34 -91 -54 -22 -20 -42 -46 -45 -60 -4 -13 -14 -28 -24 -33 -14 -8 -23 3 -55
68 -20 42 -49 86 -63 98 l-25 20 29 28 c16 15 45 36 64 46 19 10 55 39 80 64
24 25 50 46 57 46z m580 -21 c16 -6 52 -8 85 -4 l57 7 -12 -34 c-7 -18 -15
-35 -18 -38 -3 -3 -14 -20 -23 -37 -9 -18 -21 -33 -27 -33 -5 0 -21 24 -35 54
-13 30 -31 60 -39 66 -8 7 -15 16 -15 21 0 5 12 4 27 -2z m-844 -219 c4 0 16
-15 27 -32 11 -18 25 -51 31 -73 6 -22 20 -57 30 -78 l20 -38 -33 2 c-18 1
-78 -2 -132 -6 l-100 -8 36 44 c21 25 48 67 60 94 13 28 30 60 38 73 8 12 18
22 23 22z m417 -7 c3 -2 6 -14 8 -26 1 -12 5 -42 8 -67 4 -41 2 -48 -31 -82
-35 -37 -38 -38 -110 -38 -41 0 -76 4 -79 9 -4 5 -1 22 4 38 6 15 25 49 43 75
18 27 39 48 47 48 8 1 35 12 60 25 25 12 47 21 50 18z"/>
</g>
<g>
<path d="M16903 1520 c-5 0 -17 -6 -28 -12 -11 -6 -23 -16 -27 -22 -4 -6 -8
-14 -8 -18 0 -3 16 -1 35 5 23 7 35 16 35 29 0 10 -3 18 -7 18z"/>
</g>
<g>
<path d="M16728 1480 c-17 0 -18 -2 -8 -15 7 -8 21 -15 31 -15 10 0 21 -4 24
-10 3 -5 13 -10 20 -10 9 0 12 6 9 15 -4 8 -14 15 -24 15 -11 0 -22 5 -25 10
-3 6 -15 10 -27 10z"/>
</g>
<g>
<path d="M16777 1420 c-7 0 -23 -10 -35 -22 -12 -13 -30 -31 -39 -41 -10 -10
-43 -43 -73 -73 -30 -30 -57 -54 -61 -54 -4 0 -10 -14 -14 -31 -4 -17 -4 -33
-1 -36 3 -3 34 25 68 63 35 38 87 91 116 119 29 27 52 56 52 63 0 6 -6 12 -13
12z"/>
</g>
<g>
<path d="M14556 1080 c-9 0 -16 -2 -16 -3 0 -2 7 -18 16 -35 13 -27 21 -32 50
-32 19 0 34 4 34 9 0 5 -13 11 -29 14 -17 4 -30 14 -34 26 -3 12 -12 21 -21
21z"/>
</g>
</g>
</svg>
