<?xml version="1.0" standalone="no"?>
<!DOCTYPE svg PUBLIC "-//W3C//DTD SVG 20010904//EN"
 "http://www.w3.org/TR/2001/REC-SVG-20010904/DTD/svg10.dtd">
<svg version="1.0" xmlns="http://www.w3.org/2000/svg"
 width="1225.000000pt" height="968.000000pt" viewBox="0 0 1225.000000 968.000000"
 preserveAspectRatio="xMidYMid meet">
<metadata>
Created by potrace 1.16, written by Peter Selinger 2001-2019
</metadata>
<g transform="translate(0.000000,968.000000) scale(0.100000,-0.100000)"
fill="#000000" stroke="none">
<g>
<path d="M4235 8004 c-55 2 -136 -1 -180 -5 -44 -4 -109 -13 -145 -20 -36 -6
-94 -20 -130 -31 -36 -10 -74 -23 -85 -28 -11 -5 -45 -19 -75 -31 -30 -11 -68
-26 -85 -33 -16 -6 -57 -26 -90 -45 -33 -19 -83 -51 -112 -73 -29 -21 -99 -85
-155 -142 -57 -57 -114 -122 -128 -145 -14 -24 -35 -55 -47 -71 -13 -15 -23
-33 -23 -40 0 -6 -11 -26 -25 -44 -14 -18 -33 -55 -42 -82 -9 -26 -22 -59 -30
-73 -7 -15 -13 -31 -13 -37 0 -5 -9 -28 -19 -50 -11 -22 -29 -69 -40 -104 -12
-36 -25 -72 -30 -81 -6 -9 -12 -32 -15 -50 -4 -19 -9 -52 -12 -74 -3 -22 -8
-82 -11 -133 -3 -51 0 -136 7 -190 6 -53 18 -115 25 -137 7 -22 21 -60 31 -85
10 -25 30 -63 44 -85 14 -22 31 -49 37 -60 7 -11 22 -36 32 -56 11 -20 36 -49
55 -65 19 -16 55 -43 79 -61 24 -17 78 -48 118 -68 41 -20 83 -41 94 -47 11
-6 54 -28 95 -49 41 -20 95 -43 120 -49 25 -7 52 -16 61 -20 9 -5 36 -14 60
-21 24 -6 60 -13 79 -15 19 -2 71 -8 115 -14 44 -5 150 -15 235 -21 85 -6 191
-13 235 -14 44 -1 86 -3 94 -4 8 -1 5 -8 -10 -20 -19 -15 -21 -22 -12 -32 7
-7 29 -12 50 -11 20 1 66 10 102 20 36 11 86 24 109 30 42 9 44 9 55 -17 7
-14 21 -39 31 -54 11 -16 26 -41 35 -57 9 -16 43 -68 76 -116 33 -47 74 -103
91 -123 17 -20 44 -57 61 -82 31 -45 31 -45 10 -58 -11 -7 -41 -25 -66 -39
-25 -14 -66 -39 -91 -56 -25 -17 -61 -40 -81 -51 -20 -11 -75 -47 -123 -80
-47 -33 -100 -69 -117 -80 -16 -11 -56 -39 -88 -62 -32 -24 -63 -43 -68 -43
-6 0 -17 -8 -26 -18 -10 -10 -17 -23 -17 -29 0 -6 31 -51 70 -101 38 -50 83
-117 99 -150 16 -32 36 -64 45 -71 9 -8 16 -19 16 -26 0 -7 8 -19 17 -26 9 -8
41 -52 71 -99 30 -47 71 -105 92 -130 20 -25 49 -71 64 -102 15 -32 43 -80 62
-108 19 -27 34 -54 34 -59 0 -5 3 -11 8 -13 4 -1 23 -23 42 -48 19 -25 47 -58
62 -74 15 -17 32 -40 39 -53 7 -13 10 -24 8 -26 -2 -2 -132 0 -289 5 -171 5
-365 5 -485 -1 -110 -5 -325 -10 -478 -10 -154 0 -315 -5 -359 -11 -53 -8
-211 -9 -471 -5 -266 4 -418 2 -472 -5 -44 -7 -93 -13 -110 -16 -16 -2 -40 -6
-51 -9 -12 -2 -27 -18 -34 -34 -6 -16 -33 -42 -58 -59 -26 -16 -85 -56 -132
-88 -47 -33 -132 -93 -188 -134 -56 -41 -144 -101 -195 -132 -50 -32 -125 -82
-166 -110 -41 -29 -92 -70 -115 -91 -23 -21 -66 -57 -97 -80 -31 -23 -92 -71
-135 -106 -43 -36 -113 -98 -154 -139 -41 -42 -93 -88 -114 -104 -22 -15 -46
-37 -53 -48 -8 -11 -19 -20 -24 -20 -6 0 -30 -15 -53 -34 -23 -19 -53 -39 -66
-45 -14 -5 -63 -40 -108 -78 -46 -37 -98 -78 -115 -91 -25 -19 -32 -31 -33
-62 -1 -22 -10 -51 -20 -65 -10 -15 -27 -41 -36 -58 -15 -27 -15 -34 -3 -56 8
-14 17 -43 20 -63 5 -33 10 -39 43 -47 20 -5 269 -12 552 -16 283 -3 711 -7
950 -8 239 -1 500 -1 580 1 80 2 201 -1 270 -7 69 -6 247 -15 395 -21 149 -5
341 -13 428 -16 103 -4 185 -2 240 6 64 10 134 10 319 1 130 -7 248 -9 262 -5
14 3 26 12 26 19 0 8 -6 17 -12 22 -7 4 -233 9 -503 10 -269 2 -519 5 -555 7
-36 2 -117 7 -180 10 -63 3 -180 9 -260 12 -80 4 -167 9 -195 11 -27 3 -122 5
-210 4 -88 0 -200 -1 -250 -2 -49 -1 -98 2 -107 6 -10 4 -55 2 -100 -4 -47 -6
-98 -7 -118 -3 -19 5 -233 10 -475 12 -242 1 -458 4 -480 5 -22 1 -42 3 -45 4
-3 1 -108 4 -235 6 -126 2 -238 4 -247 5 -11 0 -18 8 -18 20 0 18 7 20 78 22
42 1 205 3 362 3 157 1 332 5 390 9 58 4 134 9 170 11 36 2 146 4 245 5 99 0
245 -2 325 -5 80 -3 235 -10 345 -16 110 -6 209 -10 220 -10 11 1 29 2 40 2
11 1 79 -2 150 -6 72 -4 153 -9 180 -11 28 -2 84 -6 125 -9 41 -3 336 -7 655
-9 319 -3 740 -10 935 -16 195 -7 405 -9 465 -5 61 3 160 10 220 15 61 5 254
12 430 15 176 3 327 6 335 6 8 0 123 4 255 9 132 5 357 14 500 20 143 5 384
14 535 20 151 5 320 12 375 15 55 3 213 8 350 10 138 2 412 7 610 9 198 3 450
8 560 11 110 3 207 6 215 6 8 1 160 5 338 10 178 5 358 11 400 15 74 6 78 6
89 -17 6 -13 15 -34 18 -46 6 -20 3 -22 -37 -21 -24 1 -133 1 -243 0 -110 -1
-290 -1 -400 1 -110 1 -229 0 -265 -2 -36 -2 -99 -7 -140 -12 -41 -4 -149 -11
-239 -14 -90 -3 -168 -8 -173 -11 -5 -3 -39 -10 -76 -16 -37 -6 -92 -12 -122
-13 -30 -1 -91 -7 -135 -13 -44 -6 -96 -15 -116 -20 -20 -5 -58 -7 -85 -5 -27
2 -80 -2 -119 -9 -44 -9 -96 -12 -140 -8 -38 4 -178 3 -310 -1 -132 -4 -244
-5 -248 -2 -4 3 -13 0 -20 -5 -7 -6 -88 -13 -182 -17 -93 -4 -246 -7 -340 -6
-93 1 -305 2 -470 1 -165 0 -343 -2 -395 -2 -52 -1 -279 2 -505 6 -225 4 -417
7 -425 6 -8 -1 -64 -1 -125 -2 -60 0 -195 3 -300 6 -104 3 -214 2 -244 -2 -30
-4 -56 -12 -58 -19 -2 -6 12 -16 31 -23 21 -7 89 -11 163 -10 71 0 405 -3 743
-7 338 -4 707 -7 820 -7 113 1 401 3 640 4 239 2 494 7 565 11 72 5 254 11
405 14 151 3 358 11 460 16 102 6 217 14 255 19 39 5 122 15 185 23 63 8 165
18 225 22 61 4 128 11 151 16 22 4 101 11 175 15 74 4 267 7 429 6 162 0 352
-3 422 -6 76 -4 157 -1 200 5 40 6 84 11 97 10 14 -1 40 9 58 21 18 13 33 26
33 31 0 4 17 26 39 50 21 23 46 58 55 79 10 20 35 56 57 79 22 24 52 59 66 79
15 19 30 37 33 40 4 3 21 26 38 52 18 26 50 68 72 93 22 26 40 52 40 59 0 7
17 33 38 57 22 24 45 56 53 71 8 14 46 63 84 108 39 45 87 101 108 123 20 23
56 68 80 101 23 32 61 82 84 110 24 28 55 69 70 91 15 22 42 57 60 78 18 20
33 42 33 48 0 7 16 34 35 60 19 27 35 52 35 55 0 3 43 49 96 102 94 94 96 97
105 157 5 33 6 86 2 119 l-6 58 -51 -7 c-28 -4 -134 -7 -236 -7 -102 1 -225 5
-275 11 -49 5 -92 8 -95 6 -3 -1 -61 -6 -130 -11 -69 -4 -134 -7 -145 -6 -11
0 -83 -4 -160 -9 -77 -5 -189 -12 -250 -15 -60 -3 -126 -7 -145 -9 -19 -2 -73
-6 -120 -9 -47 -3 -211 -10 -365 -15 -154 -6 -320 -13 -370 -16 -49 -2 -146
-7 -215 -10 -69 -3 -192 -8 -274 -11 -82 -2 -153 -7 -157 -10 -4 -2 -10 0 -13
5 -3 5 0 13 7 19 6 6 36 19 66 31 29 11 61 26 70 34 9 8 50 32 91 53 41 20 89
48 106 61 17 13 35 23 40 23 5 0 38 12 74 27 36 15 67 30 70 33 3 4 31 20 64
36 32 16 63 39 69 52 6 12 14 22 19 22 4 0 1 19 -8 43 -9 23 -30 71 -47 107
-17 36 -36 72 -42 80 -6 8 -18 34 -27 57 -15 40 -15 42 6 61 11 11 43 32 70
46 27 14 54 30 60 35 6 5 47 28 91 51 44 24 91 51 105 60 14 10 57 36 95 58
39 22 104 55 145 73 41 18 85 41 98 50 13 10 36 20 51 24 16 3 38 16 49 28 11
12 25 39 33 59 12 34 11 39 -16 80 -16 24 -49 81 -74 128 -24 47 -54 99 -66
115 -13 17 -31 46 -40 65 -10 19 -34 54 -53 78 -22 27 -43 42 -57 42 -12 0
-28 -7 -35 -15 -7 -8 -9 -24 -5 -37 4 -13 17 -34 29 -48 12 -14 38 -52 57 -85
20 -33 53 -91 74 -130 21 -38 49 -84 61 -101 13 -17 25 -41 26 -53 3 -20 -13
-31 -112 -82 -63 -33 -128 -70 -145 -83 -16 -13 -61 -40 -100 -60 -38 -21 -90
-48 -114 -62 -25 -13 -52 -31 -61 -39 -9 -8 -20 -15 -23 -15 -4 0 -46 -23 -94
-50 -48 -28 -94 -50 -103 -50 -9 0 -32 33 -58 84 -28 53 -52 87 -68 94 -16 8
-32 8 -49 2 -14 -5 -25 -14 -25 -19 0 -5 15 -31 33 -58 18 -26 41 -70 51 -97
18 -48 18 -49 0 -63 -10 -8 -146 -77 -301 -154 -155 -77 -305 -155 -333 -175
-28 -19 -70 -45 -93 -58 -23 -12 -53 -29 -67 -37 -13 -8 -42 -26 -64 -41 -21
-16 -43 -28 -48 -28 -6 0 -56 -22 -111 -49 -56 -26 -127 -59 -157 -72 -30 -12
-72 -33 -92 -46 -21 -13 -42 -23 -48 -23 -5 0 -10 -4 -10 -10 0 -5 -5 -10 -11
-10 -6 0 -22 -9 -36 -20 -14 -11 -32 -20 -39 -20 -8 0 -38 -12 -67 -26 -51
-25 -57 -26 -232 -25 -118 1 -202 7 -243 16 -35 8 -97 15 -137 15 l-75 0 -15
37 c-9 20 -28 53 -43 72 -15 20 -35 52 -46 71 -10 19 -29 49 -42 67 -13 17
-24 36 -24 41 0 5 -7 15 -14 22 -8 6 -25 33 -37 58 -13 26 -52 88 -89 137 -36
50 -75 106 -87 125 -11 19 -35 62 -53 95 -18 33 -51 87 -74 119 -22 33 -65 84
-93 115 -29 30 -53 58 -53 63 0 5 -23 43 -51 86 -28 42 -55 79 -60 80 -5 2 -9
10 -9 17 0 9 17 16 48 20 26 3 72 10 102 16 30 5 145 21 255 34 110 14 287 29
393 35 107 5 197 12 201 14 4 3 45 7 91 11 47 3 108 10 135 15 28 5 96 12 153
16 l104 7 15 32 c9 18 13 41 9 50 -5 15 -16 17 -84 11 -42 -3 -129 -13 -192
-21 -63 -8 -198 -21 -300 -29 -102 -8 -232 -18 -290 -21 -58 -4 -125 -11 -150
-16 -25 -5 -99 -16 -165 -24 -66 -8 -180 -22 -253 -31 -126 -16 -134 -15 -152
1 -11 10 -20 24 -20 31 0 7 -4 14 -9 16 -5 2 -24 24 -43 50 -18 26 -54 76 -80
113 -27 36 -48 68 -48 71 0 3 -31 47 -70 97 -38 50 -70 97 -70 104 0 7 6 13
13 14 6 0 21 2 32 4 11 1 65 10 120 18 55 9 152 20 215 26 63 5 174 19 245 30
72 12 160 28 196 36 37 8 93 15 125 15 33 0 88 5 124 10 36 6 87 12 115 15 27
3 79 10 115 16 36 6 121 17 190 24 69 8 153 15 188 15 34 0 104 6 155 14 50 8
119 17 152 20 33 3 71 8 85 11 14 3 56 10 94 15 37 6 72 12 75 15 4 2 95 16
202 31 107 14 213 26 236 25 22 0 45 5 50 12 5 7 16 27 23 45 9 23 10 36 2 44
-7 7 -43 7 -118 -1 -60 -7 -152 -18 -204 -26 -52 -9 -153 -24 -225 -36 -71
-11 -182 -29 -245 -40 -64 -10 -176 -24 -250 -29 -73 -6 -172 -15 -219 -20
-47 -5 -131 -16 -186 -24 -55 -9 -174 -22 -265 -31 -91 -9 -217 -24 -280 -35
-63 -11 -149 -26 -190 -34 -41 -8 -156 -21 -255 -30 -99 -9 -216 -23 -260 -31
-44 -8 -93 -16 -108 -18 -21 -3 -32 1 -43 18 -8 13 -24 25 -36 28 -12 3 -30 2
-40 -4 -11 -6 -18 -21 -18 -37 0 -22 -11 -36 -47 -64 -27 -20 -74 -52 -105
-72 -31 -20 -59 -36 -62 -36 -3 0 -37 -20 -75 -45 -38 -25 -73 -45 -78 -45 -4
0 -53 -29 -107 -65 l-99 -66 -34 33 c-19 18 -43 47 -54 65 -11 18 -29 35 -39
38 -11 4 -20 11 -20 17 0 5 -13 27 -30 48 -16 21 -30 41 -30 46 0 4 -11 19
-24 33 -14 15 -45 65 -69 113 -31 62 -41 91 -33 97 6 5 43 25 81 43 39 19 97
50 130 68 33 18 90 65 128 103 37 38 88 101 113 140 26 40 64 108 84 152 20
44 53 121 73 170 25 62 43 134 59 230 18 110 23 179 23 320 -1 99 -5 205 -9
235 -5 30 -15 67 -22 81 -7 15 -18 57 -24 95 -6 38 -23 94 -37 126 -13 31 -38
69 -54 84 -16 15 -29 36 -29 46 0 10 -7 21 -15 24 -8 4 -15 13 -15 20 0 8 -21
38 -47 66 -27 28 -93 85 -148 126 -57 43 -148 98 -211 128 -61 30 -118 54
-126 54 -8 0 -18 4 -24 8 -5 5 -47 21 -94 36 -46 15 -93 32 -103 38 -11 5 -47
14 -81 19 -33 6 -106 11 -161 13z m-81 -84 c67 0 157 -7 201 -14 44 -8 101
-21 126 -29 26 -8 80 -27 120 -42 41 -15 88 -33 104 -39 17 -7 64 -30 105 -51
41 -21 110 -62 152 -91 42 -30 96 -74 120 -100 23 -25 51 -56 61 -67 10 -12
25 -34 33 -49 14 -26 13 -28 -16 -43 -17 -9 -33 -27 -36 -42 -4 -14 -3 -38 2
-52 8 -22 16 -26 57 -29 40 -3 48 0 55 18 8 20 9 20 24 3 8 -10 25 -56 36
-103 12 -47 27 -125 35 -175 8 -49 15 -140 16 -202 1 -62 -4 -143 -10 -180 -6
-37 -17 -102 -24 -143 -8 -41 -18 -97 -24 -123 -6 -27 -13 -53 -17 -58 -3 -5
-14 -7 -25 -4 -11 4 -45 -6 -81 -22 -35 -15 -87 -42 -116 -59 -29 -18 -67 -43
-85 -57 -17 -13 -60 -38 -93 -55 -41 -21 -63 -39 -67 -54 -4 -15 0 -29 12 -41
16 -16 23 -17 67 -6 28 7 62 24 79 40 17 16 35 29 40 29 5 0 21 12 37 26 15
15 62 42 104 60 43 19 79 32 82 30 2 -3 -17 -47 -43 -98 -26 -51 -60 -111 -75
-133 -16 -22 -61 -74 -102 -116 -50 -52 -98 -89 -150 -118 -43 -23 -88 -44
-100 -47 -13 -3 -43 -7 -68 -10 -25 -3 -88 -13 -140 -23 -75 -15 -134 -18
-280 -16 -102 1 -205 6 -230 10 -25 5 -65 9 -90 11 -25 1 -94 5 -155 10 -77 5
-134 15 -190 34 -44 15 -96 33 -115 40 -19 7 -104 46 -187 87 -84 41 -173 92
-198 113 -26 22 -55 45 -66 50 -10 6 -19 16 -19 22 0 5 -13 25 -28 43 -16 17
-48 72 -72 121 -24 49 -47 97 -52 106 -4 10 -15 66 -24 125 -12 77 -14 138
-10 213 4 58 9 123 12 145 3 22 10 62 16 90 6 27 22 72 34 100 13 27 24 60 24
72 0 12 5 25 10 28 6 3 19 27 31 53 11 26 37 79 56 117 20 39 64 111 98 160
35 50 88 115 118 146 30 31 91 85 136 121 45 35 123 85 174 111 50 25 124 57
163 71 39 13 107 32 150 42 44 9 99 20 123 25 24 5 47 11 49 14 3 3 60 5 126
5z m1546 -2551 c19 0 32 -11 58 -52 18 -29 52 -79 77 -112 24 -33 68 -96 98
-140 29 -44 72 -102 95 -128 23 -27 42 -55 42 -63 0 -8 -3 -14 -7 -14 -5 0
-46 -3 -93 -6 -47 -3 -152 -14 -235 -25 -82 -11 -179 -24 -215 -29 -36 -6 -94
-15 -130 -21 -36 -5 -99 -14 -140 -19 -41 -4 -127 -13 -190 -19 -63 -7 -160
-18 -215 -27 -55 -8 -113 -19 -130 -23 -16 -5 -65 -17 -108 -27 -42 -9 -80
-14 -83 -11 -4 3 18 21 48 40 30 19 60 42 67 51 7 9 18 16 23 16 5 0 21 8 36
19 15 10 60 38 100 62 41 24 108 65 150 91 43 26 92 54 111 63 19 8 54 31 77
50 23 19 49 35 56 35 8 0 18 4 24 9 5 5 54 35 109 67 55 31 118 67 140 80 22
13 49 28 60 33 12 5 41 24 66 43 24 19 54 40 64 46 11 6 31 11 45 11z m425
-597 c11 -3 32 -19 47 -36 15 -17 27 -34 28 -38 0 -4 7 -14 17 -23 9 -9 33
-42 54 -73 21 -31 59 -87 86 -124 26 -36 65 -88 85 -115 20 -26 45 -64 55 -82
10 -19 40 -71 67 -115 27 -45 70 -108 95 -141 25 -33 52 -71 60 -85 8 -14 31
-54 51 -90 20 -36 58 -99 85 -140 27 -41 63 -102 81 -135 18 -33 45 -85 61
-115 16 -30 51 -95 76 -143 26 -49 47 -94 47 -100 -1 -7 -16 -23 -35 -37 -18
-14 -96 -79 -172 -145 -76 -66 -179 -158 -228 -205 -50 -47 -139 -128 -199
-180 -60 -52 -125 -108 -145 -124 -20 -17 -74 -64 -121 -105 -47 -42 -96 -87
-110 -101 -14 -14 -53 -48 -87 -74 -35 -27 -63 -52 -63 -56 0 -5 -6 -10 -14
-13 -9 -4 -23 8 -38 30 -13 20 -27 44 -33 53 -5 9 -25 38 -42 66 -18 28 -36
65 -39 82 -4 18 -10 32 -14 32 -5 0 -11 12 -15 28 -3 15 -19 42 -35 61 -17 18
-30 38 -30 43 0 6 -13 27 -29 47 -15 20 -59 92 -96 161 -37 69 -71 126 -76
128 -4 2 -17 23 -29 48 -12 24 -26 44 -31 44 -5 0 -9 6 -9 13 0 6 -14 32 -30
57 -16 25 -51 72 -76 106 -26 33 -60 83 -75 110 -16 27 -45 80 -65 119 -20 38
-52 90 -70 115 -19 25 -60 74 -92 109 -31 35 -59 68 -61 75 -2 6 -19 28 -37
49 -19 20 -34 44 -34 51 0 8 -15 41 -34 73 -19 32 -46 73 -60 92 -14 19 -26
39 -26 43 0 5 -19 34 -42 65 -24 31 -60 81 -80 111 -21 30 -38 56 -38 58 0 1
-20 32 -45 67 -25 36 -45 67 -45 70 0 3 -16 33 -35 66 -19 32 -35 61 -35 64 0
3 12 9 28 15 15 6 61 20 102 32 41 13 84 26 95 31 11 4 76 17 145 28 69 11
166 23 215 26 50 4 135 13 190 21 55 8 152 21 215 30 63 8 140 19 170 24 30 6
107 17 170 26 63 10 162 20 220 24 58 3 114 4 125 2z m3139 -516 c5 -1 27 -33
48 -72 21 -38 42 -78 47 -89 5 -11 17 -40 27 -63 l18 -44 -25 -18 c-13 -11
-66 -40 -116 -65 -51 -25 -93 -50 -93 -55 0 -6 -8 -10 -19 -10 -10 0 -29 -8
-42 -18 -13 -10 -87 -50 -164 -89 -77 -38 -156 -79 -175 -90 -19 -11 -61 -34
-92 -52 -57 -32 -58 -33 -190 -32 -73 0 -194 -4 -268 -9 -74 -6 -184 -13 -243
-15 -64 -3 -106 -1 -102 5 3 5 45 28 93 51 48 23 94 46 102 51 8 5 31 15 50
24 19 9 67 30 105 47 39 17 89 44 112 59 23 15 45 28 50 28 5 0 31 15 58 34
28 18 95 57 150 86 55 29 111 61 125 70 14 9 84 45 155 79 72 34 154 74 183
89 29 15 86 44 125 64 40 20 76 36 81 34z m1528 -675 c150 -3 318 -5 373 -5
55 -1 123 0 150 1 28 1 118 1 202 0 83 -1 155 -5 159 -9 4 -5 -1 -17 -12 -29
-10 -12 -37 -34 -59 -50 -22 -15 -58 -51 -80 -79 -22 -28 -57 -69 -78 -93 -21
-23 -41 -54 -44 -70 -4 -18 -11 -26 -22 -25 -10 2 -23 -12 -36 -39 -11 -23
-28 -44 -37 -46 -10 -3 -21 -13 -24 -24 -3 -10 -11 -28 -17 -39 -7 -12 -37
-49 -67 -82 -30 -34 -72 -82 -92 -109 -21 -27 -53 -65 -73 -86 -19 -20 -35
-41 -35 -45 0 -5 -18 -28 -40 -53 -22 -24 -40 -47 -40 -51 0 -5 -29 -40 -65
-79 -36 -39 -65 -75 -65 -80 0 -5 -19 -34 -42 -64 -24 -29 -65 -83 -92 -119
-26 -36 -56 -82 -66 -101 -10 -20 -33 -52 -52 -73 -18 -20 -51 -61 -72 -89
-36 -47 -43 -52 -90 -58 -28 -4 -76 -13 -107 -20 -31 -7 -62 -10 -68 -6 -6 4
-73 6 -148 4 -76 -2 -144 -5 -151 -8 -7 -3 -208 -8 -445 -11 -238 -3 -495 -9
-572 -13 -77 -4 -248 -8 -380 -10 -132 -1 -325 -4 -430 -6 -104 -2 -224 -5
-265 -8 -41 -2 -158 -5 -260 -7 -102 -1 -221 -6 -265 -11 -44 -5 -168 -11
-275 -14 -107 -3 -267 -10 -355 -15 -88 -5 -288 -13 -445 -16 -157 -4 -293
-11 -303 -16 -12 -6 -23 -6 -32 2 -8 7 -59 9 -156 5 -79 -3 -189 -8 -244 -10
-55 -3 -158 -8 -230 -11 -71 -4 -204 -6 -295 -5 -91 1 -331 4 -535 7 -203 2
-410 7 -460 10 -49 3 -135 6 -190 7 -55 0 -125 0 -155 -1 -30 0 -66 -1 -80 0
-14 0 -41 0 -60 -1 -19 -1 -139 0 -265 2 -127 2 -236 7 -243 11 -7 4 -88 10
-180 12 -92 3 -196 7 -232 9 -36 2 -112 5 -170 7 -58 1 -132 2 -165 2 -33 -1
-103 -2 -155 -3 -52 0 -102 2 -110 5 -8 4 -22 9 -30 10 -8 2 -106 4 -216 4
-111 0 -279 -7 -373 -15 -110 -10 -221 -13 -313 -9 -79 3 -181 7 -228 9 -47 2
-122 4 -168 4 -72 1 -82 3 -74 17 5 8 20 21 33 28 17 8 24 20 25 43 1 17 12
45 25 61 13 17 53 53 89 80 36 26 88 63 115 82 28 18 77 56 110 83 33 27 121
108 196 179 74 70 153 140 175 155 21 14 66 49 99 78 33 28 98 80 145 115 47
36 87 67 90 70 3 3 16 11 30 18 14 8 39 21 55 30 17 10 57 37 90 62 33 25 74
54 91 65 18 11 56 38 86 60 29 22 69 49 88 59 19 11 92 57 161 103 70 46 141
88 159 94 20 8 123 12 274 13 132 0 296 -1 363 -3 67 -1 175 0 240 4 65 4 129
9 143 11 14 2 79 5 145 8 66 3 257 9 425 13 168 4 424 7 570 6 146 -1 306 -5
355 -8 50 -3 108 -11 130 -19 22 -8 44 -22 50 -33 5 -10 30 -49 55 -88 24 -38
48 -71 52 -73 4 -2 8 -10 8 -18 0 -8 4 -14 9 -14 5 0 11 -8 15 -17 3 -10 20
-36 36 -58 17 -22 47 -65 67 -95 20 -30 52 -84 71 -120 19 -36 44 -78 54 -93
11 -15 33 -53 50 -85 17 -31 54 -93 82 -137 29 -44 78 -132 111 -195 32 -63
78 -149 101 -191 24 -42 44 -81 44 -86 0 -6 7 -14 16 -17 9 -3 24 -6 35 -6 10
0 56 21 102 48 45 26 125 68 177 94 52 25 111 54 130 63 19 9 58 29 85 45 28
16 57 30 66 30 9 0 43 13 75 30 32 16 66 30 75 30 8 0 24 7 35 15 10 8 26 15
34 15 8 0 37 11 64 25 27 14 55 25 62 25 6 0 59 23 115 52 57 28 113 59 124
68 11 10 31 21 44 25 13 4 43 22 67 40 24 19 81 52 126 75 46 22 88 46 93 53
6 7 44 31 85 52 41 21 93 48 115 59 22 10 63 34 92 53 28 18 55 33 60 33 4 0
28 13 52 29 24 16 99 57 167 91 68 34 124 66 124 71 0 5 5 9 11 9 5 0 49 18
97 41 48 22 95 47 104 56 9 8 56 35 104 59 48 25 99 53 113 63 14 10 49 28 76
40 28 13 59 27 70 32 11 5 76 11 145 14 69 3 177 7 240 9 63 3 160 8 215 11
55 3 147 7 205 10 58 3 204 7 325 10 121 3 230 7 243 9 12 3 125 10 250 17
125 7 230 15 234 18 4 3 130 4 280 2z m-2424 -92 c62 0 101 -3 97 -8 -3 -6
-29 -22 -58 -36 -28 -15 -65 -34 -82 -44 -16 -9 -50 -30 -75 -46 -25 -16 -56
-35 -70 -41 -14 -6 -70 -37 -125 -69 -55 -32 -152 -85 -215 -117 -63 -33 -122
-66 -130 -73 -8 -7 -72 -42 -141 -78 -70 -36 -151 -81 -181 -100 -30 -19 -65
-38 -79 -42 -13 -4 -44 -22 -69 -39 -25 -17 -54 -36 -65 -43 -11 -6 -40 -22
-65 -36 -25 -13 -99 -51 -165 -84 -66 -34 -149 -73 -185 -88 -36 -15 -85 -36
-110 -47 -25 -11 -81 -35 -125 -55 -44 -19 -105 -48 -136 -64 -31 -16 -65 -29
-76 -29 -10 0 -28 -7 -39 -15 -10 -8 -25 -15 -31 -15 -7 0 -13 3 -13 8 0 4 48
48 106 97 59 50 112 95 119 102 7 6 34 30 61 53 27 23 75 65 108 94 32 28 88
77 125 110 36 32 82 73 101 90 19 18 60 52 90 76 30 24 93 80 140 124 47 45
100 89 118 98 20 11 32 25 32 38 0 11 8 23 18 27 9 3 112 52 228 109 173 84
222 104 270 108 33 3 131 8 219 12 88 3 192 9 230 13 39 5 116 9 173 10z
m-1192 -12 c38 -4 129 -7 202 -7 72 0 132 -3 132 -7 0 -5 -58 -36 -128 -70
-70 -34 -143 -65 -162 -68 l-35 -6 -35 72 c-19 40 -37 77 -39 82 -2 7 21 8 65
4z m4504 -57 c5 0 10 -4 10 -9 0 -5 -25 -33 -54 -61 -30 -29 -58 -65 -61 -80
-3 -15 -21 -42 -40 -60 -19 -19 -35 -38 -35 -43 0 -5 -22 -36 -50 -69 -27 -33
-50 -66 -50 -74 0 -8 -4 -14 -10 -14 -5 0 -10 -6 -10 -13 0 -8 -18 -34 -41
-58 -22 -24 -63 -67 -90 -94 -27 -28 -49 -58 -49 -66 0 -8 -22 -37 -50 -64
-27 -27 -50 -52 -50 -56 0 -4 -25 -33 -55 -64 -30 -31 -55 -64 -55 -74 0 -9
-12 -27 -27 -38 -16 -11 -37 -38 -48 -59 -10 -22 -32 -59 -49 -84 -16 -25 -34
-49 -40 -55 -7 -5 -19 -27 -27 -47 -8 -21 -30 -47 -49 -60 -19 -13 -36 -33
-38 -44 -2 -12 -13 -27 -25 -33 -12 -7 -40 -34 -62 -61 -22 -27 -46 -61 -55
-77 -8 -15 -19 -34 -24 -42 -8 -12 -11 -10 -17 7 -5 12 -4 33 1 46 5 13 24 39
43 57 19 19 53 65 76 103 23 38 53 83 67 100 14 17 36 47 50 66 13 19 32 48
41 64 10 15 60 78 111 139 50 61 92 114 92 117 0 3 23 30 50 59 28 30 80 93
117 140 36 47 80 102 98 121 17 19 48 59 68 88 20 28 37 57 37 63 0 7 16 30
36 53 20 22 61 70 93 106 31 36 79 88 108 117 29 29 57 53 63 53z"/>
<g>
<path d="M4989 6908 c-19 2 -39 -2 -45 -8 -7 -7 -9 -23 -4 -43 4 -18 30 -79
58 -137 28 -58 54 -117 57 -132 4 -15 13 -33 21 -39 13 -10 12 -14 -2 -30 -10
-11 -21 -19 -26 -19 -6 0 -27 -12 -49 -27 -21 -16 -39 -35 -39 -44 0 -9 8 -23
18 -32 10 -10 30 -17 44 -17 15 0 28 4 30 8 2 4 17 17 33 29 17 11 49 26 73
33 23 8 47 19 53 26 6 8 8 25 5 38 -3 13 -17 37 -30 53 -13 16 -34 47 -46 71
-12 23 -26 42 -31 42 -5 0 -9 6 -9 13 0 6 -17 57 -38 112 -37 98 -39 100 -73
103z"/>
</g>
<g>
<path d="M4286 6729 c-11 0 -31 -4 -43 -9 -12 -5 -26 -17 -32 -28 -5 -10 -7
-30 -4 -43 3 -13 10 -30 16 -36 5 -7 19 -13 31 -13 11 0 36 9 54 20 30 19 33
24 27 53 -4 18 -12 38 -17 45 -6 6 -20 12 -32 11z"/>
</g>
</g>
</g>
</svg>
