<?xml version="1.0" standalone="no"?>
<!DOCTYPE svg PUBLIC "-//W3C//DTD SVG 20010904//EN"
 "http://www.w3.org/TR/2001/REC-SVG-20010904/DTD/svg10.dtd">
<svg version="1.0" xmlns="http://www.w3.org/2000/svg"
 width="1132.000000pt" height="1481.000000pt" viewBox="0 0 1132.000000 1481.000000"
 preserveAspectRatio="xMidYMid meet">
<metadata>
Created by potrace 1.16, written by Peter Selinger 2001-2019
</metadata>
<g transform="translate(0.000000,1481.000000) scale(0.100000,-0.100000)"
fill="#000000" stroke="none">
<g>
<path d="M3903 14499 c-32 0 -65 -3 -73 -6 -8 -3 -28 -20 -46 -37 -17 -17 -48
-47 -68 -66 -33 -32 -36 -38 -36 -93 0 -53 4 -63 37 -103 20 -25 52 -52 72
-60 20 -9 60 -20 89 -25 43 -8 62 -7 94 5 21 9 43 14 48 11 5 -3 19 -1 30 5
11 6 31 27 45 48 20 29 25 49 25 97 0 33 -5 77 -10 97 -7 23 -24 48 -48 66
-20 16 -51 37 -69 46 -20 10 -55 16 -90 15z m17 -114 c19 -4 43 -14 54 -23 10
-9 24 -28 30 -42 7 -14 10 -38 7 -55 -6 -27 -12 -31 -67 -44 -34 -8 -73 -11
-86 -8 -14 4 -35 15 -47 24 l-22 18 21 48 c11 26 27 47 35 47 8 0 20 9 27 21
11 16 19 19 48 14z"/>
</g>
<g>
<path d="M5830 12758 c-85 0 -168 -4 -185 -8 -16 -4 -65 -8 -107 -9 -43 0 -78
-5 -78 -10 0 -5 -19 -9 -42 -10 -24 0 -74 -6 -112 -14 -38 -9 -76 -13 -84 -9
-10 3 -13 1 -9 -5 4 -7 -5 -14 -23 -18 -16 -4 -32 -11 -35 -16 -4 -5 -17 -9
-30 -9 -13 0 -27 -5 -30 -10 -3 -6 -17 -7 -30 -4 -14 3 -26 0 -32 -8 -4 -8
-29 -29 -55 -46 -26 -18 -52 -32 -58 -32 -6 0 -35 -7 -63 -17 -29 -9 -64 -24
-78 -34 -15 -10 -39 -24 -55 -30 -16 -7 -34 -11 -40 -11 -6 1 -16 -9 -22 -23
-6 -14 -31 -34 -57 -46 -26 -12 -67 -42 -92 -68 -25 -25 -54 -59 -65 -76 -10
-16 -18 -38 -18 -47 0 -10 -9 -23 -20 -30 -11 -7 -20 -18 -20 -25 0 -7 -9 -18
-20 -25 -11 -7 -20 -17 -20 -21 0 -5 -8 -25 -17 -45 -9 -21 -23 -45 -31 -55
-9 -9 -21 -27 -28 -40 -7 -12 -18 -32 -23 -44 -6 -13 -15 -23 -21 -23 -5 0
-17 -16 -25 -36 -8 -20 -15 -49 -15 -65 0 -16 -5 -29 -11 -29 -6 0 -9 -6 -6
-14 3 -7 -1 -32 -9 -55 -9 -27 -12 -63 -9 -104 3 -34 8 -116 11 -182 2 -66 11
-153 19 -193 8 -40 14 -76 13 -80 -1 -4 2 -34 7 -67 4 -33 18 -89 30 -125 12
-36 32 -87 44 -115 12 -27 34 -75 49 -105 15 -30 51 -83 80 -118 28 -35 73
-79 100 -99 26 -20 61 -50 77 -67 17 -17 47 -43 66 -58 20 -15 57 -38 82 -52
25 -14 52 -26 59 -26 7 0 27 -7 43 -16 17 -9 55 -29 85 -44 30 -16 100 -42
155 -58 55 -17 150 -38 211 -48 81 -12 141 -15 220 -10 60 4 149 7 198 7 50 0
117 7 150 15 34 9 80 20 104 25 24 5 53 15 65 24 12 8 28 15 36 15 8 0 52 18
98 40 46 22 83 45 83 50 0 6 9 10 20 10 11 0 20 4 20 9 0 5 14 14 32 20 18 6
41 20 53 30 11 10 41 30 66 43 26 13 81 49 123 79 43 30 100 73 127 97 27 23
54 42 59 42 5 0 20 12 34 26 13 15 26 38 29 53 3 14 14 35 25 47 11 12 32 46
46 76 14 30 29 70 32 89 4 19 13 47 21 62 8 16 21 63 29 105 8 42 14 102 14
132 0 30 1 129 4 218 3 90 1 186 -4 214 -6 28 -12 83 -15 122 -3 39 -10 96
-16 126 -6 30 -19 75 -29 100 -11 25 -22 56 -26 69 -3 13 -19 45 -35 70 -16
25 -38 64 -50 85 -11 21 -25 44 -30 50 -5 6 -29 37 -55 69 -25 31 -58 64 -73
72 -16 8 -55 42 -87 76 -33 34 -69 71 -82 83 -12 11 -28 21 -35 22 -7 1 -30
13 -51 28 -21 14 -57 31 -80 37 -22 6 -59 21 -81 32 -22 12 -42 25 -43 30 -2
4 -7 5 -11 3 -3 -2 -47 4 -96 14 -67 14 -129 19 -245 18z m-8 -115 c29 -1 95
-5 146 -8 74 -4 119 -14 210 -46 65 -22 136 -47 159 -56 29 -10 63 -39 115
-95 40 -44 83 -85 94 -91 12 -7 52 -48 88 -92 36 -44 75 -89 85 -100 10 -11
25 -36 34 -55 8 -19 27 -70 42 -113 14 -43 28 -101 31 -130 2 -29 10 -83 17
-122 7 -44 11 -154 10 -295 -1 -157 -7 -251 -18 -310 -9 -47 -17 -89 -19 -95
-1 -5 -6 -27 -11 -47 -4 -21 -11 -38 -16 -38 -5 0 -9 -7 -9 -15 0 -8 -4 -23
-9 -33 -4 -9 -23 -47 -40 -83 -20 -41 -53 -86 -89 -121 -31 -31 -71 -65 -87
-75 -17 -10 -49 -29 -70 -43 -22 -14 -42 -25 -45 -25 -3 0 -12 -6 -20 -13 -8
-7 -31 -23 -50 -37 -19 -13 -51 -32 -70 -41 -19 -9 -40 -18 -45 -19 -6 -2 -37
-21 -69 -44 -33 -22 -64 -41 -70 -41 -7 0 -38 -13 -69 -30 -32 -16 -65 -30
-73 -30 -8 0 -34 -10 -57 -22 -23 -11 -58 -23 -77 -25 -19 -2 -77 -6 -129 -9
-51 -3 -145 -1 -209 6 -83 8 -117 9 -120 1 -2 -7 -13 -6 -32 4 -16 8 -35 15
-43 15 -8 0 -21 -8 -30 -18 -14 -15 -26 -17 -64 -12 -27 4 -86 21 -133 37 -47
17 -128 52 -180 78 -52 26 -124 67 -160 91 -36 24 -79 56 -97 72 -17 16 -49
44 -70 63 -21 19 -52 52 -69 74 -17 22 -34 47 -37 55 -4 8 -16 29 -27 45 -11
17 -26 41 -34 55 -7 14 -28 66 -45 115 -17 50 -42 144 -56 210 -21 93 -25 135
-20 187 3 39 2 69 -4 72 -5 3 -9 62 -9 134 0 118 3 135 35 232 19 58 39 110
44 116 5 6 7 13 4 16 -3 2 13 24 35 48 22 24 40 49 40 55 0 7 9 22 20 35 11
13 23 34 26 47 4 13 10 23 15 23 5 0 9 5 9 11 0 6 20 31 45 55 24 24 42 44 39
44 -3 0 8 11 23 24 15 14 39 34 53 46 14 11 39 32 56 45 18 14 41 25 52 25 11
0 25 7 32 16 8 8 22 20 33 26 15 7 18 7 12 -2 -6 -9 -2 -9 16 0 13 7 32 19 42
28 9 8 20 13 23 10 3 -4 32 9 65 28 33 18 76 36 97 40 20 4 53 20 73 35 20 16
38 26 41 24 2 -3 20 0 39 6 19 5 45 12 59 15 13 3 29 9 35 14 5 4 42 13 82 19
39 6 101 11 137 11 36 0 67 3 70 8 2 4 35 9 73 10 37 2 69 4 70 6 1 1 26 1 55
-1z"/>
<g>
<path d="M4462 11929 c-15 0 -36 -6 -47 -12 -10 -7 -25 -18 -33 -25 -9 -8 -11
-22 -7 -41 3 -16 21 -46 38 -66 26 -30 41 -38 78 -42 42 -5 48 -3 72 27 15 17
27 40 27 51 0 11 -5 30 -12 42 -6 12 -17 27 -24 34 -7 7 -24 17 -39 23 -14 5
-38 10 -53 9z"/>
</g>
<g>
<path d="M5559 11780 c-19 4 -53 -1 -79 -10 -34 -12 -49 -24 -62 -50 -9 -20
-14 -46 -11 -60 3 -14 11 -31 17 -39 6 -8 35 -25 65 -38 36 -16 63 -22 82 -18
15 4 39 22 53 40 24 31 25 38 17 76 -5 23 -18 54 -29 68 -12 16 -33 28 -53 31z"/>
</g>
<g>
<path d="M4953 11688 c-18 -1 -31 -4 -28 -6 2 -2 -8 -20 -21 -39 -13 -20 -29
-54 -34 -77 -6 -22 -18 -63 -26 -91 -9 -27 -20 -52 -25 -55 -4 -3 -10 -26 -12
-50 -3 -25 -16 -78 -31 -117 -14 -40 -26 -81 -26 -91 0 -10 -5 -23 -12 -30 -9
-9 -8 -21 2 -52 8 -24 21 -42 34 -47 12 -3 34 -6 50 -4 16 1 35 6 42 12 7 6
42 13 76 16 35 3 73 11 84 19 12 7 24 22 27 33 2 11 -4 33 -14 50 -10 17 -27
31 -36 32 -10 1 -29 0 -43 -1 -14 -1 -29 -5 -33 -10 -5 -4 -17 -5 -28 -3 -12
3 -19 14 -19 29 0 12 5 26 10 29 6 3 10 16 10 28 0 12 14 56 31 97 17 41 31
83 32 93 1 9 5 17 10 17 4 0 5 4 2 10 -3 5 5 30 19 54 14 25 26 63 28 86 1 30
-3 44 -18 55 -10 8 -33 14 -51 13z"/>
</g>
<g>
<path d="M4668 10919 c-75 18 -78 18 -108 0 -19 -12 -30 -27 -30 -41 0 -13 4
-29 9 -37 5 -8 26 -20 47 -28 22 -7 73 -20 114 -27 41 -8 118 -24 170 -36 52
-11 118 -26 145 -31 28 -6 66 -12 85 -13 19 -1 82 -13 139 -25 73 -15 107 -19
115 -11 5 5 7 10 3 10 -4 0 0 16 8 36 12 29 12 40 3 51 -6 8 -19 18 -29 24
-10 5 -53 11 -96 14 -43 3 -127 17 -188 31 -60 14 -143 34 -182 45 -40 10 -85
19 -100 19 -16 1 -63 9 -105 19z"/>
</g>
</g>
<g>
<path d="M9431 12710 c-81 0 -103 -4 -141 -24 -25 -13 -63 -29 -85 -36 -22 -6
-52 -17 -67 -23 -16 -7 -28 -15 -28 -19 0 -5 -5 -8 -11 -8 -6 0 -28 -17 -49
-37 -21 -21 -58 -56 -81 -79 -32 -29 -51 -59 -67 -105 -13 -35 -34 -100 -47
-144 -13 -44 -25 -98 -27 -120 -3 -22 -1 -67 3 -100 5 -33 10 -68 12 -77 2
-10 24 -49 50 -88 26 -39 47 -75 47 -80 0 -4 3 -10 8 -12 4 -1 24 -28 44 -58
20 -30 50 -65 67 -77 16 -13 34 -23 39 -23 5 0 26 -11 46 -25 20 -13 36 -22
36 -18 0 3 7 0 15 -7 8 -7 15 -9 15 -5 0 4 10 1 23 -7 12 -8 42 -20 67 -28 25
-7 57 -15 73 -16 15 -2 44 -11 65 -20 26 -10 51 -13 84 -9 27 4 50 11 53 15 3
5 24 11 48 15 23 4 58 14 77 22 19 8 46 20 60 27 14 6 36 23 51 37 14 14 32
30 40 35 9 5 29 29 46 54 17 25 44 59 60 75 17 17 38 49 48 72 10 23 23 39 28
36 6 -3 8 -2 4 3 -3 5 -1 31 4 57 5 26 9 89 10 140 2 51 -1 121 -5 157 -5 36
-16 81 -26 100 -10 19 -27 44 -37 55 -10 11 -34 43 -53 70 -18 28 -52 69 -74
93 -22 23 -46 42 -52 42 -7 0 -14 6 -17 14 -3 7 -38 29 -79 49 -40 20 -97 45
-127 56 -41 16 -76 21 -150 21z m39 -127 c19 -1 62 -10 95 -19 33 -9 80 -26
104 -38 25 -11 73 -50 108 -86 34 -36 84 -99 110 -140 l48 -75 -1 -105 c-1
-58 -7 -134 -14 -170 -7 -38 -25 -85 -43 -112 -17 -27 -34 -48 -39 -48 -4 0
-8 -6 -8 -12 0 -7 -27 -39 -59 -71 -46 -45 -76 -65 -133 -87 -67 -26 -82 -28
-173 -24 -55 2 -122 11 -150 20 -27 9 -64 22 -81 30 -17 7 -37 20 -44 29 -7 8
-16 13 -20 10 -4 -2 -24 12 -44 33 -19 20 -61 68 -92 105 -31 38 -65 91 -75
118 -12 32 -19 75 -19 122 0 39 7 92 16 117 8 24 21 56 29 70 7 14 20 44 29
68 9 23 13 42 9 42 -4 0 21 29 56 64 41 41 80 71 110 82 25 9 53 25 63 34 9 8
43 21 75 28 32 6 69 13 83 15 14 2 41 2 60 0z"/>
</g>
<g>
<path d="M2626 11159 c-39 -1 -91 -7 -116 -13 -25 -7 -54 -16 -65 -20 -11 -4
-29 -11 -40 -16 -11 -4 -42 -18 -70 -30 -27 -13 -65 -37 -84 -54 -19 -17 -44
-40 -55 -51 -12 -11 -23 -29 -24 -40 -2 -11 -8 -22 -13 -25 -5 -3 -13 -37 -19
-75 -5 -39 -10 -96 -10 -128 0 -31 8 -88 19 -125 10 -37 28 -89 40 -115 12
-27 43 -69 69 -95 26 -26 59 -57 75 -70 15 -12 31 -22 36 -22 5 0 11 -5 13
-10 2 -6 35 -22 73 -36 47 -18 96 -27 150 -30 44 -2 100 -7 125 -12 27 -5 63
-4 91 3 25 5 56 18 70 27 13 9 47 37 74 62 28 25 58 48 69 52 10 3 42 31 72
61 29 30 62 73 73 96 18 35 20 55 16 141 -2 56 -5 108 -8 116 -2 8 -7 24 -11
35 -4 11 -11 30 -16 42 -5 12 -48 64 -95 116 -74 82 -98 102 -173 140 -48 25
-111 52 -141 61 -30 9 -86 15 -125 15z m24 -126 c41 -3 98 -11 126 -19 28 -8
60 -23 71 -33 11 -10 34 -26 52 -35 18 -10 59 -46 93 -81 33 -36 66 -76 73
-89 7 -13 16 -47 20 -74 4 -28 3 -76 0 -107 -7 -50 -14 -64 -56 -109 -27 -29
-61 -59 -76 -66 -16 -8 -40 -26 -54 -40 -14 -14 -36 -33 -49 -44 -12 -10 -35
-21 -49 -25 -14 -4 -84 -7 -156 -6 -107 0 -136 4 -165 19 -19 10 -62 44 -95
74 -33 30 -68 68 -77 84 -10 16 -18 37 -18 48 0 10 -4 21 -9 24 -4 3 -14 39
-20 81 -7 41 -11 103 -10 137 2 56 7 68 42 114 28 36 56 59 91 74 28 13 57 28
65 34 8 6 39 18 70 28 40 11 78 15 131 11z"/>
</g>
<g>
<path d="M8077 9949 c-1 -1 -29 -6 -62 -10 -33 -5 -81 -10 -107 -11 -27 -1
-48 -4 -48 -7 0 -3 -21 -7 -47 -9 -26 -1 -52 -7 -57 -12 -6 -6 -17 -10 -26
-10 -9 0 -47 -20 -84 -45 -38 -25 -71 -45 -72 -45 -2 0 -13 -9 -25 -21 -11
-11 -50 -57 -85 -101 -35 -44 -64 -86 -64 -93 0 -8 -8 -20 -18 -27 -10 -7 -35
-38 -55 -68 -26 -38 -38 -70 -40 -100 -2 -25 -10 -56 -17 -69 -8 -15 -13 -69
-14 -145 -1 -108 2 -128 24 -181 13 -33 41 -85 62 -116 20 -31 59 -81 87 -111
28 -31 81 -80 118 -110 38 -30 84 -61 103 -68 19 -7 66 -23 105 -36 38 -13 77
-24 87 -24 9 0 32 -9 52 -20 33 -20 38 -21 178 -7 78 8 153 17 164 20 12 3 46
14 75 24 30 10 60 24 67 31 7 6 19 12 26 12 7 0 24 10 38 23 14 12 40 33 58
47 19 14 43 35 54 46 12 12 31 34 43 50 12 16 29 49 38 74 9 25 19 52 22 60 3
8 8 22 10 30 2 8 9 44 15 80 7 36 12 112 12 170 1 77 -4 119 -17 155 -10 28
-33 84 -50 125 -17 41 -55 114 -85 162 -31 51 -80 112 -118 147 -44 41 -92 74
-152 102 -48 23 -111 52 -140 65 -29 13 -54 23 -55 23z m-2 -135 c17 0 45 -9
64 -18 18 -10 51 -24 72 -32 22 -7 65 -33 97 -58 31 -24 71 -59 88 -78 18 -18
49 -69 70 -113 21 -44 48 -93 61 -108 13 -16 23 -38 23 -50 0 -12 7 -42 16
-66 8 -24 16 -74 17 -110 1 -36 -7 -110 -17 -163 -10 -54 -22 -98 -27 -98 -5
0 -9 -9 -9 -19 0 -11 -4 -23 -10 -26 -5 -3 -10 -14 -10 -24 0 -9 -15 -33 -32
-52 -18 -19 -58 -53 -88 -76 -30 -22 -77 -50 -105 -62 -27 -12 -86 -29 -130
-37 -44 -8 -107 -14 -140 -14 -33 0 -80 5 -105 11 -25 6 -57 12 -72 14 -15 2
-54 13 -87 25 -33 11 -87 39 -120 61 -33 22 -86 69 -118 104 -32 34 -75 97
-96 138 -37 72 -38 79 -41 188 -2 80 1 122 10 140 7 15 11 29 8 31 -2 3 6 27
19 54 13 27 32 64 43 83 10 19 34 51 52 71 17 21 32 40 32 44 0 3 8 16 18 28
9 12 31 36 47 53 17 16 44 40 60 53 16 12 34 22 41 22 6 0 23 11 37 24 15 14
35 25 44 24 10 0 45 5 78 11 33 6 87 14 120 18 33 5 74 8 90 7z"/>
</g>
<g>
<path d="M4560 9823 c-19 3 -46 3 -60 1 -14 -2 -43 -10 -65 -16 -22 -6 -53
-21 -70 -32 -16 -11 -31 -24 -33 -28 -2 -4 -10 -8 -18 -8 -7 0 -28 -17 -46
-37 -18 -20 -41 -45 -50 -55 -10 -10 -18 -25 -18 -33 0 -8 -4 -15 -10 -15 -5
0 -10 -7 -10 -15 0 -8 -7 -35 -16 -61 -11 -31 -16 -84 -16 -158 -1 -90 3 -118
18 -147 10 -21 44 -64 75 -97 31 -33 87 -78 125 -100 38 -21 87 -43 109 -47
22 -5 43 -8 48 -7 4 1 7 -3 7 -9 0 -9 27 -10 96 -6 52 3 100 10 107 15 7 6 23
12 37 14 14 1 24 8 23 13 -1 6 7 13 17 17 10 4 47 41 82 83 36 44 67 93 73
115 6 21 13 42 17 45 4 4 4 13 1 21 -3 8 -1 20 5 27 6 7 12 41 13 77 1 36 -1
85 -5 110 -5 25 -15 63 -23 85 -8 22 -39 66 -71 98 -38 40 -80 70 -127 92 -38
18 -86 36 -105 40 -19 5 -44 9 -55 10 -11 2 -36 5 -55 8z m20 -114 c25 -4 69
-12 98 -19 28 -8 52 -17 52 -22 0 -4 7 -8 16 -8 8 0 39 -24 67 -52 29 -30 54
-64 56 -78 2 -14 4 -38 5 -55 l1 -30 -80 4 c-66 3 -93 9 -152 37 -39 19 -78
34 -87 34 -8 0 -27 -5 -41 -12 -14 -6 -25 -17 -25 -23 0 -7 -9 -22 -20 -35
-11 -13 -20 -31 -20 -42 0 -10 -11 -40 -25 -66 -13 -26 -30 -71 -38 -100 -7
-28 -19 -58 -25 -64 -10 -10 -20 -4 -47 26 -19 22 -38 55 -41 74 -4 20 -7 65
-7 101 0 36 1 80 2 97 1 21 12 43 34 67 19 19 39 48 46 63 6 16 30 42 52 57
22 16 61 34 87 41 26 6 67 8 92 5z m56 -339 c3 0 21 -8 42 -19 20 -10 70 -27
110 -36 58 -14 72 -21 72 -37 0 -10 -7 -30 -16 -43 -9 -13 -17 -30 -18 -37 -1
-7 -25 -37 -54 -66 -30 -31 -69 -59 -93 -67 -23 -8 -50 -15 -60 -15 -16 0 -19
8 -21 53 -1 28 0 61 1 72 1 11 4 44 6 73 2 29 9 68 15 87 6 19 14 35 16 35z
m-149 -209 c2 -30 0 -58 -6 -64 -7 -7 -12 -5 -16 6 -4 8 -2 24 4 36 6 11 12
32 13 48 1 15 3 4 5 -26z"/>
</g>
<g>
<path d="M5618 9663 c-15 2 -29 3 -30 2 -2 -2 -21 -5 -43 -8 -22 -2 -53 -10
-70 -18 -16 -7 -48 -28 -69 -46 -22 -18 -44 -33 -49 -33 -6 0 -31 -22 -56 -48
-25 -26 -56 -68 -67 -93 -12 -24 -27 -68 -33 -97 -6 -30 -11 -82 -11 -116 0
-34 7 -83 15 -108 10 -29 38 -68 78 -109 34 -36 75 -82 91 -103 16 -21 44 -44
63 -52 18 -8 68 -22 110 -30 43 -9 106 -14 148 -12 68 3 74 5 121 46 27 24 62
49 79 56 17 7 42 29 55 49 14 20 30 37 36 37 6 0 19 26 29 58 10 31 20 89 22
129 3 40 -1 98 -7 129 -7 32 -25 80 -41 108 -16 28 -33 60 -38 71 -5 11 -26
36 -48 56 -21 20 -58 48 -83 62 -25 14 -61 28 -80 32 -19 4 -48 13 -65 20 -16
7 -42 15 -57 18z m43 -129 c17 -2 50 -9 72 -15 26 -7 60 -30 97 -65 50 -47 61
-65 80 -127 12 -40 23 -77 25 -83 2 -6 -2 -17 -8 -23 -6 -6 -20 -11 -31 -11
-12 1 -70 18 -131 38 l-110 38 -1 39 c-1 22 -7 60 -13 85 -6 25 -11 64 -11 86
0 40 1 41 31 38z m-146 -8 c6 -1 11 -50 12 -114 1 -80 -2 -112 -10 -112 -7 0
-32 7 -57 15 -25 8 -56 17 -70 20 -14 2 -31 9 -38 14 -12 7 -11 13 1 37 9 16
37 50 64 75 26 26 57 51 68 57 11 6 25 10 30 8z m-184 -292 c19 -3 63 -16 99
-29 36 -13 83 -28 105 -34 22 -6 56 -11 75 -11 19 0 64 -10 100 -21 36 -11 94
-26 130 -33 60 -11 65 -14 61 -37 -1 -13 -12 -36 -23 -51 -11 -16 -24 -28 -31
-28 -6 0 -20 -9 -32 -20 -11 -10 -42 -31 -68 -45 -33 -17 -64 -25 -98 -25 -28
0 -59 5 -70 10 -10 6 -42 12 -69 14 -40 2 -54 8 -68 27 -9 13 -31 40 -49 60
-18 20 -33 40 -33 45 0 4 -12 21 -27 36 -21 22 -28 40 -31 88 l-4 60 33 -6z"/>
</g>
<g>
<path d="M3438 9505 c-84 0 -115 -4 -140 -17 -18 -10 -38 -18 -45 -18 -6 0
-25 -14 -42 -31 -17 -17 -31 -35 -31 -39 0 -5 -9 -14 -20 -20 -11 -6 -20 -16
-20 -23 0 -7 -13 -26 -28 -43 -16 -17 -40 -39 -54 -48 -16 -11 -30 -34 -39
-63 -7 -26 -20 -62 -29 -81 -9 -18 -17 -55 -19 -81 -1 -35 5 -64 24 -102 14
-30 40 -78 59 -107 18 -29 44 -64 57 -78 12 -13 41 -29 63 -35 23 -6 69 -20
104 -31 51 -17 76 -20 140 -14 42 3 92 8 110 11 19 3 68 27 111 55 42 27 98
75 124 106 26 31 47 63 47 71 0 8 7 22 16 31 14 13 15 33 11 121 -3 63 -12
122 -22 146 -9 22 -23 56 -32 75 -9 19 -40 63 -69 96 -36 41 -73 71 -111 90
-53 26 -68 29 -165 29z m52 -110 c25 -1 60 -9 77 -18 17 -9 45 -34 63 -54 17
-21 44 -66 61 -101 25 -52 30 -76 32 -145 2 -79 1 -84 -33 -134 -19 -28 -61
-72 -94 -97 -32 -25 -76 -51 -98 -57 -22 -6 -77 -8 -122 -6 -44 3 -97 8 -116
12 -19 4 -46 17 -59 29 -13 11 -42 48 -64 81 -37 54 -41 65 -41 125 -1 61 1
65 22 68 13 2 32 18 43 35 11 18 26 55 35 83 10 36 27 63 57 91 24 22 58 48
76 57 18 10 51 21 74 25 23 4 62 7 87 6z"/>
</g>
<g>
<path d="M6584 9299 c-11 -1 -32 -5 -49 -9 -16 -4 -48 -8 -70 -9 -22 0 -72
-14 -110 -30 -40 -17 -84 -45 -106 -68 -21 -21 -38 -43 -39 -49 0 -6 -10 -35
-22 -66 -21 -49 -22 -66 -17 -159 4 -74 12 -120 28 -159 12 -30 27 -69 32 -86
5 -17 31 -52 59 -78 27 -25 55 -46 61 -46 7 0 20 -7 29 -15 9 -8 68 -26 131
-41 63 -14 138 -26 167 -26 30 0 66 6 80 13 15 8 38 23 51 34 13 11 31 27 39
35 9 8 17 14 19 13 2 -2 3 0 4 5 1 4 13 15 28 24 14 10 22 18 17 18 -5 0 -2 8
6 18 8 9 21 44 28 77 7 33 16 83 20 110 5 28 9 79 9 113 1 37 -5 75 -13 90 -8
15 -20 42 -27 60 -7 19 -40 61 -74 95 -36 37 -81 70 -111 83 -27 12 -72 29
-100 38 -29 9 -60 15 -70 15z m66 -128 c14 -2 37 -12 53 -21 15 -9 47 -35 71
-58 29 -27 52 -61 65 -97 12 -31 21 -74 21 -95 0 -22 -5 -61 -11 -87 -7 -27
-22 -79 -34 -118 -16 -52 -27 -71 -41 -73 -15 -2 -29 18 -70 105 -28 59 -57
122 -64 140 -6 17 -19 38 -28 46 -10 8 -51 27 -92 42 -41 14 -99 33 -128 40
-29 7 -60 19 -68 25 -7 7 -14 18 -14 24 0 6 18 29 38 51 26 27 54 45 88 54 27
8 81 17 119 21 39 3 81 4 95 1z m-367 -271 c1 -1 38 -10 82 -21 44 -11 95 -23
113 -26 18 -3 35 -9 38 -15 3 -5 7 -65 8 -134 1 -84 -2 -124 -10 -124 -6 0
-14 3 -18 7 -3 4 -15 8 -25 10 -11 1 -35 12 -55 24 -20 12 -49 40 -64 63 -16
22 -38 67 -50 99 -12 33 -22 72 -22 88 0 16 1 29 3 29z m352 -290 c2 0 9 -9
15 -20 9 -16 8 -20 -5 -20 -8 0 -15 9 -15 20 0 11 2 20 5 20z"/>
</g>
<g>
<path d="M4458 8659 c-50 -1 -95 -9 -143 -26 -38 -14 -81 -35 -95 -48 -14 -12
-36 -30 -50 -38 -17 -11 -30 -13 -40 -7 -8 5 -26 10 -40 10 -14 0 -34 -8 -46
-18 -11 -9 -32 -42 -47 -72 -14 -30 -29 -73 -32 -95 -3 -22 -10 -69 -14 -104
-5 -35 -5 -91 0 -125 4 -34 15 -83 23 -110 9 -27 31 -76 50 -110 19 -34 44
-72 55 -85 12 -13 21 -21 21 -18 0 4 33 -8 73 -27 42 -19 105 -38 150 -44 43
-7 120 -12 172 -12 63 0 113 6 154 19 33 10 63 16 66 13 3 -3 5 2 5 10 0 9 11
19 25 22 13 3 37 23 52 43 15 20 43 53 60 72 18 20 33 42 33 50 0 8 8 23 18
34 14 15 17 37 17 116 0 54 -8 131 -18 176 -10 44 -28 98 -39 120 -11 22 -28
53 -36 69 -8 16 -38 51 -66 79 -27 27 -62 54 -76 59 -14 6 -55 19 -92 29 -41
11 -97 19 -140 18z m9 -110 c31 1 45 -4 51 -16 4 -10 8 -25 7 -33 -1 -8 3 -24
10 -35 6 -11 17 -38 23 -60 7 -22 13 -60 13 -85 1 -25 0 -128 0 -230 -1 -102
1 -199 5 -217 5 -29 3 -33 -20 -39 -14 -3 -59 -4 -99 -1 -39 3 -92 9 -117 12
-25 4 -56 11 -69 16 -23 9 -23 12 -17 83 4 41 13 87 21 103 8 15 25 87 39 158
14 72 26 147 26 167 0 20 4 39 9 43 6 3 10 13 10 23 0 9 3 31 7 47 3 18 17 37
32 47 15 9 46 17 69 17z m212 -69 c5 0 25 -19 43 -42 19 -24 39 -54 45 -68 7
-14 19 -48 27 -77 8 -29 18 -84 22 -122 3 -38 3 -75 -2 -83 -5 -7 -10 -22 -11
-33 -2 -10 -15 -37 -28 -60 -14 -22 -36 -53 -50 -70 -15 -19 -28 -26 -33 -20
-5 6 -12 111 -16 235 -3 124 -8 245 -11 269 -4 24 -4 50 -1 57 3 8 10 14 15
14z m-477 -40 c3 0 14 -3 22 -6 11 -4 13 -10 7 -18 -5 -6 -14 -65 -21 -131 -6
-66 -16 -127 -21 -136 -4 -9 -5 -19 -2 -23 3 -3 -1 -14 -9 -23 -9 -10 -19 -48
-23 -85 -4 -40 -12 -68 -19 -68 -6 0 -21 24 -33 53 -12 28 -28 77 -37 107 -8
30 -17 71 -20 90 -3 19 -1 52 5 72 7 27 14 36 24 31 9 -3 25 5 38 18 13 13 36
45 53 71 16 27 32 48 36 48z"/>
</g>
<g>
<path d="M5295 8594 c-22 2 -53 1 -70 -1 -16 -3 -34 -9 -39 -14 -6 -5 -17 -9
-26 -9 -9 0 -30 -15 -46 -32 -16 -18 -51 -53 -78 -77 -26 -24 -54 -58 -61 -75
-8 -18 -15 -72 -16 -121 -2 -68 1 -97 14 -120 9 -16 22 -41 28 -55 7 -14 26
-40 43 -57 16 -18 34 -33 39 -33 5 0 22 -9 38 -20 15 -12 54 -27 84 -35 31 -8
76 -15 100 -15 25 0 45 4 45 8 0 5 6 9 13 9 6 1 28 3 47 6 19 3 43 8 53 12 9
4 17 12 17 18 0 6 3 8 6 4 4 -3 21 8 40 26 18 18 44 54 58 81 21 40 26 63 26
126 0 42 -7 99 -15 125 -7 27 -18 51 -23 54 -5 3 -21 24 -36 45 -15 22 -43 54
-64 71 -20 18 -53 40 -72 50 -19 11 -42 21 -50 23 -8 2 -33 5 -55 6z m-19
-114 c33 0 70 -7 84 -15 14 -8 32 -17 40 -21 8 -4 25 -19 37 -33 13 -14 23
-29 23 -34 0 -4 11 -25 25 -45 25 -38 25 -41 14 -116 -8 -56 -18 -86 -36 -106
-13 -16 -38 -36 -56 -45 -18 -10 -60 -19 -94 -22 -34 -3 -83 0 -109 6 -27 7
-58 22 -69 34 -12 12 -34 42 -48 67 -15 26 -24 55 -22 70 2 14 8 49 13 79 9
49 16 61 75 118 65 63 65 63 123 63z"/>
</g>
<g>
<path d="M6765 8294 c-22 2 -51 2 -65 0 -14 -2 -65 -9 -115 -15 -49 -6 -121
-20 -160 -31 -38 -12 -81 -29 -95 -38 -14 -9 -37 -20 -53 -24 -15 -4 -39 -23
-55 -45 -22 -31 -32 -37 -45 -30 -11 6 -24 6 -36 0 -10 -6 -44 -39 -74 -74
-49 -56 -57 -70 -64 -122 -5 -33 -8 -87 -8 -120 1 -33 5 -80 10 -105 4 -24 16
-71 27 -105 11 -33 36 -84 56 -114 20 -29 56 -72 79 -95 23 -22 50 -47 60 -53
10 -7 34 -20 53 -29 19 -8 67 -26 105 -39 39 -13 122 -33 185 -44 63 -12 143
-21 178 -21 43 0 76 6 104 20 23 11 47 20 54 20 7 0 27 8 46 18 18 9 35 20 36
25 2 4 9 7 16 7 7 0 21 9 31 20 10 11 22 20 26 20 5 0 17 6 26 14 10 8 33 27
51 41 17 15 32 32 32 38 0 7 9 18 21 25 12 7 18 16 15 19 -3 3 2 20 11 37 9
17 21 40 27 51 6 12 11 87 12 185 1 140 -1 173 -18 217 -10 28 -28 63 -39 77
-11 14 -17 26 -14 26 4 0 -5 17 -20 38 -16 20 -42 52 -59 70 -17 19 -54 49
-82 68 -38 25 -72 38 -135 49 -46 8 -102 17 -124 19z m-5 -111 c19 -3 36 -6
38 -7 1 -2 9 -53 17 -115 8 -61 19 -120 25 -131 6 -11 17 -54 26 -97 8 -43 26
-114 39 -158 13 -44 30 -125 39 -180 14 -91 14 -101 -1 -117 -9 -10 -22 -18
-29 -18 -7 0 -14 -3 -16 -7 -1 -5 -25 -19 -53 -32 -27 -14 -73 -27 -101 -29
l-51 -4 -6 43 c-4 24 -9 89 -13 144 -3 55 -8 116 -10 135 -2 19 -6 103 -8 185
-3 83 -8 197 -12 255 -3 58 -7 110 -7 115 -1 6 18 13 43 16 25 4 61 4 80 2z
m-253 -34 l32 1 0 -147 c0 -82 3 -195 6 -253 4 -58 8 -127 9 -155 2 -27 6 -95
10 -150 4 -55 10 -108 13 -118 4 -15 1 -18 -14 -13 -10 3 -37 8 -61 11 -24 3
-79 20 -123 38 -45 18 -102 52 -128 74 -29 25 -59 66 -80 106 -18 36 -38 85
-43 109 -6 24 -12 89 -15 145 l-5 103 34 20 c19 10 55 44 81 74 28 33 60 59
82 66 19 6 35 16 35 21 0 5 6 9 14 9 8 0 21 9 29 20 7 11 31 24 53 29 21 5 53
9 71 10z m417 1 c7 0 30 -11 50 -25 21 -14 50 -39 64 -55 15 -16 43 -55 62
-86 31 -52 34 -63 40 -168 3 -61 2 -135 -2 -164 -5 -28 -19 -76 -33 -106 -14
-30 -25 -60 -25 -68 0 -9 -4 -8 -14 2 -7 8 -21 62 -30 120 -10 58 -23 130 -30
161 -8 30 -19 65 -25 77 -6 12 -9 22 -6 22 3 0 -1 12 -8 28 -8 15 -17 43 -20
62 -3 19 -8 44 -11 55 -2 11 -9 33 -15 48 -6 16 -11 44 -11 63 0 22 5 34 14
34z"/>
</g>
<g>
<path d="M3224 7775 c-38 3 -78 1 -89 -4 -11 -5 -40 -10 -63 -10 -33 -1 -45
-5 -49 -18 -2 -10 -25 -33 -51 -51 -26 -19 -53 -37 -60 -41 -7 -5 -14 -14 -16
-22 -1 -8 -10 -31 -20 -51 -13 -26 -28 -40 -52 -48 -19 -7 -39 -20 -44 -30 -6
-10 -10 -30 -10 -44 0 -14 -4 -28 -10 -31 -5 -3 -10 -26 -10 -49 0 -24 7 -63
15 -86 8 -23 15 -54 15 -69 0 -14 9 -39 19 -55 11 -16 17 -34 15 -41 -3 -7 11
-25 30 -41 19 -16 54 -41 78 -55 23 -15 66 -34 95 -43 35 -12 80 -16 143 -15
62 1 96 6 105 15 7 8 27 14 44 14 17 0 31 5 31 10 0 6 6 10 13 10 7 0 32 16
55 35 22 20 55 53 72 75 18 22 33 46 34 54 1 8 7 20 13 27 6 8 14 30 19 49 4
19 7 76 5 125 -1 75 -7 103 -34 170 -21 53 -46 93 -72 120 -22 22 -65 53 -96
68 -40 20 -76 29 -125 32z m-25 -106 c18 1 52 -4 75 -11 22 -7 56 -23 73 -36
18 -13 43 -40 55 -60 12 -20 30 -71 39 -113 10 -46 13 -82 8 -90 -5 -8 -9 -32
-9 -54 -1 -22 -6 -54 -13 -71 -7 -17 -33 -49 -58 -72 -25 -23 -68 -52 -95 -64
-29 -13 -78 -23 -121 -26 -60 -4 -82 -1 -130 19 -32 12 -64 30 -71 38 -7 9
-26 43 -41 76 -16 33 -32 75 -36 93 -4 19 -8 45 -10 59 -2 16 6 34 19 47 11
12 30 38 40 59 11 21 45 65 75 97 36 37 76 68 111 84 30 14 70 25 89 25z"/>
</g>
<g>
<path d="M1180 7685 c-36 2 -96 0 -133 -5 -37 -5 -74 -13 -81 -19 -7 -6 -15
-8 -18 -5 -3 3 -30 -8 -60 -25 -30 -17 -64 -31 -75 -31 -12 0 -60 -40 -123
-103 -56 -57 -111 -121 -121 -142 -11 -21 -19 -44 -19 -51 0 -7 -8 -18 -17
-23 -10 -6 -13 -11 -6 -11 8 0 9 -9 2 -32 -5 -18 -7 -60 -3 -93 3 -33 8 -73
10 -88 2 -16 14 -52 28 -81 13 -28 28 -64 32 -80 3 -15 30 -53 59 -84 33 -36
76 -69 116 -89 36 -17 105 -41 154 -53 50 -12 107 -31 127 -41 25 -13 58 -19
101 -19 35 0 90 5 123 11 32 5 83 22 113 36 30 15 62 26 70 26 9 0 22 6 29 14
7 7 19 13 25 13 7 0 20 12 30 26 13 17 16 29 9 37 -7 8 5 43 39 112 26 55 48
108 48 118 1 10 6 15 12 12 6 -4 9 -1 8 6 -2 8 2 30 8 49 7 19 15 59 18 88 4
31 2 87 -6 133 -7 43 -16 79 -21 79 -4 0 -8 9 -8 20 0 11 -22 44 -49 74 -27
29 -53 60 -57 69 -5 8 -29 25 -54 37 -25 12 -62 36 -82 52 -21 16 -53 34 -70
38 -18 5 -46 12 -63 15 -16 4 -59 8 -95 10z m129 -142 c36 -13 81 -35 100 -50
20 -14 49 -38 64 -52 16 -14 42 -55 59 -91 18 -37 33 -87 36 -116 3 -32 -2
-73 -14 -110 -10 -32 -19 -66 -20 -75 0 -9 -19 -49 -40 -89 -21 -40 -45 -75
-51 -77 -7 -3 -13 -9 -13 -14 0 -5 -23 -31 -51 -58 -28 -27 -65 -55 -83 -63
-19 -8 -72 -13 -136 -13 -58 0 -135 6 -172 13 -36 6 -97 26 -135 43 -37 16
-85 46 -105 66 -20 20 -40 49 -43 65 -4 15 -11 28 -16 28 -5 0 -9 11 -9 24 0
13 -7 43 -16 67 -10 26 -16 71 -15 109 1 36 7 82 15 103 7 21 28 57 47 79 18
23 47 54 64 71 16 16 53 44 82 63 29 19 55 34 58 34 4 0 19 8 33 19 15 10 41
22 57 26 17 4 77 10 135 14 95 6 111 5 169 -16z"/>
</g>
<g>
<path d="M4800 7664 c-52 3 -118 1 -147 -4 -28 -5 -76 -19 -107 -30 -31 -12
-56 -26 -56 -32 0 -6 -3 -8 -6 -5 -4 3 -16 1 -28 -5 -11 -7 -23 -13 -26 -13
-3 -1 -16 -6 -30 -12 -14 -6 -47 -21 -74 -32 -27 -12 -70 -39 -96 -61 -26 -22
-54 -40 -63 -40 -8 0 -27 -19 -43 -42 -16 -24 -41 -58 -56 -76 -15 -18 -28
-41 -28 -51 0 -10 -9 -26 -20 -36 -11 -10 -20 -23 -20 -28 0 -6 -13 -38 -29
-71 -16 -34 -33 -81 -39 -106 -6 -25 -14 -79 -17 -120 -4 -41 -6 -88 -6 -105
1 -16 4 -39 8 -50 4 -11 6 -30 4 -42 -1 -13 1 -28 6 -35 4 -7 9 -22 10 -33 2
-10 15 -44 29 -75 14 -30 31 -66 39 -80 7 -14 20 -44 27 -66 8 -22 31 -65 52
-97 20 -31 73 -91 116 -133 44 -42 96 -85 117 -94 21 -9 44 -24 52 -33 7 -10
20 -17 27 -17 8 0 32 -13 54 -29 21 -15 67 -36 102 -45 35 -9 74 -22 88 -28
14 -6 34 -15 45 -21 11 -6 47 -17 80 -25 33 -8 98 -16 145 -19 47 -2 108 -8
136 -12 49 -7 54 -6 95 25 24 19 51 34 60 34 9 0 28 9 42 20 14 11 30 20 35
20 5 0 17 11 26 25 9 14 21 25 27 25 6 0 17 7 25 15 8 8 23 20 33 27 9 7 35
38 57 68 22 30 51 76 64 103 14 26 28 47 32 47 5 0 8 8 8 18 0 9 11 40 25 67
13 28 25 57 25 66 0 9 7 22 15 29 8 7 17 28 20 49 3 20 10 52 15 71 5 20 10
98 10 175 1 113 -2 152 -18 205 -11 36 -31 94 -45 130 -14 36 -39 92 -57 125
-18 33 -45 77 -61 97 -16 20 -29 39 -29 42 0 3 -10 18 -22 33 -13 16 -40 45
-61 65 -20 21 -64 56 -97 78 -33 22 -84 54 -114 70 -29 16 -81 37 -115 46 -34
8 -80 17 -104 19 -23 1 -85 5 -137 9z m56 -118 c49 -4 107 -12 129 -17 22 -6
56 -17 75 -26 19 -8 53 -24 76 -34 22 -10 44 -19 47 -19 4 0 24 -15 44 -32 19
-18 56 -55 82 -81 25 -27 53 -64 63 -83 9 -19 31 -55 50 -81 19 -27 41 -66 50
-88 9 -22 25 -62 36 -90 11 -27 25 -69 31 -91 6 -23 11 -79 10 -125 0 -46 0
-102 1 -124 0 -22 -5 -48 -12 -57 -12 -15 -18 -15 -78 3 -36 10 -87 26 -115
35 -27 9 -75 30 -105 46 -30 16 -89 43 -130 60 -41 17 -96 37 -122 44 -26 8
-50 19 -53 24 -3 6 -15 10 -26 10 -11 0 -36 16 -55 36 -20 20 -42 33 -50 30
-9 -3 -14 1 -14 12 0 9 -2 60 -4 112 -2 52 -7 196 -12 319 l-7 224 89 -7z
m-225 -16 c15 0 19 -8 21 -37 1 -21 3 -83 5 -138 1 -55 5 -212 7 -349 2 -136
7 -263 11 -282 3 -19 10 -34 14 -34 5 0 5 -15 1 -34 -4 -19 -4 -40 0 -47 5 -7
9 -94 10 -193 1 -100 3 -229 4 -288 0 -60 -2 -108 -6 -108 -3 0 -32 10 -65 22
-32 12 -60 26 -61 30 -2 5 -8 6 -13 2 -5 -3 -42 12 -82 34 -39 21 -88 52 -107
68 -19 16 -66 61 -105 99 -39 39 -81 87 -93 108 -12 21 -22 43 -22 49 0 6 -18
46 -40 90 -22 44 -42 91 -44 103 -2 13 -10 34 -18 47 -9 16 -13 64 -12 168 1
121 4 153 21 195 12 28 27 51 35 53 12 2 13 -7 7 -53 -4 -31 -9 -85 -11 -120
-2 -51 1 -67 16 -84 11 -12 29 -21 41 -21 13 0 29 7 36 16 7 9 14 21 15 28 1
6 6 29 10 51 4 22 7 50 7 63 -1 12 3 22 7 22 5 0 11 18 15 40 4 22 9 50 11 63
2 12 11 68 19 124 9 57 23 119 31 138 8 19 19 35 24 35 6 0 31 11 58 23 26 13
67 35 92 48 25 14 64 30 87 37 23 7 45 17 48 22 3 6 15 10 26 10z m180 -800
c8 0 68 -21 134 -46 66 -25 125 -46 130 -48 6 -1 46 -20 90 -41 44 -21 122
-53 174 -71 52 -19 104 -34 116 -34 11 0 26 -5 32 -11 9 -9 7 -22 -7 -53 -10
-22 -38 -83 -61 -134 -36 -77 -54 -103 -108 -153 -36 -33 -98 -80 -139 -104
-41 -25 -92 -50 -114 -56 -23 -6 -78 -8 -130 -5 -50 3 -94 8 -96 11 -3 3 -7
31 -8 63 -1 31 -5 158 -8 282 -3 124 -9 264 -12 313 -5 70 -4 87 7 87z"/>
</g>
<g>
<path d="M8042 7664 c-52 1 -73 -4 -115 -26 -28 -16 -58 -35 -67 -43 -8 -8
-33 -15 -55 -16 -22 -1 -46 -7 -53 -12 -7 -6 -22 -30 -32 -53 -11 -24 -20 -50
-20 -59 0 -9 -9 -28 -20 -42 -14 -18 -20 -41 -20 -77 0 -29 9 -68 19 -91 11
-22 39 -61 63 -86 28 -30 66 -56 107 -74 42 -18 95 -31 149 -36 52 -6 100 -5
128 1 25 6 72 23 104 39 33 15 58 30 55 32 -2 3 9 13 26 24 19 13 34 35 41 60
6 22 17 47 24 55 9 11 11 34 7 75 -4 41 -17 80 -40 121 -18 34 -46 75 -62 92
-16 16 -49 44 -74 61 -25 17 -58 36 -74 42 -15 7 -57 12 -91 13z m3 -114 c20
0 53 -9 74 -19 21 -11 63 -47 93 -80 38 -40 58 -71 62 -96 4 -20 2 -51 -4 -70
-6 -19 -30 -50 -52 -69 -22 -19 -60 -42 -84 -50 -31 -10 -66 -13 -121 -9 -43
3 -87 11 -98 16 -11 6 -23 12 -27 13 -5 1 -12 2 -18 3 -5 0 -19 12 -32 26 -13
13 -34 45 -47 70 l-24 46 26 27 c15 16 27 33 27 40 0 7 5 12 12 12 6 0 9 3 6
6 -3 3 4 15 16 27 13 12 41 37 64 55 23 17 52 33 67 34 14 1 25 6 25 10 0 4
16 8 35 8z"/>
</g>
<g>
<path d="M9820 7319 c-8 -1 -62 -9 -120 -19 -58 -10 -127 -23 -154 -29 -32 -7
-72 -29 -120 -64 -39 -30 -80 -59 -91 -65 -12 -6 -27 -22 -35 -36 -7 -14 -19
-26 -26 -26 -7 0 -33 -21 -58 -46 -25 -25 -46 -51 -46 -58 0 -7 -9 -21 -20
-31 -11 -10 -20 -24 -20 -31 0 -7 -6 -19 -13 -26 -7 -7 -18 -33 -25 -58 -7
-25 -20 -83 -29 -130 -9 -47 -16 -116 -16 -155 1 -38 3 -77 6 -85 2 -8 9 -26
15 -40 6 -14 24 -60 41 -103 20 -50 48 -99 78 -135 27 -30 82 -89 124 -131 41
-42 91 -89 110 -106 19 -16 55 -40 79 -52 25 -12 61 -28 80 -37 19 -8 64 -23
100 -32 43 -12 102 -17 175 -17 101 0 114 2 158 27 26 15 64 29 85 32 20 2 41
9 46 14 6 6 18 10 28 10 10 0 18 5 18 12 0 6 3 9 6 5 3 -3 15 2 27 11 12 9 43
39 69 65 26 26 48 52 48 57 0 5 6 15 13 22 6 8 18 25 26 38 8 14 32 57 53 97
21 40 38 79 38 88 0 9 8 30 17 48 9 18 16 35 15 39 -1 4 4 25 12 45 7 21 19
57 26 80 7 23 13 72 13 110 0 37 -4 106 -8 152 -7 75 -13 94 -52 160 -25 42
-75 107 -111 144 -37 38 -98 90 -135 115 -37 26 -85 57 -105 69 -20 12 -59 30
-86 38 -27 9 -88 21 -135 26 -47 5 -93 8 -101 8z m65 -126 c6 -2 24 -5 40 -7
17 -2 46 -7 65 -11 19 -4 64 -21 99 -37 35 -16 94 -53 131 -83 37 -29 91 -83
119 -120 29 -37 54 -72 56 -79 1 -6 12 -33 25 -60 20 -43 22 -60 18 -155 -3
-58 -11 -119 -18 -136 -7 -16 -14 -34 -14 -40 -1 -5 -5 -26 -9 -45 -5 -19 -12
-44 -17 -55 -5 -11 -20 -47 -34 -80 -13 -33 -35 -79 -49 -103 -13 -24 -52 -72
-87 -108 -34 -35 -67 -64 -74 -64 -6 0 -33 -11 -60 -25 -27 -14 -57 -25 -65
-25 -9 0 -25 -6 -36 -14 -11 -7 -36 -16 -55 -19 -19 -4 -77 -8 -128 -8 -79 -2
-97 1 -120 18 -15 11 -44 22 -64 26 -20 3 -65 25 -100 48 -35 24 -95 76 -134
116 -39 40 -77 85 -84 100 -8 15 -21 37 -30 48 -9 11 -30 45 -47 75 -17 30
-35 79 -42 108 -6 29 -11 90 -11 135 0 49 6 92 14 108 7 14 21 52 31 85 10 32
26 75 36 94 9 19 29 46 43 59 14 14 26 31 26 38 0 7 10 18 23 22 12 5 33 20
47 33 14 13 39 33 56 45 17 13 34 20 38 16 3 -3 6 -1 6 4 0 6 20 21 45 33 24
12 84 28 132 37 48 8 117 18 153 22 36 4 70 5 75 4z"/>
</g>
<g>
<path d="M7101 6877 c-69 -1 -145 -4 -168 -7 -23 -4 -47 -11 -55 -17 -7 -5
-42 -16 -78 -23 -36 -6 -84 -21 -107 -31 -24 -10 -47 -19 -52 -19 -5 0 -38
-15 -73 -34 -35 -19 -80 -48 -100 -65 -20 -17 -41 -31 -46 -31 -5 0 -39 -32
-76 -70 -36 -39 -66 -78 -66 -88 0 -10 -13 -33 -28 -52 -17 -20 -40 -72 -55
-120 -14 -47 -35 -117 -46 -157 -12 -39 -25 -124 -31 -188 -7 -92 -6 -139 6
-219 8 -55 19 -116 25 -134 6 -18 22 -54 37 -80 14 -26 42 -65 61 -87 20 -23
54 -64 76 -92 22 -28 60 -63 85 -79 25 -15 56 -37 70 -48 14 -12 59 -38 100
-58 41 -20 113 -51 160 -68 46 -18 114 -39 150 -48 36 -8 90 -16 121 -16 31
-1 62 -6 70 -12 8 -6 36 -14 63 -18 32 -4 63 -1 92 9 25 8 69 18 99 21 30 4
55 11 55 16 0 5 5 6 10 3 6 -3 23 3 39 14 16 12 40 21 53 21 14 0 39 16 63 41
22 22 82 81 133 130 75 72 102 107 139 176 25 47 46 95 48 107 2 11 10 50 20
86 9 36 21 91 26 124 5 32 7 106 5 165 -3 58 -11 135 -19 171 -8 36 -22 90
-30 120 -8 30 -26 78 -40 105 -14 28 -35 70 -46 95 -12 25 -34 63 -50 85 -17
22 -69 81 -118 130 -48 50 -114 110 -145 134 -37 28 -91 55 -154 77 -93 32
-103 33 -223 31z m110 -121 c13 -3 51 -12 83 -21 39 -10 83 -33 127 -66 38
-28 112 -97 166 -154 67 -70 109 -124 132 -170 19 -37 44 -97 57 -133 12 -36
21 -69 18 -73 -2 -4 0 -18 5 -31 5 -12 12 -48 15 -80 4 -31 7 -98 7 -150 1
-69 -6 -120 -26 -198 -14 -58 -31 -116 -38 -130 -6 -14 -30 -55 -54 -91 -23
-37 -56 -79 -74 -95 -18 -16 -48 -44 -67 -61 -19 -18 -36 -33 -39 -33 -3 0
-14 -11 -24 -24 -11 -14 -34 -33 -52 -44 -17 -11 -46 -22 -64 -25 -17 -3 -38
-9 -45 -13 -7 -5 -89 -9 -183 -10 -93 -1 -188 2 -210 8 -22 6 -49 12 -59 14
-11 2 -27 11 -35 19 -13 13 -16 51 -18 223 -1 114 -4 240 -7 280 -2 41 -9 147
-16 235 -6 89 -15 207 -20 262 -5 55 -11 114 -14 130 -3 17 -10 77 -15 135 -6
58 -13 130 -17 160 -5 45 -3 58 10 69 9 7 16 11 16 8 0 -4 20 2 45 13 24 10
90 24 147 30 94 11 103 10 115 -6 7 -10 13 -38 13 -63 0 -25 10 -66 21 -91 12
-25 22 -52 23 -60 1 -8 6 -33 10 -55 5 -22 13 -48 18 -58 5 -10 11 -44 12 -75
2 -31 11 -106 19 -167 9 -60 21 -132 27 -160 6 -27 18 -69 27 -93 9 -24 23
-46 32 -51 9 -4 30 -7 46 -7 l30 1 -1 70 c0 39 -8 100 -18 137 -9 37 -21 97
-27 135 -5 37 -16 109 -23 158 -8 50 -17 100 -21 113 -4 12 -11 22 -16 22 -5
0 -8 3 -7 8 1 4 -2 34 -6 67 -4 33 -14 72 -22 86 -7 15 -16 46 -20 68 -6 40
-6 42 17 37z m-613 -136 c4 0 13 -4 20 -9 8 -4 17 -37 21 -72 5 -35 9 -101 10
-146 1 -45 4 -93 7 -105 3 -13 8 -56 11 -95 4 -50 2 -73 -5 -73 -6 0 -35 13
-64 30 -29 16 -101 53 -161 82 -59 29 -110 61 -113 70 -3 9 5 36 18 60 13 23
29 48 36 56 6 7 12 17 12 21 0 4 15 21 33 38 17 18 52 50 76 72 24 23 48 41
53 41 5 0 16 7 24 15 9 8 18 15 22 15z m-302 -450 c9 0 71 -28 138 -62 66 -33
148 -71 181 -82 54 -19 60 -24 67 -56 4 -19 10 -84 13 -145 4 -60 11 -117 16
-126 4 -9 6 -79 3 -155 -3 -77 -6 -148 -7 -159 -1 -11 2 -50 6 -87 7 -63 6
-67 -12 -63 -10 2 -50 21 -87 42 -38 22 -91 56 -119 77 -27 21 -60 48 -71 60
-12 11 -43 50 -70 86 -27 36 -59 92 -71 125 -11 33 -26 83 -32 110 -6 28 -12
79 -13 115 -1 36 1 108 6 160 4 52 14 110 21 128 8 18 21 32 31 32z"/>
</g>
<g>
<path d="M5795 5666 c-33 2 -83 -3 -111 -10 -28 -7 -74 -26 -102 -41 -28 -15
-60 -36 -71 -46 -11 -11 -25 -19 -31 -19 -5 0 -10 -6 -10 -13 0 -7 -19 -32
-43 -55 -36 -35 -43 -49 -45 -85 -1 -23 -8 -63 -14 -89 -9 -37 -9 -63 1 -115
8 -42 24 -86 43 -115 16 -27 43 -59 59 -72 16 -14 65 -43 108 -64 59 -30 97
-42 150 -47 46 -5 89 -3 123 6 29 6 70 20 93 30 22 10 55 34 74 53 19 19 39
32 44 29 6 -3 7 -2 4 4 -3 5 5 21 19 36 14 15 22 27 18 27 -3 0 2 12 11 27 13
20 18 47 17 108 0 45 -3 97 -7 116 -4 19 -12 50 -18 69 -6 19 -22 53 -35 75
-14 22 -41 57 -61 78 -20 21 -63 55 -96 74 -47 28 -73 36 -120 39z m11 -116
c17 -4 38 -11 45 -15 8 -5 33 -24 56 -43 23 -18 53 -53 67 -77 14 -23 30 -69
36 -101 6 -33 10 -77 10 -99 0 -23 -9 -52 -20 -67 -11 -15 -20 -31 -20 -35 -1
-4 -13 -22 -28 -39 -15 -17 -36 -34 -47 -38 -11 -5 -45 -14 -75 -21 -33 -8
-80 -11 -115 -8 -47 4 -72 14 -114 42 -30 20 -68 53 -85 74 -30 37 -31 43 -30
130 1 62 6 104 18 130 14 31 21 37 46 37 20 0 33 6 37 18 4 9 12 21 20 25 7 4
13 14 13 21 0 7 8 20 18 28 9 9 44 22 77 30 35 9 72 12 91 8z"/>
</g>
<g>
<path d="M4701 5508 c-41 -2 -81 -8 -90 -15 -9 -7 -24 -13 -33 -13 -10 0 -18
-4 -18 -10 0 -5 -6 -10 -13 -10 -8 0 -25 -9 -38 -21 -13 -11 -52 -48 -87 -81
-34 -33 -64 -70 -66 -82 -3 -11 -7 -32 -10 -46 -2 -14 -9 -43 -15 -65 -6 -22
-8 -71 -5 -110 3 -38 15 -96 26 -128 11 -33 33 -78 48 -100 15 -23 45 -59 65
-80 20 -21 73 -56 117 -78 75 -38 88 -41 187 -46 l106 -5 74 37 c46 22 92 55
118 83 24 26 52 56 62 68 10 11 28 52 40 90 11 38 25 98 30 134 6 47 5 79 -5
118 -8 28 -27 79 -43 111 -17 32 -52 81 -78 107 -26 27 -78 65 -114 85 -36 19
-92 41 -125 47 -32 7 -92 11 -133 10z m-16 -118 c12 0 28 -6 34 -14 7 -9 12
-45 11 -93 -1 -43 0 -184 2 -314 l4 -236 -46 5 c-25 2 -60 13 -77 24 -18 11
-55 45 -82 75 -33 37 -56 75 -68 112 -13 39 -18 83 -16 147 1 59 7 102 16 120
8 16 32 45 54 65 21 19 62 52 92 72 29 20 63 37 76 37z m184 -30 c9 0 37 -13
62 -28 24 -16 59 -46 78 -67 18 -21 44 -61 57 -89 18 -38 24 -69 24 -120 0
-58 -5 -79 -36 -142 -20 -40 -47 -83 -60 -95 -13 -12 -34 -28 -46 -35 -13 -8
-31 -17 -40 -20 -10 -3 -18 -10 -18 -15 0 -5 -6 -9 -14 -9 -12 0 -15 29 -15
166 -1 92 -4 170 -6 175 -3 4 -7 63 -9 131 -2 67 -1 128 1 135 3 7 13 13 22
13z"/>
</g>
<g>
<path d="M7425 4914 c-40 6 -108 8 -160 5 -49 -4 -110 -10 -133 -14 -24 -4
-46 -13 -48 -20 -3 -7 -22 -13 -42 -13 -21 0 -49 -5 -64 -11 -14 -5 -28 -7
-31 -5 -3 3 -18 -2 -34 -12 -15 -9 -81 -71 -145 -137 -65 -66 -115 -123 -112
-128 3 -5 0 -17 -5 -28 -6 -11 -17 -25 -24 -33 -7 -7 -21 -28 -30 -47 -9 -19
-17 -42 -17 -52 0 -10 -4 -21 -10 -24 -5 -3 -14 -23 -20 -44 -5 -21 -12 -51
-13 -67 -2 -16 -9 -45 -15 -64 -5 -19 -13 -69 -16 -111 -4 -43 -2 -119 5 -169
6 -54 19 -108 30 -129 11 -20 24 -43 29 -51 5 -8 25 -51 46 -95 32 -70 49 -92
142 -182 59 -57 115 -103 124 -103 10 0 33 -9 53 -20 20 -11 43 -20 51 -20 9
0 33 -9 53 -19 20 -11 65 -27 100 -36 35 -9 118 -19 185 -22 66 -2 153 -5 191
-6 42 -2 81 3 97 11 15 7 30 18 33 23 4 5 10 7 15 4 4 -3 27 11 50 30 23 19
45 35 49 35 4 0 42 35 84 77 43 42 77 81 77 86 0 4 13 27 28 50 16 23 43 72
60 109 18 37 32 76 32 87 0 12 4 21 9 21 6 0 10 8 9 18 0 9 3 35 6 57 4 22 9
56 11 75 3 19 8 58 11 85 4 29 -1 88 -10 143 -9 51 -26 121 -37 155 -11 34
-48 118 -81 187 -56 116 -67 131 -147 208 -65 63 -105 92 -166 121 -44 21 -96
44 -115 51 -19 7 -66 17 -105 24z m-112 -116 c45 0 108 -4 140 -9 32 -6 93
-28 139 -51 45 -23 100 -60 122 -83 23 -22 60 -64 84 -92 23 -28 42 -57 42
-63 0 -6 18 -50 41 -98 22 -48 44 -95 49 -104 5 -9 16 -61 25 -115 9 -54 14
-126 13 -160 -2 -35 -6 -63 -9 -63 -3 0 -6 -22 -8 -50 -1 -27 -9 -66 -16 -85
-8 -19 -15 -43 -15 -53 0 -11 -7 -25 -15 -32 -8 -7 -15 -23 -15 -36 0 -13 -8
-28 -19 -33 -10 -6 -22 -22 -25 -36 -4 -14 -11 -25 -16 -25 -6 0 -10 -6 -10
-13 0 -7 -37 -49 -82 -93 -46 -45 -100 -91 -120 -103 -31 -18 -41 -20 -59 -10
-17 9 -37 9 -88 -1 -39 -7 -118 -11 -192 -9 -69 2 -132 9 -140 15 -8 5 -38 16
-68 23 -30 8 -80 26 -110 41 -31 16 -66 39 -77 52 -12 12 -25 41 -29 63 -5 22
-9 78 -10 125 -2 47 -5 139 -8 205 -4 66 -9 224 -12 350 -3 127 -8 249 -11
273 -5 41 -4 44 55 102 34 33 66 60 71 60 6 0 10 4 10 8 0 5 19 18 43 30 23
12 58 23 78 26 19 3 62 12 94 21 32 8 60 16 62 19 2 2 41 4 86 4z m-604 -434
c3 -2 6 -93 7 -202 1 -108 4 -254 6 -324 2 -71 1 -128 -2 -128 -3 0 -11 12
-18 28 -8 15 -26 56 -42 92 -21 52 -29 89 -34 175 -6 95 -4 122 14 195 12 47
24 98 27 115 4 16 13 35 22 42 9 6 18 9 20 7z"/>
</g>
<g>
<path d="M2489 4624 c-8 2 -30 0 -49 -4 -19 -5 -55 -13 -80 -19 -25 -6 -65
-16 -89 -22 -24 -5 -56 -19 -71 -29 -16 -11 -35 -20 -44 -20 -8 0 -38 -13 -66
-30 -28 -16 -55 -30 -60 -30 -6 0 -38 -21 -71 -47 -34 -26 -69 -59 -78 -75 -9
-15 -19 -28 -23 -28 -5 0 -8 -8 -8 -19 0 -10 -7 -24 -16 -31 -8 -8 -24 -32
-35 -54 -11 -23 -24 -57 -29 -76 -5 -19 -16 -62 -24 -95 -11 -42 -14 -93 -11
-170 2 -60 9 -139 15 -175 7 -36 16 -72 21 -80 5 -8 12 -22 16 -30 4 -8 9 -17
13 -20 3 -3 21 -26 39 -52 17 -27 44 -54 60 -62 15 -8 34 -22 41 -31 7 -9 30
-23 49 -32 20 -9 41 -17 46 -19 6 -1 35 -12 65 -23 30 -12 79 -25 110 -31 30
-5 120 -10 200 -11 124 0 154 3 204 21 33 12 78 31 100 42 23 11 45 27 49 34
4 8 14 14 20 14 7 0 55 40 106 90 57 54 91 95 88 103 -3 8 6 26 19 40 13 14
24 35 24 47 0 11 4 20 8 20 5 0 9 6 9 13 1 6 8 38 17 71 11 40 16 97 16 180
-1 66 -7 148 -15 181 -7 33 -29 92 -49 131 -27 55 -54 89 -124 155 -61 57
-113 96 -163 121 -57 28 -91 38 -145 42 -40 3 -78 8 -85 10z m47 -129 c64 -2
92 -9 135 -30 30 -15 84 -58 120 -95 37 -37 85 -94 106 -127 34 -50 42 -73 50
-140 6 -44 9 -98 7 -119 -2 -22 -6 -64 -9 -94 -3 -30 -13 -79 -22 -110 -8 -30
-27 -75 -41 -100 -14 -25 -49 -67 -76 -95 -28 -27 -70 -64 -93 -82 -22 -17
-44 -29 -47 -26 -3 4 -17 -4 -30 -16 -17 -16 -44 -25 -93 -32 -37 -4 -115 -8
-173 -8 -58 0 -123 4 -145 9 -22 5 -56 13 -75 18 -19 5 -60 21 -90 35 -30 14
-68 39 -85 54 -16 16 -45 51 -63 80 -18 28 -37 66 -43 85 -6 18 -12 85 -13
148 -2 82 2 139 15 199 13 63 24 90 42 105 13 12 34 41 47 66 12 25 43 68 68
95 26 28 65 60 87 71 22 12 51 26 65 32 14 7 45 18 70 25 25 8 63 19 85 26 22
6 58 15 80 20 22 5 76 8 121 6z"/>
</g>
<g>
<path d="M4984 4563 c-23 1 -59 -2 -80 -6 -22 -4 -57 -10 -79 -13 -22 -3 -62
-17 -89 -31 -27 -14 -59 -30 -70 -37 -11 -6 -26 -17 -34 -23 -7 -7 -21 -13
-30 -14 -9 0 -39 -29 -66 -64 -27 -35 -61 -88 -76 -119 -16 -31 -31 -68 -35
-84 -4 -15 -9 -47 -12 -72 -3 -25 -5 -64 -4 -87 0 -23 7 -60 15 -82 7 -23 29
-66 47 -97 19 -31 54 -78 79 -105 32 -34 73 -63 140 -96 52 -26 111 -53 130
-61 19 -7 63 -15 98 -17 34 -2 62 0 62 5 0 4 22 8 48 7 26 0 53 2 58 6 6 3 23
-3 40 -14 16 -10 41 -19 55 -19 15 0 47 9 73 21 26 11 62 35 80 54 19 18 31
37 27 41 -3 4 2 4 12 1 12 -5 17 -1 17 11 0 9 16 34 36 55 19 20 39 50 44 65
5 15 16 45 24 67 9 23 15 73 15 120 0 44 -4 111 -9 148 -6 38 -17 78 -25 90
-8 12 -15 29 -15 38 0 10 -3 19 -7 21 -5 2 -18 22 -31 45 -12 23 -37 58 -55
79 -17 20 -61 55 -97 78 -36 23 -87 50 -115 59 -27 10 -68 20 -90 23 -22 3
-59 6 -81 7z m32 -118 c69 -1 89 -5 148 -34 38 -18 88 -50 111 -72 24 -22 53
-62 65 -92 12 -28 30 -63 40 -77 14 -21 17 -44 15 -141 -1 -63 -8 -133 -15
-155 -7 -21 -18 -43 -24 -49 -6 -5 -24 -31 -39 -57 -15 -26 -35 -51 -44 -56
-9 -5 -23 -7 -32 -5 -9 2 -61 -8 -116 -24 -61 -17 -124 -27 -162 -27 -34 0
-64 2 -66 4 -3 3 -8 140 -13 305 -5 165 -9 338 -9 385 l0 85 30 5 c17 3 66 5
111 5z m-277 -82 c2 -1 4 -19 3 -39 -1 -19 5 -65 12 -102 10 -47 13 -128 12
-273 -2 -113 -6 -211 -10 -218 -4 -6 -13 -11 -20 -11 -7 0 -23 11 -36 25 -12
13 -26 22 -31 20 -4 -3 -26 16 -49 42 -24 27 -52 64 -64 83 -12 19 -28 55 -35
78 -8 29 -10 66 -5 109 4 42 17 85 36 121 17 32 45 71 63 87 19 17 44 39 57
50 13 11 32 23 43 26 11 3 22 4 24 2z"/>
</g>
<g>
<path d="M9967 3337 c-56 2 -99 -1 -110 -8 -10 -6 -25 -8 -32 -5 -8 3 -29 0
-47 -6 -18 -6 -41 -18 -51 -26 -10 -9 -23 -17 -30 -18 -7 -1 -18 -3 -26 -5 -7
-2 -29 -17 -47 -34 -18 -16 -45 -51 -58 -78 -14 -26 -35 -57 -45 -69 -11 -11
-26 -46 -32 -77 -7 -31 -12 -99 -12 -152 -1 -58 5 -109 13 -130 7 -19 41 -61
74 -94 34 -33 78 -69 99 -80 20 -11 37 -24 37 -29 0 -5 3 -7 6 -3 3 3 25 -4
47 -16 33 -17 59 -22 120 -22 64 0 80 3 88 18 6 9 22 17 37 17 15 0 45 9 68
19 22 10 55 33 72 49 18 17 32 29 32 26 0 -3 16 12 35 33 19 21 52 70 72 108
37 68 38 73 38 175 0 105 0 105 -45 194 -33 65 -59 101 -99 137 -30 27 -62 49
-71 49 -9 0 -21 5 -28 12 -7 7 -50 13 -105 15z m-5 -122 c45 -1 85 -8 103 -17
17 -9 39 -27 51 -40 11 -12 28 -43 38 -68 10 -25 27 -63 38 -86 16 -31 20 -53
15 -95 -2 -30 -16 -78 -30 -106 -14 -27 -49 -71 -78 -97 -29 -26 -65 -54 -81
-62 -15 -8 -28 -12 -28 -10 0 3 -21 -5 -46 -18 -34 -17 -58 -22 -88 -19 -23 2
-52 9 -66 15 -14 5 -35 15 -46 21 -12 7 -40 24 -62 39 -23 15 -47 38 -54 50
-7 13 -18 39 -25 58 -7 19 -12 69 -12 111 1 65 6 84 33 135 25 47 37 60 58 62
16 2 41 19 62 43 20 21 43 39 51 39 8 0 15 5 15 10 0 6 3 9 8 8 4 0 22 5 39
13 20 9 60 14 105 14z"/>
</g>
<g>
<path d="M6841 3269 c-20 0 -58 -7 -86 -15 -27 -8 -63 -21 -80 -29 -16 -7 -45
-16 -62 -20 -21 -4 -33 -3 -33 4 0 6 -14 11 -32 11 -18 0 -45 -10 -63 -24 -17
-14 -48 -56 -68 -96 -23 -43 -37 -85 -37 -107 0 -20 5 -66 11 -102 10 -52 18
-72 43 -96 17 -16 44 -41 60 -54 16 -13 52 -30 80 -38 28 -8 103 -17 168 -20
111 -5 118 -5 169 21 29 14 59 26 66 26 7 0 13 4 13 8 0 4 18 28 40 52 22 25
40 50 40 57 0 7 6 16 13 20 6 4 13 17 15 28 1 11 3 47 2 80 0 33 -2 69 -4 80
-3 11 -5 26 -5 33 -1 8 -26 40 -57 72 -31 33 -79 71 -107 85 -28 14 -67 25
-86 24z m-116 -129 c2 0 10 -12 20 -26 13 -21 18 -56 21 -170 l3 -144 -52 -1
c-29 -1 -63 0 -77 1 -14 1 -44 10 -67 21 -23 11 -48 30 -56 42 -7 12 -17 34
-20 49 -6 21 -2 32 16 50 13 13 35 40 50 60 15 20 27 42 27 48 0 6 16 18 35
26 19 7 43 14 53 14 11 0 25 7 32 15 7 8 14 15 15 15z m164 0 c5 0 17 -8 28
-17 10 -10 30 -31 43 -46 21 -24 24 -36 22 -89 -2 -34 -9 -73 -17 -87 -7 -14
-27 -39 -43 -54 -20 -19 -32 -25 -37 -17 -4 6 -9 72 -12 145 -3 74 -3 141 0
150 4 8 11 15 16 15z"/>
</g>
<g>
<path d="M4690 3235 c-140 5 -160 3 -210 -16 -30 -11 -73 -26 -95 -32 -22 -6
-42 -15 -45 -18 -3 -3 -23 -16 -45 -27 -22 -11 -62 -40 -88 -64 -26 -23 -65
-56 -85 -73 -20 -16 -60 -57 -89 -91 -28 -34 -63 -84 -77 -112 -14 -28 -26
-56 -26 -61 0 -6 -13 -29 -29 -53 -24 -35 -31 -59 -37 -123 -3 -44 -7 -120 -7
-170 -1 -49 1 -106 4 -125 4 -20 20 -62 36 -95 17 -33 40 -77 52 -98 12 -21
53 -72 92 -112 47 -49 94 -86 139 -109 37 -20 119 -56 181 -81 85 -35 131 -47
184 -51 38 -2 93 -9 120 -14 28 -5 74 -14 102 -20 29 -5 80 -7 113 -3 33 3 60
10 60 14 0 5 5 9 10 9 6 0 27 7 48 17 20 9 53 22 72 29 19 8 40 14 46 14 5 0
45 33 87 73 43 39 77 75 77 79 0 4 15 28 33 54 17 25 35 51 38 58 4 6 16 29
27 51 11 22 27 69 36 105 11 48 15 108 13 230 -2 94 -8 176 -14 190 -7 14 -19
52 -29 85 -9 33 -24 74 -33 90 -8 17 -14 34 -13 39 2 5 -1 12 -6 15 -5 3 -21
29 -35 56 -15 30 -62 85 -119 140 -57 54 -118 103 -155 122 -34 18 -88 42
-120 53 -46 17 -90 22 -213 25z m13 -120 c72 -3 135 -9 140 -14 5 -5 11 -114
12 -243 2 -128 6 -295 9 -372 4 -94 3 -143 -5 -152 -6 -7 -31 -16 -55 -20 -24
-3 -44 -11 -44 -17 0 -6 -3 -8 -6 -4 -3 3 -18 1 -33 -5 -14 -6 -33 -11 -41
-13 -8 -1 -30 -5 -47 -10 -18 -4 -33 -11 -33 -16 0 -5 -3 -8 -7 -7 -5 1 -47
-17 -94 -40 -47 -23 -107 -45 -131 -48 -25 -4 -51 -10 -58 -14 -7 -4 -14 -27
-17 -51 -4 -35 -1 -48 15 -62 20 -18 23 -18 104 9 45 15 96 33 111 41 16 8 39
16 50 19 12 2 23 8 25 14 2 5 10 10 18 10 8 0 14 4 14 9 0 5 21 12 48 16 26 4
55 11 65 17 10 5 42 15 70 23 29 7 73 16 99 20 26 4 55 13 64 20 15 11 17 31
15 166 -1 85 -3 186 -5 224 -2 39 -7 150 -11 248 l-8 177 24 0 c17 0 49 -26
110 -88 50 -51 95 -108 108 -137 13 -28 39 -82 57 -121 19 -38 34 -81 34 -95
0 -13 4 -40 10 -59 5 -19 11 -62 14 -95 2 -33 0 -68 -5 -78 -6 -9 -10 -47 -10
-84 -1 -54 -7 -80 -36 -142 -19 -42 -52 -96 -71 -120 -20 -25 -47 -56 -59 -69
-13 -14 -23 -28 -23 -33 0 -4 -26 -21 -57 -38 -31 -17 -64 -31 -74 -31 -9 0
-34 -7 -54 -16 -21 -8 -77 -18 -124 -20 -47 -3 -122 -1 -166 5 -44 5 -98 12
-120 16 -22 3 -51 11 -65 17 -14 6 -33 14 -42 19 -10 5 -23 9 -29 9 -6 0 -48
16 -93 36 -44 21 -94 48 -111 61 -16 13 -34 27 -40 32 -5 4 -24 23 -40 42 -17
19 -39 48 -50 64 -10 17 -31 55 -46 86 -20 41 -29 79 -33 135 -2 44 0 120 6
169 5 50 19 110 30 135 10 25 29 64 41 88 12 24 39 62 60 84 20 23 37 42 37
43 0 1 15 18 33 37 17 18 58 53 89 76 31 23 59 46 62 51 4 5 32 22 62 36 31
15 63 28 73 30 9 3 33 9 54 14 21 5 41 12 44 15 4 3 65 4 136 1z"/>
</g>
<g>
<path d="M6905 2635 c-62 2 -121 -1 -135 -7 -14 -6 -34 -13 -45 -15 -11 -2
-49 -11 -85 -19 -36 -9 -69 -20 -74 -25 -6 -5 -18 -9 -28 -9 -9 0 -32 -8 -50
-18 -18 -9 -67 -28 -108 -42 -41 -14 -83 -33 -92 -42 -10 -10 -23 -18 -30 -18
-6 0 -32 -17 -57 -38 -25 -21 -58 -43 -72 -49 -15 -6 -68 -62 -118 -123 -50
-62 -91 -117 -91 -124 0 -7 -8 -21 -18 -32 -10 -10 -37 -56 -60 -101 -23 -46
-42 -90 -42 -98 0 -8 -5 -25 -12 -38 -6 -12 -15 -30 -20 -39 -4 -10 -8 -25 -8
-33 0 -8 -4 -15 -8 -15 -4 0 -8 -8 -9 -17 -1 -10 -7 -38 -13 -63 -7 -25 -16
-59 -21 -76 -5 -17 -9 -55 -9 -85 0 -30 -5 -71 -11 -93 -8 -27 -8 -62 0 -120
8 -55 22 -104 46 -153 19 -40 35 -80 35 -88 0 -9 7 -30 17 -48 9 -18 26 -45
37 -62 12 -16 47 -60 79 -97 33 -37 88 -91 124 -120 36 -28 108 -71 161 -95
53 -24 104 -43 114 -43 9 0 20 -4 23 -10 3 -5 14 -10 25 -10 10 0 40 -11 67
-24 32 -17 80 -28 148 -36 55 -6 154 -16 220 -21 66 -5 141 -12 167 -15 36 -5
58 -1 90 15 24 11 59 23 79 25 19 3 48 10 64 17 17 6 41 16 55 22 14 6 33 18
43 26 9 8 20 11 24 8 3 -4 11 -2 18 3 7 5 38 23 71 40 32 16 62 30 65 30 3 0
23 15 44 33 21 17 69 64 106 102 38 39 69 75 69 82 0 6 8 18 18 25 11 7 26 29
35 48 8 19 21 52 27 73 6 20 15 37 20 37 5 0 12 17 15 38 4 20 12 53 20 72 7
19 22 87 31 150 10 63 18 156 18 205 0 50 -3 122 -6 160 -3 39 -12 90 -19 115
-6 25 -23 68 -35 96 -13 28 -24 65 -24 82 0 18 -4 32 -9 32 -5 0 -13 10 -17
23 -5 12 -7 25 -6 30 1 4 -2 7 -6 7 -5 0 -17 19 -27 43 -10 23 -49 83 -87 134
-38 51 -97 114 -131 142 -34 28 -76 61 -93 76 -18 14 -36 25 -42 25 -6 0 -24
11 -40 25 -17 14 -65 37 -108 51 -43 14 -84 29 -90 35 -6 5 -33 14 -60 20 -27
6 -98 13 -159 14z m99 -132 c21 -7 51 -13 67 -13 15 0 31 -4 34 -10 3 -5 16
-10 28 -10 12 0 58 -18 101 -41 44 -22 100 -57 125 -78 25 -21 58 -44 72 -52
15 -8 48 -41 75 -74 27 -33 57 -77 67 -98 10 -22 31 -55 47 -75 16 -21 32 -50
36 -67 4 -16 12 -37 19 -45 6 -8 20 -44 29 -80 10 -36 25 -85 33 -109 11 -29
15 -80 15 -159 0 -63 -3 -147 -7 -186 -3 -39 -13 -89 -21 -111 -8 -22 -16 -51
-18 -65 -3 -14 -5 -25 -7 -25 -1 0 -3 -9 -4 -20 -1 -11 -16 -59 -33 -107 -17
-48 -40 -97 -51 -110 -11 -13 -45 -54 -75 -91 -31 -38 -56 -65 -56 -61 0 3 -9
-5 -21 -20 -11 -14 -25 -26 -30 -26 -5 0 -51 -20 -102 -44 -50 -24 -103 -47
-117 -51 -14 -4 -38 -15 -55 -25 -16 -9 -59 -23 -95 -31 -36 -7 -126 -13 -200
-14 -74 0 -179 3 -233 8 -54 4 -110 13 -125 21 -15 8 -43 18 -62 24 -19 6 -62
20 -95 32 -33 12 -91 37 -130 55 -38 18 -92 50 -120 72 -27 22 -65 54 -83 72
-18 18 -59 74 -92 124 -33 50 -65 109 -71 131 -6 23 -14 45 -17 51 -3 5 -7 16
-8 25 -2 8 -8 38 -14 65 -6 28 -11 92 -11 143 0 51 4 98 8 105 4 6 8 17 10 22
1 6 7 37 12 69 6 33 15 64 21 70 5 5 10 20 10 32 0 12 7 38 15 57 8 20 19 38
24 41 5 3 11 16 15 29 3 13 21 50 40 82 20 32 42 65 51 75 8 9 15 21 15 26 0
5 9 26 20 47 12 21 37 53 57 70 19 18 52 48 72 67 21 19 50 44 66 55 15 11 35
28 44 37 8 10 31 23 51 29 19 7 46 20 60 29 14 10 35 21 48 24 12 4 22 12 22
17 0 5 9 9 19 9 11 0 23 5 26 10 4 6 14 10 23 9 10 -2 36 1 59 5 24 4 61 16
82 27 22 10 46 19 54 19 7 0 18 5 24 11 6 6 17 8 23 4 9 -6 11 -39 6 -129 -3
-66 -7 -125 -7 -131 0 -5 2 -79 6 -164 4 -85 10 -163 15 -175 4 -12 5 -74 2
-138 -2 -65 -10 -124 -16 -132 -6 -8 -38 -24 -71 -35 -33 -12 -96 -35 -140
-52 -44 -16 -98 -29 -120 -29 -22 0 -72 -13 -111 -30 -39 -16 -95 -36 -125
-44 -30 -8 -77 -21 -104 -29 -28 -8 -61 -19 -73 -26 -15 -8 -22 -21 -22 -39 0
-15 7 -35 14 -44 9 -13 27 -18 63 -18 28 0 68 7 89 17 22 9 55 19 74 23 19 5
64 18 100 31 36 12 72 25 80 27 8 3 19 4 24 3 5 -1 36 5 70 13 34 8 77 18 96
21 19 3 37 9 40 13 3 4 26 18 52 31 26 12 51 21 56 18 4 -3 23 3 40 14 18 10
40 19 50 19 9 1 26 9 38 18 15 13 23 34 27 77 4 33 2 139 -4 235 -6 96 -13
234 -15 305 -3 72 -8 141 -13 155 -4 14 -5 64 -3 112 l4 87 37 3 c20 2 53 -2
75 -9z"/>
</g>
</g>
</svg>
