<?xml version="1.0" standalone="no"?>
<!DOCTYPE svg PUBLIC "-//W3C//DTD SVG 20010904//EN"
 "http://www.w3.org/TR/2001/REC-SVG-20010904/DTD/svg10.dtd">
<svg version="1.0" xmlns="http://www.w3.org/2000/svg"
 width="1536.000000pt" height="2048.000000pt" viewBox="0 0 1536.000000 2048.000000"
 preserveAspectRatio="xMidYMid meet">
<metadata>
Created by potrace 1.16, written by Peter Selinger 2001-2019
</metadata>
<g transform="translate(0.000000,2048.000000) scale(0.100000,-0.100000)"
fill="#000000" stroke="none">
<g>
<path d="M8120 19825 c-137 2 -282 -1 -370 -9 -80 -7 -174 -19 -210 -26 -36
-6 -110 -23 -165 -37 -55 -14 -111 -27 -125 -30 -14 -3 -59 -16 -101 -29 -42
-12 -119 -39 -170 -59 -52 -20 -107 -43 -124 -50 -16 -7 -50 -20 -75 -30 -25
-10 -65 -27 -90 -38 -25 -10 -108 -51 -185 -89 -77 -39 -160 -85 -185 -102
-25 -17 -61 -39 -80 -50 -19 -10 -71 -43 -115 -74 -44 -30 -133 -98 -198 -149
-65 -52 -169 -144 -232 -206 -62 -62 -151 -160 -197 -219 -46 -59 -109 -146
-140 -195 -31 -48 -62 -100 -69 -115 -7 -16 -17 -28 -23 -28 -6 0 -31 27 -55
60 -24 33 -63 77 -86 98 -23 20 -60 52 -81 70 -22 19 -70 49 -109 67 -38 18
-86 39 -105 47 -19 8 -62 25 -95 36 -33 12 -94 31 -135 43 -41 12 -104 27
-140 34 -36 7 -110 22 -165 33 -55 11 -147 27 -205 36 -58 9 -172 19 -255 22
-90 4 -206 2 -290 -5 -77 -7 -178 -21 -225 -32 -47 -11 -110 -29 -140 -40 -30
-12 -59 -22 -65 -23 -5 -1 -46 -20 -91 -42 -44 -23 -101 -54 -125 -70 -24 -16
-53 -35 -64 -42 -11 -7 -28 -15 -37 -18 -10 -4 -18 -9 -18 -13 0 -4 -15 -15
-32 -26 -18 -10 -39 -27 -46 -37 -7 -10 -20 -18 -28 -18 -8 0 -14 -4 -14 -9 0
-4 -26 -26 -57 -48 -32 -23 -77 -58 -101 -79 -24 -22 -95 -89 -158 -150 -63
-61 -114 -115 -114 -120 0 -5 -10 -20 -23 -34 -13 -14 -47 -56 -77 -95 -30
-38 -57 -72 -60 -75 -4 -3 -26 -41 -50 -85 -24 -44 -56 -105 -70 -135 -15 -30
-37 -86 -48 -125 -12 -38 -26 -108 -33 -154 -7 -47 -9 -119 -5 -165 3 -45 13
-108 21 -141 9 -33 34 -99 57 -147 22 -48 52 -96 66 -108 13 -12 56 -42 96
-67 39 -25 96 -62 126 -82 30 -20 69 -44 85 -54 17 -10 38 -20 48 -23 9 -4 17
-9 17 -11 0 -3 -7 -31 -15 -63 -8 -32 -33 -96 -54 -142 -21 -45 -59 -131 -85
-189 -25 -59 -46 -112 -46 -118 0 -6 -9 -30 -19 -54 -11 -23 -26 -67 -34 -97
-8 -30 -38 -133 -65 -228 -28 -95 -60 -219 -71 -275 -11 -56 -25 -140 -31
-187 -7 -49 -9 -123 -5 -175 4 -49 13 -117 21 -150 9 -33 38 -132 65 -220 28
-88 56 -180 63 -205 8 -25 18 -63 24 -85 6 -22 23 -87 38 -145 15 -58 38 -139
51 -180 13 -41 33 -95 45 -119 11 -25 30 -59 42 -75 12 -17 28 -42 35 -56 6
-14 35 -53 63 -85 28 -33 57 -64 65 -68 11 -7 3 -21 -39 -66 -29 -32 -91 -102
-138 -156 -47 -54 -107 -128 -134 -164 -27 -36 -66 -84 -86 -106 -21 -22 -86
-106 -144 -188 -58 -81 -106 -150 -106 -154 0 -3 -6 -14 -14 -22 -8 -9 -39
-63 -69 -121 -30 -58 -69 -141 -87 -185 -18 -44 -38 -93 -45 -110 -8 -16 -23
-61 -35 -100 -12 -38 -26 -79 -30 -90 -4 -11 -15 -45 -23 -75 -9 -30 -24 -104
-33 -165 -12 -80 -15 -145 -11 -240 3 -71 13 -155 21 -185 8 -31 33 -89 56
-128 23 -40 57 -84 75 -97 17 -14 50 -35 72 -48 22 -12 83 -47 136 -76 l95
-55 -43 -30 c-23 -17 -75 -60 -114 -96 -40 -36 -102 -101 -139 -145 -37 -43
-82 -100 -100 -125 -18 -25 -52 -74 -76 -110 -23 -36 -61 -99 -83 -140 -22
-41 -59 -121 -82 -178 -23 -57 -51 -132 -62 -167 -10 -35 -24 -96 -29 -137 -5
-40 -15 -104 -20 -143 -7 -42 -9 -157 -5 -287 3 -120 10 -241 15 -269 6 -28
10 -73 10 -99 0 -26 8 -71 18 -101 11 -30 25 -79 32 -109 7 -30 29 -87 48
-127 18 -39 55 -98 81 -129 25 -32 69 -75 96 -96 27 -20 81 -54 119 -74 39
-20 77 -40 86 -44 8 -5 38 -17 65 -28 28 -11 91 -30 140 -42 l90 -22 1 -101
c1 -78 6 -117 23 -163 12 -33 36 -89 55 -123 18 -35 57 -90 86 -122 28 -33 75
-77 104 -98 29 -21 73 -48 98 -60 25 -11 67 -25 94 -31 27 -6 87 -13 134 -14
47 -2 123 1 169 6 46 5 156 27 244 48 88 22 165 44 171 49 6 5 30 14 54 21 24
6 82 29 130 51 48 23 128 61 177 86 50 26 110 60 135 77 25 17 94 81 155 142
60 60 157 173 214 250 58 76 119 159 135 183 17 24 48 63 70 87 21 24 46 44
55 44 9 0 27 -9 41 -20 14 -11 29 -20 34 -20 5 0 32 -20 60 -45 28 -24 116
-109 196 -188 80 -78 289 -289 465 -468 176 -178 365 -372 421 -429 55 -58
155 -156 222 -219 90 -83 144 -144 204 -230 45 -64 127 -177 181 -251 55 -74
113 -152 129 -173 16 -21 58 -93 93 -160 35 -67 77 -162 94 -212 16 -49 37
-117 45 -150 8 -33 21 -105 28 -160 9 -68 12 -198 10 -405 -1 -195 -7 -345
-16 -415 -8 -60 -26 -166 -40 -235 -14 -69 -39 -183 -56 -255 -17 -71 -44
-184 -60 -250 -16 -66 -34 -147 -40 -180 -7 -33 -34 -145 -61 -250 -27 -104
-66 -233 -86 -285 -20 -52 -90 -201 -156 -330 -66 -129 -143 -277 -171 -328
-28 -51 -59 -101 -68 -112 -10 -11 -18 -23 -18 -26 0 -3 -35 -67 -77 -141 -43
-74 -83 -142 -88 -151 -6 -10 -19 -30 -30 -47 -11 -16 -22 -32 -25 -35 -3 -3
-43 -59 -90 -125 -46 -66 -111 -153 -144 -194 -32 -40 -97 -123 -143 -185 -46
-61 -144 -174 -217 -251 -74 -77 -181 -179 -238 -226 -57 -47 -138 -109 -180
-137 -42 -29 -80 -52 -83 -52 -3 0 -39 -16 -80 -35 -41 -20 -81 -35 -87 -34
-7 1 -19 1 -25 0 -7 0 -13 -10 -13 -22 0 -11 9 -34 21 -50 12 -17 29 -29 43
-29 12 0 26 4 32 9 5 5 56 19 114 30 58 12 134 30 170 41 36 10 97 26 135 34
39 9 110 20 158 26 48 5 91 12 96 15 5 2 84 21 176 40 91 19 171 37 176 41 6
3 38 13 72 21 40 10 131 16 259 18 109 2 213 8 230 13 18 6 74 19 123 31 50
11 128 23 174 25 46 3 88 3 92 0 5 -3 -7 -34 -27 -71 -19 -36 -42 -77 -52 -92
-10 -14 -24 -39 -32 -56 -8 -16 -26 -46 -41 -65 -14 -19 -37 -55 -51 -80 -14
-25 -39 -67 -56 -95 -17 -27 -43 -70 -58 -95 -15 -25 -49 -88 -77 -140 -27
-52 -63 -131 -79 -175 -16 -44 -38 -105 -48 -135 -10 -30 -20 -71 -21 -90 -2
-19 4 -45 12 -57 7 -13 23 -23 35 -23 11 0 49 11 84 25 35 14 73 31 84 38 12
7 41 21 66 31 24 10 71 34 105 53 33 20 87 50 120 68 33 17 71 38 84 46 14 8
30 17 35 22 6 4 29 21 51 38 22 16 58 45 80 64 22 19 76 65 120 103 44 37 102
85 129 107 28 22 64 49 82 60 18 11 58 40 91 65 32 25 94 76 138 114 44 38
120 108 168 155 48 47 94 89 103 94 11 6 31 -4 70 -33 29 -24 54 -46 54 -50 0
-4 11 -12 24 -18 14 -6 34 -19 46 -29 12 -10 42 -36 67 -58 25 -22 57 -47 71
-55 15 -9 56 -37 92 -64 36 -26 82 -57 103 -68 22 -10 60 -34 85 -52 26 -18
62 -39 80 -46 17 -7 32 -16 32 -20 0 -4 37 -36 83 -71 45 -35 115 -87 155
-114 41 -28 131 -80 200 -117 70 -37 159 -83 199 -102 44 -22 104 -40 160 -50
48 -8 135 -19 193 -25 58 -6 125 -18 150 -26 25 -8 53 -20 62 -25 10 -6 26
-10 37 -10 10 0 22 7 25 16 3 9 6 24 6 35 0 11 -16 45 -35 75 -19 30 -35 61
-35 68 0 8 -8 29 -17 48 -10 18 -20 35 -23 38 -3 3 -20 27 -38 54 -18 27 -32
53 -32 58 0 4 -14 27 -31 51 -17 23 -37 56 -45 72 -7 17 -18 37 -24 45 -5 8
-34 67 -64 130 -30 63 -69 153 -87 200 -18 47 -36 90 -40 95 -4 6 -12 27 -17
47 -9 34 -8 38 8 38 10 0 31 -5 47 -11 15 -6 55 -15 88 -20 33 -5 71 -13 85
-18 14 -5 68 -17 120 -26 52 -10 122 -30 155 -45 33 -15 74 -30 90 -34 17 -4
44 -14 60 -21 17 -8 89 -25 160 -38 72 -14 155 -33 185 -42 30 -9 82 -20 115
-25 33 -5 78 -15 100 -23 22 -8 74 -20 115 -26 41 -6 102 -17 134 -23 33 -6
109 -29 170 -50 61 -22 127 -43 146 -47 19 -4 44 -12 55 -18 11 -6 56 -11 100
-12 44 -1 125 -8 180 -17 55 -8 119 -12 142 -8 23 3 47 12 52 18 6 7 7 24 3
40 -6 22 -19 32 -67 50 -33 13 -98 33 -145 46 -47 13 -101 30 -120 38 -19 8
-44 18 -55 23 -11 4 -45 19 -75 34 -30 14 -75 37 -100 51 -25 13 -61 35 -80
48 -19 13 -53 35 -76 49 -22 14 -47 31 -55 39 -8 7 -34 29 -59 48 -25 19 -107
88 -182 153 -76 65 -138 122 -138 126 0 5 -19 26 -41 47 -23 22 -66 64 -96 94
-29 30 -79 89 -111 130 -31 41 -71 92 -89 112 -18 20 -41 54 -53 75 -11 21
-24 45 -29 53 -5 8 -22 38 -38 65 -16 28 -46 88 -66 135 -20 47 -45 104 -57
127 -11 23 -20 48 -20 56 0 7 -3 17 -7 21 -4 3 -13 23 -20 44 -8 20 -22 64
-32 97 -10 33 -25 74 -34 90 -8 17 -22 53 -31 80 -9 28 -23 85 -31 127 -8 43
-22 94 -30 115 -9 20 -25 73 -36 117 -11 45 -31 114 -45 155 -13 40 -35 119
-48 175 -14 55 -32 153 -40 216 -8 63 -23 180 -32 260 -12 109 -15 185 -10
308 4 90 11 187 16 215 4 29 13 88 20 132 6 44 15 103 20 130 6 28 19 95 31
150 12 55 25 124 30 153 5 29 15 71 23 95 8 23 17 56 21 72 5 17 9 35 11 40 1
6 8 26 15 45 7 19 23 58 36 87 13 28 23 61 23 72 0 11 4 22 9 26 5 3 13 20 16
38 4 17 13 46 20 62 7 17 19 45 26 64 8 19 23 53 35 75 11 23 31 61 44 86 12
25 26 52 31 60 5 8 29 57 54 107 25 51 45 98 45 106 0 7 4 17 9 22 5 6 21 39
35 75 15 36 43 109 62 163 19 53 45 121 58 150 13 28 36 81 51 117 15 36 33
79 41 95 7 17 23 54 34 84 12 30 33 80 46 110 14 31 44 92 66 136 23 44 62
109 87 145 25 35 51 72 56 81 6 9 24 36 42 60 18 24 49 68 69 96 21 29 45 61
53 70 9 10 32 38 51 63 19 24 56 67 82 95 26 28 69 79 95 113 26 34 75 97 108
139 32 43 80 103 106 133 25 30 78 100 117 155 40 55 78 107 85 115 7 8 31 41
53 74 21 32 47 70 56 85 9 14 20 31 25 36 4 6 33 48 62 95 30 47 89 128 130
180 41 52 123 142 181 200 58 58 143 140 190 182 47 42 103 92 125 111 23 19
55 36 76 40 36 5 36 5 90 -80 30 -47 66 -100 80 -117 14 -17 31 -46 39 -64 9
-24 27 -40 67 -59 30 -15 70 -45 89 -67 19 -23 41 -48 48 -56 7 -8 25 -34 39
-57 15 -23 53 -70 84 -104 50 -52 68 -64 127 -83 55 -18 79 -21 115 -14 25 4
71 15 101 24 30 9 118 37 195 61 77 25 172 63 210 84 39 22 79 47 90 57 11 9
35 36 53 58 17 23 32 45 32 50 0 4 6 15 14 23 8 9 25 53 40 98 22 73 24 88 15
145 -7 45 -17 69 -34 86 -14 12 -54 29 -94 39 -59 14 -67 19 -53 28 9 7 59 29
111 49 52 21 117 46 145 56 28 10 87 33 131 50 44 17 125 47 180 66 55 20 129
52 165 72 36 20 79 43 95 52 17 9 64 42 104 75 40 32 102 96 138 142 36 46 75
102 87 126 12 23 35 65 51 92 15 28 32 57 37 65 4 8 19 51 34 95 14 44 34 132
46 195 16 93 19 140 14 245 -4 95 -12 156 -31 225 -14 52 -39 121 -55 153 -16
32 -50 84 -74 116 -25 32 -87 98 -138 146 -51 48 -109 99 -128 114 -19 14 -59
49 -89 78 -51 48 -54 54 -42 75 6 13 21 40 32 60 10 21 31 73 45 115 19 56 27
103 29 173 2 55 -3 128 -10 170 -8 41 -22 100 -30 130 -9 30 -28 82 -43 115
-15 33 -53 110 -84 172 -31 61 -74 136 -94 164 -20 29 -62 89 -92 134 -30 44
-63 87 -72 97 -9 9 -35 38 -56 64 -21 26 -64 73 -95 103 -31 31 -75 72 -99 91
-23 19 -95 70 -159 113 -64 44 -156 98 -205 123 -48 24 -93 47 -100 52 -6 5
-32 17 -58 27 -27 10 -48 21 -48 25 0 4 24 26 53 49 30 22 72 62 94 89 22 26
57 73 76 104 20 31 55 92 78 135 23 43 45 80 49 83 4 3 25 32 48 65 22 33 56
94 75 136 19 42 48 116 65 165 18 54 35 131 42 194 7 60 9 138 5 185 -4 44
-14 105 -22 135 -7 30 -25 77 -39 104 -14 26 -23 51 -19 54 3 4 52 14 108 23
56 10 140 20 187 24 47 3 126 15 175 26 50 12 95 24 100 28 6 4 26 14 45 21
19 8 69 38 110 68 41 29 97 74 124 100 27 26 67 72 90 102 22 30 44 57 47 60
3 3 19 25 35 50 15 25 36 59 45 75 9 17 31 58 49 93 17 34 45 99 61 144 23 65
32 113 43 244 8 92 13 222 10 296 -2 73 -9 153 -14 178 -6 25 -19 99 -29 165
-11 66 -29 155 -40 198 -11 43 -24 84 -29 90 -5 7 -13 23 -17 37 -4 14 -29 68
-55 121 -27 53 -68 117 -92 142 -24 25 -83 77 -131 114 -48 38 -109 79 -135
92 -26 13 -63 33 -82 43 -19 10 -60 31 -90 45 -30 14 -64 29 -75 33 -11 4 -60
27 -110 50 -49 24 -107 55 -127 69 -21 14 -38 29 -38 32 0 3 35 31 78 62 43
31 103 83 133 115 30 32 61 67 69 78 9 10 25 42 38 71 12 29 27 86 34 128 10
67 10 82 -6 128 -10 29 -32 76 -48 106 -17 30 -36 61 -44 69 -8 7 -14 18 -14
23 0 5 -35 46 -77 90 -43 45 -119 112 -169 150 -51 38 -112 79 -135 92 -24 14
-78 38 -119 55 -41 17 -106 40 -145 51 -38 11 -117 29 -175 40 -58 11 -175 25
-260 31 -85 7 -247 10 -360 7 -113 -2 -250 -9 -305 -16 -55 -6 -147 -19 -205
-27 -58 -9 -132 -20 -165 -24 -33 -5 -91 -16 -130 -25 -38 -9 -101 -22 -140
-30 -38 -7 -124 -27 -190 -45 -66 -17 -165 -42 -220 -54 -55 -13 -165 -40
-245 -60 -80 -20 -183 -48 -230 -61 -47 -14 -91 -25 -97 -25 -7 0 -40 -9 -74
-21 -33 -12 -80 -32 -102 -45 -23 -13 -48 -24 -54 -24 -7 0 -13 9 -13 19 0 11
-9 39 -20 63 -11 24 -30 61 -43 82 -12 22 -69 88 -127 146 -58 59 -137 128
-176 153 -40 26 -77 54 -84 62 -7 8 -19 15 -26 15 -8 0 -31 10 -52 23 -20 13
-80 44 -132 70 -52 25 -133 62 -180 82 -46 19 -90 35 -97 35 -7 0 -34 10 -61
23 -26 12 -74 29 -107 36 -33 7 -69 17 -80 21 -11 5 -42 13 -70 19 -27 6 -66
13 -85 16 -19 3 -48 10 -65 15 -16 5 -93 19 -170 30 -101 16 -202 23 -365 25z
m-20 -91 c113 -2 250 -9 305 -15 55 -6 152 -22 215 -35 63 -12 135 -26 160
-30 25 -3 68 -15 95 -25 28 -11 58 -19 67 -19 10 0 60 -16 110 -36 51 -20 120
-47 153 -61 33 -14 98 -45 145 -68 47 -23 102 -52 123 -64 20 -11 54 -30 75
-42 20 -12 60 -37 87 -57 28 -19 76 -57 107 -84 32 -28 86 -84 122 -126 35
-43 75 -100 90 -129 20 -40 26 -67 26 -116 0 -36 5 -68 12 -75 7 -7 21 -12 32
-12 11 0 29 9 40 19 12 10 53 35 91 55 39 20 115 50 170 67 55 17 127 39 160
49 33 10 101 28 150 40 50 11 133 32 185 46 52 14 149 38 215 54 66 16 152 36
190 44 39 9 90 20 115 25 25 6 70 15 100 21 30 6 78 18 106 26 28 8 66 14 85
14 19 0 71 7 115 15 45 8 133 17 195 21 63 3 134 10 159 14 25 5 140 7 255 6
116 -2 253 -8 305 -14 52 -6 113 -14 135 -17 22 -4 82 -16 134 -27 51 -11 146
-42 210 -69 77 -33 140 -68 186 -104 39 -30 86 -65 106 -79 20 -14 62 -53 92
-88 31 -35 74 -89 96 -121 23 -32 48 -71 56 -87 9 -17 15 -56 15 -97 0 -41 -7
-90 -18 -120 -10 -28 -30 -68 -44 -89 -14 -22 -46 -60 -71 -85 -25 -25 -72
-63 -104 -83 -32 -21 -80 -52 -108 -70 -40 -25 -51 -37 -53 -61 -2 -26 3 -34
45 -61 26 -17 75 -45 108 -62 33 -17 90 -44 128 -61 37 -17 95 -44 130 -59 34
-16 78 -35 97 -42 19 -8 57 -27 83 -42 26 -15 52 -28 57 -28 6 0 10 -4 10 -9
0 -5 13 -16 29 -24 17 -8 49 -30 71 -48 23 -19 64 -56 90 -84 27 -27 59 -66
72 -85 13 -20 30 -51 39 -70 9 -19 24 -53 34 -75 10 -22 24 -60 32 -85 8 -25
21 -68 28 -96 8 -28 23 -109 34 -180 11 -71 24 -174 29 -229 6 -55 11 -146 11
-203 1 -57 -6 -150 -14 -207 -9 -57 -22 -126 -31 -154 -8 -28 -35 -94 -60
-148 -25 -54 -59 -117 -75 -141 -16 -24 -29 -45 -29 -48 0 -3 -24 -38 -54 -78
-29 -40 -83 -99 -119 -131 -36 -31 -81 -67 -99 -78 -18 -11 -60 -34 -93 -50
-33 -16 -91 -38 -130 -48 -38 -10 -99 -19 -135 -19 -35 0 -143 -9 -240 -20
-96 -12 -185 -23 -197 -26 -14 -3 -25 -14 -29 -31 -6 -22 0 -33 43 -72 32 -30
57 -65 72 -101 12 -30 27 -89 33 -130 5 -41 8 -115 5 -165 -3 -49 -15 -127
-26 -173 -12 -46 -31 -109 -43 -140 -11 -31 -23 -60 -27 -64 -3 -4 -7 37 -8
92 -2 54 -10 124 -18 156 -8 32 -28 86 -44 120 -16 34 -54 100 -84 146 -31 45
-97 126 -149 178 -51 52 -127 117 -168 145 -41 27 -84 57 -95 66 -11 10 -56
33 -100 53 -44 19 -114 42 -155 51 -41 9 -129 19 -195 21 -66 3 -154 1 -195
-5 -41 -5 -104 -17 -140 -25 -36 -9 -132 -36 -215 -60 -82 -24 -166 -50 -185
-57 -19 -6 -44 -15 -55 -19 -11 -4 -66 -22 -123 -40 -56 -17 -118 -34 -137
-37 -27 -4 -35 -2 -35 9 0 9 -11 48 -24 89 -13 41 -30 89 -37 107 -8 17 -17
32 -21 32 -4 0 -8 6 -8 13 0 8 -9 22 -20 32 -11 10 -20 22 -20 27 0 5 -6 16
-12 24 -7 9 -20 22 -28 29 -8 8 -36 30 -62 49 -27 20 -83 54 -127 76 -43 22
-81 40 -85 40 -4 0 -26 9 -49 19 -23 10 -73 22 -112 26 -38 4 -87 11 -108 17
-22 5 -141 9 -265 9 -125 0 -263 -5 -307 -11 -44 -7 -89 -13 -100 -15 -11 -2
-41 -8 -66 -14 -26 -6 -84 -22 -130 -36 -46 -14 -93 -30 -104 -35 -11 -5 -60
-25 -108 -45 -48 -19 -138 -61 -200 -91 -62 -31 -113 -55 -113 -53 -1 2 -10
-4 -20 -13 -11 -9 -32 -21 -47 -27 -21 -8 -29 -8 -31 2 -2 6 -11 37 -20 67 -9
30 -35 90 -59 132 -24 44 -69 105 -103 140 -34 35 -71 71 -83 80 -11 10 -39
29 -61 43 -22 14 -45 25 -52 25 -6 0 -19 6 -27 14 -9 7 -38 21 -66 30 -27 10
-102 29 -165 42 -96 21 -143 25 -285 25 -105 0 -206 -5 -265 -15 -52 -8 -131
-22 -175 -31 -44 -9 -93 -22 -110 -29 -16 -8 -55 -22 -85 -32 -30 -10 -59 -19
-65 -20 -5 -1 -41 -16 -80 -33 -38 -18 -95 -44 -125 -59 -30 -15 -90 -48 -134
-74 -43 -27 -118 -75 -165 -107 -47 -33 -124 -94 -171 -137 -47 -43 -96 -87
-109 -98 -14 -12 -44 -39 -68 -60 l-44 -39 -27 25 c-15 14 -79 50 -142 81 -63
30 -132 58 -153 62 -20 4 -40 11 -43 16 -3 5 -13 9 -22 9 -9 0 -28 6 -42 13
-14 8 -67 28 -118 45 -50 18 -132 41 -182 51 -49 11 -147 28 -217 37 -97 12
-167 15 -288 10 -88 -3 -180 -8 -205 -11 -25 -3 -92 -15 -150 -26 -58 -11
-118 -25 -135 -30 -16 -5 -79 -20 -140 -34 -60 -14 -132 -31 -160 -39 -27 -8
-95 -29 -150 -46 -55 -17 -124 -42 -153 -55 -29 -14 -57 -25 -62 -25 -5 0 -31
-10 -57 -21 -27 -12 -66 -30 -88 -40 -22 -10 -52 -22 -68 -28 -15 -6 -52 -27
-82 -46 -31 -19 -59 -35 -64 -35 -5 0 -27 -15 -49 -32 -22 -18 -79 -62 -127
-97 -47 -35 -105 -82 -128 -103 -23 -22 -46 -42 -52 -46 -5 -4 -61 -60 -122
-124 -62 -65 -113 -123 -113 -129 0 -7 -11 -26 -23 -43 -13 -17 -34 -62 -47
-101 -14 -43 -24 -97 -25 -140 -1 -57 3 -79 23 -118 15 -27 56 -75 95 -110 38
-34 87 -74 108 -88 21 -15 35 -29 32 -33 -4 -3 -14 -6 -24 -6 -10 0 -46 -12
-81 -27 -35 -14 -103 -53 -153 -86 -49 -33 -135 -97 -190 -143 -55 -45 -118
-101 -140 -123 -21 -23 -44 -41 -50 -41 -6 0 -34 24 -61 53 -28 28 -65 72 -81
97 -17 25 -40 65 -52 89 -13 23 -33 75 -46 115 -13 39 -49 166 -79 281 -30
116 -66 248 -80 295 -14 47 -40 130 -57 185 -29 92 -31 112 -33 250 -1 121 4
170 22 255 12 58 29 130 38 160 8 30 24 89 34 130 10 42 28 100 38 130 11 30
28 82 37 114 9 33 38 114 65 180 26 67 65 157 85 201 20 44 45 99 56 122 10
23 28 79 40 125 11 46 28 99 37 118 8 19 15 51 13 70 -1 19 -6 39 -12 46 -6 8
-20 9 -36 5 -18 -5 -30 -18 -37 -38 -6 -18 -14 -35 -18 -39 -4 -3 -40 13 -80
37 -40 24 -80 47 -88 51 -8 4 -53 34 -100 65 -61 42 -92 71 -110 103 -14 25
-36 72 -48 105 -12 33 -29 102 -37 153 -9 55 -13 113 -10 140 4 26 9 58 11 72
2 14 6 39 10 55 3 17 14 54 25 83 10 29 31 76 45 104 15 29 52 93 82 142 31
50 83 124 117 166 34 41 77 91 96 111 19 20 64 67 100 105 37 38 96 95 131
126 36 32 88 73 114 92 27 19 99 68 159 109 61 41 151 96 200 122 50 27 101
54 115 61 14 7 60 22 103 33 43 11 83 23 89 27 6 4 26 8 45 10 19 1 74 8 123
15 57 7 155 10 281 6 121 -3 245 -13 329 -27 74 -11 158 -25 185 -30 28 -5 91
-19 140 -30 50 -11 122 -29 160 -41 39 -11 104 -32 145 -46 41 -14 104 -40
140 -58 36 -19 77 -44 92 -57 14 -13 52 -42 82 -66 31 -24 56 -49 56 -56 0 -7
11 -23 25 -36 14 -13 46 -59 71 -102 39 -68 48 -78 72 -78 26 0 32 8 71 98 24
53 49 104 56 112 7 8 40 59 74 113 34 54 100 142 147 195 48 53 117 126 154
162 37 36 85 81 106 99 21 19 66 57 99 83 33 27 71 58 85 69 14 11 55 42 92
68 36 26 84 56 105 66 21 10 57 31 80 46 23 16 46 29 51 29 6 0 12 4 14 8 2 5
30 24 63 43 33 19 105 55 160 81 55 26 125 58 155 71 30 14 93 39 140 57 47
17 99 38 117 46 17 8 38 14 46 14 8 0 28 7 43 15 16 8 36 15 44 15 8 0 35 7
60 16 25 9 72 22 105 29 33 7 88 20 122 29 34 9 76 19 95 21 18 3 74 9 123 15
50 6 117 12 150 14 33 2 152 2 265 0z m-161 -3697 c91 -4 186 -11 210 -17 24
-6 55 -12 70 -14 14 -2 40 -7 56 -11 17 -3 53 -16 80 -27 28 -11 78 -33 111
-50 41 -20 87 -56 137 -107 43 -43 91 -104 111 -141 19 -36 42 -92 51 -125 8
-32 15 -76 15 -96 0 -23 7 -42 20 -54 18 -17 22 -16 92 23 40 22 100 54 133
72 33 18 78 43 100 55 22 13 85 42 140 65 55 23 114 48 130 55 17 7 48 18 70
25 22 7 50 16 62 21 12 4 60 17 107 28 47 11 136 25 197 31 62 6 185 11 275
11 90 0 174 -3 186 -6 13 -3 39 -7 58 -9 19 -3 67 -12 105 -20 39 -8 95 -24
125 -36 30 -12 82 -37 117 -56 34 -20 91 -63 127 -97 38 -38 75 -86 94 -123
17 -33 38 -88 46 -121 9 -34 16 -76 16 -94 0 -19 7 -42 15 -53 14 -18 16 -18
82 -1 37 10 122 35 188 57 66 21 129 43 140 48 11 5 67 23 125 41 58 17 128
38 155 46 28 8 111 28 185 44 123 28 147 30 270 26 98 -4 157 -11 210 -27 41
-11 106 -37 144 -57 38 -19 103 -58 145 -87 41 -28 112 -88 157 -134 45 -46
100 -109 121 -140 21 -31 41 -58 45 -60 3 -2 27 -45 52 -95 25 -51 49 -111 54
-133 5 -23 10 -83 11 -133 1 -57 -4 -115 -15 -157 -9 -36 -29 -94 -44 -128
-19 -41 -48 -81 -87 -118 -32 -31 -71 -67 -88 -80 -16 -12 -43 -32 -60 -44
-16 -11 -61 -33 -100 -48 -38 -15 -79 -31 -90 -36 -11 -5 -42 -15 -70 -24 -27
-8 -77 -21 -110 -29 -33 -8 -112 -25 -175 -37 -63 -12 -158 -30 -210 -41 -52
-11 -120 -24 -150 -30 -30 -6 -109 -24 -175 -41 -66 -16 -172 -41 -235 -54
-63 -14 -182 -35 -265 -48 -82 -14 -192 -30 -244 -36 -54 -7 -129 -9 -175 -6
-45 4 -106 12 -136 18 -30 5 -88 26 -127 45 -49 23 -93 54 -133 94 -33 33 -71
77 -84 97 -12 20 -39 78 -59 129 -20 50 -43 125 -51 165 -8 40 -20 106 -26
146 -6 41 -17 81 -25 89 -9 9 -23 12 -36 8 -11 -4 -28 -23 -37 -43 -9 -21 -36
-62 -59 -93 -23 -31 -95 -107 -160 -169 -65 -62 -149 -138 -187 -169 -38 -31
-98 -78 -134 -105 -36 -26 -102 -70 -147 -96 -44 -27 -128 -71 -186 -99 -58
-27 -123 -56 -145 -64 -21 -8 -73 -25 -114 -39 -41 -14 -100 -33 -130 -41 -30
-9 -95 -27 -145 -41 -49 -13 -101 -26 -115 -29 -14 -3 -106 -26 -205 -51 -99
-25 -214 -55 -255 -67 -41 -12 -100 -28 -130 -36 -30 -8 -74 -19 -98 -24 -24
-5 -47 -11 -52 -14 -4 -3 -70 -21 -147 -41 -76 -20 -183 -45 -238 -55 -55 -10
-156 -21 -225 -25 -80 -4 -157 -2 -215 5 -49 7 -134 25 -190 41 -55 16 -147
48 -205 70 -58 23 -126 54 -151 71 -25 16 -49 29 -52 29 -4 0 -46 28 -94 62
-48 35 -107 81 -132 103 -25 22 -96 90 -157 150 -60 61 -148 162 -195 225 -47
63 -106 147 -131 185 -25 39 -56 90 -70 115 -14 27 -31 46 -43 48 -13 2 -52
-24 -110 -73 -50 -42 -115 -92 -145 -113 -30 -20 -73 -50 -95 -67 -22 -16 -47
-34 -56 -40 -9 -5 -36 -23 -60 -39 -24 -16 -87 -57 -139 -91 -52 -34 -119 -76
-148 -93 -29 -18 -55 -32 -58 -32 -4 0 -51 -22 -105 -50 -54 -27 -151 -67
-216 -89 -65 -22 -163 -51 -218 -65 -55 -14 -142 -34 -193 -45 -51 -11 -158
-25 -237 -31 -80 -6 -167 -8 -193 -6 -26 3 -76 8 -112 10 -36 3 -128 17 -204
31 -77 14 -191 43 -255 64 -64 22 -147 52 -186 69 -38 16 -100 43 -136 60 -36
17 -71 37 -78 45 -10 12 -1 26 53 79 35 34 81 77 102 95 22 17 51 41 66 52 14
12 30 21 35 21 5 0 25 13 44 30 20 16 76 50 125 74 52 27 118 51 159 60 40 7
99 11 138 9 l67 -5 0 41 c0 31 -5 44 -22 55 -13 8 -63 32 -113 52 -49 21 -108
52 -131 69 -22 17 -57 50 -77 72 -20 22 -46 60 -57 84 -11 24 -20 55 -20 69 0
14 10 55 23 91 13 36 45 96 73 133 27 38 102 121 168 185 65 64 124 121 130
126 6 6 24 18 39 28 16 10 36 25 45 32 9 8 46 35 82 62 36 26 67 50 70 54 3 3
32 21 65 40 33 19 76 42 95 51 19 9 90 39 156 66 67 28 168 66 225 85 57 19
142 46 189 60 47 14 153 41 235 61 83 19 182 40 220 46 39 5 107 15 152 20 46
5 158 8 250 6 93 -2 180 -7 195 -10 16 -4 40 -8 55 -10 16 -2 46 -7 68 -11 22
-4 72 -16 110 -26 39 -9 122 -36 185 -59 63 -22 142 -50 175 -61 33 -11 102
-41 153 -65 66 -31 106 -58 134 -89 23 -25 49 -45 58 -45 10 0 36 17 57 38 22
20 89 82 149 137 59 55 115 107 124 115 8 8 34 30 57 48 22 17 45 32 50 32 6
0 18 9 28 20 10 11 44 35 74 52 31 18 62 37 68 44 7 7 42 26 78 44 35 17 67
36 70 41 4 5 14 9 24 9 10 0 55 18 99 40 44 22 89 40 100 40 12 0 23 4 26 9 3
5 18 11 33 13 16 3 71 17 123 31 52 14 132 29 178 33 45 3 85 11 89 17 4 6 64
8 172 4z m2150 -1822 c5 -2 11 -26 14 -53 3 -27 15 -78 27 -113 12 -35 44
-111 72 -169 43 -89 62 -116 127 -181 56 -55 91 -81 127 -93 27 -10 65 -26 84
-36 19 -10 58 -23 85 -29 28 -6 86 -12 130 -13 44 -1 123 1 175 3 52 3 118 10
145 16 28 6 104 21 170 32 66 12 145 26 175 32 30 6 109 25 175 41 66 17 141
34 167 39 27 4 52 10 57 13 5 3 64 17 132 31 68 14 147 30 174 36 28 5 77 14
110 19 33 5 76 14 95 19 19 6 85 22 145 36 61 15 119 30 130 35 11 4 40 16 65
25 25 9 79 34 120 56 l75 39 -71 -69 c-49 -47 -82 -71 -105 -76 -19 -3 -46
-11 -61 -17 -21 -8 -28 -17 -28 -37 0 -18 10 -32 33 -48 17 -12 113 -61 212
-109 99 -48 227 -118 285 -157 57 -38 116 -78 130 -89 14 -11 45 -39 70 -63
25 -23 74 -73 110 -111 36 -38 77 -87 92 -109 14 -22 51 -74 82 -115 31 -41
64 -92 73 -112 9 -21 20 -38 23 -38 4 0 12 -12 19 -27 7 -16 11 -29 9 -29 -1
-1 4 -10 13 -20 9 -11 35 -59 57 -109 22 -49 46 -103 52 -120 7 -16 18 -52 25
-80 7 -27 18 -84 24 -126 6 -42 9 -108 7 -145 -2 -43 -16 -107 -37 -168 -26
-79 -41 -107 -71 -137 -21 -20 -38 -42 -38 -48 0 -6 30 -39 68 -75 37 -35 103
-93 146 -130 43 -37 107 -93 141 -124 34 -31 84 -86 112 -122 28 -36 60 -85
71 -110 11 -26 31 -82 43 -125 19 -68 23 -106 23 -245 0 -91 -5 -192 -11 -225
-7 -33 -24 -93 -37 -133 -14 -40 -53 -126 -86 -190 -34 -64 -82 -143 -106
-174 -25 -32 -72 -83 -105 -115 -33 -32 -81 -70 -107 -85 -26 -15 -52 -32 -59
-37 -7 -6 -15 -11 -18 -11 -3 0 -22 -11 -43 -24 -21 -13 -89 -42 -152 -64 -63
-22 -189 -68 -280 -102 -91 -34 -211 -83 -268 -107 -56 -25 -114 -54 -128 -65
-14 -11 -24 -27 -22 -35 2 -8 21 -22 43 -30 22 -8 75 -23 118 -32 53 -11 84
-23 94 -36 10 -14 13 -38 11 -80 -3 -39 -13 -79 -31 -115 -15 -30 -34 -65 -41
-78 -8 -13 -29 -39 -47 -58 -18 -19 -58 -47 -88 -63 -31 -15 -84 -38 -118 -50
-35 -12 -93 -31 -130 -42 -38 -11 -84 -24 -103 -30 -19 -5 -60 -13 -90 -18
-40 -6 -69 -4 -105 6 -27 8 -65 29 -84 46 -18 18 -78 88 -133 156 -54 69 -115
135 -136 147 -20 12 -46 37 -56 56 -11 18 -41 60 -66 93 -25 33 -66 91 -90
128 -24 38 -39 71 -34 76 5 4 54 37 109 73 55 36 111 72 126 80 14 9 62 28
108 42 46 15 120 32 165 39 44 7 112 11 149 9 67 -4 69 -4 63 -28 -4 -13 -1
-34 5 -47 6 -12 20 -30 31 -40 10 -10 33 -24 51 -32 18 -7 60 -16 92 -20 44
-5 70 -2 97 9 21 9 44 28 51 44 8 15 12 33 10 40 -3 6 -10 12 -17 12 -8 0 -25
-9 -39 -20 -14 -11 -40 -20 -59 -20 -18 0 -50 5 -70 10 -20 6 -46 19 -59 28
l-22 18 46 96 c25 53 51 115 58 137 8 28 9 45 2 52 -6 6 -34 1 -84 -17 -41
-15 -80 -32 -87 -37 -7 -5 -15 -7 -18 -4 -3 3 15 34 40 69 26 34 51 74 56 87
8 17 7 28 0 35 -6 6 -39 9 -78 8 -66 -3 -68 -3 -109 37 -24 21 -43 42 -43 44
0 3 18 42 40 88 22 46 45 92 50 101 6 10 10 34 10 53 0 22 -5 35 -13 35 -8 0
-23 -10 -34 -22 -11 -13 -38 -61 -60 -108 -39 -83 -41 -86 -116 -132 -42 -25
-133 -71 -202 -102 -69 -30 -161 -65 -206 -76 -45 -11 -103 -20 -128 -19 -25
0 -66 8 -90 17 -24 9 -53 29 -64 43 -18 26 -19 29 -2 85 9 32 33 83 53 114 20
30 64 91 98 135 34 44 96 113 137 152 41 40 87 77 102 83 15 6 29 19 32 30 3
11 13 20 22 20 9 -1 34 -9 56 -20 22 -11 49 -19 60 -20 11 0 31 7 43 16 12 8
22 20 22 25 0 6 -26 21 -57 35 -32 14 -67 29 -78 34 -11 5 -31 12 -45 16 -14
3 -44 15 -66 26 -29 13 -43 27 -47 44 -2 14 2 46 9 71 8 26 14 59 14 74 0 15
-6 29 -12 31 -7 3 -55 -11 -108 -30 -52 -19 -125 -43 -162 -53 -36 -9 -77 -15
-90 -12 -12 3 -29 10 -35 16 -7 5 -13 24 -13 42 0 18 11 76 24 130 14 54 22
104 19 112 -3 8 -15 13 -27 11 -11 -2 -27 -16 -35 -32 -7 -16 -22 -53 -32 -82
-13 -36 -19 -81 -19 -136 0 -68 3 -85 20 -103 19 -20 19 -24 5 -56 -9 -19 -30
-57 -48 -86 -18 -29 -52 -73 -76 -98 -24 -25 -62 -60 -85 -79 -22 -18 -68 -44
-101 -58 -33 -15 -95 -32 -138 -38 -57 -8 -86 -9 -111 0 -22 7 -38 21 -45 38
-6 15 -24 88 -40 162 -16 74 -37 185 -45 245 -8 61 -17 131 -19 156 -3 37 1
55 24 95 16 27 56 104 90 171 46 92 60 129 55 148 -5 18 -13 25 -31 25 -16 0
-26 -7 -31 -22 -4 -13 -23 -57 -42 -98 -20 -41 -54 -106 -75 -145 -22 -38 -58
-87 -81 -108 -22 -20 -57 -45 -76 -54 -19 -9 -66 -25 -104 -35 -38 -10 -93
-18 -123 -18 -29 0 -70 7 -92 16 -22 8 -50 14 -63 12 -19 -2 -22 -8 -20 -33 2
-16 11 -36 20 -43 9 -7 35 -17 57 -23 23 -7 73 -9 117 -6 l76 6 16 -39 c9 -22
18 -55 21 -72 3 -18 9 -56 15 -83 6 -28 16 -96 23 -150 6 -55 11 -173 9 -262
l-2 -163 -50 -28 c-27 -16 -93 -38 -152 -51 -57 -12 -148 -34 -202 -47 -55
-14 -125 -27 -157 -31 -31 -3 -69 -3 -84 1 -20 5 -32 20 -50 60 -14 33 -39 65
-63 85 -22 17 -51 31 -65 31 -14 0 -39 -14 -58 -31 -19 -18 -66 -47 -105 -65
-56 -27 -95 -37 -185 -48 -63 -8 -142 -17 -176 -20 -63 -6 -63 -6 -80 27 -9
17 -20 50 -25 72 -5 22 -13 65 -19 95 -7 37 -17 61 -32 72 -14 11 -26 13 -33
7 -6 -5 -46 -14 -89 -19 -43 -5 -80 -8 -83 -5 -2 2 3 23 13 47 9 24 30 83 46
131 17 48 56 143 88 210 32 67 69 151 81 187 12 36 32 85 43 110 10 25 26 61
34 80 8 19 24 54 35 77 11 24 39 60 64 82 43 38 45 38 141 43 76 4 112 11 158
31 33 14 70 28 81 32 12 3 24 15 28 27 3 12 0 28 -6 35 -6 7 -18 13 -27 13 -9
0 -50 -13 -91 -30 -44 -17 -94 -29 -122 -30 -26 0 -50 5 -53 10 -3 6 -19 10
-36 10 -25 0 -29 4 -29 28 0 15 14 56 30 90 17 35 30 79 30 98 0 27 -4 34 -19
34 -11 0 -50 -7 -87 -16 -37 -8 -89 -15 -117 -16 -27 0 -54 5 -60 11 -7 7 3
35 31 93 23 46 51 100 63 121 12 20 18 44 15 52 -3 8 -17 15 -31 15 -15 0 -28
-7 -32 -17 -4 -10 -21 -38 -38 -63 -17 -25 -43 -75 -58 -113 -15 -37 -27 -83
-27 -102 0 -24 8 -41 25 -57 l25 -23 -41 -50 c-22 -28 -100 -111 -172 -185
-73 -74 -152 -150 -177 -167 -25 -18 -67 -40 -94 -49 -27 -9 -121 -31 -209
-49 -125 -25 -169 -30 -197 -23 -30 8 -39 17 -59 60 -13 28 -27 64 -32 82 -5
17 -9 128 -9 247 0 119 -5 231 -10 250 -9 30 -7 36 12 51 13 10 46 31 73 47
28 16 60 39 73 51 15 14 22 31 20 48 -3 23 -7 27 -33 24 -16 -2 -50 -17 -75
-32 -25 -16 -76 -48 -113 -71 -38 -23 -94 -50 -124 -61 -31 -10 -83 -18 -115
-18 -39 0 -75 7 -105 21 -25 11 -67 41 -94 66 l-48 44 -20 -20 c-12 -12 -21
-32 -21 -44 0 -15 15 -38 39 -60 22 -20 60 -46 84 -58 40 -20 44 -24 36 -48
-4 -14 -13 -55 -19 -91 -6 -36 -20 -96 -31 -135 -11 -38 -25 -81 -31 -95 -5
-14 -18 -40 -27 -59 -9 -19 -35 -55 -57 -80 l-42 -46 -82 -3 c-55 -3 -101 1
-143 12 -34 10 -75 22 -92 28 -16 5 -41 15 -55 21 -14 6 -67 38 -117 70 -56
36 -93 66 -93 76 0 9 3 26 6 39 5 16 14 22 34 22 18 0 47 15 82 44 29 24 67
61 83 81 17 21 31 48 31 59 1 12 -2 29 -7 39 -6 9 -16 17 -24 17 -7 0 -24 -15
-37 -32 -12 -18 -40 -50 -62 -70 -22 -21 -43 -38 -47 -38 -4 0 -9 10 -11 21
-2 12 -11 27 -20 33 -13 8 -23 8 -35 0 -10 -6 -19 -20 -21 -30 -2 -10 -15 -56
-28 -101 -22 -69 -31 -86 -66 -115 -23 -18 -55 -43 -71 -55 -17 -13 -40 -23
-51 -23 -12 0 -26 -4 -32 -8 -6 -4 -16 -16 -22 -27 -5 -11 -37 -30 -69 -42
-32 -12 -80 -24 -108 -28 -27 -3 -58 -8 -67 -11 -13 -4 -15 -11 -7 -36 5 -17
14 -35 20 -38 6 -4 27 -5 47 -4 20 2 48 7 62 10 13 3 48 17 77 30 29 14 55 29
58 35 4 5 18 9 33 9 15 -1 43 -11 63 -23 20 -12 71 -46 113 -74 42 -29 80 -53
85 -53 4 0 34 -29 67 -64 32 -36 86 -97 119 -136 33 -39 75 -91 94 -116 31
-42 32 -46 16 -58 -15 -11 -18 -29 -19 -97 -1 -73 -5 -93 -34 -154 -18 -38
-48 -85 -65 -104 -18 -18 -55 -51 -84 -72 -28 -21 -94 -59 -144 -84 -51 -25
-100 -51 -109 -59 -8 -7 -40 -23 -70 -35 -30 -13 -64 -32 -76 -42 -11 -10 -28
-19 -38 -19 -9 0 -26 -5 -37 -10 -10 -6 -58 -15 -107 -21 -48 -6 -93 -17 -101
-24 -12 -12 -12 -17 2 -39 14 -21 22 -24 52 -19 27 4 35 2 35 -10 0 -8 -27
-42 -60 -74 -40 -40 -87 -73 -147 -103 l-87 -44 -145 1 c-81 1 -172 -3 -204
-8 -45 -8 -64 -7 -90 5 -17 8 -58 17 -89 19 -31 3 -61 8 -66 11 -5 3 -30 46
-56 95 -25 50 -55 116 -67 148 -11 32 -32 87 -44 123 -13 36 -31 114 -40 173
-10 74 -16 182 -16 335 0 162 4 251 15 312 8 47 18 101 21 120 3 19 11 54 17
78 10 40 12 42 48 42 21 0 57 7 81 15 24 9 61 27 82 41 25 16 37 32 37 47 0
13 -5 28 -12 35 -7 7 -19 12 -28 12 -8 0 -35 -14 -59 -30 -25 -17 -56 -33 -69
-37 -13 -3 -48 0 -77 6 -29 7 -56 18 -58 25 -3 7 6 53 19 102 13 49 24 102 24
117 0 16 -5 37 -10 48 -6 10 -17 19 -25 19 -8 0 -36 -15 -62 -32 -26 -18 -59
-45 -72 -61 -13 -15 -43 -58 -67 -94 -24 -37 -44 -70 -44 -75 0 -4 -21 -28
-47 -53 -27 -26 -58 -51 -71 -56 -13 -5 -37 -9 -54 -9 -18 0 -51 10 -75 21
-26 13 -54 37 -67 58 -13 20 -30 42 -38 49 -9 7 -23 10 -32 6 -9 -3 -16 -15
-16 -25 0 -11 6 -35 14 -54 8 -18 33 -52 56 -74 23 -23 60 -46 81 -53 24 -7
39 -17 39 -27 0 -9 -14 -81 -30 -161 -17 -80 -39 -179 -51 -220 -11 -41 -32
-104 -46 -140 -14 -36 -45 -100 -69 -142 -24 -43 -44 -80 -44 -83 0 -4 -14
-24 -31 -45 -17 -21 -39 -42 -48 -45 -9 -4 -47 -9 -85 -10 -46 -3 -82 1 -105
11 -20 8 -58 29 -86 47 -27 17 -74 52 -103 77 -30 25 -69 68 -87 95 -18 28
-47 79 -65 115 -17 36 -29 74 -27 85 3 11 12 37 20 58 7 21 19 43 26 50 10 9
14 8 22 -5 5 -10 26 -22 47 -28 20 -5 56 -10 79 -10 23 0 48 3 57 6 9 3 16 16
16 29 0 12 -6 27 -12 32 -7 6 -37 10 -66 10 -29 1 -59 6 -67 13 -8 7 -15 18
-15 25 0 7 -11 24 -25 39 -13 14 -31 26 -39 26 -9 0 -27 -18 -41 -40 -14 -22
-35 -65 -46 -95 -11 -30 -29 -60 -40 -65 -10 -6 -19 -19 -19 -30 0 -11 -8 -35
-17 -54 -10 -22 -30 -42 -52 -52 -32 -15 -49 -16 -152 -6 -94 9 -131 17 -204
47 -48 20 -100 45 -114 56 -16 12 -34 16 -48 13 -18 -5 -23 -14 -23 -39 0 -31
4 -34 104 -84 76 -37 126 -54 180 -63 75 -11 76 -12 76 -41 0 -17 16 -64 36
-106 20 -42 52 -107 71 -146 19 -38 46 -106 61 -150 22 -69 26 -97 25 -200 0
-79 -5 -140 -16 -179 -9 -32 -28 -74 -42 -92 -14 -18 -42 -46 -62 -61 -20 -15
-52 -34 -72 -41 -20 -7 -54 -18 -76 -23 -22 -5 -60 -11 -83 -14 l-44 -6 8 43
c4 24 6 72 6 108 -1 35 -9 87 -18 115 -9 27 -20 57 -24 65 -4 8 -17 16 -28 18
-15 2 -25 -4 -34 -22 -9 -20 -8 -35 2 -68 8 -24 18 -49 23 -56 6 -7 7 -41 3
-80 -4 -37 -14 -77 -22 -89 -8 -13 -32 -32 -53 -43 -22 -11 -58 -22 -81 -26
-22 -4 -50 -14 -60 -23 -17 -14 -17 -20 -6 -61 7 -25 19 -66 26 -91 l13 -46
-47 -66 c-26 -36 -62 -79 -80 -95 -19 -16 -39 -31 -46 -34 -6 -2 -13 -16 -14
-31 -2 -15 3 -32 10 -38 8 -6 25 -9 38 -5 15 4 28 0 36 -9 7 -8 19 -15 28 -15
11 0 13 9 9 40 -3 27 -1 43 10 51 8 7 32 39 55 71 39 55 43 58 82 58 23 0 120
-9 216 -20 96 -11 196 -20 222 -20 26 0 69 -5 95 -11 27 -6 77 -18 113 -27 36
-8 72 -19 80 -23 8 -5 55 -27 105 -49 49 -23 98 -49 107 -57 10 -9 18 -19 18
-24 0 -4 -19 -31 -43 -61 -23 -29 -62 -82 -86 -118 -24 -36 -83 -117 -129
-180 -47 -63 -129 -158 -183 -211 -53 -53 -127 -117 -164 -143 -37 -27 -119
-73 -183 -103 -64 -31 -157 -71 -207 -90 -49 -19 -106 -39 -125 -44 -19 -6
-51 -14 -70 -19 -19 -5 -78 -18 -130 -30 -70 -15 -129 -21 -225 -20 -71 0
-153 5 -181 11 -29 6 -85 28 -125 48 -60 29 -86 50 -140 114 -37 43 -84 111
-104 153 -32 65 -37 88 -42 167 -5 75 -2 99 11 125 15 29 15 35 1 62 -11 22
-24 31 -53 35 -20 4 -50 11 -66 16 -16 5 -41 9 -56 9 -15 0 -29 3 -33 6 -3 4
-39 18 -79 31 -40 14 -109 46 -153 71 -46 27 -111 79 -155 122 -51 51 -86 96
-108 140 -17 36 -37 90 -43 120 -6 30 -17 89 -25 130 -7 41 -18 183 -25 315
-6 132 -8 276 -6 320 3 44 11 114 17 155 6 41 16 98 22 125 6 28 23 78 39 111
16 34 29 66 29 72 0 6 11 33 25 60 14 28 25 56 25 63 0 8 7 23 15 33 8 11 15
26 15 32 0 7 13 35 28 61 16 26 30 53 31 58 2 6 14 24 28 40 13 17 51 66 83
110 33 44 97 118 143 165 45 47 96 96 112 110 17 14 57 44 90 67 33 24 67 43
76 43 9 0 20 7 23 16 3 9 0 27 -6 41 -9 18 -56 47 -162 102 -100 50 -168 92
-204 126 -37 34 -64 70 -83 110 -15 33 -32 85 -38 115 -6 30 -12 105 -12 166
-1 77 6 143 21 220 12 60 35 149 51 197 16 49 31 98 33 110 2 12 11 36 20 52
9 17 16 38 16 47 0 9 18 55 39 101 22 47 58 117 80 157 23 40 44 82 47 95 3
13 14 31 25 41 10 9 19 21 19 26 0 5 21 39 47 76 26 37 64 88 85 113 21 26 38
51 38 55 0 5 12 20 26 33 14 14 42 45 62 70 20 25 52 64 72 86 19 23 71 86
115 140 44 54 104 124 132 155 l53 56 135 -66 c74 -37 181 -83 237 -102 57
-19 137 -44 178 -56 41 -11 111 -27 155 -35 44 -9 125 -22 180 -31 75 -12 145
-15 280 -11 119 3 214 11 280 24 55 11 134 29 175 40 41 11 104 27 140 36 36
9 126 39 200 65 74 26 180 72 235 101 55 28 118 62 140 73 22 12 92 56 157 99
64 42 123 84 131 92 9 8 18 15 22 15 3 0 36 20 73 45 37 25 104 73 150 108 45
35 95 71 111 80 l28 16 44 -62 c24 -34 48 -69 54 -79 5 -9 24 -35 40 -58 17
-23 69 -90 116 -148 48 -59 138 -157 200 -218 63 -61 157 -142 209 -180 52
-39 122 -86 155 -106 33 -19 81 -45 107 -57 26 -13 85 -36 130 -53 46 -16 106
-36 133 -44 28 -8 86 -24 130 -35 62 -16 114 -20 235 -21 85 0 175 2 200 6 25
4 56 8 70 11 14 2 47 6 74 10 27 3 72 13 100 21 28 9 64 20 80 25 15 5 32 6
38 3 5 -3 14 -1 21 4 7 5 23 12 37 16 14 4 78 18 143 31 65 14 123 28 129 31
6 4 49 17 97 30 47 13 111 30 141 39 30 9 64 18 75 20 11 3 43 9 70 15 28 6
66 17 85 25 19 7 57 16 83 19 27 3 54 9 60 13 7 5 37 13 67 20 30 6 71 16 90
21 19 5 60 17 90 26 30 8 96 29 145 46 50 17 117 42 150 56 33 14 74 32 92 40
18 8 35 19 38 24 3 6 13 10 22 10 9 0 73 34 142 77 69 42 140 87 156 100 17
14 43 34 58 46 16 12 39 31 51 42 12 11 60 54 107 95 46 41 113 101 147 135
35 33 77 79 93 103 17 23 34 40 38 37z m-2084 -2476 c6 1 10 -85 11 -238 0
-202 3 -249 18 -298 10 -32 30 -82 45 -112 19 -40 35 -57 61 -68 26 -11 54
-14 105 -9 39 3 134 19 212 35 94 19 164 40 210 62 54 26 96 61 200 163 112
109 135 127 148 116 8 -7 25 -10 40 -6 14 4 25 13 25 20 0 8 -7 22 -16 31 -15
15 -15 18 2 38 10 12 31 36 47 54 24 25 28 37 22 61 l-6 30 78 9 c43 6 79 10
80 9 1 -1 -7 -26 -18 -56 -10 -30 -19 -76 -19 -102 0 -41 -6 -56 -39 -98 -22
-28 -43 -59 -46 -70 -4 -11 -11 -20 -16 -20 -5 0 -9 5 -9 10 0 6 -8 10 -19 10
-10 0 -24 -6 -30 -14 -9 -10 -6 -19 12 -36 l24 -23 -39 -79 c-21 -43 -38 -88
-38 -100 0 -12 -31 -84 -70 -162 -38 -78 -90 -196 -115 -263 -25 -67 -45 -125
-45 -128 0 -4 -11 -30 -24 -58 -13 -29 -30 -74 -39 -102 -8 -27 -25 -75 -37
-105 -12 -30 -26 -68 -31 -85 -5 -16 -12 -50 -15 -75 -3 -25 -10 -49 -14 -55
-4 -5 -17 -59 -29 -120 -11 -60 -29 -159 -40 -220 -11 -60 -25 -153 -31 -205
-6 -52 -8 -117 -5 -145 3 -27 16 -106 29 -175 13 -69 29 -151 36 -184 6 -32
31 -97 56 -145 24 -47 50 -93 57 -102 6 -8 38 -36 69 -61 31 -26 79 -56 105
-68 26 -12 71 -30 98 -40 28 -10 82 -25 120 -34 39 -8 106 -16 150 -17 44 -1
124 6 178 15 54 10 128 28 165 41 37 13 87 33 112 44 25 12 63 31 85 44 22 12
76 44 120 70 44 26 103 64 130 83 28 19 76 61 108 92 32 31 63 67 70 79 7 12
33 52 58 90 25 37 58 100 73 138 15 39 32 78 37 87 5 10 9 23 9 29 0 7 13 39
28 73 16 34 35 84 42 111 7 28 16 55 20 60 4 6 17 39 30 75 13 36 27 81 31
100 4 19 21 87 38 150 16 63 37 169 46 235 9 75 15 199 15 335 l0 217 30 -5
c17 -2 47 4 73 17 24 12 46 21 49 21 4 0 10 -24 13 -52 4 -29 14 -68 23 -87
10 -19 33 -42 52 -53 19 -10 49 -18 66 -18 18 0 69 7 115 16 59 11 111 29 174
62 66 35 107 65 158 117 38 38 82 90 98 114 27 42 29 43 29 18 0 -15 5 -27 10
-27 6 0 10 -4 10 -8 0 -4 -14 -16 -31 -26 -26 -15 -30 -23 -27 -54 3 -31 9
-40 43 -59 22 -13 50 -23 62 -23 12 0 25 5 29 12 4 7 -8 23 -29 41 -21 16 -34
33 -31 38 3 5 16 9 29 9 13 0 25 6 28 13 2 6 0 20 -5 30 -5 9 -16 17 -25 17
-15 0 -15 2 0 18 10 10 17 26 17 36 0 9 -13 22 -29 29 l-28 12 21 45 c20 43
23 45 91 61 39 9 95 25 126 36 l57 19 7 -60 c3 -34 12 -70 19 -81 8 -11 32
-29 54 -40 l40 -20 -34 -20 c-19 -11 -70 -56 -115 -100 -45 -44 -113 -123
-153 -176 -40 -52 -87 -127 -106 -165 -18 -38 -37 -78 -41 -89 -4 -11 -10 -38
-12 -60 -3 -23 2 -54 10 -72 9 -19 33 -43 59 -58 24 -14 74 -35 110 -46 60
-19 74 -20 128 -9 34 6 95 23 136 37 41 14 94 34 118 44 24 11 45 19 47 19 2
0 -2 -12 -10 -26 -10 -19 -11 -34 -3 -54 5 -16 16 -34 24 -41 7 -6 21 -9 29
-5 8 3 15 13 15 22 0 13 3 14 15 4 8 -7 22 -10 30 -6 8 3 15 16 15 28 0 13 9
29 20 36 11 7 20 21 20 31 0 10 -7 24 -15 31 -8 6 -23 9 -34 5 -11 -3 -23 -14
-26 -25 -5 -16 -10 -17 -35 -7 l-30 11 63 31 c34 16 84 43 110 59 l48 29 37
-35 c20 -19 49 -42 64 -51 15 -9 39 -17 53 -17 14 0 25 -5 25 -11 0 -6 -15
-39 -34 -72 -18 -34 -32 -73 -31 -87 1 -22 7 -25 41 -28 24 -2 59 5 88 18 27
11 51 18 54 16 2 -3 -3 -21 -12 -41 -16 -32 -21 -36 -45 -30 -16 3 -73 6 -127
7 -61 1 -128 -6 -174 -16 -41 -10 -110 -28 -152 -41 -57 -17 -109 -44 -195
-101 -65 -43 -161 -112 -213 -153 -52 -41 -115 -90 -138 -109 -24 -19 -133
-123 -241 -231 -109 -108 -218 -221 -243 -251 -25 -30 -83 -111 -130 -180 -46
-69 -88 -132 -92 -140 -4 -8 -12 -24 -19 -36 -7 -11 -30 -42 -53 -70 -22 -27
-57 -74 -77 -105 -20 -31 -46 -64 -57 -74 -11 -10 -20 -23 -20 -29 0 -6 -32
-49 -71 -96 -39 -47 -96 -119 -127 -160 -30 -41 -58 -77 -61 -80 -3 -3 -18
-21 -32 -40 -15 -19 -39 -48 -54 -64 -15 -17 -57 -66 -94 -110 -36 -45 -71
-85 -77 -91 -6 -5 -31 -39 -55 -75 -24 -36 -57 -83 -74 -105 -16 -22 -34 -48
-40 -57 -5 -9 -28 -44 -50 -77 -22 -34 -57 -84 -77 -113 -21 -28 -38 -56 -38
-61 0 -5 -18 -46 -39 -91 -22 -44 -51 -114 -65 -154 -14 -40 -34 -92 -45 -115
-11 -23 -37 -82 -59 -132 -22 -49 -49 -117 -62 -150 -12 -33 -33 -87 -47 -120
-13 -33 -28 -69 -33 -80 -5 -11 -21 -49 -36 -85 -14 -35 -80 -173 -145 -305
-65 -132 -119 -250 -119 -261 0 -11 -4 -24 -9 -29 -5 -6 -29 -68 -53 -140 -25
-71 -54 -165 -66 -207 -12 -43 -22 -88 -22 -101 0 -12 -7 -47 -15 -77 -9 -30
-22 -93 -30 -139 -8 -46 -17 -91 -19 -100 -3 -9 -8 -41 -11 -71 -4 -30 -11
-84 -16 -120 -6 -36 -14 -96 -19 -135 -5 -38 -9 -157 -10 -262 0 -106 4 -223
10 -260 5 -38 19 -138 30 -223 12 -86 27 -180 35 -210 7 -30 21 -84 30 -120 9
-36 31 -112 50 -170 19 -58 40 -129 46 -157 6 -29 15 -55 20 -59 5 -3 9 -20 9
-38 0 -18 3 -36 7 -40 4 -4 13 -28 20 -54 7 -26 12 -58 13 -73 0 -14 4 -29 8
-35 5 -5 15 -29 22 -54 7 -25 22 -67 33 -95 11 -27 30 -73 42 -101 13 -27 30
-72 40 -100 9 -27 27 -71 39 -99 13 -27 42 -90 65 -140 23 -49 59 -115 79
-145 20 -30 55 -80 77 -110 22 -30 42 -57 45 -60 3 -3 16 -21 29 -40 14 -19
33 -44 43 -55 10 -11 71 -76 136 -144 64 -69 135 -143 157 -165 23 -23 63 -61
90 -86 28 -25 68 -59 90 -75 22 -16 70 -55 107 -85 37 -31 87 -66 112 -79 25
-12 46 -27 46 -32 0 -5 9 -9 20 -9 11 0 20 -4 20 -10 0 -5 19 -19 43 -31 23
-12 76 -39 117 -60 68 -34 72 -38 43 -38 -18 -1 -56 8 -85 20 -29 11 -91 33
-138 49 -47 15 -105 32 -130 38 -25 6 -79 16 -120 22 -41 6 -95 15 -120 20
-25 5 -126 28 -225 50 -99 22 -214 48 -255 57 -41 9 -106 27 -144 39 -38 13
-74 28 -80 33 -6 5 -38 18 -71 30 -33 11 -107 30 -165 42 -58 12 -134 27 -170
35 -36 8 -83 18 -105 23 -22 5 -62 16 -90 23 -27 8 -60 12 -73 10 -12 -2 -27
-12 -32 -23 -9 -15 -5 -28 18 -62 15 -23 36 -58 44 -77 9 -19 46 -96 81 -170
35 -75 68 -147 72 -160 4 -13 23 -54 41 -91 19 -37 34 -70 34 -72 0 -3 18 -33
41 -67 22 -33 71 -121 110 -194 38 -73 69 -136 69 -139 0 -3 -9 -4 -21 -2 -11
2 -28 6 -37 9 -9 3 -39 6 -67 6 -27 1 -84 6 -125 12 -41 5 -100 17 -130 25
-30 9 -62 19 -70 23 -8 4 -49 24 -90 45 -41 21 -120 61 -175 90 -55 28 -128
69 -161 91 -34 21 -125 86 -203 144 -77 58 -187 134 -243 170 -57 35 -150 102
-208 149 -58 46 -109 89 -115 95 -5 6 -23 20 -40 30 -16 11 -57 43 -91 73 -35
30 -71 53 -84 53 -15 0 -61 -38 -145 -122 -67 -68 -157 -152 -200 -188 -42
-36 -90 -74 -105 -85 -15 -11 -65 -46 -111 -77 -46 -32 -124 -94 -174 -139
-49 -45 -119 -105 -155 -133 -36 -28 -89 -69 -118 -89 -30 -21 -63 -43 -75
-48 -12 -5 -49 -25 -82 -44 -33 -19 -85 -46 -115 -60 -30 -13 -62 -29 -70 -35
-8 -5 -39 -21 -68 -35 -29 -14 -57 -25 -62 -25 -6 0 -10 7 -10 15 0 8 11 48
25 90 14 41 43 112 64 157 21 46 41 90 44 98 4 8 19 36 34 62 16 25 51 84 80
130 28 45 64 101 80 123 15 22 56 90 91 150 35 61 77 138 94 173 17 34 35 65
40 68 4 3 8 14 8 24 0 10 -14 30 -31 44 -30 25 -33 26 -142 20 -71 -4 -159
-17 -242 -37 -114 -26 -156 -31 -345 -38 -192 -6 -225 -10 -310 -34 -52 -15
-104 -29 -115 -30 -11 -2 -60 -10 -110 -20 -49 -9 -112 -23 -139 -31 -26 -8
-63 -14 -81 -14 -18 0 -68 -7 -111 -15 -44 -8 -91 -16 -106 -19 -15 -3 -32 -7
-38 -11 -5 -3 -10 -2 -10 4 0 6 21 25 46 43 26 18 124 110 219 203 95 94 206
211 246 261 41 50 88 109 104 130 17 21 38 52 49 69 10 16 47 64 82 106 35 43
64 81 64 87 0 5 17 29 38 53 22 24 50 60 63 80 13 19 46 69 74 110 27 41 57
88 66 104 8 17 40 73 70 125 31 52 68 115 85 140 16 25 40 66 54 91 14 26 56
107 94 180 38 74 76 145 86 159 9 14 35 63 57 110 23 47 58 123 78 170 20 47
47 117 60 155 12 39 30 95 39 125 9 30 23 87 32 125 9 39 18 84 21 100 3 17 9
35 14 41 5 6 18 62 29 125 11 63 22 123 25 134 2 11 19 76 35 145 17 69 47
192 65 273 19 82 40 185 46 230 6 45 15 154 19 242 5 88 7 277 5 420 -2 177
-8 289 -19 350 -8 50 -20 108 -26 130 -6 22 -22 74 -36 115 -14 41 -51 129
-83 195 -36 73 -96 171 -153 248 -51 71 -110 152 -131 180 -21 29 -45 63 -54
77 -10 14 -59 81 -110 150 -58 78 -125 155 -180 204 -48 44 -167 159 -263 256
-96 97 -370 374 -607 617 -240 244 -456 456 -485 476 -29 19 -73 47 -97 63
-25 16 -65 41 -90 56 -25 16 -86 48 -136 72 -49 25 -122 56 -161 71 -39 14
-86 28 -105 31 -19 3 -54 7 -79 10 -25 2 -90 9 -145 15 -55 7 -107 13 -115 15
-8 1 -30 3 -48 3 -30 1 -31 3 -20 21 10 15 10 25 2 38 -6 9 -19 18 -28 20 -9
2 -24 -2 -32 -9 -9 -8 -14 -23 -11 -37 5 -24 3 -24 -41 -18 -24 3 -57 6 -72 6
-23 0 -31 7 -44 40 -9 22 -16 49 -16 59 0 13 11 23 33 30 17 6 88 15 157 20
69 5 137 14 150 19 14 6 52 20 85 33 33 12 84 43 113 67 30 25 65 62 79 83 14
22 34 74 44 116 11 48 18 117 19 177 0 74 -6 118 -21 170 -12 39 -31 96 -42
126 -11 30 -34 82 -50 115 -17 33 -45 97 -63 143 l-32 82 31 0 c18 0 50 5 71
10 22 5 59 22 82 39 l43 30 14 -22 c8 -12 17 -32 21 -45 5 -16 3 -29 -8 -41
-9 -10 -14 -25 -10 -35 3 -9 14 -17 23 -18 9 0 23 -1 31 0 8 0 42 -26 77 -59
35 -32 88 -77 118 -99 30 -22 58 -40 63 -40 5 0 15 -7 22 -15 6 -8 37 -22 68
-31 41 -12 78 -15 130 -11 50 4 83 12 108 28 20 12 56 49 80 82 24 32 44 63
44 67 0 4 18 40 41 81 22 41 54 110 70 154 17 44 34 96 39 115 6 19 14 64 20
100 6 36 22 115 36 175 14 61 27 120 30 133 3 15 17 29 38 37 19 8 51 32 72
53 22 21 46 47 54 58 8 11 31 40 51 64 19 25 44 60 54 78 11 17 23 32 27 32 4
0 8 -6 8 -14 0 -8 -5 -18 -11 -22 -8 -4 -10 -31 -6 -78 4 -64 8 -73 36 -96
l31 -26 -14 -60 c-8 -32 -24 -106 -35 -164 -17 -87 -20 -146 -21 -340 0 -129
4 -260 10 -290 5 -30 12 -71 14 -90 2 -19 8 -53 14 -75 5 -22 23 -82 40 -133
18 -50 45 -120 62 -155 16 -34 36 -73 44 -87 9 -14 29 -56 46 -95 18 -38 43
-92 56 -118 14 -27 44 -73 67 -102 23 -29 52 -68 64 -87 12 -18 38 -56 58 -85
19 -29 44 -57 55 -63 11 -6 20 -17 20 -24 0 -7 13 -31 29 -52 17 -22 49 -64
73 -94 24 -30 88 -100 144 -156 55 -56 121 -114 145 -130 24 -16 58 -36 74
-44 17 -9 68 -31 115 -50 47 -18 94 -36 105 -41 11 -4 61 -15 110 -23 50 -9
117 -19 150 -23 33 -4 109 -7 168 -6 60 1 139 6 175 13 37 6 81 16 97 22 17 5
49 19 73 31 24 12 84 64 141 122 58 60 113 129 134 166 19 35 47 102 60 149
14 47 33 137 42 200 17 115 17 116 -9 325 -14 116 -30 244 -35 285 -5 41 -19
125 -31 185 -12 61 -28 141 -37 179 -8 39 -39 131 -68 205 -30 75 -65 159 -79
188 -14 28 -44 82 -66 119 -23 36 -77 112 -120 168 -44 55 -93 117 -110 138
l-30 36 66 47 67 46 76 -20 c43 -12 113 -21 161 -22 61 -2 94 2 116 14 16 8
48 35 70 60 21 24 49 57 61 73 12 16 35 71 52 124 16 52 38 127 49 165 12 39
21 62 21 52 1 -10 11 -21 24 -26 13 -5 27 -5 35 1 6 6 12 21 12 34 0 12 -7 30
-16 38 -11 12 -20 13 -34 6 -15 -8 -18 -7 -14 3 2 7 0 25 -5 39 l-9 25 76 6
c42 4 102 15 132 26 30 11 60 20 65 20z m-1177 -439 c3 0 21 -12 40 -26 23
-18 30 -29 22 -34 -9 -6 -9 -13 -1 -29 7 -11 18 -21 27 -21 8 0 17 -8 21 -17
3 -10 13 -26 21 -35 8 -10 24 -18 35 -18 11 0 28 6 37 13 9 6 5 2 -10 -10 -14
-12 -34 -31 -46 -42 l-20 -20 -38 26 c-30 22 -36 31 -31 51 3 13 3 32 0 43 -4
10 -15 19 -26 19 -10 0 -24 -9 -31 -19 -12 -19 -13 -19 -60 7 -26 15 -48 30
-48 33 0 3 17 15 39 27 21 12 44 29 51 37 7 8 15 15 18 15z m3896 -133 c6 -2
14 -17 18 -33 5 -16 11 -48 13 -71 3 -35 0 -45 -16 -54 -14 -7 -19 -18 -17
-37 2 -22 8 -27 31 -27 21 1 27 -4 27 -20 0 -19 -6 -21 -47 -21 -45 1 -48 -1
-51 -27 -3 -23 1 -28 28 -33 29 -6 30 -8 14 -25 -10 -11 -13 -25 -9 -38 4 -14
15 -21 30 -21 13 0 30 9 38 20 8 11 17 17 20 13 4 -3 7 -12 7 -19 0 -7 -19
-15 -42 -19 -24 -4 -56 -13 -71 -20 -21 -11 -29 -11 -32 -2 -2 7 -6 36 -10 65
-3 29 -8 59 -11 67 -4 9 0 15 10 15 8 0 18 11 22 24 3 14 3 30 -1 36 -4 6 -18
15 -31 20 -14 6 -24 18 -24 29 0 11 -9 40 -20 66 -11 26 -20 48 -20 50 0 2 13
6 28 10 15 3 46 17 67 30 22 13 44 23 49 22z m-3489 -587 c3 0 25 -43 50 -95
25 -52 45 -100 45 -107 0 -7 6 -24 13 -38 7 -14 21 -50 30 -80 9 -30 28 -109
41 -175 14 -66 34 -181 45 -255 11 -74 22 -169 26 -210 3 -41 12 -104 18 -140
7 -36 11 -114 10 -174 -1 -71 -9 -141 -24 -205 -12 -53 -35 -123 -52 -156 -16
-33 -56 -92 -88 -132 -33 -39 -84 -93 -114 -120 -30 -27 -76 -57 -102 -66 -27
-10 -87 -22 -133 -27 -47 -5 -125 -10 -175 -9 -49 0 -112 4 -140 9 -27 4 -87
13 -132 20 -49 7 -122 28 -185 54 -56 23 -130 60 -162 82 -33 21 -67 44 -77
49 -9 6 -49 42 -89 80 -39 39 -104 111 -144 160 -40 50 -88 111 -107 137 -19
26 -73 100 -120 165 -48 65 -96 140 -108 165 -11 26 -21 49 -21 52 0 4 15 6
34 6 19 0 45 -9 60 -21 22 -17 34 -19 69 -13 23 4 53 9 67 11 14 1 104 7 200
11 l175 9 75 43 c41 23 104 66 140 95 42 34 77 73 100 112 34 59 37 61 128 98
52 21 109 49 128 61 19 13 58 33 87 46 28 12 63 30 76 40 13 10 27 18 32 18 5
0 28 12 52 28 23 15 51 34 61 42 10 8 40 35 67 59 27 24 66 73 87 110 21 36
43 86 50 111 6 25 14 62 17 82 3 21 1 39 -5 43 -5 3 -10 10 -10 16 0 5 2 9 5
9z m1801 -210 c7 0 17 -24 24 -57 6 -32 18 -84 27 -115 9 -32 23 -64 33 -73 9
-8 39 -15 71 -16 29 -1 88 1 129 5 41 4 113 14 160 22 46 8 113 26 149 40 35
14 82 37 103 51 30 21 41 23 52 13 8 -6 24 -30 35 -54 11 -23 35 -50 53 -60
17 -11 50 -23 71 -27 22 -4 70 -3 106 2 37 4 146 26 242 49 96 22 190 45 209
50 19 5 46 12 59 16 24 6 24 6 17 -57 -4 -35 -16 -102 -27 -149 -11 -47 -24
-101 -29 -120 -5 -19 -16 -62 -24 -95 -8 -33 -24 -89 -37 -125 -12 -36 -27
-81 -34 -100 -7 -19 -34 -91 -59 -160 -25 -69 -68 -169 -96 -223 -28 -54 -71
-126 -97 -160 -25 -34 -71 -82 -101 -106 -30 -24 -96 -69 -146 -100 -50 -32
-133 -79 -184 -105 -52 -27 -133 -58 -185 -71 -51 -12 -127 -28 -170 -35 -60
-9 -100 -9 -170 0 -51 7 -119 19 -152 27 -33 8 -84 28 -112 45 -29 16 -77 49
-105 72 -37 30 -63 63 -85 107 -17 35 -39 96 -48 134 -9 39 -26 102 -36 140
-10 39 -24 116 -30 173 -9 77 -9 127 0 203 6 56 18 140 27 188 8 47 24 131 35
186 12 55 26 123 31 150 6 28 30 106 54 174 24 69 47 128 51 132 5 4 44 10 87
13 44 4 82 9 85 11 2 3 10 5 17 5z"/>
<g>
<path d="M10721 17909 c-9 0 -23 -3 -31 -5 -8 -3 -34 -12 -58 -21 -32 -11 -48
-25 -67 -57 -14 -24 -27 -58 -29 -76 -2 -18 0 -45 4 -59 5 -14 11 -38 14 -53
5 -20 19 -34 48 -49 32 -17 55 -20 103 -17 45 3 69 10 91 27 16 12 39 39 51
59 13 20 23 53 23 72 0 19 -6 51 -13 71 -7 20 -19 44 -27 53 -7 10 -32 26 -54
37 -22 10 -47 19 -55 18z"/>
</g>
<g>
<path d="M4831 17599 c-25 -1 -55 -3 -66 -6 -11 -2 -41 -11 -66 -19 -26 -8
-60 -30 -81 -52 -19 -20 -40 -50 -45 -67 -5 -16 -7 -54 -5 -82 3 -43 10 -58
35 -84 18 -17 46 -37 62 -44 17 -7 58 -16 92 -20 46 -5 75 -3 110 9 26 9 62
30 80 46 19 18 35 45 39 66 4 20 4 61 0 91 -4 31 -14 68 -22 82 -9 14 -32 38
-52 54 -27 21 -45 27 -81 26z"/>
</g>
<g>
<path d="M8327 17228 c-70 10 -128 17 -130 16 -1 -1 -36 -5 -77 -8 -41 -3 -78
-5 -82 -6 -3 0 -11 -14 -17 -31 -8 -24 -8 -36 1 -46 9 -12 31 -14 97 -10 53 3
130 -2 206 -13 66 -10 140 -23 163 -29 24 -7 62 -21 84 -32 23 -12 48 -26 56
-32 8 -7 34 -31 57 -53 28 -27 49 -60 60 -95 14 -40 16 -69 11 -126 -3 -40
-13 -88 -22 -106 -10 -18 -26 -39 -38 -47 -11 -8 -36 -24 -56 -35 -19 -12 -62
-28 -95 -38 -33 -9 -144 -23 -247 -32 -124 -10 -239 -13 -342 -10 -149 6 -154
6 -161 -14 -3 -11 -1 -29 5 -40 6 -11 24 -24 40 -28 17 -5 101 -8 188 -7 86 0
195 3 242 7 47 4 110 10 140 12 30 2 77 9 105 15 27 5 76 20 110 32 33 11 71
28 85 37 14 8 39 29 56 46 17 16 38 44 47 61 9 17 21 71 27 120 6 49 8 108 5
132 -3 23 -13 58 -20 77 -8 18 -28 53 -44 77 -16 24 -49 58 -73 76 -24 18 -60
44 -81 57 -21 14 -45 25 -53 25 -9 0 -39 7 -67 15 -29 8 -109 23 -180 33z"/>
</g>
<g>
<path d="M10445 15317 c-22 1 -107 -7 -190 -17 -82 -10 -262 -30 -400 -44
-137 -13 -299 -27 -360 -30 -60 -4 -186 -9 -280 -12 -93 -3 -523 -7 -955 -9
-432 -2 -834 -6 -895 -9 -60 -3 -198 -8 -305 -10 -107 -3 -213 -8 -235 -10
-22 -3 -105 -8 -185 -11 -80 -3 -176 -10 -215 -15 -38 -5 -113 -10 -165 -10
-52 0 -124 -5 -160 -10 -36 -5 -139 -17 -229 -25 -90 -8 -167 -17 -171 -20 -4
-2 -34 -7 -66 -10 -32 -3 -79 -10 -104 -16 -25 -6 -63 -15 -85 -22 -22 -6 -57
-21 -77 -34 -23 -14 -38 -31 -38 -42 0 -11 3 -26 6 -35 4 -11 19 -16 50 -16
24 0 44 4 44 9 0 4 29 18 65 29 36 12 98 29 138 37 41 8 96 17 123 20 27 3 63
7 81 9 17 2 78 9 135 15 57 6 123 13 148 15 25 3 45 5 45 6 0 0 43 2 95 5 52
2 208 11 345 20 138 9 282 18 320 20 39 2 201 6 360 10 160 4 340 10 400 14
61 3 398 6 750 6 352 -1 719 2 815 6 96 4 240 12 320 19 80 6 244 20 365 31
121 11 254 24 295 29 41 6 114 12 161 13 54 2 93 8 103 16 9 7 16 24 16 36 0
12 -6 27 -12 32 -7 5 -31 10 -53 10z"/>
</g>
<g>
<path d="M7959 11630 c-4 0 -14 -9 -22 -21 -8 -11 -13 -29 -10 -40 4 -13 14
-19 33 -19 20 0 31 6 35 21 4 13 0 27 -11 40 -9 10 -21 19 -25 19z"/>
</g>
<g>
<path d="M7895 11550 c-22 0 -35 -6 -40 -17 -4 -12 2 -24 20 -39 l26 -21 -22
-15 c-15 -9 -20 -20 -16 -31 3 -9 18 -19 33 -23 22 -6 32 -2 52 21 18 22 22
35 18 58 -4 17 -14 39 -23 49 -9 10 -30 18 -48 18z"/>
</g>
<g>
<path d="M7825 11363 c-33 2 -70 1 -82 -4 -14 -5 -23 -17 -23 -28 0 -11 8 -24
18 -30 9 -5 60 -11 114 -14 53 -2 101 -1 108 3 6 4 10 18 8 31 -2 19 -11 25
-43 30 -22 4 -67 9 -100 12z"/>
</g>
<g>
<path d="M9020 11358 c-3 0 -16 -3 -30 -5 -14 -2 -31 -12 -37 -21 -7 -9 -13
-30 -13 -48 0 -20 9 -44 24 -61 20 -23 26 -25 39 -14 11 9 14 22 10 42 -4 22
-1 30 13 36 11 3 22 11 26 17 3 5 -1 20 -10 32 -10 13 -19 23 -22 22z"/>
</g>
<g>
<path d="M8915 11230 c-2 0 -11 -7 -19 -16 -15 -14 -13 -19 16 -57 18 -23 37
-45 43 -49 5 -4 20 -8 33 -8 16 0 22 6 22 21 0 11 -13 32 -30 46 -16 13 -30
31 -30 38 0 7 -7 16 -16 19 -9 3 -17 6 -19 6z"/>
</g>
<g>
<path d="M4981 10944 c-19 17 -20 17 -40 -3 -12 -12 -21 -27 -21 -35 0 -7 7
-19 14 -26 8 -6 25 -10 38 -8 16 2 24 11 26 29 2 15 -5 32 -17 43z"/>
</g>
<g>
<path d="M5149 10910 c-16 0 -32 -6 -35 -14 -3 -8 -1 -24 6 -35 6 -12 19 -21
29 -21 10 0 22 10 28 23 5 12 8 28 6 35 -3 6 -18 12 -34 12z"/>
</g>
<g>
<path d="M5010 10850 c-10 0 -28 -12 -39 -26 -12 -15 -21 -40 -21 -56 0 -24 6
-32 36 -44 20 -8 43 -13 50 -10 8 3 14 14 14 24 0 10 -6 24 -12 31 -11 10 -10
14 5 22 9 6 17 18 17 28 0 11 -7 22 -16 25 -9 3 -24 6 -34 6z"/>
</g>
<g>
<path d="M11723 10790 c-5 0 -14 -5 -21 -12 -7 -7 -12 -22 -12 -35 0 -12 8
-26 18 -31 9 -6 27 -6 40 -1 15 6 22 17 22 33 0 15 -8 30 -19 36 -11 5 -24 10
-28 10z"/>
</g>
<g>
<path d="M4958 10704 c-41 7 -49 6 -54 -9 -4 -10 -3 -25 3 -33 5 -9 23 -20 39
-24 16 -4 51 -3 79 2 28 6 57 15 65 20 12 7 12 12 3 21 -7 7 -29 13 -50 14
-21 1 -59 5 -85 9z"/>
</g>
<g>
<path d="M11491 10647 c-3 2 -12 -1 -19 -6 -8 -4 -12 -19 -10 -32 2 -15 17
-31 43 -46 22 -12 51 -23 66 -23 14 0 30 5 37 12 7 7 12 17 12 23 0 5 -28 24
-62 40 -34 17 -64 31 -67 32z"/>
</g>
<g>
<path d="M3780 10350 c-9 0 -21 -5 -28 -12 -7 -7 -12 -20 -12 -30 0 -9 9 -22
19 -28 11 -5 29 -10 40 -10 11 0 22 9 26 21 4 13 0 27 -11 40 -9 10 -25 19
-34 19z"/>
</g>
<g>
<path d="M3929 10297 c-26 3 -49 0 -55 -7 -6 -6 -9 -22 -6 -36 3 -18 11 -24
29 -24 22 0 23 -1 9 -16 -9 -8 -16 -17 -16 -19 0 -2 7 -10 15 -19 14 -13 12
-17 -15 -33 -16 -9 -30 -20 -30 -23 0 -3 4 -11 9 -19 7 -10 20 -12 52 -7 23 4
47 10 53 14 6 4 29 12 50 17 22 6 41 15 43 21 2 7 -3 19 -12 28 -9 9 -27 16
-40 16 -22 0 -23 2 -12 30 10 26 9 33 -10 51 -12 13 -38 23 -64 26z"/>
</g>
<g>
<path d="M8445 10290 c-12 0 -25 -3 -28 -7 -4 -3 -7 -21 -7 -39 0 -28 4 -35
27 -40 14 -4 33 -2 42 3 9 6 18 21 19 33 3 15 -3 29 -14 37 -10 7 -27 13 -39
13z"/>
</g>
<g>
<path d="M7713 10260 c-5 0 -17 -6 -27 -13 -12 -9 -17 -23 -14 -47 3 -30 7
-35 31 -38 16 -2 35 2 43 9 8 6 14 24 14 40 0 18 -7 32 -19 39 -11 5 -24 10
-28 10z"/>
</g>
<g>
<path d="M8036 10120 c-12 0 -39 -9 -61 -21 -22 -12 -56 -37 -76 -56 -22 -21
-39 -48 -42 -66 -2 -18 -2 -47 0 -65 5 -27 13 -36 51 -53 31 -14 68 -21 117
-22 48 -2 77 3 88 12 10 7 17 19 17 25 0 6 -5 18 -10 26 -5 9 -26 15 -52 16
-24 1 -63 5 -86 9 -31 5 -42 11 -42 25 0 9 10 30 22 45 12 15 37 34 55 42 19
7 38 24 42 36 5 12 6 28 4 35 -3 6 -15 12 -27 12z"/>
</g>
<g>
<path d="M12084 10050 c-19 0 -24 -5 -24 -25 0 -14 12 -39 28 -55 19 -22 32
-29 45 -25 9 4 17 14 17 22 0 9 -9 31 -21 49 -14 24 -28 34 -45 34z"/>
</g>
<g>
<path d="M12330 10030 c-10 0 -22 -9 -25 -20 -3 -11 -3 -29 0 -40 4 -13 15
-20 30 -20 13 0 28 8 33 17 7 12 5 24 -5 40 -8 13 -23 23 -33 23z"/>
</g>
<g>
<path d="M10784 10008 c-29 2 -47 -3 -67 -18 -16 -13 -27 -31 -27 -45 0 -13 3
-31 6 -40 4 -8 23 -22 42 -31 20 -8 48 -12 63 -9 19 4 31 16 38 36 7 21 7 40
-2 67 -11 34 -16 37 -53 40z"/>
</g>
<g>
<path d="M10915 9754 c-16 3 -43 1 -60 -3 -16 -4 -39 -13 -50 -20 -12 -7 -31
-29 -44 -49 -22 -33 -23 -39 -12 -88 7 -28 20 -59 30 -68 10 -10 42 -26 70
-37 28 -10 60 -19 70 -19 10 0 24 7 31 15 6 8 9 23 5 35 -3 11 -11 20 -16 20
-6 0 -33 10 -60 21 -34 15 -51 29 -55 45 -4 15 0 34 10 49 10 15 30 27 51 31
27 5 41 2 56 -12 15 -14 24 -16 37 -7 9 5 17 18 17 28 0 10 -11 26 -25 36 -14
10 -38 21 -55 23z"/>
</g>
<g>
<path d="M8336 9729 c-11 0 -34 -5 -51 -10 -16 -5 -38 -6 -47 -3 -9 2 -63 0
-120 -5 -57 -6 -156 -12 -221 -13 -77 -2 -122 -7 -129 -15 -5 -6 -8 -24 -6
-40 3 -28 4 -28 86 -33 45 -3 162 0 260 7 97 6 193 12 213 12 26 1 38 6 41 19
3 10 3 32 0 50 -3 25 -9 32 -26 31z"/>
</g>
<g>
<path d="M11369 9680 c-22 0 -44 -8 -57 -20 -12 -12 -22 -31 -22 -45 0 -14 12
-34 32 -50 23 -20 38 -25 57 -20 14 4 34 14 44 22 9 9 17 30 17 48 0 18 -8 39
-18 48 -10 10 -34 17 -53 17z"/>
</g>
<g>
<path d="M10613 9435 c-25 11 -35 11 -49 1 -12 -9 -15 -20 -10 -40 4 -16 18
-32 34 -39 15 -7 50 -25 77 -41 28 -16 61 -39 75 -51 14 -13 36 -28 50 -35 14
-7 36 -22 50 -32 14 -11 50 -35 80 -54 30 -19 61 -33 69 -32 8 2 18 16 22 33
7 23 4 34 -13 52 -12 13 -28 23 -35 23 -8 0 -16 7 -19 15 -4 8 -11 15 -17 15
-5 0 -44 23 -86 52 -42 28 -103 67 -136 86 -33 18 -74 40 -92 47z"/>
</g>
<g>
<path d="M3679 9294 c-8 7 -24 10 -36 8 -17 -3 -23 -12 -29 -48 -3 -24 -10
-44 -15 -44 -5 0 -9 6 -9 13 0 8 -9 22 -19 31 -16 14 -26 16 -56 7 -21 -5 -50
-8 -65 -4 -22 4 -29 1 -35 -16 -3 -11 -3 -25 0 -31 3 -5 17 -10 31 -10 14 0
35 -5 47 -11 12 -7 26 -18 30 -25 4 -8 16 -14 25 -14 10 0 24 6 31 13 10 10
11 9 6 -4 -3 -9 1 -24 10 -33 9 -9 21 -16 25 -16 5 0 16 10 24 23 8 12 22 50
32 85 14 54 15 65 3 76z"/>
</g>
<g>
<path d="M5388 9284 c-18 19 -28 23 -44 16 -12 -5 -24 -15 -27 -24 -4 -9 -2
-27 3 -41 5 -14 16 -28 24 -31 8 -3 26 2 40 11 14 10 26 23 26 31 0 7 -10 24
-22 38z"/>
</g>
<g>
<path d="M5416 9060 c-11 -1 -31 -8 -42 -18 -12 -9 -36 -25 -53 -34 -18 -10
-31 -25 -31 -36 0 -11 7 -25 16 -33 13 -10 21 -10 47 0 18 7 40 15 49 18 12 4
19 -2 24 -21 4 -18 1 -33 -9 -44 -10 -12 -12 -24 -6 -39 4 -13 17 -23 27 -23
10 0 28 10 39 23 11 12 24 32 27 44 4 12 4 39 0 59 -4 20 -20 52 -36 70 -17
19 -39 34 -52 34z"/>
</g>
<g>
<path d="M5684 8907 c-10 2 -29 -5 -40 -15 -12 -9 -50 -51 -84 -92 -35 -41
-101 -114 -147 -161 -72 -74 -84 -90 -81 -115 2 -24 8 -30 33 -32 28 -3 40 7
116 90 47 51 107 122 134 158 27 36 63 80 79 98 25 26 28 36 20 50 -6 9 -20
18 -30 19z"/>
</g>
<g>
<path d="M4934 8790 c-5 0 -20 -7 -32 -16 -12 -8 -22 -26 -22 -39 0 -13 7 -31
16 -39 8 -9 24 -16 34 -16 10 0 26 10 34 22 9 12 16 30 16 39 0 9 -8 23 -18
32 -10 10 -23 17 -28 17z"/>
</g>
<g>
<path d="M8750 6253 c-14 3 -35 3 -48 0 -12 -2 -30 -15 -39 -29 -11 -17 -14
-37 -10 -66 4 -27 14 -48 29 -60 13 -10 33 -18 45 -18 12 0 29 3 38 6 8 4 22
19 30 35 8 15 15 43 15 62 0 20 -7 41 -17 50 -10 8 -29 18 -43 20z"/>
</g>
<g>
<path d="M7043 6220 c-10 0 -36 -15 -57 -33 l-39 -33 18 -48 c10 -26 27 -52
38 -57 11 -6 38 -8 63 -4 31 4 48 13 56 28 6 12 11 36 10 52 -2 17 -5 38 -8
48 -3 9 -18 24 -34 32 -16 8 -37 15 -47 15z"/>
</g>
<g>
<path d="M8086 5939 c-39 0 -77 -3 -83 -6 -7 -2 -13 -20 -13 -38 0 -21 6 -35
16 -39 8 -3 39 -3 68 0 35 4 56 3 60 -5 4 -6 15 -11 24 -11 9 -1 33 -15 53
-33 19 -18 43 -44 52 -59 9 -15 17 -38 17 -51 0 -13 -14 -37 -32 -55 -18 -17
-50 -38 -70 -46 -22 -9 -67 -16 -107 -16 -38 0 -76 -3 -85 -6 -9 -3 -16 -17
-16 -30 0 -14 9 -28 23 -35 13 -8 54 -12 105 -10 66 2 93 8 132 28 27 14 66
46 88 72 21 25 41 57 45 70 3 14 -4 50 -18 88 -13 37 -38 80 -56 99 -18 19
-56 45 -83 59 -40 20 -64 25 -120 24z"/>
</g>
<g>
<path d="M7325 5049 c-27 3 -60 5 -72 3 -19 -3 -22 -9 -21 -38 1 -21 8 -38 17
-43 9 -5 59 -11 111 -15 52 -3 156 -10 230 -15 74 -6 158 -8 185 -6 28 2 120
6 205 10 85 3 241 7 345 8 152 2 198 6 228 19 23 11 37 24 37 35 0 10 -4 24
-9 32 -7 10 -22 12 -64 7 -31 -4 -152 -7 -269 -8 -117 0 -298 -5 -403 -10
-143 -8 -224 -8 -330 1 -77 7 -162 16 -190 20z"/>
</g>
</g>
</g>
</svg>
