<?xml version="1.0" standalone="no"?>
<!DOCTYPE svg PUBLIC "-//W3C//DTD SVG 20010904//EN"
 "http://www.w3.org/TR/2001/REC-SVG-20010904/DTD/svg10.dtd">
<svg version="1.0" xmlns="http://www.w3.org/2000/svg"
 width="1536.000000pt" height="2048.000000pt" viewBox="0 0 1536.000000 2048.000000"
 preserveAspectRatio="xMidYMid meet">
<metadata>
Created by potrace 1.16, written by Peter Selinger 2001-2019
</metadata>
<g transform="translate(0.000000,2048.000000) scale(0.100000,-0.100000)"
fill="#000000" stroke="none">
<g>
<path d="M7252 19613 c-4 1 -95 -1 -202 -4 -107 -4 -274 -14 -370 -23 -96 -9
-213 -26 -260 -37 -47 -11 -106 -24 -132 -29 -26 -5 -73 -16 -105 -26 -32 -9
-67 -20 -78 -24 -11 -5 -33 -11 -50 -14 -16 -4 -34 -8 -40 -10 -5 -1 -23 -8
-38 -14 -16 -7 -37 -12 -48 -12 -11 0 -38 -9 -59 -20 -22 -11 -73 -32 -113
-46 -39 -14 -106 -39 -147 -56 -41 -16 -97 -41 -125 -55 -27 -13 -59 -30 -70
-36 -11 -7 -50 -34 -85 -61 -36 -27 -113 -99 -172 -159 -60 -61 -108 -112
-108 -113 0 -1 -16 -26 -35 -56 -19 -29 -40 -60 -47 -68 -7 -8 -23 -29 -35
-48 -13 -18 -23 -35 -23 -38 0 -2 -30 -46 -66 -96 -36 -50 -72 -107 -79 -127
-8 -20 -21 -76 -30 -126 -8 -49 -15 -111 -15 -137 0 -40 -3 -48 -18 -48 -11 0
-54 10 -98 21 -43 12 -126 28 -184 36 -67 9 -147 12 -220 9 -64 -3 -149 -12
-190 -21 -41 -9 -109 -28 -150 -42 -41 -13 -87 -30 -102 -36 -16 -7 -28 -15
-28 -19 0 -3 -26 -14 -57 -23 -32 -9 -83 -28 -113 -42 -30 -13 -64 -29 -75
-33 -11 -5 -63 -27 -116 -50 -53 -22 -101 -40 -107 -40 -6 0 -15 -8 -21 -17
-5 -10 -13 -15 -17 -11 -3 4 -26 -8 -49 -27 -23 -19 -45 -35 -49 -35 -4 0 -22
-11 -40 -25 -18 -14 -37 -25 -41 -25 -5 0 -71 -64 -147 -142 -76 -78 -138
-146 -138 -150 0 -4 -10 -17 -22 -30 -13 -13 -35 -39 -49 -58 -15 -19 -48 -57
-73 -85 -25 -27 -45 -55 -46 -61 0 -7 -21 -34 -46 -60 -25 -27 -70 -79 -100
-115 -30 -36 -54 -70 -54 -74 0 -4 -21 -33 -47 -66 -27 -32 -61 -77 -78 -100
-16 -23 -34 -49 -40 -58 -5 -8 -18 -24 -28 -35 -10 -12 -26 -38 -34 -58 -8
-21 -20 -38 -25 -38 -5 0 -8 -6 -5 -12 2 -7 -2 -25 -9 -39 -7 -14 -13 -39 -13
-55 1 -16 -2 -47 -6 -69 -3 -22 -9 -71 -14 -110 -4 -38 -6 -148 -4 -244 1 -95
7 -179 12 -185 5 -6 14 -38 20 -71 7 -33 17 -82 22 -110 6 -27 20 -77 30 -109
11 -33 35 -91 53 -130 19 -39 50 -93 70 -119 20 -26 36 -49 36 -52 0 -2 26
-30 58 -62 34 -35 84 -72 125 -92 37 -19 67 -38 67 -42 0 -5 9 -9 19 -9 11 0
48 -9 83 -20 34 -12 99 -27 143 -35 50 -8 134 -12 225 -10 80 2 204 11 275 20
100 13 179 16 342 13 117 -2 215 -7 219 -11 4 -4 1 -18 -6 -31 -7 -14 -30 -42
-50 -64 -21 -22 -45 -52 -53 -68 -8 -16 -17 -49 -20 -72 -3 -24 -15 -76 -27
-115 -12 -40 -27 -90 -33 -112 -6 -22 -14 -45 -19 -51 -4 -6 -17 -64 -28 -128
-11 -64 -23 -163 -26 -220 -6 -99 -5 -106 30 -210 20 -59 44 -119 53 -133 10
-14 19 -35 20 -47 2 -11 12 -29 21 -41 10 -11 30 -38 44 -60 15 -22 43 -62 63
-90 19 -27 48 -68 63 -89 15 -22 34 -49 42 -61 8 -12 24 -35 35 -51 10 -16 34
-44 53 -61 18 -18 59 -49 90 -69 31 -21 71 -50 87 -65 17 -15 41 -30 55 -34
13 -4 65 -27 115 -51 50 -24 124 -53 165 -65 41 -11 93 -25 115 -30 22 -6 78
-15 125 -20 50 -6 248 -9 480 -6 386 4 397 5 498 31 57 14 107 26 111 26 5 0
11 -9 14 -19 2 -11 1 -23 -4 -28 -4 -4 -11 -87 -14 -183 -3 -96 -6 -229 -6
-295 1 -66 3 -212 5 -325 3 -113 8 -288 11 -390 4 -102 8 -360 10 -575 1 -214
5 -416 8 -449 3 -32 6 -115 6 -185 0 -69 -2 -184 -4 -256 -2 -71 -6 -287 -9
-480 -3 -192 -8 -409 -12 -482 -4 -73 -7 -163 -8 -200 l-1 -68 -120 -2 c-66
-2 -131 -7 -145 -11 -14 -5 -196 -10 -405 -12 -209 -2 -426 -3 -482 -1 -56 1
-126 -2 -155 -8 -29 -6 -109 -13 -177 -16 -68 -2 -158 -7 -200 -11 -42 -3 -85
-12 -94 -19 -14 -10 -18 -36 -21 -164 -4 -116 -2 -153 8 -158 9 -6 15 -51 19
-153 4 -80 8 -264 10 -410 3 -186 10 -295 22 -365 9 -55 18 -152 21 -215 2
-63 5 -230 6 -370 1 -140 1 -370 0 -510 -1 -140 0 -329 2 -420 2 -91 9 -253
15 -360 6 -107 17 -262 26 -345 9 -82 22 -208 30 -280 8 -71 17 -224 21 -340
3 -115 7 -253 9 -305 2 -52 7 -158 12 -235 4 -77 7 -149 6 -160 -1 -11 -5 -74
-9 -140 -4 -66 -8 -232 -8 -370 0 -137 0 -304 0 -370 0 -66 0 -214 0 -330 1
-115 4 -268 8 -340 3 -71 11 -209 17 -305 6 -96 14 -222 18 -280 4 -58 12
-115 19 -126 6 -12 9 -24 6 -26 -2 -3 3 -34 11 -69 9 -35 17 -68 19 -74 1 -5
8 -28 14 -50 6 -22 14 -57 17 -78 3 -20 9 -37 13 -37 4 0 84 -2 177 -5 94 -2
208 -6 255 -9 47 -3 156 -8 242 -11 95 -4 275 1 459 11 192 10 405 15 585 13
185 -3 287 -8 294 -15 6 -6 15 -44 19 -85 5 -41 16 -87 24 -104 8 -16 18 -40
21 -52 5 -16 1 -25 -16 -34 -13 -7 -25 -15 -28 -18 -3 -3 -30 -19 -60 -34 -30
-16 -106 -55 -168 -88 -62 -32 -121 -59 -131 -59 -9 0 -26 -7 -37 -15 -10 -8
-31 -15 -46 -15 -15 0 -38 -5 -51 -11 -13 -6 -31 -23 -40 -38 -16 -27 -15 -29
8 -51 18 -17 30 -21 52 -15 15 3 35 12 43 19 8 7 38 19 65 26 28 7 55 16 60
21 6 4 47 26 92 49 45 24 91 51 102 61 11 11 27 19 36 19 9 0 44 13 78 29 34
16 79 36 100 45 30 12 37 20 37 42 0 15 -15 77 -34 138 -19 61 -37 126 -41
145 l-7 33 43 -5 c24 -3 121 -11 214 -17 94 -6 198 -15 232 -21 34 -6 97 -12
140 -14 43 -2 98 -6 123 -9 25 -3 108 -8 185 -11 77 -3 160 -8 185 -10 25 -3
122 -7 215 -9 94 -3 191 -5 218 -5 47 -1 47 -1 47 -36 0 -19 8 -61 19 -92 10
-32 26 -82 35 -112 9 -29 16 -66 16 -81 0 -15 7 -44 15 -63 8 -20 12 -43 9
-51 -3 -9 -27 -29 -52 -45 -26 -16 -65 -46 -87 -66 -22 -20 -73 -61 -113 -91
-39 -30 -94 -66 -121 -79 -27 -14 -52 -25 -56 -25 -5 0 -27 -16 -51 -35 -23
-19 -46 -35 -51 -35 -5 0 -29 -18 -53 -40 -25 -22 -55 -43 -68 -46 -12 -4 -27
-14 -32 -24 -6 -12 -6 -29 1 -49 9 -24 17 -31 38 -31 16 0 37 10 51 25 13 14
27 25 32 25 4 0 17 8 29 18 12 9 36 29 54 44 18 16 35 28 39 28 3 0 31 20 62
45 30 25 71 54 92 65 20 11 46 26 57 33 11 6 45 30 75 52 30 22 60 46 65 53 6
7 19 18 31 25 11 7 35 21 53 32 18 11 51 32 72 48 31 21 39 33 39 58 0 17 -6
43 -14 57 -8 15 -28 70 -44 122 -16 52 -32 120 -36 151 -3 31 -11 69 -17 83
-7 14 -10 27 -8 29 2 1 99 -1 214 -5 116 -4 318 -9 450 -11 158 -2 322 3 480
14 132 9 294 22 360 29 66 6 140 13 165 15 25 1 153 6 285 10 132 3 258 8 280
11 22 2 103 8 180 13 77 5 151 13 165 19 14 5 48 13 75 17 28 5 62 7 76 6 15
-1 53 5 87 13 33 9 80 16 105 16 27 0 49 6 57 15 9 11 34 15 95 15 57 0 84 4
87 12 3 7 1 56 -4 108 -5 52 -6 129 -3 170 4 41 8 269 10 505 2 237 8 480 14
540 6 61 13 139 15 175 3 36 10 124 16 196 8 96 9 145 0 185 -6 30 -13 79 -15
109 -2 30 -9 125 -14 210 -6 85 -15 234 -21 330 -6 96 -17 231 -25 300 -9 69
-20 155 -25 193 -6 37 -10 89 -10 115 0 27 -4 73 -10 103 -5 30 -15 95 -20
144 -6 50 -15 144 -20 210 -5 66 -13 145 -19 175 -6 30 -13 89 -16 130 -3 41
-10 99 -17 128 -6 28 -9 55 -6 58 4 3 2 20 -3 37 -6 18 -17 183 -24 367 -8
184 -17 350 -19 368 -3 18 -8 99 -11 180 -4 81 -11 215 -15 297 -5 83 -16 276
-26 430 -14 214 -18 385 -16 725 2 245 4 483 6 530 2 47 0 110 -4 140 -4 30
-11 78 -15 105 -4 28 -14 57 -22 66 -11 13 -36 17 -129 17 -63 1 -118 3 -122
6 -5 3 -140 7 -301 10 -161 3 -297 8 -302 12 -6 3 -22 8 -37 10 -15 2 -97 6
-182 10 -85 3 -213 9 -284 13 l-130 6 -4 150 c-2 83 -8 157 -12 165 -4 8 -11
78 -14 155 -4 77 -9 192 -11 255 -2 63 -5 279 -6 480 -1 201 -6 412 -11 470
-6 58 -11 121 -12 140 -1 19 -6 60 -9 90 -4 30 -9 82 -12 115 -2 33 -11 134
-20 225 -9 91 -20 228 -25 305 -5 77 -15 194 -21 260 -7 66 -13 269 -14 450 0
205 -5 357 -13 402 -6 40 -13 76 -14 80 -1 5 8 26 20 48 13 22 34 58 47 80 13
22 38 69 55 103 16 35 30 68 30 73 0 5 2 9 5 9 4 0 20 -7 37 -16 17 -9 36 -20
42 -26 6 -5 40 -30 76 -57 36 -26 110 -70 165 -97 55 -28 130 -62 166 -78 37
-15 104 -34 150 -42 46 -8 109 -21 139 -29 30 -8 136 -24 235 -35 104 -11 259
-21 365 -21 102 -1 203 1 225 6 22 4 85 22 140 40 55 18 123 41 150 52 28 12
77 31 110 44 33 12 116 49 185 82 69 33 127 63 130 67 3 4 19 15 35 24 17 9
44 25 60 36 17 10 44 26 60 35 17 8 46 28 65 45 19 16 40 30 47 30 6 0 67 55
135 123 68 68 148 154 178 192 30 38 57 73 59 79 2 6 21 38 42 72 22 33 59
115 84 182 24 66 50 153 56 194 8 49 9 131 4 248 -4 96 -8 186 -11 200 -2 14
-7 52 -13 85 -5 33 -25 127 -45 208 -20 82 -41 156 -46 165 -5 9 -21 62 -36
117 -14 55 -31 123 -36 150 -6 28 -21 76 -35 107 -13 32 -31 84 -40 115 -8 32
-19 72 -23 90 -6 24 -4 36 9 46 9 8 39 26 68 41 29 14 59 26 68 26 9 0 47 16
85 34 39 19 114 62 168 94 53 33 114 67 135 76 21 9 56 29 77 46 21 16 40 30
42 30 2 0 28 22 57 50 29 27 66 69 82 92 16 24 29 47 29 51 0 5 8 21 18 35 10
15 32 65 49 112 19 52 41 147 57 245 14 88 29 192 33 230 4 39 6 113 5 165 -1
52 -3 111 -6 130 -3 19 -12 74 -20 122 -8 48 -18 100 -21 115 -3 15 -10 44
-15 63 -6 19 -28 110 -50 202 -22 92 -49 191 -61 220 -11 29 -36 85 -54 123
-19 39 -50 95 -69 125 -19 30 -45 70 -58 88 -13 18 -45 58 -73 90 -27 31 -84
91 -126 132 -42 41 -92 89 -111 105 -19 17 -53 43 -76 59 -23 16 -42 32 -42
36 0 5 -16 18 -36 29 -20 12 -55 38 -78 57 -22 20 -79 60 -126 89 -47 30 -132
77 -190 106 -58 29 -107 55 -110 58 -3 4 -21 12 -40 19 -19 8 -60 21 -90 29
-30 8 -59 18 -65 21 -5 4 -32 12 -60 19 -27 6 -77 18 -110 26 -33 8 -109 26
-170 40 -60 15 -159 34 -220 43 -60 9 -180 18 -265 19 -96 1 -191 -3 -250 -12
-52 -8 -149 -23 -215 -34 -66 -11 -142 -26 -170 -34 -27 -7 -106 -28 -175 -45
-69 -17 -143 -34 -165 -37 -22 -3 -44 -9 -49 -14 -6 -5 -24 -9 -40 -9 -17 0
-46 -9 -64 -20 -18 -11 -40 -20 -50 -20 -9 0 -32 -9 -50 -20 -18 -11 -39 -20
-47 -20 -8 0 -36 -13 -62 -30 -26 -16 -52 -30 -58 -30 -7 0 -22 -9 -35 -20
-13 -11 -29 -20 -35 -20 -7 0 -25 -10 -40 -22 -16 -12 -41 -29 -57 -38 -15 -8
-66 -41 -112 -72 -47 -32 -89 -58 -93 -58 -4 0 -26 -14 -47 -30 -22 -17 -44
-30 -49 -30 -5 0 -31 -16 -58 -36 -27 -19 -54 -32 -60 -28 -8 4 -9 32 -5 88 4
44 2 124 -4 176 -9 86 -15 102 -56 170 -25 41 -67 99 -94 129 -28 29 -50 56
-50 60 0 3 -39 44 -88 92 -48 47 -116 106 -152 131 -36 25 -91 60 -122 77 -31
16 -117 49 -190 71 -73 23 -169 48 -213 56 -44 7 -129 20 -190 29 -60 8 -146
20 -190 25 -44 6 -107 15 -140 20 -33 5 -102 12 -153 15 -52 3 -97 6 -100 8z
m-32 -100 c118 -2 265 -11 325 -19 61 -9 139 -19 175 -24 36 -5 110 -16 165
-25 55 -8 123 -20 150 -26 28 -6 82 -20 120 -31 39 -10 88 -24 110 -31 22 -6
76 -29 120 -52 44 -22 103 -58 130 -79 28 -21 101 -93 163 -160 62 -66 129
-145 149 -175 19 -29 44 -76 55 -105 15 -39 20 -77 21 -161 1 -60 -4 -135 -10
-165 -7 -30 -15 -68 -19 -83 -4 -17 -1 -38 6 -53 11 -19 21 -24 51 -24 20 0
39 3 41 8 2 4 19 18 38 32 19 14 46 31 60 38 14 7 34 18 45 25 11 7 38 23 60
36 22 13 71 45 108 70 37 25 77 51 89 58 11 6 23 15 27 20 3 5 38 27 76 50 39
22 109 61 158 87 48 25 93 46 100 46 6 0 23 9 37 20 14 11 31 20 37 20 7 0 36
11 65 24 29 14 71 27 92 31 21 3 51 8 65 12 14 3 31 9 36 13 6 4 44 15 85 24
41 9 91 21 110 26 19 5 46 11 60 14 14 2 61 13 105 24 44 11 114 27 155 36 41
8 122 21 180 27 62 7 156 9 231 5 70 -3 173 -11 230 -17 57 -6 160 -24 229
-40 69 -16 168 -40 220 -55 52 -14 109 -29 125 -33 17 -5 66 -23 110 -41 44
-17 84 -34 90 -38 5 -4 15 -7 21 -8 7 -1 45 -21 85 -45 41 -24 91 -52 111 -64
21 -11 70 -42 110 -70 40 -27 90 -65 110 -83 20 -18 53 -46 72 -60 19 -15 77
-62 128 -104 51 -42 109 -94 128 -115 19 -21 59 -67 88 -103 29 -36 57 -71 63
-78 6 -7 27 -41 47 -75 19 -34 46 -82 58 -107 13 -25 29 -64 36 -87 7 -24 16
-43 20 -43 4 0 8 -8 8 -19 0 -10 7 -36 16 -57 9 -21 22 -67 30 -103 8 -36 18
-84 23 -106 5 -22 19 -85 31 -140 12 -55 26 -120 31 -144 5 -24 14 -93 19
-153 7 -77 7 -142 0 -217 -6 -58 -18 -149 -26 -201 -9 -52 -22 -120 -31 -150
-8 -30 -22 -75 -31 -100 -8 -25 -33 -83 -56 -129 -32 -67 -53 -95 -108 -145
-38 -33 -96 -78 -131 -98 -34 -21 -72 -42 -84 -47 -12 -6 -56 -31 -97 -56 -42
-25 -109 -60 -149 -76 -39 -17 -115 -51 -167 -75 -52 -25 -106 -51 -120 -57
-14 -7 -26 -22 -28 -34 -2 -12 17 -59 41 -105 25 -46 54 -119 67 -163 12 -44
30 -105 40 -135 11 -30 24 -82 31 -115 6 -33 33 -126 60 -207 27 -82 49 -161
49 -176 0 -15 7 -55 15 -87 9 -33 18 -73 21 -90 3 -16 7 -100 11 -186 3 -94 1
-195 -6 -253 -6 -56 -22 -124 -38 -164 -14 -37 -48 -110 -75 -162 -27 -52 -60
-106 -72 -120 -12 -14 -41 -50 -64 -81 -24 -31 -80 -94 -126 -140 -45 -46
-107 -104 -136 -129 -29 -24 -84 -64 -123 -87 -38 -24 -71 -43 -74 -43 -3 0
-24 -13 -47 -28 -22 -15 -86 -49 -141 -75 -55 -27 -122 -59 -150 -71 -27 -12
-66 -28 -85 -36 -19 -7 -70 -25 -112 -40 -43 -14 -81 -30 -85 -33 -3 -4 -16
-7 -28 -7 -13 0 -39 -7 -59 -15 -27 -12 -75 -16 -179 -16 -78 -1 -194 2 -257
6 -63 4 -118 9 -123 12 -4 2 -62 8 -128 13 -79 6 -148 18 -200 35 -44 14 -93
25 -108 25 -15 0 -61 12 -102 26 -41 14 -114 46 -163 70 -48 25 -108 59 -132
77 -25 18 -74 54 -110 81 -36 26 -80 68 -97 92 -23 33 -37 44 -57 44 -15 0
-34 -8 -42 -17 -9 -10 -18 -44 -21 -76 -3 -32 -10 -64 -15 -70 -5 -7 -19 -38
-31 -69 -13 -32 -29 -62 -37 -69 -8 -6 -14 -19 -14 -29 0 -9 -17 -37 -39 -61
-21 -24 -72 -66 -112 -94 -41 -27 -104 -71 -140 -97 -37 -27 -70 -48 -75 -48
-4 0 -15 -6 -23 -14 -9 -8 -32 -23 -51 -33 -19 -11 -56 -31 -82 -46 -25 -14
-75 -37 -110 -51 -35 -14 -76 -28 -93 -31 -16 -4 -39 -10 -50 -15 -11 -4 -54
-15 -95 -24 -41 -9 -138 -22 -214 -27 -77 -6 -208 -9 -290 -6 -83 2 -182 9
-219 16 -38 6 -109 23 -157 37 -49 14 -120 40 -157 58 -37 18 -108 52 -158 75
-49 23 -110 53 -135 66 -25 13 -92 61 -150 107 -58 45 -148 126 -200 179 -74
74 -105 115 -139 180 -24 46 -58 108 -75 138 -17 30 -39 59 -49 65 -15 9 -22
6 -42 -19 -13 -16 -36 -45 -51 -63 -15 -18 -44 -42 -64 -52 -21 -10 -77 -26
-126 -34 -49 -9 -111 -20 -139 -26 -27 -5 -95 -25 -150 -44 -55 -19 -151 -46
-214 -61 -63 -15 -133 -29 -155 -31 -23 -3 -194 -5 -381 -5 -306 -1 -350 2
-444 20 -57 12 -140 31 -185 42 -44 11 -124 41 -176 65 -52 25 -113 57 -135
72 -22 15 -49 34 -60 42 -11 8 -54 49 -95 91 -41 41 -101 107 -132 147 -32 39
-58 75 -58 80 0 5 -14 28 -30 51 -17 23 -41 63 -53 89 -12 26 -28 51 -34 55
-7 4 -13 17 -13 27 0 10 -5 32 -11 47 -6 15 -15 37 -19 48 -4 11 -13 47 -19
81 -6 33 -11 98 -11 145 0 46 7 116 15 154 9 39 20 93 26 120 6 28 12 61 14
75 2 14 14 57 26 95 12 39 26 79 30 90 4 11 11 31 14 44 4 13 20 45 36 70 16
25 38 64 50 86 12 22 41 65 65 95 33 43 41 61 37 82 -3 15 -13 34 -24 44 -16
15 -51 17 -296 18 -153 0 -303 -2 -333 -6 -30 -4 -98 -14 -150 -22 -52 -8
-140 -15 -195 -16 -55 0 -136 5 -180 10 -44 6 -116 22 -160 35 -44 14 -102 38
-130 54 -27 16 -72 48 -98 71 -26 24 -64 67 -83 96 -18 30 -51 91 -73 137 -21
45 -55 133 -76 196 -27 85 -41 151 -53 261 -12 103 -15 179 -10 247 4 54 9
120 12 148 4 27 9 59 12 70 3 11 17 49 31 85 14 36 40 88 58 115 17 28 39 56
48 64 10 7 17 20 17 28 0 8 21 38 46 66 25 28 57 70 71 94 13 24 29 43 34 43
5 0 9 5 9 11 0 6 16 30 36 53 20 22 44 51 55 62 10 12 19 26 19 32 0 5 23 33
50 62 28 29 50 57 50 63 0 6 24 36 53 67 28 30 78 88 111 128 32 39 91 103
131 141 41 38 86 78 102 88 15 9 44 30 63 45 19 15 85 52 145 81 61 30 126 61
145 69 19 9 58 24 85 33 28 10 59 24 70 31 11 7 67 31 125 54 58 23 125 49
150 57 25 8 78 23 118 34 41 10 113 24 160 29 48 6 116 8 152 5 36 -3 126 -18
200 -32 74 -15 163 -39 196 -54 34 -15 65 -32 68 -38 4 -6 18 -11 32 -11 14 0
28 7 32 18 4 9 5 44 3 77 -3 33 -5 107 -5 165 0 96 3 111 31 171 17 36 49 90
72 120 23 30 55 82 71 116 17 34 36 66 44 70 7 4 29 33 49 63 19 30 66 89 104
130 38 41 86 94 108 117 22 23 69 58 105 79 36 20 81 45 100 54 19 10 68 34
107 54 40 20 119 52 175 71 57 19 130 44 163 56 33 12 74 25 90 30 17 4 55 15
85 24 30 9 96 27 145 41 50 14 110 29 136 34 25 4 63 13 85 18 21 6 125 18
229 26 105 9 210 18 235 20 25 2 142 2 260 -1z m-768 -6233 c3 0 19 -17 35
-37 16 -21 39 -55 51 -76 12 -21 22 -43 22 -49 0 -5 10 -22 23 -37 12 -15 33
-42 47 -61 14 -18 52 -53 85 -77 33 -24 80 -60 104 -81 24 -20 60 -52 79 -70
19 -19 58 -49 88 -68 29 -18 55 -38 58 -43 3 -5 18 -12 33 -16 15 -3 75 -29
133 -57 58 -27 119 -56 135 -63 17 -8 60 -25 96 -39 36 -13 92 -31 125 -39 32
-9 104 -22 159 -31 55 -9 152 -18 215 -20 63 -2 169 1 235 6 66 5 161 15 210
23 50 7 115 20 145 29 30 9 71 19 90 23 19 3 113 46 209 95 95 48 190 100 210
116 20 15 43 32 52 37 9 6 34 22 57 37 22 15 43 32 47 38 3 5 15 10 26 10 12
0 19 -7 19 -18 0 -10 5 -23 10 -28 6 -6 13 -71 15 -145 3 -74 8 -231 11 -349
4 -118 8 -249 9 -290 2 -41 6 -133 9 -205 4 -71 13 -184 21 -250 8 -66 17
-172 21 -235 4 -63 11 -125 15 -138 5 -13 9 -56 9 -95 0 -40 5 -117 11 -172 6
-55 12 -131 15 -170 2 -38 3 -169 2 -290 0 -121 0 -293 0 -383 1 -90 6 -243
12 -340 6 -97 14 -180 16 -184 3 -4 9 -85 14 -180 6 -95 6 -175 2 -179 -4 -4
-88 -10 -187 -14 -99 -4 -382 -9 -630 -11 -247 -2 -463 -3 -480 -1 -16 1 -147
2 -290 1 -143 -1 -393 -4 -555 -9 -162 -4 -322 -7 -355 -7 -33 1 -130 3 -215
6 -85 3 -289 6 -452 6 l-298 0 -6 24 c-3 13 -4 86 -2 161 3 75 1 138 -3 141
-4 2 -3 19 2 37 5 18 11 202 14 408 4 205 6 430 6 499 -1 69 -3 366 -5 660 -2
294 -7 643 -11 775 -4 132 -8 409 -8 615 0 206 4 432 10 503 6 70 16 133 22
141 7 8 28 17 49 22 20 4 42 8 47 9 6 2 57 13 115 25 58 12 123 30 146 41 22
11 53 31 70 44 16 13 32 24 36 25z m2943 -4227 c61 -2 218 -7 349 -9 132 -2
251 -7 265 -10 15 -3 62 -10 106 -15 44 -5 112 -10 150 -10 39 -1 198 -3 354
-5 157 -1 295 -5 307 -8 13 -4 26 -16 30 -29 4 -12 7 -310 6 -661 -1 -351 3
-646 7 -655 5 -9 12 -97 16 -196 4 -99 8 -193 10 -210 1 -16 5 -55 8 -85 4
-30 9 -122 12 -205 3 -82 12 -249 20 -370 8 -121 17 -292 20 -380 3 -88 9
-219 13 -291 5 -72 11 -135 15 -140 3 -5 8 -37 11 -70 3 -33 7 -67 10 -75 3
-8 7 -41 10 -74 3 -33 14 -132 25 -220 11 -88 25 -209 31 -270 6 -60 20 -200
31 -310 11 -110 22 -206 24 -213 3 -7 9 -122 15 -255 6 -133 13 -264 15 -292
3 -27 10 -75 15 -106 6 -31 12 -89 15 -130 3 -41 5 -126 6 -189 0 -63 -2 -158
-6 -210 -4 -52 -9 -115 -10 -140 -2 -25 -9 -124 -16 -220 -7 -96 -13 -220 -13
-275 0 -55 4 -143 8 -195 6 -68 4 -123 -7 -195 -9 -66 -14 -169 -13 -303 l1
-203 -35 3 c-20 1 -42 -2 -49 -7 -7 -4 -32 -9 -55 -11 -22 -2 -64 -9 -93 -17
-28 -8 -85 -18 -125 -22 -40 -4 -99 -13 -131 -21 -32 -8 -128 -19 -215 -24
-86 -6 -224 -12 -307 -15 -82 -3 -226 -10 -320 -15 -93 -6 -192 -13 -220 -16
-27 -3 -63 -7 -80 -9 -16 -2 -77 -6 -135 -9 -58 -4 -136 -11 -175 -16 -38 -5
-146 -11 -240 -15 -93 -3 -300 -1 -460 4 -159 6 -325 13 -368 17 -67 6 -80 10
-87 28 -4 12 -16 48 -26 81 -10 33 -22 66 -27 73 -5 7 -14 31 -18 55 -5 23
-15 69 -23 102 -7 33 -32 131 -55 217 -22 86 -41 168 -41 183 0 14 -7 55 -16
91 -9 36 -14 68 -10 71 3 3 25 -2 48 -12 24 -10 52 -27 64 -37 11 -10 28 -18
37 -18 10 0 28 -6 40 -14 12 -7 67 -33 122 -57 55 -23 102 -46 105 -50 3 -4
34 -16 69 -28 35 -12 71 -21 80 -21 9 0 43 -14 76 -30 33 -17 70 -30 82 -30
12 0 32 -4 45 -9 13 -5 48 -16 78 -24 30 -9 82 -21 115 -27 33 -6 83 -18 111
-26 28 -8 64 -14 80 -14 16 0 45 -4 64 -9 19 -5 73 -13 120 -17 47 -4 108 -9
135 -11 28 -2 95 -8 150 -13 55 -5 175 -9 267 -10 92 0 179 5 193 10 23 9 24
12 14 32 -9 16 -9 23 0 26 6 2 11 8 11 12 0 5 -21 24 -47 42 -27 18 -55 38
-65 43 -9 6 -42 26 -73 45 -31 19 -71 44 -90 55 -18 11 -54 32 -80 47 -26 16
-52 28 -58 28 -5 0 -28 15 -51 33 -23 19 -61 46 -85 62 -25 15 -54 36 -65 46
-11 11 -23 19 -28 19 -4 0 -55 48 -112 107 -77 78 -102 110 -95 119 6 7 28 15
50 19 22 4 117 7 212 7 123 1 185 -3 213 -13 28 -10 87 -14 204 -13 91 0 203
6 250 12 47 6 118 14 158 16 40 3 76 7 80 10 5 3 40 8 78 11 38 4 73 11 78 16
6 5 33 9 61 9 28 0 76 5 107 10 30 6 95 12 143 14 60 2 90 7 96 17 5 8 6 21 2
29 -3 8 -6 25 -6 38 1 16 -7 27 -26 35 -14 6 -44 26 -65 44 -22 18 -44 33 -49
33 -6 0 -24 10 -41 23 -17 12 -42 28 -56 35 -14 7 -59 37 -100 67 -41 31 -91
66 -110 79 -19 13 -67 56 -106 95 -40 40 -92 100 -115 133 -24 34 -62 81 -84
106 -22 25 -65 68 -95 96 -30 28 -87 84 -127 125 -51 52 -74 84 -79 107 -3 19
-20 53 -36 75 -16 23 -32 51 -35 62 -2 12 -10 60 -16 107 -7 47 -16 90 -20 97
-4 7 -13 10 -20 7 -7 -2 -29 15 -49 39 -24 28 -61 56 -105 77 -37 18 -84 43
-103 56 -20 13 -95 44 -168 69 -72 25 -138 45 -146 45 -9 0 -37 7 -63 16 -26
9 -54 23 -60 32 -12 14 -14 14 -28 -4 -11 -14 -14 -15 -15 -4 0 8 -5 69 -10
135 -9 107 -7 137 15 280 13 88 32 214 41 280 13 90 17 180 16 358 -1 132 -5
243 -8 249 -3 5 -7 44 -9 86 -1 43 -8 127 -14 187 -7 61 -18 135 -26 165 -7
30 -31 125 -53 211 -23 87 -54 183 -70 215 l-29 57 -108 3 c-59 2 -151 9 -204
15 -53 7 -172 14 -266 15 -93 1 -216 5 -272 9 -82 6 -103 11 -107 24 -3 9 -12
72 -21 141 -8 68 -15 136 -15 151 0 26 0 26 118 37 66 7 143 21 177 33 33 12
62 25 65 29 3 4 39 25 80 47 41 22 90 49 109 61 18 11 61 44 94 74 34 29 83
76 110 103 27 28 78 94 113 148 35 53 78 123 96 155 17 31 37 64 43 72 7 8 27
56 44 105 18 50 40 108 48 130 8 22 24 81 34 130 11 50 23 119 26 155 4 36 7
124 7 196 0 77 -6 156 -14 190 -8 33 -17 61 -20 64 -4 3 -10 20 -13 38 -6 28
-4 32 16 33 12 1 85 5 162 9 77 4 190 6 250 3z m-3183 -11 c4 -1 66 -3 138 -4
97 0 130 -4 130 -13 0 -7 -7 -77 -16 -156 -8 -78 -13 -170 -10 -203 2 -34 9
-90 15 -126 5 -36 12 -74 14 -86 3 -11 19 -58 35 -105 16 -46 36 -97 42 -114
7 -16 21 -48 31 -70 11 -22 24 -47 29 -55 6 -8 15 -26 20 -40 6 -14 19 -38 29
-55 11 -16 20 -37 20 -46 1 -9 10 -24 21 -34 11 -10 20 -25 20 -33 0 -8 11
-27 25 -44 14 -16 25 -36 25 -44 0 -8 4 -14 8 -14 5 0 17 -17 28 -37 10 -21
69 -89 131 -150 62 -62 117 -113 123 -113 5 0 10 -4 10 -10 0 -5 4 -10 10 -10
5 0 31 -13 57 -29 27 -16 77 -39 113 -51 36 -13 74 -29 85 -35 11 -7 67 -28
125 -45 58 -18 109 -37 115 -41 5 -5 18 -9 29 -9 11 0 48 -5 83 -11 61 -11 63
-12 63 -42 0 -17 7 -74 16 -126 9 -53 20 -104 25 -114 8 -14 4 -19 -18 -28
-18 -7 -81 -9 -173 -5 -80 3 -226 10 -324 16 -99 6 -183 13 -186 15 -3 2 -59
7 -123 11 -64 3 -133 12 -154 19 -20 7 -46 10 -56 6 -11 -4 -25 -24 -32 -45
-7 -20 -25 -55 -39 -76 -14 -22 -26 -43 -26 -47 0 -5 -8 -24 -19 -43 -10 -19
-32 -62 -50 -94 -17 -32 -31 -69 -31 -80 0 -12 -5 -27 -11 -33 -6 -6 -22 -53
-35 -104 -14 -52 -30 -112 -35 -134 -5 -22 -17 -58 -26 -80 -8 -22 -19 -67
-24 -100 -4 -33 -17 -121 -29 -195 -11 -74 -27 -175 -35 -225 -8 -49 -19 -110
-25 -135 -6 -25 -12 -54 -15 -65 -2 -11 -8 -42 -15 -70 -6 -27 -16 -99 -21
-160 -5 -60 -14 -141 -20 -180 -6 -38 -10 -113 -10 -165 0 -52 3 -189 6 -305
2 -115 7 -258 9 -316 l5 -106 -35 -34 c-20 -19 -41 -45 -47 -59 -5 -14 -12
-72 -15 -130 -3 -58 -4 -126 -3 -152 l1 -48 -62 -40 c-34 -22 -70 -40 -80 -40
-11 0 -20 -10 -24 -26 -4 -14 -2 -42 4 -62 7 -21 18 -64 26 -97 8 -34 18 -89
22 -123 5 -52 3 -71 -17 -119 -12 -32 -28 -67 -35 -78 -7 -11 -27 -54 -44 -95
-18 -41 -52 -118 -78 -170 -25 -52 -70 -126 -99 -164 -29 -38 -53 -74 -53 -79
0 -5 -10 -22 -22 -39 -13 -16 -47 -56 -76 -88 -29 -32 -72 -71 -95 -86 -23
-15 -48 -35 -54 -43 -7 -8 -13 -27 -13 -43 0 -17 7 -31 19 -38 11 -5 30 -10
43 -10 13 0 41 7 63 15 22 8 54 14 71 15 17 0 43 9 57 21 15 11 32 19 39 18 7
-1 27 1 43 6 17 4 109 30 205 57 96 27 185 54 197 60 13 6 24 9 26 7 1 -2 10
-21 20 -43 10 -21 29 -118 44 -215 14 -97 27 -198 28 -226 1 -27 9 -77 18
-110 8 -33 20 -85 27 -115 6 -30 10 -68 8 -85 l-3 -30 -335 0 c-184 0 -443 -6
-575 -13 -132 -8 -292 -11 -355 -8 -63 3 -185 8 -270 11 -85 3 -210 11 -278
17 -120 11 -123 12 -128 37 -3 14 -12 42 -20 61 -7 19 -18 61 -23 94 -4 32 -6
67 -4 77 3 10 0 32 -6 50 -6 17 -15 133 -21 258 -6 124 -15 298 -21 386 -6 88
-11 396 -11 685 0 289 2 577 5 641 3 64 1 186 -4 270 -4 85 -13 273 -18 419
-6 146 -13 317 -16 380 -3 63 -10 167 -15 230 -5 63 -16 201 -25 305 -8 105
-20 251 -25 325 -5 74 -11 302 -12 505 -2 204 0 485 4 625 4 157 3 272 -3 300
-6 25 -10 88 -10 140 0 52 -4 113 -9 135 -6 22 -12 78 -15 125 -2 47 -6 218
-10 380 -3 162 -10 320 -15 351 -8 45 -7 63 5 93 13 30 14 48 6 89 -6 29 -12
84 -14 123 -4 55 -1 75 12 92 13 16 30 21 86 25 39 2 115 11 170 19 76 12 207
16 545 18 245 1 468 4 495 6 28 3 118 7 200 10 83 3 233 9 335 13 102 3 188 5
192 3z m1696 1 c152 -2 284 -5 292 -5 8 0 157 3 331 7 310 8 317 8 327 -12 6
-11 18 -40 26 -64 9 -24 16 -53 16 -65 0 -11 4 -24 9 -30 5 -5 11 -29 13 -54
3 -25 1 -124 -4 -220 -5 -96 -13 -179 -17 -185 -5 -5 -11 -29 -15 -53 -3 -24
-8 -47 -11 -53 -4 -5 -8 -17 -10 -26 -2 -10 -14 -43 -26 -73 -12 -30 -35 -82
-51 -115 -15 -33 -28 -66 -28 -73 0 -6 -5 -12 -10 -12 -6 0 -15 -11 -19 -24
-5 -13 -25 -48 -44 -78 -19 -29 -42 -60 -51 -67 -9 -7 -16 -19 -16 -27 0 -7
-9 -18 -20 -24 -11 -6 -20 -18 -20 -27 0 -9 -35 -51 -79 -92 -43 -42 -96 -88
-117 -102 -22 -14 -64 -42 -94 -62 -30 -20 -68 -42 -85 -49 -16 -7 -42 -21
-56 -31 -14 -9 -70 -27 -125 -38 -65 -14 -117 -19 -151 -16 -32 3 -55 1 -59
-5 -4 -7 -32 -8 -78 -4 -39 4 -107 13 -151 22 -44 9 -127 34 -185 56 -58 22
-121 47 -140 55 -19 8 -54 24 -77 34 -23 11 -91 68 -152 126 -62 58 -128 131
-149 161 -20 31 -47 75 -58 97 -12 22 -47 90 -79 150 -31 61 -63 121 -70 135
-8 14 -25 50 -38 80 -13 30 -28 71 -34 90 -6 19 -15 55 -21 80 -6 25 -16 77
-22 115 -6 39 -12 97 -14 130 -2 33 3 107 11 165 7 58 18 113 23 122 6 10 10
27 10 38 0 19 4 20 58 13 31 -5 152 -8 267 -7 116 0 322 3 459 7 138 4 251 9
253 11 2 2 128 1 281 -1z m-1023 -2157 c27 -4 91 -9 140 -12 50 -2 104 -7 120
-9 17 -2 62 -6 100 -9 39 -3 111 -8 160 -11 50 -2 160 -5 245 -5 85 -1 216 -7
290 -15 74 -8 232 -17 350 -19 118 -3 249 -10 290 -17 41 -6 101 -11 132 -10
55 2 58 0 73 -30 9 -17 24 -79 32 -138 12 -81 17 -213 19 -566 1 -253 7 -512
13 -575 6 -63 15 -155 22 -205 6 -49 13 -112 16 -140 3 -27 5 -103 4 -169 -1
-74 -7 -140 -17 -175 -9 -31 -24 -96 -35 -146 -10 -49 -25 -115 -33 -145 -9
-30 -23 -75 -31 -100 -8 -25 -17 -57 -20 -72 -4 -23 -11 -28 -36 -28 -17 0
-74 -11 -127 -24 -53 -14 -120 -28 -148 -32 -28 -3 -82 -1 -120 5 -38 6 -105
13 -149 16 -44 3 -126 10 -183 15 -57 5 -107 12 -111 15 -5 2 -46 7 -92 9 -46
3 -151 8 -234 11 -82 3 -190 10 -240 15 -49 5 -124 12 -167 16 l-76 6 -7 37
c-4 20 -8 64 -9 99 -1 35 -7 67 -13 70 -6 4 -13 36 -17 72 -4 36 -11 115 -17
175 -6 61 -10 130 -10 155 0 25 -6 81 -14 125 -8 44 -24 130 -34 190 -11 61
-23 162 -26 225 -4 63 -9 131 -11 150 -2 19 -9 152 -15 295 -6 143 -12 296
-13 340 -2 44 -12 166 -24 270 -11 105 -22 225 -24 268 l-3 79 50 -6z m-129
-96 c3 0 3 -30 1 -67 -2 -40 2 -90 10 -123 8 -30 18 -118 22 -195 5 -77 11
-178 15 -225 3 -47 8 -101 10 -120 3 -19 12 -141 21 -270 9 -129 16 -242 17
-250 0 -8 6 -60 14 -116 7 -55 18 -139 24 -185 6 -46 17 -156 25 -244 8 -88
21 -218 30 -290 9 -71 17 -137 18 -145 1 -10 -13 -19 -43 -28 -25 -7 -79 -23
-120 -36 -41 -13 -90 -27 -109 -30 -18 -3 -84 -31 -146 -61 -63 -30 -118 -55
-123 -55 -6 0 -12 -7 -16 -15 -3 -8 -9 -15 -14 -15 -5 0 -12 26 -15 58 -3 31
-9 138 -11 237 -3 99 -11 263 -17 365 -11 177 -10 188 10 264 12 43 26 129 30
190 5 61 16 131 24 156 8 25 20 79 27 120 6 41 20 131 31 200 11 69 22 136 24
150 3 14 9 36 14 50 5 14 17 63 26 110 9 47 25 105 35 130 11 25 26 75 34 111
8 37 24 82 34 100 11 19 25 52 32 73 7 22 22 55 33 75 11 20 26 46 34 59 7 12
16 22 19 22z m2161 -422 c2 -10 2 -28 0 -40 -2 -13 -4 -5 -4 17 -1 22 1 32 4
23z m2 -138 c6 0 13 -15 16 -32 3 -18 11 -86 18 -151 8 -74 12 -207 10 -355
-1 -130 -4 -262 -6 -292 -3 -30 -5 -63 -6 -72 0 -10 -5 -18 -10 -18 -5 0 -11
35 -14 78 -4 42 -9 116 -12 163 -3 47 -9 108 -13 135 -5 28 -2 94 5 154 9 67
11 157 8 248 -4 91 -2 142 4 142z m1 -1660 c6 0 10 -53 10 -129 0 -108 -3
-130 -16 -135 -9 -3 -27 -6 -41 -6 -25 0 -26 0 -19 62 4 35 11 65 15 68 4 3
11 19 15 35 4 17 12 47 17 68 5 20 14 37 19 37z m99 0 c11 0 22 -4 25 -9 3 -5
23 -11 43 -14 21 -3 54 -10 73 -15 19 -6 71 -22 115 -37 44 -15 114 -44 155
-63 41 -20 82 -43 90 -52 9 -8 33 -24 54 -34 21 -11 46 -32 57 -47 10 -15 19
-29 19 -32 0 -3 -10 -7 -21 -10 -19 -5 -21 -11 -16 -50 6 -42 4 -45 -41 -90
-26 -26 -53 -47 -58 -47 -6 0 -28 -11 -49 -25 -20 -15 -39 -24 -41 -23 -2 2 7
15 19 29 12 13 37 42 55 63 30 34 33 42 27 80 -4 22 -12 51 -19 63 -6 12 -50
55 -97 96 -47 40 -108 84 -135 97 -27 13 -53 30 -57 37 -4 7 -16 13 -27 13
-10 0 -31 5 -47 12 -15 7 -52 17 -82 22 -30 6 -56 17 -59 24 -2 7 5 12 17 12z
m54 -88 c34 -2 79 -12 100 -23 21 -10 44 -19 51 -19 7 0 47 -31 87 -69 41 -38
89 -82 108 -98 19 -17 36 -39 37 -49 2 -10 6 -32 9 -49 6 -27 -1 -37 -57 -93
-36 -34 -78 -70 -95 -80 -17 -9 -64 -39 -104 -67 -41 -27 -101 -58 -134 -68
-33 -9 -134 -28 -225 -41 -91 -13 -194 -27 -230 -30 -36 -3 -127 -8 -202 -11
-76 -3 -138 -3 -138 -1 0 3 26 21 59 39 32 19 68 38 80 42 13 4 33 4 46 1 13
-3 27 -17 32 -33 6 -17 17 -27 32 -28 13 -1 39 14 65 37 l44 38 124 0 c73 0
157 7 208 16 59 12 97 26 124 45 21 16 43 26 48 23 4 -3 31 13 59 35 29 23 57
41 65 41 7 0 23 15 36 32 13 18 31 48 41 66 14 25 16 45 11 78 -5 37 -16 55
-63 101 -31 31 -65 64 -76 74 -11 10 -41 27 -66 37 -30 13 -51 17 -61 11 -9
-5 -28 -4 -47 2 -18 7 -31 18 -31 28 0 15 9 17 63 13z m-2109 -66 c6 -1 11 -7
13 -13 2 -6 -18 -16 -47 -22 -28 -6 -72 -23 -98 -37 -26 -14 -62 -40 -80 -57
-18 -17 -37 -49 -43 -70 -6 -22 -8 -45 -5 -52 3 -8 -6 -24 -19 -37 -12 -13
-48 -36 -79 -53 -53 -29 -56 -29 -73 -12 -13 13 -19 38 -21 92 -3 54 -8 75
-18 75 -7 0 -18 -19 -25 -42 -6 -24 -15 -56 -20 -72 -5 -16 -9 -35 -9 -42 0
-7 12 -24 26 -38 15 -13 24 -29 20 -34 -3 -6 -20 -13 -36 -17 -16 -4 -37 -2
-46 3 -13 7 -17 31 -20 120 l-5 111 53 34 c29 18 87 52 128 74 41 23 91 44
110 47 28 6 31 5 18 -4 -10 -6 -18 -16 -18 -22 0 -6 7 -7 18 -3 9 4 33 13 52
20 19 7 51 16 70 19 19 4 60 13 90 20 30 8 59 13 64 12z m2102 -26 c7 0 16 -4
19 -10 3 -5 17 -10 30 -10 15 0 48 -24 97 -73 41 -40 78 -85 82 -100 4 -17 1
-38 -9 -57 -9 -17 -37 -46 -63 -65 -26 -19 -52 -35 -59 -35 -7 0 -16 -6 -20
-13 -4 -7 -26 -23 -48 -36 -22 -13 -65 -32 -95 -43 -40 -14 -95 -21 -199 -25
l-144 -6 24 32 c12 17 28 31 35 31 6 0 44 14 84 30 40 17 80 30 89 30 9 0 39
11 68 24 37 17 62 40 92 80 23 30 41 62 41 70 0 8 -10 27 -23 43 -13 15 -28
46 -35 68 -10 35 -10 42 5 53 9 6 22 12 29 12z m-2111 -61 c6 0 -6 -13 -25
-29 -19 -17 -61 -48 -92 -70 -32 -22 -59 -40 -61 -40 -2 0 -4 8 -4 17 0 9 17
33 37 53 20 20 57 43 85 52 28 9 55 17 60 17z m134 -85 c25 -1 117 -5 205 -9
147 -8 160 -10 184 -32 14 -12 31 -23 38 -23 8 0 31 -9 51 -20 21 -11 50 -20
64 -20 15 0 50 -12 78 -26 43 -23 70 -28 178 -35 71 -5 192 -11 269 -15 100
-4 143 -3 148 5 4 6 16 11 27 11 11 0 65 22 119 49 63 31 123 53 169 62 39 7
74 10 77 6 3 -3 1 -22 -6 -41 -6 -20 -28 -49 -48 -66 -20 -16 -40 -30 -45 -30
-5 0 -23 -11 -40 -24 -18 -13 -54 -29 -82 -36 -27 -7 -108 -15 -180 -17 -81
-2 -177 2 -255 11 -69 9 -145 20 -170 25 -25 5 -81 19 -125 31 -44 12 -114 25
-155 30 -41 4 -88 13 -103 19 -16 6 -47 11 -71 11 -23 0 -61 9 -84 20 -22 11
-50 20 -60 20 -11 0 -64 13 -119 29 -54 15 -110 34 -123 41 -22 12 -23 14 -6
20 10 3 39 5 65 4z m582 -34 c24 0 76 -5 114 -11 39 -6 99 -12 135 -14 36 -2
137 -9 224 -14 88 -6 174 -14 193 -17 18 -3 30 -10 27 -15 -2 -5 -27 -15 -55
-23 -41 -13 -74 -13 -192 -5 -78 5 -189 17 -245 25 -57 8 -121 24 -143 36 -21
11 -45 18 -52 15 -7 -3 -21 1 -32 9 -17 13 -15 14 26 14z m1341 -6 c3 -2 0
-17 -8 -32 -7 -16 -22 -35 -31 -44 -10 -8 -41 -24 -70 -36 -28 -12 -60 -22
-70 -22 -10 0 -27 -6 -38 -14 -11 -7 -30 -16 -42 -20 -18 -6 -22 -4 -17 9 4 9
24 26 46 38 22 12 57 31 77 42 20 11 54 31 76 45 22 13 47 27 55 31 8 4 18 5
22 3z m-2063 -4 c3 0 12 -6 20 -14 9 -8 50 -26 91 -40 41 -15 84 -29 95 -32
11 -3 45 -9 75 -15 30 -6 73 -18 95 -28 22 -10 91 -24 155 -31 63 -6 126 -14
140 -16 14 -2 32 -5 40 -7 8 -2 22 -6 30 -9 8 -3 44 -11 80 -17 36 -7 106 -18
155 -26 50 -7 171 -17 270 -21 178 -8 179 -8 125 -21 -37 -9 -94 -12 -175 -9
-66 3 -214 7 -330 10 -115 2 -274 9 -353 14 -78 6 -148 14 -155 20 -6 5 -37
15 -67 22 -30 7 -71 18 -90 26 -19 7 -52 18 -72 24 -21 6 -42 9 -47 6 -5 -4
-27 0 -48 8 -21 8 -55 17 -75 21 -21 3 -38 9 -38 13 0 4 -10 12 -22 17 -12 6
-23 15 -25 20 -1 6 25 27 60 47 34 21 64 38 66 38z m-189 -110 c4 0 25 -7 46
-16 22 -8 53 -21 69 -29 17 -7 47 -20 69 -29 21 -9 47 -16 57 -16 10 0 38 -6
61 -14 24 -7 77 -24 118 -36 41 -12 84 -26 95 -31 11 -5 49 -13 85 -19 36 -5
128 -13 205 -17 77 -4 163 -6 190 -5 28 1 120 2 205 2 85 1 184 -2 220 -5 l65
-7 -33 -29 -33 -30 -212 6 c-117 4 -295 8 -397 10 -102 2 -225 6 -275 10 -49
4 -115 15 -145 25 -30 10 -98 27 -150 39 -52 12 -111 26 -130 31 -19 5 -60 13
-90 18 -30 6 -75 15 -99 22 -24 6 -50 14 -57 18 -8 5 13 24 58 55 39 26 74 47
78 47z m2931 -41 c10 -19 24 -48 32 -65 8 -18 36 -51 62 -75 27 -24 80 -75
120 -114 40 -38 102 -97 138 -130 37 -33 92 -95 122 -137 31 -42 66 -85 79
-95 12 -10 25 -23 27 -29 2 -6 40 -45 84 -86 44 -41 109 -94 145 -119 36 -24
72 -48 81 -54 9 -5 48 -32 88 -58 39 -27 71 -53 71 -57 0 -5 -4 -11 -8 -14 -4
-2 -46 -10 -92 -16 -47 -7 -105 -12 -130 -12 -25 0 -74 -6 -110 -14 -36 -8
-81 -17 -100 -19 -19 -3 -84 -10 -145 -16 -60 -6 -157 -13 -214 -16 -65 -3
-166 1 -270 12 -121 12 -204 15 -306 10 -77 -3 -171 -13 -210 -22 -38 -8 -81
-19 -95 -23 -21 -6 -25 -13 -23 -41 1 -26 11 -41 43 -69 23 -19 94 -87 158
-151 67 -67 136 -126 162 -139 25 -12 56 -33 70 -46 14 -12 41 -30 60 -39 19
-8 44 -21 55 -28 11 -6 40 -28 65 -47 24 -19 65 -46 90 -59 25 -13 52 -30 61
-37 8 -8 21 -14 27 -14 6 0 16 -10 23 -22 l11 -21 -168 7 c-93 3 -194 8 -224
10 -30 2 -104 9 -165 15 -60 7 -164 21 -230 32 -66 11 -150 27 -186 34 -36 8
-90 23 -120 34 -30 11 -90 30 -133 41 -44 11 -111 35 -150 53 -39 17 -74 33
-78 33 -4 1 -16 2 -26 3 -10 0 -42 16 -71 35 -29 19 -65 37 -79 41 -15 3 -52
17 -82 31 -30 14 -86 42 -125 61 -38 20 -86 46 -106 59 -31 19 -38 31 -47 76
-6 29 -16 76 -22 103 -6 28 -12 57 -14 65 -2 8 -6 22 -9 30 -3 8 -8 31 -11 50
-4 19 -7 42 -7 50 -1 8 -7 40 -14 70 -8 30 -21 96 -30 145 -9 50 -18 102 -21
117 -5 23 4 34 68 87 40 34 78 65 84 69 5 4 19 13 30 20 10 7 27 15 37 18 9 4
17 10 17 14 0 5 20 22 45 39 42 28 55 31 178 40 72 6 218 15 322 21 105 7 243
20 308 31 65 10 131 19 146 19 15 0 31 4 37 8 5 5 34 14 64 21 30 8 91 31 135
52 44 21 94 47 110 59 17 11 36 20 43 20 8 0 50 18 94 40 44 22 94 50 111 63
18 12 47 35 66 51 l34 28 18 -33z m-3136 -108 c6 -4 24 -8 40 -9 17 -1 57 -11
90 -21 33 -11 86 -22 118 -25 32 -4 74 -13 94 -21 19 -8 50 -15 67 -16 17 0
63 -9 101 -19 l70 -19 -105 6 c-79 4 -154 18 -300 54 -107 27 -202 52 -210 55
-12 5 -11 8 5 14 11 4 25 4 30 1z m-153 -71 c5 0 23 -7 41 -17 18 -9 64 -24
102 -35 39 -10 108 -25 154 -34 46 -8 100 -21 120 -29 20 -8 56 -16 81 -20 25
-3 88 -10 140 -15 52 -4 167 -14 255 -20 88 -6 176 -13 195 -16 19 -2 41 -6
49 -9 8 -3 95 -6 193 -6 98 0 180 -4 183 -9 3 -4 -19 -24 -49 -44 -30 -20 -57
-36 -61 -36 -4 0 -28 -18 -53 -41 -26 -22 -59 -43 -74 -46 -16 -3 -30 -14 -35
-27 -4 -11 -5 -25 -3 -31 2 -5 10 -37 18 -70 7 -33 23 -98 33 -145 11 -47 27
-114 35 -150 8 -36 22 -108 32 -160 9 -52 20 -99 23 -105 4 -5 9 -22 13 -37 5
-23 3 -28 -13 -28 -11 0 -23 4 -26 10 -3 5 -30 25 -59 45 -29 19 -60 35 -68
35 -9 0 -22 -7 -29 -16 -7 -9 -14 -35 -15 -58 -1 -22 -5 -133 -9 -246 -5 -137
-3 -231 4 -284 6 -44 15 -84 20 -90 5 -6 11 -28 13 -49 2 -20 1 -36 -3 -35 -4
2 -35 29 -68 61 -33 32 -79 81 -103 109 -24 28 -77 88 -119 132 -42 45 -114
120 -158 167 -45 48 -111 124 -148 170 -36 46 -79 100 -95 119 -17 19 -49 56
-72 82 -22 26 -49 48 -59 48 -10 0 -41 -17 -70 -38 -29 -21 -70 -48 -92 -59
-22 -11 -56 -27 -75 -36 -19 -8 -79 -32 -134 -51 -54 -20 -102 -36 -106 -36
-4 0 -14 30 -23 68 -9 37 -20 92 -26 122 -6 30 -15 89 -22 130 -6 41 -13 86
-15 100 -2 14 -10 52 -20 85 -9 33 -20 78 -25 100 -4 22 -8 58 -9 81 0 22 5
45 11 51 6 6 20 44 31 84 11 41 28 112 37 159 l17 84 52 31 c28 16 57 36 64
43 6 6 16 12 20 12z m1246 -91 c59 0 130 -4 157 -9 35 -5 1 -8 -112 -6 -88 0
-159 4 -156 9 2 4 52 7 111 6z m366 -11 c41 -1 54 -3 42 -10 -10 -6 -33 -5
-59 0 l-42 10 59 0z m-1852 -75 c4 -15 3 -32 -2 -37 -6 -6 -10 -25 -10 -43 0
-18 -4 -33 -10 -33 -6 0 -10 26 -10 58 0 33 5 63 12 70 10 10 14 7 20 -15z
m-20 -498 c10 -44 23 -109 28 -145 5 -36 14 -97 19 -135 5 -39 15 -83 20 -98
6 -15 12 -50 13 -77 l3 -51 -58 -24 c-32 -13 -104 -36 -159 -50 -56 -14 -110
-25 -122 -25 -12 0 -38 -9 -58 -20 -21 -11 -55 -23 -78 -26 -22 -4 -40 -3 -40
1 0 3 21 34 47 68 26 34 59 79 75 99 15 20 28 41 28 46 0 5 17 29 39 53 21 24
41 58 45 76 4 17 13 36 20 42 8 6 21 33 31 59 10 26 29 64 41 84 13 20 26 49
30 65 4 15 18 53 32 83 l26 55 18 -80z m632 -365 c6 0 23 -18 39 -39 15 -22
27 -42 27 -45 0 -3 49 -56 110 -118 60 -62 110 -118 110 -124 0 -6 14 -24 31
-40 17 -16 61 -58 96 -94 36 -36 106 -110 157 -165 50 -55 155 -164 233 -242
106 -108 147 -143 166 -143 14 0 28 7 31 16 3 9 6 27 6 41 0 14 -6 31 -13 37
-8 6 -26 40 -41 76 -15 36 -29 72 -31 80 -2 8 -11 44 -20 79 -12 47 -16 108
-17 236 0 95 3 198 7 231 4 32 9 62 11 65 2 3 36 -10 76 -31 l73 -37 23 -69
c13 -38 27 -100 32 -139 5 -38 12 -90 16 -115 3 -25 13 -60 21 -79 9 -19 19
-69 24 -111 5 -43 16 -93 24 -113 8 -20 15 -50 15 -66 0 -16 5 -33 10 -36 6
-3 10 -18 10 -33 0 -15 11 -51 25 -80 14 -30 25 -66 25 -81 l0 -26 -177 2
c-98 2 -320 10 -493 19 -173 8 -354 22 -403 29 -48 8 -117 15 -155 15 -37 1
-127 7 -200 14 -73 7 -136 16 -142 22 -5 5 -11 32 -14 59 -3 28 -12 94 -21
149 -8 54 -18 102 -20 106 -3 4 -14 61 -26 126 -12 66 -25 164 -30 219 -4 55
-12 113 -18 128 -6 16 -11 38 -11 50 0 15 9 26 28 34 15 6 45 17 67 23 22 7
64 23 93 36 28 13 52 28 52 34 0 5 13 10 29 10 16 0 42 11 58 24 15 13 38 26
50 30 11 4 27 13 33 21 7 8 18 15 24 15z"/>
<g>
<path d="M8413 10191 c-10 2 -33 3 -51 1 -24 -2 -36 -11 -47 -32 -8 -16 -15
-42 -15 -57 1 -15 11 -40 23 -54 14 -17 36 -28 64 -33 39 -6 44 -4 67 27 15
19 26 45 26 60 0 14 -11 39 -25 55 -14 16 -33 31 -42 33z"/>
</g>
<g>
<path d="M6528 10155 c-33 6 -41 3 -80 -33 l-43 -40 13 -48 c7 -27 18 -54 24
-61 6 -7 31 -13 56 -13 33 0 54 7 80 26 33 25 34 29 30 76 -3 30 -13 57 -24
68 -11 10 -36 22 -56 25z"/>
</g>
<g>
<path d="M7441 9739 c-20 -1 -49 -4 -66 -8 -16 -4 -46 -16 -65 -26 -19 -10
-51 -30 -70 -45 -19 -15 -45 -30 -57 -34 -13 -4 -27 -21 -35 -42 -6 -18 -14
-34 -18 -34 -3 0 -5 -33 -5 -73 0 -60 4 -78 25 -108 13 -20 44 -49 69 -65 42
-26 52 -28 160 -30 64 -1 130 0 147 3 23 4 33 12 42 36 10 25 9 35 -3 54 -9
14 -26 23 -43 24 -15 1 -68 0 -119 -1 -51 -1 -108 3 -128 10 -23 8 -40 21 -46
37 -5 13 -9 35 -9 47 0 13 9 35 20 49 12 14 42 40 67 57 35 24 55 31 80 28 27
-3 41 2 69 26 31 27 34 35 28 64 -6 29 -10 32 -43 31z"/>
</g>
<g>
<path d="M8121 8970 c-9 0 -27 -6 -41 -13 -20 -10 -26 -21 -28 -53 -2 -33 3
-48 24 -73 18 -22 32 -30 43 -26 9 4 21 8 27 9 7 1 19 8 28 15 9 8 16 29 16
49 0 25 -8 44 -27 64 -15 15 -34 28 -42 28z"/>
</g>
<g>
<path d="M6767 8930 c-8 0 -25 -9 -38 -19 -18 -14 -24 -29 -24 -59 0 -22 7
-47 14 -56 8 -9 28 -16 50 -16 20 0 41 4 48 8 6 4 17 20 22 35 6 16 11 39 11
52 0 16 -10 27 -34 39 -19 9 -41 16 -49 16z"/>
</g>
<g>
<path d="M7451 8829 c-14 8 -23 6 -36 -8 -10 -12 -18 -41 -21 -73 -2 -29 -8
-91 -13 -138 -5 -47 -15 -130 -21 -185 -6 -55 -16 -129 -22 -165 -5 -36 -11
-84 -11 -106 -1 -23 5 -49 12 -58 8 -9 28 -16 50 -16 20 1 60 6 90 13 29 7 59
21 67 32 8 11 11 29 7 44 -3 14 -11 32 -16 39 -7 8 -21 12 -38 8 -15 -3 -39
-8 -54 -12 -25 -6 -27 -5 -21 12 4 10 9 71 12 134 2 63 8 156 14 205 6 50 15
119 21 155 5 35 8 74 4 87 -3 12 -14 27 -24 32z"/>
</g>
<g>
<path d="M8000 7880 c-9 5 -19 7 -22 5 -2 -2 -62 -6 -134 -9 -71 -3 -136 -7
-144 -10 -8 -3 -35 -7 -60 -10 -25 -3 -94 -12 -155 -20 -74 -11 -141 -14 -205
-10 -74 5 -98 3 -107 -7 -6 -8 -10 -27 -9 -44 1 -22 8 -33 29 -43 16 -8 63
-16 105 -19 44 -3 138 2 217 12 77 9 215 22 306 28 116 9 172 16 185 27 10 8
20 15 22 16 2 1 0 18 -4 38 -3 20 -14 41 -24 46z"/>
</g>
</g>
</g>
</svg>
