<?xml version="1.0" standalone="no"?>
<!DOCTYPE svg PUBLIC "-//W3C//DTD SVG 20010904//EN"
 "http://www.w3.org/TR/2001/REC-SVG-20010904/DTD/svg10.dtd">
<svg version="1.0" xmlns="http://www.w3.org/2000/svg"
 width="1509.000000pt" height="1509.000000pt" viewBox="0 0 1509.000000 1509.000000"
 preserveAspectRatio="xMidYMid meet">
<metadata>
Created by potrace 1.16, written by Peter Selinger 2001-2019
</metadata>
<g transform="translate(0.000000,1509.000000) scale(0.100000,-0.100000)"
fill="#000000" stroke="none">
<g>
<path d="M2889 13990 c-3 0 -13 -6 -23 -13 -15 -11 -17 -23 -13 -63 3 -27 10
-69 16 -94 6 -25 15 -70 21 -100 6 -30 16 -73 21 -95 5 -22 16 -69 24 -105 8
-36 24 -92 34 -125 11 -33 24 -78 30 -100 5 -22 20 -69 31 -105 12 -36 25 -85
31 -109 5 -24 20 -63 33 -87 13 -24 30 -60 37 -81 6 -21 15 -40 18 -43 3 -3
17 -27 30 -54 14 -26 44 -70 68 -96 24 -26 43 -51 43 -55 0 -4 12 -22 28 -40
15 -18 41 -52 57 -75 17 -23 60 -66 97 -96 37 -30 72 -54 77 -54 6 0 15 -9 21
-19 5 -11 11 -28 13 -38 1 -10 13 -47 26 -84 20 -56 30 -70 72 -100 27 -18 56
-39 63 -46 7 -6 35 -18 62 -27 27 -8 105 -22 174 -30 69 -8 190 -23 270 -32
80 -9 163 -19 185 -21 22 -3 78 -6 125 -9 47 -2 131 -5 187 -7 55 -1 105 2
109 6 5 4 3 17 -4 27 -7 11 -12 26 -12 33 0 7 -51 41 -113 75 -63 34 -119 62
-125 62 -7 0 -12 4 -12 9 0 5 -33 23 -72 39 -40 17 -92 35 -115 41 -33 9 -43
17 -43 32 0 16 3 18 18 10 10 -5 47 -10 83 -11 35 -1 93 4 129 10 36 6 72 17
80 24 8 8 30 17 49 21 19 4 66 22 105 40 39 18 78 35 86 39 8 3 29 15 45 26
17 11 45 27 64 36 19 8 66 38 106 65 40 27 80 49 89 49 9 0 16 4 16 8 0 5 12
14 26 21 15 6 59 39 99 71 41 33 77 60 81 60 4 0 39 24 78 54 39 30 91 74 117
98 25 23 66 63 92 86 26 24 55 55 63 68 9 13 22 24 29 24 7 0 63 53 124 119
61 65 111 125 111 132 0 8 -10 23 -23 35 -12 11 -28 24 -35 28 -7 4 -32 -7
-61 -28 -27 -20 -54 -36 -61 -36 -7 0 -18 -7 -24 -15 -6 -9 -23 -17 -36 -19
-14 -1 -34 -6 -45 -10 -11 -4 -36 -14 -55 -21 -19 -7 -55 -16 -80 -20 -25 -4
-54 -12 -64 -17 -11 -6 -53 -14 -94 -19 -41 -5 -79 -12 -86 -18 -6 -5 -37 -14
-69 -21 -32 -6 -84 -12 -115 -12 -31 0 -76 -6 -100 -14 -23 -8 -58 -14 -77
-14 -18 0 -37 5 -40 10 -4 6 10 35 29 64 20 30 36 57 36 61 0 3 16 29 35 58
23 34 31 55 25 61 -6 6 -10 20 -10 32 0 12 -6 26 -12 32 -7 5 -40 13 -73 17
-33 4 -89 7 -125 6 -35 -1 -97 3 -137 10 -52 8 -76 9 -86 1 -9 -8 -21 -7 -42
3 -17 7 -62 21 -102 29 -39 9 -82 20 -95 25 -12 5 -27 10 -33 11 -5 1 -19 6
-31 10 -16 6 -26 3 -39 -13 -11 -12 -21 -46 -25 -81 -3 -34 -14 -78 -23 -98
-8 -20 -33 -63 -55 -95 -21 -32 -42 -68 -46 -81 -7 -20 -12 -22 -39 -17 -18 4
-70 20 -117 35 -47 15 -125 48 -175 73 -49 25 -101 51 -115 57 -14 6 -35 16
-46 23 -12 7 -28 18 -35 23 -8 6 -50 31 -94 54 -44 24 -101 60 -126 82 -26 21
-50 38 -54 38 -4 0 -65 38 -134 84 -69 47 -158 115 -196 153 -39 38 -84 87
-100 108 -17 22 -34 43 -40 47 -5 4 -13 8 -16 8z m85 -210 c3 0 23 -18 43 -41
20 -22 50 -47 67 -56 17 -9 55 -34 84 -56 29 -22 74 -54 101 -71 27 -17 93
-61 147 -97 55 -37 123 -79 152 -95 30 -16 93 -50 140 -76 48 -26 128 -68 177
-92 50 -25 105 -48 124 -51 19 -3 38 -8 42 -11 5 -3 39 -12 76 -20 38 -8 90
-17 117 -20 l49 -6 -7 32 c-3 18 -6 39 -6 46 0 8 -7 14 -15 14 -8 0 -15 3 -15
6 0 3 10 19 21 36 12 16 33 50 47 76 14 26 33 63 43 83 10 20 20 49 23 64 3
15 7 29 9 31 2 2 19 -1 38 -6 18 -6 70 -15 114 -21 44 -6 121 -12 170 -14 50
-3 126 -7 170 -10 44 -3 90 -9 103 -12 12 -3 22 -11 22 -19 0 -8 -13 -36 -30
-62 -16 -27 -30 -54 -30 -61 0 -6 -16 -29 -35 -50 -34 -37 -38 -39 -71 -29
-25 7 -39 6 -50 -3 -8 -6 -14 -22 -14 -35 0 -17 8 -28 26 -34 15 -6 38 -19 52
-30 19 -16 40 -20 96 -20 39 0 98 6 131 14 33 8 107 17 165 21 58 3 137 15
175 25 39 10 89 21 112 25 24 4 64 17 90 30 27 12 74 26 106 29 34 5 57 4 57
-2 0 -5 -19 -28 -42 -50 -24 -22 -72 -66 -106 -98 -35 -33 -72 -63 -83 -68
-10 -5 -21 -17 -24 -26 -3 -9 -16 -22 -29 -28 -13 -6 -61 -40 -106 -76 -45
-36 -86 -66 -91 -66 -4 0 -17 -10 -28 -21 -11 -12 -51 -36 -88 -53 -38 -17
-82 -41 -98 -54 -17 -13 -48 -35 -70 -49 -22 -15 -60 -37 -85 -50 -25 -13 -52
-27 -60 -32 -8 -5 -26 -13 -40 -19 -14 -5 -47 -18 -75 -27 -27 -10 -59 -26
-71 -36 -11 -11 -23 -19 -26 -19 -4 0 -19 -5 -35 -11 -15 -7 -37 -13 -48 -15
-11 -2 -59 -5 -107 -7 -52 -1 -93 -8 -100 -15 -6 -6 -18 -12 -25 -12 -7 0 -33
42 -58 93 -30 61 -63 110 -95 143 -28 28 -78 65 -114 82 -35 17 -75 33 -88 36
-12 3 -48 12 -78 20 -41 12 -69 13 -116 7 -34 -5 -75 -17 -90 -27 -16 -10 -44
-33 -61 -52 -18 -19 -38 -53 -44 -76 -6 -22 -18 -58 -27 -78 -9 -21 -19 -38
-22 -38 -4 0 -25 13 -48 30 -22 16 -78 77 -124 136 -46 58 -96 125 -113 148
-16 24 -43 72 -59 107 -16 35 -34 75 -41 89 -6 14 -20 54 -29 90 -10 36 -28
97 -41 135 -12 39 -30 97 -40 130 -9 33 -23 80 -30 105 -8 25 -23 79 -34 120
-11 41 -23 103 -27 138 -3 34 -4 62 0 62z m905 -1115 c36 -3 69 -9 75 -15 5
-5 18 -10 28 -10 10 0 44 -14 76 -31 31 -16 67 -40 80 -51 l22 -22 -20 -21
c-11 -12 -20 -28 -20 -37 0 -8 10 -27 21 -42 16 -21 27 -26 45 -22 12 3 29 3
38 0 8 -3 20 -30 27 -60 9 -42 10 -57 1 -66 -7 -7 -12 -19 -12 -28 0 -8 15
-25 33 -37 17 -11 58 -27 90 -34 32 -7 60 -16 63 -21 3 -4 17 -8 31 -8 15 0
55 -14 90 -32 35 -17 61 -33 58 -36 -2 -3 -46 -4 -97 -3 -51 1 -109 5 -128 7
-19 3 -42 12 -50 19 -8 7 -33 15 -55 18 -22 2 -65 14 -95 27 -30 12 -70 25
-88 30 -30 7 -38 5 -70 -27 -36 -34 -39 -35 -102 -30 -49 3 -77 11 -108 31
-23 14 -46 26 -51 26 -5 0 -22 15 -39 34 -17 19 -38 61 -47 93 -12 39 -15 76
-11 113 3 30 9 73 12 95 4 24 20 57 41 82 19 24 48 47 66 53 18 5 61 7 96 5z"/>
<g>
<path d="M3897 12357 c-12 -1 -30 -10 -39 -19 -10 -10 -18 -26 -18 -36 0 -11
9 -27 20 -37 10 -9 31 -17 45 -17 14 0 32 5 40 12 8 7 15 20 15 30 0 9 -9 29
-20 43 -12 15 -29 25 -43 24z"/>
</g>
</g>
<g>
<path d="M8483 13457 c-67 -1 -130 -5 -140 -9 -10 -3 -52 -14 -93 -23 -41 -9
-88 -23 -104 -31 -16 -8 -33 -14 -39 -14 -5 0 -23 -11 -39 -26 -17 -14 -43
-28 -59 -31 -15 -3 -36 -14 -45 -24 -9 -11 -25 -19 -35 -19 -10 0 -30 -12 -46
-27 -15 -16 -45 -36 -65 -47 -20 -10 -52 -33 -70 -51 -18 -17 -46 -49 -63 -70
-16 -21 -42 -52 -57 -70 -16 -18 -28 -36 -28 -40 0 -4 -16 -27 -35 -51 -19
-23 -35 -47 -35 -53 0 -6 -20 -53 -44 -105 -25 -53 -49 -123 -55 -162 -7 -38
-18 -78 -26 -90 -12 -19 -17 -20 -68 -10 -31 6 -59 15 -63 19 -4 4 -32 7 -63
7 -31 -1 -82 -7 -113 -14 -31 -8 -78 -29 -104 -47 -26 -19 -68 -55 -93 -80
-25 -25 -50 -48 -56 -50 -5 -2 -28 -24 -49 -49 -22 -25 -82 -90 -135 -145 -53
-55 -117 -127 -144 -160 -26 -33 -68 -89 -95 -124 -26 -36 -57 -75 -69 -88
-13 -13 -23 -30 -23 -38 0 -8 -5 -17 -11 -20 -5 -4 -20 -30 -33 -58 -13 -29
-30 -72 -39 -97 -9 -25 -21 -75 -26 -112 -5 -38 -8 -92 -5 -120 2 -29 7 -73
11 -98 3 -25 8 -52 9 -60 2 -8 11 -67 20 -130 8 -63 21 -128 29 -145 7 -16 27
-59 44 -94 17 -35 42 -77 54 -94 12 -16 49 -56 82 -89 33 -32 88 -75 123 -95
35 -19 81 -40 104 -46 22 -5 42 -16 45 -23 3 -7 -2 -21 -11 -30 -9 -8 -21 -24
-26 -35 -6 -10 -17 -19 -25 -19 -8 0 -15 -6 -15 -12 0 -7 -12 -26 -26 -43 -14
-16 -36 -53 -49 -81 -13 -29 -26 -66 -30 -83 -3 -17 -11 -33 -16 -36 -5 -4 -9
-21 -9 -40 0 -19 -4 -36 -9 -39 -4 -3 -11 -25 -14 -49 -3 -23 -2 -74 4 -111 5
-38 16 -83 23 -100 8 -17 25 -56 38 -86 14 -30 48 -81 77 -113 29 -31 65 -60
80 -64 14 -3 39 -14 55 -24 16 -10 33 -16 38 -13 4 3 19 -4 33 -14 14 -11 58
-27 98 -35 39 -9 89 -18 109 -22 21 -3 95 -6 165 -6 71 0 173 7 227 16 55 9
103 18 107 21 4 2 11 -1 15 -8 5 -7 9 -128 10 -268 1 -140 5 -282 8 -315 3
-33 11 -81 17 -108 6 -26 9 -53 6 -60 -3 -7 -1 -37 4 -67 5 -30 11 -111 13
-180 3 -69 9 -228 15 -353 6 -125 13 -232 16 -236 2 -5 7 -44 10 -87 3 -44 10
-102 16 -131 5 -28 10 -71 10 -95 0 -23 0 -54 1 -68 0 -14 -2 -83 -6 -155 -3
-71 -8 -184 -11 -250 -4 -66 -11 -138 -17 -160 -6 -22 -14 -65 -20 -95 -5 -30
-12 -75 -17 -100 -4 -25 -16 -70 -25 -100 -10 -30 -28 -80 -41 -110 -12 -30
-35 -84 -50 -120 -15 -36 -32 -74 -38 -85 -6 -11 -24 -44 -39 -74 -15 -30 -28
-61 -28 -69 0 -11 -9 -13 -43 -8 -24 4 -56 2 -72 -4 -15 -6 -29 -9 -31 -7 -3
2 10 30 27 63 22 41 33 76 36 119 3 45 0 68 -14 94 -14 26 -29 38 -64 48 -36
12 -54 12 -86 4 -32 -9 -51 -24 -82 -64 -22 -28 -48 -63 -58 -77 -10 -14 -62
-68 -115 -121 -88 -87 -101 -97 -142 -101 -28 -3 -60 -17 -89 -38 -33 -23 -54
-50 -77 -98 -18 -37 -37 -78 -44 -91 -6 -13 -11 -30 -11 -39 0 -9 -18 -20 -45
-28 -25 -8 -65 -14 -90 -14 -25 0 -77 -7 -115 -15 -39 -9 -106 -18 -150 -21
-44 -3 -87 -7 -94 -10 -8 -3 -53 -8 -100 -12 -48 -4 -122 -7 -166 -6 -44 0
-145 3 -225 7 -80 5 -199 14 -265 22 -66 8 -165 19 -220 25 -95 10 -101 10
-117 -10 -9 -11 -21 -20 -26 -20 -5 0 -15 -7 -22 -15 -7 -9 -14 -35 -16 -58
-1 -23 -5 -59 -9 -80 -6 -27 -3 -49 10 -77 10 -22 22 -40 26 -40 5 0 20 -20
34 -44 14 -24 32 -50 40 -56 8 -7 15 -22 15 -35 0 -12 9 -30 20 -40 11 -10 20
-23 20 -30 0 -7 7 -25 15 -42 8 -16 24 -38 35 -48 11 -10 20 -25 20 -33 0 -7
16 -46 35 -85 20 -40 47 -87 61 -106 13 -19 46 -56 72 -83 26 -26 52 -48 58
-48 5 0 22 -23 38 -51 15 -28 52 -74 82 -102 31 -29 69 -71 85 -95 16 -24 29
-45 29 -48 0 -2 8 -12 18 -21 10 -10 27 -23 38 -29 10 -6 30 -27 44 -47 14
-21 45 -47 68 -59 24 -11 48 -31 54 -43 5 -12 28 -30 49 -39 22 -10 57 -34 78
-54 21 -21 55 -52 76 -69 20 -18 49 -39 63 -47 15 -8 45 -22 67 -32 22 -9 46
-25 53 -36 7 -10 24 -18 36 -18 13 0 29 -7 36 -16 8 -8 25 -14 39 -12 22 3 26
9 29 39 3 32 -1 37 -45 66 -26 17 -79 49 -118 73 -38 23 -93 59 -122 79 -28
20 -86 61 -130 93 -43 31 -125 105 -183 165 -58 59 -132 139 -165 177 -33 39
-89 102 -125 140 -35 39 -80 87 -100 107 -19 20 -51 64 -70 98 -19 34 -49 87
-67 117 -17 30 -35 63 -38 74 -6 18 -3 19 27 14 18 -4 47 -15 63 -25 17 -10
54 -30 83 -44 29 -14 59 -25 66 -25 7 0 18 -6 24 -13 6 -7 57 -28 114 -46 57
-19 110 -38 118 -42 8 -5 46 -24 83 -44 37 -19 75 -35 83 -35 8 0 22 -4 32 -9
9 -5 49 -20 87 -32 39 -13 77 -28 85 -35 8 -7 29 -16 45 -20 17 -3 55 -18 85
-32 30 -13 66 -30 80 -37 14 -7 49 -20 79 -29 29 -9 59 -20 65 -24 6 -5 43
-16 81 -25 39 -9 115 -21 170 -27 55 -6 114 -15 130 -20 17 -5 67 -11 112 -13
45 -3 86 -7 90 -10 4 -3 78 -8 163 -12 85 -5 171 -9 190 -10 19 -1 42 -5 50
-8 8 -3 50 -8 94 -11 43 -3 84 -11 92 -17 8 -6 14 -21 14 -33 0 -12 4 -26 9
-32 5 -5 19 -43 32 -84 13 -41 24 -79 25 -85 0 -5 4 -19 8 -30 4 -11 15 -36
25 -55 10 -19 21 -48 26 -65 4 -16 9 -41 11 -53 3 -13 11 -34 18 -45 7 -12 21
-49 30 -82 9 -33 33 -93 52 -133 20 -40 38 -89 41 -110 2 -20 20 -76 40 -124
l36 -88 -39 -77 c-21 -43 -39 -82 -40 -88 -2 -5 -10 -34 -18 -64 -8 -30 -13
-57 -11 -61 2 -4 6 -38 9 -76 3 -38 15 -94 26 -124 11 -30 20 -56 20 -57 0 -2
-18 -3 -40 -3 -23 0 -55 -7 -71 -16 -19 -9 -29 -21 -27 -32 2 -9 16 -21 31
-26 19 -7 47 -6 90 3 34 8 72 15 85 16 13 2 34 10 47 19 13 9 31 16 38 16 8 0
25 8 38 19 13 10 42 21 64 25 22 4 50 14 63 22 15 10 34 13 52 9 16 -3 34 -13
41 -21 6 -8 17 -14 24 -14 6 0 20 -8 29 -19 13 -14 34 -19 94 -22 42 -1 131
-2 197 0 94 2 123 6 132 18 10 13 20 9 75 -34 35 -28 73 -55 86 -62 12 -6 51
-14 86 -18 47 -4 76 -1 112 12 27 10 60 29 73 43 13 15 19 28 14 29 -6 2 -23
-2 -39 -8 -16 -7 -31 -13 -34 -14 -3 -1 -13 -5 -23 -10 -10 -4 -44 -5 -74 -2
-53 6 -60 10 -120 69 -46 45 -63 70 -63 89 0 14 -12 57 -26 95 -14 38 -26 74
-27 79 -2 6 -23 49 -49 97 -26 48 -64 108 -85 133 -21 26 -68 66 -104 91 -37
24 -72 44 -78 44 -7 0 -30 9 -53 21 -22 11 -51 19 -64 16 -12 -2 -27 -1 -32 2
-6 3 -31 60 -57 126 -25 66 -56 140 -67 165 -12 25 -29 68 -40 95 -10 28 -41
118 -69 200 -27 83 -53 159 -58 170 -4 11 -16 43 -25 70 -10 28 -20 61 -23 75
-4 20 0 26 16 27 11 1 67 11 123 23 57 12 114 24 128 26 14 3 61 14 105 25 44
11 95 24 112 30 18 6 36 8 41 5 4 -2 28 4 52 16 25 11 79 28 120 39 41 11 87
28 102 39 15 11 62 27 104 35 42 8 81 19 88 23 6 5 61 31 121 57 61 26 148 66
195 89 47 23 119 53 160 66 41 13 113 37 160 54 47 17 108 45 135 63 28 18 57
38 66 45 8 7 30 21 48 31 17 10 42 24 54 30 12 7 35 21 50 31 16 11 43 27 60
37 18 10 47 25 65 34 17 8 32 20 32 25 0 6 7 10 16 10 9 0 37 12 61 28 25 15
56 36 68 48 12 11 38 28 56 37 19 9 90 61 159 117 68 55 128 100 132 100 4 0
8 -4 8 -10 0 -5 7 -10 15 -10 8 0 15 7 15 15 0 8 5 15 11 15 8 0 9 13 5 40 -4
26 -1 53 10 80 9 22 20 40 24 40 5 0 12 -35 15 -77 4 -42 5 -135 2 -207 -5
-117 -10 -142 -42 -231 -19 -55 -45 -129 -57 -165 -12 -36 -27 -72 -33 -80 -6
-8 -21 -38 -33 -66 -12 -29 -48 -103 -80 -165 -33 -63 -73 -135 -91 -161 -17
-25 -39 -63 -49 -85 -9 -21 -27 -52 -39 -70 -13 -17 -23 -35 -23 -41 0 -5 -33
-43 -74 -84 -41 -42 -77 -84 -80 -95 -6 -19 -4 -20 34 -10 27 8 57 29 94 67
30 30 68 79 83 107 15 29 63 111 106 183 43 72 100 178 128 235 27 58 49 109
49 114 0 5 3 11 8 13 4 2 17 26 29 53 12 28 30 75 39 105 9 30 20 60 24 65 4
6 24 62 43 125 26 85 37 142 42 220 4 58 6 192 6 299 -1 106 -6 201 -11 211
-5 10 -7 60 -3 117 5 80 3 105 -11 130 -8 17 -25 34 -36 38 -10 3 -27 2 -37
-3 -10 -5 -44 -15 -75 -22 -32 -7 -58 -16 -58 -19 0 -3 -15 -12 -32 -19 -18
-7 -46 -19 -63 -26 -16 -7 -55 -20 -85 -29 -30 -8 -80 -18 -110 -21 -30 -4
-125 -25 -210 -46 -85 -21 -179 -44 -208 -49 -29 -6 -85 -13 -125 -16 -39 -2
-146 -9 -237 -16 -91 -6 -168 -13 -171 -15 -3 -2 -16 7 -29 21 -12 13 -40 52
-61 87 -22 35 -39 67 -39 71 0 4 -9 27 -20 51 -10 23 -26 72 -36 107 -9 35
-20 73 -24 84 -5 11 -16 43 -25 71 -8 28 -18 64 -20 80 -3 16 -16 72 -30 124
-15 52 -31 133 -36 180 -6 47 -13 99 -15 115 -2 17 -8 192 -13 390 -5 198 -16
448 -25 555 -8 107 -18 240 -20 295 -3 55 -10 215 -15 355 -6 140 -13 334 -16
430 -3 96 -8 202 -11 235 -4 33 -11 66 -16 72 -6 7 -14 10 -19 7 -5 -3 -9 -3
-9 0 0 3 22 17 50 31 27 14 70 38 96 55 26 16 66 48 90 70 24 23 44 49 44 59
0 9 5 22 11 28 6 6 17 48 25 94 8 46 14 95 12 109 -3 21 1 25 22 24 14 -1 52
-6 85 -11 33 -6 141 -9 240 -7 99 1 201 5 228 8 26 3 56 10 66 16 11 5 30 10
43 10 13 0 33 7 44 15 10 8 29 15 41 15 12 0 25 5 28 10 3 6 40 29 81 51 42
23 81 50 87 60 7 11 19 19 29 19 9 0 19 4 23 9 3 6 29 23 58 40 28 17 86 63
127 103 41 41 82 82 90 93 9 11 27 36 41 55 14 19 39 67 54 105 27 65 29 79
27 194 -1 99 -5 127 -18 142 -10 11 -14 27 -11 41 4 13 -11 73 -39 152 -24 72
-49 135 -54 140 -6 6 -10 19 -10 29 0 11 -10 36 -22 56 -11 20 -33 48 -46 63
-14 15 -23 31 -19 35 4 3 -5 22 -20 42 -15 20 -43 52 -61 71 -19 19 -38 42
-43 51 -7 14 2 20 49 37 31 12 74 36 95 53 24 20 50 56 67 93 15 34 34 86 43
116 9 30 21 89 27 131 6 42 10 99 9 125 -1 27 -8 74 -16 104 -9 30 -19 59 -24
65 -5 5 -9 16 -9 24 0 8 -11 44 -25 80 -14 36 -34 82 -44 101 -10 19 -22 49
-25 67 -4 17 -13 37 -21 43 -8 6 -17 24 -20 40 -3 16 -13 34 -21 41 -8 7 -22
28 -29 47 -8 19 -33 56 -55 82 -22 26 -40 52 -40 58 0 5 -20 28 -45 51 -24 22
-48 41 -52 41 -5 0 -30 20 -57 45 -27 24 -58 48 -70 51 -12 4 -42 22 -68 40
-26 18 -73 43 -105 54 -32 11 -69 23 -83 26 -14 3 -77 8 -140 10 -64 2 -126 0
-140 -6 -14 -5 -41 -11 -60 -13 -19 -3 -53 -9 -75 -15 -22 -6 -51 -13 -65 -16
-14 -3 -34 -7 -45 -10 -11 -2 -33 -9 -48 -15 -16 -6 -36 -11 -46 -11 -11 0
-24 12 -30 28 -7 15 -27 43 -45 63 -19 20 -62 50 -97 67 -35 17 -104 45 -154
62 -49 17 -108 36 -130 42 -22 6 -45 14 -50 19 -6 4 -65 7 -132 6z m18 -77
c21 0 56 -7 77 -15 22 -9 43 -15 48 -14 5 1 23 -1 39 -6 17 -4 35 -11 40 -15
6 -3 33 -14 60 -24 28 -10 66 -25 85 -34 19 -10 49 -27 65 -40 17 -12 37 -29
46 -38 10 -8 28 -36 40 -62 13 -26 31 -53 39 -60 10 -8 30 -10 60 -6 25 3 52
11 60 18 8 7 51 24 95 38 44 15 96 29 115 32 19 3 37 6 40 6 3 -1 23 5 45 12
22 8 74 13 115 12 41 -1 89 -4 106 -7 17 -3 64 -22 105 -42 41 -21 81 -42 89
-46 8 -5 22 -12 30 -16 8 -3 42 -26 75 -49 33 -23 89 -75 125 -114 36 -40 80
-93 98 -119 18 -25 43 -62 56 -81 13 -19 36 -64 53 -100 16 -36 36 -83 43
-105 7 -22 19 -53 26 -70 7 -16 20 -50 29 -75 9 -25 20 -58 25 -75 5 -16 12
-55 16 -85 4 -30 7 -62 7 -70 0 -8 -3 -41 -7 -73 -4 -31 -11 -69 -16 -83 -6
-14 -10 -36 -10 -48 0 -13 -11 -48 -25 -79 -19 -41 -33 -58 -58 -68 -17 -7
-38 -19 -45 -26 -7 -7 -21 -13 -31 -13 -9 0 -26 -7 -37 -15 -10 -8 -27 -15
-37 -15 -10 0 -31 -7 -47 -15 -16 -8 -32 -24 -35 -36 -6 -18 9 -38 83 -113 50
-50 108 -120 129 -156 22 -36 54 -101 71 -145 17 -44 40 -105 50 -135 11 -30
30 -90 42 -133 12 -43 24 -113 27 -156 3 -45 0 -108 -7 -147 -7 -38 -18 -76
-25 -84 -7 -8 -14 -20 -16 -26 -2 -7 -35 -45 -74 -86 -38 -40 -93 -92 -121
-116 -27 -23 -55 -42 -60 -42 -5 0 -23 -12 -39 -27 -16 -16 -44 -38 -63 -50
-18 -13 -34 -23 -36 -23 -2 0 -35 -18 -72 -40 -38 -22 -76 -40 -84 -40 -8 0
-27 -7 -43 -15 -15 -7 -69 -21 -120 -30 -71 -12 -131 -15 -259 -10 -92 3 -190
10 -218 15 -27 5 -63 16 -79 25 -17 8 -35 15 -41 15 -7 0 -25 -10 -42 -21 -27
-20 -29 -25 -22 -58 4 -20 7 -72 6 -117 -1 -62 -6 -91 -22 -122 -12 -22 -45
-60 -73 -84 -29 -25 -85 -63 -125 -86 -41 -23 -78 -42 -83 -42 -5 0 -9 -4 -9
-8 0 -5 -19 -18 -42 -28 -23 -10 -54 -29 -69 -41 -16 -14 -63 -31 -115 -44
-52 -12 -131 -22 -194 -24 -58 -1 -107 -3 -110 -5 -3 -1 -30 -1 -60 0 -30 1
-70 10 -90 20 -30 15 -46 36 -82 108 -25 49 -58 101 -72 115 -22 22 -24 30
-16 51 7 20 6 27 -8 35 -11 6 -26 4 -47 -6 -16 -9 -64 -50 -105 -92 -41 -42
-103 -96 -137 -119 -34 -23 -65 -42 -68 -42 -3 0 -22 -8 -43 -17 -20 -9 -74
-22 -120 -28 -49 -6 -137 -8 -215 -4 -84 4 -165 14 -222 29 -49 12 -94 26 -99
31 -6 5 -15 9 -22 9 -6 0 -37 16 -68 36 -31 20 -56 42 -56 49 0 7 -7 15 -14
18 -8 3 -33 43 -55 89 -22 46 -45 104 -51 129 -7 26 -10 77 -7 115 2 38 9 85
14 104 6 19 27 71 49 114 22 47 62 107 97 145 32 37 76 74 98 84 21 10 39 21
39 26 0 4 -3 11 -7 15 -5 4 -8 17 -8 29 0 17 -8 23 -41 28 -22 4 -75 19 -117
32 -42 14 -100 41 -130 61 -30 20 -74 58 -98 85 -24 27 -54 63 -67 80 -13 17
-34 58 -47 92 -13 33 -29 95 -36 137 -6 43 -13 95 -15 117 -2 22 -7 47 -10 55
-4 8 -10 58 -14 110 -6 71 -4 115 7 175 9 44 21 89 28 100 7 11 16 34 20 51 3
17 14 40 23 50 10 11 26 36 35 56 10 21 29 50 42 64 14 15 25 31 25 36 0 5 5
6 12 2 7 -4 8 -3 4 4 -4 7 -1 19 6 28 7 9 23 27 36 41 13 14 35 43 49 66 14
22 54 70 89 106 35 36 108 110 161 164 54 55 105 105 113 112 9 8 42 27 74 44
32 17 83 37 114 45 54 14 62 14 142 -8 47 -13 110 -33 140 -44 30 -11 58 -18
62 -16 5 3 8 16 8 29 0 13 5 27 10 30 6 3 10 33 10 66 0 33 9 94 20 137 12 42
41 119 67 170 25 51 61 111 80 134 18 22 38 49 44 60 6 10 31 39 56 63 25 25
49 45 53 45 3 0 17 12 31 26 13 14 44 38 69 52 25 14 47 29 50 32 3 3 21 14
40 24 19 11 41 26 48 33 7 7 24 13 37 13 13 0 26 4 30 10 3 5 31 16 63 25 31
9 71 21 87 25 17 5 61 12 100 15 38 4 72 8 74 11 2 2 21 4 42 4z m-650 -3710
c4 0 21 -21 38 -47 17 -25 31 -52 31 -58 0 -7 9 -20 19 -29 11 -10 29 -38 40
-62 12 -24 33 -50 48 -57 16 -8 53 -20 83 -26 30 -7 106 -11 168 -10 63 1 162
7 221 14 58 7 120 20 136 29 17 9 34 16 38 16 4 0 22 10 40 23 18 12 45 32 60
45 16 12 32 22 37 22 4 0 11 -26 15 -57 4 -32 9 -130 10 -218 2 -88 6 -247 9
-353 3 -107 8 -198 11 -203 4 -5 8 -123 11 -264 3 -140 9 -296 14 -347 4 -51
11 -136 15 -188 4 -52 8 -223 10 -380 2 -157 8 -319 13 -360 5 -41 13 -86 17
-100 4 -14 8 -46 9 -72 1 -26 5 -51 9 -54 4 -4 7 -15 7 -25 0 -9 7 -30 15 -45
8 -16 15 -43 15 -59 0 -17 6 -39 14 -50 7 -11 19 -47 26 -80 7 -33 19 -68 27
-77 9 -10 18 -38 20 -63 2 -25 13 -71 24 -101 11 -30 32 -68 45 -84 14 -16 36
-57 50 -92 14 -35 40 -78 57 -96 18 -18 41 -43 53 -55 11 -12 33 -43 48 -69
15 -27 32 -48 37 -48 5 0 9 -9 9 -19 0 -10 12 -29 26 -42 15 -13 50 -47 78
-75 28 -28 61 -65 74 -82 13 -18 38 -35 59 -41 20 -6 50 -24 68 -41 17 -16 57
-39 88 -50 31 -11 66 -20 77 -20 12 0 18 -4 15 -11 -4 -5 -17 -14 -28 -20 -12
-5 -29 -13 -37 -18 -8 -4 -40 -20 -71 -35 -31 -14 -61 -26 -67 -26 -6 0 -12
-4 -14 -9 -1 -5 -41 -27 -88 -49 -47 -21 -96 -43 -110 -47 -14 -4 -27 -11 -30
-15 -3 -4 -52 -24 -109 -44 -57 -20 -112 -43 -121 -51 -9 -8 -22 -15 -28 -15
-6 0 -27 -9 -47 -20 -19 -11 -77 -32 -127 -46 -51 -15 -104 -32 -118 -39 -14
-7 -79 -27 -145 -45 -66 -18 -129 -36 -140 -41 -11 -4 -51 -15 -88 -24 -37 -9
-78 -19 -90 -21 -12 -2 -38 -6 -57 -10 -19 -3 -44 -10 -55 -15 -11 -5 -65 -16
-120 -24 -55 -7 -116 -18 -135 -23 -19 -5 -42 -12 -50 -16 -10 -4 -22 5 -36
27 -11 17 -30 57 -43 87 -13 30 -38 75 -56 100 -21 29 -45 49 -66 55 -27 8
-34 18 -45 55 -7 25 -25 86 -39 135 -14 50 -31 101 -37 115 -6 14 -34 97 -63
185 -29 88 -70 194 -92 235 -22 41 -45 84 -53 96 -11 18 -8 28 29 90 22 39 41
77 41 86 0 8 7 21 15 28 8 7 15 18 15 24 0 6 20 50 45 97 24 48 54 118 65 155
12 38 26 79 31 92 5 13 23 105 40 205 29 178 30 189 30 532 1 226 -3 369 -11
405 -6 30 -15 129 -21 220 -5 91 -11 204 -12 253 -1 61 1 84 8 75 6 -7 20 -19
33 -25 12 -7 28 -13 36 -13 8 0 22 10 30 22 9 12 16 30 16 40 0 10 -9 27 -20
38 -11 11 -29 20 -41 20 -11 0 -27 -7 -35 -15 -9 -8 -19 -15 -24 -15 -4 0 -11
55 -15 123 -4 67 -11 154 -16 192 -4 39 -13 102 -20 140 -7 43 -12 193 -13
388 -1 314 -1 318 20 332 12 8 47 41 79 74 32 34 61 61 66 61z m2822 -3278 c9
-2 17 -10 17 -16 0 -7 -5 -39 -11 -72 -7 -32 -20 -68 -29 -79 -9 -11 -27 -40
-38 -65 -12 -25 -32 -49 -44 -55 -14 -6 -24 -20 -26 -37 -2 -16 -8 -28 -14
-28 -7 0 -49 -36 -94 -80 -45 -44 -89 -80 -98 -80 -9 0 -16 -4 -16 -10 0 -5
-4 -10 -9 -10 -5 0 -39 -14 -75 -30 -35 -17 -77 -41 -93 -54 -15 -12 -50 -36
-78 -51 -27 -16 -71 -43 -96 -62 -26 -18 -51 -33 -57 -33 -6 0 -10 12 -9 26 2
22 -7 30 -58 58 -33 18 -103 62 -155 98 -64 44 -117 91 -162 144 -37 43 -68
87 -68 96 0 9 -8 21 -17 27 -10 5 -18 21 -18 35 -1 21 5 26 35 30 19 3 95 8
167 11 73 4 163 13 200 21 38 9 93 22 123 29 30 7 55 14 55 15 0 2 9 4 20 6
11 2 36 6 55 7 19 2 45 7 56 11 12 4 35 9 50 12 16 2 65 11 108 19 44 8 116
25 159 37 44 11 88 29 97 38 10 10 37 24 61 32 24 8 52 13 62 10z m-3461 -32
c30 0 31 0 26 -47 -3 -27 -12 -64 -21 -83 -9 -19 -22 -43 -29 -53 -7 -10 -66
-72 -130 -139 -65 -66 -118 -124 -118 -128 0 -3 -35 -14 -78 -23 -42 -9 -85
-17 -95 -17 -14 0 -15 4 -5 25 7 16 19 25 34 25 12 0 36 8 53 18 20 11 31 25
31 39 0 12 28 52 67 95 37 40 70 75 75 76 4 2 8 8 8 13 0 6 10 24 22 42 13 18
47 60 76 95 44 51 59 62 84 62z m137 -310 c9 -5 26 -19 37 -32 12 -13 38 -57
58 -98 21 -41 43 -82 50 -90 7 -8 16 -41 20 -72 3 -32 11 -70 18 -85 7 -15 18
-36 26 -45 8 -10 12 -24 8 -33 -3 -9 3 -40 15 -68 11 -29 25 -60 30 -70 6 -10
19 -46 29 -80 11 -34 20 -76 20 -94 0 -27 -4 -32 -32 -38 -18 -4 -59 -16 -92
-26 -32 -11 -65 -19 -72 -19 -8 0 -14 11 -14 26 0 14 -11 53 -24 87 -13 34
-27 78 -31 97 -3 19 -15 62 -25 95 -10 33 -30 114 -45 180 -15 66 -33 140 -40
165 -7 25 -16 67 -20 94 -4 27 -9 55 -12 62 -3 9 10 21 38 33 28 13 48 17 58
11z m-199 -60 c3 0 13 -21 24 -46 13 -31 15 -49 8 -56 -5 -5 -35 -12 -66 -14
-34 -2 -56 0 -56 6 0 6 7 23 17 38 9 15 28 37 42 49 14 13 28 23 31 23z m3426
-40 c9 0 9 -9 1 -35 -6 -20 -27 -50 -47 -68 -20 -18 -50 -41 -65 -52 -16 -11
-51 -38 -79 -60 -28 -22 -59 -44 -68 -50 -9 -5 -55 -36 -101 -68 -46 -31 -111
-71 -143 -88 -33 -17 -64 -37 -70 -45 -6 -7 -48 -32 -93 -54 -46 -23 -92 -50
-104 -61 -11 -10 -25 -19 -29 -19 -5 0 -30 -16 -55 -35 -25 -19 -51 -35 -57
-35 -6 0 -28 -9 -49 -20 -20 -11 -45 -20 -56 -20 -10 0 -24 -7 -31 -15 -7 -8
-18 -15 -24 -15 -6 0 -56 -14 -111 -31 -55 -17 -107 -37 -115 -43 -8 -7 -51
-29 -95 -50 -44 -21 -92 -45 -107 -52 -14 -8 -31 -14 -38 -14 -7 0 -34 -11
-61 -24 -26 -14 -61 -27 -76 -30 -15 -3 -59 -17 -98 -31 -38 -15 -72 -27 -75
-27 -3 0 -20 -6 -39 -14 -18 -8 -40 -14 -48 -14 -8 0 -29 -6 -46 -14 -18 -8
-59 -21 -92 -29 -33 -8 -80 -21 -105 -27 -25 -7 -53 -16 -62 -21 -9 -5 -44
-13 -77 -18 -34 -6 -66 -13 -73 -17 -6 -4 -30 -11 -52 -16 -23 -5 -52 -11 -66
-14 -14 -2 -49 -6 -77 -7 -50 -3 -53 -2 -67 27 -8 17 -17 48 -21 69 l-7 37 38
-6 c22 -3 64 -1 94 6 30 7 64 16 75 20 11 5 47 14 80 20 33 7 87 18 120 26 33
7 87 20 120 29 33 9 89 23 123 30 35 7 69 18 75 24 6 6 22 11 36 11 15 0 91
23 171 51 80 27 159 54 175 59 17 5 70 23 119 40 49 17 98 37 110 45 12 7 37
18 56 24 19 6 37 10 40 9 3 -1 24 11 47 25 24 15 51 27 61 27 10 0 41 11 68
25 27 14 52 25 56 25 4 0 34 13 65 29 32 15 119 60 193 98 75 38 157 82 184
98 26 17 63 42 81 58 18 15 35 27 37 27 3 0 38 18 77 39 39 22 82 43 94 47 12
4 53 29 92 55 39 27 95 74 125 104 30 30 60 55 66 55z m-3474 -161 c31 0 59
-3 62 -8 3 -5 -26 -45 -64 -89 -39 -44 -70 -85 -70 -91 0 -5 -6 -14 -13 -18
-8 -4 -22 -21 -33 -38 -10 -16 -82 -95 -159 -173 -77 -79 -158 -156 -180 -172
-22 -16 -68 -45 -102 -65 -35 -20 -63 -43 -63 -50 0 -9 -9 -15 -22 -15 -13 0
-86 13 -163 29 -77 16 -189 44 -250 61 -60 18 -155 48 -210 68 -55 19 -111 42
-125 51 -14 9 -27 18 -30 22 -3 3 -41 26 -85 49 -44 24 -123 66 -175 93 -52
27 -115 61 -140 75 -25 15 -78 53 -118 85 -40 32 -72 60 -72 63 0 3 33 3 73 0
39 -3 95 -10 122 -16 28 -5 125 -14 217 -19 93 -5 174 -15 185 -21 14 -9 46
-10 128 -1 61 5 139 13 175 16 36 3 103 10 150 15 47 5 96 12 110 15 14 3 63
10 110 15 47 6 119 17 160 26 41 8 102 25 135 36 39 14 82 20 130 20 38 -1 86
4 105 10 19 6 62 14 95 18 33 4 86 8 117 9z m119 -109 c4 0 10 -3 13 -8 2 -4
11 -43 20 -87 9 -44 25 -107 36 -140 10 -33 21 -72 23 -85 3 -14 10 -36 15
-50 6 -14 20 -57 32 -96 l21 -71 -21 -39 c-12 -21 -33 -50 -46 -65 -13 -14
-24 -30 -24 -36 0 -6 -9 -21 -19 -35 -19 -23 -23 -24 -73 -16 -29 5 -66 14
-83 20 -16 6 -84 16 -150 23 -66 7 -173 20 -238 29 -65 9 -125 16 -134 16 -11
0 0 14 27 37 24 20 59 46 79 56 20 11 67 49 106 86 38 36 117 118 175 181 58
63 116 131 130 150 13 19 29 40 35 46 5 6 23 28 39 48 15 20 32 36 37 36z
m-2223 -69 c10 -5 24 -17 32 -25 7 -9 18 -16 26 -16 7 0 33 -17 57 -37 25 -21
61 -51 80 -67 20 -16 68 -43 107 -61 40 -18 77 -38 83 -44 6 -6 19 -11 28 -11
10 0 21 -5 24 -11 4 -5 17 -14 28 -20 12 -5 29 -13 37 -17 8 -5 24 -14 35 -21
11 -6 47 -25 81 -41 33 -15 66 -36 73 -44 8 -9 20 -16 28 -16 8 0 31 -9 51
-19 20 -10 54 -26 75 -35 21 -9 48 -16 61 -16 13 0 36 -4 52 -9 16 -5 56 -17
89 -26 33 -9 76 -23 95 -30 19 -7 60 -18 90 -24 30 -5 82 -14 115 -19 33 -6
107 -19 165 -31 58 -11 166 -28 240 -36 74 -9 189 -25 255 -36 66 -11 149 -26
185 -35 43 -10 104 -14 180 -13 l114 3 14 -50 c7 -27 14 -60 15 -74 2 -21 -2
-25 -23 -23 -14 1 -72 7 -130 13 -58 6 -184 18 -280 26 -96 8 -236 20 -310 28
-74 8 -169 21 -210 30 -41 9 -116 29 -167 45 -50 16 -153 57 -230 91 -76 34
-152 68 -168 76 -17 7 -49 17 -70 22 -22 6 -89 31 -150 57 -60 25 -146 60
-190 77 -44 16 -101 40 -126 54 -26 13 -52 24 -57 24 -6 0 -46 16 -89 36 -43
19 -83 38 -89 42 -6 4 -40 26 -75 49 -35 23 -87 69 -116 101 -29 33 -55 71
-59 86 -3 14 -3 33 0 41 4 12 10 13 24 6z m2684 -512 c11 1 20 -9 24 -26 3
-16 10 -44 16 -63 5 -19 13 -44 18 -55 5 -11 25 -61 44 -111 20 -50 36 -98 36
-105 0 -8 8 -27 18 -44 10 -16 22 -42 25 -57 4 -14 19 -40 33 -57 19 -22 24
-38 20 -55 -4 -15 1 -32 12 -47 10 -13 24 -46 31 -74 7 -27 15 -60 17 -73 3
-13 12 -44 20 -70 9 -26 20 -51 24 -57 4 -5 13 -28 19 -50 7 -22 18 -53 26
-70 7 -16 22 -50 33 -75 11 -25 30 -72 42 -105 12 -33 29 -76 37 -95 9 -19 23
-58 33 -86 16 -45 16 -53 3 -78 -8 -15 -12 -34 -9 -43 5 -12 19 -13 80 -8 71
7 76 6 145 -29 39 -20 79 -41 88 -48 9 -7 34 -31 55 -53 22 -22 52 -62 66 -89
15 -27 41 -76 59 -110 17 -34 35 -74 38 -91 4 -16 12 -36 18 -43 8 -10 3 -20
-16 -40 -27 -26 -29 -27 -140 -24 -61 2 -137 8 -167 14 -39 8 -72 25 -110 55
-51 39 -59 42 -89 33 -18 -5 -38 -13 -44 -18 -7 -5 -39 -19 -72 -32 -33 -13
-64 -26 -70 -30 -5 -4 -22 -10 -37 -14 -16 -3 -28 -3 -28 1 0 5 -10 13 -22 18
-14 6 -28 26 -36 50 -8 22 -13 79 -13 128 0 69 6 101 27 155 14 37 38 78 54
92 16 14 38 32 51 40 16 12 20 22 15 38 -4 12 -19 27 -33 34 -14 7 -30 20 -34
28 -4 8 -19 44 -32 80 -14 36 -41 115 -61 175 -19 61 -59 180 -89 265 -30 85
-65 180 -77 210 -12 30 -36 91 -51 135 -16 44 -40 114 -54 155 -13 41 -29 97
-35 124 -6 27 -19 68 -30 91 -11 23 -24 64 -30 91 -10 43 -9 50 10 68 11 12
44 26 73 32 28 7 60 12 69 13z"/>
<g>
<path d="M8360 8310 c-19 0 -34 -8 -44 -22 -9 -12 -16 -29 -16 -36 0 -7 6 -20
14 -28 8 -8 26 -18 41 -24 15 -6 30 -8 35 -5 4 2 13 18 20 35 10 25 10 34 -4
55 -11 17 -26 25 -46 25z"/>
</g>
<g>
<path d="M8061 8149 c-15 0 -39 -5 -55 -9 -16 -5 -47 -26 -68 -47 -22 -21 -46
-50 -54 -65 -8 -15 -14 -44 -14 -66 0 -29 7 -44 28 -63 15 -14 43 -30 62 -37
19 -6 70 -11 113 -11 43 0 89 5 103 11 13 6 24 19 24 30 0 10 -9 27 -20 38
-12 12 -26 18 -33 13 -6 -4 -43 -8 -80 -10 -38 -1 -77 2 -88 7 -10 6 -19 20
-19 31 0 11 11 35 25 53 13 18 47 42 75 55 27 12 50 28 50 35 0 7 -5 17 -12
24 -7 7 -23 12 -37 11z"/>
</g>
<g>
<path d="M7920 7684 c-25 7 -53 10 -62 8 -11 -2 -18 -13 -18 -27 0 -12 6 -27
13 -33 6 -6 32 -18 57 -27 25 -10 104 -31 175 -47 72 -16 160 -32 196 -35 55
-4 67 -2 72 11 4 9 2 27 -3 40 -6 18 -21 26 -57 34 -26 6 -97 18 -158 27 -60
9 -123 20 -140 26 -16 6 -50 16 -75 23z"/>
</g>
<g>
<path d="M8008 3466 c-13 13 -16 13 -27 0 -7 -8 -10 -20 -6 -26 3 -5 12 -10
20 -10 8 0 17 5 21 11 3 6 0 17 -8 25z"/>
</g>
</g>
<g>
<path d="M12373 7969 c-4 -1 -43 -19 -86 -41 -44 -22 -118 -51 -165 -65 -48
-13 -94 -25 -102 -27 -8 -1 -28 -6 -45 -10 -16 -4 -48 -14 -71 -22 -22 -8 -90
-18 -150 -22 l-109 -7 28 -29 c29 -29 29 -29 120 -23 56 4 123 16 172 32 44
14 112 32 150 40 39 9 84 20 100 27 17 6 53 21 80 33 28 12 60 25 73 29 17 6
31 0 56 -22 19 -16 56 -37 83 -45 26 -8 66 -19 88 -23 22 -4 65 -7 95 -6 30 0
93 8 140 16 47 8 100 18 118 22 28 6 37 2 72 -35 22 -22 47 -41 57 -41 9 0 32
-12 51 -26 18 -15 64 -34 100 -44 37 -9 90 -16 117 -14 28 1 70 8 95 15 l45
13 -113 8 c-99 7 -123 13 -190 44 -57 26 -91 50 -129 91 l-52 56 -103 -16
c-57 -9 -125 -20 -153 -24 -27 -4 -59 -7 -70 -7 -11 -1 -39 2 -61 6 -23 4 -75
22 -115 41 -41 19 -84 44 -96 56 -12 11 -26 20 -30 20z"/>
</g>
<g>
<path d="M5286 7030 c-12 0 -30 -6 -41 -14 -11 -7 -54 -30 -95 -51 -41 -21
-100 -50 -130 -65 -30 -15 -82 -36 -115 -47 -33 -11 -76 -25 -95 -31 -19 -6
-57 -14 -85 -18 -27 -5 -89 -8 -136 -7 -57 0 -108 7 -155 21 -38 12 -90 35
-116 52 -26 18 -59 46 -74 63 -14 17 -35 31 -47 32 -12 1 -45 -13 -74 -32 -29
-18 -56 -33 -60 -33 -4 0 -24 -16 -43 -36 -19 -20 -57 -48 -85 -61 -27 -14
-54 -31 -60 -38 -5 -6 -29 -17 -52 -24 -24 -6 -43 -16 -43 -21 0 -6 -11 -10
-25 -10 -13 0 -50 -7 -82 -16 -34 -9 -136 -19 -246 -24 -153 -7 -190 -12 -204
-25 -12 -13 -14 -21 -6 -34 7 -11 32 -18 84 -23 41 -4 106 -3 144 2 39 5 115
14 170 20 55 7 112 18 127 26 15 8 37 14 49 14 12 0 30 6 38 13 9 8 39 22 66
32 28 11 52 19 55 20 3 0 21 12 40 26 19 15 66 47 105 73 38 25 77 46 87 46 9
0 23 -8 30 -18 7 -10 29 -30 48 -44 19 -14 64 -35 100 -48 36 -12 101 -25 145
-30 45 -5 119 -4 169 1 49 5 95 14 102 20 8 6 21 9 29 5 9 -3 35 1 58 9 23 8
48 15 55 15 7 0 41 13 75 29 34 15 77 34 95 42 17 8 32 17 32 20 0 3 21 14 48
24 26 10 56 24 67 32 11 7 26 13 35 13 9 0 49 -24 90 -53 41 -30 102 -64 135
-77 33 -12 77 -29 98 -38 27 -11 73 -15 171 -15 110 1 138 4 160 18 20 14 24
20 14 26 -7 5 -53 9 -103 9 -49 0 -119 7 -155 14 -36 8 -96 30 -135 49 -38 20
-84 46 -101 59 -17 13 -55 42 -84 66 -28 23 -62 42 -74 42z"/>
</g>
<g>
<path d="M13126 6390 c-14 0 -27 -4 -30 -9 -3 -5 -23 -18 -45 -29 -21 -11 -42
-18 -45 -15 -3 4 -6 1 -6 -5 0 -6 -42 -25 -92 -41 -51 -16 -109 -35 -128 -41
-19 -7 -58 -23 -86 -36 -28 -13 -56 -24 -63 -24 -6 0 -28 -9 -48 -20 -21 -11
-45 -20 -53 -20 -8 0 -34 -7 -57 -15 -22 -8 -69 -19 -103 -24 -42 -7 -68 -17
-80 -31 -10 -12 -16 -29 -13 -37 5 -13 21 -15 89 -11 45 2 89 10 98 17 8 7 25
14 38 15 13 2 36 8 51 15 16 6 34 11 41 11 6 0 16 4 22 8 5 5 28 15 52 22 23
7 47 19 53 27 6 7 19 13 28 13 9 0 41 9 71 21 30 11 76 27 102 34 27 7 67 23
91 34 24 12 49 21 55 21 7 0 21 6 32 13 17 10 26 9 52 -6 17 -10 76 -41 131
-69 l99 -52 122 0 c111 -1 127 1 196 29 41 16 86 37 99 47 13 10 28 18 34 18
5 0 29 17 52 39 23 21 48 40 56 43 11 5 12 8 1 19 -10 11 -16 11 -30 1 -9 -7
-33 -19 -52 -28 -19 -9 -55 -25 -80 -36 -25 -11 -54 -24 -65 -28 -11 -5 -36
-13 -55 -20 -19 -6 -72 -14 -118 -17 -62 -5 -90 -2 -115 9 -17 8 -59 28 -92
44 -33 16 -73 41 -90 55 -16 14 -44 34 -62 43 -18 9 -43 16 -57 16z"/>
</g>
<g>
<path d="M1923 4689 c-10 0 -25 -3 -33 -6 -8 -3 -45 -28 -82 -55 -38 -26 -74
-48 -82 -48 -7 0 -34 -9 -58 -20 -25 -11 -69 -24 -99 -30 -30 -6 -65 -15 -79
-20 -14 -5 -99 -12 -190 -16 -91 -4 -187 -6 -215 -5 -27 1 -83 4 -124 7 -41 3
-78 7 -83 10 -4 3 -17 2 -28 -1 -13 -4 -20 -15 -20 -31 0 -19 8 -28 35 -39 20
-9 81 -17 152 -19 65 -3 172 -1 238 4 66 5 150 12 186 14 36 3 72 8 80 10 8 3
30 7 49 9 19 2 67 15 105 28 39 13 104 41 145 63 41 22 85 39 98 38 13 -1 44
-14 70 -28 25 -14 64 -38 87 -53 22 -15 67 -37 100 -49 33 -12 87 -26 119 -32
33 -5 81 -10 107 -10 27 0 74 7 105 15 31 8 68 22 81 30 12 9 23 20 23 25 0 5
-4 11 -10 15 -5 3 -37 -1 -72 -9 -38 -9 -89 -13 -128 -10 -36 3 -81 11 -100
19 -19 7 -54 19 -78 26 -23 7 -47 18 -53 26 -6 7 -17 13 -23 13 -7 0 -42 20
-79 45 -37 25 -73 45 -80 45 -7 0 -20 9 -30 20 -9 11 -25 20 -34 19z"/>
</g>
<g>
<path d="M11123 4641 c-4 4 -20 -5 -35 -20 -16 -15 -28 -31 -28 -34 0 -4 5 -7
11 -7 7 0 23 12 36 26 13 15 21 30 16 35z"/>
</g>
<g>
<path d="M11022 4570 c-5 0 -19 -11 -32 -25 -13 -14 -27 -25 -31 -25 -5 0 -25
-11 -45 -25 -20 -13 -52 -28 -73 -31 -20 -4 -50 -13 -68 -21 -18 -7 -68 -13
-111 -13 -72 0 -82 3 -118 30 -21 16 -47 30 -56 30 -10 0 -18 -4 -18 -9 0 -5
-19 -19 -42 -31 -24 -12 -45 -26 -48 -31 -3 -5 -36 -13 -74 -18 -37 -5 -99 -7
-137 -4 -38 3 -72 10 -75 14 -3 5 -14 9 -25 9 -11 0 -46 14 -77 31 -31 17 -64
37 -72 44 -8 7 -22 10 -30 7 -8 -3 -37 -24 -65 -46 -27 -23 -64 -51 -82 -64
-18 -12 -34 -22 -37 -22 -3 0 -21 -11 -40 -24 -19 -13 -56 -27 -80 -30 -25 -4
-48 -11 -51 -16 -3 -5 -29 -11 -58 -14 -28 -3 -79 -7 -112 -9 -33 -2 -82 1
-110 8 -27 6 -70 24 -95 40 -24 15 -51 34 -59 42 -7 8 -26 22 -40 31 -14 9
-30 22 -34 29 -4 7 -19 13 -32 13 -13 0 -45 -18 -72 -40 -26 -22 -59 -49 -73
-61 -14 -12 -50 -37 -80 -56 -30 -20 -71 -46 -91 -59 -19 -13 -44 -24 -55 -24
-10 0 -35 -10 -54 -22 -19 -11 -57 -27 -85 -34 -27 -8 -70 -14 -95 -15 -25 0
-71 -6 -104 -13 -39 -8 -65 -20 -77 -35 -11 -13 -16 -27 -13 -32 3 -5 29 -9
57 -9 29 0 70 5 92 10 22 6 61 12 87 14 25 2 70 15 100 29 29 13 64 28 78 32
14 4 41 21 61 36 20 16 44 29 53 29 9 0 41 17 71 37 30 21 55 41 55 45 0 4 15
15 33 23 17 9 44 23 59 31 27 14 30 14 70 -18 24 -18 53 -42 66 -53 15 -12 61
-28 123 -41 77 -16 114 -18 166 -12 38 4 82 10 98 12 17 3 48 10 70 16 22 6
45 12 50 13 6 2 20 9 33 16 13 7 40 18 60 25 20 8 74 39 120 70 45 31 86 56
90 56 4 0 29 -11 56 -25 27 -14 52 -23 54 -20 3 3 10 1 16 -4 6 -5 43 -14 83
-20 39 -6 99 -11 133 -11 41 0 80 8 122 25 34 14 67 25 75 25 7 0 13 4 13 9 0
5 9 12 19 16 12 3 37 -3 61 -15 30 -15 60 -21 113 -21 44 -1 89 5 117 16 25 9
54 19 65 22 11 3 29 12 40 20 11 7 27 13 37 13 9 0 21 6 25 14 4 7 22 21 38
29 17 9 40 25 53 36 12 11 22 26 22 35 0 9 -4 16 -8 16z"/>
</g>
<g>
<path d="M6820 4237 l-36 32 -89 -45 c-49 -25 -103 -55 -119 -67 -17 -12 -35
-27 -41 -33 -5 -7 -41 -33 -80 -59 -38 -26 -90 -58 -115 -72 -25 -13 -65 -37
-90 -53 -25 -16 -51 -29 -58 -29 -8 -1 -27 -10 -43 -22 -16 -11 -29 -26 -29
-34 0 -7 11 -16 25 -19 14 -4 37 -3 53 0 15 4 59 25 97 46 39 22 79 48 91 59
11 10 24 19 28 19 5 0 37 23 72 51 35 28 83 61 106 73 24 13 61 33 83 45 22
13 46 29 54 36 12 11 18 11 40 -4 14 -10 46 -31 71 -47 25 -16 61 -34 80 -40
19 -6 63 -17 98 -24 44 -9 103 -11 195 -6 93 5 136 11 147 21 15 13 24 11 76
-16 32 -17 82 -33 109 -36 41 -4 54 -2 75 16 21 17 23 22 10 31 -8 5 -24 10
-35 10 -11 0 -47 13 -81 29 -33 17 -68 39 -78 50 -11 12 -24 21 -30 21 -6 0
-27 -11 -46 -24 -19 -13 -55 -27 -80 -32 -25 -5 -74 -9 -110 -8 -36 0 -85 6
-110 12 -25 6 -58 15 -75 19 -16 5 -52 22 -79 38 -27 17 -66 44 -86 62z"/>
</g>
<g>
<path d="M12785 3923 c-11 3 -30 2 -42 -3 -12 -5 -28 -18 -35 -30 -7 -11 -17
-20 -21 -20 -5 0 -36 -20 -71 -44 -34 -25 -110 -70 -169 -100 -59 -31 -117
-56 -128 -56 -11 0 -32 -6 -47 -14 -15 -7 -45 -17 -68 -20 -22 -4 -55 -16 -72
-26 -18 -11 -32 -28 -32 -39 0 -10 7 -22 16 -25 9 -3 29 -6 45 -6 16 0 40 6
52 14 12 8 58 24 102 36 44 12 85 26 90 30 6 5 30 16 55 26 25 10 47 20 50 24
3 3 41 28 85 55 44 27 82 51 85 55 3 3 17 13 32 23 15 9 33 17 40 17 7 0 37
-19 65 -42 29 -24 81 -54 115 -68 58 -23 74 -25 207 -23 85 1 148 6 154 12 6
6 20 11 31 11 11 0 49 9 85 20 36 10 98 26 136 35 39 8 80 15 93 15 13 0 50
-21 83 -46 33 -25 93 -61 133 -80 41 -18 112 -46 158 -61 75 -25 97 -27 239
-28 102 0 161 4 170 11 8 7 29 15 47 19 17 3 32 11 32 17 0 7 -25 7 -72 2 -40
-4 -98 -7 -128 -6 -30 1 -84 4 -119 8 -35 3 -91 16 -125 29 -33 13 -107 47
-163 74 -57 28 -103 56 -103 63 0 7 -19 32 -42 55 -23 24 -48 43 -56 43 -8 0
-46 -9 -85 -21 -40 -11 -85 -27 -102 -34 -16 -7 -48 -18 -70 -23 -22 -6 -74
-18 -115 -28 -41 -9 -102 -19 -136 -21 -33 -3 -93 0 -133 5 -66 10 -77 15
-127 59 -30 26 -69 60 -87 75 -18 14 -41 28 -52 31z"/>
</g>
<g>
<path d="M3383 2132 c-10 3 -25 3 -33 0 -8 -3 -28 -15 -45 -27 -16 -12 -52
-34 -80 -48 -27 -14 -115 -58 -195 -97 -80 -40 -161 -82 -180 -93 -19 -12 -35
-20 -35 -18 0 2 -18 -4 -40 -14 -22 -9 -68 -24 -103 -32 -41 -11 -67 -23 -73
-35 -6 -11 -8 -27 -5 -35 5 -13 19 -15 79 -10 39 2 87 12 105 22 18 9 38 18
45 19 7 1 37 14 67 30 30 16 93 48 140 72 47 24 119 59 160 78 41 20 96 48
123 63 l47 28 63 -67 c34 -36 91 -90 127 -120 36 -29 83 -60 105 -69 22 -9 56
-22 76 -28 20 -6 80 -15 133 -20 73 -7 107 -6 139 3 23 8 67 18 99 24 31 6 81
22 111 36 29 14 58 26 62 26 4 0 27 10 51 21 l42 22 32 -24 c17 -13 53 -43 80
-66 27 -23 80 -57 117 -76 43 -21 91 -36 129 -41 33 -4 85 -2 115 4 30 6 72
16 94 22 22 6 44 15 49 20 6 4 22 8 38 8 21 0 49 -21 120 -88 51 -48 122 -106
158 -129 36 -22 81 -47 100 -56 19 -8 59 -22 89 -31 29 -9 62 -16 72 -16 10 0
20 4 23 8 3 5 -8 19 -24 30 -16 12 -36 22 -44 22 -8 0 -16 3 -18 8 -1 4 -28
20 -58 36 -30 16 -75 46 -99 65 -24 20 -65 56 -91 81 -26 25 -60 57 -76 71
-16 15 -44 43 -62 63 -19 20 -40 36 -48 36 -8 0 -62 -16 -121 -35 -86 -29
-121 -36 -174 -34 -46 1 -83 9 -119 26 -29 13 -87 56 -130 94 -43 39 -90 77
-104 85 -15 7 -33 13 -39 11 -6 -1 -57 -25 -112 -54 -56 -29 -113 -54 -128
-57 -15 -2 -30 -7 -35 -10 -4 -2 -55 -12 -112 -20 -88 -13 -116 -14 -170 -3
-37 7 -98 30 -140 52 -41 22 -93 58 -115 80 -22 22 -68 72 -102 111 -34 39
-70 73 -80 76z"/>
</g>
<g>
<path d="M11623 1403 c-10 3 -30 0 -44 -6 -14 -7 -32 -17 -40 -23 -8 -6 -53
-32 -102 -58 -48 -25 -109 -61 -135 -79 -26 -17 -63 -39 -82 -49 -19 -9 -55
-24 -80 -33 -25 -10 -70 -23 -100 -31 -30 -7 -83 -13 -117 -14 -34 0 -73 -4
-87 -10 -18 -7 -26 -17 -26 -34 0 -22 5 -25 48 -31 26 -3 58 -7 70 -9 13 -2
49 3 80 11 32 7 66 18 77 23 11 5 50 20 87 34 36 14 70 26 75 26 5 0 35 18 68
40 33 22 68 40 78 40 9 0 17 5 17 10 0 6 4 10 10 10 5 0 26 11 47 25 21 14 44
30 51 36 7 6 26 14 42 19 23 6 39 2 82 -21 29 -16 73 -39 98 -51 25 -11 61
-25 80 -30 19 -5 55 -14 80 -20 25 -5 104 -10 175 -10 113 -1 140 3 205 24 51
17 76 31 79 43 3 15 -2 17 -30 11 -19 -4 -61 -12 -94 -17 -33 -5 -69 -10 -80
-10 -11 -1 -47 1 -81 4 -33 3 -101 15 -150 27 -49 12 -93 25 -99 29 -5 5 -25
13 -43 19 -18 6 -47 22 -63 34 -17 13 -41 33 -54 45 -14 12 -32 24 -42 26z"/>
</g>
</g>
</svg>
