<?xml version="1.0" standalone="no"?>
<!DOCTYPE svg PUBLIC "-//W3C//DTD SVG 20010904//EN"
 "http://www.w3.org/TR/2001/REC-SVG-20010904/DTD/svg10.dtd">
<svg version="1.0" xmlns="http://www.w3.org/2000/svg"
 width="1377.000000pt" height="1836.000000pt" viewBox="0 0 1377.000000 1836.000000"
 preserveAspectRatio="xMidYMid meet">
<metadata>
Created by potrace 1.16, written by Peter Selinger 2001-2019
</metadata>
<g transform="translate(0.000000,1836.000000) scale(0.100000,-0.100000)"
fill="#000000" stroke="none">
<g>
<path d="M3210 17730 c-6 0 -18 -8 -28 -18 -11 -11 -39 -22 -63 -26 -24 -4
-74 -11 -112 -16 -37 -5 -75 -13 -85 -18 -9 -5 -41 -12 -71 -15 -29 -4 -90
-18 -135 -33 -44 -15 -99 -34 -121 -42 -22 -7 -65 -25 -95 -39 -30 -14 -98
-53 -150 -88 -52 -35 -138 -104 -191 -154 -53 -49 -104 -106 -113 -125 -9 -19
-21 -38 -26 -41 -5 -3 -36 -61 -69 -128 -33 -67 -73 -162 -90 -210 -24 -70
-34 -125 -47 -264 -14 -144 -15 -191 -5 -252 6 -42 11 -90 11 -108 0 -17 10
-48 21 -68 13 -22 21 -53 21 -78 0 -23 -3 -56 -7 -73 -4 -20 -3 -34 5 -39 6
-4 20 1 30 10 19 17 20 16 30 -9 5 -15 10 -40 10 -56 0 -16 -13 -53 -30 -83
-16 -30 -30 -62 -30 -69 0 -8 -14 -27 -31 -42 -16 -15 -29 -35 -27 -44 2 -9
12 -18 24 -20 15 -2 29 10 52 46 18 28 32 55 32 61 0 7 7 25 15 41 9 17 22 30
31 30 8 0 22 -17 31 -37 8 -21 21 -45 29 -53 7 -8 46 -53 87 -100 40 -47 107
-113 147 -147 41 -34 78 -72 82 -84 6 -16 14 -20 31 -17 13 3 44 -6 68 -18 24
-13 67 -34 96 -48 29 -13 72 -38 97 -55 25 -17 48 -31 52 -31 4 0 46 -16 93
-36 47 -20 114 -49 148 -64 60 -27 62 -30 67 -72 3 -23 8 -88 12 -143 3 -55 8
-208 10 -340 1 -132 8 -289 14 -350 6 -60 15 -146 20 -190 5 -44 16 -168 24
-275 8 -107 17 -319 21 -470 3 -151 5 -313 4 -360 0 -47 -1 -101 0 -120 0 -19
0 -73 1 -118 1 -50 -2 -88 -9 -95 -6 -6 -11 -20 -11 -30 0 -10 9 -21 19 -24
11 -3 22 -11 25 -19 3 -8 15 -14 26 -14 11 0 23 7 26 15 3 8 25 17 52 20 26 3
64 8 85 11 37 6 38 5 31 -21 -5 -18 -2 -30 7 -36 8 -5 19 -9 26 -9 6 0 22 16
34 37 l23 36 285 -6 c157 -3 297 -2 311 2 23 6 25 12 24 62 0 29 -6 146 -13
259 -7 113 -15 239 -18 280 -2 41 -8 145 -13 230 -7 112 -7 163 1 183 9 20 8
34 -1 56 -9 23 -10 165 -6 608 3 318 9 599 12 626 4 26 11 50 16 53 6 4 56 17
111 29 56 13 157 40 223 59 67 20 157 52 200 72 44 19 117 54 164 77 46 23
124 68 172 100 48 32 118 87 155 121 37 35 86 90 108 122 22 33 43 61 46 64 4
3 32 55 62 115 42 83 60 132 73 200 12 63 17 145 18 270 0 137 -4 199 -17 259
-10 43 -31 120 -48 170 -16 50 -52 137 -79 193 -28 56 -50 104 -50 107 0 3
-20 37 -44 75 -25 38 -49 72 -55 76 -6 3 -11 13 -11 21 0 8 -18 40 -41 70 -22
30 -71 87 -107 126 -37 39 -101 98 -142 130 -41 32 -87 69 -103 81 -15 12 -55
37 -89 55 -34 17 -67 32 -73 32 -5 0 -23 11 -39 25 -16 13 -38 27 -50 31 -11
3 -43 16 -71 29 -27 13 -90 39 -140 58 -49 19 -143 47 -207 62 l-117 28 -282
-7 c-155 -3 -299 -9 -320 -12 -31 -5 -39 -3 -48 15 -7 11 -16 21 -21 21z m433
-80 c6 0 29 -3 50 -6 26 -5 37 -12 37 -24 0 -10 -17 -53 -39 -96 -21 -44 -48
-101 -60 -129 -13 -27 -29 -61 -37 -75 -8 -14 -36 -68 -63 -120 -26 -52 -53
-105 -59 -118 -7 -12 -17 -32 -24 -44 -6 -13 -21 -43 -34 -68 -12 -25 -34 -70
-48 -101 -14 -31 -26 -60 -26 -64 0 -5 -22 -52 -50 -106 -27 -53 -50 -104 -50
-112 0 -8 -6 -20 -14 -26 -8 -7 -23 -29 -34 -49 -10 -20 -27 -53 -37 -72 -10
-19 -30 -53 -45 -75 -14 -22 -31 -51 -38 -65 -7 -14 -26 -47 -44 -75 -17 -27
-55 -97 -85 -155 -29 -58 -64 -123 -78 -145 -14 -22 -29 -49 -35 -60 -5 -11
-15 -29 -22 -40 -7 -11 -22 -36 -33 -55 -12 -19 -43 -69 -69 -110 -27 -41 -57
-86 -66 -100 -10 -14 -27 -43 -39 -65 -12 -22 -36 -60 -54 -85 -25 -33 -41
-46 -64 -48 -18 -2 -35 3 -42 12 -11 13 -9 25 14 68 16 29 38 73 51 98 12 25
38 82 58 126 20 45 36 89 36 97 0 9 4 18 9 21 5 3 12 17 15 31 3 13 20 47 36
75 17 28 30 59 30 69 0 10 7 24 15 31 8 7 24 31 35 54 11 22 38 70 60 106 22
36 55 97 74 135 19 39 46 95 61 125 14 30 43 85 63 123 20 37 55 97 77 133 22
37 45 74 50 83 6 9 36 61 68 117 31 55 57 104 57 108 0 4 22 53 49 109 27 56
52 109 55 117 3 8 16 31 27 50 12 19 33 55 47 80 14 25 33 56 44 69 10 13 18
28 18 33 0 5 11 24 24 41 13 18 36 56 50 85 15 29 36 62 46 72 11 11 26 20 33
20z m-183 -10 c41 0 62 -4 66 -13 3 -8 -5 -36 -16 -63 -12 -27 -31 -62 -44
-79 -12 -16 -35 -52 -51 -80 -16 -27 -39 -68 -51 -91 -12 -22 -25 -51 -29 -65
-4 -13 -14 -32 -23 -42 -8 -9 -21 -27 -28 -40 -7 -12 -21 -38 -30 -57 -9 -19
-42 -86 -73 -148 -31 -62 -70 -141 -88 -175 -17 -34 -36 -68 -42 -74 -7 -7
-21 -30 -33 -50 -13 -21 -26 -42 -30 -48 -4 -5 -41 -75 -81 -155 -41 -80 -95
-183 -120 -230 -25 -47 -57 -105 -70 -130 -14 -25 -48 -90 -76 -145 -28 -55
-65 -134 -82 -175 -17 -41 -51 -111 -74 -155 -24 -44 -56 -105 -72 -135 -15
-30 -36 -56 -45 -58 -10 -2 -29 5 -42 15 -14 10 -26 28 -26 41 0 13 8 36 18
50 10 15 29 52 42 82 13 30 28 60 32 66 4 6 22 37 39 70 17 32 37 66 45 75 8
8 19 31 25 50 7 19 17 41 24 49 7 8 35 57 61 108 27 51 56 105 64 120 9 15 29
47 45 72 16 25 47 82 70 127 23 45 47 88 53 95 6 8 36 74 67 148 30 74 62 149
69 165 8 17 26 57 41 90 15 33 40 89 57 125 17 36 39 81 49 100 11 19 31 60
45 90 14 30 30 62 35 70 5 8 16 26 25 40 8 14 44 79 80 145 35 66 64 123 64
127 0 5 11 26 25 48 25 39 26 40 85 40z m397 -2 c29 -2 50 -9 56 -19 8 -13 -7
-53 -70 -180 -44 -90 -86 -175 -92 -189 -7 -14 -28 -52 -46 -85 -19 -33 -42
-78 -52 -100 -10 -21 -39 -83 -65 -138 -27 -54 -48 -105 -48 -113 0 -9 -11
-30 -25 -48 -14 -18 -25 -36 -25 -41 0 -4 -25 -53 -55 -109 -31 -56 -66 -117
-78 -136 -12 -20 -57 -89 -101 -155 -43 -66 -99 -151 -125 -190 -26 -38 -60
-92 -77 -120 -16 -27 -35 -61 -42 -75 -7 -14 -29 -56 -51 -95 -21 -38 -57
-106 -81 -150 -23 -44 -48 -87 -55 -95 -7 -8 -23 -35 -35 -60 -12 -25 -28 -52
-35 -60 -6 -8 -23 -35 -36 -60 -13 -25 -34 -58 -46 -73 -13 -16 -23 -35 -23
-43 0 -8 -10 -14 -22 -14 -13 0 -31 7 -40 14 -10 7 -18 22 -18 33 0 11 7 26
15 33 8 7 15 18 15 24 0 6 16 35 35 63 19 29 35 56 35 61 0 5 9 17 20 27 10 9
28 34 38 54 11 20 37 63 58 96 21 33 50 81 64 106 14 26 38 71 54 100 16 30
48 86 71 124 23 39 58 100 77 137 20 37 44 79 55 95 11 15 32 55 48 88 16 33
46 85 66 116 21 31 54 89 73 130 20 41 40 81 45 89 5 8 21 44 36 80 15 36 40
86 56 113 16 26 29 54 29 61 0 8 53 119 118 246 64 127 132 259 149 293 18 34
33 67 33 73 0 6 9 19 19 28 11 10 22 29 25 42 6 23 11 25 53 22z m-601 -8 c40
0 54 -4 54 -14 0 -8 -9 -34 -20 -58 -11 -24 -24 -50 -29 -58 -5 -8 -33 -62
-62 -120 -28 -58 -60 -116 -70 -129 -11 -13 -19 -29 -19 -36 0 -7 -15 -39 -33
-72 -18 -32 -45 -87 -61 -123 -16 -36 -40 -90 -53 -120 -13 -30 -33 -73 -44
-95 -10 -22 -19 -43 -19 -47 0 -4 -24 -58 -54 -120 -29 -62 -72 -151 -95 -198
-23 -47 -54 -106 -69 -131 -15 -26 -47 -82 -71 -125 -25 -44 -55 -92 -67 -109
-12 -16 -43 -71 -68 -122 -25 -50 -46 -94 -46 -99 0 -4 -7 -15 -15 -24 -8 -8
-28 -40 -44 -70 -17 -30 -47 -89 -68 -130 -20 -41 -41 -78 -47 -82 -6 -4 -14
-8 -17 -8 -3 0 -15 9 -27 20 -19 18 -20 23 -8 52 8 18 17 52 21 75 4 24 11 45
16 48 4 3 16 23 25 43 8 20 20 44 24 52 5 8 41 74 79 146 39 72 77 137 86 144
8 7 15 18 15 25 0 8 11 27 25 43 14 17 25 34 25 40 0 5 6 15 14 22 8 6 44 71
80 143 36 73 66 136 66 141 0 5 14 38 30 73 17 34 30 67 30 73 0 5 16 45 35
87 20 43 43 92 53 108 9 17 56 107 104 200 48 94 102 199 119 235 16 36 42 90
56 120 14 30 41 88 60 128 l35 72 54 0z m-178 -21 c36 1 42 -2 42 -19 0 -12
-16 -55 -35 -96 -19 -41 -35 -82 -35 -92 0 -9 -9 -28 -20 -42 -11 -14 -20 -31
-20 -38 0 -8 -9 -27 -20 -42 -11 -16 -41 -73 -67 -127 -25 -54 -48 -100 -52
-103 -4 -3 -20 -30 -36 -60 -16 -30 -49 -95 -73 -144 -24 -49 -49 -106 -57
-125 -7 -20 -25 -67 -40 -106 -15 -38 -49 -115 -76 -170 -27 -55 -49 -105 -49
-111 0 -6 -9 -19 -21 -30 -11 -10 -37 -48 -57 -84 -20 -36 -51 -87 -69 -115
-18 -27 -33 -57 -33 -67 0 -9 -8 -24 -17 -34 -10 -9 -30 -38 -45 -63 -15 -25
-43 -80 -63 -121 -20 -41 -42 -82 -50 -90 -7 -8 -18 -32 -25 -54 l-12 -38 -39
43 c-22 24 -53 73 -70 108 l-31 64 45 91 c25 50 61 125 80 166 20 41 56 119
81 174 25 54 46 101 46 103 0 3 16 42 36 87 19 44 39 90 44 101 5 11 22 52 39
90 16 39 45 111 65 161 20 50 36 98 36 106 0 8 4 18 9 24 5 5 21 41 36 79 15
39 34 79 41 90 8 11 14 29 14 42 0 12 6 28 14 35 7 8 27 41 44 74 16 32 51
103 78 157 48 96 49 98 102 117 29 11 66 20 82 20 17 0 30 -1 30 -3 0 -1 -15
-38 -34 -82 -19 -44 -61 -132 -93 -195 -33 -63 -70 -132 -81 -153 -12 -21 -22
-43 -22 -50 0 -7 -16 -37 -35 -67 -19 -30 -35 -63 -35 -72 0 -10 -9 -22 -20
-28 -11 -6 -20 -19 -20 -28 0 -10 -6 -26 -13 -37 -8 -11 -17 -35 -20 -53 -4
-19 -19 -53 -35 -75 -15 -23 -38 -73 -52 -112 -13 -38 -30 -81 -37 -95 -7 -14
-13 -35 -13 -47 0 -12 -4 -24 -9 -27 -5 -4 -12 -24 -16 -46 -4 -22 -11 -43
-16 -46 -6 -3 -29 -47 -53 -97 -24 -51 -49 -106 -56 -124 -6 -17 -20 -39 -31
-49 -10 -9 -19 -20 -19 -24 0 -4 -17 -36 -37 -71 -21 -35 -51 -79 -68 -98 -16
-18 -30 -38 -30 -44 0 -7 9 -13 20 -15 14 -2 33 15 66 60 26 35 58 83 73 108
14 25 49 92 78 150 29 58 57 108 63 112 5 4 6 8 1 8 -4 0 -1 11 8 25 10 14 32
67 51 118 18 51 45 121 60 157 14 36 40 97 56 135 17 39 48 106 70 150 22 44
39 83 39 87 0 4 13 26 29 50 15 24 41 72 57 108 15 36 36 76 44 90 9 14 31 49
48 78 18 29 32 56 32 59 0 2 29 65 65 138 35 73 70 136 77 138 7 3 32 6 56 6z
m953 -3 c21 -3 50 -11 64 -18 14 -6 25 -19 25 -29 0 -10 -10 -29 -22 -42 -13
-13 -30 -32 -39 -43 -9 -11 -23 -34 -32 -50 -9 -16 -34 -67 -55 -114 -22 -47
-54 -120 -72 -164 -18 -43 -43 -98 -56 -123 -13 -24 -24 -52 -24 -62 0 -10 -7
-24 -15 -31 -8 -7 -15 -18 -15 -25 0 -6 -6 -25 -14 -41 -8 -16 -31 -65 -51
-109 -20 -44 -43 -93 -50 -110 -7 -16 -23 -57 -35 -90 -12 -33 -26 -68 -31
-77 -5 -10 -9 -25 -9 -34 0 -9 -12 -38 -28 -63 -15 -25 -33 -57 -39 -71 -6
-14 -21 -45 -33 -70 -11 -25 -36 -70 -55 -100 -19 -30 -38 -62 -42 -70 -4 -8
-21 -37 -37 -65 -16 -27 -35 -57 -41 -65 -7 -8 -40 -69 -75 -135 -35 -66 -74
-134 -86 -151 -13 -17 -24 -34 -24 -37 0 -4 -16 -31 -35 -61 -19 -30 -35 -59
-35 -63 0 -5 -13 -24 -29 -43 -15 -19 -40 -57 -54 -85 -13 -27 -34 -59 -46
-69 -12 -11 -21 -25 -21 -33 0 -7 -11 -31 -25 -53 -14 -22 -29 -40 -34 -40 -4
0 -43 16 -85 35 -42 20 -76 40 -76 46 0 6 11 32 24 58 13 25 45 86 70 136 26
49 54 97 62 106 8 8 14 20 14 26 0 5 11 20 25 33 14 13 25 30 25 38 0 8 8 26
18 40 10 15 26 44 35 64 10 20 22 40 27 43 6 3 10 14 10 23 0 9 6 28 13 42 8
14 23 41 34 60 11 19 44 75 72 124 29 49 65 106 80 125 15 20 55 79 89 131 34
52 74 113 89 135 16 22 43 64 61 94 18 30 61 113 96 185 35 72 73 151 84 176
11 25 30 68 42 95 12 28 39 84 60 125 21 41 68 131 103 200 36 69 82 159 103
200 22 41 43 81 48 89 6 9 20 11 47 7z m168 -56 c9 0 40 -9 70 -20 29 -10 56
-22 59 -25 3 -3 1 -19 -5 -35 -6 -16 -54 -104 -106 -197 -52 -92 -104 -186
-114 -208 -10 -22 -21 -42 -24 -45 -3 -3 -16 -27 -28 -54 -11 -27 -21 -53 -21
-59 0 -6 -6 -18 -13 -26 -7 -9 -30 -54 -51 -101 -21 -47 -57 -123 -78 -170
-22 -47 -58 -121 -80 -165 -22 -44 -54 -105 -72 -135 -17 -30 -49 -90 -71
-132 -22 -42 -59 -111 -83 -153 -24 -42 -86 -140 -138 -217 -52 -77 -116 -180
-141 -227 -25 -47 -52 -93 -58 -101 -7 -8 -47 -80 -89 -160 -42 -80 -82 -160
-89 -179 -6 -18 -17 -36 -24 -38 -6 -2 -31 2 -55 10 -23 8 -44 22 -46 31 -2 8
18 55 44 103 25 48 53 95 60 104 8 8 14 21 14 27 0 6 10 23 23 39 13 15 50 73
82 128 32 55 65 111 74 125 9 14 21 36 28 50 7 14 17 32 22 40 5 8 39 68 75
132 36 64 66 119 66 123 0 3 16 31 36 62 19 30 57 98 84 150 27 52 53 100 58
106 5 7 30 68 57 137 26 69 54 143 63 165 8 22 21 54 28 72 8 17 14 34 14 37
0 4 11 23 24 44 14 20 28 51 32 67 4 17 11 35 15 41 5 6 24 42 43 80 18 38 50
110 70 159 20 50 44 104 53 120 9 17 39 73 66 125 28 52 64 112 80 133 17 20
38 37 46 37z m-1521 -40 c6 0 12 -6 12 -14 0 -7 -8 -24 -17 -37 -10 -13 -26
-38 -35 -56 -10 -17 -18 -43 -18 -57 0 -14 -4 -26 -8 -26 -5 0 -15 -12 -22
-27 -8 -16 -22 -39 -31 -53 -9 -14 -22 -43 -29 -64 -7 -22 -28 -73 -47 -115
-19 -42 -48 -115 -64 -162 -16 -48 -29 -98 -29 -111 0 -14 -18 -50 -41 -82
-28 -39 -44 -75 -53 -117 -6 -33 -17 -64 -23 -67 -7 -4 -21 -29 -32 -56 -12
-26 -21 -55 -21 -65 0 -9 -11 -32 -25 -51 -14 -19 -25 -42 -25 -51 0 -10 -4
-20 -9 -24 -5 -3 -17 -29 -27 -58 -9 -28 -22 -59 -29 -67 -7 -8 -16 -25 -19
-37 -4 -12 -28 -59 -53 -103 -25 -44 -48 -80 -52 -80 -3 0 -12 14 -20 31 -7
17 -11 47 -8 68 2 21 21 71 42 112 20 41 50 110 66 153 16 43 36 91 43 105 8
14 23 49 34 76 11 28 33 86 50 130 16 44 44 116 60 160 17 44 52 132 77 195
26 63 69 160 95 215 26 55 53 111 59 125 7 14 25 48 41 75 16 28 33 60 39 73
6 12 19 25 28 28 10 3 32 12 48 20 17 7 36 14 43 14z m1717 -50 c6 0 28 -7 50
-14 26 -9 41 -21 43 -33 2 -11 -12 -49 -31 -84 -19 -35 -63 -118 -99 -184 -36
-66 -69 -131 -73 -145 -4 -14 -12 -32 -19 -40 -6 -8 -17 -26 -25 -40 -8 -14
-32 -59 -53 -100 -21 -41 -38 -78 -38 -82 0 -4 -33 -74 -74 -156 -40 -82 -79
-166 -86 -188 -7 -21 -30 -77 -52 -124 -21 -47 -74 -155 -116 -240 -42 -85
-80 -156 -84 -158 -5 -2 -8 -10 -8 -17 0 -8 -13 -35 -28 -62 -16 -26 -62 -104
-102 -173 -40 -69 -83 -141 -95 -160 -12 -19 -40 -66 -61 -105 -22 -38 -43
-79 -47 -90 -4 -11 -14 -27 -22 -35 -8 -9 -46 -78 -86 -155 -39 -77 -77 -147
-84 -155 -7 -8 -25 -37 -41 -65 -15 -27 -39 -65 -52 -83 -14 -18 -29 -29 -33
-25 -5 5 -9 70 -10 145 -2 117 0 141 15 156 9 11 41 72 70 136 30 64 61 127
70 141 9 13 16 27 16 31 0 4 6 15 14 23 7 9 33 54 57 101 24 47 59 112 79 145
19 33 52 85 73 115 20 30 53 79 71 108 19 28 58 91 86 140 28 48 55 94 60 102
5 8 42 76 83 150 41 74 87 164 104 200 16 36 38 83 48 105 9 22 35 78 57 125
22 47 53 112 68 145 15 33 44 95 64 137 20 42 59 116 88 165 28 48 64 115 80
148 17 33 38 69 48 80 10 11 21 31 25 45 4 14 15 35 24 47 9 12 21 22 26 23z
m-1927 -66 c2 -9 -5 -29 -17 -45 -12 -15 -21 -34 -21 -42 0 -7 -7 -22 -15 -33
-8 -10 -15 -28 -15 -40 0 -12 -12 -38 -26 -59 -14 -21 -28 -54 -31 -73 -4 -19
-28 -78 -56 -131 -27 -53 -56 -117 -63 -143 -8 -25 -21 -59 -29 -75 -8 -15
-15 -33 -15 -39 0 -6 -11 -37 -25 -68 -14 -31 -25 -68 -25 -83 0 -14 -11 -41
-25 -59 -14 -18 -25 -37 -25 -43 0 -5 -12 -38 -26 -73 -15 -35 -36 -83 -47
-108 -11 -25 -33 -73 -48 -108 -16 -35 -33 -61 -38 -58 -5 4 -12 20 -16 37 -4
16 -1 53 5 82 7 29 20 79 30 112 10 33 34 101 53 150 19 50 53 126 75 170 22
44 45 96 52 115 7 19 25 62 41 95 15 33 56 125 92 205 36 80 83 178 104 219
28 54 47 79 73 92 32 18 35 18 38 3z m2085 -14 c3 0 22 -9 41 -21 20 -12 36
-27 36 -34 0 -7 -6 -26 -14 -42 -8 -15 -25 -55 -37 -88 -13 -33 -75 -163 -139
-290 -64 -126 -138 -270 -165 -320 -26 -49 -80 -146 -118 -215 -39 -69 -87
-156 -107 -195 -20 -38 -45 -92 -55 -120 -10 -27 -27 -59 -37 -71 -10 -11 -18
-26 -18 -33 0 -6 -16 -47 -37 -89 -20 -42 -44 -95 -53 -117 -10 -22 -39 -84
-66 -139 -26 -54 -53 -104 -59 -110 -6 -6 -23 -34 -37 -61 -14 -28 -45 -88
-70 -135 -25 -47 -54 -102 -66 -122 -12 -20 -32 -54 -45 -75 -14 -21 -39 -66
-56 -98 -17 -33 -45 -85 -61 -115 -17 -30 -33 -64 -36 -74 -4 -10 -19 -39 -35
-64 -16 -25 -29 -53 -29 -61 0 -8 -22 -52 -50 -98 -27 -46 -50 -86 -50 -89 0
-3 -19 -37 -41 -75 -23 -38 -45 -69 -49 -69 -4 0 -10 55 -12 123 -5 114 -3
125 19 170 13 26 31 51 39 54 9 3 28 31 43 62 15 31 41 79 58 106 16 28 46 78
66 111 20 34 51 92 68 130 16 38 34 71 38 74 4 3 22 33 39 67 17 34 61 112 98
175 37 62 78 129 91 149 13 20 34 55 46 78 12 23 52 99 88 169 36 70 80 154
99 187 19 33 42 77 52 97 10 20 18 41 18 46 0 5 18 49 39 98 22 49 51 112 65
139 14 28 26 54 26 58 0 5 24 59 54 121 30 62 58 125 62 142 4 16 12 36 19 44
6 8 30 47 52 85 22 39 48 92 58 118 10 26 22 50 27 53 5 3 29 47 53 97 25 51
57 110 70 132 14 22 30 52 36 68 6 15 14 27 19 27 4 0 10 9 13 20 3 11 8 20
10 20z m153 -111 c11 -9 14 -22 9 -48 -4 -20 -11 -41 -15 -46 -5 -6 -25 -42
-45 -80 -19 -39 -39 -77 -44 -85 -4 -8 -29 -58 -55 -110 -25 -52 -46 -103 -46
-112 0 -9 -4 -19 -9 -22 -4 -3 -11 -18 -14 -34 -3 -15 -28 -76 -56 -134 -27
-57 -68 -132 -90 -166 -23 -34 -41 -64 -41 -68 0 -4 -10 -21 -23 -38 -13 -17
-39 -58 -58 -91 -18 -33 -41 -76 -50 -95 -9 -19 -44 -91 -77 -160 -33 -69 -78
-163 -101 -210 -23 -47 -41 -90 -41 -96 0 -7 -36 -83 -80 -170 -44 -87 -80
-164 -80 -171 0 -7 -9 -29 -21 -50 -11 -20 -29 -57 -39 -82 -10 -25 -29 -71
-43 -101 -14 -30 -37 -89 -51 -130 -15 -41 -33 -84 -40 -95 -7 -11 -16 -33
-20 -50 -4 -16 -39 -95 -78 -175 -39 -80 -86 -165 -105 -189 -18 -24 -33 -47
-33 -52 0 -4 -21 -43 -48 -86 -26 -43 -53 -89 -60 -103 -7 -14 -23 -43 -37
-65 -13 -22 -27 -47 -30 -55 -4 -8 -11 -22 -16 -30 -5 -8 -15 -27 -22 -42 -6
-16 -15 -28 -19 -28 -4 0 -8 1 -9 3 0 1 -4 56 -8 122 -7 109 -6 121 11 135 10
8 31 38 46 66 15 29 51 94 80 145 30 52 80 149 113 215 32 67 59 127 59 134 0
8 6 21 14 29 8 9 32 50 53 91 21 42 49 90 61 107 12 18 33 56 46 85 14 29 36
68 50 87 14 19 26 40 26 45 0 6 27 60 60 119 33 60 62 118 66 130 4 12 13 27
20 35 8 7 14 21 14 31 0 9 12 37 28 62 15 24 43 78 61 119 19 41 43 95 54 120
10 25 34 76 53 114 19 37 34 74 34 81 0 8 6 20 13 27 7 7 25 38 40 68 14 30
48 94 74 142 26 48 62 111 79 140 18 30 51 89 74 133 24 44 56 107 72 140 16
33 67 134 112 225 46 91 93 181 105 200 11 19 21 42 21 50 0 8 9 30 20 48 18
29 23 32 36 21z m-2436 1 c7 0 10 -3 8 -7 -2 -5 -15 -33 -29 -63 -15 -30 -34
-75 -43 -100 -10 -25 -42 -99 -72 -166 -30 -67 -54 -135 -54 -151 0 -17 -8
-38 -19 -47 -11 -10 -36 -52 -55 -93 -20 -41 -36 -82 -36 -92 0 -9 -7 -29 -15
-44 -8 -16 -24 -61 -36 -100 -11 -40 -25 -76 -29 -81 -5 -5 -11 1 -14 15 -4
13 -4 44 -2 69 2 25 9 83 16 130 7 47 19 110 27 140 8 30 17 61 19 68 2 8 11
11 23 7 16 -5 21 1 26 27 4 18 14 49 23 68 8 19 26 62 41 95 14 33 50 93 79
134 28 41 52 81 52 90 0 9 18 35 40 59 21 23 44 42 50 42z m2524 -80 c8 0 28
-16 46 -36 20 -23 28 -39 21 -43 -6 -4 -18 -31 -27 -61 -9 -29 -37 -92 -64
-139 -26 -47 -64 -113 -84 -146 -20 -33 -36 -65 -36 -70 0 -6 -11 -26 -23 -45
-13 -19 -27 -48 -31 -63 -4 -16 -20 -56 -36 -90 -16 -34 -56 -123 -90 -197
-34 -74 -74 -169 -90 -210 -15 -41 -48 -116 -73 -166 -25 -50 -50 -109 -56
-132 -7 -23 -16 -44 -22 -48 -6 -3 -25 -38 -43 -78 -18 -39 -45 -105 -61 -146
-16 -41 -36 -88 -46 -105 -9 -16 -20 -39 -23 -51 -3 -11 -38 -79 -77 -150 -39
-71 -86 -166 -105 -212 -19 -46 -44 -100 -56 -120 -11 -20 -72 -138 -134 -262
-63 -124 -114 -228 -114 -233 0 -4 -13 -26 -30 -49 -16 -22 -30 -46 -30 -53 0
-6 -29 -67 -63 -136 -35 -68 -72 -137 -81 -154 -9 -16 -25 -50 -36 -75 -11
-25 -36 -74 -57 -111 -21 -36 -54 -93 -73 -127 -19 -34 -39 -61 -45 -59 -5 2
-13 58 -18 125 l-7 121 33 53 c19 29 53 91 77 138 23 47 53 103 66 125 13 22
28 50 34 63 5 12 38 69 73 125 35 56 77 127 94 157 16 30 37 69 46 85 9 17 34
71 55 120 22 50 54 131 72 180 18 50 46 124 62 165 17 41 46 109 65 150 19 41
43 93 53 115 10 22 41 87 68 145 27 58 64 141 82 185 18 44 38 87 45 95 7 8
39 71 72 140 33 69 77 162 96 207 20 46 54 109 75 140 21 32 61 99 89 148 27
50 66 120 87 157 20 36 36 74 36 83 0 9 14 49 30 88 17 40 49 108 71 152 22
44 54 105 72 136 17 31 47 82 65 113 18 31 38 56 46 56z m116 -120 c3 0 21
-16 40 -35 29 -30 32 -38 23 -57 -6 -13 -23 -61 -38 -108 -15 -47 -37 -103
-48 -125 -12 -22 -26 -47 -32 -55 -7 -8 -32 -62 -58 -120 -25 -58 -55 -130
-67 -160 -11 -30 -27 -69 -35 -87 -8 -17 -15 -34 -15 -38 0 -4 -6 -21 -14 -38
-8 -18 -16 -41 -19 -52 -3 -11 -26 -69 -50 -128 -25 -60 -52 -116 -61 -126 -9
-10 -16 -24 -16 -31 0 -7 -18 -52 -39 -99 -21 -47 -56 -126 -76 -176 -20 -49
-49 -117 -64 -150 -14 -33 -43 -94 -64 -135 -22 -41 -45 -82 -52 -90 -7 -8
-25 -39 -39 -69 -14 -30 -26 -59 -26 -63 0 -5 -19 -49 -42 -98 -28 -56 -51
-92 -66 -99 -13 -6 -35 -11 -50 -11 -15 0 -33 -4 -41 -9 -8 -5 -17 -31 -22
-57 -4 -27 -8 -69 -9 -94 0 -25 -7 -65 -16 -90 -9 -25 -26 -65 -38 -90 -13
-25 -28 -54 -34 -65 -5 -11 -17 -36 -25 -55 -8 -19 -56 -123 -106 -231 -50
-107 -91 -199 -91 -204 0 -4 -32 -71 -71 -148 -39 -77 -80 -157 -92 -176 -11
-20 -35 -65 -55 -101 -19 -36 -54 -101 -78 -145 -23 -44 -54 -100 -68 -125
-13 -25 -38 -65 -56 -88 -17 -24 -34 -41 -37 -38 -3 3 -5 69 -4 147 2 128 4
144 24 173 12 17 25 33 28 36 3 3 13 19 21 35 9 17 37 71 63 120 26 50 61 115
79 145 18 30 54 103 80 163 26 59 71 151 101 205 29 53 117 228 195 387 79
160 168 340 198 400 30 61 59 117 63 125 4 8 33 69 65 135 31 66 65 136 74
155 10 19 21 46 25 60 4 14 20 50 35 81 15 32 31 72 35 90 4 19 13 41 20 49 7
8 23 38 35 65 12 28 41 91 65 140 23 50 46 101 50 115 4 14 13 39 20 55 7 17
47 105 89 197 42 91 76 169 76 172 0 4 10 28 21 54 12 26 39 85 60 132 22 47
43 92 49 100 5 8 30 49 54 90 25 41 49 80 53 85 5 6 21 43 37 83 16 39 32 72
36 72z m120 -150 c3 0 10 -10 16 -23 6 -12 18 -35 27 -52 14 -26 14 -36 2 -82
-8 -29 -26 -81 -42 -115 -15 -35 -39 -83 -54 -108 -15 -25 -37 -70 -49 -100
-12 -30 -28 -66 -35 -80 -8 -14 -33 -65 -56 -115 -23 -49 -74 -157 -114 -240
-40 -82 -89 -186 -110 -230 -20 -44 -47 -102 -60 -130 -14 -27 -45 -93 -71
-145 -26 -52 -55 -112 -66 -132 -10 -20 -18 -43 -18 -49 0 -7 -6 -20 -14 -28
-7 -9 -18 -34 -24 -56 -6 -22 -18 -60 -27 -85 -9 -25 -24 -60 -32 -78 -9 -19
-32 -51 -51 -73 -25 -28 -43 -39 -64 -39 -16 0 -28 5 -28 13 0 6 9 27 20 45
11 18 35 67 52 110 18 42 43 95 56 117 12 22 27 47 32 55 5 8 33 67 63 130 30
63 69 151 87 195 17 44 48 118 67 165 20 47 53 121 75 165 21 44 46 100 55
125 8 25 28 73 44 107 16 34 29 67 29 74 0 7 15 48 34 93 18 45 55 133 81 196
26 63 75 172 109 242 33 71 63 128 66 128z m116 -205 c8 -10 14 -26 14 -35 0
-9 -5 -21 -11 -27 -6 -6 -17 -35 -24 -65 -8 -29 -27 -89 -43 -133 -16 -44 -60
-141 -97 -215 -37 -74 -103 -206 -146 -292 -44 -87 -79 -161 -79 -166 0 -4
-26 -59 -58 -122 -32 -63 -81 -158 -109 -210 -28 -52 -60 -113 -71 -135 -12
-22 -44 -88 -71 -148 -28 -59 -51 -116 -51 -126 0 -10 -7 -22 -16 -25 -9 -4
-19 -5 -21 -3 -2 3 8 38 22 78 14 41 32 96 40 122 7 26 18 53 23 60 5 7 15 30
22 52 7 22 16 45 20 50 5 6 33 60 63 120 30 61 67 137 82 170 15 33 31 69 35
80 5 11 41 88 80 170 40 83 82 173 95 200 12 28 43 94 68 147 26 53 58 125 72
160 15 35 41 92 58 128 17 36 37 70 43 76 6 7 19 33 29 60 16 43 19 46 31 29z
m56 -145 c4 0 14 -13 23 -30 8 -16 15 -37 15 -47 0 -10 -10 -23 -22 -28 -14
-6 -25 -22 -28 -40 -3 -16 -21 -61 -39 -100 -18 -38 -37 -77 -42 -85 -5 -8
-18 -34 -29 -57 -11 -23 -20 -47 -20 -53 0 -6 -13 -36 -30 -67 -16 -31 -30
-62 -30 -71 0 -8 -16 -48 -35 -89 -19 -41 -35 -77 -35 -80 0 -2 -15 -37 -34
-76 -19 -40 -50 -107 -70 -150 -20 -44 -36 -80 -36 -82 0 -1 -24 -45 -53 -96
-29 -52 -80 -148 -113 -213 -50 -100 -64 -121 -91 -133 -18 -7 -37 -13 -43
-13 -5 0 -10 5 -10 11 0 6 8 23 18 37 10 15 26 47 36 72 10 25 78 167 151 315
74 149 145 295 158 325 14 30 32 73 41 96 9 22 38 83 65 135 26 52 58 114 71
139 12 25 27 53 32 64 6 10 19 35 30 54 10 19 35 74 54 121 20 47 41 98 47
114 7 15 15 27 19 27z m59 -180 c4 0 10 -21 14 -46 5 -35 1 -58 -16 -102 -12
-31 -28 -69 -35 -84 -8 -15 -30 -71 -49 -125 -19 -54 -41 -111 -49 -128 -8
-16 -26 -55 -40 -85 -13 -30 -36 -86 -51 -124 -14 -38 -29 -74 -34 -80 -5 -6
-12 -26 -16 -43 -3 -18 -10 -33 -14 -33 -4 0 -14 -19 -21 -42 -8 -24 -29 -72
-47 -107 -23 -43 -33 -75 -31 -97 2 -25 -3 -37 -22 -52 -14 -10 -55 -35 -91
-55 -36 -21 -69 -37 -72 -37 -4 0 -7 7 -7 15 0 8 13 42 30 76 16 34 33 66 38
73 5 6 23 36 39 66 16 30 35 64 41 75 6 11 34 68 62 126 27 58 50 109 50 113
0 4 11 32 25 62 14 30 25 57 25 61 0 3 25 65 56 137 31 72 68 158 84 191 15
33 38 85 51 115 13 30 35 72 48 92 14 21 28 38 32 38z m31 -260 c6 0 7 -45 3
-117 -4 -65 -15 -156 -26 -202 -11 -47 -38 -121 -60 -165 -23 -45 -51 -92 -63
-106 -12 -14 -31 -38 -41 -55 -10 -16 -45 -58 -78 -92 -33 -35 -64 -63 -69
-63 -4 0 -8 6 -8 14 0 8 16 45 35 82 19 37 35 71 35 76 0 5 9 28 21 51 11 23
30 69 41 102 12 33 29 73 40 90 10 16 18 39 18 50 0 11 6 29 14 40 7 11 24 49
36 85 13 36 29 72 35 80 7 8 22 41 35 73 12 31 27 57 32 57z m-1359 -1662 c5
-29 7 -88 4 -130 -2 -54 -9 -83 -20 -96 -10 -10 -17 -23 -17 -29 0 -6 -7 -24
-15 -40 -8 -15 -35 -74 -60 -130 -25 -56 -77 -158 -116 -225 -39 -68 -82 -143
-96 -168 -14 -25 -33 -54 -43 -65 -10 -11 -27 -38 -39 -60 -12 -22 -42 -74
-67 -115 -24 -41 -61 -104 -81 -140 -20 -36 -51 -87 -68 -115 -18 -27 -50 -84
-71 -125 -21 -41 -46 -86 -56 -99 -16 -21 -18 -22 -19 -5 -1 11 -1 39 1 63 1
25 8 54 15 65 8 12 21 41 31 66 9 25 29 61 44 81 15 19 44 68 64 109 21 41 47
90 58 109 12 19 42 74 67 122 25 49 87 171 137 271 51 101 119 240 153 311 33
70 61 130 61 133 0 3 14 38 31 77 17 40 42 95 56 124 13 28 27 54 31 58 4 4
11 -17 15 -47z m-6 -378 c3 0 3 -49 0 -109 -5 -86 -11 -120 -32 -164 -14 -31
-25 -59 -25 -64 0 -4 -29 -62 -65 -128 -36 -66 -65 -127 -65 -135 0 -9 -7 -25
-15 -36 -7 -12 -28 -48 -46 -80 -18 -32 -58 -104 -89 -159 -32 -56 -68 -123
-80 -149 -12 -27 -43 -72 -70 -100 -26 -28 -70 -83 -99 -122 -28 -40 -51 -75
-51 -80 0 -4 -9 -17 -19 -28 -11 -12 -34 -49 -51 -83 -17 -35 -35 -63 -40 -63
-6 0 -10 40 -10 94 0 83 3 96 23 118 12 13 48 76 80 139 32 62 69 132 82 154
14 22 36 62 51 90 14 27 38 67 53 90 14 22 28 42 32 45 3 3 8 12 12 20 4 8 13
24 19 35 7 11 28 43 46 72 17 30 32 59 32 65 0 6 8 21 18 32 10 12 43 64 74
116 30 52 72 127 93 165 21 39 60 114 87 168 27 53 52 97 55 97z m-5 -396 c7
-5 9 -38 5 -103 -4 -53 -14 -116 -22 -141 -9 -25 -32 -76 -52 -114 -19 -38
-39 -74 -45 -80 -5 -6 -44 -69 -86 -141 -43 -71 -86 -143 -97 -160 -10 -16
-35 -50 -54 -75 -20 -24 -41 -53 -47 -65 -6 -11 -21 -38 -33 -59 -12 -22 -31
-63 -42 -91 -11 -29 -27 -59 -37 -67 -10 -9 -45 -18 -84 -21 -52 -4 -68 -2
-68 9 0 7 5 16 10 19 6 3 10 12 10 20 0 7 26 50 58 95 31 45 62 92 69 103 7
12 21 33 32 47 12 14 38 45 60 70 21 25 67 99 101 165 35 66 85 163 112 215
27 52 77 149 111 215 35 66 68 130 75 143 7 12 18 20 24 16z m-1 -391 c4 -5 9
-35 11 -68 2 -50 -2 -66 -20 -92 -12 -17 -22 -34 -22 -38 0 -4 -12 -37 -26
-73 -14 -37 -37 -89 -50 -116 -13 -28 -24 -55 -24 -60 -1 -6 -23 -47 -50 -91
-27 -44 -61 -101 -75 -127 -13 -26 -29 -49 -35 -53 -6 -4 -40 -8 -75 -9 -36
-2 -67 -1 -69 2 -3 2 -1 12 4 21 4 9 28 60 53 113 25 53 64 122 86 152 23 30
41 58 41 61 0 3 33 56 74 118 40 62 79 123 86 137 7 14 28 49 48 78 20 29 39
49 43 45z m19 -283 c4 -8 12 -57 17 -109 8 -81 7 -94 -7 -98 -8 -3 -20 -6 -25
-8 -6 -1 -35 -51 -64 -110 -35 -71 -61 -110 -76 -117 -13 -6 -35 -8 -49 -4
-22 5 -24 10 -17 29 5 13 22 43 39 68 16 24 51 89 76 144 26 55 51 109 56 120
5 11 16 38 25 60 12 30 18 36 25 25z m21 -302 c5 -7 9 -43 9 -80 0 -68 0 -68
-27 -68 -16 0 -34 4 -42 9 -11 7 -11 15 -1 46 7 21 22 54 33 72 15 26 22 31
28 21z"/>
</g>
<g>
<path d="M8297 15429 c-7 0 -17 -3 -24 -6 -7 -2 -27 -30 -45 -61 -17 -31 -36
-60 -41 -63 -5 -4 -17 -35 -27 -70 l-17 -64 -144 -1 c-79 -1 -163 -7 -186 -13
-23 -6 -45 -16 -48 -21 -3 -6 -19 -10 -34 -10 -19 0 -46 -16 -87 -52 -47 -40
-62 -61 -72 -97 -6 -25 -10 -59 -8 -76 2 -16 9 -42 15 -57 5 -15 41 -59 78
-97 49 -49 77 -70 98 -73 23 -2 35 -13 54 -46 13 -24 30 -46 38 -49 9 -4 22 3
32 16 17 22 18 22 57 5 21 -10 51 -27 67 -37 15 -10 76 -43 135 -73 59 -30
127 -68 152 -84 25 -16 56 -35 70 -41 14 -6 39 -17 55 -25 17 -7 56 -29 89
-47 32 -19 85 -54 118 -78 33 -24 80 -66 105 -93 25 -28 60 -81 79 -119 19
-38 34 -73 34 -78 0 -5 14 -40 31 -77 17 -37 51 -107 75 -157 23 -49 46 -101
49 -115 4 -14 16 -44 26 -66 10 -23 23 -63 29 -89 6 -26 9 -50 6 -52 -2 -2
-18 15 -34 39 -17 24 -47 59 -67 78 -20 19 -51 55 -70 80 -18 25 -53 81 -77
125 -39 71 -43 84 -34 113 8 27 6 38 -12 62 -12 16 -22 33 -22 38 0 5 -12 27
-27 50 -16 22 -46 62 -68 89 -22 26 -74 81 -115 122 -41 40 -116 104 -167 142
-50 37 -110 77 -132 88 -22 12 -55 21 -73 21 -18 0 -50 5 -72 11 -27 8 -56 8
-101 0 -35 -6 -88 -22 -118 -36 -38 -16 -90 -27 -164 -35 -59 -6 -153 -20
-207 -31 -54 -10 -112 -19 -127 -19 -16 0 -50 -5 -76 -12 -27 -6 -71 -23 -100
-37 -41 -20 -64 -42 -105 -100 -29 -40 -58 -90 -63 -110 -7 -25 -18 -38 -35
-43 -14 -4 -38 -10 -55 -13 -17 -4 -49 -26 -74 -52 -23 -25 -49 -60 -57 -79
-13 -31 -16 -32 -51 -28 -21 3 -51 10 -67 15 -16 5 -44 9 -63 9 -19 0 -42 4
-51 9 -9 5 -64 14 -122 20 -58 6 -132 20 -164 31 -33 11 -75 20 -95 20 -19 0
-79 7 -133 16 -89 15 -100 15 -130 1 -18 -9 -43 -26 -54 -39 -12 -13 -25 -44
-29 -72 -4 -31 -2 -59 6 -78 8 -19 29 -38 60 -54 27 -13 55 -24 64 -24 10 0
15 -9 15 -27 0 -15 -5 -53 -12 -86 -10 -49 -10 -63 2 -84 8 -15 31 -32 50 -39
19 -7 51 -13 71 -13 34 -1 37 2 58 50 11 29 21 60 21 69 0 10 7 35 16 56 14
33 17 36 26 20 7 -12 7 -26 0 -42 -6 -13 -14 -45 -17 -71 -5 -33 -2 -53 7 -65
8 -10 33 -19 63 -23 28 -3 57 -8 66 -10 8 -3 22 1 31 7 9 7 26 49 38 93 12 44
23 85 25 92 3 8 18 6 55 -8 32 -12 90 -22 158 -26 59 -3 110 -10 113 -16 4 -5
4 -27 2 -48 -4 -29 1 -48 19 -81 25 -43 25 -43 7 -73 -11 -16 -19 -37 -19 -46
0 -8 -11 -26 -25 -39 -14 -13 -29 -39 -34 -58 -6 -18 -6 -43 -2 -55 5 -12 11
-44 15 -72 4 -27 17 -75 29 -105 11 -30 36 -80 53 -110 24 -40 34 -73 39 -120
4 -36 13 -78 21 -94 8 -16 14 -46 14 -66 0 -20 5 -52 11 -71 6 -19 20 -54 32
-79 11 -25 26 -52 33 -60 7 -8 14 -37 15 -64 2 -28 10 -58 21 -71 10 -13 18
-32 18 -43 0 -12 5 -24 10 -27 6 -3 10 -16 10 -27 0 -12 7 -29 15 -38 9 -10
31 -61 50 -115 18 -53 40 -104 48 -113 8 -10 18 -34 21 -56 4 -21 11 -46 16
-55 5 -9 18 -43 29 -76 11 -33 27 -77 35 -97 9 -21 16 -50 16 -66 0 -16 7 -35
15 -42 7 -6 17 -33 21 -58 4 -26 13 -64 20 -85 8 -21 13 -41 12 -45 -1 -4 8
-36 19 -72 12 -36 24 -93 28 -125 4 -33 13 -69 20 -80 7 -11 32 -56 56 -100
23 -44 45 -82 48 -85 4 -3 15 -18 25 -35 10 -16 29 -41 41 -55 12 -14 25 -37
28 -51 4 -14 16 -38 28 -53 17 -22 26 -26 53 -21 31 6 38 1 152 -121 65 -69
171 -179 235 -243 63 -64 179 -177 257 -251 78 -74 148 -137 156 -140 7 -3 30
-27 51 -55 21 -27 55 -68 76 -90 21 -22 127 -131 235 -241 109 -111 201 -211
206 -223 4 -12 14 -24 23 -27 8 -4 15 -14 15 -24 0 -9 19 -41 41 -69 23 -29
49 -67 58 -84 10 -18 22 -41 28 -52 6 -11 30 -59 52 -107 23 -48 41 -96 41
-107 0 -10 7 -35 15 -54 8 -20 20 -39 26 -43 6 -3 17 -21 25 -38 8 -17 20 -40
26 -51 7 -11 22 -36 34 -55 12 -20 25 -50 29 -68 3 -17 11 -34 16 -37 5 -4 9
-14 9 -24 0 -10 7 -24 15 -31 8 -7 15 -21 15 -31 0 -10 15 -49 34 -86 19 -38
52 -102 74 -143 21 -41 43 -86 47 -100 3 -14 21 -54 40 -90 18 -36 35 -82 38
-102 l6 -38 -57 -25 c-31 -14 -68 -31 -82 -39 -14 -8 -49 -26 -77 -40 -29 -14
-53 -30 -53 -36 0 -5 -19 -18 -42 -28 -24 -10 -57 -23 -73 -29 -17 -5 -76 -40
-133 -78 -56 -37 -117 -86 -134 -109 -18 -22 -51 -61 -75 -84 -23 -24 -48 -61
-54 -82 -7 -21 -9 -45 -6 -54 3 -8 25 -27 49 -43 24 -15 67 -35 97 -45 30 -10
78 -20 105 -22 28 -2 62 -6 76 -10 14 -3 57 -8 95 -11 39 -3 207 -6 375 -5
168 0 339 3 380 6 41 3 134 9 205 15 72 5 151 11 177 13 25 2 64 7 85 10 21 4
63 9 93 12 30 2 71 6 90 9 19 3 51 8 70 10 19 3 67 10 107 16 39 6 91 10 115
11 24 0 84 10 133 22 50 13 135 31 190 40 55 10 123 22 150 27 28 6 77 21 110
34 33 12 80 30 105 38 25 8 86 29 135 47 50 18 94 36 100 41 5 5 15 9 22 9 6
0 54 20 106 45 52 25 98 45 103 45 4 0 15 6 23 14 9 8 55 34 102 59 47 24 115
65 150 92 35 26 79 67 97 91 18 24 38 44 45 44 7 0 17 26 24 62 8 43 9 67 2
81 -6 10 -27 36 -46 58 -19 21 -40 39 -45 39 -6 0 -38 13 -72 29 -33 16 -86
37 -116 46 -30 9 -90 18 -134 21 -43 2 -87 9 -97 14 -10 6 -33 10 -52 10 -28
0 -36 5 -40 23 -4 12 -9 72 -12 132 -3 61 -10 151 -16 200 -5 50 -14 113 -19
140 -6 28 -12 64 -14 80 -2 17 -8 41 -14 55 -5 14 -16 45 -22 70 -7 25 -19 64
-26 88 -8 23 -14 49 -14 56 0 8 -16 37 -36 65 -19 29 -51 85 -70 124 -19 40
-39 79 -43 87 -4 8 -13 24 -19 35 -6 11 -21 38 -33 60 -13 22 -25 49 -27 60
-1 11 -20 49 -42 85 -22 36 -46 86 -54 110 -7 25 -19 65 -26 90 -7 25 -25 74
-40 110 -15 36 -32 79 -38 95 -6 17 -17 55 -26 85 -8 30 -17 82 -20 115 -4 33
-9 85 -12 115 -3 30 -14 105 -24 165 -10 61 -22 173 -27 250 -4 77 -6 185 -5
240 3 62 -2 138 -12 200 -10 55 -24 132 -32 170 -10 43 -15 113 -14 180 1 61
3 137 5 170 2 33 6 87 10 120 4 34 2 103 -5 165 -7 58 -14 123 -15 145 -2 22
-7 70 -13 107 -5 37 -15 89 -21 115 -6 26 -18 95 -27 153 -8 58 -19 134 -23
170 -4 36 -15 85 -25 110 -9 25 -28 77 -42 115 -14 39 -37 108 -51 154 -13 47
-31 97 -38 112 -8 14 -11 29 -8 33 4 3 1 6 -5 6 -6 0 -16 19 -23 43 -6 23 -15
53 -20 67 -4 14 -10 39 -13 55 -2 17 -20 82 -39 145 -20 63 -43 145 -51 183
-9 37 -27 89 -41 117 -14 27 -25 56 -25 64 0 8 -14 45 -31 83 -17 37 -37 86
-44 109 -6 23 -30 66 -53 96 -22 30 -62 71 -89 91 -26 19 -64 52 -84 74 -20
21 -56 54 -80 73 -24 19 -88 76 -142 125 -54 50 -133 113 -175 142 -43 29 -96
67 -119 85 -22 18 -79 67 -126 108 -47 41 -116 91 -153 110 -38 19 -95 52
-127 73 -32 20 -61 37 -64 37 -4 0 -29 17 -57 39 -28 21 -66 41 -85 45 -18 3
-52 1 -75 -5 -22 -6 -55 -21 -72 -34 -17 -13 -43 -27 -57 -30 -19 -5 -54 8
-144 53 -65 32 -147 74 -183 92 -36 18 -92 52 -126 75 -33 23 -99 56 -145 74
-46 18 -104 46 -129 61 -32 20 -68 32 -123 39 -43 6 -84 11 -90 10z m133 -152
c40 1 68 -4 76 -12 7 -7 46 -21 86 -30 40 -10 88 -27 108 -38 19 -11 46 -30
60 -42 14 -12 46 -34 72 -48 26 -15 53 -27 61 -27 8 0 25 -8 38 -18 13 -10 40
-24 59 -32 19 -7 87 -39 150 -70 63 -31 124 -61 135 -67 11 -6 49 -25 85 -43
36 -18 83 -46 105 -64 22 -17 70 -59 108 -93 37 -35 88 -72 113 -83 25 -11 59
-31 75 -44 16 -14 60 -61 97 -105 38 -45 78 -101 90 -125 12 -24 47 -81 77
-127 30 -46 63 -96 74 -110 11 -15 30 -53 42 -85 12 -33 29 -70 39 -84 9 -14
30 -54 47 -90 17 -36 54 -113 82 -172 28 -59 51 -112 51 -116 0 -5 11 -19 25
-32 14 -13 41 -54 59 -90 18 -36 49 -94 68 -130 20 -36 39 -76 43 -90 4 -14
19 -41 34 -60 14 -19 38 -53 52 -76 15 -23 30 -51 34 -63 4 -12 23 -45 43 -72
21 -27 45 -49 55 -49 10 0 20 7 23 15 4 8 4 25 0 38 -3 12 -28 60 -56 105 -27
46 -50 86 -50 89 0 3 -22 42 -49 87 -27 44 -72 126 -99 181 -28 55 -65 120
-81 145 -17 25 -31 54 -31 65 0 11 -4 36 -10 55 -6 21 -19 39 -32 45 -14 6
-22 18 -21 30 1 11 4 33 7 48 2 16 0 42 -6 59 -9 25 -14 29 -35 23 l-25 -6 7
82 7 82 -27 -7 -27 -7 4 53 3 53 -32 3 c-28 3 -33 7 -33 30 0 15 -4 33 -9 41
-6 9 -18 11 -38 7 -26 -6 -32 -3 -42 21 -6 15 -27 51 -46 78 -20 28 -56 82
-82 120 -26 39 -69 97 -96 130 -27 33 -60 68 -75 77 -15 9 -52 31 -82 48 -30
16 -81 54 -113 84 -32 30 -88 75 -126 100 -38 26 -92 58 -120 72 -28 14 -51
32 -51 39 0 7 14 18 31 24 18 6 44 11 58 11 15 0 47 -17 76 -40 28 -22 64 -47
82 -55 17 -8 34 -19 37 -24 3 -5 45 -28 92 -52 66 -32 115 -68 203 -147 64
-57 130 -110 146 -117 17 -7 50 -32 75 -54 25 -23 63 -53 85 -68 22 -15 63
-50 91 -78 29 -27 76 -71 105 -96 30 -25 86 -74 124 -108 39 -33 79 -69 90
-79 11 -10 28 -21 37 -25 10 -3 25 -23 34 -44 9 -21 25 -63 36 -93 11 -30 27
-93 35 -140 9 -47 16 -132 17 -190 1 -103 2 -106 44 -190 24 -47 54 -113 67
-147 13 -34 31 -72 39 -85 9 -14 21 -51 27 -83 6 -32 24 -93 41 -134 16 -42
48 -114 70 -161 22 -47 51 -107 64 -135 13 -27 27 -76 32 -108 6 -34 5 -96 0
-150 -5 -51 -9 -231 -9 -400 0 -170 2 -321 5 -335 3 -15 10 -97 16 -182 6 -85
17 -207 25 -270 7 -63 16 -133 19 -155 3 -22 12 -71 20 -110 7 -38 17 -113 21
-165 3 -52 13 -118 20 -145 9 -31 16 -128 20 -250 4 -128 13 -245 26 -325 12
-69 32 -168 46 -220 14 -52 30 -104 36 -115 6 -11 14 -36 18 -55 4 -19 19 -66
34 -105 15 -38 29 -82 32 -97 3 -15 32 -58 65 -95 34 -38 68 -80 77 -94 9 -14
26 -39 39 -55 12 -16 43 -60 67 -98 25 -38 45 -72 45 -76 0 -4 8 -32 18 -62
10 -30 33 -73 51 -94 18 -21 39 -57 47 -79 8 -22 26 -96 40 -165 14 -69 27
-172 29 -230 2 -58 9 -158 15 -223 5 -65 14 -127 19 -136 6 -10 13 -44 17 -77
4 -32 7 -109 8 -170 1 -75 5 -116 14 -127 7 -8 17 -37 22 -64 5 -26 12 -60 16
-75 5 -22 2 -29 -12 -34 -11 -3 -44 -16 -74 -29 -30 -13 -98 -40 -150 -59 -52
-20 -101 -36 -108 -36 -7 0 -20 -4 -30 -9 -9 -5 -42 -19 -72 -30 -30 -11 -107
-29 -170 -40 -63 -11 -142 -24 -175 -30 -33 -6 -89 -18 -125 -27 -36 -8 -99
-19 -140 -24 -41 -4 -122 -13 -180 -19 -58 -6 -114 -13 -126 -16 -12 -3 -117
-14 -235 -25 -117 -11 -248 -20 -291 -20 l-77 0 -11 43 c-6 23 -27 78 -46 122
-19 44 -44 98 -56 120 -11 22 -35 69 -53 105 -18 36 -40 88 -50 115 -9 28 -27
70 -40 95 -12 25 -28 63 -35 85 -7 22 -27 69 -45 105 -17 36 -45 99 -60 140
-16 41 -38 91 -50 110 -11 19 -30 55 -42 80 -11 25 -36 79 -53 120 -18 41 -50
109 -70 150 -21 41 -54 105 -74 143 -20 37 -36 72 -36 78 0 6 -13 37 -29 69
-16 32 -36 81 -45 109 -8 29 -31 78 -51 110 -19 32 -42 64 -51 72 -8 7 -29 40
-46 73 -17 34 -41 73 -55 88 -18 19 -24 34 -21 52 3 14 0 45 -6 68 -6 24 -17
52 -23 63 -10 16 -15 18 -30 9 -10 -6 -20 -27 -23 -50 l-5 -38 -35 44 c-26 33
-35 55 -36 85 -1 23 -11 63 -22 89 -18 39 -26 47 -44 44 -17 -2 -23 -9 -22
-28 1 -14 4 -33 9 -42 4 -11 3 -18 -3 -18 -6 0 -29 22 -51 49 -34 40 -44 62
-57 127 -9 44 -22 85 -29 92 -10 11 -15 11 -29 -3 -9 -9 -16 -27 -16 -41 0
-13 -3 -24 -6 -24 -3 0 -12 7 -20 15 -8 8 -24 34 -34 58 -11 24 -24 67 -30 94
-6 28 -17 59 -25 69 -7 11 -17 16 -21 12 -4 -5 -8 -24 -8 -45 -1 -20 -6 -38
-12 -40 -5 -2 -22 9 -36 24 -14 16 -28 39 -31 53 -3 14 -13 52 -22 85 -9 33
-23 84 -31 113 -9 28 -17 52 -19 52 -2 0 -10 -3 -19 -6 -10 -4 -16 -18 -16
-38 0 -18 7 -56 16 -85 8 -29 13 -55 10 -59 -3 -3 -16 6 -29 20 -15 16 -36 68
-57 139 -18 63 -35 118 -37 122 -3 4 -11 2 -20 -4 -11 -10 -13 -25 -8 -71 4
-33 3 -58 -2 -58 -5 0 -17 6 -26 13 -10 7 -25 41 -33 77 -9 36 -23 112 -33
170 -13 83 -20 105 -34 108 -10 2 -21 -6 -28 -22 -9 -19 -9 -40 1 -88 7 -35
19 -81 27 -102 7 -22 11 -42 8 -45 -3 -3 -20 9 -36 27 -20 21 -35 53 -44 90
-7 31 -21 93 -30 137 -10 44 -20 91 -24 104 -4 14 -12 26 -18 28 -6 2 -14 -14
-18 -37 -4 -22 -4 -68 0 -100 4 -35 3 -60 -2 -60 -5 0 -20 20 -32 45 -15 31
-29 93 -43 188 -11 78 -23 145 -26 148 -4 4 -17 3 -29 -2 -15 -5 -23 -17 -23
-31 0 -13 6 -63 14 -113 8 -49 17 -99 22 -110 6 -17 4 -17 -20 5 -16 14 -36
41 -46 60 -10 19 -20 53 -23 75 -4 22 -13 69 -22 105 -9 36 -16 82 -15 102 0
20 -4 39 -10 43 -6 4 -20 -1 -32 -12 -17 -15 -19 -26 -15 -68 3 -27 12 -78 20
-112 8 -35 11 -63 8 -63 -4 0 -15 6 -24 13 -11 7 -29 58 -47 131 -17 65 -30
132 -30 150 0 17 -5 38 -10 46 -7 12 -13 13 -27 4 -14 -9 -18 -25 -18 -77 0
-36 -3 -63 -8 -60 -4 2 -14 21 -23 41 -12 29 -14 56 -8 125 l7 87 -25 0 c-21
0 -27 6 -32 31 -3 17 -6 54 -6 82 0 38 -5 56 -21 74 -14 14 -24 40 -27 71 -2
31 0 52 7 56 6 4 11 18 11 31 0 13 -5 27 -10 30 -6 4 -18 1 -26 -6 -13 -10
-17 -10 -25 2 -5 8 -18 39 -30 69 -16 43 -18 58 -9 75 6 12 10 39 8 61 -3 36
-5 39 -30 37 -16 -1 -28 3 -28 9 0 5 -18 53 -39 106 -22 54 -51 120 -64 147
-14 28 -33 73 -43 100 -12 34 -17 78 -17 135 0 66 6 101 26 159 15 41 27 85
27 97 0 13 -4 26 -10 29 -5 3 -19 1 -30 -5 -11 -6 -20 -20 -20 -30 0 -11 -4
-20 -9 -20 -5 0 -14 21 -20 48 -6 26 -18 84 -27 130 -9 45 -13 93 -10 106 3
14 0 28 -8 35 -11 9 -11 20 0 63 8 29 14 87 14 130 0 42 -4 88 -9 101 -5 13
-18 27 -29 29 -11 3 -25 2 -31 -1 -7 -5 -9 -40 -6 -109 3 -61 1 -103 -5 -107
-6 -4 -10 14 -10 45 0 45 -3 52 -25 60 -14 5 -29 20 -34 32 -5 13 -11 33 -15
46 -6 18 -4 22 13 22 12 0 37 17 56 39 33 36 38 38 79 34 35 -4 53 0 88 21 36
21 58 26 112 26 38 0 79 -6 94 -14 15 -8 56 -45 93 -83 36 -37 78 -85 93 -105
15 -20 26 -45 24 -55 -3 -10 4 -36 15 -58 11 -22 29 -53 41 -70 11 -16 28 -46
37 -65 9 -19 24 -60 33 -91 9 -31 16 -62 16 -69 0 -7 14 -43 31 -79 17 -36 47
-86 67 -110 25 -31 40 -63 49 -105 8 -34 18 -83 24 -111 5 -27 13 -68 18 -90
4 -22 20 -67 36 -100 15 -33 38 -89 51 -124 14 -36 32 -73 42 -84 9 -11 40
-35 69 -54 29 -19 90 -46 135 -60 46 -14 99 -32 118 -41 19 -8 56 -17 81 -20
29 -2 57 2 75 11 16 9 45 32 64 52 l35 36 1 122 c0 67 -5 203 -11 302 -7 99
-16 199 -19 222 -6 33 -4 43 9 50 15 9 15 18 6 87 -6 43 -11 113 -11 156 0 73
-1 79 -22 82 -20 3 -23 13 -36 98 -7 52 -19 101 -26 108 -11 12 -17 12 -36 0
-20 -12 -21 -18 -15 -70 3 -32 11 -71 16 -87 6 -17 9 -37 7 -45 -2 -11 -10 -6
-26 18 -19 28 -25 57 -37 197 -8 90 -18 175 -22 189 -3 14 -7 31 -9 39 -1 8
-8 17 -15 22 -7 4 -20 2 -30 -4 -11 -7 -19 -26 -21 -47 -2 -27 -11 -2 -39 105
-23 94 -40 141 -50 143 -8 1 -23 -4 -34 -12 -19 -13 -19 -15 -2 -68 9 -30 17
-63 17 -73 0 -13 -3 -16 -10 -9 -6 6 -19 42 -30 80 -13 44 -20 99 -20 152 0
67 -3 84 -16 89 -9 3 -24 2 -33 -4 -10 -6 -18 -29 -21 -64 l-5 -53 -29 74
c-15 41 -33 81 -38 88 -6 6 -21 12 -34 12 -15 0 -29 10 -41 30 -10 18 -26 30
-38 30 -12 0 -26 -5 -33 -12 -6 -6 -13 -10 -15 -7 -1 2 -16 23 -32 47 -20 30
-34 42 -48 40 -11 -2 -24 -10 -29 -18 -7 -11 0 -30 26 -69 19 -30 33 -57 31
-61 -3 -4 -15 -5 -28 -3 -17 3 -32 23 -59 81 -20 42 -43 86 -52 97 -14 19 -15
19 -35 1 -12 -11 -24 -16 -29 -12 -4 4 -12 22 -18 39 -6 18 -18 33 -28 35 -9
2 -23 -2 -31 -8 -8 -7 -15 -29 -15 -49 l0 -36 -25 38 c-14 20 -32 37 -41 37
-8 0 -19 -11 -25 -24 -9 -19 -8 -31 4 -55 l15 -30 -23 15 c-13 8 -30 30 -39
49 -9 18 -16 36 -16 40 0 4 -22 27 -50 52 -43 38 -50 50 -50 82 0 30 8 44 43
79 27 27 60 47 92 57 28 8 68 15 90 15 22 0 58 5 80 10 22 5 59 11 82 14 24 2
91 12 150 21 60 9 128 23 153 32 25 8 61 20 80 25 19 6 68 13 107 15 48 3 91
-1 126 -11 30 -9 65 -26 78 -39 13 -12 62 -65 109 -116 47 -52 98 -106 115
-120 16 -14 52 -49 80 -78 27 -28 58 -64 68 -80 10 -15 27 -47 37 -70 10 -23
44 -86 75 -140 30 -54 58 -103 63 -109 4 -6 16 -24 27 -40 10 -16 47 -58 81
-94 34 -36 73 -78 87 -95 13 -16 31 -43 40 -60 8 -16 28 -45 45 -62 16 -18 31
-33 34 -33 4 0 39 -19 80 -41 40 -23 90 -57 111 -77 20 -20 37 -32 37 -27 0 6
25 -16 55 -47 31 -34 63 -58 75 -58 15 0 20 6 20 29 0 16 -10 38 -23 52 -13
13 -53 51 -90 84 l-67 59 0 86 c0 54 -5 91 -12 98 -7 7 -20 12 -29 12 -13 0
-18 13 -23 58 -4 31 -9 81 -12 110 -6 46 -9 52 -29 52 -21 0 -23 4 -23 66 0
36 -6 71 -12 79 -8 9 -19 11 -41 5 l-29 -9 0 82 c0 45 -3 99 -7 120 -3 21 -13
41 -21 44 -8 4 -23 1 -33 -5 -10 -7 -20 -12 -23 -12 -2 0 -7 19 -10 43 -4 23
-7 51 -7 62 0 10 -5 25 -11 32 -6 8 -19 11 -29 8 -12 -4 -21 -1 -25 9 -3 8 -7
23 -9 33 -2 10 -4 44 -4 77 l-1 58 -27 -6 c-16 -4 -34 -15 -41 -24 -9 -11 -12
-34 -9 -67 l4 -49 -19 24 c-12 15 -16 29 -11 39 4 9 7 34 7 56 -1 22 -11 61
-24 85 -12 25 -28 48 -34 52 -6 4 -19 0 -29 -10 -16 -14 -19 -14 -27 -2 -6 8
-10 34 -10 58 0 35 -3 42 -20 42 -11 0 -30 -10 -41 -21 -18 -18 -20 -29 -15
-63 3 -22 9 -52 12 -65 6 -21 5 -22 -14 -12 -12 6 -24 24 -28 39 -3 15 -14 48
-25 74 -10 26 -19 57 -19 70 0 13 -7 34 -16 46 -13 18 -19 20 -36 11 -19 -10
-20 -17 -14 -85 4 -41 3 -74 -1 -74 -4 1 -19 7 -32 14 -18 10 -32 37 -55 107
-24 74 -36 97 -56 106 -22 11 -27 10 -41 -7 -9 -10 -19 -16 -23 -13 -3 4 -6
14 -6 24 0 10 -10 29 -22 43 -18 20 -28 23 -45 16 -14 -6 -23 -18 -23 -30 0
-12 11 -36 25 -54 14 -18 25 -38 25 -44 0 -7 -6 -12 -14 -12 -7 0 -19 7 -26
15 -7 8 -24 47 -39 86 -14 40 -31 74 -37 76 -7 2 -19 -4 -29 -13 -13 -13 -16
-28 -12 -56 3 -21 2 -38 -2 -38 -4 0 -15 14 -25 31 -10 16 -19 49 -21 72 -1
23 -3 45 -4 50 0 4 -9 7 -20 7 -10 0 -24 -7 -31 -15 -7 -8 -16 -15 -21 -15 -5
0 -9 8 -9 19 0 10 -7 24 -16 32 -11 9 -20 10 -32 2 -10 -5 -20 -23 -23 -39
l-6 -29 -13 30 c-7 17 -13 44 -12 62 0 18 -5 36 -12 41 -6 6 -21 6 -33 1 -18
-6 -23 -16 -23 -44 0 -19 -4 -35 -8 -35 -5 0 -13 26 -18 58 -7 47 -12 57 -29
57 -12 0 -25 -11 -34 -29 -10 -22 -15 -25 -22 -15 -5 8 -9 32 -9 55 0 32 7 49
35 81 29 34 48 45 122 68 86 27 91 27 258 21 107 -4 200 -13 252 -25 54 -12
129 -42 220 -87 76 -37 160 -76 188 -86 27 -10 97 -38 155 -63 58 -24 137 -53
175 -64 39 -11 91 -34 117 -51 26 -17 56 -41 67 -53 11 -12 47 -53 80 -92 34
-38 61 -73 61 -77 0 -5 19 -32 43 -61 24 -30 59 -80 77 -113 18 -32 43 -70 56
-84 13 -14 46 -63 73 -109 28 -46 51 -88 51 -93 0 -4 9 -25 20 -45 11 -21 20
-44 20 -51 0 -7 7 -15 15 -18 8 -3 17 -16 21 -27 4 -12 18 -47 32 -77 13 -30
35 -70 49 -88 13 -18 35 -57 49 -87 14 -31 44 -71 68 -92 24 -21 46 -48 50
-60 4 -12 28 -42 54 -67 26 -25 53 -46 59 -46 7 0 49 -32 94 -72 64 -56 87
-84 109 -132 15 -34 36 -81 48 -106 13 -29 22 -76 26 -133 3 -49 10 -95 17
-103 6 -8 22 -14 35 -14 12 0 26 5 30 12 5 7 7 31 6 53 -2 22 -7 74 -13 115
-6 41 -26 109 -44 151 -18 42 -46 96 -63 120 -16 24 -43 57 -58 73 -16 16 -52
44 -80 62 -28 18 -76 56 -107 84 -48 43 -58 59 -68 105 -7 30 -18 56 -25 59
-7 3 -16 1 -20 -5 -4 -6 -11 -6 -20 2 -7 6 -16 27 -20 48 -3 20 -13 46 -20 59
-8 12 -21 22 -29 22 -8 0 -19 9 -25 21 -7 11 -18 42 -26 69 -8 26 -20 53 -28
59 -8 7 -26 34 -40 61 -14 27 -26 63 -26 79 0 22 -12 42 -44 74 -25 24 -48 57
-51 73 -4 16 -10 38 -15 49 -4 11 -12 32 -19 48 -6 17 -18 27 -31 27 -11 0
-26 10 -34 23 -8 12 -20 49 -27 82 -7 33 -18 63 -23 67 -6 4 -18 5 -28 2 -11
-3 -27 9 -50 36 -18 23 -55 67 -81 98 -27 32 -56 73 -66 92 -12 27 -22 35 -44
36 -15 1 -36 9 -47 19 -11 10 -20 24 -20 31 0 7 -5 16 -12 20 -6 4 -35 6 -64
5 -29 -1 -62 4 -74 11 -12 7 -30 28 -41 46 -12 17 -29 32 -39 32 -9 0 -23 -7
-30 -15 -10 -12 -15 -8 -34 28 -13 23 -27 42 -32 41 -5 0 -13 -9 -19 -20 -7
-13 -18 -18 -37 -16 -16 2 -29 9 -29 15 -1 7 -1 18 0 24 1 7 -3 31 -9 54 -9
33 -15 40 -33 37 -18 -2 -23 -11 -25 -40 -2 -25 -8 -38 -17 -38 -9 0 -19 18
-26 45 -6 24 -17 50 -25 56 -8 6 -21 9 -29 5 -8 -3 -15 -13 -15 -21 0 -9 -5
-13 -11 -10 -5 4 -14 18 -19 31 -6 14 -17 27 -26 31 -10 4 -24 -4 -38 -21
l-21 -28 -19 21 c-11 12 -27 21 -36 21 -9 0 -21 -5 -27 -11 -7 -7 -21 -4 -47
10 -20 12 -42 21 -49 21 -7 0 -18 4 -26 9 -12 8 -10 16 13 51 15 22 39 48 55
58 18 11 52 18 91 19z m-139 -732 c5 -4 9 -15 9 -25 0 -10 5 -22 10 -25 6 -3
10 -11 10 -18 0 -7 -5 -6 -14 3 -8 8 -17 27 -20 43 -3 16 -1 25 5 22z m-1357
-665 c4 0 2 -10 -6 -22 -8 -13 -20 -32 -25 -43 -6 -11 -19 -47 -28 -80 -10
-33 -24 -66 -31 -74 -12 -13 -25 -12 -101 2 -48 10 -114 17 -146 17 -31 0 -90
9 -129 20 -40 11 -78 20 -84 20 -7 0 -19 -11 -28 -25 -10 -15 -19 -59 -24
-112 -6 -75 -10 -88 -26 -91 -10 -2 -22 2 -26 9 -5 6 -2 33 6 58 8 25 14 69
14 97 0 31 -5 56 -14 63 -7 6 -33 14 -57 17 -36 5 -49 2 -72 -16 -16 -12 -26
-28 -23 -35 2 -7 -4 -46 -15 -86 -11 -40 -25 -79 -32 -86 -11 -11 -16 -11 -31
0 -17 12 -17 17 4 96 11 45 18 91 15 101 -4 11 -25 25 -53 34 -26 8 -58 16
-72 18 -20 2 -26 9 -28 34 -2 17 3 35 10 40 8 7 67 6 168 -2 86 -6 173 -18
195 -26 22 -9 74 -25 117 -37 42 -11 88 -21 103 -21 14 0 58 -6 98 -14 40 -8
104 -17 143 -19 l72 -6 17 42 c9 23 24 56 33 72 9 17 23 35 31 42 9 7 20 13
25 13z m100 -53 c12 -13 34 -32 50 -41 27 -17 28 -20 22 -74 -4 -32 -12 -91
-17 -133 -6 -42 -14 -81 -18 -88 -5 -7 -28 -17 -51 -22 -41 -9 -45 -8 -66 18
-20 25 -21 35 -17 133 3 75 10 118 24 150 11 24 27 52 36 62 16 18 17 18 37
-5z m485 13 c5 0 12 -7 15 -16 4 -9 4 -19 2 -21 -2 -3 -9 5 -16 16 -6 12 -7
21 -1 21z m1496 -30 c3 0 5 -17 5 -37 0 -27 -3 -34 -11 -26 -7 7 -9 23 -5 37
3 14 9 26 11 26z m-1733 -70 c5 0 19 -5 31 -11 12 -6 32 -21 45 -32 13 -12 38
-22 58 -23 19 0 44 -5 57 -11 12 -6 42 -16 67 -22 25 -6 79 -21 120 -31 41
-11 87 -20 101 -20 15 0 44 -16 70 -37 24 -20 72 -65 106 -100 43 -44 78 -94
119 -170 31 -59 79 -147 105 -195 26 -48 55 -110 64 -137 9 -28 27 -67 41 -86
14 -20 37 -62 53 -93 16 -32 34 -82 41 -112 7 -30 17 -63 22 -74 5 -10 14 -46
19 -80 6 -33 14 -91 19 -127 5 -36 11 -163 14 -282 l5 -217 -25 -30 c-21 -24
-30 -28 -57 -24 -18 4 -79 21 -135 40 -57 19 -118 42 -135 50 -18 9 -47 30
-65 48 -19 17 -42 49 -52 71 -10 22 -23 58 -29 80 -6 22 -11 56 -11 76 0 20
-7 50 -15 67 -9 17 -20 59 -26 93 -5 34 -21 107 -35 163 -14 55 -39 142 -56
191 -17 50 -53 134 -80 189 -27 54 -77 135 -111 180 -34 44 -92 118 -129 163
-37 45 -98 112 -135 149 -38 37 -78 73 -90 81 -13 9 -23 23 -23 32 0 9 4 21
10 27 5 5 15 56 22 112 6 56 16 102 20 102z m-105 -47 c2 -7 2 -19 0 -25 -3
-7 -5 -2 -5 12 0 14 2 19 5 13z m1908 -43 c11 0 15 -11 15 -42 0 -24 3 -53 6
-66 4 -12 17 -25 29 -28 17 -4 24 -14 27 -39 2 -18 2 -38 0 -45 -2 -6 -13 3
-25 22 -11 18 -31 62 -43 98 -13 36 -24 73 -24 83 0 9 7 17 15 17z m-2215
-137 c10 -26 21 -56 25 -65 5 -13 2 -18 -8 -18 -9 0 -23 10 -31 22 -9 12 -16
35 -16 49 0 15 3 35 6 44 5 12 12 3 24 -32z m5323 -5438 c12 -4 27 -13 32 -20
6 -6 30 -22 55 -35 25 -12 57 -31 72 -41 14 -11 55 -35 90 -56 34 -20 80 -44
101 -55 20 -10 37 -25 37 -33 0 -7 -11 -27 -25 -42 -23 -26 -26 -27 -36 -10
-5 9 -27 26 -47 36 -20 10 -84 60 -142 110 -58 49 -110 90 -116 91 -7 0 -19
11 -28 25 -9 13 -16 27 -16 30 0 4 10 3 23 0z m-92 -5 c5 0 9 -6 9 -14 0 -8
22 -33 49 -55 27 -23 53 -41 58 -41 6 0 24 -15 41 -32 17 -18 53 -49 79 -69
26 -20 72 -48 101 -63 28 -14 52 -29 52 -33 0 -3 -7 -15 -17 -25 -9 -10 -27
-18 -40 -18 -14 0 -70 31 -127 70 -57 38 -126 94 -155 124 -28 30 -51 63 -52
73 0 10 -2 33 -3 51 -2 17 0 32 5 32z m294 -30 c10 0 54 -14 97 -31 52 -21 85
-41 98 -59 11 -16 20 -33 20 -39 0 -6 -2 -11 -5 -11 -3 0 -29 12 -58 26 -29
15 -66 37 -83 50 -17 13 -34 24 -38 24 -4 0 -16 9 -28 20 -20 18 -20 20 -3 20z
m-245 -210 c5 0 33 -19 62 -43 29 -23 77 -58 106 -76 l54 -34 -38 -23 -38 -23
-45 41 c-25 22 -61 56 -78 75 -19 19 -33 45 -33 59 0 13 4 24 10 24z m-2355
-110 c8 0 15 -9 15 -20 0 -13 -5 -18 -15 -14 -8 4 -15 12 -15 20 0 8 7 14 15
14z m-90 -20 c5 -1 19 -15 30 -32 11 -18 40 -44 65 -58 36 -21 49 -36 63 -74
10 -27 16 -51 13 -53 -2 -2 -30 19 -61 46 -32 28 -61 51 -65 51 -4 0 -29 20
-55 43 l-48 44 24 16 c13 10 28 17 34 17z m2442 -20 c5 0 27 -18 48 -40 24
-24 35 -43 30 -49 -6 -4 -22 -11 -36 -15 -25 -5 -27 -3 -33 32 -4 20 -9 45
-12 55 -3 9 -1 17 3 17z m-2566 -50 c4 0 12 -7 19 -15 6 -8 22 -17 33 -21 12
-4 43 -25 69 -48 26 -22 65 -55 85 -71 21 -17 60 -42 86 -55 44 -23 52 -33 94
-118 25 -51 46 -107 47 -125 l1 -32 -79 4 c-73 3 -81 6 -104 32 -13 16 -31 29
-41 29 -9 0 -55 27 -101 61 -47 34 -95 68 -107 78 -12 9 -59 45 -104 81 -46
36 -90 70 -98 76 -12 9 -8 14 19 27 l33 17 42 -38 c23 -20 66 -55 96 -76 30
-21 72 -48 94 -59 22 -11 57 -36 78 -54 20 -18 44 -33 52 -33 8 0 23 -4 33 -9
9 -5 24 -12 32 -15 8 -3 39 -19 68 -36 40 -23 52 -26 52 -15 0 9 -21 30 -46
48 -25 17 -62 41 -83 52 -21 12 -55 35 -77 51 -21 17 -50 37 -63 44 -13 6 -51
33 -85 58 -33 25 -76 59 -93 76 -18 16 -33 33 -33 38 0 4 17 16 38 27 20 11
40 20 43 21z m-168 -225 c62 -46 135 -101 163 -123 27 -22 87 -58 132 -81 46
-23 80 -46 77 -52 -4 -5 -25 -9 -46 -7 -22 1 -43 6 -45 10 -3 4 -12 8 -21 8
-9 0 -50 23 -92 52 -42 28 -105 74 -141 102 -36 28 -87 71 -114 97 -41 40 -48
50 -37 63 10 12 28 3 124 -69z m-203 5 c6 0 21 -5 33 -11 12 -7 54 -39 92 -73
39 -34 86 -73 105 -87 19 -14 61 -38 92 -54 31 -16 56 -30 55 -32 -1 -1 -29
-3 -63 -5 -60 -2 -61 -2 -120 48 -32 28 -79 65 -104 82 -25 16 -60 46 -79 65
-21 22 -31 42 -28 51 4 9 11 16 17 16z m-18 -125 c33 -31 68 -60 77 -63 9 -4
33 -18 53 -32 21 -14 38 -29 38 -34 0 -5 -17 -6 -37 -3 -21 4 -42 12 -48 19
-5 7 -41 40 -80 73 -38 32 -72 60 -74 62 -2 1 -1 10 3 19 5 13 18 5 68 -41z
m-117 -25 c6 0 29 -16 51 -35 34 -29 36 -34 18 -35 -12 0 -38 7 -58 15 -20 8
-36 21 -36 28 0 8 3 17 7 20 3 4 12 7 18 7z"/>
</g>
<g>
<path d="M3165 10609 c-55 -1 -154 -7 -220 -14 -66 -7 -167 -24 -225 -39 -58
-15 -134 -39 -170 -53 -36 -15 -83 -38 -105 -53 -22 -15 -67 -42 -99 -60 -33
-19 -92 -65 -132 -103 -40 -38 -99 -100 -131 -139 -32 -39 -67 -88 -78 -109
-11 -20 -43 -84 -71 -141 -28 -57 -56 -116 -62 -133 -6 -16 -19 -59 -27 -95
-9 -36 -25 -108 -36 -160 -13 -64 -20 -139 -20 -230 -1 -109 3 -151 20 -219
12 -46 43 -125 68 -175 25 -50 75 -134 111 -186 36 -52 104 -133 151 -179 47
-45 118 -103 156 -128 39 -26 108 -66 155 -91 47 -24 103 -55 125 -67 22 -12
54 -26 70 -30 l30 -7 -35 -11 c-19 -7 -35 -19 -35 -27 0 -12 26 -17 125 -27
69 -6 136 -14 150 -17 14 -2 60 -5 103 -5 l77 -1 0 -27 c0 -16 7 -59 15 -98 8
-38 20 -124 27 -189 10 -113 10 -120 -8 -133 -10 -8 -50 -23 -89 -35 -38 -11
-74 -24 -80 -28 -5 -4 -23 -10 -40 -13 -16 -3 -52 -12 -80 -20 -27 -7 -76 -26
-107 -40 -31 -14 -81 -34 -110 -43 -29 -9 -87 -26 -128 -39 -41 -13 -89 -26
-107 -30 -17 -3 -36 -12 -40 -18 -5 -7 -19 -41 -30 -77 -12 -36 -22 -72 -22
-80 0 -8 -15 -73 -34 -145 -18 -71 -44 -186 -56 -255 -14 -75 -27 -199 -32
-310 -5 -102 -13 -221 -19 -265 -6 -44 -13 -136 -15 -205 -3 -69 -7 -156 -10
-195 -2 -38 -7 -209 -11 -380 -4 -170 -7 -437 -7 -593 1 -255 3 -285 19 -303
9 -10 25 -19 34 -19 9 0 25 9 36 21 16 18 18 33 14 127 -3 59 -5 222 -5 362 0
140 2 367 3 504 2 136 9 341 17 455 8 113 19 285 25 381 6 96 20 238 31 315
11 77 24 165 28 195 5 30 14 72 20 93 7 20 16 37 20 37 5 0 14 -60 21 -132 10
-98 11 -228 6 -488 -4 -195 -9 -764 -11 -1265 -5 -819 -3 -943 15 -1240 10
-181 22 -418 25 -525 3 -107 10 -256 15 -330 5 -74 12 -182 16 -240 3 -57 8
-109 12 -114 3 -6 7 -91 8 -191 2 -99 5 -256 8 -350 3 -93 8 -235 11 -315 3
-80 8 -192 11 -250 2 -58 7 -222 9 -365 2 -143 7 -309 10 -370 3 -60 12 -150
21 -200 8 -49 19 -97 23 -105 5 -8 26 -18 47 -22 21 -3 91 -14 154 -23 63 -10
180 -21 260 -25 113 -6 151 -4 171 6 15 7 29 20 32 29 4 8 3 15 -2 15 -5 0
-11 8 -14 19 -4 16 -19 19 -158 24 -85 4 -167 8 -184 11 -16 3 -52 7 -80 11
-27 3 -73 11 -101 16 l-51 10 -17 102 c-13 76 -18 186 -22 437 -2 184 -9 430
-14 545 -5 116 -12 325 -15 465 -3 140 -8 315 -10 388 -3 72 -9 189 -15 260
-5 70 -15 186 -20 257 -6 72 -13 225 -15 340 -3 116 -8 226 -12 245 -3 19 -7
60 -9 90 -2 30 -6 96 -9 145 -3 50 -8 128 -11 175 -3 47 -5 207 -4 355 1 149
3 323 4 389 l2 118 34 13 c19 7 82 27 140 45 58 17 148 48 200 67 52 19 118
44 145 55 28 11 59 27 70 34 11 8 26 14 35 14 8 0 44 11 80 26 36 14 97 40
135 58 39 19 83 39 98 45 16 6 57 21 90 32 34 12 96 32 137 44 41 13 102 33
135 44 33 12 74 26 91 31 17 6 40 10 52 10 21 0 22 -5 24 -92 1 -51 2 -106 4
-123 1 -16 3 -124 4 -240 1 -115 -1 -313 -4 -440 -4 -126 -11 -399 -17 -605
-7 -265 -7 -432 0 -570 6 -107 16 -289 21 -405 6 -115 15 -266 20 -335 5 -69
14 -206 20 -305 5 -99 12 -292 15 -430 2 -137 9 -295 14 -350 6 -55 13 -149
15 -210 4 -95 7 -112 25 -126 11 -9 47 -19 79 -23 33 -4 93 -18 134 -31 40
-14 85 -25 99 -25 15 0 37 8 49 18 15 13 21 24 16 38 -4 15 -32 28 -108 52
-57 17 -120 34 -140 38 -21 3 -42 11 -47 18 -5 6 -14 74 -20 151 -6 77 -13
187 -16 245 -3 58 -8 152 -10 210 -3 58 -7 179 -10 270 -2 91 -9 239 -14 330
-6 91 -15 237 -21 325 -6 88 -14 207 -19 265 -5 58 -10 188 -12 290 -2 102 -3
262 -3 355 1 94 4 231 7 305 4 74 9 263 12 420 3 157 4 364 3 460 -2 96 -3
248 -3 338 0 144 2 165 18 176 9 7 17 22 17 32 0 11 -9 38 -21 59 -14 28 -22
65 -25 125 -2 47 -8 117 -14 155 -5 39 -12 151 -16 250 -3 99 -8 189 -11 200
-2 11 -8 76 -12 145 -5 69 -13 137 -19 151 -6 16 -7 31 -1 40 5 8 7 46 4 84
-3 39 -8 106 -10 150 -2 44 -1 131 2 193 3 62 8 111 9 109 2 -2 11 -34 19 -73
9 -38 20 -101 25 -140 5 -39 14 -126 20 -195 6 -68 13 -143 16 -166 3 -23 14
-77 25 -120 10 -43 30 -154 44 -248 13 -93 32 -208 40 -255 9 -47 20 -152 26
-235 6 -82 12 -164 15 -181 2 -17 10 -39 17 -48 10 -13 20 -16 35 -12 12 4 27
17 33 28 9 16 8 61 0 177 -7 86 -22 206 -33 266 -12 61 -22 126 -24 145 -2 19
-6 53 -9 75 -4 22 -8 56 -11 75 -2 19 -8 62 -13 95 -5 33 -19 105 -30 160 -11
55 -27 161 -35 235 -8 74 -18 169 -21 210 -3 41 -13 109 -21 150 -9 41 -20 86
-25 100 -5 14 -14 50 -19 80 -5 30 -17 80 -26 110 -9 30 -28 123 -44 205 -15
83 -32 162 -38 178 -10 23 -17 27 -52 27 -22 0 -81 -7 -130 -16 -50 -8 -119
-21 -153 -29 -34 -7 -102 -22 -152 -34 -49 -11 -109 -27 -133 -35 -33 -12 -44
-13 -47 -3 -2 7 -6 53 -9 102 -3 50 -12 108 -19 131 -8 22 -17 72 -20 112 -4
55 -2 74 10 84 8 6 36 15 61 19 26 4 79 16 117 27 39 10 90 29 115 42 24 12
91 42 148 66 65 27 119 58 145 81 22 21 71 68 108 105 37 37 80 89 96 117 15
28 55 97 87 153 33 57 67 114 76 128 10 14 27 52 38 85 11 33 28 87 36 120 8
33 18 110 21 170 4 61 2 155 -4 210 -6 55 -14 118 -19 140 -6 22 -17 78 -27
125 -9 47 -23 104 -31 127 -7 23 -23 64 -35 90 -12 26 -28 55 -35 63 -7 8 -33
54 -57 102 -25 48 -58 104 -73 125 -15 21 -70 80 -123 130 -68 65 -119 105
-173 133 -43 23 -78 38 -78 35 0 -3 -12 0 -27 8 -16 8 -44 20 -63 26 -19 7
-48 17 -65 21 -16 5 -55 16 -85 25 -34 9 -91 15 -155 14z m10 -94 c77 -3 136
-12 195 -29 47 -13 110 -33 140 -45 30 -12 71 -31 92 -44 20 -12 63 -44 95
-72 32 -27 85 -80 117 -118 32 -37 80 -109 107 -160 28 -50 62 -119 78 -152
15 -33 32 -78 39 -100 6 -22 21 -80 33 -128 11 -49 27 -132 35 -185 7 -54 13
-153 14 -222 0 -92 -6 -146 -20 -203 -11 -44 -43 -122 -71 -175 -28 -54 -57
-104 -64 -112 -7 -8 -20 -31 -29 -50 -9 -19 -36 -64 -61 -100 -25 -36 -80
-100 -122 -143 -53 -53 -97 -87 -138 -107 -33 -15 -91 -42 -130 -60 -38 -18
-99 -41 -135 -52 -36 -11 -96 -26 -135 -35 -38 -8 -122 -15 -185 -15 -88 -1
-124 3 -155 16 -22 10 -71 26 -110 36 -38 10 -92 28 -120 40 -27 12 -114 58
-193 103 -119 67 -158 95 -229 166 -47 48 -111 119 -141 160 -31 41 -77 116
-103 166 -27 50 -56 111 -64 136 -9 24 -22 85 -30 135 -10 70 -11 123 -4 222
5 71 16 157 25 191 8 34 28 96 43 139 16 42 35 93 43 112 8 20 34 66 57 104
22 37 41 70 41 73 0 2 14 25 31 50 18 25 61 77 98 115 36 39 93 89 126 112 33
22 80 53 105 68 25 15 65 38 90 51 25 13 110 41 190 62 80 20 188 41 240 45
52 5 145 7 205 5z m582 -2786 c7 1 17 -8 23 -18 5 -11 14 -118 20 -238 5 -120
12 -378 14 -573 3 -195 7 -368 10 -385 2 -16 7 -50 10 -75 4 -25 11 -164 16
-310 5 -146 13 -278 16 -295 3 -16 9 -74 13 -128 3 -54 3 -104 -2 -112 -4 -8
-14 -15 -22 -15 -8 0 -70 -18 -137 -40 -68 -23 -166 -55 -218 -71 -52 -17
-115 -40 -140 -51 -25 -11 -52 -24 -60 -29 -8 -5 -26 -14 -40 -20 -14 -6 -49
-22 -78 -35 -29 -13 -59 -24 -67 -24 -8 0 -40 -12 -72 -27 -32 -15 -61 -26
-65 -25 -4 1 -29 -9 -55 -22 -26 -13 -66 -29 -88 -36 -22 -7 -45 -16 -50 -21
-6 -4 -29 -12 -50 -18 -22 -5 -85 -26 -140 -46 -55 -20 -116 -39 -135 -42
l-35 -5 2 459 c2 252 6 658 9 903 5 383 4 460 -10 550 -9 58 -19 164 -23 236
l-6 131 40 6 c22 4 60 16 84 27 24 11 52 20 62 20 10 0 49 12 85 26 37 14 76
29 87 34 11 4 38 15 60 24 22 9 65 22 95 30 30 8 75 22 100 31 25 9 72 19 105
22 33 3 71 14 85 23 14 9 61 25 105 34 44 9 94 21 110 25 17 5 48 13 70 19 22
6 67 16 100 22 33 6 78 16 100 22 22 6 45 12 50 13 6 2 15 4 22 4z"/>
<g>
<path d="M3704 10267 c-20 13 -25 12 -49 -10 -26 -22 -27 -25 -14 -53 9 -19
23 -30 40 -32 14 -2 31 4 38 12 7 8 11 27 9 42 -2 15 -13 33 -24 41z"/>
</g>
<g>
<path d="M3446 9970 c-12 0 -27 -5 -34 -12 -7 -7 -12 -22 -12 -34 0 -12 24
-53 54 -90 29 -38 88 -98 130 -133 42 -35 76 -69 76 -76 0 -6 11 -22 25 -35
14 -13 25 -33 25 -44 -1 -13 -20 -36 -50 -59 -28 -21 -50 -43 -50 -48 0 -5 9
-18 20 -29 11 -11 26 -20 34 -20 7 0 36 21 62 48 27 26 61 62 77 81 15 18 27
37 27 41 0 4 -27 43 -60 85 -32 43 -81 93 -107 112 -26 18 -70 57 -97 85 -27
29 -60 69 -74 90 -16 25 -32 38 -46 38z"/>
</g>
<g>
<path d="M2754 9898 c-11 1 -29 -7 -42 -18 -12 -11 -22 -23 -22 -25 0 -2 4
-16 10 -30 8 -22 15 -26 42 -23 23 2 36 10 45 28 10 20 10 29 -1 45 -7 11 -22
21 -32 23z"/>
</g>
<g>
<path d="M4026 9330 c-6 0 -18 -6 -26 -13 -8 -8 -60 -40 -114 -73 -54 -32
-117 -70 -140 -82 -23 -13 -70 -39 -106 -59 -36 -19 -96 -54 -135 -77 -38 -23
-71 -50 -73 -60 -2 -9 2 -23 8 -31 7 -8 21 -15 31 -15 10 0 35 10 56 21 21 12
49 29 63 39 14 9 61 35 105 56 44 21 132 71 195 111 63 40 125 79 137 88 13 9
26 27 29 41 4 14 1 31 -6 39 -7 8 -18 15 -24 15z"/>
</g>
</g>
<g>
<path d="M5750 7580 c-5 0 -10 -11 -10 -24 0 -14 5 -28 10 -31 6 -4 10 7 10
24 0 17 -4 31 -10 31z"/>
</g>
</g>
</svg>
