<?xml version="1.0" standalone="no"?>
<!DOCTYPE svg PUBLIC "-//W3C//DTD SVG 20010904//EN"
 "http://www.w3.org/TR/2001/REC-SVG-20010904/DTD/svg10.dtd">
<svg version="1.0" xmlns="http://www.w3.org/2000/svg"
 width="793.000000pt" height="431.000000pt" viewBox="0 0 793.000000 431.000000"
 preserveAspectRatio="xMidYMid meet">
<metadata>
Created by potrace 1.16, written by Peter Selinger 2001-2019
</metadata>
<g transform="translate(0.000000,431.000000) scale(0.100000,-0.100000)"
fill="#000000" stroke="none">
<g>
<path d="M6325 4027 c-11 1 -36 -2 -55 -6 -19 -5 -66 -14 -105 -21 -38 -7 -95
-19 -125 -27 -34 -8 -109 -14 -200 -14 -110 0 -151 -4 -168 -15 -13 -8 -28
-27 -33 -42 -6 -15 -12 -90 -13 -167 -2 -77 -6 -229 -9 -339 -3 -109 -8 -200
-9 -202 -2 -1 -30 -7 -63 -12 -33 -5 -135 -7 -227 -4 -122 3 -175 1 -198 -8
-25 -10 -30 -18 -30 -46 0 -23 5 -34 19 -39 17 -5 18 -16 14 -168 -3 -89 -8
-165 -12 -169 -3 -4 -60 -7 -126 -7 -66 -1 -169 1 -230 4 -60 3 -174 7 -252 9
-87 2 -143 0 -143 -5 0 -6 -16 -17 -35 -25 l-36 -15 6 -77 c3 -42 10 -122 15
-177 6 -55 16 -131 22 -170 7 -40 10 -145 9 -247 -2 -132 0 -185 10 -208 10
-22 21 -30 40 -30 14 0 28 2 30 5 3 2 126 7 275 10 148 4 298 8 334 10 l66 3
-3 -201 -4 -202 32 -33 c19 -21 38 -32 48 -28 9 2 35 12 57 20 30 11 93 16
218 19 100 2 179 -1 183 -6 3 -5 7 -164 9 -353 3 -304 6 -347 21 -370 16 -26
18 -26 97 -20 45 4 99 9 121 11 22 2 76 7 120 10 44 3 109 7 145 10 36 3 92 7
125 10 33 2 94 8 135 11 41 4 81 11 88 17 7 6 10 17 6 26 -4 9 -8 34 -9 56 -1
22 -9 114 -19 205 -9 91 -21 199 -26 240 -5 41 -11 107 -13 146 l-4 71 86 11
c47 6 146 18 220 27 74 8 139 19 145 24 6 5 22 11 36 13 21 2 25 8 22 33 -1
17 -4 45 -6 64 -2 18 -7 52 -10 75 -3 22 -6 70 -7 105 l-3 63 110 3 c60 2 145
6 189 9 44 4 125 7 180 7 55 0 131 -3 169 -7 58 -5 70 -4 78 10 5 9 14 14 19
10 5 -3 16 -1 24 6 7 6 16 37 19 68 3 31 9 99 11 151 3 52 8 98 11 103 3 5 5
46 5 91 -1 45 -3 138 -6 207 -3 69 -5 127 -6 130 -1 3 -1 14 0 25 1 11 -4 29
-12 39 -11 16 -17 17 -36 7 -17 -9 -35 -10 -72 -2 -28 6 -56 8 -62 4 -6 -4
-106 -6 -222 -5 -115 1 -267 -2 -336 -6 -69 -4 -133 -6 -141 -4 -12 2 -17 26
-22 115 -4 61 -11 118 -16 126 -4 8 -5 24 -1 35 4 12 5 60 3 108 -4 80 -6 87
-26 90 -11 2 -21 10 -21 18 0 12 -13 15 -65 13 -36 0 -117 -2 -180 -4 l-115
-3 -3 165 c-1 90 -2 257 -2 371 0 167 -2 208 -14 215 -7 4 -15 17 -17 28 -3
11 -13 21 -24 22z m-64 -108 c22 1 28 -4 33 -30 3 -17 6 -44 6 -59 0 -16 -5
-30 -11 -32 -7 -2 -10 -94 -9 -291 0 -158 -1 -287 -2 -288 -2 0 -109 -5 -238
-9 -129 -5 -264 -12 -299 -16 l-64 -7 8 54 c4 30 9 127 10 217 2 90 6 176 10
190 4 15 6 61 6 103 -2 57 2 79 13 88 10 9 56 14 128 17 62 2 134 6 160 10 27
3 50 10 54 15 3 5 22 9 42 10 20 0 57 6 82 13 25 8 57 14 71 15z m320 -782
l107 1 7 -116 c4 -65 8 -155 8 -202 l2 -85 -60 -1 c-33 0 -105 -4 -161 -8
l-101 -8 -6 54 c-3 29 -8 62 -11 73 -2 11 -7 75 -11 143 -7 104 -5 122 8 128
8 3 36 8 63 12 26 4 96 8 155 9z m-475 -20 l171 1 6 -58 c4 -32 4 -118 0 -192
-3 -76 -10 -136 -16 -140 -6 -4 -136 -5 -289 -4 -153 2 -280 5 -282 7 -2 2 -7
58 -10 124 -2 66 -2 147 2 180 l7 59 45 3 c25 1 79 6 120 10 41 5 152 9 246
10z m-501 -18 c0 0 0 -82 0 -184 l0 -185 -85 -1 c-47 -1 -89 0 -95 1 -5 1 -57
1 -115 1 l-105 -2 1 93 c0 51 3 118 8 148 4 30 9 67 12 82 l5 27 137 0 c75 0
160 4 187 9 28 5 50 10 50 11z m-1033 -446 c95 -2 218 -7 273 -12 55 -4 104
-6 109 -3 5 3 36 6 69 7 41 1 64 -4 74 -14 12 -12 14 -28 8 -80 -4 -36 -9
-194 -11 -350 -2 -156 -6 -286 -8 -288 -2 -3 -28 -6 -58 -8 -29 -2 -84 -4
-121 -6 -37 -1 -70 -6 -73 -10 -3 -5 -14 -5 -24 1 -10 6 -97 11 -192 13 l-173
2 1 101 c1 56 5 120 9 143 4 25 3 47 -4 54 -5 7 -14 33 -18 57 -4 25 -6 48 -6
51 1 3 -7 48 -17 100 -11 52 -20 126 -20 165 0 39 2 73 5 76 3 2 83 3 177 1z
m3001 -2 c21 -8 22 -17 31 -186 7 -146 5 -200 -8 -294 -9 -64 -16 -129 -16
-144 0 -15 -6 -29 -12 -32 -7 -2 -164 -6 -349 -10 l-337 -6 -6 88 c-4 48 -14
129 -22 178 -8 50 -17 128 -20 175 -3 47 -6 114 -7 150 l-2 64 165 3 c91 2
251 4 357 6 105 1 195 5 198 9 4 4 17 3 28 -1z m-2173 -17 c167 -1 214 -5 221
-15 5 -8 9 -25 10 -39 0 -14 1 -74 1 -135 0 -60 -1 -204 -1 -318 l-1 -208 -92
3 c-51 1 -147 1 -213 -1 -66 -1 -125 -2 -130 -2 -6 1 -10 55 -11 144 0 78 -3
189 -7 247 -4 58 -7 110 -7 115 1 6 3 51 6 100 2 50 6 95 8 101 3 7 72 10 216
8z m460 -2 c8 -3 104 -6 214 -8 109 -2 200 -4 201 -6 2 -2 6 -52 9 -112 4 -59
9 -113 12 -118 3 -5 5 -50 4 -101 -2 -51 -3 -103 -3 -117 0 -14 3 -74 6 -134
l6 -108 -47 7 c-26 4 -51 7 -57 6 -5 -1 -48 -3 -95 -5 -47 -2 -149 -4 -228 -6
-83 -2 -147 1 -153 7 -5 5 -11 142 -14 330 -2 176 -5 327 -7 334 -2 10 18 17
67 25 39 6 77 9 85 6z m630 -3 c14 -3 52 -3 85 1 33 4 81 5 107 2 36 -4 48 -9
52 -26 3 -11 6 -59 6 -106 0 -47 6 -110 14 -140 7 -30 17 -100 20 -155 4 -55
11 -118 17 -140 6 -22 13 -52 16 -66 l5 -27 -169 -7 c-92 -3 -181 -10 -196
-15 -15 -5 -34 -7 -41 -4 -10 4 -14 24 -14 67 -1 34 -2 67 -3 72 -1 6 -3 105
-5 220 -2 116 -5 235 -7 265 l-2 55 45 5 c25 3 56 3 70 -1z m224 -754 l110 0
16 -112 c8 -62 13 -118 10 -125 -3 -8 -27 -14 -55 -16 -27 -2 -68 -5 -90 -8
-22 -3 -44 -9 -50 -14 -5 -4 -59 -10 -120 -12 l-110 -3 -13 100 c-7 55 -14
114 -15 132 0 18 2 36 6 39 4 4 51 10 105 14 53 3 146 6 206 5z m-477 -13 c38
-2 69 -5 70 -6 0 0 4 -56 7 -123 4 -68 9 -129 12 -136 4 -10 -9 -18 -43 -26
-26 -7 -110 -14 -186 -16 -75 -2 -141 -6 -146 -9 -5 -3 -60 -8 -122 -10 l-114
-4 2 145 c1 80 4 148 8 151 3 3 36 7 73 8 37 1 132 5 212 9 80 4 148 10 152
14 5 4 38 5 75 3z m-642 -27 l40 0 2 -45 c2 -25 3 -79 3 -120 0 -41 -3 -89 -6
-107 -3 -18 -11 -37 -18 -42 -6 -5 -45 -12 -86 -16 -41 -3 -131 -10 -200 -14
-69 -5 -128 -6 -132 -2 -3 3 -8 80 -10 171 l-3 165 185 5 c102 3 203 5 225 5z
m717 -365 c25 0 28 -4 29 -32 0 -18 2 -67 5 -108 2 -41 6 -117 10 -167 3 -51
10 -95 15 -99 5 -3 9 -23 9 -44 0 -22 4 -61 9 -87 5 -26 12 -65 16 -85 6 -37
5 -38 -27 -38 -18 0 -89 -5 -158 -10 -69 -6 -195 -18 -280 -26 -85 -8 -167
-17 -181 -20 l-26 -6 -6 123 c-4 67 -7 216 -7 330 0 130 4 210 10 214 6 4 32
8 58 10 26 2 76 6 112 9 36 3 101 8 145 11 44 4 113 8 154 10 40 2 76 6 79 10
3 3 18 5 34 5z"/>
<g>
<path d="M5799 2580 c-10 0 -24 -9 -32 -21 -8 -11 -12 -29 -10 -40 3 -12 12
-23 19 -26 8 -3 25 -2 39 1 19 5 25 13 25 34 0 15 -5 33 -12 40 -7 7 -20 12
-29 12z"/>
</g>
<g>
<path d="M6200 2570 c-9 0 -24 -6 -34 -13 -13 -9 -16 -20 -11 -39 4 -15 14
-29 22 -33 9 -3 26 2 39 10 13 9 24 23 24 33 0 10 -5 23 -12 30 -7 7 -19 12
-28 12z"/>
</g>
<g>
<path d="M6002 2520 c-4 0 -18 -8 -32 -16 -14 -9 -31 -32 -38 -53 -7 -20 -17
-52 -22 -71 -4 -19 -14 -61 -21 -93 -10 -42 -10 -63 -3 -75 9 -14 28 -17 97
-18 63 0 88 3 91 13 3 7 1 13 -5 13 -6 0 -8 9 -4 21 5 14 1 25 -12 34 -10 8
-33 15 -50 15 -32 0 -33 2 -33 39 0 21 6 44 14 51 8 6 22 31 31 55 13 33 14
47 6 64 -7 12 -15 21 -19 21z"/>
</g>
<g>
<path d="M6147 2138 c-29 0 -61 -3 -72 -7 -11 -4 -54 -8 -95 -10 -41 -1 -86
-8 -99 -14 -13 -7 -29 -20 -35 -30 -9 -15 -7 -21 9 -33 16 -13 36 -14 105 -8
47 5 117 7 157 5 39 -1 81 3 92 9 16 8 19 17 14 43 -3 17 -10 35 -16 38 -5 4
-32 6 -60 7z"/>
</g>
</g>
<g>
<path d="M1871 3839 c-39 20 -62 27 -72 20 -8 -5 -28 -9 -44 -9 -17 0 -58 -9
-90 -21 -33 -11 -75 -35 -93 -52 -26 -25 -32 -38 -29 -59 2 -18 -1 -28 -9 -28
-7 0 -16 -10 -20 -22 -4 -13 -15 -34 -26 -48 -10 -14 -20 -34 -22 -45 -2 -11
-7 -33 -11 -50 -4 -16 -15 -46 -25 -65 -10 -19 -23 -57 -29 -85 -6 -27 -14
-69 -17 -92 -6 -37 -10 -42 -38 -46 -17 -3 -58 -16 -91 -28 -33 -13 -73 -33
-90 -44 -16 -11 -57 -41 -90 -66 -33 -26 -80 -71 -105 -99 -25 -29 -51 -59
-58 -67 -8 -7 -24 -33 -37 -56 -13 -23 -33 -61 -45 -83 -11 -23 -31 -45 -43
-49 -12 -4 -26 -9 -32 -10 -5 -2 -48 -17 -95 -33 -47 -16 -118 -45 -158 -65
-40 -20 -100 -58 -135 -84 -34 -26 -86 -73 -114 -103 -29 -30 -53 -59 -53 -63
0 -5 -10 -22 -21 -39 -12 -16 -29 -60 -39 -98 -10 -38 -16 -86 -13 -107 2 -21
8 -47 12 -58 5 -11 17 -38 26 -60 10 -22 41 -62 70 -90 29 -27 74 -65 100 -84
26 -19 68 -45 93 -58 26 -12 55 -23 64 -23 9 0 20 -4 23 -10 3 -5 15 -10 26
-10 10 0 19 -4 19 -9 0 -4 21 -14 48 -20 26 -7 78 -22 116 -34 49 -16 71 -28
77 -44 4 -11 12 -24 18 -28 6 -3 26 -37 45 -74 19 -37 40 -79 47 -92 8 -13 26
-39 42 -57 15 -18 27 -39 27 -47 0 -9 10 -15 26 -15 14 0 36 -9 48 -20 11 -11
42 -39 68 -63 25 -24 67 -54 91 -65 25 -12 48 -25 51 -30 2 -4 8 -44 11 -88 4
-43 10 -88 15 -99 5 -11 17 -47 26 -80 9 -33 22 -86 29 -117 7 -32 28 -81 45
-110 18 -29 58 -79 89 -111 31 -33 72 -67 91 -77 20 -10 63 -24 97 -30 35 -7
101 -10 150 -8 72 4 98 10 141 33 30 16 66 42 80 58 15 16 35 39 46 49 10 11
36 52 59 92 22 39 43 73 46 76 3 3 19 34 35 70 16 36 34 76 41 90 7 14 17 41
23 60 7 19 13 51 16 72 2 20 9 46 16 58 6 12 11 33 10 48 -1 15 -2 36 -1 48 1
15 16 28 54 47 29 14 78 45 109 69 31 24 69 52 84 63 15 11 43 36 61 55 18 19
33 37 33 41 0 3 8 16 19 27 15 18 43 25 152 42 74 11 148 21 164 24 17 2 62
11 100 21 39 9 97 18 130 20 33 2 86 11 118 19 32 8 73 24 91 36 19 11 44 36
57 55 13 19 34 40 47 47 13 7 28 21 33 31 6 10 13 78 16 151 5 127 4 135 -25
224 -18 53 -45 113 -66 141 -20 27 -69 75 -108 107 -40 33 -102 81 -138 108
-36 27 -103 66 -150 88 -47 21 -96 45 -110 52 -14 7 -42 19 -62 25 -32 11 -39
18 -48 54 -6 23 -16 61 -22 85 -6 24 -26 60 -44 80 -19 20 -34 39 -34 42 0 3
-30 38 -67 77 -38 38 -86 80 -108 92 -22 12 -58 33 -80 46 -22 14 -83 38 -137
55 -53 16 -102 30 -110 30 -7 0 -19 4 -26 9 -7 4 -21 42 -31 84 -11 42 -33
110 -49 151 -17 41 -59 117 -94 170 -47 70 -77 104 -112 126 -26 17 -73 43
-105 59z m-71 -86 c14 -3 48 -19 77 -36 29 -17 54 -36 57 -43 3 -7 25 -39 49
-71 25 -32 58 -83 74 -113 17 -31 33 -74 37 -95 4 -22 16 -59 27 -82 10 -23
19 -43 19 -45 0 -2 -24 -3 -53 -2 -30 2 -77 10 -105 19 -42 14 -78 16 -204 12
-84 -3 -166 -8 -183 -11 -16 -2 -54 -7 -82 -11 -34 -3 -53 -2 -53 5 0 5 9 27
20 47 11 21 20 43 20 50 0 7 12 48 26 90 14 43 32 90 40 105 8 15 27 46 43 70
16 24 43 56 60 72 17 16 47 32 68 36 21 4 49 5 63 3z m34 -543 c12 0 36 -4 54
-9 18 -6 87 -15 152 -22 114 -11 119 -13 129 -38 6 -14 28 -95 49 -178 l38
-153 -40 6 c-23 3 -54 10 -71 15 -16 5 -97 14 -180 21 -82 6 -184 11 -225 12
-41 0 -137 -3 -213 -6 -117 -5 -139 -4 -144 9 -3 8 -1 19 6 26 6 6 11 24 11
40 0 15 4 47 10 70 5 23 12 63 15 89 4 30 13 51 23 57 9 5 38 11 65 14 26 3
52 9 57 12 6 3 29 8 53 10 23 2 73 7 112 10 38 4 72 8 74 11 2 2 14 4 25 4z
m-489 -70 c11 0 12 -7 4 -32 -6 -18 -16 -71 -24 -118 -8 -47 -15 -99 -15 -117
0 -28 -4 -33 -32 -37 -18 -3 -71 -10 -118 -16 -47 -6 -100 -13 -119 -16 -18
-2 -41 -9 -51 -14 -10 -6 -21 -10 -24 -10 -3 0 -6 8 -6 18 0 9 16 37 35 61 19
24 35 48 35 52 0 5 6 9 14 9 8 0 26 14 41 32 15 17 43 44 63 60 20 15 50 38
66 51 16 12 35 28 42 35 7 6 20 12 29 12 9 0 23 7 31 15 9 8 22 15 29 15z
m979 -10 c5 -5 23 -10 38 -10 16 0 62 -16 102 -35 40 -19 79 -41 86 -50 7 -8
18 -15 24 -15 7 0 21 -10 32 -22 11 -13 33 -34 49 -48 17 -14 44 -43 60 -64
17 -21 40 -52 52 -70 12 -17 22 -44 22 -59 1 -28 0 -29 -41 -22 -24 4 -49 12
-56 17 -7 6 -29 12 -50 13 -20 2 -84 11 -142 20 -58 10 -114 21 -124 25 -14 5
-24 25 -34 61 -7 30 -15 74 -18 98 -2 24 -8 49 -13 55 -5 6 -12 28 -16 49 -5
25 -3 42 5 53 9 10 16 12 24 4z m-502 -366 c10 -3 73 -7 141 -10 67 -3 151 -6
187 -8 36 -2 77 -9 93 -15 20 -8 27 -18 28 -38 1 -16 1 -31 1 -34 -1 -4 3 -20
7 -37 5 -17 12 -92 16 -169 4 -76 9 -165 11 -198 2 -33 6 -107 8 -165 2 -58 0
-154 -5 -215 -4 -60 -10 -145 -13 -189 -3 -43 -8 -81 -11 -84 -3 -3 -133 -6
-290 -6 -157 -1 -285 -4 -285 -7 0 -4 -18 -3 -40 2 -22 5 -70 10 -107 10 -38
1 -92 8 -120 15 -29 7 -62 11 -72 9 -11 -2 -22 3 -26 13 -4 9 -9 100 -13 202
-3 102 -6 268 -6 370 0 102 4 235 7 295 4 61 10 130 14 155 3 25 7 54 8 65 1
15 10 20 36 22 19 1 117 5 219 8 102 4 187 9 189 11 3 2 13 2 23 -2z m-567
-36 c17 -3 20 -9 18 -43 -2 -22 -6 -96 -10 -165 -4 -69 -7 -222 -7 -340 1
-118 4 -269 7 -335 2 -66 8 -138 12 -159 l8 -39 -34 7 c-19 4 -81 14 -139 22
-58 9 -115 17 -127 18 -13 2 -29 9 -38 16 -11 9 -18 10 -28 1 -11 -8 -17 -7
-29 7 -8 9 -20 31 -27 47 -7 17 -19 77 -26 135 -8 58 -16 141 -20 185 -4 45
-2 117 5 165 6 47 18 119 26 160 8 41 19 84 23 95 5 11 13 34 19 50 5 17 15
49 21 73 10 36 16 42 38 42 15 0 35 7 44 16 13 11 35 16 68 16 28 -1 52 2 55
7 3 5 29 9 57 10 29 0 55 3 58 6 3 3 14 5 26 3z m1181 -32 c33 -3 95 -12 139
-21 44 -8 105 -20 135 -26 30 -5 66 -15 80 -22 15 -7 27 -24 31 -42 4 -17 7
-142 8 -278 1 -200 -2 -255 -14 -284 -8 -19 -15 -41 -15 -49 0 -7 -5 -25 -12
-41 -6 -15 -13 -35 -14 -43 -2 -8 -11 -37 -20 -65 -10 -27 -39 -93 -64 -145
-44 -89 -49 -95 -76 -94 -16 1 -73 3 -127 4 l-97 3 5 101 c3 56 10 138 15 183
6 46 8 163 5 260 -3 98 -9 192 -12 208 -4 17 -7 80 -8 140 0 61 -5 134 -9 162
l-9 53 59 -4z m-1679 -76 c6 0 14 -4 17 -9 3 -4 -3 -39 -13 -77 -10 -38 -24
-98 -29 -134 -6 -36 -14 -81 -17 -100 -2 -19 -5 -75 -5 -125 0 -49 4 -146 9
-215 6 -69 13 -138 17 -154 6 -27 5 -28 -17 -23 -13 4 -49 12 -79 19 -30 7
-80 28 -111 46 -31 17 -60 32 -64 32 -4 0 -20 10 -35 23 -15 12 -40 31 -56 42
-16 11 -48 39 -71 62 -24 24 -50 60 -59 81 -8 20 -16 44 -16 52 0 8 2 35 6 59
4 25 17 63 28 85 11 22 53 72 93 111 40 38 79 76 88 83 9 6 19 12 23 12 3 0
32 15 63 34 31 18 81 41 111 50 30 9 66 23 80 31 14 8 30 14 37 15z m2173 -32
c3 -2 28 -14 55 -27 28 -12 75 -35 105 -49 30 -14 69 -35 85 -46 17 -12 53
-42 82 -68 28 -27 56 -48 62 -48 5 0 35 -25 65 -56 31 -30 65 -74 76 -97 11
-23 23 -58 26 -77 4 -19 9 -77 11 -129 3 -59 0 -98 -6 -104 -6 -6 -11 -17 -11
-25 0 -8 -14 -32 -31 -53 -21 -27 -54 -50 -103 -73 -39 -18 -96 -38 -126 -45
-30 -7 -89 -20 -130 -30 -41 -11 -96 -24 -121 -30 -26 -6 -84 -13 -129 -17
l-82 -7 15 29 c8 16 26 54 41 85 14 31 26 68 26 82 0 14 4 29 10 32 5 3 14 25
20 48 6 23 15 51 19 62 5 11 14 45 20 75 6 31 12 170 13 313 1 141 4 256 8
255z m-1942 -972 c31 -2 73 -10 92 -16 19 -7 71 -19 115 -28 l80 -17 3 -120
c2 -74 -2 -130 -9 -147 -6 -15 -17 -28 -23 -28 -6 0 -34 18 -61 40 -28 22 -69
56 -93 76 -24 20 -55 55 -70 77 -15 22 -31 47 -37 56 -5 8 -20 32 -32 53 -13
21 -23 42 -23 48 0 7 21 9 58 6z m377 -66 c6 0 28 -5 50 -10 22 -5 112 -15
200 -21 88 -6 273 -12 410 -12 244 -2 250 -3 248 -22 -2 -11 -7 -57 -12 -103
-5 -45 -16 -93 -24 -106 -9 -13 -49 -39 -89 -58 -40 -19 -107 -44 -148 -57
-41 -12 -83 -27 -92 -32 -10 -5 -23 -7 -30 -4 -7 2 -76 6 -154 9 -108 4 -164
11 -240 32 -54 14 -102 31 -106 37 -4 7 -8 30 -9 52 -1 22 -3 45 -4 50 -2 6
-4 15 -5 20 -2 6 -4 58 -4 117 -1 66 3 108 9 108z m1125 -38 c41 -2 77 -6 80
-9 3 -3 -20 -27 -50 -54 -30 -27 -60 -49 -67 -49 -6 0 -14 -9 -18 -19 -3 -10
-13 -21 -23 -24 -9 -3 -25 -8 -36 -12 -17 -7 -18 -5 -12 31 4 21 9 60 12 86 4
33 11 48 22 51 10 1 51 1 92 -1z m-262 -363 c6 1 12 -3 12 -8 0 -6 -4 -12 -9
-15 -5 -3 -16 -41 -25 -83 -10 -43 -31 -112 -47 -153 -17 -41 -46 -98 -65
-127 -19 -28 -34 -58 -34 -66 0 -9 -22 -40 -49 -69 -27 -30 -69 -64 -93 -76
-32 -17 -61 -22 -118 -23 -41 0 -101 6 -133 15 -47 12 -67 25 -115 73 -32 32
-65 70 -74 84 -10 15 -16 45 -16 73 1 26 -4 51 -10 55 -6 4 -11 15 -11 26 0
11 -4 43 -10 70 -5 28 -16 70 -25 95 -9 25 -16 56 -16 69 0 18 4 22 18 16 9
-4 26 -9 37 -11 11 -2 31 -6 45 -9 14 -3 54 -12 90 -21 36 -9 92 -16 125 -15
33 1 92 -3 132 -9 55 -7 79 -7 100 2 15 7 30 15 33 19 3 4 21 9 40 12 19 3 55
10 80 17 25 6 50 14 55 16 6 2 24 13 40 23 17 11 36 20 43 20z"/>
<g>
<path d="M1595 2608 c-20 -1 -44 -8 -55 -15 -12 -9 -20 -26 -20 -43 0 -20 7
-33 21 -41 12 -6 36 -8 55 -4 19 3 38 14 44 25 5 10 9 27 7 37 -1 10 -6 23
-10 30 -4 7 -23 12 -42 11z"/>
</g>
<g>
<path d="M2152 2610 c-16 0 -36 -6 -47 -13 -14 -11 -16 -21 -11 -50 6 -30 11
-37 31 -37 13 0 30 3 39 6 11 4 16 19 16 50 0 42 -2 44 -28 44z"/>
</g>
<g>
<path d="M1947 2396 c-34 2 -67 1 -73 -3 -6 -5 -14 -17 -17 -28 -4 -11 -3 -26
2 -34 7 -10 22 -12 62 -7 44 5 60 3 87 -14 20 -12 32 -27 30 -37 -2 -9 -22
-22 -48 -29 -25 -8 -57 -11 -73 -8 -21 4 -32 0 -47 -18 -11 -12 -19 -33 -20
-45 0 -13 6 -23 14 -23 8 0 50 5 92 11 43 6 91 17 106 25 15 8 28 12 28 9 0
-4 7 0 15 9 9 9 15 33 15 63 -1 32 -7 56 -20 71 -10 12 -35 29 -55 38 -20 8
-64 17 -98 20z"/>
</g>
<g>
<path d="M2114 2010 c-10 3 -53 3 -94 -2 -41 -4 -144 -9 -228 -12 -128 -3
-157 -7 -173 -22 -10 -9 -19 -24 -19 -33 0 -9 8 -21 18 -27 12 -7 61 -8 162
-2 80 5 182 12 228 17 66 7 89 14 108 32 13 12 23 27 21 32 -2 6 -12 13 -23
17z"/>
</g>
</g>
</g>
</svg>
