<?xml version="1.0" standalone="no"?>
<!DOCTYPE svg PUBLIC "-//W3C//DTD SVG 20010904//EN"
 "http://www.w3.org/TR/2001/REC-SVG-20010904/DTD/svg10.dtd">
<svg version="1.0" xmlns="http://www.w3.org/2000/svg"
 width="997.000000pt" height="598.000000pt" viewBox="0 0 997.000000 598.000000"
 preserveAspectRatio="xMidYMid meet">
<metadata>
Created by potrace 1.16, written by Peter Selinger 2001-2019
</metadata>
<g transform="translate(0.000000,598.000000) scale(0.100000,-0.100000)"
fill="#000000" stroke="none">
<g>
<path d="M3675 5582 c-77 3 -162 3 -190 1 -27 -2 -95 -7 -150 -13 -56 -5 -175
-27 -265 -50 -90 -22 -174 -40 -186 -40 -13 0 -33 -4 -46 -9 -13 -5 -61 -19
-108 -31 -47 -11 -141 -40 -210 -62 -69 -23 -174 -63 -235 -91 -60 -27 -161
-76 -225 -108 -63 -33 -131 -69 -150 -81 -19 -12 -80 -52 -135 -88 -55 -36
-131 -88 -170 -115 -38 -27 -102 -74 -141 -106 -38 -31 -135 -120 -213 -196
-79 -76 -176 -177 -216 -224 -40 -47 -78 -96 -85 -110 -7 -13 -16 -26 -20 -29
-3 -3 -32 -39 -63 -81 -31 -42 -57 -81 -57 -86 0 -6 -16 -30 -35 -54 -19 -24
-35 -49 -35 -55 0 -6 -10 -26 -23 -45 -13 -19 -39 -65 -59 -104 -20 -38 -51
-104 -69 -145 -17 -41 -40 -91 -50 -111 -10 -19 -34 -77 -53 -127 -19 -50 -43
-126 -52 -169 -9 -43 -19 -93 -22 -111 -2 -18 -8 -35 -13 -38 -5 -3 -9 -22 -9
-43 0 -21 -5 -51 -10 -67 -6 -16 -15 -60 -21 -99 -6 -38 -13 -92 -15 -120 -2
-27 -11 -108 -19 -178 -12 -110 -12 -144 0 -245 7 -64 23 -169 34 -232 11 -63
29 -149 40 -190 12 -41 37 -119 56 -173 19 -54 64 -153 100 -220 37 -68 84
-145 105 -173 22 -27 51 -66 65 -87 15 -21 77 -91 140 -155 62 -64 150 -144
195 -177 44 -33 105 -78 133 -101 29 -23 77 -55 108 -71 30 -17 73 -36 95 -43
21 -7 64 -25 94 -40 30 -15 105 -41 165 -58 61 -17 128 -34 150 -37 22 -4 78
-16 125 -27 72 -17 120 -21 315 -22 127 0 280 4 340 11 61 7 171 28 245 47 74
19 200 53 280 74 80 21 165 48 190 59 25 11 64 26 88 33 23 7 47 19 53 27 6 7
17 13 24 13 7 0 35 11 62 24 26 12 64 30 83 39 19 9 42 21 50 26 8 5 35 19 60
31 25 13 54 31 65 40 11 9 45 31 76 49 31 17 62 38 69 46 7 8 17 15 22 15 5 0
41 24 81 54 40 30 92 64 117 76 25 12 69 41 98 64 29 22 68 53 86 68 19 16 36
28 40 28 3 0 14 8 25 18 10 9 65 60 122 112 57 52 139 131 184 175 44 44 103
105 130 135 28 30 72 80 98 112 26 31 47 59 47 62 0 3 7 14 15 23 8 10 65 86
126 168 61 83 125 170 142 194 16 24 56 75 89 112 32 37 58 71 58 74 0 3 34
47 77 98 42 50 101 121 132 157 31 35 65 74 76 86 11 12 27 30 35 40 9 11 49
57 89 104 41 47 148 156 240 243 114 109 202 182 281 235 63 42 127 84 142 92
14 8 45 25 67 38 23 12 41 20 41 18 0 -3 31 12 68 34 37 21 86 46 107 55 22 9
72 28 110 42 39 14 102 34 140 44 39 11 84 24 100 29 17 5 55 17 85 26 30 9
73 20 95 24 22 5 60 14 85 20 25 6 86 17 135 25 50 8 125 15 169 15 43 0 120
-5 170 -11 50 -6 134 -22 186 -36 52 -14 118 -35 145 -45 28 -11 79 -34 115
-51 36 -17 100 -58 143 -90 43 -33 104 -89 137 -126 33 -36 82 -104 111 -151
28 -47 69 -117 90 -157 22 -40 48 -100 59 -135 10 -35 26 -94 34 -133 8 -38
20 -105 26 -148 5 -43 10 -103 10 -132 0 -30 -7 -80 -16 -112 -9 -32 -17 -69
-19 -82 -2 -14 -11 -43 -21 -65 -9 -23 -25 -59 -35 -82 -11 -22 -19 -43 -19
-47 0 -3 -14 -28 -32 -54 -18 -26 -48 -68 -66 -93 -19 -25 -82 -94 -141 -155
-82 -86 -120 -117 -171 -142 -36 -17 -101 -48 -145 -68 -44 -20 -114 -43 -155
-51 -41 -7 -113 -13 -160 -14 -47 0 -121 5 -165 11 -44 6 -98 15 -120 20 -22
6 -53 12 -70 15 -16 2 -59 9 -95 15 -36 6 -74 14 -85 19 -11 5 -45 19 -75 31
-30 12 -62 28 -70 34 -8 7 -40 22 -71 34 -31 12 -89 49 -130 82 -41 33 -76 69
-79 79 -3 11 -25 40 -49 66 -25 25 -59 56 -77 68 -17 11 -65 48 -107 81 -42
33 -97 75 -124 92 -26 18 -71 44 -100 58 -28 14 -60 28 -70 30 -10 2 -34 9
-53 14 -19 6 -86 11 -149 11 -91 0 -129 -5 -184 -22 -50 -16 -85 -36 -128 -74
-32 -28 -72 -69 -88 -91 -16 -22 -53 -89 -82 -149 l-54 -109 2 -98 c0 -54 9
-131 17 -171 9 -40 27 -102 40 -137 13 -35 53 -118 89 -183 36 -66 85 -147
110 -181 25 -34 78 -97 119 -140 40 -43 102 -101 138 -129 36 -29 108 -77 160
-108 52 -31 142 -78 200 -105 58 -28 125 -57 150 -65 25 -9 70 -20 100 -26 30
-6 109 -22 175 -36 66 -14 161 -30 210 -36 50 -5 134 -14 187 -20 53 -5 159
-10 235 -10 87 0 185 7 266 20 70 11 157 26 193 35 36 8 90 26 120 40 30 14
62 25 70 25 9 0 28 7 42 15 15 8 67 33 117 56 49 22 109 54 133 70 23 16 55
35 70 43 15 8 41 26 57 40 17 14 35 26 42 26 6 0 13 4 15 8 2 4 37 34 78 66
41 31 114 93 162 137 48 44 93 91 100 103 7 13 25 46 40 74 15 28 39 68 54 89
14 21 40 65 56 98 17 33 44 102 60 154 16 51 47 128 68 170 21 42 57 117 79
168 25 58 46 125 55 180 8 48 20 135 27 193 8 58 13 168 12 245 0 77 -6 176
-12 220 -6 44 -16 114 -21 155 -6 41 -20 115 -31 163 -11 49 -29 112 -40 140
-11 29 -26 66 -33 82 -8 17 -24 53 -36 80 -12 28 -28 64 -36 82 -8 17 -14 34
-14 38 0 3 -11 21 -25 39 -14 18 -25 35 -25 38 0 3 -19 36 -41 74 -23 37 -53
88 -66 113 -14 25 -31 51 -37 56 -7 6 -18 21 -25 33 -7 13 -41 61 -76 105 -35
45 -112 125 -171 177 -60 52 -116 100 -125 105 -10 6 -57 40 -106 77 -48 37
-95 68 -104 68 -9 0 -21 6 -27 13 -6 7 -34 19 -62 27 -28 8 -56 20 -62 27 -6
7 -21 13 -34 13 -12 0 -25 4 -28 9 -3 4 -16 6 -29 4 -14 -3 -31 2 -41 13 -10
10 -28 18 -40 20 -11 1 -46 7 -76 14 -30 7 -80 16 -110 20 -30 4 -95 13 -145
20 -55 8 -127 10 -185 6 -52 -4 -135 -10 -185 -15 -49 -5 -112 -14 -140 -21
-27 -7 -70 -19 -95 -27 -25 -8 -58 -19 -75 -23 -16 -4 -95 -31 -175 -59 -80
-29 -210 -84 -290 -124 -80 -40 -181 -99 -225 -132 -44 -33 -84 -63 -90 -67
-5 -5 -84 -69 -175 -144 -91 -75 -277 -247 -414 -383 -137 -135 -279 -275
-315 -311 -36 -36 -89 -92 -117 -125 -29 -33 -72 -85 -98 -115 -25 -30 -83
-100 -129 -155 -45 -55 -96 -118 -112 -140 -17 -22 -46 -56 -65 -75 -20 -19
-53 -56 -75 -81 -22 -26 -65 -75 -95 -110 -30 -35 -100 -111 -155 -169 -55
-58 -127 -133 -160 -168 -33 -35 -91 -89 -130 -120 -38 -31 -104 -86 -146
-122 -42 -36 -102 -83 -133 -105 -31 -22 -56 -43 -56 -47 0 -4 -7 -8 -15 -8
-8 0 -34 -13 -57 -29 -24 -15 -56 -37 -73 -47 -16 -10 -46 -27 -65 -37 -19
-11 -55 -33 -80 -51 -25 -17 -103 -61 -175 -98 -71 -36 -177 -85 -235 -108
-58 -23 -141 -53 -185 -67 -44 -13 -89 -28 -100 -33 -11 -4 -69 -20 -130 -35
-60 -15 -130 -30 -155 -35 -25 -4 -85 -13 -135 -20 -58 -8 -147 -11 -260 -7
-148 5 -184 9 -276 35 -58 16 -153 46 -210 66 -57 20 -108 41 -113 46 -6 6
-17 10 -26 10 -9 0 -39 14 -66 32 -27 18 -78 55 -114 84 -36 28 -84 71 -108
95 -23 25 -60 79 -82 121 -21 42 -52 111 -68 154 -16 44 -34 95 -40 114 -6 19
-12 76 -12 125 -1 50 3 133 9 185 5 52 17 122 26 155 9 33 28 94 42 135 15 41
38 100 53 130 14 31 34 69 45 85 11 17 25 37 30 46 6 9 32 45 58 80 26 35 60
79 75 97 15 18 56 65 92 105 36 39 94 101 128 138 35 37 89 87 119 111 31 24
95 75 142 114 47 38 104 80 126 92 22 11 70 34 106 50 36 16 130 46 210 66 79
20 167 43 194 50 28 8 102 21 165 31 83 12 148 15 235 11 66 -4 136 -10 154
-16 19 -5 37 -7 41 -5 4 3 41 -7 81 -21 41 -14 99 -32 129 -40 30 -9 75 -21
100 -29 25 -7 63 -20 86 -28 22 -9 66 -27 97 -41 31 -14 59 -26 64 -26 4 0 19
-6 33 -13 14 -7 54 -23 90 -36 36 -13 76 -28 90 -34 14 -5 61 -23 105 -39 44
-16 114 -38 155 -49 41 -12 95 -25 120 -30 25 -5 83 -14 130 -20 47 -6 108
-17 136 -25 44 -12 59 -12 120 2 38 8 80 18 94 21 14 3 57 16 95 31 39 14 86
40 105 57 19 18 57 45 83 60 36 21 54 40 74 79 14 28 36 65 48 81 13 17 32 53
44 80 12 28 38 120 58 205 31 139 34 165 29 253 -3 54 -10 113 -15 130 -5 18
-22 70 -37 117 -14 47 -42 117 -62 155 -19 39 -65 111 -102 160 -42 57 -100
119 -156 166 -49 41 -123 100 -165 131 -41 31 -100 70 -130 87 -29 17 -61 34
-69 37 -8 3 -44 19 -80 36 -36 16 -78 36 -95 43 -16 8 -79 36 -138 64 -60 28
-115 51 -124 51 -8 0 -29 7 -46 15 -18 8 -90 21 -162 30 -71 8 -164 19 -205
24 -41 5 -138 11 -215 13z m-40 -75 c110 -3 252 -10 315 -16 63 -7 153 -21
200 -32 47 -11 110 -29 140 -40 30 -11 88 -36 128 -55 39 -19 98 -46 130 -60
31 -15 98 -46 147 -70 51 -24 145 -85 215 -138 69 -52 159 -130 200 -174 41
-44 85 -93 97 -110 13 -16 41 -65 64 -108 23 -43 54 -116 70 -163 16 -47 34
-127 39 -177 8 -64 8 -111 0 -158 -6 -37 -22 -102 -36 -143 -14 -42 -39 -106
-56 -142 -16 -36 -43 -94 -59 -128 -18 -36 -47 -76 -70 -96 -22 -19 -69 -49
-106 -67 -36 -18 -93 -43 -127 -57 -50 -20 -78 -24 -156 -24 -52 1 -131 7
-175 15 -44 8 -116 24 -160 35 -44 11 -100 26 -125 32 -25 7 -88 29 -140 49
-53 21 -111 41 -130 45 -19 4 -51 16 -70 26 -19 10 -73 35 -120 55 -46 21 -98
40 -115 45 -16 4 -43 12 -60 17 -16 6 -88 28 -160 51 -71 22 -168 47 -215 55
-47 8 -148 15 -225 15 -83 1 -173 -5 -220 -13 -44 -8 -91 -19 -105 -24 -14 -5
-59 -15 -100 -22 -41 -7 -109 -21 -150 -31 -41 -11 -95 -27 -120 -35 -25 -9
-71 -28 -102 -42 -32 -14 -58 -30 -58 -34 0 -4 -10 -8 -22 -8 -13 0 -52 -19
-87 -43 -35 -23 -75 -49 -88 -58 -14 -9 -53 -43 -87 -75 -35 -33 -89 -81 -121
-109 -31 -27 -61 -52 -65 -55 -4 -3 -14 -19 -23 -36 -9 -17 -35 -48 -59 -69
-24 -22 -74 -78 -113 -126 -38 -47 -77 -97 -85 -109 -8 -13 -34 -47 -57 -76
-23 -29 -45 -65 -49 -79 -4 -15 -22 -47 -40 -71 -20 -26 -49 -89 -73 -161 -22
-65 -50 -162 -61 -217 -12 -59 -20 -137 -20 -195 0 -53 7 -133 14 -178 8 -45
21 -104 30 -131 8 -27 37 -95 65 -149 28 -55 51 -103 51 -107 0 -4 6 -14 12
-23 7 -9 42 -45 78 -81 36 -35 88 -80 115 -101 28 -20 75 -51 105 -68 30 -17
89 -43 130 -58 41 -15 84 -31 95 -35 11 -3 63 -21 115 -38 52 -17 140 -39 195
-48 64 -11 153 -17 250 -17 83 0 175 5 205 11 30 6 84 16 120 22 36 6 79 12
95 13 17 2 35 6 40 9 6 3 37 11 70 19 33 7 119 32 190 56 72 24 144 47 160 50
17 3 37 12 46 20 9 8 34 19 55 25 22 5 100 39 174 75 74 35 142 71 150 78 8 7
44 28 80 47 36 19 86 49 111 66 26 18 49 32 53 32 3 0 22 11 43 25 21 13 69
46 106 72 38 26 94 69 127 94 32 25 91 75 131 109 41 35 135 124 209 199 74
75 164 169 200 210 36 41 78 88 94 105 16 17 82 90 145 162 64 72 161 186 216
253 55 68 117 144 139 170 21 25 61 73 90 105 28 33 105 111 171 175 66 64
205 200 310 303 104 102 215 206 245 229 30 24 68 55 85 69 16 14 50 43 75 66
25 22 61 51 80 65 19 13 42 29 50 37 8 7 31 25 50 40 19 15 69 48 110 72 41
23 91 53 110 65 19 11 54 26 76 33 23 7 47 19 54 27 7 8 22 15 34 15 12 0 46
11 74 25 29 14 57 25 63 25 6 0 38 11 72 24 34 13 94 33 132 45 39 12 97 26
130 32 33 6 80 13 105 15 25 2 84 9 133 16 53 7 132 8 203 4 64 -4 155 -16
203 -27 47 -12 142 -39 211 -61 69 -22 157 -55 195 -73 39 -18 107 -60 153
-92 46 -33 134 -105 196 -160 62 -55 141 -136 175 -179 35 -43 66 -85 69 -93
3 -9 16 -30 29 -47 13 -17 23 -34 23 -38 0 -4 14 -27 30 -51 16 -24 30 -48 30
-53 0 -6 16 -34 36 -63 20 -30 58 -99 84 -154 26 -55 56 -120 67 -145 11 -25
30 -74 41 -110 12 -36 30 -114 41 -175 11 -60 27 -155 36 -210 9 -55 16 -152
16 -215 0 -63 -5 -164 -11 -225 -6 -60 -15 -140 -20 -177 -5 -36 -20 -95 -34
-130 -13 -34 -50 -124 -83 -198 -33 -74 -70 -162 -83 -195 -12 -33 -31 -80
-42 -105 -11 -25 -52 -101 -91 -170 -52 -90 -89 -143 -137 -190 -36 -36 -103
-97 -150 -135 -47 -39 -103 -84 -125 -100 -22 -17 -53 -40 -70 -52 -16 -12
-46 -30 -65 -39 -19 -10 -53 -29 -75 -43 -22 -13 -67 -36 -100 -51 -33 -14
-76 -34 -95 -45 -19 -11 -58 -27 -87 -36 -29 -9 -117 -29 -195 -44 -79 -14
-156 -31 -173 -36 -17 -5 -111 -7 -215 -4 -102 2 -230 9 -285 15 -55 5 -129
14 -165 19 -36 5 -87 14 -115 19 -27 5 -95 19 -151 31 -56 11 -128 32 -160 46
-32 14 -70 31 -84 37 -14 6 -41 19 -60 28 -19 10 -55 29 -80 42 -25 13 -67 37
-95 53 -27 16 -84 55 -125 87 -41 33 -118 105 -170 162 -67 72 -114 136 -161
217 -37 63 -80 143 -97 179 -16 36 -39 94 -50 130 -11 36 -23 96 -27 133 -5
51 -2 87 10 140 10 40 35 105 57 145 22 40 65 100 95 132 33 36 76 70 111 87
51 25 66 27 168 27 68 0 130 -6 156 -14 24 -8 66 -27 93 -43 28 -16 59 -37 70
-47 11 -10 38 -30 60 -44 25 -17 51 -48 71 -84 23 -45 44 -66 93 -98 34 -23
95 -69 134 -103 40 -33 97 -79 127 -101 30 -22 58 -40 63 -40 5 0 41 -13 80
-29 40 -16 101 -42 137 -59 36 -16 99 -37 140 -45 41 -9 123 -23 181 -32 58
-9 110 -15 115 -14 5 1 45 -1 88 -6 51 -5 116 -3 180 4 56 7 121 19 146 28 25
8 86 33 135 55 50 22 119 54 154 71 47 23 90 59 162 132 54 55 109 114 121
131 13 17 31 38 40 48 10 10 36 48 57 85 22 37 57 106 77 152 20 46 46 120 56
164 11 44 22 108 25 142 3 34 0 110 -7 170 -6 59 -20 149 -31 199 -11 50 -28
110 -39 132 -11 23 -20 47 -20 53 0 7 -6 20 -14 28 -8 9 -34 54 -58 101 -24
47 -57 105 -73 130 -16 25 -52 72 -79 105 -28 33 -64 72 -81 86 -16 15 -54 46
-84 70 -29 24 -76 58 -103 75 -27 18 -91 47 -141 67 -51 19 -130 46 -177 60
-47 15 -138 33 -203 42 -65 8 -164 15 -220 15 -56 0 -141 -7 -189 -15 -47 -9
-119 -24 -160 -34 -40 -10 -100 -26 -133 -36 -33 -9 -80 -23 -105 -30 -25 -8
-76 -24 -115 -36 -38 -12 -74 -25 -80 -29 -5 -4 -25 -10 -42 -13 -18 -4 -99
-39 -180 -78 -82 -40 -188 -96 -238 -125 -49 -28 -115 -68 -146 -88 -31 -19
-94 -69 -140 -110 -46 -40 -163 -154 -259 -252 -97 -99 -200 -208 -230 -243
-30 -36 -63 -73 -73 -84 -10 -10 -31 -36 -45 -57 -15 -20 -108 -139 -207 -262
-99 -124 -225 -287 -280 -363 -55 -76 -116 -160 -136 -187 -21 -27 -78 -96
-128 -153 -50 -56 -174 -180 -274 -274 -100 -94 -207 -188 -237 -208 -30 -20
-64 -45 -74 -55 -11 -10 -25 -18 -31 -18 -6 0 -22 -11 -34 -24 -13 -14 -38
-32 -55 -41 -17 -9 -63 -37 -103 -63 -39 -26 -105 -69 -145 -96 -40 -27 -86
-58 -101 -68 -15 -11 -99 -55 -185 -98 -86 -43 -177 -86 -202 -95 -25 -9 -84
-30 -133 -46 -48 -16 -97 -29 -110 -29 -13 0 -27 -4 -33 -9 -5 -6 -20 -12 -34
-15 -14 -3 -46 -10 -72 -15 -26 -6 -68 -17 -95 -25 -26 -8 -73 -21 -103 -30
-30 -8 -98 -20 -150 -25 -52 -6 -160 -13 -240 -15 -80 -3 -197 -1 -260 5 -63
5 -133 13 -155 19 -22 5 -92 21 -155 36 -63 14 -149 38 -190 51 -41 14 -104
38 -139 54 -35 16 -67 29 -72 29 -4 0 -25 11 -46 24 -21 14 -71 49 -111 78
-40 29 -112 85 -160 124 -48 39 -116 102 -152 140 -36 38 -82 89 -103 113 -20
24 -42 51 -47 61 -5 9 -26 37 -46 61 -20 24 -43 58 -51 74 -8 17 -20 40 -27
52 -7 13 -19 31 -28 40 -8 10 -26 43 -41 73 -14 30 -39 89 -56 130 -17 41 -33
89 -36 105 -4 17 -15 55 -25 85 -10 30 -25 102 -34 160 -8 58 -21 155 -28 217
-9 85 -9 150 -1 275 8 115 24 222 52 363 23 110 47 223 55 250 8 28 23 80 34
116 11 37 34 96 51 132 17 36 31 68 31 73 0 4 21 50 47 103 26 53 72 139 101
191 30 52 69 118 86 145 17 28 59 88 94 135 35 47 80 105 100 129 20 25 57 68
81 95 24 28 82 89 130 136 48 47 113 109 144 138 32 29 93 82 137 117 44 36
84 65 89 65 4 0 16 9 26 20 10 11 23 20 30 20 6 0 22 11 35 25 13 14 27 25 32
25 4 0 36 20 71 44 34 23 94 60 132 81 39 21 87 49 108 62 21 13 89 48 152 78
63 30 118 55 122 55 4 0 72 25 152 56 81 31 155 60 166 64 11 5 47 14 80 21
33 6 80 17 105 25 25 7 90 22 145 33 55 11 134 29 175 40 41 11 116 24 165 27
50 4 92 9 95 11 3 3 95 3 205 0z"/>
<g>
<path d="M5299 4410 c-2 0 -15 -6 -29 -13 -17 -9 -26 -22 -28 -44 -3 -25 2
-35 22 -49 24 -15 28 -15 51 0 17 11 25 26 25 45 0 15 -8 35 -18 44 -10 10
-20 17 -23 17z"/>
</g>
<g>
<path d="M4619 4350 c-8 0 -26 -8 -41 -18 -16 -9 -28 -24 -28 -33 0 -9 8 -23
18 -32 10 -10 26 -17 36 -17 9 0 28 7 41 16 14 9 25 24 25 34 0 9 -8 24 -18
33 -10 10 -25 17 -33 17z"/>
</g>
<g>
<path d="M5079 4206 c-21 3 -41 0 -52 -8 -11 -8 -16 -20 -12 -30 4 -10 22 -26
41 -37 27 -16 34 -27 34 -51 0 -19 -6 -33 -17 -37 -9 -3 -34 -1 -57 5 -34 9
-44 8 -59 -6 -10 -9 -17 -25 -15 -36 2 -11 14 -26 28 -34 15 -7 46 -11 76 -9
36 2 61 11 82 28 20 16 34 39 42 71 9 38 9 51 -3 75 -8 15 -24 36 -35 46 -11
10 -35 20 -53 23z"/>
</g>
<g>
<path d="M5159 3894 c-19 4 -37 4 -40 2 -2 -2 -83 -7 -179 -10 -96 -4 -187
-12 -202 -18 -19 -7 -28 -18 -28 -33 0 -12 7 -28 15 -35 11 -9 61 -9 232 0
154 8 225 16 241 26 12 8 22 23 22 35 0 11 -6 21 -12 24 -7 2 -29 6 -49 9z"/>
</g>
<g>
<path d="M6311 2449 c-9 0 -23 -8 -32 -17 -9 -9 -19 -22 -22 -29 -4 -6 -3 -23
3 -37 7 -19 17 -26 35 -26 15 0 35 5 47 11 16 9 19 17 14 41 -3 17 -11 37 -17
45 -6 7 -19 13 -28 12z"/>
</g>
<g>
<path d="M6117 2422 c-13 3 -40 -2 -58 -11 -19 -9 -42 -32 -53 -52 -14 -26
-17 -45 -12 -73 4 -20 16 -46 27 -57 10 -10 23 -19 27 -19 5 0 16 6 25 13 14
10 15 18 5 55 -9 36 -8 46 4 59 14 13 18 11 38 -17 12 -17 34 -36 47 -41 17
-6 30 -6 39 2 8 6 14 17 14 24 0 7 -18 36 -39 63 -23 28 -50 51 -64 54z"/>
</g>
<g>
<path d="M5935 2298 c-11 1 -28 -8 -37 -20 -12 -15 -18 -41 -19 -78 0 -30 -3
-64 -5 -75 -3 -11 -5 -36 -6 -56 0 -20 2 -42 6 -48 4 -6 18 -11 30 -11 13 0
29 6 35 14 7 8 12 64 14 142 2 122 1 129 -18 132z"/>
</g>
<g>
<path d="M6342 2070 c-15 0 -33 -5 -40 -12 -7 -7 -12 -24 -12 -38 0 -14 5 -31
12 -38 7 -7 22 -12 35 -12 13 0 29 11 39 25 14 21 15 31 6 50 -8 18 -20 25
-40 25z"/>
</g>
</g>
</g>
</svg>
