<?xml version="1.0" standalone="no"?>
<!DOCTYPE svg PUBLIC "-//W3C//DTD SVG 20010904//EN"
 "http://www.w3.org/TR/2001/REC-SVG-20010904/DTD/svg10.dtd">
<svg version="1.0" xmlns="http://www.w3.org/2000/svg"
 width="1286.000000pt" height="551.000000pt" viewBox="0 0 1286.000000 551.000000"
 preserveAspectRatio="xMidYMid meet">
<metadata>
Created by potrace 1.16, written by Peter Selinger 2001-2019
</metadata>
<g transform="translate(0.000000,551.000000) scale(0.100000,-0.100000)"
fill="#000000" stroke="none">
<g>
<path d="M9225 5018 c-75 -1 -152 -8 -205 -20 -47 -10 -103 -21 -125 -23 -22
-3 -107 -11 -190 -19 -82 -8 -193 -18 -245 -21 -52 -4 -122 -13 -155 -21 -40
-9 -123 -14 -253 -14 -114 0 -201 -4 -213 -10 -10 -6 -19 -20 -19 -31 0 -11 5
-30 12 -42 9 -17 13 -320 15 -1247 1 -674 4 -1340 7 -1480 2 -140 7 -421 11
-625 4 -203 10 -404 14 -445 l6 -75 34 -3 c19 -2 53 1 75 7 23 5 145 13 271
16 127 3 255 8 285 10 30 3 87 7 125 10 39 3 129 8 200 11 72 3 157 9 190 15
33 5 112 13 175 19 63 5 162 14 220 20 58 6 121 12 140 15 19 3 52 8 72 11 20
3 42 12 49 20 8 10 10 65 5 206 -4 106 -9 220 -11 253 -3 33 -7 92 -10 130 -3
39 -8 88 -10 110 -3 22 -11 106 -20 187 -8 81 -15 177 -15 212 0 36 -7 118
-15 183 -8 65 -21 159 -30 208 -8 50 -22 153 -30 230 -8 77 -26 226 -39 330
-13 105 -27 249 -31 320 -3 72 -13 173 -21 225 -9 52 -18 163 -20 245 -3 83
-10 165 -15 182 -6 18 -8 42 -4 53 3 10 -1 95 -10 187 -8 92 -20 222 -25 288
-5 66 -14 169 -20 229 -9 92 -14 111 -33 127 -19 16 -38 19 -142 17z m-30 -70
c17 0 50 -3 75 -6 30 -5 45 -12 46 -22 0 -8 4 -35 7 -60 4 -25 9 -70 12 -100
2 -30 9 -98 14 -150 6 -52 13 -113 16 -135 3 -22 7 -64 9 -93 3 -30 7 -70 10
-90 3 -21 8 -89 11 -152 3 -63 7 -171 10 -240 3 -69 9 -150 15 -180 5 -30 12
-73 14 -95 3 -22 10 -103 16 -180 6 -77 17 -198 26 -270 8 -71 18 -155 23
-185 5 -30 13 -100 16 -155 4 -55 9 -109 11 -120 3 -11 14 -76 25 -145 11 -69
24 -172 29 -230 6 -58 17 -193 26 -300 8 -107 20 -231 25 -275 5 -44 11 -127
13 -185 3 -58 9 -123 14 -145 4 -22 8 -94 8 -160 -1 -72 -5 -120 -11 -120 -5
-1 -35 -4 -65 -8 -30 -3 -118 -13 -195 -21 -77 -8 -189 -20 -250 -25 -60 -6
-168 -13 -240 -17 -71 -3 -132 -7 -136 -9 -3 -2 -68 -7 -145 -10 -76 -3 -168
-8 -204 -10 -36 -3 -119 -9 -185 -15 -66 -5 -161 -10 -212 -10 l-92 0 0 137
c-1 75 -6 274 -12 442 -7 185 -10 779 -9 1506 1 660 3 1265 3 1345 1 80 -2
190 -6 246 l-9 100 40 13 c22 8 51 12 65 9 14 -3 76 -1 138 3 63 5 143 11 179
14 36 3 72 8 80 10 8 3 125 14 260 24 135 11 272 27 305 36 33 9 91 20 130 24
38 5 84 9 100 9z"/>
<g>
<path d="M9304 3304 c-22 1 -54 0 -72 -2 -19 -2 -58 -19 -89 -38 -41 -27 -59
-46 -74 -81 -11 -26 -19 -68 -19 -100 0 -45 5 -63 26 -90 14 -18 47 -44 74
-58 33 -17 66 -25 107 -26 32 -1 69 3 83 9 14 5 41 26 61 46 32 32 38 45 43
99 5 43 2 77 -8 112 -10 33 -29 64 -54 88 -30 30 -48 39 -78 41z m-27 -75 c36
1 45 -3 65 -31 13 -18 29 -49 36 -69 7 -19 12 -47 12 -61 0 -16 -12 -38 -30
-56 -16 -17 -42 -33 -57 -35 -16 -3 -43 -4 -60 -3 -18 1 -38 7 -45 14 -7 7
-17 12 -23 12 -6 0 -21 10 -32 23 -12 12 -25 39 -28 60 -7 36 -5 42 36 84 24
25 53 49 64 53 11 5 39 9 62 9z"/>
</g>
</g>
<g>
<path d="M4785 4858 c-93 1 -174 0 -180 -3 -5 -2 -46 -11 -90 -20 -44 -10
-118 -29 -165 -42 -47 -14 -130 -42 -185 -63 -55 -21 -158 -66 -230 -100 -71
-35 -164 -85 -205 -113 -41 -27 -102 -72 -135 -100 -33 -27 -111 -97 -174
-155 -65 -61 -139 -143 -174 -192 -34 -47 -91 -143 -128 -215 -37 -71 -78
-159 -92 -195 -14 -36 -30 -81 -36 -100 -6 -19 -19 -64 -30 -100 -10 -36 -25
-99 -32 -140 -7 -41 -13 -84 -15 -95 -1 -11 -3 -67 -4 -125 -2 -58 1 -161 4
-230 4 -69 19 -201 32 -295 13 -93 34 -204 45 -245 11 -41 32 -109 46 -150 14
-41 41 -109 60 -150 19 -41 41 -88 50 -105 9 -16 36 -59 59 -95 24 -36 69 -92
102 -125 32 -33 72 -72 88 -86 16 -14 58 -50 94 -79 36 -29 90 -77 121 -107
30 -29 89 -76 130 -104 41 -28 108 -67 149 -86 41 -19 89 -40 105 -47 17 -7
41 -18 55 -23 14 -6 52 -23 85 -38 33 -16 87 -36 120 -47 33 -10 72 -18 87
-18 14 0 39 -11 55 -24 23 -19 44 -25 103 -30 41 -3 127 -6 190 -7 80 -1 130
3 165 14 28 9 92 27 144 42 52 14 131 42 175 61 45 20 133 67 196 105 63 38
124 75 135 82 10 6 42 29 70 49 27 21 68 53 90 72 22 18 60 51 85 72 25 22 74
63 110 93 36 30 95 85 132 124 38 38 89 104 114 146 25 42 69 123 96 181 28
58 62 137 75 175 14 39 33 102 44 140 10 39 28 111 39 160 11 50 23 106 26
125 3 19 9 51 13 71 5 20 10 79 12 130 2 52 3 144 2 204 0 61 -4 153 -8 205
-3 52 -13 142 -21 200 -8 58 -19 116 -23 130 -5 14 -14 43 -19 65 -6 22 -23
78 -37 124 -14 45 -44 117 -66 160 -22 42 -68 115 -102 163 -34 48 -87 118
-118 155 -31 37 -74 83 -95 102 -22 19 -82 75 -134 125 -53 50 -106 99 -118
109 -12 9 -24 17 -27 17 -2 0 -24 14 -49 30 -24 17 -80 48 -124 70 -44 22 -85
40 -91 40 -6 0 -30 9 -54 20 -23 11 -78 29 -122 41 -44 12 -118 27 -165 33
-46 7 -161 13 -255 14z m20 -82 c125 -2 235 -10 292 -20 51 -9 107 -22 125
-30 18 -8 60 -24 93 -36 33 -12 83 -32 110 -46 28 -13 64 -33 80 -44 17 -11
44 -27 60 -36 17 -9 45 -29 64 -43 19 -14 96 -87 171 -161 76 -74 162 -166
192 -205 30 -38 75 -100 100 -137 25 -37 64 -104 86 -150 23 -46 47 -99 55
-118 8 -19 22 -60 30 -90 8 -30 20 -80 26 -110 6 -30 12 -66 15 -80 2 -14 7
-45 11 -69 4 -24 12 -105 19 -180 7 -84 9 -216 4 -346 -5 -172 -11 -231 -32
-325 -14 -63 -36 -151 -50 -195 -13 -44 -32 -102 -41 -130 -10 -27 -46 -108
-82 -180 -36 -71 -84 -154 -106 -184 -23 -30 -72 -86 -108 -125 -37 -39 -86
-84 -109 -101 -23 -16 -78 -61 -123 -99 -45 -39 -88 -75 -94 -82 -7 -7 -74
-54 -150 -105 -84 -57 -186 -115 -262 -149 -69 -32 -148 -63 -176 -69 -27 -6
-97 -15 -155 -20 -58 -5 -147 -9 -197 -10 -51 -1 -121 3 -155 9 -35 6 -90 16
-123 21 -33 6 -76 16 -95 22 -19 6 -39 12 -45 13 -5 1 -40 16 -77 33 -36 17
-69 31 -72 31 -3 0 -52 23 -110 50 -58 28 -107 50 -110 50 -3 0 -31 18 -62 39
-32 22 -113 88 -182 148 -68 59 -162 141 -208 181 -46 40 -103 99 -127 130
-24 31 -65 94 -91 139 -26 45 -55 104 -65 130 -10 26 -35 92 -55 146 -20 54
-46 144 -57 200 -10 56 -24 140 -30 187 -5 47 -13 146 -17 220 -4 74 -7 192
-6 261 0 70 6 153 13 185 7 33 21 84 32 115 10 31 19 65 19 75 0 11 7 29 15
41 8 12 16 29 18 40 2 10 11 43 21 73 10 30 36 91 57 135 22 44 51 100 64 124
14 24 56 85 94 135 38 50 117 136 177 191 59 55 148 130 198 167 50 37 100 75
110 83 11 8 47 28 80 44 34 16 104 49 156 74 52 24 129 57 170 72 41 15 91 33
110 40 19 8 76 23 125 34 50 11 110 25 135 30 25 6 135 8 245 7z"/>
<g>
<path d="M6046 3320 c-11 0 -28 -4 -36 -9 -8 -5 -42 -14 -75 -21 -33 -7 -67
-16 -76 -21 -9 -4 -31 -11 -50 -14 -19 -3 -54 -10 -78 -16 -24 -5 -51 -7 -61
-4 -9 3 -29 -4 -43 -16 -15 -11 -27 -29 -27 -39 0 -11 9 -24 19 -29 15 -8 20
-27 26 -83 4 -40 11 -95 17 -123 5 -27 13 -90 17 -138 5 -48 13 -93 18 -98 7
-7 38 -3 94 12 46 12 113 25 149 29 36 4 78 12 93 18 16 7 41 12 56 12 15 0
34 6 43 13 14 10 15 21 7 67 -5 30 -11 74 -14 98 -2 24 -9 94 -15 155 -6 62
-13 128 -17 147 -3 19 -10 41 -16 48 -5 6 -19 12 -31 12z m-37 -83 c8 -1 16
-11 18 -22 2 -11 8 -67 13 -125 5 -58 14 -132 20 -165 5 -32 6 -62 2 -65 -4
-4 -31 -12 -60 -18 -30 -7 -66 -12 -82 -12 -15 0 -46 -6 -68 -14 -22 -8 -55
-16 -74 -18 l-33 -3 -13 85 c-7 47 -17 119 -23 160 -5 41 -8 86 -7 100 2 20
10 26 38 31 19 4 67 15 105 24 39 10 88 24 110 31 22 7 46 12 54 11z"/>
</g>
</g>
<g>
<path d="M11640 4721 c-63 3 -162 1 -218 -2 -57 -4 -134 -13 -170 -20 -37 -7
-110 -14 -162 -15 -73 -2 -101 -7 -122 -21 -16 -10 -28 -26 -28 -35 0 -9 5
-20 11 -24 9 -5 10 -64 5 -214 -4 -115 -11 -233 -16 -263 -5 -30 -12 -108 -16
-173 -4 -66 -7 -130 -7 -143 1 -13 7 -29 15 -36 7 -8 38 -20 68 -28 30 -7 113
-15 185 -16 71 -1 131 -4 133 -6 2 -2 3 -73 3 -160 0 -86 -3 -160 -6 -166 -4
-5 -22 -9 -41 -9 -20 0 -45 -5 -57 -12 -12 -7 -38 -18 -57 -25 -19 -7 -44 -13
-56 -13 -11 0 -31 -11 -44 -25 -13 -14 -30 -25 -37 -25 -7 0 -52 -37 -99 -82
-47 -45 -101 -105 -121 -132 -20 -28 -55 -69 -77 -92 -23 -22 -55 -61 -72 -85
-16 -24 -44 -73 -61 -109 -17 -36 -40 -86 -51 -111 -11 -26 -23 -65 -27 -88
-4 -23 -14 -55 -22 -72 -8 -17 -18 -68 -20 -113 -5 -67 -3 -84 11 -95 14 -11
19 -10 36 10 10 13 20 26 20 29 1 3 2 34 3 70 2 36 11 94 21 130 10 36 29 92
43 125 14 33 29 67 34 75 4 8 17 34 28 56 10 23 24 45 30 48 6 4 9 11 6 16 -3
4 5 10 16 13 20 5 21 3 14 -51 -4 -31 -7 -86 -6 -122 1 -36 6 -95 10 -131 5
-36 18 -84 30 -107 11 -23 21 -48 21 -56 0 -8 15 -46 34 -83 19 -37 49 -85 68
-106 18 -20 65 -59 103 -85 l70 -48 8 -70 c4 -38 19 -157 33 -264 13 -107 29
-220 33 -250 5 -30 10 -125 12 -210 1 -85 2 -198 0 -250 -1 -52 -4 -102 -7
-111 -2 -9 -16 -21 -30 -28 -14 -6 -53 -15 -87 -20 -34 -5 -82 -17 -107 -26
-25 -9 -57 -19 -73 -22 -15 -3 -30 -10 -33 -15 -3 -5 -3 -20 0 -32 3 -13 13
-27 22 -30 8 -3 24 -1 35 4 10 6 56 21 102 35 46 13 107 27 136 31 33 4 63 16
79 29 l26 22 0 194 c1 107 -3 262 -8 344 -4 83 -9 152 -11 155 -2 3 -6 34 -10
70 -4 36 -11 84 -16 107 -5 23 -12 73 -15 110 -3 37 -9 94 -13 125 -4 32 -5
60 -3 63 3 3 16 5 29 5 13 0 36 -6 51 -14 15 -7 68 -21 117 -30 50 -9 115 -17
145 -19 l55 -2 7 -49 c4 -27 8 -294 10 -593 2 -299 1 -547 -2 -551 -3 -4 -23
-21 -45 -38 -22 -17 -75 -50 -117 -73 -43 -23 -80 -47 -84 -52 -3 -6 -3 -21 0
-35 4 -13 13 -24 20 -24 8 0 39 13 70 29 31 17 80 46 109 66 28 19 61 43 72
53 11 10 27 31 35 47 14 26 15 87 9 505 -4 261 -10 528 -13 592 -5 108 -4 119
14 136 11 10 50 29 87 42 38 13 81 29 96 37 15 8 40 24 54 36 15 12 41 35 59
50 18 15 42 47 53 70 11 23 33 83 49 132 16 50 35 134 42 187 7 53 9 113 6
132 -4 20 -3 36 2 36 4 0 22 -15 39 -32 17 -18 51 -76 75 -128 25 -52 48 -108
53 -125 5 -16 7 -34 7 -38 -1 -4 2 -16 8 -27 5 -10 13 -65 16 -122 3 -65 11
-111 20 -125 8 -13 19 -23 23 -23 5 0 15 17 22 37 6 21 11 59 10 84 -1 26 -6
69 -11 96 -6 26 -12 69 -15 96 -3 31 -26 91 -69 176 -35 71 -77 144 -95 163
-17 18 -31 36 -31 40 0 4 -22 30 -50 58 -27 28 -50 53 -50 57 0 3 -17 45 -37
92 -20 47 -53 111 -72 142 -20 31 -63 79 -96 106 -33 27 -83 63 -111 80 -32
19 -77 36 -120 43 -38 7 -96 14 -130 17 l-61 5 -1 82 c-1 44 -4 104 -8 131 -3
28 -1 62 5 78 l11 27 97 -1 c54 -1 142 -4 196 -8 54 -3 107 -3 118 1 17 7 19
14 14 55 -2 27 -12 114 -20 195 -8 82 -19 219 -23 305 -5 87 -8 185 -6 218 1
33 5 89 8 125 4 53 2 69 -12 86 -16 19 -31 22 -132 25z m-67 -76 c70 -1 130
-4 133 -7 3 -3 7 -102 10 -219 2 -118 9 -261 14 -319 6 -58 15 -145 19 -195 5
-49 7 -94 4 -99 -4 -5 -140 -6 -327 -2 -177 4 -347 12 -379 18 -32 6 -59 13
-61 17 -2 3 3 74 11 156 8 83 17 247 20 365 2 118 8 218 11 221 4 4 41 14 82
22 41 9 116 21 165 27 50 5 108 12 130 14 22 2 97 2 168 1z m-133 -1333 c58
-3 107 -9 108 -13 2 -5 16 -9 31 -9 15 0 51 -13 80 -28 29 -16 81 -54 116 -85
34 -31 76 -81 92 -109 16 -29 32 -61 36 -71 6 -16 4 -16 -31 -1 -20 9 -58 22
-85 27 -34 8 -50 8 -58 0 -7 -7 -9 -23 -5 -37 3 -14 13 -26 22 -26 8 0 50 -17
91 -37 42 -21 91 -52 109 -69 25 -25 33 -44 38 -86 3 -29 9 -76 12 -105 3 -30
-1 -84 -11 -130 -9 -43 -22 -103 -30 -133 -8 -30 -23 -71 -33 -91 -10 -20 -27
-47 -38 -61 -10 -13 -41 -40 -68 -61 -27 -20 -57 -37 -67 -37 -10 0 -20 -4
-23 -9 -4 -5 -43 -21 -89 -34 -45 -14 -110 -28 -143 -32 -34 -3 -93 -1 -130 5
-38 5 -91 20 -119 32 -27 13 -52 26 -55 29 -3 3 -17 9 -32 12 -15 4 -33 14
-42 22 -8 8 -25 15 -38 15 -13 0 -34 9 -48 20 -14 11 -30 20 -37 20 -6 0 -22
13 -35 29 -12 16 -31 40 -41 53 -10 12 -31 46 -47 73 -15 28 -30 64 -32 80 -1
17 -6 32 -10 35 -4 3 -14 39 -23 79 -8 40 -15 100 -14 134 0 34 8 106 17 159
10 53 21 100 25 104 4 4 7 15 7 25 0 10 43 64 96 119 53 55 101 100 106 100 5
0 30 9 56 21 26 11 66 29 88 41 23 11 66 23 95 27 30 4 101 6 159 3z"/>
<g>
<path d="M11140 4467 c-8 1 -30 -4 -47 -12 -18 -8 -33 -18 -33 -24 0 -5 4 -21
10 -35 7 -20 17 -26 39 -26 15 0 34 6 40 14 7 8 11 30 9 48 -2 20 -9 34 -18
35z"/>
</g>
<g>
<path d="M11562 4470 c-16 0 -35 -6 -41 -14 -7 -8 -11 -27 -9 -43 3 -25 7 -28
38 -28 28 0 36 5 44 26 5 15 6 34 3 43 -4 10 -18 16 -35 16z"/>
</g>
<g>
<path d="M11316 4360 c-14 0 -27 -4 -31 -9 -3 -5 -10 -29 -15 -53 -5 -24 -18
-74 -29 -113 -12 -38 -21 -82 -21 -97 0 -15 5 -30 12 -34 6 -4 32 -6 57 -5 25
1 55 4 66 6 11 2 23 4 27 4 4 1 10 10 13 21 4 12 1 27 -5 35 -9 11 -23 13 -51
9 -36 -6 -39 -5 -39 17 0 13 12 61 26 106 15 44 24 88 21 97 -4 9 -17 16 -31
16z"/>
</g>
<g>
<path d="M11264 3955 c-99 7 -102 7 -114 -15 -11 -20 -9 -25 9 -40 14 -10 38
-15 64 -14 23 2 69 -1 102 -6 33 -5 80 -11 105 -14 24 -2 55 0 68 5 18 7 23
15 20 37 -3 26 -6 27 -78 34 -41 3 -121 10 -176 13z"/>
</g>
</g>
<g>
<path d="M1095 4369 c-5 0 -19 -4 -30 -9 -11 -5 -37 -9 -59 -9 -26 -1 -64 -15
-115 -43 -42 -23 -98 -62 -125 -87 -26 -25 -61 -71 -76 -101 -16 -31 -38 -89
-50 -129 -14 -46 -21 -87 -17 -111 3 -21 12 -53 21 -71 9 -18 16 -43 16 -56 0
-12 3 -23 8 -23 4 0 16 -17 27 -37 11 -21 35 -55 54 -75 18 -21 39 -38 46 -38
6 0 20 -9 31 -21 10 -11 33 -27 50 -34 18 -7 65 -18 105 -24 40 -7 76 -14 79
-17 3 -3 5 -47 5 -97 l-1 -91 -59 -13 c-33 -7 -73 -16 -90 -20 -16 -3 -46 -5
-67 -5 -21 1 -41 -5 -48 -13 -7 -8 -10 -29 -7 -47 2 -18 1 -42 -3 -53 -4 -11
-11 -90 -15 -175 -4 -85 -7 -159 -7 -165 0 -5 3 -116 7 -245 6 -186 10 -238
22 -250 13 -13 16 -13 30 5 13 17 14 45 7 195 -4 96 -8 204 -8 240 1 36 2 91
3 122 1 32 7 60 12 63 5 4 9 -27 9 -72 0 -43 8 -161 19 -263 11 -102 22 -225
25 -275 3 -49 8 -175 12 -280 3 -104 5 -302 3 -440 -1 -137 -2 -344 -1 -460 1
-115 2 -249 2 -296 -1 -77 1 -88 24 -112 16 -18 35 -27 55 -27 16 0 60 -6 98
-14 37 -8 75 -18 84 -21 13 -5 18 1 21 25 3 17 0 34 -6 39 -6 5 -33 13 -61 19
-27 6 -72 15 -100 19 l-50 8 -2 315 c-1 173 -4 516 -6 762 -5 410 -4 448 11
452 10 3 37 8 62 11 24 4 47 8 50 10 3 2 26 6 50 9 25 4 63 10 85 15 22 5 77
17 123 27 45 9 84 15 86 13 3 -2 5 -40 6 -84 2 -44 6 -120 11 -170 5 -49 11
-117 14 -150 2 -33 9 -168 15 -300 5 -132 12 -355 16 -495 5 -191 10 -262 20
-283 11 -21 22 -27 47 -27 18 0 37 -4 43 -8 5 -5 40 -14 77 -21 37 -8 70 -11
72 -9 2 2 2 21 -2 41 -4 29 -10 37 -27 38 -11 1 -25 2 -31 3 -5 1 -28 6 -50
10 -22 5 -50 14 -62 22 -21 13 -22 20 -22 152 0 75 -3 234 -6 352 -3 118 -8
244 -11 280 -3 36 -9 126 -14 200 -5 74 -11 160 -14 190 -2 30 -7 111 -11 180
-3 69 -11 175 -16 235 -5 61 -13 175 -19 255 -6 80 -12 153 -14 162 -2 10 0
20 4 23 4 3 13 -9 19 -27 6 -17 16 -61 22 -97 5 -36 17 -73 25 -82 8 -9 22
-49 31 -90 9 -41 18 -87 19 -104 2 -16 11 -70 20 -120 9 -49 21 -96 26 -102 6
-7 19 -13 28 -13 12 0 20 10 24 27 3 16 -5 72 -19 128 -14 55 -25 107 -25 116
0 9 -7 41 -16 70 -9 30 -27 92 -41 139 -13 47 -33 114 -44 150 -10 36 -26 92
-34 125 -8 33 -22 92 -31 130 -9 39 -23 85 -32 103 -14 29 -19 32 -46 26 -17
-3 -35 -10 -41 -14 -5 -4 -37 -15 -70 -23 -33 -8 -79 -18 -101 -22 -40 -6 -41
-6 -48 26 -3 17 -6 56 -6 85 0 41 5 59 20 74 11 11 31 20 45 20 14 0 40 6 58
14 18 7 71 38 118 69 46 30 101 71 122 90 20 20 49 60 63 90 17 39 25 74 26
119 0 37 -9 98 -22 148 -13 47 -29 96 -35 110 -7 14 -22 36 -34 48 -11 13 -21
27 -23 31 -2 4 -25 24 -53 45 -27 21 -65 44 -84 52 -19 8 -76 19 -125 24 -50
5 -95 9 -101 9z m-4 -80 c36 1 92 -4 124 -10 32 -6 81 -21 109 -34 28 -13 65
-38 82 -57 16 -18 37 -44 47 -58 16 -23 16 -25 -4 -46 -12 -13 -19 -32 -17
-46 2 -18 10 -24 34 -26 29 -3 32 -7 42 -55 5 -29 7 -68 4 -87 -3 -19 -18 -55
-33 -80 -16 -26 -39 -51 -51 -58 -13 -6 -52 -13 -87 -17 -35 -3 -73 -11 -85
-17 -12 -6 -22 -11 -23 -10 -2 1 -7 2 -12 2 -5 0 -11 -7 -15 -15 -3 -8 -3 -22
1 -31 5 -13 15 -15 49 -9 24 3 44 3 44 0 0 -3 -24 -16 -52 -29 -29 -13 -80
-28 -113 -35 -46 -10 -81 -10 -149 -1 -49 6 -99 16 -110 22 -12 6 -43 30 -69
52 -31 27 -59 64 -80 106 -29 59 -32 74 -32 160 0 76 4 102 20 130 10 19 18
38 17 41 -1 4 29 38 66 76 37 38 89 79 116 92 28 14 64 28 80 32 17 4 61 7 97
8z m290 -1081 c3 -47 8 -89 12 -94 3 -6 9 -84 12 -175 4 -90 11 -200 16 -244
5 -44 9 -107 9 -141 0 -41 -5 -65 -14 -74 -8 -6 -48 -16 -88 -21 -40 -5 -111
-19 -158 -30 -47 -12 -94 -22 -105 -23 -11 -2 -37 -8 -58 -15 -22 -8 -43 -9
-47 -5 -5 5 -11 32 -14 59 -3 28 -12 124 -20 215 -8 91 -20 221 -27 290 -7 69
-14 149 -17 179 -3 37 0 56 9 62 7 4 40 11 73 15 34 4 64 8 68 8 3 1 10 4 14
9 4 4 16 7 27 7 12 0 34 4 51 9 17 5 63 16 101 24 39 8 86 16 104 16 19 1 37
4 40 7 4 3 9 -32 12 -78z"/>
<g>
<path d="M1084 4000 c-12 0 -27 -6 -33 -14 -6 -7 -10 -24 -8 -37 3 -15 14 -27
29 -33 14 -5 33 -6 42 -3 9 4 16 18 16 35 0 15 -5 33 -12 40 -7 7 -22 12 -34
12z"/>
</g>
<g>
<path d="M1366 3963 c-7 3 -19 0 -25 -6 -6 -6 -11 -19 -11 -29 0 -9 12 -34 26
-55 l25 -38 -25 -20 c-14 -12 -26 -31 -26 -43 0 -13 6 -22 15 -22 8 0 33 6 55
12 33 11 41 18 46 43 4 25 -2 43 -30 85 -20 30 -36 58 -36 61 0 4 -6 9 -14 12z"/>
</g>
</g>
</g>
</svg>
