<?xml version="1.0" standalone="no"?>
<!DOCTYPE svg PUBLIC "-//W3C//DTD SVG 20010904//EN"
 "http://www.w3.org/TR/2001/REC-SVG-20010904/DTD/svg10.dtd">
<svg version="1.0" xmlns="http://www.w3.org/2000/svg"
 width="1125.000000pt" height="1167.000000pt" viewBox="0 0 1125.000000 1167.000000"
 preserveAspectRatio="xMidYMid meet">
<metadata>
Created by potrace 1.16, written by Peter Selinger 2001-2019
</metadata>
<g transform="translate(0.000000,1167.000000) scale(0.100000,-0.100000)"
fill="#000000" stroke="none">
<g>
<path d="M6192 11450 c-15 0 -34 -9 -43 -20 -8 -11 -21 -48 -28 -83 l-13 -64
-89 5 c-74 4 -90 2 -95 -11 -3 -8 0 -26 6 -38 7 -12 31 -41 54 -63 23 -23 50
-51 60 -63 18 -21 17 -24 -4 -88 -15 -46 -19 -70 -12 -77 6 -6 8 -17 5 -24 -3
-10 3 -14 19 -14 14 0 44 14 66 30 23 17 46 30 51 30 5 0 14 -20 20 -44 6 -25
11 -76 11 -114 0 -53 -4 -73 -17 -85 -10 -8 -47 -32 -81 -51 -35 -20 -67 -34
-72 -31 -4 3 -11 20 -14 39 -4 19 -12 36 -19 39 -6 2 -22 1 -34 -4 -13 -5 -23
-13 -23 -19 0 -5 -12 -23 -26 -40 -26 -28 -30 -29 -128 -32 l-101 -3 -3 -28
c-3 -25 2 -30 52 -53 31 -14 58 -29 61 -34 3 -4 -6 -31 -20 -58 -14 -27 -25
-61 -25 -73 0 -14 11 -32 25 -42 24 -17 25 -17 42 10 9 16 30 41 46 56 16 16
40 35 52 43 20 13 27 12 80 -16 31 -16 59 -30 62 -30 2 0 2 4 -2 9 -3 5 -1 12
5 16 5 3 10 -1 10 -10 0 -9 6 -15 13 -13 6 3 13 17 15 32 2 16 -1 33 -7 39 -6
6 -11 19 -11 29 0 17 6 18 53 12 28 -4 56 -10 60 -14 5 -4 13 -37 20 -73 l11
-66 -39 -58 c-22 -32 -44 -63 -50 -70 -5 -7 -15 -19 -22 -27 -7 -8 -27 -38
-46 -68 -19 -29 -50 -72 -68 -94 -19 -23 -54 -67 -79 -99 -24 -31 -45 -62 -46
-69 -1 -7 -13 -25 -27 -40 -14 -15 -32 -42 -41 -60 -8 -17 -24 -40 -36 -51
-11 -10 -20 -24 -20 -32 0 -8 -14 -34 -30 -59 -17 -24 -38 -44 -47 -44 -8 0
-44 20 -78 45 -35 25 -65 48 -67 53 -1 5 -29 27 -60 50 -31 23 -87 72 -125
109 -37 38 -85 87 -106 110 -21 23 -50 48 -65 55 -14 7 -52 44 -84 82 -32 39
-56 76 -54 83 3 7 2 13 -2 13 -5 0 -16 16 -25 35 -9 20 -17 44 -17 54 0 10 9
30 20 43 11 14 36 58 56 97 20 39 40 71 44 71 4 0 13 -14 19 -31 6 -18 11 -40
11 -49 0 -9 8 -24 18 -33 10 -10 28 -17 39 -17 11 0 27 8 36 18 10 10 17 23
17 28 0 5 13 41 29 79 29 68 31 70 80 85 27 9 53 19 57 23 4 4 16 7 26 7 13 0
18 8 18 29 0 20 -8 35 -22 45 -12 9 -34 16 -49 16 -17 0 -28 6 -31 18 -3 9 -1
26 3 37 4 11 8 38 8 61 l1 40 -42 -1 c-37 -1 -46 -6 -66 -36 -13 -18 -35 -46
-48 -60 l-25 -27 -50 19 c-28 11 -54 17 -60 14 -5 -4 -9 -12 -9 -20 0 -8 -7
-11 -21 -8 -18 5 -19 2 -13 -23 4 -16 11 -37 16 -47 6 -12 5 -23 -3 -33 -6 -8
-23 -14 -38 -14 -14 0 -44 -6 -66 -14 -22 -7 -56 -16 -76 -20 -36 -6 -37 -6
-63 48 -15 30 -33 78 -42 107 -9 30 -22 64 -31 77 -8 13 -21 44 -28 70 -10 33
-11 49 -3 59 6 7 17 13 24 13 8 0 14 5 14 10 0 6 6 10 13 10 8 0 23 10 35 23
12 13 22 29 22 36 0 7 -6 18 -13 25 -7 7 -39 21 -72 31 -33 10 -64 22 -70 27
-5 4 -8 37 -7 73 2 36 -2 74 -8 85 -6 11 -19 20 -30 20 -10 0 -28 -12 -39 -26
-14 -17 -21 -42 -21 -68 0 -22 -5 -48 -10 -56 -9 -13 -12 -13 -23 0 -6 8 -21
17 -32 18 -11 2 -31 9 -45 16 -14 7 -32 11 -41 9 -11 -3 -15 -14 -15 -39 1
-29 11 -45 54 -85 29 -27 52 -53 52 -58 0 -6 -11 -31 -25 -57 -14 -26 -25 -53
-25 -60 0 -8 4 -14 9 -14 5 0 7 -9 4 -20 -4 -15 0 -20 13 -20 11 1 30 7 44 15
14 8 32 14 41 15 13 0 17 -14 19 -77 2 -43 3 -116 4 -163 l1 -85 -30 0 c-16 0
-35 3 -40 6 -6 4 -58 3 -118 -1 -59 -5 -112 -12 -117 -15 -6 -3 -15 6 -21 22
-6 16 -8 51 -4 81 3 29 9 60 11 67 3 8 -4 28 -16 45 l-22 32 -34 -33 c-19 -18
-34 -37 -34 -41 0 -5 -6 -16 -12 -24 -7 -8 -23 -26 -35 -38 -21 -23 -23 -24
-65 -9 -24 8 -47 18 -53 22 -5 5 -23 11 -38 15 -17 4 -35 2 -43 -5 -8 -6 -14
-21 -14 -32 0 -11 19 -43 42 -70 37 -45 40 -51 28 -71 -8 -11 -19 -32 -27 -46
-7 -14 -13 -32 -13 -40 0 -8 11 -20 25 -27 21 -9 33 -7 73 13 26 13 52 24 58
24 6 0 31 -22 56 -49 25 -27 49 -59 53 -70 3 -12 13 -21 21 -21 8 0 14 5 14
11 0 6 9 8 20 4 16 -5 20 -2 21 17 0 13 0 45 -1 71 -2 47 -1 49 22 42 13 -4
34 -16 47 -26 13 -11 30 -19 37 -19 7 0 19 -8 26 -18 7 -10 33 -27 58 -38 25
-10 68 -35 96 -54 51 -34 52 -35 59 -100 4 -36 8 -117 9 -180 l1 -115 -25 2
c-14 1 -47 4 -73 7 -27 3 -58 13 -70 21 -12 8 -31 15 -43 15 -12 0 -25 -8 -30
-17 -4 -10 -6 -25 -5 -33 2 -8 6 -17 10 -20 4 -3 34 -43 67 -90 34 -47 64 -91
68 -98 4 -7 -2 -28 -14 -47 -14 -23 -20 -44 -16 -60 3 -13 15 -27 26 -30 14
-5 32 2 54 19 29 22 36 24 46 11 7 -8 18 -15 24 -15 6 0 33 -23 59 -51 27 -29
54 -49 63 -47 11 2 18 15 19 38 2 19 -1 42 -5 50 -4 8 -11 42 -14 75 l-7 60
48 25 c38 21 49 32 54 59 5 22 3 38 -4 45 -7 6 -28 17 -47 25 -19 7 -45 15
-57 18 l-21 5 19 47 c11 25 31 57 43 71 13 14 26 37 30 53 3 15 13 27 21 27 9
0 46 -15 83 -34 38 -19 73 -40 79 -48 6 -7 13 -20 15 -28 2 -8 6 -17 9 -20 4
-3 23 -43 44 -90 20 -47 55 -138 76 -202 21 -65 39 -130 39 -146 0 -15 6 -36
13 -47 8 -11 22 -45 31 -75 10 -30 33 -84 52 -120 19 -35 34 -71 34 -79 0 -8
-9 -24 -19 -35 -11 -12 -26 -33 -34 -48 -8 -16 -36 -61 -63 -102 -31 -47 -59
-79 -76 -85 -14 -5 -29 -19 -33 -30 -3 -12 -17 -24 -30 -27 -14 -3 -54 -37
-90 -75 -36 -39 -70 -67 -75 -64 -6 4 -8 9 -6 13 2 4 -7 25 -20 47 -13 22 -28
49 -33 60 -5 11 -15 34 -22 50 -7 17 -13 34 -14 39 0 5 29 11 65 13 36 3 70
10 77 16 6 7 13 21 15 31 2 12 -5 24 -17 30 -12 6 -43 29 -69 51 l-49 40 6
101 c6 98 5 102 -17 114 -13 7 -33 9 -44 6 -11 -4 -32 -24 -47 -46 -15 -22
-33 -40 -39 -40 -6 0 -33 11 -61 25 -27 13 -56 25 -64 25 -9 0 -11 -7 -8 -22
4 -12 1 -28 -5 -35 -8 -10 -1 -23 26 -53 20 -22 36 -44 36 -48 0 -4 -18 -25
-41 -46 -39 -35 -40 -38 -25 -55 9 -10 16 -24 14 -32 -2 -7 11 -17 27 -22 17
-5 45 -16 63 -25 l33 -16 -2 -146 c0 -81 -4 -151 -7 -157 -4 -6 -29 -15 -57
-21 -27 -6 -88 -18 -135 -27 -47 -9 -97 -18 -112 -21 -24 -5 -28 -2 -28 18 0
13 -7 43 -16 67 -8 24 -19 52 -25 63 -5 10 -16 18 -23 18 -7 0 -25 -13 -39
-30 -15 -16 -33 -51 -39 -77 -7 -27 -19 -54 -26 -61 -10 -11 -22 -12 -60 -3
-39 10 -57 9 -107 -7 -58 -17 -60 -19 -60 -52 0 -32 3 -35 73 -64 46 -19 72
-35 72 -45 0 -9 -9 -35 -19 -57 -14 -31 -16 -45 -8 -53 6 -6 24 -11 39 -11 22
0 32 8 48 40 12 24 30 42 44 46 15 3 44 -4 78 -20 30 -14 60 -26 66 -26 7 0
12 -4 12 -10 0 -5 7 -7 15 -4 8 4 22 0 31 -7 13 -11 17 -10 25 4 6 9 17 17 24
17 8 0 15 6 15 14 0 7 -12 30 -26 51 -14 21 -23 43 -21 49 3 7 40 18 83 24 44
7 94 12 112 12 21 0 35 -6 39 -17 4 -9 1 -41 -7 -72 -7 -31 -18 -99 -24 -151
-7 -52 -15 -101 -19 -107 -6 -9 -19 -8 -55 2 -26 8 -59 15 -74 15 -17 0 -31
-7 -38 -19 -5 -11 -10 -25 -10 -31 0 -7 27 -39 60 -73 58 -58 60 -61 45 -83
-8 -13 -15 -31 -15 -41 0 -10 -6 -28 -14 -39 -8 -11 -15 -28 -16 -39 -1 -11
-2 -26 -1 -33 0 -7 11 -16 24 -21 14 -6 31 -4 49 5 15 8 39 27 53 42 l26 27
30 -37 c17 -21 37 -38 44 -38 7 0 18 13 23 30 7 20 8 49 1 87 -8 54 -8 59 13
75 13 9 35 26 50 38 14 11 35 20 46 20 12 0 24 5 27 10 3 6 3 16 -2 23 -4 6
-6 22 -5 33 3 20 -3 22 -63 29 -57 6 -65 9 -60 23 4 10 14 36 22 59 8 24 19
45 24 49 5 3 9 21 9 40 0 19 4 34 8 34 4 0 16 23 27 50 11 28 23 50 28 50 4 0
25 -9 45 -20 20 -11 54 -27 75 -35 20 -8 40 -22 44 -31 4 -10 0 -22 -10 -29
-10 -7 -17 -16 -17 -21 0 -4 -15 -23 -32 -41 -31 -32 -32 -35 -18 -60 14 -25
18 -26 95 -24 44 1 81 4 83 6 2 2 25 -38 50 -88 36 -70 52 -93 70 -95 14 -2
24 3 28 15 3 10 11 28 17 41 8 17 8 34 -2 65 -7 23 -14 56 -14 72 -2 30 -1 30
53 33 30 2 59 7 63 12 5 4 1 20 -8 34 -10 14 -14 26 -10 26 4 0 2 6 -4 14 -7
8 -27 18 -44 22 -18 4 -47 14 -64 22 -29 14 -33 21 -33 54 0 25 -7 45 -20 58
-11 11 -25 20 -32 20 -6 0 -22 -10 -35 -22 l-23 -21 -26 24 c-15 13 -35 44
-46 67 -11 24 -28 52 -39 63 -11 11 -17 24 -14 29 4 6 15 10 26 10 11 0 29 5
40 10 10 6 40 15 66 21 27 6 66 14 88 18 22 5 86 16 142 25 56 10 117 16 134
14 29 -3 33 -7 45 -53 7 -27 22 -84 33 -125 12 -41 29 -106 38 -145 9 -38 16
-88 16 -109 -1 -27 -8 -45 -21 -55 -11 -9 -22 -32 -25 -51 -2 -19 -16 -57 -30
-85 -14 -27 -28 -63 -30 -80 -3 -16 -8 -43 -12 -60 -4 -16 -11 -34 -15 -40 -4
-5 -15 -44 -24 -85 -9 -41 -21 -88 -25 -105 -5 -16 -19 -73 -31 -125 -12 -52
-35 -151 -51 -218 -17 -68 -34 -131 -39 -140 -5 -10 -22 -56 -39 -104 -17 -48
-35 -95 -40 -105 -6 -10 -17 -34 -25 -53 -8 -19 -24 -65 -35 -102 -12 -37 -30
-92 -42 -123 -14 -39 -27 -57 -42 -60 -12 -3 -354 -7 -759 -8 -406 -2 -740 -6
-743 -9 -3 -3 -19 6 -34 21 -15 14 -41 36 -56 49 -15 12 -37 28 -48 34 -12 6
-48 34 -81 62 -34 28 -82 65 -107 81 -26 17 -55 43 -65 58 -11 15 -29 30 -41
33 -13 4 -23 10 -23 14 0 5 -9 12 -21 15 -16 6 -20 13 -16 33 3 15 16 59 30
97 14 39 37 113 52 165 15 52 38 123 51 158 13 34 24 69 24 77 0 9 4 23 9 33
5 9 13 28 19 42 5 14 15 39 22 57 6 17 20 39 30 48 17 15 20 14 44 -8 14 -13
26 -32 26 -41 0 -13 11 -16 59 -16 33 0 66 -3 75 -6 9 -3 16 -15 16 -26 0 -11
-11 -33 -25 -50 -14 -16 -25 -35 -25 -42 0 -7 8 -20 18 -29 14 -13 25 -14 57
-7 22 5 49 10 60 10 12 0 39 -24 70 -60 38 -45 57 -60 76 -60 15 0 32 7 39 15
11 13 11 29 0 86 -8 43 -10 73 -4 79 5 5 21 11 34 12 14 2 33 12 42 23 17 19
16 21 -10 42 -15 13 -36 23 -48 23 -12 0 -35 5 -53 11 -17 6 -31 18 -32 27 0
10 -8 40 -17 67 -13 40 -21 50 -36 47 -10 -2 -22 1 -26 7 -3 7 -14 9 -22 6 -9
-4 -18 -24 -22 -46 -3 -21 -11 -39 -17 -39 -5 0 -17 17 -26 37 -8 21 -26 62
-40 91 -16 34 -22 57 -16 63 5 5 34 22 64 38 37 19 61 39 76 66 12 21 29 43
39 48 14 8 24 2 53 -32 20 -23 44 -41 53 -41 10 0 22 9 28 19 5 11 10 44 10
75 0 30 5 58 11 61 6 4 40 11 76 15 44 6 69 14 78 27 8 10 12 27 8 38 -3 11
-8 22 -10 25 -3 3 -44 6 -91 7 l-87 2 -3 64 c-2 36 -8 70 -15 75 -7 5 -24 12
-39 16 -20 5 -30 2 -36 -11 -5 -10 -12 -37 -16 -60 -3 -23 -12 -54 -18 -69
-10 -21 -17 -25 -42 -21 -17 3 -41 8 -53 12 -19 6 -23 4 -23 -14 0 -12 -6 -21
-15 -21 -8 0 -15 -6 -15 -13 0 -7 9 -18 20 -25 12 -7 18 -17 15 -22 -3 -6 -21
-10 -40 -10 -19 0 -46 -5 -60 -12 -14 -6 -25 -15 -25 -19 0 -5 -10 -15 -22
-23 -13 -8 -32 -17 -44 -20 -16 -5 -24 0 -33 21 -9 19 -9 29 -2 31 6 2 11 12
11 23 0 11 -6 28 -12 39 -11 17 -10 22 1 29 8 5 33 9 57 9 23 0 56 8 73 16 27
14 30 20 25 44 -4 15 -14 32 -22 37 -8 6 -36 22 -61 36 l-46 26 4 92 c2 63 -1
96 -9 106 -7 8 -23 15 -35 15 -14 0 -40 -17 -64 -40 -23 -23 -41 -49 -41 -59
0 -11 -6 -21 -14 -24 -7 -3 -33 8 -57 24 -24 16 -52 29 -61 29 -12 0 -18 -8
-18 -22 0 -13 -4 -29 -9 -37 -7 -10 -1 -22 20 -42 16 -15 29 -33 29 -40 0 -6
-18 -29 -39 -50 -34 -32 -40 -43 -39 -78 0 -39 2 -42 27 -40 14 1 51 1 82 1
l56 -2 -1 -106 c-1 -87 -4 -107 -18 -115 -10 -6 -26 -5 -43 1 -14 5 -39 10
-55 10 -16 0 -54 -12 -84 -27 -31 -15 -58 -24 -61 -21 -3 3 -1 17 6 31 8 17 8
37 2 64 -9 36 -11 38 -49 37 -32 0 -47 -8 -83 -42 -36 -34 -49 -41 -70 -35
-14 3 -49 16 -77 29 -28 13 -55 24 -61 24 -5 0 -17 -8 -26 -18 -10 -10 -17
-26 -17 -34 0 -9 21 -37 47 -62 l48 -47 -34 -29 c-19 -16 -42 -41 -52 -56 -9
-15 -15 -33 -12 -40 3 -8 11 -14 19 -14 8 0 14 -4 14 -10 0 -5 8 -10 17 -10 9
0 33 5 52 11 20 7 46 16 58 22 12 5 34 10 49 11 22 1 35 -8 59 -40 28 -38 34
-41 77 -41 l47 -1 -6 59 c-4 37 -2 59 4 59 6 0 25 -5 44 -12 19 -6 51 -22 71
-35 21 -13 49 -24 62 -25 17 -2 22 -8 21 -23 -1 -11 -3 -28 -4 -37 0 -10 -16
-33 -33 -53 -18 -19 -38 -35 -45 -35 -6 0 -19 -7 -27 -16 -9 -8 -16 -26 -16
-38 0 -13 -26 -51 -66 -95 -36 -41 -102 -105 -147 -142 -45 -38 -85 -69 -90
-69 -6 0 -33 20 -62 45 -29 24 -89 69 -133 99 -44 30 -96 66 -115 80 -19 14
-37 26 -41 26 -4 0 -35 24 -69 53 -34 28 -63 55 -65 60 -2 4 -8 7 -14 7 -5 0
-42 29 -82 64 -39 35 -76 65 -83 67 -6 2 -57 44 -112 93 -56 48 -101 91 -101
95 0 3 -22 29 -49 56 -27 28 -58 58 -69 67 -19 16 -20 19 -6 46 8 17 21 35 29
42 8 7 15 19 15 27 0 8 17 37 37 64 21 26 41 48 44 49 3 0 25 -18 49 -40 24
-22 51 -40 60 -40 10 0 23 6 29 14 7 9 9 33 5 69 l-6 55 34 11 c19 6 44 14 54
16 10 2 37 11 59 19 22 8 44 21 49 28 5 8 6 26 3 40 -4 16 -20 30 -44 41 -21
9 -59 19 -85 23 l-48 6 0 67 c0 36 -4 72 -9 80 -8 12 -14 12 -44 -2 -19 -10
-44 -33 -56 -53 -12 -19 -21 -41 -21 -49 0 -8 -4 -16 -9 -19 -4 -3 -23 -1 -41
4 -29 8 -36 6 -58 -15 -24 -24 -24 -25 -8 -65 9 -22 16 -44 16 -49 0 -4 -26
-14 -57 -22 -32 -7 -65 -14 -73 -15 -8 0 -17 -2 -20 -4 -3 -1 -17 -3 -32 -4
-25 -2 -30 4 -54 66 -14 37 -30 68 -36 68 -6 0 -8 6 -5 14 3 8 -5 24 -19 37
-13 12 -22 24 -20 27 2 2 -4 22 -14 45 -10 23 -16 45 -14 49 3 4 -2 8 -10 8
-9 0 -16 8 -16 18 0 10 15 24 38 34 20 10 51 25 67 34 17 9 37 20 45 24 8 4
21 18 29 32 8 14 11 32 8 41 -4 12 -18 17 -44 17 -21 0 -58 7 -82 16 -24 8
-52 19 -63 25 -12 6 -18 6 -18 0 0 -7 -8 -7 -24 0 -13 6 -27 21 -31 33 -3 11
-9 39 -11 61 -3 22 -12 59 -20 83 -12 32 -21 42 -38 42 -12 0 -31 -10 -42 -22
-11 -13 -25 -34 -30 -48 -6 -14 -17 -45 -25 -70 -13 -40 -18 -45 -54 -52 -22
-4 -57 -12 -77 -18 -37 -10 -38 -12 -34 -52 3 -37 7 -42 42 -54 21 -7 49 -22
63 -32 21 -16 26 -27 25 -60 -1 -22 -9 -55 -18 -73 -9 -17 -16 -36 -16 -41 0
-4 5 -8 12 -8 6 0 20 -8 30 -17 18 -16 22 -15 78 14 52 28 59 30 65 15 4 -9
11 -44 16 -77 5 -33 12 -88 15 -122 l6 -63 -88 5 c-49 3 -116 7 -149 10 -33 3
-64 10 -69 15 -6 6 -13 45 -17 87 -6 63 -12 81 -30 96 -12 10 -29 17 -38 15
-9 -2 -26 -23 -39 -48 -12 -24 -28 -51 -36 -58 -12 -12 -21 -11 -63 9 -26 13
-50 27 -53 30 -3 4 -25 12 -48 19 -39 10 -45 9 -58 -7 -7 -10 -14 -22 -14 -27
0 -5 11 -23 24 -40 12 -17 31 -47 41 -66 10 -19 22 -38 28 -41 5 -4 -1 -12
-14 -19 -12 -7 -40 -28 -60 -47 -22 -20 -35 -41 -32 -49 3 -8 0 -14 -6 -14 -6
0 -11 -9 -11 -20 0 -13 7 -20 20 -20 11 0 29 -5 40 -12 16 -10 23 -9 40 7 12
11 43 25 68 32 26 7 60 12 77 13 20 0 40 -11 66 -36 33 -32 39 -34 70 -27 26
7 34 14 34 34 0 21 5 24 43 27 24 2 64 -4 90 -14 26 -10 65 -29 87 -43 22 -15
45 -29 50 -33 6 -4 23 -18 40 -32 26 -21 30 -32 35 -90 3 -37 2 -70 -2 -74 -5
-5 -9 -51 -10 -103 0 -52 -2 -97 -4 -100 -2 -3 -37 0 -79 7 -41 7 -79 15 -84
18 -5 3 -22 3 -39 0 -18 -4 -34 -15 -41 -31 -10 -21 -8 -27 11 -43 13 -10 39
-22 58 -26 19 -5 40 -8 47 -9 6 0 25 -13 42 -28 17 -15 31 -33 31 -41 0 -7 -8
-24 -18 -37 -10 -13 -31 -46 -46 -74 l-27 -49 23 -18 c13 -10 29 -18 37 -18 7
0 29 9 47 21 19 11 34 25 34 30 0 5 9 9 20 9 11 0 31 -17 49 -44 17 -24 43
-49 60 -56 16 -6 35 -9 41 -5 5 3 8 10 5 15 -3 4 2 13 10 20 11 9 14 23 9 49
-3 20 -13 62 -21 95 -13 54 -13 59 4 72 10 7 29 14 43 14 15 0 31 5 38 12 7 7
12 22 12 35 0 12 -9 27 -19 33 -11 5 -34 10 -51 10 -28 0 -31 2 -24 23 4 12
19 40 35 62 16 22 37 51 48 65 11 14 21 31 21 38 0 9 7 11 23 6 12 -3 34 -12
48 -20 14 -7 40 -39 58 -71 18 -32 47 -80 66 -108 18 -27 42 -59 54 -71 11
-12 21 -33 21 -47 0 -14 7 -32 15 -40 8 -9 34 -53 58 -99 24 -45 57 -105 72
-133 16 -27 32 -57 36 -65 4 -8 35 -72 68 -141 34 -69 61 -130 61 -136 0 -5 9
-18 19 -27 10 -10 22 -34 25 -54 4 -20 7 -50 9 -66 2 -23 -4 -33 -28 -47 -16
-11 -39 -23 -50 -28 -12 -5 -27 -16 -34 -25 -7 -9 -20 -16 -27 -16 -8 0 -14
-4 -14 -8 0 -5 -17 -16 -37 -26 -21 -10 -47 -26 -58 -37 -11 -10 -32 -29 -46
-42 -15 -13 -72 -63 -128 -112 -55 -48 -101 -91 -101 -95 0 -4 -12 -12 -26
-19 -15 -6 -29 -10 -31 -7 -3 3 -12 -1 -20 -7 -8 -7 -43 -37 -76 -67 -33 -30
-68 -61 -76 -68 -9 -7 -40 -33 -70 -57 -30 -25 -65 -45 -77 -45 -16 0 -28 12
-44 43 -12 23 -43 71 -69 107 -26 36 -53 74 -59 86 -6 11 -8 25 -4 30 4 5 27
22 52 36 25 14 53 35 63 46 11 12 17 31 15 49 -3 26 -7 28 -48 31 -25 1 -56 3
-71 5 -14 2 -31 7 -38 11 -7 4 -17 20 -23 34 -5 15 -9 61 -9 103 1 57 -2 79
-14 89 -11 9 -18 10 -28 1 -8 -6 -16 -9 -19 -6 -3 3 -12 -3 -20 -12 -8 -10
-21 -39 -28 -65 -7 -27 -17 -48 -22 -48 -5 0 -28 13 -51 29 -28 18 -47 26 -57
20 -8 -4 -23 -10 -33 -13 -14 -5 -16 -10 -7 -25 5 -11 10 -28 10 -38 0 -10 13
-31 28 -48 15 -16 34 -41 43 -55 9 -14 15 -41 13 -60 -1 -19 -7 -66 -13 -105
-7 -38 -17 -73 -24 -77 -9 -6 -7 -11 6 -19 11 -7 16 -17 12 -29 -3 -11 0 -20
11 -24 10 -4 26 3 41 16 14 13 34 31 44 41 10 9 22 17 25 17 3 0 4 -6 1 -14
-3 -8 1 -20 9 -27 13 -10 15 -34 12 -126 -2 -65 -7 -113 -13 -114 -5 -1 -20 0
-32 0 -11 1 -24 -3 -28 -8 -3 -6 -40 -11 -83 -11 -42 0 -93 -4 -112 -9 -19 -6
-55 -11 -79 -13 l-44 -3 -18 65 c-11 36 -19 77 -19 91 0 15 -6 32 -14 38 -8 7
-26 14 -40 17 -18 3 -28 -1 -36 -16 -6 -12 -14 -52 -17 -90 -4 -42 -12 -75
-20 -82 -11 -9 -38 -9 -116 -1 -65 8 -107 8 -119 2 -10 -5 -23 -19 -29 -31
-10 -19 -7 -26 29 -57 22 -20 54 -46 70 -58 17 -13 35 -23 41 -23 6 0 11 -4
11 -10 0 -5 11 -10 23 -10 13 0 26 -3 30 -6 3 -3 -5 -24 -19 -45 -13 -21 -24
-48 -24 -60 0 -19 4 -21 31 -15 17 3 37 6 43 6 6 0 20 14 29 30 12 20 26 30
42 30 13 0 27 -4 30 -10 3 -5 14 -10 24 -10 10 0 31 -7 47 -15 16 -8 38 -26
48 -40 10 -14 23 -25 27 -25 5 0 19 10 31 23 l23 22 -22 69 c-13 38 -21 71
-18 74 3 3 72 -2 153 -12 112 -13 150 -21 160 -34 7 -9 12 -36 10 -60 -1 -28
-8 -48 -19 -56 -14 -9 -18 -28 -20 -79 l-2 -67 -53 2 c-31 1 -58 -3 -68 -11
-9 -7 -16 -20 -16 -28 0 -8 10 -29 22 -46 12 -18 25 -34 28 -37 3 -3 15 -17
28 -31 22 -26 23 -28 8 -64 -9 -20 -36 -68 -61 -105 -25 -37 -45 -75 -45 -83
0 -8 15 -20 32 -26 32 -11 34 -10 101 60 45 45 73 67 79 61 5 -5 24 -31 41
-58 18 -27 41 -50 52 -52 13 -2 26 7 37 27 9 17 14 39 11 50 -3 12 -9 21 -13
21 -4 0 -10 19 -14 42 -4 23 -12 48 -18 55 -8 11 -4 21 17 43 16 17 37 30 46
30 10 0 25 7 33 16 9 8 16 22 16 29 0 7 -7 21 -16 29 -8 9 -30 16 -49 16 -18
0 -40 3 -49 6 -9 3 -16 12 -16 19 0 6 22 53 49 103 28 50 58 104 67 119 10 15
24 33 31 39 10 9 24 8 56 -2 23 -8 54 -21 69 -29 14 -8 35 -15 46 -15 11 0 25
-6 31 -14 9 -11 4 -29 -24 -82 -20 -38 -35 -78 -33 -89 3 -18 10 -20 100 -20
91 0 97 -1 115 -25 11 -14 26 -38 34 -54 8 -16 23 -35 34 -42 12 -8 26 -10 33
-5 8 4 15 21 17 37 2 16 -1 49 -6 73 -8 38 -7 46 10 62 11 11 34 19 51 19 17
0 40 5 51 10 10 6 19 16 19 23 0 7 -13 27 -29 44 -19 21 -42 34 -67 38 -22 4
-54 12 -72 18 -18 6 -39 21 -47 34 -9 12 -16 47 -18 77 -1 30 -5 52 -9 50 -4
-2 -9 5 -13 16 -3 11 -15 20 -25 20 -12 0 -28 -19 -48 -60 -28 -57 -30 -59
-46 -42 -9 10 -16 28 -16 39 0 11 -9 32 -20 46 -11 14 -20 29 -20 33 0 4 -7
15 -16 25 -15 17 -15 21 5 53 12 19 36 47 52 61 17 14 40 27 52 29 12 2 54 10
94 16 47 8 87 22 119 41 26 17 61 31 78 31 17 0 66 8 109 19 43 10 93 26 112
34 18 9 39 15 47 14 7 -1 20 1 28 4 8 3 38 10 65 16 28 6 82 20 120 31 39 11
80 23 93 26 19 5 25 0 44 -42 15 -32 23 -70 23 -110 1 -48 9 -77 38 -139 21
-43 46 -112 57 -154 11 -41 20 -92 20 -114 0 -21 -4 -47 -10 -57 -6 -12 -33
-23 -77 -33 -38 -8 -98 -16 -135 -16 -39 -1 -68 3 -68 9 0 5 5 30 12 54 9 34
9 51 0 70 -8 17 -20 26 -35 26 -16 0 -38 -16 -65 -45 -22 -25 -46 -45 -51 -45
-6 0 -34 23 -63 50 -28 28 -58 50 -66 50 -7 0 -22 -5 -33 -10 -11 -6 -19 -21
-19 -37 0 -14 13 -40 30 -60 17 -18 30 -43 30 -54 0 -11 -7 -22 -15 -25 -8 -4
-15 -10 -15 -16 0 -5 -16 -24 -35 -42 -19 -19 -35 -43 -35 -55 0 -11 -5 -21
-11 -21 -5 0 -8 -4 -5 -9 3 -5 21 -12 41 -15 21 -4 56 -1 90 9 30 9 59 14 65
10 5 -3 10 -17 10 -30 0 -13 4 -35 9 -48 8 -20 17 -25 48 -25 33 -1 40 3 50
26 6 15 14 40 17 55 4 15 13 30 20 33 8 3 38 -18 69 -48 30 -29 75 -67 99 -84
37 -26 43 -35 41 -65 -1 -19 -6 -58 -12 -87 -5 -29 -19 -65 -30 -81 -12 -16
-21 -36 -21 -44 0 -8 -6 -17 -13 -20 -7 -3 -23 0 -35 7 -12 6 -39 10 -61 8
-36 -4 -40 -7 -46 -39 -5 -28 -2 -40 14 -57 12 -12 21 -32 21 -44 0 -12 5 -22
10 -22 6 0 10 -9 10 -21 0 -11 -16 -40 -35 -64 -28 -33 -35 -49 -31 -71 3 -15
11 -31 18 -36 7 -4 21 -8 31 -8 11 0 32 9 49 21 16 12 30 20 31 18 2 -2 8 -15
14 -29 7 -14 14 -34 17 -45 3 -11 16 -26 28 -34 20 -12 24 -11 45 15 16 19 21
36 17 49 -4 11 -9 39 -11 62 -3 23 -1 49 5 58 5 10 38 27 73 39 53 19 64 27
71 51 4 18 3 34 -4 42 -6 7 -20 13 -32 13 -11 0 -32 9 -46 19 l-24 19 54 59
c30 32 57 60 61 63 3 3 11 15 18 28 6 12 17 22 22 22 6 0 25 -12 43 -27 17
-14 45 -32 61 -40 17 -7 37 -18 45 -23 8 -6 27 -14 43 -20 l28 -10 -35 -50
c-19 -28 -38 -60 -41 -71 -4 -11 -4 -24 0 -27 4 -4 43 -7 88 -8 45 0 90 -4
100 -8 10 -5 27 -28 38 -51 11 -24 29 -51 39 -60 13 -11 28 -15 43 -11 14 3
27 16 31 28 3 13 6 46 6 74 0 37 5 56 19 68 10 9 25 14 33 11 8 -3 21 1 28 9
8 10 21 14 36 10 13 -3 24 -2 24 4 0 5 -7 15 -15 22 -8 7 -15 20 -15 30 0 12
-14 20 -51 28 -28 7 -59 12 -69 12 -10 0 -22 6 -26 12 -5 7 -8 35 -8 62 -1 46
-4 51 -29 60 -24 9 -31 6 -61 -23 -26 -25 -38 -31 -57 -25 -13 3 -43 30 -65
58 -23 29 -49 69 -59 89 -9 21 -21 37 -26 37 -5 0 -8 8 -6 18 2 9 17 37 35 62
18 25 49 66 69 92 21 26 44 49 50 52 7 3 19 -9 28 -28 9 -18 17 -43 18 -55 1
-11 4 -21 8 -21 3 0 19 -20 34 -45 16 -24 34 -46 42 -49 7 -3 19 -3 26 0 7 2
21 18 31 35 14 23 17 47 14 107 l-3 77 55 6 c30 3 67 11 83 17 15 7 30 19 33
27 4 8 3 26 0 40 -5 19 -18 28 -58 40 -28 8 -61 21 -73 29 -22 14 -22 15 -7
94 8 43 12 86 9 95 -4 12 -16 15 -44 12 -21 -2 -41 -4 -44 -4 -3 -1 -23 -28
-44 -61 -28 -43 -45 -60 -61 -60 -12 0 -27 7 -34 15 -7 8 -17 15 -22 15 -5 0
-21 -11 -35 -24 l-27 -25 18 -40 c10 -22 16 -47 13 -56 -4 -8 -18 -20 -32 -25
-15 -6 -64 -10 -110 -10 -83 0 -85 0 -91 27 -4 14 -2 34 4 44 7 10 15 37 18
61 4 24 13 55 20 70 8 15 14 45 14 67 0 22 5 52 11 68 6 15 12 41 15 56 2 16
8 43 14 60 5 18 24 84 41 147 16 63 34 118 38 123 4 4 57 12 117 17 60 5 142
16 184 24 41 8 130 22 197 31 121 17 123 17 157 -4 18 -12 62 -54 97 -93 35
-40 90 -99 122 -132 31 -32 57 -63 57 -67 0 -4 70 -77 155 -162 85 -86 155
-158 155 -161 0 -3 51 -57 113 -121 63 -63 119 -115 125 -115 7 0 12 -6 12
-13 0 -7 15 -27 34 -45 19 -18 39 -32 45 -32 6 0 11 -6 11 -14 0 -7 43 -53 96
-102 53 -49 102 -93 110 -97 10 -5 12 -17 8 -35 -4 -15 -10 -31 -13 -37 -4 -5
-12 -26 -18 -45 -7 -19 -15 -53 -19 -74 -4 -21 -15 -62 -26 -90 -11 -28 -26
-73 -34 -101 -8 -27 -19 -68 -26 -90 -6 -22 -21 -65 -33 -95 -12 -30 -32 -89
-44 -130 -12 -41 -26 -84 -31 -95 -4 -11 -16 -49 -25 -85 -9 -36 -25 -85 -35
-110 -10 -25 -25 -67 -34 -95 -9 -27 -25 -79 -36 -115 -11 -36 -27 -90 -37
-120 -9 -30 -22 -65 -30 -78 -8 -13 -16 -35 -18 -50 -2 -15 -11 -49 -18 -77
-8 -27 -24 -75 -36 -105 -11 -30 -21 -63 -21 -74 0 -10 -21 -38 -47 -62 -27
-25 -55 -50 -63 -57 -9 -6 -43 -34 -75 -61 -33 -27 -82 -70 -108 -95 -27 -25
-53 -56 -57 -68 -8 -18 -13 -21 -38 -14 -15 5 -43 23 -62 40 -19 17 -37 31
-41 31 -3 0 -22 15 -41 33 -19 17 -50 43 -68 57 -18 14 -54 44 -79 66 -25 23
-61 55 -80 70 -19 16 -68 64 -110 107 -59 62 -79 89 -88 125 -7 26 -13 65 -13
88 0 37 7 47 88 132 49 51 93 92 99 92 7 0 15 -10 19 -22 5 -13 8 -27 9 -33 0
-5 15 -13 33 -19 18 -5 35 -6 38 -3 4 3 10 28 15 54 5 26 17 54 26 61 9 6 29
12 44 12 15 0 39 4 52 9 16 6 26 20 31 43 5 27 3 36 -15 51 -12 9 -34 17 -49
17 -16 0 -36 7 -45 16 -11 11 -15 32 -14 70 1 30 0 56 -3 59 -3 3 -19 2 -37
-1 -22 -5 -37 -15 -44 -33 -7 -14 -21 -34 -32 -44 -15 -13 -30 -16 -58 -12
-21 3 -46 11 -56 17 -15 9 -24 8 -44 -5 -15 -10 -25 -25 -24 -37 1 -11 6 -20
12 -20 5 0 23 -16 39 -36 l29 -37 -24 -18 c-13 -10 -29 -17 -35 -15 -5 2 -21
-5 -35 -15 -13 -10 -40 -19 -61 -19 -26 0 -40 6 -46 17 -5 10 -12 36 -16 58
-3 22 -12 74 -20 115 -8 41 -19 95 -25 119 -9 32 -9 47 0 57 6 8 19 14 28 14
10 0 25 6 35 13 13 10 16 20 11 36 -4 13 -27 32 -60 48 -48 24 -52 29 -45 49
5 12 6 25 3 28 -3 3 -1 12 6 20 8 9 8 21 1 40 -5 14 -14 26 -19 26 -5 0 -16 2
-24 6 -9 3 -27 -14 -51 -50 -20 -31 -39 -56 -42 -56 -3 0 -23 9 -45 20 -22 12
-44 18 -48 15 -5 -2 -5 -21 -1 -40 4 -19 18 -43 30 -53 18 -14 20 -22 11 -43
-5 -15 -16 -29 -24 -32 -8 -3 -20 -29 -26 -58 -7 -29 -8 -56 -3 -61 5 -5 21
-4 36 2 15 5 34 10 43 10 13 0 14 -9 8 -62 -4 -35 -9 -101 -11 -148 -2 -47 -7
-98 -10 -115 -4 -16 -11 -35 -16 -41 -5 -7 -57 -15 -118 -19 -93 -6 -114 -5
-135 9 -22 15 -25 23 -25 80 0 48 -4 67 -18 79 -10 10 -28 17 -39 17 -14 0
-28 -16 -48 -52 -15 -29 -29 -54 -30 -56 -2 -2 -20 4 -41 14 -22 9 -61 25 -89
35 -27 11 -62 19 -77 19 -18 0 -31 -8 -39 -22 -11 -20 -6 -27 48 -77 33 -31
68 -61 79 -68 18 -12 18 -13 1 -26 -9 -8 -17 -19 -17 -24 0 -5 -11 -23 -25
-39 -14 -16 -25 -32 -25 -35 0 -3 -9 -16 -20 -29 -11 -13 -20 -27 -20 -31 0
-4 4 -10 9 -13 4 -3 21 -6 37 -7 16 -1 72 12 124 29 l94 29 27 -28 c15 -16 31
-29 36 -29 5 0 19 7 31 16 16 11 21 22 17 35 -4 11 -1 26 5 34 7 8 25 15 41
15 16 0 37 -4 47 -9 9 -5 47 -24 85 -42 48 -23 66 -37 63 -48 -2 -9 -9 -38
-15 -66 -5 -27 -13 -68 -16 -90 -4 -22 -14 -55 -22 -73 -16 -34 -17 -34 -68
-27 -28 3 -59 3 -68 -1 -9 -3 -17 -16 -17 -29 0 -12 7 -37 16 -55 16 -30 16
-35 1 -64 -9 -17 -21 -43 -26 -58 -9 -23 -7 -32 12 -54 l22 -25 38 25 c21 14
44 26 51 26 7 0 24 -12 38 -27 14 -16 31 -38 37 -51 6 -12 20 -22 30 -22 10 0
23 11 29 24 7 17 8 35 1 61 -6 19 -9 54 -7 77 3 40 5 42 53 58 28 9 62 22 76
28 17 7 28 21 32 39 3 16 0 31 -6 35 -7 4 -38 8 -69 8 -31 0 -59 3 -61 8 -3 4
25 40 62 80 l67 73 49 -27 c27 -14 62 -35 77 -46 23 -16 28 -27 28 -62 0 -25
6 -49 14 -55 7 -6 16 -41 19 -81 3 -38 11 -78 16 -89 6 -11 11 -44 11 -73 0
-30 4 -58 9 -64 6 -5 15 -49 21 -99 6 -49 16 -94 23 -100 7 -5 13 -23 15 -40
2 -16 9 -48 16 -70 7 -22 16 -51 19 -65 6 -22 -18 -49 -213 -240 -120 -118
-275 -269 -345 -335 -69 -66 -147 -141 -173 -167 -32 -31 -63 -50 -92 -58 -25
-6 -55 -18 -68 -26 -18 -12 -26 -13 -38 -3 -8 6 -21 23 -29 38 -8 14 -24 45
-35 68 -11 23 -25 45 -30 48 -6 3 -10 20 -10 36 0 16 6 31 13 33 6 3 24 7 39
10 17 4 32 18 43 38 14 30 14 34 0 44 -8 6 -33 14 -55 18 -21 3 -42 11 -45 16
-3 5 -6 41 -7 80 0 59 -3 70 -19 75 -10 4 -31 0 -46 -7 -17 -8 -32 -26 -39
-46 -5 -17 -14 -36 -20 -42 -6 -6 -33 -4 -74 5 -52 11 -68 11 -78 1 -8 -8 -11
-23 -7 -37 4 -13 29 -42 57 -64 45 -36 49 -43 45 -72 -3 -18 -17 -49 -31 -70
-14 -21 -26 -46 -26 -55 0 -10 4 -18 9 -18 5 0 16 -3 24 -6 9 -3 27 7 45 25
16 17 34 31 40 31 7 0 10 -41 9 -121 l-2 -120 -54 -30 c-29 -16 -56 -28 -58
-25 -2 2 -19 0 -36 -5 -18 -6 -39 -12 -47 -14 -8 -1 -40 -10 -70 -18 -30 -9
-68 -17 -84 -19 -27 -3 -31 1 -45 42 -9 25 -26 58 -38 74 -16 20 -26 25 -38
19 -9 -5 -23 -23 -33 -40 -9 -16 -26 -44 -37 -61 -18 -29 -25 -32 -70 -32 -29
0 -60 -7 -73 -16 -12 -8 -22 -25 -22 -38 0 -16 10 -27 36 -39 29 -14 34 -21
29 -40 -4 -12 -16 -37 -26 -55 -10 -18 -19 -42 -19 -53 0 -10 6 -19 14 -19 8
0 18 5 21 10 4 6 15 8 26 5 12 -4 31 3 51 18 18 14 50 31 70 38 37 13 39 12
97 -29 33 -23 66 -42 72 -42 7 0 23 10 35 21 22 21 22 23 7 62 -15 38 -15 41
2 53 11 8 26 12 35 9 8 -3 51 -7 95 -9 44 -3 95 -8 113 -12 30 -6 33 -9 27
-33 -4 -14 -13 -34 -22 -43 -9 -10 -17 -43 -20 -80 -2 -35 -6 -72 -8 -83 -2
-11 -4 -23 -4 -27 -1 -4 -17 -7 -36 -6 -19 1 -36 7 -39 15 -3 7 -17 13 -31 13
-14 0 -25 4 -25 9 0 5 -18 12 -39 16 -23 4 -48 2 -60 -5 -12 -6 -21 -17 -21
-24 0 -7 14 -27 30 -45 17 -17 34 -31 38 -31 4 0 22 -20 40 -44 17 -24 32 -48
32 -54 0 -6 -12 -28 -26 -49 -14 -21 -41 -46 -60 -56 -29 -15 -35 -23 -32 -45
2 -18 12 -31 31 -40 24 -12 33 -10 83 13 30 14 58 33 61 41 3 8 18 14 34 14
16 0 29 -3 29 -8 0 -4 20 -29 45 -56 38 -41 47 -47 60 -36 8 7 15 24 15 39 0
14 -7 47 -14 73 -11 36 -12 49 -3 55 7 5 31 17 53 27 23 10 57 21 75 25 25 5
34 12 34 26 0 11 4 23 9 26 5 4 6 14 3 24 -5 11 -16 15 -34 14 -16 -2 -47 2
-70 9 -24 7 -43 18 -43 24 0 6 15 29 33 52 18 23 50 67 72 99 21 32 44 62 51
68 9 7 20 6 36 -5 13 -8 44 -17 69 -21 25 -4 52 -11 60 -16 11 -6 3 -20 -39
-61 -40 -41 -52 -61 -52 -84 0 -28 3 -30 37 -31 21 -1 40 2 43 5 3 4 35 17 72
29 36 13 74 20 82 17 9 -3 31 -28 51 -55 28 -40 41 -49 64 -49 17 0 33 5 36
11 4 5 6 48 6 93 l-1 83 60 13 c32 7 66 20 75 29 12 15 13 22 2 44 -11 24 -16
26 -62 22 -27 -3 -63 -2 -81 1 -17 3 -31 11 -31 17 0 7 -1 20 -1 30 -1 11 -11
17 -28 17 -14 0 -39 -9 -55 -21 -16 -11 -39 -22 -51 -24 -12 -3 -30 3 -40 12
-10 9 -27 36 -38 60 -12 27 -29 47 -44 53 -23 8 -25 12 -15 37 5 15 26 46 45
69 19 23 34 46 34 51 0 5 12 21 28 35 15 14 56 36 92 48 36 12 85 29 110 38
25 9 60 24 78 34 18 10 45 18 61 18 15 0 43 7 61 16 18 9 46 20 64 24 17 5 56
15 86 24 30 9 96 23 145 30 50 8 98 18 107 21 13 5 19 -4 29 -52 7 -32 12 -62
10 -67 -1 -4 5 -48 14 -97 8 -49 15 -111 15 -139 0 -27 5 -71 11 -97 6 -27 17
-61 25 -78 7 -16 18 -77 24 -134 5 -57 12 -107 15 -111 3 -5 1 -11 -5 -15 -5
-3 -10 -19 -10 -34 0 -15 -7 -50 -16 -77 -9 -27 -21 -55 -27 -62 -5 -7 -15
-11 -21 -10 -6 1 -20 -3 -31 -9 -11 -6 -42 -14 -68 -18 -30 -5 -65 -3 -93 5
-32 9 -45 19 -49 34 -2 11 -6 41 -10 64 -3 24 -12 50 -20 58 -9 9 -21 11 -36
6 -16 -6 -30 -27 -45 -68 l-22 -59 -67 -2 c-37 -2 -73 -7 -80 -13 -7 -6 -15
-20 -18 -31 -4 -13 3 -25 20 -37 14 -9 34 -25 45 -35 18 -17 18 -20 4 -36 -9
-10 -16 -22 -16 -28 0 -5 -11 -20 -25 -33 -14 -13 -25 -31 -25 -40 0 -9 5 -21
12 -28 7 -7 21 -12 33 -12 11 0 30 6 41 14 11 8 47 22 79 31 l59 18 36 -42
c34 -39 37 -41 63 -29 22 10 27 18 22 36 -3 12 -8 33 -11 45 -4 15 0 30 10 40
9 9 32 19 50 22 18 4 51 2 74 -4 l41 -12 -6 -52 c-3 -28 -12 -65 -20 -80 -8
-15 -11 -31 -8 -36 2 -5 -2 -28 -10 -51 -8 -23 -15 -54 -15 -68 0 -14 -7 -34
-17 -44 -9 -10 -21 -28 -27 -41 -6 -12 -21 -23 -33 -25 -12 -2 -50 6 -85 16
-35 11 -76 18 -91 15 -21 -4 -27 -11 -27 -30 0 -17 16 -39 50 -70 28 -25 50
-51 50 -59 0 -8 -7 -17 -15 -20 -8 -4 -13 -10 -10 -15 3 -4 -11 -25 -31 -46
-20 -21 -48 -54 -62 -73 -15 -19 -30 -37 -34 -40 -4 -4 -1 -16 7 -27 13 -18
20 -20 44 -13 16 4 36 12 44 17 8 4 41 32 72 61 l57 53 25 -23 c14 -13 36 -48
49 -78 14 -30 28 -62 33 -70 4 -8 17 -16 27 -18 14 -2 23 6 32 32 9 24 11 63
6 130 -6 88 -5 96 12 103 10 3 33 17 49 29 17 12 39 24 50 26 12 2 21 13 23
27 2 13 -2 28 -10 32 -7 5 -26 9 -43 10 -16 0 -39 4 -49 8 -18 7 -13 14 40 73
32 36 86 100 119 142 32 42 63 82 67 89 5 8 13 6 30 -10 13 -11 75 -45 138
-75 63 -31 123 -58 134 -62 16 -6 18 -13 12 -54 -4 -26 -13 -74 -20 -107 -7
-34 -10 -65 -5 -71 5 -6 7 -13 4 -15 -2 -3 5 -6 16 -6 12 -1 38 8 58 21 20 12
44 25 54 29 13 5 23 -3 41 -31 13 -20 45 -56 70 -80 34 -34 50 -42 66 -37 19
6 20 12 15 53 -4 26 -7 54 -9 64 -1 9 -8 23 -14 31 -7 7 -15 28 -18 46 -5 25
-2 37 17 57 13 14 45 40 72 57 26 16 47 36 47 44 0 7 -6 13 -14 13 -7 0 -16 9
-19 19 -3 14 -17 21 -51 26 -25 4 -52 5 -60 2 -8 -3 -20 1 -26 9 -7 8 -20 14
-30 14 -10 0 -22 6 -28 13 -5 6 -13 40 -17 74 -5 48 -11 62 -25 66 -11 3 -26
-3 -36 -14 -9 -10 -14 -19 -10 -19 4 0 -2 -12 -13 -26 -11 -15 -18 -30 -15
-35 3 -5 -2 -12 -11 -15 -9 -4 -24 1 -35 11 -10 9 -45 69 -77 132 -45 89 -55
117 -44 121 8 3 23 14 33 26 11 12 34 38 52 58 l33 38 27 -40 c14 -22 26 -43
26 -47 0 -5 11 -21 25 -36 14 -15 32 -27 39 -27 7 0 22 10 34 23 19 20 22 35
22 104 0 58 4 84 15 93 8 6 23 9 33 6 11 -4 24 0 32 9 7 8 18 15 25 15 6 0 20
9 30 20 12 13 15 27 11 45 -5 19 -13 25 -36 26 -17 1 -33 2 -37 4 -5 1 -21 5
-38 10 -16 4 -36 12 -42 18 -8 6 -13 34 -13 72 0 42 -5 66 -14 74 -8 7 -27 11
-43 9 -23 -2 -29 -9 -34 -38 -3 -19 -13 -50 -22 -67 -10 -18 -23 -33 -30 -33
-6 0 -25 7 -41 15 -15 8 -36 15 -46 15 -10 0 -21 -7 -24 -16 -3 -9 -6 -24 -6
-35 0 -11 9 -29 20 -41 10 -11 22 -34 25 -50 4 -16 5 -31 3 -33 -2 -2 -19 -6
-38 -8 -19 -3 -55 -8 -80 -12 -25 -4 -51 -12 -58 -18 -9 -7 -17 -4 -30 14 -9
13 -32 48 -49 78 -25 40 -32 61 -28 84 3 17 8 34 11 39 3 4 8 18 11 30 3 13 7
56 9 97 2 40 10 94 18 120 8 25 18 62 21 81 4 19 11 40 15 45 4 6 11 26 14 45
4 19 16 65 26 103 11 37 30 99 41 137 18 60 26 72 53 84 17 8 58 17 91 21 33
4 65 11 72 17 8 6 18 6 29 0 10 -6 27 -6 38 -2 12 5 55 14 96 20 41 6 93 18
115 25 22 8 69 18 105 23 36 6 70 11 75 12 6 1 38 2 73 1 53 -1 65 -5 84 -26
12 -14 27 -25 33 -25 7 0 20 -9 29 -19 13 -15 18 -45 23 -135 4 -87 2 -120 -8
-132 -9 -11 -22 -14 -48 -9 -20 4 -40 10 -46 15 -5 4 -26 11 -45 14 -19 4 -48
8 -64 9 -25 2 -31 -3 -38 -28 -4 -16 -6 -35 -4 -41 2 -6 34 -26 71 -43 63 -30
66 -34 60 -59 -3 -15 -24 -45 -46 -67 -21 -23 -39 -46 -39 -53 0 -7 -7 -24
-16 -38 -15 -23 -15 -26 1 -44 17 -19 18 -19 86 15 37 19 71 41 76 48 4 8 20
22 34 31 l27 17 50 -53 c27 -29 59 -64 69 -77 11 -13 24 -21 30 -18 6 4 13 21
17 38 3 19 0 50 -10 78 -8 25 -17 58 -19 72 -3 23 1 28 26 33 16 3 41 17 55
31 15 15 24 34 22 47 -3 18 -10 22 -52 24 -27 2 -56 6 -63 8 -7 3 -13 11 -13
18 0 7 15 29 33 48 17 19 41 52 51 73 11 20 22 37 26 37 4 0 32 -12 61 -26 30
-14 66 -33 80 -42 14 -9 41 -27 60 -39 19 -12 57 -36 86 -54 29 -18 55 -39 58
-47 3 -8 -1 -42 -9 -76 -8 -33 -17 -77 -19 -97 -3 -20 -2 -41 2 -48 4 -7 22
-9 43 -7 21 3 64 24 100 49 35 24 70 46 78 49 8 3 29 -6 45 -19 17 -13 38 -31
48 -40 10 -9 30 -19 44 -21 18 -2 32 3 40 14 7 10 13 23 13 30 0 7 -16 31 -35
53 -19 24 -32 48 -28 56 3 8 22 23 42 32 20 9 39 22 43 27 4 6 8 14 8 19 0 4
-9 7 -19 7 -11 0 -23 9 -26 20 -6 18 -14 20 -68 18 -35 -1 -68 2 -75 6 -8 4
-28 41 -47 81 -25 54 -41 78 -64 89 -25 14 -34 14 -51 4 -13 -9 -22 -28 -26
-60 -4 -27 -10 -48 -13 -48 -4 0 -22 15 -41 34 -19 18 -58 58 -86 87 -27 30
-58 68 -69 86 -16 27 -16 33 -4 46 8 8 32 38 54 66 22 28 43 51 47 51 5 0 8 5
8 11 0 6 13 29 29 52 16 23 49 63 74 90 25 26 52 47 60 47 8 0 29 -5 48 -11
19 -6 44 -15 55 -21 12 -6 40 -8 63 -4 37 5 41 3 47 -18 3 -14 12 -22 22 -21
9 1 31 7 47 14 17 8 42 15 58 16 16 2 27 -2 27 -9 0 -7 -7 -35 -15 -62 -8 -27
-19 -55 -24 -62 -7 -11 -18 -10 -59 8 -29 12 -58 20 -67 16 -10 -3 -15 -18
-15 -41 0 -23 9 -48 24 -68 22 -29 23 -34 10 -51 -8 -11 -14 -29 -14 -41 0
-12 6 -30 14 -41 10 -13 27 -19 56 -19 35 0 43 -4 57 -30 9 -16 19 -37 23 -45
4 -8 18 -15 31 -15 16 0 23 5 21 14 -2 8 1 24 7 35 6 12 12 34 13 50 2 23 8
30 27 31 13 1 30 10 37 20 8 11 14 24 14 31 0 7 -11 26 -25 42 -14 17 -25 36
-25 44 0 8 15 32 34 54 l33 39 42 -20 c22 -11 41 -27 41 -36 0 -9 -9 -24 -20
-34 -11 -10 -20 -23 -20 -28 0 -6 -7 -18 -15 -27 -13 -14 -14 -22 -4 -44 11
-24 17 -26 68 -25 31 1 67 -1 80 -6 17 -5 22 -13 18 -30 -2 -15 1 -26 9 -29 8
-3 14 -14 14 -24 0 -10 11 -24 24 -30 19 -9 27 -7 39 6 9 9 18 29 21 45 3 15
8 38 11 52 3 14 10 23 14 20 5 -3 33 0 61 6 39 8 50 15 46 26 -3 8 -6 23 -6
33 0 12 -10 20 -31 24 -17 3 -44 15 -60 27 -18 13 -29 29 -29 44 0 13 4 35 10
49 5 14 7 33 4 41 -4 8 -14 15 -24 15 -10 0 -20 6 -23 13 -3 8 -14 3 -34 -15
-16 -16 -34 -28 -40 -28 -6 0 -23 14 -37 31 -14 17 -26 36 -26 44 0 7 19 28
43 48 32 26 55 36 97 41 30 4 69 12 85 17 17 5 113 10 213 12 156 2 183 0 187
-13 2 -8 11 -54 19 -101 8 -48 24 -132 36 -187 11 -56 25 -114 31 -129 6 -15
21 -82 35 -148 13 -66 24 -132 24 -147 0 -15 6 -47 13 -70 8 -24 20 -68 27
-98 8 -30 13 -92 13 -138 -1 -73 -4 -87 -24 -108 -14 -15 -34 -24 -53 -24 -17
0 -48 -9 -69 -20 -20 -11 -46 -20 -57 -20 -18 0 -20 7 -20 64 0 43 -5 67 -14
75 -8 7 -27 11 -43 9 -17 -2 -32 -12 -39 -28 -7 -14 -18 -37 -25 -53 -10 -21
-17 -26 -33 -21 -12 4 -28 12 -36 20 -8 7 -34 17 -57 22 -37 8 -44 7 -62 -12
l-20 -22 41 -59 c22 -33 47 -64 54 -68 8 -4 14 -17 14 -27 0 -11 -20 -42 -45
-70 -25 -28 -45 -57 -45 -64 0 -8 6 -19 13 -25 8 -6 17 -8 20 -4 4 3 7 1 7 -5
0 -7 8 -12 19 -12 10 0 41 18 68 40 28 22 53 36 57 32 4 -4 14 -21 21 -39 12
-29 18 -32 54 -31 41 0 41 0 43 42 0 22 0 51 -1 62 -1 16 6 24 26 29 16 5 37
7 48 6 11 -2 28 -10 37 -18 11 -10 26 -13 41 -9 15 3 29 1 36 -7 7 -9 9 -46 7
-100 -3 -47 -10 -99 -18 -114 -10 -22 -21 -29 -48 -31 -21 -2 -42 -12 -52 -25
-10 -12 -18 -28 -18 -35 0 -7 16 -26 35 -43 21 -19 35 -40 35 -55 0 -13 -10
-42 -21 -64 -13 -24 -22 -61 -23 -92 -1 -43 2 -53 17 -56 10 -2 38 13 62 33
25 20 45 41 45 46 0 6 6 17 14 25 8 8 22 14 30 14 9 0 16 -7 16 -15 0 -8 -1
-16 -2 -17 -2 -2 7 -17 19 -33 11 -17 33 -42 48 -57 l27 -28 29 31 c16 17 29
35 29 40 0 5 -7 12 -15 15 -8 4 -12 10 -9 15 3 5 1 9 -4 9 -4 0 -20 29 -35 65
-15 36 -27 75 -27 86 0 11 7 33 15 49 8 15 27 38 41 49 24 19 26 25 18 54 -7
24 -16 33 -35 35 -22 3 -25 7 -21 32 2 16 12 36 23 46 17 15 20 15 52 -5 19
-11 44 -21 57 -21 12 0 34 -9 48 -21 22 -17 35 -19 71 -14 43 7 43 7 39 -22
-3 -15 -11 -49 -19 -75 -10 -36 -10 -52 -1 -72 6 -15 20 -26 30 -26 11 0 31 9
45 20 14 11 39 23 56 26 17 4 28 11 25 16 -4 6 4 4 17 -3 13 -7 31 -22 40 -33
9 -12 45 -51 80 -87 39 -39 70 -64 80 -62 9 2 21 14 27 27 8 18 6 32 -8 63
-10 22 -23 44 -29 47 -6 4 -11 14 -11 23 0 8 -11 28 -25 45 -14 16 -25 35 -25
42 0 7 23 22 50 34 28 12 54 22 58 22 4 0 19 12 35 25 15 13 27 27 27 30 0 4
-14 20 -31 38 -25 25 -34 28 -48 20 -10 -6 -33 -9 -52 -8 -19 2 -55 4 -81 4
-27 1 -53 7 -62 16 -8 8 -22 40 -30 69 -9 30 -21 58 -26 61 -6 3 -10 -2 -10
-12 -1 -17 -1 -17 -14 0 -7 9 -20 17 -29 17 -12 0 -18 -14 -23 -50 -4 -28 -10
-53 -14 -55 -5 -3 -30 22 -57 54 -26 33 -58 72 -70 88 -13 15 -23 34 -23 41 0
7 15 33 33 57 19 24 48 60 66 80 25 28 37 36 55 31 12 -3 39 -17 60 -31 20
-14 48 -25 61 -25 14 0 26 7 29 18 4 10 2 46 -2 81 l-9 62 28 6 c16 3 40 16
54 29 14 13 25 32 25 43 0 11 -9 25 -21 32 -11 6 -46 9 -77 7 l-55 -3 -13 64
c-7 35 -11 67 -9 72 3 4 1 11 -5 14 -6 4 -17 2 -24 -4 -7 -6 -23 -10 -36 -9
-19 3 -24 -4 -36 -47 -8 -27 -19 -67 -24 -87 -9 -32 -13 -36 -38 -32 -15 2
-36 5 -46 6 -15 2 -22 -6 -30 -31 -8 -29 -7 -35 13 -50 18 -14 20 -19 9 -28
-7 -6 -34 -20 -60 -32 -26 -11 -51 -21 -56 -21 -4 0 -15 15 -23 32 -11 25 -14
69 -13 176 1 78 7 177 13 220 6 42 16 109 21 147 5 39 15 113 23 166 8 53 17
100 20 105 3 6 8 37 11 70 3 33 8 68 11 77 4 10 17 16 33 15 15 0 137 2 272 6
135 4 274 8 310 9 36 2 79 -3 97 -10 18 -7 61 -13 95 -13 35 1 81 7 103 15 22
8 65 15 96 15 31 0 59 -3 63 -7 3 -4 17 -8 29 -10 12 -2 27 -9 34 -16 7 -7 14
-41 17 -77 3 -36 8 -101 11 -146 l6 -81 -63 1 c-56 1 -63 -1 -74 -23 -9 -18
-9 -30 -1 -50 6 -14 17 -33 24 -42 7 -8 13 -32 13 -52 0 -20 -5 -39 -10 -42
-6 -4 -24 -35 -40 -71 -24 -51 -28 -68 -20 -84 6 -11 17 -20 25 -20 7 0 28 8
47 17 18 9 41 20 50 25 10 4 22 8 27 8 6 0 22 -21 37 -48 15 -26 34 -55 42
-64 8 -10 21 -18 28 -18 7 0 18 9 24 21 7 11 12 64 13 117 l2 97 34 17 c19 9
37 21 41 25 4 4 11 25 14 45 7 37 6 38 -44 65 -27 16 -52 36 -56 46 -4 12 4
27 24 45 16 15 40 45 54 67 14 22 36 50 47 62 12 13 29 24 39 24 9 1 20 1 23
1 4 -1 17 -3 30 -6 13 -2 38 -11 54 -20 17 -9 38 -16 49 -16 10 0 39 -11 65
-24 25 -13 66 -29 91 -36 25 -6 54 -19 66 -28 11 -10 23 -28 27 -41 3 -12 -1
-53 -9 -89 -8 -37 -17 -79 -21 -95 -4 -19 0 -34 12 -47 10 -11 25 -20 32 -20
8 0 28 10 45 22 16 13 49 40 74 62 42 37 45 38 68 22 14 -9 33 -24 43 -35 10
-10 29 -22 43 -26 14 -4 38 -18 53 -31 16 -13 34 -24 42 -24 7 0 18 -7 25 -15
7 -8 19 -15 28 -15 11 0 13 9 9 39 -3 25 -20 58 -51 97 -25 33 -46 65 -46 72
0 6 -4 12 -9 12 -5 0 -12 12 -16 27 -5 23 -1 32 27 55 18 15 36 28 40 28 4 0
17 8 28 17 11 10 20 23 20 30 0 7 -8 13 -17 13 -9 0 -24 7 -33 15 -11 10 -25
12 -44 7 -15 -4 -55 -5 -88 -2 -41 4 -63 11 -69 22 -5 10 -24 36 -42 60 -25
32 -39 42 -56 40 -13 -2 -21 0 -18 5 4 5 -3 9 -15 8 -16 -1 -21 -9 -23 -33 -2
-18 -8 -38 -14 -46 -10 -12 -16 -12 -39 0 -15 8 -31 14 -35 14 -5 0 -27 15
-50 33 -23 17 -44 35 -45 40 -2 4 -7 5 -11 2 -5 -2 -32 18 -62 44 -49 45 -53
51 -41 70 6 11 12 25 12 31 0 6 12 29 28 52 15 24 35 50 45 60 9 10 17 24 17
31 0 8 11 24 24 37 14 12 28 36 31 52 6 27 9 28 43 22 21 -4 56 -15 80 -26 24
-10 52 -18 62 -18 10 0 20 6 23 13 3 7 3 34 0 60 -3 26 -10 50 -14 53 -5 3 -9
16 -9 29 0 18 18 37 80 80 45 31 87 67 96 80 8 12 12 29 8 38 -4 11 -18 16
-47 15 -23 0 -58 -8 -77 -17 -19 -10 -52 -27 -72 -39 -28 -16 -39 -18 -46 -9
-6 7 -15 49 -22 94 -6 44 -10 85 -8 89 1 5 -1 19 -6 32 -4 12 -14 22 -21 22
-8 0 -17 -5 -21 -11 -3 -6 -16 -8 -28 -5 -21 5 -24 0 -35 -57 -7 -34 -16 -87
-21 -118 -4 -30 -12 -65 -19 -77 -6 -11 -11 -30 -11 -41 0 -15 -6 -20 -27 -19
-16 1 -43 1 -60 0 -22 -1 -33 -7 -33 -17 0 -8 -5 -15 -11 -15 -6 0 -9 -10 -7
-22 2 -15 15 -25 46 -36 24 -8 46 -21 49 -29 3 -8 0 -19 -8 -23 -7 -5 -16 -7
-20 -4 -4 2 -12 -3 -19 -11 -7 -8 -31 -24 -54 -35 -22 -11 -64 -34 -93 -50
l-51 -30 -72 72 c-43 44 -66 74 -58 76 7 2 38 13 68 25 30 11 57 23 60 27 3 3
18 16 34 28 16 12 23 22 17 22 -7 0 -10 7 -7 18 4 13 -1 22 -16 30 -14 7 -36
9 -58 4 -19 -4 -52 -3 -75 3 -22 5 -45 14 -52 18 -8 5 -12 45 -12 120 -1 92
-4 114 -17 124 -13 10 -22 9 -44 -2 -21 -11 -30 -26 -38 -62 -5 -26 -15 -64
-22 -83 -7 -19 -16 -42 -20 -50 -5 -9 -19 -14 -36 -13 -16 2 -52 6 -81 9 l-52
6 2 -36 c2 -28 10 -41 31 -55 15 -10 43 -35 62 -55 l34 -36 -17 -35 c-9 -19
-20 -35 -25 -35 -4 0 -8 -6 -8 -14 0 -8 7 -17 16 -20 9 -4 14 -13 10 -21 -3
-9 0 -15 10 -15 8 0 33 9 56 20 22 11 44 18 48 15 3 -2 4 -28 0 -56 -4 -30 -2
-68 3 -87 9 -27 8 -35 -4 -43 -8 -5 -32 -8 -54 -5 -22 3 -60 16 -85 30 -25 14
-55 30 -67 35 -11 5 -24 14 -27 20 -3 5 -42 23 -87 40 -44 17 -87 31 -95 31
-8 0 -42 22 -76 50 -34 27 -69 50 -77 50 -8 0 -24 8 -35 19 -12 10 -55 37 -97
58 -41 22 -88 48 -103 58 -15 10 -42 27 -59 37 -18 10 -61 32 -97 49 -36 17
-75 36 -87 41 -17 9 -21 18 -18 50 1 21 5 42 9 45 3 4 6 29 6 56 0 42 4 53 31
78 28 26 31 34 26 69 -3 22 -1 43 4 46 5 3 7 21 3 40 -3 19 -3 60 1 92 4 31
10 51 12 44 3 -6 9 -10 13 -7 5 3 26 -4 47 -15 21 -12 45 -25 53 -29 8 -5 28
-15 44 -22 16 -8 30 -19 33 -25 2 -6 -12 -44 -31 -85 -19 -41 -35 -84 -37 -94
-2 -11 0 -32 4 -47 6 -21 14 -28 32 -28 14 0 30 9 37 20 7 11 18 20 25 20 7 0
13 7 13 15 0 8 10 21 23 29 12 8 32 17 44 21 18 5 33 -4 73 -41 l51 -48 21 22
c20 20 21 24 8 76 l-13 54 44 41 43 42 -33 29 c-22 21 -43 30 -66 30 -19 0
-36 4 -40 9 -3 6 -7 39 -9 74 -2 35 -6 69 -9 74 -4 6 -23 10 -44 9 -35 -1 -38
-4 -54 -51 -11 -30 -23 -49 -31 -47 -7 2 -21 11 -30 19 -10 9 -18 24 -18 34 0
10 -16 34 -36 53 -29 28 -34 39 -28 58 4 13 17 37 29 53 12 17 25 41 29 55 3
14 17 33 31 43 23 17 28 17 70 2 25 -8 54 -15 63 -15 10 0 22 -4 28 -10 5 -5
25 -10 44 -11 20 -2 41 1 48 5 7 4 12 16 12 26 0 10 -11 31 -24 47 -12 15 -21
34 -19 41 3 6 13 12 23 12 9 0 23 6 29 14 7 8 20 12 31 9 14 -4 23 2 31 21 11
23 9 29 -12 52 -23 24 -28 26 -91 19 -60 -5 -68 -4 -77 14 -6 11 -11 32 -11
48 0 15 -9 43 -20 61 -16 26 -26 33 -47 30 -21 -2 -29 -10 -35 -38 -5 -19 -14
-48 -20 -63 -6 -16 -21 -32 -32 -37 -12 -4 -38 -1 -64 7 -23 8 -53 12 -66 9
-13 -3 -26 -16 -29 -28 -5 -17 4 -32 39 -67 l46 -45 -24 -18 c-12 -9 -30 -18
-39 -18 -9 0 -28 -9 -42 -20 -14 -11 -28 -20 -31 -20 -3 0 -6 4 -6 10 0 5 -15
29 -33 52 -17 24 -42 53 -55 66 -12 12 -22 32 -22 45 0 14 18 40 45 67 25 24
45 49 45 56 0 6 -7 17 -15 24 -9 7 -42 12 -80 11 -54 -1 -67 2 -71 17 -3 9
-10 26 -14 37 -5 11 -11 33 -14 48 -4 16 -17 32 -32 39 -19 9 -27 9 -37 -1 -6
-6 -17 -30 -22 -53 l-11 -42 -71 -2 c-39 -1 -76 -5 -82 -8 -6 -4 -11 -20 -11
-35 0 -19 8 -34 23 -44 12 -8 49 -39 82 -68 33 -30 61 -64 63 -77 2 -13 -1
-29 -6 -35 -6 -7 -6 -21 -1 -34 4 -12 18 -24 30 -28 13 -4 24 -2 29 5 4 7 15
10 24 7 11 -5 15 -14 11 -30 -4 -16 0 -29 14 -41 12 -11 21 -29 21 -42 0 -19
-7 -23 -50 -29 -27 -4 -50 -12 -50 -18 0 -7 -3 -7 -9 -1 -6 5 -12 25 -14 44
-2 19 -9 45 -16 57 -7 13 -21 23 -34 23 -16 0 -30 -13 -50 -50 -15 -27 -32
-52 -37 -55 -5 -3 -33 2 -61 12 -49 18 -51 17 -64 -1 -13 -17 -12 -22 10 -47
13 -16 26 -38 30 -49 3 -11 11 -20 17 -20 7 0 8 -13 5 -35 -3 -19 -15 -47 -26
-62 -12 -14 -21 -34 -21 -44 0 -11 3 -19 8 -19 4 0 13 4 21 9 9 6 21 5 33 -2
16 -10 22 -8 37 12 11 14 28 24 44 24 14 0 41 -13 61 -28 27 -20 39 -25 49
-17 7 6 23 9 35 5 21 -5 22 -3 16 40 l-7 46 59 -24 c49 -20 61 -29 68 -55 8
-27 5 -35 -21 -63 -16 -18 -78 -86 -137 -152 -59 -66 -111 -121 -115 -123 -4
-1 -50 29 -102 67 -52 38 -110 84 -130 103 -35 32 -37 37 -44 123 -5 50 -7
104 -6 122 2 23 -3 33 -16 37 -16 5 -21 24 -32 104 -7 53 -14 106 -16 117 -1
11 -8 61 -15 110 -7 50 -21 131 -31 180 -11 50 -21 110 -22 135 -2 25 -9 79
-16 120 -7 41 -25 129 -41 195 -17 66 -32 138 -36 160 -3 22 -12 67 -20 100
-7 33 -14 71 -14 85 0 19 16 38 59 75 33 28 63 58 66 67 3 9 29 34 58 55 29
21 58 43 65 50 7 7 19 13 25 13 7 0 17 8 24 18 6 11 35 35 65 54 29 20 91 72
138 115 47 44 100 88 118 97 17 9 32 21 32 26 0 5 15 20 34 32 18 13 58 42 87
66 30 24 65 52 79 63 14 11 36 22 50 25 14 3 39 10 57 16 20 6 55 35 91 76 33
37 82 79 108 93 44 23 55 25 109 18 33 -5 162 -11 286 -15 l225 -7 25 -51 c14
-28 47 -91 73 -141 27 -49 51 -94 55 -100 4 -5 20 -44 35 -85 16 -41 39 -97
51 -125 12 -27 22 -66 21 -85 -1 -34 -2 -34 -61 -47 -33 -7 -66 -12 -73 -13
-10 0 -12 10 -7 40 6 36 5 41 -21 52 -22 10 -28 10 -32 0 -2 -6 -9 -12 -16
-12 -7 0 -19 -11 -26 -24 -7 -14 -19 -27 -27 -31 -9 -3 -33 0 -54 7 -22 6 -44
17 -50 25 -7 8 -32 13 -64 13 -39 0 -54 -4 -59 -16 -4 -9 6 -34 24 -60 16 -25
30 -51 30 -59 0 -8 -20 -35 -45 -61 -25 -25 -45 -52 -45 -59 0 -8 7 -11 19 -8
10 3 28 0 39 -6 14 -7 21 -8 24 0 2 5 19 12 38 15 19 3 37 6 40 6 3 0 10 0 17
-1 6 0 17 -17 23 -37 10 -30 15 -35 34 -29 11 4 29 7 39 6 9 0 24 13 32 29 8
16 15 36 15 45 0 9 9 15 23 15 12 0 49 -11 82 -25 l60 -24 -3 -58 c-2 -32 -8
-64 -14 -70 -7 -9 -7 -23 1 -44 7 -22 8 -37 0 -50 -6 -13 -17 -18 -28 -14 -9
3 -49 6 -88 7 -40 1 -74 0 -76 -2 -2 -3 -7 -18 -11 -33 -6 -24 1 -35 44 -81
27 -29 50 -57 50 -61 0 -5 -8 -18 -19 -29 -10 -12 -21 -33 -24 -47 -4 -15 -1
-33 7 -44 13 -18 15 -18 62 0 l48 18 15 -23 c9 -12 32 -37 51 -56 19 -19 38
-34 43 -34 4 0 7 7 7 15 0 8 9 24 20 35 19 19 20 25 9 82 l-12 61 38 31 c21
17 48 33 59 37 18 4 21 11 17 50 -1 24 -4 45 -5 46 0 0 -19 2 -41 4 -22 1 -43
4 -48 7 -4 2 3 17 15 35 12 17 16 27 8 22 -8 -5 -5 4 8 19 12 16 20 32 17 36
-3 4 1 13 9 19 10 8 22 7 47 -5 19 -8 45 -22 59 -29 14 -8 32 -15 40 -15 8 0
28 -11 44 -25 28 -24 29 -27 18 -73 -8 -37 -8 -50 3 -61 7 -7 43 -15 81 -18
38 -3 75 -11 83 -17 7 -6 22 -30 32 -53 12 -28 28 -47 44 -53 15 -6 31 -10 37
-10 7 0 9 21 6 58 -3 31 -7 63 -9 71 -2 8 8 17 26 22 17 5 44 9 60 10 17 1 38
4 48 6 9 2 17 9 17 14 0 6 -12 25 -27 44 -22 27 -37 36 -73 40 -25 4 -58 11
-73 17 -15 6 -32 19 -37 29 -6 10 -10 36 -10 59 0 30 -5 42 -17 47 -10 4 -22
12 -26 20 -4 7 -14 13 -21 13 -7 0 -18 -11 -24 -25 -7 -14 -18 -28 -25 -31 -8
-3 -25 0 -40 5 -15 6 -34 27 -46 53 -12 24 -32 58 -45 76 -14 18 -23 42 -21
53 2 11 18 38 36 60 17 22 36 38 43 36 6 -2 16 -17 21 -34 6 -16 16 -37 24
-46 7 -10 19 -17 25 -17 7 0 22 17 33 37 11 21 24 53 28 71 5 24 13 33 33 38
15 3 45 13 67 22 22 9 46 22 53 29 6 6 12 18 12 26 0 8 -11 22 -25 31 -13 9
-35 16 -49 16 -13 0 -31 7 -39 14 -12 12 -12 24 -4 59 5 25 7 53 3 63 -5 12
-10 14 -18 6 -6 -6 -16 -8 -23 -6 -6 3 -32 -20 -56 -50 -24 -30 -48 -55 -54
-55 -5 -1 -25 8 -43 19 -32 20 -34 20 -63 3 -16 -9 -29 -21 -29 -26 0 -5 10
-27 22 -49 l23 -40 -24 -19 c-16 -13 -36 -19 -59 -17 -32 3 -37 7 -56 58 -17
46 -21 76 -20 185 1 80 8 167 19 226 l18 97 61 -4 c34 -2 77 -6 96 -10 19 -3
154 -8 300 -10 146 -2 360 -11 475 -19 116 -8 233 -20 260 -25 28 -6 75 -16
105 -23 52 -11 55 -14 58 -46 3 -25 -3 -40 -24 -62 -16 -17 -28 -42 -31 -67
-3 -25 1 -51 11 -69 8 -17 15 -39 14 -49 0 -10 2 -26 6 -35 4 -9 1 -21 -8 -28
-11 -9 -28 -10 -71 -2 -32 6 -61 9 -65 6 -4 -2 -6 -18 -4 -35 2 -17 17 -45 34
-63 16 -18 30 -36 30 -42 0 -5 -7 -23 -15 -39 -8 -15 -15 -34 -15 -41 0 -7 -7
-18 -16 -26 -11 -9 -14 -22 -10 -42 3 -17 11 -36 17 -44 6 -7 22 -13 34 -13
12 0 33 8 46 18 13 10 32 21 42 25 9 3 17 11 17 16 0 5 9 12 19 16 14 4 29 -4
54 -30 19 -19 41 -35 49 -35 9 0 19 10 23 23 4 12 6 28 5 36 -1 8 -11 26 -22
41 -11 15 -18 35 -16 45 1 9 21 27 43 39 22 12 46 25 53 29 9 7 9 12 -3 23 -8
9 -15 24 -15 35 0 15 -8 19 -37 21 -21 0 -43 2 -50 2 -7 1 -17 6 -24 13 -6 6
-8 16 -5 22 4 6 13 11 21 11 7 0 17 10 20 23 4 12 19 47 33 77 15 30 30 57 35
58 4 2 7 10 7 17 0 8 8 30 18 49 9 20 23 38 31 41 8 3 30 1 50 -5 20 -7 43
-14 51 -17 8 -4 17 -7 20 -8 3 -1 25 -8 50 -15 25 -8 68 -26 96 -41 27 -14 61
-29 75 -32 13 -3 29 -14 35 -24 8 -14 8 -43 -1 -113 -6 -52 -9 -105 -7 -117 3
-15 12 -23 25 -23 11 0 44 23 73 50 29 28 58 50 65 50 6 0 26 -16 45 -35 25
-27 41 -35 68 -35 26 0 40 6 51 24 14 21 14 26 -2 54 -15 27 -16 33 -3 59 8
15 22 39 32 52 10 13 18 21 18 17 0 -4 10 -1 23 5 12 7 26 18 30 26 5 7 12 11
18 8 5 -4 20 6 34 22 13 15 25 33 25 40 0 7 -9 17 -19 23 -11 5 -40 10 -65 10
-24 0 -57 5 -73 11 -15 6 -60 10 -100 10 l-72 -1 -17 58 c-9 31 -18 63 -20 71
-3 10 -14 11 -42 6 -20 -4 -40 -12 -44 -18 -3 -5 -6 -30 -5 -54 0 -24 -5 -49
-11 -55 -8 -8 -20 -5 -47 13 -19 13 -35 28 -35 32 0 4 -20 16 -44 27 -24 10
-67 40 -95 67 -28 27 -51 54 -51 60 0 7 14 36 31 65 17 29 49 71 70 93 22 22
39 43 39 47 0 5 4 8 10 8 5 0 31 -14 57 -30 26 -17 57 -30 69 -30 12 0 27 6
33 14 7 9 10 36 6 77 -6 64 -5 65 25 83 17 10 37 15 44 13 8 -3 18 5 25 19 6
14 11 33 11 44 0 10 -6 22 -12 27 -7 4 -33 9 -58 11 -24 1 -48 6 -51 10 -4 4
-14 33 -23 65 -9 31 -21 57 -26 57 -5 0 -25 -9 -44 -21 -20 -12 -37 -26 -37
-32 -1 -7 -1 -15 -1 -19 1 -3 -5 -12 -13 -18 -8 -7 -15 -23 -15 -37 0 -13 -6
-26 -14 -29 -7 -3 -30 5 -51 17 -31 18 -38 20 -46 8 -5 -8 -9 -19 -9 -25 0 -6
-7 -17 -15 -24 -14 -12 -12 -17 15 -45 l31 -32 -48 -23 c-26 -13 -60 -35 -74
-50 -14 -15 -49 -35 -79 -45 l-54 -18 -28 34 c-15 18 -28 39 -28 46 0 7 -4 13
-10 13 -5 0 -10 6 -10 14 0 8 10 16 23 20 13 3 36 17 51 31 l28 26 -22 24
c-13 14 -39 30 -59 36 -20 6 -40 15 -44 19 -5 4 -10 34 -12 67 -1 33 -8 70
-14 82 -7 12 -21 21 -36 21 -18 0 -35 -15 -67 -60 l-42 -60 -83 4 c-71 3 -83
1 -83 -13 0 -9 -3 -26 -6 -38 -5 -18 -1 -25 22 -33 16 -6 39 -21 51 -32 18
-16 20 -25 12 -40 -6 -10 -21 -24 -35 -30 -23 -11 -23 -13 -9 -34 8 -13 15
-31 15 -40 0 -13 7 -15 33 -11 17 3 49 10 69 15 30 8 40 7 52 -7 8 -9 17 -42
21 -74 l7 -57 -33 -14 c-19 -8 -62 -20 -97 -27 -59 -12 -68 -12 -126 9 -35 13
-70 20 -80 16 -9 -3 -24 0 -34 8 -9 7 -28 19 -42 25 -14 7 -36 15 -50 18 -14
4 -54 18 -90 32 -36 13 -85 33 -109 44 -24 11 -73 31 -110 45 -36 13 -106 38
-156 54 -49 17 -102 37 -117 45 -14 8 -32 15 -40 15 -7 0 -38 13 -68 29 l-55
28 3 53 c2 28 10 70 18 93 8 22 17 65 20 96 3 31 9 65 14 76 5 11 18 98 30
193 19 152 25 176 46 199 20 22 23 33 19 68 -4 26 1 68 14 117 11 42 23 91 25
109 3 19 10 51 15 72 5 21 15 45 23 55 7 9 30 35 50 57 21 22 38 46 38 53 0 6
5 12 10 12 6 0 10 7 10 15 0 10 10 15 29 15 15 0 75 -14 132 -31 57 -17 113
-33 124 -37 11 -4 21 -13 23 -20 1 -7 -9 -29 -23 -50 -14 -20 -25 -49 -25 -64
0 -25 3 -28 34 -28 24 0 40 7 53 24 10 13 28 26 38 29 15 5 25 -2 43 -31 13
-20 40 -55 62 -78 21 -23 45 -44 55 -47 9 -4 14 -3 10 3 -3 6 1 10 9 10 9 0
16 5 16 10 0 6 7 10 15 10 8 0 15 8 16 18 0 9 0 37 -1 62 -1 25 -6 49 -11 55
-5 5 -9 24 -9 42 0 28 3 33 23 32 12 -1 33 3 47 8 14 6 37 23 53 38 15 15 27
33 27 40 0 7 -13 15 -30 18 -16 4 -54 2 -82 -3 -46 -9 -55 -8 -65 7 -7 9 -13
41 -13 71 l0 55 -32 -7 c-22 -4 -49 -23 -79 -55 l-47 -50 -61 70 c-34 39 -61
75 -61 80 0 5 -13 28 -30 50 l-29 41 26 48 c14 27 36 52 47 55 12 4 25 8 29 9
5 0 15 12 22 26 8 14 14 34 15 44 0 11 11 39 25 63 l26 43 37 -17 c20 -9 52
-18 70 -21 29 -4 32 -2 32 23 0 14 -10 49 -22 77 -22 51 -22 51 -2 67 11 9 29
32 39 51 11 19 28 44 37 55 13 15 15 28 10 50 -5 15 -15 33 -24 39 -12 7 -29
3 -64 -15 -27 -13 -55 -30 -62 -37 -8 -7 -19 -11 -25 -9 -6 2 -19 26 -28 53
-11 30 -26 54 -42 64 -21 12 -28 12 -42 0 -12 -10 -15 -23 -11 -49 3 -20 2
-54 -2 -76 -6 -34 -12 -42 -42 -52 -19 -7 -52 -12 -74 -12 -34 -1 -38 -3 -33
-23 4 -12 1 -28 -5 -35 -8 -10 5 -20 58 -44 l69 -30 -25 -20 c-14 -11 -41 -31
-60 -43 -19 -13 -48 -38 -64 -55 -17 -17 -34 -31 -39 -31 -4 0 -36 26 -69 58
-34 31 -69 70 -78 85 l-18 29 62 52 c33 29 62 60 64 69 2 9 -6 26 -17 38 -11
12 -24 18 -30 14 -6 -3 -21 -8 -33 -10 -13 -3 -31 -2 -40 1 -14 4 -18 20 -20
95 -3 86 -4 91 -30 107 -26 16 -28 15 -50 -12 -13 -16 -32 -56 -44 -90 -16
-48 -25 -61 -40 -59 -10 2 -30 4 -44 7 -14 2 -32 6 -40 9 -8 3 -36 8 -62 11
-36 4 -47 2 -52 -10 -3 -9 -6 -24 -6 -35 0 -11 13 -27 28 -37 16 -9 55 -41 87
-70 45 -41 56 -57 52 -75 -3 -12 -9 -32 -12 -44 -6 -18 -3 -23 10 -23 10 0 24
-8 31 -17 12 -17 14 -17 43 0 l31 18 1 -53 c1 -29 1 -66 0 -83 0 -16 -1 -67
-1 -112 0 -78 -1 -82 -31 -107 -17 -14 -37 -26 -45 -26 -8 0 -17 -7 -20 -15
-4 -8 -18 -15 -34 -15 -16 0 -35 -3 -44 -6 -9 -3 -13 -11 -9 -18 4 -7 3 -8 -4
-1 -5 6 -15 29 -21 52 -7 22 -20 51 -30 63 -12 15 -25 21 -38 16 -10 -3 -24
-14 -29 -24 -6 -10 -15 -29 -22 -43 -6 -13 -17 -38 -24 -55 -12 -30 -15 -32
-103 -42 -75 -10 -94 -15 -108 -34 -17 -22 -16 -24 5 -40 12 -10 40 -23 62
-29 22 -6 47 -14 55 -19 9 -4 14 -20 14 -36 -1 -16 -5 -45 -9 -65 l-7 -35 40
0 c28 1 48 8 64 24 14 12 26 21 29 20 2 -2 3 -1 2 1 -2 2 2 10 8 17 8 9 18 10
42 3 18 -6 43 -16 57 -23 14 -8 31 -11 38 -9 6 3 12 11 12 19 0 8 7 14 16 14
14 0 16 7 10 45 l-6 46 41 -3 c22 -1 43 -6 46 -11 3 -6 5 -43 4 -84 -2 -68 -6
-79 -38 -124 -19 -27 -39 -49 -44 -49 -5 0 -9 -5 -9 -10 0 -6 -16 -33 -35 -60
-19 -27 -35 -57 -35 -65 0 -8 -7 -23 -15 -32 -8 -10 -49 -61 -91 -113 -42 -52
-88 -110 -103 -128 -14 -19 -33 -41 -42 -50 -9 -9 -30 -35 -45 -58 -16 -23
-42 -59 -58 -80 -17 -21 -43 -54 -60 -72 -26 -27 -35 -32 -60 -26 -16 3 -37
16 -46 27 -11 13 -28 20 -48 19 -18 0 -32 3 -32 8 0 4 -21 20 -46 34 -26 14
-52 26 -59 26 -6 0 -47 18 -91 40 -43 21 -90 46 -104 54 -14 9 -42 22 -64 31
l-39 15 50 53 c27 28 62 71 78 95 15 23 31 42 36 42 4 0 14 -12 21 -27 7 -15
25 -30 40 -34 19 -5 31 -2 43 11 8 9 20 46 26 81 6 35 18 70 27 77 9 6 28 12
42 12 14 0 36 9 48 20 13 12 22 33 22 50 0 18 -8 34 -22 44 -12 9 -30 16 -40
16 -10 0 -25 11 -34 25 -9 14 -17 36 -18 50 0 14 -7 25 -14 25 -7 0 -22 -5
-33 -11 -12 -6 -29 -18 -39 -27 -11 -8 -29 -17 -42 -18 -13 -1 -28 3 -35 8 -7
5 -21 7 -33 3 -11 -3 -20 -11 -20 -17 0 -6 -8 -17 -17 -24 -17 -12 -17 -15 0
-60 14 -38 15 -49 5 -56 -8 -5 -18 -1 -27 10 -13 16 -13 16 -8 0 4 -12 -1 -19
-16 -24 -12 -5 -26 -7 -30 -6 -4 1 -18 -4 -30 -13 -12 -8 -31 -15 -42 -15 -12
0 -26 -5 -32 -11 -6 -6 -21 -9 -34 -7 -17 2 -25 12 -32 38 -5 19 -15 42 -22
50 -7 8 -23 32 -34 54 -17 29 -19 41 -10 52 6 8 20 14 30 14 11 0 27 4 37 8 9
5 31 15 47 23 20 10 31 23 33 39 1 14 -1 31 -6 37 -6 9 -21 10 -62 3 -30 -6
-73 -11 -95 -13 l-40 -2 -2 62 c-1 53 2 65 19 77 17 12 19 21 14 53 -3 21 -9
57 -12 81 l-7 42 42 0 c23 0 55 7 71 15 17 9 30 20 30 25 0 6 -6 9 -12 8 -7
-2 -12 5 -12 15 2 14 -7 17 -45 17 -25 0 -51 4 -58 8 -6 4 -15 21 -19 37 -4
17 -8 39 -8 50 -1 16 -9 21 -38 23 -21 2 -38 0 -38 -5 -1 -4 -10 -19 -21 -32
-19 -23 -20 -23 -34 -5 -8 10 -20 30 -27 44 -7 14 -32 58 -55 98 -24 41 -43
78 -43 83 0 5 29 37 64 72 35 35 79 76 98 91 20 14 42 24 50 21 9 -4 30 -26
47 -50 17 -24 36 -47 40 -50 5 -3 16 -2 25 1 9 3 16 12 16 18 0 7 6 18 13 24
6 7 12 16 12 20 0 4 8 26 18 49 14 30 25 41 41 41 13 0 36 6 52 13 21 10 30
22 32 44 3 27 -2 33 -36 48 -24 11 -42 26 -46 40 -3 12 -3 38 0 58 4 20 1 46
-6 58 -8 17 -17 20 -33 15 -12 -3 -45 -31 -73 -61 -50 -53 -52 -54 -100 -51
-34 2 -49 -1 -49 -10 0 -7 -6 -16 -13 -21 -11 -7 -12 -12 -1 -29 10 -16 10
-22 -2 -34 -8 -8 -46 -21 -84 -28 -39 -7 -92 -22 -119 -33 l-49 -21 -16 24
c-9 13 -21 37 -27 54 -6 17 -15 39 -19 48 -5 13 0 19 22 23 15 4 43 11 61 17
17 5 32 14 32 19 0 5 -8 21 -17 35 -9 14 -33 36 -53 49 l-37 23 10 55 c5 30 7
70 3 90 -4 21 -12 38 -19 38 -7 1 -21 2 -32 3 -11 1 -37 -16 -57 -37 -21 -21
-38 -43 -38 -48 0 -6 -10 -7 -22 -4 -13 4 -38 18 -56 32 -18 13 -40 23 -49 21
-9 -2 -20 -16 -24 -32 -5 -17 -4 -35 1 -40 4 -6 9 -15 11 -21 1 -5 8 -24 16
-42 7 -18 13 -36 13 -40 0 -4 -12 -19 -26 -35 -26 -26 -26 -28 -11 -51 12 -19
28 -26 73 -32 l56 -7 -7 -46 c-4 -26 -11 -72 -14 -102 l-6 -55 -47 -9 c-39 -8
-51 -6 -74 10 -15 10 -34 24 -42 29 -9 6 -30 23 -47 38 -16 16 -48 41 -70 55
-22 15 -57 43 -78 62 -22 19 -69 56 -105 82 -37 25 -113 77 -170 115 l-102 68
6 45 c3 25 11 51 17 59 7 7 12 19 12 25 0 6 8 36 18 66 10 30 27 96 37 145 11
50 22 103 24 119 3 15 9 33 14 40 5 6 15 31 22 56 8 25 21 56 31 70 9 14 24
39 33 57 9 18 18 51 21 74 3 24 9 48 14 53 5 6 11 33 15 60 3 27 14 64 25 81
10 17 28 62 41 100 13 38 33 80 46 93 l22 25 126 -10 c69 -5 129 -12 133 -16
3 -4 -4 -33 -17 -64 -17 -40 -20 -60 -13 -72 6 -9 19 -17 29 -19 11 -2 33 9
49 23 17 14 39 24 50 23 10 -2 29 -18 41 -36 12 -18 36 -48 52 -66 17 -19 40
-36 52 -38 13 -2 27 4 33 14 8 12 8 29 -1 62 -6 24 -25 68 -42 96 -17 29 -28
55 -25 58 2 3 28 13 56 23 29 10 62 25 75 34 13 8 24 22 24 30 0 8 -5 15 -12
15 -6 0 -19 7 -28 15 -13 12 -27 13 -63 6 -26 -5 -62 -5 -80 -2 -29 6 -33 12
-40 51 -5 25 -11 56 -13 68 -3 16 -10 22 -19 18 -8 -3 -15 -1 -15 4 0 6 -6 10
-14 10 -8 0 -17 -14 -21 -32 -4 -18 -12 -45 -18 -60 -7 -16 -15 -28 -19 -28
-5 0 -8 3 -8 8 0 4 -21 29 -46 56 -25 27 -52 59 -60 71 -13 21 -13 27 8 71 13
27 31 58 41 68 9 11 17 24 17 30 0 5 18 31 40 57 22 26 40 57 40 68 0 12 4 21
9 21 6 0 13 -4 16 -10 3 -5 19 -10 36 -10 16 0 29 -4 29 -8 0 -4 28 -22 63
-40 38 -20 70 -30 80 -26 10 3 20 17 23 31 6 21 -3 34 -55 83 -33 32 -61 65
-61 72 0 7 32 38 71 68 38 30 74 57 79 58 6 2 10 14 10 27 0 12 -6 27 -12 32
-7 6 -28 11 -46 11 -18 0 -62 -10 -97 -23 l-64 -25 -16 38 c-9 20 -20 44 -24
52 -5 8 -17 16 -27 18 -11 1 -25 -7 -32 -19 -8 -12 -16 -46 -19 -76 -4 -35
-11 -57 -22 -62 -9 -4 -40 -9 -70 -10 -30 -1 -59 -5 -64 -8 -4 -3 -6 -11 -3
-19 3 -7 1 -16 -4 -19 -6 -4 -10 -12 -10 -19 0 -8 24 -22 52 -32 32 -12 54
-26 56 -37 2 -9 -3 -17 -10 -17 -8 0 -30 -16 -49 -36 -18 -20 -43 -40 -54 -45
-11 -5 -33 -18 -50 -29 -16 -11 -35 -22 -42 -26 -7 -3 -30 9 -53 27 -22 18
-51 47 -63 63 -13 17 -26 39 -30 48 -3 9 2 25 12 37 10 12 23 21 28 21 5 0 21
12 35 28 17 17 26 37 25 54 -1 16 -4 28 -7 29 -3 0 -27 3 -54 5 -28 3 -55 9
-61 14 -7 5 -17 41 -24 78 -7 38 -11 73 -10 78 2 5 0 19 -5 32 -5 15 -15 22
-34 22z m-16 -280 c9 0 14 -12 14 -35 0 -24 -5 -35 -14 -35 -8 0 -17 4 -21 10
-3 5 -3 21 1 35 3 14 12 25 20 25z m124 -310 c6 0 13 -7 16 -15 3 -8 3 -19 -1
-26 -6 -8 -10 -7 -16 2 -5 8 -9 20 -9 27 0 6 5 12 10 12z m80 -114 c21 0 21 0
-2 -18 -13 -10 -27 -18 -31 -18 -4 0 -3 8 2 18 5 10 19 18 31 18z m50 -46 c6
0 -3 -23 -19 -52 -16 -28 -36 -55 -44 -59 -7 -5 -23 -5 -35 -2 -12 3 -22 12
-22 19 0 8 1 17 2 22 1 4 9 6 16 4 8 -2 20 5 27 14 7 10 11 24 8 31 -4 10 3
11 26 7 20 -4 31 -3 31 5 0 6 5 11 10 11z m-1725 -83 c14 -15 25 -36 25 -46 0
-11 -6 -21 -12 -23 -7 -3 -19 -3 -25 -1 -8 3 -13 23 -13 51 l1 47 24 -28z
m1826 -5 c4 -11 12 -23 18 -27 6 -3 11 -10 11 -16 0 -5 -16 -9 -36 -9 -32 0
-35 2 -28 23 3 12 11 28 17 35 9 11 12 10 18 -6z m-1601 -132 c26 0 40 -5 40
-12 -1 -7 -9 -28 -19 -47 -14 -26 -20 -31 -27 -20 -5 8 -15 25 -21 38 -7 13
-13 27 -13 32 0 5 18 9 40 9z m-180 -41 c32 0 50 -4 50 -11 0 -6 -7 -19 -15
-28 -9 -10 -13 -24 -9 -33 3 -9 18 -17 32 -19 16 -2 32 -13 41 -30 12 -21 13
-30 3 -50 -7 -12 -20 -35 -28 -50 -8 -16 -18 -28 -22 -28 -4 1 -28 20 -55 44
-46 42 -47 43 -52 114 -3 40 -3 76 -1 81 3 5 28 9 56 10z m-241 -9 c27 0 56
-3 65 -6 10 -4 16 -18 16 -40 l0 -34 -65 32 c-35 18 -65 36 -65 41 0 4 22 7
49 7z m392 -292 c7 -2 15 -10 17 -17 3 -8 -1 -12 -9 -9 -7 2 -15 10 -17 17 -3
8 1 12 9 9z m-172 -20 c15 -9 17 -16 10 -30 -5 -10 -14 -18 -19 -18 -6 0 -10
14 -10 30 0 27 2 29 19 18z m1421 -53 c5 -3 0 -27 -11 -53 -11 -26 -26 -60
-33 -77 -8 -16 -19 -59 -26 -95 -6 -36 -17 -71 -23 -79 -7 -8 -11 -17 -10 -20
1 -3 0 -17 -3 -31 -3 -14 -12 -51 -20 -82 -8 -31 -15 -77 -16 -102 0 -25 -6
-50 -13 -56 -7 -6 -19 -33 -25 -60 l-12 -49 -38 19 c-21 10 -40 26 -43 35 -4
8 -12 15 -20 15 -7 0 -32 18 -56 40 -23 22 -49 40 -57 40 -8 0 -14 5 -14 10 0
6 5 10 10 10 6 0 15 10 21 23 5 12 25 45 44 72 19 28 40 59 47 69 7 10 23 31
36 46 12 15 22 31 22 35 0 4 11 21 24 39 14 17 43 54 66 81 22 28 63 78 91
113 28 34 54 60 59 57z m-995 -205 c8 0 56 -41 107 -90 51 -50 122 -110 158
-134 36 -25 86 -63 110 -85 25 -23 48 -41 51 -41 4 0 10 -7 13 -15 3 -9 -6
-34 -19 -55 -14 -22 -29 -40 -34 -40 -4 0 -21 -19 -37 -42 -16 -24 -47 -63
-70 -87 -23 -24 -46 -41 -52 -37 -5 3 -21 29 -34 58 -14 29 -34 73 -45 98 -11
25 -27 72 -35 105 -9 33 -21 76 -28 95 -7 19 -17 43 -21 52 -5 10 -9 25 -9 34
0 8 -9 39 -21 67 -11 29 -27 67 -35 85 -12 28 -12 32 1 32z m-606 -70 c4 0 15
-6 26 -13 13 -10 16 -21 11 -40 -3 -15 -10 -27 -14 -27 -4 0 -16 14 -25 30
-10 17 -15 35 -12 40 3 6 10 10 14 10z m1129 -364 c9 -2 18 -8 20 -15 2 -6 17
-18 34 -27 17 -9 64 -43 105 -77 64 -52 73 -64 69 -86 -3 -14 -8 -47 -12 -73
-3 -26 -12 -53 -20 -59 -8 -6 -14 -26 -15 -43 0 -17 -6 -47 -12 -66 -11 -31
-16 -35 -41 -32 -16 2 -32 -1 -36 -8 -4 -6 -5 -22 -2 -35 2 -13 13 -26 24 -28
18 -5 20 -11 13 -44 -4 -21 -8 -45 -10 -53 -1 -9 -18 -18 -41 -22 -21 -4 -69
-7 -106 -7 l-67 -1 -30 63 c-16 34 -41 95 -55 135 -14 40 -33 86 -41 102 -8
16 -15 48 -15 70 0 36 6 47 50 90 28 27 50 53 50 58 0 5 25 35 55 67 30 31 55
62 55 69 0 7 3 15 6 18 3 3 13 5 22 4z m321 -247 c9 0 50 -25 91 -55 41 -30
109 -77 152 -105 42 -27 79 -56 82 -64 3 -8 12 -15 19 -15 8 0 37 -22 65 -48
29 -27 53 -48 55 -48 1 1 -1 -3 -5 -8 -3 -4 -59 -8 -122 -9 -81 0 -116 -3
-116 -11 0 -7 -26 -18 -59 -25 -32 -7 -107 -14 -167 -14 -92 -2 -108 0 -105
13 2 8 8 33 12 55 5 22 14 69 19 104 6 35 17 78 24 95 8 17 20 55 27 84 9 36
18 52 28 51z m-637 -167 c3 -4 16 -36 28 -71 12 -36 30 -82 41 -102 10 -21 19
-45 19 -54 0 -8 5 -15 10 -15 6 0 10 -6 10 -13 0 -10 -34 -17 -122 -27 -68 -7
-135 -14 -149 -15 -15 -2 -36 -6 -48 -10 -11 -3 -21 -2 -21 3 0 5 9 12 19 15
11 2 28 22 39 43 11 22 29 48 41 58 12 11 21 28 21 38 0 10 9 29 21 41 11 12
30 40 41 62 11 22 26 43 32 47 6 4 14 4 18 0z m-4112 -142 c4 0 15 -3 24 -6 9
-3 16 -17 16 -29 0 -13 -4 -26 -9 -29 -4 -3 -18 5 -31 19 -12 13 -19 28 -15
34 3 6 10 11 15 11z m5850 -21 c9 1 2 -12 -18 -31 -27 -28 -34 -31 -42 -18 -5
8 -8 19 -7 25 2 5 14 12 28 16 13 4 31 7 39 8z m-5706 -9 c9 0 16 -2 16 -4 0
-3 -4 -7 -9 -11 -5 -3 -12 -1 -16 5 -3 5 1 10 9 10z m5542 -50 c8 0 14 -2 14
-4 0 -2 -3 -12 -6 -20 -5 -13 -9 -14 -20 -5 -8 6 -11 15 -8 20 3 5 12 9 20 9z
m-69 -30 c1 0 0 -7 -3 -15 -4 -8 -1 -22 6 -30 7 -8 19 -15 26 -15 8 0 22 8 33
19 12 12 23 16 32 10 11 -7 7 -14 -16 -34 -16 -13 -39 -24 -51 -25 -11 0 -30
9 -42 20 -14 13 -19 26 -15 38 4 9 11 20 17 24 6 4 12 8 13 8z m-321 -22 c20
1 55 -8 77 -20 23 -11 55 -30 71 -41 l29 -20 -7 -86 c-6 -79 -9 -88 -39 -119
-30 -31 -35 -33 -77 -27 -25 4 -63 13 -85 21 -36 12 -41 12 -52 -3 -7 -9 -13
-23 -13 -30 0 -8 20 -33 45 -57 25 -25 45 -52 45 -61 0 -9 -26 -40 -57 -69
-55 -53 -56 -54 -44 -85 7 -16 22 -33 33 -37 11 -3 25 -1 31 5 6 6 19 11 28
11 9 0 22 7 29 15 7 8 19 13 29 12 9 -2 29 -15 45 -30 16 -15 34 -27 41 -27 7
0 20 9 30 20 9 10 21 41 26 67 6 30 18 55 32 66 12 9 41 27 63 38 39 20 42 24
40 61 -1 35 -4 39 -26 37 -14 0 -33 -1 -42 0 -13 1 -1 19 42 64 33 34 60 65
60 70 0 4 5 7 11 7 7 0 30 -15 53 -33 23 -17 66 -49 97 -70 31 -21 65 -47 75
-58 17 -19 17 -20 -9 -47 -15 -16 -27 -35 -27 -44 0 -8 7 -22 16 -29 13 -11
24 -10 65 4 27 10 54 15 60 12 6 -4 14 -17 20 -28 5 -12 16 -32 25 -44 14 -20
14 -23 2 -23 -8 0 -22 -8 -30 -17 -9 -10 -19 -37 -23 -61 -6 -36 -10 -42 -26
-37 -10 3 -34 3 -54 -1 -20 -3 -39 -13 -42 -21 -3 -9 11 -32 36 -57 31 -32 40
-47 35 -62 -4 -10 -16 -31 -26 -46 -11 -16 -15 -28 -8 -28 6 0 8 -4 5 -10 -3
-5 1 -10 9 -10 8 0 19 -7 24 -17 9 -15 12 -14 38 6 15 12 31 18 35 14 4 -4 10
-51 14 -104 l7 -97 -49 -18 c-26 -9 -52 -21 -58 -24 -5 -4 -33 -10 -62 -13
-49 -6 -52 -5 -61 21 -6 15 -18 51 -27 79 -9 29 -21 55 -26 59 -6 3 -16 1 -23
-5 -7 -6 -15 -9 -18 -6 -2 3 -14 -15 -26 -39 -12 -24 -22 -52 -22 -62 0 -10
-4 -25 -9 -33 -7 -12 -15 -11 -52 1 -37 12 -48 12 -71 1 -21 -10 -28 -22 -28
-42 0 -19 9 -34 30 -49 16 -12 34 -22 39 -22 5 0 23 -11 40 -25 l30 -26 -26
-50 c-13 -28 -22 -53 -18 -57 3 -4 22 -7 41 -9 23 -1 47 6 71 23 l36 24 23
-21 c13 -12 28 -18 35 -14 6 5 24 8 38 9 25 1 26 3 23 47 -2 32 1 48 10 51 7
2 48 -2 92 -10 l79 -15 -7 -86 c-4 -47 -12 -91 -18 -98 -7 -9 -16 -10 -28 -3
-10 6 -34 10 -54 10 -28 0 -35 -4 -38 -22 -2 -13 4 -39 14 -58 10 -19 24 -43
30 -52 10 -14 8 -22 -12 -45 -14 -15 -33 -42 -43 -60 -11 -20 -15 -42 -11 -57
3 -13 12 -27 19 -30 8 -3 32 4 54 15 23 11 41 24 41 30 0 6 12 9 28 7 16 -2
31 -12 37 -25 5 -13 15 -23 21 -23 6 0 25 5 41 11 29 10 31 13 26 50 -4 25 -1
45 8 55 8 9 33 25 56 35 24 10 43 25 43 33 0 8 -5 18 -11 22 -8 4 -7 9 2 14
10 7 10 12 0 23 -6 8 -28 15 -47 15 -20 0 -40 4 -44 9 -5 4 29 45 75 90 84 81
85 82 100 60 8 -12 15 -31 15 -43 0 -12 4 -24 8 -26 5 -1 37 -55 71 -118 35
-63 78 -128 95 -145 18 -16 47 -51 64 -77 18 -26 32 -53 31 -60 0 -7 -49 -55
-110 -107 -60 -52 -109 -97 -109 -100 0 -3 -29 -36 -63 -72 l-62 -66 -70 18
c-39 10 -81 18 -95 18 -14 0 -58 4 -98 10 -41 6 -90 15 -110 20 -20 5 -111 12
-202 15 -91 3 -212 10 -270 16 -58 5 -141 12 -185 15 -44 3 -96 7 -115 10 -19
3 -66 7 -103 9 -38 2 -72 8 -77 12 -4 5 -15 41 -24 79 -10 39 -23 107 -31 151
-7 45 -18 91 -24 102 -6 11 -11 39 -11 61 0 22 -4 50 -9 63 -6 13 -24 86 -41
163 -17 77 -35 148 -41 158 -5 9 -12 38 -16 62 -3 25 -10 48 -14 51 -5 3 -9
15 -9 28 0 12 -3 26 -7 30 -5 4 -8 15 -9 24 0 9 -8 44 -18 77 -9 33 -28 101
-42 150 -14 50 -32 100 -40 112 -8 12 -14 30 -14 40 0 10 -7 32 -16 48 -9 17
-17 37 -19 45 -2 8 -15 51 -29 95 -14 44 -30 86 -35 94 -6 9 -3 29 9 55 10 23
34 86 54 142 20 56 36 114 36 131 0 16 6 37 13 46 7 10 31 19 57 21 25 3 119
14 210 26 91 11 172 23 180 25 8 3 58 7 110 10 52 3 96 7 97 9 2 1 19 3 39 4z
m-1766 -78 c5 0 14 -9 20 -20 8 -15 6 -21 -9 -30 -13 -7 -22 -7 -26 0 -3 6 -3
19 0 30 4 11 10 20 15 20z m911 0 c38 0 69 -4 69 -10 0 -5 -6 -29 -14 -52 -8
-24 -23 -75 -35 -115 -12 -40 -26 -75 -31 -78 -5 -3 -17 20 -26 52 -9 32 -24
85 -34 118 -12 42 -15 64 -8 73 7 7 36 12 79 12z m1335 -40 c7 0 18 -9 24 -19
5 -11 10 -27 10 -35 0 -9 -4 -16 -9 -16 -5 0 -19 8 -31 18 -14 11 -19 23 -15
35 4 9 13 17 21 17z m1947 -85 c17 -7 33 -20 35 -28 2 -9 -6 -24 -17 -34 -11
-10 -26 -24 -35 -30 -8 -7 -18 -13 -22 -13 -3 0 -4 24 0 53 3 28 6 55 6 59 0
4 15 1 33 -7z m-7552 -17 c8 -3 18 -18 24 -34 5 -16 16 -33 23 -39 7 -5 14
-20 17 -33 2 -12 7 -27 10 -32 4 -6 -8 -10 -29 -10 -19 0 -38 5 -42 11 -3 6
-9 40 -12 76 -4 53 -2 65 9 61z m1880 -48 c5 0 9 -7 9 -15 0 -8 -7 -15 -15
-15 -9 0 -12 6 -9 15 4 8 10 15 15 15z m5797 -54 c11 -11 11 -17 1 -34 -13
-20 -13 -20 -26 6 -11 21 -11 27 -1 33 8 5 19 3 26 -5z m-8205 -46 c15 0 27
-4 27 -10 0 -5 -6 -10 -12 -10 -7 0 -20 5 -28 10 -12 8 -9 10 13 10z m2367
-10 c11 -6 20 -17 20 -25 0 -7 -5 -17 -11 -20 -6 -4 -12 -5 -13 -4 -2 2 -6 17
-10 32 -6 26 -5 27 14 17z m5779 -5 c14 -4 28 -8 30 -11 2 -2 -2 -11 -9 -19
-9 -11 -16 -13 -24 -5 -5 5 -19 10 -29 10 -17 0 -17 2 -6 16 8 10 21 13 38 9z
m-2379 -50 c4 -3 9 -8 11 -12 1 -5 -5 -9 -14 -11 -12 -3 -15 1 -11 13 4 9 10
13 14 10z m2313 5 c4 0 7 -4 7 -10 0 -5 11 -12 25 -16 14 -3 25 -9 25 -12 0
-3 -10 -16 -22 -29 -14 -15 -33 -23 -56 -23 -33 0 -34 1 -28 31 3 18 14 38 24
45 9 7 20 14 25 14z m-7714 -25 c18 -2 46 -7 62 -10 22 -5 29 -12 29 -31 0
-13 -2 -24 -5 -24 -2 0 -28 14 -57 31 -29 17 -55 33 -57 35 -2 2 11 2 28 -1z
m404 3 c6 -3 13 -17 15 -31 2 -15 -1 -27 -6 -27 -5 0 -15 7 -22 15 -7 8 -9 22
-6 31 3 8 12 14 19 12z m7509 1 c5 1 21 -20 38 -46 16 -27 30 -54 30 -61 0 -8
-7 -11 -17 -8 -10 2 -37 10 -60 17 -32 9 -43 17 -43 32 0 11 10 30 23 42 12
13 25 23 29 24z m-7640 -11 c4 1 16 -8 27 -20 11 -12 26 -37 32 -57 6 -20 15
-40 19 -46 4 -5 10 -20 13 -32 3 -13 0 -34 -6 -48 -7 -14 -17 -25 -23 -25 -6
0 -16 6 -22 13 -6 7 -10 33 -10 57 1 25 6 48 11 51 6 4 7 14 4 23 -4 9 -13 16
-22 16 -9 0 -15 -9 -15 -22 -1 -13 -9 -32 -18 -44 -10 -11 -25 -21 -34 -21 -9
0 -25 19 -37 42 -12 23 -21 56 -21 73 0 30 2 31 48 35 26 2 50 4 54 5z m4120
-230 c7 -3 32 -42 55 -88 24 -46 43 -90 43 -97 0 -8 8 -28 17 -46 9 -18 36
-88 61 -157 24 -69 49 -145 57 -170 7 -25 17 -56 23 -70 5 -14 17 -69 27 -123
13 -74 22 -100 36 -108 12 -6 19 -21 19 -37 0 -16 4 -32 8 -37 5 -6 21 -82 36
-170 16 -88 33 -187 40 -220 7 -33 11 -67 9 -76 -4 -14 -39 -16 -360 -11 -264
3 -378 1 -440 -8 -46 -7 -86 -11 -89 -8 -3 4 -1 21 4 40 6 18 18 56 27 83 10
28 21 59 25 70 4 11 12 31 18 45 5 14 13 32 16 40 3 8 10 22 15 30 5 8 16 31
24 50 9 19 31 87 51 150 19 63 49 171 66 239 17 68 33 143 36 165 3 22 9 45
14 50 6 6 10 20 10 32 0 12 7 51 16 86 9 35 27 87 40 116 13 29 24 57 24 63 0
5 14 39 30 74 17 35 30 71 30 80 0 9 6 15 12 13z m-4198 -28 c3 0 26 -14 52
-32 l47 -31 -37 -34 c-20 -19 -41 -31 -47 -27 -7 4 -9 22 -5 45 3 21 2 40 -4
44 -5 3 -10 13 -10 21 0 8 2 14 4 14z m2015 0 c11 0 23 -5 26 -11 4 -5 -1 -19
-11 -30 -15 -17 -19 -18 -32 -5 -8 8 -12 22 -9 30 4 9 15 16 26 16z m6063 -22
c7 -3 13 -10 13 -16 0 -7 -4 -13 -10 -14 -5 -2 -11 5 -13 16 -3 12 1 17 10 14z
m-6203 -28 c6 0 11 -2 11 -4 0 -2 -6 -18 -14 -36 -7 -18 -16 -28 -20 -22 -3 6
-2 13 4 17 6 4 8 11 5 16 -4 5 -1 9 5 9 6 0 8 5 5 10 -3 6 -1 10 4 10z m-149
-62 c8 -2 16 -16 18 -31 3 -26 1 -28 -20 -22 -13 4 -29 12 -36 18 -11 9 -11
13 4 24 10 8 25 12 34 11z m194 -18 c5 0 1 -9 -10 -21 -12 -13 -20 -16 -22 -9
-3 7 2 16 9 21 8 5 18 9 23 9z m-45 -56 c1 -2 0 -7 -4 -13 -3 -6 -13 -11 -21
-11 -8 0 -14 4 -14 9 0 5 8 11 18 13 9 3 19 3 21 2z m102 -34 c4 0 10 -7 13
-16 3 -9 6 -20 6 -25 0 -5 -8 -9 -19 -9 -10 0 -24 6 -30 14 -10 11 -8 17 6 25
10 6 21 11 24 11z m-1379 -151 c4 1 10 -4 14 -10 3 -6 29 -26 58 -44 28 -19
75 -56 105 -84 30 -28 58 -51 63 -51 4 0 8 -4 8 -10 0 -5 6 -10 13 -10 8 0 22
-9 32 -20 10 -11 24 -20 31 -20 7 0 17 -6 21 -14 4 -7 35 -28 68 -47 33 -18
65 -37 70 -41 6 -4 30 -22 55 -40 25 -18 58 -41 73 -51 16 -10 26 -24 24 -30
-2 -7 -10 -11 -18 -10 -8 1 -34 -23 -59 -54 -25 -30 -54 -65 -65 -77 -11 -12
-54 -48 -96 -79 -42 -31 -82 -57 -89 -59 -7 -2 -14 8 -16 21 -2 13 -10 35 -18
50 -7 14 -23 47 -35 74 -11 26 -25 47 -31 47 -5 0 -9 10 -8 23 0 12 -18 58
-41 102 -24 44 -50 93 -59 110 -9 16 -34 55 -54 87 -21 31 -38 62 -38 69 0 7
-16 40 -35 75 l-35 63 27 14 c16 8 31 15 35 16z m6650 -19 c4 0 5 -15 2 -32
-3 -18 -7 -49 -9 -69 -1 -20 -6 -42 -9 -48 -4 -6 -6 -21 -5 -34 1 -12 -2 -40
-6 -62 -5 -22 -8 -49 -7 -60 1 -11 -3 -36 -8 -56 -6 -20 -12 -64 -15 -99 -2
-34 -9 -79 -16 -99 -6 -20 -15 -40 -19 -46 -3 -5 -7 -26 -8 -45 -1 -19 -5 -47
-8 -62 -3 -16 -11 -28 -17 -28 -7 0 -37 14 -67 31 -30 18 -68 38 -83 46 -16 8
-32 25 -37 37 -4 12 -24 37 -44 54 -20 18 -43 32 -51 32 -8 0 -15 3 -15 6 0 3
21 33 47 67 26 34 63 84 81 110 19 27 55 75 80 106 26 32 83 101 127 154 44
53 83 96 87 97z m-1049 -21 c15 0 27 -3 27 -7 0 -4 -21 -29 -47 -55 l-46 -47
-20 32 c-14 23 -16 37 -10 48 6 8 23 18 39 21 16 4 41 7 57 8z m-253 -59 c4 0
6 -10 6 -22 -1 -17 5 -23 19 -23 15 0 20 6 19 24 -1 22 0 23 13 6 7 -11 13
-24 13 -31 0 -7 -7 -20 -16 -28 -8 -9 -21 -16 -29 -16 -7 0 -20 3 -29 6 -10 4
-16 18 -16 38 0 18 3 36 7 39 3 4 9 7 13 7z m-4316 -110 c5 0 7 -3 4 -6 -4 -3
-3 -18 2 -34 5 -18 3 -45 -7 -76 -8 -27 -17 -56 -20 -64 -4 -8 -7 -19 -9 -25
-1 -5 -8 -26 -15 -45 -7 -19 -18 -49 -26 -67 -7 -17 -13 -36 -13 -43 0 -7 -7
-10 -16 -6 -9 3 -29 16 -46 29 -16 12 -48 39 -71 60 l-42 38 24 17 c13 9 70
63 125 119 56 56 105 102 110 103z m4338 -80 c18 0 18 -1 1 -25 -10 -13 -21
-25 -25 -25 -5 0 -8 4 -8 9 0 5 3 16 6 25 3 9 15 16 26 16z m371 -200 c7 0 17
-4 23 -9 5 -5 36 -23 69 -40 33 -17 67 -31 76 -31 9 0 24 -9 33 -19 10 -11 30
-21 44 -23 17 -2 28 -10 30 -21 2 -11 -6 -26 -20 -35 -12 -9 -40 -32 -61 -51
-28 -25 -41 -31 -49 -23 -6 6 -20 27 -32 46 -12 19 -40 61 -63 95 -24 33 -43
65 -43 70 0 6 -4 11 -10 11 -5 0 -10 7 -10 15 0 8 6 15 13 15z m-4993 -63 c19
-11 49 -32 65 -47 17 -14 47 -37 67 -51 35 -22 37 -27 32 -59 -3 -19 -12 -53
-19 -75 -7 -22 -27 -85 -44 -140 -17 -55 -39 -127 -48 -160 l-18 -59 -95 -18
c-52 -11 -110 -21 -128 -25 -18 -3 -35 -9 -38 -14 -3 -5 -16 -9 -30 -9 -13 0
-24 6 -24 14 0 7 -21 60 -46 117 -25 57 -54 132 -64 167 l-19 63 28 17 c15 9
56 42 91 72 34 30 78 71 96 89 19 19 34 41 34 48 0 7 4 13 10 13 5 0 27 15 47
34 21 18 45 35 53 38 8 3 31 -4 50 -15z m5383 -117 c4 0 31 -13 60 -30 30 -16
62 -30 72 -30 10 0 32 -11 49 -24 17 -13 40 -26 51 -30 11 -3 50 -25 86 -48
59 -39 65 -45 58 -68 -4 -14 -7 -42 -8 -63 -1 -20 -8 -63 -15 -95 -8 -31 -19
-77 -23 -102 l-8 -45 -60 3 c-33 2 -94 3 -136 2 -73 -1 -77 0 -95 27 -10 15
-28 46 -40 68 -11 22 -35 67 -53 99 -17 33 -40 69 -50 80 -11 12 -30 37 -44
56 l-23 35 85 82 c47 45 89 83 94 83z m-5119 -90 c5 0 16 -7 25 -15 9 -9 41
-34 71 -57 30 -23 85 -66 121 -95 36 -29 69 -53 73 -53 3 0 25 -18 47 -40 23
-22 39 -43 36 -47 -4 -3 -17 -7 -29 -9 -13 -1 -70 -9 -128 -18 -58 -8 -117
-19 -130 -24 -14 -5 -54 -10 -90 -11 -36 -2 -76 -3 -90 -4 -19 -2 -26 3 -28
21 -2 13 1 28 6 35 5 7 16 39 23 72 7 33 16 65 21 71 4 6 15 36 24 65 8 30 21
66 27 82 7 15 16 27 21 27z m6821 -110 c18 0 25 -5 25 -18 0 -11 -7 -19 -17
-19 -10 0 -21 5 -25 11 -4 6 -8 14 -8 19 0 4 11 7 25 7z m-1965 -30 c3 0 10
-4 16 -8 7 -4 33 -43 59 -87 27 -44 63 -103 81 -132 19 -28 34 -56 34 -61 0
-5 -76 -7 -182 -5 -101 1 -207 9 -236 15 l-53 13 98 96 c54 54 116 113 138
133 22 19 42 36 45 36z m786 -20 c33 0 44 -4 49 -19 4 -13 18 -20 47 -24 23
-3 47 -13 54 -21 6 -9 20 -16 32 -16 11 0 33 -7 49 -15 15 -7 48 -23 73 -34
25 -11 61 -24 80 -27 19 -4 44 -13 55 -21 11 -7 26 -13 35 -13 8 0 28 -7 44
-15 15 -8 37 -15 47 -15 10 0 21 -4 24 -10 3 -5 18 -10 33 -10 15 0 40 -11 56
-23 21 -17 27 -29 23 -41 -6 -14 -14 -17 -45 -11 -20 3 -83 9 -139 14 -55 4
-132 4 -170 -1 -37 -5 -139 -6 -225 -4 -86 3 -169 8 -183 12 -24 6 -26 10 -21
38 3 17 13 82 23 144 l17 112 42 0z m-6410 -10 c8 0 14 -10 14 -23 0 -12 6
-31 14 -42 7 -11 26 -57 41 -103 15 -45 32 -85 37 -88 4 -3 8 -15 8 -27 0 -12
-4 -27 -8 -34 -4 -7 -21 -14 -38 -17 -17 -3 -49 -12 -70 -20 -22 -7 -67 -19
-100 -26 -32 -7 -63 -16 -69 -20 -5 -4 -41 -15 -79 -25 -38 -9 -81 -21 -95
-27 -14 -5 -39 -11 -54 -13 -16 -2 -66 -11 -112 -20 -45 -9 -92 -15 -104 -13
-17 2 -10 12 45 58 36 30 84 72 108 93 24 20 46 37 49 37 3 0 17 10 30 23 13
12 50 45 82 72 32 28 71 61 86 75 16 14 42 35 58 48 16 12 34 22 40 22 6 0 11
4 11 8 0 4 15 14 34 20 19 7 40 19 46 27 7 8 19 15 26 15z m3259 -163 c99 2
264 0 366 -4 l186 -6 12 -116 c7 -64 19 -150 26 -191 8 -41 17 -97 21 -125 5
-27 8 -56 7 -64 -1 -7 5 -32 13 -54 8 -22 14 -54 14 -71 0 -17 6 -49 14 -71 8
-22 17 -77 21 -122 4 -46 12 -83 17 -83 6 0 8 -11 4 -24 -3 -13 -2 -26 3 -28
4 -2 10 -22 13 -45 6 -41 5 -43 -71 -116 -42 -40 -107 -102 -146 -138 -38 -35
-97 -89 -130 -120 -33 -31 -112 -103 -175 -159 -63 -57 -143 -130 -178 -164
-46 -45 -66 -58 -76 -51 -7 6 -40 32 -72 58 -33 27 -111 88 -174 138 -63 49
-128 100 -145 114 -16 13 -60 50 -97 81 -38 31 -68 59 -68 63 0 4 -15 14 -32
24 -18 10 -47 31 -65 47 -32 29 -32 29 -18 72 7 24 21 68 29 98 9 30 25 89 36
130 12 41 28 88 36 103 8 16 14 37 14 46 0 10 3 21 7 25 4 4 17 48 29 99 12
51 38 148 58 217 20 69 44 150 53 180 8 30 29 96 46 145 17 50 32 92 34 94 2
3 49 7 106 10 56 3 183 7 282 8z m-883 -22 c189 -1 355 -2 370 -3 25 -2 26 -4
16 -34 -5 -18 -19 -67 -29 -108 -11 -41 -33 -115 -50 -163 -16 -48 -36 -116
-45 -150 -8 -34 -20 -78 -25 -97 -6 -19 -13 -47 -16 -62 -3 -16 -10 -25 -16
-21 -6 3 -7 1 -3 -6 4 -6 -2 -44 -14 -84 -11 -40 -25 -81 -29 -92 -5 -11 -18
-51 -29 -90 -11 -38 -28 -100 -37 -137 -10 -38 -20 -68 -23 -68 -3 0 -42 33
-86 73 -44 39 -142 134 -216 211 -74 76 -202 206 -285 290 -82 83 -183 187
-222 231 -40 44 -96 111 -123 148 -28 37 -55 67 -60 67 -5 0 -18 14 -31 31
-15 21 -18 34 -11 41 6 6 75 10 177 10 91 0 169 -3 172 -6 4 -3 19 -6 34 -6
15 0 30 4 34 9 3 6 49 10 101 10 53 0 97 1 99 3 3 2 159 3 347 3z m1651 0 c72
-3 148 -8 167 -11 19 -2 85 -7 145 -10 61 -3 119 -9 130 -14 11 -5 101 -11
200 -14 139 -3 200 -9 270 -26 50 -13 105 -25 123 -27 17 -3 32 -9 32 -13 0
-5 -37 -35 -82 -67 -45 -32 -99 -70 -120 -85 -21 -14 -55 -40 -76 -57 -20 -18
-42 -35 -47 -39 -6 -4 -31 -24 -55 -45 -25 -21 -51 -43 -59 -49 -7 -6 -60 -50
-117 -97 -56 -47 -128 -106 -159 -131 -31 -25 -66 -53 -78 -62 -12 -10 -33
-28 -47 -41 -14 -13 -47 -41 -75 -63 -27 -21 -61 -51 -73 -66 -13 -16 -27 -28
-32 -28 -4 0 -12 12 -18 28 -6 15 -18 68 -27 117 -9 50 -20 113 -25 140 -5 28
-17 82 -25 120 -9 39 -22 102 -29 140 -8 39 -19 120 -26 180 -7 61 -16 123
-21 139 -5 16 -9 42 -9 58 l0 30 133 -7z m3909 -5 c17 0 18 -2 3 -30 -14 -26
-18 -29 -36 -19 -20 10 -20 11 -3 30 9 10 26 19 36 19z m-161 -71 c3 1 19 -11
35 -26 16 -15 32 -28 36 -28 4 0 13 -6 20 -14 10 -11 10 -14 1 -18 -7 -3 -13
-10 -13 -18 0 -7 -7 -18 -15 -25 -9 -8 -28 -10 -50 -6 -19 4 -35 11 -35 16 0
6 7 10 15 10 8 0 15 6 15 14 0 8 8 22 17 32 16 15 16 17 -2 30 -10 8 -24 14
-31 14 -7 0 -20 -7 -28 -16 -13 -13 -16 -13 -16 -1 0 8 10 19 23 25 12 6 25
11 28 11z m-7298 -50 c15 1 27 -1 27 -4 0 -2 -14 -60 -31 -127 -17 -68 -33
-130 -37 -138 -3 -8 -13 -37 -21 -64 -9 -27 -20 -49 -25 -50 -5 0 -19 29 -31
67 -13 37 -21 67 -19 67 2 0 -8 21 -21 46 -14 26 -25 51 -25 56 0 6 -7 26 -16
45 -10 19 -13 38 -8 42 5 4 43 18 84 31 41 12 80 23 85 25 6 2 22 4 38 4z
m5560 -24 c28 -4 76 -9 105 -10 30 -2 57 -6 60 -10 4 -3 0 -10 -8 -15 -8 -5
-15 -29 -17 -57 -2 -26 -5 -61 -7 -78 -1 -16 -6 -46 -10 -65 -4 -19 -10 -43
-12 -52 -3 -10 -9 -18 -13 -18 -4 0 -34 53 -65 118 -32 64 -64 129 -72 144 -8
14 -14 32 -14 38 0 10 13 11 53 5z m1919 -75 c8 0 19 -5 26 -12 7 -7 12 -16
12 -21 0 -4 -10 -7 -22 -5 -13 2 -24 11 -26 21 -2 9 3 17 10 17z m-9064 -154
c18 -2 33 -14 45 -35 l19 -31 -47 -20 c-26 -11 -49 -20 -52 -20 -4 0 -3 3 0 7
4 3 3 11 -3 18 -6 7 -6 24 1 47 8 32 13 36 37 34z m9572 -36 c6 0 10 -4 10 -9
0 -5 9 -7 20 -4 11 3 31 2 46 -1 21 -6 24 -9 13 -22 -6 -8 -14 -12 -16 -10 -3
3 -15 1 -28 -4 -19 -7 -26 -4 -39 15 -9 13 -16 27 -16 30 0 3 5 5 10 5z
m-9471 -110 c10 0 23 -11 29 -24 9 -21 7 -28 -16 -53 l-27 -28 -6 45 c-4 25
-5 48 -2 53 2 4 12 7 22 7z m-71 -21 c7 0 10 -4 6 -10 -4 -7 -8 -27 -9 -45 -1
-19 4 -39 11 -45 7 -6 19 -7 25 -3 7 4 9 3 6 -3 -4 -6 -18 -14 -32 -17 -18 -5
-33 -1 -48 11 -12 10 -22 27 -21 38 1 11 2 27 3 35 0 8 11 20 24 26 12 7 28
12 35 13z m-193 -39 c6 0 15 -4 22 -8 7 -5 9 -13 4 -21 -5 -8 -29 -15 -52 -17
l-44 -4 30 25 c17 14 35 25 40 25z m-587 -35 c15 -3 31 -11 37 -16 6 -7 5 -13
-4 -19 -9 -5 -23 -3 -38 7 -13 8 -23 20 -23 25 0 6 11 7 28 3z m194 -76 c3 1
4 -8 1 -18 -3 -12 -11 -17 -19 -14 -8 3 -14 9 -14 13 0 5 6 11 13 13 6 3 15 6
19 6z m2468 -109 c11 0 20 -7 20 -15 0 -8 -9 -15 -20 -15 -11 0 -20 7 -20 15
0 8 9 15 20 15z m5431 -51 c9 1 19 -5 22 -13 3 -8 1 -17 -6 -19 -9 -3 -9 -10
1 -29 8 -14 12 -34 10 -44 -2 -11 -13 -20 -24 -22 -11 -2 -26 4 -33 12 -10 12
-8 17 8 26 12 6 21 18 21 26 0 9 -9 18 -20 21 -11 3 -20 11 -20 18 0 7 6 16
13 18 6 3 19 6 28 6z m-142 -29 c5 0 13 -4 16 -10 3 -5 2 -10 -4 -10 -5 0 -13
5 -16 10 -3 6 -2 10 4 10z m-5569 -62 c22 2 40 1 40 -2 0 -2 -14 -18 -30 -36
-17 -18 -32 -31 -34 -29 -2 2 -7 18 -10 35 -7 29 -6 30 34 32z m-139 -14 c5
-3 9 -12 9 -19 0 -8 -9 -19 -20 -25 -11 -6 -20 -9 -20 -6 0 3 5 16 11 30 7 14
16 23 20 20z m-151 -4 c22 0 40 -2 40 -4 0 -2 -7 -20 -15 -39 -8 -20 -15 -48
-15 -62 l0 -26 -22 21 c-12 11 -25 20 -28 20 -3 0 -5 19 -4 43 0 23 2 43 3 45
0 1 19 2 41 2z m6091 -30 c5 0 15 -13 24 -30 12 -24 13 -30 2 -30 -7 0 -21 6
-31 13 -11 8 -15 19 -10 30 3 9 10 17 15 17z m-5912 -40 c4 0 11 -23 14 -52 4
-33 2 -57 -5 -65 -6 -8 -20 -19 -31 -24 -14 -8 -23 -6 -38 7 -10 9 -19 27 -19
38 0 12 3 31 6 43 4 14 17 24 35 28 16 4 29 11 29 16 0 5 4 9 9 9z m3609 -136
c7 -21 15 -55 17 -74 3 -19 9 -57 16 -85 6 -27 16 -84 23 -125 7 -41 15 -82
18 -90 4 -8 12 -53 18 -100 6 -47 13 -110 16 -140 3 -30 11 -72 20 -93 8 -21
19 -78 25 -125 6 -48 12 -105 14 -127 2 -22 7 -58 10 -80 4 -22 8 -58 11 -80
2 -22 9 -76 14 -120 6 -44 13 -92 15 -107 3 -16 0 -28 -6 -28 -6 0 -32 17 -57
37 -26 21 -81 67 -122 102 -41 36 -95 84 -120 108 -24 24 -47 43 -51 43 -3 0
-34 27 -69 61 -34 33 -74 68 -89 77 -14 9 -69 48 -121 87 -52 38 -104 77 -116
85 -12 8 -40 28 -63 43 -23 15 -60 44 -81 63 l-40 36 98 92 c53 51 126 118
162 151 36 32 100 90 144 129 43 39 120 109 170 155 50 47 100 98 110 114 l20
30 14 -39z m-3527 -64 c5 0 9 -4 9 -10 0 -5 -7 -10 -16 -10 -8 0 -12 5 -9 10
3 6 10 10 16 10z m-174 -30 c7 0 13 -6 13 -13 0 -7 -7 -23 -16 -35 -8 -12 -19
-22 -24 -22 -4 0 -3 16 3 35 6 19 16 35 24 35z m2196 -45 c18 -14 47 -35 65
-47 18 -11 37 -29 43 -39 5 -11 14 -19 20 -19 6 0 34 -20 62 -45 29 -25 56
-45 60 -45 5 0 21 -12 36 -27 16 -16 39 -37 53 -48 14 -11 36 -27 48 -35 12
-8 55 -42 95 -76 40 -33 89 -71 109 -83 37 -23 37 -23 18 -45 -11 -11 -28 -31
-38 -43 -10 -13 -22 -23 -26 -23 -4 0 -78 -69 -165 -153 -87 -85 -185 -177
-218 -206 -33 -29 -96 -86 -140 -126 -44 -39 -152 -132 -240 -205 -88 -73
-185 -157 -215 -186 -31 -30 -59 -54 -63 -54 -4 0 -7 7 -7 15 0 9 14 62 31
118 17 56 46 158 65 227 18 69 40 139 48 155 8 17 42 118 76 225 34 107 68
213 77 235 8 22 21 63 28 90 7 28 28 95 45 150 17 55 45 145 62 200 16 55 32
104 35 108 3 4 19 -4 36 -18z m708 -565 c4 0 39 -23 76 -51 37 -28 87 -67 111
-87 24 -20 63 -47 87 -60 24 -13 65 -43 91 -68 26 -24 51 -44 54 -44 3 0 21
-16 40 -35 19 -19 41 -35 47 -35 7 0 19 -10 28 -22 8 -13 43 -45 77 -73 34
-27 116 -99 182 -159 67 -61 130 -121 141 -135 10 -15 26 -30 33 -35 8 -4 33
-27 56 -51 39 -39 44 -50 69 -161 14 -65 29 -135 32 -154 3 -19 7 -54 9 -77 4
-40 2 -44 -67 -111 -40 -38 -97 -85 -127 -104 -30 -20 -118 -88 -195 -153 -77
-64 -142 -120 -145 -124 -3 -5 -17 -11 -31 -14 -18 -5 -31 -2 -39 8 -6 8 -13
20 -14 27 -1 7 -14 38 -29 69 -15 31 -27 59 -27 63 0 4 15 7 33 6 17 -1 37 -2
43 -1 7 1 14 10 17 22 4 14 -2 29 -16 43 -12 12 -33 29 -46 39 -21 14 -25 24
-24 67 1 44 -4 55 -29 81 l-31 30 -27 -26 c-26 -25 -29 -26 -61 -12 -19 8 -40
21 -48 30 -7 10 -18 17 -24 17 -6 0 -18 7 -28 16 -10 9 -25 14 -34 11 -8 -4
-15 -18 -15 -34 0 -16 8 -51 19 -78 10 -28 28 -72 40 -98 11 -26 20 -51 20
-55 -1 -4 -1 -19 0 -34 1 -19 8 -29 30 -36 24 -9 31 -18 36 -49 4 -21 9 -46
12 -55 2 -10 11 -18 19 -18 8 0 14 -9 14 -19 0 -14 -9 -20 -37 -24 -21 -2 -41
-2 -45 0 -5 2 -8 24 -8 48 0 24 -5 47 -10 50 -6 3 -19 3 -30 0 -11 -4 -27 -18
-35 -33 l-14 -27 -1 44 0 44 -50 -6 -51 -6 7 34 c3 19 4 46 0 59 -3 13 -15 26
-25 29 -11 3 -28 -3 -39 -14 -11 -10 -23 -33 -27 -51 -4 -18 -19 -50 -34 -70
-18 -27 -38 -41 -66 -49 -22 -5 -48 -12 -57 -15 -10 -3 -18 -13 -18 -23 0 -9
-5 -22 -12 -29 -8 -8 -8 -15 1 -25 9 -11 8 -17 -1 -24 -7 -6 -45 -25 -85 -42
-39 -17 -78 -31 -86 -31 -8 0 -20 -7 -27 -15 -7 -8 -15 -13 -19 -10 -4 2 -33
-9 -64 -24 -39 -19 -59 -25 -67 -17 -5 5 -10 15 -10 21 0 7 -9 20 -21 31 -12
10 -27 31 -35 46 -8 15 -14 29 -14 31 0 3 15 8 33 12 17 5 37 9 42 9 6 1 19 8
31 16 11 8 23 23 27 32 4 12 -1 23 -16 33 -13 8 -47 18 -77 22 l-55 8 0 64 0
65 -33 8 c-23 6 -38 5 -48 -3 -8 -6 -14 -24 -14 -39 0 -15 -8 -34 -17 -43 -16
-14 -22 -14 -60 4 -24 11 -56 22 -73 25 -29 6 -30 6 -30 -33 0 -32 7 -47 35
-76 20 -21 35 -46 35 -60 0 -13 -9 -32 -19 -41 -10 -9 -21 -28 -24 -41 -2 -15
2 -30 12 -39 14 -13 25 -13 57 -5 21 6 43 15 49 20 5 5 18 9 28 9 15 0 18 -5
13 -24 -3 -14 -2 -28 4 -31 5 -3 10 -19 10 -35 0 -16 -4 -31 -8 -34 -5 -3 -24
-8 -43 -11 -19 -3 -38 -10 -44 -16 -5 -5 -15 -9 -22 -9 -7 0 -23 9 -35 21 -13
11 -57 48 -98 81 -41 33 -102 79 -135 101 -33 22 -62 44 -63 49 -2 5 -20 18
-40 29 -21 11 -50 28 -67 38 -16 11 -54 32 -82 47 -41 21 -53 33 -53 51 0 13
6 38 13 56 7 18 18 57 25 87 6 30 16 75 21 100 5 25 19 81 30 125 l20 79 131
126 c72 69 146 139 166 155 19 17 54 46 76 65 23 19 65 58 94 85 29 28 75 68
104 90 29 22 82 68 119 103 36 35 87 83 112 108 25 24 51 44 56 44 6 0 24 15
40 33 16 18 37 36 46 40 9 3 17 13 17 20 0 8 23 35 51 60 29 26 55 47 60 47 4
0 11 9 14 20 3 11 10 20 15 20 5 0 49 38 96 85 48 47 91 85 95 85z m2117 -182
c8 -2 17 -8 19 -14 2 -6 -5 -14 -17 -17 -11 -3 -23 -1 -26 4 -3 5 -2 14 1 20
4 5 14 9 23 7z m-4668 -118 c5 0 16 -25 25 -56 9 -31 14 -58 11 -61 -3 -3 1
-17 8 -32 7 -14 16 -41 19 -58 4 -18 3 -33 -1 -34 -4 0 -16 -3 -27 -6 -11 -2
-35 -7 -52 -10 -26 -4 -33 -2 -33 11 0 10 7 31 16 47 8 17 15 53 14 82 -1 29
2 67 6 85 3 17 10 32 14 32z m4329 -110 c11 0 22 -4 25 -9 3 -5 -6 -8 -19 -8
-14 0 -25 3 -25 8 0 5 9 9 19 9z m-14 -60 c8 -7 12 -16 9 -21 -3 -5 -10 -7
-15 -4 -5 4 -9 13 -9 22 0 13 3 13 15 3z m-123 -2 c6 -2 14 -10 16 -16 2 -7
-2 -10 -12 -6 -9 3 -16 11 -16 16 0 5 5 8 12 6z m133 -48 c8 -7 12 -16 9 -21
-3 -5 -10 -7 -15 -4 -5 4 -9 13 -9 22 0 13 3 13 15 3z m-4085 -78 c3 -2 -6
-12 -20 -22 -16 -12 -29 -15 -34 -9 -6 6 -6 12 0 18 5 5 18 11 29 13 11 2 22
3 25 0z m-761 -12 c5 0 16 -3 25 -6 9 -3 16 -12 16 -20 0 -8 -4 -14 -9 -14 -5
0 -16 3 -25 6 -9 3 -16 12 -16 20 0 8 4 14 9 14z m607 -22 c18 2 22 -5 28 -44
4 -31 2 -49 -7 -57 -7 -7 -27 -25 -44 -40 -30 -28 -32 -28 -62 -13 -17 9 -31
22 -31 29 0 7 5 18 12 25 8 8 8 15 -1 26 -7 8 -18 13 -25 10 -10 -4 -12 2 -9
21 3 15 14 27 27 30 11 2 37 6 56 8 19 2 45 5 56 5z m-240 -40 c11 -2 20 -11
22 -22 3 -13 -1 -17 -14 -14 -11 2 -20 11 -22 22 -3 13 1 17 14 14z m-423 -15
c5 -3 2 -10 -7 -15 -10 -6 -20 -7 -24 -3 -4 3 0 10 8 15 8 5 18 6 23 3z m522
-43 c2 0 6 -4 9 -8 3 -5 -1 -9 -9 -9 -8 0 -12 4 -9 9 3 4 7 8 9 8z m191 -100
c7 0 14 -9 17 -20 4 -14 0 -20 -11 -20 -10 0 -24 5 -32 10 -13 9 -13 11 0 20
8 5 20 10 26 10z m-207 -20 c5 0 14 -7 21 -15 7 -8 9 -22 6 -31 -3 -8 -14 -14
-23 -12 -10 2 -18 12 -19 23 0 11 1 23 3 28 2 4 8 7 12 7z m4277 -10 c2 0 3
-18 2 -40 -1 -22 2 -43 5 -47 4 -3 1 -16 -6 -27 -8 -12 -17 -43 -20 -69 -4
-27 -9 -53 -12 -57 -3 -5 -33 9 -66 32 -56 39 -59 42 -42 58 10 9 44 47 77 83
32 37 60 67 62 67z m-468 -70 c6 0 39 -27 74 -60 34 -33 66 -60 71 -60 4 0 7
-4 7 -10 0 -5 -23 -34 -51 -65 l-52 -55 -13 25 c-7 13 -17 52 -23 87 -5 35
-13 80 -17 101 -4 23 -3 37 4 37z m245 -180 c5 0 28 -10 51 -22 22 -13 43 -26
46 -29 3 -3 19 -11 37 -18 17 -7 34 -20 37 -28 4 -9 4 -30 1 -47 -3 -17 -8
-83 -11 -146 -3 -63 -7 -155 -9 -205 -2 -49 -4 -103 -5 -118 l0 -28 -67 5
c-38 3 -95 8 -129 12 l-61 7 -12 46 c-7 25 -16 78 -20 116 -5 39 -12 87 -16
109 -7 37 -7 38 13 27 16 -9 26 -8 42 1 14 9 20 21 18 38 -2 20 -9 26 -35 28
-25 2 -33 -1 -33 -12 0 -9 -4 -16 -9 -16 -5 0 -12 21 -16 46 -7 46 -6 48 44
98 27 28 67 70 87 94 21 23 42 42 47 42z m-3648 -27 c8 -3 15 -8 15 -12 0 -3
13 -21 29 -40 20 -24 34 -32 46 -27 12 4 37 -10 84 -49 36 -31 83 -70 104 -88
21 -18 55 -47 75 -64 20 -18 40 -33 45 -33 4 0 7 -4 7 -8 0 -5 -53 -60 -117
-123 -64 -63 -130 -126 -146 -141 -15 -16 -33 -28 -38 -28 -5 0 -10 5 -10 10
-1 6 -2 13 -3 18 -1 4 -10 43 -20 87 -10 44 -27 114 -38 155 -11 41 -26 102
-33 135 -7 33 -16 90 -20 127 -4 36 -4 71 -1 77 4 5 13 8 21 4z m838 -73 c5 0
5 -10 2 -22 -4 -13 -11 -27 -16 -32 -5 -6 -9 -19 -9 -30 0 -12 -7 -34 -16 -51
-9 -16 -25 -73 -35 -125 -11 -52 -17 -100 -15 -107 3 -7 1 -15 -5 -19 -6 -3
-37 17 -69 45 -32 28 -62 51 -67 51 -5 0 -17 9 -26 21 -17 20 -17 21 14 57 18
20 46 47 62 59 16 12 36 28 46 36 9 9 41 38 71 66 30 28 59 51 63 51z m3104
-57 c3 -7 11 -13 18 -13 8 0 45 -17 82 -37 37 -21 86 -48 108 -60 22 -12 76
-40 120 -63 44 -22 95 -56 115 -75 20 -19 41 -35 48 -35 7 0 12 -4 12 -10 0
-5 29 -23 65 -39 36 -17 65 -35 65 -41 0 -5 4 -10 9 -10 5 0 34 -16 65 -36 31
-20 56 -40 56 -44 0 -4 -105 -8 -232 -8 -128 -1 -308 -3 -400 -6 l-168 -4 -1
26 c0 15 0 61 1 102 1 41 3 93 5 115 1 22 6 81 9 130 4 50 10 97 13 105 4 11
7 12 10 3z m1723 7 c6 0 10 -7 10 -15 0 -8 -4 -15 -10 -15 -5 0 -10 7 -10 15
0 8 5 15 10 15z m-3157 -139 c9 -7 17 -22 17 -32 0 -11 -4 -19 -10 -19 -5 0
-10 3 -10 8 0 4 -3 18 -7 32 -6 22 -5 24 10 11z m869 -1 c5 0 8 -13 8 -28 0
-16 9 -78 20 -139 11 -60 21 -120 22 -132 l3 -23 -207 -1 c-115 -1 -208 1
-208 5 0 4 8 15 18 25 10 10 26 30 35 46 10 15 57 53 105 85 48 31 112 81 142
110 30 28 58 52 62 52z m-2876 -120 c7 0 21 -10 31 -22 10 -13 38 -36 63 -53
25 -16 60 -44 79 -62 30 -29 33 -36 26 -70 -4 -21 -12 -51 -20 -68 -7 -16 -20
-50 -28 -75 -9 -25 -19 -76 -22 -115 -5 -54 -16 -89 -47 -152 l-40 -81 -57 -5
c-31 -2 -76 -10 -101 -16 -25 -7 -49 -16 -55 -22 -5 -5 -19 -9 -30 -9 -12 0
-25 -3 -29 -7 -3 -4 -13 -8 -20 -9 -9 -1 -20 17 -30 46 -9 27 -16 56 -16 65 0
10 -7 47 -15 84 -8 36 -21 95 -29 131 -8 36 -17 74 -21 85 -4 16 20 43 121
135 70 63 150 139 177 168 27 28 56 52 63 52z m4958 -90 c5 -5 -7 -32 -29 -65
l-39 -56 -30 30 c-22 22 -27 34 -19 42 6 6 33 21 59 34 29 14 53 20 58 15z
m-292 -16 c5 -4 0 -13 -12 -21 -12 -8 -24 -12 -28 -8 -4 4 2 13 12 20 10 8 23
12 28 9z m74 -85 c8 -6 14 -8 14 -3 0 5 6 2 13 -6 7 -9 27 -26 45 -39 17 -12
32 -30 32 -39 -1 -9 -9 -27 -19 -39 -11 -13 -27 -23 -38 -23 -10 0 -27 7 -37
15 -19 15 -19 15 1 15 11 0 23 7 27 15 3 8 -2 21 -10 30 -9 8 -20 15 -25 15
-5 0 -9 9 -9 19 0 11 -5 23 -10 26 -6 4 -8 11 -4 16 4 6 11 6 20 -2z m-95 -19
c4 0 14 -3 23 -6 9 -3 16 -12 16 -19 0 -7 4 -15 8 -17 5 -1 12 -16 16 -31 4
-16 3 -27 -1 -25 -4 3 -25 12 -45 22 -28 12 -38 23 -38 40 0 12 3 26 7 29 3 4
10 7 14 7z m-4363 -12 c4 -2 31 -12 60 -22 29 -11 52 -25 52 -32 0 -7 16 -18
35 -24 19 -6 35 -16 35 -21 0 -5 7 -9 15 -9 8 0 15 -4 15 -8 0 -4 14 -16 31
-26 17 -10 42 -31 56 -47 14 -16 34 -31 44 -34 10 -3 37 -28 60 -56 23 -27 39
-52 36 -56 -4 -3 -32 -5 -63 -5 -32 0 -67 -5 -78 -13 -12 -7 -43 -16 -71 -19
-27 -4 -59 -9 -70 -10 -11 -2 -51 -12 -90 -24 -38 -11 -95 -22 -126 -25 l-56
-5 24 91 c13 51 26 106 28 123 3 17 11 55 19 85 8 30 16 61 19 69 3 8 8 28 12
43 3 16 9 27 13 25z m2879 -95 c54 -2 104 -6 111 -9 10 -3 12 -16 7 -52 -3
-27 -8 -68 -10 -93 -1 -24 -7 -55 -13 -69 -5 -14 -13 -52 -17 -85 -4 -33 -11
-68 -16 -78 -6 -9 -11 -60 -11 -113 -2 -90 -3 -95 -22 -92 -16 2 -22 11 -24
38 -2 19 -12 73 -23 120 -11 47 -27 114 -35 150 -9 36 -20 81 -25 100 -5 19
-14 66 -19 103 -6 37 -8 72 -5 77 3 4 49 6 102 3z m-981 -43 c8 0 17 -7 21
-16 3 -8 2 -19 -3 -24 -5 -5 -17 -3 -28 5 -10 8 -15 18 -11 24 3 6 13 11 21
11z m2738 0 c7 0 26 -10 42 -22 16 -12 31 -23 33 -24 1 -2 0 -7 -3 -12 -3 -6
-21 -2 -42 9 -20 10 -41 20 -47 22 -6 2 -7 9 -3 15 4 7 13 12 20 12z m-286
-12 c4 -1 29 -12 55 -23 26 -11 47 -25 47 -31 0 -6 -9 -19 -19 -28 -13 -11
-27 -15 -40 -11 -12 3 -28 13 -36 21 -8 9 -15 29 -15 46 0 16 4 28 8 26z
m-5072 -49 c6 -5 14 -24 17 -42 3 -17 16 -77 28 -132 12 -55 25 -120 29 -143
7 -41 5 -44 -19 -54 -14 -6 -42 -18 -61 -28 -24 -12 -43 -15 -62 -10 -18 5
-33 3 -47 -7 -12 -8 -46 -21 -76 -29 -31 -7 -69 -14 -86 -14 -16 0 -46 -7 -67
-17 -20 -9 -39 -17 -42 -18 -3 -1 -16 -6 -30 -12 -14 -6 -50 -16 -80 -23 -30
-7 -58 -18 -62 -24 -4 -6 -9 -8 -13 -5 -3 3 23 40 58 82 35 42 79 89 98 105
19 15 97 90 174 166 77 76 160 155 185 177 30 26 48 35 56 28z m1833 -49 c4 0
5 -18 2 -40 -4 -26 -17 -52 -39 -75 -19 -19 -37 -35 -40 -35 -4 0 -12 4 -17 8
-6 4 -21 22 -34 39 -12 18 -19 37 -16 43 3 5 14 10 24 10 9 0 26 7 37 15 10 8
29 15 41 15 12 0 25 5 28 10 3 6 10 10 14 10z m-266 -91 c15 0 27 -4 27 -11 0
-6 3 -8 7 -5 3 4 12 2 20 -4 7 -6 13 -19 13 -28 0 -9 14 -25 30 -34 17 -10 30
-26 30 -35 0 -9 -12 -30 -26 -46 l-25 -29 -60 29 -59 29 1 60 c1 33 4 49 6 36
3 -13 13 -26 24 -28 14 -4 16 -9 9 -23 -7 -13 -6 -20 6 -24 9 -3 24 -6 35 -6
12 0 19 7 19 20 0 10 -9 24 -20 30 -11 6 -20 16 -19 23 1 7 1 17 0 24 0 6 -11
14 -23 16 -20 4 -19 4 5 6z m4215 -14 c9 -4 27 -9 40 -10 13 -2 30 -12 37 -22
8 -10 13 -22 11 -28 -1 -5 -11 -11 -22 -13 -10 -1 -34 11 -51 27 -18 16 -33
35 -33 42 0 7 7 8 18 4z m-8 -115 c11 -6 20 -16 20 -21 0 -6 -6 -9 -14 -6 -8
3 -17 1 -20 -6 -2 -7 -5 1 -5 16 -1 25 1 27 19 17z m-4010 -90 c4 0 9 -3 13
-6 3 -3 3 -12 0 -20 -3 -8 -11 -14 -19 -14 -8 0 -14 6 -14 13 0 8 3 17 7 20 3
4 9 7 13 7z m-211 -22 c9 -7 17 -13 19 -14 2 -1 -3 -11 -10 -23 -7 -12 -18
-21 -25 -21 -8 0 -13 12 -13 28 0 16 3 32 7 35 3 4 13 1 22 -5z m3473 12 c5 0
8 -10 6 -22 -2 -12 -9 -23 -15 -26 -8 -2 -13 5 -13 16 0 10 3 22 7 25 3 4 10
7 15 7z m-4604 -21 c29 1 32 -1 22 -18 -5 -11 -10 -32 -10 -46 0 -14 -5 -36
-11 -47 -6 -12 -12 -35 -13 -52 -2 -17 -8 -42 -15 -54 -7 -13 -15 -40 -17 -59
-2 -19 -15 -60 -28 -91 -13 -31 -27 -82 -31 -112 -4 -30 -12 -66 -17 -79 -6
-17 -12 -21 -19 -14 -6 6 -15 46 -20 89 -5 44 -17 98 -26 121 -8 23 -13 54
-11 68 3 14 1 25 -4 25 -5 0 -8 6 -7 13 2 6 0 30 -4 52 -4 22 -9 63 -12 90 -4
47 -3 51 22 63 15 6 37 12 50 12 13 0 31 4 41 9 9 5 31 13 47 19 17 5 45 10
63 11z m1688 -319 c9 0 14 -5 12 -12 -2 -6 -10 -14 -16 -16 -7 -2 -12 3 -12
12 0 9 7 16 16 16z m-2978 -41 c6 1 12 -2 12 -6 0 -5 -4 -14 -8 -21 -7 -10
-15 -10 -38 -1 l-29 12 25 7 c14 5 31 8 38 9z m-161 -50 c1 0 16 -20 34 -45
17 -25 32 -57 32 -70 0 -12 -8 -30 -17 -39 -9 -9 -31 -18 -49 -19 -17 -2 -44
4 -58 13 -17 10 -25 24 -24 38 1 13 5 26 9 30 4 4 10 3 14 -2 4 -6 17 -18 29
-28 14 -12 29 -16 42 -12 12 3 21 15 21 26 0 10 -5 19 -11 19 -5 0 -15 14 -20
30 -6 17 -14 30 -17 30 -3 0 -15 -9 -27 -20 -21 -19 -21 -19 -23 3 -1 18 6 25
31 34 17 5 33 11 34 12z m-186 -112 c4 -16 0 -24 -15 -30 -12 -5 -22 -3 -27 4
-4 7 2 20 14 30 21 17 22 17 28 -4z m-450 -37 c27 0 30 -2 19 -15 -9 -11 -17
-12 -31 -4 -10 5 -19 12 -19 14 0 3 14 5 31 5z m558 -100 c6 0 12 -4 15 -9 3
-5 -1 -14 -9 -21 -13 -10 -15 -9 -15 9 0 11 4 21 9 21z m4825 -10 c6 0 2 -6
-8 -13 -10 -7 -17 -22 -15 -32 2 -11 15 -22 29 -25 18 -4 21 -8 12 -14 -8 -5
-19 -3 -25 3 -6 6 -19 11 -28 11 -9 0 -19 6 -22 13 -3 8 -2 18 1 24 4 5 16 15
27 21 11 6 24 12 29 12z m-168 -60 c8 0 17 -7 20 -15 3 -8 3 -19 -1 -25 -4 -7
-12 -7 -25 0 -11 6 -17 17 -14 25 4 8 13 15 20 15z m163 -56 c2 -2 -2 -17 -9
-33 -10 -26 -15 -29 -32 -20 -10 6 -18 18 -16 27 2 9 14 19 28 22 14 4 27 5
29 4z m113 -14 c5 0 14 -13 19 -30 6 -16 14 -30 18 -30 4 0 18 -14 30 -31 l24
-32 -50 5 c-28 3 -60 11 -71 20 l-21 14 20 42 c12 23 25 42 31 42z m-3490
-141 c15 -18 28 -36 28 -40 0 -3 -11 -11 -25 -17 -14 -7 -35 -12 -46 -12 -16
0 -19 4 -14 23 3 12 11 35 18 51 l11 29 28 -34z m89 -120 c10 -5 20 -13 23
-17 2 -4 2 -12 -2 -17 -4 -6 -18 -10 -32 -10 -19 0 -24 -4 -22 -20 2 -11 9
-23 15 -27 6 -4 1 -17 -14 -35 -14 -16 -32 -27 -41 -25 -10 2 -18 10 -18 18 0
8 -4 13 -9 9 -5 -3 -12 -1 -15 4 -4 5 2 11 11 13 14 2 18 13 18 42 0 33 4 41
34 57 24 13 39 15 52 8z m-127 -40 c20 0 20 -1 -1 -11 -14 -7 -23 -20 -23 -34
0 -12 6 -25 13 -28 6 -3 3 -5 -7 -3 -10 1 -24 10 -30 19 -8 13 -6 22 8 37 11
12 29 21 40 20z m-474 -59 c10 0 20 -10 23 -22 4 -12 5 -24 3 -25 -2 -2 -10
-1 -19 2 -8 4 -17 15 -20 26 -4 13 0 19 13 19z m674 -50 c7 0 20 -8 29 -17 8
-10 18 -30 22 -44 4 -15 2 -30 -4 -33 -6 -4 -23 0 -39 8 -16 8 -32 23 -36 31
-3 9 -1 25 4 36 6 10 17 19 24 19z m-269 -60 c8 0 26 -5 40 -12 14 -6 24 -17
21 -24 -3 -7 -28 -45 -57 -84 -28 -39 -53 -69 -56 -67 -2 3 0 23 6 44 6 21 13
58 16 82 3 24 8 48 11 52 3 5 11 9 19 9z m601 -237 c13 -15 24 -34 24 -40 0
-7 -4 -13 -8 -13 -5 0 -16 8 -24 18 -8 9 -15 28 -16 40 -1 23 0 23 24 -5z m80
7 c8 0 14 -4 14 -9 0 -6 -4 -13 -10 -16 -5 -3 -15 -3 -20 0 -6 4 -8 11 -5 16
4 5 13 9 21 9z"/>
<g>
<path d="M4749 10340 c-10 0 -21 -5 -24 -11 -4 -5 -4 -21 -1 -35 4 -13 10 -24
14 -24 5 0 18 9 31 21 17 16 20 24 10 35 -6 8 -20 14 -30 14z"/>
</g>
<g>
<path d="M5717 9269 c-18 0 -56 -6 -86 -12 -46 -10 -55 -16 -56 -35 -1 -16 6
-27 21 -34 16 -8 36 -7 69 1 25 6 57 8 70 5 18 -4 32 -1 45 11 11 10 20 23 20
30 0 6 -11 17 -25 23 -14 7 -40 12 -58 11z"/>
</g>
<g>
<path d="M5685 9145 c-11 3 -29 0 -40 -7 -11 -6 -21 -12 -23 -14 -2 -1 1 -12
8 -23 6 -12 19 -21 29 -21 10 0 24 -7 31 -15 11 -13 11 -20 0 -40 -7 -13 -10
-35 -6 -49 4 -16 13 -26 25 -26 10 0 23 6 29 13 6 6 19 39 30 71 l20 59 -24
24 c-13 12 -31 23 -41 23 -10 0 -27 2 -38 5z"/>
</g>
<g>
<path d="M5618 8950 c-10 0 -22 -9 -28 -19 -5 -11 -7 -27 -4 -36 5 -11 16 -15
38 -13 24 2 32 8 34 27 2 13 -2 28 -10 32 -7 5 -21 9 -30 9z"/>
</g>
<g>
<path d="M2875 6924 c-12 3 -26 1 -33 -6 -7 -7 -12 -20 -12 -29 0 -10 10 -25
22 -33 20 -14 24 -14 40 1 10 9 18 21 18 27 0 6 -4 16 -8 22 -4 6 -16 14 -27
18z"/>
</g>
<g>
<path d="M2552 6890 c-4 -1 -12 -6 -18 -13 -6 -7 -14 -50 -18 -95 -4 -45 -11
-96 -16 -112 -8 -27 -6 -32 13 -39 12 -5 25 -7 29 -5 3 2 14 27 24 56 15 47
18 50 30 33 8 -10 14 -28 14 -39 0 -12 9 -32 18 -44 l18 -24 71 36 c47 24 73
44 76 58 3 12 4 25 1 30 -3 4 -16 8 -28 8 -13 0 -36 -7 -52 -15 -19 -10 -32
-11 -40 -4 -7 6 -14 20 -16 32 -2 15 -14 25 -35 32 -30 8 -33 12 -33 51 0 29
-5 44 -16 48 -9 3 -19 6 -22 6z"/>
</g>
<g>
<path d="M2781 6609 c-9 0 -22 -3 -28 -6 -7 -2 -13 -18 -13 -33 0 -18 7 -33
19 -39 14 -8 24 -6 40 8 19 16 20 22 10 45 -7 14 -19 26 -28 25z"/>
</g>
<g>
<path d="M8141 6840 c-9 0 -21 -8 -28 -19 -6 -10 -10 -27 -9 -37 2 -13 12 -20
34 -22 26 -3 32 1 38 23 4 15 1 31 -6 40 -7 8 -20 15 -29 15z"/>
</g>
<g>
<path d="M8387 6830 c-4 0 -10 -7 -13 -15 -4 -8 -4 -24 -1 -35 3 -11 1 -23 -5
-26 -5 -3 -24 10 -43 30 -18 20 -37 36 -43 36 -5 0 -24 -22 -41 -48 -17 -27
-31 -58 -31 -70 0 -11 5 -24 10 -27 6 -3 18 -4 29 0 10 3 23 17 30 31 11 24
13 25 29 11 9 -9 30 -21 47 -27 24 -9 31 -8 41 4 9 13 14 12 33 -10 14 -16 30
-24 44 -22 16 2 21 9 19 26 -1 13 -13 38 -27 56 -14 18 -25 38 -25 44 0 6 -10
18 -22 26 -12 9 -26 16 -31 16z"/>
</g>
<g>
<path d="M8293 6601 c-10 8 -28 13 -41 11 -19 -3 -23 -9 -20 -34 2 -17 11 -36
21 -42 12 -8 22 -8 35 0 9 6 18 20 20 31 2 10 -5 26 -15 34z"/>
</g>
<g>
<path d="M5955 6269 c-21 6 -39 4 -62 -7 -17 -8 -34 -24 -37 -36 -3 -12 -6
-29 -6 -38 0 -10 8 -27 17 -38 12 -13 30 -20 53 -20 19 0 40 4 45 8 6 4 18 19
28 34 9 15 17 33 17 41 0 7 -6 21 -12 30 -7 9 -26 21 -43 26z"/>
</g>
<g>
<path d="M5235 6269 c-11 0 -30 -5 -41 -11 -12 -5 -27 -20 -32 -32 -6 -11 -13
-30 -14 -40 -2 -13 6 -25 22 -33 14 -7 39 -13 57 -13 22 0 38 8 52 26 15 19
19 34 14 53 -3 14 -13 31 -22 38 -9 7 -25 12 -36 12z"/>
</g>
<g>
<path d="M5568 6119 c-2 0 -12 -5 -23 -10 -11 -6 -32 -39 -47 -74 -16 -35 -28
-69 -28 -75 0 -6 -18 -63 -40 -126 -32 -96 -37 -119 -27 -135 7 -11 19 -21 27
-23 8 -3 65 -7 125 -11 l111 -6 2 49 c2 46 0 50 -27 62 -16 6 -47 11 -68 10
-21 -2 -43 -2 -50 -1 -8 1 -9 11 -1 39 5 20 13 42 18 47 4 6 21 51 39 102 17
50 31 100 31 112 0 11 -9 25 -19 31 -11 5 -21 10 -23 9z"/>
</g>
<g>
<path d="M5682 5504 c-53 1 -142 -1 -197 -4 -55 -4 -126 -13 -158 -20 -32 -6
-56 -14 -53 -18 3 -3 -1 -16 -9 -29 -14 -20 -14 -26 -2 -37 8 -8 30 -19 49
-24 22 -6 41 -6 52 0 9 5 105 12 214 14 108 3 203 7 210 10 8 2 11 11 7 23 -3
11 0 29 7 41 11 18 10 23 -5 31 -10 6 -61 11 -115 13z"/>
</g>
<g>
<path d="M2691 5440 c-4 0 -12 -5 -18 -11 -6 -6 -9 -18 -6 -25 3 -8 11 -14 17
-14 7 0 17 5 24 12 8 8 9 15 1 25 -7 7 -14 13 -18 13z"/>
</g>
<g>
<path d="M3023 3980 c-6 0 -13 -6 -16 -12 -2 -7 -2 -21 1 -30 2 -10 10 -18 18
-18 7 0 18 10 25 21 9 17 8 23 -2 30 -8 5 -19 9 -26 9z"/>
</g>
<g>
<path d="M6945 3500 c-8 0 -19 -9 -25 -19 -5 -11 -7 -27 -4 -35 3 -9 14 -16
24 -16 10 0 25 3 34 6 9 3 16 12 16 19 0 8 -7 21 -16 29 -8 9 -22 16 -29 16z"/>
</g>
<g>
<path d="M7000 3376 c-14 1 -42 -1 -62 -3 -26 -3 -39 -10 -44 -25 -3 -11 -1
-25 5 -31 6 -6 21 -12 34 -12 17 0 23 -7 28 -39 3 -21 12 -42 19 -46 10 -6 10
-21 0 -74 -7 -36 -9 -73 -6 -82 4 -10 15 -14 33 -12 25 3 29 8 35 48 3 25 10
61 14 80 4 19 8 53 8 75 1 31 -3 40 -19 45 -15 4 -20 13 -20 40 0 30 -3 35
-25 36z"/>
</g>
<g>
<path d="M3720 3029 c-3 0 -11 -3 -17 -6 -7 -2 -13 -17 -13 -33 0 -18 6 -29
18 -32 10 -3 28 -1 40 3 14 6 22 17 22 33 0 16 -7 26 -22 30 -13 3 -25 5 -28
5z"/>
</g>
<g>
<path d="M3761 2909 c-3 0 -18 -4 -33 -9 -14 -4 -47 -22 -72 -39 -25 -17 -48
-36 -51 -41 -3 -5 -1 -20 6 -32 6 -12 20 -31 30 -42 11 -11 19 -23 19 -27 0
-4 7 -10 16 -13 9 -4 25 -4 35 -1 11 4 19 14 19 24 0 10 -9 28 -19 40 -16 19
-18 26 -8 42 6 10 24 23 39 30 14 6 29 17 32 25 3 8 3 21 0 29 -4 8 -9 15 -13
14z"/>
</g>
<g>
<path d="M3896 2890 c-12 0 -27 -5 -34 -12 -7 -7 -12 -22 -12 -35 0 -13 7 -26
15 -29 8 -4 26 -3 39 0 14 3 28 15 31 27 4 11 1 26 -5 34 -7 8 -22 15 -34 15z"/>
</g>
<g>
<path d="M3561 2720 c-17 0 -21 -6 -21 -29 0 -16 11 -42 24 -58 13 -15 40 -45
59 -65 20 -21 42 -38 50 -38 8 0 18 7 21 16 3 9 6 23 6 32 0 10 -27 45 -59 80
-36 37 -68 62 -80 62z"/>
</g>
</g>
<g>
<path d="M7360 4390 c-5 0 -10 -5 -10 -11 0 -5 5 -7 10 -4 6 3 10 8 10 11 0 2
-4 4 -10 4z"/>
</g>
</g>
</svg>
