<?xml version="1.0" standalone="no"?>
<!DOCTYPE svg PUBLIC "-//W3C//DTD SVG 20010904//EN"
 "http://www.w3.org/TR/2001/REC-SVG-20010904/DTD/svg10.dtd">
<svg version="1.0" xmlns="http://www.w3.org/2000/svg"
 width="1153.000000pt" height="1538.000000pt" viewBox="0 0 1153.000000 1538.000000"
 preserveAspectRatio="xMidYMid meet">
<metadata>
Created by potrace 1.16, written by Peter Selinger 2001-2019
</metadata>
<g transform="translate(0.000000,1538.000000) scale(0.100000,-0.100000)"
fill="#000000" stroke="none">
<g>
<path d="M5999 14520 c-3 0 -13 -8 -22 -18 -9 -10 -21 -49 -27 -87 -5 -39 -22
-185 -36 -325 -14 -140 -29 -291 -33 -335 -4 -44 -18 -152 -30 -240 -12 -88
-26 -190 -31 -228 -6 -37 -10 -90 -10 -117 0 -27 -7 -64 -15 -82 -8 -18 -22
-80 -31 -138 -8 -58 -19 -132 -24 -165 -4 -33 -15 -94 -23 -135 -8 -41 -25
-118 -36 -170 -12 -52 -27 -115 -32 -140 -6 -25 -14 -54 -19 -65 -4 -11 -17
-50 -29 -88 -12 -37 -21 -74 -21 -83 0 -8 -7 -29 -16 -45 -8 -17 -19 -52 -24
-77 -5 -26 -14 -69 -20 -97 -6 -27 -27 -117 -46 -200 -19 -82 -40 -168 -47
-190 -6 -22 -26 -76 -45 -120 -18 -44 -42 -105 -53 -135 -11 -30 -32 -82 -48
-116 -16 -33 -37 -90 -47 -125 -9 -35 -26 -84 -37 -109 -11 -25 -26 -59 -33
-77 -8 -17 -14 -37 -14 -44 0 -7 -28 -69 -61 -138 -34 -70 -70 -138 -80 -153
-11 -14 -19 -32 -19 -40 0 -7 -29 -51 -65 -98 -36 -47 -94 -128 -130 -180 -35
-52 -82 -120 -103 -150 -22 -30 -61 -88 -87 -128 -25 -40 -65 -108 -87 -150
-23 -42 -55 -96 -71 -120 -16 -24 -51 -89 -77 -145 -27 -56 -56 -122 -65 -147
-9 -25 -35 -97 -56 -160 -22 -63 -47 -140 -56 -170 -8 -30 -19 -75 -25 -100
-5 -25 -13 -54 -17 -65 -5 -11 -14 -45 -20 -75 -7 -30 -16 -105 -21 -165 -5
-61 -7 -124 -5 -140 2 -17 6 -95 10 -175 3 -80 15 -213 26 -297 10 -83 30
-184 43 -225 13 -40 27 -93 30 -118 4 -25 18 -69 31 -99 14 -29 25 -60 25 -68
0 -9 14 -38 30 -65 17 -26 30 -51 30 -53 0 -3 16 -27 35 -54 19 -28 42 -65 52
-84 10 -19 36 -59 59 -88 22 -30 46 -64 52 -75 6 -12 58 -68 114 -125 57 -57
119 -112 138 -122 19 -11 44 -28 56 -38 11 -10 23 -19 27 -19 4 0 26 -12 50
-27 23 -15 62 -38 87 -52 25 -13 66 -35 92 -47 25 -13 87 -35 138 -49 50 -14
126 -32 168 -40 42 -7 133 -19 202 -26 69 -7 181 -12 250 -12 69 0 238 3 375
7 193 6 267 12 326 27 42 10 103 21 135 25 33 3 84 10 114 16 30 6 60 14 66
19 5 4 34 11 63 14 28 2 77 13 109 24 31 10 82 31 112 45 30 15 76 36 103 46
26 10 72 34 102 54 29 20 83 70 119 111 36 42 74 88 83 103 9 15 35 49 57 75
21 27 50 79 63 115 13 37 38 110 55 162 17 52 37 102 43 110 7 8 18 32 24 53
6 20 16 53 22 73 6 19 17 77 24 127 10 67 13 160 9 337 -3 155 -12 302 -24
400 -11 85 -26 189 -35 230 -8 41 -22 102 -31 135 -9 33 -23 79 -30 102 -7 23
-25 98 -38 168 -14 69 -45 185 -70 258 -24 73 -63 193 -86 267 -23 74 -50 158
-60 185 -10 28 -23 70 -30 95 -7 25 -19 65 -28 90 -8 25 -27 61 -42 80 -15 19
-30 45 -34 58 -4 12 -16 26 -26 32 -10 5 -52 80 -94 167 -43 86 -93 179 -112
206 -19 27 -39 60 -45 74 -5 13 -30 59 -55 100 -25 42 -55 92 -66 112 -12 20
-30 52 -40 71 -11 19 -34 60 -51 90 -17 30 -58 98 -92 150 -34 52 -75 116 -91
142 -16 27 -44 72 -63 100 -18 29 -59 103 -90 163 -32 61 -63 126 -70 145 -7
19 -19 49 -26 65 -7 17 -31 68 -53 115 -21 47 -45 103 -53 125 -7 22 -16 45
-20 50 -4 6 -15 39 -24 75 -9 36 -25 85 -35 110 -10 25 -32 95 -48 155 -17 61
-40 153 -51 205 -11 52 -25 122 -31 155 -5 34 -19 92 -29 130 -11 39 -29 126
-40 195 -11 69 -30 222 -42 340 -16 164 -20 256 -16 390 2 96 11 227 20 290 9
63 21 165 28 227 6 62 8 137 4 170 -4 32 -12 61 -19 65 -6 4 -14 8 -17 8z
m-80 -1170 c5 0 11 -30 14 -67 3 -38 13 -129 22 -203 8 -74 25 -175 36 -225
11 -49 22 -99 24 -110 3 -11 12 -49 20 -85 9 -36 20 -88 25 -117 4 -28 11 -57
15 -63 3 -6 8 -27 10 -48 2 -20 11 -54 19 -74 9 -21 16 -47 16 -58 0 -11 4
-28 9 -38 5 -9 19 -48 32 -87 12 -38 27 -86 34 -105 7 -19 24 -69 38 -110 13
-41 32 -95 41 -119 10 -25 27 -68 40 -95 13 -28 28 -62 34 -76 7 -14 16 -32
22 -40 5 -8 18 -35 30 -59 11 -25 20 -49 20 -55 0 -5 9 -28 21 -50 11 -23 34
-66 51 -96 16 -30 52 -98 79 -150 28 -52 62 -117 78 -145 15 -27 38 -68 50
-90 13 -22 27 -44 31 -50 4 -5 29 -52 56 -103 27 -51 61 -114 76 -140 15 -26
36 -65 46 -87 11 -22 32 -55 46 -74 14 -19 26 -40 26 -45 0 -6 16 -31 35 -55
19 -24 35 -50 35 -57 0 -7 11 -26 25 -42 14 -17 25 -37 25 -45 0 -8 7 -20 15
-27 8 -7 15 -19 15 -26 0 -8 12 -33 26 -57 15 -23 34 -51 44 -62 9 -11 33 -60
52 -110 20 -49 44 -110 53 -135 10 -25 31 -85 47 -135 16 -49 38 -108 48 -131
11 -22 20 -48 20 -57 0 -9 11 -46 24 -84 13 -37 34 -108 46 -158 12 -49 29
-119 36 -155 8 -36 21 -105 29 -155 8 -49 21 -126 29 -170 8 -44 21 -111 30
-150 8 -39 17 -144 20 -235 3 -91 8 -204 12 -252 5 -65 4 -91 -6 -103 -9 -11
-10 -31 -6 -68 4 -28 7 -103 7 -165 -1 -62 -8 -143 -16 -180 -8 -37 -26 -98
-40 -137 -15 -38 -37 -99 -50 -135 -12 -36 -40 -99 -60 -140 -21 -41 -42 -76
-46 -78 -5 -2 -9 -10 -9 -18 0 -7 -8 -27 -19 -45 -10 -17 -59 -68 -108 -114
-49 -46 -112 -97 -139 -112 -27 -16 -85 -44 -129 -62 -44 -18 -95 -39 -112
-47 -18 -8 -48 -21 -65 -29 -18 -8 -53 -22 -78 -31 -25 -8 -90 -28 -145 -44
-55 -15 -140 -37 -190 -48 -49 -11 -133 -26 -185 -32 -52 -7 -124 -17 -160
-23 -36 -6 -105 -11 -155 -12 -49 -1 -160 2 -245 6 -85 5 -189 13 -230 20 -41
6 -109 19 -150 29 -41 10 -93 25 -115 33 -22 8 -67 27 -100 42 -33 15 -74 38
-92 51 -17 13 -35 24 -40 24 -5 0 -44 25 -88 55 -43 30 -112 88 -152 128 -41
39 -99 106 -131 147 -31 41 -66 89 -77 106 -11 18 -45 70 -76 116 -31 46 -72
121 -91 168 -20 47 -43 108 -52 135 -9 28 -27 93 -41 145 -13 52 -32 156 -40
230 -9 74 -18 234 -22 355 -5 197 -3 231 16 330 11 61 34 160 50 220 16 61 43
147 60 193 16 45 33 87 36 92 4 6 21 52 39 103 18 50 58 135 89 187 31 52 75
131 97 174 23 44 50 91 59 105 10 14 41 62 69 106 28 44 73 111 99 148 26 38
66 92 89 120 22 29 51 70 64 92 13 22 38 58 56 80 18 22 71 117 119 210 47 94
97 199 111 235 14 36 41 110 60 165 19 55 41 114 48 130 8 17 19 48 26 70 7
22 26 74 42 115 16 41 35 89 42 105 7 17 18 44 25 60 6 17 25 84 42 150 17 66
42 167 54 225 13 58 30 132 39 165 9 33 23 80 31 105 8 25 23 72 34 105 10 33
22 78 26 100 3 22 15 81 26 130 11 50 26 113 34 140 7 28 21 79 29 115 9 36
18 99 21 140 4 41 15 116 25 165 11 50 26 149 35 220 8 72 18 145 21 163 2 17
9 32 13 32z"/>
<g>
<path d="M4900 8286 c-30 5 -39 1 -64 -25 -27 -28 -28 -32 -16 -60 6 -17 23
-37 36 -46 13 -8 34 -15 47 -15 13 0 31 8 40 18 10 10 17 34 17 53 0 20 -6 43
-13 52 -6 10 -28 20 -47 23z"/>
</g>
<g>
<path d="M6596 8280 c-6 0 -23 -8 -36 -17 -14 -9 -28 -22 -33 -27 -4 -6 -5
-24 -2 -39 2 -16 11 -34 18 -41 7 -7 22 -18 34 -24 12 -7 29 -12 37 -12 9 0
25 9 36 20 11 11 20 33 20 51 0 22 -9 40 -31 60 -17 16 -36 29 -43 29z"/>
</g>
<g>
<path d="M5598 7827 c-7 6 -19 8 -27 5 -8 -3 -30 -19 -48 -35 -19 -17 -43 -46
-55 -65 -11 -19 -27 -63 -34 -99 -10 -44 -11 -70 -4 -83 6 -10 10 -26 10 -35
0 -9 12 -27 28 -41 15 -15 38 -32 52 -39 14 -7 44 -15 67 -18 24 -3 73 -1 110
3 37 5 69 14 71 20 2 6 31 29 64 51 32 22 63 50 67 62 4 12 6 30 3 40 -3 10
-11 21 -18 24 -7 3 -29 -4 -47 -16 -18 -11 -42 -30 -52 -41 -10 -12 -33 -27
-49 -34 -17 -8 -40 -17 -51 -21 -11 -3 -37 -9 -57 -11 -23 -3 -49 1 -68 11
-16 8 -37 26 -46 40 -12 18 -14 35 -9 65 4 23 18 61 31 85 14 24 36 50 49 59
15 10 25 26 25 40 0 13 -6 28 -12 33z"/>
</g>
<g>
<path d="M5339 7045 c-17 4 -30 0 -39 -9 -7 -9 -10 -26 -6 -40 3 -14 20 -30
40 -40 19 -9 78 -20 131 -26 53 -6 174 -9 268 -9 95 1 208 -3 252 -9 44 -6
123 -11 175 -11 52 -1 113 0 135 2 30 1 42 8 53 27 11 19 11 31 3 54 -11 27
-14 28 -59 23 -26 -4 -132 -2 -237 3 -104 5 -302 14 -440 20 -137 5 -262 12
-276 15z"/>
</g>
</g>
<g>
<path d="M6194 5910 c-18 0 -36 -5 -40 -11 -4 -6 -59 -36 -123 -66 -64 -30
-161 -77 -216 -106 -55 -28 -121 -61 -146 -74 -25 -12 -52 -29 -59 -38 -7 -8
-18 -15 -25 -15 -8 0 -26 -6 -42 -14 -15 -7 -57 -27 -93 -44 -36 -17 -118 -56
-182 -86 -65 -31 -121 -56 -124 -56 -4 0 -30 -11 -58 -24 -28 -14 -77 -36
-109 -50 -32 -14 -63 -26 -70 -26 -7 0 -17 -4 -22 -8 -6 -5 -32 -17 -60 -27
-27 -10 -84 -35 -126 -56 -41 -22 -80 -39 -85 -39 -5 0 -27 -10 -49 -21 -22
-12 -42 -24 -45 -28 -3 -3 -19 -14 -37 -23 -17 -10 -37 -18 -45 -18 -7 0 -50
-18 -96 -40 -46 -22 -88 -40 -95 -40 -7 0 -21 -7 -31 -15 -11 -8 -27 -15 -36
-15 -9 0 -84 -34 -166 -76 -82 -41 -169 -83 -194 -94 -25 -10 -62 -25 -82 -34
-33 -14 -39 -14 -52 -1 -8 8 -21 15 -29 15 -8 0 -25 -17 -38 -37 -22 -36 -23
-50 -28 -268 -2 -126 -4 -252 -4 -280 0 -27 4 -185 8 -350 4 -165 6 -460 6
-655 0 -195 -1 -438 -1 -538 0 -101 2 -187 5 -191 2 -4 7 -115 10 -246 3 -131
8 -249 12 -263 3 -13 7 -77 9 -141 2 -64 6 -215 10 -336 4 -150 9 -222 17
-227 7 -4 58 -5 115 -1 65 4 116 2 140 -5 20 -6 57 -13 82 -16 25 -2 75 -13
111 -25 37 -12 82 -23 100 -26 19 -3 79 -9 134 -15 55 -5 123 -14 150 -19 28
-5 86 -16 130 -25 44 -8 107 -16 140 -16 33 -1 103 -7 155 -15 52 -7 120 -18
150 -24 30 -6 123 -22 205 -37 83 -14 206 -32 275 -40 69 -7 190 -20 270 -29
80 -9 174 -20 210 -25 36 -5 153 -23 260 -40 107 -17 220 -35 250 -40 30 -6
111 -15 180 -20 69 -6 134 -14 145 -19 11 -5 58 -16 105 -25 47 -8 105 -18
130 -22 25 -3 55 -12 67 -20 12 -8 32 -14 43 -14 13 0 27 12 38 31 9 17 44 64
77 104 33 40 75 91 93 113 17 23 32 44 32 48 0 4 18 28 41 53 22 25 59 66 82
91 23 25 59 68 79 95 21 28 42 55 47 61 4 6 15 22 22 36 8 15 57 77 109 140
52 62 110 128 128 146 17 19 32 39 32 44 0 6 64 74 143 153 78 78 179 182 223
231 45 49 104 117 132 150 28 34 66 72 83 85 18 13 49 41 68 62 20 22 45 52
56 68 11 15 48 51 83 79 35 28 68 64 73 78 7 18 7 277 0 802 -6 426 -13 1027
-16 1335 -3 308 -8 595 -11 638 -6 67 -5 77 10 77 9 0 21 12 27 28 6 15 13 39
16 53 4 20 0 27 -15 31 -11 3 -26 18 -33 34 -8 15 -26 32 -41 36 -22 8 -34 5
-61 -16 l-34 -26 -89 14 c-49 8 -168 21 -264 30 -96 8 -258 20 -360 26 -102 5
-222 14 -267 19 -45 5 -86 11 -90 14 -5 3 -65 11 -134 17 -68 6 -144 13 -169
16 -25 3 -94 14 -155 25 -60 10 -144 24 -185 30 -41 6 -78 13 -83 16 -4 3 -49
7 -99 9 -50 2 -120 11 -157 19 -36 8 -129 24 -206 36 -77 12 -155 28 -174 35
-18 8 -48 14 -67 14z m35 -130 c3 0 47 -5 96 -10 50 -5 131 -17 180 -25 50 -8
155 -24 235 -36 80 -12 183 -27 230 -34 47 -7 117 -17 155 -23 39 -6 115 -16
170 -22 55 -6 154 -17 220 -25 66 -8 156 -21 200 -29 44 -9 161 -18 260 -21
99 -3 200 -8 225 -10 25 -2 74 -8 110 -13 36 -6 105 -16 155 -22 49 -6 93 -14
98 -17 5 -3 -7 -19 -27 -35 -20 -16 -73 -55 -118 -86 -46 -30 -105 -67 -133
-80 -27 -13 -75 -43 -105 -65 -30 -23 -57 -44 -60 -47 -3 -3 -15 -10 -26 -17
-12 -7 -66 -48 -121 -91 -54 -44 -114 -94 -132 -111 -18 -17 -39 -31 -46 -31
-7 0 -23 -11 -36 -23 -13 -13 -54 -49 -90 -79 -36 -30 -76 -61 -90 -68 -13 -7
-46 -31 -73 -54 -28 -23 -59 -49 -70 -58 -12 -9 -37 -30 -56 -46 -19 -16 -49
-37 -67 -46 -18 -9 -67 -21 -110 -27 -43 -5 -91 -14 -107 -19 -15 -5 -123 -9
-240 -8 -116 0 -245 4 -286 9 -41 5 -97 13 -125 18 -27 5 -89 17 -137 27 -70
15 -89 22 -95 39 -4 11 -6 232 -5 490 1 259 5 521 8 583 4 61 9 112 13 112z
m-95 -10 c14 0 17 -5 12 -25 -4 -14 -9 -96 -12 -183 -3 -86 -6 -342 -6 -569
l-1 -412 -46 4 c-25 3 -82 7 -126 10 -44 3 -105 8 -135 11 -30 2 -91 7 -135
10 -44 3 -100 7 -125 9 -25 1 -99 10 -164 19 -97 14 -206 17 -595 16 -262 0
-523 1 -581 3 -58 1 -159 8 -225 16 -66 7 -128 16 -138 20 -13 5 6 19 75 53
51 26 146 71 210 102 64 30 130 59 145 62 15 4 105 46 198 93 94 47 188 93
210 102 22 9 85 35 140 58 55 22 103 41 108 41 4 0 47 18 95 41 48 22 115 55
150 72 35 17 66 35 68 39 3 4 12 8 20 8 8 0 41 12 72 26 31 14 93 43 137 64
44 21 118 57 165 80 47 23 101 50 120 61 19 10 89 44 155 75 66 31 136 64 155
75 19 10 43 19 54 19z m2572 -300 c7 0 15 -13 19 -30 4 -16 8 -60 10 -97 3
-37 8 -246 11 -463 4 -217 8 -588 10 -825 1 -236 4 -500 5 -585 2 -85 3 -186
2 -225 -1 -38 -1 -117 1 -175 2 -58 5 -173 6 -257 l2 -152 -58 -59 c-33 -32
-78 -78 -101 -102 -24 -25 -75 -76 -114 -115 -39 -38 -79 -83 -89 -98 -10 -16
-47 -59 -82 -95 -35 -37 -86 -94 -113 -126 -28 -33 -68 -76 -90 -95 -22 -20
-77 -72 -123 -116 -46 -44 -96 -99 -112 -123 -17 -24 -30 -49 -30 -55 0 -7
-24 -38 -52 -69 -29 -31 -63 -69 -76 -85 -12 -15 -55 -70 -95 -121 -39 -52
-93 -121 -119 -155 -26 -34 -47 -67 -48 -74 0 -7 -6 -16 -13 -20 -8 -4 -35
-35 -60 -69 -25 -33 -53 -66 -61 -74 -9 -7 -16 -16 -16 -21 0 -5 -12 -27 -27
-48 -16 -22 -31 -40 -35 -41 -4 0 -5 141 -3 313 3 171 9 375 15 452 5 77 12
298 15 490 2 193 9 411 14 485 6 74 13 302 16 505 3 204 8 426 10 495 3 69 5
211 5 315 1 105 5 230 9 280 8 85 10 91 43 120 19 16 75 77 125 135 49 58 144
159 209 226 65 66 156 150 201 185 45 35 105 82 133 104 28 22 77 61 108 87
31 26 84 62 117 81 33 18 90 52 128 75 37 24 93 62 125 87 32 24 64 51 72 59
7 9 18 16 24 16 7 0 25 14 41 30 16 17 34 30 41 30z m-4978 -860 c26 0 63 -5
82 -10 19 -6 82 -16 140 -22 58 -6 207 -10 331 -9 125 1 309 -3 410 -9 101 -6
209 -15 239 -20 30 -5 89 -10 130 -11 41 0 140 -1 220 0 80 0 174 -4 210 -9
36 -6 160 -19 275 -30 116 -11 239 -27 275 -36 36 -8 83 -19 106 -24 23 -5 74
-10 115 -11 41 -1 101 -5 134 -10 33 -4 150 -12 260 -19 110 -6 220 -15 245
-20 25 -5 83 -16 130 -26 47 -9 113 -16 147 -16 39 1 65 -3 70 -10 4 -7 6
-118 5 -248 -2 -129 -8 -316 -13 -415 -6 -99 -13 -272 -15 -385 -2 -113 -6
-376 -8 -585 -3 -209 -9 -399 -14 -423 -6 -23 -7 -57 -3 -75 4 -17 4 -95 0
-172 -4 -77 -10 -221 -13 -320 -3 -99 -8 -268 -10 -375 -3 -107 -8 -250 -12
-317 -5 -100 -9 -122 -23 -125 -9 -3 -41 -1 -71 3 -30 4 -100 17 -155 29 -55
12 -118 23 -140 25 -22 2 -74 7 -115 10 -41 3 -122 15 -180 26 -58 11 -170 29
-248 39 -79 11 -148 22 -152 25 -5 3 -35 7 -67 9 -32 2 -98 9 -148 15 -49 6
-162 18 -250 26 -88 9 -191 22 -230 30 -38 8 -88 16 -110 19 -22 3 -98 16
-170 29 -71 14 -204 32 -295 42 -91 9 -187 23 -214 31 -26 7 -119 21 -205 29
-86 9 -196 26 -246 40 -49 13 -121 31 -160 40 -38 8 -110 15 -160 15 l-90 0
-1 93 c0 50 -2 133 -3 182 -2 50 -9 131 -16 180 -7 50 -14 126 -15 170 -1 44
-3 134 -6 200 -2 66 -6 514 -9 995 -3 481 -7 997 -9 1145 -2 149 -2 273 1 278
2 4 25 7 51 7z"/>
<g>
<path d="M4430 4024 c-15 4 -35 -1 -50 -10 -14 -9 -31 -27 -37 -40 -10 -21 -8
-29 10 -50 14 -16 36 -27 62 -31 31 -4 44 -1 56 14 9 10 20 32 24 50 5 26 2
34 -17 47 -13 8 -34 17 -48 20z"/>
</g>
<g>
<path d="M6536 3920 c-21 0 -42 -9 -60 -25 -14 -13 -26 -31 -26 -39 0 -9 16
-31 35 -51 20 -19 45 -35 58 -35 12 1 32 9 45 19 15 14 22 30 22 55 0 23 -7
43 -20 56 -12 12 -33 20 -54 20z"/>
</g>
<g>
<path d="M5425 3690 c-7 0 -18 -6 -24 -14 -7 -8 -14 -27 -17 -43 -2 -15 -10
-59 -18 -98 -8 -38 -26 -135 -40 -215 -15 -80 -29 -152 -32 -162 -2 -9 -9 -42
-15 -75 -6 -32 -17 -103 -24 -158 -8 -55 -23 -136 -34 -180 -11 -44 -23 -96
-26 -115 -3 -19 -11 -73 -18 -120 -7 -47 -16 -91 -21 -98 -4 -8 -5 -42 -1 -77
4 -37 13 -69 21 -76 12 -10 29 -10 82 1 37 7 75 17 85 22 11 5 62 16 115 24
54 8 110 16 126 19 16 2 31 7 35 11 3 3 6 26 7 50 l1 45 -76 -6 c-42 -3 -92
-10 -111 -15 -19 -4 -70 -17 -112 -28 -45 -12 -80 -16 -84 -11 -3 5 1 51 10
102 8 50 17 106 20 122 2 17 9 62 16 100 6 39 20 111 30 160 10 50 24 124 30
165 6 41 17 98 25 125 7 28 16 92 19 144 3 52 10 99 15 105 5 6 11 34 14 61 3
28 13 85 23 127 15 63 16 79 5 92 -8 9 -19 16 -26 16z"/>
</g>
<g>
<path d="M4610 1954 c-14 2 -35 1 -47 -1 -19 -4 -23 -11 -23 -44 0 -21 3 -39
8 -40 4 0 16 -3 27 -6 11 -2 40 -9 65 -13 25 -5 86 -16 135 -24 50 -7 110 -18
135 -24 25 -5 122 -20 215 -32 94 -12 190 -28 215 -35 25 -8 97 -21 160 -31
63 -9 135 -18 160 -19 25 -2 83 -10 130 -18 47 -9 119 -20 160 -26 41 -5 134
-19 205 -29 72 -11 166 -23 210 -26 l81 -7 18 40 c9 23 15 45 12 49 -3 5 -45
12 -93 16 -48 3 -101 11 -118 16 -16 5 -95 16 -175 25 -80 9 -170 21 -200 27
-30 6 -82 12 -115 14 -33 1 -96 7 -140 12 -44 6 -100 15 -125 22 -25 6 -65 13
-90 15 -25 3 -58 8 -75 11 -16 4 -39 8 -50 10 -11 2 -57 12 -103 23 -46 12
-103 21 -127 21 -24 0 -70 7 -102 15 -32 8 -119 24 -193 35 -74 11 -146 22
-160 24z"/>
</g>
</g>
</g>
</svg>
