<?xml version="1.0" standalone="no"?>
<!DOCTYPE svg PUBLIC "-//W3C//DTD SVG 20010904//EN"
 "http://www.w3.org/TR/2001/REC-SVG-20010904/DTD/svg10.dtd">
<svg version="1.0" xmlns="http://www.w3.org/2000/svg"
 width="847.000000pt" height="847.000000pt" viewBox="0 0 847.000000 847.000000"
 preserveAspectRatio="xMidYMid meet">
<metadata>
Created by potrace 1.16, written by Peter Selinger 2001-2019
</metadata>
<g transform="translate(0.000000,847.000000) scale(0.100000,-0.100000)"
fill="#000000" stroke="none">
<g>
<path d="M4174 8075 c-26 4 -44 2 -49 -4 -3 -6 -17 -11 -31 -11 -14 0 -41 -16
-65 -37 -22 -20 -48 -50 -56 -67 -9 -17 -18 -59 -21 -94 l-4 -63 44 -39 c23
-22 46 -40 50 -40 5 0 17 -9 28 -20 16 -16 33 -20 81 -20 34 0 80 5 103 12 22
6 58 25 79 41 21 17 43 42 49 56 5 14 10 42 10 61 0 19 -3 48 -7 63 -4 16 -26
48 -48 72 -22 25 -58 53 -81 64 -22 11 -60 22 -82 26z m-18 -105 c16 0 42 -6
56 -12 15 -7 34 -25 42 -39 9 -15 16 -45 16 -67 0 -23 -7 -47 -15 -55 -11 -12
-30 -14 -77 -10 -35 3 -76 13 -93 22 -16 9 -31 27 -33 38 -2 12 9 41 24 65 15
24 32 46 38 50 6 4 25 8 42 8z"/>
</g>
<g>
<path d="M4215 7263 c-77 3 -159 1 -183 -4 -23 -4 -55 -17 -70 -27 -15 -10
-58 -34 -97 -52 -38 -18 -79 -36 -90 -40 -11 -4 -59 -42 -106 -83 -48 -42 -97
-89 -108 -106 -12 -17 -35 -59 -50 -93 -16 -35 -36 -106 -45 -159 -9 -53 -16
-123 -16 -156 0 -32 6 -67 13 -78 7 -11 21 -42 31 -68 10 -26 44 -83 76 -126
32 -43 71 -87 86 -97 15 -11 39 -31 54 -45 15 -14 39 -33 54 -42 14 -9 30 -17
36 -17 6 0 29 -9 53 -19 23 -11 94 -27 157 -36 67 -10 146 -15 190 -12 46 3
110 16 166 35 51 17 107 40 125 51 19 12 41 24 49 27 8 3 24 10 35 14 11 5 43
16 71 25 28 8 69 29 91 45 23 17 66 60 96 98 33 40 60 84 67 111 6 24 11 84
11 135 0 50 -5 120 -12 156 -6 36 -25 101 -42 144 -17 45 -53 109 -81 146 -28
37 -67 81 -86 97 -19 17 -87 57 -150 90 -63 33 -131 65 -150 71 -19 6 -98 13
-175 15z m-9 -119 c80 -1 137 -7 169 -19 27 -9 74 -30 104 -46 31 -17 80 -48
108 -70 29 -22 70 -63 91 -92 21 -28 50 -77 64 -107 14 -30 31 -73 38 -94 7
-21 13 -80 14 -130 1 -66 -4 -108 -19 -151 -15 -48 -32 -73 -85 -126 -60 -61
-70 -68 -130 -81 -36 -8 -86 -28 -110 -44 -25 -15 -47 -29 -50 -29 -3 -1 -25
-5 -50 -9 -25 -5 -53 -13 -63 -18 -11 -5 -33 -12 -50 -16 -18 -3 -63 -6 -102
-6 -38 0 -92 1 -120 4 -27 2 -62 12 -77 22 -14 10 -36 18 -47 18 -12 0 -44 12
-72 26 -27 15 -76 53 -108 84 -33 32 -67 74 -76 94 -10 20 -21 36 -26 36 -5 0
-9 8 -9 18 0 10 -4 22 -9 28 -4 5 -13 36 -19 69 -8 41 -8 73 -2 100 6 22 13
58 16 80 3 22 10 57 15 77 5 20 14 40 19 43 6 3 10 12 10 20 0 8 14 34 30 59
17 24 52 64 79 88 27 24 98 69 160 101 61 32 128 61 149 66 20 4 91 7 158 5z"/>
<g>
<path d="M4522 6638 c-24 18 -30 18 -53 6 -15 -7 -29 -19 -31 -26 -3 -7 1 -28
9 -45 11 -29 18 -33 52 -33 22 0 44 6 51 15 7 8 10 25 6 39 -3 14 -18 34 -34
44z"/>
</g>
<g>
<path d="M3824 6640 c-12 0 -29 -11 -37 -24 -9 -13 -13 -34 -10 -47 3 -13 13
-30 21 -36 9 -7 28 -13 44 -13 17 0 31 7 38 19 5 11 10 31 10 45 0 14 -9 31
-22 40 -12 9 -32 16 -44 16z"/>
</g>
<g>
<path d="M4142 6558 c-26 3 -34 -1 -41 -20 -5 -13 -18 -47 -30 -77 -12 -29
-21 -61 -21 -69 0 -9 -9 -26 -21 -38 -15 -16 -18 -28 -13 -48 4 -17 17 -31 33
-38 14 -5 42 -7 61 -3 19 4 54 6 77 5 32 -1 44 4 52 19 6 11 11 28 11 39 0 11
-11 27 -25 36 -13 9 -38 16 -55 16 -16 0 -30 3 -30 8 0 4 12 36 27 70 20 48
24 68 16 80 -5 10 -24 18 -41 20z"/>
</g>
<g>
<path d="M4257 6259 c-34 0 -93 -7 -131 -15 -38 -7 -73 -11 -77 -8 -4 2 -10 0
-13 -5 -3 -5 -26 -6 -51 -4 -41 5 -45 4 -55 -22 -8 -22 -7 -31 5 -45 10 -11
34 -18 68 -20 28 -1 61 -2 72 -1 11 1 62 3 113 6 58 2 107 10 128 20 25 11 34
22 34 40 0 13 -7 31 -16 39 -11 11 -33 16 -77 15z"/>
</g>
</g>
<g>
<path d="M4205 5504 c-16 2 -50 0 -75 -4 -25 -5 -88 -16 -140 -24 -52 -8 -124
-25 -160 -36 -36 -12 -92 -32 -125 -45 -33 -13 -79 -33 -102 -45 -23 -11 -47
-20 -54 -20 -6 0 -39 -17 -72 -37 -34 -21 -84 -56 -112 -78 -27 -22 -54 -45
-60 -51 -5 -6 -18 -16 -28 -21 -10 -5 -65 -55 -122 -112 -61 -60 -108 -114
-111 -129 -4 -15 -12 -34 -18 -42 -7 -8 -18 -33 -25 -55 -7 -22 -26 -67 -42
-100 -21 -45 -35 -104 -54 -225 -22 -142 -25 -190 -22 -340 3 -102 9 -185 15
-196 6 -12 21 -59 33 -105 12 -46 32 -109 46 -139 13 -30 37 -80 52 -110 16
-30 40 -76 53 -102 14 -25 30 -52 37 -60 6 -7 26 -32 45 -55 19 -24 66 -71
105 -105 39 -35 89 -79 112 -98 23 -19 64 -49 93 -67 28 -18 92 -54 141 -81
50 -28 122 -59 160 -71 39 -11 119 -30 180 -42 60 -12 122 -27 137 -35 16 -8
28 -19 28 -24 0 -6 6 -10 14 -10 7 0 27 -7 42 -15 16 -8 54 -15 84 -15 30 0
80 7 110 15 30 8 93 18 139 22 63 5 88 11 100 25 11 13 29 18 62 18 31 0 51 5
60 17 8 9 29 22 47 30 19 8 71 37 115 65 45 28 101 67 124 87 23 20 87 80 142
133 55 54 117 121 139 150 21 29 50 76 64 103 15 28 33 66 41 85 9 19 31 87
51 150 19 63 40 153 45 200 6 47 11 117 12 155 1 39 -1 102 -5 140 -4 39 -16
113 -27 165 -11 52 -36 142 -56 200 -20 58 -47 122 -60 142 -12 21 -23 41 -23
46 0 4 -25 52 -56 107 -31 55 -65 109 -74 120 -10 11 -21 30 -24 41 -4 12 -37
49 -74 84 -37 34 -89 83 -117 109 -27 25 -66 57 -85 70 -19 13 -84 46 -143 73
-60 27 -116 53 -125 57 -9 5 -44 17 -77 27 -33 10 -87 21 -120 25 -33 4 -94
12 -135 18 -41 6 -88 13 -105 15z m15 -121 c25 -3 90 -11 145 -19 55 -8 127
-22 160 -31 33 -9 89 -29 125 -46 36 -16 87 -40 113 -53 27 -13 75 -44 107
-69 32 -25 101 -87 153 -137 68 -66 104 -110 125 -153 16 -33 42 -82 58 -110
15 -27 36 -59 46 -69 10 -11 18 -28 18 -38 0 -11 14 -51 31 -91 17 -40 37 -99
46 -132 8 -33 22 -107 31 -164 13 -89 14 -130 4 -270 -10 -152 -15 -177 -55
-301 -24 -74 -54 -155 -67 -180 -12 -25 -46 -76 -75 -115 -28 -38 -94 -108
-146 -156 -52 -47 -112 -99 -135 -116 -22 -18 -53 -37 -70 -44 -16 -7 -50 -28
-75 -46 -26 -18 -62 -39 -80 -47 -19 -7 -65 -17 -104 -20 -38 -4 -104 -16
-145 -27 -63 -17 -85 -18 -140 -10 -36 6 -99 17 -140 26 -41 9 -94 23 -117 32
-23 8 -45 13 -50 10 -4 -3 -44 3 -88 13 -44 9 -98 23 -120 30 -22 7 -78 33
-125 58 -47 25 -112 66 -145 90 -33 25 -78 61 -100 80 -22 18 -73 66 -113 105
-40 40 -93 104 -117 142 -24 39 -49 84 -57 100 -7 17 -18 33 -25 38 -6 4 -15
22 -18 40 -4 17 -11 37 -16 43 -5 6 -18 38 -28 71 -11 34 -29 115 -40 181 -13
72 -21 163 -21 229 0 59 5 135 10 168 5 33 14 85 20 115 6 30 13 69 15 85 2
17 22 69 44 117 22 48 61 116 86 150 26 35 86 99 134 143 49 44 106 94 127
110 21 17 54 40 71 52 18 12 57 33 86 46 28 14 115 49 192 80 112 45 162 59
250 71 61 9 124 17 140 19 17 2 50 2 75 0z"/>
</g>
<g>
<path d="M6366 4940 c-45 0 -85 -2 -88 -5 -3 -3 -19 -7 -37 -10 -17 -2 -48
-14 -69 -26 -20 -12 -52 -33 -70 -47 -24 -17 -47 -54 -81 -126 -26 -55 -54
-119 -61 -141 -7 -22 -15 -60 -17 -85 -2 -25 -7 -72 -11 -105 -4 -33 -11 -66
-15 -72 -5 -7 -5 -13 0 -13 4 0 9 -17 9 -38 1 -20 16 -68 34 -107 17 -38 43
-93 56 -120 13 -28 43 -71 66 -97 24 -25 59 -52 78 -60 19 -8 78 -20 130 -28
52 -7 124 -12 160 -11 36 1 90 6 120 11 30 6 68 12 84 15 16 2 51 12 77 20 32
11 71 38 116 80 38 34 76 78 85 96 9 19 28 63 42 98 22 52 27 81 28 160 1 58
-4 112 -12 136 -7 22 -24 65 -37 95 -13 30 -27 60 -31 66 -4 6 -27 37 -51 69
-24 32 -63 77 -87 99 -24 23 -69 54 -101 70 -32 16 -67 33 -77 39 -11 5 -48
12 -83 15 -35 2 -66 9 -69 13 -3 5 -42 9 -88 9z m-1 -124 c66 -2 129 -7 140
-9 11 -3 47 -15 80 -27 51 -19 75 -37 153 -118 86 -87 96 -102 118 -169 17
-51 24 -97 24 -148 0 -40 -5 -86 -11 -102 -6 -15 -11 -41 -11 -57 1 -16 -8
-45 -18 -65 -10 -20 -36 -52 -57 -72 -21 -20 -51 -43 -68 -52 -16 -8 -48 -18
-70 -22 -22 -4 -76 -9 -120 -12 -44 -3 -124 -5 -178 -4 -75 1 -108 6 -136 21
-21 10 -49 34 -63 52 -14 18 -35 53 -48 78 -13 25 -29 56 -36 70 -6 14 -17 49
-23 79 -9 44 -8 72 4 145 9 50 30 127 46 171 17 44 42 107 57 139 18 39 39 67
62 83 33 22 42 23 155 19z"/>
<g>
<path d="M6190 4630 c-6 0 -22 -12 -35 -26 -20 -21 -22 -30 -14 -41 7 -7 9
-16 6 -20 -4 -3 -2 -12 4 -20 6 -7 27 -13 45 -13 24 0 38 7 49 24 12 17 13 30
6 49 -6 14 -19 31 -30 36 -11 6 -25 11 -31 11z"/>
</g>
<g>
<path d="M6285 4480 c-9 0 -44 -28 -77 -62 -33 -35 -63 -70 -68 -78 -4 -8 -5
-21 -3 -28 3 -7 26 -23 51 -36 26 -13 70 -29 98 -36 28 -7 63 -10 78 -6 24 6
27 11 24 44 -3 33 -6 37 -33 40 -16 1 -40 8 -52 14 -13 6 -23 16 -23 23 0 6
13 22 30 35 16 14 29 35 30 47 0 12 -9 27 -19 33 -11 5 -27 10 -36 10z"/>
</g>
<g>
<path d="M6567 4419 c-23 9 -29 7 -47 -16 -11 -14 -20 -32 -20 -39 0 -8 9 -23
21 -35 15 -15 28 -19 47 -14 15 3 33 13 40 22 6 9 12 22 12 27 0 6 -6 19 -14
28 -7 10 -24 22 -39 27z"/>
</g>
<g>
<path d="M6229 4196 c-61 30 -68 32 -88 18 -11 -8 -21 -25 -21 -38 0 -12 10
-32 23 -43 12 -11 38 -26 57 -33 19 -7 55 -23 80 -35 25 -13 59 -26 77 -29 28
-7 33 -4 47 23 16 29 15 31 -16 60 -18 17 -46 33 -63 37 -16 4 -60 21 -96 40z"/>
</g>
</g>
<g>
<path d="M1962 4690 c-11 0 -24 -4 -27 -10 -3 -5 -24 -10 -46 -10 -24 0 -64
-12 -100 -30 -33 -16 -86 -48 -118 -70 -31 -22 -61 -40 -67 -40 -6 0 -25 -15
-43 -34 -18 -18 -33 -40 -35 -49 -1 -8 -7 -21 -13 -28 -6 -8 -16 -45 -23 -84
-7 -38 -17 -82 -22 -96 -6 -17 -5 -50 3 -95 6 -38 22 -90 35 -115 12 -25 30
-51 38 -58 9 -8 16 -20 16 -28 0 -8 15 -28 33 -44 17 -17 57 -47 88 -69 31
-21 74 -47 97 -59 23 -12 54 -21 70 -21 15 0 33 -5 38 -10 6 -6 35 -11 65 -11
30 -1 77 1 106 4 28 3 64 12 80 20 15 8 44 21 63 28 19 6 53 23 75 37 22 14
75 62 118 106 47 50 81 95 88 116 6 19 13 67 15 107 4 49 0 93 -12 140 -9 37
-30 93 -47 123 -16 30 -41 71 -55 90 -14 19 -38 47 -54 62 -16 15 -48 38 -71
52 -23 13 -64 30 -92 39 -27 9 -80 21 -116 26 -37 6 -76 11 -87 11z m8 -111
c19 0 62 -7 95 -15 33 -9 71 -18 85 -21 14 -3 43 -20 64 -37 22 -16 58 -56 82
-88 23 -32 48 -75 55 -96 6 -20 16 -43 22 -51 6 -7 12 -51 14 -98 2 -76 0 -88
-24 -126 -14 -23 -47 -62 -73 -87 -25 -25 -79 -62 -119 -83 -58 -31 -87 -40
-145 -44 -44 -3 -95 -1 -127 7 -30 7 -73 22 -96 35 -22 12 -66 42 -96 66 -30
24 -67 64 -83 89 -16 25 -35 67 -44 93 -13 38 -14 61 -7 110 5 34 14 78 18 97
5 19 28 55 52 80 24 25 63 60 87 79 23 19 79 47 124 62 45 16 97 28 116 28z"/>
<g>
<path d="M2241 4440 c-6 0 -23 -11 -36 -25 -22 -21 -23 -28 -14 -49 6 -13 22
-27 35 -30 14 -4 33 -2 44 4 13 7 20 21 20 39 0 15 -8 35 -18 44 -10 10 -24
17 -31 17z"/>
</g>
<g>
<path d="M1900 4370 c-15 0 -35 -9 -44 -19 -10 -11 -16 -27 -14 -37 2 -10 17
-26 34 -36 27 -16 32 -16 52 -2 14 9 22 26 22 43 0 15 -5 32 -12 39 -7 7 -24
12 -38 12z"/>
</g>
<g>
<path d="M2138 4329 c-2 0 -13 -4 -25 -9 -18 -7 -23 -17 -23 -46 0 -21 7 -46
17 -56 16 -18 16 -21 0 -48 -17 -28 -17 -29 3 -40 12 -6 41 -8 72 -4 29 4 59
11 66 17 6 5 12 22 12 37 0 19 -17 44 -59 88 -33 34 -61 62 -63 61z"/>
</g>
<g>
<path d="M2280 4092 c-14 3 -62 -2 -107 -11 -63 -12 -91 -23 -122 -49 -23 -18
-41 -39 -41 -47 0 -8 12 -18 27 -21 15 -4 59 1 102 11 42 10 100 24 129 32 47
13 52 17 52 43 0 16 -3 31 -7 33 -5 2 -19 6 -33 9z"/>
</g>
</g>
<g>
<path d="M7630 4553 c-19 3 -49 0 -66 -6 -17 -7 -51 -29 -76 -49 -38 -31 -47
-45 -52 -81 -4 -28 -2 -55 8 -78 9 -20 27 -41 48 -51 18 -9 48 -21 67 -27 19
-6 55 -11 80 -11 25 0 64 6 86 14 28 10 45 23 57 47 11 23 15 46 11 69 -3 19
-13 50 -20 69 -8 19 -24 42 -36 53 -12 10 -33 25 -47 32 -14 8 -41 17 -60 19z
m-12 -103 c14 0 31 -8 38 -17 7 -10 14 -35 14 -57 l0 -38 -57 7 c-32 4 -61 9
-65 12 -5 2 -8 12 -8 21 0 9 12 29 27 44 15 16 37 28 51 28z"/>
</g>
<g>
<path d="M879 4408 c-13 0 -44 -4 -69 -7 -34 -5 -61 -18 -108 -56 -34 -27 -65
-60 -68 -73 -4 -13 1 -41 12 -65 10 -23 24 -49 31 -58 8 -10 26 -19 41 -22 15
-3 45 -12 67 -21 22 -8 58 -15 80 -15 22 -1 51 5 64 12 13 6 41 37 62 67 21
30 39 60 39 67 0 7 -11 37 -25 66 -16 35 -37 63 -63 80 -21 15 -49 26 -63 25z
m-32 -88 c13 0 32 -9 43 -20 12 -12 20 -33 20 -54 0 -25 -7 -40 -25 -54 -20
-16 -32 -18 -67 -12 -23 5 -48 16 -55 26 -7 10 -13 22 -13 26 0 5 7 11 15 14
8 4 15 11 15 17 0 6 10 21 22 34 12 13 32 23 45 23z"/>
</g>
<g>
<path d="M4257 2264 c-51 3 -112 1 -137 -4 -25 -4 -68 -18 -95 -30 -28 -12
-58 -26 -67 -31 -10 -5 -22 -9 -28 -9 -6 0 -36 -20 -68 -45 -31 -25 -61 -45
-66 -45 -4 0 -30 -14 -57 -32 -29 -19 -60 -50 -76 -77 -15 -25 -41 -75 -58
-111 -17 -36 -37 -93 -44 -127 -9 -39 -11 -86 -7 -130 4 -37 12 -84 18 -103 6
-19 19 -53 30 -75 11 -22 25 -49 31 -61 7 -11 24 -34 38 -51 14 -17 55 -50 90
-75 35 -24 87 -56 116 -71 29 -15 78 -37 110 -48 35 -12 100 -22 166 -26 70
-4 138 -1 195 7 57 9 109 24 152 46 36 17 89 48 117 67 29 20 74 52 100 73 27
20 63 53 81 73 18 20 47 56 65 81 32 44 32 46 31 155 -1 61 -7 130 -13 155 -7
25 -22 70 -34 100 -12 30 -29 69 -37 87 -8 17 -41 61 -73 97 -32 37 -82 81
-110 99 -29 19 -74 41 -102 51 -27 10 -58 22 -67 27 -10 5 -38 13 -63 19 -25
6 -87 12 -138 14z m-2 -118 c61 -2 125 -10 143 -16 17 -7 32 -16 32 -21 0 -6
-7 -23 -15 -39 -14 -28 -14 -31 5 -50 11 -11 31 -20 45 -20 14 0 34 9 45 20
11 11 20 27 20 35 0 8 3 15 8 15 4 0 18 -7 31 -16 12 -9 41 -36 63 -60 22 -24
57 -68 79 -99 29 -42 42 -74 55 -136 9 -47 14 -109 12 -147 -2 -37 -12 -83
-21 -102 -10 -19 -34 -53 -55 -76 -20 -22 -75 -66 -122 -97 -47 -30 -101 -62
-120 -70 -19 -8 -57 -24 -85 -35 -32 -12 -78 -20 -126 -21 -42 -1 -105 3 -140
9 -35 6 -77 16 -94 22 -16 6 -52 21 -80 35 -27 13 -76 42 -108 64 -32 23 -69
56 -83 74 -14 18 -35 57 -46 87 -15 36 -23 82 -25 143 -4 85 -2 94 30 166 30
65 48 88 121 155 47 43 94 82 103 87 10 6 27 18 38 27 11 10 56 30 100 44 71
23 92 26 190 22z"/>
<g>
<path d="M3994 2040 c-23 0 -38 -7 -48 -22 -9 -12 -16 -28 -16 -34 0 -6 8 -18
18 -27 10 -10 29 -17 41 -17 12 0 31 5 42 10 12 7 19 21 19 38 0 16 -5 33 -12
40 -7 7 -27 12 -44 12z"/>
</g>
<g>
<path d="M4287 1990 c-7 0 -20 -5 -29 -11 -10 -5 -18 -21 -18 -34 0 -14 15
-42 36 -64 35 -39 35 -40 18 -66 -16 -25 -16 -27 4 -48 21 -21 23 -21 55 -5
17 10 48 21 67 26 30 7 35 13 38 39 2 25 -2 34 -20 44 -13 7 -49 36 -81 66
-32 29 -64 53 -70 53z"/>
</g>
<g>
<path d="M4532 1720 c-21 0 -41 -2 -44 -5 -3 -3 -50 -17 -104 -31 -55 -13
-108 -26 -120 -28 -11 -1 -26 -6 -31 -9 -6 -4 -13 -18 -15 -32 -3 -16 1 -30
14 -41 10 -10 31 -17 46 -17 15 0 47 9 72 21 25 11 65 25 90 32 25 7 59 14 75
17 17 2 42 13 55 23 21 16 23 21 12 44 -9 21 -18 26 -50 26z"/>
</g>
</g>
<g>
<path d="M4211 789 c-9 -1 -29 -4 -46 -6 -16 -3 -45 -16 -63 -30 -19 -14 -56
-48 -83 -76 -27 -28 -49 -55 -49 -60 0 -6 5 -27 11 -46 6 -20 15 -46 20 -58 5
-13 32 -38 61 -56 29 -18 73 -39 97 -46 27 -8 62 -10 93 -6 27 4 52 13 55 21
3 7 13 16 24 19 10 4 30 25 43 48 13 23 27 55 30 70 4 15 2 45 -4 66 -7 27
-26 53 -63 85 -28 26 -65 53 -81 61 -15 8 -36 14 -45 14z m6 -112 c19 -4 41
-14 49 -24 7 -10 14 -38 14 -63 0 -26 -7 -55 -16 -69 -15 -21 -22 -23 -68 -16
-30 4 -64 16 -83 31 -24 18 -33 33 -33 53 0 17 7 31 16 35 9 3 24 6 34 6 10 0
25 12 35 26 14 23 22 25 52 21z"/>
</g>
</g>
</svg>
