<?xml version="1.0" standalone="no"?>
<!DOCTYPE svg PUBLIC "-//W3C//DTD SVG 20010904//EN"
 "http://www.w3.org/TR/2001/REC-SVG-20010904/DTD/svg10.dtd">
<svg version="1.0" xmlns="http://www.w3.org/2000/svg"
 width="1536.000000pt" height="2048.000000pt" viewBox="0 0 1536.000000 2048.000000"
 preserveAspectRatio="xMidYMid meet">
<metadata>
Created by potrace 1.16, written by Peter Selinger 2001-2019
</metadata>
<g transform="translate(0.000000,2048.000000) scale(0.100000,-0.100000)"
fill="#000000" stroke="none">
<g>
<path d="M7494 19840 c-8 0 -26 -12 -41 -26 l-25 -25 6 -172 c3 -95 9 -521 13
-947 3 -426 7 -922 7 -1102 1 -179 5 -330 9 -334 4 -5 16 -3 25 2 16 11 17 91
13 1240 l-4 1229 22 47 c11 26 21 49 21 52 0 2 -7 12 -16 20 -8 9 -22 16 -30
16z"/>
</g>
<g>
<path d="M11468 18929 c-2 0 -10 -3 -18 -6 -8 -3 -25 -15 -37 -26 -13 -11 -23
-26 -23 -32 0 -7 -8 -19 -19 -29 -10 -9 -26 -34 -36 -56 -10 -22 -21 -40 -25
-40 -4 0 -24 -26 -45 -57 -21 -32 -46 -69 -57 -83 -10 -14 -35 -50 -55 -80
-19 -30 -52 -79 -72 -108 -20 -30 -43 -66 -51 -81 -8 -15 -35 -53 -60 -85 -25
-32 -53 -72 -62 -89 -10 -18 -29 -48 -43 -67 -14 -19 -50 -70 -80 -113 -30
-43 -55 -80 -55 -83 0 -3 -25 -39 -55 -79 -30 -41 -55 -77 -55 -81 0 -3 -15
-24 -34 -47 -18 -23 -57 -80 -86 -126 -40 -65 -49 -86 -38 -92 7 -5 17 -7 23
-6 5 2 44 55 87 118 43 63 108 157 143 209 36 52 89 131 120 175 30 44 99 144
153 222 53 78 116 170 139 205 24 35 54 74 67 88 13 14 29 36 36 48 6 13 41
61 76 107 35 46 64 86 64 90 0 4 12 22 28 40 15 18 35 42 45 54 14 18 24 21
52 15 35 -6 35 -6 35 30 0 29 -5 38 -30 51 -16 8 -30 15 -32 14z"/>
</g>
<g>
<path d="M9417 17504 c-181 0 -330 0 -332 -2 -2 -2 -52 -5 -112 -8 -59 -2
-139 -9 -178 -14 -38 -6 -99 -12 -135 -15 -36 -2 -101 -11 -145 -20 -44 -9
-105 -21 -135 -26 -30 -6 -69 -12 -85 -14 -17 -2 -64 -11 -105 -20 -41 -9
-102 -20 -134 -26 -32 -5 -68 -15 -78 -20 -11 -6 -22 -8 -25 -6 -2 3 -19 1
-36 -5 -18 -6 -48 -11 -67 -13 -19 -1 -66 -12 -105 -25 -38 -13 -74 -24 -79
-25 -5 0 -11 -6 -13 -12 -3 -7 2 -16 11 -19 8 -3 24 -21 35 -39 11 -20 23 -63
27 -104 5 -54 3 -80 -10 -110 -8 -22 -13 -46 -10 -53 3 -7 26 -30 52 -50 26
-21 67 -56 92 -79 25 -22 65 -57 90 -77 25 -20 59 -50 76 -67 17 -16 57 -52
90 -80 32 -27 66 -57 74 -66 8 -9 49 -45 90 -80 41 -35 97 -85 125 -110 27
-25 82 -74 120 -109 39 -34 71 -68 73 -75 2 -7 -45 -45 -105 -84 l-108 -71
-30 34 c-16 19 -55 66 -85 105 -30 39 -71 89 -90 112 -19 23 -42 52 -50 65 -8
13 -37 53 -65 89 -27 36 -88 114 -134 173 -45 59 -85 113 -88 120 -3 7 -19 27
-35 45 -17 17 -47 57 -68 87 -21 30 -47 63 -58 73 -11 11 -26 16 -31 12 -6 -3
-11 -19 -11 -34 0 -17 10 -37 26 -52 14 -13 43 -49 64 -79 21 -30 46 -64 57
-75 10 -11 42 -48 70 -81 29 -34 50 -64 46 -67 -3 -4 2 -9 11 -13 9 -3 16 -10
16 -15 0 -5 16 -30 35 -56 20 -27 61 -76 91 -110 31 -34 77 -92 102 -129 26
-37 63 -85 82 -108 20 -22 48 -60 63 -83 15 -24 27 -46 27 -50 0 -5 -28 -28
-62 -52 -34 -24 -77 -50 -96 -58 -20 -8 -46 -13 -59 -10 -16 3 -28 -2 -38 -17
-8 -11 -15 -28 -15 -37 0 -8 -17 -29 -37 -46 -21 -16 -53 -38 -72 -48 -19 -9
-46 -28 -60 -41 -14 -13 -30 -24 -35 -24 -5 0 -19 -8 -30 -19 -12 -10 -52 -40
-89 -66 -67 -46 -69 -47 -125 -40 -31 3 -60 9 -64 13 -4 4 -9 207 -13 452 -3
245 -7 548 -9 673 -2 135 -8 233 -14 239 -5 5 -18 8 -28 6 -12 -2 -36 13 -66
44 -26 26 -51 62 -56 80 -6 23 -3 52 9 98 9 36 20 72 24 82 4 11 0 18 -14 23
-11 3 -28 2 -38 -3 -10 -5 -38 -15 -63 -21 -25 -7 -58 -16 -75 -21 -16 -5 -50
-14 -75 -21 -25 -6 -55 -16 -67 -22 -13 -6 -26 -7 -30 -4 -3 4 -17 0 -29 -8
-13 -8 -36 -16 -52 -18 -15 -2 -33 -6 -39 -10 -6 -4 -40 -16 -74 -27 -35 -11
-73 -20 -84 -20 -11 0 -33 -7 -49 -15 -15 -8 -37 -15 -47 -15 -10 0 -21 -4
-24 -10 -3 -5 -14 -10 -23 -10 -9 0 -29 -6 -43 -14 -14 -7 -39 -16 -55 -20
-16 -4 -42 -14 -59 -21 -16 -7 -61 -23 -100 -35 -38 -12 -98 -35 -131 -51 -34
-16 -69 -29 -77 -29 -9 0 -54 -18 -100 -39 -47 -22 -105 -46 -129 -54 -23 -8
-57 -22 -73 -30 -17 -8 -55 -25 -85 -39 -30 -14 -72 -32 -93 -41 -21 -10 -43
-17 -50 -17 -7 0 -23 -9 -37 -20 -14 -11 -33 -20 -43 -20 -11 0 -56 -18 -100
-41 -45 -23 -95 -47 -112 -54 -16 -7 -58 -27 -92 -44 -35 -17 -63 -29 -63 -25
0 4 -8 0 -17 -8 -10 -9 -35 -21 -55 -27 -21 -7 -40 -17 -43 -22 -3 -5 -41 -25
-83 -45 -42 -20 -85 -44 -95 -53 -10 -8 -33 -20 -50 -26 -18 -5 -33 -18 -35
-27 -2 -11 12 -24 44 -40 26 -13 60 -39 75 -58 16 -19 31 -49 34 -67 3 -19 -2
-49 -11 -73 -9 -22 -14 -46 -11 -54 3 -7 18 -16 34 -20 15 -4 60 -16 98 -28
39 -12 158 -50 265 -85 107 -34 229 -74 270 -87 41 -13 140 -46 220 -71 80
-26 154 -49 165 -50 11 -2 52 -15 90 -30 39 -14 86 -30 105 -34 19 -4 49 -15
67 -24 18 -9 40 -17 50 -17 10 0 29 -7 41 -16 12 -8 22 -12 22 -8 0 3 7 1 15
-6 8 -7 15 -10 15 -7 0 4 21 -3 46 -13 25 -11 53 -20 62 -20 9 0 30 -7 46 -15
15 -8 35 -15 42 -15 8 0 17 -6 20 -14 3 -8 1 -23 -4 -33 -7 -12 -31 -23 -74
-31 -34 -7 -76 -18 -93 -24 -16 -6 -64 -23 -105 -37 -41 -15 -86 -33 -98 -40
-13 -7 -26 -10 -29 -7 -3 3 -15 -1 -27 -9 -11 -8 -27 -15 -34 -15 -8 0 -30 -7
-50 -16 -21 -8 -48 -21 -61 -27 -13 -7 -27 -22 -32 -33 -5 -14 -2 -29 7 -43
10 -14 26 -21 46 -21 17 0 45 8 62 18 17 10 51 24 76 32 25 7 70 25 101 41 31
16 68 29 81 29 13 0 30 6 37 13 6 6 15 12 19 12 4 0 22 6 40 14 23 10 36 11
43 4 8 -8 1 -29 -19 -69 -17 -33 -67 -133 -112 -224 -68 -139 -90 -173 -133
-212 -29 -26 -61 -55 -71 -65 -14 -12 -16 -18 -7 -21 7 -2 32 1 57 8 41 12 47
11 79 -11 19 -13 39 -35 45 -49 5 -14 11 -58 12 -97 1 -40 6 -73 10 -73 5 0
24 11 42 25 18 14 37 25 41 25 4 0 23 11 41 25 18 14 37 25 42 25 6 0 12 7 16
15 3 8 12 15 19 15 8 0 21 7 28 16 7 9 59 38 116 65 57 27 109 49 117 49 8 0
18 5 21 10 3 6 14 10 25 10 10 0 44 14 75 30 31 17 72 30 91 30 18 0 46 5 61
11 15 7 44 19 63 27 19 9 55 19 80 23 25 5 70 13 100 20 30 6 63 15 73 20 12
7 17 5 17 -6 0 -8 -4 -15 -10 -15 -5 0 -10 -5 -10 -11 0 -6 -15 -34 -33 -62
-19 -29 -65 -100 -104 -159 -45 -69 -73 -104 -80 -97 -6 6 -32 4 -74 -7 -35
-9 -70 -21 -78 -27 -7 -7 -19 -12 -25 -12 -6 0 -29 -6 -51 -14 -22 -7 -49 -22
-60 -31 -11 -10 -31 -21 -45 -25 -14 -3 -36 -15 -50 -25 -20 -16 -23 -22 -14
-37 6 -10 21 -19 33 -21 12 -2 36 6 55 17 18 12 40 21 48 21 8 0 19 5 26 12 6
6 21 13 32 15 11 1 20 1 20 0 0 -2 -30 -28 -67 -58 -38 -29 -97 -82 -132 -116
-36 -35 -68 -63 -72 -63 -4 0 -22 -17 -39 -39 -18 -21 -35 -43 -39 -48 -3 -6
-15 -13 -26 -17 -17 -5 -48 22 -170 150 l-149 156 -18 -22 c-16 -20 -16 -23
-2 -46 9 -13 21 -24 28 -24 6 0 29 -25 50 -55 22 -30 45 -55 52 -55 7 0 36
-30 66 -66 29 -37 57 -72 62 -79 7 -9 -4 -27 -37 -59 -25 -25 -56 -70 -70 -99
-13 -29 -38 -66 -56 -82 -18 -17 -41 -46 -52 -65 -11 -19 -28 -48 -39 -65 -10
-16 -29 -50 -40 -75 -12 -25 -28 -61 -35 -80 -7 -19 -19 -64 -25 -100 -6 -36
-13 -76 -14 -91 -2 -14 -7 -32 -12 -41 -6 -11 -9 5 -8 49 1 35 -3 88 -8 116
-5 29 -17 60 -25 70 -9 9 -22 17 -29 17 -7 0 -15 -4 -18 -9 -4 -5 -9 -78 -13
-163 -3 -84 -6 -169 -5 -188 0 -19 -3 -75 -8 -124 -6 -55 -6 -95 0 -107 6 -9
23 -20 40 -24 16 -4 30 -9 30 -13 0 -3 -11 -22 -24 -41 -13 -20 -63 -96 -112
-169 -49 -73 -96 -144 -104 -157 -8 -13 -27 -41 -41 -62 -14 -21 -47 -69 -72
-107 -25 -38 -44 -72 -42 -77 3 -4 19 -10 35 -14 16 -4 40 -19 54 -35 13 -16
26 -35 28 -42 3 -9 26 -1 74 25 38 21 114 60 169 88 55 27 111 56 125 63 14 8
50 27 80 42 30 15 69 37 85 48 17 12 32 21 35 21 3 1 14 4 26 8 17 6 39 -11
125 -98 57 -58 107 -105 111 -105 4 0 41 -23 83 -51 41 -27 75 -56 75 -63 0
-7 -13 -31 -28 -52 -16 -21 -61 -90 -101 -153 -40 -64 -70 -120 -67 -128 3 -8
13 -13 22 -11 9 2 60 68 113 147 53 80 104 149 113 155 13 8 43 -2 135 -46 65
-32 146 -66 181 -77 34 -11 99 -25 145 -31 45 -7 106 -16 134 -22 29 -5 55
-13 57 -17 3 -4 7 -96 10 -204 3 -117 1 -199 -4 -202 -5 -3 -58 3 -117 15 -59
11 -157 36 -218 54 -60 18 -126 38 -145 44 -19 5 -87 29 -150 52 -63 23 -128
45 -145 51 -16 5 -33 9 -36 9 -3 0 -4 -22 -1 -49 2 -28 2 -60 -1 -73 -4 -13
-27 -45 -52 -71 -25 -27 -45 -53 -45 -57 0 -5 19 -14 43 -21 23 -6 58 -18 77
-26 19 -7 48 -20 63 -28 16 -8 34 -15 41 -15 8 0 38 -9 67 -21 30 -12 65 -26
79 -31 14 -6 39 -16 55 -23 17 -7 39 -16 50 -20 11 -4 31 -9 45 -11 14 -3 36
-9 50 -14 14 -4 50 -14 80 -21 30 -6 60 -15 65 -19 6 -4 28 -11 50 -14 l40 -7
1 63 c1 41 9 80 23 110 12 26 31 54 44 63 12 8 28 15 37 15 8 0 27 11 41 24
l26 23 -5 197 -5 197 44 -8 c24 -4 124 -7 222 -8 168 0 178 -1 183 -20 4 -11
27 -54 52 -95 25 -41 53 -82 63 -92 11 -9 27 -36 38 -60 10 -23 37 -74 60
-113 22 -38 41 -76 41 -83 0 -12 -24 -13 -132 -8 -73 4 -141 9 -153 11 -11 3
-68 7 -126 9 -58 2 -115 9 -127 15 -11 6 -32 11 -46 11 -14 0 -26 -3 -26 -7 0
-4 16 -21 36 -40 l36 -33 -3 -79 c-3 -63 -9 -86 -27 -110 -12 -17 -22 -32 -22
-34 0 -3 26 -8 57 -12 32 -4 66 -9 78 -11 11 -2 43 -6 70 -9 28 -2 78 -7 113
-11 34 -3 62 -10 62 -15 0 -4 12 -20 27 -34 15 -14 33 -25 40 -25 7 0 17 -9
23 -20 6 -11 27 -27 48 -36 20 -9 61 -22 90 -30 29 -8 77 -14 107 -14 46 0 57
-4 68 -22 8 -13 20 -45 27 -73 6 -27 14 -57 17 -65 3 -8 7 -22 8 -30 2 -8 13
-60 24 -115 12 -55 28 -129 36 -165 9 -36 17 -74 19 -85 2 -11 13 -63 25 -115
12 -52 24 -100 26 -107 2 -7 -1 -10 -8 -8 -7 3 -30 -6 -52 -20 -22 -13 -52
-30 -67 -36 -16 -6 -28 -15 -28 -20 0 -4 -7 -6 -15 -3 -8 4 -15 1 -15 -5 0 -6
-11 -11 -24 -11 -13 0 -26 -7 -30 -15 -3 -8 -12 -15 -21 -15 -8 0 -15 -4 -15
-10 0 -5 -11 -10 -25 -10 -14 0 -25 -4 -25 -9 0 -5 -15 -12 -33 -15 -19 -3
-74 -27 -123 -51 -49 -25 -98 -51 -109 -58 -11 -7 -22 -14 -25 -17 -3 -3 -32
-20 -65 -36 -33 -17 -74 -34 -90 -39 -17 -5 -32 -9 -35 -10 -3 0 -15 -4 -27
-9 -13 -4 -23 -12 -23 -18 0 -6 -10 -8 -22 -5 -13 4 -32 -2 -49 -14 -15 -10
-34 -19 -43 -19 -9 0 -16 -4 -16 -9 0 -5 13 -12 29 -16 15 -3 43 -20 60 -37
18 -18 40 -46 49 -62 9 -18 16 -55 16 -87 1 -37 -5 -64 -17 -83 -10 -15 -16
-30 -14 -33 3 -3 56 0 119 7 62 6 151 15 198 21 47 5 110 14 140 19 30 5 98
17 150 25 52 9 124 25 160 37 36 11 105 36 154 54 62 24 93 31 101 24 7 -6 15
-29 19 -53 4 -23 24 -121 45 -217 22 -96 42 -217 45 -268 3 -51 8 -96 10 -101
3 -4 12 -75 21 -157 8 -82 19 -186 24 -230 4 -45 11 -85 13 -90 3 -5 9 -36 12
-69 4 -33 16 -127 27 -210 11 -82 28 -207 39 -277 11 -69 20 -138 20 -152 0
-14 -4 -26 -8 -26 -4 0 -13 5 -20 12 -7 7 -12 9 -12 5 0 -4 -15 -1 -33 6 -18
8 -53 17 -77 21 -25 3 -81 16 -125 27 -44 11 -102 27 -130 34 -27 8 -76 24
-109 35 -32 12 -77 25 -100 30 -22 4 -77 17 -121 29 -44 11 -98 28 -120 37
-22 9 -48 20 -57 25 -10 5 -30 9 -45 9 -16 0 -33 -4 -39 -8 -6 -4 -35 -43 -63
-87 -29 -44 -55 -92 -58 -108 -3 -15 -10 -30 -14 -33 -5 -3 -9 -15 -9 -27 0
-13 -13 -48 -29 -78 -16 -31 -32 -76 -36 -100 -4 -24 -20 -102 -35 -174 -15
-71 -31 -159 -35 -195 -3 -36 -16 -108 -27 -160 -11 -52 -24 -129 -28 -170 -4
-41 -20 -149 -34 -240 -14 -91 -35 -210 -46 -265 -11 -55 -30 -194 -41 -310
-12 -115 -25 -241 -29 -280 -5 -38 -15 -119 -23 -180 -9 -60 -21 -196 -27
-301 -6 -106 -15 -207 -21 -225 -6 -19 -12 -112 -14 -206 -2 -98 1 -175 6
-179 5 -3 9 -16 9 -30 0 -14 7 -27 16 -31 9 -3 24 -2 33 4 9 5 17 20 19 32 2
11 9 21 16 21 11 0 13 28 12 123 0 67 5 181 13 252 7 72 15 157 17 190 1 33 8
110 14 170 5 61 12 139 15 175 3 36 12 117 21 180 8 63 19 140 24 171 6 30 10
75 10 99 0 24 5 94 11 155 6 60 20 180 31 265 11 85 24 184 28 220 5 36 16
103 25 150 10 47 21 110 25 140 4 30 13 82 20 115 6 33 16 76 20 95 5 19 16
82 25 140 9 58 25 141 36 184 10 44 23 84 29 90 5 5 10 20 10 32 0 12 14 50
31 85 27 55 33 61 40 43 4 -12 10 -36 13 -55 3 -19 15 -117 26 -219 12 -102
26 -212 30 -245 4 -33 13 -105 19 -160 6 -55 18 -152 26 -215 8 -63 19 -158
25 -210 5 -52 19 -158 29 -235 11 -77 25 -162 31 -190 6 -27 15 -81 20 -120 5
-38 14 -149 20 -245 6 -96 13 -250 15 -342 2 -91 8 -175 13 -185 5 -10 13 -65
17 -123 4 -58 10 -125 12 -150 2 -25 4 -54 4 -65 1 -11 5 -81 10 -155 5 -74
11 -173 14 -220 3 -47 8 -112 11 -145 4 -33 8 -73 9 -90 2 -16 10 -100 18
-185 9 -85 21 -213 27 -285 6 -71 18 -186 26 -255 9 -69 17 -150 20 -180 2
-30 9 -149 15 -265 6 -115 14 -248 19 -295 4 -47 18 -139 30 -205 12 -66 23
-127 24 -135 2 -8 8 -62 15 -120 7 -58 16 -125 20 -150 4 -25 8 -108 10 -185
l3 -141 -54 -21 c-29 -11 -84 -30 -123 -42 -38 -11 -106 -29 -150 -40 -44 -11
-100 -21 -125 -22 -25 -1 -56 -8 -70 -15 -14 -7 -45 -21 -70 -32 -25 -10 -47
-19 -50 -19 -3 0 -20 -7 -37 -17 -28 -14 -33 -22 -33 -52 0 -26 5 -37 22 -43
12 -4 37 -2 60 6 22 7 49 20 61 27 12 8 50 24 85 36 35 11 67 18 72 15 5 -3
53 6 107 20 54 15 109 28 123 29 14 2 43 10 65 18 22 8 67 23 100 32 33 10 71
21 85 24 14 4 27 17 31 32 4 14 7 63 8 110 0 47 -4 119 -10 160 -5 41 -14 104
-19 140 -6 36 -15 103 -20 150 -5 47 -14 121 -19 165 -6 44 -19 136 -31 205
-11 69 -29 238 -39 375 -11 138 -23 287 -26 330 -3 44 -13 118 -21 165 -8 47
-19 157 -25 245 -5 88 -11 196 -12 240 -2 45 -7 86 -11 93 -4 7 -14 77 -22
155 -8 78 -19 193 -24 254 -5 62 -12 182 -15 265 -3 84 -10 184 -15 222 -6 38
-8 71 -5 74 2 3 46 -13 97 -35 51 -23 111 -46 133 -53 22 -6 59 -20 82 -31 24
-10 48 -19 54 -19 6 0 25 -6 42 -13 18 -8 50 -19 72 -26 22 -7 49 -16 60 -20
11 -5 43 -18 70 -31 28 -12 71 -28 98 -35 26 -7 47 -11 47 -9 0 2 16 -7 35
-21 20 -13 50 -27 68 -30 18 -4 37 -11 42 -15 6 -4 53 -22 105 -40 52 -18 117
-44 145 -57 27 -13 59 -25 70 -27 11 -3 49 -19 85 -36 36 -17 73 -36 82 -41
10 -5 27 -9 37 -9 11 0 24 -7 29 -16 5 -9 22 -16 38 -16 18 0 42 -12 62 -29
20 -18 44 -29 62 -29 16 0 32 -4 35 -10 3 -5 19 -10 35 -10 16 0 31 -4 35 -9
3 -5 19 -12 36 -16 17 -4 40 -12 52 -18 12 -7 36 -22 54 -34 17 -13 39 -25 49
-27 11 -2 34 -7 52 -11 18 -4 35 -12 38 -16 3 -5 16 -9 29 -9 13 0 27 -4 30
-10 3 -5 15 -10 25 -10 10 0 22 -5 25 -11 4 -6 8 -65 9 -132 1 -67 10 -266 19
-442 10 -176 24 -367 33 -425 8 -58 20 -170 25 -250 6 -80 16 -464 23 -855 11
-603 16 -719 30 -768 9 -32 16 -63 16 -70 0 -7 -15 -20 -32 -29 -18 -9 -54
-26 -79 -37 -25 -12 -50 -21 -57 -21 -6 0 -48 -19 -94 -43 -46 -23 -105 -51
-133 -62 -27 -11 -94 -41 -147 -67 -53 -27 -102 -48 -109 -48 -6 0 -29 -15
-50 -33 -21 -17 -77 -61 -125 -97 -47 -36 -109 -82 -135 -103 -30 -23 -49 -45
-49 -58 0 -11 5 -29 10 -40 6 -11 21 -19 35 -19 15 0 58 29 119 80 52 44 100
80 105 80 6 0 11 4 11 9 0 5 19 23 43 40 23 17 96 57 162 89 66 33 130 62 142
66 11 4 27 13 33 21 7 8 19 15 27 15 9 0 41 11 72 24 31 13 103 45 161 70 58
25 119 47 135 50 17 2 35 5 42 5 6 1 17 17 23 36 10 29 8 48 -10 117 -12 46
-26 108 -30 138 -4 30 -11 215 -15 410 -3 195 -8 465 -10 600 -2 135 -8 322
-15 416 -6 94 -10 175 -9 180 2 5 0 27 -4 49 -3 22 -13 94 -21 160 -8 66 -19
203 -25 305 -6 102 -13 253 -16 335 -4 83 -10 220 -16 305 -5 85 -13 205 -19
265 -5 61 -11 216 -14 345 -3 129 -10 291 -16 360 -5 69 -15 164 -21 211 -5
47 -14 155 -19 240 -5 85 -11 201 -14 259 -3 58 -8 146 -11 195 -3 50 -10 131
-16 180 -6 50 -19 132 -30 184 -10 51 -19 96 -19 100 1 3 15 -21 32 -54 17
-33 42 -91 55 -130 13 -38 33 -108 44 -155 11 -47 27 -110 35 -140 8 -30 19
-71 24 -90 5 -19 28 -93 51 -165 23 -71 45 -148 50 -170 4 -22 14 -65 21 -95
8 -30 21 -68 30 -85 8 -16 27 -75 42 -130 15 -55 36 -127 46 -160 10 -33 28
-97 40 -142 11 -46 27 -120 35 -165 9 -46 22 -112 30 -148 8 -36 26 -128 41
-205 14 -77 30 -160 34 -185 5 -25 17 -73 29 -107 12 -34 21 -75 21 -90 0 -15
7 -66 16 -113 9 -47 21 -134 28 -193 10 -86 17 -112 33 -129 16 -15 28 -19 47
-14 16 4 31 17 37 33 6 17 6 50 -1 97 -5 39 -14 102 -20 139 -6 38 -15 77 -20
87 -6 10 -15 54 -20 97 -6 43 -17 94 -24 113 -8 19 -24 89 -36 155 -12 66 -28
138 -35 160 -8 22 -17 62 -20 89 -4 27 -10 56 -15 65 -4 9 -13 52 -20 96 -6
44 -18 116 -27 160 -8 44 -18 89 -23 100 -4 11 -22 67 -39 125 -17 58 -50 168
-72 245 -23 77 -52 163 -64 190 -12 28 -25 70 -29 94 -4 25 -13 59 -21 75 -7
17 -16 45 -18 61 -3 17 -11 50 -17 75 -7 25 -13 52 -14 60 -1 8 -6 29 -10 45
-4 17 -12 50 -18 75 -6 25 -14 50 -18 55 -3 6 -12 30 -19 53 -7 24 -16 67 -21
96 -5 29 -29 100 -54 158 -25 59 -60 137 -79 175 -19 37 -48 109 -65 158 -17
50 -46 124 -65 165 -19 42 -42 82 -52 90 -10 8 -39 16 -64 16 -25 1 -59 5 -76
9 -16 3 -51 18 -76 31 -26 13 -56 24 -67 24 -12 0 -31 4 -44 9 -13 5 -77 30
-143 55 -66 26 -133 53 -150 60 -16 8 -48 22 -70 32 -22 9 -80 36 -130 60 -49
23 -115 50 -145 60 -30 9 -59 20 -65 24 -5 4 -31 13 -57 20 -26 7 -52 18 -57
24 -5 6 -11 41 -12 76 -1 36 -6 81 -10 100 -4 19 -13 80 -19 135 -7 55 -21
143 -33 195 -11 52 -24 127 -28 165 -5 39 -9 84 -10 100 0 17 -7 66 -14 110
-7 44 -16 118 -19 165 -4 47 -15 141 -25 210 -11 69 -25 174 -31 234 -7 60
-21 146 -32 190 -11 45 -26 110 -34 146 -8 36 -14 75 -14 87 0 16 11 27 43 41
23 10 107 57 187 103 80 47 162 92 183 102 21 9 43 17 50 17 7 0 18 4 26 9 8
5 17 30 21 55 4 26 3 49 -2 52 -4 3 -8 18 -8 34 0 16 -4 32 -10 35 -5 3 -10
19 -10 35 0 19 -9 35 -26 49 -19 15 -34 19 -53 14 -14 -3 -51 -19 -81 -35 -30
-17 -73 -41 -95 -54 -22 -13 -44 -24 -50 -24 -5 0 11 13 36 29 26 17 71 42
100 57 30 16 84 48 121 71 36 24 69 43 73 43 3 0 31 16 61 35 30 19 58 35 63
35 4 0 16 9 26 20 10 11 22 20 26 20 5 0 40 19 78 43 39 23 71 48 71 55 0 6
-5 12 -11 12 -6 0 -28 13 -48 30 -20 16 -44 37 -55 46 -17 15 -18 26 -12 100
3 46 2 84 -2 84 -5 0 -19 -11 -32 -25 -13 -14 -31 -25 -40 -25 -9 0 -44 -18
-77 -40 -34 -22 -64 -44 -68 -50 -3 -5 -13 -10 -21 -10 -8 0 -27 -8 -42 -18
-15 -10 -47 -32 -72 -48 -25 -17 -59 -36 -77 -43 -17 -7 -39 -21 -49 -32 -9
-10 -24 -19 -32 -19 -8 0 -30 -11 -48 -25 -18 -14 -39 -25 -46 -25 -8 0 -29
-13 -48 -30 -19 -16 -45 -29 -57 -30 -14 0 -23 -6 -23 -15 0 -8 -12 -18 -27
-21 -16 -4 -47 -17 -70 -30 -41 -23 -43 -23 -53 -5 -5 11 -17 46 -26 78 -9 32
-20 81 -26 108 -5 28 -18 74 -28 103 -11 28 -24 78 -30 110 -6 31 -12 68 -14
82 -2 14 -6 45 -10 70 -4 25 -11 59 -16 75 -4 17 -11 42 -14 56 -5 25 -2 28
54 49 33 12 80 35 105 51 25 16 50 29 55 29 6 0 10 4 10 8 0 4 29 27 65 50 35
24 67 47 70 52 3 4 26 18 51 30 25 13 48 29 51 37 3 7 4 16 1 18 -2 3 -13 6
-24 8 -10 1 -30 9 -44 18 -14 8 -34 19 -45 25 -11 6 -35 42 -53 79 -29 60 -32
72 -22 96 7 15 10 32 9 38 -2 5 -34 -10 -71 -35 -55 -37 -81 -47 -150 -59 -46
-8 -118 -15 -161 -15 -75 0 -78 1 -89 28 -7 15 -17 34 -24 42 -7 8 -22 40 -34
70 -12 30 -32 66 -45 80 -12 14 -30 39 -39 55 -9 17 -22 39 -29 50 -6 11 -27
43 -45 72 -18 28 -37 65 -42 82 -6 22 -5 33 6 42 8 6 14 22 14 35 0 16 9 28
28 37 15 8 45 17 67 19 22 3 64 17 94 32 l55 26 85 -92 c47 -50 120 -126 161
-168 41 -43 97 -101 125 -131 27 -30 64 -67 82 -82 l33 -29 19 23 20 24 -82
85 c-45 46 -127 130 -182 186 -55 55 -127 130 -159 164 l-59 63 24 19 c13 10
38 31 54 47 17 15 38 31 47 34 10 3 66 43 124 88 58 45 108 88 111 95 3 8 10
14 17 14 6 0 31 14 56 31 25 17 93 78 151 137 58 59 139 139 180 177 53 49 91
98 131 165 31 52 65 118 76 145 11 28 25 79 31 115 7 36 11 113 8 175 -2 69
-12 144 -26 200 -13 50 -32 119 -43 155 -11 36 -24 70 -28 75 -4 6 -26 44 -48
86 l-41 77 52 34 c29 18 117 66 197 107 80 40 183 93 230 118 47 25 133 69
191 98 58 30 111 61 118 69 8 9 21 16 30 16 9 1 34 12 56 25 22 14 47 28 55
31 8 3 31 14 50 24 19 10 39 26 45 34 7 11 5 20 -7 33 -17 16 -19 16 -40 -4
-13 -11 -63 -40 -113 -65 -49 -24 -130 -66 -180 -92 -49 -27 -117 -64 -150
-82 -33 -18 -123 -66 -200 -105 -77 -40 -167 -87 -200 -105 -33 -18 -71 -39
-85 -46 -14 -8 -37 -22 -51 -32 -27 -17 -27 -17 -50 16 -12 18 -50 65 -84 103
-34 39 -122 129 -196 201 -74 72 -150 142 -169 155 -19 13 -41 23 -47 21 -7
-2 -13 1 -13 6 0 6 -10 12 -22 16 -13 3 -41 17 -63 31 l-40 26 40 -6 c22 -4
56 -15 75 -24 19 -10 53 -26 75 -36 22 -11 54 -29 72 -42 17 -13 36 -23 41
-23 4 0 19 -11 32 -25 16 -17 33 -25 50 -23 17 2 24 8 22 20 -1 9 2 19 8 23 5
3 10 15 10 26 0 11 -17 31 -39 47 -22 16 -82 49 -133 74 -51 25 -109 52 -128
59 -19 8 -39 14 -45 15 -5 0 -27 9 -47 19 -21 10 -38 23 -38 27 0 5 17 35 38
66 20 32 42 65 47 74 6 8 45 68 87 132 l77 115 153 -4 c84 -3 164 -7 178 -10
14 -2 49 -7 78 -10 29 -3 76 -10 104 -15 28 -6 70 -15 92 -22 23 -6 43 -12 46
-13 3 -1 25 -7 50 -15 25 -8 54 -20 65 -27 11 -7 27 -13 36 -13 9 0 77 -31
151 -69 75 -37 155 -82 179 -100 24 -17 69 -48 99 -68 30 -20 87 -65 126 -100
40 -34 77 -63 82 -63 8 0 8 9 1 29 -9 25 -5 39 21 90 25 50 36 63 60 68 16 3
35 12 42 20 10 12 4 21 -32 51 -25 20 -56 48 -70 62 -14 15 -52 46 -85 70 -33
24 -82 62 -109 84 -28 23 -57 46 -67 51 -9 6 -50 30 -90 55 -41 25 -85 51 -99
58 -14 6 -67 48 -119 92 -51 45 -117 103 -145 130 -28 26 -67 61 -86 77 -19
15 -49 42 -66 58 -17 17 -63 57 -103 89 -41 34 -71 67 -71 78 0 10 4 18 9 18
5 0 14 14 21 30 l12 30 109 0 c70 0 109 4 109 11 0 5 -7 32 -16 58 l-15 48
-45 -5 c-37 -4 -44 -2 -44 12 0 10 19 45 42 79 23 34 46 67 50 72 5 6 76 114
159 240 83 127 157 239 165 250 8 11 35 51 61 89 27 38 63 94 82 125 19 31 40
61 46 68 7 6 39 53 71 103 32 50 78 117 102 147 26 36 42 67 42 85 0 15 -4 28
-8 28 -5 0 -20 -12 -34 -27 -14 -16 -34 -42 -45 -59 -10 -17 -40 -64 -67 -105
-27 -41 -88 -132 -135 -204 -47 -71 -88 -132 -91 -135 -3 -3 -28 -39 -55 -80
-26 -41 -52 -79 -57 -85 -5 -5 -19 -26 -33 -45 -13 -19 -38 -59 -56 -87 -17
-29 -35 -56 -41 -59 -5 -3 -14 -16 -19 -27 -5 -12 -22 -41 -37 -64 -15 -22
-45 -67 -66 -100 -21 -32 -50 -74 -63 -93 -14 -19 -38 -56 -55 -82 -28 -45
-32 -48 -76 -50 -26 0 -54 0 -62 1 -8 1 -42 2 -75 2 -33 0 -80 5 -105 12 -35
8 -65 30 -137 96 -51 47 -93 93 -93 102 0 8 20 30 44 47 26 19 57 32 74 32 26
0 31 5 37 30 4 20 30 50 79 93 39 34 85 71 100 82 15 11 40 30 55 42 14 11 60
50 101 84 41 35 80 67 85 71 6 5 39 32 75 61 36 29 76 62 90 74 14 11 48 40
75 63 28 22 59 49 70 59 11 9 54 44 95 77 41 33 85 67 96 75 12 8 76 59 143
114 l122 100 -6 70 c-4 43 -2 87 4 113 7 23 26 64 43 92 17 28 29 52 27 55 -3
2 -74 7 -159 11 -85 3 -159 9 -165 12 -5 3 -43 8 -85 10 -41 2 -223 5 -403 6z
m-152 -310 c28 -2 160 -4 295 -5 147 -1 277 -7 324 -15 44 -7 82 -13 85 -12 3
0 20 -3 38 -7 30 -7 30 -8 15 -27 -10 -11 -33 -28 -52 -38 -19 -10 -48 -30
-65 -44 -16 -14 -44 -33 -62 -41 -18 -9 -35 -20 -38 -25 -4 -6 -39 -33 -78
-60 -40 -28 -133 -93 -207 -145 -74 -52 -144 -99 -155 -104 -11 -5 -41 -25
-65 -45 -25 -20 -49 -39 -55 -44 -5 -4 -49 -33 -96 -65 -48 -31 -92 -64 -99
-72 -7 -8 -17 -15 -22 -15 -6 0 -25 -12 -44 -27 -18 -16 -46 -37 -61 -48 -15
-12 -65 -45 -110 -74 -72 -47 -85 -52 -110 -43 -19 6 -27 15 -25 28 1 10 6 42
12 69 5 28 19 100 30 162 12 62 32 140 45 174 14 34 32 72 40 85 8 13 15 35
15 48 0 14 -10 34 -21 45 -16 14 -27 18 -39 11 -9 -5 -21 -15 -27 -22 -5 -7
-22 -42 -37 -78 -15 -36 -27 -76 -28 -90 0 -14 -9 -54 -19 -89 -11 -35 -19
-75 -19 -90 0 -15 -9 -63 -19 -107 -11 -43 -22 -91 -25 -106 -4 -16 -11 -28
-17 -28 -6 0 -49 33 -96 73 -47 39 -117 101 -156 136 -40 35 -85 76 -102 90
-16 15 -60 54 -96 86 -36 33 -94 85 -129 115 -35 30 -99 90 -142 134 -59 58
-76 81 -66 87 7 5 29 11 48 15 19 3 62 14 95 24 33 9 87 22 120 28 33 6 98 16
145 22 46 6 87 13 91 15 3 2 21 7 40 10 19 4 63 11 99 16 36 6 81 12 100 14
19 3 73 9 120 15 47 6 112 15 145 21 33 6 110 16 170 21 61 5 144 13 185 17
41 5 98 7 125 5z m-1907 -341 c2 -8 -18 -57 -45 -111 -27 -53 -74 -146 -105
-207 -31 -60 -108 -216 -172 -345 -64 -129 -139 -275 -166 -325 -27 -49 -53
-99 -58 -110 -6 -11 -19 -41 -31 -67 -14 -33 -26 -48 -39 -48 -11 0 -44 5 -73
11 -30 6 -63 12 -74 13 -18 2 -20 10 -20 63 0 60 -1 62 -55 121 -30 32 -77 87
-105 122 -27 35 -64 77 -80 94 -17 17 -38 43 -48 59 -10 15 -21 27 -26 27 -5
0 -18 -8 -30 -17 -12 -10 -23 -29 -26 -42 -3 -18 9 -37 54 -85 32 -33 82 -91
112 -128 30 -36 64 -83 77 -104 20 -32 22 -41 11 -60 -9 -17 -18 -22 -38 -19
-14 3 -136 25 -271 51 -135 25 -276 51 -315 59 -38 7 -101 19 -140 25 -38 6
-90 15 -115 20 -25 5 -97 19 -160 30 -63 11 -144 27 -180 35 -36 8 -95 20
-132 26 -57 11 -66 15 -56 27 7 8 82 48 168 89 85 42 200 97 255 123 55 26
131 62 168 79 38 17 74 31 81 31 6 0 43 16 80 35 38 19 73 35 78 35 6 0 42 15
82 34 39 18 96 41 126 51 30 10 69 25 85 34 17 9 35 16 40 17 6 0 19 4 30 8
11 4 43 16 70 27 28 10 56 19 63 19 6 0 12 4 12 8 0 5 19 14 43 20 23 6 71 22
107 35 36 13 74 27 85 31 11 4 28 12 38 17 10 5 37 12 60 15 23 3 52 12 64 20
12 7 57 23 100 34 43 12 101 29 128 39 28 10 66 23 86 30 19 6 42 11 50 11 8
0 46 9 84 21 39 11 81 24 95 28 17 5 26 3 28 -6z m103 -328 c4 -181 10 -484
13 -673 l7 -342 -43 4 c-24 2 -108 16 -188 31 -80 15 -169 29 -198 32 -29 3
-55 9 -58 14 -3 5 -16 9 -29 9 -13 0 -46 5 -74 12 -28 6 -51 17 -51 24 0 6 18
47 39 90 21 44 49 102 61 129 11 28 26 60 32 73 6 12 15 22 20 22 4 0 8 6 8
13 0 7 34 80 77 162 42 83 104 205 139 273 34 68 65 131 68 140 3 9 19 40 35
67 16 28 46 84 66 125 20 41 44 86 53 100 16 24 17 9 23 -305z m2098 200 c3
-4 -7 -18 -24 -32 -16 -14 -41 -35 -55 -47 -14 -11 -45 -36 -67 -53 -23 -18
-45 -33 -50 -33 -4 0 -24 -17 -45 -37 -20 -21 -46 -46 -58 -56 -12 -10 -58
-47 -103 -83 -45 -35 -110 -87 -145 -115 -54 -43 -68 -50 -100 -47 -23 2 -38
9 -39 18 -2 9 59 58 163 130 91 63 171 117 177 119 7 2 18 12 25 23 7 10 19
18 27 18 7 0 15 3 17 8 2 4 26 24 54 45 29 20 55 37 59 37 3 0 21 11 39 25 18
14 36 25 40 25 4 0 16 9 28 20 12 10 25 17 30 14 4 -3 11 2 14 11 4 9 9 13 13
10z m-795 -595 c30 0 57 -4 61 -9 3 -5 -8 -19 -24 -30 -16 -12 -33 -21 -37
-21 -4 0 -18 10 -31 22 -13 12 -23 25 -23 30 0 4 24 8 54 8z m-126 -40 c7 0
27 -13 45 -29 31 -30 31 -30 12 -52 -11 -12 -64 -57 -119 -101 -54 -43 -99
-78 -100 -76 -1 2 -14 18 -29 36 -15 19 -27 41 -27 50 1 9 18 30 38 45 20 16
66 50 102 77 36 27 71 49 78 50z m114 -110 c11 0 50 -26 88 -57 37 -32 72 -66
79 -75 10 -17 1 -18 -159 -18 -138 0 -170 3 -170 14 0 7 21 31 47 52 26 21 58
49 71 61 14 13 34 23 44 23z m-388 -83 c5 -2 19 -15 30 -30 11 -15 17 -29 15
-32 -3 -2 -29 -5 -57 -6 -29 -1 -55 1 -60 5 -4 5 9 21 28 37 19 16 39 28 44
26z m-3164 -42 c25 -4 72 -11 105 -15 33 -5 92 -14 130 -20 39 -7 95 -16 125
-20 30 -5 85 -16 122 -24 37 -9 98 -21 135 -27 37 -6 79 -12 93 -14 14 -2 90
-16 170 -30 80 -14 159 -30 175 -34 17 -5 47 -12 68 -16 34 -5 37 -9 31 -28
-4 -12 -8 -35 -8 -52 -1 -27 3 -30 32 -33 27 -3 39 4 74 39 l42 42 106 -17
c58 -10 108 -20 113 -23 4 -2 7 -10 7 -16 -1 -7 -22 -55 -48 -107 -35 -69 -54
-96 -69 -98 -11 -2 -36 8 -56 21 -19 13 -57 30 -84 36 -26 7 -70 21 -98 32
-27 10 -68 23 -90 28 -22 5 -65 19 -95 30 -30 12 -72 21 -92 21 -21 0 -46 4
-56 8 -9 5 -28 15 -42 22 -14 8 -36 19 -50 26 -14 6 -41 17 -60 24 -19 6 -57
18 -85 26 -27 7 -59 18 -70 23 -11 5 -49 19 -85 31 -36 12 -78 23 -94 26 -16
2 -34 8 -40 13 -6 4 -45 18 -86 30 -41 13 -84 27 -95 32 -11 5 -33 13 -50 19
-16 5 -47 15 -67 23 -21 7 -41 17 -45 22 -5 4 12 5 37 0z m3058 -131 c35 -1
67 -5 70 -8 3 -4 -4 -15 -16 -26 -12 -11 -24 -20 -28 -20 -4 0 -30 -21 -59
-47 -28 -27 -77 -68 -109 -93 -31 -25 -75 -60 -97 -79 -34 -29 -43 -32 -81
-28 -24 4 -59 11 -78 17 -19 5 -36 10 -37 10 -2 0 -11 0 -20 0 -10 0 -25 5
-33 10 -12 8 -10 14 15 40 16 16 32 30 36 30 4 0 36 19 71 43 35 23 93 65 128
91 52 40 75 50 120 56 30 4 84 6 118 4z m203 -4 c43 0 49 -3 78 -42 18 -24 49
-66 69 -93 20 -28 67 -89 105 -137 37 -47 67 -91 67 -97 0 -6 -18 -11 -42 -12
-24 0 -83 -3 -133 -6 -50 -3 -127 0 -175 7 -47 7 -119 18 -160 26 -41 8 -105
19 -142 25 -38 7 -68 16 -68 23 0 6 48 51 108 99 59 47 139 114 177 146 63 54
75 60 116 61z m336 -5 c114 -1 226 -2 248 -3 32 -2 51 -12 95 -51 l55 -49 -18
-34 c-10 -18 -50 -80 -90 -138 l-73 -105 -75 3 c-69 4 -76 6 -100 35 -14 18
-49 61 -77 97 -29 36 -81 103 -117 149 -35 46 -63 87 -60 90 2 4 97 6 212 6z
m419 5 c33 0 35 -2 32 -27 -2 -17 -10 -29 -21 -31 -10 -2 -25 5 -32 15 -8 10
-15 24 -15 31 0 7 14 12 36 12z m-2371 -155 c28 -4 64 -10 80 -15 17 -5 102
-21 190 -35 88 -15 185 -31 215 -35 30 -5 73 -14 95 -19 22 -5 45 -17 52 -27
6 -9 10 -30 8 -46 -2 -16 -13 -37 -24 -46 -12 -9 -51 -37 -87 -62 -36 -25 -84
-59 -108 -77 -39 -29 -46 -30 -89 -22 -26 4 -60 15 -76 23 -16 9 -64 25 -107
36 -43 12 -80 23 -83 25 -2 2 -1 11 2 20 4 8 14 15 23 15 10 0 47 9 83 21 36
12 87 31 113 42 26 12 49 28 52 35 3 7 1 23 -4 37 -6 17 -17 25 -33 25 -13 0
-50 -11 -83 -24 -32 -13 -75 -27 -94 -31 -19 -4 -53 -16 -75 -27 -22 -11 -58
-25 -80 -30 -22 -6 -58 -11 -80 -12 -35 -1 -40 2 -37 19 2 11 25 64 50 118
l47 98 50 -6z m2387 5 c5 0 96 -76 202 -170 107 -93 197 -174 201 -180 3 -5 4
-10 2 -10 -3 0 -38 13 -78 29 -41 16 -126 38 -189 49 -63 12 -153 27 -200 33
-47 6 -87 13 -89 15 -2 1 14 31 35 64 22 34 46 72 54 85 8 12 24 37 35 54 10
17 23 31 27 31z m-1681 -130 c5 0 9 -6 9 -14 0 -8 -4 -17 -9 -21 -5 -3 -12 -1
-16 5 -3 5 -3 15 0 20 3 6 10 10 16 10z m134 -26 c11 -2 63 -11 115 -20 52 -8
99 -19 103 -23 4 -4 -2 -17 -15 -29 -13 -12 -51 -44 -84 -71 -34 -28 -72 -55
-85 -59 -13 -5 -34 -6 -46 -1 -19 7 -24 4 -29 -16 -3 -13 -3 -29 1 -35 3 -5
23 -19 44 -30 24 -12 43 -31 51 -51 8 -17 13 -58 12 -90 -1 -33 -9 -75 -17
-95 -8 -20 -15 -38 -15 -40 0 -3 10 -2 23 0 12 2 63 13 112 24 50 11 122 25
160 31 39 6 126 20 195 31 69 11 198 27 287 36 89 9 168 14 175 11 8 -4 -38
-56 -126 -141 -116 -113 -142 -134 -157 -126 -10 6 -27 10 -38 10 -11 0 -27
-10 -36 -23 -12 -19 -13 -29 -3 -54 9 -25 9 -35 -1 -47 -11 -13 -34 -16 -135
-14 -66 2 -155 -1 -196 -5 -41 -4 -88 -9 -105 -12 -16 -2 -66 -11 -110 -20
-44 -9 -109 -22 -145 -30 -35 -8 -65 -13 -66 -12 -2 1 -4 52 -6 112 -4 109 -4
110 -28 110 -25 0 -25 0 -28 -109 -2 -85 -6 -114 -19 -128 -9 -10 -25 -18 -36
-18 -10 0 -33 -6 -50 -14 -18 -8 -50 -22 -71 -31 -22 -8 -42 -13 -45 -10 -3 3
3 20 14 38 10 18 56 89 103 159 76 114 83 129 69 143 -9 8 -20 15 -26 15 -6 0
-16 9 -23 20 -7 11 -17 20 -22 20 -5 0 -20 10 -33 22 -21 19 -23 30 -23 110 0
61 5 98 16 119 8 17 13 37 10 45 -3 8 -14 14 -24 14 -11 0 -25 6 -31 14 -10
12 0 23 58 61 39 26 73 51 77 56 3 5 14 9 24 9 14 0 20 -9 22 -37 2 -30 7 -38
23 -38 17 0 21 10 30 69 l10 70 60 42 c35 24 68 40 80 38z m311 -54 c12 0 62
-9 111 -20 48 -11 98 -23 111 -25 12 -3 22 -9 22 -14 0 -4 -26 -11 -57 -15
-32 -3 -74 -9 -93 -12 -19 -3 -51 -9 -70 -14 -19 -5 -60 -10 -90 -11 -30 -1
-61 -7 -67 -12 -9 -6 -13 -6 -13 1 0 6 28 35 62 66 36 33 71 56 84 56z m-1167
-112 c20 -5 40 -14 46 -19 5 -5 19 -9 31 -9 13 0 25 -4 28 -9 4 -5 25 -12 49
-16 23 -3 67 -16 97 -28 30 -11 62 -27 70 -34 12 -11 12 -13 -2 -13 -9 0 -18
-3 -20 -7 -1 -5 -28 -24 -58 -44 -30 -20 -61 -39 -67 -43 -7 -4 -23 -9 -35
-11 -12 -3 -51 -14 -87 -26 -36 -12 -70 -25 -75 -30 -6 -5 -19 -9 -29 -9 -10
0 -31 -6 -45 -14 -15 -8 -48 -24 -74 -35 -26 -12 -50 -21 -54 -21 -3 0 -43
-22 -90 -50 -47 -27 -89 -50 -94 -50 -6 0 -10 4 -10 9 0 5 43 94 95 198 75
151 100 192 122 202 15 7 36 17 45 22 10 5 28 9 40 9 13 0 36 9 52 19 23 15
35 17 65 9z m1941 -258 c5 0 0 -17 -12 -37 -12 -21 -47 -77 -80 -125 -32 -47
-58 -89 -58 -92 0 -3 -16 -29 -36 -57 -21 -28 -40 -46 -43 -41 -3 5 -18 12
-33 16 -19 4 -28 13 -28 26 0 10 6 23 13 27 6 4 24 24 38 43 15 19 72 81 128
138 55 56 105 102 111 102z m-390 -390 c12 0 32 -7 45 -16 14 -9 25 -19 25
-23 0 -4 -21 -4 -47 -1 -27 3 -47 8 -45 13 1 4 2 12 2 17 0 6 9 10 20 10z
m-248 -110 c21 0 38 -5 38 -11 0 -6 -64 -72 -141 -148 -78 -75 -155 -150 -170
-167 -16 -17 -62 -63 -102 -102 -39 -39 -98 -96 -130 -127 -33 -31 -60 -55
-62 -53 -1 2 -6 119 -9 260 -5 177 -3 258 4 263 6 4 27 9 48 11 20 2 73 12
117 20 44 9 103 20 130 25 28 5 90 12 140 15 49 3 92 7 94 10 2 2 22 4 43 4z
m132 -20 c17 0 56 -5 88 -12 36 -8 58 -17 58 -26 0 -7 -30 -59 -67 -114 -38
-56 -84 -126 -103 -158 -19 -31 -51 -79 -72 -107 -20 -28 -44 -64 -53 -79 -9
-16 -33 -54 -53 -85 -20 -30 -95 -142 -167 -248 -71 -106 -137 -205 -145 -220
-8 -15 -27 -43 -41 -62 -15 -19 -38 -56 -53 -84 -14 -27 -39 -66 -55 -85 l-30
-35 -1 105 c0 58 -3 204 -6 325 l-6 220 88 86 c49 48 202 197 339 333 212 208
254 246 279 246z m210 -60 c11 0 68 -24 126 -53 58 -30 125 -66 150 -82 24
-15 113 -96 196 -179 84 -83 166 -168 183 -190 17 -21 31 -45 31 -52 0 -7 -35
-30 -77 -51 -43 -22 -118 -61 -168 -88 -49 -26 -134 -71 -187 -99 -54 -28
-133 -70 -175 -92 -43 -23 -103 -55 -133 -71 -30 -16 -64 -34 -75 -40 -11 -6
-58 -30 -105 -53 -47 -24 -116 -61 -153 -82 -38 -21 -75 -38 -82 -38 -7 0 -24
-9 -38 -20 -14 -11 -32 -20 -40 -20 -9 0 -19 -5 -23 -11 -3 -6 -21 -17 -38
-25 -17 -8 -60 -30 -96 -49 -36 -19 -68 -35 -72 -35 -4 0 -30 -13 -56 -30 -27
-16 -52 -30 -56 -30 -3 0 -6 13 -6 28 0 18 23 63 63 123 35 53 67 102 71 110
4 8 12 23 19 34 7 11 27 40 45 64 17 24 32 50 32 57 0 7 6 17 13 21 7 4 28 33
47 63 19 30 42 66 53 80 10 14 63 95 119 180 55 85 103 157 107 160 3 3 15 21
25 40 11 19 43 69 73 112 29 42 53 80 53 86 0 5 7 15 16 23 8 7 24 29 35 48
11 20 35 56 54 81 20 25 38 53 41 63 4 9 16 17 28 17z m-997 -30 c6 0 14 -8
17 -17 2 -10 6 -139 8 -286 l3 -268 -55 -47 c-30 -26 -118 -111 -195 -189 -77
-79 -145 -143 -150 -143 -6 0 -72 65 -148 144 -75 80 -137 151 -137 160 0 9
35 71 77 138 42 68 102 164 134 213 31 50 72 107 90 128 18 21 53 47 78 59 25
11 69 31 96 43 28 13 77 33 110 44 33 11 65 20 72 21z m-461 -220 c13 0 13 -4
-1 -29 -8 -16 -21 -35 -28 -43 -8 -7 -27 -33 -43 -57 -16 -25 -38 -59 -49 -77
-11 -17 -42 -66 -70 -108 -27 -42 -53 -76 -57 -76 -3 0 -20 18 -37 39 -17 21
-31 44 -31 51 0 7 48 60 106 117 59 57 118 112 133 121 14 9 34 27 44 39 10
13 25 23 33 23z m-381 -350 c6 0 30 -20 54 -44 31 -32 42 -50 37 -62 -4 -9
-27 -49 -53 -88 -25 -39 -63 -98 -84 -131 -21 -33 -48 -73 -59 -90 -12 -16
-45 -68 -75 -115 -29 -47 -60 -92 -68 -101 -8 -9 -16 -20 -18 -25 -2 -5 -28
-46 -58 -92 -45 -68 -57 -80 -64 -66 -5 9 -7 51 -4 93 3 43 16 110 32 156 14
44 49 124 76 179 28 54 70 130 93 168 23 38 73 103 111 144 38 41 74 74 80 74z
m2577 -19 c9 -9 39 -60 67 -114 28 -54 56 -117 63 -140 6 -23 13 -49 14 -57 1
-8 6 -40 13 -70 6 -30 12 -102 12 -160 2 -87 -3 -123 -26 -206 -20 -74 -37
-115 -64 -150 -20 -27 -48 -69 -63 -94 -15 -25 -43 -58 -64 -75 -20 -16 -94
-86 -163 -155 -70 -69 -145 -138 -166 -153 -22 -16 -96 -71 -165 -123 -69 -52
-153 -119 -188 -149 -35 -30 -72 -55 -81 -55 -10 0 -34 19 -55 42 -20 24 -73
81 -118 128 -45 47 -159 164 -252 261 -94 96 -212 219 -262 271 -50 53 -101
110 -114 128 -19 26 -20 34 -9 42 8 5 37 20 64 34 28 14 82 42 120 63 39 20
84 45 100 53 17 9 50 26 75 38 25 13 53 30 63 38 9 8 20 12 24 9 3 -4 28 9 55
28 26 19 51 35 56 35 4 0 54 24 112 53 58 30 121 63 140 75 19 12 49 28 65 37
17 8 37 19 45 24 8 5 42 22 75 38 33 16 107 54 165 84 58 31 139 73 180 95 41
22 84 46 95 52 11 7 31 17 45 22 14 6 48 23 75 39 46 26 51 27 67 12z m-1720
-52 c4 0 9 -2 12 -7 2 -4 6 -153 7 -332 2 -179 -1 -335 -5 -347 -4 -13 -11
-23 -15 -23 -5 0 -73 67 -152 148 -79 82 -157 163 -173 180 l-29 31 36 38 c21
21 37 43 37 50 0 6 8 14 18 17 9 3 71 59 137 125 66 65 123 119 127 120z
m-724 -69 c2 0 33 -28 69 -62 36 -35 73 -71 82 -81 9 -10 31 -34 49 -53 17
-20 32 -39 32 -42 0 -3 11 -18 25 -32 l26 -27 -153 -151 c-84 -83 -241 -237
-348 -342 l-195 -191 -22 28 c-13 15 -30 53 -39 83 -9 30 -18 69 -21 85 -4 25
11 53 87 170 51 77 113 172 138 210 25 39 57 87 71 108 14 21 31 45 36 54 6 9
36 54 68 100 31 46 57 86 57 89 0 3 8 16 18 29 9 14 18 25 20 25z m317 -320
c6 0 27 -18 48 -40 20 -22 37 -44 37 -48 0 -5 12 -20 28 -34 15 -14 58 -57 96
-97 37 -39 71 -71 75 -71 4 0 22 -21 40 -47 25 -34 31 -51 24 -62 -5 -9 -59
-42 -119 -73 -60 -31 -152 -79 -204 -106 -52 -27 -189 -97 -304 -156 -115 -59
-226 -118 -246 -131 l-38 -24 -24 27 c-14 15 -39 48 -57 75 -18 26 -36 47 -41
47 -5 0 -13 12 -16 26 -6 24 24 56 342 370 192 189 354 344 359 344z m-929
-283 c3 -3 4 -12 1 -19 -3 -8 -6 -5 -6 6 -1 11 2 17 5 13z m1 -44 c2 -7 2 -21
0 -30 -3 -10 -5 -4 -5 12 0 17 2 24 5 18z m10 -136 c13 -32 13 -39 0 -58 -15
-21 -16 -20 -22 24 -4 25 -4 51 0 58 5 8 13 -1 22 -24z m1330 23 c6 0 14 -17
17 -37 3 -21 8 -171 12 -333 3 -162 7 -368 8 -457 1 -90 2 -163 2 -163 -1 0
-28 5 -61 11 -33 6 -79 12 -101 13 -23 2 -82 16 -130 31 -49 16 -114 39 -144
53 -30 14 -64 30 -75 35 -11 6 -32 17 -47 25 -16 7 -28 17 -28 22 0 4 15 31
33 60 17 28 46 71 62 93 17 23 63 94 104 157 41 63 96 149 123 190 26 41 61
93 77 115 16 22 45 66 65 98 19 33 43 65 53 73 10 7 23 14 30 14z m-154 -80
c4 0 7 -2 7 -6 0 -3 -35 -57 -77 -121 -43 -63 -85 -126 -93 -139 -8 -12 -27
-40 -41 -61 -14 -21 -71 -107 -127 -191 -55 -83 -102 -157 -104 -163 -2 -6
-32 6 -68 27 -36 20 -74 42 -85 48 -11 6 -46 30 -77 54 -31 24 -73 64 -94 88
-35 44 -36 46 -18 63 11 9 39 25 64 35 25 9 74 34 110 53 36 20 106 57 155 83
50 26 104 54 120 63 17 9 53 27 80 40 28 14 73 37 100 52 28 16 70 39 95 51
25 13 48 24 53 24z m242 -11 c3 -2 93 -92 201 -199 108 -107 233 -235 278
-284 44 -49 91 -99 104 -110 13 -12 57 -55 97 -96 41 -41 75 -78 75 -81 0 -3
-24 -15 -52 -26 -29 -11 -80 -26 -113 -32 -33 -7 -91 -16 -130 -21 -38 -5 -95
-17 -125 -25 -30 -9 -66 -17 -80 -19 -14 -2 -69 -9 -124 -15 -58 -8 -102 -9
-108 -3 -5 5 -13 179 -18 388 -5 208 -10 412 -10 453 0 41 2 72 5 70z m-1382
-31 c5 -13 18 -43 29 -68 10 -25 23 -53 29 -62 5 -10 9 -24 9 -31 0 -8 -13
-24 -30 -37 -16 -13 -30 -27 -30 -32 0 -5 -44 -52 -97 -104 -53 -52 -98 -94
-100 -94 -1 0 -27 -24 -56 -52 -29 -29 -74 -73 -101 -98 -47 -45 -47 -45 -40
-15 4 17 30 64 58 105 28 41 53 80 56 85 3 6 18 33 34 60 16 28 37 59 47 70 9
11 25 36 36 55 10 19 32 55 49 80 16 25 45 71 64 103 32 54 35 56 43 35z m122
-230 c11 -16 37 -50 58 -76 20 -26 37 -52 37 -58 0 -6 -56 -40 -124 -75 -69
-35 -151 -77 -183 -92 -32 -16 -71 -35 -88 -44 -16 -9 -54 -29 -84 -44 -29
-16 -55 -29 -58 -29 -2 0 6 15 18 33 12 17 87 97 166 177 79 80 165 166 191
192 l47 46 20 -30z m2741 -2628 c2 0 4 -4 4 -10 0 -5 -5 -10 -11 -10 -5 0 -7
5 -4 10 3 6 8 10 11 10z m-31 -21 c6 0 6 -2 0 -8 -6 -6 -44 -27 -85 -48 -41
-21 -79 -40 -85 -42 -5 -2 -5 2 2 9 7 7 45 30 85 50 40 21 77 38 83 39z m-827
-2139 c5 0 35 -9 68 -20 32 -12 95 -28 139 -36 44 -9 89 -19 100 -23 11 -5 45
-18 75 -30 30 -12 62 -24 70 -26 8 -1 38 -10 65 -18 28 -8 75 -20 105 -27 30
-7 82 -22 115 -32 33 -11 92 -28 130 -38 39 -10 96 -21 127 -25 32 -3 60 -10
63 -15 3 -5 25 -15 48 -21 23 -7 49 -12 57 -11 8 0 62 -22 120 -49 58 -27 112
-54 120 -59 8 -6 35 -20 60 -31 25 -12 57 -22 73 -24 15 -1 35 -9 45 -18 9 -8
46 -27 81 -42 35 -14 110 -42 167 -61 57 -19 110 -34 117 -34 6 0 25 -7 41
-15 16 -9 37 -13 46 -10 9 3 23 -1 30 -10 7 -8 20 -15 30 -15 10 0 21 -7 24
-16 3 -9 6 -36 6 -61 0 -26 6 -69 14 -97 8 -28 20 -76 26 -106 6 -30 16 -80
20 -110 5 -30 12 -71 15 -90 3 -19 12 -66 20 -105 7 -38 18 -101 24 -140 6
-38 15 -142 21 -230 6 -88 15 -256 21 -374 5 -118 16 -261 24 -317 8 -57 22
-283 30 -501 8 -219 18 -419 21 -445 3 -27 2 -48 -3 -48 -4 0 -40 13 -80 29
-39 16 -82 36 -95 44 -13 8 -66 31 -118 50 -52 20 -121 43 -152 51 -31 9 -60
21 -63 26 -3 6 -14 10 -23 10 -10 0 -37 11 -62 25 -25 14 -90 47 -145 75 -56
27 -137 61 -180 76 -44 15 -84 30 -90 35 -5 4 -35 17 -65 28 -30 12 -62 21
-70 21 -8 0 -31 9 -51 19 -20 11 -58 26 -85 34 -27 9 -80 29 -119 45 -38 17
-115 47 -170 67 -55 20 -105 41 -111 46 -6 5 -13 6 -16 3 -4 -3 -25 4 -49 15
-23 12 -53 21 -65 21 -12 0 -55 14 -95 31 -41 17 -90 38 -109 46 -19 8 -49 21
-66 28 l-32 13 -5 114 c-3 62 -6 153 -7 202 -1 49 -6 100 -11 113 -5 13 -9 61
-9 106 -1 45 -6 102 -11 127 -6 25 -12 77 -14 115 -2 39 -8 83 -14 99 -7 16
-14 59 -17 95 -3 36 -10 93 -14 126 -4 33 -10 71 -13 85 -3 14 -8 79 -12 145
-4 65 -13 138 -21 161 -8 23 -23 109 -34 190 -11 82 -23 157 -26 166 -3 9 -10
66 -16 125 -6 59 -12 135 -14 168 -1 33 -5 126 -9 208 -3 85 -2 147 3 147z"/>
<g>
<path d="M7541 15099 c-9 -1 -28 -4 -43 -8 -15 -3 -39 -21 -53 -40 -14 -20
-25 -48 -25 -65 0 -17 5 -47 10 -67 6 -20 18 -44 29 -53 10 -9 40 -19 67 -22
47 -6 51 -5 97 38 43 40 47 49 47 90 0 31 -7 54 -21 72 -11 15 -37 33 -56 41
-20 8 -43 14 -52 14z"/>
</g>
</g>
<g>
<path d="M10329 17396 c-58 1 -59 0 -79 -38 -11 -21 -20 -51 -20 -67 0 -19 12
-42 35 -67 33 -36 40 -39 90 -39 45 0 59 4 80 26 19 19 27 38 29 74 3 36 -1
52 -15 66 -11 11 -19 24 -19 30 0 6 -6 9 -14 6 -8 -3 -17 -3 -21 1 -4 4 -33 7
-66 8z"/>
</g>
<g>
<path d="M10623 17396 c-24 4 -43 5 -44 3 0 -2 -2 -35 -3 -74 -1 -58 -7 -78
-30 -115 -16 -25 -40 -55 -53 -67 -12 -12 -23 -26 -23 -30 0 -5 32 -17 70 -27
39 -10 81 -19 93 -21 12 -2 51 -11 87 -19 36 -9 75 -21 87 -28 13 -6 26 -9 29
-5 3 3 25 -1 48 -9 22 -9 48 -19 56 -23 9 -5 31 -12 50 -15 19 -4 50 -14 68
-22 18 -9 42 -17 54 -19 11 -3 31 -11 44 -20 13 -8 28 -15 34 -15 5 0 33 -11
62 -25 28 -14 62 -25 75 -25 13 0 33 -9 45 -20 12 -11 29 -20 38 -20 9 0 25
-8 36 -18 10 -10 27 -16 37 -14 9 2 17 -1 17 -8 0 -6 10 -14 23 -19 12 -5 52
-23 89 -40 36 -17 71 -31 77 -31 5 0 16 -8 23 -19 7 -10 29 -26 48 -36 19 -10
37 -21 40 -25 3 -4 23 -19 45 -33 22 -15 51 -35 65 -44 14 -9 42 -32 63 -50
20 -18 45 -33 55 -33 11 0 28 -8 39 -17 11 -10 18 -23 16 -30 -2 -6 5 -14 16
-18 12 -3 21 -11 21 -17 0 -5 6 -8 13 -5 8 3 20 1 28 -4 8 -4 14 -16 14 -26 0
-10 16 -26 37 -37 21 -10 35 -23 33 -27 -3 -4 7 -22 22 -40 16 -19 35 -40 43
-49 8 -8 38 -33 65 -55 28 -22 52 -44 54 -49 2 -5 25 -33 52 -62 27 -30 49
-59 49 -65 0 -6 16 -30 35 -53 19 -24 35 -50 35 -58 0 -9 7 -21 15 -28 8 -7
15 -20 15 -30 0 -10 7 -23 15 -30 8 -7 15 -17 15 -22 0 -5 16 -28 35 -51 19
-22 35 -48 35 -57 0 -10 8 -28 19 -41 10 -13 22 -35 25 -49 4 -14 21 -61 38
-105 17 -44 39 -109 50 -145 10 -36 25 -92 34 -125 8 -33 19 -71 24 -85 5 -14
12 -43 15 -65 3 -22 10 -85 15 -140 5 -55 9 -174 9 -265 1 -91 -4 -201 -9
-245 -5 -44 -12 -93 -14 -110 -3 -16 -7 -55 -11 -85 -3 -30 -13 -91 -21 -135
-8 -44 -26 -125 -40 -180 -14 -55 -32 -133 -39 -172 -7 -40 -22 -88 -33 -105
-11 -18 -23 -46 -26 -63 -4 -16 -37 -88 -72 -160 -36 -71 -78 -150 -92 -175
-15 -25 -40 -67 -57 -93 -16 -26 -58 -86 -92 -133 -35 -47 -63 -91 -63 -98 0
-7 -37 -56 -82 -109 -46 -53 -103 -121 -128 -152 -24 -30 -99 -108 -165 -173
-66 -64 -147 -143 -180 -174 -33 -32 -64 -62 -70 -68 -5 -5 -50 -46 -100 -91
-49 -44 -101 -88 -115 -97 -14 -10 -66 -51 -116 -92 -50 -41 -115 -93 -144
-115 -29 -22 -70 -55 -92 -72 -22 -18 -43 -33 -47 -33 -4 0 -27 -18 -51 -40
-24 -22 -49 -40 -55 -40 -5 0 -23 -12 -40 -26 -16 -14 -87 -65 -157 -112 -70
-48 -149 -102 -175 -120 -27 -18 -64 -47 -84 -64 -20 -16 -47 -35 -60 -42 -13
-7 -44 -26 -68 -42 -24 -16 -51 -33 -60 -39 -9 -5 -32 -22 -52 -37 -20 -16
-40 -28 -44 -28 -5 0 -27 -16 -51 -35 -23 -19 -45 -35 -49 -35 -4 0 -24 -13
-45 -30 -21 -16 -42 -30 -47 -30 -5 0 -34 -23 -65 -50 -31 -28 -64 -50 -73
-50 -8 0 -26 -9 -38 -21 -12 -11 -39 -30 -60 -40 -21 -11 -35 -24 -32 -29 3
-5 26 -12 51 -16 34 -5 50 -14 68 -38 13 -17 31 -46 41 -65 12 -25 15 -45 10
-79 l-7 -45 39 23 c21 13 58 38 82 57 24 18 48 33 53 33 5 0 33 18 63 40 29
22 100 70 157 108 57 38 134 93 172 121 37 28 82 57 99 65 18 7 52 31 77 53
25 21 66 51 91 66 25 14 64 41 87 59 22 18 59 47 82 63 23 17 66 46 95 65 29
19 83 58 120 85 36 28 130 100 208 160 77 61 188 151 246 200 58 50 124 104
146 120 22 16 130 119 240 230 110 110 227 232 260 270 33 38 69 80 80 93 11
14 32 38 48 54 15 16 27 33 27 38 0 4 7 14 16 21 9 7 36 45 61 84 25 38 60 88
78 110 18 22 47 67 65 100 19 33 43 74 55 90 12 17 46 84 77 150 30 66 75 171
98 234 24 63 52 146 62 185 11 39 26 100 34 136 8 36 21 97 28 135 8 39 19 95
25 125 6 30 18 123 26 205 8 83 15 229 15 326 0 96 -7 249 -15 340 -8 90 -22
198 -29 239 -8 41 -18 100 -21 130 -4 30 -14 67 -21 82 -8 15 -14 43 -14 63 0
20 -14 80 -30 133 -17 53 -47 147 -67 207 -20 61 -65 166 -101 235 -36 69 -72
138 -80 155 -9 16 -49 77 -90 135 -41 58 -78 107 -81 110 -3 3 -22 25 -41 50
-19 25 -42 53 -50 64 -8 10 -33 39 -55 64 -22 25 -66 72 -97 103 -32 31 -58
62 -58 69 0 6 -5 8 -11 5 -5 -4 -36 22 -68 57 -33 35 -80 77 -105 93 -25 16
-46 33 -46 37 0 4 -5 8 -11 8 -6 0 -25 10 -42 23 -18 12 -39 27 -48 32 -9 6
-71 47 -138 92 -66 45 -143 89 -171 98 -27 9 -50 21 -50 26 0 5 -7 9 -15 9 -8
0 -15 5 -15 10 0 6 -13 10 -30 10 -16 0 -30 4 -30 8 0 5 -30 22 -67 39 -38 17
-92 39 -120 49 -29 10 -53 22 -53 26 0 5 -8 8 -19 8 -10 0 -44 11 -75 25 -31
14 -73 29 -94 34 -20 5 -59 18 -87 27 -27 10 -79 28 -113 42 -35 13 -70 21
-78 18 -7 -3 -16 -1 -19 4 -4 6 -23 10 -44 10 -20 0 -41 4 -46 9 -6 6 -29 13
-52 17z"/>
</g>
<g>
<path d="M7575 17158 c-16 0 -40 -3 -51 -5 -12 -2 -32 -15 -44 -28 -17 -18
-25 -41 -28 -79 -4 -47 -2 -55 19 -69 12 -9 26 -14 30 -11 4 2 10 0 14 -6 3
-5 23 -10 44 -10 24 0 45 7 59 20 12 12 29 31 36 43 11 16 12 34 6 66 -5 28
-17 51 -31 62 -13 10 -37 18 -54 17z"/>
</g>
<g>
<path d="M10433 17080 c-5 0 -16 -7 -27 -15 -18 -13 -18 -31 -7 -532 6 -285
13 -615 16 -733 3 -118 7 -298 10 -400 3 -102 7 -304 10 -449 3 -146 6 -265 8
-267 1 -1 13 -4 27 -6 l25 -3 -2 235 c-1 129 -5 291 -7 360 -3 69 -8 231 -11
360 -3 129 -8 348 -12 485 -4 138 -8 288 -9 335 0 47 -4 202 -8 345 -3 143 -6
266 -6 273 0 6 -3 12 -7 12z"/>
</g>
<g>
<path d="M3798 16888 c-16 2 -28 -3 -32 -13 -3 -9 -6 -23 -6 -32 0 -8 7 -30
16 -49 9 -19 22 -34 29 -34 6 0 36 -28 66 -62 30 -35 106 -115 169 -178 63
-64 187 -191 275 -283 88 -92 166 -169 174 -172 7 -3 20 0 27 6 8 6 14 16 14
21 0 5 -71 84 -157 176 -86 92 -160 169 -163 172 -3 3 -87 91 -186 195 -102
107 -185 203 -191 220 -7 21 -17 31 -35 33z"/>
</g>
<g>
<path d="M11588 16335 c-20 5 -29 2 -37 -13 -7 -13 -9 -149 -6 -422 3 -221 7
-406 11 -411 3 -6 6 -41 5 -79 0 -64 2 -71 24 -86 14 -9 32 -14 40 -10 8 3 20
18 26 33 7 19 7 53 -1 113 -6 47 -13 247 -15 445 -2 198 -5 369 -5 380 0 11
-4 25 -8 32 -4 6 -19 14 -34 18z"/>
</g>
<g>
<path d="M11102 16119 c-26 -1 -126 -7 -223 -14 -97 -7 -186 -18 -198 -24 -11
-7 -21 -20 -21 -30 0 -10 9 -28 20 -41 18 -21 25 -22 72 -15 29 4 89 10 133
13 44 3 123 6 175 7 l95 0 12 -50 c7 -27 22 -58 34 -67 12 -10 27 -18 34 -18
6 0 17 11 23 25 7 14 12 39 12 54 0 15 -7 43 -16 62 -8 19 -21 45 -29 59 -10
18 -21 24 -38 22 -14 -2 -28 2 -32 7 -3 6 -27 10 -53 10z"/>
</g>
<g>
<path d="M4730 16083 c-16 4 -34 -1 -50 -14 -14 -10 -33 -27 -44 -36 -10 -10
-27 -31 -37 -48 -11 -16 -19 -41 -19 -53 0 -13 7 -36 16 -51 9 -15 24 -33 34
-39 9 -6 49 -14 89 -18 59 -5 71 -4 71 8 0 8 9 23 20 33 11 10 23 34 26 53 4
22 1 54 -10 88 -12 38 -22 54 -35 54 -9 0 -21 4 -26 9 -6 4 -21 11 -35 14z"/>
</g>
<g>
<path d="M4458 16000 c-13 -1 -61 -24 -108 -53 -47 -29 -104 -65 -127 -80 -24
-15 -46 -27 -51 -27 -5 0 -21 -13 -37 -30 -16 -16 -37 -30 -48 -30 -10 0 -28
-11 -39 -25 -10 -13 -22 -24 -26 -23 -4 2 -34 -15 -67 -36 -33 -21 -61 -43
-63 -47 -2 -5 -10 -9 -18 -9 -8 0 -17 -7 -20 -15 -3 -8 -15 -17 -27 -21 -12
-4 -57 -37 -101 -73 -43 -36 -118 -100 -165 -142 -47 -42 -115 -104 -150 -138
-35 -33 -68 -61 -73 -61 -4 0 -8 -3 -8 -7 0 -5 -38 -48 -85 -98 -47 -49 -87
-97 -90 -106 -3 -9 -26 -38 -51 -65 -26 -27 -72 -86 -103 -132 -31 -46 -63
-95 -71 -109 -8 -14 -24 -36 -35 -49 -12 -12 -34 -49 -50 -81 -16 -32 -44 -78
-61 -103 -17 -25 -61 -115 -98 -200 -37 -85 -74 -168 -81 -185 -7 -16 -27 -77
-44 -135 -18 -58 -38 -125 -45 -150 -8 -25 -18 -65 -24 -90 -6 -25 -18 -76
-28 -114 -9 -39 -29 -159 -45 -268 -15 -110 -34 -288 -40 -396 -7 -112 -9
-275 -5 -378 3 -99 10 -205 15 -235 6 -30 13 -94 16 -144 3 -49 22 -168 41
-264 19 -96 49 -221 65 -278 17 -58 43 -139 58 -181 15 -42 37 -104 49 -137
11 -33 39 -102 62 -154 22 -51 64 -137 92 -190 28 -53 95 -170 150 -261 55
-91 115 -187 134 -215 18 -27 42 -60 53 -73 11 -12 30 -41 42 -62 13 -22 26
-40 31 -40 4 0 8 -5 8 -11 0 -7 30 -46 68 -87 37 -42 130 -141 207 -221 77
-79 186 -183 242 -230 57 -47 124 -102 151 -122 27 -20 96 -63 153 -96 58 -32
125 -67 149 -77 25 -10 50 -21 55 -26 6 -4 75 -28 155 -53 80 -24 177 -52 215
-61 39 -10 88 -21 110 -25 22 -5 110 -20 195 -34 85 -15 202 -31 260 -37 58
-5 202 -13 320 -16 118 -4 325 -6 460 -5 135 1 261 6 280 11 19 6 58 10 87 10
28 0 55 -5 58 -10 4 -6 15 -8 26 -5 10 4 92 6 181 7 101 0 178 5 205 13 23 7
44 10 47 7 4 -3 6 -13 6 -23 0 -9 16 -33 37 -52 31 -31 45 -37 102 -43 36 -5
84 -7 106 -6 22 2 76 9 120 17 44 8 121 26 170 41 50 14 99 28 110 31 11 3 30
9 42 15 l22 11 -32 40 c-31 40 -32 44 -32 138 0 85 3 101 23 128 12 17 22 33
22 37 0 4 -60 4 -132 0 -73 -4 -174 -9 -225 -12 -51 -2 -112 -6 -136 -8 -24
-3 -207 -8 -408 -13 -200 -4 -566 -8 -814 -8 -267 0 -517 6 -615 13 -91 7
-208 19 -260 28 -52 8 -122 19 -155 25 -33 5 -98 19 -145 30 -47 11 -123 31
-170 45 -47 13 -101 29 -120 35 -19 6 -62 24 -96 40 -33 16 -65 29 -70 29 -6
0 -35 13 -65 28 -30 15 -84 45 -119 67 -36 22 -91 58 -123 82 -33 24 -88 69
-124 100 -35 32 -111 104 -168 160 -57 57 -123 126 -147 155 -23 28 -57 68
-74 87 -17 20 -64 81 -105 136 -41 55 -83 114 -94 132 -11 17 -44 66 -72 107
-29 42 -53 79 -53 81 0 3 -18 34 -39 68 -22 34 -58 96 -80 137 -23 41 -56 107
-75 145 -18 39 -47 100 -65 137 -17 37 -31 75 -31 84 0 9 -6 28 -14 42 -7 15
-21 43 -29 62 -9 19 -29 91 -46 160 -16 69 -37 166 -46 215 -9 50 -23 155 -30
235 -8 80 -15 224 -15 320 0 96 5 236 10 310 5 74 19 196 29 270 11 74 25 160
31 190 6 30 13 69 16 85 3 17 16 71 29 121 13 50 36 131 50 180 14 49 34 107
44 129 10 22 26 63 34 90 8 28 36 96 60 152 25 57 78 158 118 225 40 68 91
150 113 183 22 33 51 74 63 90 13 17 29 37 37 45 7 8 30 38 51 65 20 28 40 52
44 55 3 3 32 37 63 75 31 39 85 98 120 131 35 34 90 88 123 119 33 31 78 71
99 88 22 18 63 53 91 80 29 26 56 47 60 47 5 0 20 11 34 24 15 13 44 37 67 52
22 16 66 48 97 72 31 23 60 42 65 42 5 0 17 9 27 20 10 11 24 20 30 20 7 0 15
6 18 13 3 8 20 21 39 30 18 9 48 27 67 41 19 14 40 26 47 26 6 0 17 7 24 16 8
8 27 21 44 29 17 8 47 25 67 37 20 13 55 34 78 47 22 14 41 29 41 34 0 5 -10
23 -22 40 -12 18 -34 47 -50 65 -24 29 -28 41 -28 97 0 61 -1 65 -22 65z"/>
</g>
<g>
<path d="M4849 15768 c-4 2 -14 -4 -23 -13 -9 -9 -13 -22 -9 -28 3 -7 25 -32
48 -57 23 -25 98 -106 166 -180 68 -74 211 -224 319 -332 107 -108 213 -217
235 -242 22 -24 65 -72 96 -105 31 -34 61 -61 67 -61 6 0 16 -9 23 -21 6 -12
40 -49 75 -83 35 -34 64 -66 64 -71 0 -5 15 -25 34 -45 19 -19 37 -45 41 -57
5 -18 -2 -30 -30 -55 -20 -18 -92 -87 -158 -154 -67 -66 -149 -153 -182 -193
-33 -39 -90 -106 -127 -149 -37 -42 -92 -113 -121 -157 -30 -44 -57 -88 -60
-97 -4 -10 -10 -18 -15 -18 -5 0 -19 26 -31 59 -11 32 -21 70 -21 84 0 14 -6
38 -14 54 -8 15 -19 46 -25 68 -5 22 -17 80 -26 128 -8 48 -19 96 -24 105 -5
9 -19 64 -32 122 -12 58 -30 137 -40 175 -10 39 -38 151 -63 250 -24 99 -52
216 -61 260 -9 44 -21 91 -26 104 -6 13 -18 72 -29 130 -10 58 -27 142 -38
186 -11 44 -29 123 -41 175 -11 52 -22 109 -23 125 -2 22 -9 31 -24 33 -11 2
-26 -4 -33 -12 -9 -11 -10 -24 -3 -48 6 -18 23 -80 37 -138 15 -58 31 -118 35
-135 5 -16 16 -66 26 -110 9 -44 29 -129 44 -190 15 -60 31 -128 34 -150 4
-22 16 -71 26 -110 11 -38 29 -108 41 -155 12 -47 25 -103 29 -125 5 -22 18
-83 29 -135 12 -52 28 -115 36 -140 7 -25 23 -93 35 -152 11 -58 30 -137 41
-175 11 -37 35 -139 54 -226 l35 -158 -29 -97 c-15 -53 -32 -133 -36 -177 -5
-44 -9 -145 -9 -225 0 -80 5 -176 13 -215 7 -38 21 -116 32 -173 10 -57 28
-138 40 -180 11 -42 25 -95 30 -117 5 -22 18 -58 28 -80 10 -22 22 -51 26 -65
4 -14 18 -43 30 -65 12 -22 33 -56 47 -76 13 -20 38 -53 56 -75 l32 -39 0 38
c0 21 7 51 15 67 8 15 29 37 47 48 18 11 46 24 61 27 21 6 27 12 22 24 -4 9
-19 66 -35 126 -16 61 -35 124 -44 140 -8 17 -23 66 -32 110 -9 44 -19 87 -22
95 -3 8 -7 31 -9 50 -2 19 -10 48 -18 64 -8 16 -15 42 -15 57 0 15 -4 31 -10
34 -5 3 -10 18 -10 32 0 15 -7 56 -16 92 -9 36 -20 70 -25 75 -5 6 -9 26 -9
45 0 19 12 69 26 110 14 42 44 113 67 158 23 45 53 98 67 117 14 20 52 72 85
117 33 45 65 91 72 102 6 11 35 46 65 77 29 32 93 101 143 154 49 53 91 93 93
87 2 -5 -6 -54 -17 -108 -11 -54 -25 -129 -31 -168 -6 -38 -15 -90 -20 -115
-5 -25 -24 -115 -41 -200 -17 -85 -36 -171 -40 -191 -8 -33 -16 -39 -91 -73
-46 -21 -93 -44 -106 -52 -18 -12 -20 -18 -12 -34 5 -10 24 -21 41 -25 19 -4
34 -3 38 4 4 6 26 17 50 26 24 8 45 15 47 15 2 0 3 -12 3 -27 -1 -16 -5 -41
-10 -58 -5 -16 -15 -68 -24 -115 -8 -47 -22 -125 -31 -175 -8 -49 -21 -108
-28 -130 -8 -22 -19 -80 -25 -130 -7 -49 -21 -136 -33 -193 -11 -56 -18 -106
-14 -109 4 -4 15 -2 24 3 10 7 22 37 30 75 7 35 16 89 21 119 5 30 16 89 24
130 9 41 23 113 32 160 9 47 23 123 31 170 8 47 20 105 26 130 6 25 19 70 29
100 l18 55 11 -33 c8 -21 21 -34 37 -38 13 -4 29 -2 34 3 5 5 10 23 10 39 1
16 -8 53 -18 82 -11 28 -28 61 -37 71 -15 17 -16 27 -8 73 6 29 15 89 22 133
6 44 15 105 21 135 5 30 16 82 24 115 8 33 21 92 29 130 8 39 22 115 32 170
16 89 21 103 51 132 18 18 33 38 33 46 0 7 -10 19 -22 25 -13 6 -34 12 -47 14
-13 2 -29 12 -35 22 -6 11 -23 38 -38 59 -18 26 -28 53 -28 77 0 20 7 59 17
86 9 27 22 57 29 68 11 17 5 27 -59 99 -40 44 -140 150 -224 236 -83 86 -160
166 -171 179 -11 12 -105 111 -208 219 -104 109 -261 272 -349 363 -88 91
-163 166 -166 168z m531 -2798 c6 0 10 -10 10 -22 0 -13 9 -57 21 -98 11 -41
24 -93 29 -115 5 -22 14 -58 20 -80 6 -22 15 -61 20 -87 5 -26 23 -105 39
-175 17 -70 36 -144 41 -164 6 -20 10 -42 10 -49 0 -8 -10 -4 -26 11 -15 13
-42 47 -60 76 -19 28 -45 85 -58 125 -14 41 -32 127 -41 192 -8 64 -15 178
-15 252 0 83 4 134 10 134z"/>
</g>
<g>
<path d="M12387 15548 c-8 7 -18 7 -27 2 -8 -6 -27 -10 -41 -10 -19 0 -28 -6
-33 -23 -4 -17 -34 -37 -118 -80 -62 -31 -167 -86 -233 -122 -66 -36 -140 -75
-165 -87 -25 -11 -52 -26 -60 -33 -8 -6 -31 -18 -50 -25 -19 -8 -51 -24 -70
-35 -19 -12 -118 -65 -220 -117 -102 -52 -210 -111 -240 -130 -30 -19 -100
-58 -155 -85 -55 -28 -153 -77 -217 -110 -65 -33 -124 -66 -133 -73 -8 -7 -15
-21 -15 -31 0 -10 5 -21 11 -25 6 -3 24 3 40 15 15 11 33 21 40 21 6 0 39 15
72 34 34 18 112 59 172 91 61 32 115 61 120 65 6 4 66 36 134 71 68 35 162 84
210 109 47 25 102 55 121 66 19 12 105 58 190 102 85 43 173 90 195 102 22 13
123 66 225 118 102 53 202 106 223 119 21 13 37 31 37 42 0 10 -6 23 -13 29z"/>
</g>
<g>
<path d="M8925 14908 c-26 2 -44 -11 -128 -90 -53 -51 -97 -100 -97 -109 0 -8
19 -28 41 -45 23 -16 51 -38 63 -50 11 -11 32 -24 45 -27 14 -3 31 -1 38 5 7
6 13 23 13 38 0 15 -8 34 -18 43 -10 10 -23 17 -29 17 -6 0 -16 7 -23 15 -10
12 -10 20 -1 38 7 13 39 44 72 71 44 36 59 54 57 70 -2 15 -11 22 -33 24z"/>
</g>
<g>
<path d="M10465 14614 c-22 3 -48 2 -57 0 -9 -3 -23 -15 -31 -27 -8 -12 -14
-37 -15 -54 0 -24 7 -40 29 -60 16 -16 43 -31 61 -35 26 -5 36 -1 60 22 21 22
28 38 28 68 0 23 -7 48 -17 61 -11 12 -34 22 -58 25z"/>
</g>
<g>
<path d="M6895 14600 c-8 0 -20 -7 -29 -15 -12 -12 -14 -33 -11 -90 2 -41 7
-80 10 -85 3 -6 24 -10 45 -10 21 0 42 5 45 10 3 6 19 10 35 10 19 0 33 7 40
21 9 15 8 24 -1 35 -6 8 -29 14 -54 14 -30 0 -45 5 -49 16 -3 9 -6 26 -6 39 0
13 -3 30 -6 39 -3 9 -12 16 -19 16z"/>
</g>
<g>
<path d="M6123 14500 c-1 0 -10 -13 -20 -30 -9 -16 -23 -30 -30 -30 -8 0 -10
-13 -7 -42 2 -24 6 -48 9 -54 2 -7 18 -19 36 -28 18 -9 49 -19 69 -22 32 -5
40 -2 63 26 15 17 27 44 27 58 0 15 -8 43 -18 62 -16 28 -27 36 -73 47 -30 6
-55 12 -56 13z"/>
</g>
<g>
<path d="M10615 14470 c-6 0 -15 -6 -20 -14 -6 -7 -22 -31 -37 -53 -23 -35
-33 -42 -72 -47 -35 -6 -46 -12 -46 -25 0 -10 11 -29 24 -42 14 -13 35 -33 47
-44 12 -11 45 -51 74 -90 29 -38 66 -95 83 -125 17 -30 42 -95 56 -144 16 -52
26 -113 26 -150 0 -33 -7 -104 -15 -156 -8 -52 -20 -113 -26 -135 -6 -22 -29
-96 -52 -165 -24 -76 -70 -183 -117 -275 -42 -82 -97 -178 -121 -211 -24 -34
-71 -95 -103 -135 -33 -41 -81 -97 -108 -126 -26 -29 -92 -94 -146 -145 -54
-51 -125 -116 -158 -145 -32 -29 -80 -69 -105 -90 -25 -21 -63 -51 -84 -68
-22 -16 -78 -61 -127 -100 -48 -38 -111 -88 -140 -110 -29 -22 -60 -46 -68
-53 -8 -7 -36 -29 -61 -50 -25 -20 -63 -51 -85 -69 -21 -17 -77 -61 -124 -98
-47 -37 -87 -71 -88 -77 -3 -5 8 -6 25 -1 15 4 48 7 73 7 25 0 57 -3 72 -7 18
-5 36 -24 58 -64 29 -50 32 -63 27 -110 -3 -29 -2 -53 3 -53 4 0 10 6 13 13 3
8 62 60 131 115 69 56 129 102 132 102 3 0 32 23 64 50 32 28 62 50 67 50 4 0
31 20 60 45 28 25 60 45 72 45 12 0 67 45 141 117 66 64 142 132 168 152 26
20 68 58 94 84 26 26 72 80 102 120 30 40 89 115 130 167 42 52 82 111 91 130
9 19 22 41 30 50 7 8 29 47 49 85 19 39 48 85 65 102 16 18 32 43 36 55 3 13
13 41 22 63 8 22 19 49 24 60 4 11 21 67 38 125 16 58 33 123 37 145 5 22 9
42 9 45 1 3 4 12 8 20 3 8 9 40 12 70 4 30 9 80 11 110 3 30 5 118 6 195 1 99
-4 163 -16 220 -9 44 -30 127 -46 185 -15 58 -44 143 -63 190 -19 47 -51 113
-70 147 -20 34 -44 73 -54 87 -10 14 -23 26 -28 26z"/>
</g>
<g>
<path d="M10479 14240 c-5 0 -9 -11 -9 -25 0 -16 6 -25 15 -25 8 0 15 4 15 9
0 5 -3 16 -6 25 -3 9 -10 16 -15 16z"/>
</g>
<g>
<path d="M3190 14180 c-27 0 -43 -7 -63 -28 -19 -20 -27 -39 -27 -63 0 -27 6
-38 28 -50 15 -9 46 -19 69 -23 42 -6 43 -5 63 34 11 21 20 49 20 60 0 12 -12
32 -26 45 -19 17 -39 25 -64 25z"/>
</g>
<g>
<path d="M11327 14042 c-13 3 -42 -4 -65 -14 -23 -11 -42 -28 -46 -41 -3 -12
-6 -37 -6 -55 0 -22 8 -41 26 -58 21 -22 31 -25 62 -19 20 4 47 16 60 28 15
14 22 32 22 59 0 22 -7 52 -15 67 -8 16 -25 31 -38 33z"/>
</g>
<g>
<path d="M4202 14010 c-9 -1 -31 -7 -48 -14 -23 -10 -33 -23 -38 -46 -3 -18
-6 -39 -6 -46 0 -7 14 -29 31 -49 19 -21 40 -35 55 -35 13 0 39 14 57 30 19
17 37 42 40 57 4 23 -2 35 -34 65 -22 21 -48 38 -57 38z"/>
</g>
<g>
<path d="M3527 13858 c-18 2 -30 -4 -41 -20 -8 -13 -19 -43 -25 -68 -6 -25
-17 -65 -26 -90 -8 -24 -19 -47 -24 -50 -4 -3 -25 -45 -46 -95 -22 -49 -51
-110 -67 -134 -15 -25 -28 -51 -28 -58 0 -7 -10 -34 -21 -60 -12 -27 -30 -66
-40 -89 -11 -23 -19 -52 -19 -66 0 -16 8 -29 23 -35 12 -6 47 -19 77 -28 30
-10 70 -24 88 -31 18 -8 45 -14 60 -14 15 0 32 4 38 8 6 4 14 19 18 34 4 20 1
33 -13 47 -11 11 -41 22 -71 26 -30 4 -62 16 -77 29 l-25 22 28 84 c15 47 33
92 39 100 7 8 22 36 33 61 12 25 22 49 22 53 0 4 10 22 23 39 13 18 31 57 41
87 10 30 26 66 36 80 9 14 23 49 30 78 10 38 11 58 4 70 -6 9 -23 18 -37 20z"/>
</g>
<g>
<path d="M12426 13860 c-6 -1 -21 -9 -33 -19 -16 -13 -29 -49 -48 -127 -15
-60 -45 -162 -66 -226 -21 -64 -39 -124 -39 -132 0 -8 -15 -43 -33 -78 -19
-35 -61 -108 -94 -163 -33 -55 -70 -118 -82 -140 -12 -22 -39 -65 -61 -95 -22
-30 -59 -77 -82 -104 -24 -27 -50 -61 -59 -75 -9 -14 -43 -55 -77 -91 -49 -53
-60 -70 -56 -90 3 -14 7 -31 10 -37 2 -7 18 -13 36 -13 21 0 41 8 55 23 12 12
45 48 73 80 27 31 50 61 50 65 0 4 13 21 28 38 15 18 38 44 51 59 12 15 38 48
57 72 19 25 57 86 85 137 27 50 70 119 95 154 24 35 44 66 44 70 0 4 6 19 14
33 7 15 23 54 35 88 11 34 21 68 21 76 0 8 9 34 20 57 11 24 41 124 66 223
l46 179 -22 18 c-12 10 -27 18 -34 18z"/>
</g>
<g>
<path d="M9712 13550 c-24 0 -35 -6 -45 -27 -8 -16 -22 -86 -31 -158 -9 -71
-21 -152 -27 -180 -6 -27 -21 -88 -35 -135 -14 -47 -45 -143 -70 -215 -24 -71
-44 -142 -44 -157 0 -23 6 -29 41 -38 23 -6 45 -8 49 -3 4 4 24 60 44 123 20
63 44 130 52 149 9 19 19 52 22 75 3 23 11 51 19 63 8 12 21 52 30 90 8 37 16
100 18 138 2 39 6 95 9 125 4 30 11 59 16 64 6 6 10 19 10 31 0 11 -7 28 -14
38 -8 10 -26 17 -44 17z"/>
</g>
<g>
<path d="M10009 13266 c-38 5 -38 4 -49 -38 -6 -24 -19 -65 -30 -93 -11 -27
-21 -66 -22 -85 -3 -31 0 -35 22 -35 14 0 31 -4 38 -8 6 -5 16 -6 21 -3 5 3
14 30 20 58 7 29 19 67 28 85 l15 32 37 -20 c19 -10 43 -19 52 -19 9 0 37 -11
60 -25 24 -14 52 -25 61 -25 10 0 22 8 27 18 7 14 6 25 -5 40 -8 12 -23 22
-32 22 -10 0 -26 6 -37 14 -11 7 -36 17 -55 21 -19 4 -42 12 -50 19 -8 6 -26
17 -39 25 -13 7 -41 15 -62 17z"/>
</g>
<g>
<path d="M11552 13239 c-42 0 -86 -4 -97 -9 -11 -5 -54 -9 -96 -9 -46 -1 -82
-6 -94 -14 -13 -10 -16 -21 -11 -41 4 -15 17 -32 31 -38 16 -7 56 -8 129 -2
92 8 106 7 106 -6 -1 -8 -7 -26 -15 -40 -8 -14 -14 -41 -15 -61 0 -22 7 -42
18 -52 10 -10 23 -17 28 -17 5 1 19 9 31 19 12 10 34 52 49 92 17 46 26 91 25
118 -1 25 -4 48 -7 53 -3 4 -40 8 -82 7z"/>
</g>
<g>
<path d="M3035 12650 c-6 0 -19 -8 -28 -18 -9 -10 -19 -32 -23 -48 -5 -28 -3
-30 43 -43 26 -8 55 -16 63 -17 8 -2 78 -16 155 -33 77 -16 160 -35 185 -41
25 -7 54 -13 65 -16 11 -2 43 -9 70 -15 28 -6 81 -22 118 -35 38 -13 73 -21
78 -18 6 3 17 0 25 -7 12 -10 18 -9 31 4 10 9 16 31 15 52 -1 20 -4 40 -7 45
-4 6 -17 10 -30 10 -14 0 -42 6 -62 14 -21 8 -81 24 -133 36 -52 12 -108 26
-125 31 -16 6 -37 12 -45 13 -8 2 -42 7 -75 11 -33 4 -75 13 -94 21 -19 8 -59
17 -90 20 -31 4 -71 13 -90 20 -18 8 -39 14 -46 14z"/>
</g>
<g>
<path d="M6361 12250 c-5 0 -14 -7 -21 -15 -6 -8 -10 -20 -8 -28 2 -8 27 -35
57 -61 30 -25 60 -46 65 -46 6 0 21 -11 34 -24 12 -13 40 -34 62 -45 23 -12
45 -21 50 -21 6 0 10 10 10 23 0 13 -9 32 -19 43 -10 10 -45 37 -76 59 -32 22
-78 57 -102 78 -24 20 -48 37 -52 37z"/>
</g>
<g>
<path d="M10593 12160 c-6 0 -23 -14 -37 -31 -14 -17 -26 -38 -26 -47 0 -9 9
-31 19 -48 14 -22 29 -33 53 -37 24 -4 42 1 65 16 26 17 33 29 33 54 0 18 -5
43 -11 56 -8 17 -22 27 -48 31 -20 3 -41 6 -48 6z"/>
</g>
<g>
<path d="M5655 12090 c-12 0 -38 -17 -58 -38 -26 -27 -37 -47 -37 -68 0 -16 7
-39 15 -50 8 -12 35 -27 60 -34 38 -11 50 -10 70 0 13 7 38 26 55 43 21 20 30
39 30 61 0 17 -4 37 -9 45 -5 8 -31 20 -58 27 -26 7 -57 13 -68 14z"/>
</g>
<g>
<path d="M6329 12084 c-13 3 -33 1 -44 -3 -13 -6 -29 -33 -44 -76 l-24 -68 24
-18 c13 -11 31 -18 39 -16 8 1 22 22 31 47 16 43 19 45 55 45 32 0 40 4 42 21
2 15 -6 29 -26 42 -15 11 -39 23 -53 26z"/>
</g>
<g>
<path d="M5512 11935 c-5 17 -10 25 -13 19 -2 -6 -22 -20 -44 -31 -22 -11
-179 -91 -350 -178 -170 -87 -557 -281 -860 -432 -302 -151 -579 -289 -615
-307 -46 -22 -65 -37 -65 -50 0 -10 8 -24 17 -30 14 -8 24 -7 45 6 16 10 83
46 151 80 68 35 136 69 150 76 15 7 34 17 42 22 8 6 47 26 85 45 39 19 77 39
85 45 8 5 44 23 80 40 36 17 72 35 80 40 8 5 38 20 65 33 28 14 66 32 85 41
19 10 42 21 50 26 8 6 34 19 57 30 23 11 46 20 50 20 4 0 26 14 47 30 22 17
50 30 63 30 13 0 23 4 23 10 0 5 15 16 33 24 17 8 61 28 97 45 36 18 85 43
110 56 25 13 79 40 120 59 41 20 145 72 230 116 85 44 161 80 168 80 7 0 15 6
17 13 3 6 1 26 -3 42z"/>
</g>
<g>
<path d="M5859 11960 c-5 0 -9 -7 -9 -16 0 -9 -7 -31 -16 -50 -9 -18 -27 -44
-41 -58 -13 -14 -38 -28 -54 -31 -19 -4 -29 -13 -29 -24 0 -12 30 -34 93 -69
50 -28 128 -69 172 -92 44 -23 112 -52 150 -65 39 -12 84 -30 100 -39 17 -9
46 -19 65 -22 19 -4 44 -13 55 -20 11 -8 24 -14 30 -14 6 0 11 28 12 65 1 36
7 81 13 100 6 19 25 46 41 60 17 14 29 30 27 36 -2 7 -49 26 -104 44 -55 18
-119 42 -142 54 -23 12 -70 28 -105 37 -34 9 -104 36 -156 60 -51 24 -98 44
-102 44z"/>
</g>
<g>
<path d="M7003 11847 c-42 4 -54 2 -59 -10 -3 -9 -4 -24 -2 -34 2 -11 18 -22
43 -29 22 -6 47 -13 55 -16 8 -3 49 -15 90 -27 41 -12 94 -27 117 -35 23 -7
59 -13 80 -12 35 1 38 4 41 32 2 17 -3 35 -10 41 -7 5 -33 16 -58 22 -25 7
-70 19 -102 26 -31 7 -61 16 -66 19 -6 3 -25 9 -44 12 -18 2 -57 7 -85 11z"/>
</g>
<g>
<path d="M7074 11728 c-14 -2 -30 -5 -35 -9 -6 -3 -17 -32 -25 -63 -12 -45
-12 -61 -3 -72 6 -8 22 -14 34 -14 13 0 26 7 29 16 3 9 6 24 6 35 0 13 7 19
23 19 13 0 28 5 35 12 7 7 12 22 12 35 0 16 -8 27 -25 33 -14 5 -37 9 -51 8z"/>
</g>
<g>
<path d="M6550 11640 c-12 0 -29 -15 -45 -40 -14 -22 -25 -49 -25 -60 0 -12
13 -28 33 -40 17 -11 48 -20 68 -20 23 0 42 7 54 20 14 15 16 29 10 65 -6 41
-11 48 -40 61 -19 8 -43 14 -55 14z"/>
</g>
<g>
<path d="M5705 11515 c-19 3 -46 -3 -70 -15 -22 -10 -92 -43 -155 -73 -63 -29
-122 -61 -132 -70 -12 -13 -14 -25 -8 -53 5 -19 24 -59 43 -87 19 -29 42 -67
51 -85 12 -23 23 -32 42 -32 17 0 27 8 34 25 5 14 14 25 20 25 5 0 10 6 10 13
0 8 -18 42 -41 77 -22 34 -38 69 -35 76 3 8 17 19 32 24 15 6 68 29 118 52 50
23 101 51 114 62 12 11 22 22 22 25 0 3 -4 12 -8 18 -4 7 -21 15 -37 18z"/>
</g>
<g>
<path d="M9124 11459 c-10 -1 -31 -4 -46 -6 -14 -2 -32 -11 -38 -19 -7 -8 -19
-14 -27 -14 -7 0 -17 -9 -21 -21 -5 -11 -6 -38 -3 -59 5 -30 15 -45 55 -75 44
-33 53 -36 91 -31 25 4 51 16 62 29 11 12 26 33 33 46 10 19 9 31 -4 65 -9 24
-30 50 -49 64 -18 12 -42 21 -53 21z"/>
</g>
<g>
<path d="M6442 11438 c-6 2 -15 -6 -21 -17 -6 -11 -17 -25 -23 -33 -7 -7 -25
-32 -41 -55 -15 -24 -27 -46 -28 -50 0 -5 -22 -37 -49 -73 -27 -36 -82 -117
-122 -180 -40 -63 -92 -140 -115 -172 -24 -31 -43 -63 -43 -72 0 -8 9 -20 19
-26 13 -7 28 -7 45 0 14 5 26 16 26 23 0 8 7 28 15 44 9 17 22 36 30 43 8 7
15 16 15 21 0 5 15 31 34 57 18 27 41 62 50 78 9 16 25 43 36 59 11 17 27 43
36 59 9 16 32 51 50 78 19 26 34 50 34 53 0 3 19 33 42 66 34 47 40 63 32 76
-6 9 -15 18 -22 21z"/>
</g>
<g>
<path d="M7621 11320 c-22 0 -51 -10 -74 -25 -33 -23 -37 -30 -37 -70 0 -40 4
-47 48 -84 30 -26 57 -41 75 -41 18 0 27 5 27 15 0 9 13 24 30 33 16 9 34 30
40 46 5 16 10 42 10 57 0 24 -4 29 -23 29 -13 0 -32 9 -42 20 -12 13 -31 20
-54 20z"/>
</g>
<g>
<path d="M9403 11042 l-171 177 -17 -25 c-16 -25 -15 -26 27 -72 23 -26 103
-108 178 -183 74 -75 149 -151 166 -170 17 -19 45 -46 62 -61 18 -16 35 -28
40 -28 4 0 13 5 20 12 8 8 6 19 -11 42 -12 17 -44 54 -72 81 -27 28 -127 130
-222 227z"/>
</g>
<g>
<path d="M4884 11170 c-6 0 -19 -9 -28 -19 -10 -11 -16 -31 -14 -47 2 -15 12
-32 23 -38 10 -6 50 -36 88 -66 38 -30 79 -61 91 -69 11 -8 35 -26 51 -41 17
-14 45 -33 63 -43 17 -10 36 -16 41 -12 5 3 13 1 16 -5 4 -6 46 -30 94 -54 49
-23 102 -52 119 -64 16 -12 34 -22 40 -22 5 0 20 -8 33 -18 13 -11 35 -21 47
-25 13 -3 30 -3 38 0 9 3 12 13 7 31 -4 16 -2 23 5 18 6 -3 13 -2 17 4 3 5 -1
20 -10 33 -9 15 -73 53 -163 97 -81 40 -172 84 -202 99 -30 14 -83 49 -117 76
-33 28 -73 59 -88 70 -15 11 -37 27 -49 35 -12 8 -38 25 -57 37 -19 13 -39 23
-45 23z"/>
</g>
<g>
<path d="M6849 11080 c-3 0 -15 -7 -27 -16 -12 -8 -38 -40 -57 -70 -19 -30
-35 -56 -35 -57 0 -2 -32 -57 -71 -123 -39 -65 -77 -126 -84 -134 -7 -8 -15
-31 -18 -51 -3 -20 -2 -40 1 -45 4 -6 32 -22 62 -36 30 -14 75 -35 100 -47 25
-11 62 -21 83 -23 36 -3 39 -1 57 40 18 40 18 43 2 49 -9 3 -41 17 -70 29 -29
13 -58 24 -65 24 -7 0 -22 6 -32 14 -17 12 -17 17 -5 47 7 19 21 43 31 54 9
11 36 56 59 100 23 44 47 85 54 90 6 6 22 26 34 46 12 20 22 45 22 56 0 11 -8
27 -18 36 -10 10 -21 17 -23 17z"/>
</g>
<g>
<path d="M7589 11040 l-32 0 9 -437 c4 -241 8 -456 9 -478 1 -22 2 -147 3
-277 l2 -238 31 0 31 0 -7 453 c-5 248 -9 479 -10 512 -1 33 -3 151 -4 263
l-1 202 -31 0z"/>
</g>
<g>
<path d="M9831 10669 c-14 0 -45 -15 -68 -32 -39 -28 -43 -35 -43 -73 0 -35 6
-49 34 -78 30 -33 38 -36 89 -36 53 0 56 2 78 37 15 25 22 49 20 76 -1 22 -8
49 -16 60 -7 10 -25 25 -40 33 -15 8 -39 14 -54 13z"/>
</g>
<g>
<path d="M9986 10430 c-6 0 -16 -11 -22 -25 -11 -23 -7 -29 67 -100 43 -41 86
-75 94 -75 9 0 15 9 15 24 0 13 -8 34 -19 47 -10 13 -42 48 -71 77 -29 28 -58
52 -64 52z"/>
</g>
<g>
<path d="M6279 10280 c-16 0 -32 -6 -35 -14 -3 -8 -4 -29 -2 -47 2 -26 10 -37
31 -47 15 -7 83 -20 150 -28 67 -7 133 -16 147 -19 14 -4 61 -19 105 -35 44
-15 105 -35 136 -44 31 -9 65 -16 77 -16 13 0 23 9 28 23 3 12 14 30 22 40 12
14 14 22 5 35 -5 9 -25 20 -44 24 -19 3 -60 11 -93 17 -32 6 -80 18 -105 27
-25 10 -50 21 -56 25 -5 3 -23 9 -40 12 -16 4 -70 9 -120 12 -49 3 -109 13
-133 21 -23 8 -56 14 -73 14z"/>
</g>
<g>
<path d="M7684 9539 c-27 -1 -59 -7 -72 -14 -13 -7 -36 -25 -53 -41 -21 -20
-29 -37 -29 -61 0 -26 10 -44 43 -78 26 -28 54 -47 74 -51 23 -4 42 0 66 15
18 11 46 32 60 45 22 20 27 34 27 72 0 39 -5 51 -34 80 -30 30 -40 34 -82 33z"/>
</g>
<g>
<path d="M7630 9193 c-10 3 -23 1 -29 -3 -9 -5 -12 -77 -10 -264 2 -199 5
-259 15 -267 8 -6 25 -8 40 -5 23 6 26 11 20 38 -3 17 -9 135 -13 264 -5 209
-8 233 -23 237z"/>
</g>
</g>
</svg>
