<?xml version="1.0" standalone="no"?>
<!DOCTYPE svg PUBLIC "-//W3C//DTD SVG 20010904//EN"
 "http://www.w3.org/TR/2001/REC-SVG-20010904/DTD/svg10.dtd">
<svg version="1.0" xmlns="http://www.w3.org/2000/svg"
 width="981.000000pt" height="1308.000000pt" viewBox="0 0 981.000000 1308.000000"
 preserveAspectRatio="xMidYMid meet">
<metadata>
Created by potrace 1.16, written by Peter Selinger 2001-2019
</metadata>
<g transform="translate(0.000000,1308.000000) scale(0.100000,-0.100000)"
fill="#000000" stroke="none">
<g>
<path d="M4642 11950 c-40 3 -74 5 -75 4 -1 -1 -56 -5 -122 -8 -66 -4 -138
-11 -160 -16 -22 -5 -41 -7 -44 -5 -2 2 -11 1 -20 -4 -9 -5 -41 -5 -71 -1 -40
5 -69 2 -114 -11 -43 -13 -62 -15 -67 -7 -5 7 -26 9 -62 5 -30 -3 -79 -16
-108 -30 -47 -21 -65 -23 -142 -20 -48 2 -105 -1 -125 -7 -20 -6 -80 -15 -134
-20 -64 -6 -109 -16 -134 -30 -21 -11 -46 -20 -55 -20 -8 0 -33 -15 -55 -34
-22 -19 -51 -34 -64 -34 -14 0 -57 -2 -96 -4 -49 -3 -81 -10 -108 -26 -20 -12
-43 -22 -51 -22 -7 0 -37 -16 -66 -36 -30 -20 -64 -45 -76 -57 -13 -11 -23
-24 -23 -29 0 -5 -18 -26 -40 -48 -21 -21 -42 -50 -45 -63 -5 -18 -1 -31 14
-46 12 -12 21 -28 21 -37 0 -8 17 -22 38 -30 20 -9 61 -32 90 -52 30 -21 73
-49 95 -64 23 -15 65 -38 92 -51 28 -14 74 -33 103 -42 29 -9 65 -27 80 -39
15 -11 45 -31 67 -43 22 -12 67 -31 100 -43 33 -12 78 -26 100 -31 22 -4 64
-13 94 -18 30 -6 58 -14 63 -19 5 -5 11 -53 14 -108 3 -54 8 -110 11 -124 4
-14 8 -52 9 -85 2 -33 4 -113 5 -178 2 -65 6 -120 9 -122 4 -2 4 -23 1 -47 -4
-24 -3 -81 1 -128 3 -47 9 -220 12 -385 4 -165 10 -325 16 -355 5 -30 18 -142
30 -248 11 -106 18 -197 15 -202 -3 -5 -1 -37 4 -72 6 -35 11 -98 12 -141 1
-50 6 -80 14 -83 8 -3 12 -37 13 -102 0 -53 6 -126 12 -162 6 -36 12 -85 14
-110 1 -25 8 -55 14 -67 7 -12 12 -52 12 -88 0 -66 -1 -67 -50 -123 -27 -31
-50 -61 -50 -67 0 -6 -20 -38 -45 -71 -24 -32 -60 -77 -80 -99 -19 -22 -42
-53 -50 -68 -8 -16 -28 -46 -45 -67 -16 -21 -30 -46 -30 -55 0 -9 -6 -29 -14
-43 -7 -15 -23 -49 -34 -77 -12 -27 -26 -68 -33 -90 -6 -22 -19 -56 -29 -75
-9 -19 -27 -69 -40 -110 -12 -41 -27 -85 -33 -97 -5 -12 -10 -84 -11 -160 -1
-76 2 -167 6 -203 5 -36 9 -87 10 -113 1 -26 5 -50 9 -53 4 -2 11 -34 15 -71
4 -37 17 -88 30 -114 13 -26 24 -52 24 -58 0 -6 4 -11 9 -11 5 0 17 -25 26
-55 10 -30 24 -60 31 -66 8 -6 14 -18 14 -25 0 -7 9 -28 20 -46 11 -18 20 -42
20 -54 0 -11 11 -31 25 -44 14 -13 25 -31 25 -40 0 -10 16 -37 35 -61 19 -24
35 -49 35 -54 0 -6 31 -43 70 -83 38 -39 89 -81 112 -93 24 -12 70 -38 103
-58 33 -20 62 -38 65 -42 3 -3 34 -21 70 -40 36 -19 87 -49 113 -66 27 -18 57
-33 67 -33 11 0 22 -4 25 -10 3 -5 15 -10 25 -10 10 0 31 -10 47 -23 15 -12
62 -39 104 -60 42 -20 87 -37 98 -37 12 0 34 -13 49 -28 15 -15 40 -33 55 -40
15 -7 42 -12 60 -12 18 0 48 -5 67 -11 19 -6 60 -17 90 -24 30 -8 70 -14 88
-15 30 0 32 -2 32 -38 0 -21 2 -41 5 -44 3 -3 7 -74 10 -159 2 -85 8 -208 13
-274 6 -66 8 -123 6 -127 -2 -4 -90 -7 -196 -8 -105 0 -195 -3 -201 -7 -5 -3
-71 -6 -146 -7 -119 -1 -141 -4 -177 -23 -36 -19 -47 -20 -90 -11 -35 8 -71 7
-130 -2 -64 -9 -95 -9 -139 0 -54 11 -58 11 -81 -11 -13 -12 -24 -34 -24 -48
0 -14 -7 -35 -15 -45 -8 -11 -15 -28 -15 -39 0 -10 -6 -31 -14 -45 -8 -15 -19
-52 -25 -82 -6 -30 -11 -66 -11 -80 0 -14 0 -37 0 -52 0 -16 0 -38 1 -50 0
-13 -4 -82 -9 -154 -5 -72 -15 -141 -21 -153 -7 -12 -19 -88 -26 -169 -8 -81
-18 -172 -23 -202 -5 -30 -12 -62 -15 -70 -3 -8 -9 -107 -12 -220 -3 -113 -8
-304 -10 -425 -3 -121 -8 -290 -11 -375 -4 -85 -8 -190 -9 -234 -2 -43 -7 -82
-12 -86 -4 -4 -33 -15 -63 -25 -30 -10 -66 -24 -80 -31 -14 -7 -106 -53 -205
-102 -99 -49 -198 -99 -220 -111 -22 -13 -57 -36 -77 -52 -20 -16 -41 -29 -46
-29 -5 0 -17 -10 -28 -22 -11 -13 -26 -52 -33 -86 -11 -59 -11 -68 10 -118 13
-30 27 -54 32 -54 6 0 24 -16 41 -36 17 -19 42 -36 56 -38 14 -2 45 -12 70
-23 25 -11 88 -32 140 -48 52 -15 113 -31 135 -37 22 -6 51 -16 65 -23 14 -7
47 -15 74 -19 27 -3 55 -11 62 -17 8 -6 25 -8 40 -5 14 4 31 3 37 -2 7 -5 53
-19 102 -30 50 -12 104 -23 121 -26 18 -2 48 -9 68 -15 20 -6 53 -16 74 -23
20 -6 69 -13 107 -14 39 -2 70 -3 70 -4 0 -1 7 -3 15 -5 8 -2 40 -11 70 -20
30 -9 80 -21 110 -26 30 -5 62 -12 70 -16 8 -3 33 -8 55 -10 22 -2 67 -11 100
-20 33 -8 116 -19 185 -24 69 -5 148 -13 175 -18 28 -6 106 -14 175 -18 69 -4
143 -7 165 -7 22 0 99 3 170 7 72 4 159 11 195 16 36 4 69 6 73 4 5 -3 38 0
75 7 37 6 119 23 182 36 63 14 138 30 165 36 28 7 68 13 90 14 22 2 81 7 130
13 50 6 122 19 160 30 39 10 107 30 152 44 45 14 101 37 125 52 24 14 62 40
85 58 24 18 54 49 68 70 14 21 25 42 25 48 0 5 11 27 24 48 13 21 30 58 36 82
7 24 16 52 21 61 5 10 9 61 9 113 0 57 -4 95 -10 95 -5 0 -10 9 -10 20 0 12
-7 35 -16 53 -9 18 -37 60 -63 94 -25 34 -52 62 -58 63 -7 0 -13 4 -13 10 0 5
-27 27 -59 50 -33 22 -62 48 -65 57 -3 10 -8 88 -11 173 -3 85 -7 166 -9 180
-1 14 -8 48 -14 75 -6 28 -18 138 -26 245 -9 107 -18 220 -20 250 -3 30 -9 87
-15 125 -5 39 -22 147 -36 240 -15 94 -31 199 -36 235 -4 36 -13 94 -19 130
-6 36 -13 83 -15 104 -2 22 -7 46 -11 55 -4 9 -13 48 -21 86 -8 39 -19 111
-25 160 -5 50 -16 124 -24 165 -8 41 -16 91 -18 110 -2 19 -27 84 -56 143 -41
84 -58 109 -77 113 -14 4 -57 3 -97 -1 -39 -4 -210 -6 -379 -5 -170 1 -318 3
-330 6 -12 2 -92 4 -177 3 -85 -1 -173 -1 -194 0 -22 0 -40 2 -42 3 -1 2 -7
58 -13 125 -6 67 -11 177 -11 245 -1 68 -5 143 -10 168 -4 25 -7 48 -5 51 2 3
27 1 55 -5 43 -9 73 -5 217 24 93 18 209 48 258 65 50 18 110 40 135 50 25 10
59 29 76 42 17 13 34 23 39 23 4 0 41 25 82 56 41 31 104 83 140 114 36 32 74
73 85 91 11 18 57 70 101 114 44 44 96 99 114 123 18 23 33 45 33 48 0 3 9 17
20 31 11 14 20 35 20 47 0 12 9 37 20 56 11 19 27 49 35 67 8 17 19 34 25 38
5 3 10 17 10 29 0 13 6 29 14 35 8 7 18 27 21 44 3 18 10 41 15 52 5 11 19 54
30 95 12 41 23 84 25 95 2 11 13 58 24 105 11 47 23 124 26 170 3 47 8 140 10
208 3 67 1 161 -5 208 -5 52 -17 99 -29 119 -11 19 -15 38 -11 45 5 7 0 33
-12 59 -11 25 -25 53 -32 61 -7 8 -16 29 -19 46 -3 17 -22 66 -41 107 -20 42
-36 83 -36 91 0 8 -5 18 -10 21 -6 4 -19 24 -30 46 -11 22 -38 56 -60 77 -22
20 -40 42 -40 48 0 6 -24 35 -52 66 -29 31 -78 82 -109 114 -31 33 -79 79
-108 104 -28 25 -57 47 -64 50 -7 3 -32 18 -57 35 -25 16 -49 36 -53 43 -5 7
-25 19 -45 28 -21 8 -43 23 -49 33 -8 12 -9 31 -3 57 5 22 16 77 24 124 9 47
18 114 21 150 3 36 8 76 10 90 2 14 9 79 14 145 6 66 13 185 16 265 4 80 11
188 16 240 5 52 13 167 19 255 5 88 12 189 15 225 3 36 8 94 11 130 2 36 6
131 9 211 2 80 7 161 10 179 3 18 8 37 11 42 3 4 7 47 10 95 3 47 7 90 10 94
2 4 4 76 5 161 0 126 3 156 16 170 9 10 26 18 37 18 12 0 49 9 83 20 34 10 86
22 115 26 29 3 74 17 100 30 26 12 82 33 125 45 43 12 100 32 128 45 27 14 59
30 70 37 11 7 34 22 51 32 17 11 42 34 56 50 13 17 32 44 41 60 9 17 23 59 32
94 12 52 13 72 4 100 -6 20 -25 55 -40 79 -16 24 -29 47 -29 51 0 4 -18 16
-40 27 -22 10 -40 22 -40 25 0 4 -17 9 -39 13 -21 3 -44 12 -51 21 -6 8 -28
17 -49 21 -20 3 -56 12 -80 20 -25 8 -64 14 -87 14 -24 0 -55 5 -71 11 -15 6
-66 17 -113 25 -47 8 -107 14 -135 14 -27 0 -102 9 -165 20 -63 11 -200 25
-305 30 -104 6 -224 17 -265 24 -50 10 -161 15 -330 17 -140 1 -288 5 -328 9z
m-97 -111 c93 -1 233 -5 310 -10 77 -5 203 -9 280 -10 77 -1 157 -5 177 -10
21 -5 84 -14 140 -20 57 -5 141 -13 188 -18 47 -5 116 -14 155 -21 38 -6 73
-16 77 -23 5 -7 7 -70 5 -142 -2 -71 -7 -150 -9 -175 -3 -25 -9 -108 -13 -185
-3 -77 -8 -145 -10 -151 -2 -6 -30 -16 -62 -23 -32 -6 -70 -17 -84 -25 -15 -8
-60 -17 -100 -22 -41 -4 -78 -7 -82 -6 -4 1 -16 -2 -26 -7 -10 -6 -31 -12 -47
-15 -16 -3 -72 -10 -124 -16 -52 -5 -126 -15 -165 -21 -38 -6 -83 -15 -100
-20 -16 -5 -43 -11 -60 -13 -16 -3 -59 -9 -95 -15 -36 -6 -146 -15 -245 -20
-114 -6 -200 -6 -235 0 -30 5 -127 19 -215 30 -88 12 -207 27 -265 34 -58 8
-127 17 -155 21 -27 3 -54 10 -60 14 -5 4 -24 11 -41 14 -21 5 -34 15 -38 29
-3 12 -9 153 -12 312 -3 160 -10 317 -14 350 -4 34 -4 68 2 78 5 11 19 17 36
16 15 -1 88 8 162 19 74 12 227 26 340 32 112 6 206 13 209 16 3 3 82 4 176 3z
m1474 -99 c3 0 83 -13 176 -29 94 -16 197 -38 230 -49 33 -11 75 -22 92 -25
18 -4 52 -19 75 -34 24 -15 53 -38 65 -50 12 -12 24 -31 28 -42 3 -10 12 -22
20 -25 8 -3 15 -15 15 -26 0 -11 -11 -42 -24 -68 -13 -26 -32 -55 -42 -64 -11
-9 -30 -22 -44 -28 -14 -6 -41 -20 -60 -30 -19 -10 -60 -26 -90 -35 -30 -9
-59 -20 -65 -25 -5 -4 -44 -19 -85 -33 -41 -14 -93 -29 -115 -32 -22 -4 -47
-9 -55 -13 -8 -3 -22 -7 -30 -8 -8 -1 -45 -9 -82 -17 l-68 -15 -1 52 c-1 28
-2 80 -2 116 -1 36 2 79 6 95 4 17 10 102 14 190 4 122 9 164 21 178 8 9 18
17 21 17z m-2553 -11 c39 1 42 -1 49 -31 4 -18 11 -127 16 -243 5 -115 10
-232 12 -260 2 -27 1 -77 -2 -110 l-6 -60 -40 3 c-22 1 -56 9 -75 16 -19 8
-71 24 -115 36 -44 12 -107 38 -140 59 -33 20 -80 42 -103 50 -24 7 -73 29
-108 49 -36 20 -82 47 -104 59 -22 12 -56 37 -77 55 -20 18 -48 43 -61 56 -13
12 -22 28 -20 35 2 7 35 36 74 65 42 32 90 59 124 68 30 9 71 22 90 29 19 7
53 17 75 23 22 6 87 25 145 43 58 17 132 38 165 44 33 7 79 13 101 14z m2354
-782 c24 -2 25 -5 26 -67 1 -36 3 -99 4 -140 1 -41 0 -118 -4 -170 -3 -52 -10
-108 -15 -125 -5 -16 -12 -61 -15 -100 -4 -38 -9 -133 -11 -210 -3 -77 -7
-168 -10 -202 -3 -34 -7 -67 -10 -75 -3 -7 -9 -89 -15 -183 -5 -93 -15 -222
-20 -285 -6 -63 -13 -162 -15 -220 -3 -58 -7 -134 -11 -169 -4 -35 -8 -89 -10
-120 -1 -31 -7 -99 -12 -151 -6 -52 -15 -116 -21 -141 -5 -26 -12 -77 -15
-114 -3 -38 -8 -70 -11 -73 -2 -3 -43 3 -90 13 -47 10 -85 22 -85 27 0 4 -15
8 -34 8 -19 0 -38 5 -41 10 -3 6 -35 10 -71 10 -49 0 -64 3 -64 15 0 8 -17 19
-40 25 -22 6 -95 12 -161 14 -66 2 -123 7 -126 10 -3 3 -58 3 -121 0 -64 -3
-124 -10 -132 -14 -9 -5 -54 -14 -100 -20 -47 -6 -89 -15 -95 -19 -5 -5 -36
-11 -69 -14 -32 -3 -84 -18 -115 -32 -31 -14 -85 -40 -120 -56 -35 -17 -101
-55 -147 -86 -46 -30 -93 -65 -106 -77 -13 -13 -34 -29 -47 -35 -13 -7 -27 -9
-31 -4 -4 4 -20 105 -35 223 -15 118 -31 247 -36 285 -4 39 -13 115 -19 169
-6 55 -13 103 -15 106 -2 3 -7 80 -10 171 -3 90 -10 196 -16 234 -5 39 -14
102 -19 140 -5 39 -12 223 -15 410 -4 187 -8 387 -11 445 -3 58 -7 130 -9 160
-2 30 -7 124 -11 208 -6 127 -5 152 7 152 8 -1 34 -5 59 -11 25 -6 65 -14 90
-19 25 -5 81 -16 125 -24 44 -9 123 -20 175 -25 52 -6 129 -18 170 -26 60 -13
119 -15 300 -11 124 3 250 10 280 15 30 5 106 21 169 35 63 14 131 26 153 26
21 0 131 14 244 31 114 17 218 35 233 41 14 6 49 16 76 23 28 7 61 12 75 12z
m-895 -2508 c153 0 194 -3 209 -14 11 -8 40 -15 65 -15 25 0 65 -7 88 -15 23
-8 49 -12 57 -9 8 3 30 -1 48 -9 18 -8 56 -22 83 -32 28 -10 76 -29 107 -44
56 -26 57 -26 50 -61 -3 -19 -6 -55 -5 -79 2 -36 8 -48 40 -77 21 -18 41 -33
45 -34 4 0 20 -12 35 -26 15 -14 47 -44 70 -67 24 -23 43 -47 43 -53 0 -7 8
-14 19 -17 11 -2 26 -24 36 -53 10 -27 24 -56 32 -65 7 -8 13 -21 13 -27 0 -7
5 -12 10 -12 6 0 10 -16 10 -35 0 -21 9 -48 22 -65 12 -17 31 -30 42 -30 16 0
24 10 34 40 6 22 12 46 12 53 0 7 -16 44 -35 82 -19 38 -39 82 -44 97 -5 14
-36 62 -67 105 -32 43 -70 89 -84 103 -14 14 -47 43 -73 64 -26 22 -47 46 -47
53 0 7 6 13 13 13 7 0 28 -14 46 -31 19 -17 53 -42 75 -56 23 -14 101 -86 174
-160 72 -74 139 -147 147 -164 9 -16 20 -29 25 -29 6 0 10 -5 10 -11 0 -6 9
-18 19 -27 11 -10 29 -33 40 -52 11 -19 32 -57 46 -84 14 -28 25 -55 25 -62 0
-6 7 -17 15 -24 8 -7 15 -23 15 -35 0 -12 7 -28 15 -35 8 -7 15 -21 15 -32 0
-10 16 -60 36 -111 20 -51 36 -99 36 -107 0 -8 4 -30 10 -48 6 -19 10 -106 10
-195 0 -89 -3 -169 -6 -177 -2 -8 -7 -44 -11 -80 -3 -36 -7 -76 -9 -90 -2 -14
-9 -54 -16 -90 -7 -36 -19 -82 -26 -103 -8 -20 -14 -47 -14 -60 0 -12 -7 -30
-15 -40 -7 -11 -17 -38 -20 -60 -4 -23 -30 -85 -57 -137 -28 -52 -65 -113 -82
-135 -18 -22 -40 -54 -49 -71 -9 -17 -23 -34 -32 -37 -8 -4 -15 -12 -15 -20 0
-7 -10 -23 -22 -34 -13 -11 -61 -44 -108 -72 -47 -29 -96 -63 -110 -76 -14
-13 -52 -48 -85 -77 -38 -34 -83 -62 -120 -76 -33 -13 -78 -36 -100 -52 -22
-16 -69 -48 -105 -72 -36 -24 -94 -56 -130 -71 -36 -15 -83 -27 -106 -27 -29
0 -46 -6 -60 -21 -17 -19 -26 -21 -94 -15 -41 4 -79 7 -85 7 -5 1 -46 -1 -90
-5 -59 -5 -94 -2 -135 9 -30 9 -88 25 -129 36 -40 10 -84 19 -97 19 -13 0 -28
9 -34 20 -8 14 -21 20 -48 20 -20 0 -61 7 -91 14 -29 8 -60 21 -70 29 -9 8
-54 34 -101 57 -47 23 -92 46 -100 51 -8 5 -31 17 -50 25 -19 9 -37 20 -40 24
-3 4 -20 15 -39 25 -19 9 -43 26 -54 36 -12 10 -25 19 -29 19 -5 0 -37 18 -71
40 -34 21 -77 49 -95 62 -18 13 -55 43 -82 67 -28 25 -50 50 -50 55 0 6 -18
34 -40 61 -22 28 -40 55 -40 62 0 6 -10 24 -23 40 -12 15 -34 53 -49 83 -15
30 -29 62 -32 70 -3 8 -10 22 -16 30 -5 8 -21 41 -35 73 -14 32 -25 60 -25 62
0 3 -9 24 -20 48 -10 23 -24 74 -30 112 -6 39 -15 97 -20 130 -6 33 -10 79 -9
103 0 23 -3 48 -8 55 -4 6 -6 46 -4 87 1 41 7 92 12 112 5 21 12 57 14 82 3
24 12 66 20 92 9 27 20 58 25 69 5 11 16 42 26 68 9 26 21 50 25 53 5 3 9 15
9 27 0 13 9 40 19 60 11 21 24 43 29 50 5 7 20 32 33 57 13 25 39 63 56 86 18
23 33 48 33 56 0 9 7 22 17 29 9 8 24 26 33 42 9 15 34 46 56 70 22 23 47 55
57 70 10 15 21 25 26 23 4 -3 14 -24 21 -47 8 -22 21 -43 29 -46 9 -3 57 -21
106 -40 69 -27 102 -46 140 -84 28 -27 56 -49 63 -49 7 0 12 -6 12 -14 0 -7 7
-19 15 -26 8 -7 15 -21 15 -31 0 -11 10 -23 23 -28 12 -5 31 -18 41 -30 11
-11 30 -21 44 -21 22 0 24 3 18 30 -3 17 -1 41 6 54 9 20 7 31 -12 60 -12 20
-27 36 -33 36 -7 0 -40 32 -75 70 -35 38 -83 84 -108 101 -24 16 -67 37 -94
45 -27 8 -61 25 -75 37 -15 13 -27 36 -29 58 -4 32 1 42 47 92 29 30 84 76
122 102 39 25 102 62 141 81 40 19 77 41 84 49 7 8 25 15 41 15 15 0 30 4 33
8 3 5 31 14 63 21 32 8 72 17 88 21 17 5 68 15 115 24 47 8 94 17 105 19 11 3
106 5 210 6z m410 -4025 c116 -1 300 -5 410 -9 131 -5 243 -3 324 5 87 8 127
8 134 1 6 -6 12 -39 13 -74 1 -34 5 -74 8 -87 4 -14 2 -50 -3 -80 -5 -30 -6
-59 -2 -65 3 -5 7 -39 7 -75 1 -36 2 -74 2 -85 0 -11 0 -111 1 -222 0 -112 1
-213 1 -225 0 -13 0 -52 -1 -88 0 -36 2 -155 5 -265 4 -110 6 -333 7 -495 0
-162 -1 -487 -3 -722 -2 -234 -7 -430 -11 -434 -5 -5 -65 -12 -135 -16 -70 -5
-334 -10 -587 -13 -265 -2 -502 0 -560 5 -55 6 -230 20 -390 33 -159 12 -336
21 -392 20 -89 -2 -103 0 -107 15 -2 9 -7 31 -11 47 -4 17 -8 50 -9 73 -1 31
-8 49 -23 60 -12 10 -23 34 -26 57 -3 22 -9 150 -12 285 -3 135 -11 279 -17
320 -6 41 -12 98 -14 125 -2 28 -6 79 -9 115 -3 36 -9 133 -14 217 -4 83 -4
175 0 205 4 29 3 91 -1 138 -5 47 -14 157 -20 245 -7 87 -14 180 -16 205 -2
25 -4 50 -4 55 0 6 2 69 4 140 2 72 -1 159 -5 195 -5 36 -11 94 -14 129 -3 35
-10 95 -15 134 -6 38 -9 71 -8 72 2 2 68 6 148 10 80 4 224 10 320 12 96 3
234 7 305 9 72 1 168 3 215 4 47 1 90 1 96 1 7 -1 14 -10 17 -21 3 -12 14 -20
26 -20 14 0 25 9 31 25 5 13 20 27 32 30 13 2 39 6 58 7 19 2 130 2 245 2z
m-1565 -204 c4 0 12 -24 19 -53 7 -31 12 -134 12 -247 0 -107 0 -202 0 -210 1
-8 -1 -31 -4 -50 -3 -19 0 -44 5 -54 6 -10 12 -76 15 -145 2 -69 6 -182 9
-251 2 -69 6 -189 8 -267 2 -78 7 -182 11 -231 4 -49 11 -95 15 -102 5 -8 4
-22 -2 -33 -7 -13 -7 -26 0 -41 6 -11 14 -57 18 -101 5 -44 7 -131 5 -192 -2
-78 1 -113 8 -113 7 0 10 -19 8 -52 -3 -53 -3 -53 -42 -61 -22 -4 -67 -17
-100 -28 -33 -12 -74 -23 -92 -26 -24 -4 -32 -1 -37 14 -3 10 -7 43 -10 73 -2
30 0 206 5 390 4 184 10 441 14 570 3 129 10 251 15 270 5 19 12 82 14 140 3
58 9 128 12 155 4 28 11 61 16 75 6 14 14 57 19 95 5 39 15 135 23 215 7 80
14 154 15 165 0 11 3 37 7 58 3 20 9 37 14 37z m2541 -110 c5 0 12 -6 15 -14
3 -8 7 -43 9 -78 2 -35 8 -99 14 -143 6 -44 15 -89 20 -100 6 -11 12 -36 16
-55 3 -19 10 -62 15 -95 5 -33 14 -85 20 -115 6 -30 13 -71 15 -90 2 -19 9
-71 15 -115 7 -44 16 -114 21 -155 5 -41 14 -122 19 -180 6 -58 12 -130 15
-160 3 -30 8 -84 11 -120 2 -36 9 -94 14 -130 5 -36 10 -105 11 -154 1 -49 6
-106 12 -125 5 -20 11 -52 13 -71 2 -19 7 -74 10 -122 l5 -88 -25 0 c-14 0
-68 14 -120 30 -51 17 -99 37 -106 45 -9 11 -11 62 -6 207 3 106 6 200 7 208
0 8 -1 73 -3 143 -2 71 0 131 4 133 4 3 1 20 -6 39 -10 24 -12 37 -4 41 7 5 9
103 4 328 -3 177 -8 413 -11 526 -3 113 -7 251 -10 308 -3 64 -1 102 6 102z
m64 -2170 c20 -4 46 -15 60 -24 13 -9 35 -16 48 -16 13 0 42 -9 65 -20 l42
-20 -2 -73 c-1 -39 2 -101 7 -137 4 -36 14 -77 21 -92 8 -15 11 -33 8 -41 -3
-8 4 -33 16 -56 11 -23 24 -41 29 -41 5 0 16 3 25 6 9 3 16 15 16 25 0 10 5
19 10 19 6 0 10 15 10 33 0 18 -4 37 -9 43 -6 5 -17 56 -25 113 -9 58 -16 115
-16 128 0 13 5 23 11 23 6 0 40 -30 75 -67 35 -37 64 -72 64 -77 0 -5 6 -17
13 -25 8 -9 21 -36 30 -61 9 -25 17 -67 17 -92 0 -26 -4 -50 -10 -53 -5 -3
-10 -19 -10 -35 0 -16 -9 -44 -20 -62 -11 -18 -20 -41 -20 -51 0 -10 -10 -32
-22 -49 -13 -18 -38 -46 -57 -62 -19 -17 -56 -43 -82 -59 -27 -15 -55 -27 -64
-27 -9 0 -30 -7 -46 -16 -17 -8 -67 -22 -112 -30 -45 -7 -85 -14 -88 -14 -3 0
-6 121 -7 268 -1 155 -6 280 -11 296 -6 14 -10 84 -10 154 0 70 0 140 -1 155
0 16 2 32 5 37 3 4 21 4 40 0z m-2499 -10 c23 0 24 -2 24 -78 0 -43 3 -82 8
-86 4 -4 8 -17 9 -29 0 -12 4 -38 8 -57 3 -19 8 -44 10 -55 2 -11 4 -22 6 -25
1 -3 3 -16 5 -30 2 -14 4 -45 6 -70 2 -25 7 -50 11 -57 4 -6 10 -42 13 -80 3
-37 8 -88 10 -113 1 -25 7 -82 11 -127 6 -52 5 -84 -1 -86 -5 -2 -32 3 -60 10
-28 8 -78 18 -111 24 -33 6 -80 13 -105 16 -25 3 -54 12 -65 19 -11 8 -39 14
-63 14 -24 0 -55 6 -70 14 -15 7 -61 19 -102 26 -41 7 -86 18 -100 25 -14 7
-52 18 -85 24 -32 6 -64 16 -69 21 -6 6 -25 10 -43 10 -18 0 -33 5 -33 10 0 6
-12 10 -27 10 -16 0 -48 14 -73 30 -25 16 -50 30 -56 30 -6 0 -30 20 -53 46
-37 39 -42 49 -36 77 4 21 23 47 53 74 26 23 65 51 87 61 22 11 99 47 170 82
72 34 138 69 148 78 9 8 17 12 17 9 0 -4 21 3 48 14 26 11 64 28 85 38 21 11
47 17 57 14 16 -4 20 -15 21 -57 1 -28 3 -73 4 -101 1 -27 3 -94 3 -148 l2
-98 27 3 c19 2 29 10 31 23 2 11 10 27 17 35 9 11 12 66 12 195 l1 180 58 29
c33 16 80 31 107 34 26 2 50 9 53 13 3 5 16 9 30 9z m299 -501 c44 0 125 -4
180 -9 55 -6 154 -12 220 -15 66 -3 163 -10 215 -15 52 -6 145 -13 205 -15 61
-3 115 -6 120 -6 6 0 134 2 285 6 151 4 284 7 295 7 11 0 72 0 135 -1 63 -1
139 3 169 8 29 6 83 11 120 11 36 0 82 -4 101 -10 l35 -10 3 -174 c2 -135 0
-176 -10 -183 -7 -4 -35 -13 -63 -19 -27 -6 -86 -19 -130 -28 -44 -9 -98 -20
-120 -25 -22 -5 -65 -16 -95 -24 -30 -8 -102 -18 -160 -21 -58 -4 -132 -11
-165 -16 -33 -6 -91 -14 -130 -19 -38 -5 -88 -7 -110 -5 -22 3 -94 7 -160 8
-66 2 -158 8 -204 15 -46 6 -148 16 -225 21 -78 5 -157 12 -176 15 -19 4 -39
11 -45 16 -5 5 -28 9 -52 9 -23 0 -52 5 -65 10 -13 6 -57 14 -98 19 -41 5 -91
13 -110 18 -27 7 -36 14 -38 33 -1 14 -9 72 -17 130 -7 58 -17 137 -20 177 -5
62 -4 73 12 82 10 6 54 10 98 10z"/>
<g>
<path d="M5975 7450 c-11 0 -35 -12 -52 -26 -30 -23 -33 -30 -33 -83 l0 -58
43 -17 c23 -9 50 -16 58 -16 9 0 28 9 43 21 21 16 26 29 26 63 0 29 -7 53 -22
72 -12 16 -27 32 -33 36 -5 4 -19 8 -30 8z"/>
</g>
<g>
<path d="M4352 7299 c-15 0 -36 -4 -48 -9 -11 -4 -27 -19 -36 -32 -8 -12 -18
-35 -21 -50 -4 -15 -3 -30 3 -33 5 -3 10 -15 10 -25 0 -14 11 -22 42 -30 22
-7 56 -9 75 -5 19 3 40 16 49 30 11 16 13 34 8 60 -3 20 -18 50 -31 66 -16 19
-34 29 -51 28z"/>
</g>
<g>
<path d="M5382 7190 c-10 0 -25 -6 -34 -12 -8 -7 -18 -23 -21 -36 -3 -12 -1
-37 4 -55 5 -17 9 -36 9 -42 1 -5 8 -17 15 -25 7 -8 16 -27 20 -42 4 -14 15
-34 26 -44 10 -9 19 -29 19 -44 0 -16 7 -30 15 -34 8 -3 15 -16 15 -29 0 -14
7 -30 15 -37 8 -7 15 -20 15 -30 0 -9 9 -25 19 -34 11 -10 17 -25 14 -35 -3
-10 9 -47 25 -82 17 -35 33 -76 36 -90 5 -25 3 -26 -71 -42 -41 -9 -79 -14
-84 -11 -5 3 -17 0 -27 -5 -11 -6 -27 -26 -36 -46 -9 -19 -14 -40 -11 -45 3
-6 27 -10 53 -10 26 0 98 10 161 22 80 15 114 26 118 37 2 9 9 24 14 33 5 10
9 29 9 42 0 13 -18 60 -40 104 -22 44 -40 85 -40 93 0 7 -8 31 -19 53 -10 23
-26 57 -35 76 -9 19 -20 42 -25 50 -4 8 -18 38 -31 65 -12 28 -30 66 -39 85
-9 19 -19 37 -23 38 -5 2 -8 12 -8 22 0 10 -9 39 -20 64 -13 31 -25 46 -38 46z"/>
</g>
<g>
<path d="M5815 6076 c-33 1 -85 -2 -115 -7 -30 -5 -98 -12 -150 -17 -52 -5
-104 -13 -115 -18 -11 -6 -51 -11 -90 -13 -38 -1 -110 -8 -160 -16 -49 -8
-115 -17 -145 -20 -30 -3 -99 -11 -153 -19 -76 -11 -104 -19 -123 -37 -13 -12
-24 -33 -24 -46 0 -16 8 -27 25 -33 17 -6 61 -5 132 5 60 8 142 19 183 25 41
5 88 15 105 20 17 5 50 10 75 11 25 1 90 8 145 16 55 8 147 21 205 29 58 8
141 19 185 25 44 5 86 16 94 23 11 12 11 18 -1 42 -12 27 -18 29 -73 30z"/>
</g>
</g>
</g>
</svg>
