<?xml version="1.0" standalone="no"?>
<!DOCTYPE svg PUBLIC "-//W3C//DTD SVG 20010904//EN"
 "http://www.w3.org/TR/2001/REC-SVG-20010904/DTD/svg10.dtd">
<svg version="1.0" xmlns="http://www.w3.org/2000/svg"
 width="1469.000000pt" height="1469.000000pt" viewBox="0 0 1469.000000 1469.000000"
 preserveAspectRatio="xMidYMid meet">
<metadata>
Created by potrace 1.16, written by Peter Selinger 2001-2019
</metadata>
<g transform="translate(0.000000,1469.000000) scale(0.100000,-0.100000)"
fill="#000000" stroke="none">
<g>
<path d="M4885 13753 c-38 2 -90 0 -115 -5 -25 -4 -70 -13 -100 -20 -30 -7
-76 -22 -101 -35 -26 -13 -50 -23 -53 -23 -4 0 -12 -4 -19 -10 -7 -5 -43 -34
-82 -64 -38 -30 -86 -73 -105 -97 -19 -23 -43 -50 -52 -60 -10 -11 -18 -23
-18 -28 0 -5 -16 -37 -35 -71 -19 -34 -35 -68 -35 -76 0 -7 -9 -48 -19 -91
-10 -43 -24 -101 -31 -129 -9 -42 -8 -67 5 -139 9 -49 22 -100 27 -114 6 -14
21 -55 34 -90 20 -55 35 -76 98 -136 41 -39 87 -77 103 -85 15 -8 37 -21 48
-30 11 -9 45 -27 75 -39 30 -13 62 -29 71 -37 8 -8 21 -14 27 -14 7 0 12 -8
12 -18 0 -10 -4 -45 -10 -78 -5 -32 -15 -90 -21 -129 -6 -38 -15 -87 -21 -107
-9 -31 -18 -39 -47 -48 -20 -6 -67 -26 -106 -44 -38 -19 -92 -42 -120 -51 -27
-10 -63 -25 -80 -35 -16 -9 -52 -23 -80 -30 -27 -7 -60 -22 -72 -33 -18 -16
-23 -31 -23 -66 0 -25 -6 -76 -14 -113 -8 -37 -16 -71 -20 -76 -3 -5 -9 -33
-15 -63 -5 -30 -21 -97 -36 -149 -15 -52 -31 -108 -35 -125 -5 -16 -26 -87
-48 -157 -22 -71 -38 -128 -36 -128 3 0 -2 -10 -10 -22 -8 -13 -20 -43 -26
-68 -6 -25 -15 -65 -20 -90 -5 -25 -11 -56 -14 -70 -3 -14 -9 -38 -12 -55 -3
-16 -11 -35 -16 -42 -5 -6 -13 -38 -18 -71 -4 -32 -17 -79 -29 -105 -12 -25
-21 -50 -21 -55 0 -6 -9 -29 -20 -53 -11 -24 -20 -53 -20 -65 0 -11 6 -28 13
-38 9 -12 20 -16 38 -11 20 5 31 23 61 98 20 51 41 121 48 157 6 36 15 74 20
85 4 11 18 51 29 89 12 38 24 89 27 115 3 25 12 71 21 101 9 30 25 75 36 100
11 25 29 74 39 110 11 36 25 83 30 105 6 22 14 49 18 60 4 11 12 31 17 44 6
16 8 -15 7 -95 -1 -66 2 -274 6 -464 5 -216 12 -356 19 -374 8 -20 13 -177 15
-490 2 -254 6 -591 10 -751 3 -159 7 -426 8 -593 1 -167 5 -305 10 -308 4 -3
8 -14 8 -25 0 -14 7 -19 29 -19 17 0 33 -4 36 -10 3 -5 17 -10 30 -10 13 0 27
-5 30 -10 4 -6 28 -22 55 -35 27 -14 57 -25 66 -25 10 0 25 -6 33 -14 9 -8 45
-25 81 -39 36 -14 81 -31 101 -38 20 -6 44 -9 54 -5 14 5 16 13 10 44 -3 20
-10 40 -14 45 -4 4 -18 9 -30 12 -13 2 -28 8 -35 12 -6 5 -45 19 -86 32 -41
12 -96 34 -123 47 -26 13 -54 24 -62 24 -8 0 -15 4 -15 9 0 4 -20 16 -44 25
-29 11 -46 24 -49 39 -3 12 -6 171 -7 352 0 182 -3 393 -6 470 -3 77 -6 388
-8 690 -2 303 -7 558 -11 567 -5 13 0 21 22 30 15 7 44 25 64 40 20 15 40 28
44 28 4 0 37 25 73 55 37 31 91 67 120 82 29 14 55 29 58 34 3 5 13 9 23 9 9
0 30 14 46 30 16 17 32 30 36 30 4 0 58 29 119 65 61 36 116 65 123 65 6 0 35
12 63 27 l51 27 79 -26 c43 -15 102 -34 129 -44 28 -9 64 -23 80 -30 17 -7 58
-24 91 -38 34 -14 66 -26 72 -26 6 0 23 -7 39 -15 15 -8 60 -26 98 -40 39 -15
84 -32 100 -40 17 -7 50 -21 75 -30 25 -9 79 -27 120 -42 41 -14 100 -36 130
-50 30 -14 94 -38 142 -54 48 -16 107 -38 130 -48 24 -10 97 -36 163 -59 66
-23 161 -57 210 -77 50 -19 149 -53 220 -76 72 -22 172 -56 223 -75 50 -19
107 -40 125 -48 17 -8 59 -24 92 -36 33 -13 78 -31 100 -40 22 -10 72 -30 110
-44 39 -15 85 -34 103 -42 18 -7 40 -14 50 -14 10 0 34 -9 55 -20 20 -11 41
-20 47 -20 5 0 42 -16 82 -36 40 -19 107 -49 148 -65 41 -17 102 -42 135 -55
33 -14 70 -30 82 -37 12 -7 23 -16 23 -22 1 -5 -11 -18 -26 -27 -16 -9 -37
-17 -46 -17 -10 -1 -18 -5 -18 -9 0 -5 -28 -27 -62 -50 -35 -23 -77 -54 -95
-69 -17 -15 -60 -46 -95 -67 -34 -22 -67 -46 -71 -53 -4 -7 -29 -25 -55 -39
-26 -15 -56 -35 -67 -45 -11 -9 -36 -25 -56 -36 -19 -10 -71 -42 -115 -70 -43
-29 -85 -53 -91 -53 -7 0 -13 -4 -13 -10 0 -5 -15 -17 -32 -26 -18 -9 -48 -30
-66 -45 -18 -16 -37 -29 -43 -29 -6 0 -31 -18 -56 -40 -25 -22 -50 -40 -54
-40 -5 0 -33 -15 -62 -34 -29 -19 -59 -41 -67 -51 -7 -9 -43 -34 -79 -56 -36
-22 -106 -65 -155 -97 -48 -31 -99 -64 -111 -72 -13 -8 -55 -34 -94 -58 -38
-23 -73 -47 -76 -52 -3 -5 -35 -26 -72 -47 -36 -21 -88 -50 -115 -65 -28 -15
-61 -37 -73 -48 -13 -12 -29 -23 -36 -24 -8 -1 -33 -12 -57 -24 -23 -13 -66
-40 -95 -62 -28 -22 -56 -40 -60 -40 -5 0 -25 -13 -45 -30 -20 -16 -46 -31
-57 -33 -11 -1 -39 -15 -62 -30 -24 -15 -45 -27 -49 -27 -3 0 -64 -39 -136
-87 -72 -49 -147 -98 -167 -111 -20 -12 -64 -36 -99 -54 -35 -17 -75 -43 -89
-56 -15 -13 -48 -40 -75 -58 -26 -19 -52 -34 -56 -34 -5 0 -19 -11 -32 -25
-12 -13 -25 -23 -29 -22 -3 0 -17 -5 -31 -12 -14 -7 -34 -22 -46 -32 -11 -11
-47 -35 -78 -54 -32 -19 -62 -35 -66 -35 -4 0 -13 -7 -20 -15 -7 -8 -37 -29
-68 -47 -30 -17 -63 -38 -71 -45 -9 -8 -36 -29 -60 -46 -24 -18 -61 -41 -82
-53 -20 -12 -74 -50 -120 -86 -46 -36 -106 -77 -134 -91 -27 -14 -61 -37 -74
-51 -14 -14 -29 -26 -34 -26 -6 0 -28 -15 -51 -33 -23 -19 -48 -37 -56 -40 -8
-4 -31 -17 -50 -30 -19 -12 -50 -31 -69 -42 -19 -11 -48 -31 -65 -45 -17 -14
-50 -34 -73 -44 -23 -10 -52 -29 -64 -42 -12 -13 -29 -24 -37 -24 -8 0 -29
-13 -47 -29 -18 -16 -60 -43 -94 -59 -33 -17 -68 -36 -78 -42 -10 -5 -29 -15
-43 -20 -14 -6 -34 -16 -45 -23 -11 -7 -50 -31 -85 -54 -36 -24 -76 -51 -90
-60 -14 -10 -34 -26 -44 -35 -11 -10 -28 -18 -38 -18 -10 0 -18 -4 -18 -10 0
-5 -6 -10 -14 -10 -8 0 -27 -11 -43 -24 -15 -13 -38 -26 -50 -30 -12 -4 -38
-25 -57 -46 -20 -22 -40 -40 -45 -40 -5 0 -27 -18 -49 -40 -22 -22 -49 -40
-61 -40 -12 0 -43 19 -69 43 -26 24 -68 60 -93 80 -25 20 -50 37 -54 37 -5 0
-18 8 -29 19 -12 10 -59 45 -106 77 -47 32 -121 85 -165 119 -45 34 -92 68
-105 75 -14 7 -30 19 -37 26 -7 7 -37 27 -65 44 -29 17 -73 46 -98 65 -25 18
-50 34 -57 34 -6 1 -24 12 -40 25 -15 13 -73 47 -128 76 -55 29 -107 58 -115
65 -8 7 -53 34 -100 59 -47 26 -105 57 -130 69 -25 12 -48 26 -51 30 -3 5 -28
19 -55 33 -27 14 -62 32 -79 41 -16 9 -52 31 -79 50 -26 18 -53 33 -58 33 -5
0 -29 15 -53 33 -24 17 -58 41 -76 52 -18 11 -47 28 -64 39 -16 10 -48 32 -70
50 -22 17 -58 43 -80 57 -22 14 -64 40 -93 57 -29 18 -57 32 -61 32 -4 0 -26
14 -49 31 -23 17 -70 60 -104 95 -33 35 -67 64 -74 64 -7 0 -16 -5 -19 -10 -4
-6 3 -25 14 -43 12 -17 28 -48 37 -67 9 -19 31 -48 49 -65 17 -16 62 -50 99
-75 36 -25 97 -66 134 -92 37 -26 87 -62 111 -80 24 -18 51 -38 60 -43 9 -6
30 -19 46 -29 17 -11 39 -28 50 -37 11 -10 52 -33 91 -53 38 -19 76 -42 83
-50 8 -9 20 -16 28 -16 7 0 26 -8 41 -18 15 -11 45 -31 67 -45 22 -14 65 -38
95 -52 30 -14 62 -30 70 -35 8 -5 61 -36 117 -69 56 -33 125 -72 152 -85 27
-14 52 -30 56 -35 3 -5 31 -24 63 -42 31 -18 108 -67 171 -108 63 -42 133 -89
157 -106 23 -16 87 -61 141 -100 54 -38 118 -83 143 -99 25 -15 56 -38 70 -51
14 -13 44 -34 67 -48 24 -13 67 -47 97 -75 30 -29 59 -52 65 -52 6 0 11 -6 12
-12 0 -7 0 -65 -1 -128 0 -63 4 -140 9 -171 5 -31 17 -161 25 -290 9 -129 21
-293 27 -365 5 -73 12 -185 14 -250 2 -66 7 -222 10 -349 4 -126 8 -259 10
-295 2 -36 6 -112 10 -170 3 -58 8 -213 10 -345 3 -132 4 -247 4 -255 -1 -8
-2 -60 -2 -115 -1 -55 3 -170 8 -255 4 -85 9 -184 10 -220 0 -36 6 -78 13 -93
7 -16 12 -35 12 -43 0 -9 5 -24 10 -35 6 -10 13 -70 16 -131 2 -62 9 -150 15
-196 6 -45 16 -85 21 -88 5 -4 14 -2 19 3 6 6 6 88 0 214 -6 112 -17 276 -25
364 -10 106 -17 340 -21 699 -3 296 -8 543 -11 547 -2 4 -9 210 -14 456 -6
246 -15 475 -20 508 -5 33 -17 186 -25 340 -9 154 -20 312 -25 350 -5 39 -9
116 -10 172 0 92 2 104 23 126 12 13 50 50 84 81 34 32 67 58 75 59 7 2 28 16
46 32 18 17 48 39 66 50 18 11 46 29 62 39 16 11 65 43 109 71 44 29 112 69
150 89 39 21 77 46 87 57 9 10 21 19 27 19 6 0 64 32 128 72 65 39 154 91 198
116 44 24 82 47 85 51 3 4 23 18 45 31 22 13 64 42 94 64 30 23 69 50 87 61
18 11 41 27 51 35 10 9 36 26 58 40 22 13 45 30 50 37 6 7 36 28 69 48 32 19
62 35 66 35 4 0 14 8 21 17 8 9 48 41 89 72 41 31 90 63 108 72 18 10 56 35
85 56 29 22 77 57 107 80 31 22 80 55 110 72 30 17 73 45 95 61 22 16 61 39
88 51 26 12 47 25 47 30 0 5 6 9 14 9 8 0 28 11 44 25 17 14 32 25 35 25 3 0
27 15 52 33 26 17 54 37 63 42 10 6 51 32 92 60 41 27 83 54 92 60 9 5 80 46
157 90 78 44 154 87 169 95 16 9 48 30 72 48 24 18 47 32 52 32 4 0 24 11 44
25 20 14 45 25 55 25 11 0 19 4 19 9 0 5 14 14 32 20 17 6 66 32 107 58 42 26
99 64 127 85 28 21 55 38 60 38 5 0 14 8 21 19 6 10 33 29 60 42 26 12 69 38
95 56 26 18 50 33 52 33 3 0 32 19 66 43 35 23 88 59 119 79 31 21 63 41 71
44 8 4 33 21 55 39 22 17 67 49 100 70 33 22 92 63 132 92 40 29 76 53 81 53
4 0 26 15 48 34 21 18 57 43 79 55 22 12 67 37 99 55 33 19 78 48 100 65 23
18 58 45 80 61 21 17 42 30 47 30 5 0 23 13 41 28 18 16 60 48 93 71 33 23 85
58 115 78 30 19 57 39 60 43 3 3 34 24 70 45 36 21 70 38 75 38 6 0 69 -24
140 -53 72 -29 166 -66 210 -82 44 -16 98 -35 120 -43 22 -7 61 -23 88 -35 30
-14 49 -30 52 -44 2 -11 7 -84 9 -161 2 -77 4 -147 4 -155 0 -8 -1 -89 -2
-180 0 -91 3 -221 7 -290 4 -69 7 -132 7 -140 0 -8 -5 -103 -10 -210 -5 -107
-9 -298 -10 -425 0 -126 4 -284 9 -350 4 -66 8 -146 7 -177 -2 -51 -6 -62 -36
-94 -19 -19 -51 -45 -70 -57 -19 -11 -65 -47 -103 -79 -37 -32 -72 -58 -77
-58 -6 0 -27 -15 -47 -34 -21 -18 -53 -41 -72 -51 -19 -9 -44 -26 -55 -37 -12
-11 -38 -31 -58 -44 -20 -13 -45 -32 -55 -42 -10 -10 -34 -29 -53 -43 -19 -13
-58 -44 -87 -69 -28 -25 -75 -64 -102 -88 -28 -24 -79 -65 -113 -90 -34 -26
-80 -60 -104 -77 -23 -16 -59 -45 -80 -63 -22 -18 -83 -66 -136 -107 -53 -41
-101 -75 -106 -75 -5 0 -17 -10 -28 -21 -10 -12 -43 -38 -73 -58 -29 -20 -68
-46 -85 -57 -17 -12 -53 -42 -81 -68 -27 -25 -54 -46 -59 -46 -5 0 -70 -48
-145 -107 -75 -59 -156 -118 -181 -131 -25 -13 -56 -34 -70 -47 -14 -12 -38
-30 -55 -38 -16 -8 -48 -29 -70 -45 -22 -17 -60 -47 -85 -67 -25 -20 -65 -51
-90 -69 -26 -18 -67 -45 -92 -60 -25 -15 -86 -60 -134 -102 -49 -41 -100 -85
-114 -98 -14 -13 -39 -30 -56 -39 -17 -9 -45 -29 -63 -46 -18 -17 -35 -31 -38
-31 -3 0 -22 -12 -42 -28 -20 -15 -43 -31 -52 -37 -9 -5 -42 -28 -75 -50 -32
-22 -72 -47 -89 -56 -16 -9 -48 -26 -70 -38 -22 -11 -49 -26 -60 -33 -10 -7
-81 -55 -157 -105 -76 -51 -143 -93 -148 -93 -5 0 -23 -13 -41 -30 -18 -16
-51 -39 -74 -51 -23 -12 -47 -35 -54 -50 -10 -23 -10 -32 4 -52 9 -14 24 -27
34 -30 15 -4 19 -15 20 -58 0 -30 5 -80 10 -111 5 -31 7 -103 3 -160 -4 -57
-7 -285 -7 -508 0 -223 3 -441 7 -485 4 -44 11 -219 15 -390 5 -170 8 -447 7
-615 0 -168 -4 -417 -7 -555 -4 -137 -7 -376 -8 -530 0 -164 4 -311 11 -355 6
-41 10 -106 9 -145 -2 -57 1 -71 13 -73 12 -2 19 11 29 50 7 29 13 94 13 143
0 50 -1 250 -1 445 -1 195 0 414 1 485 1 72 6 247 10 390 5 165 4 381 -3 590
-7 182 -16 407 -21 500 -5 94 -10 348 -10 565 -1 344 1 399 14 425 13 24 16
60 15 170 0 111 2 139 13 137 7 -1 36 -12 63 -24 28 -12 68 -29 90 -39 22 -9
51 -20 65 -24 14 -4 60 -25 103 -47 44 -22 89 -41 100 -42 12 -1 33 -9 47 -16
14 -8 48 -26 75 -41 28 -14 88 -47 135 -73 47 -25 123 -64 170 -87 47 -22 117
-51 155 -64 39 -12 115 -42 170 -65 55 -23 123 -51 150 -62 28 -11 75 -31 105
-44 30 -13 69 -31 85 -40 17 -9 108 -56 204 -105 95 -49 186 -98 201 -109 16
-11 33 -20 39 -20 6 0 30 -10 53 -22 24 -12 55 -30 70 -40 14 -10 35 -18 45
-18 11 0 28 -9 38 -20 10 -11 22 -20 27 -20 5 0 48 -18 96 -41 48 -22 96 -44
107 -49 11 -4 49 -23 85 -40 36 -18 85 -44 110 -57 25 -13 70 -41 100 -63 30
-22 61 -40 69 -40 7 0 41 -14 75 -31 33 -17 68 -35 76 -40 8 -5 24 -13 35 -18
11 -5 33 -23 48 -40 17 -18 39 -31 52 -31 13 0 26 -4 30 -9 3 -6 34 -31 68
-57 34 -26 68 -55 74 -65 7 -9 24 -20 38 -23 14 -4 25 -11 25 -16 0 -5 18 -19
40 -30 21 -11 49 -20 61 -20 11 0 63 -20 113 -45 51 -25 98 -45 103 -45 6 0
37 -12 69 -26 33 -15 68 -35 79 -45 12 -10 35 -22 53 -25 25 -5 31 -3 27 7 -3
8 -20 24 -38 37 -18 12 -40 22 -49 22 -9 0 -35 16 -58 35 -23 19 -46 35 -51
35 -6 0 -35 17 -66 37 -31 21 -63 43 -72 48 -9 6 -48 28 -86 49 -39 22 -83 50
-98 63 -16 12 -33 23 -39 23 -5 0 -52 30 -104 68 -52 37 -114 82 -137 100 -22
19 -70 49 -107 67 -36 18 -76 36 -90 40 -14 4 -36 17 -50 30 -14 12 -47 34
-75 48 -27 15 -61 31 -75 37 -14 6 -47 24 -75 41 -27 16 -70 39 -95 50 -25 11
-54 24 -65 29 -11 5 -45 19 -75 30 -30 12 -64 29 -75 39 -11 10 -40 26 -64 35
-25 10 -56 25 -70 35 -14 10 -73 42 -131 71 -58 29 -116 60 -130 69 -14 10
-50 29 -80 43 -30 15 -66 31 -80 37 -14 6 -45 23 -70 37 -25 14 -58 31 -75 37
-16 5 -41 18 -55 27 -14 10 -58 29 -99 44 -40 15 -106 42 -145 61 -39 18 -96
43 -126 54 -30 12 -61 21 -67 21 -7 0 -42 13 -76 30 -35 16 -67 30 -71 30 -4
0 -49 20 -99 45 -50 25 -98 52 -107 59 -8 8 -26 17 -40 21 -14 4 -38 18 -53
31 -16 13 -38 24 -50 24 -12 0 -31 7 -41 15 -11 8 -26 15 -34 15 -7 0 -55 21
-105 46 -50 25 -120 57 -155 70 -35 13 -75 32 -90 42 -15 10 -52 31 -82 46
-30 15 -61 34 -69 41 -7 7 -11 21 -8 29 4 9 27 28 53 44 26 15 67 44 93 64 25
21 49 38 53 38 4 0 52 30 105 66 54 36 112 72 128 80 17 8 57 29 90 46 33 18
89 56 123 83 35 28 93 72 130 98 37 26 78 56 92 65 14 9 52 37 85 62 33 24 62
47 65 50 3 3 28 24 56 47 28 23 76 59 106 80 30 21 82 58 114 83 33 25 72 54
88 65 16 11 41 29 56 40 15 11 60 42 101 70 41 27 81 54 90 60 9 5 43 27 75
49 33 21 75 53 94 71 19 18 54 45 78 59 23 14 42 31 42 36 0 6 5 10 11 10 7 0
30 15 53 33 23 18 53 40 67 49 14 9 43 33 64 52 21 20 40 36 42 36 2 0 36 22
76 50 39 27 94 68 122 90 27 23 75 60 106 83 31 23 92 69 135 102 44 34 120
92 169 129 50 38 110 86 135 108 25 21 52 46 62 54 9 9 30 23 47 32 16 9 73
54 126 100 54 46 132 107 175 137 42 30 83 62 90 70 7 8 18 15 26 15 7 0 28
13 46 29 18 15 80 64 138 108 58 43 155 117 217 163 62 47 131 97 155 113 24
15 59 38 78 52 19 13 40 28 45 33 6 4 44 30 85 56 41 27 113 85 160 129 47 43
110 96 140 117 31 21 89 69 130 107 41 38 99 89 129 113 30 25 62 50 71 55 10
6 46 32 81 58 35 27 82 65 104 86 22 21 65 55 95 76 30 21 78 60 107 86 28 27
56 49 61 49 5 0 55 43 113 95 57 52 109 95 114 95 6 0 55 42 111 93 55 50 142
128 194 172 52 44 109 94 127 110 18 17 44 41 58 54 15 14 42 26 65 28 22 2
65 -5 102 -17 34 -12 95 -36 133 -55 39 -18 99 -47 135 -63 36 -16 76 -33 90
-37 14 -4 36 -17 50 -27 14 -11 39 -25 55 -32 17 -7 74 -38 128 -69 54 -32
103 -57 110 -57 7 0 21 -6 32 -13 11 -7 36 -20 55 -27 19 -7 46 -21 60 -31 14
-9 77 -43 140 -76 63 -33 125 -65 138 -71 12 -7 30 -16 40 -20 9 -5 67 -35
127 -67 61 -32 148 -79 195 -106 47 -26 118 -62 157 -79 40 -16 77 -30 83 -30
6 0 46 -17 88 -38 42 -20 79 -39 82 -42 3 -4 31 -16 63 -28 32 -12 78 -35 102
-52 24 -16 52 -30 61 -30 10 0 27 -9 38 -19 12 -11 62 -40 111 -66 50 -26 104
-58 122 -71 17 -13 36 -24 42 -24 5 0 32 -14 59 -31 42 -26 57 -30 103 -27 42
2 55 7 57 21 3 12 -6 21 -27 28 -17 6 -31 14 -31 18 0 5 -19 15 -42 24 -23 9
-40 19 -37 21 2 2 28 6 58 9 29 3 55 7 56 9 2 2 1 8 -3 14 -4 6 -57 16 -118
22 -93 9 -119 16 -160 40 -27 16 -65 39 -84 51 -19 11 -53 29 -75 39 -22 11
-46 27 -54 36 -7 9 -19 16 -25 16 -7 0 -23 11 -36 25 -13 14 -31 25 -41 25
-10 0 -61 20 -113 45 -53 25 -100 45 -105 45 -4 0 -35 13 -67 30 -32 16 -65
30 -71 30 -7 0 -48 18 -90 41 -43 23 -85 47 -93 54 -8 7 -36 24 -62 37 -26 12
-109 54 -185 93 -76 38 -151 79 -168 91 -16 11 -55 31 -85 43 -30 13 -68 31
-85 41 -16 10 -59 33 -95 52 -36 19 -74 39 -85 44 -11 6 -56 29 -100 53 -44
23 -136 69 -205 102 -69 33 -170 82 -225 109 -55 27 -134 61 -175 75 -41 15
-84 30 -95 33 -11 4 -32 6 -47 4 -17 -2 -35 -16 -52 -43 -15 -21 -34 -39 -44
-39 -9 0 -31 -14 -47 -32 -16 -17 -68 -62 -115 -99 -47 -37 -95 -78 -106 -90
-12 -13 -47 -48 -78 -78 -32 -30 -66 -60 -76 -65 -10 -6 -60 -46 -112 -88 -51
-43 -115 -98 -143 -123 -27 -25 -76 -67 -109 -93 -32 -26 -91 -74 -131 -107
-40 -33 -85 -69 -101 -80 -15 -11 -77 -60 -137 -110 -60 -49 -121 -97 -135
-105 -15 -8 -42 -30 -62 -47 -19 -18 -39 -33 -43 -33 -4 0 -38 -28 -75 -63
-37 -34 -94 -85 -127 -112 -33 -28 -64 -53 -70 -57 -5 -4 -26 -20 -45 -36 -19
-15 -58 -42 -86 -60 -28 -18 -59 -41 -69 -52 -10 -11 -22 -20 -27 -20 -4 0
-42 -26 -84 -57 -42 -32 -93 -70 -113 -85 -20 -15 -39 -27 -43 -28 -5 0 -24
-15 -44 -34 -19 -18 -46 -39 -60 -46 -13 -8 -27 -10 -31 -7 -4 4 -6 159 -5
345 1 185 3 648 4 1027 l3 690 30 -3 c16 -2 34 -7 40 -12 5 -4 21 -11 35 -15
14 -4 52 -20 85 -35 33 -16 125 -54 205 -85 80 -31 190 -75 245 -97 55 -22
181 -80 280 -129 99 -49 207 -98 240 -110 33 -11 75 -24 93 -29 18 -4 34 -4
38 1 3 5 10 33 15 62 6 28 14 86 20 127 5 41 16 107 24 145 9 39 23 114 32
168 13 83 14 105 3 138 -8 22 -18 43 -23 46 -5 3 -20 -3 -34 -13 -22 -17 -25
-27 -28 -104 -2 -47 -11 -119 -19 -160 -8 -41 -20 -123 -26 -182 l-13 -108
-26 7 c-14 3 -51 17 -81 30 -30 14 -84 38 -120 55 -36 17 -83 39 -105 51 -22
11 -47 25 -55 32 -8 7 -33 19 -55 26 -22 7 -46 18 -53 23 -8 6 -44 20 -80 32
-37 12 -101 36 -142 54 -41 18 -95 41 -120 50 -25 10 -75 27 -111 39 -37 11
-85 30 -107 41 -23 12 -76 34 -119 49 l-78 27 -6 150 c-4 82 -12 176 -20 209
-7 33 -13 117 -13 186 l0 125 -36 17 c-19 9 -55 28 -80 43 -25 15 -72 36 -105
46 -32 10 -108 43 -168 73 -60 30 -152 69 -206 85 -53 17 -114 40 -137 51 -22
10 -47 19 -55 19 -9 0 -44 11 -80 25 -35 14 -86 37 -114 52 -27 14 -70 37 -95
51 -25 14 -67 36 -94 49 -27 13 -60 32 -75 42 -14 10 -53 36 -86 58 -33 22
-96 58 -140 80 -44 22 -103 45 -130 52 -27 7 -54 16 -60 20 -5 5 -68 27 -139
50 -71 23 -145 51 -165 62 -20 10 -47 19 -61 19 -15 0 -47 13 -72 29 -25 16
-77 41 -115 54 -37 14 -81 32 -98 40 -16 8 -52 26 -80 40 -27 13 -68 30 -90
37 -22 7 -45 17 -52 22 -7 5 -22 8 -35 6 -14 -2 -24 -11 -26 -23 -2 -13 7 -28
25 -41 15 -11 44 -26 63 -34 19 -7 42 -18 50 -25 8 -6 45 -25 82 -43 37 -18
70 -32 72 -32 3 0 47 -21 98 -46 51 -25 113 -52 138 -60 25 -8 54 -19 65 -24
11 -5 45 -19 75 -31 30 -12 81 -27 112 -35 32 -7 77 -22 100 -33 24 -10 59
-24 78 -32 19 -7 79 -34 132 -61 54 -26 121 -66 150 -88 29 -23 85 -56 123
-75 39 -20 93 -48 120 -64 28 -17 73 -41 100 -54 28 -13 61 -27 75 -31 14 -4
41 -13 60 -21 19 -7 60 -23 90 -34 30 -12 64 -23 75 -26 11 -2 36 -8 55 -13
19 -5 80 -32 135 -60 55 -28 125 -62 155 -75 30 -14 66 -28 80 -32 14 -4 53
-21 88 -37 34 -17 62 -36 62 -43 0 -8 -9 -17 -20 -20 -11 -4 -40 -21 -64 -40
-24 -18 -52 -36 -64 -39 -11 -4 -23 -13 -26 -21 -3 -8 -10 -15 -17 -15 -6 0
-30 -16 -53 -35 -24 -19 -48 -35 -54 -35 -6 0 -23 -10 -39 -23 -15 -13 -43
-29 -60 -36 -18 -8 -33 -17 -33 -21 0 -4 -18 -17 -40 -29 -22 -12 -46 -21 -53
-21 -7 0 -75 25 -152 55 -77 31 -174 71 -215 90 -41 18 -105 47 -142 64 -37
17 -91 37 -120 45 -29 8 -83 28 -120 45 -37 17 -80 33 -95 37 -15 4 -62 22
-103 39 -41 18 -92 38 -113 45 -22 7 -51 18 -65 26 -15 8 -35 14 -44 14 -10 0
-32 8 -50 18 -18 10 -80 33 -138 51 -58 18 -118 39 -135 46 -16 7 -65 25 -109
40 -43 14 -104 38 -135 51 -31 14 -67 27 -81 29 -14 2 -57 17 -96 33 -38 16
-86 33 -105 37 -18 4 -47 15 -64 25 -16 10 -48 21 -70 25 -22 4 -49 13 -60 20
-11 7 -72 31 -135 55 -63 24 -126 48 -140 53 -14 6 -34 12 -45 14 -10 2 -34
12 -53 23 -18 11 -40 20 -48 20 -8 0 -36 11 -62 24 -26 12 -78 33 -117 46 -38
12 -92 33 -120 46 -27 12 -76 34 -109 48 -32 14 -67 26 -78 26 -11 0 -43 10
-71 22 -29 11 -57 26 -63 32 -8 8 -13 97 -17 281 -2 149 -1 347 4 440 5 94 11
182 15 198 3 15 10 27 15 27 5 0 9 -13 9 -29 0 -16 9 -60 20 -97 11 -38 30
-100 42 -139 11 -38 52 -164 91 -280 38 -115 84 -237 101 -270 21 -40 38 -61
52 -63 11 -2 27 4 34 13 7 8 12 25 12 38 0 12 -12 47 -26 77 -15 30 -37 84
-48 120 -11 36 -31 87 -44 114 -14 27 -29 65 -34 85 -5 20 -30 106 -54 191
-25 85 -61 202 -80 260 -22 64 -40 142 -46 200 -6 52 -15 99 -20 104 -6 6 -10
20 -10 32 0 13 -4 25 -9 28 -5 4 -22 0 -38 -8 -15 -8 -55 -25 -88 -38 -33 -12
-62 -23 -65 -24 -3 0 -14 -4 -25 -9 -11 -4 -42 -17 -69 -27 -26 -10 -68 -30
-92 -43 -25 -14 -49 -25 -54 -25 -6 0 -10 19 -10 43 0 23 9 77 20 121 11 43
20 88 20 100 0 17 9 24 43 33 23 7 69 15 102 18 33 3 85 13 115 21 30 9 66 20
80 25 14 5 39 12 55 15 17 3 45 14 63 25 18 10 38 19 43 19 6 0 37 19 70 41
32 23 69 56 82 73 13 17 37 56 54 86 17 30 41 83 52 117 12 34 21 77 21 95 0
17 5 57 12 88 8 42 8 84 0 163 -7 77 -16 116 -31 141 -12 18 -21 42 -21 52 0
10 -23 59 -51 110 -28 50 -76 118 -108 151 -42 44 -79 70 -141 100 -47 23
-110 46 -140 52 -30 6 -86 12 -125 14z m-20 -115 c73 -1 138 -7 165 -16 25 -8
63 -23 85 -33 22 -10 66 -41 98 -69 31 -28 70 -70 87 -93 16 -23 40 -62 52
-87 11 -25 27 -67 34 -94 7 -27 11 -53 9 -56 -3 -4 -16 -5 -30 -2 -14 2 -32
-1 -40 -8 -8 -7 -15 -27 -15 -44 0 -18 5 -37 12 -44 7 -7 27 -12 45 -12 29 0
33 3 33 26 0 14 4 23 10 19 6 -3 10 -43 10 -88 -1 -45 -9 -118 -18 -163 -11
-53 -30 -103 -57 -148 -25 -43 -61 -86 -98 -117 -32 -27 -65 -49 -73 -49 -8 0
-14 10 -14 24 0 13 -6 29 -14 35 -8 6 -28 9 -45 6 -17 -3 -64 -12 -103 -20
-40 -9 -76 -21 -80 -28 -4 -7 -8 -21 -8 -31 0 -11 8 -28 17 -38 15 -17 15 -20
3 -28 -8 -5 -38 -12 -67 -16 -29 -3 -92 -3 -140 1 -56 4 -102 13 -126 26 -21
11 -42 17 -46 14 -5 -2 -31 7 -57 21 -27 14 -79 51 -116 81 -41 33 -82 78
-103 113 -19 32 -35 65 -35 74 0 9 -8 31 -17 49 -14 25 -18 56 -18 137 1 74 6
121 19 160 10 30 25 71 33 90 8 19 24 54 35 76 12 23 34 57 50 75 15 19 41 49
57 66 16 18 50 48 75 68 26 19 63 44 83 55 20 10 39 17 43 15 4 -3 13 2 20 10
7 8 20 15 29 15 9 0 34 7 56 15 28 10 76 14 160 13z m173 -1563 c2 -8 -6 -103
-17 -212 -17 -159 -21 -270 -22 -566 l0 -368 -37 -23 c-20 -13 -73 -40 -117
-60 -44 -21 -98 -47 -120 -58 -22 -12 -56 -33 -75 -48 -19 -15 -73 -48 -119
-73 -46 -26 -86 -47 -89 -47 -3 0 -12 -7 -21 -15 -9 -8 -47 -39 -86 -68 -38
-29 -81 -58 -95 -65 -14 -6 -39 -23 -55 -36 -20 -16 -35 -22 -44 -17 -9 6 -14
39 -16 107 -2 55 -7 162 -10 239 -4 77 -9 143 -12 147 -2 5 -3 83 -2 175 1 93
3 204 4 248 2 44 6 130 10 190 3 61 13 128 21 151 13 35 23 44 76 67 33 15 65
27 72 27 6 0 20 6 31 14 11 7 31 17 44 21 13 4 40 14 60 22 20 9 38 15 41 15
3 0 13 7 23 15 9 9 17 13 17 8 0 -4 11 0 25 9 13 9 30 16 36 16 7 0 53 20 103
44 50 24 127 59 171 79 44 20 107 45 140 56 50 16 61 17 63 6z m3864 -2205
c13 0 18 -8 18 -31 0 -17 4 -38 9 -47 5 -9 12 -53 15 -97 3 -44 9 -123 12
-176 5 -84 4 -97 -11 -102 -9 -4 -24 -3 -34 3 -10 5 -38 16 -62 25 -24 9 -69
24 -100 34 -30 11 -84 32 -120 49 -35 16 -83 37 -106 47 -23 10 -39 22 -37 29
3 6 25 25 49 41 25 17 45 33 45 38 0 4 4 7 10 7 5 0 33 15 62 32 29 18 65 40
80 48 14 8 55 34 89 58 35 23 71 42 81 42z"/>
<g>
<path d="M4837 13090 c-8 0 -25 -12 -36 -26 -12 -15 -21 -35 -21 -44 0 -10 11
-25 25 -34 13 -9 33 -16 44 -16 11 0 25 9 31 19 5 11 10 31 10 44 0 13 -8 31
-18 40 -10 10 -26 17 -35 17z"/>
</g>
<g>
<path d="M5152 12969 c-4 0 -17 -4 -29 -9 -13 -5 -23 -18 -23 -29 0 -12 7 -38
15 -59 9 -21 17 -58 18 -82 2 -42 1 -43 -38 -54 -30 -9 -41 -17 -43 -34 -2
-13 2 -30 8 -38 7 -7 24 -14 39 -14 14 0 40 9 56 20 17 11 38 20 47 20 9 0 20
9 23 20 3 11 11 20 16 20 5 0 9 6 9 14 0 8 -6 27 -14 43 -8 15 -22 53 -31 83
-10 30 -24 65 -32 78 -7 12 -17 22 -21 21z"/>
</g>
</g>
</g>
</svg>
