<?xml version="1.0" standalone="no"?>
<!DOCTYPE svg PUBLIC "-//W3C//DTD SVG 20010904//EN"
 "http://www.w3.org/TR/2001/REC-SVG-20010904/DTD/svg10.dtd">
<svg version="1.0" xmlns="http://www.w3.org/2000/svg"
 width="1514.000000pt" height="1136.000000pt" viewBox="0 0 1514.000000 1136.000000"
 preserveAspectRatio="xMidYMid meet">
<metadata>
Created by potrace 1.16, written by Peter Selinger 2001-2019
</metadata>
<g transform="translate(0.000000,1136.000000) scale(0.100000,-0.100000)"
fill="#000000" stroke="none">
<g>
<path d="M2261 9975 c-64 1 -152 -4 -196 -12 -44 -7 -107 -16 -140 -19 -33 -3
-93 -14 -134 -25 -41 -10 -83 -19 -93 -19 -11 0 -51 -15 -91 -34 -49 -23 -90
-52 -127 -91 -30 -32 -69 -71 -87 -89 -18 -17 -57 -67 -87 -111 -30 -44 -69
-109 -86 -145 -17 -36 -38 -72 -46 -81 -8 -8 -16 -29 -18 -45 -2 -16 -9 -48
-15 -71 -6 -24 -11 -64 -11 -90 0 -27 1 -57 0 -68 0 -11 5 -42 10 -70 5 -27
12 -66 14 -87 2 -20 16 -58 31 -85 15 -26 36 -60 46 -75 11 -14 19 -30 20 -35
0 -4 27 -30 59 -58 31 -27 63 -60 70 -72 8 -13 21 -23 31 -23 9 0 34 -15 55
-34 22 -19 66 -49 99 -66 33 -17 74 -39 90 -49 17 -10 39 -20 50 -24 11 -3 47
-15 79 -26 33 -12 72 -21 87 -21 15 0 31 -5 34 -11 4 -6 41 -9 93 -8 48 1 89
0 92 -2 3 -2 7 -48 10 -102 3 -53 1 -97 -3 -97 -5 0 -5 -5 -1 -12 4 -6 7 -32
5 -57 -1 -25 -4 -54 -7 -63 -3 -10 -23 -22 -47 -28 -23 -6 -56 -18 -74 -26
-17 -8 -36 -14 -42 -14 -6 0 -37 -9 -68 -20 -32 -11 -67 -20 -80 -20 -12 0
-37 -9 -55 -19 -18 -10 -58 -24 -88 -31 -30 -7 -64 -19 -75 -26 -10 -8 -41
-17 -67 -20 -26 -4 -52 -12 -56 -18 -5 -6 -12 -24 -16 -41 -4 -16 -12 -55 -18
-85 -7 -30 -15 -57 -18 -60 -3 -3 -12 -50 -19 -105 -7 -55 -15 -113 -18 -130
-2 -16 -7 -59 -10 -95 -3 -36 -9 -69 -13 -75 -5 -5 -11 -57 -15 -115 -4 -58
-11 -123 -15 -145 -5 -22 -12 -80 -15 -130 -4 -49 -13 -135 -21 -190 -7 -55
-20 -140 -29 -190 -8 -49 -17 -121 -21 -160 -3 -38 -10 -84 -15 -101 -5 -18
-9 -36 -8 -40 2 -5 0 -38 -4 -74 -4 -36 -9 -99 -11 -140 -3 -41 -9 -118 -15
-170 -6 -52 -13 -120 -16 -150 -3 -30 -8 -63 -11 -73 -3 -10 -7 -48 -9 -85 -2
-37 -4 -71 -5 -77 -1 -5 0 -58 2 -117 3 -82 7 -112 20 -124 12 -13 20 -14 36
-5 12 6 24 26 27 44 4 18 1 46 -5 62 -6 16 -11 83 -10 150 0 66 2 134 4 150 2
17 9 73 15 125 6 52 13 133 15 180 3 47 8 123 11 170 4 47 11 110 16 140 5 30
11 64 14 75 2 11 9 65 15 120 6 55 14 104 17 109 3 5 7 23 9 40 1 17 5 58 8
91 4 33 8 74 11 90 3 17 7 53 10 80 3 28 10 86 15 130 6 44 15 114 21 155 6
41 15 120 20 175 6 55 14 138 19 185 5 47 13 97 19 111 5 15 8 29 5 32 -2 2 2
10 11 17 13 11 15 9 15 -11 0 -13 2 -91 4 -174 1 -82 6 -202 10 -265 3 -63 8
-155 11 -205 2 -49 6 -135 10 -190 3 -55 8 -203 10 -330 2 -126 6 -264 9 -305
3 -41 8 -111 11 -155 3 -44 10 -154 16 -245 6 -91 13 -187 15 -215 2 -27 7
-167 9 -310 3 -143 10 -294 15 -335 6 -41 10 -95 9 -120 -1 -25 -1 -49 -1 -55
0 -5 7 -73 16 -150 9 -76 19 -202 21 -280 3 -77 8 -162 11 -190 3 -27 7 -102
9 -165 3 -63 8 -146 11 -185 4 -38 8 -77 9 -85 1 -8 5 -26 8 -40 4 -14 12 -74
18 -135 6 -60 12 -140 14 -176 1 -36 7 -81 13 -100 6 -19 13 -61 17 -94 3 -33
8 -82 10 -110 2 -27 11 -117 19 -200 9 -82 18 -184 21 -225 2 -41 7 -138 10
-215 4 -77 8 -142 10 -146 2 -3 7 -66 11 -140 3 -74 6 -138 6 -144 0 -5 -3
-64 -7 -130 -4 -66 -8 -166 -8 -223 0 -57 4 -107 9 -112 5 -4 59 -16 119 -25
61 -9 153 -19 205 -21 52 -3 160 -14 240 -24 80 -11 163 -20 185 -22 37 -3 40
-1 38 22 -1 14 -5 40 -9 58 -6 31 -8 32 -58 32 -28 0 -80 5 -116 10 -36 5
-137 14 -225 20 -88 5 -169 11 -180 14 -11 2 -41 10 -67 16 -26 7 -51 17 -56
24 -6 6 -6 101 0 231 4 121 6 238 3 260 -2 22 -7 72 -10 110 -3 39 -7 88 -10
110 -3 22 -7 96 -10 165 -3 69 -8 150 -11 180 -4 30 -8 75 -11 100 -2 25 -6
63 -8 85 -2 22 -7 87 -10 145 -3 58 -12 141 -20 185 -8 44 -19 121 -25 170 -6
50 -13 106 -15 125 -3 19 -8 64 -11 100 -4 36 -6 73 -6 83 0 9 -3 17 -7 17 -5
0 -8 26 -8 58 0 31 -4 80 -8 107 -3 28 -8 61 -11 75 -2 14 -6 70 -9 125 -2 55
-7 116 -10 135 -3 19 -7 100 -10 180 -3 80 -12 192 -20 250 -8 58 -17 134 -19
170 -3 36 -10 148 -16 250 -6 102 -12 254 -15 338 l-3 154 33 -6 c23 -5 42 -2
57 8 13 7 45 17 72 21 27 4 66 17 86 30 21 13 73 43 116 66 44 23 82 46 85 51
3 5 12 10 20 11 8 2 25 10 39 20 13 9 30 17 37 17 7 0 13 4 13 10 0 5 12 13
27 16 14 4 46 20 69 36 23 15 46 28 51 28 5 0 23 14 41 30 18 17 38 30 44 30
6 0 26 11 44 25 18 14 37 25 43 25 6 0 45 18 86 40 41 22 81 40 89 40 7 0 19
7 26 15 7 8 19 15 27 15 7 0 42 18 76 39 34 22 72 47 85 56 18 13 21 20 11 31
-6 7 -9 21 -5 29 3 9 -1 18 -9 21 -9 4 -39 -5 -68 -19 -29 -13 -58 -32 -66
-40 -7 -9 -18 -14 -25 -11 -6 2 -23 -7 -36 -21 -13 -14 -27 -25 -32 -25 -5 0
-28 -9 -50 -20 -23 -11 -45 -20 -49 -20 -3 0 -40 -19 -80 -42 -41 -22 -98 -56
-127 -75 -30 -19 -88 -55 -130 -79 -42 -25 -90 -52 -107 -60 -16 -8 -40 -20
-51 -27 -12 -7 -28 -18 -35 -24 -8 -6 -54 -32 -103 -57 -49 -26 -98 -48 -110
-49 -12 -2 -41 -10 -66 -18 -25 -9 -62 -22 -83 -29 -21 -6 -41 -9 -44 -6 -4 3
-7 21 -9 39 -1 17 -5 61 -8 97 -3 36 -10 126 -16 200 -5 74 -10 171 -11 215
-1 44 -6 83 -11 86 -7 4 -7 13 0 25 5 11 8 95 6 199 -1 99 -6 263 -10 365 -4
102 -8 212 -9 245 -1 33 -5 96 -8 140 -3 44 -9 202 -12 352 l-7 272 24 14 c13
8 50 21 83 28 33 7 75 21 93 31 18 10 41 18 52 18 10 0 21 4 25 9 3 5 36 19
73 31 37 13 90 33 119 46 28 13 62 25 75 27 13 1 37 10 53 19 17 8 42 18 57
22 15 3 55 19 90 35 35 16 79 33 98 39 19 6 52 13 72 17 l38 6 -6 -63 c-3 -35
-7 -68 -9 -74 -2 -6 -16 -15 -32 -18 -15 -4 -56 -21 -89 -37 -34 -16 -66 -29
-72 -29 -5 0 -45 -12 -88 -26 -44 -15 -82 -32 -86 -38 -4 -6 -8 -7 -8 -2 0 5
-7 3 -15 -4 -8 -7 -15 -9 -15 -5 0 3 -12 -3 -26 -14 -15 -12 -36 -21 -48 -21
-11 0 -27 -4 -35 -9 -8 -5 -15 -22 -17 -37 -2 -15 2 -34 8 -42 7 -8 21 -11 37
-7 13 3 57 21 96 40 40 18 92 39 116 45 24 6 71 24 104 39 33 16 85 36 115 45
30 10 62 20 70 23 8 4 21 5 28 4 8 -1 23 5 33 15 10 9 58 30 105 46 48 15 92
28 98 28 6 0 23 7 38 14 16 8 43 17 60 20 18 3 53 10 78 15 25 5 63 15 85 21
22 6 50 14 61 17 20 4 22 0 27 -54 3 -32 6 -65 5 -73 0 -8 5 -112 11 -230 6
-118 18 -303 27 -410 8 -107 17 -222 19 -255 3 -33 10 -114 16 -180 6 -66 13
-149 15 -185 1 -36 7 -105 12 -155 5 -49 10 -99 11 -110 2 -11 4 -48 6 -82 1
-35 6 -74 9 -87 3 -14 8 -62 11 -108 3 -46 10 -110 15 -142 8 -50 7 -63 -6
-77 -9 -10 -30 -21 -48 -25 -17 -3 -35 -10 -41 -14 -5 -5 -53 -23 -105 -40
-52 -18 -108 -36 -125 -40 -16 -5 -62 -20 -102 -34 -39 -13 -80 -29 -90 -34
-10 -5 -41 -22 -69 -36 -29 -14 -60 -26 -70 -26 -9 0 -25 -6 -33 -13 -9 -7
-47 -25 -86 -40 -38 -14 -82 -29 -97 -33 -16 -3 -28 -10 -28 -14 0 -4 -17 -11
-37 -15 -21 -4 -50 -14 -65 -23 -23 -13 -28 -24 -28 -54 0 -37 0 -37 38 -33
20 2 80 18 134 37 53 19 102 39 110 44 7 6 56 32 109 57 53 26 102 47 108 47
6 0 19 4 29 9 9 5 28 13 42 19 14 6 86 32 160 57 74 26 142 48 150 49 8 1 29
8 45 15 17 7 44 15 60 18 17 4 33 11 37 16 4 7 12 6 22 -2 10 -9 16 -30 16
-60 0 -26 4 -72 9 -102 5 -30 12 -108 16 -174 3 -66 10 -138 15 -160 4 -22 9
-75 9 -118 1 -43 6 -86 11 -95 5 -9 14 -78 20 -152 7 -74 14 -155 16 -180 2
-25 6 -90 8 -145 2 -55 13 -170 24 -255 12 -85 23 -179 26 -208 3 -29 8 -57
11 -62 3 -4 7 -37 9 -72 2 -34 7 -103 11 -153 4 -49 11 -130 16 -180 4 -49 9
-112 11 -140 2 -27 6 -55 10 -61 4 -6 8 -49 9 -95 1 -46 6 -95 11 -109 5 -13
13 -74 19 -135 5 -60 11 -133 14 -162 2 -28 9 -71 14 -95 6 -25 13 -101 17
-169 4 -68 6 -133 6 -143 -1 -11 5 -65 13 -120 8 -56 19 -132 25 -171 6 -38
12 -151 14 -250 2 -99 7 -196 11 -215 5 -19 15 -46 24 -59 14 -22 18 -23 90
-17 42 4 108 7 146 7 39 -1 129 -3 200 -5 72 -3 138 -3 148 0 9 3 17 10 17 16
0 6 -8 28 -17 48 l-18 38 -150 7 c-82 4 -172 6 -200 5 -27 -2 -74 -3 -104 -4
-47 -1 -54 2 -57 19 -2 11 -7 65 -10 120 -3 55 -10 145 -14 200 -5 55 -15 145
-23 200 -9 55 -20 172 -27 260 -6 88 -13 162 -15 165 -2 3 -6 55 -10 115 -4
61 -9 113 -12 117 -2 4 -6 22 -8 40 -3 18 -7 58 -10 88 -3 30 -10 102 -16 160
-5 58 -15 128 -20 155 -5 28 -10 75 -12 105 -1 30 -5 60 -9 65 -3 6 -8 24 -11
40 -4 17 -9 80 -12 140 -3 61 -8 151 -10 200 -3 50 -10 133 -16 185 -6 52 -17
124 -24 160 -8 36 -19 123 -25 194 -6 71 -13 134 -16 138 -3 5 -2 14 3 21 6 7
5 57 -3 127 -6 63 -17 162 -23 220 -6 58 -16 141 -22 185 -7 44 -12 89 -12
100 0 11 -4 79 -8 150 -5 72 -11 151 -14 176 -2 26 -6 57 -9 70 -3 13 -8 65
-11 114 -3 50 -7 108 -10 131 -2 22 -11 88 -19 145 -8 57 -17 145 -20 194 -4
50 -11 140 -16 200 -5 61 -15 157 -20 215 -6 58 -13 119 -15 135 -3 17 -7 82
-10 145 -3 63 -9 167 -15 230 -6 63 -13 164 -16 225 -3 60 -9 146 -14 190 -4
44 -4 84 0 89 5 4 16 -19 25 -53 10 -33 20 -61 24 -61 3 0 7 -15 8 -33 2 -17
9 -54 17 -82 7 -27 30 -95 50 -150 20 -55 36 -107 36 -116 0 -9 7 -22 15 -29
8 -7 15 -24 15 -39 0 -15 6 -35 14 -46 7 -11 21 -56 30 -100 9 -44 25 -126 36
-183 12 -57 21 -120 22 -140 0 -20 5 -45 10 -55 5 -10 14 -44 19 -75 6 -31 12
-85 14 -120 3 -34 9 -71 14 -81 6 -10 10 -35 9 -57 0 -21 7 -84 16 -139 9 -55
21 -129 26 -165 6 -36 14 -72 17 -80 3 -8 7 -24 9 -35 1 -11 4 -37 5 -58 1
-21 6 -40 11 -43 4 -3 8 -16 8 -30 0 -14 5 -34 10 -44 6 -11 11 -46 11 -77 1
-44 6 -65 23 -86 14 -18 28 -26 38 -22 9 4 18 18 21 33 3 15 -3 65 -14 112
-10 47 -25 117 -33 155 -8 39 -22 111 -31 160 -10 50 -25 133 -35 185 -10 52
-23 145 -29 206 -6 61 -18 138 -27 170 -9 32 -20 84 -24 114 -5 30 -19 111
-30 180 -12 69 -23 135 -25 147 -1 12 -6 36 -10 55 -3 18 -13 47 -21 64 -7 17
-15 40 -17 50 -2 11 -11 37 -21 59 -10 22 -29 72 -43 110 -13 39 -28 84 -33
100 -4 17 -13 43 -19 60 -7 16 -18 57 -26 90 -7 33 -34 121 -60 195 -26 74
-49 144 -51 155 -3 11 -9 40 -15 65 -5 25 -12 64 -16 88 -4 34 -10 42 -26 42
-11 0 -49 -13 -84 -30 -34 -16 -69 -30 -77 -30 -8 0 -66 -14 -128 -30 -62 -17
-151 -43 -198 -59 l-85 -28 -7 51 c-4 28 -6 60 -3 72 2 11 17 26 32 33 16 8
39 19 53 26 14 7 39 16 57 19 17 4 36 13 41 19 5 7 12 24 14 40 4 22 1 28 -18
33 -14 4 -30 2 -37 -4 -6 -6 -43 -22 -81 -38 -52 -21 -70 -24 -76 -14 -4 7 -6
20 -3 30 2 9 23 28 45 41 22 13 47 31 56 39 10 9 33 27 52 42 19 14 51 41 70
60 19 19 57 65 84 103 27 37 61 91 75 119 15 28 32 71 40 96 7 25 17 47 21 50
4 3 10 25 14 50 3 25 12 81 20 125 7 44 13 127 12 185 -1 58 -8 125 -15 150
-7 25 -22 77 -33 115 -12 39 -35 90 -51 115 -17 25 -38 53 -48 63 -10 9 -22
17 -27 17 -5 0 -15 7 -22 15 -6 8 -32 26 -56 40 -25 15 -54 28 -66 30 -11 3
-30 11 -42 19 -13 8 -63 22 -112 32 -55 11 -132 17 -204 17 -63 -1 -127 -3
-142 -5 -15 -3 -37 -13 -48 -23 -11 -10 -20 -24 -20 -31 0 -7 11 -25 25 -39
14 -14 29 -25 33 -25 4 0 18 7 30 16 15 10 47 16 100 16 42 1 111 -5 152 -11
41 -7 95 -19 120 -26 25 -7 70 -26 102 -42 31 -15 79 -50 107 -76 28 -26 51
-50 51 -53 0 -3 9 -18 20 -33 10 -16 22 -43 25 -61 3 -18 10 -40 14 -49 5 -9
12 -35 16 -59 4 -24 7 -96 8 -161 0 -69 -5 -140 -13 -167 -7 -27 -17 -53 -21
-59 -5 -5 -9 -23 -9 -40 0 -16 -10 -50 -22 -75 -13 -25 -25 -47 -28 -50 -3 -3
-10 -16 -17 -30 -6 -14 -15 -35 -18 -47 -4 -13 -12 -23 -18 -23 -7 0 -28 -25
-47 -55 -19 -30 -65 -79 -102 -109 -36 -30 -84 -63 -105 -74 -21 -10 -65 -27
-98 -37 -33 -11 -65 -23 -72 -28 -6 -4 -10 -22 -10 -40 2 -30 5 -32 43 -35 38
-3 42 -6 48 -34 3 -16 4 -34 1 -38 -3 -5 -20 -12 -38 -15 -17 -4 -36 -11 -42
-15 -5 -4 -47 -20 -92 -36 -46 -15 -85 -25 -88 -22 -4 3 -6 49 -6 102 0 53 3
101 6 107 4 5 8 30 11 55 2 25 6 50 10 55 3 5 14 9 25 9 11 0 53 14 94 31 63
27 75 36 75 55 0 12 -5 26 -10 29 -6 4 -47 -3 -93 -14 -45 -11 -104 -22 -132
-25 -27 -4 -81 -8 -120 -10 -38 -2 -97 2 -130 9 -33 7 -94 25 -135 40 -41 15
-109 45 -152 67 -42 22 -116 73 -165 113 -48 41 -99 88 -113 106 -14 18 -35
43 -47 56 -13 13 -23 30 -23 37 0 8 -7 19 -15 26 -8 7 -15 19 -15 27 0 8 -7
28 -16 44 -11 23 -16 60 -16 137 0 75 5 122 17 157 10 28 30 78 46 113 15 34
33 62 40 62 7 0 10 3 6 6 -3 4 6 23 20 43 15 20 59 76 97 125 39 48 97 107
129 131 32 24 80 50 110 58 28 8 95 24 147 35 52 12 142 26 200 31 58 5 150
10 205 10 55 1 127 4 160 8 33 3 63 11 67 17 4 6 8 23 8 39 0 21 -5 27 -21 27
-11 0 -30 5 -41 11 -12 7 -74 13 -137 14z"/>
</g>
<g>
<path d="M1891 9470 c-11 0 -32 -10 -46 -22 -18 -16 -27 -35 -30 -65 -4 -35
-1 -43 15 -48 11 -4 20 -11 20 -16 0 -5 15 -9 33 -9 22 0 41 8 55 23 13 13 22
36 22 54 0 18 -10 41 -25 57 -13 14 -33 26 -44 26z"/>
</g>
<g>
<path d="M2766 9290 c-17 0 -37 -4 -44 -9 -7 -4 -17 -23 -21 -42 -3 -19 -5
-44 -3 -57 2 -13 14 -27 28 -33 14 -5 37 -9 52 -9 15 0 36 7 47 16 14 11 19
24 16 52 -1 20 -12 47 -24 60 -13 14 -32 22 -51 22z"/>
</g>
<g>
<path d="M2451 9130 c-11 0 -23 -6 -28 -12 -4 -7 -8 -18 -9 -25 -1 -7 4 -17
12 -24 8 -6 14 -19 14 -29 0 -10 18 -40 40 -66 22 -27 40 -56 40 -66 0 -12
-12 -19 -47 -24 -27 -3 -64 -13 -83 -21 -19 -7 -38 -19 -42 -26 -4 -7 -8 -22
-8 -33 0 -15 8 -24 25 -28 14 -4 35 -1 48 6 12 7 63 19 112 28 84 15 90 18 91
41 0 13 -5 31 -11 39 -7 8 -25 40 -41 70 -16 30 -38 69 -51 85 -12 17 -26 42
-32 58 -7 17 -18 27 -30 27z"/>
</g>
<g>
<path d="M2442 8699 c-31 -1 -84 -5 -117 -9 -33 -4 -85 -8 -115 -9 -30 -1 -66
-7 -80 -14 -17 -8 -25 -21 -26 -40 -1 -15 5 -32 13 -39 10 -8 57 -5 195 15 99
14 185 30 191 36 5 5 7 21 3 35 -6 24 -10 26 -64 25z"/>
</g>
<g>
<path d="M2621 8630 c-26 0 -54 -5 -64 -11 -11 -6 -34 -11 -52 -11 -22 0 -41
-8 -56 -24 l-23 -24 21 -22 c20 -19 26 -20 75 -9 29 6 79 16 111 22 49 10 57
14 57 33 0 12 -5 27 -12 34 -7 7 -32 12 -57 12z"/>
</g>
<g>
<path d="M12933 7829 c-5 -1 -15 -3 -24 -6 -9 -2 -19 -16 -22 -31 -3 -15 -3
-30 0 -34 2 -5 23 -17 46 -27 23 -11 70 -26 104 -35 34 -9 75 -18 90 -20 15
-2 62 -11 103 -21 41 -9 102 -21 135 -26 33 -5 83 -13 110 -19 28 -5 86 -14
131 -19 44 -5 118 -14 165 -21 46 -6 98 -15 114 -20 17 -5 44 -12 60 -15 17
-3 89 -14 160 -26 72 -11 173 -28 225 -37 52 -9 99 -16 104 -16 5 -1 11 -7 14
-13 2 -8 -5 -13 -17 -13 -12 0 -47 -9 -78 -20 -32 -11 -76 -22 -98 -25 -22 -4
-53 -10 -70 -15 -16 -5 -49 -13 -71 -19 -23 -6 -49 -11 -58 -11 -9 0 -31 -6
-49 -13 -18 -8 -36 -15 -42 -16 -5 -2 -17 -7 -25 -11 -9 -5 -46 -11 -84 -14
-38 -4 -74 -3 -80 2 -6 5 -42 14 -81 21 -38 6 -90 14 -115 16 -25 2 -67 9 -95
15 -27 6 -102 14 -165 19 -63 5 -144 14 -180 20 -36 6 -132 20 -214 31 -82 11
-154 24 -160 28 -6 5 -32 10 -58 11 -25 1 -69 8 -96 15 -44 12 -51 12 -73 -4
-20 -16 -22 -21 -11 -44 6 -14 22 -28 34 -30 13 -3 82 -14 153 -25 72 -11 173
-25 225 -31 52 -6 133 -18 180 -25 47 -8 126 -16 175 -19 50 -2 113 -10 140
-16 28 -6 61 -13 75 -15 14 -2 50 -7 80 -10 30 -3 75 -8 100 -11 25 -3 65 -10
90 -16 25 -6 53 -15 64 -20 17 -9 18 -20 12 -162 -4 -83 -9 -164 -11 -181 -2
-16 -6 -48 -9 -70 -3 -22 -9 -60 -15 -85 -5 -25 -15 -103 -22 -175 -6 -71 -13
-143 -14 -160 -1 -16 -8 -64 -15 -105 -7 -41 -13 -81 -13 -89 0 -10 -10 -12
-41 -7 -23 4 -52 8 -66 11 -14 2 -50 11 -80 20 -30 9 -100 27 -155 41 -55 13
-122 29 -150 35 -27 6 -60 18 -73 25 -12 8 -44 19 -70 25 -26 5 -78 16 -117
24 -38 8 -101 21 -140 30 -38 9 -82 22 -99 30 -16 8 -37 15 -47 15 -10 0 -40
5 -68 12 -28 6 -48 16 -44 21 3 6 1 7 -5 3 -6 -4 -22 -1 -34 5 -13 7 -43 16
-68 21 -25 4 -59 10 -77 13 -17 3 -44 10 -58 15 -14 6 -42 10 -61 10 -19 0
-51 7 -72 16 -20 8 -57 20 -82 25 -25 6 -58 12 -75 13 -16 1 -43 10 -60 18
-16 8 -55 21 -85 28 -30 6 -71 16 -91 21 -20 5 -43 9 -51 9 -8 0 -20 -12 -27
-26 -10 -24 -9 -28 11 -43 13 -9 32 -17 43 -18 11 -1 40 -5 65 -8 25 -3 68
-12 95 -20 28 -8 88 -23 135 -34 47 -10 112 -22 145 -26 33 -4 65 -10 70 -15
6 -4 26 -10 45 -13 19 -3 71 -14 115 -24 44 -11 102 -30 129 -41 27 -12 57
-22 67 -22 10 0 33 -8 51 -19 18 -10 69 -26 113 -35 44 -10 130 -29 190 -42
61 -14 124 -31 140 -39 17 -7 55 -23 85 -34 30 -12 68 -21 83 -21 16 0 49 -5
75 -11 26 -6 58 -16 72 -23 14 -8 55 -19 92 -26 37 -7 75 -18 85 -25 16 -12
14 -14 -22 -20 -22 -4 -52 -14 -67 -22 -16 -7 -28 -11 -28 -7 0 4 -6 1 -13 -5
-8 -6 -27 -13 -43 -15 -16 -2 -38 -7 -49 -11 -11 -4 -36 -13 -55 -20 -19 -7
-53 -16 -75 -19 -21 -4 -55 -16 -75 -26 -19 -10 -53 -21 -75 -25 -22 -3 -98
-8 -170 -10 -105 -3 -133 0 -147 11 -9 9 -22 14 -30 13 -7 -1 -53 1 -103 5
-49 4 -103 10 -120 12 -16 3 -66 13 -110 24 -44 10 -111 21 -149 24 -39 3 -90
12 -115 20 -26 8 -71 20 -101 27 -30 7 -71 13 -90 15 -19 1 -55 6 -80 9 -25 4
-63 16 -85 26 -24 12 -70 21 -120 24 -44 3 -123 7 -175 10 -52 3 -124 8 -160
10 -36 3 -84 10 -107 16 -23 6 -49 9 -58 6 -8 -4 -15 -18 -15 -31 0 -14 8 -30
18 -35 10 -5 69 -14 132 -20 63 -6 162 -13 220 -16 58 -3 126 -7 151 -9 25 -2
77 -13 115 -25 38 -11 114 -27 169 -36 55 -8 126 -24 159 -35 32 -12 88 -23
125 -26 36 -3 91 -10 121 -16 30 -6 64 -16 75 -21 11 -6 31 -11 45 -12 14 -1
54 -5 90 -10 54 -7 69 -13 96 -41 29 -32 31 -38 32 -116 0 -46 -6 -171 -14
-278 -8 -107 -19 -242 -24 -300 -6 -58 -13 -175 -16 -260 -3 -85 -7 -160 -9
-167 -3 -8 -28 -6 -92 8 -48 11 -97 23 -108 28 -11 5 -56 12 -100 15 -44 4
-98 11 -120 17 -22 5 -47 13 -55 16 -8 3 -25 5 -37 4 -11 -1 -24 3 -28 8 -3 6
-18 11 -32 11 -15 0 -55 7 -90 15 -35 8 -91 22 -126 30 -34 8 -112 24 -172 35
-61 11 -130 20 -155 20 -25 0 -71 7 -102 14 -32 8 -58 12 -58 10 0 -3 -8 0
-18 5 -10 5 -90 22 -178 36 -87 14 -213 42 -279 61 -66 20 -133 41 -150 48
-16 7 -49 18 -72 23 -29 7 -45 7 -53 -1 -5 -5 -10 -20 -10 -32 0 -12 6 -26 13
-31 6 -6 48 -22 92 -36 44 -15 100 -31 125 -37 25 -6 59 -13 75 -16 17 -3 71
-16 122 -30 50 -14 95 -24 100 -23 4 2 35 -1 68 -5 33 -5 105 -19 160 -33 55
-13 125 -26 155 -28 30 -3 75 -7 100 -11 25 -3 54 -7 65 -9 11 -2 45 -8 75
-14 30 -6 73 -15 95 -20 22 -5 85 -20 140 -34 55 -14 155 -37 223 -51 67 -14
138 -26 157 -26 18 0 37 -4 40 -10 3 -5 18 -10 33 -10 15 -1 38 -7 51 -14 24
-13 24 -14 3 -25 -11 -6 -30 -11 -42 -11 -12 0 -40 -11 -63 -23 -23 -13 -53
-26 -67 -30 -14 -3 -45 -13 -70 -22 -25 -9 -58 -22 -75 -29 -16 -7 -43 -18
-58 -25 -15 -6 -37 -11 -48 -11 -11 0 -51 -12 -87 -27 -37 -14 -69 -29 -72
-32 -3 -4 -17 -14 -31 -23 -15 -9 -30 -13 -35 -8 -5 4 -44 11 -88 14 -43 4
-110 11 -150 17 -39 6 -98 13 -131 15 -33 2 -80 10 -105 18 -25 8 -63 18 -85
22 -22 4 -44 9 -50 9 -5 1 -17 5 -25 8 -8 3 -49 10 -90 17 -41 6 -86 12 -100
15 -14 2 -38 8 -53 14 -16 6 -74 13 -130 16 -56 3 -111 9 -122 12 -11 3 -31 8
-45 10 -14 2 -54 8 -90 13 -36 5 -90 13 -120 18 -30 6 -67 13 -81 17 -14 3
-32 7 -40 9 -8 1 -31 10 -53 19 -21 9 -44 17 -51 17 -8 0 -20 -3 -29 -6 -9 -3
-16 -17 -16 -30 0 -13 9 -28 19 -34 11 -5 31 -11 45 -12 15 -1 26 -6 26 -10 0
-4 13 -8 29 -8 16 0 42 -5 58 -12 15 -6 51 -15 78 -19 28 -4 86 -15 130 -23
44 -9 100 -18 123 -21 24 -3 48 -7 52 -10 5 -3 55 -8 112 -11 57 -3 119 -10
138 -14 19 -5 57 -12 84 -15 27 -3 76 -14 109 -25 33 -11 66 -20 74 -20 7 0
40 -9 73 -20 33 -11 101 -25 152 -30 51 -5 104 -12 118 -15 14 -4 57 -9 95
-11 39 -3 74 -10 79 -14 5 -5 9 -44 9 -87 1 -43 0 -87 -2 -98 -1 -11 -2 -108
-2 -215 1 -107 6 -240 11 -295 6 -55 15 -158 21 -230 6 -71 13 -150 16 -174
l5 -44 -53 8 c-30 4 -64 9 -77 10 -13 2 -29 8 -36 14 -7 6 -16 8 -19 5 -3 -3
-36 4 -72 16 -36 12 -69 19 -72 16 -3 -3 -11 -2 -17 3 -6 4 -42 18 -81 30 -38
12 -83 27 -100 33 -16 5 -53 16 -82 23 -28 7 -56 16 -62 19 -6 4 -30 8 -55 11
-25 2 -75 10 -113 19 -37 8 -113 25 -168 38 -55 12 -102 25 -105 29 -3 4 -21
10 -40 15 -19 5 -39 9 -45 9 -5 0 -15 3 -20 7 -6 3 -28 9 -50 13 -22 4 -46 13
-54 19 -8 6 -15 9 -15 7 -1 -2 -17 -1 -36 3 -19 4 -57 14 -85 22 -27 9 -57 18
-65 21 -8 3 -24 7 -35 9 -11 1 -40 7 -65 12 -25 5 -99 23 -165 40 -66 17 -141
34 -167 37 -27 4 -48 10 -48 15 0 5 -15 12 -32 15 -18 4 -42 12 -53 18 -11 6
-24 12 -30 13 -5 2 -24 8 -42 15 -24 10 -35 10 -46 1 -8 -7 -14 -24 -13 -38 1
-15 8 -30 16 -35 8 -4 31 -14 52 -23 20 -9 42 -16 50 -16 7 0 26 -7 42 -15 16
-9 48 -20 70 -26 23 -5 50 -12 61 -15 11 -2 43 -9 70 -14 28 -6 70 -17 95 -25
25 -8 68 -20 95 -26 28 -5 61 -12 75 -14 14 -2 61 -12 105 -24 44 -11 89 -21
100 -23 11 -2 23 -7 26 -11 3 -5 26 -11 50 -14 24 -3 49 -9 54 -13 6 -4 40
-13 78 -20 37 -7 69 -16 72 -20 3 -5 24 -11 48 -15 23 -4 50 -12 60 -17 10 -5
42 -14 70 -19 29 -5 90 -16 137 -24 47 -8 96 -17 110 -21 14 -4 30 -10 35 -15
6 -4 39 -15 75 -24 36 -9 72 -18 80 -20 8 -2 40 -13 70 -25 30 -13 64 -24 75
-26 11 -2 68 -15 128 -30 59 -14 107 -29 107 -33 0 -3 -27 -24 -61 -46 -33
-22 -66 -43 -72 -47 -7 -4 -34 -18 -62 -30 -27 -12 -61 -33 -75 -45 -14 -13
-30 -23 -36 -23 -6 0 -17 -7 -24 -15 -7 -9 -18 -14 -24 -12 -6 2 -31 -6 -56
-19 -25 -13 -51 -24 -57 -24 -7 0 -13 -4 -13 -9 0 -5 -14 -17 -32 -25 -17 -9
-36 -16 -43 -16 -6 0 -29 -9 -51 -20 -21 -11 -46 -24 -54 -29 -8 -5 -36 -18
-62 -30 -26 -12 -48 -25 -50 -29 -2 -4 -16 -17 -33 -29 -19 -13 -42 -19 -65
-18 -19 2 -53 8 -75 13 -22 6 -51 13 -64 16 -13 3 -40 11 -60 17 -20 6 -40 15
-45 20 -6 5 -21 9 -33 9 -13 0 -54 10 -91 21 -37 12 -72 26 -79 31 -6 5 -28
11 -48 14 -21 2 -47 11 -58 19 -12 8 -28 15 -36 15 -8 0 -33 9 -55 19 -23 11
-66 24 -96 30 -30 5 -73 18 -95 27 -22 10 -44 17 -49 15 -4 -1 -30 5 -56 14
-27 9 -59 17 -72 17 -13 1 -90 19 -173 40 -82 21 -164 45 -182 53 -17 8 -46
18 -65 21 -18 3 -53 12 -78 20 -25 7 -88 28 -141 44 -52 17 -109 33 -125 36
-16 3 -49 12 -74 20 -24 8 -54 13 -67 9 -13 -3 -23 -12 -23 -21 0 -8 5 -24 10
-35 6 -10 19 -19 28 -19 10 0 51 -11 92 -23 41 -13 100 -30 130 -37 30 -7 108
-31 175 -52 66 -21 159 -50 207 -63 48 -14 95 -26 105 -28 10 -2 36 -8 58 -14
22 -6 92 -23 155 -38 63 -15 169 -44 235 -66 66 -22 129 -44 140 -48 11 -5 44
-17 73 -27 28 -10 52 -20 52 -23 0 -4 12 -7 28 -7 15 -1 50 -9 77 -19 28 -9
57 -19 65 -22 8 -3 28 -7 44 -9 17 -3 32 -8 35 -13 4 -5 25 -12 48 -16 24 -4
45 -10 48 -15 3 -4 13 -6 23 -4 9 2 23 0 30 -4 10 -7 13 -51 13 -188 0 -98 0
-260 0 -358 0 -99 2 -183 5 -187 2 -4 7 -67 10 -141 2 -73 7 -142 9 -154 2
-11 1 -43 -4 -72 -4 -28 -4 -53 0 -54 5 -2 5 -52 1 -113 -6 -90 -10 -109 -22
-106 -8 2 -26 6 -40 8 -14 3 -36 10 -50 16 -14 7 -27 14 -30 18 -3 3 -39 15
-80 28 -41 12 -100 31 -130 42 -31 11 -67 21 -80 23 -14 1 -34 6 -45 11 -11 4
-51 21 -88 37 -38 16 -78 30 -90 32 -12 1 -33 7 -47 13 -14 6 -60 25 -102 42
-42 17 -82 31 -88 31 -6 0 -38 13 -73 29 -34 15 -89 38 -122 51 -33 12 -69 26
-80 31 -11 4 -40 16 -65 25 -25 8 -55 18 -67 21 -13 3 -23 8 -23 12 0 4 -20
13 -45 20 -24 7 -49 19 -56 27 -6 8 -15 11 -20 8 -5 -3 -18 0 -30 6 -11 7 -33
14 -47 16 -15 3 -34 11 -42 18 -8 7 -39 22 -69 34 -29 12 -59 22 -65 22 -6 0
-24 7 -39 15 -15 8 -43 17 -63 21 -19 3 -37 10 -40 15 -3 5 -13 9 -22 9 -9 0
-29 6 -43 14 -14 7 -39 16 -55 20 -16 4 -59 23 -96 42 -37 19 -76 34 -87 34
-12 0 -21 4 -21 8 0 5 -17 14 -37 20 -21 6 -51 14 -68 17 -16 4 -46 13 -65 22
-19 8 -49 22 -67 29 -17 8 -35 14 -41 14 -5 0 -15 7 -22 15 -7 8 -22 15 -33
15 -11 0 -41 9 -66 21 -25 11 -62 29 -81 39 -19 9 -61 25 -92 35 -31 10 -64
15 -73 12 -9 -4 -15 -19 -15 -41 0 -29 5 -38 28 -50 16 -8 50 -20 75 -27 26
-6 47 -15 47 -19 0 -4 24 -15 53 -25 28 -9 79 -29 113 -45 33 -15 75 -31 92
-35 18 -3 30 -10 28 -13 -2 -4 8 -8 22 -9 15 0 28 -6 30 -12 2 -6 16 -11 31
-11 15 0 31 -4 37 -8 5 -4 34 -16 64 -26 30 -11 62 -25 71 -32 8 -8 26 -14 38
-14 12 0 32 -6 44 -14 12 -8 42 -21 67 -30 25 -8 68 -24 95 -34 28 -11 73 -28
100 -38 28 -9 86 -31 130 -47 44 -16 89 -33 100 -37 11 -4 25 -8 30 -9 6 -1
17 -9 26 -17 9 -8 33 -18 53 -21 20 -3 36 -10 36 -14 0 -5 3 -8 8 -7 4 1 17
-2 30 -6 12 -4 20 -12 17 -17 -3 -5 1 -6 9 -3 8 3 34 -4 59 -15 25 -12 51 -21
57 -21 5 0 18 -4 28 -9 9 -5 28 -13 42 -19 14 -5 52 -20 85 -32 33 -12 78 -30
100 -40 22 -10 58 -23 80 -30 22 -7 48 -19 57 -27 9 -8 21 -12 26 -9 5 3 51
-12 103 -33 52 -22 115 -45 142 -52 26 -7 47 -17 47 -21 0 -4 9 -8 21 -8 11 0
30 -5 42 -12 12 -6 31 -12 42 -14 11 -1 49 -12 85 -23 36 -12 70 -23 75 -25 6
-2 13 -3 16 -2 4 0 15 -6 25 -15 11 -9 62 -29 114 -44 52 -15 109 -31 127 -35
17 -4 36 -3 41 2 5 5 7 108 4 241 -2 128 -5 275 -7 327 -2 52 -7 136 -11 185
-4 50 -7 164 -5 255 1 91 4 224 6 295 3 110 6 132 21 140 9 6 26 18 36 27 10
10 22 18 26 18 5 0 37 18 71 40 34 22 65 40 69 40 4 0 24 11 44 25 20 14 42
25 49 25 7 0 35 11 63 24 28 14 71 33 96 43 24 10 73 33 108 51 36 17 69 32
75 32 6 0 26 12 46 27 20 16 52 36 71 47 19 10 46 28 60 41 14 12 47 34 74 48
27 15 53 24 57 22 4 -3 9 2 13 10 3 8 16 15 29 15 14 0 30 7 37 15 9 10 10 33
5 77 -3 35 -9 75 -11 91 -2 15 -6 39 -8 55 -3 15 -7 90 -11 167 -4 77 -11 156
-15 175 -5 19 -10 94 -11 165 -1 72 1 195 4 275 3 80 6 162 6 182 1 33 6 41
44 65 23 14 80 40 127 55 47 16 99 35 115 43 17 8 49 18 70 23 22 5 60 18 85
30 25 11 70 28 100 37 30 10 91 31 135 48 44 16 84 33 89 38 6 5 19 9 31 9 11
0 26 9 32 19 8 13 12 72 12 174 0 84 3 189 6 233 4 43 10 102 15 129 5 28 14
106 20 175 6 69 13 195 16 280 4 85 6 165 5 177 0 13 7 24 17 27 9 3 71 8 137
11 66 4 152 13 190 21 39 8 79 19 90 24 11 4 47 18 80 30 33 12 85 29 115 37
30 8 73 17 95 20 21 3 79 27 127 54 48 27 92 49 97 49 5 0 14 7 22 16 7 9 13
46 14 92 1 42 9 122 18 177 9 55 18 138 21 185 4 47 11 114 16 150 6 36 15 92
21 125 5 33 12 137 14 230 4 144 8 172 22 182 9 7 33 16 52 19 20 4 38 10 41
15 3 4 37 13 75 20 39 6 79 13 90 14 11 1 31 7 43 14 13 7 26 10 29 8 2 -3 30
3 60 14 31 10 64 19 74 19 9 0 19 4 21 9 2 6 37 17 78 26 41 9 100 22 130 28
30 7 60 16 67 20 7 4 10 14 6 22 -3 9 1 22 8 31 11 14 10 18 -5 30 -11 7 -23
11 -28 8 -6 -4 -28 -6 -49 -6 -22 1 -64 8 -93 16 -29 9 -71 18 -92 21 -22 2
-50 9 -64 14 -14 5 -74 15 -135 21 -60 6 -132 15 -160 20 -27 5 -77 12 -110
16 -33 5 -64 9 -70 10 -5 0 -17 4 -25 7 -8 3 -33 8 -55 11 -22 3 -78 10 -125
15 -47 6 -112 15 -145 21 -33 5 -107 16 -165 25 -58 9 -114 20 -125 24 -11 5
-36 13 -55 19 -19 6 -66 18 -105 27 -38 9 -86 23 -105 31 -19 8 -43 19 -52 24
-10 6 -21 9 -25 9z"/>
</g>
<g>
<path d="M11590 7753 c-26 4 -42 1 -61 -15 -15 -11 -44 -24 -65 -28 -22 -4
-59 -12 -84 -18 -25 -6 -81 -19 -125 -28 -44 -10 -87 -18 -95 -19 -8 -1 -22
-5 -30 -8 -8 -3 -42 -11 -75 -18 -33 -7 -67 -14 -75 -16 -8 -2 -42 -6 -75 -9
-33 -3 -67 -8 -75 -11 -8 -3 -22 -7 -30 -8 -8 -2 -37 -6 -65 -10 -27 -4 -59
-9 -70 -11 -11 -2 -44 -7 -74 -11 -52 -8 -55 -10 -68 -47 -7 -22 -17 -101 -22
-175 -5 -75 -10 -219 -11 -321 -1 -102 -3 -217 -5 -257 -2 -39 -8 -80 -14 -91
-5 -10 -29 -24 -53 -32 -24 -7 -108 -24 -188 -37 -80 -13 -155 -25 -167 -26
-13 -1 -23 -5 -23 -8 0 -4 -33 -10 -72 -14 -40 -5 -93 -10 -118 -11 -25 -2
-82 -6 -128 -10 l-83 -7 -15 -36 c-13 -30 -16 -82 -15 -296 0 -156 -5 -318
-14 -405 -8 -80 -17 -206 -20 -280 -3 -74 -8 -151 -10 -170 -3 -19 -7 -59 -11
-88 -3 -29 -11 -55 -18 -58 -6 -2 -33 -5 -61 -7 -27 -2 -68 -10 -90 -17 -22
-7 -49 -16 -60 -20 -11 -5 -45 -17 -75 -28 -30 -12 -71 -24 -90 -27 -19 -4
-69 -17 -110 -30 -41 -13 -131 -36 -200 -50 -69 -15 -144 -30 -167 -32 -23 -3
-47 -10 -52 -17 -6 -7 -15 -44 -20 -82 -5 -38 -11 -112 -12 -164 -1 -52 -2
-250 -2 -440 0 -190 4 -384 8 -433 7 -77 6 -90 -10 -107 -10 -11 -25 -20 -34
-20 -9 0 -31 -9 -49 -20 -18 -11 -64 -25 -103 -30 -39 -6 -78 -14 -88 -19 -9
-5 -52 -15 -96 -21 -44 -7 -102 -14 -130 -16 -27 -2 -70 -9 -95 -15 -25 -6
-79 -22 -120 -35 -46 -15 -104 -25 -150 -27 -62 -2 -78 -6 -92 -22 -11 -14
-20 -57 -27 -135 -6 -63 -13 -146 -15 -185 -3 -38 -9 -106 -15 -150 -6 -44
-11 -118 -10 -165 0 -47 0 -103 1 -125 0 -22 -5 -87 -11 -145 -6 -58 -13 -125
-15 -150 -2 -25 -7 -81 -11 -125 -4 -44 -11 -95 -17 -113 -5 -18 -7 -48 -4
-66 5 -27 16 -38 66 -64 32 -18 65 -32 73 -32 8 0 20 -7 27 -15 7 -8 22 -15
35 -15 12 0 30 -9 40 -20 10 -11 25 -20 34 -20 9 0 29 -7 45 -15 15 -8 33 -15
38 -15 5 0 47 -18 94 -40 47 -22 88 -40 91 -40 3 0 33 -13 67 -30 33 -16 73
-40 87 -53 14 -14 35 -28 46 -31 12 -4 27 -13 33 -21 7 -8 20 -15 29 -15 9 0
27 -9 41 -20 14 -11 35 -20 48 -20 12 0 22 -4 22 -9 0 -5 10 -13 23 -16 12 -4
45 -18 74 -31 28 -13 55 -29 58 -34 3 -6 20 -10 37 -10 17 0 39 -7 48 -15 9
-8 27 -16 40 -17 13 -2 34 -13 48 -25 13 -13 40 -25 58 -29 19 -3 37 -10 40
-15 3 -5 14 -9 25 -9 10 0 38 -14 61 -30 22 -17 48 -30 58 -30 9 0 25 -7 36
-15 10 -8 26 -15 35 -15 9 0 22 -7 29 -15 7 -8 20 -15 30 -15 9 0 32 -8 51
-17 19 -9 37 -20 40 -25 3 -5 10 -8 15 -7 5 1 29 -7 54 -19 25 -12 52 -22 60
-22 9 0 21 -5 27 -11 5 -5 44 -28 84 -50 41 -22 93 -49 117 -60 24 -11 51 -17
62 -14 14 4 20 15 20 33 0 15 -6 38 -13 52 -9 18 -19 24 -38 22 -15 -2 -41 9
-67 28 -23 16 -46 30 -52 30 -6 0 -18 4 -28 9 -9 5 -56 28 -104 50 -48 23 -92
41 -97 41 -5 0 -41 16 -80 35 -39 19 -73 35 -75 35 -3 0 -29 11 -58 25 -29 14
-66 34 -83 45 -16 10 -39 19 -49 19 -11 1 -27 7 -35 14 -9 8 -58 29 -108 47
-51 18 -93 36 -93 41 0 5 -5 9 -10 9 -6 0 -41 14 -78 31 -37 16 -76 34 -87 38
-11 5 -45 20 -75 34 -30 13 -72 32 -92 41 -21 9 -38 20 -38 24 0 4 -12 9 -27
10 -15 1 -31 9 -36 18 -5 8 -40 35 -78 60 -38 24 -78 44 -88 44 -10 0 -24 6
-30 14 -7 8 -26 17 -44 20 -18 3 -44 12 -58 20 -14 7 -39 16 -55 20 -16 4 -42
13 -59 21 -16 7 -74 34 -128 60 -54 26 -101 54 -104 62 -3 8 1 70 11 137 9 66
16 142 16 167 0 25 4 70 10 100 5 30 11 149 13 264 3 116 10 233 16 260 6 28
12 82 15 120 2 39 8 100 12 138 4 38 12 67 18 67 6 0 31 -11 55 -25 23 -14 49
-25 57 -25 7 0 29 -9 49 -20 20 -11 43 -20 51 -20 9 0 46 -17 82 -38 37 -22
94 -49 127 -62 33 -12 92 -36 130 -52 39 -16 77 -34 85 -39 8 -5 22 -12 30
-15 8 -3 37 -17 63 -30 27 -13 57 -24 66 -24 9 0 21 -4 27 -9 5 -4 33 -16 62
-25 29 -9 77 -28 107 -41 29 -14 59 -25 65 -25 6 0 36 -13 67 -30 31 -16 64
-30 74 -30 11 0 19 -4 19 -10 0 -5 5 -10 12 -10 7 0 51 -18 98 -41 47 -22 108
-51 137 -65 29 -13 65 -29 80 -36 15 -6 33 -12 40 -14 7 -1 26 -12 42 -23 16
-12 37 -21 48 -21 10 -1 29 -7 43 -15 14 -8 35 -14 46 -15 12 0 27 -6 33 -14
7 -8 24 -17 39 -21 15 -4 41 -12 57 -20 17 -7 57 -23 90 -35 33 -12 76 -30 96
-41 20 -10 42 -19 49 -19 7 0 28 -7 48 -16 21 -9 49 -22 64 -30 14 -8 33 -14
42 -14 9 0 16 -4 16 -10 0 -5 7 -10 15 -10 9 0 38 -11 65 -25 27 -14 58 -25
70 -25 17 0 20 6 20 45 0 33 -5 47 -19 54 -10 6 -21 8 -23 5 -3 -2 -34 12 -69
31 -35 20 -77 39 -94 42 -16 3 -35 10 -41 14 -6 5 -13 7 -16 4 -3 -3 -11 1
-18 10 -7 8 -20 15 -29 15 -9 0 -38 12 -66 25 -27 14 -59 25 -70 25 -11 0 -37
9 -58 20 -20 11 -42 20 -48 20 -6 0 -27 7 -47 16 -21 9 -59 26 -87 39 -27 13
-76 33 -107 44 -32 11 -66 25 -75 29 -10 5 -31 16 -48 24 -16 9 -42 18 -57 22
-15 3 -33 12 -40 19 -7 7 -29 20 -50 30 -20 9 -41 17 -47 17 -5 0 -44 18 -86
40 -42 22 -82 40 -89 40 -7 0 -41 14 -77 32 -35 17 -71 33 -79 34 -8 2 -16 8
-18 14 -2 5 -8 8 -12 5 -5 -3 -34 6 -66 20 -31 14 -61 25 -66 25 -6 0 -26 7
-46 16 -21 8 -50 22 -65 30 -16 8 -35 14 -42 14 -8 0 -20 6 -27 13 -7 6 -49
27 -93 46 -44 18 -102 40 -130 48 -27 9 -57 21 -65 28 -8 7 -31 20 -50 29 -19
9 -68 33 -108 54 l-74 39 44 16 c23 9 75 21 113 27 39 6 93 16 120 21 28 5 64
12 80 14 17 3 46 8 65 12 19 3 42 7 50 9 8 1 35 5 60 9 25 3 51 7 58 7 6 1 12
5 12 10 0 4 9 8 20 8 12 0 33 9 49 21 15 11 45 24 66 29 29 6 80 1 204 -21 91
-17 213 -46 271 -66 58 -19 119 -41 135 -48 17 -7 44 -17 60 -21 17 -4 47 -16
67 -26 21 -11 42 -17 47 -14 5 4 12 2 16 -4 3 -5 17 -10 30 -10 13 0 26 -4 30
-9 3 -6 26 -13 51 -17 25 -3 51 -12 57 -19 7 -7 26 -15 42 -17 17 -3 64 -16
105 -28 41 -12 77 -25 80 -29 3 -4 21 -15 42 -24 20 -9 41 -17 48 -17 6 0 64
-22 129 -49 65 -27 134 -52 152 -56 19 -4 42 -14 52 -23 9 -8 29 -17 43 -18
14 -2 31 -7 37 -13 7 -5 30 -12 52 -16 22 -4 57 -16 77 -26 21 -11 43 -19 50
-19 7 -1 31 -9 53 -20 22 -11 49 -19 60 -20 11 0 37 -9 57 -19 19 -11 39 -17
42 -14 3 4 6 1 6 -5 0 -7 7 -12 16 -12 9 0 32 -7 52 -16 21 -9 50 -23 65 -31
15 -8 42 -19 60 -25 18 -5 47 -13 65 -18 26 -6 34 -5 42 10 7 14 5 20 -7 25
-14 5 -15 8 -4 14 7 5 11 13 7 19 -3 6 -20 18 -38 26 -17 9 -37 16 -44 16 -7
0 -34 10 -61 22 -26 12 -51 21 -55 20 -4 -1 -33 12 -63 28 -30 16 -55 27 -55
24 0 -4 -6 -2 -12 4 -7 5 -28 13 -46 17 -18 3 -45 13 -60 20 -15 8 -49 20 -77
26 -27 7 -56 17 -63 23 -7 5 -43 20 -80 33 -37 14 -82 27 -101 30 -18 3 -61
21 -94 40 -34 19 -85 40 -113 48 -28 7 -60 18 -70 23 -11 6 -39 18 -64 27 -25
10 -59 24 -77 31 -17 8 -36 14 -42 14 -6 0 -39 11 -73 24 -35 13 -124 43 -198
66 -74 23 -159 53 -188 66 -30 14 -66 26 -80 28 -15 2 -36 7 -47 11 -11 4 -38
15 -60 25 -22 10 -67 26 -100 36 -33 9 -87 21 -120 26 -33 5 -87 13 -120 17
-33 5 -72 15 -86 22 -26 13 -26 16 -34 154 -5 77 -9 181 -8 230 0 50 0 158 0
240 0 83 0 182 0 220 -1 39 4 112 11 164 6 51 13 96 16 99 3 2 42 -6 88 -18
46 -12 110 -32 143 -45 33 -13 96 -31 140 -40 44 -9 100 -23 125 -30 25 -8 79
-22 120 -31 41 -9 80 -20 85 -24 6 -5 46 -15 90 -24 44 -9 103 -21 130 -27 28
-6 77 -19 110 -29 33 -10 74 -21 90 -25 17 -4 41 -8 55 -10 14 -1 36 -5 50 -8
14 -3 70 -15 125 -27 55 -11 118 -26 140 -32 22 -6 47 -13 55 -14 8 -2 31 -6
50 -9 19 -4 40 -10 45 -15 6 -4 44 -18 85 -31 41 -12 82 -24 90 -25 8 -1 35
-7 60 -14 25 -7 58 -14 73 -16 15 -2 35 -8 45 -13 9 -4 42 -14 72 -20 30 -7
64 -16 75 -21 11 -4 40 -13 65 -20 25 -7 58 -15 75 -17 16 -2 58 -15 93 -29
35 -14 71 -24 80 -22 11 2 16 14 16 38 0 27 -6 38 -30 51 -16 10 -38 18 -50
18 -11 1 -26 7 -32 14 -7 6 -27 13 -45 14 -18 1 -56 6 -86 12 -30 6 -67 17
-82 25 -16 8 -48 17 -71 21 -24 4 -47 11 -53 15 -5 4 -51 15 -101 24 -49 9
-115 26 -145 37 -29 11 -77 29 -106 39 -29 10 -74 22 -100 25 -26 4 -104 20
-173 36 -69 16 -139 33 -156 39 -17 5 -39 10 -48 10 -10 0 -82 15 -160 34 -77
19 -152 36 -166 39 -14 3 -68 17 -120 32 -52 15 -115 32 -140 37 -25 5 -58 12
-73 14 -16 2 -33 6 -38 9 -5 4 -31 8 -59 10 -27 3 -57 9 -67 14 -10 5 -34 15
-53 23 -19 8 -70 26 -112 39 -43 13 -78 27 -78 30 0 3 44 16 98 28 53 13 106
26 117 29 11 3 24 5 28 4 4 -1 21 5 37 13 17 9 49 20 73 25 23 5 69 18 102 30
33 11 109 32 169 45 105 24 110 24 175 9 36 -9 75 -20 86 -25 11 -4 42 -15 68
-24 27 -8 63 -17 80 -20 18 -2 64 -14 102 -26 39 -11 81 -23 95 -27 14 -3 34
-11 45 -18 11 -6 36 -15 55 -19 19 -4 49 -13 65 -20 17 -7 71 -25 120 -40 50
-15 106 -30 125 -34 19 -4 44 -12 55 -18 11 -5 65 -20 120 -32 55 -12 136 -33
180 -46 44 -14 105 -28 135 -31 30 -4 60 -10 65 -14 6 -4 33 -11 60 -14 28 -4
73 -11 100 -15 28 -4 61 -13 75 -18 14 -6 61 -17 105 -26 44 -8 98 -18 120
-22 22 -3 72 -16 110 -29 39 -13 89 -29 111 -36 23 -7 47 -10 52 -6 6 3 11 23
10 44 l0 38 -87 26 c-47 15 -104 31 -127 37 -22 6 -92 20 -155 31 -63 12 -121
22 -129 24 -8 1 -22 5 -30 9 -8 3 -49 13 -90 21 -41 8 -113 22 -160 31 -47 9
-121 26 -165 37 -44 11 -111 29 -150 40 -38 11 -77 22 -85 25 -8 4 -17 7 -20
8 -3 1 -23 5 -45 9 -22 4 -99 28 -171 52 -72 24 -141 44 -153 44 -11 0 -21 4
-21 9 0 5 -17 13 -37 19 -21 5 -78 22 -128 36 -49 15 -101 28 -115 30 -14 2
-38 8 -53 15 -16 6 -34 11 -41 11 -6 0 -16 4 -21 9 -6 6 -41 18 -80 29 -63 17
-70 22 -68 43 1 13 4 52 7 87 3 35 7 66 10 70 2 4 7 86 11 182 3 96 8 189 10
205 2 17 6 66 11 110 4 44 7 107 7 140 0 33 -1 103 -2 155 -1 52 -2 120 -2
151 1 42 5 58 17 63 8 3 24 1 34 -4 10 -6 52 -17 92 -25 40 -9 100 -28 133
-44 33 -15 101 -40 150 -54 50 -14 128 -33 175 -42 47 -9 94 -18 105 -20 11
-1 52 -10 90 -20 39 -9 79 -21 90 -25 11 -5 36 -13 55 -19 19 -5 69 -19 110
-30 41 -12 100 -26 130 -32 30 -6 64 -13 75 -15 11 -2 51 -9 88 -14 37 -5 100
-16 140 -25 40 -9 106 -23 147 -31 41 -9 93 -20 115 -24 22 -4 78 -17 125 -28
47 -11 137 -30 201 -42 64 -12 134 -28 156 -35 22 -8 62 -16 89 -19 27 -3 99
-12 159 -21 61 -9 114 -21 120 -26 5 -5 21 -9 36 -9 15 0 54 -7 86 -15 32 -8
72 -17 88 -19 17 -2 51 -7 78 -11 l47 -8 0 47 c0 25 -2 46 -5 46 -3 0 -67 9
-142 20 -76 11 -154 24 -173 30 -19 5 -58 10 -86 10 -30 0 -56 5 -62 13 -6 7
-21 14 -34 15 -13 1 -66 9 -118 16 -52 8 -126 22 -165 31 -38 9 -83 18 -99 20
-16 3 -43 9 -60 14 -17 6 -70 17 -117 25 -47 8 -103 22 -124 30 -20 9 -50 16
-65 16 -15 0 -65 10 -111 21 -46 12 -100 23 -119 26 -19 2 -60 10 -91 18 -31
8 -69 15 -84 15 -15 0 -57 7 -93 16 -37 9 -95 25 -129 35 -34 11 -73 19 -86
19 -13 0 -27 3 -31 7 -3 4 -12 8 -19 10 -7 2 -50 13 -97 26 -47 12 -90 26 -97
30 -7 4 -43 10 -80 13 -37 3 -99 15 -138 25 -38 11 -101 30 -140 41 -38 12
-79 27 -90 34 -11 6 -46 20 -77 29 -32 10 -55 22 -52 27 3 5 16 8 27 7 12 -1
38 1 57 4 19 4 56 9 82 11 26 3 52 8 58 11 6 4 86 20 178 36 92 16 188 35 214
43 25 8 57 13 70 12 12 -2 39 -6 58 -11 19 -4 91 -25 160 -47 69 -21 180 -57
247 -79 68 -22 152 -42 188 -46 36 -3 68 -10 71 -14 3 -5 19 -9 35 -9 17 0 42
-6 57 -14 15 -7 54 -19 87 -26 33 -7 65 -16 70 -20 6 -4 51 -16 100 -28 50
-11 124 -23 165 -27 41 -4 134 -20 205 -37 72 -16 162 -33 200 -38 39 -5 115
-15 170 -24 55 -8 116 -17 135 -20 19 -2 73 -11 120 -21 47 -9 111 -23 142
-31 32 -8 71 -14 87 -14 17 0 32 -4 36 -9 3 -6 27 -13 53 -16 26 -3 65 -12 87
-20 22 -7 59 -16 83 -19 l43 -6 -3 46 c-3 44 -5 47 -33 49 -16 2 -48 10 -70
18 -22 9 -53 16 -68 17 -16 0 -36 4 -46 10 -10 5 -42 12 -72 15 -29 4 -56 8
-61 11 -4 3 -35 9 -70 14 -35 5 -130 20 -213 34 -82 14 -184 31 -225 37 -41 6
-93 15 -115 20 -22 6 -71 16 -110 25 -38 8 -77 15 -85 16 -8 0 -20 5 -27 10
-6 5 -41 11 -78 13 -37 2 -83 6 -103 10 -21 3 -50 7 -67 10 -16 2 -68 13 -115
25 -47 11 -103 28 -125 35 -22 8 -67 22 -100 31 -33 9 -69 17 -80 19 -11 2
-54 9 -95 15 -41 7 -84 18 -96 25 -11 7 -72 27 -135 45 -63 17 -139 41 -169
52 -30 11 -88 30 -128 41 l-74 21 7 45 c4 25 9 105 10 176 2 72 4 208 5 304 2
96 7 189 12 208 5 18 10 33 12 33 2 0 28 -9 59 -19 30 -11 58 -17 61 -14 3 4
14 -1 23 -10 10 -8 20 -15 23 -14 3 0 50 -13 105 -30 55 -17 123 -36 150 -43
28 -7 75 -19 105 -26 30 -7 87 -21 125 -32 39 -10 90 -24 115 -31 25 -6 104
-21 175 -32 72 -11 159 -25 195 -29 36 -5 112 -18 170 -29 58 -12 159 -32 225
-46 66 -14 165 -33 220 -41 55 -9 134 -22 175 -29 41 -7 129 -22 196 -34 67
-11 134 -23 150 -25 16 -2 65 -11 109 -20 44 -10 118 -23 165 -31 47 -8 96
-16 110 -19 14 -3 52 -8 84 -11 33 -3 68 -11 79 -16 10 -6 49 -19 86 -29 36
-10 98 -24 136 -32 39 -7 74 -13 79 -13 5 0 11 9 12 20 2 11 5 31 6 45 3 23
-1 26 -42 31 -25 4 -70 11 -100 17 -30 6 -84 20 -119 31 -35 12 -78 21 -96 21
-17 0 -35 3 -39 7 -3 4 -14 8 -24 9 -9 1 -30 4 -47 7 -16 3 -61 8 -100 12 -38
4 -97 14 -130 22 -33 9 -78 17 -100 20 -22 2 -53 8 -69 14 -16 5 -42 9 -57 9
-16 0 -66 9 -112 20 -46 10 -124 24 -173 30 -49 5 -114 14 -144 20 -30 5 -64
12 -75 15 -11 2 -42 9 -70 14 -27 6 -86 17 -130 26 -44 9 -91 17 -105 19 -14
2 -25 4 -25 6 0 1 -22 4 -50 6 -27 2 -81 10 -120 18 -38 8 -119 22 -180 31
-60 9 -140 22 -176 30 -37 8 -76 15 -87 15 -12 0 -23 4 -26 9 -3 4 -25 11 -48
15 -23 4 -47 11 -53 16 -6 5 -38 16 -71 24 -32 8 -93 24 -134 36 -41 11 -82
22 -90 24 -8 1 -37 8 -65 15 -27 6 -73 20 -102 29 -28 9 -51 22 -50 27 1 6 7
9 14 7 7 -2 30 2 51 8 20 6 73 18 117 26 44 9 103 20 132 24 28 4 58 12 65 16
7 5 33 11 58 15 25 4 75 12 113 18 37 6 102 21 145 32 42 12 98 26 124 31 36
7 81 3 196 -16 90 -15 194 -26 263 -26 63 -1 134 -6 159 -12 25 -5 97 -18 160
-29 63 -11 129 -21 145 -24 17 -2 50 -7 75 -11 25 -4 56 -8 70 -9 14 -2 50 -7
80 -13 30 -6 71 -13 90 -16 19 -3 80 -10 135 -16 55 -6 116 -15 135 -20 19 -5
63 -12 97 -14 35 -3 67 -7 72 -10 5 -3 39 -10 76 -15 37 -5 73 -7 81 -4 9 3
13 12 9 21 -3 8 0 19 7 24 10 6 9 12 -6 23 -10 7 -44 17 -75 20 -31 4 -96 16
-146 26 -49 10 -112 19 -140 19 -27 0 -78 7 -112 15 -34 8 -99 17 -145 21 -46
3 -105 12 -132 20 -27 8 -66 14 -85 14 -20 0 -94 11 -165 25 -71 14 -135 24
-143 21 -7 -3 -29 2 -50 10 -26 11 -77 16 -177 18 -78 1 -163 8 -191 14 -27 6
-77 16 -110 23 -33 7 -67 15 -75 19 -8 4 -31 10 -50 13z"/>
</g>
</g>
</svg>
