<?xml version="1.0" standalone="no"?>
<!DOCTYPE svg PUBLIC "-//W3C//DTD SVG 20010904//EN"
 "http://www.w3.org/TR/2001/REC-SVG-20010904/DTD/svg10.dtd">
<svg version="1.0" xmlns="http://www.w3.org/2000/svg"
 width="1418.000000pt" height="1891.000000pt" viewBox="0 0 1418.000000 1891.000000"
 preserveAspectRatio="xMidYMid meet">
<metadata>
Created by potrace 1.16, written by Peter Selinger 2001-2019
</metadata>
<g transform="translate(0.000000,1891.000000) scale(0.100000,-0.100000)"
fill="#000000" stroke="none">
<g>
<path d="M8532 18163 c-151 1 -274 1 -275 0 -2 -1 -41 -4 -87 -8 -47 -3 -112
-7 -145 -10 -33 -2 -112 -6 -175 -10 -63 -3 -169 -10 -235 -15 -66 -6 -149
-12 -185 -14 -36 -3 -101 -7 -145 -10 -44 -4 -123 -11 -175 -16 -52 -5 -127
-11 -166 -13 -39 -2 -75 -6 -80 -9 -5 -4 -40 -7 -79 -9 -38 -2 -74 -6 -80 -10
-5 -4 -50 -12 -100 -18 -49 -6 -119 -16 -155 -22 -36 -6 -76 -11 -90 -11 -14
0 -31 -4 -37 -10 -7 -6 -20 -8 -28 -4 -9 3 -23 2 -33 -3 -9 -5 -51 -14 -92
-20 -41 -6 -93 -12 -115 -13 -22 -1 -42 -5 -45 -10 -3 -4 -48 -15 -100 -23
-52 -9 -104 -18 -115 -20 -11 -2 -47 -11 -80 -21 -33 -9 -76 -20 -95 -24 -19
-5 -60 -13 -90 -19 -30 -6 -65 -13 -78 -16 -12 -2 -26 -6 -31 -10 -5 -3 -22
-7 -38 -9 -15 -2 -55 -13 -88 -24 -33 -12 -100 -33 -150 -48 -49 -15 -100 -34
-112 -42 -12 -7 -27 -11 -33 -7 -5 3 -10 2 -10 -2 0 -5 -8 -9 -17 -10 -10 0
-45 -10 -78 -22 -33 -12 -67 -25 -75 -28 -8 -3 -17 -7 -20 -8 -3 -1 -13 -5
-22 -9 -9 -4 -22 -8 -30 -10 -7 -1 -19 -5 -25 -9 -7 -5 -35 -15 -63 -23 -28
-8 -80 -29 -116 -45 -36 -17 -75 -31 -87 -33 -12 -1 -38 -9 -57 -18 -19 -8
-44 -19 -55 -23 -11 -5 -24 -9 -30 -10 -5 -1 -37 -14 -70 -30 -33 -15 -68 -27
-77 -26 -10 1 -18 -2 -18 -7 0 -5 -20 -15 -45 -22 -25 -7 -45 -17 -45 -21 0
-5 -7 -9 -15 -9 -9 0 -35 -9 -57 -20 -23 -11 -48 -20 -55 -20 -7 0 -39 -13
-70 -29 -32 -17 -80 -40 -107 -52 -28 -11 -67 -27 -88 -35 -20 -7 -54 -24 -75
-38 -21 -15 -43 -26 -50 -26 -7 0 -13 -4 -13 -10 0 -5 -9 -10 -19 -10 -11 0
-22 -4 -26 -9 -3 -6 -18 -16 -33 -24 -15 -7 -36 -18 -47 -24 -11 -6 -51 -26
-90 -44 -38 -19 -87 -48 -110 -64 -22 -17 -60 -42 -85 -57 -25 -14 -63 -42
-85 -62 -22 -20 -57 -53 -78 -74 -21 -20 -51 -53 -67 -72 -16 -19 -41 -49 -55
-66 -14 -18 -25 -37 -25 -43 0 -7 -7 -14 -15 -17 -9 -4 -14 -11 -13 -18 1 -6
-5 -25 -15 -42 -9 -18 -21 -51 -27 -75 -7 -24 -15 -64 -20 -89 -5 -25 -9 -82
-9 -128 -1 -46 4 -127 10 -180 6 -53 19 -122 29 -152 10 -30 28 -75 40 -100
11 -25 31 -61 43 -82 12 -20 45 -62 72 -94 28 -32 78 -86 112 -120 34 -34 104
-93 156 -132 51 -39 99 -78 107 -86 7 -9 18 -16 26 -16 7 0 18 -9 24 -20 6
-11 16 -20 24 -20 7 0 30 -15 52 -33 21 -19 44 -36 49 -38 6 -2 44 -26 85 -54
41 -27 100 -62 130 -77 30 -15 69 -37 85 -47 17 -11 41 -26 55 -34 14 -8 50
-27 80 -43 30 -16 57 -32 60 -35 3 -3 21 -13 40 -21 19 -9 60 -27 90 -40 30
-14 67 -28 81 -31 15 -4 30 -14 33 -23 3 -9 -3 -28 -14 -44 -11 -15 -20 -31
-20 -35 0 -4 -8 -19 -19 -33 -10 -15 -28 -58 -41 -97 -12 -38 -26 -88 -31
-110 -5 -22 -15 -78 -22 -125 -7 -50 -9 -105 -5 -135 4 -27 8 -66 10 -85 1
-19 5 -42 9 -50 4 -8 12 -28 19 -45 7 -16 16 -38 21 -47 5 -10 9 -26 9 -36 0
-11 13 -38 30 -60 16 -23 30 -44 30 -47 0 -2 28 -43 63 -91 34 -47 74 -104 88
-126 15 -22 31 -43 36 -47 5 -3 19 -20 31 -38 12 -17 50 -62 85 -99 34 -37
125 -130 202 -206 77 -77 181 -170 230 -208 50 -38 101 -80 115 -93 14 -13 38
-30 52 -38 15 -8 78 -45 140 -83 62 -38 142 -85 178 -104 36 -19 112 -60 170
-89 58 -30 119 -63 135 -73 17 -10 41 -21 55 -25 14 -4 33 -14 43 -23 9 -8 17
-12 17 -9 0 3 36 -9 81 -28 44 -19 88 -35 96 -35 9 0 22 -8 29 -17 7 -10 14
-28 14 -40 0 -12 5 -25 10 -28 6 -3 10 -13 10 -21 0 -8 11 -31 25 -52 13 -20
62 -76 108 -124 46 -49 89 -88 95 -88 7 0 12 -4 12 -8 0 -5 21 -24 48 -43 26
-18 67 -52 92 -74 25 -22 63 -50 85 -60 22 -11 54 -29 70 -41 17 -11 50 -29
75 -39 25 -10 68 -28 95 -40 28 -12 82 -32 120 -45 39 -12 81 -28 95 -35 14
-7 41 -16 60 -20 19 -4 41 -11 50 -16 8 -4 51 -12 95 -18 44 -6 113 -17 152
-24 40 -7 76 -16 80 -20 4 -4 8 -60 10 -125 2 -64 5 -139 7 -167 2 -27 8 -60
11 -73 8 -23 7 -23 -51 -18 -33 3 -99 8 -149 11 -49 4 -175 8 -280 10 -104 2
-265 0 -358 -4 -148 -6 -169 -9 -185 -26 -10 -11 -27 -55 -37 -98 -10 -43 -22
-80 -27 -83 -4 -3 -8 -13 -8 -23 0 -10 -14 -49 -31 -87 -20 -44 -34 -91 -36
-129 -3 -33 -9 -64 -14 -69 -5 -6 -9 -17 -9 -25 0 -9 -7 -29 -15 -45 -9 -16
-20 -46 -24 -65 -5 -20 -21 -83 -36 -141 -15 -58 -35 -130 -45 -160 -10 -30
-21 -77 -24 -105 -2 -27 -10 -72 -16 -100 -6 -27 -20 -97 -31 -155 -11 -58
-24 -130 -28 -161 -5 -31 -14 -73 -21 -93 -6 -21 -10 -47 -7 -58 3 -11 2 -44
-3 -72 -4 -28 -13 -90 -20 -138 -7 -48 -17 -93 -23 -101 -9 -11 -62 -18 -212
-27 -112 -7 -465 -14 -805 -16 -471 -2 -636 -7 -746 -19 -77 -9 -260 -20 -405
-24 -165 -6 -298 -15 -354 -25 -49 -9 -135 -26 -190 -37 -55 -12 -111 -23
-125 -26 -14 -2 -61 -19 -105 -37 -44 -19 -127 -54 -185 -80 -58 -26 -125 -57
-150 -70 -25 -13 -65 -35 -90 -48 -25 -13 -70 -41 -102 -61 -31 -20 -72 -56
-91 -79 -19 -24 -46 -66 -60 -93 -14 -28 -32 -80 -42 -117 -10 -43 -15 -88
-11 -125 3 -32 10 -74 15 -93 6 -19 18 -51 26 -70 9 -19 20 -42 26 -50 5 -8
20 -35 32 -60 13 -25 35 -64 50 -87 15 -24 27 -45 27 -48 0 -3 21 -33 48 -67
26 -33 83 -100 127 -149 44 -49 110 -114 146 -146 36 -32 81 -70 100 -84 19
-15 66 -48 104 -74 39 -26 99 -62 135 -81 35 -19 67 -38 70 -42 3 -4 37 -23
75 -41 39 -19 111 -57 160 -85 50 -27 110 -60 135 -74 25 -13 52 -30 60 -36 8
-7 73 -42 144 -77 70 -35 131 -70 134 -78 3 -8 -2 -19 -12 -25 -10 -6 -50 -36
-90 -66 -40 -30 -97 -75 -127 -100 -29 -25 -105 -97 -169 -160 -64 -63 -142
-150 -175 -194 -33 -43 -72 -97 -87 -120 -14 -22 -31 -46 -36 -52 -5 -5 -18
-35 -28 -65 -14 -40 -19 -80 -18 -159 0 -58 7 -123 13 -145 7 -22 21 -58 31
-80 10 -22 29 -65 44 -95 14 -30 31 -64 38 -75 7 -11 15 -22 18 -25 3 -3 32
-45 65 -94 33 -49 96 -127 140 -172 44 -46 94 -94 112 -106 17 -13 67 -48 110
-78 43 -30 118 -73 166 -97 49 -24 133 -61 186 -83 54 -22 101 -40 105 -40 4
0 55 -20 114 -45 59 -24 166 -65 237 -91 72 -26 182 -66 245 -89 63 -23 212
-75 330 -115 118 -39 235 -78 260 -85 25 -7 97 -28 160 -45 63 -17 130 -35
149 -40 19 -5 40 -15 49 -23 13 -13 8 -19 -39 -46 -30 -17 -82 -45 -117 -63
-58 -30 -63 -35 -60 -63 2 -23 9 -31 27 -33 14 -2 45 6 70 19 25 13 75 42 111
66 36 24 79 54 96 68 29 24 31 24 85 10 30 -7 101 -26 159 -41 58 -14 134 -33
170 -40 36 -8 101 -21 145 -29 44 -8 120 -22 170 -32 49 -9 106 -17 126 -19
21 -2 99 -12 176 -23 76 -11 201 -26 278 -35 77 -9 212 -23 300 -31 88 -9 196
-23 240 -31 44 -8 107 -19 140 -25 33 -6 103 -19 155 -30 52 -11 111 -24 130
-29 19 -5 70 -17 113 -26 43 -9 80 -20 82 -25 3 -4 -18 -22 -46 -39 -37 -25
-49 -38 -47 -54 2 -12 14 -24 29 -30 22 -7 35 -2 96 43 39 28 82 51 95 51 14
0 51 -9 84 -19 32 -11 97 -29 144 -41 47 -12 143 -37 215 -57 71 -20 152 -44
180 -54 27 -10 84 -31 125 -47 41 -16 125 -57 185 -92 61 -34 128 -73 150 -85
22 -13 38 -27 36 -32 -2 -4 -29 -19 -60 -32 -31 -13 -99 -39 -151 -58 -52 -19
-142 -50 -200 -69 -58 -19 -118 -39 -135 -44 -16 -5 -129 -35 -249 -65 -120
-31 -226 -58 -235 -60 -9 -1 -38 -6 -66 -10 -27 -4 -62 -8 -78 -10 -15 -2 -31
-6 -36 -9 -5 -3 -53 -13 -107 -21 -55 -9 -144 -22 -199 -31 -55 -8 -107 -17
-115 -20 -8 -3 -62 -12 -120 -20 -58 -9 -130 -19 -160 -24 -30 -4 -68 -10 -85
-13 -16 -3 -50 -9 -75 -12 -25 -4 -54 -9 -65 -11 -11 -3 -74 -11 -140 -19 -66
-8 -138 -17 -160 -19 -22 -3 -65 -8 -95 -11 -30 -3 -73 -8 -95 -10 -22 -3
-110 -11 -195 -19 -85 -8 -198 -17 -250 -21 -52 -3 -114 -10 -137 -16 -23 -5
-52 -8 -65 -8 -13 1 -59 -1 -103 -4 -44 -4 -129 -9 -190 -13 -60 -3 -113 -8
-117 -11 -4 -2 -207 -6 -450 -8 -244 -2 -591 -7 -773 -11 -181 -4 -346 -8
-365 -9 -19 -1 -46 -5 -60 -8 -14 -4 -67 -9 -119 -11 -51 -3 -128 -13 -170
-22 -42 -9 -107 -26 -146 -39 -38 -13 -95 -34 -125 -48 -30 -13 -64 -28 -75
-32 -11 -5 -23 -9 -27 -9 -4 -1 -36 -23 -71 -49 -35 -27 -88 -76 -118 -110
-30 -34 -71 -80 -92 -102 -21 -22 -40 -50 -44 -63 -3 -13 -3 -50 0 -82 3 -33
13 -74 22 -92 9 -18 24 -55 32 -83 8 -27 23 -59 33 -70 10 -11 27 -39 39 -62
11 -23 21 -47 21 -53 0 -5 13 -28 29 -51 17 -22 54 -68 83 -102 29 -34 87 -96
128 -137 42 -41 89 -85 105 -98 17 -12 54 -38 83 -57 30 -19 57 -35 61 -35 3
0 18 -8 31 -17 13 -10 52 -27 85 -39 33 -12 93 -33 133 -48 41 -14 86 -26 101
-26 14 0 42 -4 61 -10 19 -5 156 -23 305 -40 148 -16 313 -34 365 -39 52 -6
122 -13 155 -15 33 -3 134 -9 225 -13 91 -5 334 -8 540 -7 206 0 409 3 450 6
41 4 131 14 200 23 69 9 139 18 155 21 17 2 39 6 51 9 11 2 61 7 110 10 49 4
96 9 104 12 8 3 69 14 135 25 66 11 131 21 145 22 14 2 45 6 70 10 25 5 70 15
100 23 30 8 69 17 85 19 17 2 68 13 115 24 47 11 110 27 140 35 30 7 126 28
212 45 87 17 170 33 185 35 16 2 40 8 55 14 14 5 55 15 90 21 34 6 113 22 173
37 61 14 142 36 180 48 39 13 95 29 125 35 30 7 73 17 95 23 22 6 44 14 49 19
6 4 21 8 34 8 13 0 54 11 90 25 37 14 92 35 122 46 30 11 64 24 75 28 11 5 23
8 26 7 4 0 15 6 25 15 11 9 31 19 47 23 15 3 27 11 27 16 0 6 5 10 11 10 6 0
27 8 47 17 21 9 39 20 42 24 3 4 28 18 55 31 28 14 68 35 90 48 22 12 60 34
85 47 24 13 51 30 60 37 8 7 35 24 59 37 25 13 94 56 155 96 61 39 135 89 165
110 30 21 73 56 96 78 23 23 48 54 57 70 8 17 22 44 30 60 9 17 21 46 26 65 6
19 14 67 18 106 4 43 2 93 -6 130 -7 32 -19 75 -27 94 -8 19 -19 42 -24 50 -5
8 -12 22 -16 30 -4 8 -9 17 -13 20 -3 3 -35 37 -70 75 -35 39 -91 99 -125 135
-35 36 -102 101 -150 145 -48 44 -98 86 -110 94 -13 8 -26 22 -28 31 -3 12 16
27 72 56 41 21 90 49 109 61 18 13 36 23 39 23 3 0 29 14 57 32 28 17 69 43
91 57 22 14 46 32 53 39 7 6 22 12 33 12 11 0 22 7 25 15 4 9 17 21 29 28 13
7 51 37 86 67 35 30 81 71 104 91 22 20 51 44 64 55 14 10 36 32 50 48 14 16
39 41 54 55 16 14 41 39 55 54 15 16 42 52 60 80 17 29 42 72 53 96 18 38 20
55 15 110 -4 36 -8 75 -10 86 -1 11 -8 30 -14 42 -7 12 -12 31 -12 43 0 12 -9
34 -19 49 -11 15 -23 45 -27 66 -4 22 -24 65 -44 96 -20 30 -50 70 -66 88 -16
18 -73 69 -126 114 -54 44 -98 84 -98 89 0 4 -4 8 -10 8 -5 0 -36 17 -69 38
-32 21 -78 54 -101 72 -23 18 -78 52 -123 76 -45 24 -111 58 -147 75 -36 17
-83 40 -106 50 -23 11 -45 19 -49 19 -4 0 -47 18 -95 40 -49 22 -109 45 -134
51 -26 6 -49 15 -52 20 -3 5 -15 9 -27 9 -12 0 -128 35 -257 78 -129 43 -309
102 -400 131 -91 29 -194 63 -230 76 -36 13 -78 27 -95 31 -16 3 -79 21 -140
40 -60 18 -128 38 -150 43 -22 6 -60 16 -85 24 -25 7 -56 18 -70 24 -14 6 -41
13 -60 17 -19 3 -40 10 -46 14 -8 5 -14 104 -18 307 -4 165 -9 334 -10 375 -2
41 -8 152 -12 245 -5 94 -8 181 -8 194 1 13 4 137 8 275 3 138 8 341 11 451 3
110 6 240 6 288 0 61 3 89 12 92 6 2 55 17 107 33 52 17 122 36 155 42 33 7
105 27 160 45 55 18 116 36 135 39 19 4 44 11 55 15 11 5 38 14 60 20 22 7 49
16 60 20 11 5 47 16 80 26 33 10 89 31 124 47 35 15 82 33 104 39 22 6 63 21
91 33 28 13 74 31 101 40 28 10 91 37 140 60 50 23 113 53 140 66 28 13 52 26
55 29 3 3 35 21 71 39 36 18 97 52 135 77 38 24 88 58 111 75 23 16 44 30 46
30 2 0 28 21 57 48 29 26 86 79 127 119 40 39 73 75 73 80 0 4 14 22 30 40 17
18 30 36 30 42 0 5 6 16 13 23 7 7 32 48 55 91 22 42 39 77 35 77 -3 0 -1 6 5
13 5 6 16 37 25 67 8 30 20 100 27 156 6 55 10 128 8 162 -3 34 -8 65 -11 69
-4 3 -7 16 -7 28 0 12 8 29 18 37 9 9 33 25 52 36 19 10 75 42 124 71 49 28
92 51 96 51 4 0 28 18 53 40 25 22 62 47 83 56 20 8 72 41 116 72 44 31 96 68
116 81 21 13 71 49 112 80 41 30 98 73 125 96 28 22 52 42 55 45 3 3 17 13 32
23 15 9 54 49 88 89 34 40 69 82 79 93 9 11 25 34 36 50 11 17 25 39 32 50 6
11 30 58 53 104 23 47 47 112 55 145 7 34 16 93 21 131 4 39 7 124 7 190 0 66
-5 147 -12 180 -7 33 -17 65 -22 71 -5 6 -11 25 -13 41 -2 17 -12 44 -22 59
-10 16 -29 49 -42 74 -12 25 -33 59 -47 75 -13 17 -48 56 -77 89 -29 32 -82
88 -118 125 -36 36 -92 89 -125 116 -33 28 -62 52 -65 55 -3 3 -25 21 -50 40
-25 19 -52 40 -62 45 -9 6 -61 40 -115 76 -54 37 -123 81 -153 98 -30 17 -145
75 -255 130 -110 54 -258 126 -328 160 -71 33 -134 61 -141 61 -6 0 -20 6 -31
13 -11 8 -78 34 -150 58 -71 24 -131 47 -133 52 -2 4 -18 7 -35 7 -18 0 -50 9
-71 21 -21 11 -43 18 -49 16 -7 -2 -57 11 -112 30 -55 18 -116 38 -135 44 -19
5 -51 16 -70 23 -19 7 -75 26 -125 41 -49 15 -135 43 -190 60 -55 18 -136 45
-180 59 -44 14 -89 27 -100 29 -11 2 -32 9 -48 15 -15 7 -55 21 -88 31 -33 11
-77 23 -97 27 -20 4 -45 11 -56 16 -10 5 -55 20 -100 33 -44 12 -92 25 -106
28 -18 5 -28 17 -37 46 -7 23 -13 48 -13 56 0 9 -5 26 -12 38 -7 12 -13 28
-14 35 -1 6 -12 32 -24 57 -12 25 -26 45 -31 45 -5 0 -9 8 -9 18 0 10 -8 27
-17 38 -10 10 -31 37 -48 59 -16 22 -52 63 -80 91 -27 28 -72 76 -98 106 -29
32 -62 60 -85 68 -20 7 -55 25 -77 40 -22 15 -56 32 -75 38 -19 6 -72 24 -117
40 -45 16 -85 27 -87 24 -3 -3 -11 0 -18 6 -8 6 -45 16 -83 22 -39 7 -92 18
-120 26 -33 9 -119 15 -250 17 -110 2 -252 -2 -315 -8 -63 -7 -144 -22 -180
-34 -36 -13 -83 -32 -105 -43 -22 -11 -74 -38 -115 -61 -41 -22 -95 -51 -120
-64 -24 -13 -47 -28 -51 -35 -5 -8 -15 -8 -36 0 -15 6 -44 14 -63 17 -19 4
-48 13 -65 20 -16 7 -66 24 -110 38 -44 14 -96 28 -115 32 -19 4 -48 14 -65
23 -16 8 -45 16 -62 18 -18 2 -48 10 -65 18 -18 8 -55 19 -83 25 -27 6 -99 25
-160 41 -60 17 -128 35 -150 41 -21 5 -44 14 -50 18 -5 5 -37 16 -70 26 -33
10 -73 25 -90 33 -16 8 -52 21 -80 27 -27 7 -66 19 -85 26 -19 7 -58 23 -87
35 -28 13 -83 33 -122 44 -39 12 -74 26 -77 31 -3 5 29 46 72 92 42 45 91 96
108 112 18 17 50 46 72 65 22 19 78 67 125 106 46 39 129 105 185 147 56 42
108 77 117 77 8 0 17 4 19 8 2 4 19 20 39 35 20 15 43 27 52 27 10 0 17 5 17
10 0 6 4 10 10 10 5 0 31 15 57 33 27 18 62 39 78 47 17 8 32 18 35 21 3 4 48
28 100 54 52 26 104 51 115 57 11 6 29 16 40 21 11 6 27 14 35 19 8 4 26 13
40 18 14 6 33 14 42 20 9 5 43 20 75 33 33 13 77 27 99 31 21 4 60 12 87 18
26 7 47 15 47 19 0 4 35 19 78 34 42 16 91 34 107 41 17 7 62 21 100 32 39 11
106 28 150 37 44 10 127 33 184 52 57 18 116 33 131 33 15 0 30 3 34 7 4 4 19
9 34 11 14 2 32 7 38 13 6 5 14 6 17 2 4 -3 12 -1 19 4 7 6 56 23 108 38 52
15 104 32 116 37 11 5 24 8 30 7 5 -1 16 1 24 4 8 3 51 13 95 22 44 9 91 19
104 21 13 3 34 10 45 16 12 7 28 13 36 13 8 1 35 8 60 15 25 7 56 14 69 17 14
2 28 6 32 9 4 2 63 18 131 35 68 16 132 34 143 39 11 5 56 12 100 16 44 4 109
9 145 10 36 1 106 4 155 7 50 3 135 8 190 11 55 3 134 10 175 15 41 5 82 9 90
9 8 1 56 4 107 8 50 4 97 10 103 14 7 4 9 16 6 28 -5 15 -17 21 -51 24 -24 1
-59 0 -77 -4 -18 -5 -49 -10 -68 -12 -19 -3 -71 -7 -115 -10 -44 -4 -90 -8
-102 -10 -12 -3 -75 -8 -140 -11 -81 -5 -115 -4 -108 3 6 6 26 13 45 17 19 3
40 7 45 9 6 2 17 6 25 9 8 3 31 8 50 11 19 3 69 8 110 11 41 3 95 9 120 12 25
3 59 7 75 8 17 1 37 5 45 8 8 3 40 8 70 11 30 3 100 10 155 15 55 6 127 15
160 20 33 6 157 20 275 31 118 12 231 25 251 29 20 5 171 6 335 3 164 -2 322
-5 349 -5 28 0 112 2 187 6 76 3 142 8 146 11 4 3 26 5 48 5 21 -1 80 4 129
10 50 6 124 19 165 27 41 9 84 20 95 24 11 4 47 13 80 19 33 7 69 14 80 16 11
3 52 11 90 19 39 7 81 18 95 24 14 6 34 14 45 18 11 4 27 6 37 5 9 -1 19 3 22
8 4 6 13 8 20 5 7 -3 19 2 26 11 7 8 23 15 35 15 12 0 29 7 36 17 8 9 33 24
55 35 23 10 47 25 54 33 7 8 18 15 24 15 7 0 34 20 61 45 28 25 46 45 41 45
-5 0 -2 8 6 18 8 9 22 40 31 67 9 28 24 72 32 98 8 26 15 70 15 98 0 36 -7 60
-22 83 -13 18 -50 57 -83 86 -33 29 -72 57 -87 62 -16 6 -28 14 -28 19 0 5 -7
9 -15 9 -8 0 -15 5 -15 10 0 6 -9 10 -20 10 -10 0 -23 6 -27 13 -4 6 -19 17
-33 23 -14 7 -46 22 -72 35 -26 13 -45 26 -43 29 2 3 -11 6 -27 7 -17 1 -38 9
-48 18 -9 8 -24 15 -32 15 -9 0 -45 13 -80 30 -34 16 -76 30 -91 30 -16 0 -26
4 -23 9 3 5 -4 11 -17 15 -12 3 -34 6 -48 6 -15 0 -43 7 -63 15 -21 9 -58 20
-84 25 -26 5 -78 17 -117 25 -38 9 -92 20 -120 26 -27 6 -54 11 -60 13 -5 1
-19 7 -30 12 -11 6 -45 12 -75 13 -30 2 -59 5 -63 8 -5 3 -30 7 -55 9 -26 3
-58 9 -72 14 -14 5 -51 14 -83 20 -32 7 -75 14 -95 16 -20 3 -64 11 -97 19
-33 7 -89 17 -125 21 -36 3 -69 10 -75 14 -5 5 -37 8 -70 9 -33 0 -96 5 -140
11 -44 6 -114 15 -155 19 -41 5 -82 9 -90 9 -8 0 -51 3 -95 7 -44 3 -94 10
-112 15 -19 5 -33 4 -35 -2 -2 -6 -20 -5 -50 1 -25 6 -104 13 -174 16 -71 3
-169 8 -219 11 -49 3 -213 6 -363 7z m-35 -90 c136 -1 291 -4 343 -6 52 -3
145 -8 205 -11 61 -4 196 -13 300 -21 105 -8 226 -17 270 -20 44 -4 105 -10
135 -16 30 -5 91 -12 135 -15 44 -3 130 -15 190 -26 61 -11 130 -23 155 -27
25 -5 95 -16 155 -26 61 -9 119 -21 130 -25 11 -5 38 -12 60 -16 22 -5 47 -9
55 -9 8 -1 31 -6 50 -13 19 -6 51 -13 70 -16 19 -2 46 -8 60 -13 14 -6 52 -14
85 -18 33 -3 87 -13 120 -22 33 -8 76 -19 95 -24 19 -6 62 -17 95 -24 33 -8
83 -23 110 -33 28 -11 61 -24 75 -30 14 -6 34 -14 45 -18 11 -4 22 -8 25 -9 3
0 27 -11 54 -23 27 -12 55 -22 62 -22 8 0 14 -4 14 -8 0 -5 16 -16 35 -25 20
-9 42 -17 50 -17 8 0 15 -4 15 -10 0 -5 7 -10 15 -10 8 0 15 -4 15 -10 0 -5 4
-10 10 -10 5 0 26 -11 47 -25 21 -13 45 -31 53 -38 8 -8 26 -20 40 -27 14 -7
40 -28 58 -48 24 -26 32 -44 32 -72 0 -21 -9 -69 -21 -106 -11 -38 -32 -88
-45 -112 -14 -23 -44 -55 -67 -70 -23 -15 -45 -32 -50 -39 -4 -6 -35 -25 -70
-41 -34 -16 -78 -34 -97 -40 -19 -7 -62 -20 -95 -31 -33 -11 -105 -30 -160
-41 -55 -12 -111 -25 -125 -30 -14 -5 -45 -12 -70 -15 -25 -4 -81 -15 -125
-26 -44 -11 -136 -26 -205 -33 -69 -8 -134 -15 -145 -16 -11 -1 -240 -3 -510
-3 -269 -1 -494 -5 -500 -8 -5 -4 -55 -10 -110 -13 -55 -4 -117 -11 -139 -17
-21 -6 -44 -8 -52 -5 -7 3 -37 0 -66 -5 -29 -6 -73 -12 -98 -15 -25 -3 -52 -5
-60 -5 -8 -1 -64 -7 -125 -14 -60 -8 -133 -16 -162 -18 -29 -3 -56 -7 -60 -10
-5 -3 -48 -8 -96 -11 -49 -3 -92 -8 -96 -10 -4 -3 -27 -7 -52 -10 -24 -3 -86
-10 -137 -17 -52 -6 -108 -15 -125 -20 -18 -5 -50 -12 -72 -15 -22 -4 -44 -10
-50 -14 -5 -5 -24 -10 -42 -13 -18 -3 -65 -13 -105 -22 -40 -10 -82 -21 -93
-25 -11 -5 -33 -13 -50 -18 -16 -6 -77 -20 -135 -31 -58 -11 -128 -23 -156
-27 -28 -3 -64 -7 -80 -8 -16 -2 -36 -5 -44 -9 -8 -3 -34 -8 -57 -11 -24 -3
-62 -9 -85 -12 -24 -3 -50 -10 -58 -14 -9 -5 -45 -14 -80 -20 -36 -6 -85 -20
-109 -31 -24 -10 -55 -19 -69 -19 -14 0 -39 -5 -56 -10 -17 -6 -69 -21 -116
-34 -47 -13 -110 -33 -140 -45 -30 -12 -64 -21 -75 -21 -11 0 -60 -15 -110
-34 -49 -18 -117 -41 -150 -51 -33 -11 -63 -18 -67 -17 -5 1 -8 -3 -8 -10 0
-6 -3 -8 -6 -5 -4 3 -16 1 -28 -5 -11 -6 -61 -24 -111 -39 -49 -15 -112 -35
-140 -46 -27 -10 -55 -25 -62 -34 -7 -9 -31 -19 -54 -23 -23 -4 -68 -20 -100
-36 -33 -16 -59 -27 -59 -24 0 3 -13 -5 -30 -19 -16 -14 -53 -33 -81 -42 -29
-10 -79 -31 -110 -46 -32 -16 -60 -33 -64 -38 -3 -5 -20 -13 -38 -16 -17 -4
-43 -15 -57 -25 -14 -9 -32 -20 -40 -23 -8 -4 -24 -13 -35 -19 -11 -7 -44 -29
-75 -48 -30 -20 -80 -49 -110 -64 -30 -16 -74 -44 -97 -62 -23 -19 -44 -34
-48 -34 -4 0 -21 -11 -39 -25 -17 -14 -38 -31 -46 -39 -8 -7 -33 -25 -56 -39
-22 -14 -47 -31 -55 -39 -8 -7 -30 -24 -49 -38 -19 -13 -87 -70 -150 -126 -63
-56 -157 -145 -208 -198 -55 -57 -101 -96 -113 -96 -10 0 -41 9 -67 21 -26 12
-92 44 -146 71 -54 28 -124 66 -155 84 -31 18 -83 47 -116 65 -33 17 -74 42
-92 55 -17 13 -35 24 -40 24 -5 0 -24 13 -43 28 -19 16 -46 35 -60 42 -14 7
-49 32 -79 54 -30 23 -85 62 -122 87 -38 26 -89 66 -115 90 -26 24 -57 54 -70
66 -13 12 -36 29 -51 38 -16 9 -56 53 -91 96 -35 44 -76 103 -91 132 -15 28
-33 72 -41 97 -8 25 -15 54 -16 65 -1 11 -10 63 -19 115 -16 83 -16 110 -6
215 9 91 19 138 41 192 16 40 33 81 39 92 6 10 23 32 38 48 16 16 35 38 44 49
8 10 44 45 80 78 35 32 98 84 139 116 42 32 107 74 145 94 39 20 77 40 85 45
8 5 35 19 60 31 25 12 68 33 95 47 28 13 57 28 65 33 8 5 42 22 75 38 33 17
101 48 151 71 50 23 97 41 105 41 8 0 23 6 34 13 11 8 54 27 95 43 41 15 77
31 80 34 3 3 41 17 85 30 44 13 109 39 145 57 35 18 71 33 79 33 7 0 32 8 55
19 23 10 66 29 96 41 30 12 63 26 72 31 10 5 25 9 33 9 8 0 23 4 33 9 9 5 49
19 87 31 39 12 75 27 81 32 7 5 16 8 20 7 5 -1 23 3 39 10 17 7 91 32 165 56
74 23 155 48 180 54 25 7 70 19 100 27 30 8 84 23 120 33 36 11 90 24 120 30
30 6 89 18 130 27 41 8 127 25 190 36 63 11 138 23 165 25 28 2 57 7 65 10 8
4 53 12 100 19 47 7 113 17 148 24 35 6 98 15 140 21 42 6 88 12 102 14 14 2
77 10 140 18 63 8 144 18 180 21 36 4 112 11 170 16 58 6 146 12 195 15 50 3
153 9 230 15 77 5 242 16 368 23 125 8 229 16 231 18 3 2 116 3 253 2z m-4202
-3433 c6 0 15 -4 21 -9 5 -5 41 -19 79 -31 39 -12 82 -28 97 -36 14 -8 31 -14
38 -14 7 0 26 -6 43 -14 18 -8 66 -26 107 -39 41 -14 89 -31 105 -38 17 -6 41
-14 54 -16 13 -2 51 -15 85 -28 33 -14 104 -37 156 -51 52 -14 124 -35 160
-45 36 -10 88 -25 115 -33 28 -8 84 -25 125 -37 41 -12 82 -23 90 -24 8 -1 23
-5 32 -9 9 -4 23 -9 32 -10 8 -1 19 -5 22 -9 4 -4 17 -7 28 -7 12 0 73 -19
136 -41 63 -22 147 -49 185 -59 39 -10 82 -24 98 -31 15 -7 27 -16 27 -20 0
-4 -3 -9 -7 -11 -5 -1 -26 -25 -48 -52 -22 -26 -47 -59 -55 -71 -8 -13 -36
-54 -61 -92 -26 -37 -52 -78 -58 -90 -6 -12 -11 -30 -11 -40 0 -11 -5 -24 -11
-30 -6 -6 -22 -38 -35 -70 -13 -32 -24 -64 -24 -72 0 -8 -11 -37 -24 -66 -14
-28 -26 -62 -28 -76 -2 -13 -7 -30 -11 -37 -5 -7 -10 -25 -13 -40 -3 -15 -11
-47 -19 -72 -11 -32 -15 -102 -16 -245 -2 -146 2 -225 14 -294 9 -51 21 -98
26 -105 5 -6 11 -24 13 -41 2 -21 -2 -31 -13 -33 -9 -1 -47 14 -85 34 -38 20
-113 60 -166 87 -54 27 -98 54 -98 58 0 5 -5 9 -11 9 -6 0 -42 19 -81 43 -39
23 -85 51 -103 62 -18 11 -46 29 -61 39 -16 11 -54 35 -84 55 -30 20 -57 39
-60 42 -3 3 -27 25 -55 49 -27 23 -86 74 -129 113 -44 40 -98 90 -120 113 -23
22 -68 70 -101 106 -33 36 -85 94 -115 128 -30 35 -73 88 -95 119 -22 31 -47
66 -55 78 -8 11 -37 52 -64 89 -27 38 -53 82 -59 99 -5 16 -20 44 -33 61 -13
18 -28 53 -34 78 -6 26 -13 82 -16 124 -3 43 -1 111 5 151 6 41 21 103 33 140
11 36 27 82 35 101 8 19 22 51 31 70 9 19 25 47 36 63 11 15 25 27 31 27z
m2520 -297 c94 -2 190 -7 215 -12 25 -6 77 -15 115 -21 39 -7 95 -19 125 -27
30 -8 64 -18 75 -23 11 -4 49 -18 85 -30 36 -12 91 -34 123 -48 31 -14 57 -29
57 -34 0 -4 7 -8 15 -8 8 0 15 -4 15 -9 0 -5 9 -13 20 -16 11 -4 53 -45 92
-93 40 -48 82 -96 93 -107 12 -11 42 -50 68 -86 25 -36 58 -92 72 -123 15 -33
23 -65 20 -76 -4 -11 -14 -20 -22 -20 -9 0 -30 4 -47 10 -17 5 -103 28 -190
52 -88 24 -165 48 -172 55 -6 7 -26 11 -42 8 -17 -2 -49 2 -71 8 -22 7 -43 16
-47 20 -4 4 -20 7 -34 7 -15 0 -47 7 -71 16 -24 8 -102 31 -174 50 -71 19
-154 42 -183 50 -30 8 -62 19 -72 24 -10 5 -45 16 -77 24 -32 8 -78 22 -103
30 -25 8 -70 21 -100 30 -30 8 -113 31 -185 51 -71 20 -148 41 -170 46 -22 6
-65 18 -95 27 -30 9 -61 20 -68 26 -10 7 -9 12 5 21 10 7 45 26 78 43 33 16
83 41 110 54 28 14 88 37 135 51 53 17 114 28 160 29 41 2 152 2 245 1z m-540
-337 c28 -2 83 -16 124 -30 41 -14 84 -26 96 -26 11 0 25 -4 31 -8 5 -5 36
-15 69 -22 33 -7 65 -16 70 -20 6 -4 44 -15 85 -24 41 -10 79 -21 85 -25 5 -4
28 -12 50 -18 22 -6 78 -21 125 -34 47 -12 103 -27 125 -34 22 -7 69 -20 105
-30 36 -9 72 -20 80 -23 8 -2 78 -22 155 -42 77 -21 176 -47 220 -60 44 -12
103 -26 130 -32 28 -5 56 -14 63 -20 6 -6 12 -8 12 -5 0 3 64 -12 143 -33 78
-21 186 -51 241 -66 93 -26 100 -30 124 -68 14 -23 28 -43 31 -46 4 -3 13 -23
20 -45 7 -22 22 -69 33 -105 17 -56 21 -98 23 -295 2 -154 -1 -260 -10 -320
-7 -49 -18 -119 -25 -154 -6 -35 -29 -103 -52 -150 -22 -47 -50 -99 -62 -116
-11 -16 -21 -33 -21 -37 0 -3 -3 -10 -7 -14 -5 -4 -8 -15 -8 -24 0 -9 -18 -36
-40 -61 -22 -24 -40 -47 -40 -51 0 -4 -30 -45 -66 -90 -36 -46 -98 -111 -137
-145 -50 -44 -80 -63 -99 -63 -15 0 -30 5 -33 10 -3 6 -12 10 -20 10 -7 0 -47
16 -88 35 -41 19 -79 35 -83 35 -5 0 -31 11 -59 24 -27 13 -72 34 -100 46 -27
13 -72 29 -100 37 -27 8 -54 19 -60 23 -5 4 -73 28 -150 54 -77 25 -187 59
-245 75 -58 16 -134 40 -170 54 -36 14 -117 45 -180 67 -63 23 -127 48 -142
56 -15 8 -62 26 -105 40 -43 13 -92 31 -110 39 -17 8 -40 15 -50 15 -10 0 -23
4 -28 9 -6 5 -55 24 -110 44 -55 19 -116 42 -135 50 -19 8 -48 20 -65 26 -20
8 -36 24 -46 49 -9 20 -24 62 -32 92 -9 30 -22 96 -30 145 -9 55 -14 148 -12
240 1 83 8 188 15 235 7 47 16 90 20 95 5 6 14 30 21 55 7 25 14 52 15 60 1 8
14 47 29 85 15 39 36 89 46 112 10 24 19 50 19 58 0 8 5 15 10 15 6 0 9 3 8 8
-1 4 5 18 13 32 9 14 31 50 49 80 19 30 59 84 89 120 30 36 64 75 75 88 18 18
29 21 71 18z m2261 -636 c11 -1 37 -8 59 -16 22 -8 47 -16 55 -18 8 -2 42 -13
75 -24 33 -11 101 -32 150 -47 50 -15 104 -32 120 -39 17 -7 48 -18 70 -24 22
-5 103 -31 180 -56 77 -26 156 -51 175 -57 19 -6 44 -14 55 -19 11 -5 47 -16
80 -25 33 -9 85 -23 115 -32 30 -8 82 -26 115 -39 33 -12 98 -37 145 -54 47
-18 137 -57 200 -87 63 -31 138 -66 167 -79 28 -12 54 -28 58 -33 3 -6 15 -11
26 -11 10 0 19 -4 19 -10 0 -5 8 -10 18 -10 9 0 62 -23 117 -51 55 -29 120
-63 145 -76 25 -13 79 -46 120 -74 41 -27 84 -53 95 -58 11 -5 34 -21 50 -35
17 -15 35 -31 42 -36 7 -6 15 -10 19 -10 4 0 17 -11 30 -25 13 -14 27 -25 33
-25 5 0 18 -11 28 -23 10 -13 23 -26 30 -28 6 -2 48 -38 93 -79 45 -41 105
-102 133 -136 29 -33 63 -75 77 -93 14 -17 32 -41 41 -52 10 -11 28 -43 42
-72 14 -29 34 -83 45 -122 11 -38 23 -106 26 -150 3 -44 1 -134 -4 -200 -6
-66 -17 -145 -26 -175 -8 -30 -25 -80 -37 -110 -12 -30 -24 -57 -27 -60 -3 -3
-13 -21 -22 -40 -10 -19 -24 -44 -30 -54 -7 -11 -22 -31 -33 -45 -11 -14 -45
-52 -75 -85 -30 -32 -75 -77 -99 -100 -23 -22 -80 -69 -125 -104 -44 -34 -128
-94 -186 -132 -58 -39 -112 -75 -120 -81 -9 -6 -34 -23 -56 -37 -22 -15 -63
-41 -90 -59 -27 -18 -53 -36 -59 -41 -5 -4 -48 -31 -95 -59 -47 -28 -107 -62
-133 -77 -26 -14 -52 -26 -58 -26 -5 0 -14 12 -20 28 -7 15 -15 36 -18 47 -4
11 -19 45 -34 75 -15 30 -33 75 -40 100 -8 25 -27 65 -42 90 -16 25 -28 48
-27 53 1 4 -10 31 -24 60 -15 28 -29 54 -33 57 -3 3 -28 38 -55 78 -26 40 -54
76 -61 80 -7 4 -43 34 -80 67 -37 33 -72 65 -79 70 -6 6 -52 40 -102 76 -49
36 -110 78 -135 93 -24 15 -78 50 -119 77 -41 27 -127 74 -190 104 -63 31
-124 60 -135 65 -11 5 -31 12 -43 15 -13 4 -45 16 -70 28 -26 11 -103 40 -172
64 -69 24 -156 53 -195 64 -38 11 -110 33 -160 49 -49 16 -157 51 -240 76 -82
26 -154 51 -159 55 -5 4 2 18 16 31 13 13 44 42 69 65 24 23 62 67 84 98 22
31 56 74 76 95 20 21 50 65 66 97 17 32 56 105 87 162 31 57 61 124 67 149 5
26 14 51 19 57 5 6 14 45 20 86 6 40 14 90 17 109 3 19 6 144 8 277 2 212 0
250 -16 300 -10 32 -27 85 -37 118 -11 33 -23 68 -27 78 -5 13 -2 17 11 17z
m-2366 -1140 c6 0 33 -9 62 -21 29 -11 98 -36 153 -56 55 -19 123 -44 150 -54
28 -10 93 -34 145 -54 52 -20 109 -40 125 -44 17 -4 39 -13 50 -19 11 -5 47
-19 80 -30 33 -11 103 -32 155 -47 52 -15 120 -35 150 -45 30 -10 69 -26 85
-34 17 -9 37 -16 46 -16 9 0 54 -15 100 -34 46 -18 109 -46 139 -60 30 -15 84
-39 120 -53 36 -13 90 -33 121 -43 31 -10 65 -23 75 -30 11 -6 43 -19 73 -29
29 -10 49 -21 45 -23 -5 -3 -59 -11 -121 -18 -98 -12 -130 -11 -265 4 -84 10
-180 21 -213 26 -33 4 -125 20 -205 34 -80 15 -174 36 -210 47 -36 11 -74 25
-85 31 -10 6 -68 28 -129 49 -60 22 -116 45 -125 53 -9 7 -47 28 -86 45 -38
18 -74 38 -80 44 -5 7 -26 24 -45 37 -19 13 -73 57 -120 97 -47 39 -108 98
-135 130 -28 32 -56 66 -63 75 -8 9 -11 22 -7 28 3 5 10 10 15 10z m2033 -740
c11 0 43 -6 71 -14 28 -8 77 -22 108 -31 32 -9 60 -21 64 -26 3 -5 13 -9 22
-9 9 0 106 -29 216 -65 109 -36 202 -65 207 -65 5 0 42 -16 82 -35 41 -19 103
-45 138 -58 35 -13 102 -45 149 -69 47 -25 107 -57 135 -72 27 -15 52 -30 55
-34 3 -4 43 -33 90 -65 47 -32 108 -75 135 -95 28 -19 55 -40 61 -46 6 -6 37
-33 69 -61 32 -27 74 -66 93 -85 18 -19 56 -68 83 -109 27 -40 49 -84 49 -97
0 -12 4 -26 10 -29 5 -3 25 -38 44 -78 18 -40 41 -90 51 -112 9 -22 25 -67 36
-100 11 -33 24 -68 30 -77 5 -10 9 -26 9 -37 0 -10 -11 -26 -24 -34 -13 -9
-81 -41 -152 -73 -71 -31 -176 -75 -234 -97 -58 -22 -118 -43 -135 -47 -16 -5
-79 -22 -140 -39 -60 -17 -126 -35 -145 -40 -19 -5 -66 -17 -105 -26 -38 -9
-88 -21 -110 -27 -22 -6 -53 -14 -69 -19 -18 -6 -33 -6 -39 0 -5 5 -16 43 -23
83 -7 40 -22 127 -34 193 -11 66 -20 134 -20 151 0 17 -3 34 -7 38 -4 3 -8 17
-10 29 -1 12 -8 52 -14 89 -6 37 -12 78 -15 90 -2 13 -8 48 -13 78 -6 30 -15
73 -20 95 -6 22 -18 72 -26 110 -9 39 -21 88 -27 110 -5 22 -18 63 -26 90 -9
28 -22 59 -29 70 -7 11 -13 30 -13 42 0 13 -4 23 -10 23 -5 0 -7 7 -4 15 4 9
1 29 -6 46 -7 17 -25 35 -39 41 -14 6 -60 13 -101 15 -41 2 -84 10 -96 17 -11
8 -37 15 -57 16 -20 1 -52 2 -69 2 -18 -1 -94 0 -168 0 -74 0 -157 0 -185 -1
-27 0 -140 -3 -250 -7 -110 -3 -218 -2 -240 3 -40 9 -40 9 -42 58 -1 28 -5
102 -8 165 -4 63 -6 126 -6 139 1 14 3 26 5 29 3 2 60 -5 128 -16 103 -17 144
-19 253 -12 72 5 142 11 156 15 14 3 32 8 40 9 8 2 29 7 46 11 18 4 38 14 44
21 6 8 21 14 32 14z m-1308 -478 c44 -1 163 -7 265 -12 102 -6 237 -15 300
-20 63 -6 169 -11 235 -11 66 0 250 1 408 2 227 0 291 -2 304 -13 11 -9 45
-13 104 -13 54 0 93 -5 100 -12 6 -6 13 -38 15 -70 2 -32 4 -93 5 -135 0 -42
-1 -81 -4 -85 -3 -5 -8 -131 -11 -282 -4 -150 -8 -283 -11 -295 -3 -11 -7 -73
-10 -136 -2 -63 -7 -180 -11 -260 -3 -80 -9 -148 -12 -152 -4 -3 -43 -13 -87
-21 -44 -9 -129 -25 -190 -36 -60 -11 -150 -27 -200 -35 -49 -9 -148 -25 -220
-37 -71 -12 -191 -30 -265 -39 -74 -10 -153 -21 -175 -24 -22 -3 -60 -9 -85
-12 -25 -4 -52 -8 -60 -10 -8 -1 -55 -7 -105 -13 -49 -6 -135 -18 -190 -26
-55 -8 -149 -21 -210 -29 -60 -8 -143 -18 -184 -22 l-73 -7 6 29 c3 16 7 43 7
59 1 17 -6 73 -16 125 -14 70 -19 146 -19 290 -1 107 2 242 6 300 4 68 2 154
-8 243 -7 76 -16 271 -19 434 -4 201 -2 299 5 308 8 9 38 12 108 10 54 -2 125
0 157 4 33 3 96 5 140 3z m1844 -251 c10 -13 28 -64 39 -115 12 -50 25 -109
28 -130 4 -22 8 -47 9 -55 1 -9 7 -29 14 -46 7 -16 13 -55 13 -85 0 -30 7 -80
15 -110 8 -30 21 -95 28 -144 7 -49 18 -92 23 -95 6 -3 13 -62 17 -131 4 -69
13 -154 21 -190 9 -45 10 -66 3 -71 -6 -4 -62 -16 -124 -28 -62 -11 -122 -21
-133 -21 -18 0 -20 5 -16 83 2 45 9 168 14 272 6 105 13 264 16 355 2 91 6
246 8 345 3 99 5 182 5 185 1 3 10 -6 20 -19z m-2340 -6 c3 -4 7 -25 7 -48 1
-23 2 -74 3 -113 1 -39 -3 -99 -9 -133 -6 -34 -7 -67 -3 -74 4 -6 9 -46 10
-87 1 -41 5 -91 9 -110 4 -19 8 -87 8 -150 0 -63 -4 -193 -8 -288 -5 -111 -4
-178 3 -185 5 -7 12 -60 15 -117 4 -58 6 -129 6 -159 0 -30 5 -60 11 -67 6 -7
8 -17 5 -22 -3 -5 -51 -14 -108 -21 -57 -7 -125 -15 -153 -18 -27 -3 -69 -7
-93 -8 -23 -2 -44 1 -47 5 -2 4 0 34 5 66 5 32 11 84 14 114 2 30 9 87 16 125
6 39 13 79 15 90 2 11 8 56 15 100 6 44 25 143 41 220 17 77 35 169 41 205 6
36 23 106 38 155 15 50 35 115 44 146 9 31 16 62 16 71 0 8 8 41 18 74 11 32
31 99 47 147 15 49 30 85 34 82z m3828 -856 c6 1 14 -3 18 -9 3 -5 6 -53 6
-107 0 -54 -6 -129 -14 -168 -8 -38 -21 -88 -30 -110 -8 -22 -26 -66 -40 -98
-13 -31 -27 -61 -31 -65 -4 -4 -14 -22 -21 -40 -8 -18 -33 -56 -57 -84 -24
-29 -68 -77 -98 -108 -30 -30 -78 -75 -105 -99 -28 -24 -113 -84 -190 -135
-77 -50 -151 -97 -165 -105 -14 -8 -54 -29 -90 -47 -36 -18 -104 -51 -153 -73
-48 -23 -91 -41 -96 -41 -5 0 -22 -6 -38 -14 -15 -8 -39 -19 -53 -24 -14 -6
-70 -27 -125 -48 -55 -20 -143 -53 -195 -72 -52 -18 -108 -37 -125 -42 -16 -4
-41 -12 -55 -18 -14 -6 -70 -25 -126 -42 -56 -17 -118 -34 -138 -37 l-38 -6 6
44 c4 24 7 60 8 79 0 19 -3 130 -7 245 -4 116 -8 237 -9 270 0 33 2 92 6 130
4 39 11 121 14 183 l7 112 37 10 c20 5 57 13 82 16 l45 6 20 -58 c11 -33 21
-69 21 -81 0 -11 9 -43 20 -70 11 -26 25 -77 32 -113 7 -36 14 -81 16 -100 2
-19 13 -87 24 -150 12 -63 27 -137 35 -165 7 -27 14 -66 14 -85 1 -19 8 -45
17 -57 8 -13 25 -23 38 -23 13 0 30 10 38 22 12 18 12 30 2 72 -7 28 -17 72
-23 99 -6 26 -11 60 -11 76 0 16 -8 57 -19 92 -10 35 -24 93 -30 129 -6 36
-14 82 -16 103 -3 21 -12 54 -21 75 -8 20 -19 55 -24 77 -4 22 -16 69 -25 104
-15 53 -15 65 -4 72 8 5 30 8 49 7 19 -1 53 3 75 10 22 7 94 23 160 37 66 14
188 41 270 60 83 20 173 40 200 46 28 6 84 21 125 35 41 13 102 31 135 39 33
9 98 28 145 42 47 13 99 31 115 38 17 7 64 26 105 43 41 16 113 48 160 70 47
21 92 42 100 45 8 3 20 6 27 6z m-2037 -541 c13 -3 15 -21 12 -123 -2 -66 -7
-136 -12 -155 -4 -19 -7 -138 -6 -263 1 -125 0 -229 -3 -231 -3 -1 -71 5 -151
16 -121 15 -239 19 -725 22 -319 2 -647 9 -730 16 -82 7 -273 13 -424 15 -187
2 -277 7 -285 15 -7 7 -13 69 -16 164 -3 85 -3 166 0 182 4 25 10 29 40 31 19
2 91 7 160 13 69 6 181 17 250 26 69 8 161 19 205 25 44 6 91 12 105 14 14 1
36 5 50 8 14 4 52 9 85 11 33 3 103 10 155 16 52 6 106 12 120 15 14 2 36 6
50 9 14 3 95 15 180 26 85 12 166 23 180 26 14 2 59 9 100 14 41 5 152 21 245
35 94 14 219 35 279 45 60 11 112 22 115 25 3 3 12 4 21 3z m-2490 -314 c30
-1 59 -2 64 -3 4 -1 7 -67 6 -148 -1 -82 1 -287 4 -458 3 -170 6 -330 7 -355
0 -25 -4 -85 -9 -135 -6 -49 -8 -93 -6 -96 2 -4 6 -48 8 -99 2 -54 0 -103 -6
-116 -6 -13 -25 -28 -42 -33 -17 -5 -76 -22 -131 -36 -55 -15 -109 -31 -120
-35 -11 -5 -83 -29 -160 -53 -77 -25 -174 -57 -215 -72 -41 -15 -122 -44 -180
-65 -58 -21 -152 -57 -210 -82 -58 -25 -136 -59 -175 -77 -38 -18 -115 -56
-170 -84 -55 -27 -129 -66 -165 -85 -36 -19 -93 -55 -128 -79 -54 -38 -67 -43
-95 -37 -18 3 -57 19 -87 35 -30 16 -62 33 -70 37 -8 5 -35 19 -60 31 -25 13
-83 44 -130 69 -47 25 -98 54 -115 64 -16 10 -52 30 -80 44 -27 14 -70 36 -95
50 -25 14 -76 42 -115 62 -38 19 -79 43 -90 52 -11 9 -36 26 -55 36 -19 10
-64 42 -100 70 -36 28 -76 56 -89 63 -13 7 -60 50 -105 95 -44 46 -107 114
-138 153 -32 38 -82 106 -112 151 -30 44 -57 91 -61 104 -4 13 -15 34 -24 48
-9 14 -27 50 -39 80 -11 30 -26 75 -31 98 -6 27 -6 68 0 108 5 36 15 79 23 97
7 18 24 49 38 69 14 21 39 48 54 61 16 13 55 40 86 60 31 20 61 37 66 37 5 0
21 10 35 23 15 12 50 30 79 41 29 10 65 27 79 37 14 10 50 28 80 40 30 12 97
36 149 54 52 18 124 39 160 48 36 9 117 25 180 37 63 11 156 22 205 25 50 3
173 8 275 11 102 4 196 8 210 9 14 1 68 6 120 10 52 4 106 10 120 11 14 2 269
6 567 9 325 3 544 1 548 -4 3 -5 1 -12 -5 -16 -6 -4 -8 -10 -5 -15 3 -4 -1
-42 -9 -83 -8 -41 -24 -95 -35 -119 -12 -28 -23 -85 -30 -162 -7 -65 -9 -127
-6 -136 3 -10 17 -20 30 -23 14 -2 32 1 40 7 12 9 17 35 19 111 2 63 9 119 21
150 9 28 23 74 30 104 7 30 11 59 9 65 -3 7 2 39 9 71 l13 60 55 5 c30 3 79 4
109 4z m479 -450 c157 0 315 -4 351 -8 36 -3 112 -9 170 -12 58 -3 161 -8 230
-10 69 -2 328 -6 575 -8 297 -3 465 -8 495 -16 25 -6 68 -15 96 -20 29 -4 61
-11 72 -14 19 -6 21 -16 24 -112 2 -63 -1 -109 -7 -113 -5 -4 -39 -15 -75 -25
-36 -10 -94 -26 -130 -36 -36 -10 -121 -32 -190 -50 -69 -17 -154 -40 -190
-50 -36 -10 -105 -28 -155 -40 -49 -12 -99 -25 -110 -29 -11 -5 -54 -18 -95
-29 -41 -11 -97 -25 -125 -32 -27 -6 -59 -16 -70 -20 -11 -5 -58 -20 -105 -34
-47 -13 -101 -27 -120 -31 -19 -3 -44 -10 -55 -15 -11 -5 -65 -21 -120 -36
-55 -14 -125 -32 -155 -40 -30 -7 -86 -22 -125 -33 -38 -10 -119 -33 -180 -51
-60 -18 -128 -35 -150 -40 -22 -4 -67 -17 -100 -29 -33 -12 -64 -20 -70 -17
-6 2 -9 66 -7 182 1 99 2 240 1 314 -1 74 -2 153 -2 175 1 22 2 93 4 157 2 94
6 118 18 120 8 2 143 3 300 2z m1633 -484 c3 0 4 -154 1 -342 -3 -189 -5 -354
-5 -368 1 -14 1 -69 2 -123 0 -54 -2 -102 -5 -107 -3 -5 -8 -91 -10 -192 -2
-101 0 -199 4 -218 5 -19 12 -136 15 -260 4 -124 7 -299 6 -390 0 -90 -2 -165
-4 -167 -1 -2 -70 13 -152 32 -82 19 -212 48 -289 64 -77 17 -219 44 -315 60
-96 17 -245 42 -331 56 -85 14 -167 25 -181 25 -14 0 -31 7 -38 15 -8 10 -28
14 -59 13 -25 -1 -147 20 -271 46 -124 27 -241 50 -260 53 -19 2 -71 12 -115
22 -44 11 -102 23 -130 29 -27 6 -77 15 -110 22 -33 7 -72 17 -86 22 -20 7
-30 21 -38 51 -7 23 -15 119 -19 212 -4 94 -7 229 -6 300 0 72 2 207 3 300 2
94 8 176 13 183 6 6 18 12 27 12 9 0 52 12 96 26 44 14 87 27 95 29 8 3 44 12
80 20 36 9 92 24 125 35 33 10 94 28 135 40 41 11 104 30 140 40 36 11 92 27
125 36 33 9 85 22 115 29 30 7 98 25 150 39 52 15 112 31 133 36 20 6 56 15
80 21 23 7 62 19 87 27 25 8 60 18 78 23 17 5 47 13 65 18 17 5 91 25 162 45
72 21 155 44 185 52 30 9 105 29 165 44 61 16 160 43 220 59 61 17 113 30 117
31z m-2488 -701 c18 1 18 -4 11 -81 -4 -46 -7 -90 -6 -98 1 -8 0 -37 -1 -65
-2 -27 -2 -159 -2 -292 1 -134 5 -251 8 -260 4 -10 8 -55 9 -100 1 -46 -2 -83
-6 -83 -4 0 -23 6 -41 14 -18 7 -57 17 -86 21 -29 4 -67 16 -84 26 -17 10 -45
19 -62 19 -18 0 -67 7 -110 16 -44 8 -88 19 -99 24 -11 5 -38 14 -60 19 -22 5
-103 28 -180 50 -77 23 -178 57 -225 75 -47 19 -96 38 -110 41 -14 4 -32 13
-40 20 -8 8 -40 23 -70 35 -30 12 -63 29 -72 37 -10 9 -18 19 -18 23 0 4 28
26 63 49 34 24 170 96 302 162 131 65 245 119 252 119 8 0 37 12 65 26 29 15
75 34 102 44 28 10 83 29 121 43 39 15 126 46 195 71 69 24 134 45 144 45z
m-1337 -619 c3 0 31 -12 62 -26 31 -15 97 -46 146 -70 50 -24 95 -44 100 -44
5 0 55 -18 110 -39 55 -22 132 -49 170 -60 39 -12 149 -41 245 -66 96 -25 240
-61 320 -80 80 -20 161 -40 180 -46 19 -5 109 -25 200 -44 91 -19 174 -37 185
-39 19 -5 20 -14 22 -228 1 -123 5 -257 8 -298 3 -41 8 -142 11 -225 2 -82 7
-267 11 -410 3 -143 5 -273 5 -290 0 -16 -3 -82 -7 -145 -5 -100 -9 -118 -28
-136 -12 -12 -67 -45 -121 -73 l-100 -51 -50 15 c-28 9 -73 23 -101 32 -27 9
-54 20 -60 24 -5 5 -17 9 -27 9 -10 0 -26 4 -36 9 -9 5 -28 13 -42 19 -14 5
-63 21 -110 36 -47 14 -89 26 -93 26 -5 0 -70 23 -145 51 -75 27 -166 62 -202
76 -36 14 -74 29 -85 33 -11 4 -49 18 -85 30 -36 12 -77 28 -92 36 -14 8 -32
14 -39 14 -6 0 -35 11 -63 24 -28 13 -100 43 -161 67 -60 24 -154 67 -208 97
-54 29 -123 69 -154 89 -31 20 -106 86 -167 147 -61 61 -126 134 -143 161 -18
28 -36 55 -41 60 -5 6 -27 42 -49 80 -22 39 -48 88 -58 110 -9 22 -25 66 -35
99 -14 43 -18 81 -16 145 2 55 11 104 23 136 11 28 43 84 71 124 28 41 66 93
84 115 18 22 58 67 88 100 30 34 78 82 105 107 28 24 77 67 110 95 33 28 104
85 158 127 54 42 101 77 104 77z m1835 -540 c2 0 48 -9 103 -20 55 -11 134
-27 175 -35 41 -8 95 -20 120 -25 25 -6 106 -22 180 -36 74 -13 189 -34 255
-45 66 -10 179 -28 250 -40 72 -11 137 -22 145 -24 8 -3 65 -14 125 -25 61
-11 173 -33 250 -49 77 -16 172 -36 210 -45 39 -9 93 -22 120 -30 28 -7 95
-26 150 -41 55 -15 141 -39 190 -55 50 -15 108 -32 131 -39 l41 -11 -1 -72 c0
-40 3 -122 7 -183 4 -60 9 -195 12 -300 3 -104 7 -304 10 -443 2 -139 7 -257
10 -263 4 -5 8 -46 11 -92 4 -75 2 -84 -19 -107 -12 -14 -39 -37 -59 -52 -20
-16 -40 -28 -45 -28 -4 0 -23 -13 -40 -29 -18 -16 -33 -33 -33 -38 0 -5 -21
-26 -47 -48 -27 -21 -52 -45 -56 -52 -4 -7 -14 -13 -21 -13 -8 0 -16 -7 -20
-15 -3 -10 -19 -15 -44 -15 -21 0 -61 7 -88 15 -27 8 -66 15 -87 15 -21 0 -46
4 -56 10 -10 5 -63 14 -117 19 -55 6 -160 17 -234 26 -74 8 -214 24 -310 35
-96 11 -209 25 -250 31 -41 6 -111 17 -155 24 -44 8 -96 16 -115 19 -19 3 -48
8 -65 10 -16 3 -52 9 -80 15 -27 5 -95 19 -149 31 -55 12 -104 24 -109 27 -5
3 -60 18 -121 33 -61 16 -145 37 -187 48 -42 12 -100 28 -128 38 l-52 17 58
33 c32 18 62 34 66 34 5 0 24 7 41 15 l33 16 8 112 c5 62 8 252 8 422 -1 171
-5 382 -9 470 -4 88 -9 183 -10 210 -2 28 -6 155 -9 284 -3 128 -4 240 -1 247
3 8 7 14 8 14z m2547 -554 c9 -3 42 -12 73 -20 31 -8 238 -74 460 -146 222
-72 412 -135 423 -140 11 -5 36 -14 55 -19 19 -6 73 -23 120 -37 47 -15 103
-34 125 -44 22 -10 83 -36 135 -58 52 -22 120 -52 150 -66 30 -15 105 -57 165
-94 61 -37 130 -80 154 -97 23 -16 96 -74 162 -128 65 -54 137 -122 160 -150
22 -29 58 -92 79 -140 22 -48 42 -104 45 -125 3 -20 13 -63 22 -94 15 -54 15
-60 -2 -105 -10 -26 -42 -79 -71 -118 -29 -38 -88 -106 -131 -150 -43 -44
-113 -109 -155 -145 -42 -36 -116 -93 -164 -128 -49 -35 -132 -88 -184 -118
-52 -30 -102 -59 -110 -64 -8 -5 -60 -32 -115 -59 -56 -28 -109 -51 -120 -51
-10 0 -44 17 -74 38 -31 20 -58 40 -61 43 -3 4 -25 16 -50 27 -25 12 -58 30
-75 42 -16 11 -36 20 -44 20 -8 0 -28 10 -45 23 -17 12 -49 30 -71 39 -22 9
-119 41 -215 71 -96 31 -222 68 -280 82 -58 14 -132 33 -165 41 -33 8 -76 21
-95 29 -19 8 -71 22 -115 31 -44 9 -96 20 -115 25 -19 4 -68 15 -109 23 -41 9
-76 17 -78 19 -2 3 13 19 34 36 21 17 63 55 94 84 30 28 77 68 104 87 27 19
66 50 86 67 36 33 36 33 33 105 -2 40 -6 107 -10 148 -3 41 -8 95 -10 120 -1
25 -6 196 -9 380 -3 184 -8 397 -10 472 -2 75 -8 145 -13 155 -5 10 -7 35 -4
56 3 29 8 37 21 33z m1249 -2417 c12 1 39 -10 60 -23 21 -13 64 -48 97 -77 33
-30 109 -103 168 -164 60 -60 133 -139 162 -175 29 -36 65 -93 79 -127 14 -34
29 -79 34 -100 4 -21 6 -66 5 -101 -1 -34 -9 -86 -17 -115 -8 -29 -27 -64 -41
-77 -15 -14 -35 -39 -46 -56 -12 -20 -70 -66 -147 -117 -70 -46 -153 -100
-184 -120 -31 -21 -61 -37 -66 -37 -5 0 -17 -9 -27 -20 -10 -11 -23 -20 -28
-20 -6 0 -42 -20 -81 -43 -39 -24 -127 -76 -196 -115 -69 -39 -147 -79 -175
-88 -27 -8 -70 -26 -95 -39 -25 -12 -56 -26 -70 -30 -14 -4 -59 -19 -100 -35
-41 -15 -100 -34 -130 -43 -30 -9 -84 -21 -120 -27 -36 -7 -74 -16 -85 -21
-11 -5 -40 -16 -64 -24 -24 -8 -56 -15 -70 -15 -15 0 -32 -5 -39 -12 -6 -6
-25 -11 -42 -10 -16 0 -30 -4 -30 -9 0 -5 -14 -9 -31 -9 -17 0 -56 -7 -86 -16
-30 -9 -64 -13 -76 -10 -11 3 -26 1 -33 -4 -6 -6 -47 -19 -90 -30 -43 -12 -90
-18 -103 -15 -14 4 -30 0 -40 -8 -9 -8 -38 -18 -66 -21 -27 -4 -76 -14 -109
-22 -32 -8 -65 -13 -74 -9 -8 3 -22 -1 -31 -9 -9 -8 -58 -22 -110 -31 -52 -9
-103 -21 -113 -26 -10 -5 -18 -8 -18 -6 0 2 -21 0 -47 -5 -27 -5 -70 -13 -98
-19 -27 -6 -65 -10 -84 -9 -18 0 -39 -5 -46 -10 -8 -6 -36 -13 -63 -14 -28 -2
-67 -9 -87 -16 -20 -7 -46 -9 -58 -6 -11 3 -26 1 -32 -4 -7 -5 -38 -12 -71
-15 -32 -3 -111 -12 -174 -20 -63 -9 -158 -20 -210 -26 -52 -6 -149 -11 -215
-12 -66 -1 -124 -4 -130 -8 -5 -3 -66 -4 -135 -3 -69 2 -228 5 -355 8 -126 3
-248 8 -270 11 -22 3 -80 7 -130 9 -49 3 -121 8 -160 12 -38 4 -78 6 -87 5
-10 -1 -58 5 -108 13 -49 9 -112 16 -138 16 -27 0 -52 3 -55 6 -3 4 -26 8 -49
10 -24 1 -69 5 -100 8 -32 3 -67 10 -78 16 -10 6 -37 8 -58 4 -24 -4 -48 -1
-63 6 -13 7 -37 14 -54 16 -16 1 -43 5 -59 7 -16 3 -33 10 -39 16 -6 6 -24 11
-39 11 -15 0 -51 11 -80 25 -29 13 -84 36 -123 50 -40 15 -78 37 -88 51 -10
13 -27 24 -36 24 -10 0 -24 11 -31 25 -7 14 -16 25 -20 25 -4 0 -27 19 -51 42
-25 24 -71 74 -103 111 -32 37 -67 78 -77 91 -11 14 -19 27 -19 30 0 3 -13 25
-30 49 -16 25 -30 49 -30 54 0 5 -14 35 -31 68 -17 33 -34 65 -39 70 -4 6 -15
43 -24 84 -9 40 -16 83 -16 95 0 12 24 48 58 83 31 34 68 76 82 93 14 17 62
56 107 86 45 30 87 54 93 54 5 0 34 12 63 26 28 14 90 37 137 51 53 15 142 30
235 39 83 7 161 15 175 18 14 2 108 6 210 10 102 3 430 8 730 11 300 3 617 10
705 15 88 6 192 12 230 15 39 3 113 10 165 15 52 5 120 12 150 14 30 3 84 8
120 11 36 2 90 7 120 10 30 3 75 7 100 9 25 2 95 9 155 15 61 6 130 13 155 15
25 3 83 10 130 16 47 6 126 18 175 25 50 8 146 24 215 35 69 11 175 27 235 35
61 9 126 20 145 25 19 5 98 18 175 30 77 11 221 37 320 56 99 19 189 39 200
44 11 4 74 22 140 39 66 16 161 41 210 55 50 14 122 36 160 51 39 14 77 28 85
32 8 3 18 6 22 5 3 -1 71 25 150 57 79 32 153 59 166 60z"/>
<g>
<path d="M6320 13440 c-11 0 -29 -9 -40 -20 -11 -11 -20 -30 -20 -43 0 -13 11
-33 23 -46 14 -12 30 -19 40 -16 8 4 23 22 32 41 15 32 15 37 1 60 -9 13 -25
24 -36 24z"/>
</g>
<g>
<path d="M7801 13369 c-9 -1 -24 -3 -33 -6 -10 -2 -21 -15 -24 -28 -3 -13 -4
-34 -2 -46 3 -21 9 -24 43 -24 38 0 41 2 49 37 7 27 6 41 -4 52 -7 9 -20 15
-29 15z"/>
</g>
<g>
<path d="M7072 13162 c-10 2 -24 3 -32 1 -9 -2 -23 -18 -32 -36 -8 -18 -27
-59 -41 -92 -14 -33 -35 -91 -48 -130 -12 -38 -33 -95 -46 -125 -13 -30 -22
-70 -21 -88 3 -28 8 -34 38 -42 19 -5 68 -14 108 -21 41 -6 84 -8 98 -5 14 4
26 16 30 32 4 16 1 31 -7 40 -8 7 -47 16 -87 20 -39 4 -72 8 -72 10 0 1 4 14
9 27 6 14 13 44 16 67 3 23 10 50 14 59 5 9 23 54 41 101 17 47 38 98 45 114
7 15 10 36 8 46 -3 10 -12 20 -21 22z"/>
</g>
<g>
<path d="M6685 12354 c-11 2 -32 0 -47 -6 -20 -7 -28 -17 -28 -33 0 -14 11
-30 27 -41 23 -15 55 -18 198 -21 93 -2 211 -11 260 -19 50 -9 144 -22 209
-29 66 -8 148 -11 183 -8 35 3 70 11 78 17 8 6 17 21 19 32 3 13 -4 31 -15 43
-11 12 -27 21 -37 22 -9 1 -66 0 -127 0 -78 -2 -124 3 -160 14 -39 13 -105 17
-295 21 -135 2 -254 6 -265 8z"/>
</g>
</g>
</g>
</svg>
