<?xml version="1.0" standalone="no"?>
<!DOCTYPE svg PUBLIC "-//W3C//DTD SVG 20010904//EN"
 "http://www.w3.org/TR/2001/REC-SVG-20010904/DTD/svg10.dtd">
<svg version="1.0" xmlns="http://www.w3.org/2000/svg"
 width="1366.000000pt" height="2048.000000pt" viewBox="0 0 1366.000000 2048.000000"
 preserveAspectRatio="xMidYMid meet">
<metadata>
Created by potrace 1.16, written by Peter Selinger 2001-2019
</metadata>
<g transform="translate(0.000000,2048.000000) scale(0.100000,-0.100000)"
fill="#000000" stroke="none">
<g>
<path d="M6145 19884 c-159 2 -326 0 -370 -4 -44 -3 -150 -14 -235 -24 -85 -9
-186 -24 -225 -32 -38 -9 -111 -31 -160 -50 -50 -19 -98 -34 -105 -34 -8 0
-26 -6 -40 -13 -14 -7 -47 -20 -75 -29 -27 -8 -108 -34 -180 -56 -71 -22 -177
-55 -235 -72 -58 -17 -118 -37 -135 -45 -16 -7 -74 -32 -128 -54 -54 -23 -104
-41 -112 -41 -8 0 -15 -4 -15 -10 0 -5 -5 -10 -12 -10 -6 0 -32 -9 -57 -20
-25 -12 -68 -31 -96 -44 -27 -13 -79 -38 -115 -56 l-64 -33 -126 12 c-69 6
-204 14 -300 18 -138 4 -203 2 -305 -12 -71 -9 -157 -26 -190 -37 -33 -11 -76
-27 -95 -36 -19 -9 -74 -42 -121 -73 -53 -36 -114 -89 -162 -142 -42 -46 -77
-89 -77 -94 0 -5 -9 -18 -20 -28 -11 -10 -35 -46 -52 -79 -18 -34 -42 -82 -55
-108 -13 -26 -29 -74 -35 -105 -6 -32 -11 -112 -11 -178 1 -92 7 -149 28 -240
14 -66 42 -167 62 -225 l36 -105 -25 -55 c-13 -30 -30 -68 -36 -85 -6 -16 -18
-64 -27 -105 -9 -41 -25 -122 -36 -180 -11 -58 -32 -172 -46 -255 -23 -125
-27 -177 -26 -310 0 -88 8 -237 16 -331 9 -94 27 -233 41 -310 14 -76 30 -152
35 -169 5 -16 21 -61 36 -100 15 -38 40 -106 56 -150 16 -44 50 -128 76 -187
l46 -107 -17 -73 c-9 -40 -28 -125 -41 -187 -13 -63 -27 -151 -30 -195 -3 -45
-10 -121 -15 -171 -5 -49 -12 -153 -16 -231 -5 -114 -3 -156 10 -220 9 -43 24
-108 33 -144 8 -36 18 -69 23 -75 4 -5 10 -23 14 -40 4 -16 23 -61 43 -100 19
-38 49 -92 66 -120 16 -27 40 -66 52 -85 12 -19 56 -87 98 -150 42 -63 124
-167 182 -230 57 -63 105 -122 105 -130 0 -8 -36 -55 -80 -104 -44 -49 -111
-125 -148 -170 -38 -45 -89 -108 -113 -141 -25 -33 -72 -96 -105 -139 -32 -44
-82 -114 -111 -155 -28 -42 -78 -119 -111 -171 -32 -52 -91 -151 -130 -219
-40 -68 -72 -126 -72 -130 0 -3 -10 -24 -22 -46 -11 -22 -39 -83 -60 -135 -22
-52 -50 -126 -62 -165 -13 -38 -33 -92 -44 -120 -12 -27 -29 -81 -37 -120 -8
-38 -22 -106 -29 -150 -8 -44 -22 -122 -31 -174 -9 -52 -25 -196 -36 -320 -14
-153 -19 -273 -16 -371 3 -100 14 -197 35 -315 17 -93 33 -183 37 -200 4 -16
34 -85 66 -153 49 -102 59 -131 59 -175 0 -29 5 -80 11 -113 5 -32 19 -88 31
-124 11 -36 27 -81 35 -100 9 -19 29 -62 45 -95 16 -33 55 -94 86 -135 32 -41
92 -113 134 -159 l78 -85 0 -75 c0 -42 9 -132 19 -201 11 -69 29 -154 41 -190
12 -36 27 -78 34 -95 7 -16 24 -57 37 -90 13 -33 41 -94 63 -135 21 -41 49
-87 60 -102 12 -14 35 -45 51 -68 17 -23 71 -81 120 -128 76 -74 107 -95 197
-140 60 -28 114 -52 120 -52 7 -1 31 -7 53 -16 22 -8 64 -17 92 -20 29 -2 68
-11 87 -19 27 -11 79 -14 248 -11 117 2 221 7 231 11 10 4 17 3 17 -5 0 -6 -9
-42 -20 -78 -10 -37 -28 -130 -40 -208 -11 -77 -29 -179 -41 -225 -11 -46 -22
-101 -23 -122 -1 -20 -6 -41 -12 -46 -5 -5 -39 -24 -76 -43 -36 -20 -79 -41
-95 -47 -15 -6 -37 -17 -48 -24 -11 -7 -40 -26 -64 -42 -24 -17 -54 -37 -66
-45 -12 -8 -44 -28 -71 -45 -27 -16 -81 -52 -121 -80 -40 -27 -87 -60 -105
-72 -18 -12 -75 -48 -126 -80 -51 -32 -103 -64 -115 -70 -12 -7 -30 -13 -41
-13 -10 0 -53 -29 -95 -65 -42 -35 -116 -99 -164 -142 -49 -43 -102 -97 -118
-120 -17 -24 -34 -43 -39 -43 -5 0 -28 -24 -50 -52 -22 -29 -67 -87 -101 -128
-33 -41 -74 -99 -90 -128 -17 -29 -56 -81 -88 -116 -31 -35 -70 -81 -86 -102
-17 -22 -47 -64 -66 -94 -20 -30 -55 -95 -78 -145 -24 -49 -49 -102 -57 -117
-8 -14 -14 -32 -14 -39 0 -6 -11 -35 -25 -63 -20 -42 -27 -76 -35 -181 -6 -72
-8 -150 -5 -175 4 -25 18 -76 32 -115 14 -38 35 -88 46 -110 11 -22 38 -66 59
-97 21 -31 77 -96 125 -145 49 -48 147 -140 218 -204 72 -63 160 -139 198
-168 37 -29 67 -59 67 -66 0 -7 3 -26 6 -43 6 -28 3 -33 -22 -44 -16 -7 -53
-27 -81 -45 -29 -18 -83 -49 -120 -68 -38 -19 -102 -53 -143 -74 -41 -22 -109
-55 -150 -74 -41 -19 -105 -49 -141 -66 -37 -17 -70 -31 -75 -31 -4 0 -58 -24
-119 -53 -60 -30 -132 -63 -160 -75 -27 -12 -66 -25 -84 -30 -28 -6 -37 -14
-44 -41 -6 -26 -4 -37 10 -53 16 -18 18 -40 18 -187 0 -91 -4 -227 -9 -302 -7
-108 -5 -155 8 -235 8 -54 20 -151 26 -214 6 -63 14 -125 17 -138 3 -14 28
-36 70 -60 36 -20 86 -48 112 -62 25 -14 73 -46 105 -70 32 -25 80 -59 105
-76 25 -17 55 -41 65 -53 11 -11 25 -21 31 -21 7 0 18 -6 24 -14 7 -8 42 -33
79 -56 37 -23 87 -57 112 -76 25 -19 75 -48 111 -65 57 -26 69 -37 85 -72 11
-23 27 -43 36 -45 9 -2 34 12 55 31 21 18 74 53 118 77 44 24 116 62 160 84
45 23 101 49 125 59 25 11 63 27 85 36 22 10 101 37 175 61 74 23 177 58 227
76 51 19 101 38 110 44 10 5 83 37 163 71 80 33 177 72 215 85 39 14 99 38
135 54 36 16 103 45 150 65 47 20 94 40 105 45 11 5 63 27 115 48 52 22 124
50 160 63 36 12 70 26 75 29 6 4 55 27 110 50 55 24 104 47 109 52 6 4 18 8
28 8 10 0 41 11 70 24 29 14 78 35 108 49 30 13 65 27 78 31 21 7 22 5 16 -21
-3 -15 -14 -53 -24 -83 -10 -30 -34 -107 -54 -170 -20 -63 -48 -162 -62 -220
-14 -58 -34 -136 -44 -175 -10 -38 -26 -90 -34 -113 -9 -24 -28 -86 -41 -138
-14 -52 -29 -102 -34 -112 -4 -9 -14 -71 -20 -137 -7 -66 -17 -142 -22 -170
-5 -27 -15 -66 -21 -86 -7 -26 -7 -42 1 -58 9 -16 21 -21 50 -21 22 0 72 -6
113 -14 40 -8 109 -28 153 -45 44 -16 127 -44 185 -62 58 -17 125 -37 150 -45
25 -7 75 -18 113 -25 47 -8 67 -15 67 -26 0 -8 16 -21 35 -29 19 -7 43 -14 54
-14 10 0 22 7 25 16 3 9 6 16 6 18 0 1 -16 10 -35 20 -24 13 -35 26 -35 41 0
13 -6 28 -14 34 -7 6 -45 15 -83 20 -39 5 -79 13 -89 19 -10 5 -36 12 -56 16
-20 4 -63 15 -95 25 -32 10 -92 28 -133 41 -41 12 -90 29 -109 37 -19 9 -60
22 -90 30 -31 8 -69 17 -86 22 -21 5 -30 13 -29 27 0 10 6 69 13 129 7 61 17
135 23 165 6 30 17 80 25 110 8 30 21 75 28 100 8 25 25 81 39 125 13 44 36
132 51 195 14 63 35 144 45 180 11 36 27 92 36 125 9 33 27 90 40 127 13 37
26 90 30 118 4 31 13 54 23 60 9 4 50 20 91 35 41 14 125 39 185 54 61 15 134
41 163 56 30 15 57 37 62 49 4 12 15 53 25 92 l17 71 226 6 c125 3 228 4 229
3 1 -1 -2 -30 -7 -66 -5 -36 -16 -112 -25 -170 -8 -58 -18 -139 -20 -180 -2
-41 -7 -109 -10 -150 -2 -41 -7 -115 -10 -165 -3 -49 -15 -128 -26 -175 -11
-47 -24 -139 -29 -205 -6 -66 -17 -165 -26 -220 -8 -55 -17 -122 -20 -150 -4
-44 -2 -52 20 -67 13 -10 44 -22 68 -28 23 -5 111 -24 193 -41 83 -17 181 -35
219 -40 38 -4 86 -15 107 -23 34 -14 39 -14 51 1 7 9 11 28 9 42 -1 14 -4 28
-6 29 -2 2 -21 8 -42 13 -21 5 -78 16 -128 24 -49 8 -154 28 -232 44 -78 16
-151 32 -162 36 -17 5 -20 12 -16 38 3 18 10 64 15 102 5 39 16 142 25 230 8
88 19 176 24 195 5 19 14 89 20 155 6 66 16 210 21 320 6 110 17 245 26 300 8
55 17 114 20 132 3 19 12 34 22 37 10 3 67 13 127 21 61 9 155 22 211 30 56 8
132 21 170 29 38 9 107 23 154 31 47 8 108 20 135 25 28 6 61 13 75 15 14 2
64 13 112 24 48 11 96 25 107 31 11 5 28 10 38 10 10 0 54 11 98 26 44 14 154
45 245 68 91 24 208 55 260 70 52 14 154 45 225 69 72 25 164 55 205 67 41 13
113 35 160 50 47 15 111 33 143 40 32 8 60 17 63 22 3 4 13 8 23 8 10 0 81 20
157 44 76 25 175 56 219 71 44 14 100 32 125 40 25 7 79 23 120 35 41 12 129
37 195 56 66 19 129 38 140 43 11 5 54 19 95 31 41 12 102 30 135 41 33 10 89
27 125 38 36 10 110 33 165 49 55 17 129 38 165 47 36 9 83 24 105 34 22 10
76 30 120 45 44 15 94 33 110 41 17 8 93 40 170 71 77 30 176 68 221 84 44 15
89 33 100 38 10 6 44 22 74 35 30 14 65 28 78 32 12 3 181 86 375 184 194 97
389 203 435 234 46 31 85 57 87 57 3 0 42 23 88 50 52 31 88 60 96 77 7 14 39
69 71 122 32 53 69 125 83 161 13 36 41 117 62 180 35 104 38 125 39 226 1
107 -1 113 -29 155 -16 24 -62 77 -102 116 -40 40 -78 73 -84 73 -6 0 -42 21
-80 46 -38 25 -104 73 -147 108 -42 34 -102 78 -132 98 -30 19 -75 47 -100 62
-25 14 -58 33 -75 42 -16 9 -48 32 -69 50 -22 19 -46 34 -54 34 -8 0 -21 -8
-28 -17 -7 -10 -14 -25 -14 -33 0 -8 15 -27 33 -41 17 -14 70 -47 117 -74 47
-26 103 -59 125 -74 22 -14 67 -46 100 -70 33 -25 81 -64 107 -86 26 -23 77
-58 115 -78 45 -24 93 -61 141 -110 40 -41 79 -91 87 -111 9 -21 15 -67 15
-113 0 -43 -5 -96 -10 -118 -6 -22 -17 -56 -25 -75 -7 -19 -25 -74 -40 -121
-14 -48 -37 -101 -50 -120 -14 -18 -25 -36 -25 -40 0 -3 -20 -37 -46 -75 -26
-41 -64 -83 -92 -102 -26 -18 -76 -49 -112 -69 -36 -20 -94 -56 -129 -80 -35
-24 -240 -131 -455 -238 -215 -107 -420 -205 -456 -218 -36 -13 -121 -47 -190
-75 -69 -28 -186 -74 -260 -102 -74 -28 -205 -76 -290 -105 -85 -30 -227 -74
-315 -100 -88 -25 -221 -64 -295 -87 -74 -22 -182 -55 -240 -73 -58 -18 -163
-50 -235 -70 -71 -21 -215 -64 -320 -97 -104 -33 -194 -63 -200 -66 -5 -4 -64
-20 -130 -38 -66 -17 -145 -39 -175 -47 -30 -9 -173 -56 -316 -105 -144 -49
-272 -92 -285 -95 -13 -3 -69 -17 -124 -32 -55 -14 -131 -34 -170 -44 -38 -10
-149 -41 -245 -69 -96 -28 -247 -67 -335 -86 -88 -20 -236 -50 -330 -67 -93
-17 -210 -37 -260 -44 -49 -7 -130 -20 -179 -29 -49 -9 -93 -16 -98 -16 -6 0
-8 18 -4 43 3 23 10 81 15 129 5 47 12 91 15 96 3 5 12 38 20 73 8 35 19 80
25 99 6 19 19 71 30 115 12 44 21 99 21 122 0 23 -5 45 -12 49 -7 4 -23 9 -36
10 -13 2 -33 9 -45 17 -12 8 -40 19 -62 26 -22 7 -49 16 -60 20 -11 5 -74 25
-140 46 -66 21 -127 40 -135 43 -8 3 -33 10 -55 16 l-40 11 -7 148 c-4 89 -11
154 -18 162 -7 8 -51 26 -98 41 -48 14 -112 37 -143 50 -31 13 -63 24 -71 24
-8 0 -18 4 -24 8 -5 5 -28 14 -50 20 -23 7 -50 12 -60 12 -11 0 -57 16 -104
36 -47 20 -118 45 -158 55 -40 11 -89 29 -109 40 -21 12 -57 39 -82 60 -32 28
-53 39 -77 39 -18 0 -57 -14 -87 -30 -30 -16 -58 -30 -62 -30 -4 0 -5 46 -1
103 3 56 8 145 11 197 3 52 10 127 15 165 6 39 19 133 31 210 11 77 24 180 29
229 5 49 16 130 25 180 9 50 25 127 35 171 11 44 26 148 35 230 8 83 18 168
20 190 3 22 7 54 10 70 2 17 13 84 24 150 11 66 22 158 26 205 3 47 10 114 15
150 5 36 16 103 24 150 8 47 22 114 31 150 9 36 22 88 30 117 7 28 16 56 20
62 3 6 14 11 24 11 9 0 22 5 28 11 5 5 70 17 144 25 79 9 179 14 244 11 84 -4
133 -12 210 -35 55 -17 132 -42 170 -57 39 -15 83 -31 98 -35 16 -5 77 -30
135 -55 59 -25 117 -52 129 -58 12 -7 47 -27 77 -45 31 -19 73 -49 93 -68 20
-19 66 -60 102 -90 36 -31 89 -78 116 -104 28 -25 75 -80 106 -121 30 -41 72
-97 91 -124 20 -28 53 -73 72 -100 20 -28 47 -72 62 -99 14 -27 35 -58 46 -70
11 -11 46 -74 79 -138 32 -65 59 -122 59 -127 0 -5 -17 -17 -37 -26 -21 -10
-50 -27 -65 -38 -20 -15 -44 -20 -98 -21 -62 -1 -74 -4 -90 -23 -10 -13 -25
-23 -34 -23 -8 0 -18 5 -22 11 -5 8 -29 10 -77 5 -53 -5 -79 -13 -103 -31 -18
-14 -43 -25 -56 -25 -13 0 -30 -6 -39 -13 -8 -7 -24 -34 -34 -60 -10 -27 -36
-74 -58 -105 -22 -31 -52 -80 -67 -108 -16 -28 -39 -63 -53 -78 -14 -15 -28
-40 -32 -54 -3 -15 -21 -47 -40 -72 -19 -25 -58 -78 -86 -119 -28 -40 -64
-102 -81 -136 -16 -35 -36 -69 -44 -76 -8 -6 -14 -17 -14 -24 0 -7 -7 -18 -16
-25 -8 -8 -33 -43 -55 -79 -22 -36 -58 -91 -79 -121 -28 -39 -40 -65 -40 -91
0 -27 6 -41 23 -53 21 -15 21 -16 5 -29 -10 -8 -18 -19 -18 -24 0 -5 9 -18 19
-27 10 -10 21 -32 24 -49 3 -18 11 -49 19 -69 8 -21 17 -41 21 -44 3 -4 47 1
97 11 50 10 93 21 96 26 3 5 16 9 28 9 13 0 53 11 90 24 37 14 122 38 189 54
67 17 149 33 182 37 33 4 93 16 135 26 41 11 103 24 139 30 35 5 89 12 120 15
31 3 76 11 101 19 25 7 71 16 103 19 32 4 68 12 80 20 12 7 65 21 117 31 52 9
109 21 125 27 17 5 73 21 125 35 52 14 122 32 155 39 33 8 69 19 80 24 11 5
52 16 90 25 39 9 81 22 95 29 14 7 43 17 65 21 22 3 87 22 145 40 58 18 131
39 163 46 39 8 63 20 72 33 7 12 16 36 20 54 4 18 1 72 -5 119 -7 47 -19 97
-26 112 -8 14 -14 35 -14 46 0 11 -23 124 -50 250 -27 127 -53 253 -56 280 -3
28 -17 83 -30 124 -20 59 -22 76 -12 82 7 5 20 9 29 9 9 0 23 -14 30 -32 7
-18 34 -55 59 -82 25 -27 64 -57 88 -67 24 -11 57 -19 73 -19 27 0 29 -3 29
-36 0 -27 7 -42 30 -62 19 -17 52 -31 88 -39 45 -9 62 -8 82 2 14 7 41 16 60
20 19 4 53 18 76 31 22 13 74 59 115 101 41 43 97 113 124 156 l48 77 63 0
c53 0 65 -3 78 -22 13 -19 29 -22 128 -29 62 -5 167 -17 233 -28 66 -11 156
-25 200 -31 44 -7 85 -16 91 -21 6 -5 41 -16 79 -24 38 -9 96 -28 129 -42 34
-14 129 -47 211 -75 83 -27 202 -62 265 -78 63 -16 158 -37 210 -48 52 -11
124 -25 160 -31 36 -6 119 -13 185 -17 66 -3 161 -12 210 -20 56 -9 117 -27
161 -48 40 -19 101 -56 135 -84 35 -27 98 -68 139 -91 41 -22 96 -52 122 -66
25 -13 67 -43 93 -65 27 -23 58 -56 70 -75 13 -18 26 -42 29 -53 5 -14 -2 -35
-19 -61 -16 -27 -43 -50 -77 -67 -29 -15 -77 -34 -108 -44 -30 -10 -71 -21
-90 -25 -19 -4 -45 -13 -57 -21 -13 -8 -23 -23 -23 -34 0 -11 9 -24 20 -30 15
-8 27 -7 49 5 17 8 41 15 54 15 12 0 27 4 33 8 5 5 29 15 54 22 25 8 63 23 85
34 22 11 54 30 71 43 17 13 46 53 64 89 17 36 29 72 26 81 -4 8 -1 22 5 29 8
10 4 19 -18 39 -15 14 -35 33 -43 42 -8 9 -22 22 -30 30 -8 7 -31 26 -50 42
-19 16 -71 48 -115 71 -44 24 -87 49 -96 56 -8 8 -22 14 -31 14 -8 0 -37 17
-64 37 -27 20 -66 52 -87 70 -20 18 -45 33 -55 33 -9 0 -41 20 -69 45 l-52 46
-155 5 c-85 2 -173 6 -197 9 -23 2 -68 7 -98 10 -31 4 -91 13 -133 20 -42 8
-103 23 -135 34 -32 10 -78 22 -103 26 -25 4 -65 14 -90 21 -25 8 -69 22 -99
32 -38 12 -62 27 -83 54 -16 21 -38 38 -48 38 -10 0 -20 -9 -23 -19 -4 -16
-10 -18 -28 -13 -13 4 -31 12 -40 17 -9 6 -24 25 -33 43 -9 18 -24 32 -34 32
-10 0 -23 -5 -28 -10 -7 -7 -28 -7 -65 0 -39 7 -61 17 -79 38 -14 16 -32 31
-40 34 -8 3 -22 -1 -31 -9 -15 -12 -24 -12 -71 2 -30 8 -66 27 -79 41 -21 22
-28 24 -80 18 -44 -5 -65 -2 -91 11 -18 9 -42 18 -52 21 -11 2 -31 18 -45 35
-17 20 -33 30 -46 28 -11 -3 -21 -14 -23 -25 -3 -20 -8 -21 -80 -16 -72 4 -80
7 -114 40 -31 30 -40 33 -53 22 -8 -7 -15 -20 -15 -29 0 -12 -8 -16 -27 -15
-19 0 -41 16 -73 52 -26 29 -52 52 -59 52 -6 0 -16 -11 -23 -25 -8 -18 -8 -28
1 -39 7 -8 8 -16 4 -19 -4 -3 -31 -8 -60 -12 l-52 -7 -43 47 c-44 46 -44 47
-67 28 l-22 -18 21 -28 21 -27 -80 0 c-75 0 -82 2 -97 26 -11 16 -24 24 -38
22 -12 -2 -22 -12 -24 -23 -2 -11 -7 -23 -11 -27 -4 -4 -25 -10 -48 -13 -29
-3 -44 -1 -53 10 -7 8 -23 15 -36 15 -19 0 -24 -5 -24 -24 0 -17 -9 -27 -31
-36 -29 -12 -32 -11 -73 29 -38 38 -46 42 -65 32 -11 -7 -21 -18 -21 -25 0 -7
11 -23 25 -36 13 -12 22 -27 19 -31 -3 -5 -23 -9 -45 -9 -25 0 -57 10 -84 26
-29 16 -52 23 -65 19 -11 -3 -20 -13 -20 -21 0 -8 7 -17 15 -20 8 -4 15 -10
15 -15 0 -5 -4 -9 -10 -9 -5 0 -31 20 -56 45 -37 37 -49 43 -60 34 -8 -6 -14
-22 -14 -35 0 -13 8 -28 18 -33 16 -10 16 -10 -1 -11 -10 0 -37 18 -59 40 -23
22 -50 40 -59 40 -10 0 -21 -4 -24 -10 -3 -5 -1 -19 5 -30 6 -11 9 -20 6 -20
-3 0 -16 5 -30 12 -14 6 -28 20 -32 31 -3 11 -1 23 6 27 9 5 3 17 -20 39 -26
24 -36 29 -47 19 -10 -8 -17 -8 -25 0 -6 6 -9 37 -6 76 3 55 9 71 30 92 21 21
38 27 91 31 50 4 74 2 99 -11 18 -9 40 -20 48 -25 8 -4 29 -15 45 -24 17 -8
36 -26 42 -39 7 -12 13 -40 13 -61 0 -25 5 -40 16 -44 8 -3 21 0 27 6 7 7 12
38 12 69 0 50 -4 61 -31 88 -17 18 -47 38 -67 45 -21 7 -37 17 -37 21 0 5 -21
18 -47 29 -40 17 -61 20 -122 16 l-74 -6 69 70 c37 38 72 69 76 69 5 0 25 11
46 24 20 12 78 45 127 72 l90 48 180 -1 c158 0 186 -3 230 -21 28 -11 75 -30
105 -41 30 -12 69 -29 85 -37 25 -13 44 -15 103 -7 49 6 75 6 82 -1 8 -8 13
-8 18 0 4 5 27 15 52 21 25 7 101 27 170 46 69 18 146 45 172 59 26 14 59 34
75 45 15 10 40 25 55 33 16 7 52 41 80 74 29 33 64 72 78 86 14 14 54 59 90
99 35 40 72 84 81 98 10 15 20 57 24 102 3 42 1 117 -4 166 -6 50 -15 127 -21
173 -6 45 -11 126 -11 180 0 53 -5 118 -11 145 -8 37 -15 48 -33 53 -13 3 -29
3 -34 -1 -7 -4 -11 -60 -11 -151 0 -120 -3 -146 -15 -150 -8 -4 -18 -24 -22
-46 -4 -26 -9 -35 -13 -27 -4 8 -13 48 -20 89 -6 41 -16 85 -21 98 -5 12 -14
22 -20 22 -6 0 -13 -9 -16 -20 -4 -15 -9 -18 -18 -10 -9 7 -16 6 -24 -4 -7 -8
-15 -41 -19 -73 l-6 -58 -19 75 c-10 41 -23 93 -29 115 -5 22 -13 62 -16 89
-4 27 -12 51 -19 53 -7 3 -15 -8 -19 -23 -4 -14 1 -74 10 -133 10 -58 19 -115
21 -126 3 -16 -1 -14 -20 9 -12 16 -34 58 -48 95 -14 36 -32 89 -40 116 -12
42 -18 50 -38 50 -22 0 -24 -4 -27 -64 -2 -36 2 -69 7 -74 6 -6 11 -23 11 -38
0 -15 7 -32 15 -39 8 -7 15 -21 15 -31 0 -10 -4 -20 -8 -23 -4 -2 -13 7 -19
22 -6 15 -13 35 -17 45 -3 9 -13 20 -21 24 -9 3 -21 1 -27 -5 -8 -8 -7 -20 2
-44 7 -18 21 -40 31 -49 17 -15 17 -18 2 -23 -9 -4 -20 -3 -24 1 -4 4 -14 30
-23 57 -9 26 -21 57 -27 67 -5 11 -16 19 -25 19 -8 0 -19 -11 -24 -25 -6 -17
-14 -23 -25 -19 -14 6 -14 9 1 33 9 14 27 37 39 51 12 14 36 46 54 72 17 26
75 132 128 235 53 103 102 200 110 216 8 15 33 37 56 48 23 12 62 36 87 55 25
18 75 48 110 67 36 19 81 42 100 53 19 10 51 24 70 31 20 7 79 13 140 12 79 0
113 -4 137 -17 18 -9 72 -55 122 -100 49 -46 109 -97 133 -112 24 -16 73 -57
109 -92 36 -35 85 -86 108 -115 23 -29 77 -79 119 -111 42 -32 106 -87 142
-122 36 -34 98 -88 138 -119 40 -31 94 -71 120 -89 26 -19 70 -55 97 -81 28
-25 70 -62 95 -81 25 -18 63 -50 85 -71 22 -20 78 -58 125 -84 47 -27 119 -71
160 -98 41 -28 111 -80 155 -116 44 -36 102 -84 128 -106 27 -22 57 -45 67
-51 11 -6 51 -37 91 -70 40 -32 129 -115 199 -184 70 -69 166 -161 213 -204
48 -44 117 -102 154 -128 38 -27 81 -57 97 -68 16 -10 63 -51 105 -92 42 -40
87 -80 101 -89 14 -9 34 -34 45 -55 11 -22 23 -41 27 -44 4 -3 14 -32 23 -65
8 -33 15 -80 15 -107 0 -26 3 -49 8 -51 4 -3 7 -61 6 -129 0 -67 -7 -162 -16
-209 -9 -48 -23 -97 -31 -110 -8 -13 -20 -40 -26 -60 -7 -20 -21 -45 -32 -55
-11 -10 -31 -41 -45 -69 -13 -27 -37 -69 -52 -92 -15 -23 -54 -76 -86 -119
-32 -42 -86 -105 -119 -140 -49 -54 -57 -67 -47 -79 7 -8 20 -15 29 -15 9 0
37 21 62 48 25 26 68 76 96 112 28 36 57 79 66 95 8 17 25 39 37 50 12 11 40
56 62 100 23 44 51 93 64 108 13 16 24 34 24 41 0 7 14 41 31 75 25 50 34 87
46 184 8 68 12 155 9 197 -3 41 -13 118 -22 170 -10 58 -28 120 -47 160 -24
50 -57 90 -142 175 -61 61 -131 123 -155 139 -25 16 -59 39 -76 50 -18 12 -84
67 -147 123 -63 57 -157 147 -208 201 -52 54 -135 132 -184 173 -50 42 -116
95 -148 118 -32 24 -71 53 -85 66 -15 13 -57 48 -93 78 -36 30 -85 67 -109 83
-24 16 -71 44 -104 62 -34 19 -93 55 -133 82 -39 27 -98 69 -130 94 -32 25
-86 69 -121 98 -35 29 -72 61 -84 72 -11 10 -45 36 -76 57 -31 22 -104 84
-162 138 -58 53 -128 115 -157 137 -28 21 -68 50 -88 64 -20 14 -47 44 -61 67
-14 23 -53 66 -87 96 -34 30 -75 66 -92 79 -16 13 -46 34 -66 46 -19 12 -62
50 -95 84 -32 34 -73 72 -89 83 -17 11 -50 31 -73 43 -37 21 -56 24 -135 23
-51 -1 -105 -4 -122 -6 -16 -3 -52 -11 -80 -17 -27 -6 -79 -25 -115 -42 -36
-16 -76 -37 -90 -46 -14 -10 -35 -19 -47 -23 -20 -4 -22 -2 -17 21 4 15 28 59
53 97 26 39 63 102 81 140 19 39 48 93 64 120 16 28 49 91 74 140 24 50 61
117 80 150 20 33 49 76 64 96 15 20 28 40 28 43 0 4 32 55 71 114 39 59 82
118 95 133 13 14 24 29 24 33 0 5 26 47 57 93 31 47 69 108 85 136 16 29 35
68 44 87 8 19 19 42 24 50 5 8 17 27 25 43 12 20 13 32 5 47 -6 11 -36 35 -66
53 -30 17 -78 44 -106 60 -29 15 -57 27 -63 27 -6 0 -25 -15 -43 -33 -18 -18
-32 -38 -32 -45 0 -7 -17 -29 -37 -48 -21 -20 -57 -66 -80 -102 -24 -36 -43
-69 -43 -75 0 -5 -13 -37 -29 -71 -16 -33 -34 -72 -40 -86 -6 -14 -19 -36 -29
-50 -9 -14 -26 -40 -37 -58 -11 -19 -48 -76 -82 -129 -35 -52 -63 -101 -63
-108 0 -6 -9 -20 -21 -31 -11 -10 -27 -32 -35 -49 -8 -16 -23 -45 -33 -62 -10
-18 -23 -38 -29 -45 -5 -7 -28 -47 -49 -88 -22 -41 -62 -108 -89 -148 -27 -41
-60 -92 -73 -115 -13 -23 -39 -71 -57 -106 -19 -35 -34 -68 -34 -72 0 -5 -20
-35 -45 -68 -25 -32 -45 -63 -45 -68 0 -4 -14 -28 -31 -53 -16 -25 -41 -66
-54 -91 l-23 -45 -189 -63 c-103 -35 -222 -81 -265 -102 -43 -21 -87 -39 -98
-39 -11 0 -37 -9 -57 -20 -21 -11 -52 -20 -69 -20 -22 0 -48 -12 -81 -39 -27
-21 -61 -53 -76 -70 -15 -18 -30 -45 -34 -59 -3 -15 -29 -72 -58 -127 -29 -55
-58 -118 -65 -140 -7 -22 -28 -69 -47 -105 -20 -36 -51 -94 -71 -130 -20 -36
-46 -79 -59 -96 -13 -17 -23 -34 -23 -38 0 -4 -26 -50 -57 -102 -32 -53 -66
-110 -77 -127 -10 -18 -27 -44 -36 -58 -10 -14 -25 -66 -33 -115 -8 -49 -24
-127 -35 -174 -12 -47 -26 -121 -32 -165 -8 -55 -8 -94 -2 -123 6 -24 19 -54
30 -65 20 -22 20 -22 0 -102 -14 -54 -18 -98 -15 -137 4 -41 14 -73 37 -109
17 -28 29 -57 26 -64 -3 -9 -17 -12 -45 -8 -36 5 -47 1 -86 -29 -44 -35 -46
-35 -83 -22 -20 7 -45 13 -55 14 -10 0 -36 -18 -57 -41 -30 -33 -41 -39 -56
-31 -11 5 -32 8 -49 7 -16 -1 -38 -3 -47 -4 -10 0 -32 -14 -51 -31 l-34 -29
-66 128 c-36 70 -84 155 -105 187 -21 32 -52 79 -68 103 -16 24 -37 57 -46 72
-9 15 -27 43 -40 62 -13 19 -49 70 -80 113 -31 44 -74 97 -95 120 -21 22 -78
75 -128 118 -49 44 -110 99 -135 124 -25 25 -74 64 -110 86 -36 23 -100 59
-144 80 -43 21 -122 55 -175 76 -53 21 -137 52 -186 68 -50 17 -107 38 -128
46 -21 9 -61 21 -90 27 -29 6 -104 10 -167 9 -63 0 -163 -5 -221 -10 -59 -6
-124 -17 -144 -26 -21 -8 -83 -27 -139 -40 -56 -14 -137 -37 -181 -51 -44 -14
-103 -36 -132 -49 -28 -13 -59 -24 -67 -24 -8 0 -17 -4 -20 -9 -4 -5 -25 -12
-49 -16 -23 -4 -55 -10 -72 -15 -16 -4 -57 -16 -90 -25 -33 -9 -105 -34 -160
-55 -55 -21 -133 -48 -173 -60 -40 -12 -75 -20 -78 -17 -3 2 4 49 15 103 11
55 30 167 41 249 12 83 31 179 42 215 12 36 22 70 23 75 2 6 47 16 101 24 53
7 148 23 209 36 61 12 141 35 176 49 36 14 69 26 73 26 4 0 40 14 79 31 40 16
81 34 92 39 11 4 66 27 122 50 56 23 132 58 168 78 36 21 78 44 93 52 15 9 75
48 134 88 59 40 111 72 116 72 5 0 19 11 32 25 13 14 28 25 32 25 5 0 30 17
56 38 26 21 99 82 163 134 63 53 149 126 190 163 41 37 115 109 164 160 50 50
131 136 180 189 50 54 92 103 94 109 2 6 8 16 13 22 5 5 46 62 90 125 45 63
133 201 195 305 63 105 154 271 203 371 l88 181 128 119 c71 65 176 166 234
224 58 58 142 146 185 196 44 51 98 117 120 148 22 31 64 87 93 126 28 38 52
73 52 77 0 4 8 16 19 27 10 12 56 86 102 166 47 80 104 184 127 232 23 48 42
90 42 93 0 3 16 40 35 81 19 41 35 76 35 78 0 3 15 37 34 78 18 40 39 91 46
113 7 22 18 49 25 61 8 12 21 48 30 80 10 32 23 69 31 81 7 12 18 41 24 65 6
24 15 59 20 78 5 19 25 99 44 177 20 79 38 162 42 185 3 24 10 57 15 73 4 17
10 57 13 90 2 33 11 96 20 140 8 44 22 125 31 180 9 55 21 116 26 135 5 19 15
76 23 125 8 50 18 151 21 225 3 74 8 158 11 185 2 28 6 94 8 147 3 53 7 127
11 165 3 37 8 124 10 193 3 69 7 283 8 475 1 232 -2 389 -11 465 -7 63 -17
180 -22 260 -5 80 -14 215 -20 300 -6 85 -18 223 -27 305 -8 83 -26 193 -40
245 -14 52 -31 118 -39 145 -7 28 -22 84 -33 125 -11 41 -35 129 -55 195 -20
66 -52 162 -73 215 -20 52 -45 115 -56 140 -10 25 -33 72 -49 105 -17 33 -63
126 -104 206 -41 81 -120 216 -176 300 -57 85 -126 182 -153 215 -28 34 -83
100 -122 147 -41 47 -73 94 -73 105 0 12 14 56 31 99 17 43 48 138 69 213 24
81 46 189 56 270 11 91 14 171 11 245 -3 61 -8 126 -11 145 -3 19 -8 49 -12
65 -3 17 -19 75 -36 130 -17 55 -45 132 -64 172 -18 39 -38 74 -43 78 -6 3
-11 15 -11 25 0 11 -35 55 -79 98 -43 44 -106 100 -139 126 -33 25 -71 50 -84
56 -12 5 -30 14 -38 20 -8 5 -49 25 -90 44 -42 18 -112 41 -155 49 -44 9 -100
18 -125 21 -25 3 -94 10 -155 16 -60 6 -240 12 -400 14z m0 -89 c165 -2 354
-9 420 -15 66 -5 158 -17 205 -26 47 -8 108 -24 135 -34 28 -10 84 -38 126
-62 42 -23 96 -59 120 -78 24 -19 70 -61 101 -92 31 -32 75 -91 97 -130 22
-40 54 -111 71 -158 17 -47 42 -134 55 -195 19 -91 23 -134 21 -250 -2 -77
-10 -191 -19 -252 -9 -62 -30 -151 -46 -198 -17 -47 -28 -85 -26 -85 3 0 -4
-24 -15 -52 -11 -29 -25 -63 -31 -75 -11 -20 -19 -15 -153 105 -77 69 -143
128 -146 131 -3 3 -30 27 -62 54 -31 26 -100 76 -153 112 -54 36 -101 65 -106
65 -4 0 -27 13 -51 28 -24 16 -129 66 -235 111 -105 46 -209 87 -230 93 -21 5
-83 19 -138 29 -72 14 -148 20 -270 21 -125 2 -194 -2 -260 -15 -49 -10 -103
-20 -119 -24 -24 -5 -27 -3 -20 10 5 8 32 39 59 69 28 29 80 91 116 138 36 47
89 129 118 182 44 83 53 108 58 169 l6 71 -76 72 c-42 40 -89 79 -104 87 -16
7 -42 24 -59 36 -16 12 -54 28 -84 34 -35 7 -93 9 -160 5 -58 -3 -121 -9 -140
-12 -33 -5 -34 -4 -15 11 11 9 31 18 45 21 14 3 45 11 70 19 25 8 99 24 165
35 66 11 190 26 275 34 108 10 246 13 455 11z m-809 -209 c108 -2 114 -4 169
-37 31 -19 83 -58 116 -87 45 -41 59 -60 59 -81 0 -16 -5 -43 -12 -62 -6 -19
-29 -63 -50 -98 -21 -34 -38 -65 -38 -68 0 -3 -33 -48 -72 -101 -40 -54 -118
-143 -174 -199 -55 -56 -112 -107 -127 -112 -15 -6 -76 -16 -136 -22 l-110
-12 -68 47 c-37 25 -91 63 -119 84 -28 20 -80 57 -115 82 -35 25 -86 59 -114
75 -27 16 -62 34 -76 40 -14 5 -71 27 -125 48 -54 22 -110 44 -124 49 -14 6
-40 18 -58 27 -18 9 -31 22 -30 30 2 8 28 27 58 42 30 15 91 44 135 65 44 21
112 52 150 70 39 19 108 49 155 68 47 19 123 48 170 65 47 16 117 38 155 47
39 8 115 22 170 29 55 8 150 13 211 11z m-1068 -197 c2 1 1 -3 -2 -8 -4 -5 -3
-11 1 -14 5 -2 3 -2 -4 -1 -6 2 -13 -1 -15 -5 -2 -4 -28 -22 -58 -38 -30 -17
-90 -49 -133 -72 -43 -23 -87 -41 -99 -39 -12 2 -23 8 -25 14 -2 5 16 20 40
32 24 12 50 22 56 22 7 0 29 11 49 25 20 14 44 25 52 25 9 0 20 4 26 9 5 5 32
19 59 30 28 11 51 20 53 20z m-938 -184 c138 -1 242 -7 268 -14 l43 -12 -23
-18 c-13 -10 -39 -26 -58 -37 -19 -10 -43 -27 -53 -36 -11 -9 -47 -33 -81 -54
-33 -21 -63 -40 -66 -43 -3 -3 -23 -18 -45 -32 -22 -15 -92 -60 -155 -101 -68
-45 -157 -116 -219 -174 -57 -55 -139 -142 -181 -195 -43 -53 -90 -117 -106
-143 -16 -26 -41 -66 -56 -89 -15 -23 -31 -49 -35 -57 -4 -8 -31 -58 -61 -110
-30 -52 -61 -106 -70 -120 l-15 -24 -18 54 c-10 30 -29 102 -43 160 -13 58
-27 133 -30 167 -3 34 -1 111 4 170 9 93 16 118 48 183 20 40 44 88 54 105 9
16 46 65 82 107 36 42 82 89 103 105 21 15 49 38 63 51 14 12 62 43 108 68 60
33 106 50 165 61 45 8 98 19 117 23 19 4 136 6 260 5z m471 -35 c9 0 27 -8 39
-18 l23 -19 -85 -55 c-47 -31 -96 -62 -109 -69 -13 -6 -44 -27 -69 -46 -25
-19 -76 -56 -113 -83 -37 -28 -70 -50 -72 -50 -3 0 -35 -20 -71 -45 -37 -25
-110 -80 -163 -122 -53 -42 -146 -126 -208 -186 -61 -60 -115 -113 -120 -116
-5 -3 -38 -42 -73 -86 -36 -44 -84 -105 -106 -135 -22 -30 -61 -98 -87 -150
-25 -52 -55 -117 -67 -145 -20 -46 -23 -49 -35 -31 -9 12 -11 26 -5 40 4 12
25 58 46 102 21 43 61 117 89 164 27 47 65 107 83 133 17 26 32 51 32 56 0 4
19 30 43 58 23 28 69 84 102 125 33 40 71 82 85 93 14 11 52 45 85 76 33 31
125 100 205 153 80 52 193 128 253 168 59 40 130 87 157 103 27 17 50 33 50
38 0 4 6 7 14 7 8 0 24 9 37 20 13 10 31 19 40 20z m199 -50 c3 0 37 -11 75
-24 39 -13 111 -38 160 -56 50 -17 135 -54 190 -80 55 -27 142 -79 194 -117
51 -37 110 -79 131 -93 20 -14 50 -36 66 -48 27 -22 28 -25 11 -36 -9 -7 -52
-19 -94 -26 -43 -7 -82 -17 -87 -21 -6 -5 -19 -9 -31 -9 -12 0 -25 -4 -30 -9
-6 -5 -57 -28 -115 -51 -58 -23 -107 -45 -110 -50 -3 -4 -45 -29 -95 -55 -49
-26 -109 -58 -133 -72 -24 -14 -53 -41 -66 -60 -13 -18 -50 -58 -82 -87 -33
-29 -69 -58 -81 -64 -12 -7 -31 -12 -42 -12 -18 0 -21 -6 -21 -39 0 -32 -7
-46 -35 -72 -19 -19 -35 -38 -35 -44 0 -6 -12 -27 -27 -47 -16 -19 -73 -90
-128 -157 -55 -68 -113 -139 -128 -159 -16 -20 -39 -48 -53 -63 -13 -14 -24
-29 -24 -33 0 -4 -13 -26 -28 -49 -16 -23 -40 -60 -54 -82 -14 -22 -41 -67
-60 -100 -19 -33 -48 -87 -63 -120 -16 -33 -31 -62 -33 -65 -2 -2 -6 0 -10 6
-4 6 -32 27 -62 46 -30 19 -84 61 -120 92 -36 32 -110 99 -165 149 -55 51
-116 111 -135 135 -19 24 -48 56 -64 72 -15 15 -36 40 -46 55 -16 25 -16 29 7
93 13 37 28 71 32 77 5 5 12 21 16 35 4 14 31 70 61 125 30 55 67 114 82 130
15 17 63 72 106 122 42 51 114 126 159 165 44 40 104 94 131 119 28 25 94 77
146 115 52 38 115 84 140 102 25 18 70 50 100 71 30 21 98 67 152 102 53 35
140 92 194 127 54 34 100 62 104 62z m1831 -356 c115 -3 188 -11 277 -29 82
-18 154 -41 231 -75 61 -28 114 -50 119 -50 4 0 57 -25 118 -56 60 -31 145
-79 189 -107 44 -28 98 -64 120 -81 21 -17 111 -96 200 -175 88 -79 175 -162
193 -184 23 -28 31 -46 26 -61 -3 -12 -19 -48 -35 -81 -16 -33 -44 -87 -62
-120 -17 -33 -39 -71 -48 -85 -9 -14 -34 -54 -56 -90 -22 -36 -61 -103 -88
-150 -26 -47 -78 -130 -115 -185 -36 -55 -82 -122 -101 -149 -19 -27 -97 -130
-174 -230 -77 -100 -152 -194 -165 -211 -14 -16 -48 -54 -76 -85 -28 -30 -60
-68 -72 -84 -12 -15 -61 -70 -108 -122 -47 -51 -93 -101 -101 -111 -13 -16
-13 -14 -9 22 2 22 11 96 20 165 9 69 17 190 16 269 0 79 -5 194 -10 255 -6
61 -18 143 -26 181 -9 39 -24 106 -35 150 -10 44 -32 115 -49 157 -16 43 -39
97 -51 120 -12 24 -50 86 -84 138 -34 52 -75 116 -91 142 -16 26 -56 85 -88
133 -33 47 -67 91 -76 98 -10 7 -34 32 -55 57 -20 25 -85 95 -144 156 -58 62
-117 125 -131 140 -14 16 -51 53 -83 82 -31 29 -57 56 -57 60 0 4 12 16 27 27
15 11 34 27 43 35 8 8 29 25 45 36 17 12 68 33 115 48 47 15 132 33 190 41 69
9 159 12 261 9z m-902 -155 c14 1 33 -6 43 -16 10 -9 18 -24 18 -34 0 -10 -39
-52 -89 -96 -49 -43 -121 -104 -159 -135 -39 -32 -76 -58 -81 -58 -6 0 -14 -6
-18 -13 -4 -6 -26 -25 -48 -42 -22 -16 -51 -39 -65 -51 -14 -12 -74 -66 -135
-120 -60 -55 -216 -203 -345 -330 -129 -127 -285 -283 -346 -345 -61 -63 -128
-135 -150 -160 -21 -26 -71 -83 -111 -127 l-71 -80 -40 21 c-22 12 -50 29 -63
38 -22 15 -22 18 -9 50 8 19 35 71 60 117 25 45 56 102 70 125 14 24 39 65 55
91 17 27 57 82 90 123 33 41 71 90 85 108 14 18 63 79 110 136 47 56 109 129
139 163 29 33 58 71 63 83 6 11 26 29 44 39 19 10 34 21 34 25 0 3 51 46 113
95 61 49 141 109 177 133 36 24 83 61 105 81 22 21 51 41 65 45 14 4 64 23
112 41 48 19 125 41 170 50 46 8 92 19 103 24 11 5 27 11 35 13 8 3 26 6 39 6z
m149 -109 c8 0 58 -44 111 -98 53 -53 134 -138 181 -187 47 -50 116 -124 154
-165 37 -41 105 -128 151 -195 45 -66 112 -167 147 -225 36 -58 73 -127 83
-155 10 -27 22 -54 25 -60 4 -5 17 -41 29 -79 11 -38 21 -78 21 -88 0 -11 5
-28 11 -39 6 -12 19 -71 30 -132 11 -62 24 -169 29 -239 6 -79 6 -180 0 -265
-5 -76 -14 -167 -20 -203 -6 -36 -21 -103 -32 -150 -11 -47 -29 -99 -39 -115
-10 -17 -39 -51 -65 -75 -26 -25 -58 -52 -71 -61 -22 -15 -28 -13 -101 22 -42
20 -124 57 -182 82 -58 25 -136 57 -175 72 -38 15 -115 48 -170 72 -55 25
-109 49 -120 54 -11 4 -92 38 -180 75 -88 37 -212 88 -275 114 -63 26 -135 56
-160 67 -25 11 -65 28 -90 38 -25 10 -58 23 -75 30 -16 7 -48 18 -70 25 -22 7
-67 24 -100 37 -33 14 -94 38 -135 53 -41 16 -113 46 -160 67 -47 22 -114 53
-149 69 -36 16 -100 47 -143 69 -43 22 -79 45 -79 50 0 6 53 71 118 145 65 74
251 267 413 429 162 162 331 326 375 364 44 39 91 80 105 93 14 12 36 33 51
46 14 13 49 43 79 68 30 25 64 54 76 65 12 11 43 36 70 55 27 19 94 72 149
117 55 44 116 97 134 117 19 20 41 36 49 36z m2296 -610 c1 0 45 -49 97 -108
52 -60 117 -139 144 -177 28 -39 64 -92 80 -120 17 -28 39 -64 51 -80 12 -17
41 -66 64 -110 24 -44 74 -141 111 -215 37 -74 81 -165 98 -202 17 -37 31 -73
31 -81 0 -7 4 -17 8 -22 5 -6 19 -35 30 -65 12 -30 39 -116 61 -190 22 -74 51
-178 65 -230 13 -52 34 -127 45 -166 11 -39 27 -118 35 -175 9 -57 20 -162 26
-234 6 -71 15 -215 20 -320 6 -104 14 -228 20 -275 5 -47 15 -150 21 -230 6
-80 11 -226 11 -325 0 -99 -3 -252 -6 -340 -3 -88 -11 -234 -16 -325 -5 -91
-14 -259 -20 -375 -6 -115 -15 -253 -21 -305 -6 -52 -19 -149 -30 -215 -10
-66 -25 -145 -33 -175 -8 -30 -17 -73 -20 -95 -3 -22 -7 -53 -10 -70 -3 -16
-15 -88 -26 -160 -12 -71 -29 -164 -39 -205 -10 -41 -28 -120 -40 -175 -13
-55 -38 -145 -56 -200 -19 -55 -55 -149 -80 -210 -25 -60 -70 -169 -100 -242
-30 -72 -75 -176 -101 -230 -26 -54 -57 -114 -69 -133 -12 -19 -50 -82 -83
-140 -34 -58 -105 -166 -159 -241 -54 -75 -141 -188 -194 -250 -53 -63 -139
-154 -191 -204 -51 -49 -126 -119 -166 -154 -40 -36 -74 -67 -76 -69 -3 -2 2
17 9 42 8 26 19 95 26 154 8 70 9 176 5 307 -4 110 -13 227 -20 260 -8 33 -26
101 -41 150 -15 50 -33 105 -41 122 -8 18 -30 77 -48 130 -19 54 -53 143 -76
198 -23 55 -73 163 -110 240 -51 105 -94 173 -170 275 -57 74 -130 168 -164
209 -33 41 -103 122 -155 180 -52 58 -119 132 -149 163 -49 51 -54 59 -41 74
7 9 49 44 93 77 44 33 105 84 135 113 31 28 76 69 101 89 25 21 89 81 143 134
54 53 140 139 191 191 51 52 111 115 133 140 22 25 71 86 110 135 39 50 98
133 132 185 35 52 87 144 117 205 30 60 65 153 79 205 14 52 30 142 37 200 8
79 8 138 0 240 -7 74 -18 171 -26 215 -8 44 -19 107 -25 140 -6 33 -22 96 -36
140 -13 44 -38 107 -55 139 -17 33 -43 80 -57 105 -15 25 -40 62 -55 81 -16
19 -48 54 -71 78 -23 23 -64 58 -92 78 -27 19 -93 63 -146 97 -53 34 -104 67
-115 74 -10 7 -95 53 -188 104 -93 50 -184 100 -202 110 -18 10 -48 22 -66 27
-30 8 -33 12 -31 43 1 19 17 68 35 111 29 67 49 93 165 215 72 76 142 152 155
168 12 17 63 77 113 135 50 58 136 161 191 230 55 69 140 179 190 245 49 66
109 152 133 190 24 39 63 100 87 136 23 36 59 95 79 130 20 35 45 78 55 94 10
17 25 41 33 55 7 14 24 42 36 64 12 21 42 78 67 127 24 49 46 89 48 89z
m-4952 -172 c6 -2 16 -11 22 -20 7 -12 3 -52 -14 -140 -22 -106 -25 -150 -24
-313 0 -143 4 -207 17 -257 9 -38 33 -103 52 -145 20 -43 43 -91 52 -108 9
-16 41 -68 71 -115 30 -47 76 -116 101 -155 25 -38 63 -89 84 -113 20 -24 37
-54 37 -67 0 -13 -5 -47 -11 -74 -6 -28 -22 -67 -36 -88 -15 -21 -66 -116
-115 -212 -48 -95 -88 -178 -88 -183 0 -5 -10 -31 -21 -59 -12 -27 -25 -47
-29 -44 -5 3 -21 33 -38 67 -16 35 -48 110 -70 168 -22 58 -50 134 -61 170
-11 36 -31 130 -45 210 -14 80 -27 177 -30 215 -3 39 -11 170 -18 292 -8 164
-8 233 0 260 6 21 16 74 22 118 6 44 19 116 27 160 9 44 19 100 23 125 4 25
13 68 20 95 7 28 21 82 32 120 11 39 21 76 24 83 2 8 9 12 16 10z m105 -138
c2 0 28 -26 56 -57 29 -31 77 -82 107 -112 30 -31 95 -93 143 -138 49 -45 133
-115 188 -155 54 -40 99 -80 99 -88 0 -9 -15 -51 -34 -95 -18 -44 -45 -105
-58 -135 -14 -30 -44 -102 -67 -160 -23 -58 -51 -124 -61 -146 -11 -23 -22
-54 -26 -68 -3 -15 -11 -25 -17 -23 -6 2 -37 37 -69 78 -31 41 -57 78 -58 82
0 5 -22 41 -48 80 -26 40 -62 99 -80 132 -17 33 -47 97 -67 143 -19 46 -35 95
-35 110 0 15 -4 43 -10 62 -5 19 -10 93 -11 165 0 71 4 162 11 200 6 39 16 82
22 98 6 15 12 27 15 27z m681 -590 c4 -1 25 -11 47 -24 22 -12 41 -30 43 -39
2 -9 -21 -46 -50 -81 -29 -35 -66 -81 -83 -102 -16 -21 -51 -69 -77 -107 -27
-38 -48 -73 -48 -78 0 -5 -4 -9 -10 -9 -5 0 -10 1 -10 3 0 1 9 29 20 60 11 32
25 66 30 75 5 9 28 64 50 121 23 57 50 121 61 142 10 21 23 39 27 39z m190
-100 c2 0 43 -21 91 -47 47 -25 93 -50 101 -54 8 -5 56 -25 105 -45 50 -20 95
-40 100 -44 6 -4 98 -42 205 -84 107 -43 223 -88 258 -102 34 -13 67 -24 72
-24 5 0 35 -12 67 -26 32 -14 72 -32 88 -39 17 -8 64 -28 105 -45 41 -18 93
-41 115 -52 22 -10 90 -39 150 -63 61 -23 169 -68 240 -99 72 -31 139 -61 149
-67 11 -6 49 -22 85 -34 36 -12 91 -34 121 -48 31 -14 79 -35 108 -46 29 -12
74 -32 100 -45 27 -14 54 -31 60 -39 10 -12 -3 -29 -75 -99 -49 -47 -135 -127
-193 -179 -58 -51 -161 -147 -230 -213 -69 -67 -208 -196 -309 -288 -101 -93
-191 -168 -199 -168 -8 0 -53 33 -101 73 -48 40 -124 99 -170 132 -46 33 -105
77 -132 98 -26 20 -51 37 -53 37 -3 0 -45 30 -93 66 -48 36 -95 68 -103 71 -8
3 -35 22 -60 43 -25 20 -74 57 -108 81 -35 24 -92 61 -125 82 -34 21 -81 53
-105 70 -24 18 -60 46 -81 62 -22 17 -85 66 -142 110 -56 44 -121 96 -143 116
-23 19 -68 56 -101 81 -33 25 -97 83 -142 128 -46 46 -83 90 -83 98 0 8 21 49
47 91 26 42 58 92 70 111 12 19 32 49 43 65 11 17 50 71 87 120 36 50 84 113
106 140 22 28 47 56 56 63 8 6 17 12 19 12z m-483 -700 c5 -1 39 -28 75 -61
36 -33 99 -87 140 -120 41 -34 124 -100 184 -147 59 -48 130 -105 155 -127 26
-22 72 -57 102 -78 30 -21 88 -60 129 -87 41 -27 119 -80 172 -117 54 -37 141
-99 195 -138 53 -38 116 -83 139 -100 23 -16 88 -63 145 -104 57 -41 146 -108
197 -149 50 -41 92 -80 92 -86 0 -7 -118 -113 -262 -236 -144 -124 -282 -240
-307 -259 -25 -19 -48 -38 -51 -41 -3 -3 -21 -17 -40 -30 -19 -14 -61 -49 -93
-78 -32 -29 -62 -50 -66 -47 -5 3 -24 31 -41 63 -18 31 -54 89 -80 127 -27 39
-64 87 -84 109 -20 21 -36 41 -36 43 0 3 -35 48 -77 100 -43 53 -87 107 -97
122 -11 14 -36 44 -55 67 -20 22 -57 65 -83 96 -26 30 -67 79 -90 108 -24 29
-75 98 -115 154 -40 55 -81 119 -92 141 -10 22 -29 67 -41 100 -12 33 -28 80
-35 105 -7 25 -21 72 -31 105 -13 46 -18 97 -18 215 -1 114 4 176 17 233 9 43
23 87 30 97 6 11 16 20 22 20z m-154 -400 c5 -115 12 -153 42 -255 20 -66 43
-140 52 -164 8 -25 36 -81 61 -125 24 -45 62 -104 82 -133 21 -28 49 -64 63
-80 13 -15 43 -53 65 -83 23 -30 77 -95 120 -145 44 -49 122 -144 174 -210 52
-66 115 -145 140 -175 25 -30 53 -64 60 -74 15 -19 14 -19 -17 -2 -18 9 -59
37 -90 63 -32 25 -78 65 -103 87 -25 23 -77 68 -115 101 -39 33 -115 103 -170
155 -55 52 -104 102 -110 111 -5 9 -48 58 -95 108 -46 51 -94 107 -105 126
-11 18 -38 60 -60 94 -22 34 -70 108 -106 164 -36 56 -68 112 -72 125 -3 13 1
44 10 70 8 26 25 70 38 97 13 28 35 79 50 115 14 36 31 74 37 85 7 11 19 34
27 50 15 29 16 25 22 -105z m3072 50 c21 0 27 -5 27 -21 0 -11 -21 -68 -46
-127 -25 -59 -72 -161 -106 -226 -33 -66 -80 -154 -105 -195 -25 -42 -71 -114
-101 -161 -31 -47 -77 -114 -103 -150 -26 -36 -66 -87 -88 -115 -23 -27 -69
-84 -103 -125 -35 -42 -75 -91 -91 -109 l-27 -33 -118 109 c-64 60 -136 127
-160 148 l-43 39 83 83 c45 46 86 83 90 83 4 0 24 18 45 40 21 23 79 76 129
120 51 43 114 101 140 127 27 27 81 78 119 114 39 35 120 109 180 164 60 55
141 130 179 167 53 50 78 68 99 68z m118 -50 c6 0 98 -45 206 -100 107 -55
228 -122 269 -148 41 -26 116 -74 167 -107 51 -34 114 -78 139 -99 25 -21 63
-61 84 -90 22 -28 44 -57 51 -63 6 -7 34 -57 61 -110 27 -54 59 -129 70 -168
11 -38 28 -119 37 -180 9 -60 20 -132 26 -160 5 -27 11 -104 13 -171 1 -66 -1
-152 -6 -190 -5 -38 -18 -105 -30 -149 -12 -44 -39 -120 -61 -170 -22 -49 -62
-126 -88 -170 -26 -44 -69 -110 -95 -145 -26 -36 -59 -79 -73 -96 -15 -18 -44
-54 -66 -80 -22 -27 -67 -78 -100 -114 -32 -36 -120 -126 -195 -200 -74 -75
-173 -170 -220 -212 -47 -41 -134 -116 -195 -166 -60 -50 -117 -92 -126 -92
-9 0 -48 30 -85 66 -38 36 -89 82 -114 102 -25 20 -106 88 -180 151 -74 64
-137 116 -139 118 -2 2 19 51 47 110 28 60 60 135 70 168 11 33 25 83 30 110
6 28 13 93 16 146 4 58 1 144 -8 220 -8 68 -21 149 -29 179 -8 30 -23 82 -32
115 -10 33 -34 92 -53 130 -20 39 -59 102 -87 141 -27 39 -63 88 -79 108 -26
33 -28 39 -16 61 7 13 48 65 91 116 43 50 118 144 166 208 49 64 124 170 168
236 43 66 114 186 157 266 42 81 103 207 134 280 31 74 58 137 61 142 2 4 9 7
14 7z m-3386 -474 c18 -21 39 -50 46 -65 8 -14 24 -39 36 -54 13 -16 23 -33
23 -38 0 -5 27 -46 60 -91 34 -46 73 -99 88 -118 15 -19 47 -57 72 -84 25 -27
93 -97 151 -155 59 -58 163 -156 231 -217 68 -61 144 -124 169 -139 24 -15 85
-64 134 -109 50 -45 107 -95 128 -111 20 -17 37 -34 37 -38 0 -4 -154 -163
-342 -352 -189 -190 -348 -345 -355 -345 -7 0 -13 4 -13 8 0 5 -28 40 -62 79
-35 38 -88 98 -118 132 -30 35 -72 90 -92 123 -21 34 -44 68 -51 77 -8 9 -27
39 -43 66 -15 28 -36 64 -46 80 -10 17 -43 80 -73 141 -30 61 -55 120 -55 131
0 11 -7 37 -15 56 -8 20 -15 49 -15 65 0 15 -5 33 -11 39 -7 7 -10 72 -10 179
0 93 9 261 20 374 11 113 27 240 35 282 8 43 20 87 27 99 11 22 12 22 44 -15z
m2133 -496 c4 0 45 -33 92 -72 47 -40 121 -107 165 -150 74 -72 78 -78 66
-100 -7 -13 -60 -78 -119 -145 -59 -67 -165 -186 -236 -265 -71 -79 -171 -187
-223 -241 -59 -61 -100 -96 -109 -93 -7 3 -60 37 -116 77 -57 39 -121 88 -144
108 -23 20 -78 65 -123 100 -44 35 -81 67 -81 71 0 4 15 22 33 41 18 19 69 61
112 94 43 33 99 78 124 101 25 22 66 55 91 74 25 19 68 54 96 79 28 25 87 77
129 116 43 38 111 96 151 127 40 31 75 62 79 67 3 6 9 11 13 11z m388 -380 c7
0 33 -26 57 -57 24 -32 67 -94 95 -137 38 -57 62 -110 87 -191 19 -61 42 -156
50 -211 8 -54 15 -143 15 -197 0 -54 -5 -129 -10 -166 -6 -37 -35 -126 -63
-198 -29 -71 -60 -141 -68 -154 -14 -20 -19 -22 -40 -12 -13 6 -70 46 -127 89
-56 44 -122 93 -145 109 -23 17 -74 56 -112 86 -39 31 -99 76 -134 100 -35 24
-94 65 -130 91 -36 26 -75 52 -86 58 -11 5 -28 16 -37 23 -10 8 -18 18 -18 23
0 5 26 37 58 71 31 34 123 133 204 220 80 87 157 172 169 188 13 17 52 62 89
100 36 39 81 91 99 118 19 26 40 47 47 47z m-1275 -405 c5 -3 22 -25 38 -48
16 -23 70 -123 121 -222 51 -99 96 -184 100 -190 4 -5 12 -24 18 -42 11 -32
10 -33 -90 -125 -55 -51 -155 -145 -222 -209 -66 -64 -148 -141 -181 -171
l-60 -55 -41 26 c-22 15 -88 69 -146 121 -57 52 -134 119 -171 149 -37 31 -67
63 -67 73 0 10 113 131 258 275 142 142 263 265 268 273 5 8 44 45 87 83 43
37 83 65 88 62z m263 -207 c19 -13 70 -49 115 -81 45 -32 81 -62 81 -66 0 -4
-22 -29 -50 -56 -27 -27 -51 -47 -53 -44 -2 2 -12 18 -22 34 -11 17 -39 68
-62 115 -24 47 -43 93 -43 103 0 16 3 15 34 -5z m275 -198 c7 0 30 -13 50 -28
20 -16 90 -66 156 -111 66 -44 181 -128 255 -186 74 -58 163 -127 197 -153 34
-26 87 -64 118 -85 30 -21 55 -44 55 -51 0 -8 -31 -61 -69 -118 -38 -58 -75
-111 -83 -119 -7 -8 -41 -49 -76 -91 -34 -42 -128 -146 -209 -231 -82 -85
-185 -189 -229 -231 -76 -70 -82 -74 -97 -58 -12 13 -16 60 -21 227 -4 116
-11 255 -17 310 -5 55 -14 136 -20 180 -6 44 -18 112 -26 150 -9 39 -24 102
-35 140 -10 39 -23 86 -27 105 -4 19 -20 64 -35 99 -15 35 -28 73 -29 86 -1
15 19 45 63 94 36 39 71 71 79 71z m-218 -211 c3 1 24 -56 47 -126 23 -71 56
-195 73 -278 18 -91 36 -223 44 -335 8 -102 18 -230 21 -285 l6 -100 -100 101
c-55 56 -129 126 -164 155 -36 30 -120 101 -189 159 -68 58 -146 122 -174 143
-27 20 -52 37 -55 37 -3 0 -10 8 -17 19 -10 16 -1 29 72 102 45 46 116 116
156 154 41 39 98 90 127 115 29 25 74 66 100 92 26 26 49 47 53 47z m-1066
-168 c11 -10 63 -53 115 -96 52 -44 120 -102 150 -129 30 -28 75 -67 99 -86
l43 -35 -119 -120 c-65 -66 -182 -190 -260 -275 -77 -85 -158 -176 -179 -202
-22 -25 -61 -77 -88 -115 -28 -37 -67 -88 -88 -113 -21 -25 -83 -110 -138
-190 -55 -80 -116 -174 -137 -210 -20 -36 -55 -94 -78 -130 -22 -36 -58 -103
-79 -150 -21 -47 -52 -114 -69 -150 -16 -36 -50 -121 -74 -190 -24 -69 -65
-195 -90 -280 -24 -85 -51 -186 -58 -225 -8 -38 -21 -99 -30 -135 -9 -36 -20
-135 -25 -220 -5 -85 -10 -173 -11 -195 l-1 -40 -15 35 c-9 19 -26 100 -38
180 -13 80 -30 182 -39 228 -13 68 -14 108 -5 244 5 90 14 180 20 201 5 20 8
41 6 45 -3 4 -1 48 4 97 4 50 13 119 19 155 5 36 21 126 35 200 13 74 29 153
34 175 6 22 28 92 50 155 21 63 48 138 58 165 11 28 32 79 48 115 16 36 35 72
42 81 7 8 13 19 13 24 0 4 30 62 66 129 37 66 83 146 103 176 20 30 38 60 40
65 2 6 38 60 79 120 41 61 93 135 116 165 23 30 50 69 60 85 11 17 44 59 73
95 30 36 67 79 83 96 17 17 30 35 30 39 0 4 42 53 93 109 50 55 99 106 107
113 12 9 19 8 35 -6z m2183 -282 c2 1 18 -9 35 -21 18 -12 50 -38 73 -57 22
-20 67 -58 99 -86 32 -27 79 -68 104 -89 25 -22 76 -69 112 -104 l67 -64 -52
-46 c-28 -25 -53 -48 -56 -51 -3 -4 -48 -38 -100 -77 -52 -39 -151 -109 -220
-156 -69 -46 -159 -109 -201 -139 -42 -30 -82 -61 -90 -68 -8 -7 -26 -20 -40
-29 -15 -9 -51 -33 -80 -54 -30 -20 -94 -64 -143 -97 -49 -34 -93 -58 -97 -54
-5 5 -28 46 -52 93 -24 47 -54 103 -67 125 -13 22 -30 53 -38 69 l-15 29 129
127 c71 70 172 173 224 228 52 55 117 125 143 155 27 30 60 73 73 96 14 22 28
41 32 41 4 0 41 52 82 114 41 63 77 115 78 115z m-1707 -119 c9 0 34 -13 55
-29 21 -15 84 -66 140 -112 56 -46 148 -124 205 -173 57 -49 133 -117 168
-150 34 -34 94 -96 132 -139 l69 -77 0 -66 0 -67 -172 -166 c-95 -92 -198
-190 -228 -217 -31 -27 -69 -59 -85 -71 -17 -12 -145 -108 -285 -214 -140
-106 -305 -234 -366 -285 -61 -52 -187 -172 -280 -268 -132 -136 -188 -202
-258 -305 -71 -107 -96 -152 -122 -233 -19 -55 -34 -110 -34 -122 0 -12 7 -47
16 -77 9 -30 32 -76 52 -104 19 -27 51 -66 69 -86 l34 -36 -30 -52 c-17 -29
-31 -58 -31 -64 0 -7 -4 -17 -9 -23 -5 -5 -26 -49 -46 -97 -20 -49 -47 -127
-61 -175 -13 -48 -27 -93 -29 -100 -3 -9 -10 -10 -22 -3 -10 5 -89 81 -176
168 -100 99 -169 177 -185 208 l-27 50 1 240 c0 178 5 267 18 345 9 58 29 152
42 210 14 58 34 132 44 165 10 33 35 114 55 180 20 66 46 143 57 170 11 28 29
69 39 92 11 23 19 47 19 53 0 5 27 63 60 128 33 64 75 144 94 177 20 33 40 69
45 80 5 11 35 58 67 105 32 47 79 117 106 155 27 39 74 106 106 151 31 44 71
98 89 120 18 21 56 68 85 104 29 36 102 121 164 190 61 69 177 191 256 273 79
81 151 147 159 147z m2246 -361 c6 1 66 -57 132 -127 66 -70 143 -156 171
-191 27 -34 70 -86 95 -114 24 -29 85 -106 134 -172 62 -82 112 -162 157 -255
37 -74 70 -142 74 -151 4 -8 20 -47 35 -85 15 -38 38 -92 50 -120 13 -27 41
-104 63 -170 22 -65 51 -158 66 -205 14 -47 30 -119 35 -160 5 -41 12 -126 16
-190 4 -69 2 -168 -5 -245 -6 -71 -23 -174 -37 -229 -14 -55 -32 -112 -39
-127 -8 -15 -40 -48 -72 -73 -31 -25 -92 -73 -135 -106 -42 -33 -90 -67 -105
-77 -15 -9 -58 -39 -94 -65 -37 -26 -100 -66 -140 -89 -40 -22 -113 -63 -163
-91 -49 -27 -146 -79 -215 -115 -69 -36 -163 -84 -210 -108 -47 -23 -110 -52
-140 -63 -30 -12 -64 -21 -76 -21 -11 0 -24 -4 -30 -8 -5 -4 -25 -13 -44 -19
-19 -7 -46 -14 -60 -17 -14 -3 -54 -14 -90 -24 -36 -11 -85 -27 -110 -36 -25
-9 -97 -30 -160 -47 -63 -16 -178 -36 -255 -44 -77 -8 -153 -17 -170 -19 -16
-3 -106 -8 -200 -11 -139 -4 -167 -3 -152 7 11 7 60 40 110 72 51 33 124 87
162 120 39 33 91 83 117 110 26 28 67 74 92 103 25 29 62 78 84 110 21 32 59
92 84 133 25 41 68 119 96 173 29 54 72 157 96 230 25 73 52 172 61 222 8 49
18 161 22 250 4 102 1 192 -6 250 -7 50 -19 115 -27 145 -9 30 -27 96 -42 145
-14 50 -29 95 -33 100 -4 6 -10 26 -14 45 -4 19 -13 46 -21 60 -7 14 -29 63
-48 110 -20 47 -36 93 -36 102 0 8 -9 40 -21 69 -11 30 -27 68 -36 84 -9 17
-26 57 -39 89 -22 56 -23 61 -7 78 9 10 20 18 24 18 5 0 32 14 61 32 29 18 73
48 98 68 25 20 58 43 74 50 16 8 47 31 70 51 22 20 61 48 86 64 25 15 55 36
66 47 12 11 36 27 53 36 17 9 104 68 193 130 90 63 204 149 253 192 50 43 95
79 102 79z m-1373 -469 c7 0 19 -12 27 -27 7 -16 25 -46 38 -68 14 -22 42 -75
63 -118 21 -43 38 -81 38 -86 0 -4 -28 -28 -62 -53 -35 -25 -90 -67 -123 -92
-33 -25 -65 -46 -71 -46 -7 0 -2 52 16 158 15 86 31 189 35 227 4 39 11 78 16
88 6 9 16 17 23 17z m-126 -134 c2 -14 -6 -78 -18 -143 -12 -65 -30 -157 -41
-206 -21 -87 -21 -87 -83 -140 -34 -28 -77 -63 -96 -77 -18 -14 -59 -45 -89
-70 -31 -24 -58 -47 -61 -50 -3 -3 -36 -32 -75 -66 -38 -33 -95 -79 -125 -101
-30 -22 -100 -80 -155 -128 -55 -48 -159 -142 -230 -209 -72 -66 -176 -175
-232 -241 -56 -66 -125 -151 -154 -190 -29 -38 -89 -122 -134 -185 -45 -63
-84 -123 -88 -132 -3 -10 -11 -18 -16 -18 -5 0 -23 17 -39 38 -16 20 -41 56
-55 79 -16 25 -29 64 -33 96 -5 42 -1 70 16 123 12 38 30 80 39 94 8 14 20 33
26 42 5 10 37 56 69 103 32 47 107 136 165 197 58 61 107 114 109 119 2 4 76
73 165 153 89 79 187 161 217 182 30 21 80 58 111 83 31 25 80 62 108 81 28
19 77 54 108 77 32 23 65 48 73 55 8 7 46 36 85 63 38 28 89 69 114 91 25 23
107 101 181 173 120 116 135 128 138 107z m326 -239 c6 -2 25 -39 41 -83 17
-43 38 -95 48 -116 9 -20 17 -41 17 -47 0 -6 6 -25 14 -43 8 -18 29 -73 47
-123 18 -49 41 -107 51 -128 11 -21 32 -84 49 -140 16 -56 36 -125 44 -154 9
-28 20 -91 27 -140 6 -53 8 -150 4 -243 -3 -86 -11 -183 -16 -215 -6 -33 -15
-71 -19 -85 -5 -14 -26 -79 -47 -144 -22 -71 -64 -169 -102 -240 -36 -67 -85
-155 -110 -196 -25 -41 -71 -109 -101 -150 -31 -41 -100 -119 -155 -172 -54
-54 -135 -121 -180 -151 -44 -30 -106 -70 -136 -90 -30 -19 -82 -45 -114 -58
-56 -20 -70 -21 -250 -16 -105 4 -213 9 -241 12 -27 3 -66 10 -85 15 -19 5
-62 14 -95 20 -33 7 -103 25 -155 41 -52 16 -102 29 -112 29 -9 0 -83 30 -165
66 -81 36 -163 74 -181 86 -18 11 -65 37 -105 58 -40 21 -73 44 -75 52 -1 7
21 78 49 158 28 80 53 157 56 173 3 15 9 27 14 27 5 0 9 6 9 13 0 7 16 43 36
80 19 37 38 67 41 67 3 0 45 -15 92 -34 64 -25 109 -36 176 -41 68 -5 108 -3
163 10 40 9 108 35 150 57 42 22 100 56 128 74 28 19 54 34 58 34 3 0 40 28
81 61 41 34 75 65 75 68 0 3 10 17 23 31 12 14 47 54 77 90 31 36 73 92 95
125 21 33 46 72 56 86 10 14 51 95 92 180 41 85 80 172 87 194 7 22 18 51 25
65 8 14 22 50 33 80 11 30 28 78 37 105 9 28 21 68 26 90 6 22 14 49 19 60 4
11 14 45 23 75 8 30 23 88 33 128 17 74 17 74 76 110 33 21 87 58 121 84 34
26 80 61 101 78 21 17 44 29 50 27z m-447 -331 c2 -1 -4 -33 -12 -70 -9 -37
-31 -115 -50 -174 -19 -59 -39 -116 -44 -127 -5 -11 -33 -78 -61 -150 -29 -71
-57 -143 -63 -160 -6 -16 -22 -55 -37 -85 -15 -30 -42 -80 -61 -110 -19 -31
-40 -64 -46 -75 -7 -11 -19 -33 -26 -50 -8 -16 -47 -68 -87 -115 -40 -47 -101
-111 -134 -142 -34 -32 -92 -79 -131 -106 -38 -26 -103 -65 -143 -85 -40 -20
-95 -43 -124 -52 -28 -8 -87 -15 -129 -15 -54 0 -96 6 -136 21 -32 11 -73 27
-90 35 -20 9 -33 22 -33 33 0 10 12 36 27 57 14 21 40 59 57 83 17 24 46 64
64 90 17 25 48 69 67 98 19 28 39 55 45 58 6 3 36 39 67 78 31 40 71 87 88
106 16 18 84 86 150 151 66 65 137 131 157 148 20 16 79 68 130 116 51 48 117
103 146 122 28 19 78 58 110 87 31 29 84 75 117 103 33 28 87 70 119 93 33 22
61 39 63 37z m6031 -1136 c4 -1 25 -11 47 -23 22 -12 55 -31 72 -42 18 -11 33
-23 33 -27 0 -4 -28 -60 -62 -125 -34 -65 -77 -137 -95 -161 -18 -24 -33 -49
-34 -55 0 -7 -20 -39 -44 -72 -24 -33 -73 -103 -108 -155 -35 -52 -95 -142
-132 -200 -38 -58 -84 -134 -103 -170 -18 -36 -58 -113 -88 -171 -30 -59 -54
-113 -54 -121 0 -8 -11 -28 -25 -44 -14 -16 -25 -32 -25 -37 0 -4 -14 -26 -31
-49 -16 -23 -39 -62 -49 -86 -11 -24 -30 -57 -44 -72 -13 -16 -32 -51 -42 -77
-10 -26 -33 -76 -51 -109 -18 -34 -33 -69 -33 -78 0 -9 -3 -16 -7 -16 -5 0
-24 -33 -43 -73 -19 -39 -56 -110 -84 -157 -27 -47 -62 -101 -78 -121 -15 -20
-28 -42 -28 -48 0 -7 -8 -24 -17 -39 -10 -15 -28 -35 -40 -45 -12 -9 -24 -30
-28 -46 -3 -16 -22 -51 -41 -78 -19 -26 -34 -52 -34 -57 0 -5 -20 -51 -45
-103 -25 -51 -45 -100 -45 -107 0 -8 -3 -16 -7 -18 -5 -2 -20 -27 -35 -56 -16
-28 -28 -59 -28 -67 0 -9 -21 -56 -47 -106 -27 -49 -67 -125 -90 -167 -23 -42
-46 -86 -52 -97 -5 -11 -12 -36 -16 -55 -3 -19 -12 -43 -19 -52 -12 -16 -22
-17 -91 -8 -57 7 -95 7 -137 -2 -42 -9 -61 -9 -69 -1 -8 8 -3 22 15 52 14 22
26 47 26 55 0 8 4 18 10 21 5 3 18 25 28 48 11 23 33 59 51 81 17 21 31 44 31
51 0 6 28 52 62 101 33 48 88 140 120 204 33 63 67 129 76 145 9 17 29 50 44
75 14 25 46 83 69 130 24 47 54 101 67 120 13 19 68 126 123 237 54 111 112
217 129 236 16 19 30 42 30 51 0 9 7 31 16 48 8 16 48 80 88 142 40 61 99 161
131 221 32 61 74 128 92 150 18 22 43 60 56 85 13 25 43 81 67 125 23 44 52
93 64 110 11 16 26 37 31 46 6 10 30 53 54 96 24 43 81 134 126 203 45 69 108
181 139 250 37 78 76 146 105 180 26 30 57 72 70 93 12 20 26 37 29 37z
m-3545 -410 c5 0 -24 -62 -64 -137 -40 -76 -98 -181 -130 -233 -31 -52 -83
-136 -115 -186 -33 -50 -72 -110 -88 -135 -16 -24 -56 -80 -89 -124 -34 -44
-68 -87 -77 -95 -9 -8 -61 -64 -116 -125 -54 -60 -102 -112 -107 -113 -4 -2
-29 -26 -55 -54 -26 -28 -76 -74 -112 -103 -36 -29 -95 -79 -132 -111 -36 -32
-87 -76 -111 -96 -25 -21 -48 -38 -51 -38 -4 0 -32 -20 -64 -45 -37 -29 -67
-45 -85 -45 -15 0 -40 -6 -55 -14 -15 -7 -101 -32 -192 -55 -91 -23 -199 -48
-240 -55 -41 -8 -104 -20 -140 -26 -36 -7 -71 -17 -77 -22 -7 -6 -13 -21 -13
-33 0 -12 7 -28 15 -35 12 -10 31 -8 97 10 46 12 111 26 145 31 35 4 82 13
105 19 24 7 62 18 86 26 23 8 50 14 60 14 10 -1 1 -10 -23 -26 -22 -14 -93
-52 -158 -84 -66 -33 -128 -60 -138 -60 -11 0 -27 -4 -37 -9 -9 -6 -33 -17
-52 -26 -19 -9 -62 -27 -95 -39 -33 -13 -87 -33 -120 -44 -33 -11 -98 -29
-145 -40 -47 -11 -125 -27 -175 -36 -49 -9 -151 -22 -225 -30 -74 -8 -214 -13
-310 -12 -120 2 -203 8 -265 20 -49 10 -99 22 -110 26 -11 5 -42 16 -70 26
-27 10 -57 23 -65 29 -8 6 -28 17 -45 24 -16 7 -70 47 -120 89 -49 42 -110
103 -135 135 -25 33 -58 81 -73 106 -15 25 -38 69 -51 96 -13 28 -40 88 -59
135 -19 47 -47 132 -61 190 -13 58 -30 144 -37 191 -6 48 -9 94 -6 103 6 15
11 14 44 -8 21 -14 67 -39 102 -55 35 -17 73 -31 85 -31 12 0 26 -4 31 -9 6
-6 48 -15 95 -20 46 -6 161 -11 254 -11 93 0 197 5 230 11 34 5 104 19 156 31
52 11 122 29 155 40 33 11 106 42 161 68 56 27 117 51 135 54 19 3 131 8 249
11 118 3 285 12 370 21 85 8 178 19 205 25 28 6 64 12 81 14 17 3 114 30 215
60 101 31 209 63 239 72 30 9 97 29 148 45 51 16 155 62 230 101 75 39 187 97
247 129 61 32 126 66 145 75 19 10 46 25 60 34 14 9 61 36 105 59 44 24 82 47
85 50 3 4 21 18 41 31 20 13 60 40 90 60 30 20 90 64 134 98 43 33 83 61 88
61z m-4525 -253 c39 -37 102 -100 139 -139 37 -38 87 -83 109 -99 41 -28 42
-30 34 -66 -5 -21 -10 -82 -12 -135 -2 -54 -7 -100 -10 -103 -3 -3 -30 22 -60
57 -30 35 -71 86 -91 113 -20 28 -55 86 -78 129 -22 44 -51 111 -64 150 -13
39 -27 91 -30 116 l-7 45 70 -68z m578 -423 c114 -57 235 -112 268 -124 34
-11 140 -40 236 -65 126 -32 219 -49 330 -59 85 -9 170 -14 188 -11 17 2 32 1
32 -4 0 -4 -44 -23 -98 -43 -54 -20 -136 -45 -182 -56 -47 -11 -123 -26 -170
-32 -65 -10 -134 -10 -290 -2 -153 8 -220 16 -265 31 -33 10 -78 27 -100 36
-22 9 -70 37 -107 62 -38 25 -69 53 -69 62 -1 9 -1 74 0 144 1 71 6 137 11
147 9 16 29 8 216 -86z m6267 -784 c9 0 17 -3 17 -6 0 -4 -11 -27 -24 -53 -13
-25 -43 -85 -65 -133 -23 -48 -41 -90 -41 -93 0 -3 -20 -37 -45 -77 -25 -40
-45 -78 -45 -85 0 -7 -4 -13 -10 -13 -5 0 -12 -15 -15 -33 -4 -19 -17 -46 -29
-62 -17 -21 -26 -26 -39 -19 -9 6 -32 34 -49 64 -18 29 -41 58 -50 64 -13 8
-23 8 -35 0 -10 -6 -19 -18 -21 -26 -2 -8 16 -46 39 -84 23 -38 50 -77 59 -86
10 -10 17 -23 16 -30 -2 -7 -8 -25 -16 -40 -11 -24 -15 -25 -41 -16 -16 6 -36
7 -44 4 -8 -3 -15 -13 -15 -23 0 -10 9 -24 20 -31 11 -7 20 -19 20 -26 0 -9
-12 -16 -27 -18 -17 -2 -29 -10 -31 -21 -2 -10 3 -26 11 -35 14 -15 14 -19 -1
-40 l-18 -23 -23 24 c-14 16 -29 23 -42 20 -10 -3 -19 -12 -19 -20 0 -8 13
-28 30 -44 24 -25 28 -34 20 -50 -9 -15 -18 -18 -55 -12 -40 5 -45 4 -45 -14
0 -11 9 -28 20 -38 11 -10 20 -22 20 -28 0 -6 -5 -6 -12 0 -7 6 -29 13 -49 17
-20 3 -44 4 -53 0 -9 -3 -16 -14 -16 -24 0 -12 12 -22 35 -30 24 -8 35 -18 35
-31 0 -16 -5 -18 -27 -13 -16 4 -55 18 -87 31 -32 14 -69 31 -82 39 -12 9 -35
14 -51 12 -18 -2 -29 -10 -31 -22 -3 -12 5 -27 19 -38 13 -10 49 -31 79 -47
30 -15 72 -31 93 -35 20 -4 37 -10 37 -15 0 -4 -13 -6 -30 -3 -16 2 -37 1 -46
-2 -15 -6 -15 -8 1 -32 12 -19 13 -25 3 -22 -7 3 -21 1 -30 -4 -10 -5 -18 -13
-18 -19 0 -5 15 -17 33 -25 l32 -14 -60 2 c-47 2 -60 0 -63 -13 -1 -9 8 -21
25 -28 21 -10 24 -14 13 -21 -8 -5 -24 -7 -36 -4 -12 3 -26 -1 -33 -10 -7 -9
-11 -23 -7 -31 3 -9 18 -15 41 -15 30 0 35 -3 27 -16 -5 -9 -35 -25 -67 -36
-32 -10 -77 -34 -101 -51 -24 -18 -69 -47 -101 -65 -32 -18 -86 -57 -120 -87
-34 -30 -63 -55 -65 -55 -2 0 -1 30 4 68 4 37 10 111 13 164 3 53 12 123 20
155 8 31 15 65 15 75 0 9 7 39 16 65 9 26 38 75 63 108 26 33 61 83 77 110 17
28 33 57 37 65 4 8 15 29 26 45 10 17 43 73 73 126 31 52 59 106 63 120 4 13
30 71 57 129 27 58 66 137 86 175 19 39 43 82 51 96 9 14 30 38 46 52 17 14
58 36 92 50 34 14 77 28 95 32 18 4 67 23 108 42 41 19 98 46 125 58 28 13 73
29 100 36 27 7 61 18 75 26 14 7 33 13 43 13z m168 -585 c5 -4 8 -12 6 -18 -2
-7 2 -24 10 -39 7 -16 11 -28 9 -28 -3 0 -12 13 -21 30 -8 16 -15 36 -15 45 0
9 5 13 11 10z m-82 -16 c7 -3 19 -22 27 -44 10 -30 10 -41 1 -47 -7 -4 -14 -8
-17 -8 -3 0 -5 15 -6 33 0 17 -4 40 -9 51 -6 13 -5 18 4 15z m449 -69 c4 0 13
-9 20 -21 9 -14 19 -18 32 -14 14 4 20 2 20 -9 0 -9 -5 -16 -11 -16 -6 0 -20
5 -32 11 -12 7 -25 17 -29 23 -4 6 -8 14 -8 19 0 4 3 7 8 7z m-483 -16 c8 -4
12 -10 9 -15 -3 -5 -9 -9 -15 -9 -5 0 -9 7 -9 15 0 9 6 12 15 9z m345 -86 c33
-2 46 -7 48 -20 2 -12 -6 -21 -23 -28 -14 -5 -37 -13 -50 -16 -20 -5 -27 -1
-37 21 -10 22 -9 28 3 36 8 5 34 8 59 7z m-339 -38 c5 0 9 -4 9 -10 0 -5 -7
-10 -16 -10 -8 0 -12 5 -9 10 3 6 10 10 16 10z m202 -1 c10 1 22 -10 27 -25 6
-14 10 -29 10 -33 0 -4 -19 -13 -41 -20 -23 -7 -45 -9 -49 -4 -4 4 -10 20 -14
35 -5 22 -2 28 22 36 15 6 35 11 45 11z m-292 -19 c5 0 9 -6 9 -14 0 -8 -4
-17 -9 -20 -4 -3 -11 -3 -14 0 -3 3 -3 12 0 20 3 8 9 14 14 14z m715 -22 c15
-2 32 -11 38 -20 7 -12 7 -21 1 -27 -6 -6 -22 -12 -35 -13 -22 -3 -25 1 -28
30 -3 31 -1 33 24 30z m-586 -8 c34 0 42 -4 50 -26 6 -14 10 -27 10 -29 0 -2
-10 -13 -22 -25 -12 -11 -34 -20 -49 -20 -24 0 -29 5 -35 35 -3 19 -4 42 0 50
3 10 19 15 46 15z m512 -43 c4 -20 2 -35 -5 -39 -7 -5 -23 -7 -37 -6 -17 2
-26 10 -28 26 -3 17 4 25 30 36 33 14 33 14 40 -17z m-647 13 c14 0 29 -9 35
-21 7 -11 9 -31 6 -44 -3 -12 -13 -25 -21 -29 -8 -3 -26 -1 -40 4 -16 6 -25
17 -25 30 0 12 5 30 10 41 6 11 21 19 35 19z m506 -41 c8 0 20 -4 27 -11 7 -7
12 -16 12 -21 0 -4 -15 -14 -32 -21 -18 -8 -43 -17 -55 -20 -15 -5 -23 -3 -23
4 0 7 12 25 28 40 15 15 34 28 43 29z m257 -40 c6 1 12 -5 12 -13 0 -8 -10
-18 -21 -21 -14 -5 -25 -2 -30 6 -5 9 -2 16 9 21 9 4 23 7 30 7z m-112 -30
c12 0 25 -6 28 -14 3 -9 0 -18 -7 -20 -6 -2 -24 -9 -39 -14 -16 -6 -28 -7 -28
-2 0 5 -3 16 -6 24 -3 10 2 17 13 20 10 3 28 5 39 6z m-283 -10 c10 1 17 -4
15 -11 -3 -7 -17 -15 -32 -19 -16 -4 -37 -16 -48 -26 -16 -14 -21 -15 -28 -3
-5 9 -5 19 2 27 6 7 25 17 42 22 17 5 39 10 49 10z m177 -22 c15 -1 26 -9 28
-20 3 -12 -10 -23 -44 -37 -26 -12 -53 -19 -61 -16 -7 3 -13 15 -13 26 0 14
11 26 33 35 17 8 43 14 57 12z m-625 -17 c7 0 16 -12 19 -26 4 -16 0 -44 -10
-70 -10 -25 -21 -41 -26 -36 -4 4 -9 31 -9 59 -1 28 2 56 5 62 4 6 13 11 21
11z m259 0 c34 0 47 -5 58 -22 8 -13 18 -49 21 -81 5 -56 5 -58 -24 -72 -16
-9 -29 -23 -29 -31 0 -12 6 -15 21 -11 11 3 19 2 17 -1 -2 -4 -16 -33 -31 -65
-16 -31 -32 -55 -37 -52 -4 2 -11 47 -15 100 -4 52 -13 123 -20 157 -7 35 -11
66 -8 71 2 4 24 7 47 7z m-101 -20 c6 0 8 -3 4 -6 -3 -3 -1 -18 5 -33 5 -14
14 -52 18 -85 7 -49 6 -63 -8 -82 -9 -13 -22 -24 -28 -24 -7 0 -15 7 -18 16
-3 9 -6 35 -6 58 0 24 5 68 11 99 7 31 16 57 22 57z m687 0 c6 0 10 -2 10 -5
0 -2 -5 -16 -12 -30 -6 -14 -18 -25 -27 -25 -14 1 -13 2 2 11 9 5 17 19 17 29
0 11 5 20 10 20z m-359 -10 c9 0 19 -7 23 -15 3 -8 3 -22 0 -30 -3 -8 -23 -19
-43 -25 -20 -5 -45 -16 -56 -24 -11 -9 -23 -16 -27 -16 -5 0 -8 10 -8 23 0 15
15 32 47 55 26 17 55 32 64 32z m217 -30 l23 0 -25 -33 c-16 -21 -40 -37 -70
-46 -24 -7 -53 -11 -63 -9 -10 2 -19 11 -21 20 -2 12 8 20 40 30 24 7 54 18
68 25 14 7 35 13 48 13z m-195 -81 c9 1 17 -3 17 -9 0 -5 -5 -10 -10 -10 -6 0
-28 -11 -50 -25 -22 -14 -46 -25 -54 -25 -8 0 -18 5 -21 10 -4 6 17 21 47 35
29 13 61 24 71 24z m-592 -16 c6 -6 14 -28 19 -49 8 -33 6 -42 -12 -61 -11
-12 -25 -20 -29 -17 -5 3 -7 24 -3 47 3 23 7 53 10 66 4 16 8 21 15 14z
m-3991 -10 c8 -3 25 -5 38 -4 15 0 22 -5 21 -17 0 -9 -9 -55 -20 -102 -11 -47
-29 -137 -39 -200 -11 -63 -27 -169 -35 -235 -8 -66 -19 -147 -24 -180 -4 -33
-16 -112 -25 -175 -9 -63 -23 -162 -31 -220 -8 -58 -19 -143 -24 -190 -5 -47
-12 -96 -15 -110 -3 -14 -15 -78 -26 -144 -11 -65 -20 -132 -20 -149 0 -18 -7
-79 -15 -137 -9 -58 -25 -157 -35 -220 -11 -63 -22 -135 -24 -160 -2 -25 -7
-67 -11 -95 -3 -27 -8 -88 -11 -135 -3 -47 -7 -211 -9 -365 -2 -154 -8 -280
-12 -281 -4 -1 -28 -7 -53 -14 -25 -7 -70 -21 -100 -33 -30 -11 -71 -26 -90
-34 -19 -8 -44 -19 -55 -24 -11 -5 -100 -36 -199 -69 -98 -33 -221 -71 -275
-85 -53 -13 -130 -34 -171 -45 -41 -12 -116 -30 -166 -41 -50 -10 -122 -30
-159 -44 -37 -14 -97 -40 -134 -57 -36 -17 -86 -39 -110 -50 -43 -18 -44 -18
-87 2 -23 12 -59 34 -80 51 -20 16 -42 29 -49 29 -7 0 -18 6 -24 14 -6 8 -56
44 -111 81 l-100 68 -1 56 c-1 31 -1 124 0 206 1 83 8 206 16 275 8 69 17 143
20 165 2 22 14 114 25 205 11 91 26 224 34 295 8 72 22 168 31 215 9 47 20
112 25 145 5 33 18 121 29 195 11 74 29 194 40 265 11 72 26 153 32 180 6 28
17 73 25 100 7 28 19 70 26 94 11 37 21 49 57 69 25 14 101 62 170 108 69 46
140 93 156 104 17 12 52 36 78 53 26 18 98 67 160 109 62 42 139 89 172 105
33 16 69 35 80 41 11 6 58 29 105 51 47 21 101 42 120 46 19 4 60 16 90 25 30
10 111 41 180 68 69 27 145 52 170 56 25 4 88 23 140 42 52 20 127 47 165 60
39 13 81 28 95 33 14 5 32 6 40 4z m4790 -34 c13 1 13 0 0 -9 -8 -5 -24 -10
-35 -10 -12 0 -25 -4 -30 -8 -6 -5 -46 -22 -90 -39 -44 -17 -88 -33 -98 -37
-11 -3 -16 -2 -12 4 3 6 10 10 14 10 5 0 30 10 57 22 27 12 78 32 114 44 36
13 72 23 80 23z m-519 -51 c3 -7 9 -41 12 -74 5 -48 3 -65 -9 -74 -8 -7 -17
-10 -21 -7 -3 4 -9 28 -13 54 -6 35 -3 56 8 81 11 21 18 28 23 20z m-110 2 c4
0 13 -9 19 -19 5 -11 10 -26 10 -33 0 -7 -17 -39 -37 -71 -25 -40 -39 -54 -45
-45 -4 7 -8 23 -8 35 0 12 12 47 26 78 15 30 30 55 35 55z m492 -71 c4 1 7 -3
7 -9 0 -5 -18 -21 -40 -35 -30 -19 -53 -25 -94 -25 -30 0 -58 -4 -61 -10 -3
-5 -15 -10 -26 -10 -10 0 -19 4 -19 10 0 5 17 14 38 19 20 6 45 11 54 11 9 0
18 4 20 8 2 5 28 16 58 24 30 9 58 17 63 17z m-437 -66 c7 -10 14 -24 14 -30
0 -7 -6 -13 -14 -13 -8 0 -21 -3 -30 -6 -10 -4 -16 -1 -16 8 0 7 7 24 16 36
15 22 17 22 30 5z m-134 -43 c5 -14 7 -38 3 -55 -3 -16 -5 -42 -5 -57 0 -23
-4 -28 -23 -28 -13 0 -28 5 -35 12 -7 7 -12 24 -12 38 0 15 14 47 32 71 31 43
31 43 40 19z m-221 -22 c3 -13 1 -31 -5 -40 -6 -10 -16 -18 -23 -18 -7 0 -13
5 -13 11 0 6 8 24 18 41 17 29 17 29 23 6z m372 -19 c14 1 18 -5 15 -21 -2
-18 -15 -27 -53 -39 -27 -9 -53 -15 -57 -13 -3 2 -4 12 -1 23 2 10 14 23 26
29 12 6 29 13 37 15 8 3 23 6 33 6z m-6295 -680 c2 1 1 -3 -2 -7 -3 -5 -10
-37 -16 -73 -6 -35 -22 -134 -36 -219 -13 -85 -26 -166 -29 -180 -2 -14 -11
-77 -20 -140 -8 -63 -20 -128 -25 -145 -5 -16 -12 -61 -15 -100 -4 -38 -13
-97 -20 -130 -8 -34 -17 -81 -20 -105 -4 -25 -9 -58 -11 -75 -2 -16 -8 -77
-13 -135 -5 -58 -14 -145 -20 -195 -6 -49 -15 -106 -21 -125 -5 -19 -10 -60
-10 -90 0 -30 -7 -93 -15 -140 -8 -47 -16 -155 -19 -240 -3 -85 -5 -170 -5
-188 -1 -31 -2 -32 -23 -21 -13 7 -54 42 -93 78 -38 37 -104 95 -145 130 -41
35 -101 92 -133 125 -33 34 -78 86 -101 116 -24 30 -58 80 -77 110 -19 30 -46
89 -59 130 -22 64 -25 91 -23 191 1 97 6 130 28 195 15 44 58 142 97 220 48
99 95 174 154 250 46 60 100 134 121 164 20 30 76 107 123 170 47 63 137 167
200 231 63 63 140 134 170 156 30 23 56 42 58 42z m6310 -79 c4 0 13 -4 21 -9
11 -7 -4 -31 -72 -111 -47 -56 -103 -114 -124 -129 -21 -15 -68 -40 -105 -56
-59 -24 -71 -26 -97 -15 -16 6 -37 20 -47 31 -16 18 -16 20 6 44 19 21 21 28
12 54 -6 17 -7 31 -3 31 4 0 13 -11 19 -25 7 -15 20 -25 32 -25 12 0 20 7 20
18 1 9 10 28 21 42 l21 25 23 -29 c13 -16 28 -25 34 -22 6 4 11 20 11 36 0 19
8 34 22 45 20 13 25 13 33 1 7 -9 25 -12 52 -11 23 2 53 11 67 20 14 10 26 24
26 32 0 8 5 23 10 34 6 10 14 19 18 19z m-116 -28 c6 -6 7 -19 3 -29 -7 -17
-8 -17 -15 2 -4 11 -5 24 -3 28 3 5 10 4 15 -1z m-542 -52 c10 0 23 -8 29 -17
6 -11 6 -24 -1 -36 -9 -18 -11 -18 -29 -1 -10 9 -19 25 -19 36 0 11 7 18 20
18z m-550 -10 c22 0 40 -4 40 -8 0 -5 -9 -27 -20 -50 -11 -22 -20 -47 -20 -54
0 -7 -8 -33 -17 -58 -9 -25 -21 -48 -26 -51 -5 -4 -53 -10 -106 -15 -53 -4
-116 -8 -141 -9 -25 -1 -56 -5 -69 -8 -14 -4 -59 -11 -100 -16 -42 -6 -141
-15 -221 -22 -80 -6 -182 -20 -228 -30 -45 -11 -93 -19 -106 -19 -13 0 -28 -6
-34 -13 -6 -7 -13 -28 -15 -47 -3 -19 -8 -48 -12 -65 -4 -16 -15 -56 -26 -87
-10 -32 -28 -99 -38 -150 -11 -51 -25 -150 -32 -219 -7 -70 -9 -134 -6 -143 5
-12 11 -14 24 -7 10 5 25 12 33 15 8 3 42 21 75 40 33 20 71 41 85 48 14 6 75
44 135 83 61 39 133 86 161 103 28 18 54 32 58 32 4 0 36 20 70 44 35 24 83
54 107 67 24 12 46 25 49 28 3 4 26 19 52 34 26 15 82 45 126 67 43 22 89 51
101 64 15 16 21 31 17 44 -4 11 -14 23 -23 26 -9 4 -25 0 -37 -9 -12 -8 -39
-27 -61 -42 -22 -15 -65 -40 -95 -55 -30 -16 -80 -44 -110 -63 -30 -19 -61
-35 -68 -35 -10 0 -12 18 -10 73 1 39 -1 91 -5 113 -8 38 -6 42 15 48 13 4 55
12 93 17 39 5 120 14 180 20 61 5 133 11 160 13 28 1 62 10 79 21 16 10 44 33
64 49 19 17 67 61 105 99 39 37 75 67 79 67 4 0 8 7 8 15 0 8 4 15 9 15 5 0
12 -8 15 -17 4 -9 9 -62 12 -117 3 -56 12 -137 20 -181 7 -44 18 -98 24 -120
5 -22 24 -96 41 -165 17 -69 32 -136 33 -149 1 -22 -5 -25 -84 -41 -47 -9
-125 -24 -175 -33 -49 -9 -128 -21 -175 -27 -47 -6 -122 -18 -167 -26 -45 -8
-144 -32 -220 -54 -76 -21 -176 -50 -223 -65 -47 -14 -125 -35 -175 -46 -49
-10 -135 -28 -190 -39 -55 -11 -134 -30 -175 -41 -41 -11 -118 -33 -170 -49
-52 -16 -120 -35 -150 -44 -30 -8 -66 -18 -80 -20 -14 -3 -72 -16 -130 -30
-58 -14 -127 -28 -155 -32 -27 -3 -79 -13 -115 -20 -35 -7 -66 -11 -69 -9 -2
3 24 49 59 102 35 54 71 110 81 125 10 15 37 62 59 105 22 43 83 143 134 221
52 79 102 153 113 165 10 12 27 38 38 57 10 19 38 60 61 90 22 30 53 74 67 96
21 34 34 43 74 54 26 7 68 14 93 16 25 2 60 -2 78 -9 31 -10 34 -9 55 17 18
22 37 30 92 41 66 13 71 13 84 -6 7 -10 24 -19 37 -19 20 0 24 5 24 30 0 25 5
30 38 40 20 5 53 13 72 16 26 4 40 2 49 -10 7 -9 24 -16 36 -16 13 0 26 7 29
16 3 9 4 19 1 24 -3 4 1 13 8 18 7 6 33 16 58 23 43 12 46 11 72 -14 14 -15
37 -27 51 -27 15 0 30 8 36 19 5 11 10 26 10 34 0 8 -9 17 -21 20 -12 3 -19
12 -17 19 3 7 22 16 44 19 21 3 48 8 59 12 16 5 30 -2 60 -33 23 -24 48 -40
62 -40 16 0 23 6 23 19 0 11 -11 32 -25 47 -14 15 -25 30 -25 34 0 4 14 10 31
14 17 3 40 6 51 6 11 0 31 -9 45 -20 14 -11 40 -20 58 -20 22 0 35 6 39 17 4
11 1 22 -8 29 -9 6 -16 14 -16 18 0 3 18 6 40 6z m689 -20 c3 0 12 -9 19 -20
7 -11 10 -31 6 -45 -3 -13 -14 -27 -24 -30 -10 -3 -33 0 -51 8 l-32 13 38 37
c21 20 41 37 44 37z m-534 -10 l40 0 -54 -53 c-35 -33 -56 -47 -59 -38 -2 7 4
30 14 52 17 36 22 39 59 39z m-886 -341 l44 1 -24 -18 c-13 -10 -55 -39 -94
-63 -38 -25 -86 -51 -105 -59 -19 -7 -50 -25 -68 -38 -18 -14 -34 -23 -37 -21
-2 3 5 36 17 74 11 39 25 75 30 80 5 6 50 17 101 27 51 9 112 17 136 17z m153
-30 c4 1 11 -11 14 -25 4 -14 4 -67 0 -118 -4 -50 -11 -95 -17 -101 -5 -5 -40
-12 -77 -15 -37 -4 -122 -3 -190 1 -68 4 -126 10 -129 13 -4 3 2 13 13 21 10
8 51 31 89 50 39 20 82 44 96 53 14 9 39 26 55 36 16 10 47 31 69 46 22 15 47
30 55 33 8 3 18 6 22 6z m-448 -313 c18 -4 86 -10 151 -15 65 -5 124 -7 132
-4 7 3 13 1 13 -3 -1 -5 -48 -38 -106 -74 -57 -36 -140 -84 -183 -107 l-78
-42 8 47 c4 26 8 65 8 87 1 22 6 57 12 78 10 37 12 39 43 33z m1259 -217 c5 1
5 -3 2 -9 -3 -5 -16 -10 -28 -9 -21 0 -21 1 -2 9 11 5 24 9 28 9z m227 -21 c8
0 -6 -8 -31 -18 -26 -10 -75 -24 -110 -31 -35 -6 -86 -20 -114 -30 -27 -9 -68
-22 -90 -28 -22 -6 -67 -13 -100 -16 -33 -4 -70 -13 -81 -20 -12 -8 -53 -19
-90 -25 -38 -6 -85 -17 -104 -25 -19 -8 -84 -27 -145 -44 -60 -16 -128 -32
-150 -36 -22 -4 -47 -9 -55 -13 -8 -3 -40 -12 -70 -19 -30 -8 -70 -17 -88 -20
-18 -3 -35 -9 -38 -14 -3 -5 -20 -9 -37 -9 -18 0 -48 -5 -67 -11 -19 -5 -71
-17 -115 -24 -44 -8 -98 -17 -120 -20 -28 -5 -36 -3 -25 4 9 5 54 17 100 26
47 10 108 23 135 30 28 7 61 18 75 23 14 5 59 15 100 21 41 6 86 20 100 30 14
9 61 23 105 30 44 7 103 21 130 31 28 10 68 22 90 28 22 6 78 22 125 36 47 14
112 30 145 36 34 5 92 19 130 29 39 11 95 22 125 26 30 4 84 15 120 25 36 10
81 21 100 23 19 2 42 4 50 5z m-455 -19 l40 0 -30 -13 c-16 -7 -66 -18 -110
-25 -44 -7 -100 -21 -125 -31 -25 -9 -70 -23 -100 -29 -30 -7 -64 -16 -75 -20
-11 -5 -36 -13 -55 -19 -19 -6 -77 -20 -129 -32 -51 -11 -102 -25 -112 -31
-10 -5 -59 -18 -107 -28 -49 -10 -104 -26 -123 -34 -19 -9 -79 -23 -133 -32
-55 -9 -125 -24 -155 -34 -31 -10 -83 -24 -116 -30 -33 -7 -80 -17 -105 -23
-25 -6 -83 -19 -130 -29 -47 -11 -105 -22 -130 -25 -25 -2 -101 -16 -170 -30
-69 -14 -133 -30 -142 -35 -10 -5 -19 -5 -23 0 -3 5 -1 12 5 16 5 3 18 8 27 9
10 2 63 11 118 21 55 9 156 30 225 46 69 16 133 34 142 39 10 6 28 10 42 10
13 0 57 11 97 24 41 13 90 27 109 31 19 4 67 15 105 26 39 11 78 24 87 29 10
6 27 10 38 10 11 0 69 11 128 25 59 14 148 35 197 46 50 11 113 28 140 36 28
9 73 24 100 34 28 11 70 23 95 28 25 5 65 14 90 20 25 6 90 20 145 30 55 11
118 19 140 20z m488 -40 c4 1 7 -4 7 -10 0 -7 -8 -18 -17 -25 -10 -7 -37 -14
-60 -14 -23 0 -44 -4 -47 -9 -3 -5 -20 -11 -38 -14 -18 -3 -69 -17 -113 -31
-44 -15 -93 -30 -110 -35 -16 -5 -57 -17 -90 -26 -33 -10 -85 -25 -115 -35
-30 -10 -82 -23 -115 -30 -33 -7 -71 -18 -85 -25 -14 -7 -43 -15 -65 -19 -22
-4 -67 -15 -100 -26 -33 -10 -89 -24 -125 -30 -35 -7 -77 -18 -92 -26 -15 -8
-40 -14 -56 -14 -16 0 -42 -4 -58 -10 -16 -5 -45 -12 -64 -14 -19 -2 -64 -10
-100 -16 -36 -7 -76 -14 -90 -15 -14 -2 -56 -6 -95 -10 -38 -3 -79 -10 -90
-15 -11 -5 -41 -13 -67 -19 -26 -6 -67 -11 -91 -11 -25 0 -64 -7 -88 -15 -24
-9 -76 -22 -115 -30 -39 -8 -89 -24 -112 -35 -22 -11 -48 -20 -56 -20 -9 0
-51 -10 -93 -21 -43 -12 -86 -26 -97 -31 -13 -7 -22 -6 -33 5 -9 8 -12 20 -9
26 4 5 23 13 44 17 20 4 42 10 47 13 6 4 33 12 60 19 28 6 84 16 125 22 41 7
113 21 160 32 47 11 94 24 105 30 12 5 45 13 75 17 30 5 109 20 175 34 66 14
145 30 175 37 30 6 75 15 100 20 25 5 104 23 175 39 72 17 166 39 210 50 44
11 121 31 170 45 50 15 113 33 140 41 28 8 66 18 85 21 19 3 44 9 55 14 11 5
58 18 105 29 47 11 114 25 150 32 36 6 75 18 88 26 12 7 53 17 90 22 37 5 83
16 102 24 19 8 38 16 43 16z m-1703 -351 l25 0 -25 -8 c-14 -4 -34 -8 -45 -8
l-20 -1 20 9 c11 5 31 8 45 8z m-246 -59 c11 1 17 -2 13 -5 -3 -3 -12 -4 -19
-1 -8 3 -5 6 6 6z m-96 -20 c12 0 22 -1 22 -3 0 -2 -23 -11 -51 -20 -28 -10
-88 -21 -133 -27 -44 -5 -108 -16 -141 -25 -33 -8 -80 -19 -104 -25 -24 -5
-46 -7 -49 -4 -3 2 7 9 20 14 14 5 88 22 164 37 77 14 164 32 194 39 30 7 65
13 78 14z m-1571 -119 c2 0 14 -5 26 -12 12 -6 39 -27 59 -46 21 -20 52 -42
70 -49 18 -8 53 -19 78 -24 25 -5 54 -11 65 -13 11 -1 35 -11 53 -20 19 -10
67 -28 108 -42 41 -13 82 -24 90 -24 9 0 57 -16 108 -36 50 -20 95 -40 100
-45 4 -4 -7 -12 -25 -18 -19 -5 -92 -31 -164 -56 -71 -25 -157 -55 -190 -66
-43 -14 -74 -18 -110 -13 -27 3 -76 12 -107 20 -31 8 -90 30 -130 49 -51 25
-86 35 -120 35 -43 0 -48 2 -49 23 0 12 -3 74 -5 138 -3 86 -1 119 8 127 7 5
40 24 72 41 32 17 61 31 63 31z m916 -378 c4 -2 7 -51 7 -109 l0 -105 -27 5
c-16 3 -66 12 -113 21 -47 8 -101 20 -120 25 -19 6 -68 15 -108 22 -41 6 -70
15 -65 19 4 5 75 29 157 55 82 25 154 49 160 53 6 3 31 9 56 12 25 3 48 4 53
2z m-993 -82 c21 0 64 -12 96 -26 33 -15 79 -32 103 -38 l44 -12 -69 -28 c-38
-16 -82 -35 -99 -42 -16 -7 -50 -20 -75 -29 -25 -9 -71 -25 -102 -35 -32 -11
-70 -26 -85 -33 -16 -8 -57 -25 -93 -37 -36 -12 -128 -53 -205 -90 -77 -37
-201 -101 -275 -142 -74 -42 -153 -84 -175 -95 l-40 -20 -135 23 c-74 13 -193
26 -265 30 -108 5 -139 11 -182 31 -29 13 -55 28 -58 34 -4 5 -1 9 6 9 6 0 39
13 73 29 33 16 79 35 101 44 22 9 63 22 90 31 28 8 77 20 110 26 33 7 103 23
155 37 52 14 111 28 130 33 19 4 60 15 90 23 30 9 78 24 105 33 28 9 100 33
160 54 61 21 146 53 190 70 44 17 101 40 127 51 27 11 72 24 100 30 29 6 70
14 91 19 21 4 41 10 44 14 4 3 23 6 43 6z m400 -114 c25 -2 79 -9 120 -16 41
-6 122 -20 180 -31 58 -11 147 -29 199 -41 l93 -21 -7 -56 c-4 -31 -9 -202
-11 -381 -2 -179 -7 -347 -12 -375 -7 -46 -9 -50 -35 -49 -15 0 -92 1 -172 2
l-145 2 0 55 0 54 -37 7 c-21 3 -54 10 -73 14 -19 4 -63 15 -98 25 -35 9 -78
23 -97 31 -19 8 -54 14 -79 14 -24 0 -72 9 -107 19 -35 11 -80 22 -99 26 -19
4 -62 16 -95 27 -33 10 -118 34 -190 52 -71 19 -155 37 -185 40 -30 4 -86 13
-125 21 -38 7 -114 21 -168 31 -98 17 -99 18 -75 36 12 9 28 18 35 18 6 0 18
6 25 13 7 6 47 29 88 51 41 21 113 59 160 83 47 25 108 53 135 63 28 11 79 30
115 44 36 13 97 36 135 51 39 15 95 35 126 46 32 11 124 49 205 84 124 53 157
63 194 61z m684 -132 c11 -4 52 -15 91 -24 38 -10 90 -27 115 -37 25 -11 63
-23 84 -27 22 -4 71 -21 110 -38 39 -16 78 -33 86 -38 10 -5 14 -19 12 -41 -1
-19 -11 -63 -21 -99 -11 -36 -25 -90 -31 -120 -7 -30 -16 -84 -21 -120 -6 -36
-14 -106 -19 -157 -4 -51 -11 -101 -15 -112 -4 -15 -18 -21 -58 -26 -29 -3
-126 -5 -217 -3 l-165 3 3 135 c2 74 5 239 7 365 2 127 7 256 11 288 6 53 9
57 28 51z m-3166 -84 c4 0 14 -6 20 -12 7 -7 37 -26 66 -43 30 -16 83 -50 117
-75 54 -37 61 -45 44 -50 -11 -3 -38 -14 -60 -24 -22 -10 -51 -23 -65 -29 -14
-6 -27 -11 -30 -12 -3 -1 -23 -7 -45 -13 -22 -7 -43 -12 -47 -12 -5 0 -8 61
-8 135 0 74 4 135 8 135z m-117 -110 c13 0 17 -14 22 -72 4 -53 1 -77 -8 -88
-8 -9 -11 -27 -8 -42 3 -15 11 -33 19 -39 8 -6 14 -20 14 -30 0 -10 9 -23 21
-29 11 -7 28 -9 37 -5 9 3 85 15 167 26 83 10 168 19 191 19 23 0 54 4 70 10
16 5 62 13 103 18 59 7 85 5 135 -9 33 -10 96 -30 138 -45 43 -14 76 -30 73
-34 -3 -5 -26 -19 -53 -32 -26 -14 -110 -57 -187 -98 -77 -40 -174 -91 -215
-113 -41 -22 -124 -64 -183 -93 -59 -30 -110 -54 -113 -54 -2 0 -92 -43 -199
-95 l-195 -95 -42 27 c-24 15 -74 53 -113 84 -38 31 -102 72 -140 92 -39 20
-117 48 -173 62 -57 14 -133 37 -170 52 -37 15 -91 42 -119 61 -29 19 -53 38
-53 42 0 4 8 10 18 14 9 3 24 10 32 15 8 5 63 32 123 60 59 28 109 51 112 51
2 0 43 18 92 41 48 23 179 86 291 140 111 55 224 113 249 129 26 17 54 30 64
30z m470 -120 c9 0 36 -9 60 -19 l43 -19 -35 -6 c-19 -3 -72 -7 -119 -10 l-85
-4 60 28 c33 16 67 29 76 30z m569 -121 c8 0 24 -4 35 -9 l20 -9 -20 0 c-11 0
-27 4 -35 9 -13 9 -13 10 0 9z m205 -35 c11 -3 72 -14 135 -24 63 -11 140 -24
170 -29 30 -6 105 -19 165 -30 61 -11 126 -23 145 -27 19 -3 73 -18 120 -31
47 -14 139 -41 205 -60 66 -19 163 -43 215 -53 52 -10 146 -32 209 -49 62 -16
116 -32 118 -35 3 -3 2 -9 -2 -15 -3 -6 -16 -9 -28 -7 -12 3 -78 8 -147 11
-69 3 -170 14 -225 25 -55 10 -125 22 -155 25 -30 3 -75 10 -100 16 -25 5
-130 30 -235 55 -104 25 -226 56 -270 70 -44 14 -102 32 -130 40 -27 9 -64 22
-82 30 -17 8 -38 14 -47 14 -8 0 -40 9 -71 21 -30 11 -55 24 -55 28 0 4 10 13
23 19 12 6 31 9 42 6z m-175 -74 c3 0 30 -10 60 -21 30 -12 90 -34 133 -50 43
-15 113 -38 155 -49 42 -12 93 -27 112 -35 19 -7 89 -27 155 -45 66 -17 136
-36 155 -41 19 -5 100 -22 180 -38 80 -16 204 -36 275 -45 72 -9 155 -18 185
-22 30 -3 87 -7 127 -8 39 -2 75 -6 81 -10 6 -3 -8 -59 -34 -136 -24 -72 -44
-140 -44 -150 0 -11 -10 -26 -22 -34 -13 -8 -55 -24 -94 -35 -39 -12 -82 -29
-95 -39 -13 -11 -39 -22 -57 -25 -19 -4 -48 -13 -65 -21 -18 -8 -77 -33 -132
-57 -55 -23 -104 -46 -109 -51 -6 -4 -16 -8 -23 -8 -7 0 -122 -47 -255 -104
-134 -57 -293 -124 -353 -150 -61 -25 -114 -46 -118 -46 -5 0 -27 -8 -50 -19
-23 -10 -109 -48 -192 -84 -82 -36 -179 -76 -215 -90 -36 -14 -132 -47 -214
-72 -83 -26 -157 -51 -165 -55 -9 -5 -56 -25 -106 -46 -49 -20 -115 -49 -145
-64 -30 -15 -82 -41 -115 -59 -33 -19 -79 -45 -103 -58 -27 -16 -47 -22 -53
-16 -5 5 -14 56 -19 114 -6 57 -11 317 -11 578 l-1 473 28 24 c16 13 32 23 35
24 4 0 96 43 205 96 110 52 235 114 279 136 44 23 96 51 115 63 19 12 73 41
120 65 47 23 119 62 160 85 41 23 82 45 90 48 8 4 42 23 75 42 33 19 62 34 65
35z m-2081 -220 c4 0 23 -11 43 -25 21 -14 50 -30 65 -37 15 -6 57 -22 93 -35
36 -14 88 -31 115 -38 28 -8 76 -20 108 -29 31 -8 76 -25 100 -39 23 -14 75
-53 116 -87 40 -33 90 -72 110 -85 20 -13 48 -35 62 -48 l27 -26 4 -523 c3
-288 9 -532 13 -542 7 -17 5 -18 -21 -12 -16 4 -42 16 -59 26 -16 11 -47 29
-68 40 -21 12 -75 48 -120 81 -45 32 -111 80 -147 106 -36 27 -70 53 -76 58
-6 6 -36 32 -66 59 -30 27 -104 75 -164 107 l-109 58 -2 43 c0 24 -6 86 -12
138 -6 52 -16 129 -24 170 -10 60 -11 134 -3 358 5 155 12 282 15 282z m3967
-152 c95 -2 176 -6 179 -10 4 -3 2 -31 -5 -61 l-11 -54 -82 -37 c-45 -20 -104
-42 -132 -50 -27 -8 -75 -23 -105 -34 -30 -11 -67 -22 -82 -26 l-26 -6 14 48
c8 26 18 56 23 67 5 11 19 53 32 94 l22 73 173 -4z"/>
<g>
<path d="M6172 9330 c-11 0 -30 -8 -42 -18 -13 -11 -22 -29 -22 -45 0 -16 9
-35 23 -47 13 -10 35 -19 50 -20 14 0 30 5 37 12 7 7 12 31 12 55 0 32 -5 45
-19 53 -11 5 -28 10 -39 10z"/>
</g>
<g>
<path d="M4121 8700 c-9 0 -27 -7 -39 -16 -15 -10 -22 -25 -22 -48 0 -19 6
-38 13 -44 6 -6 23 -13 37 -16 14 -4 36 0 50 7 18 9 25 21 26 45 1 24 -6 38
-24 52 -14 11 -32 20 -41 20z"/>
</g>
<g>
<path d="M5205 8697 c-5 1 -17 -2 -26 -7 -13 -7 -14 -20 -7 -77 4 -37 12 -120
17 -183 5 -63 7 -117 5 -119 -1 -2 -29 -4 -61 -6 -32 -1 -66 -6 -75 -10 -10
-4 -18 -15 -18 -25 0 -10 7 -26 16 -34 10 -11 27 -15 52 -11 20 2 67 7 104 10
48 5 68 11 73 22 3 9 -4 96 -15 192 -13 103 -29 190 -38 210 -9 19 -21 36 -27
38z"/>
</g>
</g>
<g>
<path d="M11195 8730 c-8 0 -15 -4 -15 -9 0 -5 7 -14 15 -21 9 -7 18 -10 21
-7 4 3 4 13 1 22 -4 8 -13 15 -22 15z"/>
</g>
</g>
</svg>
