<?xml version="1.0" standalone="no"?>
<!DOCTYPE svg PUBLIC "-//W3C//DTD SVG 20010904//EN"
 "http://www.w3.org/TR/2001/REC-SVG-20010904/DTD/svg10.dtd">
<svg version="1.0" xmlns="http://www.w3.org/2000/svg"
 width="623.000000pt" height="498.000000pt" viewBox="0 0 623.000000 498.000000"
 preserveAspectRatio="xMidYMid meet">
<metadata>
Created by potrace 1.16, written by Peter Selinger 2001-2019
</metadata>
<g transform="translate(0.000000,498.000000) scale(0.100000,-0.100000)"
fill="#000000" stroke="none">
<g>
<path d="M2148 4740 c-19 0 -45 -7 -58 -16 -14 -10 -31 -24 -37 -32 -7 -9 -13
-30 -13 -47 0 -20 8 -39 23 -51 12 -11 34 -28 49 -37 15 -9 38 -17 51 -17 13
0 31 8 40 18 9 10 23 34 31 54 14 32 14 40 1 72 -8 19 -24 40 -34 46 -11 5
-35 10 -53 10z"/>
</g>
<g>
<path d="M4654 4579 c-16 -1 -39 -4 -51 -6 -12 -2 -34 -18 -48 -34 -14 -17
-25 -40 -25 -51 0 -11 15 -35 33 -53 18 -18 52 -39 76 -46 43 -13 44 -13 72
19 22 25 29 42 29 75 0 34 -6 49 -28 70 -19 18 -38 27 -58 26z"/>
</g>
<g>
<path d="M2313 4370 c-4 0 -15 -5 -23 -10 -8 -5 -24 -10 -35 -10 -11 0 -37 -5
-57 -11 -35 -9 -38 -13 -38 -48 0 -34 -6 -44 -62 -92 -34 -30 -105 -86 -157
-126 -53 -40 -103 -78 -111 -86 -8 -8 -26 -20 -40 -27 -14 -7 -47 -32 -75 -55
-27 -23 -79 -61 -114 -85 -36 -23 -71 -48 -79 -54 -7 -6 -21 -18 -30 -26 -10
-8 -47 -38 -82 -67 -36 -28 -76 -63 -89 -77 -14 -14 -28 -26 -32 -26 -5 0 -24
-11 -44 -25 -20 -13 -45 -35 -56 -49 -10 -13 -33 -27 -49 -31 -17 -4 -30 -12
-30 -19 0 -7 -17 -19 -37 -28 -21 -9 -50 -20 -64 -23 -20 -5 -28 -15 -33 -38
-4 -18 -3 -33 2 -35 5 -1 17 -9 27 -16 9 -7 23 -29 30 -49 8 -25 9 -39 2 -46
-7 -7 -10 -68 -9 -163 0 -84 7 -198 15 -253 10 -73 13 -181 10 -405 -2 -168
-3 -312 -3 -320 0 -8 3 -53 5 -100 3 -47 5 -137 3 -200 -1 -63 -3 -173 -4
-245 -2 -71 -5 -166 -9 -210 -3 -44 -7 -133 -8 -198 -2 -108 0 -120 19 -138
13 -12 64 -29 140 -45 65 -15 146 -30 179 -35 33 -5 83 -13 110 -18 28 -6 77
-15 109 -21 33 -6 63 -13 67 -16 4 -2 63 -11 131 -20 68 -8 161 -24 208 -35
47 -12 144 -32 215 -45 72 -13 168 -32 215 -43 47 -10 105 -24 130 -30 25 -6
83 -20 130 -31 47 -10 101 -22 120 -25 19 -3 69 -15 112 -26 42 -10 87 -19
101 -19 13 0 36 9 50 20 14 11 30 20 36 20 6 0 28 9 48 20 21 11 43 20 50 20
7 0 17 9 23 20 6 11 18 20 26 20 8 0 54 18 102 40 48 23 99 47 114 55 14 8 34
15 45 15 10 0 37 11 60 24 23 13 57 27 75 31 18 4 51 13 73 20 22 7 54 20 70
28 17 8 50 25 75 37 25 12 68 29 95 37 28 8 55 20 60 27 6 7 36 22 68 34 32
12 68 28 80 36 12 7 60 26 107 41 47 15 104 36 128 46 23 11 51 19 62 19 11 0
20 5 20 10 0 6 10 10 23 10 12 0 47 15 77 33 30 19 70 37 89 40 18 4 69 25
113 47 44 22 88 40 98 40 10 0 23 7 30 15 7 8 21 15 32 15 11 0 43 11 71 24
29 13 69 29 90 37 20 7 37 17 37 21 0 4 10 8 23 8 13 0 27 4 33 9 5 5 38 21
74 36 36 14 74 30 85 35 11 4 56 19 100 33 72 22 82 28 102 63 13 21 23 47 23
57 0 10 -12 22 -27 28 -16 6 -46 8 -68 4 -21 -3 -53 -14 -70 -24 -16 -10 -48
-24 -70 -31 -22 -7 -74 -28 -115 -48 -41 -19 -93 -42 -115 -52 -22 -9 -70 -30
-108 -45 -37 -15 -70 -31 -73 -36 -3 -5 -14 -9 -25 -9 -11 0 -81 -29 -157 -64
-75 -36 -184 -83 -242 -106 -58 -23 -171 -69 -253 -101 -81 -32 -153 -59 -159
-59 -7 0 -64 -25 -128 -56 -63 -30 -128 -62 -145 -69 -16 -8 -72 -30 -122 -49
-51 -20 -96 -36 -100 -36 -3 0 -36 -13 -72 -29 -36 -16 -111 -48 -166 -71 -55
-23 -136 -59 -180 -80 -44 -21 -92 -41 -107 -44 -20 -5 -30 -2 -37 12 -5 10
-14 63 -20 117 -7 55 -15 156 -19 225 -4 69 -7 196 -7 282 0 146 1 159 21 178
12 13 59 31 115 46 52 14 118 31 148 39 29 8 59 19 65 24 7 6 32 11 56 12 25
1 61 8 80 15 19 6 62 17 95 24 33 7 71 16 85 20 14 5 41 12 60 16 19 3 41 11
48 17 8 6 60 11 125 11 62 0 150 -5 197 -11 47 -7 114 -17 150 -23 36 -6 89
-14 118 -19 39 -6 55 -4 63 5 6 7 8 22 5 32 -5 14 -1 21 14 25 18 5 20 12 19
54 -2 26 -2 59 -1 73 2 19 13 31 45 47 23 12 87 40 142 63 55 23 109 46 120
50 11 5 40 15 65 23 25 8 68 22 95 32 28 10 58 22 67 26 10 5 26 9 36 9 10 0
39 7 65 16 l46 15 -1 50 c0 37 -4 52 -18 59 -10 6 -33 10 -49 10 -17 0 -39 -4
-49 -10 -9 -5 -42 -18 -72 -29 -30 -11 -71 -25 -90 -32 -19 -6 -78 -28 -130
-47 -52 -20 -104 -42 -115 -49 -12 -7 -50 -23 -86 -36 -35 -13 -69 -22 -75
-20 -7 2 -10 177 -9 546 0 298 -2 650 -5 782 -3 132 -2 281 3 330 4 50 16 185
27 300 11 127 15 214 9 220 -5 5 -9 17 -9 26 0 9 -6 22 -14 28 -10 8 -39 9
-107 2 -52 -6 -107 -12 -124 -15 -16 -2 -75 -7 -130 -11 -55 -4 -116 -8 -135
-10 -19 -2 -81 -11 -138 -19 -75 -12 -114 -13 -145 -6 -23 5 -103 10 -177 10
-76 0 -170 7 -215 15 -48 9 -167 17 -300 20 -121 3 -265 7 -320 10 -55 3 -113
7 -130 10 -16 2 -64 8 -105 13 -42 5 -85 14 -97 20 -12 7 -25 12 -30 12z m52
-140 c14 0 69 -7 124 -15 59 -9 206 -16 372 -19 178 -3 309 -11 374 -21 55 -9
170 -18 255 -21 85 -3 189 -6 230 -6 41 -1 134 6 205 15 72 8 165 18 208 21
42 3 77 2 77 -2 0 -5 -12 -20 -27 -34 -16 -13 -60 -46 -99 -71 -40 -26 -74
-47 -78 -47 -3 0 -16 -8 -28 -17 -13 -10 -47 -42 -77 -71 -30 -28 -66 -58 -80
-66 -14 -7 -46 -24 -70 -37 -24 -13 -57 -40 -72 -59 -16 -19 -45 -44 -66 -55
-21 -11 -45 -28 -54 -37 -9 -10 -21 -18 -28 -18 -6 0 -11 -6 -11 -14 0 -7 -17
-26 -37 -42 -21 -16 -58 -47 -82 -69 -24 -22 -81 -76 -127 -120 -46 -44 -103
-97 -127 -117 -24 -20 -65 -48 -90 -62 -40 -23 -52 -25 -89 -17 -24 5 -95 12
-158 16 -63 3 -144 10 -180 15 -36 4 -74 9 -85 9 -11 0 -44 4 -73 9 -29 5 -60
16 -69 25 -11 11 -17 37 -18 94 -1 43 -7 121 -14 173 -6 52 -14 122 -17 155
-2 33 -6 125 -8 205 -3 80 -7 173 -11 207 -4 34 -5 69 -2 78 4 8 18 15 32 15z
m-287 -211 c6 1 12 -2 12 -6 0 -3 -6 -14 -13 -22 -7 -9 -20 -41 -29 -71 -9
-30 -24 -104 -33 -165 -10 -60 -24 -117 -32 -126 -7 -8 -13 -32 -13 -51 0 -20
-7 -41 -15 -48 -10 -8 -15 -31 -15 -66 0 -29 -4 -64 -10 -79 -9 -25 -12 -26
-72 -21 -35 3 -117 8 -183 12 -66 3 -138 10 -160 15 -22 5 -88 9 -147 9 -59 0
-109 4 -112 9 -3 5 2 18 12 29 9 10 33 25 52 33 19 7 100 66 180 130 81 64
160 124 177 132 16 9 35 23 42 31 8 9 20 16 28 16 7 0 33 20 56 44 24 24 69
61 101 82 32 22 69 45 83 52 13 8 27 20 30 29 3 8 15 19 27 23 12 5 27 9 34 9z
m2264 -13 c5 -9 7 -20 4 -25 -3 -4 -9 -163 -13 -352 -4 -189 -7 -366 -7 -394
1 -27 2 -59 3 -70 1 -11 2 -60 2 -110 1 -49 1 -101 2 -115 0 -14 -3 -225 -7
-470 -4 -245 -10 -448 -14 -451 -4 -3 -50 -20 -103 -37 -53 -18 -116 -32 -141
-32 -25 0 -67 -7 -94 -16 -36 -11 -89 -15 -194 -15 -80 1 -197 4 -260 7 -63 3
-133 9 -155 14 -22 4 -76 19 -121 32 -58 18 -96 23 -140 20 -39 -2 -65 1 -76
10 -14 11 -15 22 -8 68 5 30 12 109 16 175 3 66 8 176 9 245 2 69 8 154 15
190 10 57 17 71 58 112 26 26 56 57 67 70 11 13 41 41 66 63 25 22 50 48 55
57 5 9 37 48 71 85 33 37 82 91 107 118 25 28 46 54 46 59 0 5 21 32 46 60 25
28 59 66 75 84 16 18 29 35 29 38 0 3 24 29 53 57 29 29 78 73 108 99 30 26
80 68 111 93 32 25 59 45 62 45 2 0 37 33 78 73 40 39 111 107 157 150 70 65
86 76 93 63z m-2141 -46 c5 0 10 -17 11 -37 1 -21 1 -47 0 -58 -1 -11 3 -65 8
-120 6 -55 17 -171 26 -258 9 -87 14 -160 12 -162 -2 -2 -39 1 -83 6 -44 6
-92 11 -107 13 -15 1 -31 5 -34 9 -4 4 -1 19 6 34 7 16 18 55 26 88 7 33 25
103 39 155 14 52 33 120 41 150 9 30 20 75 24 100 5 25 11 53 15 63 4 9 11 17
16 17z m1729 -130 c6 0 10 -2 10 -4 0 -3 -4 -8 -10 -11 -5 -3 -10 -1 -10 4 0
6 5 11 10 11z m-88 -70 c5 0 6 -10 2 -22 -3 -13 -7 -23 -8 -23 0 0 -32 -27
-71 -60 -38 -33 -119 -109 -178 -170 -60 -60 -116 -124 -125 -141 -10 -18 -44
-62 -77 -99 -33 -37 -98 -109 -143 -159 -46 -50 -96 -103 -110 -118 -15 -16
-33 -28 -39 -28 -9 0 -13 23 -13 83 l0 83 38 33 c20 18 60 54 88 80 27 25 70
64 95 86 25 22 58 50 72 63 15 12 30 22 35 22 4 0 45 37 92 81 47 44 120 110
163 146 42 36 82 74 88 84 5 10 14 19 20 19 6 0 22 9 36 20 14 11 30 20 35 20z
m-2569 -460 c62 0 128 -5 147 -10 19 -6 83 -12 143 -15 59 -2 111 -6 116 -9 5
-3 41 -6 81 -7 50 -1 73 -6 77 -15 3 -7 -11 -46 -31 -86 -19 -40 -43 -93 -52
-118 -9 -25 -24 -67 -35 -95 -10 -27 -18 -69 -19 -91 0 -23 -6 -47 -14 -53 -8
-7 -17 -23 -20 -36 -4 -14 -11 -25 -16 -25 -5 0 -13 -18 -16 -40 -4 -22 -11
-43 -15 -46 -5 -3 -9 -23 -9 -44 0 -24 -12 -61 -30 -97 -16 -31 -30 -68 -30
-82 0 -13 -7 -49 -16 -80 -8 -31 -24 -86 -35 -122 -10 -36 -19 -74 -19 -86 0
-11 -11 -42 -25 -69 -14 -27 -25 -57 -25 -67 0 -9 -9 -34 -20 -54 -11 -21 -20
-49 -20 -62 0 -14 -10 -36 -23 -50 -13 -15 -31 -53 -41 -86 -10 -33 -28 -76
-41 -95 -13 -19 -36 -82 -50 -140 -15 -58 -34 -121 -43 -140 -9 -19 -23 -41
-29 -48 -11 -11 -13 -11 -13 2 0 8 5 27 11 43 6 16 10 94 10 179 0 83 -3 163
-6 176 -4 14 -2 43 4 66 7 24 8 49 2 63 -5 15 -4 30 2 41 8 12 7 39 -1 95 -7
43 -12 87 -12 98 0 11 -2 124 -4 250 -2 127 -7 311 -11 410 -4 99 -8 189 -8
200 -1 11 2 85 6 165 5 80 11 153 13 163 5 15 19 17 117 17z m777 -65 c41 -3
106 -12 144 -20 39 -8 75 -20 80 -25 8 -8 10 -154 9 -463 -2 -320 0 -460 9
-480 8 -21 8 -31 -1 -40 -6 -6 -11 -27 -11 -46 0 -30 -9 -43 -72 -101 -40 -37
-107 -96 -148 -131 -41 -35 -80 -68 -86 -74 -7 -5 -33 -26 -60 -45 -26 -19
-68 -55 -93 -79 -25 -24 -71 -63 -101 -87 -30 -23 -91 -75 -135 -114 -44 -39
-90 -77 -102 -82 -13 -6 -23 -15 -23 -19 0 -5 -13 -15 -29 -24 -16 -8 -50 -35
-75 -60 -26 -25 -50 -45 -55 -45 -4 0 1 33 12 73 11 39 26 97 34 127 8 30 19
64 23 75 4 11 13 36 20 55 7 19 22 55 34 80 11 25 24 47 29 48 4 2 7 9 7 16 0
7 9 21 19 30 10 10 21 32 24 49 3 18 20 70 37 117 17 47 47 143 66 214 18 71
38 134 43 140 5 6 12 29 16 51 4 22 28 105 53 185 25 80 46 150 47 155 0 6 8
27 17 48 10 21 36 93 58 160 23 67 62 166 88 220 l47 98 75 -6z m436 -67 c38
-4 92 -10 119 -13 28 -2 108 -9 180 -15 71 -6 130 -12 130 -13 1 -1 8 -13 17
-28 13 -20 15 -52 13 -176 l-2 -152 -164 -161 c-90 -89 -184 -178 -209 -198
-25 -19 -64 -55 -86 -79 -23 -24 -46 -43 -52 -43 -5 0 -13 16 -16 35 -4 19 -2
168 4 332 6 164 8 348 5 409 l-7 110 68 -8z m412 -598 c15 0 17 -12 15 -108 0
-59 -4 -123 -7 -142 -3 -19 -7 -96 -9 -171 -2 -75 -6 -140 -9 -145 -4 -5 -84
-8 -180 -7 -102 1 -198 7 -233 15 l-60 13 3 35 c3 23 18 52 45 85 23 28 78 84
122 125 43 41 89 85 102 97 13 12 23 27 23 33 0 5 6 10 14 10 7 0 32 21 56 48
23 26 55 62 71 80 16 17 37 32 47 32z m-612 -600 c2 0 4 -16 4 -35 0 -23 -5
-35 -13 -35 -8 0 -22 -9 -33 -21 -10 -12 -36 -30 -57 -40 -21 -11 -47 -31 -59
-44 -12 -14 -30 -25 -40 -25 -10 0 -18 -4 -18 -8 0 -5 -15 -15 -32 -24 -18 -9
-49 -29 -68 -45 -19 -15 -48 -42 -65 -58 -17 -17 -42 -31 -54 -31 l-23 0 25
21 c14 11 69 56 123 100 53 44 121 101 151 128 29 26 59 47 66 47 6 0 29 16
50 35 21 19 40 35 43 35z m364 -82 c102 0 195 -2 208 -5 21 -5 22 -9 22 -110
0 -57 -5 -113 -10 -124 -6 -10 -18 -19 -27 -19 -9 0 -35 -9 -57 -19 -23 -11
-70 -27 -106 -36 -36 -9 -81 -20 -100 -26 -19 -6 -55 -14 -80 -19 -25 -4 -79
-18 -120 -30 -41 -12 -84 -24 -95 -27 -11 -3 -24 -9 -30 -13 -5 -4 -45 -19
-89 -34 -43 -14 -84 -26 -91 -26 -7 0 -39 -9 -71 -20 -33 -10 -76 -25 -96 -33
-20 -7 -46 -21 -56 -30 -10 -9 -27 -17 -38 -17 -10 0 -66 -16 -123 -36 -57
-19 -113 -34 -124 -32 -18 3 -14 7 19 29 21 15 59 45 84 68 25 22 49 41 54 41
5 0 35 17 65 37 31 21 61 42 66 49 6 6 25 19 43 28 19 10 48 32 66 49 17 18
67 57 111 87 44 30 90 59 103 63 12 5 22 13 22 18 0 4 15 16 33 25 17 9 50 31
73 50 23 18 53 36 68 40 15 3 41 21 59 39 l32 33 185 0z m442 -16 c40 -2 97
-12 125 -22 29 -11 59 -17 66 -14 7 2 30 -2 50 -11 20 -8 58 -15 84 -15 35 -1
44 -3 32 -10 -9 -5 -61 -19 -115 -30 -55 -12 -143 -35 -197 -52 -53 -16 -103
-28 -111 -25 -9 4 -15 32 -19 89 -3 45 -1 85 3 88 5 3 42 4 82 2z m-237 -373
c19 1 20 -5 22 -71 1 -40 2 -125 3 -188 1 -63 7 -194 15 -290 7 -96 16 -190
19 -209 5 -30 4 -33 -17 -28 -12 2 -80 17 -152 32 -71 15 -155 30 -185 35 -30
4 -68 12 -85 18 -16 6 -79 22 -140 36 -60 14 -146 32 -190 41 -44 8 -114 22
-156 30 -41 8 -122 22 -180 30 -57 7 -153 23 -214 34 -60 11 -139 26 -174 33
-36 8 -66 19 -69 26 -2 6 9 16 25 22 15 6 37 14 48 19 11 5 52 13 90 19 39 6
119 28 180 48 60 20 131 47 157 60 26 13 53 24 61 24 7 0 32 9 55 20 22 11 46
20 52 20 6 0 54 13 108 29 53 17 124 41 157 55 33 14 69 26 81 26 11 0 24 4
30 9 5 6 29 15 54 21 25 6 63 16 85 21 22 5 60 13 85 18 25 5 61 14 80 20 19
5 58 16 85 24 28 8 59 15 70 16z"/>
</g>
<g>
<path d="M641 3529 c-9 0 -34 -7 -56 -16 -21 -9 -49 -28 -62 -42 -17 -19 -21
-33 -17 -55 3 -16 7 -34 8 -40 1 -6 8 -21 14 -33 7 -13 22 -23 34 -23 12 0 50
5 84 11 62 11 63 11 80 56 13 32 15 52 8 71 -5 14 -24 37 -43 49 -19 13 -41
23 -50 22z"/>
</g>
<g>
<path d="M5859 1950 c-10 0 -33 -12 -49 -27 -23 -20 -33 -40 -37 -70 -4 -29
-2 -43 6 -43 6 0 11 -7 11 -15 0 -8 17 -26 37 -40 21 -14 46 -25 55 -25 10 0
31 14 47 31 21 21 31 45 36 80 5 37 3 56 -8 73 -9 13 -30 26 -48 30 -17 3 -40
6 -50 6z"/>
</g>
<g>
<path d="M740 920 c-32 0 -54 -6 -65 -16 -9 -9 -23 -26 -30 -38 -9 -14 -11
-32 -7 -55 5 -25 17 -39 42 -52 19 -11 52 -19 72 -19 25 0 45 7 58 20 11 11
21 32 21 48 1 15 0 34 -1 42 -1 8 -11 27 -22 42 -17 24 -26 28 -68 28z"/>
</g>
<g>
<path d="M3066 362 c-12 3 -41 -2 -64 -10 -28 -9 -47 -23 -57 -42 -8 -16 -15
-40 -15 -55 0 -14 3 -25 8 -25 4 0 12 -10 17 -22 6 -13 21 -28 35 -35 14 -7
43 -13 66 -13 29 0 46 6 60 21 14 15 19 36 19 74 0 42 -5 59 -23 78 -13 14
-34 27 -46 29z"/>
</g>
</g>
</svg>
