<?xml version="1.0" standalone="no"?>
<!DOCTYPE svg PUBLIC "-//W3C//DTD SVG 20010904//EN"
 "http://www.w3.org/TR/2001/REC-SVG-20010904/DTD/svg10.dtd">
<svg version="1.0" xmlns="http://www.w3.org/2000/svg"
 width="1982.000000pt" height="1982.000000pt" viewBox="0 0 1982.000000 1982.000000"
 preserveAspectRatio="xMidYMid meet">
<metadata>
Created by potrace 1.16, written by Peter Selinger 2001-2019
</metadata>
<g transform="translate(0.000000,1982.000000) scale(0.100000,-0.100000)"
fill="#000000" stroke="none">
<g>
<path d="M6128 18649 c-7 -1 -38 -5 -68 -10 -30 -5 -58 -13 -63 -18 -4 -4 -10
-30 -14 -58 -5 -42 -2 -58 17 -87 12 -20 35 -43 50 -51 16 -8 49 -15 74 -15
41 0 48 3 71 37 19 29 25 50 25 94 0 41 -5 60 -17 70 -10 8 -28 20 -40 27 -13
6 -28 11 -35 11z"/>
</g>
<g>
<path d="M6167 17879 c-7 0 -70 -20 -141 -45 -72 -24 -134 -48 -140 -54 -5 -5
-19 -10 -31 -10 -12 0 -25 -4 -30 -8 -6 -4 -28 -14 -50 -21 -22 -7 -47 -19
-55 -26 -8 -7 -45 -22 -83 -34 -37 -11 -77 -26 -90 -32 -12 -7 -26 -18 -30
-25 -4 -8 -21 -14 -38 -14 -16 0 -42 -8 -56 -17 -14 -10 -76 -25 -137 -35 -61
-10 -131 -21 -156 -24 -25 -4 -50 -10 -55 -15 -6 -4 -33 -13 -59 -19 -27 -6
-72 -21 -100 -34 -28 -13 -62 -26 -76 -30 -14 -4 -34 -11 -45 -15 -11 -5 -45
-16 -75 -26 -30 -10 -66 -27 -79 -37 -13 -10 -28 -18 -34 -18 -5 0 -52 -20
-103 -45 -76 -37 -95 -51 -100 -72 -5 -16 -2 -35 7 -49 8 -12 61 -74 119 -138
103 -115 106 -116 145 -114 36 3 40 6 43 33 2 17 11 38 19 47 10 11 13 26 9
42 -3 14 -14 27 -24 30 -10 3 -34 26 -55 50 -20 25 -37 47 -37 50 0 3 19 18
43 33 23 16 47 33 54 39 6 6 33 16 60 23 26 7 59 18 73 26 14 7 44 16 67 20
23 3 47 13 54 21 6 8 19 14 29 14 9 0 30 6 46 14 16 8 45 21 64 29 19 9 76 21
125 28 50 6 103 18 119 25 16 8 41 14 56 14 14 0 49 7 76 16 27 9 56 22 64 29
8 7 34 18 58 25 24 6 58 20 75 31 18 10 39 19 48 19 9 0 24 9 34 20 10 11 24
20 32 20 8 0 60 18 116 40 56 21 116 44 132 51 17 7 41 14 53 16 13 2 47 13
76 23 45 17 52 24 54 49 2 22 -6 36 -29 55 -17 14 -36 26 -42 25z"/>
</g>
<g>
<path d="M10245 17830 c-11 -1 -25 -7 -31 -14 -8 -8 -12 -79 -14 -212 -1 -109
-3 -361 -6 -559 -2 -198 -6 -862 -7 -1475 l-3 -1115 -50 -10 c-35 -8 -52 -17
-59 -33 -6 -13 -19 -22 -32 -22 -12 0 -25 -4 -28 -10 -3 -5 -19 -10 -34 -10
-16 0 -33 -6 -39 -12 -5 -7 -13 -24 -17 -38 -4 -14 -14 -33 -22 -42 -11 -12
-13 -26 -9 -45 4 -15 11 -49 15 -75 4 -25 12 -52 18 -60 6 -7 9 -35 7 -63 -2
-27 -8 -59 -13 -70 -5 -11 -16 -51 -25 -90 -9 -38 -21 -88 -26 -111 -5 -22
-11 -74 -15 -114 -3 -40 -10 -80 -17 -87 -6 -7 -8 -16 -4 -20 3 -3 0 -13 -7
-22 -7 -9 -21 -39 -31 -68 -11 -33 -15 -64 -11 -82 4 -17 0 -50 -9 -78 -8 -26
-23 -84 -31 -128 -9 -44 -18 -85 -20 -92 -2 -6 -18 -14 -35 -18 -26 -6 -30
-10 -24 -28 4 -12 7 -34 6 -49 0 -15 -5 -36 -11 -47 -6 -11 -11 -38 -11 -60 0
-21 -8 -53 -17 -70 -10 -16 -25 -33 -33 -36 -8 -3 -29 -13 -47 -23 -17 -9 -45
-34 -62 -55 -17 -22 -55 -57 -86 -79 -52 -37 -57 -39 -79 -25 -12 8 -37 46
-56 84 -18 37 -41 79 -50 93 -9 14 -28 43 -42 65 -14 22 -39 60 -54 84 -16 24
-39 60 -51 79 -12 20 -43 63 -70 95 -26 32 -69 82 -95 111 -27 29 -48 58 -48
64 0 7 -17 23 -39 36 -21 14 -49 38 -62 54 -13 16 -51 48 -84 71 -33 23 -85
48 -115 56 -30 8 -65 15 -77 15 -11 0 -45 11 -75 25 -29 14 -70 25 -90 25 -20
0 -40 5 -43 11 -4 5 -30 10 -58 9 -29 -1 -67 2 -85 6 -20 4 -50 1 -73 -6 -21
-7 -39 -16 -39 -19 0 -3 11 -18 24 -33 13 -15 52 -39 87 -53 35 -15 87 -46
116 -68 29 -23 53 -46 53 -51 0 -4 16 -23 36 -42 24 -22 35 -38 30 -49 -3 -9
-21 -22 -40 -30 -22 -10 -36 -24 -41 -42 -4 -15 -9 -39 -11 -51 -1 -13 1 -35
7 -49 6 -16 5 -31 -1 -43 -8 -14 -6 -33 5 -67 8 -27 17 -57 18 -68 2 -11 7
-27 10 -35 3 -8 11 -51 17 -95 7 -44 21 -109 32 -145 12 -36 21 -72 22 -80 1
-8 7 -33 14 -55 6 -22 14 -52 17 -67 3 -15 13 -34 22 -43 9 -9 20 -40 24 -67
5 -28 15 -58 24 -68 8 -9 15 -25 15 -34 0 -13 -5 -16 -17 -11 -10 3 -40 13
-68 20 -27 7 -79 23 -115 35 -36 11 -87 27 -115 35 -27 7 -75 20 -105 28 -30
8 -86 22 -125 31 -38 9 -81 19 -95 21 -14 2 -72 9 -130 15 -58 6 -155 14 -216
18 -60 4 -166 4 -235 0 -68 -5 -162 -12 -209 -18 -47 -5 -109 -14 -139 -19
-30 -6 -74 -19 -97 -31 -24 -11 -47 -20 -50 -20 -4 0 -63 -57 -131 -127 -69
-70 -132 -138 -140 -150 -9 -13 -21 -23 -29 -23 -7 0 -27 -29 -44 -64 -16 -36
-34 -67 -38 -70 -5 -3 -14 -23 -22 -45 -7 -23 -16 -41 -20 -41 -4 0 -7 -6 -7
-12 0 -7 -10 -56 -22 -108 -17 -78 -20 -119 -17 -220 2 -69 9 -156 15 -195 6
-38 15 -92 21 -120 6 -27 14 -79 19 -115 4 -36 15 -90 24 -120 8 -30 20 -73
25 -95 5 -22 19 -65 31 -95 12 -30 21 -65 21 -77 0 -12 4 -32 9 -45 5 -13 12
-32 16 -43 3 -11 7 -22 7 -25 1 -3 12 -26 25 -51 13 -26 23 -50 23 -53 0 -3
14 -36 30 -73 17 -38 34 -75 39 -83 5 -9 12 -30 15 -47 7 -31 7 -31 -41 -35
-26 -2 -67 -1 -89 3 -23 5 -100 6 -170 3 -71 -2 -293 -4 -494 -3 -201 1 -482
1 -625 0 -143 0 -262 -1 -265 -2 -3 -1 -9 0 -15 1 -5 1 -217 1 -470 1 -253 -1
-864 -2 -1359 -3 -753 -1 -900 -4 -912 -15 -8 -8 -14 -20 -14 -27 0 -7 8 -20
18 -29 17 -15 83 -16 758 -12 406 2 1322 8 2034 12 712 4 1369 6 1460 5 91 -1
183 -2 205 -2 37 -1 43 -5 70 -48 17 -26 40 -63 51 -82 12 -19 48 -62 80 -95
33 -33 93 -91 135 -130 42 -38 100 -87 130 -109 30 -21 77 -49 106 -62 28 -13
76 -31 105 -40 29 -9 56 -20 60 -23 4 -3 -11 -33 -33 -66 -28 -43 -39 -70 -39
-98 0 -24 -8 -49 -20 -64 -11 -14 -20 -40 -20 -57 0 -17 -7 -44 -15 -59 -8
-15 -19 -56 -25 -90 -6 -34 -15 -69 -19 -77 -5 -9 -12 -34 -16 -57 -3 -23 -12
-47 -20 -53 -7 -6 -35 -17 -61 -24 -27 -8 -114 -37 -194 -64 -80 -27 -175 -56
-212 -66 -36 -9 -80 -16 -96 -16 -16 0 -49 -9 -73 -20 -24 -11 -56 -20 -71
-20 -14 0 -55 -13 -90 -29 -34 -16 -75 -41 -90 -57 -14 -16 -35 -55 -46 -86
-11 -32 -18 -58 -16 -58 3 0 -3 -12 -14 -28 -11 -15 -25 -46 -31 -69 -6 -23
-18 -54 -26 -70 -8 -15 -15 -36 -15 -46 0 -10 -4 -27 -10 -37 -7 -14 -6 -20 8
-26 9 -4 37 -13 62 -18 28 -7 45 -17 46 -26 0 -8 -8 -27 -18 -42 -10 -14 -18
-31 -18 -37 0 -6 -9 -16 -20 -23 -12 -7 -36 -40 -55 -73 -19 -33 -53 -80 -75
-105 -22 -24 -40 -52 -40 -61 0 -9 -11 -24 -25 -33 -13 -9 -28 -31 -33 -50 -6
-18 -29 -57 -51 -86 -23 -29 -48 -68 -56 -86 -7 -18 -24 -38 -36 -45 l-23 -12
23 -18 c13 -11 39 -19 60 -19 20 0 54 5 76 12 22 6 43 11 47 10 3 -1 12 5 18
13 7 8 20 15 30 15 10 0 61 17 113 38 52 21 107 46 121 55 14 9 28 17 32 17 3
0 40 21 80 46 41 25 74 49 74 54 0 4 28 20 63 35 34 15 85 42 112 60 28 18 68
41 90 51 22 10 45 22 50 26 6 5 41 28 78 53 37 24 83 52 102 61 19 9 35 20 35
24 0 5 16 14 35 20 20 7 55 26 78 44 23 17 59 42 80 54 21 12 44 22 52 22 8 0
19 -17 25 -40 5 -22 15 -59 21 -82 6 -24 12 -47 13 -53 2 -5 9 -30 16 -55 7
-25 24 -56 37 -71 13 -14 23 -31 23 -38 0 -6 11 -29 25 -49 14 -20 25 -42 25
-48 0 -6 -12 -21 -26 -35 -15 -13 -37 -41 -51 -62 -13 -21 -37 -46 -52 -55
-16 -8 -43 -38 -62 -64 -19 -27 -44 -59 -56 -71 -12 -12 -33 -47 -46 -77 -14
-31 -32 -62 -41 -69 -9 -7 -16 -21 -16 -31 0 -9 -9 -25 -20 -35 -11 -10 -20
-22 -20 -28 0 -5 -11 -22 -25 -39 -14 -16 -25 -37 -25 -46 0 -10 -11 -34 -25
-54 -14 -20 -25 -46 -25 -57 0 -12 -3 -21 -7 -21 -5 0 -19 -24 -33 -53 -13
-28 -36 -70 -50 -92 -14 -22 -37 -65 -50 -95 -14 -30 -28 -57 -31 -60 -3 -3
-20 -35 -37 -71 -18 -37 -32 -70 -32 -73 0 -4 -12 -25 -27 -49 -15 -23 -37
-62 -49 -87 -12 -25 -30 -63 -39 -85 -10 -26 -14 -53 -10 -77 4 -21 11 -41 17
-44 5 -3 24 1 41 9 18 8 53 26 80 39 26 12 50 31 53 41 3 9 12 17 20 17 8 0
14 5 14 10 0 6 5 10 10 10 6 0 68 56 138 125 70 69 162 160 204 202 43 43 80
84 83 93 3 9 18 23 33 32 16 9 37 33 47 52 11 19 32 41 47 47 20 8 28 18 28
36 0 17 17 43 50 77 28 28 56 62 63 76 7 13 31 37 55 53 23 16 49 42 57 57 8
16 24 34 34 40 14 7 29 6 55 -5 19 -8 48 -15 64 -15 16 0 34 -6 39 -12 6 -7
13 -27 16 -44 3 -16 1 -86 -4 -155 -5 -68 -9 -221 -9 -339 l0 -215 56 -52 c55
-52 55 -52 127 -55 60 -3 80 1 122 22 28 14 54 31 58 38 4 6 13 12 19 12 6 0
62 25 124 55 73 35 121 65 135 84 12 16 32 32 44 35 12 3 40 23 61 43 22 21
51 44 66 52 14 7 55 40 89 72 35 32 67 62 71 66 4 5 27 31 53 58 25 28 52 65
60 83 8 17 19 32 25 32 6 0 22 24 35 54 13 30 29 57 34 61 6 3 11 17 11 30 0
13 5 27 10 30 6 3 10 15 10 25 0 11 5 31 12 45 6 14 15 25 20 25 5 0 7 -9 3
-19 -3 -11 -8 -86 -12 -168 -3 -81 -5 -251 -4 -378 2 -126 5 -248 7 -270 2
-22 8 -103 13 -180 5 -77 10 -148 10 -157 1 -11 9 -18 22 -18 13 0 25 11 35
33 8 17 27 55 42 82 15 28 34 70 42 95 7 25 17 49 22 54 4 6 8 17 8 26 0 8 11
36 25 62 14 26 25 54 25 63 0 8 4 15 8 15 5 0 9 6 9 13 1 6 7 28 13 47 7 19
21 55 31 80 10 25 21 61 25 80 3 19 19 73 35 120 16 47 29 93 29 103 0 9 4 25
9 35 5 9 14 37 20 62 7 25 24 95 38 155 14 61 29 133 34 160 6 28 14 73 20
100 6 28 15 79 20 115 6 36 17 87 25 114 8 26 14 57 14 67 0 11 6 19 13 20 6
1 24 0 39 -1 15 -1 47 10 71 24 24 14 53 26 65 26 15 0 22 -6 22 -19 0 -11 -4
-22 -9 -25 -4 -3 -14 -27 -21 -53 -7 -27 -19 -61 -25 -78 -7 -16 -21 -57 -30
-90 -9 -33 -28 -96 -42 -140 -14 -44 -27 -93 -30 -110 -3 -16 -13 -55 -23 -85
-10 -30 -21 -75 -25 -100 -3 -25 -10 -54 -15 -65 -5 -11 -17 -56 -26 -100 -9
-44 -21 -114 -25 -155 -5 -41 -15 -130 -22 -198 -10 -86 -12 -155 -6 -225 4
-56 10 -149 13 -205 4 -57 11 -112 16 -123 6 -10 19 -23 30 -29 16 -9 27 -6
54 15 18 14 37 25 42 25 5 0 20 12 33 25 13 14 28 25 35 25 7 0 26 15 42 32
17 18 43 52 58 75 15 23 39 49 52 58 13 8 24 21 24 29 0 7 24 35 53 62 28 27
73 74 99 104 42 49 49 53 62 40 13 -13 14 -34 5 -145 -5 -71 -11 -314 -14
-540 -2 -225 -7 -801 -10 -1280 -3 -478 -8 -1104 -10 -1390 -2 -286 -6 -867
-9 -1292 -3 -425 -3 -779 0 -788 4 -8 18 -15 33 -15 14 0 31 4 38 8 10 6 13
330 17 1437 3 787 6 1545 6 1685 1 140 1 327 1 415 0 88 0 268 1 400 0 132 0
537 -1 900 l-1 660 37 36 c21 20 50 38 65 41 15 3 31 2 37 -2 7 -4 12 -163 14
-486 2 -263 7 -533 10 -599 4 -66 9 -221 11 -345 2 -124 9 -237 15 -252 6 -16
15 -28 20 -28 6 0 15 9 21 19 5 11 10 33 10 50 0 16 4 31 9 33 6 2 13 46 16
98 4 52 11 214 16 360 5 146 12 304 17 351 4 48 4 104 1 125 -4 22 -6 171 -4
332 2 199 6 297 14 305 6 6 28 11 48 11 21 1 43 4 50 9 6 4 35 12 65 17 29 6
60 13 69 15 10 4 20 -2 24 -12 4 -10 13 -108 21 -218 7 -110 20 -229 28 -265
7 -36 19 -77 25 -92 6 -16 15 -28 20 -28 5 0 16 11 25 25 9 14 23 58 30 97 8
40 19 103 25 140 6 37 14 114 17 170 3 57 7 108 9 115 3 8 17 6 52 -7 26 -10
67 -21 90 -25 l42 -7 6 49 c3 26 10 66 15 88 5 22 7 72 5 110 -2 39 -7 104
-10 146 -7 75 -6 78 35 165 23 49 46 98 50 109 4 11 19 45 33 76 15 31 27 64
27 74 0 10 12 43 27 74 14 31 29 67 33 81 3 14 14 26 23 28 11 2 23 -11 36
-41 11 -24 27 -50 36 -57 8 -7 15 -23 15 -36 0 -14 4 -32 9 -42 5 -9 19 -38
31 -64 20 -44 20 -49 6 -93 -9 -25 -16 -56 -16 -68 0 -12 -9 -39 -19 -58 -11
-20 -20 -54 -20 -75 0 -22 -4 -63 -10 -93 -6 -29 -10 -100 -9 -157 0 -84 3
-104 15 -104 8 0 26 9 40 20 14 11 31 20 38 20 6 0 20 9 29 19 10 11 31 23 46
26 15 3 42 19 61 36 18 16 39 29 46 29 7 0 29 -33 48 -72 19 -40 39 -80 44
-88 5 -8 25 -49 46 -90 20 -41 52 -102 70 -135 19 -33 63 -89 99 -124 l65 -65
83 -4 83 -4 41 35 c24 21 48 55 58 82 10 25 28 65 41 89 14 26 25 71 30 117 4
41 12 77 17 80 6 4 12 26 14 50 2 24 7 85 10 134 3 50 6 99 5 110 0 11 -5 97
-10 190 -5 94 -13 209 -17 257 -6 73 -4 89 10 103 9 9 16 24 16 33 0 9 16 28
35 41 19 12 40 36 47 51 7 16 20 31 29 33 9 3 23 16 30 30 8 13 22 40 33 58
10 19 36 55 57 80 22 26 39 52 39 58 0 6 6 11 13 11 6 -1 37 -30 67 -66 30
-35 95 -104 143 -152 49 -48 107 -99 130 -114 23 -15 54 -36 68 -47 14 -11 52
-29 85 -41 32 -12 85 -27 118 -33 44 -8 63 -7 78 2 10 6 23 9 28 6 6 -4 13 2
17 12 4 10 17 26 29 36 13 10 30 32 38 49 9 17 16 41 16 53 0 12 -18 55 -40
94 -22 40 -52 88 -67 107 -15 19 -40 49 -54 66 -15 18 -58 54 -95 79 -43 29
-101 57 -154 74 -47 14 -116 41 -155 60 -38 18 -86 38 -106 44 -35 11 -36 13
-28 49 4 20 17 64 28 97 11 33 27 86 36 117 9 32 21 60 25 63 5 3 13 35 19 73
6 37 12 83 14 102 2 20 7 42 12 50 6 8 9 91 8 185 -1 93 -7 190 -12 215 -6 25
-13 57 -15 73 -3 15 2 40 10 55 7 15 14 37 14 50 0 12 3 22 8 22 4 0 16 28 26
63 11 34 23 67 26 72 4 6 19 48 34 95 15 47 32 99 38 115 5 17 14 46 20 65 5
19 18 80 28 135 10 55 24 116 29 135 6 19 11 83 11 142 l0 107 408 0 c224 1
574 4 777 7 204 3 793 7 1310 9 517 2 1019 4 1117 4 l176 1 33 41 c29 37 30
42 16 56 -12 13 -19 14 -30 5 -10 -9 -207 -13 -718 -17 -387 -3 -855 -8 -1039
-10 -184 -3 -346 -6 -360 -7 -14 0 -142 0 -285 0 -143 1 -514 0 -825 -3 -311
-2 -571 -1 -579 4 -8 6 -16 43 -21 112 -5 57 -13 129 -18 159 -6 30 -15 67
-20 81 -6 15 -9 38 -8 52 2 14 19 50 40 80 20 31 36 60 36 67 0 6 9 23 19 38
11 15 22 48 26 74 3 26 1 65 -5 87 -9 35 -18 45 -60 66 -35 18 -66 25 -104 25
-31 0 -73 -7 -95 -16 -22 -8 -52 -13 -68 -11 -15 3 -48 13 -73 22 -35 13 -64
15 -126 11 -45 -3 -99 -13 -120 -22 -22 -9 -41 -16 -44 -16 -3 0 -18 -6 -35
-14 -16 -8 -45 -28 -64 -44 -18 -17 -38 -30 -42 -30 -5 0 -31 -23 -59 -51 -27
-27 -56 -60 -65 -71 -8 -12 -17 -19 -21 -15 -3 3 -1 34 6 69 6 35 16 86 22
113 5 28 11 66 13 85 1 19 14 93 29 164 14 71 23 133 20 138 -3 5 -1 30 5 56
6 26 13 92 15 147 3 55 7 112 11 127 4 15 35 54 68 88 34 34 74 71 89 81 15
11 29 28 33 38 3 10 34 38 68 62 34 24 98 71 142 105 44 33 87 63 95 66 8 3
41 26 72 52 31 25 60 46 65 46 5 0 15 9 23 20 8 11 20 20 27 20 7 0 18 9 25
21 7 11 38 36 69 54 31 19 79 56 106 82 28 27 59 55 69 64 11 9 71 70 135 135
64 66 124 133 132 149 9 17 41 57 72 89 30 33 55 63 55 67 0 5 14 24 30 42 17
19 30 39 30 45 0 5 7 15 16 22 10 9 14 26 12 49 -2 26 -10 39 -28 49 -18 9
-49 11 -110 7 -47 -3 -104 -8 -127 -11 -23 -2 -69 -16 -102 -29 -33 -14 -100
-44 -148 -66 -48 -23 -99 -49 -113 -59 -14 -9 -36 -20 -50 -23 -14 -4 -43 -24
-66 -44 -22 -21 -56 -47 -75 -57 -19 -11 -38 -25 -42 -32 -4 -8 -33 -30 -65
-51 -31 -20 -86 -59 -122 -87 -36 -27 -69 -54 -75 -61 -5 -6 -30 -24 -55 -39
-25 -14 -54 -32 -65 -39 -10 -6 -54 -36 -97 -65 -43 -30 -85 -52 -92 -49 -8 3
-16 25 -19 49 -4 24 -9 78 -12 121 -5 73 -4 80 23 120 16 23 39 67 51 97 13
30 29 62 36 70 8 8 17 28 21 45 4 16 15 43 25 60 10 17 30 62 44 100 13 38 28
71 32 74 5 3 10 17 12 31 1 14 23 67 47 119 24 51 44 99 44 105 0 7 7 21 15
32 8 10 15 26 15 34 0 8 6 27 14 42 8 15 17 42 21 60 4 18 19 62 32 98 14 36
32 77 39 92 8 14 14 36 14 47 0 12 12 50 26 84 14 34 37 85 50 114 13 28 24
57 24 64 0 6 16 45 35 85 19 40 35 79 35 86 0 8 11 25 24 37 13 12 26 34 30
49 3 15 42 67 86 116 45 49 79 97 78 105 -2 10 -16 17 -35 19 -25 3 -37 -3
-55 -25 -13 -15 -78 -82 -145 -149 -68 -68 -123 -127 -123 -133 0 -6 -7 -11
-15 -11 -8 0 -15 -4 -15 -9 0 -6 -19 -31 -42 -58 -24 -26 -66 -72 -94 -103
-28 -30 -61 -70 -73 -88 -13 -18 -26 -31 -29 -27 -3 3 -18 -7 -34 -22 -15 -15
-28 -31 -28 -36 0 -5 -17 -29 -37 -52 -21 -22 -45 -52 -53 -65 -8 -13 -25 -34
-37 -46 -13 -11 -23 -25 -23 -29 0 -4 -11 -20 -25 -37 -14 -16 -25 -35 -25
-42 0 -7 -10 -21 -21 -32 -12 -10 -39 -45 -60 -76 -21 -32 -43 -63 -48 -70 -6
-7 -25 -29 -41 -48 -16 -19 -46 -62 -67 -95 -20 -33 -39 -62 -42 -65 -4 -3
-28 -37 -55 -77 -26 -40 -54 -77 -62 -84 -8 -6 -28 -41 -45 -77 -17 -36 -39
-72 -50 -80 -10 -7 -19 -21 -19 -31 0 -10 -7 -24 -15 -31 -13 -11 -15 6 -17
146 -1 88 -1 189 1 226 1 37 -3 102 -9 145 -7 43 -16 86 -21 96 -6 9 -18 17
-29 17 -10 0 -22 -5 -25 -10 -4 -6 -11 -41 -16 -77 -5 -37 -14 -73 -21 -80 -6
-7 -12 -23 -14 -36 -1 -12 -8 -53 -14 -92 -5 -38 -18 -115 -28 -171 -9 -56
-23 -108 -31 -117 -7 -10 -17 -17 -21 -17 -4 0 -12 37 -18 83 -6 45 -14 98
-17 117 -3 19 -10 53 -15 75 -5 22 -18 81 -30 130 -12 50 -31 120 -42 158 -11
37 -41 97 -65 133 -25 37 -48 77 -53 89 -5 13 -39 60 -76 106 -37 46 -71 90
-77 97 -6 8 -10 51 -8 102 1 48 9 128 17 176 8 49 15 97 17 108 1 10 -6 23
-16 30 -15 9 -22 7 -36 -11 -10 -12 -21 -40 -25 -62 -3 -22 -12 -44 -20 -48
-8 -4 -21 -25 -30 -47 -9 -21 -16 -48 -16 -60 0 -12 -6 -31 -14 -42 -14 -18
-16 -18 -48 12 -18 17 -49 41 -68 54 -19 13 -55 40 -80 60 -25 20 -63 45 -85
57 -22 12 -81 37 -131 57 -50 20 -100 36 -110 36 -11 0 -28 6 -39 13 -11 8
-56 21 -100 30 -44 9 -100 19 -124 22 -23 3 -47 8 -52 11 -6 3 -7 248 -3 617
4 337 6 637 4 667 -1 30 -2 71 -2 90 1 19 1 132 1 250 0 118 0 265 1 325 0 61
1 189 2 285 1 96 0 353 -1 570 0 217 1 413 5 435 3 22 10 50 16 62 6 12 19 24
29 26 11 3 19 12 19 21 0 9 -15 19 -37 25 -21 6 -47 11 -58 11z m139 -3523
c17 -5 54 -20 81 -32 28 -13 64 -26 82 -29 17 -4 45 -9 61 -11 17 -2 56 -18
87 -34 32 -17 63 -31 69 -31 7 0 30 -18 51 -40 21 -22 44 -40 50 -40 7 0 20
-10 31 -21 10 -12 34 -28 52 -36 18 -7 36 -21 39 -31 4 -9 20 -27 35 -40 23
-19 28 -32 28 -67 0 -23 -9 -62 -20 -86 -11 -24 -20 -55 -20 -69 0 -14 -12
-47 -26 -73 -14 -27 -34 -76 -45 -110 -10 -34 -23 -71 -28 -82 -5 -11 -16 -39
-25 -63 -9 -24 -14 -48 -10 -53 3 -6 -1 -18 -9 -27 -8 -9 -17 -26 -20 -37 -3
-11 -17 -54 -33 -95 -15 -41 -35 -86 -45 -99 -11 -13 -19 -30 -19 -38 0 -7
-11 -31 -24 -52 -14 -21 -23 -41 -20 -44 3 -3 -2 -19 -10 -36 -9 -16 -16 -39
-16 -51 0 -11 -4 -20 -8 -20 -5 0 -16 -19 -26 -42 -9 -24 -22 -52 -27 -63 -5
-11 -17 -33 -27 -49 -11 -19 -47 -44 -97 -70 -44 -23 -86 -46 -92 -53 -7 -6
-23 -15 -34 -18 -12 -4 -26 -2 -32 4 -6 6 -10 27 -9 47 2 23 -6 50 -22 77 -13
23 -33 72 -44 108 -19 61 -20 84 -15 305 3 131 6 255 6 274 0 19 -1 51 -2 70
-2 19 0 210 3 424 3 215 6 398 6 408 0 14 6 16 28 12 16 -3 35 1 46 9 15 11
27 12 50 4z m-245 3 c33 0 40 -4 45 -24 3 -13 6 -138 7 -277 0 -140 1 -263 1
-274 -1 -11 -2 -31 -3 -45 -1 -14 -1 -70 0 -125 1 -55 0 -218 -2 -363 -2 -144
-7 -265 -10 -268 -3 -3 -20 -1 -39 4 -18 6 -55 16 -83 22 -27 6 -83 14 -122
17 -52 4 -77 11 -89 24 -13 14 -14 24 -6 51 6 18 13 65 16 104 3 38 13 92 21
120 8 27 15 65 15 85 0 20 6 42 14 48 8 6 16 26 19 44 2 18 10 59 17 92 7 33
15 67 18 75 3 8 6 29 8 45 1 17 7 53 13 80 7 28 19 88 28 135 8 47 17 107 19
133 1 27 7 54 12 60 5 7 14 44 21 83 7 39 19 83 27 99 8 15 14 34 14 41 0 10
12 14 39 14z m2749 -206 c2 -11 -11 -54 -28 -96 -16 -42 -30 -82 -30 -90 0 -7
-13 -47 -29 -88 -16 -41 -32 -90 -36 -109 -4 -19 -14 -50 -23 -70 -8 -20 -17
-43 -18 -51 -2 -8 -14 -45 -27 -82 -13 -36 -30 -77 -39 -90 -8 -13 -22 -49
-32 -80 -10 -32 -21 -58 -26 -58 -4 0 -13 7 -20 15 -7 8 -18 15 -25 15 -7 0
-39 -33 -71 -72 -32 -40 -57 -80 -57 -89 1 -9 -18 -35 -43 -59 -24 -23 -44
-48 -44 -55 0 -7 -6 -23 -13 -36 -6 -13 -24 -36 -39 -51 -15 -14 -30 -39 -34
-55 -4 -15 -13 -36 -22 -45 -8 -10 -38 -32 -66 -50 -28 -18 -57 -39 -63 -48
-7 -8 -39 -49 -72 -90 -32 -41 -65 -88 -74 -105 -8 -16 -24 -40 -35 -52 -19
-23 -19 -23 -37 -3 -14 15 -18 38 -18 113 -1 74 3 100 16 118 9 13 29 42 44
64 15 22 36 56 48 76 11 20 34 58 50 84 17 26 62 94 100 151 39 58 79 122 91
144 11 22 42 62 67 89 26 28 47 55 47 61 0 6 10 21 23 34 12 13 30 33 40 45
10 13 23 32 28 44 5 12 16 33 24 46 7 14 35 49 62 78 26 29 73 79 103 111 30
32 67 73 82 92 15 19 39 52 53 73 14 21 25 42 25 46 0 5 16 26 35 47 19 21 35
41 35 44 0 3 10 17 23 30 21 24 22 24 25 4z m-1807 -404 c4 0 11 -6 17 -13 6
-7 9 -33 7 -58 -3 -24 -9 -102 -15 -174 -5 -71 -8 -135 -5 -142 2 -7 0 -25 -5
-40 -5 -15 -11 -122 -13 -236 -4 -189 -6 -211 -23 -228 -15 -15 -40 -20 -114
-25 -65 -4 -105 -12 -128 -25 -18 -11 -44 -19 -58 -19 -14 0 -35 -5 -46 -11
-13 -7 -24 -7 -30 -1 -6 6 -6 16 1 28 5 11 17 34 25 53 9 19 16 40 16 46 0 7
9 24 20 38 11 14 23 40 27 59 3 18 17 53 30 77 14 25 33 68 44 97 11 29 26 58
34 64 8 7 15 21 15 31 0 11 4 27 10 37 5 9 25 58 43 107 19 50 58 145 88 213
29 67 56 122 60 122z m123 -110 c3 0 25 -9 49 -21 24 -12 53 -35 64 -53 12
-17 29 -51 38 -76 9 -25 25 -72 36 -104 13 -41 16 -63 9 -70 -5 -5 -10 -18
-10 -27 0 -9 -6 -22 -14 -28 -8 -7 -37 -50 -65 -97 -28 -46 -51 -90 -51 -97 0
-6 -13 -27 -29 -46 l-28 -34 -7 59 c-4 32 -10 88 -13 124 -3 36 -5 72 -5 80 0
8 3 94 7 190 3 96 8 181 10 188 3 6 7 12 9 12z m-2771 -253 c23 -3 90 -19 149
-35 58 -16 126 -41 150 -55 25 -14 68 -47 96 -72 29 -26 86 -87 127 -136 41
-49 85 -109 97 -134 12 -25 26 -45 30 -45 4 0 19 -23 33 -50 14 -28 41 -74 59
-103 18 -29 45 -74 60 -102 15 -27 35 -63 46 -80 10 -16 19 -33 19 -36 1 -4
-20 -33 -45 -65 -25 -33 -57 -84 -71 -114 -14 -30 -32 -63 -41 -72 -8 -10 -22
-18 -31 -18 -8 0 -30 14 -48 32 -18 18 -33 39 -33 48 0 9 -9 25 -20 35 -11 10
-20 22 -20 27 0 5 -13 26 -29 46 -16 20 -32 48 -36 61 -4 13 -21 44 -38 70
-17 25 -43 64 -58 86 -14 22 -37 60 -50 83 -13 24 -31 56 -39 70 -9 15 -38 65
-65 110 -28 46 -58 96 -68 110 -9 15 -24 43 -33 62 -9 19 -17 40 -18 45 -1 6
-23 39 -48 75 -26 36 -63 81 -83 100 -19 19 -35 41 -35 49 0 10 10 12 43 8z
m-13 -212 c6 -3 10 -15 10 -27 0 -11 14 -40 30 -65 17 -24 30 -47 30 -51 0 -4
18 -43 39 -87 22 -44 63 -128 91 -186 27 -59 50 -120 50 -137 0 -18 13 -52 31
-79 17 -26 39 -59 48 -73 10 -14 26 -50 38 -80 11 -30 29 -84 40 -120 11 -36
28 -93 38 -128 10 -34 16 -65 13 -68 -3 -3 -59 23 -124 57 -66 33 -125 69
-132 78 -7 9 -15 27 -18 41 -3 14 -10 43 -16 65 -6 22 -14 51 -18 65 -4 14
-13 43 -19 65 -6 22 -18 69 -27 105 -8 36 -17 74 -19 85 -2 11 -9 47 -15 80
-7 33 -16 69 -20 80 -5 11 -14 47 -20 80 -7 33 -16 80 -21 104 -5 25 -11 80
-14 123 -3 50 -1 77 5 73z m2959 -165 c9 0 25 -7 36 -16 18 -13 20 -27 21
-117 1 -76 -3 -113 -16 -147 -10 -25 -21 -65 -24 -90 -4 -25 -11 -70 -16 -100
-5 -30 -13 -77 -19 -105 -6 -27 -9 -62 -6 -76 4 -17 0 -30 -10 -39 -8 -7 -15
-20 -15 -29 0 -9 -7 -26 -15 -38 -10 -14 -22 -19 -35 -16 -10 3 -22 13 -25 22
-3 10 -19 31 -35 48 l-30 31 15 83 c7 45 12 86 9 91 -3 4 0 17 7 29 6 12 14
45 16 73 3 28 8 89 12 136 4 58 13 97 28 125 12 22 30 49 40 60 10 12 19 27
21 35 2 8 8 21 14 27 6 7 18 13 27 13z m2109 -126 c2 -8 -8 -28 -22 -44 -13
-16 -27 -39 -31 -50 -3 -11 -10 -20 -15 -20 -4 0 -22 -13 -39 -29 -19 -18 -31
-39 -31 -55 0 -14 -4 -26 -8 -26 -5 0 -29 -14 -54 -30 -25 -17 -48 -38 -50
-48 -3 -9 -29 -30 -59 -46 -30 -16 -68 -44 -86 -62 -17 -19 -38 -34 -46 -34
-8 0 -38 -25 -65 -55 -28 -30 -54 -55 -59 -55 -5 0 -31 -18 -58 -40 -28 -22
-64 -53 -81 -70 -17 -16 -35 -30 -40 -30 -4 0 -20 -11 -35 -26 -14 -14 -36
-26 -48 -27 -11 -1 -21 -5 -21 -10 0 -4 -8 -16 -17 -26 -10 -10 -37 -28 -60
-40 -24 -12 -43 -25 -43 -29 0 -4 -12 -13 -27 -19 -15 -7 -31 -13 -35 -13 -4
0 -8 23 -8 51 0 29 5 81 11 118 6 36 16 76 22 89 6 12 10 45 10 72 -1 39 4 53
22 70 13 12 30 20 37 18 7 -3 29 1 49 8 20 7 61 29 90 49 30 21 65 48 79 60
14 12 32 24 40 27 9 3 46 29 83 57 36 28 74 51 84 51 10 0 42 14 72 30 30 17
58 30 62 30 4 0 34 16 66 35 32 19 65 35 73 35 8 0 28 7 44 15 15 8 34 15 40
15 7 0 37 12 67 26 29 14 61 29 69 33 10 6 16 4 18 -5z m-3520 -4 c15 -4 41
-11 59 -14 18 -3 35 -1 38 4 3 6 19 10 34 10 16 0 40 -11 55 -25 26 -24 26
-25 26 -168 0 -127 -2 -146 -19 -164 -10 -11 -70 -46 -133 -77 -62 -31 -122
-62 -133 -69 -11 -7 -48 -29 -81 -50 -34 -20 -76 -40 -93 -43 l-31 -6 1 83 c1
46 8 122 16 169 8 47 17 114 20 150 2 36 11 75 19 88 8 12 21 22 28 22 8 0 16
7 20 15 3 8 11 15 17 15 7 0 36 11 65 25 29 14 55 29 59 34 3 6 17 6 33 1z
m1766 -60 c7 0 16 -9 19 -21 3 -12 2 -32 -3 -45 -5 -13 -14 -24 -20 -24 -5 0
-10 20 -10 45 0 32 4 45 14 45z m-2133 -116 c5 -3 7 -20 5 -37 -3 -18 -10 -52
-16 -77 -8 -34 -26 -60 -73 -107 -34 -35 -69 -63 -79 -63 -11 0 -24 14 -33 36
-14 34 -14 38 7 68 12 17 58 66 101 109 43 42 83 74 88 71z m1369 -124 c28 0
50 -2 50 -4 0 -2 -7 -17 -15 -32 -8 -16 -15 -36 -15 -46 0 -9 -11 -38 -24 -65
-13 -26 -28 -60 -34 -76 -7 -15 -15 -26 -19 -25 -5 1 -21 -4 -38 -11 -16 -8
-39 -17 -50 -21 -11 -4 -44 -18 -72 -31 -29 -13 -53 -27 -53 -31 0 -5 -8 -8
-18 -8 -11 0 -27 -9 -36 -19 -10 -11 -28 -22 -42 -25 -13 -4 -24 -11 -24 -16
0 -6 -4 -10 -8 -10 -5 0 -14 17 -20 38 -6 20 -18 62 -26 92 -8 30 -15 66 -17
80 -1 14 1 33 6 43 4 9 15 17 25 17 9 0 36 14 58 30 23 17 49 30 57 30 9 0 33
9 55 20 22 11 46 20 55 20 9 0 29 7 44 15 15 7 47 15 70 16 22 2 41 7 41 11 0
4 23 8 50 8z m1235 -40 c2 0 1 -12 -1 -27 -3 -16 -16 -45 -30 -65 -13 -21 -24
-45 -24 -53 0 -9 -5 -13 -11 -9 -7 4 -9 0 -5 -14 5 -14 -1 -29 -18 -49 l-25
-28 0 25 c-1 14 8 36 19 50 11 14 20 30 20 35 0 6 9 28 21 50 11 22 27 50 35
63 8 12 16 22 19 22z m-738 -30 c7 0 13 -4 13 -9 0 -5 -3 -16 -6 -25 -3 -9
-14 -16 -23 -16 -10 0 -21 3 -24 7 -4 3 0 15 10 25 9 10 22 18 30 18z m817 0
c2 0 11 -3 20 -6 10 -4 16 -18 16 -39 0 -27 -8 -39 -41 -66 -33 -26 -43 -29
-50 -18 -5 8 -3 22 5 34 7 11 18 29 24 40 6 11 13 28 16 38 3 9 7 17 10 17z
m-2937 -80 c2 0 15 -19 30 -42 15 -24 29 -52 30 -63 2 -11 8 -24 13 -29 6 -6
10 -24 10 -40 0 -17 -5 -48 -11 -69 -6 -21 -19 -47 -30 -58 -11 -11 -33 -19
-51 -19 -23 0 -42 10 -65 32 -27 26 -36 30 -42 19 -5 -7 -14 -10 -20 -7 -6 4
-11 15 -11 24 0 9 15 45 33 79 17 34 45 83 61 110 16 26 34 51 40 55 6 4 12 8
13 8z m1018 -80 c7 0 15 -6 18 -14 3 -8 1 -28 -6 -45 -6 -17 -17 -31 -23 -31
-6 0 -14 14 -18 31 -3 18 -1 38 5 45 6 8 17 14 24 14z m1384 -13 c9 -6 19 -16
23 -22 4 -5 8 -20 8 -32 0 -13 -5 -23 -12 -23 -6 0 -20 7 -30 17 -10 9 -18 26
-18 38 0 12 3 25 7 28 3 4 13 1 22 -6z m-3997 -59 c16 -6 45 -8 65 -5 20 4 45
1 57 -5 11 -6 36 -15 56 -20 19 -5 64 -13 100 -18 36 -5 88 -13 115 -18 28 -4
66 -16 85 -25 19 -9 60 -21 90 -26 30 -5 79 -16 108 -24 30 -9 73 -25 97 -36
29 -14 46 -29 53 -49 7 -21 7 -33 -1 -41 -6 -6 -20 -11 -32 -11 -11 0 -29 6
-40 13 -11 8 -45 21 -75 30 -30 9 -79 23 -109 30 -29 8 -64 12 -77 9 -13 -2
-24 -11 -24 -20 0 -8 8 -24 17 -34 10 -12 17 -37 18 -66 1 -26 7 -72 15 -102
7 -30 25 -100 41 -156 15 -55 26 -110 23 -121 -3 -12 -1 -24 5 -27 6 -4 11
-16 11 -27 0 -17 -6 -19 -50 -16 -27 2 -55 9 -62 14 -7 6 -24 13 -38 17 -14 4
-56 14 -95 21 -38 8 -90 20 -115 26 -25 6 -58 11 -75 11 -16 0 -57 -3 -90 -7
-50 -6 -63 -4 -74 9 -8 9 -28 16 -48 16 -19 0 -43 5 -53 10 -10 6 -72 13 -137
16 -65 3 -133 6 -150 8 -18 1 -33 -1 -33 -5 0 -3 -35 -4 -77 -1 -43 2 -84 8
-92 12 -7 4 -57 -3 -110 -16 -86 -20 -98 -21 -113 -7 -13 12 -32 13 -90 8 -40
-4 -136 -7 -213 -8 -77 -1 -152 1 -167 6 -20 5 -26 13 -25 30 1 12 17 54 36
92 19 39 48 86 64 105 16 19 45 53 65 76 21 23 71 64 112 91 41 28 89 55 105
61 17 6 57 21 90 33 33 12 101 28 150 35 50 7 144 18 210 25 66 6 134 9 150 8
17 -2 64 -2 105 -1 57 2 82 7 102 22 15 11 31 20 36 20 5 0 19 11 31 24 20 21
27 23 53 14z m2498 -28 c5 0 11 -15 14 -32 3 -18 8 -60 11 -93 3 -34 1 -74 -5
-92 -6 -17 -18 -34 -27 -37 -13 -5 -14 10 -10 121 3 71 6 129 6 131 1 1 5 2
11 2z m-110 -21 c3 0 11 -3 18 -8 10 -6 14 -41 15 -131 l1 -123 -39 -12 c-22
-6 -54 -20 -70 -31 -17 -10 -71 -59 -121 -107 -50 -49 -101 -108 -113 -132
-12 -23 -28 -49 -37 -55 -9 -8 -18 -9 -24 -4 -5 5 -15 27 -23 49 -8 22 -28 76
-45 120 -16 44 -37 97 -46 117 l-16 37 48 24 c26 13 78 43 115 67 37 24 67 47
67 52 0 4 8 8 19 8 10 0 24 7 31 15 7 8 31 20 54 26 22 6 48 17 57 25 9 8 36
25 60 38 24 13 46 24 49 25z m-1160 -59 c17 -19 30 -38 30 -42 0 -4 -6 -8 -14
-8 -8 0 -22 10 -30 22 -9 12 -16 32 -16 43 1 17 5 15 30 -15z m1403 -20 c8 0
19 -11 25 -25 8 -17 8 -33 0 -55 -7 -20 -16 -30 -27 -28 -11 2 -17 16 -19 42
-2 21 -1 44 2 52 3 8 12 14 19 14z m560 -60 c7 0 22 -3 35 -6 14 -4 22 -14 22
-28 0 -11 -9 -55 -21 -96 -11 -41 -24 -82 -28 -90 -5 -8 -16 -17 -25 -18 -10
-2 -26 4 -37 14 -10 9 -19 28 -19 41 0 12 10 51 21 85 12 35 26 71 31 81 5 9
14 17 21 17z m445 -10 c1 0 -3 -10 -10 -22 -7 -13 -19 -28 -27 -34 -8 -6 -11
-16 -7 -23 4 -6 2 -18 -4 -26 -7 -8 -16 -15 -21 -15 -5 0 -9 7 -9 15 0 9 10
30 23 48 12 17 29 37 37 44 8 7 16 13 18 13z m-240 -10 c4 0 15 -7 25 -15 14
-10 17 -21 12 -44 -3 -16 -13 -35 -21 -42 -8 -6 -17 -10 -19 -7 -3 2 -5 13 -6
24 -1 10 -1 34 -1 52 1 17 5 32 10 32z m356 0 c8 0 19 -6 25 -14 7 -8 23 -17
37 -20 18 -5 24 -12 20 -24 -2 -9 -7 -35 -11 -57 -4 -22 -13 -50 -21 -62 -8
-13 -29 -29 -47 -37 -18 -7 -40 -21 -49 -30 -9 -9 -31 -19 -47 -22 -23 -5 -32
-2 -37 10 -3 9 0 31 7 49 8 17 14 34 15 37 0 3 12 28 25 55 13 28 34 65 47 83
13 17 29 32 36 32z m-703 -20 c9 0 19 -6 22 -12 2 -7 -3 -29 -10 -48 -8 -19
-21 -51 -30 -71 l-15 -35 -62 4 c-35 3 -68 11 -78 20 -10 8 -18 21 -18 29 0 7
4 13 8 13 4 0 32 16 61 35 30 19 57 32 61 30 4 -3 15 4 25 15 10 11 26 20 36
20z m1506 -81 c9 -8 11 -23 7 -48 -3 -20 -15 -43 -25 -53 -10 -9 -19 -20 -19
-25 -1 -4 -24 -19 -53 -33 -29 -14 -54 -27 -57 -30 -3 -3 -24 -20 -47 -37 -23
-18 -46 -33 -51 -33 -6 0 -33 -16 -62 -35 -29 -19 -56 -35 -61 -35 -5 0 -9 -4
-9 -10 0 -5 -4 -10 -10 -10 -5 0 -10 11 -10 25 0 14 7 37 17 51 9 14 41 43 72
65 31 22 72 52 92 67 20 15 59 46 88 70 29 23 58 42 65 42 7 0 21 9 31 20 14
15 21 17 32 9z m-3898 -135 c14 -3 54 -17 88 -30 34 -13 73 -24 86 -24 16 0
38 -14 61 -37 19 -21 47 -60 61 -88 14 -27 25 -58 25 -67 0 -10 8 -25 19 -35
10 -10 21 -34 23 -53 3 -19 1 -47 -4 -62 -9 -25 -15 -28 -53 -28 -26 0 -63 10
-94 25 -27 14 -76 30 -108 37 -32 6 -63 15 -70 20 -6 5 -21 51 -32 101 -12 51
-21 101 -21 112 0 11 -3 44 -8 73 -5 29 -6 54 -4 57 3 3 17 2 31 -1z m430 -77
c11 1 22 -1 25 -5 2 -4 -4 -15 -13 -24 -11 -11 -22 -14 -30 -8 -8 4 -12 14 -9
22 3 7 15 14 27 15z m1561 -7 c6 0 10 -7 10 -15 0 -8 -2 -15 -4 -15 -2 0 -6 7
-10 15 -3 8 -1 15 4 15z m-751 -10 c5 0 12 -7 15 -16 3 -9 6 -21 6 -27 0 -7
-7 -3 -15 7 -8 11 -15 23 -15 28 0 4 4 8 9 8z m-635 -19 c8 -7 20 -26 27 -44
7 -18 20 -44 30 -58 10 -14 25 -45 34 -70 9 -24 23 -62 31 -83 9 -22 24 -59
35 -82 10 -24 19 -48 19 -53 0 -6 -5 -11 -11 -11 -6 0 -48 34 -92 76 -45 42
-97 86 -114 96 -18 11 -33 27 -33 36 0 8 10 47 21 86 12 39 26 82 30 95 8 18
12 21 23 12z m1276 -1 c9 0 21 -5 28 -12 7 -7 12 -24 12 -39 0 -15 5 -31 10
-34 6 -3 10 -16 10 -29 0 -13 -8 -30 -17 -38 -10 -9 -37 -25 -60 -37 l-43 -21
-1 22 c-1 13 -1 50 0 83 2 45 8 66 24 83 11 12 28 22 37 22z m1998 -61 c9 1
12 -12 10 -46 -3 -48 -3 -48 -37 -46 -19 1 -38 6 -44 12 -6 6 3 22 24 44 19
20 40 36 47 36z m-2136 -49 c5 0 10 -6 13 -12 2 -7 6 -34 10 -60 6 -44 4 -50
-27 -84 -23 -24 -41 -35 -55 -32 l-22 3 25 70 c13 39 29 80 36 93 6 12 15 22
20 22z m757 0 c9 0 29 -11 46 -24 l30 -24 -14 -48 c-7 -27 -14 -57 -15 -66 -1
-9 -18 -35 -37 -58 -19 -23 -56 -58 -84 -78 -27 -20 -68 -51 -89 -69 -37 -31
-41 -32 -58 -16 -10 9 -18 24 -18 33 0 10 7 33 15 51 8 19 29 50 47 70 18 20
40 47 48 59 8 12 23 33 33 45 9 13 17 26 17 29 0 3 14 26 32 51 17 25 39 45
47 45z m-228 -17 c5 -5 3 -28 -3 -53 -6 -25 -14 -49 -19 -54 -4 -5 -13 11 -19
35 -11 40 -10 45 11 62 12 10 26 14 30 10z m89 -3 c6 0 5 -9 0 -22 -6 -13 -13
-31 -16 -40 -4 -10 -10 -18 -15 -18 -4 0 -6 9 -4 19 2 11 9 29 15 40 6 12 15
21 20 21z m-219 -70 c4 0 10 -4 13 -9 3 -5 8 -57 11 -115 3 -75 1 -109 -8
-118 -7 -7 -18 -25 -24 -40 -7 -16 -19 -28 -27 -28 -12 0 -14 16 -10 93 3 50
12 120 21 155 8 34 19 62 24 62z m-4120 -31 c16 -11 37 -33 47 -47 9 -15 25
-33 36 -41 10 -8 42 -34 70 -59 28 -25 52 -49 54 -53 2 -4 -20 -9 -49 -11 -48
-3 -53 -6 -60 -30 -5 -18 -3 -31 6 -38 7 -6 37 -13 66 -16 30 -3 88 -12 129
-20 41 -9 93 -23 115 -33 22 -11 55 -31 74 -45 19 -14 39 -26 44 -26 4 0 46
-23 93 -50 47 -28 111 -61 144 -75 33 -14 96 -43 140 -66 44 -22 80 -44 80
-49 0 -5 -9 -7 -20 -5 -11 2 -26 -3 -34 -11 -8 -8 -20 -14 -26 -14 -6 0 -25
-7 -43 -17 -18 -9 -36 -21 -42 -28 -5 -7 -26 -18 -45 -25 -19 -8 -62 -32 -94
-54 -43 -30 -64 -52 -77 -84 -11 -24 -17 -48 -13 -53 3 -5 20 -9 38 -9 18 0
36 -3 40 -7 3 -4 16 -8 29 -9 12 -2 32 2 43 8 17 8 28 6 50 -10 16 -11 45 -29
64 -41 19 -11 76 -41 125 -66 50 -25 128 -65 175 -90 47 -24 86 -48 88 -53 1
-5 -4 -12 -12 -15 -9 -4 -55 -6 -103 -6 -49 0 -101 1 -118 1 -16 0 -176 -3
-355 -7 -317 -6 -326 -6 -351 14 -14 11 -44 57 -67 103 -22 46 -52 109 -66
141 -14 32 -26 63 -26 69 0 6 -6 19 -14 27 -8 9 -28 68 -45 131 -18 63 -43
153 -56 200 -12 47 -28 106 -34 133 -6 26 -11 63 -11 81 0 19 -5 47 -11 63 -6
15 -13 80 -16 144 -3 64 -3 129 1 143 l7 27 30 -22z m888 16 c20 -3 119 -7
221 -10 102 -2 201 -9 220 -14 19 -5 69 -12 111 -15 42 -4 87 -9 100 -12 13
-3 51 -9 84 -14 33 -4 73 -13 88 -19 16 -6 33 -8 38 -5 6 3 15 1 22 -4 7 -5
45 -17 85 -27 48 -11 76 -24 83 -36 5 -11 7 -19 4 -19 -3 0 2 -16 10 -36 8
-20 15 -45 15 -55 0 -10 -7 -22 -16 -27 -8 -5 -66 -7 -127 -5 -62 2 -130 8
-152 13 -22 5 -96 12 -165 15 -69 4 -282 8 -475 10 -192 2 -399 9 -460 15 -60
7 -125 13 -144 15 -19 2 -51 7 -72 10 -24 4 -59 25 -100 59 -35 30 -82 69
-104 89 -32 28 -37 38 -28 48 10 10 42 10 155 1 79 -7 157 -10 173 -8 17 2 37
6 45 9 8 4 88 8 178 11 90 2 166 7 169 10 4 3 22 4 42 1z m2692 5 c5 0 9 -6
10 -12 1 -7 0 -24 -1 -38 -1 -14 -10 -45 -21 -69 -10 -24 -19 -52 -19 -62 0
-10 -5 -21 -12 -25 -7 -4 -23 6 -40 27 -16 19 -31 44 -35 57 -4 16 2 29 19 45
13 12 39 34 57 50 18 15 37 27 42 27z m1946 -72 c11 -9 10 -15 -8 -34 -12 -13
-26 -21 -30 -18 -5 3 -9 10 -9 16 0 6 7 20 17 30 12 14 19 15 30 6z m-1606 2
c3 0 12 -6 18 -14 6 -7 13 -26 15 -42 2 -16 8 -42 14 -59 5 -17 5 -68 1 -119
-5 -49 -6 -93 -3 -97 3 -5 0 -18 -6 -29 -6 -11 -18 -20 -26 -20 -8 0 -39 -23
-69 -51 -30 -28 -59 -48 -65 -44 -6 4 -10 39 -10 83 -1 42 0 116 0 164 1 47 4
97 8 111 4 13 31 45 61 71 30 25 58 46 62 46z m1921 -10 c7 0 9 -36 4 -114 -4
-63 -11 -127 -16 -143 -5 -15 -21 -91 -34 -168 -14 -77 -33 -171 -42 -208 -15
-61 -21 -70 -58 -96 -22 -15 -49 -30 -58 -34 -10 -4 -18 -11 -18 -17 0 -5 -7
-10 -15 -10 -8 0 -33 -19 -57 -42 -28 -28 -52 -43 -68 -43 -16 0 -24 5 -22 14
2 8 8 71 14 140 6 69 12 151 13 181 1 30 3 80 4 110 1 50 5 60 49 110 26 30
63 70 83 90 19 19 75 79 123 133 48 53 92 97 98 97z m-3264 -50 c4 0 25 -18
47 -40 21 -22 36 -42 33 -46 -3 -3 -20 2 -37 10 -17 9 -35 25 -41 35 -5 11
-10 24 -10 30 0 6 4 11 8 11z m-438 -62 c36 -10 84 -23 108 -28 23 -6 42 -15
42 -21 0 -5 -11 -27 -25 -48 -13 -22 -33 -42 -45 -46 -12 -4 -26 0 -36 9 -8 9
-22 16 -30 16 -7 0 -32 7 -53 16 -22 9 -42 23 -45 32 -2 10 -7 31 -11 49 -5
25 -3 32 12 35 10 2 47 -5 83 -14z m1587 -58 c10 0 13 -19 13 -73 0 -41 -3
-108 -6 -150 -4 -43 -10 -77 -13 -77 -3 1 -30 33 -58 72 -29 40 -53 81 -53 93
0 11 23 46 52 78 28 31 57 57 65 57z m-1280 -34 c15 -4 38 -14 50 -22 12 -8
27 -23 33 -33 7 -14 7 -22 0 -26 -6 -4 -16 -2 -23 3 -7 6 -28 12 -47 14 -32 3
-35 6 -38 37 -3 32 -2 33 25 27z m-1302 -52 c149 -1 311 -5 360 -8 50 -4 115
-11 145 -17 30 -5 117 -13 193 -18 104 -7 143 -13 156 -26 12 -10 20 -36 24
-71 3 -30 10 -61 15 -67 4 -7 14 -32 21 -57 7 -25 15 -53 17 -62 4 -14 -1 -18
-23 -18 -15 0 -59 9 -98 21 -38 11 -86 27 -105 34 -19 7 -73 23 -120 36 -47
13 -103 32 -124 43 -22 12 -44 30 -50 41 -6 10 -20 27 -31 37 -11 9 -28 17
-38 18 -9 0 -26 -5 -36 -11 -11 -8 -29 -9 -47 -4 -16 4 -40 8 -54 9 -14 2 -54
8 -90 15 -36 8 -74 17 -85 22 -11 5 -47 13 -80 18 -33 6 -100 17 -150 26 -49
8 -97 18 -105 22 -11 4 -8 8 10 13 14 4 147 6 295 4z m-534 -48 c19 -4 57 -11
84 -16 28 -5 64 -13 80 -19 17 -5 64 -15 105 -21 41 -5 100 -15 130 -21 30 -6
87 -17 125 -26 39 -8 93 -21 121 -29 29 -8 56 -20 62 -27 6 -6 12 -21 14 -31
2 -15 -5 -21 -31 -28 -20 -6 -66 -5 -115 1 -44 5 -103 14 -131 20 -27 6 -59
15 -70 21 -11 5 -47 19 -80 29 -33 11 -91 33 -130 49 -38 16 -95 41 -126 55
-31 13 -60 30 -64 37 -6 10 0 11 26 6z m1535 -30 c26 -3 62 -6 80 -6 28 0 34
-4 34 -22 0 -13 0 -30 1 -38 0 -8 -6 -40 -14 -70 -9 -31 -13 -75 -10 -105 3
-36 0 -55 -11 -70 -16 -20 -16 -20 -41 8 -14 15 -25 36 -25 46 0 10 -7 38 -16
62 -9 24 -22 68 -30 97 -8 29 -14 65 -14 79 0 25 2 26 46 19z m4526 -7 c20 0
49 -4 62 -11 17 -7 30 -24 36 -47 5 -20 10 -57 10 -83 0 -40 -4 -50 -31 -73
-18 -14 -35 -22 -39 -18 -5 4 -15 29 -24 56 -9 26 -32 70 -51 98 -19 28 -35
55 -35 59 0 5 8 11 18 13 9 3 34 5 54 6z m-4258 -32 c23 -3 59 -9 81 -12 22
-3 48 -8 58 -11 12 -4 17 -16 17 -40 0 -19 4 -34 8 -34 4 0 16 -14 26 -31 12
-21 16 -41 12 -62 -3 -18 -27 -56 -53 -86 -44 -50 -48 -53 -84 -47 -21 3 -55
18 -76 32 -21 14 -42 33 -47 42 -6 9 -9 33 -8 52 1 19 8 73 14 119 l12 83 40
-5z m3983 -178 c45 1 94 -4 110 -10 15 -5 52 -33 81 -62 28 -28 52 -59 52 -68
0 -9 -9 -24 -20 -34 -11 -10 -20 -22 -20 -26 0 -5 -20 -29 -45 -55 -25 -25
-45 -43 -45 -39 0 4 -7 2 -15 -5 -9 -7 -18 -11 -20 -8 -3 2 4 14 14 25 11 11
22 36 25 54 3 19 1 41 -4 49 -5 8 -31 17 -62 20 -29 3 -91 2 -138 -2 -47 -4
-105 -12 -130 -17 -25 -5 -58 -12 -74 -16 -16 -3 -32 -8 -36 -10 -3 -2 -12 0
-19 5 -10 6 1 23 45 66 33 33 75 68 94 78 19 11 55 27 80 37 28 11 75 18 127
18z m-2227 -49 c10 0 21 -9 25 -20 3 -10 1 -28 -5 -40 -6 -11 -12 -20 -15 -20
-2 0 -10 3 -19 6 -9 3 -16 14 -16 24 0 10 3 25 6 34 3 9 14 16 24 16z m-1426
-90 c7 0 39 -28 73 -62 33 -35 75 -83 92 -107 24 -34 28 -47 20 -57 -6 -8 -17
-14 -25 -14 -7 0 -19 8 -26 18 -7 9 -27 27 -43 39 -17 13 -58 36 -91 52 -34
16 -64 34 -68 40 -4 6 7 29 25 51 18 22 37 40 43 40z m-1521 -48 c9 -2 74 -7
145 -11 103 -7 139 -13 190 -35 34 -14 88 -30 120 -35 31 -5 82 -18 112 -29
30 -11 78 -25 105 -32 28 -7 58 -20 68 -28 9 -8 17 -23 17 -34 0 -10 4 -18 8
-18 4 0 13 5 19 11 6 6 16 8 22 5 6 -4 11 -14 11 -22 0 -8 9 -14 20 -14 10 0
23 -6 27 -12 4 -7 22 -20 38 -29 27 -14 30 -20 28 -59 -1 -24 -6 -46 -12 -49
-5 -3 -11 -17 -12 -31 l-4 -24 -281 1 c-264 1 -284 2 -322 22 -23 12 -46 21
-52 21 -6 0 -66 26 -133 58 -67 32 -142 67 -167 78 -25 10 -67 31 -93 46 -26
15 -49 28 -51 28 -2 0 -44 19 -93 41 -48 23 -91 46 -95 52 -4 6 1 19 10 28 9
9 20 15 25 12 4 -2 7 2 7 10 0 12 9 14 38 10 27 -4 49 1 73 13 23 13 64 21
124 25 50 3 98 3 108 1z m5090 -40 c34 -2 67 -5 74 -7 8 -3 9 -13 4 -33 -5
-16 -31 -53 -59 -82 -47 -49 -51 -51 -61 -32 -6 11 -25 24 -43 28 -18 4 -49 6
-68 5 -19 -1 -47 -7 -63 -13 -22 -9 -31 -7 -46 6 -9 9 -27 16 -38 16 -11 0
-26 7 -33 15 -11 13 -9 15 13 15 13 0 30 6 36 14 7 8 45 26 86 41 40 15 81 24
92 21 10 -3 24 -2 31 2 6 5 40 7 75 4z m-1566 -12 c7 0 13 -10 13 -22 0 -12
-7 -47 -16 -77 -8 -31 -28 -74 -43 -96 -19 -28 -34 -40 -51 -40 -21 0 -26 6
-28 33 -2 17 1 32 5 32 5 0 15 16 23 35 8 19 16 35 19 35 3 0 19 23 36 50 16
28 35 50 42 50z m946 0 c4 0 7 -10 7 -23 0 -13 -14 -36 -32 -54 -18 -17 -44
-33 -58 -36 -14 -4 -29 -7 -35 -8 -5 -1 -16 -15 -24 -31 -7 -15 -19 -28 -26
-28 -8 0 -15 -5 -17 -12 -2 -6 -12 -9 -21 -5 -9 3 -17 13 -17 22 0 8 6 15 13
15 7 0 26 14 42 30 16 17 32 30 36 30 4 0 19 10 34 23 15 12 41 34 59 49 17
15 34 28 39 28z m993 -11 c6 1 15 -45 22 -116 7 -65 15 -142 18 -170 l7 -53
-150 0 c-146 0 -150 1 -173 25 -20 22 -21 25 -6 31 9 3 28 3 43 -1 16 -4 29
-2 34 6 4 7 3 21 -2 31 -6 12 -6 24 0 36 5 9 51 61 103 114 51 53 98 97 104
97z m-2557 -179 c4 0 12 -5 19 -12 7 -7 12 -23 12 -37 0 -15 -9 -45 -19 -67
-10 -23 -24 -45 -31 -49 -6 -4 -22 -4 -36 -1 -20 5 -24 13 -24 43 0 26 9 47
36 79 19 24 39 44 43 44z m2003 -31 c3 0 11 -13 17 -30 6 -18 11 -36 11 -41 0
-6 -15 3 -34 19 -19 15 -35 31 -35 35 -1 3 7 9 17 11 9 3 20 5 24 6z m-3536
-109 c2 0 4 -4 4 -10 0 -5 -5 -10 -11 -10 -5 0 -7 5 -4 10 3 6 8 10 11 10z
m4020 -102 c69 2 94 -1 103 -11 9 -11 9 -27 0 -63 -6 -27 -15 -62 -19 -79 -5
-16 -12 -59 -16 -95 -3 -36 -13 -78 -21 -95 -9 -16 -20 -48 -25 -70 -5 -22
-12 -58 -15 -80 -3 -22 -15 -53 -27 -70 -11 -16 -20 -32 -18 -35 1 -3 0 -18
-3 -35 -4 -16 -10 -39 -15 -50 -5 -11 -21 -49 -35 -84 -14 -36 -25 -73 -25
-83 0 -10 -4 -18 -8 -18 -4 0 -26 18 -47 41 -22 22 -80 66 -130 98 -49 32
-100 61 -112 65 -12 4 -25 16 -28 26 -3 11 -1 38 6 62 6 24 15 52 19 63 5 11
11 34 14 50 4 17 9 41 12 55 3 14 12 33 21 42 12 13 14 29 9 65 -3 27 -9 64
-12 84 -3 22 -2 39 5 43 6 4 21 -15 36 -44 14 -27 32 -50 40 -50 8 0 15 6 15
14 0 8 9 21 21 30 14 10 19 20 15 34 -5 15 -1 21 19 26 15 4 30 17 35 31 5 14
16 25 25 25 8 0 15 4 15 8 0 4 -4 12 -9 18 -4 5 -11 23 -14 41 -6 31 -6 32 36
35 23 2 83 4 133 6z m-678 -9 c17 0 32 -3 32 -8 0 -5 -6 -14 -14 -20 -9 -8
-28 -10 -50 -5 -20 3 -36 10 -36 14 0 5 8 11 18 13 9 3 32 5 50 6z m419 -11
c9 -2 18 -9 21 -15 2 -8 -5 -13 -17 -13 -12 0 -21 6 -21 16 0 9 7 14 17 12z
m-4418 -13 c115 0 164 -4 173 -13 10 -10 9 -15 -3 -28 -11 -11 -35 -15 -80
-15 -35 0 -95 7 -134 16 -38 8 -80 18 -92 20 -13 3 -23 9 -23 13 0 4 72 7 159
7z m2510 5 c5 0 14 -6 20 -14 9 -11 8 -15 -5 -20 -10 -4 -22 -2 -27 3 -5 5 -6
14 -3 20 4 6 11 11 15 11z m-3635 -12 c382 2 436 1 436 -12 0 -9 -9 -20 -20
-26 -11 -6 -20 -17 -20 -25 0 -7 12 -22 26 -32 l26 -19 -21 -42 c-11 -23 -21
-48 -21 -56 0 -7 -13 -28 -29 -45 -16 -17 -31 -38 -35 -46 -3 -8 -9 -14 -13
-14 -4 1 -17 -2 -28 -6 -11 -5 -35 -19 -52 -33 -30 -22 -37 -23 -85 -14 -29 6
-66 13 -83 17 -16 3 -50 13 -75 21 -25 8 -65 24 -90 35 -25 11 -52 24 -60 29
-8 5 -38 23 -65 39 -28 16 -92 70 -144 120 -51 49 -91 94 -88 98 3 5 202 10
441 11z m734 -269 c12 1 22 -4 22 -9 0 -6 -12 -15 -27 -22 -16 -6 -42 -17 -60
-24 -17 -8 -45 -17 -61 -20 -17 -3 -32 -1 -36 5 -4 6 11 18 36 29 24 11 57 24
73 29 17 6 40 11 53 12z m3430 -114 c3 -2 2 -11 -1 -20 -4 -8 -11 -15 -17 -15
-6 0 -6 7 2 20 7 10 14 17 16 15z m1054 -135 c4 -12 6 -26 2 -31 -3 -5 -14 -9
-24 -9 -10 0 -22 5 -26 12 -4 6 3 19 16 30 24 19 24 19 32 -2z m-4287 -22 c16
1 14 -4 -15 -28 -19 -17 -39 -30 -45 -30 -6 0 -26 -15 -44 -34 -19 -19 -56
-44 -83 -56 -27 -12 -75 -46 -106 -76 -31 -30 -58 -54 -59 -54 -2 0 -11 -6
-19 -12 -9 -7 -23 -20 -32 -28 -10 -8 -37 -24 -60 -34 -24 -11 -69 -44 -100
-74 -31 -29 -82 -77 -112 -106 -35 -34 -61 -52 -72 -49 -12 3 -18 14 -18 31 0
15 7 65 15 112 7 47 19 109 25 139 6 30 21 75 31 100 11 25 27 60 36 77 l15
31 156 6 c124 4 179 11 262 32 58 15 114 31 125 35 11 5 34 11 50 13 17 2 39
4 50 5z m548 -108 c4 0 7 -4 7 -10 0 -5 -4 -10 -9 -10 -5 0 -16 -24 -25 -53
-9 -30 -27 -64 -44 -80 -23 -22 -35 -27 -56 -21 -20 5 -33 1 -49 -13 -12 -11
-27 -23 -33 -26 -9 -5 -10 3 -4 26 4 18 15 45 25 60 9 15 21 27 26 27 5 0 41
22 81 50 40 27 76 49 81 50z m-490 -12 c11 -2 22 -8 24 -14 2 -6 -7 -26 -19
-44 -13 -19 -45 -47 -73 -63 -27 -16 -66 -43 -85 -61 -19 -17 -51 -40 -70 -51
-19 -10 -51 -34 -70 -53 -19 -18 -49 -40 -67 -48 -17 -7 -35 -19 -39 -25 -3
-6 -25 -20 -48 -30 -22 -10 -54 -19 -70 -19 l-30 0 30 28 c16 16 47 41 69 57
22 16 49 37 60 46 11 10 55 48 97 84 42 36 80 65 84 65 4 0 23 12 43 28 20 15
51 37 69 50 18 12 37 22 41 22 5 0 14 7 21 15 7 9 22 15 33 13z m160 -38 c5 0
6 -12 2 -27 -3 -16 -15 -36 -25 -47 -10 -10 -23 -15 -29 -12 -7 5 -7 15 0 34
5 15 17 33 26 40 9 6 21 12 26 12z m3859 -10 c9 0 21 -8 26 -17 5 -9 25 -24
43 -33 21 -10 32 -22 30 -31 -2 -8 -4 -27 -5 -44 -1 -16 4 -29 9 -28 6 0 19 3
30 5 18 3 20 -2 17 -47 -1 -27 -7 -67 -14 -87 -6 -21 -15 -38 -21 -38 -5 0 -6
-11 -3 -24 3 -14 1 -37 -4 -51 -6 -15 -12 -43 -14 -63 -2 -21 -7 -48 -12 -62
-4 -14 -8 -45 -10 -70 -1 -25 -7 -58 -13 -74 -11 -26 -13 -27 -33 -14 -12 8
-26 29 -30 46 -5 18 -12 32 -16 32 -4 0 -8 11 -8 24 -1 14 -11 38 -23 54 -12
17 -21 34 -21 39 0 5 11 20 25 33 14 13 25 31 25 40 0 8 7 25 15 36 8 12 12
24 9 27 -3 2 5 13 18 23 13 11 24 30 24 44 1 14 4 35 7 46 4 16 -1 24 -19 33
-13 6 -36 8 -51 5 -17 -3 -47 3 -76 16 -29 13 -47 27 -45 35 2 8 30 43 63 79
33 36 68 66 77 66z m317 -70 c4 0 12 -5 18 -11 7 -7 8 -20 3 -34 -5 -14 -4
-27 3 -34 6 -6 17 -11 24 -11 6 0 38 -18 69 -40 32 -22 67 -40 78 -40 14 0 32
-17 54 -52 18 -28 35 -61 38 -73 3 -13 -1 -29 -11 -38 -9 -9 -23 -38 -32 -64
-9 -27 -24 -59 -35 -72 -10 -13 -18 -33 -18 -43 0 -11 -6 -32 -14 -46 -8 -15
-30 -61 -49 -102 -19 -41 -38 -94 -42 -117 -3 -23 -13 -47 -21 -54 -7 -6 -12
-15 -9 -19 3 -5 1 -11 -5 -15 -5 -3 -10 -17 -10 -30 0 -13 -13 -39 -29 -57
-16 -19 -33 -53 -37 -77 l-9 -43 -63 83 c-62 83 -63 85 -59 139 2 30 10 95 17
144 10 65 10 94 2 107 -8 13 -8 18 2 22 7 3 18 31 25 64 6 32 15 83 21 113 5
30 13 78 19 105 6 28 15 80 22 118 7 37 15 67 19 67 4 0 11 25 15 55 3 30 10
55 14 55z m-3522 -21 c6 0 15 -4 18 -9 4 -6 -4 -19 -17 -30 -13 -11 -26 -19
-30 -20 -4 0 -29 -14 -57 -31 -28 -18 -51 -37 -51 -44 0 -6 -12 -21 -26 -34
-14 -12 -35 -21 -47 -19 -21 3 -21 4 9 33 16 17 43 42 60 57 16 14 39 40 52
56 13 18 34 33 50 35 15 2 32 5 39 6z m453 -49 c11 -6 21 -27 25 -52 4 -24 11
-51 17 -60 6 -13 21 -18 48 -18 21 0 42 5 45 10 5 8 11 7 21 -1 12 -9 11 -16
-7 -40 -11 -16 -26 -29 -34 -29 -7 0 -24 6 -37 13 -13 6 -42 26 -63 42 -22 17
-49 35 -60 41 -11 6 -21 18 -23 26 -2 9 9 29 23 47 21 25 30 29 45 21z m-1045
-130 c1 0 2 -7 2 -15 0 -8 -4 -15 -9 -15 -5 0 -6 -4 -3 -10 3 -5 1 -10 -4 -10
-6 0 -11 6 -11 13 0 7 5 18 12 25 7 7 13 12 13 12z m965 -30 c4 0 23 -7 41
-15 19 -8 49 -28 68 -44 l34 -30 -63 -58 c-35 -32 -77 -68 -94 -81 -22 -16
-32 -19 -37 -10 -4 7 0 42 8 78 8 36 19 86 25 113 6 26 14 47 18 47z m-1328
-40 c10 0 21 -7 25 -16 3 -8 0 -34 -7 -57 -6 -23 -18 -56 -25 -72 -7 -17 -16
-46 -20 -65 -4 -19 -24 -52 -44 -73 -20 -21 -50 -44 -66 -51 -17 -7 -53 -32
-80 -56 -27 -23 -67 -54 -89 -68 -23 -15 -63 -43 -91 -63 -27 -20 -64 -41 -82
-48 -17 -7 -41 -23 -54 -37 -12 -13 -28 -24 -34 -24 -7 0 -24 -9 -39 -21 -24
-19 -29 -20 -49 -6 -16 10 -26 32 -35 74 -6 32 -12 83 -12 112 0 50 2 54 58
110 33 32 72 67 88 77 16 10 59 37 95 61 37 24 71 43 76 43 6 0 21 8 34 19 13
10 65 35 114 55 50 21 99 43 110 49 11 6 40 22 64 34 25 13 53 23 63 23z m137
-10 c6 0 12 -4 16 -10 3 -5 2 -17 -4 -27 -5 -10 -19 -39 -31 -65 -13 -27 -25
-48 -27 -48 -3 0 -1 15 2 33 4 17 13 39 21 48 8 8 14 28 14 42 0 15 4 27 9 27z
m3778 -120 c5 0 14 -5 21 -12 7 -7 12 -20 12 -31 0 -12 -6 -17 -17 -15 -11 2
-19 14 -21 31 -2 15 1 27 5 27z m-112 -82 c21 -9 25 -18 25 -54 0 -24 -4 -45
-9 -48 -5 -3 -14 9 -21 27 -6 17 -16 40 -21 50 -5 10 -7 22 -4 27 3 5 16 5 30
-2z m1065 2 c7 0 9 -37 7 -109 -2 -70 -8 -115 -16 -125 -7 -8 -10 -19 -7 -24
3 -6 -1 -29 -9 -52 -8 -23 -12 -46 -9 -52 3 -5 0 -15 -6 -23 -7 -8 -18 -41
-25 -73 -7 -31 -30 -105 -51 -164 -36 -103 -39 -108 -66 -108 -15 0 -45 9 -65
20 -21 11 -47 20 -59 20 -12 0 -27 7 -34 15 -10 12 -10 18 0 30 7 8 9 15 5 15
-5 0 -1 8 8 18 8 9 19 29 22 45 5 20 13 27 30 27 16 0 26 8 32 28 6 15 8 33 6
40 -3 6 -12 12 -21 12 -12 0 -13 3 -4 12 7 7 12 26 12 43 0 17 11 47 25 67 14
20 25 40 25 44 0 3 13 25 29 49 15 23 31 62 35 87 5 33 17 56 42 82 19 20 39
36 44 36 6 0 13 0 18 1 4 0 10 9 14 20 4 10 12 19 18 19z m-871 -30 c5 0 18
-16 30 -35 11 -19 16 -35 11 -35 -5 0 -18 12 -29 26 -12 15 -21 31 -21 35 0 5
4 9 9 9z m-4911 -21 c12 1 22 -2 22 -6 0 -4 -19 -24 -42 -44 -23 -21 -54 -41
-70 -44 -15 -4 -64 -31 -107 -60 -44 -29 -105 -66 -137 -82 -33 -15 -63 -33
-67 -40 -4 -7 -14 -13 -20 -13 -7 0 -23 -8 -36 -17 -12 -10 -41 -35 -64 -55
-23 -21 -45 -38 -50 -38 -5 0 -29 -18 -54 -40 -25 -22 -52 -40 -59 -40 -8 0
-19 -9 -26 -21 -7 -11 -32 -34 -56 -50 -35 -23 -54 -29 -98 -29 -38 0 -56 4
-60 14 -3 8 9 55 26 103 18 48 46 115 61 149 22 45 39 66 67 81 20 12 84 35
142 51 58 16 134 37 170 45 36 9 106 27 155 40 50 14 133 41 185 60 52 20 105
36 118 36z m4601 -49 c5 0 18 -18 30 -40 12 -22 21 -49 21 -59 0 -10 -15 -37
-32 -59 -18 -23 -41 -41 -50 -41 -10 -1 -18 5 -18 13 0 8 5 18 10 21 6 3 10
15 10 27 0 13 5 18 14 15 12 -5 14 6 10 59 -2 35 0 64 5 64z m-3578 -10 c5 0
9 -6 9 -14 0 -8 -5 -18 -11 -21 -6 -4 -12 -5 -15 -2 -2 2 -2 12 2 21 3 9 10
16 15 16z m3816 -20 c2 0 29 -20 61 -44 32 -25 74 -62 93 -84 19 -21 43 -49
53 -62 11 -13 20 -37 22 -53 1 -16 9 -36 17 -44 11 -12 12 -24 5 -56 -5 -23
-13 -46 -17 -50 -4 -4 -28 -1 -52 7 -24 9 -52 16 -62 16 -12 0 -25 15 -37 43
-10 23 -28 50 -39 59 -12 10 -21 27 -21 38 0 11 -16 37 -35 59 -19 21 -35 48
-35 60 0 11 -4 21 -10 21 -5 0 0 17 12 38 12 20 27 40 33 44 5 4 11 8 12 8z
m-2297 -45 c5 -3 9 -30 9 -60 -1 -30 -5 -55 -9 -55 -5 0 -11 8 -14 18 -2 9 -3
35 -1 57 2 22 4 41 4 43 1 2 5 1 11 -3z m-922 -33 c2 -13 -4 -32 -12 -41 -9
-10 -16 -23 -16 -29 0 -7 -4 -12 -10 -12 -5 0 -10 11 -10 24 0 13 10 36 23 52
22 29 22 29 25 6z m-838 -2 l31 0 -6 -77 c-4 -43 -13 -107 -22 -143 -8 -36
-28 -93 -44 -128 -16 -35 -29 -71 -29 -80 0 -9 -9 -32 -20 -49 -11 -18 -25
-33 -31 -33 -6 0 -9 -9 -6 -20 4 -15 -4 -28 -29 -48 -19 -15 -39 -43 -45 -62
-7 -19 -17 -41 -23 -49 -6 -8 -16 -30 -21 -49 -6 -21 -27 -49 -55 -73 -25 -20
-61 -40 -81 -44 l-36 -7 -26 65 c-15 36 -29 76 -31 89 -3 13 -10 39 -15 58 -5
19 -14 51 -20 71 -6 20 -15 74 -19 119 l-8 82 40 31 c23 18 48 37 57 42 9 6
42 28 73 50 32 22 73 49 91 60 19 12 43 29 54 39 11 10 33 25 49 34 16 10 52
34 80 55 27 20 53 44 56 52 3 9 18 15 36 15z m-813 -30 c22 0 31 -4 27 -12 -3
-7 -25 -27 -49 -44 -23 -18 -53 -35 -66 -39 -13 -4 -30 -12 -37 -18 -7 -5 -31
-20 -55 -34 -23 -13 -53 -28 -67 -34 -14 -7 -36 -17 -50 -23 -14 -6 -40 -21
-59 -33 -19 -13 -42 -23 -51 -23 -10 0 -23 -7 -30 -15 -7 -8 -23 -15 -36 -15
-13 0 -24 4 -24 10 0 5 13 16 29 25 17 8 52 29 78 47 26 18 50 36 51 40 2 4 8
8 14 8 5 0 25 12 43 26 19 14 83 50 142 80 64 32 121 54 140 54z m2491 -71 c2
-23 1 -48 -2 -55 -3 -8 -20 -14 -42 -14 -35 0 -36 1 -21 18 10 10 17 24 17 30
0 7 5 12 10 12 6 0 10 6 10 13 0 7 6 19 13 26 10 10 13 4 15 -30z m2225 2 c5
-5 7 -21 3 -36 -4 -15 -12 -25 -19 -22 -7 2 -13 11 -15 21 -2 9 2 24 9 32 8
10 16 11 22 5z m-1505 -1 c10 0 26 -6 37 -14 15 -11 17 -22 12 -64 -4 -32 -14
-59 -26 -71 -12 -12 -25 -21 -31 -21 -6 0 -10 35 -10 85 0 75 2 85 18 85z
m-3167 -38 c4 -4 15 -50 24 -102 9 -52 18 -112 21 -132 5 -36 4 -37 -40 -57
-25 -12 -50 -21 -55 -21 -6 0 -11 -4 -11 -8 0 -4 -35 -31 -79 -60 -43 -29 -84
-52 -90 -52 -7 0 -24 -8 -39 -17 -15 -9 -36 -24 -47 -34 -11 -9 -47 -31 -80
-49 -33 -17 -77 -45 -97 -61 -20 -16 -43 -29 -51 -29 -8 0 -54 -22 -103 -50
-49 -27 -94 -50 -99 -50 -6 0 -22 -11 -36 -24 -14 -13 -43 -35 -65 -48 -22
-14 -54 -29 -72 -33 -17 -3 -38 -15 -45 -25 -7 -10 -37 -25 -67 -34 -29 -9
-71 -16 -91 -16 -21 0 -41 5 -45 11 -3 6 16 42 42 79 27 38 74 105 104 148 30
44 82 110 115 148 33 37 85 93 117 125 41 41 66 58 94 64 21 4 56 15 77 25 22
11 64 27 96 35 31 9 74 26 96 38 22 12 49 29 60 38 11 10 39 22 62 28 23 7 48
17 55 24 7 7 36 23 63 37 28 13 66 37 85 52 19 15 48 34 65 42 16 9 33 12 36
8z m3086 -33 c10 -9 13 -38 11 -121 -2 -108 -3 -109 -30 -123 -15 -7 -30 -10
-33 -5 -3 5 -6 46 -6 92 0 46 5 96 11 113 6 16 16 35 22 42 8 10 14 10 25 2z
m-332 -109 c8 0 16 -4 20 -10 3 -5 -8 -21 -24 -36 -16 -14 -42 -44 -57 -65
-21 -31 -25 -45 -20 -73 5 -26 3 -35 -10 -40 -8 -3 -20 -6 -26 -6 -7 0 -8 19
-4 56 5 43 14 66 37 93 17 20 40 46 51 59 11 12 26 22 33 22z m506 -16 c5 -3
9 -11 9 -18 0 -8 -7 -19 -15 -26 -12 -10 -15 -10 -15 3 0 8 3 22 6 31 3 9 10
13 15 10z m-310 -31 c5 -5 9 -31 10 -58 1 -28 1 -67 0 -87 0 -21 -5 -38 -11
-38 -5 0 -14 18 -20 41 -6 22 -12 58 -12 80 0 22 5 46 12 54 7 9 17 12 21 8z
m2248 7 c5 0 19 -12 30 -26 12 -15 21 -31 21 -35 0 -5 -6 -9 -14 -9 -8 0 -22
10 -30 22 -9 12 -16 28 -16 35 0 7 4 13 9 13z m-4125 -30 c7 0 21 -11 30 -25
13 -19 14 -33 7 -64 -5 -22 -18 -52 -30 -67 -11 -15 -21 -30 -21 -34 0 -5 -24
-33 -52 -63 -44 -45 -62 -56 -106 -66 -29 -6 -60 -11 -67 -11 -10 0 -15 10
-15 29 0 16 5 42 11 58 6 15 59 76 119 136 60 59 116 107 124 107z m2095 -70
c6 0 13 -4 16 -10 3 -5 -1 -10 -9 -10 -9 0 -16 5 -16 10 0 6 4 10 9 10z m203
-80 c5 0 20 -11 34 -25 25 -25 25 -28 20 -138 -3 -62 -8 -141 -11 -177 -3 -36
-13 -117 -21 -179 -9 -63 -20 -126 -25 -139 -5 -13 -9 -34 -9 -46 0 -13 -10
-31 -21 -42 -22 -19 -22 -19 -16 8 4 14 9 59 12 100 2 40 7 163 9 273 3 110 8
238 12 283 4 45 11 82 16 82z m1493 -16 c17 -3 33 -8 38 -11 4 -2 7 -9 7 -16
0 -6 12 -23 27 -39 14 -15 24 -30 21 -33 -3 -3 -18 -7 -34 -8 -22 -2 -29 2
-29 16 0 10 -9 23 -19 29 -17 9 -18 8 -13 -11 3 -11 2 -21 -1 -21 -4 0 -16 15
-28 33 -16 25 -19 36 -10 50 8 13 18 16 41 11z m-2109 -7 c8 0 14 -3 14 -7 0
-4 -5 -21 -11 -38 -9 -25 -17 -32 -52 -37 -23 -4 -48 -12 -55 -18 -7 -5 -14
-8 -17 -5 -2 2 6 14 18 26 12 12 37 35 56 51 18 15 39 28 47 28z m2437 -2 c18
-4 38 -13 45 -19 9 -9 11 -26 6 -55 -4 -24 -17 -55 -30 -71 -13 -15 -24 -33
-24 -39 0 -6 -7 -11 -16 -11 -8 0 -22 16 -30 35 -9 23 -11 41 -6 53 5 9 13 39
16 65 7 48 8 48 39 42z m-1659 -24 c14 -13 22 -29 19 -37 -3 -8 -7 -14 -8 -14
-2 0 -11 14 -19 32 -9 17 -16 33 -16 36 0 3 11 -5 24 -17z m237 4 c5 -4 9 -15
9 -27 0 -11 -8 -31 -19 -44 -10 -13 -21 -20 -25 -17 -3 3 -6 16 -6 27 0 12 7
32 16 44 8 12 20 20 25 17z m-611 -5 c5 0 11 -8 13 -17 2 -10 3 -99 1 -198 -2
-99 -4 -196 -4 -215 -1 -19 -1 -107 -1 -195 1 -88 1 -166 1 -172 0 -7 -5 -13
-10 -13 -6 0 -19 14 -29 31 -16 27 -18 46 -15 138 2 58 8 173 14 254 5 82 5
158 0 171 -5 13 -4 29 2 40 5 9 10 49 9 88 0 39 2 75 5 79 3 5 9 9 14 9z
m-1047 -30 c15 0 12 -7 -14 -40 -18 -22 -41 -40 -51 -40 -10 0 -18 5 -18 12 0
6 15 24 33 39 17 16 40 28 50 29z m962 -5 c6 -1 10 -15 11 -31 0 -16 2 -33 4
-39 2 -5 1 -30 -3 -55 -4 -25 -9 -101 -12 -170 -3 -69 -8 -156 -11 -195 -3
-38 -9 -74 -14 -79 -5 -5 -13 -6 -17 -2 -5 4 -9 110 -10 234 -1 125 0 250 3
279 4 37 10 53 22 56 9 3 22 4 27 2z m867 -1 c4 -3 8 -12 8 -20 0 -8 -8 -27
-18 -42 -10 -15 -23 -36 -29 -47 -7 -11 -26 -44 -44 -74 -17 -30 -37 -60 -44
-67 -7 -7 -15 -10 -19 -7 -3 4 -6 17 -6 31 0 13 13 41 28 61 15 20 48 66 72
103 24 36 48 64 52 62z m-1100 -40 c6 -4 6 -10 -1 -17 -6 -6 -13 -8 -17 -4 -3
3 -3 11 1 16 3 6 11 8 17 5z m1942 -6 c39 2 55 -3 73 -20 17 -16 37 -22 71
-23 26 -1 53 -4 59 -8 8 -5 10 -22 7 -45 -2 -20 -9 -66 -15 -102 -6 -36 -12
-76 -13 -90 -1 -14 -6 -42 -10 -62 -5 -21 -12 -38 -16 -38 -5 0 -17 11 -27 23
-10 13 -58 55 -106 93 -48 38 -107 83 -130 100 -27 20 -43 40 -45 56 -2 15 2
45 8 67 10 38 13 40 53 44 23 2 64 4 91 5z m659 -14 c17 -3 37 -12 44 -20 7
-7 13 -22 13 -34 0 -11 -11 -32 -24 -47 -13 -14 -26 -41 -29 -61 -4 -19 -16
-45 -27 -57 -12 -13 -23 -30 -24 -39 -1 -9 -9 -22 -17 -28 -8 -7 -32 -34 -52
-60 -21 -26 -43 -61 -50 -77 -8 -18 -17 -27 -24 -23 -6 4 -12 23 -14 42 -1 19
7 62 20 94 12 33 20 65 17 72 -3 7 -1 16 5 20 7 4 7 10 0 18 -7 9 -7 16 0 23
6 6 17 9 24 6 9 -3 30 28 60 87 47 90 48 91 78 84z m-896 -17 c13 -13 15 -19
5 -29 -9 -9 -15 -9 -23 -1 -7 7 -9 20 -5 29 6 16 8 16 23 1z m-543 3 c3 0 8
-4 11 -10 3 -5 1 -10 -4 -10 -6 0 -11 5 -11 10 0 6 2 10 4 10z m-1596 -20 c2
-6 1 -21 -2 -34 -4 -17 -15 -25 -36 -28 -16 -3 -30 -2 -30 1 0 3 15 20 32 38
18 19 34 29 36 23z m282 7 c15 1 20 -4 20 -23 0 -22 -3 -23 -20 -14 -11 6 -20
16 -20 23 0 7 9 13 20 14z m-877 -18 c15 1 27 -2 27 -6 0 -5 -18 -35 -40 -68
-22 -32 -41 -63 -43 -68 -1 -4 -22 -12 -45 -18 -29 -6 -49 -6 -62 1 -11 6 -20
18 -20 26 0 8 5 25 11 37 7 11 22 32 35 46 13 14 43 31 67 38 23 6 54 11 70
12z m3882 -5 c17 -1 44 -10 60 -18 17 -9 40 -16 52 -16 12 0 24 -4 27 -9 4 -5
26 -19 49 -30 24 -12 49 -21 57 -21 7 0 21 -6 29 -13 9 -7 34 -20 56 -29 22
-9 65 -26 95 -38 30 -12 77 -42 104 -66 33 -31 51 -56 57 -82 6 -27 4 -43 -7
-59 -8 -13 -26 -31 -41 -40 -17 -11 -45 -17 -79 -17 -36 1 -72 11 -119 33 -37
17 -100 55 -139 85 -39 30 -87 70 -106 89 -19 19 -53 58 -75 88 -22 29 -50 68
-62 86 -13 19 -23 38 -23 43 0 5 8 11 18 13 9 2 31 3 47 1z m-3154 -14 c10 0
25 -10 33 -22 9 -12 16 -30 16 -40 0 -9 -4 -19 -8 -22 -5 -3 -20 -7 -34 -10
-14 -2 -31 0 -38 4 -12 7 -12 15 0 49 9 28 19 41 31 41z m310 0 c4 0 10 -8 14
-17 3 -10 16 -61 27 -113 12 -52 23 -116 26 -142 3 -37 1 -48 -10 -48 -8 0
-25 19 -38 43 -13 23 -45 67 -72 96 -27 31 -48 65 -48 77 0 14 17 37 48 63 26
23 50 41 53 41z m1223 -14 c5 -1 13 -9 17 -17 4 -8 15 -31 25 -51 17 -35 17
-38 1 -56 -9 -10 -17 -23 -17 -28 0 -5 -6 -20 -13 -34 -7 -14 -19 -45 -26 -70
-8 -25 -26 -72 -42 -105 -15 -33 -46 -99 -68 -147 -23 -49 -47 -88 -54 -88 -7
0 -18 19 -26 43 -8 23 -18 71 -23 107 -4 36 -10 85 -14 110 -3 30 0 58 11 83
8 20 46 69 83 108 37 39 83 88 102 109 19 22 39 38 44 36z m273 4 c3 0 14 -5
26 -11 12 -6 32 -21 45 -32 15 -14 22 -32 22 -58 0 -21 -4 -41 -10 -44 -5 -3
-30 13 -55 36 -32 30 -45 49 -45 69 0 14 3 30 7 33 3 4 8 7 10 7z m-2029 -56
c9 -4 30 -7 45 -6 l29 1 -7 -52 c-3 -29 -13 -94 -21 -146 -8 -51 -20 -105 -25
-120 -6 -14 -10 -28 -9 -31 1 -3 -1 -25 -5 -50 -4 -25 -18 -90 -31 -145 -14
-55 -27 -107 -29 -115 -2 -8 -13 -53 -24 -100 -11 -47 -35 -130 -52 -185 -17
-55 -42 -132 -55 -172 -13 -39 -24 -76 -24 -83 0 -7 -8 -24 -19 -38 -10 -15
-28 -55 -39 -88 -12 -34 -32 -86 -45 -115 -13 -30 -30 -73 -37 -96 -7 -24 -17
-43 -21 -43 -4 0 -10 26 -13 58 -4 31 -11 158 -15 281 -5 123 -5 240 -1 260 5
20 11 90 16 156 4 66 8 140 10 165 1 25 5 68 9 95 3 28 8 75 9 105 2 30 5 63
8 72 2 10 18 35 36 57 18 22 32 43 32 46 0 4 11 16 24 26 14 11 28 28 31 39 3
10 22 29 41 40 18 12 34 27 34 34 0 6 14 28 31 49 16 20 46 44 65 53 22 11 34
23 34 36 0 15 4 18 18 12z m-1494 -44 c7 -7 6 -14 -1 -21 -7 -7 -20 -8 -30 -5
-17 7 -17 8 1 22 13 9 23 11 30 4z m1272 -20 c1 0 1 -6 0 -12 -1 -7 -10 -25
-20 -40 -10 -16 -22 -28 -27 -28 -5 0 -9 5 -9 12 0 7 12 25 27 40 15 15 28 28
29 28z m2200 -30 c4 0 23 -15 44 -34 20 -18 41 -35 46 -37 6 -2 22 -21 38 -41
26 -35 27 -41 19 -95 -4 -32 -7 -64 -6 -70 0 -7 -3 -13 -7 -13 -5 0 -12 -9
-15 -20 -4 -11 -10 -18 -14 -15 -5 2 -18 33 -31 67 -12 35 -28 77 -35 93 -7
17 -20 52 -29 78 -9 26 -16 57 -16 67 0 11 3 20 6 20z m814 -25 c4 -11 3 -30
-1 -43 -5 -13 -9 -35 -9 -48 0 -14 -4 -23 -9 -20 -5 3 -7 27 -4 53 3 27 7 55
10 63 4 12 7 11 13 -5z m-3863 -19 c2 -2 -4 -22 -13 -45 -14 -36 -20 -41 -47
-41 l-31 0 44 45 c24 24 45 43 47 41z m-766 -26 c10 0 20 -4 23 -9 4 -5 3 -16
0 -25 -3 -9 -17 -16 -29 -16 -13 0 -27 5 -30 10 -4 6 -1 17 5 25 7 8 21 15 31
15z m2231 0 c5 0 15 -15 23 -34 8 -19 24 -41 35 -49 11 -7 31 -29 44 -48 14
-19 47 -67 75 -108 29 -42 51 -85 51 -100 0 -14 5 -98 11 -186 5 -88 11 -237
12 -331 l2 -171 -30 -36 c-17 -19 -45 -53 -62 -75 -18 -23 -33 -45 -33 -51 0
-6 -8 -19 -17 -29 -10 -10 -31 -37 -47 -61 -17 -23 -71 -84 -120 -135 -50 -50
-103 -99 -118 -109 -15 -9 -36 -17 -47 -17 -11 0 -27 10 -35 23 -9 12 -21 67
-28 122 -6 55 -12 141 -11 190 0 50 8 142 17 205 9 63 19 130 21 148 3 18 12
68 20 110 9 42 23 102 31 132 9 30 27 93 41 140 13 47 29 101 35 120 6 19 21
62 33 95 13 33 34 92 48 130 15 39 29 82 33 98 3 15 10 27 16 27z m2007 -29
c10 -6 23 -17 31 -25 7 -9 17 -16 23 -16 6 0 20 -8 31 -19 12 -10 44 -31 71
-46 28 -15 54 -30 58 -34 4 -4 1 -60 -8 -125 -8 -64 -15 -124 -15 -132 0 -7
-4 -14 -10 -14 -5 0 -10 11 -10 24 0 14 -10 42 -22 63 -12 21 -41 60 -65 88
-24 27 -43 53 -43 58 0 5 -12 34 -26 65 -14 31 -30 68 -35 80 -5 13 -7 28 -3
33 3 5 12 5 23 0z m-140 -21 c5 0 14 -7 21 -15 7 -9 10 -18 7 -21 -3 -4 -13
-4 -22 -1 -8 4 -15 13 -15 22 0 8 4 15 9 15z m-2735 -10 c8 0 26 -14 40 -31
19 -22 25 -38 20 -53 -3 -11 -17 -36 -31 -53 -13 -18 -28 -33 -33 -33 -5 0
-17 12 -27 26 -9 15 -17 41 -17 59 0 18 8 44 17 59 10 14 24 26 31 26z m-1513
-15 c15 -1 52 -22 84 -46 51 -40 56 -47 51 -74 -4 -16 -9 -61 -12 -100 -5 -57
-11 -76 -33 -100 -15 -16 -42 -52 -61 -80 -19 -27 -57 -74 -86 -102 -28 -29
-73 -78 -100 -108 -27 -31 -73 -80 -101 -110 -29 -29 -53 -57 -53 -62 0 -4
-21 -29 -47 -55 -27 -26 -59 -58 -73 -72 -14 -13 -54 -58 -90 -100 -36 -41
-69 -75 -74 -75 -5 -1 -32 -22 -61 -48 -29 -27 -70 -63 -93 -80 -22 -18 -45
-33 -50 -33 -6 0 -3 23 5 53 9 28 20 58 26 66 6 7 17 23 24 35 7 11 24 46 38
76 14 30 32 61 39 70 8 8 28 49 46 90 18 41 47 98 65 125 18 28 36 65 40 83 3
17 10 32 14 32 3 0 21 31 39 69 18 38 39 75 47 81 8 7 15 17 15 23 0 5 10 24
23 41 12 17 29 45 37 61 8 17 38 60 67 96 28 37 73 84 99 105 26 22 70 62 98
90 38 38 58 50 77 49z m807 -12 c12 -5 8 -12 -17 -35 -18 -16 -37 -26 -42 -22
-6 4 0 18 16 34 17 17 33 26 43 23z m2464 6 c4 1 12 -9 19 -20 6 -12 9 -41 6
-65 -3 -30 -12 -50 -28 -63 -13 -11 -27 -18 -30 -16 -3 2 -7 31 -8 64 -2 46 2
65 16 80 10 10 21 20 25 20z m-2119 -50 c24 1 26 -2 18 -17 -5 -10 -16 -24
-23 -30 -7 -5 -25 -13 -41 -17 -19 -5 -27 -3 -27 5 0 7 10 23 23 35 12 13 35
23 50 24z m-434 -35 c2 -2 -2 -10 -9 -19 -7 -8 -21 -15 -32 -15 -11 0 -18 5
-16 12 3 7 15 15 29 19 13 3 26 4 28 3z m3496 -4 c3 0 23 -11 45 -25 22 -14
40 -30 40 -35 0 -6 5 -10 12 -10 6 0 26 -15 43 -32 17 -18 61 -61 98 -96 37
-34 67 -67 67 -72 0 -6 14 -10 30 -10 27 0 29 -2 21 -19 -6 -10 -8 -20 -6 -23
3 -3 -6 -11 -20 -18 -13 -7 -27 -22 -31 -32 -3 -10 -17 -24 -32 -32 -15 -8
-39 -28 -55 -45 -15 -17 -33 -31 -40 -31 -7 0 -27 -16 -44 -35 -17 -19 -39
-35 -49 -35 -10 0 -26 7 -36 17 -10 9 -18 20 -18 24 0 4 -16 42 -36 84 -20 43
-36 94 -37 114 0 20 5 59 12 86 7 28 15 79 17 115 2 36 7 75 9 88 3 12 8 22
10 22z m-3611 -51 c11 1 17 -2 13 -5 -3 -3 -12 -4 -19 -1 -8 3 -5 6 6 6z m661
1 c18 0 26 -7 31 -25 3 -14 12 -25 19 -25 8 0 25 4 39 10 22 8 28 5 46 -19 11
-16 20 -35 20 -43 0 -8 -16 -31 -36 -52 -19 -20 -49 -42 -65 -48 -16 -5 -29
-15 -29 -22 0 -7 -24 -22 -52 -33 -29 -12 -78 -29 -110 -37 -31 -9 -85 -16
-121 -16 -45 0 -68 -5 -77 -15 -7 -8 -10 -22 -6 -30 4 -12 25 -15 102 -15 55
0 122 7 157 16 34 9 81 29 105 45 24 16 46 29 50 29 4 0 22 14 40 30 18 17 44
30 56 30 21 0 23 -3 19 -47 -3 -28 -19 -78 -40 -118 -22 -44 -62 -98 -107
-145 -39 -41 -89 -95 -112 -120 -22 -25 -74 -71 -115 -103 -40 -31 -96 -75
-124 -97 -27 -22 -55 -45 -62 -50 -7 -6 -19 -10 -27 -10 -8 0 -18 -5 -21 -11
-4 -5 -19 -15 -33 -21 -15 -6 -30 -11 -34 -10 -5 1 -8 -2 -8 -6 0 -5 -37 -27
-82 -50 -50 -26 -103 -45 -133 -48 -27 -4 -69 -1 -93 5 -27 8 -46 20 -53 34
-5 12 -13 48 -17 81 -4 32 -4 156 -1 275 4 119 10 243 14 276 4 33 11 65 16
71 5 6 40 16 77 22 38 7 93 19 123 28 30 8 97 32 149 51 52 20 120 44 150 54
29 11 56 23 60 27 3 5 38 25 78 45 41 20 81 37 90 37 9 0 30 9 46 19 17 11 33
18 38 15 4 -3 8 0 8 5 0 6 11 11 25 11z m-940 -60 c9 0 12 -21 11 -72 0 -40
-5 -76 -11 -80 -5 -4 -24 -8 -42 -8 -20 0 -36 6 -42 17 -6 12 -3 26 15 52 13
20 24 40 24 45 0 5 7 18 17 28 9 10 22 18 28 18z m2813 -30 c4 0 14 -5 22 -10
10 -6 14 -21 12 -42 -2 -19 -20 -55 -42 -83 -21 -27 -52 -74 -70 -102 -17 -29
-38 -53 -45 -53 -10 0 -11 9 -3 42 5 24 15 50 22 58 7 8 24 35 37 60 13 25 32
56 41 69 10 13 18 32 18 42 0 11 3 19 8 19z m182 -21 c4 -8 11 -85 14 -172 4
-87 9 -164 12 -171 3 -7 -4 -20 -15 -30 -11 -10 -27 -16 -36 -13 -8 4 -15 19
-15 34 -1 15 -5 87 -10 158 -9 130 -9 130 17 169 19 29 27 36 33 25z m-2886
-9 c9 0 25 -18 36 -41 12 -23 19 -43 17 -45 -3 -3 -17 -6 -33 -7 -28 -2 -29 0
-32 46 -2 37 0 47 12 47z m2986 -95 c17 -38 33 -89 37 -112 5 -39 3 -43 -21
-54 -14 -7 -28 -10 -31 -7 -3 2 -7 58 -10 124 l-6 119 31 -70z m1434 53 c14
-2 23 -14 28 -38 4 -19 9 -143 10 -275 2 -160 -2 -272 -11 -335 -7 -52 -19
-107 -27 -122 -8 -14 -21 -47 -29 -73 -9 -25 -25 -56 -36 -68 -11 -12 -30 -32
-41 -44 -12 -12 -34 -25 -50 -28 -15 -4 -41 -4 -58 0 -16 4 -43 21 -60 38 -16
18 -50 66 -76 107 -26 41 -69 122 -96 180 -27 58 -54 112 -59 120 -5 8 -14 26
-19 39 -6 14 -10 34 -8 45 2 13 12 22 25 24 12 2 49 30 83 63 33 32 66 59 71
59 6 0 17 6 25 14 8 8 14 19 14 25 0 6 6 11 14 11 7 0 18 -6 24 -12 5 -7 12
-34 16 -59 5 -31 16 -54 34 -72 15 -14 32 -23 38 -19 6 4 14 25 17 46 4 22 10
42 15 45 5 3 13 22 17 41 4 19 24 71 45 115 21 44 46 102 55 128 15 38 22 47
39 45z m-2106 -103 c15 -3 35 -16 44 -28 10 -12 18 -29 18 -38 0 -9 7 -22 16
-29 11 -10 14 -23 8 -54 -3 -23 -14 -57 -24 -76 -10 -19 -25 -52 -34 -73 -9
-21 -22 -37 -29 -34 -6 2 -15 23 -19 48 -4 24 -11 92 -16 152 -4 60 -4 114 1
123 6 11 17 14 35 9z m439 -63 c8 -15 19 -65 24 -112 5 -47 9 -97 9 -111 0
-22 -6 -28 -31 -33 -23 -4 -39 0 -60 14 -15 12 -38 35 -50 52 l-23 31 25 42
c13 23 39 65 58 94 l34 51 14 -28z m905 -102 c4 0 21 -28 38 -62 20 -40 29
-70 25 -85 -3 -13 -16 -25 -30 -29 -14 -3 -25 -11 -25 -17 0 -6 -3 -7 -6 -4
-4 4 -19 -2 -34 -13 -16 -11 -33 -20 -38 -20 -6 0 -12 6 -14 12 -3 7 1 19 8
26 8 7 16 35 20 63 4 27 11 52 15 55 5 3 9 15 9 28 0 12 5 27 12 34 7 7 15 12
20 12z m-1084 -160 c4 0 15 -7 26 -15 10 -7 15 -18 11 -24 -3 -6 -14 -11 -25
-11 -10 0 -21 7 -24 16 -3 9 -4 20 0 25 3 5 8 9 12 9z m552 0 c5 0 14 -17 21
-37 6 -21 11 -72 11 -116 -1 -43 -4 -82 -7 -87 -4 -6 -17 -10 -30 -10 -13 0
-27 5 -30 10 -3 6 -14 10 -24 10 -9 0 -27 9 -39 20 -12 12 -22 31 -22 45 0 13
12 33 29 47 15 13 30 28 32 34 2 5 15 26 28 47 12 20 27 37 31 37z m-231 -260
c6 0 11 -5 11 -11 0 -5 4 -8 9 -5 5 3 13 0 18 -7 6 -6 14 -25 18 -42 4 -16 6
-64 6 -105 -1 -41 -3 -86 -5 -100 -2 -14 -7 -38 -11 -54 l-8 -30 -9 24 c-5 13
-11 56 -14 94 -3 39 -7 82 -9 96 -1 14 -6 51 -10 83 -5 39 -3 57 4 57z"/>
</g>
<g>
<path d="M15122 17587 c-34 4 -45 -1 -95 -43 -48 -39 -57 -51 -57 -79 0 -21 9
-45 26 -64 14 -17 42 -35 62 -41 20 -5 51 -10 69 -10 21 0 33 6 37 18 3 9 16
22 28 27 15 7 22 21 25 49 2 21 -1 53 -7 71 -6 18 -19 40 -30 50 -11 10 -37
20 -58 22z"/>
</g>
<g>
<path d="M3459 17040 c-16 0 -29 -4 -29 -8 0 -5 -11 -14 -25 -20 -18 -9 -25
-19 -25 -41 0 -21 13 -44 45 -79 25 -27 55 -63 67 -78 13 -16 47 -58 77 -94
30 -36 89 -105 132 -155 43 -49 101 -123 129 -163 27 -40 50 -75 50 -77 0 -3
20 -31 44 -62 23 -32 55 -78 70 -102 15 -24 76 -100 134 -169 59 -70 132 -154
162 -187 31 -33 73 -83 93 -111 20 -29 37 -55 37 -59 0 -4 14 -24 30 -44 17
-20 34 -41 38 -46 4 -6 25 -33 47 -60 22 -28 56 -68 76 -90 20 -22 49 -55 64
-72 15 -19 44 -38 67 -45 38 -11 42 -10 59 11 16 19 18 34 13 75 -3 28 -16 71
-28 96 -17 35 -28 46 -51 48 -15 2 -40 16 -54 30 -14 15 -43 48 -63 74 -21 25
-38 51 -38 56 0 6 -3 12 -8 14 -4 2 -25 28 -46 58 -21 30 -45 59 -52 63 -8 4
-14 13 -14 19 0 6 -39 54 -86 107 -47 53 -103 114 -124 137 -20 22 -43 51 -50
65 -7 13 -32 47 -54 74 -23 28 -47 59 -53 70 -7 11 -20 34 -29 50 -9 17 -37
53 -60 81 -24 28 -44 56 -44 62 0 6 -11 19 -25 30 -14 11 -25 26 -25 34 0 8
-13 27 -30 43 -16 16 -30 34 -30 40 0 6 -33 45 -72 86 -40 41 -93 97 -119 124
-25 28 -63 78 -84 113 -21 35 -50 72 -63 83 -14 10 -38 19 -53 19z"/>
</g>
<g>
<path d="M7612 16944 c-23 2 -45 -1 -48 -5 -3 -5 -14 -9 -25 -9 -10 0 -19 -5
-19 -12 0 -6 -9 -21 -20 -33 -11 -12 -24 -43 -29 -70 -9 -47 -8 -50 23 -81 18
-18 50 -37 71 -43 22 -6 55 -11 72 -11 25 0 41 9 68 38 26 28 35 46 35 73 0
20 -9 56 -20 81 -10 24 -30 50 -43 57 -12 7 -42 14 -65 15z"/>
</g>
<g>
<path d="M14668 16769 c-7 -1 -30 -11 -51 -23 -36 -20 -38 -23 -34 -59 4 -29
16 -47 54 -81 27 -24 72 -62 99 -84 28 -22 83 -75 122 -118 39 -44 100 -117
136 -164 36 -47 96 -129 132 -183 37 -54 86 -119 110 -146 24 -27 44 -54 44
-61 0 -6 50 -61 110 -121 61 -61 110 -114 110 -118 0 -3 -13 -14 -29 -24 -16
-9 -36 -17 -45 -17 -8 0 -19 -6 -23 -13 -4 -6 -32 -27 -61 -45 -29 -17 -57
-32 -62 -32 -4 0 -20 -14 -34 -31 -14 -17 -26 -36 -26 -43 0 -7 12 -26 26 -41
22 -24 30 -27 67 -21 28 5 48 15 60 31 10 14 24 25 32 25 7 0 18 7 25 15 7 9
29 22 49 31 20 9 47 21 61 27 14 6 33 18 42 25 10 8 32 16 50 18 17 2 35 10
40 17 4 6 8 34 8 60 0 28 -7 59 -17 75 -10 15 -26 35 -37 45 -10 9 -25 17 -32
17 -7 0 -61 46 -119 102 -58 56 -105 106 -105 110 0 5 -15 26 -34 46 -19 20
-48 56 -65 80 -17 23 -36 42 -41 42 -6 0 -10 9 -10 19 0 10 -15 38 -32 61 -18
23 -45 55 -59 70 -14 16 -31 42 -38 58 -7 17 -20 38 -30 48 -9 11 -24 29 -32
42 -9 12 -85 94 -169 182 -84 88 -159 160 -166 160 -8 0 -14 5 -14 10 0 6 -6
10 -12 9z"/>
</g>
<g>
<path d="M13392 16692 c-10 2 -37 1 -62 -4 -25 -4 -56 -16 -70 -26 -19 -15
-27 -33 -33 -78 -8 -58 -8 -58 25 -86 26 -22 43 -28 84 -28 40 0 57 5 77 24
14 13 31 42 38 64 6 22 9 52 5 66 -3 14 -16 34 -27 45 -11 10 -28 21 -37 23z"/>
</g>
<g>
<path d="M16445 15092 c-11 3 -45 -8 -75 -23 -30 -16 -62 -29 -70 -29 -9 0
-24 -6 -35 -14 -11 -7 -36 -17 -55 -21 -19 -4 -39 -11 -45 -15 -5 -4 -35 -15
-65 -25 -30 -10 -59 -21 -64 -26 -6 -5 -18 -9 -28 -9 -10 0 -18 -4 -18 -9 0
-5 -12 -13 -27 -19 -16 -6 -41 -13 -58 -17 -16 -3 -40 -17 -53 -31 -14 -13
-33 -24 -43 -24 -10 0 -48 -13 -84 -30 -36 -16 -68 -30 -70 -30 -3 0 -38 -16
-79 -35 -41 -19 -80 -35 -85 -35 -6 0 -27 -11 -47 -25 -20 -14 -44 -25 -53
-25 -9 0 -32 -10 -51 -23 -19 -13 -60 -34 -90 -46 -30 -13 -62 -29 -71 -37 -8
-8 -19 -14 -23 -14 -4 0 -20 -8 -34 -19 -15 -10 -48 -30 -74 -45 -26 -14 -52
-26 -59 -26 -6 0 -17 -6 -23 -14 -6 -7 -40 -28 -76 -47 -36 -18 -76 -41 -89
-51 -13 -10 -32 -18 -42 -18 -11 0 -28 -9 -38 -19 -11 -11 -21 -17 -24 -15 -3
3 -22 -4 -43 -15 -21 -12 -51 -21 -66 -21 -17 0 -34 -10 -47 -26 -15 -19 -19
-34 -15 -53 4 -14 14 -34 22 -43 8 -10 29 -18 46 -18 17 0 65 16 106 36 41 21
84 42 95 47 11 6 43 21 70 35 28 14 97 52 155 85 58 34 107 63 110 66 3 4 15
12 27 19 13 6 30 12 38 12 8 0 15 4 15 9 0 4 46 31 103 58 56 28 136 66 177
85 41 20 104 48 140 63 36 15 82 35 102 44 21 9 38 19 38 22 0 4 12 10 27 14
14 3 67 26 117 49 50 24 102 47 116 51 14 4 34 13 45 19 11 7 49 23 85 36 36
13 74 29 85 36 11 7 50 22 88 34 37 12 74 28 82 36 7 8 22 14 32 14 10 0 26 7
36 14 9 7 17 26 17 43 0 16 -8 37 -17 45 -10 8 -27 17 -38 20z"/>
</g>
<g>
<path d="M15373 10106 c-12 1 -24 -1 -27 -3 -3 -3 -2 -11 1 -19 3 -9 -2 -14
-16 -14 -14 0 -21 -6 -21 -19 0 -11 10 -27 22 -35 12 -9 27 -16 34 -16 6 0 15
10 21 23 5 12 9 36 9 52 -1 24 -6 30 -23 31z"/>
</g>
<g>
<path d="M15330 9980 c-5 0 -10 -7 -10 -15 0 -8 5 -15 10 -15 6 0 10 7 10 15
0 8 -4 15 -10 15z"/>
</g>
<g>
<path d="M14099 9000 c-10 0 -19 -6 -19 -14 0 -8 7 -17 16 -20 9 -3 20 -4 24
-1 5 3 7 12 3 20 -3 8 -14 15 -24 15z"/>
</g>
<g>
<path d="M14725 8853 c-8 4 -17 1 -21 -5 -4 -5 0 -14 7 -19 8 -5 17 -9 22 -9
4 0 7 6 7 14 0 8 -7 16 -15 19z"/>
</g>
<g>
<path d="M14825 8810 c-8 0 -15 -7 -15 -15 0 -9 8 -18 18 -22 9 -3 30 -18 45
-32 l29 -26 -4 35 c-3 30 -7 35 -30 38 -16 2 -28 8 -28 13 0 5 -7 9 -15 9z"/>
</g>
<g>
<path d="M15185 8810 c-8 0 -15 -4 -15 -10 0 -5 7 -10 15 -10 8 0 15 5 15 10
0 6 -7 10 -15 10z"/>
</g>
<g>
<path d="M15644 8789 c-11 0 -14 -3 -6 -6 7 -3 16 -2 19 1 4 3 -2 6 -13 5z"/>
</g>
<g>
<path d="M14949 8690 c-10 0 -20 -4 -23 -9 -4 -5 -3 -16 0 -25 3 -9 12 -16 20
-16 7 0 18 8 23 19 6 10 7 21 4 25 -3 3 -14 6 -24 6z"/>
</g>
<g>
<path d="M15061 8478 c-8 3 -12 -1 -9 -9 2 -7 10 -15 17 -17 8 -3 12 1 9 9 -2
7 -10 15 -17 17z"/>
</g>
<g>
<path d="M14075 7940 c-3 0 -8 -6 -10 -12 -3 -7 2 -31 9 -53 13 -37 17 -40 47
-37 18 1 39 7 46 14 7 6 13 21 13 33 0 18 -10 26 -49 39 -28 9 -52 16 -56 16z"/>
</g>
<g>
<path d="M4783 7285 c-41 2 -64 -4 -105 -25 -29 -16 -63 -43 -75 -62 -12 -18
-22 -43 -22 -55 -1 -12 -6 -34 -11 -49 -6 -14 -8 -47 -4 -73 4 -33 16 -58 40
-85 18 -20 50 -49 71 -63 36 -24 40 -25 99 -14 34 6 77 11 97 11 28 0 45 9 87
49 36 34 54 60 61 87 4 22 9 60 9 85 0 25 -7 60 -15 77 -9 17 -30 40 -48 51
-18 11 -40 29 -49 40 -11 12 -31 22 -50 23 -18 1 -57 2 -85 3z"/>
</g>
<g>
<path d="M5270 6286 c-21 10 -32 9 -68 -7 -33 -16 -42 -25 -42 -45 0 -14 4
-34 10 -44 5 -10 25 -27 44 -38 19 -11 68 -32 108 -47 40 -14 77 -30 83 -34 5
-4 37 -13 70 -20 33 -7 70 -19 82 -27 12 -7 52 -21 90 -30 37 -9 80 -23 96
-31 15 -7 50 -18 77 -23 28 -5 74 -21 104 -35 29 -14 56 -25 59 -25 3 0 28
-14 54 -32 26 -17 56 -39 65 -49 10 -9 27 -24 38 -32 l21 -15 -28 -52 c-15
-29 -38 -62 -50 -74 -13 -11 -23 -24 -23 -29 0 -4 -13 -26 -30 -49 -16 -22
-30 -49 -30 -60 0 -10 12 -32 27 -48 17 -20 36 -30 54 -30 19 0 40 12 64 35
19 20 35 44 35 53 0 10 14 40 31 67 17 27 37 54 44 60 6 5 26 30 43 55 26 39
29 50 24 90 -6 37 -13 48 -41 65 -18 11 -60 45 -93 75 -33 30 -67 57 -76 60
-9 3 -37 15 -62 27 -25 12 -74 33 -110 47 -36 14 -73 26 -82 26 -9 0 -38 9
-65 21 -26 11 -65 23 -86 25 -21 3 -87 23 -145 45 -59 22 -118 45 -132 51 -14
5 -50 21 -80 35 -30 14 -66 32 -80 39z"/>
</g>
<g>
<path d="M4364 5663 c-23 3 -48 1 -55 -4 -8 -5 -32 -9 -53 -9 -26 0 -50 -8
-71 -25 -18 -13 -45 -48 -60 -77 -20 -37 -29 -73 -33 -120 -3 -47 -1 -68 7
-68 6 0 11 -6 11 -13 0 -8 12 -25 28 -38 15 -13 48 -35 72 -49 38 -20 57 -24
122 -23 52 1 85 6 100 17 12 9 32 16 43 16 11 0 35 15 52 33 17 18 36 50 41
70 7 26 7 58 0 103 -5 37 -16 81 -24 99 -8 20 -26 38 -46 47 -18 8 -46 20 -63
26 -16 6 -49 13 -71 15z"/>
</g>
<g>
<path d="M6953 5490 c-25 0 -43 -8 -63 -29 -16 -16 -34 -49 -41 -75 -6 -25
-15 -49 -20 -52 -5 -3 -9 -18 -9 -33 0 -15 -3 -31 -6 -34 -4 -3 -19 -41 -34
-84 -15 -43 -33 -94 -40 -113 -7 -19 -20 -53 -28 -75 -8 -22 -26 -65 -40 -95
-13 -30 -48 -105 -78 -165 -30 -61 -54 -118 -54 -127 0 -8 -7 -21 -15 -28 -8
-7 -15 -18 -15 -24 0 -7 -13 -33 -30 -59 -16 -26 -30 -53 -30 -59 0 -6 -11
-25 -24 -42 -13 -17 -26 -41 -30 -53 -4 -11 -13 -24 -21 -27 -8 -3 -15 -12
-15 -19 0 -8 -7 -29 -16 -48 -9 -19 -24 -43 -34 -54 -9 -11 -27 -38 -39 -59
-17 -30 -21 -48 -16 -75 4 -20 11 -42 17 -48 6 -7 28 -13 49 -13 22 0 39 4 39
10 0 5 11 12 24 16 13 3 29 17 35 30 6 14 11 37 11 51 0 15 14 51 31 82 18 31
37 59 44 63 7 4 16 23 19 42 4 19 13 39 21 46 8 6 19 27 25 46 7 19 29 66 51
105 21 40 39 73 39 75 0 3 23 52 50 110 28 58 50 109 50 112 0 4 6 19 14 33 7
15 24 58 36 95 13 38 26 74 30 79 4 6 17 41 29 78 12 38 32 85 45 105 12 21
38 69 56 107 18 39 37 92 41 120 7 39 5 53 -8 67 -9 11 -30 18 -50 18z"/>
</g>
<g>
<path d="M15908 5355 c-7 2 -25 -2 -40 -11 -16 -8 -28 -21 -28 -29 0 -9 -5
-23 -11 -34 -7 -11 -9 -32 -5 -56 4 -22 20 -51 37 -67 26 -27 34 -29 72 -23
23 3 49 9 58 11 9 3 19 19 23 36 3 17 6 47 6 68 0 31 -7 44 -35 69 -20 17 -42
31 -50 31 -7 0 -19 2 -27 5z"/>
</g>
<g>
<path d="M13646 4940 c-12 0 -37 -11 -56 -25 -18 -13 -37 -26 -42 -27 -4 -2
-11 -26 -14 -54 -6 -46 -4 -54 22 -82 19 -20 47 -36 78 -44 47 -12 48 -12 72
15 20 24 24 39 24 94 0 60 -2 67 -31 94 -17 16 -41 29 -53 29z"/>
</g>
<g>
<path d="M15037 4600 c-24 0 -47 -3 -50 -7 -4 -3 -7 -23 -7 -44 0 -20 11 -70
25 -112 14 -41 37 -128 50 -193 14 -66 34 -157 44 -204 11 -47 24 -110 30
-140 6 -30 13 -70 16 -88 2 -18 9 -40 15 -47 7 -8 9 -19 5 -25 -4 -7 -34 -9
-88 -4 -45 3 -92 10 -105 15 -13 5 -39 9 -58 9 -21 0 -42 -8 -54 -20 -15 -15
-19 -28 -14 -48 3 -15 17 -37 31 -48 16 -14 39 -22 62 -22 20 1 81 -4 136 -10
55 -6 111 -13 125 -16 14 -3 39 -9 57 -12 25 -5 33 -2 43 15 6 12 14 44 17 71
3 28 1 55 -4 62 -6 7 -22 54 -36 103 -14 50 -33 126 -43 170 -10 44 -18 87
-16 95 1 8 -2 24 -7 35 -5 11 -16 45 -25 76 -9 31 -16 74 -16 97 0 23 -4 51
-9 64 -5 13 -18 61 -28 108 -10 47 -26 93 -35 102 -12 12 -33 18 -61 18z"/>
</g>
<g>
<path d="M15720 3111 c-8 3 -34 2 -57 -2 -22 -4 -63 -16 -90 -27 -26 -10 -64
-25 -83 -31 -19 -7 -50 -16 -68 -21 -18 -4 -42 -15 -55 -22 -12 -8 -40 -18
-62 -22 -22 -4 -45 -12 -52 -18 -7 -5 -27 -14 -45 -18 -18 -5 -91 -26 -163
-48 -71 -21 -159 -44 -195 -50 -36 -7 -96 -17 -135 -23 -38 -6 -79 -16 -90
-22 -11 -6 -24 -10 -29 -9 -4 2 -25 -3 -45 -10 -20 -6 -40 -12 -46 -13 -5 -1
-17 -4 -25 -7 -8 -3 -58 -11 -110 -17 -77 -8 -98 -14 -112 -32 -10 -12 -18
-35 -18 -53 1 -17 6 -40 13 -51 7 -12 25 -22 43 -23 17 -2 48 3 70 11 21 8 48
18 59 22 11 4 36 9 55 11 19 2 54 10 77 19 23 9 106 29 185 46 79 16 148 31
153 32 6 1 15 6 21 9 6 4 28 11 50 17 21 5 71 19 109 31 39 12 88 26 110 32
22 6 54 17 70 23 17 7 48 16 69 20 21 3 50 13 63 22 13 9 26 13 29 10 3 -3 23
3 45 14 21 12 64 27 96 35 32 9 87 20 123 25 36 6 73 18 83 26 9 9 17 30 17
47 0 21 -7 36 -22 46 -13 8 -30 18 -38 21z"/>
</g>
</g>
</svg>
