<?xml version="1.0" standalone="no"?>
<!DOCTYPE svg PUBLIC "-//W3C//DTD SVG 20010904//EN"
 "http://www.w3.org/TR/2001/REC-SVG-20010904/DTD/svg10.dtd">
<svg version="1.0" xmlns="http://www.w3.org/2000/svg"
 width="839.000000pt" height="839.000000pt" viewBox="0 0 839.000000 839.000000"
 preserveAspectRatio="xMidYMid meet">
<metadata>
Created by potrace 1.16, written by Peter Selinger 2001-2019
</metadata>
<g transform="translate(0.000000,839.000000) scale(0.100000,-0.100000)"
fill="#000000" stroke="none">
<g>
<path d="M6308 7784 c-5 7 -8 8 -8 0 0 -7 -58 -10 -172 -10 -95 0 -231 -3
-303 -8 -71 -5 -150 -10 -175 -11 -25 -1 -52 -5 -60 -8 -8 -3 -28 -9 -45 -13
-16 -4 -34 -8 -40 -9 -5 0 -14 -3 -20 -7 -5 -3 -26 -9 -45 -13 -19 -4 -39 -11
-45 -15 -5 -4 -30 -11 -55 -16 -25 -4 -53 -8 -63 -9 -11 -1 -22 -6 -25 -11 -4
-5 -20 -11 -37 -13 -16 -1 -46 -11 -65 -21 -19 -9 -74 -29 -123 -44 -48 -15
-96 -28 -106 -29 -11 0 -19 -6 -18 -11 1 -5 -16 -14 -38 -18 -22 -5 -60 -12
-84 -17 -23 -4 -46 -12 -50 -17 -3 -5 -18 -15 -33 -23 -16 -8 -31 -11 -34 -8
-4 4 -19 0 -33 -8 -14 -8 -48 -23 -75 -34 -27 -12 -52 -21 -57 -21 -5 0 -50
-20 -100 -45 -51 -25 -97 -45 -104 -45 -7 0 -15 -6 -18 -14 -3 -8 -19 -17 -35
-21 -17 -3 -33 -13 -36 -21 -3 -8 -19 -14 -36 -14 -16 0 -30 -4 -30 -8 0 -5
-21 -23 -46 -41 -26 -18 -60 -34 -76 -36 -16 -2 -40 -15 -53 -29 -13 -14 -28
-26 -32 -27 -4 0 -16 -2 -25 -4 -10 -2 -43 10 -75 26 -31 16 -62 29 -69 29 -6
0 -25 7 -40 15 -16 8 -39 15 -50 15 -12 0 -35 7 -50 15 -16 8 -37 15 -48 15
-10 0 -41 7 -70 16 -28 10 -64 24 -81 33 -16 8 -50 18 -75 22 -25 4 -52 9 -60
12 -8 2 -28 7 -45 11 -16 4 -42 12 -57 18 -16 6 -28 14 -28 19 0 5 -11 9 -24
9 -14 0 -27 4 -30 9 -3 5 -27 12 -53 16 -27 4 -51 12 -55 17 -3 6 -22 12 -42
13 -20 1 -39 5 -42 8 -3 3 -12 3 -18 1 -7 -3 -37 4 -66 16 -29 11 -82 23 -118
26 -37 3 -71 8 -76 12 -6 3 -17 7 -26 9 -8 1 -50 6 -93 12 -42 6 -83 14 -90
18 -6 4 -68 8 -137 9 -69 0 -127 -3 -130 -7 -3 -4 -32 -10 -65 -13 -33 -3 -67
-7 -75 -9 -8 -2 -27 -9 -42 -15 -14 -6 -29 -16 -33 -21 -3 -6 -21 -11 -40 -11
-19 0 -37 -4 -40 -10 -3 -5 -17 -10 -31 -10 -13 0 -24 -4 -24 -10 0 -5 -14
-10 -30 -10 -17 0 -33 -6 -36 -14 -3 -8 -17 -18 -32 -22 -15 -4 -35 -8 -45
-10 -10 -1 -25 -11 -34 -24 -9 -13 -22 -20 -34 -17 -10 3 -20 -1 -23 -8 -2 -7
-26 -23 -53 -36 -26 -13 -56 -33 -66 -46 -10 -13 -27 -23 -37 -23 -10 0 -27
-10 -37 -22 -10 -13 -30 -29 -45 -37 -15 -8 -67 -51 -115 -97 -48 -46 -94 -84
-100 -84 -7 0 -13 -6 -13 -13 0 -7 -27 -41 -60 -76 -33 -34 -58 -67 -54 -72 3
-5 0 -8 -6 -7 -7 2 -17 -5 -23 -16 -7 -10 -22 -29 -34 -42 -13 -13 -23 -32
-23 -43 0 -12 -9 -26 -20 -33 -11 -7 -20 -18 -20 -24 0 -6 -7 -17 -15 -24 -8
-7 -13 -15 -10 -19 2 -4 -5 -15 -16 -24 -10 -9 -19 -27 -19 -39 0 -12 -9 -31
-20 -42 -10 -12 -20 -38 -22 -59 -1 -21 -6 -41 -10 -43 -4 -3 -8 -16 -8 -29 0
-12 -6 -25 -14 -28 -9 -4 -16 -33 -21 -91 -4 -47 -11 -89 -17 -92 -6 -4 -8
-56 -4 -143 4 -75 8 -147 11 -161 2 -14 7 -56 10 -95 3 -38 7 -81 9 -95 2 -14
7 -47 12 -75 4 -27 13 -63 21 -78 8 -16 12 -35 10 -42 -3 -7 3 -26 13 -42 10
-16 21 -50 26 -74 4 -24 8 -46 9 -49 1 -3 5 -18 10 -35 4 -16 17 -46 27 -66
10 -20 20 -46 23 -58 2 -11 7 -26 11 -33 4 -7 9 -24 10 -37 2 -14 10 -31 19
-37 8 -6 15 -23 15 -36 0 -14 10 -50 23 -79 13 -30 31 -81 41 -114 10 -33 29
-89 43 -125 14 -36 34 -85 45 -109 11 -25 22 -61 25 -80 3 -20 14 -55 25 -78
11 -24 21 -49 22 -55 1 -7 9 -29 18 -48 8 -19 16 -45 16 -57 0 -13 -4 -23 -9
-23 -6 0 -8 -4 -5 -9 3 -4 -1 -17 -9 -27 -8 -10 -15 -26 -15 -34 0 -9 -9 -33
-20 -55 -11 -21 -23 -41 -27 -44 -5 -3 -16 -22 -25 -41 -10 -19 -22 -42 -27
-50 -5 -8 -27 -53 -49 -100 -22 -47 -50 -110 -61 -140 -12 -30 -26 -64 -31
-75 -5 -11 -18 -54 -30 -95 -12 -41 -25 -84 -30 -95 -5 -11 -17 -49 -26 -85
-9 -36 -18 -78 -21 -95 -3 -16 -10 -39 -15 -49 -6 -11 -14 -52 -19 -90 -5 -39
-13 -123 -20 -186 -6 -63 -13 -126 -15 -140 -2 -14 -5 -42 -7 -62 -2 -20 -9
-50 -15 -65 -6 -15 -18 -75 -26 -133 -8 -58 -20 -145 -25 -195 -6 -49 -9 -110
-6 -135 2 -25 6 -56 9 -70 3 -14 9 -38 13 -55 4 -16 7 -34 7 -40 1 -5 9 -44
19 -85 10 -41 22 -84 26 -95 5 -11 20 -47 34 -80 14 -33 33 -80 42 -105 9 -25
23 -52 30 -60 7 -8 20 -32 28 -52 9 -21 24 -47 35 -58 10 -11 28 -38 38 -60
10 -22 22 -40 26 -40 3 0 22 -23 42 -50 20 -28 34 -55 31 -60 -3 -6 5 -15 19
-22 14 -6 26 -15 26 -20 0 -5 6 -16 14 -24 8 -8 21 -14 30 -14 8 0 19 -6 23
-13 4 -8 24 -22 43 -33 19 -10 38 -23 41 -27 3 -5 12 -9 20 -10 8 -2 31 -13
50 -25 20 -12 41 -22 48 -22 6 0 11 -8 11 -17 0 -9 3 -13 6 -10 4 4 22 -6 39
-21 18 -15 46 -37 62 -49 15 -13 33 -23 40 -23 6 0 18 -6 25 -14 8 -7 36 -23
62 -35 27 -11 53 -21 57 -21 5 0 28 -14 51 -30 22 -17 46 -30 53 -30 6 0 22
-11 35 -25 13 -14 27 -25 32 -25 5 0 28 -9 50 -20 23 -11 48 -20 55 -20 7 0
13 -5 13 -10 0 -6 3 -9 8 -8 4 1 22 -2 41 -6 18 -5 49 -17 67 -28 19 -11 34
-24 34 -30 0 -5 5 -6 10 -3 6 4 16 2 23 -3 7 -5 26 -10 42 -10 17 -1 41 -4 55
-8 14 -3 41 -8 60 -10 19 -3 64 -6 100 -8 36 -3 91 -10 123 -16 34 -6 128 -10
227 -8 94 2 170 6 170 9 0 4 17 9 38 12 20 3 62 11 92 17 30 6 71 13 91 15 20
1 47 10 60 18 13 8 41 15 62 15 20 1 46 6 56 11 10 6 44 14 75 17 31 4 61 13
67 20 6 8 17 14 24 14 7 0 37 10 66 21 30 12 70 28 89 37 19 8 41 15 48 15 6
0 12 4 12 9 0 4 8 8 19 8 10 0 24 6 30 14 7 8 24 17 39 21 15 3 37 16 49 27
13 12 26 19 29 15 4 -4 19 2 33 12 15 11 51 31 81 46 30 14 69 34 85 43 17 10
46 24 65 32 19 7 47 22 62 32 14 10 33 18 41 18 8 0 26 11 41 25 15 14 32 25
37 25 6 0 29 15 52 33 23 18 78 49 122 68 44 18 87 32 95 31 8 -2 22 -13 31
-24 10 -13 23 -19 32 -15 9 3 21 -1 27 -9 7 -8 28 -14 46 -14 19 0 34 -5 34
-11 0 -6 7 -9 15 -5 8 3 15 1 15 -4 0 -6 8 -10 18 -10 10 0 63 -15 118 -34 54
-18 139 -46 188 -62 48 -15 94 -34 102 -42 8 -7 14 -10 14 -6 0 5 5 3 12 -4 7
-7 20 -12 29 -12 9 0 22 -7 29 -15 7 -8 28 -18 48 -21 20 -4 43 -13 50 -21 7
-7 29 -13 48 -13 19 0 34 -4 34 -10 0 -5 18 -15 40 -21 28 -9 54 -28 85 -64
24 -29 41 -56 37 -60 -4 -3 -2 -6 3 -4 6 1 24 -1 40 -6 17 -4 41 -14 55 -21
14 -7 68 -20 120 -28 52 -8 144 -18 204 -22 60 -3 121 -11 135 -17 15 -6 88
-11 173 -12 82 0 148 3 148 8 0 4 8 7 18 7 9 0 49 7 87 16 39 9 87 25 108 36
20 10 37 16 37 12 0 -4 10 2 23 14 12 12 47 29 77 39 30 9 57 19 60 23 3 3 32
23 65 45 33 22 64 42 69 44 5 2 17 11 28 20 10 9 20 14 21 11 1 -3 9 1 17 7 8
7 29 24 46 38 18 14 37 25 43 25 6 0 11 3 11 8 0 4 14 21 30 37 17 17 40 40
52 52 12 13 25 23 30 23 4 0 17 9 28 20 11 11 17 20 14 20 -4 0 11 12 32 26
21 15 43 34 48 43 6 9 33 39 60 68 28 28 79 83 114 121 34 39 62 73 62 77 0 3
18 33 40 65 22 32 40 63 40 67 0 5 11 20 24 35 14 14 22 28 19 31 -3 3 4 19
16 35 12 17 21 37 21 45 0 8 11 48 24 90 13 42 28 82 32 89 5 7 9 18 10 23 1
6 9 41 18 80 12 50 16 114 16 230 0 88 -5 180 -10 205 -6 25 -14 68 -19 97 -6
29 -15 61 -20 72 -6 11 -11 28 -11 39 0 10 -6 32 -14 48 -8 16 -24 79 -36 139
-13 61 -35 148 -50 195 -15 47 -36 103 -46 125 -10 22 -26 49 -35 60 -9 11
-24 40 -33 65 -10 25 -30 65 -45 90 -15 25 -38 65 -51 90 -12 25 -31 54 -40
65 -10 11 -27 38 -38 61 -11 22 -28 46 -36 53 -9 8 -16 18 -16 23 0 5 -19 33
-43 61 -24 29 -53 68 -65 87 -11 19 -35 49 -52 65 -18 17 -41 42 -51 57 l-19
27 36 88 c20 48 42 95 49 103 7 8 18 34 25 58 6 24 19 51 29 61 10 10 22 36
26 57 4 22 10 44 15 49 4 6 15 35 25 65 10 30 21 60 25 65 4 6 17 44 30 85 13
41 27 79 32 84 4 6 8 18 8 28 0 10 8 37 19 61 10 23 28 72 40 108 11 37 21 74
21 84 0 9 6 29 14 43 8 15 24 65 35 112 12 47 24 98 27 114 3 16 10 38 16 50
6 11 19 57 29 102 10 45 18 100 17 121 0 21 5 51 11 66 6 16 11 43 11 62 0 19
7 67 16 107 11 52 16 123 15 246 0 118 -4 178 -12 188 -6 8 -9 27 -6 44 4 16
2 56 -4 87 -5 32 -17 72 -25 90 -7 17 -14 39 -14 50 0 10 -7 31 -15 47 -8 15
-15 34 -15 41 0 8 -15 43 -34 79 -19 36 -37 80 -41 98 -4 18 -27 63 -51 100
-24 37 -44 72 -44 77 0 6 -10 30 -22 53 -12 24 -25 45 -28 48 -4 3 -20 30 -36
60 -15 30 -40 71 -54 90 -14 19 -41 52 -60 74 -19 21 -34 43 -32 48 1 5 -1 7
-6 4 -5 -3 -26 13 -48 35 -21 22 -65 58 -96 80 -32 21 -61 39 -64 39 -4 0 -22
11 -40 25 -18 14 -36 25 -41 25 -5 0 -25 9 -46 20 -20 11 -37 18 -37 15 0 -3
-29 11 -63 29 -35 19 -91 44 -125 55 -34 12 -68 21 -77 21 -8 0 -15 5 -15 10
0 6 -11 10 -24 10 -14 0 -28 5 -31 11 -4 6 -13 8 -21 5 -8 -3 -14 -2 -14 2 0
4 -10 8 -22 9 -13 1 -43 6 -68 11 -25 6 -63 14 -85 18 -22 4 -43 12 -47 18z
m-358 -190 c30 -2 126 -4 213 -5 140 -1 163 -3 193 -21 22 -13 43 -18 58 -14
14 3 36 2 51 -4 14 -5 39 -12 54 -15 16 -3 41 -12 57 -20 16 -8 34 -15 40 -15
6 0 25 -7 42 -16 18 -8 36 -13 42 -9 5 3 20 -1 32 -9 12 -9 30 -16 39 -16 9 0
22 -7 29 -15 7 -8 18 -15 25 -15 7 0 34 -12 59 -27 26 -16 55 -33 64 -38 9 -6
37 -24 62 -40 25 -17 50 -35 55 -41 6 -6 27 -23 48 -39 20 -15 37 -32 37 -37
0 -6 12 -22 28 -37 15 -15 41 -44 59 -64 17 -20 40 -53 50 -74 9 -21 21 -42
25 -48 5 -5 33 -59 64 -120 31 -60 64 -123 74 -140 10 -16 26 -50 35 -75 9
-25 20 -54 25 -65 4 -11 17 -44 29 -74 12 -29 21 -64 21 -77 0 -13 5 -24 10
-24 6 0 10 -11 10 -24 0 -14 4 -36 10 -51 5 -14 10 -107 10 -208 1 -100 -3
-234 -9 -297 -6 -63 -13 -137 -16 -165 -3 -27 -10 -61 -15 -75 -5 -14 -11 -51
-15 -82 -4 -32 -11 -60 -16 -63 -5 -4 -9 -17 -9 -30 0 -13 -4 -26 -9 -30 -6
-3 -10 -13 -10 -23 0 -9 -5 -39 -11 -67 -7 -27 -16 -55 -21 -61 -5 -6 -12 -33
-15 -59 -3 -27 -12 -58 -20 -69 -8 -11 -14 -30 -14 -41 0 -11 -7 -40 -16 -65
-9 -25 -19 -49 -23 -55 -5 -5 -12 -23 -16 -40 -5 -16 -9 -36 -11 -43 -1 -7 -9
-24 -18 -37 -8 -13 -18 -34 -20 -47 -3 -12 -13 -45 -22 -71 -9 -27 -22 -51
-28 -53 -7 -3 -10 -19 -8 -39 3 -21 0 -35 -7 -35 -6 0 -11 -10 -11 -22 0 -13
-11 -45 -25 -73 -13 -27 -25 -56 -25 -63 0 -8 -17 -48 -37 -90 -20 -42 -40
-78 -45 -80 -4 -2 -8 -12 -8 -22 0 -9 -7 -24 -16 -31 -14 -12 -19 -9 -39 16
-13 17 -29 35 -35 40 -6 6 -32 30 -57 55 -24 25 -66 68 -92 95 -27 28 -58 63
-70 80 -12 16 -44 54 -71 85 -28 30 -68 77 -91 104 -23 27 -46 60 -52 74 -6
13 -27 40 -46 60 -20 20 -46 51 -58 67 -12 17 -37 50 -55 74 -18 24 -44 59
-58 77 -14 17 -53 57 -86 88 -34 31 -67 56 -73 56 -6 0 -11 6 -11 13 0 8 -17
34 -37 58 -21 24 -82 89 -135 144 -54 56 -98 104 -98 108 0 4 -8 15 -17 26
-10 10 -61 65 -113 122 -52 57 -110 117 -129 134 -19 16 -63 56 -99 88 -35 31
-70 57 -77 57 -8 0 -16 9 -20 19 -3 11 -27 36 -53 57 -26 21 -74 62 -107 91
-33 29 -76 66 -95 82 -19 17 -40 31 -46 31 -7 0 -14 7 -18 15 -3 8 -11 15 -18
15 -7 1 -29 14 -48 30 -19 17 -38 30 -44 30 -5 0 -30 19 -56 43 -25 23 -57 51
-71 62 -13 11 -31 20 -39 22 -8 1 -22 11 -32 22 -9 12 -19 21 -23 21 -4 0 -23
12 -41 28 -19 15 -71 60 -117 101 -45 40 -98 81 -118 92 -20 10 -39 25 -42 33
-4 9 -21 22 -40 30 -19 7 -41 23 -49 34 -8 12 -27 26 -42 32 -16 6 -26 13 -23
17 4 3 -8 14 -26 24 -17 9 -47 24 -66 33 -18 9 -47 29 -64 46 -17 16 -38 30
-48 30 -9 0 -22 6 -28 13 -8 10 -4 20 17 40 15 14 39 29 54 32 14 4 35 15 47
26 11 10 26 19 33 20 7 0 31 11 53 24 22 13 68 37 102 54 35 17 75 31 90 33
16 2 34 9 41 16 7 6 24 12 36 12 13 0 31 9 41 20 10 11 27 20 37 20 10 0 33 7
50 16 18 9 60 25 95 35 35 9 63 15 63 11 0 -4 5 1 11 11 5 9 19 17 29 17 10 0
22 5 25 10 4 6 10 8 15 5 5 -3 27 4 50 16 23 12 49 22 58 23 9 1 35 11 57 22
22 12 58 24 80 28 22 4 49 13 60 20 11 7 38 16 60 19 22 4 49 9 60 11 11 3 43
10 70 15 28 5 70 15 95 21 25 7 64 14 86 16 23 2 54 9 70 15 16 6 67 15 114
19 47 5 110 6 140 4z m-3703 -265 c1 1 12 -3 25 -8 13 -5 68 -11 123 -15 55
-3 130 -10 167 -15 36 -5 71 -11 76 -15 5 -3 51 -14 103 -25 52 -11 114 -23
139 -26 25 -4 59 -13 75 -20 17 -7 71 -24 120 -38 50 -14 115 -35 145 -46 30
-12 67 -21 81 -21 15 0 32 -6 39 -14 7 -9 24 -13 43 -11 17 2 35 -1 38 -7 4
-7 20 -13 36 -16 15 -2 32 -7 38 -13 5 -5 21 -9 35 -9 14 0 30 -4 35 -8 6 -4
28 -14 50 -21 22 -8 51 -21 64 -29 21 -14 21 -17 7 -27 -9 -7 -13 -15 -9 -18
3 -4 1 -8 -5 -8 -7 -1 -16 -2 -21 -3 -6 0 -16 -7 -22 -13 -7 -7 -19 -13 -26
-13 -7 0 -13 -4 -13 -9 0 -5 -17 -18 -37 -29 -21 -11 -37 -25 -36 -31 2 -6 -4
-11 -12 -11 -8 0 -29 -13 -47 -28 -18 -16 -41 -31 -50 -35 -10 -4 -18 -10 -18
-15 0 -5 -13 -15 -30 -22 -16 -7 -32 -21 -35 -31 -3 -10 -26 -32 -51 -49 -25
-16 -48 -30 -52 -30 -4 0 -21 -16 -37 -35 -17 -19 -35 -35 -41 -35 -6 0 -32
-20 -58 -45 -27 -25 -52 -45 -56 -45 -4 0 -38 -28 -74 -62 -36 -35 -86 -80
-109 -102 -24 -21 -54 -44 -66 -50 -12 -7 -19 -15 -15 -18 3 -4 -11 -22 -32
-40 -21 -18 -58 -55 -83 -82 -26 -27 -56 -59 -69 -72 -13 -14 -34 -32 -48 -40
-13 -9 -24 -22 -24 -30 0 -7 -6 -17 -13 -21 -7 -4 -27 -27 -46 -50 -18 -24
-39 -43 -47 -43 -8 0 -14 -5 -14 -11 0 -6 -12 -23 -27 -39 -16 -15 -35 -36
-45 -46 -9 -11 -36 -37 -60 -60 -23 -23 -59 -63 -77 -90 -19 -27 -43 -56 -53
-65 -10 -9 -18 -21 -18 -27 0 -6 -9 -13 -19 -17 -11 -3 -23 -15 -26 -26 -4
-10 -11 -17 -16 -14 -5 4 -9 1 -9 -4 0 -6 -1 -14 -1 -18 -1 -5 -28 -34 -60
-65 -33 -31 -59 -61 -59 -67 0 -6 -15 -25 -32 -44 -18 -18 -60 -64 -93 -102
-33 -37 -66 -74 -72 -81 -7 -7 -13 -15 -13 -17 0 -2 -19 -25 -42 -50 -24 -25
-61 -66 -83 -92 -22 -26 -39 -51 -37 -57 1 -5 -1 -7 -6 -4 -4 2 -24 -19 -42
-47 -19 -29 -45 -72 -58 -97 -13 -25 -31 -52 -40 -60 -10 -9 -18 -21 -19 -27
-1 -6 -14 -28 -28 -49 -14 -20 -25 -41 -25 -47 0 -6 -10 -21 -22 -34 l-21 -23
-22 63 c-12 34 -32 83 -44 109 -11 26 -21 52 -21 59 0 7 -8 37 -17 68 -10 31
-20 58 -23 61 -4 3 -14 24 -23 48 -9 23 -17 51 -17 61 0 10 -9 26 -20 36 -11
10 -20 24 -20 31 0 7 -6 28 -14 46 -8 18 -22 60 -32 93 -10 33 -19 65 -21 70
-1 6 -9 33 -18 60 -9 28 -27 84 -41 125 -13 42 -24 88 -24 103 0 15 -4 27 -9
27 -5 0 -13 15 -17 33 -4 17 -6 45 -6 62 0 16 -3 34 -7 40 -5 5 -11 53 -14
105 -3 52 -9 106 -12 120 -3 14 -6 82 -7 152 -1 118 2 134 31 220 18 51 39
107 47 123 7 17 18 49 24 72 6 23 17 46 24 50 7 4 20 22 29 38 8 17 43 60 77
95 35 36 67 77 72 92 5 15 18 30 29 33 10 3 27 17 38 31 10 13 24 24 30 24 6
0 11 4 11 10 0 5 33 41 73 80 39 38 80 73 90 76 9 3 17 10 17 15 0 5 6 9 13 9
6 0 32 21 57 47 25 26 47 46 50 45 3 0 12 5 20 12 8 7 67 38 130 69 63 32 123
57 132 57 9 0 36 8 60 18 24 11 60 22 82 26 21 4 46 11 55 16 9 5 41 14 71 19
30 5 71 14 90 19 19 6 36 10 37 11z m1657 -465 c17 -3 49 -19 71 -35 22 -16
64 -40 93 -54 30 -13 75 -43 102 -65 26 -22 51 -40 55 -40 3 0 21 -10 38 -23
18 -13 77 -57 132 -97 55 -41 123 -96 152 -122 28 -27 56 -48 62 -48 6 0 34
-20 63 -45 29 -25 62 -54 73 -64 11 -10 34 -26 51 -34 17 -9 45 -31 61 -50 17
-19 41 -38 54 -42 13 -4 35 -17 49 -30 14 -12 52 -42 85 -65 33 -24 92 -71
130 -105 39 -34 84 -71 100 -84 17 -13 54 -44 84 -69 30 -26 76 -67 104 -92
27 -25 75 -70 106 -101 31 -31 67 -69 81 -85 14 -16 35 -42 47 -59 11 -16 69
-79 128 -140 59 -60 119 -125 132 -142 14 -18 32 -33 39 -33 8 0 14 -3 14 -7
0 -5 10 -21 23 -36 12 -16 50 -58 85 -95 34 -36 62 -69 62 -74 0 -4 6 -8 13
-9 6 0 37 -29 67 -65 30 -36 57 -71 59 -77 2 -7 24 -36 48 -65 23 -30 43 -58
43 -62 0 -5 25 -34 55 -65 30 -31 55 -62 55 -68 0 -7 33 -46 74 -85 41 -40 82
-89 91 -109 10 -21 29 -40 46 -46 16 -6 32 -21 35 -32 4 -11 20 -35 38 -54 17
-18 45 -47 61 -65 17 -17 52 -54 78 -82 43 -47 45 -52 33 -75 -7 -13 -22 -40
-33 -59 -11 -19 -34 -57 -52 -84 -17 -28 -31 -56 -31 -63 0 -8 -16 -36 -35
-64 -19 -28 -35 -56 -35 -63 0 -6 -20 -36 -45 -66 -25 -30 -51 -70 -57 -87 -7
-18 -16 -33 -20 -33 -4 0 -8 -5 -8 -12 0 -7 -10 -22 -23 -33 -12 -11 -31 -33
-42 -49 -11 -16 -27 -39 -35 -51 -8 -12 -29 -40 -45 -62 -17 -22 -48 -61 -70
-87 -22 -27 -64 -77 -93 -112 -30 -35 -62 -66 -73 -69 -10 -4 -19 -12 -19 -18
0 -7 -23 -34 -51 -62 -28 -27 -65 -65 -82 -83 -18 -18 -49 -51 -69 -73 -21
-23 -38 -46 -38 -52 0 -7 -15 -28 -33 -47 -18 -19 -52 -50 -75 -68 -23 -19
-47 -30 -53 -26 -9 5 -10 -3 -6 -32 4 -21 9 -50 12 -64 5 -20 -4 -35 -43 -75
-27 -27 -78 -77 -113 -111 -35 -33 -96 -87 -134 -120 -39 -32 -73 -64 -77 -70
-4 -6 -58 -49 -120 -95 -62 -45 -120 -89 -128 -96 -8 -7 -28 -24 -45 -37 -16
-13 -57 -41 -90 -62 -33 -21 -69 -44 -80 -51 -11 -7 -27 -15 -35 -19 -8 -4
-29 -18 -46 -31 -17 -13 -36 -23 -42 -23 -6 0 -23 -11 -39 -24 -15 -12 -59
-38 -98 -56 -38 -18 -72 -36 -75 -39 -3 -4 -37 -26 -76 -49 -38 -23 -75 -42
-81 -42 -6 0 -39 14 -72 31 -34 18 -64 29 -67 26 -4 -3 -15 2 -25 12 -11 10
-32 24 -47 32 -15 8 -31 17 -37 21 -5 4 -24 19 -41 33 -18 14 -36 25 -40 25
-5 0 -23 13 -41 28 -18 15 -68 56 -112 92 -44 36 -80 71 -81 78 0 6 -4 12 -10
12 -5 0 -40 23 -77 51 -37 28 -75 54 -83 57 -8 3 -29 17 -46 31 -17 14 -44 35
-60 46 -16 11 -39 30 -52 43 -13 12 -37 28 -55 36 -18 7 -52 30 -75 50 -24 20
-48 36 -53 36 -5 0 -30 16 -56 36 -27 19 -56 42 -66 50 -9 8 -22 14 -28 14 -6
0 -30 14 -55 31 -24 16 -54 40 -67 52 -12 13 -53 49 -92 81 -38 32 -74 64 -80
70 -5 6 -21 19 -35 29 -14 10 -43 31 -65 48 -22 16 -64 46 -92 66 -29 20 -53
42 -53 50 0 8 -5 11 -10 8 -6 -4 -27 9 -47 29 -21 20 -52 43 -70 51 -18 9 -33
19 -33 23 0 4 -12 15 -27 24 -16 10 -41 28 -57 43 -16 14 -33 25 -37 25 -5 0
-25 16 -44 35 -20 19 -54 44 -75 56 -22 13 -52 40 -66 61 -15 21 -31 38 -36
38 -5 0 -39 24 -76 53 -37 30 -115 103 -174 163 -59 60 -123 129 -143 154 -20
25 -42 53 -50 62 -7 9 -19 27 -26 39 -7 13 -29 45 -50 72 -22 27 -46 64 -55
83 -9 19 -25 39 -35 44 -10 6 -16 16 -13 23 2 7 -6 23 -19 36 -14 12 -33 42
-43 67 -10 24 -22 44 -26 44 -4 0 -8 6 -8 14 0 7 -11 25 -24 39 -13 14 -28 38
-34 54 -5 15 -14 27 -20 26 -6 -2 -20 9 -31 24 -12 14 -21 31 -21 37 0 7 -9
29 -20 51 -11 22 -20 50 -20 62 0 13 7 26 15 29 9 4 13 13 10 23 -3 9 6 32 20
51 14 19 25 44 25 57 0 12 12 37 28 55 15 18 33 42 40 53 6 11 22 39 34 62 12
23 25 40 30 37 4 -3 8 2 8 10 0 9 5 16 10 16 6 0 10 6 10 13 0 7 16 30 35 51
19 21 37 46 40 57 4 11 16 30 28 43 12 14 45 50 72 81 28 31 76 82 108 113 32
32 70 75 84 97 15 22 38 51 50 65 13 14 35 39 50 56 16 16 53 57 83 90 30 33
69 80 85 104 17 24 66 81 110 126 44 45 98 103 120 129 22 26 60 65 84 88 25
23 61 60 80 81 20 22 74 77 121 123 47 47 84 89 83 94 -2 5 1 9 6 9 5 0 29 19
53 43 25 23 80 74 123 112 43 39 84 74 91 78 8 4 14 15 14 22 0 8 6 15 13 15
8 0 22 9 32 20 10 11 23 20 29 20 6 0 31 21 56 46 25 26 61 54 80 63 19 9 55
30 80 45 25 16 57 42 72 58 14 15 31 28 36 28 6 0 30 17 53 38 24 20 58 52 76
70 19 17 35 32 38 32 2 0 39 21 82 46 43 26 80 51 82 56 1 5 17 6 35 2z
m-2594 -2809 c6 -3 17 -21 26 -38 9 -18 35 -54 58 -81 22 -27 50 -65 61 -86
11 -20 32 -59 47 -86 15 -27 41 -67 57 -89 17 -22 37 -54 44 -71 8 -17 41 -60
74 -95 33 -35 62 -69 64 -76 2 -7 24 -35 49 -64 25 -28 101 -108 170 -178 69
-69 151 -149 184 -176 32 -28 64 -56 72 -62 7 -7 19 -13 27 -13 9 0 27 -13 40
-30 14 -16 30 -30 36 -30 5 0 16 -8 23 -18 7 -10 27 -24 43 -30 17 -7 61 -41
99 -77 39 -35 73 -62 77 -59 4 2 12 -3 19 -11 7 -9 33 -29 57 -45 24 -17 47
-30 50 -30 3 0 25 -18 48 -39 24 -22 40 -43 37 -46 -4 -4 -1 -5 5 -3 7 2 30
-11 50 -29 21 -18 72 -60 113 -94 41 -34 85 -71 97 -83 12 -11 32 -29 43 -38
11 -10 24 -18 29 -18 5 0 18 -10 28 -22 10 -13 43 -34 73 -48 30 -13 71 -39
90 -57 19 -18 37 -33 41 -33 3 0 19 -10 35 -22 15 -12 34 -23 41 -24 8 -1 20
-8 28 -14 8 -7 12 -16 9 -21 -3 -5 3 -9 14 -9 10 0 30 -9 43 -20 13 -12 56
-41 94 -66 39 -26 93 -68 122 -95 28 -27 56 -49 62 -49 6 0 34 -20 63 -45 29
-24 64 -56 78 -70 14 -14 30 -25 36 -25 6 0 23 -14 40 -31 16 -17 54 -50 84
-72 30 -22 57 -44 58 -49 2 -4 8 -6 13 -2 5 3 22 -5 38 -18 15 -13 37 -29 48
-36 11 -8 42 -26 69 -40 27 -15 49 -32 49 -37 0 -6 -13 -17 -30 -25 -16 -8
-43 -25 -60 -36 -16 -12 -46 -29 -65 -38 -19 -9 -53 -26 -75 -37 -22 -12 -48
-26 -59 -31 -10 -5 -35 -19 -55 -30 -20 -12 -56 -32 -81 -45 -25 -13 -52 -27
-60 -32 -8 -5 -28 -14 -45 -21 -16 -7 -41 -19 -55 -27 -14 -8 -45 -23 -70 -34
-25 -11 -58 -27 -75 -34 -16 -7 -56 -25 -88 -39 -32 -14 -63 -26 -70 -26 -7 0
-30 -9 -52 -20 -22 -11 -52 -20 -67 -20 -15 0 -30 -5 -33 -10 -3 -6 -26 -10
-51 -10 -24 0 -44 -4 -44 -8 0 -5 -24 -14 -52 -19 -29 -6 -73 -16 -97 -23 -24
-6 -55 -13 -70 -15 -14 -3 -73 -12 -131 -21 -58 -8 -136 -17 -175 -19 -38 -1
-97 1 -130 7 -33 5 -96 13 -140 18 -44 5 -111 13 -150 19 -38 6 -90 17 -115
24 -25 7 -58 19 -74 26 -16 6 -37 13 -48 14 -10 2 -27 10 -37 19 -10 8 -43 27
-74 41 -32 14 -57 31 -57 36 0 6 -6 11 -14 11 -8 0 -31 9 -53 19 -21 11 -63
31 -93 46 -30 15 -62 33 -71 41 -8 8 -22 14 -31 14 -8 0 -23 9 -34 21 -10 12
-36 30 -56 40 -21 11 -38 23 -38 28 0 5 -25 21 -55 35 -30 15 -66 37 -81 51
-15 14 -31 25 -35 25 -5 0 -29 13 -53 29 -25 15 -64 50 -86 77 -22 27 -40 55
-40 62 0 8 -12 26 -28 42 -15 15 -34 36 -42 46 -8 10 -25 39 -37 64 -12 25
-23 51 -23 58 0 6 -6 12 -13 12 -6 0 -23 24 -37 53 -13 28 -35 81 -48 117 -13
36 -25 74 -28 85 -3 11 -9 29 -14 40 -4 11 -12 38 -18 60 -6 22 -15 58 -21 80
-5 22 -16 64 -24 93 -10 37 -12 65 -5 95 5 23 13 76 19 117 6 41 17 116 25
166 8 50 14 107 14 127 0 19 7 50 15 70 8 19 17 83 20 143 4 60 11 140 16 179
6 38 14 74 19 79 6 6 10 20 10 33 0 13 7 40 15 60 9 20 20 69 26 107 5 39 14
73 19 74 6 2 10 8 10 14 0 5 6 24 14 41 7 18 18 45 25 60 6 15 11 36 11 46 0
10 9 28 20 41 11 13 20 28 20 35 0 7 7 26 16 43 8 18 19 34 25 37 5 4 9 16 9
28 0 12 11 39 25 59 14 20 25 44 25 52 0 8 5 18 10 21 6 3 18 23 29 43 10 20
25 49 33 64 8 15 18 25 21 21 4 -3 7 -1 7 6 0 7 5 9 10 6z m5797 -192 c7 -3
13 -9 13 -15 0 -5 19 -30 43 -54 23 -25 48 -58 56 -72 7 -15 28 -43 45 -62 18
-19 49 -58 69 -86 20 -28 61 -99 92 -159 31 -60 65 -120 76 -133 10 -14 19
-32 19 -42 0 -9 9 -25 20 -35 11 -10 20 -22 20 -27 0 -5 11 -34 25 -65 14 -30
30 -78 36 -106 6 -29 14 -61 20 -72 5 -11 13 -40 19 -65 5 -25 16 -74 24 -110
8 -36 22 -90 30 -120 8 -30 22 -86 30 -125 9 -42 16 -130 17 -220 1 -82 -1
-166 -6 -185 -4 -19 -12 -40 -17 -47 -5 -7 -12 -25 -14 -40 -3 -15 -6 -36 -7
-45 -1 -9 -5 -14 -9 -12 -4 3 -8 -9 -8 -25 0 -17 -4 -31 -10 -31 -5 0 -10 -6
-10 -14 0 -8 -5 -27 -12 -43 -6 -15 -12 -30 -12 -33 -1 -3 -13 -25 -28 -50
-15 -25 -32 -56 -38 -70 -6 -14 -23 -34 -38 -44 -15 -10 -34 -31 -42 -46 -8
-16 -44 -61 -80 -101 -36 -40 -94 -102 -130 -138 -36 -36 -92 -88 -125 -115
-33 -28 -88 -76 -122 -109 -35 -32 -67 -56 -72 -53 -5 3 -12 -1 -15 -9 -3 -9
-27 -25 -53 -36 -26 -11 -50 -24 -53 -28 -3 -5 -23 -17 -45 -28 -22 -10 -49
-24 -60 -30 -11 -5 -36 -17 -55 -25 -19 -9 -48 -21 -65 -28 -16 -7 -37 -15
-45 -17 -8 -2 -28 -5 -45 -8 -16 -2 -56 -8 -87 -14 -53 -10 -59 -10 -79 10
-17 17 -32 20 -97 20 -42 -1 -102 1 -132 4 -30 3 -68 7 -83 9 -15 2 -39 12
-53 21 -14 9 -32 14 -41 11 -8 -3 -20 -3 -26 1 -7 4 -37 9 -67 10 -30 2 -78 7
-106 11 -28 4 -64 16 -78 26 -15 9 -48 28 -73 42 -25 13 -52 24 -58 24 -7 0
-18 7 -25 15 -7 8 -22 14 -34 13 -11 0 -46 9 -76 21 -30 13 -66 24 -79 26 -13
2 -27 7 -30 12 -3 4 -17 13 -31 20 -14 6 -36 15 -50 19 -14 3 -32 13 -42 21
-9 8 -27 16 -40 17 -12 2 -41 7 -63 10 -22 4 -53 12 -70 18 -16 6 -37 17 -46
24 -8 8 -24 15 -35 17 -10 2 -26 6 -34 9 -8 3 -34 11 -58 17 -23 7 -46 10 -51
7 -4 -3 -17 1 -27 9 -10 8 -29 15 -41 15 -12 0 -25 5 -29 11 -3 6 -1 16 5 22
9 9 14 9 20 -1 6 -10 10 -9 14 7 3 11 18 26 34 33 15 7 30 15 33 18 3 4 20 12
38 19 17 8 32 17 32 22 0 5 6 9 13 9 7 0 37 17 67 37 30 20 73 46 95 58 22 11
53 29 68 40 16 11 50 37 77 58 27 20 53 37 58 37 5 0 29 16 53 35 24 19 49 35
56 35 6 0 20 14 30 30 10 17 23 28 30 26 7 -3 33 14 58 37 25 23 65 58 89 77
26 20 47 47 51 63 5 22 12 28 26 24 13 -4 35 10 69 42 28 26 50 52 50 59 0 6
6 12 14 14 8 2 35 21 62 43 26 22 116 109 201 193 84 83 158 152 164 152 6 0
7 5 4 10 -3 6 -2 10 4 10 6 0 35 24 65 53 30 28 69 66 86 82 17 17 71 71 118
121 48 51 96 102 107 115 11 13 32 32 48 42 15 9 27 22 27 28 0 6 20 29 45 52
25 24 45 51 45 62 0 11 -14 38 -32 59 l-31 38 19 35 c10 20 29 42 41 50 13 9
23 22 23 29 0 8 5 14 10 14 6 0 10 4 10 10 0 5 18 33 40 62 22 29 40 58 40 64
0 6 9 19 20 29 11 10 20 24 20 30 0 7 7 18 15 25 8 6 14 15 13 18 -1 4 4 18
12 32 8 14 22 39 31 55 10 17 33 59 51 94 18 34 37 71 42 81 6 10 16 16 23 13z"/>
<g>
<path d="M5933 6545 c-21 3 -45 1 -54 -5 -9 -5 -27 -11 -40 -13 -16 -2 -30
-16 -41 -38 -9 -19 -19 -55 -23 -79 -6 -42 -4 -48 32 -86 21 -23 48 -47 60
-53 12 -6 37 -11 56 -11 19 0 49 3 66 6 23 5 35 15 45 38 7 17 19 48 25 69 10
29 10 42 2 50 -6 6 -11 23 -11 37 0 15 -8 33 -17 41 -10 8 -28 20 -40 26 -12
7 -39 15 -60 18z"/>
</g>
<g>
<path d="M2177 6241 c-41 4 -51 0 -81 -26 -19 -16 -37 -40 -41 -52 -3 -13 -11
-23 -16 -23 -6 0 -7 -5 -4 -10 3 -6 1 -25 -6 -44 -10 -28 -9 -37 4 -57 10 -13
17 -19 17 -14 0 4 11 -1 23 -14 13 -12 41 -30 63 -41 21 -11 58 -20 81 -20 24
0 43 5 43 10 0 6 12 23 26 38 14 15 30 37 35 50 5 13 9 35 9 49 0 14 -8 41
-17 61 -10 21 -22 42 -28 47 -5 6 -21 18 -35 26 -14 9 -47 18 -73 20z"/>
</g>
<g>
<path d="M4036 5510 c-13 0 -25 -2 -27 -5 -3 -2 -22 -7 -42 -9 -20 -3 -44 -9
-54 -15 -10 -5 -35 -23 -57 -40 -21 -17 -36 -31 -32 -31 3 0 -4 -10 -16 -22
-13 -13 -31 -27 -42 -33 -11 -5 -20 -19 -22 -30 -2 -11 -11 -25 -20 -32 -10
-7 -25 -13 -35 -13 -9 0 -28 -17 -41 -38 -14 -20 -29 -48 -33 -62 -4 -14 -18
-39 -31 -56 -12 -17 -26 -44 -30 -60 -4 -16 -12 -35 -18 -43 -6 -8 -10 -17 -8
-20 2 -3 1 -21 -3 -39 -3 -18 -3 -38 2 -45 4 -6 8 -16 10 -22 1 -5 8 -26 15
-45 7 -19 22 -47 32 -63 10 -15 47 -47 83 -72 35 -25 69 -45 75 -45 6 0 19 -7
29 -16 9 -8 34 -17 54 -19 21 -2 42 -8 48 -14 6 -6 28 -11 49 -11 21 0 38 -3
38 -7 0 -5 33 -8 73 -8 39 0 147 -3 240 -6 94 -4 170 -3 173 2 3 5 20 9 38 9
18 0 45 9 59 20 23 18 26 28 25 75 -1 43 -6 59 -24 76 -21 20 -26 21 -56 8
-18 -7 -42 -12 -53 -10 -11 2 -23 8 -27 14 -4 7 -11 7 -22 -2 -11 -9 -32 -12
-61 -9 -25 3 -47 3 -49 -1 -2 -3 -44 -5 -93 -4 -48 1 -106 6 -128 12 -22 5
-54 14 -72 19 -17 6 -34 8 -37 5 -3 -4 -36 2 -73 12 -38 10 -80 28 -95 39 -15
12 -27 26 -27 31 -1 6 -10 16 -22 23 -17 11 -20 20 -14 50 3 20 8 45 11 55 3
9 10 15 15 12 5 -4 9 7 9 24 0 16 5 33 11 37 6 3 20 27 30 52 13 29 45 70 87
109 37 35 72 63 77 63 6 0 27 9 48 20 27 15 58 21 113 22 57 1 81 6 100 20 17
14 24 29 24 52 0 19 -9 45 -21 60 -14 18 -30 26 -52 26 -18 0 -48 -5 -67 -10
-23 -7 -36 -7 -38 0 -2 5 -14 10 -26 10z"/>
</g>
<g>
<path d="M2685 4679 c-11 0 -42 -8 -69 -16 -26 -9 -66 -33 -87 -53 -21 -20
-39 -40 -39 -44 0 -5 -20 -26 -45 -48 -25 -22 -45 -48 -45 -58 0 -10 -7 -25
-15 -34 -8 -8 -15 -24 -15 -36 0 -12 -5 -31 -11 -42 -6 -11 -13 -32 -15 -47
-3 -14 -7 -49 -9 -77 -3 -29 -9 -92 -14 -140 -5 -51 -5 -96 0 -105 4 -9 10
-35 11 -58 2 -22 6 -41 10 -41 4 0 14 -21 22 -47 8 -27 21 -64 29 -83 8 -19
13 -40 10 -46 -2 -6 4 -18 14 -26 10 -9 25 -17 33 -18 8 -1 26 -2 40 -1 17 1
32 11 43 30 12 21 16 44 13 78 -2 26 -7 67 -11 91 -4 23 -11 42 -15 42 -4 0
-11 39 -15 88 -4 48 -7 112 -6 142 1 30 9 87 18 125 9 39 21 84 26 100 6 17
38 56 70 88 46 44 65 56 81 51 12 -3 33 -20 49 -37 15 -17 27 -37 27 -43 0 -7
7 -14 15 -18 9 -3 15 -18 15 -36 0 -16 5 -30 12 -30 6 0 8 -3 5 -6 -3 -4 -2
-14 2 -23 5 -9 10 -41 12 -71 2 -30 7 -57 11 -60 3 -3 12 -57 18 -120 7 -63
14 -144 17 -180 3 -36 9 -72 13 -81 5 -9 7 -24 4 -35 -2 -11 7 -32 24 -52 23
-28 32 -32 54 -27 15 4 40 19 57 34 29 26 31 31 27 87 -2 32 -10 86 -16 119
-7 33 -13 83 -14 110 0 28 -6 56 -14 64 -7 7 -10 21 -7 30 3 10 1 44 -4 77 -5
32 -16 84 -25 114 -9 30 -18 63 -21 73 -2 10 -16 41 -30 70 -15 29 -33 63 -40
77 -8 14 -29 40 -47 59 -18 18 -42 37 -53 42 -11 5 -33 18 -50 28 -16 11 -39
20 -50 20z"/>
</g>
<g>
<path d="M4219 4446 c-32 1 -59 -2 -59 -8 0 -5 -9 -18 -19 -30 -11 -11 -17
-26 -15 -32 3 -7 -5 -23 -16 -36 -19 -22 -19 -26 -6 -36 13 -9 17 -35 19 -115
l2 -104 -50 -1 c-27 -1 -61 -4 -75 -8 -14 -3 -38 -9 -55 -12 -16 -4 -73 -9
-126 -11 -60 -3 -105 -1 -117 6 -14 8 -23 8 -27 1 -4 -6 -15 -8 -25 -5 -10 3
-21 1 -24 -4 -4 -6 -30 -8 -64 -5 -38 4 -77 0 -117 -12 -33 -9 -91 -17 -129
-18 -58 -1 -71 -4 -80 -21 -6 -11 -15 -23 -20 -27 -6 -3 -11 -19 -13 -34 -3
-15 -1 -39 2 -52 3 -13 9 -22 12 -18 4 3 16 0 28 -8 16 -10 54 -14 139 -14 64
1 118 4 121 7 2 4 70 6 152 5 106 -1 158 3 182 13 19 7 48 13 65 13 17 0 56 4
86 9 30 5 76 10 102 10 46 1 47 0 57 -36 5 -21 10 -128 10 -239 1 -110 5 -214
10 -231 5 -17 8 -55 7 -84 -1 -30 2 -67 7 -82 5 -16 18 -32 29 -36 10 -4 43
-2 72 3 33 6 58 17 65 28 7 11 12 58 11 111 0 51 -2 115 -4 142 -2 28 -9 77
-14 109 -6 33 -7 67 -2 75 4 9 9 21 10 26 2 6 5 15 7 22 3 6 0 20 -6 32 -6 11
-11 41 -11 68 0 26 3 58 6 70 5 17 15 23 43 25 20 2 54 -1 76 -5 26 -5 47 -4
62 4 14 7 46 10 88 7 36 -3 68 -2 70 3 3 4 18 8 33 8 15 0 77 2 137 4 61 3
127 8 147 12 25 5 43 3 52 -5 9 -6 21 -8 27 -4 7 4 31 6 55 6 36 -2 46 2 73
33 19 22 31 47 31 63 0 15 -3 37 -6 49 -4 13 -20 31 -38 41 -17 11 -53 20 -81
21 -27 1 -51 4 -54 7 -2 2 -11 -2 -20 -10 -10 -8 -54 -16 -118 -19 -61 -4
-105 -2 -108 3 -4 6 -16 10 -29 10 -12 0 -26 -4 -32 -9 -5 -6 -29 -13 -54 -16
-25 -4 -61 -9 -80 -11 -19 -1 -91 -4 -160 -6 -69 -1 -131 1 -137 5 -8 5 -13
29 -12 60 0 29 -2 77 -5 107 -3 30 -11 71 -19 90 -11 24 -12 41 -6 58 5 14 7
27 4 31 -4 3 -33 6 -66 7z"/>
</g>
<g>
<path d="M5744 4070 c-11 0 -30 -11 -41 -23 -11 -13 -23 -36 -27 -51 -4 -15
-2 -53 3 -84 6 -31 11 -79 11 -107 1 -27 -2 -66 -6 -85 -4 -19 -11 -38 -16
-41 -6 -4 -11 -19 -12 -35 -2 -16 -6 -45 -10 -66 -5 -20 -18 -46 -31 -58 -14
-13 -40 -23 -70 -26 -32 -3 -55 0 -70 10 -12 8 -34 37 -49 65 -14 28 -26 68
-26 88 -1 21 -9 56 -20 78 -11 22 -19 45 -20 51 0 6 -10 20 -23 32 -13 12 -30
22 -38 22 -8 0 -24 -7 -36 -15 -13 -9 -30 -31 -39 -50 -11 -25 -14 -46 -9 -77
4 -24 13 -56 20 -73 7 -16 16 -47 20 -67 3 -21 9 -38 13 -38 4 0 13 -15 21
-32 8 -18 30 -52 49 -75 20 -25 56 -53 86 -67 33 -16 72 -25 106 -26 30 -1 77
5 104 13 27 7 54 21 61 30 7 9 18 17 26 17 8 0 24 16 37 35 12 19 22 39 22 45
0 6 7 21 14 33 8 12 20 49 27 82 6 33 13 90 16 128 3 38 9 67 15 67 8 0 9 33
5 104 -4 57 -11 116 -17 130 -5 14 -24 35 -42 46 -18 11 -42 20 -54 20z"/>
</g>
<g>
<path d="M4522 3051 c-35 2 -65 2 -67 0 -2 -2 -66 -5 -141 -7 -123 -3 -141 -6
-171 -26 -29 -20 -33 -28 -33 -69 0 -35 5 -51 24 -68 22 -21 31 -22 83 -16 32
3 114 8 183 10 112 4 130 2 173 -18 34 -16 47 -27 47 -42 0 -12 -14 -42 -30
-69 -17 -26 -34 -44 -39 -41 -5 3 -12 1 -16 -5 -4 -6 -10 -8 -15 -5 -5 3 -16
-3 -26 -12 -14 -15 -35 -18 -113 -18 -84 0 -98 -2 -111 -20 -8 -11 -18 -30
-22 -42 -3 -13 0 -36 8 -52 10 -21 23 -30 47 -33 17 -2 66 -3 107 -2 41 0 102
7 135 14 34 8 76 26 97 42 20 15 42 28 47 28 6 0 11 4 11 10 0 5 16 24 35 43
20 19 37 43 39 53 2 11 10 40 16 66 10 41 10 56 -4 99 -10 29 -34 71 -54 95
-20 24 -43 44 -51 44 -8 0 -31 6 -50 12 -20 7 -38 16 -41 19 -3 4 -34 9 -68
10z"/>
</g>
<g>
<path d="M2182 2310 c-44 0 -73 -5 -82 -14 -8 -8 -32 -31 -52 -52 -35 -35 -38
-42 -38 -97 0 -44 5 -65 20 -84 11 -14 20 -31 20 -37 0 -7 10 -13 23 -15 12
-1 47 -3 77 -3 51 0 58 3 103 44 26 24 47 49 47 55 0 6 4 13 9 15 5 2 12 21
15 44 7 37 4 45 -34 92 l-40 52 -68 0z"/>
</g>
<g>
<path d="M2103 1601 c-7 7 -13 7 -17 1 -3 -6 -1 -14 5 -17 5 -4 13 -4 16 -1 4
4 2 11 -4 17z"/>
</g>
<g>
<path d="M6363 2419 c-15 0 -42 -11 -60 -22 -17 -12 -38 -34 -47 -48 -9 -15
-14 -40 -13 -55 2 -16 7 -38 11 -49 4 -11 12 -30 16 -42 5 -12 21 -25 35 -29
14 -3 25 -10 25 -15 0 -5 18 -9 40 -9 23 0 54 7 69 14 15 8 35 26 44 40 9 13
17 48 18 76 2 44 -2 55 -27 81 -16 17 -41 37 -56 45 -15 8 -40 14 -55 13z"/>
</g>
<g>
<path d="M6040 1670 c-5 0 -10 -7 -10 -15 0 -8 5 -15 10 -15 6 0 10 7 10 15 0
8 -4 15 -10 15z"/>
</g>
</g>
</g>
</svg>
