<?xml version="1.0" standalone="no"?>
<!DOCTYPE svg PUBLIC "-//W3C//DTD SVG 20010904//EN"
 "http://www.w3.org/TR/2001/REC-SVG-20010904/DTD/svg10.dtd">
<svg version="1.0" xmlns="http://www.w3.org/2000/svg"
 width="1436.000000pt" height="1795.000000pt" viewBox="0 0 1436.000000 1795.000000"
 preserveAspectRatio="xMidYMid meet">
<metadata>
Created by potrace 1.16, written by Peter Selinger 2001-2019
</metadata>
<g transform="translate(0.000000,1795.000000) scale(0.100000,-0.100000)"
fill="#000000" stroke="none">
<g>
<path d="M7104 16566 c-122 2 -224 1 -226 -2 -3 -2 -30 -6 -61 -9 -31 -2 -65
-9 -76 -14 -11 -6 -26 -9 -33 -6 -7 3 -47 -2 -88 -11 -41 -8 -124 -24 -185
-33 -60 -10 -139 -24 -175 -30 -36 -7 -121 -31 -190 -53 -69 -22 -145 -48
-170 -57 -25 -10 -61 -24 -80 -31 -19 -6 -64 -21 -100 -32 -36 -11 -76 -28
-90 -37 -14 -9 -56 -32 -95 -50 -38 -18 -79 -38 -90 -44 -11 -6 -65 -34 -120
-62 -55 -28 -123 -68 -152 -90 -29 -22 -71 -54 -95 -71 -24 -17 -65 -46 -93
-66 -27 -19 -67 -52 -88 -72 -21 -20 -44 -36 -52 -36 -7 0 -15 -3 -17 -7 -1
-5 -23 -24 -48 -43 -25 -19 -51 -39 -57 -45 -7 -5 -41 -37 -76 -70 -34 -33
-74 -76 -89 -95 -14 -19 -35 -45 -47 -57 -12 -12 -21 -26 -21 -31 0 -5 -21
-35 -46 -68 -25 -32 -55 -76 -65 -96 -10 -21 -19 -46 -19 -56 0 -10 -9 -27
-20 -37 -11 -10 -26 -31 -34 -47 -8 -15 -17 -42 -21 -60 -4 -18 -23 -80 -42
-137 -18 -57 -40 -132 -47 -165 -8 -34 -21 -88 -29 -121 -9 -33 -18 -82 -21
-110 -4 -27 -11 -81 -16 -120 -6 -38 -13 -137 -16 -220 -3 -82 -5 -199 -6
-260 0 -60 6 -166 15 -235 8 -69 19 -138 22 -155 4 -16 11 -34 15 -40 4 -5 11
-37 15 -70 5 -33 9 -67 10 -75 1 -8 21 -73 44 -145 24 -71 49 -143 57 -158 8
-16 14 -36 14 -46 0 -9 14 -38 30 -64 17 -26 30 -50 30 -53 0 -3 11 -29 24
-57 14 -29 33 -74 44 -102 11 -27 32 -72 46 -99 14 -27 26 -53 26 -58 0 -5 8
-26 18 -46 11 -20 30 -57 43 -82 14 -25 46 -81 73 -125 26 -44 62 -100 81
-125 19 -25 47 -63 62 -85 16 -22 32 -45 38 -51 5 -7 24 -29 40 -50 17 -21 54
-65 84 -98 30 -32 82 -87 115 -120 34 -34 91 -94 126 -135 36 -41 72 -81 80
-88 8 -8 33 -29 54 -48 21 -19 42 -35 47 -35 4 0 36 -25 71 -55 34 -30 67 -55
72 -55 4 0 40 -24 80 -53 39 -30 112 -74 161 -99 50 -25 128 -64 175 -86 47
-22 103 -48 125 -58 22 -9 45 -18 50 -20 6 -1 51 -18 102 -37 50 -20 109 -39
130 -43 21 -4 43 -10 48 -14 6 -4 33 -13 60 -19 28 -7 88 -19 135 -28 47 -8
106 -18 131 -23 25 -4 75 -22 111 -38 36 -16 110 -41 164 -55 55 -14 133 -31
174 -38 46 -7 177 -13 340 -13 146 -1 313 2 371 5 74 5 145 17 235 42 71 19
156 40 189 47 33 6 88 20 122 31 34 10 84 29 110 42 26 13 75 38 108 54 33 17
80 36 105 43 25 6 59 18 75 25 17 7 43 16 59 20 16 3 54 22 85 42 31 20 81 55
112 78 31 24 100 67 153 97 53 29 109 60 124 68 15 9 55 32 89 52 34 20 87 57
118 83 31 25 76 58 99 72 22 15 88 75 146 133 58 59 130 137 161 173 30 36 68
91 83 122 18 35 51 75 90 110 33 29 70 71 81 92 11 21 30 52 42 69 13 17 28
46 34 65 7 19 22 45 35 59 13 14 37 52 53 85 19 36 31 76 31 99 0 22 7 47 16
57 8 9 22 43 29 76 8 32 22 157 30 278 9 121 19 256 23 300 5 44 6 145 5 225
-2 80 -7 164 -10 188 -3 27 -1 48 7 57 7 8 20 15 29 15 10 0 27 9 39 20 12 12
22 25 22 30 0 5 -8 11 -19 15 -10 3 -29 1 -43 -4 -14 -5 -30 -6 -37 -2 -7 5
-14 39 -16 82 -3 55 -15 102 -46 184 -23 61 -50 134 -61 164 -10 29 -26 64
-34 76 -13 21 -13 27 1 61 8 21 13 44 11 51 -3 7 -19 13 -35 13 -26 0 -31 4
-37 35 -3 19 -10 38 -15 41 -5 3 -9 20 -9 37 0 18 -8 46 -19 62 -10 17 -24 48
-31 70 -7 22 -21 58 -30 80 -10 22 -23 56 -30 75 -7 19 -19 49 -26 67 -8 17
-14 35 -14 40 0 5 -13 22 -30 36 -16 15 -30 34 -30 42 0 7 12 20 28 27 16 8
27 21 27 33 0 17 -8 21 -54 25 -50 5 -56 8 -74 40 -10 19 -30 45 -43 56 -13
12 -24 24 -24 28 0 4 -12 24 -27 44 -15 20 -41 53 -59 72 -18 19 -50 61 -73
94 -39 56 -40 59 -26 87 8 15 15 35 15 43 0 9 -13 17 -32 21 -18 3 -48 4 -67
1 -29 -3 -42 3 -83 38 -27 22 -58 56 -69 74 -14 22 -28 32 -46 32 -16 0 -36
14 -61 42 -20 23 -49 54 -63 68 -14 14 -67 65 -117 113 -85 83 -93 88 -150 98
-42 8 -75 22 -110 47 -28 21 -79 55 -114 77 -34 22 -88 53 -118 69 -30 15 -84
39 -120 53 -36 14 -76 27 -90 30 -14 3 -29 9 -35 13 -5 5 -39 18 -75 29 -36
12 -73 26 -82 31 -10 5 -37 15 -60 21 -24 6 -61 14 -83 19 -22 5 -65 16 -95
25 -30 8 -95 22 -145 31 -49 8 -139 21 -200 29 -60 8 -173 19 -250 26 -77 6
-240 13 -361 15z m-289 -123 c11 -2 46 -8 77 -14 32 -5 79 -21 104 -34 35 -19
62 -25 107 -25 33 0 76 -4 96 -9 20 -5 83 -15 141 -21 58 -6 134 -21 170 -32
36 -12 105 -35 155 -51 49 -16 132 -50 185 -76 52 -26 149 -75 215 -110 66
-34 129 -71 141 -82 11 -10 41 -29 66 -42 25 -12 58 -32 74 -44 16 -13 61 -46
99 -75 39 -29 131 -114 205 -189 74 -75 164 -172 200 -215 36 -43 81 -99 100
-124 19 -24 47 -58 62 -74 15 -17 39 -53 52 -81 14 -27 39 -81 55 -118 17 -38
31 -71 31 -75 0 -4 8 -25 19 -47 10 -22 35 -89 56 -150 20 -60 37 -117 37
-125 1 -8 4 -20 9 -26 5 -5 16 -37 24 -70 9 -32 27 -104 39 -159 13 -55 28
-122 34 -150 6 -27 20 -90 31 -138 11 -50 21 -135 22 -195 2 -59 0 -219 -4
-357 -3 -137 -11 -297 -17 -354 -6 -58 -20 -138 -31 -178 -11 -39 -19 -91 -19
-115 1 -24 -3 -81 -8 -128 -6 -49 -24 -126 -44 -182 -19 -53 -42 -107 -50
-120 -8 -13 -24 -43 -35 -68 -12 -25 -24 -56 -28 -70 -4 -14 -23 -50 -41 -81
-19 -31 -34 -61 -34 -65 0 -5 -10 -25 -22 -44 -12 -19 -22 -39 -23 -45 -1 -5
-5 -19 -9 -30 -5 -11 -21 -55 -37 -97 -16 -43 -36 -99 -45 -125 -9 -27 -21
-55 -28 -63 -7 -8 -21 -33 -31 -55 -11 -22 -39 -68 -62 -103 -24 -35 -43 -68
-43 -73 0 -6 -12 -27 -27 -47 -16 -20 -32 -42 -38 -49 -5 -6 -32 -38 -60 -70
-27 -32 -99 -108 -160 -169 -60 -61 -131 -133 -157 -160 -27 -27 -65 -66 -87
-86 -29 -28 -55 -41 -102 -52 -35 -8 -91 -24 -124 -36 -41 -14 -94 -22 -170
-25 -60 -3 -152 -7 -204 -10 -86 -4 -96 -2 -120 18 -25 21 -32 22 -146 16 -80
-5 -162 -2 -245 7 -69 8 -152 22 -185 30 -33 9 -85 22 -115 29 -30 7 -95 24
-145 38 -49 13 -115 27 -145 30 -30 3 -66 9 -80 12 -14 3 -63 18 -110 32 -47
14 -93 30 -102 34 -10 5 -24 9 -31 9 -8 0 -27 7 -44 15 -16 8 -38 16 -49 18
-10 2 -37 12 -59 22 -22 10 -101 47 -175 83 -74 36 -178 90 -230 120 -52 30
-118 74 -147 98 -28 24 -56 44 -62 44 -6 0 -11 5 -11 10 0 6 -5 10 -11 10 -6
0 -53 39 -105 86 -53 47 -118 111 -145 142 -28 31 -65 71 -83 87 -17 17 -61
64 -96 105 -35 41 -66 77 -69 80 -3 3 -22 27 -41 53 -19 27 -60 78 -90 115
-30 37 -63 76 -73 87 -9 10 -29 43 -42 73 -13 29 -34 65 -45 79 -11 15 -41 68
-65 120 -25 51 -48 105 -51 119 -4 14 -13 28 -20 31 -8 3 -14 10 -14 16 0 5
-12 35 -26 66 -14 31 -32 70 -40 86 -7 17 -31 73 -54 125 -22 52 -43 108 -46
124 -3 17 -11 44 -19 61 -8 16 -19 53 -25 80 -6 28 -16 66 -24 85 -8 19 -19
71 -26 115 -7 44 -16 87 -20 95 -4 8 -14 69 -20 135 -7 66 -12 197 -11 290 1
94 7 220 12 280 5 61 16 160 23 220 8 61 24 144 35 185 11 41 23 86 27 100 4
14 10 30 14 35 4 6 12 37 19 70 7 33 21 84 32 113 10 30 19 61 19 70 0 10 14
37 30 62 16 25 33 50 38 55 5 6 12 23 16 39 4 16 16 36 28 45 11 10 36 42 54
72 19 30 42 71 53 92 10 21 54 70 97 109 44 39 106 89 139 111 33 22 67 48 75
57 8 9 47 41 85 71 39 31 81 62 95 69 14 7 48 32 75 55 28 23 66 49 85 58 19
8 45 25 57 36 12 12 26 21 30 21 4 0 68 31 143 69 75 38 156 75 180 82 25 7
52 18 60 24 8 6 49 25 90 43 41 17 116 45 165 62 50 18 108 38 130 45 22 7 76
22 120 33 44 12 123 28 175 37 52 9 111 21 130 26 19 5 82 15 140 23 58 7 114
11 125 9z m795 -5 c8 1 23 -5 33 -12 10 -8 56 -20 103 -27 47 -7 92 -19 102
-26 15 -13 7 -13 -58 -8 -41 4 -87 7 -102 6 -15 -1 -60 6 -98 15 -44 10 -70
20 -67 27 2 7 19 15 38 18 19 4 41 7 49 7z m571 -139 c14 -4 46 -16 71 -27 25
-11 48 -24 51 -29 4 -6 -25 -13 -70 -17 -42 -3 -115 -6 -162 -6 -69 0 -93 4
-120 21 -32 19 -32 21 -15 34 11 8 34 15 52 15 25 0 32 -4 32 -19 0 -11 4 -22
9 -26 6 -3 25 8 43 24 18 16 45 31 58 33 14 2 37 1 51 -3z m112 -116 c4 -2 7
-12 7 -22 0 -12 -7 -16 -27 -15 -16 1 -37 2 -47 3 -11 0 -16 4 -12 9 4 4 22
12 39 18 18 6 35 9 40 7z m119 5 c13 -2 24 -11 26 -20 3 -13 -3 -18 -22 -18
-20 0 -26 5 -26 21 0 15 5 20 22 17z m-254 -19 c4 0 16 -4 27 -8 19 -8 19 -8
-1 -19 -11 -6 -26 -7 -33 -2 -8 4 -10 13 -7 19 4 6 10 11 14 10z m392 -16 c11
-3 20 -7 20 -9 0 -2 -9 -4 -20 -4 -11 0 -20 4 -20 9 0 5 9 7 20 4z m-96 -58
c31 -1 41 -6 53 -28 13 -26 13 -28 -14 -38 -15 -6 -45 -17 -67 -24 -30 -11
-43 -11 -60 -2 -11 7 -38 25 -58 40 -21 16 -38 33 -38 37 0 5 33 10 73 12 39
2 89 3 111 3z m136 -5 c6 0 10 -7 10 -15 0 -8 -4 -15 -10 -15 -5 0 -10 7 -10
15 0 8 5 15 10 15z m129 -88 l41 -4 0 -58 c0 -44 -4 -59 -16 -64 -9 -3 -42 -6
-74 -6 -32 0 -62 -4 -65 -10 -3 -5 -10 -10 -15 -10 -5 0 -25 14 -43 30 -19 17
-40 30 -46 30 -6 0 -11 6 -11 13 0 7 6 21 13 32 12 15 23 17 77 12 57 -5 65
-3 81 17 14 17 25 21 58 18z m160 -22 c11 0 26 -3 35 -6 9 -3 16 -17 16 -30 0
-14 -7 -27 -15 -31 -9 -3 -25 3 -35 12 -11 10 -20 26 -20 37 0 11 7 18 19 18z
m-39 -168 c25 -3 52 -10 60 -17 8 -7 25 -16 37 -19 17 -5 26 -1 39 19 12 18
25 25 48 25 21 0 40 -8 55 -24 19 -20 22 -33 19 -67 -3 -32 1 -48 14 -61 15
-15 17 -27 12 -56 -3 -20 -10 -41 -15 -46 -4 -5 -56 -13 -115 -17 -87 -7 -112
-6 -130 5 -12 8 -24 24 -27 36 -5 18 1 25 31 37 20 9 69 19 107 22 61 5 70 8
70 26 0 18 -6 20 -75 19 -41 0 -106 -4 -143 -9 l-68 -8 -49 51 c-28 29 -50 56
-50 61 0 5 30 13 68 18 37 5 87 8 112 5z m388 -122 c4 0 26 -19 50 -41 24 -23
42 -49 40 -58 -2 -11 -16 -17 -50 -19 -39 -3 -49 0 -58 18 -8 14 -8 31 0 60 6
22 14 40 18 40z m48 -193 c3 -3 4 -12 1 -19 -3 -8 -6 -5 -6 6 -1 11 2 17 5 13z
m-130 -8 c52 1 64 -2 83 -23 13 -14 24 -38 24 -57 l2 -34 -70 -8 c-38 -4 -93
-5 -121 -2 -31 4 -59 14 -68 24 -9 10 -18 31 -19 47 -2 26 1 28 53 39 30 7 82
13 116 14z m223 -9 c5 0 21 -14 35 -31 14 -17 26 -37 26 -45 0 -9 -11 -14 -29
-14 -16 0 -36 -3 -45 -6 -13 -5 -16 1 -16 26 0 17 5 40 10 51 6 10 15 19 19
19z m71 -141 c14 0 35 -8 48 -18 12 -11 22 -30 22 -43 0 -12 -4 -28 -8 -34 -4
-7 -18 -12 -32 -12 -14 -1 -50 -6 -80 -12 -30 -6 -96 -16 -147 -22 -84 -11
-94 -10 -112 6 -10 10 -25 31 -32 47 -7 20 -8 34 -2 40 5 5 36 14 69 19 32 6
75 10 95 10 20 0 42 -7 49 -15 7 -8 19 -15 26 -15 8 0 14 7 14 15 0 8 15 19
33 24 17 5 43 9 57 10z m175 -35 c7 -3 15 -16 18 -30 3 -17 -1 -28 -13 -34
-10 -5 -20 -6 -24 -3 -3 3 -6 18 -6 33 0 15 3 29 6 33 3 3 12 3 19 1z m25
-114 c10 0 23 -8 28 -17 6 -11 6 -25 -1 -40 -5 -13 -18 -23 -28 -23 -11 0 -20
10 -24 30 -4 16 -4 34 0 40 3 5 15 10 25 10z m-206 -11 l38 1 -7 -37 c-4 -21
-9 -41 -11 -45 -3 -4 -35 -7 -72 -7 -37 0 -78 -4 -92 -9 -14 -6 -32 -17 -39
-26 -8 -9 -11 -19 -8 -23 4 -3 24 -6 44 -6 21 0 63 3 93 6 30 3 86 11 124 16
52 7 76 6 93 -3 l23 -12 -30 -47 -30 -47 -118 0 c-78 0 -122 -4 -130 -12 -7
-7 -12 -18 -12 -26 0 -7 17 -20 38 -29 28 -12 57 -14 124 -10 82 5 86 5 92
-16 3 -12 6 -27 6 -34 0 -6 -19 -14 -42 -17 -24 -3 -80 -8 -125 -11 l-82 -6
-14 33 c-7 18 -26 71 -42 118 -16 47 -38 97 -48 111 -11 15 -17 38 -15 55 3
26 7 29 68 39 36 6 81 19 100 27 19 9 52 17 74 17z m122 -9 c2 0 8 -9 14 -19
5 -11 7 -26 4 -35 -3 -8 -12 -12 -20 -9 -8 3 -14 15 -14 27 0 13 3 26 7 29 3
4 8 7 9 7z m182 -134 c7 -7 14 -25 15 -41 2 -27 -1 -30 -38 -36 -22 -4 -42 -5
-44 -3 -2 2 1 14 6 26 6 13 19 33 30 45 15 18 20 20 31 9z m93 -27 c5 -8 9
-18 9 -23 0 -5 -7 -3 -15 4 -8 7 -12 17 -9 22 4 6 10 5 15 -3z m-39 -109 c10
-12 18 -34 18 -49 0 -15 -6 -34 -12 -43 -11 -13 -24 -15 -78 -8 -36 5 -82 7
-102 5 -21 -2 -38 1 -38 6 0 5 5 9 10 9 6 0 10 8 10 19 0 10 6 24 14 30 7 6
41 14 74 17 35 4 67 13 74 21 10 13 15 12 30 -7z m138 -40 c5 0 12 -11 16 -24
3 -14 3 -30 -1 -35 -3 -6 -15 -11 -25 -11 -10 0 -22 5 -25 10 -4 6 1 22 9 35
9 14 21 25 26 25z m-252 -121 l82 1 0 -35 c0 -26 -6 -39 -27 -52 -22 -15 -47
-17 -163 -15 -106 1 -140 -1 -149 -12 -6 -7 -9 -20 -6 -29 4 -8 21 -17 38 -20
18 -2 84 -3 147 0 63 3 131 11 151 18 20 8 69 14 110 15 41 1 80 1 87 1 6 -1
12 -7 12 -14 0 -7 -12 -25 -27 -39 -27 -25 -32 -26 -178 -29 -82 -2 -197 -3
-254 -4 -83 0 -105 3 -111 15 -4 8 -17 44 -29 80 -12 36 -21 70 -21 76 0 8 39
14 107 19 59 4 116 11 128 15 11 5 57 9 103 9z m241 -9 c10 0 22 -8 25 -17 4
-9 2 -21 -4 -27 -8 -8 -15 -6 -26 8 -8 11 -14 23 -14 28 0 4 9 8 19 8z m-60
-12 c9 -2 17 -15 19 -31 3 -23 0 -27 -22 -27 -16 0 -26 6 -26 14 0 8 3 22 6
31 4 9 14 15 23 13z m210 -120 c9 -2 17 -13 19 -26 3 -16 -2 -22 -16 -22 -10
0 -21 3 -24 6 -3 3 -3 14 -1 25 3 12 12 19 22 17z m-259 -111 c73 1 90 -1 90
-13 0 -8 -9 -34 -21 -59 l-21 -45 -57 -1 c-31 -1 -123 -1 -206 1 -125 2 -152
5 -162 19 -7 9 -13 24 -13 33 0 9 4 19 8 22 5 3 65 8 135 12 70 4 134 12 142
18 9 6 56 12 105 13z m177 2 c1 1 11 -14 22 -33 12 -18 21 -43 21 -55 0 -16
-6 -21 -27 -21 -16 0 -38 3 -51 6 -18 5 -21 11 -16 28 4 11 16 33 28 48 12 15
22 27 23 27z m111 -8 c2 -7 1 -19 -3 -29 -5 -14 -7 -14 -15 -2 -5 9 -4 20 3
28 8 10 12 11 15 3z m67 -141 c16 0 27 -14 48 -61 15 -33 27 -74 27 -90 0 -16
-3 -29 -6 -29 -4 0 -25 17 -48 37 -28 26 -44 51 -52 80 -7 29 -8 45 0 53 5 5
19 10 31 10z m-152 -12 c9 1 18 -4 18 -10 1 -7 0 -22 -1 -33 -1 -11 -11 -39
-21 -62 -13 -28 -27 -44 -42 -47 -12 -3 -69 -8 -127 -11 -58 -3 -162 -8 -231
-11 l-127 -7 -13 57 c-9 42 -9 60 -1 68 6 6 69 14 144 19 73 4 152 10 174 14
24 4 50 3 61 -3 15 -8 25 -7 40 3 11 7 39 15 64 18 24 2 52 4 62 5z m84 -92
c8 -3 19 -6 24 -6 5 0 9 -9 9 -20 0 -15 -7 -20 -28 -20 -16 0 -32 3 -35 6 -3
4 -2 15 4 26 6 12 17 17 26 14z m-170 -107 c107 0 153 -4 174 -14 15 -8 40
-15 54 -15 14 0 28 -7 31 -15 4 -8 1 -22 -6 -30 -6 -7 -18 -11 -26 -8 -8 3
-17 -4 -23 -20 -8 -20 -18 -25 -63 -29 -29 -3 -114 -6 -188 -7 -74 -1 -182 -4
-240 -6 -58 -2 -111 -1 -117 3 -7 5 -16 22 -19 40 -5 27 -3 33 17 41 13 6 59
17 101 26 42 8 93 15 112 15 19 0 38 4 41 10 3 6 66 10 152 9z m340 -186 c9
-11 13 -38 11 -68 -2 -37 -7 -51 -19 -53 -13 -2 -18 9 -24 53 -5 40 -3 61 6
71 12 14 14 14 26 -3z m-323 3 c82 -3 151 -7 153 -10 2 -2 0 -21 -6 -43 -6
-21 -16 -47 -24 -56 -11 -16 -29 -18 -142 -18 -72 0 -153 4 -182 10 -32 6 -63
7 -83 1 -23 -7 -44 -5 -74 5 -22 8 -48 15 -57 15 -9 0 -19 9 -22 21 -3 11 -3
27 -1 33 4 9 46 15 137 20 73 4 136 12 142 18 7 7 59 8 159 4z m224 -76 c8 0
12 -6 9 -14 -3 -7 -1 -18 4 -23 6 -6 4 -14 -5 -22 -8 -7 -20 -10 -26 -6 -5 3
-10 16 -10 29 0 12 3 26 7 29 3 4 13 7 21 7z m-415 -87 c9 -2 75 -4 145 -4
101 0 131 -4 144 -16 10 -9 26 -13 38 -10 17 4 20 0 20 -29 0 -28 -4 -34 -22
-36 -13 -1 -43 -3 -68 -4 -25 -1 -90 -2 -145 -1 -55 0 -139 0 -186 -1 -53 0
-101 -7 -124 -16 -21 -9 -35 -21 -33 -28 3 -7 15 -19 29 -25 13 -7 38 -10 54
-7 17 3 89 7 160 10 72 2 183 6 248 9 97 3 119 2 124 -10 3 -8 2 -26 -1 -40
-3 -13 -17 -36 -29 -51 -23 -26 -27 -27 -145 -30 -67 -1 -126 -5 -130 -8 -4
-3 -51 0 -103 6 -52 5 -111 11 -131 13 -20 2 -48 11 -61 20 -15 9 -26 28 -29
48 -3 18 -2 68 1 112 l6 80 95 7 c52 4 102 9 110 11 8 3 23 2 33 0z m421 -3
c6 0 17 -5 24 -12 7 -7 12 -25 12 -42 l0 -30 -31 32 c-17 17 -28 36 -24 42 3
5 12 10 19 10z m122 -190 c7 0 15 -7 18 -16 3 -9 6 -28 6 -44 0 -16 -3 -35 -6
-44 -3 -9 -13 -16 -21 -16 -7 0 -23 19 -33 43 l-19 42 22 17 c12 10 27 18 33
18z m-751 -147 c11 -5 117 -7 235 -6 118 1 230 5 248 8 31 6 32 5 32 -30 0
-19 4 -35 9 -35 5 0 19 12 31 27 18 23 28 26 63 24 23 -1 48 -8 55 -15 8 -8
14 -30 15 -50 1 -22 -7 -46 -20 -63 -12 -16 -27 -26 -35 -25 -7 2 -38 5 -68 8
-30 2 -140 6 -245 9 -104 3 -220 8 -257 12 -44 4 -72 11 -81 22 -8 9 -17 35
-20 58 -3 24 0 46 6 52 6 6 20 8 32 4z m420 -198 c11 -4 53 -10 92 -14 40 -3
77 -11 84 -18 8 -8 4 -20 -13 -47 -22 -35 -24 -36 -88 -36 -36 0 -173 -7 -304
-15 -161 -11 -243 -12 -249 -6 -7 7 -6 24 2 53 7 24 16 50 21 58 6 13 42 15
215 17 114 1 210 4 213 8 4 3 16 3 27 0z m326 -51 c4 -2 9 -15 11 -28 4 -20 0
-25 -21 -29 -14 -3 -32 -1 -38 5 -7 6 -13 16 -13 23 0 8 12 18 28 23 15 5 30
8 33 6z m-276 -118 c15 -1 20 -7 18 -26 -1 -14 -5 -38 -8 -55 -6 -29 -4 -27
43 23 28 28 59 52 69 52 10 0 24 -5 31 -12 7 -7 12 -33 12 -59 0 -34 -4 -49
-16 -53 -9 -4 -67 -9 -128 -12 -61 -3 -138 -8 -171 -10 -33 -3 -136 -6 -228
-7 -127 -1 -170 1 -176 11 -4 7 -6 26 -3 42 2 16 9 33 16 38 6 5 63 16 126 26
63 10 178 24 255 31 77 7 149 12 160 11z m295 -26 c4 0 7 -19 6 -42 -1 -36 -4
-43 -23 -46 -21 -3 -22 0 -16 30 3 18 10 39 16 46 5 6 13 12 17 12z m-279
-171 c77 1 99 -2 99 -13 0 -7 -11 -28 -25 -47 -13 -19 -33 -50 -44 -70 -11
-19 -26 -41 -34 -47 -10 -8 -30 -9 -73 -2 -32 6 -86 7 -120 4 -33 -4 -132 -1
-220 6 -87 7 -165 17 -171 22 -7 6 -13 25 -13 42 0 17 4 36 8 42 4 6 54 18
112 27 58 9 166 19 240 23 74 3 136 7 138 9 2 1 48 3 103 4z m175 -39 c8 0 14
-8 14 -17 0 -10 9 -33 20 -51 11 -18 20 -36 20 -41 0 -5 -12 -12 -26 -15 -16
-4 -41 0 -65 11 -21 9 -39 21 -39 26 0 5 14 27 31 48 17 21 37 39 45 39z
m-443 -191 c154 1 217 -2 217 -10 0 -6 -12 -26 -27 -44 -16 -17 -33 -40 -38
-50 -10 -16 -36 -19 -269 -27 -143 -5 -261 -6 -264 -3 -3 3 2 29 11 59 l17 54
68 9 c37 6 165 11 285 12z m447 1 c10 0 20 -6 23 -13 2 -7 -4 -23 -14 -36 -10
-12 -22 -20 -27 -17 -5 3 -7 19 -4 36 3 20 10 30 22 30z m-103 -54 c3 -3 3
-12 0 -21 -4 -8 -11 -15 -17 -15 -7 0 -7 6 0 21 7 11 14 18 17 15z m-119 -16
c1 0 1 -5 0 -12 -2 -7 -7 -17 -13 -23 -5 -7 -15 -12 -22 -12 -7 0 -3 10 10 23
12 13 23 24 25 24z m95 -90 c35 0 38 -2 31 -22 -3 -13 -13 -31 -22 -40 -8 -10
-20 -18 -27 -18 -6 0 -17 11 -23 25 -7 15 -20 25 -34 26 -21 1 -20 2 7 14 17
8 47 14 68 15z m-233 -18 c19 -2 38 -7 43 -9 4 -2 7 -8 7 -13 0 -5 -12 -21
-27 -35 -19 -18 -36 -25 -53 -21 -13 2 -67 0 -120 -5 -52 -4 -117 -11 -145
-13 -27 -3 -93 -10 -145 -16 -52 -5 -98 -6 -102 -2 -4 4 2 22 13 40 19 29 26
32 72 34 29 0 66 1 83 2 17 1 38 7 47 14 10 9 47 13 109 13 51 1 113 4 138 9
25 4 61 5 80 2z m-57 -123 c21 1 30 -5 34 -19 3 -11 9 -20 14 -20 4 0 17 9 27
20 11 12 25 18 35 14 15 -5 15 -9 2 -32 -8 -15 -27 -42 -42 -60 l-28 -32 -170
-8 c-93 -5 -192 -9 -220 -9 -27 0 -85 -3 -127 -6 -43 -3 -80 -1 -83 3 -3 5 1
23 10 40 9 17 26 35 38 39 12 5 27 6 33 4 7 -2 32 1 55 7 24 7 87 19 139 27
52 8 118 14 145 13 28 0 64 4 80 9 17 5 43 10 58 10z m199 -29 c5 0 8 -10 6
-22 -2 -15 -11 -24 -25 -26 -13 -2 -23 0 -23 4 0 4 7 16 17 26 9 10 20 18 25
18z m-279 -152 c62 1 77 -2 77 -14 0 -8 -6 -30 -14 -49 -8 -18 -25 -40 -38
-48 -12 -9 -51 -21 -86 -27 -34 -6 -124 -11 -200 -12 -111 0 -151 3 -211 20
-41 12 -75 23 -77 24 -1 2 4 18 11 36 8 17 18 32 24 32 5 0 12 -4 15 -9 3 -4
38 -6 78 -4 40 2 84 7 98 10 14 3 59 7 100 8 41 2 91 9 110 17 19 8 70 15 113
16z m114 -158 c7 0 13 -4 13 -8 0 -5 -9 -17 -20 -27 -19 -18 -20 -17 -20 2 0
11 3 23 7 26 3 4 12 7 20 7z m-668 -28 c13 -18 30 -23 101 -28 47 -3 132 -1
190 5 58 6 131 14 163 17 45 5 57 4 57 -7 0 -8 -17 -33 -38 -56 l-37 -43 -130
-1 c-71 -1 -137 -5 -145 -9 -8 -4 -60 -1 -115 6 -55 7 -101 13 -103 13 -2 1 0
16 3 34 4 17 14 45 22 61 l15 29 17 -21z m572 -38 c5 -3 9 -19 9 -35 0 -23 -6
-32 -27 -40 -14 -5 -33 -7 -41 -4 -10 4 -6 15 18 45 17 22 36 38 41 34z m-665
-134 c2 0 19 -8 39 -17 32 -15 53 -16 227 -5 106 6 194 9 197 7 2 -3 -8 -16
-22 -29 -15 -14 -27 -29 -27 -35 0 -5 -51 -12 -114 -16 -62 -4 -119 -11 -126
-15 -8 -5 -24 -4 -36 0 -13 5 -36 5 -52 0 -21 -5 -38 -4 -57 6 -15 8 -33 14
-41 14 -7 0 -15 3 -17 8 -3 4 2 24 10 45 8 20 17 37 19 37z m594 -10 c9 -3 2
-6 -15 -8 -21 -2 -35 -12 -47 -32 -12 -21 -25 -30 -43 -30 -14 0 -25 4 -25 8
0 5 12 20 28 34 15 15 41 28 57 30 17 2 37 1 45 -2z m-660 -130 c4 0 14 -10
23 -22 14 -22 20 -23 143 -21 71 2 144 8 162 14 19 6 37 7 42 3 4 -5 -3 -26
-16 -46 -23 -36 -28 -38 -77 -40 -28 0 -109 -1 -178 -2 -93 -1 -130 -5 -143
-15 -9 -8 -16 -24 -14 -35 3 -18 11 -22 58 -24 30 -2 99 2 153 8 76 10 101 10
110 1 9 -10 5 -19 -20 -41 -22 -20 -47 -30 -80 -35 -26 -3 -78 -10 -115 -15
-37 -6 -101 -10 -142 -10 -42 0 -76 2 -76 4 0 3 14 25 30 49 17 25 30 48 30
51 0 4 17 33 38 64 20 31 43 70 51 85 8 15 18 27 21 27z m8 -351 c23 1 42 -1
42 -4 0 -2 -21 -16 -47 -31 -27 -15 -57 -35 -68 -45 -11 -9 -41 -26 -67 -38
-26 -12 -64 -20 -85 -20 -21 1 -51 4 -67 8 -16 3 -31 11 -33 16 -2 6 18 32 43
58 25 27 52 46 59 43 8 -3 29 -7 47 -11 18 -3 56 1 83 9 28 8 69 15 93 15z
m-400 -189 c10 0 23 -5 30 -12 7 -7 12 -17 12 -23 0 -6 -33 -27 -74 -48 -41
-20 -77 -37 -82 -37 -4 0 16 24 45 52 28 29 51 56 51 60 0 5 8 8 18 8z"/>
<g>
<path d="M5841 13983 c-11 2 -22 2 -25 0 -3 -3 -16 -7 -30 -8 -14 -2 -36 -11
-50 -22 -14 -10 -26 -26 -26 -35 0 -9 5 -29 11 -45 5 -15 22 -40 37 -55 21
-23 35 -28 73 -28 29 0 51 6 59 15 9 10 11 33 7 71 -3 31 -12 66 -21 78 -8 13
-24 26 -35 29z"/>
</g>
<g>
<path d="M8540 13810 c-21 0 -47 -8 -60 -18 -15 -12 -24 -33 -27 -64 -5 -45
-4 -48 28 -67 19 -12 48 -21 65 -21 26 0 35 6 48 34 9 19 16 50 16 69 0 20 -7
43 -16 51 -9 9 -32 16 -54 16z"/>
</g>
<g>
<path d="M7149 13450 c-4 0 -18 -10 -33 -21 -17 -13 -26 -30 -25 -43 2 -11 -1
-34 -4 -51 -4 -16 -12 -75 -18 -130 -5 -55 -12 -113 -13 -130 -2 -16 -7 -109
-10 -205 -4 -96 -12 -231 -17 -299 -6 -68 -10 -163 -10 -211 -1 -48 4 -97 10
-109 6 -11 19 -25 29 -30 11 -6 48 -1 112 14 52 13 106 26 120 29 14 3 33 11
42 18 10 7 20 30 24 51 3 23 1 44 -7 53 -6 8 -19 14 -28 14 -9 0 -34 -9 -56
-20 -22 -11 -58 -20 -81 -20 -23 0 -47 6 -53 14 -8 9 -9 53 -6 142 3 71 10
185 16 254 5 69 14 208 20 310 5 102 12 223 15 269 5 65 4 85 -7 92 -8 5 -17
9 -20 9z"/>
</g>
<g>
<path d="M6413 11870 c-10 0 -25 -6 -33 -13 -9 -7 -14 -24 -12 -43 2 -18 11
-38 20 -46 9 -8 42 -22 72 -31 30 -9 116 -23 190 -31 74 -9 272 -18 440 -21
168 -3 334 -9 370 -12 36 -3 79 -6 95 -5 17 0 138 1 270 1 132 1 305 6 384 12
118 8 150 14 173 30 20 14 28 29 28 49 0 22 -6 31 -22 35 -13 3 -86 0 -163 -6
-77 -6 -165 -10 -195 -10 -30 1 -86 3 -124 5 -38 2 -117 1 -177 -4 -59 -4
-127 -4 -151 0 -24 5 -118 11 -208 14 -91 3 -268 8 -395 11 -126 4 -273 10
-325 15 -52 4 -123 17 -157 29 -34 12 -70 21 -80 21z"/>
</g>
</g>
<g>
<path d="M3875 8973 c-16 2 -102 0 -191 -4 -88 -4 -170 -12 -182 -18 -11 -6
-31 -11 -44 -11 -12 0 -40 -6 -63 -14 -22 -7 -58 -19 -80 -26 -22 -7 -56 -25
-75 -40 -19 -15 -53 -37 -75 -48 -22 -11 -66 -47 -97 -80 -32 -33 -58 -64 -58
-69 0 -5 -16 -25 -36 -44 -19 -18 -43 -52 -53 -74 -10 -22 -24 -47 -32 -55 -8
-8 -29 -44 -46 -80 -18 -36 -42 -81 -52 -100 -11 -19 -38 -75 -61 -125 -23
-49 -46 -99 -50 -110 -4 -11 -13 -39 -21 -63 -7 -23 -18 -47 -26 -53 -7 -6
-13 -20 -13 -30 0 -10 -11 -35 -25 -55 -14 -20 -25 -51 -25 -68 0 -18 -9 -49
-20 -71 -11 -22 -20 -49 -20 -60 0 -11 -9 -38 -20 -60 -11 -22 -20 -49 -20
-61 0 -12 -8 -46 -19 -76 -10 -29 -24 -74 -30 -101 -6 -26 -11 -64 -11 -85 0
-22 -8 -65 -19 -98 -10 -32 -21 -90 -25 -129 -3 -38 -13 -95 -21 -125 -8 -30
-19 -122 -25 -205 -6 -82 -16 -188 -22 -235 -7 -55 -12 -333 -14 -785 -2 -385
-6 -995 -10 -1355 -3 -360 -7 -695 -8 -744 l-1 -89 30 -8 c21 -6 36 -4 55 8
14 9 69 39 123 65 53 27 114 63 135 81 20 19 55 46 77 62 22 16 52 40 66 55
14 14 50 45 80 70 30 25 86 79 124 121 39 42 81 81 95 86 14 6 46 15 73 22 26
6 58 11 72 11 15 0 29 -8 36 -22 7 -13 9 -44 5 -83 -3 -34 -9 -118 -13 -186
-4 -68 -6 -187 -5 -264 0 -77 1 -163 2 -192 1 -29 -1 -61 -5 -72 -4 -13 -21
-24 -45 -31 -21 -6 -41 -18 -44 -28 -5 -15 -23 -17 -168 -17 -90 0 -417 -1
-728 -3 -311 -1 -581 -1 -600 1 -19 2 -82 7 -140 11 -58 4 -116 11 -130 16
-14 5 -40 11 -57 14 -27 4 -39 0 -65 -23 -18 -16 -42 -30 -52 -32 -10 -2 -28
-22 -38 -44 -11 -22 -24 -47 -29 -55 -5 -8 -18 -31 -28 -51 -11 -20 -22 -47
-25 -60 -2 -13 -14 -45 -26 -71 -18 -41 -22 -74 -27 -243 -4 -149 -3 -206 7
-238 8 -23 20 -49 27 -58 7 -8 13 -24 13 -35 0 -11 7 -29 15 -41 8 -12 28 -35
45 -51 16 -16 53 -42 82 -57 29 -16 63 -34 76 -40 13 -7 37 -10 60 -6 20 4
152 6 292 5 140 -1 307 -7 370 -13 63 -6 167 -12 230 -12 63 -1 194 -1 290 0
96 1 265 -3 375 -9 131 -8 354 -9 645 -5 245 4 679 8 965 10 286 1 534 5 550
8 17 4 140 12 275 18 135 6 270 14 300 16 30 3 98 7 150 10 52 3 543 4 1090 2
547 -1 1117 -2 1265 -1 149 0 430 1 625 1 195 1 432 -1 525 -3 94 -3 220 -8
280 -11 61 -4 191 -8 290 -10 99 -1 308 -8 465 -14 157 -6 366 -13 465 -15 99
-2 223 0 275 5 52 6 149 12 215 14 66 2 147 4 180 5 33 0 139 5 235 11 96 6
261 9 365 7 105 -1 280 -1 390 0 110 2 279 7 375 11 144 7 182 6 215 -6 22 -8
54 -17 72 -20 25 -4 45 3 93 33 34 21 78 58 98 83 21 25 44 60 51 76 7 17 17
38 22 47 5 10 9 27 9 38 0 11 7 37 16 58 10 25 15 69 16 132 0 77 -5 110 -27
175 -15 43 -36 91 -46 105 -11 14 -45 53 -75 87 -31 34 -75 71 -97 82 -38 18
-58 19 -202 15 -88 -2 -200 -4 -249 -4 -49 1 -92 2 -95 4 -3 2 -40 -3 -81 -11
-54 -10 -111 -12 -200 -8 -69 3 -170 8 -225 11 -55 3 -103 8 -108 11 -4 2
-168 7 -365 9 -196 3 -436 5 -532 4 -96 0 -215 5 -265 11 -49 6 -100 15 -113
20 l-23 9 22 33 c13 17 51 62 86 100 35 37 75 86 90 110 14 23 41 60 59 82 26
32 32 47 29 77 -2 21 -15 53 -30 72 -14 19 -39 67 -55 108 -15 40 -40 93 -54
118 -14 25 -26 48 -26 51 0 3 21 6 48 6 26 0 126 1 223 2 157 2 185 5 255 27
43 14 94 34 112 45 18 10 39 19 46 19 7 0 100 44 207 98 107 54 221 114 254
132 33 19 74 44 90 56 17 12 55 35 85 51 30 17 91 51 135 77 44 26 87 51 95
56 8 6 22 13 30 17 8 3 44 25 80 48 36 23 79 50 95 59 17 10 48 28 70 41 22
14 49 29 60 34 11 5 45 20 75 34 30 14 96 42 145 62 50 21 115 46 145 57 30
11 104 30 164 44 60 14 159 44 220 68 61 24 127 46 146 50 19 4 46 11 60 16
14 5 42 11 62 15 35 5 38 8 36 38 -1 18 1 41 5 52 5 17 -6 27 -71 66 -42 26
-92 51 -110 57 -19 7 -67 32 -107 56 -41 25 -100 66 -132 91 -32 25 -70 57
-85 70 -15 14 -32 25 -37 25 -6 0 -11 4 -11 9 0 5 -35 36 -77 70 -43 33 -82
64 -88 68 -5 5 -34 29 -62 53 -29 25 -53 51 -53 58 0 7 -13 12 -34 12 -22 0
-52 -12 -87 -36 -29 -19 -108 -62 -175 -94 -78 -38 -149 -65 -200 -76 -44 -8
-110 -26 -147 -39 -37 -12 -71 -25 -74 -29 -4 -3 -14 -6 -24 -6 -9 0 -43 -14
-75 -31 l-59 -31 -190 -3 c-104 -2 -253 -11 -330 -20 -77 -10 -167 -19 -200
-22 -33 -2 -101 -4 -152 -4 -50 -1 -106 4 -125 10 -18 6 -73 18 -123 27 -49 9
-105 22 -124 30 -18 8 -44 14 -57 14 -12 0 -26 5 -29 10 -3 6 -16 10 -28 10
-12 1 -44 8 -72 18 -27 9 -61 25 -75 35 -14 10 -61 42 -105 70 -44 29 -104 75
-135 102 -30 28 -85 81 -121 118 -36 37 -83 80 -106 95 -22 15 -55 41 -74 57
-19 17 -47 50 -63 73 -16 23 -32 42 -36 42 -4 0 -17 10 -28 23 -11 12 -56 65
-99 117 -43 52 -83 106 -89 120 -7 14 -42 86 -78 161 -46 93 -75 140 -92 149
-13 7 -45 47 -71 87 -26 41 -58 80 -73 88 -14 7 -55 21 -90 31 -44 11 -105 18
-185 18 -101 1 -131 -3 -190 -23 -38 -13 -95 -32 -125 -43 -30 -10 -84 -38
-120 -60 -36 -23 -89 -57 -119 -77 -29 -20 -67 -44 -82 -54 -16 -11 -57 -23
-92 -28 -34 -4 -111 -15 -172 -24 -60 -8 -123 -20 -140 -26 -16 -6 -55 -22
-85 -36 -30 -14 -98 -53 -150 -87 -52 -34 -111 -77 -130 -95 -19 -18 -57 -50
-85 -71 -27 -21 -63 -52 -80 -67 -16 -16 -51 -51 -76 -79 -26 -27 -49 -61 -53
-76 -4 -18 -1 -32 10 -42 8 -9 28 -16 42 -16 15 0 38 7 50 16 13 8 53 24 90
35 53 15 89 18 180 15 62 -3 119 -9 125 -14 7 -5 59 -14 117 -21 58 -6 176
-18 263 -26 87 -8 162 -17 166 -19 5 -3 25 -45 46 -93 21 -48 61 -138 90 -198
30 -61 65 -140 80 -177 14 -36 37 -76 51 -89 13 -12 24 -30 24 -40 0 -10 4
-20 9 -23 5 -3 12 -18 15 -32 4 -15 27 -52 50 -83 24 -31 65 -79 92 -108 27
-29 83 -96 124 -149 41 -53 89 -111 105 -129 17 -18 64 -72 105 -120 41 -49
117 -132 169 -186 51 -54 100 -107 108 -118 7 -11 37 -36 66 -55 29 -19 64
-38 80 -41 15 -4 29 -11 32 -15 3 -5 61 -36 129 -69 67 -34 127 -61 131 -61 5
0 17 -8 28 -17 10 -10 40 -30 65 -45 26 -15 67 -37 92 -49 25 -12 68 -32 95
-45 28 -12 64 -26 80 -30 17 -4 42 -13 58 -21 17 -9 27 -22 27 -36 0 -12 10
-47 23 -77 13 -30 31 -71 41 -90 11 -19 30 -49 42 -66 13 -17 24 -40 24 -52 0
-11 -15 -41 -34 -65 -19 -25 -42 -60 -51 -79 -10 -18 -35 -54 -56 -80 -22 -26
-39 -51 -39 -55 0 -5 -13 -22 -30 -38 -20 -19 -30 -38 -30 -59 0 -16 -10 -45
-22 -63 -21 -30 -28 -33 -73 -33 -28 0 -76 -7 -107 -15 -31 -8 -73 -23 -94
-34 -34 -18 -53 -20 -154 -16 -63 3 -140 7 -170 9 -30 3 -80 8 -111 12 -36 4
-64 2 -77 -5 -16 -9 -49 -9 -128 -1 -61 6 -111 7 -117 2 -7 -5 -30 -7 -52 -4
-22 2 -53 4 -70 4 -16 1 -68 5 -115 10 -47 5 -124 11 -172 12 -47 2 -90 6 -95
9 -5 3 -81 8 -169 12 -87 3 -184 10 -214 15 -30 5 -143 10 -250 11 -107 0
-271 -2 -365 -6 -93 -3 -190 -6 -215 -6 -25 -1 -189 -1 -365 0 -184 1 -375 -4
-450 -10 -80 -8 -360 -14 -730 -15 -330 -1 -670 2 -755 7 -85 5 -241 10 -346
12 l-191 2 -37 33 c-34 30 -41 32 -112 32 -41 0 -85 5 -97 12 -15 8 -79 13
-194 13 -122 0 -176 4 -185 13 -7 7 -29 12 -49 12 -34 0 -37 2 -43 38 -3 20
-9 123 -12 227 -3 105 -10 215 -15 245 -6 30 -12 87 -15 125 -3 39 -8 84 -12
100 -4 17 -7 77 -7 135 1 58 5 123 9 146 6 35 12 42 44 54 20 7 51 23 67 36
17 12 71 43 120 68 50 25 107 55 127 68 20 13 73 55 119 93 45 39 107 104 138
145 31 41 71 100 90 130 18 30 43 75 55 100 12 25 27 54 33 65 6 11 15 31 21
45 5 14 15 39 22 55 6 17 18 48 25 70 7 22 23 72 34 110 11 39 23 84 26 100 3
17 10 55 16 85 5 30 12 71 15 90 3 19 9 46 14 60 4 14 11 48 14 75 4 28 9 82
12 120 3 39 9 106 15 150 5 44 13 141 18 215 4 74 7 248 6 385 -1 138 1 300 6
360 4 61 12 148 18 195 6 47 14 189 18 315 5 127 7 326 5 444 -2 143 -7 229
-16 260 -7 25 -19 66 -25 91 -6 25 -14 61 -17 80 -2 19 -12 54 -20 79 -8 24
-25 57 -37 72 -12 15 -35 48 -50 73 -16 25 -42 56 -58 68 -17 13 -58 46 -92
74 -34 27 -86 67 -115 86 -29 20 -76 46 -105 56 -29 11 -82 26 -117 33 -36 6
-69 15 -75 19 -5 4 -38 17 -71 28 -34 12 -97 26 -140 31 -44 6 -101 13 -129
16 -27 3 -63 7 -80 8z m-40 -98 c22 -2 96 -10 165 -18 92 -10 160 -25 255 -56
72 -23 155 -50 185 -59 30 -9 83 -37 117 -62 35 -25 63 -49 63 -54 0 -4 -10
-5 -22 -2 -13 4 -63 11 -113 17 -49 6 -135 9 -190 5 -55 -3 -127 -10 -160 -16
-34 -5 -96 -19 -140 -30 -43 -11 -97 -31 -119 -44 -23 -13 -54 -26 -70 -30
-16 -4 -73 -36 -125 -71 -53 -35 -119 -86 -146 -112 -28 -27 -73 -86 -100
-131 -28 -45 -56 -93 -62 -106 -7 -12 -20 -56 -28 -96 -9 -41 -21 -80 -27 -88
-7 -8 -14 -21 -15 -31 -2 -9 2 -43 8 -76 7 -33 21 -77 31 -98 10 -21 39 -64
63 -95 24 -31 70 -82 102 -114 38 -37 84 -69 135 -92 43 -20 97 -44 120 -52
24 -8 101 -22 173 -30 71 -8 146 -19 165 -25 19 -5 83 -12 141 -16 67 -4 131
-1 175 7 38 6 83 16 99 21 17 5 84 25 150 46 66 20 127 42 135 48 8 6 32 21
53 33 21 12 43 22 48 22 6 0 8 -53 4 -147 -3 -82 -7 -168 -10 -192 -2 -24 -9
-69 -15 -101 -6 -32 -12 -231 -14 -442 -2 -211 -9 -437 -15 -503 -6 -66 -13
-138 -16 -160 -2 -22 -7 -74 -10 -115 -4 -41 -13 -109 -21 -150 -8 -41 -21
-111 -30 -155 -9 -44 -22 -107 -30 -140 -9 -33 -20 -76 -25 -95 -5 -19 -11
-42 -13 -51 -3 -9 -15 -41 -27 -70 -13 -30 -31 -65 -41 -78 -9 -13 -31 -51
-48 -85 -17 -33 -41 -78 -53 -98 -13 -20 -30 -45 -40 -56 -9 -10 -17 -24 -17
-30 0 -6 -26 -37 -57 -68 -32 -32 -84 -79 -117 -106 -33 -28 -119 -79 -200
-120 -77 -38 -148 -75 -156 -82 -8 -7 -42 -22 -75 -35 -33 -13 -82 -34 -110
-46 -27 -12 -77 -30 -110 -39 -33 -10 -85 -26 -115 -37 -30 -10 -82 -24 -115
-30 -33 -6 -80 -14 -105 -16 -25 -2 -52 -7 -60 -10 -8 -3 -25 -8 -37 -10 -15
-2 -23 1 -23 11 0 8 11 27 24 43 13 15 49 71 81 123 31 52 61 97 66 98 5 2 9
8 9 14 0 6 12 26 28 44 15 19 43 54 63 77 19 23 54 69 76 102 22 33 50 76 61
95 12 19 34 60 49 90 15 30 42 79 60 108 18 29 33 55 33 57 0 3 9 24 19 48 11
23 35 76 54 118 19 42 51 116 70 165 19 49 45 121 57 159 13 39 29 97 37 130
8 33 20 101 28 150 8 50 20 141 26 204 8 76 10 189 5 345 -4 127 -12 265 -17
306 -6 41 -12 103 -14 138 -2 35 -11 74 -20 88 -10 16 -25 24 -43 24 -16 0
-36 -6 -46 -13 -10 -8 -17 -26 -18 -47 0 -19 7 -71 16 -115 9 -44 19 -125 22
-180 2 -55 6 -138 8 -185 2 -47 7 -121 11 -165 5 -57 0 -128 -15 -249 -11 -93
-25 -189 -31 -215 -5 -25 -22 -84 -36 -131 -14 -47 -41 -125 -60 -175 -19 -49
-46 -115 -60 -145 -13 -30 -44 -93 -67 -140 -23 -47 -66 -130 -95 -185 -30
-55 -62 -112 -72 -127 -11 -14 -19 -29 -19 -34 0 -4 -15 -27 -32 -51 -18 -24
-52 -69 -75 -99 -24 -31 -43 -59 -43 -63 0 -3 -20 -28 -45 -56 -25 -27 -45
-56 -45 -63 0 -7 -7 -24 -16 -37 -9 -13 -17 -32 -19 -42 -2 -10 -4 -20 -4 -24
-1 -3 -29 -35 -63 -72 -35 -37 -73 -81 -86 -96 -12 -16 -42 -42 -67 -58 -29
-18 -45 -35 -45 -48 0 -13 -29 -49 -72 -92 -40 -39 -95 -90 -123 -115 -27 -24
-90 -73 -140 -109 -49 -36 -104 -75 -122 -87 -17 -12 -45 -25 -61 -28 l-31 -6
2 253 c1 140 1 306 -1 369 -1 63 1 270 5 460 4 190 7 406 7 480 0 74 -2 178
-3 230 -2 52 -3 219 -3 370 -1 151 -1 313 -1 360 1 47 8 178 17 292 9 114 16
236 16 272 0 36 6 77 14 93 8 15 19 57 25 93 6 36 13 90 15 120 2 31 8 65 14
75 6 11 16 54 22 95 6 41 20 113 31 160 11 47 23 94 28 105 5 11 14 40 21 65
7 25 21 70 31 101 10 31 19 73 19 93 0 23 5 39 15 42 8 4 21 27 29 53 7 25 29
75 49 111 19 36 38 83 42 105 4 22 15 49 25 60 10 11 26 36 37 57 10 20 26 53
37 75 10 21 28 58 40 83 11 25 23 47 26 50 3 3 17 26 30 53 14 26 28 47 32 47
5 0 8 5 8 12 0 6 7 18 15 27 8 9 29 33 46 53 17 21 59 60 94 88 34 27 69 50
76 50 7 0 38 17 69 39 30 21 69 41 85 44 17 3 48 11 70 17 22 6 101 18 175 25
74 7 153 12 175 10z m532 -336 c95 1 134 -4 240 -30 81 -20 142 -40 166 -57
21 -14 49 -44 62 -66 12 -23 30 -72 39 -111 8 -38 23 -101 32 -140 10 -38 19
-96 22 -128 2 -33 -1 -63 -7 -71 -6 -7 -10 -43 -9 -80 1 -42 -2 -70 -9 -74 -7
-4 -15 -43 -19 -86 -6 -67 -11 -84 -33 -106 -14 -14 -40 -36 -57 -48 -17 -11
-48 -27 -70 -35 -21 -8 -63 -25 -93 -36 -29 -12 -96 -30 -150 -40 -53 -11
-121 -22 -151 -25 -34 -4 -110 2 -200 15 -80 11 -174 24 -210 29 -36 5 -81 13
-100 18 -19 5 -51 16 -70 25 -19 8 -49 21 -67 27 -17 7 -58 37 -90 68 -33 32
-71 73 -85 92 -15 19 -40 61 -57 94 -17 32 -31 72 -31 90 0 17 9 62 20 99 10
38 29 90 41 115 13 26 51 82 85 124 34 42 90 100 125 127 35 27 93 65 129 84
36 19 100 46 142 61 43 16 126 36 185 46 60 10 159 18 220 19z m4790 -1807
c51 -2 114 -9 140 -16 42 -11 54 -20 100 -82 28 -38 67 -87 85 -108 18 -21 40
-51 49 -66 9 -14 20 -37 24 -51 4 -13 13 -31 20 -39 6 -8 21 -33 32 -55 12
-22 27 -55 35 -73 8 -18 48 -72 89 -120 41 -47 89 -102 107 -121 18 -19 40
-47 47 -62 8 -15 24 -30 35 -34 11 -3 20 -11 20 -16 0 -5 15 -24 33 -42 18
-18 52 -45 77 -62 25 -16 82 -68 127 -115 45 -47 90 -93 100 -103 10 -10 40
-36 68 -58 27 -21 55 -39 61 -39 6 0 30 -13 52 -30 23 -16 49 -30 57 -30 9 0
28 -8 42 -17 15 -10 43 -24 63 -31 19 -8 73 -24 120 -36 47 -13 123 -31 170
-40 47 -9 110 -21 140 -27 30 -5 118 -8 195 -8 77 1 194 9 260 17 66 9 212 17
325 19 143 3 211 0 227 -8 13 -7 34 -9 55 -4 18 4 87 9 153 12 66 2 171 -1
233 -7 62 -7 115 -17 118 -22 4 -5 -16 -31 -42 -56 -27 -26 -78 -80 -114 -120
-36 -40 -93 -92 -126 -117 -34 -24 -88 -59 -120 -76 -33 -18 -65 -37 -72 -42
-7 -6 -41 -26 -75 -44 -34 -18 -84 -44 -112 -56 -27 -13 -79 -33 -115 -45 -36
-11 -121 -30 -190 -41 -69 -11 -163 -29 -210 -39 -47 -11 -105 -22 -130 -26
-25 -3 -62 -9 -84 -11 -21 -3 -41 -7 -45 -9 -3 -2 -74 6 -156 19 -83 13 -170
28 -195 34 -25 6 -54 15 -65 20 -11 4 -54 23 -95 41 -41 17 -91 36 -111 41
-19 4 -80 31 -135 60 -54 28 -137 75 -184 103 -47 29 -102 60 -122 69 -20 10
-40 22 -43 27 -3 6 -17 10 -30 10 -13 0 -36 -5 -50 -12 -18 -8 -25 -19 -25
-39 0 -17 8 -34 22 -43 12 -9 28 -16 35 -16 6 0 40 -14 75 -30 35 -17 79 -39
98 -50 19 -11 46 -30 60 -43 14 -13 64 -42 111 -65 47 -23 121 -53 165 -68 43
-14 97 -34 119 -44 22 -10 74 -28 115 -40 41 -12 86 -26 100 -31 14 -5 63 -14
110 -19 47 -6 121 -13 165 -16 51 -4 109 0 160 9 44 9 132 27 195 41 63 14
160 32 215 40 55 7 118 19 140 25 22 5 60 20 85 32 25 11 70 32 100 46 30 14
73 34 95 46 22 11 47 26 55 32 8 7 31 22 50 33 19 11 71 41 115 68 58 35 118
86 215 184 74 75 157 161 183 192 47 55 48 57 39 105 -7 40 -11 47 -27 45 -11
-2 -58 -5 -105 -8 -54 -3 -103 0 -134 9 -27 7 -51 18 -54 25 -2 7 4 12 13 12
10 0 50 11 89 25 39 14 80 29 91 34 11 5 40 17 65 27 25 10 69 33 98 51 29 18
61 33 72 33 11 0 57 -27 102 -60 46 -34 102 -75 126 -93 24 -18 88 -68 143
-112 54 -44 113 -91 130 -105 18 -14 48 -35 68 -47 20 -12 62 -36 94 -54 31
-17 57 -35 57 -39 0 -4 -22 -15 -49 -24 -28 -9 -54 -16 -60 -16 -6 0 -45 -16
-87 -36 -48 -22 -108 -40 -163 -49 -48 -8 -104 -21 -124 -30 -20 -8 -45 -15
-55 -15 -10 0 -45 -13 -78 -29 -32 -16 -77 -37 -99 -46 -22 -10 -85 -39 -140
-65 -55 -26 -125 -59 -155 -73 -30 -14 -92 -50 -137 -79 -45 -29 -103 -65
-130 -81 -26 -15 -64 -37 -83 -49 -19 -11 -78 -43 -130 -71 -52 -27 -117 -64
-145 -81 -27 -17 -59 -37 -70 -43 -11 -7 -81 -43 -155 -81 -74 -38 -148 -76
-165 -84 -16 -9 -50 -25 -75 -36 -25 -12 -79 -32 -120 -46 -56 -19 -118 -29
-240 -39 -91 -8 -184 -12 -206 -10 -24 3 -44 0 -48 -6 -4 -6 -34 -11 -66 -11
-32 0 -61 4 -64 8 -3 5 -62 9 -131 10 -70 1 -135 7 -145 12 -10 6 -28 10 -39
10 -11 0 -80 23 -153 51 -73 28 -140 55 -148 60 -8 5 -24 13 -35 18 -12 5 -27
16 -34 25 -7 9 -18 16 -23 16 -5 0 -32 15 -61 33 -29 18 -83 46 -122 61 -38
15 -81 34 -95 41 -14 8 -50 27 -80 43 -38 20 -87 64 -155 137 -54 59 -117 126
-139 149 -22 23 -80 91 -130 151 -50 61 -95 118 -101 126 -5 9 -22 34 -36 55
-15 21 -37 48 -49 59 -12 11 -36 40 -53 65 -17 25 -45 59 -62 76 -16 17 -51
58 -76 90 -25 33 -53 75 -63 94 -9 19 -28 53 -42 75 -13 22 -27 47 -30 55 -3
8 -10 24 -15 35 -5 11 -13 31 -19 45 -5 14 -14 32 -19 40 -5 8 -28 58 -50 111
-23 53 -41 102 -41 108 0 6 -13 41 -29 76 -17 36 -27 65 -24 65 3 0 -6 12 -21
26 -24 25 -33 27 -133 30 -60 1 -177 10 -261 18 -85 9 -160 20 -168 24 -10 5
6 12 48 20 35 7 95 14 133 17 39 3 118 8 178 13 59 5 112 13 118 19 6 6 6 18
0 35 -5 14 -15 27 -23 30 -7 3 -56 4 -108 2 -52 -1 -142 -7 -200 -13 -58 -6
-143 -15 -190 -20 -47 -5 -109 -14 -138 -21 -28 -6 -57 -10 -64 -8 -6 2 16 27
49 55 33 27 103 75 154 106 52 31 116 66 143 78 28 12 84 26 125 31 42 5 105
11 141 14 36 3 88 6 115 7 48 2 53 6 129 79 43 43 96 86 116 97 21 11 47 24
57 29 10 5 41 19 68 31 28 11 77 27 110 35 33 8 71 16 85 18 14 2 66 1 117 0z
m-5345 -2483 c4 1 10 -3 13 -9 3 -5 2 -34 -4 -64 -7 -37 -7 -75 0 -118 6 -35
12 -83 14 -108 2 -25 9 -94 15 -155 6 -60 13 -216 14 -345 2 -129 7 -242 11
-251 3 -10 2 -20 -3 -23 -6 -3 -26 1 -47 9 -20 9 -71 22 -113 30 -42 8 -129
24 -192 35 -63 11 -126 19 -140 18 l-25 -3 0 205 c1 113 4 304 8 424 4 121 8
221 10 222 2 2 28 8 58 14 30 5 99 24 154 41 55 17 127 41 160 54 33 13 63 24
67 24z m6804 -345 c70 -2 81 -5 99 -27 11 -13 41 -54 68 -90 26 -36 47 -75 47
-86 0 -12 6 -31 13 -44 6 -12 17 -29 23 -37 6 -8 16 -34 24 -57 l13 -41 -58
-89 c-32 -48 -88 -122 -125 -163 -37 -41 -71 -83 -77 -93 -5 -11 -43 -34 -84
-51 -49 -22 -92 -33 -124 -34 -27 0 -53 2 -56 4 -4 2 15 43 43 92 28 48 57
102 65 121 8 19 33 59 56 90 22 31 44 57 48 59 5 2 26 30 49 63 22 32 40 67
40 77 0 9 -9 35 -21 57 -12 22 -39 64 -61 93 -21 29 -46 71 -54 94 -8 23 -13
47 -10 53 2 7 32 11 82 9z m-9157 -789 c8 -3 177 -8 375 -10 199 -3 375 -7
391 -10 17 -2 106 1 199 8 93 7 199 10 235 6 36 -4 129 -4 206 0 77 5 179 7
228 6 85 -1 88 -2 122 -35 20 -19 39 -46 42 -60 3 -14 15 -31 25 -38 13 -10
18 -26 18 -59 0 -26 -8 -65 -19 -87 -10 -23 -24 -55 -31 -73 -6 -17 -9 -41 -5
-53 6 -18 12 -20 38 -14 18 3 40 13 49 21 9 8 20 28 23 43 3 16 13 34 21 41 8
6 14 19 14 28 0 9 7 25 15 35 8 11 15 37 15 59 0 27 -9 53 -30 84 -16 24 -30
53 -30 64 0 12 7 19 19 19 11 0 37 -10 58 -22 21 -12 42 -28 46 -35 4 -7 14
-13 22 -13 8 0 19 -9 25 -19 5 -11 10 -32 10 -48 0 -16 -9 -45 -20 -66 -11
-20 -20 -52 -20 -71 0 -25 7 -39 22 -50 12 -9 30 -16 39 -16 9 0 23 8 32 18 9
9 24 51 33 92 10 41 18 101 18 132 0 47 -5 63 -24 83 -13 14 -21 27 -19 29 3
3 22 1 44 -4 22 -5 57 -10 78 -10 24 0 44 -7 58 -21 11 -11 18 -27 15 -37 -3
-9 -8 -37 -11 -62 -2 -25 -7 -63 -11 -85 -5 -31 -2 -46 13 -64 14 -17 25 -22
40 -17 11 4 33 18 48 31 24 23 26 30 21 78 -4 28 -3 75 1 102 7 41 12 51 30
53 13 2 41 -10 65 -27 24 -17 54 -40 67 -51 13 -12 27 -37 31 -59 4 -22 3 -46
-2 -56 -7 -11 -5 -24 6 -40 9 -14 28 -28 43 -31 21 -6 31 -2 48 20 14 17 20
37 17 54 -2 15 0 43 5 62 7 26 5 42 -6 62 -9 15 -26 32 -38 37 -13 6 -23 14
-23 19 0 5 26 7 58 5 31 -2 72 -6 90 -9 26 -4 32 -10 34 -32 1 -15 3 -49 4
-77 1 -27 4 -62 6 -77 3 -14 12 -34 21 -42 8 -9 23 -16 32 -16 9 0 32 12 51
26 19 15 34 34 34 44 0 9 -9 25 -20 35 -15 14 -20 31 -20 71 0 31 5 56 13 61
6 4 20 6 29 5 10 -2 45 -6 79 -10 l62 -7 13 -50 c7 -27 10 -67 7 -87 -4 -28 0
-44 17 -67 12 -17 27 -31 34 -31 7 0 23 9 36 20 20 17 22 29 24 117 l1 98 135
-2 c74 -1 209 -6 300 -11 91 -6 406 -9 700 -8 294 1 582 4 640 8 58 4 123 9
145 12 22 3 112 8 200 11 88 3 457 6 820 7 363 1 694 -2 735 -6 41 -4 113 -14
160 -21 47 -8 121 -17 165 -20 44 -3 154 -7 245 -10 91 -3 253 -7 360 -10 107
-3 281 -10 385 -16 119 -7 193 -16 198 -23 4 -6 10 -22 13 -36 4 -14 12 -32
19 -40 7 -8 15 -28 19 -43 6 -24 11 -28 34 -25 24 3 27 7 25 38 -1 19 -5 50
-8 68 -5 20 -3 38 5 47 7 8 25 15 41 15 15 0 31 -4 34 -10 3 -5 -3 -27 -15
-50 -18 -36 -19 -43 -6 -74 8 -18 24 -41 37 -50 13 -9 28 -16 34 -16 5 0 21 9
35 20 l25 19 -23 23 c-12 14 -22 32 -22 42 0 10 8 31 17 46 14 24 26 30 69 36
28 3 60 4 70 2 14 -2 20 -13 22 -43 1 -22 8 -50 14 -62 6 -13 19 -23 29 -23
10 0 34 7 53 17 24 11 37 25 42 45 4 21 1 35 -12 49 -18 20 -18 20 26 17 43
-3 45 -4 51 -40 3 -21 14 -47 24 -58 10 -11 30 -20 45 -20 15 0 35 9 46 21 14
16 16 24 7 38 -7 11 -9 22 -6 25 4 3 22 6 42 6 20 0 51 -10 70 -21 19 -12 46
-23 60 -25 14 -3 39 -7 54 -10 15 -3 33 -2 40 4 7 5 34 15 60 22 34 9 75 11
145 5 53 -4 129 -8 167 -8 39 -1 102 2 140 6 39 4 99 12 135 17 36 5 111 10
166 10 82 0 104 3 115 16 12 15 40 16 274 10 143 -3 278 -10 300 -16 30 -7 63
-5 135 10 72 14 148 20 315 22 l220 3 74 -70 c42 -41 83 -90 96 -118 17 -34
25 -74 30 -143 6 -74 3 -110 -10 -166 -14 -54 -28 -84 -63 -127 -25 -31 -50
-59 -56 -63 -6 -4 -72 -6 -146 -3 -74 3 -169 1 -210 -5 -41 -5 -129 -12 -195
-15 -66 -3 -187 -4 -270 -3 -82 1 -207 2 -276 2 -92 1 -133 -3 -153 -14 -20
-10 -29 -11 -34 -3 -5 8 -48 12 -132 12 -69 0 -150 -5 -180 -10 -30 -5 -145
-11 -255 -14 -110 -3 -254 -9 -320 -13 -66 -4 -169 -4 -230 0 -60 4 -294 10
-520 13 -225 3 -468 8 -540 10 -71 2 -193 8 -270 12 -77 4 -401 8 -720 7 -319
0 -616 -1 -660 -3 -44 -2 -156 0 -250 4 -93 4 -330 7 -525 6 -195 -1 -420 -2
-500 -3 -80 -1 -201 -1 -270 0 -69 1 -134 3 -145 4 -11 1 -130 1 -265 1 -135
-1 -270 -4 -300 -7 -30 -4 -80 -8 -112 -10 -31 -2 -67 -7 -80 -12 -12 -4 -52
-6 -86 -6 -35 1 -69 -1 -75 -5 -6 -4 -36 -5 -66 -4 -31 2 -65 3 -76 2 -11 0
-69 -3 -130 -6 -60 -3 -342 -7 -625 -9 -283 -3 -620 -7 -749 -10 -129 -2 -363
-5 -520 -5 -157 0 -342 4 -411 8 -69 5 -274 10 -455 10 -232 1 -369 6 -460 17
-72 8 -168 15 -215 14 -47 0 -94 -2 -105 -3 -11 -1 -57 2 -102 6 -58 6 -83 12
-83 21 0 8 7 31 16 52 8 22 21 53 29 69 8 17 18 57 24 90 5 33 13 112 16 175
6 97 4 129 -13 200 -11 47 -30 107 -42 135 -12 27 -32 64 -45 81 -13 17 -21
34 -18 38 4 4 14 4 22 1z m-169 -65 c4 0 19 -9 33 -20 14 -11 37 -41 52 -67
16 -25 32 -63 37 -82 5 -20 14 -54 20 -76 5 -22 12 -74 14 -115 2 -41 -3 -110
-11 -154 -8 -43 -22 -90 -30 -105 -8 -14 -19 -38 -25 -52 -6 -14 -19 -41 -29
-60 -12 -23 -27 -35 -44 -37 -20 -3 -38 9 -84 55 -50 50 -60 67 -72 118 -7 33
-13 99 -12 148 1 49 6 121 11 160 6 39 17 97 26 129 8 32 19 69 25 81 6 12 27
34 46 50 20 15 39 27 43 27z m10114 -63 c64 1 114 -2 111 -6 -2 -5 -47 -12
-99 -16 -52 -4 -104 -4 -115 0 -12 3 -19 9 -17 13 2 4 56 8 120 9z"/>
<g>
<path d="M4723 8399 c-10 0 -36 -7 -58 -15 -27 -9 -44 -23 -52 -42 -6 -15 -14
-42 -18 -60 -5 -23 -2 -40 9 -57 9 -13 26 -30 38 -36 13 -7 38 -16 57 -20 23
-5 46 -3 67 6 17 7 39 23 48 36 10 14 16 43 16 74 0 27 -6 57 -13 66 -7 9 -26
23 -44 32 -18 10 -40 17 -50 16z"/>
</g>
<g>
<path d="M3980 8359 c-33 1 -52 -5 -71 -22 -15 -12 -35 -37 -45 -54 -14 -25
-16 -39 -9 -59 6 -15 26 -39 45 -55 25 -19 52 -30 93 -34 40 -5 57 -4 57 4 0
7 10 25 21 41 16 21 22 44 23 86 1 57 0 59 -34 76 -19 9 -55 17 -80 17z"/>
</g>
<g>
<path d="M4502 8139 c-20 0 -59 -9 -85 -18 -27 -10 -58 -28 -70 -40 -19 -19
-22 -32 -21 -108 0 -81 2 -87 28 -110 15 -12 35 -23 45 -23 10 0 30 -17 44
-37 14 -21 31 -51 36 -66 6 -16 11 -45 11 -66 0 -21 3 -41 8 -45 4 -4 8 -12 8
-17 1 -5 2 -13 3 -19 0 -5 12 -17 26 -26 16 -10 34 -14 50 -10 20 5 33 23 59
79 18 40 38 84 44 99 6 14 12 68 12 120 1 51 -1 102 -5 113 -4 11 -14 34 -21
52 -8 18 -29 48 -48 67 -18 19 -45 40 -60 46 -15 5 -44 10 -64 9z m29 -120 c9
-4 20 -14 26 -21 6 -7 15 -29 21 -48 6 -19 12 -61 15 -92 2 -40 0 -59 -9 -62
-8 -3 -21 13 -34 39 -12 24 -43 65 -71 92 -27 26 -49 50 -49 53 0 3 4 11 9 18
5 8 24 17 42 21 19 4 41 4 50 0z"/>
</g>
<g>
<path d="M8979 6649 c-8 0 -25 -5 -38 -10 -13 -5 -30 -17 -37 -27 -7 -9 -14
-28 -14 -42 0 -14 11 -34 27 -47 14 -13 39 -23 54 -23 16 0 37 9 49 22 11 12
20 35 20 53 0 20 -8 39 -23 53 -13 12 -30 22 -38 21z"/>
</g>
</g>
</g>
</svg>
