<?xml version="1.0" standalone="no"?>
<!DOCTYPE svg PUBLIC "-//W3C//DTD SVG 20010904//EN"
 "http://www.w3.org/TR/2001/REC-SVG-20010904/DTD/svg10.dtd">
<svg version="1.0" xmlns="http://www.w3.org/2000/svg"
 width="1934.000000pt" height="1450.000000pt" viewBox="0 0 1934.000000 1450.000000"
 preserveAspectRatio="xMidYMid meet">
<metadata>
Created by potrace 1.16, written by Peter Selinger 2001-2019
</metadata>
<g transform="translate(0.000000,1450.000000) scale(0.100000,-0.100000)"
fill="#000000" stroke="none">
<g>
<path d="M15530 13830 c-19 0 -20 -4 -15 -37 4 -21 13 -52 21 -69 7 -17 20
-37 29 -44 8 -7 15 -22 15 -35 0 -12 11 -34 24 -48 14 -15 27 -35 31 -45 3
-11 15 -30 26 -43 11 -13 36 -42 54 -64 19 -22 50 -64 70 -94 20 -29 41 -66
47 -82 5 -16 14 -29 18 -29 4 0 13 -23 20 -50 7 -28 12 -104 12 -170 0 -65 -4
-125 -8 -132 -5 -7 -12 -62 -16 -123 -4 -60 -10 -157 -12 -215 -2 -58 -8 -143
-14 -190 -6 -47 -16 -114 -22 -148 -6 -35 -8 -87 -6 -115 3 -29 10 -66 16 -84
6 -17 18 -34 26 -37 8 -3 14 -15 14 -26 0 -11 11 -37 24 -58 13 -21 40 -50 59
-65 20 -15 45 -28 57 -29 12 -2 27 4 32 13 9 12 1 26 -36 63 -25 26 -46 53
-46 60 0 7 -14 38 -30 69 -26 47 -31 67 -31 126 0 38 3 92 6 118 4 26 14 82
22 123 9 45 17 148 19 255 3 99 11 233 19 297 8 64 15 150 15 191 0 40 -6 95
-14 121 -8 26 -26 62 -40 81 -14 18 -26 38 -26 44 0 6 -4 11 -9 11 -4 0 -24
24 -43 53 -20 28 -70 91 -111 138 -42 48 -87 107 -100 132 -14 25 -34 58 -44
74 -11 15 -23 36 -26 46 -4 9 -16 17 -27 17z"/>
</g>
<g>
<path d="M14735 13178 c-9 10 -15 11 -20 2 -4 -6 -4 -28 1 -48 4 -20 9 -44 11
-52 3 -8 6 -33 8 -56 1 -22 6 -50 9 -61 4 -12 7 -67 7 -124 1 -60 -6 -132 -14
-171 -9 -37 -32 -100 -52 -140 -20 -40 -52 -89 -71 -110 -19 -21 -34 -41 -34
-46 0 -4 -25 -33 -55 -65 -30 -32 -55 -64 -55 -72 0 -8 -11 -22 -25 -31 -13
-9 -38 -38 -54 -64 -16 -26 -38 -56 -49 -66 -11 -11 -41 -68 -66 -127 -25 -59
-46 -112 -46 -118 0 -5 -4 -17 -9 -27 -5 -9 -17 -40 -25 -69 -10 -33 -15 -75
-12 -115 2 -38 14 -86 29 -119 14 -33 39 -68 60 -85 20 -15 66 -38 104 -50 39
-14 93 -23 128 -23 43 0 67 5 84 18 13 10 21 23 17 30 -4 6 -22 11 -41 11 -18
0 -53 8 -77 19 -24 10 -64 22 -88 26 -32 5 -53 17 -79 45 -20 20 -40 52 -46
71 -5 19 -7 59 -4 89 4 30 10 73 14 95 4 22 32 91 61 154 30 62 70 131 89 153
19 22 33 44 32 47 -1 4 10 20 25 37 14 16 52 58 83 94 32 36 65 76 73 90 9 14
31 43 48 65 18 22 44 63 58 91 14 29 26 63 26 77 0 15 6 30 13 34 7 4 19 33
26 64 11 45 11 84 3 185 -6 79 -17 141 -26 159 -9 17 -16 38 -16 48 0 10 -7
42 -16 70 -9 29 -22 58 -29 65z"/>
</g>
<g>
<path d="M6285 12228 c-77 0 -162 -4 -190 -8 -27 -4 -71 -15 -97 -25 -27 -9
-50 -21 -54 -26 -3 -5 -15 -9 -27 -9 -12 0 -35 -7 -51 -15 -15 -8 -35 -15 -42
-15 -8 0 -36 -11 -62 -24 -26 -13 -67 -26 -92 -29 -25 -3 -66 -15 -93 -27 -26
-12 -57 -34 -69 -50 -12 -17 -29 -30 -39 -30 -9 0 -40 -19 -69 -42 -29 -24
-90 -78 -135 -121 -61 -58 -85 -87 -89 -111 -4 -18 -17 -43 -31 -56 -14 -13
-25 -29 -25 -36 0 -7 -13 -28 -30 -46 -16 -18 -30 -43 -30 -55 0 -13 -15 -40
-34 -60 -18 -21 -41 -54 -51 -73 -11 -19 -22 -57 -27 -85 -4 -27 -13 -93 -18
-145 -9 -78 -8 -106 5 -155 8 -33 19 -104 25 -158 6 -54 16 -108 24 -120 8
-12 27 -60 42 -107 16 -47 37 -94 46 -104 10 -11 18 -30 18 -42 0 -12 7 -27
15 -34 8 -7 15 -18 15 -25 0 -7 7 -18 15 -25 8 -7 15 -21 15 -31 0 -10 8 -24
18 -31 9 -7 25 -25 35 -40 9 -15 17 -31 17 -36 0 -5 21 -31 48 -59 26 -28 59
-58 75 -68 15 -10 27 -26 27 -36 0 -11 7 -19 18 -20 9 0 46 -15 82 -33 36 -19
98 -50 138 -70 71 -35 73 -37 68 -68 -2 -17 -18 -45 -35 -62 -17 -18 -38 -55
-46 -83 -8 -28 -21 -56 -29 -62 -8 -7 -17 -24 -21 -39 -4 -15 -13 -34 -21 -43
-7 -8 -15 -24 -17 -35 -1 -10 -5 -23 -8 -29 -4 -5 -9 -26 -13 -46 -3 -20 -15
-55 -27 -78 -11 -23 -17 -46 -14 -50 2 -5 -2 -22 -10 -37 -8 -16 -15 -39 -15
-51 0 -13 -3 -23 -7 -24 -5 0 -15 -2 -23 -3 -8 -2 -51 -7 -95 -11 -44 -4 -96
-9 -115 -10 -19 -2 -60 -7 -90 -12 -31 -5 -61 -12 -67 -16 -6 -4 -44 -14 -84
-22 -41 -9 -110 -29 -154 -45 -44 -16 -103 -31 -131 -33 -28 -3 -60 -10 -72
-16 -17 -9 -22 -21 -22 -54 0 -31 -5 -45 -20 -55 -11 -7 -20 -16 -20 -21 0 -5
-8 -26 -17 -47 -9 -22 -16 -43 -14 -48 1 -5 -7 -18 -17 -30 -11 -11 -27 -48
-37 -81 -10 -33 -26 -76 -36 -95 -9 -19 -23 -64 -29 -100 -7 -36 -23 -101 -36
-146 -13 -44 -24 -92 -24 -106 0 -15 -5 -30 -11 -33 -6 -4 -8 -13 -5 -21 3 -7
1 -16 -4 -19 -6 -4 -10 -17 -10 -30 0 -13 -4 -27 -10 -30 -5 -3 -8 -16 -6 -28
2 -12 0 -26 -4 -32 -3 -5 -14 -39 -24 -75 -10 -36 -26 -92 -36 -125 -10 -33
-22 -80 -25 -105 -4 -24 -16 -69 -26 -100 -9 -30 -20 -85 -22 -122 -2 -37 -9
-73 -15 -80 -6 -7 -15 -40 -21 -73 -6 -33 -11 -73 -10 -90 0 -16 -1 -73 -3
-125 -2 -52 -6 -100 -10 -105 -3 -6 -9 -55 -12 -109 -4 -54 -11 -107 -16 -117
-6 -10 -12 -44 -15 -76 -2 -32 -5 -58 -6 -58 -1 0 -3 -16 -6 -35 -2 -19 -7
-55 -10 -80 -2 -25 -5 -110 -6 -190 -1 -80 1 -192 6 -249 4 -58 11 -109 16
-114 5 -5 23 -10 41 -10 24 -2 37 5 53 25 18 24 19 30 6 60 -11 25 -14 92 -14
288 0 188 5 285 17 370 10 63 24 185 32 270 8 85 18 189 21 230 3 41 13 116
21 165 8 50 19 110 23 135 5 25 20 89 34 142 14 53 27 101 30 105 3 5 24 77
45 159 22 82 55 205 74 274 20 69 43 159 52 200 10 41 25 98 34 125 9 28 20
54 24 60 5 5 8 -15 7 -45 -1 -30 -7 -73 -14 -95 -7 -22 -12 -74 -11 -115 2
-41 -2 -84 -8 -95 -5 -11 -11 -87 -13 -170 -2 -82 -5 -186 -8 -230 -2 -44 -6
-140 -10 -214 -3 -74 -10 -140 -16 -147 -6 -7 -8 -44 -5 -91 3 -43 7 -120 9
-171 3 -51 0 -95 -4 -98 -5 -2 -8 -46 -8 -97 0 -51 -3 -141 -7 -202 -3 -60 -5
-114 -5 -120 1 -5 7 -118 12 -250 6 -132 11 -287 13 -345 2 -58 8 -125 14
-150 6 -25 12 -62 12 -83 0 -21 4 -46 10 -56 5 -10 10 -38 11 -62 1 -24 13
-154 26 -289 14 -135 26 -263 28 -285 2 -22 4 -78 5 -125 1 -47 6 -106 11
-131 6 -25 12 -142 15 -260 3 -118 5 -245 5 -283 0 -37 4 -77 11 -89 6 -11 12
-43 13 -71 2 -28 10 -98 19 -156 8 -58 15 -148 16 -201 0 -53 3 -99 8 -103 4
-4 8 -47 8 -94 1 -48 5 -127 9 -177 4 -49 7 -116 6 -149 -1 -32 3 -64 8 -70 5
-6 7 -96 5 -201 -1 -104 -3 -298 -2 -430 0 -132 2 -258 3 -280 1 -22 5 -47 9
-56 4 -8 3 -26 -2 -39 -5 -13 -5 -45 0 -74 5 -28 11 -108 13 -178 3 -70 5
-131 6 -135 1 -4 0 -12 -1 -18 -1 -5 -2 -39 -2 -75 0 -50 5 -75 22 -103 21
-35 26 -38 69 -37 25 0 71 -2 101 -5 30 -2 78 -10 105 -16 28 -7 87 -13 132
-15 45 -1 87 -5 92 -8 6 -4 63 -12 128 -17 65 -6 129 -17 143 -24 14 -7 39
-10 57 -8 23 4 35 13 44 35 10 26 10 35 -2 57 -9 17 -29 30 -54 37 -22 6 -53
16 -70 24 -18 7 -116 18 -240 26 -134 8 -226 18 -254 28 -24 9 -67 16 -96 16
l-53 0 -6 63 c-2 34 -4 71 -4 82 1 11 -2 56 -5 100 -4 44 -9 143 -13 220 -3
77 -8 151 -11 165 -3 14 -7 225 -10 470 -2 245 -8 495 -14 555 -6 61 -12 160
-14 220 -1 61 -6 157 -9 215 -4 58 -11 137 -16 175 -6 39 -17 138 -26 220 -9
83 -22 256 -29 385 -7 129 -16 280 -20 335 -3 55 -13 183 -21 285 -8 102 -20
219 -25 260 -6 41 -14 116 -19 165 -5 50 -18 155 -28 235 -11 80 -22 190 -24
245 l-3 100 112 7 c62 4 141 14 175 22 35 8 113 22 173 31 61 9 173 32 250 52
77 19 158 39 180 44 22 4 77 15 122 23 45 8 90 17 100 20 10 3 47 10 83 16 36
5 81 12 100 15 19 3 60 10 90 16 30 6 69 14 85 19 17 5 64 14 105 21 41 6 88
18 103 26 15 8 36 11 46 8 10 -3 62 1 117 9 54 8 100 14 102 12 2 -2 3 -71 2
-153 -1 -81 -3 -276 -6 -433 -3 -157 -7 -310 -9 -340 -2 -30 -4 -125 -3 -210
0 -85 0 -166 0 -180 -1 -14 -1 -37 -2 -52 -1 -15 2 -33 6 -40 5 -7 10 -69 12
-138 2 -69 5 -201 8 -295 3 -93 5 -197 6 -230 1 -33 0 -80 -1 -105 -1 -25 -1
-72 -1 -104 0 -32 5 -65 11 -72 7 -9 8 -28 0 -66 -6 -31 -9 -131 -6 -238 2
-102 9 -243 15 -315 6 -71 10 -164 10 -205 -1 -41 4 -111 10 -155 6 -44 13
-116 15 -159 2 -43 6 -85 9 -93 4 -8 8 -76 11 -151 3 -75 10 -173 15 -217 5
-44 12 -118 15 -165 3 -47 13 -123 22 -170 8 -47 18 -92 21 -100 2 -8 4 -36 3
-62 -2 -36 2 -51 18 -67 12 -12 21 -28 21 -36 0 -9 9 -15 25 -15 14 0 33 -4
43 -10 9 -5 36 -17 60 -25 23 -8 61 -22 85 -30 23 -8 50 -20 59 -25 10 -6 29
-10 43 -10 14 0 25 -4 25 -10 0 -5 23 -16 52 -25 28 -8 61 -15 72 -15 11 0 39
-9 63 -21 24 -12 61 -23 83 -26 30 -4 45 -1 60 12 11 10 20 24 20 32 0 7 -6
13 -14 13 -8 0 -16 7 -19 15 -4 8 -2 17 3 20 6 4 10 12 10 19 0 8 -8 16 -17
20 -10 3 -29 10 -43 15 -14 5 -64 21 -112 34 -48 14 -89 23 -91 21 -2 -2 -41
10 -88 26 -46 16 -101 35 -121 43 -21 7 -41 16 -44 20 -4 4 -15 7 -24 7 -10 0
-23 6 -30 14 -6 8 -18 50 -26 93 -8 43 -21 116 -29 163 -7 47 -19 137 -24 200
-6 63 -11 158 -11 210 0 52 -4 122 -9 155 -6 33 -12 94 -16 135 -3 41 -10 118
-15 170 -5 52 -12 160 -15 239 -3 80 -8 147 -10 151 -2 3 -6 116 -9 250 -3
135 -8 351 -11 480 -3 129 -10 264 -15 300 -5 36 -9 94 -9 130 1 36 -5 164
-12 285 -7 121 -12 342 -11 490 1 149 4 337 7 418 2 81 7 151 9 156 3 5 6 154
6 332 0 178 0 413 0 522 1 109 -6 347 -16 530 -13 280 -14 374 -5 597 7 146
18 335 26 420 8 85 19 235 24 333 6 98 12 181 15 186 3 5 25 6 48 4 24 -3 48
-9 53 -13 6 -5 33 -11 60 -15 28 -4 57 -9 65 -11 8 -2 38 -9 65 -15 28 -6 55
-15 61 -20 5 -5 39 -15 74 -23 35 -8 66 -19 69 -23 3 -5 21 -10 40 -11 18 -1
43 -9 54 -17 12 -8 38 -15 58 -15 20 0 50 -7 67 -16 18 -8 34 -19 37 -25 4 -5
16 -9 27 -9 12 0 44 -7 72 -15 28 -8 78 -22 111 -30 33 -9 110 -32 170 -51 61
-19 116 -34 123 -34 8 0 26 -6 40 -14 15 -7 63 -31 107 -51 44 -21 89 -42 100
-46 11 -4 37 -15 59 -24 21 -8 47 -15 56 -15 10 0 31 -11 47 -24 15 -13 60
-38 98 -56 39 -18 147 -70 241 -116 94 -46 176 -84 182 -84 5 0 12 -4 14 -9 2
-5 44 -29 93 -54 50 -24 133 -61 185 -82 52 -20 132 -55 177 -77 45 -22 87
-37 93 -33 5 3 10 1 10 -5 0 -5 29 -24 65 -40 36 -17 72 -30 80 -30 7 0 16 -4
19 -9 3 -5 16 -11 28 -14 13 -3 47 -14 76 -25 29 -11 60 -29 70 -40 9 -10 61
-38 115 -62 53 -24 101 -40 105 -36 4 4 8 20 9 34 1 15 3 42 5 60 3 32 2 32
-107 85 -61 28 -129 63 -150 76 -22 14 -44 25 -50 26 -5 1 -23 5 -40 9 -16 5
-64 24 -105 44 -41 19 -120 56 -176 82 -56 26 -130 58 -165 70 -35 13 -176 80
-314 149 -137 70 -266 133 -285 140 -19 8 -89 40 -155 72 -66 31 -152 71 -191
88 -39 17 -75 31 -81 31 -6 0 -24 7 -40 15 -15 7 -48 23 -73 34 -25 11 -74 28
-110 37 -36 9 -72 23 -81 31 -10 8 -41 21 -70 29 -30 9 -90 24 -134 35 -44 11
-109 29 -145 39 -36 10 -81 23 -100 29 -19 5 -55 17 -80 26 -25 9 -58 22 -75
29 -16 8 -75 27 -130 44 -55 17 -125 37 -155 45 -30 9 -100 23 -155 32 -55 9
-109 20 -120 25 -11 4 -33 13 -48 19 -16 6 -33 8 -40 4 -6 -3 -67 -8 -136 -9
-70 -2 -140 -6 -156 -9 -17 -4 -57 -11 -90 -16 -33 -6 -94 -12 -135 -14 -41
-2 -118 -9 -170 -15 -52 -6 -158 -15 -235 -19 -77 -4 -141 -7 -143 -5 -2 1 4
31 14 66 9 34 20 68 24 73 4 6 20 46 35 89 15 44 50 125 78 180 28 56 67 123
85 149 18 27 31 55 29 62 -4 10 2 10 31 3 20 -6 64 -14 97 -20 33 -5 75 -16
93 -24 18 -8 66 -19 105 -25 40 -5 101 -10 137 -10 36 0 81 5 100 11 19 6 66
15 104 20 38 4 71 12 75 17 3 5 38 17 76 27 39 9 86 22 106 28 20 6 42 8 48 4
6 -4 30 3 53 14 24 12 66 28 93 36 28 8 64 21 80 28 17 8 44 20 60 27 17 7 54
29 84 47 30 19 88 68 129 110 41 43 100 108 130 146 30 38 66 90 79 115 14 25
31 53 38 61 8 9 30 47 49 85 19 39 42 97 51 130 8 33 22 110 30 172 9 65 13
145 10 190 -3 43 -12 116 -21 163 -8 47 -31 135 -51 195 -19 61 -46 133 -59
160 -13 28 -38 71 -56 96 -18 25 -60 78 -93 118 -33 40 -80 96 -104 124 -25
29 -70 70 -100 93 -31 22 -78 53 -106 69 -27 15 -79 39 -115 52 -36 14 -83 29
-105 34 -22 6 -58 14 -80 18 -22 4 -50 13 -63 20 -13 7 -76 17 -140 21 -64 5
-180 9 -257 8z m-15 -120 c8 1 77 -3 153 -9 76 -5 182 -19 235 -29 53 -10 131
-31 172 -45 41 -14 84 -32 97 -40 12 -8 27 -15 34 -15 6 0 31 -15 57 -32 25
-18 66 -54 91 -81 25 -26 72 -76 104 -110 33 -34 79 -89 103 -123 24 -34 61
-97 82 -140 21 -43 44 -97 50 -119 6 -22 18 -66 27 -97 9 -31 23 -92 30 -135
8 -43 14 -110 15 -149 0 -39 -4 -95 -10 -123 -5 -29 -11 -78 -12 -109 -1 -31
-8 -68 -15 -82 -7 -14 -13 -29 -13 -34 0 -5 -17 -34 -37 -65 -20 -31 -52 -75
-70 -99 -18 -24 -33 -48 -33 -53 0 -5 -27 -42 -59 -82 -33 -39 -79 -91 -103
-115 -24 -23 -72 -61 -107 -84 -35 -22 -89 -49 -120 -60 -31 -11 -74 -28 -95
-39 -22 -10 -48 -19 -57 -19 -10 0 -20 9 -24 19 -3 11 -14 22 -23 25 -9 3 -44
10 -77 15 -33 6 -129 15 -214 20 -85 5 -161 7 -170 4 -9 -3 -26 -10 -39 -16
-19 -9 -22 -17 -19 -45 3 -19 9 -38 14 -42 4 -5 39 -14 76 -20 38 -6 91 -9
118 -6 28 2 64 0 81 -6 l32 -11 -25 -10 c-13 -5 -28 -10 -34 -11 -5 -1 -15 -5
-21 -9 -6 -3 -64 -11 -127 -17 -99 -9 -122 -9 -149 4 -18 8 -60 22 -93 30 -33
8 -80 17 -105 21 -25 4 -49 11 -55 15 -5 4 -24 10 -41 13 -17 3 -61 20 -98 37
-37 16 -97 41 -134 54 -37 13 -89 33 -117 45 -27 13 -68 31 -91 42 -22 11 -63
43 -90 72 -28 28 -59 66 -71 82 -11 17 -38 62 -58 100 -21 39 -55 104 -77 145
-21 41 -52 127 -70 190 -17 63 -35 147 -40 185 -5 39 -11 113 -12 165 -2 75 3
110 21 170 13 41 34 93 47 115 14 22 34 60 45 84 12 24 33 58 48 76 16 19 44
55 63 80 19 26 78 87 131 136 53 49 100 89 104 89 5 0 23 11 41 25 18 14 39
25 46 25 7 0 42 15 78 33 36 18 97 41 135 51 39 10 81 25 95 32 14 7 50 22 81
33 30 10 91 24 135 30 43 6 95 12 114 14 19 2 42 5 50 5z m127 -2898 l113 0 2
-27 c0 -16 0 -35 0 -43 -1 -8 -5 -73 -8 -145 -3 -71 -7 -173 -9 -225 -2 -52
-9 -108 -16 -125 -7 -17 -13 -80 -14 -145 -1 -63 -3 -185 -3 -270 -1 -85 -3
-173 -4 -195 -1 -22 -2 -98 -2 -170 0 -71 5 -195 10 -275 5 -80 8 -284 7 -453
0 -170 -4 -311 -7 -314 -3 -3 -52 -12 -108 -20 -57 -7 -112 -14 -123 -15 -11
0 -56 -7 -100 -15 -44 -8 -101 -18 -127 -23 -26 -5 -55 -13 -65 -18 -10 -5
-58 -15 -108 -22 -49 -6 -117 -18 -150 -26 -33 -8 -85 -22 -115 -29 -30 -8
-73 -14 -95 -15 -23 0 -58 -9 -80 -20 -22 -11 -51 -20 -65 -20 -14 -1 -74 -12
-135 -26 -60 -14 -148 -32 -195 -40 -47 -8 -134 -22 -195 -30 -60 -8 -147 -17
-192 -20 l-83 -6 -1 128 c-1 71 -1 215 -1 319 1 105 4 298 7 430 3 132 13 344
22 472 8 128 13 247 11 265 -3 18 -2 46 3 61 4 16 9 67 9 115 1 48 8 132 15
187 8 55 16 145 19 200 3 55 15 147 26 205 11 57 26 108 33 112 6 4 48 18 92
32 44 13 105 31 135 40 30 8 84 20 120 27 36 6 79 17 96 24 17 8 87 16 155 19
68 4 192 11 274 17 83 5 206 14 275 20 69 6 181 17 250 25 69 9 143 17 164 20
21 2 41 6 44 9 3 3 56 5 119 5z"/>
<g>
<path d="M7431 10899 c-9 0 -23 -3 -31 -6 -8 -3 -30 -12 -47 -20 -23 -10 -33
-22 -33 -37 0 -11 13 -33 28 -47 15 -15 37 -31 49 -38 12 -6 31 -11 42 -11 11
0 27 10 35 22 9 12 16 39 16 60 0 25 -7 44 -22 58 -12 11 -29 20 -37 19z"/>
</g>
<g>
<path d="M6451 10829 c-14 0 -35 -4 -46 -9 -12 -4 -25 -14 -31 -21 -6 -8 -9
-32 -7 -54 5 -38 7 -41 56 -56 50 -16 51 -16 74 7 20 20 23 30 17 61 -4 21
-13 46 -22 56 -8 9 -27 17 -41 16z"/>
</g>
<g>
<path d="M6921 10680 c-9 0 -25 -6 -36 -12 -11 -6 -26 -18 -32 -26 -7 -9 -13
-34 -13 -56 0 -23 -5 -59 -10 -81 -5 -22 -12 -74 -16 -115 -3 -41 -9 -79 -13
-83 -4 -4 -20 -3 -35 3 -15 5 -38 10 -51 10 -14 0 -40 -8 -60 -17 -27 -13 -35
-23 -35 -44 0 -14 6 -31 13 -36 6 -6 26 -14 42 -18 17 -4 52 -9 79 -11 27 -2
57 -11 66 -19 9 -8 35 -15 57 -15 29 0 43 5 47 16 4 9 11 78 16 153 6 75 15
159 21 186 6 28 12 67 12 87 1 23 -6 45 -18 57 -10 12 -25 21 -34 21z"/>
</g>
</g>
<g>
<path d="M15500 10796 c-64 3 -118 3 -120 1 -3 -3 -104 -10 -225 -17 -121 -7
-263 -12 -315 -11 -52 1 -163 -7 -246 -17 -82 -11 -161 -25 -175 -33 -13 -7
-27 -12 -32 -11 -4 1 -38 -4 -75 -12 -37 -8 -94 -19 -127 -25 -33 -6 -89 -13
-125 -17 -36 -3 -93 -8 -128 -10 -35 -2 -68 -7 -74 -11 -7 -3 -28 -9 -47 -13
-20 -4 -72 -17 -116 -30 -44 -12 -89 -24 -100 -26 -11 -2 -47 -10 -80 -18 -33
-7 -94 -21 -135 -31 -41 -9 -131 -32 -200 -51 -69 -19 -159 -41 -200 -49 -41
-9 -102 -26 -135 -39 -33 -13 -84 -29 -113 -36 -28 -7 -55 -16 -58 -21 -3 -5
-16 -9 -29 -9 -12 0 -49 -14 -81 -31 -33 -16 -66 -37 -73 -44 -11 -11 -16 -47
-19 -132 -2 -65 0 -166 5 -224 5 -59 5 -124 1 -145 -4 -22 -10 -49 -13 -62 -4
-15 -24 -31 -68 -52 -34 -16 -94 -58 -132 -92 -39 -35 -89 -84 -113 -109 -23
-25 -42 -51 -42 -58 0 -6 -7 -11 -15 -11 -8 0 -36 -30 -62 -66 -26 -36 -65
-86 -86 -112 -22 -27 -40 -63 -44 -84 -3 -21 -9 -38 -14 -38 -5 0 -9 -7 -9
-15 0 -8 -11 -17 -25 -21 -13 -3 -39 -8 -57 -10 -18 -2 -71 -8 -118 -14 -47
-5 -93 -15 -103 -21 -10 -5 -60 -21 -110 -34 -51 -13 -128 -36 -172 -51 -44
-15 -98 -40 -119 -56 -22 -15 -46 -28 -53 -28 -7 0 -30 -11 -51 -24 -20 -13
-55 -30 -77 -37 -22 -7 -76 -30 -120 -52 -44 -21 -118 -52 -165 -69 -47 -16
-103 -33 -125 -38 -22 -6 -56 -14 -75 -19 -19 -5 -70 -19 -112 -30 -66 -18
-96 -20 -210 -16 -73 3 -169 10 -213 16 -44 6 -104 20 -133 30 -29 11 -61 19
-72 19 -12 0 -26 -12 -35 -31 -9 -17 -15 -40 -13 -51 2 -16 19 -27 69 -43 36
-13 76 -28 88 -34 12 -7 45 -14 74 -16 29 -2 96 -9 151 -16 75 -10 103 -10
117 -1 10 7 33 12 51 12 17 0 75 7 127 16 53 8 119 21 146 29 28 7 66 16 85
20 19 4 58 18 87 31 28 13 57 24 63 24 6 0 36 13 68 29 31 15 75 34 96 41 22
7 69 28 105 48 36 19 87 46 112 58 26 13 51 24 57 24 5 0 15 7 22 15 7 8 21
15 31 15 10 0 38 9 61 19 24 11 72 27 108 37 36 10 70 21 75 24 6 4 75 15 155
25 80 10 155 21 168 26 13 5 31 5 40 0 9 -4 30 -6 45 -4 16 2 52 -3 80 -10 29
-8 67 -18 86 -21 19 -3 58 -26 90 -53 31 -25 62 -53 68 -61 7 -8 19 -39 28
-68 8 -28 15 -60 15 -69 0 -9 -22 -39 -48 -66 -42 -43 -56 -51 -117 -65 -39
-9 -95 -18 -126 -21 -32 -3 -87 1 -130 10 -58 12 -92 14 -154 6 -44 -5 -91
-14 -105 -19 -14 -5 -38 -11 -55 -13 -16 -3 -48 -8 -70 -12 -22 -5 -56 -18
-75 -30 -19 -11 -51 -29 -72 -38 -20 -9 -45 -17 -55 -17 -11 0 -27 -8 -36 -18
-10 -10 -17 -25 -17 -33 0 -8 -5 -20 -12 -27 -8 -8 -8 -15 1 -25 6 -8 24 -17
39 -20 19 -4 51 6 110 34 45 22 90 42 100 44 9 2 44 11 77 19 33 8 62 12 65
10 2 -3 -5 -13 -17 -22 -12 -9 -33 -33 -46 -53 -13 -19 -29 -64 -36 -100 -7
-35 -10 -86 -9 -114 4 -47 6 -51 43 -68 22 -11 48 -23 57 -28 10 -5 29 -9 43
-9 l25 0 -35 -46 c-20 -26 -43 -61 -52 -78 -8 -17 -22 -39 -30 -48 -8 -9 -16
-40 -18 -68 -2 -46 0 -52 24 -65 23 -13 24 -14 6 -16 -11 -1 -31 -2 -45 -4
-14 -1 -36 -5 -50 -9 -14 -5 -53 -33 -87 -63 l-63 -55 0 -71 c0 -61 5 -82 33
-137 30 -60 37 -68 102 -102 39 -21 88 -41 110 -45 l40 -9 -49 -32 c-44 -30
-50 -32 -65 -17 -10 8 -23 15 -30 15 -6 0 -25 7 -41 15 -16 8 -61 17 -101 20
-40 2 -86 9 -103 14 -17 5 -76 12 -130 16 -55 4 -112 13 -128 21 -15 8 -40 16
-55 17 -15 2 -45 11 -67 20 -21 10 -43 17 -48 17 -5 0 -32 12 -60 28 -28 15
-65 34 -82 43 -17 9 -83 31 -146 49 -63 17 -124 36 -135 41 -11 4 -49 19 -85
32 -36 14 -110 49 -165 79 -55 31 -111 59 -125 63 -14 4 -38 17 -55 28 -16 12
-31 25 -33 29 -2 4 -11 8 -19 8 -9 0 -39 17 -67 38 -28 21 -69 49 -91 62 -40
22 -42 23 -68 5 -15 -9 -27 -25 -27 -34 0 -10 11 -33 25 -51 14 -19 36 -40 48
-47 12 -7 29 -12 37 -13 8 0 27 -15 42 -34 15 -18 55 -48 90 -66 35 -18 77
-43 95 -56 17 -13 37 -24 43 -24 7 0 42 -15 79 -34 36 -19 99 -50 140 -70 40
-20 89 -36 107 -36 18 0 36 -5 39 -10 5 -7 11 -8 19 -1 8 7 18 3 33 -13 12
-12 45 -28 73 -34 29 -7 84 -26 123 -43 40 -17 79 -38 88 -45 8 -8 28 -14 43
-14 15 0 39 -9 53 -20 14 -11 34 -20 43 -20 10 0 48 -11 84 -25 37 -14 88 -25
115 -25 26 0 73 -5 102 -10 30 -6 106 -13 169 -16 63 -2 118 -8 122 -12 4 -4
0 -34 -8 -66 -8 -32 -14 -70 -12 -84 2 -21 14 -32 52 -51 39 -19 70 -25 140
-28 50 -2 120 2 156 8 36 6 72 15 81 20 8 4 48 11 89 15 51 5 91 15 129 35
l56 29 75 -30 c41 -17 84 -35 95 -40 11 -5 47 -18 80 -30 32 -11 69 -20 80
-20 19 0 20 -4 16 -62 -3 -35 -4 -96 -4 -135 0 -40 1 -100 1 -133 1 -33 1 -68
2 -77 0 -10 -1 -67 -2 -128 -1 -60 -1 -127 0 -149 1 -27 9 -45 26 -60 13 -11
47 -39 76 -61 29 -22 73 -59 97 -81 29 -26 72 -52 117 -69 39 -14 79 -30 88
-36 10 -5 25 -9 33 -9 9 0 43 -14 77 -30 33 -17 70 -30 83 -30 12 0 28 -7 35
-15 7 -8 28 -17 49 -20 20 -4 45 -10 56 -15 11 -5 34 -11 50 -13 17 -3 73 -17
125 -31 52 -15 181 -42 285 -61 105 -19 204 -35 220 -35 17 0 57 -2 90 -5 33
-3 96 -9 140 -14 44 -5 98 -14 120 -20 22 -6 117 -14 210 -18 94 -4 193 -7
220 -6 28 0 68 2 90 3 22 2 128 2 235 1 145 -1 267 5 475 24 154 14 289 28
300 32 10 3 60 12 110 19 49 8 112 16 139 19 28 4 53 8 58 11 4 3 34 10 65 16
32 5 78 14 103 18 25 4 81 17 125 29 44 12 118 31 165 42 47 10 93 23 102 29
10 5 27 10 37 10 11 0 23 4 26 10 3 6 16 10 28 10 12 0 51 10 87 23 36 12 70
25 75 29 6 3 28 11 50 18 22 7 65 25 95 41 30 16 84 42 120 60 36 17 92 35
125 40 34 5 96 27 145 51 47 23 91 48 99 55 7 8 39 31 70 52 31 21 73 57 94
80 20 22 47 58 60 79 23 36 25 48 27 202 2 91 3 239 4 330 1 91 -2 372 -6 625
-4 253 -10 530 -14 615 -3 85 -7 175 -9 200 -1 25 -6 236 -10 470 -6 331 -5
459 6 580 7 85 14 238 14 340 0 102 -1 264 -3 360 -2 96 -1 198 2 225 3 28 6
100 7 160 2 69 -3 126 -11 153 -7 24 -31 59 -54 82 -22 22 -46 40 -52 40 -7 0
-44 16 -83 35 -39 20 -103 43 -143 52 -40 8 -77 19 -83 23 -5 4 -32 11 -60 15
-27 4 -57 11 -65 15 -9 5 -76 14 -150 20 -74 7 -166 15 -205 18 -38 3 -128 6
-200 8 -71 2 -335 6 -585 9 -250 3 -507 8 -570 11z m70 -133 c107 -2 359 -6
560 -9 201 -2 448 -9 550 -14 102 -6 250 -17 330 -26 80 -8 190 -26 245 -40
55 -14 121 -30 147 -37 27 -7 53 -18 60 -25 7 -7 19 -12 27 -12 9 0 39 -11 66
-24 28 -13 58 -32 68 -43 10 -11 20 -36 23 -55 4 -22 0 -46 -10 -66 -9 -17
-31 -45 -48 -62 -18 -17 -51 -39 -73 -49 -22 -11 -69 -27 -104 -37 l-64 -17
-19 26 c-11 15 -26 27 -34 27 -8 0 -22 4 -32 10 -9 5 -52 19 -96 31 -43 11
-99 22 -125 23 -25 1 -51 5 -58 9 -7 4 -48 12 -91 17 -43 5 -116 18 -161 30
-66 17 -122 21 -294 25 -116 3 -239 9 -272 14 -33 4 -106 6 -162 3 -62 -3
-119 0 -148 7 -28 7 -129 12 -253 12 -114 0 -243 -6 -287 -12 -44 -7 -103 -13
-131 -14 -28 -1 -55 -4 -60 -7 -5 -3 -27 -8 -49 -12 -22 -3 -85 -8 -140 -11
-55 -3 -118 -10 -140 -15 -22 -5 -59 -10 -82 -10 -23 0 -44 -4 -47 -9 -3 -5
-45 -14 -93 -21 -49 -7 -101 -16 -118 -21 -16 -5 -55 -11 -85 -13 -30 -3 -77
-8 -105 -11 -27 -3 -84 -10 -125 -16 -41 -6 -84 -15 -95 -19 -11 -5 -40 -11
-65 -13 -25 -3 -70 -10 -100 -16 -30 -6 -68 -11 -85 -11 -16 0 -76 -6 -132
-14 -55 -8 -120 -24 -144 -35 -24 -12 -57 -21 -75 -21 -18 0 -54 -10 -81 -21
-26 -12 -70 -30 -98 -40 -27 -11 -57 -19 -65 -19 -8 0 -32 -5 -52 -11 -22 -5
-38 -16 -38 -24 0 -9 -10 -15 -25 -15 -14 0 -46 5 -72 11 -27 7 -84 26 -128
44 -44 18 -91 35 -105 38 -14 4 -52 25 -83 47 -31 23 -57 47 -57 54 0 8 15 21
34 30 19 9 37 16 41 16 4 0 21 6 38 14 18 7 73 26 122 41 50 15 110 33 134 41
25 8 53 14 63 14 10 0 44 9 76 21 31 11 66 22 77 24 11 2 56 12 100 23 44 11
103 24 130 30 28 6 91 20 140 31 50 11 106 25 125 31 19 6 66 15 104 20 38 6
88 17 110 24 23 8 77 17 121 21 44 3 127 13 185 22 58 9 110 20 115 24 6 4 67
20 137 33 104 22 161 27 339 30 118 3 264 10 324 15 61 6 135 13 165 15 30 2
143 2 250 -1z m469 -453 c6 0 13 -5 17 -11 3 -6 -1 -18 -10 -27 -15 -15 -16
-14 -16 11 0 15 4 27 9 27z m-393 -13 c3 -3 4 -12 1 -19 -3 -8 -6 -5 -6 6 -1
11 2 17 5 13z m598 3 c21 -1 21 -1 2 -15 -11 -8 -26 -15 -34 -15 -12 0 -12 3
-2 15 7 8 22 15 34 15z m288 -30 c11 0 18 -7 18 -19 0 -10 -11 -26 -25 -35
-13 -9 -27 -16 -30 -16 -3 0 -5 10 -5 23 0 13 5 28 12 35 7 7 20 12 30 12z
m1122 -10 c1 0 1 -100 1 -222 0 -123 2 -297 3 -388 2 -91 -1 -205 -7 -255 -6
-49 -13 -113 -15 -141 -3 -28 -5 -136 -5 -240 0 -104 0 -207 -2 -229 -1 -22
-2 -105 -1 -185 1 -80 2 -233 2 -340 1 -107 6 -225 11 -263 6 -38 12 -279 13
-550 2 -265 4 -482 5 -482 1 0 3 -38 4 -85 0 -47 -2 -91 -6 -97 -4 -6 -7 -84
-7 -174 0 -90 -6 -190 -12 -223 -10 -54 -15 -61 -67 -103 -31 -24 -63 -47 -71
-51 -8 -3 -30 -16 -49 -29 -19 -13 -49 -23 -67 -23 -18 0 -36 -5 -39 -11 -4
-5 -12 -8 -18 -6 -7 2 -33 -7 -58 -20 -26 -13 -53 -23 -61 -23 -8 0 -31 -9
-53 -20 -22 -11 -45 -20 -52 -20 -6 0 -32 -14 -57 -31 -25 -16 -62 -33 -81
-36 -19 -3 -35 -10 -35 -14 0 -5 -8 -9 -17 -9 -10 0 -31 -7 -47 -15 -15 -8
-34 -15 -40 -15 -7 0 -31 -9 -54 -20 -22 -11 -47 -20 -55 -20 -7 0 -18 -5 -24
-11 -5 -5 -34 -16 -64 -24 -30 -7 -99 -26 -154 -40 -55 -15 -120 -31 -145 -35
-25 -5 -77 -16 -115 -24 -39 -8 -84 -20 -100 -26 -17 -7 -77 -19 -135 -26 -58
-8 -141 -19 -185 -24 -44 -5 -89 -12 -100 -16 -11 -3 -78 -12 -150 -20 -71 -7
-229 -19 -350 -26 -121 -8 -317 -13 -435 -12 -118 1 -262 5 -320 8 -58 4 -161
14 -230 21 -69 8 -179 22 -245 30 -66 9 -178 25 -250 36 -71 12 -148 25 -170
29 -22 5 -58 14 -80 20 -22 6 -56 13 -75 16 -19 3 -61 14 -93 25 -31 10 -66
19 -77 19 -11 0 -28 4 -38 9 -9 5 -35 14 -57 20 -22 7 -49 16 -60 21 -11 5
-42 18 -70 30 -27 12 -77 32 -111 45 -33 12 -80 33 -105 45 -24 13 -76 48
-116 79 -39 31 -76 67 -82 81 -5 14 -12 113 -15 220 -3 107 -5 238 -5 290 0
52 4 99 8 103 5 5 19 3 32 -4 15 -8 82 -14 183 -17 106 -3 177 -1 215 8 31 7
67 16 81 20 21 6 25 13 22 40 -1 18 3 39 9 46 7 8 10 16 8 18 -2 2 -13 8 -23
13 -14 8 -30 7 -58 -3 -29 -10 -83 -12 -215 -10 -107 3 -180 9 -186 15 -6 6
-31 11 -54 11 -24 0 -54 6 -66 14 -12 8 -47 20 -77 27 -30 7 -98 31 -151 54
-52 23 -116 56 -141 73 -26 18 -51 32 -56 32 -5 0 -29 17 -53 39 -30 26 -55
62 -78 112 -18 41 -39 88 -47 104 -7 17 -18 64 -23 105 -6 41 -12 88 -13 103
-3 28 -3 29 60 30 35 1 63 -2 63 -8 1 -5 1 -26 0 -47 -2 -20 5 -50 13 -67 9
-16 16 -41 16 -55 0 -14 9 -40 20 -58 11 -18 20 -43 20 -54 0 -12 7 -27 15
-34 8 -7 15 -18 15 -24 0 -6 15 -28 33 -49 17 -20 36 -37 40 -37 4 0 27 -19
50 -41 23 -23 49 -47 57 -54 8 -8 29 -17 45 -21 17 -3 38 -13 47 -21 9 -8 43
-27 75 -42 32 -15 81 -35 108 -44 28 -8 69 -20 91 -26 23 -6 68 -11 100 -11
33 0 109 5 169 10 61 6 121 13 134 16 20 4 22 9 17 39 -4 21 -2 42 6 54 10 16
10 23 1 32 -10 10 -29 9 -85 -1 -40 -7 -124 -13 -186 -12 -82 0 -130 5 -172
19 l-58 18 -1 65 c-1 36 -1 126 -1 200 1 74 2 155 2 180 1 25 -1 91 -3 147 -3
56 -8 105 -12 109 -4 4 -12 3 -18 -3 -6 -6 -11 -34 -11 -62 1 -28 -4 -53 -9
-57 -6 -4 -6 -10 1 -19 7 -8 7 -16 2 -19 -6 -4 -7 -21 -2 -43 5 -21 7 -51 6
-68 -1 -16 -6 -48 -11 -70 -4 -22 -11 -45 -16 -51 -5 -6 -10 -42 -13 -80 -2
-38 0 -74 5 -80 5 -6 6 -34 2 -62 -4 -33 -11 -52 -19 -52 -7 0 -15 4 -18 9 -3
5 -18 12 -32 15 -14 4 -37 14 -50 23 l-24 15 21 29 c18 26 20 38 14 117 -7 89
-7 89 20 111 28 21 28 23 27 119 -1 53 -7 113 -12 132 -9 32 -8 37 17 57 15
12 40 25 55 29 16 3 28 10 28 15 0 5 19 18 43 30 23 12 85 65 138 118 53 53
107 114 121 136 13 22 29 58 35 80 6 22 12 63 12 90 0 28 -7 86 -16 130 -8 44
-25 98 -37 120 -12 22 -32 44 -44 50 -18 8 -22 18 -22 51 0 23 -9 70 -20 104
-11 34 -20 68 -20 75 0 6 -12 29 -27 50 -16 21 -55 66 -87 101 -37 40 -53 64
-43 64 8 0 19 10 23 23 4 12 7 87 7 168 l-1 145 57 26 c31 15 90 33 131 42 41
8 84 16 95 19 11 2 52 8 90 12 39 3 80 13 93 21 12 8 22 23 22 34 0 10 -8 23
-17 29 -17 9 -17 10 0 29 15 17 16 21 2 32 -9 7 -30 10 -52 7 -21 -3 -63 -12
-93 -21 -30 -9 -100 -23 -155 -31 -90 -12 -109 -19 -190 -66 -50 -28 -117 -73
-150 -99 -33 -27 -75 -65 -92 -85 -18 -19 -33 -42 -33 -50 0 -8 -13 -29 -30
-48 -16 -19 -34 -53 -39 -77 -5 -23 -16 -50 -25 -58 -13 -13 -16 -13 -30 0 -8
8 -39 18 -69 21 -30 4 -71 14 -91 22 -20 8 -36 19 -36 25 0 5 10 20 23 34 12
14 35 44 51 66 17 22 33 40 38 40 4 0 8 7 8 16 0 8 56 71 125 139 100 99 139
130 202 162 60 31 109 46 213 67 74 14 153 26 174 26 23 0 47 7 58 17 10 9 18
24 18 34 0 10 -8 22 -17 28 -14 8 -15 12 -4 25 7 9 10 23 7 32 -5 14 -16 16
-62 10 -31 -3 -65 -11 -76 -17 -11 -6 -42 -11 -69 -11 -27 1 -51 -3 -54 -9 -4
-5 -12 -9 -19 -9 -11 0 -13 36 -12 174 l1 173 25 -10 c14 -6 39 -23 56 -38 17
-14 68 -38 113 -53 46 -14 92 -31 104 -38 12 -6 58 -20 102 -31 44 -10 109
-22 145 -27 36 -4 90 -12 120 -18 30 -6 75 -17 100 -26 25 -9 64 -16 87 -16
23 0 44 -3 46 -8 3 -4 31 -8 64 -10 32 -1 84 -7 117 -13 32 -6 86 -12 120 -14
33 -3 108 -9 166 -15 58 -6 142 -18 187 -26 46 -9 102 -15 125 -13 24 1 133 2
243 3 153 1 208 -2 234 -13 30 -13 35 -13 45 1 10 13 33 15 156 10 80 -2 150
-9 157 -14 7 -6 18 -6 30 0 10 5 65 13 123 16 58 4 168 9 245 11 77 2 176 11
220 18 44 8 87 14 95 14 8 0 49 5 90 11 41 6 122 18 180 27 58 9 114 17 125
19 11 3 45 9 75 14 30 6 96 15 145 21 50 7 115 18 145 26 30 7 98 23 150 34
52 11 122 25 155 31 33 6 78 16 100 22 22 6 51 12 65 13 14 1 45 11 70 22 25
11 72 25 105 32 33 7 74 16 90 21 17 4 84 27 150 50 76 26 136 54 164 76 24
19 45 34 45 34z m-2482 -10 c5 0 3 -7 -6 -15 -8 -8 -18 -15 -22 -15 -3 0 -1 7
6 15 7 8 17 15 22 15z m616 -1 c2 1 -6 -12 -18 -29 -12 -16 -26 -30 -31 -30
-5 0 -9 8 -9 18 0 10 12 23 28 29 15 6 28 11 30 12z m101 -39 c5 0 14 -6 20
-13 6 -8 8 -17 4 -20 -3 -4 -12 -7 -20 -7 -7 0 -13 9 -13 20 0 11 4 20 9 20z
m-403 -30 c2 0 4 -10 4 -22 0 -16 -3 -19 -11 -11 -6 6 -8 16 -5 22 4 6 9 11
12 11z m892 -36 c2 -9 -1 -21 -7 -27 -8 -8 -14 -7 -23 2 -11 10 -9 15 7 27 18
13 20 13 23 -2z m-202 6 c7 0 15 -4 19 -9 3 -5 -8 -19 -25 -31 -28 -20 -30
-20 -30 -3 0 11 5 24 12 31 7 7 18 12 24 12z m726 -11 c4 1 9 -3 13 -8 3 -5 1
-12 -3 -15 -5 -3 -28 -9 -51 -15 -31 -7 -41 -6 -38 2 2 7 19 17 38 24 19 7 37
12 41 12z m-1273 -9 c11 -1 8 -8 -12 -25 -15 -14 -33 -25 -39 -25 -6 0 -1 11
12 25 13 14 31 25 39 25z m1044 -10 c4 0 7 -4 7 -10 0 -5 -9 -14 -21 -20 -11
-7 -23 -9 -27 -6 -3 4 3 13 14 21 10 8 22 15 27 15z m-2583 -10 c5 0 7 -7 4
-15 -4 -8 -8 -15 -10 -15 -2 0 -4 7 -4 15 0 8 4 15 10 15z m170 -10 c6 0 10
-7 10 -15 0 -8 -4 -15 -10 -15 -5 0 -10 7 -10 15 0 8 5 15 10 15z m1667 0 c1
0 0 -7 -3 -15 -4 -8 -14 -15 -23 -15 -14 1 -13 3 3 15 11 8 21 15 23 15z
m-1001 -10 c7 0 16 -5 19 -10 4 -6 1 -17 -5 -25 -7 -8 -19 -15 -26 -15 -8 0
-14 8 -14 18 0 10 3 22 7 25 3 4 12 7 19 7z m809 -10 c10 -8 12 -17 5 -29 -5
-10 -16 -23 -24 -30 -13 -11 -14 -9 -10 16 2 15 7 34 9 42 4 10 8 11 20 1z
m-1178 0 c7 0 13 -4 13 -10 0 -5 -9 -14 -20 -20 -15 -8 -20 -8 -20 3 0 8 3 17
7 20 3 4 12 7 20 7z m604 -10 c4 0 10 -4 14 -10 3 -5 0 -18 -7 -30 -7 -11 -15
-20 -18 -20 -3 0 -12 4 -20 10 -12 7 -12 12 4 29 11 12 23 21 27 21z m882 -21
c22 -20 22 -21 3 -35 -12 -9 -23 -11 -29 -5 -5 5 -7 21 -3 35 l6 26 23 -21z
m-723 11 c5 0 12 -5 15 -11 4 -6 5 -12 2 -15 -2 -2 -12 -2 -21 2 -9 3 -13 10
-10 15 3 5 9 9 14 9z m-631 -32 c2 -6 -4 -17 -13 -26 -15 -15 -16 -15 -16 5 0
12 6 23 13 26 6 2 14 0 16 -5z m798 2 c1 0 3 -3 3 -8 0 -4 -10 -13 -22 -21
-23 -14 -23 -14 -4 8 11 11 21 21 23 21z m-1772 -10 c8 0 16 -4 19 -9 3 -5 -1
-14 -10 -21 -10 -9 -18 -10 -26 -2 -5 5 -7 15 -4 21 4 6 13 11 21 11z m526
-40 c12 0 19 -7 19 -20 0 -10 -9 -24 -19 -29 -14 -8 -22 -7 -31 4 -10 12 -10
18 0 30 7 8 21 15 31 15z m-411 -10 c6 0 10 -2 10 -4 0 -3 -4 -8 -10 -11 -5
-3 -10 -1 -10 4 0 6 5 11 10 11z m951 0 c4 0 13 -9 19 -20 6 -11 7 -21 3 -21
-4 -1 -11 -1 -15 0 -5 0 -8 -4 -8 -11 0 -8 -3 -9 -10 -2 -5 5 -7 19 -4 32 4
12 10 22 15 22z m207 -36 c2 -9 1 -18 -2 -22 -4 -3 -12 0 -19 7 -9 9 -9 14 3
21 11 7 16 5 18 -6z m542 -11 c14 -3 27 -7 29 -9 1 -1 0 -7 -4 -13 -3 -6 -21
-11 -40 -11 -19 0 -36 4 -40 9 -3 6 3 14 12 20 10 5 29 7 43 4z m-402 -23 c6
0 12 -7 12 -15 0 -9 -9 -15 -25 -15 -22 0 -24 2 -13 15 7 8 19 14 26 15z m182
0 c6 0 10 -2 10 -4 0 -3 -4 -8 -10 -11 -5 -3 -10 -1 -10 4 0 6 5 11 10 11z
m-2829 -630 c5 0 12 -12 15 -26 4 -15 4 -65 0 -112 -3 -47 -9 -88 -12 -91 -3
-3 -19 2 -35 12 -17 9 -39 17 -49 17 -10 0 -28 8 -40 18 -20 16 -21 21 -10 43
8 13 38 50 68 82 30 31 59 57 63 57z m-180 -262 c5 -9 33 -28 62 -41 29 -14
81 -52 119 -90 37 -36 77 -82 90 -104 14 -21 35 -72 48 -113 13 -41 23 -86 22
-100 0 -14 -2 -39 -5 -57 -2 -17 -14 -48 -27 -70 -12 -21 -54 -68 -92 -105
-50 -48 -96 -80 -162 -112 -50 -26 -99 -46 -109 -46 -10 0 -39 -6 -65 -14 -26
-8 -79 -20 -118 -26 -52 -9 -101 -10 -190 -2 -65 5 -131 10 -147 10 -15 0 -48
6 -73 13 -26 8 -49 20 -51 27 -3 7 0 32 6 55 8 27 31 62 65 98 33 34 76 67
111 83 50 24 62 26 103 18 26 -5 75 -8 108 -6 34 2 74 8 89 14 14 5 41 10 59
10 19 0 51 7 72 16 22 9 54 31 72 50 18 19 36 34 40 34 4 0 20 24 36 53 20 35
30 71 34 113 4 56 2 68 -28 121 -18 32 -49 75 -68 95 -33 35 -35 39 -23 65 11
24 14 25 22 11z m435 -608 c8 -18 14 -44 15 -59 0 -14 6 -42 12 -61 9 -26 10
-43 2 -66 -6 -18 -33 -58 -60 -90 -28 -33 -70 -78 -95 -101 -25 -24 -79 -62
-120 -84 -41 -23 -89 -53 -106 -66 -17 -12 -36 -23 -43 -23 -6 0 -19 -4 -29
-9 -9 -5 -51 -19 -92 -31 -41 -11 -100 -29 -130 -38 -41 -13 -89 -17 -190 -16
-116 0 -143 4 -193 23 -57 22 -58 24 -51 54 4 18 16 45 28 60 11 15 33 42 47
59 15 19 37 33 55 35 16 2 108 7 204 12 98 6 190 15 210 23 19 7 40 16 45 19
6 4 25 10 43 14 18 4 45 13 60 21 15 8 32 14 38 14 6 0 21 11 34 25 13 14 30
25 37 25 8 0 53 32 99 71 47 39 99 89 115 112 16 22 29 46 29 54 0 8 5 24 11
35 11 20 12 20 25 -12z m-416 -711 c3 1 11 -29 17 -66 10 -53 9 -71 -2 -92 -7
-14 -28 -40 -47 -58 -18 -18 -53 -39 -76 -47 -31 -11 -49 -13 -62 -6 -13 7
-24 34 -35 82 -8 40 -17 86 -18 103 -2 28 0 30 53 41 30 7 80 19 110 27 30 9
57 16 60 16z m-653 -95 c57 0 106 -3 109 -7 3 -3 7 -37 9 -77 2 -39 8 -85 14
-103 5 -18 11 -44 13 -59 2 -15 -1 -28 -7 -29 -5 0 -66 4 -134 11 -74 7 -140
20 -165 31 -34 15 -47 28 -67 70 -13 29 -22 62 -21 73 2 12 17 33 33 48 17 16
40 30 52 33 12 2 31 6 41 7 11 2 66 3 123 2z m635 -250 c4 -3 5 -17 2 -32 -4
-15 -13 -33 -20 -41 -12 -13 -16 -12 -34 4 -11 10 -20 22 -20 27 0 4 14 17 32
28 17 10 35 17 40 14z m-412 -200 c4 -11 31 -44 59 -73 41 -42 47 -53 33 -57
-9 -3 -26 -10 -37 -14 -11 -5 -92 -20 -181 -34 -125 -20 -168 -23 -197 -15
l-37 10 15 36 c8 20 25 46 38 58 12 12 40 30 62 40 22 10 60 22 85 27 25 4 69
11 98 14 28 4 52 12 53 18 0 6 4 2 9 -10z"/>
</g>
<g>
<path d="M8054 5629 c-11 0 -14 -3 -6 -6 7 -3 16 -2 19 1 4 3 -2 6 -13 5z"/>
</g>
<g>
<path d="M1747 4499 c-12 0 -53 -14 -92 -31 -38 -17 -72 -34 -75 -38 -3 -4
-23 -16 -45 -27 -22 -11 -60 -25 -85 -32 -25 -7 -53 -17 -62 -22 -10 -5 -23
-9 -29 -9 -7 0 -42 -14 -78 -31 -36 -17 -68 -34 -71 -38 -3 -3 -15 -12 -27
-18 -13 -7 -29 -13 -36 -13 -8 0 -28 -18 -45 -39 -18 -22 -30 -46 -27 -53 3
-8 9 -52 14 -98 5 -47 12 -100 15 -118 3 -18 8 -37 11 -43 4 -5 11 -56 17
-112 5 -56 10 -108 10 -114 1 -7 4 -13 8 -13 4 0 7 -6 8 -12 1 -7 4 -29 6 -48
2 -19 6 -42 9 -50 2 -8 10 -44 16 -80 6 -36 16 -109 22 -164 5 -54 24 -162 40
-240 16 -77 32 -168 34 -201 3 -33 6 -68 6 -77 0 -10 4 -18 8 -18 5 0 12 -33
15 -72 4 -40 13 -95 20 -123 8 -27 18 -77 25 -111 6 -33 11 -72 11 -87 0 -14
5 -29 10 -32 6 -3 10 -29 10 -56 0 -28 5 -70 11 -93 7 -30 18 -47 35 -55 14
-6 35 -11 47 -11 13 0 28 5 35 12 7 7 12 38 12 70 0 32 -5 90 -11 130 -5 40
-22 125 -36 188 -14 63 -29 144 -34 180 -5 36 -18 115 -29 175 -11 61 -25 136
-30 169 -6 32 -9 61 -6 64 3 3 36 -1 73 -8 38 -7 115 -16 173 -21 58 -4 124
-9 147 -11 23 -2 46 -7 50 -11 3 -4 10 -35 14 -70 4 -34 11 -105 14 -157 3
-52 10 -117 15 -145 5 -27 9 -62 8 -76 0 -14 8 -38 18 -53 9 -16 27 -31 38
-36 12 -4 33 -3 48 2 26 9 28 14 28 62 0 28 -7 78 -15 109 -8 32 -15 77 -15
100 -1 23 -7 85 -14 137 -7 52 -11 101 -9 108 4 10 25 11 92 6 47 -4 94 -11
103 -15 9 -5 17 -17 16 -27 0 -9 3 -134 7 -277 5 -170 12 -262 19 -267 7 -5
10 -44 8 -110 -1 -63 4 -130 13 -173 8 -38 16 -83 17 -100 3 -27 7 -30 51 -38
34 -5 53 -4 63 4 9 7 14 31 14 63 0 28 -4 67 -10 86 -5 19 -19 116 -31 215
-12 108 -23 271 -26 406 l-5 226 63 61 c35 33 80 72 99 86 19 14 45 31 58 37
12 7 24 10 26 8 3 -2 6 -67 8 -145 3 -77 7 -145 11 -151 4 -5 4 -61 1 -124 -4
-63 -6 -121 -5 -129 0 -8 1 -37 1 -65 0 -27 3 -71 6 -97 4 -32 11 -49 22 -52
10 -3 33 -8 54 -11 32 -6 38 -4 53 19 14 20 15 31 6 58 -6 18 -13 114 -15 213
-3 99 -8 273 -12 387 -6 183 -5 211 10 232 9 14 16 34 16 44 0 10 -3 22 -7 26
-4 4 -8 16 -8 27 0 15 -12 25 -40 36 -22 8 -56 18 -75 23 -19 4 -57 15 -85 23
-27 8 -90 20 -140 26 -49 7 -124 17 -165 23 -41 5 -86 12 -100 14 -14 3 -30 6
-37 9 -6 2 -28 29 -48 60 -19 31 -46 88 -59 128 -13 40 -29 104 -35 142 -7 39
-16 90 -21 115 -5 25 -12 65 -16 90 -3 25 -11 50 -16 57 -5 7 -7 16 -4 22 3 5
-3 55 -15 112 -11 56 -27 115 -35 131 -10 18 -22 28 -37 27z m-42 -181 c6 -5
11 -26 13 -46 1 -20 3 -62 5 -92 1 -30 5 -59 9 -65 3 -5 9 -41 12 -80 4 -38
16 -107 27 -151 10 -45 19 -96 19 -113 0 -21 7 -35 24 -46 13 -9 26 -26 29
-37 4 -15 -1 -28 -18 -43 -14 -11 -25 -30 -25 -42 0 -13 -11 -26 -32 -37 -18
-9 -42 -22 -53 -29 -10 -6 -42 -28 -70 -48 -27 -19 -70 -46 -95 -59 -25 -12
-54 -28 -65 -34 -11 -6 -34 -20 -50 -31 -17 -12 -43 -26 -58 -33 -15 -7 -32
-12 -36 -12 -5 0 -11 24 -14 53 -4 28 -9 70 -12 92 -4 22 -11 63 -16 90 -6 28
-14 73 -19 100 -5 28 -18 102 -29 165 -12 63 -26 151 -33 196 -6 45 -9 88 -5
97 3 8 45 34 93 57 48 24 102 47 120 51 19 5 49 13 67 18 19 4 63 24 98 43 35
20 73 38 84 40 11 3 25 1 30 -4z m253 -805 c9 -4 19 -9 22 -12 3 -4 26 -12 53
-19 26 -6 67 -12 90 -12 24 0 67 -7 95 -15 28 -9 104 -19 168 -24 64 -5 120
-13 126 -19 7 -7 -10 -24 -49 -53 -32 -24 -96 -77 -142 -117 -79 -68 -87 -73
-121 -67 -19 3 -90 6 -155 7 -66 0 -160 6 -210 14 -49 7 -135 15 -190 19 -55
3 -115 8 -132 11 -18 3 -33 8 -33 13 0 4 28 22 63 40 34 19 76 44 92 56 17 12
53 34 82 48 28 15 54 31 57 36 4 5 23 15 44 21 20 7 56 27 80 46 27 20 50 30
60 27z"/>
</g>
<g>
<path d="M13510 4464 c-35 4 -65 1 -83 -7 -15 -7 -37 -31 -48 -52 -12 -21 -35
-56 -51 -77 -17 -20 -74 -73 -125 -115 -52 -43 -111 -94 -132 -113 -20 -19
-56 -51 -80 -70 -24 -19 -55 -46 -69 -60 -14 -14 -35 -32 -47 -40 -12 -8 -55
-44 -96 -80 -40 -36 -98 -87 -129 -115 -30 -27 -57 -53 -60 -56 -3 -3 -34 -32
-70 -64 -36 -31 -75 -61 -88 -66 -12 -5 -27 -20 -34 -33 -8 -19 -8 -32 2 -56
7 -16 19 -30 26 -30 8 0 14 -3 15 -7 0 -5 2 -24 3 -43 2 -19 6 -80 10 -135 4
-55 11 -136 17 -180 6 -44 14 -102 19 -130 5 -27 16 -149 25 -270 8 -121 22
-251 30 -290 7 -38 21 -119 29 -180 9 -60 18 -126 20 -147 2 -20 9 -45 15 -56
8 -15 34 -26 102 -41 50 -12 100 -21 111 -21 11 0 39 -5 62 -12 22 -7 47 -18
55 -26 7 -7 17 -12 21 -10 5 2 37 45 72 97 35 52 68 101 73 110 6 8 20 32 32
52 14 24 22 55 23 90 1 30 -1 79 -5 109 -3 30 -9 62 -11 70 -3 8 -12 58 -20
110 -8 52 -16 180 -18 284 l-4 189 106 -7 c59 -3 126 -9 150 -12 32 -5 42 -11
42 -25 0 -11 5 -19 11 -19 6 0 8 -11 4 -28 -5 -23 0 -35 24 -60 22 -24 38 -32
65 -32 19 0 65 -12 101 -27 l66 -27 25 32 c14 18 32 32 39 32 7 0 27 17 44 37
17 21 31 43 31 50 0 7 9 13 20 13 10 0 39 -6 62 -14 24 -8 79 -21 123 -30 44
-8 118 -22 165 -30 47 -9 128 -21 180 -27 52 -6 98 -13 103 -16 4 -2 51 -8
105 -13 53 -5 138 -14 187 -19 50 -5 97 -12 105 -15 8 -3 65 -12 125 -21 61
-8 130 -19 155 -24 25 -5 88 -21 140 -36 54 -15 107 -24 123 -21 15 3 59 -1
98 -9 39 -8 94 -15 122 -16 29 0 78 -6 109 -12 31 -7 60 -16 64 -20 4 -4 18
-7 30 -7 16 0 25 -7 28 -22 3 -13 7 -72 11 -133 3 -60 11 -186 18 -280 7 -104
10 -258 6 -395 -5 -196 -3 -229 11 -260 13 -26 25 -37 53 -43 24 -6 60 -4 112
7 43 9 91 16 107 16 21 0 39 10 59 31 16 17 35 43 44 57 8 15 19 39 26 55 6
15 15 27 20 27 5 0 9 7 9 15 0 8 35 51 77 95 l76 81 -17 87 c-10 48 -22 112
-27 142 -5 30 -14 91 -19 135 -5 44 -16 116 -24 160 -7 44 -19 137 -27 207
l-12 127 25 33 c13 18 39 60 57 93 18 32 45 75 60 95 16 19 34 46 40 59 7 13
16 19 20 15 5 -5 15 -28 24 -51 9 -23 24 -91 33 -150 9 -59 17 -137 17 -173 2
-55 5 -66 23 -75 12 -6 28 -15 35 -21 8 -6 31 -12 52 -13 21 -1 61 -6 90 -11
37 -8 59 -19 79 -41 21 -22 35 -29 56 -27 19 2 28 9 30 26 2 12 10 22 18 22
10 0 14 13 14 49 0 32 5 53 16 61 8 8 22 27 30 44 7 17 23 45 34 61 11 17 29
49 41 71 21 40 21 43 5 110 -9 38 -18 80 -21 94 -2 14 -9 63 -15 110 -6 47
-20 123 -32 170 -11 47 -27 105 -35 130 -8 25 -16 59 -19 75 -2 17 -11 59 -20
95 -8 36 -22 99 -31 140 -8 41 -19 84 -23 95 -5 11 -11 34 -15 50 -4 17 -18
42 -32 57 -14 15 -30 25 -35 22 -5 -3 -9 0 -7 7 1 8 1 22 0 33 -1 17 -7 18
-63 12 -38 -3 -102 0 -162 9 -55 8 -125 15 -156 15 -31 0 -83 5 -116 10 -32 6
-93 18 -134 26 -41 8 -120 19 -175 24 -55 5 -125 17 -155 26 -30 9 -113 29
-185 45 -71 15 -175 35 -230 44 -55 8 -131 20 -170 27 -38 6 -97 15 -130 19
-33 5 -89 13 -125 18 -36 6 -112 15 -170 21 -58 6 -163 23 -235 36 -71 13
-164 29 -205 34 -41 5 -115 16 -165 25 -49 8 -112 17 -140 20 -27 2 -79 9
-115 15 -36 6 -103 17 -150 25 -47 8 -101 16 -120 19 -19 2 -55 10 -80 16 -25
7 -63 14 -85 15 -22 2 -65 6 -95 9z m-1 -124 c14 -1 46 -5 71 -11 25 -5 72
-14 105 -18 33 -5 69 -11 80 -14 11 -3 40 -10 65 -16 25 -6 124 -20 220 -31
96 -11 213 -27 260 -36 47 -9 101 -17 120 -20 19 -2 74 -10 123 -18 48 -8 91
-17 95 -20 5 -3 46 -8 93 -12 46 -3 88 -9 93 -12 5 -3 48 -9 95 -14 47 -5 95
-10 106 -10 11 0 63 -6 115 -14 52 -7 142 -20 200 -29 58 -9 132 -21 165 -25
33 -5 85 -13 115 -19 30 -6 64 -12 75 -15 11 -2 65 -17 120 -31 55 -15 116
-31 135 -36 19 -5 78 -14 130 -19 52 -6 140 -17 195 -25 55 -8 156 -20 225
-25 69 -5 137 -12 153 -16 18 -4 27 -13 27 -25 0 -11 -4 -19 -9 -19 -6 0 -35
-33 -66 -72 -31 -40 -75 -96 -98 -123 -23 -28 -58 -71 -77 -95 -19 -24 -45
-56 -58 -70 -12 -14 -50 -70 -84 -125 -35 -55 -65 -102 -68 -105 -3 -3 -27
-38 -53 -79 -26 -41 -47 -78 -47 -83 0 -4 -30 -8 -67 -8 -38 0 -122 9 -188 19
-66 11 -142 23 -170 27 -27 4 -54 7 -58 6 -4 -1 -20 4 -35 12 -15 7 -58 17
-95 21 -38 4 -83 13 -101 20 -18 8 -79 17 -137 20 -57 4 -138 13 -179 21 -41
7 -156 28 -255 45 -99 17 -214 35 -255 39 -41 5 -138 15 -214 24 -77 9 -149
19 -160 22 -12 2 -70 9 -131 14 -60 5 -126 12 -145 14 -19 3 -66 9 -105 15
-38 6 -99 15 -135 21 -36 6 -83 15 -105 21 -22 5 -60 11 -85 14 -25 3 -97 9
-160 15 -63 5 -164 14 -225 20 -60 6 -135 20 -165 30 -30 11 -86 24 -125 30
-38 5 -103 10 -142 10 -40 0 -73 3 -73 8 0 4 10 19 23 33 12 15 47 46 77 69
30 23 80 64 110 91 30 26 89 76 130 111 41 34 115 98 163 142 49 44 110 93
136 110 27 17 85 65 130 107 59 56 81 83 81 101 0 13 3 28 7 31 3 4 18 7 32 7z
m3326 -590 c8 0 17 -10 19 -22 3 -13 7 -39 10 -58 3 -19 9 -53 12 -75 4 -22
13 -48 20 -59 7 -10 10 -24 7 -32 -3 -7 2 -37 10 -66 9 -29 19 -71 22 -93 3
-22 11 -56 17 -75 6 -19 15 -46 20 -60 6 -14 14 -52 19 -85 5 -33 9 -89 9
-125 0 -36 6 -91 15 -122 14 -55 14 -59 -6 -93 -12 -19 -24 -35 -28 -35 -3 0
-14 37 -24 83 -9 45 -22 132 -28 192 -7 61 -19 151 -29 200 -9 50 -24 104 -33
120 -9 17 -22 37 -29 46 -7 9 -23 21 -35 27 -12 7 -33 12 -46 12 -17 0 -34
-12 -53 -37 -16 -21 -59 -66 -96 -102 -38 -35 -68 -69 -68 -77 0 -7 -17 -30
-38 -51 -21 -21 -44 -51 -52 -68 -8 -16 -22 -41 -32 -54 -10 -13 -18 -34 -18
-46 0 -12 -20 -42 -45 -68 -24 -26 -52 -61 -61 -79 -9 -18 -24 -38 -33 -45 -8
-6 -16 -19 -16 -30 0 -10 -4 -52 -9 -94 -5 -49 -4 -89 3 -115 6 -21 14 -79 17
-129 4 -49 10 -97 15 -106 4 -9 16 -74 25 -145 10 -73 24 -136 32 -146 8 -9
11 -21 8 -26 -3 -5 1 -15 9 -22 8 -7 15 -29 15 -49 0 -30 -8 -44 -40 -76 -28
-27 -43 -36 -50 -29 -6 6 -13 31 -15 55 -2 24 -8 71 -15 104 -6 33 -13 73 -15
89 -3 17 -9 100 -15 185 -6 86 -16 181 -21 211 -6 30 -13 134 -16 231 l-5 175
31 55 c17 30 36 61 41 69 6 8 18 30 27 48 9 17 22 32 28 32 6 0 17 16 25 35 8
19 17 35 20 35 4 0 12 18 19 40 6 22 16 40 20 40 5 0 33 30 63 66 29 37 73 93
98 125 25 32 72 89 105 127 33 38 76 90 95 116 19 25 45 49 58 52 12 3 22 10
22 15 0 5 7 9 15 9z m-4239 -350 c16 0 67 -5 114 -10 47 -6 132 -18 190 -27
58 -8 112 -19 120 -23 8 -4 44 -10 80 -13 36 -3 119 -10 185 -17 66 -6 154
-15 195 -20 41 -5 122 -16 180 -25 58 -8 148 -24 200 -34 52 -11 109 -20 125
-19 17 0 48 -1 70 -2 22 0 81 -7 130 -15 50 -8 144 -19 210 -24 66 -6 145 -14
175 -17 30 -3 57 -7 61 -10 3 -2 49 -10 100 -18 52 -8 159 -26 239 -40 80 -14
201 -34 270 -45 69 -12 190 -32 270 -46 80 -13 186 -31 235 -40 50 -8 138 -22
198 -31 l107 -17 1 -136 c0 -75 2 -156 4 -181 3 -25 7 -65 10 -90 3 -25 8 -58
11 -75 3 -16 11 -100 19 -185 7 -85 23 -218 35 -295 20 -124 21 -150 10 -225
-6 -49 -18 -92 -27 -102 -10 -11 -31 -18 -55 -18 l-38 0 0 273 c0 149 -4 297
-9 327 -5 31 -13 144 -16 251 -6 147 -12 204 -24 230 -14 29 -22 35 -61 40
-25 3 -57 11 -71 16 -14 6 -50 14 -80 18 -30 3 -76 8 -104 10 -27 2 -77 8
-110 14 -33 6 -81 11 -107 11 -26 0 -59 5 -75 12 -15 6 -50 15 -78 19 -27 4
-79 14 -115 22 -36 8 -96 19 -135 25 -38 6 -122 16 -185 22 -63 6 -131 16
-151 21 -20 5 -72 11 -115 14 -44 2 -132 16 -198 30 -65 14 -132 25 -148 25
-16 0 -68 7 -116 16 -48 8 -139 26 -202 40 -63 13 -151 28 -195 34 -44 5 -114
12 -155 15 -41 3 -95 8 -120 12 -25 3 -50 9 -55 14 -6 4 -20 8 -30 8 -11 1
-96 5 -190 10 -93 6 -183 14 -200 19 -16 6 -43 17 -60 26 -16 9 -41 16 -55 16
-14 -1 -34 -7 -45 -16 -18 -14 -19 -26 -17 -217 1 -124 -4 -254 -13 -337 -10
-101 -12 -165 -5 -255 5 -66 12 -162 16 -212 4 -51 3 -93 -1 -93 -5 0 -26 8
-47 17 -21 9 -38 24 -39 32 0 9 -2 25 -3 36 -2 11 -8 54 -14 95 -7 41 -19 118
-27 170 -8 52 -24 205 -35 340 -12 135 -28 283 -36 330 -9 47 -18 138 -21 203
l-6 117 29 0z m4152 -150 c4 0 12 -4 18 -8 7 -4 17 -33 24 -65 6 -33 12 -90
11 -129 0 -39 4 -79 9 -89 6 -10 12 -51 15 -91 2 -40 12 -105 23 -145 11 -39
16 -77 12 -83 -5 -9 -17 -10 -36 -5 -16 5 -32 9 -36 10 -5 2 -15 3 -23 4 -11
1 -15 13 -15 44 0 23 -15 101 -34 172 -19 72 -42 158 -51 192 l-17 63 46 56
c25 31 46 60 46 65 0 5 3 9 8 9z m-3830 -220 c5 0 23 -7 41 -16 24 -12 30 -20
26 -35 -4 -11 -2 -26 4 -33 6 -7 9 -34 6 -62 -3 -27 -8 -67 -11 -89 -4 -25 0
-57 9 -83 11 -31 13 -53 6 -75 -5 -18 -9 -51 -9 -74 0 -23 4 -44 8 -47 5 -3 7
-19 4 -35 -2 -16 3 -44 12 -62 9 -18 16 -42 16 -55 0 -13 4 -25 9 -28 5 -4 12
-29 16 -57 6 -42 4 -54 -9 -61 -9 -5 -16 -15 -16 -23 0 -8 -6 -18 -13 -22 -7
-4 -21 -25 -32 -45 -10 -21 -26 -40 -34 -43 -7 -3 -16 -4 -18 -1 -3 2 -9 60
-16 128 -6 67 -11 179 -11 248 -1 69 3 161 7 205 4 44 8 134 10 200 1 66 -2
130 -6 143 -5 12 -4 22 1 22z m611 -70 c10 0 33 -3 50 -6 18 -4 31 -13 31 -22
0 -12 -8 -13 -42 -8 -22 4 -45 9 -50 12 -4 3 -8 9 -8 15 0 5 8 9 19 9z"/>
</g>
</g>
</svg>
