<?xml version="1.0" standalone="no"?>
<!DOCTYPE svg PUBLIC "-//W3C//DTD SVG 20010904//EN"
 "http://www.w3.org/TR/2001/REC-SVG-20010904/DTD/svg10.dtd">
<svg version="1.0" xmlns="http://www.w3.org/2000/svg"
 width="1192.000000pt" height="1855.000000pt" viewBox="0 0 1192.000000 1855.000000"
 preserveAspectRatio="xMidYMid meet">
<metadata>
Created by potrace 1.16, written by Peter Selinger 2001-2019
</metadata>
<g transform="translate(0.000000,1855.000000) scale(0.100000,-0.100000)"
fill="#000000" stroke="none">
<g>
<path d="M3936 17563 c-8 3 -28 -9 -45 -27 -17 -18 -31 -43 -31 -56 0 -14 -9
-65 -20 -115 -10 -49 -28 -119 -38 -155 -11 -36 -32 -103 -47 -150 -15 -47
-31 -101 -35 -120 -5 -19 -20 -89 -34 -155 -13 -66 -30 -158 -36 -205 -6 -46
-13 -87 -15 -90 -2 -3 -8 -50 -15 -105 -6 -55 -17 -146 -25 -201 -8 -56 -24
-142 -34 -190 -10 -49 -29 -124 -40 -167 -12 -43 -32 -171 -45 -285 -14 -114
-27 -243 -30 -287 -3 -44 -12 -123 -20 -175 -9 -52 -22 -156 -31 -230 -9 -74
-18 -142 -20 -150 -3 -8 -14 -94 -25 -190 -12 -96 -32 -283 -45 -415 -14 -132
-27 -253 -31 -270 -3 -16 -9 -50 -14 -75 -6 -25 -19 -88 -31 -140 -12 -52 -25
-122 -30 -155 -4 -33 -17 -103 -28 -157 -12 -53 -25 -125 -31 -160 -5 -34 -21
-146 -35 -248 -13 -102 -34 -252 -45 -335 -11 -82 -27 -206 -35 -275 -9 -69
-32 -206 -52 -305 -20 -99 -39 -207 -44 -240 -4 -33 -12 -78 -18 -100 -5 -22
-15 -58 -21 -80 -6 -22 -20 -83 -31 -135 -12 -52 -23 -105 -26 -118 -3 -12 0
-29 7 -37 7 -9 8 -20 2 -30 -5 -9 -7 -28 -4 -41 3 -16 11 -24 26 -24 12 0 44
16 73 35 28 19 61 36 74 39 13 3 51 8 84 11 33 2 116 11 185 20 69 8 172 19
230 24 58 5 242 8 410 7 168 -2 409 -6 535 -10 127 -4 316 -12 420 -17 105 -6
303 -14 440 -19 138 -5 275 -11 305 -14 30 -3 87 -7 125 -10 39 -3 88 -8 110
-11 22 -3 153 -15 290 -26 138 -10 295 -26 350 -34 55 -8 161 -15 235 -15 74
0 266 -2 425 -5 160 -3 390 -9 513 -14 123 -4 269 -7 325 -5 56 2 199 8 317
14 118 6 251 11 295 10 52 -1 99 -8 133 -21 29 -10 66 -19 83 -19 17 0 32 6
35 15 4 8 12 15 20 15 10 0 14 14 14 54 0 29 -6 69 -14 87 -7 19 -19 75 -26
124 -7 50 -18 96 -23 103 -7 9 -10 103 -9 255 0 133 4 257 7 277 3 19 17 188
31 375 13 187 33 401 43 475 11 74 26 169 35 210 9 41 22 122 30 180 8 58 24
161 36 230 12 69 32 179 46 245 13 66 32 149 41 185 9 36 19 83 23 105 5 22
15 66 24 98 9 32 16 67 16 78 0 10 4 27 9 37 5 9 17 42 25 72 9 31 21 78 26
105 5 28 23 100 40 160 17 61 35 124 40 140 5 17 13 46 18 65 6 19 14 49 20
65 5 17 18 59 28 95 9 36 21 70 25 75 3 6 16 39 27 75 12 36 35 110 51 165 16
55 41 141 56 190 15 50 47 151 72 225 24 74 50 155 57 180 7 25 30 92 50 150
20 58 41 119 47 135 6 17 15 46 21 65 5 19 14 39 19 44 5 6 9 18 9 28 0 9 11
41 24 70 13 29 27 68 31 87 4 18 17 56 30 85 12 28 26 66 30 84 3 17 27 85 52
150 24 64 51 135 58 157 7 22 25 69 40 105 14 36 37 88 51 117 13 28 24 56 24
62 0 6 9 30 19 53 11 24 28 66 39 93 11 28 22 72 26 98 4 36 2 49 -8 53 -8 3
-30 -5 -48 -18 -18 -12 -55 -41 -83 -64 -27 -22 -61 -47 -75 -54 -13 -7 -65
-48 -115 -90 -49 -42 -112 -93 -140 -114 -27 -20 -72 -52 -100 -71 -27 -19
-80 -56 -116 -82 -37 -26 -88 -64 -114 -83 -27 -19 -87 -64 -134 -99 -47 -35
-123 -94 -167 -130 -45 -36 -142 -115 -215 -176 -74 -60 -155 -126 -180 -145
-25 -19 -70 -55 -99 -80 -30 -25 -99 -83 -154 -130 -56 -47 -114 -95 -130
-108 -15 -12 -50 -41 -76 -64 -26 -24 -69 -62 -96 -85 -27 -23 -92 -79 -144
-124 -52 -45 -140 -121 -195 -169 -55 -48 -131 -115 -170 -149 -38 -33 -72
-58 -75 -53 -4 4 -20 39 -37 77 -17 39 -34 86 -38 105 -4 19 -32 96 -62 170
-30 74 -66 169 -80 210 -14 41 -33 93 -43 115 -10 22 -24 58 -31 80 -7 22 -17
45 -22 52 -5 7 -24 54 -42 105 -19 51 -56 154 -83 229 -27 75 -53 151 -57 170
-4 19 -16 52 -26 74 -10 22 -24 56 -32 76 -8 19 -37 103 -65 185 -28 82 -62
187 -76 234 -14 47 -31 114 -37 150 -7 36 -18 72 -26 79 -11 13 -17 13 -48 -2
-20 -10 -35 -24 -35 -34 0 -10 -33 -72 -73 -138 -40 -66 -84 -138 -98 -160
-14 -22 -35 -61 -47 -87 -12 -26 -22 -50 -22 -52 0 -3 -13 -25 -30 -49 -16
-25 -30 -48 -30 -51 0 -4 -18 -34 -40 -66 -22 -32 -40 -62 -40 -66 0 -3 -39
-70 -87 -148 -48 -77 -106 -177 -130 -221 -24 -44 -57 -109 -74 -145 -17 -36
-47 -99 -68 -140 -21 -41 -42 -84 -48 -95 -6 -11 -17 -33 -24 -50 -7 -16 -32
-61 -55 -100 -23 -38 -65 -113 -95 -165 -29 -52 -64 -117 -79 -145 -14 -27
-57 -105 -94 -173 -38 -67 -72 -121 -77 -120 -4 2 -29 35 -56 74 -26 39 -63
89 -81 110 -18 21 -48 60 -67 86 -19 26 -35 50 -35 53 0 3 -16 32 -36 63 -20
31 -45 63 -55 70 -11 7 -19 19 -19 27 0 8 -16 30 -35 49 -19 20 -35 40 -35 45
0 6 -14 30 -30 53 -17 24 -47 68 -68 98 -20 30 -40 62 -44 70 -5 8 -21 38 -38
65 -16 28 -39 68 -51 89 -12 22 -45 76 -74 120 -29 45 -79 110 -110 146 -32
36 -67 72 -77 81 -10 9 -18 23 -18 32 0 8 -3 17 -8 19 -4 2 -30 30 -57 63 -28
32 -58 67 -67 77 -10 10 -18 24 -18 31 0 7 -18 35 -41 62 -22 27 -56 72 -74
100 -19 27 -47 64 -62 80 -16 17 -43 53 -61 81 -17 27 -43 61 -58 75 -14 13
-47 53 -74 89 -26 36 -62 90 -79 120 -18 30 -36 67 -42 82 -6 14 -16 29 -23
31z m-8 -213 c5 0 25 -24 45 -52 20 -29 53 -71 74 -93 20 -22 63 -74 95 -115
33 -41 94 -122 136 -179 42 -57 95 -127 117 -156 22 -29 75 -97 117 -151 42
-55 96 -119 118 -144 22 -25 60 -74 84 -110 24 -36 53 -83 66 -105 12 -22 33
-58 45 -80 13 -22 38 -65 57 -96 18 -31 51 -83 72 -115 21 -32 60 -86 86 -119
25 -33 66 -89 91 -124 24 -36 59 -85 77 -110 17 -25 45 -64 61 -86 15 -22 54
-78 86 -125 32 -47 71 -104 87 -126 15 -23 28 -48 28 -56 0 -8 -16 -41 -36
-74 -20 -32 -56 -97 -81 -144 -25 -47 -63 -114 -84 -149 -22 -34 -39 -64 -39
-66 0 -2 -21 -35 -47 -73 -27 -38 -76 -111 -110 -161 -35 -50 -63 -95 -63 -99
0 -5 -8 -17 -19 -28 -10 -11 -36 -47 -58 -80 -22 -32 -47 -71 -54 -85 -8 -15
-32 -58 -53 -95 -22 -38 -47 -78 -57 -89 -10 -11 -25 -36 -33 -55 -8 -19 -46
-80 -85 -135 -38 -55 -80 -120 -92 -145 -13 -25 -32 -61 -44 -80 -12 -19 -41
-73 -65 -120 -24 -47 -53 -96 -64 -110 -12 -14 -57 -85 -101 -158 -44 -73
-105 -166 -135 -207 -30 -41 -95 -129 -145 -196 -49 -68 -98 -130 -107 -139
-9 -8 -28 -31 -42 -50 -14 -19 -39 -61 -56 -92 -18 -31 -51 -79 -74 -106 -22
-27 -61 -78 -86 -113 -25 -35 -52 -77 -60 -94 -8 -16 -34 -59 -58 -94 -24 -35
-57 -92 -74 -125 -17 -34 -56 -99 -88 -146 -31 -47 -78 -117 -105 -157 -26
-40 -83 -110 -126 -157 -42 -46 -103 -123 -133 -171 -31 -47 -61 -83 -66 -80
-5 3 -7 11 -5 18 3 7 9 48 15 92 5 44 19 123 30 175 11 52 27 133 35 180 7 47
19 108 24 135 6 28 23 111 37 185 14 74 29 160 33 190 5 30 14 89 21 130 6 41
18 104 26 140 8 36 14 86 14 112 0 26 4 58 10 72 5 15 14 77 19 140 5 62 14
122 20 133 5 11 17 99 25 194 9 101 28 235 46 319 17 80 38 179 45 220 8 41
19 107 24 145 6 39 20 153 31 255 12 102 28 241 36 310 7 69 23 197 35 285 12
88 30 214 40 280 11 66 26 201 35 300 8 99 24 227 35 285 11 58 36 168 55 246
19 77 34 152 34 167 0 14 5 38 10 52 6 15 17 73 26 129 8 55 24 171 34 256 11
85 24 178 29 205 5 28 14 79 21 114 6 35 19 89 30 120 10 31 32 103 50 161 17
58 40 134 51 170 10 36 19 73 19 83 0 9 4 17 8 17z m2833 -20 c4 0 21 -38 38
-85 17 -47 33 -97 37 -112 3 -16 21 -68 40 -118 19 -49 44 -115 56 -145 11
-30 27 -68 34 -85 7 -16 28 -73 47 -125 20 -52 39 -108 43 -125 4 -16 17 -50
30 -75 12 -25 30 -73 39 -105 10 -33 41 -119 71 -191 29 -73 62 -151 73 -175
11 -24 24 -60 30 -79 5 -19 23 -71 39 -115 17 -44 45 -114 62 -155 18 -41 34
-88 37 -105 3 -16 9 -34 13 -40 5 -5 18 -35 29 -65 12 -30 21 -62 21 -70 0 -9
-26 -38 -57 -66 -32 -27 -69 -57 -83 -66 -14 -9 -63 -51 -110 -93 -47 -41 -92
-81 -99 -88 -8 -6 -38 -28 -65 -49 -28 -20 -80 -58 -115 -85 -35 -26 -93 -72
-128 -100 -36 -29 -68 -53 -72 -53 -3 0 -20 -13 -38 -28 -17 -15 -54 -45 -83
-67 -28 -22 -80 -62 -114 -90 -34 -27 -107 -87 -161 -132 -55 -46 -103 -83
-106 -83 -4 0 -17 15 -29 34 -11 19 -24 36 -28 38 -4 2 -32 35 -63 73 -30 39
-77 102 -104 140 -27 39 -73 96 -102 127 -29 32 -53 61 -53 66 0 4 -16 23 -35
42 -19 19 -35 39 -35 43 0 5 -39 56 -87 115 -49 58 -102 129 -120 157 l-32 50
23 40 c13 22 47 87 77 145 29 58 82 157 117 220 36 63 75 131 87 150 13 19 40
67 60 105 21 39 71 135 112 215 41 80 104 201 140 270 35 69 95 176 133 239
38 62 86 141 107 175 22 33 55 88 75 121 19 33 55 96 78 140 24 44 70 122 103
173 33 50 64 92 68 92z m3282 -51 c4 1 7 -4 7 -9 0 -6 -12 -39 -26 -73 -15
-34 -34 -87 -44 -117 -10 -30 -30 -82 -45 -115 -16 -33 -32 -69 -36 -80 -4
-11 -20 -56 -35 -100 -15 -44 -64 -188 -110 -320 -45 -132 -100 -289 -122
-350 -22 -60 -67 -193 -101 -295 -33 -102 -77 -239 -97 -305 -20 -66 -44 -147
-55 -180 -10 -33 -36 -123 -58 -200 -23 -77 -45 -147 -49 -155 -5 -8 -20 -53
-34 -100 -14 -47 -40 -132 -56 -190 -17 -58 -45 -159 -61 -225 -17 -66 -50
-199 -75 -295 -24 -96 -56 -227 -71 -290 -15 -63 -34 -150 -41 -195 -7 -44
-22 -138 -34 -210 -12 -71 -28 -168 -36 -215 -7 -47 -21 -123 -29 -170 -8 -47
-22 -140 -30 -208 -8 -68 -17 -127 -20 -131 -2 -5 -9 -69 -14 -142 -6 -74 -15
-210 -21 -304 -5 -93 -15 -212 -21 -264 -11 -86 -13 -92 -25 -70 -7 13 -13 32
-14 41 0 10 -10 46 -21 80 -12 35 -50 135 -84 223 -35 88 -68 176 -73 195 -6
19 -28 89 -48 155 -21 66 -41 127 -45 135 -3 8 -14 40 -22 70 -9 30 -19 71
-23 90 -3 19 -12 44 -19 55 -6 11 -29 81 -50 155 -20 74 -46 160 -57 190 -11
30 -26 78 -33 105 -7 28 -31 115 -54 195 -23 80 -57 197 -77 260 -19 63 -44
140 -55 171 -10 31 -19 65 -19 77 0 11 -4 23 -9 27 -5 3 -13 20 -17 37 -3 18
-10 39 -15 48 -5 8 -28 67 -52 130 -24 63 -54 144 -66 180 -12 36 -24 72 -26
80 -2 8 -15 47 -30 85 -15 39 -30 84 -35 100 -4 17 -28 89 -53 160 -25 72 -50
144 -56 160 -5 17 -19 59 -30 95 l-20 65 37 34 c20 18 74 65 120 105 46 39
109 93 140 120 31 26 68 58 82 70 14 12 36 29 50 39 13 9 49 41 80 70 30 29
91 84 135 123 44 39 126 109 181 155 56 46 121 100 145 119 24 19 66 54 94 78
27 24 64 56 80 71 17 16 48 40 70 55 22 14 63 45 90 67 28 22 82 64 120 93 39
29 88 71 111 92 22 21 64 55 92 74 29 19 89 63 132 98 44 34 84 62 89 62 5 0
11 4 13 8 2 5 41 34 88 65 47 31 119 81 160 111 41 30 86 64 100 76 14 13 49
41 79 64 30 22 75 53 100 68 25 15 49 27 54 27z m-2522 -1999 c4 0 11 -12 16
-27 6 -16 15 -44 22 -63 7 -19 34 -100 61 -180 27 -80 74 -217 105 -305 31
-88 60 -171 65 -185 4 -14 23 -63 40 -110 18 -47 45 -121 61 -165 16 -44 49
-139 73 -211 24 -72 56 -178 71 -235 14 -57 31 -113 36 -124 5 -11 18 -56 30
-100 11 -44 36 -129 54 -190 19 -60 41 -137 49 -170 8 -33 26 -96 41 -140 15
-44 31 -89 35 -100 5 -11 25 -72 45 -135 20 -63 50 -160 65 -215 16 -55 42
-140 59 -190 17 -49 42 -121 56 -158 14 -38 31 -80 39 -95 7 -15 34 -90 59
-167 26 -77 62 -205 82 -284 20 -79 38 -174 41 -210 l6 -66 -33 35 c-18 19
-64 70 -103 113 -39 43 -95 113 -124 155 -29 42 -82 111 -117 152 -35 41 -79
95 -98 120 -18 25 -72 97 -119 160 -47 63 -94 129 -104 145 -10 17 -59 77
-109 135 -49 58 -126 146 -170 196 -44 50 -127 143 -183 207 -57 64 -118 138
-135 164 -17 26 -70 88 -117 137 -47 50 -131 145 -187 211 -55 66 -131 154
-169 195 -38 42 -85 92 -104 112 -19 20 -67 70 -105 110 -39 40 -109 116 -155
168 -47 52 -91 106 -98 120 -7 14 -36 50 -65 80 -29 30 -67 72 -84 93 -18 22
-33 43 -33 47 0 5 71 66 158 137 86 71 217 176 291 233 73 58 152 118 175 134
22 17 77 56 121 89 44 32 129 100 189 150 60 51 143 122 185 159 42 37 79 67
82 68z m-1982 -157 c9 -11 72 -92 141 -179 69 -87 154 -196 190 -242 36 -45
83 -107 105 -138 22 -31 65 -86 95 -122 31 -37 70 -86 89 -110 l33 -42 -30
-29 c-17 -15 -77 -66 -134 -111 -57 -46 -128 -104 -158 -128 -30 -24 -62 -49
-70 -56 -8 -6 -37 -29 -65 -49 -27 -21 -66 -53 -85 -70 -19 -18 -73 -66 -120
-107 -47 -41 -161 -144 -255 -229 -93 -85 -211 -193 -262 -240 -50 -47 -104
-96 -120 -109 -15 -13 -95 -79 -178 -148 -82 -69 -175 -147 -205 -172 -30 -26
-80 -69 -111 -97 -31 -27 -98 -86 -150 -130 -51 -44 -139 -120 -194 -169 -55
-49 -172 -157 -259 -240 -88 -83 -198 -189 -246 -236 -47 -47 -102 -105 -123
-129 -20 -25 -37 -41 -37 -37 0 4 39 73 87 154 47 81 111 185 141 232 30 47
71 110 91 140 20 30 42 61 50 69 7 8 38 53 68 100 31 47 67 100 82 117 14 17
51 66 81 109 30 42 65 89 77 103 12 15 51 66 87 115 37 48 66 89 66 92 0 2 40
64 89 137 48 73 94 144 101 158 7 14 27 48 45 75 18 28 60 97 95 155 34 58 75
128 91 157 15 28 50 87 78 130 27 43 89 143 138 223 48 80 91 153 95 163 4 9
29 46 55 81 26 36 62 88 78 116 17 28 48 77 71 108 22 31 68 98 101 147 33 50
77 122 98 160 21 39 67 121 103 184 63 109 66 113 81 94z m692 -883 c4 0 41
-37 81 -82 41 -46 107 -123 147 -173 40 -49 124 -144 185 -210 62 -66 137
-147 167 -180 30 -33 73 -80 96 -105 22 -25 74 -84 114 -131 41 -47 92 -108
114 -135 22 -27 61 -71 86 -99 25 -27 71 -81 103 -120 31 -38 60 -75 64 -80 4
-6 45 -53 92 -106 47 -53 108 -122 135 -155 28 -32 63 -72 79 -89 16 -16 61
-66 100 -111 39 -44 81 -92 93 -107 13 -15 40 -51 60 -79 20 -29 51 -74 68
-99 16 -25 49 -70 73 -100 24 -30 66 -84 95 -120 29 -37 88 -111 133 -165 44
-55 89 -112 100 -129 10 -16 43 -59 73 -95 29 -36 72 -85 95 -110 23 -25 51
-59 63 -75 13 -17 37 -49 53 -73 17 -23 29 -46 25 -51 -3 -5 -35 6 -73 25 -37
19 -80 42 -97 52 -16 9 -33 21 -36 26 -4 4 -22 18 -41 30 -20 11 -89 57 -154
100 -66 44 -121 83 -124 86 -3 4 -16 13 -30 20 -14 7 -47 29 -73 49 -26 20
-66 51 -89 69 -22 18 -85 62 -138 97 -53 36 -103 65 -110 65 -8 0 -25 11 -39
24 -15 13 -70 54 -125 90 -54 37 -113 78 -130 91 -18 14 -38 25 -44 25 -6 0
-24 11 -40 25 -16 14 -53 35 -80 48 -28 13 -57 28 -64 34 -7 6 -53 31 -102 57
-48 25 -107 60 -131 76 -24 17 -54 34 -67 40 -13 5 -59 30 -103 55 -44 25
-111 61 -150 80 -38 19 -95 53 -125 75 -30 22 -77 52 -105 65 -27 14 -69 38
-92 53 -22 15 -56 39 -75 54 -18 14 -47 34 -65 45 -17 10 -64 37 -104 61 -39
23 -77 42 -84 42 -7 0 -39 -14 -71 -31 -32 -17 -102 -59 -154 -93 -52 -35
-142 -87 -200 -116 -58 -30 -112 -59 -120 -66 -8 -6 -27 -14 -41 -17 -14 -4
-45 -16 -70 -27 -24 -12 -78 -39 -119 -62 -41 -22 -95 -51 -120 -64 -25 -13
-76 -42 -115 -64 -38 -23 -104 -56 -145 -76 -41 -19 -88 -41 -105 -48 -16 -8
-120 -58 -230 -111 -110 -54 -214 -108 -231 -120 -16 -13 -46 -30 -65 -39 -19
-8 -70 -36 -114 -61 -44 -25 -143 -76 -220 -114 -77 -38 -193 -87 -258 -110
-64 -22 -129 -47 -145 -55 -15 -8 -52 -27 -82 -41 -30 -15 -64 -36 -75 -47
-11 -11 -45 -36 -75 -55 -30 -19 -75 -46 -100 -61 l-45 -25 26 29 c14 16 37
47 51 69 14 22 46 63 72 90 26 28 70 77 99 110 29 32 106 115 172 184 66 69
140 143 165 165 24 23 80 75 125 117 44 42 145 134 225 205 80 71 159 140 176
154 18 14 85 72 150 130 66 58 172 151 238 205 65 55 135 114 156 130 21 17
96 82 167 145 71 63 210 187 308 275 98 88 234 211 304 273 69 62 151 132 181
155 30 23 124 98 210 166 85 68 180 146 209 173 30 26 58 48 62 48z m-216
-1431 c11 0 34 -9 50 -19 17 -11 46 -28 67 -39 20 -11 78 -50 129 -86 51 -36
103 -68 116 -71 12 -4 23 -10 23 -15 0 -5 11 -14 23 -18 13 -5 54 -28 91 -50
37 -23 111 -64 164 -93 53 -28 124 -65 157 -83 33 -17 80 -45 105 -62 25 -17
77 -48 115 -68 39 -21 99 -53 135 -73 36 -19 139 -84 230 -145 91 -60 181
-123 201 -138 20 -16 40 -29 43 -29 4 0 50 -29 104 -65 53 -35 108 -72 122
-82 14 -10 90 -65 170 -123 80 -59 171 -123 203 -143 31 -20 60 -37 62 -37 3
0 24 -15 48 -32 23 -18 64 -44 90 -58 26 -14 47 -28 47 -31 0 -4 -33 -9 -72
-12 -40 -4 -125 -7 -188 -9 -63 -1 -200 -2 -305 -2 -104 0 -361 3 -570 8 -209
5 -479 9 -600 10 -177 2 -233 6 -285 20 -50 14 -125 20 -320 26 -140 5 -280
13 -310 19 -30 5 -91 12 -135 16 -44 3 -208 10 -365 15 -157 6 -310 12 -340
15 -30 2 -140 9 -245 14 -104 6 -329 13 -500 16 -170 3 -398 6 -505 6 -123 1
-241 -4 -320 -14 -69 -9 -161 -18 -205 -21 l-80 -5 25 19 c14 11 75 49 135 85
61 37 117 70 125 75 8 5 42 20 75 34 33 14 92 37 130 51 39 14 120 47 180 72
61 25 148 66 195 91 47 25 123 67 169 94 46 26 86 48 88 48 3 0 18 9 34 21 16
11 108 60 205 110 96 49 183 89 191 89 9 0 68 25 131 56 63 30 140 70 170 87
30 18 80 46 111 64 31 18 106 57 166 86 61 30 182 89 270 131 88 43 178 87
200 98 22 12 58 36 81 55 23 18 48 33 56 33 8 0 33 13 54 29 21 16 48 30 59
30z"/>
</g>
<g>
<path d="M2397 10900 c-18 -1 -49 -7 -69 -14 -21 -8 -50 -22 -65 -31 -15 -10
-49 -39 -75 -63 -27 -25 -48 -51 -48 -59 0 -7 -7 -16 -15 -20 -9 -3 -24 -22
-34 -42 -10 -20 -22 -55 -25 -77 -5 -28 -2 -58 10 -94 13 -40 28 -60 65 -90
30 -23 76 -47 120 -60 57 -18 87 -21 153 -18 57 4 97 12 137 30 41 19 64 38
90 74 19 27 41 65 49 84 8 19 14 62 15 95 0 43 -7 73 -23 107 -13 26 -40 62
-60 80 -20 18 -57 41 -82 52 -25 10 -60 24 -78 32 -18 8 -47 14 -65 14z m8
-87 c17 -3 48 -13 71 -23 22 -9 57 -32 77 -50 20 -18 45 -48 54 -67 9 -19 16
-54 15 -76 0 -23 -7 -58 -15 -77 -9 -19 -26 -45 -39 -57 -13 -12 -44 -31 -70
-42 -37 -17 -59 -20 -119 -16 -45 4 -91 14 -118 27 -24 12 -59 34 -77 50 -24
22 -35 41 -40 73 -3 25 -3 57 0 71 4 15 24 43 44 63 21 20 59 53 85 74 26 22
60 43 75 47 15 5 41 6 57 3z"/>
</g>
<g>
<path d="M9399 10829 c-52 -1 -107 -5 -124 -9 -16 -4 -50 -17 -75 -28 -25 -11
-61 -37 -81 -58 -20 -22 -50 -58 -66 -81 -17 -23 -36 -62 -43 -87 -7 -26 -9
-61 -6 -82 5 -26 25 -53 74 -103 39 -38 91 -78 123 -94 31 -15 70 -30 87 -33
17 -3 55 -1 84 6 29 7 86 31 127 52 41 22 85 46 97 54 12 8 29 37 38 64 9 27
16 64 16 82 0 19 -7 61 -15 93 -9 33 -26 83 -39 110 -14 30 -40 64 -63 83 -40
31 -44 32 -134 31z m-20 -80 c73 1 75 0 108 -35 18 -20 40 -59 48 -87 8 -28
20 -76 27 -108 11 -56 11 -60 -13 -85 -13 -14 -56 -41 -96 -59 -39 -18 -90
-36 -112 -40 -35 -6 -48 -2 -110 35 -44 25 -84 58 -106 87 -20 26 -35 57 -35
72 1 14 9 40 18 58 9 18 41 56 70 86 34 36 65 58 90 65 20 5 70 10 111 11z"/>
</g>
<g>
<path d="M5849 9885 c-53 3 -98 3 -101 0 -3 -3 -25 -8 -49 -10 -24 -3 -93 -9
-154 -15 -60 -5 -135 -16 -165 -25 -30 -10 -93 -39 -138 -66 -46 -27 -86 -49
-89 -49 -2 0 -45 -28 -94 -62 -54 -36 -121 -95 -167 -145 -42 -47 -86 -99 -97
-117 -11 -18 -45 -70 -76 -117 -30 -46 -61 -100 -69 -119 -7 -19 -19 -48 -25
-65 -7 -16 -22 -55 -34 -85 -12 -30 -28 -91 -37 -135 -9 -51 -14 -131 -14
-220 1 -77 2 -147 2 -155 0 -8 6 -40 13 -70 7 -30 24 -80 38 -110 13 -30 27
-69 31 -86 4 -17 31 -60 60 -95 29 -35 81 -92 115 -126 33 -35 64 -63 67 -63
3 0 23 -13 43 -29 20 -15 59 -40 86 -55 28 -15 95 -53 150 -86 55 -33 125 -68
155 -77 30 -10 71 -25 90 -34 l35 -17 -28 -13 c-15 -7 -27 -18 -27 -26 0 -10
19 -13 74 -13 40 0 94 -3 120 -6 l47 -7 -6 -41 c-4 -23 -17 -63 -30 -91 -17
-39 -23 -76 -28 -165 -3 -63 -8 -123 -12 -132 -5 -12 -20 -16 -63 -17 -31 0
-151 -2 -267 -5 -179 -4 -226 -8 -322 -30 -61 -14 -138 -27 -170 -27 -32 -1
-71 -4 -88 -8 -26 -5 -31 -13 -40 -51 -5 -25 -13 -49 -16 -55 -4 -5 -12 -28
-19 -50 -7 -22 -16 -44 -20 -50 -5 -5 -11 -28 -14 -50 -3 -22 -10 -74 -15
-116 -6 -42 -17 -96 -25 -120 -8 -24 -28 -107 -45 -184 -17 -78 -31 -157 -31
-178 0 -20 -7 -84 -16 -143 -9 -65 -13 -132 -10 -173 4 -36 7 -82 7 -101 0
-19 -5 -111 -10 -205 -6 -93 -13 -231 -16 -305 -2 -74 -7 -214 -11 -310 -4
-96 -7 -193 -8 -215 -1 -22 2 -48 7 -57 4 -10 16 -18 26 -18 10 0 23 6 28 13
6 6 15 93 21 192 7 99 14 281 17 405 4 124 8 241 10 260 2 19 4 138 5 264 0
126 5 264 11 305 6 42 20 121 31 176 11 55 28 142 38 193 9 51 21 96 25 100 4
4 4 -72 -1 -168 -4 -96 -8 -186 -8 -200 0 -14 4 -137 8 -275 6 -171 5 -279 -3
-342 -6 -50 -13 -176 -15 -280 -3 -103 -1 -282 4 -398 5 -115 13 -266 19 -335
5 -69 13 -177 16 -240 3 -63 10 -191 15 -285 5 -93 10 -280 10 -415 0 -135 5
-301 10 -370 5 -69 12 -222 15 -340 4 -118 11 -242 15 -275 4 -33 8 -154 9
-270 1 -115 4 -223 6 -240 2 -16 0 -62 -5 -101 -5 -39 -12 -181 -16 -315 -4
-134 -7 -255 -6 -269 0 -14 0 -115 1 -225 0 -110 -3 -230 -7 -266 -4 -37 -7
-79 -6 -95 1 -16 3 -43 3 -59 1 -27 6 -32 44 -43 23 -6 80 -20 127 -31 47 -11
119 -25 160 -30 41 -6 98 -15 125 -21 28 -5 67 -17 88 -25 20 -8 50 -15 65
-15 15 0 33 4 41 9 9 6 11 18 6 40 -4 17 -13 38 -22 46 -8 9 -23 13 -32 10
-10 -3 -46 4 -82 15 -35 12 -100 25 -144 31 -44 5 -87 12 -96 15 -10 2 -30 6
-45 8 -16 2 -51 10 -79 17 -27 6 -58 16 -68 21 -17 9 -18 18 -12 91 4 45 6
179 6 297 -1 118 4 375 9 570 7 245 7 446 0 650 -5 162 -15 365 -20 450 -5 85
-12 223 -16 305 -3 83 -7 287 -10 455 -2 168 -4 325 -4 350 0 25 -6 147 -15
270 -8 124 -15 255 -15 291 l0 66 78 7 c42 4 136 11 207 16 72 6 150 13 175
15 25 3 119 10 210 15 91 5 183 11 205 14 22 4 63 11 90 16 28 5 156 15 285
21 129 6 293 14 363 17 71 4 131 4 133 1 2 -4 3 -94 3 -200 -1 -107 -1 -293 0
-414 0 -121 3 -254 7 -295 3 -41 8 -93 12 -115 3 -22 6 -375 7 -785 1 -410 5
-828 8 -930 4 -102 9 -311 12 -465 3 -154 10 -328 14 -387 5 -58 12 -111 16
-118 3 -6 25 -19 48 -29 23 -10 113 -42 200 -70 87 -29 161 -50 165 -47 5 3
23 -4 40 -15 18 -10 38 -19 46 -19 7 0 21 9 31 20 14 16 16 25 8 43 -7 16 -25
27 -54 34 -24 6 -66 18 -94 28 -27 10 -61 23 -75 30 -14 7 -54 22 -90 33 -36
11 -89 32 -117 46 -29 14 -53 27 -53 29 -1 1 -5 119 -10 262 -5 143 -14 373
-20 510 -7 138 -12 610 -12 1050 0 440 -5 834 -10 875 -5 41 -9 242 -9 445 0
204 5 486 11 627 5 141 10 350 10 465 0 114 4 273 9 353 5 80 10 242 10 360 1
118 6 287 12 375 5 88 12 167 14 175 2 8 5 48 6 88 1 39 6 72 11 72 4 0 8 -3
8 -7 1 -5 3 -26 6 -48 4 -22 9 -44 14 -50 4 -5 13 -38 20 -72 7 -34 10 -74 8
-88 -3 -14 1 -45 9 -68 9 -23 21 -69 29 -102 8 -33 16 -69 19 -80 3 -11 10
-56 16 -100 6 -44 15 -107 20 -140 5 -33 14 -170 19 -305 5 -135 14 -281 20
-325 6 -44 15 -154 20 -245 6 -91 15 -201 20 -245 6 -44 11 -107 13 -140 2
-56 4 -60 26 -60 20 0 26 8 36 40 8 30 8 65 -1 140 -7 55 -15 154 -19 220 -3
66 -8 143 -11 170 -3 28 -10 86 -15 130 -6 44 -14 199 -19 345 -5 186 -14 301
-28 385 -11 66 -30 165 -40 220 -11 55 -24 123 -27 150 -4 28 -16 86 -25 130
-10 44 -26 107 -35 140 -9 33 -23 85 -31 115 -7 30 -13 69 -14 87 0 17 -4 35
-10 38 -5 3 -10 26 -10 49 0 28 -7 52 -18 66 -15 19 -30 23 -78 25 -32 1 -111
-2 -174 -6 -63 -5 -158 -11 -210 -13 -52 -3 -135 -10 -185 -17 -49 -7 -128
-13 -175 -13 l-85 -1 2 35 c1 19 9 82 17 140 9 58 20 134 25 168 5 35 12 66
14 68 3 3 16 7 29 9 14 3 94 7 179 9 103 3 172 10 209 21 30 9 79 22 108 30
29 7 83 27 119 45 37 17 81 41 98 54 16 12 46 28 65 36 19 8 79 58 134 113 74
75 105 115 126 161 15 34 39 106 54 161 15 55 34 125 42 155 11 38 18 122 21
268 5 175 3 224 -10 275 -9 34 -26 107 -37 162 -12 55 -28 114 -36 132 -8 17
-14 36 -14 42 0 6 -14 40 -31 74 -18 34 -52 91 -77 127 -25 36 -58 81 -74 100
-15 19 -63 65 -105 103 -42 37 -96 77 -121 90 -24 12 -47 27 -49 34 -3 7 -9
13 -14 13 -6 0 -22 8 -37 18 -15 11 -45 30 -67 45 -34 22 -55 26 -145 32 -58
3 -148 8 -201 10z m-80 -85 c30 0 118 -5 196 -11 136 -11 142 -12 200 -49 33
-20 88 -54 122 -75 35 -21 104 -79 155 -129 51 -50 107 -111 125 -136 17 -25
47 -71 67 -104 19 -32 44 -86 56 -120 11 -33 31 -110 45 -171 14 -60 30 -132
36 -160 5 -27 12 -101 15 -163 2 -63 0 -158 -6 -212 -5 -54 -18 -122 -29 -152
-11 -29 -25 -80 -31 -113 -7 -33 -27 -89 -46 -125 -19 -37 -65 -97 -106 -140
-47 -49 -98 -89 -143 -114 -38 -21 -77 -44 -85 -51 -8 -6 -42 -21 -75 -32 -33
-12 -91 -31 -130 -44 -62 -21 -93 -23 -285 -27 l-215 -3 -115 41 c-63 23 -142
51 -174 62 -33 12 -75 32 -94 45 -19 12 -40 23 -47 23 -7 0 -18 6 -24 14 -7 8
-36 27 -64 41 -29 15 -83 48 -122 73 -38 26 -108 83 -154 127 -46 44 -94 96
-107 116 -12 20 -35 65 -50 100 -14 35 -37 101 -50 145 -22 74 -23 95 -19 230
2 82 9 166 15 187 5 20 14 52 19 70 5 17 21 64 35 104 15 40 49 109 77 154 27
45 67 107 87 138 20 31 75 95 122 142 47 48 112 104 144 125 32 22 71 47 85
56 14 9 44 26 66 37 22 10 64 29 93 41 30 12 79 25 109 30 31 5 97 12 147 16
50 3 93 8 95 10 2 2 29 4 60 4z m602 -2682 c62 2 67 0 72 -20 3 -13 3 -111 1
-219 -1 -108 -8 -234 -14 -280 -6 -46 -13 -226 -16 -399 -2 -173 -9 -375 -15
-448 -5 -73 -9 -293 -9 -487 0 -255 -3 -356 -11 -361 -7 -4 -39 -8 -73 -10
-34 -1 -106 -5 -161 -8 -55 -3 -147 -10 -205 -16 -58 -5 -154 -12 -215 -14
-60 -3 -135 -10 -165 -16 -30 -5 -146 -14 -258 -20 -112 -5 -208 -12 -213 -16
-5 -3 -60 -7 -122 -9 -62 -2 -156 -10 -209 -16 -71 -9 -105 -9 -122 -1 -22 10
-24 17 -29 124 -2 62 -3 212 -2 333 2 121 9 301 15 400 7 115 9 260 4 400 -4
121 -7 234 -7 250 1 17 6 176 12 354 6 190 15 329 21 336 6 7 40 16 76 20 36
4 79 11 97 16 18 5 84 16 147 24 63 8 246 17 405 20 160 3 304 8 320 10 17 3
66 7 109 11 44 3 102 9 129 15 27 5 91 10 141 10 50 1 123 5 161 9 39 4 100 8
136 8z"/>
<g>
<path d="M6577 9160 c-1 -1 -17 -7 -34 -15 -28 -12 -33 -19 -33 -49 0 -25 6
-38 19 -46 11 -5 33 -10 48 -10 16 0 34 5 41 12 7 7 12 29 12 50 0 32 -4 40
-26 48 -14 6 -26 10 -27 10z"/>
</g>
<g>
<path d="M5473 9110 c-13 0 -35 -11 -49 -25 -20 -20 -25 -34 -22 -63 l3 -37
51 -3 c37 -2 54 1 64 13 8 9 13 33 13 53 -1 22 -8 41 -19 49 -10 7 -28 13 -41
13z"/>
</g>
<g>
<path d="M6163 8958 c-23 2 -32 -2 -41 -23 -7 -14 -12 -32 -12 -38 0 -7 5 -18
11 -24 7 -7 19 -33 28 -60 10 -26 34 -97 55 -157 31 -88 36 -110 25 -117 -8
-5 -23 -9 -34 -9 -11 0 -36 -5 -56 -10 -27 -8 -38 -17 -42 -36 -3 -17 1 -28
15 -35 13 -7 45 -5 108 6 50 8 94 15 100 15 5 0 16 15 25 34 15 31 15 38 2 68
-8 18 -20 49 -27 68 -7 19 -24 59 -37 88 -12 29 -23 56 -23 60 0 4 -15 43 -33
87 -31 72 -37 80 -64 83z"/>
</g>
<g>
<path d="M6296 8258 c-116 -1 -242 -5 -281 -9 -38 -4 -118 -7 -178 -8 -81 0
-113 -5 -132 -17 -14 -9 -25 -24 -25 -34 0 -10 6 -22 13 -28 9 -8 65 -9 172
-6 88 3 162 7 165 9 3 2 84 6 180 9 96 4 198 9 226 12 32 3 58 12 68 23 9 10
14 25 10 35 -6 15 -28 16 -218 14z"/>
</g>
</g>
</g>
</svg>
