<?xml version="1.0" standalone="no"?>
<!DOCTYPE svg PUBLIC "-//W3C//DTD SVG 20010904//EN"
 "http://www.w3.org/TR/2001/REC-SVG-20010904/DTD/svg10.dtd">
<svg version="1.0" xmlns="http://www.w3.org/2000/svg"
 width="1867.000000pt" height="931.000000pt" viewBox="0 0 1867.000000 931.000000"
 preserveAspectRatio="xMidYMid meet">
<metadata>
Created by potrace 1.16, written by Peter Selinger 2001-2019
</metadata>
<g transform="translate(0.000000,931.000000) scale(0.100000,-0.100000)"
fill="#000000" stroke="none">
<g>
<path d="M18010 8991 c-8 4 -25 3 -36 -2 -15 -5 -24 -20 -29 -46 -3 -21 -20
-63 -36 -93 -16 -30 -47 -94 -69 -143 -22 -48 -40 -89 -40 -92 0 -2 -12 -30
-26 -62 -14 -32 -32 -74 -41 -93 -8 -19 -47 -100 -86 -180 -40 -80 -103 -192
-141 -249 -37 -57 -84 -134 -103 -170 -20 -36 -48 -81 -64 -100 -16 -20 -29
-40 -29 -45 0 -5 -9 -19 -20 -31 -10 -11 -30 -39 -42 -61 -13 -23 -40 -71 -61
-108 -21 -36 -42 -66 -46 -66 -5 0 -48 9 -97 19 -49 10 -96 22 -104 25 -8 3
-34 7 -57 10 -23 3 -52 10 -65 17 -12 6 -59 16 -104 20 -46 5 -100 15 -121 23
-21 8 -105 20 -188 26 -82 6 -163 15 -180 20 -16 4 -51 13 -78 19 -26 6 -83
11 -127 11 -44 0 -88 4 -98 9 -9 5 -42 14 -72 20 -30 5 -129 18 -220 27 -91 9
-175 20 -188 25 -13 5 -119 14 -235 19 -117 6 -312 13 -434 15 -122 2 -260 9
-308 15 -47 6 -107 8 -133 5 -26 -3 -90 -10 -142 -15 -52 -5 -156 -10 -231
-10 -123 0 -138 -2 -154 -20 -10 -11 -24 -20 -30 -20 -7 0 -18 14 -25 30 -7
17 -21 36 -30 43 -10 7 -33 34 -51 61 -19 26 -38 55 -44 63 -5 9 -27 34 -47
57 -21 23 -38 45 -38 49 0 4 -19 34 -42 65 -24 31 -55 76 -69 98 -15 23 -38
44 -51 47 -13 4 -35 3 -49 -1 -13 -4 -43 -27 -65 -52 -23 -25 -44 -55 -48 -67
-4 -12 -29 -59 -57 -105 -27 -45 -65 -114 -85 -153 -19 -38 -43 -83 -52 -100
-9 -16 -17 -31 -18 -33 -1 -1 -34 -4 -75 -6 -41 -1 -108 -8 -149 -14 -41 -6
-131 -16 -200 -21 -69 -6 -170 -19 -225 -29 -55 -11 -136 -25 -180 -32 -44 -6
-86 -16 -94 -20 -8 -4 -26 -4 -40 0 -14 4 -80 3 -146 -1 -66 -4 -142 -15 -170
-24 -27 -8 -66 -18 -85 -21 -19 -3 -87 -14 -150 -24 -63 -11 -178 -33 -255
-49 -77 -16 -181 -41 -230 -56 -50 -14 -110 -32 -135 -40 -25 -7 -70 -20 -100
-29 -30 -9 -77 -23 -105 -32 -27 -9 -59 -20 -70 -24 -11 -5 -45 -19 -75 -31
-30 -13 -57 -25 -60 -29 -3 -3 -23 -11 -45 -19 -22 -7 -76 -30 -120 -51 -44
-21 -106 -49 -138 -64 -57 -26 -57 -26 -77 -6 -11 11 -20 26 -20 32 0 7 -16
53 -36 103 -19 49 -44 108 -55 130 -11 22 -30 58 -44 80 -13 22 -31 53 -39 69
-9 16 -16 36 -16 45 -1 9 -12 34 -25 56 -14 22 -29 49 -34 60 -5 12 -16 27
-25 34 -9 7 -16 21 -17 30 0 9 -14 39 -29 66 -16 28 -45 82 -65 120 -19 39
-43 84 -53 101 -10 17 -29 45 -42 63 -14 17 -44 54 -67 82 -24 27 -52 67 -62
88 -11 21 -27 41 -34 44 -8 3 -33 3 -56 0 -26 -4 -42 -12 -46 -23 -3 -9 -39
-68 -80 -130 -41 -62 -75 -118 -75 -125 0 -6 -9 -20 -19 -29 -11 -10 -27 -32
-36 -49 -9 -18 -29 -52 -45 -77 -16 -25 -42 -70 -58 -100 -16 -30 -62 -118
-102 -195 -40 -77 -90 -171 -110 -210 -20 -38 -47 -88 -59 -110 -13 -22 -35
-56 -50 -75 -15 -19 -37 -56 -49 -81 l-22 -45 -48 7 c-26 4 -81 17 -122 28
-41 11 -88 21 -103 21 -16 0 -47 10 -70 23 -23 13 -73 31 -112 40 -38 9 -84
17 -102 17 -17 0 -34 4 -37 9 -3 5 -50 18 -103 30 -54 12 -127 29 -163 38 -36
8 -99 27 -140 40 -41 14 -95 26 -120 27 -25 1 -70 8 -100 14 -30 6 -113 23
-185 37 -71 13 -168 29 -215 36 -47 6 -125 15 -175 20 -49 4 -141 13 -203 20
-78 9 -126 10 -150 3 -21 -5 -50 -7 -67 -3 -16 4 -93 12 -170 18 -77 6 -180
16 -230 21 -49 6 -178 14 -286 18 -193 7 -197 7 -218 32 -12 14 -33 50 -47 80
-14 30 -33 64 -43 75 -10 11 -37 58 -60 105 -24 46 -55 103 -70 125 -15 22
-32 49 -39 60 -7 11 -19 35 -28 54 -9 19 -28 50 -44 70 -16 20 -51 76 -79 125
-28 49 -51 92 -51 96 0 5 -18 32 -40 61 -22 30 -40 56 -40 60 0 4 -13 12 -28
18 -16 7 -41 9 -56 5 -14 -3 -42 -25 -60 -48 -18 -22 -45 -61 -60 -86 -15 -25
-52 -79 -81 -120 -30 -41 -70 -100 -91 -130 -20 -30 -45 -64 -55 -75 -10 -11
-38 -57 -61 -102 -24 -44 -61 -112 -82 -150 -21 -37 -45 -75 -52 -84 -8 -8
-24 -35 -37 -59 l-24 -45 -69 -2 c-38 -1 -89 -6 -114 -11 -25 -6 -137 -11
-249 -12 -112 0 -226 -5 -254 -10 -27 -6 -124 -10 -215 -10 -91 0 -191 -4
-221 -10 -31 -5 -124 -19 -207 -30 -84 -12 -187 -32 -230 -45 -44 -14 -90 -25
-104 -25 -14 0 -58 -7 -97 -15 -40 -8 -121 -31 -180 -50 -59 -19 -109 -33
-111 -31 -2 3 -23 -2 -45 -11 -23 -8 -58 -17 -77 -19 -19 -2 -62 -13 -95 -24
-33 -10 -117 -47 -186 -82 -69 -35 -141 -69 -160 -77 -18 -7 -70 -33 -114 -58
-44 -24 -98 -55 -120 -68 -22 -13 -48 -24 -57 -25 -10 0 -18 -4 -18 -9 0 -5
-10 -11 -23 -15 -13 -3 -44 -21 -69 -40 -25 -19 -56 -38 -69 -41 -18 -5 -32 2
-57 26 -19 19 -32 41 -32 56 0 14 -10 39 -22 56 -13 17 -28 41 -35 52 -7 11
-16 29 -22 40 -5 12 -16 27 -25 34 -9 7 -16 17 -16 21 0 4 -17 37 -39 71 -21
35 -65 116 -98 179 -33 63 -74 137 -92 164 -17 28 -31 57 -31 66 0 9 -5 21
-10 26 -6 6 -22 78 -36 160 -20 115 -31 154 -48 172 -17 20 -28 23 -59 19 -21
-3 -42 -8 -45 -12 -4 -4 -6 -44 -6 -89 1 -57 7 -94 20 -121 10 -22 19 -57 19
-80 1 -22 13 -70 27 -107 14 -37 33 -80 44 -95 10 -15 40 -71 66 -123 27 -52
83 -152 126 -221 42 -70 82 -133 88 -140 6 -8 15 -25 19 -38 4 -14 11 -29 16
-35 5 -6 19 -24 32 -41 13 -16 36 -51 50 -76 15 -25 27 -48 27 -51 0 -3 -27
-22 -60 -42 -33 -20 -92 -70 -132 -111 -39 -40 -84 -95 -100 -122 -15 -26 -27
-60 -28 -75 0 -15 9 -42 20 -60 11 -18 48 -56 82 -85 34 -29 65 -53 69 -53 3
0 22 -13 40 -30 19 -16 39 -30 46 -30 6 0 13 -3 15 -7 1 -5 38 -25 81 -45 42
-21 84 -38 93 -38 8 0 27 -6 42 -14 15 -7 75 -30 134 -50 66 -23 115 -35 130
-31 20 5 27 0 44 -32 10 -21 22 -40 27 -41 4 -2 15 -20 23 -40 9 -21 17 -45
19 -55 2 -10 13 -33 24 -50 11 -18 40 -72 64 -122 24 -49 54 -115 66 -145 12
-30 27 -66 34 -80 6 -14 22 -41 34 -60 12 -19 31 -60 43 -92 11 -31 27 -62 35
-68 8 -7 18 -28 21 -49 4 -20 20 -65 36 -101 16 -36 40 -85 54 -110 13 -25 40
-76 59 -115 19 -38 46 -88 60 -110 14 -22 29 -50 35 -63 5 -13 10 -32 10 -43
0 -11 11 -41 25 -67 14 -26 25 -52 25 -58 0 -6 7 -17 14 -24 8 -6 22 -33 31
-60 9 -27 23 -54 31 -60 8 -7 14 -30 14 -52 0 -30 -13 -61 -50 -125 -27 -47
-50 -87 -50 -89 0 -3 -16 -30 -35 -60 -19 -30 -35 -59 -35 -64 0 -6 -4 -10 -9
-10 -5 0 -12 -13 -16 -30 -4 -16 -11 -32 -16 -35 -5 -4 -9 -15 -9 -25 0 -10
-6 -23 -14 -27 -7 -4 -27 -36 -45 -70 -17 -34 -35 -64 -40 -67 -5 -4 -12 -19
-16 -35 -3 -15 -14 -37 -24 -48 -10 -11 -24 -35 -31 -54 -7 -19 -34 -65 -60
-104 -27 -38 -63 -99 -80 -135 -18 -36 -37 -72 -41 -80 -5 -8 -21 -40 -35 -70
-14 -30 -30 -64 -35 -75 -6 -11 -25 -47 -44 -80 -19 -33 -51 -94 -71 -135 -20
-41 -43 -88 -50 -105 -8 -16 -27 -52 -42 -80 -15 -27 -35 -63 -44 -80 -9 -16
-30 -60 -47 -98 -17 -37 -31 -71 -31 -76 0 -5 -6 -16 -13 -23 -7 -7 -21 -28
-30 -47 -9 -19 -17 -39 -17 -46 0 -6 -11 -17 -25 -23 -14 -7 -38 -12 -52 -12
-15 0 -56 -7 -92 -16 -36 -9 -70 -20 -76 -24 -5 -4 -28 -13 -50 -20 -22 -7
-46 -17 -53 -23 -7 -5 -31 -20 -55 -34 -23 -13 -62 -33 -87 -44 -25 -12 -73
-34 -107 -50 -34 -16 -86 -52 -117 -81 -30 -29 -56 -60 -57 -68 -2 -8 0 -28 4
-44 5 -15 21 -39 37 -52 16 -14 32 -34 35 -45 4 -11 41 -42 83 -70 42 -27 84
-49 93 -49 10 0 20 -4 23 -9 3 -4 18 -11 34 -14 15 -3 38 -14 49 -24 l22 -18
-61 -110 c-33 -60 -67 -123 -76 -140 -9 -16 -37 -62 -64 -101 -26 -39 -48 -74
-48 -77 0 -3 -15 -32 -33 -64 -19 -33 -37 -72 -41 -87 -4 -15 -18 -51 -31 -79
-14 -28 -25 -56 -25 -62 0 -5 -9 -28 -21 -49 -12 -23 -18 -48 -15 -61 4 -14 0
-28 -9 -35 -8 -7 -15 -24 -15 -39 0 -14 4 -30 8 -36 4 -5 17 -16 29 -23 13 -6
35 -12 51 -12 15 0 33 5 40 12 7 7 12 22 12 33 0 12 9 56 20 98 11 43 36 111
55 152 19 41 35 77 35 80 0 4 9 20 21 36 11 16 22 37 24 47 1 9 25 51 53 93
27 41 82 136 122 210 40 74 79 144 88 157 8 12 23 22 33 22 10 0 20 -4 23 -9
3 -5 30 -15 58 -21 29 -7 58 -16 63 -20 6 -5 35 -10 65 -13 30 -3 87 -12 127
-20 40 -7 78 -18 85 -24 7 -5 31 -15 53 -21 22 -7 63 -15 90 -18 28 -3 64 -7
80 -9 17 -1 62 -6 100 -10 39 -4 73 -9 77 -11 3 -2 44 -11 90 -20 46 -8 128
-17 183 -20 55 -3 138 -7 185 -10 47 -2 105 -6 130 -9 25 -2 83 -8 130 -14 47
-6 126 -14 175 -18 50 -4 285 -8 523 -8 l434 0 22 26 23 26 24 -41 c13 -22 30
-50 36 -61 7 -11 30 -56 52 -100 22 -44 47 -91 55 -105 8 -14 27 -52 42 -85
16 -33 38 -73 51 -90 12 -16 33 -43 47 -60 14 -16 51 -59 83 -95 32 -36 69
-81 83 -100 13 -19 47 -59 76 -88 29 -30 63 -80 79 -115 15 -34 32 -72 38 -84
5 -12 23 -38 39 -57 21 -26 37 -36 58 -36 23 0 30 7 43 37 8 21 24 47 36 57
12 11 49 65 83 120 34 56 70 110 80 122 10 11 18 24 18 28 0 5 14 25 30 46 17
21 30 42 30 47 0 5 11 20 25 33 13 13 44 54 67 92 24 38 60 97 80 131 21 34
38 68 38 75 0 8 9 26 21 40 11 15 35 50 52 78 18 28 43 70 57 92 25 41 26 41
85 42 33 0 87 7 120 14 33 8 97 17 143 21 45 3 95 10 110 16 15 6 52 15 82 20
30 5 87 12 125 15 39 4 80 10 93 15 13 5 40 9 60 9 21 0 53 5 72 11 19 5 49
12 65 14 17 2 46 7 65 10 19 4 73 13 119 21 47 9 98 22 114 31 16 8 41 17 56
19 14 3 40 9 56 15 17 6 39 15 50 19 11 5 38 11 60 15 22 4 63 11 90 16 28 6
68 13 90 16 22 3 47 11 55 18 8 7 42 16 75 19 33 3 78 10 100 15 22 5 78 17
125 26 47 9 99 22 115 30 17 7 46 18 65 25 19 7 44 16 55 20 11 5 54 24 95 43
41 19 95 40 120 47 25 6 52 18 60 25 8 7 35 20 60 29 25 9 52 16 60 16 9 0 56
20 104 45 49 25 97 45 106 45 10 0 41 13 71 28 30 16 75 37 101 47 26 10 53
24 59 31 6 8 17 14 23 14 6 0 39 -55 74 -123 34 -67 62 -130 62 -140 0 -9 5
-17 11 -17 5 0 35 -53 65 -117 30 -65 61 -131 69 -146 8 -16 15 -33 15 -38 0
-5 13 -37 29 -71 16 -35 48 -108 70 -163 23 -55 48 -116 56 -135 7 -19 16 -48
20 -65 3 -16 19 -43 36 -60 16 -16 80 -84 141 -149 62 -66 152 -159 199 -208
51 -53 93 -88 105 -88 11 0 30 10 42 23 12 13 22 27 22 31 0 4 10 21 22 39 13
18 26 34 30 37 4 3 15 23 24 45 9 22 29 55 45 74 16 20 29 42 29 51 0 8 7 24
15 34 8 11 15 28 15 37 0 10 9 24 20 32 11 8 23 29 26 48 4 19 17 45 29 59 13
14 33 45 46 69 13 24 28 52 34 62 5 11 13 19 17 19 5 0 8 6 8 13 0 6 11 25 25
41 14 16 25 33 25 37 0 4 6 14 13 21 6 7 28 35 47 61 19 26 51 69 71 95 20 26
45 62 55 81 11 19 31 57 47 85 15 28 27 54 27 59 0 5 20 42 45 83 25 40 45 76
45 80 0 3 14 24 31 45 25 32 35 38 53 33 11 -4 32 -9 46 -11 14 -2 50 -7 80
-13 30 -5 102 -16 160 -25 58 -9 132 -24 164 -35 33 -11 98 -23 144 -25 47 -3
90 -9 96 -12 6 -4 73 -8 151 -10 77 -2 181 -4 230 -6 62 -2 101 -9 125 -21 25
-13 69 -20 155 -24 66 -3 165 -6 220 -6 55 1 111 1 125 2 14 1 45 1 70 0 25 0
119 2 210 5 91 4 179 6 195 7 17 0 59 -5 95 -11 36 -5 134 -12 219 -14 123 -4
160 -2 184 10 17 8 34 15 39 15 4 0 8 -4 8 -9 0 -6 28 -52 63 -103 34 -51 68
-104 75 -118 7 -14 51 -77 98 -140 47 -63 102 -137 122 -164 20 -27 63 -81 96
-120 32 -39 75 -96 96 -126 20 -30 50 -82 67 -115 16 -33 51 -100 77 -150 25
-49 59 -102 73 -117 15 -16 37 -28 50 -28 19 0 28 10 43 45 11 25 23 45 28 45
5 0 35 38 66 84 31 47 56 88 56 91 0 3 10 20 23 38 12 18 24 34 27 37 3 3 18
34 33 70 16 36 37 83 47 105 10 22 30 67 45 100 15 33 42 91 62 129 19 39 44
95 55 125 11 31 27 63 34 72 8 8 14 21 14 28 0 6 4 17 10 24 5 7 26 37 46 67
20 30 40 66 43 79 l7 24 139 -2 c110 -1 160 3 235 19 54 12 151 23 225 26 72
3 182 12 245 20 63 8 162 19 220 25 58 5 159 13 225 18 66 5 140 17 164 25 24
9 102 25 175 37 72 11 196 38 276 60 80 22 161 51 180 63 19 12 44 26 55 31
11 4 22 9 25 10 3 0 22 7 42 14 20 7 59 23 85 37 26 13 54 24 62 24 7 0 28 9
45 19 17 11 54 26 81 34 28 8 66 22 85 31 19 8 49 24 65 36 17 11 40 20 52 20
16 0 32 -15 58 -56 20 -30 56 -92 81 -137 25 -45 67 -117 92 -159 26 -42 71
-111 100 -153 28 -41 52 -78 52 -81 0 -4 13 -23 29 -43 16 -20 47 -70 68 -111
21 -41 46 -86 55 -100 8 -14 30 -52 48 -85 19 -33 52 -94 75 -135 23 -41 56
-96 73 -121 18 -26 32 -49 32 -52 0 -3 20 -40 45 -81 25 -42 45 -80 45 -84 0
-5 13 -20 28 -35 15 -15 37 -27 48 -27 12 0 28 8 37 18 9 10 20 39 23 64 5 38
2 51 -21 89 -16 24 -31 45 -36 47 -4 2 -20 27 -35 55 -14 29 -47 84 -73 124
-25 39 -54 84 -63 100 -10 15 -22 35 -27 43 -5 8 -33 62 -61 120 -28 58 -70
137 -93 175 -23 39 -61 98 -84 132 -24 34 -43 65 -43 68 0 3 -11 18 -25 33
-14 15 -44 58 -68 95 -23 38 -51 83 -62 101 -11 18 -39 66 -61 107 -23 41 -51
86 -63 101 -12 14 -21 33 -21 40 0 8 17 28 38 46 20 17 64 52 97 79 33 26 73
60 89 74 26 24 29 34 30 89 l1 63 -100 69 c-55 38 -125 81 -155 95 -33 15 -93
31 -150 39 -52 7 -114 13 -137 14 -23 0 -45 -4 -48 -10 -3 -5 -10 -10 -15 -10
-5 0 -14 9 -20 19 -5 11 -11 28 -13 38 -2 10 -14 36 -28 58 -14 22 -47 75 -73
117 -26 42 -54 82 -62 88 -8 7 -14 21 -14 33 0 11 -16 42 -36 69 -19 28 -38
58 -42 68 -4 9 -29 51 -55 91 -26 41 -71 109 -100 152 -29 43 -60 92 -69 110
-10 18 -29 44 -43 59 -14 14 -25 33 -25 40 0 8 -13 32 -30 54 -16 21 -30 43
-30 47 0 4 -19 36 -42 70 -24 34 -49 68 -55 75 -7 7 -13 18 -13 24 0 6 -11 25
-24 42 -13 17 -26 41 -30 53 -4 12 -22 39 -41 60 -19 21 -35 45 -35 53 0 8 -6
26 -14 40 -7 14 -25 46 -39 71 -13 25 -23 56 -22 70 1 13 3 33 4 45 0 11 9 29
19 40 9 10 28 46 41 79 13 33 34 74 45 90 12 17 20 32 19 35 -1 3 5 21 14 40
8 19 28 63 44 97 16 34 29 66 29 72 0 5 22 52 48 103 27 51 54 109 61 128 7
19 24 60 38 90 14 30 34 72 44 92 11 20 19 44 19 52 0 9 5 16 10 16 6 0 10 9
10 20 0 11 5 20 10 20 6 0 10 5 10 10 0 6 31 74 70 153 38 78 76 153 84 167 8
14 40 77 71 140 31 63 75 151 99 195 24 44 77 143 117 220 41 77 85 161 98
187 18 39 29 49 59 58 20 5 42 10 47 10 6 0 27 9 48 20 20 11 45 20 56 20 10
0 56 13 101 29 45 17 89 36 99 44 9 8 27 18 41 22 14 4 41 14 60 22 19 8 71
33 115 55 44 22 95 54 114 71 18 18 44 49 57 69 17 27 24 52 24 88 0 28 -7 65
-16 82 -9 17 -37 52 -63 79 -26 27 -50 49 -53 49 -3 0 -39 20 -79 44 -41 24
-90 47 -110 50 -21 4 -43 13 -49 21 -10 12 -10 19 3 33 8 9 19 31 22 47 4 17
20 44 35 60 15 17 48 62 73 101 24 38 47 79 51 90 3 11 14 29 24 40 9 11 23
31 31 45 8 13 19 33 25 44 6 11 30 45 54 77 23 31 42 61 42 67 0 6 9 27 21 48
12 21 29 47 39 58 10 11 21 31 25 45 4 14 36 84 71 156 35 73 67 147 71 165 3
19 14 45 23 59 9 14 24 45 34 68 9 24 32 67 50 95 19 29 46 65 60 81 22 25 26
38 26 95 0 58 -3 68 -22 81 -13 8 -30 18 -38 21z m-13140 -731 c5 0 24 -19 43
-42 19 -24 42 -57 50 -74 9 -18 48 -78 87 -134 38 -56 70 -104 70 -108 0 -4
11 -23 23 -42 13 -19 51 -87 85 -151 33 -64 78 -145 100 -180 21 -35 62 -109
89 -164 28 -55 69 -134 91 -175 23 -41 52 -97 66 -123 14 -26 39 -68 56 -92
16 -24 30 -48 30 -54 0 -6 5 -11 10 -11 6 0 10 -5 10 -12 0 -6 6 -19 14 -27 7
-9 34 -54 58 -101 25 -47 61 -115 81 -152 35 -65 35 -67 18 -87 -10 -12 -27
-21 -38 -21 -12 0 -37 -7 -56 -15 -20 -8 -55 -17 -77 -19 -22 -2 -49 -11 -59
-20 -10 -9 -60 -25 -111 -37 -51 -11 -97 -22 -102 -25 -4 -3 -29 -9 -56 -14
-26 -4 -83 -15 -127 -23 -44 -8 -107 -15 -140 -16 -33 -1 -82 -6 -110 -11 -27
-5 -72 -11 -100 -14 -27 -3 -77 -11 -110 -16 -33 -6 -85 -15 -115 -20 -30 -5
-108 -16 -172 -24 -65 -8 -139 -13 -165 -11 -27 3 -102 9 -168 15 -66 6 -163
18 -215 26 -52 8 -108 14 -125 13 -16 -2 -65 -2 -107 -1 -67 2 -78 4 -77 20 0
9 16 46 34 82 19 36 43 83 53 106 11 22 33 55 50 73 16 18 47 62 68 97 22 36
44 72 49 82 6 9 19 31 30 47 11 17 23 35 27 40 5 6 26 33 48 60 23 28 43 60
46 73 4 12 10 22 14 22 5 0 12 9 15 21 4 11 19 35 35 52 15 18 37 50 49 72 11
22 47 78 81 125 33 47 78 115 99 151 22 36 47 71 55 79 9 7 16 18 16 24 0 7
13 30 29 52 16 21 42 65 59 97 17 32 49 85 71 117 22 32 46 73 54 92 8 18 36
62 63 98 27 36 58 79 69 95 11 17 25 40 31 51 6 12 30 47 53 78 23 31 46 56
51 56z m4503 -170 c4 0 21 -15 37 -32 17 -18 59 -76 94 -128 35 -52 76 -117
91 -145 16 -27 35 -63 43 -80 9 -16 21 -34 29 -38 7 -4 13 -12 13 -16 0 -5 7
-24 15 -42 9 -19 27 -52 41 -74 13 -22 47 -87 75 -145 27 -58 56 -118 64 -135
8 -16 23 -55 35 -85 12 -30 28 -68 35 -85 8 -16 17 -42 20 -56 6 -24 0 -30
-59 -68 -39 -25 -84 -64 -111 -99 -34 -43 -45 -66 -45 -92 0 -21 13 -58 34
-94 18 -32 68 -94 112 -138 43 -44 95 -88 114 -97 19 -9 49 -25 65 -35 17 -11
46 -30 66 -43 19 -13 55 -29 80 -36 39 -11 47 -19 72 -67 15 -30 39 -73 52
-95 14 -22 37 -65 52 -95 14 -30 32 -59 39 -65 6 -5 24 -39 40 -75 16 -36 42
-85 60 -110 17 -25 50 -80 72 -122 23 -43 60 -112 83 -155 23 -43 50 -87 60
-99 10 -11 19 -23 19 -27 0 -4 25 -58 55 -121 30 -62 55 -117 55 -121 0 -4 9
-18 20 -32 11 -14 20 -33 20 -41 0 -9 14 -45 31 -81 17 -36 45 -93 62 -126 18
-33 44 -85 60 -115 15 -30 32 -62 37 -70 5 -8 25 -50 44 -93 20 -44 36 -81 36
-84 0 -3 18 -40 39 -83 l40 -78 -46 -89 c-25 -48 -51 -95 -58 -103 -6 -8 -23
-37 -36 -65 -14 -27 -37 -69 -51 -91 -15 -23 -52 -95 -83 -160 -32 -66 -102
-209 -156 -319 -54 -110 -122 -238 -150 -285 -29 -47 -62 -103 -74 -126 -12
-22 -48 -85 -81 -138 -32 -53 -78 -129 -101 -169 -24 -40 -54 -93 -67 -118
-22 -40 -30 -48 -63 -52 -21 -3 -54 -9 -73 -13 -19 -3 -40 -10 -45 -15 -6 -4
-54 -12 -108 -18 -62 -6 -103 -15 -112 -25 -9 -8 -32 -18 -53 -21 -20 -3 -55
-11 -77 -16 -22 -6 -60 -23 -86 -39 -25 -15 -55 -31 -67 -34 -13 -4 -30 -20
-39 -34 -9 -15 -28 -39 -41 -54 -19 -21 -25 -38 -25 -77 0 -32 7 -61 18 -78
10 -15 32 -40 48 -56 16 -15 55 -41 86 -58 31 -17 61 -35 67 -40 7 -5 26 -12
44 -14 18 -2 39 -13 47 -24 8 -12 22 -21 31 -21 9 0 25 -7 35 -14 9 -7 17 -20
17 -27 0 -8 -11 -31 -25 -51 -14 -20 -25 -41 -25 -47 0 -5 -3 -11 -7 -13 -5
-2 -17 -21 -28 -43 -11 -22 -48 -87 -81 -145 -34 -58 -107 -162 -161 -233 -54
-70 -128 -178 -163 -240 -35 -61 -84 -147 -109 -189 -25 -43 -54 -92 -63 -109
-9 -17 -33 -58 -53 -90 -20 -33 -40 -59 -45 -59 -5 0 -60 52 -122 116 -62 64
-121 125 -130 135 -10 11 -17 20 -16 22 0 1 -6 16 -15 32 -8 17 -29 43 -46 59
-17 17 -31 38 -31 47 0 10 -18 60 -41 111 -22 51 -57 129 -77 173 -19 44 -59
130 -89 192 -29 61 -53 117 -53 124 0 7 -9 22 -20 34 -11 11 -21 30 -23 41 -1
12 -10 33 -20 47 -9 15 -17 30 -17 34 0 4 -20 42 -44 85 -24 42 -51 97 -61
122 -15 38 -15 47 -4 59 8 8 38 41 68 75 29 34 64 81 77 105 13 25 24 60 24
78 1 19 -3 51 -8 71 -6 21 -20 49 -33 63 -13 13 -29 25 -34 25 -6 0 -26 8 -45
18 -19 10 -42 22 -50 27 -8 5 -31 16 -50 23 -19 8 -64 20 -100 28 -36 7 -87
13 -115 14 l-50 0 -32 68 c-17 37 -48 102 -67 145 -20 42 -36 82 -36 87 0 5
-15 33 -33 62 -19 29 -44 76 -57 103 -13 28 -36 68 -51 90 -15 22 -38 60 -53
85 -14 25 -32 54 -38 65 -7 11 -24 38 -38 60 -13 22 -42 63 -62 92 -21 29 -38
61 -38 72 0 11 -4 23 -10 26 -5 3 -26 30 -46 60 -20 30 -40 55 -45 55 -5 0
-12 12 -15 28 -4 15 -31 74 -61 131 -30 58 -69 126 -88 153 -19 26 -35 56 -36
66 0 9 -15 42 -32 74 -18 31 -44 77 -59 103 -16 26 -28 60 -28 76 0 17 19 59
45 101 25 40 45 78 45 84 0 6 8 18 18 27 9 9 35 51 57 94 22 43 42 80 45 83 3
3 16 18 28 34 12 16 22 39 22 52 0 13 20 45 48 76 27 29 61 77 77 106 15 28
32 52 37 52 4 0 8 6 8 13 0 8 11 24 25 37 14 13 25 28 25 33 0 6 15 33 34 61
19 28 46 64 60 80 14 16 26 33 26 38 0 4 21 36 46 70 25 35 49 65 54 68 4 3 9
10 11 15 2 6 27 47 54 93 28 46 59 100 70 120 11 20 44 78 74 127 30 50 85
135 121 190 37 55 74 112 83 126 9 15 26 29 39 32 13 3 42 11 66 17 24 6 67
13 95 16 28 2 56 9 61 14 6 4 34 14 61 21 28 7 64 21 80 31 17 10 37 18 45 18
9 0 45 12 80 28 36 15 93 48 126 72 34 25 71 52 84 60 12 8 31 33 42 55 12 22
21 58 21 80 0 22 -6 56 -14 75 -8 19 -24 49 -37 67 -12 17 -52 54 -90 81 -37
28 -92 61 -122 74 -30 14 -61 32 -69 41 -12 15 -8 25 27 79 22 35 55 92 73
128 18 36 38 72 45 80 7 8 25 38 40 65 15 28 51 97 81 155 29 58 64 122 76
143 12 21 34 57 48 80 15 23 59 91 98 151 39 60 71 113 71 118 0 4 15 31 33
58 17 27 35 50 40 50z m3978 -73 c4 -1 55 -63 115 -137 60 -74 129 -162 153
-195 25 -33 53 -69 62 -80 10 -11 42 -49 71 -84 29 -36 76 -94 103 -130 28
-36 74 -99 103 -138 28 -40 52 -75 52 -78 0 -2 21 -37 47 -77 26 -40 55 -82
65 -92 10 -11 18 -23 18 -27 0 -4 6 -14 13 -21 6 -7 22 -28 35 -46 13 -18 38
-54 55 -80 17 -26 37 -51 44 -55 7 -4 13 -14 13 -22 0 -7 3 -15 8 -17 4 -1 17
-17 30 -35 12 -18 22 -35 22 -38 0 -4 12 -22 27 -41 17 -23 23 -38 16 -45 -6
-6 -50 -17 -99 -25 -49 -9 -111 -20 -139 -25 -27 -5 -72 -12 -100 -15 -27 -3
-115 -9 -195 -14 -80 -4 -230 -15 -335 -24 -104 -8 -253 -19 -330 -24 -77 -4
-147 -5 -156 -1 -9 5 -20 5 -25 0 -5 -4 -38 -13 -74 -19 -36 -7 -159 -14 -274
-17 l-208 -4 5 29 c4 16 14 44 24 63 10 19 33 63 52 98 18 35 39 71 46 79 6 8
23 38 37 65 14 28 37 75 52 105 15 30 43 84 62 120 20 36 57 99 83 140 27 41
76 125 109 185 34 61 69 128 78 150 10 22 17 45 16 51 -1 6 5 17 13 24 8 7 15
18 15 25 0 7 6 23 13 36 6 13 33 58 60 100 26 42 47 83 47 93 0 9 18 44 40 76
22 32 40 62 40 65 0 4 12 23 28 43 15 20 34 42 42 49 8 7 18 11 21 10z m1164
-395 c33 -3 76 -6 95 -6 19 0 100 -4 180 -9 80 -6 235 -11 345 -11 167 -1 216
-5 295 -23 56 -13 146 -24 219 -27 69 -3 174 -13 235 -21 61 -9 140 -22 176
-30 36 -8 117 -21 180 -29 63 -9 162 -20 220 -26 58 -5 134 -15 170 -21 36 -6
85 -17 110 -24 25 -7 107 -28 183 -46 128 -30 138 -34 133 -53 -3 -12 -26 -59
-51 -105 -25 -47 -45 -87 -45 -91 0 -3 -14 -32 -31 -65 -18 -33 -54 -102 -80
-154 -27 -52 -49 -101 -49 -109 0 -9 -6 -23 -14 -31 -7 -9 -28 -50 -47 -91
-18 -41 -40 -86 -50 -100 -9 -14 -27 -43 -40 -65 -12 -22 -53 -99 -90 -172
-37 -72 -79 -150 -93 -172 -15 -22 -26 -44 -26 -49 0 -5 -65 -139 -145 -298
-80 -159 -153 -309 -162 -334 -9 -25 -37 -90 -63 -145 -26 -55 -51 -111 -55
-125 -4 -14 -14 -33 -23 -42 -8 -10 -12 -18 -8 -18 3 0 -7 -27 -24 -60 -16
-33 -30 -65 -30 -71 0 -7 -6 -20 -13 -28 -7 -9 -19 -34 -26 -56 -8 -21 -20
-45 -27 -53 -8 -7 -17 -25 -21 -40 -3 -15 -9 -29 -12 -32 -3 -3 -17 -30 -30
-60 -13 -30 -26 -67 -28 -82 -3 -16 -11 -28 -18 -28 -8 0 -28 28 -45 63 -18
34 -38 69 -46 78 -8 8 -14 21 -14 27 0 6 -9 28 -21 49 -12 21 -27 45 -34 53
-7 8 -34 58 -61 110 -27 52 -55 99 -61 103 -7 4 -13 17 -13 28 0 10 -6 29 -12
42 -7 12 -25 38 -40 58 -16 20 -28 43 -28 50 0 7 -21 44 -47 83 -27 38 -52 78
-58 88 -5 10 -33 55 -62 101 -28 46 -59 89 -67 96 -9 8 -16 19 -16 25 0 6 -23
37 -50 69 -28 32 -50 63 -50 69 0 6 -11 19 -25 30 -14 11 -25 29 -25 41 0 12
-8 27 -18 34 -10 6 -35 44 -55 84 -21 41 -49 94 -62 119 -14 24 -32 48 -40 53
-8 4 -15 19 -15 32 0 14 -5 25 -10 25 -6 0 -19 19 -29 43 -10 23 -26 48 -35
56 -9 7 -16 19 -16 26 0 7 -7 18 -16 26 -8 7 -24 30 -35 51 l-20 38 23 9 c13
4 41 14 63 21 22 7 60 21 85 31 25 10 88 42 140 71 86 49 96 58 107 93 6 22
12 59 12 83 1 24 -6 56 -14 71 -8 16 -31 39 -52 52 -21 13 -58 36 -83 52 -25
15 -67 38 -95 52 -27 13 -70 29 -95 36 -25 6 -90 18 -145 26 -55 8 -137 17
-182 20 -68 4 -87 2 -109 -12 -24 -16 -27 -16 -45 1 -10 9 -19 22 -19 29 0 7
-9 20 -20 30 -11 10 -20 21 -20 26 0 4 -36 62 -81 128 -44 67 -84 121 -89 121
-5 0 -15 11 -22 24 -7 14 -34 52 -60 85 -27 34 -48 63 -48 65 0 2 21 7 46 11
26 3 99 9 163 11 64 3 172 9 241 13 69 5 152 6 185 3z m-1642 -56 c38 0 47 -3
47 -18 0 -9 -17 -52 -38 -95 -21 -43 -50 -97 -65 -120 -15 -24 -27 -46 -27
-50 0 -5 -14 -28 -30 -53 -16 -25 -33 -49 -38 -55 -4 -5 -37 -64 -72 -131
l-63 -121 -96 -7 c-65 -4 -109 -12 -134 -25 -21 -11 -44 -25 -52 -31 -8 -6
-27 -10 -42 -9 -15 1 -48 -1 -73 -5 -25 -5 -49 -12 -55 -16 -5 -4 -32 -15 -60
-25 -27 -9 -95 -39 -151 -66 -55 -26 -114 -61 -131 -76 -17 -15 -38 -43 -47
-60 -9 -18 -19 -52 -22 -76 -6 -40 -4 -45 29 -74 20 -17 60 -43 89 -58 29 -15
60 -29 68 -31 8 -2 49 -15 90 -29 41 -14 92 -25 115 -25 22 -1 59 -5 83 -9 23
-5 46 -11 49 -15 3 -3 -12 -43 -35 -88 -22 -46 -53 -110 -68 -143 -14 -33 -30
-67 -35 -75 -5 -8 -36 -69 -70 -135 -34 -66 -71 -138 -84 -160 -13 -22 -26
-50 -29 -62 -4 -12 -40 -82 -80 -155 -40 -73 -103 -195 -139 -270 -37 -76 -67
-141 -67 -144 0 -4 -6 -15 -14 -23 -7 -9 -59 -106 -116 -216 -56 -110 -114
-219 -128 -243 -15 -26 -31 -42 -40 -40 -8 2 -18 10 -22 18 -4 8 -20 42 -35
75 -15 33 -39 76 -54 95 -14 19 -31 56 -38 81 -6 25 -25 68 -42 95 -16 27 -43
76 -60 110 -17 33 -31 67 -31 76 0 8 -16 37 -35 64 -19 27 -35 61 -35 76 0 15
-20 69 -45 120 -26 51 -65 128 -88 170 -23 43 -49 86 -58 96 -9 10 -23 32 -31
48 -9 16 -24 49 -34 74 -10 25 -24 51 -31 58 -7 7 -13 18 -13 25 0 6 -11 22
-24 36 -12 15 -30 45 -39 67 -9 23 -27 58 -41 79 -14 21 -26 42 -26 48 0 6
-23 43 -50 83 -28 40 -53 86 -56 101 -3 16 -30 60 -61 98 -35 43 -53 75 -50
86 3 10 -1 26 -9 36 -7 10 -14 30 -14 44 0 14 -9 34 -20 44 -11 10 -20 27 -20
38 0 11 -12 44 -26 74 -15 29 -30 56 -35 59 -5 3 -9 21 -9 40 0 19 -4 34 -10
34 -5 0 -10 10 -10 23 0 12 -9 40 -20 62 -11 22 -20 45 -20 52 0 7 6 13 13 13
7 0 29 11 48 24 20 14 49 28 65 31 16 4 67 25 114 48 47 22 102 51 122 64 21
13 51 23 67 23 15 0 53 11 83 24 30 13 72 36 93 50 22 15 52 26 72 26 18 0 59
13 89 30 39 21 81 33 138 40 44 5 117 17 161 26 44 9 91 18 105 21 14 3 39 11
55 18 17 7 63 17 103 21 40 3 75 11 78 15 3 5 25 9 50 9 25 0 60 7 80 15 19 8
41 12 50 8 8 -3 22 1 32 9 9 9 44 18 77 22 33 4 116 9 185 12 74 2 158 12 205
24 45 11 105 22 135 25 30 3 96 8 145 10 50 2 99 5 110 7 11 2 30 9 43 16 12
7 30 11 40 8 9 -3 40 -2 67 2 28 4 71 8 98 8z m-9023 -132 c3 -1 50 -3 105 -3
55 -1 129 1 164 4 63 6 64 5 48 -13 -9 -10 -17 -23 -17 -29 0 -6 -4 -13 -9
-15 -5 -1 -39 -48 -76 -103 -37 -55 -70 -102 -74 -105 -3 -3 -15 -21 -25 -40
-11 -19 -28 -46 -38 -60 -10 -14 -34 -49 -53 -77 -19 -29 -35 -56 -35 -60 0
-5 -15 -25 -34 -46 -31 -35 -39 -38 -112 -47 -44 -5 -90 -12 -104 -16 -14 -3
-32 -8 -40 -11 -8 -3 -27 -5 -42 -4 -15 1 -88 -14 -162 -33 -74 -20 -165 -50
-203 -68 -37 -17 -74 -33 -82 -34 -7 -1 -18 -7 -24 -13 -6 -6 -21 -11 -33 -11
-13 0 -51 -25 -88 -57 -36 -31 -68 -65 -72 -75 -3 -10 -6 -32 -6 -49 -1 -24 9
-41 43 -75 24 -24 49 -43 55 -44 6 0 27 -11 47 -24 19 -13 49 -27 65 -31 17
-3 36 -13 43 -21 6 -8 22 -14 35 -14 12 0 25 -4 29 -9 3 -5 31 -13 63 -16 31
-4 81 -14 110 -22 28 -8 52 -19 52 -24 0 -5 -8 -24 -18 -42 -10 -17 -35 -59
-56 -92 -21 -33 -46 -71 -55 -84 -9 -13 -28 -45 -43 -70 -14 -25 -39 -71 -56
-101 -16 -30 -52 -90 -80 -134 -29 -43 -57 -96 -64 -117 -6 -22 -15 -39 -19
-39 -4 0 -11 -10 -15 -22 -3 -13 -44 -99 -91 -193 -46 -93 -101 -199 -123
-235 -21 -36 -48 -83 -59 -105 -11 -22 -47 -91 -80 -153 -33 -63 -66 -121 -73
-130 -8 -10 -27 -42 -42 -72 -16 -30 -41 -71 -55 -90 -14 -19 -32 -45 -38 -59
-7 -13 -13 -30 -13 -37 0 -8 -3 -14 -7 -14 -5 0 -17 15 -28 33 -11 17 -27 46
-37 62 -9 17 -17 42 -18 57 0 15 -4 29 -9 32 -4 3 -11 18 -14 33 -3 16 -19 48
-35 73 -16 25 -32 61 -36 81 -4 20 -15 44 -26 54 -11 10 -20 23 -20 29 0 6
-14 40 -31 76 -17 36 -32 72 -34 81 -2 8 -14 32 -28 52 -13 20 -32 59 -41 87
-10 29 -37 91 -60 139 -24 47 -53 107 -65 133 -11 26 -21 52 -21 57 0 4 -8 19
-19 32 -10 13 -22 40 -26 59 -4 19 -22 62 -40 95 -18 33 -40 74 -48 90 -9 17
-30 60 -46 97 -17 36 -35 69 -40 72 -5 4 -19 32 -31 64 -12 31 -27 64 -35 72
-7 8 -16 26 -20 39 -4 14 -23 48 -41 77 -19 29 -38 55 -43 59 -5 3 -21 30 -35
61 -14 30 -36 69 -48 86 -13 18 -42 66 -65 107 -23 42 -51 94 -61 116 -10 22
-26 46 -35 54 -10 7 -17 22 -17 32 0 10 15 29 33 43 19 15 39 26 45 26 7 0 29
16 49 35 21 20 48 35 61 35 13 0 37 14 55 32 24 23 40 31 62 30 22 -2 42 7 70
31 22 18 58 40 80 49 22 9 56 20 75 24 19 4 51 17 71 30 21 13 40 28 44 34 3
5 15 10 26 10 11 0 53 13 92 28 40 16 95 36 122 46 28 9 60 16 72 16 12 0 24
4 27 9 3 5 32 12 63 16 32 4 63 10 68 14 6 4 73 22 150 40 77 18 176 44 220
57 44 13 98 24 120 24 23 0 45 4 50 8 6 5 60 14 120 21 61 6 137 16 170 22 33
5 157 16 275 25 118 8 231 15 250 15 19 -1 58 5 85 13 28 7 52 12 55 10z
m1774 -58 c17 -4 92 -11 168 -16 76 -6 158 -14 181 -19 23 -5 85 -12 137 -16
52 -3 183 -8 290 -11 107 -2 254 -11 325 -18 72 -8 177 -21 235 -30 58 -9 137
-21 175 -27 39 -6 120 -20 180 -30 61 -10 151 -26 200 -35 50 -9 99 -20 110
-24 11 -4 43 -13 70 -20 28 -7 59 -14 70 -14 11 -1 36 -10 55 -19 19 -9 98
-28 175 -42 77 -15 150 -33 162 -41 12 -8 33 -14 45 -14 13 0 52 -9 86 -20 35
-11 76 -20 91 -20 15 0 31 -4 37 -8 5 -5 28 -14 50 -20 23 -7 47 -19 54 -27
10 -12 6 -25 -21 -72 -18 -32 -53 -94 -77 -138 -24 -44 -60 -105 -80 -135 -19
-30 -64 -98 -99 -151 -34 -52 -63 -101 -63 -107 0 -7 -5 -18 -10 -25 -6 -7
-29 -40 -53 -75 -23 -35 -54 -85 -69 -110 -15 -26 -39 -67 -53 -92 -14 -25
-37 -63 -51 -85 -13 -22 -34 -60 -46 -85 -11 -25 -33 -61 -48 -80 -15 -19 -41
-56 -56 -81 -16 -25 -43 -68 -61 -95 -18 -27 -46 -67 -62 -90 -17 -23 -31 -47
-31 -55 0 -8 -16 -31 -35 -52 -19 -21 -42 -53 -51 -70 -9 -18 -32 -51 -50 -74
-19 -23 -34 -46 -34 -51 0 -5 -11 -22 -25 -38 -14 -16 -25 -35 -25 -41 0 -7
-3 -13 -7 -13 -5 -1 -23 -22 -41 -48 -18 -26 -53 -78 -77 -117 -25 -38 -51
-85 -57 -102 -7 -18 -15 -33 -19 -33 -4 0 -11 -10 -15 -22 -3 -13 -13 -30 -20
-39 -8 -8 -25 -35 -39 -60 -14 -24 -32 -59 -40 -76 -8 -18 -20 -33 -25 -33 -6
0 -10 5 -10 12 0 7 -23 57 -51 113 -28 55 -58 113 -67 130 -9 16 -22 34 -28
40 -6 5 -20 33 -30 60 -9 28 -30 69 -46 93 -15 24 -28 47 -28 53 0 5 -4 9 -9
9 -5 0 -15 17 -22 38 -6 20 -25 62 -40 92 -16 30 -29 58 -29 63 0 4 -15 29
-33 55 -18 26 -45 73 -60 104 -14 32 -41 79 -59 105 -18 26 -39 58 -45 71 -7
13 -17 41 -23 63 -6 22 -24 54 -40 73 -17 18 -30 38 -30 43 0 6 -19 49 -42 95
-24 47 -52 105 -63 129 -11 24 -30 62 -44 84 -13 22 -42 74 -64 115 -22 41
-51 89 -63 106 -13 17 -24 37 -24 45 0 8 -9 29 -20 47 -11 18 -18 37 -15 42 3
4 33 21 68 38 34 16 79 46 99 67 24 24 39 50 43 76 4 21 4 58 0 82 -4 24 -18
54 -34 70 -14 16 -39 34 -56 41 -16 7 -69 30 -117 50 -48 20 -95 36 -105 36
-11 0 -24 5 -31 12 -7 7 -42 13 -77 14 -47 1 -71 6 -85 19 -11 10 -20 24 -20
30 0 7 -15 39 -34 71 -19 33 -46 78 -61 101 -14 24 -30 55 -34 70 -5 16 -22
49 -40 74 -17 26 -31 53 -31 61 0 8 3 18 7 22 5 4 21 5 37 2z m11578 -96 c5 0
36 -7 68 -15 31 -8 81 -26 111 -39 30 -14 73 -43 97 -65 23 -22 42 -48 42 -59
0 -10 -15 -35 -32 -56 -18 -20 -60 -53 -93 -71 -33 -19 -92 -51 -132 -70 -39
-19 -75 -39 -78 -45 -3 -5 -14 -10 -24 -10 -10 0 -31 -7 -47 -15 -16 -8 -57
-23 -92 -34 -57 -17 -63 -18 -71 -3 -5 12 -1 30 15 57 12 22 39 74 60 115 21
41 45 86 55 100 9 14 38 67 63 118 26 50 52 92 58 92z m-2784 -332 c13 -4 40
-8 61 -8 21 0 91 -9 156 -20 68 -12 135 -30 159 -43 22 -13 60 -35 83 -49 23
-15 44 -31 47 -37 3 -5 4 -15 1 -23 -3 -7 -14 -18 -24 -23 -10 -6 -44 -23 -77
-38 -32 -16 -92 -40 -131 -53 -40 -13 -90 -26 -111 -30 -34 -5 -39 -3 -50 20
-7 15 -31 52 -54 82 -24 31 -55 72 -71 92 -15 20 -37 54 -48 76 -11 21 -17 42
-12 46 4 5 17 10 28 12 11 3 30 1 43 -4z m-5722 -99 c12 -12 46 -33 76 -47 29
-15 74 -40 101 -57 37 -24 48 -37 53 -64 5 -22 2 -44 -7 -59 -8 -14 -23 -30
-34 -36 -11 -6 -44 -29 -75 -51 -30 -22 -66 -46 -80 -53 -14 -6 -79 -31 -145
-53 -66 -23 -137 -44 -158 -46 l-39 -5 26 41 c15 23 24 41 20 41 -3 0 4 12 15
26 12 15 21 32 21 39 0 7 6 18 14 24 8 7 24 31 35 54 12 23 35 65 51 92 16 28
42 75 56 105 15 30 32 58 38 62 6 4 20 -2 32 -13z m1325 1 c11 0 23 -10 28
-22 5 -13 21 -54 36 -93 16 -38 34 -86 42 -105 8 -19 18 -42 23 -50 4 -9 11
-30 15 -48 3 -18 4 -32 0 -32 -3 0 -27 16 -52 35 -25 19 -50 35 -56 35 -5 0
-28 17 -51 37 -22 20 -43 41 -45 47 -2 6 -17 24 -33 41 -15 17 -28 41 -28 56
0 19 9 31 39 47 21 12 44 29 51 37 7 8 21 15 31 15z m-4088 -65 c12 -4 51 -15
86 -26 36 -11 74 -27 85 -35 11 -8 28 -14 37 -14 9 0 22 -7 29 -15 11 -13 8
-21 -15 -45 -15 -16 -48 -36 -73 -45 -25 -8 -55 -15 -66 -15 -16 1 -29 18 -55
75 -19 41 -38 75 -43 75 -4 0 -8 12 -8 26 0 22 3 24 23 19z m6565 4 c9 1 11
-6 6 -21 -4 -13 -17 -36 -29 -53 -12 -16 -45 -79 -74 -140 -28 -60 -55 -117
-60 -125 -6 -11 -24 -14 -67 -12 -33 1 -106 9 -164 18 -58 8 -128 24 -157 35
-29 12 -58 28 -64 35 -10 12 -6 20 22 44 19 15 61 41 94 55 33 15 69 32 79 37
10 6 44 19 75 30 31 11 88 31 126 44 39 13 99 31 135 38 36 8 71 15 78 15z
m-8838 -64 c20 0 25 -5 22 -25 -1 -13 -15 -40 -30 -59 -15 -19 -34 -49 -42
-66 -8 -16 -27 -48 -41 -70 -14 -22 -42 -69 -61 -105 l-35 -65 -64 1 c-35 1
-107 13 -159 27 -52 15 -121 37 -154 51 -32 13 -67 33 -78 44 -16 16 -18 24
-9 40 6 11 35 32 63 47 29 14 64 33 78 40 14 8 46 24 73 35 26 11 70 25 99 30
28 6 56 14 62 19 6 5 40 15 76 22 36 6 90 17 120 23 30 7 66 11 80 11z m-2553
-105 c13 0 26 -8 30 -17 3 -10 14 -29 23 -43 10 -14 27 -41 37 -60 11 -19 30
-53 43 -75 12 -22 30 -49 40 -60 10 -11 25 -36 35 -55 10 -19 23 -42 30 -50 6
-8 26 -41 43 -72 l32 -57 -41 15 c-23 7 -48 14 -57 14 -8 0 -42 12 -76 26 -33
14 -84 37 -113 50 -28 13 -55 24 -59 24 -3 0 -39 21 -78 48 -39 26 -81 52 -91
58 -12 6 -21 24 -23 41 -3 25 7 40 56 91 32 34 65 62 73 62 9 0 28 14 44 30
16 17 39 30 52 30z m13379 -170 c2 0 20 -26 40 -57 21 -32 53 -85 72 -118 19
-33 44 -76 55 -95 11 -19 41 -71 66 -115 25 -44 57 -96 71 -115 13 -19 27 -37
30 -40 3 -3 16 -25 27 -50 12 -25 54 -91 95 -147 40 -57 87 -124 103 -150 17
-26 35 -54 40 -62 6 -9 23 -36 39 -61 16 -25 36 -54 46 -65 9 -11 30 -45 46
-75 15 -30 40 -73 55 -95 15 -22 47 -78 73 -125 25 -47 52 -96 60 -110 8 -14
19 -36 25 -50 7 -14 18 -36 25 -48 8 -13 19 -29 25 -35 6 -6 11 -18 11 -26 0
-8 25 -54 55 -104 30 -49 55 -93 55 -97 0 -4 19 -36 42 -70 l41 -62 -26 -52
c-15 -28 -56 -105 -92 -171 -35 -66 -68 -127 -72 -135 -5 -8 -27 -47 -50 -87
-24 -39 -43 -74 -43 -78 0 -3 -25 -44 -55 -90 -30 -45 -55 -86 -55 -90 0 -4
-20 -41 -45 -82 -25 -40 -45 -77 -45 -81 0 -4 -9 -18 -20 -32 -11 -14 -20 -30
-20 -37 0 -7 -13 -31 -28 -55 -16 -24 -36 -56 -45 -73 -8 -16 -18 -37 -21 -45
-3 -8 -19 -37 -36 -65 -16 -27 -39 -69 -50 -92 -12 -22 -29 -48 -38 -57 -15
-13 -37 -14 -166 -6 -81 5 -164 14 -184 19 -20 6 -102 12 -182 15 -79 4 -237
13 -350 21 -113 8 -241 17 -285 20 -44 3 -152 8 -240 10 -88 2 -266 7 -395 10
-148 4 -257 3 -295 -3 -33 -6 -112 -20 -175 -31 -63 -10 -149 -22 -190 -26
-41 -3 -117 -15 -167 -26 -51 -11 -105 -27 -120 -34 -16 -8 -41 -15 -58 -15
-16 0 -35 4 -41 8 -5 4 -16 23 -24 42 -8 19 -27 58 -44 85 -16 28 -42 75 -57
107 -15 31 -33 59 -38 63 -6 3 -11 14 -11 23 0 9 -6 28 -14 42 -7 14 -24 45
-38 70 -14 25 -48 86 -77 135 -29 50 -69 109 -88 133 -22 27 -33 49 -29 59 4
9 -4 32 -17 52 -13 20 -38 59 -56 86 -17 28 -47 83 -67 122 -19 40 -39 73 -44
73 -5 0 -14 17 -21 38 -7 20 -20 51 -29 67 -9 17 -19 40 -22 52 -4 14 1 32 13
47 11 14 31 49 45 78 14 29 29 60 34 68 5 8 18 33 29 55 11 22 27 54 35 71 8
17 22 36 30 44 9 7 16 17 16 22 0 5 9 28 20 51 11 23 24 49 29 57 5 8 18 35
30 60 12 25 44 86 71 135 27 50 50 95 50 102 0 6 30 65 67 130 37 65 77 138
89 163 12 25 36 75 53 113 17 37 31 70 31 73 0 3 8 18 19 32 10 15 21 39 25
55 3 15 11 27 16 27 6 0 10 7 10 15 0 8 5 15 10 15 6 0 10 9 10 19 0 11 11 32
24 48 13 15 35 58 50 95 15 36 38 87 51 113 14 25 25 51 25 56 0 6 11 25 24
42 13 18 35 52 48 77 l23 45 235 0 c169 0 241 4 257 13 12 6 55 12 95 12 40 0
100 5 133 10 33 6 167 12 298 15 130 2 242 7 247 10 6 4 63 11 128 16 64 5
164 12 222 15 58 4 112 10 121 15 9 5 41 11 70 14 30 2 77 7 104 9 28 3 77 12
110 21 32 9 61 18 64 20 2 3 6 5 7 5z m-8554 -51 c10 1 32 -21 52 -53 20 -29
36 -58 36 -63 0 -6 7 -16 15 -23 8 -7 21 -24 28 -39 8 -14 36 -66 64 -116 27
-49 94 -180 148 -290 55 -110 123 -242 152 -294 29 -51 53 -98 53 -104 0 -6 7
-19 16 -29 9 -9 27 -37 40 -60 12 -24 47 -90 76 -148 30 -58 98 -187 150 -287
53 -100 105 -195 117 -212 12 -16 21 -32 21 -36 0 -4 23 -52 50 -107 28 -55
50 -107 50 -116 0 -10 -12 -40 -27 -68 -16 -27 -38 -65 -50 -84 -12 -19 -27
-40 -32 -47 -6 -6 -20 -30 -31 -51 -12 -22 -30 -48 -40 -57 -11 -10 -20 -22
-20 -27 0 -5 -12 -26 -27 -46 -16 -20 -31 -38 -35 -40 -5 -2 -8 -8 -8 -14 0
-6 -16 -30 -35 -53 -19 -23 -40 -55 -47 -71 -7 -16 -32 -54 -56 -84 -25 -30
-47 -62 -50 -70 -3 -8 -20 -33 -37 -55 -17 -22 -37 -51 -43 -65 -7 -14 -43
-66 -80 -115 -37 -50 -80 -111 -94 -136 -15 -25 -34 -52 -43 -59 -10 -8 -21
-23 -26 -35 -5 -11 -15 -29 -21 -40 -7 -11 -28 -39 -45 -64 -18 -24 -33 -52
-33 -62 0 -11 -4 -19 -9 -19 -5 0 -33 -32 -61 -71 l-52 -71 -121 6 c-67 3
-189 8 -272 11 -82 3 -190 10 -240 16 -49 6 -218 13 -375 16 -157 4 -305 6
-330 6 -25 0 -70 -1 -100 -3 -30 -1 -113 -7 -185 -12 -71 -6 -146 -11 -165
-13 -19 -2 -75 -6 -125 -10 -49 -3 -150 -10 -223 -15 -73 -5 -139 -13 -145
-17 -7 -4 -22 -6 -33 -5 -12 2 -29 -5 -38 -14 -11 -10 -30 -16 -49 -15 -18 1
-68 2 -112 1 -44 0 -107 -7 -140 -16 -33 -8 -76 -21 -95 -28 -19 -8 -54 -22
-78 -31 -40 -17 -43 -17 -62 0 -11 10 -20 23 -20 29 0 6 -13 36 -29 66 -16 30
-40 75 -55 100 -14 25 -39 74 -56 108 -16 35 -30 69 -30 75 0 7 -9 23 -20 37
-11 14 -20 32 -20 41 0 9 -3 19 -7 23 -4 3 -13 23 -21 44 -7 20 -18 54 -23 75
-5 21 -20 56 -34 77 -14 22 -25 48 -25 58 0 11 -11 36 -25 56 -14 20 -25 43
-25 51 0 7 -12 42 -26 77 -14 35 -34 81 -44 103 -10 22 -25 56 -33 76 -9 19
-25 43 -37 54 -11 10 -20 30 -20 45 0 15 -11 48 -25 74 -14 26 -25 58 -25 71
0 13 -13 40 -30 58 -28 32 -29 37 -18 68 6 19 19 46 30 61 10 14 18 29 18 32
0 3 12 24 28 48 15 24 32 52 39 63 7 11 36 63 65 115 30 52 59 106 66 120 7
14 24 43 37 65 13 22 24 48 24 58 1 10 8 20 16 23 8 4 15 12 15 19 0 6 13 30
28 51 16 21 35 51 43 66 8 15 39 78 69 140 30 61 60 119 65 129 6 10 27 47 48
84 20 36 37 72 37 80 0 8 29 64 65 126 36 62 68 124 71 138 4 14 32 63 63 109
31 45 61 91 67 102 6 11 18 28 27 38 10 10 17 23 17 29 0 6 7 16 15 23 9 7 30
42 47 78 17 35 42 77 55 92 21 25 29 28 71 24 26 -2 99 -8 163 -13 63 -5 128
-7 143 -6 15 2 46 -3 69 -11 22 -8 79 -17 126 -20 47 -2 124 -8 171 -13 64 -6
120 -3 225 10 77 11 174 25 215 33 41 8 91 17 110 20 19 3 73 10 120 15 47 6
139 18 205 26 66 9 152 20 190 25 39 6 79 12 90 14 11 3 56 13 101 24 44 11
134 36 200 57 65 20 137 43 159 50 22 7 48 14 57 14z m9813 -2059 c3 0 10 -10
15 -22 5 -13 22 -44 37 -70 15 -25 57 -93 92 -150 36 -56 95 -149 133 -205 37
-57 68 -105 68 -109 0 -3 17 -31 38 -62 21 -32 50 -75 65 -97 14 -22 45 -72
69 -112 24 -40 87 -145 141 -235 54 -90 104 -172 110 -182 7 -11 28 -44 47
-74 19 -30 49 -77 67 -106 18 -28 37 -61 42 -73 6 -12 35 -64 66 -115 30 -51
64 -100 75 -110 11 -9 20 -19 20 -23 0 -3 23 -44 51 -90 28 -46 48 -88 44 -94
-3 -6 -11 -11 -16 -11 -5 0 -49 -18 -97 -41 -48 -23 -109 -51 -137 -64 -27
-12 -122 -50 -210 -84 -88 -35 -173 -67 -190 -73 -16 -5 -39 -13 -50 -18 -11
-4 -38 -13 -60 -20 -22 -7 -67 -20 -100 -27 -33 -8 -74 -16 -90 -18 -17 -2
-66 -8 -110 -14 -44 -5 -100 -17 -124 -26 -24 -8 -83 -19 -130 -24 -47 -5
-144 -12 -216 -16 -71 -3 -186 -15 -255 -25 -69 -11 -199 -24 -290 -29 -98 -6
-182 -16 -208 -25 -26 -9 -87 -17 -149 -18 -69 -2 -107 1 -110 8 -2 6 8 23 22
38 14 15 39 53 54 84 16 31 41 72 55 91 14 19 26 43 26 52 0 10 4 20 9 24 5 3
21 31 36 62 14 32 29 60 33 63 5 3 17 19 29 35 17 25 36 34 109 53 49 13 103
30 121 38 17 8 34 14 38 14 4 0 39 15 79 34 39 19 96 42 126 52 30 9 91 41
135 70 44 30 100 73 125 97 25 24 57 61 71 83 15 21 30 49 34 61 4 15 -4 44
-24 86 -17 35 -40 76 -52 91 -11 14 -38 35 -60 46 -21 11 -49 20 -62 20 -14 0
-38 7 -53 15 -16 8 -41 15 -55 15 -14 0 -41 5 -60 11 -19 7 -35 13 -37 14 -2
2 23 51 54 111 31 60 64 118 73 129 10 11 26 38 37 60 10 22 34 63 52 92 17
29 32 59 32 67 0 8 4 17 9 21 5 3 24 33 41 68 17 34 41 78 53 98 12 20 29 47
38 60 8 13 32 52 52 86 20 33 47 83 60 110 12 27 33 62 45 78 12 15 25 40 29
54 3 14 23 52 45 86 21 33 38 66 38 73 0 6 2 12 5 12z m-8676 -70 c5 0 13 -6
19 -13 6 -7 31 -54 56 -104 25 -50 50 -94 56 -98 5 -3 10 -13 10 -21 0 -8 18
-43 41 -77 23 -34 61 -102 86 -152 25 -49 51 -97 58 -105 6 -8 23 -35 36 -60
13 -25 41 -68 61 -97 21 -29 38 -55 38 -59 0 -3 40 -72 89 -153 49 -80 101
-168 115 -196 15 -27 39 -70 53 -95 14 -25 40 -75 59 -111 19 -37 34 -69 34
-72 0 -3 18 -45 40 -92 22 -47 40 -88 40 -91 0 -3 12 -31 27 -62 14 -31 50
-98 80 -149 29 -51 60 -107 69 -125 8 -18 26 -53 40 -78 13 -24 23 -49 20 -56
-2 -6 -24 -22 -48 -35 -24 -13 -61 -32 -83 -41 -22 -9 -69 -28 -105 -43 -36
-16 -112 -51 -170 -78 -58 -28 -121 -57 -140 -64 -19 -7 -50 -16 -69 -19 -18
-3 -47 -13 -65 -23 -17 -10 -44 -21 -61 -25 -16 -4 -61 -22 -100 -40 -38 -18
-124 -46 -190 -61 -66 -16 -129 -29 -140 -30 -11 -2 -42 -8 -70 -14 -27 -6
-77 -16 -110 -22 -33 -5 -71 -16 -85 -24 -14 -7 -63 -21 -110 -30 -47 -9 -104
-21 -128 -26 -23 -5 -51 -13 -61 -19 -11 -5 -30 -10 -44 -10 -13 0 -27 -3 -30
-7 -4 -3 -19 -8 -34 -9 -15 -2 -37 -8 -48 -13 -11 -5 -108 -23 -215 -40 -107
-16 -231 -34 -274 -40 -44 -6 -116 -20 -160 -30 -45 -10 -112 -23 -151 -29
-38 -6 -99 -15 -135 -20 -36 -5 -69 -6 -74 -2 -5 5 0 21 11 37 11 15 56 102
101 191 46 90 84 172 85 181 1 10 12 30 24 45 12 15 38 61 59 104 21 42 51 91
67 108 22 24 41 33 77 38 27 4 61 13 76 21 15 8 32 11 37 8 5 -3 28 0 53 7 24
7 44 17 44 21 0 5 12 9 28 9 15 0 45 5 67 11 22 5 49 14 60 19 11 5 45 16 75
24 30 8 103 28 162 45 79 23 126 43 175 77 38 25 89 59 114 75 30 20 56 48 74
80 15 28 29 73 32 103 5 50 4 55 -29 87 -19 19 -45 39 -59 46 -13 6 -49 23
-78 37 -30 14 -63 26 -72 26 -10 0 -38 9 -64 20 -26 11 -56 20 -68 20 -12 1
-47 9 -77 20 -30 11 -67 19 -82 20 -15 0 -30 5 -33 11 -4 5 0 18 9 28 9 10 16
21 16 26 0 4 11 23 25 41 14 18 25 35 25 38 0 2 14 20 30 38 17 18 30 42 30
53 0 12 18 39 40 60 22 21 40 46 40 55 0 8 16 32 35 52 19 20 35 47 35 60 0
13 19 43 43 70 23 25 54 61 69 80 15 18 33 49 39 68 7 19 17 40 23 47 6 7 19
23 28 35 10 13 29 37 43 53 14 17 25 34 25 39 0 5 20 33 45 62 25 28 45 57 45
63 0 6 4 11 9 11 5 0 20 19 34 43 14 23 37 54 51 69 14 15 26 31 26 36 0 5 8
20 19 33 10 13 28 41 40 62 11 20 29 52 39 70 10 17 24 42 31 55 6 12 15 22
20 22z m4265 -30 c3 0 22 -35 44 -77 21 -43 58 -112 82 -153 24 -41 58 -99 77
-127 18 -29 33 -58 33 -64 0 -6 14 -31 30 -56 17 -24 37 -59 45 -76 8 -18 29
-54 45 -82 17 -27 60 -106 96 -175 37 -69 93 -172 125 -228 33 -57 59 -112 59
-121 0 -10 -8 -25 -17 -33 -10 -8 -31 -22 -48 -29 -21 -10 -31 -23 -33 -41 -2
-15 -10 -32 -18 -38 -8 -7 -14 -24 -14 -39 0 -15 10 -58 23 -96 15 -47 36 -85
62 -114 22 -24 54 -58 71 -75 17 -17 50 -44 74 -61 23 -16 79 -54 124 -82 44
-29 106 -62 136 -74 30 -11 64 -23 75 -25 11 -2 34 -19 50 -37 17 -19 53 -60
80 -93 28 -32 66 -82 85 -111 19 -28 42 -54 51 -56 9 -2 19 -20 23 -38 3 -19
22 -59 41 -89 l34 -55 -67 -8 c-37 -4 -107 -5 -157 -2 -49 4 -120 12 -156 18
-43 8 -116 10 -210 6 -79 -4 -250 -7 -379 -8 -187 0 -265 4 -385 20 -82 12
-202 23 -265 25 -63 2 -151 6 -195 8 -44 3 -132 13 -195 22 -63 9 -140 24
-170 34 -30 10 -91 23 -135 29 -44 6 -103 13 -132 16 -28 3 -63 9 -77 15 -14
5 -32 7 -40 4 -8 -3 -17 0 -21 6 -4 6 -1 19 7 28 8 9 29 49 46 87 18 39 37 77
42 85 5 8 32 60 60 115 28 55 59 115 69 133 11 19 26 41 33 50 8 9 34 55 58
102 24 47 46 87 50 90 4 3 16 26 28 51 11 26 38 75 61 109 23 34 41 63 41 66
0 2 10 26 22 52 12 26 29 56 38 67 9 11 26 36 36 55 10 19 21 37 24 40 3 3 18
30 34 60 15 30 63 123 106 206 43 83 83 169 90 190 7 21 39 90 71 153 33 63
65 122 73 130 8 9 35 57 61 106 26 50 58 111 71 138 13 26 26 47 28 47z
m-8955 -140 c3 0 25 -40 48 -90 23 -49 45 -101 49 -115 3 -14 9 -25 13 -25 3
0 14 -15 22 -32 9 -18 35 -72 58 -119 22 -48 41 -93 41 -100 0 -8 11 -31 25
-51 14 -20 25 -45 25 -55 0 -10 11 -40 25 -67 14 -27 25 -55 25 -63 0 -7 4
-13 9 -13 5 0 21 -39 35 -87 15 -49 39 -113 55 -143 16 -30 31 -71 35 -91 3
-20 15 -44 26 -54 11 -10 20 -26 20 -36 0 -10 5 -21 10 -24 6 -3 10 -13 10
-21 0 -9 11 -30 24 -47 13 -18 33 -49 45 -70 12 -21 21 -46 21 -57 0 -11 -5
-20 -12 -20 -6 0 -36 -12 -65 -26 -30 -14 -82 -46 -114 -72 -34 -26 -75 -70
-94 -101 -29 -46 -35 -65 -35 -112 0 -49 4 -62 33 -97 17 -23 37 -41 43 -41 6
-1 29 -14 50 -30 22 -16 53 -41 70 -55 18 -14 39 -26 47 -26 9 0 20 -6 24 -14
4 -8 34 -26 65 -40 32 -15 72 -29 90 -33 18 -3 53 -17 78 -30 28 -16 70 -26
112 -30 65 -6 66 -6 72 -38 4 -18 13 -38 21 -45 8 -7 15 -18 15 -25 0 -6 9
-20 20 -30 11 -10 20 -26 20 -36 0 -9 15 -40 34 -68 19 -28 32 -51 30 -51 -3
0 8 -19 24 -42 16 -24 37 -58 46 -76 9 -18 26 -42 37 -53 12 -12 27 -36 35
-54 7 -19 18 -36 24 -40 5 -3 10 -15 10 -26 0 -12 -4 -17 -11 -14 -6 4 -187 9
-402 11 -216 2 -432 5 -482 8 -49 2 -130 11 -178 21 -49 9 -121 18 -160 20
-40 2 -142 6 -227 9 -85 3 -186 8 -225 11 -38 3 -108 15 -155 25 -47 10 -129
27 -183 36 -54 9 -100 14 -104 11 -3 -4 -15 -1 -26 5 -11 6 -43 16 -71 23 -28
7 -76 20 -106 28 -30 8 -90 20 -132 27 -43 7 -78 16 -78 20 0 4 -9 10 -20 13
-17 4 -18 9 -10 37 5 18 13 37 18 43 5 7 12 24 16 39 3 15 12 33 19 40 6 7 17
24 23 38 6 14 21 46 32 72 12 27 34 67 49 90 16 23 38 57 50 77 11 20 33 59
47 86 14 28 30 57 35 65 5 8 21 41 35 72 14 31 26 59 26 63 0 3 38 83 85 178
47 95 105 208 130 252 25 44 67 124 95 177 27 54 50 106 50 116 0 10 9 28 20
40 12 12 17 22 13 22 -4 0 -3 4 2 8 6 4 34 47 63 95 28 49 52 92 52 97 0 5 14
29 30 53 17 25 30 49 30 55 0 5 9 21 20 35 12 14 26 41 32 59 6 18 16 40 23
48 7 8 16 26 20 40 4 14 31 61 59 105 29 44 67 110 85 148 18 37 37 67 41 67
4 0 15 17 26 38 10 20 23 43 28 50 4 6 11 12 15 12z m10954 -996 c351 -2 565
-7 577 -14 10 -5 38 -10 62 -10 24 0 59 -5 78 -10 19 -6 108 -12 197 -14 155
-3 164 -5 181 -26 11 -13 24 -20 30 -16 7 4 12 14 12 22 0 11 11 13 58 9 31
-3 82 -11 112 -16 30 -6 75 -12 100 -14 25 -1 62 -3 83 -4 24 -1 37 -6 37 -15
0 -7 -11 -30 -25 -50 -14 -20 -25 -43 -25 -50 0 -8 -6 -19 -14 -25 -8 -7 -31
-46 -50 -87 -20 -41 -80 -152 -133 -247 -53 -94 -106 -190 -117 -212 -11 -22
-23 -42 -27 -45 -3 -3 -18 -28 -32 -56 -14 -28 -46 -81 -71 -118 -25 -36 -46
-70 -46 -74 0 -5 -13 -29 -30 -55 -16 -26 -33 -59 -36 -74 -4 -15 -16 -36 -27
-48 -10 -11 -34 -50 -53 -87 -18 -36 -38 -69 -44 -73 -5 -3 -30 -46 -54 -96
-25 -49 -48 -99 -51 -111 -4 -11 -20 -42 -35 -67 -15 -26 -44 -85 -64 -131
-20 -47 -45 -103 -56 -125 -10 -22 -36 -74 -57 -116 -21 -41 -58 -110 -83
-151 -25 -42 -53 -79 -62 -81 -10 -3 -21 0 -26 7 -5 6 -35 61 -67 123 -31 61
-84 144 -117 185 -32 40 -105 134 -161 208 -56 74 -113 146 -128 160 -15 14
-30 40 -34 58 -3 17 -10 32 -15 32 -5 0 -11 8 -14 18 -3 9 -16 28 -28 42 -13
14 -32 41 -42 60 -10 19 -39 63 -62 97 -24 34 -48 72 -53 85 -5 13 -34 61 -64
108 -31 47 -65 97 -76 112 -12 14 -21 32 -21 40 0 7 -18 36 -40 63 -22 28 -75
95 -116 150 -42 55 -86 111 -99 125 -13 14 -52 70 -88 125 -36 55 -85 124
-109 153 -24 29 -60 78 -80 110 -21 31 -38 66 -38 77 0 11 9 26 20 32 10 7 52
19 92 27 40 8 109 20 153 26 44 6 92 18 107 26 16 8 38 12 52 8 14 -3 44 1 68
10 24 8 54 17 68 20 14 2 276 3 583 0z m1697 -104 c14 0 59 -7 100 -15 41 -9
92 -20 112 -26 20 -5 48 -23 62 -40 14 -17 26 -43 26 -57 0 -20 -14 -39 -52
-72 -29 -25 -66 -53 -82 -64 -17 -10 -33 -22 -36 -26 -3 -5 -45 -29 -95 -55
-49 -26 -101 -51 -115 -55 -14 -5 -56 -20 -94 -34 -38 -14 -77 -26 -88 -26
-17 0 -18 2 -3 28 9 15 27 47 41 72 15 25 38 68 54 95 15 28 49 91 75 140 27
50 53 100 59 112 7 15 20 23 36 23z m-2973 -81 c7 1 24 -22 39 -50 14 -29 44
-79 67 -111 23 -33 47 -67 52 -76 6 -9 25 -36 43 -61 17 -24 32 -51 32 -60 0
-12 -5 -11 -22 7 -13 12 -45 40 -71 62 -27 22 -56 40 -67 40 -10 0 -41 26 -69
58 -28 32 -60 75 -71 95 -11 20 -20 43 -20 50 0 8 10 19 23 25 12 6 29 13 37
15 8 3 21 6 27 6z m-7460 -85 c125 0 374 -6 553 -14 179 -7 375 -15 435 -17
61 -2 154 -7 208 -9 75 -4 100 -9 104 -20 3 -9 -4 -28 -16 -44 -11 -16 -21
-38 -21 -48 0 -10 -9 -27 -20 -37 -12 -11 -38 -44 -59 -74 -20 -31 -55 -87
-76 -126 -21 -38 -42 -72 -45 -75 -4 -3 -23 -35 -43 -71 -20 -36 -34 -69 -30
-72 3 -4 1 -7 -5 -7 -6 0 -17 -12 -25 -27 -8 -16 -23 -44 -33 -63 -10 -19 -21
-37 -24 -40 -3 -3 -15 -25 -27 -50 -12 -25 -45 -85 -72 -135 -28 -49 -72 -133
-98 -185 -26 -52 -51 -97 -54 -100 -3 -3 -13 -18 -22 -35 -9 -16 -22 -41 -28
-55 -7 -14 -20 -34 -30 -45 -9 -11 -37 -58 -61 -105 -25 -47 -59 -110 -77
-141 -17 -31 -38 -62 -46 -69 -8 -7 -15 -20 -15 -29 0 -9 -4 -21 -9 -27 -5 -5
-24 -36 -42 -69 -18 -33 -57 -96 -87 -140 -30 -44 -68 -95 -83 -113 -16 -18
-29 -37 -29 -42 0 -5 -18 -36 -41 -67 -22 -32 -65 -95 -95 -140 -30 -45 -60
-86 -66 -89 -7 -4 -16 1 -22 11 -6 10 -38 50 -70 89 -33 39 -72 82 -87 96 -14
14 -34 40 -44 59 -9 18 -25 36 -36 38 -10 3 -21 14 -24 24 -4 11 -28 44 -55
75 -26 30 -56 69 -65 87 -9 18 -40 77 -69 132 -28 55 -66 128 -84 162 -18 34
-37 65 -42 68 -6 4 -10 15 -10 27 0 11 -11 29 -25 40 -14 11 -23 24 -19 29 3
5 -9 29 -27 53 -17 25 -38 47 -45 50 -8 3 -14 14 -14 24 0 10 -13 32 -30 48
-16 16 -30 34 -30 40 0 6 -15 31 -34 55 -18 24 -39 60 -45 80 -6 20 -23 47
-36 59 -14 13 -25 28 -25 32 0 5 -13 28 -29 51 -16 24 -35 58 -43 77 -8 19
-22 41 -30 48 -9 7 -14 21 -11 33 4 13 -3 30 -19 47 -13 15 -32 52 -42 82 -11
30 -22 60 -27 65 -4 6 -18 30 -31 55 -14 25 -37 67 -52 94 -16 27 -29 59 -31
73 -1 13 -11 34 -21 46 -11 12 -30 43 -43 69 -13 26 -21 54 -18 62 3 8 23 24
45 35 21 11 87 29 148 40 60 11 143 25 184 32 41 6 90 16 108 21 19 6 87 13
152 18 84 5 127 12 145 24 20 13 33 15 63 7 20 -6 78 -9 127 -6 50 2 105 9
123 14 18 6 39 8 47 5 8 -3 21 -2 29 3 8 4 117 8 243 7z m1498 -71 c22 -2 65
-8 95 -15 30 -6 94 -21 142 -34 48 -12 122 -39 164 -59 74 -36 75 -37 68 -68
-3 -18 -7 -32 -8 -32 0 -1 -23 -18 -50 -40 -28 -22 -65 -50 -83 -62 -19 -13
-39 -23 -44 -23 -6 0 -23 -6 -37 -14 -15 -7 -44 -21 -65 -30 -21 -9 -51 -16
-67 -16 -16 0 -47 -7 -67 -15 -21 -8 -72 -24 -113 -34 -41 -11 -97 -29 -125
-39 -27 -11 -74 -26 -103 -32 -29 -7 -56 -10 -59 -7 -3 4 -3 12 1 19 3 7 12
22 18 33 7 11 27 40 43 65 17 25 35 54 42 65 7 11 20 36 30 55 10 19 47 79 83
133 36 54 72 111 80 126 13 24 20 27 55 24z m10828 7 c18 -1 59 -9 92 -18 33
-10 97 -37 143 -60 46 -24 85 -49 89 -58 3 -8 -3 -24 -12 -34 -10 -11 -23 -20
-30 -20 -6 0 -21 -8 -34 -17 -13 -10 -37 -30 -54 -45 -17 -16 -42 -28 -55 -28
-12 0 -25 8 -29 18 -4 9 -36 62 -72 117 -36 55 -69 107 -72 115 -4 8 -5 18 -2
23 2 4 19 7 36 7z m-13853 -173 c10 -1 17 -18 21 -45 3 -23 11 -48 17 -54 7
-7 12 -22 12 -35 0 -13 4 -23 8 -23 5 0 16 -15 25 -32 8 -18 25 -54 36 -80 12
-26 21 -51 21 -55 0 -3 6 -14 14 -22 8 -9 17 -31 21 -48 5 -26 3 -33 -9 -33
-9 0 -48 11 -88 25 -39 14 -86 34 -105 45 -19 11 -43 20 -54 20 -11 0 -22 6
-25 14 -3 8 -30 29 -61 48 -30 18 -64 40 -76 49 -19 15 -20 19 -7 50 8 19 28
49 46 68 17 18 67 51 110 72 44 21 86 37 94 36z m5078 -17 c5 0 35 -5 68 -11
32 -6 64 -15 69 -19 6 -5 22 -11 35 -13 14 -2 39 -9 55 -15 17 -7 37 -16 45
-21 8 -4 16 -18 18 -29 2 -12 -11 -40 -30 -65 -18 -24 -48 -55 -66 -70 l-34
-26 -44 59 c-24 33 -44 68 -44 79 0 10 -6 24 -14 30 -8 7 -17 23 -20 36 -3 13
-15 29 -26 35 -11 6 -20 15 -20 20 0 6 4 10 8 10z m2085 -71 c9 0 17 -3 17 -8
0 -4 -17 -39 -38 -77 -21 -38 -43 -78 -49 -89 -6 -11 -31 -60 -54 -110 -23
-49 -44 -92 -45 -94 -2 -2 -23 5 -46 16 -24 11 -54 24 -68 28 -14 4 -52 22
-85 40 -33 17 -77 42 -97 56 -21 13 -38 31 -38 40 0 9 21 36 48 61 36 34 66
50 127 70 44 14 116 31 160 38 44 6 96 15 115 19 19 5 43 9 53 10z m-9107
-390 c11 1 23 -2 26 -5 4 -3 -15 -47 -40 -97 -25 -51 -49 -94 -52 -97 -3 -3
-14 -22 -23 -42 -10 -20 -22 -40 -27 -43 -6 -3 -10 -13 -10 -21 0 -8 -10 -28
-22 -44 -12 -17 -28 -30 -37 -30 -8 0 -31 5 -50 11 -20 7 -46 16 -58 20 -13 5
-35 14 -49 21 -14 7 -42 26 -61 43 -35 30 -35 32 -21 59 8 15 32 38 54 51 21
13 73 41 114 62 41 22 97 52 123 67 27 16 63 32 80 36 18 5 41 8 53 9z"/>
<g>
<path d="M9911 5610 c-14 -1 -40 -7 -56 -14 -17 -7 -35 -19 -41 -27 -6 -8 -16
-29 -23 -48 -10 -30 -8 -38 10 -66 12 -17 39 -39 60 -48 27 -12 52 -15 83 -11
37 6 47 12 65 44 11 21 21 52 21 69 0 18 -7 45 -15 60 -9 19 -25 30 -46 35
-17 3 -43 6 -58 6z"/>
</g>
<g>
<path d="M8706 5530 c-23 0 -60 -9 -83 -19 -35 -16 -43 -26 -49 -55 -3 -20 -3
-46 0 -58 3 -13 16 -34 27 -48 18 -21 30 -25 74 -24 30 0 60 6 70 14 9 7 25
31 37 53 13 26 17 48 13 66 -4 14 -16 36 -27 49 -16 16 -33 22 -62 22z"/>
</g>
<g>
<path d="M9335 5267 c-24 2 -48 -3 -60 -12 -16 -13 -20 -27 -19 -68 1 -29 13
-86 27 -127 14 -41 32 -93 40 -115 8 -22 17 -47 20 -55 2 -8 5 -17 5 -20 0 -3
12 -28 26 -56 14 -29 26 -59 26 -68 0 -8 -10 -18 -22 -20 -13 -2 -40 -4 -62
-3 -31 1 -43 -5 -63 -27 -13 -16 -23 -38 -21 -50 2 -12 17 -28 38 -38 27 -14
60 -18 141 -18 73 0 111 4 124 14 11 8 16 20 12 29 -3 8 1 21 9 27 8 7 14 20
14 29 0 9 -6 25 -13 36 -7 11 -26 52 -41 90 -15 39 -32 79 -36 90 -4 11 -15
36 -23 55 -9 19 -19 49 -23 65 -4 17 -10 35 -14 40 -4 6 -10 21 -14 35 -4 14
-13 57 -19 95 l-12 70 -40 2z"/>
</g>
<g>
<path d="M9727 4377 c-115 -1 -209 -3 -210 -4 -1 -1 -148 -4 -327 -8 -179 -4
-354 -8 -388 -10 -35 -2 -76 -6 -90 -10 -15 -4 -35 -14 -44 -22 -10 -9 -18
-28 -18 -43 0 -14 9 -36 19 -47 13 -13 38 -23 68 -27 26 -3 76 -5 111 -3 34 2
64 6 67 9 2 2 100 3 217 1 117 -2 218 -4 223 -4 6 0 82 5 170 12 88 6 167 11
175 12 8 0 65 -4 125 -8 104 -7 111 -6 137 15 23 17 26 25 18 40 -6 10 -10 34
-10 54 0 24 -5 36 -17 40 -10 3 -112 5 -226 3z"/>
</g>
<g>
<path d="M11706 6870 c-3 0 -7 -4 -11 -9 -3 -5 -1 -12 5 -16 5 -3 10 1 10 9 0
9 -2 16 -4 16z"/>
</g>
</g>
</g>
</svg>
