<?xml version="1.0" standalone="no"?>
<!DOCTYPE svg PUBLIC "-//W3C//DTD SVG 20010904//EN"
 "http://www.w3.org/TR/2001/REC-SVG-20010904/DTD/svg10.dtd">
<svg version="1.0" xmlns="http://www.w3.org/2000/svg"
 width="909.000000pt" height="909.000000pt" viewBox="0 0 909.000000 909.000000"
 preserveAspectRatio="xMidYMid meet">
<metadata>
Created by potrace 1.16, written by Peter Selinger 2001-2019
</metadata>
<g transform="translate(0.000000,909.000000) scale(0.100000,-0.100000)"
fill="#000000" stroke="none">
<g>
<path d="M4385 8593 c-44 3 -140 -1 -215 -9 -74 -8 -145 -20 -158 -26 -13 -7
-55 -13 -95 -14 -40 -1 -111 -7 -160 -13 -48 -5 -115 -17 -150 -25 -34 -9 -78
-18 -97 -21 -19 -2 -71 -10 -115 -16 -44 -6 -93 -18 -108 -26 -16 -8 -31 -12
-35 -9 -3 3 -11 1 -19 -6 -7 -6 -27 -11 -43 -10 -17 0 -43 -6 -58 -14 -15 -7
-36 -14 -48 -14 -11 0 -39 -9 -62 -20 -22 -11 -54 -20 -69 -20 -15 0 -37 -7
-47 -15 -11 -8 -34 -15 -52 -15 -17 0 -43 -9 -57 -20 -14 -11 -32 -17 -40 -14
-9 3 -35 -6 -60 -20 -24 -14 -52 -26 -62 -26 -10 0 -32 -8 -49 -19 -17 -10
-55 -24 -84 -31 -28 -7 -55 -16 -58 -21 -3 -5 -14 -9 -25 -9 -11 0 -37 -9 -59
-20 -22 -11 -51 -20 -66 -20 -14 0 -40 -7 -57 -16 -18 -9 -39 -21 -47 -25 -8
-5 -28 -15 -45 -23 -16 -8 -48 -22 -70 -31 -22 -10 -51 -23 -65 -30 -14 -7
-61 -32 -105 -55 -44 -23 -87 -48 -96 -56 -9 -8 -32 -23 -50 -33 -19 -10 -56
-31 -84 -46 -27 -15 -61 -38 -75 -50 -14 -13 -51 -39 -83 -60 -32 -20 -70 -47
-85 -60 -15 -13 -83 -72 -152 -132 -68 -59 -155 -144 -192 -188 -38 -44 -91
-107 -119 -140 -27 -33 -54 -65 -59 -72 -6 -7 -10 -18 -10 -24 0 -7 -7 -20
-15 -29 -8 -9 -44 -64 -80 -121 -36 -57 -68 -115 -72 -129 -3 -14 -19 -46 -35
-71 -15 -25 -28 -53 -28 -61 0 -8 -5 -19 -12 -26 -6 -6 -18 -28 -25 -49 -8
-21 -20 -56 -27 -78 -8 -22 -21 -63 -29 -92 -9 -28 -21 -89 -27 -135 -6 -45
-16 -101 -21 -124 -4 -22 -11 -90 -15 -151 -6 -91 -4 -119 11 -164 10 -30 31
-79 47 -109 16 -30 49 -89 73 -130 24 -41 61 -98 82 -127 26 -35 63 -66 115
-98 43 -26 82 -53 89 -61 6 -8 15 -14 19 -14 5 0 38 -20 75 -44 51 -35 78 -46
123 -51 31 -4 102 -16 156 -27 78 -16 119 -19 187 -15 48 4 131 16 185 27 55
11 119 24 144 30 25 5 74 16 110 24 36 9 91 25 122 36 32 11 65 20 75 20 10 0
41 12 68 25 28 14 56 25 63 25 7 0 34 12 60 27 26 14 58 32 72 39 14 6 41 19
60 27 19 8 53 21 75 27 22 7 58 21 80 31 22 10 44 19 49 19 4 0 38 14 75 31
36 17 86 40 111 51 25 11 68 32 95 46 28 14 89 51 137 81 47 31 99 64 115 73
15 10 64 45 108 78 44 33 107 79 140 102 33 23 70 55 84 70 13 16 67 57 120
92 53 35 112 71 131 81 19 10 42 22 50 26 8 5 31 16 50 25 19 10 42 23 50 29
8 6 51 25 95 42 44 17 114 42 155 56 41 14 107 30 145 36 39 5 115 13 170 16
58 4 133 2 180 -5 44 -6 130 -15 190 -19 61 -5 128 -12 150 -16 22 -4 83 -20
135 -37 52 -16 120 -37 150 -44 30 -8 98 -35 150 -60 52 -24 109 -52 125 -61
17 -9 76 -43 132 -75 56 -33 131 -85 166 -116 35 -31 110 -97 167 -147 58 -49
132 -114 165 -144 33 -30 110 -100 170 -157 61 -56 135 -122 165 -146 30 -24
63 -47 73 -51 9 -3 17 -11 17 -16 0 -5 26 -24 58 -42 31 -18 113 -62 182 -97
69 -35 143 -70 165 -78 22 -8 63 -21 90 -29 28 -7 84 -17 125 -22 41 -5 118
-9 170 -8 52 1 127 7 165 14 39 7 93 19 120 28 28 9 69 24 93 35 23 10 83 46
132 79 49 33 112 81 140 106 29 26 69 71 91 102 21 31 64 107 94 168 31 62 67
145 81 185 20 57 28 104 34 212 6 108 5 157 -6 214 -8 41 -17 78 -20 83 -3 5
-7 17 -9 26 -3 10 -10 38 -16 63 -7 25 -18 59 -25 75 -7 17 -22 57 -33 90 -11
33 -27 78 -35 100 -8 22 -28 67 -45 100 -17 33 -44 83 -61 110 -16 28 -46 77
-65 110 -20 33 -64 103 -98 155 -34 53 -80 118 -102 145 -22 28 -43 52 -47 55
-4 3 -28 23 -54 45 -26 22 -66 56 -88 76 -23 20 -68 61 -101 90 -33 30 -77 67
-98 83 -20 15 -47 37 -60 50 -12 12 -44 40 -72 63 -27 22 -71 52 -96 67 -26
14 -57 37 -71 49 -13 12 -51 33 -83 46 -33 13 -87 39 -120 56 -33 18 -88 42
-122 54 -35 12 -67 19 -73 16 -5 -3 -10 -2 -10 4 0 5 -24 21 -54 35 -30 14
-57 26 -60 26 -3 0 -35 14 -71 30 -36 17 -68 30 -72 30 -4 0 -14 6 -22 13 -9
8 -53 28 -98 45 -45 18 -88 32 -95 32 -8 0 -18 4 -24 9 -5 5 -36 14 -69 20
-33 5 -116 24 -185 42 -69 17 -134 35 -145 40 -11 5 -54 18 -97 29 -42 11 -89
23 -105 25 -15 3 -55 10 -88 15 -33 6 -67 15 -75 19 -9 5 -40 12 -70 17 -30 4
-63 6 -74 5 -10 -2 -33 4 -50 12 -17 9 -49 20 -71 27 -22 6 -71 15 -110 21
-38 6 -131 14 -205 20 -74 5 -164 11 -200 14 -36 3 -105 7 -155 9 -49 2 -126
6 -170 9z m-30 -99 c33 -1 137 -7 230 -13 94 -6 226 -16 295 -21 69 -6 154
-15 190 -21 36 -6 79 -14 95 -19 17 -5 62 -14 100 -20 39 -6 84 -15 101 -21
17 -5 62 -13 100 -18 38 -5 92 -16 119 -25 28 -9 64 -20 80 -26 17 -5 66 -19
110 -31 44 -11 123 -31 175 -44 52 -13 142 -37 200 -54 58 -17 122 -37 143
-43 20 -6 42 -17 48 -25 6 -7 18 -13 26 -13 9 0 43 -12 77 -26 33 -15 92 -42
130 -60 37 -19 76 -34 85 -34 9 0 26 -7 37 -15 10 -8 25 -15 32 -15 7 0 74
-29 148 -65 74 -36 137 -65 139 -65 2 0 50 -32 107 -70 57 -39 119 -82 138
-96 19 -14 49 -37 65 -52 17 -15 66 -59 110 -97 44 -39 107 -93 140 -120 33
-28 88 -79 123 -114 35 -35 92 -103 128 -150 35 -47 71 -102 81 -121 10 -19
20 -37 23 -40 3 -3 31 -48 61 -100 31 -52 79 -149 107 -215 27 -66 59 -143 70
-171 12 -28 26 -68 31 -90 5 -21 17 -64 26 -94 10 -33 19 -111 22 -192 5 -123
3 -147 -17 -220 -12 -46 -37 -118 -56 -161 -19 -43 -34 -83 -34 -88 0 -4 -23
-42 -50 -82 -28 -41 -59 -82 -71 -92 -19 -18 -20 -18 -26 3 -4 16 -13 22 -33
22 -17 0 -43 -14 -71 -38 -24 -20 -60 -45 -79 -55 -19 -9 -56 -30 -81 -46 -26
-16 -69 -32 -97 -36 -27 -3 -59 -15 -71 -26 -15 -14 -19 -27 -15 -48 6 -29 5
-29 -47 -36 -30 -4 -110 -2 -179 4 -69 6 -136 12 -150 15 -14 3 -48 14 -76 24
-28 10 -63 26 -77 35 -15 9 -32 17 -40 17 -7 0 -22 7 -33 15 -10 8 -26 15 -35
15 -9 0 -22 7 -29 15 -7 8 -19 15 -26 15 -8 0 -76 42 -151 92 -75 51 -158 113
-183 138 -26 25 -71 66 -101 93 -30 26 -73 64 -95 85 -23 20 -84 75 -135 122
-51 47 -124 114 -163 149 -39 34 -85 75 -101 90 -17 15 -70 53 -117 85 -48 31
-104 64 -125 72 -21 9 -45 22 -53 29 -8 7 -40 25 -70 40 -30 15 -67 33 -82 41
-15 8 -62 26 -105 39 -43 14 -85 25 -93 25 -9 0 -20 4 -25 9 -6 5 -39 15 -75
21 -36 7 -77 19 -92 27 -15 7 -65 18 -110 24 -46 5 -126 15 -178 20 -52 6
-156 12 -232 15 -106 3 -160 -1 -243 -16 -58 -11 -110 -22 -116 -25 -5 -4 -30
-10 -57 -15 -26 -4 -102 -31 -170 -60 -68 -28 -140 -60 -160 -72 -20 -11 -71
-39 -112 -61 -41 -22 -111 -67 -155 -101 -44 -33 -88 -71 -98 -83 -9 -12 -41
-33 -70 -46 -28 -14 -74 -46 -101 -71 -26 -25 -52 -46 -57 -46 -4 0 -32 -19
-61 -43 -29 -23 -73 -56 -97 -72 -24 -17 -62 -42 -85 -58 -23 -15 -83 -48
-135 -73 -52 -25 -144 -66 -205 -91 -61 -24 -115 -48 -121 -53 -5 -4 -26 -11
-45 -15 -19 -4 -62 -21 -95 -37 -33 -17 -111 -53 -174 -80 -63 -27 -130 -52
-150 -57 -20 -5 -72 -19 -116 -31 -44 -12 -96 -26 -115 -31 -19 -5 -64 -14
-100 -20 -36 -6 -81 -13 -100 -15 -19 -3 -68 -11 -108 -19 -54 -11 -87 -13
-130 -6 -31 5 -70 14 -85 20 -16 6 -45 11 -65 11 -20 0 -63 9 -95 20 -32 11
-70 28 -85 38 -15 11 -36 22 -48 26 -11 3 -29 14 -40 24 -10 9 -35 29 -54 43
-19 14 -50 34 -68 43 -18 9 -37 27 -42 39 -4 12 -27 44 -49 71 -23 26 -41 52
-41 56 0 5 -16 36 -35 70 -19 34 -45 95 -57 136 -20 69 -20 83 -11 197 6 67
19 158 28 202 9 44 26 119 37 168 10 48 26 100 34 115 7 15 14 33 14 40 0 7 9
32 20 54 11 23 20 46 20 51 0 5 20 41 45 79 25 38 49 76 52 86 3 9 31 58 61
107 31 50 68 105 84 123 15 18 28 37 28 41 0 5 67 79 148 164 82 85 184 186
229 223 44 38 119 97 167 132 47 34 89 62 93 62 5 0 28 14 53 31 24 16 47 33
50 37 3 4 31 20 63 36 33 16 61 35 64 43 3 7 13 13 23 13 9 0 54 18 99 40 45
22 87 40 93 40 6 0 19 6 27 13 9 7 50 26 91 41 41 16 102 39 135 52 33 13 67
24 75 24 9 0 24 6 35 13 11 8 45 22 75 32 30 11 62 25 71 32 8 7 21 13 29 13
7 0 45 9 84 20 39 12 80 25 91 31 11 5 58 21 105 35 47 14 114 34 150 45 36
11 90 24 120 29 30 4 69 13 85 18 17 6 64 15 105 22 41 6 93 16 115 22 22 5
65 13 96 18 31 4 80 13 108 19 28 6 72 15 99 21 26 5 103 15 172 21 69 6 166
14 215 18 50 3 117 6 150 5z"/>
<g>
<path d="M930 6097 c-14 1 -35 -2 -48 -7 -12 -5 -28 -21 -34 -36 -11 -24 -10
-29 15 -50 16 -13 36 -24 46 -24 10 0 26 11 35 26 10 14 16 39 14 57 -2 26 -8
32 -28 34z"/>
</g>
<g>
<path d="M8068 5966 c-10 1 -29 -7 -43 -18 -14 -11 -25 -26 -25 -33 0 -8 5
-26 12 -40 6 -14 16 -25 23 -25 6 0 21 9 34 21 16 16 21 30 19 57 -2 24 -8 36
-20 38z"/>
</g>
<g>
<path d="M1973 5920 c-10 0 -31 -8 -46 -18 -15 -9 -30 -28 -34 -40 -4 -16 1
-30 13 -42 11 -10 29 -21 40 -24 14 -4 28 -1 38 9 9 9 19 28 22 41 4 14 2 36
-5 50 -6 13 -19 24 -28 24z"/>
</g>
<g>
<path d="M1360 5867 c-14 2 -41 -6 -60 -16 -23 -13 -44 -36 -60 -67 -13 -27
-26 -71 -28 -99 -3 -45 -1 -53 26 -78 22 -21 47 -31 94 -39 59 -10 68 -10 99
8 28 17 34 26 34 55 l0 34 -63 -2 c-35 -2 -72 2 -82 7 -12 7 -17 17 -13 32 2
13 10 34 16 46 6 13 24 30 40 38 23 13 28 21 25 47 -2 26 -8 32 -28 34z"/>
</g>
<g>
<path d="M7215 5747 c-16 1 -40 -5 -52 -13 -13 -9 -23 -24 -23 -34 0 -9 9 -29
21 -44 12 -15 30 -26 45 -26 17 0 27 8 35 27 5 15 9 41 7 57 -3 26 -7 31 -33
33z"/>
</g>
<g>
<path d="M7758 5730 c-13 0 -34 -7 -46 -16 -12 -8 -22 -26 -22 -39 0 -16 6
-24 18 -23 9 0 30 -4 45 -11 24 -9 28 -16 25 -43 -3 -26 -9 -33 -43 -46 -22
-8 -52 -14 -66 -13 -14 1 -34 -8 -44 -19 -16 -18 -16 -21 -2 -44 9 -13 25 -27
36 -31 11 -3 45 1 75 10 31 9 70 28 86 41 16 14 35 42 41 63 8 27 8 48 0 78
-7 27 -23 50 -45 67 -19 14 -45 26 -58 26z"/>
</g>
<g>
<path d="M1162 5504 c-40 6 -43 4 -62 -26 -11 -18 -20 -36 -20 -39 0 -3 21
-15 48 -27 26 -12 86 -29 134 -37 47 -8 97 -19 110 -24 13 -5 51 -12 84 -16
32 -4 64 -11 69 -15 6 -4 31 -10 56 -12 26 -3 54 -1 63 4 10 5 16 22 16 41 0
18 -6 39 -13 48 -7 10 -33 19 -62 22 -28 3 -95 12 -150 21 -55 10 -129 25
-165 36 -36 10 -84 21 -108 24z"/>
</g>
</g>
<g>
<path d="M3820 5277 c-19 1 -45 -3 -57 -9 -13 -6 -24 -24 -28 -44 -4 -26 -1
-42 15 -64 18 -25 28 -30 65 -30 40 0 44 3 60 37 17 36 17 39 -1 73 -16 29
-25 35 -54 37z"/>
</g>
<g>
<path d="M5847 5236 c-6 1 -22 -2 -34 -7 -12 -4 -26 -17 -32 -28 -6 -11 -11
-31 -11 -45 0 -15 10 -33 26 -45 15 -12 39 -21 53 -21 19 0 32 9 44 29 9 16
17 38 17 48 0 11 -11 30 -25 43 -14 13 -31 25 -38 26z"/>
</g>
<g>
<path d="M5067 4892 c-13 2 -35 0 -50 -5 -17 -5 -27 -16 -27 -28 0 -11 16 -82
35 -158 19 -76 35 -146 35 -157 0 -10 14 -73 30 -139 16 -66 39 -154 50 -195
12 -41 26 -93 31 -115 5 -22 12 -48 15 -57 3 -11 -4 -23 -19 -33 -13 -8 -41
-17 -63 -20 -21 -2 -64 -7 -94 -10 -30 -3 -70 -10 -87 -16 -23 -7 -33 -17 -33
-31 0 -11 13 -32 29 -47 29 -27 32 -28 93 -19 35 4 70 11 78 14 8 3 26 8 40
10 14 2 45 9 70 14 25 5 57 12 71 15 18 3 31 15 39 36 11 26 11 42 -3 98 -9
36 -25 98 -36 136 -11 39 -26 90 -34 115 -9 25 -29 104 -46 175 -16 72 -37
164 -46 205 -9 41 -25 105 -36 141 -16 54 -24 68 -42 71z"/>
</g>
<g>
<path d="M1735 3788 c-27 0 -77 -5 -110 -10 -33 -4 -85 -13 -115 -18 -30 -5
-75 -13 -101 -19 -25 -5 -74 -20 -109 -32 -35 -12 -88 -41 -119 -64 -31 -23
-76 -55 -101 -70 -25 -15 -62 -42 -84 -59 -21 -17 -71 -63 -112 -103 -40 -39
-92 -100 -116 -134 -24 -34 -47 -69 -53 -77 -5 -9 -24 -39 -41 -66 -17 -28
-43 -81 -58 -118 -14 -37 -30 -98 -34 -135 -4 -38 -7 -126 -6 -198 1 -71 9
-175 18 -230 9 -55 21 -136 27 -179 6 -43 22 -109 34 -145 12 -36 28 -82 35
-101 7 -19 28 -69 47 -110 20 -41 48 -88 63 -105 15 -16 49 -63 76 -104 27
-40 54 -83 61 -95 6 -11 50 -58 96 -103 46 -46 102 -95 123 -109 21 -15 46
-32 54 -40 8 -7 33 -28 55 -47 22 -18 74 -58 115 -89 42 -30 96 -66 120 -80
25 -14 61 -36 81 -49 19 -14 62 -33 95 -43 32 -11 93 -30 134 -44 41 -13 93
-36 115 -51 22 -15 74 -44 115 -64 41 -20 119 -52 172 -72 53 -19 107 -35 120
-35 13 -1 48 -10 78 -21 30 -11 105 -30 165 -43 61 -13 126 -31 144 -41 18 -9
74 -21 125 -25 50 -5 125 -14 166 -21 41 -6 185 -13 320 -14 135 -2 263 -6
285 -8 22 -3 96 -8 165 -12 69 -3 267 -9 440 -13 173 -3 391 -6 484 -5 94 0
206 5 250 11 45 6 115 15 156 21 41 6 109 17 150 26 41 8 113 20 160 26 46 5
89 14 95 18 5 5 33 11 60 14 28 3 64 13 80 21 17 9 40 16 52 16 12 0 34 5 50
11 15 6 66 22 113 34 47 13 130 40 185 59 55 20 120 41 144 47 25 5 83 26 130
45 47 20 104 44 126 54 22 10 79 36 127 59 48 22 90 41 94 41 3 0 54 23 112
51 59 28 186 99 282 157 96 57 213 130 260 161 47 30 105 74 130 96 25 22 78
69 118 104 39 36 95 94 124 130 29 36 57 71 63 77 5 6 33 40 60 74 28 34 64
79 80 99 17 20 44 61 60 91 16 30 36 66 45 80 9 14 28 43 42 65 14 22 51 89
83 148 31 60 61 123 67 140 5 18 12 46 15 62 3 17 12 71 20 120 8 50 17 113
20 140 3 28 0 95 -7 150 -6 55 -25 140 -41 189 -16 49 -44 116 -61 150 -18 33
-35 63 -38 66 -3 3 -13 22 -22 42 -10 20 -34 56 -55 79 -20 23 -64 59 -96 80
-32 21 -90 50 -130 63 -40 13 -108 34 -152 46 -48 13 -116 24 -170 25 -58 2
-104 -2 -130 -11 -22 -7 -49 -14 -59 -14 -11 0 -27 -6 -35 -14 -9 -8 -45 -26
-80 -41 -35 -14 -76 -34 -90 -43 -14 -9 -59 -46 -100 -82 -41 -36 -143 -135
-227 -220 -84 -85 -183 -189 -220 -230 -38 -41 -87 -88 -109 -105 -23 -16 -70
-56 -106 -87 -35 -31 -104 -91 -154 -133 -49 -42 -101 -81 -114 -86 -13 -5
-61 -38 -105 -73 -45 -35 -88 -71 -95 -80 -7 -9 -81 -49 -165 -90 -83 -41
-199 -97 -258 -125 -59 -27 -124 -53 -145 -57 -21 -4 -47 -11 -57 -17 -11 -5
-45 -13 -75 -17 -31 -5 -87 -14 -126 -21 -38 -6 -155 -12 -260 -13 -122 -1
-206 3 -235 11 -25 7 -70 18 -100 24 -30 6 -80 20 -110 30 -30 10 -73 21 -95
25 -22 4 -63 17 -92 30 -28 13 -58 24 -66 24 -8 0 -38 11 -66 23 -27 13 -56
29 -63 35 -8 6 -50 24 -94 40 -44 17 -136 57 -204 91 -69 34 -134 67 -145 74
-11 6 -36 24 -56 40 -20 15 -41 27 -47 27 -6 0 -39 33 -75 73 -35 39 -83 100
-106 134 -24 35 -47 65 -52 69 -5 3 -25 30 -44 60 -20 31 -79 101 -133 156
-53 56 -134 138 -179 184 -46 45 -113 103 -150 128 -38 25 -90 69 -118 97 -27
28 -66 59 -85 69 -19 10 -51 23 -70 28 -19 6 -80 27 -135 47 -96 35 -107 37
-285 45 -102 5 -207 8 -235 8z m210 -114 c117 -3 151 -8 210 -29 39 -13 79
-25 91 -25 11 0 24 -3 28 -7 3 -4 40 -21 80 -37 57 -24 91 -47 149 -103 41
-39 88 -78 103 -86 16 -8 41 -26 55 -38 14 -13 44 -41 67 -62 23 -20 59 -59
78 -85 20 -26 72 -83 115 -127 43 -44 97 -107 121 -140 24 -33 52 -73 63 -89
11 -16 27 -38 35 -51 8 -12 29 -39 45 -61 17 -21 47 -56 69 -77 21 -21 77 -64
125 -95 47 -31 106 -67 131 -80 25 -14 54 -31 65 -38 11 -8 26 -14 34 -14 8 0
39 -12 70 -26 31 -14 69 -32 84 -40 16 -8 36 -14 44 -14 9 0 37 -10 62 -22 25
-13 52 -28 58 -35 7 -6 31 -14 53 -18 22 -4 42 -11 46 -16 3 -5 10 -7 15 -3 5
3 21 -1 34 -10 13 -9 35 -16 49 -16 14 0 40 -9 58 -19 18 -11 62 -27 98 -36
36 -9 79 -20 95 -25 17 -5 59 -19 95 -31 57 -18 89 -21 260 -21 107 0 229 5
270 12 41 7 95 16 120 20 25 4 72 13 105 20 33 6 78 18 100 25 22 8 94 38 160
68 66 30 182 84 257 121 76 38 157 84 180 105 24 20 77 64 118 97 41 34 86 67
99 74 13 7 60 45 105 84 45 39 110 96 146 125 36 30 100 86 143 124 43 39 94
93 113 120 20 27 61 73 91 101 30 28 82 78 116 112 34 34 78 79 97 101 19 22
60 57 90 78 30 21 106 65 170 98 106 54 122 60 195 64 65 5 107 0 215 -23 111
-23 148 -36 213 -72 44 -26 95 -64 118 -91 22 -25 65 -95 94 -156 30 -60 61
-139 69 -175 9 -36 20 -104 25 -150 8 -70 6 -103 -10 -190 -10 -58 -24 -127
-29 -155 -6 -27 -13 -61 -17 -75 -3 -13 -18 -45 -33 -70 -14 -25 -34 -64 -43
-87 -9 -24 -33 -65 -52 -93 -19 -27 -35 -52 -35 -55 0 -3 -29 -50 -65 -103
-35 -53 -93 -129 -127 -169 -35 -39 -85 -99 -113 -133 -27 -34 -68 -80 -90
-103 -22 -22 -76 -73 -120 -112 -44 -39 -125 -97 -180 -130 -55 -33 -111 -66
-125 -73 -14 -6 -45 -25 -70 -41 -25 -17 -85 -52 -135 -80 -49 -27 -117 -63
-150 -80 -33 -17 -64 -31 -69 -31 -5 0 -53 -21 -105 -46 -53 -26 -118 -57
-146 -70 -27 -13 -70 -31 -95 -39 -25 -9 -59 -21 -77 -26 -18 -5 -35 -14 -38
-19 -4 -6 -14 -10 -23 -10 -9 0 -66 -18 -127 -39 -60 -22 -144 -49 -185 -61
-41 -12 -95 -28 -120 -35 -25 -8 -83 -24 -130 -36 -47 -12 -107 -25 -135 -30
-27 -5 -66 -13 -85 -19 -19 -5 -71 -14 -115 -20 -44 -6 -102 -15 -130 -20 -27
-6 -79 -12 -115 -15 -36 -3 -103 -10 -150 -16 -47 -5 -146 -11 -220 -11 -74
-1 -225 2 -335 5 -110 4 -274 10 -365 13 -91 4 -187 7 -215 8 -27 2 -165 6
-305 10 -140 4 -304 12 -365 17 -60 5 -145 14 -189 19 -43 5 -101 17 -130 28
-28 11 -73 25 -101 31 -27 6 -69 14 -93 17 -23 4 -45 11 -48 15 -3 5 -16 9
-28 9 -13 0 -41 7 -62 16 -20 9 -58 20 -83 24 -25 5 -84 22 -131 38 -47 16
-107 40 -134 52 -44 20 -48 24 -42 51 3 19 0 34 -11 44 -12 12 -26 15 -50 10
-20 -4 -57 0 -91 10 -31 9 -79 27 -107 41 -27 13 -75 38 -105 55 -30 18 -77
40 -105 50 -27 10 -64 25 -81 33 -17 9 -45 32 -63 51 -24 26 -38 34 -52 30
-14 -5 -37 7 -82 44 -34 28 -71 62 -81 76 -10 14 -23 25 -27 25 -5 0 -41 33
-81 73 -40 40 -104 119 -141 175 -38 56 -74 108 -81 115 -6 6 -26 34 -44 60
-18 26 -32 53 -32 58 0 5 -7 24 -16 40 -8 17 -24 63 -36 102 -11 40 -26 99
-34 132 -8 33 -23 119 -34 190 -10 72 -20 157 -21 190 -1 33 1 110 5 170 4 61
14 135 23 165 8 30 23 66 32 80 10 14 32 52 50 84 18 33 39 66 47 74 8 7 14
17 14 22 0 4 35 44 78 87 47 48 124 110 197 159 66 44 142 90 170 103 27 13
75 30 105 39 30 8 82 19 115 23 33 5 107 12 165 15 58 3 110 7 115 9 6 2 73 2
150 -1z"/>
<g>
<path d="M1634 3570 c-16 -1 -42 -8 -58 -17 -16 -8 -58 -21 -93 -29 -34 -7
-80 -20 -100 -30 -21 -9 -60 -27 -88 -39 -27 -12 -78 -35 -113 -51 -34 -15
-70 -36 -79 -46 -9 -10 -23 -18 -30 -18 -8 0 -39 -16 -69 -36 -52 -34 -55 -39
-52 -73 2 -28 8 -37 24 -39 12 -2 41 12 69 33 26 20 65 43 86 50 21 8 63 30
93 49 31 20 71 42 90 50 19 8 37 12 39 9 3 -2 25 5 50 16 25 12 70 26 99 32
29 7 69 20 88 30 19 11 42 19 50 19 8 1 25 9 38 19 12 11 22 23 22 29 0 5 -8
16 -18 25 -10 10 -32 17 -48 17z"/>
</g>
<g>
<path d="M7473 3560 c-15 -1 -41 -12 -58 -26 l-30 -25 28 -24 c15 -14 39 -25
52 -25 13 0 58 -14 101 -31 42 -17 85 -29 95 -26 10 3 23 -1 30 -9 9 -11 8
-15 -2 -18 -8 -2 -33 -7 -57 -9 -23 -3 -54 -12 -67 -21 -16 -10 -25 -26 -25
-41 0 -20 5 -25 28 -26 15 -1 43 -3 62 -5 19 -2 56 -6 82 -10 36 -4 45 -9 41
-21 -3 -9 -30 -26 -60 -39 -29 -13 -53 -30 -53 -37 0 -7 6 -21 13 -31 12 -17
21 -18 72 -10 55 9 60 12 92 59 29 41 33 55 28 85 -4 19 -13 45 -20 57 -8 12
-28 24 -45 28 -17 4 -27 11 -24 17 4 6 23 8 46 4 25 -4 46 -2 54 5 8 6 14 19
14 28 0 10 -10 27 -23 39 -16 15 -36 22 -63 22 -22 0 -72 9 -113 20 -40 11
-95 32 -122 45 -26 14 -61 25 -76 25z"/>
</g>
<g>
<path d="M7302 3259 c-10 5 -27 5 -40 0 -12 -5 -25 -16 -28 -24 -4 -9 3 -26
16 -41 13 -13 34 -24 46 -24 13 0 26 6 31 13 4 6 8 17 9 22 0 6 -3 18 -8 27
-5 10 -16 22 -26 27z"/>
</g>
<g>
<path d="M1370 3233 c-16 3 -50 -7 -97 -29 -52 -24 -76 -41 -87 -63 -9 -16
-16 -53 -16 -82 0 -39 6 -61 28 -94 15 -23 38 -50 51 -60 15 -11 42 -18 71
-19 35 -1 57 6 88 27 23 15 42 33 42 41 0 7 -8 20 -18 29 -10 10 -29 17 -41
17 -12 0 -32 -5 -44 -11 -18 -10 -25 -7 -49 20 -20 22 -28 41 -26 59 2 21 13
32 48 48 24 12 54 34 67 48 13 15 23 33 23 41 0 8 -3 16 -7 18 -5 2 -19 7 -33
10z"/>
</g>
<g>
<path d="M2074 3040 c-11 0 -25 -5 -32 -12 -7 -7 -12 -27 -12 -45 0 -21 6 -36
18 -42 14 -7 27 -5 50 9 18 11 32 28 32 38 0 11 -8 26 -18 35 -10 10 -27 17
-38 17z"/>
</g>
<g>
<path d="M7942 3010 c-10 0 -26 -6 -36 -13 -10 -7 -17 -21 -15 -31 2 -10 21
-28 41 -40 37 -21 37 -21 52 -1 9 11 16 26 16 33 0 6 -9 21 -20 32 -11 11 -28
20 -38 20z"/>
</g>
<g>
<path d="M988 2636 c-24 4 -38 1 -47 -10 -7 -8 -13 -31 -13 -50 0 -19 3 -39 7
-45 3 -6 18 -11 33 -11 15 1 37 9 49 19 12 10 25 29 28 43 4 16 1 29 -8 37 -9
6 -30 14 -49 17z"/>
</g>
</g>
<g>
<path d="M5465 3587 c-55 0 -122 -2 -150 -4 -27 -3 -115 -10 -195 -16 -80 -7
-181 -10 -225 -7 -44 4 -183 5 -310 4 -126 -1 -270 -5 -319 -9 -49 -3 -93 -8
-98 -11 -4 -3 -8 -18 -8 -33 0 -15 8 -35 18 -43 15 -14 76 -16 477 -17 253 0
512 4 575 10 63 6 170 11 239 12 112 2 125 4 135 22 6 11 17 24 25 31 10 8 11
15 2 31 -6 12 -23 23 -38 26 -16 3 -73 4 -128 4z"/>
</g>
</g>
</svg>
