<?xml version="1.0" standalone="no"?>
<!DOCTYPE svg PUBLIC "-//W3C//DTD SVG 20010904//EN"
 "http://www.w3.org/TR/2001/REC-SVG-20010904/DTD/svg10.dtd">
<svg version="1.0" xmlns="http://www.w3.org/2000/svg"
 width="1182.000000pt" height="1182.000000pt" viewBox="0 0 1182.000000 1182.000000"
 preserveAspectRatio="xMidYMid meet">
<metadata>
Created by potrace 1.16, written by Peter Selinger 2001-2019
</metadata>
<g transform="translate(0.000000,1182.000000) scale(0.100000,-0.100000)"
fill="#000000" stroke="none">
<g>
<path d="M8350 11228 c-19 0 -89 -5 -155 -9 -66 -4 -167 -14 -225 -23 -58 -9
-143 -24 -190 -33 -47 -8 -89 -16 -95 -18 -5 -1 -17 -4 -25 -7 -8 -4 -51 -17
-95 -31 -44 -14 -121 -41 -170 -61 -50 -19 -118 -49 -150 -67 -33 -17 -69 -40
-81 -50 -11 -11 -23 -19 -27 -19 -4 0 -44 -24 -90 -54 -45 -30 -118 -90 -162
-134 -44 -43 -105 -113 -135 -156 -30 -43 -75 -105 -100 -139 -25 -34 -66 -96
-91 -137 -25 -41 -62 -115 -83 -165 -21 -49 -47 -116 -57 -150 -11 -33 -24
-78 -30 -100 -6 -22 -15 -51 -20 -65 -5 -14 -14 -48 -19 -75 -4 -28 -13 -68
-19 -90 -6 -22 -14 -85 -17 -140 -4 -55 -8 -167 -8 -250 0 -83 6 -181 13 -220
7 -38 19 -92 27 -120 7 -27 16 -61 19 -75 4 -14 10 -34 15 -45 5 -11 14 -38
21 -60 6 -22 26 -64 43 -93 17 -30 39 -68 49 -85 10 -18 27 -41 37 -52 11 -11
59 -62 107 -114 48 -52 113 -117 143 -145 29 -28 86 -80 126 -116 39 -36 90
-80 112 -97 22 -18 45 -33 50 -33 5 0 15 -7 23 -16 7 -9 49 -34 93 -56 45 -22
95 -50 111 -62 17 -12 45 -28 63 -35 17 -8 32 -17 32 -22 0 -5 9 -9 20 -9 11
0 49 -16 84 -35 36 -19 84 -41 108 -49 24 -8 60 -17 81 -20 21 -4 52 -15 70
-25 18 -11 49 -22 69 -25 20 -4 50 -13 65 -21 15 -8 38 -15 49 -15 12 0 39 -6
60 -14 22 -7 62 -17 89 -20 28 -4 77 -9 110 -11 33 -2 92 -7 130 -10 39 -4 86
-10 105 -14 19 -4 67 -2 105 5 39 7 84 14 100 17 17 3 41 9 55 15 14 5 32 17
39 26 7 9 19 16 26 16 6 0 26 7 43 16 18 8 34 19 37 24 3 5 28 16 55 25 28 9
50 20 50 25 0 4 15 14 33 21 17 7 65 35 105 61 40 26 101 71 135 100 34 29
105 96 157 149 52 53 120 125 150 160 31 35 90 116 131 179 42 63 88 135 102
160 14 25 44 81 66 126 23 44 41 84 41 88 0 4 6 22 14 39 7 18 18 45 25 60 6
15 25 96 42 179 17 83 35 177 41 207 5 31 14 106 20 166 6 61 11 157 12 215 0
58 -3 138 -8 178 -5 39 -12 72 -16 72 -3 0 -12 24 -19 53 -6 28 -34 106 -62
172 -28 66 -57 132 -65 147 -8 14 -14 33 -14 42 0 9 -14 45 -32 79 -18 34 -59
94 -92 134 -34 40 -73 89 -89 110 -15 21 -52 72 -83 113 -30 41 -74 90 -97
107 -23 18 -47 37 -53 42 -6 5 -42 30 -80 56 -37 26 -91 59 -119 73 -27 14
-62 34 -76 45 -14 10 -41 22 -60 27 -19 5 -74 22 -124 39 -49 16 -122 39 -160
51 -39 11 -80 20 -92 20 -12 0 -34 5 -50 11 -15 6 -75 17 -133 25 -58 8 -121
13 -140 12z m30 -116 c92 -2 159 -10 210 -24 41 -11 82 -21 90 -23 8 -2 49
-12 90 -24 41 -11 104 -30 140 -42 36 -12 97 -36 136 -54 40 -19 116 -64 170
-101 55 -36 114 -81 133 -98 18 -17 67 -71 109 -121 42 -49 98 -121 125 -160
26 -38 63 -92 81 -120 18 -27 50 -95 71 -150 20 -54 54 -138 76 -186 21 -48
39 -96 39 -108 0 -12 5 -32 11 -44 7 -11 18 -69 25 -127 7 -58 11 -130 9 -160
-2 -30 -7 -86 -10 -125 -4 -38 -8 -83 -10 -100 -2 -16 -7 -52 -10 -80 -4 -27
-8 -57 -10 -65 -1 -8 -15 -73 -30 -145 -15 -71 -35 -152 -45 -180 -10 -27 -25
-70 -35 -95 -9 -25 -33 -76 -53 -115 -20 -38 -53 -95 -73 -125 -20 -30 -44
-68 -53 -85 -9 -16 -32 -51 -50 -77 -19 -26 -44 -60 -56 -75 -12 -16 -67 -77
-123 -138 -56 -60 -112 -118 -123 -130 -12 -11 -34 -31 -50 -44 -16 -14 -60
-50 -99 -81 -38 -31 -97 -71 -130 -90 -33 -18 -78 -43 -100 -55 -22 -13 -76
-35 -120 -50 -53 -19 -106 -29 -155 -31 -41 -2 -100 1 -130 6 -30 5 -67 12
-82 16 -15 3 -39 4 -52 0 -19 -5 -23 -11 -19 -27 6 -20 4 -21 -68 -14 -41 3
-101 11 -134 17 -33 6 -80 17 -105 25 -25 8 -81 25 -125 38 -44 13 -93 31
-110 39 -16 9 -38 16 -47 16 -10 0 -82 29 -160 65 -78 36 -158 76 -178 89 -19
13 -53 34 -75 47 -22 12 -71 43 -110 68 -38 25 -99 68 -135 97 -36 28 -108 94
-160 145 -52 52 -135 139 -185 193 -49 55 -99 113 -109 130 -10 17 -28 47 -39
66 -11 19 -31 67 -44 105 -13 39 -35 117 -49 175 -20 82 -26 137 -28 250 -2
80 3 204 11 275 8 72 20 150 27 175 8 25 17 70 21 100 4 30 15 73 25 95 10 22
21 58 25 80 3 22 36 99 71 170 35 72 79 147 98 168 18 21 44 60 56 85 13 26
42 70 65 97 23 28 48 61 54 74 7 13 29 37 49 55 21 17 62 54 92 82 30 27 88
70 128 95 41 24 88 52 105 62 18 11 41 27 52 36 11 10 45 28 75 40 30 12 64
26 75 30 11 4 49 18 85 30 36 12 88 28 115 37 28 8 68 19 90 25 22 5 60 14 85
20 25 5 65 12 90 15 25 3 54 8 65 11 11 3 76 11 145 18 69 6 186 10 260 7z"/>
<g>
<path d="M7267 8977 c-28 4 -37 1 -45 -13 -5 -11 -8 -30 -5 -44 2 -13 10 -35
18 -47 9 -13 24 -23 34 -23 10 0 25 8 34 18 9 10 19 32 23 48 4 20 1 34 -9 43
-8 6 -31 15 -50 18z"/>
</g>
<g>
<path d="M7322 8656 c-20 2 -51 -2 -67 -10 -17 -7 -39 -21 -48 -30 -10 -10
-17 -33 -17 -54 0 -21 9 -50 23 -69 12 -18 26 -33 30 -33 4 0 31 -21 58 -47
28 -26 60 -48 72 -50 12 -1 27 1 33 5 6 4 14 19 17 33 6 23 0 32 -47 68 -30
23 -57 49 -60 58 -4 9 -5 18 -2 20 2 2 20 1 40 -3 21 -3 42 -12 49 -19 7 -6
24 -15 39 -18 22 -6 30 -3 44 18 16 25 16 27 -10 54 -15 15 -47 38 -72 50 -25
13 -62 25 -82 27z"/>
</g>
<g>
<path d="M7827 8587 c-33 5 -38 3 -47 -21 -5 -15 -7 -38 -4 -51 3 -13 14 -31
25 -41 16 -14 23 -15 48 -4 16 6 35 25 42 42 10 26 10 32 -8 49 -10 11 -36 22
-56 26z"/>
</g>
<g>
<path d="M7004 8420 c-11 0 -24 -3 -27 -7 -4 -3 -7 -12 -7 -20 0 -7 18 -33 41
-58 23 -24 70 -61 106 -82 36 -21 76 -45 88 -53 12 -8 42 -30 66 -48 24 -18
64 -42 88 -53 25 -11 48 -23 51 -27 3 -5 21 -16 42 -25 20 -9 43 -17 51 -17 8
0 20 6 26 14 7 8 11 27 9 42 -2 21 -17 35 -67 65 -34 22 -66 39 -69 39 -3 0
-42 26 -86 58 -45 33 -119 78 -166 101 -46 24 -93 49 -104 57 -11 8 -30 14
-42 14z"/>
</g>
</g>
<g>
<path d="M3439 11140 c-20 0 -38 -2 -40 -4 -2 -2 -47 -7 -99 -11 -52 -4 -99
-10 -105 -13 -5 -3 -78 -5 -162 -3 -122 2 -175 -2 -261 -19 -59 -11 -127 -26
-152 -32 -25 -6 -49 -14 -55 -18 -5 -4 -37 -12 -70 -19 -33 -7 -80 -20 -105
-28 -25 -9 -51 -21 -57 -26 -7 -5 -13 -7 -13 -3 0 3 -22 -8 -49 -24 -26 -17
-55 -30 -63 -30 -9 0 -21 -7 -28 -15 -7 -8 -19 -15 -26 -15 -8 0 -38 -14 -67
-31 -28 -17 -68 -41 -87 -55 -19 -13 -40 -27 -45 -31 -6 -5 -30 -24 -55 -44
-25 -20 -61 -45 -82 -55 -20 -10 -67 -46 -104 -79 -37 -33 -93 -87 -125 -120
-31 -33 -76 -82 -98 -110 -23 -27 -41 -53 -41 -58 0 -5 -13 -27 -28 -50 -16
-23 -51 -89 -80 -147 -28 -58 -63 -136 -77 -175 -15 -38 -37 -122 -50 -185
-12 -63 -26 -171 -30 -240 -3 -69 -10 -168 -14 -220 -3 -52 -6 -115 -5 -140 1
-25 5 -97 8 -160 5 -74 18 -156 37 -230 17 -63 40 -135 53 -160 13 -25 27 -56
31 -70 4 -14 18 -49 31 -78 13 -29 24 -57 24 -63 0 -5 19 -40 43 -77 24 -37
52 -83 63 -102 10 -19 24 -41 31 -48 7 -7 20 -25 29 -40 8 -15 50 -59 92 -99
43 -39 126 -117 186 -172 60 -56 112 -101 117 -101 5 0 47 -25 94 -55 46 -30
88 -55 91 -55 3 0 20 -10 37 -22 18 -13 52 -34 77 -47 25 -13 57 -30 71 -37
14 -7 34 -15 45 -17 10 -2 28 -8 39 -14 11 -6 38 -14 60 -18 22 -4 48 -12 57
-16 9 -5 63 -14 120 -21 57 -6 189 -11 293 -11 105 1 213 6 240 12 28 6 84 17
125 25 41 8 113 29 160 46 47 18 99 38 115 45 17 7 39 15 50 19 11 3 63 28
115 56 52 27 115 61 140 75 25 14 86 55 135 90 50 36 115 86 145 112 30 26 88
84 129 130 41 45 86 95 99 110 13 15 55 64 91 108 37 44 83 103 103 131 20 29
51 80 68 115 18 35 52 111 77 169 25 58 65 160 89 228 25 70 48 158 54 205 6
45 14 157 17 248 5 133 3 185 -11 265 -10 54 -26 124 -37 155 -10 30 -19 62
-19 70 0 9 -9 34 -20 57 -11 22 -20 46 -20 52 0 5 -4 18 -9 28 -5 9 -34 69
-66 132 -31 63 -70 132 -86 152 -16 20 -29 39 -29 42 0 3 -11 22 -25 42 -14
20 -65 78 -113 128 -49 50 -125 125 -169 166 -44 41 -105 96 -134 121 -30 25
-65 52 -79 59 -14 7 -27 16 -30 20 -3 3 -32 25 -66 47 -33 23 -105 65 -159 93
-55 29 -106 61 -113 71 -7 11 -32 29 -55 41 -23 12 -62 28 -87 35 -25 7 -61
12 -81 13z m-59 -116 c30 -3 110 -28 178 -55 67 -27 137 -58 155 -69 17 -11
46 -27 63 -34 17 -8 36 -22 44 -30 7 -9 18 -16 24 -16 7 0 40 -19 73 -43 34
-24 85 -63 114 -87 29 -25 78 -67 109 -94 30 -27 96 -90 145 -141 50 -51 108
-115 131 -141 22 -27 55 -74 72 -104 18 -30 38 -64 45 -75 6 -11 22 -34 34
-52 13 -17 23 -37 23 -43 0 -7 6 -26 14 -43 8 -18 24 -53 36 -80 11 -26 23
-62 27 -80 3 -17 10 -41 16 -52 6 -11 14 -35 19 -55 5 -19 17 -97 27 -172 12
-89 15 -154 11 -185 -5 -27 -8 -77 -9 -113 -1 -36 -6 -83 -11 -105 -5 -22 -10
-55 -10 -73 0 -18 -4 -40 -9 -50 -6 -9 -20 -51 -31 -92 -12 -41 -25 -84 -30
-95 -5 -11 -17 -40 -27 -65 -10 -25 -52 -112 -93 -195 -42 -82 -98 -180 -126
-216 -27 -36 -71 -92 -99 -124 -27 -32 -108 -118 -180 -190 -71 -73 -146 -140
-165 -150 -19 -9 -48 -30 -65 -45 -16 -15 -63 -46 -102 -69 -40 -23 -116 -62
-168 -86 -53 -25 -98 -45 -101 -45 -3 0 -29 -11 -57 -23 -29 -13 -81 -31 -117
-40 -36 -9 -96 -23 -135 -33 -38 -9 -95 -20 -125 -24 -30 -5 -138 -9 -240 -9
-126 -1 -206 3 -250 13 -36 8 -99 22 -140 31 -41 9 -111 33 -155 52 -44 20
-111 58 -150 84 -38 26 -92 59 -120 75 -27 15 -68 41 -90 58 -21 17 -75 65
-120 106 -44 41 -114 109 -156 151 -42 42 -94 103 -115 135 -22 33 -46 75 -54
94 -7 19 -22 47 -32 62 -10 14 -18 29 -18 32 0 3 -12 31 -26 63 -14 32 -31 72
-39 88 -7 17 -24 60 -39 97 -14 37 -33 105 -40 150 -8 46 -17 105 -21 132 -4
28 -7 110 -7 183 1 73 3 136 6 141 2 4 9 86 16 182 6 96 20 213 30 260 10 47
29 117 41 155 11 39 37 104 56 145 19 41 54 107 76 145 23 39 52 86 66 105 14
19 50 64 81 99 30 36 73 81 95 100 21 20 47 44 58 54 10 10 37 32 60 48 23 16
60 42 82 56 22 14 63 44 91 65 29 21 98 64 155 94 57 31 131 67 164 79 33 13
76 30 95 38 19 8 55 21 80 27 25 7 54 16 65 21 11 4 63 17 115 28 52 11 131
24 175 30 44 6 161 10 259 10 98 0 181 3 185 6 3 3 30 3 61 -1z"/>
<g>
<path d="M3792 8960 c-11 0 -24 -6 -29 -12 -6 -7 -13 -21 -16 -31 -4 -9 -2
-28 3 -42 7 -19 17 -25 39 -25 19 0 34 8 45 25 9 13 16 33 16 44 0 11 -9 25
-19 31 -11 5 -28 10 -39 10z"/>
</g>
<g>
<path d="M3802 8669 c-15 0 -38 -5 -52 -10 -13 -6 -39 -21 -58 -35 -18 -14
-38 -38 -44 -52 -6 -15 -11 -33 -11 -39 0 -7 1 -20 2 -28 0 -9 11 -15 25 -15
17 0 34 12 51 34 15 19 36 36 48 38 12 2 34 -2 50 -9 19 -10 27 -21 27 -39 0
-14 -13 -46 -29 -69 -16 -24 -31 -56 -33 -71 -2 -16 3 -31 13 -37 12 -7 23 -5
42 9 14 10 39 39 55 64 17 25 35 68 40 98 9 52 9 53 -29 101 -22 27 -46 52
-55 55 -9 3 -28 6 -42 5z"/>
</g>
<g>
<path d="M3304 8500 c-12 0 -27 -6 -33 -13 -6 -8 -14 -28 -17 -45 -5 -25 -2
-33 19 -47 21 -13 32 -14 64 -6 37 10 39 13 38 48 0 30 -6 41 -25 50 -14 7
-35 13 -46 13z"/>
</g>
<g>
<path d="M4141 8490 c-4 0 -48 -39 -97 -88 -49 -48 -126 -131 -171 -185 -63
-73 -83 -104 -83 -126 0 -28 1 -29 35 -21 18 4 47 18 62 31 15 13 55 56 88 96
33 40 97 107 143 149 60 55 82 82 82 100 0 17 -8 27 -26 34 -14 6 -29 10 -33
10z"/>
</g>
</g>
<g>
<path d="M5572 9409 c-9 -1 -28 -4 -42 -8 -16 -4 -33 -24 -52 -61 -15 -30 -27
-60 -28 -67 0 -6 -31 -76 -69 -155 -38 -79 -91 -179 -118 -223 -27 -44 -95
-142 -151 -218 -57 -76 -117 -155 -135 -175 -18 -20 -57 -64 -88 -97 -31 -33
-71 -78 -90 -99 -19 -22 -75 -85 -125 -140 -51 -56 -136 -144 -190 -196 -55
-52 -162 -151 -238 -220 -76 -69 -146 -129 -156 -135 -10 -5 -54 -44 -97 -85
-43 -41 -97 -91 -119 -110 -22 -19 -55 -46 -74 -60 -18 -14 -56 -44 -83 -67
-27 -23 -64 -49 -81 -58 -17 -9 -53 -32 -81 -50 -27 -19 -73 -51 -101 -71 -29
-20 -80 -53 -115 -72 -35 -19 -113 -60 -173 -90 -61 -30 -147 -67 -192 -82
-46 -16 -109 -34 -141 -40 -31 -7 -68 -19 -81 -28 -14 -9 -22 -23 -20 -36 2
-16 21 -27 83 -49 44 -16 89 -30 100 -32 11 -2 61 -18 111 -35 80 -28 100 -40
155 -94 35 -33 91 -91 124 -127 33 -36 84 -97 113 -135 29 -38 76 -105 104
-149 29 -44 73 -124 100 -177 26 -53 48 -102 48 -108 0 -6 11 -32 24 -58 13
-26 31 -63 39 -82 8 -19 19 -47 25 -63 7 -15 21 -62 32 -105 11 -43 28 -125
39 -183 11 -57 25 -151 32 -209 8 -64 11 -205 10 -364 -2 -223 -6 -280 -27
-405 -13 -80 -33 -175 -44 -211 -10 -36 -22 -78 -25 -95 -3 -16 -10 -50 -15
-75 -5 -25 -14 -67 -20 -95 -8 -40 -7 -52 4 -63 10 -10 25 -13 51 -8 25 5 51
22 82 53 24 26 63 58 86 73 23 14 98 55 167 90 69 34 152 77 185 94 33 18 76
38 95 46 19 7 42 19 50 25 8 7 40 21 70 32 30 11 71 26 90 32 19 7 76 23 125
36 50 12 128 30 175 39 47 9 105 21 130 27 25 6 63 12 85 14 22 1 101 8 175
14 74 7 141 14 149 17 8 2 62 5 120 4 58 0 126 -2 150 -5 25 -3 67 -12 94 -21
26 -9 51 -13 54 -10 3 3 11 2 17 -3 6 -4 34 -13 61 -20 28 -7 81 -23 118 -38
38 -14 132 -61 210 -105 78 -45 167 -97 197 -117 30 -20 63 -39 73 -43 10 -4
48 -29 85 -55 37 -26 69 -50 72 -53 3 -3 14 -13 26 -21 11 -8 42 -32 67 -53
26 -22 64 -62 86 -91 21 -28 47 -75 57 -104 13 -37 27 -57 46 -67 19 -10 34
-11 51 -5 14 5 27 20 30 33 3 13 8 52 12 88 3 36 8 88 11 115 3 28 7 61 8 75
2 14 11 75 20 135 10 61 24 139 32 175 8 36 16 76 18 90 2 14 9 54 16 89 6 36
13 67 15 70 2 4 6 27 10 51 4 25 14 72 22 105 8 33 20 68 25 78 5 10 11 26 13
35 3 9 12 40 20 67 9 28 28 86 42 130 13 44 36 112 50 150 14 39 31 84 39 102
8 17 14 38 14 47 0 8 4 25 9 38 5 13 17 50 26 83 10 33 22 65 26 71 5 6 15 28
23 50 8 21 33 77 55 124 23 47 52 103 66 125 13 22 56 103 95 180 40 77 76
145 81 151 5 6 21 33 35 60 14 27 42 73 62 103 21 29 49 72 64 95 15 22 35 52
45 65 10 14 41 50 68 80 28 30 64 69 81 86 17 16 55 51 85 77 30 25 63 55 74
65 11 10 47 36 80 56 33 21 76 49 95 62 19 13 46 32 60 43 14 11 36 23 50 27
14 4 33 14 42 22 9 8 15 24 12 36 -2 11 -7 24 -12 29 -5 5 -21 11 -35 14 -15
2 -38 9 -52 14 -15 6 -39 10 -54 10 -15 0 -31 3 -35 7 -3 4 -13 8 -22 9 -8 1
-38 8 -67 14 -29 7 -83 21 -122 32 -38 10 -97 28 -130 38 -33 11 -89 26 -125
34 -36 7 -101 26 -145 42 -44 15 -116 40 -160 56 -44 16 -99 38 -123 49 -23
10 -49 19 -57 19 -7 0 -29 9 -47 20 -18 10 -53 26 -77 34 -23 9 -115 52 -204
97 -89 44 -169 86 -177 93 -8 7 -49 34 -90 59 -41 26 -91 61 -110 78 -19 17
-55 45 -80 62 -25 17 -63 46 -85 65 -22 19 -108 101 -192 182 -83 81 -175 176
-204 210 -29 35 -88 100 -132 144 -43 45 -90 98 -103 119 -13 20 -28 37 -33
37 -5 0 -39 46 -77 102 -38 57 -83 132 -100 168 -17 36 -43 100 -58 142 -14
42 -26 82 -26 89 0 6 -16 51 -36 98 -19 47 -42 102 -49 121 -7 19 -17 44 -21
55 -4 11 -9 29 -11 40 -2 10 -10 30 -18 42 -9 13 -23 23 -33 22z m-29 -222 c6
-2 11 -10 13 -18 1 -7 12 -39 24 -69 12 -30 32 -86 45 -125 12 -38 30 -83 39
-100 9 -16 16 -34 16 -38 0 -5 22 -53 50 -108 l50 -99 -31 0 c-17 0 -39 -5
-50 -10 -11 -6 -19 -21 -19 -35 0 -13 10 -31 22 -39 12 -9 35 -16 50 -16 22 0
31 7 41 31 l12 31 50 -62 c28 -35 60 -76 71 -92 12 -16 59 -69 105 -117 46
-48 152 -159 234 -246 83 -87 152 -162 153 -167 2 -5 -1 -15 -8 -23 -6 -8 -44
-24 -83 -35 -40 -12 -102 -30 -138 -41 -36 -10 -77 -19 -92 -19 -14 0 -28 -4
-31 -9 -3 -5 -29 -11 -58 -14 -29 -3 -84 -11 -123 -17 -38 -6 -142 -11 -230
-11 -88 0 -194 4 -236 9 -41 6 -93 15 -115 21 -21 6 -69 17 -107 26 -37 9 -98
30 -135 46 -37 17 -105 49 -152 71 -47 23 -113 60 -147 82 -35 22 -63 43 -63
46 0 3 37 48 82 100 45 52 96 109 114 125 17 17 66 71 110 120 43 50 81 92 84
95 3 3 29 37 57 75 29 39 56 75 61 80 4 6 23 30 42 55 19 24 43 53 53 64 9 11
17 24 17 29 0 4 11 23 25 41 13 17 41 63 61 101 20 39 51 99 68 135 18 36 38
80 46 98 7 18 17 31 23 29z m-933 -1237 c4 0 27 -9 52 -20 24 -10 53 -28 63
-40 10 -11 24 -20 30 -20 7 0 24 -9 39 -21 14 -11 41 -25 60 -30 18 -5 49 -20
67 -32 19 -13 75 -36 124 -51 50 -16 99 -32 110 -36 11 -4 49 -13 85 -20 36
-6 81 -13 100 -15 19 -2 57 -8 84 -14 28 -7 126 -11 229 -11 99 1 190 5 202
10 11 4 54 11 95 14 40 4 105 13 144 21 39 8 107 26 150 40 43 14 84 25 90 25
7 0 37 12 67 27 29 14 65 35 78 45 14 10 27 15 30 11 3 -5 33 -31 66 -60 33
-28 107 -86 165 -130 58 -43 133 -96 167 -116 46 -28 63 -45 68 -66 3 -15 1
-40 -5 -55 -6 -17 -8 -72 -5 -139 3 -62 10 -150 16 -197 6 -47 19 -104 30
-129 10 -24 19 -53 19 -65 0 -11 9 -46 21 -76 11 -30 24 -59 28 -65 5 -5 11
-26 15 -45 3 -19 28 -78 54 -130 26 -52 50 -97 53 -100 3 -3 36 -51 73 -107
37 -55 73 -104 81 -107 8 -3 15 -12 15 -20 0 -8 12 -28 26 -46 15 -17 38 -37
53 -45 14 -7 45 -31 68 -53 23 -21 62 -49 87 -63 25 -13 46 -31 46 -39 0 -9
-5 -21 -10 -26 -6 -6 -22 -31 -36 -55 -13 -24 -62 -120 -108 -214 -47 -93 -92
-194 -102 -223 -9 -30 -22 -56 -29 -58 -6 -3 -34 3 -61 12 -36 12 -85 17 -184
17 -104 0 -145 -3 -180 -17 -25 -9 -45 -16 -45 -15 0 2 -35 -14 -77 -34 -42
-20 -81 -37 -86 -37 -5 0 -15 -7 -22 -15 -7 -8 -16 -13 -20 -10 -4 2 -27 -5
-51 -17 -24 -11 -73 -40 -109 -63 -36 -24 -74 -52 -84 -64 -11 -11 -24 -21
-31 -21 -6 0 -42 -29 -81 -65 -38 -35 -73 -69 -79 -75 -5 -7 -31 -33 -57 -59
-27 -27 -48 -53 -48 -59 0 -6 -9 -17 -19 -24 -10 -7 -28 -32 -40 -54 -12 -22
-30 -50 -42 -62 -11 -13 -25 -37 -31 -55 -6 -17 -19 -43 -28 -57 -9 -14 -21
-34 -28 -45 -7 -11 -16 -29 -21 -40 -5 -11 -12 -28 -15 -39 -5 -13 -13 -17
-29 -13 -12 3 -47 13 -77 22 -40 12 -103 17 -230 19 -96 2 -182 0 -190 -4 -8
-4 -36 -10 -61 -14 l-46 -7 -7 43 c-3 24 -9 59 -12 78 -3 19 -10 42 -15 51 -4
9 -22 58 -39 110 -17 52 -43 115 -58 140 -15 25 -41 67 -59 95 -17 27 -38 57
-47 67 -9 9 -16 20 -16 23 0 4 -15 19 -32 35 -18 16 -36 29 -40 29 -4 0 -32
23 -62 51 -31 28 -86 72 -123 97 -38 25 -83 49 -101 54 -18 5 -30 13 -27 18 3
5 -27 18 -67 30 -40 11 -81 25 -92 31 -10 6 -40 17 -65 24 -25 7 -84 18 -131
24 -47 7 -114 18 -150 26 -48 10 -81 11 -125 4 -32 -6 -73 -9 -89 -7 -28 3
-30 7 -46 73 -9 39 -24 84 -33 102 -10 18 -17 37 -17 43 0 7 -21 55 -46 108
-25 54 -54 115 -64 137 -10 22 -21 50 -25 62 -5 19 1 27 37 50 24 16 77 57
119 93 41 36 98 93 127 127 28 34 52 64 52 68 0 4 13 26 29 49 16 23 43 74 59
112 16 38 41 105 56 149 15 44 38 130 52 190 17 78 24 146 25 235 1 69 -3 170
-10 225 -6 55 -21 126 -32 157 -13 34 -18 62 -12 70 4 8 50 52 101 99 52 46
110 98 130 114 20 17 65 58 100 93 35 34 67 62 72 62z m-499 -450 c3 0 13 -35
22 -77 9 -43 21 -123 26 -178 6 -55 8 -120 6 -145 -3 -25 -8 -61 -10 -80 -3
-19 -15 -82 -26 -140 -12 -58 -28 -112 -35 -121 -8 -8 -14 -27 -14 -40 0 -14
-19 -63 -41 -109 -23 -47 -52 -99 -65 -116 -13 -17 -24 -35 -24 -40 0 -5 -16
-27 -35 -49 -20 -22 -52 -60 -73 -84 -20 -24 -70 -68 -110 -98 -41 -30 -79
-52 -86 -50 -7 3 -42 49 -78 104 -36 54 -88 123 -114 153 -27 30 -62 69 -79
87 -16 18 -46 51 -65 73 -19 22 -57 57 -84 77 -27 20 -78 47 -115 60 -36 12
-73 23 -82 23 -9 0 -19 7 -23 15 -3 8 0 15 6 15 6 0 47 16 92 36 44 20 97 43
116 52 19 9 64 33 99 54 34 21 67 38 71 38 4 0 13 7 20 15 10 12 16 13 26 4 8
-6 14 -19 14 -27 0 -9 12 -27 27 -40 20 -17 34 -21 56 -16 25 5 28 3 24 -12
-3 -11 -10 -40 -17 -65 -9 -35 -9 -52 -1 -68 7 -11 18 -21 26 -21 8 0 23 10
35 22 12 13 20 35 20 55 0 20 8 41 20 53 12 12 26 17 37 13 10 -4 21 -11 25
-17 4 -6 8 -34 8 -62 0 -38 5 -55 20 -69 15 -13 23 -15 33 -7 8 7 20 36 27 65
10 43 10 62 0 91 -6 20 -26 50 -43 66 -21 20 -42 30 -62 30 -16 -1 -41 -7 -55
-15 -14 -8 -31 -14 -38 -15 -9 0 -12 13 -10 40 1 25 -4 46 -15 58 -16 18 -16
20 6 40 13 12 26 22 29 22 3 0 43 24 88 54 45 30 106 76 137 103 31 26 63 52
72 57 9 5 36 28 61 50 24 23 67 62 95 88 27 26 53 48 56 48z m2968 -80 c4 0
57 -24 117 -54 60 -30 186 -84 279 -121 94 -37 174 -71 179 -76 6 -5 17 -9 26
-9 9 0 45 -12 81 -26 35 -14 75 -28 88 -30 13 -3 32 -9 42 -14 9 -6 44 -16 76
-24 32 -8 87 -22 123 -31 36 -9 81 -21 100 -27 19 -6 44 -14 55 -18 11 -4 52
-15 90 -25 39 -10 82 -20 98 -23 15 -2 27 -8 27 -13 0 -5 -51 -42 -112 -82
-86 -56 -147 -108 -253 -213 -106 -105 -161 -170 -222 -260 -44 -65 -102 -158
-128 -206 -26 -49 -49 -88 -51 -88 -2 0 -28 17 -57 37 -28 20 -76 59 -106 87
-29 28 -72 78 -94 111 -22 33 -46 65 -53 70 -6 6 -27 35 -46 65 -19 30 -54 91
-77 135 -24 44 -59 123 -78 175 -18 52 -45 127 -58 165 -13 39 -26 93 -29 120
-3 28 -8 64 -11 80 -3 17 -7 44 -10 60 -2 17 -7 57 -11 90 -3 32 -3 78 1 102
3 24 10 43 14 43z m-2955 -1968 c6 -4 27 -9 46 -11 19 -2 43 -7 52 -12 9 -5
30 -9 46 -9 16 0 32 -3 36 -7 3 -4 12 -8 19 -9 7 -1 32 -7 57 -14 25 -6 71
-17 103 -24 32 -8 66 -20 75 -28 9 -7 37 -24 62 -38 25 -13 59 -33 75 -44 17
-12 32 -24 35 -27 3 -3 19 -13 36 -22 18 -9 51 -35 75 -57 24 -23 72 -69 107
-103 34 -34 62 -66 62 -71 0 -5 11 -23 24 -40 13 -17 34 -56 48 -86 14 -30 29
-71 33 -90 4 -19 14 -44 21 -56 8 -11 18 -45 24 -75 5 -30 12 -74 15 -98 l6
-44 -51 5 c-38 4 -53 2 -57 -8 -4 -10 -24 -14 -65 -14 -33 0 -68 -5 -79 -10
-10 -6 -43 -12 -71 -13 -29 -1 -55 -5 -58 -8 -3 -3 -39 -15 -80 -27 -41 -12
-113 -35 -160 -51 -47 -16 -187 -81 -312 -145 -126 -64 -228 -114 -228 -111 0
2 -17 -5 -37 -16 -21 -12 -53 -30 -70 -41 -31 -18 -33 -18 -33 -2 0 10 4 31
10 48 5 17 21 78 35 136 13 58 27 123 30 145 3 22 11 67 17 100 6 33 12 175
13 315 2 201 -2 286 -16 400 -11 80 -21 160 -24 179 -3 19 -7 37 -10 40 -2 4
0 13 5 21 6 10 31 14 84 15 42 1 79 4 82 8 4 4 12 3 18 -1z m3031 -114 c39 0
93 -7 122 -14 29 -8 55 -18 58 -24 3 -5 0 -31 -6 -57 -7 -26 -15 -52 -20 -58
-4 -5 -23 -57 -42 -115 -19 -58 -39 -116 -45 -130 -6 -14 -29 -83 -51 -153
-23 -70 -41 -139 -41 -152 0 -13 -5 -36 -11 -52 -6 -15 -22 -82 -35 -148 -13
-66 -38 -199 -55 -295 -16 -96 -33 -194 -36 -218 l-6 -42 -46 43 c-25 23 -67
59 -92 80 -25 20 -51 37 -57 37 -6 0 -15 6 -19 13 -4 7 -55 44 -113 83 -58 38
-121 77 -140 88 -19 10 -55 30 -80 44 -25 14 -63 35 -85 47 -22 12 -83 43
-135 69 -52 26 -102 51 -111 56 -9 5 -33 12 -53 15 -20 4 -36 13 -36 20 0 7 7
28 15 46 8 19 28 56 43 82 16 27 51 77 78 110 27 34 52 64 57 65 4 2 7 9 7 15
0 7 13 28 28 47 15 19 65 73 112 120 47 47 96 93 108 103 12 9 25 17 28 17 3
0 32 18 64 40 32 22 64 40 69 40 6 0 11 3 11 8 0 4 22 17 49 30 27 12 52 22
56 22 4 0 19 9 35 20 15 11 61 32 101 47 41 15 103 32 139 39 36 7 97 12 135
12z"/>
<g>
<path d="M5288 8619 c-2 0 -15 -8 -30 -17 -19 -12 -28 -25 -28 -43 0 -15 6
-32 13 -38 8 -6 27 -13 43 -17 17 -3 36 0 47 8 9 7 19 22 21 33 2 11 -1 28 -8
36 -6 9 -21 21 -33 27 -12 7 -23 12 -25 11z"/>
</g>
<g>
<path d="M5580 8476 c-30 2 -67 -1 -82 -7 -20 -8 -28 -18 -28 -34 0 -14 9 -29
21 -35 12 -7 37 -9 59 -5 32 5 40 3 49 -14 6 -11 11 -29 11 -40 0 -13 -8 -22
-22 -25 -13 -3 -44 -8 -70 -11 -25 -3 -51 -12 -57 -19 -6 -8 -9 -21 -5 -29 3
-9 21 -21 39 -27 19 -6 53 -8 77 -5 24 3 52 9 63 12 11 3 32 15 47 26 24 18
28 28 28 71 0 45 -5 57 -38 95 -35 41 -42 44 -92 47z"/>
</g>
<g>
<path d="M5830 8058 c-30 -1 -147 -5 -260 -9 -113 -5 -216 -8 -230 -9 -14 0
-40 -3 -57 -6 -27 -4 -33 -9 -33 -30 0 -17 8 -28 28 -36 16 -6 98 -10 209 -10
100 1 230 4 290 7 59 3 116 8 127 11 14 5 17 12 12 37 -4 17 -12 35 -19 39 -6
4 -37 7 -67 6z"/>
</g>
<g>
<path d="M4588 7680 c-26 0 -37 -5 -45 -23 -7 -15 -7 -41 -1 -77 5 -30 13 -68
18 -85 5 -16 14 -68 19 -115 6 -47 11 -161 12 -255 1 -93 -2 -188 -6 -210 -3
-22 -13 -69 -20 -105 -7 -36 -19 -92 -26 -125 -6 -33 -29 -109 -51 -170 -22
-60 -47 -119 -56 -130 -10 -11 -26 -36 -36 -55 -11 -19 -38 -60 -60 -90 -22
-30 -63 -79 -90 -108 -28 -30 -88 -78 -133 -108 -57 -36 -83 -60 -83 -73 0
-12 -11 -23 -30 -29 -19 -7 -32 -20 -36 -37 -4 -15 -2 -31 4 -37 6 -6 43 -14
84 -19 40 -5 93 -13 118 -18 25 -6 63 -14 85 -19 22 -6 63 -19 90 -30 28 -11
77 -32 110 -46 33 -15 67 -31 75 -37 8 -5 49 -29 90 -53 41 -25 80 -49 86 -54
5 -5 21 -15 35 -22 13 -7 26 -16 29 -20 3 -4 32 -22 65 -40 33 -17 69 -40 80
-49 11 -9 34 -23 50 -31 17 -8 77 -46 135 -84 58 -38 113 -78 124 -87 10 -10
33 -25 51 -34 18 -8 62 -43 97 -78 36 -34 84 -91 109 -125 24 -35 54 -80 67
-100 12 -21 29 -61 38 -91 9 -30 27 -65 40 -78 13 -12 32 -23 43 -23 11 0 26
3 35 6 9 3 16 11 16 17 0 5 12 26 26 45 15 18 46 63 69 99 24 36 87 112 141
170 54 58 138 137 188 176 50 38 115 86 145 106 29 20 61 41 70 46 9 6 18 13
21 16 3 3 59 34 125 69 66 35 163 85 215 111 52 25 145 70 205 99 61 29 124
56 140 61 17 4 66 17 110 29 44 12 92 23 107 23 15 1 33 10 41 21 8 10 12 29
9 41 -2 13 -20 31 -45 45 -23 13 -59 37 -81 54 -21 16 -57 49 -80 71 -22 23
-56 62 -74 86 -18 24 -48 65 -68 91 -19 26 -54 85 -78 130 -24 46 -51 97 -59
113 -9 17 -27 53 -40 80 -13 28 -36 84 -50 125 -14 41 -31 93 -37 115 -6 22
-15 56 -20 75 -4 19 -15 69 -25 110 -9 41 -21 100 -26 130 -5 30 -9 150 -9
267 0 185 -3 213 -17 221 -9 6 -30 5 -52 -1 -20 -6 -54 -27 -76 -47 -22 -20
-60 -49 -84 -65 -24 -16 -53 -35 -65 -42 -11 -7 -40 -22 -63 -33 -23 -11 -65
-25 -95 -31 -29 -6 -57 -12 -63 -13 -5 -2 -26 -6 -45 -9 -19 -3 -71 -11 -115
-16 -44 -6 -110 -12 -147 -15 -37 -2 -72 -7 -77 -11 -6 -3 -37 -1 -70 5 -33 6
-84 13 -113 15 -29 2 -93 14 -143 25 -49 12 -130 28 -180 36 -49 8 -111 21
-137 30 -25 8 -58 17 -71 20 -14 2 -44 14 -66 27 -21 12 -70 41 -108 65 -37
23 -86 58 -108 78 -22 19 -58 51 -81 70 -30 24 -51 34 -76 34z m163 -234 c41
-31 102 -70 137 -87 34 -17 65 -35 68 -40 3 -5 -1 -9 -9 -9 -8 0 -20 -6 -26
-14 -9 -11 -9 -20 -2 -34 6 -11 24 -22 40 -24 17 -2 36 -1 42 3 7 4 10 19 6
36 l-6 29 87 -18 c48 -10 107 -21 132 -24 25 -3 60 -10 78 -16 19 -6 32 -16
32 -26 0 -9 -5 -24 -10 -32 -5 -8 -17 -26 -27 -39 -10 -13 -31 -35 -47 -50
-16 -14 -40 -37 -53 -50 -13 -14 -31 -26 -40 -27 -8 -2 -25 -12 -37 -23 -12
-12 -25 -21 -29 -21 -3 0 -29 -13 -57 -30 -28 -16 -63 -33 -78 -36 -15 -4 -42
-18 -60 -32 -22 -16 -54 -27 -91 -31 -31 -4 -68 -4 -81 -1 -20 5 -25 12 -24
36 1 16 4 86 6 157 3 70 8 130 11 134 4 3 7 0 7 -7 0 -7 7 -22 17 -32 9 -10
30 -18 49 -18 28 0 35 5 40 26 5 18 0 32 -16 49 -18 19 -29 23 -49 18 -14 -3
-32 -10 -38 -16 -9 -6 -14 -5 -17 4 -3 8 -7 57 -10 109 -3 52 -8 117 -12 144
l-7 48 74 -56z m1772 -46 c5 0 7 -28 6 -62 -1 -35 2 -93 6 -130 l8 -68 -31 0
c-17 0 -37 -3 -46 -6 -9 -3 -16 -12 -16 -19 0 -6 9 -20 20 -30 11 -10 33 -18
50 -17 27 1 30 -3 30 -28 0 -17 5 -62 12 -102 7 -40 17 -76 22 -80 6 -4 7 -11
2 -15 -4 -4 -48 -10 -97 -12 -60 -2 -113 3 -162 14 -40 9 -92 24 -117 33 -25
8 -49 19 -55 24 -5 4 -15 8 -22 8 -8 0 -46 22 -86 49 -44 29 -89 70 -115 105
-23 31 -42 59 -42 62 0 3 -9 19 -21 36 -12 16 -20 31 -18 32 2 2 69 11 149 20
80 9 165 19 188 23 43 6 44 5 31 -16 -10 -16 -11 -25 -3 -39 6 -9 20 -19 30
-20 10 -2 23 -8 28 -13 5 -5 -2 -12 -17 -18 -15 -6 -33 -22 -39 -37 -11 -24
-10 -29 17 -50 16 -13 49 -26 72 -30 24 -3 50 -4 58 0 8 3 15 14 15 25 0 14
-9 23 -25 27 -14 3 -22 10 -19 15 3 5 10 7 15 4 5 -4 9 10 9 29 0 33 -3 36
-27 36 -26 0 -28 3 -28 42 0 36 -3 43 -25 48 -23 6 -24 6 -5 13 11 5 52 27 90
50 39 23 88 54 110 69 22 15 44 28 48 28z m-1045 -194 c20 -3 57 -7 82 -11 25
-3 77 -7 116 -9 39 -1 76 -6 82 -10 7 -4 25 -27 42 -51 16 -24 30 -50 30 -58
0 -8 7 -20 15 -27 8 -7 15 -20 15 -29 0 -9 16 -32 35 -51 20 -19 46 -45 58
-58 13 -13 34 -24 48 -25 13 -1 37 -14 53 -29 16 -16 36 -28 45 -28 9 0 30 -9
46 -20 17 -11 41 -20 56 -20 14 0 29 -4 35 -9 5 -5 41 -12 79 -16 39 -3 119
-8 179 -9 92 -3 111 -6 123 -21 7 -11 13 -29 13 -42 0 -13 9 -52 20 -86 11
-34 28 -75 37 -91 16 -29 15 -30 -13 -54 -16 -13 -38 -32 -49 -41 -11 -9 -35
-37 -53 -61 -18 -25 -49 -69 -67 -98 -19 -29 -37 -69 -41 -90 -4 -20 -17 -55
-29 -78 -21 -37 -22 -51 -20 -190 2 -82 8 -168 14 -191 6 -22 18 -46 25 -53 8
-6 12 -18 9 -26 -3 -8 2 -25 10 -38 12 -17 13 -26 4 -35 -6 -6 -14 -11 -18
-11 -4 0 -42 -20 -83 -45 -42 -25 -79 -45 -83 -45 -3 0 -49 43 -102 96 -83 84
-108 102 -187 139 -49 23 -114 48 -143 55 -29 7 -73 10 -97 7 -24 -2 -47 -1
-50 4 -3 5 -10 7 -15 3 -6 -3 -29 -8 -52 -10 -23 -2 -67 -11 -97 -19 -30 -9
-66 -20 -80 -25 -14 -4 -50 -19 -80 -32 -30 -12 -72 -33 -93 -45 -21 -13 -48
-25 -61 -29 -13 -3 -53 -34 -89 -69 l-67 -63 -57 35 c-32 19 -60 37 -63 41 -3
4 -22 16 -43 27 -21 11 -45 28 -54 37 -14 15 -13 20 10 50 14 18 31 56 38 83
6 28 15 60 20 73 5 13 9 57 9 98 0 41 -5 108 -11 147 -6 40 -25 106 -41 147
-16 41 -44 98 -61 125 -18 28 -39 58 -47 68 -8 10 -22 27 -30 37 -8 10 -31 38
-50 62 -19 23 -45 53 -58 66 -17 18 -20 27 -12 42 5 10 10 30 10 43 0 14 7 48
17 76 l16 52 86 -2 c47 0 95 2 106 6 11 4 48 21 81 36 34 16 67 29 73 29 7 0
22 9 33 20 12 11 42 30 67 42 25 12 76 41 112 64 37 24 79 58 93 76 15 18 34
41 42 51 8 9 14 21 14 25 0 5 8 17 19 28 10 11 24 30 30 42 10 18 18 21 49 18z
m-882 -726 c2 0 15 -18 29 -40 14 -22 31 -40 39 -40 7 0 21 -18 31 -40 10 -22
22 -40 26 -40 4 0 17 -19 28 -42 11 -24 31 -70 45 -102 15 -32 24 -61 21 -64
-3 -3 -1 -10 5 -17 5 -6 12 -36 15 -66 4 -29 8 -80 10 -112 2 -43 -4 -76 -23
-130 -14 -40 -31 -78 -38 -84 -7 -7 -14 -18 -16 -24 -2 -7 -12 -9 -26 -5 -12
4 -28 13 -34 20 -7 6 -35 23 -63 36 -27 13 -69 36 -92 52 -23 15 -47 28 -54
28 -6 0 -33 10 -58 21 -25 12 -53 25 -61 29 -9 4 -56 17 -105 29 -50 11 -103
23 -119 26 -27 6 -28 7 -11 25 10 11 21 20 26 20 4 0 31 16 60 36 30 20 80 61
112 92 31 31 57 60 57 65 0 4 18 30 40 58 22 28 40 55 40 60 0 4 17 34 38 66
20 32 46 77 56 101 10 23 21 42 22 42z m2140 -100 c3 0 14 -20 25 -45 11 -24
23 -47 28 -49 5 -3 21 -31 36 -63 16 -31 35 -66 44 -77 9 -11 31 -35 49 -53
17 -17 32 -39 32 -48 0 -9 40 -57 90 -107 49 -49 87 -94 84 -99 -3 -5 -16 -9
-30 -9 -13 0 -53 -12 -87 -26 -34 -14 -96 -42 -137 -61 -41 -19 -102 -48 -134
-64 -33 -16 -64 -29 -70 -29 -6 0 -22 -9 -36 -20 -14 -11 -34 -20 -45 -20 -16
0 -24 13 -39 63 -11 35 -22 113 -26 182 -6 99 -4 131 11 185 10 36 23 81 31
100 7 19 30 65 50 101 21 36 56 82 78 103 22 20 43 36 46 36z m-989 -722 c34
1 64 -2 67 -7 3 -4 23 -11 45 -14 22 -3 77 -27 122 -53 45 -27 84 -57 87 -66
2 -10 7 -18 11 -18 4 0 28 -19 54 -43 29 -26 47 -51 47 -64 0 -12 -6 -26 -14
-30 -7 -4 -31 -22 -52 -39 -22 -18 -74 -60 -116 -94 -43 -34 -95 -82 -115
-107 -21 -26 -52 -61 -70 -79 -17 -18 -50 -60 -72 -93 -23 -33 -45 -62 -51
-66 -5 -3 -25 25 -44 62 -18 37 -52 93 -75 123 -22 30 -62 76 -88 103 -26 26
-52 47 -59 47 -6 0 -14 6 -17 13 -3 7 -57 50 -121 96 -64 45 -116 84 -116 85
0 2 28 25 63 52 34 26 72 58 84 71 12 13 33 23 46 23 13 0 41 9 63 19 21 10
66 27 99 36 33 10 65 21 70 25 6 5 28 10 50 13 22 2 68 4 102 5z"/>
<g>
<path d="M5000 7219 c-8 -1 -27 -4 -41 -6 -15 -2 -36 -15 -49 -28 -18 -19 -20
-27 -11 -44 7 -12 18 -21 26 -21 8 0 15 -6 15 -14 0 -8 7 -22 16 -30 14 -14
12 -19 -15 -48 -17 -18 -31 -41 -31 -50 0 -12 8 -18 23 -18 13 0 57 22 99 48
43 27 84 55 93 62 8 7 15 16 15 20 0 4 -15 15 -34 24 -24 11 -36 25 -41 46 -4
17 -16 37 -28 45 -12 8 -28 14 -37 14z"/>
</g>
<g>
<path d="M6158 7044 c-15 3 -29 2 -32 -3 -4 -5 -2 -21 3 -35 7 -17 22 -28 48
-35 21 -6 56 -14 78 -19 22 -4 58 -7 80 -4 22 2 44 7 49 12 4 4 5 13 2 19 -4
6 -27 11 -51 11 -24 0 -47 5 -50 10 -3 6 -15 10 -26 10 -11 0 -32 6 -47 14
-15 7 -39 16 -54 20z"/>
</g>
<g>
<path d="M5569 7110 c-21 0 -39 -15 -82 -69 -31 -37 -91 -104 -134 -147 -66
-66 -95 -87 -183 -130 -83 -41 -122 -54 -185 -63 -44 -5 -111 -13 -148 -17
-39 -4 -74 -13 -83 -21 -8 -9 -13 -18 -11 -22 1 -3 13 -28 26 -54 12 -27 32
-58 42 -70 11 -12 30 -33 43 -47 12 -14 34 -41 48 -60 14 -19 42 -68 62 -108
20 -39 34 -72 30 -72 -3 0 4 -13 16 -30 11 -16 27 -53 35 -82 9 -35 13 -88 10
-155 -2 -57 -8 -117 -13 -135 -6 -18 -13 -47 -15 -64 -4 -22 0 -38 17 -59 22
-28 24 -28 57 -15 19 8 55 29 82 47 26 18 47 30 47 27 0 -4 8 -1 18 7 9 8 31
22 47 31 17 9 55 26 85 38 42 16 84 22 181 26 126 4 128 4 250 -35 68 -22 146
-49 172 -59 27 -10 72 -36 101 -56 28 -21 62 -53 74 -72 18 -28 29 -34 56 -34
18 0 39 6 45 14 8 10 14 81 17 213 3 109 9 232 15 273 6 41 15 93 22 115 6 22
19 52 29 67 10 14 18 29 18 33 0 3 13 25 29 48 16 23 54 68 84 100 49 52 54
61 48 90 -7 31 -9 32 -71 39 -36 4 -81 11 -100 17 -19 5 -51 12 -70 15 -19 4
-66 12 -105 20 -38 8 -110 28 -159 46 -50 17 -107 40 -127 51 -21 10 -40 23
-44 29 -3 5 -12 10 -19 10 -6 0 -41 28 -76 62 -38 37 -77 88 -97 126 -18 35
-33 73 -33 86 0 12 -5 27 -12 34 -7 7 -24 12 -39 12z m-17 -184 c6 -10 8 -19
6 -21 -2 -2 -10 0 -17 4 -8 5 -10 14 -6 21 6 9 10 8 17 -4z m-74 -56 c4 0 12
-4 18 -8 6 -4 14 -19 18 -34 3 -16 3 -28 -2 -28 -5 0 -19 11 -31 24 -13 14
-20 29 -16 35 3 6 9 11 13 11z m113 -30 c6 0 21 -7 34 -16 14 -9 25 -22 25
-29 0 -7 -15 -15 -32 -18 -18 -2 -36 -3 -39 -1 -3 2 -4 17 -1 34 2 16 8 30 13
30z m-167 -83 c18 -18 56 -40 85 -51 40 -14 66 -17 114 -12 34 4 76 12 93 18
26 9 36 7 75 -18 24 -16 71 -42 104 -59 49 -25 62 -36 69 -64 5 -18 31 -54 57
-80 28 -28 66 -53 95 -63 27 -10 65 -20 84 -23 19 -3 41 -12 48 -19 10 -10 8
-23 -12 -68 -20 -45 -30 -57 -53 -61 -15 -3 -59 -11 -98 -18 -42 -8 -92 -26
-127 -46 -31 -18 -71 -51 -90 -72 -18 -22 -43 -59 -54 -83 -12 -24 -25 -51
-28 -61 -5 -15 -18 -17 -125 -14 -99 2 -123 5 -139 21 -11 10 -32 41 -46 69
-20 42 -36 58 -78 81 -29 16 -78 38 -108 49 -30 11 -81 25 -114 31 l-58 11
-24 59 c-13 33 -24 62 -24 66 0 4 28 36 63 71 34 35 69 78 78 94 8 17 26 66
39 109 21 69 30 83 65 108 22 15 48 34 59 42 16 13 21 11 50 -17z m-282 -124
c4 -2 1 -18 -7 -36 -7 -17 -17 -32 -22 -32 -4 0 -9 14 -11 32 -2 24 1 32 15
35 10 3 21 3 25 1z m-144 -25 c13 1 22 -4 22 -12 0 -7 11 -21 25 -30 15 -10
22 -22 19 -31 -4 -8 -1 -21 5 -29 9 -11 6 -18 -15 -35 -15 -12 -33 -21 -40
-21 -7 0 -15 4 -18 9 -3 5 5 12 18 15 13 3 26 14 28 24 3 11 1 27 -4 36 -5 9
-20 16 -33 16 -13 0 -30 -9 -38 -20 -14 -21 -15 -20 -41 10 -14 17 -26 38 -26
45 0 9 14 15 38 18 20 2 47 4 60 5z m1112 -39 c24 -6 45 -11 46 -12 0 -1 -2
-13 -5 -27 l-7 -24 -39 36 -40 37 45 -10z m132 -19 c5 0 23 -16 42 -35 18 -19
36 -32 39 -29 3 3 8 0 13 -7 5 -9 -5 -11 -45 -6 -28 3 -56 9 -61 12 -6 3 -10
16 -10 29 0 12 3 26 7 29 3 4 10 7 15 7z m-63 -371 c8 1 11 -5 7 -15 -3 -9 -9
-40 -12 -70 -5 -39 -10 -52 -17 -45 -6 6 -23 11 -39 11 -17 0 -31 -7 -37 -19
-8 -14 -7 -22 4 -31 8 -7 31 -10 50 -8 l35 4 0 -104 0 -104 -32 20 c-18 11
-64 30 -103 42 -38 12 -84 29 -100 36 -27 13 -31 20 -33 59 -1 25 2 45 6 45 4
0 16 19 27 41 10 23 21 35 23 28 3 -8 14 -24 25 -36 11 -13 29 -23 39 -23 15
0 18 8 18 50 0 28 -4 50 -10 50 -5 0 -10 4 -10 9 0 5 10 13 23 17 12 4 24 7
27 7 3 1 25 8 50 18 25 9 51 18 59 18z m-1019 -49 c5 0 27 -6 47 -14 21 -8 49
-17 63 -20 14 -3 44 -19 67 -36 24 -18 50 -47 59 -65 9 -19 13 -38 10 -44 -4
-5 -23 -15 -44 -22 -20 -7 -69 -29 -109 -51 -39 -21 -78 -38 -86 -38 -13 0
-15 13 -10 78 3 42 7 79 9 81 2 2 27 4 56 5 52 1 53 1 56 34 2 22 -2 34 -12
38 -9 3 -34 -1 -57 -10 -22 -9 -45 -14 -50 -11 -5 4 -9 22 -9 41 0 19 4 34 10
34z"/>
<g>
<path d="M5419 6710 c-11 0 -33 -14 -49 -32 -21 -22 -28 -38 -24 -54 3 -12 -2
-48 -11 -80 -10 -33 -22 -71 -27 -85 -5 -14 -29 -42 -54 -63 -32 -27 -44 -44
-44 -64 0 -16 5 -33 12 -40 7 -7 31 -12 53 -12 26 0 64 -11 101 -30 32 -16 86
-56 119 -88 33 -32 82 -75 108 -95 27 -21 54 -37 61 -37 7 0 22 8 33 18 10 9
39 44 64 77 24 33 51 66 59 73 8 6 37 23 63 37 32 16 65 25 96 25 26 0 70 7
97 16 27 10 56 24 64 33 8 9 14 25 12 37 -3 18 -13 23 -78 32 -53 7 -83 17
-98 31 -12 12 -27 21 -32 21 -6 0 -24 15 -42 33 -18 18 -32 41 -32 50 0 10 -7
20 -15 23 -8 3 -24 26 -35 50 -16 32 -28 44 -43 44 -12 0 -35 -7 -52 -16 -16
-8 -60 -18 -96 -21 -63 -5 -67 -5 -104 28 -22 19 -50 46 -63 62 -13 15 -33 27
-43 27z m169 -203 c59 2 119 -2 133 -8 14 -6 35 -23 47 -38 l20 -28 -46 9
c-26 4 -59 17 -74 28 -23 17 -39 19 -117 15 -50 -2 -91 0 -91 5 0 4 5 10 10
12 6 2 58 4 118 5z m-193 -80 c6 -2 11 -18 13 -35 3 -28 0 -32 -22 -32 -14 0
-26 4 -26 8 0 4 6 20 13 35 6 15 17 25 22 24z m120 -57 c8 -7 15 -20 15 -30 0
-10 9 -28 19 -41 17 -21 23 -23 49 -13 21 8 45 9 81 1 39 -7 54 -7 67 4 12 10
14 23 10 51 -4 22 -2 38 3 38 6 0 15 -17 20 -37 6 -21 11 -42 11 -48 -1 -5
-12 -18 -25 -28 -14 -10 -31 -15 -37 -11 -7 4 -33 7 -58 6 -25 -2 -61 -5 -81
-8 -29 -4 -42 0 -68 22 -22 18 -30 32 -25 43 4 9 6 27 5 40 -1 20 1 21 14 11z
m355 -20 c6 0 10 -4 10 -10 0 -5 -4 -10 -10 -10 -5 0 -10 5 -10 10 0 6 5 10
10 10z m-191 -156 c3 -3 -2 -11 -10 -19 -9 -9 -19 -11 -29 -5 -12 7 -10 11 10
18 14 5 27 8 29 6z"/>
</g>
<g>
<path d="M6010 5979 c-3 -1 -16 -4 -30 -8 -14 -4 -26 -13 -27 -21 -2 -8 0 -20
5 -26 4 -6 19 -14 34 -17 18 -5 32 -2 42 8 9 9 12 23 9 33 -4 9 -11 20 -17 24
-6 4 -13 7 -16 7z"/>
</g>
<g>
<path d="M5312 5976 c-11 7 -26 8 -40 3 -15 -6 -22 -15 -20 -26 2 -10 14 -19
26 -21 13 -2 30 2 38 8 7 7 14 15 14 19 0 3 -8 11 -18 17z"/>
</g>
</g>
<g>
<path d="M4715 6170 c-14 0 -26 -7 -29 -18 -3 -9 -3 -28 -1 -42 3 -14 7 -61 9
-104 3 -69 7 -82 26 -98 13 -11 30 -17 39 -16 12 3 16 15 15 53 -1 28 -6 82
-12 120 -6 39 -14 78 -18 88 -3 9 -17 17 -29 17z"/>
</g>
<g>
<path d="M4455 6160 c-12 0 -26 -5 -33 -12 -7 -7 -12 -18 -12 -24 0 -7 16 -25
35 -39 19 -15 39 -24 45 -20 5 3 10 21 10 39 0 17 -5 37 -12 44 -7 7 -21 12
-33 12z"/>
</g>
<g>
<path d="M4618 6142 c-13 2 -36 1 -53 -2 -30 -6 -30 -6 -27 -70 1 -48 7 -68
19 -78 10 -7 22 -11 28 -9 5 2 9 20 7 40 -3 28 0 37 12 37 8 0 16 -10 18 -22
2 -15 10 -23 23 -23 16 0 21 8 23 38 2 22 -3 48 -12 61 -8 13 -25 25 -38 28z"/>
</g>
<g>
<path d="M4475 5930 c-24 0 -35 -5 -40 -19 -3 -10 -3 -25 1 -34 3 -9 19 -23
34 -30 15 -8 32 -12 38 -8 5 3 12 16 16 28 4 12 2 31 -4 43 -7 14 -21 20 -45
20z"/>
</g>
<g>
<path d="M6820 6080 c-9 0 -20 -3 -23 -7 -4 -3 -7 -19 -7 -34 0 -18 7 -32 21
-39 11 -7 32 -9 46 -5 21 5 24 10 18 33 -3 15 -13 33 -22 40 -9 6 -24 12 -33
12z"/>
</g>
<g>
<path d="M6623 6050 c-19 0 -28 -10 -45 -47 -13 -31 -21 -71 -22 -113 l-1 -65
33 -3 c30 -3 32 -1 33 30 1 18 4 44 8 58 6 22 8 19 14 -20 4 -31 14 -52 32
-67 14 -13 37 -23 50 -23 13 0 31 10 39 22 9 12 16 38 16 58 0 19 -7 43 -14
53 -7 9 -18 17 -25 17 -6 0 -16 -12 -22 -27 l-11 -28 -13 33 c-8 17 -21 32
-29 32 -8 0 -17 -6 -19 -12 -4 -10 -6 -10 -6 0 -1 7 5 28 13 46 10 25 11 37 3
45 -6 6 -22 11 -34 11z"/>
</g>
<g>
<path d="M6815 5840 c-8 0 -19 -9 -25 -19 -5 -11 -10 -27 -10 -35 0 -8 9 -20
20 -26 12 -6 30 -8 40 -5 11 4 20 11 20 16 0 6 -7 23 -15 39 -9 17 -22 30 -30
30z"/>
</g>
<g>
<path d="M5671 5584 c-42 1 -89 0 -104 -2 -16 -2 -31 -10 -34 -18 -3 -9 2 -23
11 -32 13 -13 35 -17 89 -17 40 0 97 -4 127 -9 49 -7 58 -5 77 13 12 12 20 27
17 35 -3 8 -27 17 -56 21 -28 4 -85 8 -127 9z"/>
</g>
<g>
<path d="M5705 5453 c-20 4 -43 0 -69 -13 -22 -11 -43 -26 -48 -33 -4 -6 -8
-20 -8 -29 0 -9 10 -29 23 -43 16 -18 33 -26 59 -27 24 -1 45 5 58 17 18 17
19 20 5 41 -14 21 -13 24 5 34 11 6 20 14 20 18 0 4 -4 12 -8 18 -4 6 -20 14
-37 17z"/>
</g>
<g>
<path d="M5537 5310 c-2 0 -13 -7 -25 -16 -12 -8 -22 -23 -22 -32 0 -9 7 -25
14 -35 8 -10 22 -20 32 -21 10 -2 26 4 36 13 10 8 18 28 18 43 0 21 -7 31 -26
38 -14 6 -26 10 -27 10z"/>
</g>
<g>
<path d="M5881 5300 c-11 0 -28 -11 -37 -25 -14 -21 -14 -30 -4 -55 8 -20 19
-30 34 -30 12 0 32 7 44 16 14 10 22 25 22 44 0 19 -7 33 -19 40 -11 5 -29 10
-40 10z"/>
</g>
</g>
<g>
<path d="M3971 7060 c-9 0 -21 -4 -27 -8 -6 -4 -11 -32 -11 -62 0 -32 -11 -86
-26 -130 -14 -41 -28 -106 -31 -145 -3 -38 -9 -95 -12 -126 -4 -35 -2 -59 4
-63 6 -3 22 -2 36 3 13 6 29 19 35 29 6 11 13 57 17 103 3 51 17 116 34 164
15 45 31 104 35 134 6 46 4 55 -16 77 -12 13 -30 24 -38 24z"/>
</g>
<g>
<path d="M3460 6627 c-19 2 -43 -2 -52 -8 -10 -5 -18 -18 -18 -28 0 -10 5 -32
11 -49 6 -17 18 -32 27 -34 9 -2 27 1 40 7 12 5 25 20 28 31 3 12 4 35 2 50
-3 25 -8 29 -38 31z"/>
</g>
<g>
<path d="M7754 7098 c-16 2 -35 -3 -42 -10 -6 -6 -12 -20 -12 -31 0 -10 5 -27
10 -38 8 -15 17 -18 38 -13 15 4 32 13 38 21 7 8 9 25 5 41 -6 21 -14 28 -37
30z"/>
</g>
<g>
<path d="M7349 6950 c-10 0 -26 -11 -35 -25 -12 -18 -14 -35 -9 -62 3 -20 18
-59 32 -87 14 -28 43 -100 64 -161 22 -60 45 -113 52 -117 7 -4 15 -8 20 -8 4
0 12 11 16 24 5 13 7 43 4 67 -3 24 -11 58 -19 76 -8 17 -14 39 -14 50 0 10
-11 38 -24 63 -13 25 -29 63 -35 85 -7 22 -17 52 -23 68 -6 16 -18 27 -29 27z"/>
</g>
<g>
<path d="M7731 6840 c-10 0 -24 -7 -31 -14 -6 -8 -11 -32 -10 -53 1 -21 2 -44
1 -50 -1 -7 -7 -13 -15 -13 -7 0 -34 22 -60 50 -46 49 -46 50 -66 30 -11 -11
-20 -32 -20 -47 0 -20 15 -41 57 -80 31 -30 68 -56 81 -60 15 -3 35 0 51 10
14 8 33 28 42 44 9 15 16 50 17 76 1 27 -5 61 -13 77 -9 17 -24 30 -34 30z"/>
</g>
<g>
<path d="M7913 6632 c-14 11 -26 13 -50 7 -28 -8 -31 -12 -26 -42 3 -17 10
-35 16 -39 7 -4 21 -8 33 -8 11 0 25 5 32 12 7 7 12 22 12 33 0 12 -8 29 -17
37z"/>
</g>
<g>
<path d="M4382 5220 c-4 0 -12 -4 -18 -8 -6 -4 -14 -17 -18 -28 -5 -17 1 -28
26 -49 18 -14 40 -32 49 -38 8 -7 29 -22 47 -34 17 -13 34 -23 38 -23 4 0 23
-14 43 -31 20 -17 73 -58 118 -90 47 -34 98 -63 117 -66 27 -4 36 -1 44 13 5
11 6 28 2 40 -4 11 -36 40 -70 65 -34 24 -81 59 -105 77 -24 17 -47 32 -51 32
-4 0 -26 16 -50 35 -23 19 -45 35 -49 35 -3 0 -31 16 -61 35 -30 19 -58 35
-62 35z"/>
</g>
<g>
<path d="M4377 4958 c-17 -1 -41 -4 -52 -6 -11 -2 -30 -13 -42 -24 -12 -11
-25 -32 -28 -47 -4 -17 3 -44 19 -76 13 -28 32 -57 42 -66 11 -9 29 -20 41
-23 12 -4 31 -9 42 -11 16 -3 23 3 27 22 6 22 0 32 -42 69 -42 36 -47 45 -38
61 6 10 21 19 33 21 13 2 39 -8 60 -22 20 -14 43 -26 51 -26 7 0 22 7 31 16
17 16 18 18 2 45 -10 16 -37 37 -65 49 -26 11 -63 20 -81 18z"/>
</g>
<g>
<path d="M4093 4820 c-11 0 -27 -8 -36 -18 -10 -10 -17 -28 -17 -39 0 -12 3
-28 6 -37 4 -11 19 -16 45 -16 28 0 41 5 49 19 5 11 10 28 10 39 0 10 -8 26
-18 35 -10 10 -28 17 -39 17z"/>
</g>
<g>
<path d="M4540 4550 c-9 0 -24 -8 -33 -18 -8 -9 -20 -29 -25 -43 -8 -21 -7
-28 9 -37 10 -7 29 -12 42 -12 13 0 28 5 35 12 7 7 12 26 12 43 0 17 -5 36
-12 43 -7 7 -19 12 -28 12z"/>
</g>
<g>
<path d="M6828 5070 c-18 0 -45 -8 -60 -18 -14 -9 -47 -32 -73 -49 -25 -18
-50 -33 -56 -33 -5 0 -9 -3 -9 -7 0 -5 -23 -21 -52 -38 -28 -16 -68 -47 -90
-67 -21 -20 -47 -39 -57 -43 -10 -3 -24 -16 -31 -29 -7 -14 -10 -32 -7 -40 4
-9 14 -16 24 -16 10 0 37 13 60 28 23 15 100 66 172 115 72 48 134 87 139 87
4 0 21 14 37 30 16 17 31 41 32 55 3 22 0 25 -29 25z"/>
</g>
<g>
<path d="M6680 4808 c-33 3 -42 -3 -98 -62 -47 -49 -62 -71 -62 -94 0 -16 10
-40 23 -54 12 -14 36 -33 53 -41 17 -9 44 -14 58 -11 15 2 45 16 66 29 22 14
44 33 50 44 5 11 10 26 10 34 0 11 -9 14 -37 10 -21 -3 -45 -11 -54 -19 -8 -8
-25 -14 -37 -14 -12 0 -26 9 -33 21 -9 18 -6 26 18 51 15 16 41 37 56 46 18
11 27 24 25 37 -2 15 -12 21 -38 23z"/>
</g>
<g>
<path d="M7039 4720 c-16 0 -33 -8 -42 -20 -7 -11 -12 -33 -9 -50 3 -22 11
-32 29 -36 18 -5 31 0 53 21 15 15 27 33 26 40 -1 7 -8 20 -15 29 -7 9 -26 16
-42 16z"/>
</g>
<g>
<path d="M6558 4460 c-31 0 -40 -5 -47 -22 -4 -12 -6 -30 -4 -39 3 -10 14 -25
24 -35 17 -15 22 -16 45 -4 14 8 30 22 35 32 6 11 5 26 -3 42 -9 21 -18 26
-50 26z"/>
</g>
</g>
<g>
<path d="M2330 6585 c-74 1 -142 1 -150 -1 -8 -1 -49 -7 -90 -14 -41 -6 -118
-25 -170 -41 -52 -17 -126 -43 -165 -57 -38 -15 -84 -36 -102 -47 -18 -11 -72
-42 -120 -70 -55 -32 -119 -81 -175 -134 -49 -47 -114 -123 -146 -170 -32 -47
-72 -113 -89 -146 -17 -33 -40 -89 -51 -125 -12 -36 -26 -90 -32 -120 -6 -30
-18 -84 -26 -120 -8 -36 -19 -85 -24 -110 -5 -25 -12 -56 -15 -70 -2 -14 -9
-47 -14 -75 -5 -27 -8 -90 -6 -140 1 -49 5 -126 9 -170 4 -44 11 -89 16 -100
5 -11 16 -53 25 -94 10 -47 39 -121 82 -205 36 -72 71 -142 76 -156 6 -14 22
-41 36 -60 15 -19 31 -42 36 -51 6 -9 23 -36 39 -60 16 -24 37 -56 48 -71 10
-15 18 -34 18 -43 0 -8 48 -65 108 -126 59 -61 124 -122 144 -135 20 -13 74
-44 120 -69 46 -26 115 -60 153 -77 39 -17 84 -34 100 -38 17 -4 64 -17 105
-28 41 -11 95 -23 119 -27 24 -4 60 -10 80 -13 20 -3 112 -6 205 -7 116 0 198
4 260 15 50 9 101 22 113 28 12 7 30 12 40 12 10 0 61 16 113 36 52 21 107 45
122 55 14 11 33 19 40 19 8 0 44 19 79 41 35 23 93 71 128 108 35 36 87 98
115 136 29 39 62 84 74 101 12 17 42 91 67 165 25 74 47 145 49 159 3 14 12
75 21 135 8 61 17 126 20 145 3 19 0 103 -6 185 -6 83 -17 184 -24 225 -7 41
-18 95 -25 120 -6 25 -31 97 -56 160 -25 63 -61 149 -81 190 -20 41 -57 109
-81 150 -25 41 -65 105 -89 143 -25 37 -50 73 -57 80 -6 6 -38 48 -71 92 -32
44 -84 106 -115 139 -30 32 -80 74 -110 94 -30 20 -86 56 -125 82 -38 25 -92
54 -120 63 -27 10 -59 22 -70 27 -11 4 -40 16 -65 25 -25 9 -70 21 -100 27
-30 6 -116 11 -190 13z m-30 -110 c52 -3 104 -6 115 -8 11 -3 41 -8 67 -11 26
-4 85 -21 130 -37 46 -16 106 -41 133 -55 28 -14 60 -31 72 -38 13 -7 31 -20
40 -28 10 -9 35 -25 55 -35 20 -11 55 -35 78 -54 23 -19 67 -60 97 -91 31 -31
63 -68 72 -81 9 -14 34 -51 55 -83 21 -33 53 -77 70 -99 18 -22 38 -53 46 -70
8 -16 29 -53 47 -82 18 -29 33 -58 33 -65 0 -8 7 -23 15 -34 8 -12 24 -45 35
-74 12 -30 30 -72 40 -95 10 -23 26 -61 35 -86 9 -24 24 -82 34 -129 11 -47
22 -121 26 -165 4 -44 9 -84 12 -88 3 -5 5 -50 4 -100 0 -51 -7 -139 -15 -197
-8 -58 -22 -139 -31 -180 -9 -41 -20 -79 -24 -85 -4 -5 -13 -29 -19 -51 -7
-23 -24 -61 -38 -85 -14 -24 -35 -60 -47 -80 -12 -20 -38 -56 -57 -80 -19 -24
-54 -65 -78 -90 -23 -26 -80 -69 -125 -97 -45 -27 -100 -58 -122 -69 -22 -11
-60 -25 -85 -32 -25 -7 -54 -17 -65 -21 -11 -5 -40 -15 -65 -24 -25 -8 -70
-21 -100 -28 -36 -8 -127 -13 -265 -13 -124 0 -239 5 -280 13 -38 7 -122 28
-185 48 -63 20 -119 40 -125 45 -5 5 -15 9 -22 9 -8 0 -50 21 -96 47 -45 25
-100 58 -122 72 -21 14 -79 65 -127 113 -48 49 -93 99 -100 112 -7 13 -26 48
-42 77 -16 30 -32 56 -35 59 -4 3 -15 18 -26 34 -11 16 -28 41 -38 55 -9 14
-26 46 -38 71 -11 25 -26 56 -32 70 -7 14 -27 52 -45 84 -18 33 -47 105 -63
160 -17 56 -35 130 -40 166 -6 36 -10 83 -9 105 0 22 3 57 6 79 3 21 19 66 35
99 16 33 29 68 29 78 0 9 -7 22 -15 29 -8 6 -19 8 -26 4 -9 -5 -10 3 -5 32 4
21 11 53 16 69 4 17 16 70 25 119 9 50 34 136 56 192 23 57 49 113 60 125 10
12 19 26 19 30 0 4 6 14 13 21 6 7 38 45 70 85 32 39 81 91 110 115 29 25 86
67 127 94 41 28 107 66 145 86 39 20 104 47 145 60 41 14 100 32 130 41 30 9
80 21 110 27 30 5 66 12 80 14 14 2 68 3 120 1z"/>
<g>
<path d="M3213 5670 c-10 0 -24 -9 -30 -19 -7 -11 -10 -29 -8 -41 2 -12 9 -28
14 -34 6 -7 33 -57 61 -112 28 -54 57 -105 65 -113 12 -12 17 -12 39 3 14 9
26 24 26 33 0 9 -27 70 -61 136 -33 66 -67 126 -74 133 -7 8 -22 14 -32 14z"/>
</g>
<g>
<path d="M2926 5639 c-6 -1 -21 -4 -33 -6 -12 -2 -24 -14 -27 -29 -4 -13 -2
-33 3 -43 6 -9 16 -23 24 -30 12 -9 21 -9 41 0 21 10 26 19 26 49 0 20 -5 41
-12 48 -7 7 -17 11 -22 11z"/>
</g>
<g>
<path d="M3093 5570 c-10 0 -29 -7 -41 -16 -12 -8 -22 -24 -22 -34 0 -10 -5
-22 -10 -25 -6 -4 -9 -17 -7 -29 1 -13 15 -40 31 -60 20 -26 34 -36 49 -34 17
2 23 11 25 41 2 21 -1 37 -7 37 -6 0 -11 5 -11 10 0 7 6 7 18 1 9 -5 31 -27
47 -50 17 -22 36 -43 44 -46 8 -3 18 0 22 6 4 6 -3 40 -15 74 -12 35 -28 71
-36 80 -7 9 -26 23 -41 31 -16 8 -36 14 -46 14z"/>
</g>
<g>
<path d="M3128 5158 c-9 7 -23 6 -46 -3 -18 -8 -35 -21 -38 -30 -3 -8 -3 -26
0 -39 3 -14 15 -27 26 -31 11 -3 30 1 45 11 18 12 25 25 25 49 0 18 -6 37 -12
43z"/>
</g>
</g>
<g>
<path d="M9600 6328 c-36 0 -119 -6 -185 -13 -66 -8 -131 -17 -145 -20 -14 -4
-63 -18 -109 -32 -47 -13 -114 -34 -150 -47 -37 -13 -97 -38 -136 -56 -38 -18
-99 -46 -135 -64 -36 -17 -99 -51 -140 -75 -41 -23 -87 -50 -101 -59 -14 -9
-51 -33 -83 -52 -31 -19 -66 -40 -77 -46 -11 -6 -39 -27 -62 -45 -23 -19 -79
-71 -124 -117 -46 -46 -83 -87 -83 -92 0 -6 -19 -36 -43 -67 -24 -32 -53 -74
-65 -93 -12 -19 -35 -60 -52 -90 -17 -30 -44 -80 -61 -110 -17 -30 -49 -109
-71 -174 -22 -66 -41 -127 -43 -135 -2 -9 -11 -45 -20 -81 -9 -36 -18 -74 -20
-85 -2 -11 -8 -42 -13 -70 -6 -27 -13 -86 -17 -130 -4 -44 -2 -127 5 -185 6
-58 13 -116 15 -130 2 -14 11 -68 20 -120 8 -52 22 -113 29 -135 8 -22 18 -56
21 -75 4 -19 23 -71 42 -115 19 -44 45 -101 59 -127 18 -37 24 -64 24 -115 1
-38 7 -85 14 -105 8 -21 55 -82 112 -143 54 -58 117 -116 139 -130 22 -13 56
-39 75 -58 19 -19 52 -52 73 -75 20 -22 37 -45 37 -51 0 -6 24 -26 53 -45 28
-18 104 -58 167 -89 63 -30 142 -65 174 -76 32 -11 63 -18 68 -15 5 3 16 0 24
-7 9 -7 46 -21 83 -31 36 -9 91 -17 121 -17 30 -1 93 6 140 15 47 9 102 20
122 25 20 5 45 17 54 27 9 9 33 17 53 18 20 0 90 4 156 8 93 6 147 15 240 43
66 20 171 60 233 89 62 30 116 54 120 54 4 0 27 10 52 23 25 13 56 30 70 38
14 8 51 34 83 59 32 25 74 57 94 73 20 15 74 66 120 114 47 48 125 141 175
207 50 67 105 153 123 191 18 39 45 101 60 139 15 38 34 92 42 120 8 28 19 67
24 86 5 19 14 76 19 125 5 50 14 124 20 165 6 41 11 125 11 185 0 61 -9 173
-20 250 -11 77 -29 181 -40 231 -11 50 -34 128 -51 175 -18 46 -42 111 -55
144 -13 33 -38 96 -57 140 -18 44 -48 102 -65 128 -18 26 -33 50 -33 52 0 2
-9 14 -20 27 -10 12 -46 57 -79 98 -32 41 -88 104 -123 140 -36 36 -84 82
-106 103 -23 20 -44 37 -48 37 -3 0 -20 11 -37 24 -18 13 -94 58 -169 100 -76
43 -166 87 -200 97 -35 11 -108 27 -163 34 -55 8 -129 14 -165 13z m95 -109
c50 -4 119 -15 154 -24 35 -9 80 -26 100 -37 20 -11 77 -41 126 -67 50 -25
124 -69 165 -97 41 -29 116 -94 165 -146 50 -51 100 -107 113 -123 12 -17 50
-66 83 -110 34 -44 74 -108 90 -142 16 -34 29 -66 29 -70 0 -4 14 -35 30 -68
16 -33 30 -65 30 -71 0 -7 11 -36 24 -65 14 -30 36 -97 49 -149 14 -52 32
-135 40 -185 9 -49 21 -135 27 -190 6 -55 8 -129 5 -165 -3 -36 -10 -114 -16
-175 -6 -60 -19 -157 -29 -215 -11 -61 -33 -142 -55 -195 -20 -49 -43 -110
-52 -135 -8 -25 -39 -79 -67 -121 -28 -42 -77 -110 -108 -150 -31 -41 -92
-110 -135 -154 -43 -44 -100 -98 -127 -120 -27 -22 -94 -68 -148 -102 -55 -34
-122 -70 -149 -79 -27 -10 -49 -22 -49 -26 0 -4 -9 -8 -19 -8 -11 0 -23 -4
-26 -10 -3 -5 -17 -10 -30 -10 -13 0 -26 -4 -29 -9 -3 -5 -30 -15 -58 -22 -29
-7 -59 -12 -65 -12 -7 0 -13 -4 -13 -8 0 -3 -15 -10 -32 -13 -18 -4 -82 -13
-143 -21 -71 -9 -200 -14 -365 -14 -140 1 -275 5 -300 11 -25 5 -58 14 -75 20
-16 6 -94 42 -173 80 -78 39 -148 76 -155 82 -7 7 -44 33 -83 59 -39 25 -90
56 -113 67 -23 12 -51 35 -64 52 -12 16 -38 48 -58 71 -20 23 -47 63 -61 88
-14 25 -45 77 -69 115 -23 38 -56 94 -73 124 -16 30 -42 79 -58 109 -15 30
-28 59 -28 66 0 7 -9 33 -21 59 -11 26 -26 70 -34 99 -7 29 -18 82 -24 118 -6
37 -20 137 -30 222 -16 127 -18 174 -10 254 5 54 13 107 18 118 6 11 14 36 20
55 6 19 13 51 16 70 3 19 10 54 16 78 7 23 16 45 20 48 5 3 9 16 9 30 0 14 14
62 31 107 18 45 40 94 50 108 10 14 16 28 13 31 -2 3 2 11 11 18 8 7 15 20 15
30 0 10 6 23 14 29 8 7 34 42 57 79 24 37 68 99 99 137 30 39 82 96 115 128
33 32 72 66 88 75 15 9 27 20 27 24 0 4 7 8 16 8 9 0 35 15 58 32 22 18 43 35
46 38 3 4 33 23 66 43 34 20 131 71 215 112 85 42 162 80 171 85 9 5 43 18 75
29 32 10 97 31 144 45 48 14 96 26 106 26 11 0 23 3 26 6 4 4 23 9 44 11 21 2
83 7 138 11 55 4 141 4 190 1z"/>
<g>
<path d="M8272 5445 c-12 2 -28 -6 -40 -18 -11 -12 -31 -42 -45 -67 -13 -25
-36 -67 -51 -93 -14 -26 -26 -52 -26 -58 0 -5 -23 -57 -50 -114 -28 -58 -54
-116 -59 -129 -7 -17 -5 -30 5 -45 8 -11 21 -21 29 -21 7 0 27 18 43 40 16 22
51 84 77 138 26 53 53 108 59 122 6 14 27 53 47 86 20 34 41 74 46 91 8 21 7
34 -2 46 -7 10 -22 19 -33 22z"/>
</g>
<g>
<path d="M8700 5308 c-15 2 -34 -6 -48 -18 -13 -12 -22 -33 -22 -50 0 -24 6
-30 35 -40 19 -6 43 -9 54 -5 10 3 21 18 24 33 3 15 0 38 -6 52 -7 15 -22 26
-37 28z"/>
</g>
<g>
<path d="M8312 5180 c-9 0 -26 -6 -37 -12 -11 -6 -33 -25 -48 -42 -15 -17 -30
-40 -32 -51 -2 -11 -7 -38 -11 -60 -4 -22 -8 -51 -9 -65 -1 -14 8 -35 21 -49
19 -21 33 -25 78 -25 51 -1 58 2 96 39 23 23 45 55 51 77 7 26 6 44 -1 58 -6
11 -17 20 -26 20 -8 0 -26 -11 -39 -25 -14 -13 -25 -31 -25 -39 0 -8 -9 -17
-20 -21 -11 -3 -24 -3 -30 0 -5 3 -10 13 -10 22 0 8 16 46 36 83 20 38 33 74
29 79 -3 6 -14 11 -23 11z"/>
</g>
<g>
<path d="M8398 4759 c-2 0 -10 -3 -18 -6 -8 -4 -22 -16 -32 -27 -9 -12 -17
-30 -17 -41 0 -11 11 -28 25 -38 17 -13 33 -17 55 -12 18 4 34 16 38 28 5 12
4 34 -1 50 -6 15 -18 32 -28 37 -10 6 -20 10 -22 9z"/>
</g>
</g>
<g>
<path d="M5208 3969 c-200 -1 -220 -2 -328 -29 -63 -16 -123 -29 -132 -30 -10
0 -42 -11 -72 -25 -30 -14 -59 -25 -65 -25 -6 0 -35 -11 -65 -25 -30 -14 -57
-25 -61 -25 -3 0 -31 -17 -63 -37 -31 -20 -88 -57 -127 -82 -38 -24 -97 -67
-130 -94 -33 -27 -111 -99 -174 -160 -62 -61 -138 -145 -169 -186 -31 -42 -90
-128 -132 -191 -42 -63 -92 -149 -112 -190 -20 -41 -48 -100 -61 -131 -14 -31
-32 -85 -41 -120 -8 -35 -15 -98 -15 -139 0 -41 -2 -86 -6 -100 -3 -14 -8 -99
-11 -190 -6 -165 -6 -165 24 -250 17 -47 44 -122 60 -167 16 -46 52 -121 80
-167 29 -47 52 -89 52 -95 0 -6 4 -11 9 -11 5 0 12 -8 15 -18 3 -9 57 -68 118
-129 62 -61 134 -131 159 -155 25 -23 74 -68 108 -98 35 -30 75 -62 88 -72 14
-9 60 -33 102 -53 42 -21 99 -48 126 -61 28 -14 103 -42 168 -64 74 -25 154
-44 210 -50 51 -6 153 -18 227 -28 81 -10 202 -17 300 -17 91 0 217 6 280 13
63 7 124 15 135 17 11 2 45 9 75 15 30 6 69 16 85 22 17 5 39 14 50 18 11 5
52 22 90 40 39 17 106 49 150 71 44 21 130 77 190 124 61 46 129 105 152 130
22 25 67 80 100 122 32 42 65 87 73 99 8 12 35 53 61 90 25 38 53 89 63 114
10 25 21 50 26 55 4 6 15 35 25 65 9 30 27 96 40 145 13 50 26 110 30 135 3
25 8 52 11 61 2 8 11 62 18 120 9 64 13 155 10 239 -2 74 -8 171 -14 215 -5
44 -11 87 -13 95 -2 8 -7 29 -11 45 -4 17 -12 48 -17 70 -6 22 -23 67 -39 100
-15 33 -35 66 -44 74 -9 7 -16 21 -16 30 0 9 -18 43 -40 76 -22 33 -40 66 -40
73 0 7 -19 33 -42 58 -24 25 -75 79 -114 120 -39 41 -76 74 -82 74 -6 0 -15 6
-19 13 -4 8 -35 33 -67 58 -32 24 -68 51 -80 60 -12 9 -37 26 -56 38 -19 12
-44 24 -55 28 -11 4 -49 22 -85 41 -36 19 -81 42 -100 52 -19 9 -53 23 -75 30
-21 7 -71 28 -110 46 -38 18 -106 44 -150 57 -44 14 -121 34 -172 46 -79 18
-122 21 -305 20z m2 -104 c124 -2 236 -7 250 -13 14 -5 46 -12 71 -16 25 -4
58 -9 72 -11 14 -3 47 -14 72 -25 26 -11 53 -20 62 -20 8 0 33 -13 56 -29 23
-15 47 -26 53 -24 7 2 29 -8 49 -22 21 -14 43 -25 49 -25 6 0 66 -27 133 -59
66 -33 124 -65 128 -71 4 -6 43 -36 87 -67 45 -31 127 -102 183 -158 77 -77
116 -126 160 -200 32 -54 77 -137 101 -184 24 -47 48 -106 54 -131 6 -25 18
-79 26 -120 8 -41 17 -138 19 -215 1 -79 -3 -193 -11 -260 -7 -66 -18 -151
-24 -190 -6 -38 -15 -74 -20 -79 -6 -6 -10 -23 -10 -38 0 -16 -12 -66 -26
-111 -16 -49 -53 -125 -93 -190 -36 -59 -73 -118 -81 -131 -8 -13 -35 -52 -59
-87 -24 -35 -60 -82 -79 -103 -20 -22 -74 -72 -121 -110 -47 -39 -132 -99
-189 -133 -56 -34 -126 -69 -155 -79 -28 -9 -56 -20 -62 -24 -5 -4 -41 -16
-80 -28 -38 -12 -108 -28 -155 -36 -47 -8 -159 -19 -250 -24 -91 -5 -185 -10
-210 -11 -25 0 -81 6 -125 14 -44 7 -132 19 -195 25 -63 7 -137 16 -165 20
-27 5 -93 24 -145 43 -52 19 -113 44 -135 55 -22 11 -66 32 -98 47 -32 15 -81
42 -109 60 -27 18 -80 60 -116 92 -37 32 -107 99 -157 148 -49 50 -114 118
-143 151 -29 34 -73 94 -98 135 -25 41 -49 81 -54 89 -4 8 -15 31 -23 50 -8
19 -23 53 -32 75 -9 22 -18 49 -21 59 -2 11 -11 42 -21 70 -15 42 -18 81 -16
224 1 116 7 197 18 250 9 42 23 91 30 107 7 17 18 57 25 90 6 33 13 71 16 84
3 14 25 64 50 111 24 47 44 89 44 93 0 4 18 30 40 59 22 29 40 56 40 60 0 4
16 29 36 55 19 27 42 56 50 66 8 9 14 21 14 25 0 4 71 77 158 163 86 86 180
171 207 190 28 18 52 35 55 39 3 3 28 22 56 41 28 20 84 52 125 71 41 20 103
47 139 61 36 14 124 43 195 65 l130 39 225 -2z"/>
<g>
<path d="M5230 3653 c-41 2 -84 2 -95 0 -11 -3 -23 -10 -27 -17 -4 -6 -8 -21
-8 -33 0 -12 6 -25 12 -29 7 -5 47 -9 88 -10 41 -1 95 -7 120 -13 25 -6 81
-10 125 -10 44 1 91 4 105 8 17 5 26 15 28 32 2 21 -4 29 -36 43 -28 13 -59
17 -103 15 -35 -1 -80 0 -99 4 -19 3 -69 8 -110 10z"/>
</g>
<g>
<path d="M5308 3490 c-19 0 -29 -7 -34 -22 -5 -16 -1 -27 16 -40 12 -10 33
-18 45 -18 13 0 36 -5 51 -10 26 -10 26 -11 9 -30 -13 -14 -31 -20 -60 -20
-38 0 -44 -3 -49 -25 -4 -14 -4 -30 -1 -35 4 -6 28 -10 54 -10 27 0 63 3 81 6
17 4 47 21 66 39 26 25 34 40 34 67 0 21 -7 41 -18 51 -9 9 -51 23 -92 31 -41
9 -87 16 -102 16z"/>
</g>
<g>
<path d="M4938 3260 c-8 0 -21 -9 -31 -20 -9 -11 -17 -34 -17 -50 0 -19 7 -33
19 -40 11 -5 28 -10 39 -10 11 0 31 9 45 20 14 11 24 28 22 38 -2 9 -4 20 -4
24 -1 4 -14 14 -31 23 -16 8 -35 15 -42 15z"/>
</g>
<g>
<path d="M5640 3190 c-14 0 -31 -5 -38 -12 -7 -7 -12 -26 -12 -43 0 -17 5 -36
12 -43 7 -7 24 -12 38 -12 14 0 36 7 48 16 12 8 22 24 22 34 0 11 -10 28 -22
40 -12 11 -34 20 -48 20z"/>
</g>
</g>
</g>
</svg>
