<?xml version="1.0" standalone="no"?>
<!DOCTYPE svg PUBLIC "-//W3C//DTD SVG 20010904//EN"
 "http://www.w3.org/TR/2001/REC-SVG-20010904/DTD/svg10.dtd">
<svg version="1.0" xmlns="http://www.w3.org/2000/svg"
 width="1508.000000pt" height="2011.000000pt" viewBox="0 0 1508.000000 2011.000000"
 preserveAspectRatio="xMidYMid meet">
<metadata>
Created by potrace 1.16, written by Peter Selinger 2001-2019
</metadata>
<g transform="translate(0.000000,2011.000000) scale(0.100000,-0.100000)"
fill="#000000" stroke="none">
<g>
<path d="M8445 19178 c-44 -1 -105 -5 -135 -9 -30 -4 -111 -10 -180 -13 -69
-3 -141 -8 -160 -11 -19 -3 -53 -7 -75 -10 -22 -3 -59 -8 -81 -10 -23 -3 -53
-8 -65 -12 -13 -3 -71 -11 -129 -17 -58 -6 -110 -14 -116 -18 -6 -4 -31 -12
-55 -18 -24 -6 -53 -12 -64 -14 -11 -2 -33 -9 -48 -15 -16 -6 -42 -11 -58 -11
-17 0 -38 -4 -47 -9 -9 -5 -60 -17 -112 -26 -52 -9 -124 -23 -160 -30 -36 -7
-78 -18 -95 -23 -16 -6 -52 -18 -80 -26 -27 -8 -90 -29 -139 -46 -48 -17 -98
-37 -109 -45 -12 -8 -31 -15 -42 -15 -11 0 -33 -7 -49 -15 -15 -8 -36 -15 -45
-15 -9 0 -21 -4 -27 -8 -5 -5 -103 -5 -219 0 -115 4 -239 10 -275 13 -36 2
-87 7 -115 11 -27 3 -169 9 -315 11 -146 3 -287 5 -315 5 -27 0 -108 0 -180 0
-71 0 -177 0 -235 1 -58 0 -229 -3 -380 -7 -243 -7 -285 -6 -353 9 -42 9 -84
14 -92 11 -9 -3 -15 -18 -15 -36 0 -17 -4 -39 -9 -48 -5 -10 -11 -98 -12 -197
-2 -113 -10 -214 -20 -270 -9 -49 -15 -93 -13 -97 2 -3 -1 -64 -7 -135 -5 -70
-14 -137 -19 -148 -5 -11 -13 -81 -19 -155 -6 -74 -13 -233 -16 -353 -3 -120
-10 -229 -15 -242 -5 -14 -10 -159 -10 -323 0 -163 0 -324 -1 -356 0 -33 -6
-71 -14 -85 -7 -14 -37 -74 -64 -132 -28 -59 -51 -111 -51 -117 0 -6 -4 -12
-8 -14 -4 -1 -19 -23 -34 -48 -14 -25 -31 -62 -38 -83 -7 -22 -18 -51 -26 -65
-8 -15 -14 -35 -14 -44 0 -10 -13 -39 -29 -65 -16 -27 -36 -75 -46 -108 -9
-33 -23 -78 -30 -100 -7 -22 -21 -67 -31 -100 -10 -33 -17 -73 -17 -90 1 -16
-3 -41 -8 -55 -4 -14 -11 -36 -13 -50 -3 -14 -13 -49 -24 -78 -10 -28 -22 -55
-25 -59 -4 -3 -7 -14 -7 -24 0 -10 -5 -30 -12 -46 -6 -15 -13 -39 -15 -53 -2
-14 -8 -29 -14 -34 -5 -6 -9 -26 -9 -46 0 -20 -7 -63 -16 -95 -10 -38 -17
-119 -20 -220 -3 -101 1 -213 11 -305 8 -80 19 -165 24 -190 5 -25 14 -79 21
-120 7 -41 18 -86 25 -100 7 -14 16 -41 20 -60 4 -19 16 -51 26 -71 10 -20 20
-47 23 -60 3 -13 14 -46 25 -74 11 -27 31 -70 43 -95 13 -25 50 -90 81 -145
32 -55 63 -109 70 -120 6 -10 26 -39 43 -65 16 -25 41 -64 54 -87 13 -24 27
-43 31 -43 3 0 16 -22 27 -48 12 -27 24 -64 28 -83 3 -19 5 -72 4 -119 -1 -47
-2 -96 -2 -110 1 -14 1 -154 1 -312 1 -182 -6 -405 -19 -610 -11 -178 -23
-341 -26 -363 -3 -22 -7 -46 -10 -54 -3 -8 -7 -73 -10 -145 -3 -72 -10 -174
-15 -226 -5 -52 -13 -123 -17 -158 -7 -52 -4 -73 15 -125 12 -34 23 -76 23
-94 0 -22 6 -36 21 -43 16 -9 19 -17 14 -40 -5 -22 -2 -31 12 -38 10 -4 142
-7 293 -6 151 1 327 5 390 8 63 3 156 11 205 16 50 6 162 22 250 36 88 14 214
29 280 34 66 5 161 11 210 14 50 3 122 8 160 11 39 3 111 8 160 11 50 3 151 8
225 11 l135 5 84 -86 c46 -47 87 -86 91 -86 4 0 23 -17 42 -37 19 -21 70 -69
113 -108 44 -38 86 -77 94 -85 9 -8 81 -70 161 -137 80 -67 156 -132 170 -145
14 -13 51 -43 82 -66 31 -23 68 -53 82 -67 15 -15 21 -27 14 -31 -5 -3 -33 -7
-61 -8 -29 -2 -83 -8 -122 -14 -38 -6 -124 -19 -190 -28 -66 -9 -167 -18 -225
-20 -58 -2 -197 -12 -310 -21 -113 -8 -254 -17 -315 -18 -60 -2 -177 1 -260 6
-82 5 -316 11 -520 14 -203 2 -417 7 -475 10 -58 3 -118 8 -135 10 -16 3 -53
10 -81 16 -45 9 -57 7 -92 -11 -22 -12 -43 -28 -46 -36 -3 -8 -1 -60 5 -115 5
-55 8 -103 5 -107 -3 -5 2 -71 9 -148 8 -76 15 -157 16 -179 1 -22 -2 -51 -7
-65 -4 -14 -8 -142 -9 -285 -1 -143 -5 -404 -9 -580 -4 -176 -11 -380 -16
-454 -5 -79 -6 -152 0 -175 4 -23 9 -315 9 -651 0 -335 2 -632 4 -660 2 -27 1
-85 -4 -128 -6 -61 -13 -86 -33 -112 -14 -18 -33 -41 -42 -50 -10 -9 -34 -42
-55 -73 -21 -31 -54 -79 -73 -105 -18 -27 -43 -58 -53 -70 -11 -12 -37 -51
-58 -86 -21 -36 -46 -72 -54 -81 -9 -9 -26 -31 -39 -48 -12 -17 -22 -34 -22
-38 0 -4 -16 -31 -35 -60 -19 -29 -35 -55 -35 -58 0 -3 -16 -30 -35 -60 -19
-30 -35 -59 -35 -63 0 -4 -18 -28 -40 -52 -22 -25 -40 -50 -40 -57 0 -6 -18
-41 -40 -75 -22 -35 -43 -71 -46 -79 -3 -8 -10 -24 -17 -35 -6 -11 -17 -32
-24 -47 -8 -15 -18 -30 -24 -33 -5 -4 -9 -14 -10 -23 0 -9 -11 -37 -24 -62
-13 -25 -35 -70 -50 -100 -15 -30 -31 -73 -36 -95 -4 -22 -20 -76 -35 -120
-14 -44 -30 -89 -34 -100 -5 -11 -14 -40 -20 -65 -7 -25 -16 -76 -21 -115 -4
-38 -13 -92 -20 -120 -6 -27 -13 -72 -15 -100 -3 -27 -5 -113 -5 -190 0 -77 0
-172 1 -212 0 -40 5 -75 10 -78 6 -3 10 -22 10 -41 0 -19 5 -34 11 -34 6 0 9
-6 6 -14 -3 -8 4 -43 15 -78 11 -34 27 -77 34 -95 8 -17 14 -36 14 -42 0 -6 4
-19 9 -29 5 -9 26 -53 47 -97 20 -44 40 -87 45 -95 5 -8 16 -31 25 -50 8 -19
20 -42 25 -50 5 -8 24 -41 44 -73 19 -32 35 -64 35 -71 0 -8 7 -19 15 -26 8
-7 15 -16 15 -20 0 -5 22 -46 48 -92 27 -46 55 -94 63 -108 8 -14 22 -36 31
-49 10 -13 18 -32 18 -42 0 -11 3 -19 8 -19 4 0 21 -26 37 -58 17 -31 36 -61
43 -65 6 -4 12 -13 12 -18 0 -6 19 -38 43 -72 24 -34 46 -69 50 -77 4 -8 23
-35 42 -60 19 -25 49 -65 66 -90 18 -25 51 -63 73 -85 23 -22 86 -81 141 -132
55 -50 123 -109 150 -132 28 -22 86 -72 130 -111 44 -39 141 -117 216 -175 75
-57 140 -101 144 -97 3 4 11 -1 16 -10 5 -9 39 -36 76 -61 38 -25 79 -55 93
-68 13 -13 33 -30 45 -36 11 -7 34 -19 50 -27 17 -8 41 -26 53 -39 13 -14 34
-28 47 -31 12 -3 49 -21 81 -39 33 -18 75 -39 94 -46 19 -8 46 -25 60 -38 14
-12 48 -30 75 -39 28 -9 55 -22 60 -29 6 -6 35 -20 65 -29 30 -9 63 -21 72
-27 10 -5 28 -9 41 -9 13 0 27 -4 33 -9 5 -4 49 -18 99 -30 49 -12 94 -26 100
-31 5 -4 42 -13 80 -19 39 -5 106 -17 150 -25 44 -9 100 -21 125 -26 25 -6 76
-15 113 -20 38 -5 73 -12 78 -16 5 -3 38 -10 72 -16 34 -5 125 -12 202 -13 77
-2 198 -6 268 -9 96 -5 144 -2 193 9 36 8 96 15 134 15 38 0 91 4 117 9 26 5
86 15 133 22 47 6 92 16 100 20 8 4 47 13 85 19 39 6 79 12 90 14 11 2 43 10
70 18 28 9 70 25 95 36 25 11 61 24 80 28 19 3 41 10 50 14 8 4 31 14 50 22
19 9 49 18 66 22 16 4 52 18 79 31 26 14 56 25 66 25 10 0 20 4 24 9 3 5 18
12 34 16 16 3 32 13 35 21 3 8 13 14 22 14 9 0 30 8 47 17 18 10 39 23 47 29
8 6 31 17 50 24 19 7 47 22 62 32 14 10 34 18 43 18 9 0 46 18 83 40 37 22 87
52 112 67 25 15 49 26 53 25 5 -1 35 18 68 43 32 25 65 45 72 45 8 0 24 12 38
26 13 15 39 33 57 40 17 8 32 19 32 24 0 6 7 10 16 10 9 0 25 11 36 25 11 14
25 25 33 25 7 0 15 3 17 8 2 4 39 34 83 66 44 33 82 63 83 68 2 4 9 8 16 8 7
0 22 13 34 29 11 16 43 43 69 60 26 17 57 45 68 61 11 17 27 32 35 35 8 3 43
31 77 64 34 32 68 61 77 64 8 3 23 19 33 34 9 15 45 60 79 98 33 39 65 77 70
86 5 9 30 41 56 70 26 30 54 62 62 71 8 9 20 27 27 40 6 13 18 30 25 38 7 8
31 36 53 61 23 25 41 49 41 52 0 3 18 32 40 63 22 32 40 63 40 70 0 7 6 17 14
21 7 4 21 23 31 42 9 19 32 55 50 81 18 25 55 83 84 129 28 45 51 89 51 96 0
8 5 17 10 20 6 4 27 41 47 83 20 42 41 80 46 83 5 4 52 9 105 13 54 3 194 6
312 6 118 0 236 -3 263 -6 26 -4 47 -10 47 -14 0 -3 15 -7 33 -8 17 -1 53 -5
78 -8 39 -5 50 -2 74 19 24 21 28 31 28 78 0 30 -5 122 -11 204 -7 83 -14 335
-17 560 -3 226 -5 416 -4 423 0 6 1 38 2 70 0 31 -3 176 -7 322 -4 146 -10
576 -12 955 -3 380 -4 703 -4 718 0 16 1 31 2 35 1 4 -1 27 -5 52 -3 25 -9
115 -11 200 -3 85 -10 229 -15 320 -6 91 -13 253 -17 360 -4 107 -11 371 -15
585 -5 215 -14 469 -19 565 -6 96 -13 310 -16 475 -3 165 -5 345 -4 400 0 55
8 165 16 245 8 80 19 161 24 180 5 19 14 79 20 134 6 54 12 102 15 106 2 4 5
24 6 46 1 21 7 82 15 134 7 52 15 158 18 235 3 77 8 168 12 201 l7 62 -32 7
c-17 3 -33 11 -36 16 -4 5 -21 9 -40 9 -19 0 -36 -4 -39 -9 -3 -4 -33 -11 -66
-14 -34 -4 -93 -1 -133 5 -40 7 -92 12 -117 12 -25 -1 -101 -4 -170 -9 -84 -5
-166 -4 -245 5 -66 6 -123 14 -127 16 -4 3 10 23 30 46 20 22 58 64 83 92 26
28 94 101 152 161 58 61 129 140 159 176 29 36 80 99 112 140 33 41 77 93 98
116 21 24 38 48 38 54 0 6 18 31 40 56 22 25 40 50 40 55 0 6 14 27 30 48 17
21 30 41 30 44 0 3 14 20 30 38 17 17 30 35 30 40 0 5 10 23 23 41 12 17 30
40 40 52 10 11 25 34 32 52 7 17 32 59 54 93 23 34 44 72 47 85 3 13 13 30 21
36 8 7 27 40 42 73 16 34 54 99 85 145 31 47 64 98 72 115 8 17 22 45 31 61 8
17 44 74 79 128 35 53 64 101 64 105 0 4 16 31 35 61 19 29 35 58 35 65 0 6
11 27 24 46 12 19 28 52 35 72 7 20 19 42 27 48 7 7 14 18 14 24 0 6 11 28 25
47 13 20 21 39 18 43 -3 3 -1 11 5 18 5 7 20 42 32 78 12 36 26 85 31 110 5
25 11 57 13 73 3 15 12 53 20 85 8 31 22 162 32 291 9 129 17 329 18 445 0
119 -5 246 -12 291 -7 44 -16 123 -21 175 -6 52 -12 174 -16 270 -3 96 -10
218 -16 270 -5 52 -15 122 -23 155 -8 33 -22 96 -31 140 -10 44 -23 103 -31
130 -8 28 -16 111 -18 186 -4 131 -5 138 -45 230 -22 51 -52 141 -66 199 -15
57 -37 125 -50 150 -12 25 -28 62 -35 83 -7 21 -22 55 -34 76 -11 20 -30 48
-41 62 -11 13 -32 32 -48 42 -15 10 -52 43 -84 73 -31 31 -91 99 -134 152 -44
53 -79 101 -79 106 0 5 -16 27 -35 50 -19 22 -52 60 -73 84 -20 24 -41 52 -46
63 -5 10 -12 19 -16 19 -4 0 -20 19 -36 43 -16 23 -56 74 -89 113 -33 39 -80
94 -105 124 -25 29 -85 98 -133 154 -49 56 -92 110 -96 121 -4 11 -6 49 -4 85
1 36 6 106 10 155 5 50 8 189 7 310 -1 121 -5 286 -7 368 -5 144 -6 148 -34
182 l-28 34 -145 -1 c-80 0 -185 -5 -235 -10 -49 -4 -133 -13 -185 -19 -52 -5
-153 -14 -225 -19 -71 -6 -197 -15 -280 -21 -82 -6 -168 -12 -190 -14 -22 -1
-89 1 -149 6 -60 5 -118 14 -130 22 -11 7 -48 23 -81 36 -33 12 -71 27 -85 33
-14 6 -38 16 -55 24 -16 8 -61 21 -100 29 -38 8 -101 21 -139 30 -37 8 -72 17
-76 20 -5 3 -57 12 -117 20 -59 8 -157 21 -218 30 -60 8 -146 14 -190 13z
m-348 -144 c13 -1 28 -6 34 -10 6 -3 63 -5 128 -3 64 1 150 3 191 3 58 0 84
-5 116 -22 23 -11 54 -24 70 -27 16 -3 61 -6 99 -5 39 0 97 -5 130 -11 33 -5
71 -12 85 -14 14 -1 54 -8 90 -15 36 -6 112 -23 169 -37 57 -14 126 -38 153
-54 27 -16 53 -29 59 -29 5 0 26 -11 47 -24 20 -13 45 -33 54 -45 10 -12 27
-21 37 -21 11 0 22 -4 25 -9 3 -5 32 -24 64 -42 31 -18 91 -50 132 -72 41 -22
79 -45 85 -53 5 -7 28 -24 51 -36 22 -13 60 -36 83 -51 23 -15 59 -38 79 -49
20 -12 66 -37 101 -55 36 -18 72 -33 81 -33 9 0 43 -7 75 -15 37 -10 68 -24
80 -39 11 -13 38 -33 60 -44 22 -12 58 -39 80 -61 22 -21 45 -45 51 -53 7 -7
27 -27 46 -45 19 -18 41 -45 47 -61 9 -22 21 -32 45 -36 22 -4 47 -24 83 -64
28 -31 71 -78 96 -103 l44 -46 6 -104 c3 -57 4 -106 2 -107 -2 -2 -20 9 -39
24 -19 16 -43 42 -52 59 -9 17 -39 44 -65 59 -33 18 -56 40 -69 66 -11 22 -32
47 -46 57 -14 10 -55 43 -90 73 -35 30 -80 68 -100 84 -20 17 -41 40 -47 53
-6 13 -28 29 -56 39 -25 10 -51 23 -57 31 -6 7 -16 13 -23 13 -6 0 -41 28 -77
62 -36 35 -87 75 -113 89 -26 15 -62 30 -79 34 -17 3 -51 26 -74 49 -28 28
-61 49 -95 60 -29 10 -53 21 -53 25 0 3 -15 14 -32 22 -18 9 -46 22 -61 30
-16 7 -33 21 -38 30 -5 10 -23 26 -41 37 -18 11 -55 25 -83 31 -27 7 -52 16
-55 19 -3 4 -22 15 -42 26 -20 10 -46 27 -56 36 -10 10 -34 21 -53 25 -19 4
-51 16 -72 26 -21 10 -62 22 -90 28 -29 6 -72 13 -97 16 -25 4 -72 13 -105 21
-33 8 -98 17 -145 20 -47 3 -92 8 -100 11 -8 4 -24 8 -35 9 -11 1 -51 6 -90 9
-38 4 -87 15 -109 26 -34 16 -53 18 -125 13 -47 -4 -144 -8 -216 -9 -86 -1
-142 -7 -165 -16 -19 -8 -48 -22 -65 -30 -16 -8 -36 -14 -42 -13 -7 1 -14 2
-15 4 -2 1 -19 4 -38 6 -19 2 -55 7 -80 11 -25 3 -47 7 -50 8 -3 1 -21 5 -40
9 -19 4 -62 9 -95 12 -33 2 -69 5 -80 5 -11 1 -40 -2 -65 -5 -25 -4 -79 -14
-120 -24 -41 -9 -81 -22 -88 -29 -7 -7 -19 -13 -25 -14 -7 -1 -129 -2 -272 -3
-143 -1 -268 -6 -279 -11 -14 -6 -18 -5 -14 5 2 7 22 20 44 27 21 8 73 24 114
35 41 11 98 26 125 33 28 6 72 22 98 34 37 17 94 27 230 41 100 10 220 22 267
26 47 4 105 8 130 8 25 -1 66 -2 92 -4 27 -1 54 2 61 8 7 6 55 20 107 32 52
12 106 25 120 29 14 5 35 7 47 5z m2727 -209 c54 -2 103 -8 108 -13 6 -6 12
-24 14 -41 2 -17 8 -115 13 -219 5 -103 8 -250 5 -327 -2 -77 -5 -149 -7 -160
-2 -11 -11 -21 -20 -23 -10 -2 -62 39 -132 104 -63 59 -132 119 -153 133 -21
14 -58 42 -83 62 -24 20 -75 56 -113 79 -38 24 -80 54 -94 67 -14 13 -31 23
-39 23 -7 0 -31 11 -53 25 -22 14 -40 29 -40 34 0 4 -37 27 -82 51 -46 23 -90
49 -99 56 -8 8 -31 19 -50 25 -19 7 -50 24 -69 38 l-35 26 130 8 c72 4 172 9
223 11 51 2 141 9 200 15 59 7 145 16 192 21 47 5 129 7 184 5z m-2044 -144
c30 -2 111 -21 180 -44 69 -22 127 -43 130 -47 3 -4 20 -11 39 -15 19 -4 50
-16 68 -26 19 -11 61 -30 94 -43 32 -14 71 -33 86 -44 16 -11 39 -23 53 -27
14 -4 39 -18 55 -30 17 -12 65 -40 108 -61 42 -21 77 -42 77 -46 0 -4 5 -8 11
-8 7 0 37 -17 68 -37 31 -21 79 -50 106 -66 28 -15 58 -30 68 -34 9 -3 17 -9
17 -13 0 -4 14 -13 30 -20 17 -7 30 -16 30 -21 0 -5 6 -9 13 -9 7 0 22 -8 33
-18 10 -10 48 -36 84 -57 36 -22 103 -69 150 -105 47 -35 137 -117 200 -180
64 -63 165 -168 225 -233 60 -65 112 -123 116 -128 3 -6 32 -38 65 -73 l59
-62 11 -90 c6 -51 10 -188 8 -324 -2 -129 -6 -332 -9 -450 -4 -118 -8 -264
-10 -325 -2 -60 -9 -164 -15 -230 -7 -66 -13 -178 -15 -250 -3 -71 -7 -263
-10 -425 -4 -162 -5 -329 -4 -370 1 -41 3 -122 5 -180 2 -58 3 -366 3 -685 0
-319 0 -584 -1 -590 0 -5 3 -55 6 -110 4 -55 7 -199 7 -320 0 -121 4 -283 9
-359 6 -77 13 -163 16 -192 l7 -52 -149 4 c-82 2 -214 9 -293 15 -91 7 -283 9
-530 5 -212 -4 -501 -9 -641 -11 -140 -3 -336 -7 -435 -10 -99 -3 -238 -10
-310 -16 -71 -6 -150 -15 -175 -20 -25 -5 -85 -11 -135 -14 -49 -2 -155 -7
-235 -11 -80 -4 -149 -6 -155 -5 -5 2 -39 2 -75 2 -36 -1 -121 -2 -190 -2 -69
-1 -219 -1 -335 -1 -115 1 -237 2 -270 4 -33 1 -103 1 -155 1 -52 -1 -131 -3
-175 -5 -44 -2 -84 -1 -90 3 -5 3 -53 9 -105 13 -52 3 -124 10 -159 16 -34 6
-95 12 -135 14 -39 2 -105 10 -147 20 -48 10 -124 16 -205 17 -71 0 -165 0
-209 -1 -44 0 -99 2 -122 6 -23 3 -49 14 -58 24 -9 10 -21 36 -27 57 -5 21
-13 56 -18 78 -5 22 -12 65 -14 95 -3 30 -10 111 -16 180 -6 69 -12 152 -15
185 -2 33 -11 132 -19 220 -8 88 -18 187 -21 220 -3 33 -10 78 -15 100 -5 22
-10 70 -10 106 0 36 -3 69 -7 73 -4 3 -8 14 -9 24 -2 9 -7 42 -12 72 -6 30
-15 84 -22 119 -6 36 -14 69 -18 75 -3 6 -12 43 -19 81 -7 39 -22 117 -34 175
-11 58 -26 148 -33 200 -8 52 -18 120 -24 150 -6 30 -14 100 -17 155 -3 55 -8
118 -11 140 -2 22 -9 110 -14 195 -5 85 -12 189 -15 230 -2 41 -9 97 -14 125
-5 27 -15 127 -21 220 -6 94 -13 190 -15 215 -2 25 -11 113 -19 195 -9 83 -21
174 -27 204 -6 30 -12 81 -13 115 -2 34 -8 117 -14 186 -6 69 -18 193 -27 275
-8 83 -17 168 -20 190 -4 22 -10 81 -15 130 -5 50 -10 108 -10 130 0 30 7 48
28 70 15 17 43 43 62 59 19 15 78 68 130 117 52 49 104 97 114 106 11 9 51 20
95 25 42 5 155 11 251 13 96 2 194 9 218 16 26 7 68 9 110 5 37 -4 72 -7 77
-6 6 0 39 4 75 9 36 6 117 13 180 16 63 3 127 8 142 11 14 3 59 7 100 8 40 2
84 8 98 13 14 6 71 11 127 12 56 1 133 4 170 7 37 2 84 9 103 14 19 5 64 16
100 24 36 8 101 19 145 26 44 6 107 15 140 21 33 5 86 14 119 19 32 6 136 15
230 22 94 6 239 11 321 10 83 -1 263 -6 400 -11 138 -6 279 -16 314 -24 52
-12 96 -12 235 -4 94 6 246 10 338 10 152 -1 170 -3 201 -22 l34 -21 5 -127
c3 -71 4 -211 2 -313 -2 -102 -6 -228 -8 -280 -3 -52 -9 -135 -14 -185 -6 -49
-8 -93 -6 -97 3 -4 5 -87 6 -183 1 -97 4 -177 7 -180 4 -2 8 -110 10 -240 1
-129 5 -248 8 -263 2 -15 6 -85 8 -157 2 -71 6 -179 10 -240 4 -60 9 -141 11
-180 2 -38 8 -171 14 -295 5 -124 13 -254 16 -290 3 -35 11 -76 16 -90 5 -14
12 -36 14 -50 3 -14 8 -61 13 -105 5 -45 14 -100 20 -123 6 -23 15 -59 21 -79
5 -21 12 -69 15 -108 4 -38 13 -130 20 -203 8 -73 16 -136 19 -140 2 -4 7 -41
11 -82 3 -41 7 -91 9 -110 2 -19 6 -42 8 -50 3 -13 -24 -15 -187 -17 -104 -1
-239 -6 -300 -12 -60 -6 -148 -13 -195 -16 -47 -3 -121 -10 -165 -15 -44 -6
-186 -12 -315 -15 -129 -2 -251 -6 -270 -9 -19 -3 -105 -7 -190 -10 -85 -3
-177 -8 -205 -11 -27 -3 -111 -7 -185 -10 -74 -3 -160 -8 -190 -11 -30 -3
-113 -12 -185 -20 -71 -8 -173 -18 -225 -23 -52 -4 -108 -13 -125 -19 -16 -6
-68 -16 -114 -22 -46 -5 -95 -17 -109 -26 -14 -9 -54 -18 -100 -20 -41 -3 -78
-5 -81 -6 -3 0 -11 0 -17 1 -6 0 -15 20 -19 44 -5 23 -9 49 -10 57 -1 8 -4 22
-8 30 -3 8 -11 33 -16 55 -6 23 -9 106 -6 205 3 91 9 235 14 320 4 85 11 214
15 285 3 72 8 168 11 215 2 47 7 146 11 220 3 74 8 169 10 210 2 41 6 215 9
385 3 171 8 418 10 550 3 132 6 305 5 385 0 80 4 151 9 159 8 12 19 12 68 2
32 -7 144 -15 248 -19 105 -4 233 -7 285 -7 52 0 158 2 235 4 77 2 160 8 185
13 25 5 70 11 100 12 30 1 89 9 130 18 47 10 132 16 230 17 85 1 170 4 188 8
l34 6 -8 -59 c-4 -32 -10 -68 -13 -81 -3 -12 -3 -98 1 -190 4 -93 12 -202 18
-243 5 -41 13 -97 16 -125 3 -27 7 -102 9 -165 2 -63 6 -142 9 -175 4 -33 13
-112 22 -175 8 -63 19 -135 23 -160 5 -25 16 -70 24 -100 9 -30 20 -86 26
-125 5 -38 13 -84 16 -102 6 -24 3 -33 -11 -41 -11 -6 -91 -17 -179 -27 -101
-10 -280 -18 -482 -20 -313 -4 -323 -3 -333 16 -7 12 -11 120 -11 292 0 149 2
357 5 460 3 120 9 193 16 202 9 10 39 14 115 13 57 0 120 5 140 12 27 9 60 9
136 1 55 -6 105 -11 110 -11 8 0 9 -57 4 -182 -4 -101 -7 -187 -7 -193 0 -5 3
-46 7 -91 5 -55 4 -83 -3 -88 -6 -3 -40 -7 -75 -8 -46 -2 -71 3 -91 15 -22 15
-26 25 -26 63 l0 46 49 -7 c28 -4 59 -4 70 0 11 3 24 18 29 33 5 15 5 41 1 57
-4 17 -9 52 -11 80 -3 45 -7 52 -46 82 -40 30 -49 33 -116 33 -58 0 -76 -4
-89 -18 -15 -16 -16 -45 -13 -238 2 -120 7 -229 11 -241 4 -12 17 -26 29 -30
11 -4 30 -8 41 -9 11 -1 56 -5 100 -8 44 -3 114 -8 155 -11 41 -3 83 -8 93
-11 10 -3 27 2 37 11 10 9 22 30 25 46 4 15 -1 56 -10 91 -12 45 -16 104 -15
204 0 78 3 170 5 205 3 38 -3 114 -14 189 -14 86 -25 128 -36 136 -9 7 -67 15
-128 19 -62 3 -156 1 -212 -5 -55 -6 -161 -13 -235 -17 -117 -5 -139 -9 -162
-27 -18 -15 -29 -35 -34 -66 -4 -24 -7 -85 -8 -135 -1 -49 3 -146 7 -215 5
-69 8 -270 7 -448 -1 -218 3 -335 11 -360 6 -20 16 -48 23 -61 6 -13 20 -27
31 -31 11 -3 72 -1 135 6 63 7 192 15 285 18 94 3 225 8 292 11 67 3 145 10
173 15 29 5 108 13 176 16 69 4 127 11 130 16 3 4 16 8 29 8 13 0 31 10 39 22
9 12 16 42 16 65 0 24 -6 69 -14 101 -8 31 -19 82 -26 112 -6 30 -13 69 -16
85 -3 17 -9 39 -14 50 -5 11 -11 43 -14 70 -3 28 -12 79 -21 115 -8 36 -20 90
-25 120 -5 30 -10 98 -10 150 0 52 -5 113 -9 135 -5 22 -12 72 -16 110 -3 39
-9 131 -13 205 -4 74 -7 212 -7 305 0 121 5 182 15 210 8 22 15 45 16 50 2 6
6 27 10 48 6 31 3 41 -15 58 -11 11 -21 28 -21 38 0 10 -6 24 -14 30 -7 6 -24
11 -37 12 -13 0 -80 -8 -149 -20 -69 -11 -152 -23 -185 -26 -33 -2 -89 -8
-125 -11 -36 -4 -74 -8 -85 -11 -11 -2 -114 -10 -230 -19 -139 -10 -283 -13
-425 -10 -118 3 -249 10 -290 15 -41 6 -118 13 -170 17 -52 4 -112 7 -132 6
-21 -1 -38 3 -38 8 0 6 -30 10 -67 10 -38 0 -73 -4 -79 -8 -5 -4 -18 -18 -27
-32 -9 -13 -17 -39 -17 -58 0 -18 7 -49 16 -70 9 -20 20 -71 25 -112 5 -41 8
-196 7 -345 -1 -148 0 -310 2 -360 3 -49 5 -198 5 -330 0 -132 -3 -307 -8
-390 -4 -82 -12 -253 -17 -380 -5 -126 -12 -297 -15 -380 -3 -82 -7 -170 -9
-195 -3 -25 -7 -79 -10 -120 -4 -41 -9 -122 -13 -180 -3 -58 -7 -136 -9 -175
-2 -38 -4 -79 -5 -90 -1 -11 8 -45 20 -75 11 -30 21 -68 22 -85 0 -16 8 -52
17 -79 9 -27 25 -54 34 -60 12 -7 37 -6 85 3 37 7 91 18 118 26 28 7 92 21
144 30 52 9 106 22 121 30 14 7 59 16 100 20 41 4 77 8 80 10 3 2 62 6 130 9
69 4 148 11 177 17 28 5 91 12 140 15 48 2 126 9 173 14 47 6 159 12 250 15
91 2 203 6 250 9 47 3 103 8 125 11 22 2 67 7 100 10 33 3 137 7 230 10 94 3
197 7 230 10 33 2 107 6 165 9 58 3 106 6 108 7 1 1 17 3 35 5 17 1 151 3 297
4 151 1 276 -3 290 -8 18 -7 38 -6 65 4 22 7 46 23 54 34 8 12 16 35 18 52 2
16 -3 44 -11 61 -7 18 -23 57 -34 87 -11 30 -24 73 -28 95 -4 22 -8 56 -9 75
-2 19 -8 60 -13 90 -6 30 -14 102 -17 160 -4 58 -13 141 -22 185 -8 44 -21
130 -28 190 -8 61 -22 139 -30 175 -9 36 -22 112 -30 170 -7 58 -16 181 -20
275 -3 93 -8 172 -9 175 -2 3 -7 56 -10 119 -4 63 -9 118 -11 122 -3 3 -7 163
-10 355 -3 191 -8 351 -10 354 -2 4 -7 85 -10 181 -2 96 -6 246 -6 334 -1 88
1 243 5 345 4 102 8 311 9 465 2 238 5 285 19 313 17 32 16 33 -14 78 -16 25
-40 51 -51 58 -12 8 -57 19 -99 25 -42 7 -139 12 -215 11 -76 -1 -246 -2 -378
-3 -132 -1 -289 2 -350 8 -60 5 -276 9 -480 9 -203 -1 -428 -7 -500 -13 -71
-7 -145 -14 -164 -17 -19 -2 -39 -8 -45 -13 -6 -4 -42 -9 -81 -10 -38 -1 -88
-7 -110 -12 -22 -6 -60 -14 -85 -19 -25 -4 -90 -15 -145 -23 -55 -9 -140 -19
-190 -22 -49 -3 -121 -11 -160 -17 -38 -7 -90 -12 -115 -13 -25 -1 -85 -5
-135 -9 -49 -4 -106 -9 -125 -12 -19 -2 -93 -6 -165 -9 -71 -3 -195 -10 -275
-15 -80 -6 -191 -12 -248 -14 -56 -2 -104 0 -107 4 -3 4 20 31 51 59 30 28 60
51 65 51 5 0 24 10 42 23 17 12 51 40 75 62 24 22 65 52 92 67 27 14 63 36 79
47 16 12 33 21 38 21 5 0 22 13 38 30 15 16 67 51 114 78 47 27 133 72 191
100 58 28 143 66 190 85 47 19 122 46 167 61 45 14 91 26 101 26 10 0 22 3 26
7 4 4 32 15 64 25 31 11 82 26 112 35 43 13 102 17 275 18 190 0 224 3 253 18
29 16 63 17 365 14 182 -2 382 0 442 5 61 5 164 16 230 25 66 9 149 19 185 22
36 3 90 4 120 2z m-3920 -27 c129 -1 370 -5 535 -8 165 -4 365 -12 445 -17 80
-6 153 -15 163 -20 9 -5 17 -13 17 -17 0 -4 -28 -25 -63 -48 -34 -22 -81 -53
-104 -67 -24 -15 -46 -27 -51 -27 -5 0 -17 -9 -27 -20 -10 -11 -37 -29 -61
-41 -24 -11 -44 -24 -44 -29 0 -4 -44 -35 -97 -68 -54 -33 -107 -69 -117 -81
-11 -12 -23 -21 -28 -21 -5 0 -35 -21 -66 -46 -31 -25 -80 -66 -108 -90 -28
-24 -79 -66 -113 -92 -33 -26 -96 -76 -138 -112 l-78 -65 -80 2 c-44 1 -93 6
-108 12 -26 10 -32 8 -59 -21 -28 -31 -30 -36 -25 -91 3 -33 10 -64 16 -70 6
-6 11 -20 11 -32 0 -12 -37 -58 -93 -116 -50 -52 -115 -120 -143 -150 -29 -30
-68 -75 -89 -99 -21 -25 -65 -75 -99 -111 -33 -37 -83 -95 -111 -130 -27 -35
-57 -72 -67 -82 -9 -9 -49 -64 -88 -122 -38 -58 -70 -109 -70 -114 0 -5 -7
-14 -15 -21 -12 -10 -17 -7 -26 16 -7 20 -9 106 -5 269 2 132 9 335 15 451 5
115 14 238 21 272 6 34 15 99 20 145 5 45 14 125 20 177 5 52 16 136 24 185 9
50 18 131 22 180 3 50 7 113 9 140 1 28 8 71 15 97 11 42 16 48 44 52 17 2 49
4 71 4 22 0 69 3 105 7 36 4 137 10 225 13 88 4 266 6 395 6z m1509 -67 c85
-1 126 -6 128 -14 3 -7 -16 -14 -54 -19 -31 -4 -78 -18 -103 -32 -25 -13 -52
-30 -60 -36 -8 -6 -33 -20 -55 -31 -22 -11 -52 -32 -67 -47 -15 -16 -36 -28
-47 -28 -11 0 -31 -4 -44 -9 -13 -5 -37 -22 -53 -37 -16 -14 -44 -33 -61 -40
-18 -8 -33 -19 -33 -24 0 -5 -15 -16 -32 -24 -18 -8 -54 -34 -79 -59 -25 -24
-79 -66 -118 -93 -40 -27 -100 -63 -133 -81 -33 -17 -72 -45 -87 -63 -14 -17
-36 -32 -48 -33 -12 -1 -25 -7 -27 -14 -3 -7 -17 -18 -31 -23 -16 -6 -23 -15
-19 -21 4 -7 2 -10 -6 -7 -7 2 -40 -23 -74 -55 -34 -33 -74 -66 -90 -74 -15
-8 -60 -41 -100 -73 -39 -32 -120 -111 -181 -175 -60 -65 -145 -153 -187 -196
-43 -42 -78 -84 -78 -92 0 -8 -21 -36 -47 -62 -27 -27 -59 -65 -73 -86 -14
-20 -43 -61 -65 -91 -22 -29 -46 -63 -52 -73 -7 -11 -21 -36 -31 -55 -11 -19
-26 -47 -34 -62 -8 -15 -33 -46 -56 -70 -23 -23 -42 -48 -42 -53 0 -6 -6 -23
-12 -38 -7 -15 -16 -27 -21 -27 -4 0 -24 -15 -43 -32 -20 -18 -42 -36 -49 -41
-8 -4 -26 -34 -41 -67 -15 -33 -31 -60 -35 -60 -5 0 -9 -5 -9 -11 0 -5 -19
-34 -42 -63 -24 -29 -57 -63 -74 -75 -17 -12 -44 -46 -60 -76 -26 -51 -27 -58
-16 -100 7 -25 12 -54 12 -65 0 -11 -15 -51 -33 -88 -18 -37 -34 -85 -36 -107
-1 -22 -12 -58 -23 -80 -11 -22 -23 -42 -27 -45 -4 -3 -20 -32 -35 -65 -15
-33 -32 -69 -38 -80 -6 -10 -17 -44 -25 -75 -8 -30 -16 -75 -19 -100 -3 -25
-12 -65 -21 -90 -8 -25 -24 -64 -34 -87 -11 -24 -19 -59 -19 -78 0 -19 -9 -62
-20 -94 -12 -33 -20 -76 -19 -98 1 -21 -6 -73 -15 -116 -9 -42 -15 -81 -12
-86 3 -4 2 -31 -3 -60 -5 -29 -5 -129 0 -223 6 -123 12 -175 22 -187 8 -9 17
-28 21 -43 3 -15 20 -51 38 -80 17 -29 51 -83 75 -120 24 -37 43 -77 43 -88 0
-12 11 -36 25 -54 24 -31 25 -41 31 -207 3 -96 7 -196 8 -223 0 -30 -4 -51
-11 -53 -6 -2 -14 11 -18 29 -4 18 -15 42 -25 53 -9 11 -34 51 -54 90 -20 38
-36 76 -36 84 0 8 -15 34 -33 58 -17 24 -42 56 -53 71 -17 21 -21 38 -19 75 2
26 0 47 -5 47 -4 0 -18 19 -29 43 -14 29 -20 60 -19 93 2 37 -5 65 -28 114
-17 36 -38 91 -48 122 -13 46 -17 101 -17 290 0 128 2 244 4 258 3 14 10 59
16 100 6 41 11 100 11 131 0 42 5 60 19 73 14 12 21 38 26 89 4 39 27 130 50
202 24 71 50 147 60 169 9 21 14 44 12 50 -3 7 13 48 34 92 21 43 39 93 39
110 0 17 -7 37 -15 44 -10 8 -15 31 -15 69 0 52 3 59 40 98 22 24 37 48 35 55
-3 7 14 31 36 53 22 22 47 52 55 66 7 15 11 29 9 31 -3 3 10 22 29 44 18 21
36 49 40 60 4 12 21 32 38 45 18 13 40 32 51 42 10 11 16 25 12 36 -3 11 7 37
28 67 18 27 50 81 72 119 21 39 45 84 53 100 8 17 22 38 30 48 8 9 23 17 33
17 10 0 31 20 48 46 17 25 31 48 31 53 0 4 16 22 35 41 20 19 40 50 45 70 5
20 18 44 27 52 10 9 44 40 76 69 31 28 57 56 57 61 0 5 23 37 51 71 28 34 56
67 63 72 7 6 26 28 42 50 16 22 40 54 54 70 13 17 69 74 125 128 55 54 136
125 180 159 43 33 86 63 95 66 8 3 33 18 55 33 22 16 65 51 95 79 30 28 69 58
87 66 18 9 44 27 60 41 15 15 52 39 83 56 30 16 62 36 71 43 8 8 20 14 25 14
5 0 38 20 73 45 36 25 69 45 74 45 5 0 42 28 84 63 41 34 94 73 117 86 22 13
70 43 106 66 36 23 82 51 103 63 21 12 44 22 50 22 7 0 18 9 25 20 7 11 27 26
45 34 23 11 67 14 156 13z m4784 -1077 c7 0 33 -21 59 -47 25 -27 62 -66 82
-87 19 -22 38 -52 41 -67 4 -15 13 -33 21 -40 8 -7 35 -39 60 -71 24 -32 44
-62 44 -67 0 -5 7 -14 16 -21 8 -8 21 -28 29 -47 8 -18 21 -36 30 -39 9 -4 39
-40 66 -81 27 -41 49 -78 49 -82 0 -4 10 -16 23 -27 12 -12 38 -43 57 -70 19
-27 45 -67 58 -89 13 -22 32 -49 42 -60 10 -11 21 -31 25 -44 4 -13 22 -49 40
-80 18 -31 38 -74 45 -96 7 -22 22 -58 33 -80 12 -22 21 -42 22 -45 0 -3 6
-14 12 -25 5 -11 26 -58 46 -105 20 -47 43 -107 53 -135 9 -27 26 -87 39 -133
15 -59 20 -96 15 -127 -4 -29 -2 -48 7 -61 7 -10 13 -30 13 -45 0 -15 4 -39 9
-52 5 -14 14 -58 20 -98 6 -41 13 -94 17 -119 3 -25 17 -71 29 -102 13 -32 31
-83 40 -113 10 -35 13 -71 9 -98 -3 -23 -6 -78 -6 -123 0 -44 6 -118 12 -163
6 -45 8 -90 5 -100 -3 -10 1 -60 8 -112 9 -63 13 -182 12 -364 -1 -212 -5
-288 -19 -355 -10 -47 -18 -92 -18 -100 0 -8 -12 -58 -25 -110 -14 -52 -29
-113 -34 -135 -5 -22 -14 -53 -20 -70 -6 -16 -15 -39 -19 -50 -5 -11 -14 -45
-21 -75 -6 -30 -22 -91 -35 -135 -12 -44 -25 -91 -27 -105 -3 -14 -19 -59 -37
-100 -18 -41 -39 -91 -47 -110 -8 -19 -20 -44 -26 -55 -5 -10 -20 -39 -33 -63
-13 -24 -23 -47 -22 -50 1 -4 -2 -18 -6 -32 -5 -14 -26 -45 -47 -71 -22 -25
-39 -50 -39 -56 0 -5 -9 -18 -20 -28 -11 -10 -20 -24 -20 -30 0 -7 -7 -18 -14
-25 -8 -6 -25 -33 -37 -58 -12 -26 -27 -54 -34 -62 -6 -8 -18 -30 -25 -49 -8
-19 -29 -50 -47 -70 -18 -20 -33 -41 -33 -48 0 -6 -14 -25 -30 -42 -17 -16
-39 -50 -50 -75 -10 -25 -24 -46 -29 -46 -6 0 -19 -19 -29 -42 -11 -24 -33
-56 -50 -73 -17 -16 -32 -38 -32 -48 0 -10 -5 -28 -12 -40 -6 -12 -21 -29 -33
-39 -12 -9 -28 -30 -36 -45 -8 -15 -37 -59 -64 -97 -28 -38 -69 -91 -92 -118
-24 -27 -43 -56 -43 -66 0 -9 -39 -57 -86 -105 -46 -49 -100 -112 -118 -140
-19 -29 -98 -113 -176 -187 -79 -74 -162 -153 -186 -175 -23 -22 -53 -50 -67
-63 -21 -20 -37 -23 -123 -27 -55 -2 -103 -1 -107 2 -5 3 9 21 30 40 21 19 69
60 107 91 38 31 105 91 149 134 43 43 84 78 91 78 8 0 26 17 42 38 16 20 52
62 80 92 29 30 80 84 113 120 34 35 61 67 61 71 0 4 6 14 13 21 6 7 28 33 48
58 20 25 49 59 63 75 14 17 26 37 26 45 0 9 14 30 30 48 17 18 30 38 30 43 0
6 29 45 65 87 36 41 65 84 65 95 0 11 6 28 14 36 8 9 21 27 28 41 8 14 24 42
37 63 13 20 26 37 30 37 4 0 22 31 41 69 21 42 42 71 53 73 10 2 30 27 46 58
15 30 36 71 45 90 9 19 34 67 55 107 21 39 50 85 64 103 15 17 27 37 27 45 0
7 6 15 13 18 7 3 25 28 40 57 15 28 27 60 27 71 0 10 9 23 20 29 11 6 28 30
39 53 11 24 23 55 26 70 4 15 11 30 16 33 5 3 9 13 9 22 0 9 12 42 27 72 14
30 30 63 35 72 4 10 8 33 8 51 0 18 9 50 20 72 11 22 20 52 20 67 0 15 5 40
11 55 6 15 15 37 20 48 4 11 15 47 24 80 9 33 20 80 25 105 4 25 16 67 25 95
10 27 24 88 32 135 11 63 16 194 19 510 2 234 3 486 3 560 -1 74 -5 144 -10
157 -4 12 -15 61 -23 109 -9 48 -23 95 -31 105 -11 12 -18 43 -21 100 -4 70
-8 87 -28 109 -14 15 -26 44 -30 72 -4 26 -11 50 -17 53 -5 4 -7 10 -4 15 2 4
0 32 -5 61 -5 30 -12 81 -14 114 -3 33 -8 85 -11 115 -4 30 -10 59 -14 65 -5
5 -11 26 -14 45 -3 19 -19 73 -36 120 -16 47 -30 95 -31 107 0 12 -4 25 -10
28 -5 3 -7 19 -3 36 5 24 2 31 -13 35 -11 3 -29 21 -41 40 -12 19 -24 44 -26
57 -2 12 -10 36 -19 53 -9 17 -24 36 -32 43 -9 8 -16 25 -16 39 0 14 -10 40
-22 58 -13 18 -32 38 -43 44 -11 6 -35 31 -54 56 -19 25 -42 59 -52 77 -11 18
-27 49 -36 70 -10 20 -21 37 -25 37 -5 0 -8 6 -8 13 0 7 -13 21 -30 30 -16 10
-51 46 -77 80 -26 34 -50 64 -54 67 -3 3 -16 24 -28 47 -11 23 -21 46 -21 51
0 5 -39 49 -86 96 l-86 87 6 61 c4 34 12 70 17 80 5 10 15 18 22 18z m-6408
-390 c7 0 13 -21 14 -52 1 -29 6 -70 11 -90 6 -20 10 -61 9 -90 -1 -29 4 -93
11 -143 7 -49 14 -103 16 -120 2 -16 6 -50 8 -75 2 -25 11 -101 19 -170 9 -69
21 -186 27 -260 7 -74 16 -155 20 -180 5 -25 11 -77 15 -115 3 -39 10 -97 15
-130 5 -33 10 -91 11 -130 1 -38 5 -83 10 -100 4 -16 10 -79 12 -140 2 -60 9
-148 15 -195 7 -47 13 -152 15 -235 3 -82 14 -220 25 -305 11 -85 23 -162 26
-170 3 -8 7 -28 10 -45 3 -16 12 -70 20 -120 9 -49 25 -128 36 -175 10 -47 24
-123 30 -170 7 -47 18 -101 25 -120 7 -20 16 -58 20 -85 4 -28 10 -54 14 -60
3 -5 6 -30 7 -55 0 -25 4 -65 8 -90 4 -25 11 -58 15 -75 5 -16 14 -104 20
-195 7 -91 16 -194 22 -230 5 -36 12 -133 14 -215 2 -83 9 -193 15 -245 6 -52
16 -113 21 -135 6 -22 12 -81 13 -132 1 -87 3 -94 31 -124 l30 -32 286 6 c157
4 290 3 295 -2 5 -5 74 -14 154 -21 80 -7 154 -14 165 -15 11 -1 29 -5 40 -8
11 -4 61 -9 110 -13 50 -3 131 -8 180 -11 50 -3 396 -6 770 -6 420 0 733 5
820 12 77 6 181 16 230 21 50 6 117 13 150 16 33 3 83 7 110 10 28 2 210 7
405 10 195 4 477 8 625 11 149 2 397 4 552 4 169 0 297 -4 321 -11 22 -5 98
-10 169 -11 70 0 151 -1 178 -3 28 -1 77 -8 110 -15 59 -13 59 -13 82 13 13
15 23 36 23 46 0 10 -4 21 -9 25 -6 3 -10 45 -10 93 1 48 -4 121 -11 162 -6
41 -15 122 -21 180 -5 58 -12 182 -15 275 -3 94 -7 334 -9 535 -2 201 -4 372
-4 380 -1 8 1 49 5 90 3 41 0 273 -6 515 -7 242 -12 580 -11 750 0 171 3 328
5 350 2 22 9 162 15 310 6 149 13 349 17 445 3 96 7 193 9 215 1 22 6 141 10
265 3 124 8 231 10 237 3 7 11 10 19 7 8 -3 42 -41 75 -83 33 -43 74 -89 90
-102 17 -13 31 -34 31 -45 0 -12 -3 -35 -6 -51 -4 -21 -15 -35 -37 -44 -16 -8
-41 -28 -54 -46 l-24 -31 36 -41 c21 -23 42 -41 47 -41 6 0 28 -16 49 -35 22
-19 44 -35 49 -35 6 0 43 -22 83 -49 40 -27 80 -57 90 -67 10 -11 29 -32 42
-49 13 -16 29 -43 36 -60 6 -16 20 -52 31 -79 11 -28 22 -59 23 -70 2 -12 10
-46 18 -76 8 -30 19 -89 26 -130 6 -41 23 -124 36 -185 14 -60 27 -121 30
-135 3 -14 6 -32 8 -40 2 -8 6 -26 10 -40 3 -14 11 -52 18 -85 7 -33 16 -64
19 -70 4 -5 10 -26 12 -45 3 -19 12 -66 21 -105 9 -38 18 -91 21 -116 3 -25 8
-101 11 -170 3 -68 7 -176 10 -239 2 -64 11 -158 19 -210 8 -53 18 -120 21
-150 4 -30 6 -130 6 -221 -1 -92 -6 -209 -11 -260 -6 -52 -15 -152 -20 -224
-6 -71 -13 -139 -16 -150 -3 -11 -17 -58 -31 -105 -13 -47 -29 -94 -34 -105
-4 -11 -22 -56 -40 -100 -17 -44 -37 -87 -45 -95 -7 -9 -29 -50 -48 -91 -19
-41 -44 -83 -55 -93 -12 -11 -21 -24 -21 -31 0 -7 -7 -27 -17 -46 -9 -19 -24
-45 -34 -59 -9 -14 -32 -53 -50 -85 -17 -33 -45 -74 -60 -90 -16 -17 -29 -37
-29 -44 0 -7 -8 -25 -18 -39 -10 -15 -22 -34 -25 -42 -4 -8 -25 -44 -48 -80
-23 -36 -46 -76 -52 -90 -5 -14 -10 -28 -9 -32 1 -5 -2 -8 -8 -8 -5 0 -10 -5
-10 -12 0 -6 -11 -25 -23 -42 -13 -17 -46 -71 -73 -119 -27 -49 -53 -96 -59
-105 -5 -10 -21 -35 -34 -57 -14 -22 -46 -68 -73 -102 -26 -35 -48 -66 -48
-71 0 -5 -15 -29 -33 -53 -19 -24 -73 -97 -121 -161 -48 -65 -92 -118 -97
-118 -5 0 -9 -4 -9 -9 0 -5 -17 -26 -37 -48 -21 -21 -86 -88 -144 -148 -59
-61 -171 -171 -249 -245 -79 -74 -152 -139 -164 -143 -12 -5 -88 -6 -171 -3
-82 3 -163 8 -180 11 -16 3 -102 10 -189 15 -88 5 -173 14 -190 20 -17 5 -94
17 -171 26 -77 9 -169 18 -205 19 -36 2 -141 9 -235 15 -93 6 -242 13 -330 16
-88 2 -216 8 -285 13 -69 5 -128 7 -132 5 -4 -3 -56 0 -115 6 -59 5 -148 12
-198 16 -49 3 -325 7 -613 9 l-523 3 -77 74 c-42 40 -96 95 -118 121 -23 26
-45 47 -50 47 -5 0 -36 27 -69 61 -33 33 -72 68 -87 77 -16 9 -28 24 -28 33 0
10 -13 22 -31 28 -17 6 -57 37 -89 69 -32 31 -86 78 -120 102 -35 25 -83 62
-109 82 -25 21 -85 67 -133 104 -49 37 -88 71 -88 76 0 4 -5 8 -11 8 -6 0 -24
12 -41 28 -17 15 -39 35 -49 44 -10 9 -31 23 -46 32 -15 8 -82 66 -148 130
-66 63 -124 120 -130 126 -5 6 -46 49 -90 94 -44 45 -130 136 -192 202 -61 65
-124 133 -140 150 -15 18 -35 40 -43 50 -9 11 -42 51 -74 89 -32 39 -64 78
-72 88 -8 9 -14 21 -14 25 0 4 -10 18 -23 32 -12 14 -45 55 -72 93 -28 37 -75
101 -105 141 -30 41 -70 94 -87 118 -18 24 -40 52 -48 63 -8 10 -15 25 -15 32
0 7 -8 21 -18 31 -11 11 -33 40 -50 65 -18 25 -32 49 -32 52 0 4 -16 30 -35
59 -19 29 -35 56 -35 60 0 4 -19 33 -42 64 -24 31 -50 71 -59 87 -10 17 -32
59 -49 94 l-32 64 -3 681 c-1 375 -6 737 -10 806 -7 112 -5 132 14 196 11 39
21 86 21 105 0 19 12 54 26 79 14 25 33 68 41 95 8 28 21 61 28 75 7 14 17 36
23 50 6 14 19 43 28 65 10 22 18 42 19 45 0 3 10 26 22 52 12 25 24 57 28 70
4 12 15 32 25 43 9 11 22 34 29 52 7 17 21 39 32 49 10 9 19 22 19 27 0 6 11
25 25 43 14 18 25 39 25 47 0 9 19 39 43 67 23 29 53 70 67 90 14 21 47 72 74
112 27 40 56 79 63 86 7 8 26 30 41 50 15 21 47 62 71 92 24 30 62 74 85 98
22 23 45 42 51 42z m-1015 -2020 c4 -6 8 -166 8 -355 2 -251 -1 -346 -10 -351
-6 -4 -8 -3 -4 4 3 5 1 12 -5 14 -6 2 -17 33 -24 68 -8 36 -17 119 -21 185 -4
74 -2 154 5 205 6 47 13 105 15 130 3 25 7 55 10 68 3 12 8 27 12 33 5 8 9 8
14 -1z m140 -1607 c4 -4 26 -43 49 -86 22 -43 53 -94 68 -115 15 -20 73 -90
129 -154 56 -64 123 -136 149 -160 26 -24 54 -60 62 -81 9 -21 23 -43 32 -50
9 -6 32 -32 50 -55 19 -24 42 -53 52 -65 10 -12 54 -67 96 -122 43 -55 86
-112 96 -127 9 -15 17 -34 17 -41 0 -8 10 -22 22 -33 11 -10 41 -50 66 -88 25
-39 73 -98 106 -132 34 -35 77 -80 97 -102 20 -22 50 -60 67 -85 17 -24 39
-48 49 -51 9 -4 40 -25 67 -46 28 -22 94 -71 146 -110 52 -38 123 -90 158
-116 35 -26 98 -86 140 -133 42 -47 90 -97 106 -111 16 -14 60 -46 97 -72 37
-26 80 -54 96 -63 15 -8 50 -28 77 -44 26 -15 64 -48 85 -74 20 -25 78 -85
130 -134 51 -48 106 -95 121 -103 16 -8 39 -25 52 -37 13 -11 48 -45 78 -75
31 -29 94 -89 141 -133 47 -44 106 -97 132 -119 26 -21 66 -48 90 -60 23 -12
63 -36 88 -53 24 -17 111 -95 191 -174 81 -79 166 -159 190 -177 24 -18 61
-46 83 -62 22 -17 58 -47 80 -69 22 -21 51 -42 65 -45 14 -4 43 -22 64 -41 22
-19 36 -38 32 -43 -4 -4 -49 -6 -99 -4 -51 2 -116 5 -145 7 -31 1 -60 9 -71
19 -10 9 -22 16 -27 16 -6 0 -26 11 -45 25 -19 14 -46 35 -61 47 -15 13 -58
53 -95 89 -38 36 -82 74 -100 83 -18 9 -45 33 -60 54 -15 20 -53 61 -83 90
-30 29 -78 68 -105 86 -28 18 -63 48 -79 66 -15 19 -48 44 -72 56 -25 13 -61
37 -80 53 -19 17 -40 31 -47 31 -7 0 -24 12 -38 28 -13 15 -47 47 -75 72 -27
25 -67 54 -89 65 -21 11 -53 36 -69 55 -17 19 -59 62 -93 95 -35 33 -63 64
-63 67 0 4 -17 23 -37 42 -21 19 -58 51 -81 71 -24 19 -48 35 -53 35 -6 0 -29
20 -52 44 -23 25 -58 56 -77 70 -19 13 -55 37 -79 52 -25 15 -121 104 -215
199 -98 98 -187 179 -209 189 -20 9 -35 21 -32 26 3 5 -32 26 -78 48 -48 23
-101 58 -125 82 -23 23 -42 48 -42 56 0 7 -24 39 -52 71 -29 31 -79 84 -110
118 -32 33 -72 80 -90 104 -18 24 -39 56 -47 70 -7 14 -26 40 -41 56 -15 17
-39 51 -54 76 -14 25 -54 73 -88 107 -35 33 -75 74 -89 90 -14 16 -36 50 -48
75 -13 26 -27 47 -32 47 -6 0 -20 10 -33 23 -12 12 -39 35 -59 50 -20 15 -37
32 -37 38 0 5 -14 28 -30 51 -17 23 -39 47 -49 54 -10 8 -34 39 -52 71 -19 32
-43 72 -54 89 -11 17 -28 42 -37 55 -9 13 -26 66 -38 118 -11 51 -21 129 -21
172 0 43 3 83 6 90 4 6 11 7 15 2z m6 -684 c9 -7 46 -58 84 -113 38 -56 86
-120 107 -144 21 -24 51 -60 66 -80 15 -20 53 -70 84 -111 30 -41 72 -93 92
-115 20 -22 65 -70 100 -106 35 -36 96 -105 136 -155 40 -49 112 -126 160
-170 48 -44 129 -120 180 -170 51 -49 126 -117 165 -150 40 -33 77 -65 84 -70
6 -6 45 -37 86 -71 41 -33 85 -66 96 -74 12 -8 48 -35 80 -60 33 -24 69 -53
81 -65 12 -11 48 -38 80 -60 32 -22 85 -65 118 -96 33 -30 84 -75 114 -99 51
-42 52 -44 30 -52 -13 -5 -67 -9 -119 -8 -52 0 -138 -4 -190 -9 -52 -5 -139
-10 -193 -10 -53 0 -161 -10 -240 -21 -78 -12 -158 -23 -177 -25 -19 -3 -71
-9 -115 -15 -44 -5 -105 -13 -135 -19 -30 -5 -136 -13 -235 -18 -99 -4 -266
-8 -371 -8 -147 0 -195 4 -208 14 -9 8 -15 16 -12 18 2 3 -2 19 -9 36 -10 23
-13 90 -13 237 0 113 4 250 9 305 6 55 12 116 14 135 3 19 10 96 16 170 7 74
13 221 15 325 2 105 4 342 4 528 1 303 3 337 16 326z m3028 -2064 c39 -4 80
-6 91 -6 11 0 175 1 365 0 190 0 361 -4 380 -9 19 -5 105 -12 190 -15 85 -3
175 -7 200 -10 25 -2 137 -7 250 -11 113 -3 208 -8 211 -10 4 -2 96 -8 205
-13 110 -6 233 -15 274 -20 41 -6 111 -15 155 -21 44 -5 130 -16 190 -25 61
-8 130 -15 154 -15 24 0 85 -5 135 -11 50 -6 122 -14 159 -19 38 -5 72 -12 75
-15 4 -4 -23 -34 -59 -68 -36 -34 -101 -93 -144 -132 -43 -38 -108 -98 -144
-132 -36 -33 -81 -74 -98 -90 -18 -15 -39 -34 -47 -40 -9 -7 -18 -13 -22 -13
-4 0 -38 -29 -75 -65 -38 -36 -87 -77 -109 -91 l-41 -27 -292 7 c-160 4 -299
8 -307 8 -8 1 -103 -2 -210 -6 -107 -4 -198 -10 -202 -12 -5 -3 -65 -12 -133
-19 -123 -14 -126 -14 -161 8 -19 12 -50 34 -67 48 -18 14 -83 61 -146 103
-62 42 -130 92 -150 111 -20 19 -63 52 -96 73 -33 22 -72 52 -87 66 -15 14
-31 26 -36 26 -5 0 -19 12 -33 26 -13 14 -51 46 -84 69 -33 24 -79 64 -103 89
-24 25 -46 46 -50 46 -4 0 -38 29 -75 65 -38 36 -75 65 -82 65 -7 0 -25 16
-39 35 -15 19 -24 40 -20 46 5 8 29 9 78 4z m3261 -203 c47 -2 85 -6 85 -8 0
-3 -19 -28 -42 -55 -24 -27 -59 -60 -78 -73 -19 -14 -83 -71 -142 -128 -58
-56 -137 -130 -174 -163 -37 -33 -82 -71 -100 -85 -18 -14 -33 -30 -34 -36 0
-5 -13 -22 -28 -37 -15 -15 -31 -27 -35 -27 -4 0 -15 -8 -25 -17 -11 -10 -54
-49 -97 -88 -43 -38 -110 -101 -149 -140 -39 -38 -109 -99 -156 -135 -47 -36
-96 -73 -110 -82 -14 -9 -56 -44 -95 -77 -38 -34 -74 -65 -80 -69 -5 -4 -27
-18 -48 -31 -21 -13 -41 -21 -44 -18 -3 3 -15 2 -27 -3 -15 -5 -28 -3 -42 9
-12 9 -24 33 -28 54 -4 23 -1 56 9 92 10 31 26 61 38 70 12 8 29 15 39 15 9 0
23 6 30 13 7 7 32 21 56 31 23 11 42 23 42 28 0 4 6 8 14 8 8 0 36 17 61 38
26 20 78 66 116 102 38 36 90 84 116 108 27 24 62 53 80 65 18 12 70 54 116
92 47 39 121 103 166 143 45 39 87 72 94 72 6 0 48 32 92 71 44 38 105 93 135
120 30 27 79 71 108 97 l52 47 85 -3z m560 0 c116 -3 242 -5 280 -5 39 1 111
2 160 4 50 1 143 2 208 1 93 -1 119 -5 123 -16 3 -8 6 -39 6 -68 1 -29 -2
-127 -6 -218 -4 -91 -11 -190 -17 -220 -5 -30 -20 -127 -33 -215 -14 -89 -29
-212 -35 -275 -6 -63 -8 -179 -5 -259 4 -81 8 -182 10 -226 1 -44 5 -105 8
-135 3 -30 6 -119 6 -198 0 -79 -1 -147 -2 -150 -1 -4 2 -32 7 -62 5 -30 10
-104 10 -165 1 -60 4 -204 8 -320 4 -115 9 -253 11 -305 3 -53 7 -102 10 -110
3 -8 7 -134 10 -280 3 -146 12 -330 21 -410 12 -109 17 -286 20 -715 3 -313 8
-781 12 -1040 3 -258 7 -751 9 -1095 1 -344 2 -670 2 -725 0 -55 -1 -102 -4
-104 -2 -2 -157 -6 -344 -9 -231 -3 -340 -1 -340 6 0 6 13 46 29 89 16 43 35
92 42 108 7 17 14 35 14 40 1 6 7 23 13 38 7 16 12 34 12 42 0 8 4 16 9 20 5
3 15 31 22 63 7 31 16 62 20 67 4 6 13 31 19 55 7 25 18 74 25 110 7 36 18 79
25 95 7 17 17 40 23 52 5 12 7 31 4 42 -3 12 -2 21 3 21 4 0 10 15 13 32 4 18
9 48 13 66 3 17 10 32 15 32 5 0 9 18 9 40 0 22 11 64 24 93 13 31 27 86 31
128 4 41 13 84 21 96 7 12 17 41 20 65 4 24 8 54 9 68 0 14 7 45 14 70 7 25
17 53 22 62 5 10 6 24 3 32 -3 8 2 26 11 40 10 15 14 33 10 46 -4 11 -1 43 6
71 11 44 11 53 -5 79 -15 27 -16 31 -2 36 13 5 16 27 15 138 0 72 -4 167 -9
211 -5 44 -14 105 -20 135 -6 30 -12 80 -14 110 -1 30 -8 65 -14 77 -7 12 -12
33 -12 46 0 13 -9 50 -21 83 -11 32 -30 97 -43 144 -12 47 -41 124 -64 173
-23 48 -42 92 -42 97 0 6 -4 10 -10 10 -5 0 -13 12 -16 28 -4 15 -9 32 -13 37
-3 6 -6 16 -8 24 -1 8 -6 17 -11 20 -4 3 -23 35 -41 71 -18 36 -48 92 -66 125
-19 33 -39 71 -46 85 -7 14 -29 45 -48 70 -19 25 -38 47 -42 50 -3 3 -10 16
-14 30 -4 14 -15 34 -25 45 -10 11 -24 32 -31 46 -8 15 -28 51 -46 80 -17 30
-44 71 -60 92 -15 21 -45 58 -65 81 -21 24 -38 49 -38 56 0 6 -14 25 -32 42
-18 16 -37 38 -43 48 -5 11 -27 44 -48 74 -39 53 -39 55 -44 167 -2 63 -6 236
-9 385 -2 149 -6 347 -9 439 -3 93 -11 207 -19 254 -7 48 -14 95 -13 106 0 11
-3 81 -6 155 -3 74 -13 180 -22 235 -8 55 -20 120 -26 145 -6 25 -11 56 -11
70 0 14 -5 48 -10 75 -5 28 -12 61 -14 75 -3 14 -12 57 -20 95 -7 39 -14 89
-14 112 0 23 -4 45 -10 48 -5 3 -10 14 -10 24 0 10 -9 26 -20 36 -11 10 -20
24 -20 31 0 8 -11 21 -25 30 -20 13 -39 15 -99 9 -41 -3 -95 -3 -120 0 -29 5
-46 12 -46 21 0 8 4 14 10 14 5 0 32 21 58 48 27 26 143 134 258 239 115 106
226 211 247 232 24 25 50 42 70 45 18 2 127 2 242 -2z m-1002 -769 c21 -3 85
-6 143 -8 74 -2 111 -7 128 -18 13 -9 27 -29 30 -44 3 -15 8 -40 10 -56 3 -15
7 -36 11 -46 3 -10 12 -52 19 -92 8 -41 21 -100 30 -132 9 -32 22 -91 30 -130
8 -40 19 -115 25 -167 6 -52 13 -126 17 -165 3 -38 8 -73 10 -76 2 -4 6 -51
10 -105 3 -55 9 -146 14 -204 5 -58 12 -130 14 -160 3 -30 8 -181 10 -335 3
-154 8 -302 11 -330 l7 -50 -87 90 c-48 50 -99 106 -113 125 -15 19 -37 43
-50 53 -12 10 -29 32 -37 47 -8 16 -40 55 -70 87 -31 32 -81 86 -113 121 -31
35 -73 80 -92 100 l-35 37 0 243 c0 241 0 244 -22 262 -13 10 -23 22 -23 27 0
5 -10 20 -21 32 -19 20 -27 22 -68 16 -25 -4 -89 -7 -141 -6 -52 0 -135 -3
-185 -8 l-90 -9 -45 40 c-25 22 -87 80 -137 129 -51 50 -93 93 -93 97 0 4 14
17 31 27 17 11 39 25 48 30 9 6 37 26 61 46 25 20 57 43 72 50 14 8 70 50 123
94 53 44 106 87 119 95 12 8 55 42 96 75 41 33 112 93 158 134 58 52 94 76
120 82 20 4 54 5 75 2z m-1220 -60 c54 -1 176 -3 272 -4 97 -1 178 -5 180 -10
3 -4 -5 -13 -17 -20 -13 -7 -36 -25 -52 -41 -17 -15 -35 -28 -42 -28 -7 0 -14
-4 -16 -8 -1 -4 -25 -25 -52 -45 -27 -20 -54 -37 -60 -37 -6 0 -29 -16 -51
-35 -22 -19 -45 -38 -51 -43 -5 -5 -30 -20 -53 -33 -32 -18 -45 -21 -48 -11
-3 7 -39 40 -81 73 -43 33 -113 88 -157 124 -44 35 -85 64 -92 65 -7 0 -17 9
-23 20 -9 16 -7 20 12 25 13 3 70 6 128 8 58 2 149 2 203 0z m-870 -17 c125
-6 155 -10 167 -24 8 -10 42 -37 75 -60 34 -23 66 -42 72 -42 6 0 67 -53 135
-117 68 -65 144 -140 171 -167 26 -27 47 -53 47 -57 0 -4 20 -15 44 -24 24 -9
57 -31 73 -49 17 -17 57 -52 89 -76 33 -24 122 -107 199 -185 77 -77 151 -148
165 -157 13 -10 28 -18 32 -18 4 0 19 -18 33 -40 14 -22 29 -40 35 -40 5 0 26
-12 47 -26 21 -14 52 -40 69 -57 17 -18 42 -42 55 -53 13 -12 29 -28 35 -35 6
-8 44 -40 83 -72 40 -32 86 -79 104 -105 18 -26 53 -67 80 -92 l47 -45 1 -70
c0 -39 4 -91 8 -117 4 -26 4 -53 0 -60 -7 -10 -9 -9 -9 3 0 9 -23 39 -50 67
-28 29 -57 52 -65 52 -8 0 -15 5 -15 11 0 6 -12 26 -27 44 -16 18 -48 60 -72
93 -24 32 -56 67 -71 76 -16 9 -52 45 -80 81 -28 36 -56 65 -61 65 -5 0 -50
37 -101 82 -50 45 -102 92 -114 105 -13 13 -31 23 -40 23 -9 0 -33 15 -54 33
-20 17 -53 46 -73 64 -20 17 -37 36 -37 42 0 6 -6 11 -12 11 -7 0 -50 38 -96
85 -46 47 -91 85 -100 85 -9 0 -39 23 -66 50 -27 28 -54 50 -59 50 -5 0 -24
12 -42 28 -18 15 -46 38 -63 52 -17 13 -36 36 -42 50 -6 14 -39 47 -74 75 -35
27 -72 62 -83 77 -10 16 -25 30 -33 33 -8 3 -28 17 -45 33 -16 15 -67 51 -113
80 -45 28 -87 52 -92 52 -6 0 -37 25 -70 55 -33 30 -65 55 -71 55 -6 0 -29 14
-50 31 -21 17 -39 35 -39 41 0 7 49 8 153 4z m-493 -24 c25 -3 55 -9 68 -13
12 -5 22 -13 22 -19 0 -5 7 -10 15 -10 8 0 15 -4 15 -8 0 -5 12 -15 27 -23 15
-8 36 -21 47 -29 10 -8 35 -29 55 -45 20 -17 65 -50 101 -75 36 -24 88 -60
115 -79 28 -19 53 -39 57 -46 4 -6 26 -18 48 -25 23 -8 45 -21 50 -30 5 -9 44
-45 87 -80 43 -35 97 -82 120 -104 l43 -40 -37 -38 c-20 -21 -42 -38 -48 -38
-5 0 -48 -23 -95 -51 -47 -29 -97 -58 -111 -65 -14 -8 -68 -23 -120 -33 -52
-11 -110 -22 -129 -25 -19 -3 -57 -10 -85 -16 -27 -6 -117 -19 -200 -30 -82
-11 -172 -22 -200 -24 -27 -2 -97 -7 -155 -11 -58 -4 -110 -12 -117 -17 -7 -5
-17 -7 -23 -3 -6 3 -34 2 -63 -4 -28 -6 -94 -13 -146 -16 -51 -3 -98 -8 -103
-11 -6 -4 -42 -11 -82 -16 -39 -5 -102 -13 -141 -17 -38 -5 -142 -19 -230 -30
-88 -12 -171 -26 -185 -31 -14 -5 -50 -12 -80 -15 -30 -4 -89 -13 -130 -22
-41 -9 -93 -19 -116 -22 -22 -4 -56 -16 -75 -27 -33 -20 -34 -21 -33 -85 1
-35 2 -84 4 -109 1 -25 8 -65 15 -90 7 -25 18 -63 24 -85 6 -22 13 -51 16 -65
2 -14 11 -43 19 -65 8 -22 15 -54 16 -72 0 -17 4 -43 10 -57 5 -14 14 -64 21
-111 l11 -87 -28 -29 c-25 -26 -26 -30 -12 -46 8 -10 18 -44 22 -77 l6 -59
-41 -36 c-23 -20 -60 -48 -83 -64 -23 -15 -92 -76 -155 -135 -62 -59 -141
-134 -175 -167 -34 -33 -102 -98 -151 -145 -50 -47 -121 -119 -158 -161 -37
-43 -80 -90 -95 -106 -15 -16 -58 -63 -97 -104 -38 -42 -92 -101 -119 -132
-27 -31 -54 -57 -61 -57 -7 0 -15 21 -19 53 -4 28 -6 149 -5 267 0 118 1 310
2 425 1 116 1 325 0 465 -1 140 0 329 2 420 1 91 5 341 9 555 3 215 9 423 12
463 3 41 10 87 14 104 5 17 5 76 -1 141 -6 62 -12 155 -13 207 -1 52 1 102 6
112 7 15 38 17 295 18 159 1 338 3 398 3 61 1 200 -2 310 -7 110 -5 261 -8
335 -8 74 1 209 6 300 12 91 5 226 13 300 16 74 3 142 7 150 10 8 3 66 12 130
19 63 8 147 19 185 25 39 6 142 17 230 24 88 7 180 10 205 8z m972 -782 c6 0
20 -7 30 -17 10 -9 18 -29 18 -45 0 -16 -6 -43 -14 -61 -7 -18 -25 -43 -39
-56 -15 -13 -37 -30 -49 -37 -13 -7 -47 -25 -75 -39 -29 -14 -55 -30 -58 -36
-4 -5 -15 -9 -25 -9 -10 0 -23 -6 -27 -13 -4 -7 -34 -25 -65 -41 -32 -16 -58
-32 -58 -37 0 -5 -27 -22 -60 -39 -33 -17 -60 -34 -60 -39 0 -4 -17 -16 -37
-27 -21 -10 -49 -29 -63 -41 -13 -13 -30 -23 -37 -23 -7 0 -17 -8 -22 -18 -5
-9 -43 -34 -85 -55 -41 -20 -80 -37 -86 -37 -5 0 -33 -11 -62 -25 -28 -14 -65
-25 -80 -25 -16 0 -37 -8 -48 -17 -10 -10 -41 -27 -67 -37 -26 -11 -66 -34
-87 -53 -22 -18 -49 -33 -61 -33 -12 0 -30 -9 -40 -20 -10 -11 -24 -20 -31
-20 -7 0 -25 -10 -41 -23 -15 -12 -41 -29 -56 -37 -16 -8 -38 -24 -50 -36 -12
-12 -32 -24 -44 -28 -13 -4 -41 -23 -64 -42 -22 -19 -46 -34 -51 -34 -6 0 -21
-11 -33 -24 -12 -13 -33 -27 -46 -31 -13 -4 -42 -22 -63 -38 -22 -17 -46 -32
-53 -33 -8 -1 -29 -14 -48 -28 -18 -14 -41 -26 -49 -26 -9 0 -35 -15 -59 -33
-23 -18 -61 -39 -85 -46 -23 -8 -48 -24 -56 -36 -8 -12 -34 -29 -58 -37 -23
-9 -54 -19 -68 -22 -14 -3 -29 -4 -33 -3 -4 1 -11 -3 -15 -8 -4 -6 -20 -16
-35 -23 -15 -6 -41 -12 -57 -12 -17 0 -29 -4 -28 -8 2 -5 -19 -32 -46 -60 -28
-29 -54 -52 -59 -52 -4 0 -6 46 -4 102 3 91 6 103 27 120 12 10 30 18 38 18 9
0 39 11 67 24 27 13 71 33 96 44 25 11 51 27 58 35 7 9 27 19 44 23 18 3 34
10 37 14 3 4 30 22 60 41 30 19 73 43 95 53 22 11 53 30 68 42 16 13 35 24 44
24 8 0 32 18 54 40 22 22 49 40 61 40 11 0 38 16 59 35 21 19 51 38 66 41 16
4 42 20 58 36 17 17 42 36 56 44 15 7 37 26 50 41 13 15 35 34 49 40 14 7 51
22 83 33 33 11 74 33 93 50 19 16 47 33 62 36 15 4 29 10 32 14 3 4 32 24 66
44 34 19 81 38 105 42 24 4 51 12 59 19 8 7 31 15 51 19 20 3 47 18 60 32 13
14 48 39 77 56 30 17 63 39 75 50 12 11 39 33 61 49 21 16 45 29 53 29 8 0 42
26 76 58 34 33 85 70 112 84 28 14 66 33 85 41 19 8 59 22 88 32 29 9 56 23
59 31 3 8 23 17 44 20 22 4 42 11 45 15 3 5 10 9 16 9z m1279 -177 c39 -1 75
-5 80 -10 4 -4 9 -49 11 -100 1 -50 0 -94 -3 -97 -3 -4 -51 39 -106 94 -55 55
-98 102 -95 104 2 3 10 2 17 0 7 -3 15 -2 18 3 3 5 38 8 78 6z m-1146 -18 c28
-2 59 -5 70 -5 11 0 37 0 59 0 23 0 49 -9 64 -21 14 -11 89 -79 166 -152 77
-72 156 -148 176 -168 19 -19 118 -121 220 -225 102 -104 230 -238 285 -298
55 -60 109 -119 120 -130 11 -12 30 -33 43 -47 17 -19 24 -42 27 -85 2 -33 7
-108 10 -169 3 -60 12 -177 20 -260 8 -82 20 -195 26 -250 6 -55 13 -110 15
-122 2 -13 6 -89 8 -170 2 -82 8 -182 15 -223 6 -41 17 -145 26 -230 8 -85 17
-167 21 -182 6 -25 3 -27 -32 -33 -22 -4 -52 -10 -69 -15 -16 -5 -105 -11
-196 -14 -92 -3 -173 -8 -180 -11 -8 -2 -81 -12 -164 -20 -82 -9 -175 -20
-205 -25 -30 -5 -89 -13 -130 -18 -41 -6 -138 -13 -215 -17 -93 -4 -163 -3
-210 5 -38 7 -86 13 -105 15 -19 2 -59 6 -88 9 -30 4 -102 8 -160 10 -59 1
-165 -3 -237 -9 -71 -7 -159 -18 -195 -24 -36 -7 -99 -20 -140 -29 -52 -12
-111 -16 -195 -15 -66 2 -154 9 -195 17 -41 8 -92 17 -113 21 -29 5 -40 13
-49 33 -6 15 -15 47 -20 72 -5 25 -16 95 -24 155 -8 61 -17 148 -20 195 -3 47
-9 96 -14 110 -5 14 -12 86 -16 160 -4 74 -8 160 -10 190 -1 30 -7 91 -14 135
-6 44 -13 109 -16 145 -2 36 -9 90 -15 120 -5 30 -15 123 -21 205 -6 83 -8
171 -4 197 l7 47 52 1 c29 0 84 2 122 4 39 2 129 9 200 16 72 6 141 16 155 22
14 6 50 15 80 20 30 5 102 13 160 17 58 4 125 4 150 0 25 -4 90 -12 145 -19
55 -6 163 -13 240 -16 77 -3 145 -5 150 -5 6 0 53 5 105 10 52 6 111 13 130
17 19 4 60 6 90 5 30 -1 58 -8 63 -14 5 -7 5 -61 0 -122 -4 -60 -7 -182 -6
-270 1 -88 6 -187 12 -220 6 -33 14 -89 18 -125 3 -36 6 -83 7 -105 l1 -40
-140 -6 c-77 -3 -175 -11 -217 -18 -42 -7 -132 -13 -200 -14 -94 -2 -137 2
-183 16 -50 15 -82 17 -201 12 -109 -4 -155 -2 -199 10 -32 8 -61 17 -64 21
-3 3 -7 42 -8 87 -1 45 -3 82 -3 82 -1 0 -3 9 -5 20 -2 11 -7 42 -10 69 -4 30
-1 74 6 109 11 46 19 61 37 68 12 5 46 11 75 14 29 3 81 7 117 10 36 3 90 12
120 20 30 7 91 18 135 24 44 6 123 11 176 11 61 0 112 6 139 15 24 8 45 13 47
11 2 -2 11 -61 20 -130 14 -102 14 -129 4 -135 -7 -4 -42 -7 -77 -6 -36 2 -69
7 -74 11 -4 5 -4 40 1 77 8 62 7 69 -13 89 -16 16 -33 22 -68 21 -25 0 -64 -9
-86 -20 -28 -14 -58 -19 -109 -19 -70 1 -70 1 -88 -33 -16 -28 -18 -49 -13
-138 4 -72 10 -108 20 -119 8 -8 30 -17 48 -21 18 -3 38 -10 45 -15 7 -6 63
-11 125 -11 90 -2 118 1 138 14 19 13 57 18 158 21 116 4 136 7 153 25 19 18
19 24 7 139 -6 65 -16 122 -22 126 -6 4 -12 55 -14 115 -1 59 -7 110 -11 113
-4 3 -14 16 -20 28 -7 13 -27 30 -46 37 -19 9 -54 13 -88 10 -31 -2 -66 -9
-78 -16 -13 -6 -67 -11 -136 -10 -78 1 -144 -5 -206 -18 -51 -11 -135 -23
-187 -27 -52 -3 -128 -15 -169 -25 -41 -11 -93 -19 -117 -19 -34 0 -47 -5 -63
-26 -19 -24 -21 -36 -15 -126 4 -71 3 -103 -6 -113 -10 -12 -10 -33 0 -97 6
-46 16 -90 21 -100 5 -10 10 -65 11 -122 1 -89 4 -108 19 -122 12 -11 17 -25
13 -39 -3 -13 0 -34 7 -47 6 -12 17 -26 23 -30 6 -4 25 -8 41 -8 17 0 51 7 76
14 28 9 98 15 170 16 68 1 135 -1 149 -4 14 -3 54 -13 90 -21 36 -9 84 -20
108 -25 32 -7 68 -5 145 11 56 11 174 26 262 33 88 7 178 11 200 8 22 -2 47
-10 55 -18 9 -7 32 -14 52 -16 20 -1 44 4 53 12 9 8 27 19 39 25 16 8 22 21
24 55 2 24 -3 67 -12 95 -8 27 -18 104 -21 169 -3 65 -8 122 -10 127 -3 4 -11
43 -18 86 -8 43 -12 121 -11 173 2 52 7 122 11 155 4 33 7 127 7 209 l-1 150
-28 22 c-16 12 -41 25 -57 28 -15 3 -41 9 -58 12 -23 5 -30 3 -30 -10 0 -9 -1
-16 -2 -17 -2 0 -66 -5 -143 -9 -77 -5 -176 -13 -220 -19 -44 -5 -123 -11
-175 -13 -52 -1 -133 3 -180 10 -47 7 -101 15 -120 17 -19 3 -54 10 -77 16
-24 6 -87 10 -145 7 -57 -2 -110 -8 -118 -13 -8 -5 -22 -10 -30 -11 -8 -1 -44
-7 -80 -13 -36 -6 -114 -18 -175 -27 -60 -8 -149 -18 -197 -21 -59 -4 -88 -2
-88 5 0 5 19 20 43 32 23 11 49 25 57 30 8 5 29 15 45 23 17 7 68 34 115 59
47 25 114 64 150 86 36 22 117 71 180 108 63 37 167 102 230 144 63 42 178
116 255 165 77 48 151 97 165 107 14 11 63 44 110 75 47 30 108 68 135 84 43
25 57 29 100 24z m-998 -108 c29 1 32 -1 23 -17 -5 -10 -20 -20 -32 -23 -13
-4 -33 -15 -44 -26 -12 -10 -36 -27 -55 -36 -19 -10 -47 -28 -64 -40 -16 -12
-37 -25 -45 -29 -8 -3 -51 -26 -95 -51 -44 -24 -94 -51 -112 -59 -17 -8 -55
-29 -85 -48 -29 -19 -75 -44 -102 -57 -26 -12 -65 -32 -85 -45 -20 -12 -65
-38 -101 -56 -36 -19 -80 -45 -99 -59 -19 -13 -68 -42 -110 -63 -41 -21 -80
-43 -85 -48 -6 -6 -20 -10 -32 -10 -12 0 -36 -11 -52 -25 -17 -14 -34 -25 -38
-25 -5 0 -20 -10 -34 -21 -14 -11 -68 -48 -120 -82 -52 -35 -117 -76 -144 -92
-26 -17 -56 -35 -66 -40 -10 -6 -25 -17 -33 -24 -9 -7 -21 -10 -27 -6 -5 3
-10 30 -10 58 0 29 -6 77 -13 107 -7 30 -14 80 -15 110 -2 33 -12 75 -27 105
-13 28 -29 73 -35 100 -7 28 -14 93 -17 145 l-6 95 54 18 c30 10 80 22 111 27
31 5 110 21 175 35 65 14 134 30 153 34 19 5 80 13 135 16 55 4 132 14 170 21
39 8 97 17 130 19 33 3 127 13 208 24 94 12 159 16 178 11 16 -5 31 -5 34 0 3
4 19 10 37 14 18 3 74 8 123 12 50 3 119 11 155 17 36 7 80 13 97 14z m2400
-617 c2 0 57 -55 124 -122 67 -68 141 -152 165 -188 24 -36 60 -87 79 -115 19
-27 59 -75 88 -105 30 -30 63 -72 76 -92 12 -20 38 -51 58 -68 20 -18 71 -72
114 -121 43 -49 82 -101 85 -116 4 -14 18 -43 31 -62 13 -20 36 -48 51 -62 15
-15 48 -49 74 -76 26 -27 58 -70 71 -95 13 -25 36 -61 51 -79 15 -19 49 -64
75 -100 26 -36 53 -80 59 -98 6 -18 20 -44 32 -58 11 -14 20 -32 20 -40 0 -8
6 -29 14 -46 8 -18 24 -54 35 -81 12 -27 21 -63 21 -82 0 -18 5 -36 10 -39 6
-3 10 -16 10 -28 0 -12 7 -33 15 -47 8 -14 19 -36 26 -50 6 -14 12 -35 14 -47
1 -13 8 -29 14 -37 7 -8 10 -19 8 -24 -3 -4 3 -27 14 -51 10 -24 19 -54 19
-67 0 -12 5 -26 11 -30 7 -4 9 -21 5 -45 -3 -22 -3 -39 2 -39 4 0 13 -15 20
-33 7 -20 12 -89 12 -168 0 -74 5 -154 11 -179 6 -25 12 -99 12 -165 1 -78 -3
-128 -11 -143 -8 -14 -13 -66 -13 -140 0 -64 -7 -151 -16 -192 -8 -41 -25 -97
-36 -125 -12 -27 -27 -54 -34 -58 -7 -4 -13 -17 -13 -28 0 -11 -7 -30 -14 -42
-9 -13 -17 -59 -20 -118 -4 -80 -9 -104 -32 -145 -25 -45 -27 -57 -25 -146 2
-64 -1 -98 -8 -98 -6 0 -14 -18 -17 -40 -4 -22 -10 -40 -15 -40 -5 0 -9 -11
-9 -25 0 -13 -9 -40 -20 -60 -11 -20 -20 -46 -20 -58 0 -12 -9 -53 -19 -90
-10 -37 -26 -76 -34 -85 -8 -9 -20 -35 -26 -58 -6 -22 -20 -49 -31 -59 -11
-10 -20 -21 -20 -26 0 -4 -17 -38 -39 -76 -21 -37 -42 -88 -46 -113 -4 -25
-14 -54 -21 -65 -8 -11 -14 -27 -14 -36 0 -9 -7 -30 -15 -47 -9 -17 -29 -45
-45 -62 -17 -18 -30 -38 -30 -46 0 -8 -4 -14 -10 -14 -5 0 -10 -9 -10 -19 0
-11 -16 -43 -35 -72 -19 -30 -35 -59 -35 -66 0 -7 -8 -17 -19 -22 -13 -7 -17
-18 -14 -36 4 -17 0 -27 -11 -31 -9 -3 -21 -24 -26 -46 -6 -21 -18 -47 -26
-56 -8 -9 -30 -35 -49 -57 -19 -22 -35 -47 -35 -55 0 -8 -9 -26 -20 -40 -11
-14 -20 -30 -20 -36 0 -6 -7 -17 -15 -24 -8 -7 -15 -18 -15 -26 0 -7 -14 -33
-31 -58 -16 -25 -35 -49 -42 -53 -7 -4 -18 -8 -26 -9 -7 -2 -20 -13 -29 -26
-9 -13 -35 -41 -59 -62 -24 -22 -43 -45 -43 -52 0 -6 -7 -15 -15 -18 -9 -3
-15 -14 -13 -23 2 -11 -6 -22 -19 -28 -13 -5 -23 -13 -23 -16 0 -3 -16 -23
-36 -44 -19 -21 -53 -65 -75 -98 -21 -34 -39 -64 -39 -68 0 -4 -13 -12 -30
-19 -16 -7 -30 -16 -30 -20 0 -4 -24 -31 -52 -59 -29 -28 -58 -51 -64 -51 -7
0 -38 -24 -70 -54 -33 -29 -76 -69 -96 -87 -21 -19 -38 -39 -38 -46 0 -7 -10
-18 -22 -24 -13 -7 -29 -21 -37 -32 -7 -10 -29 -25 -47 -33 -18 -8 -43 -14
-54 -14 -12 0 -33 -14 -47 -30 -14 -17 -48 -42 -75 -56 -29 -15 -62 -24 -79
-22 -17 1 -33 -2 -37 -7 -4 -6 -21 -19 -37 -31 -17 -12 -45 -24 -63 -28 -17
-3 -46 -9 -63 -12 -17 -4 -34 -14 -36 -23 -2 -9 -20 -24 -39 -33 -19 -10 -40
-18 -46 -18 -6 0 -26 -13 -44 -30 -19 -16 -47 -33 -62 -36 -15 -4 -47 -17 -72
-30 -25 -13 -51 -24 -58 -24 -7 0 -19 -6 -27 -13 -7 -7 -50 -22 -96 -32 -46
-10 -98 -26 -115 -36 -17 -9 -46 -20 -65 -24 -19 -4 -43 -12 -54 -19 -11 -6
-33 -12 -50 -13 -16 -1 -50 -7 -75 -13 -25 -6 -54 -17 -65 -24 -11 -6 -38 -17
-60 -23 -22 -6 -67 -19 -100 -27 -33 -9 -94 -23 -135 -31 -41 -7 -122 -21
-179 -31 -82 -13 -135 -15 -250 -10 -80 4 -158 7 -174 6 -15 0 -39 8 -54 17
-23 15 -53 18 -192 19 -92 1 -179 7 -194 13 -16 6 -52 11 -80 11 -29 0 -68 6
-88 13 -20 7 -43 18 -50 24 -8 6 -30 13 -49 16 -19 3 -57 10 -84 16 -28 6 -52
15 -56 20 -3 6 -26 11 -52 12 -26 2 -45 6 -43 10 3 4 -2 9 -10 13 -8 3 -21 3
-29 0 -7 -3 -37 3 -66 12 -29 9 -64 28 -77 40 -14 13 -29 21 -34 18 -5 -3 -19
1 -31 8 -13 7 -26 11 -31 10 -4 -1 -28 3 -52 9 -25 6 -45 15 -45 19 0 4 -19
15 -42 26 -24 10 -54 31 -67 46 -13 15 -32 28 -41 28 -10 0 -28 8 -41 18 -13
11 -40 24 -59 31 -19 6 -47 24 -63 38 -18 18 -39 28 -62 29 -21 0 -41 9 -52
21 -10 12 -40 29 -68 39 -27 10 -61 25 -75 34 -14 10 -36 21 -50 25 -14 4 -39
20 -57 35 -17 16 -56 37 -87 49 -31 11 -73 32 -93 45 -21 14 -58 43 -82 65
-25 23 -48 41 -53 41 -5 0 -40 28 -78 63 -38 34 -82 72 -99 85 -17 13 -31 29
-31 35 0 6 -19 30 -42 52 -24 22 -103 103 -175 179 -73 77 -133 145 -133 153
0 7 -7 16 -15 19 -8 4 -15 12 -15 20 0 8 -3 14 -8 14 -4 0 -23 28 -42 63 -18
34 -39 67 -46 72 -7 6 -24 24 -36 42 -13 17 -42 56 -64 85 -23 29 -61 73 -84
97 -23 25 -50 56 -58 70 -9 15 -21 32 -27 40 -5 7 -22 26 -37 41 -16 16 -28
33 -28 38 0 6 -10 23 -23 39 -12 15 -28 37 -35 48 -7 11 -25 47 -41 80 -15 33
-38 69 -50 79 -11 11 -21 26 -21 35 0 9 -11 40 -25 69 -14 30 -25 64 -25 76 0
12 -9 39 -20 60 -10 21 -26 46 -34 55 -8 9 -20 45 -26 81 -7 36 -22 97 -35
135 -16 51 -26 116 -34 235 -7 91 -18 194 -26 230 -8 36 -16 79 -19 95 -2 17
0 52 5 79 6 30 5 53 0 60 -6 7 -12 36 -14 66 -2 30 2 80 9 110 7 30 11 87 9
125 -2 39 -7 84 -10 100 -5 23 1 46 21 88 14 32 35 62 45 67 10 6 19 20 21 32
2 13 9 22 17 20 7 -1 22 0 32 3 11 4 28 24 39 45 11 21 24 55 29 77 5 21 19
73 31 115 11 43 31 98 44 122 13 25 33 58 45 74 12 17 32 53 45 82 13 28 37
67 52 87 16 19 51 58 77 86 27 28 55 66 64 84 8 18 47 66 87 107 39 41 80 85
91 98 12 13 50 52 87 86 61 60 65 62 62 35 -2 -15 -5 -55 -6 -88 -1 -59 -3
-63 -82 -170 -45 -60 -92 -126 -106 -145 -13 -19 -40 -52 -60 -73 -19 -21 -54
-74 -77 -118 -22 -44 -47 -86 -53 -94 -7 -8 -9 -15 -5 -15 4 0 -7 -16 -23 -35
-17 -19 -35 -51 -41 -71 -6 -20 -19 -46 -29 -58 -10 -12 -27 -46 -36 -76 -10
-30 -25 -67 -34 -81 -10 -14 -26 -39 -37 -55 -10 -16 -29 -41 -41 -55 -19 -24
-20 -32 -10 -79 6 -32 7 -54 1 -58 -6 -4 -20 -22 -33 -39 -16 -23 -21 -40 -16
-58 3 -14 1 -31 -5 -38 -6 -8 -13 -95 -17 -213 -3 -109 -8 -202 -10 -205 -2
-3 1 -21 6 -40 6 -19 13 -92 16 -164 3 -71 7 -141 8 -155 2 -14 9 -52 15 -85
6 -33 17 -96 25 -140 8 -44 22 -96 31 -115 8 -19 19 -42 24 -50 5 -8 14 -31
20 -51 6 -19 11 -44 11 -55 0 -11 4 -24 9 -29 5 -6 25 -41 45 -80 19 -38 42
-79 51 -90 8 -11 31 -45 50 -75 19 -30 35 -62 35 -71 0 -9 9 -24 20 -34 11
-10 20 -24 20 -31 0 -7 6 -17 13 -21 6 -4 17 -15 22 -24 6 -8 24 -36 40 -60
17 -25 49 -65 71 -89 23 -25 71 -78 107 -118 36 -41 68 -86 72 -100 4 -15 25
-49 49 -77 23 -27 50 -63 61 -80 10 -16 27 -36 37 -43 10 -7 24 -25 32 -40 8
-15 92 -105 188 -201 95 -95 192 -189 216 -208 23 -20 42 -44 42 -54 0 -12 7
-19 19 -19 10 0 21 -7 25 -15 3 -8 14 -15 25 -15 11 0 41 -15 66 -32 26 -18
56 -39 68 -45 12 -7 30 -13 39 -13 10 0 22 -9 28 -20 6 -11 18 -20 26 -20 8 0
32 -8 52 -18 20 -10 55 -29 77 -41 22 -13 44 -27 50 -32 5 -5 17 -9 28 -9 10
0 30 -14 44 -31 15 -18 32 -28 40 -25 8 4 27 -2 41 -12 15 -10 41 -24 59 -31
17 -7 44 -26 60 -42 15 -15 33 -29 40 -29 7 0 29 -10 50 -22 21 -11 62 -34 92
-50 29 -15 62 -28 72 -28 10 0 48 -13 82 -30 35 -16 70 -30 78 -30 8 0 19 -4
24 -8 6 -5 42 -17 80 -27 39 -11 77 -20 85 -21 8 0 49 -9 90 -17 41 -9 89 -20
105 -25 17 -4 34 -18 40 -30 5 -11 21 -24 35 -28 14 -3 57 -8 96 -10 39 -2 88
-10 110 -17 22 -8 61 -12 89 -10 28 2 64 4 80 4 17 0 50 0 75 0 25 0 90 0 145
0 55 0 174 -4 265 -9 92 -5 174 -5 185 -1 11 5 58 13 105 18 47 5 114 16 150
25 36 8 79 15 97 16 17 0 38 6 45 14 8 7 41 16 73 19 33 4 68 6 78 7 9 0 17 6
17 13 0 6 26 21 58 31 31 10 68 20 80 22 13 1 31 9 40 17 10 8 33 17 52 21 19
3 71 18 115 34 44 15 94 35 111 45 17 9 42 17 55 19 13 2 44 18 68 36 24 18
52 32 62 32 10 0 55 19 101 42 45 23 93 41 107 40 13 -1 29 4 35 12 6 8 33 26
60 40 27 14 62 26 77 26 16 0 29 5 29 10 0 6 21 24 47 40 26 17 54 30 62 30 9
0 28 11 42 24 15 13 30 33 34 45 3 11 15 21 25 21 10 0 24 10 33 23 8 12 29
37 46 55 17 17 38 32 46 32 9 0 21 11 27 25 6 14 14 26 17 26 3 1 19 3 36 5
16 2 31 8 33 13 2 6 18 19 37 31 18 11 40 36 49 55 10 19 28 43 42 52 14 9 30
27 35 40 5 13 15 23 22 23 8 0 22 15 31 33 10 17 32 39 50 47 18 9 30 21 28
31 -1 9 24 39 58 70 33 29 64 67 70 84 6 16 26 48 45 70 19 22 35 46 35 53 0
7 11 28 25 46 14 18 25 38 25 44 0 5 14 22 30 35 17 14 30 30 30 35 0 5 11 19
25 32 14 13 25 27 25 32 0 4 14 21 30 36 17 16 30 37 30 46 0 9 7 31 16 49 9
18 22 39 29 47 7 8 18 34 24 56 6 23 18 47 26 54 8 7 15 18 15 25 0 6 9 20 19
29 11 10 22 30 25 44 4 15 16 51 28 80 11 28 24 52 28 52 4 0 16 19 27 43 11
23 21 53 21 66 1 13 10 32 21 43 12 10 21 29 21 41 0 12 14 49 31 81 17 33 46
80 64 105 18 25 38 65 44 89 7 23 15 42 20 42 4 0 15 27 24 60 10 33 17 83 17
112 1 29 7 64 15 78 8 14 15 43 15 65 0 22 7 51 15 65 8 14 14 39 15 57 0 17
-4 42 -9 56 -7 19 0 42 36 117 37 79 45 104 44 153 0 37 6 68 15 82 8 13 17
36 19 52 2 15 10 42 17 58 8 17 25 48 38 70 14 22 25 42 25 45 1 3 5 28 9 55
5 28 10 115 11 195 1 95 6 153 14 169 9 17 11 45 6 100 -4 42 -7 113 -6 159 1
55 7 94 17 114 13 25 15 54 12 152 -4 89 -11 137 -27 181 -11 32 -21 70 -21
82 0 13 -4 31 -9 41 -6 9 -22 42 -36 72 -15 30 -34 75 -42 100 -9 25 -18 58
-20 75 -2 16 -17 49 -33 72 -17 23 -30 47 -30 55 0 8 -16 38 -35 68 -19 30
-35 59 -35 66 0 6 -14 38 -31 70 -17 32 -47 84 -67 114 -19 30 -48 71 -62 90
-15 19 -33 52 -41 73 -7 20 -18 37 -24 37 -7 0 -30 17 -52 38 -22 20 -43 45
-46 54 -4 10 -27 33 -53 50 -25 18 -55 50 -65 70 -10 21 -19 43 -19 51 0 7 -8
22 -17 33 -10 11 -43 49 -73 84 -30 36 -59 71 -65 78 -5 7 -28 34 -50 61 -22
27 -53 56 -68 66 -16 9 -35 32 -43 51 -8 18 -34 50 -59 70 -25 21 -51 55 -60
78 -9 22 -36 60 -61 85 -24 25 -44 51 -44 56 0 6 -10 15 -22 20 -13 6 -31 26
-40 45 -11 23 -18 68 -20 133 -2 53 -2 97 -1 97z m-3237 -358 c3 -2 6 -74 6
-160 1 -87 9 -224 17 -307 8 -82 21 -184 27 -225 6 -41 15 -104 20 -140 5 -36
14 -121 20 -190 6 -69 13 -161 15 -205 3 -44 7 -114 10 -155 2 -41 7 -100 11
-130 3 -30 7 -68 9 -85 2 -16 11 -55 18 -85 8 -30 21 -102 28 -159 12 -89 17
-106 36 -118 13 -9 51 -17 86 -20 34 -2 73 -7 87 -10 14 -3 29 -5 33 -5 4 1
17 -3 29 -9 12 -6 58 -13 102 -14 45 -2 108 3 141 10 33 8 112 21 175 30 63
10 126 22 140 27 14 5 90 12 170 14 80 3 199 5 265 6 66 0 132 -5 147 -11 15
-5 76 -15 135 -21 60 -6 187 -9 283 -7 96 2 213 11 260 20 47 8 99 21 115 27
17 7 71 13 120 15 50 1 106 5 125 9 19 3 149 8 288 10 180 3 257 8 267 16 10
8 29 10 58 5 23 -4 61 -9 84 -11 39 -4 42 -3 48 25 3 16 8 62 10 102 2 41 -2
111 -10 157 -8 46 -17 87 -20 92 -3 5 -12 48 -21 97 -9 48 -17 104 -17 123 0
19 -7 109 -15 200 -8 91 -17 215 -22 275 -4 61 -17 197 -29 304 -16 136 -19
197 -12 204 6 6 11 26 11 44 0 18 2 33 5 33 3 0 13 -8 23 -18 10 -10 31 -36
47 -57 16 -22 45 -58 65 -80 19 -22 46 -56 60 -75 14 -18 41 -52 60 -75 19
-23 64 -81 100 -130 36 -48 70 -95 75 -104 6 -9 24 -35 40 -56 17 -22 70 -100
119 -173 72 -110 89 -142 96 -190 5 -31 10 -84 10 -117 0 -33 4 -100 9 -149 5
-49 8 -146 6 -215 -1 -69 -8 -180 -16 -246 -7 -66 -13 -212 -14 -325 0 -113 2
-304 5 -425 l5 -219 -40 -9 c-22 -5 -58 -10 -80 -13 -22 -2 -85 -9 -140 -15
-55 -6 -104 -14 -110 -17 -5 -4 -26 -7 -45 -8 -19 0 -71 -7 -115 -14 -44 -7
-136 -14 -205 -16 -69 -2 -186 -8 -260 -13 -74 -5 -243 -13 -375 -17 -132 -4
-253 -7 -270 -6 -16 1 -187 3 -380 4 -192 2 -356 7 -363 11 -7 5 -37 8 -68 8
-30 0 -69 6 -87 14 -18 7 -67 16 -110 19 -43 3 -107 10 -142 16 -35 6 -85 12
-112 15 -26 3 -122 5 -213 5 -91 0 -264 -2 -385 -5 -121 -2 -263 -9 -315 -15
-52 -7 -124 -13 -160 -16 -36 -2 -152 -5 -259 -6 l-194 -3 -18 52 c-9 28 -20
80 -24 115 -4 35 -9 67 -12 71 -3 5 -5 25 -5 45 1 20 -5 51 -12 67 -8 17 -17
80 -21 140 -4 61 -7 117 -7 125 0 8 -6 60 -15 115 -8 55 -16 109 -18 120 -2
11 -10 58 -18 105 -9 47 -18 112 -22 145 -3 33 -8 67 -10 75 -2 8 -13 92 -25
185 -11 94 -23 195 -27 225 -4 30 -7 66 -8 80 -1 14 -5 40 -10 58 -4 17 -11
32 -14 32 -4 0 -8 35 -8 78 0 42 -3 100 -6 127 -4 28 -9 84 -11 125 -3 41 -9
102 -14 135 -5 32 -7 100 -4 150 l4 90 54 53 c29 28 59 52 65 52 6 0 28 13 48
28 20 16 78 56 129 90 51 34 97 62 103 62 6 0 24 11 39 24 16 13 59 40 97 61
37 21 97 57 134 81 36 23 76 44 90 46 13 2 26 2 29 0z m-988 -312 c4 0 8 -49
8 -109 0 -101 -2 -110 -20 -116 -11 -3 -20 -13 -20 -20 0 -8 -16 -29 -36 -47
-20 -18 -42 -37 -48 -43 -6 -5 -29 -24 -51 -41 -22 -17 -49 -36 -60 -42 -11
-6 -36 -27 -55 -48 -19 -21 -72 -74 -117 -119 -46 -45 -83 -85 -83 -88 0 -4
-35 -42 -79 -85 -53 -53 -90 -100 -115 -148 -19 -38 -52 -85 -71 -104 -19 -19
-35 -39 -35 -44 0 -6 -15 -27 -33 -47 -17 -20 -48 -55 -67 -79 -19 -23 -54
-61 -77 -85 -24 -24 -43 -51 -43 -62 0 -10 -22 -43 -50 -72 -27 -29 -50 -58
-50 -65 0 -6 -4 -5 -9 3 -5 8 -9 58 -9 112 -1 96 0 99 28 121 15 13 37 41 48
63 11 22 30 49 41 59 12 11 29 36 38 55 9 20 43 68 75 108 32 39 58 81 58 92
0 11 11 28 25 37 14 9 25 22 25 29 0 8 28 44 63 81 34 37 86 92 115 121 28 30
52 59 52 65 0 5 7 8 15 4 8 -3 21 2 27 10 7 9 25 28 41 42 15 15 27 30 27 34
0 4 10 20 23 34 12 15 31 35 41 45 11 11 25 19 31 19 7 0 17 11 23 25 6 14 16
25 22 25 6 0 18 6 26 13 9 6 23 19 32 28 9 9 37 40 61 68 25 28 49 51 55 51 6
0 28 16 49 35 20 20 37 38 37 42 0 3 7 15 17 25 9 10 20 18 25 18z m2320 -271
c18 0 42 -4 53 -9 15 -6 8 -9 -27 -9 -26 -1 -50 4 -53 9 -4 6 7 10 27 9z
m-2288 -52 c5 -2 9 -34 8 -72 -1 -37 2 -73 7 -79 5 -6 12 -33 16 -61 4 -27 7
-63 6 -80 0 -16 7 -82 15 -145 8 -63 17 -128 20 -145 3 -16 7 -55 10 -85 2
-30 9 -116 15 -190 6 -74 12 -153 14 -175 2 -22 6 -51 8 -65 2 -14 9 -50 16
-80 7 -30 17 -76 22 -101 5 -25 7 -53 4 -62 -4 -9 -2 -32 5 -52 6 -19 16 -81
21 -138 4 -56 13 -147 18 -202 6 -55 15 -120 20 -145 6 -25 13 -63 16 -85 3
-22 12 -101 20 -175 8 -74 22 -161 31 -192 10 -33 14 -72 11 -92 -4 -26 0 -43
16 -68 15 -22 34 -35 57 -39 19 -4 55 -5 80 -2 25 3 50 10 57 15 6 5 31 9 55
10 23 0 93 6 153 14 61 7 151 13 200 13 50 0 124 4 165 10 41 6 122 14 180 17
58 4 159 8 225 8 66 1 190 0 275 -1 85 0 182 -1 215 -2 33 -1 92 -8 130 -16
39 -8 102 -19 140 -24 39 -6 93 -15 120 -20 28 -5 120 -12 205 -15 85 -4 281
-7 435 -7 154 1 350 4 435 7 85 3 164 6 175 6 11 0 70 -2 130 -4 61 -3 150 -1
200 3 49 5 169 13 266 19 97 5 189 15 205 21 16 7 70 16 119 21 50 5 140 13
200 18 61 5 122 12 137 15 17 5 35 2 50 -9 12 -9 33 -16 46 -16 13 0 35 6 50
14 15 8 35 23 45 34 18 19 18 27 7 111 -7 50 -10 105 -7 123 3 18 1 71 -4 118
-5 47 -13 112 -17 145 -4 33 -7 155 -7 270 1 116 4 239 7 275 4 36 8 174 9
308 1 133 6 242 10 242 4 0 17 -21 29 -47 12 -27 26 -55 31 -63 5 -8 25 -48
44 -87 19 -40 48 -114 65 -164 16 -49 30 -96 30 -103 0 -7 8 -24 18 -37 11
-13 22 -40 25 -59 3 -19 9 -48 12 -65 3 -16 10 -55 15 -85 5 -30 12 -90 15
-132 3 -42 6 -139 6 -215 1 -76 -4 -195 -10 -264 -6 -69 -16 -141 -21 -160 -6
-19 -10 -48 -10 -66 0 -18 -7 -58 -16 -90 -8 -32 -24 -96 -35 -143 -10 -47
-25 -106 -32 -132 -7 -26 -16 -50 -20 -54 -4 -4 -7 -19 -7 -33 0 -14 -14 -78
-31 -141 -17 -63 -35 -137 -40 -165 -6 -27 -19 -81 -30 -120 -12 -38 -25 -80
-30 -93 -5 -13 -9 -32 -9 -42 0 -11 -7 -41 -15 -67 -8 -26 -22 -73 -31 -103
-9 -30 -24 -75 -34 -100 -10 -25 -23 -57 -28 -72 -11 -27 -12 -27 -89 -23 -43
2 -136 9 -208 15 -71 5 -152 12 -180 14 -27 2 -106 9 -175 15 -69 6 -134 13
-145 15 -11 3 -186 10 -390 16 -203 6 -388 13 -410 16 -22 2 -74 8 -115 13
-41 5 -147 14 -235 21 -88 6 -212 13 -275 16 -63 3 -142 7 -175 10 -33 3 -172
9 -310 15 -137 5 -344 7 -460 4 -115 -3 -237 -8 -270 -10 -33 -3 -91 -7 -130
-10 -38 -2 -97 -7 -130 -10 -33 -3 -76 -8 -95 -11 -19 -3 -55 -7 -80 -8 -25
-2 -92 -8 -150 -14 -58 -6 -125 -14 -150 -17 -25 -3 -79 -10 -120 -15 -41 -6
-104 -15 -140 -20 -36 -5 -99 -12 -140 -16 -41 -3 -86 -8 -100 -10 -14 -2 -90
-9 -170 -14 -80 -6 -176 -15 -215 -20 -38 -6 -160 -14 -270 -19 -110 -6 -211
-9 -224 -7 -14 1 -28 9 -32 17 -4 8 -18 37 -31 64 -12 28 -22 53 -20 58 1 4
-7 33 -18 65 -11 31 -31 91 -45 132 -14 41 -30 84 -35 95 -4 11 -18 47 -31 80
-12 33 -26 64 -31 69 -4 6 -8 20 -8 32 0 12 -7 27 -15 34 -8 7 -12 16 -9 22 3
5 1 15 -5 21 -5 7 -19 52 -29 100 -11 48 -26 94 -32 103 -7 8 -19 49 -27 92
-8 42 -18 100 -24 127 -5 28 -13 75 -18 105 -5 30 -6 59 -4 63 3 4 0 13 -5 20
-6 7 -13 37 -17 67 -3 30 -8 82 -11 115 -3 33 -12 110 -20 170 -8 61 -19 144
-25 185 -5 41 -11 100 -14 130 -3 30 -10 109 -16 175 -6 66 -13 127 -15 135
-3 8 -8 71 -11 140 -3 69 -7 127 -9 129 -2 2 7 18 19 35 12 17 22 34 22 37 0
4 20 30 44 58 25 29 58 67 75 85 17 18 54 61 81 96 28 34 59 72 71 84 11 11
61 66 111 121 50 55 137 147 195 205 57 58 166 164 243 235 76 72 170 160 209
198 38 37 75 66 80 64z m-1322 -1457 c4 0 8 -6 9 -12 0 -7 2 -20 4 -28 2 -8 9
-33 14 -54 5 -21 14 -42 20 -45 5 -4 12 -18 15 -33 2 -14 7 -68 11 -120 4 -51
9 -104 12 -118 3 -14 9 -45 14 -70 5 -25 14 -88 19 -140 6 -52 12 -138 13
-190 1 -52 7 -104 13 -115 6 -11 14 -56 18 -100 4 -44 11 -93 16 -110 5 -16
18 -79 30 -140 11 -60 23 -119 25 -130 3 -11 21 -69 40 -130 20 -60 55 -168
77 -240 23 -71 58 -171 79 -220 21 -50 40 -113 43 -141 3 -28 12 -70 21 -95 9
-24 21 -60 26 -79 5 -19 12 -48 14 -64 2 -16 11 -36 20 -46 8 -9 15 -26 15
-38 0 -14 11 -27 32 -38 29 -15 36 -15 87 0 31 8 86 20 123 26 37 6 133 15
215 20 81 5 191 14 243 20 52 7 129 13 170 16 41 2 122 8 180 14 58 6 119 13
135 15 17 3 59 7 95 11 36 3 76 9 90 14 14 5 74 11 134 15 60 3 112 8 117 10
4 3 52 10 106 15 54 5 134 12 178 16 44 3 91 7 105 9 14 1 41 5 60 8 19 4 139
11 265 17 127 7 331 11 455 9 124 -1 243 -3 265 -4 22 -1 141 -7 265 -14 124
-7 347 -21 495 -32 149 -10 304 -22 345 -25 41 -2 89 -7 105 -9 17 -2 100 -4
185 -4 85 -1 225 -6 310 -12 85 -5 229 -17 320 -25 91 -8 179 -14 195 -13 17
1 84 -4 150 -11 66 -6 139 -14 163 -16 23 -3 42 -10 42 -16 0 -6 -25 -61 -56
-122 -30 -61 -64 -120 -75 -132 -10 -11 -19 -27 -19 -35 0 -8 -11 -31 -25 -51
-14 -20 -25 -41 -25 -47 0 -5 -6 -16 -12 -23 -7 -8 -20 -25 -27 -38 -8 -14
-29 -50 -45 -80 -17 -30 -54 -90 -84 -133 -29 -43 -63 -90 -75 -105 -12 -14
-32 -36 -44 -49 -13 -13 -23 -27 -23 -30 0 -3 -17 -27 -37 -52 -21 -25 -74
-81 -118 -124 -44 -43 -98 -93 -120 -112 -22 -18 -56 -48 -76 -67 -20 -18 -65
-55 -99 -83 -35 -27 -70 -54 -79 -60 -9 -5 -38 -26 -66 -45 -27 -19 -65 -43
-85 -54 -19 -10 -42 -25 -50 -33 -8 -8 -30 -24 -49 -36 -19 -12 -51 -32 -70
-44 -20 -12 -43 -25 -51 -29 -8 -4 -26 -17 -40 -29 -14 -13 -50 -33 -80 -46
-30 -13 -57 -25 -60 -28 -3 -4 -20 -14 -38 -23 -19 -10 -39 -18 -46 -18 -7 0
-23 -11 -36 -24 -12 -14 -36 -28 -53 -32 -17 -3 -55 -19 -86 -35 -30 -16 -62
-29 -71 -29 -8 0 -28 -9 -45 -20 -16 -11 -38 -20 -48 -20 -9 0 -25 -4 -35 -9
-9 -5 -55 -23 -102 -41 -47 -17 -101 -38 -120 -45 -19 -8 -56 -17 -83 -21 -26
-3 -58 -15 -70 -25 -13 -10 -48 -21 -78 -25 -30 -4 -65 -12 -79 -20 -14 -7
-54 -18 -90 -24 -36 -7 -132 -14 -215 -17 -82 -3 -183 -4 -224 -3 -41 1 -165
13 -275 26 -111 14 -221 27 -245 29 -24 2 -51 7 -60 11 -9 3 -47 12 -86 20
-38 7 -122 24 -185 38 -63 13 -151 34 -195 46 -44 12 -100 26 -125 32 -25 5
-63 18 -85 28 -22 10 -59 26 -83 36 -24 10 -93 44 -155 76 -62 32 -128 65
-147 75 -19 10 -38 22 -41 27 -4 4 -21 9 -38 11 -17 1 -39 9 -49 18 -9 9 -33
27 -52 41 -19 14 -51 33 -70 42 -19 10 -39 24 -43 32 -5 7 -18 18 -30 23 -12
5 -31 15 -42 22 -12 7 -32 22 -45 35 -14 12 -45 39 -70 59 -25 20 -59 42 -76
49 -17 7 -36 20 -44 28 -7 9 -17 16 -22 16 -5 0 -28 18 -51 40 -23 21 -61 55
-83 75 -23 19 -45 35 -50 35 -5 0 -19 11 -31 24 -13 13 -23 29 -23 35 0 7 -4
10 -9 7 -5 -4 -11 -3 -13 1 -1 5 -26 28 -54 53 -28 25 -72 63 -98 85 -26 22
-59 53 -74 69 -15 16 -55 57 -89 90 -35 33 -63 65 -63 71 0 6 -13 21 -30 33
-16 13 -30 28 -30 35 -1 7 -14 28 -30 47 -17 19 -30 39 -30 45 0 5 -9 16 -20
23 -11 7 -20 18 -20 26 0 7 -7 20 -17 27 -9 8 -32 39 -51 69 -20 30 -39 59
-44 65 -4 5 -24 42 -44 80 -20 39 -52 96 -72 128 -21 32 -50 79 -67 105 -16
26 -39 67 -49 92 -11 25 -26 52 -33 60 -7 9 -19 34 -27 57 -8 23 -12 44 -9 47
4 3 0 6 -8 6 -8 0 -20 12 -26 28 -7 15 -17 34 -22 42 -5 8 -16 31 -24 50 -9
19 -19 49 -23 65 -4 17 -20 59 -36 93 -15 35 -28 72 -28 82 0 9 -7 37 -16 61
-8 24 -18 69 -20 99 -3 30 -11 62 -19 70 -10 11 -12 55 -10 180 2 91 8 178 14
193 6 16 11 40 11 54 0 15 5 43 11 62 7 20 14 43 17 51 3 8 6 17 7 20 1 3 5
23 9 45 4 22 21 83 38 135 17 52 53 140 80 195 27 55 63 125 81 155 18 30 54
87 80 126 26 39 47 75 47 80 0 5 13 25 28 44 16 19 38 56 50 83 12 26 27 47
32 47 5 0 16 15 23 33 8 17 21 38 30 46 10 7 17 18 17 24 0 6 7 19 17 29 9 10
20 18 25 18z"/>
<g>
<path d="M5752 16559 c-26 -1 -68 -7 -93 -15 -25 -8 -58 -27 -73 -43 -25 -26
-29 -39 -32 -99 -2 -39 2 -89 9 -113 7 -23 19 -45 27 -50 8 -4 43 -21 77 -38
34 -17 75 -31 90 -31 15 0 52 13 82 28 52 25 56 31 78 92 13 36 23 81 23 100
0 19 -6 44 -13 55 -6 12 -21 35 -32 53 -11 18 -37 38 -58 47 -20 8 -59 15 -85
14z"/>
</g>
<g>
<path d="M10392 16050 c-9 0 -30 -9 -47 -19 -16 -11 -50 -38 -74 -60 l-44 -41
7 -61 c4 -33 10 -67 13 -75 3 -8 22 -23 42 -33 20 -10 68 -21 107 -24 70 -5
72 -5 102 26 21 22 32 47 36 80 5 29 3 61 -5 85 -7 20 -17 43 -23 50 -5 7 -29
26 -53 42 -24 17 -52 30 -61 30z"/>
</g>
<g>
<path d="M8980 15889 c-3 -1 -15 -4 -27 -6 -13 -2 -23 -9 -23 -15 0 -6 -6 -16
-14 -22 -11 -9 -12 -22 -6 -61 5 -27 14 -86 20 -130 6 -44 15 -114 21 -155 6
-41 17 -97 24 -125 8 -27 19 -86 25 -130 7 -44 16 -96 21 -115 5 -19 15 -64
23 -100 8 -36 22 -105 30 -155 8 -49 21 -128 27 -175 7 -47 12 -108 10 -137
-1 -28 3 -54 8 -58 6 -3 11 -24 11 -45 0 -21 4 -49 9 -62 5 -13 10 -47 12 -77
l4 -53 -60 -19 c-33 -11 -107 -31 -165 -45 -58 -13 -123 -32 -145 -41 -23 -9
-64 -15 -96 -14 -53 1 -58 -1 -89 -35 -29 -34 -31 -41 -25 -83 4 -29 14 -53
28 -64 17 -15 30 -17 67 -12 25 4 63 15 85 25 22 10 85 30 139 45 55 14 104
29 109 32 5 3 24 8 41 10 17 1 60 12 96 22 36 11 85 23 110 26 25 4 55 13 68
21 16 11 22 24 22 52 0 20 -8 67 -19 103 -10 36 -23 74 -29 85 -5 10 -17 75
-26 144 -9 69 -18 158 -21 198 -3 40 -10 103 -15 140 -6 37 -17 90 -25 117 -8
28 -24 97 -36 155 -12 58 -27 134 -35 170 -7 36 -19 94 -27 130 -8 36 -13 69
-10 73 3 4 0 14 -6 21 -6 7 -13 62 -16 122 -3 60 -8 126 -10 146 -2 21 -11 49
-20 62 -9 13 -26 27 -38 30 -12 3 -24 5 -27 5z"/>
</g>
<g>
<path d="M9713 11735 c-6 2 -13 2 -15 0 -1 -1 -39 -6 -83 -10 -44 -3 -91 -6
-105 -6 -14 -1 -135 -2 -270 -2 -135 -1 -326 0 -425 3 -99 2 -236 3 -305 2
-69 0 -165 0 -215 1 -49 0 -157 1 -240 2 -82 0 -211 -4 -285 -8 -74 -4 -173
-10 -220 -12 -47 -3 -131 -7 -188 -9 -92 -3 -106 -6 -125 -27 -11 -12 -21 -33
-20 -46 1 -13 1 -33 2 -46 1 -14 12 -29 29 -39 15 -9 42 -14 62 -12 19 2 159
6 310 9 151 3 421 6 600 6 179 0 507 -1 730 -3 223 -2 437 0 475 4 39 5 158 8
265 9 107 1 212 6 232 11 21 6 47 21 59 34 15 17 20 30 15 48 -3 14 -18 33
-32 42 -13 9 -44 21 -67 26 -23 5 -71 11 -107 14 -36 2 -70 6 -77 9z"/>
</g>
<g>
<path d="M7776 4049 c-12 -1 -39 -7 -61 -14 -27 -8 -127 -13 -310 -14 -148 -1
-324 -7 -390 -13 -66 -6 -151 -12 -190 -14 -38 -1 -180 -3 -315 -5 -135 -1
-269 -5 -296 -9 -28 -3 -113 -3 -190 1 -76 4 -256 9 -399 10 -143 2 -306 6
-363 11 -97 8 -105 7 -133 -13 -27 -19 -30 -26 -27 -67 2 -34 9 -49 28 -63 14
-10 43 -21 65 -25 22 -3 74 -10 115 -15 41 -6 167 -12 280 -15 113 -2 318 -6
456 -7 138 -2 256 -7 263 -11 6 -4 18 -2 26 4 9 7 61 13 132 16 65 2 189 5
276 8 87 3 242 10 345 15 103 5 255 10 337 11 83 1 182 3 220 4 39 2 94 -3
123 -10 53 -12 54 -11 88 18 20 18 34 39 34 53 0 13 5 27 10 30 6 3 10 16 10
29 0 13 -8 30 -18 39 -10 10 -27 17 -38 17 -10 0 -28 7 -38 15 -11 8 -29 15
-40 14z"/>
</g>
<g>
<path d="M5936 2929 c-6 0 -17 -3 -23 -6 -7 -2 -13 -9 -13 -14 0 -5 -7 -17
-15 -26 -9 -10 -38 -46 -66 -80 -27 -35 -64 -70 -81 -79 -18 -9 -40 -26 -49
-38 -9 -11 -20 -38 -23 -58 -3 -20 -1 -48 6 -62 6 -15 31 -36 57 -48 25 -13
48 -23 51 -24 3 0 14 -4 25 -8 11 -4 29 -12 40 -16 11 -5 41 -18 66 -29 25
-12 50 -21 55 -21 5 0 24 -13 42 -30 18 -16 40 -30 49 -30 9 0 53 -25 98 -55
45 -30 87 -55 94 -55 7 0 40 -16 72 -35 33 -19 69 -35 79 -35 10 0 26 -7 34
-16 10 -10 29 -14 52 -12 26 2 42 11 54 28 14 19 16 36 11 74 -5 43 -10 52
-41 69 -19 11 -37 23 -40 27 -3 4 -21 11 -40 15 -19 4 -48 15 -65 24 -16 9
-48 28 -70 42 -22 14 -56 34 -75 45 -19 10 -53 33 -75 50 -22 17 -54 34 -72
38 -17 4 -37 14 -44 22 -6 8 -18 14 -25 14 -8 0 -14 4 -14 9 0 5 -12 11 -27
13 -21 2 -29 9 -31 28 -2 18 7 35 35 61 21 19 46 38 55 42 13 4 16 14 13 34
-3 15 -7 43 -9 62 -3 19 -11 38 -18 42 -7 5 -18 9 -24 9 -6 0 -17 7 -24 15 -7
8 -18 15 -24 14z"/>
</g>
<g>
<path d="M8469 2458 c-35 0 -74 -3 -87 -8 -12 -5 -36 -31 -52 -57 -20 -31 -30
-60 -30 -85 0 -22 6 -51 14 -67 8 -15 34 -40 58 -56 37 -25 51 -28 107 -26 52
2 73 8 105 29 31 22 41 37 52 77 10 41 10 53 -2 69 -8 11 -14 33 -14 47 0 22
-9 32 -44 52 -33 18 -59 25 -107 25z"/>
</g>
<g>
<path d="M5343 2140 c-1 0 -7 -9 -13 -21 -7 -11 -17 -18 -24 -16 -7 3 -20 -8
-29 -23 -10 -16 -20 -55 -23 -88 -6 -54 -4 -66 20 -106 23 -40 31 -46 71 -52
25 -3 56 -3 71 0 14 4 41 22 60 40 26 25 37 47 45 89 6 31 9 66 6 79 -4 13
-12 31 -19 41 -8 10 -46 26 -88 37 -41 11 -76 20 -77 20z"/>
</g>
</g>
</g>
</svg>
