<?xml version="1.0" standalone="no"?>
<!DOCTYPE svg PUBLIC "-//W3C//DTD SVG 20010904//EN"
 "http://www.w3.org/TR/2001/REC-SVG-20010904/DTD/svg10.dtd">
<svg version="1.0" xmlns="http://www.w3.org/2000/svg"
 width="1422.000000pt" height="779.000000pt" viewBox="0 0 1422.000000 779.000000"
 preserveAspectRatio="xMidYMid meet">
<metadata>
Created by potrace 1.16, written by Peter Selinger 2001-2019
</metadata>
<g transform="translate(0.000000,779.000000) scale(0.100000,-0.100000)"
fill="#000000" stroke="none">
<g>
<path d="M10395 6257 c-38 1 -101 -5 -140 -12 -38 -7 -116 -13 -172 -13 -57
-1 -106 -3 -111 -6 -4 -2 -44 -1 -87 3 -44 4 -103 4 -133 -1 -30 -5 -64 -15
-76 -23 -11 -8 -34 -15 -50 -15 -16 0 -47 -5 -70 -12 -22 -7 -78 -34 -124 -60
-46 -26 -86 -48 -88 -48 -2 0 -37 -24 -77 -54 -39 -29 -87 -67 -106 -85 -18
-17 -51 -45 -72 -62 -21 -17 -39 -36 -39 -42 0 -6 -17 -35 -37 -64 -20 -30
-52 -63 -70 -74 -19 -12 -41 -18 -52 -14 -11 3 -39 -3 -63 -13 -24 -11 -70
-25 -103 -31 -33 -7 -70 -13 -81 -15 -12 -2 -37 -13 -57 -25 -30 -19 -36 -19
-47 -6 -7 8 -24 22 -39 29 -14 8 -43 22 -63 31 -21 10 -38 21 -38 25 0 4 -15
13 -32 20 -18 6 -46 19 -61 27 -16 8 -49 35 -73 60 -25 24 -64 53 -88 64 -23
10 -53 27 -67 37 -13 10 -63 38 -111 61 -48 23 -100 44 -115 46 -15 3 -53 12
-83 21 -30 8 -73 17 -94 20 -22 2 -44 8 -50 14 -5 5 -20 10 -32 10 -13 0 -25
4 -28 9 -3 5 -23 12 -43 16 -21 5 -51 9 -66 9 -15 1 -32 7 -36 15 -5 8 -16 11
-26 8 -9 -4 -26 0 -39 8 -14 10 -34 13 -53 9 -17 -3 -33 -2 -37 4 -3 6 -33 8
-71 5 -42 -4 -70 -2 -79 6 -9 8 -71 12 -187 12 -96 0 -205 -1 -244 -4 -38 -2
-101 -7 -140 -11 -38 -3 -101 -11 -140 -17 -38 -6 -99 -20 -135 -31 -36 -11
-73 -24 -82 -29 -10 -5 -28 -15 -40 -21 -13 -7 -27 -19 -31 -26 -5 -7 -12 -10
-18 -7 -5 4 -15 3 -21 -2 -7 -4 -19 -8 -26 -9 -7 -1 -38 -10 -70 -19 -31 -9
-77 -23 -102 -31 -25 -8 -56 -14 -70 -14 -14 0 -36 -7 -48 -16 -12 -8 -37 -31
-55 -49 -31 -32 -37 -34 -127 -41 -52 -3 -129 -7 -170 -8 -51 -2 -90 -9 -120
-23 -25 -11 -70 -26 -100 -33 -30 -7 -59 -16 -65 -20 -5 -4 -28 -13 -50 -20
-22 -7 -54 -20 -72 -30 l-32 -19 -37 30 c-20 16 -41 29 -46 29 -5 0 -24 11
-43 25 -18 14 -49 29 -69 32 -20 3 -42 13 -49 22 -7 9 -28 25 -49 34 -20 9
-40 17 -45 17 -4 0 -20 6 -34 14 -14 7 -39 17 -55 21 -16 5 -34 7 -40 6 -6 0
-17 6 -24 14 -7 8 -25 15 -40 15 -16 0 -30 6 -33 13 -2 6 -17 13 -33 14 -16 0
-49 7 -74 13 -25 7 -65 21 -89 32 -24 10 -65 24 -90 30 -25 5 -75 13 -111 16
-36 3 -103 6 -150 6 -47 0 -101 -3 -120 -7 -19 -3 -53 -9 -75 -13 -22 -3 -55
-14 -73 -25 -18 -10 -47 -19 -63 -19 -17 0 -65 -9 -107 -20 -43 -11 -94 -26
-114 -33 -21 -7 -41 -16 -44 -20 -4 -4 -18 -7 -31 -7 -13 0 -59 -19 -103 -41
-44 -23 -83 -46 -86 -50 -3 -5 -12 -9 -20 -9 -8 0 -43 -18 -77 -41 -34 -23
-63 -45 -65 -50 -2 -5 -8 -9 -14 -9 -6 0 -33 -16 -59 -35 -27 -19 -53 -35 -58
-35 -5 0 -14 -7 -21 -15 -7 -9 -46 -38 -87 -65 -41 -28 -79 -50 -84 -50 -5 0
-16 -11 -25 -25 -9 -14 -22 -25 -29 -25 -7 0 -25 -10 -40 -22 -15 -13 -76 -71
-136 -130 -60 -59 -109 -112 -109 -118 0 -5 -21 -32 -48 -59 -26 -28 -68 -74
-93 -103 -25 -29 -53 -66 -62 -83 -9 -16 -31 -47 -49 -67 -18 -21 -41 -48 -51
-60 -9 -13 -53 -70 -98 -128 -44 -58 -95 -136 -113 -175 -19 -38 -41 -88 -51
-110 -10 -22 -29 -65 -42 -95 -14 -30 -30 -66 -35 -80 -6 -14 -14 -32 -19 -40
-5 -8 -21 -37 -36 -65 -15 -27 -37 -70 -48 -95 -11 -25 -28 -57 -38 -70 -10
-14 -25 -50 -34 -80 -8 -30 -24 -63 -34 -73 -11 -10 -19 -25 -19 -35 0 -9 -6
-34 -13 -55 -8 -21 -19 -43 -25 -49 -7 -7 -12 -19 -12 -28 0 -9 -5 -21 -11
-27 -6 -6 -12 -24 -13 -40 -2 -16 -10 -40 -20 -55 -9 -14 -19 -36 -22 -49 -3
-13 -5 -55 -5 -94 1 -38 4 -86 7 -105 4 -28 1 -40 -15 -54 -13 -12 -18 -26
-14 -44 2 -15 4 -34 4 -42 0 -8 -3 -33 -5 -55 -2 -22 -9 -62 -16 -90 -7 -27
-16 -54 -21 -60 -5 -5 -9 -25 -9 -46 0 -20 -5 -61 -11 -90 -5 -30 -12 -122
-14 -205 -2 -82 -9 -171 -16 -197 -6 -26 -9 -71 -6 -100 3 -28 -2 -90 -10
-137 -8 -47 -15 -150 -16 -228 -2 -140 -1 -144 22 -163 14 -11 39 -19 61 -19
21 0 42 6 47 13 6 6 16 28 23 47 8 22 14 95 15 200 1 108 6 173 14 188 8 16
12 65 11 145 -1 67 0 129 3 137 3 8 8 87 12 175 3 88 12 205 20 260 8 55 19
127 25 160 6 33 13 71 16 85 3 14 7 50 8 80 2 30 7 78 11 105 4 28 11 55 15
60 4 6 15 42 25 80 9 39 24 80 31 92 8 12 14 35 14 51 0 16 7 35 15 42 9 8 15
29 15 56 0 24 5 56 12 71 7 15 22 44 34 64 13 20 28 56 34 80 7 24 27 65 46
92 19 26 34 55 34 65 0 10 16 44 35 76 19 32 42 79 51 105 8 25 29 67 45 94
16 26 29 54 29 62 0 8 13 34 30 58 16 25 30 50 30 57 0 6 19 30 41 53 23 23
57 66 76 95 19 30 45 66 59 80 13 15 27 35 30 45 3 9 9 17 14 17 5 0 26 26 47
58 22 31 50 70 63 86 14 16 42 48 63 70 21 22 45 49 52 59 8 11 44 51 82 90
37 39 93 86 123 105 30 20 59 39 65 43 5 5 27 23 48 40 21 18 56 42 77 53 22
12 63 39 92 61 28 22 61 49 73 60 12 11 39 29 61 40 21 10 46 25 55 32 9 8 70
40 135 72 66 31 148 66 184 76 36 10 69 22 74 27 6 4 20 8 32 8 13 0 26 5 29
10 3 6 17 10 30 10 13 0 27 5 30 10 3 6 17 10 30 10 13 0 26 4 29 9 3 5 43 14
88 21 46 7 157 14 248 16 101 2 183 -1 212 -8 27 -7 48 -15 48 -20 0 -4 11 -8
25 -8 14 0 54 -11 88 -25 34 -14 70 -30 79 -35 10 -6 24 -10 32 -10 8 0 43
-12 78 -26 35 -14 81 -34 103 -44 22 -10 59 -27 83 -39 23 -11 49 -21 56 -21
8 0 35 -17 61 -39 25 -21 59 -44 73 -52 15 -7 29 -14 31 -16 2 -1 -37 -42 -85
-91 -49 -49 -122 -123 -162 -163 -39 -41 -72 -77 -72 -81 0 -3 -18 -25 -39
-48 -22 -24 -45 -55 -52 -69 -8 -14 -30 -48 -50 -76 -20 -27 -54 -85 -77 -129
-23 -43 -52 -93 -65 -110 -13 -17 -35 -61 -50 -99 -15 -37 -27 -73 -27 -81 0
-7 -8 -24 -19 -37 -10 -13 -28 -55 -40 -93 -11 -37 -21 -81 -21 -96 0 -25 5
-28 48 -37 26 -5 63 -6 82 -2 19 5 51 4 70 -1 19 -5 51 -7 70 -5 19 1 51 -2
70 -7 19 -6 44 -14 55 -19 11 -4 34 -10 50 -14 17 -3 64 -11 105 -16 41 -6 93
-10 115 -10 22 0 119 -6 215 -13 96 -8 184 -14 195 -14 11 0 61 -3 110 -6 50
-4 119 -9 155 -11 36 -3 133 -12 215 -21 83 -9 179 -18 215 -20 36 -3 73 -5
83 -5 10 0 22 -10 26 -21 8 -21 8 -21 14 2 6 22 9 23 69 16 50 -5 68 -3 86 10
16 11 21 22 17 33 -4 9 -8 35 -10 58 -2 23 -12 50 -22 61 -10 10 -40 46 -68
78 -27 33 -65 73 -82 90 -18 17 -33 38 -33 46 0 9 -14 29 -31 45 -17 15 -46
51 -64 78 -18 28 -44 62 -58 76 -14 14 -32 39 -40 56 -9 16 -23 35 -31 42 -9
8 -16 17 -16 21 0 4 10 10 22 13 12 4 28 1 35 -4 6 -6 16 -8 21 -5 5 3 49 8
98 11 49 3 136 8 194 11 58 3 164 7 235 7 72 1 168 -4 215 -11 47 -7 101 -11
120 -9 19 2 45 0 58 -4 13 -5 52 -5 88 0 44 7 75 6 92 -1 15 -5 45 -10 66 -10
22 1 43 7 48 14 5 7 6 25 4 39 -4 21 0 28 14 32 11 3 20 9 20 14 0 4 -14 22
-30 40 -17 18 -30 36 -30 41 0 6 -6 12 -13 15 -7 2 -23 26 -36 51 -12 26 -31
52 -42 59 -10 6 -19 16 -19 22 0 5 -13 24 -30 42 -16 17 -39 34 -50 38 -11 3
-20 13 -20 21 0 8 -22 37 -50 64 -27 28 -52 50 -55 50 -2 0 -26 15 -52 34 -27
18 -69 44 -95 56 -26 13 -58 34 -70 47 -12 13 -29 23 -39 23 -10 0 -21 5 -24
10 -3 6 -17 10 -30 10 -13 0 -43 13 -67 29 -24 15 -58 31 -76 34 -19 4 -45 16
-59 27 -14 11 -31 20 -38 20 -7 0 -34 12 -61 26 -27 14 -58 27 -69 29 -11 1
-32 7 -47 13 -16 7 -28 16 -28 21 0 5 19 16 43 24 23 9 66 24 95 35 29 11 58
24 65 31 6 6 19 11 29 11 10 0 18 5 18 10 0 6 11 10 24 10 13 0 26 7 30 15 3
10 19 15 46 15 24 0 43 5 46 13 3 8 25 13 60 14 30 1 61 7 69 13 8 6 60 13
119 14 59 2 112 9 119 14 9 8 34 8 81 1 37 -5 72 -7 77 -3 5 3 58 4 117 3 59
-1 125 -3 147 -5 22 -1 67 -6 100 -9 33 -4 83 -14 111 -21 28 -8 60 -16 70
-19 11 -2 49 -11 85 -19 36 -9 101 -27 145 -42 43 -14 93 -31 109 -38 17 -8
52 -21 78 -31 26 -10 50 -22 53 -26 3 -5 12 -9 20 -9 8 0 33 -13 56 -30 22
-16 45 -30 50 -30 5 0 41 -21 80 -47 40 -27 79 -52 87 -58 9 -5 36 -23 61 -40
25 -16 68 -42 95 -57 28 -15 62 -33 78 -39 15 -6 27 -17 27 -24 0 -8 -21 -31
-47 -52 -27 -21 -54 -46 -61 -55 -7 -10 -17 -18 -21 -18 -4 0 -71 -63 -149
-140 -78 -78 -142 -147 -142 -154 0 -7 -12 -23 -26 -37 -14 -13 -30 -33 -35
-44 -5 -11 -27 -51 -49 -90 -23 -38 -50 -89 -60 -113 -11 -24 -20 -52 -20 -62
0 -9 -7 -23 -15 -30 -9 -7 -25 -32 -35 -56 -11 -23 -17 -50 -14 -59 4 -10 -1
-22 -13 -30 -11 -8 -27 -36 -36 -62 -8 -26 -25 -84 -36 -128 -12 -44 -32 -107
-43 -140 -12 -33 -23 -76 -26 -95 -2 -19 -9 -40 -14 -47 -5 -7 -10 -45 -11
-85 -1 -40 -6 -76 -12 -80 -7 -5 -6 -13 1 -25 7 -12 31 -21 70 -26 32 -4 79
-8 104 -8 25 0 57 3 73 7 15 3 27 2 27 -3 0 -5 37 -8 88 -5 48 2 92 8 97 11 6
4 80 6 165 3 85 -2 199 -5 252 -7 53 -2 102 -7 109 -11 7 -4 46 -6 88 -5 42 1
80 6 86 10 5 4 109 6 230 5 121 -1 259 -5 307 -8 69 -4 99 -2 143 13 30 10 57
15 60 11 2 -3 26 -5 52 -2 26 2 73 3 103 3 30 -1 86 -9 123 -18 65 -15 68 -15
81 3 10 12 11 24 5 36 -6 11 -4 21 6 31 8 9 20 17 27 19 10 4 5 22 -17 69 -16
35 -35 67 -42 72 -6 4 -17 24 -24 45 -7 20 -13 39 -14 42 0 3 -17 39 -37 81
-21 42 -44 82 -53 89 -8 7 -15 21 -15 31 0 11 -4 27 -8 37 -5 9 -17 33 -27 52
-9 19 -28 55 -42 80 -13 24 -33 55 -45 67 -11 12 -26 31 -32 42 -6 11 -33 53
-61 93 -27 40 -51 76 -53 81 -2 4 9 7 25 7 16 0 33 4 39 9 5 4 50 16 99 25 50
9 136 23 192 30 55 8 110 19 121 25 12 6 43 11 71 11 27 0 62 5 78 11 15 7 53
13 83 14 30 1 91 5 135 9 44 4 100 8 125 9 25 2 51 6 58 11 7 4 19 2 28 -5 11
-9 18 -9 32 3 9 9 23 13 30 11 7 -3 54 2 105 11 50 8 108 18 127 21 19 3 61 8
93 10 32 3 67 9 77 15 11 6 25 28 31 50 10 33 10 45 -2 66 -7 15 -32 47 -53
72 -22 25 -52 52 -67 61 -14 9 -50 36 -78 61 -29 25 -62 55 -73 66 -11 12 -37
30 -59 39 -21 10 -39 21 -39 25 0 4 -17 19 -38 32 -20 14 -48 28 -62 32 -14 4
-37 13 -52 19 -16 7 -28 15 -28 19 0 5 -9 8 -20 8 -11 0 -34 8 -52 18 -18 10
-64 26 -103 36 -38 9 -86 22 -106 28 -20 6 -43 8 -50 5 -8 -2 -28 4 -45 14
-18 11 -78 26 -135 35 -57 9 -126 17 -154 19 -27 2 -90 9 -140 15 -49 7 -151
12 -225 11 -131 -1 -134 -1 -115 17 11 10 32 32 46 49 14 17 37 37 51 44 14 8
54 39 88 69 35 30 69 54 76 52 8 -1 27 4 43 13 17 8 39 15 49 15 11 0 25 7 32
15 7 8 27 15 46 15 18 0 40 7 49 16 10 10 24 14 39 10 13 -3 26 -3 30 1 3 4
30 8 59 10 28 2 97 5 152 7 55 3 165 7 245 10 80 3 174 0 210 -5 36 -6 79 -11
95 -11 17 0 39 -6 50 -13 11 -6 40 -15 65 -19 25 -3 68 -11 95 -17 28 -7 84
-23 125 -37 41 -14 93 -28 115 -32 22 -5 92 -26 155 -48 63 -22 132 -48 152
-56 21 -9 42 -25 48 -36 6 -11 23 -26 38 -35 15 -8 54 -39 87 -70 32 -30 67
-58 77 -61 10 -3 18 -10 18 -15 0 -5 16 -27 36 -49 20 -22 42 -40 48 -40 7 0
30 -24 51 -52 22 -29 43 -54 48 -56 4 -2 7 -9 7 -16 0 -7 25 -37 55 -68 30
-30 55 -62 55 -69 0 -8 7 -23 15 -33 8 -11 15 -27 15 -35 0 -8 8 -24 19 -35
10 -12 40 -61 66 -109 26 -49 55 -97 66 -108 10 -10 19 -27 19 -38 0 -10 7
-24 15 -31 8 -7 17 -28 20 -49 4 -20 14 -54 23 -76 8 -22 21 -47 27 -55 7 -8
18 -31 24 -50 7 -19 17 -60 21 -90 5 -30 13 -75 20 -100 6 -25 15 -49 21 -54
5 -6 9 -22 9 -37 0 -15 7 -32 15 -39 8 -7 15 -21 15 -31 0 -10 6 -33 14 -51 8
-18 19 -64 24 -101 6 -41 17 -73 26 -80 12 -9 17 -36 21 -102 3 -49 8 -108 11
-129 2 -22 7 -87 10 -145 3 -58 7 -112 10 -119 2 -8 6 -53 10 -100 3 -48 9
-96 14 -107 5 -11 13 -67 18 -125 5 -58 8 -131 6 -163 -3 -38 1 -67 11 -86 8
-16 14 -42 13 -57 0 -16 0 -92 1 -169 1 -77 6 -171 11 -210 5 -38 14 -119 20
-180 6 -60 12 -147 12 -193 1 -66 -2 -88 -16 -104 -16 -19 -16 -24 -2 -67 8
-25 22 -63 30 -83 9 -21 28 -43 43 -50 25 -12 32 -11 61 5 22 13 31 25 27 35
-3 8 2 23 12 34 14 16 15 23 4 53 -7 19 -9 40 -5 47 5 7 9 22 10 33 1 11 -2
58 -7 105 -5 47 -12 110 -15 140 -2 30 -7 71 -11 90 -3 19 -7 62 -8 95 -2 33
-9 96 -15 140 -6 44 -10 124 -10 177 1 72 -3 105 -15 129 -11 20 -13 34 -7 38
6 4 9 24 7 46 -1 22 -5 51 -8 65 -3 14 -10 54 -17 90 -6 36 -13 133 -15 215
-2 83 -6 180 -8 216 -3 36 -8 75 -11 87 -4 11 -3 23 2 26 6 3 4 29 -4 62 -7
30 -16 86 -20 122 -3 37 -15 90 -25 117 -10 28 -22 75 -28 107 -5 31 -19 73
-30 94 -12 21 -21 54 -21 72 0 18 -9 54 -21 79 -13 28 -18 55 -14 70 4 16 -2
36 -17 61 -13 20 -22 41 -20 45 1 5 -6 23 -17 40 -10 18 -26 75 -36 127 -9 52
-21 102 -26 110 -5 8 -14 26 -19 39 -6 13 -12 32 -13 41 -2 10 -9 25 -16 34
-8 9 -15 29 -16 44 -1 15 -12 45 -24 67 -12 22 -30 54 -39 70 -9 17 -34 52
-54 79 -21 27 -38 54 -38 60 0 6 -18 29 -40 50 -22 22 -40 45 -40 52 0 6 -6
17 -13 23 -8 6 -19 28 -26 50 -6 22 -24 53 -39 69 -15 16 -32 39 -37 51 -6 11
-50 55 -100 96 -49 42 -106 91 -125 108 -20 18 -58 48 -85 67 -27 19 -62 43
-79 54 -17 10 -35 24 -39 32 -4 8 -15 14 -24 14 -9 0 -24 7 -33 15 -10 9 -35
19 -56 22 -22 4 -43 12 -49 19 -5 6 -23 15 -40 18 -16 4 -48 8 -69 10 -22 2
-45 11 -51 20 -7 9 -19 16 -27 16 -8 0 -18 4 -24 10 -5 5 -18 11 -29 13 -11 2
-27 7 -35 10 -8 3 -38 11 -67 17 -28 6 -67 10 -87 9 -19 -2 -38 0 -42 4 -4 4
-17 7 -29 7 -11 0 -26 5 -32 11 -5 5 -34 17 -64 26 -30 8 -83 23 -119 32 -36
10 -96 18 -135 18z m-4922 -587 l39 0 -79 -76 c-43 -42 -94 -84 -114 -95 -20
-10 -46 -31 -57 -45 l-19 -28 -13 25 c-7 13 -33 45 -58 71 -41 42 -43 48 -26
54 10 4 53 20 94 36 41 16 79 33 85 37 5 4 30 9 55 10 24 1 46 4 49 7 2 2 22
4 44 4z m280 -24 c38 -4 85 -13 104 -21 20 -8 43 -15 53 -15 9 0 66 -25 125
-55 60 -30 116 -55 125 -55 9 0 21 -5 27 -11 7 -7 20 -12 30 -13 10 -1 50 -19
88 -41 39 -21 72 -42 75 -45 3 -4 26 -15 52 -25 26 -10 53 -24 59 -31 6 -8 15
-14 19 -14 5 0 21 -10 36 -22 15 -13 61 -54 101 -93 41 -38 81 -82 89 -97 8
-15 24 -36 35 -47 12 -11 18 -24 15 -29 -3 -6 -23 -13 -44 -17 -21 -3 -49 -2
-63 3 -15 6 -32 6 -41 1 -9 -5 -36 -5 -64 0 -27 5 -67 11 -89 12 -22 1 -45 6
-51 11 -7 5 -34 6 -60 3 -27 -2 -119 -7 -205 -10 -86 -3 -216 -8 -290 -10 -74
-3 -159 -6 -189 -7 -30 -1 -67 1 -82 5 -16 4 -28 14 -28 21 0 8 -7 16 -15 20
-8 3 -15 11 -15 19 0 7 -11 24 -25 37 -14 13 -25 29 -25 35 0 6 -17 27 -37 48
-21 20 -49 56 -62 81 l-25 44 32 36 c18 20 32 43 32 51 0 7 10 17 21 20 12 4
43 28 68 54 25 25 70 72 100 104 l55 59 69 -6z m3602 -23 c39 -3 107 -7 151
-8 45 -1 97 -7 115 -13 19 -5 51 -10 71 -10 20 0 72 -8 115 -17 43 -9 94 -21
113 -26 19 -5 78 -20 130 -35 52 -14 102 -29 110 -32 8 -3 20 -6 25 -7 6 0 55
-23 110 -50 55 -27 113 -58 129 -69 17 -12 75 -58 130 -103 55 -46 103 -83
108 -83 4 0 8 -4 8 -9 0 -5 -14 -14 -31 -20 -18 -6 -51 -11 -75 -11 -24 0 -46
-4 -49 -10 -3 -5 -17 -10 -31 -10 -14 0 -33 -4 -43 -10 -10 -5 -50 -11 -89
-14 -39 -2 -75 -7 -79 -9 -5 -3 -52 -6 -105 -6 -54 0 -107 -5 -119 -11 -12 -7
-38 -10 -60 -6 -21 3 -40 2 -43 -3 -3 -4 -17 -6 -31 -4 -13 3 -33 2 -42 -2
-10 -4 -34 -8 -53 -9 -19 -1 -60 -9 -90 -18 -30 -9 -76 -21 -103 -27 -26 -6
-64 -11 -84 -11 -20 0 -50 -4 -67 -10 -17 -5 -78 -16 -135 -25 l-103 -16 -27
28 c-14 16 -38 37 -51 48 -14 11 -39 39 -55 62 -17 24 -38 45 -48 49 -9 3 -24
17 -31 32 -8 15 -28 40 -45 57 -26 24 -31 36 -29 70 1 22 13 69 26 105 13 36
28 81 34 100 6 19 14 40 20 47 6 7 5 14 -3 19 -9 5 -7 11 6 21 11 7 28 13 39
13 10 0 42 7 70 15 28 7 71 18 96 24 25 5 77 7 115 4z m-482 -104 c4 1 7 -1 7
-3 0 -3 -9 -20 -19 -38 -11 -18 -25 -52 -32 -75 -7 -24 -16 -43 -20 -43 -4 0
-26 22 -49 50 -23 27 -39 54 -36 59 3 5 32 17 64 26 31 10 62 19 67 20 6 2 13
4 18 4z m-3855 -82 c19 -11 55 -42 80 -69 25 -27 53 -59 60 -69 13 -18 9 -34
-38 -147 -29 -70 -58 -134 -65 -142 -7 -8 -15 -31 -18 -50 -4 -19 -9 -45 -12
-56 -5 -17 0 -25 25 -38 18 -8 47 -18 66 -22 19 -3 47 -1 63 6 22 9 34 9 51 0
15 -8 25 -8 34 -1 7 6 43 14 82 18 38 4 94 6 126 3 55 -5 57 -6 105 -69 26
-35 57 -78 68 -96 11 -18 29 -45 40 -59 11 -15 35 -46 52 -69 18 -23 44 -55
58 -72 15 -16 49 -59 77 -93 38 -48 48 -66 38 -72 -7 -4 -52 -7 -99 -5 -47 1
-142 8 -211 14 -69 6 -174 16 -235 21 -60 6 -171 13 -245 15 -74 3 -145 8
-157 10 -12 3 -24 1 -28 -4 -3 -6 -17 -6 -36 1 -16 5 -39 8 -50 5 -12 -3 -32
-1 -46 4 -13 5 -58 12 -100 15 -42 3 -89 12 -105 20 -16 8 -33 12 -39 9 -5 -4
-18 -3 -27 1 -9 4 -34 8 -54 10 -20 1 -45 5 -55 10 -10 4 -32 8 -49 9 -18 1
-39 5 -47 8 -13 5 -14 12 -6 39 5 18 9 43 9 56 0 13 11 37 25 54 14 16 25 42
25 57 0 19 14 43 45 77 27 29 43 55 40 64 -3 10 9 30 30 50 19 19 35 42 35 51
0 10 5 21 10 24 6 4 21 23 34 43 13 21 38 54 57 74 19 20 49 53 67 72 17 19
32 42 32 50 0 9 9 20 20 26 11 6 20 16 20 22 0 7 21 31 47 55 25 24 50 43 54
43 4 0 16 18 27 41 12 24 34 48 54 58 32 17 34 17 66 -2z m3640 -161 l103
-101 -31 -63 c-16 -34 -30 -65 -30 -68 0 -2 -9 -17 -20 -32 -10 -15 -24 -49
-30 -77 -6 -27 -17 -69 -25 -92 -8 -23 -12 -49 -9 -56 2 -7 24 -22 47 -33 35
-17 52 -19 102 -12 33 4 67 11 75 15 8 4 31 8 50 9 19 1 82 7 140 13 l105 11
77 -82 c43 -45 80 -90 84 -100 3 -10 10 -18 15 -18 5 0 9 -5 9 -10 0 -6 18
-34 39 -63 22 -29 48 -68 60 -87 11 -19 26 -46 33 -60 7 -14 18 -29 25 -33 7
-4 13 -23 13 -41 0 -25 6 -35 25 -44 19 -9 29 -28 46 -84 12 -40 35 -97 51
-125 16 -29 26 -53 21 -54 -4 0 -44 -2 -88 -4 -44 -2 -118 -7 -165 -10 -47 -3
-128 -8 -180 -10 -52 -2 -99 -4 -105 -4 -5 0 -43 3 -83 6 -41 2 -156 0 -255
-5 -100 -6 -219 -7 -265 -3 -46 3 -86 3 -89 -1 -2 -5 -10 -5 -16 -1 -7 4 -48
8 -92 9 -44 2 -135 6 -202 10 -75 4 -128 3 -135 -3 -7 -5 -31 -9 -53 -8 -22 1
-73 4 -113 5 -54 2 -75 7 -79 18 -4 8 0 38 7 66 7 28 15 60 16 71 2 11 11 52
20 90 9 39 27 91 40 116 13 26 24 54 24 63 0 9 16 54 35 100 19 47 40 108 46
137 6 29 16 59 23 66 6 8 19 23 30 33 10 10 24 28 30 39 6 10 32 47 59 80 26
34 47 65 47 69 0 5 13 22 30 38 16 16 30 37 30 47 0 9 5 17 10 17 6 0 10 6 10
14 0 8 19 33 43 55 23 22 63 59 88 83 25 24 71 61 102 83 31 22 61 50 68 62 7
13 28 31 48 42 l36 19 103 -102z m-3369 -110 c4 -3 31 -37 59 -75 l51 -70 -37
-6 c-20 -3 -51 -10 -68 -15 -17 -6 -40 -7 -52 -3 -20 8 -20 9 -2 48 11 22 24
59 30 83 6 23 15 40 19 38z m3584 -116 c5 0 34 -26 65 -57 l55 -58 -44 -3
c-24 -1 -54 -7 -65 -13 -12 -6 -30 -9 -40 -7 -13 2 -18 11 -17 28 1 14 5 39 9
55 4 17 11 36 17 43 5 6 14 12 20 12z"/>
<g>
<path d="M5669 5420 c-19 -1 -46 -7 -61 -16 -15 -8 -32 -23 -38 -34 -6 -11 -8
-25 -4 -31 3 -6 -2 -19 -12 -30 -15 -16 -16 -23 -6 -37 7 -9 14 -21 16 -27 2
-5 6 -17 9 -26 3 -9 27 -27 53 -39 37 -19 50 -21 65 -12 10 7 36 12 58 12 21
0 43 6 49 13 5 6 12 27 14 46 3 19 -1 56 -9 82 -12 41 -22 53 -57 74 -24 14
-58 25 -77 25z"/>
</g>
<g>
<path d="M6383 5339 c-5 0 -25 -9 -45 -21 -23 -12 -38 -27 -38 -39 0 -10 -9
-23 -20 -29 -11 -6 -20 -21 -20 -33 0 -12 3 -32 6 -45 4 -12 18 -29 33 -36 14
-8 41 -17 59 -21 23 -5 44 -1 70 11 20 9 40 22 44 28 4 6 8 32 8 57 0 42 -4
50 -45 88 -24 22 -48 41 -52 40z"/>
</g>
<g>
<path d="M10225 5392 c-25 9 -54 12 -75 8 -19 -3 -44 -11 -55 -17 -11 -7 -28
-14 -37 -17 -11 -3 -15 -11 -12 -20 3 -9 -4 -27 -15 -42 -12 -15 -21 -30 -21
-34 0 -5 9 -6 20 -3 15 4 22 -2 30 -23 6 -16 17 -32 23 -36 7 -4 35 -8 64 -8
28 0 64 5 78 10 15 6 35 20 46 33 11 13 18 38 19 63 0 22 -6 47 -12 56 -7 8
-31 22 -53 30z"/>
</g>
<g>
<path d="M9308 5394 c-7 2 -29 -5 -48 -15 -26 -14 -39 -31 -52 -66 -10 -27
-18 -59 -18 -73 1 -14 9 -35 19 -47 10 -12 40 -30 65 -38 27 -9 56 -13 69 -9
12 4 33 15 47 26 15 10 34 32 43 47 14 23 15 38 8 77 -6 33 -18 56 -36 71 -14
13 -39 23 -55 23 -15 0 -34 2 -42 4z"/>
</g>
<g>
<path d="M4860 4913 c-23 3 -47 -1 -70 -14 -19 -10 -53 -31 -75 -47 -33 -23
-40 -34 -42 -62 -1 -30 6 -42 44 -77 41 -38 51 -43 95 -43 28 0 59 7 73 16 14
9 34 31 45 49 11 18 20 50 20 72 0 28 -7 47 -27 70 -18 20 -40 33 -63 36z"/>
</g>
<g>
<path d="M5412 4790 c-4 0 -15 -5 -25 -11 -9 -5 -23 -25 -31 -43 -8 -18 -17
-51 -20 -72 -6 -32 -3 -45 14 -67 12 -15 29 -27 39 -27 9 0 22 -5 29 -12 9 -9
22 -7 56 10 24 12 49 29 56 37 8 10 11 32 7 61 -3 33 -13 53 -33 73 -16 14
-42 32 -57 39 -15 7 -31 12 -35 12z"/>
</g>
<g>
<path d="M8189 4540 c-10 0 -21 -5 -25 -11 -3 -6 -15 -8 -26 -6 -12 4 -30 -4
-49 -21 -27 -25 -29 -33 -32 -105 -3 -60 0 -84 14 -106 12 -19 29 -31 53 -35
20 -4 53 -4 74 -1 20 3 47 8 58 10 14 3 27 19 37 43 8 21 16 56 18 77 1 22 -1
50 -5 63 -4 12 -11 22 -16 22 -5 0 -11 9 -15 20 -3 10 -20 26 -37 35 -17 8
-39 15 -49 15z"/>
</g>
<g>
<path d="M9266 4480 c-8 0 -17 -4 -20 -8 -3 -4 -28 -14 -56 -22 -28 -8 -56
-20 -61 -27 -6 -7 -11 -39 -12 -70 0 -32 5 -67 11 -78 6 -12 29 -26 55 -32 37
-10 52 -10 79 1 18 8 42 23 52 34 10 12 22 39 27 63 7 28 6 52 -1 74 -6 19
-22 40 -35 49 -13 9 -31 16 -39 16z"/>
</g>
</g>
<g>
<path d="M11443 5633 c-5 2 -14 2 -20 0 -7 -3 -13 -9 -13 -14 0 -5 6 -9 14 -9
8 0 17 4 21 9 3 5 2 12 -2 14z"/>
</g>
<g>
<path d="M11426 5579 c-8 7 -17 8 -20 3 -3 -6 1 -13 10 -16 9 -4 19 -5 21 -3
2 2 -3 10 -11 16z"/>
</g>
<g>
<path d="M11369 5576 c-5 3 -9 -2 -9 -11 0 -9 5 -15 10 -13 6 2 9 6 9 11 -1 4
-5 10 -10 13z"/>
</g>
<g>
<path d="M7950 5539 c-25 0 -65 -9 -90 -20 -24 -11 -48 -25 -52 -32 -4 -7 -7
-41 -6 -77 2 -58 5 -67 32 -92 17 -16 42 -29 56 -30 14 0 30 -2 35 -3 6 -1 18
-5 27 -9 9 -4 27 -2 40 5 13 6 35 25 50 40 24 25 27 34 24 88 -2 53 -6 64 -37
95 -29 31 -40 36 -79 35z"/>
</g>
<g>
<path d="M11448 5480 c-7 -1 -31 -11 -52 -23 -22 -13 -44 -32 -50 -42 -6 -11
-14 -23 -19 -26 -4 -3 -7 -14 -6 -25 1 -10 1 -32 0 -49 -1 -28 -2 -29 -14 -10
-6 11 -12 24 -12 29 0 5 -5 11 -10 13 -6 2 -10 -17 -10 -46 0 -28 5 -55 11
-61 8 -8 14 -6 24 5 12 14 17 12 51 -21 32 -32 46 -38 91 -41 34 -3 66 1 90
11 20 9 39 20 43 26 3 5 10 37 16 70 7 47 6 66 -5 88 -8 15 -25 37 -38 49 -13
12 -40 29 -60 38 -21 8 -43 15 -50 15z"/>
</g>
<g>
<path d="M12693 5360 c-7 0 -13 -4 -13 -9 0 -5 7 -12 16 -15 9 -3 24 -6 35 -6
10 0 19 4 19 9 0 5 -10 11 -22 15 -13 3 -29 6 -35 6z"/>
</g>
<g>
<path d="M2849 5044 c-18 5 -29 3 -38 -8 -8 -9 -19 -16 -25 -16 -6 0 -18 -8
-26 -18 -8 -9 -20 -28 -27 -42 -6 -14 -14 -44 -17 -68 -4 -23 -2 -51 4 -62 5
-10 25 -24 44 -30 19 -6 64 -12 99 -13 37 -1 75 4 88 11 13 7 35 28 47 46 19
28 22 44 19 88 -2 29 -12 66 -22 81 -16 25 -23 28 -69 26 -28 -1 -63 1 -77 5z"/>
</g>
<g>
<path d="M6729 4674 c-24 3 -62 -1 -83 -7 -22 -6 -54 -25 -72 -42 -18 -16 -42
-36 -53 -42 -11 -7 -28 -13 -36 -13 -9 0 -26 -9 -38 -20 -15 -15 -22 -33 -22
-63 -1 -23 -4 -48 -9 -55 -4 -6 -1 -22 5 -34 7 -13 12 -25 10 -28 -1 -3 1 -25
5 -50 4 -25 13 -53 22 -62 8 -10 21 -18 29 -18 7 0 24 -6 36 -14 12 -8 65 -25
117 -37 52 -12 128 -24 168 -26 52 -3 89 1 124 13 l50 16 -5 44 c-2 25 -1 47
4 50 5 3 9 9 9 14 0 5 -16 12 -35 16 -22 4 -41 2 -49 -5 -10 -8 -16 -9 -21 -1
-3 5 -34 10 -68 10 -34 0 -92 3 -129 7 -47 4 -68 10 -68 19 0 8 -9 14 -20 14
-11 0 -20 6 -21 13 -1 6 -3 31 -5 54 -2 29 2 48 14 62 9 12 42 31 72 42 30 12
70 27 87 33 18 7 35 15 39 18 3 3 8 19 10 36 3 17 -1 33 -9 40 -8 7 -34 14
-58 16z"/>
</g>
<g>
<path d="M10420 4615 c-5 3 -10 -3 -10 -14 0 -12 5 -21 10 -21 6 0 10 6 10 14
0 8 -4 18 -10 21z"/>
</g>
<g>
<path d="M10861 4594 c-15 3 -41 -2 -62 -14 -29 -15 -37 -27 -43 -57 -3 -21
-6 -43 -6 -50 0 -7 10 -18 22 -24 12 -6 73 -12 137 -14 94 -2 123 -6 156 -23
22 -11 50 -32 63 -47 13 -15 30 -46 38 -68 11 -30 13 -60 9 -104 l-7 -63 -85
-40 c-48 -22 -111 -47 -141 -54 -29 -8 -56 -17 -59 -20 -3 -2 -6 -22 -9 -44
-2 -22 -4 -44 -5 -49 -1 -4 -1 -13 0 -20 0 -7 20 -17 43 -23 27 -8 48 -8 62
-2 12 5 41 10 65 10 26 1 48 7 52 14 4 8 46 31 93 53 50 23 88 47 92 57 3 10
17 32 32 50 26 31 27 35 27 172 0 128 -2 145 -23 185 -13 24 -35 57 -50 73
-15 15 -32 28 -38 28 -6 0 -17 7 -24 16 -8 8 -30 22 -49 30 -23 10 -77 17
-150 19 -62 2 -125 6 -140 9z"/>
</g>
<g>
<path d="M3690 4579 c-8 4 -30 2 -47 -6 -18 -7 -33 -16 -34 -21 0 -4 -2 -23
-5 -43 -3 -22 1 -40 8 -47 7 -5 30 -19 50 -30 20 -12 54 -25 75 -31 21 -6 49
-18 62 -28 12 -10 39 -35 59 -56 21 -22 39 -53 43 -72 5 -30 3 -35 -23 -46
-15 -6 -28 -15 -28 -20 0 -5 -7 -9 -16 -9 -9 0 -32 -9 -50 -21 -28 -17 -42
-19 -77 -13 -23 4 -60 7 -82 7 -22 0 -50 -3 -62 -7 -12 -4 -29 -18 -38 -32 -9
-14 -13 -33 -10 -42 3 -9 21 -29 41 -43 29 -22 49 -28 122 -34 71 -5 95 -4
123 9 19 9 48 25 64 36 17 11 46 28 65 39 19 10 42 27 51 37 9 11 24 44 34 74
10 30 21 59 26 65 5 5 9 16 9 26 0 9 -11 33 -25 53 -14 20 -28 48 -31 61 -3
14 -12 25 -18 25 -7 0 -23 11 -35 24 -13 14 -38 32 -55 41 -17 9 -53 29 -81
45 -27 17 -61 35 -75 41 -14 6 -32 14 -40 18z"/>
</g>
<g>
<path d="M10430 4560 c-5 0 -10 -4 -10 -10 0 -5 5 -10 10 -10 6 0 10 5 10 10
0 6 -4 10 -10 10z"/>
</g>
<g>
<path d="M2859 3525 c-73 5 -118 4 -122 -2 -3 -5 -10 -29 -16 -52 -8 -38 -7
-45 12 -64 12 -12 35 -22 52 -23 16 -1 91 -9 165 -18 74 -8 158 -18 185 -22
28 -4 55 -10 60 -14 6 -4 40 -4 77 2 50 6 99 5 185 -7 64 -8 140 -15 168 -15
27 0 142 -12 255 -26 113 -14 216 -26 230 -26 14 0 33 -4 42 -9 10 -6 96 -13
191 -16 94 -3 182 -5 195 -4 12 0 34 1 50 0 15 0 133 -1 262 -2 129 -1 280 1
335 4 55 3 105 2 111 -2 5 -5 73 -9 150 -9 76 -1 144 -1 149 0 6 1 142 1 304
1 162 -1 297 -3 300 -5 3 -2 151 -7 329 -11 218 -4 327 -3 335 4 7 6 94 13
196 16 101 3 188 8 193 11 4 3 85 7 179 9 93 2 175 7 182 13 7 5 67 8 141 6
81 -3 133 0 141 6 9 8 15 8 20 0 3 -5 36 -10 73 -10 37 1 130 -1 207 -4 77 -3
169 -9 205 -14 36 -6 130 -11 210 -13 80 -2 193 -3 252 -3 68 1 113 6 122 13
12 10 20 9 39 -4 17 -11 47 -16 94 -16 37 0 100 -1 138 -3 39 -2 196 -7 350
-11 154 -4 283 -9 287 -11 4 -3 16 0 26 5 12 6 32 7 53 1 19 -5 162 -11 319
-14 157 -2 375 -7 485 -10 110 -4 265 -9 345 -12 80 -2 175 -4 212 -4 37 1
113 -4 168 -10 75 -8 110 -8 136 0 19 6 34 17 34 25 0 7 -11 20 -25 29 -14 9
-25 24 -25 33 0 9 8 25 17 35 15 17 15 20 1 34 -13 13 -39 16 -139 15 -68 -1
-144 -2 -169 -3 -25 0 -110 2 -190 6 -80 3 -188 8 -240 11 -52 3 -103 8 -112
11 -9 3 -30 -1 -45 -9 -18 -8 -56 -12 -103 -11 -41 1 -81 -2 -87 -8 -9 -7 -18
-7 -28 2 -9 7 -28 15 -43 17 -15 3 -137 6 -272 8 -135 1 -286 6 -337 9 -63 5
-94 3 -98 -4 -5 -8 -24 -9 -56 -5 -33 5 -54 3 -64 -5 -10 -9 -19 -9 -27 -2 -8
5 -64 8 -133 7 -66 -1 -134 2 -152 8 -24 8 -35 7 -48 -3 -12 -10 -19 -10 -27
-2 -7 7 -30 12 -53 12 -22 0 -50 -7 -62 -15 -19 -13 -21 -13 -25 3 -4 15 -19
18 -102 20 -54 1 -103 -1 -109 -5 -6 -4 -37 -6 -69 -5 -33 1 -63 4 -69 8 -6 3
-49 8 -97 10 -48 2 -93 -1 -101 -5 -8 -6 -25 -5 -40 1 -14 5 -48 11 -76 12
-27 2 -83 7 -122 11 -54 6 -77 5 -88 -5 -9 -8 -15 -8 -15 -2 0 6 -8 13 -18 16
-9 3 -33 2 -51 -4 -25 -7 -39 -6 -49 3 -11 8 -70 12 -206 12 -105 0 -200 -4
-211 -10 -11 -5 -99 -10 -195 -11 -96 0 -233 -4 -305 -7 -71 -4 -168 -11 -215
-16 -47 -5 -114 -13 -150 -16 -36 -4 -83 -8 -105 -9 -22 0 -46 -5 -54 -10 -8
-5 -16 -4 -22 5 -5 8 -10 17 -11 20 -2 3 -40 3 -86 0 -46 -4 -85 -4 -87 -1 -2
3 -59 4 -127 3 -67 -1 -163 -4 -213 -6 -64 -3 -96 0 -111 10 -18 12 -32 11
-90 -1 -46 -9 -75 -11 -87 -4 -10 5 -76 9 -145 8 -70 -1 -287 1 -482 4 -195 4
-363 7 -372 6 -10 0 -33 -1 -50 -2 -18 0 -103 2 -188 6 -85 4 -200 9 -255 11
-55 2 -125 9 -155 14 -30 5 -87 15 -127 22 -40 7 -90 9 -115 5 -23 -4 -56 -7
-72 -6 -16 0 -34 4 -40 9 -6 5 -37 12 -68 15 -32 4 -60 12 -63 17 -4 5 -23 9
-43 9 -20 0 -44 -4 -52 -10 -8 -5 -19 -5 -25 0 -6 5 -63 15 -126 21 -63 6
-170 13 -239 15 -69 3 -154 6 -190 8 -36 2 -117 7 -181 11z"/>
</g>
<g>
<path d="M10906 2693 c-8 3 -16 3 -19 0 -3 -3 -3 -11 0 -19 3 -8 11 -14 19
-14 8 0 14 6 14 14 0 8 -6 16 -14 19z"/>
</g>
</g>
</svg>
