<?xml version="1.0" standalone="no"?>
<!DOCTYPE svg PUBLIC "-//W3C//DTD SVG 20010904//EN"
 "http://www.w3.org/TR/2001/REC-SVG-20010904/DTD/svg10.dtd">
<svg version="1.0" xmlns="http://www.w3.org/2000/svg"
 width="1536.000000pt" height="2048.000000pt" viewBox="0 0 1536.000000 2048.000000"
 preserveAspectRatio="xMidYMid meet">
<metadata>
Created by potrace 1.16, written by Peter Selinger 2001-2019
</metadata>
<g transform="translate(0.000000,2048.000000) scale(0.100000,-0.100000)"
fill="#000000" stroke="none">
<g>
<path d="M5023 19580 c-48 0 -62 -4 -67 -17 -4 -9 -3 -20 2 -25 4 -4 30 -1 58
8 27 9 53 21 59 25 5 5 -17 9 -52 9z"/>
</g>
<g>
<path d="M4832 19539 c-4 0 -29 -7 -57 -16 -27 -8 -62 -20 -77 -25 -16 -6 -28
-15 -28 -20 0 -5 7 -11 15 -15 9 -3 35 1 58 10 23 8 61 20 85 26 23 7 42 16
42 20 0 5 -7 12 -16 15 -9 3 -19 6 -22 5z"/>
</g>
<g>
<path d="M4895 19540 c-8 0 -15 -4 -15 -10 0 -5 7 -10 15 -10 8 0 15 5 15 10
0 6 -7 10 -15 10z"/>
</g>
<g>
<path d="M4638 19479 c-7 -1 -24 -4 -38 -6 -14 -3 -29 -11 -33 -19 -5 -9 -25
-14 -55 -14 -26 0 -56 -6 -67 -13 -11 -8 -56 -23 -100 -36 -44 -12 -96 -26
-115 -32 -19 -5 -44 -11 -55 -12 -11 -2 -30 -8 -42 -15 -12 -7 -31 -12 -43
-12 -12 0 -56 -9 -98 -21 -43 -11 -99 -26 -127 -34 -27 -7 -96 -21 -151 -29
-56 -9 -119 -22 -140 -30 -22 -7 -59 -17 -84 -20 -25 -4 -65 -11 -90 -17 -25
-5 -83 -19 -130 -30 -47 -12 -119 -27 -160 -35 -41 -8 -79 -19 -84 -24 -6 -6
-26 -10 -46 -10 -19 -1 -53 -8 -75 -16 -22 -9 -55 -19 -73 -24 -18 -4 -43 -15
-55 -23 -12 -8 -37 -18 -55 -21 -17 -4 -32 -12 -32 -17 0 -5 -6 -9 -12 -9 -7
0 -42 -15 -78 -33 -36 -18 -109 -58 -163 -88 -54 -29 -128 -70 -165 -89 -37
-20 -80 -43 -97 -52 -16 -8 -41 -20 -55 -26 -14 -6 -34 -12 -45 -14 -11 -2
-21 -12 -23 -22 -4 -17 1 -18 43 -13 26 4 82 25 125 46 43 22 94 51 115 65 21
14 44 26 52 26 8 0 33 13 56 28 23 16 56 36 72 44 17 9 65 35 108 57 43 23 84
41 91 41 6 0 17 5 24 12 6 6 28 18 49 25 21 8 94 29 163 47 69 18 181 48 250
65 69 18 157 36 195 41 39 5 86 14 105 20 19 6 98 25 175 41 77 17 171 37 208
45 38 7 83 18 100 23 18 5 64 18 102 29 39 11 111 32 160 47 50 14 101 29 115
32 14 3 33 12 42 20 9 8 22 12 28 8 6 -3 38 2 73 13 34 11 75 23 92 27 16 4
36 11 42 17 7 6 13 17 13 24 0 8 -6 13 -12 13z"/>
</g>
<g>
<path d="M10148 19440 c-5 0 -11 -7 -15 -16 -3 -8 -1 -20 5 -26 7 -7 13 -4 21
10 6 10 7 22 4 26 -3 3 -10 6 -15 6z"/>
</g>
<g>
<path d="M9840 19424 c-8 1 -58 -1 -110 -4 -76 -4 -95 -8 -95 -20 0 -12 14
-14 84 -11 46 2 94 6 107 10 13 3 25 10 26 15 2 5 -4 10 -12 10z"/>
</g>
<g>
<path d="M9925 19430 c-8 0 -15 -4 -15 -10 0 -5 7 -10 15 -10 8 0 15 5 15 10
0 6 -7 10 -15 10z"/>
</g>
<g>
<path d="M9990 19430 c-5 0 -10 -4 -10 -10 0 -5 5 -10 10 -10 6 0 10 5 10 10
0 6 -4 10 -10 10z"/>
</g>
<g>
<path d="M10075 19430 c-19 0 -35 -4 -35 -9 0 -5 9 -11 21 -14 11 -3 27 -3 35
0 8 3 14 9 14 14 0 5 -16 9 -35 9z"/>
</g>
<g>
<path d="M10300 19430 c-5 0 -10 -7 -10 -15 0 -8 5 -15 10 -15 6 0 10 7 10 15
0 8 -4 15 -10 15z"/>
</g>
<g>
<path d="M8895 19412 c-60 2 -128 1 -150 -3 -22 -4 -50 -5 -63 -2 -12 3 -36 0
-52 -7 -24 -10 -28 -15 -19 -26 9 -11 53 -14 193 -14 99 0 193 0 209 0 15 0
37 -1 50 -1 12 -1 87 -2 166 -3 104 -1 149 3 162 12 11 7 19 18 19 23 0 7 -63
8 -177 6 -97 -3 -188 -1 -202 3 -14 5 -75 10 -136 12z"/>
</g>
<g>
<path d="M9567 19418 c-15 3 -18 -1 -15 -20 2 -12 10 -23 18 -23 8 0 15 9 15
20 0 11 -8 21 -18 23z"/>
</g>
<g>
<path d="M10450 19420 c-5 0 -10 -4 -10 -10 0 -5 5 -10 10 -10 6 0 10 5 10 10
0 6 -4 10 -10 10z"/>
</g>
<g>
<path d="M9482 19410 c-16 0 -35 -7 -42 -15 -9 -11 -10 -19 -3 -26 6 -6 20 -8
32 -4 12 3 26 15 31 26 9 17 7 19 -18 19z"/>
</g>
<g>
<path d="M8517 19380 c-7 0 -18 -4 -26 -9 -8 -5 -11 -16 -8 -25 4 -9 13 -16
20 -16 8 0 20 7 27 15 6 8 9 19 5 25 -3 5 -12 10 -18 10z"/>
</g>
<g>
<path d="M8448 19369 c-13 -1 -41 -5 -63 -10 -22 -5 -87 -20 -145 -34 -58 -13
-157 -32 -220 -41 -79 -12 -169 -17 -288 -17 l-173 2 -44 -42 c-24 -23 -47
-55 -50 -70 -4 -16 -3 -33 2 -38 6 -6 19 -6 36 0 15 6 27 18 27 28 0 10 6 29
13 43 l12 25 166 -3 c91 -1 188 2 215 8 27 6 78 13 114 16 36 3 85 11 110 19
25 7 77 20 115 30 39 9 91 20 118 24 28 4 53 15 62 27 8 10 15 22 15 27 0 4
-10 7 -22 6z"/>
</g>
<g>
<path d="M12253 19280 c-2 0 -3 -9 -3 -20 0 -11 6 -20 14 -20 7 0 19 -6 25
-13 6 -8 44 -30 83 -50 40 -20 109 -66 153 -102 44 -36 119 -105 166 -151 60
-60 90 -97 98 -124 6 -21 23 -57 36 -81 14 -24 29 -51 34 -59 4 -8 26 -53 49
-100 33 -68 42 -101 48 -161 5 -61 2 -90 -16 -155 -12 -43 -29 -92 -37 -108
-9 -17 -39 -54 -67 -84 -28 -30 -73 -69 -101 -87 -27 -18 -63 -45 -80 -59
l-30 -26 40 16 c22 9 47 22 55 28 8 7 24 16 34 20 11 4 43 26 70 48 28 23 64
57 80 75 16 19 40 62 54 96 14 34 29 99 35 144 7 57 7 102 -1 148 -6 36 -25
98 -43 138 -18 39 -39 79 -46 88 -7 8 -13 25 -13 37 0 11 -5 24 -10 27 -6 4
-28 42 -50 86 -22 43 -60 98 -83 121 -24 24 -78 74 -120 111 -42 38 -94 81
-114 96 -21 15 -67 42 -102 60 -35 18 -84 39 -110 47 -25 7 -47 14 -48 14z"/>
</g>
<g>
<path d="M10080 19130 c-9 0 -21 -5 -28 -12 -7 -7 -12 -18 -12 -25 0 -7 18
-17 40 -23 22 -5 57 -14 79 -20 21 -5 70 -10 109 -10 39 0 118 -5 174 -11 57
-6 135 -19 173 -30 39 -10 97 -25 130 -33 33 -8 97 -22 143 -32 45 -9 87 -23
93 -31 6 -7 24 -13 39 -13 15 0 59 -14 96 -31 38 -17 83 -37 101 -45 17 -8 37
-14 45 -14 7 -1 31 -12 53 -25 22 -13 57 -33 77 -44 20 -11 47 -26 59 -33 13
-7 30 -17 37 -23 8 -5 38 -33 66 -61 28 -28 61 -65 73 -81 16 -21 24 -51 28
-104 5 -53 3 -83 -7 -106 -8 -18 -27 -49 -43 -70 -17 -21 -60 -67 -96 -103
-36 -36 -81 -78 -100 -95 -19 -16 -56 -44 -83 -62 -26 -18 -51 -33 -55 -33 -3
0 -40 -16 -81 -37 -41 -20 -88 -43 -105 -50 -16 -7 -52 -21 -79 -33 -27 -11
-51 -18 -54 -16 -2 3 -21 -3 -41 -13 -20 -10 -63 -21 -95 -24 -32 -3 -64 -11
-70 -18 -8 -9 5 -10 59 -6 39 4 104 15 145 26 41 11 100 28 130 39 30 11 69
28 85 36 17 9 34 16 38 16 4 0 54 28 110 62 56 33 138 93 181 132 44 39 95 87
114 106 18 19 49 64 69 98 35 62 36 66 30 143 -4 58 -13 95 -35 142 -20 44
-45 77 -83 109 -30 26 -78 59 -107 75 -29 15 -67 36 -84 45 -17 9 -36 22 -41
27 -6 6 -23 11 -38 11 -15 0 -33 7 -40 16 -7 9 -25 21 -39 27 -14 5 -65 25
-115 42 -49 18 -110 39 -135 48 -25 8 -81 22 -125 31 -44 9 -93 21 -110 27
-16 6 -52 17 -80 24 -27 8 -77 21 -110 29 -38 10 -108 15 -191 16 -97 0 -149
5 -205 20 -41 11 -81 20 -89 20z"/>
</g>
<g>
<path d="M9340 18893 c-63 1 -164 -1 -225 -5 -60 -4 -189 -12 -285 -18 -96 -7
-206 -16 -245 -21 -38 -6 -108 -14 -155 -19 -47 -5 -103 -14 -125 -20 -22 -6
-58 -12 -80 -14 -22 -3 -105 -13 -185 -25 -80 -11 -165 -24 -190 -30 -25 -6
-70 -15 -100 -21 -30 -6 -77 -15 -103 -20 -27 -6 -63 -10 -81 -10 -17 0 -37
-5 -42 -10 -6 -6 -44 -12 -85 -14 -41 -3 -108 -14 -150 -26 -42 -11 -114 -23
-160 -25 -46 -3 -115 -9 -154 -14 -38 -5 -110 -16 -160 -25 -49 -9 -130 -20
-178 -26 -49 -6 -93 -13 -98 -16 -5 -3 -98 -8 -207 -12 -108 -5 -204 -12 -212
-17 -8 -5 -30 -10 -50 -12 -19 -1 -63 -5 -97 -9 -35 -3 -65 -10 -68 -15 -3 -5
-22 -6 -43 -3 -20 3 -52 1 -72 -5 -19 -5 -107 -21 -195 -35 -88 -14 -185 -32
-215 -41 -30 -8 -62 -18 -70 -22 -8 -3 -20 -7 -26 -8 -7 -2 -35 -14 -63 -29
-28 -14 -51 -23 -51 -20 0 2 -19 -5 -41 -17 -23 -11 -48 -26 -57 -32 -8 -7
-45 -42 -83 -78 -38 -36 -69 -73 -69 -82 0 -10 18 -37 40 -61 28 -31 52 -46
78 -51 20 -4 48 -13 62 -21 14 -8 59 -26 100 -40 41 -14 98 -31 127 -38 28 -6
55 -15 59 -19 4 -4 15 -7 24 -7 8 0 33 -9 55 -20 22 -11 47 -20 58 -20 10 0
36 -9 58 -21 23 -11 76 -29 118 -39 42 -11 123 -30 181 -44 58 -13 182 -36
275 -51 94 -14 195 -30 225 -36 30 -5 89 -16 130 -23 41 -7 129 -23 195 -34
66 -11 138 -23 160 -26 22 -3 78 -11 123 -16 46 -6 231 -11 410 -11 194 -1
362 3 414 10 47 6 146 14 220 16 73 3 147 8 163 10 17 3 80 10 140 15 61 5
151 10 200 10 50 0 131 7 180 16 50 8 100 17 112 19 12 2 26 6 31 9 6 3 54 15
109 26 54 11 116 20 139 20 22 0 65 5 95 10 30 6 143 26 251 45 108 20 236 47
283 60 47 14 113 36 147 50 34 14 66 25 71 25 5 0 64 21 131 46 67 25 128 52
136 59 8 7 27 16 42 20 15 4 32 13 39 21 6 8 17 14 23 14 6 0 37 18 69 40 31
22 61 40 65 40 5 0 53 32 108 70 54 39 116 90 137 113 22 23 50 63 63 89 15
30 24 64 24 93 0 26 -5 56 -11 68 -7 12 -31 45 -54 73 -35 41 -57 55 -117 79
-40 15 -77 31 -83 35 -5 4 -28 13 -50 20 -22 7 -46 17 -53 23 -8 6 -48 17 -90
24 -42 8 -99 16 -127 19 -27 3 -59 9 -70 14 -11 5 -58 14 -105 20 -47 6 -137
17 -200 25 -63 8 -141 13 -172 11 -31 -2 -59 -1 -63 2 -3 3 -36 7 -73 9 -37 1
-119 4 -182 6z m-99 -74 c109 0 258 -8 435 -24 148 -13 294 -29 325 -34 31 -5
74 -14 95 -20 22 -5 89 -17 149 -26 61 -9 119 -20 130 -25 11 -4 47 -18 80
-30 33 -12 83 -31 110 -43 28 -12 61 -30 74 -40 14 -10 32 -28 40 -41 9 -13
24 -35 34 -49 13 -18 17 -35 13 -54 -4 -15 -17 -41 -29 -57 -12 -16 -31 -38
-43 -50 -11 -11 -30 -29 -43 -39 -12 -9 -62 -44 -110 -77 -49 -33 -93 -60 -98
-60 -5 0 -20 -11 -33 -25 -13 -14 -27 -25 -32 -25 -4 0 -43 -19 -86 -43 -43
-24 -112 -56 -153 -71 -41 -15 -110 -40 -154 -55 -44 -15 -116 -40 -160 -55
-44 -15 -98 -31 -120 -35 -23 -4 -46 -10 -52 -14 -6 -4 -53 -13 -104 -21 -52
-8 -132 -21 -179 -30 -47 -8 -123 -20 -170 -26 -47 -7 -94 -14 -105 -16 -11
-2 -65 -13 -120 -23 -55 -11 -116 -24 -135 -29 -19 -6 -96 -13 -170 -16 -74
-4 -173 -9 -220 -12 -47 -3 -116 -7 -155 -9 -38 -2 -110 -8 -160 -15 -54 -7
-139 -9 -215 -5 -69 3 -226 6 -350 7 -124 0 -229 0 -235 -1 -5 -1 1 -8 13 -17
12 -8 20 -20 16 -25 -4 -7 -69 -8 -188 -4 -99 4 -188 11 -197 16 -8 4 -33 10
-55 13 -21 3 -95 14 -164 25 -69 11 -145 25 -170 30 -25 6 -90 17 -145 26 -55
8 -129 20 -165 26 -36 6 -103 17 -150 25 -47 8 -105 19 -130 24 -25 5 -75 14
-112 20 -38 6 -78 14 -90 19 -13 5 -43 14 -68 21 -25 6 -76 25 -115 42 -38 16
-97 39 -130 49 -33 10 -94 28 -135 40 -41 11 -100 31 -130 44 -30 13 -76 33
-103 44 -26 11 -50 28 -54 37 -5 13 8 31 50 69 31 28 71 59 89 67 18 9 53 25
78 36 25 11 63 23 85 27 22 3 49 12 60 19 11 7 54 20 95 29 41 8 143 27 225
41 83 14 215 32 295 42 80 9 148 18 153 21 4 2 101 9 215 14 114 5 239 16 277
24 39 8 102 20 140 26 39 6 115 18 170 26 55 9 111 16 125 16 14 0 63 6 110
14 47 8 110 17 140 20 30 3 62 9 70 13 8 4 45 11 82 15 37 3 70 11 73 16 4 5
27 9 53 9 26 1 67 5 92 11 25 6 89 17 143 24 54 8 117 19 140 26 23 6 55 12
72 14 16 2 64 6 105 10 41 4 84 12 95 18 11 6 52 11 90 13 39 1 97 6 130 13
33 6 107 15 165 21 58 6 134 13 170 16 36 4 110 10 165 14 55 4 175 8 266 9z"/>
</g>
<g>
<path d="M6541 18819 c-25 0 -62 -5 -81 -10 -19 -5 -44 -14 -55 -19 -11 -5
-55 -18 -98 -29 -43 -11 -120 -23 -170 -26 -51 -3 -126 -10 -167 -15 -41 -5
-106 -12 -145 -15 -38 -2 -92 -7 -120 -10 -27 -3 -113 -17 -190 -30 -77 -13
-162 -26 -190 -30 -27 -3 -79 -12 -115 -20 -36 -8 -110 -22 -165 -31 -55 -10
-125 -26 -155 -36 -30 -11 -93 -30 -140 -42 -47 -13 -114 -33 -150 -45 -36
-12 -81 -26 -100 -33 -19 -6 -63 -24 -97 -40 -35 -16 -63 -33 -63 -36 0 -4
-15 -13 -32 -21 -18 -8 -60 -35 -93 -60 -33 -25 -82 -66 -108 -91 -27 -24 -58
-62 -69 -84 -17 -33 -19 -51 -14 -107 3 -37 11 -80 17 -96 6 -15 20 -38 31
-50 12 -13 48 -36 80 -53 33 -17 92 -42 131 -55 40 -13 93 -27 120 -31 26 -3
50 -10 53 -15 3 -5 13 -9 23 -9 10 0 52 -14 92 -31 41 -17 91 -39 111 -50 20
-10 54 -22 75 -25 21 -3 44 -11 51 -17 7 -6 34 -14 60 -18 26 -5 97 -11 157
-15 61 -4 126 -7 145 -8 25 -1 35 3 35 14 0 8 -11 18 -25 22 -14 4 -90 13
-170 21 -84 9 -158 21 -175 30 -16 9 -54 25 -84 36 -29 12 -61 21 -70 21 -10
0 -21 4 -27 8 -5 5 -29 14 -54 21 -25 7 -56 19 -70 26 -14 7 -41 16 -60 20
-19 4 -39 10 -45 14 -5 4 -26 12 -45 18 -19 7 -55 17 -80 23 -25 7 -73 28
-108 47 -38 21 -68 46 -78 64 -8 16 -17 64 -21 105 l-6 76 68 64 c37 35 118
95 179 132 91 56 139 77 271 120 88 29 167 52 175 52 8 0 27 6 41 14 14 7 43
17 65 21 21 5 43 8 47 7 4 -1 20 4 35 11 15 8 52 19 82 25 30 6 82 16 115 21
33 6 80 13 105 16 25 3 59 10 75 15 17 5 80 17 140 26 61 8 144 19 185 24 41
4 98 11 125 14 28 3 149 15 270 27 189 18 236 26 335 57 63 20 131 36 152 36
20 1 42 6 49 13 10 10 9 16 -1 28 -8 10 -28 15 -59 14z"/>
</g>
<g>
<path d="M3222 18240 c-5 0 -12 -3 -15 -7 -4 -3 -7 -10 -7 -15 0 -4 7 -8 15
-8 8 0 15 7 15 15 0 8 -4 15 -8 15z"/>
</g>
<g>
<path d="M3137 18219 c-18 -1 -48 -5 -67 -10 -19 -5 -59 -14 -87 -19 -29 -6
-65 -17 -80 -25 -16 -8 -32 -15 -38 -15 -5 0 -46 -14 -90 -32 -44 -17 -132
-56 -195 -87 -63 -30 -134 -70 -156 -88 -23 -18 -53 -38 -68 -44 -14 -7 -26
-15 -26 -20 0 -4 -19 -14 -42 -24 -24 -9 -72 -44 -107 -78 -35 -34 -80 -78
-100 -97 -20 -19 -48 -50 -62 -68 -15 -18 -31 -52 -37 -75 -6 -23 -15 -71 -21
-107 -6 -36 -13 -80 -15 -99 -2 -19 0 -46 4 -60 4 -14 13 -57 20 -96 7 -38 19
-83 28 -100 8 -16 35 -51 61 -77 25 -27 51 -48 56 -48 6 -1 26 -14 45 -30 19
-17 40 -30 48 -30 7 0 28 -11 45 -24 18 -14 43 -27 57 -29 14 -3 34 -9 45 -13
11 -4 34 -18 51 -31 17 -12 57 -31 90 -42 34 -11 63 -15 68 -10 5 5 8 10 5 12
-2 2 -41 22 -87 45 -45 23 -86 41 -90 39 -4 -1 -34 14 -66 33 -32 19 -76 44
-97 55 -20 11 -67 50 -103 87 -39 39 -75 87 -87 115 -11 26 -27 82 -34 125
-10 54 -11 93 -5 135 5 32 15 86 23 119 8 36 24 74 39 92 14 17 81 78 148 134
67 57 132 109 144 117 11 8 50 33 86 56 36 23 94 56 130 74 36 17 76 38 90 46
14 8 61 28 105 44 44 16 118 41 165 54 47 14 112 31 145 38 33 6 70 18 83 26
12 8 20 18 17 23 -4 6 -21 10 -38 9z"/>
</g>
<g>
<path d="M10696 17770 c-3 0 -8 -4 -11 -10 -3 -5 -1 -10 4 -10 6 0 11 5 11 10
0 6 -2 10 -4 10z"/>
</g>
<g>
<path d="M10623 17750 c-21 0 -45 -5 -53 -10 -11 -7 -2 -10 32 -10 26 0 50 5
53 10 4 6 -9 10 -32 10z"/>
</g>
<g>
<path d="M13608 17570 c-3 0 -12 -8 -21 -18 -10 -10 -17 -31 -17 -46 0 -18 -9
-35 -24 -47 -14 -11 -27 -33 -31 -49 -4 -17 -26 -56 -50 -88 -24 -31 -70 -81
-103 -109 -33 -29 -80 -63 -104 -76 -23 -13 -88 -50 -143 -81 -55 -32 -138
-79 -185 -103 -47 -25 -103 -56 -125 -69 -22 -12 -59 -32 -83 -43 -24 -11 -57
-32 -74 -46 -16 -14 -36 -25 -44 -25 -9 0 -34 -13 -57 -29 -23 -15 -53 -32
-67 -36 -14 -4 -36 -15 -50 -24 -14 -9 -45 -26 -70 -37 -25 -12 -81 -32 -125
-44 -44 -13 -105 -24 -135 -24 -30 -1 -65 -7 -77 -14 -13 -7 -23 -19 -23 -27
0 -8 9 -19 19 -25 11 -5 35 -10 53 -10 18 0 46 7 62 15 15 8 39 15 52 15 12 0
25 4 28 9 3 5 22 12 42 16 20 3 44 10 53 15 9 5 47 23 84 40 38 16 77 30 87
30 11 0 24 9 30 20 6 11 15 20 21 20 6 0 42 19 80 43 39 23 100 59 137 79 37
20 114 60 172 89 58 29 112 58 120 65 8 7 42 27 75 45 33 18 78 44 101 58 22
14 62 40 89 56 26 17 70 50 97 74 27 25 73 80 104 123 30 43 57 93 61 111 3
17 12 40 20 49 8 9 17 35 20 57 3 23 3 41 1 41z"/>
</g>
<g>
<path d="M5260 17550 c-16 0 -32 -4 -35 -10 -3 -5 -3 -15 1 -21 4 -7 24 -9 50
-6 23 2 46 1 51 -4 5 -5 18 -6 31 -2 18 4 20 8 11 20 -8 9 -22 12 -40 8 -15
-3 -30 -1 -34 4 -3 6 -19 11 -35 11z"/>
</g>
<g>
<path d="M5428 17530 c-21 0 -38 -4 -38 -9 0 -5 17 -11 38 -14 20 -3 46 -5 57
-5 11 1 28 -2 38 -7 12 -5 17 -3 17 8 0 9 -14 17 -37 21 -21 3 -55 6 -75 6z"/>
</g>
<g>
<path d="M8671 17020 c-11 0 -22 -4 -26 -9 -3 -5 -1 -12 4 -15 5 -3 16 -3 25
0 9 3 16 10 16 15 0 5 -9 9 -19 9z"/>
</g>
<g>
<path d="M8593 17009 c-4 -1 -16 -3 -25 -6 -10 -2 -18 -11 -18 -18 0 -11 6
-12 22 -6 12 4 24 13 26 19 2 7 0 11 -5 11z"/>
</g>
<g>
<path d="M5619 17000 c-17 0 -32 -6 -35 -15 -3 -8 -3 -18 0 -23 3 -6 21 -13
39 -16 18 -3 60 -9 93 -12 32 -3 75 -10 94 -16 19 -6 64 -10 100 -9 36 1 125
-6 198 -15 101 -12 140 -14 158 -5 18 8 29 8 44 -1 15 -9 32 -10 72 -1 29 6
107 12 174 12 66 1 162 -3 213 -9 70 -9 95 -9 106 0 8 7 13 16 10 20 -2 4 -69
13 -147 20 -80 7 -190 10 -248 6 -58 -3 -125 -6 -149 -5 -24 0 -57 -5 -73 -12
-21 -8 -35 -9 -51 -1 -12 5 -49 15 -82 21 -33 5 -67 10 -75 10 -8 -1 -66 2
-127 4 -62 3 -117 8 -123 12 -5 3 -44 12 -86 20 -41 8 -89 15 -105 15z"/>
</g>
<g>
<path d="M8133 16941 c-5 5 -14 4 -21 -3 -7 -7 -12 -16 -12 -20 0 -4 6 -8 14
-8 8 0 18 5 22 11 3 6 2 15 -3 20z"/>
</g>
<g>
<path d="M8322 16949 c-20 -1 -47 -4 -59 -6 -12 -2 -20 -10 -17 -16 3 -8 22
-12 52 -10 26 2 53 5 60 8 7 3 10 9 7 15 -3 5 -23 9 -43 9z"/>
</g>
<g>
<path d="M7789 16936 c-24 3 -47 3 -50 0 -3 -3 -111 -9 -240 -12 -129 -3 -237
-8 -241 -11 -5 -2 -8 -11 -8 -18 0 -12 23 -14 133 -10 72 2 202 7 287 11 85 4
167 6 183 5 18 -1 27 4 27 14 0 9 -9 15 -24 15 -13 0 -43 3 -67 6z"/>
</g>
<g>
<path d="M7935 16930 c-8 0 -16 -4 -19 -9 -3 -5 1 -12 10 -15 9 -3 20 -3 25 0
5 3 7 10 4 15 -4 5 -12 9 -20 9z"/>
</g>
<g>
<path d="M8055 16930 c-8 0 -15 -4 -15 -10 0 -5 7 -10 15 -10 8 0 15 5 15 10
0 6 -7 10 -15 10z"/>
</g>
<g>
<path d="M7014 16916 c-44 1 -87 -1 -94 -6 -7 -4 -10 -15 -7 -24 5 -13 25 -16
125 -16 66 0 134 3 151 6 17 4 31 13 31 20 0 8 -3 14 -7 15 -5 0 -19 2 -32 5
-13 2 -30 -1 -37 -7 -8 -6 -21 -8 -31 -4 -10 5 -54 9 -99 11z"/>
</g>
<g>
<path d="M2674 16720 c-8 0 -14 -4 -14 -9 0 -5 7 -14 15 -21 8 -6 19 -9 25 -5
8 5 8 11 -1 21 -6 8 -18 14 -25 14z"/>
</g>
<g>
<path d="M2765 16690 c-8 0 -15 -2 -15 -4 0 -2 7 -6 15 -10 8 -3 15 -1 15 4 0
6 -7 10 -15 10z"/>
</g>
<g>
<path d="M2940 16640 c-5 0 -10 -4 -10 -10 0 -5 5 -10 10 -10 6 0 10 5 10 10
0 6 -4 10 -10 10z"/>
</g>
<g>
<path d="M11906 16520 c-9 0 -16 -7 -16 -16 0 -9 5 -14 12 -12 6 2 14 10 16
16 2 7 -3 12 -12 12z"/>
</g>
<g>
<path d="M8820 16116 c-36 2 -78 -2 -95 -8 -17 -6 -101 -12 -195 -14 -91 -1
-199 -7 -240 -13 -41 -6 -104 -15 -140 -20 -36 -5 -108 -16 -160 -26 -52 -9
-99 -20 -105 -26 -5 -5 -18 -9 -30 -9 -11 0 -63 -11 -115 -25 -52 -13 -142
-37 -200 -53 -58 -17 -132 -37 -165 -46 -33 -9 -73 -23 -90 -31 -16 -8 -53
-19 -82 -25 -29 -7 -57 -18 -64 -26 -6 -8 -21 -14 -33 -14 -12 0 -44 -9 -71
-19 -28 -11 -66 -25 -85 -32 -19 -6 -44 -16 -55 -20 -11 -5 -58 -24 -103 -43
-46 -19 -96 -43 -110 -53 -15 -9 -36 -19 -46 -20 -11 -2 -25 -8 -31 -13 -6 -5
-30 -16 -52 -24 -22 -8 -58 -25 -79 -39 -22 -13 -50 -28 -64 -32 -13 -4 -58
-30 -99 -56 -41 -27 -80 -49 -85 -49 -6 -1 -27 -14 -46 -30 -19 -17 -40 -30
-47 -30 -7 0 -30 -15 -50 -33 -21 -18 -51 -39 -66 -47 -15 -7 -48 -33 -74 -57
-25 -24 -48 -43 -52 -43 -3 0 -15 -14 -26 -30 -11 -16 -26 -30 -32 -30 -7 0
-13 -7 -13 -15 0 -8 -5 -15 -11 -15 -5 0 -30 -17 -55 -37 -24 -21 -44 -43 -44
-49 0 -6 -12 -19 -26 -29 -15 -9 -40 -33 -58 -53 -17 -19 -35 -40 -41 -46 -5
-6 -32 -38 -58 -71 -27 -33 -66 -80 -87 -105 -21 -25 -60 -76 -85 -115 -26
-38 -67 -108 -92 -155 -25 -47 -50 -89 -54 -94 -5 -6 -9 -16 -9 -24 0 -8 -6
-28 -14 -45 -7 -18 -21 -57 -30 -88 -9 -30 -20 -109 -26 -174 -5 -65 -6 -123
-3 -128 4 -6 6 -29 4 -52 -1 -22 9 -74 23 -115 13 -41 44 -104 68 -140 24 -36
66 -89 93 -119 28 -30 102 -99 166 -155 64 -56 171 -144 238 -196 67 -52 138
-107 159 -122 20 -16 93 -65 162 -111 69 -46 150 -99 180 -119 30 -19 111 -65
180 -103 69 -37 142 -79 162 -91 21 -13 41 -24 46 -24 4 0 30 -15 57 -32 28
-18 75 -46 105 -62 30 -16 89 -50 130 -76 41 -26 82 -50 90 -53 8 -4 29 -16
45 -27 17 -11 46 -29 65 -40 19 -12 52 -31 72 -43 20 -13 46 -31 57 -41 10
-10 34 -26 53 -35 18 -10 34 -25 35 -32 1 -8 -20 -32 -48 -54 -27 -22 -73 -59
-102 -83 -29 -23 -70 -55 -92 -70 -22 -14 -75 -52 -117 -84 -42 -32 -80 -58
-84 -58 -4 0 -50 -39 -102 -87 -53 -49 -103 -94 -112 -100 -8 -7 -41 -37 -72
-67 -32 -30 -58 -58 -58 -63 0 -5 -16 -17 -36 -28 -19 -10 -46 -31 -58 -46
-12 -14 -34 -34 -49 -44 -15 -9 -36 -32 -48 -51 -11 -19 -26 -34 -33 -34 -6 0
-61 -48 -122 -107 -61 -60 -119 -113 -130 -119 -10 -6 -23 -20 -29 -32 -5 -12
-13 -22 -18 -22 -5 0 -31 -19 -58 -42 -27 -22 -49 -47 -49 -53 0 -7 -17 -24
-38 -39 -21 -14 -105 -93 -186 -174 -81 -81 -155 -154 -164 -163 -9 -9 -49
-50 -89 -92 -39 -42 -74 -77 -77 -77 -2 0 -29 -26 -58 -57 -29 -31 -102 -108
-163 -171 -60 -62 -114 -122 -120 -132 -5 -10 -22 -28 -37 -40 -16 -12 -28
-27 -28 -33 0 -7 -19 -32 -41 -57 -22 -25 -66 -79 -98 -120 -32 -42 -66 -82
-76 -90 -10 -8 -36 -42 -57 -75 -22 -33 -65 -93 -96 -134 -31 -40 -78 -99
-103 -130 -25 -31 -62 -81 -82 -111 -20 -30 -49 -71 -64 -91 -16 -20 -41 -58
-58 -85 -16 -26 -35 -56 -42 -67 -6 -11 -15 -22 -20 -26 -4 -3 -12 -13 -18
-22 -5 -9 -30 -43 -54 -75 -25 -33 -48 -62 -53 -65 -5 -3 -18 -22 -28 -42 -11
-20 -20 -42 -20 -47 0 -6 -12 -23 -26 -38 -14 -15 -35 -47 -46 -72 -10 -25
-37 -68 -57 -95 -21 -28 -42 -65 -46 -83 -3 -17 -11 -35 -17 -38 -5 -4 -17
-21 -25 -38 -8 -17 -27 -53 -43 -81 -16 -27 -29 -59 -29 -70 -1 -10 -8 -40
-17 -65 -9 -25 -20 -54 -24 -65 -5 -11 -12 -29 -16 -40 -5 -11 -10 -36 -11
-55 -2 -19 -4 -55 -5 -80 0 -25 5 -67 11 -95 7 -27 16 -59 21 -70 5 -11 12
-36 15 -55 4 -19 20 -55 36 -79 16 -25 29 -54 29 -66 0 -12 11 -36 25 -55 14
-19 25 -39 25 -44 0 -6 9 -22 20 -36 11 -14 20 -32 20 -41 0 -9 12 -32 28 -52
15 -19 35 -48 44 -64 10 -15 32 -47 50 -70 18 -22 57 -70 86 -107 29 -36 61
-67 70 -70 9 -3 37 -25 62 -49 25 -23 95 -79 157 -125 62 -45 117 -82 122 -82
6 0 11 -4 11 -8 0 -5 15 -16 33 -25 17 -10 52 -31 77 -47 25 -16 80 -47 122
-69 42 -22 79 -45 83 -50 3 -6 27 -17 53 -25 26 -7 69 -25 96 -40 27 -14 56
-26 64 -26 8 0 36 -11 64 -25 27 -14 58 -25 68 -25 10 0 48 -13 85 -30 37 -17
77 -30 90 -30 12 0 49 -12 81 -26 32 -14 66 -23 76 -21 10 3 20 2 23 -3 2 -4
26 -10 52 -14 27 -3 61 -13 76 -21 15 -8 34 -12 42 -9 8 3 24 -1 37 -10 12 -9
39 -16 59 -16 20 0 49 -4 65 -10 16 -5 76 -17 134 -26 58 -9 137 -20 177 -24
40 -5 76 -11 81 -14 5 -3 43 -8 83 -11 41 -3 90 -10 110 -15 19 -6 93 -17 165
-26 71 -9 142 -16 158 -16 16 1 35 -3 42 -9 7 -6 48 -12 91 -14 43 -2 119 -9
168 -16 57 -7 235 -11 485 -11 217 1 424 4 460 7 36 3 110 8 165 10 55 3 107
8 115 12 8 4 29 8 45 9 17 1 53 3 80 4 28 1 90 10 140 21 49 10 104 19 122 19
18 0 41 4 51 9 9 5 35 14 57 19 22 6 60 15 85 21 25 6 86 20 135 32 50 11 95
26 100 33 6 7 24 12 40 11 17 0 55 8 85 19 30 10 60 23 67 28 7 5 17 7 23 3 6
-4 21 0 34 9 13 8 52 25 87 36 35 12 78 28 96 36 17 7 35 14 40 14 5 0 27 8
49 19 21 10 57 26 79 36 22 10 47 24 55 30 8 7 31 15 51 19 20 4 55 20 78 36
22 17 48 30 57 30 9 0 32 16 50 36 19 19 34 31 34 25 0 -6 9 -11 20 -11 12 0
25 10 32 25 6 14 20 25 30 25 10 0 31 6 46 14 15 8 36 23 46 35 11 12 25 21
32 21 7 0 33 14 56 30 24 17 60 42 81 56 21 14 40 31 43 39 3 7 15 16 27 19
12 3 67 50 122 103 55 54 132 133 172 176 39 42 89 102 110 132 21 31 44 68
52 83 8 15 29 49 48 76 18 26 33 53 33 58 0 5 8 22 19 36 10 15 22 38 26 52 4
14 15 43 25 65 10 22 27 64 39 94 11 29 21 61 21 70 0 10 4 21 9 27 6 5 17 36
26 69 9 33 18 71 20 85 2 14 8 36 13 50 5 14 19 73 30 130 11 58 26 139 32
180 6 41 15 128 19 193 5 65 5 169 0 230 -4 62 -19 183 -33 269 -14 86 -39
207 -56 269 -17 63 -40 146 -51 184 -11 39 -39 126 -61 195 -22 69 -56 163
-74 210 -18 47 -46 117 -62 155 -17 39 -37 84 -46 100 -9 17 -16 33 -16 36 0
3 -25 51 -55 107 -30 55 -80 140 -111 189 -31 48 -61 91 -66 94 -6 4 -15 15
-21 27 -7 11 -50 67 -97 123 -46 57 -134 154 -195 215 -60 61 -163 155 -228
210 -65 54 -205 168 -310 252 -106 84 -214 169 -242 188 -27 19 -82 56 -120
82 -39 27 -97 68 -130 92 -33 25 -123 86 -200 137 -77 51 -145 97 -152 103 -7
5 -15 10 -19 10 -4 0 -32 17 -63 37 -31 21 -76 49 -101 62 -25 13 -63 36 -85
51 -22 15 -86 55 -142 89 -55 33 -103 61 -106 61 -2 0 -41 22 -87 50 -45 27
-88 55 -96 61 -11 9 6 33 89 122 56 61 125 134 153 162 27 27 77 82 111 120
33 39 73 84 89 101 16 17 56 62 89 100 33 37 96 105 140 150 44 45 115 121
159 168 43 48 91 101 106 119 14 17 54 61 88 97 34 35 62 68 62 72 0 4 20 30
45 58 25 28 45 55 45 61 0 6 16 30 35 53 19 24 35 46 35 51 0 4 30 53 66 109
37 55 75 112 84 126 9 14 25 42 35 63 9 20 21 37 25 37 5 0 28 28 53 63 24 35
50 76 58 93 9 16 22 40 30 54 8 14 20 33 28 43 8 9 20 27 27 40 7 12 17 31 23
43 5 11 29 54 53 95 24 40 51 99 60 129 10 30 29 100 44 155 25 91 28 116 28
280 1 162 -1 187 -22 252 -13 39 -41 106 -63 148 -21 43 -51 91 -65 109 -15
17 -49 51 -78 74 -28 24 -69 53 -91 64 -22 11 -53 28 -70 37 -16 9 -68 38
-115 65 -47 27 -116 66 -155 87 -38 22 -106 57 -150 77 -44 21 -120 51 -170
66 -49 15 -119 36 -155 47 -36 11 -94 22 -130 25z m-300 -64 c72 -3 120 -9
128 -17 11 -10 20 -10 43 2 22 11 48 13 102 8 39 -3 79 -8 87 -10 8 -2 31 -7
50 -10 19 -3 55 -13 80 -21 25 -8 85 -28 134 -45 50 -16 122 -47 160 -67 39
-21 135 -75 214 -120 78 -46 150 -86 160 -89 9 -4 28 -14 42 -23 14 -9 44 -30
68 -45 24 -16 65 -56 92 -91 28 -34 66 -95 85 -135 19 -41 42 -112 50 -158 12
-58 15 -119 12 -200 -2 -64 -10 -129 -16 -144 -6 -16 -8 -33 -5 -39 3 -5 -1
-28 -9 -51 -9 -23 -23 -71 -32 -107 -8 -35 -22 -71 -29 -80 -8 -8 -17 -26 -21
-40 -4 -14 -15 -36 -24 -50 -9 -14 -23 -38 -31 -55 -8 -16 -24 -43 -36 -60
-11 -16 -24 -40 -28 -52 -4 -11 -13 -24 -21 -27 -8 -3 -15 -13 -15 -22 0 -9
-13 -33 -29 -53 -15 -20 -39 -56 -51 -81 -12 -25 -26 -47 -31 -50 -4 -3 -19
-21 -33 -40 -14 -19 -37 -56 -50 -82 -14 -26 -30 -49 -36 -53 -5 -3 -10 -14
-10 -24 0 -9 -13 -30 -30 -46 -16 -16 -30 -34 -30 -41 0 -7 -6 -17 -14 -21 -7
-4 -23 -28 -36 -53 -12 -25 -33 -59 -46 -77 -13 -17 -24 -36 -24 -40 0 -5 -13
-21 -28 -36 -15 -15 -32 -27 -38 -27 -5 0 -19 -15 -31 -33 -12 -17 -37 -52
-54 -77 -18 -25 -37 -49 -44 -55 -7 -5 -29 -32 -50 -59 -20 -28 -70 -83 -111
-123 -41 -41 -74 -79 -74 -86 0 -7 -18 -22 -40 -35 -22 -12 -40 -29 -40 -36 0
-8 -21 -33 -47 -56 -27 -22 -56 -53 -65 -68 -10 -15 -22 -37 -28 -49 -5 -13
-15 -23 -22 -23 -6 0 -47 -36 -90 -81 -43 -44 -78 -87 -78 -94 0 -7 -21 -33
-46 -57 -26 -24 -63 -60 -83 -81 -20 -21 -70 -72 -111 -114 -41 -41 -85 -82
-98 -90 -21 -14 -27 -13 -89 18 -37 19 -99 52 -139 75 l-73 41 32 35 c18 19
58 54 90 78 32 24 65 56 73 72 8 16 56 70 106 119 50 50 116 108 146 128 30
20 64 43 77 51 12 8 44 33 71 55 26 22 97 90 157 150 59 61 139 153 176 205
38 52 80 115 94 140 15 25 42 74 62 110 19 36 49 90 66 120 18 30 67 125 110
210 43 86 87 178 99 205 12 28 39 95 59 150 21 55 48 138 61 185 19 72 21 99
16 177 -4 51 -16 117 -27 147 -10 31 -19 60 -19 66 0 6 -10 25 -22 43 -13 18
-29 36 -35 40 -7 4 -13 15 -13 23 0 9 -28 43 -62 76 -34 33 -78 70 -97 82 -20
13 -63 32 -96 44 -33 11 -96 30 -139 42 -44 12 -93 28 -110 35 -17 8 -53 21
-81 30 -27 9 -66 21 -85 26 -19 5 -46 12 -60 15 -14 3 -41 9 -60 14 -19 5 -69
12 -110 15 -41 3 -109 7 -150 9 -41 3 -109 0 -150 -5 -41 -5 -101 -10 -133
-10 -36 -1 -63 -7 -72 -16 -8 -8 -15 -19 -15 -25 0 -6 -8 -3 -19 6 -15 14 -31
16 -82 11 -35 -3 -80 -7 -99 -10 -19 -2 -55 -9 -80 -14 -25 -6 -78 -17 -118
-26 -40 -8 -80 -19 -90 -23 -9 -5 -37 -12 -62 -16 -24 -4 -49 -11 -55 -16 -6
-5 -46 -18 -90 -30 -44 -12 -87 -23 -95 -25 -8 -2 -44 -15 -80 -29 -36 -13
-81 -30 -100 -37 -19 -6 -72 -29 -117 -50 -44 -21 -96 -51 -115 -66 -18 -16
-52 -41 -75 -57 -24 -16 -71 -58 -105 -93 -35 -35 -75 -76 -90 -90 -15 -14
-40 -44 -55 -67 -15 -22 -33 -45 -39 -51 -6 -5 -26 -30 -45 -55 -19 -24 -38
-51 -44 -61 -5 -9 -30 -54 -55 -100 l-45 -84 0 -195 c0 -189 1 -197 28 -263
15 -37 38 -85 51 -106 13 -21 46 -60 73 -87 26 -27 91 -87 143 -133 52 -46
214 -201 360 -345 166 -164 301 -288 360 -331 53 -39 103 -74 112 -80 8 -5 42
-28 74 -51 33 -23 79 -52 104 -65 25 -14 72 -42 105 -64 33 -21 102 -61 154
-87 52 -26 98 -48 103 -48 5 0 25 -10 46 -23 20 -13 96 -54 167 -91 72 -37
144 -80 160 -95 17 -15 41 -28 54 -29 13 0 27 -6 30 -11 4 -6 24 -17 45 -26
21 -9 57 -28 80 -43 22 -15 50 -32 61 -38 11 -6 61 -36 110 -67 50 -31 127
-79 173 -106 46 -28 87 -51 91 -51 4 0 15 -8 24 -17 8 -10 42 -31 74 -48 32
-16 60 -32 63 -35 3 -3 32 -23 65 -45 33 -22 64 -44 70 -48 5 -4 46 -31 90
-60 45 -29 96 -63 113 -77 18 -14 50 -39 70 -56 20 -17 44 -33 53 -37 10 -3
49 -28 88 -56 39 -28 75 -51 79 -51 4 0 19 -12 33 -27 14 -16 52 -47 84 -70
33 -24 80 -61 105 -83 25 -23 56 -47 70 -55 15 -7 44 -31 66 -52 23 -21 59
-54 81 -73 22 -19 71 -60 109 -90 37 -30 113 -100 167 -155 54 -55 117 -122
139 -150 22 -27 66 -79 97 -114 31 -35 72 -85 91 -111 19 -26 53 -76 75 -111
22 -35 57 -95 79 -134 21 -38 63 -126 93 -195 31 -69 64 -147 75 -175 11 -27
25 -58 31 -70 6 -11 17 -38 23 -60 6 -22 23 -72 37 -111 14 -39 35 -102 45
-140 11 -38 34 -121 52 -184 17 -63 40 -162 51 -220 11 -58 26 -150 34 -205 8
-55 15 -176 15 -269 0 -93 -5 -196 -10 -230 -6 -33 -19 -113 -30 -176 -10 -63
-28 -151 -40 -195 -11 -44 -32 -118 -47 -165 -15 -47 -47 -134 -71 -195 -24
-60 -64 -147 -88 -193 -24 -45 -63 -111 -86 -145 -23 -34 -53 -76 -67 -93 -14
-18 -37 -47 -51 -65 -14 -19 -74 -84 -135 -145 -60 -61 -139 -133 -175 -160
-36 -28 -92 -67 -125 -88 -33 -21 -77 -50 -98 -65 -21 -14 -45 -31 -55 -36 -9
-6 -63 -36 -119 -68 -56 -32 -144 -77 -195 -101 -51 -24 -115 -53 -143 -65
-27 -13 -106 -44 -175 -71 -69 -26 -154 -58 -190 -70 -36 -12 -74 -25 -85 -30
-11 -5 -51 -16 -90 -26 -38 -9 -78 -21 -87 -26 -10 -5 -37 -13 -60 -17 -24 -5
-74 -18 -113 -29 -38 -10 -101 -25 -140 -31 -38 -7 -85 -17 -104 -23 -18 -6
-97 -19 -175 -30 -77 -11 -157 -21 -176 -23 -19 -3 -69 -7 -110 -10 -41 -3
-102 -8 -135 -11 -33 -3 -220 -6 -415 -8 -195 -2 -407 1 -470 5 -63 5 -155 14
-205 20 -49 7 -106 13 -125 15 -19 2 -69 7 -110 13 -41 5 -102 14 -135 21 -33
7 -69 12 -80 13 -11 0 -38 3 -60 8 -22 4 -98 15 -170 24 -71 8 -152 20 -180
25 -27 5 -93 16 -145 25 -52 9 -111 21 -130 25 -19 5 -75 19 -125 31 -49 11
-106 26 -125 31 -19 6 -44 14 -55 19 -11 4 -40 13 -65 19 -25 6 -54 15 -65 20
-11 5 -50 18 -87 29 -37 12 -72 21 -77 21 -6 0 -44 16 -85 35 -41 19 -80 35
-86 35 -6 0 -18 4 -28 9 -9 5 -53 27 -97 49 -44 22 -91 43 -105 47 -14 4 -38
17 -53 27 -16 11 -49 31 -74 44 -25 14 -75 46 -111 72 -37 26 -74 52 -83 57
-10 6 -55 39 -101 74 -46 36 -112 90 -148 120 -36 31 -95 90 -132 131 -36 41
-82 98 -100 125 -19 28 -46 73 -60 100 -14 28 -35 70 -45 95 -11 25 -37 83
-58 129 -21 46 -44 107 -51 135 -7 28 -19 75 -27 104 -11 39 -12 72 -6 120 4
37 15 90 23 117 9 28 20 59 25 70 5 11 21 49 36 85 15 36 50 108 78 160 27 52
70 129 94 170 24 41 65 109 91 151 26 42 66 101 90 132 23 31 42 58 42 61 0 2
18 30 41 62 22 33 56 83 75 112 20 30 43 61 52 71 10 9 31 36 47 61 17 24 78
109 138 189 59 80 124 168 145 195 20 27 73 94 117 149 44 55 94 119 111 141
17 23 47 58 67 80 20 21 58 64 84 95 26 31 101 112 167 180 67 69 202 206 301
304 99 99 250 245 335 326 85 81 180 169 210 196 30 27 99 92 154 145 54 52
124 120 155 150 32 30 102 95 155 145 54 49 108 96 120 104 11 9 58 47 103 86
45 38 96 81 114 95 18 14 49 36 70 50 21 14 110 73 198 132 88 60 181 119 207
132 38 19 52 22 69 14 11 -6 22 -14 25 -17 3 -4 28 -20 55 -36 28 -16 60 -34
72 -40 22 -12 21 -13 -35 -53 -31 -23 -68 -53 -82 -66 -14 -13 -52 -43 -85
-65 -32 -23 -73 -54 -90 -69 -16 -15 -64 -49 -104 -76 -47 -30 -135 -109 -235
-211 -89 -89 -215 -219 -281 -289 -66 -70 -127 -135 -136 -144 -9 -10 -137
-134 -284 -277 -147 -143 -301 -300 -343 -350 -41 -49 -93 -110 -116 -135 -22
-25 -51 -59 -64 -75 -12 -17 -35 -48 -50 -70 -15 -22 -74 -103 -132 -182 -58
-78 -141 -197 -185 -265 -43 -68 -91 -148 -106 -179 -15 -31 -33 -58 -40 -61
-8 -3 -25 -28 -38 -54 -14 -27 -30 -56 -37 -64 -6 -8 -32 -55 -57 -105 -25
-49 -52 -106 -61 -125 -8 -19 -29 -71 -46 -114 -17 -44 -40 -116 -50 -160 -10
-45 -21 -115 -25 -156 -4 -53 0 -119 15 -224 12 -82 25 -157 31 -167 5 -10 9
-27 9 -39 0 -11 20 -82 46 -158 25 -75 53 -151 62 -168 9 -17 27 -50 39 -72
13 -22 46 -68 74 -102 28 -34 81 -92 118 -129 36 -37 89 -85 116 -107 28 -22
82 -61 120 -86 39 -25 97 -59 130 -75 33 -16 74 -37 90 -46 17 -9 46 -23 65
-32 19 -9 62 -25 95 -36 33 -11 96 -30 140 -43 44 -13 105 -30 135 -37 30 -7
105 -13 165 -13 61 0 142 3 182 8 40 4 92 9 115 11 24 2 73 5 110 8 36 3 72 8
80 13 7 5 22 7 33 6 12 -2 97 11 190 28 93 17 181 38 196 46 16 8 37 14 49 14
11 0 55 9 98 21 42 11 126 34 186 51 60 16 123 36 140 43 17 7 49 18 71 25 22
7 81 28 130 47 50 18 99 38 110 43 11 5 50 20 86 34 36 15 73 26 81 26 9 0 21
6 27 14 7 8 24 17 38 21 15 3 40 17 56 31 16 13 33 24 37 24 5 0 35 12 67 27
32 15 114 57 183 94 69 36 148 79 175 94 28 15 61 35 75 45 14 9 32 20 40 23
8 4 24 13 35 19 11 7 42 29 69 48 28 19 60 42 72 50 12 8 41 28 65 44 24 16
48 35 52 42 4 8 27 27 50 43 23 16 71 58 107 93 36 35 90 93 120 128 30 35 73
89 94 120 22 30 64 102 94 160 31 58 64 128 74 155 10 28 32 91 48 140 16 50
36 126 46 170 10 51 16 127 16 210 0 88 -7 162 -20 230 -11 55 -41 162 -67
238 -26 76 -74 196 -106 265 -33 70 -72 150 -86 177 -14 28 -43 76 -64 109
-22 32 -39 60 -39 63 0 2 -29 47 -64 101 -35 53 -73 106 -85 116 -11 11 -21
23 -21 29 0 5 -22 35 -50 66 -27 31 -89 97 -137 148 -48 50 -173 171 -278 267
-104 97 -195 176 -202 176 -6 0 -20 10 -30 23 -10 13 -49 50 -88 83 -38 33
-124 101 -190 151 -66 49 -140 102 -165 117 -25 15 -56 35 -70 45 -14 10 -77
52 -140 93 -63 41 -168 109 -232 152 -64 42 -120 76 -125 76 -4 0 -26 16 -47
35 -22 19 -49 38 -60 41 -12 4 -28 13 -37 21 -9 7 -42 29 -74 48 -32 19 -60
35 -63 35 -3 0 -14 7 -24 17 -10 9 -27 21 -37 27 -10 6 -43 27 -73 46 -30 19
-63 41 -74 47 -10 7 -37 22 -59 34 -22 12 -42 25 -45 29 -3 4 -16 11 -29 15
-13 4 -45 22 -70 40 -25 18 -70 45 -100 60 -29 15 -63 35 -74 45 -11 11 -33
22 -48 25 -16 4 -29 11 -29 16 0 5 -26 23 -57 39 -32 16 -73 37 -92 45 -18 9
-51 28 -73 41 -22 14 -61 37 -86 51 -26 14 -91 53 -145 87 -53 33 -115 72
-136 86 -22 14 -72 47 -113 74 -40 27 -82 57 -93 67 -11 10 -38 33 -60 52 -22
19 -71 58 -110 88 -38 30 -83 67 -100 82 -16 16 -80 71 -141 122 -62 52 -120
105 -130 119 -11 14 -33 45 -50 68 -17 24 -43 77 -59 118 -27 70 -29 84 -28
205 1 76 8 162 18 208 9 44 26 100 37 125 12 26 35 76 52 112 17 36 40 78 51
95 11 16 25 39 32 50 7 11 16 29 21 40 5 11 28 45 51 75 23 30 87 108 144 174
56 65 134 151 172 190 39 39 98 97 133 128 35 32 98 84 141 117 43 32 98 69
122 81 24 13 48 29 54 36 5 7 42 29 80 49 39 20 77 42 85 50 8 7 26 16 40 20
14 4 34 15 45 25 11 10 42 25 68 34 27 9 63 28 81 41 18 14 38 25 44 25 6 0
48 18 94 39 46 22 112 49 148 61 36 12 90 32 120 45 30 12 84 34 120 48 36 14
92 34 125 45 33 11 94 30 135 42 41 12 116 34 165 50 50 16 108 32 130 36 22
3 63 12 90 20 28 7 75 19 105 27 30 8 78 19 105 26 28 6 111 21 185 32 74 12
153 24 175 29 22 4 92 5 155 2z m-288 -718 c15 -2 66 -8 115 -14 48 -6 102
-16 119 -21 17 -5 41 -9 54 -9 14 0 56 -12 95 -26 38 -14 83 -32 98 -40 16 -8
34 -14 41 -14 7 0 51 -12 97 -26 46 -14 103 -34 126 -45 24 -10 46 -19 51 -19
4 0 23 -13 42 -30 19 -16 40 -29 45 -30 6 0 33 -26 59 -57 27 -32 57 -77 67
-101 11 -24 19 -51 19 -61 0 -9 4 -21 8 -27 5 -5 14 -39 20 -75 7 -37 12 -85
12 -108 0 -24 -10 -82 -21 -129 -12 -48 -27 -94 -34 -102 -7 -8 -20 -40 -30
-70 -10 -30 -29 -80 -43 -110 -14 -30 -50 -104 -80 -165 -30 -60 -75 -145 -99
-189 -23 -43 -43 -82 -43 -87 0 -5 -11 -27 -25 -49 -14 -22 -25 -44 -25 -49 0
-5 -7 -14 -16 -22 -8 -7 -31 -45 -50 -85 -19 -40 -57 -99 -84 -131 -27 -32
-50 -63 -50 -69 0 -7 -22 -32 -50 -57 -27 -25 -50 -50 -50 -55 0 -5 -30 -36
-67 -69 -38 -34 -107 -92 -154 -130 -47 -39 -105 -82 -130 -97 -24 -15 -60
-39 -79 -52 -19 -13 -59 -50 -87 -82 -29 -31 -53 -62 -53 -69 0 -6 -25 -33
-56 -60 -31 -26 -86 -76 -122 -110 l-67 -61 -95 50 c-52 27 -131 70 -175 95
-44 25 -117 70 -162 100 -46 29 -85 53 -87 53 -2 0 -44 29 -93 65 -48 36 -101
76 -118 88 -16 12 -134 126 -261 252 -127 127 -273 268 -325 315 -52 47 -133
124 -181 171 -47 48 -95 104 -106 125 -11 22 -27 64 -36 94 -12 42 -15 87 -12
190 3 74 7 149 10 165 3 17 12 51 19 76 8 26 31 71 51 101 20 30 36 59 36 65
0 5 24 41 54 80 29 39 118 134 197 212 79 77 151 141 160 141 8 0 26 11 38 24
13 13 38 27 58 31 19 3 53 15 76 26 23 12 49 25 57 29 8 5 35 19 59 30 24 11
69 23 100 26 32 4 65 14 76 24 12 11 46 21 83 25 34 4 65 11 68 16 3 5 17 9
32 9 15 0 45 9 67 20 22 11 58 20 81 20 24 0 53 4 67 9 13 5 40 12 60 15 20 3
56 10 79 16 24 5 73 10 110 10 36 0 119 7 185 15 65 8 147 16 183 18 36 2 77
2 92 1z m-551 -3496 c5 -9 22 -21 39 -28 16 -7 30 -16 30 -20 0 -5 25 -21 55
-35 30 -15 55 -31 55 -35 0 -3 33 -28 73 -53 39 -25 92 -60 117 -77 25 -17 74
-50 110 -73 36 -22 67 -44 70 -47 3 -3 23 -17 45 -30 22 -13 53 -37 69 -53 16
-16 54 -48 84 -70 30 -23 64 -49 76 -57 11 -8 79 -70 151 -137 71 -68 136
-123 145 -123 8 0 24 -14 35 -30 11 -17 32 -38 46 -48 15 -9 52 -47 83 -84 32
-37 70 -73 85 -79 16 -7 38 -26 49 -43 12 -17 46 -55 77 -85 30 -29 55 -58 55
-63 0 -5 13 -20 29 -33 15 -14 48 -55 72 -92 23 -38 50 -77 59 -88 10 -11 26
-36 36 -55 10 -19 44 -78 75 -130 31 -52 71 -124 89 -160 18 -36 46 -96 62
-135 16 -38 47 -119 68 -180 21 -60 48 -156 60 -211 16 -75 22 -137 22 -235 0
-74 -5 -161 -11 -194 -7 -33 -16 -71 -21 -85 -4 -14 -21 -65 -36 -115 -15 -49
-31 -97 -35 -105 -4 -8 -15 -35 -25 -60 -11 -25 -43 -90 -73 -145 -30 -55 -74
-127 -99 -160 -25 -33 -107 -121 -183 -195 -76 -74 -164 -154 -196 -178 -32
-23 -80 -59 -108 -80 -27 -21 -108 -72 -180 -113 -71 -42 -155 -90 -185 -106
-30 -17 -154 -80 -275 -141 -121 -60 -240 -117 -265 -125 -25 -9 -90 -34 -145
-57 -55 -22 -131 -52 -170 -66 -38 -14 -110 -38 -160 -54 -49 -15 -133 -39
-185 -53 -52 -15 -140 -38 -195 -51 -55 -14 -140 -33 -190 -41 -49 -9 -119
-20 -155 -25 -36 -5 -119 -17 -185 -26 -72 -10 -180 -16 -270 -16 -113 0 -174
6 -245 21 -52 12 -126 31 -165 42 -38 12 -95 30 -125 41 -30 11 -62 24 -70 28
-8 4 -44 22 -80 41 -36 18 -96 53 -135 77 -38 25 -97 65 -129 90 -33 25 -103
88 -156 139 -54 51 -118 124 -144 162 -25 38 -57 91 -71 117 -14 27 -40 101
-60 165 -19 64 -41 148 -49 185 -8 38 -19 119 -26 179 -8 79 -8 135 0 200 6
50 14 106 19 125 5 19 16 61 25 92 9 32 24 77 35 100 10 24 36 81 57 128 21
47 45 96 54 110 9 14 36 61 60 105 23 44 49 91 58 105 8 14 39 61 67 105 28
44 82 127 120 185 37 58 89 134 114 169 25 35 61 80 79 101 17 21 32 41 32 45
0 3 17 27 38 52 20 25 54 64 75 88 20 23 37 45 37 49 0 4 33 44 73 89 39 45
248 258 462 473 215 216 444 448 510 516 66 68 156 157 200 198 44 40 105 89
135 108 30 19 100 74 155 121 54 47 123 105 153 127 29 23 66 48 83 54 20 9
28 18 24 27 -3 8 -2 19 1 25 4 7 10 5 15 -4z"/>
<g>
<path d="M6936 12910 c-11 0 -34 -11 -51 -24 -30 -24 -30 -25 -13 -53 12 -21
25 -29 53 -31 20 -2 43 2 52 9 10 9 13 22 9 42 -3 17 -11 36 -17 44 -6 7 -21
13 -33 13z"/>
</g>
<g>
<path d="M7107 12470 c-4 0 -10 -7 -13 -15 -4 -8 1 -26 10 -40 9 -14 32 -33
50 -43 19 -9 60 -35 93 -57 32 -22 84 -60 116 -85 32 -25 67 -50 76 -55 10 -6
39 -26 65 -45 26 -19 64 -48 86 -65 21 -16 62 -47 91 -68 30 -20 68 -45 85
-55 17 -9 46 -26 63 -37 18 -11 66 -46 107 -78 50 -40 81 -57 96 -55 15 2 24
11 26 25 2 16 -13 37 -55 77 -41 40 -69 58 -94 62 -25 4 -66 29 -122 74 -47
37 -103 74 -125 83 -21 9 -51 29 -65 46 -14 17 -29 31 -33 31 -3 0 -41 23 -83
52 -42 28 -90 63 -108 77 -17 14 -54 43 -81 64 -28 20 -55 37 -60 37 -5 0 -15
7 -22 14 -6 8 -31 24 -54 35 -23 12 -46 21 -49 21z"/>
</g>
<g>
<path d="M7743 12369 c-15 -1 -41 -4 -57 -8 -16 -3 -38 -18 -49 -33 -20 -27
-20 -28 -2 -67 9 -22 30 -52 46 -67 l29 -28 21 21 21 20 -31 35 c-17 20 -31
41 -31 47 0 6 11 13 24 17 15 4 36 -1 54 -12 16 -9 37 -14 46 -11 9 4 16 11
16 17 0 7 -13 25 -29 41 -20 19 -39 29 -58 28z"/>
</g>
<g>
<path d="M8533 11980 c-4 0 -16 -5 -25 -11 -11 -6 -18 -22 -18 -39 0 -16 7
-36 16 -44 8 -9 26 -16 39 -16 15 0 31 10 40 24 13 19 14 29 5 45 -6 11 -19
25 -30 31 -10 5 -22 10 -27 10z"/>
</g>
<g>
<path d="M8593 14912 c-10 3 -25 3 -33 0 -8 -2 -25 -14 -37 -25 -13 -11 -23
-32 -23 -47 0 -15 8 -34 18 -43 10 -10 32 -17 49 -17 23 0 39 9 57 31 14 17
26 34 26 38 0 5 -9 20 -20 33 -11 14 -28 28 -37 30z"/>
</g>
<g>
<path d="M6778 14680 c-15 0 -39 -13 -57 -29 -17 -16 -31 -33 -31 -38 1 -4 9
-18 19 -30 10 -12 30 -25 44 -28 19 -5 35 -1 57 15 21 15 30 30 30 49 0 15 -8
35 -18 44 -10 10 -30 17 -44 17z"/>
</g>
<g>
<path d="M7835 14600 c-12 0 -28 -7 -36 -16 -10 -12 -10 -22 -1 -47 7 -18 39
-111 71 -207 33 -96 73 -204 90 -240 17 -36 31 -72 31 -81 0 -9 -7 -20 -16
-23 -9 -3 -23 -6 -32 -6 -9 0 -29 -12 -44 -25 -16 -13 -28 -29 -28 -35 0 -6
11 -15 23 -21 18 -8 35 -7 71 5 26 9 57 16 71 16 15 0 32 11 46 31 21 30 21
31 3 67 -11 20 -24 42 -31 49 -6 7 -17 30 -23 50 -7 21 -16 43 -20 48 -4 6
-29 73 -55 150 -26 77 -58 173 -72 213 -22 60 -29 72 -48 72z"/>
</g>
<g>
<path d="M8170 13655 c-97 1 -204 -6 -285 -17 -71 -10 -193 -24 -270 -31 -104
-9 -148 -17 -169 -30 -18 -13 -26 -25 -24 -40 3 -19 9 -22 53 -21 28 0 73 3
100 7 28 4 84 11 125 16 41 5 113 14 160 20 47 6 117 13 155 16 39 3 113 7
165 9 53 3 108 10 123 17 20 9 27 19 25 33 -3 20 -9 21 -158 21z"/>
</g>
<g>
<path d="M7905 10800 c-18 0 -34 -2 -36 -5 -3 -2 -50 -12 -105 -20 -54 -9
-135 -20 -179 -25 -43 -5 -151 -12 -240 -15 -88 -3 -230 -15 -315 -26 -85 -11
-192 -25 -237 -32 -45 -7 -86 -17 -92 -22 -5 -6 -5 -19 0 -32 6 -17 16 -23 41
-23 17 0 75 7 127 15 53 9 121 20 152 25 30 6 96 12 145 15 49 3 157 7 239 10
83 2 211 14 285 25 74 12 162 23 195 23 54 2 61 5 75 30 14 26 14 29 -4 43
-11 8 -34 14 -51 14z"/>
</g>
<g>
<path d="M7070 10113 c-96 3 -184 3 -195 1 -12 -3 -26 -14 -33 -25 -11 -17
-10 -29 2 -67 8 -26 25 -97 36 -158 11 -61 25 -142 30 -180 4 -38 15 -121 24
-184 8 -63 20 -141 25 -173 6 -31 13 -63 17 -69 4 -6 8 -48 10 -92 1 -45 9
-109 18 -142 9 -34 16 -80 16 -102 0 -22 3 -47 6 -56 3 -9 14 -16 23 -16 9 0
25 7 35 15 16 12 18 23 13 78 -3 36 -15 102 -26 148 -12 46 -25 129 -30 184
-5 55 -14 113 -20 129 -7 16 -25 126 -41 245 -17 119 -36 252 -44 296 -8 44
-12 84 -9 89 4 5 69 6 154 3 126 -6 150 -5 163 9 9 8 16 21 16 27 0 7 -4 17
-8 24 -5 8 -65 13 -182 16z"/>
</g>
<g>
<path d="M8569 8737 c-35 4 -48 1 -62 -14 -9 -11 -17 -35 -17 -56 0 -27 7 -41
26 -56 15 -12 34 -21 44 -21 10 0 29 9 42 20 14 10 31 33 38 50 12 28 11 34
-7 52 -12 12 -39 22 -64 25z"/>
</g>
<g>
<path d="M5943 8530 c-15 0 -33 -4 -39 -8 -6 -4 -16 -16 -21 -27 -6 -11 -8
-34 -6 -52 3 -17 13 -39 24 -49 13 -12 27 -15 54 -10 29 6 39 14 51 42 8 19
12 45 8 59 -3 14 -14 30 -24 35 -10 6 -31 10 -47 10z"/>
</g>
</g>
<g>
<path d="M8809 4505 c-229 3 -418 3 -420 0 -3 -2 -128 -5 -279 -5 -151 -1
-309 -6 -350 -11 -41 -5 -115 -12 -165 -15 -49 -2 -119 -7 -155 -10 -36 -3
-74 -4 -85 -4 -11 1 -63 1 -115 0 -52 0 -153 -2 -225 -4 -71 -3 -195 -7 -275
-10 -80 -4 -194 -11 -255 -17 -60 -6 -133 -17 -163 -25 -29 -8 -58 -12 -62 -9
-5 3 -67 6 -137 7 -116 1 -135 -1 -203 -26 -51 -19 -86 -26 -110 -22 -19 2
-95 -5 -168 -17 -128 -21 -133 -23 -151 -53 -11 -17 -32 -36 -48 -42 -16 -5
-75 -48 -130 -96 -82 -69 -100 -90 -96 -107 4 -15 -3 -29 -26 -49 -17 -16 -31
-38 -31 -50 0 -11 -4 -28 -9 -38 -4 -9 -16 -48 -26 -87 -9 -38 -21 -92 -26
-120 -5 -27 -14 -72 -20 -98 -6 -27 -24 -74 -40 -105 -16 -32 -29 -63 -29 -71
0 -8 -13 -35 -28 -60 -15 -25 -63 -118 -107 -206 -43 -88 -88 -173 -100 -190
-12 -16 -26 -41 -30 -54 -4 -13 -24 -50 -44 -83 -20 -33 -43 -72 -52 -88 -9
-16 -37 -60 -62 -97 -25 -37 -90 -113 -144 -169 -54 -55 -116 -123 -139 -150
-22 -27 -72 -94 -111 -149 -40 -55 -89 -114 -110 -132 -21 -17 -54 -45 -74
-62 -20 -17 -41 -31 -46 -31 -5 0 -20 -12 -34 -26 -13 -15 -55 -47 -93 -72
-39 -24 -88 -50 -110 -56 -34 -10 -41 -16 -41 -36 0 -19 11 -31 45 -50 44 -25
48 -25 270 -25 124 0 245 3 270 8 25 4 119 14 210 22 91 8 233 21 315 29 83 8
202 17 265 20 63 3 169 10 235 15 66 5 143 15 170 22 28 7 74 19 102 26 29 8
55 19 58 24 4 5 14 9 24 9 9 0 36 9 59 20 22 11 46 20 52 20 5 0 18 4 28 10 9
5 66 28 125 50 59 21 121 49 137 60 15 11 31 20 35 20 4 0 18 9 32 20 14 11
31 20 38 20 10 0 9 -10 -5 -37 -10 -21 -29 -85 -43 -143 -15 -58 -29 -125 -33
-150 -4 -25 -12 -58 -19 -75 -7 -16 -17 -43 -24 -58 -6 -15 -11 -39 -11 -53 0
-14 -13 -53 -29 -87 -16 -34 -40 -94 -54 -133 -14 -40 -23 -74 -20 -78 3 -3 1
-11 -4 -18 -5 -7 -17 -33 -25 -58 -9 -25 -19 -58 -24 -75 -4 -16 -9 -37 -11
-45 -1 -8 -3 -70 -4 -137 0 -71 4 -131 11 -143 8 -15 21 -20 55 -20 33 0 72
13 152 52 60 29 137 71 173 93 36 22 76 46 90 53 14 6 32 16 40 21 8 6 35 19
60 30 25 11 52 24 60 29 8 5 25 14 37 20 13 7 28 12 35 12 7 0 58 24 113 52
55 28 121 61 147 74 26 14 50 29 53 34 4 6 23 17 43 26 20 8 64 36 97 62 33
25 62 49 65 53 3 3 14 9 25 13 11 3 36 21 55 39 19 18 48 41 65 52 16 10 34
22 40 27 5 4 42 29 80 55 39 25 84 58 101 72 18 14 54 41 80 59 27 18 90 62
141 97 50 35 113 76 140 90 26 15 62 40 78 56 17 16 35 29 39 29 5 0 28 16 51
35 24 19 72 48 108 65 36 16 70 30 76 30 6 0 20 -17 31 -37 11 -21 26 -47 33
-57 6 -11 36 -56 66 -100 29 -45 64 -101 77 -124 13 -24 37 -60 54 -80 17 -21
73 -86 124 -147 51 -60 121 -132 155 -159 33 -27 61 -53 61 -58 0 -4 4 -8 8
-8 5 0 47 -37 94 -82 46 -46 102 -92 124 -103 21 -11 56 -34 77 -51 20 -17 89
-57 153 -89 66 -33 134 -60 159 -63 l43 -4 7 53 c4 30 18 92 32 139 14 47 26
95 27 107 1 12 7 28 13 35 6 7 21 40 33 73 12 33 25 72 30 86 4 14 11 72 14
130 4 57 14 137 22 178 8 41 20 125 25 185 6 61 12 170 14 241 2 72 6 165 10
208 6 55 12 77 21 77 8 0 19 -9 26 -20 7 -11 16 -20 20 -20 4 0 27 -14 52 -31
26 -17 46 -35 46 -40 0 -5 7 -9 15 -9 8 0 24 -11 37 -24 13 -12 51 -39 84 -60
34 -20 64 -36 68 -36 3 0 23 -12 44 -28 21 -15 60 -37 88 -49 27 -11 78 -31
114 -43 36 -12 79 -24 95 -27 17 -3 48 -13 70 -22 22 -10 83 -28 135 -41 52
-13 104 -27 115 -31 11 -5 45 -14 75 -20 30 -6 62 -11 70 -11 8 0 56 -4 105
-9 50 -4 122 -13 160 -19 39 -6 142 -16 230 -21 88 -5 196 -14 240 -19 44 -5
163 -13 265 -17 102 -5 228 -7 280 -7 52 1 123 5 158 9 l63 7 -3 41 c-2 32
-10 46 -39 69 -28 23 -50 30 -111 37 -52 6 -86 16 -107 30 -17 13 -31 19 -31
16 0 -4 -14 5 -31 19 -17 14 -35 26 -41 26 -6 0 -47 23 -93 50 -46 28 -87 50
-92 50 -6 0 -18 9 -29 21 -10 12 -37 30 -59 41 -22 11 -90 71 -152 132 -62 61
-119 118 -128 126 -9 8 -43 43 -75 77 -32 34 -67 76 -77 94 -10 17 -23 39 -28
48 -6 9 -42 63 -81 121 -39 58 -84 125 -100 150 -17 25 -41 70 -53 100 -13 30
-38 82 -55 115 -18 33 -36 67 -41 75 -6 8 -15 31 -22 50 -7 19 -19 62 -27 95
-8 33 -17 74 -20 90 -3 17 -12 62 -20 100 -8 39 -18 97 -21 130 -4 33 -13 85
-20 115 -7 30 -16 76 -20 102 -3 27 -1 64 6 87 10 35 9 43 -10 74 -12 19 -42
53 -67 77 -25 23 -62 48 -82 56 -20 8 -46 19 -57 24 -11 5 -72 26 -135 46 -63
20 -149 43 -190 51 -41 7 -109 18 -150 23 -41 6 -91 13 -110 16 -19 3 -73 10
-120 14 -47 5 -132 11 -190 14 -58 3 -154 10 -215 15 -60 6 -130 13 -155 16
-25 3 -232 7 -461 10z m-351 -69 c450 -1 458 -1 502 -23 25 -12 83 -32 130
-45 47 -12 107 -35 133 -50 26 -15 53 -28 58 -28 6 0 23 -8 37 -18 15 -10 48
-28 74 -41 25 -13 63 -39 85 -58 21 -19 62 -57 91 -86 53 -51 54 -53 48 -99
-3 -26 -15 -62 -28 -80 -13 -18 -30 -39 -38 -48 -8 -9 -39 -24 -69 -33 -29 -9
-67 -17 -83 -17 -16 0 -38 -5 -49 -11 -12 -6 -57 -13 -101 -15 -45 -3 -94 -12
-110 -20 -16 -8 -71 -20 -121 -25 -51 -5 -128 -14 -173 -19 -44 -6 -98 -10
-120 -9 -34 0 -36 2 -14 9 14 4 70 20 125 35 55 15 127 40 160 55 33 15 88 51
123 80 35 29 71 69 82 90 l19 38 -29 57 c-16 31 -44 76 -63 99 -19 22 -45 46
-58 52 -13 6 -37 18 -54 25 -16 8 -35 19 -42 25 -7 6 -34 15 -60 19 -26 4 -66
16 -88 28 -22 11 -58 24 -80 29 -22 5 -76 16 -119 23 -43 8 -131 15 -195 16
-64 1 -126 -1 -138 -5 -15 -5 -23 -3 -23 5 0 9 -16 10 -57 5 -32 -3 -132 -7
-223 -7 -91 -1 -214 -7 -275 -15 -60 -8 -144 -18 -185 -24 -41 -6 -88 -14
-105 -18 -19 -5 -30 -15 -30 -26 0 -10 -7 -21 -15 -26 -8 -4 -40 -11 -70 -15
-30 -4 -73 -15 -95 -25 -22 -10 -74 -30 -114 -44 -41 -14 -86 -36 -100 -49
-14 -12 -33 -31 -43 -42 -10 -11 -25 -32 -33 -47 -9 -16 -13 -38 -9 -52 3 -14
36 -49 77 -82 40 -31 99 -69 132 -84 33 -15 78 -33 100 -40 22 -7 49 -16 60
-20 11 -5 41 -14 67 -20 31 -8 50 -19 53 -31 4 -11 22 -26 41 -34 25 -10 80
-15 197 -15 89 -1 195 3 236 9 40 6 78 14 85 18 6 4 34 10 61 14 28 3 118 21
200 39 83 18 170 39 195 47 25 8 70 20 100 28 30 7 71 17 90 23 20 5 67 21
105 37 39 15 86 36 107 46 20 10 50 35 67 56 22 26 29 44 25 58 -4 11 -17 34
-30 51 -13 17 -24 38 -24 46 0 8 -10 24 -22 35 -13 11 -42 29 -65 41 -24 12
-43 20 -43 18 0 -2 -28 5 -62 15 -35 11 -114 28 -176 39 -63 11 -126 20 -142
20 -15 0 -33 6 -39 14 -10 11 5 13 91 10 57 -2 137 -8 178 -13 41 -6 89 -12
107 -15 18 -3 42 -10 55 -17 12 -6 69 -27 127 -45 58 -19 107 -38 110 -42 4
-4 25 -20 48 -36 23 -15 60 -51 82 -80 21 -28 40 -58 42 -66 1 -8 -1 -27 -5
-41 -4 -15 -19 -33 -33 -40 -14 -7 -29 -24 -34 -36 -5 -13 -21 -29 -36 -35
-16 -7 -37 -19 -48 -29 -11 -9 -57 -26 -102 -37 -45 -12 -90 -25 -100 -30 -10
-5 -52 -16 -93 -25 -41 -9 -93 -19 -115 -23 -22 -3 -60 -9 -85 -13 -25 -4 -51
-10 -58 -15 -7 -4 -38 -9 -70 -11 -31 -2 -84 -6 -117 -9 -33 -3 -91 -8 -130
-11 -38 -3 -107 -10 -153 -16 -46 -5 -116 -12 -155 -14 -40 -3 -101 -7 -136
-11 -35 -3 -149 -3 -252 1 -153 6 -189 10 -194 23 -3 8 -1 20 5 27 8 9 7 17
-4 28 -10 10 -50 16 -133 21 -65 4 -140 10 -167 12 -27 3 -60 10 -73 15 -13 5
-41 9 -62 9 -21 0 -78 13 -127 29 -54 17 -100 40 -116 56 -20 18 -28 36 -28
60 0 19 10 51 22 72 12 21 33 51 47 66 14 16 44 41 66 56 22 15 73 42 113 59
41 18 101 40 135 48 34 9 82 20 107 26 25 5 92 16 150 24 58 8 117 14 133 14
16 0 30 6 34 15 3 9 12 14 19 11 7 -3 16 -1 19 5 4 6 -28 7 -92 3 -54 -3 -105
-9 -113 -14 -8 -4 -37 -8 -64 -8 -27 -1 -81 -8 -120 -17 -39 -9 -91 -20 -116
-26 -25 -5 -56 -18 -70 -27 -14 -10 -43 -26 -65 -35 -22 -10 -47 -22 -55 -27
-8 -6 -26 -15 -40 -21 -14 -6 -41 -27 -60 -48 -19 -20 -42 -48 -50 -60 -8 -13
-23 -33 -32 -45 -9 -12 -19 -38 -23 -58 -5 -24 -2 -45 8 -64 8 -16 26 -39 39
-51 13 -13 66 -36 118 -52 52 -16 131 -32 175 -35 64 -5 83 -11 94 -26 7 -11
22 -20 32 -20 10 0 21 -4 24 -10 4 -6 -5 -10 -19 -10 -14 0 -26 -4 -26 -9 0
-4 41 -11 91 -15 50 -4 114 -12 142 -17 29 -6 61 -12 72 -14 11 -2 24 -4 29
-4 5 -1 6 -4 2 -8 -3 -4 -49 -6 -102 -6 -52 1 -100 6 -107 11 -7 5 -37 15 -67
21 -30 7 -89 16 -132 21 -42 5 -120 23 -175 40 -54 18 -107 36 -118 40 -11 5
-38 14 -60 21 -22 6 -67 24 -100 39 -33 15 -77 33 -97 39 -21 7 -59 30 -85 52
-26 21 -54 39 -61 39 -11 0 -13 9 -7 38 4 20 18 52 31 70 14 18 44 42 67 53
23 12 55 33 72 46 16 14 53 36 81 49 29 13 57 24 62 24 5 0 30 9 56 20 33 15
46 27 46 42 0 15 -4 18 -17 13 -10 -4 -27 -10 -38 -13 -11 -3 -29 -11 -40 -19
-11 -7 -29 -13 -40 -13 -11 0 -29 -7 -39 -15 -11 -8 -26 -15 -34 -15 -8 0 -26
-9 -40 -21 -15 -11 -50 -38 -78 -60 -29 -21 -57 -39 -62 -39 -6 0 -21 -15 -34
-32 -13 -18 -31 -50 -40 -71 -10 -22 -18 -45 -18 -52 0 -8 15 -24 33 -36 17
-12 46 -35 62 -50 17 -16 51 -35 75 -43 25 -8 61 -20 80 -28 19 -7 41 -19 48
-25 7 -7 24 -13 37 -13 13 0 26 -4 30 -9 3 -6 13 -10 23 -10 9 1 49 -11 87
-26 39 -15 82 -29 98 -32 15 -3 30 -9 33 -14 3 -5 -10 -9 -28 -9 -18 0 -64 11
-103 24 -38 13 -90 30 -115 36 -25 7 -65 19 -90 27 -24 8 -49 18 -55 23 -5 4
-30 19 -55 33 -25 13 -81 44 -125 67 -44 23 -99 54 -122 67 -24 14 -43 28 -43
32 0 3 -18 17 -40 31 -26 16 -40 32 -40 46 0 12 10 34 22 49 12 15 58 51 102
80 45 28 96 57 115 63 19 7 87 24 150 38 64 14 123 32 131 39 8 6 58 18 110
25 52 7 100 16 105 20 6 4 39 6 75 4 36 -2 67 -4 70 -4 3 -1 -31 -12 -74 -24
-44 -12 -81 -27 -84 -34 -2 -8 11 -12 42 -12 25 0 72 9 103 19 32 11 87 22
123 26 35 3 73 11 84 17 11 6 36 12 56 13 19 1 73 5 120 9 47 3 105 9 129 12
24 3 49 8 56 10 7 3 11 14 8 25 -4 13 0 19 10 19 8 0 18 -6 21 -12 5 -10 7
-10 12 0 3 6 12 12 20 12 8 0 17 -7 21 -16 4 -12 14 -14 42 -9 20 4 41 10 46
15 6 4 17 8 25 8 8 0 49 3 90 6 41 3 98 8 125 10 28 3 99 7 159 11 61 3 111 7
113 9 2 2 209 3 461 2z m610 0 c10 -3 59 -8 111 -11 85 -5 99 -9 160 -44 36
-22 77 -42 91 -46 13 -4 37 -17 52 -28 16 -12 28 -27 28 -34 0 -7 8 -13 18
-13 10 0 22 4 28 9 5 6 31 4 67 -6 31 -9 57 -20 57 -25 0 -4 6 -8 13 -8 7 0
19 -10 27 -22 8 -12 26 -34 40 -48 14 -14 31 -37 39 -51 8 -13 20 -35 28 -49
7 -14 13 -50 13 -80 -1 -46 -6 -61 -29 -88 -16 -19 -44 -37 -62 -42 -19 -4
-63 -18 -99 -30 -36 -12 -73 -26 -82 -31 -10 -5 -30 -9 -46 -9 -15 0 -38 -7
-50 -16 -12 -8 -22 -13 -22 -10 0 3 -12 1 -27 -5 -14 -5 -42 -10 -62 -11 -20
0 -42 -6 -50 -12 -8 -6 -26 -12 -40 -13 -14 -1 -48 -4 -76 -7 -27 -3 -81 -12
-120 -20 -38 -8 -101 -20 -140 -26 -38 -6 -146 -19 -240 -30 -93 -10 -204 -24
-245 -31 -41 -6 -147 -13 -235 -16 -88 -2 -171 -4 -185 -3 -14 0 -47 1 -73 0
-41 0 -48 3 -45 17 3 15 24 20 143 30 77 6 154 13 170 14 17 0 80 7 140 14 61
7 119 13 130 13 11 0 56 2 100 5 44 4 139 9 210 12 72 3 162 10 201 15 39 5
102 16 140 24 38 8 121 22 184 31 63 9 135 24 160 33 25 9 48 15 51 15 4 -1
30 22 58 52 28 29 51 61 51 70 0 9 7 29 15 46 13 24 14 36 4 70 -10 30 -33 59
-96 117 -47 42 -101 87 -121 99 -20 13 -42 23 -49 23 -6 0 -40 19 -75 43 -35
24 -98 55 -141 70 -42 15 -93 27 -113 27 -22 0 -33 4 -29 10 4 6 14 9 23 6z
m-1845 -39 c37 2 67 -1 67 -7 0 -5 -4 -11 -8 -14 -5 -3 -52 -6 -105 -7 -56 -1
-125 -9 -164 -19 -36 -10 -110 -21 -162 -25 -68 -4 -92 -3 -81 4 8 6 25 11 37
11 13 0 30 11 39 25 16 24 19 25 162 27 81 2 177 4 215 5z m2269 3 c18 0 50
-3 70 -6 24 -4 35 -11 31 -19 -2 -8 4 -18 15 -24 11 -6 53 -14 94 -17 51 -5
100 -18 163 -44 50 -21 107 -41 128 -45 30 -6 47 -18 79 -59 22 -28 48 -55 58
-59 14 -7 17 -20 16 -68 -2 -50 -6 -63 -31 -89 -16 -16 -34 -30 -39 -30 -6 0
-35 -19 -64 -43 -34 -28 -74 -50 -115 -62 -34 -10 -69 -23 -77 -30 -8 -7 -35
-15 -60 -19 -25 -3 -56 -9 -69 -12 -15 -5 -22 -3 -18 3 4 6 33 16 67 23 54 12
64 18 105 68 25 30 48 65 51 79 4 13 3 48 -1 78 -4 38 -18 72 -45 114 -21 32
-56 75 -77 95 -21 19 -53 43 -71 51 -18 9 -50 19 -70 22 -20 2 -48 10 -62 16
-14 7 -44 27 -68 45 l-44 32 34 0z m-2690 -18 l33 -5 -34 -9 c-18 -5 -35 -7
-38 -4 -3 2 -3 9 1 14 3 5 20 6 38 4z m2878 4 c30 -3 66 -6 79 -6 13 0 21 -3
18 -7 -4 -3 -35 -5 -70 -4 -34 1 -66 7 -72 13 -7 7 6 9 45 4z m-3096 -18 c50
2 87 0 84 -4 -4 -4 -27 -8 -50 -10 -24 -3 -79 -13 -123 -24 -44 -11 -100 -22
-125 -26 -25 -4 -49 -10 -55 -14 -5 -4 -30 -10 -55 -13 -25 -3 -64 -9 -87 -15
-24 -5 -49 -15 -58 -22 -8 -7 -15 -10 -15 -7 0 3 -17 -1 -37 -9 -20 -9 -62
-33 -92 -54 -31 -21 -73 -54 -94 -75 -21 -21 -43 -48 -48 -62 -5 -13 -9 -37
-9 -53 0 -23 7 -33 30 -45 16 -8 40 -26 54 -40 14 -14 30 -25 36 -25 6 0 21
-10 33 -21 12 -12 49 -35 82 -51 33 -16 71 -35 85 -42 14 -8 56 -28 93 -46 37
-18 70 -37 73 -41 3 -5 1 -9 -3 -9 -5 0 -14 5 -20 11 -6 6 -39 17 -74 25 -35
8 -75 16 -89 18 -14 2 -41 10 -60 18 -19 8 -53 18 -75 22 -22 4 -50 14 -63 22
-12 8 -28 14 -35 13 -6 -1 -29 5 -49 14 -21 10 -42 17 -48 17 -6 0 -32 12 -58
26 -26 14 -63 38 -82 52 -19 15 -50 42 -67 62 -28 29 -33 43 -33 83 0 39 5 53
26 72 15 14 32 25 38 25 6 0 34 12 61 25 28 14 58 25 67 25 10 0 41 10 70 23
29 13 67 27 83 31 17 4 44 13 60 21 17 8 116 26 221 40 105 14 204 30 220 35
16 5 44 13 63 17 18 4 75 9 125 11z m140 1 c11 1 17 -2 13 -5 -3 -3 -12 -4
-19 -1 -8 3 -5 6 6 6z m3231 -12 c28 -3 85 -11 128 -17 51 -9 77 -18 77 -26 0
-8 12 -20 28 -28 15 -7 43 -17 62 -21 19 -4 37 -11 40 -14 3 -4 32 -25 65 -47
33 -21 77 -52 98 -68 20 -15 37 -36 37 -46 0 -10 -8 -38 -19 -62 -10 -24 -34
-57 -52 -72 -19 -15 -45 -37 -59 -50 -14 -13 -34 -28 -45 -34 -11 -5 -47 -20
-80 -31 -33 -12 -112 -30 -175 -40 -63 -11 -137 -22 -165 -25 -30 -3 -44 -2
-35 3 8 5 31 12 50 16 19 4 62 21 95 38 33 17 97 52 142 79 46 27 91 62 101
76 11 15 22 38 25 52 3 14 8 35 12 47 5 15 0 28 -14 42 -12 12 -21 25 -21 30
0 6 -26 30 -57 54 -32 24 -68 49 -80 55 -12 7 -31 12 -42 12 -11 0 -50 16 -87
35 -37 20 -70 38 -73 41 -3 3 17 4 44 1z m-2010 -8 c130 0 181 -4 160 -10 -16
-5 -100 -9 -185 -10 -85 -1 -164 -1 -175 0 -17 1 -18 3 -5 11 8 5 98 9 205 9z
m295 -1 c14 0 19 -2 13 -5 -7 -2 -19 -2 -25 0 -7 3 -2 5 12 5z m-800 -38 c6 0
10 -2 10 -4 0 -3 -4 -8 -10 -11 -5 -3 -10 -1 -10 4 0 6 5 11 10 11z m585 -17
c105 -1 227 -4 272 -8 46 -3 115 -13 155 -22 40 -8 87 -17 103 -19 17 -2 53
-13 80 -24 28 -11 70 -24 94 -28 28 -5 48 -14 55 -27 6 -11 25 -40 43 -65 23
-34 30 -52 26 -73 -3 -17 -19 -37 -42 -52 -19 -14 -45 -25 -56 -25 -12 0 -25
-4 -30 -9 -6 -5 -58 -25 -117 -45 -59 -20 -115 -36 -126 -36 -10 0 -22 -4 -27
-9 -6 -4 -30 -13 -55 -19 -25 -6 -61 -14 -80 -18 -19 -4 -45 -8 -56 -9 -12 -2
-31 -8 -42 -14 -11 -6 -30 -11 -41 -11 -11 0 -41 -7 -67 -16 -25 -8 -71 -17
-101 -20 -31 -2 -61 -8 -67 -13 -6 -4 -69 -11 -140 -15 -108 -6 -131 -5 -145
8 -11 10 -44 18 -92 21 -46 2 -101 14 -144 31 -38 14 -90 32 -115 40 -25 8
-67 22 -95 31 -27 9 -86 40 -130 69 -44 29 -88 62 -97 73 -10 12 -18 29 -18
37 0 9 9 31 20 49 11 18 45 48 75 69 30 20 60 36 66 36 6 0 41 10 78 21 36 12
75 25 86 30 11 4 36 10 55 14 19 3 64 10 100 14 36 5 74 12 85 15 11 4 83 10
160 14 77 4 226 6 330 5z m2290 7 c3 0 16 -6 28 -14 12 -8 39 -17 59 -20 20
-4 50 -13 65 -21 15 -8 33 -15 39 -15 5 0 28 -9 50 -19 23 -11 58 -39 78 -61
27 -31 35 -45 27 -53 -6 -6 -11 -20 -11 -31 0 -12 -17 -35 -38 -52 -20 -17
-72 -50 -115 -73 -43 -22 -84 -41 -90 -41 -7 1 2 13 19 28 17 15 47 49 68 75
22 30 36 60 36 77 0 16 -4 40 -10 54 -5 14 -24 33 -42 42 -18 9 -40 26 -49 38
-9 12 -37 32 -63 44 -25 13 -48 27 -51 33 -4 5 -4 9 0 9z m-4560 -62 c16 0 15
-2 -5 -8 -14 -5 -40 -13 -59 -19 -18 -6 -31 -7 -27 -4 4 4 21 13 39 19 18 6
41 12 52 12z m-129 -38 c2 0 4 -4 4 -10 0 -5 -5 -10 -11 -10 -5 0 -7 5 -4 10
3 6 8 10 11 10z m-123 -80 c5 0 6 -8 2 -17 -4 -10 -10 -30 -12 -44 -3 -15 2
-37 10 -50 8 -13 17 -36 21 -51 3 -15 20 -43 37 -63 17 -19 72 -57 124 -85 51
-27 101 -50 112 -50 11 0 23 -3 27 -7 3 -4 23 -13 44 -20 20 -7 46 -13 58 -13
11 0 39 -9 62 -20 22 -11 56 -20 75 -20 19 0 56 -8 83 -19 27 -10 78 -28 114
-39 36 -11 85 -23 110 -26 25 -3 70 -13 100 -21 30 -9 73 -19 95 -22 22 -3 44
-9 50 -14 5 -5 -5 -9 -25 -10 -19 -1 -62 -1 -95 1 -33 1 -91 6 -130 12 -38 5
-95 11 -125 13 -30 1 -109 8 -175 14 -66 7 -142 17 -170 22 -27 6 -79 17 -115
26 -36 9 -83 21 -105 28 -23 8 -65 24 -95 38 -30 14 -64 28 -75 31 -11 3 -51
36 -90 71 -38 36 -77 65 -87 65 -10 0 -18 -5 -18 -11 0 -6 9 -13 19 -16 11 -3
22 -11 25 -19 5 -12 1 -12 -23 1 -16 8 -39 28 -50 44 -12 16 -21 34 -21 40 0
6 -7 11 -15 11 -8 0 -15 6 -15 13 0 6 4 17 8 22 4 6 32 31 62 57 30 25 82 60
115 78 33 17 64 36 70 41 5 5 13 9 18 9z m4714 -20 c8 -12 12 -31 9 -43 -3
-12 -15 -37 -26 -54 -11 -18 -25 -33 -31 -33 -8 0 -6 7 4 18 10 11 17 35 17
59 0 23 3 49 6 58 6 14 8 13 21 -5z m448 -160 c6 0 19 -36 29 -81 9 -44 19
-107 21 -138 2 -32 8 -76 13 -97 6 -21 16 -77 23 -124 8 -54 24 -112 46 -159
18 -40 33 -79 33 -86 0 -7 20 -50 44 -96 24 -45 53 -92 64 -104 11 -12 30 -47
41 -78 10 -31 30 -71 43 -88 13 -17 33 -41 45 -53 12 -12 25 -34 28 -49 4 -14
29 -52 56 -84 27 -32 53 -63 58 -69 5 -6 12 -20 16 -33 3 -12 73 -88 155 -169
81 -81 162 -159 179 -174 17 -15 53 -45 79 -66 26 -22 52 -41 57 -43 6 -2 66
-35 134 -74 68 -38 135 -78 150 -88 14 -9 53 -31 86 -47 l60 -30 -105 5 c-58
2 -168 7 -245 11 -77 3 -181 12 -230 19 -50 8 -147 17 -215 20 -69 3 -154 10
-190 16 -36 5 -96 12 -135 14 -38 3 -90 8 -115 11 -25 2 -58 7 -75 10 -16 3
-58 12 -92 20 -34 8 -65 14 -70 13 -4 -1 -15 0 -23 3 -8 3 -37 12 -65 20 -27
9 -75 21 -105 28 -30 7 -67 18 -82 26 -14 8 -32 14 -40 14 -7 0 -48 14 -90 30
-42 17 -99 43 -125 60 -26 16 -82 46 -123 67 -41 21 -108 63 -148 93 -40 30
-107 81 -148 113 -40 31 -80 57 -88 57 -8 0 -18 -5 -22 -12 -4 -6 -9 -39 -10
-72 -2 -34 -6 -113 -9 -176 -4 -63 -8 -163 -10 -222 -2 -60 -10 -121 -18 -140
-8 -19 -17 -60 -21 -93 -4 -33 -11 -80 -16 -105 -5 -25 -14 -99 -19 -165 -5
-66 -21 -162 -35 -213 -14 -52 -30 -100 -37 -108 -6 -8 -18 -42 -26 -77 -8
-34 -17 -81 -20 -104 -3 -29 -10 -43 -20 -43 -8 0 -27 7 -41 15 -15 8 -54 27
-87 43 -33 16 -82 41 -110 56 -27 15 -59 35 -70 45 -11 10 -26 20 -32 22 -7 2
-47 36 -90 74 -42 39 -109 102 -148 140 -38 39 -115 120 -171 180 -56 61 -114
133 -129 160 -16 28 -42 68 -59 89 -17 22 -42 61 -56 88 -14 27 -56 91 -95
144 -61 83 -73 95 -95 91 -14 -3 -41 -10 -60 -17 -19 -7 -43 -17 -52 -21 -10
-5 -23 -9 -29 -9 -7 0 -46 -26 -88 -57 -42 -31 -78 -59 -81 -62 -3 -3 -37 -27
-76 -53 -39 -27 -74 -48 -78 -48 -3 0 -66 -41 -139 -91 -72 -50 -160 -111
-194 -137 -33 -26 -98 -74 -143 -107 -46 -33 -115 -84 -154 -113 -39 -30 -105
-77 -146 -105 -41 -29 -100 -67 -130 -85 -30 -19 -109 -60 -175 -92 -66 -32
-131 -61 -145 -65 -14 -4 -61 -26 -105 -48 -44 -22 -104 -55 -133 -75 -30 -19
-110 -63 -179 -98 -69 -35 -129 -64 -134 -64 -5 0 -9 42 -9 94 0 52 7 123 15
158 8 35 28 104 44 153 16 50 41 122 56 160 15 39 44 122 65 185 21 63 48 151
60 195 12 44 38 141 58 215 19 74 37 161 40 193 3 50 2 57 -15 57 -10 0 -47
-25 -82 -55 -35 -29 -112 -79 -170 -109 -58 -31 -111 -56 -118 -56 -7 0 -94
-32 -193 -70 -131 -51 -207 -74 -273 -84 -51 -8 -153 -19 -227 -25 -74 -6
-171 -13 -215 -16 -44 -3 -132 -8 -195 -11 -63 -4 -123 -11 -133 -16 -9 -5
-22 -6 -27 -3 -5 3 -73 -1 -152 -10 -79 -8 -167 -19 -197 -25 -29 -5 -128 -10
-220 -9 -91 1 -177 4 -191 8 l-24 7 34 24 c19 13 87 64 150 114 63 50 134 108
157 129 23 22 68 77 100 124 32 46 77 110 101 141 24 31 52 62 62 69 10 7 47
48 83 90 35 43 96 123 134 178 38 55 90 136 115 180 25 44 94 175 153 290 59
116 114 219 121 230 7 11 25 51 39 89 14 38 33 82 41 98 9 17 22 55 30 85 8
30 14 63 14 73 0 11 10 39 22 62 12 24 23 45 24 46 1 2 40 -23 86 -55 46 -32
101 -68 123 -78 22 -11 45 -20 50 -20 6 -1 37 -11 70 -24 33 -12 76 -32 94
-44 25 -15 66 -24 145 -33 61 -7 152 -20 201 -29 50 -9 124 -23 165 -31 41 -8
120 -19 175 -24 55 -5 190 -14 299 -20 110 -6 203 -13 207 -16 4 -2 124 -4
266 -4 142 0 350 2 463 6 113 3 255 12 317 20 62 7 150 20 195 29 46 8 137 25
203 39 66 13 140 27 165 30 25 3 65 8 90 11 25 3 97 10 160 16 63 6 153 15
200 20 47 5 117 11 155 15 39 3 84 9 100 14 17 5 46 11 65 14 19 3 103 8 185
12 83 3 161 8 175 10 14 2 48 8 75 13 28 5 84 14 125 20 41 6 91 16 110 21 19
4 64 11 100 15 36 4 104 15 152 25 48 10 109 25 135 33 26 8 73 22 103 30 30
9 75 18 100 22 25 3 62 17 82 30 21 14 41 25 46 25 5 0 21 14 37 30 16 17 34
30 40 30z m-1044 -181 c4 1 9 -5 12 -13 4 -9 -3 -16 -16 -20 -12 -3 -40 -5
-62 -5 l-40 1 50 18 c28 10 53 19 56 19z m-1037 -60 c11 1 17 -2 13 -5 -3 -3
-12 -4 -19 -1 -8 3 -5 6 6 6z m-1424 -9 c22 0 40 -3 40 -8 0 -4 -18 -6 -40 -4
-22 2 -40 6 -40 8 0 2 18 4 40 4z m-825 -22 c11 1 29 -3 39 -7 11 -4 15 -10
10 -13 -5 -3 -22 0 -39 7 -23 10 -25 13 -10 13z m143 -35 c12 -3 25 -9 28 -14
3 -5 1 -9 -3 -9 -5 0 -18 7 -29 15 -18 13 -18 14 4 8z m838 -33 c8 0 12 -4 9
-10 -3 -5 -10 -10 -16 -10 -5 0 -9 5 -9 10 0 6 7 10 16 10z m224 -12 l75 0
-65 -13 c-36 -7 -95 -15 -132 -18 -41 -4 -68 -2 -68 3 0 6 17 10 38 11 20 0
46 4 57 9 11 5 54 8 95 8z m-370 -13 c6 -3 10 -10 10 -16 0 -5 -4 -9 -10 -9
-5 0 -10 7 -10 16 0 8 5 12 10 9z m750 -15 c25 0 51 -4 58 -9 11 -7 10 -10 -3
-15 -9 -3 -58 -5 -108 -4 -51 1 -74 3 -52 5 22 3 44 9 50 14 5 5 29 9 55 9z
m-960 -34 c63 -4 125 -10 138 -13 12 -3 22 -9 22 -14 0 -6 -58 -9 -137 -8 -75
0 -143 3 -150 6 -11 4 -11 8 -1 20 11 13 31 15 128 9z m247 3 c6 1 14 -3 17
-8 3 -5 -6 -11 -19 -14 -14 -2 -28 -1 -30 3 -3 5 1 11 7 13 7 3 18 6 25 6z
m523 0 c25 0 41 -2 35 -4 -5 -2 -32 -5 -59 -8 -30 -3 -43 -1 -35 4 8 5 34 8
59 8z"/>
<g>
<path d="M6876 4368 c-12 3 -17 -1 -14 -10 3 -7 13 -15 22 -16 12 -3 17 1 14
10 -3 7 -13 15 -22 16z"/>
</g>
<g>
<path d="M7770 4233 c-52 1 -120 1 -150 -1 -30 -2 -60 -8 -68 -14 -7 -6 -34
-12 -61 -13 -27 -2 -64 -10 -83 -19 -19 -9 -50 -32 -69 -51 -19 -19 -42 -35
-51 -35 -14 0 -18 -9 -18 -43 0 -24 6 -50 13 -59 6 -8 37 -33 67 -55 30 -22
79 -48 108 -58 38 -12 52 -22 52 -36 0 -11 9 -20 23 -23 12 -3 45 -8 72 -11
28 -3 122 -7 210 -7 88 -1 189 1 225 5 36 3 92 9 125 12 33 2 89 13 125 24 36
10 109 40 162 65 54 26 100 51 103 57 4 5 13 9 21 9 8 0 34 15 57 33 22 17 51
43 64 57 12 14 23 35 23 46 0 12 -6 27 -14 33 -7 6 -35 18 -62 26 -26 8 -58
12 -70 9 -12 -3 -31 -1 -43 5 -11 6 -61 13 -110 16 -50 3 -94 6 -98 7 -5 1
-27 -2 -50 -6 -24 -4 -43 -12 -43 -17 0 -5 37 -10 83 -11 45 -1 102 -3 127 -4
25 -2 68 -8 95 -14 28 -6 57 -9 65 -8 8 1 30 -6 47 -17 25 -15 32 -24 27 -40
-4 -11 -18 -30 -33 -42 -14 -11 -42 -29 -61 -38 -19 -10 -42 -21 -50 -26 -8
-5 -26 -14 -40 -19 -14 -6 -33 -15 -42 -20 -10 -6 -24 -10 -32 -10 -9 0 -24
-9 -35 -21 -10 -11 -51 -29 -92 -40 -41 -10 -105 -24 -144 -30 -42 -7 -153 -9
-277 -7 -127 3 -212 9 -220 15 -7 6 -53 25 -103 41 -49 17 -101 36 -115 44
-14 7 -44 26 -68 42 -23 16 -45 40 -49 54 -5 20 2 31 32 59 21 20 58 43 81 54
24 10 67 23 96 30 29 6 73 12 98 13 25 1 50 5 56 8 5 4 44 5 85 2 40 -3 94 -7
119 -9 25 -2 91 -8 148 -14 56 -5 118 -8 138 -6 19 2 38 6 41 9 4 3 4 8 2 10
-2 3 -54 7 -114 11 -61 3 -137 10 -170 16 -33 5 -103 11 -155 12z"/>
</g>
<g>
<path d="M7855 4168 c-22 -1 -56 -5 -75 -10 -19 -5 -46 -12 -60 -15 -14 -3
-32 -11 -40 -18 -8 -7 -32 -19 -53 -26 -21 -7 -43 -19 -48 -25 -5 -7 -6 -33
-2 -64 l8 -54 60 -19 c33 -11 76 -27 95 -35 19 -8 80 -18 135 -21 55 -3 143
-1 195 5 52 7 126 20 164 29 37 10 89 32 115 50 25 17 52 43 60 57 8 14 12 32
8 41 -3 9 -25 26 -48 37 -23 12 -64 26 -93 32 -28 5 -82 11 -121 13 -38 1
-113 8 -165 14 -52 6 -113 10 -135 9z m163 -31 c12 -11 44 -18 98 -22 43 -3
93 -10 109 -15 17 -5 49 -12 72 -15 24 -4 53 -15 65 -24 l22 -18 -30 -27 c-16
-14 -37 -33 -47 -42 -10 -9 -21 -13 -24 -11 -3 3 -25 -3 -51 -14 -25 -11 -51
-18 -57 -15 -6 2 -32 0 -58 -5 -25 -4 -76 -11 -114 -15 -37 -3 -72 -6 -78 -5
-5 0 -44 7 -85 16 -41 8 -94 18 -118 22 -27 3 -54 16 -72 33 -17 16 -30 36
-30 47 0 10 4 23 8 28 4 6 18 15 32 22 14 6 48 19 75 28 28 10 97 19 158 22
63 3 107 10 107 16 0 5 8 3 18 -6z"/>
<g>
<path d="M7933 4082 c-29 3 -55 3 -58 0 -3 -3 -25 -4 -49 -4 -37 2 -46 -1 -51
-18 -3 -11 -3 -25 0 -31 4 -6 27 -19 51 -29 24 -11 77 -22 117 -26 58 -5 80
-3 105 10 18 9 32 22 32 29 0 6 -4 17 -8 24 -4 6 -21 15 -37 19 -17 4 -34 10
-40 14 -5 4 -34 10 -62 12z m32 -56 c30 -6 52 -12 50 -14 -2 -2 -34 0 -72 4
-39 4 -60 10 -50 13 10 4 42 2 72 -3z"/>
</g>
</g>
</g>
</g>
</svg>
