<?xml version="1.0" standalone="no"?>
<!DOCTYPE svg PUBLIC "-//W3C//DTD SVG 20010904//EN"
 "http://www.w3.org/TR/2001/REC-SVG-20010904/DTD/svg10.dtd">
<svg version="1.0" xmlns="http://www.w3.org/2000/svg"
 width="1068.000000pt" height="1068.000000pt" viewBox="0 0 1068.000000 1068.000000"
 preserveAspectRatio="xMidYMid meet">
<metadata>
Created by potrace 1.16, written by Peter Selinger 2001-2019
</metadata>
<g transform="translate(0.000000,1068.000000) scale(0.100000,-0.100000)"
fill="#000000" stroke="none">
<g>
<path d="M5596 8474 c-256 2 -466 2 -468 1 -2 -2 -59 -6 -128 -9 -69 -3 -325
-8 -570 -11 -245 -3 -488 -10 -540 -15 -52 -5 -207 -13 -345 -17 -137 -4 -306
-8 -375 -8 -105 0 -128 -3 -144 -17 -11 -10 -27 -18 -36 -18 -9 0 -21 -5 -28
-12 -7 -7 -12 -31 -12 -54 0 -41 2 -44 58 -77 31 -19 74 -40 94 -46 20 -7 42
-19 48 -27 7 -7 16 -14 21 -14 4 0 36 -17 71 -37 35 -21 65 -40 68 -44 3 -3
26 -18 53 -33 26 -15 47 -31 47 -35 0 -4 10 -12 23 -18 12 -6 41 -26 63 -44
23 -19 55 -44 70 -56 16 -13 58 -45 94 -73 36 -27 97 -74 135 -104 39 -30 126
-112 195 -183 69 -71 145 -151 170 -179 25 -28 62 -69 83 -93 20 -23 37 -46
37 -50 0 -4 18 -27 40 -51 23 -25 54 -68 70 -97 16 -28 34 -54 40 -58 5 -3 10
-15 10 -26 0 -10 4 -19 9 -19 5 0 19 -21 32 -47 12 -27 44 -84 70 -128 26 -44
54 -102 62 -130 9 -27 38 -102 66 -165 28 -62 51 -118 51 -123 0 -5 18 -46 40
-92 21 -46 47 -107 56 -137 9 -29 21 -57 25 -62 5 -6 9 -20 9 -32 0 -12 11
-55 25 -96 14 -40 30 -93 35 -118 5 -25 18 -94 29 -155 11 -60 25 -166 32
-235 7 -69 13 -136 13 -150 0 -14 -3 -135 -8 -270 -4 -135 -14 -301 -22 -370
-8 -69 -19 -161 -24 -205 -5 -44 -14 -102 -20 -130 -6 -27 -13 -68 -16 -90 -4
-22 -31 -112 -60 -201 -30 -89 -74 -209 -99 -269 -24 -59 -62 -137 -84 -174
-22 -36 -64 -98 -93 -138 -29 -40 -85 -109 -125 -155 -39 -46 -147 -157 -240
-248 -92 -91 -199 -192 -237 -225 -38 -33 -79 -67 -91 -75 -12 -8 -89 -71
-171 -140 -82 -69 -151 -127 -154 -130 -3 -3 -23 -17 -45 -30 -22 -13 -43 -29
-48 -36 -4 -7 -24 -23 -45 -35 -20 -12 -48 -32 -62 -44 -14 -13 -37 -29 -51
-36 -14 -8 -54 -33 -89 -57 -35 -23 -75 -42 -89 -43 -14 0 -34 -2 -44 -4 -10
-2 -27 -11 -38 -21 -10 -9 -19 -29 -19 -44 0 -18 8 -30 23 -38 12 -6 76 -14
142 -18 66 -4 131 -9 145 -11 14 -2 144 -8 290 -13 146 -6 326 -10 400 -9 74
0 176 2 225 4 50 2 160 8 245 14 85 6 279 13 430 16 151 3 316 5 365 5 50 -1
146 -6 215 -12 69 -6 163 -11 210 -13 47 -1 164 -5 260 -9 96 -3 225 -9 285
-12 61 -3 290 -7 510 -9 273 -1 451 2 560 11 88 8 167 14 175 14 8 0 29 0 45
0 17 0 86 7 155 16 69 8 184 19 257 24 72 5 140 13 150 18 10 6 47 15 83 22
36 7 85 17 110 21 25 5 65 13 90 18 25 6 126 15 225 21 126 8 202 9 254 1 61
-8 78 -7 96 5 13 8 25 27 28 42 3 14 -3 96 -13 182 -10 85 -21 210 -25 278 -3
68 -11 156 -16 195 -5 40 -9 95 -9 122 1 28 -4 106 -10 175 -6 69 -18 142 -26
163 -10 26 -11 44 -5 56 6 11 7 41 1 79 -4 34 -11 66 -14 71 -4 5 -8 31 -11
58 -2 26 -7 95 -10 153 -4 58 -11 121 -15 140 -5 19 -14 107 -19 195 -6 88
-14 207 -17 265 -4 58 -7 116 -9 130 -1 14 -5 75 -10 135 -4 61 -9 128 -11
150 -2 22 -3 110 -3 195 -1 85 2 200 5 255 3 55 7 327 9 605 3 278 5 512 6
520 1 8 -1 44 -5 79 -4 35 -8 202 -8 370 0 169 -5 331 -10 361 -5 30 -11 93
-14 140 -2 47 -6 139 -7 205 -2 66 -7 185 -11 265 -4 80 -16 219 -27 310 -11
91 -22 176 -25 190 -2 14 -7 43 -10 65 -3 22 -7 48 -10 58 -5 14 -16 17 -72
15 -37 -1 -116 2 -177 6 -60 4 -247 7 -415 5 -168 -2 -422 -3 -565 -3 -143 -1
-350 3 -460 7 -110 5 -272 10 -360 13 -88 2 -182 6 -210 8 -27 2 -84 6 -125
10 -41 3 -103 8 -138 11 -34 2 -67 7 -72 10 -5 3 -218 7 -474 9z m-51 -111
c231 -2 465 -8 520 -14 55 -5 141 -11 190 -13 50 -2 144 -9 210 -15 66 -6 291
-14 500 -18 209 -4 430 -7 490 -7 61 0 205 4 320 8 116 5 217 9 225 9 8 0 89
-5 180 -11 91 -6 208 -8 261 -5 53 3 108 3 122 -1 15 -3 31 -14 36 -24 5 -10
17 -72 25 -139 9 -67 16 -148 16 -180 0 -32 5 -74 11 -93 5 -19 12 -82 15
-140 2 -58 6 -168 8 -245 2 -77 7 -207 11 -290 4 -82 11 -160 16 -172 4 -12 9
-149 9 -305 1 -156 2 -330 2 -388 0 -58 -3 -249 -7 -425 -4 -176 -7 -336 -7
-355 0 -19 3 -87 5 -150 3 -63 1 -123 -4 -132 -5 -9 -10 -131 -12 -272 -2
-140 1 -297 5 -348 5 -51 10 -118 12 -148 2 -30 9 -95 15 -143 6 -49 8 -93 5
-99 -4 -6 -6 -36 -5 -67 2 -31 5 -72 6 -91 2 -19 6 -64 9 -100 3 -36 8 -83 10
-105 3 -22 7 -53 10 -70 3 -16 12 -93 20 -170 8 -77 14 -147 15 -155 0 -8 5
-49 11 -90 6 -41 13 -127 15 -190 3 -63 8 -131 11 -150 4 -19 8 -84 9 -145 2
-60 6 -132 10 -160 4 -27 9 -54 12 -58 3 -4 5 -53 5 -109 -1 -55 6 -141 13
-192 8 -50 11 -94 7 -98 -4 -4 -64 -10 -132 -13 -69 -3 -168 -8 -220 -10 -52
-2 -130 -13 -175 -24 -44 -11 -120 -27 -170 -36 -49 -9 -115 -20 -145 -25 -30
-5 -82 -12 -115 -15 -33 -3 -89 -8 -125 -10 -36 -3 -92 -10 -125 -15 -33 -6
-154 -17 -270 -25 -115 -8 -298 -15 -405 -16 -107 0 -274 0 -370 0 -96 1 -231
4 -300 8 -69 3 -190 7 -270 8 -80 1 -221 7 -315 14 -93 7 -195 14 -225 16 -30
2 -161 5 -290 6 -129 1 -350 -1 -490 -4 -141 -3 -296 -11 -345 -17 -50 -7
-112 -14 -140 -16 -27 -2 -90 -3 -140 -3 -49 0 -92 2 -96 4 -3 3 -30 0 -59 -4
-30 -5 -67 -5 -83 0 -17 5 -147 11 -289 14 -142 3 -267 9 -278 13 -11 4 -16
12 -12 18 4 6 32 27 62 47 30 21 73 51 95 67 22 17 51 38 65 47 14 10 47 35
75 58 27 22 57 45 65 52 8 6 49 39 90 73 41 35 84 69 96 76 11 8 26 25 33 38
7 13 27 30 44 38 18 9 91 69 162 135 72 66 153 142 181 169 29 27 94 94 145
149 52 55 117 125 144 156 28 31 75 91 105 134 30 43 60 83 65 89 6 6 34 58
62 116 29 58 60 125 69 150 9 25 31 90 50 145 19 55 41 123 49 150 8 28 23 79
34 115 10 36 24 106 31 155 7 50 14 104 15 120 2 17 8 64 14 105 6 41 13 125
16 185 3 61 7 220 9 355 2 135 -1 295 -6 355 -4 61 -18 162 -29 225 -12 63
-27 132 -35 153 -8 20 -14 51 -14 67 0 16 -4 31 -9 34 -4 3 -11 25 -15 48 -4
23 -21 85 -37 138 -17 52 -37 113 -46 135 -8 22 -25 63 -38 90 -12 28 -35 75
-49 104 -14 30 -26 62 -26 71 0 9 -4 20 -9 26 -5 5 -14 27 -21 49 -7 22 -26
68 -41 103 -16 34 -43 92 -60 130 -17 37 -40 79 -50 94 -11 14 -19 35 -19 46
0 10 -9 29 -20 42 -11 13 -20 28 -20 35 0 7 -9 20 -20 30 -11 10 -20 22 -20
27 0 5 -21 36 -47 69 -27 33 -60 77 -75 97 -16 20 -52 64 -80 96 -29 33 -82
91 -117 130 -35 39 -98 107 -140 150 -42 44 -101 101 -131 127 -30 26 -68 58
-85 72 -16 14 -58 49 -92 76 -34 28 -65 51 -69 51 -3 0 -36 26 -73 58 -36 32
-93 75 -126 96 -33 20 -69 42 -80 49 -11 7 -43 27 -71 45 -28 17 -56 32 -63
32 -7 0 -28 11 -47 24 -20 13 -31 27 -25 30 5 4 61 6 123 6 62 -1 187 5 278
13 91 8 208 16 260 17 52 1 148 5 213 9 65 5 135 5 155 0 20 -4 40 -5 46 -2 5
4 140 8 300 10 160 2 356 7 436 12 80 5 334 7 565 4z"/>
<g>
<path d="M7390 6717 c-16 7 -34 7 -50 1 -14 -5 -37 -21 -52 -35 -16 -15 -28
-36 -28 -47 0 -12 10 -39 23 -61 17 -30 30 -41 52 -43 16 -2 47 1 67 8 21 6
45 22 54 36 14 21 15 31 6 63 -7 21 -20 44 -29 52 -10 9 -29 20 -43 26z"/>
</g>
<g>
<path d="M5430 6699 c-19 0 -42 -3 -50 -6 -8 -4 -30 -17 -47 -31 -26 -19 -33
-32 -33 -59 0 -25 8 -43 29 -64 23 -22 39 -29 69 -29 21 0 53 7 69 15 17 9 36
22 43 30 8 9 10 29 7 50 -3 20 -16 49 -29 65 -18 22 -31 29 -58 29z"/>
</g>
<g>
<path d="M6173 6024 c-18 6 -26 1 -41 -23 -14 -22 -18 -45 -15 -86 2 -36 -4
-75 -17 -115 -11 -33 -20 -74 -20 -92 0 -18 -16 -91 -36 -163 -19 -71 -41
-157 -49 -190 -7 -33 -18 -77 -23 -98 -6 -21 -15 -44 -22 -52 -7 -9 -9 -26 -5
-45 4 -16 16 -36 27 -44 11 -8 25 -13 32 -10 6 2 43 -3 81 -12 39 -9 88 -18
110 -21 22 -3 45 -10 52 -15 7 -6 64 -8 134 -6 79 2 127 7 135 15 8 8 9 23 4
45 -4 18 -11 41 -15 51 -5 13 -13 16 -29 10 -11 -4 -52 -7 -91 -8 -38 0 -95 3
-125 8 -30 6 -88 19 -128 30 l-73 21 7 60 c4 34 10 68 14 76 4 8 11 40 15 70
4 30 19 98 34 150 16 52 34 120 41 150 7 30 22 82 32 115 11 32 22 78 24 100
4 31 0 45 -13 57 -10 9 -28 19 -40 22z"/>
</g>
<g>
<path d="M6836 4354 c-86 2 -157 2 -158 1 -2 -2 -228 -5 -503 -8 -275 -3 -508
-8 -518 -12 -9 -4 -20 -19 -24 -33 -3 -13 -2 -37 3 -51 9 -24 14 -26 59 -25
28 1 311 4 630 7 359 4 612 2 665 -4 47 -6 99 -12 115 -15 17 -2 73 -11 125
-19 52 -8 109 -19 125 -24 17 -5 52 -12 78 -15 27 -3 78 -15 115 -26 37 -11
83 -22 102 -24 19 -2 59 -7 88 -12 l53 -7 -7 39 c-3 21 -9 44 -13 49 -3 6 -6
17 -6 25 0 10 -17 17 -55 22 -30 5 -80 13 -110 19 -30 7 -68 13 -85 14 -16 1
-49 7 -72 14 -23 6 -91 21 -150 32 -59 12 -133 25 -163 29 -30 4 -74 11 -97
14 -23 4 -112 8 -197 10z"/>
</g>
</g>
<g>
<path d="M4430 6584 c-14 2 -34 1 -45 -2 -11 -4 -35 -15 -52 -25 -27 -14 -33
-24 -33 -51 0 -18 7 -46 15 -63 12 -25 25 -32 71 -42 l56 -13 29 34 c20 23 28
44 29 70 0 25 -8 45 -22 62 -13 14 -34 27 -48 30z"/>
</g>
<g>
<path d="M2278 6409 c-7 0 -23 -4 -34 -9 -12 -4 -31 -21 -43 -36 -11 -14 -21
-38 -21 -51 0 -13 5 -33 10 -43 6 -11 20 -25 33 -31 12 -7 31 -13 42 -15 11
-1 27 -5 36 -9 10 -4 28 4 48 20 23 20 31 35 31 60 0 19 -4 45 -10 60 -6 15
-24 32 -45 40 -19 8 -40 15 -47 14z"/>
</g>
<g>
<path d="M3761 5949 c-9 0 -26 -4 -37 -9 -12 -5 -25 -13 -29 -19 -3 -6 3 -59
15 -118 12 -58 25 -114 31 -124 5 -10 9 -29 9 -43 0 -14 4 -27 8 -30 5 -3 17
-33 27 -68 10 -35 22 -67 25 -73 4 -5 15 -35 25 -65 10 -30 26 -66 36 -79 11
-13 19 -28 19 -33 0 -5 19 -48 41 -95 23 -46 57 -107 75 -134 18 -27 31 -56
28 -63 -3 -8 -38 -28 -77 -46 -40 -18 -109 -50 -155 -72 -45 -21 -88 -38 -96
-38 -7 0 -21 -9 -31 -20 -17 -18 -17 -21 2 -52 15 -25 26 -33 46 -31 15 1 61
18 103 37 42 20 80 36 84 36 5 0 63 27 130 61 95 47 120 64 116 76 -4 9 1 24
10 34 15 17 13 23 -33 91 -27 40 -69 107 -93 148 -24 41 -49 82 -55 90 -6 8
-19 35 -29 60 -10 25 -22 54 -26 65 -4 11 -15 37 -24 58 -9 21 -16 44 -16 51
0 7 -11 34 -24 60 -14 27 -22 54 -20 61 3 7 -1 26 -9 42 -8 15 -20 71 -26 123
-7 52 -17 100 -23 107 -6 7 -18 13 -27 12z"/>
</g>
<g>
<path d="M4225 4370 c-13 0 -26 -4 -29 -9 -3 -5 -18 -11 -33 -14 -16 -3 -80
-19 -143 -36 -63 -17 -133 -31 -155 -31 -22 0 -58 -5 -80 -10 -22 -6 -67 -14
-100 -20 -33 -5 -105 -19 -160 -30 -55 -11 -149 -27 -210 -36 -65 -9 -166 -14
-248 -12 -114 1 -140 -1 -153 -14 -11 -11 -14 -25 -9 -46 3 -17 13 -36 20 -42
10 -8 43 -10 102 -7 49 3 133 7 189 10 55 3 118 10 140 16 21 5 71 14 109 20
39 5 99 16 135 25 36 8 124 24 195 36 72 11 140 20 153 20 12 0 30 4 40 9 9 5
46 14 82 21 36 6 69 16 75 21 5 5 21 9 36 9 15 0 31 5 34 11 4 5 17 14 30 19
13 5 24 20 27 35 3 15 0 32 -9 41 -8 8 -25 14 -38 14z"/>
</g>
</g>
</svg>
