<?xml version="1.0" standalone="no"?>
<!DOCTYPE svg PUBLIC "-//W3C//DTD SVG 20010904//EN"
 "http://www.w3.org/TR/2001/REC-SVG-20010904/DTD/svg10.dtd">
<svg version="1.0" xmlns="http://www.w3.org/2000/svg"
 width="900.000000pt" height="1200.000000pt" viewBox="0 0 900.000000 1200.000000"
 preserveAspectRatio="xMidYMid meet">
<metadata>
Created by potrace 1.16, written by Peter Selinger 2001-2019
</metadata>
<g transform="translate(0.000000,1200.000000) scale(0.100000,-0.100000)"
fill="#000000" stroke="none">
<g>
<path d="M4499 11416 c-24 1 -64 -1 -88 -6 -25 -5 -67 -17 -95 -26 -28 -9 -55
-20 -61 -24 -5 -4 -21 -11 -35 -15 -14 -4 -68 -29 -120 -54 -52 -26 -144 -76
-205 -111 -60 -34 -129 -76 -152 -92 -23 -15 -46 -28 -51 -28 -5 0 -27 -12
-48 -28 -21 -15 -82 -54 -134 -86 -52 -33 -166 -104 -252 -158 -87 -55 -160
-104 -164 -109 -3 -5 -24 -19 -47 -30 -23 -12 -91 -54 -152 -94 -60 -40 -123
-79 -140 -88 -16 -8 -41 -24 -53 -36 -13 -11 -75 -53 -139 -93 -63 -40 -147
-94 -186 -121 -40 -26 -83 -53 -97 -59 -14 -7 -27 -15 -30 -19 -3 -3 -50 -30
-105 -59 -55 -29 -118 -58 -140 -64 -32 -10 -44 -20 -62 -56 -12 -24 -20 -47
-17 -52 3 -4 15 -8 26 -8 12 0 76 28 142 63 67 35 162 90 211 122 50 32 194
126 320 210 127 83 257 169 290 190 33 21 96 62 140 90 44 29 105 67 135 87
30 19 80 50 110 69 30 19 61 39 70 44 9 6 31 19 49 30 19 11 45 29 60 41 14
11 91 59 171 106 80 47 174 102 210 123 36 21 119 66 186 101 66 34 140 68
165 75 24 7 49 16 54 19 6 4 33 12 60 18 28 6 63 13 79 15 16 3 43 1 62 -5 19
-5 43 -22 56 -41 20 -28 23 -43 22 -122 0 -59 -8 -116 -22 -165 -11 -41 -31
-102 -45 -135 -13 -33 -36 -89 -51 -125 -16 -36 -35 -81 -44 -100 -9 -19 -63
-118 -120 -220 -58 -102 -111 -197 -118 -211 -8 -15 -21 -32 -29 -39 -8 -7
-15 -16 -15 -21 0 -5 -39 -68 -87 -140 -49 -73 -106 -158 -128 -189 -22 -32
-54 -78 -72 -103 -17 -25 -42 -61 -55 -79 -13 -18 -26 -35 -29 -38 -3 -3 -28
-36 -54 -75 -27 -38 -71 -100 -99 -137 -28 -36 -60 -79 -71 -94 -11 -15 -35
-45 -53 -67 -18 -22 -37 -49 -43 -59 -6 -11 -39 -56 -74 -101 -35 -45 -88
-112 -117 -149 -29 -38 -61 -78 -71 -90 -10 -13 -28 -34 -41 -48 -12 -14 -42
-52 -66 -85 -25 -33 -108 -138 -185 -235 -78 -96 -188 -233 -246 -305 -57 -71
-113 -141 -124 -154 -11 -13 -47 -56 -80 -95 -33 -39 -114 -136 -180 -216 -66
-80 -122 -147 -125 -150 -3 -3 -35 -41 -70 -85 -35 -44 -72 -89 -82 -100 -10
-11 -46 -54 -80 -96 -35 -42 -98 -116 -140 -165 -42 -49 -123 -145 -180 -214
-57 -69 -128 -156 -159 -195 -30 -38 -91 -114 -135 -169 -43 -54 -83 -106 -89
-115 -5 -9 -29 -39 -52 -67 -24 -29 -63 -78 -88 -110 -25 -33 -78 -104 -117
-159 -39 -55 -82 -111 -94 -125 -12 -14 -39 -50 -61 -81 -21 -31 -67 -99 -103
-150 -36 -52 -97 -147 -137 -212 -40 -64 -88 -148 -107 -185 -19 -37 -46 -96
-60 -131 -14 -35 -30 -89 -36 -120 -5 -31 -6 -76 -2 -100 6 -38 14 -49 54 -77
38 -27 56 -33 104 -34 33 -1 88 3 124 8 36 5 88 20 115 34 28 13 75 32 105 42
31 9 71 26 90 38 19 12 73 42 120 66 47 24 114 61 150 82 36 20 123 70 194
110 71 40 148 86 172 101 23 16 45 29 48 29 3 0 84 46 178 103 95 57 227 135
293 174 66 38 188 108 270 153 83 46 211 114 285 150 74 37 151 74 170 83 19
9 73 31 120 50 47 19 148 55 225 81 77 25 189 54 248 66 60 11 149 20 200 20
63 0 109 -6 143 -18 27 -9 64 -28 81 -42 17 -14 40 -41 50 -60 11 -19 26 -59
33 -89 9 -37 11 -89 7 -165 -3 -61 -11 -127 -16 -146 -6 -19 -21 -80 -35 -135
-13 -55 -30 -136 -36 -179 -7 -43 -9 -98 -6 -121 5 -27 16 -51 34 -67 15 -14
44 -31 65 -38 25 -8 60 -10 95 -5 31 3 98 20 147 37 50 17 142 53 205 80 63
27 129 55 145 63 17 7 86 37 155 65 69 28 146 57 173 64 28 8 50 9 53 4 3 -5
0 -24 -7 -41 -7 -18 -25 -59 -40 -92 -14 -33 -45 -100 -68 -149 -23 -49 -50
-118 -61 -154 -11 -35 -20 -79 -20 -96 0 -23 9 -41 31 -62 28 -26 36 -29 98
-28 46 0 87 8 127 24 32 13 100 43 149 68 50 25 115 61 145 80 30 20 75 47
100 60 25 14 88 53 140 89 52 35 132 90 178 122 45 32 119 89 164 127 45 38
93 80 107 94 14 14 41 37 59 52 18 14 67 68 110 120 43 51 103 129 134 173 30
44 73 114 96 155 22 41 47 99 57 128 13 40 16 75 12 145 -3 51 -10 115 -17
142 -6 28 -13 61 -16 75 -3 14 -12 50 -21 80 -8 30 -21 73 -28 95 -7 22 -36
86 -64 142 -28 56 -78 137 -111 182 -34 44 -87 103 -118 131 -31 28 -86 70
-122 94 -36 23 -94 59 -130 79 -36 19 -105 52 -155 72 -49 20 -124 48 -165 62
-41 14 -109 34 -150 44 -41 11 -97 20 -125 21 -30 0 -63 8 -82 20 -17 10 -59
48 -93 85 -34 36 -69 81 -76 100 -9 19 -12 44 -8 61 4 15 16 43 26 63 10 20
46 58 81 86 38 31 91 60 137 78 41 15 95 32 120 37 25 4 81 15 125 24 44 8 94
14 110 13 17 -1 37 -1 45 0 8 1 73 4 144 6 72 2 166 -1 210 -6 45 -5 106 -11
136 -14 30 -3 96 -10 145 -16 50 -5 101 -12 115 -15 14 -3 61 -11 105 -19 44
-7 111 -21 149 -29 38 -9 74 -20 80 -25 6 -5 34 -12 61 -16 28 -4 62 -14 77
-21 15 -8 41 -14 58 -14 17 0 47 -7 68 -16 20 -9 62 -24 92 -34 30 -10 75 -26
100 -35 25 -10 69 -23 98 -31 29 -8 66 -14 81 -14 16 0 34 -7 42 -16 7 -8 41
-28 75 -45 35 -16 66 -29 70 -29 3 0 18 -8 32 -19 15 -10 48 -29 74 -43 26
-14 75 -50 108 -82 35 -32 75 -82 92 -114 17 -31 32 -68 34 -82 1 -14 8 -70
14 -125 8 -81 8 -115 -4 -175 -8 -41 -23 -106 -34 -145 -11 -38 -41 -122 -67
-185 -26 -63 -76 -172 -112 -242 -35 -70 -105 -198 -155 -285 -49 -87 -121
-210 -160 -273 -38 -63 -94 -153 -123 -200 -30 -47 -67 -107 -84 -135 -17 -27
-48 -76 -69 -107 -20 -32 -81 -126 -135 -210 -54 -84 -122 -191 -152 -238 -29
-47 -69 -110 -88 -140 -19 -30 -87 -140 -152 -245 -65 -104 -154 -246 -198
-315 -44 -69 -109 -169 -146 -223 -36 -54 -89 -135 -116 -180 -28 -45 -95
-147 -149 -227 -55 -80 -119 -172 -143 -205 -24 -33 -72 -98 -106 -145 -34
-47 -97 -135 -140 -195 -43 -61 -107 -150 -143 -200 -35 -49 -104 -146 -152
-215 -48 -69 -106 -151 -127 -183 -22 -31 -59 -88 -82 -125 -24 -37 -77 -135
-119 -218 -41 -83 -78 -170 -81 -192 -5 -38 -3 -42 34 -66 21 -14 66 -31 98
-37 34 -6 92 -8 135 -5 41 4 113 13 160 22 47 8 128 25 180 38 52 14 133 34
180 45 47 12 117 30 155 41 39 11 126 37 195 56 69 20 161 46 205 59 44 12
114 32 155 43 41 12 125 36 185 53 61 17 133 38 160 45 28 8 127 34 220 59 94
25 188 50 210 55 22 5 119 25 215 45 96 19 226 42 289 50 63 9 174 18 246 22
105 5 146 2 209 -12 55 -12 87 -25 104 -42 22 -22 24 -30 18 -78 -3 -29 -22
-98 -41 -154 -19 -55 -79 -187 -133 -293 -54 -106 -115 -219 -135 -251 -20
-31 -37 -64 -37 -72 0 -7 -4 -16 -9 -19 -5 -3 -22 -34 -39 -68 -16 -35 -46
-97 -66 -140 -19 -42 -45 -100 -57 -130 -12 -29 -34 -91 -49 -138 -15 -47 -33
-118 -40 -157 -10 -57 -11 -84 -1 -126 9 -42 21 -63 59 -100 26 -25 70 -56 97
-68 37 -17 75 -24 146 -27 62 -3 134 2 200 12 57 10 129 24 159 33 30 8 74 21
97 29 23 8 47 21 53 29 7 8 9 24 5 36 -7 20 -12 21 -61 16 -29 -3 -59 -9 -65
-13 -7 -4 -24 -8 -38 -9 -14 -2 -69 -8 -121 -14 -52 -6 -111 -11 -130 -12 -19
0 -64 4 -100 9 -36 5 -86 20 -112 32 -26 12 -61 37 -77 56 -17 18 -35 50 -40
71 -6 21 -11 56 -11 77 0 21 9 71 21 110 11 39 32 103 45 141 14 39 68 156
121 260 52 105 104 202 115 217 11 15 63 119 117 230 54 112 111 241 126 288
16 47 35 100 42 118 8 18 11 36 8 41 -3 5 -1 12 5 16 5 3 10 31 10 61 0 30 -4
54 -9 54 -5 0 -8 7 -7 16 0 9 -11 25 -25 36 -14 10 -32 20 -40 22 -8 1 -32 8
-55 14 -27 8 -97 10 -209 7 -93 -3 -186 -10 -207 -16 -21 -5 -61 -12 -89 -15
-28 -3 -86 -12 -128 -21 -42 -8 -93 -17 -114 -19 -20 -1 -42 -6 -49 -10 -6 -4
-21 -9 -32 -11 -12 -2 -39 -6 -61 -9 -22 -3 -47 -8 -55 -11 -8 -3 -22 -7 -30
-8 -8 -2 -35 -10 -59 -19 -24 -9 -53 -16 -65 -16 -12 0 -44 -11 -72 -25 -27
-13 -96 -38 -154 -55 -57 -17 -108 -34 -113 -37 -5 -3 -34 -6 -65 -8 -31 -1
-77 -7 -102 -13 -25 -5 -83 -21 -130 -35 -47 -14 -101 -28 -120 -32 -19 -4
-84 -21 -145 -40 -60 -18 -155 -45 -210 -59 -55 -15 -113 -32 -130 -37 -16 -6
-68 -19 -115 -29 -47 -10 -98 -23 -114 -29 -15 -6 -65 -18 -110 -27 -44 -8
-103 -20 -131 -25 -27 -5 -95 -12 -151 -15 -62 -4 -121 -2 -154 5 -30 7 -64
21 -76 32 -20 18 -21 25 -11 52 6 18 29 68 52 112 23 44 52 97 64 118 12 21
30 50 40 65 10 15 31 47 47 72 16 25 31 47 34 50 3 3 27 38 54 79 27 41 53 79
57 85 5 6 31 40 57 76 26 36 54 75 62 87 8 12 67 94 130 184 63 89 127 178
142 198 15 20 43 60 64 90 20 30 58 81 83 115 25 34 104 149 175 256 71 107
137 207 147 222 11 15 19 30 19 34 0 3 17 31 39 62 21 32 60 91 86 132 26 41
69 107 95 145 26 39 73 114 106 168 32 54 71 117 86 140 15 23 37 58 48 77 11
19 33 54 48 77 15 24 70 110 122 193 52 83 104 165 115 183 11 18 38 61 60 95
22 35 78 120 124 190 46 70 102 156 124 192 22 36 83 135 135 220 52 85 119
198 150 250 30 52 90 158 132 235 42 77 91 172 109 210 18 39 41 86 51 105 10
19 35 78 55 130 21 52 51 147 67 210 25 97 30 136 30 245 1 92 -3 147 -15 188
-9 32 -26 75 -38 95 -13 20 -33 50 -46 65 -12 15 -46 48 -75 73 -29 24 -100
69 -158 98 -58 29 -132 63 -165 75 -33 13 -69 27 -80 32 -11 5 -49 18 -85 29
-36 12 -114 37 -175 56 -60 19 -189 55 -285 80 -96 25 -233 56 -305 70 -71 14
-224 37 -340 50 -149 17 -264 25 -395 25 -120 0 -222 -6 -289 -16 -58 -8 -116
-18 -130 -22 -15 -3 -55 -14 -91 -26 -36 -11 -83 -29 -104 -39 -21 -11 -61
-40 -87 -65 -27 -25 -62 -66 -78 -91 -16 -26 -44 -81 -60 -124 -17 -42 -31
-81 -31 -86 0 -5 21 -36 48 -67 26 -32 62 -71 80 -88 17 -17 32 -34 32 -39 0
-5 20 -30 45 -55 41 -41 47 -44 58 -29 8 11 39 21 86 28 63 9 79 9 105 -5 17
-9 54 -18 82 -20 30 -2 74 -16 112 -35 35 -18 69 -32 76 -32 8 0 27 -7 43 -15
15 -8 40 -17 56 -20 15 -3 37 -15 49 -27 13 -13 29 -23 36 -25 8 -1 26 -13 41
-26 14 -14 35 -28 47 -31 12 -4 33 -19 47 -34 13 -15 48 -45 75 -67 28 -22 51
-44 52 -49 0 -5 10 -18 23 -30 13 -11 39 -41 58 -66 19 -24 40 -56 48 -70 7
-14 20 -38 28 -55 8 -16 18 -37 24 -45 5 -8 14 -26 20 -40 6 -14 12 -37 14
-52 2 -15 9 -36 14 -47 6 -11 11 -29 11 -41 0 -11 7 -34 15 -50 8 -16 20 -64
26 -107 6 -43 15 -83 20 -89 5 -6 11 -60 14 -120 6 -97 4 -117 -16 -169 -12
-33 -49 -100 -82 -148 -33 -49 -87 -119 -121 -155 -33 -37 -65 -72 -70 -77 -6
-6 -58 -51 -116 -101 -58 -49 -125 -105 -150 -125 -25 -19 -65 -49 -90 -65
-25 -17 -94 -64 -155 -106 -60 -41 -150 -97 -199 -124 -49 -27 -110 -61 -135
-76 -25 -15 -66 -37 -91 -48 -25 -12 -74 -32 -110 -45 -36 -13 -89 -26 -118
-30 -41 -5 -58 -3 -79 10 -24 16 -25 21 -20 74 2 31 12 70 20 86 8 17 20 41
25 55 6 14 20 48 32 75 12 28 26 57 31 65 5 8 12 22 15 30 4 8 21 49 39 90 18
41 35 87 39 102 5 20 2 30 -12 37 -12 6 -34 6 -62 0 -24 -5 -78 -24 -119 -40
-42 -17 -101 -41 -131 -54 -30 -13 -73 -31 -95 -40 -22 -9 -53 -23 -70 -30
-16 -8 -66 -30 -110 -48 -44 -19 -131 -51 -193 -71 -62 -20 -134 -37 -160 -37
-27 -1 -62 6 -80 15 -17 9 -36 25 -42 36 -6 11 -11 48 -11 83 0 34 9 103 20
152 11 50 32 142 46 205 17 81 25 146 26 220 0 81 -5 118 -20 164 -12 33 -32
73 -45 90 -13 17 -47 43 -75 59 -28 15 -79 31 -114 36 -34 4 -93 7 -132 5 -38
-2 -104 -9 -145 -15 -41 -7 -120 -24 -175 -40 -55 -15 -145 -44 -200 -64 -55
-19 -114 -42 -132 -50 -17 -8 -34 -15 -37 -15 -4 0 -76 -34 -162 -75 -85 -41
-157 -75 -159 -75 -3 0 -46 -24 -97 -53 -51 -30 -98 -56 -103 -58 -6 -2 -44
-24 -85 -48 -41 -24 -106 -62 -145 -84 -38 -22 -153 -91 -255 -152 -102 -61
-207 -124 -235 -140 -27 -16 -63 -36 -78 -45 -15 -8 -80 -46 -145 -84 -64 -38
-178 -103 -252 -144 -74 -41 -187 -101 -250 -132 -63 -32 -149 -70 -190 -85
-41 -15 -100 -33 -130 -41 -30 -7 -77 -13 -103 -14 -26 0 -63 6 -82 14 -18 8
-41 26 -51 40 -12 20 -15 38 -10 73 3 26 18 76 32 112 14 36 33 82 42 101 9
19 49 91 91 160 41 69 108 175 150 235 41 61 108 157 150 215 41 58 100 138
131 179 30 41 67 90 81 110 14 20 79 104 145 187 65 83 184 231 264 330 79 98
196 240 258 314 63 74 198 236 300 360 103 123 228 272 277 330 50 58 119 141
155 185 36 44 97 118 135 165 38 47 76 94 85 104 8 11 29 35 46 55 16 20 82
101 145 181 63 80 152 192 198 250 45 58 101 129 124 158 23 29 65 81 92 115
28 34 64 80 80 102 17 22 34 44 38 50 4 5 37 48 73 95 36 47 80 105 97 129 18
24 40 53 51 65 10 11 39 50 64 86 26 36 51 70 57 77 5 7 30 42 55 78 25 36 74
105 109 153 35 48 100 143 146 212 45 69 108 164 139 213 31 48 77 124 103
170 25 45 56 100 68 122 12 22 41 74 64 114 23 41 54 100 68 130 14 31 42 98
64 149 21 51 53 136 70 190 26 80 32 114 33 192 1 78 -3 101 -19 129 -11 19
-32 43 -46 54 -15 10 -46 21 -70 23z"/>
</g>
<g>
<path d="M5385 7830 c-23 0 -35 -7 -48 -29 -9 -16 -17 -38 -17 -49 0 -11 7
-28 16 -36 8 -9 28 -16 43 -16 15 0 35 8 44 18 9 10 20 33 23 52 6 26 3 36
-11 47 -11 7 -33 13 -50 13z"/>
</g>
<g>
<path d="M7454 7300 c-22 0 -34 -7 -47 -29 -9 -16 -17 -33 -17 -39 0 -5 11
-21 25 -36 15 -16 35 -26 53 -26 15 0 33 5 40 12 7 7 12 28 12 48 0 23 -7 43
-18 53 -10 10 -32 17 -48 17z"/>
</g>
<g>
<path d="M7134 7197 c-6 2 -16 -2 -21 -9 -6 -7 -22 -38 -37 -70 -15 -31 -29
-63 -30 -71 -1 -8 -7 -21 -12 -28 -6 -8 -20 -34 -31 -59 -11 -25 -26 -64 -33
-87 -10 -33 -10 -46 -1 -57 6 -7 28 -17 49 -21 20 -4 54 -16 74 -27 20 -12 44
-18 53 -14 14 5 15 9 5 21 -9 10 -9 15 -1 15 6 0 11 7 11 15 0 8 -12 18 -27
21 -16 4 -32 10 -38 14 -5 4 -25 11 -43 15 -28 6 -32 10 -26 28 4 12 22 55 41
97 19 41 46 97 59 123 14 27 24 58 22 70 -2 11 -8 22 -14 24z"/>
</g>
<g>
<path d="M6888 6628 c-51 11 -92 15 -101 10 -8 -4 -14 -16 -12 -26 2 -9 4 -20
4 -24 1 -3 22 -13 49 -21 26 -9 72 -21 102 -27 30 -6 100 -26 155 -44 55 -18
124 -41 154 -50 29 -10 60 -15 68 -11 12 4 13 8 4 19 -9 10 -9 16 -1 21 8 5 8
11 1 19 -6 7 -36 18 -67 25 -31 7 -94 28 -140 47 -46 18 -94 36 -107 38 -12 3
-61 14 -109 24z"/>
</g>
</g>
</svg>
