<?xml version="1.0" standalone="no"?>
<!DOCTYPE svg PUBLIC "-//W3C//DTD SVG 20010904//EN"
 "http://www.w3.org/TR/2001/REC-SVG-20010904/DTD/svg10.dtd">
<svg version="1.0" xmlns="http://www.w3.org/2000/svg"
 width="1200.000000pt" height="1200.000000pt" viewBox="0 0 1200.000000 1200.000000"
 preserveAspectRatio="xMidYMid meet">
<metadata>
Created by potrace 1.16, written by Peter Selinger 2001-2019
</metadata>
<g transform="translate(0.000000,1200.000000) scale(0.100000,-0.100000)"
fill="#000000" stroke="none">
<g>
<path d="M7312 10984 c-18 1 -44 -3 -57 -10 -13 -6 -27 -8 -32 -3 -5 5 -52 4
-108 -2 -55 -5 -120 -11 -145 -13 -25 -1 -47 -4 -50 -5 -3 -1 -45 -4 -95 -7
-49 -2 -117 -9 -150 -14 -33 -5 -121 -15 -195 -21 -74 -6 -139 -13 -144 -16
-5 -3 -45 -10 -90 -15 -44 -5 -119 -13 -166 -19 -47 -6 -121 -14 -165 -19 -44
-5 -109 -13 -145 -19 -36 -7 -109 -18 -162 -26 -53 -8 -143 -26 -200 -41 -57
-14 -137 -34 -179 -45 -41 -10 -91 -19 -110 -19 -19 0 -40 -5 -47 -12 -7 -7
-47 -17 -90 -24 -42 -7 -120 -24 -172 -38 -52 -15 -140 -40 -195 -57 -55 -17
-145 -46 -201 -64 -55 -18 -154 -54 -220 -79 -65 -26 -139 -56 -164 -68 -25
-11 -69 -27 -98 -34 -30 -8 -68 -24 -85 -37 -18 -13 -72 -42 -122 -66 -49 -23
-144 -70 -210 -103 -66 -34 -138 -73 -159 -87 -22 -14 -58 -37 -80 -50 -23
-13 -59 -38 -81 -56 -22 -17 -50 -37 -63 -44 -13 -7 -31 -19 -40 -26 -9 -8
-54 -42 -100 -77 -46 -35 -94 -70 -106 -78 -12 -8 -67 -52 -121 -96 -55 -45
-149 -128 -210 -184 -60 -56 -163 -155 -227 -220 -64 -66 -124 -130 -134 -144
-9 -15 -23 -26 -30 -26 -8 0 -14 -5 -14 -11 0 -6 -24 -40 -52 -76 -29 -36 -69
-84 -89 -107 -19 -22 -67 -84 -106 -136 -38 -52 -114 -160 -168 -240 -54 -80
-106 -154 -116 -165 -10 -11 -23 -31 -29 -45 -5 -14 -24 -47 -42 -75 -17 -27
-56 -93 -86 -145 -30 -52 -71 -126 -91 -165 -21 -38 -58 -115 -83 -170 -26
-55 -55 -120 -66 -145 -11 -25 -41 -99 -67 -165 -26 -66 -57 -147 -70 -180
-12 -33 -39 -112 -59 -175 -19 -63 -49 -160 -64 -215 -16 -55 -35 -120 -41
-145 -7 -25 -14 -54 -16 -65 -3 -11 -11 -49 -20 -85 -8 -36 -20 -90 -25 -120
-5 -30 -14 -82 -20 -115 -6 -33 -15 -96 -20 -140 -5 -44 -14 -132 -20 -195 -6
-63 -14 -158 -18 -211 -4 -53 -4 -188 0 -300 4 -112 9 -251 12 -309 3 -58 14
-170 25 -250 11 -80 25 -165 30 -190 6 -25 19 -79 30 -120 12 -41 21 -88 21
-103 0 -15 7 -44 15 -64 8 -20 22 -65 30 -100 8 -35 15 -75 15 -89 0 -14 11
-46 25 -72 14 -26 25 -62 25 -80 0 -18 4 -40 9 -50 5 -9 19 -53 31 -97 12 -44
25 -84 30 -90 4 -5 11 -29 15 -52 3 -22 13 -49 20 -60 8 -10 15 -25 15 -33 0
-8 7 -28 15 -44 8 -15 15 -32 15 -37 0 -5 22 -58 48 -117 27 -59 55 -127 62
-151 8 -25 38 -92 67 -149 29 -57 53 -110 53 -118 0 -7 16 -47 36 -88 19 -42
40 -78 45 -81 5 -4 9 -14 9 -24 0 -10 6 -24 14 -30 8 -7 28 -40 44 -74 16 -34
58 -100 93 -146 35 -46 81 -105 102 -132 21 -27 68 -79 105 -117 37 -37 89
-85 116 -107 26 -22 56 -47 65 -55 10 -8 39 -30 64 -47 26 -18 50 -33 53 -33
3 0 25 -13 48 -29 23 -16 76 -46 117 -66 41 -20 112 -52 159 -72 47 -19 117
-45 155 -58 39 -12 88 -27 110 -34 22 -6 76 -20 120 -30 44 -10 105 -24 135
-30 30 -6 84 -15 120 -21 36 -5 108 -14 160 -20 52 -6 140 -14 195 -18 55 -4
217 -6 360 -5 150 1 328 9 420 18 88 9 187 20 220 25 33 6 83 14 110 20 28 5
93 19 145 30 52 11 111 24 130 30 19 6 67 20 105 30 39 10 108 30 155 44 46
14 89 31 94 36 6 6 18 10 27 10 9 0 68 21 130 46 63 25 125 52 139 59 14 8 81
40 150 73 69 33 154 78 190 101 36 23 76 46 89 51 13 6 51 29 85 53 33 23 106
74 161 113 55 39 132 92 170 119 39 27 106 78 150 115 44 37 88 71 98 77 10 5
39 30 65 54 26 25 55 50 64 55 9 5 65 54 125 108 59 55 180 172 268 260 89 89
192 197 230 242 39 44 106 125 150 180 45 54 115 151 157 214 41 63 96 149
120 190 25 41 64 109 86 150 22 42 60 121 85 175 24 55 58 142 76 193 17 51
42 129 55 175 13 45 26 104 30 131 3 27 10 54 15 60 5 6 16 50 25 98 9 48 15
90 14 95 -1 4 3 49 10 98 7 50 17 117 22 150 5 33 12 105 15 160 3 55 8 177
10 270 3 94 1 253 -5 355 -6 102 -17 226 -26 275 -8 50 -22 126 -30 170 -9 44
-20 94 -25 110 -5 17 -20 66 -33 110 -13 44 -34 114 -46 155 -12 41 -32 104
-45 140 -12 36 -34 90 -48 120 -14 30 -37 84 -52 120 -14 36 -35 90 -46 120
-11 30 -35 87 -53 125 -19 39 -61 126 -95 195 -33 69 -73 148 -88 175 -15 28
-32 55 -36 60 -5 6 -24 37 -43 70 -18 33 -43 78 -55 99 -12 22 -55 73 -97 113
-41 40 -79 73 -83 73 -5 0 -15 12 -23 28 -8 15 -33 41 -56 57 -24 17 -62 47
-85 67 -23 21 -57 45 -76 53 -19 8 -41 19 -49 24 -8 5 -40 20 -70 34 -30 14
-80 36 -110 50 -30 14 -80 30 -110 36 -30 6 -68 13 -85 17 -16 3 -64 10 -105
15 -41 5 -120 14 -175 19 -55 6 -205 12 -333 14 -154 3 -237 8 -246 15 -10 8
-64 10 -187 5 -96 -4 -205 -6 -244 -6 -38 0 -110 2 -160 5 -49 2 -202 7 -340
11 -137 4 -264 11 -281 17 -22 7 -52 6 -95 -1 -35 -5 -91 -10 -124 -10 -33 0
-82 -6 -110 -14 -27 -8 -71 -23 -97 -35 -26 -12 -56 -34 -66 -49 -11 -15 -27
-44 -36 -66 -9 -21 -16 -54 -16 -72 0 -26 4 -34 18 -34 9 0 37 5 62 11 25 6
83 19 129 28 57 12 125 16 215 15 72 -1 217 -5 321 -9 105 -4 249 -8 320 -10
72 -2 153 -6 180 -9 28 -2 219 -7 425 -11 206 -4 377 -8 380 -10 3 -2 68 -8
145 -15 77 -6 177 -18 222 -25 45 -8 121 -25 170 -39 48 -14 120 -37 158 -51
39 -15 106 -44 150 -66 44 -22 104 -59 135 -82 30 -23 94 -80 143 -127 48 -47
111 -116 140 -154 29 -38 56 -76 62 -85 5 -9 21 -31 34 -50 13 -18 34 -52 46
-75 12 -22 50 -93 83 -157 33 -64 63 -127 67 -140 4 -13 27 -64 51 -114 24
-49 68 -155 99 -235 31 -80 61 -154 65 -165 5 -11 18 -47 30 -80 13 -33 26
-69 31 -80 4 -11 24 -72 43 -135 19 -64 49 -183 65 -265 16 -83 37 -238 47
-345 13 -150 15 -254 11 -450 -3 -140 -11 -307 -17 -370 -6 -63 -22 -178 -35
-255 -14 -77 -29 -158 -34 -180 -5 -22 -25 -92 -44 -155 -19 -63 -48 -146 -64
-185 -15 -38 -57 -124 -93 -190 -35 -66 -89 -158 -119 -205 -30 -47 -87 -125
-125 -175 -38 -49 -92 -117 -120 -150 -28 -33 -75 -87 -105 -120 -30 -33 -95
-101 -144 -152 -48 -50 -143 -143 -210 -206 -67 -63 -170 -155 -228 -204 -58
-48 -154 -126 -213 -173 -59 -46 -143 -109 -186 -140 -44 -30 -123 -85 -175
-123 -53 -37 -100 -67 -104 -67 -4 0 -16 -9 -27 -21 -10 -12 -46 -34 -79 -50
-33 -16 -87 -45 -120 -63 -33 -19 -78 -43 -100 -54 -22 -10 -51 -24 -65 -31
-14 -6 -43 -23 -65 -36 -22 -14 -50 -25 -62 -25 -12 0 -27 -9 -33 -19 -6 -12
-26 -22 -50 -26 -22 -4 -42 -11 -45 -16 -3 -4 -27 -15 -53 -23 -26 -8 -85 -28
-132 -45 -47 -17 -94 -30 -105 -31 -11 0 -29 -6 -40 -14 -11 -7 -36 -16 -55
-20 -19 -4 -52 -10 -72 -13 -21 -3 -38 -9 -38 -14 0 -5 -9 -9 -20 -9 -11 0
-46 -7 -78 -15 -31 -8 -117 -26 -190 -40 -74 -14 -159 -26 -190 -27 -31 -1
-67 -5 -78 -9 -12 -4 -102 -11 -200 -15 -99 -5 -194 -7 -211 -7 -18 1 -41 2
-50 3 -10 0 -90 1 -178 0 -88 0 -198 5 -245 11 -47 6 -114 13 -150 15 -36 3
-85 11 -110 19 -25 7 -76 19 -115 25 -38 7 -82 17 -97 22 -15 6 -32 7 -38 3
-6 -4 -16 -2 -23 3 -7 5 -23 12 -37 15 -14 3 -44 10 -68 16 -24 6 -62 20 -85
30 -23 11 -69 27 -102 37 -33 9 -74 23 -92 30 -17 8 -45 17 -62 20 -17 4 -36
13 -42 20 -6 8 -17 14 -25 14 -7 0 -29 11 -48 23 -19 13 -52 38 -74 55 -22 18
-45 32 -51 32 -6 0 -23 10 -37 23 -15 12 -40 34 -58 49 -17 15 -35 28 -41 28
-5 0 -56 45 -111 99 -56 54 -128 133 -160 176 -33 43 -74 100 -92 126 -17 27
-32 55 -32 63 0 7 -11 30 -25 50 -14 20 -25 42 -25 48 0 6 -6 19 -14 27 -7 9
-26 45 -42 81 -15 36 -40 85 -54 110 -15 25 -39 72 -54 105 -16 33 -33 68 -37
77 -5 10 -9 26 -9 37 0 10 -11 39 -25 62 -14 24 -25 49 -25 56 0 6 -15 44 -33
85 -19 40 -48 111 -67 158 -18 47 -36 94 -40 105 -4 11 -16 47 -26 80 -10 33
-24 71 -31 85 -7 14 -13 37 -13 52 0 15 -9 53 -21 85 -11 32 -25 67 -30 78 -5
11 -16 53 -24 93 -8 40 -19 81 -24 90 -5 9 -12 42 -16 72 -4 30 -16 91 -26
135 -11 44 -23 96 -28 115 -5 19 -14 53 -20 76 -6 22 -14 74 -17 115 -3 41 -8
77 -11 82 -2 4 -7 49 -10 100 -2 50 -8 127 -12 169 -4 42 -6 202 -5 355 1 156
7 296 13 318 6 22 11 78 11 124 0 47 4 98 10 115 5 17 21 94 35 171 14 77 33
174 41 215 9 41 27 113 40 160 13 47 34 119 46 160 12 41 25 79 30 85 4 5 8
15 8 23 0 7 27 84 60 170 33 86 75 193 92 237 17 44 44 109 61 145 16 36 58
124 94 195 36 72 78 148 92 170 14 22 34 56 44 75 10 19 56 89 102 155 47 66
104 147 129 180 24 33 70 94 101 135 32 41 83 104 114 140 31 36 72 83 91 105
19 22 78 82 131 135 52 52 136 131 185 176 49 44 114 103 145 130 30 27 73 63
94 79 22 17 62 48 90 70 27 22 70 55 95 73 25 18 68 50 95 70 28 20 98 68 155
105 58 38 155 98 215 133 61 35 169 93 240 128 72 35 166 80 210 100 44 21 94
43 110 51 17 8 102 41 190 73 88 32 176 64 195 71 19 7 55 19 80 26 25 8 68
21 95 31 28 9 70 25 95 34 25 10 77 27 115 38 39 11 95 25 125 31 30 6 66 12
80 15 14 3 72 16 130 30 58 14 124 30 148 36 23 5 55 10 70 10 15 0 33 5 38
10 6 6 53 15 103 20 51 6 97 12 101 15 4 3 36 9 71 15 35 6 84 14 109 20 25 5
108 21 185 35 77 14 192 34 255 45 63 11 122 21 130 23 8 1 41 16 73 32 44 22
60 26 69 17 7 -7 22 -12 34 -12 13 0 26 5 29 11 4 5 21 9 38 7 25 -2 32 1 37
21 3 13 13 29 23 35 14 8 20 8 27 -4 5 -8 8 -21 5 -27 -2 -7 2 -13 10 -13 8 0
15 6 15 13 0 7 17 19 38 27 20 8 41 13 46 12 5 -2 16 0 25 4 9 4 27 8 41 9 14
1 77 12 140 24 63 13 131 27 150 31 19 5 82 19 140 30 58 12 117 23 131 25 15
1 39 9 54 16 16 8 33 22 39 31 6 9 7 20 3 24 -4 5 -22 10 -40 12 -18 2 -47 5
-65 6z"/>
</g>
<g>
<path d="M9398 9850 c-13 7 -22 4 -35 -13 -10 -12 -44 -43 -75 -67 -31 -25
-94 -78 -140 -118 -46 -41 -97 -86 -113 -100 -17 -15 -75 -69 -130 -121 -55
-52 -154 -138 -220 -191 -66 -54 -129 -107 -139 -119 -11 -11 -25 -21 -33 -21
-7 0 -45 30 -85 66 -40 37 -82 71 -95 77 -13 6 -23 13 -23 17 0 4 -32 29 -71
56 -39 27 -78 54 -87 59 -10 6 -51 30 -92 54 -41 23 -82 47 -90 52 -8 5 -51
26 -95 48 -44 21 -105 49 -135 61 -30 13 -98 38 -150 56 -53 18 -136 42 -185
53 -50 12 -128 30 -175 40 -47 11 -121 22 -165 25 -44 3 -112 13 -150 21 -39
8 -139 19 -224 25 -84 5 -309 12 -500 16 -281 4 -368 2 -466 -10 -66 -9 -163
-23 -215 -31 -52 -9 -218 -34 -369 -56 -151 -22 -282 -44 -292 -50 -10 -5 -33
-9 -52 -9 -19 0 -47 -4 -63 -9 -16 -5 -74 -19 -129 -31 -55 -12 -118 -28 -140
-35 -22 -7 -80 -29 -130 -48 -49 -19 -131 -55 -182 -81 -51 -26 -105 -58 -122
-71 -16 -14 -36 -25 -45 -25 -9 0 -49 -16 -89 -36 -39 -20 -77 -39 -83 -43 -6
-3 -31 -19 -55 -36 -24 -16 -71 -49 -104 -74 -33 -24 -76 -59 -95 -76 -19 -17
-73 -70 -120 -116 -73 -72 -92 -98 -136 -189 -29 -58 -59 -121 -67 -141 -9
-19 -30 -65 -46 -102 -17 -37 -39 -97 -50 -134 -11 -38 -27 -106 -36 -153 -9
-47 -21 -143 -27 -215 -6 -71 -10 -237 -10 -368 1 -202 4 -255 23 -350 12 -62
26 -121 32 -132 6 -11 12 -24 13 -30 1 -5 9 -32 17 -60 9 -27 28 -79 43 -115
15 -36 32 -69 39 -75 6 -5 19 -23 29 -38 9 -15 21 -25 25 -22 5 2 14 -9 21
-25 7 -17 47 -66 89 -110 42 -44 84 -80 94 -80 9 0 17 -4 17 -9 0 -5 -11 -23
-25 -39 -14 -17 -25 -33 -25 -36 0 -4 -16 -29 -35 -57 -19 -28 -51 -83 -70
-123 -19 -39 -37 -82 -40 -96 -2 -14 -14 -56 -25 -95 -12 -38 -33 -117 -47
-175 -25 -96 -27 -121 -26 -291 0 -115 7 -233 18 -310 9 -68 28 -165 41 -215
13 -49 40 -128 59 -175 19 -46 35 -90 35 -97 0 -8 19 -51 42 -95 23 -45 55
-102 72 -127 16 -25 64 -77 105 -116 42 -39 99 -89 126 -111 28 -22 63 -55 79
-72 17 -17 35 -31 41 -31 5 0 26 -10 45 -23 19 -13 55 -29 80 -37 25 -7 52
-19 60 -25 8 -6 53 -24 100 -39 47 -15 94 -32 105 -36 11 -5 36 -12 55 -16 19
-4 44 -8 55 -10 11 -2 51 -8 89 -15 38 -6 88 -8 110 -4 23 3 50 6 61 6 11 -1
43 4 70 10 28 6 82 20 120 31 39 12 74 25 79 30 6 4 19 8 29 8 10 0 67 25 125
56 59 31 139 78 179 105 40 27 88 56 105 64 18 8 47 26 65 39 18 13 51 39 75
57 24 19 79 70 123 114 49 49 98 111 126 160 26 44 57 100 68 125 12 25 36 97
52 160 17 63 35 131 39 150 5 19 14 73 21 120 6 47 20 112 30 146 15 47 19 91
18 190 0 79 -7 156 -16 199 -9 39 -24 80 -33 91 -9 12 -24 50 -34 85 -10 35
-24 78 -31 94 -7 17 -21 50 -30 75 -9 25 -29 65 -45 90 -15 25 -42 72 -60 105
-18 33 -44 80 -59 105 -14 25 -40 66 -57 90 -18 25 -77 89 -133 143 -58 56
-109 97 -120 97 -11 0 -22 4 -25 8 -3 5 -42 27 -88 50 -46 23 -119 52 -163 65
-44 13 -102 29 -130 35 -27 6 -84 14 -125 18 -41 4 -127 8 -190 8 -63 1 -149
-2 -190 -6 -41 -4 -95 -10 -120 -13 -25 -4 -79 -18 -120 -32 -41 -13 -102 -35
-135 -48 -33 -13 -84 -35 -112 -50 -29 -14 -58 -25 -63 -25 -6 0 -29 -9 -52
-21 -23 -12 -85 -65 -140 -119 -54 -53 -98 -94 -98 -91 0 3 -28 35 -62 71 -35
36 -86 94 -115 130 -29 36 -64 88 -77 115 -13 28 -37 91 -54 140 -16 50 -35
110 -41 135 -6 25 -16 72 -22 105 -6 33 -13 139 -16 235 -3 98 0 239 7 320 6
80 14 177 17 215 2 39 11 88 18 110 7 22 21 76 31 120 9 44 29 103 44 130 15
28 32 66 38 85 6 19 17 51 24 70 7 19 21 46 30 60 9 14 22 39 29 55 7 17 38
59 69 95 30 35 73 80 94 100 22 19 47 43 55 53 9 11 36 33 60 49 24 17 53 40
63 50 11 11 53 41 93 68 41 26 96 58 122 70 26 13 102 49 168 82 66 32 127 65
136 73 8 8 25 15 37 15 11 0 24 5 27 10 3 6 14 10 24 10 9 0 35 9 58 20 22 10
67 26 99 34 33 8 84 20 114 26 30 7 60 16 65 20 6 4 24 11 40 14 17 4 64 11
105 16 41 4 102 13 135 19 33 7 96 16 140 22 44 6 114 14 155 19 41 5 86 11
100 14 14 3 79 13 145 22 66 8 134 19 150 24 17 4 77 12 135 16 58 4 141 8
185 9 44 1 159 -2 255 -6 96 -4 249 -10 340 -13 91 -3 195 -11 233 -16 37 -5
86 -14 110 -19 23 -6 104 -17 179 -26 76 -8 161 -20 189 -25 29 -6 57 -14 63
-19 6 -4 56 -19 111 -31 55 -13 147 -43 205 -67 58 -24 123 -51 145 -60 22 -9
57 -27 79 -41 21 -13 57 -32 80 -43 22 -11 66 -35 96 -54 30 -18 60 -39 67
-44 7 -6 15 -11 18 -11 4 0 30 -20 58 -43 29 -24 77 -60 109 -81 31 -20 73
-57 93 -82 28 -34 36 -51 31 -69 -3 -14 -77 -96 -164 -183 -87 -88 -193 -185
-236 -216 -42 -32 -82 -68 -88 -81 -6 -13 -8 -31 -4 -40 3 -9 14 -19 24 -22
11 -3 43 -57 87 -146 38 -78 69 -144 70 -147 0 -3 6 -15 13 -27 7 -13 28 -62
46 -110 18 -49 48 -117 65 -153 17 -36 37 -69 44 -75 8 -5 16 -19 20 -30 3
-11 15 -47 27 -79 11 -33 26 -69 34 -81 7 -11 17 -35 20 -52 4 -18 16 -50 27
-72 10 -22 19 -46 19 -53 0 -7 7 -44 15 -83 9 -38 27 -108 40 -155 14 -47 33
-116 44 -155 11 -38 24 -92 30 -120 6 -27 16 -72 22 -100 5 -27 14 -198 18
-380 4 -181 7 -350 7 -374 -1 -40 2 -45 27 -54 22 -7 33 -6 44 6 9 9 15 35 16
68 0 30 -3 175 -7 324 -4 148 -14 317 -22 375 -8 58 -19 133 -24 168 -5 34
-17 76 -25 92 -8 16 -15 37 -15 47 0 10 -11 51 -24 93 -13 41 -32 109 -41 150
-10 41 -31 122 -47 180 -17 58 -38 119 -48 135 -10 17 -23 48 -30 70 -7 22
-34 83 -61 135 -26 52 -59 121 -73 153 -14 31 -23 57 -20 57 3 0 -2 12 -10 28
-8 15 -37 77 -65 138 -28 62 -55 124 -61 138 -8 22 -7 26 9 26 10 0 48 -28 84
-62 35 -35 84 -86 108 -114 24 -28 50 -59 57 -70 7 -10 18 -29 25 -40 7 -12
41 -56 77 -98 36 -43 82 -108 103 -144 21 -37 45 -74 52 -82 8 -9 28 -41 44
-72 17 -31 54 -94 83 -140 29 -46 59 -93 65 -103 7 -11 26 -45 43 -75 17 -30
38 -68 48 -85 10 -16 25 -41 34 -55 9 -14 22 -45 29 -70 7 -25 16 -50 21 -56
4 -6 24 -41 43 -78 19 -37 35 -73 35 -79 0 -7 31 -75 70 -152 38 -77 104 -221
146 -320 42 -99 98 -243 124 -320 27 -77 64 -214 83 -305 20 -91 42 -221 51
-290 8 -69 18 -206 22 -305 5 -157 3 -195 -15 -295 -12 -63 -26 -158 -31 -210
-6 -52 -17 -126 -25 -165 -8 -38 -23 -146 -35 -240 -12 -93 -26 -195 -31 -225
-6 -30 -24 -98 -39 -150 -16 -52 -37 -133 -45 -180 -9 -47 -27 -112 -40 -145
-12 -33 -28 -84 -34 -112 -6 -29 -31 -106 -56 -170 -25 -65 -57 -170 -71 -233
-14 -63 -50 -176 -79 -250 -29 -74 -66 -162 -82 -195 -16 -33 -42 -85 -57
-117 -14 -31 -32 -58 -40 -61 -7 -3 -35 -1 -62 4 -27 5 -78 19 -114 30 -36 12
-96 33 -135 46 -38 14 -91 34 -116 45 -25 11 -59 18 -75 16 -25 -2 -29 -8 -32
-35 -3 -28 1 -34 37 -52 22 -12 51 -21 65 -21 14 0 27 -4 30 -9 3 -4 19 -11
35 -14 16 -4 53 -18 82 -32 29 -14 67 -25 85 -25 17 0 37 -7 44 -15 7 -8 18
-14 24 -13 6 1 48 -4 92 -11 62 -10 87 -10 103 -2 11 7 21 16 21 21 0 6 16 45
36 88 19 42 48 104 64 137 15 33 49 121 74 195 25 74 52 162 60 196 9 33 17
69 19 80 1 10 5 24 8 29 4 6 9 24 13 40 4 17 28 77 52 133 24 57 44 111 44
121 0 9 14 54 30 101 17 47 33 105 36 130 2 25 12 70 21 100 8 30 24 80 34
110 10 30 25 80 34 110 9 30 20 102 26 160 5 58 21 170 35 250 13 80 26 151
29 158 2 7 9 52 15 100 5 48 22 161 36 251 l27 164 -17 261 c-10 144 -24 295
-32 336 -7 41 -19 102 -24 135 -6 33 -22 98 -36 145 -13 47 -30 103 -37 125
-6 22 -12 42 -13 45 0 3 -4 19 -9 35 -4 17 -24 68 -43 115 -18 47 -39 101 -44
120 -6 19 -21 59 -34 89 -14 29 -22 56 -19 59 3 3 36 -2 73 -11 37 -9 114 -23
172 -31 58 -9 123 -18 145 -20 22 -3 94 -16 160 -29 66 -13 145 -32 175 -41
30 -9 86 -21 124 -27 38 -5 90 -17 115 -25 25 -9 65 -16 89 -15 35 0 44 -4 51
-22 5 -12 12 -101 15 -197 4 -96 11 -213 17 -260 5 -47 12 -283 15 -525 5
-367 3 -467 -11 -605 -9 -91 -20 -228 -25 -305 -5 -77 -17 -185 -25 -240 -9
-55 -20 -148 -25 -208 -6 -59 -26 -182 -46 -275 -20 -92 -47 -221 -60 -287
-12 -66 -28 -140 -34 -165 -6 -25 -17 -88 -25 -140 -8 -52 -19 -129 -25 -170
-6 -41 -20 -102 -30 -135 -10 -33 -23 -80 -29 -105 -7 -25 -19 -72 -27 -105
-9 -33 -20 -85 -25 -115 -5 -30 -15 -86 -23 -125 -8 -38 -22 -92 -31 -120 -10
-27 -30 -84 -45 -125 -16 -41 -36 -97 -46 -125 -10 -27 -23 -57 -29 -65 -6 -8
-25 -37 -42 -65 -16 -27 -33 -63 -37 -80 -4 -16 -25 -70 -47 -120 -22 -49 -46
-101 -54 -115 -12 -22 -24 -27 -97 -37 -46 -6 -118 -21 -161 -32 -43 -12 -102
-32 -130 -45 -29 -12 -81 -28 -117 -35 -36 -7 -87 -17 -113 -22 -26 -5 -63 -9
-82 -9 -25 0 -39 -6 -50 -24 -8 -13 -13 -31 -9 -40 3 -9 16 -19 29 -22 12 -3
46 1 76 10 30 8 86 18 124 22 49 5 97 19 160 46 50 22 108 44 130 48 22 4 73
13 114 20 41 7 91 9 111 6 22 -3 42 -1 52 7 8 6 27 34 42 61 14 27 26 54 26
61 0 7 18 51 40 98 22 47 40 91 40 99 0 8 18 40 40 72 22 31 40 60 40 64 1 4
9 25 20 47 11 22 19 47 20 55 0 9 14 51 30 95 17 44 37 94 45 111 8 16 17 50
20 75 4 24 11 55 15 69 5 14 12 53 15 88 3 34 12 91 21 125 9 34 19 80 24 102
4 22 18 69 29 105 12 36 25 92 31 125 5 33 20 127 34 210 14 82 37 202 50 265
13 63 32 156 41 205 9 50 25 128 36 175 11 47 24 130 29 185 4 55 18 160 29
233 12 74 26 209 31 300 6 92 16 208 22 257 6 50 12 295 14 545 2 250 -1 511
-7 580 -5 69 -14 208 -19 310 -6 102 -17 213 -25 248 -8 35 -15 78 -15 97 0
19 -7 64 -16 102 -9 37 -20 88 -24 113 -5 25 -13 63 -19 85 -5 22 -21 81 -35
130 -14 50 -36 126 -49 170 -13 44 -34 105 -47 135 -12 30 -36 98 -52 150 -16
52 -34 113 -39 135 -5 22 -11 51 -13 65 -3 14 -13 52 -24 85 -11 33 -30 94
-42 135 -12 41 -30 98 -40 125 -10 28 -30 84 -45 125 -15 41 -39 104 -52 140
-14 36 -30 81 -35 100 -5 19 -13 44 -18 55 -5 11 -20 52 -33 90 -13 39 -33 93
-44 120 -11 28 -37 93 -57 145 -21 52 -45 118 -53 145 -9 28 -20 61 -25 75 -6
14 -16 39 -24 55 -8 17 -25 68 -38 115 -14 47 -39 113 -55 148 -17 34 -31 69
-31 77 0 8 -7 33 -16 55 -9 23 -15 43 -12 45 2 2 27 -26 55 -63 28 -37 65 -82
82 -101 17 -19 38 -45 48 -58 10 -14 32 -43 48 -66 17 -23 41 -55 53 -72 12
-16 45 -61 72 -100 28 -38 65 -89 83 -111 17 -23 57 -76 87 -119 30 -43 76
-105 102 -139 26 -33 75 -108 110 -166 34 -58 72 -123 84 -145 12 -22 50 -96
84 -165 33 -69 67 -136 74 -150 8 -14 26 -56 41 -95 14 -38 37 -92 50 -120 13
-27 31 -75 40 -105 10 -30 22 -59 26 -64 5 -6 9 -18 9 -28 0 -10 9 -37 20 -61
11 -23 34 -83 51 -132 17 -50 40 -117 51 -150 11 -33 31 -88 44 -122 13 -34
24 -69 24 -78 0 -9 4 -25 10 -35 5 -10 26 -78 45 -152 20 -73 41 -155 46 -183
6 -27 15 -55 20 -61 5 -7 15 -45 22 -85 11 -65 15 -74 35 -77 13 -2 34 4 48
12 13 9 24 25 24 36 0 10 -4 21 -9 24 -5 3 -12 27 -15 53 -4 27 -13 64 -20 83
-7 19 -19 55 -25 80 -7 25 -28 103 -47 174 -18 71 -38 134 -42 140 -5 6 -14
31 -21 56 -7 25 -21 60 -32 78 -10 18 -19 41 -19 51 0 10 -23 81 -51 157 -27
77 -65 177 -83 224 -18 47 -39 105 -47 129 -7 24 -20 53 -29 65 -8 11 -22 39
-29 61 -7 22 -24 65 -38 95 -13 30 -48 105 -78 165 -30 61 -55 115 -55 121 0
6 -13 31 -30 55 -16 24 -30 49 -30 56 0 6 -22 48 -50 92 -27 44 -50 84 -50 87
0 4 -11 22 -25 40 -14 18 -25 36 -25 40 0 3 -15 24 -32 45 -18 22 -48 56 -65
78 -18 21 -33 43 -33 48 0 6 -15 26 -32 45 -18 20 -49 57 -68 82 -19 25 -37
52 -39 59 -2 6 -9 17 -16 22 -6 6 -40 53 -75 105 -35 52 -99 138 -142 190 -44
52 -106 127 -138 167 -33 39 -60 75 -60 79 0 4 -25 35 -55 69 -30 35 -55 67
-55 73 0 5 -7 16 -16 23 -9 8 -27 31 -40 51 -13 21 -24 45 -24 53 0 9 -8 18
-17 21 -10 3 -26 10 -35 14z m-21 -130 c1 0 29 -55 61 -123 33 -67 72 -158 87
-202 15 -44 31 -88 37 -98 5 -11 27 -74 49 -140 21 -67 46 -134 54 -149 8 -14
15 -32 15 -40 0 -8 30 -93 66 -189 36 -96 81 -214 99 -264 17 -49 35 -97 38
-105 3 -8 18 -51 33 -95 14 -44 32 -91 40 -105 7 -14 24 -61 38 -105 14 -44
34 -102 45 -130 11 -27 30 -84 41 -125 12 -41 32 -109 44 -150 13 -41 33 -113
46 -160 13 -47 33 -121 46 -166 12 -45 33 -108 47 -140 13 -32 29 -79 36 -104
8 -25 17 -54 21 -65 5 -11 15 -47 24 -80 8 -33 24 -91 36 -130 12 -38 26 -86
31 -105 5 -19 18 -84 29 -145 11 -60 20 -118 20 -129 0 -13 -4 -16 -17 -11
-10 4 -65 16 -123 26 -58 10 -143 27 -190 38 -47 11 -98 21 -114 21 -16 0 -87
14 -159 31 -74 17 -144 28 -159 25 -16 -3 -74 4 -130 15 -56 11 -107 23 -113
27 -5 4 -39 16 -74 27 l-64 20 -31 70 c-17 39 -42 88 -55 110 -14 22 -27 42
-31 45 -3 3 -14 30 -24 60 -11 30 -29 71 -41 90 -12 19 -39 76 -60 125 -21 50
-48 106 -61 126 -12 20 -38 70 -58 112 -20 42 -48 90 -63 108 -15 17 -37 50
-50 73 -13 22 -33 60 -44 83 -11 23 -24 45 -29 48 -5 3 -24 31 -42 61 -18 31
-41 68 -50 83 -10 14 -21 34 -25 43 -5 9 -25 36 -45 60 -20 24 -66 83 -102
131 -36 49 -66 91 -66 93 0 3 -12 16 -27 31 -16 14 -39 35 -54 47 -14 12 -28
29 -31 37 -4 9 -42 47 -86 85 -44 38 -92 77 -106 87 -14 10 -26 24 -26 31 0 8
24 31 53 53 28 22 105 94 169 159 64 65 135 137 156 159 22 22 48 53 58 70 11
16 59 68 107 115 49 47 94 87 101 90 7 3 48 37 91 75 42 39 127 115 188 170
62 55 120 107 130 115 10 8 50 45 88 82 38 37 82 74 97 82 15 9 28 15 29 16z
m-4767 -2694 c19 -3 87 -10 150 -16 63 -6 122 -14 130 -17 8 -3 33 -9 55 -13
22 -5 73 -20 113 -35 40 -14 88 -35 105 -45 18 -10 56 -31 86 -46 32 -17 89
-65 145 -121 50 -52 106 -119 124 -151 19 -31 41 -64 49 -73 8 -9 31 -50 52
-90 21 -41 47 -92 58 -114 11 -22 29 -60 41 -85 12 -25 28 -70 36 -100 8 -30
23 -80 34 -110 16 -44 21 -91 26 -231 5 -138 3 -183 -7 -209 -8 -18 -12 -50
-10 -74 3 -23 -4 -91 -16 -151 -12 -61 -33 -148 -47 -195 -14 -47 -31 -99 -37
-115 -7 -17 -32 -68 -57 -114 -34 -63 -70 -109 -145 -186 -55 -56 -109 -105
-121 -109 -11 -3 -29 -14 -40 -24 -11 -9 -29 -22 -40 -29 -10 -7 -57 -36 -104
-64 -47 -28 -92 -57 -100 -64 -8 -7 -55 -34 -104 -59 -49 -25 -97 -46 -107
-46 -10 0 -20 -4 -23 -9 -3 -5 -22 -12 -42 -16 -20 -3 -50 -12 -68 -20 -17 -7
-66 -21 -108 -30 -64 -14 -92 -15 -165 -7 -48 6 -117 17 -153 26 -36 8 -83 20
-105 26 -22 7 -64 23 -93 36 -29 13 -56 24 -60 24 -4 0 -36 15 -72 34 -36 18
-83 44 -106 57 -22 13 -95 74 -161 134 -66 61 -138 137 -160 170 -22 33 -50
83 -63 110 -12 28 -33 82 -46 120 -14 39 -34 97 -44 130 -10 33 -28 92 -39
130 -11 39 -27 111 -35 160 -9 50 -18 146 -21 215 -4 69 -2 179 4 246 6 66 17
143 25 170 8 27 24 87 36 134 12 47 36 114 52 150 16 36 46 92 66 125 20 33
40 65 44 70 4 6 28 34 53 64 25 30 45 58 45 62 0 4 47 50 106 102 70 63 122
101 157 115 29 12 102 42 162 67 61 25 142 52 181 60 40 8 127 17 195 21 68 3
126 8 129 11 3 3 21 2 40 -1z"/>
<g>
<path d="M5325 6710 c-23 0 -44 -2 -47 -5 -2 -3 -74 -10 -159 -16 -85 -5 -188
-13 -229 -15 -41 -3 -115 -7 -165 -10 -49 -2 -93 -4 -96 -4 -3 0 -13 -15 -21
-34 -12 -25 -14 -36 -5 -45 6 -6 37 -11 70 -11 32 0 67 5 78 10 10 6 59 12
107 14 48 2 134 7 192 11 58 4 110 11 115 16 6 4 17 4 25 -1 8 -5 17 -7 20 -5
4 2 26 5 51 5 24 1 61 4 82 7 23 3 41 12 48 25 8 15 7 24 -7 39 -12 13 -30 19
-59 19z"/>
</g>
<g>
<path d="M5108 6390 c-93 0 -98 -1 -114 -25 -8 -13 -13 -29 -9 -35 3 -6 10 -8
15 -5 5 3 10 -5 12 -17 3 -22 7 -23 75 -19 59 2 74 0 79 -12 3 -9 0 -85 -6
-169 -6 -84 -15 -180 -20 -213 -5 -33 -14 -88 -20 -123 -7 -42 -7 -69 -1 -81
6 -10 19 -21 30 -24 10 -2 24 -1 31 3 7 5 17 60 25 141 8 73 18 160 24 193 6
34 17 102 26 151 8 50 15 109 15 132 0 23 -5 53 -11 67 -6 13 -21 27 -33 30
-11 3 -65 6 -118 6z"/>
</g>
<g>
<path d="M5616 5630 c-14 0 -35 -9 -46 -20 -11 -11 -20 -26 -20 -34 0 -8 5
-27 10 -42 6 -15 18 -33 28 -40 9 -8 35 -14 56 -14 25 0 43 6 52 18 7 9 14 34
14 54 0 31 -5 40 -34 57 -18 12 -45 21 -60 21z"/>
</g>
<g>
<path d="M4617 5540 c-27 0 -41 -7 -56 -26 -12 -15 -21 -37 -21 -49 0 -12 9
-33 21 -46 16 -18 30 -23 61 -23 28 1 46 8 55 20 7 10 13 34 13 54 0 23 -7 43
-18 53 -10 10 -35 17 -55 17z"/>
</g>
</g>
</g>
</svg>
