<?xml version="1.0" standalone="no"?>
<!DOCTYPE svg PUBLIC "-//W3C//DTD SVG 20010904//EN"
 "http://www.w3.org/TR/2001/REC-SVG-20010904/DTD/svg10.dtd">
<svg version="1.0" xmlns="http://www.w3.org/2000/svg"
 width="900.000000pt" height="1200.000000pt" viewBox="0 0 900.000000 1200.000000"
 preserveAspectRatio="xMidYMid meet">
<metadata>
Created by potrace 1.16, written by Peter Selinger 2001-2019
</metadata>
<g transform="translate(0.000000,1200.000000) scale(0.100000,-0.100000)"
fill="#000000" stroke="none">
<g>
<path d="M4990 11594 c-36 1 -101 -4 -145 -11 -44 -8 -111 -23 -150 -34 -38
-12 -95 -29 -125 -39 -30 -10 -75 -26 -100 -35 -25 -10 -126 -58 -225 -107
-99 -50 -198 -100 -220 -112 -22 -12 -92 -56 -156 -98 -63 -41 -127 -86 -141
-100 -14 -13 -41 -35 -60 -48 -18 -13 -90 -81 -160 -150 -70 -69 -158 -163
-195 -209 -38 -46 -80 -100 -95 -120 -15 -20 -56 -79 -91 -131 -35 -52 -97
-153 -137 -225 -40 -71 -76 -135 -81 -141 -6 -7 -34 -62 -65 -124 -30 -61 -69
-146 -86 -188 -17 -43 -37 -99 -45 -127 -8 -27 -21 -75 -29 -105 -8 -30 -20
-77 -26 -105 -5 -27 -12 -68 -14 -90 -2 -22 -9 -62 -15 -90 -5 -27 -18 -120
-28 -205 -10 -85 -19 -202 -20 -260 -1 -58 3 -148 9 -200 6 -52 22 -149 36
-215 15 -66 47 -178 71 -250 25 -71 64 -173 86 -225 22 -52 48 -106 57 -120
10 -14 21 -36 25 -49 4 -14 33 -68 65 -121 32 -53 85 -134 119 -181 34 -46 80
-106 102 -134 23 -27 72 -84 109 -125 37 -41 112 -118 166 -171 55 -53 131
-123 169 -154 39 -32 71 -59 73 -60 1 -1 -14 -27 -35 -57 -21 -30 -113 -153
-204 -274 -91 -120 -196 -259 -233 -309 -38 -49 -112 -142 -164 -205 -53 -63
-143 -169 -201 -235 -57 -66 -135 -151 -171 -190 -37 -38 -89 -95 -116 -125
-27 -30 -99 -106 -161 -169 -62 -63 -110 -117 -108 -120 3 -2 22 1 44 8 31 9
63 37 158 143 65 73 142 157 171 186 28 29 52 56 52 59 0 4 24 29 53 57 29 28
76 78 104 111 29 33 87 103 130 156 43 53 118 148 168 210 49 63 171 222 270
354 99 132 200 268 225 303 25 34 48 62 53 62 4 0 54 -31 111 -70 57 -38 157
-99 222 -136 66 -37 236 -126 379 -198 143 -73 313 -156 378 -186 l117 -54
-35 -36 c-19 -20 -35 -41 -35 -47 0 -7 -21 -34 -47 -60 -27 -26 -86 -92 -132
-145 -46 -53 -93 -110 -103 -127 -11 -17 -24 -31 -28 -31 -5 0 -71 -77 -147
-170 -76 -94 -151 -188 -168 -210 -16 -22 -73 -92 -125 -157 -53 -65 -113
-143 -135 -173 -22 -30 -62 -84 -91 -120 -28 -36 -69 -90 -90 -120 -21 -30
-83 -122 -137 -205 -55 -82 -108 -165 -119 -185 -11 -19 -51 -87 -89 -150 -39
-63 -95 -167 -126 -230 -31 -63 -66 -137 -79 -165 -12 -27 -39 -85 -58 -127
-19 -42 -41 -96 -49 -120 -9 -24 -21 -56 -27 -73 -7 -16 -16 -39 -21 -50 -5
-11 -18 -47 -30 -80 -12 -33 -36 -103 -55 -155 -18 -52 -59 -189 -90 -305 -31
-115 -63 -244 -70 -285 -8 -41 -28 -154 -45 -250 -26 -145 -31 -201 -31 -330
0 -85 4 -191 10 -235 5 -44 29 -136 52 -204 23 -69 73 -188 112 -265 38 -78
87 -166 107 -196 21 -30 46 -57 56 -59 11 -2 28 -15 39 -29 11 -14 34 -40 51
-57 16 -18 72 -69 123 -114 50 -45 92 -88 92 -96 0 -7 12 -23 26 -34 15 -12
35 -21 45 -21 9 0 19 5 21 11 2 7 32 -3 78 -26 41 -20 82 -46 92 -58 15 -19
19 -20 41 -8 15 8 34 10 44 6 10 -4 44 -8 75 -10 37 -2 64 2 75 11 10 7 28 14
39 14 12 0 24 6 27 13 3 8 34 27 69 44 34 17 77 42 93 57 17 14 33 26 37 26 4
0 24 16 45 36 21 20 80 70 130 110 51 41 95 74 98 74 4 0 23 16 43 35 20 19
41 35 46 35 5 0 34 26 65 58 31 33 74 72 96 88 23 16 79 70 125 119 46 50 96
99 111 110 14 11 62 56 106 100 44 44 107 114 140 155 33 41 83 96 110 122 27
25 70 77 95 115 25 37 68 102 95 143 27 42 93 163 146 270 53 107 106 220 118
250 11 30 39 100 61 155 22 55 46 120 53 145 8 25 32 106 54 180 23 74 49 160
57 190 9 30 20 69 25 85 5 17 22 75 38 130 16 55 44 156 61 225 18 69 38 154
46 190 7 36 18 103 24 150 6 47 16 126 22 175 5 50 7 141 4 206 -4 63 -17 181
-31 261 -13 80 -33 181 -44 225 -12 44 -37 126 -56 181 -19 56 -60 155 -91
219 -30 65 -74 147 -97 183 -23 36 -57 85 -76 110 -19 25 -74 84 -122 132 -48
47 -130 120 -183 162 -53 42 -133 102 -178 132 -46 31 -122 76 -170 100 -49
24 -88 48 -88 52 0 4 66 85 146 181 80 96 180 216 224 265 43 50 122 142 177
205 54 63 137 160 185 215 48 56 119 137 158 181 38 44 100 115 137 157 38 42
97 110 132 150 35 40 107 120 161 178 53 58 112 122 130 143 18 21 30 40 27
44 -3 3 -35 -23 -69 -58 -35 -35 -99 -104 -143 -153 -44 -50 -105 -117 -135
-150 -31 -34 -76 -86 -102 -116 -25 -30 -58 -70 -74 -88 -16 -18 -55 -61 -88
-95 -32 -34 -84 -93 -114 -132 -31 -38 -83 -100 -117 -136 -33 -36 -76 -84
-95 -107 -19 -22 -55 -66 -80 -98 -25 -32 -54 -67 -66 -78 -11 -12 -40 -39
-65 -61 -24 -22 -57 -56 -74 -75 -16 -19 -34 -42 -40 -51 -5 -9 -37 -47 -70
-85 -33 -37 -92 -101 -130 -141 l-70 -74 -100 46 c-55 26 -152 72 -215 103
-63 30 -209 104 -325 165 -115 60 -257 137 -315 170 -58 34 -138 85 -178 114
l-73 54 56 77 c30 42 84 120 119 172 36 52 90 131 121 175 31 44 73 104 93
133 20 30 44 64 52 77 8 13 45 68 81 122 37 54 100 150 141 213 41 63 99 154
129 203 30 48 59 95 64 105 6 10 45 76 89 147 43 72 91 152 107 178 16 27 29
51 29 54 0 3 15 31 34 62 19 31 87 153 151 271 65 118 138 253 163 300 24 47
86 168 137 270 52 102 108 217 125 255 18 39 52 121 77 184 24 63 59 162 78
220 18 58 43 138 54 176 11 39 31 126 45 195 14 69 32 186 41 260 8 74 17 178
21 230 4 58 2 126 -6 175 -7 44 -21 104 -32 134 -11 29 -33 72 -48 95 -16 22
-46 57 -67 77 -21 20 -63 52 -93 71 -30 20 -89 52 -130 71 -41 20 -111 45
-155 56 -44 11 -105 22 -135 26 -30 3 -84 7 -120 9z m-30 -108 c161 -2 168 -3
275 -39 61 -21 119 -43 130 -49 11 -6 29 -16 40 -23 11 -6 40 -23 65 -39 25
-16 67 -49 93 -75 27 -25 60 -68 75 -96 14 -27 32 -66 39 -85 7 -19 18 -69 24
-110 7 -46 9 -121 5 -195 -4 -66 -11 -156 -17 -200 -6 -44 -17 -116 -25 -160
-9 -44 -22 -111 -30 -150 -8 -38 -24 -106 -35 -150 -11 -44 -34 -120 -51 -170
-16 -49 -44 -126 -60 -170 -17 -44 -34 -89 -38 -100 -5 -11 -72 -148 -150
-305 -78 -157 -158 -314 -177 -350 -19 -36 -61 -112 -92 -169 -31 -57 -73
-134 -94 -170 -20 -36 -40 -73 -44 -81 -3 -8 -30 -56 -58 -106 -29 -50 -85
-144 -124 -210 -39 -65 -76 -126 -81 -134 -5 -8 -38 -62 -72 -118 -35 -57 -70
-115 -78 -128 -8 -13 -77 -115 -152 -226 -75 -112 -162 -239 -193 -283 -30
-44 -70 -102 -89 -130 -18 -27 -78 -115 -134 -195 -56 -80 -118 -168 -139
-197 l-37 -52 -50 42 c-28 23 -101 88 -163 144 -61 57 -156 154 -211 216 -55
61 -124 144 -154 182 -30 39 -74 99 -98 135 -25 36 -52 79 -61 95 -8 17 -35
66 -58 110 -24 44 -46 85 -50 90 -4 6 -14 28 -23 50 -9 22 -28 69 -42 105 -14
36 -41 110 -60 165 -19 55 -41 124 -50 154 -9 30 -23 93 -32 140 -9 47 -19
103 -24 124 -4 21 -9 102 -9 180 -1 78 5 198 13 267 8 69 22 175 31 235 8 61
20 128 25 150 5 22 19 83 30 135 12 52 39 138 60 190 21 52 55 131 76 174 20
44 51 105 69 135 18 31 45 79 60 106 16 28 35 64 43 80 8 17 47 77 86 135 39
58 114 157 167 220 53 63 139 156 190 206 52 50 112 107 134 126 22 19 69 57
105 84 36 28 77 57 90 64 14 7 48 30 75 51 28 20 95 60 150 89 54 28 104 55
110 59 5 4 39 20 74 34 35 15 86 43 115 61 28 19 71 42 96 52 25 10 113 33
195 51 140 30 161 32 315 29z m1 -5456 c8 0 19 -4 25 -9 5 -4 47 -28 94 -52
47 -23 130 -74 185 -113 55 -38 152 -113 215 -167 63 -53 142 -127 175 -165
33 -38 72 -85 86 -104 14 -19 43 -66 64 -105 22 -38 53 -99 70 -135 18 -36 52
-117 77 -180 25 -63 51 -141 58 -172 7 -32 17 -58 22 -58 5 0 7 -4 4 -9 -3 -5
3 -49 13 -97 11 -49 25 -124 31 -167 6 -43 14 -106 16 -140 3 -34 6 -88 8
-120 2 -32 0 -93 -5 -135 -5 -43 -16 -129 -25 -192 -9 -63 -40 -212 -69 -330
-29 -118 -59 -231 -67 -250 -8 -20 -18 -57 -22 -82 -4 -26 -11 -50 -17 -53 -5
-4 -9 -16 -9 -28 0 -12 -7 -41 -15 -64 -8 -22 -16 -52 -19 -65 -2 -12 -31
-104 -64 -203 -33 -99 -90 -248 -126 -330 -37 -83 -100 -208 -142 -280 -41
-71 -98 -166 -127 -210 -29 -44 -65 -99 -82 -121 -16 -22 -52 -66 -80 -98 -27
-32 -86 -99 -129 -150 -44 -50 -141 -153 -215 -229 -75 -76 -183 -180 -241
-232 -58 -51 -124 -108 -147 -126 -23 -19 -99 -83 -170 -143 -70 -60 -165
-133 -209 -162 -45 -29 -114 -69 -154 -88 -40 -19 -93 -38 -117 -42 -24 -3
-72 -1 -106 6 -35 6 -117 38 -187 71 -88 43 -150 81 -215 134 -49 40 -120 102
-156 137 -36 35 -76 83 -89 108 -13 25 -40 71 -62 103 -22 32 -57 97 -79 145
-22 48 -49 105 -60 127 -10 22 -23 54 -28 70 -5 17 -21 70 -36 119 -14 49 -30
124 -36 165 -5 42 -10 130 -10 196 0 67 7 164 16 220 9 55 20 123 25 150 4 28
15 86 24 130 10 44 26 116 37 160 11 44 29 112 40 150 11 39 27 95 36 125 8
30 31 102 50 160 19 58 39 109 44 115 5 5 9 16 9 24 0 9 10 40 22 71 12 30 55
134 96 230 40 96 93 213 116 260 23 47 55 108 71 135 15 28 55 95 88 150 33
55 76 125 95 155 19 30 69 106 111 168 42 62 92 136 111 163 19 27 48 68 65
92 16 23 55 74 85 114 30 40 71 94 90 120 19 26 45 59 58 73 12 14 45 54 72
90 28 36 62 80 77 99 16 19 42 51 59 70 17 20 66 81 110 135 43 55 99 124 124
154 25 30 65 80 88 111 24 31 110 134 190 228 81 95 154 173 163 173z"/>
<g>
<path d="M5403 10290 c-12 0 -31 -9 -44 -19 -20 -16 -22 -23 -14 -47 8 -21 18
-30 39 -32 16 -2 36 4 47 14 10 9 19 24 19 33 0 9 -7 24 -14 34 -7 9 -22 17
-33 17z"/>
</g>
<g>
<path d="M4773 9440 c-8 0 -17 -8 -20 -17 -4 -9 10 -116 30 -237 21 -122 37
-231 37 -243 0 -13 -8 -24 -20 -28 -11 -3 -23 -4 -28 -1 -4 2 -17 -3 -30 -12
-15 -12 -20 -23 -16 -39 4 -13 11 -23 18 -23 6 1 40 9 76 19 64 18 65 19 64
52 0 19 -6 70 -12 114 -7 44 -16 100 -21 125 -5 25 -16 81 -25 125 -9 44 -16
94 -16 111 0 16 -5 35 -12 42 -7 7 -18 12 -25 12z"/>
</g>
<g>
<path d="M3893 9198 c-17 2 -35 -3 -42 -12 -7 -8 -11 -25 -9 -38 2 -13 15 -28
30 -35 14 -7 33 -10 42 -7 9 3 19 18 23 32 3 14 1 32 -4 41 -6 9 -23 17 -40
19z"/>
</g>
<g>
<path d="M4830 8632 c-8 8 -24 13 -35 11 -12 -2 -43 -21 -70 -43 -28 -21 -79
-60 -115 -85 -36 -26 -90 -65 -122 -88 -31 -23 -88 -67 -127 -97 -39 -30 -71
-62 -71 -71 0 -9 6 -22 14 -28 11 -9 30 1 92 48 44 33 113 87 154 120 41 34
100 78 130 100 31 21 62 46 69 55 7 9 19 16 25 16 6 0 25 11 41 24 26 22 28
26 15 38z"/>
</g>
<g>
<path d="M4490 4568 c-14 2 -30 -1 -35 -6 -6 -6 -84 -47 -175 -92 -91 -45
-187 -93 -215 -107 -27 -14 -66 -37 -85 -52 -19 -14 -62 -38 -95 -53 -33 -15
-90 -39 -126 -53 -36 -14 -70 -25 -76 -25 -6 0 -16 -7 -23 -16 -11 -12 -10
-18 3 -31 14 -14 21 -13 81 11 37 14 71 26 77 26 7 0 39 14 72 31 33 16 85 47
116 68 31 20 85 50 121 66 36 15 138 64 228 108 140 69 163 83 160 101 -2 14
-11 22 -28 24z"/>
</g>
<g>
<path d="M3905 3989 c-5 -1 -46 -9 -90 -18 l-80 -17 3 -59 c2 -33 7 -82 13
-110 6 -27 15 -70 20 -95 6 -25 13 -65 15 -90 3 -25 10 -72 15 -105 6 -33 9
-106 8 -162 -3 -68 0 -106 8 -114 6 -6 16 -8 22 -5 7 5 11 52 11 129 0 66 -5
159 -10 206 -6 48 -17 122 -25 166 -8 44 -17 105 -21 136 l-6 55 70 14 c57 10
71 17 76 34 3 11 0 24 -7 28 -7 4 -16 7 -22 7z"/>
</g>
<g>
<path d="M4722 3360 c-9 0 -25 -5 -34 -11 -10 -5 -18 -20 -18 -33 0 -13 9 -31
20 -41 13 -11 27 -15 44 -11 14 3 28 15 31 27 4 12 0 30 -9 44 -9 14 -24 25
-34 25z"/>
</g>
<g>
<path d="M3200 2780 c-9 0 -25 -9 -34 -19 -10 -11 -16 -30 -14 -43 2 -18 10
-24 35 -26 25 -3 35 2 49 23 16 24 16 27 -1 45 -10 11 -26 20 -35 20z"/>
</g>
</g>
<g>
<path d="M7618 9055 c-2 3 -14 -5 -26 -18 -12 -13 -22 -26 -22 -30 0 -4 4 -7
10 -7 5 0 17 11 26 25 9 14 15 28 12 30z"/>
</g>
<g>
<path d="M7377 8787 c-4 3 -28 -16 -54 -43 -27 -28 -57 -60 -68 -73 -15 -17
-16 -22 -5 -20 8 2 42 32 74 67 33 34 56 65 53 69z"/>
</g>
<g>
<path d="M7122 8520 c-5 0 -28 -21 -50 -46 -23 -25 -42 -47 -42 -50 0 -2 5 -4
10 -4 6 0 27 19 48 41 20 23 39 45 40 50 2 5 -1 9 -6 9z"/>
</g>
<g>
<path d="M6990 8370 c-7 0 -38 -26 -69 -58 -31 -32 -93 -98 -138 -146 -46 -49
-83 -93 -83 -97 0 -5 4 -9 9 -9 5 0 47 41 93 92 45 50 90 99 98 108 8 10 35
38 60 64 24 25 38 46 30 46z"/>
</g>
<g>
<path d="M6672 8034 c-5 3 -40 -28 -78 -69 -38 -41 -70 -79 -72 -85 -2 -5 1
-10 7 -10 6 0 30 21 53 47 24 26 50 54 58 63 8 9 21 23 28 32 7 9 9 19 4 22z"/>
</g>
</g>
</svg>
