<?xml version="1.0" standalone="no"?>
<!DOCTYPE svg PUBLIC "-//W3C//DTD SVG 20010904//EN"
 "http://www.w3.org/TR/2001/REC-SVG-20010904/DTD/svg10.dtd">
<svg version="1.0" xmlns="http://www.w3.org/2000/svg"
 width="900.000000pt" height="1200.000000pt" viewBox="0 0 900.000000 1200.000000"
 preserveAspectRatio="xMidYMid meet">
<metadata>
Created by potrace 1.16, written by Peter Selinger 2001-2019
</metadata>
<g transform="translate(0.000000,1200.000000) scale(0.100000,-0.100000)"
fill="#000000" stroke="none">
<g>
<path d="M5583 11597 c-4 1 -51 -13 -103 -31 -52 -18 -124 -45 -160 -60 -36
-15 -84 -36 -107 -47 -24 -10 -45 -19 -48 -19 -3 0 -83 -39 -178 -87 -95 -47
-188 -94 -207 -103 -19 -10 -109 -32 -200 -49 -91 -18 -183 -36 -205 -41 -22
-5 -119 -26 -215 -46 -96 -20 -231 -49 -300 -64 -69 -16 -186 -44 -260 -63
-74 -20 -180 -50 -235 -67 -55 -17 -122 -38 -150 -46 -27 -9 -100 -27 -162
-42 -62 -14 -115 -32 -117 -39 -4 -9 5 -13 32 -13 20 0 78 12 127 26 50 14
110 32 135 40 25 7 77 23 115 35 39 11 99 29 135 39 36 11 97 28 135 39 39 11
81 22 95 25 14 3 57 12 95 21 39 8 90 20 115 25 25 5 88 19 140 30 52 11 138
30 190 41 52 11 151 31 220 44 69 14 138 27 154 30 16 3 28 3 25 1 -2 -2 -67
-36 -144 -76 -77 -40 -144 -76 -150 -80 -5 -4 -53 -30 -105 -57 -52 -28 -147
-76 -210 -108 -63 -32 -191 -100 -285 -150 -93 -51 -231 -127 -305 -170 -74
-43 -157 -90 -185 -106 -36 -20 -144 -50 -390 -108 -187 -44 -366 -85 -397
-92 -32 -7 -58 -16 -58 -22 0 -5 19 -7 47 -2 27 3 86 15 133 26 47 11 112 26
145 34 33 8 131 30 219 50 87 20 160 34 162 32 2 -1 -30 -25 -72 -53 -41 -27
-83 -53 -92 -59 -10 -5 -52 -36 -95 -69 -43 -32 -91 -72 -107 -88 -22 -21 -30
-39 -30 -64 0 -28 5 -36 28 -45 16 -7 58 -8 107 -4 44 3 112 13 150 22 39 8
90 18 115 23 25 4 101 21 170 39 69 17 154 41 190 52 36 11 99 28 140 38 41
10 156 40 255 66 99 25 277 66 395 91 118 24 229 49 245 54 17 5 73 16 125 24
52 8 115 18 140 22 l45 6 -89 -56 c-48 -31 -91 -56 -94 -56 -3 0 -33 -17 -66
-38 -34 -22 -128 -79 -211 -127 -82 -48 -199 -117 -260 -153 -60 -36 -173
-103 -250 -150 -77 -47 -162 -99 -190 -117 -27 -18 -61 -38 -75 -45 -14 -7
-99 -60 -190 -118 -91 -58 -196 -126 -235 -151 -38 -25 -99 -64 -135 -87 -36
-22 -85 -54 -109 -70 -24 -16 -51 -33 -60 -39 -9 -5 -36 -23 -61 -39 -25 -16
-63 -45 -84 -63 -22 -18 -45 -33 -51 -33 -7 0 -41 -23 -76 -51 -35 -28 -89
-75 -119 -104 -30 -30 -63 -69 -73 -87 -14 -27 -16 -40 -8 -60 6 -15 22 -35
37 -44 18 -13 53 -19 114 -22 48 -2 133 1 188 7 55 7 149 20 209 30 59 10 109
18 110 16 2 -1 -17 -25 -41 -53 -25 -29 -47 -60 -50 -70 -4 -10 -20 -28 -36
-40 -23 -17 -30 -31 -30 -55 0 -18 3 -42 6 -55 4 -13 27 -34 53 -50 42 -25 55
-27 161 -28 63 -1 140 2 170 6 30 4 108 17 173 29 65 12 175 35 245 52 70 17
151 35 181 40 30 5 59 13 64 16 5 3 37 11 71 18 34 7 115 27 181 45 66 18 147
39 180 47 33 8 76 18 95 23 19 5 85 22 145 38 61 17 135 35 165 42 30 6 66 16
80 21 14 5 36 11 50 14 14 3 57 12 95 21 39 9 101 25 139 36 37 11 70 17 72
15 2 -2 -4 -11 -14 -20 -10 -9 -56 -39 -102 -66 -47 -28 -184 -99 -305 -159
-121 -60 -267 -132 -325 -160 -58 -27 -161 -77 -230 -110 -69 -33 -183 -89
-255 -125 -71 -35 -173 -87 -225 -114 -52 -27 -156 -81 -230 -119 -74 -39
-218 -117 -320 -174 -102 -56 -192 -108 -200 -115 -8 -6 -94 -58 -190 -115
-96 -57 -233 -141 -304 -188 -71 -47 -173 -120 -226 -161 -54 -42 -131 -107
-171 -146 -41 -38 -88 -88 -105 -110 -17 -22 -39 -54 -48 -72 -9 -18 -16 -43
-16 -56 0 -14 7 -28 16 -31 8 -3 13 -10 9 -15 -3 -6 6 -18 20 -27 23 -15 46
-16 183 -11 86 4 171 9 187 13 27 5 24 0 -35 -53 -35 -32 -94 -89 -130 -126
-36 -37 -80 -97 -99 -132 -18 -36 -31 -71 -28 -78 3 -8 22 -22 42 -32 31 -14
57 -16 139 -13 l101 4 20 -30 c11 -16 36 -39 55 -50 28 -16 57 -21 155 -24 66
-2 154 1 195 7 41 6 82 11 90 11 8 1 49 5 90 11 41 6 95 15 120 21 25 6 59 12
75 14 17 2 64 11 105 20 41 9 86 22 100 29 14 6 39 12 55 13 17 2 77 14 135
28 58 14 155 36 215 50 61 13 127 31 148 39 21 9 42 13 47 10 4 -3 21 0 37 6
15 6 46 16 68 20 22 5 54 12 70 15 17 3 44 10 60 15 17 6 53 14 80 19 28 5 84
19 125 30 41 12 95 25 120 30 25 5 72 15 105 23 33 8 74 20 90 26 17 7 26 8
20 2 -5 -5 -100 -61 -210 -123 -110 -63 -262 -148 -338 -189 -76 -40 -222
-122 -325 -180 -103 -58 -254 -149 -337 -201 -82 -52 -181 -114 -220 -138 -38
-25 -138 -90 -221 -146 -83 -55 -184 -127 -225 -159 -41 -33 -86 -73 -100 -90
-14 -16 -29 -47 -32 -68 -5 -34 -3 -39 19 -47 14 -6 57 -10 95 -10 38 0 127
12 196 26 70 14 131 28 135 30 4 3 8 0 8 -6 0 -6 -10 -24 -22 -41 -21 -28 -21
-31 -7 -72 10 -28 26 -47 45 -57 19 -10 63 -15 129 -16 55 -1 127 1 160 6 33
4 61 6 63 5 1 -1 -20 -24 -48 -52 -35 -35 -50 -58 -50 -77 0 -14 5 -26 10 -26
6 0 10 -7 10 -15 0 -12 14 -15 63 -15 34 0 96 7 137 14 41 8 111 23 156 34 44
11 111 29 150 40 38 12 114 33 169 48 55 15 118 33 140 41 22 8 58 18 80 23
22 4 83 20 135 34 52 14 146 39 209 56 63 17 121 35 130 39 9 5 30 11 46 15
17 4 -33 -30 -110 -76 -77 -46 -151 -89 -165 -96 -14 -7 -42 -22 -62 -35 -21
-12 -57 -33 -80 -46 -24 -13 -56 -31 -71 -40 -16 -9 -36 -21 -45 -26 -9 -6
-39 -23 -67 -40 -27 -16 -52 -32 -55 -35 -3 -3 -50 -32 -105 -64 -55 -33 -125
-75 -155 -94 -30 -19 -91 -58 -135 -87 -44 -29 -114 -74 -155 -102 -41 -27
-120 -80 -175 -118 -55 -38 -144 -103 -198 -145 -54 -41 -113 -85 -130 -98
-18 -13 -49 -40 -70 -60 -20 -20 -42 -52 -47 -71 -7 -27 -6 -39 4 -50 8 -7 37
-16 63 -18 28 -3 84 2 129 12 43 9 111 26 149 37 39 11 115 33 170 50 55 16
147 45 205 63 58 18 182 57 275 85 94 29 195 60 225 70 30 10 73 23 95 29 22
6 83 25 135 41 52 17 98 30 103 30 4 0 6 -4 2 -10 -3 -5 -47 -37 -98 -71 -51
-33 -120 -82 -155 -108 -34 -25 -113 -84 -175 -131 -61 -47 -155 -129 -209
-182 -54 -54 -98 -105 -98 -113 0 -8 8 -31 17 -51 l18 -37 90 6 c49 4 124 16
165 27 41 11 84 22 95 25 11 3 49 14 84 25 36 10 66 18 68 16 2 -1 -59 -51
-134 -109 -76 -58 -164 -130 -195 -160 -35 -32 -58 -62 -58 -75 0 -14 7 -22
23 -24 12 -2 43 1 70 6 26 5 47 12 47 17 0 4 -24 9 -52 11 l-53 3 65 64 c36
35 133 114 215 177 128 96 163 117 235 142 47 16 135 44 195 62 61 18 117 35
125 38 8 3 -12 -15 -45 -39 -33 -23 -62 -46 -65 -49 -3 -4 -15 -12 -28 -19
-13 -7 -62 -42 -110 -79 -48 -36 -122 -93 -165 -126 -43 -32 -106 -89 -139
-125 -33 -36 -67 -75 -74 -87 -11 -16 -12 -28 -3 -52 9 -25 19 -34 52 -43 32
-9 74 -9 173 0 72 6 156 15 185 21 30 5 97 16 149 25 52 9 124 23 160 30 36 8
146 30 245 50 99 20 279 56 400 81 121 25 224 50 229 55 5 5 8 11 5 13 -3 3
-56 -6 -119 -19 -63 -14 -263 -54 -445 -89 -181 -36 -397 -77 -480 -91 -82
-15 -205 -30 -271 -35 -67 -4 -141 -4 -164 0 -23 4 -48 14 -56 22 -11 11 -12
21 -5 41 6 15 33 49 60 76 28 28 92 83 143 124 51 40 136 105 188 143 52 39
138 100 190 136 52 36 106 69 120 73 14 4 39 13 55 20 17 6 55 19 85 28 30 8
80 22 110 31 30 8 118 32 195 52 77 20 165 42 195 50 30 7 109 27 175 43 66
16 161 36 210 45 50 9 109 21 132 26 23 6 58 10 77 10 19 0 37 4 40 8 3 5 86
8 185 8 161 -1 181 -3 200 -20 12 -11 21 -27 21 -38 0 -10 -10 -40 -22 -66
-14 -28 -57 -81 -109 -132 -48 -47 -113 -106 -145 -130 -32 -25 -93 -72 -134
-105 -42 -33 -131 -98 -198 -145 -68 -47 -212 -148 -320 -225 -108 -77 -289
-209 -402 -294 -113 -85 -236 -180 -275 -210 -38 -31 -88 -70 -110 -86 -22
-16 -83 -65 -135 -109 -52 -44 -119 -103 -149 -131 -30 -27 -67 -70 -82 -94
-16 -25 -29 -49 -29 -53 0 -4 7 -8 15 -8 8 0 17 11 21 25 3 14 52 69 109 123
56 53 191 167 300 252 108 85 238 186 289 223 50 38 147 110 216 161 69 51
181 133 250 181 69 49 152 107 185 130 33 22 91 63 130 90 38 28 125 92 195
144 69 52 163 127 210 166 47 40 108 97 137 127 28 30 65 76 82 103 17 27 31
60 31 73 0 13 -5 32 -10 42 -6 11 -20 24 -31 30 -11 6 -30 14 -42 16 -12 3
-74 5 -138 5 -64 -1 -149 -5 -190 -11 -41 -6 -112 -17 -159 -26 -47 -8 -137
-26 -200 -40 -63 -13 -151 -32 -195 -43 -44 -10 -132 -32 -195 -49 -63 -17
-177 -47 -254 -66 -76 -20 -142 -38 -146 -41 -4 -2 -26 -8 -50 -14 -23 -5 -38
-6 -34 -2 5 4 106 68 224 141 118 74 292 184 385 246 94 62 208 143 253 180
46 37 99 83 118 102 19 19 34 43 34 54 0 16 -9 18 -77 18 -43 0 -132 -11 -198
-24 -66 -13 -121 -23 -122 -22 -1 1 39 35 90 76 50 41 146 128 213 192 69 68
143 150 172 193 29 42 57 94 63 116 9 29 9 48 1 77 -7 21 -22 48 -34 59 -13
12 -39 30 -58 42 -19 11 -46 26 -60 32 -17 8 -120 12 -305 13 -191 1 -302 -3
-350 -12 -38 -7 -83 -15 -100 -17 -19 -3 14 19 90 61 66 36 181 103 255 147
74 44 180 110 235 145 55 36 125 85 156 109 31 24 61 55 68 70 9 19 9 29 1 37
-6 6 -46 11 -93 10 -45 0 -126 -8 -181 -18 -54 -9 -159 -30 -235 -46 -75 -15
-149 -31 -166 -35 -16 -4 -122 -32 -235 -62 -113 -31 -218 -59 -235 -63 -16
-4 -75 -22 -130 -40 -55 -17 -166 -51 -247 -76 -81 -24 -151 -44 -155 -44 -5
0 53 36 127 79 74 44 248 144 385 223 138 78 258 148 267 153 9 6 29 17 45 26
15 8 80 46 143 84 63 37 178 106 255 153 77 48 176 112 221 144 44 32 101 75
125 97 24 21 52 52 61 69 17 28 17 31 0 51 -10 13 -37 25 -68 30 -28 6 -87 8
-130 5 -43 -2 -108 -6 -144 -9 -36 -3 -101 -9 -145 -14 -44 -6 -136 -19 -205
-30 -68 -11 -125 -19 -126 -18 -1 1 28 27 64 57 50 41 67 62 67 80 0 22 -5 26
-47 30 l-47 5 112 69 c62 38 157 101 212 140 55 38 132 102 172 141 39 38 75
82 78 98 5 17 2 33 -6 43 -7 8 -26 23 -43 32 -26 14 -62 17 -226 16 -175 0
-214 -3 -379 -32 -102 -18 -187 -35 -190 -36 -3 -2 -64 -16 -136 -31 -71 -15
-281 -64 -465 -110 -184 -45 -411 -103 -505 -128 -93 -25 -222 -60 -285 -77
-63 -17 -149 -40 -190 -51 -41 -11 -97 -26 -125 -34 -27 -7 -90 -24 -140 -38
-49 -13 -103 -28 -120 -31 -18 -4 24 27 100 75 72 45 229 141 350 214 121 72
274 162 340 200 66 37 167 95 225 128 58 33 152 87 210 120 58 33 130 74 160
90 30 17 206 113 390 215 184 102 379 211 433 243 54 33 101 59 103 59 2 0 39
22 82 48 42 27 154 95 247 151 94 57 219 137 280 179 60 43 142 109 181 147
49 48 74 80 79 104 6 27 3 37 -14 54 -15 16 -38 22 -93 26 -40 3 -122 3 -183
0 -60 -4 -117 -10 -126 -14 -11 -4 -28 5 -50 28 -23 24 -54 41 -94 53 -50 15
-101 19 -295 20 -129 1 -273 -1 -320 -6 -47 -4 -123 -11 -170 -14 -47 -4 -186
-20 -310 -37 -124 -16 -315 -46 -425 -66 -110 -20 -220 -39 -245 -43 -25 -4
-99 -17 -165 -29 -66 -12 -160 -31 -210 -41 -49 -11 -119 -24 -155 -30 -36 -6
-108 -17 -160 -25 -52 -8 -96 -13 -98 -11 -1 2 25 29 59 59 34 31 132 106 219
167 88 62 198 129 251 153 52 24 132 62 179 85 47 22 166 74 265 114 99 41
216 89 260 106 44 17 121 47 170 66 50 19 200 73 335 121 135 47 270 95 300
107 30 11 64 24 75 29 11 5 65 26 120 48 55 21 147 60 205 85 58 26 161 76
230 113 69 36 175 98 235 139 61 40 135 97 164 127 29 30 62 72 72 93 10 21
18 49 19 61 0 12 -8 38 -17 58 -10 20 -36 48 -62 65 -26 16 -72 40 -103 54
-31 14 -103 34 -160 44 -56 11 -164 25 -238 31 -74 7 -168 13 -208 14 l-73 2
83 55 c45 30 118 81 162 114 45 32 112 88 149 125 38 36 79 87 93 113 13 26
24 60 24 76 0 16 -10 42 -22 57 -11 15 -41 36 -66 46 -34 15 -69 20 -141 20
-53 0 -159 -7 -236 -16 -77 -8 -162 -20 -190 -25 -27 -5 -93 -14 -145 -20 -52
-7 -142 -21 -198 -31 -57 -11 -109 -18 -115 -16 -7 3 62 41 153 85 91 44 212
98 270 121 58 22 145 55 194 73 48 18 88 37 88 43 0 5 -4 11 -9 12z m191 -270
c58 -6 78 -14 118 -44 33 -26 48 -44 48 -61 0 -13 -11 -43 -26 -67 -14 -24
-55 -72 -92 -107 -37 -35 -89 -79 -116 -98 -26 -19 -62 -47 -81 -62 -18 -16
-35 -28 -39 -28 -3 0 -38 -21 -76 -46 -38 -26 -89 -50 -112 -55 -24 -4 -81 -8
-128 -9 -47 0 -139 -5 -205 -10 -66 -6 -185 -20 -265 -31 -80 -11 -170 -24
-200 -29 -30 -6 -71 -12 -90 -14 -20 -2 -69 -11 -110 -19 -41 -9 -115 -23
-165 -32 -49 -8 -108 -20 -130 -25 -22 -5 -112 -23 -200 -40 -88 -17 -257 -52
-375 -79 -118 -27 -216 -48 -217 -47 -2 2 72 46 165 98 92 53 212 119 267 148
55 29 132 69 170 90 39 21 165 86 280 145 116 60 226 117 245 128 19 11 73 40
120 64 47 25 108 58 135 73 28 15 94 37 150 49 55 11 172 32 260 45 88 14 219
32 290 40 72 9 171 19 220 24 50 4 121 4 159 -1z m-169 -601 c99 -3 225 -13
280 -21 55 -9 127 -23 160 -32 33 -9 85 -29 116 -44 32 -16 72 -43 91 -62 18
-18 35 -44 36 -58 1 -13 0 -38 -3 -55 -3 -18 -20 -50 -38 -72 -17 -22 -56 -59
-86 -83 -30 -23 -101 -70 -158 -105 -57 -35 -161 -92 -231 -127 -70 -36 -190
-92 -267 -124 -77 -33 -230 -92 -340 -132 -110 -40 -216 -78 -235 -86 -19 -7
-89 -32 -155 -55 -66 -23 -172 -62 -235 -87 -63 -24 -140 -53 -170 -65 -30
-12 -68 -27 -85 -34 -16 -7 -68 -28 -115 -47 -47 -19 -134 -56 -195 -83 -60
-26 -121 -54 -135 -62 -23 -13 -22 -12 3 10 16 14 81 57 145 95 64 39 203 122
307 185 105 63 222 132 260 153 39 20 75 41 80 46 6 4 35 21 65 37 30 15 129
69 220 119 91 50 201 109 245 133 44 23 177 94 295 158 118 63 244 134 280
157 36 24 77 55 93 69 15 15 27 33 27 41 0 8 -9 19 -20 25 -12 6 -80 11 -163
12 -78 0 -173 -3 -212 -6 -38 -3 -108 -10 -155 -15 -47 -6 -123 -15 -170 -21
-47 -5 -96 -13 -110 -16 -24 -5 -24 -5 -5 9 11 8 106 67 210 131 l190 117 180
-5z m-380 -7 l130 1 -35 -22 c-19 -11 -51 -31 -70 -43 -19 -12 -87 -53 -150
-91 -63 -38 -129 -78 -146 -89 -19 -13 -65 -26 -115 -34 -46 -7 -183 -32 -304
-57 -121 -24 -247 -51 -280 -58 -33 -8 -139 -33 -235 -55 -96 -23 -188 -45
-205 -50 -16 -5 -95 -26 -175 -46 -80 -21 -185 -48 -235 -62 -49 -13 -142 -35
-205 -49 -63 -13 -142 -29 -175 -34 -33 -5 -92 -10 -131 -10 -43 0 -77 5 -88
13 -13 10 -16 18 -10 29 5 9 39 41 76 71 36 30 124 93 195 139 70 47 138 90
149 96 12 6 113 32 225 58 112 25 245 54 294 65 50 11 115 24 145 30 30 5 120
23 200 39 80 16 222 42 315 59 94 16 215 36 270 44 55 9 138 21 185 27 47 6
121 15 165 19 44 5 139 9 210 10z m357 -233 c118 -1 171 -5 179 -13 10 -10 9
-17 -6 -33 -11 -12 -67 -50 -125 -84 -58 -35 -139 -81 -180 -104 -41 -22 -95
-51 -120 -64 -25 -14 -85 -46 -135 -73 -49 -26 -99 -53 -110 -60 -12 -7 -70
-39 -130 -70 -61 -32 -186 -101 -280 -153 -93 -52 -194 -110 -223 -128 -29
-19 -55 -34 -58 -34 -4 0 -45 -23 -93 -52 -47 -29 -144 -88 -216 -131 -71 -44
-139 -85 -150 -91 -11 -6 -87 -55 -168 -109 -81 -54 -220 -135 -310 -181 -89
-46 -214 -115 -278 -153 -64 -38 -128 -78 -142 -90 -15 -11 -27 -28 -27 -36 0
-9 9 -22 20 -30 17 -12 7 -15 -98 -31 -64 -10 -160 -21 -212 -23 -56 -3 -119
-1 -153 6 -39 9 -60 19 -68 33 -6 11 -8 30 -5 41 3 12 28 47 55 79 28 31 104
96 168 145 65 49 204 145 308 214 105 69 228 149 275 179 47 29 122 77 166
106 45 29 137 86 205 127 68 41 194 117 279 169 85 52 175 106 200 120 25 14
153 90 285 168 132 79 253 150 269 158 16 8 54 32 85 52 31 20 85 51 121 68
46 22 86 32 140 37 41 3 127 12 190 20 63 8 129 16 145 18 17 2 105 3 197 3z
m-236 -1398 c157 2 230 -1 283 -12 39 -8 85 -25 102 -37 17 -12 27 -25 22 -29
-4 -5 -62 -18 -128 -30 -66 -11 -157 -29 -202 -39 l-83 -19 0 27 c0 16 -10 37
-23 49 -12 11 -38 28 -58 36 -19 8 -73 21 -120 28 -76 12 -80 14 -44 18 22 3
135 7 251 8z m-1918 -28 c1 0 2 -1 2 -3 0 -1 -25 -20 -57 -42 -31 -22 -90 -69
-132 -104 -42 -35 -83 -70 -92 -78 -10 -8 -27 -11 -47 -7 -18 4 -32 10 -32 15
0 4 33 29 73 55 39 26 106 65 147 87 41 22 89 49 105 59 17 10 31 18 33 18z
m1497 -16 c72 -1 153 -7 180 -13 28 -6 68 -16 91 -23 23 -6 53 -21 68 -33 23
-18 25 -25 17 -46 -8 -21 -22 -28 -107 -48 -55 -13 -223 -55 -374 -93 -151
-38 -327 -83 -390 -100 -63 -16 -207 -52 -320 -79 -113 -27 -286 -67 -385 -89
-99 -21 -238 -48 -310 -58 -74 -11 -168 -17 -218 -16 -59 2 -102 10 -132 23
-24 10 -48 28 -54 39 -6 12 -11 31 -11 44 0 13 13 46 29 73 16 28 49 70 74 94
42 41 51 44 144 62 54 10 184 34 288 54 105 20 204 40 220 45 17 5 71 16 120
24 50 8 153 27 230 41 77 15 196 35 265 46 69 10 161 24 205 30 44 6 116 14
160 18 44 4 139 6 210 5z m1178 -51 c52 -1 94 -6 102 -13 8 -7 15 -29 15 -49
0 -31 -8 -44 -47 -82 -27 -26 -84 -73 -128 -105 -44 -33 -102 -74 -128 -92
-26 -17 -50 -32 -52 -32 -3 0 -54 -31 -114 -70 -61 -38 -113 -70 -117 -70 -4
0 -22 -11 -40 -25 -18 -14 -35 -25 -38 -25 -3 0 -31 -16 -62 -36 -30 -19 -124
-75 -207 -123 -84 -48 -186 -106 -227 -128 -41 -22 -100 -54 -130 -70 -30 -17
-91 -49 -135 -73 -44 -24 -84 -46 -90 -50 -5 -5 -28 -18 -50 -31 -22 -12 -65
-36 -95 -52 -30 -16 -95 -52 -145 -80 -49 -28 -119 -67 -155 -87 -36 -20 -94
-54 -130 -74 -36 -21 -69 -41 -75 -46 -5 -4 -43 -25 -83 -46 -40 -22 -91 -48
-112 -59 -21 -11 -85 -48 -142 -83 -57 -35 -185 -114 -286 -175 -100 -62 -200
-123 -222 -137 -22 -14 -77 -48 -122 -76 -54 -33 -104 -55 -143 -63 -33 -7
-98 -23 -145 -35 -47 -13 -118 -31 -158 -41 -40 -10 -75 -16 -77 -13 -3 2 43
41 103 85 59 44 138 102 175 129 38 27 86 60 108 74 21 14 110 70 196 124 87
54 174 109 193 121 19 13 78 49 130 80 52 32 173 102 269 157 96 54 215 123
265 152 50 29 181 104 291 166 110 62 252 142 315 178 63 35 169 96 235 135
66 39 199 118 295 176 96 57 193 116 215 131 22 16 67 45 100 65 33 21 110 73
170 115 61 43 135 105 166 137 31 32 59 68 63 80 5 15 18 24 39 28 18 3 52 6
77 7 25 2 85 2 133 1z m-337 -23 c9 0 10 -8 4 -30 -5 -17 -24 -48 -42 -69 -18
-21 -46 -49 -63 -63 -16 -13 -68 -51 -115 -83 -47 -33 -103 -72 -125 -86 -22
-15 -78 -51 -125 -81 -47 -30 -168 -104 -270 -164 -102 -61 -243 -144 -315
-186 -71 -41 -215 -124 -320 -183 -104 -59 -228 -129 -275 -155 -47 -26 -146
-82 -220 -125 -74 -43 -151 -87 -170 -98 -19 -11 -48 -27 -65 -36 -16 -8 -103
-59 -192 -112 -89 -54 -199 -121 -245 -150 -46 -29 -121 -77 -168 -107 -47
-30 -125 -82 -175 -115 -49 -33 -148 -104 -220 -157 -71 -53 -142 -104 -156
-114 -15 -9 -41 -21 -59 -26 -18 -5 -72 -13 -119 -17 -47 -4 -121 -7 -163 -6
-47 1 -88 8 -107 18 -17 8 -34 26 -37 40 -3 14 0 40 7 58 7 17 52 72 99 121
47 49 139 130 205 180 66 50 174 126 240 169 66 43 170 108 230 144 61 36 160
95 220 131 61 36 139 81 175 100 36 19 83 45 105 57 22 12 69 38 105 57 36 20
115 61 175 93 61 32 115 61 120 65 6 4 87 46 180 93 94 47 224 111 290 142 66
32 216 105 334 161 118 57 216 104 218 104 3 0 68 32 146 71 78 39 187 98 242
131 55 32 128 79 161 102 43 31 79 47 120 55 33 6 82 16 109 21 28 6 63 13 79
16 16 3 32 7 35 9 4 2 33 6 66 10 33 3 61 8 64 11 2 2 10 4 17 4z m-116 -1445
c58 -2 119 -6 135 -10 17 -3 42 -11 58 -17 16 -6 27 -18 27 -30 0 -10 -6 -31
-14 -46 -8 -15 -36 -48 -63 -73 -26 -25 -82 -69 -123 -100 -41 -30 -120 -83
-175 -118 -55 -35 -120 -77 -145 -93 -24 -16 -54 -31 -65 -33 -11 -2 -76 -11
-145 -20 -69 -9 -179 -25 -245 -36 -66 -11 -187 -33 -270 -49 -82 -16 -220
-45 -305 -65 -85 -19 -204 -47 -265 -61 -60 -15 -171 -42 -245 -61 -74 -19
-250 -63 -390 -98 -140 -35 -311 -77 -380 -94 -69 -16 -189 -44 -267 -61 -77
-17 -179 -37 -224 -45 -46 -8 -87 -11 -91 -7 -4 4 1 25 11 47 10 22 57 79 104
127 47 48 129 119 183 159 53 39 138 99 187 132 77 52 106 65 196 89 58 15
151 40 206 54 55 14 129 34 165 45 36 10 142 40 235 65 94 25 222 59 285 75
63 17 257 66 430 111 173 44 338 84 365 89 28 5 100 21 160 34 61 13 146 30
190 39 44 8 118 20 165 26 47 6 112 14 145 19 33 4 107 7 165 6z m-312 -556
c23 1 42 -3 42 -8 0 -5 -11 -23 -25 -40 -14 -16 -47 -45 -73 -64 -40 -30 -68
-39 -189 -64 -78 -17 -140 -27 -138 -24 2 4 23 17 47 30 24 12 99 56 168 96
101 60 133 74 168 74z m-159 -10 c19 0 31 -2 27 -6 -4 -4 -53 -35 -109 -70
-56 -34 -133 -79 -172 -101 -49 -28 -108 -49 -195 -70 -69 -17 -190 -46 -270
-66 -80 -19 -197 -46 -260 -60 -63 -14 -191 -44 -285 -66 -93 -23 -264 -64
-380 -91 -115 -28 -237 -54 -270 -59 -33 -5 -109 -19 -169 -30 -60 -11 -143
-23 -185 -27 -42 -5 -137 -8 -211 -8 -93 0 -146 4 -170 14 -19 8 -41 19 -48
24 -11 8 -11 12 0 18 7 5 23 9 36 9 13 0 81 13 150 30 70 16 156 36 192 45 36
8 155 37 265 64 110 28 272 68 360 90 88 23 194 50 235 61 41 11 158 40 260
64 102 25 257 62 345 82 88 20 171 39 185 41 14 3 93 17 175 33 83 15 191 33
240 40 50 7 119 18 155 25 36 7 80 13 99 14z m-2246 -50 c5 0 -4 -9 -20 -22
-15 -12 -48 -36 -73 -52 -25 -15 -61 -41 -80 -56 -19 -16 -73 -58 -120 -95
-47 -36 -116 -98 -154 -137 -37 -40 -80 -92 -94 -116 l-25 -43 -76 4 c-42 3
-89 11 -104 19 -25 11 -28 17 -23 43 3 16 18 45 33 65 15 20 63 73 107 119 45
46 103 100 131 122 41 31 70 43 165 65 63 15 162 40 220 55 58 15 109 28 113
29z m3014 -36 c51 -2 103 -7 117 -13 15 -5 26 -16 26 -24 0 -9 -14 -31 -31
-51 -17 -19 -72 -65 -122 -102 -50 -36 -141 -97 -202 -134 -60 -37 -175 -107
-255 -155 -80 -49 -174 -104 -210 -124 -36 -20 -83 -47 -105 -59 -22 -13 -80
-46 -128 -74 -49 -29 -107 -63 -130 -76 -23 -12 -71 -40 -107 -61 -36 -21
-115 -67 -176 -104 -61 -36 -114 -66 -118 -66 -4 0 -30 -16 -59 -35 -28 -19
-57 -35 -63 -35 -6 0 -62 -16 -125 -35 -63 -20 -132 -40 -154 -47 -22 -6 -71
-21 -110 -33 -38 -13 -133 -41 -210 -63 -77 -23 -203 -57 -280 -78 -77 -20
-156 -40 -175 -45 -33 -7 -32 -4 45 67 44 41 140 118 213 172 73 53 177 128
230 165 53 38 156 107 227 154 72 48 180 118 240 158 61 40 180 116 265 170
85 54 206 132 268 174 62 42 166 111 230 153 64 43 135 86 157 97 22 10 63 23
90 29 28 6 79 16 115 23 36 6 79 13 95 15 17 2 73 9 125 15 52 7 124 15 160
18 36 4 106 5 157 4z m-818 -104 c8 1 12 -1 10 -3 -2 -2 -119 -80 -259 -173
-140 -93 -286 -189 -325 -213 -38 -24 -123 -78 -187 -119 -64 -42 -181 -118
-260 -169 -79 -52 -203 -135 -276 -185 -72 -51 -194 -137 -269 -192 -75 -55
-181 -142 -234 -193 l-98 -94 -128 -23 c-70 -14 -154 -25 -185 -25 -31 0 -68
4 -82 10 -16 6 -26 17 -26 29 0 11 14 36 30 55 17 19 72 65 123 104 50 38 164
115 252 172 88 57 203 131 255 165 52 34 151 95 220 137 69 41 213 123 320
183 107 59 320 179 472 266 152 87 300 170 329 184 28 15 92 35 143 45 50 10
107 23 126 28 19 6 41 10 49 11z m939 -620 l73 1 -22 -31 c-12 -17 -55 -55
-95 -85 -40 -30 -117 -82 -171 -116 -54 -34 -125 -77 -158 -96 -33 -20 -94
-54 -135 -77 -41 -23 -118 -66 -170 -97 -67 -39 -114 -59 -160 -67 -36 -7 -96
-19 -135 -26 -38 -8 -110 -23 -160 -33 -49 -11 -142 -31 -205 -45 -63 -14
-212 -46 -330 -72 -118 -26 -244 -53 -280 -61 -36 -7 -96 -21 -135 -29 -38 -9
-90 -18 -115 -21 -24 -3 -76 -12 -114 -19 -39 -8 -72 -12 -73 -11 -2 2 47 39
109 83 62 44 178 123 258 174 80 51 191 121 247 155 76 45 128 68 200 88 54
15 107 31 118 36 11 5 121 39 245 76 124 36 281 82 350 100 69 19 181 48 250
65 69 16 179 42 245 55 66 14 158 32 205 39 47 7 118 13 158 14z m-1788 -450
c8 1 -26 -23 -75 -52 -50 -30 -159 -100 -244 -156 -85 -56 -190 -129 -233
-161 -44 -33 -88 -65 -99 -70 -10 -6 -88 -12 -172 -13 -135 -2 -157 0 -192 18
-30 15 -41 27 -43 47 -2 15 4 40 12 56 8 16 28 34 43 39 15 6 107 32 203 58
96 27 227 64 290 82 63 19 171 52 240 73 69 22 154 48 190 59 36 10 72 20 80
20z m1400 -98 c29 -3 21 -7 -50 -22 -47 -9 -170 -38 -275 -64 -104 -25 -196
-48 -202 -50 -7 -2 -13 -3 -13 -1 0 2 33 24 73 49 66 42 81 47 187 61 63 9
144 20 180 24 36 4 81 5 100 3z m310 -19 c48 -2 95 -10 108 -18 12 -8 22 -19
22 -25 0 -6 -30 -42 -67 -80 -37 -38 -120 -109 -186 -157 -65 -48 -138 -100
-160 -116 -23 -16 -87 -59 -142 -96 -55 -37 -147 -98 -205 -135 -58 -38 -143
-93 -190 -123 -47 -31 -162 -106 -256 -169 -166 -111 -174 -115 -315 -159 -79
-25 -182 -56 -229 -70 -47 -14 -119 -36 -160 -49 -41 -12 -106 -32 -145 -43
-38 -12 -123 -37 -187 -56 -65 -19 -127 -40 -138 -46 -11 -6 -20 -8 -20 -6 0
3 -12 1 -27 -5 -14 -5 -61 -19 -102 -30 -42 -11 -119 -32 -171 -46 -59 -16
-124 -26 -170 -27 -45 0 -84 4 -98 12 l-23 13 21 29 c12 16 55 57 96 91 41 34
121 95 177 136 56 41 188 131 292 200 105 69 219 145 255 168 36 23 171 105
300 183 129 77 339 200 465 275 127 74 249 144 272 156 23 11 51 21 62 21 11
0 30 4 43 9 13 5 57 17 98 26 41 10 95 23 120 30 25 7 97 25 160 39 63 14 167
34 230 45 63 11 131 22 150 24 19 2 73 2 120 -1z m-807 -43 c10 0 15 -3 12 -9
-3 -5 -10 -10 -15 -10 -6 0 -40 -19 -77 -43 -53 -34 -99 -52 -208 -82 -77 -21
-162 -44 -190 -52 -27 -8 -81 -23 -120 -33 -38 -10 -197 -52 -351 -94 -155
-42 -346 -90 -425 -106 -79 -17 -169 -30 -200 -30 -32 0 -64 3 -73 6 -9 3 -16
11 -16 17 0 6 21 33 47 59 26 26 54 48 63 48 9 0 20 4 25 9 6 4 51 14 100 20
50 7 117 19 150 26 33 8 80 17 105 20 25 4 69 13 99 21 41 10 57 11 62 2 5 -8
12 -7 24 5 9 9 26 19 38 22 12 3 56 12 97 21 41 9 93 20 115 25 22 4 83 18
135 30 52 11 111 25 130 29 19 4 89 20 155 35 66 14 161 34 210 44 50 10 98
19 108 20z m1004 -9 c6 0 20 -16 32 -36 12 -19 21 -48 21 -64 0 -15 -17 -60
-37 -100 -29 -56 -65 -101 -163 -199 -69 -70 -177 -171 -241 -224 -102 -85
-123 -98 -180 -112 -35 -8 -75 -18 -89 -21 -14 -3 -43 -10 -65 -15 -22 -6 -78
-24 -125 -39 -47 -15 -101 -31 -120 -34 -19 -4 -57 -14 -85 -21 -27 -8 -97
-28 -155 -45 -58 -17 -114 -34 -125 -37 -11 -3 -2 7 20 22 22 16 105 72 185
125 80 53 180 119 223 146 43 27 155 100 250 163 95 62 225 152 290 200 65 47
133 96 151 108 19 12 71 58 117 102 46 44 89 80 96 81z m-129 -681 c17 1 32
-4 32 -10 0 -6 -22 -30 -48 -54 -26 -24 -66 -58 -89 -77 -22 -18 -77 -59 -120
-90 -43 -32 -103 -73 -133 -91 -30 -19 -107 -67 -171 -108 -64 -41 -147 -92
-184 -114 -36 -22 -96 -59 -132 -82 -35 -24 -66 -43 -68 -43 -2 0 -32 -19 -68
-43 -39 -27 -94 -52 -143 -66 -43 -12 -110 -32 -149 -43 -38 -11 -87 -26 -108
-34 -20 -8 -43 -14 -49 -14 -6 0 51 46 128 103 76 56 210 154 298 216 87 63
195 143 240 178 44 35 104 81 131 103 28 21 98 77 156 123 101 79 110 84 190
102 46 10 122 24 169 30 47 7 100 13 118 14z m-438 -80 c2 1 0 -3 -5 -7 -6 -5
-43 -35 -84 -68 -41 -32 -154 -120 -252 -194 -97 -74 -208 -157 -246 -184 -37
-28 -129 -95 -203 -149 -74 -55 -148 -110 -165 -123 -16 -13 -54 -41 -84 -61
-39 -27 -87 -46 -175 -70 -67 -18 -163 -42 -215 -53 -51 -11 -115 -20 -143
-20 -27 0 -62 7 -79 15 -23 12 -27 19 -20 33 5 9 28 39 51 65 24 26 88 85 144
130 55 46 152 121 215 167 63 45 176 124 251 175 75 50 150 96 166 102 16 6
101 32 189 58 88 26 174 51 190 56 17 4 95 27 175 50 80 23 177 50 215 59 39
10 72 19 75 19z"/>
<g>
<path d="M4372 7130 c-10 0 -28 -7 -40 -16 -12 -8 -22 -26 -22 -38 0 -13 6
-28 13 -33 6 -6 23 -13 36 -16 13 -3 33 -2 43 4 10 5 18 20 18 32 0 12 -7 33
-16 45 -8 12 -23 22 -32 22z"/>
</g>
<g>
<path d="M5054 6520 c-8 0 -19 -12 -24 -26 -6 -16 -6 -32 -1 -43 5 -9 11 -43
13 -76 3 -55 2 -59 -22 -65 -16 -4 -25 -13 -25 -25 0 -17 6 -20 40 -18 21 2
45 9 52 15 9 10 10 29 3 78 -5 36 -12 86 -15 113 -4 32 -11 47 -21 47z"/>
</g>
<g>
<path d="M5318 5797 c-8 5 -31 6 -53 2 -22 -4 -131 -11 -243 -15 -112 -3 -217
-10 -235 -13 -23 -5 -32 -12 -32 -26 0 -17 7 -20 40 -19 22 0 103 4 180 8 77
4 183 9 236 10 53 2 101 6 108 10 6 4 11 13 11 20 0 8 -6 18 -12 23z"/>
</g>
<g>
<path d="M5277 5290 c-7 0 -24 -8 -37 -17 -14 -9 -43 -33 -65 -54 -22 -20 -66
-59 -97 -85 -31 -27 -85 -70 -120 -95 -35 -25 -70 -49 -78 -53 -8 -3 -28 -14
-45 -24 -16 -10 -31 -26 -33 -34 -2 -9 21 -36 52 -63 30 -26 60 -44 66 -40 5
3 10 14 10 24 0 9 -13 30 -30 46 -16 16 -30 32 -30 35 0 3 35 30 77 60 42 30
106 79 142 110 36 30 84 70 107 87 22 17 52 37 67 44 18 8 27 20 27 36 0 12
-6 23 -13 23z"/>
</g>
</g>
<g>
<path d="M3510 9920 c-23 0 -33 -6 -42 -26 -8 -18 -9 -31 -2 -42 6 -8 18 -20
27 -26 13 -9 22 -5 44 16 23 24 25 30 15 53 -9 19 -19 25 -42 25z"/>
</g>
<g>
<path d="M5404 9630 c-13 0 -30 -10 -38 -22 -9 -12 -16 -28 -16 -34 0 -6 7
-18 17 -25 9 -8 26 -12 37 -11 12 2 27 9 34 14 6 6 12 20 12 32 0 12 -5 27
-12 34 -7 7 -22 12 -34 12z"/>
</g>
<g>
<path d="M4028 8507 c-9 7 -38 -3 -93 -32 -44 -23 -127 -67 -185 -97 -58 -30
-127 -68 -155 -83 -27 -15 -124 -66 -215 -112 -91 -47 -169 -89 -175 -95 -6
-6 12 -30 52 -69 35 -33 67 -58 73 -54 5 3 10 13 10 21 0 8 -14 28 -32 45 -28
25 -30 31 -18 43 8 7 78 46 155 86 77 40 165 88 196 106 31 19 74 41 94 50 21
8 67 33 102 55 36 21 69 39 74 39 5 0 36 14 69 30 33 17 60 36 60 44 0 7 -6
18 -12 23z"/>
</g>
<g>
<path d="M5741 8080 c-9 0 -43 -15 -76 -33 -33 -17 -94 -47 -135 -66 -41 -18
-115 -54 -164 -78 -49 -25 -112 -54 -140 -65 -28 -11 -130 -47 -226 -79 -96
-33 -184 -64 -195 -69 -11 -5 -42 -17 -70 -26 -27 -9 -72 -25 -100 -35 -27 -9
-115 -41 -195 -69 -80 -29 -157 -54 -172 -57 -15 -3 -32 -11 -38 -18 -8 -9 -6
-17 6 -30 12 -11 25 -14 43 -10 14 4 40 13 56 20 17 7 75 29 130 48 55 19 132
47 170 62 39 15 117 43 175 62 58 19 118 41 134 49 16 8 88 34 160 58 72 24
219 84 326 134 107 49 225 104 262 122 38 17 70 36 73 40 3 5 2 15 -1 24 -3 9
-14 16 -23 16z"/>
</g>
<g>
<path d="M2625 7949 c-5 0 -20 -4 -31 -9 -12 -5 -24 -20 -27 -35 -3 -19 1 -33
14 -46 11 -11 30 -19 44 -19 14 0 29 8 35 19 5 11 10 30 10 42 0 12 -8 28 -17
35 -10 7 -22 13 -28 13z"/>
</g>
<g>
<path d="M6113 7927 c-5 2 -12 1 -15 -2 -3 -4 -2 -23 4 -43 5 -20 20 -68 32
-107 13 -38 31 -92 39 -120 9 -27 21 -77 27 -110 7 -33 14 -76 16 -95 3 -19 9
-68 14 -108 6 -40 10 -84 10 -98 0 -20 -5 -24 -28 -24 -16 0 -55 -5 -88 -11
-32 -7 -66 -18 -74 -25 -12 -12 -12 -16 0 -29 13 -13 21 -12 60 1 25 9 77 17
115 20 69 3 70 4 69 31 0 15 -11 78 -23 138 -12 61 -29 146 -37 190 -8 44 -31
134 -51 200 -19 66 -41 136 -48 155 -7 19 -17 36 -22 37z"/>
</g>
<g>
<path d="M2125 6110 c-12 0 -15 -8 -13 -27 2 -23 9 -29 38 -35 19 -4 69 -14
110 -22 41 -9 152 -29 245 -45 94 -17 232 -38 309 -47 94 -12 143 -14 154 -8
9 6 17 15 20 22 2 6 -10 18 -27 27 -17 8 -34 15 -38 14 -5 0 -46 2 -93 6 -47
3 -164 19 -260 36 -96 16 -197 33 -225 39 -27 5 -85 17 -127 25 -42 8 -84 15
-93 15z"/>
</g>
<g>
<path d="M6244 5860 c-12 0 -30 -10 -38 -22 -9 -12 -16 -34 -16 -49 0 -15 7
-32 15 -39 8 -7 26 -9 44 -5 16 3 35 13 41 21 8 8 9 25 5 41 -3 15 -11 34 -17
40 -6 7 -21 13 -34 13z"/>
</g>
<g>
<path d="M6935 4680 c-6 5 -14 8 -17 5 -3 -3 -118 -6 -257 -7 -139 -1 -255 -6
-258 -11 -3 -4 -3 -10 -1 -13 3 -2 25 -7 49 -11 24 -3 132 -7 239 -7 l195 -1
-3 -400 c-2 -321 1 -427 14 -535 10 -82 19 -267 23 -470 4 -184 6 -407 3 -495
-2 -88 -4 -248 -5 -357 -1 -108 -6 -200 -10 -204 -4 -4 -135 -7 -290 -6 -155
1 -374 4 -487 6 -113 2 -232 7 -265 10 -33 3 -265 8 -515 11 -250 2 -498 9
-550 14 -52 6 -122 12 -155 15 -33 3 -118 10 -190 16 -71 6 -161 13 -200 16
-38 3 -290 7 -560 10 -351 3 -528 9 -624 20 -73 8 -139 18 -146 20 -9 4 -16
33 -20 82 -3 42 -10 97 -15 122 -5 25 -11 128 -15 230 -3 102 -7 205 -9 230
-2 25 -9 124 -15 220 -7 96 -14 378 -16 625 -3 248 -9 464 -14 481 -5 17 -6
36 -2 41 3 6 75 13 159 16 84 3 160 10 168 15 13 7 14 11 4 17 -7 5 -92 8
-189 7 l-176 -1 -8 -28 c-5 -15 -12 -37 -17 -48 -5 -11 -25 -99 -45 -195 -20
-96 -43 -231 -51 -300 -8 -69 -22 -177 -30 -240 -8 -63 -23 -187 -34 -275 -10
-88 -21 -178 -24 -200 -3 -22 -10 -77 -15 -122 -5 -46 -12 -87 -16 -93 -3 -5
-15 -81 -26 -167 -11 -87 -22 -171 -25 -188 -2 -16 -7 -94 -11 -172 -6 -141
-6 -143 16 -143 11 0 21 3 22 8 0 4 2 68 4 142 2 74 11 196 20 270 9 74 25
182 35 240 10 58 24 159 30 225 6 66 23 206 37 310 13 105 31 248 39 320 7 71
21 170 30 220 9 49 27 132 40 182 13 51 24 95 24 98 0 3 4 5 9 5 5 0 10 -105
11 -232 1 -128 3 -282 5 -343 1 -60 5 -191 9 -290 4 -99 9 -202 11 -230 3 -27
9 -117 14 -200 6 -82 13 -215 15 -295 3 -80 10 -172 16 -205 5 -33 10 -100 11
-150 0 -49 2 -115 4 -145 2 -30 4 -147 5 -260 1 -113 5 -225 10 -250 4 -25 11
-110 15 -190 3 -80 10 -199 15 -265 5 -66 10 -154 10 -197 l0 -76 -102 -54
c-57 -29 -114 -57 -128 -62 -14 -5 -36 -17 -50 -26 -14 -10 -52 -31 -86 -48
-33 -17 -66 -38 -74 -47 -11 -13 -11 -18 1 -31 13 -13 26 -8 110 37 52 29 114
63 139 76 25 12 50 23 56 23 6 0 19 9 28 19 10 11 47 30 82 42 39 14 65 29 66
38 0 9 0 23 -1 31 0 8 -3 51 -5 95 -2 44 -11 175 -19 290 -9 116 -21 271 -27
345 -5 74 -12 240 -16 368 l-6 233 69 -7 c37 -3 93 -9 123 -14 30 -4 251 -8
490 -9 239 0 518 -5 620 -12 102 -6 194 -11 205 -11 11 0 79 -7 150 -14 72 -7
218 -18 325 -23 107 -6 274 -11 370 -11 96 0 200 -1 230 -1 30 0 163 -4 295
-9 132 -5 366 -13 520 -17 154 -4 353 -7 442 -5 l162 2 -4 -127 c-2 -71 -4
-200 -3 -288 0 -88 1 -169 1 -180 0 -11 -3 -92 -6 -180 -3 -88 -2 -185 3 -215
5 -30 14 -136 20 -235 6 -99 12 -211 12 -248 1 -66 0 -69 -38 -108 -21 -21
-56 -51 -79 -66 -22 -14 -60 -40 -85 -57 -25 -16 -66 -48 -92 -70 -27 -21 -48
-45 -48 -51 0 -7 6 -18 14 -24 10 -9 28 2 82 50 38 34 85 69 104 79 19 10 60
39 90 65 30 26 65 55 77 66 22 18 22 23 18 156 -3 76 -9 174 -14 218 -6 44
-13 136 -16 205 -4 69 -9 139 -11 155 -2 17 3 273 11 570 10 342 13 731 10
1060 -2 286 -9 606 -15 710 -6 105 -14 229 -18 278 -4 48 -4 129 1 180 5 50 6
136 4 190 -3 55 -3 135 0 178 l6 80 27 -81 c16 -44 40 -131 54 -193 14 -61 35
-173 47 -247 12 -74 28 -164 35 -200 8 -36 19 -105 25 -154 5 -50 23 -151 40
-225 16 -75 31 -147 33 -161 3 -14 14 -72 26 -129 12 -58 23 -108 26 -113 3
-4 14 -42 24 -85 11 -43 24 -94 30 -113 5 -19 24 -98 41 -175 18 -77 43 -185
56 -240 13 -55 28 -125 33 -155 5 -30 14 -71 19 -90 6 -20 18 -45 26 -55 12
-16 16 -17 23 -7 6 9 4 38 -5 75 -8 34 -20 87 -28 117 -8 30 -32 129 -54 220
-22 91 -49 208 -61 260 -12 52 -32 131 -45 175 -13 44 -37 141 -54 215 -16 74
-39 180 -50 235 -11 55 -27 145 -35 200 -9 55 -21 132 -27 170 -6 39 -19 117
-29 175 -11 58 -24 143 -30 190 -6 47 -20 114 -30 150 -10 36 -28 97 -40 135
-12 39 -26 86 -31 105 -5 19 -12 44 -15 55 -2 11 -7 41 -11 67 -3 27 -11 52
-18 58z"/>
</g>
<g>
<path d="M3579 3900 c-3 0 -12 -6 -18 -14 -8 -10 10 -46 84 -162 52 -82 107
-174 123 -204 15 -31 38 -70 50 -87 12 -17 22 -33 22 -36 0 -3 23 -43 52 -89
28 -46 60 -99 70 -118 10 -19 31 -55 47 -80 15 -25 34 -45 42 -45 8 0 14 9 15
20 0 11 -12 38 -27 60 -14 22 -69 112 -121 200 -53 88 -110 187 -127 220 -17
33 -49 87 -70 120 -21 33 -61 95 -87 138 -26 42 -51 77 -55 77z"/>
</g>
</g>
</svg>
