<?xml version="1.0" standalone="no"?>
<!DOCTYPE svg PUBLIC "-//W3C//DTD SVG 20010904//EN"
 "http://www.w3.org/TR/2001/REC-SVG-20010904/DTD/svg10.dtd">
<svg version="1.0" xmlns="http://www.w3.org/2000/svg"
 width="1200.000000pt" height="1200.000000pt" viewBox="0 0 1200.000000 1200.000000"
 preserveAspectRatio="xMidYMid meet">
<metadata>
Created by potrace 1.16, written by Peter Selinger 2001-2019
</metadata>
<g transform="translate(0.000000,1200.000000) scale(0.100000,-0.100000)"
fill="#000000" stroke="none">
<g>
<path d="M6990 11364 c-30 2 -128 0 -217 -4 -116 -6 -181 -13 -230 -28 -46
-14 -108 -22 -193 -26 -78 -3 -142 -11 -170 -21 -25 -9 -67 -18 -94 -21 -27
-3 -70 -12 -95 -20 -25 -7 -58 -14 -73 -14 -14 0 -39 -11 -55 -24 -16 -13 -68
-42 -115 -65 -48 -22 -117 -61 -155 -87 -37 -25 -77 -54 -88 -64 -18 -17 -30
-18 -105 -10 -47 4 -157 6 -245 4 -88 -2 -200 -8 -250 -13 -49 -5 -124 -14
-165 -21 -41 -6 -89 -19 -106 -27 -17 -8 -48 -19 -70 -25 -21 -5 -61 -13 -89
-17 -27 -4 -63 -14 -80 -23 -16 -8 -48 -21 -70 -28 -22 -7 -60 -22 -85 -32
-25 -11 -64 -30 -86 -42 -23 -11 -77 -54 -120 -94 -59 -56 -87 -92 -116 -150
-22 -43 -54 -123 -73 -180 -19 -57 -40 -112 -45 -123 -10 -18 -19 -19 -138
-14 -70 3 -165 12 -212 20 -47 8 -127 19 -178 23 -51 4 -128 4 -170 -1 -42 -4
-86 -12 -97 -17 -11 -5 -37 -14 -58 -20 -22 -7 -51 -18 -65 -26 -14 -7 -51
-32 -81 -56 -30 -24 -85 -74 -122 -111 -37 -37 -87 -94 -110 -125 -24 -31 -51
-64 -60 -74 -9 -9 -38 -49 -64 -88 -26 -39 -67 -120 -92 -178 -24 -59 -46
-129 -50 -157 -3 -27 -14 -64 -24 -81 -13 -21 -15 -34 -8 -41 7 -7 7 -27 2
-59 -5 -27 -5 -71 -2 -99 4 -27 12 -84 18 -125 6 -41 11 -100 11 -131 0 -30
-6 -63 -13 -72 -7 -10 -46 -32 -87 -50 -41 -18 -102 -51 -135 -72 -33 -22 -71
-45 -85 -51 -14 -6 -50 -31 -80 -56 -30 -24 -76 -58 -102 -76 -25 -18 -52 -38
-60 -46 -7 -8 -42 -46 -78 -84 -36 -38 -80 -91 -99 -117 -19 -27 -48 -75 -63
-107 -16 -32 -34 -60 -39 -63 -5 -4 -9 -13 -9 -22 0 -8 -8 -27 -18 -41 -10
-15 -26 -47 -35 -71 -9 -24 -14 -47 -11 -52 2 -4 -10 -45 -27 -90 -18 -46 -33
-99 -34 -118 -1 -20 -7 -52 -13 -71 -6 -19 -12 -46 -12 -60 0 -14 0 -35 0 -48
0 -13 -10 -37 -23 -53 -21 -29 -22 -40 -22 -212 0 -121 4 -189 12 -202 6 -12
9 -34 5 -52 -4 -17 -23 -51 -42 -74 -19 -23 -54 -64 -77 -90 -23 -26 -44 -58
-48 -70 -4 -13 -20 -40 -36 -62 -16 -22 -29 -50 -29 -62 0 -13 -6 -28 -13 -34
-8 -6 -22 -30 -32 -53 -10 -24 -24 -59 -33 -78 -8 -19 -21 -47 -29 -62 -7 -14
-13 -36 -13 -47 0 -12 -4 -29 -9 -39 -6 -9 -19 -46 -31 -82 -11 -36 -22 -71
-24 -78 -1 -8 -7 -17 -12 -20 -5 -4 -9 -41 -9 -83 0 -53 -5 -82 -15 -94 -11
-14 -12 -19 -2 -22 8 -3 12 -29 12 -80 0 -44 7 -99 17 -130 14 -43 15 -58 5
-73 -9 -15 -9 -21 1 -27 6 -4 18 -24 25 -43 8 -19 24 -73 36 -119 14 -49 30
-87 39 -93 10 -5 17 -15 17 -23 0 -8 11 -34 24 -59 13 -25 33 -58 45 -74 11
-17 21 -34 21 -39 0 -5 26 -34 58 -66 32 -31 62 -57 68 -57 6 0 31 -23 56 -50
25 -27 48 -50 52 -50 3 0 51 -29 105 -65 55 -36 105 -65 112 -65 7 0 21 -7 31
-17 10 -9 28 -22 41 -29 12 -7 36 -19 53 -27 17 -8 35 -20 38 -26 4 -6 29 -22
55 -36 27 -13 61 -35 78 -49 l29 -25 -21 -83 c-12 -46 -25 -90 -28 -98 -3 -8
-16 -58 -27 -110 -11 -52 -25 -111 -30 -130 -6 -19 -19 -73 -30 -119 -11 -46
-20 -98 -20 -116 0 -17 -3 -35 -7 -39 -5 -4 -9 -69 -10 -144 -1 -76 -5 -177
-9 -227 -4 -49 -2 -155 5 -235 6 -80 16 -163 21 -185 6 -22 18 -68 27 -103 9
-36 26 -72 39 -85 13 -12 24 -29 24 -38 0 -8 7 -24 15 -35 8 -10 15 -27 15
-37 0 -10 11 -39 25 -65 14 -26 25 -52 25 -58 0 -6 7 -17 15 -24 8 -7 13 -15
10 -19 -2 -4 9 -27 26 -52 16 -24 29 -49 29 -56 0 -6 30 -44 67 -82 36 -39 70
-71 75 -71 5 0 29 -13 53 -30 24 -17 48 -30 53 -30 4 0 26 -15 48 -34 21 -18
75 -50 119 -71 44 -20 85 -38 90 -40 6 -1 24 -7 40 -14 17 -7 37 -17 45 -22 8
-5 30 -15 48 -23 18 -9 70 -22 115 -29 48 -9 89 -11 98 -6 10 5 32 2 59 -8 38
-15 45 -24 85 -106 27 -57 61 -107 94 -142 29 -30 80 -69 114 -88 34 -19 91
-47 127 -61 36 -15 74 -31 85 -36 11 -5 40 -11 65 -13 25 -3 74 -9 110 -15 36
-6 106 -11 155 -12 50 -1 186 1 304 4 117 4 221 11 231 16 10 6 26 10 35 10 9
0 41 12 71 26 30 14 54 31 54 37 0 7 11 24 25 39 14 15 25 36 25 48 0 11 -6
23 -14 26 -8 3 -25 0 -38 -7 -12 -7 -52 -19 -88 -28 -51 -13 -116 -16 -300
-15 -130 1 -262 6 -295 13 -33 6 -94 19 -135 29 -62 14 -86 25 -129 62 -30 25
-78 68 -107 95 -29 28 -55 59 -58 71 -6 19 -2 21 46 20 29 0 136 3 238 7 102
4 226 8 275 8 50 1 182 -1 295 -5 113 -4 223 -9 245 -13 22 -3 56 -7 75 -9 19
-2 55 -5 80 -8 25 -2 74 -13 110 -24 36 -10 89 -25 117 -31 29 -7 76 -26 105
-42 29 -15 90 -60 136 -98 46 -38 97 -75 113 -81 16 -7 29 -18 29 -24 1 -6 30
-30 66 -53 36 -24 70 -43 77 -43 7 0 20 -9 30 -20 9 -11 24 -20 32 -20 8 0 15
-4 15 -9 0 -5 24 -21 53 -35 28 -15 59 -31 67 -36 8 -5 46 -24 84 -43 39 -18
71 -37 73 -43 1 -5 -14 -16 -35 -25 -20 -9 -75 -28 -122 -44 -47 -15 -102 -39
-124 -52 -21 -14 -58 -43 -82 -65 -24 -22 -56 -61 -71 -86 -15 -26 -38 -72
-51 -102 -13 -30 -26 -64 -29 -75 -4 -11 -11 -23 -17 -27 -5 -4 -12 -36 -14
-72 -3 -52 -1 -69 13 -82 9 -9 23 -27 31 -40 8 -12 30 -29 49 -38 18 -9 46
-16 62 -16 15 0 77 11 136 24 58 14 128 35 154 48 27 13 53 28 58 34 6 6 44
38 86 71 42 33 86 66 99 73 12 7 50 33 83 59 33 25 77 61 96 78 20 18 40 33
44 33 4 0 25 18 47 40 22 22 48 40 59 40 11 0 22 -4 25 -9 3 -4 38 -19 78 -31
40 -13 78 -26 83 -30 6 -5 84 -26 175 -48 91 -23 192 -46 225 -52 33 -7 72
-13 86 -14 14 -2 30 -6 36 -9 6 -4 55 -12 109 -18 55 -6 127 -13 162 -15 35
-3 89 0 120 7 31 6 73 15 92 19 19 5 57 14 84 19 27 6 54 15 60 19 6 5 31 14
56 21 25 7 65 23 90 35 25 13 58 26 74 30 17 4 43 17 60 29 17 12 47 30 66 39
19 10 44 23 55 29 11 7 27 16 35 21 8 4 25 12 38 18 12 5 25 17 28 25 4 8 14
15 24 15 9 0 25 9 35 20 10 11 24 20 32 20 7 0 13 7 13 15 0 9 9 15 24 15 13
0 29 7 36 15 7 8 21 15 31 15 10 0 21 5 24 10 3 6 26 19 51 30 25 12 54 29 65
38 11 9 33 29 50 44 17 16 34 28 39 28 5 0 28 19 53 43 25 23 56 60 71 82 14
22 46 69 71 105 25 36 45 70 45 75 0 6 12 21 26 35 14 13 44 50 65 83 21 32
39 63 39 68 0 6 11 30 24 53 13 24 27 69 31 100 4 31 11 56 16 56 5 0 9 6 9
13 0 6 11 32 24 57 13 25 27 60 31 77 5 26 12 33 30 33 13 0 26 4 29 9 3 4 30
11 60 14 29 3 80 18 112 33 33 15 66 33 74 40 8 6 40 22 70 34 30 12 82 36
115 53 33 16 101 54 150 82 51 30 135 93 192 145 56 50 116 112 132 138 17 26
35 54 39 62 5 8 18 35 30 60 11 25 29 65 40 90 11 25 23 61 27 80 4 19 17 69
30 110 13 41 30 114 39 162 10 48 17 113 17 145 1 55 3 60 32 79 18 12 55 35
82 52 28 17 59 40 70 50 11 10 54 50 95 88 41 38 94 84 117 103 23 18 53 52
66 75 13 22 30 61 37 86 7 25 19 52 26 60 7 8 28 49 48 91 20 42 36 81 36 88
0 7 9 30 20 53 11 23 24 66 30 97 5 31 13 67 16 81 3 14 10 42 15 63 5 20 13
54 18 75 5 20 13 48 19 63 6 15 9 123 8 280 -2 243 -4 258 -29 342 -15 48 -27
96 -27 107 0 10 -4 21 -9 24 -4 3 -11 36 -15 73 -3 37 -15 93 -25 124 -11 31
-24 65 -30 75 -5 10 -17 50 -26 87 -9 37 -39 111 -66 164 -27 53 -60 108 -72
124 -12 15 -49 64 -81 108 -33 45 -64 85 -70 89 -6 4 -28 29 -49 57 -21 27
-35 55 -32 63 3 8 0 21 -6 28 -9 11 -8 14 3 14 8 0 31 17 50 38 19 20 63 60
97 87 34 28 92 75 129 106 37 31 97 89 134 130 37 41 78 90 92 109 14 19 30
44 35 56 5 12 27 48 47 80 21 32 49 82 62 109 13 28 32 73 42 100 10 28 21 68
25 90 4 22 12 43 18 47 9 6 8 8 -1 8 -7 0 -11 3 -8 8 2 4 10 78 17 164 10 126
10 166 0 200 -7 24 -19 56 -27 71 -8 16 -14 38 -14 50 0 12 -19 81 -41 152
-23 72 -50 142 -61 157 -10 14 -18 31 -18 36 0 6 -3 12 -7 14 -5 2 -20 19 -34
38 -14 19 -36 54 -49 78 -13 23 -47 60 -75 81 -27 21 -86 56 -130 79 -44 23
-110 53 -146 67 -36 14 -75 25 -87 25 -13 0 -55 9 -95 19 -39 11 -84 22 -99
25 -15 2 -65 12 -110 20 -46 9 -103 21 -129 26 -25 6 -73 12 -107 13 l-62 1 0
35 c0 19 -5 73 -11 120 -6 48 -15 104 -21 126 -5 22 -21 64 -34 93 -13 28 -28
52 -34 52 -5 0 -10 8 -10 18 -1 9 -12 31 -26 47 -14 17 -43 52 -65 78 -21 27
-36 54 -32 59 3 7 1 8 -5 4 -7 -4 -22 10 -37 34 -14 22 -53 68 -88 103 -46 47
-86 74 -157 110 -52 25 -115 58 -140 73 -25 14 -52 32 -60 40 -9 7 -24 13 -35
13 -11 1 -36 3 -56 7 -25 4 -39 1 -48 -10 -7 -8 -10 -24 -6 -36 3 -11 10 -20
14 -20 4 0 55 -35 112 -77 57 -42 133 -101 169 -130 36 -29 73 -61 83 -71 10
-9 38 -46 62 -82 23 -36 46 -75 49 -87 4 -11 13 -26 21 -33 8 -6 11 -19 8 -27
-4 -9 0 -21 8 -27 8 -6 20 -24 28 -41 7 -16 19 -43 26 -60 8 -16 21 -55 31
-86 13 -43 15 -73 9 -133 -4 -44 -12 -79 -18 -80 -7 -2 -48 -9 -92 -15 -44 -7
-84 -12 -90 -12 -5 1 -73 3 -150 6 -77 3 -180 7 -230 9 -49 2 -115 7 -145 11
-30 4 -91 22 -135 40 -44 18 -100 41 -125 50 -25 9 -88 48 -140 88 -58 45
-105 89 -122 117 -15 25 -30 52 -34 60 -3 8 -19 43 -35 77 -16 34 -29 70 -29
80 0 10 -8 34 -19 53 -10 19 -23 58 -29 85 -6 28 -14 73 -17 100 -3 28 -10 61
-14 75 -5 14 -14 48 -20 75 -6 28 -16 93 -21 145 -5 52 -15 118 -21 145 -6 28
-15 111 -20 185 -5 74 -13 173 -18 220 -5 47 -13 103 -19 125 -8 29 -8 43 1
54 10 11 8 13 -11 7 -17 -6 -22 -3 -22 11 0 10 -7 26 -14 36 -7 9 -11 28 -8
42 2 14 0 25 -6 25 -5 0 -26 16 -47 37 -20 20 -48 57 -62 82 -13 25 -35 58
-46 73 -12 16 -33 42 -45 58 -13 17 -27 30 -32 30 -4 0 -39 20 -77 44 -37 25
-72 49 -78 53 -5 5 -26 16 -45 25 -19 9 -64 26 -100 38 -36 12 -74 25 -85 30
-11 5 -36 14 -55 20 -19 7 -55 17 -80 22 -25 5 -70 10 -100 12z m-210 -365
c91 0 185 -4 210 -10 25 -6 52 -12 62 -14 9 -2 29 -10 46 -19 16 -8 32 -13 34
-10 3 2 11 -2 18 -11 7 -8 28 -15 47 -15 20 0 70 -17 118 -40 46 -22 87 -40
93 -40 5 0 41 -30 79 -67 42 -41 73 -80 77 -98 4 -16 11 -32 14 -35 4 -3 19
-21 33 -40 14 -19 37 -60 51 -90 14 -30 30 -84 36 -120 6 -36 14 -85 17 -110
3 -25 13 -117 20 -205 8 -88 19 -180 24 -205 5 -25 12 -63 15 -85 4 -22 14
-83 22 -135 9 -52 22 -129 31 -170 8 -41 25 -106 38 -145 13 -38 34 -99 48
-135 14 -36 47 -112 74 -170 37 -78 63 -117 99 -152 27 -26 90 -75 139 -109
49 -33 118 -74 152 -90 34 -16 68 -29 76 -29 7 0 17 -4 23 -8 5 -5 29 -15 54
-22 25 -8 54 -20 66 -27 12 -8 84 -18 170 -25 82 -6 210 -12 284 -13 74 -1
178 2 230 5 52 4 101 5 109 2 12 -4 13 -30 7 -146 -4 -78 -10 -184 -14 -236
-3 -52 -5 -176 -5 -275 0 -99 3 -223 6 -275 4 -52 8 -124 11 -160 2 -36 11
-85 20 -109 9 -24 16 -57 16 -74 0 -17 5 -47 11 -66 7 -20 28 -74 47 -121 19
-47 49 -101 66 -121 17 -20 45 -53 61 -75 17 -21 35 -50 41 -64 7 -14 33 -47
58 -74 25 -27 46 -58 46 -67 0 -10 -16 -35 -37 -55 -20 -20 -55 -49 -79 -64
-24 -15 -41 -29 -39 -32 3 -3 -7 -14 -22 -24 -15 -10 -47 -38 -73 -61 -29 -27
-57 -65 -75 -107 -17 -36 -42 -72 -57 -82 -17 -12 -29 -31 -33 -53 -4 -20 -12
-45 -18 -56 -6 -11 -10 -25 -9 -32 2 -7 -6 -21 -18 -33 -11 -11 -20 -31 -20
-45 0 -14 -4 -25 -9 -25 -5 0 -8 -11 -7 -25 1 -14 6 -28 9 -32 4 -3 3 -11 -2
-17 -4 -6 -16 -40 -26 -75 -15 -55 -16 -88 -10 -220 4 -86 11 -157 16 -159 5
-2 9 -13 9 -24 0 -11 7 -52 16 -92 9 -39 25 -102 36 -141 11 -38 46 -122 76
-185 31 -63 72 -135 90 -160 19 -25 56 -91 83 -148 27 -56 49 -108 49 -115 0
-7 12 -44 26 -82 14 -39 30 -83 35 -100 5 -16 18 -49 29 -72 11 -24 20 -52 20
-62 0 -11 5 -32 11 -48 6 -15 17 -48 24 -73 7 -25 16 -55 20 -67 6 -19 4 -23
-13 -23 -11 0 -25 -7 -32 -15 -7 -9 -34 -25 -59 -37 -25 -11 -53 -26 -61 -33
-8 -7 -26 -16 -40 -20 -14 -4 -36 -16 -49 -26 -13 -11 -37 -19 -53 -19 -16 0
-41 -8 -56 -17 -15 -10 -46 -32 -70 -50 -24 -18 -51 -33 -60 -33 -9 -1 -35
-12 -57 -25 -22 -14 -51 -30 -65 -36 -14 -6 -45 -20 -70 -31 -26 -11 -75 -47
-110 -80 -36 -33 -86 -71 -112 -84 -27 -13 -48 -29 -48 -34 0 -6 -8 -18 -17
-28 -10 -10 -28 -33 -40 -50 -13 -17 -23 -36 -23 -41 0 -5 -10 -22 -23 -38
-12 -15 -28 -41 -35 -56 -7 -15 -12 -36 -12 -46 0 -11 -7 -21 -15 -25 -8 -3
-15 -12 -15 -20 0 -9 -11 -39 -24 -68 -14 -29 -29 -69 -35 -88 -5 -19 -14 -48
-20 -65 -5 -16 -15 -57 -22 -90 -7 -33 -16 -68 -21 -77 -8 -16 -12 -16 -61 3
-28 12 -74 29 -102 39 -27 9 -115 41 -195 70 -80 28 -194 65 -255 82 -60 16
-148 34 -195 39 -56 6 -115 5 -175 -2 -49 -6 -121 -21 -160 -32 -38 -11 -77
-26 -86 -34 -8 -7 -20 -13 -25 -13 -5 0 -35 -20 -66 -45 -32 -25 -61 -45 -65
-45 -5 0 -67 -60 -138 -133 -72 -72 -154 -165 -183 -206 -29 -41 -52 -83 -52
-92 0 -10 -6 -22 -14 -26 -7 -4 -25 -26 -40 -48 -14 -22 -42 -62 -62 -90 -19
-27 -51 -70 -70 -96 -19 -26 -34 -52 -34 -57 0 -6 -21 -37 -47 -69 -26 -32
-59 -68 -75 -81 -15 -12 -30 -33 -34 -45 -4 -12 -18 -37 -33 -54 -14 -18 -74
-82 -133 -143 -60 -60 -108 -114 -108 -119 0 -5 -10 -11 -22 -15 -15 -3 -43 5
-78 23 -30 15 -77 39 -105 53 -27 15 -63 32 -80 40 -16 7 -64 33 -105 58 -41
24 -77 47 -80 50 -3 3 -30 19 -60 34 -30 15 -68 41 -85 56 -16 15 -73 59 -125
97 -52 39 -105 75 -117 82 -12 6 -37 25 -55 41 -18 17 -48 36 -65 42 -18 7
-33 18 -33 25 0 8 -8 17 -17 20 -10 4 -28 17 -41 29 -13 12 -47 41 -76 63 -28
22 -120 74 -204 116 -83 41 -193 89 -244 106 -50 16 -126 37 -167 46 -63 13
-142 16 -451 17 -206 0 -438 -1 -515 -3 -77 -2 -174 -1 -215 2 -41 2 -85 5
-97 6 -18 1 -23 7 -23 29 0 15 7 45 15 67 7 22 23 59 34 81 11 23 36 95 55
160 19 66 49 180 67 254 31 125 34 148 35 310 1 111 -4 204 -12 255 -8 44 -26
116 -39 160 -14 44 -36 99 -48 122 -12 23 -35 63 -51 90 -16 26 -53 77 -82
113 -28 36 -67 81 -86 100 -18 19 -49 48 -68 64 -19 17 -51 35 -71 42 -20 8
-59 27 -85 44 -26 16 -54 30 -61 30 -6 0 -38 18 -69 40 -32 22 -62 40 -67 40
-6 0 -25 11 -43 25 -18 14 -39 25 -48 25 -8 0 -18 5 -21 10 -3 5 -16 10 -28
10 -12 0 -28 4 -36 9 -11 7 -11 32 -1 152 6 79 13 157 15 173 1 16 -1 52 -5
80 -4 28 -13 78 -19 111 -6 33 -23 110 -37 170 -15 61 -33 126 -40 145 -7 19
-16 52 -20 73 -3 20 -10 40 -15 43 -5 3 -9 20 -9 38 0 17 -4 36 -9 42 -5 5
-23 52 -41 104 -18 52 -43 119 -56 149 -13 29 -24 59 -24 66 0 7 -14 39 -31
71 -17 33 -35 63 -40 69 -5 5 -9 15 -9 23 0 8 -13 31 -28 51 -16 20 -37 56
-46 81 -10 25 -24 52 -31 60 -8 8 -18 26 -24 40 -6 14 -24 48 -41 75 -16 28
-43 79 -60 113 -16 35 -30 69 -30 75 0 7 -14 39 -30 71 -16 33 -29 60 -27 61
1 0 35 23 76 50 41 27 112 80 158 117 47 37 117 102 156 145 40 42 102 109
139 148 36 38 82 93 101 122 19 29 58 98 85 155 28 57 57 128 66 158 8 30 31
117 51 192 20 75 36 156 35 180 0 24 2 76 6 116 4 39 8 72 9 72 1 0 26 4 56
10 30 5 72 12 94 14 22 3 58 7 80 10 22 3 85 10 140 16 55 6 143 18 195 26 52
9 99 20 105 25 5 5 16 9 24 9 8 0 39 12 70 26 31 14 99 46 151 72 52 26 97 50
100 53 3 3 30 17 60 31 30 15 74 46 98 69 23 24 42 51 42 60 0 10 11 31 25 47
14 17 25 33 25 36 0 3 9 28 21 54 12 26 25 56 29 67 5 11 13 40 18 65 6 25 17
70 25 100 8 30 18 78 22 105 5 28 9 82 10 120 2 39 14 135 28 214 15 80 24
148 21 153 -3 5 1 19 10 32 14 22 23 24 143 30 70 3 146 8 168 10 22 3 81 16
130 29 50 13 108 33 130 44 22 11 74 39 116 61 42 22 120 70 174 107 54 36
119 77 144 90 25 12 76 50 113 84 36 34 73 61 82 61 9 0 43 19 74 42 31 23 91
77 133 120 42 43 81 78 87 78 7 0 12 -4 12 -9 0 -5 25 -22 55 -36 30 -15 59
-33 65 -40 6 -7 33 -22 60 -34 27 -12 52 -26 55 -31 3 -6 16 -10 29 -10 13 0
31 -9 40 -19 10 -11 51 -32 92 -47 40 -14 79 -33 85 -40 6 -8 22 -14 35 -14
12 0 25 -4 28 -9 3 -5 26 -18 51 -30 25 -11 53 -21 63 -21 11 0 27 -9 37 -20
10 -11 26 -22 36 -25 11 -4 42 -22 70 -41 28 -19 56 -34 63 -34 6 0 29 -9 50
-19 20 -11 52 -25 69 -31 18 -7 57 -18 87 -26 30 -7 91 -13 134 -14 44 0 96 5
115 11 20 7 53 19 75 27 23 10 56 37 82 70 25 30 53 74 64 97 10 23 26 68 35
101 14 49 15 64 4 89 -7 17 -13 33 -13 37 -1 3 -21 29 -46 58 -25 28 -58 57
-75 65 -16 8 -73 28 -126 45 -53 16 -113 30 -133 30 -20 0 -44 4 -54 9 -9 5
-46 18 -82 29 -36 11 -94 28 -130 37 -36 9 -78 20 -95 25 -16 5 -61 16 -100
25 -38 10 -101 27 -140 40 -38 12 -103 38 -142 56 -40 19 -73 36 -73 39 0 3
17 7 38 8 20 1 60 9 87 16 28 8 68 17 90 21 22 4 54 13 70 20 17 7 86 16 155
20 69 3 141 10 160 16 19 6 44 14 55 18 11 5 31 13 45 19 14 6 98 11 190 11z
m-1576 -104 c78 -3 163 -8 191 -11 27 -3 53 -8 59 -11 5 -4 44 -9 87 -13 61
-5 85 -12 111 -32 18 -14 65 -35 103 -48 39 -13 77 -24 85 -25 8 -1 25 -7 37
-13 12 -7 27 -12 34 -12 7 0 20 -6 28 -13 9 -7 36 -20 61 -27 25 -7 52 -19 60
-26 8 -7 65 -24 125 -39 61 -15 118 -31 127 -36 10 -5 39 -14 65 -19 27 -5 89
-21 138 -35 50 -13 102 -25 117 -25 15 0 29 -4 32 -9 3 -5 32 -12 63 -16 32
-3 78 -12 103 -20 25 -7 60 -21 77 -30 18 -9 35 -20 38 -25 3 -5 -9 -12 -27
-15 -18 -4 -41 -16 -50 -26 -10 -10 -18 -27 -18 -38 0 -11 5 -31 11 -45 7 -16
23 -28 42 -32 26 -5 35 -2 54 21 13 15 27 40 30 56 5 24 8 27 20 17 11 -9 13
-23 8 -55 -3 -23 -18 -64 -32 -90 -14 -27 -40 -61 -57 -78 -18 -16 -45 -36
-61 -44 -17 -8 -58 -16 -93 -18 -34 -3 -95 1 -135 7 -40 6 -106 25 -147 42
-41 16 -91 37 -110 47 -19 9 -65 34 -102 55 -37 21 -70 41 -73 46 -3 5 -27 12
-53 16 -26 3 -51 10 -57 14 -5 5 -32 20 -59 34 -27 14 -54 26 -61 26 -7 0 -24
9 -38 20 -14 11 -30 20 -37 20 -6 0 -31 14 -55 30 -24 17 -48 30 -53 30 -6 0
-36 15 -69 33 -32 17 -71 39 -88 47 -16 8 -49 30 -73 48 -24 17 -50 32 -58 32
-7 0 -21 11 -30 25 -9 14 -22 25 -29 25 -8 0 -21 7 -29 16 -9 8 -20 13 -25 10
-5 -4 -40 5 -78 18 -37 13 -88 29 -113 36 -25 7 -55 16 -67 21 -12 4 -66 11
-120 15 -80 5 -113 3 -178 -14 -44 -10 -100 -28 -125 -39 -25 -11 -70 -28
-100 -38 -30 -10 -72 -31 -95 -47 -22 -15 -58 -41 -80 -57 -22 -16 -72 -52
-112 -80 -39 -27 -81 -58 -93 -68 -11 -10 -52 -49 -91 -88 -39 -39 -81 -93
-96 -123 -14 -29 -29 -54 -33 -57 -4 -2 -37 -2 -74 2 -62 5 -66 7 -60 27 3 12
13 35 21 51 8 17 26 62 40 100 13 39 30 84 38 100 7 17 16 40 19 52 4 12 42
54 84 92 42 39 82 71 88 71 6 0 22 9 36 20 14 10 45 26 69 35 24 9 67 23 94
31 28 9 75 25 105 36 30 10 78 26 105 34 28 9 70 20 95 25 25 5 99 16 165 24
66 8 142 17 170 20 27 4 52 8 54 11 2 2 68 2 145 -1z m-214 -208 c52 -3 116
-11 143 -18 26 -7 47 -17 47 -21 0 -4 -19 -21 -42 -38 -22 -16 -46 -30 -52
-30 -6 0 -22 -11 -36 -23 -14 -12 -33 -34 -42 -48 -9 -15 -48 -44 -85 -65 -37
-21 -74 -44 -82 -51 -7 -8 -39 -30 -70 -50 -31 -20 -75 -47 -99 -60 -24 -13
-73 -30 -110 -40 -37 -9 -72 -20 -78 -25 -7 -5 -43 -17 -80 -28 -38 -11 -120
-23 -182 -27 l-113 -6 22 43 c12 23 50 70 84 104 34 33 94 86 135 116 41 30
110 79 153 108 44 29 112 66 152 82 39 17 80 32 91 35 10 2 46 11 79 20 32 9
62 18 64 21 3 3 48 3 101 1z m-1845 -824 c28 -3 66 -7 85 -9 19 -2 67 -8 105
-14 39 -6 115 -15 170 -21 55 -5 119 -12 142 -15 41 -5 42 -6 49 -49 3 -25 4
-86 1 -137 -3 -51 -11 -147 -16 -213 -6 -66 -13 -142 -17 -170 -4 -33 -15 -62
-35 -87 -16 -20 -29 -40 -29 -45 0 -4 -26 -35 -58 -68 -32 -33 -75 -75 -96
-92 -21 -18 -55 -35 -75 -38 -20 -3 -58 -10 -86 -15 -27 -5 -108 -10 -180 -11
-71 -2 -182 0 -245 3 -90 5 -136 2 -214 -13 -54 -11 -102 -21 -106 -24 -5 -3
-11 -1 -15 5 -3 5 -11 43 -17 83 -5 39 -12 124 -15 187 -3 81 0 139 12 200 9
47 25 108 37 135 11 28 44 79 73 115 29 36 83 96 121 133 38 37 74 67 81 67 6
0 24 11 40 24 15 13 51 31 78 41 28 10 75 21 105 25 30 5 78 6 105 3z m684
-73 c27 0 61 -4 75 -10 18 -6 26 -17 26 -33 0 -13 -4 -37 -10 -53 -5 -16 -11
-58 -14 -94 -2 -36 -12 -108 -20 -160 -9 -52 -16 -117 -16 -145 0 -27 -5 -68
-11 -90 -6 -22 -17 -65 -24 -95 -8 -30 -23 -83 -33 -117 -11 -35 -37 -93 -58
-130 -21 -38 -43 -77 -49 -88 -6 -11 -35 -34 -65 -51 -30 -18 -118 -64 -195
-103 -77 -38 -176 -81 -220 -95 -44 -13 -154 -34 -245 -46 -91 -12 -203 -24
-250 -27 -47 -3 -95 -9 -108 -14 -13 -5 -37 -9 -53 -9 -16 0 -47 -9 -69 -20
-21 -11 -59 -21 -84 -23 -26 -3 -73 -19 -108 -37 -35 -18 -81 -41 -103 -52
-22 -11 -49 -28 -60 -38 -11 -10 -55 -42 -99 -71 -43 -30 -92 -64 -110 -76
-17 -11 -58 -47 -91 -80 -33 -32 -84 -94 -113 -137 -29 -44 -57 -98 -64 -120
-6 -23 -18 -50 -25 -61 -7 -11 -13 -27 -13 -36 0 -8 -9 -44 -20 -78 -11 -34
-22 -83 -25 -109 -2 -26 -5 -56 -7 -67 -2 -11 -7 -25 -10 -30 -3 -6 -11 -58
-18 -116 -12 -104 -13 -106 -55 -150 -23 -24 -61 -59 -84 -77 l-41 -33 -11 27
c-6 17 -9 91 -7 183 3 120 8 173 25 231 11 41 28 116 38 165 9 50 23 104 30
120 7 17 22 59 33 95 12 36 29 88 39 115 10 28 31 68 46 90 15 22 44 64 63 93
19 30 34 57 34 61 0 4 33 41 73 82 40 41 93 93 117 116 25 22 71 57 102 77 31
20 59 36 62 36 3 0 27 15 53 33 26 17 50 35 51 40 2 4 9 7 15 7 6 0 18 6 26
14 9 7 43 24 76 37 33 13 69 29 80 36 11 6 31 13 45 15 14 2 44 13 66 25 23
12 59 26 80 32 22 6 86 18 144 27 65 10 156 16 240 14 74 -1 171 -3 215 -5 44
-1 100 1 125 5 25 4 77 13 115 19 39 6 81 17 95 24 14 6 41 23 60 37 20 14 59
45 88 69 29 24 52 49 52 55 0 6 12 22 26 36 14 13 37 48 50 77 12 29 28 79 35
111 6 31 10 73 10 93 -1 20 3 58 9 85 7 27 13 99 15 159 2 61 4 138 5 173 l0
62 49 0z m5576 -320 c8 -7 15 -17 15 -23 0 -5 16 -28 35 -51 20 -22 42 -48 50
-57 8 -9 15 -21 15 -27 0 -6 10 -28 22 -49 16 -27 26 -68 35 -143 6 -58 14
-116 18 -130 4 -15 1 -32 -7 -43 -10 -13 -21 -17 -38 -12 -24 6 -25 9 -26 103
-1 53 -5 113 -9 132 -4 19 -11 40 -15 45 -4 6 -17 37 -28 71 -11 33 -34 87
-51 119 -17 33 -31 63 -31 68 0 5 7 4 15 -3z m-707 -862 c28 -1 52 -5 52 -10
0 -4 -17 -8 -37 -8 -21 0 -45 5 -53 10 -11 8 0 10 38 8z m107 -11 c28 0 40 -2
28 -4 -13 -2 -35 -2 -50 0 -16 2 -5 4 22 4z m440 1 c55 2 97 0 93 -3 -3 -3
-28 -8 -54 -10 -27 -2 -101 -4 -164 -6 -63 -1 -146 0 -185 2 -52 2 -34 5 70 9
77 3 185 6 240 8z m315 -30 l45 -3 -3 -94 c-1 -52 -4 -97 -7 -101 -2 -3 -7
-73 -10 -154 -4 -82 -10 -159 -15 -172 -5 -13 -14 -73 -21 -133 -6 -60 -8
-147 -5 -193 3 -45 8 -99 10 -118 2 -19 17 -89 34 -154 17 -65 36 -122 42
-126 6 -4 16 -40 21 -81 6 -41 19 -87 29 -104 10 -16 21 -45 25 -63 4 -17 24
-51 46 -74 21 -23 39 -48 39 -55 0 -7 15 -27 33 -45 18 -18 62 -59 99 -90 36
-32 70 -58 76 -58 6 0 21 -14 34 -31 13 -17 35 -44 51 -59 15 -15 27 -38 27
-49 0 -12 23 -52 52 -89 28 -37 72 -89 98 -117 25 -27 66 -77 91 -110 24 -33
56 -82 71 -110 15 -27 43 -81 62 -120 19 -38 39 -92 45 -118 7 -27 27 -81 45
-120 27 -57 35 -89 39 -152 3 -52 14 -108 32 -155 14 -41 31 -93 36 -115 6
-22 8 -139 6 -275 -4 -181 -8 -243 -20 -270 -8 -19 -21 -63 -27 -98 -7 -34
-17 -65 -21 -68 -5 -3 -9 -16 -9 -29 0 -13 -5 -36 -12 -52 -7 -15 -12 -32 -13
-38 -1 -5 -8 -26 -17 -45 -8 -19 -18 -48 -22 -65 -4 -16 -19 -55 -33 -85 -14
-30 -37 -80 -51 -110 -14 -30 -43 -79 -64 -107 -21 -29 -44 -53 -51 -53 -7 0
-49 -38 -94 -85 -47 -48 -104 -96 -132 -111 -28 -14 -54 -30 -57 -35 -3 -5 -9
-9 -15 -9 -5 0 -9 8 -9 18 0 9 -7 35 -15 57 -8 22 -14 74 -14 115 -1 41 2 85
5 98 4 12 13 22 21 22 9 0 38 17 67 37 28 21 53 41 55 46 2 5 18 22 37 39 19
17 34 35 34 40 0 5 11 25 24 46 13 20 27 52 31 71 4 18 15 48 25 65 10 17 21
46 25 64 4 18 13 45 21 60 8 15 14 37 14 48 0 12 7 27 15 34 8 7 15 23 15 36
0 13 7 44 15 69 9 25 18 62 21 83 3 20 7 62 9 92 2 30 11 91 20 135 11 58 14
112 10 195 -3 63 -7 158 -10 210 -2 52 -13 124 -24 160 -10 36 -34 110 -52
165 -18 55 -37 107 -43 115 -6 8 -17 25 -24 38 -7 13 -27 49 -43 80 -17 31
-37 64 -44 72 -7 8 -34 46 -59 84 -25 38 -46 71 -46 73 0 2 -27 35 -60 73 -33
39 -67 82 -77 97 -9 16 -25 38 -36 50 -11 12 -20 32 -21 45 -1 13 -7 22 -14
21 -6 -2 -16 6 -22 17 -6 11 -8 25 -5 30 3 6 0 10 -7 10 -7 1 -25 17 -41 37
-15 20 -43 55 -63 77 -19 23 -63 79 -98 126 -34 47 -78 112 -96 145 -18 33
-36 65 -40 70 -3 6 -12 30 -19 55 -6 25 -16 54 -21 65 -5 11 -16 63 -25 115
-10 52 -19 111 -20 130 -2 19 -7 73 -10 120 -4 47 -7 146 -8 220 -1 74 2 198
7 275 5 77 11 144 14 149 3 5 9 64 13 130 5 67 10 130 11 141 2 11 8 23 13 28
6 4 30 6 55 5z m140 -8 c5 0 44 -5 87 -10 43 -6 96 -15 118 -20 22 -5 81 -16
130 -25 50 -8 108 -20 130 -26 22 -6 69 -20 105 -31 36 -11 93 -34 127 -51 35
-16 60 -34 57 -39 -3 -5 13 -25 36 -46 23 -20 51 -54 63 -74 12 -20 44 -70 71
-110 34 -49 62 -109 88 -185 20 -62 42 -141 48 -175 6 -35 13 -75 16 -90 3
-15 -6 -52 -20 -88 -14 -35 -40 -83 -58 -107 -18 -24 -50 -66 -70 -92 -21 -28
-48 -51 -63 -55 -19 -5 -25 -11 -21 -22 4 -10 -1 -18 -14 -21 -11 -3 -20 -11
-20 -18 0 -7 -21 -29 -47 -48 -27 -18 -84 -64 -128 -100 -43 -37 -83 -67 -86
-67 -4 0 -10 -9 -14 -19 -3 -11 -16 -23 -29 -28 -13 -4 -38 -19 -56 -33 -18
-14 -46 -36 -64 -50 -17 -14 -46 -33 -65 -44 l-33 -19 -67 70 c-49 51 -79 94
-113 164 -25 53 -49 118 -53 145 -4 27 -13 67 -20 89 -7 22 -24 69 -38 105
-14 36 -32 118 -42 182 -12 83 -15 142 -10 205 3 48 8 102 9 118 2 17 8 62 15
100 6 39 10 106 8 150 -1 44 3 100 10 124 7 24 13 73 13 108 0 35 -4 73 -10
83 -5 10 -7 26 -4 34 3 9 10 16 14 16z m-7357 -299 c4 -4 -2 -43 -14 -87 -12
-43 -25 -106 -29 -139 -4 -33 -15 -76 -24 -95 -9 -19 -25 -51 -37 -70 -12 -19
-35 -70 -52 -114 -28 -73 -38 -87 -160 -213 -72 -74 -162 -158 -201 -187 -39
-29 -78 -56 -86 -60 -8 -4 -25 -13 -38 -20 -12 -7 -34 -24 -47 -36 -14 -13
-28 -20 -32 -16 -4 4 3 64 16 134 12 70 27 151 32 181 5 29 16 66 24 82 8 15
15 35 15 44 0 8 4 23 10 33 5 9 21 42 35 72 14 30 35 72 47 93 12 21 45 62 73
90 29 29 69 66 91 82 21 17 85 63 140 103 56 40 108 72 116 72 8 0 31 11 50
24 19 13 41 26 49 28 8 3 17 2 22 -1z m-730 -1428 c4 -2 7 -13 7 -23 0 -10 7
-25 15 -33 7 -8 17 -27 21 -43 4 -16 13 -35 21 -42 7 -7 13 -19 13 -26 0 -8
12 -35 27 -62 15 -27 30 -51 34 -54 3 -3 10 -16 15 -30 4 -14 8 -27 9 -30 0
-3 12 -26 28 -52 15 -26 27 -50 27 -55 0 -5 13 -24 29 -43 15 -19 31 -45 35
-57 4 -11 13 -27 21 -33 8 -7 15 -22 15 -34 0 -12 12 -39 27 -61 15 -22 36
-62 46 -90 10 -27 20 -57 22 -65 2 -8 10 -32 19 -52 9 -20 20 -39 25 -42 5 -3
12 -22 16 -42 3 -20 12 -50 20 -68 7 -17 21 -58 31 -91 11 -33 21 -62 25 -65
3 -3 6 -14 6 -25 1 -11 4 -33 8 -50 3 -16 10 -34 14 -40 5 -5 11 -28 14 -50 2
-22 14 -76 25 -120 11 -44 26 -116 32 -160 7 -44 12 -93 11 -110 0 -16 -1 -54
-1 -84 0 -29 -7 -97 -16 -150 -8 -53 -18 -123 -21 -156 -3 -33 -12 -68 -20
-77 -8 -9 -13 -21 -10 -26 3 -4 -2 -34 -12 -65 -9 -31 -20 -59 -24 -63 -4 -4
-7 -14 -7 -21 0 -8 -9 -34 -21 -59 -11 -25 -29 -79 -39 -119 -10 -40 -23 -82
-29 -92 -5 -10 -16 -34 -25 -55 -9 -20 -16 -44 -16 -54 0 -10 -4 -31 -9 -48
-5 -17 -20 -65 -32 -106 -12 -41 -33 -108 -47 -149 -23 -71 -24 -77 -14 -230
6 -86 16 -169 23 -186 6 -16 14 -38 16 -49 2 -10 12 -31 23 -46 11 -16 20 -33
20 -39 0 -6 24 -42 52 -79 29 -37 73 -87 98 -112 25 -25 67 -71 94 -103 27
-32 66 -65 85 -74 20 -9 50 -27 67 -40 17 -13 35 -23 39 -23 5 0 17 -7 27 -17
10 -9 28 -22 41 -29 12 -7 36 -20 52 -28 17 -7 41 -19 55 -25 14 -6 32 -15 40
-20 8 -5 22 -12 30 -15 8 -3 22 -10 30 -16 8 -5 34 -14 58 -20 l42 -11 -7 -57
c-4 -31 -7 -87 -7 -124 0 -47 5 -73 16 -85 9 -10 19 -47 23 -86 l7 -67 -56 0
c-32 0 -89 7 -129 16 -40 9 -110 35 -157 58 -47 22 -90 41 -95 41 -6 0 -33 13
-60 28 -28 16 -55 31 -61 35 -6 4 -54 35 -105 70 -52 35 -115 83 -141 108 -34
33 -62 78 -103 162 -31 65 -72 149 -91 189 -19 39 -34 76 -34 83 0 6 -11 36
-25 66 -14 30 -30 76 -36 102 -6 26 -13 79 -15 117 -2 39 -6 126 -9 195 -2 69
0 159 5 200 5 41 12 113 14 160 3 47 18 151 35 232 17 80 35 157 41 170 5 12
16 52 24 88 8 36 20 83 26 105 6 22 16 56 21 75 6 19 13 49 16 65 2 17 12 46
21 65 8 19 21 58 28 85 7 28 17 68 23 90 5 22 17 74 27 115 12 50 19 125 21
225 1 83 -2 173 -8 202 -5 28 -12 72 -14 96 -2 25 -8 53 -13 63 -5 11 -17 51
-26 89 -10 39 -21 86 -26 105 -4 19 -14 51 -21 70 -8 19 -22 49 -31 65 -10 17
-29 53 -44 80 -14 28 -41 68 -58 90 -17 22 -41 53 -51 69 -11 16 -28 41 -37
55 -10 14 -27 42 -38 61 -11 19 -26 44 -33 55 -6 11 -23 38 -37 60 -14 22 -32
56 -40 75 -7 19 -26 61 -41 93 -15 31 -31 72 -34 90 -4 17 -11 37 -16 42 -4 6
-11 24 -14 40 -3 17 -8 44 -11 60 -4 27 2 35 47 70 28 22 65 50 82 61 18 12
35 20 40 17z m-245 -225 c8 -18 15 -37 16 -43 1 -5 7 -25 15 -42 7 -18 18 -33
23 -33 5 0 9 -10 8 -22 -1 -13 -2 -33 -1 -45 1 -14 7 -23 18 -23 9 0 13 -3 10
-6 -3 -4 -1 -16 5 -28 7 -11 13 -28 13 -36 0 -8 3 -19 6 -25 4 -5 10 -25 14
-43 3 -18 14 -40 23 -49 9 -9 17 -19 17 -22 1 -3 6 -16 13 -28 7 -12 21 -25
32 -28 11 -3 20 -15 20 -26 0 -10 4 -19 9 -19 5 0 19 -19 31 -43 12 -23 40
-63 64 -88 24 -26 50 -57 60 -70 9 -13 16 -34 16 -46 0 -13 5 -23 10 -23 6 0
10 -8 11 -17 0 -10 9 -31 20 -48 10 -16 20 -34 22 -40 2 -5 10 -26 16 -45 7
-19 17 -51 21 -70 5 -19 18 -75 29 -125 12 -49 23 -106 25 -125 3 -19 7 -53
10 -75 3 -22 6 -87 7 -145 1 -58 -1 -120 -6 -139 l-7 -34 -23 27 c-12 14 -28
26 -35 26 -6 0 -23 9 -37 20 -14 11 -31 20 -38 20 -7 0 -18 7 -25 16 -8 8 -27
22 -44 29 -17 8 -40 20 -51 27 -10 7 -57 41 -103 76 -46 34 -90 62 -97 62 -8
0 -18 6 -22 13 -4 7 -33 29 -63 49 -30 21 -81 62 -113 92 -46 44 -70 80 -122
183 -35 70 -70 155 -79 188 -8 33 -20 101 -27 150 -11 84 -11 96 8 160 11 39
26 99 33 135 6 35 22 85 35 110 13 25 41 70 62 101 21 31 52 74 68 95 17 20
43 53 59 71 l29 34 15 -33z m8602 -189 c8 -13 25 -32 38 -43 12 -11 22 -24 22
-29 0 -5 14 -25 30 -44 17 -18 30 -39 30 -46 0 -7 9 -18 20 -25 11 -7 20 -17
20 -22 0 -6 22 -45 49 -88 27 -42 59 -89 71 -104 12 -15 22 -37 23 -48 1 -11
5 -20 9 -20 4 0 8 -8 8 -17 0 -9 8 -35 19 -57 10 -23 30 -81 44 -131 14 -49
29 -119 32 -155 3 -36 8 -130 11 -210 3 -80 1 -171 -4 -202 -5 -33 -5 -63 0
-72 5 -9 5 -16 1 -16 -5 0 -14 -24 -21 -53 -6 -29 -12 -65 -12 -81 0 -15 -12
-67 -26 -115 -14 -47 -32 -98 -40 -114 -9 -15 -30 -74 -49 -131 -19 -58 -45
-122 -59 -143 -14 -21 -41 -59 -59 -85 -18 -26 -45 -56 -59 -68 -15 -11 -30
-20 -34 -20 -4 0 -16 -8 -26 -17 -14 -12 -21 -14 -30 -5 -6 6 -11 31 -12 56
-1 24 -4 42 -7 40 -3 -2 -12 16 -19 39 -8 23 -17 47 -20 52 -4 6 -15 41 -24
79 -9 38 -25 88 -35 110 -10 23 -24 59 -31 81 -7 22 -16 49 -20 60 -4 11 -13
45 -20 75 -7 30 -21 84 -32 120 -11 36 -31 89 -45 117 -13 29 -28 55 -34 58
-5 4 -9 15 -9 25 0 11 -8 24 -18 29 -10 5 -30 34 -45 63 -15 29 -27 58 -27 64
0 6 -9 19 -20 29 -11 10 -20 24 -20 32 0 7 -4 21 -10 31 -5 9 -16 33 -24 52
-8 19 -19 51 -24 70 -5 19 -6 91 -1 160 4 69 14 176 23 238 9 61 21 122 28
135 6 12 15 29 20 37 4 8 13 26 18 40 6 14 46 51 90 84 43 32 86 68 94 81 8
12 44 44 81 69 50 36 69 45 79 37 10 -8 17 -7 27 5 12 15 15 14 29 -7z m-7663
-2064 c38 -18 86 -39 108 -46 22 -7 47 -19 56 -26 8 -7 21 -13 28 -13 7 0 32
-12 57 -26 24 -14 44 -33 44 -41 0 -9 6 -13 14 -10 7 3 36 -9 63 -26 27 -18
71 -45 96 -62 26 -16 49 -37 52 -45 2 -8 22 -33 43 -55 21 -22 49 -60 63 -85
13 -25 30 -51 37 -59 7 -7 27 -41 43 -74 29 -57 31 -67 31 -173 0 -62 -5 -121
-11 -132 -6 -11 -8 -41 -4 -70 3 -31 -1 -84 -12 -139 -9 -48 -21 -92 -26 -98
-5 -5 -9 -17 -9 -26 0 -10 -13 -53 -29 -96 -16 -43 -41 -116 -55 -163 -14 -47
-32 -109 -38 -137 -10 -43 -17 -53 -34 -53 -11 0 -61 17 -110 39 -49 21 -102
44 -119 52 -16 7 -46 25 -65 40 -19 14 -51 35 -70 46 -19 10 -54 31 -76 45
-23 15 -77 65 -120 113 -44 47 -81 91 -83 96 -2 6 -23 32 -48 57 -24 26 -53
67 -64 92 -11 25 -27 64 -35 87 -10 29 -15 96 -17 216 -1 128 1 178 11 189 6
8 16 35 21 59 6 24 15 64 22 89 6 25 16 53 21 64 5 10 16 44 24 75 8 31 18 65
24 76 5 11 16 42 25 68 8 27 22 62 30 78 9 16 13 29 10 29 -3 0 4 18 15 39
l20 39 67 -33z m7482 -325 c10 0 22 -13 29 -33 7 -18 12 -77 12 -131 0 -53 -5
-106 -10 -117 -6 -10 -16 -19 -22 -19 -6 0 -55 -22 -107 -49 -53 -26 -121 -56
-151 -66 -30 -10 -91 -35 -135 -56 -44 -21 -100 -55 -125 -76 -24 -21 -75 -67
-112 -102 -37 -35 -68 -68 -68 -73 0 -5 -18 -30 -39 -56 -22 -26 -53 -72 -69
-103 -16 -30 -32 -72 -36 -93 -4 -21 -18 -56 -30 -79 -13 -23 -31 -66 -41 -95
-9 -29 -15 -62 -12 -73 3 -11 0 -25 -7 -32 -7 -6 -12 -21 -13 -32 0 -11 -6
-44 -12 -74 -6 -30 -20 -72 -31 -95 -11 -23 -25 -61 -31 -86 -6 -25 -14 -67
-19 -94 -5 -27 -18 -69 -30 -92 -11 -24 -20 -50 -20 -58 0 -8 -4 -17 -9 -20
-5 -3 -12 -22 -15 -41 -4 -19 -10 -35 -14 -35 -4 0 -16 -25 -26 -54 -11 -30
-28 -64 -40 -74 -12 -11 -29 -30 -38 -43 -10 -13 -18 -27 -18 -33 0 -5 -16
-28 -35 -52 -19 -23 -35 -45 -35 -49 0 -4 -14 -28 -32 -53 -17 -26 -72 -86
-121 -134 -48 -49 -95 -88 -103 -88 -8 0 -14 -4 -14 -9 0 -5 -27 -18 -59 -31
-32 -12 -72 -35 -87 -52 -16 -16 -38 -34 -49 -39 -11 -5 -42 -22 -70 -38 -27
-16 -72 -41 -100 -54 -27 -14 -111 -55 -186 -91 -74 -36 -138 -66 -142 -66 -3
0 -34 -13 -69 -29 -35 -16 -76 -32 -93 -36 -16 -3 -59 -12 -95 -19 -36 -8 -96
-17 -135 -20 -43 -4 -118 -1 -195 8 -69 9 -181 27 -250 41 -69 14 -134 29
-145 34 -11 5 -54 16 -95 26 -41 9 -118 33 -170 52 -52 19 -98 38 -103 42 -4
4 16 27 45 51 29 25 76 68 103 97 42 43 54 50 78 46 15 -3 30 -9 33 -14 3 -5
23 -9 45 -9 22 0 48 -4 57 -9 9 -5 53 -14 97 -21 44 -7 89 -16 100 -21 11 -4
34 -11 52 -14 18 -4 34 -2 38 5 5 8 10 8 20 0 7 -6 30 -11 52 -11 21 0 65 -1
98 -2 33 -2 83 3 110 11 28 7 58 15 68 17 10 2 28 0 40 -4 13 -5 33 -4 47 2
14 5 39 9 56 8 20 -2 33 3 37 13 4 11 15 13 40 9 21 -3 39 0 48 9 8 7 21 13
29 13 8 -1 20 3 27 8 7 5 21 6 31 3 11 -4 29 1 43 12 13 11 44 29 68 41 25 11
51 21 59 21 8 0 22 8 31 18 9 10 26 19 37 19 12 1 46 15 76 32 29 17 61 44 71
61 10 16 24 30 31 30 7 0 30 15 51 33 21 17 54 47 73 65 19 17 37 32 41 32 3
0 28 25 55 55 27 29 53 52 57 49 5 -2 25 19 46 48 21 29 44 62 50 73 7 11 19
35 28 53 8 19 26 47 39 63 13 16 27 43 31 61 4 18 15 42 25 53 10 11 30 46 44
78 14 31 36 103 50 160 13 56 28 122 31 147 4 25 13 56 20 70 7 14 11 46 9 73
-3 30 1 59 10 75 8 15 19 45 25 67 6 22 13 51 15 65 2 14 19 59 37 100 18 41
38 82 46 91 7 8 13 20 13 26 0 5 12 32 26 58 14 27 32 58 40 69 8 11 14 29 14
39 0 9 6 20 14 23 8 3 16 14 19 25 3 10 13 22 22 25 9 4 26 15 38 25 12 10 52
43 88 74 36 30 70 55 75 55 5 0 23 14 41 30 18 17 37 30 43 30 5 0 18 4 28 9
9 5 31 15 47 22 17 8 44 23 60 35 17 11 50 31 75 43 25 12 52 26 60 31 8 4 53
25 100 45 47 20 102 48 122 61 21 13 44 24 53 24 8 0 15 4 15 9 0 5 11 12 25
15 14 4 28 13 31 21 4 8 14 15 23 15z m6 -400 c2 0 -1 -15 -6 -32 -4 -18 -14
-53 -22 -78 -7 -25 -24 -70 -39 -100 -14 -30 -28 -65 -32 -77 -4 -13 -12 -23
-17 -23 -5 0 -9 -6 -9 -14 0 -7 -23 -44 -52 -82 -29 -38 -84 -101 -124 -141
-41 -41 -84 -75 -100 -79 -16 -4 -31 -10 -34 -13 -3 -4 -17 -14 -32 -24 -15
-9 -36 -17 -48 -17 -11 0 -20 -4 -20 -10 0 -5 -5 -10 -12 -10 -6 0 -52 -20
-103 -45 -50 -24 -110 -47 -134 -51 l-42 -7 7 29 c4 16 14 47 24 69 10 22 26
63 36 90 10 28 31 73 48 100 16 28 44 74 63 102 19 29 42 57 53 63 10 5 32 24
49 41 17 17 31 34 31 39 0 4 14 13 30 20 17 7 30 16 30 21 0 5 12 15 28 21 15
7 34 17 42 23 8 7 47 24 85 40 39 15 89 36 112 46 24 11 49 19 57 19 7 0 19 7
26 15 7 8 16 15 21 15 4 0 25 11 45 25 20 14 38 25 39 25z m-2190 -921 c42 0
102 -8 150 -20 44 -11 94 -24 110 -28 17 -5 86 -26 155 -49 69 -22 157 -50
195 -61 39 -12 93 -21 120 -21 31 0 60 -6 74 -16 19 -14 22 -22 16 -52 -4 -20
-20 -62 -36 -93 -16 -32 -33 -60 -39 -64 -5 -3 -10 -13 -10 -22 0 -8 -13 -32
-28 -52 -16 -20 -43 -62 -60 -94 -18 -32 -32 -62 -32 -67 0 -4 -16 -24 -35
-43 -20 -20 -51 -46 -70 -57 -19 -12 -43 -31 -52 -43 -10 -12 -43 -42 -73 -67
-30 -24 -77 -66 -105 -94 -27 -27 -72 -63 -100 -80 -27 -18 -66 -39 -85 -48
-19 -9 -46 -20 -60 -26 -14 -5 -50 -21 -80 -35 -30 -14 -98 -37 -150 -51 -52
-14 -129 -30 -170 -35 -41 -6 -145 -12 -230 -13 -85 -2 -184 0 -220 4 -36 4
-101 14 -145 22 -44 9 -98 20 -120 26 -22 5 -52 12 -67 15 -16 3 -28 9 -28 14
0 5 15 24 34 42 19 19 53 70 75 114 23 44 55 95 71 113 17 18 30 35 30 38 0 4
14 23 30 44 17 21 30 42 30 47 0 5 11 24 25 43 14 19 25 40 25 48 0 8 30 66
68 129 37 63 72 124 79 137 7 12 47 58 90 101 43 44 107 101 143 126 36 26
113 70 170 99 78 38 122 54 170 60 36 4 97 8 135 9z m-3824 -131 c51 -5 87 -4
94 2 7 5 14 8 17 5 3 -3 52 -8 109 -11 57 -3 164 -9 237 -14 73 -5 141 -14
152 -20 10 -5 32 -10 49 -10 17 0 54 -9 82 -21 29 -11 73 -29 98 -41 25 -11
53 -26 61 -33 8 -7 39 -18 68 -25 28 -6 54 -16 57 -20 3 -5 51 -39 108 -76 56
-36 104 -69 107 -73 3 -3 14 -12 25 -19 11 -6 31 -18 44 -24 13 -7 49 -37 80
-66 31 -29 80 -67 109 -84 29 -16 58 -38 65 -48 6 -9 26 -24 42 -32 17 -9 39
-26 49 -37 11 -12 45 -39 75 -60 31 -20 83 -53 116 -73 33 -20 96 -54 140 -77
43 -22 87 -41 96 -41 9 0 19 -7 23 -15 3 -8 12 -15 21 -15 8 0 25 -6 38 -12
12 -7 25 -17 29 -23 4 -5 8 -14 8 -20 0 -5 -28 -28 -62 -50 -34 -22 -77 -47
-96 -56 -32 -15 -38 -15 -83 2 -27 11 -89 40 -137 65 -48 25 -116 62 -152 81
-36 20 -105 59 -155 86 -49 28 -91 54 -93 59 -2 4 -8 8 -13 8 -6 0 -40 25 -77
55 -37 31 -96 79 -131 109 -35 29 -87 65 -115 79 -28 15 -73 31 -101 36 -27 6
-108 23 -180 40 -71 16 -191 35 -265 42 -74 7 -263 14 -420 14 -157 1 -334 -2
-395 -7 -60 -5 -132 -9 -160 -10 -27 0 -81 3 -120 7 -41 5 -81 16 -97 27 -14
10 -36 38 -48 63 -12 25 -28 69 -36 98 -7 28 -17 87 -20 129 -5 54 -3 82 5 92
9 11 30 13 94 9 45 -4 154 -6 242 -7 88 0 198 3 245 8 46 4 86 8 87 10 1 1 39
-2 84 -6z m1456 -1519 c12 1 31 -10 42 -25 15 -18 19 -34 15 -53 -4 -14 -12
-37 -18 -51 -9 -19 -19 -25 -41 -23 -18 1 -39 13 -52 27 -19 22 -20 29 -10 58
7 18 19 40 27 49 8 10 25 18 37 18z m250 -59 c14 0 35 -7 45 -17 10 -9 18 -30
18 -50 0 -19 -8 -41 -19 -52 -16 -16 -26 -18 -57 -11 -20 5 -41 15 -45 22 -5
7 -9 25 -9 41 0 15 9 36 20 47 11 11 32 20 47 20z"/>
<g>
<path d="M4378 7909 c-7 -1 -26 -4 -41 -8 -16 -3 -45 -20 -65 -38 -20 -18 -45
-38 -54 -45 -10 -8 -21 -37 -26 -73 -6 -33 -7 -76 -4 -95 3 -19 14 -47 25 -62
11 -15 37 -34 58 -42 20 -8 54 -16 76 -17 21 -1 48 1 60 5 13 4 44 28 70 53
l48 45 0 82 c0 75 -3 86 -28 119 -16 21 -46 46 -67 57 -22 11 -45 19 -52 19z"/>
</g>
<g>
<path d="M7838 7796 c-67 5 -76 4 -109 -21 -20 -15 -48 -48 -63 -75 -22 -40
-25 -56 -21 -105 3 -31 7 -60 10 -65 3 -4 23 -17 44 -28 22 -12 54 -23 73 -27
18 -3 48 -7 67 -9 23 -3 53 5 88 23 32 15 56 34 59 46 3 12 5 43 6 70 0 28 -1
64 -3 82 -3 20 -18 45 -41 68 -33 34 -41 37 -110 41z"/>
</g>
<g>
<path d="M6356 7180 c-6 0 -21 -7 -32 -15 -18 -12 -20 -20 -13 -52 4 -21 17
-72 28 -113 12 -41 25 -106 30 -145 6 -38 17 -115 27 -170 9 -55 16 -110 16
-122 0 -13 4 -23 9 -23 5 0 9 -15 9 -34 0 -18 12 -78 26 -132 14 -55 30 -117
35 -139 4 -22 15 -82 24 -134 9 -52 19 -100 23 -105 4 -6 13 -27 20 -47 7 -20
10 -43 6 -52 -3 -8 -1 -18 5 -22 6 -3 11 -34 11 -68 0 -34 9 -93 20 -132 11
-38 27 -99 37 -135 10 -36 21 -67 25 -70 3 -3 13 -32 21 -65 8 -33 26 -90 40
-126 14 -37 33 -100 42 -140 9 -41 22 -84 28 -97 8 -17 8 -25 0 -30 -7 -4 -49
-4 -95 0 -46 5 -158 12 -249 16 -92 4 -173 6 -180 4 -8 -1 -20 -12 -27 -22
-10 -17 -10 -26 3 -49 8 -16 24 -32 35 -36 11 -3 25 -3 30 0 6 4 73 6 148 6
75 -1 151 -3 167 -5 17 -2 62 -7 100 -10 39 -4 92 -9 118 -12 l48 -6 -6 36
c-6 31 -5 35 9 30 9 -3 16 -2 16 4 0 5 -7 23 -15 38 -8 16 -15 39 -15 51 0 12
-6 37 -14 55 -8 18 -24 63 -35 99 -12 36 -21 72 -21 80 -1 8 -9 32 -20 54 -11
22 -19 43 -20 47 0 4 -5 19 -11 35 -6 15 -13 43 -15 62 -2 18 -12 52 -23 75
-10 22 -22 65 -25 95 -4 29 -14 74 -22 100 -8 25 -20 55 -26 66 -6 11 -13 38
-16 60 -2 22 -8 48 -13 57 -5 9 -9 34 -9 55 0 22 -6 48 -14 58 -7 10 -11 26
-9 36 3 9 -2 32 -11 51 -8 18 -17 57 -20 87 -2 29 -9 58 -15 64 -6 6 -11 26
-11 43 0 18 -4 35 -9 38 -4 3 -11 31 -14 61 -3 31 -10 62 -15 68 -6 7 -13 28
-16 47 -4 19 -8 51 -10 70 -2 19 -8 43 -12 54 -4 11 -2 21 6 26 10 6 10 17 -3
57 -8 26 -15 75 -15 108 0 33 -7 87 -15 120 -9 33 -19 83 -23 110 -3 28 -13
58 -22 68 -8 9 -20 17 -26 17z"/>
</g>
<g>
<path d="M4831 4194 c-138 1 -165 -1 -175 -15 -6 -8 -19 -18 -30 -22 -14 -6
-17 -13 -11 -35 4 -15 8 -28 10 -30 2 -2 22 -6 44 -9 22 -3 48 -2 58 2 10 4
145 7 300 7 155 0 286 -3 292 -6 5 -4 157 -6 338 -6 180 0 417 4 525 9 124 5
214 5 240 -1 24 -6 167 -12 318 -15 151 -2 303 -4 337 -5 33 0 66 3 72 6 6 4
15 5 19 2 4 -2 59 -7 122 -11 63 -3 190 -7 281 -7 157 -1 167 0 187 20 12 12
29 22 37 22 8 0 15 9 15 20 0 10 -9 24 -20 30 -13 7 -92 11 -213 10 -105 0
-374 1 -597 4 -223 2 -470 8 -550 13 -80 5 -221 7 -315 5 -93 -2 -237 -3 -320
-4 -82 -1 -296 2 -475 6 -179 5 -399 9 -489 10z"/>
</g>
<g>
<path d="M6616 10349 c-12 -1 -32 -4 -46 -6 -16 -2 -30 -14 -39 -33 -11 -27
-10 -33 9 -60 16 -23 29 -30 54 -30 19 0 38 6 43 13 6 6 13 25 16 41 3 16 0
40 -6 53 -6 14 -18 22 -31 22z"/>
</g>
</g>
<g>
<path d="M840 5660 c-5 0 -10 -4 -10 -10 0 -5 5 -10 10 -10 6 0 10 5 10 10 0
6 -4 10 -10 10z"/>
</g>
</g>
</svg>
