<?xml version="1.0" standalone="no"?>
<!DOCTYPE svg PUBLIC "-//W3C//DTD SVG 20010904//EN"
 "http://www.w3.org/TR/2001/REC-SVG-20010904/DTD/svg10.dtd">
<svg version="1.0" xmlns="http://www.w3.org/2000/svg"
 width="900.000000pt" height="1200.000000pt" viewBox="0 0 900.000000 1200.000000"
 preserveAspectRatio="xMidYMid meet">
<metadata>
Created by potrace 1.16, written by Peter Selinger 2001-2019
</metadata>
<g transform="translate(0.000000,1200.000000) scale(0.100000,-0.100000)"
fill="#000000" stroke="none">
<g>
<path d="M4169 11570 c-5 0 -12 -12 -15 -27 -4 -15 -4 -144 -1 -287 4 -144 11
-290 17 -326 6 -36 13 -96 15 -135 3 -38 10 -95 15 -125 5 -30 15 -179 21
-330 6 -151 12 -345 14 -430 2 -85 8 -240 15 -345 7 -104 14 -235 16 -290 1
-55 7 -172 13 -260 6 -88 15 -218 21 -290 5 -71 15 -188 21 -260 6 -71 13
-141 15 -155 2 -14 11 -106 19 -205 8 -99 17 -198 20 -220 3 -22 13 -125 21
-230 8 -104 17 -217 19 -250 2 -33 8 -112 14 -175 6 -63 11 -137 11 -163 0
-30 -5 -49 -12 -51 -7 -2 -47 -11 -88 -20 -54 -12 -105 -34 -183 -79 -65 -37
-123 -78 -143 -102 -19 -22 -52 -60 -73 -85 -20 -25 -52 -66 -69 -91 -17 -26
-47 -78 -66 -115 -18 -38 -52 -127 -74 -199 -23 -71 -48 -180 -57 -241 -8 -61
-13 -139 -10 -175 3 -35 11 -111 17 -169 6 -59 19 -121 29 -140 9 -20 38 -67
64 -105 26 -39 74 -99 108 -135 34 -35 100 -93 147 -129 47 -35 96 -69 110
-75 14 -6 27 -13 30 -16 3 -3 32 -18 65 -34 33 -16 74 -33 90 -38 17 -5 61
-13 98 -18 38 -4 71 -10 73 -13 3 -3 5 -110 5 -239 0 -128 -5 -341 -11 -473
-5 -132 -14 -350 -20 -485 -6 -135 -15 -283 -20 -330 -6 -47 -15 -128 -20
-180 -6 -52 -13 -113 -16 -135 -3 -22 -17 -110 -31 -195 -13 -85 -31 -200 -39
-255 -8 -55 -17 -107 -20 -117 -2 -9 -9 -49 -14 -90 -6 -40 -14 -95 -19 -123
-5 -27 -18 -108 -29 -180 -12 -71 -28 -170 -37 -220 -9 -49 -18 -101 -20 -115
-2 -14 -8 -47 -13 -75 -6 -27 -17 -97 -26 -155 -9 -58 -21 -134 -26 -170 -6
-36 -17 -105 -26 -155 -8 -49 -16 -99 -18 -110 -2 -11 -7 -38 -11 -60 -3 -22
-20 -112 -36 -200 -16 -88 -34 -178 -40 -200 -7 -22 -20 -62 -29 -90 -10 -27
-32 -76 -49 -109 -17 -32 -31 -70 -31 -85 0 -14 6 -33 13 -41 7 -8 23 -20 37
-27 14 -6 35 -14 47 -18 16 -4 26 0 36 17 8 13 31 66 50 118 19 52 47 149 61
215 14 66 37 190 50 275 14 85 37 232 51 325 14 94 32 208 40 255 8 47 26 157
40 245 14 88 32 198 40 245 8 47 26 162 40 255 14 94 39 251 56 350 16 99 41
261 54 360 14 99 31 243 40 320 8 77 22 295 30 485 8 190 17 381 20 425 3 44
7 255 10 468 2 213 7 392 10 396 2 5 30 12 62 16 31 4 88 18 127 31 39 14 114
38 166 55 52 17 113 43 135 58 22 16 66 46 98 68 32 22 98 84 148 139 60 67
100 122 123 169 19 39 43 102 54 140 11 39 28 109 36 156 9 48 16 138 16 205
0 65 -7 162 -14 214 -8 52 -17 103 -20 113 -3 9 -9 25 -12 35 -4 9 -8 26 -9
37 -2 11 -9 40 -15 65 -6 25 -37 97 -68 160 -52 105 -65 123 -158 216 -56 55
-136 123 -178 151 -42 28 -109 67 -149 86 -39 20 -90 42 -112 50 -22 8 -62 21
-90 28 -27 8 -92 14 -143 14 -91 0 -92 0 -92 25 -1 14 -5 81 -10 150 -5 69
-16 213 -25 320 -8 107 -20 231 -25 275 -6 44 -14 136 -20 205 -5 69 -16 224
-24 345 -9 121 -20 310 -26 420 -6 110 -15 254 -20 320 -5 66 -12 185 -15 265
-3 80 -10 309 -15 510 -8 267 -15 402 -30 505 -11 77 -24 181 -30 230 -5 50
-16 176 -24 280 -10 124 -22 212 -35 253 -11 35 -27 72 -37 83 -9 10 -21 19
-25 19z m461 -4261 c30 0 71 -4 90 -9 19 -6 57 -15 84 -20 27 -6 92 -31 145
-57 53 -25 98 -49 101 -52 3 -4 42 -33 87 -65 45 -32 113 -91 150 -131 37 -40
73 -79 78 -86 6 -8 29 -52 52 -99 23 -47 49 -103 57 -125 9 -22 27 -93 41
-158 14 -65 28 -134 31 -155 3 -20 5 -96 5 -168 0 -80 -6 -161 -16 -208 -9
-43 -25 -105 -35 -139 -11 -34 -39 -96 -64 -137 -24 -41 -69 -105 -100 -142
-31 -37 -98 -99 -150 -138 -60 -45 -114 -77 -152 -89 -33 -10 -104 -34 -159
-54 -55 -19 -120 -39 -145 -45 -25 -6 -61 -13 -80 -15 l-35 -5 0 127 c0 69 -2
257 -4 416 -2 160 -8 373 -12 475 -4 102 -13 300 -19 440 -6 140 -18 329 -26
420 -8 91 -14 175 -14 187 0 12 8 24 18 26 9 3 42 5 72 6z m-215 -350 c6 0 15
-3 21 -7 6 -4 15 -56 20 -117 4 -60 8 -130 9 -155 0 -25 4 -112 8 -195 5 -82
10 -197 13 -255 2 -58 7 -206 9 -330 3 -124 5 -353 6 -510 l0 -285 -73 2 c-51
1 -94 10 -143 28 -38 15 -86 36 -105 47 -19 12 -66 42 -105 67 -38 25 -95 70
-127 100 -32 30 -89 95 -127 145 -37 50 -74 102 -80 115 -7 12 -17 51 -22 85
-5 33 -11 117 -15 186 -4 82 -2 151 6 200 6 41 20 107 31 145 10 39 32 107 48
153 16 45 48 117 71 160 23 42 66 106 95 142 30 36 71 81 92 101 21 20 63 51
93 69 30 18 70 42 89 52 19 11 66 28 105 38 39 10 76 19 81 19z"/>
</g>
<g>
<path d="M4869 10480 c-15 0 -30 -3 -32 -7 -2 -5 -7 -20 -10 -34 -5 -19 -1
-31 13 -44 16 -15 26 -17 48 -9 19 7 28 17 30 37 2 16 -2 35 -9 43 -6 8 -24
14 -40 14z"/>
</g>
<g>
<path d="M4506 10180 c-13 0 -26 -6 -29 -12 -2 -7 -1 -87 4 -178 4 -91 11
-187 14 -215 3 -27 10 -77 15 -110 5 -33 12 -95 16 -138 5 -73 7 -78 27 -75
19 3 22 10 25 55 2 29 -2 86 -8 125 -6 40 -14 111 -20 158 -5 47 -11 141 -14
210 -3 69 -6 137 -6 153 0 22 -5 27 -24 27z"/>
</g>
<g>
<path d="M4873 9783 c-5 2 -15 2 -23 -1 -8 -3 -38 -22 -67 -44 -29 -21 -54
-38 -56 -38 -3 0 -7 18 -11 40 -6 37 -9 40 -37 40 -30 0 -31 -1 -25 -32 3 -18
10 -51 14 -73 6 -34 11 -40 36 -43 22 -3 38 5 70 36 22 21 56 49 74 61 17 12
32 29 32 36 0 8 -3 16 -7 18z"/>
</g>
<g>
<path d="M4952 9359 c-15 0 -33 -3 -39 -6 -7 -2 -13 -20 -13 -38 0 -32 3 -35
42 -46 37 -9 44 -9 55 7 7 10 13 23 13 29 0 6 -7 21 -16 33 -9 14 -25 22 -42
21z"/>
</g>
<g>
<path d="M3646 2280 c-7 0 -20 -6 -31 -13 -13 -10 -16 -21 -11 -40 5 -21 12
-27 34 -27 15 0 33 5 40 12 7 7 12 18 12 24 0 7 -7 20 -16 28 -8 9 -21 16 -28
16z"/>
</g>
<g>
<path d="M4010 2150 c-15 0 -19 -10 -24 -57 -3 -32 -8 -105 -11 -163 -3 -58
-10 -136 -15 -175 -5 -38 -15 -116 -21 -172 -6 -56 -8 -106 -4 -112 3 -6 15
-11 25 -11 15 0 20 9 24 43 3 23 13 105 21 182 9 77 20 209 25 294 6 84 7 157
4 162 -3 5 -13 9 -24 9z"/>
</g>
<g>
<path d="M3843 1955 c-11 1 -31 -6 -44 -16 -13 -9 -52 -27 -87 -39 -34 -13
-65 -27 -69 -33 -3 -6 2 -16 11 -23 14 -10 28 -8 76 12 33 13 64 24 69 24 5 0
11 -10 13 -21 2 -12 11 -27 21 -33 13 -8 20 -8 25 2 5 7 8 38 7 69 0 50 -3 57
-22 58z"/>
</g>
<g>
<path d="M3577 1320 c-8 0 -19 -6 -24 -12 -6 -7 -13 -22 -17 -32 -4 -12 0 -26
10 -37 10 -11 27 -19 39 -19 11 0 26 5 33 12 7 7 12 24 12 40 0 17 -7 31 -19
38 -11 5 -26 10 -34 10z"/>
</g>
</g>
</svg>
