<?xml version="1.0" standalone="no"?>
<!DOCTYPE svg PUBLIC "-//W3C//DTD SVG 20010904//EN"
 "http://www.w3.org/TR/2001/REC-SVG-20010904/DTD/svg10.dtd">
<svg version="1.0" xmlns="http://www.w3.org/2000/svg"
 width="1200.000000pt" height="1200.000000pt" viewBox="0 0 1200.000000 1200.000000"
 preserveAspectRatio="xMidYMid meet">
<metadata>
Created by potrace 1.16, written by Peter Selinger 2001-2019
</metadata>
<g transform="translate(0.000000,1200.000000) scale(0.100000,-0.100000)"
fill="#000000" stroke="none">
<g>
<path d="M6408 10449 c-136 -1 -249 -3 -250 -4 -2 -1 -64 -5 -138 -9 -74 -3
-193 -12 -265 -20 -71 -8 -179 -22 -240 -30 -60 -9 -164 -26 -230 -38 -66 -11
-138 -24 -160 -28 -22 -4 -98 -21 -170 -38 -71 -17 -182 -44 -245 -61 -63 -16
-153 -43 -200 -60 -47 -16 -134 -48 -195 -71 -60 -23 -125 -48 -145 -57 -19
-8 -46 -20 -60 -25 -14 -6 -34 -14 -45 -18 -11 -5 -77 -35 -146 -68 -70 -33
-130 -65 -133 -71 -4 -6 -13 -11 -21 -11 -7 0 -61 -27 -119 -60 -58 -33 -110
-60 -116 -60 -5 0 -10 -4 -10 -10 0 -5 -6 -10 -12 -11 -7 0 -38 -17 -69 -37
-31 -20 -85 -55 -120 -77 -34 -22 -83 -58 -108 -80 -26 -22 -55 -46 -66 -53
-11 -6 -29 -16 -41 -21 -11 -5 -32 -23 -47 -40 -14 -17 -30 -31 -36 -31 -6 0
-34 -21 -63 -46 -29 -26 -65 -57 -80 -70 -15 -13 -31 -24 -36 -24 -4 0 -39
-30 -77 -67 -39 -38 -89 -83 -113 -101 -23 -19 -42 -40 -42 -47 0 -8 -8 -19
-17 -24 -10 -5 -69 -60 -131 -121 -61 -62 -112 -116 -112 -121 0 -5 -10 -13
-21 -20 -12 -6 -32 -23 -45 -38 -13 -14 -24 -30 -24 -36 0 -5 -19 -31 -43 -56
-23 -25 -46 -48 -52 -50 -5 -2 -37 -36 -70 -75 -33 -39 -72 -86 -87 -104 -16
-19 -28 -39 -28 -44 0 -6 -17 -28 -38 -48 -21 -20 -47 -54 -58 -75 -10 -21
-27 -44 -36 -53 -9 -8 -32 -43 -50 -78 -18 -35 -37 -72 -43 -83 -5 -10 -14
-19 -20 -19 -5 0 -20 -16 -33 -36 -13 -20 -42 -70 -64 -113 -22 -42 -46 -83
-52 -91 -7 -8 -20 -31 -30 -50 -10 -19 -35 -66 -56 -105 -21 -38 -62 -117 -90
-175 -29 -57 -59 -123 -67 -145 -9 -22 -20 -44 -25 -49 -4 -6 -8 -21 -8 -35 0
-13 -11 -47 -24 -75 -13 -28 -29 -76 -36 -106 -6 -30 -22 -77 -35 -105 -12
-27 -28 -70 -34 -95 -7 -25 -19 -74 -27 -110 -8 -36 -17 -83 -21 -105 -3 -22
-10 -47 -14 -57 -5 -9 -15 -58 -23 -110 -8 -51 -21 -131 -29 -178 -8 -47 -20
-128 -26 -180 -7 -52 -14 -124 -17 -160 -2 -36 -7 -119 -9 -185 -3 -66 -5
-185 -6 -265 0 -80 5 -217 11 -305 6 -88 15 -191 21 -230 6 -38 15 -88 21
-110 5 -22 11 -47 13 -55 1 -8 6 -35 10 -60 3 -25 10 -58 15 -75 5 -16 18 -61
28 -100 11 -38 25 -88 31 -110 6 -22 18 -65 27 -95 8 -30 21 -73 29 -95 7 -22
23 -65 35 -95 12 -30 33 -80 45 -110 13 -30 31 -73 40 -95 9 -22 26 -60 38
-85 11 -25 23 -47 27 -50 3 -3 14 -21 23 -40 10 -19 30 -58 46 -86 15 -28 41
-69 59 -91 17 -22 36 -52 43 -69 7 -16 37 -57 66 -91 29 -33 53 -65 53 -71 0
-5 7 -15 16 -23 9 -7 43 -47 76 -88 34 -42 80 -96 104 -121 23 -25 72 -77 108
-116 36 -39 66 -74 66 -79 0 -4 15 -22 33 -40 17 -18 51 -54 73 -81 23 -27 70
-82 105 -123 35 -41 87 -102 115 -135 28 -34 80 -91 115 -128 35 -37 69 -73
76 -80 6 -7 47 -47 90 -89 43 -42 108 -98 145 -125 36 -27 78 -58 94 -69 15
-11 33 -25 39 -32 7 -6 63 -39 125 -72 62 -34 118 -61 123 -61 5 0 21 -7 35
-15 15 -8 55 -24 90 -36 34 -12 65 -26 68 -30 3 -5 16 -9 29 -9 13 0 26 -4 29
-9 4 -5 24 -12 46 -16 22 -4 57 -15 77 -25 21 -10 54 -21 73 -25 19 -4 44 -12
55 -18 11 -6 25 -12 30 -12 6 -1 17 -4 25 -7 8 -4 38 -14 65 -22 28 -9 70 -20
95 -25 25 -5 99 -23 165 -39 66 -17 158 -37 205 -46 47 -9 132 -21 189 -26 57
-6 210 -10 340 -10 130 0 265 5 301 10 36 5 157 19 270 30 113 12 225 26 250
31 25 6 70 15 100 19 30 5 98 19 150 30 52 12 111 25 130 29 19 5 91 23 160
39 69 17 172 44 230 61 58 16 151 43 207 60 57 17 111 34 121 40 9 5 47 19 82
30 36 12 76 27 90 33 14 5 33 14 42 19 10 5 26 9 36 9 10 0 22 4 27 9 6 5 39
20 75 34 36 14 89 37 117 52 29 14 57 25 63 25 5 0 72 30 147 66 76 36 248
120 383 187 135 67 267 134 293 149 26 15 52 28 58 28 6 0 29 13 52 28 23 16
62 39 87 51 25 13 61 32 80 44 l35 20 -35 -37 c-19 -21 -57 -54 -85 -74 -27
-20 -55 -41 -62 -47 -6 -5 -27 -20 -45 -33 -18 -13 -60 -43 -93 -67 -33 -25
-64 -45 -69 -45 -5 0 -28 -16 -52 -35 -23 -19 -46 -35 -51 -35 -4 0 -25 -14
-46 -29 -21 -16 -34 -32 -29 -35 6 -3 15 1 22 9 7 8 20 15 30 15 10 0 23 6 29
14 7 8 24 17 39 21 15 4 29 10 32 14 3 4 30 23 60 42 30 20 69 43 85 52 17 8
39 24 49 36 11 12 25 21 33 21 7 0 13 4 13 9 0 4 19 21 42 36 22 15 81 59 131
99 49 39 111 91 138 116 26 25 71 65 99 90 28 25 108 102 178 171 70 70 139
140 153 155 14 16 41 43 61 60 19 17 39 38 44 47 5 8 38 46 74 83 36 37 72 78
81 91 9 13 57 66 107 118 50 52 99 107 109 122 10 16 34 46 54 68 20 22 58 65
85 96 27 30 70 82 96 115 26 32 72 91 102 129 30 39 74 92 98 118 24 27 45 54
47 60 2 7 16 28 31 47 15 19 30 43 33 52 4 10 10 18 15 18 5 0 31 33 58 72 27
40 55 79 62 86 7 8 21 32 32 55 11 23 33 60 50 82 16 22 35 51 42 65 7 14 25
43 40 64 16 21 28 43 28 48 0 5 16 33 35 62 19 29 35 56 35 60 0 4 9 16 20 28
11 12 20 28 20 35 0 7 18 47 40 89 22 42 40 84 40 93 0 10 11 32 24 50 13 18
34 58 46 89 12 31 30 77 40 102 11 25 22 56 25 70 4 14 19 57 35 95 15 39 38
104 50 145 12 41 26 89 32 105 5 17 18 66 28 110 10 44 30 137 45 207 14 69
30 173 35 230 4 56 10 144 11 193 2 50 3 151 2 225 -1 74 -4 158 -7 185 -2 28
-12 102 -20 165 -9 63 -21 129 -26 145 -5 17 -14 62 -19 100 -6 39 -20 99 -31
135 -12 36 -25 83 -30 105 -4 22 -18 65 -30 95 -12 30 -28 75 -36 100 -8 25
-44 106 -81 180 -36 74 -93 180 -126 235 -33 55 -84 136 -113 180 -30 44 -74
109 -99 145 -24 35 -71 94 -102 130 -32 37 -78 91 -103 121 -25 29 -82 92
-127 139 -44 47 -92 96 -105 110 -13 14 -71 70 -128 125 -58 55 -133 126 -167
157 -34 31 -75 65 -90 75 -15 10 -46 35 -68 55 -22 21 -43 38 -47 38 -4 0 -13
6 -20 13 -7 7 -47 37 -88 67 -41 31 -93 67 -115 81 -22 15 -80 53 -128 85 -49
33 -103 67 -120 78 -18 10 -43 26 -57 36 -14 9 -54 32 -90 50 -36 19 -72 39
-80 46 -8 6 -58 31 -110 54 -52 24 -144 67 -205 95 -60 29 -135 61 -165 71
-30 10 -57 22 -60 25 -3 3 -23 12 -45 18 -22 7 -49 16 -60 21 -11 5 -60 22
-110 39 -49 16 -126 40 -170 52 -44 11 -96 23 -115 26 -19 2 -51 8 -70 13 -19
5 -102 20 -185 34 -82 13 -179 27 -215 31 -36 3 -85 8 -110 10 -25 3 -113 9
-195 15 -83 5 -262 9 -397 9z m62 -65 c179 -1 357 -4 395 -8 39 -4 95 -9 125
-12 30 -2 102 -9 160 -15 58 -5 125 -14 150 -19 25 -6 81 -17 125 -26 44 -8
107 -22 140 -29 33 -7 92 -21 130 -30 39 -10 89 -26 112 -36 24 -11 49 -19 56
-19 7 0 17 -4 23 -8 5 -5 29 -14 54 -21 25 -7 60 -19 79 -28 18 -8 39 -16 45
-17 6 -1 37 -14 70 -29 32 -15 60 -27 62 -27 3 0 66 -30 142 -66 75 -36 173
-84 217 -106 44 -22 108 -57 143 -77 35 -20 85 -49 111 -66 27 -16 126 -82
222 -146 96 -64 183 -126 193 -138 11 -11 23 -21 28 -21 5 0 35 -21 66 -46 31
-25 92 -78 136 -117 45 -39 160 -149 256 -244 96 -96 197 -200 223 -232 26
-32 75 -87 108 -122 33 -35 68 -75 77 -89 9 -14 32 -45 52 -70 19 -25 40 -52
45 -61 6 -8 32 -49 59 -90 27 -41 69 -105 94 -143 25 -38 71 -119 103 -180 32
-61 81 -163 109 -226 29 -63 58 -135 66 -160 8 -25 27 -94 43 -155 15 -60 35
-141 44 -180 9 -38 25 -124 36 -190 11 -66 25 -190 31 -275 8 -110 8 -214 1
-358 -6 -111 -12 -206 -15 -211 -3 -4 -10 -41 -16 -82 -6 -41 -20 -114 -30
-164 -10 -49 -28 -126 -40 -170 -12 -44 -25 -93 -30 -110 -4 -16 -19 -66 -33
-110 -14 -44 -34 -105 -45 -135 -11 -30 -30 -84 -43 -120 -12 -36 -34 -90 -47
-120 -14 -30 -29 -62 -33 -70 -4 -8 -35 -70 -68 -137 -34 -68 -61 -125 -61
-127 0 -3 -13 -24 -29 -48 -15 -24 -37 -61 -47 -83 -10 -22 -20 -42 -24 -45
-3 -3 -19 -25 -35 -50 -16 -25 -37 -61 -46 -80 -9 -19 -23 -41 -32 -49 -10 -7
-17 -19 -17 -25 0 -7 -7 -21 -15 -31 -9 -11 -38 -54 -66 -95 -27 -41 -64 -93
-82 -116 -17 -22 -72 -93 -122 -158 -49 -64 -112 -145 -138 -179 -26 -34 -55
-71 -65 -82 -9 -11 -39 -47 -67 -80 -28 -33 -61 -73 -73 -90 -13 -16 -35 -45
-50 -64 -15 -18 -45 -52 -67 -75 -22 -22 -63 -68 -90 -101 -28 -33 -74 -83
-102 -113 -29 -29 -53 -56 -53 -60 0 -4 -29 -37 -65 -75 -36 -37 -65 -71 -65
-74 0 -4 -37 -44 -82 -89 -46 -45 -92 -92 -103 -105 -12 -13 -56 -57 -99 -97
-43 -39 -85 -72 -93 -72 -8 0 -80 -44 -161 -98 -81 -54 -154 -101 -162 -105
-8 -4 -44 -24 -80 -46 -36 -22 -237 -125 -446 -230 -210 -105 -385 -191 -388
-191 -3 0 -31 -12 -63 -26 -32 -14 -71 -31 -88 -38 -16 -7 -50 -22 -75 -33
-25 -11 -79 -35 -120 -53 -41 -18 -82 -34 -90 -35 -8 -2 -49 -17 -90 -33 -41
-16 -129 -48 -195 -70 -66 -23 -160 -52 -210 -66 -49 -13 -115 -32 -145 -41
-30 -9 -73 -21 -95 -25 -22 -5 -110 -25 -195 -45 -85 -21 -202 -46 -260 -56
-58 -10 -139 -23 -180 -29 -41 -6 -100 -15 -130 -20 -30 -5 -102 -12 -160 -15
-58 -4 -122 -11 -142 -16 -21 -5 -142 -10 -270 -11 -128 -1 -298 4 -378 11
-80 6 -158 16 -175 21 -16 5 -41 12 -55 14 -14 3 -45 10 -70 16 -25 5 -74 16
-110 24 -36 8 -94 22 -130 32 -36 9 -74 20 -85 25 -11 4 -56 20 -100 35 -44
14 -84 27 -90 29 -5 1 -17 4 -25 7 -8 3 -31 10 -50 16 -19 6 -73 24 -120 42
-47 17 -119 45 -160 61 -41 17 -97 42 -125 55 -27 13 -81 42 -120 63 -38 22
-83 47 -100 57 -16 9 -70 50 -120 90 -49 40 -152 135 -227 211 -76 76 -165
172 -199 213 -34 41 -80 95 -103 120 -22 25 -53 60 -68 78 -16 17 -28 36 -28
42 0 5 -4 10 -9 10 -4 0 -20 17 -34 37 -14 21 -65 81 -114 134 -48 53 -106
116 -127 140 -21 24 -94 113 -162 196 -68 84 -136 172 -150 195 -15 24 -33 47
-40 51 -8 4 -14 12 -14 18 0 5 -10 24 -23 42 -12 18 -25 34 -29 37 -3 3 -22
37 -41 75 -19 39 -58 117 -85 175 -28 58 -66 146 -85 195 -19 50 -41 110 -50
135 -8 25 -20 65 -27 90 -7 25 -18 61 -26 80 -7 19 -25 85 -39 145 -15 61 -30
128 -35 150 -5 22 -16 83 -25 135 -8 52 -20 120 -25 150 -5 30 -13 102 -17
160 -4 58 -7 227 -6 375 1 210 6 308 23 440 11 94 23 181 25 195 2 14 10 70
19 125 9 55 23 134 31 175 9 41 25 118 36 170 11 52 24 106 29 120 4 14 13 45
20 70 6 25 16 53 21 62 5 10 9 25 9 34 0 8 9 39 21 67 11 29 26 66 34 82 7 17
20 46 29 67 9 20 16 42 16 48 0 7 16 47 36 89 20 42 46 99 59 126 13 28 29 61
34 75 6 14 16 34 23 45 6 11 15 27 19 35 4 8 19 35 32 60 13 25 46 83 74 130
28 47 81 135 118 195 37 61 79 124 91 141 13 17 24 34 24 39 0 4 14 24 30 44
17 20 37 43 45 52 8 9 15 19 15 23 0 4 19 31 42 59 24 29 68 81 98 117 31 36
73 88 95 115 22 28 55 67 75 87 19 20 87 92 150 160 63 68 178 180 255 250 77
69 211 184 297 255 86 70 179 145 206 166 28 20 53 37 57 37 4 0 25 15 48 34
23 18 58 41 77 51 19 10 51 30 70 45 19 15 60 39 90 54 30 15 75 39 100 53 25
14 88 48 140 75 52 28 106 56 120 64 14 8 81 39 150 70 69 31 176 76 238 100
63 24 118 44 124 44 5 0 28 9 51 19 24 11 56 23 72 27 17 3 64 18 105 31 41
13 116 35 165 48 50 13 137 33 195 44 58 12 143 30 190 40 47 11 132 27 190
36 58 8 132 20 165 25 33 6 125 17 205 25 80 9 201 19 270 23 69 4 271 7 450
6z"/>
<g>
<path d="M6230 8324 c-96 2 -202 2 -235 0 -33 -2 -109 -8 -168 -14 -59 -6
-169 -22 -245 -36 -75 -14 -148 -29 -162 -34 -14 -5 -64 -21 -113 -35 -48 -15
-90 -31 -93 -36 -3 -5 -12 -9 -20 -9 -8 0 -69 -27 -137 -60 -67 -32 -151 -76
-187 -97 -36 -21 -80 -47 -99 -58 -18 -11 -61 -38 -95 -60 -33 -22 -85 -58
-114 -80 -29 -22 -85 -67 -125 -100 -40 -33 -109 -94 -152 -136 -44 -42 -112
-108 -151 -145 -39 -38 -107 -112 -150 -165 -43 -52 -95 -117 -114 -145 -19
-27 -59 -89 -89 -139 -29 -49 -69 -124 -89 -165 -19 -41 -40 -88 -47 -105 -8
-16 -27 -59 -43 -95 -17 -36 -40 -96 -53 -135 -12 -38 -29 -86 -36 -105 -8
-19 -18 -44 -23 -55 -5 -11 -29 -78 -53 -150 -24 -71 -60 -186 -80 -255 -20
-69 -48 -187 -62 -263 -15 -76 -28 -177 -30 -225 -1 -48 1 -120 6 -161 4 -41
16 -109 25 -150 9 -42 25 -105 36 -141 11 -36 32 -92 45 -125 14 -33 35 -80
46 -105 11 -25 23 -52 27 -60 4 -8 19 -36 33 -62 14 -26 39 -66 54 -90 15 -24
30 -45 33 -48 3 -3 14 -18 24 -33 10 -16 63 -76 119 -134 56 -58 161 -158 232
-222 72 -64 160 -140 198 -170 37 -29 67 -56 67 -59 0 -4 17 -18 38 -32 20
-14 57 -43 82 -65 25 -23 63 -54 85 -70 22 -17 56 -41 75 -54 19 -13 74 -50
121 -82 48 -32 98 -61 112 -64 15 -4 31 -13 38 -21 6 -8 16 -14 22 -14 6 0 29
-9 51 -19 23 -11 63 -29 91 -41 27 -11 88 -32 135 -46 47 -14 121 -33 165 -44
44 -11 100 -24 125 -29 25 -5 68 -13 95 -17 28 -4 61 -8 75 -9 14 -1 54 -4 90
-8 36 -4 119 -9 185 -12 66 -2 206 0 310 5 105 5 208 12 230 16 22 3 46 11 53
17 7 5 9 14 5 18 -5 5 -33 4 -63 -1 -30 -6 -165 -13 -300 -16 -156 -4 -285 -2
-355 5 -60 7 -130 14 -155 17 -25 2 -74 11 -110 18 -36 8 -101 22 -145 31 -44
9 -102 24 -130 34 -27 11 -75 26 -105 36 -30 9 -80 28 -110 42 -30 14 -104 50
-165 80 -60 30 -121 65 -135 78 -14 12 -38 31 -55 41 -16 10 -57 41 -90 67
-33 27 -67 51 -75 55 -8 3 -49 34 -90 70 -41 35 -104 89 -139 120 -35 32 -75
67 -89 80 -14 12 -28 22 -31 22 -3 0 -31 24 -61 53 -31 28 -85 79 -120 113
-36 34 -94 92 -130 130 -36 38 -85 98 -110 134 -25 36 -63 94 -85 130 -21 36
-41 67 -44 70 -3 3 -7 12 -9 20 -2 8 -10 31 -19 50 -8 19 -21 46 -28 60 -7 14
-27 70 -44 125 -18 55 -36 114 -42 131 -5 16 -16 75 -24 130 -9 54 -16 142
-15 194 0 52 4 120 10 150 5 30 21 118 36 195 14 77 29 145 33 150 4 6 16 39
25 75 10 36 31 101 46 146 15 44 33 89 38 100 6 10 28 66 47 124 20 58 51 143
68 190 17 47 69 159 115 250 45 91 94 181 107 200 14 19 49 68 77 109 29 40
67 89 83 109 17 20 51 59 76 87 25 27 83 86 130 131 46 44 117 112 158 150 41
38 82 76 91 84 9 8 29 24 44 35 16 11 56 40 90 65 34 25 74 54 90 65 16 11 34
23 40 27 6 4 58 36 116 71 58 34 153 86 213 115 59 28 110 52 114 52 4 0 25 8
47 19 23 10 75 30 116 44 41 15 122 35 180 46 58 10 134 24 170 30 36 6 101
16 145 22 44 6 172 12 285 14 113 2 246 -1 295 -6 50 -5 182 -26 295 -45 113
-19 223 -41 245 -49 22 -7 58 -16 80 -20 22 -4 45 -11 50 -15 6 -4 35 -13 65
-20 30 -7 109 -36 175 -64 66 -29 157 -72 203 -96 46 -25 101 -54 122 -65 21
-11 47 -28 57 -37 11 -10 23 -18 27 -18 3 0 28 -15 54 -33 26 -18 69 -48 97
-67 27 -19 88 -68 135 -109 47 -41 132 -119 189 -175 57 -56 138 -144 180
-196 42 -52 102 -132 134 -178 34 -48 86 -143 123 -226 35 -79 64 -153 64
-163 0 -10 4 -23 8 -29 4 -5 13 -25 19 -44 7 -19 17 -62 23 -95 6 -33 16 -87
21 -120 5 -33 12 -103 15 -155 3 -52 7 -100 9 -106 2 -6 -3 -58 -10 -115 -8
-57 -21 -142 -30 -189 -8 -47 -21 -103 -29 -125 -7 -22 -21 -67 -30 -100 -10
-33 -43 -112 -74 -175 -30 -63 -61 -119 -69 -123 -7 -4 -13 -13 -13 -18 0 -6
-14 -30 -30 -54 -16 -24 -30 -47 -30 -51 0 -4 -24 -37 -53 -73 -29 -36 -60
-77 -70 -91 -10 -14 -34 -46 -55 -71 -20 -25 -75 -88 -121 -140 -46 -52 -150
-162 -230 -244 -80 -83 -180 -179 -221 -213 -41 -35 -84 -71 -95 -81 -11 -10
-80 -57 -153 -105 -74 -48 -193 -118 -265 -155 -73 -37 -176 -86 -230 -110
-54 -23 -162 -65 -240 -92 -78 -27 -232 -71 -342 -98 -110 -27 -236 -57 -280
-66 -44 -9 -102 -23 -130 -30 -27 -8 -111 -21 -185 -30 -74 -9 -143 -17 -152
-17 -10 1 -18 -6 -18 -15 0 -13 10 -14 63 -10 34 3 125 12 202 21 77 9 163 21
190 27 28 6 66 15 85 20 19 6 64 14 100 19 36 5 88 13 115 19 28 6 86 20 130
32 44 11 87 24 95 27 8 3 26 7 40 9 14 2 34 10 45 17 11 7 45 19 75 26 30 7
78 23 107 36 29 13 67 30 85 37 18 8 36 14 41 15 4 1 20 8 35 16 15 8 74 36
132 63 58 26 119 57 135 69 17 12 46 30 65 39 19 10 80 47 134 83 54 36 144
101 200 145 56 44 188 168 294 274 105 107 192 198 192 204 0 5 19 28 43 52
24 23 65 71 92 107 28 36 63 81 80 101 16 20 37 45 45 55 8 11 34 48 58 82 23
34 42 65 42 69 0 3 12 22 26 41 15 19 38 55 52 81 14 25 38 71 53 102 16 31
37 81 48 110 11 30 32 99 47 154 14 55 33 132 42 170 12 52 16 126 16 285 0
152 -5 241 -16 305 -9 50 -23 118 -32 152 -9 35 -20 71 -25 80 -5 10 -22 54
-37 97 -15 44 -42 110 -61 148 -18 38 -49 92 -68 121 -19 28 -56 81 -82 116
-27 35 -55 73 -63 85 -8 11 -37 48 -66 81 -28 33 -69 78 -90 100 -22 22 -49
51 -60 65 -12 14 -41 41 -64 60 -24 19 -66 56 -95 82 -28 26 -66 58 -83 70
-17 13 -57 42 -89 64 -32 23 -69 54 -82 68 -14 14 -28 26 -32 26 -5 0 -28 14
-52 30 -25 17 -52 30 -60 30 -9 0 -28 11 -44 24 -16 14 -90 54 -164 90 -75 36
-158 74 -186 85 -27 11 -99 34 -159 52 -60 17 -116 33 -124 34 -8 1 -22 5 -30
8 -8 3 -62 15 -120 26 -58 11 -132 25 -165 31 -33 5 -69 12 -80 14 -12 2 -45
7 -75 10 -30 4 -73 9 -95 11 -22 3 -119 7 -215 9z"/>
</g>
<g>
<path d="M9489 8154 c-25 4 -49 3 -53 -1 -4 -4 -11 -8 -14 -9 -4 0 -19 -6 -33
-11 -14 -6 -38 -25 -52 -43 -15 -17 -34 -56 -43 -86 -15 -52 -15 -56 6 -99 14
-28 39 -57 65 -75 38 -26 53 -30 110 -30 55 0 76 5 116 28 30 16 55 39 64 59
8 17 15 51 15 76 0 27 -6 49 -15 57 -8 7 -15 20 -15 29 0 9 -14 31 -30 49 -17
18 -40 36 -53 41 -12 5 -42 11 -68 15z"/>
</g>
<g>
<path d="M2918 7740 c-24 3 -58 3 -75 -1 -18 -3 -44 -14 -58 -23 -13 -9 -34
-35 -46 -58 -18 -35 -21 -54 -16 -111 4 -58 8 -73 28 -89 13 -10 44 -24 69
-30 25 -7 50 -12 55 -12 6 0 33 3 60 7 41 6 55 13 78 42 15 19 32 46 37 60 6
15 10 43 10 63 0 20 -6 48 -13 61 -6 13 -29 38 -49 54 -22 18 -55 33 -80 37z"/>
</g>
<g>
<path d="M7213 6976 c-21 1 -47 -1 -59 -4 -11 -4 -32 -16 -45 -27 -14 -11 -29
-33 -33 -48 -5 -20 -1 -38 13 -60 13 -21 35 -38 65 -49 29 -11 55 -14 72 -9
15 4 36 19 47 33 12 16 19 42 19 72 1 35 -4 53 -20 68 -12 12 -36 22 -59 24z
m-12 -57 c9 0 21 -10 27 -23 8 -18 7 -28 -4 -45 -11 -16 -19 -19 -32 -12 -9 5
-25 16 -35 23 -11 8 -16 20 -12 30 4 9 14 19 23 21 10 3 24 5 33 6z"/>
</g>
<g>
<path d="M4933 6809 c-4 -1 -27 -6 -50 -12 -23 -7 -51 -22 -63 -34 -13 -14
-20 -36 -20 -61 0 -29 7 -45 28 -64 15 -15 40 -32 55 -37 16 -6 43 -11 60 -11
22 0 43 10 65 29 26 24 32 38 32 70 0 30 -7 47 -27 69 -16 16 -38 35 -50 41
-12 6 -25 11 -30 10z m-9 -69 c7 0 21 -9 30 -19 10 -11 16 -28 14 -38 -2 -11
-14 -19 -30 -21 -15 -2 -39 5 -54 14 l-26 18 26 23 c15 13 33 23 40 23z"/>
</g>
<g>
<path d="M6420 6598 c-3 0 -15 -3 -27 -5 -12 -2 -33 -15 -47 -28 -21 -19 -25
-30 -20 -57 3 -18 12 -53 19 -78 8 -25 16 -61 20 -80 4 -19 13 -50 22 -68 8
-18 12 -39 9 -47 -2 -7 2 -35 11 -62 8 -26 16 -55 17 -63 1 -8 7 -31 13 -50 6
-19 18 -62 28 -95 9 -33 25 -80 35 -105 10 -25 24 -91 30 -148 6 -56 18 -118
26 -137 8 -19 14 -48 14 -65 l0 -30 -89 0 c-74 0 -92 -3 -115 -21 -21 -16 -26
-29 -26 -64 0 -25 6 -47 14 -54 10 -9 71 -12 209 -10 108 1 200 5 205 8 5 3
12 16 16 29 4 12 1 46 -8 75 -9 30 -31 87 -49 128 -19 41 -39 106 -46 144 -7
39 -19 97 -27 130 -8 33 -18 67 -21 75 -3 8 -7 31 -10 50 -2 19 -12 71 -23
115 -10 44 -35 132 -56 195 -20 63 -41 117 -45 120 -4 3 -7 12 -6 20 1 8 -9
49 -22 90 -14 41 -29 78 -35 82 -6 4 -13 7 -16 6z m12 -192 c6 -11 14 -33 19
-50 4 -17 15 -56 24 -86 8 -30 20 -71 26 -90 6 -19 16 -62 24 -95 7 -33 18
-80 25 -105 6 -25 19 -74 30 -110 10 -36 28 -117 40 -180 15 -76 33 -137 56
-182 18 -38 31 -75 28 -83 -4 -10 -21 -15 -53 -15 -36 1 -42 3 -28 11 9 6 17
22 17 37 0 15 -12 83 -26 152 -14 69 -31 159 -38 200 -8 41 -24 107 -36 145
-12 39 -23 77 -24 85 -2 8 -6 31 -10 50 -5 19 -12 40 -15 45 -4 6 -13 37 -20
70 -7 33 -21 88 -32 123 -10 34 -19 70 -19 80 1 15 2 15 12 -2z m72 -997 c11
1 17 -2 13 -5 -3 -3 -12 -4 -19 -1 -8 3 -5 6 6 6z"/>
</g>
<g>
<path d="M7204 4887 c-88 -1 -179 -3 -204 -5 -25 -1 -103 -9 -175 -17 -71 -8
-164 -17 -205 -19 -41 -3 -95 -7 -120 -10 -25 -3 -83 -9 -130 -12 -47 -3 -96
-7 -110 -9 -14 -1 -79 -6 -145 -10 -66 -4 -129 -9 -140 -12 -11 -2 -107 -6
-212 -8 -106 -2 -202 -9 -212 -15 -13 -7 -22 -26 -27 -57 -6 -42 -4 -49 20
-70 26 -22 32 -22 179 -19 84 2 206 7 272 10 66 4 138 9 160 11 22 3 67 7 100
10 33 3 87 7 120 9 33 3 101 10 150 16 50 6 113 13 140 15 28 2 109 6 180 9
72 3 162 9 200 12 39 3 119 12 178 20 60 8 117 19 127 24 10 6 28 10 39 10 11
0 25 9 31 21 7 11 9 32 6 45 -4 13 -19 30 -35 38 -22 12 -63 15 -187 13z m-49
-71 c67 1 102 -2 88 -7 -12 -4 -50 -11 -85 -14 -34 -4 -66 -9 -69 -11 -4 -2
-100 -8 -214 -14 -114 -5 -260 -16 -324 -24 -64 -8 -197 -20 -296 -26 -99 -6
-238 -15 -310 -21 -71 -5 -181 -10 -243 -12 -90 -2 -112 1 -112 12 0 11 18 12
98 7 69 -5 121 -2 182 8 47 9 112 16 145 16 33 0 137 5 230 10 94 6 220 17
280 25 61 8 164 17 230 21 66 3 131 8 145 11 14 2 52 8 85 11 33 4 110 8 170
8z"/>
</g>
<g>
<path d="M5611 3560 c-11 0 -23 -4 -26 -10 -4 -6 5 -10 19 -10 14 0 26 5 26
10 0 6 -9 10 -19 10z"/>
</g>
<g>
<path d="M7986 3108 c-12 0 -83 -4 -158 -8 -75 -4 -140 -10 -145 -13 -5 -3
-31 -7 -59 -8 -27 -1 -67 -5 -89 -10 -22 -4 -78 -13 -125 -19 -47 -7 -103 -13
-125 -15 -22 -3 -67 -9 -100 -15 -33 -6 -87 -15 -120 -20 -33 -5 -96 -12 -140
-14 -44 -3 -113 -8 -153 -11 -40 -3 -103 -10 -140 -15 -37 -5 -82 -14 -100
-19 -18 -6 -105 -10 -193 -10 -89 -1 -165 -3 -170 -6 -5 -3 -62 -13 -126 -21
-65 -8 -167 -19 -228 -25 -60 -6 -130 -13 -155 -15 -25 -2 -52 -7 -60 -10 -8
-3 -69 -10 -135 -15 -66 -6 -149 -12 -185 -14 -36 -2 -83 -6 -105 -8 -22 -3
-67 -9 -100 -12 -33 -4 -96 -13 -140 -21 -44 -8 -99 -17 -122 -19 -24 -2 -52
-6 -63 -10 -14 -4 -20 -15 -20 -35 0 -24 5 -31 27 -36 14 -4 40 -2 58 5 17 6
49 13 71 16 21 3 91 12 154 20 63 8 142 16 175 16 33 1 101 8 150 15 50 7 133
16 185 19 52 3 131 10 175 15 44 6 103 12 130 15 28 2 97 11 155 20 58 8 204
22 324 30 121 8 247 19 280 24 34 5 133 15 221 21 88 6 223 22 300 35 77 14
187 29 245 35 58 6 141 17 185 25 44 7 154 16 245 20 91 4 177 11 193 17 18 7
27 18 27 32 0 12 -5 27 -12 34 -7 7 -21 11 -32 10z"/>
</g>
</g>
</g>
</svg>
