<?xml version="1.0" standalone="no"?>
<!DOCTYPE svg PUBLIC "-//W3C//DTD SVG 20010904//EN"
 "http://www.w3.org/TR/2001/REC-SVG-20010904/DTD/svg10.dtd">
<svg version="1.0" xmlns="http://www.w3.org/2000/svg"
 width="900.000000pt" height="1200.000000pt" viewBox="0 0 900.000000 1200.000000"
 preserveAspectRatio="xMidYMid meet">
<metadata>
Created by potrace 1.16, written by Peter Selinger 2001-2019
</metadata>
<g transform="translate(0.000000,1200.000000) scale(0.100000,-0.100000)"
fill="#000000" stroke="none">
<g>
<path d="M7039 11878 c-2 5 -31 -11 -64 -35 -33 -24 -95 -78 -138 -121 -43
-42 -96 -102 -118 -132 -22 -30 -68 -98 -103 -150 -35 -52 -74 -115 -88 -140
-14 -25 -46 -85 -73 -135 -27 -49 -58 -106 -70 -125 -11 -19 -53 -105 -92
-190 -39 -85 -92 -207 -118 -270 -26 -63 -57 -149 -70 -190 -13 -41 -29 -106
-35 -143 -6 -37 -9 -134 -6 -215 2 -99 11 -183 26 -257 13 -60 31 -127 41
-147 11 -21 19 -43 19 -49 0 -7 15 -44 34 -83 19 -39 50 -93 70 -121 20 -27
51 -72 70 -100 19 -27 56 -72 81 -99 25 -27 45 -53 45 -57 0 -5 85 -93 189
-196 104 -103 243 -240 308 -303 65 -63 167 -160 226 -215 60 -55 132 -129
160 -164 29 -35 75 -96 102 -136 28 -40 72 -117 99 -172 27 -54 53 -107 57
-118 4 -11 15 -45 23 -77 10 -33 16 -96 16 -152 0 -53 -7 -132 -16 -174 -8
-42 -24 -99 -34 -127 -10 -27 -32 -79 -47 -115 -16 -36 -46 -96 -68 -135 -21
-38 -73 -119 -114 -180 -41 -60 -95 -139 -120 -175 -25 -36 -84 -115 -131
-176 -47 -62 -104 -141 -128 -176 -24 -34 -83 -121 -132 -193 -48 -71 -103
-152 -122 -178 -18 -27 -70 -96 -115 -153 -45 -58 -108 -144 -140 -192 -31
-48 -76 -123 -99 -167 -22 -44 -52 -107 -64 -140 -20 -51 -24 -79 -24 -185 -1
-113 1 -129 23 -170 13 -25 27 -47 30 -50 4 -3 14 -17 24 -32 9 -15 50 -52 90
-82 39 -29 95 -64 122 -76 28 -12 70 -28 95 -37 25 -8 79 -23 120 -33 41 -10
122 -32 180 -48 58 -17 128 -39 156 -50 28 -10 69 -23 90 -27 21 -4 44 -10 49
-15 6 -4 24 -10 40 -14 17 -4 50 -16 75 -27 25 -11 58 -27 73 -36 15 -8 38
-20 50 -27 12 -6 61 -37 108 -68 47 -31 107 -81 133 -110 26 -29 63 -80 82
-114 18 -33 43 -96 54 -140 11 -43 20 -104 20 -134 0 -30 -7 -84 -15 -119 -9
-35 -34 -104 -57 -155 -23 -50 -56 -113 -72 -141 -16 -27 -39 -68 -51 -90 -13
-22 -66 -106 -118 -185 -53 -80 -111 -167 -129 -193 -18 -27 -82 -110 -142
-185 -60 -75 -126 -155 -147 -177 -20 -22 -97 -107 -169 -190 -73 -82 -214
-233 -314 -335 -100 -102 -223 -232 -272 -290 -49 -58 -114 -136 -144 -174
-30 -38 -62 -80 -70 -92 -8 -12 -39 -57 -69 -100 -30 -43 -67 -107 -84 -143
-23 -52 -31 -85 -35 -152 -4 -77 -2 -92 20 -140 14 -30 41 -70 60 -89 19 -19
45 -40 59 -46 13 -6 41 -17 62 -23 23 -8 102 -13 205 -13 92 0 280 8 417 17
162 11 294 14 375 10 69 -4 146 -14 172 -22 33 -11 54 -25 72 -52 14 -20 30
-61 36 -90 5 -30 10 -85 10 -123 0 -38 6 -83 13 -101 8 -18 21 -38 29 -45 9
-7 36 -13 62 -14 38 -2 51 2 72 24 15 14 23 31 20 37 -5 8 -13 8 -26 1 -10 -5
-36 -10 -58 -10 -27 0 -45 6 -58 21 -15 16 -19 43 -25 143 -5 104 -10 131 -30
167 -18 32 -38 50 -79 72 -41 20 -80 30 -150 38 -52 5 -133 7 -180 5 -47 -3
-222 -13 -390 -22 -246 -13 -323 -14 -399 -5 -52 6 -110 19 -130 29 -20 9 -48
27 -63 40 -14 13 -36 47 -48 75 -15 34 -22 71 -22 112 0 39 9 83 25 127 14 37
34 79 44 95 10 15 45 66 78 113 33 47 95 128 137 180 43 52 98 120 124 150 25
30 130 141 233 245 102 105 223 231 268 280 44 50 100 113 124 142 24 28 85
98 135 155 49 56 126 149 171 204 44 56 132 180 195 275 63 96 148 233 189
304 41 72 89 162 106 200 18 39 40 99 49 135 10 38 17 103 17 155 0 56 -6 112
-17 150 -10 33 -34 89 -54 125 -19 36 -61 91 -91 124 -31 32 -94 84 -141 116
-47 32 -117 73 -155 92 -39 20 -110 51 -160 71 -49 19 -121 44 -160 55 -38 11
-135 37 -215 57 -80 20 -176 46 -215 57 -38 11 -107 37 -151 58 -51 25 -99 57
-129 87 -26 26 -65 74 -86 106 -20 32 -41 77 -45 100 -4 23 -6 60 -5 82 1 22
6 65 12 95 6 30 37 109 69 175 32 66 93 170 136 230 42 61 91 126 108 145 17
20 70 92 119 160 48 69 137 196 197 283 61 87 110 161 110 163 0 3 35 51 78
107 44 56 103 136 133 177 29 41 90 130 134 196 45 67 106 173 137 235 31 63
67 148 81 189 14 41 33 110 41 152 9 42 16 111 16 152 0 41 -7 104 -15 139 -8
35 -26 93 -39 129 -14 36 -41 96 -60 133 -20 36 -63 105 -95 153 -33 48 -89
121 -125 162 -35 41 -136 141 -223 222 -87 81 -252 243 -368 360 -115 117
-240 247 -276 288 -36 41 -90 109 -121 150 -31 41 -71 102 -89 135 -18 33 -43
81 -55 107 -13 25 -32 75 -43 110 -11 34 -28 104 -38 153 -12 65 -17 138 -17
260 0 125 4 189 16 240 10 39 24 90 33 115 9 24 32 83 51 130 20 47 68 155
107 240 40 85 99 205 133 265 33 61 78 142 99 180 21 39 67 113 103 165 36 52
100 136 144 187 43 50 82 93 87 95 4 2 43 35 86 75 42 39 76 76 74 81z"/>
</g>
<g>
<path d="M3341 11640 c-5 0 -24 -19 -42 -42 -18 -24 -67 -81 -109 -127 -41
-47 -87 -97 -101 -113 -14 -16 -47 -63 -72 -106 -26 -42 -69 -113 -97 -157
-27 -44 -55 -91 -61 -105 -6 -14 -20 -38 -33 -55 -12 -16 -52 -78 -89 -136
-36 -58 -105 -185 -152 -283 -47 -98 -85 -179 -85 -181 0 -1 -29 -63 -64 -136
-35 -74 -70 -150 -79 -169 -9 -19 -36 -82 -61 -140 -24 -58 -68 -166 -97 -240
-28 -74 -65 -178 -81 -230 -16 -52 -40 -134 -53 -181 -13 -48 -38 -169 -56
-270 -31 -175 -33 -196 -33 -424 1 -161 6 -285 17 -376 10 -75 26 -171 37
-212 10 -42 26 -91 36 -109 9 -18 33 -55 52 -83 20 -27 52 -68 71 -90 20 -22
72 -76 117 -121 45 -44 127 -117 181 -161 55 -44 141 -106 192 -138 51 -32
170 -93 265 -137 94 -43 212 -98 261 -123 50 -24 134 -64 187 -89 54 -25 146
-63 205 -84 60 -22 155 -52 213 -68 58 -15 109 -31 114 -35 5 -4 -1 -51 -13
-106 -12 -54 -26 -114 -31 -133 -5 -19 -18 -93 -30 -165 -12 -71 -30 -170 -42
-220 -11 -49 -23 -112 -28 -140 -4 -27 -24 -131 -43 -230 -20 -99 -46 -237
-57 -307 -11 -70 -23 -133 -25 -140 -3 -7 -20 -103 -39 -213 -19 -110 -42
-243 -50 -295 -9 -52 -20 -117 -26 -145 -5 -27 -12 -67 -15 -87 -3 -22 -21
-55 -42 -80 -19 -24 -71 -81 -113 -128 -43 -47 -97 -109 -120 -137 -23 -29
-37 -53 -31 -53 6 0 11 3 11 8 0 4 37 39 82 77 46 39 87 69 92 67 5 -2 30 16
55 40 l46 43 -40 -44 c-22 -23 -80 -77 -128 -119 -49 -41 -104 -80 -122 -86
-20 -7 -52 -35 -82 -71 -27 -33 -61 -76 -74 -96 -13 -20 -52 -66 -85 -103 -34
-36 -69 -81 -78 -100 -9 -19 -16 -46 -16 -60 0 -18 7 -29 23 -35 12 -5 25 -7
29 -5 3 2 11 -10 16 -26 6 -16 22 -35 36 -41 20 -9 41 -8 98 6 40 9 98 30 128
46 30 15 79 37 108 48 29 12 55 21 57 21 3 0 5 -16 5 -35 0 -20 -6 -50 -14
-68 -7 -18 -53 -83 -102 -144 -49 -62 -122 -156 -163 -208 -40 -53 -71 -98
-69 -100 2 -2 8 -1 13 3 6 4 28 30 50 57 23 28 58 75 80 105 21 30 57 74 79
98 23 24 54 49 69 57 26 13 28 13 22 -4 -3 -10 -14 -76 -25 -147 -11 -71 -22
-140 -24 -153 -3 -13 -14 -31 -24 -40 -10 -9 -35 -25 -57 -36 -21 -11 -40 -25
-42 -30 -2 -6 6 -16 18 -23 15 -10 24 -11 32 -3 6 6 21 11 33 11 16 0 20 -5
18 -23 -2 -12 -15 -92 -29 -177 -13 -85 -32 -202 -40 -260 -9 -58 -27 -188
-41 -290 -13 -102 -31 -250 -39 -330 -7 -80 -16 -233 -20 -340 -3 -107 -8
-204 -10 -215 -2 -11 0 -27 5 -35 8 -12 12 -13 19 -2 4 8 11 89 15 180 4 92
11 228 17 302 5 74 16 196 24 270 9 74 22 176 30 225 7 50 19 126 25 170 6 44
20 139 31 210 11 72 27 177 34 235 8 58 30 202 50 320 19 118 41 239 47 268
10 46 19 60 65 99 l53 46 169 -13 c98 -7 219 -9 287 -6 65 4 150 11 188 16 39
5 80 9 91 9 13 0 2 -10 -30 -27 -27 -15 -67 -38 -88 -51 -21 -13 -36 -26 -33
-29 3 -2 22 3 43 12 21 10 52 24 68 31 17 7 50 19 75 26 25 7 52 13 60 14 8 0
42 13 75 28 33 16 92 40 130 53 39 14 99 35 135 46 36 11 95 34 133 51 46 20
69 36 72 51 3 12 6 32 8 46 2 21 -2 25 -23 22 -14 -2 -48 -14 -75 -27 -28 -12
-102 -44 -165 -69 -63 -26 -156 -56 -207 -66 -50 -11 -143 -25 -205 -32 -62
-7 -214 -13 -338 -12 -124 0 -243 4 -264 8 l-39 7 29 29 c16 16 133 80 259
144 127 63 291 139 365 169 74 31 182 70 240 88 94 30 118 33 225 34 105 0
125 -3 161 -22 23 -12 51 -38 63 -56 15 -25 21 -51 21 -92 0 -38 -10 -88 -31
-147 -17 -50 -42 -111 -56 -137 -14 -25 -39 -71 -56 -101 -17 -30 -62 -104
-100 -163 -38 -59 -68 -110 -65 -112 2 -2 17 -1 34 4 16 4 30 15 32 24 2 9 -2
17 -8 17 -6 0 -8 5 -4 11 4 8 9 7 15 -2 7 -11 11 -10 23 6 9 11 15 27 14 35
-1 8 12 30 29 47 17 18 53 75 79 125 27 51 59 118 72 148 12 30 29 80 37 111
8 31 15 95 15 141 0 47 -5 100 -12 119 -6 19 -22 48 -36 66 -15 21 -44 40 -80
54 -46 17 -72 20 -137 16 -44 -2 -93 -10 -110 -16 -23 -10 -26 -14 -15 -21 8
-6 33 -10 54 -10 22 0 37 -2 35 -5 -3 -2 -38 -9 -79 -15 -41 -6 -91 -16 -110
-22 -19 -5 -78 -26 -130 -45 -52 -19 -115 -43 -140 -53 -25 -10 -90 -40 -144
-66 -73 -35 -103 -44 -115 -37 -11 7 -42 -2 -116 -34 -55 -24 -117 -52 -137
-62 -21 -11 -38 -17 -38 -14 0 3 46 62 101 132 56 69 116 140 133 156 18 17
54 55 80 87 26 31 43 59 38 62 -5 3 -18 -7 -29 -22 -11 -15 -56 -68 -99 -117
-43 -50 -83 -95 -90 -102 -6 -7 -51 -61 -98 -121 -70 -88 -96 -113 -134 -130
-26 -11 -64 -27 -84 -36 -21 -8 -38 -12 -38 -8 0 4 10 61 21 127 11 66 27 160
34 209 8 49 19 103 24 120 5 17 12 60 16 94 3 35 10 74 15 86 4 12 25 38 46
59 21 20 46 37 54 37 9 0 29 13 45 30 16 16 25 33 21 37 -4 4 -16 1 -27 -6
-12 -7 -23 -10 -25 -8 -3 2 23 30 57 61 48 45 64 54 75 45 11 -9 22 -2 54 31
23 23 40 44 38 45 -2 2 -27 -4 -56 -13 -47 -15 -65 -30 -160 -133 -59 -64
-108 -112 -110 -108 -2 4 8 72 22 151 14 79 31 172 37 208 6 36 19 110 30 165
10 55 36 204 58 330 22 127 53 302 70 390 16 88 34 180 40 205 5 25 17 86 26
135 9 50 25 133 35 185 11 52 32 157 48 233 16 76 32 140 35 143 3 3 45 -3 94
-15 48 -11 124 -25 168 -30 44 -6 91 -13 105 -16 14 -2 104 -21 200 -40 96
-20 221 -49 277 -65 56 -16 134 -44 172 -61 40 -18 71 -38 71 -46 0 -8 -18
-51 -41 -96 -22 -45 -56 -109 -75 -142 -19 -33 -56 -94 -82 -135 -26 -42 -69
-107 -97 -145 -27 -39 -77 -103 -112 -144 -35 -41 -63 -78 -63 -83 0 -4 1 -8
3 -8 2 0 27 23 57 50 30 28 60 50 66 50 7 0 29 20 48 44 20 23 36 49 36 56 0
8 -9 5 -25 -10 -14 -13 -25 -19 -25 -15 0 5 19 29 42 52 23 24 47 43 53 43 7
0 18 12 26 28 8 15 16 29 19 32 3 3 15 19 27 36 12 17 55 96 96 175 41 79 77
154 80 167 3 12 10 22 15 22 6 0 42 -31 81 -68 46 -45 79 -88 96 -124 14 -30
29 -75 34 -101 4 -26 4 -70 -1 -103 -5 -32 -22 -91 -39 -132 -16 -41 -51 -105
-77 -143 -26 -37 -85 -113 -132 -170 -47 -56 -130 -151 -185 -211 -55 -60
-111 -123 -124 -139 -13 -16 -19 -29 -14 -29 5 0 49 44 98 97 49 54 143 152
209 218 69 70 142 155 173 202 30 46 65 113 78 150 12 38 31 103 40 146 11 48
16 105 13 151 -3 61 -10 86 -42 150 -30 58 -57 93 -109 141 l-70 64 11 63 c6
35 14 86 17 114 4 29 1 105 -5 170 -6 66 -18 147 -25 181 -8 35 -29 93 -47
130 -22 44 -59 95 -107 145 -40 43 -96 93 -125 112 -28 18 -67 42 -86 53 -19
11 -78 44 -130 73 -52 29 -122 70 -156 91 -33 22 -64 39 -68 39 -4 0 -26 15
-49 34 -23 18 -55 41 -72 49 -16 9 -42 26 -58 39 l-27 23 27 122 c14 67 30
120 35 117 4 -3 24 -31 45 -62 21 -31 85 -104 143 -162 58 -58 139 -128 180
-154 41 -27 91 -59 110 -72 20 -13 94 -51 166 -83 72 -33 164 -71 205 -85 41
-14 121 -43 178 -66 58 -23 147 -61 198 -85 51 -24 119 -64 152 -89 33 -25 80
-70 106 -100 28 -34 56 -81 71 -123 15 -39 28 -101 31 -145 4 -56 1 -98 -12
-150 -9 -40 -32 -106 -51 -147 -19 -40 -31 -77 -28 -83 3 -5 1 -15 -5 -22 -7
-8 -22 -33 -34 -57 -13 -24 -43 -80 -66 -124 -24 -44 -63 -118 -86 -165 -23
-47 -54 -125 -70 -175 -15 -49 -43 -133 -61 -185 -18 -52 -51 -151 -72 -220
-22 -69 -47 -161 -55 -205 -9 -44 -21 -118 -27 -165 -5 -47 -10 -120 -10 -164
0 -43 5 -156 11 -250 7 -108 20 -206 34 -268 13 -53 28 -106 35 -118 6 -12 19
-20 28 -18 11 2 17 12 16 28 -1 14 -11 62 -23 106 -13 50 -27 149 -35 255 -8
96 -12 221 -11 279 2 58 8 143 13 190 5 47 19 123 31 170 12 47 43 146 67 220
25 74 48 142 52 150 5 8 16 42 26 75 10 33 28 87 38 120 11 33 34 89 51 125
16 36 40 85 52 110 12 25 36 70 52 100 17 30 45 82 64 115 18 33 51 89 74 125
23 36 52 74 64 85 17 15 14 5 -14 -45 -20 -36 -40 -69 -45 -75 -4 -5 -30 -55
-58 -110 -27 -55 -57 -116 -66 -135 -8 -19 -29 -71 -45 -115 -16 -44 -34 -93
-40 -110 -6 -16 -31 -91 -55 -165 -24 -74 -49 -155 -55 -180 -6 -25 -18 -100
-26 -167 -13 -103 -14 -161 -5 -365 6 -144 16 -265 25 -298 8 -30 26 -102 40
-160 14 -58 41 -143 60 -189 19 -46 60 -129 91 -185 32 -55 70 -119 86 -141
15 -22 62 -87 105 -145 42 -58 100 -136 128 -175 28 -38 63 -89 78 -113 15
-23 42 -77 58 -120 17 -42 40 -99 51 -127 16 -40 20 -70 19 -150 -1 -55 -8
-138 -17 -185 -8 -47 -31 -125 -51 -175 -20 -49 -56 -123 -80 -162 -24 -40
-91 -123 -148 -185 -57 -62 -143 -148 -192 -190 -48 -43 -149 -117 -223 -166
-74 -49 -161 -113 -192 -142 -32 -28 -79 -80 -106 -113 -27 -34 -61 -84 -76
-112 -15 -27 -39 -78 -52 -112 -14 -35 -37 -102 -51 -150 -21 -75 -26 -114
-30 -265 -5 -153 -2 -190 16 -275 11 -54 23 -121 27 -149 l6 -51 -69 -21 c-38
-12 -82 -22 -98 -22 -17 0 -47 -5 -67 -10 -23 -7 -39 -18 -43 -31 -4 -11 -4
-23 -1 -26 3 -3 46 2 97 12 51 9 115 25 142 36 27 11 56 18 64 17 8 -2 20 5
26 14 8 12 6 42 -7 115 -10 54 -24 125 -32 159 -8 36 -14 115 -14 197 0 101 5
159 20 224 11 48 30 115 41 148 11 33 38 96 59 140 21 44 63 110 93 146 30 36
74 80 98 99 24 18 49 38 54 45 6 6 64 46 130 89 66 43 145 99 175 125 30 25
113 104 183 176 83 84 151 165 195 230 37 56 84 145 108 205 29 72 47 133 55
193 6 49 9 141 7 205 -4 111 -6 122 -47 217 -23 55 -48 111 -54 124 -7 13 -34
57 -62 97 -27 40 -72 104 -98 141 -27 37 -63 88 -82 113 -19 25 -54 74 -78
110 -24 36 -62 94 -85 130 -22 36 -56 98 -75 137 -20 40 -45 102 -57 137 -11
35 -31 103 -44 151 l-23 87 36 -7 c20 -4 92 -15 161 -25 69 -10 142 -17 162
-15 36 2 38 1 52 -44 8 -25 27 -80 44 -121 16 -41 58 -124 94 -185 35 -60 77
-129 92 -153 14 -23 34 -51 44 -60 9 -10 45 -49 78 -87 34 -39 81 -106 105
-150 23 -44 57 -109 74 -145 18 -36 50 -119 73 -185 22 -66 48 -166 56 -221 9
-56 16 -129 16 -162 0 -33 -7 -94 -15 -134 -9 -40 -30 -122 -47 -183 -18 -60
-56 -159 -85 -218 -29 -60 -75 -141 -101 -180 -27 -40 -60 -92 -74 -117 -14
-25 -47 -65 -73 -90 -25 -25 -99 -102 -163 -171 -64 -69 -145 -159 -180 -200
-34 -41 -90 -117 -123 -169 -34 -52 -76 -126 -94 -165 -18 -38 -48 -119 -66
-180 l-34 -110 3 -185 c1 -102 4 -220 5 -263 l2 -79 -40 -14 c-22 -8 -65 -19
-95 -25 -30 -6 -88 -27 -128 -47 -41 -19 -76 -42 -79 -49 -3 -8 -1 -19 4 -24
7 -7 36 1 88 26 43 20 97 40 121 44 24 5 45 6 48 4 2 -3 19 3 38 13 18 10 49
20 68 24 l35 5 -3 65 c-2 36 -6 94 -10 130 -4 36 -7 135 -6 220 0 154 1 156
42 284 23 71 52 150 66 175 13 25 47 81 75 123 28 43 51 81 51 85 0 5 30 42
66 83 37 41 129 141 206 222 76 80 154 167 173 192 19 24 63 89 96 143 34 54
85 143 114 198 29 56 71 158 93 230 22 72 48 168 58 215 12 61 15 112 11 180
-3 52 -14 136 -26 185 -11 50 -32 126 -46 170 -14 44 -56 141 -92 215 -37 74
-81 158 -99 185 -18 28 -68 90 -113 139 -45 50 -95 117 -112 150 -18 34 -50
89 -72 124 -21 34 -48 86 -58 115 -11 28 -24 61 -29 72 -5 11 -23 61 -39 110
-17 50 -45 131 -62 180 -29 82 -32 103 -36 245 -4 115 -1 177 11 240 8 47 18
99 21 115 3 17 17 66 31 110 14 44 39 118 56 165 17 46 53 132 80 189 27 57
61 123 77 145 15 23 49 73 76 111 27 39 71 97 99 129 28 32 62 71 76 86 14 14
20 19 14 11 -6 -9 -47 -81 -92 -161 -44 -80 -88 -163 -98 -185 -9 -22 -39 -85
-65 -140 -26 -55 -58 -136 -72 -180 -14 -44 -34 -114 -46 -155 -11 -41 -25
-104 -31 -140 -5 -36 -10 -96 -10 -134 0 -38 5 -110 11 -160 5 -50 17 -134 25
-186 8 -52 26 -133 41 -180 15 -47 46 -125 70 -175 24 -49 59 -115 78 -145 18
-30 53 -79 77 -109 24 -29 65 -80 91 -112 27 -33 55 -59 63 -59 8 0 17 7 20
15 4 9 -16 42 -52 86 -33 39 -76 92 -96 118 -21 25 -44 61 -52 79 -9 19 -26
46 -39 62 -13 15 -47 84 -75 153 -40 96 -57 153 -71 244 -11 65 -25 179 -32
253 -9 105 -10 153 0 215 6 44 30 145 52 224 23 79 55 174 71 210 16 36 40 89
53 116 13 28 35 77 51 110 15 33 35 71 44 85 10 14 32 52 50 85 18 33 42 76
53 95 10 19 25 42 31 50 7 8 29 45 49 81 20 36 54 82 77 103 22 20 40 44 40
55 0 11 -13 25 -33 34 -17 9 -67 27 -109 41 -43 14 -86 30 -97 35 -19 11 -19
13 14 104 18 52 41 131 50 177 10 51 17 131 17 209 0 110 -4 142 -31 251 -18
68 -47 151 -64 185 -18 33 -60 88 -94 124 -35 35 -63 65 -63 67 0 1 19 33 42
69 22 36 49 95 58 129 10 35 24 105 31 156 12 81 11 104 -5 198 -14 84 -28
129 -66 209 -28 58 -76 138 -113 185 -36 46 -80 94 -98 108 -19 13 -70 42
-113 63 -44 21 -126 51 -183 67 -81 23 -117 28 -173 25 -47 -3 -92 -13 -139
-33 -38 -16 -102 -50 -144 -76 -41 -26 -120 -91 -174 -144 -86 -84 -105 -110
-146 -192 -34 -68 -50 -115 -57 -165 -5 -38 -10 -101 -10 -140 0 -38 6 -110
14 -158 8 -48 24 -107 35 -130 11 -23 47 -72 80 -109 33 -37 63 -74 68 -82 4
-7 33 -26 63 -41 30 -15 79 -43 108 -62 29 -18 92 -47 140 -63 72 -25 113 -32
238 -41 143 -9 154 -9 205 11 30 12 77 32 104 46 28 13 77 47 110 74 33 27 65
50 71 50 6 0 30 -15 53 -32 24 -18 61 -60 83 -92 29 -44 49 -93 76 -190 36
-126 37 -137 36 -286 0 -118 -5 -169 -18 -215 -10 -33 -30 -94 -44 -135 -14
-41 -28 -79 -32 -83 -4 -5 -39 7 -77 26 -38 19 -88 40 -112 47 -23 6 -55 9
-70 5 -19 -4 -42 -29 -85 -93 -33 -48 -80 -112 -105 -142 -25 -30 -52 -61 -58
-68 -7 -7 -13 -16 -13 -20 -1 -4 -16 -25 -35 -47 l-35 -40 29 60 c17 33 40 98
52 145 18 69 21 103 17 190 -4 85 -10 118 -34 175 -23 57 -42 84 -108 150 -70
69 -97 88 -196 137 -63 31 -137 65 -165 76 -27 11 -82 32 -120 46 -39 14 -74
26 -79 26 -4 0 -38 12 -74 26 -37 15 -146 65 -242 112 -96 47 -202 106 -235
131 -33 25 -85 68 -116 96 -31 28 -89 89 -128 135 -40 46 -79 97 -88 113 -8
16 -15 44 -15 61 0 17 36 175 81 351 44 176 103 406 130 510 27 105 56 217 66
250 9 33 27 101 40 150 13 50 38 140 54 200 17 61 47 162 65 225 19 63 80 264
136 447 55 183 116 379 135 435 18 57 70 218 115 358 45 140 85 265 91 278 5
13 9 30 9 39 0 11 -3 13 -9 8 -5 -6 -65 -179 -134 -385 -68 -206 -153 -463
-187 -570 -34 -107 -66 -206 -70 -220 -5 -14 -30 -95 -55 -180 -25 -85 -52
-177 -60 -205 -8 -27 -28 -95 -44 -150 -17 -55 -44 -152 -61 -215 -16 -63 -41
-155 -55 -205 -14 -49 -37 -133 -51 -185 -14 -52 -30 -113 -34 -135 -4 -22
-18 -76 -30 -120 -12 -44 -54 -209 -94 -366 l-71 -285 -22 45 c-12 25 -31 68
-44 95 -12 27 -33 86 -46 130 -14 45 -28 102 -33 128 -5 26 -13 55 -19 66 -6
11 -8 22 -4 25 3 3 2 14 -2 24 -5 10 -10 32 -12 48 -1 17 -10 84 -18 150 -10
84 -13 173 -10 295 3 96 7 193 10 215 4 22 17 112 31 200 14 88 36 207 50 265
14 58 43 168 65 245 22 77 52 176 65 220 14 44 40 127 59 185 18 58 47 152 65
209 22 72 29 106 21 114 -7 7 -12 6 -15 -4 -2 -8 -18 -54 -34 -104 -17 -49
-47 -144 -67 -210 -20 -66 -45 -145 -55 -175 -10 -30 -35 -110 -54 -178 -20
-67 -49 -173 -66 -235 -16 -61 -38 -161 -50 -222 -11 -60 -27 -152 -35 -205
-8 -52 -17 -144 -20 -205 -3 -60 -7 -150 -9 -200 -2 -49 3 -155 10 -235 8 -80
23 -188 33 -240 11 -52 26 -122 35 -155 8 -33 27 -94 41 -135 15 -41 45 -115
68 -163 39 -84 40 -90 29 -135 -6 -26 -18 -81 -27 -122 -9 -41 -19 -81 -21
-88 -3 -10 -17 -4 -47 20 -23 18 -85 78 -138 133 -53 55 -110 116 -126 135
-17 19 -52 64 -79 100 -27 36 -72 101 -100 145 -28 44 -77 132 -109 195 -32
63 -77 165 -101 226 -24 62 -53 150 -64 196 -11 45 -31 142 -45 213 -13 72
-37 213 -54 315 -16 102 -39 253 -50 335 -11 83 -27 220 -35 305 -8 85 -18
218 -21 295 -4 77 -9 148 -11 158 -3 9 -8 17 -12 17 -4 0 -6 -57 -5 -127 2
-71 10 -209 19 -308 8 -99 22 -227 30 -285 8 -58 19 -141 25 -185 6 -44 29
-186 50 -315 22 -129 46 -271 55 -315 9 -44 25 -116 36 -160 11 -44 36 -123
55 -175 19 -52 62 -149 94 -215 32 -66 73 -146 91 -177 18 -32 59 -95 90 -140
32 -46 82 -114 113 -153 31 -38 85 -100 122 -138 37 -38 96 -95 132 -127 l65
-58 -17 -74 c-10 -40 -22 -95 -27 -123 -4 -27 -37 -185 -73 -350 -36 -165 -71
-326 -77 -358 -8 -39 -16 -57 -24 -54 -7 3 -64 19 -127 36 -63 18 -145 43
-184 58 -38 14 -86 32 -105 41 -19 8 -98 46 -176 83 -78 38 -145 69 -150 69
-5 0 -22 7 -39 16 -16 9 -68 33 -115 54 -47 20 -139 64 -206 97 -66 33 -154
84 -195 113 -41 29 -112 86 -159 125 -47 40 -129 117 -183 171 -53 54 -119
130 -147 170 -31 44 -60 102 -75 150 -16 49 -32 141 -44 239 -10 88 -19 243
-20 345 -1 152 3 215 23 352 14 91 37 212 51 268 14 56 42 150 62 208 19 59
65 181 100 272 36 91 74 185 85 210 11 25 40 88 65 140 25 52 64 138 88 190
24 52 73 158 109 234 37 77 97 189 133 250 36 61 87 143 113 181 26 39 55 86
65 105 10 19 32 58 50 85 17 28 57 88 87 135 31 47 84 117 118 155 34 39 80
90 102 113 22 24 51 66 64 93 13 27 24 53 24 59 0 5 -4 10 -9 10z m2369 -2578
c30 -2 98 -17 150 -33 52 -17 124 -44 160 -62 35 -18 80 -48 100 -67 19 -19
51 -55 71 -80 20 -25 55 -80 77 -122 22 -42 49 -103 60 -135 11 -32 25 -95 32
-139 8 -60 8 -101 0 -155 -7 -41 -20 -104 -31 -140 -10 -36 -37 -93 -59 -127
-22 -34 -47 -62 -55 -62 -9 0 -18 -6 -21 -14 -3 -7 -33 -36 -67 -63 -34 -28
-80 -60 -103 -71 -23 -12 -90 -28 -155 -38 -76 -11 -142 -15 -199 -11 -58 4
-109 15 -161 35 -42 16 -104 45 -136 65 -33 20 -74 43 -90 49 -16 7 -59 45
-95 83 -36 39 -79 93 -95 120 -23 39 -32 73 -43 151 -8 64 -10 131 -6 180 4
44 14 106 22 139 9 33 36 92 60 132 25 40 77 102 120 142 42 39 114 96 160
127 47 30 104 62 127 70 23 9 60 19 82 23 22 4 65 5 95 3z m-1410 -1397 c66
-47 197 -128 291 -181 95 -53 204 -117 243 -144 39 -27 89 -66 111 -86 22 -21
59 -67 82 -102 23 -34 51 -91 62 -125 10 -34 25 -93 32 -131 7 -43 9 -99 5
-150 -4 -44 -8 -92 -10 -106 -2 -14 -9 -44 -16 -67 -7 -24 -15 -43 -17 -43 -2
0 -25 11 -51 24 -26 13 -86 37 -133 54 -47 17 -132 40 -190 52 -57 11 -124 27
-149 35 -25 8 -106 24 -180 35 -74 12 -193 33 -265 46 -71 14 -130 26 -132 27
-1 2 11 68 28 147 17 80 34 165 38 190 5 25 27 131 50 235 23 105 48 222 57
260 8 39 17 80 20 92 4 21 13 17 124 -62z m1888 -811 c15 -4 59 -23 97 -43 39
-20 90 -43 115 -51 25 -8 54 -19 65 -26 11 -7 38 -17 60 -23 22 -6 49 -17 59
-24 17 -12 14 -17 -41 -68 -33 -30 -91 -90 -129 -134 -38 -44 -88 -103 -112
-132 -23 -29 -73 -99 -110 -155 -37 -57 -86 -141 -109 -188 -23 -47 -57 -125
-75 -175 -19 -49 -47 -130 -62 -179 -15 -49 -32 -110 -36 -135 -5 -25 -14 -66
-21 -91 -6 -25 -12 -113 -12 -200 -1 -126 3 -171 20 -240 12 -47 31 -109 42
-138 12 -29 21 -55 21 -58 0 -4 -33 -4 -72 -1 -40 2 -111 10 -158 17 -47 7
-101 17 -121 21 -30 7 -38 15 -43 39 -3 17 -10 132 -16 256 -10 210 -9 235 10
372 16 107 35 186 70 292 27 80 67 197 90 260 23 63 67 165 97 225 31 61 105
196 166 300 60 105 125 211 144 237 30 42 38 47 61 42z m-1478 -2556 c19 0 27
-2 18 -5 -10 -2 -26 -2 -35 0 -10 3 -2 5 17 5z m86 -8 c10 0 26 -5 34 -10 11
-8 7 -9 -15 -4 -16 4 -32 8 -34 10 -2 2 4 4 15 4z m-1323 -30 c4 0 5 -17 1
-37 -3 -21 -12 -69 -20 -108 -8 -38 -21 -115 -29 -170 -8 -55 -15 -103 -15
-107 0 -4 -14 -15 -31 -24 -17 -8 -95 -24 -173 -35 -77 -10 -153 -20 -168 -22
-16 -2 -28 0 -28 5 0 5 19 37 42 71 23 34 60 85 83 113 23 28 106 110 186 182
79 73 148 132 152 132z m-48 -560 c8 0 15 -2 15 -4 0 -2 -7 -9 -15 -16 -12
-10 -15 -10 -15 4 0 9 7 16 15 16z"/>
<g>
<path d="M5616 8540 c-6 0 -18 -6 -27 -13 -8 -7 -18 -19 -21 -29 -4 -9 1 -23
11 -32 10 -9 27 -16 40 -16 13 0 26 9 33 25 9 21 8 28 -7 45 -10 11 -23 20
-29 20z"/>
</g>
<g>
<path d="M5457 8258 c-9 2 -18 -6 -22 -18 -5 -15 4 -44 30 -94 21 -39 43 -78
50 -86 8 -8 18 -27 24 -43 6 -15 18 -27 26 -27 9 0 38 11 65 25 40 20 50 30
50 50 0 19 -5 25 -23 25 -12 0 -33 -8 -46 -17 -23 -16 -25 -15 -48 13 -13 16
-35 54 -49 84 -13 30 -28 62 -33 70 -4 8 -15 16 -24 18z"/>
</g>
<g>
<path d="M5162 8209 c-9 5 -26 5 -38 1 -12 -5 -24 -14 -26 -22 -3 -7 -2 -23 3
-35 4 -12 20 -25 34 -29 18 -4 32 -1 42 9 10 10 13 24 9 41 -3 14 -14 30 -24
35z"/>
</g>
<g>
<path d="M5893 8088 c-11 2 -24 -1 -27 -7 -3 -5 -62 -53 -130 -106 -68 -52
-130 -103 -137 -111 -10 -12 -9 -18 4 -31 13 -13 21 -14 39 -6 13 6 55 40 93
76 39 35 96 81 128 101 46 29 58 42 55 59 -2 14 -11 23 -25 25z"/>
</g>
</g>
<g>
<path d="M7298 9880 c-4 0 -25 -23 -46 -52 -20 -28 -46 -66 -57 -84 -11 -18
-46 -72 -79 -120 -32 -48 -73 -114 -90 -145 -17 -32 -27 -61 -23 -65 4 -4 85
-16 180 -26 95 -10 234 -23 309 -29 76 -6 145 -9 153 -5 8 3 15 15 15 27 0 12
-35 74 -77 138 -43 64 -98 142 -123 174 -25 33 -51 69 -59 80 -8 12 -33 41
-55 65 -22 23 -44 42 -48 42z"/>
</g>
<g>
<path d="M1954 6580 c-12 0 -25 -7 -28 -16 -4 -9 -2 -22 3 -28 5 -6 10 -25 10
-41 -1 -17 9 -142 20 -280 12 -137 21 -285 21 -330 0 -44 7 -134 15 -200 7
-66 17 -163 20 -215 3 -52 8 -129 11 -170 3 -41 16 -160 29 -265 13 -104 26
-262 29 -350 4 -88 8 -247 11 -354 3 -106 8 -197 11 -202 3 -5 11 -9 19 -9 7
0 31 20 53 45 22 25 59 78 83 118 23 40 73 115 111 167 38 52 93 127 121 166
29 40 81 109 117 155 36 46 72 93 80 105 8 12 47 64 86 115 38 52 99 137 133
189 35 52 87 127 116 165 29 39 76 104 105 145 29 41 77 114 107 163 29 48 53
90 53 92 0 2 21 37 47 77 25 40 72 107 103 148 31 41 84 112 118 158 48 64 61
88 56 106 -4 19 -20 28 -74 45 -38 12 -86 24 -107 27 -21 3 -78 14 -128 25
-49 11 -148 36 -220 55 -71 19 -182 45 -245 59 -63 13 -162 31 -220 39 -58 8
-150 20 -205 25 -55 6 -156 20 -225 31 -69 10 -145 24 -170 29 -25 6 -55 10
-66 11z m38 -60 c2 0 19 -5 38 -10 19 -6 53 -12 75 -15 22 -3 92 -12 155 -20
63 -8 153 -20 200 -25 47 -6 132 -18 190 -26 58 -8 128 -21 155 -29 28 -7 84
-21 125 -30 41 -8 100 -22 130 -30 30 -9 116 -29 190 -45 74 -16 153 -32 175
-36 22 -4 58 -14 80 -22 22 -8 42 -17 44 -18 2 -2 -17 -29 -41 -61 -24 -32
-76 -101 -115 -153 -39 -52 -115 -167 -167 -255 -53 -88 -122 -196 -154 -241
-31 -45 -105 -150 -165 -235 -59 -85 -142 -201 -185 -258 -42 -57 -93 -125
-112 -151 -19 -27 -80 -107 -135 -178 -55 -72 -124 -163 -154 -204 -29 -40
-76 -110 -103 -155 -27 -46 -53 -85 -58 -88 -4 -3 -10 84 -14 193 -3 108 -10
286 -16 395 -6 109 -17 237 -26 284 -8 48 -21 182 -29 300 -8 117 -16 217 -19
221 -3 5 -10 96 -16 203 -6 107 -17 293 -26 414 -8 121 -17 232 -20 248 -3 15
-4 27 -2 27z"/>
<g>
<path d="M3247 6237 c-18 8 -31 8 -48 -1 -15 -7 -25 -22 -27 -41 -3 -19 2 -33
14 -42 10 -7 30 -13 46 -13 17 0 31 7 38 21 7 11 9 31 6 43 -3 13 -16 27 -29
33z"/>
</g>
<g>
<path d="M2272 6138 c-21 7 -35 6 -56 -5 -26 -14 -28 -19 -23 -55 3 -23 11
-45 19 -49 7 -5 27 -9 44 -9 17 0 36 6 41 13 6 6 13 23 16 36 3 13 2 32 -3 42
-5 9 -22 21 -38 27z"/>
</g>
<g>
<path d="M2837 6110 c-3 0 -13 -7 -21 -16 -9 -8 -16 -18 -16 -20 0 -3 30 -36
66 -75 l65 -70 -26 -31 c-14 -17 -25 -38 -23 -47 2 -9 11 -17 20 -19 9 -2 30
12 46 29 17 18 36 43 42 54 10 19 7 26 -22 56 -18 19 -54 58 -80 87 -25 29
-48 52 -51 52z"/>
</g>
<g>
<path d="M3076 5779 c-6 0 -27 -6 -46 -14 -19 -7 -44 -16 -55 -21 -11 -4 -22
-8 -25 -8 -3 -1 -27 -8 -55 -15 -27 -8 -128 -51 -223 -97 -94 -46 -178 -84
-185 -84 -7 0 -18 -5 -25 -12 -7 -7 -12 -22 -12 -34 0 -13 5 -26 10 -29 6 -3
76 28 158 70 81 42 179 90 218 105 39 16 111 40 160 54 49 15 95 33 103 41 12
11 12 17 1 29 -7 9 -18 16 -24 15z"/>
</g>
</g>
<g>
<path d="M4533 5580 c-5 -1 -24 -9 -44 -20 -20 -10 -50 -35 -67 -55 -18 -20
-32 -40 -32 -46 0 -6 23 10 51 35 28 25 55 43 60 40 6 -3 16 0 24 6 8 7 15 19
15 26 0 8 -3 14 -7 14z"/>
</g>
<g>
<path d="M1230 5519 c-14 0 -37 -4 -51 -9 -14 -4 -50 -23 -80 -42 -30 -19 -68
-51 -86 -71 -18 -20 -37 -53 -42 -74 -6 -21 -11 -50 -11 -65 0 -15 5 -51 11
-79 9 -42 21 -62 60 -100 27 -26 62 -50 79 -54 17 -4 43 -13 59 -21 22 -11 39
-12 87 -3 32 6 75 19 95 29 20 11 48 33 62 50 15 17 36 62 47 100 18 62 20 78
10 132 -7 34 -18 74 -25 88 -8 15 -34 43 -58 63 -25 20 -64 41 -88 46 -24 6
-55 10 -69 10z"/>
</g>
<g>
<path d="M4359 5430 c-5 0 -7 -4 -4 -10 3 -5 8 -10 11 -10 2 0 4 5 4 10 0 6
-5 10 -11 10z"/>
</g>
<g>
<path d="M4398 5398 c-2 5 -18 5 -37 0 -23 -6 -55 -31 -93 -71 -32 -34 -58
-66 -58 -71 0 -6 12 1 28 15 15 13 37 30 49 37 13 6 29 12 36 12 7 0 27 16 46
35 18 19 31 39 29 43z"/>
</g>
<g>
<path d="M4672 5400 c-5 0 -15 -7 -22 -15 -7 -8 -8 -15 -2 -15 5 0 15 7 22 15
7 8 8 15 2 15z"/>
</g>
<g>
<path d="M4268 5250 c-2 7 -10 4 -19 -7 -8 -10 -21 -27 -29 -37 -14 -18 -14
-19 6 -8 11 6 26 18 33 26 7 8 11 20 9 26z"/>
</g>
<g>
<path d="M4181 5220 c-5 0 -21 -14 -35 -32 -14 -18 -23 -34 -21 -36 2 -3 10
-2 17 1 7 2 21 19 31 36 10 17 14 31 8 31z"/>
</g>
<g>
<path d="M4672 5130 c-4 0 -13 -9 -20 -20 -7 -11 -9 -20 -4 -20 4 0 13 5 20
12 7 7 12 16 12 20 0 4 -3 8 -8 8z"/>
</g>
<g>
<path d="M3998 5020 c-2 -1 -16 -14 -32 -31 -15 -17 -26 -32 -24 -35 3 -2 17
8 31 22 15 15 27 31 27 35 0 5 -1 9 -2 9z"/>
</g>
<g>
<path d="M3926 4940 c-2 0 -23 -21 -46 -47 -27 -31 -37 -49 -29 -52 7 -2 15 1
17 7 2 6 16 26 32 44 17 18 30 36 30 41 0 4 -2 7 -4 7z"/>
</g>
<g>
<path d="M4478 4911 c-2 5 -16 -5 -32 -23 -15 -18 -72 -80 -125 -138 -53 -57
-105 -114 -116 -125 -11 -12 -33 -38 -48 -58 -15 -20 -44 -54 -63 -74 -20 -21
-42 -48 -51 -61 -9 -12 -13 -25 -11 -28 3 -3 50 48 104 113 55 65 135 156 179
203 44 47 99 108 123 134 24 27 42 52 40 57z"/>
</g>
<g>
<path d="M3999 4815 c-3 3 -9 2 -12 -2 -4 -3 -7 -11 -7 -17 0 -6 5 -5 12 2 6
6 9 14 7 17z"/>
</g>
<g>
<path d="M3752 4600 c-6 0 -14 -5 -17 -11 -4 -6 -5 -12 -2 -15 2 -2 10 2 17
11 8 9 8 15 2 15z"/>
</g>
<g>
<path d="M3622 4470 c-5 0 -15 -7 -22 -15 -7 -8 -8 -15 -2 -15 5 0 15 7 22 15
7 8 8 15 2 15z"/>
</g>
<g>
<path d="M4070 3600 c-5 0 -10 -4 -10 -10 0 -5 5 -10 10 -10 6 0 10 5 10 10 0
6 -4 10 -10 10z"/>
</g>
<g>
<path d="M4623 3410 c-5 0 -42 -50 -82 -110 -41 -61 -71 -113 -68 -117 4 -3
22 2 42 11 19 9 35 24 35 33 0 15 -2 15 -18 0 -10 -10 -22 -17 -27 -17 -5 0 1
10 12 23 11 12 25 32 31 43 6 12 27 29 47 38 19 9 35 24 35 33 0 9 -6 13 -15
9 -8 -3 -15 -3 -15 0 0 2 7 16 16 29 9 14 12 25 7 25z"/>
</g>
<g>
<path d="M4488 3159 c-7 -1 -22 -4 -33 -6 -11 -2 -33 -23 -50 -46 -16 -23 -45
-64 -63 -91 -18 -27 -31 -50 -29 -52 2 -3 20 2 39 10 20 9 38 22 41 31 4 9 1
15 -9 15 -8 0 -12 5 -9 10 4 6 25 22 47 36 26 17 38 30 34 40 -4 9 3 18 19 24
14 5 25 14 25 20 0 5 -6 9 -12 9z m-45 -49 c5 0 4 -7 -3 -15 -7 -8 -20 -15
-29 -15 -13 1 -13 3 3 15 11 8 24 15 29 15z"/>
</g>
<g>
<path d="M3013 3130 c-5 0 -63 -72 -128 -161 -66 -88 -130 -173 -142 -187 -12
-15 -39 -48 -60 -73 -21 -26 -56 -70 -78 -99 -22 -29 -64 -82 -93 -119 -29
-36 -83 -104 -120 -150 -37 -46 -92 -115 -122 -152 -30 -37 -63 -80 -74 -95
-16 -23 -24 -26 -59 -21 -22 3 -47 12 -55 21 -14 14 -14 19 0 48 9 18 43 63
77 100 37 40 61 74 59 85 -2 12 8 23 27 33 17 8 47 26 68 38 20 13 37 30 37
38 0 11 -6 13 -22 8 -13 -3 -43 -22 -68 -42 -25 -19 -61 -51 -80 -71 -19 -20
-51 -57 -71 -81 -20 -25 -43 -61 -51 -80 -9 -19 -21 -54 -27 -78 -11 -37 -10
-47 4 -69 10 -14 26 -28 36 -30 10 -3 19 -9 19 -13 0 -5 -12 -23 -27 -42 -16
-18 -39 -45 -52 -60 -13 -16 -51 -67 -83 -114 -42 -62 -58 -95 -56 -113 2 -14
7 -25 13 -24 5 1 13 15 16 31 3 16 17 45 30 63 13 19 54 71 92 117 37 45 73
82 80 82 6 0 27 15 47 33 23 22 57 40 100 52 36 10 87 29 114 43 32 16 45 27
38 34 -6 6 -40 7 -98 0 -49 -5 -91 -8 -93 -6 -2 2 7 18 20 36 13 18 57 74 99
123 42 50 107 131 145 180 38 50 81 106 97 125 15 19 92 117 171 217 78 100
169 219 202 264 33 45 64 88 68 96 4 7 4 13 0 13z"/>
</g>
<g>
<path d="M3151 3060 c-6 0 -13 -5 -16 -11 -4 -6 -5 -13 -2 -16 3 -3 10 -2 16
2 6 3 11 10 11 16 0 5 -4 9 -9 9z"/>
</g>
<g>
<path d="M4298 2941 c-3 9 -12 0 -22 -21 l-18 -35 22 21 c12 12 20 28 18 35z"/>
</g>
<g>
<path d="M4228 2780 c-2 0 -9 -5 -15 -11 -6 -6 -22 -17 -35 -23 -12 -6 -27
-21 -33 -33 -5 -12 -19 -26 -32 -32 -13 -6 -23 -15 -23 -20 0 -6 13 -6 33 1
17 7 41 23 52 36 11 14 28 38 38 54 11 15 17 28 15 28z"/>
</g>
<g>
<path d="M4039 2524 c-2 2 -21 -5 -41 -16 -21 -11 -38 -24 -38 -29 0 -5 8 -9
18 -9 10 0 29 11 42 25 13 14 22 27 19 29z"/>
</g>
<g>
<path d="M3958 2421 c-3 10 -9 7 -19 -8 -7 -13 -19 -23 -25 -23 -7 0 -22 -9
-35 -20 l-24 -19 35 9 c19 6 43 18 53 29 11 10 17 25 15 32z"/>
</g>
<g>
<path d="M3800 2220 c-5 0 -10 -4 -10 -10 0 -5 5 -10 10 -10 6 0 10 5 10 10 0
6 -4 10 -10 10z"/>
</g>
<g>
<path d="M3718 2096 c-3 2 -12 -4 -21 -14 -10 -10 -14 -22 -10 -25 3 -4 13 2
21 14 8 11 12 22 10 25z"/>
</g>
<g>
<path d="M3546 1880 c-3 0 -8 -4 -11 -10 -3 -5 -1 -10 4 -10 6 0 11 5 11 10 0
6 -2 10 -4 10z"/>
</g>
<g>
<path d="M3480 1779 c-8 0 -26 -6 -40 -12 -14 -6 -31 -17 -37 -24 -7 -6 -13
-14 -13 -16 0 -3 16 1 36 8 19 6 43 19 52 28 13 14 14 17 2 16z"/>
</g>
<g>
<path d="M3377 1636 c-2 3 -14 -7 -26 -22 -11 -15 -21 -31 -21 -36 0 -5 12 5
26 22 15 17 24 33 21 36z"/>
</g>
<g>
<path d="M3298 1527 c-4 15 -8 12 -24 -14 -10 -18 -23 -33 -29 -33 -5 0 -19
-7 -29 -15 -11 -8 -17 -17 -14 -21 4 -3 19 1 35 9 15 8 36 24 46 35 10 11 17
29 15 39z"/>
</g>
<g>
<path d="M3233 1440 c-5 -1 -27 -18 -50 -39 -24 -21 -43 -42 -43 -46 0 -4 -16
-25 -35 -48 -19 -22 -33 -42 -31 -45 2 -2 27 14 56 35 28 21 64 59 81 84 16
25 29 49 29 52 0 4 -3 7 -7 7z"/>
</g>
<g>
<path d="M3113 1243 c-5 2 -18 -2 -30 -8 -13 -6 -32 -20 -43 -30 -11 -10 -31
-41 -45 -69 -14 -28 -41 -73 -61 -100 -19 -27 -32 -56 -30 -63 3 -8 -1 -16
-10 -20 -8 -3 -22 -20 -32 -37 -9 -17 -17 -36 -17 -41 0 -6 -12 -26 -26 -45
-14 -19 -31 -48 -38 -65 -7 -16 -17 -37 -22 -45 -5 -8 -29 -55 -53 -105 -23
-49 -48 -103 -54 -120 -7 -16 -19 -56 -27 -88 -8 -32 -15 -79 -15 -105 0 -26
5 -64 10 -84 9 -32 17 -39 51 -50 31 -9 54 -9 94 -1 29 7 88 26 131 43 44 17
123 56 177 87 53 30 97 60 97 65 0 5 -3 8 -8 6 -4 -1 -34 -16 -67 -31 -33 -16
-86 -42 -118 -59 -52 -27 -62 -29 -83 -18 -19 11 -32 11 -66 0 -24 -7 -67 -15
-96 -18 -41 -3 -57 0 -73 14 -15 13 -18 25 -13 53 3 20 15 65 26 101 12 36 36
98 55 138 18 40 44 94 56 120 13 26 49 93 80 149 31 57 84 146 117 198 33 53
60 99 60 102 0 3 15 26 33 52 18 25 36 51 40 58 4 6 4 13 0 16z"/>
</g>
</g>
</svg>
