<?xml version="1.0" standalone="no"?>
<!DOCTYPE svg PUBLIC "-//W3C//DTD SVG 20010904//EN"
 "http://www.w3.org/TR/2001/REC-SVG-20010904/DTD/svg10.dtd">
<svg version="1.0" xmlns="http://www.w3.org/2000/svg"
 width="900.000000pt" height="1200.000000pt" viewBox="0 0 900.000000 1200.000000"
 preserveAspectRatio="xMidYMid meet">
<metadata>
Created by potrace 1.16, written by Peter Selinger 2001-2019
</metadata>
<g transform="translate(0.000000,1200.000000) scale(0.100000,-0.100000)"
fill="#000000" stroke="none">
<g>
<path d="M4521 11570 c-5 0 -15 -7 -22 -17 -11 -13 -14 -115 -16 -547 -1 -292
-5 -598 -9 -679 -6 -124 -10 -150 -23 -154 -9 -3 -57 -25 -106 -49 -56 -28
-135 -80 -210 -139 -66 -53 -146 -121 -178 -153 -32 -31 -89 -91 -126 -132
-38 -41 -89 -99 -115 -128 -25 -29 -46 -57 -46 -61 0 -5 -16 -29 -36 -53 -19
-23 -41 -50 -47 -58 -7 -8 -42 -64 -79 -125 -36 -60 -76 -128 -88 -150 -13
-22 -41 -74 -63 -115 -22 -41 -45 -82 -52 -90 -7 -8 -43 -75 -80 -148 -37 -73
-66 -135 -63 -137 3 -3 27 2 54 10 27 8 61 15 77 15 15 0 27 -3 27 -7 0 -5 4
-14 9 -21 6 -11 38 -4 157 32 82 24 217 59 299 76 111 23 191 33 305 38 85 4
199 6 254 4 l99 -3 -7 -242 c-4 -133 -11 -269 -16 -302 -5 -33 -12 -127 -15
-210 -3 -82 -10 -188 -15 -235 -5 -47 -12 -179 -16 -295 -3 -115 -8 -230 -10
-255 -2 -25 -7 -142 -9 -260 -3 -118 -6 -271 -7 -340 0 -69 4 -137 10 -151 6
-16 7 -31 1 -40 -6 -9 -7 -125 -3 -304 4 -159 8 -310 9 -335 2 -25 6 -106 10
-180 3 -74 8 -173 11 -220 2 -47 6 -114 8 -150 2 -36 7 -101 11 -145 4 -44 8
-127 10 -185 2 -58 5 -152 8 -210 3 -58 8 -260 12 -450 4 -190 10 -431 14
-536 3 -105 5 -199 3 -208 -3 -13 -12 -15 -50 -11 -26 3 -76 10 -112 15 -36 5
-110 12 -165 15 -55 4 -119 11 -142 16 -23 5 -101 9 -174 10 -85 1 -165 9
-223 21 -50 10 -120 20 -156 22 -36 1 -99 13 -140 24 -41 12 -140 40 -219 62
-80 22 -164 40 -188 40 -24 0 -43 -4 -43 -9 0 -5 8 -12 18 -16 9 -4 58 -17
107 -30 50 -13 149 -40 220 -60 72 -19 164 -42 205 -50 41 -9 152 -24 245 -36
94 -11 195 -22 225 -24 30 -2 138 -9 240 -16 102 -6 223 -17 270 -23 l85 -11
6 -155 c4 -85 10 -218 13 -295 4 -77 10 -239 15 -360 4 -121 5 -251 2 -290
l-6 -69 -85 -58 c-47 -31 -130 -79 -185 -107 -55 -27 -167 -71 -250 -99 -87
-29 -188 -55 -242 -62 -59 -8 -141 -11 -225 -7 -107 5 -155 12 -241 37 -60 17
-141 47 -180 68 -48 25 -97 62 -147 112 -57 57 -87 97 -121 165 -26 50 -59
126 -74 170 -26 76 -27 87 -22 205 3 69 15 170 27 225 11 55 29 143 40 195 11
52 27 138 36 190 9 52 21 158 28 235 8 97 9 142 1 147 -5 4 -22 8 -37 8 -24 0
-28 -5 -37 -52 -6 -29 -13 -75 -17 -103 -3 -27 -20 -113 -36 -190 -16 -77 -36
-174 -44 -215 -8 -41 -22 -113 -29 -160 -8 -47 -15 -115 -15 -152 0 -37 5
-102 11 -145 5 -43 17 -105 26 -138 8 -33 26 -96 40 -140 13 -43 37 -107 54
-141 16 -34 29 -65 29 -69 0 -4 24 -41 53 -83 28 -42 72 -96 97 -122 25 -25
67 -58 93 -74 27 -15 84 -40 127 -56 43 -16 114 -39 157 -51 64 -19 100 -23
203 -22 69 1 159 3 200 5 47 3 84 10 100 21 16 10 44 16 75 15 28 -1 60 4 73
11 12 6 22 16 22 21 0 6 11 10 25 10 14 0 56 10 93 22 37 11 119 48 182 80 67
34 132 76 157 100 l43 42 1 -54 c1 -30 2 -118 4 -195 1 -77 8 -225 14 -330 9
-127 11 -285 6 -475 -3 -157 -7 -295 -8 -308 -1 -15 7 -28 24 -39 15 -9 33
-14 41 -10 12 4 16 50 21 259 4 139 5 262 2 273 -2 11 -6 76 -9 145 -3 69 -10
202 -16 295 -6 94 -9 237 -8 320 l2 150 36 30 c19 16 88 82 153 146 64 64 117
122 117 128 0 6 6 11 13 11 6 0 35 22 62 48 28 27 104 109 170 182 66 74 147
163 181 199 33 37 76 91 94 121 19 30 50 75 68 100 18 25 40 54 50 66 9 11 53
64 96 118 44 53 115 126 158 162 43 36 78 70 78 75 0 5 -15 6 -32 2 -18 -3
-56 -14 -85 -25 -42 -16 -59 -17 -90 -9 -35 10 -39 9 -65 -22 -15 -17 -68 -84
-116 -147 -49 -63 -115 -155 -148 -205 -32 -49 -83 -119 -113 -155 -30 -36
-109 -123 -175 -194 -67 -71 -192 -196 -279 -278 -86 -82 -161 -147 -165 -144
-4 2 -9 80 -10 172 -1 92 -6 224 -11 293 -6 69 -13 229 -17 355 -4 127 -7 237
-8 245 -1 14 16 16 129 12 72 -2 144 -5 160 -7 17 -2 113 -7 215 -10 134 -5
205 -3 255 6 39 7 93 21 120 31 28 9 79 25 113 35 35 9 66 23 69 31 3 8 2 18
-3 22 -5 5 -64 -9 -131 -30 -68 -21 -162 -44 -210 -50 -56 -7 -136 -9 -218 -5
-71 4 -186 9 -255 13 -69 3 -152 8 -185 12 l-60 6 -6 180 c-4 99 -9 331 -13
515 -4 184 -8 351 -11 370 -2 19 -11 186 -20 370 -8 184 -17 351 -20 370 -3
19 -12 208 -21 420 -9 212 -17 590 -18 840 0 250 2 498 6 550 4 52 10 172 13
265 3 94 12 267 20 385 8 118 22 319 30 445 8 127 15 301 16 388 2 134 4 159
18 166 9 4 84 2 166 -5 83 -7 202 -20 265 -30 63 -9 159 -27 213 -40 53 -14
134 -36 180 -50 45 -14 91 -29 102 -34 11 -5 52 -21 90 -36 39 -15 131 -57
205 -94 74 -37 164 -85 200 -107 36 -21 75 -46 87 -53 21 -13 24 -13 39 8 10
14 24 22 37 20 22 -3 22 -3 20 195 -1 124 -8 235 -18 300 -9 56 -21 122 -27
147 -5 25 -21 79 -35 120 -14 41 -47 121 -73 177 -26 55 -74 145 -106 200 -31
54 -75 123 -97 153 -22 30 -74 89 -116 130 -42 41 -110 100 -151 131 -41 31
-111 76 -155 100 -44 24 -116 58 -160 76 -44 18 -102 39 -130 48 -27 9 -102
28 -165 41 -64 14 -168 28 -234 31 l-119 6 7 606 c4 333 9 629 13 658 4 40 2
59 -11 78 -9 14 -20 25 -25 25z m154 -1611 c61 1 157 -6 215 -15 58 -9 119
-22 135 -29 17 -7 58 -22 93 -34 34 -11 73 -21 86 -21 13 0 35 -9 49 -20 14
-11 32 -20 39 -20 8 0 52 -23 97 -50 46 -28 118 -78 160 -112 42 -34 94 -80
116 -103 22 -23 60 -68 85 -100 25 -32 59 -83 77 -114 18 -31 46 -85 64 -121
17 -36 38 -78 47 -95 8 -16 19 -37 23 -45 5 -8 17 -36 28 -61 11 -26 27 -66
35 -90 8 -24 22 -75 31 -114 9 -39 19 -134 22 -215 2 -80 1 -169 -4 -198 l-8
-52 -65 39 c-36 22 -81 48 -100 59 -19 10 -85 44 -146 75 -61 31 -162 77 -225
102 -63 25 -130 50 -149 55 -19 5 -72 20 -117 34 -44 14 -115 32 -157 40 -41
9 -149 25 -238 36 -90 10 -207 22 -262 26 l-98 6 6 452 c3 248 9 501 12 563 5
93 9 113 22 116 10 3 67 5 127 6z m-221 -40 c5 1 5 -172 0 -406 -4 -225 -9
-472 -11 -549 l-4 -142 -156 6 c-91 3 -195 0 -252 -7 -53 -6 -120 -13 -149
-16 -29 -2 -56 -7 -61 -9 -4 -3 -49 -14 -100 -25 -51 -11 -150 -37 -220 -56
-69 -20 -134 -38 -143 -41 -15 -5 -16 -2 -2 34 9 21 38 64 65 96 28 33 49 68
49 81 0 12 6 28 14 34 8 6 20 26 27 44 7 18 29 57 50 87 20 30 52 80 71 110
20 30 64 89 99 132 35 42 83 100 106 130 24 29 91 100 151 158 59 58 128 119
152 137 25 18 69 55 98 83 30 27 61 50 69 50 9 0 25 8 36 17 10 10 38 25 60
34 23 9 46 17 51 18z"/>
</g>
<g>
<path d="M3058 8579 c-13 0 -30 -4 -38 -9 -8 -5 -40 -16 -70 -25 -30 -9 -67
-26 -82 -36 -15 -11 -46 -26 -69 -34 -23 -8 -56 -24 -73 -34 -17 -11 -76 -42
-131 -70 -55 -28 -107 -55 -115 -60 -8 -5 -37 -20 -65 -33 -27 -14 -72 -37
-100 -52 -27 -15 -61 -38 -75 -50 -14 -13 -36 -30 -49 -39 -14 -9 -78 -67
-143 -128 -65 -61 -160 -161 -211 -223 -51 -61 -108 -136 -128 -166 -20 -30
-52 -82 -72 -115 -19 -33 -49 -86 -66 -118 -17 -31 -31 -59 -31 -61 0 -2 11
-7 25 -10 14 -4 25 -14 25 -23 0 -9 -9 -37 -21 -62 -11 -25 -38 -83 -60 -128
-21 -44 -39 -84 -39 -87 0 -3 3 -6 8 -6 4 0 21 14 39 30 18 17 36 30 41 30 5
0 43 25 86 55 42 30 115 74 164 98 48 24 112 53 142 64 30 12 78 26 105 33 28
7 59 16 70 20 11 5 37 13 57 19 35 9 39 7 59 -20 11 -16 18 -33 14 -39 -3 -5
1 -23 10 -40 12 -22 22 -30 43 -30 15 0 50 13 77 28 33 18 49 34 49 45 -1 11
32 45 90 91 58 46 114 102 150 150 31 42 63 76 70 76 7 0 24 13 39 28 15 16
24 31 21 35 -3 3 11 37 31 74 21 37 46 80 57 95 10 14 18 33 18 41 0 8 7 20
16 28 9 7 31 43 50 80 18 37 38 70 44 74 6 3 8 10 6 14 -3 4 13 31 35 60 22
29 60 94 84 145 25 51 45 98 45 103 0 6 7 16 15 23 8 7 15 25 15 41 0 16 4 29
8 29 4 0 16 14 26 31 10 17 15 33 12 36 -3 3 -26 0 -51 -7 -37 -10 -51 -10
-73 0 -15 7 -35 16 -44 21 -10 5 -28 9 -40 8z m25 -40 c14 1 6 -22 -44 -116
-33 -65 -74 -143 -91 -173 -17 -30 -46 -82 -66 -115 -19 -33 -64 -104 -100
-158 -35 -54 -69 -100 -75 -102 -7 -3 -37 -14 -68 -25 -31 -11 -78 -35 -105
-52 -27 -17 -74 -48 -104 -68 -31 -21 -91 -55 -135 -78 -44 -22 -120 -52 -170
-66 -49 -15 -121 -36 -160 -47 -38 -11 -119 -46 -180 -76 -60 -30 -125 -67
-144 -81 -26 -20 -33 -22 -28 -9 4 10 29 55 55 100 27 45 69 109 93 143 24 34
64 88 88 120 25 32 92 106 150 163 58 58 148 140 199 182 67 55 140 102 255
163 89 48 234 122 322 166 88 43 189 90 225 104 36 13 73 25 83 25z"/>
</g>
<g>
<path d="M6157 8290 c-4 0 -10 -7 -13 -15 -3 -8 -3 -19 1 -25 3 -6 25 -20 48
-32 23 -11 87 -55 142 -97 55 -41 149 -120 209 -175 60 -55 136 -134 169 -176
33 -41 70 -91 83 -110 13 -19 48 -69 78 -111 29 -42 81 -120 113 -175 33 -54
76 -130 95 -169 20 -38 48 -101 64 -140 15 -38 47 -131 70 -205 23 -74 57
-183 77 -242 19 -60 31 -108 26 -108 -4 0 -71 32 -149 70 -78 39 -174 83 -213
99 -40 16 -135 50 -212 76 -77 26 -166 60 -197 75 -32 16 -77 42 -100 58 -24
16 -68 56 -99 89 -46 47 -74 93 -141 229 -46 93 -93 198 -105 234 -12 36 -27
97 -34 137 -10 59 -9 108 5 274 10 111 24 244 32 296 14 94 14 95 -9 113 -13
11 -26 15 -31 10 -5 -5 -18 -82 -28 -172 -14 -110 -20 -233 -21 -378 -1 -211
0 -217 31 -335 17 -66 45 -153 62 -193 16 -40 58 -130 92 -199 45 -89 82 -147
129 -203 45 -51 92 -92 142 -123 41 -26 79 -47 85 -47 5 0 33 -16 61 -35 33
-23 62 -35 85 -35 21 0 36 -6 40 -15 3 -8 14 -15 24 -15 10 0 22 -4 28 -10 5
-5 38 -17 74 -26 36 -9 117 -41 180 -71 63 -31 158 -77 209 -102 52 -25 97
-44 100 -41 4 3 5 8 4 11 -1 3 -3 30 -4 60 -1 30 -6 76 -11 102 -9 41 -7 50 7
61 16 12 11 31 -65 267 -46 140 -97 286 -112 324 -16 39 -36 86 -45 105 -9 19
-41 78 -71 130 -30 52 -89 145 -130 205 -40 61 -94 139 -118 175 -25 36 -77
100 -116 144 -39 43 -124 124 -189 180 -64 55 -139 117 -166 136 -26 19 -77
54 -113 77 -36 24 -69 43 -73 43z"/>
</g>
<g>
<path d="M4596 7430 c-14 0 -41 -14 -61 -31 -28 -25 -35 -38 -35 -68 0 -24 7
-44 19 -55 10 -9 34 -19 53 -23 24 -3 44 0 61 12 14 9 33 34 41 57 9 22 14 49
11 59 -4 11 -19 26 -35 34 -16 8 -40 15 -54 15z"/>
</g>
<g>
<path d="M5853 7400 c-6 0 -21 -8 -33 -18 -14 -11 -22 -29 -22 -47 0 -16 7
-34 18 -42 10 -7 21 -13 25 -13 3 0 18 9 33 21 14 11 26 31 26 43 0 13 -8 30
-18 39 -10 10 -23 17 -29 17z"/>
</g>
<g>
<path d="M4302 7371 c-24 5 -35 2 -50 -15 -10 -11 -16 -31 -14 -42 2 -12 12
-30 22 -39 15 -13 25 -15 47 -8 15 5 33 20 40 34 10 19 10 28 -1 44 -7 11 -27
22 -44 26z"/>
</g>
<g>
<path d="M2992 7319 c-9 0 -27 -4 -39 -9 -18 -8 -23 -17 -23 -49 0 -26 5 -41
16 -45 9 -3 28 -6 43 -6 15 0 32 5 39 12 7 7 12 24 12 39 0 15 -7 35 -16 43
-8 9 -23 16 -32 15z"/>
</g>
<g>
<path d="M1513 7289 c-5 0 -19 -9 -33 -19 -14 -11 -83 -62 -155 -114 -71 -52
-157 -114 -189 -138 -33 -24 -111 -87 -174 -140 -62 -54 -135 -126 -162 -160
-26 -35 -62 -90 -78 -123 -17 -33 -36 -83 -42 -110 -6 -28 -11 -96 -12 -152 0
-87 5 -120 32 -210 18 -60 45 -134 61 -165 16 -31 40 -69 54 -84 14 -15 25
-31 25 -36 0 -5 48 -59 108 -120 59 -61 116 -120 127 -131 11 -10 61 -49 111
-85 50 -37 110 -80 133 -97 23 -16 64 -47 91 -68 27 -21 51 -34 54 -29 2 4 -4
27 -15 51 -10 24 -19 63 -19 87 0 24 5 52 11 62 9 15 7 33 -9 83 -12 35 -33
110 -46 167 -14 57 -30 139 -35 183 -6 43 -13 143 -17 222 -4 82 -2 188 5 252
6 61 20 153 32 205 12 52 34 149 50 215 16 66 29 128 29 138 0 9 -7 17 -15 17
-8 0 -15 8 -15 18 0 10 7 45 15 77 9 33 32 91 50 129 19 38 35 70 35 72 0 2
-3 4 -7 3z m-106 -332 c2 -3 0 -14 -5 -24 -5 -10 -14 -40 -20 -68 -6 -27 -25
-111 -41 -185 -16 -74 -35 -180 -41 -235 -9 -67 -11 -158 -6 -285 3 -102 12
-223 20 -270 7 -47 28 -139 46 -205 17 -66 37 -126 43 -134 10 -12 9 -14 -4
-9 -10 4 -70 47 -135 96 -66 49 -151 118 -190 153 -39 36 -102 97 -138 136
-37 39 -80 87 -97 105 -16 18 -45 63 -64 100 -24 47 -35 80 -35 110 0 24 11
68 23 98 13 30 39 80 58 110 20 30 59 83 87 118 27 35 70 76 94 92 23 16 52
37 64 48 11 11 48 38 82 61 34 24 64 47 68 52 3 5 43 34 89 64 46 29 86 59 90
65 4 6 9 9 12 7z"/>
</g>
<g>
<path d="M4191 6775 c-5 3 -13 1 -16 -5 -4 -6 -8 -84 -11 -173 -2 -89 -8 -184
-14 -212 -6 -27 -14 -104 -20 -170 -5 -66 -16 -147 -24 -180 -9 -33 -20 -123
-26 -200 -6 -77 -17 -198 -24 -270 -11 -110 -11 -133 1 -152 10 -18 23 -23 56
-24 23 0 50 -2 60 -4 10 -2 32 1 48 7 16 5 29 11 29 13 0 2 -4 15 -10 29 -9
25 -13 26 -81 26 l-71 0 6 38 c3 20 12 116 21 212 8 96 17 207 20 245 3 39 14
106 24 150 10 44 19 112 20 150 1 39 6 99 11 135 5 36 10 136 10 222 0 86 -4
159 -9 163z"/>
</g>
<g>
<path d="M4742 6750 c-5 0 -12 -3 -15 -7 -4 -3 -7 -24 -7 -45 0 -22 7 -69 15
-106 8 -37 17 -85 19 -107 3 -22 11 -67 20 -100 8 -33 22 -87 30 -120 9 -33
25 -103 36 -155 11 -52 29 -126 41 -165 11 -38 35 -113 51 -165 17 -52 38
-123 48 -157 9 -34 15 -65 12 -68 -3 -3 -37 -5 -76 -5 -39 0 -82 -6 -96 -13
-14 -7 -26 -21 -28 -32 -1 -11 1 -26 6 -32 6 -10 32 -10 122 2 63 7 124 13
135 12 14 -1 21 5 23 21 2 12 -10 50 -26 85 -17 34 -51 127 -76 207 -25 80
-59 199 -75 265 -16 66 -45 188 -65 270 -20 83 -43 199 -51 258 -9 60 -20 119
-25 133 -5 13 -13 24 -18 24z"/>
</g>
<g>
<path d="M7459 6428 c-20 12 -39 19 -42 16 -3 -3 -4 -20 -1 -37 2 -18 6 -67
10 -110 l6 -77 111 -75 c62 -41 141 -97 177 -125 36 -28 86 -72 113 -98 26
-26 81 -90 121 -143 41 -52 81 -111 91 -130 9 -18 25 -43 35 -54 9 -11 40 -60
69 -108 28 -49 51 -93 51 -98 0 -5 4 -17 10 -27 5 -9 16 -38 25 -65 8 -26 24
-100 36 -165 17 -94 20 -142 16 -247 -3 -81 -13 -166 -26 -225 -12 -52 -35
-124 -52 -159 -16 -35 -46 -91 -66 -124 -20 -33 -58 -86 -84 -117 -38 -46 -64
-66 -125 -94 -42 -20 -104 -48 -138 -62 -33 -14 -81 -35 -105 -46 -24 -11 -71
-29 -105 -40 -33 -11 -108 -33 -166 -50 -87 -24 -130 -30 -255 -35 -99 -4
-226 0 -374 12 -123 9 -234 14 -247 11 -13 -4 -24 -3 -23 1 0 5 28 32 62 61
34 29 83 71 108 95 25 23 81 85 125 138 43 53 96 120 117 149 21 29 75 116
119 193 45 77 99 181 120 231 22 50 46 105 54 121 8 17 24 59 34 95 10 36 34
119 53 185 20 66 47 188 62 270 15 83 34 193 42 245 9 52 16 154 17 225 0 72
-3 156 -7 188 -7 48 -12 57 -29 57 -20 0 -20 -4 -13 -87 4 -49 7 -124 6 -168
0 -44 -6 -114 -11 -155 -6 -41 -18 -113 -26 -160 -8 -47 -19 -116 -24 -155 -6
-38 -24 -122 -40 -185 -16 -63 -41 -153 -55 -200 -15 -47 -38 -112 -52 -145
-14 -33 -43 -99 -65 -146 -21 -47 -69 -140 -106 -205 -37 -66 -94 -157 -128
-204 -33 -47 -83 -110 -110 -140 -27 -30 -85 -89 -129 -132 -44 -43 -106 -97
-138 -120 -50 -37 -55 -43 -37 -50 11 -4 20 -16 20 -27 0 -13 -24 -35 -72 -67
-40 -27 -89 -60 -108 -75 -19 -15 -46 -30 -59 -34 -21 -6 -22 -8 -7 -23 15
-15 18 -15 46 1 21 13 57 19 122 22 51 2 103 6 116 10 13 4 28 2 37 -5 9 -7
46 -11 102 -10 48 1 90 1 93 0 3 -1 61 -3 129 -6 68 -2 129 -8 135 -13 7 -6
48 -12 91 -14 45 -3 120 2 170 10 50 8 106 16 125 19 19 2 71 16 115 30 44 14
116 39 160 56 44 17 122 51 174 75 67 31 102 42 119 38 17 -4 36 2 63 21 22
15 39 33 39 40 0 7 6 17 14 21 8 4 16 14 18 22 2 8 17 27 34 43 18 15 40 45
49 66 10 20 29 60 42 87 14 28 34 77 45 110 11 33 26 103 34 155 8 52 17 181
20 285 4 120 3 233 -5 307 -6 64 -18 157 -26 205 -9 48 -27 126 -41 173 -14
46 -45 120 -67 164 -23 43 -48 91 -56 105 -8 14 -53 82 -100 151 -52 76 -122
162 -181 221 -52 52 -129 120 -170 151 -41 30 -102 73 -135 95 -33 21 -76 49
-96 61z"/>
</g>
<g>
<path d="M1496 5460 c-3 0 -6 -2 -6 -5 0 -2 7 -26 16 -52 8 -26 24 -65 34 -87
10 -21 16 -44 13 -52 -3 -8 -11 -14 -19 -14 -8 0 -14 -2 -14 -5 0 -3 9 -36 21
-73 12 -37 32 -96 46 -132 14 -36 47 -111 75 -167 27 -56 89 -162 138 -235 49
-73 128 -180 175 -238 48 -58 112 -131 143 -163 32 -33 84 -80 117 -105 33
-26 116 -94 185 -152 69 -58 147 -120 174 -138 26 -18 70 -44 97 -57 26 -14
55 -25 62 -25 8 0 20 7 27 15 7 8 28 15 48 15 l35 0 -6 103 c-3 56 -17 159
-31 228 -14 70 -37 163 -51 207 -14 45 -42 109 -61 144 -20 35 -47 79 -62 97
-14 19 -62 70 -107 112 -44 43 -109 101 -145 130 -36 28 -92 75 -125 104 -33
28 -91 74 -129 101 -37 27 -87 62 -110 78 -22 16 -88 61 -146 99 -58 39 -169
114 -247 169 -78 54 -144 98 -147 98z m203 -328 c75 -52 159 -109 187 -126 28
-17 99 -65 158 -106 59 -41 155 -115 214 -164 59 -49 130 -107 157 -130 28
-22 98 -89 157 -147 87 -86 113 -119 142 -180 19 -41 42 -101 50 -134 8 -33
17 -96 20 -140 3 -44 2 -110 -2 -147 l-7 -67 -72 34 c-39 19 -96 54 -126 78
-30 23 -108 87 -173 141 -66 55 -144 120 -174 145 -30 25 -80 73 -111 106 -31
33 -77 85 -101 115 -24 30 -80 105 -124 165 -44 61 -96 138 -117 172 -20 33
-57 101 -81 150 -24 48 -56 122 -71 163 -14 41 -35 96 -44 121 l-18 47 136
-96z"/>
</g>
<g>
<path d="M4647 4717 c-10 0 -22 -8 -27 -18 -5 -9 -20 -19 -34 -23 -13 -3 -27
-13 -30 -23 -4 -9 -2 -21 3 -26 5 -5 92 -11 193 -13 100 -2 228 1 283 6 55 6
183 12 285 15 l185 4 -3 28 c-2 15 -6 31 -10 35 -4 4 -41 8 -82 9 -41 1 -131
-1 -200 -5 -69 -4 -141 -9 -160 -11 -19 -2 -85 -4 -146 -5 -62 0 -139 6 -175
14 -35 8 -72 14 -82 13z"/>
</g>
<g>
<path d="M4250 4690 c-4 0 -9 -2 -11 -4 -2 -2 -44 -6 -94 -9 -49 -3 -122 -11
-161 -16 -39 -6 -125 -8 -190 -5 -65 3 -193 8 -284 13 -91 4 -168 6 -172 4 -5
-2 -8 -13 -8 -23 0 -10 6 -22 13 -27 6 -4 26 -8 42 -9 17 -1 138 -7 270 -14
180 -10 268 -10 350 -2 61 6 157 9 215 7 58 -2 115 0 128 6 15 5 22 16 20 26
-2 12 -17 20 -47 25 -25 4 -49 12 -55 18 -5 5 -13 10 -16 10z"/>
</g>
<g>
<path d="M6393 3949 c-10 -1 -46 -5 -81 -10 -34 -4 -96 -17 -138 -29 -42 -11
-111 -36 -152 -55 -41 -19 -111 -60 -156 -90 -44 -30 -106 -77 -136 -105 l-55
-51 75 6 c41 4 101 15 133 26 32 11 97 36 145 57 48 21 119 57 157 81 39 23
103 66 144 94 41 29 76 58 79 65 2 7 -4 11 -15 11z"/>
</g>
</g>
</svg>
