<?xml version="1.0" standalone="no"?>
<!DOCTYPE svg PUBLIC "-//W3C//DTD SVG 20010904//EN"
 "http://www.w3.org/TR/2001/REC-SVG-20010904/DTD/svg10.dtd">
<svg version="1.0" xmlns="http://www.w3.org/2000/svg"
 width="900.000000pt" height="1200.000000pt" viewBox="0 0 900.000000 1200.000000"
 preserveAspectRatio="xMidYMid meet">
<metadata>
Created by potrace 1.16, written by Peter Selinger 2001-2019
</metadata>
<g transform="translate(0.000000,1200.000000) scale(0.100000,-0.100000)"
fill="#000000" stroke="none">
<g>
<path d="M4424 11270 c-6 0 -14 -3 -17 -7 -4 -3 -7 -16 -7 -28 0 -18 10 -25
60 -38 33 -10 115 -22 182 -27 71 -6 126 -6 131 -1 5 5 7 19 5 32 -3 23 -8 24
-135 36 -72 6 -149 16 -170 22 -21 6 -43 11 -49 11z"/>
</g>
<g>
<path d="M3482 11190 c-5 0 -12 -3 -15 -7 -4 -3 -7 -14 -7 -23 0 -9 19 -30 43
-47 23 -16 85 -52 137 -79 52 -28 104 -55 115 -62 11 -6 92 -47 180 -90 88
-44 187 -94 220 -112 33 -18 81 -46 108 -62 26 -17 47 -34 47 -38 0 -4 -7 -10
-15 -14 -8 -3 -15 -17 -15 -31 0 -20 5 -25 24 -25 14 0 31 9 40 21 14 21 15
21 40 3 14 -11 25 -21 26 -24 0 -3 -35 -18 -78 -33 -42 -16 -116 -43 -164 -60
l-86 -31 -49 27 c-26 15 -80 43 -118 61 -39 18 -111 52 -160 75 -50 24 -99 47
-110 51 -11 5 -42 18 -69 29 -27 12 -53 21 -58 21 -6 0 -24 7 -41 15 -18 7
-86 35 -152 60 -66 26 -129 50 -140 55 -11 5 -56 25 -100 45 -44 20 -92 43
-107 51 -14 7 -36 14 -47 14 -12 0 -21 -6 -21 -15 0 -8 17 -25 38 -38 20 -13
62 -35 92 -49 30 -14 78 -35 105 -48 28 -12 91 -37 140 -56 50 -18 126 -46
170 -62 44 -17 132 -53 195 -80 63 -28 140 -62 170 -77 30 -15 83 -41 117 -57
35 -17 67 -36 73 -43 7 -8 -2 -17 -33 -32 -23 -12 -73 -36 -111 -54 -38 -17
-106 -54 -150 -82 -45 -27 -134 -92 -198 -144 -65 -52 -157 -136 -206 -187
-48 -51 -109 -123 -135 -160 -26 -37 -58 -89 -71 -114 -13 -26 -29 -71 -37
-99 -10 -44 -10 -64 0 -119 8 -37 24 -85 37 -108 13 -22 42 -60 66 -84 23 -24
78 -67 123 -95 44 -29 119 -72 168 -96 48 -24 90 -47 93 -52 3 -5 13 -9 22 -9
9 0 25 -7 36 -15 17 -13 14 -18 -48 -80 -36 -36 -91 -104 -122 -151 -31 -46
-66 -110 -79 -142 -12 -31 -26 -78 -29 -103 -4 -26 -3 -73 3 -106 5 -33 19
-82 32 -109 12 -27 38 -69 57 -94 20 -25 51 -62 71 -84 20 -21 60 -56 89 -77
28 -22 52 -44 52 -50 0 -5 -12 -14 -27 -19 -16 -6 -46 -20 -68 -32 -22 -12
-47 -25 -55 -29 -8 -5 -71 -35 -140 -68 -69 -33 -166 -84 -217 -113 -50 -29
-129 -79 -175 -110 -45 -31 -109 -83 -142 -115 -32 -32 -67 -76 -77 -98 -10
-22 -19 -58 -19 -81 0 -22 7 -64 16 -94 9 -29 27 -75 42 -101 14 -27 52 -81
85 -121 33 -40 81 -93 107 -118 26 -25 83 -77 127 -117 43 -39 97 -86 120
-105 22 -18 64 -51 93 -73 29 -22 69 -53 90 -70 21 -16 64 -48 95 -70 32 -22
63 -45 69 -51 6 -6 32 -24 56 -40 25 -16 54 -34 65 -41 11 -6 34 -19 50 -27
17 -9 43 -26 58 -39 l28 -22 -105 -98 c-58 -54 -140 -142 -184 -195 -43 -54
-92 -123 -109 -152 -17 -30 -41 -85 -53 -123 -18 -52 -22 -81 -18 -130 3 -35
13 -78 23 -97 9 -19 41 -58 70 -85 37 -36 90 -69 176 -112 68 -33 135 -63 149
-67 14 -4 34 -11 45 -16 11 -4 60 -23 108 -40 48 -18 84 -36 80 -40 -4 -4 -48
-22 -98 -40 -49 -18 -94 -36 -100 -40 -5 -4 -37 -15 -70 -25 -33 -10 -64 -22
-69 -27 -6 -4 -16 -8 -23 -8 -7 0 -88 -34 -179 -75 -91 -41 -195 -95 -232
-119 -37 -24 -92 -66 -123 -94 -36 -33 -69 -76 -93 -122 -28 -52 -39 -89 -45
-143 -6 -56 -4 -88 10 -145 10 -40 30 -92 44 -115 13 -24 45 -64 70 -90 25
-26 76 -68 115 -93 38 -24 100 -58 137 -75 37 -17 136 -57 218 -89 83 -31 204
-74 270 -95 66 -21 125 -41 130 -45 6 -3 28 -12 50 -18 22 -7 85 -23 140 -37
55 -15 117 -32 138 -39 l39 -13 -54 -23 c-29 -12 -118 -51 -198 -87 -80 -35
-239 -111 -355 -168 -115 -57 -246 -128 -289 -157 -59 -39 -85 -64 -103 -97
-13 -24 -23 -61 -23 -81 0 -27 10 -51 40 -91 22 -30 66 -76 99 -104 33 -27 60
-55 60 -62 1 -6 -17 -50 -40 -98 -22 -48 -39 -91 -37 -96 2 -5 12 -3 23 5 12
8 34 40 50 71 17 31 37 63 46 71 15 13 20 12 45 -8 16 -13 36 -27 45 -33 9 -5
58 -39 110 -75 52 -36 143 -93 203 -127 61 -35 113 -63 117 -63 4 0 10 -4 13
-9 4 -5 -58 -42 -136 -81 -79 -40 -148 -76 -154 -81 -6 -5 -39 -23 -75 -42
-35 -18 -111 -61 -169 -96 -58 -35 -120 -78 -137 -94 -18 -17 -33 -35 -33 -39
0 -5 -9 -21 -20 -36 -11 -15 -26 -49 -35 -77 -8 -27 -15 -85 -15 -127 0 -56 6
-95 24 -142 13 -36 42 -97 66 -136 24 -40 72 -97 113 -135 43 -40 74 -62 80
-56 6 6 -20 43 -67 97 -49 56 -91 116 -116 169 -33 67 -41 96 -46 161 -5 62
-2 92 13 139 11 33 31 79 46 102 14 23 41 52 59 66 18 13 49 33 68 43 19 10
42 24 50 30 8 6 42 26 75 44 33 18 89 48 125 68 36 19 119 63 185 97 66 34
134 67 150 72 27 9 41 5 125 -40 52 -27 102 -56 111 -63 8 -8 19 -14 22 -14 4
0 30 -14 59 -32 29 -18 86 -56 126 -85 40 -30 102 -82 139 -116 36 -34 84 -81
107 -105 22 -24 56 -67 76 -96 19 -28 40 -61 46 -72 7 -11 17 -46 24 -77 6
-32 8 -72 5 -90 -4 -17 -17 -52 -28 -77 -11 -25 -42 -72 -68 -105 -27 -33 -99
-107 -161 -165 -62 -58 -170 -163 -240 -234 -71 -71 -128 -135 -128 -143 0 -7
3 -13 8 -13 4 0 48 39 97 86 50 48 131 121 180 163 50 41 137 123 195 181 58
58 124 134 148 168 23 35 46 81 52 102 7 25 7 61 1 104 -5 36 -21 91 -35 121
-14 30 -45 81 -69 113 -25 32 -73 86 -108 122 -35 35 -93 88 -129 118 -36 30
-96 75 -135 100 -38 25 -86 55 -105 68 -19 12 -74 43 -122 69 -49 25 -88 50
-88 54 0 4 17 16 38 26 20 10 53 26 72 36 19 9 77 33 129 53 52 20 100 40 105
45 6 5 29 14 51 21 22 7 45 16 50 19 6 4 57 27 115 50 58 24 114 47 125 52 11
5 54 23 95 40 41 17 87 34 102 39 14 4 46 19 70 33 23 14 54 28 68 32 14 4 73
31 132 60 59 29 135 73 167 97 33 23 65 55 72 70 6 16 8 43 5 65 -6 30 -23 53
-76 104 -52 49 -97 80 -177 121 -60 30 -128 62 -153 72 -25 10 -72 29 -105 41
-32 12 -61 27 -62 32 -2 6 5 13 17 16 11 3 20 11 20 19 0 8 -6 23 -14 34 -12
15 -18 17 -33 8 -11 -7 -18 -23 -18 -43 0 -26 -3 -30 -20 -25 -11 4 -31 12
-45 19 l-25 13 40 23 c22 13 42 23 45 23 3 -1 21 9 40 21 20 13 63 37 95 54
33 18 85 45 115 62 30 17 62 37 71 45 8 8 19 14 23 14 4 0 36 19 69 42 34 23
80 58 102 77 22 19 55 54 75 77 19 24 44 55 55 71 11 15 28 51 39 78 13 36 19
82 21 165 2 90 8 128 26 175 18 49 22 81 23 175 0 83 -4 125 -15 150 -9 19
-27 62 -39 95 -13 33 -41 89 -63 125 -22 36 -67 99 -101 140 -33 41 -88 101
-121 133 -33 33 -96 92 -140 132 -44 40 -95 86 -114 102 l-33 29 95 47 c53 27
128 70 168 97 39 27 99 72 133 102 35 29 93 89 131 134 45 52 79 104 96 147
24 58 27 75 23 144 -3 43 -10 94 -16 113 -6 19 -20 53 -31 75 -11 22 -48 76
-82 120 -34 44 -89 105 -122 135 -33 30 -73 66 -89 80 -16 14 -59 51 -95 83
-36 31 -71 57 -77 57 -6 0 -15 6 -19 13 -4 7 -55 49 -113 93 -58 44 -122 91
-142 104 -21 14 -38 28 -38 31 0 3 19 19 43 36 23 17 83 71 133 120 75 74 99
104 134 176 37 74 44 98 48 165 2 43 -1 104 -8 136 -7 33 -32 98 -57 145 -25
47 -70 116 -100 153 -30 37 -87 98 -127 134 -39 37 -99 89 -133 116 -35 28
-63 54 -63 58 0 5 -43 40 -96 78 l-97 71 49 30 c27 16 80 49 117 73 38 23 96
67 129 97 32 30 81 86 107 125 26 39 64 105 85 146 21 43 45 117 57 174 19 87
20 108 10 170 -6 39 -14 87 -17 106 -4 19 -25 64 -47 100 -23 36 -70 103 -106
150 -36 47 -110 135 -165 195 -55 61 -110 122 -124 136 l-24 27 22 78 c18 63
21 93 16 148 -4 38 -15 89 -26 113 -10 24 -41 71 -67 106 -26 34 -54 69 -60
77 -7 8 -31 36 -54 62 l-41 47 29 7 c15 3 42 12 60 20 17 8 36 14 42 14 6 0
19 4 29 10 9 5 134 47 277 94 143 46 281 94 308 106 26 11 47 27 47 34 0 7 -3
15 -6 19 -4 3 -23 -1 -43 -9 -20 -9 -61 -25 -91 -35 -30 -11 -84 -29 -120 -40
-36 -12 -139 -45 -230 -74 -91 -29 -205 -68 -255 -86 l-90 -33 -65 52 c-36 28
-106 76 -156 105 -50 30 -190 104 -310 164 -121 60 -237 120 -259 133 -22 13
-60 34 -85 48 -25 13 -59 35 -77 48 -17 13 -36 24 -41 24z m974 -631 c6 0 42
-31 78 -70 37 -38 89 -105 116 -147 28 -42 50 -81 50 -86 0 -6 4 -39 9 -73 6
-38 6 -76 0 -96 -5 -18 -15 -42 -23 -52 -13 -19 -18 -16 -93 55 -43 41 -103
96 -133 121 -30 25 -84 68 -120 96 -36 28 -79 57 -95 66 l-30 16 27 1 c16 0
31 8 38 19 7 15 5 25 -10 43 -15 19 -22 21 -37 12 -11 -7 -18 -22 -17 -38 1
-14 -1 -26 -3 -26 -3 0 -18 8 -34 17 -16 10 -28 22 -26 28 2 5 12 11 23 13 10
2 39 11 64 22 25 11 63 27 85 36 22 10 58 23 80 29 22 7 45 13 51 14z m-381
-149 c11 0 44 -16 72 -35 29 -19 55 -35 58 -35 4 0 46 -30 94 -67 49 -38 112
-88 142 -113 30 -25 89 -80 132 -122 64 -64 76 -81 68 -95 -5 -10 -49 -73 -98
-139 -48 -67 -113 -153 -144 -190 -31 -38 -93 -103 -139 -144 -46 -41 -104
-90 -129 -108 -25 -18 -95 -66 -156 -107 -60 -41 -131 -90 -156 -108 -25 -17
-69 -52 -98 -76 l-53 -44 -125 63 c-69 35 -164 88 -212 118 -47 29 -98 68
-114 85 -15 18 -39 48 -52 67 -14 20 -30 62 -36 95 -6 32 -8 74 -4 94 4 20 18
62 31 93 13 32 44 89 69 127 25 39 50 73 56 76 5 4 27 29 49 56 21 27 93 96
160 153 66 57 155 128 198 157 42 29 142 86 222 126 80 40 154 73 165 73z
m629 -508 c5 -2 25 -23 45 -46 20 -22 52 -57 71 -77 19 -20 58 -62 85 -94 28
-31 54 -65 59 -74 5 -9 14 -21 20 -27 6 -7 18 -20 26 -30 8 -11 34 -48 56 -84
23 -36 51 -92 64 -125 18 -47 22 -80 22 -155 0 -70 -6 -114 -22 -165 -12 -38
-38 -99 -58 -135 -20 -36 -52 -90 -73 -120 -20 -30 -57 -73 -81 -96 -23 -22
-70 -59 -103 -81 -33 -22 -91 -59 -129 -82 -64 -39 -72 -41 -100 -30 -17 7
-42 23 -57 36 -14 12 -29 23 -35 23 -5 0 -20 9 -34 21 -14 11 -68 48 -120 83
-52 35 -140 90 -195 123 -55 33 -140 82 -190 108 -49 27 -101 56 -115 65 -14
10 -36 21 -50 25 -14 4 -32 14 -42 22 -15 13 -13 17 20 47 21 19 66 54 102 80
36 26 98 68 138 94 40 26 120 82 177 125 57 42 125 99 151 124 26 26 81 89
123 140 42 50 112 141 156 201 44 60 84 107 89 104z m-1017 -942 c8 0 37 -12
66 -27 28 -15 63 -34 77 -43 14 -9 68 -40 121 -68 53 -28 136 -76 185 -107 49
-31 105 -67 124 -80 19 -12 88 -57 152 -99 64 -42 121 -83 127 -90 9 -10 -31
-34 -182 -108 -105 -52 -219 -106 -252 -119 -33 -13 -80 -35 -105 -49 -25 -14
-74 -38 -110 -53 -36 -16 -91 -41 -122 -56 -45 -22 -61 -25 -76 -17 -10 6 -49
36 -87 66 -37 30 -90 87 -119 125 -29 39 -60 86 -69 107 -9 20 -19 63 -21 96
-3 33 1 81 8 108 7 27 27 78 43 114 16 36 37 71 46 79 9 7 17 18 17 23 0 5 23
37 52 71 28 34 65 77 82 95 17 17 36 32 43 32z m917 -570 c10 0 39 -15 63 -32
24 -18 75 -57 114 -87 38 -30 69 -58 69 -62 0 -5 6 -9 13 -9 7 0 71 -57 142
-128 72 -70 147 -153 168 -184 21 -32 51 -84 67 -115 15 -32 31 -74 34 -93 3
-19 8 -53 10 -76 2 -22 0 -64 -6 -93 -5 -28 -18 -72 -28 -97 -11 -24 -44 -75
-73 -112 -30 -37 -77 -87 -104 -112 -28 -25 -71 -61 -95 -81 l-44 -37 -84 65
c-47 36 -103 81 -126 102 -22 20 -76 65 -118 101 -43 35 -96 82 -119 103 -23
22 -91 78 -152 125 -60 48 -135 107 -166 132 -31 25 -105 80 -165 123 -60 43
-140 101 -178 128 l-70 48 40 17 c21 9 82 36 134 61 52 25 136 65 185 88 50
24 135 64 190 90 55 25 141 66 190 90 50 25 99 45 109 45z m-913 -421 c9 0 36
-14 60 -32 24 -19 82 -59 128 -90 46 -32 85 -57 88 -57 2 0 25 -17 51 -38 26
-21 126 -101 222 -177 96 -77 231 -189 300 -250 69 -60 143 -124 165 -140 22
-17 46 -36 54 -43 8 -8 38 -32 68 -54 29 -22 53 -44 53 -49 0 -4 -9 -13 -19
-19 -11 -5 -57 -38 -103 -73 -46 -35 -97 -72 -115 -82 -17 -11 -87 -59 -155
-107 -68 -48 -170 -120 -227 -160 -57 -40 -138 -100 -181 -133 -43 -33 -110
-86 -148 -118 l-70 -57 -78 52 c-44 29 -87 58 -96 63 -9 6 -40 27 -70 47 -29
20 -98 70 -153 112 -55 41 -113 85 -129 98 -16 13 -34 28 -40 33 -6 6 -40 34
-76 63 -36 30 -115 102 -176 162 -61 59 -133 139 -159 176 -27 38 -59 97 -72
132 -13 35 -23 86 -23 114 0 40 6 59 27 87 15 20 41 51 58 69 16 19 66 60 111
92 45 32 105 71 135 88 30 17 81 46 114 66 33 20 71 40 85 46 14 6 100 48 190
94 91 46 172 84 181 85z m1243 -970 c5 1 30 -15 57 -34 27 -19 94 -70 149
-112 54 -43 116 -91 137 -106 21 -16 70 -56 108 -90 39 -34 104 -96 146 -137
41 -41 92 -95 111 -120 20 -25 47 -67 61 -95 15 -27 31 -74 38 -103 6 -30 8
-74 4 -100 -4 -26 -20 -74 -35 -107 -17 -35 -61 -94 -105 -142 -41 -45 -103
-104 -138 -131 -34 -27 -96 -69 -137 -94 -41 -25 -100 -58 -130 -72 -30 -15
-63 -32 -72 -37 -10 -5 -22 -9 -27 -9 -5 0 -33 19 -63 43 -29 23 -60 47 -70
52 -9 6 -86 60 -172 120 -86 61 -181 124 -210 140 -30 17 -114 66 -187 109
-73 44 -151 89 -173 101 -23 11 -66 36 -96 55 -30 19 -67 42 -81 50 -14 8 -49
29 -77 45 -29 17 -52 33 -52 37 0 3 30 30 67 60 37 29 98 78 137 108 39 30
109 83 156 116 47 34 128 90 180 125 52 34 117 81 143 103 27 21 62 47 77 55
15 9 59 37 97 64 37 26 86 60 108 76 22 16 44 30 49 30z m-1058 -779 c5 0 45
-22 87 -50 42 -27 80 -50 83 -50 3 0 18 -8 32 -19 15 -10 47 -29 72 -43 25
-14 94 -54 153 -89 60 -35 123 -73 140 -83 18 -10 52 -30 77 -44 25 -14 71
-43 104 -66 32 -23 66 -45 75 -51 8 -5 45 -30 81 -55 36 -24 107 -75 158 -112
50 -38 92 -72 92 -76 0 -4 -21 -15 -48 -26 -26 -10 -60 -25 -77 -32 -16 -7
-66 -27 -110 -45 -44 -17 -109 -42 -145 -56 -36 -13 -90 -32 -120 -42 -30 -11
-140 -48 -243 -84 l-189 -66 -71 25 c-40 14 -101 37 -137 50 -36 14 -74 29
-85 34 -11 5 -54 23 -95 40 -41 17 -93 41 -116 53 -23 12 -59 34 -80 48 -22
15 -53 46 -69 69 -27 39 -30 51 -30 125 0 77 3 87 47 176 29 59 76 129 126
189 43 52 123 137 178 187 54 51 104 93 110 93z m1218 -790 c10 0 50 -28 90
-61 39 -34 115 -103 169 -153 54 -50 122 -120 150 -156 29 -36 67 -87 85 -115
18 -27 48 -79 66 -115 18 -36 42 -90 52 -120 13 -39 18 -83 18 -150 0 -67 -5
-106 -17 -134 l-17 -38 -37 55 c-21 31 -62 81 -91 111 -29 31 -79 73 -110 95
-31 21 -77 48 -101 61 -24 12 -101 43 -170 69 -69 26 -166 60 -216 75 -49 15
-142 44 -205 63 -63 19 -160 48 -215 65 -55 17 -143 45 -195 63 -52 19 -105
37 -117 40 -13 4 -23 10 -23 14 0 4 28 17 63 29 34 13 130 45 212 73 83 27
159 54 170 59 11 5 45 19 75 30 30 12 73 29 95 38 22 8 60 24 85 35 25 11 72
30 105 43 33 13 68 23 79 24z m-993 -361 c9 0 74 -19 145 -44 71 -25 174 -59
229 -75 55 -17 127 -38 160 -49 33 -10 114 -35 180 -55 66 -20 163 -50 215
-67 52 -17 104 -34 115 -39 11 -4 31 -12 45 -18 14 -6 50 -21 80 -34 30 -12
80 -37 111 -55 31 -17 80 -53 109 -79 28 -27 69 -71 90 -98 20 -28 44 -65 53
-83 10 -18 17 -40 17 -51 0 -10 -22 -43 -49 -73 -27 -30 -100 -94 -163 -141
-62 -47 -138 -99 -168 -116 -30 -16 -132 -68 -225 -115 -94 -47 -231 -112
-305 -145 -74 -33 -146 -63 -160 -67 -14 -4 -52 -21 -85 -37 -33 -17 -71 -30
-85 -30 -14 1 -50 8 -80 16 -30 8 -98 27 -150 41 -52 15 -117 33 -145 40 -27
7 -90 27 -140 45 -49 17 -151 53 -226 80 -74 27 -182 69 -240 95 -57 25 -134
64 -170 85 -37 22 -91 64 -121 93 -40 40 -60 71 -80 123 -15 38 -30 92 -34
119 -4 38 -1 65 15 110 12 33 38 84 59 114 20 30 66 79 102 108 36 30 97 71
135 92 39 20 89 45 112 54 23 9 64 26 90 38 26 12 71 31 98 44 28 12 68 28 90
34 22 7 49 17 60 22 11 5 65 25 119 44 55 20 104 39 110 43 6 4 25 12 41 18
17 7 37 12 46 13z m1577 -887 c2 -31 -4 -74 -13 -102 -9 -27 -33 -75 -54 -107
-21 -32 -69 -85 -108 -118 -39 -33 -86 -69 -104 -80 -19 -11 -45 -27 -59 -35
-14 -8 -49 -30 -78 -47 -29 -18 -55 -33 -59 -33 -3 0 -38 -19 -77 -41 -39 -23
-113 -64 -165 -90 -51 -27 -99 -49 -107 -49 -8 0 -49 9 -92 21 -42 12 -95 25
-117 31 -22 5 -48 14 -57 19 -10 5 -27 9 -37 9 -11 0 -23 4 -26 10 -3 5 7 15
22 21 15 7 42 17 58 24 17 7 41 17 55 23 14 5 54 23 90 40 36 16 86 39 112 51
26 12 50 21 53 21 3 0 60 27 127 60 66 33 127 65 134 71 8 6 14 8 14 5 0 -4
12 1 28 11 15 10 45 28 67 38 22 11 61 35 87 53 26 17 51 32 55 32 5 0 28 16
53 36 45 36 45 36 50 12 4 -14 14 -24 28 -26 13 -2 30 2 38 8 7 7 14 23 14 35
0 12 -7 28 -15 35 -13 11 -9 20 32 64 l48 51 3 -53z m-1261 -652 c13 0 72 -11
131 -25 59 -14 115 -30 124 -35 10 -6 28 -10 41 -10 13 0 32 -6 42 -14 17 -12
9 -18 -91 -68 -60 -30 -226 -114 -369 -188 -143 -73 -282 -144 -310 -159 -27
-14 -63 -35 -80 -45 -16 -11 -55 -35 -85 -54 -30 -19 -77 -50 -105 -69 -27
-18 -74 -56 -104 -83 l-54 -50 -36 27 c-20 15 -57 49 -84 76 -26 28 -50 61
-53 74 -4 13 -4 41 0 61 4 27 17 46 47 72 23 19 63 46 88 60 25 14 60 35 78
46 17 11 91 50 165 86 73 36 158 78 188 91 30 14 91 42 135 62 44 20 98 45
120 55 22 10 64 28 94 40 30 11 63 27 75 35 11 8 31 15 43 15z m431 -120 c15
0 50 -6 77 -14 28 -7 104 -34 170 -60 66 -26 147 -60 179 -76 32 -17 64 -30
71 -30 6 0 37 -18 69 -40 31 -22 60 -40 64 -40 4 -1 16 -8 27 -18 11 -9 33
-33 48 -53 15 -20 27 -41 27 -47 0 -6 -12 -25 -27 -42 -14 -18 -44 -43 -65
-56 -22 -14 -74 -43 -116 -64 -42 -22 -106 -53 -142 -70 -36 -17 -92 -41 -125
-52 -33 -11 -64 -24 -70 -28 -5 -5 -77 -35 -160 -69 -82 -33 -193 -79 -245
-101 -52 -23 -133 -57 -179 -76 -46 -19 -108 -46 -138 -59 -29 -14 -57 -25
-62 -25 -5 0 -14 -6 -20 -14 -6 -7 -27 -16 -47 -19 -29 -5 -50 1 -112 35 -43
22 -111 60 -152 85 -41 24 -97 60 -125 79 -27 19 -80 56 -117 82 -37 26 -67
52 -67 57 -1 6 3 15 7 20 4 6 28 27 54 48 25 20 50 37 55 37 5 0 19 10 30 23
11 12 59 47 107 77 48 30 127 76 174 102 48 26 191 99 317 163 127 63 237 119
245 125 8 5 59 30 113 56 54 26 100 51 103 56 3 4 17 8 32 8z"/>
<g>
<path d="M4449 10540 c-11 0 -22 -6 -25 -14 -3 -8 -1 -24 6 -35 6 -12 17 -21
24 -21 8 0 17 7 20 16 4 9 4 25 1 35 -4 11 -15 19 -26 19z"/>
</g>
<g>
<path d="M4432 10430 c-6 0 -13 -4 -16 -8 -3 -5 -3 -18 0 -29 3 -11 20 -26 37
-34 18 -8 31 -20 29 -28 -1 -7 0 -22 3 -32 4 -10 14 -19 24 -19 9 0 27 14 40
30 13 18 20 38 16 48 -3 9 -32 29 -64 45 -32 15 -63 27 -69 27z"/>
</g>
<g>
<path d="M4639 10275 c-8 6 -33 9 -55 7 -27 -2 -49 -11 -63 -26 -18 -19 -19
-25 -8 -40 10 -14 21 -17 44 -12 16 4 45 19 63 34 26 22 30 30 19 37z"/>
</g>
<g>
<path d="M4668 10168 c-9 2 -21 -6 -27 -17 -6 -11 -11 -26 -11 -35 0 -8 10
-18 21 -21 14 -5 25 -2 30 6 5 8 8 25 7 39 -2 14 -10 26 -20 28z"/>
</g>
<g>
<path d="M4063 10353 c-6 4 -25 -5 -43 -19 -25 -21 -30 -33 -28 -58 3 -27 8
-32 42 -41 34 -8 40 -7 57 14 11 13 19 33 19 45 0 12 -8 28 -18 37 -10 8 -23
18 -29 22z"/>
</g>
<g>
<path d="M4210 10157 c-8 1 -28 -4 -45 -10 -16 -7 -48 -22 -70 -33 -22 -12
-57 -27 -77 -33 -26 -9 -38 -18 -38 -32 0 -10 5 -40 11 -66 6 -27 15 -56 20
-65 5 -10 9 -25 9 -33 0 -9 7 -18 15 -21 8 -4 22 -1 30 6 8 7 15 22 15 34 0
12 -5 27 -10 32 -6 6 -12 30 -13 54 -2 42 -1 43 53 71 30 16 69 34 88 40 26 8
32 16 30 32 -2 12 -10 23 -18 24z"/>
</g>
<g>
<path d="M4260 10000 c-5 0 -17 -15 -27 -32 -10 -18 -33 -67 -50 -108 -17 -41
-45 -111 -63 -155 -18 -44 -35 -92 -37 -106 -3 -15 1 -30 10 -37 8 -7 22 -10
31 -6 9 3 19 18 22 33 3 14 19 63 34 107 16 45 41 110 55 145 14 35 33 78 42
96 14 26 15 34 4 47 -8 9 -17 16 -21 16z"/>
</g>
<g>
<path d="M4565 9988 c-11 1 -26 -3 -33 -10 -6 -6 -12 -22 -12 -35 0 -13 7 -26
16 -30 9 -3 24 -2 33 4 9 6 16 23 16 39 0 21 -5 30 -20 32z"/>
</g>
<g>
<path d="M3800 9914 c-58 2 -115 2 -128 -1 -19 -4 -23 -10 -20 -36 l3 -32 108
3 107 4 -2 -52 c-2 -36 2 -54 12 -61 8 -5 22 -8 30 -6 11 2 16 19 18 72 2 46
-2 76 -10 87 -10 14 -34 18 -118 22z"/>
</g>
<g>
<path d="M3665 9297 c-11 1 -30 -2 -42 -7 -12 -5 -27 -19 -33 -30 -7 -12 -9
-33 -6 -46 4 -14 15 -33 25 -43 12 -12 28 -17 44 -14 14 3 35 14 47 25 14 14
19 26 14 41 -3 12 -11 33 -18 47 -6 14 -20 26 -31 27z"/>
</g>
<g>
<path d="M4700 9800 c-15 0 -30 -3 -33 -7 -4 -3 -7 -21 -7 -39 0 -25 7 -38 26
-51 19 -12 30 -14 43 -6 9 5 18 20 19 33 2 13 -2 34 -9 46 -8 16 -21 24 -39
24z"/>
</g>
<g>
<path d="M4515 9410 c-7 0 -17 -5 -20 -10 -3 -6 -4 -19 0 -29 3 -11 38 -45 78
-77 40 -32 79 -64 87 -71 8 -8 37 -30 63 -50 37 -28 47 -42 43 -57 -3 -12 -11
-43 -17 -69 -11 -41 -10 -50 2 -58 8 -5 18 -8 22 -6 5 1 14 14 22 27 7 14 20
48 30 77 9 28 15 62 13 75 -2 15 -16 29 -43 42 -22 11 -59 34 -82 50 -23 17
-73 59 -113 94 -39 34 -77 62 -85 62z"/>
</g>
<g>
<path d="M4484 9220 c-8 0 -23 -19 -35 -42 -12 -24 -48 -76 -80 -117 -33 -40
-59 -77 -59 -81 0 -4 6 -13 14 -19 10 -9 23 -1 57 36 25 27 58 65 73 86 l29
38 23 -28 c12 -15 30 -36 38 -45 9 -10 25 -18 36 -18 15 0 20 7 20 28 0 15 -8
35 -18 43 -10 9 -34 39 -52 67 -18 29 -39 52 -46 52z"/>
</g>
<g>
<path d="M5009 9120 c-12 0 -27 -13 -37 -31 -9 -17 -36 -56 -59 -87 -24 -30
-45 -64 -49 -75 -4 -11 -1 -23 7 -28 8 -5 17 -9 21 -9 4 0 20 16 35 36 15 20
46 59 68 88 29 37 39 59 37 79 -2 19 -9 27 -23 27z"/>
</g>
<g>
<path d="M3880 9069 c-3 -1 -15 -4 -28 -6 -13 -3 -26 -11 -29 -19 -3 -8 -2
-25 1 -39 5 -18 15 -26 41 -31 22 -4 41 -2 50 6 8 7 15 23 15 36 0 12 -10 30
-22 38 -12 9 -25 15 -28 15z"/>
</g>
<g>
<path d="M4630 8700 c-9 0 -24 -8 -33 -18 -10 -10 -17 -30 -17 -44 0 -14 9
-33 21 -44 19 -17 23 -17 47 -3 17 9 28 25 30 43 2 16 -4 36 -14 47 -9 10 -25
19 -34 19z"/>
</g>
<g>
<path d="M3714 8878 c-16 2 -35 -3 -42 -10 -6 -6 -12 -19 -12 -28 0 -9 11 -22
24 -29 13 -7 31 -11 41 -9 10 1 23 11 29 21 8 12 8 22 0 35 -6 9 -24 18 -40
20z"/>
</g>
<g>
<path d="M3620 8757 c-8 2 -40 -14 -70 -35 -35 -23 -56 -45 -58 -59 -3 -18 1
-23 19 -23 12 0 30 7 40 16 10 9 33 23 51 32 24 13 33 24 33 42 0 14 -6 26
-15 27z"/>
</g>
<g>
<path d="M3907 8708 c-7 6 -32 4 -62 -3 -27 -7 -66 -19 -85 -25 -19 -7 -41
-14 -47 -16 -7 -2 -13 -14 -12 -26 0 -13 13 -45 28 -73 18 -32 36 -51 49 -53
14 -2 25 3 29 14 3 9 -2 32 -13 51 -18 35 -18 35 1 49 11 8 31 17 45 20 14 3
36 9 49 13 13 4 25 15 27 24 1 9 -3 20 -9 25z"/>
</g>
<g>
<path d="M3991 8590 c-9 -1 -40 -22 -68 -49 -33 -29 -53 -56 -53 -69 0 -16 6
-22 21 -22 11 0 36 12 54 26 l34 26 16 -37 c8 -21 15 -40 15 -43 0 -3 10 -21
23 -39 14 -21 30 -33 45 -33 12 0 22 2 22 4 0 2 -18 40 -41 85 -22 45 -43 97
-46 116 -4 24 -11 35 -22 35z"/>
</g>
<g>
<path d="M3594 8550 c-7 0 -15 -9 -19 -20 -3 -11 -3 -25 1 -31 4 -6 48 -31 99
-55 51 -24 101 -44 111 -44 11 0 24 4 31 8 7 4 10 17 7 29 -4 14 -17 24 -38
28 -17 4 -64 25 -105 46 -40 21 -79 39 -87 39z"/>
</g>
<g>
<path d="M4379 8510 c-10 0 -25 -13 -33 -28 -10 -19 -11 -33 -5 -45 6 -9 20
-17 32 -17 12 0 27 4 33 8 7 4 14 16 15 28 2 11 -2 28 -10 37 -7 10 -22 17
-32 17z"/>
</g>
<g>
<path d="M3710 8223 c-13 3 -24 -1 -30 -13 -6 -10 -10 -29 -10 -42 0 -13 4
-28 8 -34 4 -6 17 -16 28 -22 17 -9 25 -8 38 7 9 9 16 26 16 37 0 11 -7 29
-15 41 -8 11 -24 23 -35 26z"/>
</g>
<g>
<path d="M4614 8340 c-14 0 -29 -9 -38 -22 -8 -13 -17 -32 -20 -44 -4 -12 -1
-26 6 -32 7 -5 22 -11 33 -12 11 -1 26 -2 33 -1 7 0 17 12 22 26 6 16 5 35 -1
55 -8 22 -17 30 -35 30z"/>
</g>
<g>
<path d="M4388 8160 c-9 0 -20 -9 -23 -21 -5 -16 2 -31 31 -60 22 -22 64 -54
94 -71 30 -18 69 -40 85 -49 19 -11 29 -24 28 -35 -2 -11 -5 -35 -9 -55 -5
-29 -2 -38 11 -43 10 -3 23 -2 29 3 6 5 17 29 24 53 6 24 13 54 15 67 2 19 -7
29 -48 50 -27 15 -75 43 -105 62 -30 20 -69 50 -85 67 -16 18 -38 32 -47 32z"/>
</g>
<g>
<path d="M3954 8056 c-12 2 -28 -2 -36 -9 -9 -7 -19 -22 -23 -34 -4 -15 0 -28
14 -42 12 -12 30 -21 41 -21 12 0 25 10 32 25 8 17 8 35 2 52 -5 15 -18 27
-30 29z"/>
</g>
<g>
<path d="M4964 7867 c-7 2 -43 -19 -80 -48 -38 -28 -93 -75 -121 -103 -34 -32
-53 -59 -53 -73 0 -16 6 -23 19 -23 10 0 29 11 42 24 13 13 65 58 114 101 57
50 90 86 90 99 0 10 -5 21 -11 23z"/>
</g>
<g>
<path d="M5145 7840 c-8 0 -17 -11 -21 -24 -3 -14 -1 -64 5 -113 6 -48 10
-110 9 -138 0 -27 2 -60 6 -72 4 -13 13 -23 20 -23 8 0 19 6 25 14 8 9 10 34
7 68 -3 29 -8 67 -10 83 -3 17 -6 62 -7 100 -1 39 -5 78 -11 88 -5 9 -15 17
-23 17z"/>
</g>
<g>
<path d="M5032 7739 c-9 -1 -49 -33 -87 -73 -39 -39 -86 -80 -105 -91 -21 -13
-35 -28 -35 -40 0 -13 8 -21 23 -23 12 -2 36 7 53 20 17 13 53 43 80 67 l49
44 0 -27 c0 -15 5 -36 10 -47 6 -10 17 -19 25 -19 8 0 19 10 26 21 8 15 8 33
0 63 -5 22 -13 56 -16 74 -5 21 -12 32 -23 31z"/>
</g>
<g>
<path d="M4918 7270 c-18 0 -31 -7 -39 -21 -8 -15 -8 -28 -1 -44 6 -14 23 -26
41 -30 17 -3 35 -4 41 0 5 3 10 21 10 39 0 17 -5 37 -12 44 -7 7 -24 12 -40
12z"/>
</g>
<g>
<path d="M3685 7880 c-18 0 -36 -3 -38 -7 -3 -5 -8 -22 -11 -39 -5 -20 -2 -34
6 -41 7 -6 23 -13 36 -16 16 -4 30 1 43 14 10 10 19 26 19 35 0 8 -5 24 -10
35 -7 13 -21 19 -45 19z"/>
</g>
<g>
<path d="M3441 7769 c-9 -1 -38 -15 -66 -33 -27 -17 -75 -50 -105 -74 -30 -23
-76 -57 -102 -74 -35 -22 -48 -37 -48 -54 0 -18 6 -24 21 -24 11 0 30 5 42 11
12 7 24 15 27 18 3 3 25 22 50 42 25 19 66 49 91 67 25 17 58 34 72 37 14 4
30 12 36 18 5 7 7 24 4 40 -3 17 -11 27 -22 26z"/>
</g>
<g>
<path d="M3972 7470 c-9 0 -34 -9 -55 -20 -21 -11 -70 -31 -110 -45 -39 -14
-88 -30 -107 -37 -19 -7 -41 -17 -47 -21 -7 -5 -13 -16 -13 -25 0 -9 22 -60
48 -112 27 -52 56 -96 64 -98 10 -2 17 7 21 28 5 23 -1 42 -23 80 -17 28 -30
59 -30 69 0 15 23 28 98 56 53 21 114 46 135 57 28 14 37 25 37 43 0 17 -6 25
-18 25z"/>
</g>
<g>
<path d="M3346 7341 c-6 4 -17 4 -23 2 -7 -3 -13 -14 -13 -26 0 -12 15 -39 33
-61 18 -21 112 -120 210 -219 97 -99 177 -183 177 -188 0 -4 10 -15 22 -23 12
-8 25 -13 30 -10 5 3 13 17 18 29 8 22 -6 39 -143 177 -84 84 -186 189 -226
233 -41 44 -79 83 -85 86z"/>
</g>
<g>
<path d="M4002 7310 c-10 0 -25 -13 -35 -29 -9 -16 -17 -36 -17 -44 0 -8 -10
-29 -23 -48 -16 -23 -21 -42 -17 -59 4 -15 13 -25 24 -25 11 0 22 7 26 15 5 8
16 35 26 59 l18 43 27 -56 c15 -31 38 -69 51 -83 13 -15 49 -53 80 -85 33 -34
65 -58 77 -58 14 0 21 6 21 19 0 10 -29 47 -65 82 -36 35 -82 93 -103 129 -20
36 -37 71 -38 78 -2 7 -10 24 -18 38 -9 13 -24 24 -34 24z"/>
</g>
<g>
<path d="M4664 7090 c-15 0 -26 -10 -34 -30 -7 -16 -10 -36 -7 -45 4 -8 18
-17 33 -21 15 -4 34 -2 43 3 9 6 17 22 19 37 2 18 -3 33 -15 42 -10 7 -28 14
-39 14z"/>
</g>
<g>
<path d="M3846 6520 c-9 0 -25 -9 -36 -20 -11 -11 -20 -31 -20 -45 0 -18 7
-28 26 -35 14 -6 31 -10 39 -10 7 0 21 7 29 16 9 8 16 28 16 44 0 19 -7 33
-19 40 -11 5 -27 10 -35 10z"/>
</g>
<g>
<path d="M4929 6945 c-24 1 -33 -5 -40 -23 -5 -13 -9 -32 -9 -42 0 -10 6 -22
13 -27 6 -4 21 -9 31 -10 10 -2 27 4 38 13 10 10 18 27 18 38 0 12 -5 28 -10
36 -5 8 -23 15 -41 15z"/>
</g>
<g>
<path d="M4692 6660 c-9 0 -12 -10 -10 -27 3 -25 12 -30 113 -63 61 -20 125
-42 143 -50 33 -12 34 -13 28 -68 -3 -30 -1 -63 5 -73 5 -11 16 -19 23 -19 7
0 20 8 28 18 9 10 14 33 12 56 -1 21 -5 57 -8 81 l-7 43 -157 51 c-86 28 -163
51 -170 51z"/>
</g>
<g>
<path d="M5191 6650 c-5 0 -13 -5 -16 -10 -3 -6 -4 -18 -1 -28 3 -9 53 -53
111 -97 58 -44 138 -110 178 -147 40 -37 80 -68 90 -68 12 0 17 8 17 29 0 20
-8 34 -27 46 -16 10 -39 29 -53 43 -14 13 -84 71 -157 128 -72 57 -136 104
-142 104z"/>
</g>
<g>
<path d="M5206 6459 c-6 0 -33 -18 -61 -40 -27 -21 -68 -51 -90 -65 -22 -15
-58 -43 -80 -64 -22 -20 -60 -50 -85 -67 -25 -17 -69 -45 -97 -63 -44 -27 -51
-35 -43 -50 5 -10 15 -20 22 -22 7 -3 46 15 87 39 41 24 115 78 165 121 50 42
105 85 123 95 17 9 34 17 37 17 3 0 6 -15 6 -34 0 -18 7 -39 15 -46 8 -7 15
-16 15 -20 0 -4 -38 -37 -85 -74 -47 -38 -85 -75 -85 -84 0 -9 7 -26 15 -36
15 -19 17 -18 72 35 31 29 80 77 108 104 29 28 73 69 99 92 30 27 46 48 44 60
-2 10 -12 19 -22 21 -12 3 -36 -13 -66 -43 l-47 -47 -7 49 c-4 26 -12 65 -18
86 -6 20 -16 37 -22 36z"/>
</g>
<g>
<path d="M4153 6340 c-12 0 -31 -12 -42 -26 -12 -15 -21 -34 -21 -43 0 -9 4
-21 8 -27 4 -6 22 -15 40 -19 21 -4 38 -2 47 5 8 7 17 28 21 47 5 27 2 37 -12
48 -11 8 -29 15 -41 15z"/>
</g>
<g>
<path d="M5151 5740 c-9 0 -31 -9 -48 -20 -20 -12 -33 -28 -33 -40 0 -11 8
-29 17 -40 10 -11 32 -23 50 -26 22 -4 41 -1 58 10 16 10 25 26 25 42 0 14
-11 35 -26 49 -15 14 -34 25 -43 25z"/>
</g>
<g>
<path d="M3900 6090 c-20 0 -40 -3 -43 -7 -4 -3 -7 -25 -7 -47 0 -23 4 -46 8
-52 4 -6 19 -14 35 -18 15 -3 36 -2 46 3 10 6 24 24 31 41 12 28 11 33 -10 55
-17 18 -34 25 -60 25z"/>
</g>
<g>
<path d="M3788 5880 c-7 0 -36 -16 -63 -35 -28 -20 -52 -40 -53 -46 -2 -5 -24
-18 -49 -30 -35 -16 -44 -24 -41 -42 2 -15 11 -23 28 -25 18 -2 41 10 77 40
28 24 68 57 89 74 27 21 36 35 31 47 -3 9 -12 17 -19 17z"/>
</g>
<g>
<path d="M4201 5839 c-15 0 -37 -5 -51 -11 -14 -6 -40 -17 -57 -24 -18 -8 -48
-20 -65 -28 -18 -8 -56 -22 -85 -31 -28 -9 -54 -23 -57 -30 -3 -9 22 -38 62
-74 39 -36 76 -61 90 -61 18 0 22 6 22 28 0 23 -8 33 -41 51 -22 13 -39 27
-37 33 2 5 52 30 111 54 59 24 119 44 132 44 14 0 25 6 25 13 0 7 -5 18 -12
25 -7 7 -23 12 -37 11z"/>
</g>
<g>
<path d="M4314 5690 c-6 0 -22 -12 -36 -27 -13 -16 -32 -44 -41 -64 -9 -19
-13 -45 -10 -58 4 -15 12 -21 26 -19 11 2 24 10 28 18 5 8 14 29 20 45 10 29
11 29 25 10 8 -11 24 -32 37 -48 12 -15 39 -41 60 -58 35 -29 40 -30 55 -16
14 15 9 22 -51 87 -37 39 -67 76 -67 84 0 7 -8 20 -18 29 -10 10 -23 17 -28
17z"/>
</g>
<g>
<path d="M3730 5630 c-4 0 -13 -6 -19 -14 -10 -12 -8 -19 7 -34 11 -11 46 -32
78 -47 33 -15 90 -42 128 -60 39 -19 74 -32 78 -29 4 3 8 16 8 28 0 19 -11 29
-52 49 -29 14 -63 28 -76 32 -13 4 -50 22 -83 41 -34 19 -64 34 -69 34z"/>
</g>
<g>
<path d="M4783 5579 c-4 0 -15 -3 -23 -6 -8 -3 -21 -12 -27 -21 -7 -9 -13 -26
-13 -39 0 -13 9 -32 20 -43 11 -11 30 -20 43 -20 13 0 33 10 45 23 12 13 22
32 22 43 0 11 -13 30 -30 42 -16 12 -33 22 -37 21z"/>
</g>
<g>
<path d="M4106 5319 c-12 -1 -29 -3 -38 -6 -12 -3 -18 -14 -18 -31 0 -15 4
-33 9 -40 4 -8 23 -14 41 -15 27 -2 37 3 49 25 14 24 14 28 -3 47 -11 12 -29
20 -40 20z"/>
</g>
<g>
<path d="M5055 5360 c-12 0 -29 -8 -38 -18 -10 -10 -17 -33 -17 -50 0 -22 7
-35 23 -44 12 -7 31 -11 42 -9 11 2 23 8 27 15 4 6 8 27 8 47 0 19 -5 40 -12
47 -7 7 -22 12 -33 12z"/>
</g>
<g>
<path d="M4876 5210 c-8 0 -18 -5 -21 -11 -4 -5 -4 -21 -1 -33 5 -19 15 -25
53 -30 27 -4 80 -17 118 -29 39 -12 72 -23 75 -25 2 -1 3 -23 2 -46 -1 -38 2
-45 21 -50 12 -3 26 -1 31 4 5 5 12 36 14 69 4 59 4 59 -29 74 -19 9 -74 25
-124 37 -49 11 -98 25 -107 30 -10 6 -24 10 -32 10z"/>
</g>
<g>
<path d="M4490 5169 c-3 0 -15 -4 -27 -9 -12 -5 -25 -21 -29 -36 -4 -15 -2
-34 3 -43 6 -9 23 -16 39 -16 20 0 32 7 41 24 10 21 9 30 -5 53 -9 15 -19 28
-22 27z"/>
</g>
<g>
<path d="M5357 5060 c-7 0 -43 -25 -80 -56 -37 -30 -67 -61 -67 -67 0 -7 4
-18 9 -25 4 -8 17 -12 27 -10 11 1 45 31 78 65 38 40 56 68 53 78 -4 8 -12 15
-20 15z"/>
</g>
<g>
<path d="M5463 4980 c-36 0 -45 -4 -52 -22 -5 -13 -7 -26 -4 -30 2 -5 16 -8
30 -8 22 0 24 -3 18 -27 -3 -16 -13 -42 -22 -60 -8 -18 -12 -37 -8 -42 3 -6
17 -11 30 -11 16 0 26 8 33 28 6 15 19 52 30 82 19 50 19 57 5 73 -11 11 -31
17 -60 17z"/>
</g>
<g>
<path d="M5625 4690 c-7 0 -24 -9 -39 -21 -14 -11 -26 -27 -26 -35 0 -8 15
-28 32 -45 18 -16 41 -29 50 -29 11 0 23 11 29 26 5 15 7 36 3 48 -3 11 -13
29 -22 39 -8 9 -21 17 -27 17z"/>
</g>
<g>
<path d="M4105 5000 c-12 0 -31 -10 -43 -23 -12 -13 -22 -30 -22 -39 0 -8 8
-22 18 -31 10 -10 26 -17 36 -17 9 0 26 4 36 10 10 5 21 21 24 36 5 18 2 32
-10 45 -9 11 -27 19 -39 19z"/>
</g>
<g>
<path d="M4372 4901 c-4 4 -14 4 -22 2 -8 -3 -29 -19 -46 -37 -16 -17 -51 -50
-77 -74 -26 -24 -75 -66 -109 -93 -35 -28 -80 -59 -100 -70 -20 -10 -39 -22
-42 -27 -3 -5 -2 -18 1 -30 3 -13 13 -22 25 -22 10 0 31 8 46 17 15 9 65 49
112 87 46 39 107 93 135 119 27 27 61 53 74 58 19 8 22 14 16 37 -3 15 -9 30
-13 33z"/>
</g>
<g>
<path d="M4510 4700 c-12 0 -28 -13 -40 -32 -11 -18 -39 -71 -61 -118 -23 -47
-58 -106 -77 -132 -20 -27 -43 -48 -52 -48 -8 0 -26 9 -40 20 -14 11 -35 20
-47 20 -19 0 -23 -5 -23 -30 0 -26 7 -33 49 -55 27 -13 52 -29 56 -35 3 -5 15
-10 25 -10 11 0 28 16 41 38 12 20 30 46 40 57 9 11 47 78 83 149 36 72 66
140 66 153 0 16 -6 23 -20 23z"/>
</g>
<g>
<path d="M4580 4516 c-14 17 -32 29 -40 27 -8 -3 -34 -28 -58 -56 -33 -40 -42
-59 -40 -82 2 -21 9 -31 23 -33 15 -2 30 10 53 43 l32 45 108 -110 c72 -73
116 -110 130 -110 15 0 22 6 22 19 0 11 -10 28 -23 38 -13 10 -59 56 -103 103
-43 47 -90 99 -104 116z"/>
</g>
<g>
<path d="M3686 4450 c-8 0 -18 -4 -21 -10 -3 -5 -2 -18 4 -27 5 -10 26 -33 46
-51 20 -17 75 -58 122 -90 46 -31 108 -70 136 -86 29 -16 66 -39 84 -52 17
-13 40 -24 51 -24 14 0 21 8 24 30 4 26 0 32 -36 52 -23 12 -63 33 -91 46 -27
14 -79 46 -114 71 -35 25 -92 67 -127 94 -35 26 -70 47 -78 47z"/>
</g>
<g>
<path d="M5501 4400 c-3 0 -17 -6 -30 -13 -13 -6 -29 -20 -35 -29 -8 -13 -6
-22 8 -37 13 -14 31 -21 58 -21 34 0 38 3 38 25 0 14 -7 37 -16 50 -9 14 -19
25 -23 25z"/>
</g>
<g>
<path d="M4386 3830 c-7 0 -22 -10 -34 -23 -13 -13 -22 -36 -22 -53 0 -19 9
-39 23 -52 13 -12 28 -22 33 -22 6 0 20 10 32 23 12 13 22 35 22 49 0 14 -9
37 -21 52 -11 14 -26 26 -33 26z"/>
</g>
<g>
<path d="M5430 3970 c-4 0 -12 -6 -18 -13 -7 -8 -7 -17 1 -28 7 -9 22 -21 35
-28 12 -6 27 -9 32 -6 6 3 10 12 10 20 0 7 -12 23 -26 34 -15 12 -30 21 -34
21z"/>
</g>
<g>
<path d="M5293 3908 c-12 6 -30 3 -54 -9 -19 -10 -41 -24 -48 -33 -8 -9 -19
-16 -25 -16 -6 -1 -45 -32 -86 -70 -63 -58 -73 -71 -64 -86 6 -10 15 -19 21
-21 7 -3 47 26 90 64 43 37 94 76 115 85 34 16 37 16 54 -3 9 -10 25 -19 36
-19 11 0 18 7 18 18 0 11 -9 27 -20 37 -11 10 -20 24 -20 31 0 7 -8 17 -17 22z"/>
</g>
<g>
<path d="M4737 3660 c-2 0 -11 -8 -20 -18 -10 -10 -17 -28 -17 -40 0 -15 8
-24 24 -28 14 -3 30 -3 35 1 6 3 11 17 11 31 0 14 -6 32 -14 40 -8 8 -16 14
-19 14z"/>
</g>
<g>
<path d="M4884 3587 c-7 2 -21 -8 -33 -23 -12 -15 -20 -32 -18 -38 2 -6 18
-12 36 -14 32 -3 32 -3 29 34 -2 21 -8 39 -14 41z"/>
</g>
<g>
<path d="M4422 3498 c-15 2 -25 -4 -33 -22 -6 -13 -9 -32 -5 -41 4 -11 15 -15
32 -13 15 2 32 11 38 21 8 12 8 22 0 35 -6 9 -21 18 -32 20z"/>
</g>
<g>
<path d="M4594 3450 c-14 0 -27 -6 -30 -14 -3 -8 -4 -23 -2 -33 2 -10 10 -19
18 -21 9 -1 24 4 34 11 13 10 16 20 12 35 -5 15 -15 22 -32 22z"/>
</g>
<g>
<path d="M4318 3379 c-18 0 -46 -5 -63 -10 -16 -6 -52 -17 -80 -25 -27 -8 -77
-22 -110 -30 -33 -9 -66 -22 -73 -29 -11 -10 -11 -22 2 -70 8 -32 20 -62 27
-66 7 -4 18 -5 26 -2 8 3 13 21 13 48 0 24 6 47 13 52 6 4 35 16 62 26 28 10
74 25 104 33 30 8 66 20 80 27 14 7 27 20 29 30 3 13 -3 17 -30 16z"/>
</g>
<g>
<path d="M3647 3094 c-20 5 -29 2 -33 -9 -4 -8 -4 -21 -1 -29 3 -8 25 -17 48
-21 23 -4 60 -16 83 -26 23 -10 49 -19 59 -19 10 0 17 7 17 19 0 10 -6 23 -12
29 -7 6 -40 19 -73 30 -33 11 -72 22 -88 26z"/>
</g>
<g>
<path d="M3563 2900 c-7 0 -17 -9 -23 -19 -5 -11 -10 -28 -10 -39 0 -12 9 -22
22 -25 12 -4 28 -1 35 5 7 6 13 20 13 32 0 12 -5 27 -12 34 -7 7 -18 12 -25
12z"/>
</g>
<g>
<path d="M4859 3400 c-3 0 -13 -8 -22 -18 -10 -10 -17 -22 -17 -26 0 -4 7 -14
16 -23 12 -13 20 -13 40 -4 20 9 24 16 18 34 -4 12 -12 25 -18 29 -6 4 -14 8
-17 8z"/>
</g>
<g>
<path d="M4830 3180 c-5 0 -11 -4 -14 -9 -4 -5 -3 -16 0 -25 3 -8 14 -18 25
-21 10 -4 19 -10 19 -14 0 -5 19 -14 43 -20 24 -6 56 -20 70 -31 15 -12 35
-20 45 -18 14 3 9 11 -22 41 -22 20 -43 37 -48 37 -4 0 -30 14 -58 30 -28 17
-55 30 -60 30z"/>
</g>
<g>
<path d="M4506 3120 c-9 0 -16 -8 -16 -18 0 -11 8 -25 18 -33 9 -8 43 -23 75
-34 31 -10 57 -22 57 -26 0 -4 -4 -19 -9 -32 -7 -18 -6 -30 4 -43 11 -15 18
-17 32 -8 11 7 19 26 21 49 2 21 -2 51 -9 66 -7 19 -21 31 -38 35 -14 3 -47
14 -73 25 -26 10 -54 19 -62 19z"/>
</g>
<g>
<path d="M4420 3010 c-10 0 -27 -15 -38 -34 -11 -18 -44 -50 -73 -69 -30 -20
-73 -52 -96 -72 -29 -24 -43 -45 -43 -61 0 -15 6 -24 16 -24 9 0 43 21 76 48
32 26 79 64 103 85 l44 39 24 -28 c14 -16 29 -24 35 -20 7 4 12 14 12 22 0 9
-10 38 -21 65 -14 32 -27 49 -39 49z"/>
</g>
<g>
<path d="M4841 3010 c-10 0 -41 -16 -67 -35 -27 -19 -65 -44 -84 -55 -19 -11
-56 -33 -81 -48 -25 -15 -60 -39 -78 -54 -17 -15 -31 -36 -31 -47 0 -12 3 -21
6 -21 4 0 21 12 38 28 17 15 69 47 115 71 47 24 111 64 143 88 32 24 58 51 58
59 0 8 -9 14 -19 14z"/>
</g>
<g>
<path d="M3761 2740 c-9 0 -22 -4 -29 -9 -8 -4 -12 -19 -10 -32 2 -16 11 -25
25 -27 14 -2 26 4 32 17 6 11 8 27 5 35 -3 9 -14 16 -23 16z"/>
</g>
<g>
<path d="M4200 2510 c-9 0 -20 -3 -23 -7 -4 -3 -7 -17 -7 -29 0 -13 5 -26 10
-29 6 -3 19 -4 29 0 11 3 22 13 25 22 4 8 1 22 -5 29 -6 8 -19 14 -29 14z"/>
</g>
</g>
<g>
<path d="M4500 11130 c-4 0 -11 -5 -18 -12 -7 -7 -12 -20 -12 -30 0 -10 -10
-58 -22 -108 -17 -73 -19 -92 -8 -105 7 -8 16 -15 20 -15 5 0 13 15 18 33 5
17 15 58 22 89 6 32 16 60 21 63 5 3 25 -1 44 -11 19 -9 41 -14 49 -11 7 3 15
21 18 41 2 19 1 33 -3 30 -4 -2 -33 5 -65 16 -33 11 -61 20 -64 20z"/>
</g>
<g>
<path d="M3638 10960 c-7 -1 -26 -12 -43 -25 -16 -13 -42 -27 -57 -30 -14 -4
-32 -13 -38 -20 -6 -8 -10 -22 -8 -32 2 -10 10 -19 18 -20 8 -2 43 15 78 37
49 31 62 45 62 65 0 14 -6 25 -12 25z"/>
</g>
<g>
<path d="M3796 10860 c-10 0 -23 -14 -31 -32 -7 -18 -14 -40 -15 -48 -1 -8 -2
-23 -1 -32 1 -11 9 -18 20 -18 11 0 27 10 35 21 l15 22 63 -31 c35 -16 76 -35
91 -41 15 -6 48 -11 72 -11 24 0 46 4 49 9 4 5 3 16 0 25 -3 9 -25 18 -52 22
-26 4 -72 18 -102 32 -30 13 -71 38 -91 53 -20 16 -44 29 -53 29z"/>
</g>
<g>
<path d="M4479 10740 c-11 0 -21 -6 -23 -12 -2 -7 -6 -20 -9 -30 -3 -9 2 -23
12 -32 10 -9 25 -14 34 -11 8 4 17 17 19 30 3 13 1 30 -4 39 -5 9 -18 16 -29
16z"/>
</g>
<g>
<path d="M2960 10664 c-9 9 -20 12 -28 7 -9 -6 -11 -34 -7 -117 3 -60 10 -138
16 -174 5 -36 14 -87 20 -113 5 -27 9 -68 9 -92 0 -24 4 -46 9 -49 5 -4 16 -3
25 0 8 3 18 15 22 26 3 11 -1 39 -9 61 -8 23 -18 78 -22 122 -4 44 -10 133
-14 197 -4 84 -10 122 -21 132z"/>
</g>
<g>
<path d="M4112 10600 c-4 0 -16 -6 -26 -13 -11 -8 -17 -23 -14 -38 2 -18 10
-25 31 -27 18 -2 29 2 33 13 4 9 2 27 -4 41 -7 13 -15 24 -20 24z"/>
</g>
<g>
<path d="M4690 10600 c-10 0 -23 -7 -28 -16 -5 -9 -7 -25 -5 -35 4 -13 14 -19
33 -19 16 0 30 7 34 16 3 8 1 24 -4 35 -6 10 -19 19 -30 19z"/>
</g>
<g>
<path d="M3208 10580 c-9 0 -20 -5 -23 -10 -4 -6 -2 -32 4 -58 6 -26 13 -73
16 -104 4 -32 13 -62 21 -69 12 -10 18 -9 30 3 12 12 13 23 5 59 -6 24 -11 59
-11 77 0 17 4 32 10 32 5 0 33 -9 62 -20 29 -12 94 -32 143 -45 50 -13 100
-27 113 -31 19 -6 22 -3 22 23 0 28 -3 31 -57 42 -32 7 -116 33 -188 57 -71
24 -137 44 -147 44z"/>
</g>
<g>
<path d="M5343 10529 c-16 -1 -55 -8 -88 -16 -33 -7 -116 -30 -185 -49 -69
-19 -152 -43 -185 -52 -50 -15 -61 -21 -63 -42 -2 -14 3 -29 12 -36 13 -9 28
-7 69 6 28 10 68 25 88 34 20 8 78 25 130 36 52 12 107 26 123 31 16 5 45 9
64 9 l35 0 -6 -57 c-3 -32 -3 -76 0 -100 3 -25 12 -44 22 -48 9 -4 21 1 29 12
11 14 12 41 7 122 -4 57 -11 114 -16 127 -6 18 -16 24 -36 23z"/>
</g>
<g>
<path d="M3846 10490 c-7 0 -19 -7 -26 -14 -6 -8 -10 -25 -8 -38 2 -14 11 -24
24 -26 11 -2 27 4 34 13 10 12 10 21 2 40 -7 14 -18 25 -26 25z"/>
</g>
<g>
<path d="M5548 10428 c-9 2 -19 -1 -22 -6 -3 -6 -10 -43 -16 -83 -5 -41 -14
-108 -20 -149 -6 -41 -10 -106 -10 -145 1 -38 6 -74 11 -80 6 -6 16 -6 27 1
13 9 17 27 18 85 1 41 8 119 15 174 7 55 13 122 14 150 0 38 -4 50 -17 53z"/>
</g>
<g>
<path d="M4864 10057 c-6 2 -19 -6 -29 -17 -15 -16 -17 -25 -8 -38 5 -9 18
-17 28 -17 10 0 23 8 29 18 8 12 8 22 0 34 -6 9 -15 18 -20 20z"/>
</g>
<g>
<path d="M3435 9030 c-15 0 -31 -10 -41 -25 -12 -18 -14 -31 -7 -52 7 -21 17
-29 41 -31 25 -3 33 2 45 25 13 24 13 31 1 55 -10 19 -22 28 -39 28z"/>
</g>
<g>
<path d="M2384 8990 c-8 0 -16 -6 -18 -12 -3 -7 -7 -100 -10 -207 -4 -107 -11
-228 -17 -270 -7 -45 -9 -171 -6 -311 2 -129 8 -243 12 -252 4 -10 15 -18 24
-18 9 0 22 13 28 30 9 23 8 44 -3 90 -10 44 -13 113 -11 253 2 106 11 296 21
424 13 172 14 237 6 252 -6 12 -17 21 -26 21z"/>
</g>
<g>
<path d="M2710 8665 c-18 4 -29 2 -32 -7 -3 -7 0 -38 6 -68 6 -30 14 -59 17
-65 4 -5 10 -34 14 -63 5 -36 13 -55 26 -63 13 -7 25 -6 39 1 11 6 20 14 20
18 0 4 -9 24 -20 45 -11 21 -23 58 -27 82 -5 42 -4 45 18 45 13 1 65 0 114 0
50 -1 120 -4 158 -7 l67 -5 0 26 c0 20 -7 29 -27 37 -16 6 -99 12 -187 14 -87
2 -171 7 -186 10z"/>
</g>
<g>
<path d="M4829 8490 c-3 0 -13 -8 -22 -18 -10 -10 -17 -28 -17 -40 0 -11 7
-27 15 -36 9 -8 23 -12 33 -9 9 3 23 10 30 16 6 5 12 20 12 33 0 12 -10 30
-22 38 -12 9 -25 16 -29 16z"/>
</g>
<g>
<path d="M6044 8464 c-8 3 -17 -1 -20 -9 -4 -8 -4 -30 -1 -48 3 -17 15 -66 27
-107 12 -41 30 -97 39 -125 10 -27 24 -72 30 -100 7 -27 37 -151 67 -275 30
-124 67 -268 83 -320 16 -52 32 -107 35 -122 4 -19 13 -28 26 -28 12 0 24 10
30 24 7 18 2 41 -17 93 -14 37 -29 77 -33 88 -4 11 -13 34 -19 50 -5 17 -23
82 -40 145 -16 63 -39 157 -51 208 -12 52 -38 149 -57 215 -19 67 -39 142 -45
167 -5 25 -13 52 -17 60 -5 9 -12 30 -15 47 -4 17 -14 34 -22 37z"/>
</g>
<g>
<path d="M3455 8100 c-1 0 -14 -12 -29 -26 -14 -15 -26 -32 -26 -39 0 -7 11
-20 25 -29 13 -9 30 -16 38 -16 7 0 23 9 35 20 12 12 22 31 22 44 0 18 -8 27
-31 35 -18 6 -33 11 -34 11z"/>
</g>
<g>
<path d="M5960 8040 c-9 0 -19 -2 -22 -5 -3 -3 -14 -8 -24 -10 -11 -3 -77 -19
-149 -36 -71 -17 -143 -31 -158 -30 -15 1 -36 -3 -47 -9 -12 -6 -20 -21 -20
-36 0 -13 7 -27 16 -31 8 -3 32 -1 52 5 20 6 103 24 183 41 80 17 148 31 152
31 3 0 8 -30 12 -67 3 -38 11 -105 16 -150 10 -77 13 -83 34 -83 14 0 26 7 29
18 2 9 3 26 2 37 -1 11 -5 27 -8 35 -3 8 -11 66 -17 128 -7 62 -17 124 -23
137 -6 14 -19 25 -28 25z"/>
</g>
<g>
<path d="M5125 7110 c-12 0 -26 -5 -33 -12 -7 -7 -12 -24 -12 -38 0 -15 8 -34
18 -43 10 -10 25 -17 33 -17 8 0 20 5 27 12 7 7 12 26 12 43 0 17 -5 36 -12
43 -7 7 -21 12 -33 12z"/>
</g>
<g>
<path d="M3549 6290 c-11 0 -31 -11 -44 -25 -17 -16 -25 -35 -25 -60 0 -29 5
-37 27 -46 15 -5 37 -8 48 -5 12 3 27 17 33 31 7 14 12 37 12 50 0 13 -7 31
-16 39 -8 9 -24 16 -35 16z"/>
</g>
<g>
<path d="M2501 6210 c-11 0 -22 -4 -25 -8 -3 -5 -8 -33 -11 -63 -4 -30 -11
-67 -15 -84 -5 -16 -12 -66 -15 -110 -4 -44 -11 -116 -16 -160 -6 -44 -14
-109 -20 -145 -5 -36 -14 -110 -19 -165 -6 -55 -13 -113 -15 -130 -3 -16 -8
-55 -11 -86 -4 -35 -2 -64 5 -77 6 -12 20 -22 30 -22 10 0 23 6 29 13 7 8 8
26 2 51 -5 25 -2 95 10 207 11 94 24 205 29 247 5 42 13 111 16 153 4 41 8 86
10 100 2 13 8 49 14 79 6 30 16 80 22 111 7 31 9 64 6 73 -4 9 -15 16 -26 16z"/>
</g>
<g>
<path d="M6570 6080 c-10 0 -20 -7 -24 -15 -3 -8 -2 -23 2 -34 4 -10 52 -71
106 -135 55 -64 107 -129 116 -144 10 -15 28 -38 41 -52 14 -14 50 -59 80
-100 31 -41 77 -108 103 -147 25 -40 49 -80 52 -88 4 -8 17 -15 30 -15 16 0
28 8 33 23 7 18 1 30 -38 72 -26 28 -62 73 -81 100 -19 28 -66 93 -106 145
-40 52 -102 131 -139 175 -36 44 -86 110 -112 148 -27 39 -53 67 -63 67z"/>
</g>
<g>
<path d="M2768 5933 c-70 2 -132 1 -137 -3 -8 -4 -8 -22 -2 -56 6 -27 17 -71
25 -99 9 -27 16 -60 16 -72 0 -12 11 -34 23 -49 15 -17 30 -25 39 -21 9 3 18
17 22 32 5 18 1 34 -13 53 -11 15 -24 52 -29 82 -6 30 -8 59 -5 64 4 5 67 6
148 3 79 -4 147 -7 151 -8 5 -1 35 -1 67 0 54 1 57 2 57 26 0 21 -5 25 -32 27
-18 0 -44 0 -58 -1 -13 -1 -52 2 -85 8 -33 6 -117 12 -187 14z"/>
</g>
<g>
<path d="M6450 5810 c-8 0 -33 -21 -56 -48 -22 -26 -56 -69 -76 -97 -19 -27
-46 -70 -59 -95 -13 -25 -49 -82 -80 -127 -30 -45 -77 -107 -104 -138 -27 -31
-51 -57 -53 -59 -2 -3 1 -14 8 -25 6 -12 19 -21 30 -21 12 0 35 21 59 53 22
28 58 75 79 104 22 28 46 62 53 75 7 12 38 64 70 113 32 50 73 107 90 128 18
20 35 37 39 37 4 0 33 -43 65 -96 46 -77 61 -95 78 -92 14 2 22 12 24 29 2 17
-5 37 -20 55 -12 16 -34 47 -48 69 -13 22 -33 58 -44 80 -11 22 -24 43 -30 47
-5 4 -17 8 -25 8z"/>
</g>
<g>
<path d="M5441 5509 c-9 -1 -26 -4 -38 -6 -13 -2 -31 -16 -42 -29 -14 -18 -18
-32 -12 -47 4 -12 19 -28 32 -34 13 -7 36 -13 51 -13 18 0 33 8 43 24 11 16
14 33 9 52 -4 16 -11 35 -17 42 -5 6 -17 11 -26 11z"/>
</g>
<g>
<path d="M3685 5150 c-24 0 -38 -6 -45 -19 -5 -11 -10 -30 -10 -43 0 -13 5
-29 12 -36 7 -7 19 -12 28 -12 8 0 25 8 38 18 13 10 25 27 26 37 2 11 -1 28
-6 38 -6 11 -20 17 -43 17z"/>
</g>
<g>
<path d="M5841 4380 c-15 0 -36 -9 -46 -20 -18 -19 -18 -22 -2 -56 9 -19 24
-37 33 -41 8 -3 26 -1 40 5 18 9 24 19 24 42 0 17 -5 40 -10 51 -7 12 -21 19
-39 19z"/>
</g>
<g>
<path d="M5699 3810 c-14 0 -19 -7 -19 -27 0 -16 15 -54 33 -86 18 -31 52 -89
76 -127 29 -46 50 -70 62 -70 11 0 27 8 37 18 11 9 28 24 38 32 10 8 31 23 47
33 15 9 27 23 27 30 0 8 -10 23 -23 35 -13 12 -28 22 -34 22 -7 0 -22 -13 -35
-29 -13 -16 -32 -33 -44 -39 -18 -10 -25 -4 -61 51 -22 34 -46 78 -53 97 -7
19 -18 41 -23 48 -5 6 -18 12 -28 12z"/>
</g>
<g>
<path d="M6449 3770 c-2 0 -35 -28 -74 -61 -38 -34 -115 -102 -170 -152 -55
-50 -137 -129 -182 -176 -51 -52 -83 -93 -83 -106 0 -12 5 -26 12 -33 7 -7 20
-12 29 -12 9 0 36 26 59 58 24 31 64 74 89 96 25 21 90 80 145 130 54 50 127
113 162 139 35 27 64 54 64 61 0 7 -10 22 -23 34 -13 12 -25 22 -28 22z"/>
</g>
<g>
<path d="M2449 3680 c-11 0 -22 -6 -24 -12 -2 -7 -9 -33 -14 -57 -5 -25 -8
-48 -6 -51 2 -4 -3 -47 -11 -96 -10 -58 -16 -177 -18 -340 -2 -194 0 -255 10
-269 7 -10 20 -15 28 -12 8 3 19 29 25 57 6 28 11 66 11 85 0 18 -6 35 -12 38
-10 3 -13 39 -12 138 0 74 6 186 14 249 7 63 18 144 25 180 7 36 10 70 8 77
-3 7 -14 13 -24 13z"/>
</g>
<g>
<path d="M4043 3610 c-8 0 -25 -11 -38 -24 -21 -21 -23 -28 -14 -54 6 -17 19
-38 29 -47 17 -16 21 -16 53 0 19 9 43 25 52 35 11 12 14 26 10 39 -3 12 -22
28 -42 36 -19 8 -42 15 -50 15z"/>
</g>
<g>
<path d="M3685 3578 c-11 1 -36 -9 -55 -23 -20 -14 -67 -37 -105 -51 -39 -14
-86 -30 -105 -36 -19 -6 -39 -13 -45 -17 -5 -4 -39 -18 -75 -31 -36 -13 -69
-26 -75 -30 -5 -3 -29 -12 -53 -20 -23 -7 -47 -19 -53 -27 -6 -7 -16 -13 -22
-13 -5 0 -34 -12 -64 -26 -30 -14 -91 -41 -136 -61 -45 -19 -108 -46 -140 -59
-32 -14 -62 -22 -67 -19 -6 4 -10 21 -10 39 0 19 -3 47 -6 63 -3 16 -15 35
-26 42 -16 10 -23 10 -35 0 -11 -10 -13 -24 -8 -56 3 -24 8 -65 11 -91 2 -26
7 -54 9 -63 3 -10 12 -20 19 -22 8 -3 52 10 98 30 45 19 115 50 153 68 39 18
90 42 115 53 25 11 83 36 130 57 47 20 103 45 125 55 22 10 69 29 105 43 36
14 85 32 110 40 25 9 64 23 87 31 23 9 65 30 93 47 39 24 50 36 48 53 -2 12
-11 22 -23 24z"/>
</g>
<g>
<path d="M3420 2730 c-11 0 -22 -6 -24 -12 -2 -7 -6 -20 -9 -29 -3 -9 0 -22 6
-28 6 -6 19 -11 28 -11 9 0 22 7 29 15 10 12 10 21 2 40 -7 15 -20 25 -32 25z"/>
</g>
<g>
<path d="M3571 2580 c-12 0 -21 -9 -25 -26 -4 -15 -6 -28 -4 -29 2 -2 11 -5
22 -7 10 -1 23 4 29 13 5 9 7 24 4 33 -4 9 -15 16 -26 16z"/>
</g>
<g>
<path d="M5009 2408 c-2 -1 -22 -3 -44 -5 -22 -2 -94 -15 -160 -29 -66 -15
-123 -29 -126 -33 -4 -3 -3 -17 2 -30 8 -21 13 -23 47 -16 20 4 57 11 82 16
25 5 74 13 110 18 36 5 66 9 67 7 1 -1 7 -35 14 -76 6 -41 16 -81 21 -87 6 -7
18 -13 28 -13 11 0 20 10 23 30 4 16 0 48 -8 71 -8 23 -15 58 -15 79 0 23 -7
43 -18 53 -10 10 -20 16 -23 15z"/>
</g>
<g>
<path d="M3636 2400 c-1 0 -16 -10 -32 -22 -17 -13 -51 -42 -76 -66 -25 -24
-61 -54 -79 -68 -18 -13 -37 -31 -42 -40 -7 -12 0 -24 25 -48 18 -18 41 -44
50 -57 13 -20 20 -22 35 -13 10 6 19 21 21 33 3 16 -3 24 -17 28 -11 3 -23 13
-26 23 -4 12 17 41 74 99 43 44 84 81 90 81 6 0 11 9 11 19 0 10 -7 22 -16 25
-9 3 -17 6 -18 6z"/>
</g>
<g>
<path d="M3945 2370 c-6 0 -19 -8 -28 -18 -10 -10 -17 -24 -17 -30 0 -6 7 -15
16 -20 9 -5 25 -7 35 -5 11 3 19 13 19 23 0 10 -3 25 -6 34 -3 9 -12 16 -19
16z"/>
</g>
<g>
<path d="M4433 2369 c-10 0 -24 -3 -30 -6 -7 -2 -13 -18 -13 -34 0 -24 4 -29
24 -29 13 0 27 7 30 16 3 9 6 24 6 35 0 12 -7 19 -17 18z"/>
</g>
<g>
<path d="M5431 2370 c-3 0 -12 -4 -20 -9 -8 -5 -20 -26 -29 -47 -8 -22 -33
-93 -56 -160 -22 -67 -47 -128 -55 -137 -8 -10 -11 -27 -7 -42 4 -14 14 -29
23 -32 11 -4 24 3 40 23 12 16 23 37 23 47 0 10 7 42 16 70 9 29 33 99 55 156
29 78 36 108 27 118 -6 7 -13 13 -17 13z"/>
</g>
<g>
<path d="M4175 2223 c-7 3 -19 0 -25 -8 -6 -8 -10 -24 -8 -36 2 -12 8 -24 13
-26 6 -2 19 3 29 10 13 9 16 20 12 34 -4 12 -13 24 -21 26z"/>
</g>
<g>
<path d="M3246 2133 c-8 3 -20 -1 -27 -9 -10 -12 1 -28 58 -92 39 -42 80 -78
92 -80 11 -2 21 1 21 7 0 5 -23 33 -50 61 -28 29 -57 64 -65 80 -8 15 -21 30
-29 33z"/>
</g>
<g>
<path d="M4186 1988 c-9 2 -19 -3 -22 -12 -3 -8 4 -45 16 -81 12 -37 20 -67
19 -69 -2 -1 -18 -8 -36 -15 -17 -7 -34 -20 -38 -29 -3 -8 -2 -19 3 -24 4 -4
19 -8 32 -9 14 -1 42 6 63 15 21 9 40 23 44 31 3 8 -5 36 -17 63 -13 26 -28
65 -35 87 -7 22 -19 41 -29 43z"/>
</g>
<g>
<path d="M4215 1631 c-33 3 -101 2 -151 -1 -49 -4 -96 -10 -102 -14 -7 -4 -12
-18 -12 -31 0 -14 7 -25 18 -27 9 -3 34 2 56 9 24 8 83 13 156 12 65 -1 123 2
129 6 6 3 11 11 11 16 0 5 -10 13 -22 18 -13 4 -50 10 -83 12z"/>
</g>
</g>
</svg>
