<?xml version="1.0" standalone="no"?>
<!DOCTYPE svg PUBLIC "-//W3C//DTD SVG 20010904//EN"
 "http://www.w3.org/TR/2001/REC-SVG-20010904/DTD/svg10.dtd">
<svg version="1.0" xmlns="http://www.w3.org/2000/svg"
 width="1200.000000pt" height="900.000000pt" viewBox="0 0 1200.000000 900.000000"
 preserveAspectRatio="xMidYMid meet">
<metadata>
Created by potrace 1.16, written by Peter Selinger 2001-2019
</metadata>
<g transform="translate(0.000000,900.000000) scale(0.100000,-0.100000)"
fill="#000000" stroke="none">
<g>
<path d="M8495 8013 c-22 1 -110 -1 -195 -4 -85 -3 -191 -11 -235 -17 -44 -7
-132 -19 -195 -28 -63 -8 -146 -21 -185 -29 -38 -7 -108 -21 -155 -30 -47 -10
-114 -23 -150 -30 -36 -7 -103 -25 -150 -40 -47 -15 -94 -31 -105 -36 -11 -4
-53 -18 -94 -30 -41 -12 -86 -28 -100 -35 -14 -8 -34 -14 -43 -14 -9 0 -20 -4
-23 -10 -3 -5 -27 -16 -53 -24 -26 -9 -69 -23 -97 -33 -27 -10 -61 -26 -75
-36 -13 -9 -30 -17 -36 -17 -7 0 -25 -11 -41 -23 -15 -13 -54 -36 -86 -52 -31
-15 -85 -52 -120 -82 -34 -31 -108 -101 -165 -157 -56 -55 -145 -150 -196
-211 -51 -60 -111 -135 -133 -165 -22 -30 -65 -93 -96 -139 -32 -46 -57 -87
-57 -91 0 -4 -10 -20 -22 -36 -13 -16 -36 -51 -51 -79 -15 -27 -48 -93 -73
-145 -25 -52 -52 -109 -60 -127 -8 -17 -14 -34 -14 -38 0 -3 -13 -34 -29 -68
-16 -34 -32 -76 -36 -94 -3 -18 -15 -49 -25 -70 -10 -21 -28 -74 -40 -118 -12
-44 -28 -109 -35 -145 -8 -36 -20 -94 -28 -130 -9 -36 -22 -110 -31 -165 -9
-55 -22 -163 -30 -240 -8 -77 -14 -149 -15 -160 0 -11 -2 -83 -4 -160 -2 -77
0 -187 4 -245 5 -58 15 -177 23 -265 10 -102 27 -203 47 -280 17 -66 36 -147
43 -180 7 -33 18 -70 24 -81 6 -12 9 -23 7 -26 -3 -3 4 -32 15 -65 11 -33 25
-85 31 -114 6 -30 20 -81 32 -114 12 -33 27 -71 34 -85 7 -14 13 -32 13 -40 0
-9 4 -20 8 -25 5 -6 16 -31 26 -57 9 -25 24 -52 32 -58 7 -7 14 -20 14 -29 0
-10 11 -32 25 -51 14 -19 25 -41 25 -50 0 -10 9 -27 20 -40 11 -13 20 -28 20
-34 0 -5 18 -36 40 -67 22 -32 40 -64 40 -73 0 -9 9 -21 20 -28 11 -7 20 -17
20 -22 0 -5 16 -33 37 -63 20 -29 39 -53 43 -53 4 0 11 -10 17 -22 6 -13 36
-54 68 -93 32 -38 85 -101 119 -138 33 -38 75 -83 91 -100 17 -18 59 -57 94
-87 35 -30 73 -62 85 -70 12 -8 35 -27 51 -43 17 -15 87 -66 157 -112 70 -47
129 -85 132 -85 3 0 48 -20 99 -45 52 -25 99 -45 105 -45 6 0 31 -9 54 -19 24
-11 64 -25 90 -32 26 -6 45 -15 43 -19 -3 -5 -3 -15 1 -23 3 -8 26 -23 52 -32
26 -10 52 -22 59 -27 6 -5 115 -8 250 -7 131 1 256 2 278 2 22 0 79 -4 126 -8
64 -6 111 -4 180 8 52 9 135 19 184 22 50 3 135 8 190 11 55 2 114 9 130 14
17 4 59 14 95 20 36 7 159 43 275 81 115 38 218 74 228 79 9 6 50 21 90 34 39
13 99 37 132 54 33 17 102 44 154 61 51 17 98 31 104 31 6 0 29 9 51 19 23 11
61 29 86 40 25 12 52 25 60 30 8 5 35 18 60 30 25 12 54 27 65 34 11 7 69 46
130 86 60 41 139 94 175 117 36 24 92 61 125 84 33 22 87 58 120 80 33 22 76
52 96 68 20 15 49 39 65 52 16 14 44 43 63 65 18 22 77 85 130 140 54 55 113
125 132 155 19 30 40 66 47 80 7 14 31 54 53 90 22 36 56 98 76 139 19 41 62
140 94 220 33 80 73 184 89 231 16 47 37 123 48 170 11 47 27 144 36 215 8 72
18 164 21 206 4 42 8 163 10 270 1 107 -4 270 -11 363 -8 92 -16 178 -19 190
-2 11 -7 48 -10 81 -3 33 -12 78 -20 100 -8 22 -14 48 -15 57 0 10 -8 44 -18
75 -11 32 -27 85 -37 118 -11 33 -25 69 -32 80 -7 11 -13 26 -13 34 0 8 -29
73 -65 145 -37 72 -84 160 -107 196 -22 36 -44 74 -49 85 -5 11 -29 54 -54 95
-24 41 -49 86 -56 100 -6 14 -14 32 -18 40 -5 8 -20 38 -36 65 -15 28 -33 59
-39 70 -6 11 -32 52 -58 91 -27 40 -48 74 -48 78 0 3 -33 52 -74 108 -41 57
-96 129 -123 160 -26 32 -77 94 -113 138 -36 45 -85 98 -110 118 -25 20 -74
64 -110 98 -36 35 -85 79 -110 98 -25 20 -51 36 -57 36 -7 0 -13 5 -13 10 0 6
-6 10 -14 10 -7 0 -19 6 -25 13 -6 8 -43 30 -83 49 -40 20 -107 52 -148 71
-41 20 -96 45 -121 55 -26 11 -87 34 -135 50 -49 16 -107 34 -129 40 -22 6
-65 15 -95 21 -30 6 -111 18 -180 26 -69 7 -145 18 -170 23 -25 5 -119 15
-210 21 -91 7 -183 13 -205 14z m-70 -116 c110 0 250 -4 310 -9 61 -4 157 -14
215 -22 58 -8 132 -18 165 -21 33 -3 74 -10 90 -15 17 -5 48 -12 70 -15 22 -3
74 -15 115 -26 41 -11 118 -38 170 -59 52 -21 128 -55 167 -74 40 -20 75 -36
77 -36 3 0 45 -23 93 -52 48 -28 113 -70 143 -93 30 -24 93 -78 140 -121 47
-43 104 -98 127 -122 24 -25 80 -92 125 -150 46 -58 93 -116 106 -129 12 -13
22 -26 22 -29 0 -3 22 -38 48 -77 27 -40 63 -96 80 -125 18 -29 32 -57 32 -62
0 -5 11 -21 24 -37 13 -15 39 -57 58 -93 20 -36 59 -110 88 -165 29 -55 66
-116 81 -136 16 -20 29 -41 29 -47 0 -5 18 -40 40 -77 23 -36 45 -78 51 -93 5
-15 22 -52 38 -82 15 -30 34 -71 41 -90 7 -19 24 -58 36 -87 13 -29 28 -83 35
-120 6 -37 17 -81 24 -98 8 -16 18 -55 24 -85 5 -30 15 -100 21 -155 5 -55 13
-143 18 -195 4 -52 6 -192 5 -310 -2 -139 -10 -272 -22 -375 -11 -88 -25 -187
-31 -220 -6 -33 -15 -76 -21 -95 -5 -19 -21 -73 -36 -120 -14 -47 -29 -93 -34
-102 -5 -10 -9 -26 -9 -35 0 -10 -7 -27 -15 -37 -8 -10 -22 -42 -31 -70 -10
-28 -25 -64 -36 -81 -10 -16 -18 -37 -18 -45 0 -8 -20 -54 -44 -101 -24 -48
-61 -115 -82 -150 -21 -35 -53 -89 -71 -119 -18 -30 -68 -93 -111 -139 -42
-46 -111 -118 -152 -160 -41 -43 -106 -102 -145 -132 -38 -31 -92 -66 -118
-79 -27 -14 -59 -34 -71 -45 -12 -11 -43 -31 -70 -45 -26 -14 -74 -46 -107
-72 -32 -27 -63 -48 -68 -48 -5 0 -24 -12 -42 -28 -18 -15 -53 -39 -78 -53
-25 -15 -91 -49 -146 -77 -55 -27 -126 -61 -157 -76 -32 -14 -70 -28 -85 -32
-16 -3 -39 -10 -53 -16 -14 -5 -38 -16 -55 -23 -16 -7 -50 -20 -75 -30 -25 -9
-62 -25 -82 -36 -20 -10 -46 -19 -57 -19 -12 0 -48 -13 -81 -29 -33 -16 -129
-52 -212 -79 -84 -28 -170 -58 -190 -66 -20 -9 -101 -27 -180 -41 -79 -14
-181 -28 -228 -30 -47 -3 -125 -9 -175 -15 -49 -5 -128 -14 -175 -20 -54 -6
-114 -6 -165 -1 -44 5 -138 8 -210 7 -71 -1 -157 1 -190 5 -33 4 -87 14 -120
23 -33 8 -76 22 -95 30 -19 7 -64 22 -100 31 -36 10 -87 26 -115 35 -27 10
-93 37 -145 60 -52 23 -118 52 -147 66 -28 13 -55 29 -58 34 -4 6 -32 27 -62
48 -31 20 -63 42 -71 47 -9 6 -27 19 -40 30 -14 11 -34 28 -44 38 -10 9 -19
17 -20 17 -2 0 -32 26 -67 58 -36 31 -100 91 -144 132 -43 41 -99 102 -123
135 -25 33 -59 79 -77 103 -18 23 -53 69 -79 103 -27 33 -48 67 -48 75 0 8 -4
14 -10 14 -5 0 -21 21 -35 48 -14 26 -48 83 -75 127 -27 44 -52 87 -55 95 -4
8 -15 33 -26 55 -10 22 -23 47 -28 55 -6 8 -24 45 -40 83 -17 37 -31 74 -31
81 0 8 -4 18 -10 21 -5 3 -10 17 -10 30 0 13 -6 39 -14 57 -8 18 -26 74 -41
123 -15 50 -29 97 -32 105 -3 8 -7 29 -9 45 -2 17 -11 59 -20 95 -8 36 -26
106 -39 155 -13 50 -29 131 -34 180 -6 50 -13 126 -16 170 -3 44 -10 121 -15
170 -5 50 -9 153 -9 230 0 77 4 190 9 250 5 61 16 155 24 210 8 55 22 147 31
205 9 58 25 139 35 180 10 41 29 113 43 160 14 47 31 101 38 120 7 19 32 86
56 149 24 63 53 130 63 150 10 20 35 70 54 111 20 41 52 102 73 135 20 33 59
96 87 140 27 44 62 94 76 110 14 17 38 49 53 73 16 23 60 80 99 125 40 45 122
133 182 195 61 62 143 137 181 167 39 29 84 61 101 72 17 10 62 36 100 58 37
21 109 56 159 77 49 21 106 47 126 58 20 11 39 17 42 14 3 -3 45 10 94 29 48
19 111 40 138 48 28 7 61 19 75 26 14 7 34 13 45 13 11 0 72 14 135 30 63 17
126 30 139 30 14 0 50 7 80 15 31 8 130 26 221 41 91 14 210 30 265 34 55 4
190 7 300 7z"/>
<g>
<path d="M5930 6010 c-10 0 -21 -8 -24 -18 -4 -11 1 -36 10 -58 9 -21 36 -60
60 -86 24 -26 44 -52 44 -57 0 -6 20 -24 44 -41 25 -16 52 -30 60 -30 9 0 16
-4 16 -9 0 -5 13 -12 30 -16 16 -4 56 -8 87 -10 32 -2 87 3 123 9 36 7 99 30
140 52 47 24 100 64 143 105 54 54 67 73 67 98 0 20 -5 31 -15 31 -8 0 -31
-11 -51 -25 -20 -14 -46 -35 -58 -47 -12 -13 -35 -34 -52 -48 -16 -13 -66 -37
-112 -52 -46 -15 -94 -28 -108 -28 -14 0 -33 -4 -43 -10 -13 -6 -34 -3 -72 11
-30 11 -69 27 -87 37 -19 9 -59 49 -89 87 -31 39 -64 78 -75 88 -11 9 -28 17
-38 17z"/>
</g>
<g>
<path d="M8405 5953 c-7 11 -16 13 -32 7 -12 -5 -24 -18 -27 -28 -4 -13 2 -34
18 -59 14 -21 32 -46 40 -55 9 -10 16 -21 16 -25 0 -3 21 -27 48 -52 26 -25
65 -58 87 -72 22 -15 64 -32 94 -39 32 -8 82 -10 123 -7 37 3 85 11 106 18 20
6 64 24 98 40 33 17 75 45 93 64 18 19 37 35 42 35 5 0 9 5 9 10 0 6 9 19 20
30 11 11 22 31 26 45 3 14 4 32 0 40 -3 8 -16 15 -29 15 -17 0 -34 -12 -53
-37 -15 -21 -32 -40 -37 -42 -5 -2 -23 -15 -40 -30 -18 -15 -56 -39 -85 -54
-43 -24 -68 -29 -150 -33 -88 -5 -103 -3 -153 19 -43 19 -72 43 -129 109 -41
47 -79 92 -85 101z"/>
</g>
<g>
<path d="M7381 5610 c-6 0 -17 -10 -25 -22 -7 -13 -24 -61 -36 -108 -12 -47
-26 -89 -30 -95 -4 -5 -15 -41 -24 -80 -10 -38 -28 -115 -42 -169 -13 -54 -24
-111 -24 -125 0 -14 -12 -73 -26 -131 -14 -58 -31 -134 -38 -170 -8 -36 -21
-101 -30 -145 -9 -44 -29 -118 -43 -165 -14 -47 -36 -116 -48 -155 -12 -38
-29 -95 -38 -125 -8 -30 -20 -78 -26 -107 -7 -36 -7 -61 0 -82 6 -16 16 -32
23 -34 6 -3 53 0 103 5 64 7 114 7 164 0 40 -6 76 -9 81 -6 4 3 8 14 8 25 0
10 6 28 12 39 10 15 10 22 0 32 -8 8 -56 12 -157 13 -122 0 -145 2 -145 15 0
8 11 58 24 110 14 52 30 113 36 135 6 22 22 72 36 110 13 39 31 102 39 140 9
39 22 101 31 138 8 37 12 72 9 77 -3 5 -1 11 4 14 5 3 14 36 20 73 7 38 16 84
21 103 4 19 15 62 24 95 8 33 24 105 36 160 12 55 41 162 66 237 24 75 44 146
44 157 0 11 -9 25 -19 31 -11 5 -24 10 -30 10z"/>
</g>
<g>
<path d="M6590 3365 c-62 4 -89 2 -101 -7 -8 -7 -18 -20 -21 -29 -4 -9 -1 -25
7 -36 11 -15 28 -19 92 -21 43 -2 130 -9 193 -17 63 -8 223 -19 355 -25 132
-6 249 -13 261 -15 11 -3 68 -7 125 -10 57 -3 149 -10 203 -15 54 -6 196 -10
314 -10 l216 -1 24 25 c15 15 22 30 19 40 -4 9 -17 20 -30 25 -13 5 -103 6
-205 3 -100 -4 -196 -4 -214 0 -18 3 -105 11 -193 17 -88 6 -293 18 -455 26
-162 8 -342 22 -400 30 -58 8 -143 17 -190 20z"/>
</g>
</g>
<g>
<path d="M1729 6515 c-86 2 -159 1 -163 -2 -3 -3 -25 -10 -48 -14 -24 -4 -90
-24 -148 -44 -58 -19 -123 -48 -145 -62 -22 -15 -69 -50 -105 -79 -36 -28 -83
-69 -106 -90 -22 -22 -56 -59 -75 -84 -19 -25 -42 -57 -52 -72 -9 -15 -17 -34
-17 -43 0 -8 -4 -15 -9 -15 -5 0 -17 -24 -26 -52 -10 -29 -21 -57 -26 -62 -5
-6 -9 -16 -9 -24 0 -8 -6 -28 -14 -45 -8 -18 -21 -75 -29 -127 -8 -52 -13
-122 -11 -155 1 -34 7 -81 14 -105 6 -25 29 -81 51 -125 22 -44 54 -102 72
-130 18 -27 58 -75 91 -105 32 -30 72 -68 89 -83 17 -16 53 -46 81 -66 28 -21
72 -47 97 -59 25 -12 52 -22 61 -22 9 0 40 -8 70 -19 29 -10 77 -26 105 -36
39 -12 77 -16 147 -13 l94 3 6 -55 c3 -30 8 -82 12 -116 l6 -60 -58 -22 c-33
-11 -77 -26 -99 -31 -22 -6 -65 -17 -95 -26 -30 -8 -61 -15 -68 -15 -8 0 -25
-9 -39 -20 -14 -11 -36 -20 -49 -20 -12 0 -26 -5 -29 -11 -4 -6 -13 -8 -21 -5
-8 3 -25 1 -37 -3 -15 -6 -30 -25 -40 -53 -8 -23 -18 -86 -21 -138 -3 -52 -13
-133 -22 -180 -15 -71 -18 -133 -17 -370 1 -166 7 -314 14 -355 6 -38 11 -121
10 -183 -1 -75 2 -119 10 -128 6 -8 24 -14 39 -14 15 0 32 6 38 13 5 6 12 30
14 52 3 22 -1 59 -8 83 -7 23 -16 75 -19 115 -3 39 -8 90 -10 112 -3 22 -6
159 -7 305 -2 198 1 281 11 328 8 35 18 59 23 54 4 -4 12 -80 18 -168 5 -87
12 -211 14 -274 3 -63 10 -164 16 -225 5 -60 15 -182 21 -270 6 -88 13 -194
15 -235 2 -41 8 -88 13 -105 5 -16 12 -79 15 -140 4 -60 6 -195 6 -300 0 -104
-3 -356 -6 -560 -3 -203 -7 -383 -8 -400 -1 -22 6 -37 28 -57 16 -16 38 -28
48 -28 11 0 40 -7 66 -15 26 -8 91 -28 145 -45 53 -16 108 -30 121 -30 12 0
31 9 41 20 16 18 17 23 5 45 -9 17 -25 27 -49 31 -20 3 -61 14 -91 24 -30 9
-90 28 -134 41 -56 17 -80 30 -86 44 -4 11 -4 88 -1 170 3 83 6 353 5 600 0
248 -3 491 -7 540 -4 50 -11 108 -17 130 -5 22 -12 92 -15 155 -3 63 -8 145
-10 181 l-5 66 93 37 c50 20 105 36 120 36 16 0 52 7 80 16 29 8 61 20 71 26
11 5 42 14 70 18 28 5 92 20 141 34 50 14 108 31 130 37 22 6 60 18 85 27 25
8 62 19 83 22 l37 7 0 -51 c1 -28 5 -71 10 -96 5 -25 10 -206 10 -403 0 -198
-3 -481 -6 -630 -4 -150 -6 -297 -5 -327 1 -30 6 -77 11 -105 6 -27 11 -106
13 -175 2 -72 9 -134 16 -147 7 -14 20 -22 34 -22 12 1 47 -3 77 -9 30 -6 96
-15 145 -22 50 -7 100 -18 112 -26 12 -8 35 -14 51 -14 22 0 31 6 35 22 4 13
0 29 -8 38 -8 9 -34 26 -58 38 -25 12 -54 22 -67 22 -12 0 -52 5 -89 11 -36 6
-85 16 -109 22 -30 8 -44 18 -47 32 -2 11 -7 72 -11 135 -4 63 -6 417 -5 785
2 478 -1 683 -9 715 -7 27 -13 174 -16 365 -2 176 -9 395 -14 487 -6 91 -10
181 -10 199 0 18 3 29 7 26 3 -4 10 -26 14 -49 5 -24 15 -72 23 -108 7 -36 23
-91 35 -124 11 -32 22 -77 25 -100 2 -22 16 -95 31 -161 15 -66 34 -160 42
-210 8 -49 18 -126 22 -170 4 -44 13 -92 19 -107 8 -20 19 -28 36 -28 13 0 29
7 36 15 10 12 10 28 0 81 -7 37 -14 83 -15 103 -1 20 -7 61 -13 91 -6 30 -14
83 -16 118 -3 34 -10 72 -16 83 -6 11 -20 68 -31 127 -10 59 -23 125 -28 147
-4 22 -14 54 -20 70 -6 17 -15 39 -20 50 -5 11 -16 56 -24 100 -8 44 -22 105
-30 135 -8 30 -18 73 -22 95 -4 22 -16 62 -27 88 -12 26 -29 52 -39 57 -10 6
-37 10 -60 10 -23 0 -65 -7 -93 -15 -28 -8 -80 -22 -116 -31 -36 -9 -85 -20
-110 -24 -25 -5 -56 -11 -70 -13 -14 -3 -37 -8 -51 -12 -16 -4 -30 -2 -34 5
-4 6 -12 48 -19 93 -6 45 -10 93 -8 105 3 16 15 28 40 39 20 8 73 32 117 54
45 21 85 39 90 39 6 0 44 17 85 38 42 20 91 48 109 62 18 14 71 59 119 101 61
53 99 96 129 146 23 38 46 87 51 109 5 21 15 73 22 115 8 47 10 128 7 210 -3
83 -11 155 -21 189 -9 30 -26 89 -37 130 -11 41 -36 103 -55 137 -19 34 -69
96 -110 138 -56 55 -98 87 -153 114 -42 21 -94 41 -116 45 -21 4 -52 14 -67
22 -15 8 -52 19 -81 25 -28 5 -122 12 -208 14z m1 -91 c14 -1 57 -6 95 -9 39
-4 97 -13 130 -20 33 -7 85 -20 115 -30 30 -9 74 -26 97 -36 24 -11 49 -26 55
-33 7 -6 30 -22 51 -35 20 -12 37 -27 37 -33 0 -6 17 -31 39 -57 21 -25 51
-70 65 -100 15 -29 39 -108 53 -175 14 -66 26 -164 28 -216 1 -52 -2 -124 -8
-160 -6 -36 -14 -69 -19 -75 -4 -5 -8 -18 -8 -30 0 -11 -19 -54 -41 -95 -23
-41 -48 -82 -57 -90 -10 -8 -44 -38 -77 -65 -33 -28 -77 -63 -97 -78 -20 -15
-43 -27 -50 -27 -7 0 -30 -11 -50 -25 -20 -14 -42 -25 -48 -25 -5 0 -31 -10
-58 -23 -26 -13 -56 -28 -67 -34 -11 -7 -42 -22 -70 -34 -27 -13 -75 -27 -105
-31 -30 -4 -96 -8 -147 -9 -67 -1 -116 5 -180 21 -48 13 -106 33 -128 45 -22
13 -58 32 -80 44 -22 11 -65 42 -95 68 -30 27 -73 68 -97 93 -24 25 -43 50
-43 56 0 5 -14 23 -30 39 -16 16 -30 32 -30 37 0 4 -14 36 -30 70 -19 39 -36
98 -46 155 -8 51 -12 105 -9 120 4 16 11 48 17 73 6 25 26 85 45 135 19 49 51
121 71 160 19 38 49 86 66 105 16 19 70 70 120 113 55 47 119 91 161 111 39
18 90 38 115 45 25 7 66 19 93 28 26 8 80 19 120 23 39 4 83 6 97 4z m558
-1835 c18 1 22 -4 21 -26 0 -16 -4 -62 -8 -105 -5 -42 -4 -134 1 -205 5 -70
11 -211 14 -313 2 -102 2 -219 -2 -261 l-6 -76 -72 -21 c-39 -11 -84 -25 -101
-31 -16 -5 -59 -19 -95 -29 -36 -11 -100 -25 -143 -32 -43 -7 -80 -17 -83 -21
-3 -5 -19 -9 -35 -9 -17 0 -54 -11 -82 -24 -29 -13 -78 -27 -110 -30 -32 -4
-73 -14 -90 -22 -17 -9 -43 -20 -59 -25 -23 -6 -30 -4 -40 14 -7 13 -16 136
-24 312 -8 159 -18 315 -23 345 -5 30 -14 93 -20 140 -6 47 -14 97 -16 111 -4
15 -1 30 7 36 7 6 45 20 83 31 39 12 84 24 100 28 17 4 41 12 55 19 14 7 57
22 95 33 39 12 88 24 110 27 22 4 69 15 105 26 36 11 79 24 95 29 17 5 50 12
75 16 25 3 77 17 115 29 39 13 79 26 90 28 11 3 30 5 43 6z"/>
<g>
<path d="M2371 6060 c-9 0 -22 -5 -29 -12 -7 -7 -12 -19 -12 -27 0 -9 7 -24
14 -34 10 -12 24 -17 43 -15 22 2 29 9 31 29 2 15 -4 34 -13 43 -9 9 -24 16
-34 16z"/>
</g>
<g>
<path d="M1462 5840 c-10 0 -22 -3 -25 -7 -4 -3 -7 -21 -7 -40 0 -26 6 -36 25
-45 21 -9 28 -8 45 7 11 10 20 28 20 41 0 13 -9 28 -19 34 -11 5 -28 10 -39
10z"/>
</g>
<g>
<path d="M2080 5820 c-14 7 -23 6 -34 -6 -9 -8 -16 -23 -16 -32 1 -9 8 -33 18
-52 9 -19 30 -54 46 -78 l29 -43 -32 -29 c-27 -25 -30 -33 -21 -50 6 -11 21
-20 33 -20 13 0 42 12 65 27 23 15 45 36 48 46 3 10 -3 30 -12 45 -10 15 -24
36 -30 47 -6 11 -25 46 -43 78 -18 31 -41 62 -51 67z"/>
</g>
<g>
<path d="M2313 5378 c-11 5 -30 5 -48 0 -16 -5 -41 -11 -55 -13 -14 -2 -45 -9
-70 -15 -25 -6 -79 -18 -120 -25 -41 -8 -111 -22 -155 -31 -48 -10 -87 -24
-97 -35 -9 -11 -14 -28 -11 -39 3 -11 14 -25 25 -31 14 -8 46 -4 126 16 59 15
149 35 201 46 52 11 108 26 124 34 17 8 37 15 46 15 9 0 24 13 34 29 9 16 17
32 17 35 0 3 -8 9 -17 14z"/>
</g>
</g>
</g>
</svg>
