<?xml version="1.0" standalone="no"?>
<!DOCTYPE svg PUBLIC "-//W3C//DTD SVG 20010904//EN"
 "http://www.w3.org/TR/2001/REC-SVG-20010904/DTD/svg10.dtd">
<svg version="1.0" xmlns="http://www.w3.org/2000/svg"
 width="1200.000000pt" height="1200.000000pt" viewBox="0 0 1200.000000 1200.000000"
 preserveAspectRatio="xMidYMid meet">
<metadata>
Created by potrace 1.16, written by Peter Selinger 2001-2019
</metadata>
<g transform="translate(0.000000,1200.000000) scale(0.100000,-0.100000)"
fill="#000000" stroke="none">
<g>
<path d="M5725 10682 c-38 2 -128 -1 -200 -8 -71 -7 -173 -17 -225 -23 -52 -6
-113 -15 -135 -20 -22 -5 -61 -16 -88 -25 -26 -8 -49 -15 -52 -15 -3 -1 -17
-4 -33 -7 -15 -4 -37 -13 -48 -21 -12 -8 -26 -13 -30 -12 -5 1 -18 -1 -29 -6
-11 -4 -49 -21 -85 -38 -36 -17 -80 -42 -98 -56 -18 -14 -44 -46 -57 -70 -17
-30 -25 -59 -25 -92 0 -27 5 -49 10 -49 6 0 10 -7 10 -15 0 -8 29 -44 65 -80
36 -36 71 -65 76 -65 6 0 28 -13 48 -29 20 -15 77 -50 126 -76 50 -26 96 -52
103 -58 7 -6 9 -14 4 -19 -5 -5 -33 -13 -63 -18 -30 -5 -83 -16 -119 -25 -36
-9 -82 -19 -102 -24 -21 -5 -43 -13 -50 -18 -7 -6 -36 -13 -65 -17 -28 -4 -64
-13 -80 -21 -15 -8 -36 -15 -45 -15 -9 0 -41 -6 -70 -14 -29 -8 -81 -23 -115
-35 -34 -12 -70 -21 -79 -21 -9 0 -27 -9 -41 -20 -14 -11 -36 -20 -49 -20 -13
0 -43 -9 -66 -19 -24 -11 -81 -34 -128 -52 -47 -17 -110 -43 -140 -57 -30 -13
-62 -28 -70 -32 -9 -4 -30 -11 -47 -14 -17 -4 -37 -14 -44 -22 -6 -8 -17 -14
-24 -14 -6 0 -68 -28 -136 -62 -68 -34 -138 -72 -155 -85 -17 -13 -34 -23 -38
-23 -4 0 -51 -34 -106 -75 -54 -41 -121 -99 -149 -128 -28 -30 -63 -67 -77
-83 -13 -16 -35 -50 -47 -76 -12 -27 -25 -48 -29 -48 -4 0 -18 -21 -32 -47
-13 -27 -27 -68 -32 -93 -4 -25 -7 -69 -5 -99 1 -30 8 -66 15 -80 8 -14 21
-42 30 -61 8 -19 34 -54 58 -77 24 -23 64 -60 91 -83 26 -24 47 -45 47 -49 0
-3 -39 -17 -87 -30 -49 -13 -110 -30 -138 -38 -27 -8 -63 -18 -80 -23 -16 -5
-59 -17 -95 -28 -36 -12 -96 -32 -135 -47 -38 -14 -95 -34 -125 -44 -30 -11
-95 -35 -145 -54 -49 -20 -112 -45 -140 -57 -27 -12 -64 -28 -82 -36 -17 -8
-36 -14 -43 -14 -6 0 -30 -9 -53 -20 -23 -11 -49 -25 -57 -30 -8 -5 -35 -19
-60 -30 -25 -11 -52 -24 -60 -29 -8 -5 -53 -27 -100 -50 -47 -23 -88 -41 -92
-41 -4 0 -46 -25 -95 -56 -48 -31 -101 -64 -117 -73 -15 -9 -63 -39 -105 -66
-42 -28 -100 -67 -129 -88 -29 -21 -60 -45 -70 -55 -10 -9 -38 -33 -62 -52
-25 -19 -80 -71 -123 -115 -43 -44 -97 -105 -120 -135 -23 -30 -51 -73 -62
-95 -10 -22 -27 -50 -36 -63 -11 -14 -20 -51 -24 -95 -3 -40 -6 -81 -6 -92 0
-11 3 -47 6 -80 4 -33 16 -85 28 -115 12 -30 27 -59 34 -63 7 -4 13 -14 13
-22 0 -8 27 -47 59 -87 33 -40 81 -96 108 -124 26 -28 67 -61 89 -72 23 -12
44 -28 48 -37 3 -9 25 -25 49 -35 24 -11 54 -28 68 -38 13 -10 85 -52 159 -94
74 -42 155 -84 180 -94 25 -9 54 -25 66 -36 11 -10 27 -18 35 -18 9 0 18 -3
22 -6 3 -4 39 -18 79 -31 40 -14 80 -26 88 -28 8 -2 49 -16 90 -31 41 -14 80
-30 85 -34 6 -5 33 -15 60 -23 28 -8 115 -35 195 -60 80 -24 159 -48 175 -51
17 -4 57 -13 90 -21 33 -7 92 -23 130 -35 39 -12 86 -25 106 -29 19 -4 41 -11
48 -15 6 -4 53 -14 104 -21 51 -8 124 -21 162 -30 39 -9 99 -20 135 -26 36 -5
85 -13 110 -17 25 -4 41 -10 35 -13 -5 -4 -26 -10 -45 -14 -19 -3 -53 -12 -75
-20 -22 -7 -76 -20 -120 -30 -44 -9 -105 -25 -135 -35 -30 -11 -71 -22 -90
-25 -19 -4 -89 -25 -154 -46 -66 -21 -125 -39 -130 -39 -6 0 -24 -7 -39 -15
-16 -8 -47 -20 -70 -26 -23 -6 -60 -19 -82 -29 -22 -10 -67 -29 -100 -42 -33
-13 -105 -47 -160 -76 -55 -30 -109 -61 -120 -71 -11 -9 -33 -23 -50 -31 -16
-8 -80 -64 -141 -125 -61 -60 -128 -136 -148 -169 -21 -32 -51 -86 -68 -120
-16 -33 -36 -81 -43 -106 -8 -25 -19 -110 -26 -189 -6 -80 -8 -177 -5 -215 4
-39 14 -110 22 -158 8 -47 23 -115 35 -150 11 -35 40 -99 66 -143 25 -44 55
-97 67 -118 11 -22 44 -64 73 -95 29 -31 53 -59 53 -62 1 -3 15 -16 32 -30 17
-14 47 -39 65 -56 19 -17 46 -37 61 -45 15 -7 40 -22 57 -34 16 -11 59 -35 95
-52 36 -18 70 -33 76 -33 7 0 38 -14 70 -30 31 -17 73 -35 93 -40 20 -5 70
-18 111 -29 41 -12 100 -26 130 -32 30 -6 67 -17 82 -25 14 -8 61 -19 105 -25
43 -5 92 -14 109 -20 17 -5 41 -9 55 -9 13 0 56 -7 94 -14 39 -8 138 -22 220
-31 83 -9 156 -18 163 -20 7 -3 58 -7 115 -11 56 -3 122 -11 147 -16 25 -5 64
-9 87 -9 23 0 45 -4 48 -9 3 -5 -8 -16 -24 -25 -17 -8 -36 -15 -44 -15 -8 0
-20 -7 -27 -15 -7 -8 -20 -15 -29 -16 -9 0 -41 -13 -71 -29 -30 -16 -73 -38
-96 -49 -23 -10 -79 -38 -125 -61 -46 -23 -100 -50 -119 -60 -19 -11 -40 -24
-47 -29 -7 -6 -16 -11 -21 -11 -5 0 -34 -18 -65 -40 -31 -23 -77 -59 -102 -82
-44 -40 -45 -43 -45 -100 0 -54 3 -62 32 -89 18 -16 36 -29 41 -29 5 0 16 -9
25 -19 10 -11 53 -38 97 -60 43 -23 87 -41 96 -41 9 0 24 -9 34 -20 10 -11 24
-20 30 -20 7 0 26 -7 41 -15 16 -8 39 -15 51 -15 12 0 24 -4 28 -10 3 -5 38
-25 78 -44 40 -19 106 -49 147 -66 41 -16 79 -30 84 -30 5 0 17 -6 25 -13 9
-7 48 -24 86 -37 39 -12 75 -26 80 -30 6 -4 53 -23 105 -43 52 -20 109 -39
125 -43 17 -4 35 -10 40 -15 6 -4 47 -18 90 -30 44 -11 85 -25 90 -29 6 -5 39
-16 75 -25 36 -9 81 -20 100 -25 19 -5 62 -16 95 -24 33 -9 89 -23 125 -31 36
-8 90 -19 120 -25 30 -6 66 -12 80 -15 14 -2 52 -9 85 -14 33 -6 71 -13 85
-16 14 -3 61 -9 105 -15 44 -5 123 -12 175 -16 52 -3 119 -9 147 -13 29 -5
153 -7 277 -5 123 2 261 8 307 14 46 7 102 13 124 15 22 2 87 8 145 14 58 6
143 16 190 21 47 5 125 15 174 20 49 6 102 18 117 26 16 8 40 26 54 41 14 16
25 39 25 53 0 14 -16 44 -34 68 -19 24 -36 46 -38 50 -2 4 -21 22 -44 39 -26
20 -73 42 -130 58 -49 14 -93 30 -98 35 -6 6 -7 10 -4 10 3 0 2 18 -3 41 -8
34 -6 45 11 69 11 16 27 45 36 65 l15 37 -40 39 c-23 21 -58 42 -78 48 -21 5
-58 14 -83 20 -25 7 -94 19 -155 27 -60 8 -153 17 -205 21 -63 4 -109 12 -138
26 -28 12 -42 25 -40 35 2 9 30 31 63 49 33 18 94 49 135 69 68 33 86 37 195
45 66 4 165 13 220 18 55 6 174 20 265 31 91 11 197 25 235 30 39 5 117 15
175 20 58 6 112 12 120 15 8 2 60 7 115 10 55 4 125 9 155 11 30 1 87 5 125 8
39 3 144 11 235 16 91 6 194 15 230 19 36 5 117 10 180 11 63 1 140 3 170 5
30 2 235 6 455 10 220 4 405 7 410 8 6 0 39 -3 75 -7 59 -6 69 -5 100 16 26
18 36 32 38 56 3 27 -1 34 -25 43 -20 8 -95 9 -258 3 -126 -4 -349 -9 -495
-10 -146 -1 -323 -5 -395 -8 -71 -4 -161 -9 -200 -12 -38 -3 -79 -8 -90 -11
-11 -3 -18 -3 -15 0 3 3 41 23 86 46 44 23 100 60 123 84 24 23 52 60 62 82
10 22 19 54 19 72 0 17 -4 43 -9 56 -5 14 -24 41 -42 62 -18 20 -62 51 -98 69
-36 19 -109 43 -161 54 -52 12 -138 26 -190 33 -52 6 -189 13 -305 15 -115 2
-302 0 -415 -5 -113 -5 -275 -12 -360 -15 -85 -4 -184 -11 -220 -16 -36 -5
-112 -12 -170 -15 -58 -3 -120 -8 -138 -11 l-34 -7 21 41 c12 23 21 54 21 70
0 16 -10 45 -22 64 -13 18 -32 49 -42 67 -13 24 -19 54 -19 102 0 37 6 83 13
101 7 18 42 93 79 167 63 129 66 137 70 219 2 49 -2 103 -9 126 -7 23 -30 78
-51 124 -21 46 -39 87 -39 91 0 5 -6 14 -14 20 -8 7 -24 42 -36 79 -12 37 -24
99 -26 137 -2 39 -6 111 -8 160 -3 50 -8 140 -13 200 -4 61 -8 151 -8 200 0
54 4 89 10 89 6 -1 60 -5 120 -8 61 -4 178 -14 260 -22 83 -8 213 -21 290 -30
76 -8 141 -17 144 -20 3 -2 13 -35 23 -72 9 -37 18 -78 18 -90 0 -13 6 -38 13
-55 8 -18 24 -93 36 -167 13 -74 27 -157 32 -185 5 -27 17 -90 25 -140 9 -49
18 -104 21 -121 3 -18 0 -35 -6 -39 -7 -3 -42 -11 -79 -17 -37 -5 -93 -10
-124 -12 -39 -1 -63 -8 -77 -20 -12 -11 -21 -29 -21 -41 0 -13 7 -28 15 -35 8
-7 34 -12 57 -12 24 0 62 2 85 5 23 3 80 11 125 18 46 6 88 16 93 21 6 5 11
13 11 18 1 6 2 15 3 20 0 6 8 10 17 10 15 0 16 9 10 62 -3 35 -13 95 -21 133
-7 39 -21 108 -31 155 -9 47 -22 121 -29 165 -7 44 -21 127 -30 185 -9 57 -21
112 -26 121 -5 10 -9 34 -9 53 0 20 3 36 8 36 4 0 72 -7 152 -15 80 -8 224
-22 320 -30 96 -8 195 -17 220 -20 25 -2 97 -9 160 -15 63 -6 205 -18 315 -26
110 -7 236 -17 280 -21 44 -4 217 -7 385 -6 216 0 344 5 440 17 74 9 158 21
185 26 28 5 79 16 115 25 36 8 83 20 105 25 22 5 73 21 114 35 41 14 115 45
165 68 50 24 127 71 171 104 44 33 108 89 142 124 35 35 82 90 105 121 24 31
51 74 62 95 10 21 22 45 27 53 5 8 24 44 41 80 28 57 32 75 33 149 l0 83 -45
40 c-25 22 -82 57 -127 79 -46 21 -89 39 -96 39 -7 0 -18 5 -24 11 -6 6 -29
15 -50 20 -21 4 -81 20 -133 34 -52 14 -138 34 -191 45 -53 11 -118 21 -145
24 -27 3 -71 8 -99 12 -27 3 -113 9 -190 13 -77 4 -216 9 -310 9 -93 1 -291
-3 -440 -8 -148 -6 -295 -13 -325 -14 -30 -2 -98 -7 -150 -10 -52 -4 -144 -11
-205 -16 -60 -6 -193 -17 -295 -26 -101 -8 -187 -17 -190 -19 -3 -2 -66 -9
-140 -15 -74 -7 -146 -13 -160 -15 -14 -2 -54 -6 -90 -9 -36 -3 -103 -11 -150
-16 -47 -6 -99 -12 -115 -14 -26 -3 -33 0 -42 22 -6 15 -18 47 -26 72 -8 25
-23 88 -32 140 -9 52 -26 122 -37 155 -11 33 -27 70 -34 83 -10 15 -24 22 -44
22 -24 0 -33 -6 -41 -27 -8 -21 -8 -36 1 -58 7 -16 16 -50 22 -75 5 -25 13
-72 17 -105 4 -34 13 -70 18 -80 6 -11 14 -41 18 -68 4 -26 11 -50 16 -53 5
-3 9 -15 9 -27 0 -21 -7 -24 -112 -36 -62 -7 -178 -21 -258 -32 -80 -11 -187
-27 -239 -35 -51 -8 -95 -13 -97 -11 -2 2 -6 102 -9 222 -3 120 -12 270 -21
334 -8 64 -22 128 -29 143 -7 15 -16 42 -20 60 -3 18 -10 44 -15 58 -5 14 -11
39 -14 55 -2 17 -9 59 -15 95 -6 36 -13 119 -16 185 -3 66 -7 156 -10 200 -2
44 -9 96 -15 115 -6 19 -18 75 -26 123 -8 49 -12 93 -9 98 4 5 42 7 88 4 45
-3 136 -10 202 -16 66 -5 208 -16 315 -24 107 -8 312 -19 455 -25 143 -5 361
-14 485 -19 124 -5 241 -9 260 -8 19 0 274 -3 565 -8 374 -5 581 -4 705 4 96
6 213 16 260 22 47 5 112 15 145 20 33 5 85 15 115 20 30 6 107 28 171 49 64
22 139 50 165 63 27 13 88 49 136 81 48 31 110 82 138 113 28 30 61 78 75 107
13 28 34 87 46 130 19 72 20 87 9 153 -6 41 -17 85 -25 99 -7 14 -31 44 -52
67 -22 23 -57 57 -78 75 -21 18 -47 37 -57 43 -11 6 -28 19 -39 30 -10 10 -24
19 -30 19 -6 0 -25 11 -43 25 -18 14 -39 25 -45 25 -7 0 -25 6 -39 14 -15 7
-38 18 -52 23 -14 6 -36 15 -50 21 -14 6 -65 20 -115 32 -49 11 -112 27 -140
34 -27 8 -84 19 -125 26 -41 7 -84 16 -95 21 -11 5 -99 18 -195 29 -96 11
-195 24 -220 30 -25 5 -63 11 -85 14 -22 4 -98 10 -170 16 -71 5 -211 15 -310
20 -99 6 -333 13 -520 15 -187 2 -428 0 -535 -5 -107 -5 -253 -12 -325 -16
-71 -3 -132 -7 -135 -9 -3 -2 -57 -7 -120 -10 -63 -3 -149 -11 -190 -16 -41
-5 -111 -12 -155 -15 -44 -3 -125 -9 -180 -14 -55 -4 -108 -11 -117 -15 -12
-5 -18 -2 -18 7 0 8 9 41 20 73 11 32 24 96 28 143 5 46 4 114 -1 151 -6 51
-14 71 -32 86 -14 11 -32 38 -41 60 -9 22 -28 54 -44 70 -15 17 -30 43 -33 59
-3 16 0 40 6 53 6 15 25 27 50 34 28 7 53 8 81 0 23 -5 70 -17 106 -25 36 -8
99 -20 140 -27 41 -6 100 -17 130 -24 30 -7 93 -18 140 -24 47 -7 171 -25 275
-41 105 -16 217 -32 250 -35 33 -3 96 -10 140 -15 44 -6 186 -17 315 -25 153
-10 313 -14 460 -11 124 3 256 8 294 11 38 3 85 10 105 14 20 5 63 17 95 25
33 9 74 23 91 32 18 8 63 40 100 70 38 32 73 71 81 90 8 18 14 52 14 74 0 23
-6 53 -14 69 -8 15 -35 45 -59 67 -25 21 -58 48 -73 59 -16 11 -45 27 -64 37
-19 9 -64 30 -100 46 -36 16 -103 41 -150 55 -47 14 -110 33 -140 41 -30 8
-93 24 -140 35 -47 11 -134 28 -195 37 -60 9 -150 20 -200 24 -49 4 -265 6
-480 5 -214 -2 -421 -6 -460 -10 -38 -3 -82 -8 -97 -10 -24 -4 -22 1 28 48 52
52 54 55 54 108 0 51 -3 57 -42 96 -24 23 -81 59 -128 81 -47 22 -102 47 -123
57 -21 9 -70 23 -109 31 -39 8 -76 18 -81 21 -6 4 -27 10 -46 14 -20 4 -61 15
-91 24 -30 9 -73 20 -95 25 -22 5 -67 16 -100 25 -33 9 -76 18 -95 20 -19 2
-57 8 -85 13 -27 6 -81 12 -120 14z m-91 -80 c47 -2 86 -7 86 -10 0 -4 -13
-13 -28 -19 -15 -7 -47 -31 -72 -54 -40 -38 -44 -46 -48 -98 l-4 -56 54 -50
c30 -28 86 -69 124 -92 38 -24 79 -43 91 -43 12 0 24 -4 28 -9 3 -6 19 -17 37
-25 17 -9 38 -16 48 -16 9 0 20 -4 26 -8 5 -5 27 -14 49 -20 22 -6 60 -14 83
-17 24 -3 51 -9 60 -14 14 -8 12 -11 -13 -21 -16 -6 -43 -10 -60 -7 -16 2 -64
0 -105 -4 -41 -5 -129 -16 -195 -24 -66 -9 -151 -20 -190 -26 -38 -5 -79 -12
-90 -13 -11 -2 -56 -9 -100 -15 -44 -6 -87 -13 -95 -15 -8 -1 -31 -6 -51 -10
-28 -6 -53 -2 -105 17 -38 14 -91 36 -119 49 -27 12 -63 32 -80 43 -16 12 -47
30 -68 40 -21 11 -63 39 -93 63 -30 24 -68 64 -85 90 -19 30 -27 53 -23 67 3
11 16 35 28 53 13 18 43 45 67 60 24 16 78 41 119 56 41 15 83 32 92 37 10 5
26 9 35 9 10 0 47 9 83 21 36 11 117 27 180 34 63 8 138 15 165 15 28 1 58 4
67 8 9 4 55 6 102 4z m261 -48 c28 -3 84 -14 125 -24 41 -11 122 -31 180 -45
58 -14 117 -31 133 -37 15 -6 27 -15 27 -20 0 -5 -23 -34 -52 -64 -28 -30 -65
-63 -82 -73 -17 -11 -51 -26 -76 -35 -25 -8 -81 -20 -126 -26 -79 -12 -83 -11
-140 15 -32 15 -75 34 -94 43 -19 9 -51 27 -70 41 -19 14 -40 33 -47 41 -7 8
-13 26 -13 40 0 17 14 39 40 65 22 21 63 49 92 61 41 18 65 22 103 18z m595
-139 c25 -4 56 -13 70 -20 14 -7 41 -16 60 -20 19 -4 48 -15 65 -24 16 -9 42
-27 57 -40 18 -15 28 -34 28 -50 -1 -14 -8 -35 -18 -46 -9 -11 -37 -30 -62
-41 -25 -12 -72 -27 -105 -33 -33 -6 -103 -13 -155 -16 -86 -4 -104 -2 -177
23 -71 25 -79 30 -62 40 10 7 25 12 33 12 8 0 38 18 67 39 30 22 64 50 77 63
13 13 35 45 50 71 l27 48 45 -6z m915 -362 c176 -1 348 -6 383 -11 35 -5 65
-5 68 0 3 5 10 6 15 2 5 -3 24 -8 42 -10 18 -3 50 -7 72 -9 22 -2 60 -9 85
-15 25 -7 88 -23 140 -37 52 -14 106 -27 120 -28 14 -1 39 -10 55 -19 17 -9
38 -16 47 -16 9 0 19 -4 23 -10 3 -5 11 -7 18 -5 7 3 34 -6 61 -20 27 -14 55
-25 61 -25 7 0 43 -20 81 -45 37 -25 73 -45 79 -45 7 0 28 -18 49 -41 20 -23
41 -49 46 -59 6 -10 10 -25 10 -32 0 -8 -24 -39 -52 -70 -29 -31 -69 -63 -88
-71 -19 -8 -60 -22 -90 -31 -30 -9 -91 -22 -135 -27 -44 -6 -98 -12 -120 -14
-22 -2 -155 -4 -295 -5 -140 0 -304 2 -365 5 -60 3 -148 10 -195 15 -47 5
-137 14 -200 20 -63 6 -131 13 -150 16 -19 3 -111 16 -205 30 -93 14 -197 30
-230 35 -33 5 -85 12 -115 15 -30 3 -57 7 -61 9 -3 3 -66 16 -138 31 -73 14
-138 24 -144 21 -7 -3 -21 1 -31 9 -18 13 -17 14 10 24 16 5 61 27 99 47 39
20 91 52 117 70 26 18 51 33 55 33 5 1 17 8 28 18 11 9 28 28 38 42 9 13 17
36 17 50 0 14 -9 45 -21 69 -14 32 -16 46 -8 51 6 4 88 13 183 19 94 7 205 13
246 15 41 1 219 1 395 -1z m-1048 -44 c23 0 45 -3 48 -9 3 -5 16 -10 28 -10
12 0 37 -13 55 -29 18 -16 32 -38 32 -51 0 -12 -13 -34 -28 -48 -16 -15 -47
-42 -70 -59 -22 -18 -48 -33 -57 -33 -9 0 -37 -11 -63 -25 -26 -14 -52 -25
-59 -25 -7 0 -41 -16 -76 -35 l-64 -35 -64 16 c-35 9 -77 18 -94 21 -16 3 -34
9 -40 12 -5 4 -26 8 -45 10 -19 1 -82 20 -140 41 -58 21 -123 41 -145 45 -22
4 -71 19 -110 34 -38 16 -79 31 -89 35 -10 3 -16 9 -13 12 3 3 11 7 19 8 7 2
36 6 63 10 28 4 57 10 65 13 8 4 18 6 21 5 4 -1 33 3 65 9 33 5 102 14 154 19
52 6 113 13 135 16 22 2 72 9 110 15 39 6 104 12 145 15 41 2 98 8 125 13 28
5 69 9 92 10z m-1093 -170 c28 -12 65 -26 81 -32 17 -6 48 -18 70 -28 22 -10
65 -25 95 -34 30 -9 69 -22 85 -28 17 -7 33 -12 38 -13 4 -1 9 -3 12 -4 3 -1
8 -3 13 -4 4 -1 32 -8 62 -15 30 -8 60 -17 65 -21 6 -4 55 -18 110 -30 55 -13
103 -26 108 -30 4 -3 -4 -21 -18 -40 -16 -21 -25 -47 -25 -70 0 -23 12 -56 33
-91 18 -30 51 -78 74 -108 23 -30 47 -74 54 -98 7 -26 9 -69 6 -106 -3 -34
-13 -89 -23 -122 -9 -33 -22 -80 -29 -105 -10 -36 -17 -46 -41 -52 -16 -4 -78
-14 -139 -23 -60 -8 -141 -19 -180 -25 -38 -5 -90 -12 -115 -15 -25 -3 -90
-12 -145 -20 -55 -8 -127 -20 -160 -25 -33 -6 -107 -17 -165 -25 -58 -7 -139
-21 -180 -30 -41 -9 -131 -25 -200 -36 -69 -10 -163 -26 -210 -33 -47 -8 -112
-20 -145 -26 -33 -6 -82 -15 -110 -20 -27 -5 -108 -20 -180 -34 -71 -15 -157
-33 -190 -41 -33 -8 -116 -26 -185 -40 -69 -15 -177 -40 -240 -55 -63 -16
-152 -37 -197 -46 l-81 -17 -39 30 c-21 17 -54 38 -73 47 -19 10 -56 42 -82
71 -29 34 -51 70 -58 97 -6 24 -14 50 -19 58 -5 9 -5 40 0 70 5 30 27 93 50
139 23 47 48 92 57 100 9 9 44 51 80 93 35 43 69 78 75 78 5 0 40 26 76 58 36
33 84 67 106 78 22 10 58 30 80 45 22 14 54 33 70 41 17 9 67 34 112 57 46 23
90 41 98 41 8 0 15 4 15 8 0 4 26 16 58 26 31 11 79 30 106 42 28 13 56 24 63
24 8 0 48 16 89 35 41 19 81 35 90 35 8 0 26 7 40 16 14 9 42 20 62 25 20 4
60 15 87 24 28 8 79 25 115 35 36 11 90 27 120 35 30 8 75 20 100 26 25 7 82
23 126 35 45 13 94 24 109 24 14 0 36 5 48 12 12 6 42 15 67 20 25 4 71 12
103 17 33 5 61 12 64 15 3 3 28 -4 57 -15z m2593 -986 c180 -1 387 -7 458 -12
72 -6 202 -13 290 -16 87 -4 163 -9 167 -11 4 -3 41 -9 81 -14 39 -5 135 -16
212 -25 77 -9 176 -23 220 -31 44 -8 96 -16 115 -17 19 -2 41 -6 48 -11 6 -4
33 -11 60 -16 26 -5 65 -14 87 -19 22 -6 78 -19 125 -30 47 -11 110 -29 140
-41 30 -11 71 -29 91 -40 20 -11 43 -20 52 -20 8 0 20 -6 26 -14 7 -8 26 -18
42 -21 17 -4 35 -16 42 -26 7 -11 26 -27 42 -35 17 -7 44 -28 60 -44 17 -17
38 -38 48 -48 11 -9 30 -39 43 -66 13 -27 26 -70 30 -95 4 -32 -1 -65 -15
-111 -11 -36 -21 -71 -21 -79 0 -7 -16 -36 -37 -65 -20 -28 -60 -74 -89 -101
-29 -28 -82 -65 -116 -83 -35 -19 -79 -42 -98 -53 -19 -10 -42 -19 -50 -19 -9
0 -20 -4 -26 -9 -5 -5 -38 -17 -74 -26 -36 -10 -83 -21 -105 -25 -22 -5 -80
-15 -130 -24 -49 -8 -133 -20 -185 -25 -52 -6 -128 -13 -168 -16 -39 -3 -262
-6 -495 -6 -232 0 -550 2 -707 5 -157 3 -341 8 -410 11 -69 3 -181 8 -250 10
-69 2 -201 7 -295 10 -93 3 -244 12 -335 20 -91 8 -210 17 -265 20 -55 4 -120
9 -145 11 -25 3 -65 7 -90 9 -25 2 -66 4 -92 5 -37 0 -48 4 -48 16 0 8 10 39
21 67 12 29 28 66 35 84 8 17 14 35 14 41 0 5 7 12 15 16 8 3 15 14 15 24 0
11 6 25 14 31 7 6 21 36 31 67 13 40 16 71 11 111 -3 30 -14 69 -22 86 -9 17
-32 53 -52 81 -19 28 -49 68 -66 90 -30 37 -31 40 -29 140 1 79 6 115 25 166
l24 65 49 7 c28 4 79 10 115 12 36 3 119 10 185 16 66 6 161 15 210 20 50 6
164 14 255 20 91 5 210 12 265 16 55 3 149 7 209 9 59 2 110 5 111 7 2 2 151
2 332 1z m-1872 -125 c6 1 16 -2 24 -7 13 -8 13 -14 2 -38 -8 -15 -17 -64 -22
-108 -5 -52 -5 -103 3 -145 6 -36 20 -78 32 -95 11 -16 32 -43 47 -60 14 -16
35 -46 45 -65 10 -19 23 -38 29 -42 5 -4 9 -42 9 -85 -1 -72 -4 -84 -43 -156
-23 -43 -47 -88 -54 -100 -6 -12 -17 -29 -24 -37 -6 -8 -18 -37 -26 -65 -8
-27 -19 -49 -23 -48 -5 0 -79 8 -164 17 -85 9 -186 21 -225 26 -38 6 -146 19
-240 30 -93 11 -208 26 -255 34 -47 8 -123 19 -170 25 -47 6 -121 18 -165 25
-44 8 -132 24 -195 36 -63 12 -146 27 -185 35 -38 7 -110 23 -160 35 -49 11
-144 34 -210 51 -66 17 -154 41 -195 55 -41 13 -97 32 -125 40 -27 9 -70 25
-94 36 -25 11 -60 22 -78 25 -18 3 -33 10 -33 14 0 5 -4 9 -9 9 -5 0 -44 16
-87 36 -57 26 -75 38 -64 44 8 4 58 18 110 29 52 12 133 30 180 41 47 11 117
27 155 36 39 9 88 20 110 24 22 4 63 12 90 18 28 6 70 13 95 17 24 4 48 8 51
11 4 2 53 12 110 23 57 11 122 23 144 27 22 4 47 9 55 10 8 1 40 7 70 12 30 6
123 22 205 37 83 14 206 35 275 46 69 11 170 26 225 34 55 8 156 24 225 35 69
11 197 30 285 41 88 12 183 25 210 29 28 4 55 8 60 8z m-2791 -509 c5 1 38
-15 75 -34 36 -19 87 -43 113 -55 26 -11 53 -20 60 -20 8 0 22 -6 33 -14 11
-7 34 -16 50 -20 17 -4 37 -13 45 -20 8 -7 51 -25 96 -40 45 -14 88 -26 96
-26 8 0 28 -7 45 -15 16 -8 54 -20 84 -25 30 -6 74 -17 99 -25 25 -8 59 -17
76 -20 17 -2 48 -11 70 -19 22 -7 59 -17 84 -20 25 -4 59 -11 75 -16 17 -4 57
-13 90 -19 33 -7 74 -16 90 -21 17 -5 50 -11 75 -14 25 -3 86 -13 135 -22 50
-9 113 -19 140 -24 28 -4 100 -14 160 -23 61 -9 137 -19 170 -23 33 -4 71 -8
85 -10 14 -1 77 -9 140 -18 63 -9 169 -23 235 -31 66 -8 170 -19 230 -25 61
-6 118 -13 128 -16 13 -4 17 -16 17 -50 0 -25 12 -91 26 -147 20 -79 27 -135
30 -252 3 -82 9 -203 14 -268 5 -64 14 -126 20 -136 5 -11 10 -30 10 -43 0
-14 9 -42 19 -64 11 -22 25 -69 31 -104 7 -36 14 -74 16 -85 1 -11 8 -54 14
-95 6 -41 12 -163 15 -270 2 -108 1 -200 -3 -206 -4 -6 -23 -14 -42 -16 -19
-3 -75 -13 -125 -21 -49 -9 -175 -31 -280 -48 -104 -18 -210 -35 -235 -40 -25
-4 -99 -17 -165 -29 -66 -11 -146 -25 -177 -30 -31 -4 -81 -13 -110 -19 -29
-6 -87 -17 -128 -25 -41 -9 -140 -27 -220 -41 -80 -14 -172 -32 -205 -40 -33
-7 -103 -21 -155 -30 -52 -9 -122 -23 -155 -31 -33 -7 -96 -20 -140 -28 -44
-9 -147 -30 -230 -49 -82 -19 -168 -38 -190 -42 -22 -5 -42 -8 -45 -8 -3 1
-43 4 -90 7 -47 4 -96 9 -110 11 -14 3 -65 11 -115 19 -49 7 -101 16 -115 20
-14 3 -59 13 -100 20 -41 8 -110 22 -153 30 -44 9 -83 19 -89 22 -5 3 -41 12
-81 19 -40 8 -83 16 -97 19 -14 3 -63 17 -110 31 -47 15 -92 28 -100 30 -8 1
-35 8 -60 15 -25 6 -130 40 -235 75 -104 35 -239 81 -300 103 -60 22 -139 53
-175 67 -36 15 -99 44 -142 65 -42 21 -131 68 -197 105 -67 37 -158 93 -201
126 -44 32 -120 98 -169 147 -49 48 -105 112 -123 142 -19 30 -42 77 -52 103
-13 33 -18 76 -18 136 0 49 3 104 7 122 4 19 25 70 47 115 33 68 59 100 167
210 70 71 141 139 157 151 16 12 40 30 52 40 13 10 36 28 51 39 14 12 68 49
119 83 50 34 95 61 99 61 5 0 33 17 64 39 31 21 67 42 80 46 13 4 31 13 39 20
8 7 78 45 155 83 77 38 167 82 200 97 33 14 74 32 90 39 17 8 62 26 100 41 39
14 99 39 135 55 36 16 85 36 110 45 25 9 62 21 84 26 21 5 51 16 67 24 15 8
39 15 53 15 14 0 28 4 31 10 3 5 25 15 48 21 23 7 49 13 57 15 8 1 38 9 65 17
28 9 84 25 125 37 41 12 100 29 130 36 30 8 66 18 80 23 14 5 29 9 34 10z
m6068 -2121 c68 1 220 -4 338 -13 118 -9 240 -17 270 -20 30 -2 71 -6 90 -9
19 -2 53 -7 75 -10 22 -3 74 -13 115 -22 41 -8 107 -24 145 -35 39 -10 100
-28 137 -38 36 -11 75 -24 85 -29 10 -6 36 -18 58 -28 22 -11 61 -34 86 -52
26 -18 56 -50 67 -71 18 -34 19 -41 7 -58 -8 -10 -15 -25 -15 -34 0 -8 -9 -34
-20 -56 -11 -23 -23 -43 -28 -45 -4 -1 -22 -33 -40 -70 -24 -50 -60 -97 -140
-180 -59 -62 -111 -115 -117 -117 -5 -2 -23 -16 -40 -31 -16 -15 -50 -39 -75
-52 -25 -13 -72 -35 -105 -48 -33 -13 -65 -27 -72 -32 -7 -5 -36 -16 -65 -24
-29 -9 -87 -24 -128 -35 -41 -11 -118 -26 -170 -35 -52 -8 -138 -20 -190 -26
-52 -7 -225 -12 -385 -12 -159 -1 -355 3 -435 7 -80 4 -185 12 -235 17 -49 5
-133 12 -185 15 -52 4 -115 8 -140 11 -25 2 -124 11 -220 20 -96 9 -200 18
-230 19 -30 1 -77 5 -105 8 -27 4 -79 9 -115 12 -36 3 -74 8 -85 10 -11 2 -45
4 -75 4 -30 1 -61 5 -67 9 -7 5 -17 30 -23 58 -6 27 -12 65 -15 84 -3 19 -11
80 -19 135 -8 55 -17 125 -21 155 -3 30 -8 109 -10 175 -3 66 -12 156 -20 199
-8 44 -14 81 -12 82 2 2 26 4 53 5 27 0 63 5 79 9 17 5 57 11 90 14 33 2 87 7
120 11 33 3 84 10 114 15 30 6 85 10 121 10 36 0 92 5 124 11 32 6 118 14 190
19 72 5 151 11 176 14 25 3 122 10 215 15 94 6 202 12 240 14 39 2 162 7 275
11 113 4 206 8 207 9 1 1 57 3 125 5z m-2274 -179 c16 1 25 -7 32 -26 6 -16
15 -37 20 -48 5 -11 12 -36 14 -55 2 -19 7 -51 10 -70 3 -19 8 -105 11 -190 2
-85 9 -173 14 -194 5 -22 8 -43 5 -47 -2 -4 0 -28 6 -54 6 -25 13 -62 17 -83
3 -20 7 -48 7 -62 1 -25 0 -25 -69 -23 -38 1 -106 7 -150 12 -44 6 -192 20
-329 31 -138 12 -253 23 -257 25 -3 3 -7 46 -8 97 -1 50 -4 96 -7 100 -3 5 -8
44 -10 86 -2 42 -4 149 -4 237 0 88 4 163 9 168 4 4 51 12 104 17 53 5 115 14
139 19 24 6 90 15 148 21 58 6 143 17 190 24 47 8 95 14 108 15z m-819 -113
c8 0 16 -12 17 -26 2 -14 5 -90 8 -170 3 -80 8 -215 12 -301 4 -109 3 -159 -5
-163 -6 -4 -83 0 -170 9 -87 8 -194 18 -237 20 -44 3 -140 10 -214 15 -74 5
-182 14 -240 19 -58 6 -112 10 -120 9 -8 -1 -60 1 -115 5 -55 4 -127 12 -160
17 -33 5 -121 12 -195 16 -74 3 -171 10 -215 15 -44 5 -175 18 -290 28 -116
11 -258 25 -315 31 -58 7 -116 14 -130 17 -24 5 -24 5 9 19 18 8 43 14 54 14
11 0 34 4 51 10 17 5 81 18 141 30 61 12 151 30 200 40 50 11 104 22 120 25
17 3 54 10 83 15 28 6 74 14 102 19 27 6 56 13 62 18 7 4 42 11 78 15 36 4 88
12 115 18 28 6 66 13 85 16 19 2 76 11 125 19 50 9 117 22 150 30 33 8 78 17
100 21 22 3 58 10 80 15 22 4 57 9 77 9 20 0 40 5 43 10 3 6 28 10 55 10 27 0
60 4 74 10 14 5 60 14 103 20 43 5 116 17 163 26 47 9 96 17 110 18 14 1 32 5
40 8 8 3 42 10 75 16 33 5 66 9 74 8z m-2589 -512 c47 -3 112 -9 145 -13 33
-5 87 -13 120 -19 33 -6 125 -18 205 -26 80 -8 152 -15 160 -15 8 0 51 -2 95
-6 44 -3 94 -7 110 -9 17 -2 95 -9 175 -15 80 -7 233 -19 340 -27 107 -9 247
-19 310 -24 63 -5 165 -12 225 -15 61 -3 153 -10 205 -15 52 -5 138 -12 190
-15 52 -3 113 -8 135 -10 22 -2 72 -7 110 -10 39 -4 77 -9 86 -11 13 -4 17
-32 23 -182 3 -97 11 -204 16 -237 5 -33 10 -112 10 -175 0 -63 7 -146 14
-184 8 -38 19 -72 24 -75 5 -3 36 -63 70 -132 38 -79 65 -148 71 -185 5 -33 6
-77 1 -99 -4 -22 -13 -53 -19 -70 -7 -16 -33 -73 -58 -125 -25 -52 -49 -104
-54 -115 -5 -11 -15 -40 -24 -65 -8 -25 -15 -56 -15 -70 0 -14 11 -61 25 -105
14 -44 34 -92 45 -107 11 -15 20 -38 20 -50 0 -13 -11 -40 -24 -59 -24 -35
-28 -37 -118 -49 -51 -7 -115 -14 -143 -15 -27 -1 -101 -8 -164 -14 -63 -6
-123 -14 -135 -16 -12 -3 -111 -15 -221 -26 -110 -12 -226 -25 -257 -28 -40
-5 -62 -13 -72 -26 -12 -16 -16 -17 -29 -6 -9 7 -24 10 -34 7 -10 -3 -52 -8
-93 -11 -41 -4 -104 -10 -140 -15 -36 -5 -135 -18 -220 -30 -85 -12 -173 -26
-195 -33 -22 -6 -47 -11 -55 -10 -8 1 -75 -12 -150 -29 -74 -16 -154 -36 -178
-44 -23 -8 -67 -14 -97 -14 -29 0 -87 4 -127 9 -40 6 -107 12 -150 15 -42 3
-82 8 -90 10 -7 3 -49 7 -93 10 -44 3 -102 8 -130 11 -27 3 -61 8 -75 11 -14
3 -68 12 -120 19 -52 8 -98 11 -102 9 -4 -3 -16 -1 -25 4 -10 6 -40 12 -68 15
-27 3 -77 10 -110 17 -33 6 -85 18 -115 25 -30 8 -102 26 -160 40 -58 14 -143
37 -190 51 -47 14 -94 30 -105 35 -11 4 -45 18 -75 31 -30 12 -73 33 -95 45
-22 12 -59 32 -83 44 -23 12 -45 25 -48 30 -3 5 -14 9 -25 9 -11 0 -24 11 -31
25 -6 14 -17 25 -23 25 -7 0 -49 39 -93 88 -45 48 -94 105 -109 128 -15 22
-33 49 -40 60 -7 10 -26 47 -43 82 -16 34 -30 67 -30 73 0 7 -11 41 -23 78
-13 36 -25 90 -26 120 -1 30 -6 75 -11 100 -5 25 -7 80 -4 121 2 41 9 120 14
176 8 77 19 120 45 183 20 46 44 95 55 108 11 14 20 29 20 33 0 4 43 52 95
107 52 55 123 119 157 143 35 24 85 59 113 77 27 18 57 33 66 33 9 0 28 9 42
20 14 11 30 20 36 20 6 0 53 20 104 45 52 25 100 45 108 45 8 0 19 4 24 9 6 4
64 27 130 50 66 22 135 41 153 41 20 0 35 6 38 15 3 8 22 17 42 21 21 3 66 13
102 21 36 8 90 23 120 33 30 11 75 22 100 26 25 3 54 12 65 19 11 7 38 15 60
19 22 4 63 11 90 15 28 5 66 14 85 20 19 6 73 8 120 5z m4019 -2298 c108 -3
248 -7 311 -10 63 -4 140 -11 170 -17 30 -6 86 -20 124 -32 38 -11 76 -21 85
-22 9 -1 32 -11 51 -23 19 -12 40 -22 47 -22 6 0 25 -21 43 -47 22 -35 29 -55
25 -73 -4 -14 -13 -35 -20 -46 -8 -12 -33 -37 -57 -56 -24 -19 -61 -41 -83
-50 -22 -8 -62 -22 -90 -31 -27 -8 -69 -18 -92 -21 -23 -3 -113 -9 -200 -12
-88 -3 -258 -1 -379 5 -120 7 -259 14 -309 16 -49 2 -160 7 -245 10 -85 3
-204 8 -263 10 -62 3 -119 11 -135 19 -15 7 -52 19 -82 26 -30 6 -68 18 -83
26 -16 8 -35 14 -42 14 -8 0 -35 11 -62 25 -26 14 -58 35 -70 47 -13 12 -23
32 -23 45 0 14 22 46 60 86 33 35 65 64 72 65 7 1 42 4 78 7 36 4 81 6 100 6
19 0 67 4 105 9 39 6 159 14 267 20 109 5 264 13 345 16 82 3 150 8 152 10 2
2 92 2 200 0z m-1421 -87 c16 1 21 -3 16 -11 -4 -7 -15 -18 -25 -25 -9 -7 -24
-29 -34 -49 -12 -25 -15 -47 -10 -72 4 -20 12 -44 19 -54 7 -10 29 -29 50 -43
20 -13 50 -32 67 -41 17 -8 28 -18 25 -21 -3 -4 -176 -5 -384 -4 -207 1 -408
4 -447 7 -38 2 -171 6 -295 9 -124 2 -304 9 -400 14 -96 5 -195 8 -218 7 -24
0 -46 2 -49 7 -2 4 -45 7 -94 7 -67 0 -90 3 -87 12 3 7 20 16 39 21 19 5 66
12 104 17 39 4 90 13 114 20 24 6 80 15 125 20 44 5 128 16 186 25 58 9 119
18 135 20 17 2 59 6 95 10 36 4 70 10 75 13 6 4 24 7 40 8 17 1 56 5 87 8 31
3 94 10 140 17 46 6 94 11 107 10 12 0 28 2 35 6 6 4 25 8 41 9 17 0 55 4 85
7 30 4 105 12 165 18 61 6 146 15 190 19 44 4 90 8 103 9z m-2308 -299 c6 0
10 -2 10 -4 0 -3 -4 -8 -10 -11 -5 -3 -10 -1 -10 4 0 6 5 11 10 11z m230 -15
c3 -2 66 -6 140 -9 74 -4 142 -9 150 -11 8 -2 94 -7 190 -10 96 -4 177 -8 180
-10 3 -2 82 -6 175 -9 94 -3 238 -8 320 -11 83 -3 267 -8 410 -11 143 -3 346
-8 450 -10 105 -2 245 -5 312 -7 67 -2 125 -6 129 -10 4 -3 4 -13 1 -21 -3 -8
-35 -36 -71 -63 -36 -26 -81 -58 -101 -70 -24 -15 -58 -24 -107 -28 -40 -3
-102 -8 -138 -10 -36 -2 -132 -6 -215 -10 -82 -3 -240 -8 -350 -10 -110 -2
-247 -7 -305 -10 -58 -3 -152 -10 -209 -16 -78 -8 -108 -15 -118 -27 -7 -9
-12 -33 -10 -52 l2 -35 65 -1 c36 -1 88 2 115 6 28 5 138 11 245 14 107 4 240
9 295 12 55 3 135 7 179 9 43 2 124 7 180 10 100 7 101 7 76 -11 -14 -11 -50
-32 -80 -47 -30 -16 -63 -36 -72 -44 -10 -9 -18 -28 -18 -43 0 -19 14 -40 51
-75 28 -27 59 -49 68 -50 9 -1 36 -5 61 -9 25 -4 95 -9 155 -11 61 -2 148 -10
195 -18 47 -8 110 -23 140 -33 30 -9 61 -19 69 -20 7 -1 17 -6 22 -11 5 -5 -1
-23 -14 -41 -12 -17 -27 -34 -34 -36 -7 -3 -52 2 -100 10 -55 10 -110 13 -148
9 -33 -4 -93 -8 -134 -10 -40 -2 -76 -6 -79 -9 -3 -3 -30 -6 -61 -6 -31 -1
-85 -5 -121 -10 -36 -5 -119 -16 -185 -25 -66 -9 -129 -17 -140 -16 -11 0 -45
-8 -75 -18 -50 -16 -55 -21 -58 -49 -2 -18 1 -32 7 -32 6 0 11 -5 11 -10 0 -6
-10 -10 -22 -8 -13 1 -49 -1 -80 -5 -32 -5 -60 -13 -63 -18 -4 -5 -15 -9 -27
-9 -11 0 -38 -18 -60 -40 -31 -31 -38 -44 -33 -62 4 -13 12 -28 19 -35 6 -7
61 -37 121 -68 61 -31 124 -58 140 -61 17 -2 64 -13 105 -24 l75 -21 -95 5
c-52 3 -156 10 -230 16 -74 7 -153 17 -175 22 -22 6 -60 12 -85 14 -25 1 -52
4 -60 7 -8 3 -40 12 -70 21 -30 8 -78 17 -106 19 -29 3 -60 9 -70 15 -11 5
-57 17 -104 26 -47 10 -89 21 -94 26 -5 5 -15 6 -22 3 -8 -3 -20 -1 -27 4 -6
6 -27 13 -45 17 -19 3 -48 12 -65 19 -18 8 -72 26 -122 41 -49 15 -100 32
-113 37 -13 5 -29 9 -36 9 -8 0 -57 20 -109 45 -53 25 -101 45 -107 45 -7 0
-24 7 -38 14 -15 8 -43 21 -62 29 -19 8 -51 22 -72 31 -20 9 -41 16 -46 16 -6
0 -27 9 -49 20 -21 10 -69 34 -108 53 -38 18 -95 42 -125 52 -30 11 -64 25
-75 32 -11 7 -27 13 -36 13 -9 0 -24 9 -33 19 -10 11 -41 29 -69 41 -29 13
-62 30 -73 39 -12 9 -32 23 -44 31 -12 8 -29 21 -36 28 -8 7 -14 25 -14 38 0
14 10 35 23 47 12 12 45 38 72 57 28 19 70 45 95 58 24 13 54 34 67 46 12 12
42 29 65 36 24 8 54 22 67 32 13 10 30 18 38 18 7 0 37 13 66 29 28 16 120 60
202 97 83 37 182 75 220 85 39 9 72 15 75 14z m2654 -89 c28 -4 119 -9 201
-11 83 -3 197 -7 255 -10 58 -3 132 -7 165 -9 33 -2 115 -7 183 -11 67 -4 120
-10 118 -12 -3 -3 -40 -5 -83 -5 -43 0 -120 -7 -172 -15 -52 -7 -100 -18 -107
-24 -9 -7 -25 -7 -52 2 -30 8 -44 9 -61 0 -12 -7 -47 -14 -79 -17 -31 -3 -93
-9 -137 -14 -44 -5 -152 -18 -240 -29 -88 -10 -173 -17 -188 -14 l-27 5 28 22
c15 11 45 41 67 65 22 24 48 53 59 64 15 16 26 18 70 13z m-272 -816 c4 0 8
-4 8 -9 0 -5 -8 -11 -17 -14 -10 -4 -36 -13 -58 -21 -22 -9 -50 -16 -62 -16
-12 0 -25 -4 -28 -10 -3 -5 -27 -10 -53 -9 -26 0 -74 0 -107 -1 -33 0 -76 -6
-95 -12 -19 -7 -71 -13 -115 -14 -44 0 -102 -4 -130 -7 -27 -4 -64 -9 -82 -11
-21 -2 -37 1 -44 11 -10 12 -10 16 2 24 8 5 25 9 39 9 14 0 66 7 115 16 50 9
99 20 110 24 11 5 72 11 135 14 63 3 171 9 240 12 69 4 127 8 129 10 2 2 8 4
13 4z m126 -40 c6 0 12 -8 12 -18 0 -10 -3 -21 -6 -25 -3 -3 -19 -1 -36 5
l-31 11 24 13 c13 7 30 13 37 14z m-135 -102 c53 -1 97 -4 97 -8 0 -3 -21 -18
-47 -32 -27 -14 -66 -35 -88 -46 -22 -11 -58 -28 -80 -37 -22 -10 -64 -23 -93
-31 -29 -8 -63 -14 -75 -14 -13 0 -27 -4 -32 -9 -6 -5 -28 -12 -50 -14 -22 -2
-47 -7 -55 -10 -8 -3 -35 -10 -60 -14 -25 -5 -101 -9 -170 -9 -69 1 -152 7
-185 15 -33 7 -71 19 -85 26 -14 7 -51 26 -82 41 -45 23 -54 30 -39 36 10 3
34 9 52 12 19 4 61 11 94 16 33 5 150 12 260 15 110 3 216 7 235 9 19 3 86 12
148 21 62 9 123 20 135 25 12 5 66 8 120 8z m222 -20 c12 1 45 -4 76 -12 30
-8 77 -26 105 -40 32 -16 59 -40 77 -67 15 -23 27 -49 25 -58 -2 -11 -23 -19
-73 -28 -39 -6 -106 -17 -150 -23 -44 -7 -91 -14 -105 -16 -14 -1 -56 -6 -95
-11 -38 -4 -77 -6 -85 -5 -8 1 -62 -5 -120 -13 -58 -8 -170 -19 -250 -25 -80
-6 -178 -9 -217 -8 -40 2 -73 7 -73 11 0 4 15 7 33 6 17 0 66 4 107 9 41 6
131 22 200 36 69 14 159 36 200 49 41 14 111 43 155 66 44 22 100 60 125 84
25 24 54 45 65 45z"/>
<g>
<path d="M3780 7155 c-52 3 -83 0 -100 -10 -14 -7 -37 -26 -51 -42 -15 -15
-32 -50 -38 -77 -10 -42 -10 -51 6 -74 10 -14 25 -37 34 -51 8 -14 30 -34 49
-45 18 -11 54 -23 79 -27 25 -4 62 -3 81 2 20 5 48 21 62 36 14 16 29 39 34
53 4 14 8 28 9 32 0 3 3 10 8 14 4 4 7 24 7 45 0 29 -9 48 -37 83 -21 24 -45
47 -53 51 -8 3 -48 8 -90 10z"/>
</g>
</g>
<g>
<path d="M9225 7264 c-38 2 -79 2 -90 -2 -11 -4 -34 -16 -52 -26 -17 -11 -36
-30 -42 -43 -6 -13 -11 -35 -11 -48 0 -13 8 -40 17 -60 9 -19 35 -47 57 -62
32 -22 52 -28 92 -27 31 0 63 7 83 19 18 11 40 34 48 50 9 17 20 38 25 47 4
10 8 30 8 45 0 17 -13 43 -33 65 -30 34 -37 37 -102 42z"/>
</g>
<g>
<path d="M335 7070 c-8 0 -15 -4 -15 -10 0 -5 7 -10 15 -10 8 0 15 5 15 10 0
6 -7 10 -15 10z"/>
</g>
<g>
<path d="M1294 3589 c-11 0 -14 -3 -6 -6 7 -3 16 -2 19 1 4 3 -2 6 -13 5z"/>
</g>
<g>
<path d="M7147 740 c-2 0 -7 -3 -10 -7 -4 -3 -7 -15 -7 -25 0 -10 5 -18 10
-18 6 0 10 11 10 25 0 14 -1 25 -3 25z"/>
</g>
</g>
</svg>
