<?xml version="1.0" standalone="no"?>
<!DOCTYPE svg PUBLIC "-//W3C//DTD SVG 20010904//EN"
 "http://www.w3.org/TR/2001/REC-SVG-20010904/DTD/svg10.dtd">
<svg version="1.0" xmlns="http://www.w3.org/2000/svg"
 width="1200.000000pt" height="857.000000pt" viewBox="0 0 1200.000000 857.000000"
 preserveAspectRatio="xMidYMid meet">
<metadata>
Created by potrace 1.16, written by Peter Selinger 2001-2019
</metadata>
<g transform="translate(0.000000,857.000000) scale(0.100000,-0.100000)"
fill="#000000" stroke="none">
<g>
<path d="M6280 7445 c-276 4 -348 1 -575 -20 -143 -13 -327 -34 -410 -45 -82
-12 -213 -35 -290 -52 -77 -16 -178 -38 -225 -48 -47 -10 -168 -39 -270 -64
-102 -25 -223 -57 -270 -71 -47 -14 -123 -39 -170 -54 -47 -16 -150 -52 -230
-80 -80 -28 -203 -78 -275 -109 -71 -32 -164 -80 -205 -107 -41 -26 -102 -69
-135 -94 -32 -25 -98 -84 -146 -132 -48 -48 -102 -113 -119 -144 -17 -31 -38
-75 -46 -98 -9 -23 -20 -67 -25 -97 -6 -30 -13 -233 -17 -450 -3 -217 -5 -669
-4 -1005 1 -335 6 -686 12 -780 6 -93 15 -195 20 -225 6 -30 17 -108 24 -172
8 -65 17 -126 21 -137 5 -17 -2 -19 -67 -25 -40 -3 -156 -8 -258 -11 -102 -3
-232 -10 -290 -16 -58 -5 -130 -11 -160 -14 -30 -2 -113 -8 -185 -14 -71 -6
-188 -16 -260 -22 -71 -6 -170 -15 -218 -19 l-88 -9 -75 59 c-42 33 -85 65
-97 71 -12 7 -53 35 -92 64 -38 28 -125 81 -191 118 -67 37 -124 67 -127 67
-3 0 -28 13 -54 28 -26 15 -67 35 -91 44 -24 9 -50 14 -58 11 -8 -3 -14 -16
-14 -30 0 -20 9 -28 53 -46 28 -12 104 -48 167 -80 63 -33 156 -83 205 -113
50 -30 128 -81 175 -114 47 -32 93 -66 104 -74 17 -14 17 -15 -15 -21 -19 -3
-162 -7 -319 -8 l-285 -2 -3 -27 c-2 -19 3 -30 19 -39 17 -9 76 -10 229 -5
113 3 262 11 332 17 l127 11 38 -28 c21 -16 72 -56 115 -89 42 -33 96 -74 120
-91 24 -17 89 -64 146 -105 56 -41 138 -99 181 -129 43 -30 107 -75 142 -99
35 -25 80 -57 99 -71 19 -15 78 -60 130 -101 52 -41 100 -77 105 -81 6 -4 24
-18 40 -31 17 -13 89 -63 160 -113 72 -49 141 -97 155 -107 14 -9 75 -50 135
-90 61 -41 124 -82 142 -93 17 -10 125 -75 238 -144 114 -68 203 -126 197
-128 -6 -2 -82 -18 -169 -36 -87 -19 -288 -64 -448 -100 -159 -37 -317 -73
-350 -81 -33 -8 -87 -21 -120 -29 -33 -8 -105 -27 -160 -41 -55 -15 -136 -33
-180 -41 -44 -8 -96 -14 -115 -14 -20 0 -46 -7 -58 -16 -12 -8 -22 -24 -22
-35 0 -11 7 -22 15 -25 8 -3 61 2 117 11 57 9 195 41 308 71 113 30 268 67
345 83 77 17 230 53 340 80 110 28 234 57 275 65 41 8 117 24 169 35 52 12
108 21 124 21 20 0 64 -21 126 -61 53 -34 112 -72 131 -84 19 -12 51 -31 70
-43 19 -11 53 -30 75 -42 22 -12 105 -59 185 -105 80 -45 190 -108 245 -139
55 -32 150 -91 210 -131 61 -41 137 -93 170 -115 33 -23 87 -59 121 -80 34
-21 97 -57 140 -80 43 -23 114 -60 158 -81 65 -33 81 -38 95 -27 9 7 17 13 19
14 1 1 -3 13 -9 28 -7 15 -20 26 -32 26 -10 0 -79 31 -152 70 -73 38 -154 83
-181 99 -27 17 -65 40 -84 51 -19 11 -60 37 -91 58 -31 20 -115 76 -185 123
-71 47 -142 94 -159 105 -16 10 -39 24 -50 31 -11 6 -40 21 -65 32 -25 11 -52
25 -60 31 -8 5 -35 21 -60 35 -25 14 -67 39 -95 55 -27 16 -76 43 -109 60 -32
18 -95 55 -140 84 -44 29 -96 61 -114 72 -18 10 -31 23 -29 29 2 5 35 15 73
22 38 7 119 21 179 32 61 11 162 27 225 36 63 8 201 26 305 41 105 14 228 29
275 34 47 4 186 22 310 39 124 17 261 36 305 41 44 6 130 19 190 30 61 10 164
26 230 34 66 9 185 21 265 26 80 6 179 14 220 20 41 5 154 19 250 30 96 11
225 24 285 30 61 6 148 16 195 21 47 5 157 19 245 29 88 11 196 24 240 30 44
5 143 17 220 25 77 9 160 18 185 21 25 3 137 16 250 30 113 13 212 26 220 29
8 2 40 6 70 9 30 3 109 10 175 16 66 5 267 19 446 30 180 11 342 23 360 25 19
2 106 11 194 20 88 9 196 20 240 25 44 5 118 12 165 15 47 4 112 11 145 16 33
5 69 9 81 9 11 0 52 -24 90 -53 38 -29 101 -75 139 -102 39 -27 117 -87 174
-134 57 -47 119 -98 139 -113 19 -15 54 -45 76 -66 23 -21 71 -62 107 -92 36
-30 105 -82 153 -115 48 -33 122 -84 164 -113 44 -30 85 -52 97 -50 11 2 21
11 23 21 2 11 -15 34 -45 62 -26 24 -57 44 -69 45 -11 0 -56 26 -100 58 -43
31 -97 69 -120 85 -22 15 -65 48 -95 73 -30 25 -70 60 -89 78 -19 18 -66 58
-105 89 -38 31 -102 82 -141 114 -39 32 -124 96 -188 143 -64 46 -112 88 -108
92 4 4 41 12 82 18 46 6 144 8 255 4 162 -6 182 -5 194 10 13 15 12 20 -6 37
-19 19 -36 21 -200 25 -164 4 -190 2 -294 -20 l-114 -25 -51 37 c-28 20 -94
69 -145 107 -52 39 -152 111 -224 160 -71 48 -156 107 -187 129 -31 23 -103
74 -160 113 -57 40 -155 108 -218 150 -63 42 -180 126 -260 186 -80 59 -156
117 -170 128 -14 11 -60 45 -102 77 -43 32 -78 66 -80 77 -2 11 0 53 4 94 4
40 10 77 15 82 5 5 108 14 228 20 121 6 274 8 340 5 66 -3 224 -10 350 -16
127 -6 245 -12 264 -15 19 -2 42 0 52 6 11 5 19 18 19 29 0 11 -9 24 -19 30
-11 5 -77 10 -148 10 -70 0 -198 5 -283 11 -85 5 -216 10 -290 9 -74 0 -220
-3 -324 -6 l-189 -7 7 75 c3 41 13 169 21 284 8 115 26 360 40 544 19 250 27
438 31 740 3 265 10 445 19 522 8 64 15 135 15 157 0 23 -4 41 -10 41 -5 0
-20 36 -34 79 -14 44 -40 117 -57 163 -18 46 -44 99 -58 118 -14 19 -73 84
-131 144 -58 59 -140 137 -184 172 -43 35 -110 79 -150 98 -39 18 -136 54
-216 78 -80 25 -183 55 -230 68 -47 13 -89 26 -95 30 -5 4 -32 13 -60 19 -27
7 -120 25 -205 41 -85 15 -227 35 -315 44 -88 9 -230 21 -315 27 -85 5 -168
12 -185 15 -16 3 -172 7 -345 9z m-45 -61 c132 -2 337 -10 455 -19 118 -8 285
-22 370 -30 85 -9 200 -22 255 -31 55 -8 132 -21 170 -29 39 -8 88 -18 110
-23 22 -5 60 -16 85 -25 25 -8 95 -29 155 -46 61 -17 142 -40 180 -52 39 -11
97 -31 130 -45 33 -13 91 -43 130 -66 48 -29 118 -90 226 -198 128 -127 162
-167 187 -220 17 -36 44 -108 60 -160 16 -52 35 -118 42 -146 11 -44 10 -63
-9 -158 -12 -60 -42 -161 -68 -225 -25 -65 -66 -145 -92 -181 -25 -36 -88
-108 -141 -160 -52 -53 -128 -118 -167 -144 -40 -27 -106 -64 -145 -84 -40
-19 -93 -44 -118 -54 -25 -11 -93 -37 -151 -58 -59 -21 -153 -48 -210 -59 -57
-12 -124 -26 -147 -31 -24 -6 -98 -17 -165 -25 -67 -8 -174 -21 -237 -30 -82
-11 -199 -15 -410 -15 -162 0 -349 -4 -415 -10 -66 -5 -221 -12 -345 -15 -163
-4 -237 -10 -270 -21 -25 -9 -67 -18 -95 -21 -27 -3 -54 -9 -60 -13 -5 -4 -93
-13 -195 -20 -102 -7 -257 -13 -345 -12 -88 0 -209 6 -270 11 -60 6 -153 16
-205 21 -52 6 -138 17 -190 24 -52 8 -135 21 -185 30 -49 9 -130 25 -180 37
-49 11 -119 29 -155 41 -36 12 -117 43 -180 69 -63 26 -153 67 -200 91 -47 24
-121 68 -165 100 -44 31 -114 91 -156 135 -42 43 -92 107 -111 143 -20 36 -43
88 -52 115 -13 42 -15 86 -12 260 2 116 9 224 14 242 6 17 24 56 40 87 17 30
39 63 49 74 10 11 38 43 63 72 25 28 77 77 115 109 39 31 103 79 144 105 41
27 116 68 165 91 50 22 107 47 126 55 19 7 62 25 96 40 33 15 75 31 94 35 19
4 41 11 50 16 8 5 87 33 175 62 88 29 198 63 245 74 47 12 173 43 280 71 108
27 214 52 236 55 23 3 70 13 105 21 35 8 96 22 134 30 39 8 95 19 125 25 30 5
93 15 140 21 47 6 137 15 200 21 63 5 133 12 155 16 22 3 99 11 170 19 84 8
215 11 370 8z m2543 -1488 c4 -2 7 -153 6 -334 -1 -181 -4 -334 -7 -339 -3 -5
-7 -45 -8 -89 0 -43 -5 -115 -10 -159 -4 -44 -11 -116 -14 -160 -2 -44 -7
-111 -10 -150 -3 -38 -7 -104 -10 -145 -2 -41 -11 -176 -20 -300 -9 -124 -18
-230 -20 -236 -2 -7 -51 -14 -132 -19 -70 -3 -143 -9 -161 -11 -25 -4 -51 5
-115 39 -45 25 -193 101 -329 171 -136 69 -253 126 -260 126 -7 1 -31 9 -53
20 -22 11 -53 19 -68 20 -17 0 -30 -7 -34 -16 -3 -9 -2 -23 3 -32 5 -8 55 -31
109 -51 55 -21 196 -86 313 -147 117 -60 222 -114 234 -121 20 -11 19 -12 -13
-17 -19 -3 -81 -8 -139 -11 -58 -3 -143 -10 -190 -15 -47 -5 -229 -18 -405
-29 -176 -11 -371 -21 -432 -22 -62 -2 -115 -1 -117 2 -2 2 -11 144 -20 314
-9 171 -19 422 -23 558 -5 198 -4 251 7 257 7 4 54 8 104 9 51 1 128 6 172 12
43 5 117 14 164 19 47 6 150 21 230 35 80 13 172 32 205 40 33 9 104 29 157
46 54 17 100 34 103 40 4 5 14 9 25 9 10 0 77 29 149 65 72 36 135 65 140 65
5 0 11 4 13 8 2 4 39 35 83 69 44 33 91 71 105 84 14 13 50 53 80 89 31 36 68
81 82 101 14 19 42 67 62 106 20 39 36 78 36 87 0 10 4 15 8 12z m-5843 -246
c2 0 22 -28 45 -62 23 -35 65 -87 94 -116 28 -29 92 -83 141 -120 50 -37 104
-74 120 -82 17 -8 59 -31 95 -51 36 -20 88 -44 115 -54 28 -10 55 -22 60 -25
6 -4 42 -18 80 -32 39 -14 102 -35 140 -47 39 -12 118 -32 176 -46 59 -14 118
-25 132 -25 13 0 55 -6 93 -14 38 -8 110 -20 159 -26 50 -7 151 -18 225 -26
74 -8 225 -17 335 -20 l200 -7 -2 -151 c-2 -83 -8 -227 -14 -321 -6 -93 -17
-215 -24 -270 -8 -55 -21 -131 -29 -170 -9 -38 -16 -89 -16 -111 0 -23 -3 -55
-6 -72 -6 -29 -9 -31 -63 -37 -31 -3 -153 -19 -271 -35 -118 -17 -256 -37
-306 -45 -49 -7 -135 -23 -190 -35 -54 -12 -117 -23 -139 -26 -22 -3 -53 -9
-70 -14 -16 -5 -172 -36 -345 -69 -173 -33 -344 -65 -380 -70 -36 -6 -115 -13
-176 -17 l-112 -7 -6 29 c-3 16 -8 56 -11 89 -3 33 -13 105 -21 160 -9 55 -18
111 -20 125 -2 14 -8 77 -13 140 -6 63 -13 273 -17 465 -3 193 -6 411 -6 487
1 75 6 223 11 330 6 106 11 235 12 286 1 50 3 92 4 92z m3654 -646 c101 -1
185 -5 188 -8 3 -3 9 -40 13 -83 5 -43 12 -190 15 -328 4 -137 12 -356 20
-485 7 -129 12 -236 11 -237 0 0 -75 -6 -166 -12 -91 -6 -221 -13 -290 -16
-69 -2 -192 -9 -275 -15 -82 -5 -247 -14 -365 -19 -118 -5 -310 -13 -426 -16
l-211 -6 3 23 c1 13 8 64 14 113 7 50 18 126 26 170 8 44 19 123 25 175 6 52
15 190 20 305 6 116 13 240 15 278 3 37 9 65 12 63 4 -2 59 0 122 5 63 4 176
13 250 19 74 5 173 15 220 21 47 6 112 17 145 25 35 8 121 14 205 15 80 0 168
4 195 9 28 4 133 6 234 4z m2004 -1105 l77 1 -1 -32 c0 -18 -4 -52 -7 -76 l-7
-42 -51 37 c-28 21 -70 52 -93 70 -39 29 -40 32 -19 36 13 2 58 5 101 6z
m-291 -11 c29 2 54 -8 110 -42 40 -25 111 -73 157 -108 l84 -63 4 -195 c2
-107 -2 -257 -7 -333 -6 -76 -8 -147 -5 -157 5 -15 15 -20 44 -20 21 0 69 -13
107 -28 38 -16 94 -41 125 -55 31 -15 64 -27 73 -27 10 0 43 -7 74 -16 32 -8
71 -22 88 -29 16 -8 40 -12 52 -8 12 3 22 11 22 18 0 7 -8 23 -18 35 -10 12
-37 26 -62 31 -25 6 -61 14 -80 19 -19 5 -51 13 -70 18 -20 5 -67 24 -105 42
-39 18 -81 38 -95 45 -14 7 -39 16 -57 20 -18 3 -35 14 -38 25 -3 10 -2 35 3
57 5 22 7 144 5 271 -4 188 -2 232 9 232 7 0 72 -44 143 -98 72 -53 173 -128
225 -167 52 -38 113 -82 135 -98 22 -15 112 -76 200 -134 88 -58 181 -123 206
-145 26 -21 51 -38 55 -38 5 0 28 -15 51 -33 23 -17 68 -50 99 -72 32 -22 101
-69 154 -105 52 -36 128 -89 168 -119 51 -38 69 -57 60 -62 -8 -4 -68 -12
-133 -18 -66 -6 -190 -17 -275 -25 -85 -8 -195 -20 -245 -26 -49 -6 -108 -12
-130 -15 -22 -2 -137 -8 -255 -14 -118 -6 -253 -16 -300 -21 -47 -5 -125 -12
-175 -15 -49 -4 -108 -8 -130 -11 -22 -2 -76 -8 -120 -14 -44 -5 -147 -19
-230 -30 -82 -11 -213 -27 -290 -35 -77 -8 -156 -17 -175 -20 -19 -3 -93 -11
-165 -19 -71 -8 -152 -18 -180 -21 -27 -3 -70 -8 -95 -11 -25 -2 -88 -11 -140
-19 -52 -8 -117 -16 -145 -19 -27 -2 -81 -7 -120 -11 -38 -4 -88 -8 -110 -9
-22 -2 -67 -7 -100 -10 -33 -4 -89 -11 -125 -16 -36 -5 -98 -12 -139 -16 -41
-3 -84 -8 -95 -10 -12 -2 -68 -8 -126 -14 -58 -5 -161 -14 -230 -20 -69 -6
-150 -15 -180 -20 -30 -5 -118 -19 -195 -30 -77 -11 -165 -25 -195 -31 -30 -5
-109 -16 -175 -24 -66 -8 -167 -21 -225 -29 -58 -9 -179 -25 -270 -37 -91 -11
-199 -25 -240 -30 -41 -4 -142 -17 -225 -28 -82 -11 -188 -27 -235 -36 -47 -9
-114 -20 -150 -25 -36 -5 -98 -16 -138 -25 -40 -8 -83 -15 -96 -15 -12 0 -62
25 -111 56 -48 30 -104 64 -124 75 -20 10 -45 25 -56 32 -10 6 -53 34 -94 60
-41 27 -91 57 -110 68 -20 10 -88 54 -152 96 -64 43 -142 96 -175 118 -32 22
-65 45 -72 50 -7 6 -18 15 -25 20 -7 6 -43 32 -82 57 -38 26 -111 78 -162 115
-50 37 -133 100 -185 139 -51 38 -122 91 -158 117 -36 25 -78 55 -95 67 -16
11 -70 49 -120 85 -49 35 -94 68 -100 72 -5 5 -50 37 -100 73 -49 35 -104 75
-122 89 -17 14 -52 41 -77 60 -26 19 -44 36 -41 39 3 3 56 11 118 18 61 7 148
13 192 13 44 1 139 8 210 16 72 8 189 19 260 25 72 5 249 15 394 20 145 6 266
8 269 6 2 -3 6 -116 8 -252 2 -190 6 -249 16 -255 7 -4 58 -19 113 -34 55 -15
127 -36 160 -47 33 -11 107 -42 165 -70 58 -28 122 -57 144 -64 21 -8 63 -28
93 -45 38 -22 61 -29 78 -25 14 4 25 11 25 17 0 6 -4 18 -9 28 -5 9 -42 33
-83 53 -40 20 -136 65 -213 101 -77 35 -160 71 -185 80 -25 9 -87 28 -138 43
-53 16 -97 34 -101 43 -4 9 -8 88 -9 176 -1 88 -4 181 -7 206 -4 26 -3 49 2
52 5 3 65 11 133 17 69 6 193 22 275 36 83 13 186 33 230 43 44 11 118 27 165
36 47 10 105 21 130 26 25 4 106 19 180 33 74 14 196 36 270 49 74 14 167 30
205 36 39 6 88 13 110 16 22 3 92 12 155 20 63 8 129 15 146 15 l30 0 -12 -97
c-6 -54 -13 -235 -15 -402 l-4 -305 85 -21 c47 -12 119 -33 160 -47 41 -14
100 -31 130 -38 30 -6 79 -21 109 -31 45 -17 57 -18 67 -7 9 9 11 23 6 43 -6
22 -16 32 -38 37 -16 3 -65 14 -109 24 -44 10 -118 30 -165 44 -47 15 -105 36
-130 46 -25 9 -48 22 -52 28 -4 6 -5 119 -3 251 3 132 10 292 16 355 6 63 13
118 15 121 2 3 45 9 96 12 51 4 176 9 278 12 102 3 223 7 270 10 47 3 193 12
325 20 132 8 341 19 465 25 124 6 244 13 266 16 23 3 44 2 47 -3 3 -5 13 -146
22 -313 9 -168 16 -325 16 -350 0 -25 5 -84 11 -132 9 -64 16 -89 27 -92 9 -3
57 -10 106 -17 60 -8 116 -23 168 -46 43 -19 88 -33 100 -31 16 2 22 10 22 28
0 20 -11 30 -70 59 -44 21 -110 41 -178 55 -75 14 -109 25 -112 36 -3 9 -7 61
-10 115 -3 55 -9 168 -15 250 -5 83 -12 198 -14 256 -3 58 -8 124 -12 146 l-6
40 143 7 c79 4 279 16 444 26 165 11 381 26 480 35 99 8 207 16 240 18 33 2
77 4 97 5z"/>
<g>
<path d="M7278 6768 c-25 2 -42 -4 -61 -22 -18 -17 -27 -35 -27 -55 0 -22 9
-37 33 -55 19 -15 45 -26 59 -26 14 0 37 12 52 26 14 15 26 37 26 50 0 12 -11
35 -24 51 -17 20 -35 30 -58 31z"/>
</g>
<g>
<path d="M4573 6630 c-22 0 -38 -8 -52 -26 -13 -16 -21 -41 -21 -64 0 -25 7
-43 23 -58 13 -13 36 -22 53 -22 16 0 36 6 44 13 8 7 21 22 28 35 6 12 12 32
12 45 0 13 -13 35 -28 50 -18 18 -39 27 -59 27z"/>
</g>
<g>
<path d="M6313 6439 c-37 0 -84 -5 -103 -12 -23 -8 -36 -19 -38 -33 -2 -14 3
-23 17 -27 10 -2 39 -1 63 4 23 4 59 8 80 9 28 0 42 -6 62 -30 14 -17 28 -46
32 -65 3 -19 4 -45 0 -58 -3 -13 -20 -30 -38 -39 -18 -8 -57 -21 -86 -29 -42
-10 -60 -11 -84 -1 -25 9 -34 9 -40 -1 -4 -6 -8 -24 -8 -39 0 -20 5 -28 18
-28 9 0 46 5 80 10 35 5 88 16 118 26 34 10 64 28 79 46 18 22 25 41 25 74 0
29 -10 64 -29 103 -16 32 -41 65 -55 74 -18 12 -46 17 -93 16z"/>
</g>
<g>
<path d="M7146 5718 c-12 0 -79 -4 -151 -8 -71 -4 -276 -10 -455 -14 -179 -4
-557 -9 -840 -11 -283 -3 -528 -6 -545 -9 -16 -2 -35 -5 -41 -5 -7 -1 -15 -9
-19 -18 -4 -12 1 -24 15 -35 14 -11 32 -15 53 -12 18 3 84 9 147 14 63 6 435
12 825 16 391 3 789 8 885 12 162 6 175 8 178 26 3 11 -4 26 -14 33 -10 7 -27
12 -38 11z"/>
</g>
</g>
</g>
</svg>
