<?xml version="1.0" standalone="no"?>
<!DOCTYPE svg PUBLIC "-//W3C//DTD SVG 20010904//EN"
 "http://www.w3.org/TR/2001/REC-SVG-20010904/DTD/svg10.dtd">
<svg version="1.0" xmlns="http://www.w3.org/2000/svg"
 width="900.000000pt" height="1200.000000pt" viewBox="0 0 900.000000 1200.000000"
 preserveAspectRatio="xMidYMid meet">
<metadata>
Created by potrace 1.16, written by Peter Selinger 2001-2019
</metadata>
<g transform="translate(0.000000,1200.000000) scale(0.100000,-0.100000)"
fill="#000000" stroke="none">
<g>
<path d="M5340 11412 c-58 2 -159 0 -225 -4 -66 -4 -138 -11 -160 -17 -22 -5
-62 -15 -90 -20 -27 -6 -70 -13 -95 -17 -25 -5 -47 -8 -50 -9 -3 -1 -18 -5
-35 -9 -16 -5 -95 -28 -175 -53 -80 -25 -185 -61 -235 -80 -49 -19 -109 -43
-132 -54 -24 -10 -46 -19 -49 -19 -4 0 -36 -14 -73 -31 -36 -17 -84 -40 -106
-50 -22 -10 -51 -25 -65 -33 -14 -8 -52 -28 -85 -44 -33 -16 -80 -41 -105 -54
-25 -14 -83 -47 -129 -74 -46 -27 -95 -57 -110 -66 -14 -10 -39 -25 -56 -34
-16 -9 -72 -49 -123 -88 -51 -39 -100 -75 -109 -81 -8 -5 -31 -25 -51 -43 -27
-24 -33 -35 -25 -43 9 -9 26 -6 68 11 32 13 86 43 122 67 35 23 68 43 73 43 4
0 10 6 13 14 3 8 30 26 59 41 29 15 62 35 73 45 11 10 36 26 55 35 19 10 56
32 81 49 25 17 108 62 185 100 76 38 159 79 183 90 24 12 46 27 48 34 4 9 14
11 29 8 14 -4 24 -2 24 4 0 5 8 10 17 10 9 0 24 6 32 14 9 8 32 16 51 19 19 2
51 13 70 24 19 11 61 28 92 38 32 10 63 24 69 31 6 8 18 14 26 14 7 0 44 10
81 21 37 12 81 27 97 34 17 7 69 20 117 29 48 9 95 16 106 16 11 0 46 8 78 19
33 10 77 19 99 20 22 1 92 5 155 9 63 4 158 4 210 0 52 -4 133 -14 180 -22 47
-9 111 -24 142 -34 32 -10 60 -21 64 -25 4 -4 14 -7 22 -7 8 0 40 -12 71 -26
31 -15 85 -41 121 -58 36 -18 84 -44 106 -58 23 -15 57 -33 75 -41 19 -8 46
-27 61 -41 15 -14 30 -26 34 -26 4 0 30 -16 58 -37 28 -20 62 -47 76 -59 14
-13 61 -55 105 -95 44 -40 82 -77 84 -83 2 -6 29 -45 60 -86 31 -41 64 -91 73
-110 9 -19 24 -60 33 -90 10 -30 26 -80 36 -110 9 -30 20 -74 23 -98 4 -24 9
-96 13 -161 3 -68 1 -174 -6 -252 -7 -74 -21 -186 -32 -249 -11 -63 -31 -164
-46 -225 -15 -60 -46 -186 -70 -280 -24 -93 -48 -183 -52 -200 -5 -16 -19 -66
-31 -110 -12 -44 -26 -98 -30 -120 -5 -22 -17 -76 -28 -120 -11 -44 -26 -123
-33 -175 -7 -52 -13 -176 -13 -275 -1 -174 0 -181 23 -213 21 -30 22 -34 7
-51 -9 -9 -48 -42 -86 -72 -39 -30 -100 -82 -135 -117 l-65 -64 0 -58 c0 -41
5 -61 16 -71 12 -10 48 -14 128 -13 62 0 132 5 156 12 25 6 83 18 130 27 47 9
112 22 145 30 33 8 157 33 275 55 118 22 244 47 280 55 36 8 92 17 125 20 33
3 72 9 88 11 15 3 27 10 27 16 0 6 -22 8 -52 6 -29 -1 -55 2 -58 7 -3 6 22 14
58 18 34 5 62 12 62 15 0 4 23 8 52 9 28 1 56 7 62 13 5 5 28 10 50 10 22 0
56 5 75 11 20 7 42 14 50 16 10 2 11 7 4 14 -6 6 -42 11 -79 12 -38 0 -118 -7
-179 -17 -60 -9 -184 -28 -275 -42 -91 -14 -183 -30 -205 -36 -22 -6 -62 -15
-90 -19 -27 -4 -68 -10 -90 -13 -22 -3 -74 -13 -115 -23 -41 -9 -82 -17 -90
-18 -8 -1 -28 -7 -43 -14 -16 -6 -38 -11 -50 -11 -12 0 -57 -7 -100 -15 -43
-8 -113 -15 -155 -15 l-77 1 65 60 c36 33 88 76 116 95 28 19 56 34 63 34 6 0
11 4 11 8 0 5 11 14 25 20 14 7 46 12 70 12 24 0 68 5 97 11 29 7 85 26 123
43 39 18 85 41 103 52 19 10 71 47 115 80 45 34 99 80 121 102 36 38 39 46 44
111 4 59 2 71 -10 71 -9 0 -50 -11 -92 -25 -42 -14 -113 -44 -158 -67 -44 -24
-88 -47 -97 -53 -9 -5 -31 -20 -48 -32 -17 -13 -34 -23 -39 -23 -4 0 -32 -19
-62 -42 -30 -23 -64 -48 -76 -55 -11 -7 -31 -18 -44 -24 -19 -10 -31 -9 -69 7
-25 10 -55 32 -67 47 -18 24 -21 42 -20 115 1 48 5 128 9 177 4 50 23 158 42
240 19 83 37 161 40 175 2 14 9 34 14 45 5 11 23 74 40 140 17 66 37 145 46
175 8 30 26 107 39 170 14 63 32 137 40 164 8 26 14 60 14 75 0 14 6 60 14
101 8 41 20 149 27 239 6 92 9 224 6 300 -3 75 -13 172 -22 216 -8 44 -25 107
-37 140 -11 33 -31 84 -45 114 -13 30 -49 93 -80 139 -31 47 -95 124 -142 172
-47 48 -122 113 -166 146 -44 33 -105 76 -135 95 -30 20 -82 52 -115 71 -33
19 -96 53 -140 75 -44 22 -109 52 -145 66 -36 14 -97 35 -136 46 -38 11 -106
27 -150 35 -43 8 -126 16 -184 18z m1543 -3442 c9 0 17 -4 17 -9 0 -5 -12 -12
-27 -16 -16 -3 -36 -13 -45 -22 -9 -8 -22 -12 -29 -8 -8 5 2 16 27 31 22 13
47 24 57 24z"/>
</g>
<g>
<path d="M3055 10379 c-7 6 -25 -4 -55 -30 -25 -22 -103 -95 -174 -162 -71
-67 -160 -153 -197 -192 -38 -38 -86 -96 -106 -127 -21 -31 -43 -57 -49 -58
-7 0 -23 -15 -38 -34 -14 -19 -26 -39 -26 -45 0 -5 -9 -13 -20 -16 -12 -4 -31
-23 -44 -43 -13 -20 -43 -59 -67 -87 -25 -27 -57 -70 -73 -94 -15 -24 -42 -59
-60 -76 -17 -18 -51 -66 -76 -106 -25 -40 -76 -121 -115 -179 -38 -58 -76
-115 -82 -125 -7 -11 -24 -40 -37 -65 -13 -25 -44 -64 -68 -87 -23 -22 -56
-57 -71 -77 -16 -20 -34 -36 -41 -36 -6 0 -17 -9 -23 -20 -8 -12 -9 -21 -3
-25 5 -3 18 -1 28 4 10 5 35 28 55 50 20 23 40 41 43 41 3 0 -4 -12 -15 -26
-12 -15 -21 -31 -21 -36 0 -6 -14 -31 -31 -56 -17 -25 -35 -55 -40 -66 -5 -12
-22 -43 -39 -71 -16 -27 -52 -97 -80 -153 -27 -57 -50 -111 -50 -120 0 -8 -6
-23 -14 -31 -8 -9 -26 -38 -40 -65 -14 -27 -26 -58 -26 -68 0 -11 5 -18 12
-16 7 3 20 20 30 39 9 19 38 79 63 134 26 55 66 138 88 185 22 47 53 105 67
130 14 25 44 77 65 115 21 39 53 97 71 130 17 33 60 104 95 157 35 53 87 133
114 178 28 44 91 138 142 208 51 70 103 140 115 156 13 17 60 74 105 128 45
55 108 129 140 165 32 37 80 92 107 122 28 31 119 124 204 206 84 83 175 169
200 192 31 28 44 45 37 52z"/>
</g>
<g>
<path d="M5249 9430 c-5 0 -9 -8 -9 -17 0 -10 -13 -39 -28 -65 -15 -26 -53
-84 -85 -130 -31 -46 -84 -117 -117 -158 -33 -41 -74 -95 -91 -120 -18 -25
-39 -52 -49 -60 -9 -8 -56 -69 -105 -135 -49 -66 -105 -139 -125 -161 -19 -23
-46 -58 -60 -79 -14 -20 -45 -64 -70 -98 -25 -34 -74 -105 -109 -157 -36 -52
-78 -113 -95 -134 -17 -22 -42 -58 -56 -81 -14 -23 -32 -53 -41 -66 -9 -13
-37 -56 -62 -95 -25 -39 -58 -93 -73 -120 -15 -27 -48 -78 -74 -114 -26 -36
-76 -112 -112 -170 -36 -58 -73 -121 -83 -140 -10 -19 -35 -61 -57 -93 -21
-31 -54 -89 -73 -128 -18 -38 -38 -75 -43 -82 -5 -7 -33 -57 -62 -112 -29 -55
-56 -104 -60 -110 -5 -5 -35 -64 -68 -130 -32 -66 -73 -149 -90 -185 -17 -36
-48 -103 -70 -150 -21 -47 -47 -107 -57 -135 -11 -27 -24 -59 -31 -70 -7 -11
-24 -54 -37 -95 -14 -41 -41 -127 -61 -190 -19 -63 -42 -146 -51 -185 -8 -38
-25 -126 -37 -195 -19 -109 -21 -162 -21 -415 0 -228 4 -305 16 -360 9 -38 28
-99 42 -135 14 -35 40 -88 57 -117 18 -29 38 -53 46 -53 7 0 10 -5 6 -11 -3
-6 20 -37 52 -70 32 -32 62 -59 66 -59 5 0 25 -11 46 -24 20 -14 51 -28 67
-32 17 -4 35 -10 40 -14 6 -3 30 -13 55 -21 29 -9 90 -14 180 -13 74 0 169 6
210 13 41 7 98 19 125 26 28 8 64 19 80 24 17 6 65 22 107 36 43 14 131 50
195 82 65 31 152 77 193 101 41 25 120 74 175 110 55 36 139 90 186 121 47 31
90 65 95 76 5 11 26 29 48 41 21 12 56 37 77 56 21 19 41 33 43 30 3 -2 11 5
18 17 7 12 17 21 23 21 5 0 21 12 34 25 13 14 27 25 31 25 5 0 11 8 15 18 3 9
29 28 58 41 29 14 71 39 94 55 23 17 43 36 43 43 0 7 12 19 28 27 15 8 42 22
60 31 17 8 32 20 32 25 0 6 5 10 10 10 6 0 34 15 63 34 29 19 79 53 112 77 33
23 96 67 140 97 44 30 89 63 100 73 11 10 40 35 65 57 25 21 70 50 100 64 30
14 77 47 104 72 27 25 53 46 57 46 4 0 9 5 11 10 2 6 20 16 40 23 21 8 51 25
68 40 16 15 34 27 39 27 5 0 11 7 14 15 4 8 29 26 57 40 27 14 50 32 50 40 0
9 10 15 25 15 14 0 29 8 35 19 5 11 25 25 44 31 19 6 51 24 72 41 20 16 40 29
45 29 4 0 38 20 75 45 36 25 71 45 76 45 5 0 34 16 64 35 30 19 56 35 59 35 2
0 26 14 54 31 45 28 57 31 133 31 46 1 93 -2 105 -6 12 -4 25 -16 28 -27 4
-11 1 -52 -5 -92 -6 -40 -20 -97 -30 -127 -10 -30 -27 -73 -37 -95 -10 -22
-36 -71 -57 -110 -21 -38 -68 -113 -103 -165 -36 -52 -76 -111 -91 -131 -15
-20 -54 -74 -86 -120 -32 -46 -78 -106 -101 -134 -23 -27 -88 -112 -146 -188
-57 -76 -129 -173 -159 -216 -30 -43 -68 -95 -85 -116 -16 -21 -41 -52 -55
-69 -14 -17 -48 -62 -75 -101 -28 -38 -54 -78 -60 -87 -5 -9 -44 -62 -85 -117
-41 -55 -91 -123 -110 -151 -19 -28 -49 -70 -67 -93 -17 -23 -51 -73 -74 -112
-24 -38 -68 -104 -100 -145 -31 -41 -67 -95 -80 -120 -12 -25 -39 -65 -58 -90
-20 -25 -42 -56 -50 -69 -7 -14 -25 -45 -39 -70 -13 -25 -37 -64 -52 -86 -16
-22 -58 -101 -95 -175 -37 -74 -70 -137 -74 -140 -3 -3 -15 -23 -26 -45 -11
-22 -25 -47 -31 -55 -6 -8 -32 -55 -58 -105 -25 -49 -46 -95 -46 -102 0 -7 -4
-21 -10 -31 -5 -9 -21 -43 -35 -76 -14 -32 -37 -73 -50 -90 -13 -17 -35 -62
-50 -101 -15 -38 -31 -79 -38 -90 -6 -11 -17 -33 -25 -50 -9 -16 -19 -37 -24
-45 -5 -8 -22 -44 -39 -80 -16 -36 -63 -132 -104 -215 -40 -82 -97 -197 -125
-255 -29 -58 -66 -130 -81 -160 -19 -36 -39 -59 -58 -67 -16 -7 -84 -19 -152
-28 -81 -11 -155 -15 -214 -11 -50 4 -131 13 -180 21 -50 7 -121 21 -160 30
-38 9 -113 25 -165 36 -52 11 -121 34 -155 50 -33 16 -67 29 -75 29 -8 0 -56
21 -105 46 -50 25 -97 52 -106 60 -8 8 -20 14 -26 14 -5 0 -18 9 -28 20 -10
11 -26 20 -36 20 -9 0 -37 16 -61 37 -23 20 -61 44 -83 55 -22 10 -65 34 -95
53 -30 19 -71 43 -90 53 -20 9 -49 29 -65 45 -16 15 -35 27 -41 27 -6 0 -19 9
-29 20 -10 11 -24 20 -31 20 -7 0 -17 6 -21 13 -4 8 -39 38 -77 67 -37 29 -76
54 -85 55 -9 1 -38 17 -65 36 -27 19 -64 46 -84 61 -28 23 -31 29 -18 34 15 6
15 9 -5 30 -12 13 -27 24 -33 24 -6 0 -31 14 -56 30 -25 16 -60 40 -78 52 -18
13 -40 38 -49 57 -10 20 -30 39 -50 48 -20 8 -112 92 -216 196 -137 137 -192
199 -222 252 -23 39 -62 117 -87 175 -26 58 -72 168 -101 245 -30 77 -73 194
-95 260 -22 66 -47 145 -56 175 -9 30 -25 96 -37 145 -11 50 -24 101 -29 115
-5 14 -12 41 -15 60 -3 19 -9 53 -15 75 -5 22 -18 81 -29 130 -10 50 -27 142
-36 205 -9 63 -20 138 -25 165 -5 28 -16 111 -25 185 -8 74 -20 171 -25 215
-6 44 -17 154 -25 245 -8 91 -17 237 -20 325 -3 88 -7 178 -10 200 -3 22 -8
128 -11 235 -4 107 -7 202 -7 210 1 8 4 111 7 228 4 129 17 287 31 398 13 101
34 226 46 277 12 50 37 139 56 196 18 57 33 111 33 120 0 9 7 29 15 45 8 15
15 34 15 41 0 7 11 39 25 71 14 33 31 69 37 82 9 17 9 25 0 34 -8 8 -19 3 -41
-21 -16 -17 -33 -46 -36 -64 -4 -17 -25 -69 -47 -115 -23 -45 -45 -85 -49 -88
-5 -3 -9 -13 -9 -22 0 -9 -7 -30 -15 -46 -8 -15 -24 -65 -35 -110 -10 -44 -24
-103 -30 -131 -6 -27 -16 -83 -21 -125 -6 -41 -17 -129 -24 -195 -11 -90 -13
-226 -10 -550 3 -236 7 -439 9 -451 2 -11 9 -99 15 -195 6 -96 14 -199 17
-229 3 -30 9 -91 14 -135 4 -44 11 -91 14 -105 3 -14 7 -56 10 -95 3 -38 11
-113 16 -165 6 -52 17 -142 26 -200 8 -58 20 -130 26 -160 6 -30 12 -66 13
-80 1 -14 8 -54 14 -90 6 -36 23 -117 37 -180 14 -63 37 -162 51 -220 14 -58
36 -143 50 -190 14 -47 38 -125 53 -175 16 -49 43 -128 61 -175 17 -47 33 -95
36 -108 3 -12 9 -25 14 -28 5 -3 9 -12 9 -21 0 -8 6 -29 14 -46 7 -18 23 -54
34 -82 12 -27 40 -95 63 -150 22 -55 55 -125 71 -155 17 -30 46 -77 66 -105
19 -27 77 -90 127 -140 51 -49 109 -105 130 -122 20 -18 39 -33 42 -33 3 0 27
-19 52 -41 25 -23 60 -54 76 -68 17 -15 55 -45 85 -68 30 -22 61 -47 69 -56 7
-10 18 -17 23 -17 6 0 38 -24 71 -53 34 -30 103 -84 152 -120 50 -36 99 -73
110 -82 11 -8 49 -37 85 -65 36 -27 70 -50 77 -50 6 0 18 -8 25 -18 7 -10 27
-27 43 -38 17 -10 32 -21 35 -24 3 -3 19 -15 37 -27 18 -13 36 -23 40 -23 5 0
24 -13 43 -28 19 -16 50 -37 67 -47 18 -11 33 -23 33 -27 0 -4 4 -8 10 -8 5 0
32 -16 58 -34 26 -19 59 -40 72 -46 14 -5 39 -19 55 -30 17 -11 67 -37 113
-60 46 -22 86 -40 90 -40 4 0 19 -6 34 -14 14 -8 53 -24 85 -36 32 -12 108
-35 168 -52 61 -16 146 -38 190 -49 44 -10 127 -26 185 -35 79 -12 139 -15
242 -10 l138 6 -9 -22 c-5 -13 -24 -51 -43 -86 -18 -35 -39 -75 -46 -90 -7
-15 -17 -34 -22 -42 -5 -8 -30 -55 -54 -105 -25 -49 -51 -108 -58 -131 -7 -22
-11 -66 -10 -98 3 -38 9 -59 18 -63 8 -3 39 7 70 22 31 15 95 60 143 100 47
40 122 103 166 140 44 37 127 110 185 162 58 52 145 131 194 176 49 45 139
129 199 187 61 58 123 125 138 149 17 27 29 59 29 79 0 18 -5 53 -11 78 -9 33
-17 46 -34 50 -13 3 -38 -1 -57 -9 -18 -8 -57 -24 -85 -37 -29 -13 -53 -27
-53 -32 0 -4 -7 -8 -16 -8 -8 0 -45 -18 -82 -39 -37 -22 -85 -51 -107 -64 -22
-14 -69 -40 -105 -59 -36 -19 -87 -42 -115 -52 -27 -10 -61 -23 -75 -29 -14
-6 -28 -13 -32 -14 -4 -2 4 16 18 39 14 24 28 50 33 58 4 8 26 53 49 100 23
47 51 105 62 130 11 25 35 72 53 104 19 33 44 68 57 78 13 10 30 31 37 46 8
14 12 36 9 48 -4 13 -2 33 3 46 5 14 32 53 60 88 28 34 60 88 71 118 11 30 36
78 54 106 19 28 43 74 54 101 11 28 27 69 36 93 9 23 16 57 16 75 0 18 7 42
15 53 8 10 15 24 15 31 0 6 16 40 36 75 20 34 47 82 61 106 13 23 35 59 48 79
14 19 25 44 25 54 0 10 6 24 13 31 7 7 20 25 30 40 9 15 17 36 17 47 0 11 11
32 24 48 13 15 33 46 44 69 11 22 28 46 36 53 9 8 32 46 52 87 19 40 43 76 52
79 9 3 25 23 35 43 9 21 17 44 17 50 0 6 11 19 25 28 14 9 25 23 25 31 0 9 22
45 48 82 27 36 66 94 86 129 21 34 43 68 50 75 7 7 25 33 41 57 15 25 34 49
42 53 7 4 20 24 28 43 8 19 21 37 30 40 8 3 15 10 15 15 0 5 15 31 33 58 18
26 44 59 56 72 13 13 28 36 35 50 6 14 27 47 46 73 19 26 63 83 97 127 35 44
88 116 119 162 31 45 66 93 78 107 13 14 52 63 88 110 36 47 77 104 90 125 14
22 40 56 58 75 17 19 64 79 103 133 40 54 105 141 146 192 40 52 81 97 92 100
10 3 21 16 25 28 4 12 18 39 31 61 14 21 23 47 20 57 -3 10 3 30 14 43 10 13
19 30 19 38 0 7 10 29 21 48 13 21 29 78 40 140 10 58 19 144 19 192 0 82 -1
88 -25 104 -19 12 -36 15 -72 9 -27 -4 -75 -16 -108 -27 -33 -11 -118 -50
-190 -86 -71 -37 -132 -69 -135 -72 -3 -3 -16 -11 -30 -19 -14 -8 -54 -33 -90
-54 -36 -22 -112 -71 -170 -108 -58 -38 -147 -97 -198 -131 -51 -35 -118 -82
-148 -106 -31 -24 -77 -56 -104 -72 -27 -16 -114 -78 -192 -138 -79 -59 -172
-126 -206 -148 -35 -21 -80 -54 -100 -72 -21 -18 -49 -40 -64 -50 -16 -9 -28
-20 -28 -24 0 -4 -15 -14 -33 -22 -19 -7 -49 -27 -68 -43 -19 -16 -65 -50
-104 -75 -38 -25 -79 -55 -91 -66 -11 -11 -34 -27 -50 -35 -16 -9 -44 -29 -62
-46 -18 -17 -36 -31 -39 -31 -3 0 -23 -15 -44 -32 -21 -18 -51 -42 -66 -54
-15 -11 -48 -31 -73 -45 -25 -13 -74 -44 -110 -68 -36 -24 -74 -52 -86 -62
-11 -11 -23 -19 -26 -19 -3 0 -30 -16 -59 -36 -30 -20 -63 -40 -74 -44 -11 -4
-43 -23 -71 -41 -28 -19 -67 -43 -85 -54 -19 -10 -53 -27 -76 -37 -24 -10 -61
-29 -83 -43 -22 -14 -48 -25 -59 -25 -11 0 -22 -4 -25 -9 -3 -5 -18 -12 -33
-16 -16 -3 -41 -12 -58 -20 -16 -7 -43 -17 -60 -23 -16 -5 -59 -17 -95 -25
-36 -9 -112 -24 -169 -33 -75 -12 -140 -15 -235 -11 -113 4 -142 9 -212 35
-45 16 -106 48 -135 70 -30 22 -67 54 -83 72 -16 19 -46 59 -65 89 -20 31 -42
67 -48 81 -6 14 -21 52 -32 86 -11 33 -25 110 -32 170 -7 67 -9 180 -6 294 3
102 10 210 16 240 5 30 15 89 21 130 6 41 27 134 46 206 19 73 50 176 69 230
20 55 42 113 50 131 8 17 15 34 15 37 0 3 12 31 26 63 14 32 32 74 41 93 8 19
24 55 35 80 11 25 53 113 94 195 41 83 92 182 114 220 22 39 58 104 80 145 22
41 59 109 82 151 24 41 58 100 76 130 18 30 58 97 89 149 30 52 98 160 151
240 52 80 107 163 122 185 15 22 61 94 102 160 41 66 103 158 137 205 34 47
70 96 79 110 9 14 45 66 81 115 35 50 88 122 116 160 29 39 61 77 70 85 9 8
33 39 52 69 19 30 41 61 49 69 8 7 27 30 42 50 15 20 34 44 42 53 8 9 24 28
36 40 11 13 48 60 82 104 35 44 79 100 99 125 19 25 57 70 84 101 27 31 49 65
49 76 0 10 4 23 9 29 5 5 12 19 15 30 4 14 1 28 -9 38 -9 9 -21 16 -26 16z
m169 -7671 c6 1 12 -2 12 -6 0 -5 -54 -60 -119 -123 -65 -63 -147 -140 -182
-170 -35 -30 -84 -74 -109 -97 -25 -22 -81 -72 -125 -110 -44 -39 -103 -88
-131 -109 -28 -21 -92 -75 -143 -119 -52 -44 -106 -88 -122 -97 -16 -10 -34
-18 -39 -18 -6 0 -10 7 -10 15 0 9 39 93 86 188 47 94 96 192 110 217 13 25
24 50 24 57 0 7 8 17 18 22 9 5 35 12 57 16 22 4 65 16 95 27 30 10 88 37 129
59 41 22 92 54 113 71 26 20 38 37 35 48 -3 12 9 26 36 44 23 14 48 26 57 26
9 0 21 -5 28 -12 9 -9 16 -7 33 8 11 10 46 29 77 41 31 11 63 21 70 22z"/>
</g>
<g>
<path d="M3493 5528 c-31 3 -33 1 -33 -26 0 -16 7 -35 16 -43 11 -9 20 -10 32
-2 10 6 17 23 17 39 0 25 -4 29 -32 32z"/>
</g>
<g>
<path d="M4726 5249 c-6 -1 -19 -3 -29 -6 -15 -4 -17 -11 -12 -31 3 -15 13
-34 21 -42 11 -11 19 -12 32 -4 9 6 18 21 20 33 2 12 -2 29 -8 37 -7 7 -18 13
-24 13z"/>
</g>
<g>
<path d="M3264 5220 c-7 0 -16 -5 -19 -10 -4 -6 5 -45 19 -88 14 -42 39 -123
57 -179 25 -80 36 -103 50 -103 9 0 39 11 66 24 26 13 72 34 101 47 44 20 52
28 52 51 0 21 -5 28 -18 28 -11 0 -56 -18 -101 -40 -45 -23 -85 -39 -90 -36
-4 3 -14 34 -20 68 -7 35 -24 97 -38 138 -14 41 -30 81 -35 88 -6 6 -16 12
-24 12z"/>
</g>
<g>
<path d="M4150 4947 c-8 1 -22 -1 -30 -4 -8 -3 -31 -18 -50 -33 -19 -15 -80
-51 -135 -81 -55 -30 -116 -63 -136 -74 -20 -11 -60 -33 -88 -48 -28 -15 -75
-43 -104 -61 -29 -18 -87 -50 -129 -71 -43 -21 -80 -47 -84 -57 -3 -10 -2 -22
1 -28 3 -5 12 -10 20 -10 8 0 38 14 68 30 30 17 60 30 66 30 6 0 35 16 65 35
30 19 59 35 63 35 5 0 42 21 83 46 41 26 125 74 185 107 61 33 136 76 168 95
49 30 58 39 55 61 -2 14 -10 27 -18 28z"/>
</g>
</g>
</svg>
