<?xml version="1.0" standalone="no"?>
<!DOCTYPE svg PUBLIC "-//W3C//DTD SVG 20010904//EN"
 "http://www.w3.org/TR/2001/REC-SVG-20010904/DTD/svg10.dtd">
<svg version="1.0" xmlns="http://www.w3.org/2000/svg"
 width="900.000000pt" height="1200.000000pt" viewBox="0 0 900.000000 1200.000000"
 preserveAspectRatio="xMidYMid meet">
<metadata>
Created by potrace 1.16, written by Peter Selinger 2001-2019
</metadata>
<g transform="translate(0.000000,1200.000000) scale(0.100000,-0.100000)"
fill="#000000" stroke="none">
<g>
<path d="M4331 11619 c-3 -1 -20 -4 -37 -8 -17 -4 -37 -11 -44 -16 -10 -6 -11
-43 -6 -174 4 -91 11 -233 17 -316 6 -82 14 -163 19 -180 5 -16 16 -88 24
-160 9 -71 22 -195 30 -275 8 -80 18 -172 21 -205 2 -33 7 -103 10 -155 3 -52
8 -136 11 -185 l5 -90 -53 -19 c-29 -10 -87 -35 -128 -56 -41 -20 -94 -47
-117 -60 -23 -13 -92 -61 -154 -107 -62 -46 -131 -101 -154 -121 -23 -20 -64
-66 -92 -102 -28 -36 -70 -100 -94 -143 -24 -43 -61 -107 -81 -143 -21 -36
-47 -100 -59 -142 -18 -62 -23 -111 -26 -252 -2 -110 1 -199 8 -240 7 -36 32
-125 56 -199 24 -74 63 -171 87 -215 25 -45 73 -112 107 -149 34 -37 96 -90
138 -117 41 -28 80 -50 87 -50 6 0 17 -6 23 -14 7 -8 35 -23 64 -34 29 -11 75
-28 102 -37 28 -9 77 -23 110 -31 33 -9 80 -19 105 -23 25 -5 68 -16 95 -26
28 -10 60 -22 73 -26 21 -8 22 -14 23 -116 1 -60 1 -114 0 -120 -1 -7 2 -13 6
-13 4 0 25 5 46 11 l37 10 -1 82 c0 45 -6 100 -13 122 -10 36 -15 40 -49 43
-30 3 -38 8 -43 29 -5 20 -2 30 16 43 20 15 41 17 142 14 65 -2 118 1 118 5 0
5 -4 11 -10 13 -6 2 -10 54 -10 128 0 69 1 160 1 203 l1 77 98 0 c81 0 100 3
113 18 10 10 17 26 17 35 0 8 -9 18 -20 22 -11 3 -24 4 -29 0 -5 -3 -43 -6
-83 -6 -40 0 -81 -3 -90 -6 -11 -2 -18 -14 -18 -28 0 -13 -4 -26 -8 -29 -5 -3
-59 -7 -122 -10 -63 -4 -118 -10 -123 -15 -6 -6 -5 -88 2 -207 6 -109 8 -201
4 -205 -5 -4 -33 -3 -63 2 -30 4 -82 13 -115 18 -33 6 -82 17 -110 25 -27 8
-83 26 -123 40 -39 14 -96 38 -125 54 -28 15 -74 43 -102 62 -27 19 -76 61
-108 94 -31 32 -80 99 -108 148 -28 48 -59 112 -69 142 -11 29 -32 102 -47
162 -25 97 -28 126 -27 269 0 118 5 179 18 230 9 39 25 90 36 115 10 25 44 88
74 140 30 52 60 100 66 107 5 7 10 15 10 18 0 4 12 23 28 43 15 20 42 54 61
75 19 21 76 71 125 111 50 40 123 93 161 118 39 24 113 65 165 91 52 26 110
50 128 53 30 6 32 5 32 -23 0 -16 6 -128 14 -249 8 -120 14 -248 14 -284 0
-36 2 -146 5 -245 3 -99 2 -205 -3 -235 -4 -30 -13 -79 -19 -109 -6 -30 -18
-68 -26 -85 -9 -16 -21 -61 -27 -98 -6 -38 -8 -71 -5 -74 3 -4 27 -9 52 -11
36 -5 46 -10 50 -27 2 -11 7 -55 10 -97 l7 -77 123 1 123 0 6 51 c3 28 6 92 6
142 0 53 -6 112 -16 143 -12 42 -13 59 -4 87 7 19 9 58 6 87 -3 29 -7 106 -10
172 -3 66 -7 224 -11 350 -3 127 -8 326 -11 444 l-6 213 28 -6 c16 -3 76 -12
134 -21 58 -8 119 -19 135 -24 17 -5 59 -21 94 -35 35 -14 79 -35 98 -46 19
-11 38 -20 43 -20 5 0 24 -10 42 -22 18 -13 65 -48 104 -79 38 -31 92 -81 118
-110 27 -30 59 -70 72 -89 13 -19 52 -73 88 -119 36 -47 88 -131 115 -187 28
-56 51 -110 51 -121 0 -11 3 -23 7 -27 4 -4 16 -40 25 -79 10 -40 21 -117 24
-172 5 -87 2 -113 -21 -205 -15 -58 -30 -119 -34 -135 -4 -17 -18 -57 -30 -88
-11 -32 -37 -88 -57 -125 -20 -37 -46 -80 -57 -97 -11 -16 -52 -61 -89 -99
-38 -38 -79 -75 -91 -82 -12 -7 -47 -26 -77 -42 -30 -16 -68 -37 -85 -45 -16
-9 -73 -32 -125 -52 -52 -20 -122 -42 -155 -50 -33 -7 -105 -20 -159 -30 -82
-14 -103 -21 -118 -41 -15 -18 -29 -24 -60 -24 l-41 0 7 -87 c3 -49 10 -106
14 -128 5 -29 12 -40 25 -39 9 0 29 1 43 2 l27 2 -7 113 c-4 71 -3 107 3 98 7
-11 10 -11 12 4 3 13 16 18 49 21 25 3 79 12 120 20 41 9 93 20 115 24 22 4
54 13 70 20 17 7 44 19 62 26 17 8 38 14 47 14 10 0 34 8 54 19 20 10 81 42
135 70 78 42 115 70 183 139 47 48 99 106 116 130 16 24 52 89 78 145 27 56
54 129 60 161 7 33 16 69 20 80 5 12 16 56 26 100 13 60 16 104 11 190 -3 61
-12 131 -20 156 -8 25 -20 70 -27 100 -6 30 -41 115 -76 187 -40 83 -82 153
-111 187 -27 30 -68 82 -93 116 -25 34 -63 80 -85 103 -22 23 -75 72 -119 109
-45 39 -121 90 -180 120 -55 29 -130 64 -166 77 -36 13 -105 30 -155 38 -49 8
-118 18 -153 23 -35 4 -66 11 -70 14 -3 4 -9 61 -13 128 -5 67 -10 138 -13
158 -3 19 -8 78 -11 130 -3 52 -10 136 -16 185 -6 50 -15 113 -20 140 -5 28
-15 111 -24 185 -8 74 -19 189 -24 255 -6 66 -13 200 -17 298 -4 111 -11 180
-18 185 -6 3 -20 7 -31 8 -11 1 -47 6 -79 13 -33 6 -62 11 -65 10z m211 -1709
c53 0 91 -5 102 -13 11 -8 17 -23 14 -38 -3 -23 -7 -24 -73 -26 -38 0 -92 -9
-118 -18 -27 -9 -55 -14 -63 -11 -8 3 -14 12 -14 20 0 8 15 31 34 50 33 36 34
36 118 36z m36 -942 c11 -2 18 -14 19 -33 1 -20 -16 -65 -50 -130 -39 -76 -57
-101 -74 -103 -17 -3 -24 3 -29 23 -5 20 3 45 30 98 20 40 36 78 36 85 0 7 11
24 25 38 14 14 33 24 43 22z m-140 -492 c2 -21 1 -41 -2 -44 -3 -3 -9 -3 -12
0 -3 3 -2 23 3 44 l8 39 3 -39z m82 -16 c21 0 43 -6 49 -14 7 -8 11 -27 9 -42
-2 -15 -11 -32 -20 -37 -11 -7 -29 -8 -55 -1 -31 7 -39 14 -41 37 -2 16 2 35
9 43 6 8 28 14 49 14z m207 -427 c2 -7 2 -19 0 -25 -3 -7 -5 -2 -5 12 0 14 2
19 5 13z"/>
</g>
<g>
<path d="M3857 9118 c-16 2 -34 -5 -46 -17 -17 -17 -19 -25 -10 -48 5 -15 15
-33 21 -40 6 -7 25 -13 43 -13 27 0 35 5 45 31 11 27 11 33 -7 57 -11 15 -32
28 -46 30z"/>
</g>
<g>
<path d="M5046 9120 c-7 0 -20 -8 -29 -18 -10 -10 -17 -29 -17 -43 0 -13 7
-32 15 -42 7 -10 31 -21 53 -24 36 -5 40 -3 52 26 11 27 11 36 -1 58 -7 14
-24 29 -37 34 -13 5 -29 9 -36 9z"/>
</g>
<g>
<path d="M4394 8138 c-33 -2 -120 -5 -194 -9 -74 -3 -148 -10 -163 -14 -21 -6
-27 -13 -25 -29 3 -21 5 -21 208 -17 113 2 208 6 212 10 4 3 10 19 13 34 l7
28 -58 -3z"/>
</g>
<g>
<path d="M3525 7310 c-8 0 -19 -9 -25 -20 -6 -11 -8 -20 -4 -20 3 0 2 -6 -4
-13 -6 -7 -20 -42 -31 -77 -11 -36 -26 -90 -35 -120 -8 -30 -19 -74 -25 -96
-6 -23 -11 -54 -11 -69 0 -15 -6 -50 -14 -78 -8 -29 -21 -104 -30 -167 -9 -63
-25 -171 -36 -240 -11 -69 -24 -145 -30 -170 -5 -25 -22 -117 -36 -205 -14
-88 -30 -182 -34 -210 -5 -27 -25 -124 -44 -215 -20 -91 -45 -208 -56 -260
-11 -52 -28 -138 -39 -190 -10 -52 -24 -129 -30 -170 -7 -41 -16 -113 -22
-160 -5 -47 -16 -125 -23 -175 -8 -49 -20 -124 -27 -165 -6 -41 -11 -148 -11
-237 1 -96 5 -171 12 -183 6 -11 17 -20 25 -20 8 0 19 9 25 20 7 14 10 79 8
183 -2 89 0 191 4 227 4 36 16 126 28 200 11 74 27 173 35 220 8 47 15 104 15
127 0 23 5 45 10 48 6 3 10 19 10 35 0 16 4 50 10 77 5 26 19 93 30 148 10 55
26 132 35 170 9 39 23 108 31 155 8 47 24 135 35 195 11 61 37 214 59 340 22
127 51 293 64 370 13 77 27 170 31 207 4 37 11 70 16 73 5 4 9 23 10 43 0 20
8 61 18 91 10 30 20 50 23 45 3 -5 15 -74 27 -154 11 -80 26 -206 33 -280 7
-74 12 -191 11 -260 -1 -69 -6 -181 -11 -250 -5 -83 -4 -211 4 -380 7 -140 15
-356 19 -480 3 -124 9 -279 14 -345 4 -66 6 -160 5 -210 -1 -49 -7 -102 -13
-117 -7 -20 -7 -36 0 -55 8 -19 11 -146 9 -398 -2 -203 -3 -482 -4 -620 0
-137 3 -475 7 -750 4 -275 10 -610 12 -745 3 -135 8 -354 10 -488 3 -134 7
-247 10 -252 3 -5 1 -19 -4 -33 -6 -15 -20 -27 -38 -30 -15 -3 -53 -11 -83
-16 -30 -6 -86 -22 -125 -37 -38 -14 -88 -29 -110 -34 -22 -5 -53 -13 -68 -19
-23 -9 -28 -16 -25 -39 3 -24 6 -27 40 -25 20 1 62 12 95 24 32 12 83 30 113
40 30 10 100 28 155 40 55 12 106 26 113 32 7 6 11 21 8 36 -3 14 -8 114 -11
221 -2 107 -7 330 -10 495 -3 165 -9 462 -13 660 -3 198 -7 711 -7 1140 l0
780 230 0 c127 0 309 -4 406 -9 l176 -9 7 26 c3 14 19 35 35 46 26 19 35 20
132 11 57 -5 111 -9 120 -10 14 0 18 27 29 183 10 146 10 195 0 239 -7 30 -10
62 -7 69 3 8 6 -2 7 -21 0 -30 2 -32 11 -17 6 11 8 38 5 65 -4 26 -7 225 -8
442 0 217 2 410 7 427 4 18 4 41 -1 50 -4 10 -9 29 -11 43 -2 14 -6 67 -7 118
-2 50 0 92 5 92 5 0 9 7 9 15 0 8 -4 15 -10 15 -5 0 -10 22 -10 48 0 27 3 52
7 56 4 4 6 48 6 99 -1 51 -6 113 -11 139 -6 32 -6 45 1 41 6 -4 8 1 5 13 -3
10 -9 28 -13 39 -5 16 -5 17 4 5 8 -11 11 -1 11 43 0 32 -4 56 -8 53 -5 -3 -9
54 -10 127 -1 72 -4 139 -7 148 -3 10 -1 20 5 24 7 4 10 30 9 64 l-3 56 260 1
c142 1 291 -3 329 -8 39 -6 132 -12 208 -15 l138 -5 -1 -66 c0 -37 -2 -326 -3
-642 -1 -316 -2 -649 -2 -740 0 -91 3 -349 8 -575 4 -225 10 -467 13 -536 4
-81 2 -129 -4 -133 -6 -3 -86 -9 -179 -13 -101 -3 -240 -1 -348 6 -99 7 -198
17 -220 21 -22 5 -70 12 -107 15 l-68 7 3 -33 2 -34 70 -7 c39 -4 111 -13 160
-19 50 -6 221 -13 380 -15 160 -3 297 -6 305 -7 12 -2 15 -22 16 -97 1 -52 5
-221 8 -375 4 -154 9 -334 11 -400 2 -66 6 -376 9 -690 4 -313 9 -597 11 -630
3 -33 15 -136 26 -230 12 -93 36 -264 55 -380 18 -115 39 -249 45 -296 7 -48
9 -97 5 -110 -4 -13 -37 -46 -74 -74 -37 -27 -116 -98 -177 -156 -60 -58 -120
-112 -131 -120 -12 -8 -43 -29 -70 -48 -31 -22 -60 -35 -83 -36 -36 -1 -36 -1
-39 -48 -2 -37 2 -49 14 -54 9 -3 23 -2 30 3 7 5 52 36 100 69 49 33 142 111
207 172 66 62 162 145 214 185 l95 72 -7 56 c-3 30 -15 107 -25 170 -10 63
-30 180 -44 260 -13 80 -27 177 -31 215 -4 39 -10 88 -15 110 -5 22 -11 76
-14 120 -4 44 -9 98 -11 120 -3 22 -7 193 -10 380 -3 187 -7 459 -10 605 -3
146 -7 373 -10 505 -3 132 -8 364 -10 515 -2 151 -7 336 -10 410 -3 74 -8 281
-12 460 -4 179 -7 692 -8 1140 0 801 0 813 17 710 9 -58 22 -150 27 -205 6
-55 12 -111 15 -125 2 -14 9 -61 15 -105 6 -44 13 -125 16 -180 2 -55 10 -138
16 -185 6 -47 22 -143 36 -215 13 -71 26 -152 29 -180 3 -27 9 -66 14 -85 5
-19 12 -62 15 -95 3 -33 12 -105 20 -160 7 -55 16 -138 20 -185 3 -47 10 -134
16 -195 5 -60 12 -137 15 -170 3 -33 7 -67 10 -75 3 -8 10 -51 15 -95 5 -44
14 -131 19 -193 7 -72 16 -122 26 -137 9 -14 19 -25 23 -25 3 0 14 7 24 14 17
13 17 20 3 124 -9 60 -18 115 -20 123 -3 8 -10 59 -16 114 -6 55 -15 125 -20
155 -5 30 -16 111 -24 180 -9 69 -18 170 -21 225 -3 55 -17 181 -31 280 -14
99 -30 218 -35 265 -5 47 -14 99 -19 115 -5 17 -14 59 -20 95 -6 36 -13 94
-16 130 -3 36 -9 98 -14 138 -6 40 -10 101 -10 136 0 34 -6 84 -13 111 -7 28
-14 84 -16 125 -1 41 -5 78 -7 82 -3 4 -11 63 -19 130 -8 68 -20 155 -26 193
-6 39 -11 84 -11 101 1 22 -8 37 -32 58 -33 27 -36 27 -190 31 -87 2 -192 9
-234 14 -43 5 -185 10 -317 10 -230 0 -241 -1 -262 -21 -20 -18 -37 -22 -121
-23 -54 -2 -113 -6 -131 -10 l-33 -7 6 -317 c4 -174 10 -437 14 -586 3 -148 6
-459 7 -690 0 -231 -2 -501 -4 -600 -3 -99 -8 -200 -12 -225 -4 -25 -10 -92
-13 -150 -3 -58 -5 -109 -6 -114 0 -5 -99 -6 -242 -1 -134 5 -324 9 -423 10
l-180 2 3 65 c2 35 -4 264 -13 509 -9 244 -20 519 -24 611 -5 103 -3 259 4
410 9 188 9 274 -1 378 -6 74 -15 167 -18 205 -3 39 -10 105 -16 148 -5 42
-16 104 -25 136 -8 32 -15 88 -15 124 0 42 5 70 14 79 11 12 29 12 107 2 69
-9 183 -10 429 -3 184 4 346 8 360 9 22 0 25 5 26 35 l0 34 -265 -5 c-146 -3
-327 -5 -401 -5 -84 0 -162 6 -208 15 -40 9 -80 16 -87 16z m1242 -2607 c2 -7
2 -19 0 -25 -3 -7 -5 -2 -5 12 0 14 2 19 5 13z"/>
</g>
<g>
<path d="M4622 4459 l-120 2 -5 -43 c-3 -24 -9 -158 -12 -298 -4 -140 -9 -273
-11 -295 -2 -22 -8 -170 -14 -330 -5 -159 -14 -405 -20 -545 -5 -140 -12 -334
-14 -430 -3 -96 -10 -269 -16 -385 -6 -115 -17 -304 -25 -420 -8 -115 -20
-307 -26 -425 -7 -118 -11 -295 -11 -392 1 -98 6 -226 12 -285 6 -60 13 -123
16 -140 5 -25 11 -33 28 -33 12 0 26 -4 32 -9 5 -4 41 -20 79 -35 39 -14 83
-26 98 -26 16 0 30 7 34 16 3 8 -2 92 -12 185 -14 138 -16 220 -11 447 4 152
10 350 15 439 5 89 12 167 16 173 4 7 3 15 -3 19 -8 5 -8 27 -1 75 5 38 7 83
4 100 -4 17 -1 44 5 60 6 16 13 60 16 98 3 38 1 68 -4 68 -6 0 -6 19 0 48 5
26 11 66 13 90 3 27 1 41 -5 37 -6 -3 -10 5 -10 19 0 13 5 26 11 28 8 3 13 70
15 210 2 114 7 214 11 223 3 10 0 21 -8 26 -10 6 -10 9 -1 9 7 0 12 13 12 33
0 24 -3 28 -10 17 -5 -8 -10 -13 -11 -10 0 3 -2 13 -4 23 -2 9 2 23 9 30 7 7
12 47 13 102 1 50 5 178 8 285 4 107 7 218 7 245 0 28 4 160 10 295 5 135 14
279 19 320 5 41 6 76 2 77 -5 2 -7 47 -5 100 1 54 7 107 11 118 5 11 12 32 15
46 5 21 1 28 -13 32 -11 3 -73 5 -139 6z"/>
</g>
</g>
</svg>
