<?xml version="1.0" standalone="no"?>
<!DOCTYPE svg PUBLIC "-//W3C//DTD SVG 20010904//EN"
 "http://www.w3.org/TR/2001/REC-SVG-20010904/DTD/svg10.dtd">
<svg version="1.0" xmlns="http://www.w3.org/2000/svg"
 width="1200.000000pt" height="1200.000000pt" viewBox="0 0 1200.000000 1200.000000"
 preserveAspectRatio="xMidYMid meet">
<metadata>
Created by potrace 1.16, written by Peter Selinger 2001-2019
</metadata>
<g transform="translate(0.000000,1200.000000) scale(0.100000,-0.100000)"
fill="#000000" stroke="none">
<g>
<path d="M1676 10460 c-7 0 -21 -11 -30 -25 -9 -14 -13 -25 -9 -25 4 0 -13
-21 -38 -47 -26 -27 -71 -82 -101 -123 -30 -41 -68 -89 -84 -106 -16 -17 -40
-48 -54 -68 -14 -20 -32 -46 -40 -57 -8 -12 -30 -37 -48 -58 -18 -20 -37 -40
-43 -46 -5 -5 -40 -47 -79 -91 -38 -45 -70 -84 -70 -88 0 -4 -23 -35 -51 -69
-29 -34 -55 -64 -58 -67 -3 -3 -18 -22 -34 -42 -15 -20 -27 -39 -27 -42 0 -4
-13 -25 -30 -48 -16 -22 -41 -65 -55 -94 -14 -29 -30 -66 -37 -81 -6 -15 -12
-30 -13 -33 -1 -3 -12 -27 -24 -55 -12 -27 -27 -86 -32 -130 -5 -44 -13 -114
-17 -155 -5 -51 -3 -94 6 -135 8 -33 25 -96 38 -140 20 -65 34 -89 72 -128 26
-27 64 -57 84 -68 25 -13 58 -19 101 -19 43 0 82 7 123 24 32 13 79 35 104 50
25 14 52 29 60 33 8 3 31 18 50 32 19 14 41 31 48 36 7 6 21 17 31 25 9 8 39
33 66 55 28 22 55 45 60 51 6 6 24 21 42 33 17 11 52 41 78 66 25 25 48 45 51
45 4 0 20 11 38 25 17 14 37 31 45 37 11 9 23 2 59 -36 28 -30 79 -66 136 -96
50 -26 127 -63 171 -81 44 -18 101 -45 126 -61 25 -15 50 -28 54 -28 4 0 37
-26 73 -57 37 -32 81 -74 99 -95 19 -20 43 -48 54 -62 l20 -25 -21 -40 c-17
-34 -18 -44 -8 -62 11 -17 20 -19 53 -15 34 5 43 2 56 -17 9 -13 31 -56 49
-97 17 -41 33 -79 34 -85 1 -5 8 -28 16 -50 7 -22 31 -65 54 -95 22 -30 45
-60 50 -66 6 -5 30 -21 53 -34 37 -20 51 -22 112 -17 38 3 89 11 113 18 23 7
81 38 128 68 47 30 87 58 90 61 3 4 33 30 67 58 61 51 62 51 85 33 12 -9 39
-25 58 -33 19 -9 48 -20 63 -23 15 -4 49 -2 75 5 26 7 52 16 57 20 6 4 45 22
88 39 43 17 87 31 98 31 11 0 44 -18 73 -39 44 -33 55 -48 70 -94 9 -30 27
-69 40 -86 13 -17 35 -40 49 -51 15 -12 57 -35 94 -52 37 -17 79 -33 93 -36
14 -2 52 -6 85 -8 33 -2 83 2 110 8 28 6 66 19 86 29 19 9 41 25 48 33 8 9 20
16 29 16 8 0 30 11 48 25 18 14 36 25 40 25 4 0 29 14 56 31 41 27 53 30 71
21 12 -7 48 -18 79 -26 31 -8 67 -20 80 -27 14 -9 57 -13 114 -12 67 0 99 5
125 19 19 10 37 18 41 19 3 0 10 3 14 7 4 5 11 8 15 8 3 0 14 -22 23 -50 9
-27 20 -87 25 -132 5 -49 16 -99 29 -123 11 -22 33 -50 50 -62 16 -12 47 -29
68 -38 24 -10 80 -19 144 -22 77 -4 119 -1 160 10 30 9 78 23 105 33 28 9 73
25 100 36 28 11 58 21 68 23 10 2 28 7 40 11 12 4 33 15 46 25 13 11 31 19 41
19 14 0 17 -10 17 -57 0 -32 3 -105 7 -163 4 -58 14 -143 22 -190 8 -47 20
-107 27 -135 7 -27 24 -72 39 -100 14 -27 42 -65 61 -83 19 -19 52 -37 73 -42
23 -6 56 -5 82 1 24 5 58 17 76 26 17 9 58 35 91 59 33 23 74 56 90 72 17 16
35 31 42 33 6 2 37 28 67 57 31 29 74 69 96 87 33 28 49 34 88 34 26 0 81 9
122 20 41 10 118 34 170 53 52 19 117 44 143 56 27 12 101 39 165 60 64 21
140 44 167 51 28 7 61 15 75 18 14 2 77 7 140 11 63 4 162 4 219 -1 57 -4 141
-16 185 -27 45 -11 107 -28 139 -39 32 -11 80 -37 107 -58 27 -21 49 -46 50
-56 0 -10 -15 -37 -32 -60 -18 -23 -63 -80 -101 -127 -37 -47 -81 -102 -99
-124 -17 -21 -47 -62 -67 -90 -19 -28 -39 -56 -45 -62 -6 -7 -22 -26 -36 -44
-14 -18 -38 -49 -55 -69 -16 -21 -39 -50 -50 -65 -11 -16 -29 -40 -41 -55 -12
-14 -27 -37 -34 -51 -7 -14 -38 -59 -69 -100 -31 -42 -60 -83 -66 -91 -5 -9
-23 -36 -39 -60 -17 -24 -38 -53 -47 -64 -10 -11 -40 -60 -68 -108 -28 -49
-51 -93 -51 -98 0 -5 -14 -28 -30 -51 -17 -22 -30 -49 -30 -58 0 -10 -7 -23
-15 -30 -8 -7 -15 -18 -15 -24 0 -6 -18 -56 -41 -111 -23 -55 -61 -164 -85
-242 -24 -78 -44 -153 -44 -167 0 -13 -5 -28 -10 -31 -6 -4 -8 -11 -4 -16 3
-5 1 -15 -4 -22 -5 -7 -14 -57 -20 -112 -7 -61 -8 -115 -2 -138 4 -22 19 -51
32 -65 12 -15 28 -30 33 -34 6 -4 30 -8 54 -8 24 0 94 12 155 27 61 14 118 32
126 38 8 6 42 21 75 34 33 12 76 29 95 38 19 8 42 19 50 24 8 4 40 23 70 40
30 18 71 45 91 61 20 15 42 28 49 28 6 0 24 9 38 20 15 11 56 42 92 69 36 26
76 54 89 61 18 9 96 14 290 16 147 1 336 -2 421 -7 85 -6 169 -12 185 -14 17
-3 55 -10 85 -16 30 -6 102 -25 160 -42 58 -16 119 -36 135 -45 17 -8 37 -18
45 -23 8 -4 39 -20 69 -35 30 -15 84 -52 120 -82 36 -31 82 -72 102 -91 19
-20 49 -58 67 -84 18 -26 32 -50 32 -52 0 -2 -24 -39 -52 -82 -29 -43 -57 -86
-63 -95 -5 -9 -29 -42 -53 -75 -24 -32 -77 -110 -118 -173 -40 -63 -74 -121
-74 -127 0 -7 -4 -13 -9 -13 -5 0 -13 -9 -16 -20 -3 -11 -12 -26 -18 -32 -7
-7 -27 -42 -46 -78 -19 -36 -39 -72 -46 -80 -7 -8 -27 -51 -45 -94 -17 -44
-36 -87 -41 -95 -4 -9 -15 -51 -24 -95 -8 -43 -15 -127 -15 -187 0 -59 5 -132
11 -160 6 -29 20 -69 31 -88 11 -20 39 -58 61 -84 22 -27 58 -61 80 -75 22
-15 50 -34 63 -42 13 -8 24 -21 24 -28 0 -8 -8 -28 -17 -45 -10 -18 -25 -41
-34 -52 -9 -11 -33 -51 -53 -89 -20 -38 -49 -85 -64 -105 -15 -20 -45 -65 -67
-101 -21 -36 -60 -92 -85 -126 -25 -34 -79 -105 -120 -160 -41 -54 -102 -127
-135 -163 -33 -37 -100 -107 -150 -156 -49 -50 -118 -115 -153 -145 -35 -30
-85 -69 -110 -87 -26 -18 -72 -50 -102 -70 -30 -20 -66 -44 -80 -53 -14 -9
-50 -28 -80 -42 -44 -21 -77 -28 -163 -33 -60 -4 -197 -8 -305 -8 -147 0 -236
6 -352 22 -85 12 -184 26 -220 33 -36 6 -105 19 -155 30 -49 11 -106 22 -125
25 -19 3 -39 9 -45 13 -5 4 -23 10 -40 14 -16 4 -61 22 -100 41 -38 18 -104
49 -145 68 -41 19 -100 43 -130 55 -30 11 -98 28 -150 36 -52 8 -111 19 -130
22 -19 4 -80 7 -136 7 -77 0 -117 -6 -170 -23 -38 -13 -91 -34 -117 -47 -26
-13 -69 -40 -95 -60 -26 -19 -62 -53 -81 -75 -19 -22 -50 -70 -69 -106 -32
-61 -36 -75 -36 -153 -1 -53 4 -97 13 -115 7 -16 21 -45 30 -64 9 -19 36 -60
61 -91 25 -32 80 -88 121 -126 48 -43 106 -83 160 -110 47 -24 88 -43 91 -43
4 0 19 -5 35 -11 15 -6 39 -13 53 -15 14 -1 40 -6 58 -9 17 -4 32 -11 32 -14
0 -4 6 -8 13 -8 6 -1 55 -6 107 -12 52 -5 156 -8 230 -6 74 3 148 8 165 12 16
3 40 5 52 4 13 -1 28 1 35 6 7 4 47 13 88 20 41 6 118 26 170 43 52 17 104 35
115 40 11 5 58 23 104 40 46 17 107 42 134 56 28 13 56 24 61 24 6 0 34 11 61
25 28 13 53 25 57 25 4 0 40 19 80 43 40 23 89 49 108 57 19 8 65 31 101 51
36 20 93 47 125 60 32 13 70 31 83 41 13 10 29 18 37 18 7 0 14 4 16 8 2 5 15
15 29 23 15 8 49 26 76 41 33 17 78 30 134 38 46 6 96 13 111 16 14 2 66 8
115 14 48 5 120 16 158 25 39 9 93 20 120 25 28 5 75 14 105 20 30 6 120 29
200 51 80 22 154 44 165 49 11 4 45 20 76 34 31 14 65 26 77 26 11 0 23 4 26
9 3 5 23 18 43 29 21 11 69 36 108 56 38 21 79 45 90 55 11 10 34 26 50 34 17
9 46 31 67 49 20 18 79 69 130 113 52 44 110 99 129 122 18 24 38 43 44 43 5
1 26 22 45 47 19 26 54 66 78 91 23 24 42 46 42 49 0 3 9 18 20 33 11 15 38
63 60 105 22 42 40 89 40 103 -1 15 -11 45 -24 67 -12 23 -46 56 -76 76 -30
20 -90 48 -134 62 -45 15 -117 33 -161 42 -44 9 -107 21 -140 25 -33 5 -78 14
-100 19 -22 5 -56 12 -75 16 -19 4 -47 11 -62 17 -16 6 -28 12 -28 14 0 1 16
38 36 81 20 43 43 94 52 113 9 19 21 42 28 50 7 8 29 53 49 100 20 47 44 103
54 125 11 22 33 72 50 112 17 40 34 86 37 103 4 17 11 33 15 36 5 3 9 17 9 32
0 15 7 37 15 49 8 12 22 59 30 105 9 46 20 112 26 148 6 36 12 90 13 120 1 30
-1 96 -6 145 -4 50 -12 106 -17 125 -5 19 -16 61 -25 92 -9 32 -23 69 -31 84
-13 25 -11 30 20 78 19 28 43 62 54 76 12 14 32 42 46 63 14 21 25 40 25 43 0
3 13 22 29 42 16 20 44 64 62 97 18 33 47 83 64 110 18 28 45 75 59 105 15 30
31 62 36 70 5 8 20 40 33 70 13 30 29 71 37 90 7 19 19 62 26 95 7 33 14 94
14 136 0 50 -7 100 -21 145 -17 54 -32 79 -77 127 -32 32 -73 67 -92 76 -19
10 -62 26 -95 35 -33 10 -71 23 -84 28 -14 5 -95 12 -180 15 -140 4 -168 2
-276 -20 -67 -14 -175 -45 -240 -70 -66 -25 -169 -69 -229 -98 -60 -29 -144
-74 -187 -100 -43 -25 -117 -73 -166 -105 -48 -32 -131 -90 -183 -128 -52 -39
-121 -91 -152 -116 -31 -25 -102 -76 -158 -115 -55 -38 -115 -80 -133 -93 -23
-17 -40 -22 -62 -18 -16 3 -38 16 -48 28 -13 16 -18 34 -15 63 3 22 13 72 24
110 10 39 22 72 26 73 5 2 8 14 8 26 0 13 13 49 29 82 16 32 38 84 49 114 11
30 33 94 50 142 17 48 37 100 45 115 8 16 21 44 30 63 8 19 30 85 47 145 17
61 40 133 50 160 10 28 21 74 25 104 3 30 11 63 17 74 5 11 12 72 14 136 2 69
-2 148 -11 196 -7 44 -23 106 -36 138 -21 56 -21 58 -5 96 10 21 28 49 40 62
12 13 28 40 36 59 8 19 31 62 51 95 20 33 52 108 72 167 30 88 36 119 33 170
-2 35 -8 82 -15 105 -6 22 -29 63 -51 89 -22 27 -40 51 -40 55 0 3 -20 16 -45
28 -24 12 -47 26 -50 32 -4 5 -17 9 -30 9 -13 0 -27 5 -30 11 -4 6 -13 8 -21
5 -8 -3 -14 1 -14 9 0 7 -5 17 -11 20 -5 4 -18 0 -28 -9 -10 -9 -25 -16 -34
-16 -9 0 -20 7 -25 16 -8 15 -11 15 -23 -3 -11 -14 -36 -22 -104 -30 -49 -6
-117 -21 -150 -32 -33 -11 -94 -32 -135 -46 -41 -15 -154 -65 -250 -113 -96
-47 -220 -112 -275 -144 -55 -32 -107 -63 -115 -69 -8 -5 -28 -17 -44 -27 -15
-9 -56 -37 -90 -62 -33 -25 -95 -70 -136 -99 -41 -30 -88 -67 -105 -83 -16
-15 -33 -28 -37 -28 -4 0 -17 -10 -30 -23 -13 -13 -57 -52 -98 -88 -41 -35
-83 -72 -92 -82 -11 -12 -24 -16 -37 -12 -12 3 -32 21 -45 38 -13 18 -31 48
-40 67 -8 19 -20 42 -25 50 -5 8 -13 26 -19 40 -5 14 -17 43 -25 65 -9 22 -19
58 -23 80 -4 22 -12 47 -19 55 -6 8 -20 37 -29 63 -10 26 -30 59 -45 73 -23
22 -33 25 -86 21 -33 -2 -85 -11 -116 -20 -30 -9 -98 -36 -150 -61 l-94 -46
-7 32 c-3 18 -7 113 -9 212 -1 100 -6 208 -11 241 -5 33 -11 83 -13 110 -3 28
-13 72 -22 98 -10 27 -34 66 -54 88 -33 36 -40 39 -91 39 -31 0 -74 -6 -96
-14 -22 -8 -73 -34 -113 -58 -47 -28 -124 -92 -218 -183 -80 -78 -169 -163
-196 -190 -28 -28 -70 -65 -93 -83 l-42 -34 -57 46 c-50 38 -67 46 -125 54
-37 5 -73 5 -80 0 -7 -4 -23 -8 -36 -8 -13 0 -66 -21 -119 -46 -83 -40 -100
-45 -138 -40 -24 4 -46 13 -49 21 -3 8 -12 15 -19 15 -8 0 -52 20 -98 44 -46
25 -104 55 -129 66 -25 12 -55 26 -66 32 -12 5 -33 20 -47 33 -13 13 -42 31
-62 39 -20 9 -39 25 -42 36 -3 11 -13 20 -23 20 -10 0 -37 21 -59 46 -23 26
-41 52 -41 59 0 6 -8 19 -18 28 -10 10 -29 40 -42 67 -13 28 -27 50 -32 50 -4
0 -8 6 -8 14 0 7 -18 32 -40 55 -30 30 -48 41 -70 41 -17 0 -54 -12 -83 -26
-34 -18 -88 -64 -155 -133 -57 -58 -131 -136 -165 -172 -34 -36 -71 -77 -82
-92 -11 -14 -25 -26 -32 -27 -7 0 -15 17 -18 38 -4 20 -12 67 -20 103 -7 36
-20 81 -29 101 -11 23 -31 42 -62 58 -32 15 -64 22 -107 23 -34 0 -100 -3
-147 -7 -83 -8 -85 -8 -109 18 -15 16 -35 26 -53 26 -19 0 -38 -11 -60 -36
-25 -27 -49 -40 -100 -54 l-67 -18 9 23 c5 13 21 43 36 67 15 24 30 45 34 48
4 3 27 48 52 100 25 52 57 127 72 165 15 39 30 99 34 135 4 36 4 87 0 114 -3
27 -19 74 -35 105 -15 31 -37 61 -48 66 -11 6 -32 18 -46 28 -14 9 -53 24 -85
33 -40 11 -80 14 -124 10 -36 -3 -95 -8 -133 -12 -37 -4 -70 -11 -73 -15 -3
-5 -19 -9 -35 -9 -17 0 -39 -5 -50 -10 -11 -6 -71 -26 -133 -45 -63 -19 -145
-53 -184 -74 -38 -22 -87 -52 -108 -66 -22 -15 -51 -37 -66 -51 -15 -13 -31
-24 -35 -24 -5 0 -16 12 -26 25 -10 14 -25 51 -34 83 -8 31 -16 65 -17 74 -1
10 -5 21 -9 24 -4 4 -7 20 -7 35 0 16 -6 46 -14 66 -8 21 -17 63 -21 93 -4 30
-9 123 -11 205 -2 83 1 200 6 260 6 61 12 195 15 298 4 177 3 189 -15 207 -11
11 -26 20 -34 20z m-44 -200 c6 0 7 -78 2 -197 -4 -109 -7 -283 -6 -388 0
-152 5 -208 21 -280 11 -49 25 -115 32 -145 6 -30 18 -69 25 -87 8 -17 14 -36
14 -42 0 -7 9 -31 20 -53 11 -23 20 -49 20 -57 0 -9 -32 -38 -70 -66 -38 -27
-70 -53 -70 -57 0 -5 -4 -8 -9 -8 -5 0 -33 -22 -62 -49 -30 -27 -111 -93 -181
-148 -70 -54 -156 -112 -190 -129 -35 -18 -81 -37 -103 -43 -23 -6 -59 -8 -80
-6 -22 3 -47 8 -57 11 -9 2 -34 28 -56 57 -22 29 -48 70 -57 92 -9 22 -23 79
-29 127 -9 59 -10 121 -5 189 4 55 17 131 29 167 12 36 43 108 70 159 27 51
58 106 69 122 12 16 21 34 21 40 0 6 5 11 10 11 6 0 14 10 19 23 5 12 38 58
73 102 35 45 107 132 160 195 52 63 107 128 122 143 14 15 26 30 26 33 0 3 9
15 21 27 11 12 30 35 42 51 12 15 40 50 62 76 22 26 55 66 74 89 19 22 38 41
43 41z m1030 -972 c49 2 106 -3 129 -9 23 -7 46 -21 53 -31 6 -10 16 -18 22
-18 7 0 20 -17 30 -37 10 -22 20 -68 22 -110 3 -55 -1 -86 -18 -135 -12 -35
-25 -67 -30 -73 -4 -5 -11 -27 -15 -47 -4 -21 -13 -42 -20 -48 -8 -6 -17 -26
-21 -43 -3 -18 -19 -48 -35 -68 -16 -20 -29 -40 -29 -45 0 -4 -21 -40 -47 -80
-27 -40 -52 -74 -56 -74 -5 0 -43 35 -85 78 -42 42 -99 93 -126 112 -27 19
-68 46 -91 60 -22 14 -48 26 -55 28 -8 2 -16 8 -18 13 -2 5 -12 9 -22 9 -10 0
-22 5 -25 11 -4 5 -19 15 -33 21 -15 6 -31 12 -37 13 -5 1 -19 3 -31 3 -11 1
-30 11 -42 22 -12 11 -26 20 -32 20 -5 0 -10 4 -10 9 0 5 -12 11 -27 14 -16 3
-47 22 -70 42 -23 19 -45 44 -48 55 -5 15 3 29 28 53 20 18 48 39 64 46 15 7
35 17 43 22 8 5 34 19 57 30 23 11 45 24 48 29 3 5 12 7 19 4 8 -3 17 -1 20 4
3 6 32 18 64 27 31 9 69 23 85 31 15 9 31 13 35 10 5 -3 33 4 63 16 30 12 77
24 104 28 28 3 89 7 137 8z m1368 -699 c14 0 30 -3 37 -7 7 -4 37 -51 67 -105
30 -53 61 -104 68 -113 7 -8 29 -31 48 -50 19 -18 71 -62 115 -96 45 -35 126
-85 180 -113 55 -27 102 -53 105 -56 3 -3 24 -13 46 -22 23 -9 57 -25 75 -36
19 -12 44 -21 57 -21 12 0 22 -4 22 -10 0 -5 -14 -17 -31 -25 -17 -9 -57 -37
-90 -62 -32 -26 -62 -44 -65 -40 -3 3 -22 -3 -41 -14 -27 -15 -56 -20 -131
-21 -96 -1 -98 -1 -187 43 -70 34 -96 53 -117 84 -15 22 -30 57 -33 78 -4 23
-20 51 -43 75 -21 21 -51 46 -67 55 -17 9 -40 21 -53 26 -17 8 -36 6 -80 -10
-31 -11 -73 -28 -92 -38 -19 -10 -61 -26 -93 -36 -47 -15 -64 -16 -95 -7 -21
7 -49 23 -62 37 l-24 25 27 28 c15 16 27 31 27 35 0 4 21 28 48 54 26 27 102
104 168 173 66 69 136 135 155 147 19 11 45 21 59 22z m2168 -79 c13 0 34 -12
48 -27 15 -16 32 -40 40 -54 7 -14 16 -48 19 -75 3 -27 8 -59 10 -71 3 -11 7
-142 10 -291 l6 -269 -48 -23 c-27 -13 -64 -31 -83 -41 -19 -9 -100 -38 -178
-64 l-144 -48 -112 5 c-75 4 -122 10 -143 21 -17 9 -41 31 -54 48 -14 21 -25
55 -30 103 -5 39 -12 89 -17 111 -5 22 -15 53 -21 68 -6 16 -11 32 -11 36 0 5
37 41 83 81 45 39 136 124 203 188 66 65 149 141 183 171 34 29 96 71 139 92
42 21 87 39 100 39z m-2908 -37 c35 -1 74 -4 85 -7 12 -3 28 -18 35 -33 7 -16
15 -44 17 -63 1 -19 10 -79 19 -133 l16 -98 -29 -22 c-15 -12 -48 -40 -73 -63
-25 -22 -81 -64 -125 -92 -56 -35 -103 -57 -152 -68 -57 -14 -76 -15 -100 -5
-16 6 -42 24 -59 39 -17 15 -48 57 -68 93 -20 36 -36 76 -36 88 0 13 -18 61
-41 107 -22 46 -38 88 -34 94 3 5 14 10 23 10 10 0 35 12 57 27 22 14 60 43
85 64 42 34 53 38 140 48 52 6 113 12 135 14 22 1 69 1 105 0z m-570 -43 c3 0
11 -4 19 -9 7 -5 10 -14 7 -20 -4 -6 -18 -11 -32 -11 -22 0 -23 2 -12 20 7 11
15 20 18 20z m6145 -253 c41 1 81 -5 97 -13 15 -8 38 -14 52 -14 14 0 29 -6
33 -13 4 -8 23 -24 41 -37 18 -13 44 -44 59 -69 22 -38 25 -55 25 -123 -1 -58
-8 -98 -27 -151 -15 -40 -40 -99 -57 -132 -16 -33 -36 -67 -44 -76 -8 -8 -14
-18 -14 -22 0 -3 -14 -28 -32 -54 -17 -26 -38 -56 -46 -65 -13 -16 -17 -15
-56 16 -22 18 -59 42 -81 54 -22 11 -71 32 -110 45 -38 13 -88 28 -110 32 -22
5 -43 8 -48 7 -4 -1 -28 3 -54 8 -25 6 -118 11 -207 11 -89 0 -183 -4 -211
-10 -27 -6 -79 -17 -115 -25 -36 -7 -99 -25 -140 -39 -41 -14 -106 -38 -145
-52 -38 -15 -79 -29 -90 -33 -11 -3 -29 -11 -40 -19 -11 -7 -28 -13 -38 -13
-10 0 -40 -11 -67 -25 -27 -14 -60 -25 -73 -25 -14 0 -41 -7 -60 -15 -20 -8
-41 -15 -47 -15 -5 0 -10 4 -10 10 0 5 24 27 53 48 28 22 84 69 123 106 40 36
75 66 79 66 4 0 42 26 84 58 42 31 125 90 184 130 60 39 112 72 116 72 5 0 14
6 20 14 6 7 42 29 79 47 37 19 69 37 70 42 2 4 12 7 21 7 10 0 35 11 55 25 20
14 41 25 45 25 5 0 14 6 20 14 7 8 25 18 41 21 16 4 45 17 64 30 20 13 52 27
72 31 20 4 56 17 80 30 25 13 60 24 78 24 19 0 39 7 46 15 7 8 21 15 31 15 10
0 28 5 41 10 13 6 50 14 83 19 33 4 92 8 130 8z m-3623 -143 c29 -2 63 -13 88
-29 23 -14 40 -31 38 -38 -3 -7 -20 -20 -39 -29 -23 -13 -57 -18 -110 -18 -49
0 -101 7 -143 20 -36 12 -66 25 -66 30 0 6 6 11 13 11 6 1 17 2 22 3 6 1 17 5
25 9 8 4 40 15 70 26 33 11 74 17 102 15z m1549 -236 c14 -5 35 -26 47 -46 11
-20 28 -66 36 -102 9 -36 24 -83 32 -105 9 -22 34 -76 57 -120 22 -44 55 -98
74 -119 18 -22 33 -44 33 -49 0 -6 -19 -28 -42 -49 -24 -22 -79 -70 -123 -107
-44 -37 -110 -88 -146 -112 -36 -25 -86 -51 -112 -57 -25 -7 -56 -12 -67 -12
-12 0 -31 10 -41 23 -11 12 -31 47 -45 77 -14 30 -26 61 -28 70 -2 8 -6 22 -9
30 -3 8 -8 31 -12 50 -3 19 -8 62 -11 95 -3 33 -9 79 -13 101 -4 23 -9 100
-10 171 l-2 129 73 34 c40 18 105 46 143 63 39 16 86 33 105 36 19 4 47 3 61
-1z m2150 -563 c4 -3 16 -40 25 -83 11 -48 18 -120 18 -192 0 -89 -6 -143 -27
-242 -16 -70 -46 -178 -68 -240 -23 -62 -43 -121 -46 -131 -3 -10 -14 -34 -24
-54 -11 -21 -19 -43 -19 -50 0 -7 -9 -35 -21 -61 -11 -26 -27 -62 -35 -80 -8
-18 -14 -41 -14 -50 0 -10 -4 -22 -9 -27 -4 -6 -21 -44 -36 -85 -15 -41 -31
-80 -36 -85 -4 -6 -16 -44 -27 -85 -11 -41 -25 -88 -31 -103 -6 -16 -11 -53
-11 -83 0 -30 6 -70 14 -89 8 -19 24 -40 35 -47 12 -7 21 -18 21 -23 0 -6 -50
-45 -110 -86 -61 -40 -136 -89 -168 -108 -31 -18 -86 -48 -122 -66 -36 -18
-97 -47 -137 -64 -39 -17 -78 -31 -85 -31 -8 0 -18 -4 -23 -8 -6 -5 -37 -15
-70 -22 -33 -7 -74 -16 -91 -21 -19 -6 -41 -6 -57 0 -16 6 -27 20 -32 40 -3
16 1 81 10 143 9 62 21 131 27 153 6 22 15 44 20 49 4 6 8 25 8 43 0 19 6 44
14 56 8 12 22 56 32 97 10 41 39 120 64 175 26 55 51 111 55 125 4 14 18 41
30 60 12 19 24 42 28 50 4 8 18 33 32 55 14 22 30 51 37 65 7 14 16 27 19 30
4 3 17 23 30 45 12 22 34 60 48 85 14 25 36 55 48 66 13 12 23 24 23 28 0 4
12 24 27 44 15 20 39 51 53 68 14 17 32 40 41 51 9 12 28 40 42 64 15 24 41
60 59 79 18 19 41 51 51 70 11 19 29 46 42 60 12 14 39 48 60 75 21 28 62 77
92 110 30 33 62 73 70 90 9 16 38 56 66 87 27 32 53 55 58 53z m1564 -950 c80
-3 142 -11 185 -24 36 -10 85 -28 110 -39 25 -12 64 -40 87 -64 22 -24 51 -61
63 -83 18 -32 23 -56 23 -121 0 -45 -7 -103 -15 -130 -9 -27 -28 -87 -43 -134
-15 -47 -50 -128 -77 -180 -28 -52 -57 -102 -64 -111 -8 -8 -14 -18 -14 -21 0
-3 -17 -33 -37 -66 -21 -33 -57 -89 -80 -123 -23 -35 -53 -77 -66 -94 -13 -16
-27 -40 -31 -52 -4 -11 -13 -24 -21 -27 -8 -3 -15 -12 -15 -21 0 -8 -4 -15 -9
-15 -5 0 -26 21 -47 48 -21 26 -61 71 -88 100 -27 28 -54 52 -61 52 -6 0 -22
11 -35 25 -13 14 -29 25 -35 25 -7 0 -20 9 -30 20 -10 11 -63 42 -119 69 -56
27 -139 60 -186 74 -47 14 -119 33 -160 41 -41 8 -127 20 -190 26 -63 7 -242
12 -397 11 -156 -1 -283 2 -283 7 0 4 14 20 32 35 17 16 45 35 62 44 17 9 60
37 95 62 35 25 72 54 82 64 11 9 23 17 29 17 5 0 15 9 22 20 7 11 16 20 20 20
5 0 30 16 58 36 27 20 50 39 50 43 0 4 12 13 27 20 15 7 44 26 65 42 21 17 38
28 38 24 0 -4 14 5 31 19 17 14 35 26 41 26 6 0 20 8 31 18 10 9 40 29 65 44
26 15 58 33 72 39 14 7 31 13 38 15 8 1 21 9 30 16 10 8 35 22 57 33 22 10 61
29 86 42 26 13 53 23 61 23 7 0 31 9 53 20 22 11 47 20 57 20 9 0 19 4 22 9 3
5 20 12 38 15 18 4 58 11 88 17 30 5 80 14 110 19 30 4 109 7 175 5z m-3
-1533 c10 -26 25 -82 33 -126 8 -43 15 -124 15 -180 0 -68 -8 -140 -24 -221
-14 -66 -32 -146 -40 -178 -8 -31 -33 -100 -55 -152 -23 -52 -41 -100 -41
-106 0 -6 -6 -23 -14 -37 -8 -15 -35 -72 -61 -127 -25 -55 -51 -109 -57 -120
-6 -11 -17 -31 -24 -45 -7 -14 -27 -56 -44 -95 -18 -38 -39 -77 -47 -87 -13
-15 -18 -14 -65 15 -27 17 -68 52 -90 77 -22 25 -49 63 -61 85 -11 22 -25 65
-31 95 -7 32 -9 78 -4 110 4 30 9 84 13 119 3 35 14 83 24 107 11 23 17 44 15
47 -2 2 19 48 47 103 28 54 63 122 79 151 15 28 36 64 47 80 10 15 24 40 31
56 6 15 16 27 22 27 5 0 16 16 24 35 8 19 26 47 41 62 14 16 28 37 32 48 3 11
15 33 27 50 12 16 24 32 29 33 4 2 7 10 7 18 0 8 4 14 9 14 5 0 13 10 17 23 4
12 24 43 45 68 22 26 39 52 39 57 0 6 10 18 22 26 21 15 23 14 40 -32z m-317
-1596 c11 -3 58 -14 105 -25 47 -11 108 -22 136 -25 28 -3 99 -16 157 -30 59
-14 115 -26 125 -26 10 0 54 -17 98 -39 45 -21 91 -51 103 -67 16 -21 20 -35
15 -58 -3 -17 -23 -60 -44 -96 -21 -36 -71 -103 -111 -150 -39 -47 -75 -87
-78 -90 -4 -3 -36 -36 -71 -75 -36 -38 -80 -83 -100 -98 -19 -15 -55 -45 -80
-67 -25 -21 -70 -58 -100 -82 -30 -24 -69 -52 -85 -64 -17 -11 -66 -39 -110
-62 -44 -22 -114 -57 -156 -76 -42 -20 -81 -36 -88 -36 -6 0 -19 -4 -29 -9 -9
-6 -57 -22 -107 -36 -49 -14 -112 -32 -140 -40 -27 -9 -115 -28 -195 -45 -80
-16 -196 -37 -258 -46 -62 -9 -120 -13 -129 -10 -13 5 -9 12 23 33 21 15 45
32 51 37 7 6 23 19 35 28 13 10 50 39 83 65 32 27 117 104 188 173 71 69 154
157 185 195 31 39 64 79 74 90 10 11 48 61 85 110 36 50 92 128 124 175 33 46
59 90 59 97 0 6 6 16 13 20 6 4 19 20 27 35 8 15 39 69 69 120 30 51 66 112
80 136 20 33 31 42 46 38z m-3551 -1116 c34 0 99 -7 146 -15 47 -8 110 -20
140 -27 30 -6 57 -12 60 -13 3 -1 23 -5 45 -10 22 -4 47 -13 55 -20 8 -7 29
-16 47 -20 17 -3 37 -13 44 -21 6 -8 17 -14 25 -14 7 0 28 -9 46 -20 18 -10
51 -26 73 -34 22 -8 58 -22 80 -32 22 -10 46 -17 54 -15 7 1 25 -2 40 -8 14
-6 55 -18 91 -26 36 -8 83 -19 105 -24 22 -5 65 -13 95 -16 30 -3 66 -8 80
-10 14 -2 50 -6 80 -10 30 -3 73 -10 95 -15 22 -5 83 -12 135 -15 52 -3 168
-6 258 -5 90 0 166 1 170 1 4 1 11 1 16 0 5 0 -3 -10 -16 -21 -14 -11 -64 -40
-111 -64 -48 -25 -94 -49 -104 -54 -10 -5 -103 -51 -208 -102 -104 -50 -219
-106 -255 -122 -36 -17 -74 -34 -85 -38 -11 -5 -40 -16 -65 -25 -25 -10 -106
-37 -180 -62 -74 -24 -157 -49 -185 -54 -27 -6 -79 -15 -115 -21 -36 -6 -144
-12 -240 -14 -161 -2 -187 0 -306 25 -105 22 -153 38 -238 80 -59 30 -111 62
-117 72 -5 11 -16 19 -23 19 -8 0 -16 7 -20 15 -3 8 -16 20 -30 26 -13 6 -29
22 -34 34 -6 13 -21 35 -34 50 -13 14 -40 58 -60 96 -29 54 -38 82 -38 120 0
33 8 66 25 99 14 27 25 56 25 64 0 9 31 46 68 83 37 37 75 74 84 80 9 7 36 20
60 28 24 9 58 21 77 26 18 6 43 12 54 15 11 2 22 6 25 9 3 3 33 5 66 5z"/>
</g>
<g>
<path d="M9354 9699 c-16 -1 -39 -4 -52 -6 -13 -3 -32 -19 -43 -36 -10 -18
-19 -44 -19 -58 0 -15 7 -43 15 -63 10 -23 26 -41 43 -47 15 -6 41 -8 58 -4
22 4 44 20 69 51 29 36 36 50 30 71 -3 14 -21 41 -40 60 -23 23 -41 33 -61 32z"/>
</g>
<g>
<path d="M3731 7080 c-3 0 -11 -4 -18 -8 -6 -4 -38 -59 -70 -122 -32 -64 -63
-129 -70 -145 -6 -17 -32 -67 -57 -112 -24 -46 -59 -108 -77 -139 -17 -31 -49
-91 -70 -133 -20 -42 -49 -104 -63 -137 -14 -34 -44 -97 -66 -140 -23 -43 -57
-101 -76 -130 -19 -28 -34 -57 -34 -65 0 -8 -11 -47 -25 -87 -14 -41 -31 -86
-38 -100 -8 -15 -21 -43 -29 -62 -8 -19 -25 -57 -37 -84 -19 -42 -20 -53 -10
-78 6 -15 21 -30 33 -33 11 -2 37 -6 57 -10 20 -3 59 -8 87 -11 28 -3 113 -20
189 -39 76 -18 166 -41 201 -50 34 -10 65 -15 69 -12 3 3 8 26 10 51 4 28 1
51 -6 60 -6 8 -20 12 -30 9 -10 -2 -83 12 -162 33 -79 20 -166 40 -194 44 -27
4 -71 11 -97 15 -27 4 -48 13 -48 20 0 7 9 34 21 61 12 27 32 72 45 101 13 28
24 58 24 65 0 7 41 96 91 198 50 102 100 205 111 230 11 25 35 74 53 110 18
36 45 88 60 115 15 28 68 129 117 225 50 96 96 182 104 190 7 9 22 36 33 60
11 25 21 50 21 57 0 7 -10 21 -22 33 -12 11 -24 20 -27 20z"/>
</g>
<g>
<path d="M5068 6929 c-7 -1 -25 -4 -40 -6 -16 -3 -38 -19 -53 -39 -23 -30 -27
-43 -22 -80 2 -25 13 -54 23 -65 10 -11 34 -27 53 -35 26 -11 42 -12 65 -4 17
6 43 22 59 35 18 16 27 34 27 55 0 17 -6 44 -14 59 -8 15 -31 40 -50 54 -19
15 -41 26 -48 26z"/>
</g>
<g>
<path d="M2212 4744 c-92 6 -93 6 -102 -20 -6 -14 -10 -34 -10 -44 0 -10 16
-27 38 -40 33 -20 42 -21 79 -11 23 6 55 8 70 5 15 -2 154 -9 308 -14 154 -5
321 -14 370 -19 50 -6 155 -15 235 -20 80 -5 246 -17 370 -25 124 -8 297 -20
385 -26 88 -6 302 -15 475 -20 173 -5 329 -13 345 -18 17 -4 40 -7 52 -6 13 1
29 7 38 14 8 7 15 22 15 34 0 11 -8 31 -18 43 -11 13 -33 23 -62 27 -25 4
-166 9 -315 12 -148 2 -349 11 -445 19 -96 8 -188 13 -204 10 -15 -3 -130 4
-255 15 -124 11 -296 23 -381 26 -85 3 -182 9 -215 14 -33 5 -87 11 -120 14
-33 3 -114 6 -180 7 -66 1 -178 5 -250 10 -71 4 -172 11 -223 13z"/>
</g>
</g>
</svg>
