<?xml version="1.0" standalone="no"?>
<!DOCTYPE svg PUBLIC "-//W3C//DTD SVG 20010904//EN"
 "http://www.w3.org/TR/2001/REC-SVG-20010904/DTD/svg10.dtd">
<svg version="1.0" xmlns="http://www.w3.org/2000/svg"
 width="960.000000pt" height="1200.000000pt" viewBox="0 0 960.000000 1200.000000"
 preserveAspectRatio="xMidYMid meet">
<metadata>
Created by potrace 1.16, written by Peter Selinger 2001-2019
</metadata>
<g transform="translate(0.000000,1200.000000) scale(0.100000,-0.100000)"
fill="#000000" stroke="none">
<g>
<path d="M5810 10592 c-25 2 -58 2 -75 0 -16 -1 -61 -9 -100 -17 -38 -8 -110
-26 -160 -40 -49 -14 -112 -32 -140 -40 -27 -7 -88 -28 -135 -45 -47 -18 -143
-51 -215 -75 -71 -24 -146 -48 -165 -53 -19 -6 -93 -31 -165 -56 -71 -25 -174
-61 -227 -80 -54 -19 -139 -51 -190 -72 -51 -20 -133 -51 -183 -69 -49 -18
-112 -42 -140 -55 -27 -12 -79 -36 -114 -53 -35 -17 -108 -61 -162 -97 -54
-36 -137 -101 -185 -145 -48 -44 -120 -118 -159 -166 -65 -77 -74 -94 -89
-160 -12 -48 -16 -97 -13 -139 2 -36 11 -103 20 -150 8 -47 34 -134 56 -193
23 -59 45 -115 50 -125 5 -9 22 -46 39 -82 17 -36 44 -101 60 -145 17 -44 52
-116 78 -160 27 -44 60 -96 74 -115 14 -19 51 -63 84 -97 32 -34 82 -81 112
-103 29 -23 81 -56 116 -74 35 -18 74 -39 88 -48 14 -9 50 -26 80 -38 30 -12
64 -26 75 -30 11 -5 38 -14 60 -21 22 -6 56 -18 75 -25 19 -8 71 -21 115 -30
44 -9 98 -20 120 -26 22 -5 49 -11 60 -12 11 -1 31 -6 45 -11 14 -5 37 -8 51
-7 15 1 39 -5 55 -13 16 -8 46 -15 66 -15 20 0 49 -5 65 -11 15 -6 55 -13 88
-15 33 -3 73 -5 89 -5 15 0 47 -9 70 -20 25 -13 66 -22 106 -24 36 -2 85 -10
110 -19 25 -9 56 -16 69 -16 14 0 32 -6 40 -14 9 -8 28 -17 43 -20 15 -2 33
-8 39 -12 7 -4 26 -7 43 -6 17 0 40 -7 51 -17 11 -10 36 -24 56 -30 20 -6 43
-9 51 -6 9 4 33 -9 58 -30 24 -20 49 -34 57 -30 8 3 33 -10 56 -30 22 -19 44
-35 49 -35 5 0 25 -15 44 -32 20 -18 41 -36 48 -40 7 -4 38 -40 69 -81 32 -42
68 -104 83 -143 20 -53 28 -96 33 -189 4 -66 6 -137 3 -157 -2 -22 -9 -35 -16
-32 -6 2 -18 -13 -27 -34 -10 -20 -20 -55 -24 -77 -4 -22 -9 -56 -10 -75 -1
-19 -10 -51 -19 -70 -9 -19 -14 -27 -11 -17 2 9 0 17 -4 17 -5 0 -12 -7 -15
-16 -3 -9 -6 -20 -6 -25 0 -6 5 -7 11 -3 8 4 8 1 1 -12 -5 -11 -17 -36 -27
-56 -9 -21 -21 -35 -26 -32 -5 3 -6 -2 -3 -10 3 -8 -4 -36 -17 -61 -12 -25
-27 -45 -33 -46 -6 0 -26 -31 -43 -68 -18 -37 -43 -84 -57 -103 -13 -20 -27
-47 -31 -59 -4 -13 -27 -47 -51 -76 -24 -28 -44 -56 -44 -62 0 -6 -15 -32 -32
-58 -18 -26 -41 -54 -50 -61 -10 -7 -26 -32 -37 -55 -11 -23 -43 -69 -70 -102
-28 -33 -75 -94 -105 -135 -31 -41 -83 -109 -117 -150 -33 -41 -106 -128 -162
-192 -55 -65 -104 -118 -109 -118 -4 0 -18 -17 -32 -37 -13 -21 -79 -96 -146
-168 -67 -71 -299 -307 -514 -523 l-391 -393 -3 41 c-2 22 -7 40 -13 40 -5 0
-9 -9 -9 -20 0 -11 -4 -20 -10 -20 -5 0 -10 5 -10 12 0 9 -3 9 -12 -1 -11 -10
-10 -15 2 -24 9 -7 14 -20 12 -29 -2 -10 -8 -18 -13 -18 -5 0 -9 -12 -9 -26 0
-19 -27 -53 -107 -135 -60 -60 -110 -114 -111 -120 -2 -5 -39 -35 -82 -67 -43
-31 -91 -65 -106 -74 -16 -10 -54 -36 -84 -58 l-55 -41 -80 6 c-44 3 -110 11
-147 17 -38 6 -68 15 -68 19 0 5 16 21 35 36 19 15 35 31 35 36 0 4 -4 7 -10
7 -5 0 -27 -15 -47 -34 -30 -26 -41 -31 -49 -22 -7 7 -15 31 -19 54 -4 23 -11
44 -15 47 -5 3 -11 29 -15 58 -3 28 -10 119 -15 202 -5 82 -14 151 -19 153 -6
2 -7 24 -4 52 3 28 -2 98 -12 163 l-18 115 39 66 c21 36 44 64 49 62 6 -2 11
8 10 22 0 14 -6 27 -13 30 -8 2 -30 -10 -51 -26 l-38 -31 -11 52 c-6 29 -13
73 -17 100 -3 26 -10 45 -16 42 -5 -4 -9 -24 -9 -45 0 -21 -4 -41 -9 -44 -4
-3 -7 -35 -5 -72 2 -37 -1 -75 -6 -85 -7 -11 -6 -19 1 -21 8 -3 8 -15 0 -43
-6 -22 -22 -63 -36 -90 -14 -28 -23 -40 -20 -27 4 12 2 22 -4 22 -6 0 -11 -6
-12 -12 0 -7 -4 -4 -9 7 -5 11 -21 76 -35 144 -14 67 -30 176 -35 241 -6 73
-6 154 -1 212 6 51 15 108 22 127 l12 34 15 -36 c8 -20 18 -35 23 -32 4 3 12
-2 17 -12 5 -10 17 -49 26 -88 9 -38 20 -90 24 -115 5 -31 13 -46 25 -48 14
-3 17 2 13 20 -3 13 -12 57 -20 98 -8 41 -24 105 -35 141 -10 36 -24 75 -29
86 -6 11 -17 25 -24 31 -7 6 -27 12 -43 14 -28 3 -30 0 -36 -37 -4 -22 -12
-58 -19 -80 -6 -22 -13 -98 -15 -168 -3 -87 0 -156 10 -215 8 -48 22 -124 30
-168 8 -45 22 -108 30 -140 14 -54 14 -60 -1 -71 -9 -7 -15 -23 -13 -40 2 -16
-3 -37 -11 -48 -9 -11 -24 -26 -35 -32 -11 -7 -34 -19 -52 -27 -18 -8 -38 -24
-45 -35 -7 -12 -17 -21 -23 -21 -6 0 -24 -15 -41 -32 -17 -19 -33 -49 -36 -69
-4 -19 -20 -56 -38 -82 -18 -26 -33 -55 -35 -65 -2 -9 -4 -19 -5 -22 -1 -3 -2
-9 -1 -13 1 -4 -6 -21 -14 -37 -9 -17 -17 -30 -20 -30 -2 0 3 16 11 36 12 28
12 35 2 32 -7 -3 -18 -15 -24 -27 -7 -13 -17 -28 -23 -34 -6 -6 -11 -18 -11
-26 0 -9 -12 -27 -25 -40 -14 -13 -25 -20 -25 -17 0 4 11 24 25 46 14 22 25
42 25 45 0 3 -9 5 -20 5 -13 0 -20 -7 -20 -19 0 -11 -18 -54 -41 -95 -22 -42
-44 -76 -47 -76 -4 0 -38 -29 -75 -63 -67 -63 -68 -64 -46 -78 12 -8 23 -26
24 -40 2 -13 18 -54 37 -89 33 -63 34 -68 31 -155 l-4 -90 21 25 c17 20 19 21
11 4 -7 -15 -6 -28 5 -49 8 -15 12 -36 9 -46 -4 -11 2 -26 14 -38 12 -12 21
-30 21 -41 0 -11 5 -20 10 -20 6 0 10 -9 10 -19 0 -11 -4 -22 -9 -25 -5 -3
-11 -20 -13 -37 -3 -20 0 -33 9 -36 7 -3 13 -11 13 -18 0 -7 -20 -32 -45 -56
-25 -24 -45 -49 -45 -56 0 -7 -12 -19 -27 -27 -16 -8 -48 -34 -73 -57 -25 -22
-76 -61 -114 -86 -39 -25 -76 -47 -83 -50 -10 -4 -10 4 2 37 8 23 15 47 15 52
0 5 -4 7 -8 4 -5 -3 -28 -33 -51 -67 -25 -36 -41 -70 -39 -83 2 -13 11 -22 26
-24 12 -2 48 11 79 28 31 18 63 38 70 46 8 7 36 24 63 36 28 13 49 28 47 34
-1 7 43 53 97 103 84 77 104 91 133 91 18 0 33 4 33 9 0 5 17 7 39 4 25 -4 69
4 132 22 64 19 126 47 194 88 55 33 145 92 200 131 55 39 145 115 200 168
l101 97 59 -57 c33 -31 63 -56 66 -56 4 -1 16 -12 27 -26 11 -14 23 -22 27
-19 3 4 -10 24 -29 45 -20 22 -36 49 -36 60 0 12 -6 24 -13 27 -7 3 -19 24
-26 47 -12 41 -11 44 16 72 15 17 51 41 80 54 28 13 58 24 65 24 8 0 18 4 23
8 6 5 30 17 55 26 25 10 53 19 62 21 9 2 26 9 38 15 12 6 20 14 17 16 -2 2
-42 -7 -89 -20 -46 -14 -104 -32 -128 -40 l-43 -15 53 54 c30 30 51 57 48 61
-4 3 -16 1 -27 -5 -11 -6 -25 -20 -31 -31 -6 -11 -17 -20 -24 -20 -7 0 -27
-18 -45 -40 -20 -25 -44 -43 -62 -47 -16 -3 -32 -10 -35 -14 -3 -5 -11 -9 -19
-9 -7 0 -15 7 -19 15 -3 8 -2 24 2 35 4 12 19 28 34 38 14 9 51 34 82 55 31
20 61 37 66 37 6 0 10 -4 10 -10 0 -5 5 -10 10 -10 6 0 38 13 72 29 49 24 65
27 84 19 16 -7 52 -7 121 1 54 6 110 13 126 15 15 2 27 0 27 -5 0 -5 -4 -9
-10 -9 -5 0 -10 -7 -10 -15 0 -8 4 -15 9 -15 6 0 13 5 16 10 3 6 17 10 31 10
17 0 24 5 24 20 0 16 7 20 31 20 17 0 28 -4 24 -10 -3 -5 -3 -10 2 -10 4 0 19
3 31 7 18 4 20 8 10 14 -10 7 -9 9 4 9 9 0 18 -5 20 -11 2 -7 13 -7 33 1 17 7
39 13 50 15 11 2 99 17 195 33 96 17 191 33 211 35 20 3 42 8 48 11 6 4 11 14
11 22 0 8 -9 14 -22 14 -13 0 -50 -4 -83 -9 -33 -5 -100 -17 -150 -26 -49 -9
-155 -27 -235 -40 -80 -14 -150 -25 -157 -25 -8 0 -7 14 3 52 7 29 14 68 14
86 0 18 -4 31 -9 28 -5 -3 -12 -26 -15 -51 -4 -25 -11 -43 -15 -40 -5 2 -6 17
-3 31 3 18 1 25 -6 20 -6 -3 -16 -30 -22 -59 -6 -28 -14 -58 -18 -64 -5 -7
-33 -17 -63 -22 -30 -5 -80 -12 -111 -15 -51 -5 -58 -4 -58 11 -1 17 -1 17
-14 0 -10 -12 -20 -15 -34 -10 -19 7 -14 15 56 88 50 52 107 98 162 131 47 28
119 67 160 86 41 20 93 38 115 42 23 4 53 2 69 -4 16 -6 32 -8 35 -4 3 3 -3
12 -14 20 -14 11 -35 13 -85 8 -36 -4 -83 -15 -105 -24 l-40 -17 0 40 c0 39 7
47 413 456 228 229 467 472 531 541 65 69 138 148 163 175 25 28 83 93 129
145 46 52 90 102 98 110 8 8 84 102 170 210 86 107 179 227 206 265 27 39 52
72 55 75 4 3 47 64 96 135 49 72 108 159 129 195 22 36 51 81 63 100 13 19 59
107 102 195 43 88 93 201 110 250 18 50 39 104 46 121 7 17 21 57 29 90 9 32
19 106 22 164 5 96 3 112 -21 185 -15 44 -43 104 -62 133 -19 29 -58 75 -87
103 -28 28 -77 68 -107 89 -30 20 -86 53 -125 72 -38 19 -106 49 -150 66 -44
17 -118 42 -165 56 -47 14 -132 37 -190 50 -58 14 -155 34 -215 46 -61 11
-164 29 -230 40 -66 11 -185 32 -265 46 -80 15 -200 40 -267 56 -68 16 -171
47 -230 69 -59 22 -146 61 -193 86 -46 25 -109 64 -140 86 -30 23 -77 62 -104
87 -27 25 -68 70 -92 101 -24 31 -64 97 -90 145 -25 49 -68 139 -96 199 -27
61 -63 138 -79 173 -16 35 -41 97 -54 139 -14 41 -33 112 -42 156 -11 49 -18
122 -17 182 0 87 4 108 27 159 15 33 44 80 64 105 20 25 71 79 112 119 42 40
121 105 176 145 55 39 136 90 180 112 44 23 136 63 205 89 69 26 166 63 215
82 50 20 99 39 110 44 11 5 54 21 95 36 41 14 253 86 470 160 217 74 447 149
510 168 63 19 150 42 193 50 43 9 110 19 150 22 61 5 86 2 162 -21 50 -15 101
-28 115 -29 14 0 26 3 28 8 2 5 -18 17 -45 26 -26 10 -75 25 -108 33 -33 9
-80 18 -105 19z m-2909 -6498 c4 -30 4 -93 0 -142 -3 -48 -3 -109 0 -137 3
-27 3 -63 -1 -80 -6 -29 -6 -29 -27 20 -11 28 -35 94 -52 147 -27 82 -30 100
-20 120 6 13 26 41 43 63 17 22 35 45 41 51 7 8 12 -5 16 -42z m-166 -164 c2
0 16 -24 30 -53 14 -30 25 -60 25 -68 0 -8 -5 -6 -11 6 -6 11 -24 32 -41 46
-26 23 -28 30 -19 48 7 12 14 21 16 21z m-49 -80 c2 0 10 -13 19 -29 8 -16 23
-69 34 -118 11 -48 21 -101 23 -117 2 -24 8 -30 32 -33 16 -2 32 1 36 8 4 6
-1 48 -11 93 -10 44 -21 91 -25 104 -4 13 -2 22 5 22 6 0 11 -11 11 -24 0 -13
6 -29 14 -35 8 -6 16 -21 19 -31 3 -11 1 -20 -4 -20 -5 0 -9 -6 -9 -14 0 -7
10 -35 22 -62 12 -27 23 -52 24 -56 1 -5 3 -9 4 -10 1 -2 3 -46 4 -98 1 -52 6
-106 10 -119 7 -20 13 -23 45 -17 35 5 37 4 60 -40 14 -25 30 -43 36 -40 7 2
18 -7 24 -21 6 -13 9 -28 6 -33 -3 -5 3 -7 14 -5 13 2 20 -3 23 -20 3 -15 -2
-29 -15 -40 -11 -10 -26 -18 -34 -19 -8 -1 -18 -9 -23 -16 -5 -8 -12 -11 -16
-8 -3 4 -32 -2 -63 -14 -31 -11 -65 -28 -76 -38 -16 -13 -42 -17 -127 -19 -59
-1 -126 3 -149 9 -37 10 -39 13 -23 25 15 11 16 15 5 29 -9 11 -10 16 -2 16 6
0 11 -4 11 -10 0 -5 16 -8 35 -6 20 1 41 8 48 15 9 9 3 11 -30 5 -36 -5 -43
-4 -43 10 0 9 4 16 9 16 5 0 11 -6 14 -12 3 -9 15 -3 36 16 17 17 31 34 31 39
0 5 -6 4 -13 -2 -8 -6 -17 -8 -20 -4 -4 3 -17 -2 -28 -13 -21 -19 -22 -19 -15
4 4 12 3 22 -1 22 -5 0 -21 -13 -36 -28 -15 -15 -27 -34 -27 -41 0 -7 -8 -11
-17 -9 -10 2 -23 -3 -30 -12 -10 -13 -12 -11 -18 13 -4 15 -11 27 -16 27 -5 0
-9 -5 -9 -11 0 -8 -5 -8 -15 1 -8 7 -15 18 -14 24 1 6 1 23 0 39 -1 18 -6 27
-17 27 -15 0 -16 9 -10 62 3 34 22 108 42 166 19 58 50 134 68 171 18 36 59
109 90 161 32 52 63 101 68 108 6 6 12 12 14 12z m-79 -40 c1 0 -19 -37 -44
-82 -25 -46 -53 -94 -62 -108 -9 -14 -26 -45 -38 -70 -12 -25 -31 -70 -44
-100 -12 -30 -30 -86 -41 -125 -11 -38 -22 -99 -25 -135 l-5 -66 46 -56 c28
-34 63 -65 92 -79 26 -12 82 -27 126 -33 47 -6 78 -15 78 -22 0 -6 -6 -11 -12
-11 -7 1 -45 -2 -84 -6 -43 -5 -98 -4 -140 3 -38 6 -91 22 -119 36 -27 13 -76
47 -107 75 -46 40 -58 57 -58 80 0 16 28 83 64 151 35 68 76 135 90 149 14 14
26 30 26 35 0 6 11 26 25 45 14 19 32 43 40 54 8 11 38 51 66 89 28 38 55 80
60 93 5 13 5 23 0 23 -5 0 -11 -7 -15 -15 -3 -8 -11 -15 -17 -15 -7 0 -2 12
12 26 13 15 38 35 54 45 17 11 31 19 32 19z m1291 -151 c3 -23 -2 -35 -15 -43
-10 -6 -45 -26 -78 -44 l-60 -34 75 77 75 76 3 -32z m-1430 16 c2 -2 -4 -17
-13 -34 -8 -17 -20 -31 -25 -31 -5 0 1 15 13 34 12 18 23 32 25 31z m1051
-326 c11 1 11 -2 1 -14 -7 -8 -16 -13 -20 -10 -5 3 -15 -3 -22 -13 -7 -11 -24
-23 -38 -27 -19 -6 -14 2 20 28 25 20 51 36 59 36z m-402 -73 c15 -4 63 -10
106 -13 42 -3 77 -9 77 -14 0 -5 -10 -14 -22 -20 -13 -7 -43 -29 -67 -49 -29
-25 -50 -36 -63 -32 -15 4 -17 7 -6 13 10 6 10 11 0 21 -9 9 -12 9 -12 -2 0
-10 -4 -8 -14 5 -7 11 -16 37 -20 59 -7 38 -7 39 21 32z m-713 -117 c2 -2 9
-15 15 -29 11 -24 11 -24 -3 -6 -9 11 -16 24 -16 30 0 5 2 7 4 5z m770 -59 c2
0 6 -9 9 -20 3 -11 1 -18 -4 -14 -5 3 -9 12 -9 20 0 8 2 14 4 14z m-54 -20 c5
0 11 -4 15 -10 3 -5 -8 -16 -26 -25 -17 -9 -33 -15 -35 -13 -2 3 5 14 16 26
12 12 25 22 30 22z m-568 -40 c6 0 6 -6 -2 -15 -7 -9 -15 -13 -17 -11 -3 3 -2
9 2 15 3 6 11 11 17 11z m566 -30 c2 0 12 -5 23 -10 10 -6 19 -15 19 -21 0 -6
-19 -32 -42 -57 -24 -25 -56 -57 -72 -71 -17 -14 -55 -49 -85 -77 -31 -29
-112 -90 -181 -136 -69 -46 -147 -93 -175 -104 -27 -12 -76 -29 -108 -39 -36
-11 -71 -15 -92 -11 -19 4 -37 11 -40 15 -3 5 -3 15 0 23 3 7 20 23 38 34 31
21 35 21 60 6 14 -9 30 -13 34 -8 4 4 -3 15 -16 25 l-23 18 36 22 c20 13 42
32 50 43 8 11 12 26 9 33 -2 8 8 20 26 29 16 9 34 16 38 16 4 -1 -4 -8 -19
-16 -16 -8 -28 -19 -28 -24 0 -6 2 -10 4 -10 3 0 16 4 30 10 14 5 26 16 26 25
0 8 4 15 9 15 6 0 39 29 75 64 36 35 63 66 60 69 -4 3 -31 -12 -63 -34 -31
-21 -81 -57 -111 -79 -30 -22 -71 -48 -90 -56 -19 -9 -51 -30 -70 -46 -19 -16
-49 -42 -65 -58 l-30 -29 -12 27 c-7 15 -21 56 -33 92 -12 36 -30 84 -41 107
-10 24 -19 48 -19 55 0 6 8 20 17 30 17 19 16 19 -10 13 -24 -6 -29 -3 -41 26
-7 19 -17 45 -21 59 l-7 25 23 -21 c13 -12 42 -30 64 -42 22 -11 65 -29 95
-40 30 -12 76 -26 103 -33 29 -7 47 -17 47 -26 0 -11 5 -13 18 -8 9 4 37 11
62 15 25 4 68 13 95 20 28 6 64 18 81 26 17 7 39 24 49 37 10 14 28 25 41 25
l24 0 -25 -20 c-14 -11 -25 -27 -25 -35 0 -14 2 -14 18 0 10 10 22 17 27 17 5
0 38 15 74 34 36 18 77 37 90 41 16 5 21 4 17 -4 -4 -6 -1 -11 6 -11 7 0 22 7
32 15 11 8 22 15 24 15z"/>
<g>
<path d="M2549 3450 c-5 0 -7 -4 -4 -10 3 -5 8 -10 11 -10 2 0 4 5 4 10 0 6
-5 10 -11 10z"/>
</g>
<g>
<path d="M2747 3380 c-8 0 -17 -3 -20 -7 -4 -3 -7 -12 -7 -20 0 -7 6 -13 14
-13 8 0 17 7 20 16 3 9 6 18 6 20 0 2 -6 4 -13 4z"/>
</g>
<g>
<path d="M2520 3340 c-5 0 -10 -7 -10 -16 0 -8 5 -12 10 -9 6 3 10 10 10 16 0
5 -4 9 -10 9z"/>
</g>
<g>
<path d="M2470 3290 c-5 0 -10 -4 -10 -10 0 -5 5 -10 10 -10 6 0 10 5 10 10 0
6 -4 10 -10 10z"/>
</g>
<g>
<path d="M2895 3270 c-8 0 -19 -9 -25 -20 -8 -15 -8 -20 3 -20 7 0 18 5 25 12
7 7 12 16 12 20 0 4 -7 8 -15 8z"/>
</g>
<g>
<path d="M2571 3254 c-6 4 -15 -3 -21 -14 -6 -11 -7 -20 -2 -20 5 0 15 6 21
14 8 9 8 16 2 20z"/>
</g>
<g>
<path d="M2522 3142 c-5 5 -11 5 -15 2 -4 -4 -7 -16 -7 -26 0 -10 4 -18 9 -18
5 0 12 8 15 17 4 9 3 20 -2 25z"/>
</g>
<g>
<path d="M2783 3079 c-5 -1 -26 -5 -47 -8 -22 -3 -41 -12 -44 -19 -3 -10 6
-12 39 -7 24 4 47 9 51 11 5 3 8 9 8 15 0 5 -3 8 -7 8z"/>
</g>
<g>
<path d="M2240 3150 c-5 0 -10 -7 -10 -16 0 -8 5 -12 10 -9 6 3 10 10 10 16 0
5 -4 9 -10 9z"/>
</g>
<g>
<path d="M2810 2900 c-5 0 -10 -5 -10 -11 0 -5 5 -7 10 -4 6 3 10 8 10 11 0 2
-4 4 -10 4z"/>
</g>
<g>
<path d="M2370 2840 c-5 0 -10 -4 -10 -10 0 -5 5 -10 10 -10 6 0 10 5 10 10 0
6 -4 10 -10 10z"/>
</g>
<g>
<path d="M2426 2790 c-3 0 -7 -4 -10 -9 -3 -4 3 -16 13 -25 13 -12 21 -14 26
-7 3 6 0 18 -9 26 -8 8 -17 15 -20 15z"/>
</g>
<g>
<path d="M2300 2770 c-5 0 -10 -7 -10 -15 0 -8 5 -15 10 -15 6 0 10 7 10 15 0
8 -4 15 -10 15z"/>
</g>
<g>
<path d="M2484 2750 c-13 0 -24 -4 -24 -10 0 -5 11 -12 25 -16 14 -4 28 -4 31
-1 4 3 3 10 -1 16 -3 6 -17 11 -31 11z"/>
</g>
</g>
<g>
<path d="M5450 10159 c-25 -1 -103 -10 -175 -20 -71 -11 -149 -28 -172 -39
-24 -11 -45 -20 -48 -20 -3 0 -22 -11 -43 -24 -20 -12 -48 -27 -62 -31 -14 -4
-72 -43 -130 -86 -58 -42 -117 -88 -131 -101 -14 -13 -44 -39 -66 -59 -22 -20
-73 -77 -112 -125 -39 -49 -87 -120 -105 -159 -18 -38 -45 -104 -59 -146 -15
-42 -34 -120 -43 -175 -11 -71 -14 -137 -11 -236 4 -108 11 -156 32 -230 15
-51 48 -136 73 -188 35 -71 63 -111 112 -161 41 -41 95 -82 145 -109 44 -24
96 -52 115 -63 19 -10 64 -25 100 -33 36 -8 88 -16 115 -19 28 -2 91 -7 140
-11 50 -4 115 -8 145 -9 30 -1 75 3 100 8 25 6 59 18 75 28 17 9 50 20 73 23
24 4 60 15 80 26 21 10 83 61 138 112 56 51 124 120 150 153 27 33 60 80 73
105 13 25 30 51 37 59 11 12 23 10 81 -10 37 -13 80 -31 95 -41 15 -10 46 -28
70 -39 24 -11 52 -26 63 -32 11 -7 51 -31 87 -54 37 -24 71 -43 75 -43 5 0 34
-24 66 -53 l59 -52 -28 -40 c-15 -22 -60 -89 -101 -149 -40 -61 -97 -135 -126
-165 -29 -31 -60 -67 -69 -81 -9 -14 -41 -53 -72 -87 -31 -33 -56 -67 -56 -75
0 -7 16 -29 36 -47 20 -19 53 -58 75 -87 21 -29 60 -92 85 -141 26 -48 50 -90
53 -93 3 -3 11 -16 18 -30 6 -14 25 -63 42 -110 17 -47 35 -103 40 -125 6 -22
21 -122 36 -222 18 -135 25 -225 25 -347 0 -91 -5 -196 -10 -233 -6 -38 -19
-126 -30 -198 -11 -71 -26 -159 -34 -195 -9 -36 -20 -94 -26 -130 -6 -36 -28
-121 -50 -190 -21 -69 -57 -185 -80 -258 -23 -72 -52 -156 -66 -185 -13 -28
-28 -59 -33 -67 -6 -8 -29 -53 -51 -99 -23 -47 -54 -103 -69 -125 -15 -23 -45
-75 -66 -116 -21 -41 -61 -108 -89 -149 -28 -40 -58 -83 -66 -95 -8 -12 -28
-40 -45 -61 -16 -22 -32 -42 -35 -45 -3 -3 -30 -34 -60 -70 -30 -36 -226 -237
-436 -447 -210 -211 -387 -383 -393 -383 -6 0 -11 -9 -11 -20 0 -11 21 -57 46
-102 25 -46 51 -90 59 -98 7 -8 16 -25 19 -37 4 -12 32 -59 63 -105 31 -46 60
-85 63 -88 4 -3 27 -35 52 -71 25 -36 53 -75 62 -85 10 -11 34 -43 54 -72 20
-28 56 -80 80 -115 23 -34 53 -78 67 -97 14 -19 40 -58 60 -87 19 -28 48 -66
65 -85 17 -18 56 -65 86 -105 38 -49 54 -77 50 -90 -3 -10 -34 -46 -68 -80
-35 -34 -79 -76 -98 -93 -19 -18 -55 -48 -80 -68 -25 -20 -79 -67 -122 -104
-42 -37 -81 -68 -87 -68 -8 0 -9 -14 -5 -42 4 -24 10 -47 14 -52 5 -4 14 2 20
15 7 13 29 40 50 59 21 19 96 87 166 150 71 63 161 145 200 182 40 38 78 68
85 68 8 0 8 4 2 13 -6 6 -13 23 -16 37 -3 14 -27 50 -52 80 -25 30 -77 91
-114 135 -37 44 -90 112 -116 150 -27 39 -74 107 -104 151 -31 45 -71 99 -88
120 -18 22 -55 70 -83 107 -27 37 -50 70 -50 73 0 2 -24 37 -52 77 -29 40 -61
88 -72 107 -10 19 -30 54 -43 78 -13 24 -31 61 -38 82 l-14 40 199 202 c109
112 265 271 347 353 81 83 162 162 180 176 17 13 71 74 120 134 48 61 118 155
154 210 36 55 89 138 116 185 28 47 72 126 98 175 27 50 65 124 86 165 20 41
46 95 57 120 11 25 37 107 59 182 21 76 42 138 47 138 5 0 55 -18 110 -41 56
-22 164 -72 241 -109 77 -37 189 -91 248 -119 60 -28 111 -51 114 -51 4 0 14
-6 22 -14 9 -7 94 -54 189 -102 132 -68 174 -94 179 -111 3 -13 0 -49 -5 -80
-6 -32 -25 -121 -41 -198 -17 -77 -34 -154 -39 -171 -6 -17 -13 -60 -16 -95
-4 -35 -18 -134 -31 -219 -13 -85 -26 -168 -29 -185 -2 -16 -9 -52 -14 -80 -6
-27 -13 -97 -17 -155 -3 -58 -15 -139 -26 -182 -10 -42 -19 -92 -19 -111 0
-20 -7 -71 -15 -114 -8 -43 -20 -116 -25 -163 -6 -47 -24 -152 -40 -235 -16
-82 -34 -199 -40 -260 -6 -60 -18 -141 -27 -180 -9 -38 -17 -110 -19 -160 -2
-49 -8 -160 -13 -246 -4 -86 -11 -161 -15 -167 -3 -5 -10 -41 -16 -78 -6 -38
-20 -141 -31 -229 -11 -88 -24 -209 -30 -270 -6 -60 -13 -138 -15 -172 -3 -33
-11 -68 -17 -76 -8 -10 -45 -19 -112 -26 -55 -6 -138 -15 -185 -21 -47 -5
-175 -12 -285 -16 -110 -3 -206 -7 -212 -9 -7 -3 -13 -13 -13 -24 0 -10 8 -22
17 -26 10 -3 67 -3 128 0 60 4 148 8 195 10 47 2 137 8 200 14 63 6 162 17
220 24 l105 12 3 45 c1 25 12 128 23 230 11 102 23 214 25 250 3 36 9 88 15
115 5 28 11 75 14 105 3 30 12 89 21 130 9 41 17 116 20 165 2 50 6 106 9 125
3 19 10 98 15 175 5 77 14 169 19 205 5 36 15 103 21 150 6 47 22 139 35 205
13 66 35 188 49 270 14 83 30 188 36 235 6 47 17 112 24 145 8 33 17 103 20
155 4 52 11 124 16 160 6 36 19 121 31 190 11 69 26 168 34 220 7 52 25 149
40 215 14 66 33 147 41 180 7 33 23 107 34 165 11 57 27 129 35 160 8 30 25
114 39 185 14 72 36 198 50 280 14 83 39 236 55 340 16 105 35 243 42 308 7
64 16 117 19 117 4 0 34 -25 66 -55 33 -31 110 -105 172 -166 62 -60 117 -107
122 -104 6 3 10 14 10 24 0 10 -81 99 -181 198 l-181 181 12 91 c8 57 11 134
7 204 -4 62 -11 164 -16 227 -6 63 -15 198 -20 300 -6 102 -17 226 -26 275 -9
50 -31 144 -51 210 -19 66 -39 138 -45 160 -6 22 -20 65 -31 95 -11 30 -25 75
-32 100 -8 25 -26 77 -42 115 -15 39 -37 86 -49 105 -12 19 -33 55 -47 80 -14
25 -49 85 -78 135 -30 50 -78 114 -109 143 l-56 54 115 -59 c63 -33 137 -75
163 -93 26 -19 77 -50 112 -70 36 -19 117 -68 182 -109 64 -40 121 -78 127
-83 6 -5 25 -17 43 -26 18 -9 73 -45 122 -79 50 -35 95 -63 100 -63 5 0 16 -6
23 -12 7 -7 40 -31 73 -53 33 -21 72 -49 86 -60 14 -12 52 -34 85 -50 32 -17
67 -37 76 -45 9 -8 34 -24 55 -35 21 -11 59 -34 85 -52 26 -18 51 -33 54 -33
3 0 18 -9 32 -21 15 -11 58 -40 97 -65 38 -24 75 -44 81 -44 7 0 15 4 18 9 4
5 3 17 0 26 -4 9 -31 33 -62 53 -30 20 -67 44 -81 52 -14 8 -57 36 -96 61 -38
25 -117 74 -173 108 -57 33 -106 61 -108 61 -3 0 -105 67 -227 149 -122 82
-285 188 -362 237 -77 48 -171 106 -208 128 -38 23 -83 50 -101 61 -18 11 -59
36 -92 56 -32 19 -86 48 -119 63 -33 16 -72 37 -87 47 -14 11 -58 32 -96 48
-38 15 -92 41 -118 58 -27 16 -61 33 -76 37 -16 3 -28 2 -28 -3 0 -5 -24 -43
-54 -83 -30 -40 -59 -78 -63 -83 -4 -6 -33 -42 -63 -80 -31 -39 -70 -92 -88
-118 -18 -26 -32 -52 -32 -58 0 -5 -4 -9 -8 -9 -5 0 -13 -9 -18 -20 -9 -19
-11 -18 -54 16 -25 20 -74 55 -110 79 -36 23 -83 54 -106 68 -22 14 -95 52
-161 86 -67 34 -130 61 -142 61 -12 0 -21 3 -21 8 0 4 21 43 46 86 25 43 61
121 80 173 19 53 44 141 55 197 11 56 23 142 26 191 4 65 1 115 -12 180 -9 50
-24 110 -33 135 -8 25 -43 90 -76 144 -37 60 -86 124 -124 160 -35 34 -86 76
-115 94 -28 18 -85 45 -127 61 -42 16 -114 34 -165 40 -49 6 -110 10 -135 10z
m16 -70 c45 0 119 -6 165 -15 46 -9 112 -29 147 -45 35 -16 82 -42 105 -58 23
-16 65 -52 94 -80 28 -29 73 -86 99 -128 26 -43 58 -102 70 -133 12 -30 28
-93 36 -138 10 -60 11 -110 5 -175 -4 -51 -17 -130 -28 -177 -11 -47 -29 -112
-41 -145 -11 -33 -45 -109 -75 -170 -30 -60 -61 -117 -68 -125 -7 -8 -28 -42
-46 -75 -18 -33 -51 -82 -73 -109 -23 -28 -75 -84 -116 -126 -41 -42 -92 -88
-113 -104 -22 -16 -62 -37 -90 -47 -28 -10 -79 -24 -112 -30 -33 -6 -65 -15
-72 -21 -7 -6 -79 -7 -185 -5 -95 3 -189 7 -208 9 -19 3 -55 8 -80 13 -25 4
-67 18 -95 30 -27 12 -81 41 -120 65 -38 23 -89 58 -112 77 -23 18 -48 45 -55
58 -7 13 -28 49 -45 79 -18 31 -50 104 -70 163 l-38 108 0 190 c0 130 4 206
14 240 7 28 25 84 38 125 14 41 41 104 61 140 19 36 57 93 84 127 27 34 83 94
125 133 42 39 113 99 159 133 45 34 131 87 191 118 59 31 126 59 148 63 22 4
56 9 75 12 19 3 60 9 90 13 30 5 92 9 136 10z m1521 -1349 c6 0 29 -10 50 -22
21 -12 85 -62 143 -111 58 -49 117 -103 131 -120 15 -18 71 -109 127 -203 75
-130 111 -204 145 -300 25 -71 52 -154 60 -184 9 -30 27 -95 42 -145 14 -49
32 -117 40 -150 8 -33 22 -114 30 -180 9 -66 17 -172 19 -235 2 -63 9 -189 15
-280 7 -91 12 -203 12 -250 -1 -47 -4 -107 -8 -133 l-8 -49 -40 32 c-22 17
-101 91 -175 164 -74 72 -180 171 -236 218 -55 48 -114 99 -130 115 -17 15
-97 93 -179 173 -83 80 -195 181 -250 225 -55 44 -133 108 -172 142 -40 35
-76 63 -81 63 -4 0 -19 11 -33 24 -15 14 -70 59 -123 100 -53 41 -103 79 -113
84 -15 9 -14 13 8 43 12 19 41 56 64 83 22 27 59 70 82 97 23 27 59 75 79 106
20 32 51 76 69 98 17 22 46 67 65 100 18 33 52 89 76 125 24 36 58 86 76 111
18 26 71 94 118 153 46 58 90 106 97 106z m-692 -1130 c3 0 20 -10 38 -22 18
-13 57 -43 87 -68 30 -25 72 -58 92 -73 20 -15 39 -27 42 -27 2 0 22 -17 43
-38 21 -20 61 -55 88 -77 28 -22 91 -74 140 -116 50 -41 151 -136 225 -209 74
-73 180 -171 235 -219 55 -47 116 -99 135 -116 19 -16 95 -89 170 -162 74 -72
147 -142 163 -155 26 -22 27 -24 17 -83 -5 -33 -10 -76 -12 -95 -1 -19 -5 -39
-8 -45 -4 -5 -10 -48 -14 -95 -4 -47 -9 -103 -11 -125 -3 -21 -7 -46 -11 -55
-3 -8 -14 -69 -25 -135 -10 -66 -25 -149 -32 -185 -8 -36 -22 -117 -32 -180
-9 -63 -28 -160 -41 -215 -13 -56 -24 -111 -24 -123 0 -12 -5 -22 -11 -22 -6
0 -25 10 -42 23 -17 12 -96 57 -176 100 -80 43 -213 111 -296 151 -82 40 -220
107 -305 148 -85 41 -185 87 -222 103 -38 15 -68 32 -68 36 0 4 11 43 24 86
13 43 38 152 55 243 17 91 40 228 51 305 12 77 23 213 27 302 4 106 2 200 -7
270 -6 59 -23 169 -36 243 -13 74 -40 182 -60 240 -20 58 -61 150 -92 205 -30
55 -68 119 -84 143 -16 23 -26 42 -23 42z"/>
<g>
<path d="M5067 9120 c-7 0 -23 -7 -35 -16 -12 -8 -22 -26 -22 -39 0 -14 8 -29
19 -35 11 -5 30 -10 43 -10 13 0 29 5 36 12 7 7 12 20 12 30 0 10 -9 27 -20
38 -11 11 -26 20 -33 20z"/>
</g>
<g>
<path d="M5765 8960 c-1 0 -7 -6 -13 -12 -5 -7 -13 -26 -16 -43 -4 -16 -8 -43
-11 -60 -2 -16 -9 -55 -14 -85 -6 -30 -22 -122 -36 -203 -14 -82 -23 -153 -20
-158 4 -5 13 -9 20 -9 8 0 19 8 24 19 6 10 15 43 20 72 5 30 17 99 26 154 9
55 25 139 36 187 19 82 19 89 3 113 -9 14 -17 25 -19 25z"/>
</g>
<g>
<path d="M5478 8740 c-10 0 -18 -1 -19 -2 0 -2 -2 -12 -4 -22 -2 -11 -6 -30
-10 -43 -3 -13 -13 -23 -23 -23 -9 0 -51 12 -92 25 -41 14 -89 25 -107 25 -17
0 -35 -5 -38 -11 -4 -5 1 -19 11 -30 9 -10 25 -19 35 -19 11 0 53 -12 94 -26
41 -14 96 -26 122 -27 l47 -2 19 63 c19 62 19 64 1 77 -11 8 -27 15 -36 15z"/>
</g>
<g>
<path d="M4912 8408 c-13 2 -27 -6 -37 -22 -13 -19 -14 -29 -5 -45 7 -14 21
-21 40 -21 24 0 31 5 36 27 4 14 2 33 -3 42 -6 9 -19 17 -31 19z"/>
</g>
</g>
<g>
<path d="M5198 7350 c-17 0 -31 -8 -38 -21 -7 -11 -9 -31 -6 -44 4 -14 16 -25
32 -29 16 -4 35 -1 49 8 12 8 25 24 28 35 3 14 -2 26 -16 36 -12 8 -34 15 -49
15z"/>
</g>
<g>
<path d="M4492 7120 c-5 0 -15 -7 -22 -15 -10 -12 -8 -38 9 -132 12 -65 33
-190 46 -278 13 -88 29 -178 35 -200 7 -22 15 -58 18 -80 5 -28 13 -41 26 -43
10 -2 23 1 28 6 7 7 3 57 -12 148 -12 77 -33 207 -46 289 -14 83 -29 177 -34
209 -5 33 -7 63 -4 67 2 5 -4 13 -15 18 -11 6 -24 11 -29 11z"/>
</g>
<g>
<path d="M4793 7006 c-7 1 -16 -3 -21 -9 -5 -7 -9 -28 -10 -47 -1 -19 -4 -46
-7 -60 -3 -14 -1 -31 4 -38 4 -8 19 -12 32 -10 21 3 24 9 27 51 2 29 9 50 17
53 7 3 67 -4 132 -16 65 -11 125 -23 134 -24 9 -2 22 0 29 4 7 4 10 15 7 23
-3 9 -27 17 -64 21 -32 4 -83 13 -113 21 -30 7 -77 17 -105 21 -27 4 -55 8
-62 10z"/>
</g>
<g>
<path d="M2911 6774 c-5 4 -12 2 -15 -3 -4 -5 -2 -12 3 -15 5 -4 12 -2 15 3 4
5 2 12 -3 15z"/>
</g>
<g>
<path d="M2790 6470 c-5 0 -10 -5 -10 -11 0 -5 5 -7 10 -4 6 3 10 8 10 11 0 2
-4 4 -10 4z"/>
</g>
<g>
<path d="M5327 6448 c-31 3 -39 -1 -46 -20 -4 -12 -6 -30 -3 -40 2 -10 13 -23
24 -29 10 -6 31 -9 45 -7 14 2 30 10 36 19 7 11 5 25 -4 45 -11 23 -22 30 -52
32z"/>
</g>
<g>
<path d="M4111 6240 c-6 0 -12 -4 -16 -9 -3 -5 -1 -12 3 -15 5 -3 12 -3 16 1
3 3 6 10 6 15 0 4 -4 8 -9 8z"/>
</g>
<g>
<path d="M1271 5944 c-4 3 -11 3 -15 -1 -3 -3 -6 -12 -6 -20 0 -7 7 -13 15
-13 8 0 15 6 15 14 0 8 -4 17 -9 20z"/>
</g>
<g>
<path d="M4865 5370 c-8 0 -15 -7 -15 -15 0 -8 7 -15 15 -15 8 0 15 7 15 15 0
8 -7 15 -15 15z"/>
</g>
<g>
<path d="M4129 5320 c-5 0 -7 -4 -4 -10 3 -5 8 -10 11 -10 2 0 4 5 4 10 0 6
-5 10 -11 10z"/>
</g>
<g>
<path d="M2906 4940 c-3 0 -7 -4 -11 -9 -3 -5 -1 -12 5 -16 5 -3 10 1 10 9 0
9 -2 16 -4 16z"/>
</g>
<g>
<path d="M4404 4790 c-2 0 -4 -4 -4 -10 0 -5 5 -10 11 -10 5 0 7 5 4 10 -3 6
-8 10 -11 10z"/>
</g>
<g>
<path d="M2787 4703 c-3 6 -5 1 -5 -13 0 -14 2 -19 5 -12 2 6 2 18 0 25z"/>
</g>
<g>
<path d="M2620 4650 c-5 0 -10 -9 -10 -21 0 -11 5 -17 10 -14 6 3 10 13 10 21
0 8 -4 14 -10 14z"/>
</g>
<g>
<path d="M4182 4620 c-5 0 -12 -3 -15 -7 -4 -3 -7 -10 -7 -14 0 -5 7 -6 15 -3
8 4 15 10 15 15 0 5 -4 9 -8 9z"/>
</g>
<g>
<path d="M3951 4489 c-6 8 -11 9 -15 3 -3 -6 -1 -14 5 -17 5 -4 12 -5 14 -3 2
2 0 10 -4 17z"/>
</g>
<g>
<path d="M4881 4460 c-6 0 -13 -5 -16 -11 -4 -6 -5 -13 -2 -16 3 -3 10 -2 16
2 6 3 11 10 11 16 0 5 -4 9 -9 9z"/>
</g>
<g>
<path d="M2656 4277 c-3 4 -6 -2 -5 -13 0 -11 3 -14 6 -6 3 7 2 16 -1 19z"/>
</g>
<g>
<path d="M3480 4220 c-5 0 -10 -4 -10 -10 0 -5 5 -10 10 -10 6 0 10 5 10 10 0
6 -4 10 -10 10z"/>
</g>
<g>
<path d="M3031 4190 c-5 0 -13 -4 -16 -10 -3 -5 -2 -10 4 -10 5 0 13 5 16 10
3 6 2 10 -4 10z"/>
</g>
<g>
<path d="M3123 4190 c-5 0 -17 -7 -28 -16 -11 -8 -36 -19 -57 -25 -21 -5 -38
-14 -38 -20 0 -5 12 -7 28 -3 15 4 44 16 64 28 21 12 38 24 38 29 0 4 -3 7 -7
7z"/>
</g>
<g>
<path d="M3421 4190 c-6 0 -13 -4 -16 -10 -3 -5 1 -10 9 -10 9 0 16 5 16 10 0
6 -4 10 -9 10z"/>
</g>
<g>
<path d="M3322 4160 c-10 0 -22 -3 -25 -6 -4 -4 -4 -10 -2 -14 3 -5 14 -6 25
-3 11 3 20 9 20 14 0 5 -8 9 -18 9z"/>
</g>
<g>
<path d="M2960 4100 c-5 0 -10 -9 -10 -21 0 -11 5 -17 10 -14 6 3 10 13 10 21
0 8 -4 14 -10 14z"/>
</g>
<g>
<path d="M2261 4038 c-6 2 -11 -4 -11 -13 0 -9 5 -15 11 -13 6 2 11 8 11 13 0
5 -5 11 -11 13z"/>
</g>
<g>
<path d="M2680 3990 c-5 0 -10 -4 -10 -10 0 -5 5 -10 10 -10 6 0 10 5 10 10 0
6 -4 10 -10 10z"/>
</g>
<g>
<path d="M3041 3940 c-6 0 -12 -4 -16 -9 -3 -5 -1 -12 3 -15 5 -3 12 -3 16 1
3 3 6 10 6 15 0 4 -4 8 -9 8z"/>
</g>
<g>
<path d="M754 3900 c-9 0 -14 -5 -12 -12 2 -6 10 -14 16 -16 7 -2 12 3 12 12
0 9 -7 16 -16 16z"/>
</g>
<g>
<path d="M1801 3760 c-6 0 -13 -5 -16 -11 -4 -6 -5 -13 -2 -16 3 -3 10 -2 16
2 6 3 11 10 11 16 0 5 -4 9 -9 9z"/>
</g>
<g>
<path d="M2440 3730 c-5 0 -10 -4 -10 -8 0 -5 -9 -18 -21 -31 -12 -12 -18 -25
-14 -29 4 -4 10 -1 13 7 2 7 13 22 23 32 11 11 19 21 19 24 0 3 -4 5 -10 5z"/>
</g>
<g>
<path d="M880 3720 c-5 0 -10 -7 -10 -15 0 -8 5 -15 10 -15 6 0 10 7 10 15 0
8 -4 15 -10 15z"/>
</g>
<g>
<path d="M2367 3627 c-3 2 -10 -4 -16 -15 -6 -12 -11 -24 -11 -29 0 -4 7 3 16
15 9 13 14 26 11 29z"/>
</g>
<g>
<path d="M4089 3570 c-5 0 -9 -4 -9 -10 0 -5 7 -10 16 -10 8 0 12 5 9 10 -3 6
-10 10 -16 10z"/>
</g>
<g>
<path d="M120 3560 c-19 0 -21 -3 -12 -12 9 -9 15 -9 24 0 9 9 7 12 -12 12z"/>
</g>
<g>
<path d="M2329 3555 c-3 3 -9 2 -12 -2 -4 -3 -7 -11 -7 -17 0 -6 5 -5 12 2 6
6 9 14 7 17z"/>
</g>
<g>
<path d="M3898 3537 l-3 28 -8 -29 c-4 -15 -6 -31 -2 -34 3 -3 8 -3 11 0 3 4
4 19 2 35z"/>
</g>
<g>
<path d="M1505 3350 c-3 0 -5 -4 -5 -8 0 -5 10 -19 22 -32 14 -15 23 -19 26
-11 2 7 -5 21 -16 32 -12 10 -24 19 -27 19z"/>
</g>
<g>
<path d="M1426 3327 c-3 4 -6 -2 -5 -13 0 -11 3 -14 6 -6 3 7 2 16 -1 19z"/>
</g>
<g>
<path d="M451 3290 c-6 0 -11 -5 -11 -10 0 -6 6 -12 13 -14 6 -3 31 -7 55 -9
23 -3 42 -2 42 3 0 4 -20 13 -44 19 -25 6 -50 11 -55 11z"/>
</g>
<g>
<path d="M3807 3245 c-7 7 -13 10 -11 8 2 -3 -13 -37 -32 -76 -28 -55 -33 -72
-22 -78 7 -5 15 -9 18 -9 3 0 13 17 22 38 10 20 15 26 12 13 -4 -16 -3 -21 5
-17 6 4 20 25 31 46 11 22 20 42 20 46 0 4 -14 -5 -31 -22 l-31 -29 17 34 c14
29 15 35 2 46z"/>
</g>
<g>
<path d="M3854 3260 c-2 0 -4 -7 -4 -16 0 -8 5 -12 10 -9 6 4 8 11 5 16 -4 5
-8 9 -11 9z"/>
</g>
<g>
<path d="M808 3250 c-5 0 -8 -5 -6 -12 2 -6 22 -17 43 -25 22 -7 46 -12 55
-10 8 2 -6 13 -33 25 -27 12 -53 22 -59 22z"/>
</g>
<g>
<path d="M1900 3215 c-5 3 -10 -1 -10 -9 0 -9 5 -16 10 -16 6 0 10 4 10 9 0 6
-4 13 -10 16z"/>
</g>
<g>
<path d="M1619 3210 c-5 0 -7 -4 -4 -10 3 -5 8 -10 11 -10 2 0 4 5 4 10 0 6
-5 10 -11 10z"/>
</g>
<g>
<path d="M1476 3190 c-3 0 -7 -4 -11 -9 -3 -5 -1 -12 5 -16 5 -3 10 1 10 9 0
9 -2 16 -4 16z"/>
</g>
<g>
<path d="M1860 3120 c-21 0 -30 -4 -28 -12 3 -7 15 -12 28 -12 13 0 25 5 28
12 2 8 -7 12 -28 12z"/>
</g>
<g>
<path d="M1590 3080 c-5 0 -10 -4 -10 -10 0 -5 5 -10 10 -10 6 0 10 5 10 10 0
6 -4 10 -10 10z"/>
</g>
<g>
<path d="M3717 3076 c-2 2 -9 -2 -15 -8 -7 -7 -12 -16 -12 -20 0 -4 4 -8 9 -8
5 0 12 7 15 16 4 9 5 18 3 20z"/>
</g>
<g>
<path d="M1779 3070 c-5 0 -7 -4 -4 -10 3 -5 8 -10 11 -10 2 0 4 5 4 10 0 6
-5 10 -11 10z"/>
</g>
<g>
<path d="M1880 3040 c-5 0 -10 -4 -10 -10 0 -5 5 -10 10 -10 6 0 10 5 10 10 0
6 -4 10 -10 10z"/>
</g>
<g>
<path d="M720 3030 c-5 0 -10 -4 -10 -10 0 -5 5 -10 10 -10 6 0 10 5 10 10 0
6 -4 10 -10 10z"/>
</g>
<g>
<path d="M1576 3023 c-8 3 -17 3 -20 0 -3 -3 -3 -10 0 -14 3 -5 12 -9 20 -9 8
0 14 4 14 9 0 5 -6 11 -14 14z"/>
</g>
<g>
<path d="M1290 3010 c-13 0 -20 -5 -17 -12 2 -7 10 -13 17 -13 7 0 15 6 18 13
2 7 -5 12 -18 12z"/>
</g>
<g>
<path d="M2041 2994 c-5 4 -12 2 -15 -3 -4 -5 -2 -12 3 -15 5 -4 12 -2 15 3 4
5 2 12 -3 15z"/>
</g>
<g>
<path d="M3717 2997 c-3 2 -15 -9 -28 -26 -12 -16 -28 -32 -36 -35 -10 -4 -11
-1 -3 14 5 10 10 21 10 24 0 3 -4 6 -10 6 -5 0 -10 -7 -10 -15 0 -8 -4 -15 -8
-15 -4 0 -24 -22 -45 -50 -20 -27 -37 -52 -37 -54 0 -3 -19 -25 -42 -50 -22
-25 -49 -46 -60 -46 -10 0 -18 -4 -18 -9 0 -5 -10 -7 -22 -3 -19 4 -21 3 -11
-9 6 -8 13 -18 15 -24 1 -5 14 -9 28 -7 14 2 34 12 46 23 11 10 23 16 27 13 3
-3 19 9 35 27 16 19 46 55 66 81 19 26 52 71 72 99 19 28 33 53 31 56z"/>
</g>
<g>
<path d="M1941 2988 c-8 3 -12 -1 -9 -9 2 -7 10 -15 17 -17 8 -3 12 1 9 9 -2
7 -10 15 -17 17z"/>
</g>
<g>
<path d="M1029 2970 c-5 0 -7 -4 -4 -10 3 -5 8 -10 11 -10 2 0 4 5 4 10 0 6
-5 10 -11 10z"/>
</g>
<g>
<path d="M2050 2960 c-5 0 -10 -4 -10 -10 0 -5 5 -10 10 -10 6 0 10 5 10 10 0
6 -4 10 -10 10z"/>
</g>
<g>
<path d="M824 2950 c-8 0 -12 -5 -9 -10 4 -6 11 -8 16 -5 5 4 9 8 9 11 0 2 -7
4 -16 4z"/>
</g>
<g>
<path d="M1435 2950 c-3 0 -5 -6 -5 -14 0 -8 14 -17 31 -21 17 -4 33 -5 36 -2
3 3 -9 13 -26 21 -16 9 -32 16 -36 16z"/>
</g>
<g>
<path d="M1100 2940 c-5 0 -10 -4 -10 -10 0 -5 5 -10 10 -10 6 0 10 5 10 10 0
6 -4 10 -10 10z"/>
</g>
<g>
<path d="M1261 2938 c-8 3 -12 -1 -9 -9 2 -7 10 -15 17 -17 8 -3 12 1 9 9 -2
7 -10 15 -17 17z"/>
</g>
<g>
<path d="M1890 2940 c-5 0 -10 -4 -10 -10 0 -5 5 -10 10 -10 6 0 10 5 10 10 0
6 -4 10 -10 10z"/>
</g>
<g>
<path d="M1519 2930 c-5 0 -7 -4 -4 -10 3 -5 8 -10 11 -10 2 0 4 5 4 10 0 6
-5 10 -11 10z"/>
</g>
<g>
<path d="M1770 2913 c-11 3 -22 2 -25 -3 -3 -4 2 -11 11 -14 9 -3 20 -6 25 -6
5 0 9 4 9 9 0 5 -9 11 -20 14z"/>
</g>
<g>
<path d="M1664 2910 c-8 0 -12 -4 -9 -10 3 -5 10 -10 16 -10 5 0 9 5 9 10 0 6
-7 10 -16 10z"/>
</g>
<g>
<path d="M1914 2910 c-2 0 -4 -4 -4 -10 0 -5 5 -10 11 -10 5 0 7 5 4 10 -3 6
-8 10 -11 10z"/>
</g>
<g>
<path d="M1095 2900 c-15 0 -24 -4 -20 -10 3 -5 12 -10 20 -10 8 0 17 5 20 10
4 6 -5 10 -20 10z"/>
</g>
<g>
<path d="M2032 2900 c-5 0 -12 -3 -15 -7 -4 -3 -7 -10 -7 -15 0 -4 7 -8 15 -8
8 0 15 7 15 15 0 8 -4 15 -8 15z"/>
</g>
<g>
<path d="M1809 2890 c-5 0 -9 -4 -9 -10 0 -5 7 -10 16 -10 8 0 12 5 9 10 -3 6
-10 10 -16 10z"/>
</g>
<g>
<path d="M1376 2820 c-8 0 -18 -4 -21 -10 -3 -5 3 -10 14 -10 12 0 21 5 21 10
0 6 -6 10 -14 10z"/>
</g>
<g>
<path d="M1550 2819 c-3 0 -17 -5 -32 -10 -14 -6 -29 -17 -32 -26 -4 -9 -4
-18 -2 -21 3 -3 29 -6 59 -7 29 -1 68 -6 86 -10 26 -5 32 -4 29 6 -3 8 -27 17
-58 21 -29 3 -65 4 -79 1 -20 -3 -23 -2 -14 8 7 7 30 12 53 12 22 0 40 3 40 7
0 4 -10 10 -22 14 -13 3 -25 5 -28 5z"/>
</g>
<g>
<path d="M1780 2820 c-5 0 -10 -5 -10 -11 0 -5 5 -7 10 -4 6 3 10 8 10 11 0 2
-4 4 -10 4z"/>
</g>
<g>
<path d="M1990 2820 c-5 0 -10 -4 -10 -10 0 -5 5 -10 10 -10 6 0 10 5 10 10 0
6 -4 10 -10 10z"/>
</g>
<g>
<path d="M1190 2810 c-32 0 -61 -4 -65 -9 -3 -5 -1 -12 5 -16 5 -3 15 -3 21 1
6 3 33 6 61 5 30 0 47 3 43 9 -3 6 -33 10 -65 10z"/>
</g>
<g>
<path d="M1830 2810 c-5 0 -10 -4 -10 -10 0 -5 5 -10 10 -10 6 0 10 5 10 10 0
6 -4 10 -10 10z"/>
</g>
<g>
<path d="M1722 2788 c-8 2 -10 -2 -5 -14 5 -13 3 -16 -9 -11 -9 3 -19 3 -22 0
-3 -3 2 -12 12 -19 15 -12 14 -13 -13 -14 -16 0 -50 -7 -75 -14 -28 -9 -39
-16 -30 -20 8 -3 38 -9 65 -14 28 -4 65 -4 85 1 19 4 47 11 63 14 15 3 27 10
27 15 0 6 -12 8 -26 5 -14 -2 -38 2 -53 9 -14 8 -20 14 -13 14 8 0 12 9 10 22
-2 12 -9 23 -16 26z"/>
</g>
<g>
<path d="M1886 2790 c-14 0 -27 -4 -31 -9 -3 -5 -2 -12 3 -15 5 -3 18 -2 30 1
12 3 22 9 22 14 0 5 -11 9 -24 9z"/>
</g>
<g>
<path d="M1794 2770 c-12 0 -25 -4 -28 -9 -3 -5 7 -14 24 -21 16 -6 34 -9 40
-5 8 5 8 11 -1 21 -6 8 -22 14 -35 14z"/>
</g>
<g>
<path d="M1510 2720 c-5 0 -10 -5 -10 -11 0 -5 5 -7 10 -4 6 3 10 8 10 11 0 2
-4 4 -10 4z"/>
</g>
<g>
<path d="M1978 2710 c-13 0 -30 -4 -38 -10 -8 -5 -12 -11 -9 -15 3 -3 20 -2
37 1 18 4 32 10 32 15 0 5 -10 9 -22 9z"/>
</g>
<g>
<path d="M1120 2674 c-3 2 -14 -2 -24 -10 -11 -8 -16 -14 -10 -14 5 0 16 4 24
10 8 5 12 11 10 14z"/>
</g>
<g>
<path d="M1391 2680 c-12 0 -21 -4 -21 -10 0 -5 6 -10 14 -10 8 0 18 5 21 10
3 6 -3 10 -14 10z"/>
</g>
<g>
<path d="M1613 2669 c-16 -1 -41 -5 -58 -9 -16 -4 -28 -9 -25 -10 3 -1 21 -2
40 -2 19 0 43 0 53 1 9 0 17 6 17 11 0 6 -12 9 -27 9z"/>
</g>
<g>
<path d="M1770 2642 c-20 3 -30 0 -30 -9 0 -8 12 -13 30 -13 17 0 30 4 30 9 0
5 -13 11 -30 13z"/>
</g>
<g>
<path d="M1850 2629 c-7 2 -11 -2 -8 -8 2 -7 7 -12 11 -12 4 1 7 4 8 8 0 4 -5
9 -11 12z"/>
</g>
<g>
<path d="M1660 2610 c-56 0 -102 -4 -105 -10 -3 -6 0 -12 7 -14 7 -2 31 -8 53
-12 22 -4 62 -6 90 -5 27 1 54 6 59 11 4 4 5 13 2 19 -5 7 -46 11 -106 11z"/>
</g>
<g>
<path d="M796 2498 c-10 2 -16 -3 -16 -13 0 -10 7 -15 18 -13 9 2 16 8 15 13
-1 6 -9 11 -17 13z"/>
</g>
<g>
<path d="M940 2410 c-5 0 -10 -7 -10 -16 0 -8 5 -12 10 -9 6 3 10 10 10 16 0
5 -4 9 -10 9z"/>
</g>
<g>
<path d="M590 2230 c-10 0 -22 -5 -25 -11 -4 -6 -5 -13 -1 -16 3 -3 17 -2 31
1 14 4 23 11 20 16 -3 6 -15 10 -25 10z"/>
</g>
<g>
<path d="M693 2183 c-5 2 -16 2 -25 0 -10 -3 -18 -9 -18 -14 0 -5 9 -9 19 -9
11 0 22 4 26 9 3 5 2 11 -2 14z"/>
</g>
<g>
<path d="M76 1350 c-3 0 -8 -4 -11 -10 -3 -5 -1 -10 4 -10 6 0 11 5 11 10 0 6
-2 10 -4 10z"/>
</g>
</g>
</svg>
