<?xml version="1.0" standalone="no"?>
<!DOCTYPE svg PUBLIC "-//W3C//DTD SVG 20010904//EN"
 "http://www.w3.org/TR/2001/REC-SVG-20010904/DTD/svg10.dtd">
<svg version="1.0" xmlns="http://www.w3.org/2000/svg"
 width="1200.000000pt" height="857.000000pt" viewBox="0 0 1200.000000 857.000000"
 preserveAspectRatio="xMidYMid meet">
<metadata>
Created by potrace 1.16, written by Peter Selinger 2001-2019
</metadata>
<g transform="translate(0.000000,857.000000) scale(0.100000,-0.100000)"
fill="#000000" stroke="none">
<g>
<path d="M6231 7409 c-3 0 -19 -5 -36 -10 -16 -5 -75 -16 -130 -24 -55 -7
-147 -21 -205 -29 -58 -9 -154 -24 -215 -33 -60 -9 -148 -24 -195 -35 -47 -11
-123 -26 -170 -35 -47 -8 -139 -32 -205 -53 -70 -22 -143 -38 -175 -39 -30 -1
-58 -5 -63 -10 -5 -5 -4 -43 2 -87 6 -44 13 -135 16 -204 2 -69 7 -174 10
-235 3 -60 7 -155 10 -210 2 -55 9 -152 15 -215 5 -63 12 -169 14 -235 3 -66
10 -228 16 -360 6 -132 15 -328 20 -435 6 -107 17 -278 25 -380 8 -102 19
-228 24 -280 6 -52 15 -144 21 -205 6 -60 18 -272 27 -470 8 -198 17 -403 19
-455 3 -52 9 -120 14 -150 5 -30 14 -116 20 -190 6 -74 9 -238 6 -365 -3 -151
-1 -234 6 -242 6 -7 19 -13 29 -13 10 0 39 13 65 29 25 17 60 33 78 37 17 3
36 10 41 14 6 4 42 17 80 29 39 12 95 31 125 43 30 11 78 30 105 41 28 11 97
42 155 69 58 28 125 59 150 70 25 12 54 24 65 28 11 5 49 21 85 37 36 16 70
31 75 32 6 2 21 11 35 21 14 9 40 22 57 28 18 6 59 26 90 44 32 19 78 40 101
48 31 10 47 22 54 39 5 14 6 48 2 76 -3 27 -14 158 -24 290 -12 152 -17 311
-15 435 2 107 0 258 -5 335 -5 77 -16 329 -25 560 -8 231 -20 506 -25 610 -5
105 -12 251 -15 325 -3 74 -8 146 -10 160 -2 14 -7 66 -10 115 -4 50 -11 115
-16 145 -5 30 -9 88 -9 128 0 40 -7 137 -15 215 -8 78 -19 277 -24 442 -6 165
-13 347 -17 405 -5 87 -9 109 -27 128 -11 12 -23 22 -26 21z m-91 -109 l67 0
7 -79 c3 -43 9 -186 12 -317 2 -132 7 -252 9 -269 2 -16 8 -91 14 -165 6 -74
16 -189 21 -255 5 -66 14 -172 19 -235 6 -63 18 -257 27 -430 8 -173 17 -394
19 -490 3 -96 7 -197 10 -225 3 -27 12 -196 20 -375 8 -179 15 -442 15 -585 0
-143 7 -354 15 -470 8 -115 18 -240 21 -277 7 -67 7 -68 -22 -78 -16 -6 -29
-10 -29 -9 0 1 -31 -15 -70 -36 -38 -21 -81 -46 -95 -55 -14 -9 -45 -24 -70
-34 -25 -10 -76 -31 -115 -48 -38 -17 -97 -43 -130 -58 -33 -15 -98 -46 -145
-67 -47 -22 -101 -48 -122 -57 -20 -9 -40 -16 -45 -16 -5 0 -29 -9 -53 -21
-24 -12 -115 -45 -202 -73 l-158 -53 -1 81 c0 45 -3 153 -5 241 -2 88 -11 212
-20 275 -8 63 -20 187 -25 275 -5 88 -13 259 -19 380 -5 121 -14 294 -20 385
-6 91 -15 201 -20 245 -6 44 -14 123 -19 175 -6 52 -17 201 -25 330 -9 129
-21 363 -27 520 -6 157 -14 366 -19 465 -5 99 -13 288 -19 420 -6 132 -15 310
-20 395 -6 85 -13 203 -16 261 l-6 106 71 6 c40 3 77 11 84 16 7 6 41 20 76
31 35 11 104 29 154 40 50 11 141 31 201 44 61 14 179 32 264 40 84 9 156 18
160 20 3 2 40 7 81 11 41 4 77 9 79 11 2 2 34 4 71 4z"/>
</g>
<g>
<path d="M3076 6980 c-29 0 -55 -2 -58 -5 -2 -3 -56 -7 -119 -10 -63 -3 -141
-10 -174 -15 -33 -6 -130 -15 -215 -20 -85 -6 -191 -15 -235 -21 -44 -6 -109
-14 -145 -19 -36 -4 -105 -15 -155 -23 -49 -9 -108 -18 -130 -21 -22 -3 -105
-17 -185 -30 -80 -14 -176 -35 -215 -46 -38 -11 -119 -33 -180 -49 -60 -15
-139 -31 -175 -35 -36 -4 -80 -12 -98 -17 -17 -6 -37 -20 -43 -32 -10 -18 -8
-24 16 -45 28 -24 28 -26 36 -175 5 -84 13 -273 19 -422 6 -148 15 -290 19
-315 5 -25 12 -157 15 -295 4 -137 14 -353 23 -480 13 -196 14 -280 5 -570 -7
-187 -8 -405 -4 -485 4 -80 4 -203 0 -275 -4 -71 -12 -177 -18 -235 -6 -58
-17 -137 -25 -175 -10 -53 -11 -88 -4 -140 5 -39 14 -131 19 -205 6 -74 13
-234 16 -355 2 -121 14 -312 25 -425 11 -113 27 -254 34 -315 8 -60 15 -144
15 -185 0 -41 -5 -113 -11 -160 -6 -47 -12 -132 -14 -190 -2 -57 1 -112 6
-122 6 -11 21 -18 37 -18 15 0 36 7 46 15 11 8 28 15 38 15 10 0 46 15 80 33
35 19 79 43 98 53 19 11 60 28 90 38 30 10 64 21 75 26 11 4 43 18 70 30 28
12 77 35 110 51 33 15 80 35 105 44 25 9 69 25 99 36 30 10 60 24 68 31 8 7
38 20 66 31 29 10 63 20 76 23 13 3 48 16 76 29 29 14 55 25 59 25 5 0 24 7
44 16 21 9 60 26 87 39 28 12 97 37 155 55 58 18 114 41 125 50 11 10 31 21
45 25 14 4 77 31 140 60 63 29 140 62 170 73 30 11 94 33 143 47 l87 27 0 62
c0 33 -9 104 -20 156 -12 52 -30 145 -41 205 -11 61 -26 211 -34 335 -8 124
-19 351 -26 505 -7 154 -13 375 -13 490 -1 116 0 280 2 365 2 85 1 540 -2
1010 -3 481 -10 916 -16 995 -7 80 -10 300 -8 515 2 288 0 380 -10 398 -11 18
-21 22 -66 22z m0 -83 c2 -2 6 -176 9 -387 3 -212 10 -446 14 -520 4 -74 10
-241 12 -370 2 -129 4 -300 4 -380 0 -80 -2 -190 -4 -245 -2 -55 -1 -309 3
-565 4 -256 3 -503 -1 -550 -5 -47 -5 -200 -1 -340 3 -140 7 -295 8 -345 1
-49 6 -148 11 -220 4 -71 10 -193 13 -270 3 -77 11 -183 17 -235 6 -52 26
-174 45 -270 18 -96 32 -182 31 -190 -1 -8 -6 -20 -9 -26 -4 -6 -33 -16 -64
-23 -31 -7 -96 -29 -143 -48 -47 -19 -107 -46 -132 -59 -25 -13 -79 -38 -120
-54 -41 -17 -121 -49 -179 -72 -58 -22 -119 -46 -137 -54 -17 -8 -36 -14 -42
-14 -6 0 -19 -4 -29 -9 -9 -6 -42 -21 -72 -34 -30 -14 -84 -35 -120 -48 -36
-13 -66 -27 -68 -31 -2 -4 -10 -8 -18 -8 -7 0 -48 -14 -91 -30 -43 -17 -86
-35 -95 -40 -10 -6 -23 -10 -29 -10 -6 0 -48 -18 -92 -39 -45 -22 -102 -47
-127 -56 -25 -9 -52 -17 -60 -20 -8 -2 -55 -18 -105 -35 -49 -17 -115 -46
-145 -64 -30 -19 -68 -40 -85 -49 -16 -8 -45 -18 -62 -22 l-33 -7 0 44 c0 24
5 101 12 171 9 101 9 159 -1 270 -6 78 -23 232 -36 342 -13 110 -26 290 -29
400 -4 110 -9 220 -11 245 -3 25 -9 111 -15 192 -5 81 -10 185 -10 232 0 46 9
154 19 238 11 84 21 227 22 318 2 91 2 271 1 400 -1 129 2 289 7 355 5 66 7
206 5 310 -2 105 -6 204 -9 220 -3 17 -9 194 -15 395 -5 201 -14 408 -20 460
-6 52 -13 133 -15 180 -2 47 -5 162 -6 255 -1 94 -6 222 -10 284 -5 66 -5 119
0 124 4 4 64 20 132 33 68 14 164 39 213 55 49 16 117 34 152 39 35 6 76 15
91 21 16 6 60 15 98 20 39 4 126 18 195 29 69 12 170 28 225 36 55 7 177 18
270 24 94 5 206 14 250 20 44 6 145 13 225 17 80 3 147 7 149 9 2 2 6 3 7 1z"/>
</g>
<g>
<path d="M8280 6343 c-14 1 -55 -5 -91 -14 -36 -9 -86 -30 -110 -46 -25 -17
-63 -51 -86 -75 -22 -25 -46 -55 -53 -67 -6 -12 -18 -43 -26 -69 -7 -26 -17
-98 -20 -159 -7 -112 -7 -113 24 -176 18 -35 50 -85 73 -110 22 -26 45 -47 51
-47 5 0 24 -10 41 -22 18 -13 41 -28 53 -34 12 -7 37 -16 56 -22 18 -6 45 -13
60 -16 24 -6 27 -10 31 -68 2 -35 9 -89 16 -122 7 -32 9 -62 4 -66 -4 -4 -33
-2 -63 6 -30 7 -74 18 -98 24 -31 7 -49 7 -63 -1 -15 -8 -19 -17 -15 -34 3
-13 -5 -70 -19 -127 -14 -56 -28 -127 -31 -158 -3 -30 -8 -58 -10 -62 -2 -3
-6 -43 -9 -88 -3 -45 -10 -102 -15 -126 -6 -24 -17 -92 -25 -150 -8 -59 -15
-132 -15 -161 0 -37 4 -55 14 -59 8 -3 23 3 34 14 15 15 21 40 26 108 4 49 18
184 32 299 15 116 30 214 34 218 4 4 10 -119 14 -275 3 -156 11 -321 18 -368
6 -47 12 -143 13 -215 1 -71 5 -184 9 -250 4 -66 9 -153 11 -194 3 -40 8 -77
11 -82 3 -5 4 -100 4 -211 -1 -112 -2 -223 -3 -247 -2 -42 -3 -43 -52 -61 -27
-9 -76 -25 -107 -34 -43 -13 -58 -22 -58 -35 0 -10 9 -26 20 -36 19 -17 22
-17 92 5 40 13 97 34 126 47 l52 24 2 127 c1 70 1 138 1 152 0 14 -2 66 -3
115 -1 50 -6 133 -11 185 -5 52 -11 140 -14 195 -3 55 -10 186 -16 290 -5 105
-12 216 -15 249 l-5 58 28 -6 c15 -4 43 -13 61 -21 17 -8 47 -21 65 -29 17 -8
58 -26 91 -40 32 -14 63 -26 70 -26 6 0 39 -12 73 -27 54 -23 64 -32 68 -58 3
-16 5 -75 5 -130 0 -55 0 -120 0 -145 0 -25 5 -126 11 -225 5 -99 12 -288 15
-420 3 -132 9 -269 14 -305 5 -36 10 -71 10 -77 0 -7 -15 -20 -32 -29 -18 -10
-49 -21 -68 -25 -19 -4 -57 -16 -84 -26 -27 -10 -54 -26 -60 -36 -9 -15 -7
-22 12 -37 22 -18 24 -18 101 6 43 13 100 33 126 45 26 12 50 29 52 40 3 10
10 16 16 12 7 -4 8 18 4 68 -3 41 -11 184 -16 319 -6 135 -16 308 -23 385 -6
77 -12 362 -13 635 -1 272 -5 554 -8 625 -4 93 -3 119 3 90 6 -22 19 -103 30
-180 11 -77 26 -185 34 -240 8 -55 18 -118 22 -140 3 -22 8 -43 10 -47 2 -4 7
-46 9 -95 3 -48 10 -100 16 -115 7 -16 17 -28 23 -28 6 0 20 9 29 21 17 19 17
24 3 74 -9 29 -16 73 -16 97 0 23 -5 70 -10 103 -5 33 -12 80 -15 105 -4 25
-12 79 -20 120 -8 41 -17 98 -20 125 -3 28 -13 84 -22 125 -8 41 -26 108 -39
148 -13 40 -24 79 -24 87 0 8 -14 30 -31 50 -27 30 -37 35 -76 35 -24 0 -53 5
-64 11 -12 6 -50 16 -87 23 l-66 12 -13 59 c-7 33 -16 90 -19 126 l-6 66 46 6
c25 4 73 20 105 37 33 16 72 42 86 57 15 16 46 67 70 114 37 75 43 99 49 175
5 67 3 104 -9 149 -9 33 -28 80 -42 104 -14 25 -57 75 -95 113 -37 37 -81 74
-96 81 -15 8 -54 17 -87 21 -33 4 -71 8 -85 9z m35 -84 c22 -4 43 -5 47 -3 4
3 26 -5 49 -17 23 -11 64 -42 91 -67 27 -26 61 -66 75 -90 14 -24 31 -69 37
-100 6 -32 9 -86 5 -122 -3 -36 -11 -83 -17 -106 -7 -22 -26 -62 -43 -88 -23
-35 -47 -55 -92 -78 -58 -29 -66 -30 -156 -26 -86 4 -103 8 -160 39 -35 18
-80 50 -99 69 -19 19 -45 56 -58 81 -13 26 -27 73 -33 105 -5 33 -7 77 -4 99
2 22 11 60 19 85 8 25 23 56 31 70 9 14 32 42 51 62 19 21 56 48 81 60 25 12
66 25 91 28 25 3 63 2 85 -1z m-131 -1086 c17 -3 49 -12 71 -19 22 -8 56 -14
76 -14 19 0 62 -5 95 -10 32 -6 79 -16 103 -23 26 -7 51 -22 62 -39 15 -20 19
-44 19 -110 0 -45 5 -144 11 -218 6 -74 11 -164 10 -200 0 -36 -4 -107 -7
-158 -6 -89 -7 -92 -28 -86 -11 3 -34 12 -51 19 -16 7 -52 20 -80 30 -27 9
-102 37 -165 62 -63 26 -119 50 -125 55 -5 5 -11 19 -11 31 -1 12 -5 92 -8
177 -3 85 -9 209 -11 275 -3 66 -3 146 1 177 l7 57 31 -6z"/>
</g>
<g>
<path d="M10278 6119 c-2 -1 -16 -4 -33 -8 -16 -4 -57 -22 -90 -39 -33 -17
-89 -59 -125 -94 -36 -34 -76 -79 -89 -98 -13 -19 -35 -68 -47 -109 -13 -41
-24 -82 -24 -92 0 -9 -6 -19 -12 -22 -9 -3 -12 -26 -10 -81 1 -44 11 -103 22
-137 12 -33 31 -77 44 -98 13 -20 57 -67 97 -104 40 -37 80 -67 89 -67 9 0 20
-3 24 -7 3 -4 23 -13 44 -20 20 -7 44 -13 53 -13 8 0 20 -5 26 -11 7 -7 7 -26
2 -56 -5 -26 -5 -49 0 -52 4 -3 11 -26 13 -51 3 -25 8 -52 12 -60 3 -8 2 -21
-2 -27 -6 -10 -24 -7 -77 10 -39 12 -76 27 -82 34 -7 6 -27 14 -44 18 -19 4
-35 3 -42 -5 -7 -6 -12 -44 -12 -88 -1 -42 -9 -129 -19 -192 -10 -63 -22 -123
-27 -132 -5 -10 -14 -50 -20 -90 -6 -40 -15 -86 -21 -103 -5 -16 -14 -50 -19
-75 -4 -25 -18 -81 -29 -125 -12 -44 -28 -114 -37 -155 -8 -41 -16 -88 -17
-105 -1 -23 4 -31 20 -33 11 -2 27 5 35 15 9 10 28 81 43 158 16 77 32 160 37
185 5 25 15 68 23 95 8 28 20 83 26 122 7 40 16 75 21 79 5 3 10 -14 10 -38 1
-24 0 -97 -1 -163 -2 -66 -5 -149 -6 -185 -2 -36 -5 -128 -8 -205 -2 -77 -8
-187 -12 -245 -5 -58 -8 -112 -7 -120 1 -8 4 -210 8 -450 4 -239 8 -474 9
-522 l3 -87 -31 -11 c-17 -6 -56 -21 -86 -32 -30 -11 -77 -31 -105 -44 -27
-13 -60 -32 -72 -43 -13 -11 -23 -28 -23 -40 0 -11 9 -25 20 -31 15 -8 29 -4
68 20 27 16 56 30 63 30 8 0 35 11 61 25 25 13 68 29 94 35 27 6 57 20 66 30
17 18 17 44 7 472 -6 249 -8 574 -5 723 4 148 9 271 12 274 2 3 21 -1 42 -8
20 -7 55 -21 77 -31 22 -9 65 -25 95 -34 30 -10 98 -38 150 -64 l95 -46 1
-336 c1 -184 4 -369 7 -410 4 -41 11 -176 17 -300 6 -124 15 -277 20 -340 4
-63 6 -117 3 -120 -2 -3 -75 -34 -161 -70 -153 -64 -157 -66 -157 -95 0 -26 4
-30 28 -33 16 -2 44 4 62 12 18 9 75 32 127 51 51 20 110 43 130 52 27 11 39
23 43 45 4 16 4 88 0 161 -3 73 -8 155 -10 182 -2 28 -6 93 -9 145 -3 52 -8
156 -11 230 -3 74 -12 241 -21 372 -11 178 -12 268 -4 367 7 97 7 138 -2 157
-9 19 -9 71 0 217 7 106 12 233 12 282 0 50 3 107 6 128 4 20 10 37 14 37 4 0
10 -7 14 -15 3 -8 10 -52 15 -97 6 -46 13 -119 15 -163 3 -44 9 -109 15 -145
6 -36 13 -119 16 -185 3 -66 10 -133 15 -150 5 -16 12 -50 15 -75 4 -25 11
-53 17 -62 5 -10 17 -18 28 -18 14 0 21 9 26 35 3 19 -1 90 -10 157 -9 68 -23
186 -31 263 -9 77 -22 203 -30 279 -8 76 -24 169 -34 205 -11 36 -29 103 -40
148 -12 45 -21 87 -21 93 0 6 5 8 10 5 6 -3 10 3 10 15 0 12 -5 30 -10 41 -7
13 -21 19 -43 19 -17 0 -70 13 -117 30 -47 16 -103 34 -126 40 l-40 10 -12 89
c-7 48 -12 104 -12 122 0 26 8 41 30 61 16 14 53 32 82 39 29 6 82 27 118 46
45 24 89 59 143 116 44 47 82 97 88 117 6 19 14 81 16 138 5 90 2 111 -17 165
-13 34 -40 85 -62 114 -21 29 -69 78 -105 108 -36 30 -92 68 -125 84 -32 17
-92 37 -133 46 -41 8 -75 15 -77 14z m18 -94 c29 -3 84 -18 123 -34 39 -16 88
-42 109 -57 20 -15 59 -48 85 -73 27 -26 62 -74 80 -111 29 -58 32 -74 32
-150 -1 -47 -6 -104 -13 -128 -8 -25 -30 -59 -55 -85 -23 -23 -60 -54 -82 -69
-22 -14 -56 -33 -75 -41 -19 -9 -69 -25 -110 -38 -41 -12 -100 -23 -130 -23
-33 0 -77 9 -110 21 -34 13 -75 41 -110 75 -43 40 -63 70 -84 123 -24 58 -29
85 -29 155 0 61 6 101 22 144 11 32 44 89 72 128 32 43 75 85 112 110 32 22
71 44 86 49 14 5 49 6 77 4z m-173 -1205 c7 0 17 -4 23 -9 5 -4 31 -16 58 -25
27 -9 72 -16 100 -16 28 0 86 -11 128 -24 42 -14 90 -32 106 -40 24 -12 34
-28 46 -70 9 -30 16 -66 16 -80 0 -14 -4 -47 -10 -73 -5 -26 -12 -73 -16 -103
-3 -30 -9 -145 -13 -255 -4 -110 -11 -208 -15 -218 -5 -10 -3 -37 4 -63 7 -24
11 -47 8 -49 -2 -3 -34 10 -70 28 -36 18 -119 51 -184 72 -66 22 -138 48 -162
60 l-42 20 -3 405 c-2 223 1 413 5 423 5 9 14 17 21 17z"/>
</g>
<g>
<path d="M8971 5980 c-10 0 -21 -3 -24 -7 -4 -3 -7 -17 -7 -29 0 -14 10 -30
25 -40 20 -13 28 -14 40 -4 8 7 15 21 15 31 0 9 -7 25 -16 33 -8 9 -23 16 -33
16z"/>
</g>
<g>
<path d="M9427 5920 c-7 0 -20 -7 -30 -15 -17 -12 -17 -17 -5 -42 7 -16 23
-29 35 -31 17 -2 24 3 28 21 4 14 2 35 -5 46 -6 12 -16 21 -23 21z"/>
</g>
<g>
<path d="M9159 5850 c-4 0 -10 -3 -12 -7 -3 -5 -15 -59 -27 -121 -16 -79 -20
-116 -12 -124 6 -6 31 -14 57 -19 26 -5 51 -6 56 -3 5 3 9 18 9 34 0 25 -4 29
-40 35 -22 4 -38 11 -35 15 3 5 12 44 19 87 9 53 10 82 4 91 -6 6 -14 12 -19
12z"/>
</g>
<g>
<path d="M9060 5506 c-44 5 -60 3 -60 -5 0 -7 4 -20 9 -30 6 -10 29 -23 53
-30 24 -7 61 -19 83 -27 22 -7 60 -16 85 -20 25 -4 52 -10 60 -15 9 -4 23 -3
33 2 9 6 17 18 17 28 0 10 -6 23 -12 29 -7 5 -40 15 -72 22 -33 7 -77 18 -98
26 -20 7 -65 16 -98 20z"/>
</g>
<g>
<path d="M4501 5130 c-15 8 -26 -2 -70 -63 -50 -69 -52 -74 -46 -122 3 -27 11
-66 17 -85 5 -19 20 -44 32 -55 11 -11 38 -33 59 -48 26 -20 54 -30 91 -34 38
-4 67 0 100 12 36 14 53 28 71 60 14 23 25 56 25 73 0 17 -5 55 -11 84 -7 36
-21 64 -43 86 -17 19 -43 40 -58 48 -15 8 -52 14 -82 14 -30 0 -58 4 -61 10
-3 5 -14 14 -24 20z m71 -111 c26 1 58 -4 71 -10 12 -6 29 -19 35 -30 7 -11
15 -45 18 -77 5 -50 4 -59 -15 -76 -12 -11 -41 -21 -69 -24 -32 -3 -59 1 -78
11 -16 8 -39 26 -51 39 -13 14 -25 43 -29 69 -6 43 -5 46 32 71 28 19 52 27
86 27z"/>
</g>
</g>
</svg>
