<?xml version="1.0" standalone="no"?>
<!DOCTYPE svg PUBLIC "-//W3C//DTD SVG 20010904//EN"
 "http://www.w3.org/TR/2001/REC-SVG-20010904/DTD/svg10.dtd">
<svg version="1.0" xmlns="http://www.w3.org/2000/svg"
 width="900.000000pt" height="1200.000000pt" viewBox="0 0 900.000000 1200.000000"
 preserveAspectRatio="xMidYMid meet">
<metadata>
Created by potrace 1.16, written by Peter Selinger 2001-2019
</metadata>
<g transform="translate(0.000000,1200.000000) scale(0.100000,-0.100000)"
fill="#000000" stroke="none">
<g>
<path d="M5138 11230 c-7 -1 -29 -14 -48 -31 -19 -17 -55 -42 -79 -56 -38 -23
-53 -26 -126 -24 -63 1 -96 -3 -137 -19 -31 -11 -77 -35 -104 -52 -27 -18 -96
-63 -154 -101 -58 -39 -167 -117 -243 -175 -77 -58 -165 -129 -197 -156 -32
-28 -71 -62 -86 -74 -15 -13 -66 -57 -114 -97 -47 -40 -92 -80 -99 -89 -7 -9
-19 -16 -25 -16 -6 0 -24 26 -41 58 -16 31 -56 98 -89 147 -33 50 -78 113
-100 140 -23 28 -71 77 -106 110 -36 34 -90 79 -120 101 -30 22 -80 52 -110
66 -30 15 -87 38 -126 51 -39 14 -113 31 -163 37 -59 8 -141 11 -229 7 -75 -3
-173 -13 -217 -21 -44 -8 -101 -22 -126 -30 -25 -8 -68 -25 -95 -39 -27 -14
-59 -36 -72 -50 -12 -13 -33 -53 -46 -89 -13 -36 -24 -88 -24 -114 -1 -27 -8
-96 -16 -154 -8 -58 -18 -130 -22 -160 -4 -30 -8 -107 -9 -170 -1 -63 -5 -169
-8 -235 -4 -66 -9 -145 -12 -175 -3 -30 -8 -242 -12 -470 -4 -228 -7 -428 -7
-445 0 -16 3 -104 7 -195 4 -91 11 -190 16 -220 5 -30 9 -86 10 -125 1 -38 10
-139 20 -223 l17 -153 -41 -82 c-22 -45 -55 -113 -72 -152 -18 -38 -45 -99
-62 -135 -16 -36 -64 -153 -106 -260 -42 -107 -85 -220 -95 -250 -10 -30 -33
-95 -50 -145 -18 -49 -37 -106 -42 -125 -5 -19 -13 -48 -18 -65 -4 -16 -20
-75 -34 -130 -13 -55 -29 -138 -35 -185 -5 -47 -8 -141 -7 -210 3 -77 10 -142
19 -170 8 -25 23 -61 33 -80 9 -19 28 -50 42 -68 13 -19 48 -49 77 -67 28 -19
81 -41 116 -50 50 -13 85 -16 159 -10 52 3 120 11 150 17 30 5 109 28 175 50
66 23 129 47 140 53 11 7 31 16 45 20 14 4 84 36 155 70 72 35 207 109 300
165 94 57 213 132 265 168 52 36 97 69 100 72 3 4 39 30 80 58 41 28 152 113
246 189 94 76 207 168 252 204 l80 66 104 12 c56 6 164 17 238 22 74 6 212 9
305 6 94 -3 220 -10 280 -16 61 -6 191 -24 290 -40 99 -17 206 -37 237 -44 39
-10 72 -27 103 -53 25 -22 60 -49 78 -62 18 -13 48 -38 67 -55 20 -18 55 -54
78 -82 24 -27 46 -54 50 -60 4 -5 21 -28 39 -50 17 -23 39 -57 49 -78 10 -20
21 -37 26 -37 4 0 8 6 8 13 0 7 -42 77 -94 155 -52 78 -114 165 -137 194 l-43
51 36 -7 c21 -4 90 -24 155 -46 65 -21 154 -52 198 -69 44 -16 105 -40 135
-53 30 -13 66 -30 80 -38 14 -8 39 -22 55 -32 17 -9 45 -24 64 -33 18 -9 62
-37 98 -63 36 -26 105 -83 155 -126 49 -43 105 -100 123 -125 19 -25 39 -65
45 -87 7 -24 9 -56 5 -75 -4 -19 -20 -53 -36 -76 -16 -22 -48 -58 -71 -78 -24
-20 -65 -49 -93 -63 -27 -15 -70 -35 -95 -45 -25 -10 -67 -28 -95 -39 -27 -11
-72 -26 -100 -34 -27 -7 -93 -23 -145 -34 -52 -11 -156 -27 -230 -36 -74 -9
-184 -20 -245 -24 -60 -5 -297 -9 -525 -9 -229 -1 -456 -6 -505 -12 -49 -5
-129 -17 -179 -25 -50 -9 -131 -29 -181 -46 -49 -16 -101 -36 -115 -42 -14 -7
-38 -20 -55 -29 -16 -9 -48 -26 -69 -38 -22 -12 -75 -57 -118 -100 -43 -44
-78 -86 -78 -94 0 -8 -6 -18 -13 -22 -7 -4 -23 -26 -36 -48 -13 -22 -39 -86
-58 -143 -23 -71 -37 -135 -43 -205 -5 -56 -7 -145 -5 -197 2 -52 6 -149 9
-215 3 -66 10 -140 15 -165 5 -25 20 -101 32 -170 12 -69 26 -130 31 -136 4
-6 5 -13 2 -16 -3 -3 2 -34 11 -69 9 -35 20 -68 24 -74 4 -5 16 -41 25 -80 10
-38 21 -81 26 -95 4 -14 18 -59 30 -100 12 -41 26 -83 31 -92 5 -9 27 -72 49
-139 22 -66 40 -129 40 -138 0 -9 13 -43 29 -76 16 -33 39 -94 52 -135 12 -41
44 -117 70 -170 26 -52 54 -113 62 -135 8 -22 47 -110 87 -195 39 -85 96 -207
127 -270 30 -63 89 -173 129 -245 41 -71 100 -166 131 -210 31 -44 101 -131
156 -193 55 -62 136 -146 181 -186 44 -41 106 -94 136 -118 30 -24 79 -59 109
-77 30 -18 88 -46 129 -61 48 -19 103 -32 156 -36 50 -4 111 -2 157 6 41 7
103 24 139 38 36 14 97 49 135 77 39 29 89 72 111 96 23 24 73 89 111 144 39
55 76 112 84 127 8 15 42 83 77 152 35 70 77 159 93 199 17 39 49 119 70 177
22 58 44 119 49 135 5 17 23 71 40 120 17 50 42 124 55 165 13 41 36 119 50
172 14 54 25 102 25 108 0 5 -6 10 -14 10 -10 0 -12 7 -9 23 3 12 16 31 28 42
16 14 28 43 39 99 9 43 16 82 16 86 0 5 -8 10 -17 12 -16 3 -15 6 6 27 16 16
29 47 38 90 8 36 20 107 28 156 8 50 23 149 34 220 11 72 22 164 26 205 3 41
10 93 15 115 4 22 11 74 15 115 3 41 11 112 17 158 8 65 7 86 -3 98 -9 11 -10
17 -2 22 7 4 14 32 17 62 4 30 3 49 0 43 -3 -7 -10 -13 -15 -13 -4 0 -6 8 -2
18 3 9 12 24 18 32 8 9 18 82 25 180 7 91 16 284 19 430 4 146 3 402 -1 570
-4 168 -10 341 -13 385 -3 44 -12 141 -20 215 -9 74 -25 207 -36 295 -11 88
-31 223 -45 300 -13 77 -34 178 -45 225 -12 47 -34 126 -51 175 -16 50 -54
153 -85 230 -31 77 -70 178 -88 225 -18 47 -62 157 -99 245 -37 88 -71 168
-77 178 -5 9 -23 52 -40 95 -16 42 -41 101 -54 130 -14 29 -25 56 -25 59 0 4
-18 37 -41 75 -35 57 -47 70 -80 79 -27 9 -51 9 -86 1 -26 -5 -72 -19 -102
-31 -29 -11 -61 -27 -70 -34 -9 -8 -35 -24 -58 -36 -23 -11 -46 -27 -50 -35
-4 -7 -72 -68 -151 -136 -79 -67 -153 -137 -164 -154 -12 -17 -50 -56 -86 -86
-35 -30 -69 -64 -74 -75 -5 -12 -22 -30 -39 -40 -16 -11 -32 -28 -35 -37 -3
-10 -11 -18 -18 -18 -7 0 -21 -9 -31 -20 -10 -11 -33 -29 -51 -40 -23 -13 -34
-15 -34 -7 0 7 5 28 10 47 6 19 22 85 35 145 14 61 35 155 46 210 17 83 20
123 16 230 -3 72 -11 159 -17 195 -6 36 -15 69 -20 74 -5 5 -15 -5 -24 -25 -8
-19 -17 -45 -20 -59 -3 -14 -39 -77 -81 -139 -41 -63 -75 -115 -75 -116 0 -1
-20 -33 -45 -70 -25 -38 -48 -71 -53 -74 -4 -3 -29 -36 -55 -74 -26 -37 -51
-73 -57 -80 -6 -6 -27 -35 -48 -64 -20 -28 -44 -61 -52 -74 -8 -13 -33 -43
-55 -68 -22 -26 -69 -80 -105 -121 -35 -41 -85 -97 -110 -124 -25 -28 -99
-103 -165 -168 -66 -65 -133 -131 -150 -147 -24 -23 -50 -33 -135 -51 -58 -13
-121 -24 -140 -26 -19 -2 -60 -8 -90 -13 -30 -5 -89 -8 -130 -7 -41 2 -94 9
-118 16 -25 8 -55 28 -72 47 -27 30 -30 41 -30 102 0 44 12 115 35 207 20 76
49 177 65 224 16 47 42 121 58 165 16 44 41 114 57 155 15 41 31 80 35 85 4 6
26 66 49 135 23 68 46 129 50 135 5 5 27 66 49 135 22 69 57 179 76 245 20 66
45 174 57 240 11 66 23 167 26 225 4 77 -1 147 -16 264 -12 87 -33 211 -46
275 -14 64 -40 168 -59 231 -19 63 -48 153 -65 199 l-31 85 32 27 c28 22 31
29 20 42 -11 13 -8 19 20 40 18 13 44 31 58 40 13 10 34 17 46 17 12 0 28 8
35 17 8 9 66 55 129 102 63 47 147 107 185 134 39 26 129 87 200 134 72 48
132 89 135 93 3 3 39 23 80 45 68 35 82 39 166 42 51 1 103 7 116 12 13 5 39
22 58 37 18 16 51 55 72 88 21 32 38 65 38 73 0 7 -6 13 -12 13z m-2345 -286
c69 -3 142 -14 200 -29 51 -13 127 -40 169 -59 42 -20 113 -63 156 -96 44 -33
107 -90 139 -127 33 -38 83 -102 110 -143 28 -41 66 -101 83 -133 l32 -59 -38
-40 c-22 -22 -70 -70 -107 -107 -38 -36 -102 -100 -141 -141 -40 -41 -123
-130 -184 -196 -62 -67 -112 -125 -112 -129 0 -4 -19 -29 -43 -55 -24 -26 -77
-92 -118 -146 -41 -54 -82 -110 -91 -124 -9 -14 -53 -77 -97 -140 -44 -63
-115 -171 -157 -240 -43 -69 -107 -174 -144 -235 -37 -60 -95 -159 -129 -220
-33 -60 -96 -179 -139 -262 -42 -84 -80 -153 -83 -153 -4 0 -10 15 -13 33 -4
17 -14 100 -22 182 -8 83 -19 224 -24 315 -5 91 -11 264 -14 384 -3 121 -1
368 5 550 5 182 13 385 19 451 5 66 14 165 19 220 6 55 15 129 21 165 6 36 20
115 32 175 11 61 32 134 45 163 17 36 38 61 66 80 23 16 69 38 102 50 33 12
92 29 130 38 39 10 104 20 145 25 41 4 124 5 183 3z m903 -714 c7 0 21 -12 31
-27 10 -16 29 -53 41 -83 11 -30 37 -104 57 -165 20 -60 47 -165 60 -233 14
-68 32 -178 41 -245 11 -80 14 -157 11 -222 -3 -55 -11 -127 -17 -160 -6 -33
-23 -109 -37 -170 -14 -60 -45 -171 -68 -245 -24 -74 -73 -214 -109 -310 -37
-96 -78 -204 -91 -240 -14 -36 -50 -132 -81 -215 -31 -82 -76 -222 -100 -310
-35 -126 -46 -184 -51 -271 -4 -73 -2 -134 7 -178 10 -55 20 -75 49 -106 26
-27 53 -42 96 -55 49 -14 82 -16 175 -11 63 3 135 11 159 16 24 6 45 9 48 7 2
-3 -11 -13 -30 -24 -18 -11 -60 -24 -93 -28 -32 -5 -70 -9 -84 -11 -14 -1 -77
-9 -140 -18 -63 -9 -122 -19 -130 -22 -8 -3 -41 -7 -73 -10 -33 -3 -80 -10
-106 -17 -26 -7 -83 -11 -127 -10 -43 0 -106 4 -139 7 -33 3 -82 12 -110 18
-27 7 -54 13 -60 13 -5 1 -35 13 -65 29 -30 15 -84 47 -121 71 -36 25 -97 77
-135 117 -38 40 -91 105 -118 143 -27 39 -73 115 -102 171 -29 55 -68 148 -87
205 -19 57 -48 161 -63 232 l-28 127 40 82 c21 45 76 151 121 235 45 84 93
172 106 195 13 24 46 78 72 121 34 57 44 82 36 90 -7 7 2 22 35 54 29 27 44
49 40 58 -3 8 3 19 14 25 10 5 36 38 57 72 21 35 43 70 48 79 6 9 28 43 50 75
22 33 61 88 87 124 32 44 46 72 42 86 -3 13 4 28 20 43 14 13 35 29 47 35 11
6 28 24 37 41 10 16 27 38 40 49 15 12 22 26 19 38 -3 11 5 31 20 48 14 17 31
30 38 30 7 0 36 25 64 56 28 30 51 60 51 65 0 5 -7 9 -16 9 -8 0 -12 5 -8 11
3 6 26 20 49 30 23 10 48 26 55 34 10 12 10 18 -1 31 -11 14 -8 20 21 45 19
15 47 31 61 34 14 3 42 23 61 43 20 20 38 46 40 57 2 11 10 19 19 17 8 -1 28
11 43 27 16 16 25 34 22 40 -4 6 -15 11 -24 11 -12 0 -6 9 17 28 19 15 62 46
95 70 33 23 65 42 72 42z m1525 -1787 c4 -4 8 -42 9 -83 1 -41 -2 -104 -6
-140 -4 -36 -10 -69 -14 -75 -5 -5 -11 -28 -15 -50 -3 -22 -13 -71 -22 -110
-8 -38 -19 -84 -24 -101 -5 -17 -9 -39 -9 -50 0 -11 -11 -48 -24 -82 -16 -39
-26 -88 -27 -130 -2 -37 0 -73 4 -80 5 -6 18 -12 30 -12 12 0 38 14 57 31 19
17 53 48 75 69 22 20 76 79 120 130 44 51 146 157 227 235 98 95 182 167 250
212 57 38 133 81 170 96 37 15 99 30 138 33 l70 7 36 -39 c20 -21 43 -54 51
-74 8 -19 28 -66 45 -105 17 -38 34 -79 39 -90 5 -11 43 -101 85 -200 42 -99
110 -263 151 -365 41 -102 90 -232 108 -290 19 -58 38 -123 44 -145 5 -22 17
-74 26 -115 9 -41 18 -86 20 -100 1 -14 14 -95 28 -180 15 -85 34 -220 43
-300 10 -80 18 -170 20 -200 1 -31 5 -76 8 -100 4 -25 9 -72 12 -105 3 -33 7
-286 8 -561 2 -276 -1 -551 -6 -610 -5 -60 -16 -181 -24 -269 -9 -88 -19 -214
-24 -280 -5 -66 -18 -192 -29 -280 -12 -88 -26 -189 -31 -225 -6 -36 -22 -139
-36 -230 -15 -91 -32 -196 -40 -235 -7 -38 -22 -110 -33 -160 -10 -49 -31
-139 -45 -200 -14 -60 -35 -144 -47 -185 -12 -41 -43 -142 -70 -225 -26 -82
-60 -181 -74 -220 -15 -38 -33 -89 -40 -111 -7 -23 -18 -50 -23 -60 -5 -11
-14 -30 -20 -44 -6 -14 -19 -45 -30 -70 -11 -25 -37 -83 -57 -130 -21 -47 -43
-92 -49 -100 -7 -8 -25 -42 -41 -75 -16 -33 -41 -78 -55 -100 -14 -22 -38 -58
-55 -80 -16 -22 -42 -56 -58 -75 -16 -19 -58 -65 -93 -101 -35 -36 -76 -72
-92 -79 -15 -8 -40 -23 -57 -35 -16 -12 -50 -28 -75 -37 -25 -9 -83 -24 -129
-33 -54 -10 -107 -14 -149 -11 -36 4 -82 11 -101 17 -20 6 -58 21 -86 33 -27
11 -82 42 -122 68 -40 26 -121 96 -180 156 -60 59 -137 142 -173 183 -36 41
-69 81 -75 90 -5 9 -36 55 -67 102 -31 46 -94 158 -140 248 -46 90 -101 202
-122 249 -21 47 -49 108 -62 137 -13 28 -24 54 -24 57 0 3 -20 48 -44 100 -24
51 -61 136 -81 187 -21 52 -43 108 -50 124 -7 17 -19 48 -28 70 -8 22 -22 59
-31 82 -8 23 -40 115 -69 205 -30 90 -67 204 -82 253 -15 50 -41 140 -57 200
-16 61 -36 137 -44 170 -8 33 -21 98 -30 145 -8 47 -24 141 -34 210 -10 69
-22 188 -25 265 -4 78 -2 186 4 245 5 58 21 146 34 195 14 50 41 119 61 154
20 36 52 86 71 111 19 25 56 66 82 91 26 24 71 59 100 77 29 19 83 45 120 59
37 14 87 31 110 38 23 8 86 23 140 34 54 11 144 25 201 30 56 6 272 11 480 12
207 0 436 4 507 9 72 5 173 13 225 19 52 6 138 18 190 27 52 9 120 22 150 31
30 8 71 19 90 23 19 5 53 14 75 20 22 6 92 37 155 68 84 42 130 72 172 113 32
32 67 77 78 100 11 24 20 62 20 85 0 22 -6 61 -14 85 -7 24 -32 82 -55 129
-23 47 -52 96 -64 110 -12 14 -53 52 -92 85 -38 33 -109 86 -157 118 -47 31
-89 57 -92 57 -4 0 -41 21 -84 48 -42 26 -95 55 -117 64 -22 9 -60 22 -85 29
-25 7 -56 18 -70 26 -14 7 -72 29 -130 49 -58 20 -127 43 -155 51 -27 8 -61
16 -75 18 -14 2 -40 7 -58 10 -24 4 -58 31 -122 93 -49 48 -95 92 -102 97 -7
6 -33 25 -58 41 -25 17 -83 49 -130 72 -47 23 -120 48 -163 57 -42 8 -123 18
-180 21 -59 4 -140 2 -192 -5 -50 -6 -124 -16 -165 -23 -41 -6 -82 -15 -91
-19 -9 -5 -48 -11 -85 -14 l-69 -6 131 133 c71 73 151 156 176 183 25 28 77
86 114 131 38 44 104 125 146 180 42 54 111 145 152 201 41 56 123 174 182
263 58 89 110 158 115 153z m-3151 -530 c4 -5 12 -39 20 -76 7 -38 21 -91 31
-118 10 -27 16 -49 13 -49 -3 0 2 -12 10 -27 8 -16 22 -44 30 -63 8 -19 28
-64 45 -100 16 -36 47 -95 68 -131 21 -36 65 -101 98 -145 33 -43 85 -104 115
-135 30 -30 78 -73 105 -95 28 -23 77 -56 110 -75 33 -18 83 -43 110 -53 43
-17 75 -20 220 -20 152 1 192 5 375 38 113 20 219 38 235 40 17 1 64 6 105 10
61 6 71 5 55 -5 -11 -7 -56 -42 -100 -79 -44 -36 -108 -88 -142 -115 -34 -28
-71 -58 -83 -67 -12 -9 -28 -14 -36 -11 -7 2 -59 -31 -116 -74 -57 -43 -145
-104 -196 -135 -51 -32 -95 -58 -99 -58 -3 0 -26 -15 -52 -33 -25 -18 -64 -40
-86 -49 -22 -9 -71 -37 -109 -62 -38 -25 -77 -46 -87 -46 -10 0 -21 -5 -24
-11 -4 -5 -32 -21 -63 -35 -32 -14 -77 -32 -102 -41 -25 -8 -52 -21 -61 -29
-8 -8 -22 -14 -29 -14 -7 0 -21 -6 -29 -13 -9 -8 -35 -19 -57 -25 -23 -7 -50
-12 -61 -12 -10 0 -36 -9 -58 -20 -22 -11 -49 -20 -61 -20 -13 0 -34 -4 -48
-10 -14 -5 -47 -12 -73 -15 -26 -3 -97 -8 -157 -10 -93 -3 -116 -1 -152 15
-24 11 -47 20 -53 20 -5 0 -32 22 -60 49 -30 29 -61 72 -75 105 -17 37 -27 84
-31 139 -5 61 -1 114 14 207 12 69 30 159 42 200 12 41 35 118 51 170 17 52
50 151 75 220 24 69 58 161 75 205 17 44 69 168 115 275 46 107 105 239 130
293 26 53 50 94 53 90z m2653 -718 c18 -2 82 -6 142 -9 81 -4 129 -12 183 -30
41 -14 98 -37 128 -52 30 -15 53 -29 50 -31 -3 -3 -33 8 -68 25 -35 16 -79 35
-98 41 -19 5 -76 17 -126 26 -63 10 -132 14 -225 11 -74 -2 -153 -8 -176 -11
-30 -5 -43 -4 -43 4 0 6 12 11 28 11 15 0 59 3 97 6 39 4 72 8 73 10 2 1 18 1
35 -1z m102 -51 c11 -2 51 -6 88 -9 38 -4 101 -16 140 -27 40 -10 110 -40 157
-66 47 -26 95 -47 106 -48 12 -1 37 -14 57 -30 27 -21 33 -31 25 -41 -6 -7
-19 -13 -29 -13 -10 0 -21 5 -24 10 -3 6 -17 10 -30 10 -14 0 -44 4 -67 10
-24 5 -55 12 -70 15 -16 3 -27 11 -25 18 1 9 -26 12 -103 13 -58 1 -125 4
-150 7 -25 3 -120 11 -211 17 -113 7 -218 7 -330 0 -90 -6 -213 -15 -274 -20
-60 -5 -110 -8 -112 -6 -2 1 5 10 14 19 10 8 52 24 93 35 41 11 129 32 195 46
66 14 156 30 200 37 44 6 136 15 205 18 69 4 134 6 145 5z"/>
<g>
<path d="M2865 9900 c-15 0 -31 -10 -41 -25 -9 -13 -13 -33 -9 -44 3 -10 20
-24 38 -31 28 -9 34 -8 50 11 9 12 17 29 17 39 0 10 -7 26 -16 34 -8 9 -26 16
-39 16z"/>
</g>
<g>
<path d="M3718 10010 c-7 0 -21 -5 -30 -11 -11 -6 -18 -22 -18 -39 0 -18 8
-34 22 -44 12 -9 33 -16 45 -16 12 0 27 9 33 20 6 11 8 31 4 45 -3 14 -14 30
-24 35 -10 6 -25 10 -32 10z"/>
</g>
<g>
<path d="M3418 9790 c-5 0 -11 -7 -14 -15 -4 -9 -2 -28 4 -43 6 -15 14 -43 18
-62 3 -19 10 -39 14 -45 4 -5 13 -34 19 -64 6 -30 15 -59 20 -65 5 -6 29 -72
54 -146 25 -74 48 -149 52 -166 6 -29 4 -30 -44 -43 -35 -9 -52 -19 -57 -33
-4 -12 0 -26 9 -35 12 -13 21 -13 48 -4 17 6 54 11 80 11 40 0 49 3 49 18 0 9
-29 100 -64 202 -36 102 -78 223 -94 270 -16 47 -35 108 -42 135 -7 28 -20 58
-28 68 -8 9 -19 17 -24 17z"/>
</g>
<g>
<path d="M3767 8840 c-13 0 -26 -2 -28 -4 -2 -2 -79 -9 -170 -15 -94 -6 -185
-18 -209 -26 -23 -8 -56 -15 -72 -15 -16 0 -31 -6 -34 -14 -3 -8 0 -24 6 -36
10 -19 17 -21 68 -14 31 3 62 10 67 14 6 5 51 13 100 19 50 6 124 11 165 12
41 1 86 4 100 8 19 5 26 14 28 39 3 28 0 32 -21 32z"/>
</g>
<g>
<path d="M4041 4248 c-25 9 -32 7 -55 -17 -14 -15 -26 -34 -26 -42 0 -8 14
-30 31 -47 17 -18 37 -32 44 -32 7 0 17 6 23 13 6 6 13 24 17 40 4 15 4 38 1
51 -4 15 -17 28 -35 34z"/>
</g>
<g>
<path d="M5234 4150 c-24 0 -33 -5 -37 -21 -3 -12 -2 -32 3 -45 5 -13 21 -26
35 -30 15 -4 32 -1 40 6 8 7 15 24 15 39 0 15 -5 32 -12 39 -7 7 -26 12 -44
12z"/>
</g>
<g>
<path d="M4649 3800 c-4 0 -11 -5 -15 -11 -3 -6 -3 -146 0 -312 4 -166 11
-342 16 -392 5 -49 12 -182 15 -295 4 -113 10 -240 15 -284 4 -43 13 -83 19
-89 7 -7 34 -5 93 8 46 10 91 25 101 33 9 8 17 22 17 31 0 9 -4 23 -10 31 -8
12 -18 12 -80 -4 -39 -10 -73 -16 -77 -13 -3 4 -9 44 -14 89 -4 46 -8 148 -9
228 0 80 -5 177 -10 215 -5 39 -14 221 -20 405 -7 194 -16 340 -22 348 -6 6
-14 12 -19 12z"/>
</g>
<g>
<path d="M4885 2064 c-38 1 -82 0 -97 -2 -14 -2 -29 -10 -32 -19 -4 -9 -1 -25
7 -36 11 -17 26 -19 117 -21 58 -1 139 -7 180 -14 41 -6 110 -13 153 -15 57
-3 80 0 89 10 8 10 8 20 0 38 -10 21 -19 25 -54 26 -24 0 -54 2 -68 4 -14 1
-70 8 -125 15 -55 7 -131 14 -170 14z"/>
</g>
</g>
</g>
</svg>
