<?xml version="1.0" standalone="no"?>
<!DOCTYPE svg PUBLIC "-//W3C//DTD SVG 20010904//EN"
 "http://www.w3.org/TR/2001/REC-SVG-20010904/DTD/svg10.dtd">
<svg version="1.0" xmlns="http://www.w3.org/2000/svg"
 width="1200.000000pt" height="675.000000pt" viewBox="0 0 1200.000000 675.000000"
 preserveAspectRatio="xMidYMid meet">
<metadata>
Created by potrace 1.16, written by Peter Selinger 2001-2019
</metadata>
<g transform="translate(0.000000,675.000000) scale(0.100000,-0.100000)"
fill="#000000" stroke="none">
<g>
<path d="M3470 5654 c-58 2 -150 0 -205 -4 -55 -4 -127 -13 -160 -19 -33 -7
-109 -26 -169 -43 -60 -16 -136 -40 -170 -53 -34 -13 -79 -31 -101 -41 -22
-10 -63 -35 -91 -55 -28 -21 -66 -52 -85 -71 -19 -18 -51 -57 -71 -86 -21 -29
-48 -76 -60 -105 -12 -29 -26 -57 -31 -64 -5 -7 -24 -42 -43 -78 -19 -36 -34
-74 -34 -85 0 -11 -4 -20 -9 -20 -4 0 -20 -36 -34 -79 -15 -44 -29 -103 -33
-133 -3 -30 -1 -65 5 -80 6 -16 18 -28 26 -28 9 0 18 7 21 15 4 10 19 15 43
15 20 0 52 -5 71 -10 19 -6 110 -12 201 -15 91 -2 217 -9 280 -15 63 -6 164
-18 224 -27 61 -8 124 -17 140 -19 17 -2 57 -6 90 -9 33 -2 192 -4 353 -5 161
0 297 2 302 5 5 3 111 5 237 5 125 0 239 -2 253 -4 14 -2 44 -7 67 -11 35 -6
43 -4 52 13 6 11 11 38 11 59 0 21 -9 70 -19 108 -11 39 -35 117 -55 174 -21
57 -42 114 -48 125 -6 12 -21 33 -33 48 -12 14 -37 55 -54 90 -22 42 -63 95
-119 154 -48 49 -102 101 -120 114 -18 14 -54 44 -80 68 -26 23 -75 56 -109
72 -34 16 -88 37 -120 46 -32 9 -94 23 -138 31 -44 8 -127 15 -185 17z m-20
-89 c109 -2 182 -9 246 -23 49 -11 121 -33 158 -48 42 -16 95 -49 135 -83 36
-31 71 -60 77 -66 6 -5 28 -23 49 -40 21 -16 61 -59 90 -95 29 -36 79 -110
110 -165 32 -54 66 -120 77 -145 11 -25 32 -81 48 -126 15 -44 31 -99 35 -121
l6 -41 -43 10 c-28 7 -143 7 -333 2 -159 -4 -411 -8 -560 -7 -148 0 -306 5
-350 11 -44 6 -107 15 -140 21 -33 5 -82 12 -110 15 -27 2 -97 10 -155 16 -58
6 -121 9 -142 6 -20 -3 -91 -1 -159 4 -67 6 -150 15 -185 22 -61 11 -63 12
-58 37 4 14 20 60 37 101 16 41 36 91 43 110 7 19 33 76 59 125 25 50 64 115
86 145 22 30 45 62 52 70 7 8 30 29 51 45 20 17 43 36 51 43 7 6 16 12 19 12
4 0 28 9 54 21 26 11 54 24 62 28 8 5 51 18 95 31 44 12 100 28 125 35 25 8
70 19 100 25 30 6 91 15 135 20 44 5 150 7 235 5z"/>
<g>
<path d="M2870 5200 c-3 -1 -13 -5 -22 -11 -10 -5 -18 -20 -18 -33 0 -13 9
-31 19 -40 12 -11 27 -15 39 -12 11 4 23 14 26 22 3 9 1 25 -6 37 -6 12 -16
25 -22 29 -6 4 -13 8 -16 8z"/>
</g>
<g>
<path d="M4018 5182 c-13 8 -31 12 -40 10 -10 -2 -21 -15 -25 -29 -4 -20 -1
-31 16 -44 12 -10 29 -15 39 -12 9 4 20 11 24 17 4 6 8 18 8 27 0 9 -10 23
-22 31z"/>
</g>
<g>
<path d="M3512 5080 c-4 0 -13 -5 -20 -12 -7 -7 -12 -18 -12 -26 0 -8 12 -46
26 -85 14 -39 29 -76 34 -82 5 -6 16 -32 25 -59 9 -26 14 -50 11 -53 -3 -3
-31 -8 -63 -12 -56 -6 -58 -7 -58 -36 l0 -30 75 2 c41 0 88 3 104 6 18 2 34
13 39 26 8 17 1 40 -36 114 -25 50 -53 109 -61 130 -9 21 -16 47 -16 57 0 11
-9 29 -20 40 -11 11 -24 20 -28 20z"/>
</g>
</g>
<g>
<path d="M9859 5576 c-31 1 -58 2 -60 0 -2 -2 -33 -7 -69 -11 -36 -4 -159 -8
-275 -10 -115 -2 -426 -6 -690 -10 -264 -3 -541 -10 -615 -16 -74 -5 -159 -14
-189 -19 -30 -6 -68 -10 -85 -10 -17 0 -37 -4 -45 -9 -10 -7 -13 -63 -10 -297
1 -159 2 -346 1 -416 0 -75 4 -130 10 -134 5 -3 60 -6 121 -5 62 1 139 6 172
11 33 4 128 11 210 15 83 4 173 11 200 17 28 6 66 12 85 13 19 2 168 3 330 3
162 0 437 0 610 2 173 1 330 3 348 4 18 2 38 8 44 14 6 6 14 48 18 93 4 45 8
223 9 396 0 216 -3 320 -11 338 -6 14 -20 25 -32 26 -12 1 -46 3 -77 5z m-23
-77 l71 1 5 -42 c2 -24 3 -166 2 -315 -1 -150 -5 -293 -8 -318 l-7 -45 -639 1
c-511 0 -666 -3 -777 -15 -76 -8 -210 -20 -298 -27 -88 -6 -190 -13 -226 -15
l-67 -5 2 143 c1 79 -1 206 -5 283 -5 117 -4 143 9 157 13 16 13 24 -1 73
l-16 55 37 2 c20 0 48 2 62 4 14 1 59 5 100 8 41 4 86 9 100 12 14 3 131 8
260 10 129 3 456 7 725 9 270 3 515 9 545 13 30 5 87 10 126 11z"/>
</g>
<g>
<path d="M8847 4474 c-37 1 -69 1 -70 0 -1 -1 -20 -5 -42 -8 -22 -4 -66 -11
-98 -16 -31 -5 -61 -11 -66 -14 -5 -4 -31 -8 -58 -11 -26 -2 -70 -14 -98 -26
-27 -12 -69 -30 -93 -40 -23 -10 -48 -19 -54 -19 -7 0 -30 -12 -52 -27 -22
-16 -67 -60 -100 -99 -34 -39 -78 -105 -98 -145 -20 -41 -55 -111 -78 -156
-22 -44 -40 -87 -40 -95 0 -8 -11 -38 -25 -66 -14 -29 -25 -58 -25 -64 0 -7
-11 -36 -24 -65 -14 -28 -32 -89 -42 -136 -16 -78 -16 -91 -1 -213 10 -74 30
-169 47 -224 17 -52 47 -126 66 -165 19 -38 40 -79 47 -90 6 -11 24 -40 40
-65 15 -24 61 -78 102 -120 41 -41 93 -90 115 -109 23 -18 85 -63 138 -99 53
-36 119 -74 147 -85 27 -10 70 -26 95 -34 31 -10 106 -16 244 -20 129 -3 206
-1 220 5 11 6 62 16 111 22 50 6 113 18 140 27 28 8 55 19 60 23 6 4 28 11 50
15 22 4 60 17 85 29 25 13 77 39 115 60 50 26 99 66 173 139 83 82 110 116
136 172 18 39 39 90 46 115 7 25 17 50 20 55 4 6 14 33 23 60 9 28 24 116 33
197 17 138 17 153 1 220 -9 40 -19 91 -22 113 -4 22 -15 81 -26 130 -11 50
-36 144 -55 210 -24 82 -50 145 -82 199 -36 60 -67 95 -133 151 -47 39 -126
97 -175 127 -49 30 -115 67 -148 83 -32 16 -88 34 -124 41 -36 7 -131 13 -211
14 -80 1 -177 3 -214 4z m108 -86 c183 0 235 -3 308 -19 49 -11 107 -29 130
-41 23 -11 80 -45 127 -74 47 -29 105 -70 130 -91 25 -21 64 -57 87 -81 25
-25 59 -76 82 -125 21 -45 55 -147 75 -226 21 -79 48 -203 61 -275 14 -72 25
-151 25 -176 0 -25 -5 -72 -11 -105 -5 -33 -12 -74 -15 -92 -2 -18 -24 -87
-49 -153 -25 -66 -54 -139 -66 -162 -12 -23 -67 -87 -123 -143 -87 -86 -114
-106 -196 -146 -52 -25 -126 -56 -165 -67 -38 -12 -86 -26 -105 -31 -19 -6
-71 -15 -115 -20 -44 -6 -122 -15 -173 -21 l-92 -12 -31 27 c-18 14 -39 24
-48 23 -9 -2 -15 -11 -15 -21 1 -9 -3 -17 -10 -18 -6 -1 -45 -1 -88 -1 -55 1
-89 6 -121 21 -25 12 -48 21 -51 21 -3 0 -40 21 -83 47 -43 27 -80 50 -83 53
-3 3 -21 17 -40 30 -19 14 -53 40 -75 60 -22 19 -65 60 -95 90 -30 30 -67 71
-82 90 -14 19 -46 73 -70 120 -24 47 -51 106 -60 130 -9 25 -26 79 -37 120
-10 41 -25 115 -31 164 -7 49 -9 115 -6 150 4 33 23 104 43 156 20 52 44 115
53 140 10 25 32 79 48 120 16 41 47 106 68 143 22 38 44 76 49 85 6 10 25 38
44 64 18 26 51 60 72 77 21 17 40 31 43 31 3 0 42 17 88 39 46 21 110 43 143
49 33 7 83 17 110 23 28 6 68 15 90 19 22 4 139 7 260 8z"/>
<g>
<path d="M8263 3880 c-5 0 -18 -9 -28 -20 -15 -17 -16 -24 -7 -45 8 -16 20
-25 35 -25 13 0 28 5 35 12 7 7 12 19 12 28 0 9 -8 24 -18 33 -10 10 -23 17
-29 17z"/>
</g>
<g>
<path d="M9226 3840 c-7 0 -20 -8 -29 -18 -10 -10 -17 -26 -17 -35 0 -9 10
-23 22 -31 12 -9 26 -16 30 -16 4 0 15 11 24 25 15 23 15 27 0 50 -9 14 -22
25 -30 25z"/>
</g>
<g>
<path d="M8702 3689 c-4 -1 -14 -3 -23 -6 -12 -3 -24 -35 -43 -116 -14 -62
-28 -128 -31 -147 -3 -19 -7 -57 -9 -85 -2 -27 -12 -94 -22 -148 -12 -68 -14
-101 -7 -108 6 -6 26 -12 44 -14 19 -1 68 -6 110 -10 46 -5 79 -4 82 2 3 5 3
23 -2 39 -7 28 -11 29 -85 38 l-78 9 5 46 c3 25 12 96 21 156 8 61 20 130 25
155 5 25 16 70 24 102 9 35 11 62 5 72 -5 9 -12 15 -16 15z"/>
</g>
<g>
<path d="M9051 2769 c-37 0 -71 -2 -75 -7 -4 -4 -134 -7 -289 -7 l-282 0 0
-29 c0 -23 6 -31 25 -36 14 -4 108 -10 210 -14 140 -5 216 -3 315 9 71 8 138
15 147 15 10 0 22 9 28 21 8 15 8 24 0 34 -7 8 -35 13 -79 14z"/>
</g>
</g>
<g>
<path d="M1855 4424 c-44 2 -132 0 -195 -4 -63 -4 -142 -12 -175 -19 -33 -7
-89 -24 -125 -38 -36 -14 -69 -29 -75 -33 -5 -4 -41 -24 -80 -45 -38 -21 -105
-63 -149 -94 -43 -31 -102 -81 -132 -111 -29 -30 -70 -80 -92 -111 -21 -30
-63 -104 -93 -165 -29 -60 -65 -129 -79 -154 -15 -25 -33 -63 -42 -85 -9 -22
-19 -62 -22 -90 -4 -27 -11 -68 -16 -90 -5 -22 -11 -74 -15 -115 -4 -41 -2
-113 4 -159 6 -46 18 -95 26 -107 8 -13 15 -31 15 -40 0 -9 26 -71 59 -138 44
-91 76 -141 128 -201 39 -44 103 -109 143 -145 40 -36 92 -77 116 -92 24 -16
48 -28 53 -28 5 0 15 -7 22 -16 8 -10 46 -32 85 -50 39 -18 95 -39 125 -47 30
-8 86 -20 124 -26 39 -7 129 -13 200 -14 l130 -2 1 340 c1 187 4 396 7 465 4
69 9 220 11 335 3 125 13 273 25 365 11 85 25 213 31 284 5 71 10 177 10 235
0 58 4 111 8 117 4 7 18 14 32 15 19 3 26 11 28 32 2 15 0 27 -5 27 -4 1 -44
2 -88 4z m-108 -67 l63 1 -5 -200 c-3 -110 -7 -203 -9 -207 -3 -3 -11 -60 -20
-126 -8 -66 -20 -193 -26 -283 -6 -89 -14 -274 -17 -410 -3 -136 -6 -278 -7
-317 0 -38 1 -124 3 -190 1 -66 2 -171 2 -232 l-1 -113 -67 5 c-38 2 -88 7
-113 10 -25 2 -63 7 -85 9 -22 2 -69 11 -104 20 -35 10 -93 31 -130 48 -36 17
-86 47 -111 68 -25 20 -57 43 -71 51 -15 8 -51 37 -80 64 -30 28 -81 82 -114
121 -33 39 -67 80 -76 91 -9 11 -22 37 -29 57 -6 20 -17 42 -24 49 -7 7 -23
39 -36 72 -12 33 -31 82 -41 110 -14 36 -19 76 -19 147 0 53 5 121 11 150 5
29 17 82 25 118 9 37 49 133 96 225 44 88 92 180 107 203 14 24 52 73 84 109
32 36 83 83 114 105 30 21 101 67 157 100 55 34 117 70 137 79 19 10 67 25
105 35 38 9 103 20 144 23 41 4 103 7 137 8z"/>
<g>
<path d="M1419 3740 c-16 0 -30 -3 -30 -7 -1 -5 -4 -100 -6 -213 -2 -113 -4
-230 -5 -260 0 -30 2 -126 6 -214 4 -87 11 -167 17 -177 5 -11 16 -19 23 -19
7 0 19 8 27 18 12 14 14 45 8 172 -3 85 -4 209 -1 275 2 66 4 185 3 264 -1 79
-4 147 -7 152 -3 5 -18 9 -35 9z"/>
</g>
</g>
<g>
<path d="M2223 4428 c-40 0 -77 -4 -83 -8 -6 -4 -13 -27 -14 -52 -2 -24 -6
-53 -9 -64 -3 -10 -11 -70 -17 -133 -6 -63 -13 -184 -16 -270 -2 -86 -8 -196
-14 -246 -5 -49 -14 -139 -20 -200 -6 -60 -18 -173 -26 -250 -8 -77 -15 -174
-15 -215 0 -41 -2 -225 -4 -408 -2 -183 -6 -345 -10 -360 -3 -16 -1 -41 5 -56
10 -27 11 -28 77 -22 37 3 117 8 178 11 60 3 268 8 460 10 193 3 413 5 490 6
77 1 264 -2 415 -7 151 -5 397 -9 547 -9 229 0 275 2 287 15 13 13 16 88 21
510 3 272 11 536 16 585 6 50 10 164 10 255 -1 91 4 233 9 315 5 83 12 204 15
270 3 66 8 143 11 171 4 31 1 60 -5 73 -10 18 -18 20 -54 15 -23 -3 -76 -14
-117 -24 -41 -10 -109 -21 -150 -25 -41 -4 -120 -8 -175 -7 -55 0 -129 3 -165
6 -36 3 -86 8 -110 11 -25 3 -83 9 -130 15 -47 6 -143 15 -215 21 -71 6 -148
12 -170 14 -22 2 -116 7 -210 10 -93 3 -210 10 -260 15 -49 4 -161 8 -249 9
-87 0 -175 5 -195 11 -20 5 -69 9 -108 8z m40 -74 c40 -3 75 -8 78 -10 3 -1
83 -4 179 -5 95 -1 206 -5 246 -10 40 -4 133 -10 206 -13 73 -3 207 -11 298
-17 91 -6 244 -19 340 -30 96 -11 243 -25 325 -30 83 -6 155 -10 160 -10 6 1
48 5 95 11 47 5 125 16 173 24 49 9 92 18 96 20 4 3 5 -55 3 -127 -2 -73 -7
-161 -11 -197 -5 -36 -9 -150 -10 -255 -1 -104 -4 -226 -7 -270 -3 -44 -9
-108 -14 -143 -5 -35 -9 -168 -10 -295 -1 -128 -3 -331 -6 -452 -2 -121 -4
-239 -4 -262 0 -39 -2 -42 -32 -49 -18 -4 -76 -6 -128 -5 -52 1 -149 4 -215 7
-66 3 -394 6 -730 7 -335 1 -711 -1 -835 -4 -124 -4 -262 -10 -307 -14 l-82
-8 1 304 c0 167 5 383 9 479 5 96 13 218 19 270 6 52 18 169 26 260 8 91 19
253 24 360 5 107 13 240 19 295 6 55 14 117 17 138 l6 38 71 -7z"/>
</g>
<g>
<path d="M10875 4334 c-99 2 -209 1 -245 -4 -36 -4 -137 -11 -225 -15 -122 -6
-164 -11 -177 -23 -10 -8 -18 -25 -18 -38 0 -13 4 -25 9 -29 6 -3 6 -16 1 -33
-5 -15 -15 -110 -23 -212 -10 -137 -13 -371 -11 -895 1 -390 3 -718 3 -727 1
-10 11 -20 24 -23 12 -3 65 0 117 8 52 8 111 13 130 11 19 -1 96 -4 170 -7 74
-3 212 0 305 5 94 5 171 11 172 12 2 1 8 72 14 157 9 118 9 241 0 529 -6 206
-15 483 -18 615 -4 132 -6 294 -6 360 0 66 6 147 12 179 8 46 8 66 -1 87 -7
16 -22 30 -33 33 -11 2 -101 7 -200 10z m25 -76 c25 -4 69 -7 99 -7 41 -1 52
-4 48 -15 -3 -8 -8 -60 -12 -117 -4 -57 -8 -132 -9 -166 -1 -34 1 -93 6 -130
5 -37 11 -196 14 -353 3 -157 7 -332 9 -390 2 -58 5 -222 6 -364 1 -243 0
-260 -17 -274 -16 -11 -76 -13 -349 -11 -181 2 -354 0 -382 -5 -29 -4 -53 -4
-54 0 0 5 -1 95 -1 199 0 105 0 330 0 500 0 171 -1 414 -1 540 -1 127 0 259 2
295 2 36 9 94 16 130 8 36 16 81 20 101 l5 37 113 11 c61 7 186 15 277 19 91
4 185 4 210 0z"/>
</g>
<g>
<path d="M4707 4320 c-7 -1 -27 -7 -44 -15 -22 -9 -33 -21 -33 -34 0 -12 8
-26 18 -32 16 -10 17 -33 15 -287 -2 -211 0 -278 10 -284 9 -6 9 -10 -3 -18
-13 -8 -14 -76 -13 -507 2 -274 -2 -543 -7 -598 -6 -56 -11 -152 -12 -215 0
-63 2 -130 6 -148 5 -22 15 -34 31 -38 13 -3 77 -1 142 5 65 6 163 19 218 29
55 11 143 32 195 47 52 15 129 44 170 63 41 19 93 48 115 63 22 15 61 47 86
71 25 24 64 66 86 93 22 28 54 75 71 105 17 30 37 82 45 115 9 33 22 92 31
131 9 40 16 107 16 150 0 44 -9 156 -20 249 -11 94 -27 199 -35 235 -9 36 -27
94 -40 130 -13 36 -37 100 -55 144 -17 43 -40 93 -50 111 -10 18 -35 55 -55
81 -20 27 -57 70 -82 96 -24 26 -74 68 -109 93 -36 25 -105 60 -153 79 -48 19
-117 42 -152 51 -48 13 -103 17 -216 16 -88 0 -155 4 -158 9 -4 6 -12 10 -18
10z m193 -97 c25 -1 77 -4 115 -7 39 -2 105 -16 148 -31 43 -14 102 -37 130
-50 29 -13 64 -35 78 -48 14 -13 35 -29 46 -35 12 -7 55 -52 97 -102 42 -50
84 -109 95 -133 10 -23 22 -57 26 -74 3 -18 10 -33 14 -33 4 0 17 -24 28 -52
11 -29 30 -78 41 -108 11 -30 25 -84 31 -120 6 -36 17 -117 25 -180 7 -63 14
-149 15 -190 1 -45 -6 -117 -18 -175 -11 -55 -28 -122 -37 -150 -10 -27 -40
-83 -67 -124 -27 -41 -75 -98 -106 -128 -38 -36 -91 -71 -165 -108 -60 -30
-117 -55 -126 -55 -9 0 -42 -9 -74 -20 -31 -10 -96 -26 -144 -35 -48 -9 -121
-22 -162 -30 -41 -8 -98 -13 -127 -13 l-51 2 -1 107 c-1 59 4 140 9 180 6 41
11 188 11 327 0 139 -3 258 -7 264 -4 6 -6 65 -5 131 1 66 5 125 8 130 4 6 6
201 5 433 l-2 423 63 3 c34 2 82 2 107 1z"/>
<g>
<path d="M5380 3780 c-4 0 -10 -3 -14 -7 -4 -5 -13 -8 -19 -8 -7 0 -13 -14
-15 -32 -3 -27 1 -33 22 -39 14 -3 30 -3 36 1 6 4 15 17 20 29 5 14 3 27 -8
39 -8 9 -18 17 -22 17z"/>
</g>
<g>
<path d="M4874 3157 c-18 12 -23 12 -33 0 -8 -10 -9 -46 -5 -118 4 -57 11
-110 17 -117 7 -8 21 -11 41 -6 16 3 66 23 110 44 45 21 106 47 136 59 30 11
77 25 105 31 27 6 55 16 62 22 7 6 13 19 13 30 0 10 -6 21 -14 24 -7 3 -49 -4
-92 -15 -43 -12 -92 -26 -109 -32 -16 -6 -57 -24 -90 -39 -33 -15 -68 -31 -77
-34 -14 -4 -19 5 -27 47 -5 29 -11 60 -13 71 -2 10 -12 25 -24 33z"/>
</g>
<g>
<path d="M5392 2698 c-22 2 -34 -1 -37 -12 -3 -9 -7 -22 -9 -30 -3 -7 1 -19 7
-25 6 -6 21 -11 33 -11 12 0 27 7 34 14 6 8 10 25 8 38 -2 18 -10 24 -36 26z"/>
</g>
</g>
<g>
<path d="M7750 4316 c-8 0 -40 -1 -70 -3 -30 -2 -143 -12 -250 -23 -108 -11
-237 -20 -288 -20 -51 0 -92 -3 -92 -7 -1 -5 -3 -91 -6 -193 -3 -102 -5 -198
-6 -215 0 -16 3 -147 6 -290 3 -143 8 -395 11 -560 4 -165 7 -384 8 -487 1
-102 5 -190 9 -193 4 -4 42 -7 85 -6 43 1 125 -5 183 -13 58 -9 129 -20 159
-26 29 -5 80 -10 111 -10 40 0 62 5 70 15 10 12 10 24 2 53 -6 22 -9 93 -7
172 2 74 9 200 16 280 7 92 9 235 5 390 -3 135 -5 331 -5 435 1 105 3 213 5
240 3 28 6 68 8 90 3 22 9 78 15 125 5 47 15 100 20 118 6 19 15 40 21 47 6 8
10 29 8 47 -2 21 -9 33 -18 34z m-72 -77 c9 1 10 -4 3 -18 -6 -10 -15 -40 -21
-67 -6 -27 -18 -119 -26 -204 -10 -101 -14 -247 -13 -420 2 -146 2 -366 2
-490 0 -124 -5 -256 -11 -295 -6 -38 -12 -133 -13 -210 -1 -77 2 -153 6 -168
l8 -29 -59 5 c-33 3 -115 15 -184 26 -69 11 -150 21 -181 21 l-56 0 -6 203
c-4 111 -11 236 -17 277 -5 41 -9 356 -10 700 l0 625 82 0 c46 0 126 4 178 8
52 4 142 14 200 21 58 8 111 14 118 15z"/>
</g>
<g>
<path d="M8290 2153 c-25 3 -72 -1 -105 -9 -33 -8 -116 -20 -183 -28 -88 -10
-129 -18 -140 -30 -15 -14 -17 -42 -16 -199 0 -100 2 -251 4 -335 1 -84 1
-154 -1 -157 -3 -2 -2 -28 1 -57 l5 -53 85 3 c47 1 101 7 120 13 19 5 161 11
315 13 154 2 350 0 435 -4 85 -5 191 -14 235 -21 50 -8 217 -13 447 -14 201
-1 377 -5 391 -9 17 -4 29 0 38 11 11 13 14 93 14 414 0 267 -3 401 -11 409
-6 6 -103 12 -255 16 -134 3 -290 12 -345 20 -78 11 -206 14 -545 13 -244 -1
-464 1 -489 4z m334 -84 c248 -1 512 -5 586 -10 74 -4 164 -11 200 -14 36 -3
148 -8 250 -10 102 -2 191 -4 198 -5 11 0 13 -64 10 -334 -2 -184 -6 -337 -9
-340 -3 -3 -161 -7 -350 -8 -234 -2 -363 1 -404 9 -33 7 -123 17 -200 22 -77
6 -212 12 -300 13 -88 2 -238 0 -333 -5 -96 -4 -192 -11 -215 -16 -23 -5 -64
-11 -92 -13 l-49 -3 -3 35 c-1 19 -3 169 -3 332 -1 163 1 302 5 308 3 5 10 8
13 6 4 -2 41 0 82 5 41 4 93 11 114 14 22 3 42 7 44 10 3 3 208 4 456 4z"/>
</g>
<g>
<path d="M4407 1984 c-23 1 -114 -2 -202 -6 -88 -3 -223 -9 -300 -12 -77 -3
-277 -8 -445 -11 -168 -3 -316 -7 -330 -10 -14 -3 -173 -7 -355 -10 -181 -2
-415 -7 -520 -11 -104 -4 -200 -10 -212 -15 -16 -6 -23 -17 -23 -34 0 -17 8
-29 25 -37 17 -8 25 -20 26 -37 0 -14 2 -61 5 -105 2 -43 13 -111 24 -152 11
-40 31 -95 46 -121 14 -26 51 -72 82 -101 31 -30 72 -62 92 -73 19 -10 51 -26
70 -35 19 -9 58 -31 87 -50 28 -19 54 -34 58 -34 3 0 18 -9 33 -20 15 -11 93
-47 174 -79 81 -33 188 -69 239 -81 50 -12 157 -28 238 -35 80 -8 191 -15 247
-15 62 0 135 7 190 19 49 10 103 24 119 30 17 6 39 15 50 20 11 5 61 28 110
52 50 24 108 59 130 79 21 19 55 51 73 70 19 19 52 64 73 100 22 36 65 117 98
180 32 63 64 133 71 155 7 22 18 54 25 70 7 17 18 44 25 60 6 17 20 72 30 124
16 83 16 96 3 109 -8 9 -33 16 -56 16z m-26 -81 c4 -2 3 -21 -2 -43 -5 -22
-23 -84 -40 -138 -17 -53 -51 -139 -75 -189 -24 -51 -44 -96 -44 -99 0 -4 -15
-27 -33 -53 -18 -25 -45 -66 -59 -91 -14 -25 -51 -68 -81 -97 -34 -32 -91 -70
-153 -101 -54 -27 -137 -61 -183 -76 -54 -16 -120 -28 -180 -32 -53 -3 -163
-1 -246 5 -82 6 -163 13 -180 16 -16 3 -62 12 -101 20 -40 8 -107 28 -151 44
-43 16 -94 38 -113 48 -19 11 -53 26 -75 33 -21 7 -71 32 -110 56 -38 24 -108
63 -155 88 -47 24 -103 61 -125 83 -22 21 -57 72 -78 113 -20 41 -37 85 -37
98 0 13 -7 73 -16 134 -11 74 -13 113 -6 120 6 6 179 12 478 14 257 3 471 7
475 10 4 2 176 7 381 10 205 3 492 11 638 18 146 6 268 11 271 9z"/>
<g>
<path d="M3876 1710 c-51 0 -95 -2 -97 -4 -2 -2 -104 -6 -226 -9 -121 -2 -226
-7 -231 -11 -6 -4 -134 -8 -284 -10 -150 -2 -281 -7 -291 -11 -13 -5 -17 -16
-15 -39 l3 -31 235 -3 c129 -2 269 2 310 7 41 6 102 13 135 16 33 2 179 7 324
10 145 3 268 8 272 11 5 3 9 16 9 30 0 17 -8 27 -26 34 -14 6 -67 10 -118 10z"/>
</g>
</g>
</g>
</svg>
