<?xml version="1.0" standalone="no"?>
<!DOCTYPE svg PUBLIC "-//W3C//DTD SVG 20010904//EN"
 "http://www.w3.org/TR/2001/REC-SVG-20010904/DTD/svg10.dtd">
<svg version="1.0" xmlns="http://www.w3.org/2000/svg"
 width="900.000000pt" height="1200.000000pt" viewBox="0 0 900.000000 1200.000000"
 preserveAspectRatio="xMidYMid meet">
<metadata>
Created by potrace 1.16, written by Peter Selinger 2001-2019
</metadata>
<g transform="translate(0.000000,1200.000000) scale(0.100000,-0.100000)"
fill="#000000" stroke="none">
<g>
<path d="M4295 11653 c-44 2 -93 2 -110 0 -16 -2 -50 -8 -75 -14 -25 -6 -72
-22 -105 -37 -33 -14 -62 -29 -65 -32 -3 -3 -25 -18 -50 -33 -25 -15 -70 -46
-100 -70 -49 -38 -56 -48 -61 -88 -3 -24 -11 -63 -17 -86 -10 -34 -18 -43 -42
-48 -16 -3 -66 -22 -112 -41 -45 -20 -85 -38 -88 -42 -3 -4 -30 -20 -60 -35
-30 -15 -62 -27 -70 -27 -8 0 -51 -11 -95 -24 -44 -13 -116 -41 -160 -61 -44
-20 -138 -66 -210 -101 -108 -52 -142 -75 -200 -131 -38 -38 -101 -102 -140
-143 -38 -41 -100 -116 -136 -165 -37 -50 -80 -112 -97 -138 -17 -27 -36 -71
-42 -98 -7 -27 -9 -61 -6 -75 4 -13 19 -38 34 -53 16 -17 56 -38 102 -53 41
-14 111 -29 155 -32 60 -5 95 -3 140 10 33 9 98 25 144 35 47 10 90 19 97 19
6 0 15 -12 18 -26 4 -14 18 -44 33 -67 14 -22 46 -63 72 -90 25 -28 71 -66
101 -86 30 -19 98 -57 150 -84 52 -27 129 -66 170 -87 41 -20 104 -51 140 -68
36 -17 94 -39 130 -50 36 -11 94 -27 130 -35 36 -9 97 -23 135 -31 39 -8 104
-19 145 -26 41 -6 109 -18 150 -26 41 -8 85 -16 96 -19 22 -5 21 -6 -18 -137
-22 -73 -48 -164 -58 -203 -10 -38 -28 -112 -40 -164 -13 -57 -24 -145 -27
-220 -4 -95 -1 -142 11 -193 8 -37 32 -101 52 -142 20 -41 49 -88 65 -104 28
-28 31 -29 111 -25 45 2 118 13 162 24 44 11 105 31 136 43 31 13 81 39 111
58 30 19 89 66 133 103 43 38 108 100 144 138 l67 68 36 -75 c21 -41 46 -88
57 -103 10 -15 28 -53 40 -83 11 -30 34 -86 51 -125 18 -38 46 -97 63 -130 17
-33 40 -73 51 -88 10 -16 18 -29 16 -31 -2 -2 -94 -20 -204 -40 -110 -21 -276
-53 -370 -71 -93 -18 -208 -41 -255 -50 -47 -10 -110 -22 -140 -27 -30 -5 -88
-21 -130 -35 -41 -14 -115 -46 -163 -71 -56 -28 -107 -64 -139 -96 -27 -28
-59 -68 -70 -89 -10 -21 -22 -69 -25 -106 -4 -50 -1 -82 12 -121 11 -33 32
-66 58 -92 22 -21 69 -55 105 -75 35 -20 87 -42 115 -50 29 -8 61 -18 72 -23
11 -5 45 -19 75 -30 30 -11 125 -31 210 -45 85 -13 220 -29 299 -34 79 -5 210
-6 291 -4 l148 5 7 -33 c3 -19 18 -65 33 -104 14 -38 37 -87 50 -107 l24 -37
-26 -48 c-14 -26 -49 -98 -79 -158 l-53 -111 -95 39 c-52 21 -152 58 -224 82
-71 24 -164 50 -205 58 -41 9 -112 18 -157 22 -50 4 -110 2 -155 -5 -44 -7
-94 -24 -125 -41 -29 -17 -63 -44 -78 -60 -14 -17 -36 -49 -49 -72 -13 -23
-29 -64 -35 -92 -6 -27 -12 -68 -14 -90 -2 -22 1 -72 8 -111 7 -38 28 -107 48
-152 19 -45 50 -103 67 -129 l33 -48 -23 -40 c-12 -22 -37 -67 -54 -100 -18
-33 -40 -85 -49 -115 -9 -30 -18 -81 -18 -113 -1 -46 4 -70 27 -115 17 -32 44
-66 62 -79 18 -12 57 -26 85 -32 29 -6 129 -15 224 -21 94 -5 219 -10 278 -10
107 0 107 0 101 -22 -4 -13 -15 -61 -25 -108 -10 -47 -19 -92 -20 -100 -1 -8
-7 -77 -13 -153 -9 -108 -9 -160 1 -240 10 -87 10 -109 -2 -147 -9 -25 -18
-61 -22 -80 -4 -19 -17 -71 -30 -115 -13 -44 -31 -118 -39 -165 -8 -47 -16
-112 -17 -145 0 -33 5 -93 11 -132 8 -47 23 -89 41 -118 18 -29 42 -52 64 -61
19 -8 58 -14 87 -14 29 -1 71 -5 93 -9 22 -5 77 -19 123 -30 46 -12 112 -22
147 -22 48 -1 78 5 117 24 29 13 71 39 92 56 22 17 42 28 46 24 4 -5 12 -28
19 -53 7 -25 24 -81 37 -125 14 -44 46 -122 72 -173 33 -66 72 -122 134 -192
47 -53 128 -134 178 -179 51 -44 120 -94 154 -111 33 -16 84 -32 111 -35 37
-5 59 -1 85 12 19 10 49 37 66 59 20 27 35 64 44 105 7 35 14 73 16 84 2 11
10 50 18 86 8 37 24 98 35 135 11 38 25 98 31 134 7 35 14 188 17 340 3 151 6
394 7 539 l1 263 50 -6 c28 -4 113 -11 190 -17 77 -5 205 -8 285 -5 80 3 177
12 215 20 39 7 96 21 129 30 32 8 86 31 120 50 33 19 79 54 102 78 22 24 47
58 54 75 10 26 10 43 1 80 -7 27 -32 78 -56 114 -25 37 -77 101 -117 144 -40
42 -119 116 -177 163 -59 47 -111 92 -118 100 -6 7 -74 58 -150 112 -76 55
-172 120 -213 145 -41 26 -102 64 -135 86 -33 21 -67 42 -75 46 -8 4 -64 35
-124 70 -60 35 -113 63 -117 63 -5 0 -9 9 -9 19 0 11 4 22 9 25 5 3 24 34 41
68 18 35 43 77 55 93 12 17 36 60 54 97 18 37 37 82 41 100 5 18 16 58 24 88
9 30 23 98 32 150 9 52 17 106 19 120 2 14 9 70 15 125 6 55 11 149 13 209 l2
109 110 19 c61 10 148 28 195 39 47 12 152 43 234 70 82 27 186 69 230 92 52
27 103 64 142 102 48 49 65 75 87 133 16 43 27 94 27 123 0 27 -6 64 -14 82
-7 18 -39 60 -70 93 -31 34 -79 77 -108 96 -29 19 -71 44 -93 56 -22 11 -65
32 -95 45 -30 13 -107 41 -171 60 -63 20 -147 41 -185 47 -38 6 -136 19 -219
29 -82 10 -177 19 -210 20 -33 1 -63 7 -66 13 -4 6 2 32 13 57 11 25 35 89 53
141 18 52 49 138 68 190 24 66 42 144 58 250 12 85 22 200 22 255 0 68 -7 127
-21 185 -12 47 -32 113 -46 147 -13 35 -38 87 -55 115 -16 29 -52 80 -78 113
-27 33 -89 93 -138 133 -50 40 -101 79 -115 85 -24 12 -25 16 -22 95 2 55 -3
103 -14 144 -9 35 -25 81 -36 102 -10 22 -18 43 -18 47 0 5 -13 31 -30 59
l-30 51 24 57 c13 31 33 84 44 117 11 33 34 106 51 161 17 56 40 144 51 195
12 52 23 144 27 205 3 68 1 143 -6 194 -7 45 -21 110 -31 144 -13 42 -31 73
-55 96 -33 32 -41 35 -93 34 -41 -1 -76 -10 -122 -31 -36 -17 -109 -61 -163
-98 -54 -38 -148 -112 -210 -166 -62 -53 -134 -120 -162 -148 -27 -28 -54 -51
-60 -51 -6 0 -53 43 -105 96 -52 52 -128 121 -169 152 -40 31 -85 65 -100 74
-14 10 -57 34 -96 53 -38 20 -83 44 -100 55 -16 10 -109 47 -205 83 -96 36
-213 75 -260 86 -47 11 -108 25 -135 31 -28 6 -86 12 -130 13z m-15 -30 c30
-2 96 -10 146 -18 51 -8 104 -19 118 -25 14 -5 26 -8 26 -5 0 2 48 -14 108
-35 59 -21 148 -54 198 -74 51 -19 136 -59 190 -88 55 -28 142 -82 194 -120
52 -37 141 -114 198 -170 56 -56 102 -107 102 -113 0 -6 -22 -33 -49 -59 l-49
-49 -23 44 c-12 24 -40 71 -62 104 -23 33 -84 103 -137 155 -77 77 -111 103
-180 137 -47 23 -107 46 -135 52 -27 6 -105 16 -173 21 -68 5 -212 8 -320 5
-108 -3 -213 -8 -232 -10 -19 -3 -62 -9 -95 -15 -33 -6 -86 -15 -118 -21 -32
-5 -95 -21 -140 -35 -45 -14 -88 -27 -95 -30 -9 -2 -12 2 -8 14 2 9 10 42 16
73 10 54 14 59 78 107 37 27 92 63 122 80 30 17 75 39 100 48 25 9 72 19 105
23 33 4 85 6 115 4z m260 -278 c221 -2 322 -7 365 -18 34 -8 83 -24 110 -36
27 -12 74 -40 104 -63 30 -23 85 -74 123 -113 38 -40 81 -90 97 -111 15 -21
43 -67 61 -102 l33 -63 -30 -37 c-22 -26 -38 -36 -54 -35 -13 1 -73 9 -134 17
-60 8 -150 15 -200 15 -49 1 -128 -6 -175 -14 -47 -8 -101 -20 -120 -26 -19
-6 -49 -14 -67 -19 -23 -5 -38 -3 -55 8 -13 8 -45 32 -73 53 -27 20 -79 53
-115 72 -36 20 -155 65 -265 101 -110 35 -242 74 -293 85 -52 12 -105 21 -119
21 -26 0 -26 1 -20 60 4 34 11 70 17 80 7 12 40 28 93 45 45 14 116 32 157 40
41 9 116 22 165 30 68 11 164 13 395 10z m1760 -12 c14 -3 31 -11 39 -17 8 -6
24 -33 36 -61 12 -27 28 -89 35 -136 8 -53 11 -132 8 -205 -5 -100 -12 -137
-42 -234 -21 -63 -43 -131 -50 -150 -8 -19 -24 -62 -36 -95 -13 -33 -25 -62
-26 -64 -2 -2 -28 18 -58 45 -29 27 -65 58 -78 69 -14 11 -34 26 -44 32 -11 7
-46 25 -79 41 -33 16 -77 35 -99 43 -25 9 -42 23 -47 39 -5 14 -19 43 -31 65
-12 22 -45 72 -73 110 -28 39 -59 76 -68 84 -9 7 -17 19 -17 25 0 6 53 58 117
116 65 57 151 128 193 158 41 30 98 66 125 80 28 14 77 33 110 43 33 9 71 15
85 12z m-2617 -113 c5 0 5 -26 1 -57 -3 -32 -8 -61 -11 -65 -2 -4 -32 -5 -66
-2 -34 3 -71 7 -82 9 -11 1 -33 3 -50 4 l-30 1 35 22 c19 12 71 36 115 54 44
18 84 33 88 34z m-237 -150 c39 0 105 -3 146 -6 l75 -7 -1 -141 c-1 -119 2
-152 21 -211 13 -41 43 -101 73 -143 27 -41 50 -77 50 -80 0 -4 11 -24 25 -44
14 -20 25 -39 25 -42 0 -2 -19 -9 -42 -15 -24 -5 -92 -22 -153 -37 -60 -14
-128 -33 -150 -41 -22 -8 -71 -30 -110 -49 -38 -18 -91 -38 -116 -44 -26 -5
-58 -14 -71 -19 -21 -8 -34 -3 -82 30 -31 21 -62 39 -69 39 -6 0 7 -16 31 -36
23 -20 42 -42 42 -50 0 -8 -8 -14 -17 -15 -10 0 -31 -2 -48 -4 -16 -2 -49 -7
-72 -10 l-42 -6 -7 37 c-4 21 -4 106 -1 188 5 96 14 181 27 234 11 46 37 115
57 155 23 45 65 101 112 149 40 43 98 93 128 111 30 17 64 38 76 44 12 7 54
13 93 13z m-172 -21 c5 1 -20 -21 -55 -48 -36 -26 -88 -74 -117 -106 -29 -32
-67 -85 -85 -119 -17 -34 -38 -81 -47 -106 -9 -25 -23 -83 -31 -130 -7 -47
-14 -157 -14 -248 l0 -162 -35 -6 c-19 -3 -87 -20 -150 -36 -97 -25 -127 -29
-190 -24 -41 3 -103 15 -138 27 -34 11 -76 32 -93 47 -29 24 -31 29 -27 81 4
47 13 69 60 141 31 47 63 92 72 99 9 7 16 18 16 24 0 5 26 40 57 76 32 36 102
110 156 164 93 92 107 102 231 161 72 35 166 80 209 100 43 21 86 39 95 41 9
2 31 8 47 14 17 5 34 10 39 10z m491 -11 c31 -5 115 -24 188 -43 73 -20 139
-39 147 -44 8 -4 58 -21 110 -36 52 -15 118 -39 145 -53 28 -13 87 -51 133
-84 45 -33 80 -63 77 -67 -2 -5 -19 -14 -37 -21 -18 -6 -42 -15 -53 -20 -11
-4 -100 -47 -197 -96 -97 -49 -192 -97 -210 -106 -18 -9 -40 -17 -48 -18 -8 0
-38 -9 -67 -20 l-52 -19 -30 38 c-17 21 -31 42 -31 46 0 4 -17 33 -38 64 -21
31 -44 67 -51 80 -7 13 -22 55 -33 95 -14 49 -20 104 -21 182 0 60 2 115 6
121 4 7 25 7 62 1z m1897 -165 c16 -15 56 -69 88 -120 33 -50 60 -96 60 -102
0 -6 -6 -11 -12 -11 -7 0 -72 19 -144 42 -82 26 -136 49 -143 60 -9 15 -1 28
56 88 l66 71 29 -28z m-612 -108 c74 -2 168 -9 208 -16 41 -8 72 -18 72 -25 0
-6 -8 -18 -17 -25 -9 -8 -51 -57 -92 -109 -42 -52 -101 -132 -131 -178 -39
-59 -59 -81 -70 -76 -8 3 -39 10 -68 14 -29 5 -57 12 -62 15 -6 3 -10 12 -10
18 0 7 -12 37 -26 67 -14 30 -40 78 -59 105 -18 28 -58 72 -89 99 -31 27 -53
52 -49 56 4 4 35 14 68 24 33 9 89 21 125 26 36 5 126 7 200 5z m410 -55 c3 0
13 -6 22 -12 9 -7 23 -35 32 -63 8 -27 20 -95 26 -150 5 -55 15 -144 21 -198
6 -54 9 -100 7 -103 -3 -2 -18 2 -34 11 -16 8 -33 15 -37 15 -4 0 -54 17 -110
39 -56 21 -118 43 -138 50 -19 6 -49 11 -66 11 -16 0 -32 3 -36 6 -3 3 10 29
30 58 19 28 46 62 59 77 13 14 24 29 24 33 0 5 21 34 47 65 26 31 70 80 97
109 27 28 52 52 56 52z m-865 -21 c13 1 49 -27 92 -71 44 -44 88 -102 113
-147 22 -41 40 -79 40 -86 0 -11 -10 -11 -52 0 -29 7 -112 20 -185 30 -99 13
-168 16 -285 11 -84 -3 -169 -10 -188 -16 -19 -6 -66 -17 -105 -25 -38 -8 -76
-15 -82 -15 -7 0 -13 4 -13 10 0 5 18 14 40 20 22 6 77 27 122 46 46 19 85 38
88 42 3 4 86 47 185 96 99 49 187 92 195 97 8 4 24 8 35 8z m956 -9 c4 0 45
-14 91 -31 46 -16 105 -36 133 -42 38 -10 53 -19 63 -40 7 -15 19 -69 27 -120
8 -50 21 -144 29 -207 8 -63 17 -136 19 -162 l4 -46 -91 48 c-51 26 -117 56
-149 66 -34 10 -59 25 -62 35 -3 9 -12 66 -20 126 -8 59 -15 128 -15 153 0 25
-8 84 -18 133 -10 48 -15 87 -11 87z m333 -110 c3 0 22 -7 43 -16 21 -9 56
-26 78 -37 22 -11 42 -23 45 -26 3 -3 30 -23 61 -44 31 -21 73 -56 94 -78 l37
-40 -22 -52 c-12 -29 -47 -100 -76 -158 -30 -58 -60 -114 -67 -123 -11 -15
-18 -16 -61 -4 -26 7 -51 19 -56 28 -4 8 -10 49 -13 90 -4 41 -18 155 -32 252
-14 98 -28 184 -31 193 -3 8 -4 15 0 15z m-1484 -181 c19 0 64 -4 100 -9 36
-5 86 -11 112 -14 26 -4 78 -11 115 -16 38 -6 83 -14 102 -18 32 -7 36 -12 47
-62 7 -30 13 -65 14 -77 0 -20 -5 -23 -35 -23 -28 0 -47 11 -107 66 -40 36
-86 72 -102 81 -16 8 -52 22 -80 30 -28 9 -85 21 -126 28 -47 8 -62 13 -40 14z
m-517 -20 c5 1 5 -3 2 -9 -3 -5 -16 -10 -28 -9 -21 0 -21 1 -2 9 11 5 24 9 28
9z m369 -11 c68 -4 163 -14 213 -23 49 -9 112 -28 140 -42 27 -14 71 -41 98
-61 26 -20 47 -40 47 -45 0 -5 -15 -7 -32 -3 -18 4 -100 13 -183 21 -82 8
-176 15 -208 15 -32 0 -93 7 -135 15 -42 9 -105 29 -139 46 -35 17 -63 33 -63
37 0 4 31 16 70 27 61 18 86 19 192 13z m-438 -9 c11 1 17 -2 13 -5 -3 -3 -12
-4 -19 -1 -8 3 -5 6 6 6z m-104 -31 l25 0 -25 -8 c-14 -4 -34 -8 -45 -8 l-20
-1 20 9 c11 5 31 8 45 8z m203 1 c4 1 34 -17 67 -40 34 -23 93 -52 133 -66 51
-17 110 -27 202 -34 72 -5 193 -16 270 -24 77 -9 157 -15 177 -15 27 0 47 -8
69 -28 l31 -28 -20 -34 c-10 -19 -41 -69 -69 -110 -27 -41 -59 -91 -70 -110
-12 -19 -53 -89 -90 -155 -38 -66 -78 -137 -88 -157 -11 -21 -20 -36 -22 -34
-2 1 5 37 14 79 9 42 14 80 10 83 -4 4 -13 1 -22 -6 -8 -7 -29 -57 -46 -111
-17 -55 -31 -99 -32 -99 -1 0 -51 9 -112 20 -60 12 -135 25 -165 30 -30 6 -77
13 -105 16 -27 4 -54 10 -60 14 -5 4 -23 10 -40 12 -16 3 -64 13 -105 22 -41
9 -122 35 -180 58 -58 23 -127 55 -155 70 -27 16 -75 40 -105 54 -30 14 -62
30 -71 34 -9 5 -53 28 -97 51 -48 25 -106 67 -145 104 -39 38 -76 84 -92 116
-14 29 -25 56 -25 60 0 4 21 11 48 14 26 3 74 12 108 19 33 7 74 11 91 9 23
-4 48 4 90 26 41 22 121 47 273 83 118 28 240 57 270 64 30 7 58 13 63 13z
m1035 -14 c26 -4 49 -9 51 -11 2 -2 -11 -26 -29 -54 -18 -28 -34 -49 -35 -48
-2 2 -10 29 -18 62 l-16 58 47 -7z m200 -31 c20 -3 62 -13 92 -21 30 -8 89
-26 130 -40 41 -14 80 -29 85 -33 6 -4 38 -18 73 -30 34 -13 62 -27 62 -32 0
-5 -4 -7 -9 -4 -5 3 -67 14 -137 25 -71 10 -167 19 -214 20 -47 1 -109 4 -137
7 -29 4 -53 9 -53 13 0 3 16 28 36 54 33 46 36 47 72 41z m1134 -34 c5 0 21
-28 37 -62 16 -35 39 -93 51 -130 17 -55 20 -80 15 -132 l-7 -65 -27 12 c-14
6 -33 16 -41 23 -8 7 -34 17 -57 23 -23 7 -45 15 -47 20 -3 5 -20 11 -37 15
-17 3 -29 10 -27 14 1 5 32 70 68 145 35 76 68 137 72 137z m-1408 -110 c9 0
16 -4 16 -10 0 -5 -4 -10 -9 -10 -6 0 -13 5 -16 10 -3 6 1 10 9 10z m307 -12
c96 -3 217 -13 269 -22 52 -9 108 -19 124 -24 26 -7 34 -21 76 -129 26 -66 69
-160 95 -209 27 -49 56 -100 67 -113 10 -13 18 -29 18 -35 0 -6 -20 -42 -44
-79 -24 -37 -52 -77 -62 -88 -9 -10 -22 -28 -28 -38 -6 -11 -29 -46 -51 -77
-22 -32 -43 -62 -46 -66 -3 -5 -32 1 -65 13 -32 11 -88 29 -124 40 -36 10
-114 29 -175 42 l-110 22 -7 55 c-4 30 -12 112 -18 182 -7 83 -19 154 -36 205
-14 43 -41 109 -60 147 -19 38 -34 83 -34 101 0 18 8 43 19 56 l18 24 174 -7z
m459 -9 c8 0 35 -9 60 -20 31 -13 36 -18 16 -14 -16 3 -43 12 -60 20 -17 7
-24 13 -16 14z m25 -63 c9 -3 60 -18 113 -32 53 -15 107 -29 120 -31 16 -4 22
-12 22 -31 0 -14 -7 -83 -16 -152 -8 -69 -20 -135 -26 -147 -6 -13 -14 -23
-17 -23 -3 0 -27 33 -52 73 -25 40 -71 132 -102 205 -32 73 -57 135 -57 138 0
3 7 3 15 0z m-744 -46 c4 0 9 -13 11 -30 2 -16 1 -84 -4 -152 -5 -68 -23 -194
-41 -281 -18 -87 -35 -156 -37 -154 -3 3 -44 7 -92 11 -49 3 -110 8 -138 12
-27 4 -50 8 -50 11 0 2 19 39 42 81 23 42 73 129 111 192 38 63 80 129 93 147
13 18 28 40 32 50 4 10 21 39 37 66 16 26 33 47 36 47z m1039 -50 c6 0 24 -7
40 -15 17 -9 30 -17 30 -19 0 -2 -12 -25 -27 -52 -15 -27 -35 -60 -46 -74
l-20 -25 7 49 c3 27 6 68 6 92 0 24 5 44 10 44z m-978 -33 c4 -6 19 -41 33
-77 13 -36 29 -85 34 -110 5 -25 14 -106 20 -180 6 -74 14 -148 17 -163 l6
-28 -54 6 c-29 3 -73 8 -97 11 l-43 6 6 61 c3 34 15 98 26 142 10 44 25 140
32 212 6 73 16 127 20 120z m1181 -22 c12 -4 54 -21 92 -38 39 -17 80 -37 91
-44 20 -13 21 -16 8 -69 -7 -31 -15 -59 -19 -62 -3 -3 -13 5 -22 19 -10 13
-52 61 -95 106 -43 45 -78 84 -78 88 0 3 10 3 23 0z m-60 -32 c6 -4 37 -34 68
-67 31 -34 75 -83 98 -109 23 -28 41 -58 41 -72 0 -14 -14 -59 -31 -102 -16
-43 -46 -116 -65 -163 -19 -47 -39 -93 -45 -102 -5 -10 -9 -23 -9 -30 0 -6
-10 -31 -21 -55 -12 -24 -23 -43 -24 -41 -2 2 -19 44 -40 93 -20 50 -65 145
-101 213 l-64 123 27 52 c14 29 38 70 53 92 15 22 40 65 55 95 16 30 33 61 38
67 5 7 14 10 20 6z m311 -90 c6 -4 43 -30 81 -59 39 -29 97 -81 131 -116 34
-35 82 -97 107 -138 25 -41 54 -98 65 -125 11 -28 29 -94 41 -148 12 -53 21
-132 21 -175 0 -43 -7 -123 -15 -178 -8 -54 -16 -115 -19 -134 -2 -19 -9 -55
-16 -80 -6 -25 -23 -76 -37 -115 -14 -38 -42 -119 -63 -179 -22 -59 -40 -110
-42 -112 -2 -2 -24 51 -47 117 -24 66 -59 145 -78 177 l-34 56 10 91 c6 49 16
149 23 222 10 115 10 147 -5 247 -10 63 -26 150 -37 193 -11 42 -47 132 -80
199 l-60 122 22 71 c13 42 26 68 32 64z m-65 -207 c5 -4 19 -27 31 -54 12 -26
35 -74 51 -108 16 -33 39 -108 51 -165 17 -82 22 -138 22 -264 0 -88 -5 -191
-12 -230 -7 -38 -15 -83 -18 -99 l-6 -28 -27 39 c-14 22 -69 86 -121 142 -56
60 -106 125 -122 157 -15 31 -33 62 -39 70 -7 9 -9 30 -6 57 4 23 19 74 35
112 16 39 54 131 85 205 30 74 57 143 61 153 3 10 10 16 15 13z m-482 -90 c2
-2 -5 -64 -16 -137 -11 -74 -23 -145 -25 -158 -3 -13 -8 -26 -10 -29 -3 -2
-32 6 -64 19 -33 13 -61 27 -63 32 -2 4 36 68 85 142 49 74 91 133 93 131z
m42 -21 c4 -2 30 -50 58 -107 29 -57 68 -141 87 -188 20 -46 36 -94 36 -106 0
-11 -3 -23 -6 -27 -3 -3 -56 19 -116 50 l-110 56 7 41 c4 22 11 68 16 101 6
33 13 88 16 122 3 34 9 61 12 58z m-1209 -96 c83 -9 154 -19 156 -22 3 -3 9
-45 14 -94 5 -48 16 -117 25 -152 9 -36 24 -78 35 -95 10 -17 36 -47 57 -67
21 -20 77 -64 126 -98 48 -34 87 -68 87 -75 0 -7 -42 -53 -92 -102 -51 -49
-120 -110 -153 -135 -33 -25 -88 -57 -121 -72 -34 -15 -65 -27 -69 -27 -4 0
-21 -6 -38 -14 -18 -8 -66 -21 -107 -30 -41 -9 -102 -17 -134 -17 -54 -2 -62
1 -86 28 -15 16 -39 68 -55 116 -25 79 -27 95 -22 189 3 57 11 131 17 164 10
51 15 61 29 57 15 -4 21 11 40 89 13 51 30 113 38 138 8 25 31 83 50 130 20
47 40 90 44 96 6 7 54 5 159 -7z m239 -24 c20 -2 62 -7 93 -10 l57 -6 6 -57
c3 -31 13 -103 21 -160 8 -57 19 -113 25 -124 6 -11 8 -22 6 -25 -3 -2 3 -30
14 -60 10 -31 19 -58 19 -59 0 -2 -35 21 -77 52 -43 30 -97 78 -120 106 -26
32 -46 70 -54 100 -6 27 -17 91 -23 144 -7 52 -10 96 -8 99 3 3 21 3 41 0z
m229 -30 c20 -4 66 -13 102 -21 36 -9 112 -29 170 -46 58 -17 111 -32 118 -34
8 -2 -1 -22 -28 -56 -23 -29 -53 -68 -68 -87 -15 -18 -39 -48 -54 -65 -15 -17
-28 -35 -28 -41 0 -5 -31 -43 -69 -82 -38 -40 -74 -73 -80 -73 -6 0 -15 19
-21 43 -6 23 -15 53 -20 67 -5 14 -16 61 -24 105 -8 44 -20 112 -25 152 -6 39
-11 88 -11 108 l0 36 38 -6z m520 -150 c15 -8 48 -23 75 -34 44 -19 47 -23 47
-58 0 -20 -7 -96 -15 -168 -8 -71 -20 -155 -26 -185 -6 -30 -18 -85 -27 -122
-9 -38 -19 -68 -22 -68 -3 0 -26 13 -51 28 -24 16 -75 44 -114 62 -38 19 -105
54 -147 78 -43 24 -78 50 -78 57 0 7 7 19 16 26 9 7 42 45 73 84 32 38 76 97
98 130 22 33 64 88 92 122 50 60 52 61 79 48z m190 -79 c15 -6 64 -31 109 -54
l83 -42 -22 -58 c-11 -31 -34 -88 -50 -127 -17 -38 -43 -113 -59 -165 -16 -52
-37 -119 -47 -148 l-17 -52 -53 34 c-30 19 -55 36 -57 38 -3 2 2 28 11 58 8
30 21 87 28 125 8 39 19 122 26 185 6 63 13 138 16 167 l5 52 27 -13z m230
-136 c4 0 26 -18 50 -40 30 -28 57 -69 86 -133 24 -51 47 -103 51 -117 4 -14
17 -38 28 -54 11 -15 38 -65 59 -110 32 -65 39 -89 35 -121 -3 -22 -10 -56
-15 -75 -6 -19 -23 -68 -38 -107 -16 -44 -32 -73 -41 -73 -8 0 -42 27 -76 60
-34 33 -105 85 -157 116 -52 31 -97 60 -100 64 -3 3 -20 15 -37 25 -21 13 -33
27 -33 41 0 12 7 46 16 75 9 30 27 86 41 124 13 39 27 79 32 90 5 11 13 31 19
45 5 14 19 45 30 70 10 25 25 62 31 83 7 20 16 37 19 37z m213 -196 c17 -16
50 -54 74 -84 23 -30 47 -65 54 -78 9 -17 9 -32 1 -63 -6 -23 -15 -38 -20 -33
-4 5 -38 68 -74 140 -36 72 -66 135 -66 139 0 5 14 -4 31 -21z m-1028 -44 c7
-1 35 -14 62 -31 28 -16 92 -50 143 -74 51 -24 119 -61 152 -81 59 -36 60 -38
55 -73 -3 -20 -11 -54 -17 -76 -6 -22 -26 -85 -44 -140 -18 -55 -40 -118 -49
-139 l-17 -40 -18 24 c-10 13 -31 51 -48 84 -17 34 -45 91 -61 129 -17 37 -31
72 -31 78 0 5 -21 50 -47 100 -27 50 -61 116 -76 146 -16 32 -25 63 -22 74 4
10 12 19 18 19z m1222 -218 c12 -22 42 -90 65 -151 23 -61 46 -127 52 -147 7
-25 6 -39 -3 -50 -6 -8 -28 -14 -48 -14 l-37 0 -37 138 c-35 129 -36 140 -26
200 l11 64 23 -40z m-758 -32 c3 0 22 -10 42 -22 20 -12 43 -28 52 -35 13 -11
15 -21 7 -51 -5 -20 -17 -93 -27 -162 l-17 -125 -50 -12 c-27 -7 -71 -16 -98
-19 -48 -7 -49 -6 -43 17 3 13 17 56 32 94 14 39 32 88 40 110 7 22 19 60 25
85 6 25 16 62 21 83 5 20 12 37 16 37z m160 -100 c3 0 18 -11 35 -25 16 -14
35 -25 43 -25 7 0 18 -7 25 -15 6 -8 47 -34 89 -59 43 -25 93 -62 111 -83 l33
-38 -193 -22 c-106 -13 -195 -21 -197 -19 -2 2 5 63 17 135 11 73 22 137 25
142 4 5 9 9 12 9z m558 -135 c13 -49 23 -90 22 -91 -1 -1 -26 -5 -56 -9 l-54
-7 7 35 c4 20 15 55 25 79 10 24 22 52 25 63 6 15 14 -4 31 -70z m-41 -165
l74 0 4 -41 c2 -23 -3 -54 -10 -70 -8 -16 -18 -29 -22 -29 -5 0 -33 28 -64 62
-31 34 -56 65 -56 70 0 4 33 8 74 8z m126 0 c6 0 10 -4 10 -10 0 -5 -4 -10
-10 -10 -5 0 -10 5 -10 10 0 6 5 10 10 10z m86 0 c16 0 24 -10 32 -37 6 -21
25 -105 41 -188 17 -82 42 -201 56 -264 14 -63 28 -118 30 -121 2 -3 11 -49
19 -101 8 -52 18 -135 21 -185 4 -52 3 -94 -2 -97 -5 -3 -58 -9 -119 -13
l-110 -7 -23 82 c-17 63 -20 90 -13 114 6 18 15 59 21 92 5 33 15 101 21 151
6 50 8 104 4 120 -4 16 -21 58 -37 94 -29 60 -31 72 -29 163 2 92 5 101 35
147 21 33 39 50 53 50z m95 -4 c19 -3 79 -10 134 -16 55 -6 129 -16 165 -22
36 -5 118 -23 182 -39 65 -15 152 -42 193 -58 41 -17 97 -43 123 -57 26 -15
59 -33 74 -41 15 -8 58 -45 97 -83 50 -50 73 -81 81 -109 6 -22 7 -65 4 -98
-4 -32 -17 -81 -31 -109 -13 -29 -43 -70 -67 -92 -25 -23 -71 -54 -103 -70
-32 -16 -107 -46 -168 -66 -60 -20 -137 -45 -170 -56 -33 -10 -98 -26 -145
-34 -47 -8 -107 -17 -135 -21 -27 -3 -57 -8 -66 -11 -13 -3 -17 16 -27 123 -6
71 -14 142 -17 158 -3 17 -10 50 -15 75 -6 25 -23 99 -39 165 -16 66 -34 145
-40 175 -6 30 -20 98 -31 150 -11 52 -22 105 -26 118 -6 22 -4 23 27 18z
m-473 -7 c23 0 42 -2 42 -6 0 -5 -14 -46 -31 -93 -16 -47 -41 -125 -55 -175
-15 -49 -28 -98 -31 -107 -3 -10 -9 -18 -14 -18 -5 0 -55 22 -111 50 -57 27
-116 58 -133 68 -16 10 -41 21 -55 25 -14 3 -33 12 -43 19 -16 12 -17 20 -6
88 7 41 15 82 20 90 5 11 54 20 191 36 101 12 202 22 226 23z m-469 -74 c1
-11 -3 -44 -10 -72 -7 -29 -16 -53 -20 -53 -4 0 -36 26 -70 59 l-63 59 54 10
c30 6 66 12 80 14 18 2 26 -2 29 -17z m564 -2 c12 -9 39 -36 60 -59 l37 -41
-75 -99 c-41 -55 -87 -115 -104 -134 -24 -28 -31 -32 -44 -22 -11 9 -13 20 -6
40 4 15 27 88 50 162 23 74 46 143 51 153 8 16 10 16 31 0z m-816 -18 c1 0 -5
-28 -13 -60 -8 -33 -19 -69 -25 -80 -5 -11 -12 -31 -15 -45 -3 -14 -17 -81
-32 -150 -23 -115 -26 -146 -26 -373 l-1 -248 -240 5 c-132 2 -282 10 -333 16
-61 9 -89 16 -80 22 8 5 3 6 -14 2 -19 -4 -33 -1 -44 11 -13 13 -19 14 -25 4
-6 -10 -10 -10 -23 0 -8 7 -20 10 -26 6 -5 -3 -10 -1 -10 5 0 7 -8 9 -20 5
-11 -4 -20 -2 -20 4 0 6 -15 11 -34 11 -19 0 -38 5 -41 10 -3 6 -15 10 -26 10
-10 0 -19 5 -19 10 0 6 -8 10 -19 10 -10 0 -24 7 -31 15 -7 8 -18 15 -25 15
-7 0 -39 14 -71 31 -32 17 -79 47 -103 67 -24 19 -52 54 -62 76 -10 23 -19 64
-19 91 0 28 5 68 11 90 6 22 22 55 36 74 14 18 52 50 84 71 32 21 105 54 161
74 57 20 131 42 166 50 40 9 62 11 62 4 0 -6 12 -8 28 -5 15 3 171 36 347 72
176 36 361 74 410 84 50 9 91 17 92 16z m46 5 c1 0 41 -38 90 -83 l87 -83 -11
-84 c-7 -52 -9 -148 -6 -249 4 -91 9 -197 12 -236 3 -38 7 -93 9 -122 4 -41 0
-58 -15 -78 -20 -24 -23 -25 -149 -25 l-128 0 -7 108 c-4 59 -5 171 -1 250 4
85 16 187 30 255 13 61 35 153 49 202 14 50 28 102 31 118 4 15 7 27 9 27z
m905 -137 c6 -9 12 -25 12 -35 0 -9 -9 -97 -20 -195 -11 -98 -21 -184 -23
-192 -1 -8 -15 5 -31 30 -16 24 -56 70 -89 101 l-60 57 54 63 c30 35 74 92 99
126 40 55 46 60 58 45z m-678 -53 c5 0 81 -36 170 -80 90 -43 168 -81 174 -83
7 -3 5 -21 -8 -58 -11 -30 -28 -67 -39 -84 -12 -16 -50 -62 -86 -100 -36 -39
-91 -102 -122 -140 -31 -39 -62 -81 -69 -95 l-13 -25 -8 25 c-4 14 -13 98 -20
187 -7 96 -9 211 -5 285 3 68 9 133 12 146 4 12 10 22 14 22z m727 -80 c2 0
11 -16 19 -36 10 -24 14 -65 13 -127 -1 -51 -8 -125 -15 -166 -8 -41 -16 -77
-18 -79 -3 -2 -12 7 -20 20 -14 21 -15 40 -6 139 5 63 12 144 16 182 4 37 9
67 11 67z m-337 -110 c6 0 10 -2 10 -4 0 -3 -4 -8 -10 -11 -5 -3 -10 -1 -10 4
0 6 5 11 10 11z m57 -30 c8 0 34 -19 58 -41 25 -23 66 -71 91 -106 42 -59 45
-67 41 -111 -3 -26 -11 -74 -18 -107 -6 -33 -16 -64 -20 -69 -5 -6 -9 -20 -9
-32 0 -13 -7 -29 -15 -37 -11 -11 -37 -16 -92 -16 -43 0 -88 -2 -101 -5 -13
-3 -29 -3 -37 0 -7 3 -16 26 -19 52 -3 26 -8 81 -11 122 -3 46 1 99 9 135 8
33 19 77 24 99 6 21 27 56 48 77 21 22 44 39 51 39z m-161 -163 c2 -2 -1 -28
-6 -58 -6 -30 -8 -88 -5 -129 3 -41 8 -98 11 -127 l5 -51 -53 -6 c-29 -3 -93
-4 -142 -3 -55 1 -91 6 -93 13 -2 6 19 45 47 86 28 41 91 121 141 177 50 56
93 101 95 98z m410 -154 c11 -27 11 -38 0 -71 -8 -22 -26 -58 -40 -81 -15 -22
-28 -41 -30 -41 -3 0 0 15 6 33 5 17 14 50 19 72 6 22 15 58 21 80 l11 40 13
-32z m36 -111 c3 -4 9 -23 13 -43 6 -35 5 -37 -24 -41 -17 -2 -31 -2 -31 1 0
3 8 25 17 48 10 23 21 39 25 35z m286 -104 c8 2 12 -15 13 -50 0 -29 0 -82 -1
-118 -1 -35 -8 -112 -15 -170 -7 -58 -19 -141 -25 -185 -6 -43 -23 -122 -36
-175 -14 -52 -34 -119 -45 -149 -11 -29 -35 -77 -53 -105 -18 -28 -50 -77 -70
-109 -20 -31 -36 -61 -36 -65 0 -5 -6 -16 -13 -26 -12 -17 -15 -17 -50 4 -20
12 -37 24 -37 27 0 4 -7 42 -16 86 -16 76 -15 80 3 106 10 14 26 42 35 61 9
19 26 62 38 95 12 33 40 128 62 210 l40 150 -5 196 -6 196 102 10 c56 5 108
11 115 11z m-314 -28 c53 0 54 0 60 -34 4 -18 7 -103 7 -187 0 -126 -4 -168
-22 -234 -11 -44 -25 -100 -31 -125 -5 -25 -12 -52 -15 -60 -3 -8 -20 -56 -37
-105 -18 -50 -39 -101 -48 -114 -15 -22 -16 -21 -28 31 -7 29 -30 117 -51 195
-22 79 -46 163 -55 188 -15 44 -14 47 17 133 17 48 37 101 44 117 7 17 16 45
20 63 4 18 24 55 46 82 39 49 41 50 93 50z m-447 -12 c41 2 42 1 49 -35 3 -21
17 -76 31 -121 l25 -84 -24 -16 c-12 -9 -39 -31 -58 -48 -19 -17 -77 -63 -128
-102 -52 -40 -98 -72 -103 -72 -5 0 -10 15 -10 33 -1 17 -1 35 0 39 0 3 -6 80
-14 170 -8 90 -15 177 -15 195 l0 32 103 4 c56 1 121 4 144 5z m192 2 l110 0
-11 -32 c-6 -18 -42 -64 -79 -103 -46 -47 -71 -67 -78 -60 -6 6 -17 37 -25 70
-8 33 -18 75 -21 93 l-7 32 111 0z m-488 -17 c4 -4 11 -48 14 -98 3 -49 10
-157 15 -240 l9 -150 -27 -22 c-15 -13 -33 -23 -39 -23 -7 0 -19 10 -26 23 -8
12 -38 65 -67 117 -30 52 -53 102 -53 112 1 9 30 65 64 125 34 59 71 121 82
136 11 16 23 25 28 20z m-176 -3 l114 0 -35 -57 c-19 -32 -49 -86 -66 -120
-18 -35 -35 -63 -39 -63 -3 0 -18 26 -32 58 -14 31 -32 81 -41 111 -9 30 -16
58 -16 63 0 4 52 8 115 8z m722 -140 c1 0 -7 -26 -18 -57 -11 -32 -26 -71 -32
-87 l-11 -30 -18 40 -17 39 47 48 c25 26 47 47 49 47z m-133 -133 c6 -2 19
-19 29 -38 12 -23 16 -45 11 -69 -3 -19 -12 -46 -19 -60 -7 -14 -21 -43 -31
-65 -9 -22 -35 -67 -57 -100 -22 -33 -67 -97 -101 -142 -34 -45 -68 -82 -77
-83 -9 0 -27 8 -40 18 -20 17 -23 32 -33 159 l-11 141 45 28 c25 15 77 53 115
83 39 31 90 73 114 94 25 20 49 36 55 34z m-614 -57 c4 0 35 -50 70 -111 34
-61 58 -115 53 -119 -4 -4 -43 -28 -86 -53 l-78 -45 -50 24 -49 24 14 33 c7
17 37 80 66 140 29 59 56 107 60 107z m693 -122 c5 -13 26 -86 47 -163 21 -77
45 -172 54 -212 15 -65 16 -75 2 -100 -9 -15 -22 -36 -29 -45 -8 -10 -18 -18
-24 -18 -5 0 -74 29 -154 65 -79 36 -150 65 -156 65 -7 0 -13 3 -13 7 0 3 11
21 25 39 14 18 31 38 38 46 7 7 38 49 69 93 30 45 73 118 94 163 34 73 39 80
47 60z m-1583 -11 c47 -3 128 -15 180 -28 l95 -24 -72 -5 c-39 -3 -75 -8 -78
-12 -4 -4 -5 -14 -2 -23 4 -8 14 -15 24 -15 9 0 65 -13 123 -29 58 -16 173
-48 257 -71 l152 -42 -12 -25 c-6 -13 -29 -34 -51 -45 -22 -11 -65 -29 -95
-39 -31 -11 -96 -29 -146 -41 -49 -11 -153 -44 -231 -74 -77 -29 -164 -64
-192 -77 -28 -14 -69 -39 -91 -56 -30 -24 -41 -28 -49 -18 -5 6 -19 32 -30 57
-10 25 -27 68 -35 95 -9 28 -19 78 -23 112 -4 42 -1 84 10 137 11 47 29 94 49
123 20 30 51 58 82 76 46 26 56 28 135 24z m294 -58 c11 1 17 -2 13 -5 -3 -3
-12 -4 -19 -1 -8 3 -5 6 6 6z m837 -19 c3 0 9 -32 13 -71 3 -40 5 -73 3 -75
-1 -2 -18 22 -36 53 l-34 56 24 18 c13 10 27 19 30 19z m-63 -87 c13 -21 37
-64 53 -97 17 -32 29 -60 27 -62 -2 -2 -31 7 -64 19 -32 12 -88 37 -123 55
l-64 34 49 27 c28 15 61 35 74 44 24 17 25 16 48 -20z m-292 -123 c7 0 50 -13
96 -29 46 -16 131 -52 191 -81 90 -44 107 -57 107 -76 0 -12 -5 -26 -10 -29
-6 -3 -52 -57 -103 -118 -50 -62 -108 -132 -128 -157 -20 -25 -73 -94 -117
-153 -45 -60 -95 -136 -111 -170 -22 -45 -43 -72 -78 -98 -26 -19 -72 -50
-101 -69 -46 -28 -56 -31 -78 -22 -13 7 -24 17 -24 24 0 7 7 47 16 88 9 41 22
98 30 125 8 28 27 102 43 165 16 63 34 135 41 160 6 25 15 54 19 65 5 11 30
87 57 169 48 148 49 150 93 178 25 15 50 28 57 28z m-147 -82 c2 -6 -4 -26
-12 -46 -9 -21 -34 -98 -57 -172 -23 -74 -46 -151 -52 -170 -6 -19 -18 -64
-25 -100 -8 -36 -14 -74 -14 -84 0 -11 -6 -34 -13 -50 -8 -17 -22 -76 -32
-131 -9 -55 -23 -106 -29 -113 -9 -10 -40 13 -151 111 -76 68 -170 157 -208
198 -38 41 -93 108 -124 149 -30 41 -59 80 -64 87 -6 7 0 20 19 38 15 15 64
44 108 65 44 21 130 56 190 78 61 22 128 44 150 50 22 6 83 22 136 37 52 15
113 35 135 44 21 10 41 14 43 9z m612 -114 c5 -3 25 -36 43 -72 19 -37 55
-102 80 -146 46 -76 47 -79 29 -100 -9 -11 -40 -45 -68 -74 -27 -30 -62 -62
-76 -72 l-25 -19 9 67 c4 37 5 119 2 182 -3 63 -10 136 -14 162 -4 25 -4 54 1
62 5 9 14 14 19 10z m486 -46 c6 -18 12 -38 12 -45 1 -8 -9 -7 -31 5 -18 9
-35 18 -37 20 -3 1 6 14 20 28 l24 25 12 -33z m-339 -23 c42 -18 98 -36 125
-40 26 -3 47 -11 47 -18 0 -7 -28 -43 -62 -80 l-61 -68 -63 113 c-35 62 -64
116 -64 120 0 4 35 -8 78 -27z m-205 -27 c4 -24 9 -106 9 -183 1 -77 -1 -160
-3 -186 -3 -25 -8 -50 -12 -56 -4 -6 -28 -18 -54 -27 -26 -9 -56 -16 -67 -16
-12 0 -80 -15 -151 -33 -72 -19 -138 -37 -147 -42 -11 -4 -18 -3 -18 4 0 6 12
30 27 54 15 23 61 87 102 142 41 55 77 102 80 105 4 3 20 23 36 45 17 22 60
75 97 117 37 43 73 87 80 98 12 19 14 17 21 -22z m428 -48 c5 0 41 -16 79 -35
49 -25 71 -42 75 -58 2 -12 6 -37 9 -54 3 -26 -6 -49 -43 -110 -25 -43 -55
-89 -66 -102 -11 -13 -33 -39 -49 -57 -15 -19 -31 -34 -35 -34 -3 0 -20 30
-38 68 -17 37 -45 101 -61 142 l-29 75 75 83 c41 45 79 82 83 82z m247 -130
c5 0 57 -28 118 -63 60 -34 137 -80 172 -102 35 -22 105 -67 155 -100 51 -33
124 -82 162 -110 39 -27 88 -65 111 -84 23 -20 89 -76 148 -126 59 -49 138
-126 175 -170 38 -45 78 -100 91 -124 12 -24 22 -59 22 -78 0 -20 -11 -50 -26
-73 -14 -21 -40 -49 -58 -63 -18 -14 -60 -39 -92 -56 -32 -17 -67 -31 -78 -31
-11 0 -27 -4 -37 -10 -10 -5 -74 -16 -144 -25 -69 -8 -176 -15 -239 -14 -62 0
-158 6 -212 12 l-100 12 -23 90 c-12 50 -28 108 -35 130 -7 22 -23 65 -36 95
-13 30 -35 79 -49 109 -14 29 -42 81 -62 115 l-38 61 14 95 c8 52 16 176 20
275 4 126 9 188 19 208 8 15 18 27 22 27z m-2099 -20 c4 0 33 -32 66 -71 33
-40 107 -118 165 -174 58 -57 130 -124 160 -149 30 -26 83 -69 118 -97 34 -28
62 -53 62 -56 0 -3 -78 -2 -172 2 -95 4 -176 9 -179 10 -3 2 -41 5 -85 6 -44
1 -107 10 -141 21 -46 14 -69 27 -87 51 -14 18 -30 53 -37 78 -10 36 -10 59
-1 104 7 32 26 90 44 129 18 39 43 88 56 109 14 20 28 37 31 37z m1671 -57 c4
-5 12 -24 19 -43 7 -19 17 -44 21 -55 4 -11 24 -55 44 -99 20 -43 36 -84 36
-90 0 -7 -13 -25 -30 -41 -16 -16 -30 -32 -30 -36 0 -5 -21 -36 -48 -71 -26
-35 -74 -105 -107 -156 -33 -51 -81 -126 -107 -167 -27 -41 -48 -81 -48 -89 0
-8 -5 -18 -11 -21 -5 -4 -24 -1 -40 5 -20 9 -28 18 -25 29 3 9 14 50 25 91 11
41 25 104 31 140 6 36 13 96 16 133 2 38 11 96 19 130 8 34 15 79 15 100 0 34
7 44 67 100 36 34 84 81 106 105 23 23 44 39 47 35z m348 -172 c2 -72 -3 -150
-13 -205 -8 -49 -16 -91 -18 -92 -2 -2 -35 38 -75 90 -68 90 -70 94 -54 112
10 11 38 46 62 79 24 33 47 62 52 63 4 2 8 8 8 13 0 6 8 21 18 33 17 23 17 21
20 -93z m-614 -52 c5 1 6 -31 3 -71 -4 -40 -14 -122 -23 -183 -9 -60 -24 -152
-35 -202 -10 -51 -24 -106 -31 -122 l-13 -30 -105 54 c-58 29 -123 64 -146 77
-22 12 -52 30 -65 39 -13 9 -47 30 -76 48 l-52 33 25 66 c14 37 33 88 41 114
14 42 21 50 72 74 31 14 117 39 191 56 74 16 151 33 170 37 19 5 39 9 44 10z
m431 -114 c11 -16 41 -52 66 -81 25 -29 54 -68 64 -88 16 -29 17 -40 7 -73 -6
-21 -23 -85 -36 -143 -14 -58 -29 -127 -35 -155 -5 -27 -15 -76 -22 -107 -10
-44 -17 -58 -31 -58 -10 0 -46 10 -80 21 -35 12 -94 35 -133 51 -38 16 -79 33
-90 38 -11 4 -38 16 -60 25 -22 10 -41 19 -43 20 -2 2 4 18 13 37 10 18 40 71
68 118 28 47 94 145 146 217 53 73 107 149 121 169 l25 36 20 -27z m-949 -55
c2 0 -3 -17 -12 -37 -8 -21 -17 -45 -19 -53 -2 -8 -8 -28 -14 -43 l-11 -28
-42 23 c-23 13 -43 28 -45 34 -2 5 16 21 39 34 24 13 56 34 71 47 16 13 30 23
33 23z m-247 -142 c4 -2 40 -23 79 -48 44 -27 72 -51 72 -62 0 -9 -9 -41 -21
-69 -11 -29 -38 -91 -61 -138 -22 -47 -58 -132 -79 -190 -22 -57 -39 -112 -39
-122 0 -11 -4 -19 -9 -19 -5 0 -11 17 -14 38 -4 20 -4 107 -2 192 2 85 6 164
9 175 2 11 5 22 6 25 1 3 2 8 2 11 -1 3 8 42 19 85 11 43 23 89 26 102 3 13 9
22 12 20z m1382 -54 c6 -3 32 -50 57 -103 26 -53 52 -110 58 -127 7 -16 23
-63 36 -104 14 -41 33 -98 42 -126 9 -29 16 -57 16 -64 0 -9 -14 -10 -52 -5
-29 4 -102 17 -161 30 -59 12 -110 25 -113 28 -3 2 4 38 15 78 10 41 22 94 26
119 4 25 16 81 27 125 10 44 24 97 29 118 6 22 14 35 20 31z m-1179 -74 c8 0
19 -5 25 -11 5 -5 53 -34 104 -62 52 -29 144 -76 206 -106 100 -48 111 -56
102 -73 -5 -10 -23 -58 -39 -106 -15 -48 -34 -103 -40 -122 -7 -19 -22 -54
-32 -78 -11 -24 -21 -48 -22 -55 -2 -7 -16 -39 -32 -72 -16 -33 -50 -91 -76
-130 -25 -38 -64 -85 -87 -103 -23 -18 -57 -36 -75 -39 -20 -3 -56 2 -87 12
-29 10 -68 31 -86 48 -18 17 -45 55 -60 86 -15 32 -28 50 -31 42 -3 -8 8 -40
24 -72 21 -41 42 -66 74 -87 25 -17 63 -36 85 -43 22 -6 54 -12 72 -11 18 1
46 8 63 17 16 8 42 28 57 43 16 16 36 38 45 50 9 11 25 33 35 49 9 15 20 30
23 33 3 3 16 21 28 41 12 20 33 67 47 105 14 38 30 78 35 89 5 11 28 71 50
134 22 63 38 117 35 121 -2 4 3 16 11 28 8 12 23 22 33 22 9 0 24 -6 33 -12
15 -12 14 -19 -13 -78 -16 -35 -31 -71 -33 -80 -2 -8 -6 -22 -9 -30 -3 -8 -13
-42 -22 -75 -10 -33 -28 -112 -42 -175 -14 -63 -29 -135 -35 -160 -6 -25 -10
-115 -11 -200 0 -138 2 -164 25 -238 l25 -83 -28 -23 c-16 -13 -53 -39 -84
-56 -38 -22 -74 -34 -113 -37 -44 -4 -85 2 -177 26 -66 18 -154 35 -195 38
-41 3 -85 12 -97 19 -13 8 -31 31 -42 52 -10 20 -24 57 -31 81 -6 25 -12 81
-11 125 0 64 11 125 52 286 28 113 56 207 60 208 5 2 9 12 9 23 0 10 11 56 24
101 13 46 45 133 69 193 25 61 66 154 90 208 25 54 47 107 50 117 3 11 11 20
19 20z m581 -286 c12 -4 45 -17 72 -30 28 -13 117 -45 198 -71 l148 -48 -7
-38 c-3 -20 -14 -59 -24 -85 -10 -26 -27 -69 -38 -97 -11 -27 -34 -81 -51
-118 -17 -38 -31 -72 -31 -77 0 -4 -21 -45 -46 -91 -26 -46 -68 -109 -94 -139
-26 -30 -95 -103 -153 -162 -58 -60 -111 -108 -116 -108 -5 0 -16 24 -24 53
-8 28 -21 83 -27 121 -9 45 -10 105 -6 175 4 58 12 126 17 151 6 25 22 95 34
155 13 61 30 133 38 160 9 28 21 66 27 85 7 19 23 59 36 88 13 29 24 59 24 68
0 11 6 14 23 8z m470 -164 c6 0 62 -11 122 -25 61 -13 136 -29 167 -35 44 -9
59 -16 65 -33 4 -12 6 -218 5 -457 -1 -239 -4 -470 -7 -512 -3 -42 -12 -114
-21 -159 -8 -46 -22 -101 -29 -124 -8 -22 -23 -93 -34 -155 -11 -63 -24 -133
-30 -156 -6 -22 -17 -53 -24 -68 -8 -15 -28 -40 -43 -56 -25 -25 -37 -29 -84
-30 -41 0 -71 8 -119 30 -42 20 -97 61 -157 115 -50 47 -123 122 -161 167 -38
46 -81 102 -95 124 -15 23 -39 70 -54 105 -14 35 -39 102 -54 149 -15 47 -33
107 -40 135 l-11 50 43 39 c24 22 61 56 83 76 22 21 71 72 110 115 38 42 88
105 111 140 23 34 55 91 72 126 16 35 38 82 47 104 9 22 20 49 25 60 4 11 19
47 33 80 14 33 35 83 46 112 12 28 21 59 21 67 0 9 6 16 13 16z"/>
<g>
<path d="M5049 4315 c-5 5 -9 0 -9 -12 0 -12 3 -28 6 -37 3 -9 10 -16 15 -16
5 0 6 12 3 28 -4 15 -11 31 -15 37z"/>
</g>
</g>
<g>
<path d="M3204 9029 c-55 0 -79 -6 -120 -28 -28 -15 -65 -42 -82 -61 -17 -19
-41 -55 -53 -79 -12 -24 -24 -70 -26 -105 -4 -50 -1 -72 17 -114 14 -32 40
-68 68 -92 24 -22 61 -44 81 -50 20 -5 44 -10 54 -10 13 0 17 -9 17 -44 l0
-43 -62 -8 c-35 -5 -88 -10 -119 -11 -31 -1 -65 -7 -76 -12 -15 -8 -22 -26
-27 -67 -3 -31 -15 -73 -25 -93 -10 -20 -25 -64 -35 -97 -9 -33 -26 -89 -37
-125 -10 -36 -26 -101 -34 -145 -9 -44 -20 -93 -25 -110 -5 -16 -23 -104 -41
-195 -17 -91 -37 -199 -44 -240 -7 -41 -24 -124 -38 -185 -14 -60 -35 -184
-47 -275 -12 -91 -32 -219 -46 -285 -13 -66 -29 -151 -35 -190 -6 -38 -14 -92
-18 -120 -4 -27 -20 -120 -34 -205 -15 -85 -36 -213 -47 -285 -11 -71 -25
-155 -30 -185 -5 -30 -13 -77 -18 -105 -5 -27 -15 -81 -21 -120 -7 -38 -16
-99 -22 -135 -5 -36 -18 -123 -30 -195 -11 -71 -24 -144 -30 -161 -5 -16 -11
-52 -14 -80 -3 -27 -9 -69 -15 -94 -5 -25 -16 -81 -24 -125 -8 -44 -20 -118
-26 -165 -6 -47 -15 -114 -20 -150 -5 -36 -14 -94 -20 -130 -5 -36 -12 -90
-16 -120 -3 -30 -10 -75 -14 -100 -5 -25 -13 -74 -20 -110 -6 -36 -18 -101
-25 -145 -8 -44 -19 -120 -25 -170 -6 -49 -15 -115 -21 -145 -5 -30 -23 -111
-40 -180 -16 -69 -36 -154 -44 -190 -8 -36 -19 -99 -25 -140 -6 -41 -13 -91
-15 -110 -3 -19 -10 -69 -16 -110 -5 -41 -21 -124 -33 -185 -13 -60 -29 -144
-36 -185 -7 -41 -23 -129 -36 -195 -13 -66 -28 -142 -33 -170 -6 -27 -14 -81
-20 -120 -6 -38 -15 -117 -21 -174 -6 -57 -16 -115 -21 -130 -6 -14 -17 -75
-24 -136 -10 -79 -11 -113 -3 -123 6 -7 15 -9 19 -5 5 5 13 44 19 88 6 44 17
121 25 170 8 50 23 162 35 250 11 88 29 207 40 265 11 58 31 168 45 245 14 77
34 181 45 230 11 50 31 169 45 265 15 96 38 227 51 290 14 63 32 144 39 180 8
36 23 115 34 175 11 61 30 180 41 265 12 85 30 198 41 252 11 53 24 131 29
175 6 43 14 105 19 138 5 33 16 103 24 155 9 52 19 118 22 145 4 28 15 93 25
145 10 52 21 118 25 145 3 28 10 68 15 90 5 22 16 78 24 125 8 47 19 123 26
170 6 47 20 144 31 215 11 72 24 144 30 162 5 17 11 47 13 66 2 19 5 38 8 43
3 5 13 63 22 129 9 66 23 156 31 200 7 44 23 139 35 210 12 72 28 168 36 215
9 47 22 119 30 160 8 41 20 106 25 145 5 38 16 117 24 175 8 58 19 128 24 155
5 28 20 102 34 165 13 63 30 147 36 185 7 39 19 99 27 135 8 36 33 151 55 255
22 105 56 244 76 310 19 66 37 122 40 125 2 2 2 -56 -1 -130 -3 -74 -10 -169
-17 -210 -6 -41 -13 -181 -14 -310 -3 -145 -10 -281 -21 -355 -9 -66 -18 -131
-20 -145 -1 -14 -6 -50 -9 -80 -3 -30 -7 -68 -9 -85 -2 -16 -9 -86 -16 -155
-6 -69 -18 -188 -26 -265 -8 -77 -19 -162 -24 -190 -5 -27 -16 -97 -25 -155
-9 -58 -20 -126 -25 -152 -5 -26 -21 -163 -34 -305 -14 -142 -28 -292 -30
-333 -3 -41 -10 -138 -15 -215 -6 -77 -15 -178 -21 -225 -5 -47 -17 -132 -25
-190 -8 -58 -20 -141 -25 -185 -5 -44 -11 -98 -14 -120 -2 -22 -11 -78 -20
-125 -8 -47 -20 -112 -25 -144 -6 -32 -15 -73 -20 -90 -5 -17 -12 -49 -15 -71
-2 -22 -16 -89 -31 -150 -14 -60 -36 -168 -49 -240 -13 -71 -27 -168 -31 -215
-4 -47 -13 -132 -21 -190 -8 -58 -17 -118 -19 -135 -3 -16 -9 -52 -15 -80 -6
-27 -14 -75 -20 -105 -5 -30 -23 -120 -40 -200 -17 -80 -35 -172 -41 -205 -5
-33 -16 -100 -24 -150 -8 -49 -21 -133 -29 -185 -8 -52 -20 -142 -26 -200 -6
-58 -18 -136 -26 -173 -8 -38 -19 -121 -25 -185 -6 -64 -12 -153 -14 -197 -2
-44 -8 -133 -14 -199 -6 -65 -18 -157 -27 -205 -8 -47 -20 -113 -25 -146 -6
-33 -12 -87 -15 -120 -3 -33 -10 -76 -15 -95 -5 -19 -9 -52 -9 -72 0 -36 2
-38 48 -52 26 -8 64 -21 84 -30 21 -9 55 -16 77 -16 22 0 42 4 45 8 2 4 2 12
-2 18 -4 5 -41 20 -82 32 -41 13 -88 28 -104 34 -28 11 -28 13 -22 67 3 31 22
160 42 286 19 127 37 240 40 253 l5 23 187 -6 c103 -3 230 -10 282 -16 78 -8
135 -6 300 11 113 11 259 27 325 35 66 8 179 19 250 25 72 6 144 12 162 15 18
2 97 0 175 -5 79 -5 208 -14 288 -20 80 -5 177 -12 215 -16 39 -3 95 -10 125
-15 30 -6 76 -17 101 -25 42 -13 47 -18 52 -52 4 -20 13 -59 21 -87 8 -27 32
-102 54 -165 22 -63 50 -155 63 -205 l24 -90 85 -5 c55 -4 89 -2 98 5 10 9 10
15 -1 29 -9 13 -29 19 -63 21 -27 2 -61 4 -75 4 -23 1 -27 6 -33 43 -4 24 -31
115 -61 203 -29 88 -68 212 -85 275 -17 63 -40 129 -50 145 -9 17 -23 55 -30
85 -7 30 -28 108 -46 174 -19 65 -38 132 -44 150 -5 17 -23 74 -39 126 -17 52
-50 176 -75 275 -25 99 -61 248 -80 330 -20 83 -47 206 -61 275 -14 68 -36
190 -49 270 -14 80 -28 170 -31 200 -4 30 -16 96 -27 145 -10 50 -30 151 -43
225 -13 74 -33 178 -44 230 -11 52 -27 142 -35 200 -9 58 -23 152 -31 210 -7
58 -19 164 -25 235 -5 72 -15 175 -21 230 -6 55 -19 156 -29 225 -11 69 -26
177 -35 240 -9 63 -20 140 -25 170 -5 30 -12 82 -15 114 -3 32 -16 114 -30
180 -13 67 -26 135 -30 152 -3 16 -12 76 -20 134 -8 58 -19 146 -24 195 -6 50
-11 176 -12 280 -1 105 -5 228 -9 275 -5 47 -11 155 -15 240 -3 85 -11 344
-16 575 -6 231 -12 474 -14 540 l-4 120 19 -90 c11 -49 26 -151 34 -225 8 -75
22 -171 31 -214 9 -44 23 -120 30 -170 7 -50 16 -125 20 -166 3 -41 13 -129
20 -195 8 -66 17 -166 20 -223 3 -57 7 -113 10 -125 3 -12 7 -42 10 -67 3 -25
12 -81 20 -125 8 -44 17 -89 20 -100 2 -11 7 -36 11 -55 3 -19 8 -42 11 -50 4
-8 6 -18 5 -21 -1 -4 12 -83 28 -175 17 -93 37 -205 45 -249 8 -44 23 -120 34
-170 11 -49 27 -126 36 -170 9 -44 23 -114 32 -155 8 -41 26 -133 39 -205 13
-71 29 -152 34 -180 5 -27 20 -108 34 -180 14 -71 37 -186 52 -255 14 -69 33
-154 40 -190 8 -36 21 -99 29 -140 7 -41 16 -82 19 -90 3 -8 15 -67 25 -130
11 -63 34 -196 51 -295 17 -99 40 -214 50 -255 10 -41 29 -118 43 -170 14 -52
33 -117 41 -144 9 -26 27 -107 41 -180 14 -72 34 -169 45 -216 11 -47 31 -134
44 -195 14 -60 28 -128 31 -150 4 -22 29 -132 56 -245 27 -113 56 -230 64
-260 7 -30 26 -102 40 -160 15 -58 39 -145 52 -195 14 -49 31 -97 39 -105 9
-9 17 -11 24 -4 6 6 -5 58 -32 149 -22 77 -56 196 -75 265 -18 69 -38 145 -43
169 -5 24 -19 73 -29 110 -11 36 -31 120 -45 186 -14 66 -37 174 -51 240 -15
66 -46 217 -70 335 -24 118 -53 244 -64 280 -11 36 -33 117 -49 180 -16 63
-34 140 -41 170 -7 30 -16 73 -21 95 -5 22 -21 108 -35 190 -14 83 -30 166
-35 185 -5 19 -12 60 -16 90 -3 30 -26 146 -51 258 -24 112 -50 247 -58 300
-8 53 -24 138 -35 187 -12 50 -25 108 -29 130 -5 22 -18 99 -30 170 -12 72
-28 159 -36 195 -9 36 -31 144 -51 240 -20 96 -44 218 -55 270 -11 52 -40 212
-65 355 -25 143 -56 325 -70 405 -13 80 -31 219 -40 310 -8 91 -17 179 -20
195 -2 17 -6 59 -9 95 -3 36 -10 108 -15 160 -6 52 -21 154 -35 225 -13 72
-29 177 -35 235 -6 58 -19 155 -30 215 -10 61 -23 157 -30 215 -6 58 -18 134
-27 170 -8 36 -22 75 -29 88 -8 12 -18 21 -23 18 -4 -3 -67 -7 -139 -10 l-132
-5 0 45 c0 30 4 43 11 38 6 -3 21 -2 32 4 12 5 38 16 57 23 19 7 58 27 85 44
28 18 63 46 77 64 16 18 30 50 34 76 3 25 3 66 -1 92 -4 26 -16 65 -27 87 -11
21 -41 60 -66 85 -29 28 -63 51 -88 59 -23 6 -72 12 -110 11z m33 -53 c28 -3
62 -12 76 -21 16 -10 23 -22 20 -34 -2 -9 2 -23 11 -30 11 -9 20 -10 34 -2 17
9 24 5 48 -30 22 -32 29 -55 32 -103 3 -51 0 -66 -20 -95 -12 -19 -44 -47 -70
-62 -26 -16 -67 -35 -90 -43 -27 -9 -70 -14 -113 -12 -39 2 -84 10 -100 19
-17 8 -40 26 -52 39 -12 12 -31 45 -43 72 -18 43 -19 56 -10 102 6 29 25 71
41 94 21 28 48 49 92 70 34 15 69 31 77 34 8 3 38 4 67 2z m114 -618 l107 2 6
-32 c3 -18 8 -71 10 -118 3 -47 8 -173 11 -280 3 -108 10 -234 15 -280 5 -47
10 -209 10 -360 0 -151 2 -286 4 -300 2 -14 7 -128 11 -255 4 -126 9 -234 12
-238 3 -4 4 -103 4 -220 0 -117 4 -234 9 -262 5 -27 14 -93 20 -145 5 -52 23
-171 40 -265 17 -93 37 -217 45 -275 8 -58 17 -125 20 -150 3 -25 13 -85 21
-135 9 -49 20 -128 25 -175 5 -47 16 -125 24 -175 9 -49 20 -155 25 -235 6
-80 17 -201 26 -270 8 -69 24 -186 35 -260 11 -74 33 -200 48 -280 16 -80 41
-210 56 -290 15 -80 35 -201 46 -270 11 -69 24 -150 29 -180 6 -30 19 -104 30
-165 11 -60 26 -137 34 -170 7 -33 26 -114 41 -180 15 -66 31 -143 36 -171 5
-28 21 -91 35 -140 14 -49 33 -114 41 -144 8 -30 18 -75 23 -100 4 -25 20 -68
34 -96 14 -29 26 -60 26 -70 0 -11 11 -53 24 -94 14 -41 36 -125 50 -185 15
-61 37 -141 51 -178 16 -45 20 -67 12 -67 -7 0 -30 5 -52 10 -22 6 -164 21
-315 34 -151 14 -333 27 -405 31 -95 4 -182 0 -325 -14 -107 -11 -276 -30
-375 -42 -99 -12 -243 -22 -320 -23 -77 0 -196 2 -265 6 -69 4 -173 7 -232 8
l-108 0 0 28 c0 16 9 71 20 123 11 52 24 108 29 124 5 17 17 68 26 115 13 65
15 109 10 190 -4 58 -7 137 -6 177 1 40 8 110 15 155 8 46 20 128 26 183 6 55
17 138 26 185 8 47 21 114 29 150 8 36 21 97 30 135 8 39 28 149 44 245 16 96
37 238 45 315 9 77 20 172 25 210 5 39 18 108 29 155 12 47 30 130 41 185 11
55 24 125 30 155 6 30 21 107 35 170 13 63 27 142 31 175 4 33 16 120 26 194
11 74 22 155 24 180 3 25 10 78 15 116 6 39 14 122 20 185 5 63 14 192 20 285
6 94 14 204 19 245 5 41 15 127 21 190 6 63 15 144 20 180 5 36 18 117 29 180
11 63 27 165 35 225 9 61 20 166 26 235 6 69 17 186 26 260 8 74 19 167 25
205 6 39 17 124 24 190 8 66 15 203 16 305 0 102 4 223 9 270 6 47 14 177 20
290 5 113 12 215 15 226 4 17 17 24 67 34 35 7 106 16 158 20 52 4 143 8 201
8z"/>
<g>
<path d="M3304 8870 c-2 0 -7 -7 -11 -16 -4 -11 2 -23 17 -34 19 -14 21 -20
11 -37 -8 -16 -7 -24 4 -33 13 -10 19 -9 35 5 11 10 20 26 20 36 0 9 -16 31
-35 48 -20 17 -38 31 -41 31z"/>
</g>
<g>
<path d="M3132 8858 c-14 2 -25 -3 -28 -13 -4 -10 0 -24 10 -33 16 -16 18 -16
32 3 8 10 13 24 11 30 -2 5 -13 11 -25 13z"/>
</g>
<g>
<path d="M3433 8749 c-10 0 -45 -16 -78 -35 -33 -18 -64 -35 -69 -37 -5 -2 -6
-13 -2 -25 4 -12 12 -22 19 -22 6 0 42 21 79 46 37 25 68 52 68 60 0 8 -8 14
-17 13z"/>
</g>
</g>
</g>
</svg>
