<?xml version="1.0" standalone="no"?>
<!DOCTYPE svg PUBLIC "-//W3C//DTD SVG 20010904//EN"
 "http://www.w3.org/TR/2001/REC-SVG-20010904/DTD/svg10.dtd">
<svg version="1.0" xmlns="http://www.w3.org/2000/svg"
 width="1080.000000pt" height="1080.000000pt" viewBox="0 0 1080.000000 1080.000000"
 preserveAspectRatio="xMidYMid meet">
<metadata>
Created by potrace 1.16, written by Peter Selinger 2001-2019
</metadata>
<g transform="translate(0.000000,1080.000000) scale(0.100000,-0.100000)"
fill="#000000" stroke="none">
<g>
<path d="M6163 10348 c-12 2 -34 -15 -63 -48 -24 -27 -48 -50 -53 -50 -5 0
-36 -24 -69 -52 -32 -29 -83 -74 -112 -100 -29 -27 -56 -48 -60 -48 -3 0 -47
-39 -97 -87 -50 -49 -99 -92 -108 -98 -10 -5 -42 -30 -71 -55 -29 -25 -75 -63
-101 -85 -26 -22 -68 -58 -94 -80 -26 -22 -68 -60 -94 -84 -25 -23 -84 -75
-131 -114 -47 -39 -114 -99 -150 -134 -35 -35 -68 -63 -73 -63 -5 0 -39 -28
-75 -63 -37 -35 -114 -104 -171 -153 -57 -49 -111 -93 -120 -99 -9 -5 -29 -19
-46 -31 -27 -18 -54 -22 -285 -32 -140 -7 -331 -14 -425 -17 -93 -3 -206 -8
-250 -10 -44 -3 -150 -10 -235 -15 -85 -6 -202 -16 -260 -21 -58 -6 -152 -14
-210 -19 -58 -4 -127 -13 -155 -19 -27 -6 -66 -10 -85 -10 -19 1 -82 -1 -140
-5 -58 -3 -147 -8 -199 -11 -51 -2 -99 -9 -105 -15 -7 -5 -18 -27 -24 -47 -6
-21 -16 -69 -23 -108 -6 -38 -16 -78 -21 -89 -6 -10 -10 -52 -10 -93 0 -57 4
-79 18 -94 9 -11 34 -22 54 -25 21 -3 43 -10 50 -14 10 -6 10 -40 1 -166 -6
-88 -9 -179 -6 -204 2 -25 7 -72 10 -104 3 -33 10 -76 16 -95 6 -20 15 -49 21
-66 5 -16 12 -41 14 -55 2 -14 9 -68 15 -120 7 -52 11 -126 10 -164 -1 -38 3
-91 10 -117 8 -32 9 -55 3 -69 -5 -12 -7 -54 -3 -93 3 -40 9 -84 13 -98 5 -18
3 -31 -8 -42 -9 -8 -16 -19 -17 -24 0 -4 -32 -35 -70 -68 -38 -33 -91 -80
-117 -105 -26 -25 -74 -71 -107 -102 -33 -31 -69 -67 -81 -80 -11 -13 -54 -54
-95 -92 -41 -38 -161 -152 -268 -255 -106 -102 -310 -302 -451 -443 -142 -141
-261 -266 -264 -276 -4 -11 -16 -22 -28 -25 -18 -5 -20 -11 -14 -54 4 -26 12
-79 18 -118 6 -40 19 -79 30 -91 10 -11 18 -30 18 -42 0 -11 4 -24 10 -27 5
-3 10 -13 10 -22 0 -9 21 -40 46 -69 25 -30 49 -54 54 -54 4 0 39 -20 77 -44
37 -25 79 -53 93 -63 13 -10 54 -48 90 -84 36 -37 103 -111 150 -164 47 -54
166 -179 266 -279 99 -100 236 -235 305 -302 68 -66 129 -127 135 -135 6 -8
37 -34 68 -59 32 -25 73 -58 91 -75 19 -16 52 -43 73 -60 21 -16 47 -41 57
-54 15 -20 18 -41 16 -130 -1 -58 -6 -141 -12 -183 -5 -43 -12 -91 -14 -108
-2 -16 -6 -39 -10 -50 -3 -11 -13 -20 -21 -20 -8 0 -14 -4 -14 -9 0 -6 5 -13
10 -16 6 -3 10 -30 10 -58 0 -29 -6 -70 -12 -92 -6 -22 -12 -70 -14 -107 -2
-37 -10 -91 -19 -120 -9 -30 -18 -106 -20 -173 -3 -66 -8 -167 -12 -225 -3
-58 -7 -121 -8 -140 -2 -19 -6 -82 -10 -140 -4 -58 -6 -117 -6 -133 1 -15 8
-56 16 -90 8 -35 13 -79 10 -97 -2 -19 3 -59 11 -88 10 -35 14 -77 11 -117 -2
-38 0 -68 6 -74 6 -6 26 -11 45 -11 19 0 51 -4 71 -9 20 -6 74 -15 121 -20 47
-6 103 -14 125 -18 22 -3 369 -7 770 -9 402 -1 840 -5 975 -8 199 -6 250 -10
270 -23 14 -9 61 -50 104 -92 44 -42 102 -100 130 -129 28 -30 100 -104 159
-165 60 -62 133 -143 162 -182 28 -38 60 -85 69 -104 10 -18 38 -60 62 -93 24
-33 47 -72 51 -87 3 -14 20 -43 37 -63 17 -21 37 -38 45 -38 8 0 30 12 50 27
20 15 51 41 70 58 19 16 107 103 197 193 90 89 164 166 164 170 0 4 48 52 106
107 59 55 116 111 128 124 11 14 48 54 81 90 33 37 82 93 110 126 27 33 51 62
52 64 1 2 53 5 115 7 62 1 226 5 363 8 138 4 297 10 355 14 58 3 330 5 605 2
275 -2 633 -4 795 -5 162 0 371 4 464 9 l168 8 -6 62 c-4 33 -3 83 3 110 5 27
13 51 18 55 5 3 13 15 16 25 5 11 1 28 -8 42 -8 13 -11 25 -7 28 5 3 5 32 1
64 -3 33 -5 169 -3 303 2 134 6 294 9 354 3 61 7 135 10 165 2 30 8 120 11
200 4 80 8 183 10 230 1 47 3 141 4 210 0 69 8 231 17 360 8 129 15 242 15
250 0 8 4 40 9 70 4 30 13 118 19 195 5 77 12 176 15 220 3 44 8 111 11 149
l5 68 135 135 c74 74 134 138 134 142 0 4 14 15 30 24 17 10 30 21 30 25 0 4
27 38 60 75 39 44 61 79 66 102 3 20 1 68 -6 108 -7 40 -14 90 -17 112 -2 22
-11 69 -19 104 -9 35 -17 74 -18 85 -1 12 -23 43 -49 70 -26 26 -47 52 -47 58
0 5 -17 30 -39 56 -21 26 -56 79 -77 117 -21 39 -56 96 -78 128 -23 32 -47 70
-55 85 -7 15 -22 36 -32 47 -10 11 -26 38 -36 60 -16 36 -18 78 -19 440 -1
220 -4 447 -8 505 -4 58 -10 119 -13 135 -3 17 -5 154 -4 305 1 151 4 291 6
310 3 19 10 96 15 170 5 74 14 191 19 260 5 69 13 193 16 275 4 83 7 159 7
170 0 11 -4 89 -8 173 -4 88 -12 155 -18 159 -5 4 -93 6 -193 5 -101 0 -187
-3 -191 -6 -4 -3 -66 -7 -137 -11 -72 -3 -152 -8 -180 -10 -27 -3 -131 -12
-230 -20 -113 -10 -308 -16 -525 -17 -190 0 -406 3 -480 7 -117 7 -137 11
-155 29 -11 12 -32 37 -47 56 -15 19 -46 61 -70 92 -24 32 -56 76 -73 100 -16
23 -57 72 -90 109 -33 37 -78 90 -100 118 -22 28 -82 95 -133 149 -52 53 -126
133 -164 177 -39 44 -114 127 -168 185 -53 58 -115 125 -137 150 -22 25 -59
76 -83 113 -24 38 -49 85 -56 105 -7 23 -19 38 -31 40z m10 -559 c4 1 9 -5 11
-11 2 -7 20 -62 40 -123 20 -60 38 -123 40 -140 2 -16 11 -55 20 -86 8 -30 33
-98 56 -150 23 -52 51 -114 62 -139 11 -25 28 -63 38 -85 10 -23 22 -53 25
-68 7 -25 5 -27 -26 -27 -19 -1 -199 -3 -401 -6 -256 -4 -368 -3 -368 4 0 6
18 45 39 86 22 41 37 76 35 79 -3 3 6 27 20 53 14 27 26 55 26 62 0 7 10 32
22 55 12 23 32 67 45 96 12 30 25 74 29 98 3 24 10 43 14 43 4 0 12 12 19 26
6 14 39 52 74 84 34 32 87 78 117 103 30 25 59 46 63 46z m139 -149 c4 0 8 -4
8 -8 0 -5 28 -38 63 -74 34 -37 70 -76 80 -88 10 -11 54 -66 98 -120 44 -55
141 -161 215 -237 74 -75 134 -143 134 -151 0 -11 -25 -12 -132 -8 -73 3 -161
5 -195 5 -60 1 -63 2 -69 29 -4 15 -18 52 -31 82 -14 30 -33 73 -44 96 -10 22
-19 47 -19 55 0 8 -6 26 -14 41 -8 15 -17 41 -21 59 -4 18 -15 46 -25 63 -9
17 -19 51 -23 76 -3 25 -9 56 -12 70 -4 14 -10 44 -14 68 -4 23 -4 42 1 42z
m-522 -180 c6 0 10 -2 10 -5 0 -3 -11 -27 -25 -53 -14 -26 -25 -52 -25 -58 0
-6 -10 -33 -22 -60 -12 -27 -23 -51 -23 -54 -1 -3 -10 -23 -19 -45 -9 -22 -28
-62 -42 -90 -14 -27 -35 -67 -48 -88 -13 -21 -30 -45 -38 -53 -11 -11 -57 -16
-191 -21 -115 -4 -177 -3 -177 4 0 5 51 54 113 108 61 54 150 132 196 174 46
41 93 82 105 90 11 8 31 25 43 38 12 13 26 23 32 23 5 0 11 3 13 8 2 4 22 24
46 45 23 20 47 37 52 37z m3378 -957 c45 -1 87 -5 92 -8 6 -3 10 -17 10 -30 0
-13 -9 -40 -19 -62 -10 -21 -31 -69 -47 -108 -15 -38 -32 -71 -36 -73 -4 -2
-8 -10 -8 -19 0 -8 -6 -27 -14 -41 -8 -15 -26 -52 -39 -82 -14 -30 -28 -66
-32 -80 -4 -14 -13 -32 -20 -40 -7 -8 -22 -40 -33 -71 -11 -31 -30 -72 -41
-93 -12 -20 -21 -44 -21 -54 0 -10 -7 -27 -15 -38 -8 -12 -34 -68 -58 -125
-24 -57 -53 -125 -63 -151 -10 -27 -22 -48 -26 -48 -5 0 -8 -8 -8 -18 0 -10
-13 -42 -30 -72 -16 -30 -34 -67 -41 -82 -6 -16 -14 -28 -19 -28 -4 0 -25 24
-47 53 -21 28 -57 77 -80 107 -22 30 -52 67 -66 82 -14 16 -39 47 -55 70 -16
24 -40 52 -52 63 -12 11 -55 62 -94 113 -39 52 -91 119 -114 150 -24 32 -63
80 -87 107 -23 28 -79 97 -125 154 -65 82 -81 108 -73 120 5 9 33 25 60 36 28
12 57 25 64 31 8 5 30 15 49 21 19 6 51 15 70 18 19 4 43 13 55 19 11 6 27 16
35 23 8 6 17 12 20 12 3 0 18 4 33 10 16 6 32 11 37 11 5 0 10 5 12 11 2 5 12
12 23 14 11 2 25 4 32 4 6 1 18 8 27 16 8 8 37 20 63 25 26 5 57 11 68 13 11
3 99 10 195 17 96 6 211 15 255 19 44 3 117 5 163 4z m-2813 -21 c164 -2 304
-7 310 -12 6 -5 19 -33 29 -62 11 -29 24 -60 31 -68 7 -8 26 -42 42 -75 17
-33 53 -104 82 -159 28 -54 51 -103 51 -108 0 -6 13 -38 29 -72 16 -33 32 -71
36 -84 5 -16 2 -24 -12 -29 -10 -4 -40 -21 -68 -39 -27 -17 -64 -35 -82 -38
-18 -4 -42 -15 -55 -25 -13 -9 -39 -24 -58 -31 -19 -8 -55 -27 -79 -42 -25
-15 -49 -28 -55 -28 -5 0 -79 -34 -165 -76 -86 -41 -164 -79 -173 -85 -10 -5
-22 -9 -27 -9 -5 0 -66 -27 -135 -60 -70 -33 -129 -60 -132 -60 -4 0 -34 -14
-68 -30 -33 -17 -68 -35 -76 -39 -8 -5 -33 -16 -56 -26 -39 -16 -43 -16 -103
5 -35 11 -73 27 -85 35 -11 7 -64 30 -116 50 -52 21 -126 52 -165 70 -38 18
-107 47 -152 64 -45 17 -87 31 -94 31 -6 0 -26 7 -45 16 -19 9 -34 22 -34 28
0 6 13 36 28 66 16 30 43 92 61 138 18 45 37 85 42 88 5 3 9 12 9 20 0 9 15
46 33 82 17 37 35 68 39 70 4 2 12 21 18 43 6 21 15 39 20 39 6 0 10 7 10 15
0 8 11 30 24 50 14 20 28 49 31 66 4 16 31 70 60 120 29 49 56 100 59 113 3
13 16 26 28 30 13 3 93 6 178 7 85 1 229 5 320 8 91 3 300 5 465 3z m468 -7
c50 -2 164 -7 252 -10 88 -4 180 -8 204 -11 25 -3 49 -11 55 -19 6 -7 37 -46
68 -87 32 -40 76 -98 98 -128 22 -30 40 -60 40 -67 0 -7 -35 -29 -77 -49 -43
-21 -79 -41 -81 -46 -2 -4 -9 -8 -16 -8 -6 0 -35 -15 -63 -34 -28 -19 -55 -35
-60 -37 -4 -2 -56 -30 -115 -62 -59 -32 -112 -56 -117 -53 -5 3 -27 52 -50
109 -23 57 -78 170 -122 252 -44 83 -83 162 -86 178 -3 15 -10 30 -14 33 -5 3
-9 14 -9 25 0 18 6 19 93 14z m-1555 -16 c12 0 25 -5 28 -13 3 -8 -2 -29 -11
-48 -10 -18 -23 -40 -30 -48 -7 -8 -18 -33 -24 -56 -6 -22 -20 -49 -31 -59
-11 -10 -20 -24 -20 -31 0 -7 -9 -33 -21 -56 -11 -24 -25 -50 -30 -58 -5 -8
-20 -37 -34 -65 -13 -27 -31 -61 -39 -75 -7 -14 -26 -48 -40 -76 -14 -29 -26
-59 -26 -67 0 -8 -4 -17 -9 -19 -4 -1 -22 -34 -38 -73 -17 -38 -39 -91 -49
-117 -11 -27 -25 -48 -32 -48 -8 0 -28 7 -45 16 -18 9 -40 21 -50 26 -9 4 -43
18 -75 30 -31 11 -64 26 -72 33 -8 7 -33 21 -55 33 -22 11 -80 39 -130 62 -49
23 -144 66 -210 95 -66 29 -138 61 -160 70 l-40 16 35 30 c19 17 44 38 55 48
11 9 47 39 80 66 33 27 71 61 85 75 14 14 55 49 90 79 36 30 79 67 95 83 17
15 47 43 68 63 24 22 50 37 75 40 20 3 71 7 112 10 41 3 125 8 185 11 61 3
162 9 225 14 63 4 125 8 138 9z m2699 -22 c208 1 252 -1 236 -11 -10 -7 -74
-36 -143 -65 -69 -29 -142 -61 -163 -72 -22 -10 -47 -19 -56 -19 -10 0 -38 30
-67 73 -28 39 -53 77 -56 82 -4 7 82 11 249 12z m-4174 -59 c32 2 47 -2 47
-10 0 -7 -34 -43 -74 -80 -41 -38 -78 -68 -83 -68 -5 0 -22 -14 -39 -31 -16
-17 -43 -39 -61 -50 -30 -19 -35 -19 -80 -6 -26 8 -84 30 -128 47 -44 18 -106
45 -137 61 -32 16 -63 29 -70 29 -7 0 -38 12 -68 26 -51 25 -53 27 -30 34 14
4 88 12 165 19 77 7 223 16 325 20 102 5 206 9 233 9z m-998 -68 c35 0 76 -11
135 -36 47 -19 105 -44 130 -54 25 -10 72 -29 105 -42 33 -14 76 -32 95 -40
19 -9 69 -28 110 -43 41 -15 83 -29 93 -32 9 -3 17 -9 17 -13 0 -5 -15 -20
-32 -35 -18 -15 -85 -75 -148 -133 -63 -59 -229 -221 -368 -359 -140 -139
-258 -250 -263 -247 -5 3 -18 22 -28 42 -10 20 -26 77 -35 127 -10 49 -24 105
-31 125 -7 19 -21 80 -30 135 -9 55 -31 141 -47 190 -17 50 -37 99 -45 110 -7
11 -13 33 -13 48 0 16 -12 57 -26 91 -14 33 -30 69 -35 78 -5 10 -9 24 -9 32
0 10 21 15 78 20 42 4 112 12 155 18 42 5 86 8 96 5 10 -2 25 -1 32 4 8 5 37
9 64 9z m6472 -74 c3 -3 1 -63 -6 -133 -6 -70 -16 -173 -21 -228 -5 -55 -12
-163 -15 -240 -3 -77 -6 -214 -6 -305 0 -91 5 -187 10 -215 5 -27 10 -113 10
-190 1 -77 6 -234 10 -350 7 -165 6 -213 -3 -223 -11 -11 -21 3 -58 75 -25 48
-60 113 -78 143 -19 30 -43 71 -55 90 -12 19 -30 49 -40 65 -10 17 -35 50 -56
75 -20 25 -44 60 -53 78 -9 18 -44 69 -77 113 -56 74 -60 84 -56 122 2 23 15
69 28 102 12 33 33 76 44 95 12 19 25 46 29 60 4 14 14 43 23 65 9 22 24 58
34 80 10 22 28 65 39 95 12 30 41 96 65 145 23 50 55 117 69 150 15 33 33 66
40 75 8 8 21 38 29 65 8 28 31 84 52 124 20 40 39 70 42 67z m-1686 -167 c20
1 34 -9 58 -41 17 -24 65 -88 105 -143 41 -55 99 -129 130 -163 30 -35 67 -83
83 -105 15 -23 37 -51 48 -62 11 -11 42 -49 70 -85 27 -36 81 -103 121 -150
39 -47 84 -104 100 -126 16 -23 56 -75 90 -115 33 -41 90 -114 127 -162 37
-49 67 -94 67 -101 0 -8 -8 -31 -17 -52 -9 -22 -22 -57 -29 -79 -7 -22 -18
-56 -26 -76 -7 -20 -18 -43 -24 -50 -6 -8 -27 -66 -48 -129 -20 -63 -41 -123
-46 -132 -6 -10 -10 -25 -10 -33 0 -8 -4 -15 -9 -15 -4 0 -11 -18 -14 -41 -3
-22 -12 -48 -21 -58 -9 -10 -16 -23 -16 -29 0 -6 -16 -38 -36 -72 -20 -34 -42
-64 -49 -66 -7 -3 -66 22 -132 56 -65 34 -125 67 -133 74 -8 7 -55 32 -105 56
-49 24 -102 53 -117 66 -15 12 -42 27 -60 33 -28 9 -39 24 -70 89 -21 42 -51
113 -67 157 -16 44 -42 116 -59 160 -16 44 -37 100 -47 125 -9 25 -26 70 -37
100 -11 30 -33 82 -48 115 -16 33 -40 89 -54 124 -14 36 -26 72 -26 82 0 10
-4 20 -9 23 -5 3 -12 18 -15 32 -4 14 -29 73 -57 131 -27 58 -61 139 -75 181
-14 43 -32 87 -40 99 -7 12 -16 39 -20 60 -5 38 -5 38 53 72 32 19 67 42 78
51 11 10 37 23 57 29 21 7 40 17 44 22 3 5 22 16 42 25 20 8 48 23 62 32 14 9
54 33 90 54 36 20 77 37 91 37z m-5219 -41 c6 -2 19 -26 28 -54 10 -27 27 -76
38 -109 11 -33 32 -105 47 -159 15 -55 25 -110 22 -123 -2 -13 0 -26 4 -29 5
-3 9 -18 9 -33 0 -16 7 -45 15 -64 8 -20 15 -49 15 -64 0 -15 14 -61 30 -102
17 -40 30 -80 30 -90 0 -9 -29 -47 -65 -84 -42 -44 -71 -67 -82 -65 -16 3 -19
24 -24 218 -4 118 -9 240 -13 270 -4 30 -12 84 -17 120 -6 36 -22 119 -35 185
-15 72 -23 133 -19 153 3 18 11 32 17 30z m1598 -158 c4 0 56 -18 116 -41 60
-23 114 -45 119 -49 6 -5 46 -23 90 -40 44 -17 93 -39 110 -47 16 -9 39 -20
50 -26 11 -6 29 -15 40 -21 11 -6 22 -14 25 -17 3 -3 21 -11 40 -18 19 -8 85
-37 145 -66 61 -29 118 -56 129 -59 14 -5 17 -12 11 -34 -3 -15 -17 -47 -29
-72 -13 -25 -29 -63 -36 -84 -7 -22 -35 -82 -61 -135 -27 -52 -49 -99 -49
-104 0 -4 -11 -23 -25 -41 -14 -18 -25 -37 -25 -43 0 -5 -28 -62 -62 -127 -35
-65 -67 -126 -72 -136 -6 -10 -33 -27 -60 -38 -28 -11 -76 -28 -106 -37 -30
-10 -63 -24 -72 -32 -9 -8 -21 -12 -27 -9 -5 4 -27 0 -48 -8 -21 -8 -47 -17
-58 -21 -11 -4 -56 -21 -100 -37 -44 -16 -114 -40 -155 -54 -41 -14 -127 -46
-190 -71 -63 -26 -131 -55 -150 -66 -19 -11 -61 -33 -92 -48 -31 -16 -61 -29
-65 -29 -4 0 -42 -14 -83 -30 -41 -17 -86 -35 -100 -41 -14 -6 -33 -15 -42
-20 -10 -5 -25 -9 -35 -9 -9 0 -25 7 -35 17 -10 9 -18 23 -18 31 0 8 -11 40
-23 71 -13 31 -34 85 -46 121 -12 36 -23 74 -25 86 -2 11 -7 27 -11 34 -5 8
-14 37 -21 64 -7 28 -22 76 -34 106 -12 30 -27 70 -33 87 -10 32 -9 34 69 115
43 46 190 193 326 328 136 135 271 266 300 292 29 26 73 64 98 85 24 21 85 74
135 118 49 44 110 97 134 118 25 20 47 37 51 37z m3029 -113 c8 -1 17 -9 21
-17 4 -8 14 -30 23 -48 9 -19 17 -39 17 -45 0 -7 6 -24 14 -39 8 -14 19 -43
25 -65 7 -21 24 -65 38 -98 14 -33 29 -68 34 -77 4 -9 25 -59 45 -110 20 -51
47 -118 61 -148 14 -30 39 -88 55 -129 17 -41 34 -82 38 -90 5 -9 14 -32 20
-51 7 -19 25 -69 40 -110 15 -41 35 -97 45 -125 10 -27 27 -69 37 -92 10 -24
18 -46 18 -49 0 -4 12 -33 26 -65 15 -33 25 -62 22 -64 -3 -3 -72 28 -154 69
-82 41 -162 78 -179 82 -16 4 -59 22 -95 40 -36 17 -94 44 -129 58 -36 14 -68
26 -73 26 -5 0 -59 25 -121 55 -61 30 -118 55 -125 55 -7 0 -63 25 -125 56
-61 31 -123 64 -137 73 -14 9 -50 28 -80 41 -30 13 -95 43 -145 65 -49 23
-112 50 -140 60 -27 10 -61 26 -75 34 -14 9 -71 39 -127 66 -57 27 -103 52
-103 55 0 4 27 19 60 33 33 15 64 27 68 27 5 0 17 9 26 19 10 11 35 23 57 26
22 4 45 12 52 18 7 7 28 19 47 28 19 9 55 25 80 34 25 10 68 28 95 40 28 12
62 25 78 29 15 3 57 24 92 46 36 22 71 40 78 40 7 0 46 18 87 40 41 22 100 52
130 66 30 14 87 41 126 60 39 19 86 46 105 59 19 13 40 23 48 22z m-2061 -322
c15 -4 43 -11 62 -15 19 -4 82 -27 140 -50 57 -23 125 -53 150 -66 25 -13 49
-24 55 -24 5 0 35 -15 66 -34 31 -18 74 -40 95 -47 21 -7 47 -19 57 -25 17
-11 14 -14 -27 -33 -26 -11 -73 -28 -104 -38 -31 -9 -74 -28 -94 -40 -21 -13
-42 -23 -47 -23 -6 0 -51 -18 -101 -40 -50 -22 -95 -40 -101 -40 -5 0 -65 -27
-134 -60 -69 -33 -127 -60 -130 -60 -3 0 -24 -9 -48 -19 -23 -11 -73 -31 -110
-46 -38 -14 -71 -25 -72 -23 -2 2 2 15 10 28 8 14 19 35 25 48 5 13 10 32 10
42 0 10 6 20 13 23 8 3 27 31 43 64 16 32 41 76 56 97 16 21 28 46 28 55 0 9
14 43 30 76 16 33 30 68 30 78 0 9 4 17 9 17 4 0 14 21 20 48 7 26 19 62 27
81 13 29 18 32 42 26z m721 -305 c17 0 74 -22 129 -50 55 -27 105 -50 111 -50
7 0 29 -9 49 -19 20 -11 67 -33 103 -50 37 -16 70 -34 74 -40 3 -6 14 -11 24
-11 10 0 76 -30 147 -66 71 -36 141 -75 155 -85 15 -10 34 -19 42 -19 9 0 19
-4 22 -10 3 -5 44 -28 91 -50 46 -22 87 -40 91 -40 4 0 43 -17 87 -39 45 -21
108 -49 141 -61 33 -13 84 -33 113 -46 29 -13 57 -24 62 -24 5 0 24 -8 43 -19
18 -10 74 -35 124 -55 50 -20 94 -36 98 -36 5 0 49 -24 99 -54 50 -30 109 -62
130 -72 22 -11 47 -32 56 -49 9 -16 22 -50 30 -75 7 -25 28 -90 46 -145 19
-55 44 -127 58 -160 13 -33 38 -93 54 -132 17 -40 38 -85 46 -100 9 -16 27
-56 40 -89 21 -51 24 -67 15 -97 -5 -20 -16 -40 -23 -44 -7 -5 -25 -33 -39
-63 -15 -30 -37 -71 -49 -91 -13 -20 -47 -76 -77 -125 -30 -49 -64 -102 -77
-119 -12 -16 -37 -57 -54 -90 -17 -33 -39 -73 -50 -90 -10 -16 -37 -61 -58
-100 -21 -38 -53 -97 -72 -130 -18 -33 -48 -89 -66 -124 -19 -36 -44 -76 -57
-90 -13 -14 -27 -34 -30 -43 -3 -9 -22 -20 -41 -24 -20 -3 -36 -10 -36 -15 0
-5 -7 -9 -15 -9 -8 0 -36 -9 -62 -21 -27 -12 -66 -29 -88 -39 -22 -10 -61 -27
-87 -39 -26 -11 -54 -21 -62 -21 -7 0 -19 -6 -25 -14 -7 -8 -24 -17 -39 -21
-15 -3 -54 -19 -87 -34 -33 -16 -89 -38 -125 -51 -36 -12 -108 -38 -160 -57
-52 -19 -138 -52 -190 -73 -52 -21 -133 -53 -180 -71 -47 -18 -131 -54 -188
-81 -57 -26 -109 -48 -115 -48 -7 0 -24 -8 -37 -17 -14 -10 -38 -25 -55 -34
-16 -8 -48 -26 -70 -38 -22 -13 -44 -27 -49 -32 -6 -5 -18 -9 -28 -9 -10 0
-35 11 -56 24 -20 13 -86 50 -147 82 -60 32 -153 78 -205 102 -52 24 -111 51
-130 61 -19 10 -62 28 -95 39 -33 11 -91 30 -130 41 -38 12 -88 26 -110 33
-22 6 -62 21 -90 33 -27 12 -74 28 -103 35 -29 7 -75 23 -102 36 -28 13 -54
24 -59 24 -5 0 -38 13 -73 29 -34 15 -116 54 -181 86 -65 31 -121 65 -124 74
-3 9 -15 39 -28 66 -12 28 -36 80 -54 117 -17 37 -36 70 -41 73 -6 3 -10 14
-10 24 0 10 -7 24 -15 31 -8 7 -15 25 -15 40 0 15 -9 35 -20 45 -11 10 -20 23
-20 29 0 7 -9 29 -20 51 -11 22 -20 46 -20 55 0 9 9 33 20 55 11 22 20 47 20
56 0 9 7 22 15 29 8 6 24 37 35 67 11 31 31 74 44 97 13 22 27 57 31 76 4 19
16 47 26 62 11 14 19 31 19 37 0 6 4 19 10 29 5 9 16 35 24 57 8 22 31 78 51
125 20 47 54 122 76 166 21 45 39 88 39 96 0 8 13 44 29 79 15 35 31 77 35 93
4 17 16 42 27 57 10 15 19 32 19 38 0 6 4 19 9 29 5 9 20 44 34 77 13 33 30
76 38 95 7 19 46 98 85 175 39 77 81 156 93 175 11 19 23 42 27 50 3 8 12 30
21 48 9 17 23 32 31 32 7 0 51 18 95 39 45 22 97 46 115 53 17 7 32 16 32 19
0 4 19 9 41 13 23 4 67 19 98 35 31 15 65 33 76 39 11 6 53 27 94 47 41 19 79
35 83 35 5 0 28 9 50 20 23 11 47 20 53 20 7 0 34 12 61 26 27 14 81 37 119
51 39 14 81 27 94 30 13 3 32 14 42 24 11 11 32 19 48 19z m3004 -403 c12 -8
26 -28 32 -45 5 -18 12 -32 16 -32 4 0 45 -50 91 -112 45 -61 88 -118 93 -127
6 -9 34 -53 63 -98 30 -46 58 -85 63 -88 5 -4 27 -38 50 -76 22 -39 54 -96 70
-127 16 -31 34 -65 39 -74 6 -10 14 -26 20 -35 5 -10 19 -38 31 -63 12 -25 23
-67 24 -95 2 -27 7 -99 13 -160 5 -60 9 -122 8 -137 -1 -21 -6 -28 -21 -28
-11 0 -33 9 -50 20 -16 12 -82 47 -145 79 -64 32 -133 71 -155 86 -22 15 -84
49 -138 76 -54 27 -104 49 -110 49 -7 0 -76 35 -155 79 -78 43 -151 86 -162
96 -11 10 -20 15 -20 11 0 -4 -4 -5 -9 -1 -5 3 10 43 33 90 23 46 47 90 53 97
6 7 25 56 43 108 18 52 38 106 45 120 7 14 18 45 25 70 7 25 18 56 25 70 7 14
27 60 44 103 17 43 31 85 31 95 0 10 7 28 16 40 14 21 18 22 37 9z m-5883 -5
c9 -2 28 -29 43 -61 15 -31 40 -102 57 -157 16 -54 39 -118 50 -141 11 -23 26
-66 34 -96 8 -30 24 -73 36 -97 20 -40 21 -42 3 -55 -10 -8 -31 -17 -47 -21
-16 -3 -43 -15 -60 -25 -17 -10 -38 -22 -46 -25 -8 -4 -62 -29 -120 -56 -58
-27 -118 -56 -133 -64 -16 -7 -35 -14 -42 -14 -8 0 -16 14 -19 33 -3 17 -8 93
-11 167 -3 74 -10 167 -15 205 -5 39 -9 87 -10 109 0 37 7 46 133 170 75 75
139 130 147 128z m1628 -123 c6 1 12 -7 12 -16 0 -10 -6 -28 -13 -40 -6 -12
-31 -56 -54 -98 -24 -42 -43 -82 -43 -88 0 -7 -11 -32 -24 -57 -13 -25 -40
-88 -60 -140 -20 -52 -43 -102 -51 -111 -8 -8 -15 -21 -15 -27 0 -6 -7 -28
-16 -49 -9 -21 -25 -58 -37 -83 -11 -25 -24 -53 -28 -62 -5 -10 -9 -22 -9 -28
0 -5 -13 -38 -30 -72 -16 -34 -30 -66 -30 -71 0 -6 -13 -38 -29 -71 -16 -34
-38 -81 -49 -106 -11 -25 -27 -62 -36 -83 -8 -20 -16 -41 -16 -45 -1 -4 -7
-16 -14 -27 -8 -12 -26 -52 -40 -90 -15 -39 -33 -83 -41 -98 -8 -16 -15 -32
-15 -37 0 -5 -9 -29 -20 -54 -11 -26 -18 -48 -17 -50 1 -2 -5 -12 -15 -22 -9
-11 -24 -39 -34 -64 -9 -25 -22 -51 -28 -57 -9 -10 -17 -1 -35 35 -12 26 -27
55 -32 65 -5 10 -29 71 -54 136 -24 66 -59 150 -78 188 -19 37 -53 106 -75
153 -22 47 -49 110 -60 140 -11 30 -32 87 -47 125 -15 39 -33 88 -41 110 -8
22 -19 48 -24 57 -6 10 -10 23 -10 28 0 6 -21 54 -46 107 -25 53 -42 99 -37
103 4 5 51 22 103 39 52 18 111 39 130 48 19 8 54 29 78 44 24 16 47 29 52 29
5 0 26 7 47 16 21 9 49 22 63 29 14 7 41 16 60 20 19 4 45 16 58 26 13 10 40
23 60 29 20 6 46 16 57 21 11 5 76 27 144 49 68 23 137 48 153 56 15 8 47 19
71 23 23 5 78 22 122 39 44 16 86 30 93 31z m-2081 -309 c7 0 15 -10 17 -22 3
-13 8 -54 11 -93 4 -38 8 -132 11 -207 l4 -138 -47 -30 c-27 -16 -53 -30 -59
-30 -6 0 -51 -17 -100 -39 -49 -21 -186 -87 -304 -146 -118 -59 -228 -114
-245 -122 -16 -9 -54 -24 -83 -34 -28 -10 -62 -25 -74 -33 -12 -9 -33 -16 -46
-16 -23 0 -23 2 13 42 21 22 59 59 86 82 26 23 48 45 48 49 1 4 32 38 70 75
38 37 80 76 93 87 13 12 41 41 64 65 23 25 122 122 220 215 98 94 208 198 244
232 36 35 71 63 77 63z m5414 -145 c13 -4 56 -22 94 -41 39 -19 90 -46 115
-60 25 -14 66 -39 93 -55 26 -16 51 -29 54 -29 4 0 28 -14 54 -32 l46 -31 -34
-66 c-19 -36 -43 -75 -53 -86 -9 -11 -41 -68 -70 -128 -29 -59 -56 -110 -61
-113 -5 -2 -11 8 -15 23 -4 15 -16 46 -27 68 -11 22 -24 47 -29 55 -4 8 -12
24 -18 35 -5 11 -25 63 -45 115 -20 52 -46 118 -57 145 -11 28 -29 77 -38 110
-10 33 -21 68 -25 79 -7 16 -5 17 16 11z m-4707 -87 c16 -2 33 -30 73 -118 28
-63 52 -123 52 -132 1 -9 26 -79 56 -155 30 -76 68 -165 84 -198 16 -33 56
-117 89 -186 32 -69 65 -143 72 -165 7 -21 16 -43 20 -49 5 -5 14 -30 21 -55
7 -25 13 -50 14 -56 0 -6 8 -22 17 -36 10 -14 31 -51 48 -82 16 -31 30 -65 30
-76 0 -10 -5 -32 -11 -47 -7 -15 -17 -41 -24 -58 -7 -16 -16 -46 -20 -65 -4
-19 -13 -48 -21 -65 -7 -16 -19 -48 -26 -70 -12 -36 -16 -40 -43 -37 -17 2
-35 8 -40 12 -6 5 -37 15 -70 24 -33 8 -118 30 -188 49 -70 19 -133 39 -140
46 -6 6 -17 11 -25 11 -8 0 -42 12 -76 26 -33 15 -76 33 -93 40 -18 8 -48 20
-65 28 -18 8 -67 31 -110 50 l-76 35 -1 208 c-1 114 -8 278 -17 363 -9 85 -19
209 -22 275 -4 66 -5 151 -2 190 4 60 8 70 25 73 11 2 49 15 85 28 36 14 79
32 95 41 17 8 44 22 60 32 17 9 40 26 53 39 12 12 30 22 40 22 9 0 26 7 36 15
11 8 27 15 37 15 9 0 22 7 29 15 7 9 23 15 34 13z m5275 -214 c31 -14 65 -33
76 -44 11 -10 64 -41 118 -69 53 -28 102 -51 107 -51 5 0 33 -11 62 -25 29
-13 82 -42 118 -65 36 -22 68 -40 72 -40 4 0 33 -16 64 -36 31 -20 86 -50 123
-67 36 -16 73 -36 81 -43 8 -7 43 -26 77 -43 34 -17 65 -36 69 -42 3 -6 8 -64
11 -130 l5 -119 -45 -20 c-24 -11 -54 -28 -68 -38 -13 -10 -46 -32 -74 -47
-27 -16 -52 -32 -55 -35 -3 -3 -15 -11 -27 -17 -13 -7 -28 -13 -35 -13 -7 0
-24 -6 -38 -13 -14 -7 -45 -19 -70 -26 -25 -8 -64 -20 -87 -27 -24 -8 -51 -18
-60 -24 -10 -5 -52 -21 -93 -36 -41 -14 -133 -43 -205 -64 -99 -29 -133 -36
-141 -27 -6 7 -30 66 -54 132 -23 66 -63 181 -89 255 -26 74 -55 149 -64 167
-10 18 -17 39 -17 48 0 9 -12 41 -27 71 -26 53 -26 57 -11 87 9 18 23 48 32
69 9 20 16 38 16 41 0 3 30 60 68 127 37 67 75 137 86 155 l19 34 56 -25z
m-5958 -114 c14 0 16 -16 17 -110 1 -61 5 -116 8 -122 4 -7 9 -43 11 -82 1
-39 5 -87 9 -106 3 -19 8 -142 11 -272 3 -148 2 -238 -4 -238 -5 0 -61 15
-124 34 -64 18 -129 41 -147 50 -17 9 -38 16 -46 16 -9 0 -46 12 -83 26 -38
14 -77 29 -88 34 -11 4 -40 15 -65 25 -25 10 -54 21 -65 26 -11 4 -76 26 -145
48 -69 22 -141 45 -160 52 -19 6 -48 19 -65 27 -16 9 -61 28 -100 43 -38 15
-71 31 -72 36 -2 4 9 14 24 20 16 7 55 22 88 34 33 11 80 28 105 36 25 9 52
22 60 29 8 6 34 18 57 25 24 6 50 20 59 31 10 10 26 18 36 18 11 0 39 9 64 20
24 11 44 25 44 30 0 6 6 10 14 10 8 0 54 21 103 47 48 25 108 57 133 69 25 13
51 24 58 24 6 0 12 4 12 9 0 4 39 22 88 40 48 17 101 40 117 51 17 11 37 20
46 20z m7086 -200 c4 -1 23 -21 41 -46 18 -24 46 -64 61 -87 15 -23 37 -58 50
-78 l21 -37 -82 30 c-46 17 -84 31 -85 32 -1 0 -4 43 -8 94 -4 50 -3 92 2 92z
m-1455 -200 c8 0 26 -33 43 -77 16 -43 39 -100 51 -128 13 -27 30 -73 38 -102
8 -29 30 -92 49 -140 19 -48 41 -113 50 -144 10 -31 17 -63 17 -71 0 -10 -17
-20 -47 -28 -27 -6 -68 -18 -93 -27 -25 -8 -56 -19 -70 -25 -14 -5 -38 -16
-55 -23 -16 -6 -95 -44 -175 -83 -80 -39 -178 -84 -219 -101 -40 -17 -91 -34
-112 -37 -35 -6 -39 -4 -39 14 0 12 4 23 9 26 5 4 37 53 70 110 34 58 61 107
61 111 0 4 15 30 33 58 19 29 40 68 47 87 8 19 21 46 29 60 9 14 22 34 29 45
6 11 16 29 21 40 5 11 30 51 55 88 25 37 46 72 46 78 0 6 15 28 33 49 17 21
41 56 52 77 10 21 31 56 46 78 14 22 24 46 22 53 -3 6 1 12 9 12z m1486 -95
c15 -3 31 -11 37 -16 6 -6 -3 -20 -24 -39 -18 -17 -34 -30 -37 -30 -2 0 -4 21
-4 46 0 45 0 46 28 39z m-8280 -99 c20 -4 70 -18 111 -32 41 -13 80 -29 86
-34 6 -5 20 -11 31 -13 10 -2 39 -10 64 -19 25 -9 88 -30 141 -47 53 -17 102
-31 109 -31 6 0 26 -6 43 -14 18 -7 59 -24 92 -36 33 -12 74 -29 92 -36 17 -8
37 -14 45 -14 8 0 18 -4 23 -9 6 -5 44 -20 85 -34 41 -13 116 -37 165 -51 50
-15 101 -31 113 -37 24 -9 24 -10 16 -117 -4 -59 -8 -143 -9 -187 -1 -44 -2
-176 -3 -292 -2 -166 -5 -213 -15 -213 -7 0 -29 15 -48 33 -19 17 -72 65 -117
106 -45 41 -87 78 -93 82 -6 3 -104 96 -217 205 -114 109 -263 255 -332 324
-69 69 -152 157 -185 195 -33 38 -89 100 -125 139 -36 38 -75 79 -87 92 -13
13 -23 28 -23 35 0 8 12 9 38 5z m8100 -157 c6 1 12 -6 12 -14 0 -8 -126 -139
-280 -292 -154 -153 -333 -329 -397 -390 -64 -62 -117 -113 -118 -113 -1 0
-10 26 -20 58 -10 31 -37 98 -60 147 -23 50 -52 111 -64 138 -11 26 -21 56
-21 67 0 14 11 22 43 30 23 6 64 20 91 30 27 11 60 20 75 20 14 1 37 7 51 15
14 8 33 14 42 15 10 0 41 11 70 24 29 14 107 43 173 65 67 22 142 50 167 61
26 11 50 25 53 30 3 6 15 10 26 10 10 0 19 4 19 9 0 5 15 16 34 25 19 9 36 20
38 24 2 4 14 15 28 24 14 9 31 17 38 17z m-6702 -329 c7 0 37 -11 66 -24 29
-13 87 -39 128 -58 41 -19 98 -43 125 -52 28 -10 86 -31 130 -46 44 -15 137
-44 206 -64 69 -20 139 -39 154 -42 15 -3 37 -10 47 -15 17 -9 19 -17 13 -47
-4 -21 -12 -43 -17 -50 -6 -7 -8 -15 -5 -18 3 -3 -11 -49 -30 -102 -19 -53
-49 -133 -65 -177 -16 -44 -36 -102 -45 -130 -8 -27 -21 -61 -28 -75 -7 -14
-18 -41 -25 -60 -6 -19 -16 -55 -22 -80 -5 -25 -20 -67 -33 -95 -12 -27 -26
-66 -29 -86 -4 -21 -15 -48 -24 -60 -10 -13 -28 -45 -40 -71 -12 -27 -25 -48
-30 -48 -4 0 -121 112 -260 248 l-253 249 6 249 c3 137 8 340 11 452 5 161 9
202 20 202z m1074 -10 c4 0 14 -8 23 -18 9 -10 23 -34 32 -55 8 -20 12 -37 8
-37 -5 0 -1 -6 8 -13 9 -7 28 -43 43 -82 16 -38 33 -77 40 -85 6 -8 19 -32 29
-53 l17 -37 -28 6 c-15 3 -49 15 -77 26 -27 11 -77 33 -109 49 -33 16 -65 29
-72 29 -10 0 -12 9 -7 33 3 17 14 48 23 67 10 19 23 60 31 90 7 30 17 61 22
68 5 6 13 12 17 12z m4606 -50 c6 0 25 -33 42 -72 17 -40 47 -111 67 -158 20
-47 43 -103 50 -125 7 -22 21 -55 31 -74 17 -34 17 -35 -7 -53 -13 -10 -28
-23 -34 -28 -5 -6 -16 -16 -24 -23 -8 -6 -46 -43 -86 -82 -40 -38 -93 -85
-119 -104 -25 -18 -46 -40 -46 -47 0 -8 -4 -14 -9 -14 -5 0 -33 -21 -62 -47
-29 -27 -64 -58 -78 -71 -14 -13 -50 -46 -78 -74 -29 -27 -53 -54 -53 -58 0
-5 -16 -25 -35 -45 -20 -19 -40 -35 -45 -35 -5 0 -11 -8 -14 -17 -3 -10 -19
-27 -36 -38 -16 -11 -30 -24 -30 -30 0 -5 -19 -28 -41 -50 -22 -22 -47 -52
-54 -66 -8 -14 -32 -42 -54 -62 -23 -20 -41 -40 -41 -45 0 -4 -10 -17 -22 -29
-13 -11 -43 -41 -68 -65 -25 -25 -58 -62 -75 -84 -16 -21 -38 -45 -47 -53 -10
-9 -18 -19 -18 -23 0 -4 -10 -18 -22 -30 -13 -13 -43 -47 -67 -76 -24 -29 -50
-52 -57 -52 -6 0 -65 25 -130 55 -66 31 -137 65 -159 77 -22 11 -79 40 -127
65 -49 24 -88 50 -88 57 0 6 19 48 41 91 23 44 47 87 54 95 7 8 38 67 69 130
31 63 60 122 65 130 5 8 16 31 25 50 9 19 28 55 41 79 14 25 31 52 39 60 7 9
21 32 30 51 10 19 27 51 39 71 12 19 40 64 62 98 22 35 66 100 98 145 31 44
70 107 85 138 23 48 34 60 72 76 25 11 62 23 82 26 21 4 41 12 45 19 5 7 46
25 93 41 47 15 101 36 120 46 19 9 46 22 60 27 14 5 77 35 140 66 63 32 121
57 128 57 7 0 20 4 30 8 9 5 27 14 39 20 13 7 34 12 47 12 14 0 28 5 31 10 3
6 18 10 33 10 15 0 34 5 42 10 8 5 20 10 26 10z m995 -230 c4 0 11 -6 17 -13
8 -9 8 -39 2 -98 -4 -46 -11 -95 -14 -109 -3 -14 -8 -107 -11 -207 -3 -101
-10 -204 -15 -229 -6 -26 -13 -101 -16 -168 -2 -67 -10 -175 -16 -241 -6 -66
-12 -248 -14 -405 -1 -157 -6 -333 -10 -392 -4 -60 -10 -108 -14 -108 -4 0
-14 19 -22 42 -9 24 -23 68 -32 98 -8 30 -25 87 -37 125 -12 39 -30 95 -41
125 -11 30 -21 62 -22 70 -1 8 -5 22 -9 30 -3 8 -13 40 -22 70 -9 30 -20 71
-26 90 -6 19 -14 44 -19 55 -4 11 -14 40 -21 65 -7 25 -16 50 -20 55 -4 6 -10
25 -14 44 -4 19 -21 66 -37 105 -16 39 -40 94 -52 121 -13 28 -37 82 -54 120
-16 39 -39 95 -51 125 l-21 54 151 148 c83 81 158 148 165 148 8 0 14 5 14 11
0 6 57 69 128 140 70 71 130 129 133 129z m-5721 -50 c6 0 73 -25 148 -56 75
-31 154 -65 174 -75 25 -13 43 -32 54 -57 9 -20 29 -75 46 -122 17 -46 39 -95
49 -109 10 -13 19 -27 19 -32 0 -4 14 -39 31 -76 17 -37 35 -75 39 -83 5 -8
23 -44 40 -79 17 -35 33 -76 37 -90 3 -14 18 -51 34 -81 15 -30 43 -89 62
-130 19 -41 46 -100 60 -130 14 -30 33 -73 42 -95 10 -22 28 -67 41 -99 22
-56 23 -61 7 -78 -9 -10 -23 -18 -32 -18 -9 0 -27 -9 -41 -20 -14 -11 -30 -20
-37 -20 -7 0 -45 -15 -85 -34 -40 -18 -84 -39 -98 -45 -14 -6 -52 -27 -85 -46
-33 -19 -80 -45 -105 -58 -25 -13 -56 -31 -70 -39 -14 -7 -41 -24 -60 -36 -19
-12 -42 -22 -51 -22 -8 0 -30 16 -49 35 -19 19 -36 35 -40 35 -3 0 -36 28 -74
63 -38 34 -160 152 -272 262 -142 139 -204 207 -204 222 0 12 4 25 10 28 5 3
19 27 30 53 11 25 24 49 28 52 4 3 27 50 50 105 23 55 42 108 42 117 0 10 11
41 24 70 13 29 29 75 35 101 7 27 18 59 26 70 7 12 21 54 30 92 9 39 33 117
54 175 21 58 46 132 56 165 10 33 19 66 21 73 2 6 8 12 14 12z m3658 -151 c1
1 2 -5 2 -13 0 -7 -16 -33 -35 -57 -19 -24 -35 -47 -35 -51 0 -4 -15 -28 -32
-54 -18 -26 -50 -71 -70 -101 -21 -30 -38 -61 -38 -68 0 -8 -6 -20 -13 -27 -7
-7 -39 -56 -71 -108 -32 -52 -81 -138 -107 -191 -27 -53 -49 -101 -49 -108 0
-6 -4 -11 -10 -11 -5 0 -10 -6 -10 -14 0 -8 -16 -42 -35 -76 -19 -34 -35 -67
-35 -72 0 -6 -13 -32 -28 -57 -15 -25 -34 -61 -41 -78 l-13 -33 -86 46 c-48
25 -92 49 -97 54 -6 5 -42 25 -81 44 -38 20 -72 36 -77 36 -4 0 -25 11 -46 25
-22 13 -51 27 -66 31 -15 4 -55 20 -88 36 -34 17 -83 39 -110 49 -26 11 -54
19 -62 19 -7 0 -63 24 -124 53 -61 28 -111 54 -111 57 0 3 17 15 38 27 20 12
71 38 112 58 41 20 89 44 105 52 17 9 50 26 75 39 25 12 81 38 125 58 44 19
93 38 109 42 16 4 41 13 55 20 14 8 38 14 53 14 15 0 30 5 33 10 3 6 19 17 35
25 16 8 62 22 102 30 39 9 79 22 88 30 8 7 29 17 45 21 17 4 35 10 40 14 6 4
36 15 67 24 32 10 60 22 64 27 3 5 14 9 25 9 11 0 27 6 34 14 8 8 38 19 67 26
29 7 55 16 58 20 3 4 39 24 80 45 41 21 93 43 115 50 22 7 41 13 43 14z
m-3185 -48 c12 -5 50 -23 83 -40 34 -17 88 -40 120 -52 33 -12 64 -26 70 -30
6 -5 87 -36 179 -69 92 -33 184 -64 204 -70 20 -6 68 -20 106 -30 39 -11 112
-37 164 -60 52 -22 98 -40 101 -40 4 0 43 -20 88 -44 45 -24 96 -49 113 -55
18 -6 46 -22 63 -34 17 -13 46 -29 64 -35 18 -6 45 -20 59 -32 14 -11 32 -20
41 -20 11 0 12 -3 2 -15 -6 -8 -55 -38 -108 -67 -54 -29 -106 -58 -117 -64
-11 -7 -49 -28 -85 -46 -36 -19 -103 -55 -150 -80 -47 -25 -114 -64 -150 -85
-36 -22 -127 -70 -203 -107 -75 -38 -144 -65 -152 -62 -8 3 -15 11 -15 19 0 7
-13 40 -29 73 -15 32 -31 70 -35 84 -4 14 -25 61 -46 105 -21 44 -54 115 -74
157 -20 43 -36 80 -36 82 0 3 -27 62 -61 133 -33 70 -83 173 -110 228 -27 55
-49 106 -49 114 0 8 -13 43 -30 78 -16 34 -30 65 -30 68 0 2 10 1 23 -4z
m4604 -382 c2 1 13 -20 26 -46 14 -27 40 -86 60 -133 20 -47 57 -139 82 -205
26 -66 57 -147 70 -180 13 -33 33 -94 45 -135 12 -41 30 -97 40 -125 10 -27
24 -70 30 -95 7 -25 16 -50 21 -56 5 -6 18 -51 29 -100 12 -49 35 -132 51
-184 17 -52 34 -113 39 -135 5 -22 18 -74 29 -115 11 -41 21 -95 22 -120 1
-25 2 -89 1 -142 l-2 -98 -30 0 c-22 0 -30 -5 -30 -18 0 -9 9 -23 20 -30 12
-7 18 -17 15 -23 -4 -5 -16 -7 -28 -4 -12 4 -34 11 -49 16 -14 6 -28 19 -31
30 -5 18 -11 19 -54 14 -46 -6 -52 -4 -138 51 -49 31 -124 78 -165 103 -41 26
-101 59 -133 74 -32 15 -60 27 -62 27 -3 0 -52 23 -110 51 -58 28 -111 56
-118 62 -7 7 -42 26 -77 43 -36 17 -101 46 -145 64 -44 17 -110 42 -147 55
-36 13 -75 28 -85 34 -10 6 -46 23 -80 40 -34 16 -93 48 -132 70 -38 23 -73
46 -76 51 -3 5 21 35 53 67 33 32 61 63 63 70 2 6 24 35 49 64 25 29 66 76 93
104 26 27 53 57 60 65 8 8 43 51 80 95 36 44 101 114 144 155 43 41 136 129
207 195 70 66 159 149 196 185 37 36 90 86 117 112 26 25 49 47 50 47z m-3070
-280 c7 1 63 -23 125 -53 62 -29 137 -61 165 -70 29 -10 55 -22 58 -27 4 -5
13 -9 21 -9 8 0 56 -20 106 -45 51 -25 98 -45 105 -45 7 0 57 -21 110 -47 54
-25 110 -56 125 -69 15 -12 61 -38 103 -58 41 -20 75 -39 75 -44 0 -4 -13 -32
-28 -62 -15 -30 -34 -71 -41 -90 -7 -19 -31 -78 -53 -130 -23 -52 -47 -109
-54 -127 -8 -17 -27 -61 -43 -98 -15 -37 -34 -74 -42 -84 -8 -9 -16 -25 -17
-36 -2 -11 -10 -31 -18 -45 -8 -14 -19 -32 -24 -40 -5 -8 -27 -51 -49 -95 -21
-44 -47 -96 -56 -115 -10 -19 -42 -78 -72 -130 -30 -52 -59 -102 -64 -110 -5
-8 -16 -29 -24 -46 -8 -18 -25 -34 -38 -38 -13 -3 -216 -6 -450 -7 -329 -1
-430 1 -442 11 -8 7 -15 16 -15 21 0 5 -11 33 -25 63 -14 30 -25 59 -25 64 0
5 -17 40 -38 78 -21 38 -46 92 -56 119 -10 28 -25 60 -33 73 -8 13 -30 66 -48
117 -19 52 -40 105 -47 117 -7 13 -18 30 -24 38 -6 8 -14 31 -17 50 -3 19 -17
62 -31 95 -15 33 -43 92 -63 130 -19 39 -43 96 -53 127 -17 54 -17 58 -1 73
10 8 24 15 33 15 8 0 35 16 59 35 24 19 50 35 58 35 7 0 48 19 90 42 42 23 78
44 81 47 3 3 21 14 40 24 19 10 48 25 65 35 16 9 53 31 81 48 28 17 61 35 75
39 13 4 30 13 38 19 7 6 37 23 65 38 28 15 97 50 154 78 56 28 102 54 102 59
0 4 10 13 23 19 12 6 27 11 34 11z m-2969 -69 c15 -12 102 -94 195 -182 92
-89 167 -169 167 -177 0 -9 -6 -25 -13 -36 -7 -11 -19 -40 -26 -65 -7 -25 -18
-51 -24 -59 -6 -7 -17 -23 -23 -35 -7 -11 -37 -71 -68 -132 -31 -61 -56 -116
-56 -122 0 -7 -4 -12 -10 -12 -5 0 -10 -5 -10 -12 0 -6 -14 -41 -31 -77 -17
-36 -42 -79 -55 -94 -13 -16 -24 -33 -24 -39 0 -6 -16 -44 -35 -84 -19 -40
-35 -77 -35 -83 0 -5 -9 -25 -19 -43 -11 -18 -27 -59 -36 -90 -9 -32 -21 -60
-26 -63 -5 -4 -9 -16 -9 -29 0 -12 -6 -31 -14 -42 -8 -10 -18 -16 -22 -12 -4
5 -6 65 -5 135 1 69 4 129 6 132 1 3 11 49 20 101 9 52 18 118 21 145 2 28 6
86 8 130 3 44 10 127 16 185 6 58 17 165 26 239 8 74 16 137 18 140 2 3 7 46
11 96 4 49 11 115 16 145 5 30 9 56 9 58 0 2 12 -6 28 -18z m433 -420 c3 0 70
-69 150 -152 80 -84 192 -198 250 -253 57 -55 105 -103 107 -106 2 -4 -9 -10
-23 -13 -14 -4 -50 -22 -80 -41 -30 -19 -56 -35 -59 -35 -2 0 -43 -18 -90 -40
-47 -22 -92 -40 -100 -40 -8 0 -21 -6 -28 -13 -7 -7 -114 -63 -238 -124 -124
-61 -236 -114 -250 -118 -14 -4 -37 -16 -52 -26 -14 -11 -31 -19 -37 -19 -6 0
-11 2 -11 5 0 3 4 13 9 23 5 9 18 49 30 88 11 39 21 78 21 86 0 9 3 18 8 20 4
2 24 37 45 78 20 41 37 80 37 86 0 6 9 19 20 29 11 10 20 26 20 35 0 9 13 37
29 62 16 25 32 56 36 69 4 13 15 35 25 49 10 14 31 57 48 95 16 39 47 108 67
155 21 47 43 88 49 92 6 4 14 8 17 8z m3591 -20 c4 0 26 -11 48 -25 22 -14 43
-25 47 -25 5 0 28 -14 53 -30 25 -16 50 -30 57 -30 6 0 40 -13 75 -30 34 -16
79 -38 98 -49 19 -11 50 -26 68 -33 17 -7 32 -19 32 -26 0 -7 -43 -61 -96
-120 -52 -59 -125 -138 -160 -177 -36 -38 -96 -104 -134 -145 -38 -41 -97
-109 -131 -150 -34 -41 -66 -76 -70 -78 -4 -2 -32 -33 -62 -70 -30 -37 -86
-100 -124 -140 l-69 -72 -113 0 c-62 0 -111 3 -109 8 2 4 20 41 41 82 21 41
51 98 67 125 16 28 52 97 80 155 28 58 69 141 92 185 23 44 47 87 54 96 8 8
14 21 14 27 0 6 8 28 17 49 10 21 22 45 28 53 6 8 19 40 29 70 10 30 29 79 42
108 13 29 24 59 24 67 0 8 4 15 8 15 5 0 15 19 22 43 8 23 25 59 38 80 14 20
29 37 34 37z m-2125 -109 c7 -14 24 -52 38 -83 14 -31 25 -61 25 -67 0 -6 16
-31 35 -56 19 -25 40 -65 46 -88 6 -23 20 -59 31 -80 10 -21 28 -68 39 -105
11 -37 33 -94 49 -127 16 -33 37 -82 48 -110 11 -27 23 -57 26 -65 3 -8 10
-22 15 -30 4 -8 15 -29 24 -46 9 -18 33 -74 52 -125 28 -71 33 -94 23 -100 -7
-5 -22 -6 -33 -4 -11 2 -47 6 -80 9 -33 3 -106 6 -162 7 l-102 1 -73 72 c-40
39 -102 103 -137 141 -36 39 -170 176 -297 307 -211 214 -231 237 -216 250 9
8 32 20 50 28 17 7 32 16 32 21 0 5 6 9 14 9 7 0 19 7 26 15 7 9 41 30 76 46
35 17 68 37 74 44 6 8 28 19 48 26 20 6 89 37 152 67 63 30 126 58 140 62 21
6 27 3 37 -19z m2971 -331 c10 0 27 -7 39 -15 11 -8 88 -48 171 -90 82 -41
153 -75 156 -75 4 0 33 -12 64 -26 31 -14 66 -29 77 -34 11 -4 50 -19 88 -34
37 -14 72 -26 78 -26 6 0 28 -13 48 -29 21 -17 50 -35 67 -42 16 -7 37 -20 47
-28 10 -8 50 -27 90 -43 40 -15 80 -28 90 -28 9 0 17 -4 17 -8 0 -5 32 -25 72
-46 39 -20 83 -46 97 -57 14 -11 54 -40 87 -64 34 -25 67 -45 73 -45 6 0 11
-4 11 -9 0 -5 10 -12 23 -16 l22 -7 -25 -8 c-14 -4 -148 -6 -299 -4 -151 3
-279 8 -284 11 -5 3 -179 5 -386 4 -207 0 -396 -3 -421 -5 -25 -2 -139 -6
-255 -10 -115 -4 -247 -9 -293 -10 -45 -2 -84 0 -87 4 -3 4 8 25 24 47 16 22
52 64 80 92 28 29 51 55 51 58 0 3 19 27 43 52 23 26 81 90 128 142 48 51 109
121 136 154 28 33 67 78 87 100 21 22 44 52 52 68 8 15 22 27 32 27z m-3881
-111 c15 1 60 -34 135 -102 62 -57 134 -124 159 -148 25 -24 81 -78 125 -119
43 -41 112 -110 152 -153 41 -43 72 -81 69 -83 -2 -2 -332 -4 -733 -4 -413 0
-766 5 -814 10 -47 6 -98 13 -115 16 -16 3 -31 7 -34 9 -2 2 9 18 25 35 16 16
34 30 40 30 7 0 14 6 17 14 3 8 31 25 61 39 31 15 59 26 63 26 3 -1 9 3 12 8
3 4 34 21 69 38 35 16 68 35 75 43 6 8 47 32 92 53 44 22 107 54 140 72 34 18
104 51 155 75 52 23 102 47 110 52 8 6 40 21 70 35 30 14 66 32 80 39 14 8 35
15 47 15z m1480 -1056 c26 -2 54 -6 61 -8 6 -2 12 -12 12 -22 0 -10 14 -45 30
-77 17 -32 30 -67 30 -77 0 -11 -4 -19 -8 -19 -5 0 -40 35 -78 77 -38 42 -77
85 -88 94 -10 10 -16 22 -12 27 3 5 27 7 53 5z m419 -3 l276 0 -6 -27 c-4 -16
-15 -39 -25 -53 -10 -14 -29 -51 -44 -82 -14 -32 -30 -58 -35 -58 -5 0 -42
-35 -83 -77 -41 -42 -88 -92 -106 -110 -17 -18 -38 -33 -47 -33 -9 0 -16 6
-16 13 0 6 -10 32 -23 57 -12 25 -37 66 -54 92 -18 26 -33 52 -33 58 0 7 -9
29 -19 49 -11 20 -29 57 -40 82 -12 25 -21 55 -21 67 l0 22 276 0z m359 0 c8
0 11 -7 8 -20 -3 -11 -9 -20 -14 -20 -4 0 -11 5 -14 10 -3 6 -3 15 0 20 3 6
12 10 20 10z"/>
<g>
<path d="M6796 6190 c-12 -1 -38 -7 -60 -15 -21 -7 -42 -17 -46 -22 -4 -4 -11
-33 -14 -64 -6 -50 -5 -58 18 -82 20 -21 34 -27 69 -27 30 0 53 7 71 21 14 11
30 35 34 52 5 18 5 45 1 61 -5 16 -18 40 -31 53 -12 12 -31 23 -42 23z"/>
</g>
<g>
<path d="M4884 6120 c-18 0 -35 -4 -38 -9 -3 -5 -21 -16 -39 -25 -32 -14 -35
-20 -40 -73 -5 -50 -3 -61 15 -80 12 -13 29 -23 39 -23 10 0 21 -4 24 -10 3
-5 21 -10 38 -10 18 0 42 8 53 18 12 9 27 34 33 54 7 20 9 53 6 72 -4 19 -18
47 -32 61 -17 17 -37 25 -59 25z"/>
</g>
<g>
<path d="M5938 5890 c-4 0 -14 -13 -23 -30 -8 -16 -15 -38 -15 -48 0 -11 7
-37 15 -58 9 -22 20 -46 25 -55 5 -9 12 -34 15 -55 4 -22 21 -77 37 -124 16
-47 33 -103 38 -125 4 -22 12 -54 18 -71 5 -17 17 -44 25 -60 l15 -29 -81 -12
c-45 -7 -100 -12 -122 -13 -22 0 -51 -7 -63 -16 -14 -9 -22 -26 -22 -43 0 -17
11 -37 28 -55 l29 -27 94 12 c52 6 102 16 113 21 10 5 38 7 61 4 32 -5 47 -3
59 9 9 9 16 31 16 49 0 19 -10 58 -21 87 -12 30 -32 81 -45 114 -13 33 -30 89
-39 125 -9 36 -25 93 -36 128 -10 34 -19 69 -19 77 0 8 -14 49 -31 92 -16 43
-38 84 -46 91 -9 6 -20 12 -25 12z"/>
</g>
<g>
<path d="M5345 4744 c-97 4 -102 3 -147 -25 -36 -23 -45 -34 -41 -50 3 -11 16
-26 29 -31 13 -6 31 -22 39 -35 15 -22 16 -23 42 -6 22 14 48 17 166 15 76 -1
144 -5 151 -9 6 -4 119 -11 251 -16 132 -4 308 -10 390 -12 83 -2 201 -5 262
-6 107 -2 114 -1 137 22 13 13 34 31 46 40 l23 15 -22 21 c-19 17 -41 22 -129
28 -59 4 -129 6 -157 5 -27 -1 -138 1 -245 4 -107 4 -256 8 -330 11 -74 2
-180 7 -234 10 -55 3 -107 7 -115 10 -9 2 -61 6 -116 9z"/>
</g>
<g>
<path d="M2549 1850 c-5 0 -7 -4 -4 -10 3 -5 8 -10 11 -10 2 0 4 5 4 10 0 6
-5 10 -11 10z"/>
</g>
</g>
</g>
</svg>
