<?xml version="1.0" standalone="no"?>
<!DOCTYPE svg PUBLIC "-//W3C//DTD SVG 20010904//EN"
 "http://www.w3.org/TR/2001/REC-SVG-20010904/DTD/svg10.dtd">
<svg version="1.0" xmlns="http://www.w3.org/2000/svg"
 width="900.000000pt" height="1200.000000pt" viewBox="0 0 900.000000 1200.000000"
 preserveAspectRatio="xMidYMid meet">
<metadata>
Created by potrace 1.16, written by Peter Selinger 2001-2019
</metadata>
<g transform="translate(0.000000,1200.000000) scale(0.100000,-0.100000)"
fill="#000000" stroke="none">
<g>
<path d="M5087 11560 c-4 0 -13 -10 -21 -22 -9 -15 -24 -113 -40 -268 -14
-135 -26 -250 -26 -256 0 -6 -36 -16 -82 -23 -46 -6 -121 -20 -168 -30 -47
-11 -139 -32 -205 -47 -66 -15 -173 -44 -238 -65 -65 -22 -123 -39 -129 -39
-7 0 -9 15 -4 48 4 26 13 103 21 172 8 69 15 170 16 225 1 55 1 106 0 113 0 6
-8 12 -16 12 -9 0 -19 -10 -24 -22 -4 -13 -11 -70 -14 -128 -3 -58 -13 -170
-22 -250 -8 -80 -18 -159 -20 -176 -5 -29 -12 -34 -82 -59 -42 -15 -142 -60
-222 -101 -80 -40 -170 -87 -198 -104 l-53 -30 0 72 c-1 40 -3 105 -6 143 -3
39 -9 97 -14 130 -6 33 -10 81 -10 108 0 26 -4 47 -10 47 -5 0 -14 -9 -21 -21
-7 -13 -9 -55 -6 -113 2 -50 10 -151 17 -224 9 -91 9 -140 3 -155 -6 -13 -26
-31 -45 -41 l-35 -19 -84 68 c-46 38 -120 100 -164 139 -44 39 -152 139 -240
221 -89 83 -207 183 -264 223 -56 40 -106 72 -111 72 -5 0 -17 -16 -25 -36 -8
-20 -15 -49 -15 -63 0 -17 11 -37 28 -53 15 -14 65 -55 112 -90 47 -36 106
-85 131 -109 25 -24 104 -98 175 -164 71 -66 173 -158 227 -204 53 -46 97 -87
97 -90 0 -3 -25 -24 -56 -46 -30 -22 -88 -66 -129 -97 -41 -32 -104 -86 -141
-120 -36 -35 -97 -99 -136 -143 -38 -44 -80 -91 -92 -105 -12 -14 -37 -46 -55
-72 l-32 -48 -42 30 c-23 17 -98 70 -167 119 -69 48 -167 117 -217 154 -51 37
-121 83 -156 102 -35 19 -69 35 -75 35 -7 0 -21 -15 -32 -32 -11 -18 -20 -44
-20 -58 0 -19 11 -32 43 -52 23 -15 62 -42 87 -60 25 -18 104 -76 176 -130 72
-54 135 -98 140 -98 6 0 19 -8 30 -18 10 -9 30 -24 44 -33 14 -9 44 -33 67
-54 l41 -37 -53 -111 c-30 -62 -67 -150 -83 -197 -16 -47 -37 -128 -46 -180
-10 -63 -16 -166 -17 -307 -1 -117 -3 -213 -6 -213 -3 0 -44 25 -91 57 -48 31
-163 113 -257 183 -93 70 -196 144 -228 165 -57 38 -57 38 -78 19 -12 -10 -27
-32 -34 -48 -7 -16 -10 -37 -8 -47 3 -10 27 -34 53 -53 27 -19 57 -42 67 -50
10 -8 47 -37 82 -63 35 -26 107 -80 160 -120 53 -39 152 -110 222 -156 69 -47
130 -91 136 -99 6 -7 14 -29 18 -48 4 -19 23 -81 41 -137 19 -56 34 -111 34
-122 0 -12 -31 -45 -89 -93 -48 -40 -105 -86 -126 -103 -20 -16 -47 -39 -60
-50 -12 -11 -44 -39 -71 -63 -27 -23 -78 -66 -114 -95 -36 -29 -92 -74 -125
-99 -34 -25 -67 -54 -75 -64 -8 -9 -80 -71 -160 -137 -80 -66 -164 -140 -188
-166 -24 -25 -56 -66 -72 -90 -17 -25 -30 -51 -30 -58 0 -8 6 -13 14 -11 8 2
66 53 129 113 62 61 167 155 232 210 66 55 142 121 170 146 27 26 115 102 194
170 79 68 201 170 270 226 l125 102 22 -87 c12 -48 31 -115 42 -148 11 -34 41
-101 67 -150 25 -49 55 -102 65 -119 l18 -30 -61 -54 c-34 -29 -107 -95 -162
-145 -55 -51 -165 -151 -244 -222 -79 -71 -167 -149 -195 -173 -28 -24 -77
-67 -110 -95 -32 -28 -64 -56 -70 -61 -6 -6 -45 -40 -86 -75 -42 -36 -105 -90
-140 -119 -36 -30 -90 -78 -120 -107 -30 -29 -70 -64 -88 -79 -18 -15 -46 -47
-62 -70 -17 -24 -30 -55 -30 -69 0 -14 4 -27 9 -30 5 -3 46 31 92 77 46 45
129 123 184 174 55 50 117 105 137 121 21 16 70 58 110 93 39 35 82 73 93 85
12 11 62 54 111 96 49 42 116 102 149 133 33 31 80 75 105 97 25 22 61 55 80
72 19 18 89 82 155 142 66 61 133 122 149 137 16 15 32 24 36 22 4 -3 45 -51
89 -107 45 -57 128 -159 184 -228 56 -68 130 -153 164 -188 l62 -64 -47 -40
c-26 -22 -81 -71 -122 -108 -41 -37 -109 -96 -150 -131 -41 -35 -118 -106
-170 -157 -84 -81 -98 -92 -123 -87 -16 3 -42 -2 -58 -11 -16 -8 -34 -27 -40
-41 -5 -14 -7 -34 -3 -45 4 -15 -17 -43 -94 -121 -54 -56 -130 -136 -168 -177
-38 -41 -94 -99 -124 -130 -30 -30 -78 -73 -105 -95 -27 -22 -72 -61 -98 -87
-27 -26 -46 -52 -43 -57 5 -7 16 -6 34 1 15 7 45 26 67 44 22 17 101 94 175
170 74 76 193 198 265 271 71 73 137 133 146 133 13 0 21 -17 33 -67 8 -38 20
-97 26 -133 6 -36 20 -108 30 -160 11 -52 26 -151 34 -220 8 -69 17 -165 21
-215 3 -49 15 -144 25 -210 11 -66 24 -165 29 -220 6 -55 15 -134 20 -175 6
-41 16 -151 22 -245 7 -93 14 -246 16 -338 3 -93 0 -180 -5 -195 -5 -15 -7
-42 -4 -60 2 -17 8 -32 12 -32 4 0 102 94 216 208 115 114 266 267 337 339 70
72 127 128 127 124 0 -4 -7 -33 -15 -65 -9 -34 -13 -73 -9 -93 4 -19 13 -37
21 -40 8 -3 18 -2 23 3 5 5 19 72 31 149 l23 140 173 178 c95 98 207 221 249
273 42 52 79 94 84 94 5 0 12 -10 16 -22 4 -13 17 -45 30 -73 13 -27 42 -113
64 -190 23 -77 52 -169 65 -205 12 -36 66 -216 118 -400 53 -184 111 -396 131
-470 19 -74 46 -171 60 -215 13 -44 40 -125 61 -180 20 -55 52 -147 72 -205
19 -58 46 -127 58 -155 13 -27 32 -79 43 -115 11 -36 37 -108 57 -160 20 -52
49 -135 65 -185 15 -49 36 -117 45 -150 10 -33 37 -139 62 -235 25 -96 51
-202 59 -235 7 -33 20 -87 29 -120 9 -33 36 -139 61 -235 25 -96 48 -186 51
-200 2 -14 18 -77 34 -140 17 -63 42 -158 56 -210 14 -52 29 -124 35 -160 5
-36 13 -105 17 -155 5 -49 8 -91 7 -91 0 -1 -37 -14 -81 -29 -44 -15 -119 -46
-167 -68 -63 -29 -88 -45 -88 -58 0 -10 4 -20 10 -24 5 -3 40 10 77 28 37 19
100 46 138 60 39 14 89 31 113 37 l42 11 -5 72 c-3 40 -10 110 -16 157 -6 47
-21 128 -34 180 -13 52 -76 302 -140 555 -64 253 -143 564 -176 690 -33 127
-87 309 -120 405 -33 96 -78 224 -99 285 -21 60 -36 113 -34 117 3 4 20 8 38
8 18 0 56 4 83 9 27 6 173 15 324 21 151 6 391 19 534 30 143 11 312 25 375
31 63 5 178 15 255 20 77 6 186 8 243 5 56 -4 109 -9 117 -12 11 -5 14 -16 11
-38 -3 -17 -10 -67 -16 -111 -7 -44 -29 -168 -50 -275 -21 -107 -45 -242 -55
-300 -9 -58 -20 -125 -25 -150 -4 -25 -13 -79 -20 -120 -6 -41 -22 -136 -36
-210 -13 -74 -31 -166 -39 -205 -8 -38 -20 -106 -26 -150 -7 -44 -38 -195 -70
-335 -31 -140 -62 -282 -69 -315 -6 -33 -18 -89 -25 -125 -8 -36 -20 -109 -26
-163 l-13 -99 -75 -37 c-42 -21 -103 -48 -136 -60 -33 -13 -85 -33 -115 -44
-30 -12 -60 -25 -66 -29 -6 -4 -32 -11 -57 -14 -41 -6 -45 -9 -36 -25 6 -11
21 -19 36 -19 14 0 89 23 166 52 77 28 181 72 231 97 l91 46 12 85 c7 47 22
137 33 200 12 63 39 198 61 300 22 102 48 223 59 270 10 47 30 153 44 235 14
83 35 202 46 265 11 63 45 261 76 440 31 179 60 345 64 370 5 25 16 76 24 115
8 38 23 128 32 200 13 101 21 135 37 152 18 20 19 26 7 48 -11 20 -11 38 -1
97 7 40 19 100 26 133 7 33 21 98 30 145 10 47 33 153 52 235 19 83 49 202 65
265 17 63 39 169 48 235 10 66 18 158 19 204 1 47 4 87 6 90 2 3 6 78 10 166
4 88 10 162 13 165 2 3 2 -130 -2 -295 -4 -165 -9 -318 -11 -340 -3 -22 -7
-217 -9 -434 -4 -264 -11 -441 -21 -535 -9 -78 -26 -206 -39 -286 -13 -80 -23
-174 -22 -210 1 -51 4 -65 17 -68 12 -2 18 8 23 44 3 26 6 68 6 94 0 25 9 96
19 156 11 60 24 159 30 219 6 61 13 171 16 245 3 74 8 284 10 465 2 182 9 425
15 540 6 116 8 260 4 320 -3 61 -10 129 -15 151 -5 23 -13 81 -18 129 -6 49
-14 92 -18 96 -5 4 -53 10 -108 13 -55 4 -145 11 -200 16 -55 5 -163 12 -240
15 -77 3 -231 8 -341 10 -111 3 -259 1 -330 -5 -71 -5 -166 -12 -211 -15 -64
-5 -83 -3 -83 7 0 7 -2 110 -5 228 -3 118 -10 276 -16 350 -5 74 -12 145 -14
158 -2 12 0 22 4 22 4 0 16 -9 26 -19 9 -11 44 -36 77 -55 33 -20 67 -36 76
-36 10 0 27 19 42 46 l24 46 -34 28 -35 28 30 7 c17 3 55 12 85 20 30 8 102
23 158 35 57 11 181 47 275 79 95 33 203 71 240 85 38 15 87 36 110 48 23 11
73 42 112 67 38 26 106 74 150 106 44 33 120 98 169 145 48 47 115 118 147
158 33 41 79 104 103 140 24 37 60 101 81 142 21 41 61 113 90 160 28 47 58
101 67 120 9 19 37 114 63 210 25 96 55 204 65 240 10 36 26 106 35 155 9 50
24 124 32 165 9 43 19 166 23 285 4 116 5 246 3 290 -2 44 -11 123 -19 175 -8
52 -22 124 -30 160 -9 36 -40 139 -69 230 -30 91 -76 215 -103 275 -27 61 -71
155 -97 210 -26 55 -70 134 -98 175 -28 41 -80 111 -116 154 -36 44 -117 131
-180 193 -63 63 -126 122 -140 131 -14 9 -44 30 -66 48 -22 17 -98 71 -170
119 -71 48 -155 100 -187 116 -31 16 -101 46 -155 67 -54 22 -120 46 -148 55
-27 8 -97 27 -155 42 -58 15 -109 32 -115 37 -6 6 6 23 33 48 23 22 42 44 42
50 0 5 -6 10 -12 10 -7 0 -40 -23 -73 -51 l-59 -51 -61 7 c-33 4 -109 11 -170
16 -60 4 -226 6 -368 4 l-259 -4 7 52 c4 29 13 90 21 137 8 47 18 147 21 223
3 75 3 137 0 137z m266 -591 c148 1 312 -4 365 -10 53 -6 103 -14 109 -18 8
-4 -32 -45 -110 -113 -67 -59 -131 -115 -142 -125 -11 -10 -60 -52 -110 -93
-49 -40 -146 -124 -215 -185 -69 -61 -162 -144 -207 -184 -80 -70 -83 -71 -83
-44 0 15 11 134 25 263 14 129 31 293 38 365 12 125 13 129 37 136 14 4 146 7
293 8z m-390 -20 c23 1 27 -3 27 -25 0 -14 -4 -67 -10 -117 -5 -51 -21 -207
-35 -347 -14 -140 -28 -273 -31 -296 -4 -36 -14 -48 -102 -125 -53 -46 -126
-111 -162 -144 -36 -33 -85 -78 -111 -100 -25 -22 -74 -65 -109 -95 -35 -30
-67 -55 -71 -55 -4 0 -59 51 -123 112 l-115 113 10 257 c5 142 14 339 19 438
8 142 13 182 25 191 9 7 62 26 118 44 56 18 113 36 127 41 14 4 54 16 90 25
36 9 146 31 245 49 99 18 192 34 208 34z m958 -19 c15 0 87 -16 160 -34 74
-19 166 -46 204 -59 39 -14 88 -33 110 -42 22 -9 70 -32 106 -50 36 -18 122
-71 190 -117 69 -47 158 -110 199 -140 41 -30 108 -86 148 -123 41 -38 116
-118 169 -179 52 -61 119 -147 148 -191 29 -44 68 -111 88 -150 19 -38 47 -98
61 -133 15 -34 40 -93 58 -130 17 -37 55 -141 85 -232 30 -91 61 -194 69 -230
9 -36 23 -108 32 -160 12 -72 15 -156 14 -350 -2 -237 -4 -267 -33 -425 -17
-93 -37 -195 -44 -225 -8 -30 -28 -108 -44 -172 -17 -65 -42 -159 -56 -209
-15 -51 -35 -109 -46 -131 -11 -21 -39 -69 -64 -107 -24 -38 -60 -103 -79
-146 -20 -42 -64 -118 -100 -168 -35 -51 -87 -118 -115 -150 -28 -32 -87 -93
-132 -135 -44 -42 -134 -115 -200 -162 -65 -47 -152 -102 -193 -123 -41 -21
-157 -67 -258 -103 -101 -36 -235 -78 -298 -94 -63 -16 -167 -38 -230 -50 -63
-11 -122 -23 -130 -25 -8 -3 -46 23 -85 56 -38 34 -84 73 -100 88 -17 14 -51
42 -75 61 -25 19 -54 43 -65 53 -11 10 -72 55 -135 100 -63 45 -185 129 -270
186 -85 58 -157 108 -160 111 -3 4 -19 14 -36 23 -17 9 -36 23 -43 31 -12 14
-7 16 40 16 30 0 126 6 214 15 88 8 257 21 375 30 118 8 292 20 385 25 94 6
222 14 286 19 64 5 126 14 138 20 12 7 20 18 18 24 -3 8 -26 11 -68 9 -35 -1
-106 -6 -156 -10 -51 -4 -93 -6 -93 -5 0 2 11 25 24 51 14 27 21 53 18 58 -4
6 -56 43 -117 84 -60 40 -123 79 -140 87 -16 7 -61 34 -100 58 -38 24 -86 53
-106 64 -19 11 -55 36 -80 57 -24 20 -62 48 -84 62 -22 14 -89 64 -150 111
-60 47 -117 93 -125 102 -8 9 -61 53 -117 98 -102 81 -103 82 -103 125 0 24 3
57 6 74 5 23 34 54 123 130 64 55 176 154 249 221 l133 121 52 -42 c28 -24 70
-60 92 -80 22 -20 49 -45 61 -55 12 -10 65 -58 119 -108 53 -49 163 -155 244
-235 81 -80 181 -175 222 -211 41 -37 92 -78 113 -93 21 -14 42 -26 46 -26 5
0 18 28 29 62 12 34 21 65 21 68 0 4 -35 34 -77 67 -43 34 -107 90 -143 124
-36 35 -130 126 -209 203 -80 76 -210 197 -290 268 -80 72 -153 137 -161 145
-13 12 -10 18 25 51 22 20 78 71 124 112 46 41 96 86 110 100 15 14 64 57 110
95 46 39 109 93 140 120 30 28 85 77 121 109 36 33 141 132 234 220 92 89 193
193 222 232 30 40 54 77 54 83 0 6 -5 11 -11 11 -6 0 -101 -91 -212 -202 -111
-110 -271 -262 -356 -337 -85 -75 -211 -185 -280 -244 -69 -60 -155 -137 -191
-172 -36 -34 -83 -78 -105 -98 l-39 -35 -44 37 c-24 20 -87 74 -141 121 -53
47 -131 114 -172 150 -41 35 -91 82 -112 103 l-38 39 6 101 c4 56 8 111 11
122 2 11 100 96 225 195 121 96 275 215 342 263 67 49 174 124 237 167 63 43
135 93 160 110 25 17 54 40 66 51 11 10 25 19 31 19 6 0 13 3 15 8 2 4 42 33
90 65 47 32 113 69 145 82 32 13 70 26 86 30 15 3 34 13 43 23 8 9 31 37 50
62 18 25 34 53 34 63 0 9 -5 17 -12 17 -6 0 -25 -11 -42 -24 -17 -13 -42 -26
-54 -31 -13 -4 -51 -20 -83 -36 -33 -17 -112 -67 -177 -113 -64 -45 -164 -116
-222 -156 -58 -41 -145 -102 -195 -136 -49 -35 -108 -77 -130 -93 -22 -17
-112 -85 -200 -151 -88 -67 -214 -166 -280 -220 -74 -61 -122 -94 -126 -87 -3
7 0 127 7 267 7 140 15 282 19 314 6 58 8 61 73 121 37 34 105 94 152 134 47
40 119 103 160 140 41 38 102 90 136 117 34 27 110 95 170 150 60 56 143 131
184 167 51 45 83 66 101 67z m-1821 -200 c3 0 2 -57 -2 -127 -4 -71 -11 -249
-16 -396 -5 -147 -12 -270 -15 -273 -3 -3 -70 50 -149 119 -80 68 -169 142
-199 163 -30 21 -78 58 -106 82 l-53 44 0 62 0 61 53 29 c28 16 95 51 147 77
52 27 149 74 215 104 66 30 122 55 125 55z m-592 -300 c1 0 2 -12 2 -27 0 -26
-1 -26 -17 -10 -16 16 -16 19 -3 27 8 5 16 10 18 10z m-166 -110 c5 0 42 -26
84 -57 l75 -58 -5 -155 c-3 -85 -13 -256 -21 -380 -8 -124 -20 -322 -26 -440
-7 -118 -13 -217 -15 -218 -1 -2 -17 9 -36 25 -18 17 -78 70 -133 119 -55 49
-163 150 -240 226 -77 75 -156 151 -176 170 -19 18 -64 59 -99 90 l-64 57 60
77 c32 43 102 123 154 178 52 55 118 122 146 147 28 26 94 78 145 116 52 38
105 77 119 86 13 9 28 17 32 17z m213 -160 c3 0 30 -19 59 -42 30 -24 78 -61
107 -83 29 -22 73 -58 98 -79 25 -21 75 -64 110 -95 35 -31 79 -71 98 -90 l34
-35 -6 -130 c-3 -72 -8 -159 -11 -192 -5 -61 -6 -62 -67 -112 -34 -28 -73 -61
-87 -74 -14 -13 -50 -43 -80 -68 -30 -25 -95 -80 -145 -124 -49 -43 -100 -85
-113 -94 -21 -14 -25 -13 -53 14 -28 27 -30 33 -25 84 3 30 8 120 11 200 4 80
13 235 21 345 8 110 19 279 25 375 5 96 12 181 14 188 2 6 7 12 10 12z m1338
-120 c4 0 7 -14 7 -32 0 -18 -5 -118 -10 -223 -6 -104 -13 -235 -16 -290 l-6
-100 -64 -55 c-36 -30 -71 -55 -79 -55 -8 0 -84 69 -171 154 -124 123 -155
158 -147 170 5 9 58 59 118 111 60 52 165 145 234 207 69 62 129 112 134 113z
m-710 -421 l70 -73 -74 -67 c-41 -37 -76 -66 -78 -64 -2 2 0 65 4 141 l8 137
70 -74z m-1571 -59 c5 0 35 -21 66 -46 31 -25 129 -116 217 -202 88 -87 196
-191 240 -232 44 -41 114 -104 156 -140 41 -36 87 -74 102 -85 15 -11 27 -23
27 -26 0 -4 -91 -83 -201 -176 -111 -92 -216 -179 -233 -193 -17 -14 -69 -57
-115 -97 l-84 -71 -70 46 c-39 26 -96 64 -127 85 -30 21 -80 54 -110 74 -30
19 -58 41 -62 47 -4 6 -8 79 -8 161 0 83 5 201 10 264 5 62 17 148 26 190 9
42 30 110 46 151 16 41 48 114 70 163 23 48 45 87 50 87z m1688 -64 c8 -6 84
-78 168 -161 l153 -150 -34 -30 c-18 -16 -105 -93 -193 -169 -87 -77 -181
-161 -209 -187 -27 -26 -66 -61 -86 -78 -20 -17 -39 -31 -43 -31 -3 0 -4 6 -1
13 2 6 11 152 21 322 l16 310 32 32 c17 18 60 57 96 86 52 43 68 52 80 43z
m566 -189 c1 -1 0 -35 -3 -74 l-6 -73 -38 31 c-22 17 -39 36 -39 42 1 7 20 26
43 44 23 17 42 31 43 30z m-829 -20 c1 -1 -3 -67 -8 -147 -5 -80 -13 -226 -19
-324 -8 -141 -13 -183 -26 -197 -16 -17 -19 -16 -78 24 -33 23 -79 56 -101 72
-22 17 -46 36 -53 43 -7 6 -17 12 -21 12 -4 0 -16 8 -27 18 -10 9 -45 38 -76
64 l-58 46 43 35 c23 20 59 49 79 65 21 16 68 56 105 90 37 33 106 91 153 130
47 39 86 70 87 69z m631 -147 c4 -1 49 -41 101 -90 l93 -89 -6 -68 c-3 -38 -8
-120 -11 -183 -3 -63 -10 -182 -16 -265 -5 -82 -14 -188 -19 -235 -9 -82 -11
-85 -52 -121 -24 -20 -48 -34 -53 -30 -6 3 -60 43 -120 89 l-110 82 8 128 c5
70 9 204 10 297 2 145 0 170 -13 170 -12 0 -15 -20 -17 -105 -1 -58 -4 -170
-8 -250 -3 -80 -9 -159 -13 -177 l-7 -32 -60 44 c-33 24 -91 67 -130 95 -38
28 -98 70 -132 95 -52 37 -63 50 -63 74 0 24 21 48 137 152 75 68 213 190 306
272 93 81 172 147 175 147z m325 -292 c51 -46 141 -126 201 -178 l108 -94 -68
-65 c-38 -36 -107 -100 -154 -142 -47 -42 -116 -104 -155 -137 -38 -34 -73
-62 -76 -62 -3 0 0 55 7 123 6 67 17 219 23 337 7 118 14 234 17 258 l5 43 92
-83z m-1527 -58 c3 0 31 -20 62 -45 32 -25 91 -71 132 -103 41 -32 101 -76
132 -97 32 -22 58 -43 58 -46 0 -4 -21 -26 -47 -49 -27 -24 -77 -71 -113 -105
-36 -34 -109 -101 -164 -149 -54 -48 -100 -85 -102 -83 -2 2 5 131 16 288 11
156 20 308 20 337 0 28 3 52 6 52z m-39 -20 c2 0 2 -12 -1 -27 -3 -16 -7 -75
-10 -133 -4 -58 -11 -190 -16 -295 -6 -104 -13 -204 -15 -221 -4 -21 -22 -47
-55 -78 -27 -25 -53 -46 -57 -46 -4 0 -47 29 -95 65 -48 36 -92 65 -97 65 -5
0 -11 3 -13 8 -1 4 -39 30 -83 58 -44 28 -97 61 -117 73 -21 13 -38 26 -38 29
1 4 35 34 77 67 41 33 101 83 132 110 32 28 82 71 112 97 30 25 81 68 114 94
33 26 82 67 109 91 26 24 50 43 53 43z m477 -310 c4 0 26 -14 48 -31 30 -24
38 -37 34 -53 -2 -12 -7 -84 -11 -161 -3 -77 -10 -212 -15 -300 -5 -88 -12
-223 -16 -299 -6 -130 -8 -138 -23 -119 -9 11 -63 53 -121 93 -58 40 -106 77
-108 81 -2 5 -10 9 -17 9 -7 0 -15 3 -17 8 -1 4 -37 32 -78 63 -41 30 -98 72
-127 93 l-51 39 4 56 c3 31 7 65 10 76 2 11 23 35 47 52 23 18 130 114 237
212 107 99 199 180 204 181z m143 -100 c3 0 18 -10 33 -22 15 -13 100 -74 188
-137 l160 -113 -6 -142 -5 -141 -45 -40 c-25 -22 -84 -71 -131 -109 -47 -38
-102 -82 -121 -98 -19 -16 -54 -48 -77 -71 -24 -22 -45 -39 -47 -36 -2 2 0
108 5 234 5 127 13 300 19 385 5 85 10 182 11 215 1 33 4 63 6 68 2 4 7 7 10
7z m-1589 -32 c4 -2 52 -32 105 -67 53 -35 97 -67 97 -70 0 -4 -24 -27 -52
-52 -29 -25 -58 -48 -65 -52 -7 -5 -20 21 -38 76 -15 45 -33 101 -41 125 -7
24 -10 42 -6 40z m271 -171 c9 -8 54 -38 101 -67 47 -29 87 -56 90 -59 3 -4
37 -26 75 -50 39 -24 92 -60 119 -79 l49 -36 -59 -55 c-33 -30 -80 -73 -105
-96 -25 -22 -87 -77 -137 -122 -51 -46 -95 -83 -99 -83 -5 0 -26 28 -49 63
-23 34 -49 79 -58 99 -9 21 -24 57 -32 80 -9 24 -31 95 -49 158 -26 89 -31
118 -22 126 7 6 45 39 86 73 65 56 75 61 90 48z m1736 -97 c2 0 26 -19 53 -42
27 -24 57 -48 67 -53 15 -9 8 -18 -54 -70 -40 -33 -75 -61 -79 -63 -4 -1 -4
44 -1 100 4 57 7 109 8 116 1 6 3 12 6 12z m330 -3 c1 -1 0 -19 -3 -40 -4 -37
-5 -37 -23 -21 -19 17 -19 18 3 41 12 12 22 22 23 20z m-1419 -80 c1 -1 -1
-17 -3 -34 -3 -18 -9 -33 -13 -33 -4 0 -13 6 -19 14 -10 11 -7 19 10 35 13 11
23 20 25 18z m1262 -57 c2 0 21 -15 43 -32 22 -18 53 -44 70 -58 l29 -25 -13
-140 -12 -140 -50 -8 c-28 -5 -59 -13 -70 -19 -10 -6 -58 -13 -106 -16 l-88
-5 5 119 c2 66 4 131 4 145 0 21 19 42 92 103 51 42 94 76 96 76z m-1428 -90
c4 0 26 -13 51 -30 24 -16 56 -40 70 -52 l27 -23 -24 -320 c-13 -176 -28 -369
-32 -430 l-8 -110 -82 83 c-44 45 -121 133 -169 194 -48 61 -123 153 -165 205
-43 52 -78 96 -78 99 0 3 21 27 48 53 26 27 90 86 142 132 52 45 122 109 154
141 33 32 62 58 66 58z m1777 -194 c96 -77 205 -164 241 -193 37 -29 71 -52
76 -52 4 -1 25 -14 45 -30 20 -15 79 -55 131 -88 52 -32 120 -72 150 -89 30
-16 60 -34 68 -41 7 -7 49 -34 93 -60 l80 -48 -103 -6 c-57 -4 -146 -10 -198
-13 -52 -4 -133 -11 -180 -16 -47 -5 -156 -14 -244 -21 -87 -6 -168 -12 -179
-15 -12 -2 -67 -7 -124 -10 -59 -4 -103 -3 -103 2 0 5 11 122 25 259 13 138
25 251 25 252 0 1 39 4 88 5 l87 3 3 33 c3 32 2 34 -25 28 -15 -3 -57 -8 -92
-12 -63 -6 -64 -6 -58 17 3 13 9 72 13 130 l7 107 174 -142z m-574 93 c5 1 6
-14 3 -31 -2 -18 -5 -80 -6 -138 -1 -58 -1 -111 -1 -117 1 -9 21 -13 69 -13
37 1 103 7 147 15 44 8 91 15 104 15 22 0 23 -2 18 -47 -4 -27 -14 -132 -22
-235 -9 -102 -19 -198 -23 -212 -7 -25 -10 -24 -180 95 -95 66 -221 156 -280
199 -59 44 -130 97 -158 118 l-52 38 90 80 c49 43 133 113 186 156 54 42 101
77 105 77z m-1014 -29 c4 0 34 -21 67 -46 32 -26 90 -67 127 -92 38 -25 74
-53 80 -63 7 -11 16 -19 20 -19 5 0 32 -18 61 -40 28 -22 60 -46 71 -55 11 -9
27 -20 35 -26 13 -8 10 -14 -15 -35 -16 -15 -50 -45 -75 -67 -25 -22 -115 -99
-200 -170 -85 -72 -175 -149 -199 -171 l-43 -41 6 70 c4 39 11 139 16 224 5
85 14 213 20 285 5 72 13 157 16 189 3 31 9 57 13 57z m524 -387 c6 -3 7 -77
3 -177 -3 -94 -8 -198 -11 -231 -2 -33 -12 -139 -21 -235 -10 -96 -18 -177
-20 -178 -1 -2 -22 5 -47 16 -24 11 -86 45 -139 75 -52 31 -132 83 -179 116
-46 33 -97 70 -113 83 -16 13 -36 28 -45 35 -9 6 -14 13 -11 15 3 2 55 46 115
98 61 52 139 119 174 150 35 30 113 96 174 147 61 50 115 89 120 86z m66 -53
c4 0 30 -17 57 -37 27 -21 65 -49 85 -63 21 -14 106 -73 189 -132 129 -91 149
-108 129 -112 -13 -3 -62 -10 -108 -16 -46 -5 -116 -10 -155 -10 -39 0 -77 -4
-85 -9 -8 -5 -11 -16 -8 -25 5 -12 20 -16 64 -16 32 0 108 7 168 15 61 8 133
17 160 20 48 6 53 4 123 -46 l74 -52 -7 -61 c-4 -33 -18 -148 -31 -255 -13
-107 -25 -195 -26 -196 -2 -1 -48 4 -103 11 -55 8 -122 22 -150 30 -27 9 -78
32 -112 51 -35 19 -63 30 -63 25 0 -5 10 -17 23 -25 22 -16 21 -16 -8 -7 -16
4 -55 17 -85 28 -30 11 -87 34 -127 52 -69 31 -71 33 -67 63 2 18 8 70 14 117
5 47 17 179 25 294 8 115 15 242 15 282 0 41 4 74 9 74z m-706 -480 c4 0 5
-10 3 -22 -3 -13 -8 -54 -11 -93 -3 -38 -13 -133 -21 -210 -8 -77 -24 -212
-34 -300 -11 -88 -29 -245 -40 -350 -11 -104 -25 -205 -31 -222 -6 -18 -11
-58 -12 -88 -1 -40 4 -60 16 -72 9 -9 19 -15 22 -12 2 3 14 102 25 220 11 118
34 327 50 464 16 138 36 322 45 410 8 88 18 186 21 218 3 31 8 57 11 57 3 0
33 -22 68 -49 34 -27 100 -73 146 -103 46 -30 118 -74 159 -98 41 -25 97 -55
124 -67 46 -22 48 -25 42 -56 -3 -17 -15 -97 -26 -177 -11 -80 -34 -224 -51
-320 -16 -96 -37 -213 -45 -260 -8 -47 -31 -177 -50 -290 -19 -113 -37 -212
-39 -220 -2 -8 -18 -94 -35 -190 -17 -96 -37 -203 -44 -238 -12 -51 -24 -73
-68 -124 -29 -34 -176 -185 -326 -335 -151 -150 -275 -273 -276 -273 -1 0 1
24 5 53 4 28 8 91 8 139 1 48 -3 120 -9 160 -5 40 -16 156 -25 258 -8 102 -22
237 -31 300 -8 63 -23 171 -34 240 -11 69 -22 172 -25 230 -3 58 -9 139 -14
180 -5 41 -17 118 -26 170 -8 52 -24 133 -35 180 -10 47 -23 110 -29 140 -6
30 -12 71 -13 91 -1 20 6 52 16 73 10 21 15 44 12 51 -3 9 48 63 132 142 75
71 178 163 227 206 50 42 117 101 150 131 33 30 63 55 68 56z m1432 -30 c3 0
22 -11 43 -24 20 -14 128 -87 238 -163 111 -76 237 -165 280 -198 44 -33 113
-87 154 -120 41 -33 81 -65 88 -72 8 -7 9 -14 2 -18 -5 -3 -13 -4 -17 -2 -5 3
-80 8 -169 11 -89 4 -168 8 -177 10 -8 1 -21 7 -28 12 -8 6 -41 12 -74 13 -33
1 -107 9 -165 17 -58 8 -134 20 -170 27 -56 11 -65 15 -62 32 1 11 13 108 27
215 14 107 25 210 25 228 0 17 2 32 5 32z m-791 -340 c3 0 18 -5 33 -11 15 -7
46 -20 68 -29 22 -10 81 -31 130 -48 50 -17 128 -42 175 -56 47 -13 105 -27
130 -31 25 -3 69 -11 98 -17 28 -6 52 -16 52 -22 0 -6 -7 -49 -14 -96 -8 -47
-22 -125 -31 -175 -9 -49 -28 -135 -41 -190 -14 -55 -34 -120 -45 -144 -11
-25 -31 -59 -44 -77 -13 -18 -29 -53 -35 -78 -8 -37 -7 -53 4 -73 l14 -27 31
48 c16 27 44 90 60 140 17 50 38 123 47 161 9 39 33 169 54 290 l38 220 48 -2
c27 -2 78 -8 114 -14 36 -6 72 -15 81 -20 9 -5 86 -15 170 -23 85 -8 231 -18
325 -22 l171 -7 7 -91 c4 -50 11 -167 17 -261 5 -93 10 -223 10 -288 0 -65 -3
-122 -7 -128 -4 -7 -23 -9 -48 -5 -22 3 -131 6 -241 7 -110 0 -234 -5 -275
-11 -41 -7 -235 -16 -430 -21 -195 -5 -385 -12 -422 -15 -64 -5 -68 -7 -68
-31 0 -14 -14 -44 -32 -67 -18 -22 -68 -84 -112 -136 -44 -52 -132 -148 -195
-212 -63 -65 -116 -116 -117 -115 -1 1 13 90 32 197 19 107 43 249 54 315 11
66 27 158 35 205 8 47 28 162 44 255 16 94 41 244 55 335 14 91 30 206 36 255
6 50 13 96 15 103 3 6 7 12 9 12z m2311 -1107 c50 -1 178 -4 285 -8 107 -3
236 -10 285 -15 50 -5 135 -12 190 -15 55 -4 102 -9 105 -12 3 -2 5 -104 5
-226 0 -122 -3 -287 -8 -367 -4 -80 -12 -185 -18 -235 -6 -49 -31 -171 -55
-270 -23 -99 -52 -218 -63 -265 -11 -47 -36 -161 -55 -255 -19 -93 -39 -201
-46 -240 -7 -38 -15 -78 -19 -88 -6 -17 -26 -18 -236 -22 -127 -1 -284 -10
-350 -18 -66 -9 -174 -21 -240 -27 -66 -6 -158 -16 -205 -21 -47 -5 -195 -13
-330 -18 -135 -5 -267 -10 -295 -10 -27 -1 -121 -6 -208 -13 -86 -6 -160 -9
-163 -6 -3 3 -23 57 -46 119 -22 63 -64 186 -93 274 -30 88 -76 243 -103 345
-28 102 -73 268 -102 370 -29 102 -62 221 -75 265 -13 44 -47 152 -75 240 -28
88 -62 197 -76 243 -13 46 -38 110 -54 143 -22 43 -27 61 -18 63 7 3 42 9 78
15 36 5 205 13 375 16 172 3 354 11 410 19 78 11 151 11 340 4 161 -6 306 -5
440 2 110 6 229 12 265 13 36 1 106 1 155 0z"/>
<g>
<path d="M4540 10440 c-9 0 -24 -8 -33 -18 -10 -10 -17 -30 -17 -44 0 -20 7
-29 29 -36 24 -8 32 -7 45 7 9 10 16 29 16 42 0 14 -5 30 -12 37 -7 7 -19 12
-28 12z"/>
</g>
<g>
<path d="M6002 9610 c-15 0 -37 -7 -49 -15 -11 -8 -24 -26 -27 -40 -4 -14 -2
-34 4 -45 6 -10 26 -24 46 -29 21 -6 45 -6 58 -1 13 5 26 19 29 32 4 13 7 31
7 41 0 9 -9 26 -20 37 -11 11 -32 20 -48 20z"/>
</g>
<g>
<path d="M3850 10448 c-14 2 -31 -3 -38 -10 -6 -6 -12 -22 -12 -34 0 -12 7
-27 15 -34 9 -7 25 -10 40 -6 23 6 26 11 23 44 -3 31 -7 37 -28 40z"/>
</g>
<g>
<path d="M3253 9644 c-15 5 -27 1 -42 -15 -12 -13 -21 -28 -21 -34 0 -6 7 -21
16 -33 8 -12 26 -22 39 -22 13 0 31 10 39 22 9 12 16 27 16 33 0 5 -6 17 -13
26 -7 9 -22 19 -34 23z"/>
</g>
<g>
<path d="M3765 9610 c-14 0 -29 -8 -35 -20 -6 -12 -10 -33 -8 -48 2 -16 12
-31 28 -39 18 -9 28 -9 38 0 8 6 18 22 23 35 7 18 5 31 -6 48 -9 15 -25 24
-40 24z"/>
</g>
<g>
<path d="M4681 9620 c-6 0 -15 -9 -21 -19 -5 -11 -10 -24 -10 -30 0 -6 9 -20
20 -31 16 -16 25 -18 40 -10 13 7 20 21 20 40 0 19 -7 33 -19 40 -11 5 -24 10
-30 10z"/>
</g>
<g>
<path d="M4315 9258 c-16 1 -35 -1 -42 -5 -6 -5 -12 -15 -14 -23 -2 -8 2 -25
9 -37 8 -14 22 -23 36 -23 13 0 29 6 35 14 7 8 11 27 9 43 -2 23 -8 28 -33 31z"/>
</g>
<g>
<path d="M3885 8997 c-6 1 -21 -3 -35 -10 -19 -10 -24 -20 -23 -41 1 -15 7
-34 14 -42 6 -8 22 -14 36 -14 15 0 27 8 32 23 5 13 4 33 -3 51 -7 16 -16 31
-21 33z"/>
</g>
<g>
<path d="M3600 8568 c-14 2 -31 -3 -38 -10 -6 -6 -12 -21 -12 -33 0 -11 9 -26
21 -33 18 -11 24 -11 40 4 12 11 19 28 17 43 -2 19 -10 27 -28 29z"/>
</g>
<g>
<path d="M3207 8350 c-12 0 -30 -11 -39 -25 -10 -13 -18 -30 -18 -37 0 -8 7
-24 16 -36 8 -12 24 -22 34 -22 10 0 28 13 39 29 12 16 21 36 21 44 0 9 -7 23
-16 31 -8 9 -25 16 -37 16z"/>
</g>
<g>
<path d="M3740 8060 c-11 0 -27 -11 -35 -24 -13 -19 -14 -29 -5 -45 6 -13 21
-21 36 -21 16 0 28 8 35 24 8 17 8 29 0 45 -7 11 -20 21 -31 21z"/>
</g>
</g>
</g>
</svg>
