<?xml version="1.0" standalone="no"?>
<!DOCTYPE svg PUBLIC "-//W3C//DTD SVG 20010904//EN"
 "http://www.w3.org/TR/2001/REC-SVG-20010904/DTD/svg10.dtd">
<svg version="1.0" xmlns="http://www.w3.org/2000/svg"
 width="900.000000pt" height="1200.000000pt" viewBox="0 0 900.000000 1200.000000"
 preserveAspectRatio="xMidYMid meet">
<metadata>
Created by potrace 1.16, written by Peter Selinger 2001-2019
</metadata>
<g transform="translate(0.000000,1200.000000) scale(0.100000,-0.100000)"
fill="#000000" stroke="none">
<g>
<path d="M6730 11479 c-47 0 -114 -7 -149 -14 -35 -8 -96 -26 -135 -41 -39
-15 -116 -50 -171 -77 -55 -27 -136 -73 -180 -102 -44 -29 -92 -64 -106 -77
-15 -12 -64 -52 -109 -88 -45 -36 -143 -128 -219 -205 -75 -77 -163 -174 -197
-215 -33 -41 -78 -100 -99 -130 -22 -30 -51 -74 -67 -96 -15 -23 -42 -68 -60
-100 -17 -33 -48 -93 -69 -134 -21 -41 -62 -136 -92 -210 -31 -74 -69 -173
-85 -220 -16 -47 -41 -133 -55 -190 -15 -58 -33 -152 -41 -210 -9 -58 -20
-157 -26 -220 -5 -63 -10 -168 -10 -232 0 -64 5 -152 11 -195 6 -43 30 -163
55 -268 24 -104 59 -244 78 -310 19 -66 55 -190 81 -275 26 -85 49 -162 51
-170 2 -8 24 -98 48 -200 24 -102 47 -202 51 -222 3 -21 10 -75 16 -120 5 -46
11 -171 14 -278 2 -107 0 -269 -5 -360 -5 -91 -14 -208 -20 -260 -6 -52 -22
-151 -36 -220 -14 -69 -40 -179 -59 -245 -19 -66 -52 -174 -75 -240 -23 -65
-53 -146 -67 -180 -14 -33 -41 -94 -61 -135 -20 -41 -56 -104 -80 -140 -24
-36 -58 -80 -75 -98 -18 -19 -52 -45 -76 -60 -32 -18 -56 -25 -92 -24 -32 0
-60 9 -87 26 -22 13 -53 41 -70 62 -17 21 -45 64 -62 96 -18 33 -50 108 -71
166 -22 59 -55 152 -73 207 -19 55 -45 136 -59 181 -14 44 -42 146 -61 226
-20 80 -43 190 -51 244 -8 55 -19 158 -24 229 -5 72 -7 258 -5 415 2 157 10
375 18 485 9 110 25 272 36 360 11 88 22 176 25 195 3 19 8 49 10 65 3 17 7
41 9 55 2 14 9 54 15 90 7 36 21 110 32 165 11 55 26 127 34 160 8 33 39 161
69 285 30 124 64 272 76 330 11 58 24 128 30 155 5 28 18 109 29 180 11 72 25
171 30 220 5 50 14 144 20 210 6 66 15 181 21 255 5 74 11 234 13 355 3 121 1
288 -4 370 -4 83 -14 179 -22 215 -8 36 -26 103 -40 150 -15 47 -42 111 -62
144 -19 32 -49 75 -67 95 -17 20 -44 44 -60 54 -16 9 -34 17 -41 17 -6 0 -32
-10 -57 -23 -25 -12 -68 -47 -96 -77 -28 -30 -69 -80 -91 -110 -22 -30 -58
-86 -80 -125 -22 -38 -65 -119 -96 -180 -30 -60 -61 -126 -70 -145 -8 -19 -33
-75 -55 -125 -23 -49 -55 -126 -72 -170 -18 -44 -44 -111 -59 -150 -15 -38
-41 -104 -58 -145 -17 -41 -40 -100 -51 -130 -12 -30 -51 -136 -87 -235 -36
-99 -89 -236 -117 -305 -28 -69 -70 -164 -93 -211 -24 -48 -55 -109 -71 -135
-15 -27 -59 -96 -98 -153 -39 -58 -99 -134 -133 -170 -35 -36 -63 -69 -63 -72
0 -4 -30 -35 -68 -70 -37 -36 -94 -85 -127 -110 -33 -25 -87 -61 -120 -81 -34
-19 -92 -48 -130 -63 -39 -15 -111 -35 -162 -44 -78 -13 -104 -13 -180 -2 -48
7 -107 21 -131 31 -32 14 -47 29 -58 56 -9 20 -20 62 -25 93 -5 31 -9 137 -8
236 0 99 2 203 4 230 2 28 9 79 15 115 7 36 18 92 27 125 8 33 37 128 65 210
27 83 54 154 59 159 5 6 9 16 9 23 0 7 21 66 46 131 25 64 55 140 67 167 12
28 37 79 56 115 19 36 44 83 56 105 11 22 34 62 49 88 16 26 26 50 24 52 -3 3
-14 -5 -25 -18 -11 -12 -41 -58 -67 -102 -26 -44 -71 -129 -100 -190 -29 -60
-78 -177 -109 -260 -30 -82 -73 -202 -95 -265 -22 -63 -47 -140 -56 -170 -8
-30 -25 -109 -37 -175 -19 -100 -22 -157 -22 -345 -1 -183 2 -235 16 -280 9
-30 26 -69 36 -86 10 -17 35 -38 54 -47 19 -10 70 -24 114 -33 55 -12 104 -15
168 -11 64 4 113 14 170 35 44 16 100 39 125 52 25 13 70 39 100 58 30 19 87
62 125 96 39 33 93 83 120 111 28 28 76 79 108 115 32 36 100 128 151 205 52
78 116 186 143 240 28 55 73 156 101 225 28 69 65 168 82 220 18 52 38 109 46
125 7 17 25 62 39 100 14 39 33 90 41 115 8 25 19 54 23 65 5 11 18 40 29 65
11 25 24 59 28 75 4 17 11 35 16 41 4 6 19 42 32 80 14 38 47 121 74 184 27
63 64 147 82 185 18 39 55 115 83 170 27 55 58 116 68 135 10 19 44 74 76 121
32 48 77 107 100 133 24 25 57 53 74 61 17 9 44 17 60 17 21 1 40 -9 65 -33
20 -19 51 -60 70 -91 20 -32 49 -94 65 -138 16 -45 37 -122 47 -173 14 -77 17
-147 16 -422 0 -181 -3 -373 -7 -425 -3 -52 -10 -169 -17 -260 -6 -91 -22
-253 -36 -360 -13 -107 -29 -217 -35 -245 -5 -27 -23 -122 -39 -209 -17 -87
-48 -229 -71 -315 -23 -86 -46 -178 -51 -206 -5 -27 -16 -72 -23 -100 -8 -27
-17 -66 -20 -85 -3 -19 -19 -100 -35 -180 -16 -80 -31 -165 -34 -190 -3 -25
-14 -99 -25 -165 -10 -66 -22 -156 -26 -200 -3 -44 -10 -107 -15 -140 -5 -33
-14 -130 -20 -215 -7 -85 -12 -310 -12 -500 1 -259 5 -376 17 -469 9 -68 20
-144 25 -170 5 -25 18 -84 30 -131 11 -47 29 -116 39 -155 11 -38 26 -96 35
-127 8 -31 29 -97 45 -145 15 -48 51 -149 80 -224 28 -75 67 -165 86 -200 20
-35 53 -81 73 -103 20 -21 60 -49 87 -62 28 -13 67 -24 88 -24 20 0 59 10 85
22 26 12 69 44 95 72 27 27 67 79 90 115 23 36 48 75 54 86 7 11 22 40 34 65
12 25 35 79 52 120 16 41 40 102 52 135 12 33 25 67 28 75 3 8 7 24 10 35 3
11 19 67 37 124 17 58 43 152 56 210 14 58 28 115 31 126 2 11 11 70 19 130 8
61 19 164 24 229 6 65 10 218 10 340 1 122 -4 275 -10 341 -6 66 -18 161 -26
210 -9 50 -25 124 -36 165 -11 41 -33 126 -49 188 -16 62 -41 154 -55 205 -15
50 -41 137 -59 192 -18 55 -51 175 -74 267 -22 92 -50 212 -61 267 -11 55 -22
106 -25 113 -2 7 -6 56 -9 108 -3 52 -1 163 4 245 6 83 13 173 15 200 3 28 12
97 21 155 8 58 33 166 54 240 22 75 57 181 80 235 22 55 40 103 40 108 0 5 26
61 57 125 31 64 70 140 87 167 16 28 54 88 84 135 30 47 94 134 141 195 47 60
154 178 236 261 83 83 197 187 255 231 58 44 132 97 165 118 33 21 103 59 155
85 52 26 136 61 187 78 53 19 133 37 190 43 83 10 110 9 178 -5 48 -9 117 -34
173 -61 80 -40 109 -62 218 -168 70 -67 146 -147 170 -179 24 -31 61 -91 83
-135 21 -43 50 -105 64 -138 13 -33 34 -89 45 -125 11 -36 27 -94 36 -130 8
-36 20 -133 27 -215 7 -88 9 -220 6 -320 -3 -98 -14 -217 -25 -280 -11 -60
-34 -153 -52 -205 -18 -52 -35 -99 -39 -105 -4 -5 -16 -32 -26 -60 -10 -27
-63 -142 -118 -255 -55 -113 -117 -232 -137 -265 -20 -33 -56 -96 -80 -140
-23 -44 -56 -105 -73 -135 -17 -30 -36 -64 -42 -75 -7 -11 -27 -47 -45 -80
-19 -33 -60 -112 -93 -175 -32 -63 -79 -162 -103 -220 -25 -58 -51 -118 -59
-135 -8 -16 -31 -75 -50 -130 -20 -55 -45 -122 -55 -150 -11 -27 -31 -88 -46
-135 -14 -47 -32 -101 -39 -120 -7 -19 -40 -118 -73 -220 -33 -102 -72 -225
-87 -275 -15 -49 -31 -99 -36 -110 -5 -11 -31 -90 -58 -175 -28 -85 -70 -227
-95 -315 -25 -88 -56 -203 -70 -255 -14 -52 -32 -129 -41 -170 -9 -41 -23
-106 -31 -145 -8 -38 -26 -128 -39 -200 -14 -71 -32 -177 -40 -235 -9 -58 -18
-172 -21 -255 -4 -87 -2 -196 5 -261 6 -60 23 -155 36 -210 14 -54 41 -130 61
-168 19 -38 55 -99 80 -135 25 -36 77 -111 115 -166 39 -55 90 -129 115 -165
24 -36 68 -96 99 -135 30 -38 86 -113 124 -166 38 -53 79 -114 90 -135 12 -22
32 -77 46 -123 17 -59 27 -120 31 -206 4 -77 2 -152 -5 -206 -7 -46 -21 -122
-32 -168 -11 -46 -31 -111 -43 -145 -13 -34 -38 -90 -56 -126 -18 -36 -53 -95
-78 -133 -24 -37 -78 -104 -120 -148 -42 -45 -114 -113 -161 -153 -48 -40
-115 -92 -151 -117 -36 -24 -74 -49 -85 -56 -11 -7 -65 -36 -120 -66 -55 -30
-122 -64 -150 -77 -27 -12 -120 -50 -205 -84 -85 -34 -204 -81 -265 -104 -60
-23 -162 -61 -225 -86 -64 -24 -172 -58 -240 -75 -69 -17 -181 -40 -250 -52
-101 -17 -171 -22 -365 -23 -173 -1 -258 3 -305 13 -36 8 -94 25 -130 39 -36
14 -87 41 -115 59 -27 19 -79 63 -115 98 -36 35 -89 96 -118 137 -29 40 -72
102 -96 138 -24 36 -53 85 -66 110 -13 25 -33 65 -46 90 -12 25 -31 74 -42
110 -11 36 -25 88 -31 115 -6 28 -14 79 -17 115 -3 36 -6 117 -6 180 0 63 2
158 6 210 4 52 14 131 23 175 8 44 18 100 22 125 4 25 11 52 16 59 5 8 14 38
21 65 7 28 24 96 39 151 15 55 31 118 37 140 5 22 16 72 24 110 8 42 14 131
15 223 0 84 -5 189 -11 235 -6 45 -20 114 -31 152 -11 39 -41 113 -66 165 -25
52 -66 120 -89 150 -24 31 -65 72 -91 91 -26 20 -74 46 -106 58 -42 15 -83 22
-140 22 -45 0 -118 -7 -162 -16 -44 -9 -107 -28 -141 -41 -33 -13 -65 -24 -70
-24 -5 0 -70 -34 -144 -76 -74 -42 -160 -93 -190 -114 -30 -20 -102 -69 -160
-107 -58 -39 -159 -99 -225 -134 -66 -35 -145 -74 -175 -87 -30 -13 -88 -34
-129 -48 -41 -13 -113 -26 -160 -30 -66 -5 -103 -2 -156 11 -38 10 -92 32
-120 50 -27 17 -74 54 -104 81 -30 27 -71 72 -91 99 -20 28 -48 73 -63 100
-14 28 -33 81 -42 118 -8 38 -15 95 -15 128 0 33 5 93 11 132 6 40 28 124 49
187 22 64 64 161 94 216 30 55 64 108 76 119 11 10 20 23 20 28 0 6 28 42 62
81 34 39 107 115 162 169 56 55 142 132 191 172 50 40 148 121 219 179 70 58
158 131 194 163 37 32 107 94 157 138 49 44 150 141 225 215 74 74 160 167
191 205 31 39 71 93 90 120 20 28 45 68 56 90 12 22 26 55 32 74 6 19 11 53
11 76 0 24 -7 59 -16 80 -8 21 -25 51 -37 67 -12 16 -46 45 -76 65 -30 20 -93
49 -141 64 -47 15 -151 39 -230 53 -80 13 -174 27 -210 31 -36 3 -99 11 -140
16 -41 6 -99 17 -129 26 -30 8 -77 29 -106 47 -29 17 -66 47 -83 66 -17 20
-39 62 -50 93 -10 32 -22 60 -26 64 -3 3 -6 -2 -6 -12 0 -10 8 -43 17 -73 12
-38 34 -73 67 -109 28 -31 73 -66 105 -82 31 -16 85 -35 121 -44 36 -9 135
-23 220 -32 85 -9 206 -27 270 -40 63 -14 133 -29 155 -36 22 -6 63 -22 90
-35 28 -13 67 -38 87 -54 20 -17 46 -49 57 -73 12 -24 21 -57 21 -75 0 -17
-10 -57 -21 -89 -12 -32 -37 -82 -56 -111 -18 -29 -59 -83 -90 -120 -31 -37
-86 -100 -122 -141 -36 -41 -129 -133 -207 -205 -77 -72 -212 -192 -299 -266
-87 -74 -180 -151 -205 -170 -26 -19 -71 -55 -100 -80 -30 -25 -92 -79 -139
-120 -47 -41 -100 -88 -117 -105 -17 -16 -64 -65 -103 -108 -39 -43 -95 -115
-125 -160 -29 -45 -61 -98 -71 -117 -10 -19 -25 -40 -34 -47 -9 -6 -13 -14 -9
-18 3 -4 -5 -32 -19 -63 -14 -31 -39 -95 -55 -142 -16 -47 -36 -121 -44 -165
-7 -44 -14 -110 -14 -147 0 -37 5 -91 11 -120 6 -29 24 -81 39 -115 16 -34 42
-81 58 -105 16 -24 47 -61 68 -84 22 -22 63 -60 93 -83 30 -23 75 -53 100 -66
25 -12 71 -28 103 -35 35 -8 93 -11 155 -8 61 3 122 13 163 27 36 12 73 26 82
31 10 6 22 10 28 10 6 0 45 17 88 38 42 21 109 56 147 77 39 21 156 94 260
163 105 69 228 146 275 173 47 26 123 64 170 82 47 19 119 42 160 51 41 10
115 17 165 17 67 1 104 -5 144 -20 30 -11 71 -32 93 -47 21 -15 57 -48 78 -74
22 -26 59 -87 83 -136 25 -49 54 -120 65 -159 11 -38 26 -104 32 -145 7 -46
10 -148 8 -265 -4 -172 -7 -202 -36 -317 -18 -70 -38 -144 -46 -165 -8 -21
-29 -95 -46 -166 -17 -70 -38 -165 -46 -210 -9 -45 -18 -167 -21 -271 -4 -126
-2 -223 7 -290 7 -55 21 -137 32 -181 11 -44 29 -102 40 -130 11 -27 36 -81
56 -120 20 -38 54 -97 77 -130 23 -33 44 -65 46 -72 2 -6 33 -48 68 -93 36
-45 96 -111 135 -147 39 -36 101 -80 138 -99 38 -19 87 -41 110 -48 24 -8 84
-22 133 -32 75 -14 129 -16 325 -11 189 5 262 11 375 31 77 14 187 39 245 55
58 16 141 43 185 59 44 17 110 42 146 55 l66 26 2 -114 2 -114 -28 -6 c-15 -4
-46 -13 -69 -21 -26 -9 -45 -24 -53 -41 -6 -14 -23 -68 -36 -120 -14 -52 -22
-99 -19 -104 3 -5 -14 -17 -38 -28 -24 -11 -63 -25 -88 -31 -25 -7 -52 -15
-60 -20 -8 -4 -14 -18 -13 -31 1 -13 5 -55 8 -94 3 -38 8 -80 11 -92 2 -13 11
-23 19 -23 8 0 15 4 15 10 0 5 35 -18 79 -50 43 -33 91 -64 106 -70 25 -10 32
-7 60 20 17 16 35 30 40 30 4 0 16 6 24 14 9 8 33 23 54 35 21 12 43 21 49 21
7 0 9 -14 5 -40 -5 -40 -4 -41 38 -60 24 -11 51 -20 59 -20 10 0 16 9 16 24 0
18 -8 25 -32 32 -30 9 -33 13 -36 55 l-3 45 58 31 c32 17 68 34 81 38 23 7 23
5 21 -44 -2 -28 0 -54 4 -58 4 -4 24 -13 45 -20 20 -7 40 -13 45 -13 4 0 7 11
7 26 0 19 -7 28 -30 35 -26 10 -30 16 -30 50 0 33 4 41 24 49 21 8 25 18 31
73 4 36 4 73 1 84 -4 11 -25 28 -47 39 -39 18 -43 24 -65 93 -12 40 -35 99
-51 132 l-28 58 -67 -6 -68 -6 0 117 c0 64 0 119 -1 123 0 3 87 41 193 83 106
42 231 94 278 116 47 21 121 58 165 82 44 25 118 69 165 99 47 31 121 86 166
124 44 37 116 105 160 151 44 46 100 112 126 148 25 36 66 103 91 150 25 47
59 126 75 175 16 50 35 115 40 145 6 30 16 82 22 114 5 33 10 110 10 172 0 72
-7 151 -20 216 -12 61 -33 129 -52 168 -17 36 -45 85 -62 110 -17 25 -45 63
-61 85 -16 22 -60 78 -96 125 -37 47 -99 132 -138 190 -40 58 -93 137 -120
175 -26 39 -70 104 -98 145 -27 41 -64 109 -81 150 -17 41 -41 127 -53 190
-20 97 -23 145 -23 311 0 107 6 231 13 275 7 43 17 106 22 139 5 33 14 83 19
110 6 28 21 106 35 175 14 69 37 177 51 240 15 63 30 123 35 132 5 10 9 24 9
32 0 8 16 72 36 142 19 71 56 194 80 274 25 80 67 213 93 295 27 83 75 231
106 330 31 99 87 270 124 380 38 110 84 244 104 297 20 53 50 130 68 170 17
40 40 93 51 118 11 25 42 88 68 140 25 52 66 131 89 174 24 44 75 136 115 205
40 69 89 155 108 191 19 36 61 112 93 170 32 58 81 152 107 210 27 58 55 117
63 131 8 14 34 78 59 142 25 64 54 147 65 185 12 38 27 107 35 153 8 46 17
109 21 139 3 31 6 132 7 225 0 94 -3 202 -6 240 -4 39 -12 102 -17 140 -6 39
-17 95 -25 125 -8 30 -22 75 -30 100 -9 25 -22 59 -29 75 -7 17 -16 41 -20 55
-4 14 -27 63 -50 110 -24 47 -61 110 -84 140 -23 30 -83 97 -134 149 -50 52
-119 117 -152 144 -33 28 -96 68 -141 89 -44 20 -110 44 -145 53 -35 8 -102
14 -149 14z m-1319 -10311 c16 1 29 -4 33 -14 3 -9 6 -69 6 -134 l0 -119 -77
-16 c-43 -9 -92 -22 -109 -27 -17 -6 -39 -8 -49 -4 -16 6 -17 16 -11 98 3 50
6 113 6 139 l0 48 53 10 c28 6 68 13 87 14 19 2 47 5 61 5z m89 -88 c5 0 10
-9 10 -19 0 -11 4 -22 9 -25 5 -3 11 -22 13 -41 4 -32 2 -36 -16 -33 -18 3
-21 11 -24 61 -2 35 1 57 8 57z m-334 -60 c2 0 3 -12 3 -27 -1 -16 -3 -40 -6
-55 -2 -16 -9 -28 -14 -28 -6 0 -7 16 -4 38 4 20 9 45 12 55 2 9 6 17 9 17z
m346 -95 c12 -4 29 -13 37 -21 8 -7 12 -17 8 -21 -4 -4 -20 -2 -35 3 -15 5
-28 18 -30 28 -3 15 0 17 20 11z m-359 -58 c7 -2 11 -15 9 -29 -2 -17 3 -28
15 -33 10 -5 20 -9 23 -10 3 -1 14 -5 25 -9 11 -4 29 -11 39 -15 15 -6 7 -12
-40 -30 -33 -12 -66 -19 -74 -16 -12 4 -14 21 -12 76 3 48 7 69 15 66z m483 2
c6 1 12 -10 12 -24 0 -14 -4 -27 -8 -30 -4 -3 -15 6 -24 19 -12 18 -12 26 -3
29 6 3 17 6 23 6z m-543 -20 c4 1 7 -19 7 -44 0 -40 -2 -45 -17 -36 -10 5 -36
17 -58 26 l-40 17 50 18 c28 10 53 19 58 19z m347 -1 l35 2 -30 -20 c-16 -11
-41 -24 -55 -30 -19 -8 -36 -7 -65 4 -34 12 -36 15 -15 16 14 1 41 7 60 14 19
6 51 13 70 14z m88 -18 c2 0 17 -7 33 -16 21 -10 29 -21 27 -35 -2 -14 -26
-29 -80 -53 l-76 -33 -4 39 c-3 32 0 41 22 55 14 9 36 23 50 30 14 7 26 13 28
13z m-537 -61 c24 -12 67 -37 96 -56 28 -18 56 -33 61 -33 6 0 8 -28 5 -67 -3
-38 -6 -72 -7 -77 -1 -4 -42 24 -91 65 -50 40 -92 74 -94 76 -2 2 -6 28 -9 59
l-5 55 44 -22z m349 -30 c14 0 30 -3 37 -7 8 -5 10 -21 6 -45 -5 -31 -12 -40
-42 -54 -20 -9 -49 -26 -66 -37 -16 -12 -42 -27 -57 -34 l-28 -12 0 69 0 68
63 25 c34 15 73 26 87 27z"/>
</g>
<g>
<path d="M7356 10690 c-12 0 -29 -5 -38 -11 -10 -5 -18 -19 -18 -29 0 -11 11
-27 25 -36 23 -15 27 -15 50 0 14 9 25 18 25 21 0 2 -5 16 -12 30 -7 15 -19
25 -32 25z"/>
</g>
<g>
<path d="M3805 10640 c-31 0 -35 -3 -35 -25 0 -13 8 -29 18 -34 11 -6 24 -6
35 0 9 6 17 21 17 34 0 22 -5 25 -35 25z"/>
</g>
<g>
<path d="M4262 10609 c-14 7 -24 6 -38 -4 -15 -11 -17 -17 -8 -32 6 -10 22
-18 35 -18 17 0 25 6 27 22 2 13 -4 26 -16 32z"/>
</g>
<g>
<path d="M3996 10560 c-9 0 -18 -6 -21 -12 -2 -7 -6 -26 -8 -43 -3 -16 -14
-64 -26 -105 -12 -41 -30 -111 -41 -155 -11 -44 -29 -138 -40 -210 -12 -71
-26 -148 -31 -170 -4 -22 -18 -91 -30 -152 -12 -62 -19 -119 -16 -127 3 -8 36
-24 72 -36 56 -19 69 -20 76 -9 5 8 7 18 6 23 -2 5 -25 17 -53 26 -27 9 -50
24 -52 32 -2 9 15 110 37 224 22 115 45 243 51 284 6 41 27 131 47 200 19 68
37 148 40 177 5 45 3 53 -11 53z"/>
</g>
<g>
<path d="M6759 10430 c-3 0 -9 -3 -12 -7 -4 -3 -7 -12 -7 -20 0 -7 17 -37 37
-65 20 -29 56 -75 78 -103 23 -27 64 -81 91 -119 27 -39 53 -76 58 -84 6 -10
-3 -26 -30 -53 -36 -37 -37 -40 -21 -57 17 -16 19 -15 47 18 16 19 37 49 46
66 l16 30 -53 75 c-30 41 -97 129 -149 196 -52 67 -98 122 -101 123z"/>
</g>
<g>
<path d="M5800 10310 c-11 0 -27 -12 -37 -26 -12 -19 -14 -30 -6 -43 6 -9 23
-16 43 -16 20 0 37 7 43 16 8 13 6 24 -6 43 -10 14 -26 26 -37 26z"/>
</g>
<g>
<path d="M7175 9757 c-11 1 -27 -1 -35 -4 -8 -3 -32 -17 -52 -29 -20 -13 -74
-44 -120 -70 -46 -25 -110 -57 -143 -70 -33 -14 -75 -32 -93 -40 -18 -9 -36
-22 -39 -30 -3 -9 -1 -20 5 -26 7 -7 22 -3 48 10 22 12 86 43 144 71 58 27
150 76 204 108 55 32 100 63 100 68 1 6 -8 11 -19 12z"/>
</g>
<g>
<path d="M2133 9315 c-79 6 -83 5 -83 -15 0 -12 9 -24 23 -29 12 -4 72 -11
132 -15 61 -4 128 -9 150 -11 22 -2 47 0 55 5 12 7 12 14 4 27 -9 14 -30 19
-105 25 -52 3 -131 9 -176 13z"/>
</g>
<g>
<path d="M2169 9138 c-23 2 -43 -3 -57 -15 -19 -16 -21 -22 -11 -58 6 -22 15
-62 20 -90 6 -27 14 -85 17 -130 6 -71 9 -80 27 -80 19 0 20 5 16 105 -2 58
-10 125 -17 150 -8 25 -14 48 -14 52 0 3 14 9 31 13 24 5 29 11 27 28 -2 17
-11 23 -39 25z"/>
</g>
<g>
<path d="M3660 9050 c-33 0 -50 -4 -50 -12 0 -7 4 -18 8 -25 4 -6 45 -14 92
-18 47 -4 121 -13 165 -21 44 -7 114 -15 155 -16 74 -3 75 -3 75 22 0 23 -4
25 -55 28 -30 1 -119 11 -197 22 -79 11 -165 20 -193 20z"/>
</g>
<g>
<path d="M1891 8760 c-10 0 -24 -7 -31 -15 -6 -8 -10 -22 -8 -31 2 -9 11 -22
21 -28 15 -9 22 -7 37 12 15 18 17 28 10 43 -6 10 -19 19 -29 19z"/>
</g>
<g>
<path d="M2488 8725 c-8 3 -22 -3 -32 -14 -10 -11 -16 -30 -14 -43 2 -16 10
-24 30 -26 19 -2 31 3 43 21 8 13 13 32 9 41 -3 9 -10 16 -14 16 -5 0 -15 2
-22 5z"/>
</g>
<g>
<path d="M4870 7321 c-30 2 -131 1 -224 -3 -92 -4 -171 -10 -174 -13 -4 -3 -2
-14 4 -23 7 -11 24 -16 50 -16 21 0 121 1 222 2 155 2 184 4 189 18 3 8 2 19
-3 24 -5 4 -34 9 -64 11z"/>
</g>
<g>
<path d="M2097 7080 c-13 0 -27 -3 -30 -7 -4 -3 -7 -17 -7 -29 0 -13 4 -26 10
-29 5 -3 19 -8 30 -10 12 -2 24 3 29 13 5 10 5 27 0 40 -5 14 -17 22 -32 22z"/>
</g>
<g>
<path d="M1628 6990 c-5 0 -11 -7 -15 -16 -3 -9 -2 -50 2 -92 4 -42 8 -126 9
-187 1 -101 3 -110 20 -110 16 0 20 8 21 50 2 28 4 73 5 100 2 28 -1 91 -5
140 -4 50 -12 96 -17 103 -6 6 -15 12 -20 12z"/>
</g>
<g>
<path d="M1852 6866 c-59 7 -61 6 -67 -18 -4 -14 -5 -38 -3 -54 2 -18 10 -30
21 -32 12 -3 21 6 29 28 l11 32 111 -4 c109 -3 111 -3 114 20 3 21 1 22 -76
22 -43 0 -106 3 -140 6z"/>
</g>
<g>
<path d="M4752 6856 c-63 7 -64 6 -60 -17 2 -18 12 -25 43 -32 22 -6 41 -10
42 -12 2 -1 -4 -66 -13 -146 -8 -79 -18 -186 -21 -237 -5 -88 -4 -94 13 -90
16 3 21 19 31 113 6 61 17 157 23 215 6 58 12 124 12 148 1 23 -1 44 -3 46 -2
3 -33 8 -67 12z"/>
</g>
<g>
<path d="M2141 6633 c-12 3 -27 -3 -37 -14 -14 -16 -15 -24 -6 -44 7 -14 20
-25 31 -25 10 0 24 7 31 15 7 8 10 25 6 39 -3 13 -15 26 -25 29z"/>
</g>
<g>
<path d="M5100 6220 c-10 0 -22 -9 -25 -20 -3 -11 -3 -29 0 -41 5 -13 14 -19
27 -17 11 2 27 13 35 24 12 19 12 24 -2 38 -9 9 -25 16 -35 16z"/>
</g>
<g>
<path d="M4331 6180 c-4 0 -15 -6 -25 -13 -12 -9 -17 -23 -14 -42 2 -22 9 -31
26 -33 13 -2 30 2 38 8 7 7 14 21 14 31 0 9 -7 25 -16 33 -8 9 -19 16 -23 16z"/>
</g>
<g>
<path d="M6185 5224 c-12 3 -26 1 -33 -6 -7 -7 -12 -24 -12 -39 0 -15 7 -32
15 -39 12 -10 21 -10 40 -2 16 8 25 20 25 34 0 13 -4 28 -8 34 -4 6 -16 14
-27 18z"/>
</g>
<g>
<path d="M1798 5000 c-9 0 -19 -4 -22 -9 -4 -5 1 -22 9 -38 8 -15 44 -92 80
-171 36 -79 65 -148 65 -153 0 -5 11 -9 24 -9 14 0 27 4 30 9 3 5 -34 90 -82
190 -62 129 -92 181 -104 181z"/>
</g>
<g>
<path d="M6296 4990 c-7 0 -29 -17 -47 -38 -19 -22 -55 -68 -80 -103 -25 -35
-53 -76 -63 -90 -9 -14 -14 -33 -11 -41 3 -8 30 -22 59 -31 29 -9 56 -17 59
-17 4 0 7 11 7 25 0 16 -7 28 -17 31 -10 3 -26 9 -35 12 -15 6 -12 15 24 67
22 33 61 81 86 107 29 30 43 52 39 62 -4 9 -13 16 -21 16z"/>
</g>
<g>
<path d="M6687 4810 c-9 0 -23 -10 -31 -22 -9 -12 -16 -30 -16 -39 0 -9 9 -24
21 -35 12 -10 31 -17 43 -15 11 1 24 8 28 15 4 6 8 23 8 37 0 14 -8 33 -18 42
-10 10 -26 17 -35 17z"/>
</g>
<g>
<path d="M981 4790 c-4 0 -14 -6 -23 -12 -8 -7 -18 -20 -21 -29 -3 -9 1 -26 9
-38 8 -11 25 -21 38 -21 13 0 30 8 39 18 10 10 17 28 17 41 0 14 -9 25 -26 31
-14 6 -29 10 -33 10z"/>
</g>
<g>
<path d="M1638 4688 c-15 -1 -28 -7 -28 -14 0 -6 7 -28 15 -47 8 -20 15 -41
15 -46 0 -5 -25 -21 -56 -35 -31 -14 -61 -26 -67 -26 -5 0 -31 -10 -56 -21
-25 -12 -70 -33 -99 -48 -29 -14 -59 -33 -67 -41 -8 -9 -11 -21 -6 -29 7 -10
27 -4 92 32 46 25 137 64 202 87 81 30 117 47 117 58 0 9 -8 42 -17 74 -16 54
-20 58 -45 56z"/>
</g>
<g>
<path d="M6219 4540 c-9 0 -18 -3 -22 -6 -3 -3 -3 -12 0 -20 3 -7 28 -29 57
-48 29 -19 88 -64 131 -100 44 -36 87 -66 97 -66 12 0 18 8 18 24 0 16 -13 32
-47 54 -27 18 -86 61 -133 97 -47 36 -92 65 -101 65z"/>
</g>
<g>
<path d="M2355 4320 c-7 0 -20 -9 -29 -19 -14 -15 -15 -24 -6 -40 6 -12 21
-21 34 -21 14 0 28 10 37 26 12 23 12 27 -6 40 -10 8 -24 14 -30 14z"/>
</g>
<g>
<path d="M2607 4150 c-7 0 -60 -47 -119 -104 -60 -57 -108 -108 -108 -113 0
-5 18 -26 40 -48 l39 -38 12 26 c10 21 9 29 -5 42 -9 9 -16 20 -16 24 0 5 41
49 91 99 50 50 88 96 84 102 -3 5 -12 10 -18 10z"/>
</g>
<g>
<path d="M1367 4090 c-13 0 -28 -5 -35 -12 -7 -7 -12 -20 -12 -29 0 -10 7 -24
15 -32 8 -9 24 -13 35 -10 11 3 24 13 29 22 5 9 5 26 0 39 -5 14 -17 22 -32
22z"/>
</g>
<g>
<path d="M3063 4041 c-13 5 -28 2 -42 -7 -11 -8 -21 -22 -21 -30 0 -8 9 -23
20 -34 11 -11 25 -20 30 -20 6 0 19 9 30 20 14 14 17 25 11 41 -4 12 -17 26
-28 30z"/>
</g>
<g>
<path d="M2186 3790 c-8 0 -17 -8 -20 -17 -4 -9 -3 -19 1 -23 4 -4 64 -32 133
-63 69 -32 129 -57 134 -57 4 0 40 -16 79 -35 39 -19 76 -35 83 -35 6 0 15 7
18 16 3 9 6 17 6 19 0 2 -35 20 -77 41 -43 20 -95 42 -116 50 -21 7 -50 20
-65 29 -15 8 -57 28 -95 45 -37 16 -74 30 -81 30z"/>
</g>
<g>
<path d="M5487 1770 c-8 0 -17 -3 -20 -7 -4 -3 -7 -14 -7 -24 0 -9 6 -19 14
-22 8 -3 20 1 26 8 7 8 10 22 6 30 -3 8 -12 15 -19 15z"/>
</g>
<g>
<path d="M5217 1728 c-9 2 -20 -4 -23 -13 -4 -9 -2 -21 4 -27 6 -6 18 -8 27
-4 9 3 15 14 13 23 -2 10 -11 19 -21 21z"/>
</g>
<g>
<path d="M5363 1720 c-12 0 -14 -6 -8 -27 4 -16 7 -40 6 -55 0 -15 4 -30 10
-33 5 -4 18 -3 29 0 13 4 20 15 20 32 0 14 -9 38 -21 54 -11 16 -27 29 -36 29z"/>
</g>
<g>
<path d="M5416 1599 c-6 -1 -38 -7 -71 -13 -50 -10 -61 -15 -63 -34 -3 -16 2
-22 15 -21 10 0 43 6 73 12 30 7 61 16 68 20 10 7 10 12 1 23 -6 8 -17 13 -23
13z"/>
</g>
</g>
</svg>
