<?xml version="1.0" standalone="no"?>
<!DOCTYPE svg PUBLIC "-//W3C//DTD SVG 20010904//EN"
 "http://www.w3.org/TR/2001/REC-SVG-20010904/DTD/svg10.dtd">
<svg version="1.0" xmlns="http://www.w3.org/2000/svg"
 width="1200.000000pt" height="1200.000000pt" viewBox="0 0 1200.000000 1200.000000"
 preserveAspectRatio="xMidYMid meet">
<metadata>
Created by potrace 1.16, written by Peter Selinger 2001-2019
</metadata>
<g transform="translate(0.000000,1200.000000) scale(0.100000,-0.100000)"
fill="#000000" stroke="none">
<g>
<path d="M6810 10816 c-25 0 -63 -2 -85 -4 -22 -1 -71 -7 -110 -12 -38 -6
-133 -22 -210 -36 -77 -14 -228 -43 -335 -64 -107 -21 -229 -44 -270 -50 -41
-6 -91 -16 -110 -22 -19 -6 -44 -14 -55 -18 -11 -5 -60 -20 -110 -35 -49 -15
-112 -35 -140 -45 -27 -10 -63 -23 -80 -28 -16 -6 -63 -24 -103 -41 -40 -17
-88 -37 -105 -45 -18 -7 -50 -20 -72 -29 -22 -9 -77 -30 -122 -47 -44 -17 -87
-37 -93 -45 -7 -8 -18 -15 -24 -15 -7 0 -59 -24 -117 -54 -57 -29 -140 -73
-184 -96 -44 -24 -88 -50 -97 -58 -10 -8 -18 -13 -18 -10 0 3 -38 -20 -83 -51
-46 -31 -133 -89 -193 -130 -60 -40 -127 -88 -149 -105 -22 -17 -51 -39 -65
-48 -14 -8 -65 -47 -115 -86 -49 -39 -106 -84 -125 -101 -19 -16 -60 -52 -90
-78 -30 -26 -102 -95 -160 -153 -58 -58 -131 -136 -163 -175 -31 -38 -62 -76
-69 -83 -7 -7 -20 -21 -28 -30 -8 -10 -31 -38 -50 -62 -19 -25 -40 -52 -47
-60 -7 -8 -51 -67 -98 -130 -47 -63 -85 -122 -85 -132 0 -10 -7 -21 -15 -24
-8 -3 -17 -15 -21 -27 -3 -11 -21 -41 -38 -66 -18 -25 -38 -59 -46 -76 -8 -16
-22 -42 -32 -57 -10 -14 -26 -50 -35 -80 -10 -29 -29 -70 -45 -91 -15 -21 -32
-55 -39 -75 -7 -20 -36 -86 -64 -147 -29 -60 -56 -121 -60 -135 -4 -14 -22
-54 -40 -90 -18 -36 -41 -87 -53 -115 -11 -27 -32 -81 -46 -120 -14 -38 -39
-110 -56 -160 -18 -49 -34 -101 -37 -115 -3 -14 -11 -41 -19 -60 -8 -19 -19
-43 -24 -52 -6 -10 -10 -30 -10 -45 0 -16 -11 -60 -24 -99 -13 -39 -27 -88
-30 -110 -4 -21 -13 -61 -20 -89 -8 -27 -22 -97 -31 -155 -8 -58 -20 -130 -25
-160 -6 -30 -10 -152 -11 -270 0 -137 5 -259 15 -338 9 -67 20 -130 25 -140 5
-9 14 -44 21 -77 7 -32 18 -73 25 -90 7 -16 23 -64 36 -105 12 -41 22 -79 21
-84 -2 -4 6 -23 17 -41 10 -18 22 -48 26 -66 4 -19 16 -51 26 -71 11 -21 17
-38 13 -38 -4 0 -2 -6 4 -13 6 -7 16 -34 21 -59 6 -26 31 -95 57 -155 25 -59
62 -135 81 -168 20 -33 56 -90 80 -127 25 -37 51 -72 59 -79 8 -6 14 -16 14
-21 0 -6 24 -38 53 -72 28 -33 62 -72 75 -86 12 -14 22 -30 22 -37 0 -7 4 -13
9 -13 5 0 26 -24 48 -52 22 -29 53 -67 69 -84 16 -17 57 -64 89 -105 33 -40
68 -82 79 -92 14 -15 17 -27 11 -61 -3 -22 -11 -79 -16 -126 -6 -47 -13 -240
-15 -430 -3 -196 -1 -384 5 -435 5 -49 12 -99 14 -110 3 -11 8 -74 12 -140 4
-69 13 -132 21 -148 8 -15 22 -27 32 -27 9 0 23 9 30 20 6 11 10 34 7 52 -2
18 -10 74 -16 123 -7 50 -13 113 -15 140 -1 28 -5 61 -8 74 -3 13 -9 92 -13
175 -4 83 -7 167 -7 186 0 19 3 116 7 215 3 99 9 207 12 240 3 33 10 77 16 98
5 20 13 37 18 37 4 0 15 -8 23 -18 9 -9 19 -27 23 -40 3 -12 8 -53 10 -90 2
-37 7 -89 11 -117 4 -27 8 -176 8 -330 1 -154 -1 -365 -4 -470 -2 -104 1 -296
8 -425 7 -129 17 -282 22 -340 4 -58 11 -118 13 -135 3 -16 11 -86 17 -155 6
-69 13 -143 15 -165 3 -22 7 -112 10 -200 3 -88 10 -203 15 -255 6 -52 14
-142 19 -200 5 -58 12 -144 16 -192 6 -69 12 -93 30 -113 19 -23 32 -27 101
-32 43 -2 111 -11 149 -18 39 -8 90 -22 115 -31 25 -9 62 -20 83 -24 36 -7 37
-7 33 19 -2 14 -5 33 -5 42 -1 10 -21 22 -57 33 -30 10 -79 23 -107 31 -29 7
-79 16 -112 20 -33 3 -79 11 -102 17 -29 7 -43 16 -46 31 -3 12 -8 65 -12 117
-3 52 -10 122 -16 155 -5 33 -14 105 -19 160 -5 55 -12 127 -14 160 -3 33 -8
110 -11 170 -3 61 -7 128 -10 150 -2 22 -7 81 -10 130 -3 50 -7 108 -10 130
-2 22 -9 78 -14 125 -6 47 -13 127 -16 178 -3 51 -7 110 -10 130 -2 20 -8 100
-12 177 -4 77 -6 253 -4 390 1 138 7 255 11 260 5 6 37 16 72 23 35 7 115 24
178 38 63 14 133 30 155 36 22 7 46 16 53 21 6 5 12 7 12 4 0 -3 28 5 62 19
34 13 74 24 88 24 14 0 35 -7 46 -15 10 -8 27 -15 36 -15 9 0 18 -3 20 -7 2
-5 44 -32 93 -61 50 -30 97 -58 105 -63 8 -5 25 -13 37 -18 11 -6 23 -14 26
-18 3 -5 8 -128 11 -273 3 -146 8 -308 11 -360 3 -52 7 -126 11 -165 3 -38 7
-115 8 -170 2 -55 9 -158 16 -230 6 -71 13 -152 15 -180 2 -27 4 -105 6 -172
1 -67 12 -198 23 -292 18 -144 25 -173 43 -193 16 -17 35 -24 65 -25 24 -1 83
-7 131 -14 48 -7 90 -16 93 -20 3 -5 16 -9 30 -9 13 0 24 4 24 9 0 5 -7 25
-15 45 -11 25 -22 36 -36 36 -11 0 -28 4 -38 9 -9 5 -44 12 -78 16 -33 3 -73
9 -89 14 -27 7 -30 13 -42 82 -7 41 -16 124 -20 184 -4 61 -10 115 -14 120 -3
6 -9 66 -12 135 -4 69 -9 168 -12 220 -3 52 -8 109 -10 125 -3 17 -7 75 -10
130 -2 55 -6 123 -9 150 -3 28 -7 82 -10 120 -3 39 -7 202 -8 363 -3 264 -2
292 13 292 9 0 20 -4 25 -9 6 -5 53 -32 105 -58 52 -27 129 -62 170 -78 41
-15 89 -34 107 -41 17 -8 36 -14 41 -14 6 0 25 -8 44 -17 18 -9 40 -19 48 -23
8 -4 44 -14 80 -23 36 -9 92 -23 125 -31 33 -8 121 -30 195 -49 74 -19 182
-42 240 -51 58 -9 119 -21 135 -27 17 -5 111 -16 210 -25 115 -9 239 -13 345
-9 91 3 225 10 297 17 73 6 135 10 137 7 2 -2 6 -40 7 -84 2 -44 2 -165 0
-270 -1 -104 -8 -253 -16 -330 -8 -77 -17 -180 -21 -230 -4 -49 -8 -136 -9
-192 0 -57 1 -107 5 -113 3 -5 39 -12 79 -15 40 -3 90 -12 110 -20 20 -8 68
-19 106 -25 39 -5 120 -16 180 -24 61 -7 171 -14 245 -15 74 0 180 -5 235 -11
55 -5 168 -16 250 -24 83 -8 168 -20 190 -26 22 -6 58 -13 80 -15 22 -3 107
-12 189 -20 82 -9 158 -17 170 -20 12 -2 57 -7 101 -10 44 -4 110 -8 147 -10
38 -2 78 -1 89 2 20 6 21 10 14 72 -4 36 -5 107 -4 156 2 50 2 193 1 319 -2
126 -8 241 -13 255 -6 13 -14 122 -19 240 -5 119 -12 421 -16 671 -4 250 -8
533 -8 629 l-1 175 117 100 c65 56 159 138 211 183 51 45 161 151 243 236 83
86 168 181 190 211 21 31 48 72 60 91 11 19 31 46 44 60 12 13 29 35 36 47 7
13 35 66 62 118 27 52 72 138 99 190 27 52 55 111 63 130 7 19 19 42 26 50 7
8 12 17 11 20 -1 3 11 32 26 65 16 33 33 67 38 75 5 8 22 42 38 75 16 33 37
80 46 105 8 25 25 74 37 110 11 36 32 99 45 140 14 41 27 84 29 95 2 11 8 40
13 65 5 25 17 79 26 120 9 41 21 109 26 150 5 41 16 149 24 240 8 91 17 181
19 200 3 19 8 64 12 100 4 36 7 198 8 360 1 206 -3 318 -12 370 -8 41 -19 93
-25 115 -6 22 -14 45 -18 50 -4 6 -10 24 -13 40 -3 17 -21 77 -41 133 -19 57
-42 113 -50 125 -8 12 -15 28 -15 37 0 8 -12 46 -26 85 -14 38 -32 84 -39 100
-8 17 -26 55 -40 85 -14 30 -37 75 -50 99 -14 24 -25 49 -25 54 0 6 -6 18 -14
26 -7 9 -25 36 -38 61 -14 25 -36 63 -49 85 -13 22 -27 45 -31 50 -4 6 -25 31
-45 56 -21 26 -49 62 -62 80 -14 19 -85 94 -160 166 -74 73 -161 152 -193 175
-32 23 -58 46 -58 49 0 4 -39 36 -87 71 -49 35 -113 81 -144 101 -31 20 -61
37 -68 37 -6 0 -11 5 -11 10 0 6 -5 10 -10 10 -6 0 -55 21 -108 48 -54 26
-123 58 -153 72 l-55 25 3 375 c1 206 5 398 7 425 2 28 7 97 10 155 4 58 3
156 -1 219 l-8 114 -90 3 c-49 2 -130 8 -180 13 -49 6 -196 13 -325 16 -129 3
-309 7 -400 10 -91 3 -307 9 -480 14 -173 5 -335 8 -360 7z m140 -82 c63 -2
264 -5 445 -9 182 -3 402 -8 490 -10 88 -3 283 -7 433 -11 149 -3 272 -7 272
-8 1 0 6 -46 12 -101 5 -55 10 -125 11 -155 0 -30 -3 -82 -6 -115 -3 -33 -8
-91 -12 -130 -4 -38 -7 -208 -8 -377 -1 -168 -6 -310 -10 -314 -4 -5 -20 -3
-35 3 -15 6 -70 29 -122 51 -52 21 -117 46 -145 55 -27 8 -86 25 -130 37 -44
12 -93 26 -110 31 -16 6 -101 28 -187 49 -86 22 -186 44 -222 50 -36 6 -71 12
-78 15 -7 2 -83 11 -168 19 -85 8 -216 18 -290 21 -74 2 -191 0 -260 -6 -69
-5 -147 -12 -175 -15 -27 -2 -84 -9 -125 -15 -41 -6 -102 -17 -135 -26 -33 -8
-69 -16 -80 -18 -11 -2 -47 -11 -80 -19 -33 -8 -114 -28 -180 -45 -66 -17
-163 -46 -215 -63 -52 -17 -117 -41 -145 -53 -27 -12 -75 -32 -105 -45 -30
-12 -104 -47 -165 -76 -60 -29 -152 -81 -204 -116 -52 -35 -102 -67 -111 -73
-9 -5 -36 -26 -60 -45 -24 -19 -107 -94 -184 -166 -78 -73 -179 -174 -226
-225 -47 -51 -108 -116 -136 -144 -29 -27 -56 -57 -60 -66 -5 -9 -26 -36 -46
-60 -21 -24 -57 -68 -81 -96 -24 -29 -50 -65 -57 -80 -8 -16 -28 -46 -45 -68
-17 -22 -36 -53 -43 -68 -6 -15 -19 -30 -27 -33 -9 -4 -24 -26 -35 -50 -11
-23 -24 -46 -30 -49 -5 -3 -22 -32 -36 -63 -14 -31 -34 -68 -43 -82 -10 -14
-21 -38 -25 -55 -4 -16 -23 -61 -42 -100 -19 -38 -44 -101 -54 -140 -11 -38
-27 -99 -36 -135 -9 -36 -20 -79 -25 -96 -5 -17 -9 -43 -9 -58 0 -15 -7 -71
-15 -124 -8 -53 -17 -123 -21 -154 l-5 -58 -37 0 c-20 -1 -55 -5 -77 -9 -22
-5 -65 -16 -96 -24 -31 -8 -77 -25 -102 -36 -25 -12 -68 -36 -94 -53 -26 -18
-54 -37 -62 -43 -8 -5 -35 -31 -61 -57 -26 -26 -73 -76 -103 -111 -31 -35 -72
-89 -91 -121 -19 -32 -38 -72 -42 -89 -3 -18 -10 -36 -14 -42 -4 -5 -15 -32
-24 -60 -9 -27 -28 -110 -41 -184 -16 -85 -22 -150 -18 -175 3 -23 16 -62 29
-88 14 -28 24 -65 24 -90 0 -35 8 -55 39 -98 22 -30 64 -81 93 -113 29 -32 60
-70 68 -84 8 -15 22 -34 31 -43 9 -10 44 -32 78 -50 33 -18 61 -37 61 -41 0
-5 7 -9 15 -9 8 0 15 -4 15 -8 0 -5 19 -18 43 -30 23 -11 72 -32 108 -46 36
-14 84 -28 107 -32 33 -5 42 -11 42 -26 0 -11 -4 -27 -9 -37 -6 -10 -11 -60
-12 -112 -1 -52 -3 -112 -6 -134 -4 -34 -10 -43 -36 -54 -18 -8 -70 -32 -117
-53 -46 -22 -108 -49 -136 -59 -29 -11 -58 -26 -64 -34 -7 -8 -21 -15 -31 -15
-11 0 -37 -11 -59 -25 -38 -24 -40 -28 -34 -63 3 -20 1 -71 -5 -112 -6 -41
-22 -110 -36 -152 -14 -43 -28 -103 -30 -134 -3 -31 -7 -59 -10 -64 -3 -4 -7
-36 -11 -71 -3 -35 -9 -68 -13 -72 -4 -4 -25 14 -47 40 -21 26 -78 95 -127
153 -48 58 -91 110 -95 115 -4 6 -23 29 -42 51 -19 23 -56 68 -82 101 -27 34
-48 65 -48 69 0 5 -15 26 -34 46 -19 20 -32 39 -30 41 3 2 -2 10 -11 17 -8 7
-15 18 -15 25 0 7 -6 18 -14 24 -8 7 -24 33 -37 59 -12 26 -23 52 -25 57 -1 6
-16 42 -33 80 -18 39 -38 81 -45 95 -7 14 -16 38 -20 54 -4 15 -15 47 -25 70
-10 22 -41 113 -69 201 -28 88 -56 183 -63 210 -7 28 -15 55 -20 60 -4 6 -16
55 -27 110 -12 55 -26 141 -33 190 -8 60 -9 156 -5 289 3 109 13 237 21 285 8
47 16 102 19 121 3 19 14 76 25 125 10 50 26 115 34 145 9 30 21 75 28 100 6
25 20 72 31 105 10 33 21 67 23 75 2 8 21 65 42 125 21 61 41 115 45 120 3 6
9 26 13 45 4 19 12 41 16 50 5 8 25 58 45 110 20 52 42 106 50 120 7 14 25 52
40 85 14 33 39 87 54 120 16 33 51 109 79 168 28 60 51 114 51 122 0 7 4 15 9
17 5 2 20 26 33 53 14 28 46 88 72 135 26 47 54 92 62 101 8 8 14 19 14 23 0
3 17 28 38 54 20 27 46 61 57 76 11 15 42 58 69 94 27 37 63 83 80 103 17 21
51 61 76 90 25 30 71 81 103 115 31 33 57 66 57 72 0 7 3 12 8 12 4 0 23 15
42 33 19 17 69 63 110 101 41 38 130 115 196 170 67 56 134 110 148 120 15 11
37 28 49 38 12 10 28 23 35 29 7 6 61 43 119 82 58 40 144 98 190 129 47 32
131 83 186 114 56 30 109 59 117 64 8 5 63 34 122 64 59 30 135 67 170 81 35
15 77 32 93 40 17 7 42 17 58 20 15 4 30 11 33 16 3 5 14 9 25 9 11 0 30 7 43
15 13 9 48 25 78 37 29 11 89 34 133 50 44 16 109 38 145 49 36 10 74 23 85
29 11 5 75 23 142 40 67 17 187 42 265 57 79 14 186 33 238 43 52 10 160 30
240 45 80 14 197 29 260 34 63 4 167 6 230 5z m43 -975 c103 0 231 -4 285 -9
53 -6 153 -20 222 -31 69 -10 168 -29 220 -40 52 -12 145 -34 205 -49 61 -16
151 -40 200 -54 50 -14 143 -46 207 -70 65 -25 146 -60 180 -78 54 -28 63 -37
61 -58 -1 -14 -3 -144 -3 -290 0 -146 1 -364 4 -485 2 -121 8 -337 13 -480 4
-143 8 -350 7 -460 0 -110 -2 -256 -3 -325 -1 -69 1 -204 4 -300 3 -96 7 -256
11 -355 3 -99 7 -326 10 -505 3 -179 5 -442 5 -585 0 -143 5 -296 11 -340 6
-44 12 -183 14 -310 2 -126 6 -360 9 -520 3 -159 6 -374 6 -476 l2 -187 -39
-34 c-21 -19 -67 -56 -101 -82 -34 -25 -66 -53 -71 -62 -4 -8 -38 -38 -74 -67
-36 -28 -76 -59 -88 -67 -13 -8 -40 -30 -62 -48 -22 -17 -86 -62 -142 -99 -55
-37 -136 -88 -179 -115 -43 -26 -81 -48 -84 -48 -3 0 -31 -12 -62 -27 -31 -15
-57 -31 -59 -35 -2 -4 -8 -8 -14 -8 -5 0 -58 -23 -116 -51 -59 -28 -136 -64
-172 -81 -36 -17 -74 -34 -85 -39 -11 -5 -60 -23 -110 -40 -49 -17 -112 -38
-140 -46 -27 -8 -66 -18 -85 -22 -19 -5 -71 -16 -115 -25 -44 -9 -97 -19 -119
-22 -27 -4 -41 -2 -47 7 -5 8 -8 158 -8 334 0 176 -2 361 -5 410 -4 50 -11
146 -16 215 -6 69 -17 235 -25 370 -8 135 -17 306 -19 380 -3 74 -6 189 -6
255 -1 66 -1 148 -1 183 1 51 4 64 19 68 9 3 35 12 57 21 22 8 53 21 68 29 16
8 35 14 44 14 8 0 44 14 80 30 35 16 68 30 73 30 5 0 57 24 117 54 59 29 124
61 143 71 19 10 68 40 109 68 41 27 80 54 86 61 7 6 30 24 51 41 21 16 68 60
104 96 36 36 88 92 115 125 28 32 62 78 77 101 15 24 49 71 76 106 27 34 60
81 74 103 15 22 33 47 40 55 8 8 26 30 39 50 13 20 42 62 64 95 22 32 48 73
57 89 10 17 34 62 52 100 18 39 40 86 49 105 8 19 22 55 31 80 8 25 25 79 37
120 12 41 25 98 30 125 5 28 12 131 15 230 4 109 2 229 -5 305 -6 69 -16 139
-21 155 -5 17 -16 64 -25 105 -9 41 -27 113 -41 160 -14 47 -32 99 -39 115 -8
17 -20 45 -27 63 -7 17 -16 32 -19 32 -4 0 -11 12 -17 28 -5 15 -31 59 -58 97
-27 39 -70 92 -96 119 -27 28 -48 53 -48 57 0 5 -6 12 -14 16 -7 4 -38 31 -69
58 -30 28 -77 69 -104 91 -27 23 -74 57 -104 77 -30 19 -77 46 -105 60 -28 14
-93 38 -145 52 -52 15 -101 31 -109 35 -9 4 -43 13 -75 19 -33 7 -82 17 -110
24 -31 7 -136 11 -280 10 -210 -1 -240 -3 -344 -27 -62 -14 -134 -37 -160 -50
-25 -13 -102 -51 -171 -86 -69 -34 -132 -67 -140 -74 -8 -7 -23 -16 -32 -19
-10 -3 -48 -27 -86 -52 -38 -25 -75 -45 -81 -45 -7 0 -44 -33 -84 -72 -40 -40
-87 -98 -105 -128 -18 -30 -38 -64 -44 -75 -7 -11 -34 -52 -60 -92 -27 -40
-48 -76 -48 -81 0 -5 -6 -15 -14 -22 -8 -6 -36 -53 -61 -103 -26 -51 -59 -123
-75 -162 -15 -38 -37 -99 -48 -135 -11 -36 -26 -116 -32 -178 -7 -62 -10 -141
-6 -175 3 -34 10 -84 16 -112 5 -27 12 -63 14 -80 2 -16 8 -46 13 -65 6 -19
34 -84 64 -143 30 -59 68 -134 84 -165 17 -32 40 -72 53 -89 12 -17 22 -35 22
-40 0 -5 24 -31 53 -59 28 -28 70 -58 92 -67 22 -9 87 -23 145 -32 58 -9 119
-21 135 -26 17 -6 50 -14 75 -19 25 -5 77 -16 115 -24 51 -12 98 -15 175 -11
58 3 137 7 177 9 l72 4 0 -92 c0 -50 3 -102 6 -116 4 -14 9 -149 11 -300 2
-151 9 -297 14 -325 6 -27 12 -101 13 -163 l3 -112 -41 -11 c-22 -5 -47 -12
-55 -15 -8 -3 -85 -10 -170 -14 -97 -6 -183 -6 -230 0 -41 6 -118 14 -170 19
-52 5 -131 16 -175 25 -44 9 -137 27 -206 41 -70 14 -142 25 -160 25 -19 0
-56 7 -84 16 -27 9 -81 30 -120 46 -38 17 -94 46 -124 66 -29 21 -64 44 -77
52 -13 8 -60 42 -105 75 -45 33 -120 92 -168 132 -47 39 -113 98 -147 130 -33
32 -68 68 -78 80 -18 21 -17 23 15 62 22 28 43 76 66 149 18 59 39 151 48 204
8 54 15 131 15 170 0 40 -5 102 -11 138 -6 41 -22 83 -41 115 -17 27 -40 66
-51 85 -10 19 -33 53 -50 75 -17 22 -61 66 -98 98 -37 31 -72 57 -77 57 -6 0
-12 4 -14 8 -1 5 -30 25 -63 45 -33 20 -66 37 -73 37 -7 0 -34 12 -60 26 -26
15 -78 36 -117 46 -38 11 -82 22 -97 25 -24 4 -28 10 -28 37 0 17 5 69 10 116
6 47 12 99 15 115 2 17 9 61 15 98 5 37 18 93 28 125 10 31 24 82 32 112 7 30
22 75 34 100 12 25 43 88 69 140 25 52 62 121 82 154 19 32 35 62 35 66 0 4
19 36 43 70 23 34 47 70 53 81 6 11 28 41 48 67 20 26 58 76 83 112 26 36 55
72 65 81 10 9 32 34 49 55 17 22 78 91 137 154 58 63 182 188 276 277 94 90
176 163 181 163 6 0 28 15 50 33 21 17 68 51 104 75 37 24 143 80 236 126 94
45 190 91 215 101 25 10 60 24 78 32 17 8 53 21 80 29 26 8 72 22 102 30 30 9
100 27 155 41 55 14 107 26 115 28 8 2 62 15 120 29 58 13 134 30 170 37 36 6
117 17 180 24 63 7 200 13 303 14z m1661 -395 c11 -4 56 -24 98 -45 43 -22 82
-39 87 -39 6 0 29 -13 53 -29 24 -15 61 -39 84 -52 23 -13 54 -33 70 -44 16
-11 64 -47 107 -80 43 -33 93 -71 111 -86 19 -14 60 -50 92 -80 31 -29 90 -87
130 -126 40 -40 111 -119 157 -175 46 -57 107 -141 135 -188 27 -47 74 -130
103 -185 28 -55 58 -111 65 -125 8 -14 14 -32 14 -40 0 -8 7 -24 15 -34 8 -11
15 -28 15 -38 0 -10 4 -26 10 -36 5 -9 25 -60 45 -112 20 -52 54 -149 76 -215
22 -66 45 -140 50 -165 6 -25 14 -70 20 -100 5 -30 9 -165 9 -300 1 -155 -5
-298 -15 -390 -8 -80 -18 -174 -20 -210 -3 -36 -10 -112 -16 -170 -6 -58 -17
-141 -25 -185 -8 -44 -21 -119 -29 -167 -8 -48 -21 -106 -29 -130 -8 -24 -24
-77 -36 -118 -12 -41 -26 -84 -31 -95 -4 -11 -15 -40 -23 -65 -8 -25 -22 -63
-31 -85 -9 -22 -33 -74 -53 -115 -20 -41 -37 -77 -37 -80 0 -3 -29 -60 -63
-127 -34 -67 -62 -127 -62 -132 0 -6 -14 -34 -31 -63 -18 -29 -52 -93 -77
-143 -25 -49 -63 -116 -84 -147 -21 -31 -38 -59 -38 -63 0 -3 -15 -25 -32 -49
-18 -23 -53 -67 -77 -97 -24 -29 -98 -111 -165 -181 -66 -70 -161 -161 -211
-204 -49 -42 -92 -81 -93 -85 -2 -5 -22 -23 -45 -39 -23 -16 -67 -52 -97 -79
-30 -27 -56 -48 -57 -47 -2 1 -5 180 -7 397 -3 217 -8 509 -11 649 -3 140 -10
295 -16 345 -5 49 -12 153 -14 230 -2 77 -6 311 -9 520 -4 209 -9 517 -12 685
-4 168 -8 308 -10 311 -1 3 -3 104 -4 225 -1 120 -1 382 0 581 0 198 -2 367
-4 375 -3 7 -7 108 -10 223 -3 116 -6 386 -6 601 0 215 2 399 6 408 4 12 13
15 28 10z m-1749 -811 c44 -2 109 -6 144 -9 36 -3 96 -14 135 -25 39 -12 85
-24 101 -29 17 -5 52 -16 78 -24 27 -9 74 -28 105 -44 31 -16 62 -30 67 -31 6
-1 36 -21 69 -44 32 -23 86 -64 120 -92 33 -27 97 -86 142 -130 44 -44 99
-106 122 -137 23 -31 42 -61 42 -67 0 -5 4 -11 9 -13 4 -1 24 -32 43 -68 19
-36 44 -90 56 -120 12 -30 32 -100 45 -155 13 -55 32 -134 41 -175 9 -41 20
-97 26 -125 5 -28 8 -144 6 -260 -3 -132 -10 -236 -19 -280 -8 -38 -23 -99
-32 -135 -10 -36 -21 -69 -25 -75 -4 -5 -11 -26 -15 -45 -4 -19 -16 -52 -26
-75 -11 -22 -28 -53 -39 -70 -11 -16 -28 -46 -39 -65 -10 -19 -28 -52 -39 -73
-11 -21 -40 -65 -64 -98 -23 -34 -68 -93 -99 -133 -31 -39 -58 -78 -61 -86 -3
-8 -33 -50 -67 -94 -33 -43 -61 -83 -61 -88 0 -5 -39 -52 -87 -103 -49 -52
-117 -116 -153 -144 -36 -28 -74 -60 -85 -70 -11 -11 -46 -36 -79 -56 -32 -19
-62 -35 -66 -35 -4 0 -19 -9 -32 -20 -14 -10 -81 -44 -149 -75 -68 -31 -137
-62 -154 -69 -16 -8 -48 -19 -70 -26 -22 -7 -44 -16 -50 -20 -5 -4 -34 -13
-62 -21 -29 -7 -56 -10 -59 -6 -4 4 -9 55 -11 114 -2 58 -7 140 -12 182 -4 42
-9 144 -10 226 -2 83 -5 188 -7 235 -2 47 -7 135 -11 197 -5 61 -6 122 -3 134
4 16 20 27 60 40 30 10 61 19 68 19 7 0 39 12 70 27 31 15 82 46 112 68 30 22
63 47 74 55 10 8 44 38 75 66 31 28 72 64 91 80 19 16 44 40 55 53 11 14 30
41 42 60 13 20 38 68 56 106 18 39 41 99 51 135 9 36 22 79 27 96 5 18 10 98
10 179 0 81 -5 170 -11 198 -7 29 -21 81 -32 117 -11 36 -38 101 -59 145 -21
44 -47 93 -57 110 -9 16 -20 34 -24 40 -4 5 -21 26 -37 46 -17 20 -28 38 -26
41 3 3 -38 48 -90 101 -52 53 -108 103 -124 111 -16 9 -48 22 -72 31 -26 10
-90 18 -159 21 -103 5 -122 3 -187 -19 -40 -14 -94 -37 -119 -52 -26 -15 -63
-43 -84 -61 -21 -19 -41 -34 -45 -34 -4 0 -25 -14 -47 -31 -22 -18 -52 -50
-66 -73 -15 -23 -35 -59 -45 -81 -10 -22 -22 -42 -26 -45 -5 -3 -29 -50 -55
-106 l-46 -101 -2 -159 c-3 -154 -2 -161 25 -231 16 -40 33 -75 38 -79 5 -3 9
-14 9 -25 0 -10 4 -19 9 -19 5 0 22 -20 38 -44 21 -34 48 -56 113 -93 47 -26
94 -52 105 -56 11 -5 68 -9 128 -8 l107 0 1 -27 c1 -15 2 -132 3 -261 1 -156
-2 -238 -9 -248 -9 -12 -50 -18 -177 -25 -155 -10 -171 -9 -244 10 -44 12
-141 33 -216 47 -76 14 -157 32 -181 39 -24 7 -66 31 -94 52 -28 21 -54 46
-57 54 -3 8 -26 48 -51 88 -25 41 -45 77 -45 82 0 4 -6 13 -14 19 -8 6 -24 39
-36 72 -13 34 -33 76 -46 94 -14 22 -30 72 -43 142 -11 59 -23 126 -26 149 -3
22 -1 89 5 149 6 60 20 144 31 185 11 41 23 84 28 95 5 11 39 83 75 160 36 77
69 146 73 152 5 7 35 52 67 100 33 49 74 111 92 138 18 28 52 71 76 96 24 25
60 57 80 72 20 15 39 27 42 27 3 0 40 23 82 51 42 28 111 70 153 91 42 22 92
49 111 59 19 10 55 28 80 40 25 12 65 28 90 35 25 8 74 22 110 31 36 9 128 19
205 23 77 3 176 5 220 3z m-255 -554 c31 0 82 -6 114 -14 32 -8 68 -22 79 -30
12 -8 26 -15 33 -15 6 0 44 -33 85 -74 41 -41 87 -90 102 -108 15 -18 53 -75
82 -127 30 -51 55 -97 55 -101 0 -4 9 -18 20 -32 10 -14 28 -61 40 -104 11
-43 26 -90 33 -103 8 -17 12 -73 11 -175 -1 -89 -7 -169 -15 -196 -7 -25 -13
-47 -14 -50 0 -3 -4 -16 -9 -30 -4 -14 -11 -34 -16 -45 -5 -11 -20 -45 -35
-76 -14 -31 -35 -66 -46 -77 -10 -12 -19 -25 -19 -30 0 -4 -20 -26 -45 -48
-25 -21 -89 -79 -143 -128 -53 -49 -111 -95 -129 -102 -17 -7 -37 -20 -45 -28
-8 -8 -58 -27 -111 -44 -54 -16 -99 -26 -102 -22 -3 4 -6 75 -7 156 0 82 1
205 4 273 l6 124 34 21 c19 12 53 36 75 53 24 19 51 55 66 86 14 30 35 85 47
123 12 40 21 96 22 134 0 55 -6 76 -36 135 -20 39 -48 82 -63 97 -16 15 -38
36 -50 47 -12 11 -42 31 -68 45 -35 20 -60 26 -107 26 l-62 0 -56 -57 c-33
-35 -63 -77 -74 -106 -12 -32 -16 -60 -12 -82 4 -22 24 -52 54 -83 31 -32 61
-53 88 -61 l42 -11 0 -78 c1 -42 9 -116 19 -164 l19 -87 -53 -7 c-29 -3 -79
-3 -111 1 -38 5 -71 17 -100 36 -24 16 -47 29 -52 29 -5 0 -37 27 -70 59 -33
32 -60 65 -60 73 0 7 -9 29 -19 49 -11 20 -27 60 -35 90 -10 33 -16 84 -15
131 1 42 6 102 11 134 5 31 15 66 23 78 8 11 15 26 15 33 0 7 17 42 38 78 20
36 47 84 59 107 11 22 38 58 59 79 21 22 42 39 47 39 5 0 30 17 56 39 25 21
73 52 107 70 33 17 87 35 120 40 32 5 84 9 114 10z m-161 -519 c32 0 67 -10
109 -30 49 -24 68 -40 100 -87 21 -32 46 -71 54 -88 13 -24 14 -46 9 -105 -5
-50 -18 -97 -38 -141 -22 -47 -47 -80 -89 -117 -32 -29 -61 -52 -65 -52 -4 0
-10 8 -13 18 -3 9 -9 51 -13 92 -4 41 -6 100 -5 130 1 30 4 69 7 87 5 31 4 32
-32 38 -21 4 -50 9 -66 12 -15 2 -43 19 -62 38 -26 24 -35 41 -35 65 0 23 12
46 46 86 44 51 49 54 93 54z m-2740 -524 c10 -1 14 -25 17 -96 2 -52 9 -117
16 -145 6 -27 22 -81 34 -120 12 -38 50 -128 84 -200 34 -71 75 -158 91 -191
16 -34 44 -83 62 -110 19 -27 59 -86 89 -131 31 -45 54 -84 50 -87 -3 -3 -34
-6 -68 -6 -55 0 -63 -3 -69 -21 -5 -14 0 -28 15 -44 20 -21 27 -23 100 -18 43
3 89 3 103 -1 14 -3 34 -22 47 -42 15 -26 18 -40 11 -47 -8 -8 -15 -5 -25 8
-11 15 -24 19 -53 16 -21 -1 -99 -14 -173 -28 -74 -13 -146 -26 -160 -28 -14
-2 -52 -7 -85 -10 -33 -4 -66 -12 -72 -17 -7 -6 -13 -16 -13 -22 0 -7 10 -22
21 -35 16 -17 28 -21 47 -16 14 3 60 10 103 15 43 5 108 18 146 29 37 12 97
25 133 30 36 5 67 7 68 6 2 -2 -10 -10 -26 -19 -16 -8 -45 -32 -63 -53 -19
-20 -49 -51 -67 -69 -22 -21 -75 -48 -152 -78 -111 -43 -125 -46 -213 -46
l-95 0 -16 40 c-10 25 -22 40 -33 40 -9 0 -30 4 -47 9 -17 5 -56 17 -86 26
-30 10 -93 38 -139 64 -46 25 -108 70 -137 99 -30 30 -70 73 -89 96 -19 24
-48 72 -63 107 -16 35 -32 73 -37 84 -4 11 -10 29 -12 40 -2 11 -6 47 -9 80
-4 38 0 89 10 139 9 43 25 104 36 135 10 31 30 85 44 120 14 36 52 98 83 140
32 41 82 101 111 133 30 32 84 78 120 102 37 24 96 55 132 69 36 14 90 30 120
36 30 6 64 13 75 15 11 2 26 3 34 2z m77 -6 c5 0 43 -9 84 -19 41 -11 99 -27
128 -36 28 -8 52 -20 52 -25 0 -6 7 -10 16 -10 8 0 47 -21 87 -47 40 -26 97
-66 127 -89 30 -23 65 -53 76 -65 12 -13 34 -44 49 -67 14 -24 38 -64 52 -89
14 -25 27 -57 29 -72 2 -14 6 -67 10 -118 5 -68 3 -113 -10 -180 -10 -48 -27
-122 -38 -163 -11 -41 -30 -93 -40 -115 -11 -22 -27 -48 -36 -57 -8 -10 -21
-18 -27 -18 -7 0 -18 15 -25 33 -7 17 -22 52 -35 77 -12 25 -28 62 -35 84 -7
21 -31 71 -55 110 -28 48 -45 91 -50 125 -4 33 -15 61 -28 74 l-21 21 -12 -30
c-8 -19 -9 -35 -3 -46 5 -10 7 -18 4 -18 -2 0 3 -19 12 -42 9 -24 26 -59 38
-78 12 -19 25 -45 29 -57 5 -17 4 -22 -6 -18 -8 3 -29 29 -48 58 -19 28 -51
86 -72 127 -22 41 -54 104 -74 140 -19 36 -50 101 -70 145 -20 44 -42 105 -50
135 -8 30 -18 65 -21 78 -3 12 -9 22 -13 22 -4 0 -10 28 -13 63 -4 34 -10 86
-13 115 -4 28 -3 52 2 52z m583 -1300 c4 0 17 -13 31 -30 14 -16 30 -30 37
-30 7 0 13 -6 13 -13 0 -7 33 -44 74 -82 41 -39 98 -86 126 -105 28 -19 63
-44 77 -55 14 -11 33 -27 42 -35 9 -9 39 -31 66 -50 28 -19 56 -43 63 -52 7
-10 19 -18 26 -18 7 0 31 -12 52 -26 21 -15 62 -35 89 -44 28 -10 73 -29 100
-43 29 -14 86 -30 135 -37 47 -7 110 -17 140 -23 30 -6 58 -10 62 -9 4 1 37
-5 73 -13 36 -9 112 -23 168 -31 56 -9 125 -18 152 -21 28 -2 57 -7 65 -10 8
-3 24 -7 35 -9 11 -2 81 -3 155 -3 74 0 167 4 205 10 39 5 93 12 121 15 l51 6
6 -89 c3 -48 6 -193 7 -322 1 -129 3 -237 5 -240 1 -3 6 -78 10 -166 5 -88 8
-169 8 -180 -1 -11 4 -69 9 -130 5 -60 11 -130 13 -155 2 -25 6 -119 10 -210
4 -91 6 -288 6 -439 0 -194 -3 -276 -11 -281 -6 -4 -100 -13 -208 -20 -108 -7
-262 -12 -341 -11 -78 0 -147 3 -151 6 -5 3 -60 10 -122 15 -62 5 -156 16
-208 25 -52 8 -151 27 -220 41 -69 14 -132 30 -140 34 -9 4 -31 11 -50 15 -19
3 -48 10 -65 15 -16 5 -50 14 -75 21 -25 6 -90 27 -145 47 -55 19 -129 46
-165 59 -36 14 -85 34 -110 45 -25 12 -92 44 -150 73 -58 28 -119 60 -137 71
-29 17 -31 22 -37 94 -3 41 -8 97 -12 123 -4 31 -2 53 5 60 6 6 11 23 11 38 0
15 -4 30 -9 33 -5 4 -10 68 -11 144 -1 75 -3 151 -6 167 -3 17 -6 252 -8 523
-1 270 0 492 4 492 4 0 15 -28 24 -63 10 -35 21 -88 26 -118 4 -30 18 -112 30
-184 12 -71 30 -168 41 -215 10 -47 23 -119 30 -160 6 -41 17 -104 24 -140 8
-36 16 -102 19 -147 3 -45 10 -99 15 -120 6 -21 10 -47 10 -58 -1 -11 8 -85
19 -165 10 -80 20 -163 21 -184 1 -21 7 -48 13 -60 6 -12 16 -24 22 -28 6 -4
14 -8 18 -8 4 0 15 11 23 24 14 21 15 36 5 103 -5 43 -12 96 -15 118 -2 22
-11 78 -19 125 -8 47 -19 108 -26 135 -6 28 -15 95 -20 150 -5 55 -14 136 -20
180 -6 44 -20 113 -31 154 -10 41 -19 85 -19 97 0 12 -6 44 -14 70 -8 27 -22
87 -31 134 -9 47 -18 94 -20 105 -2 11 -7 44 -11 73 -4 29 -11 55 -15 58 -5 3
-9 27 -9 54 0 27 -4 51 -9 54 -4 3 -11 23 -15 43 -3 21 -19 65 -36 97 -16 32
-30 68 -30 80 0 12 -14 36 -31 54 l-30 33 -57 -21 c-31 -12 -77 -28 -102 -36
-25 -9 -54 -19 -65 -24 -11 -5 -31 -11 -45 -14 -14 -3 -71 -15 -127 -27 -56
-13 -106 -19 -110 -15 -4 4 -7 58 -5 119 1 62 6 128 10 147 7 31 12 35 42 37
19 1 63 4 97 7 34 3 70 10 80 15 10 5 38 19 63 30 25 11 56 23 70 26 14 3 61
40 105 82 44 42 103 91 130 109 28 17 61 44 74 58 14 14 27 26 30 26z m-226
-621 c14 1 17 -7 17 -41 1 -24 1 -214 1 -423 0 -209 4 -459 9 -555 5 -96 10
-242 12 -324 2 -134 0 -149 -16 -158 -10 -6 -80 -26 -155 -44 -75 -19 -148
-35 -162 -36 -14 -1 -41 5 -60 15 -19 9 -43 25 -54 37 -10 11 -22 20 -28 20
-5 0 -23 12 -41 26 -17 14 -54 40 -83 57 -28 18 -79 50 -113 72 -35 22 -81 55
-104 73 -22 18 -48 39 -56 45 -9 7 -35 25 -58 41 -24 16 -48 39 -55 50 -6 12
-12 75 -14 141 -2 66 -5 210 -6 320 -1 166 2 208 16 245 9 25 17 53 17 63 0
11 9 32 21 48 11 16 26 29 32 29 7 0 35 11 62 25 28 13 56 25 64 25 7 0 41 13
75 29 33 16 88 38 122 49 33 11 69 24 80 30 10 6 37 15 59 20 22 6 94 25 160
42 66 17 147 42 180 55 33 13 68 24 78 24z m-1038 -861 c1 -2 5 -45 9 -96 7
-92 7 -93 -14 -82 -12 6 -25 21 -29 33 -6 14 -4 29 5 42 8 11 14 36 14 56 0
19 3 39 7 42 3 4 7 6 8 5z m122 -415 c16 -10 55 -39 88 -65 34 -25 85 -63 114
-82 29 -20 55 -36 57 -36 3 0 28 -16 57 -35 28 -19 80 -54 114 -77 34 -24 62
-46 63 -49 0 -4 -12 -10 -27 -14 -16 -3 -41 -13 -58 -20 -16 -7 -46 -18 -65
-24 -19 -7 -95 -25 -167 -41 -73 -17 -148 -30 -165 -30 l-33 0 3 117 c2 65 -2
169 -8 230 -7 62 -10 120 -6 128 5 14 9 14 33 -2z m5395 -103 c5 0 9 -28 8
-62 0 -35 1 -223 4 -418 3 -195 7 -527 10 -738 3 -211 8 -387 11 -392 3 -4 7
-149 10 -322 3 -172 9 -336 14 -365 4 -29 5 -57 1 -62 -3 -6 -22 -11 -40 -12
-19 -1 -93 3 -165 10 -71 6 -164 16 -205 21 -41 6 -96 12 -122 15 -27 2 -90 9
-140 15 -51 6 -136 17 -188 25 -52 8 -131 19 -175 24 -44 6 -127 13 -185 16
-58 3 -177 7 -264 10 -88 4 -162 8 -166 10 -3 2 -38 7 -76 10 -38 3 -80 10
-94 15 -14 4 -54 13 -90 19 -36 7 -84 17 -107 24 -24 6 -43 16 -44 22 0 5 -1
60 -1 120 0 61 7 193 16 295 9 102 17 307 18 455 l3 270 69 7 c38 4 80 11 95
16 14 6 48 13 74 16 26 3 80 16 120 29 40 14 110 37 157 52 47 15 131 49 186
76 56 27 104 49 108 49 3 0 88 40 189 89 100 49 189 96 196 105 7 9 22 16 32
16 10 0 21 5 24 10 4 6 23 19 43 29 20 11 46 28 57 38 11 11 27 22 35 25 9 3
58 36 110 72 52 37 103 72 114 79 10 6 50 38 90 71 39 32 91 77 116 101 25 23
67 58 94 79 27 20 53 36 58 36z m-4449 -231 c15 1 17 -10 17 -94 0 -86 -2 -94
-18 -87 -9 4 -51 26 -92 50 -41 23 -84 49 -94 57 -11 8 -18 17 -15 19 2 2 45
15 94 29 50 13 98 25 108 26z"/>
<g>
<path d="M8301 4796 c-25 2 -57 0 -71 -5 -14 -4 -44 -18 -67 -30 -30 -15 -49
-34 -64 -64 -12 -23 -23 -66 -25 -97 -2 -30 2 -72 8 -93 6 -21 28 -53 50 -72
21 -19 62 -46 91 -60 44 -22 60 -25 108 -20 48 6 64 13 105 50 l49 43 -2 77
c-2 63 -8 88 -34 140 -17 35 -47 78 -67 96 -27 25 -46 33 -81 35z m-11 -86
c34 0 50 -6 67 -23 12 -13 28 -45 36 -73 9 -27 18 -64 21 -82 5 -26 1 -38 -18
-57 -13 -13 -42 -29 -65 -35 -37 -10 -48 -8 -95 13 -29 14 -63 38 -74 55 -12
16 -22 45 -22 64 0 18 9 48 20 66 11 18 34 41 52 52 20 12 50 20 78 20z"/>
</g>
<g>
<path d="M3713 6358 c-16 5 -38 6 -51 1 -12 -5 -27 -19 -33 -33 -7 -13 -9 -36
-5 -51 4 -14 13 -28 21 -32 9 -3 31 -2 51 1 25 5 38 14 45 34 6 14 8 36 5 48
-3 12 -18 26 -33 32z"/>
</g>
<g>
<path d="M4408 6480 c-18 0 -33 -8 -42 -22 -8 -13 -18 -35 -21 -49 -5 -21 -1
-31 21 -48 18 -14 39 -21 57 -19 24 2 31 10 43 43 7 22 14 43 14 47 0 4 -10
16 -22 28 -12 11 -34 20 -50 20z"/>
</g>
</g>
</g>
</svg>
