<?xml version="1.0" standalone="no"?>
<!DOCTYPE svg PUBLIC "-//W3C//DTD SVG 20010904//EN"
 "http://www.w3.org/TR/2001/REC-SVG-20010904/DTD/svg10.dtd">
<svg version="1.0" xmlns="http://www.w3.org/2000/svg"
 width="900.000000pt" height="1200.000000pt" viewBox="0 0 900.000000 1200.000000"
 preserveAspectRatio="xMidYMid meet">
<metadata>
Created by potrace 1.16, written by Peter Selinger 2001-2019
</metadata>
<g transform="translate(0.000000,1200.000000) scale(0.100000,-0.100000)"
fill="#000000" stroke="none">
<g>
<path d="M5016 11729 c-39 -1 -133 -7 -208 -14 -76 -7 -179 -23 -230 -35 -51
-12 -120 -31 -153 -42 -33 -12 -96 -35 -140 -52 -44 -17 -136 -59 -205 -94
-69 -36 -150 -81 -180 -100 -30 -20 -89 -61 -130 -91 -41 -30 -109 -89 -151
-131 -42 -41 -103 -111 -136 -156 -32 -44 -80 -121 -105 -170 -25 -49 -51
-105 -56 -124 -6 -19 -20 -68 -31 -108 -12 -39 -29 -120 -38 -180 -9 -59 -17
-170 -17 -247 -1 -77 5 -193 12 -257 7 -65 23 -168 37 -230 13 -62 30 -131 36
-153 6 -22 18 -56 26 -75 8 -19 24 -53 35 -75 11 -22 30 -57 41 -77 11 -21 24
-38 29 -38 4 0 14 -12 22 -27 8 -16 35 -50 60 -78 25 -27 46 -53 46 -56 0 -3
35 -35 78 -71 42 -36 88 -76 102 -88 14 -11 34 -29 45 -38 11 -9 38 -29 60
-43 22 -15 63 -39 90 -54 28 -15 100 -43 160 -63 107 -33 117 -35 345 -43 198
-8 246 -7 302 6 37 8 86 15 109 15 23 0 96 13 163 29 66 16 155 42 196 56 41
15 122 51 180 81 58 29 146 81 196 116 51 35 116 83 145 108 29 25 66 59 82
75 17 17 68 72 114 123 45 52 107 131 136 175 30 45 70 112 90 150 20 37 48
99 62 138 14 39 36 110 50 158 13 48 27 130 31 182 3 52 1 130 -5 174 -6 44
-15 108 -20 142 -5 34 -26 122 -46 195 -20 73 -45 160 -56 193 -10 33 -34 103
-52 155 -19 52 -44 115 -57 140 -13 25 -49 83 -80 130 -32 47 -98 124 -148
172 -75 73 -108 96 -201 143 -61 30 -165 73 -230 94 -83 28 -151 43 -227 50
-59 6 -139 10 -178 10z m-21 -51 c61 2 151 -2 200 -8 51 -7 147 -31 220 -55
72 -24 157 -58 190 -75 33 -18 83 -45 112 -61 28 -16 91 -72 140 -123 48 -51
98 -113 111 -137 13 -24 36 -64 51 -89 15 -25 51 -111 79 -190 28 -80 68 -208
88 -285 20 -77 43 -171 50 -210 8 -38 19 -117 25 -174 8 -77 8 -126 0 -191 -6
-48 -27 -136 -47 -196 -20 -60 -49 -138 -65 -173 -16 -34 -63 -114 -105 -177
-42 -63 -106 -147 -143 -186 -36 -39 -72 -79 -78 -89 -7 -9 -43 -41 -80 -71
-38 -29 -75 -60 -83 -69 -8 -10 -52 -42 -97 -72 -45 -30 -138 -83 -207 -116
-97 -47 -161 -70 -283 -101 -87 -22 -181 -40 -208 -40 -28 0 -77 -7 -108 -15
-32 -8 -78 -15 -103 -15 -25 0 -55 7 -69 16 -21 14 -24 14 -33 -2 -8 -15 -25
-16 -158 -11 -121 4 -166 10 -238 32 -49 14 -121 41 -160 60 -39 18 -92 48
-117 66 -25 19 -81 63 -124 99 -43 36 -109 97 -147 135 -37 39 -89 102 -115
140 -26 39 -59 95 -74 125 -14 30 -35 84 -47 120 -12 36 -31 106 -43 155 -11
50 -27 158 -35 240 -8 83 -15 193 -16 245 0 52 5 131 11 175 7 44 19 117 27
163 9 46 30 124 49 173 18 49 52 123 75 163 23 40 60 95 81 122 21 27 49 65
63 84 13 19 45 55 72 80 27 25 72 64 99 87 28 23 94 71 148 107 54 35 149 89
210 120 62 30 137 64 167 76 30 13 105 40 167 61 72 24 154 44 230 54 65 9
138 19 163 23 25 4 95 8 155 10z"/>
</g>
<g>
<path d="M6920 8530 c-20 0 -39 -2 -42 -5 -3 -3 -49 -8 -103 -11 -54 -3 -103
-8 -109 -12 -6 -4 -355 -7 -776 -7 -467 -1 -847 -5 -975 -13 -115 -6 -320 -17
-455 -24 -155 -8 -547 -13 -1067 -13 -535 0 -825 -3 -832 -10 -5 -5 -14 -29
-19 -52 -7 -31 -6 -49 5 -72 l15 -30 121 -4 c67 -2 421 -2 787 0 366 2 703 6
749 8 47 2 117 6 155 9 39 3 186 8 326 12 140 3 260 9 265 13 6 3 379 7 830 7
451 1 836 4 855 7 19 3 85 6 145 7 61 1 124 6 142 12 26 7 32 14 32 36 -1 15
2 46 6 69 5 29 4 48 -5 58 -7 8 -29 15 -50 15z"/>
</g>
<g>
<path d="M3736 7730 c-8 0 -22 -7 -30 -16 -9 -8 -16 -22 -16 -30 0 -9 5 -24
10 -35 7 -12 21 -19 38 -19 16 0 33 5 40 12 7 7 12 20 12 30 0 10 -9 27 -20
38 -11 11 -26 20 -34 20z"/>
</g>
<g>
<path d="M4860 7730 c-15 0 -34 -8 -43 -18 -10 -10 -17 -25 -17 -33 0 -8 7
-25 16 -37 8 -12 25 -22 38 -22 13 0 30 8 39 18 10 10 17 30 17 43 0 14 -5 30
-12 37 -7 7 -24 12 -38 12z"/>
</g>
<g>
<path d="M4271 7580 c-5 0 -12 -4 -15 -8 -2 -4 -12 -44 -20 -87 -9 -44 -20
-118 -26 -165 -5 -47 -14 -123 -20 -169 -6 -46 -7 -87 -3 -91 4 -5 40 -11 79
-15 57 -5 73 -4 83 9 7 8 11 23 9 33 -3 14 -11 17 -45 15 -24 -2 -52 -1 -63 3
-17 5 -20 12 -16 33 3 15 13 99 21 187 8 88 20 174 26 191 7 17 9 38 6 48 -4
9 -11 16 -16 16z"/>
</g>
<g>
<path d="M4669 6787 c-134 -1 -366 -4 -516 -7 -149 -3 -274 -8 -278 -12 -4 -4
-4 -12 0 -18 5 -8 153 -10 527 -8 373 2 522 6 529 14 6 7 5 15 -4 22 -9 8 -93
10 -258 9z"/>
</g>
<g>
<path d="M5197 5918 c-7 1 -16 0 -20 -4 -4 -4 -7 -18 -7 -30 0 -13 5 -26 10
-29 6 -3 10 -13 10 -22 0 -9 18 -53 39 -97 21 -45 44 -101 50 -126 7 -25 17
-57 22 -71 6 -15 12 -37 13 -50 2 -13 15 -73 30 -134 15 -60 31 -123 36 -140
5 -16 13 -55 19 -85 6 -30 13 -66 16 -80 2 -14 11 -52 19 -85 8 -33 29 -121
45 -195 16 -74 35 -169 41 -210 6 -41 18 -118 26 -170 9 -52 19 -111 24 -130
5 -19 14 -60 19 -90 6 -30 15 -98 22 -150 6 -52 15 -100 21 -107 5 -6 16 -9
25 -6 13 5 14 17 9 67 -3 34 -10 88 -16 121 -5 33 -12 80 -15 105 -3 25 -15
79 -25 121 -11 42 -24 114 -30 160 -6 46 -15 107 -20 134 -6 28 -13 59 -15 70
-3 11 -14 65 -25 120 -12 55 -25 118 -30 140 -4 22 -20 94 -33 160 -14 66 -42
188 -62 270 -20 83 -49 191 -65 240 -16 50 -49 137 -74 195 -25 58 -51 106
-59 108z"/>
</g>
<g>
<path d="M3702 5864 c-4 2 -12 2 -17 -2 -6 -4 -18 -24 -27 -45 -10 -21 -18
-42 -18 -48 0 -5 -13 -45 -29 -87 -17 -42 -39 -108 -50 -147 -10 -38 -29 -103
-40 -142 -12 -40 -26 -103 -31 -140 -5 -38 -18 -117 -28 -178 -11 -60 -27
-148 -35 -195 -9 -47 -23 -128 -31 -180 -8 -52 -20 -144 -26 -205 -5 -60 -15
-153 -20 -205 -5 -52 -12 -113 -15 -135 -2 -22 -9 -82 -15 -134 -8 -65 -8 -97
0 -105 7 -7 13 -7 21 1 6 6 15 28 19 49 5 22 25 201 45 399 21 213 52 456 75
595 22 129 45 251 50 271 6 20 10 46 10 58 0 12 11 57 24 99 13 42 32 104 41
137 9 33 24 78 32 100 9 22 19 49 23 60 4 11 17 47 29 81 12 34 21 68 21 77 0
9 -4 18 -8 21z"/>
</g>
<g>
<path d="M5201 3950 c-11 0 -22 -4 -26 -10 -3 -5 -3 -136 0 -291 3 -155 7
-285 9 -288 2 -3 7 -67 10 -141 3 -74 8 -308 11 -520 3 -212 8 -403 10 -425 3
-22 7 -85 10 -140 3 -55 8 -116 11 -136 4 -30 1 -41 -18 -59 -13 -12 -69 -61
-125 -108 -57 -47 -103 -87 -103 -89 0 -3 5 -13 10 -24 6 -10 17 -19 24 -19 7
0 24 12 38 28 13 15 49 49 79 76 30 27 76 65 103 85 l48 36 -7 95 c-3 52 -11
147 -16 210 -5 63 -11 282 -14 485 -3 204 -12 505 -20 670 -8 165 -15 360 -15
433 0 124 -1 132 -19 132z"/>
</g>
<g>
<path d="M3813 3907 c-6 2 -14 0 -17 -5 -3 -5 -3 -81 -1 -168 3 -88 10 -269
16 -404 6 -135 12 -438 14 -675 2 -236 9 -482 15 -545 10 -106 9 -116 -7 -128
-10 -8 -40 -25 -68 -39 -27 -13 -59 -29 -70 -36 -11 -7 -35 -22 -52 -35 -18
-13 -33 -29 -33 -36 0 -8 8 -17 17 -20 10 -4 35 6 67 27 28 19 67 40 86 48 19
7 54 27 78 43 36 26 42 35 42 65 -1 20 -5 95 -11 166 -5 72 -12 326 -14 565
-3 239 -12 534 -20 655 -8 121 -15 274 -16 340 -1 66 -4 133 -8 149 -3 16 -11
31 -18 33z"/>
</g>
<g>
<path d="M6750 1266 c-234 3 -427 4 -430 1 -3 -2 -129 -8 -280 -12 -151 -4
-277 -8 -280 -10 -4 -2 -132 -7 -286 -12 -153 -4 -412 -8 -574 -7 -162 0 -520
1 -795 3 -370 2 -574 -2 -785 -14 -183 -11 -333 -14 -420 -10 -74 4 -195 18
-269 30 -93 17 -140 21 -153 14 -10 -5 -20 -20 -23 -32 -2 -12 -5 -29 -7 -37
-1 -8 2 -37 6 -64 7 -46 9 -48 35 -43 15 3 45 1 67 -4 21 -5 84 -16 139 -24
59 -9 172 -15 275 -15 96 1 231 5 300 10 69 5 186 12 260 16 74 5 288 8 475 8
187 0 489 -1 670 -2 182 -1 423 0 536 2 113 2 256 7 317 11 69 5 109 11 106
17 -4 6 2 7 17 2 13 -4 31 -8 39 -7 8 0 85 3 170 7 85 4 236 9 335 11 99 3
222 5 273 5 51 0 91 4 88 8 -3 4 28 5 67 1 40 -4 164 -10 277 -13 113 -3 230
-10 262 -15 31 -5 65 -7 76 -4 11 2 25 16 31 29 6 14 11 30 11 35 0 6 7 26 16
45 9 19 14 38 10 42 -4 3 -35 10 -69 13 -34 4 -253 11 -487 15z"/>
</g>
<g>
<path d="M5737 918 c-562 -1 -1094 -5 -1182 -9 -88 -5 -380 -13 -650 -18 -269
-6 -537 -15 -595 -20 -58 -5 -178 -7 -267 -5 -132 2 -164 0 -174 -12 -9 -11
-8 -18 6 -34 16 -17 17 -33 10 -143 -5 -86 -3 -127 4 -131 6 -4 158 -9 338
-12 181 -2 425 -6 543 -9 118 -2 342 -10 498 -16 226 -10 341 -10 570 0 158 7
339 14 402 16 63 3 191 7 284 10 93 3 198 10 235 15 36 5 203 19 371 31 168
11 380 21 472 21 133 0 169 3 179 14 8 10 10 51 7 144 -4 79 -10 136 -18 145
-10 12 -156 14 -1033 13z m-55 -52 c864 0 1038 -2 1043 -13 2 -8 7 -41 11 -74
3 -34 3 -76 -1 -95 l-6 -34 -172 0 c-95 0 -208 -4 -252 -10 -44 -5 -125 -12
-180 -15 -55 -3 -147 -10 -205 -15 -58 -5 -152 -13 -210 -19 -58 -6 -267 -16
-465 -22 -198 -6 -433 -14 -523 -18 -90 -3 -232 -3 -315 1 -84 4 -314 12 -512
18 -198 6 -494 13 -658 15 -164 3 -302 7 -306 10 -5 2 -5 24 0 47 4 24 8 70 9
104 l0 61 178 7 c97 3 231 11 297 16 66 5 293 9 503 9 211 1 388 4 394 7 5 4
83 10 171 14 89 3 629 7 1199 6z"/>
</g>
</g>
</svg>
