<?xml version="1.0" standalone="no"?>
<!DOCTYPE svg PUBLIC "-//W3C//DTD SVG 20010904//EN"
 "http://www.w3.org/TR/2001/REC-SVG-20010904/DTD/svg10.dtd">
<svg version="1.0" xmlns="http://www.w3.org/2000/svg"
 width="1200.000000pt" height="1200.000000pt" viewBox="0 0 1200.000000 1200.000000"
 preserveAspectRatio="xMidYMid meet">
<metadata>
Created by potrace 1.16, written by Peter Selinger 2001-2019
</metadata>
<g transform="translate(0.000000,1200.000000) scale(0.100000,-0.100000)"
fill="#000000" stroke="none">
<g>
<path d="M8675 11107 c-99 3 -183 2 -186 -1 -3 -3 -26 -7 -50 -7 -24 -1 -52
-6 -61 -11 -10 -5 -39 -10 -65 -12 -27 -2 -84 -13 -127 -25 -44 -11 -95 -30
-113 -41 -19 -11 -38 -20 -44 -20 -5 0 -28 -8 -52 -19 -23 -10 -63 -26 -89
-36 -26 -9 -50 -21 -53 -26 -4 -5 -15 -9 -25 -9 -10 0 -40 -17 -65 -37 -26
-21 -84 -73 -128 -117 -45 -43 -96 -99 -114 -125 -18 -25 -38 -58 -44 -73 -6
-16 -14 -28 -19 -28 -4 0 -18 -28 -30 -62 -13 -35 -27 -67 -32 -72 -4 -6 -8
-20 -8 -33 0 -13 -4 -31 -10 -41 -5 -9 -21 -50 -35 -91 -14 -41 -25 -89 -25
-108 0 -18 -4 -33 -8 -33 -5 0 -14 -21 -21 -47 -7 -27 -18 -79 -26 -118 -7
-38 -16 -130 -20 -203 -4 -81 -3 -137 3 -145 5 -7 12 -43 16 -82 3 -38 17
-113 30 -165 13 -52 38 -122 56 -155 17 -33 43 -78 58 -100 15 -22 35 -46 44
-53 9 -6 37 -42 62 -80 25 -37 60 -82 78 -100 18 -18 69 -67 113 -108 44 -42
102 -87 129 -101 27 -14 63 -38 80 -54 17 -16 47 -32 66 -35 19 -4 53 -15 75
-25 22 -10 62 -23 89 -29 46 -10 49 -9 97 26 27 19 51 45 53 57 3 12 7 42 10
67 4 38 0 54 -29 105 -18 33 -54 77 -78 97 -25 20 -99 73 -165 117 -66 44
-132 95 -146 111 -14 17 -41 57 -59 88 -18 31 -54 104 -79 162 -25 58 -58 150
-73 205 -15 55 -29 131 -32 170 -2 38 3 133 11 210 8 77 20 165 26 195 7 30
24 82 40 117 16 35 48 92 72 128 29 44 65 83 111 117 38 28 101 68 140 88 40
21 113 52 162 70 50 17 97 33 105 34 8 2 45 7 81 11 62 7 67 6 73 -13 4 -11 7
-38 7 -59 -1 -21 1 -198 3 -393 3 -223 8 -374 16 -405 8 -36 11 -213 9 -625
-1 -316 -2 -591 -2 -610 0 -19 1 -123 3 -230 1 -107 -1 -278 -5 -380 -4 -102
-9 -188 -11 -191 -2 -4 -25 -3 -51 2 -27 4 -64 10 -83 13 -19 2 -83 18 -142
35 -59 17 -143 36 -185 41 -43 6 -112 15 -153 21 -41 5 -98 14 -126 20 -38 7
-53 15 -57 29 -3 11 -13 20 -24 20 -11 0 -26 -17 -40 -45 -13 -25 -23 -58 -23
-75 0 -17 -13 -92 -29 -168 -16 -75 -32 -171 -36 -212 -4 -41 -9 -93 -11 -115
-2 -22 -8 -71 -14 -110 -5 -38 -12 -110 -15 -159 -3 -48 -7 -92 -10 -96 -3 -5
-10 -78 -15 -162 -5 -84 -14 -232 -20 -328 -6 -96 -15 -211 -21 -255 -5 -44
-11 -267 -13 -495 -3 -305 -8 -455 -21 -565 -11 -101 -15 -195 -12 -290 2 -77
7 -148 11 -157 4 -9 15 -19 23 -23 9 -3 21 -1 27 5 7 7 10 72 8 195 -2 102 2
246 8 322 6 76 12 309 14 518 3 209 9 430 15 490 6 61 13 175 16 255 3 80 7
179 10 220 3 41 12 138 20 215 8 77 19 190 25 250 7 61 13 121 16 135 2 14 6
54 10 90 3 36 11 79 17 95 11 28 13 23 20 -60 4 -49 10 -146 12 -215 2 -69 8
-163 13 -209 6 -47 8 -94 6 -105 -2 -12 1 -44 7 -73 5 -28 12 -96 14 -150 2
-54 3 -190 3 -303 0 -113 -1 -279 -2 -370 0 -91 5 -320 13 -510 7 -190 14
-478 14 -640 1 -162 -4 -482 -11 -710 -7 -228 -12 -705 -12 -1060 1 -355 5
-715 10 -800 6 -85 12 -198 15 -250 3 -52 7 -117 10 -145 3 -27 7 -84 10 -125
2 -41 7 -120 11 -175 3 -55 12 -125 20 -155 7 -30 15 -85 18 -122 3 -56 1 -68
-13 -72 -9 -2 -36 -7 -61 -11 -25 -4 -93 -22 -151 -41 -59 -18 -126 -36 -149
-40 -23 -4 -44 -13 -47 -20 -2 -7 0 -21 6 -33 6 -11 21 -23 32 -26 12 -4 24
-3 28 1 3 5 31 16 61 26 30 9 87 25 125 36 39 11 85 23 103 27 18 4 52 7 75 7
24 0 50 4 58 9 11 6 13 29 11 101 -2 51 -10 120 -19 153 -9 33 -17 71 -18 85
-1 14 -5 43 -8 65 -4 22 -11 119 -17 215 -6 96 -13 193 -16 215 -2 22 -8 117
-13 211 -5 95 -10 257 -11 360 -1 104 -2 401 -3 659 -1 259 3 632 8 830 6 198
10 557 10 798 0 240 2 437 5 437 3 0 34 -14 70 -32 36 -17 74 -35 85 -39 11
-5 45 -13 75 -19 30 -6 73 -15 95 -19 22 -4 84 -22 137 -40 54 -18 103 -34
110 -35 7 -2 22 -7 33 -11 11 -4 35 -14 54 -21 18 -8 44 -14 57 -14 12 0 26
-5 29 -10 3 -5 13 -10 21 -10 8 0 52 -18 97 -40 45 -22 118 -49 162 -61 44
-12 96 -25 115 -29 19 -5 87 -24 150 -43 63 -19 169 -53 235 -76 66 -22 133
-43 148 -46 16 -3 31 -15 36 -28 5 -12 12 -62 16 -112 3 -49 11 -123 16 -164
5 -40 12 -130 15 -200 4 -69 11 -133 15 -143 5 -9 14 -112 20 -230 6 -117 13
-244 15 -283 2 -38 10 -270 18 -515 8 -245 12 -492 10 -550 -2 -58 -6 -242 -9
-410 -4 -180 -2 -377 5 -480 6 -96 15 -201 21 -232 5 -32 12 -72 14 -90 3 -18
8 -91 11 -163 4 -71 7 -143 8 -158 1 -25 -5 -31 -49 -50 -27 -11 -72 -36 -100
-54 -27 -18 -68 -46 -90 -61 -22 -16 -83 -51 -135 -77 -52 -26 -101 -52 -107
-57 -7 -6 -13 -21 -13 -34 0 -13 8 -28 18 -33 14 -8 27 -4 53 13 19 12 50 29
69 36 19 8 60 30 90 49 30 20 57 38 60 41 3 3 22 17 42 33 20 15 39 27 43 27
3 0 43 18 89 40 45 22 88 40 94 40 6 0 16 9 22 21 8 15 9 29 1 47 -5 15 -17
130 -26 256 -9 127 -21 253 -26 280 -6 28 -13 157 -17 286 -4 129 -4 370 0
535 4 165 5 347 3 405 -2 58 -9 247 -14 420 -6 173 -13 353 -16 400 -3 47 -8
105 -10 130 -3 25 -10 124 -15 220 -6 96 -17 236 -25 310 -8 74 -24 222 -35
328 -10 105 -17 205 -14 222 4 19 1 38 -9 53 -8 12 -17 47 -21 77 -3 30 -10
100 -15 155 -5 55 -17 177 -26 270 -8 94 -18 181 -20 195 -3 14 -10 84 -16
155 -6 74 -12 450 -14 870 -2 407 -6 772 -9 810 l-5 70 19 -75 c10 -41 26 -97
34 -125 8 -27 24 -79 36 -115 11 -36 25 -85 30 -110 6 -25 16 -70 24 -100 8
-30 24 -109 35 -175 11 -66 23 -138 26 -160 3 -22 12 -76 20 -120 8 -44 26
-150 39 -235 14 -85 32 -234 40 -330 9 -96 21 -222 26 -280 5 -58 12 -161 15
-230 3 -69 9 -226 15 -350 5 -124 14 -281 20 -350 5 -69 14 -168 20 -220 5
-52 10 -116 10 -142 0 -35 6 -54 20 -68 11 -11 29 -20 39 -20 11 0 21 8 23 17
2 10 0 38 -4 63 -4 25 -15 108 -23 185 -8 77 -20 194 -25 260 -5 66 -11 181
-15 255 -3 74 -10 213 -15 308 -6 95 -15 232 -20 305 -6 73 -14 175 -20 227
-5 52 -15 136 -21 185 -5 50 -14 122 -18 160 -5 39 -13 82 -19 96 -6 15 -8 29
-5 33 3 3 0 36 -7 73 -6 37 -21 113 -32 168 -11 55 -23 111 -25 125 -3 14 -21
99 -40 190 -19 91 -46 206 -59 255 -14 50 -29 108 -34 130 -4 22 -17 85 -28
140 -11 55 -23 111 -26 125 -3 14 -9 40 -12 58 -3 18 -11 35 -18 39 -6 4 -40
8 -76 9 -36 1 -146 8 -245 17 -99 8 -216 24 -260 35 -44 11 -98 23 -120 27
-22 3 -69 14 -105 24 l-65 18 0 364 c0 200 -3 369 -8 376 -4 6 -3 130 3 275 5
145 10 313 9 373 0 61 0 228 1 372 0 144 -5 295 -10 335 -6 40 -13 223 -16
406 -2 183 -5 336 -5 340 -1 4 -1 26 0 50 l1 43 78 -2 c57 -1 97 -9 157 -31
44 -17 112 -42 150 -56 42 -15 92 -44 124 -71 30 -25 67 -52 82 -61 15 -8 45
-28 65 -45 20 -16 56 -49 80 -73 24 -24 62 -83 88 -135 25 -51 52 -114 60
-142 8 -27 19 -81 25 -120 5 -38 13 -103 16 -143 4 -40 1 -117 -5 -170 -6 -53
-15 -128 -21 -167 -6 -38 -18 -90 -26 -115 -9 -25 -22 -59 -29 -77 -8 -17 -17
-46 -21 -65 -3 -18 -21 -55 -39 -83 -19 -27 -48 -70 -65 -95 -17 -25 -55 -67
-84 -95 -29 -27 -82 -72 -119 -100 -45 -34 -72 -63 -85 -92 -11 -23 -20 -52
-21 -65 -1 -13 -2 -38 -1 -57 1 -23 11 -43 35 -67 32 -32 38 -34 103 -34 41 0
79 6 97 15 15 8 36 15 45 15 9 0 41 13 71 28 30 16 82 43 114 61 33 19 89 55
125 80 36 26 81 62 99 80 17 18 32 37 32 42 0 5 7 12 15 15 7 3 37 51 65 107
47 92 54 114 71 232 11 72 26 183 34 249 8 66 15 211 15 330 1 170 -3 235 -20
336 -11 69 -26 141 -32 160 -6 19 -17 51 -25 70 -8 19 -24 53 -36 75 -11 22
-23 42 -27 45 -4 3 -17 25 -31 50 -13 25 -34 56 -46 70 -13 14 -23 32 -23 40
0 8 -30 47 -68 85 -37 39 -83 82 -102 96 -19 15 -60 47 -90 71 -31 25 -94 64
-140 88 -47 24 -101 50 -120 59 -19 9 -42 21 -50 28 -8 6 -53 26 -100 44 -82
31 -92 32 -265 36z m50 -84 c39 -1 93 -8 120 -14 28 -7 62 -18 77 -25 15 -8
38 -14 51 -14 12 0 28 -5 34 -11 8 -8 4 -18 -13 -36 -13 -15 -24 -38 -24 -54
0 -17 8 -34 22 -43 12 -9 29 -16 37 -16 8 0 23 7 33 17 10 9 18 30 18 50 0 22
5 33 14 33 8 0 18 -4 21 -10 3 -5 25 -18 49 -28 23 -11 67 -36 97 -57 30 -21
56 -42 57 -47 2 -4 9 -8 15 -8 7 0 33 -19 58 -43 25 -23 65 -60 90 -83 24 -22
60 -65 79 -95 18 -30 44 -66 58 -80 13 -15 34 -50 47 -78 13 -28 28 -51 34
-51 5 0 14 -19 19 -42 6 -24 17 -68 26 -98 9 -30 21 -77 26 -105 6 -27 11
-151 13 -275 1 -124 -1 -263 -6 -310 -4 -47 -11 -107 -16 -135 -5 -27 -16 -95
-25 -150 -10 -55 -32 -137 -51 -182 -18 -46 -52 -107 -75 -135 -22 -29 -69
-77 -103 -105 -33 -29 -65 -53 -70 -53 -4 0 -28 -13 -52 -30 -24 -16 -46 -30
-49 -30 -2 0 -27 -14 -54 -31 -27 -17 -56 -32 -63 -33 -8 -2 -23 -6 -34 -10
-11 -4 -29 -12 -40 -17 -11 -5 -38 -13 -60 -17 -23 -5 -51 -5 -62 -1 -12 4
-27 18 -33 29 -9 17 -9 29 0 51 7 16 40 52 75 81 34 29 84 70 111 91 27 21 59
50 72 65 12 15 45 58 73 96 28 39 59 88 69 110 10 23 28 66 40 96 12 30 30 91
41 135 12 44 25 100 31 125 6 25 11 122 11 215 1 94 -4 206 -10 250 -6 44 -16
102 -22 128 -6 26 -16 55 -21 65 -5 9 -21 46 -36 82 -14 36 -49 96 -76 133
-28 37 -76 88 -107 113 -31 25 -64 52 -74 60 -9 8 -21 14 -25 14 -4 0 -35 24
-70 54 -39 33 -88 63 -130 79 -37 14 -113 40 -169 57 -81 24 -119 30 -178 29
-50 -1 -80 3 -88 11 -10 9 8 11 83 9 52 -1 114 -1 136 0 28 1 44 6 48 17 4 9
1 23 -6 32 -11 12 -37 14 -166 9 -146 -5 -153 -4 -138 12 9 10 16 25 16 33 0
9 -6 21 -13 27 -8 6 -17 8 -20 4 -4 -3 -7 1 -7 9 0 9 7 21 15 28 8 7 15 23 15
35 0 13 -7 25 -15 29 -8 3 -22 3 -30 0 -8 -4 -15 -10 -15 -15 0 -5 -11 -27
-25 -49 -14 -23 -25 -54 -25 -75 0 -31 3 -35 28 -35 15 0 34 -5 42 -10 10 -6
-3 -9 -45 -9 -33 1 -66 6 -72 11 -8 6 -31 8 -57 4 -32 -5 -49 -14 -61 -32 -9
-14 -14 -32 -11 -39 4 -11 18 -13 56 -8 27 3 50 3 50 1 0 -3 -39 -18 -87 -33
-49 -14 -116 -40 -151 -58 -34 -17 -68 -37 -74 -44 -6 -7 -16 -13 -23 -13 -7
0 -36 -16 -64 -35 -28 -19 -53 -35 -57 -35 -3 0 -25 -20 -49 -45 -24 -24 -47
-54 -51 -67 -4 -13 -26 -48 -50 -79 -24 -30 -44 -61 -44 -67 0 -7 -4 -20 -9
-30 -5 -9 -13 -28 -19 -42 -6 -14 -13 -33 -16 -43 -3 -10 -12 -64 -20 -120 -8
-56 -16 -122 -17 -147 -1 -25 -2 -70 -3 -100 0 -30 3 -90 7 -133 3 -42 10 -85
15 -95 5 -9 12 -34 16 -55 4 -20 20 -80 37 -132 17 -52 35 -98 42 -102 7 -5
18 -29 24 -54 7 -26 40 -88 73 -138 39 -58 69 -93 84 -97 13 -3 33 -18 44 -34
12 -15 38 -34 59 -41 21 -6 48 -23 60 -35 12 -13 28 -24 36 -24 8 0 37 -21 64
-47 28 -27 62 -69 76 -94 22 -37 25 -51 18 -77 -5 -18 -16 -38 -24 -46 -11
-12 -15 -11 -26 6 -10 16 -19 18 -49 14 -23 -4 -56 1 -87 12 -27 9 -84 36
-126 59 -41 24 -102 66 -136 95 -33 29 -94 89 -135 133 -40 44 -109 128 -152
186 -44 59 -88 128 -98 155 -11 27 -29 78 -39 114 -11 36 -26 99 -35 140 -12
59 -14 112 -9 245 3 96 12 201 21 240 9 39 27 108 40 155 13 47 34 117 47 155
13 39 29 80 34 90 5 11 20 40 33 65 12 25 39 70 59 100 20 30 79 98 131 150
52 52 109 102 125 110 17 8 33 20 38 27 4 6 22 15 40 19 17 3 59 19 92 34 33
16 80 36 105 45 25 10 54 21 65 25 11 5 31 11 45 14 14 3 28 6 32 6 4 0 27 8
50 16 23 8 74 20 113 26 38 6 120 13 180 17 61 4 142 5 180 4z m-395 -295 c14
0 19 -2 13 -5 -7 -2 -19 -2 -25 0 -7 3 -2 5 12 5z m-612 -2934 c26 -3 56 -7
67 -10 11 -2 49 -7 85 -10 36 -4 94 -12 130 -20 36 -7 92 -20 125 -28 33 -7
83 -19 110 -26 28 -7 60 -16 73 -21 13 -5 40 -9 61 -9 22 0 92 -14 157 -30 66
-17 151 -37 189 -45 39 -7 108 -23 155 -34 54 -13 120 -21 180 -21 52 0 133
-5 180 -11 47 -7 90 -16 97 -21 7 -5 12 -22 12 -36 0 -15 2 -423 6 -907 4
-703 8 -895 20 -955 8 -41 19 -150 25 -242 5 -92 12 -173 15 -180 2 -7 10 -67
16 -133 7 -66 12 -144 13 -173 l1 -54 -40 5 c-22 3 -62 13 -90 22 -27 9 -86
30 -130 46 -44 16 -123 40 -175 54 -52 13 -124 32 -160 41 -36 9 -92 28 -125
40 -33 13 -85 35 -115 50 -30 15 -111 44 -180 66 -69 21 -129 40 -135 41 -5 1
-23 8 -40 14 -16 6 -55 18 -85 27 -30 9 -85 20 -122 25 -36 5 -95 19 -130 32
-34 12 -67 26 -73 31 -5 4 -16 8 -25 8 -8 0 -28 11 -45 24 -25 20 -30 32 -31
68 -1 23 -4 138 -8 253 -4 116 -8 269 -8 340 -1 72 0 200 1 285 1 85 -1 236
-4 335 -3 99 -10 218 -15 265 -5 47 -13 119 -19 160 -5 41 -12 208 -16 370 -3
162 -9 305 -12 318 -3 12 0 29 7 37 9 10 25 13 58 9z"/>
<g>
<path d="M8141 10920 c-16 0 -34 -6 -40 -14 -7 -8 -11 -29 -9 -47 2 -18 10
-36 19 -42 9 -5 28 -7 42 -3 15 3 31 15 37 26 8 15 7 27 -5 50 -12 23 -22 30
-44 30z"/>
</g>
</g>
<g>
<path d="M3125 11019 c-60 -1 -123 -5 -140 -9 -16 -4 -65 -8 -109 -9 -50 -1
-113 -10 -175 -27 -53 -14 -120 -37 -149 -50 -29 -13 -59 -24 -67 -24 -7 0
-16 -3 -19 -8 -2 -4 -38 -25 -80 -46 -42 -22 -100 -61 -130 -88 -29 -26 -73
-74 -97 -105 -24 -32 -56 -71 -71 -87 -16 -17 -28 -37 -28 -47 0 -9 -6 -22
-14 -28 -8 -7 -32 -49 -54 -95 -22 -45 -50 -116 -62 -157 -11 -41 -25 -83 -29
-94 -5 -11 -16 -59 -25 -107 -10 -48 -20 -135 -23 -193 -4 -66 -1 -139 7 -193
7 -48 17 -105 22 -127 6 -22 25 -71 43 -110 18 -38 39 -92 46 -120 7 -27 22
-71 34 -96 12 -26 44 -75 71 -110 27 -35 76 -91 110 -124 33 -33 85 -77 115
-98 30 -21 83 -57 119 -81 36 -23 83 -52 105 -63 22 -11 72 -35 111 -52 39
-17 93 -36 120 -42 27 -5 65 -14 84 -18 l35 -9 -32 -1 c-21 -1 -33 -6 -33 -15
0 -8 15 -22 33 -31 17 -9 64 -21 102 -26 39 -6 105 -13 148 -16 l78 -6 20 -39
c17 -32 19 -55 17 -141 -2 -56 1 -133 5 -172 4 -38 12 -128 18 -200 6 -71 12
-155 14 -185 2 -30 6 -104 9 -165 3 -60 9 -247 12 -415 3 -168 9 -361 15 -429
5 -68 9 -183 9 -255 0 -72 4 -189 10 -261 5 -71 14 -263 20 -425 6 -162 7
-317 3 -345 l-8 -50 -142 2 c-77 0 -196 6 -264 12 -68 6 -178 14 -244 16
l-120 5 -2 78 c-2 42 -7 110 -13 150 -5 40 -10 113 -10 161 0 48 -4 112 -10
142 -5 30 -16 115 -25 189 -8 74 -17 164 -20 200 -3 36 -10 94 -15 130 -5 36
-15 155 -21 265 -7 110 -13 387 -14 615 -2 283 -6 434 -15 476 -6 34 -15 66
-19 72 -3 5 -24 11 -46 13 -22 1 -45 6 -50 10 -6 4 -37 8 -70 9 -33 2 -72 -2
-87 -8 -20 -8 -28 -20 -32 -44 -3 -18 -12 -98 -22 -177 -9 -78 -25 -177 -36
-220 -11 -42 -24 -104 -29 -139 -4 -34 -15 -85 -23 -112 -8 -28 -20 -96 -26
-153 -6 -56 -15 -138 -21 -182 -5 -44 -16 -141 -25 -215 -8 -74 -18 -175 -22
-225 -5 -49 -7 -276 -5 -505 1 -228 4 -494 7 -590 2 -96 7 -321 11 -500 4
-179 12 -333 17 -342 5 -10 17 -18 27 -18 10 0 23 6 29 13 6 7 9 67 6 162 -2
83 -9 218 -14 300 -6 83 -12 231 -15 330 -3 99 -8 380 -10 625 -4 348 -1 477
10 590 8 80 18 165 21 190 3 25 8 59 10 75 2 17 8 57 13 90 6 33 15 107 20
165 6 58 22 159 36 225 14 66 32 146 40 179 8 32 17 61 19 64 3 2 7 -6 10 -19
2 -13 12 -94 21 -179 9 -85 20 -186 24 -225 5 -38 16 -128 25 -200 8 -71 18
-179 21 -240 3 -60 10 -204 15 -320 5 -115 13 -429 16 -697 4 -268 3 -495 0
-505 -4 -10 -8 -241 -8 -513 -1 -272 2 -544 6 -605 4 -60 9 -116 12 -123 2 -7
7 -187 11 -400 4 -213 7 -481 7 -597 0 -115 -4 -326 -9 -467 -5 -175 -4 -317
4 -445 6 -103 16 -224 21 -268 6 -44 17 -147 24 -230 8 -82 14 -168 13 -190
-1 -22 0 -101 1 -176 2 -114 5 -140 20 -159 11 -14 40 -26 82 -36 36 -8 101
-21 145 -30 44 -9 89 -20 100 -25 11 -5 47 -16 80 -25 33 -8 103 -27 155 -40
52 -14 100 -25 105 -26 6 -1 18 0 28 0 9 1 17 10 17 20 0 10 -10 28 -22 39
-13 11 -41 25 -63 31 -22 6 -51 13 -65 15 -14 3 -61 15 -105 27 -44 12 -87 24
-95 26 -8 2 -80 19 -159 38 -79 19 -146 38 -150 41 -3 4 -6 32 -7 63 -1 31 -4
138 -8 237 -4 99 -9 187 -11 195 -2 8 -9 53 -15 100 -6 47 -13 103 -15 125 -2
22 -6 78 -9 125 -3 47 -10 150 -17 230 -8 97 -9 201 -3 315 4 94 8 269 9 390
0 121 -3 405 -7 630 -4 226 -13 487 -19 580 -7 109 -8 325 -4 604 3 239 8 438
11 443 3 4 29 8 57 8 29 0 81 5 117 10 36 6 135 10 220 10 85 0 229 -3 320 -6
103 -3 189 -1 230 6 36 6 90 16 120 21 30 5 134 12 230 16 96 3 193 9 215 14
22 6 136 13 253 16 l214 6 -8 -409 c-5 -225 -8 -724 -9 -1109 0 -385 4 -747 8
-805 4 -58 10 -193 12 -300 3 -107 7 -215 11 -240 4 -25 8 -56 10 -70 2 -14
10 -113 18 -220 8 -107 18 -267 21 -355 3 -88 8 -218 11 -289 4 -87 10 -137
20 -151 9 -15 39 -29 87 -43 39 -11 97 -24 127 -27 30 -4 78 -16 107 -27 29
-11 57 -17 62 -13 6 3 11 12 11 18 -1 7 -11 24 -23 38 -14 17 -40 31 -72 38
-27 7 -87 20 -131 30 -45 11 -90 24 -102 30 -18 10 -20 24 -26 193 -4 101 -9
210 -11 243 -2 33 -7 123 -10 200 -4 77 -13 187 -21 245 -8 58 -19 155 -24
215 -5 61 -14 225 -20 365 -6 140 -11 541 -11 890 1 349 3 842 7 1095 3 253 9
472 14 486 4 15 4 31 0 35 -5 5 -12 223 -15 484 -4 261 -9 482 -12 490 -3 8
-7 264 -9 568 -2 304 -8 581 -14 615 -5 34 -12 118 -15 187 -5 121 -5 124 11
90 9 -19 25 -69 36 -110 11 -41 23 -100 28 -130 5 -30 16 -93 23 -140 8 -47
24 -141 36 -210 11 -69 32 -195 45 -280 14 -85 27 -184 31 -220 3 -36 14 -144
25 -240 11 -96 25 -200 30 -230 5 -30 14 -112 20 -183 5 -70 12 -230 14 -355
3 -134 11 -268 20 -327 9 -55 16 -123 16 -151 0 -37 6 -58 20 -75 20 -24 20
-24 36 -4 11 14 14 33 10 65 -3 25 -9 77 -13 115 -5 39 -11 75 -15 81 -4 6 -9
96 -13 200 -3 104 -8 239 -11 299 -3 61 -10 148 -15 195 -6 47 -15 132 -21
190 -5 58 -14 139 -18 180 -5 41 -13 116 -19 165 -6 50 -18 133 -26 185 -8 52
-20 129 -25 170 -5 41 -16 113 -24 160 -9 47 -23 130 -32 185 -9 55 -27 163
-40 240 -14 77 -26 148 -27 157 -2 10 -6 21 -10 24 -4 4 -7 17 -7 29 0 13 -7
40 -16 60 -8 21 -19 56 -23 79 -5 29 -13 44 -31 52 -14 7 -37 18 -52 25 -21 9
-31 9 -41 1 -8 -7 -16 -10 -18 -8 -2 3 -40 6 -83 7 -71 2 -80 0 -84 -17 -2
-10 -6 -140 -9 -289 -2 -148 -4 -337 -4 -420 0 -82 2 -298 4 -480 3 -181 6
-341 7 -355 1 -14 7 -56 12 -95 5 -38 14 -158 19 -265 6 -107 12 -213 14 -235
2 -22 7 -102 11 -177 l7 -138 -114 -1 c-63 0 -208 0 -323 0 -115 0 -217 3
-227 6 -15 5 -16 18 -14 108 2 56 -1 165 -6 242 -5 77 -12 226 -14 330 -3 105
-8 210 -11 235 -3 25 -7 126 -10 225 -2 99 -6 223 -9 275 -2 52 -7 223 -10
380 -3 157 -8 305 -11 330 -3 25 -10 115 -15 200 -5 85 -11 185 -13 221 -3 36
-10 110 -16 165 -7 54 -13 165 -16 245 l-4 146 118 17 c64 10 135 24 157 31
22 8 63 25 90 38 28 14 91 55 140 92 50 37 122 98 160 136 39 37 89 82 113
100 23 17 42 35 42 41 0 5 10 23 23 39 12 16 40 51 62 78 22 27 63 96 92 153
28 56 57 123 64 148 6 25 16 65 21 90 5 25 11 65 13 90 3 25 7 60 10 79 2 18
-1 84 -6 145 -6 61 -24 174 -40 251 -16 77 -46 197 -68 266 -22 73 -56 156
-79 196 -22 38 -79 110 -126 160 -59 62 -113 108 -169 142 -45 28 -89 51 -97
51 -9 0 -20 4 -26 9 -5 6 -31 22 -59 37 -27 15 -62 33 -76 41 -14 7 -50 17
-79 23 -30 6 -79 13 -109 16 -31 2 -87 11 -126 19 -40 9 -118 14 -180 14z m53
-95 c48 -3 103 -9 122 -14 19 -6 54 -10 76 -10 23 0 79 -7 125 -16 46 -8 96
-23 110 -34 14 -10 63 -37 110 -60 46 -24 110 -60 141 -81 32 -21 76 -55 99
-76 22 -21 65 -71 95 -110 30 -40 68 -101 84 -135 16 -35 36 -92 45 -128 8
-36 22 -90 30 -120 8 -30 26 -102 39 -160 13 -58 24 -114 24 -125 -1 -11 2
-71 6 -133 4 -63 7 -117 8 -120 1 -4 -2 -29 -6 -57 -4 -27 -21 -90 -38 -140
-16 -49 -39 -108 -50 -130 -12 -22 -34 -60 -51 -85 -17 -25 -33 -47 -37 -50
-3 -3 -29 -34 -57 -70 -28 -36 -86 -97 -128 -135 -43 -39 -87 -79 -99 -91 -12
-11 -66 -55 -121 -96 -55 -41 -122 -84 -150 -96 -27 -11 -92 -28 -143 -37 -84
-15 -96 -15 -111 -1 -13 12 -43 15 -131 16 -97 0 -132 5 -225 31 -60 16 -132
34 -160 40 -27 5 -97 29 -155 54 -57 25 -127 63 -155 83 -27 21 -71 50 -97 65
-25 15 -59 39 -75 55 -15 15 -37 34 -48 42 -11 8 -47 47 -80 87 -33 39 -75 96
-93 127 -19 30 -46 92 -62 138 -15 46 -37 103 -48 128 -11 26 -23 71 -27 100
-4 30 -11 60 -15 65 -4 6 -8 55 -8 109 0 55 4 120 9 145 5 25 16 91 25 146 9
55 23 118 32 140 9 22 35 81 59 130 23 50 47 98 53 108 5 9 15 25 20 35 6 9
19 31 30 47 11 17 32 46 47 64 16 19 48 55 73 80 25 26 56 55 70 65 14 11 66
40 116 65 50 25 109 54 131 63 21 10 75 27 119 38 43 11 146 25 229 31 82 6
151 12 153 14 2 2 43 1 90 -1z m-888 -3042 c8 -2 22 -6 32 -9 9 -3 21 -23 27
-48 7 -28 11 -192 11 -462 0 -230 5 -490 10 -578 6 -88 19 -236 30 -330 10
-93 22 -208 25 -255 4 -47 11 -107 16 -135 6 -27 14 -120 20 -205 6 -85 12
-225 15 -310 2 -85 6 -160 8 -166 3 -7 69 -13 183 -18 98 -3 243 -11 323 -16
80 -5 213 -13 295 -16 83 -4 300 -7 483 -7 247 0 336 3 345 12 8 8 12 54 12
144 0 73 -3 159 -7 192 -4 33 -12 132 -17 220 -6 88 -13 203 -16 255 -3 52
-10 136 -16 185 -5 50 -9 158 -8 240 1 83 1 272 0 420 -2 194 2 310 13 412 12
107 13 154 6 191 -6 27 -10 80 -8 118 l3 69 58 5 c32 3 63 3 68 0 5 -4 11 -44
13 -91 2 -46 7 -124 10 -174 4 -49 10 -124 15 -165 5 -41 10 -181 11 -310 1
-129 3 -359 5 -510 3 -151 8 -437 12 -635 4 -198 7 -424 7 -503 l1 -142 -185
-4 c-102 -3 -214 -10 -250 -16 -36 -6 -126 -13 -200 -15 -74 -2 -153 -6 -175
-9 -22 -3 -67 -8 -100 -12 -33 -5 -69 -10 -80 -12 -11 -3 -186 -5 -390 -6
-216 -2 -413 -8 -474 -15 -57 -6 -106 -10 -109 -7 -3 3 -6 140 -8 303 -1 164
-5 442 -8 618 -4 176 -9 358 -11 405 -2 47 -11 180 -19 295 -8 116 -26 311
-40 435 -14 124 -30 283 -36 354 -5 71 -10 169 -10 217 l0 88 48 4 c26 2 54 1
62 -1z"/>
<g>
<path d="M3975 10230 c-30 0 -38 -5 -52 -34 -15 -32 -15 -37 1 -60 13 -20 25
-26 54 -26 21 0 43 5 50 12 7 7 12 20 12 30 0 11 -7 32 -15 48 -13 25 -22 30
-50 30z"/>
</g>
<g>
<path d="M2774 10220 c-11 0 -30 -7 -42 -16 -13 -9 -22 -26 -22 -40 0 -14 5
-34 10 -45 8 -14 21 -19 50 -19 29 0 43 6 54 22 9 12 16 30 16 38 0 9 -10 26
-23 38 -13 12 -32 22 -43 22z"/>
</g>
<g>
<path d="M3517 10080 c-8 0 -17 -3 -20 -7 -4 -3 -7 -23 -7 -42 0 -20 11 -70
24 -111 13 -41 27 -91 31 -110 4 -19 18 -69 33 -110 14 -41 28 -79 32 -85 4
-5 10 -22 14 -37 5 -23 3 -28 -12 -28 -11 0 -34 -5 -51 -11 -30 -11 -32 -15
-27 -42 4 -17 11 -34 16 -37 6 -4 45 1 87 10 70 15 78 19 84 45 5 18 3 37 -5
54 -8 14 -32 71 -54 126 -23 55 -52 144 -66 197 -14 54 -26 109 -26 123 0 14
-9 34 -20 45 -11 11 -26 20 -33 20z"/>
</g>
<g>
<path d="M3839 9250 c-20 0 -38 -2 -40 -4 -2 -2 -58 -7 -124 -10 -66 -4 -142
-9 -170 -12 -27 -3 -87 -12 -131 -20 -45 -8 -106 -15 -137 -15 -52 -1 -56 -3
-70 -32 -8 -16 -13 -36 -10 -44 3 -7 20 -13 42 -13 20 0 68 5 106 10 39 5 81
12 95 14 14 2 63 9 110 15 47 6 92 9 100 8 8 -1 53 2 100 6 47 4 113 14 148
21 35 8 65 16 68 19 3 3 3 14 0 25 -4 11 -17 23 -29 26 -12 3 -38 6 -58 6z"/>
</g>
</g>
</g>
</svg>
