<?xml version="1.0" standalone="no"?>
<!DOCTYPE svg PUBLIC "-//W3C//DTD SVG 20010904//EN"
 "http://www.w3.org/TR/2001/REC-SVG-20010904/DTD/svg10.dtd">
<svg version="1.0" xmlns="http://www.w3.org/2000/svg"
 width="900.000000pt" height="1200.000000pt" viewBox="0 0 900.000000 1200.000000"
 preserveAspectRatio="xMidYMid meet">
<metadata>
Created by potrace 1.16, written by Peter Selinger 2001-2019
</metadata>
<g transform="translate(0.000000,1200.000000) scale(0.100000,-0.100000)"
fill="#000000" stroke="none">
<g>
<path d="M5350 11499 c-19 -1 -52 -5 -72 -10 -21 -5 -79 -29 -130 -55 -50 -25
-142 -76 -202 -111 -61 -36 -167 -103 -236 -148 -69 -45 -143 -95 -165 -109
-22 -15 -63 -44 -91 -64 -28 -20 -95 -71 -150 -112 -54 -41 -105 -81 -112 -88
-8 -6 -35 -26 -60 -44 -26 -17 -49 -34 -52 -38 -3 -3 -45 -37 -95 -75 -49 -38
-138 -117 -197 -175 -78 -76 -108 -113 -108 -130 0 -20 14 -11 93 66 50 50
133 124 183 165 50 41 109 88 130 104 21 17 96 73 166 125 70 52 173 129 229
170 56 41 114 82 129 90 14 8 42 27 61 42 19 15 45 33 59 40 14 8 57 34 96 60
39 25 124 76 190 112 65 37 152 83 193 103 57 27 88 36 131 37 37 1 63 -4 75
-14 14 -12 16 -24 12 -68 -4 -35 -19 -78 -47 -129 -22 -42 -71 -115 -108 -162
-36 -47 -96 -116 -132 -152 -36 -36 -97 -95 -135 -130 -39 -35 -109 -95 -155
-134 -46 -38 -105 -88 -130 -110 -26 -22 -80 -67 -121 -101 -41 -34 -145 -117
-232 -185 -86 -68 -172 -134 -190 -147 -17 -13 -61 -45 -97 -73 -36 -28 -110
-85 -166 -127 -56 -42 -118 -90 -140 -107 -21 -16 -87 -69 -147 -117 -59 -48
-141 -116 -182 -150 -42 -35 -135 -121 -209 -193 -73 -71 -153 -159 -177 -195
-24 -36 -49 -74 -56 -85 -6 -11 -28 -53 -47 -93 -20 -41 -36 -79 -36 -86 0 -7
-4 -16 -10 -22 -5 -5 -14 -44 -20 -86 -8 -54 -8 -89 -1 -116 6 -21 21 -54 34
-73 12 -18 44 -50 70 -70 27 -20 94 -63 150 -96 56 -33 135 -77 175 -97 40
-20 96 -46 125 -57 28 -12 88 -32 132 -45 44 -14 125 -31 180 -39 55 -7 177
-18 270 -24 94 -6 242 -13 330 -15 88 -3 243 -8 345 -11 102 -3 268 -7 370
-10 102 -2 241 -9 310 -15 69 -6 175 -18 235 -25 61 -8 156 -23 210 -34 55
-10 112 -24 128 -30 15 -6 27 -8 27 -6 0 2 36 -9 80 -25 44 -16 108 -43 142
-60 34 -17 90 -51 125 -76 35 -25 78 -65 95 -87 17 -23 38 -60 48 -83 10 -23
24 -76 31 -118 8 -50 10 -120 6 -199 -4 -69 -15 -157 -27 -202 -11 -44 -32
-114 -47 -155 -14 -41 -45 -115 -68 -165 -23 -49 -70 -137 -104 -194 -35 -58
-97 -152 -139 -210 -41 -58 -116 -158 -167 -221 -51 -63 -125 -155 -165 -205
-41 -49 -146 -175 -235 -280 -88 -104 -197 -232 -240 -284 -44 -52 -140 -169
-212 -260 -73 -91 -152 -191 -176 -221 -24 -30 -107 -139 -183 -242 -76 -103
-166 -226 -199 -273 -33 -47 -79 -112 -102 -144 -24 -32 -43 -62 -43 -66 0 -4
-13 -24 -30 -45 -16 -21 -30 -40 -30 -43 0 -3 -33 -54 -73 -114 -40 -59 -124
-191 -187 -293 -63 -102 -148 -252 -190 -335 -41 -82 -99 -206 -127 -275 -29
-69 -64 -175 -79 -235 -19 -78 -25 -124 -20 -159 3 -27 12 -59 21 -72 9 -14
25 -24 38 -24 12 0 54 15 92 34 39 18 114 63 167 100 54 36 102 66 107 66 5 0
11 4 13 8 2 5 25 24 51 43 27 19 74 53 105 76 31 23 89 64 127 90 39 27 107
76 153 108 46 33 91 65 100 70 9 6 78 51 152 101 74 49 158 106 185 125 28 20
118 81 200 137 83 56 184 125 225 154 41 28 77 54 80 58 3 4 23 19 45 33 22
15 54 37 71 49 18 13 54 39 80 58 27 19 90 62 140 96 50 33 113 78 140 98 27
20 87 65 134 100 47 34 119 87 160 118 41 30 100 70 130 90 30 19 86 47 124
62 38 15 87 28 110 28 23 0 60 -5 84 -11 30 -9 49 -21 63 -44 17 -27 20 -44
16 -112 -3 -44 -17 -120 -32 -169 -14 -49 -42 -132 -61 -185 -20 -53 -47 -125
-61 -161 -14 -36 -40 -101 -58 -145 -19 -44 -66 -156 -105 -250 -40 -93 -82
-192 -95 -220 -12 -27 -64 -142 -115 -255 -50 -113 -137 -293 -192 -400 -55
-107 -137 -260 -181 -340 -44 -80 -123 -221 -175 -315 -52 -93 -123 -219 -157
-280 -34 -60 -75 -132 -90 -160 -16 -27 -54 -95 -85 -150 -31 -55 -76 -131
-100 -170 -25 -38 -69 -106 -99 -150 -30 -44 -95 -134 -144 -200 -50 -66 -113
-147 -141 -180 -28 -32 -75 -85 -105 -117 -29 -32 -74 -71 -100 -87 -25 -16
-58 -33 -73 -36 -16 -4 -39 -4 -53 -1 -16 4 -33 22 -47 49 -18 34 -22 58 -22
127 1 64 8 108 29 175 15 50 45 131 67 180 22 50 51 115 65 145 14 30 64 132
111 225 47 94 100 199 117 235 18 36 65 124 105 195 40 72 91 166 113 210 22
44 46 87 53 95 7 8 77 146 157 305 80 160 165 337 190 395 24 58 63 148 85
200 22 52 60 147 85 210 24 63 54 142 65 175 11 33 35 108 51 166 19 67 31
130 31 167 0 52 -3 63 -22 76 -12 9 -34 16 -48 16 -14 0 -45 -6 -70 -14 -25
-8 -72 -26 -105 -41 -32 -15 -95 -50 -140 -78 -44 -27 -125 -84 -179 -126 -55
-42 -161 -130 -235 -197 -75 -66 -185 -172 -244 -234 -60 -62 -142 -154 -182
-204 -40 -50 -115 -141 -167 -202 -51 -61 -165 -189 -253 -284 -88 -95 -216
-225 -285 -288 -69 -63 -162 -142 -208 -176 -45 -33 -112 -78 -149 -99 -36
-21 -94 -47 -127 -59 -42 -14 -98 -22 -182 -25 -83 -4 -133 -2 -160 7 -21 7
-53 23 -70 36 -20 15 -39 43 -53 82 -17 45 -22 80 -22 146 0 48 5 115 11 149
6 34 23 107 36 162 14 55 40 147 59 205 19 58 45 134 58 170 13 36 43 110 67
165 23 55 48 111 55 125 8 14 48 94 90 178 42 85 86 170 97 190 11 20 34 62
50 92 17 30 42 75 56 100 14 25 45 77 69 116 23 39 43 76 43 82 0 7 3 12 8 12
4 0 20 24 36 53 16 28 58 97 94 152 36 55 82 125 102 155 20 30 79 116 130
190 52 74 125 176 164 225 39 50 129 164 201 255 71 91 150 192 175 225 25 33
86 112 136 175 50 63 127 171 172 238 45 68 82 125 82 127 0 3 15 26 34 52 18
27 52 83 75 127 22 43 41 84 41 91 0 8 4 15 10 17 5 2 28 48 51 103 22 55 56
161 76 235 29 113 36 158 40 275 4 103 1 164 -11 228 -8 49 -30 135 -47 190
-18 56 -51 138 -74 182 -23 45 -63 108 -89 142 -25 34 -69 81 -96 106 -28 25
-75 62 -106 82 -30 20 -92 54 -137 75 -45 21 -127 54 -182 74 -55 19 -149 49
-208 66 -59 17 -187 47 -285 66 -97 19 -269 48 -382 64 -113 16 -272 36 -355
44 -82 8 -193 18 -245 21 -52 4 -106 8 -120 10 -14 2 -70 9 -125 15 -55 6
-181 22 -280 36 -99 14 -218 34 -264 45 -45 10 -96 28 -111 39 -15 11 -33 33
-40 50 -8 20 -11 56 -7 104 3 40 15 106 27 147 12 41 28 92 35 114 8 22 23 67
35 99 12 33 31 78 42 100 12 23 39 70 61 106 23 36 61 92 87 125 25 33 58 78
72 100 15 22 60 78 99 125 40 47 97 117 128 155 30 39 112 133 180 210 69 77
162 178 206 224 44 47 136 141 205 210 69 69 159 158 201 196 41 39 106 97
143 129 37 32 80 71 95 85 15 14 60 53 100 86 40 33 78 65 85 70 6 6 63 55
126 110 63 54 142 124 176 154 33 31 73 66 90 78 16 12 39 30 51 40 16 13 20
22 14 32 -8 12 -14 13 -33 3 -13 -7 -39 -24 -58 -38 -19 -14 -93 -78 -165
-142 -71 -65 -155 -138 -185 -162 -30 -25 -84 -73 -120 -107 -36 -35 -70 -63
-77 -63 -6 0 -18 -8 -25 -18 -7 -10 -53 -53 -103 -97 -49 -43 -110 -97 -134
-119 -24 -23 -112 -109 -195 -193 -83 -83 -182 -185 -221 -225 -38 -41 -111
-119 -161 -174 -51 -54 -117 -129 -148 -166 -31 -37 -71 -85 -89 -107 -18 -22
-64 -78 -102 -123 -39 -46 -100 -121 -135 -168 -35 -47 -76 -101 -90 -120 -15
-20 -52 -78 -82 -130 -30 -52 -71 -138 -90 -190 -20 -52 -48 -133 -63 -180
-14 -47 -31 -122 -37 -166 -9 -65 -9 -88 2 -113 7 -18 22 -43 32 -57 11 -13
38 -34 60 -45 22 -11 70 -27 107 -35 36 -8 158 -27 271 -43 113 -16 230 -32
260 -36 30 -4 69 -8 85 -10 17 -2 120 -11 230 -20 110 -9 288 -27 395 -41 107
-13 254 -34 325 -45 72 -11 202 -36 290 -55 88 -19 192 -44 230 -55 39 -12
104 -33 145 -47 41 -14 124 -47 183 -73 60 -27 134 -66 165 -86 31 -21 81 -63
110 -93 30 -30 71 -79 92 -110 20 -30 53 -87 73 -125 19 -39 47 -111 62 -159
15 -49 33 -124 41 -165 7 -42 13 -127 14 -189 0 -76 -7 -146 -21 -215 -11 -56
-38 -154 -59 -217 -21 -63 -61 -162 -90 -220 -29 -58 -73 -139 -98 -180 -25
-41 -81 -129 -125 -195 -44 -66 -115 -164 -156 -219 -42 -54 -92 -120 -111
-146 -19 -26 -48 -65 -65 -86 -16 -22 -72 -93 -125 -159 -52 -66 -126 -160
-164 -210 -38 -49 -106 -139 -151 -200 -45 -60 -125 -174 -178 -251 -53 -78
-141 -213 -195 -300 -54 -88 -137 -226 -184 -309 -47 -82 -104 -186 -128 -230
-23 -44 -62 -116 -85 -160 -24 -44 -66 -132 -95 -195 -28 -63 -55 -123 -60
-132 -5 -9 -26 -58 -46 -110 -20 -51 -54 -147 -75 -213 -22 -66 -51 -165 -64
-220 -13 -55 -29 -127 -36 -160 -7 -33 -12 -105 -12 -160 0 -55 6 -118 13
-140 7 -22 26 -60 43 -84 21 -31 46 -51 86 -70 53 -24 64 -26 201 -25 123 0
155 4 210 23 36 13 72 28 80 35 8 6 41 25 73 41 32 17 109 70 172 118 63 49
194 168 293 265 99 97 231 236 295 307 64 72 153 175 197 230 45 55 106 131
137 169 31 38 102 117 157 174 56 58 174 169 262 246 89 78 190 163 225 191
35 27 111 78 169 113 58 34 135 74 171 88 36 14 77 24 90 22 18 -2 25 -10 27
-33 1 -16 -8 -73 -21 -125 -14 -53 -44 -149 -67 -215 -23 -66 -62 -170 -86
-232 -25 -62 -72 -177 -105 -255 -34 -79 -112 -246 -173 -373 -62 -126 -182
-358 -268 -515 -85 -157 -217 -406 -292 -555 -75 -148 -158 -317 -183 -375
-25 -58 -51 -118 -58 -135 -8 -16 -25 -63 -40 -104 -14 -42 -29 -109 -32 -152
-4 -49 -1 -101 7 -140 10 -47 22 -71 50 -100 26 -28 45 -39 66 -39 16 0 47 5
69 11 21 6 62 26 90 44 27 18 66 50 86 71 21 22 49 52 64 68 15 16 71 84 125
150 53 67 130 168 170 226 41 58 77 107 82 108 4 2 8 9 8 16 0 7 14 30 30 51
16 21 30 41 30 46 0 4 12 27 28 51 15 24 32 52 39 63 7 11 33 58 59 105 26 47
55 96 64 110 9 14 33 54 52 90 20 36 66 119 103 185 37 66 79 140 93 165 14
25 34 61 45 80 11 19 56 100 100 180 45 80 114 208 155 285 40 77 106 208 146
290 40 83 80 166 88 185 9 19 57 126 107 237 50 111 91 205 91 208 0 3 16 43
36 88 20 45 40 91 45 102 5 11 22 54 39 95 17 41 58 144 91 229 33 85 75 205
94 268 19 62 39 141 45 176 6 41 7 82 1 113 -7 37 -18 57 -49 86 -22 21 -59
42 -83 48 -26 7 -69 10 -102 6 -32 -3 -91 -20 -131 -36 -48 -20 -136 -76 -252
-160 -99 -71 -234 -169 -302 -217 -68 -49 -153 -109 -190 -135 -37 -26 -80
-57 -97 -68 -16 -11 -70 -51 -120 -87 -49 -36 -137 -99 -195 -138 -58 -40
-159 -110 -225 -155 -66 -45 -199 -135 -295 -199 -96 -65 -258 -176 -360 -247
-102 -72 -217 -155 -257 -185 -39 -30 -93 -69 -120 -87 -26 -18 -82 -55 -124
-82 -43 -28 -100 -61 -129 -76 -28 -14 -57 -23 -64 -21 -7 3 -16 18 -19 34 -3
16 -2 58 3 93 5 36 19 99 33 140 14 41 37 107 52 145 14 39 66 151 115 250 48
99 116 225 150 280 35 55 73 116 85 135 12 19 37 60 55 90 18 30 107 165 197
300 90 135 185 274 210 310 26 36 111 151 190 255 80 105 167 219 195 255 28
36 111 139 185 230 73 91 158 194 189 230 30 36 76 90 102 121 26 31 94 112
151 180 57 68 115 138 130 155 14 18 79 97 144 175 65 79 147 182 183 229 36
47 93 128 128 180 34 52 77 118 94 145 17 28 54 95 81 150 28 55 65 138 82
185 17 47 42 128 56 180 17 69 25 135 30 240 4 114 2 160 -11 213 -9 38 -28
93 -43 124 -17 35 -51 77 -90 113 -34 31 -91 72 -125 91 -35 18 -97 48 -138
67 -41 18 -104 41 -140 52 -36 11 -99 27 -140 36 -41 9 -102 21 -135 25 -33 5
-121 15 -195 24 -74 8 -200 19 -280 24 -80 5 -287 12 -460 15 -173 4 -396 9
-495 11 -99 3 -245 10 -325 16 -80 5 -185 16 -235 24 -49 8 -112 21 -140 29
-27 7 -85 28 -128 45 -42 17 -112 48 -155 70 -43 21 -122 67 -177 101 -54 34
-116 77 -138 95 -22 19 -49 54 -59 77 -16 33 -19 57 -15 108 3 39 17 97 35
144 17 43 51 110 74 150 24 39 60 91 81 116 22 25 74 81 117 125 42 44 117
116 165 160 48 44 136 117 194 163 58 46 122 95 141 110 19 15 44 35 55 45 11
10 135 105 275 210 140 105 296 224 345 264 50 40 110 90 134 110 24 21 51 42
60 47 9 5 45 34 80 65 36 31 79 67 97 81 17 14 71 59 120 100 49 41 154 140
235 220 80 80 168 177 197 215 29 39 70 107 92 151 23 45 43 98 47 117 3 20 2
52 -1 72 -6 31 -14 40 -49 56 -23 10 -58 18 -77 18z"/>
</g>
<g>
<path d="M3902 9259 c-9 -1 -25 -3 -34 -6 -10 -2 -21 -16 -24 -30 -4 -14 -2
-33 3 -42 6 -9 22 -17 37 -19 15 -2 33 2 41 8 8 6 12 17 10 23 -2 7 -6 24 -9
40 -4 17 -12 27 -24 26z"/>
</g>
<g>
<path d="M3151 9050 c-4 0 -17 -7 -29 -16 -12 -8 -22 -23 -22 -33 0 -10 7 -24
14 -31 8 -6 25 -10 38 -8 17 2 24 11 26 31 2 16 -2 35 -9 43 -6 8 -14 14 -18
14z"/>
</g>
<g>
<path d="M3527 9040 c-9 0 -21 -9 -27 -20 -6 -11 -16 -57 -22 -102 -6 -46 -12
-96 -12 -113 -1 -30 -1 -30 59 -33 33 -1 66 2 74 7 8 5 11 16 6 30 -5 17 -14
21 -47 21 l-41 0 7 48 c3 26 9 73 13 105 5 48 3 57 -10 57z"/>
</g>
<g>
<path d="M2712 8760 c-5 0 -16 -6 -26 -13 -12 -9 -17 -23 -14 -42 2 -26 7 -30
32 -30 16 0 33 7 39 16 8 13 6 24 -6 43 -10 14 -21 26 -25 26z"/>
</g>
<g>
<path d="M3820 8636 c-25 1 -72 -2 -105 -6 -33 -4 -103 -13 -154 -19 -53 -6
-98 -17 -103 -24 -4 -6 -6 -16 -5 -22 2 -5 29 -11 60 -13 31 -2 80 2 109 9 29
6 96 14 148 18 93 6 95 7 95 31 0 23 -4 25 -45 26z"/>
</g>
<g>
<path d="M7209 8613 c-10 3 -25 -3 -38 -17 -12 -12 -21 -29 -21 -37 0 -8 5
-20 12 -27 7 -7 22 -12 34 -12 12 0 29 3 38 6 9 4 16 18 16 34 0 15 -6 32 -12
37 -7 6 -20 13 -29 16z"/>
</g>
<g>
<path d="M2300 8600 c-9 0 -21 -5 -28 -12 -7 -7 -12 -20 -12 -30 0 -10 11 -23
24 -30 14 -6 32 -8 40 -5 9 4 16 17 16 30 0 13 -5 28 -12 35 -7 7 -19 12 -28
12z"/>
</g>
<g>
<path d="M2467 8570 c-8 0 -19 -6 -25 -12 -5 -7 -13 -23 -16 -35 -4 -12 -9
-30 -11 -40 -3 -10 -12 -53 -21 -96 -12 -57 -14 -81 -6 -89 8 -8 27 -8 70 2
55 11 59 14 54 37 -4 22 -9 24 -39 21 -32 -4 -33 -2 -29 21 3 15 8 44 12 66 4
22 13 53 21 68 8 16 12 35 9 43 -3 8 -12 14 -19 14z"/>
</g>
<g>
<path d="M1600 8390 c-9 0 -21 -5 -28 -12 -7 -7 -12 -21 -12 -33 0 -12 6 -30
14 -41 14 -18 17 -18 43 -3 22 12 28 22 26 44 -1 16 -8 32 -15 37 -7 4 -20 8
-28 8z"/>
</g>
<g>
<path d="M7037 8350 c-10 0 -20 -7 -24 -17 -4 -11 3 -24 23 -41 16 -13 38 -32
49 -41 11 -9 35 -23 53 -30 18 -8 37 -22 42 -31 7 -13 4 -25 -11 -44 -12 -15
-18 -33 -15 -41 3 -8 12 -15 20 -15 8 0 28 18 45 39 17 21 31 48 31 59 0 11
-15 31 -34 46 -19 14 -47 31 -62 38 -16 7 -44 28 -64 45 -19 18 -43 33 -53 33z"/>
</g>
<g>
<path d="M6499 8250 c-3 0 -18 -9 -33 -21 -14 -11 -26 -28 -26 -38 0 -10 8
-25 18 -34 10 -10 25 -17 33 -17 8 0 20 5 27 12 7 7 12 26 12 43 0 17 -5 36
-12 43 -7 7 -15 12 -19 12z"/>
</g>
<g>
<path d="M1130 8240 c-9 0 -21 -5 -28 -12 -7 -7 -12 -22 -12 -35 0 -12 8 -27
18 -32 10 -6 28 -7 40 -4 16 4 22 13 22 32 0 15 -5 32 -12 39 -7 7 -19 12 -28
12z"/>
</g>
<g>
<path d="M2695 8206 c-5 2 -59 -12 -120 -30 -60 -19 -132 -39 -160 -45 -27 -7
-55 -17 -62 -23 -7 -6 -13 -16 -13 -23 0 -7 6 -15 14 -18 8 -3 90 13 182 37
l169 42 0 29 c0 15 -4 30 -10 31z"/>
</g>
<g>
<path d="M1391 8190 c-12 0 -21 -6 -21 -12 1 -7 7 -40 15 -73 8 -33 15 -76 15
-96 0 -20 8 -46 18 -58 17 -20 18 -21 65 -3 38 13 47 21 45 37 -2 15 -12 21
-39 23 -36 3 -36 3 -43 58 -3 31 -13 71 -21 90 -9 23 -21 34 -34 34z"/>
</g>
<g>
<path d="M7540 8080 c-5 0 -22 -17 -38 -37 -16 -21 -42 -58 -58 -83 -16 -25
-89 -126 -163 -225 -73 -99 -156 -209 -183 -244 -27 -36 -47 -72 -46 -80 2 -9
10 -17 19 -19 11 -2 34 24 69 75 29 43 66 93 82 113 15 19 98 128 182 242 85
114 157 212 161 218 4 6 1 17 -5 25 -7 8 -16 15 -20 15z"/>
</g>
<g>
<path d="M6098 7932 c-7 2 -22 2 -34 0 -11 -1 -28 -16 -38 -32 -17 -29 -17
-30 9 -56 19 -19 31 -23 48 -18 12 4 27 14 34 23 7 9 13 22 13 29 0 7 -4 21
-10 31 -5 10 -15 21 -22 23z"/>
</g>
<g>
<path d="M1687 7900 c-13 0 -26 -3 -30 -6 -3 -4 -30 -12 -59 -19 -29 -7 -82
-23 -118 -35 -36 -12 -87 -33 -115 -46 -27 -13 -58 -25 -68 -28 -10 -4 -17
-13 -15 -22 2 -9 10 -21 18 -26 11 -7 34 -1 81 21 36 17 74 31 83 31 9 0 30 7
46 15 15 8 63 24 107 36 43 11 84 27 92 34 7 7 11 21 8 29 -4 9 -17 16 -30 16z"/>
</g>
<g>
<path d="M5908 7740 c-2 0 -9 -5 -16 -12 -7 -7 -12 -17 -12 -23 0 -6 10 -21
23 -32 12 -11 56 -41 97 -66 41 -26 88 -57 105 -71 l29 -24 -32 -37 c-18 -20
-32 -44 -30 -53 2 -9 10 -18 19 -20 10 -2 33 17 56 45 22 26 43 57 47 69 5 17
-5 28 -51 63 -32 24 -78 55 -103 69 -25 14 -64 40 -87 59 -23 18 -43 33 -45
33z"/>
</g>
<g>
<path d="M5144 7530 c-13 0 -30 -7 -38 -16 -9 -8 -16 -23 -16 -33 0 -10 8 -25
18 -34 10 -10 27 -17 38 -17 11 0 25 5 32 12 7 7 12 24 12 38 0 14 -5 31 -12
38 -7 7 -22 12 -34 12z"/>
</g>
<g>
<path d="M6308 7420 c-4 0 -54 -48 -110 -107 -57 -60 -171 -178 -255 -263 -84
-86 -153 -161 -153 -167 0 -7 7 -16 16 -21 12 -7 40 17 127 107 62 64 177 182
257 263 80 81 147 153 149 159 2 6 -3 15 -10 20 -8 5 -17 9 -21 9z"/>
</g>
<g>
<path d="M4575 7262 c-5 2 -17 3 -26 1 -9 -2 -22 -15 -30 -29 -11 -22 -11 -29
2 -52 8 -15 27 -31 43 -37 23 -8 30 -6 42 10 8 10 14 31 14 45 0 15 -8 34 -17
42 -10 8 -22 17 -28 20z"/>
</g>
<g>
<path d="M4050 6878 c-12 2 -23 -4 -26 -13 -5 -12 13 -37 62 -87 38 -38 104
-99 147 -135 42 -35 77 -70 77 -77 0 -7 -16 -31 -36 -54 -19 -23 -34 -50 -32
-59 2 -10 12 -19 23 -21 14 -2 28 10 45 35 14 21 31 44 38 52 8 8 18 26 23 40
9 23 6 30 -38 71 -27 25 -97 90 -156 145 -59 55 -117 101 -127 103z"/>
</g>
<g>
<path d="M2816 6800 c-12 0 -31 -9 -41 -20 -9 -10 -17 -31 -17 -45 0 -15 4
-31 10 -37 6 -6 25 -8 47 -4 24 5 39 15 47 31 9 19 7 29 -6 50 -10 15 -26 25
-40 25z"/>
</g>
<g>
<path d="M4676 6360 c-14 0 -27 -4 -31 -9 -3 -6 -67 -63 -142 -128 -74 -65
-170 -148 -212 -186 -42 -37 -139 -120 -216 -185 -77 -65 -179 -155 -227 -199
-47 -44 -107 -93 -132 -109 -33 -21 -46 -35 -44 -49 2 -11 10 -21 18 -23 9 -1
40 18 70 44 30 25 89 76 130 113 41 38 138 121 215 186 77 65 166 141 199 169
32 28 98 85 145 126 47 42 123 107 169 144 48 41 82 77 82 88 0 12 -7 18 -24
18z"/>
</g>
<g>
<path d="M7601 5400 c-3 0 -17 -6 -31 -13 -15 -7 -26 -23 -28 -38 -2 -14 4
-31 12 -38 9 -8 26 -11 39 -7 13 3 28 16 34 28 7 17 6 29 -5 46 -8 12 -17 22
-21 22z"/>
</g>
<g>
<path d="M7441 5145 c-23 5 -32 3 -37 -9 -3 -9 -4 -22 -1 -29 2 -7 32 -18 66
-25 33 -7 61 -15 61 -18 0 -2 -7 -16 -16 -29 -9 -14 -14 -32 -10 -40 3 -8 12
-15 20 -15 8 0 25 15 37 33 13 17 29 38 37 46 7 7 11 18 9 24 -2 6 -33 21 -69
33 -36 12 -80 25 -97 29z"/>
</g>
<g>
<path d="M7779 5078 c-9 2 -26 -10 -38 -25 -12 -15 -59 -74 -104 -131 -45 -57
-110 -140 -145 -185 -35 -44 -72 -87 -83 -95 -10 -7 -19 -19 -19 -26 0 -8 7
-19 16 -26 13 -11 23 -5 70 44 29 32 54 64 54 72 0 8 4 14 9 14 5 0 12 8 15
18 4 9 25 38 49 64 23 26 76 90 117 144 41 53 75 104 75 112 0 9 -7 18 -16 20z"/>
</g>
<g>
<path d="M7035 4990 c-1 0 -13 -8 -25 -18 -20 -16 -21 -23 -13 -48 7 -22 17
-30 38 -32 19 -3 33 2 42 14 7 10 13 28 13 41 0 16 -8 27 -26 33 -14 6 -27 10
-29 10z"/>
</g>
<g>
<path d="M6575 4503 c-11 3 -30 1 -42 -5 -12 -6 -24 -17 -27 -25 -3 -8 -3 -25
0 -38 3 -14 15 -27 25 -30 10 -4 29 -3 42 1 12 4 25 12 29 18 4 6 8 20 8 31 0
11 -4 25 -8 31 -4 6 -16 14 -27 17z"/>
</g>
<g>
<path d="M5115 4337 c-11 2 -28 -2 -37 -8 -10 -5 -18 -20 -18 -32 0 -13 5 -28
12 -35 7 -7 24 -12 40 -12 16 0 31 7 37 18 7 12 6 26 -2 43 -7 13 -21 25 -32
26z"/>
</g>
<g>
<path d="M6374 4247 c-6 2 -19 -3 -28 -12 -12 -12 -14 -21 -6 -30 5 -6 39 -20
75 -30 36 -9 65 -19 65 -22 0 -2 -5 -14 -11 -25 -9 -16 -8 -24 5 -36 13 -13
18 -13 31 -2 9 8 23 26 31 41 8 16 14 34 14 42 0 7 -34 25 -82 41 -46 16 -88
31 -94 33z"/>
</g>
<g>
<path d="M6641 4160 c-10 0 -25 -8 -33 -17 -8 -10 -46 -63 -84 -118 -38 -55
-83 -122 -101 -150 -17 -27 -46 -75 -63 -105 -17 -30 -28 -60 -25 -68 3 -7 14
-12 26 -10 14 2 33 25 56 68 20 36 61 103 91 150 31 47 80 117 110 157 29 40
51 77 47 83 -3 5 -14 10 -24 10z"/>
</g>
<g>
<path d="M6005 3990 c-13 0 -33 -8 -46 -19 -22 -18 -22 -19 -6 -45 10 -14 26
-26 37 -26 10 0 26 7 34 16 9 8 16 21 16 29 0 7 -3 20 -6 29 -3 9 -16 16 -29
16z"/>
</g>
<g>
<path d="M5366 3960 c-6 0 -31 -16 -56 -36 -25 -20 -94 -74 -155 -120 -60 -46
-148 -113 -195 -148 -47 -36 -115 -88 -153 -117 -37 -29 -90 -67 -118 -86 -28
-18 -54 -33 -57 -33 -4 0 -34 -18 -67 -41 -33 -22 -60 -46 -60 -52 0 -7 13
-11 30 -11 19 1 69 27 134 68 57 37 151 104 210 149 58 45 113 87 121 94 8 6
39 31 69 54 30 23 83 62 118 86 35 24 88 62 117 86 29 23 60 47 69 52 12 7 15
17 11 33 -4 12 -11 22 -18 22z"/>
</g>
<g>
<path d="M4626 3820 c-8 0 -17 -4 -21 -10 -3 -5 0 -49 6 -98 6 -49 15 -95 19
-102 6 -10 20 -10 69 1 57 12 62 15 59 39 -3 23 -7 25 -44 22 l-41 -3 -7 51
c-4 28 -11 62 -16 75 -5 14 -16 25 -24 25z"/>
</g>
<g>
<path d="M5449 3498 c-15 2 -32 -5 -43 -17 -14 -16 -15 -23 -6 -41 9 -16 19
-20 43 -18 29 3 32 6 32 38 0 30 -4 35 -26 38z"/>
</g>
<g>
<path d="M4100 3420 c-9 0 -25 -9 -35 -20 -12 -13 -15 -27 -11 -45 5 -20 13
-25 35 -25 16 0 36 7 45 15 8 9 12 23 9 33 -3 9 -10 23 -16 30 -5 6 -17 12
-27 12z"/>
</g>
<g>
<path d="M3722 3250 c-9 0 -25 -5 -34 -11 -10 -5 -18 -16 -18 -24 0 -7 7 -21
16 -29 8 -9 22 -16 29 -16 8 0 19 9 25 20 6 12 8 30 5 40 -4 11 -14 20 -23 20z"/>
</g>
<g>
<path d="M5285 3240 c-12 0 -26 -5 -33 -12 -7 -7 -8 -17 -1 -30 7 -13 21 -18
55 -18 41 0 44 -2 39 -23 -4 -15 -1 -28 10 -37 13 -11 18 -11 32 2 8 9 16 33
17 54 1 37 0 38 -49 50 -27 8 -59 14 -70 14z"/>
</g>
<g>
<path d="M5541 3220 c-11 0 -27 -7 -35 -16 -9 -8 -28 -36 -43 -62 -15 -26 -36
-60 -47 -77 -12 -16 -27 -39 -33 -50 -7 -11 -26 -45 -42 -75 -16 -30 -45 -79
-65 -109 -20 -29 -36 -59 -36 -66 0 -7 9 -15 20 -18 15 -4 27 5 49 36 15 23
50 80 76 127 26 47 68 117 93 155 24 39 53 82 63 97 11 15 19 34 19 43 0 8 -9
15 -19 15z"/>
</g>
<g>
<path d="M4747 2830 c-13 0 -28 -5 -35 -12 -7 -7 -12 -22 -12 -34 0 -12 7 -27
14 -34 8 -6 25 -10 37 -8 12 2 27 11 32 20 8 12 7 24 -1 42 -8 17 -20 26 -35
26z"/>
</g>
<g>
<path d="M3388 2798 c-9 2 -20 -3 -25 -10 -4 -7 -9 -74 -10 -148 -2 -74 0
-143 3 -152 3 -10 13 -18 22 -18 10 0 34 14 55 31 20 17 37 38 37 48 0 10 -3
21 -6 24 -4 3 -16 1 -27 -4 -15 -8 -22 -8 -29 2 -5 8 -7 61 -6 119 3 91 1 105
-14 108z"/>
</g>
<g>
<path d="M4101 2633 c-4 4 -41 -10 -83 -32 -42 -22 -98 -55 -126 -74 -27 -20
-78 -50 -113 -67 -35 -18 -140 -83 -234 -145 -93 -61 -194 -127 -222 -145 -29
-17 -53 -38 -53 -46 0 -7 8 -18 18 -23 15 -8 44 7 148 75 71 46 147 97 169
113 22 16 63 42 90 59 28 16 106 62 175 103 69 40 152 87 185 104 46 24 59 36
57 51 -2 10 -7 22 -11 27z"/>
</g>
<g>
<path d="M3033 2418 c-15 2 -27 -5 -39 -24 -17 -25 -17 -27 1 -41 11 -7 29
-12 40 -11 16 2 20 11 20 38 0 28 -4 36 -22 38z"/>
</g>
<g>
<path d="M2378 2150 c-13 0 -32 -7 -43 -16 -18 -14 -19 -17 -4 -42 11 -19 23
-27 43 -27 16 0 34 7 39 17 8 12 8 24 -1 42 -8 17 -19 26 -34 26z"/>
</g>
<g>
<path d="M2095 1810 c-23 0 -25 -3 -25 -54 0 -29 3 -81 6 -114 5 -46 11 -63
24 -67 10 -3 43 4 74 16 48 17 57 24 54 42 -2 17 -9 21 -28 19 -14 -1 -34 -4
-45 -5 -17 -2 -20 5 -23 48 -1 28 -4 65 -7 83 -5 26 -11 32 -30 32z"/>
</g>
<g>
<path d="M2693 1620 c-10 0 -29 -9 -43 -19 -14 -10 -45 -29 -70 -42 -25 -13
-67 -37 -95 -54 -27 -18 -133 -75 -235 -127 -102 -52 -215 -112 -252 -133 -38
-20 -68 -40 -68 -44 0 -4 6 -15 13 -25 12 -17 16 -16 68 15 29 17 131 70 224
117 94 47 186 95 205 107 19 12 76 43 125 70 50 26 102 56 118 67 17 12 27 29
27 44 0 16 -6 24 -17 24z"/>
</g>
<g>
<path d="M1626 1590 c-12 0 -31 -9 -40 -19 -15 -16 -16 -23 -5 -43 6 -13 17
-26 23 -30 6 -4 21 -8 34 -8 14 0 26 9 34 25 9 19 8 29 -6 50 -10 15 -26 25
-40 25z"/>
</g>
</g>
</svg>
