<?xml version="1.0" standalone="no"?>
<!DOCTYPE svg PUBLIC "-//W3C//DTD SVG 20010904//EN"
 "http://www.w3.org/TR/2001/REC-SVG-20010904/DTD/svg10.dtd">
<svg version="1.0" xmlns="http://www.w3.org/2000/svg"
 width="900.000000pt" height="1199.000000pt" viewBox="0 0 900.000000 1199.000000"
 preserveAspectRatio="xMidYMid meet">
<metadata>
Created by potrace 1.16, written by Peter Selinger 2001-2019
</metadata>
<g transform="translate(0.000000,1199.000000) scale(0.100000,-0.100000)"
fill="#000000" stroke="none">
<g>
<path d="M4449 10580 c-31 0 -58 -2 -60 -4 -2 -2 -38 -7 -79 -10 -41 -3 -115
-10 -163 -15 -49 -6 -94 -14 -100 -19 -7 -5 -30 -15 -52 -22 -22 -7 -47 -18
-55 -25 -8 -7 -49 -30 -90 -51 -41 -20 -98 -54 -127 -76 -29 -21 -58 -38 -66
-38 -8 0 -26 -9 -40 -20 -14 -11 -28 -20 -31 -20 -4 0 -33 -18 -66 -41 -34
-23 -67 -54 -76 -70 -8 -16 -20 -29 -26 -29 -6 0 -62 -53 -125 -117 -62 -65
-113 -121 -113 -125 0 -5 -6 -8 -14 -8 -8 0 -22 -20 -32 -45 -9 -25 -21 -45
-26 -45 -4 0 -16 -17 -24 -37 -9 -21 -23 -50 -30 -65 -8 -14 -14 -34 -14 -43
0 -9 -9 -44 -20 -78 -11 -34 -29 -93 -39 -132 -17 -60 -20 -103 -20 -295 0
-148 5 -259 15 -325 8 -55 24 -127 35 -160 12 -33 25 -64 30 -69 5 -6 9 -17 9
-26 0 -9 36 -88 80 -176 44 -87 86 -163 93 -169 7 -5 25 -30 39 -55 14 -25 75
-94 134 -153 88 -88 126 -118 204 -160 52 -28 103 -56 113 -62 10 -5 59 -37
109 -69 50 -33 116 -68 147 -78 30 -10 112 -30 181 -44 73 -15 168 -26 229
-28 97 -2 105 -4 112 -24 5 -12 9 -55 9 -95 0 -39 0 -109 0 -154 l-1 -83 -87
0 c-48 0 -141 -7 -207 -16 -66 -8 -158 -25 -205 -36 -53 -14 -128 -23 -200
-25 -63 -2 -124 -7 -135 -12 -11 -5 -32 -12 -47 -15 -15 -4 -32 -14 -37 -24
-5 -10 -12 -38 -16 -62 -3 -25 -12 -65 -20 -90 -8 -25 -19 -87 -25 -139 -6
-51 -15 -102 -21 -113 -6 -12 -16 -53 -21 -92 -6 -39 -10 -95 -9 -124 0 -29
-6 -69 -14 -88 -10 -25 -12 -41 -5 -54 5 -9 8 -19 5 -21 -2 -2 -6 -86 -9 -187
-3 -101 -10 -192 -16 -202 -6 -11 -8 -30 -5 -43 4 -13 2 -55 -4 -93 -5 -38
-17 -109 -26 -159 -9 -49 -19 -115 -24 -145 -4 -30 -12 -64 -18 -75 -6 -11
-13 -57 -16 -103 -4 -45 -12 -92 -18 -104 -7 -12 -13 -97 -17 -208 -5 -183 -4
-188 17 -209 12 -12 28 -21 34 -18 7 2 20 19 29 38 12 22 16 47 13 71 -3 21 0
113 6 205 6 93 14 173 19 178 4 6 13 49 19 96 6 47 18 110 27 140 8 30 21 101
29 159 8 58 19 155 26 215 6 61 13 153 15 205 2 52 5 114 7 138 3 23 7 46 11
49 3 4 7 -16 8 -43 1 -27 2 -83 3 -124 1 -41 8 -106 15 -143 7 -37 10 -73 7
-81 -3 -8 -1 -39 4 -68 6 -29 12 -114 14 -188 2 -74 4 -247 5 -385 0 -137 5
-281 11 -320 6 -38 10 -89 9 -112 0 -24 -1 -49 -1 -55 -1 -7 2 -74 5 -148 4
-74 6 -178 6 -230 0 -52 -1 -108 -2 -125 -1 -16 2 -145 6 -285 4 -140 9 -366
11 -502 1 -140 7 -253 12 -260 5 -7 8 -40 7 -73 -2 -32 -6 -65 -8 -72 -3 -7 1
-103 9 -213 9 -110 15 -220 15 -243 0 -23 2 -215 4 -427 3 -212 6 -410 7 -440
3 -48 0 -55 -17 -59 -10 -2 -23 -7 -29 -11 -5 -5 -28 -12 -50 -16 -21 -4 -59
-16 -83 -26 -24 -11 -67 -22 -95 -25 -29 -3 -63 -11 -77 -18 -16 -8 -35 -9
-54 -4 -21 6 -35 3 -52 -9 -13 -9 -27 -27 -30 -40 -4 -13 -2 -34 5 -48 8 -18
18 -24 43 -24 18 0 65 9 103 20 39 11 84 20 100 20 17 1 48 8 70 16 22 8 74
24 115 35 41 11 89 23 107 26 20 3 33 12 37 26 3 11 3 120 0 241 -3 122 -9
235 -13 251 -4 17 -5 38 -2 47 3 9 3 90 -1 180 -4 90 -10 244 -13 343 -2 99
-10 279 -15 400 -6 121 -13 272 -15 335 -2 63 -7 363 -9 665 -3 303 -8 613
-11 690 -3 77 -8 166 -12 199 l-6 58 31 -6 c16 -4 47 -9 69 -11 21 -2 63 -11
93 -19 30 -8 89 -19 130 -25 41 -6 127 -18 190 -27 63 -9 147 -20 185 -25 39
-4 104 -13 145 -18 41 -6 104 -14 140 -17 36 -3 76 -10 90 -15 14 -4 48 -11
75 -13 28 -3 82 -12 120 -21 39 -9 120 -26 180 -40 61 -13 117 -24 125 -24 8
0 44 -5 79 -11 35 -6 71 -15 80 -19 9 -5 42 -14 74 -21 41 -8 57 -16 59 -28 1
-9 3 -78 5 -152 1 -74 3 -268 3 -430 0 -162 -3 -333 -8 -380 -5 -47 -11 -175
-13 -285 -2 -110 -3 -294 -3 -410 0 -115 3 -271 7 -345 4 -74 10 -178 12 -230
3 -52 9 -176 15 -275 5 -99 12 -265 15 -370 3 -104 8 -248 11 -318 5 -113 4
-131 -12 -148 -9 -10 -28 -19 -41 -19 -13 0 -36 -6 -51 -14 -15 -7 -51 -16
-81 -20 -30 -4 -62 -11 -71 -16 -9 -5 -47 -11 -86 -15 -38 -3 -103 -10 -144
-15 -41 -6 -118 -16 -170 -23 -52 -8 -105 -19 -117 -26 -13 -6 -23 -17 -23
-24 1 -7 9 -22 19 -35 16 -18 29 -22 81 -22 34 0 110 9 168 21 62 12 123 19
146 15 25 -3 90 4 166 19 69 14 143 30 165 36 22 7 64 20 93 29 29 10 58 22
63 27 6 6 6 125 -1 329 -5 175 -12 348 -16 384 -3 36 -7 86 -10 112 -3 26 -7
105 -8 175 -2 71 -8 240 -15 376 -6 137 -13 252 -16 256 -2 5 -5 134 -5 287
-1 153 5 383 13 509 10 161 13 365 11 683 -2 250 -7 459 -11 465 -4 7 -8 298
-10 647 -1 349 -4 653 -7 675 -3 22 -8 101 -12 175 -5 90 -3 170 6 238 7 57
15 100 19 97 3 -4 12 -43 18 -88 7 -45 15 -98 18 -117 3 -19 9 -46 15 -60 5
-14 14 -92 20 -175 6 -82 12 -161 14 -175 2 -14 6 -52 10 -85 4 -33 9 -81 11
-108 2 -26 9 -56 15 -67 6 -11 7 -37 4 -59 -4 -22 -3 -48 1 -58 5 -10 9 -24
11 -31 1 -7 5 -47 9 -90 3 -42 8 -90 11 -107 2 -16 8 -70 14 -120 6 -49 17
-157 25 -240 9 -82 22 -186 30 -230 8 -44 20 -125 26 -180 6 -55 15 -138 20
-185 5 -47 14 -130 19 -185 8 -89 12 -102 35 -122 14 -13 38 -23 52 -23 l26 0
-7 68 c-4 37 -11 96 -17 132 -5 36 -16 135 -25 220 -8 85 -26 209 -39 275 -13
66 -27 152 -30 190 -3 39 -12 104 -19 145 -8 41 -14 84 -13 95 0 11 -3 45 -6
75 -4 30 -12 98 -17 150 -6 52 -17 145 -25 205 -7 61 -16 135 -20 166 -3 31
-8 75 -10 97 -2 23 -6 46 -9 50 -3 5 -6 61 -7 125 -1 71 -11 166 -26 244 -13
70 -30 164 -38 208 -7 44 -21 134 -29 200 -9 66 -21 165 -27 220 -6 55 -14
126 -18 158 -4 31 -14 64 -23 73 -12 12 -21 13 -34 6 -11 -5 -53 -13 -94 -17
-41 -3 -140 -8 -220 -9 -80 -2 -174 1 -210 7 -36 5 -160 10 -277 11 -116 1
-214 4 -217 7 -3 3 -9 82 -12 176 l-6 170 84 7 c45 4 87 11 92 16 6 6 36 10
68 10 32 0 77 7 100 17 24 9 50 22 58 28 8 7 30 16 47 20 18 3 35 11 38 16 4
5 17 9 30 9 13 0 27 5 30 10 4 6 30 22 58 36 29 15 99 63 156 108 57 44 115
97 130 116 14 19 42 55 62 80 20 25 50 68 67 97 17 28 49 96 71 150 21 54 48
136 59 183 11 47 26 156 33 243 9 116 9 168 1 195 -6 20 -13 83 -16 138 -2 60
-12 129 -24 170 -11 38 -33 123 -48 189 -15 66 -36 131 -46 144 -10 13 -18 29
-18 36 0 7 -16 41 -35 75 -19 34 -35 68 -35 75 0 8 -4 17 -10 20 -5 3 -10 14
-10 24 0 10 -9 30 -20 44 -11 14 -20 32 -20 39 0 8 -15 37 -32 64 -18 27 -41
58 -51 69 -10 11 -33 42 -50 68 -17 26 -47 58 -66 69 -20 12 -74 61 -121 109
-60 61 -102 95 -142 114 -32 15 -58 31 -58 36 0 4 -11 14 -24 21 -13 7 -53 29
-87 50 -35 20 -89 43 -119 52 -30 8 -93 24 -140 36 -47 11 -111 20 -141 20z
m6 -126 c33 -2 90 -8 127 -13 38 -6 112 -31 171 -56 58 -26 117 -59 132 -75
16 -17 34 -30 40 -30 7 0 20 -9 30 -20 10 -11 22 -20 27 -20 5 0 39 -25 76
-56 37 -31 103 -92 147 -134 44 -43 91 -97 105 -120 14 -24 37 -58 52 -77 15
-19 43 -69 63 -111 20 -42 41 -84 46 -92 5 -8 26 -50 48 -93 22 -42 49 -114
60 -160 11 -45 22 -95 26 -112 3 -16 12 -59 20 -95 8 -36 20 -117 25 -180 6
-63 11 -158 11 -210 1 -52 -1 -102 -4 -110 -3 -8 -8 -44 -10 -80 -2 -36 -9
-87 -16 -115 -8 -27 -34 -104 -59 -170 -26 -66 -50 -122 -54 -123 -5 -2 -25
-29 -45 -60 -20 -32 -77 -97 -128 -147 -64 -64 -111 -100 -161 -125 -38 -19
-71 -37 -74 -40 -3 -3 -25 -15 -50 -27 -25 -12 -70 -32 -100 -43 -30 -12 -61
-26 -68 -32 -7 -6 -41 -12 -75 -13 -34 -2 -84 -8 -112 -14 -33 -7 -136 -9
-295 -7 -135 3 -256 7 -270 9 -14 2 -38 7 -55 11 -16 4 -50 14 -75 22 -25 9
-58 22 -75 31 -16 9 -95 54 -175 101 -80 47 -163 100 -184 116 -22 17 -73 63
-114 101 -41 39 -94 96 -118 127 -24 31 -44 61 -44 66 0 5 -6 15 -14 21 -8 7
-33 49 -55 94 -22 45 -56 118 -75 161 -20 43 -36 83 -36 88 0 6 -7 24 -14 41
-8 18 -23 66 -33 107 -15 62 -18 118 -18 325 1 243 1 253 29 350 15 55 37 127
48 159 10 33 27 71 37 85 10 14 29 45 42 68 13 23 74 92 134 154 61 61 125
123 144 137 19 15 53 43 77 62 24 19 65 51 91 70 26 19 72 49 101 67 29 18 90
50 136 73 46 22 87 40 91 40 4 0 23 7 43 16 21 9 46 20 57 24 11 5 65 14 120
20 55 6 120 12 145 14 25 2 72 2 105 0z m490 -3350 c55 -1 141 -7 190 -13 61
-8 142 -9 253 -4 141 7 165 6 171 -7 4 -8 6 -49 5 -90 -1 -41 -3 -133 -4 -205
-1 -71 -7 -148 -12 -170 -6 -22 -15 -67 -20 -100 -5 -33 -9 -67 -10 -75 0 -8
2 -28 6 -45 4 -16 7 -36 6 -42 -1 -7 -1 -26 -1 -43 0 -16 1 -36 1 -42 1 -7 1
-40 0 -73 0 -33 2 -76 5 -95 3 -19 8 -60 11 -90 3 -30 5 -188 5 -350 -1 -162
-4 -323 -6 -358 -3 -34 -1 -70 4 -80 6 -11 7 -71 2 -153 -4 -73 -5 -164 -1
-201 5 -64 4 -68 -15 -68 -11 1 -38 7 -60 15 -22 8 -56 15 -76 15 -20 0 -58 7
-85 15 -27 8 -60 15 -74 15 -14 0 -56 9 -95 19 -38 11 -94 25 -123 31 -29 7
-81 16 -115 21 -34 5 -84 14 -112 19 -27 6 -70 13 -95 16 -25 3 -56 10 -70 14
-14 5 -75 12 -137 15 -62 2 -146 12 -188 20 -42 9 -113 21 -158 26 -45 6 -111
14 -147 18 -36 5 -92 15 -125 24 -33 9 -78 18 -100 21 -22 2 -50 8 -62 11
l-23 7 -1 292 c0 160 -2 300 -4 311 -2 11 -8 63 -14 115 -6 52 -15 181 -21
285 -6 105 -13 206 -15 225 -2 19 -6 105 -9 190 -2 85 0 187 5 225 5 39 14
107 20 153 6 46 18 89 26 97 8 8 18 15 23 15 5 0 22 -8 38 -17 27 -16 37 -16
94 -4 34 7 73 19 85 27 12 8 36 14 53 14 17 0 41 5 52 11 11 6 66 15 122 21
55 5 163 11 238 13 110 3 139 1 148 -11 7 -8 18 -14 25 -14 7 0 15 7 19 15 4
11 33 15 138 18 73 2 178 2 233 1z"/>
<g>
<path d="M4851 9569 c-9 -1 -29 -4 -44 -6 -20 -3 -33 -14 -44 -38 -9 -19 -13
-43 -10 -57 4 -14 19 -37 33 -51 17 -17 38 -27 56 -27 16 0 37 4 47 10 10 5
24 30 31 55 13 46 13 46 -21 81 -18 18 -40 33 -48 33z"/>
</g>
<g>
<path d="M3462 9550 c-27 0 -45 -7 -60 -23 -13 -13 -24 -42 -27 -68 -5 -34 -1
-51 14 -76 18 -29 26 -33 64 -33 34 0 49 6 69 28 22 22 26 35 24 72 -2 25 -4
48 -5 53 0 4 -10 16 -21 27 -13 13 -33 20 -58 20z"/>
</g>
<g>
<path d="M4040 9160 c-9 0 -24 -8 -32 -17 -8 -10 -16 -25 -16 -33 0 -8 -7 -73
-16 -145 -8 -71 -19 -146 -25 -165 -5 -19 -17 -78 -26 -131 -15 -86 -15 -100
-2 -126 13 -25 28 -32 114 -56 54 -15 108 -27 121 -27 13 0 32 4 42 10 14 7
18 21 18 55 0 32 -5 48 -16 54 -9 4 -41 11 -71 15 -30 4 -67 14 -84 22 -26 14
-28 19 -22 47 4 18 11 70 15 117 5 47 16 119 24 160 8 41 16 101 17 132 1 35
-3 63 -11 73 -7 8 -20 15 -30 15z"/>
</g>
<g>
<path d="M4928 8236 c-20 1 -38 0 -40 -2 -2 -2 -114 -8 -248 -14 -135 -6 -326
-18 -425 -26 -99 -9 -191 -16 -205 -15 -14 0 -59 -5 -100 -11 -41 -5 -82 -14
-91 -18 -8 -5 -33 -11 -56 -13 -22 -3 -50 -10 -62 -17 -17 -8 -21 -19 -19 -42
2 -19 13 -38 29 -50 25 -19 29 -19 79 -4 28 9 118 22 199 31 80 8 205 17 276
20 72 2 202 9 290 15 88 6 213 14 277 18 64 4 119 9 121 12 3 3 7 30 9 60 l3
55 -37 1z"/>
</g>
</g>
</g>
</svg>
