<?xml version="1.0" standalone="no"?>
<!DOCTYPE svg PUBLIC "-//W3C//DTD SVG 20010904//EN"
 "http://www.w3.org/TR/2001/REC-SVG-20010904/DTD/svg10.dtd">
<svg version="1.0" xmlns="http://www.w3.org/2000/svg"
 width="900.000000pt" height="1200.000000pt" viewBox="0 0 900.000000 1200.000000"
 preserveAspectRatio="xMidYMid meet">
<metadata>
Created by potrace 1.16, written by Peter Selinger 2001-2019
</metadata>
<g transform="translate(0.000000,1200.000000) scale(0.100000,-0.100000)"
fill="#000000" stroke="none">
<g>
<path d="M3174 11355 c-26 3 -50 -1 -74 -13 l-35 -18 1 -110 c2 -107 3 -113
43 -196 22 -47 71 -126 107 -174 37 -49 92 -118 123 -154 31 -36 59 -67 62
-70 4 -3 45 -40 91 -82 81 -74 86 -80 97 -135 6 -32 13 -78 16 -103 2 -25 7
-94 10 -155 3 -60 7 -171 8 -245 2 -74 0 -189 -4 -255 -4 -66 -10 -156 -14
-200 -4 -43 -8 -82 -10 -85 -1 -3 -8 -54 -14 -115 -6 -60 -20 -159 -31 -220
-10 -60 -28 -168 -40 -240 -11 -71 -28 -166 -37 -210 -8 -44 -21 -105 -28
-135 -7 -30 -21 -98 -30 -150 -9 -52 -24 -124 -35 -160 -10 -36 -22 -85 -25
-110 -4 -25 -11 -49 -15 -55 -4 -5 -11 -30 -15 -55 -3 -25 -17 -79 -30 -120
-12 -41 -30 -104 -38 -140 -9 -36 -19 -85 -22 -110 -4 -25 -16 -76 -27 -115
-11 -38 -24 -89 -29 -113 -5 -24 -8 -46 -7 -50 1 -4 -1 -14 -5 -22 -3 -8 -15
-64 -27 -125 -13 -63 -28 -198 -35 -315 -7 -113 -18 -218 -24 -233 -6 -16 -11
-30 -11 -33 0 -2 6 -4 13 -4 7 0 24 38 39 88 20 64 29 119 33 207 4 66 13 158
21 205 7 47 19 105 24 130 6 25 17 83 25 130 7 47 21 112 29 145 8 33 22 87
30 120 8 33 26 107 39 165 14 58 34 139 46 180 11 41 21 87 21 102 0 15 4 29
9 32 4 3 11 18 15 33 3 16 13 60 21 98 9 39 27 124 40 190 13 66 28 140 34
165 5 25 21 110 35 190 13 80 29 177 36 215 6 39 16 90 21 115 5 25 14 74 19
110 5 36 14 102 20 148 5 46 12 113 15 150 2 37 10 121 16 187 8 78 9 190 5
320 -4 110 -9 236 -11 280 -2 44 -7 98 -11 119 l-6 40 28 -19 c16 -10 72 -53
124 -94 52 -42 130 -103 174 -136 43 -33 102 -77 130 -98 28 -20 78 -56 111
-79 33 -23 83 -60 110 -82 28 -23 55 -45 60 -49 6 -4 80 -60 165 -124 85 -64
161 -122 167 -127 7 -6 41 -32 75 -59 35 -26 101 -78 148 -115 47 -37 106 -83
131 -102 26 -19 86 -71 135 -115 49 -43 134 -124 189 -180 55 -55 125 -129
156 -165 31 -36 87 -108 124 -160 37 -52 87 -137 112 -189 25 -51 56 -132 69
-180 19 -68 24 -111 24 -203 0 -70 -6 -143 -15 -183 -9 -37 -29 -100 -45 -141
-16 -40 -34 -82 -39 -91 -5 -10 -29 -56 -52 -103 -23 -47 -52 -101 -65 -120
-13 -19 -41 -61 -64 -94 -22 -32 -70 -95 -107 -140 -37 -44 -97 -115 -132
-156 -36 -41 -88 -98 -115 -126 -28 -28 -114 -115 -191 -193 -77 -78 -227
-226 -334 -329 -107 -103 -253 -243 -325 -312 -72 -68 -250 -244 -396 -390
-146 -146 -309 -312 -362 -370 -53 -58 -109 -119 -124 -136 -16 -17 -51 -55
-79 -85 -27 -30 -68 -77 -90 -104 -22 -27 -54 -65 -70 -84 -17 -20 -58 -70
-90 -113 -33 -42 -94 -123 -136 -180 -42 -56 -101 -141 -131 -188 -30 -47 -73
-116 -94 -155 -22 -38 -54 -104 -71 -145 -17 -41 -37 -92 -43 -112 -7 -22 -8
-57 -4 -85 3 -26 15 -65 26 -86 10 -20 35 -53 56 -71 20 -19 62 -46 92 -59 30
-14 72 -33 92 -41 21 -9 63 -25 95 -36 32 -10 78 -26 103 -36 25 -9 68 -22 95
-30 28 -8 106 -28 175 -45 69 -16 195 -45 280 -65 85 -19 205 -45 265 -59 61
-13 171 -38 245 -55 74 -18 164 -39 200 -47 36 -7 92 -22 125 -33 33 -10 121
-37 195 -60 74 -23 191 -62 260 -86 69 -25 170 -63 225 -86 55 -23 172 -76
261 -119 89 -43 198 -103 243 -133 45 -30 108 -79 140 -109 32 -30 77 -78 100
-106 24 -28 54 -67 67 -87 14 -20 37 -61 53 -92 16 -32 36 -81 45 -111 9 -30
16 -78 16 -107 0 -41 -8 -68 -35 -121 -24 -45 -60 -92 -108 -138 -40 -39 -116
-105 -170 -148 -53 -43 -124 -95 -156 -116 -32 -20 -76 -51 -97 -67 -22 -16
-55 -38 -74 -48 -19 -11 -44 -24 -55 -30 -11 -6 -22 -13 -25 -16 -3 -3 -14
-10 -25 -17 -11 -6 -76 -45 -145 -85 -69 -40 -132 -75 -140 -77 -8 -2 -20 -7
-26 -12 -6 -5 -35 -22 -65 -38 -30 -17 -162 -84 -294 -150 -132 -65 -269 -131
-305 -146 -36 -15 -89 -38 -118 -51 -29 -13 -55 -24 -57 -24 -2 0 -34 -13 -70
-30 -36 -16 -68 -30 -71 -30 -3 0 -26 -9 -52 -21 -26 -11 -56 -24 -67 -29 -11
-5 -47 -20 -80 -33 -33 -13 -83 -31 -111 -40 -27 -9 -69 -19 -92 -23 -34 -5
-44 -12 -48 -31 -5 -17 -1 -28 12 -39 12 -9 32 -13 54 -10 19 3 67 14 105 25
39 11 93 21 121 21 39 0 55 -5 69 -20 11 -12 28 -20 39 -18 13 2 22 12 24 26
2 15 -2 22 -13 22 -10 0 -30 11 -47 25 l-29 25 55 25 c30 14 58 25 62 25 4 0
59 23 123 51 64 27 125 54 136 59 11 4 43 18 70 30 28 12 96 45 153 72 56 28
105 55 108 59 3 5 13 9 22 9 9 0 28 7 42 15 14 8 45 25 70 38 25 14 77 41 115
61 39 20 99 53 135 73 36 20 86 48 111 62 26 14 69 38 97 53 27 15 70 40 93
56 24 16 61 37 82 47 20 9 37 21 37 26 0 5 6 9 13 9 6 0 44 21 82 47 39 26 79
56 89 65 11 10 24 18 28 18 5 0 30 17 56 38 26 20 54 43 62 50 8 7 44 35 80
61 36 27 88 70 115 97 28 27 65 67 82 89 17 22 42 60 55 85 17 30 27 69 31
116 5 49 2 88 -8 128 -8 32 -27 81 -40 109 -14 29 -35 68 -47 87 -12 19 -35
53 -53 75 -17 22 -38 52 -48 67 -9 15 -49 58 -88 97 -40 39 -76 71 -80 71 -4
0 -14 6 -21 13 -7 7 -40 30 -73 52 -33 22 -96 59 -140 83 -44 23 -96 50 -115
58 -19 9 -71 31 -115 51 -44 20 -99 44 -123 55 -24 10 -62 26 -85 34 -23 9
-51 20 -62 24 -11 4 -40 15 -65 22 -25 8 -106 35 -180 60 -74 25 -173 57 -220
71 -47 14 -119 35 -160 46 -41 11 -111 29 -155 40 -44 11 -147 36 -230 55 -82
20 -199 45 -260 57 -60 11 -126 25 -145 30 -19 5 -111 27 -205 49 -93 23 -217
57 -274 76 -57 19 -152 53 -210 75 -58 22 -126 54 -151 69 -25 16 -55 45 -68
64 -13 19 -26 49 -29 66 -2 18 1 55 8 83 6 29 25 81 42 117 17 36 57 112 91
170 33 58 72 121 86 140 15 19 43 58 63 85 20 28 48 66 62 85 14 19 66 88 116
152 49 64 89 121 89 126 0 4 16 22 35 39 19 17 35 34 35 37 0 3 11 16 25 30
14 14 25 31 25 38 0 7 23 31 51 53 28 22 66 59 84 83 18 23 91 104 162 178 70
75 157 167 193 204 36 37 80 84 98 104 18 20 37 36 42 36 6 0 10 6 10 14 0 7
12 22 27 32 15 9 49 38 75 62 27 25 48 50 48 57 0 6 11 17 25 23 14 6 25 17
26 24 0 7 29 37 65 66 38 32 64 61 64 73 0 10 4 19 9 19 5 0 12 -6 14 -12 4
-10 6 -10 6 0 1 6 8 12 16 12 8 0 15 4 15 8 0 5 16 25 35 45 20 21 38 37 39
37 2 0 30 26 63 58 32 31 73 68 91 82 17 14 32 30 32 36 0 7 10 19 23 27 12 8
63 55 114 103 51 49 104 100 118 114 15 14 94 95 176 180 82 85 152 163 155
172 3 10 9 18 14 18 5 0 27 18 50 40 22 21 40 42 40 46 0 4 15 21 34 38 19 17
47 50 62 72 16 23 56 76 89 119 33 42 65 84 70 93 6 9 25 41 44 72 19 30 54
93 77 140 23 47 53 110 67 140 13 31 30 81 36 110 7 30 17 71 23 92 6 21 9 94
6 180 -5 126 -9 154 -37 238 -18 52 -47 124 -65 160 -18 36 -55 99 -82 140
-27 41 -68 100 -90 130 -23 30 -77 93 -119 140 -43 47 -104 110 -135 140 -30
30 -101 96 -155 147 -55 50 -125 112 -156 137 -31 25 -59 46 -63 46 -4 0 -44
30 -89 68 -45 37 -92 74 -103 82 -12 8 -55 40 -95 71 -41 31 -126 95 -189 143
-63 48 -137 104 -165 126 -27 22 -115 88 -195 147 -80 59 -149 110 -155 115
-5 4 -35 27 -65 50 -30 24 -76 59 -101 78 -26 19 -89 69 -141 111 l-94 76 -22
89 c-12 49 -29 123 -38 164 -9 41 -29 115 -46 165 -16 49 -44 118 -61 155 -17
36 -52 97 -78 136 -26 38 -63 84 -83 102 -20 17 -49 38 -65 47 -16 8 -46 17
-67 20z m-6 -55 c21 0 49 -8 62 -17 14 -10 33 -24 43 -33 10 -8 40 -46 66 -85
25 -38 67 -115 93 -170 26 -58 61 -160 82 -243 21 -79 36 -154 34 -168 -3 -23
-8 -20 -74 43 -39 38 -96 97 -125 133 -30 36 -68 84 -84 105 -17 22 -45 64
-63 93 -18 29 -32 55 -32 58 0 3 -9 26 -21 50 -11 25 -23 76 -26 114 -3 37 -3
80 1 94 5 22 12 26 44 26z m991 -5430 c6 0 11 -4 11 -10 0 -5 -2 -10 -4 -10
-3 0 -8 5 -11 10 -3 6 -1 10 4 10z"/>
</g>
<g>
<path d="M3070 6500 c-5 0 -10 -10 -10 -22 0 -19 2 -20 10 -8 5 8 10 18 10 23
0 4 -4 7 -10 7z"/>
</g>
<g>
<path d="M5405 5476 c-70 2 -160 -2 -217 -11 -53 -7 -125 -21 -160 -30 -35 -8
-85 -31 -113 -50 -27 -19 -61 -43 -75 -52 -14 -10 -34 -26 -44 -35 -11 -10
-23 -18 -28 -18 -4 0 -8 -7 -8 -15 0 -7 -6 -18 -12 -22 -7 -4 -22 -21 -34 -38
-11 -16 -37 -61 -56 -100 -20 -38 -48 -108 -63 -155 -14 -46 -30 -124 -34
-173 -5 -49 -5 -105 -1 -125 5 -21 16 -75 25 -122 9 -47 23 -100 32 -119 9
-19 32 -58 51 -85 20 -28 63 -78 97 -111 34 -33 79 -76 101 -96 21 -19 60 -45
86 -58 26 -12 92 -34 145 -47 81 -20 114 -24 193 -20 52 3 120 10 150 15 33 6
92 30 148 60 51 28 105 59 120 70 15 10 52 35 82 54 30 20 74 54 96 75 29 27
50 61 69 111 15 39 34 95 42 124 8 28 19 79 24 112 4 33 11 104 15 158 5 68 3
116 -6 155 -7 31 -27 89 -45 128 -18 38 -58 101 -90 139 -32 37 -86 95 -119
127 -44 43 -87 72 -156 105 -94 44 -96 45 -215 49z m-37 -58 c38 1 92 -2 118
-8 27 -6 85 -28 129 -50 65 -31 95 -53 160 -121 44 -46 93 -101 109 -121 15
-20 36 -54 46 -74 11 -20 29 -68 41 -107 18 -59 21 -83 15 -151 -4 -45 -11
-106 -16 -136 -4 -30 -13 -74 -19 -98 -6 -23 -15 -50 -20 -60 -5 -9 -17 -42
-26 -73 -11 -40 -31 -73 -66 -113 -28 -31 -56 -56 -62 -56 -7 0 -48 -24 -92
-53 -44 -30 -114 -70 -155 -90 -41 -19 -88 -39 -105 -43 -16 -4 -73 -8 -125
-10 -55 -2 -130 3 -179 12 -46 8 -105 25 -131 38 -27 13 -67 39 -91 57 -24 19
-70 60 -102 93 -32 32 -72 79 -88 104 -16 25 -43 81 -59 124 -25 64 -31 98
-36 195 -6 107 -4 126 20 209 14 50 38 120 54 155 16 35 48 92 71 127 23 34
59 73 79 86 20 13 54 37 74 53 21 17 52 36 70 43 18 6 42 16 53 20 11 5 31 11
45 13 14 3 36 8 50 12 14 3 57 8 95 12 39 3 71 6 72 7 1 0 33 2 71 4z"/>
<g>
<path d="M5171 5358 c-23 -1 -33 -8 -42 -30 -10 -26 -9 -32 8 -49 16 -16 24
-18 45 -10 15 5 29 19 33 30 3 11 1 29 -4 40 -7 13 -21 19 -40 19z"/>
</g>
<g>
<path d="M5231 5150 c-9 0 -32 -9 -51 -19 -19 -11 -87 -42 -150 -70 -90 -39
-116 -55 -118 -72 -2 -13 7 -33 26 -53 16 -17 32 -39 35 -49 4 -9 13 -20 22
-23 8 -4 22 -1 30 6 8 7 15 20 15 30 0 10 -7 23 -16 30 -8 8 -19 21 -25 31 -7
14 -3 21 18 33 16 8 59 31 98 51 38 19 77 35 87 35 10 0 27 9 38 20 11 11 17
26 14 35 -4 8 -14 15 -23 15z"/>
</g>
<g>
<path d="M5526 4970 c-18 0 -39 -7 -46 -15 -10 -12 -10 -21 0 -45 9 -21 19
-30 36 -30 13 0 28 9 34 19 5 11 10 31 10 45 0 23 -4 26 -34 26z"/>
</g>
<g>
<path d="M4775 4840 c-6 0 -16 -5 -23 -12 -7 -7 -12 -19 -12 -27 0 -9 26 -59
58 -111 31 -53 71 -117 87 -142 21 -33 37 -47 52 -48 12 0 27 9 33 19 5 11 10
23 10 28 0 4 -20 30 -44 56 -23 27 -67 91 -97 143 -30 52 -59 94 -64 94z"/>
</g>
</g>
</g>
</svg>
