<?xml version="1.0" standalone="no"?>
<!DOCTYPE svg PUBLIC "-//W3C//DTD SVG 20010904//EN"
 "http://www.w3.org/TR/2001/REC-SVG-20010904/DTD/svg10.dtd">
<svg version="1.0" xmlns="http://www.w3.org/2000/svg"
 width="1200.000000pt" height="1200.000000pt" viewBox="0 0 1200.000000 1200.000000"
 preserveAspectRatio="xMidYMid meet">
<metadata>
Created by potrace 1.16, written by Peter Selinger 2001-2019
</metadata>
<g transform="translate(0.000000,1200.000000) scale(0.100000,-0.100000)"
fill="#000000" stroke="none">
<g>
<path d="M6654 11230 c-13 0 -32 -14 -46 -32 -14 -18 -28 -43 -32 -55 -4 -12
-33 -49 -66 -83 -32 -35 -61 -74 -65 -88 -4 -15 -16 -36 -29 -48 -12 -12 -32
-43 -44 -68 -13 -25 -29 -49 -36 -53 -8 -5 -35 -48 -61 -98 -26 -49 -55 -99
-66 -111 -10 -11 -19 -26 -19 -33 0 -7 -8 -27 -17 -44 -10 -18 -21 -34 -24
-37 -4 -3 -21 -30 -40 -60 -18 -30 -52 -77 -76 -104 -24 -26 -43 -52 -43 -57
0 -6 -8 -18 -17 -29 -10 -10 -40 -60 -66 -110 -32 -59 -49 -104 -49 -127 0
-19 5 -40 10 -45 7 -7 35 -7 89 1 43 6 125 13 183 16 58 3 143 12 190 21 47 8
108 19 135 24 28 5 79 12 115 15 36 3 92 10 125 15 33 6 89 15 125 20 36 6 85
13 110 16 25 2 59 9 77 15 18 6 60 11 94 13 47 2 65 7 76 21 7 11 11 25 9 31
-2 6 -8 33 -12 60 -3 27 -29 94 -56 149 -27 55 -79 159 -115 230 -36 72 -78
148 -93 170 -15 22 -38 72 -51 110 -13 39 -24 72 -24 75 -1 3 -9 21 -18 40 -9
19 -32 60 -51 90 -20 30 -36 58 -36 63 0 5 -15 26 -32 47 -19 23 -42 40 -54
40z m-3 -160 c4 0 22 -19 42 -43 19 -23 51 -83 72 -132 20 -50 43 -105 51
-123 8 -18 14 -39 14 -46 0 -7 14 -33 32 -57 18 -24 33 -52 33 -61 1 -9 14
-32 28 -52 15 -19 27 -37 27 -40 0 -3 14 -36 31 -73 17 -37 39 -84 48 -103 9
-19 21 -42 28 -50 6 -8 14 -31 18 -51 l7 -35 -121 -19 c-67 -11 -121 -22 -121
-25 0 -3 -17 -6 -37 -6 -21 -1 -49 -4 -63 -9 -14 -4 -47 -9 -75 -11 -27 -2
-77 -6 -110 -8 -33 -2 -96 -11 -140 -20 -44 -8 -101 -20 -126 -25 -26 -6 -78
-12 -115 -15 -38 -2 -97 -8 -131 -11 -61 -7 -62 -7 -58 15 2 13 26 48 53 79
27 31 67 83 90 117 23 34 48 77 56 96 8 19 22 41 31 48 9 8 30 39 46 69 16 31
35 65 41 76 7 11 19 31 27 45 9 14 16 30 17 37 1 7 13 27 26 45 12 18 28 42
35 53 7 11 16 27 20 35 4 8 31 44 60 80 29 35 64 86 77 112 13 26 37 61 52 78
16 16 32 30 35 30z"/>
</g>
<g>
<path d="M4958 10359 c-18 0 -73 -11 -123 -25 -49 -13 -112 -26 -139 -29 -27
-3 -69 -10 -93 -15 -24 -6 -51 -14 -61 -19 -9 -5 -42 -16 -72 -24 -30 -9 -75
-21 -100 -27 -25 -7 -84 -27 -131 -46 -47 -19 -93 -34 -102 -34 -9 0 -20 -6
-24 -12 -4 -7 -51 -34 -103 -61 -52 -26 -100 -47 -107 -47 -7 0 -34 -13 -60
-30 -26 -16 -52 -30 -59 -30 -7 0 -40 -16 -74 -35 -35 -20 -87 -58 -118 -86
-30 -27 -68 -57 -84 -65 -17 -9 -61 -40 -100 -69 -38 -29 -97 -80 -131 -114
-34 -34 -74 -74 -88 -90 -14 -16 -34 -46 -43 -66 -10 -20 -24 -39 -32 -42 -8
-3 -14 -13 -14 -23 0 -10 -7 -23 -14 -30 -8 -6 -25 -32 -37 -57 -12 -24 -29
-52 -39 -61 -9 -9 -23 -33 -30 -52 -7 -19 -19 -42 -27 -51 -7 -8 -13 -20 -13
-26 0 -6 -7 -16 -15 -23 -8 -7 -15 -22 -15 -34 0 -12 -16 -49 -36 -82 -19 -32
-38 -72 -41 -89 -3 -16 -11 -48 -18 -70 -7 -22 -21 -66 -30 -97 -9 -32 -21
-60 -26 -64 -5 -3 -9 -17 -9 -32 0 -15 -6 -39 -14 -54 -8 -15 -17 -42 -19 -60
-3 -18 -10 -58 -16 -90 -5 -31 -15 -75 -22 -97 -9 -31 -9 -50 -1 -79 6 -20 13
-78 16 -128 3 -51 15 -122 27 -160 11 -38 27 -81 35 -96 8 -14 14 -47 14 -72
0 -25 5 -69 11 -98 6 -29 19 -66 28 -83 9 -16 39 -54 66 -84 28 -29 56 -60 63
-67 7 -8 29 -14 47 -14 19 0 37 5 40 10 3 6 26 19 50 30 24 11 56 34 72 51 15
17 53 57 84 88 31 32 79 91 107 132 29 41 67 90 85 110 17 20 51 58 73 85 23
27 57 68 75 91 23 28 45 44 67 49 21 4 48 1 75 -10 23 -9 44 -15 47 -14 3 1
24 -11 48 -26 24 -15 56 -41 72 -59 16 -18 36 -46 45 -63 8 -17 21 -37 30 -44
8 -7 15 -16 15 -21 0 -5 20 -37 45 -71 25 -35 49 -68 55 -75 5 -6 58 -107 117
-225 59 -117 114 -218 122 -224 7 -5 15 -31 18 -57 3 -26 10 -47 15 -47 5 0 7
-4 4 -8 -3 -5 -1 -53 4 -108 6 -54 12 -112 13 -129 2 -16 7 -47 11 -68 5 -22
3 -64 -4 -105 -7 -37 -23 -87 -35 -112 -13 -25 -34 -54 -47 -66 -14 -11 -38
-28 -54 -36 -16 -9 -42 -21 -59 -28 -16 -7 -46 -21 -66 -31 -20 -11 -44 -19
-52 -19 -8 0 -45 -16 -81 -35 -37 -19 -72 -35 -80 -35 -7 0 -19 -7 -26 -15 -7
-8 -24 -15 -37 -15 -14 0 -37 -6 -51 -14 -15 -8 -58 -24 -97 -36 -38 -12 -83
-29 -100 -37 -16 -8 -45 -23 -64 -33 -19 -11 -42 -27 -52 -37 -9 -10 -28 -50
-43 -88 -24 -65 -25 -79 -21 -185 3 -63 8 -128 11 -145 3 -16 11 -46 17 -65 7
-19 18 -39 24 -43 7 -4 13 -16 13 -27 0 -10 12 -46 26 -79 15 -34 31 -61 35
-61 5 0 9 -8 9 -17 0 -9 6 -24 13 -32 7 -9 24 -43 37 -76 13 -33 39 -82 58
-110 19 -27 51 -67 70 -87 20 -21 42 -38 48 -38 7 0 19 -8 26 -18 7 -9 25 -25
41 -35 20 -13 38 -16 65 -12 20 4 74 18 120 31 67 20 85 30 92 49 5 14 17 25
25 25 9 0 35 15 57 33 22 17 65 55 95 82 30 28 79 87 109 132 29 45 54 88 54
95 0 8 20 34 45 58 25 24 45 50 45 57 0 6 6 16 14 20 7 4 32 38 55 74 22 36
41 71 41 77 0 6 13 33 28 59 15 26 49 92 76 146 26 53 52 97 57 97 5 0 13 9
17 20 4 11 25 40 47 65 22 24 75 80 118 124 51 51 92 84 120 94 23 9 61 18 85
21 23 2 42 0 42 -4 0 -5 -4 -12 -10 -15 -6 -4 -10 -58 -10 -129 0 -95 3 -126
14 -135 8 -7 19 -31 24 -54 6 -23 17 -64 25 -92 8 -27 21 -70 30 -95 9 -25 25
-75 36 -113 12 -37 21 -73 21 -81 0 -7 9 -21 20 -31 11 -10 20 -24 20 -32 0
-7 15 -44 34 -81 19 -37 58 -116 86 -177 29 -60 75 -155 102 -210 27 -54 54
-106 61 -115 7 -8 23 -37 34 -65 12 -27 25 -68 28 -89 4 -21 13 -49 21 -61 9
-13 19 -74 26 -157 6 -74 9 -142 5 -152 -6 -14 -20 -16 -119 -13 -62 2 -143 0
-180 -5 -38 -4 -98 -12 -135 -17 -38 -5 -122 -19 -188 -30 -66 -12 -149 -28
-185 -37 -36 -8 -85 -21 -110 -29 -25 -8 -65 -17 -90 -20 -25 -4 -72 -13 -105
-20 -33 -7 -87 -19 -120 -25 -33 -7 -96 -20 -140 -30 -44 -10 -110 -21 -147
-25 -44 -4 -76 -13 -92 -26 -14 -11 -33 -43 -44 -72 -11 -28 -25 -92 -31 -142
-7 -49 -18 -115 -26 -145 -7 -30 -20 -91 -28 -135 -9 -44 -20 -109 -25 -145
-5 -36 -7 -93 -5 -128 2 -35 -1 -111 -7 -170 -7 -59 -12 -115 -12 -124 1 -10
-3 -20 -8 -23 -5 -3 -11 -24 -14 -48 -3 -23 -9 -73 -12 -112 -3 -38 -7 -90 -9
-115 -2 -25 -6 -91 -8 -148 -4 -88 -8 -106 -25 -123 -12 -10 -31 -19 -44 -19
-13 0 -43 -10 -68 -21 -25 -12 -70 -30 -100 -41 -30 -10 -77 -25 -103 -33 -26
-7 -53 -18 -60 -23 -7 -6 -48 -17 -92 -25 -44 -9 -94 -23 -110 -31 -17 -9 -37
-16 -47 -16 -9 0 -39 -12 -67 -26 -43 -23 -53 -33 -62 -66 -5 -22 -13 -46 -16
-54 -4 -11 5 -14 40 -14 35 0 47 -4 51 -17 2 -10 7 -43 11 -73 3 -30 6 -203 7
-383 0 -272 3 -339 17 -392 10 -36 26 -75 37 -88 11 -12 40 -29 64 -36 25 -8
62 -21 84 -30 21 -9 95 -45 165 -79 69 -35 158 -77 196 -94 39 -16 104 -43
147 -58 42 -16 90 -36 107 -45 26 -13 31 -22 31 -50 0 -19 5 -46 12 -61 11
-24 16 -26 68 -22 39 3 82 17 150 50 52 26 110 49 127 53 18 4 35 11 38 16 4
5 13 9 21 9 8 0 52 18 98 40 46 22 90 40 98 40 8 0 18 4 23 8 6 4 28 14 50 21
22 8 76 31 120 51 44 21 101 47 127 59 26 12 50 21 54 21 3 0 34 12 68 26 33
14 70 30 81 34 11 4 46 19 77 34 31 14 63 26 70 26 8 0 36 11 64 24 27 14 73
34 102 45 29 12 128 58 220 102 92 45 203 99 247 121 44 22 87 45 95 52 8 7
71 40 140 74 69 35 152 80 186 101 33 21 71 42 85 46 13 4 40 18 60 31 20 13
39 20 42 17 3 -3 4 -10 2 -16 -3 -7 -12 -66 -21 -132 -9 -66 -17 -137 -19
-157 -2 -20 -6 -41 -9 -46 -3 -6 -9 -36 -12 -68 -2 -31 -8 -62 -11 -67 -3 -5
-7 -39 -9 -75 -2 -56 1 -70 19 -91 20 -23 28 -26 82 -23 33 1 71 7 85 12 14 5
43 14 65 19 22 5 63 13 90 16 28 4 102 6 165 6 63 -1 129 -4 145 -7 17 -3 43
0 59 6 27 10 28 13 24 63 -3 29 -17 78 -34 112 -16 34 -36 60 -44 60 -8 0 -16
-7 -16 -15 -1 -8 -2 -37 -3 -63 l-1 -48 -87 2 c-49 1 -124 -2 -168 -5 -44 -4
-100 -12 -125 -18 -25 -6 -69 -12 -99 -14 l-53 -4 6 52 c4 29 11 87 15 128 5
41 11 86 14 100 3 14 8 45 11 70 3 25 10 72 17 105 6 33 14 80 18 104 3 24 13
47 21 51 8 3 39 18 68 33 28 15 62 27 75 27 13 0 27 4 32 9 6 5 35 16 65 26
30 10 68 24 83 32 15 8 37 22 48 31 11 9 24 35 30 57 6 22 13 48 14 58 2 9 10
43 18 75 9 31 18 87 22 125 l7 67 87 -6 c47 -3 115 -10 151 -15 36 -5 103 -13
150 -19 47 -5 103 -14 125 -20 22 -6 51 -13 64 -15 13 -2 32 -12 43 -22 17
-18 18 -39 19 -298 0 -154 5 -323 11 -375 6 -52 12 -112 12 -132 1 -20 10 -46
20 -57 11 -12 29 -21 40 -21 12 0 55 -7 96 -15 41 -9 94 -25 118 -36 24 -11
48 -19 55 -18 7 1 19 0 27 -4 8 -3 31 -10 50 -17 19 -6 60 -13 90 -16 30 -3
68 -12 84 -20 16 -8 39 -14 52 -14 13 0 25 4 29 9 3 6 0 30 -6 55 -7 27 -17
46 -25 46 -8 0 -22 4 -32 9 -9 5 -39 16 -67 24 -27 8 -69 15 -93 15 -24 -1
-53 4 -65 10 -12 6 -57 22 -100 36 -42 14 -84 26 -93 26 -9 0 -29 8 -45 17
-23 14 -29 24 -29 50 0 19 -7 49 -15 68 -11 28 -14 99 -15 356 0 255 -3 327
-15 352 -8 18 -20 40 -28 50 -9 11 -28 17 -55 17 -22 0 -43 4 -46 9 -3 5 -32
12 -63 17 -32 4 -60 8 -63 9 -3 1 -12 4 -20 7 -8 4 -69 11 -134 18 -66 6 -129
14 -140 16 -12 3 -50 7 -86 11 -36 3 -71 10 -78 16 -9 7 -11 27 -6 71 4 34 11
67 17 73 5 7 18 13 28 13 10 0 20 9 24 20 3 10 2 27 -3 37 -6 10 -12 36 -15
58 -4 28 -14 46 -34 62 -15 13 -36 23 -45 23 -10 0 -25 -11 -34 -25 -9 -14
-23 -25 -30 -25 -8 0 -22 4 -32 9 -9 5 -28 13 -42 19 -14 6 -65 15 -115 22
-49 6 -94 15 -100 19 -5 5 -23 11 -40 14 -16 3 -50 11 -75 17 -25 6 -63 15
-85 20 -22 5 -53 12 -70 16 -16 4 -34 10 -40 14 -5 4 -39 14 -75 24 -36 9 -74
24 -84 31 -15 11 -21 34 -27 112 -5 54 -7 241 -4 415 2 175 7 329 11 343 5 19
9 23 19 15 7 -6 16 -22 19 -36 4 -13 14 -34 24 -45 9 -12 62 -68 117 -125 54
-57 103 -104 108 -104 4 0 27 -15 50 -32 23 -18 45 -38 50 -45 4 -6 37 -33 75
-59 37 -26 72 -54 77 -61 6 -7 45 -18 89 -24 43 -6 90 -15 105 -22 16 -7 126
-12 291 -14 207 -3 290 -8 378 -24 86 -15 149 -19 258 -17 117 2 146 0 154
-11 5 -10 30 -16 70 -18 53 -3 68 -8 104 -38 23 -19 66 -45 96 -59 30 -14 65
-26 78 -26 12 0 39 -7 59 -15 20 -8 66 -15 106 -15 l70 0 -6 -42 c-4 -32 -2
-49 11 -64 9 -12 31 -29 47 -37 17 -8 50 -18 75 -22 25 -5 54 -9 65 -11 11 -1
54 -7 95 -13 42 -5 118 -10 170 -10 52 0 136 4 185 11 50 6 114 20 143 31 39
16 52 26 52 41 1 12 3 57 6 101 2 44 9 150 15 235 6 85 12 205 15 266 3 60 1
129 -4 152 -6 24 -6 58 -1 79 6 30 4 44 -12 69 -10 17 -17 38 -14 46 3 8 -8
33 -25 56 -16 23 -35 42 -41 42 -6 0 -17 6 -24 14 -8 7 -58 19 -113 26 -77 10
-120 10 -189 1 -49 -6 -112 -11 -141 -11 -28 0 -54 -4 -57 -10 -3 -5 -20 -9
-38 -9 -18 1 -60 -8 -94 -19 -34 -12 -75 -29 -90 -39 -15 -9 -31 -23 -36 -30
-4 -7 -15 -20 -24 -29 -10 -9 -16 -31 -16 -50 1 -18 11 -47 23 -64 12 -17 20
-33 18 -36 -3 -2 -47 -7 -99 -10 -84 -5 -102 -10 -163 -42 -37 -20 -78 -46
-90 -58 -11 -11 -28 -30 -36 -43 -8 -12 -32 -41 -52 -64 -21 -23 -38 -46 -38
-50 0 -5 -6 -14 -13 -21 -7 -8 -24 -17 -37 -21 -14 -4 -38 -24 -56 -43 l-31
-35 -151 6 c-83 3 -156 8 -161 11 -5 3 -73 11 -152 16 -79 6 -211 11 -294 11
-82 0 -179 5 -215 10 -36 6 -102 19 -148 31 -62 14 -100 31 -150 65 -37 25
-114 92 -172 148 -58 57 -128 123 -155 148 -30 27 -56 61 -64 84 -7 21 -27 67
-44 103 -31 64 -31 66 -30 212 2 100 -1 150 -9 154 -6 4 -34 6 -62 5 -28 -1
-105 -4 -171 -6 -66 -3 -146 -6 -177 -7 -35 -2 -62 2 -69 9 -8 8 -16 57 -19
118 -4 59 -12 111 -19 118 -6 6 -11 21 -11 34 0 13 -16 73 -36 133 -19 61 -39
110 -44 110 -5 0 -12 11 -16 25 -3 14 -10 25 -15 25 -5 0 -9 7 -9 16 0 9 -8
28 -18 42 -10 15 -24 41 -32 57 -8 17 -19 37 -25 45 -6 8 -17 33 -24 55 -7 22
-27 62 -44 89 -17 27 -32 57 -34 65 -1 9 -27 68 -59 131 -31 63 -60 123 -65
132 -5 10 -9 27 -9 38 0 10 -7 41 -15 67 -9 26 -22 59 -29 73 -8 14 -21 50
-31 80 -9 30 -26 87 -37 125 -11 40 -21 110 -23 163 -4 85 -2 92 15 92 11 0
31 -15 45 -33 15 -18 45 -66 67 -107 22 -41 44 -91 49 -110 4 -19 25 -87 47
-150 22 -63 47 -150 56 -192 9 -42 19 -94 22 -115 3 -21 9 -45 14 -53 4 -8 11
-41 14 -72 4 -31 15 -67 25 -80 10 -13 28 -42 40 -65 12 -24 28 -43 36 -43 9
0 15 -9 15 -22 1 -13 13 -37 28 -54 15 -17 49 -43 77 -59 27 -15 85 -34 128
-42 63 -12 92 -12 142 -4 35 6 111 34 171 62 60 28 163 77 229 110 66 33 127
59 135 59 9 0 24 6 35 13 11 7 39 19 62 25 23 7 55 23 70 36 15 13 42 30 59
39 17 9 66 53 109 99 43 46 93 104 112 130 18 25 40 48 47 51 8 3 34 48 60
100 25 52 51 119 57 148 6 30 15 59 19 64 4 6 5 30 1 55 -4 25 -14 59 -23 75
-9 17 -19 37 -22 47 -2 9 -41 37 -86 62 -59 33 -98 48 -144 54 -35 4 -79 7
-97 5 -19 -2 -119 -4 -224 -4 -104 0 -230 0 -280 1 -49 0 -123 -4 -163 -10
-41 -5 -78 -8 -83 -5 -5 4 -44 12 -86 20 -43 7 -98 18 -123 24 -25 7 -65 21
-90 32 l-45 21 -4 62 c-2 33 -4 72 -4 86 1 14 7 54 15 90 8 36 27 90 42 120
15 30 42 74 59 96 18 23 41 56 52 75 11 18 28 47 39 64 10 16 29 41 41 55 13
14 47 51 77 83 29 32 57 66 62 74 5 9 58 64 118 124 60 60 107 112 104 117 -3
5 5 19 18 31 13 12 26 39 30 59 3 21 14 55 25 77 10 22 33 70 50 107 17 37 31
73 31 80 0 7 11 29 24 48 13 20 31 60 41 90 10 30 24 66 31 80 7 14 22 55 35
90 12 36 32 83 44 105 12 22 28 69 35 105 6 36 16 74 21 85 6 12 11 27 13 35
1 8 8 35 16 60 8 29 13 113 14 235 l1 190 -28 56 c-16 31 -46 79 -67 107 -22
28 -46 64 -54 80 -8 16 -22 34 -31 42 -8 7 -22 27 -31 45 -8 18 -40 56 -70 85
-30 28 -60 59 -67 68 -6 9 -47 49 -89 89 -42 40 -97 81 -120 92 -24 11 -51 28
-61 39 -16 17 -29 19 -110 16 -51 -1 -126 -6 -167 -9 -41 -3 -102 -15 -135
-26 -35 -12 -69 -32 -82 -47 -13 -15 -35 -51 -49 -79 -21 -41 -25 -61 -20 -90
4 -21 11 -65 15 -98 5 -33 13 -76 20 -95 6 -19 15 -44 20 -55 6 -11 15 -42 21
-70 6 -27 15 -72 20 -100 4 -27 12 -63 18 -80 6 -16 18 -57 27 -90 9 -33 20
-91 25 -130 5 -38 11 -81 15 -95 3 -14 11 -47 17 -75 6 -27 13 -75 15 -105 1
-31 -2 -66 -9 -80 -7 -14 -26 -43 -43 -65 -16 -23 -48 -57 -70 -76 -22 -20
-60 -44 -85 -54 -25 -9 -77 -23 -116 -30 -49 -9 -103 -10 -180 -5 -60 5 -134
14 -164 20 -30 6 -59 15 -65 20 -5 4 -34 13 -63 19 -29 6 -66 18 -82 26 -16 8
-39 15 -51 15 -12 0 -30 6 -38 14 -9 8 -49 31 -89 51 -40 19 -100 56 -133 81
-33 26 -78 70 -99 100 -34 45 -42 66 -54 140 -12 79 -12 93 4 150 10 34 34 90
54 124 20 33 36 63 36 65 0 2 10 25 22 52 12 26 22 51 22 55 1 4 26 35 56 70
30 34 64 76 75 94 11 17 45 65 76 105 31 41 62 85 69 99 7 14 26 40 41 58 16
18 29 40 29 49 0 9 11 39 24 67 14 29 33 78 44 111 11 33 26 80 33 105 9 30
14 94 13 191 0 99 -5 157 -14 180 -8 19 -23 47 -34 63 -12 15 -42 39 -68 52
-26 13 -62 24 -80 23z m22 -97 c8 -3 25 -14 38 -25 12 -12 27 -38 33 -60 6
-22 11 -87 12 -146 0 -58 -4 -122 -11 -141 -6 -19 -16 -55 -23 -80 -6 -25 -25
-79 -43 -120 -17 -41 -45 -100 -63 -130 -18 -30 -46 -70 -62 -89 -27 -33 -30
-34 -45 -18 -13 13 -22 14 -36 7 -10 -5 -21 -23 -25 -40 -4 -16 -17 -50 -31
-75 -13 -25 -39 -69 -57 -98 -18 -28 -66 -118 -105 -198 -40 -80 -72 -153 -72
-161 0 -9 -10 -28 -21 -42 -20 -25 -21 -35 -14 -99 4 -40 8 -88 10 -107 2 -19
8 -58 13 -87 6 -34 19 -63 38 -85 17 -18 47 -52 68 -75 21 -23 57 -54 80 -70
22 -15 47 -34 55 -41 7 -7 65 -38 127 -68 63 -31 147 -64 188 -74 40 -9 83
-23 97 -30 13 -8 35 -14 49 -16 14 -1 60 -12 103 -23 42 -12 87 -19 100 -17
12 3 76 8 143 11 66 3 135 9 153 15 18 5 57 25 86 45 29 19 57 35 62 35 4 1
18 9 31 19 12 11 22 25 22 31 0 7 11 21 25 32 14 11 37 39 51 64 14 24 24 53
21 63 -2 10 0 26 6 37 6 10 12 29 13 43 2 15 -8 73 -21 131 -14 58 -30 124
-35 148 -6 23 -10 53 -10 65 0 13 -9 57 -21 98 -11 41 -27 106 -34 144 -8 39
-19 92 -25 118 -5 27 -13 54 -17 60 -4 7 -8 14 -8 17 -1 3 -6 23 -12 45 -6 22
-16 61 -22 88 -6 26 -11 65 -11 88 0 22 9 56 19 77 16 30 30 41 78 59 32 12
81 24 108 28 28 4 82 7 121 6 53 -1 83 -7 122 -26 29 -14 54 -25 56 -25 2 0
24 -19 49 -42 25 -24 67 -64 94 -90 26 -25 59 -59 73 -75 14 -15 42 -53 63
-84 20 -30 37 -59 37 -63 0 -4 16 -27 35 -50 19 -24 35 -46 35 -50 0 -4 18
-29 40 -54 31 -38 43 -63 57 -127 14 -61 16 -96 10 -145 -4 -36 -12 -99 -17
-140 -6 -41 -11 -93 -12 -115 -1 -22 -9 -53 -18 -70 -10 -16 -21 -43 -24 -60
-4 -16 -16 -50 -27 -75 -11 -25 -28 -61 -39 -80 -10 -19 -25 -60 -33 -90 -9
-30 -34 -100 -57 -155 -23 -55 -48 -114 -56 -132 -8 -17 -14 -34 -14 -38 0 -3
-10 -21 -23 -38 -13 -18 -29 -52 -36 -77 -7 -25 -21 -63 -32 -86 -10 -22 -25
-47 -34 -54 -8 -7 -15 -17 -15 -23 0 -6 -23 -32 -52 -59 -29 -26 -59 -50 -68
-53 -9 -3 -23 -17 -31 -32 -8 -15 -32 -47 -54 -72 -22 -24 -54 -59 -70 -76
-17 -18 -36 -43 -43 -56 -7 -13 -23 -40 -37 -59 -13 -19 -36 -51 -50 -70 -14
-19 -46 -63 -70 -98 -25 -34 -45 -68 -45 -75 0 -8 -11 -27 -25 -43 -14 -16
-25 -39 -25 -51 0 -13 0 -25 0 -28 0 -3 -6 -21 -14 -40 -9 -21 -15 -73 -16
-132 -1 -54 3 -119 10 -146 10 -36 22 -55 53 -80 23 -17 41 -30 42 -28 0 2 18
-2 40 -9 22 -7 45 -16 50 -20 6 -4 28 -10 50 -14 22 -4 78 -13 125 -20 48 -7
118 -9 160 -6 41 3 231 5 421 4 l346 -2 67 -32 c54 -26 70 -39 81 -67 8 -20
15 -47 15 -62 0 -14 -6 -43 -13 -64 -8 -21 -19 -43 -25 -49 -7 -7 -12 -17 -12
-23 0 -5 -16 -41 -35 -79 -19 -39 -39 -72 -43 -75 -4 -3 -32 -35 -61 -71 -29
-36 -80 -91 -113 -122 -33 -32 -70 -64 -83 -70 -12 -7 -40 -23 -62 -35 -22
-12 -45 -29 -52 -37 -8 -9 -22 -16 -32 -16 -10 0 -40 -7 -66 -16 -26 -8 -57
-19 -68 -23 -11 -5 -33 -14 -50 -22 -16 -7 -39 -20 -50 -29 -11 -9 -36 -22
-55 -29 -19 -7 -57 -23 -85 -36 -27 -12 -75 -34 -106 -48 -37 -17 -75 -26
-115 -28 -32 -1 -76 2 -96 6 -21 4 -38 11 -38 15 0 5 -16 14 -36 20 -19 7 -38
19 -42 29 -3 9 -22 39 -41 66 -19 28 -45 65 -58 84 -13 19 -23 42 -22 50 2 9
-3 43 -10 76 -6 33 -18 83 -25 110 -8 28 -19 79 -25 113 -7 35 -24 88 -38 118
-14 29 -23 59 -21 66 3 7 -3 31 -12 53 -10 23 -21 60 -25 83 -4 23 -12 48 -19
55 -6 6 -26 39 -43 72 -17 33 -51 82 -74 108 -24 27 -62 61 -84 76 -22 15 -55
33 -73 40 -23 10 -54 12 -109 7 -42 -4 -90 -10 -106 -13 -20 -4 -63 -38 -126
-99 -53 -52 -100 -97 -104 -101 -5 -5 -31 -32 -58 -62 -27 -30 -49 -60 -49
-67 0 -7 -11 -26 -25 -42 -14 -17 -25 -35 -25 -42 0 -7 -8 -24 -17 -38 -10
-15 -24 -36 -30 -47 -7 -11 -28 -51 -46 -90 -19 -38 -40 -85 -47 -102 -7 -18
-16 -33 -20 -33 -4 0 -26 -25 -49 -55 -22 -31 -41 -58 -41 -61 0 -3 -15 -24
-33 -47 -18 -23 -39 -53 -45 -67 -7 -14 -23 -41 -35 -61 -12 -19 -42 -59 -67
-88 -25 -29 -65 -67 -90 -84 -25 -17 -59 -46 -77 -66 -23 -25 -55 -42 -114
-63 -45 -15 -93 -28 -106 -28 -14 0 -42 17 -68 41 -25 23 -45 47 -45 53 0 6
-12 27 -28 46 -15 19 -33 49 -41 65 -7 17 -17 37 -22 45 -5 8 -32 61 -59 116
-28 56 -50 108 -50 116 0 8 -5 19 -11 25 -6 6 -15 31 -20 55 -5 24 -11 86 -15
138 -3 52 -7 100 -9 106 -1 6 3 34 11 64 7 29 21 61 30 71 9 10 37 28 63 40
25 11 55 25 66 29 11 5 51 18 89 30 39 11 90 30 115 42 26 11 58 27 73 35 15
8 51 22 80 33 29 10 79 30 111 43 32 14 64 30 70 36 6 6 23 11 37 11 17 0 41
14 67 38 22 20 48 44 59 52 11 8 31 40 46 70 14 30 31 72 37 92 7 20 12 70 13
110 0 40 -5 100 -12 133 -6 33 -10 77 -7 99 3 21 -1 70 -9 110 -8 39 -18 78
-21 86 -4 8 -7 20 -8 26 0 6 -9 30 -19 55 -10 24 -26 61 -35 81 -9 21 -19 38
-23 38 -3 0 -18 26 -33 58 -15 31 -40 84 -57 117 -17 33 -40 71 -50 84 -10 13
-18 31 -18 41 0 9 -10 32 -23 51 -13 19 -40 58 -60 87 -21 28 -34 52 -30 52 5
0 -1 8 -12 18 -12 9 -33 35 -48 57 -15 23 -47 64 -72 92 -25 28 -60 56 -77 63
-18 7 -53 21 -78 32 -25 12 -63 27 -85 35 -26 9 -56 12 -87 8 -41 -6 -53 -13
-85 -52 -21 -25 -55 -64 -75 -87 -20 -22 -75 -90 -122 -150 -48 -60 -86 -115
-86 -121 0 -7 -33 -43 -73 -81 -41 -38 -76 -74 -78 -79 -2 -6 -28 -26 -57 -44
l-53 -34 -35 34 c-19 19 -37 45 -41 59 -3 14 -13 45 -23 70 -10 25 -22 68 -28
95 -7 28 -13 69 -16 92 -2 23 -7 46 -10 51 -3 5 -12 49 -21 98 -9 49 -18 127
-21 174 -3 56 1 107 11 150 8 36 22 101 30 145 8 43 23 104 31 135 9 30 22 69
30 85 7 17 24 55 37 85 14 30 28 66 32 80 3 14 15 43 25 65 10 22 32 70 49
107 17 37 65 120 107 185 42 65 88 136 103 158 14 22 58 72 98 110 39 39 93
89 120 113 26 23 62 50 78 60 17 11 36 26 44 35 7 10 19 17 25 17 7 0 30 15
52 33 21 18 68 51 104 74 36 22 85 50 110 63 25 12 47 26 50 30 3 4 30 15 60
25 30 10 62 23 70 30 8 7 49 28 90 47 41 19 98 40 125 48 28 7 55 17 60 21 6
4 33 15 60 23 28 9 64 20 80 25 17 5 73 19 125 31 52 12 105 26 118 31 13 5
36 9 52 9 16 0 41 5 57 11 15 6 55 17 88 23 33 7 67 11 75 8z m1220 -5832 c62
0 68 -2 81 -26 8 -16 14 -55 13 -98 0 -39 -3 -90 -6 -112 -4 -23 -9 -61 -13
-85 -3 -24 -8 -98 -10 -164 -3 -66 -5 -230 -6 -365 -1 -135 2 -330 6 -435 4
-104 7 -226 7 -270 0 -44 4 -85 10 -92 5 -7 8 -22 6 -35 -3 -23 -5 -23 -148
-25 -80 -1 -273 -6 -430 -11 -207 -7 -295 -13 -320 -24 -19 -8 -71 -22 -115
-32 -44 -10 -94 -22 -111 -27 -17 -5 -46 -9 -66 -9 -19 0 -53 -6 -74 -14 -22
-7 -75 -17 -119 -21 -44 -4 -89 -12 -99 -17 -10 -6 -33 -12 -50 -14 -17 -2
-53 -8 -81 -13 -27 -5 -75 -16 -105 -24 -30 -8 -73 -22 -95 -30 -22 -8 -47
-17 -57 -21 -14 -6 -16 -1 -14 41 1 26 -4 61 -12 77 -11 22 -15 112 -18 410
-2 209 -8 437 -14 506 -6 69 -16 150 -22 180 -6 30 -12 71 -14 90 -2 19 -5 85
-8 145 -3 61 -8 137 -11 170 -4 33 -7 64 -8 69 -1 4 16 14 38 21 22 7 83 20
135 30 52 10 105 22 117 28 13 6 25 8 28 5 3 -3 34 1 68 9 34 8 80 18 102 22
22 4 60 14 85 21 25 7 59 14 75 16 17 1 48 7 70 14 22 6 74 18 115 26 41 8
152 26 245 40 139 22 198 26 325 24 85 -2 169 -3 185 -3 17 0 77 4 135 8 58 4
107 9 109 11 2 2 34 4 71 4z m3131 -315 c83 -2 134 -8 148 -17 12 -7 26 -29
31 -48 6 -19 10 -47 10 -62 0 -16 -2 -28 -4 -28 -2 0 -11 3 -20 6 -9 3 -16 12
-16 19 0 8 -4 16 -9 20 -6 3 -29 8 -53 11 -24 3 -65 9 -93 14 -27 6 -77 11
-110 12 -35 1 -85 -6 -120 -17 -33 -10 -71 -17 -85 -16 -14 1 -45 -5 -69 -14
-24 -8 -50 -23 -57 -33 -12 -15 -13 -12 -14 24 0 26 7 50 18 62 12 15 46 26
122 41 58 11 125 22 150 25 25 2 102 2 171 1z m-5110 -220 c5 -33 10 -96 13
-140 2 -44 7 -107 10 -140 4 -33 13 -141 21 -240 8 -99 17 -235 19 -302 l5
-122 -29 -18 c-29 -17 -30 -19 -30 -103 l-1 -85 -68 -32 c-37 -18 -75 -33 -84
-33 -14 0 -17 10 -17 53 0 28 7 99 15 156 8 57 13 107 10 111 -3 5 -1 28 5 52
6 24 15 90 21 148 5 58 14 173 19 255 5 83 14 177 19 210 6 33 15 78 21 100 7
22 15 60 20 85 5 25 11 54 13 65 3 11 6 25 8 30 1 6 5 -17 10 -50z m5305 -55
c9 0 15 -12 16 -32 1 -18 1 -46 0 -63 -1 -16 -4 -95 -7 -174 -3 -79 -8 -148
-11 -152 -3 -5 -6 -61 -8 -126 l-3 -117 -74 -13 c-43 -8 -140 -12 -229 -12
-112 1 -173 7 -220 19 -36 10 -77 20 -92 24 -27 6 -28 9 -28 64 0 31 -7 78
-14 104 -9 29 -13 75 -11 125 3 43 7 111 9 152 3 41 8 98 12 128 3 29 10 56
14 58 5 3 30 -8 57 -25 26 -16 62 -37 80 -45 18 -8 58 -15 90 -14 32 0 78 4
103 9 25 5 80 16 124 24 43 9 89 22 102 31 13 8 32 15 43 15 11 0 23 5 26 10
3 6 13 10 21 10z m-808 -41 c21 1 35 -4 39 -15 3 -8 2 -108 -3 -221 l-9 -206
-27 -20 c-24 -18 -31 -19 -75 -8 -26 7 -66 20 -88 28 -22 8 -48 19 -57 24 -10
5 -24 9 -32 9 -7 0 -25 16 -40 35 -22 29 -25 41 -20 74 4 22 3 48 -1 58 -5 10
-9 23 -10 28 0 6 7 24 16 40 9 17 25 44 34 61 10 17 32 39 49 49 17 11 44 25
61 32 16 8 52 18 80 22 27 5 65 9 83 10z m-2319 -769 c16 0 50 -9 76 -21 26
-12 109 -36 184 -55 75 -19 161 -38 191 -44 30 -6 64 -12 75 -14 11 -2 53 -12
93 -21 39 -9 72 -20 72 -23 -1 -4 -31 -21 -68 -39 -37 -18 -79 -35 -95 -39
-15 -3 -30 -10 -33 -15 -3 -5 -13 -9 -22 -9 -9 0 -46 -12 -82 -26 -36 -14 -74
-31 -85 -37 -11 -6 -66 -13 -123 -15 -80 -3 -113 -1 -147 12 -33 13 -45 24
-50 44 -3 15 -7 89 -10 165 l-4 137 28 0z m724 -301 c4 1 8 -12 9 -29 0 -16 1
-36 2 -42 1 -7 -8 -12 -19 -11 -11 1 -48 3 -83 5 -37 1 -61 6 -59 12 2 6 35
23 73 38 38 15 72 27 77 27z m-2910 -90 c13 1 17 -7 17 -33 0 -24 -7 -39 -21
-50 -20 -13 -21 -22 -17 -91 4 -66 9 -80 33 -105 15 -15 37 -31 49 -34 11 -3
28 -20 37 -38 10 -20 26 -35 44 -40 16 -4 54 -5 85 -3 30 2 116 -3 190 -11 74
-8 191 -19 260 -24 69 -6 139 -12 155 -14 17 -3 57 -8 90 -11 33 -4 62 -9 64
-11 2 -2 2 -6 0 -8 -3 -3 -27 -10 -54 -17 -28 -6 -59 -15 -70 -20 -11 -4 -63
-22 -115 -39 -52 -17 -124 -40 -160 -51 -36 -11 -89 -27 -118 -36 -29 -8 -80
-19 -115 -24 -34 -5 -89 -13 -122 -19 -33 -5 -101 -12 -152 -16 -51 -3 -98 -2
-105 3 -7 4 -51 8 -98 8 -65 0 -108 7 -180 29 -52 16 -133 47 -180 69 -47 22
-129 71 -182 109 -54 38 -111 82 -128 98 -16 15 -30 34 -30 42 0 8 21 21 48
30 26 9 67 21 92 28 25 7 74 21 110 32 36 11 101 34 145 51 44 18 100 41 125
53 l45 22 12 -57 c6 -30 10 -59 8 -62 -2 -3 -7 -21 -10 -40 -3 -19 -11 -52
-16 -73 -6 -22 -8 -55 -4 -74 3 -19 12 -43 18 -53 7 -11 21 -19 32 -19 11 0
26 4 34 9 7 5 18 33 23 62 5 30 11 121 12 202 3 141 4 149 26 164 13 9 42 26
64 39 23 12 49 23 59 23z m1904 -14 c160 0 170 -1 197 -22 16 -13 40 -23 55
-23 14 0 33 -5 41 -10 13 -8 12 -11 -5 -24 -11 -9 -24 -16 -30 -16 -5 0 -41
-15 -80 -34 -38 -19 -113 -54 -165 -79 -52 -24 -124 -54 -160 -65 -36 -11
-101 -29 -145 -41 -44 -12 -89 -23 -100 -25 -11 -1 -27 -6 -35 -9 -8 -3 -59
-11 -112 -17 -72 -8 -122 -8 -195 0 -54 6 -134 15 -178 20 -44 5 -134 16 -200
24 -66 9 -129 15 -140 15 -11 -1 -54 2 -95 5 -41 4 -88 9 -105 12 -16 2 -62 8
-102 12 -40 4 -75 11 -79 15 -4 4 -5 9 -2 12 2 3 37 16 77 30 40 14 103 30
141 34 37 5 76 14 87 20 11 5 23 8 26 5 3 -3 40 2 83 12 44 9 90 19 104 22 14
2 30 8 35 12 6 4 48 11 94 15 46 3 102 13 125 20 23 8 79 23 126 34 47 12 104
21 127 21 23 0 45 5 48 10 4 6 78 10 196 9 105 -1 192 0 194 2 2 2 79 4 172 4z
m608 -65 c28 0 130 -5 228 -12 114 -7 181 -16 183 -23 3 -6 -2 -49 -10 -96 -8
-46 -20 -106 -25 -132 -6 -27 -13 -53 -17 -58 -3 -5 -22 -20 -42 -33 -21 -13
-64 -33 -97 -46 -33 -12 -76 -25 -95 -27 -19 -3 -41 -10 -48 -16 -7 -5 -15 -7
-19 -4 -3 4 -11 17 -17 29 -10 21 -21 24 -106 30 -52 4 -147 12 -210 18 -63 7
-211 14 -328 15 -118 2 -216 6 -219 8 -3 3 14 11 38 17 23 7 95 33 158 60 64
26 139 59 166 73 28 15 70 36 95 47 25 12 57 28 72 36 14 7 33 14 41 14 9 0
17 3 19 8 2 4 23 16 48 28 25 12 65 31 90 43 27 13 65 21 95 21z m-3317 -417
c9 -4 22 -10 27 -15 6 -4 32 -26 60 -49 27 -23 67 -50 90 -60 22 -11 51 -26
65 -33 14 -8 41 -21 60 -29 19 -8 46 -20 60 -25 14 -6 45 -17 70 -25 25 -8 61
-20 80 -27 19 -7 53 -16 75 -20 22 -5 56 -13 75 -17 25 -6 37 -16 42 -33 3
-14 11 -52 17 -85 6 -33 8 -99 4 -146 -3 -52 -2 -93 5 -105 6 -12 7 -38 2 -71
-5 -29 -10 -115 -11 -190 -1 -76 -4 -143 -6 -150 -3 -6 -12 -9 -21 -6 -9 2
-26 9 -37 13 -11 5 -38 14 -60 20 -22 7 -77 30 -122 51 -44 22 -86 39 -92 39
-6 0 -11 3 -11 8 0 4 -35 23 -77 42 -42 19 -122 58 -177 85 -77 39 -104 57
-118 83 -10 18 -18 52 -18 75 1 23 0 182 0 352 -1 171 -1 313 -1 317 1 4 9 4
19 1z m2182 -9 c58 -4 125 -8 150 -10 25 -2 130 -8 233 -14 104 -5 193 -8 197
-5 5 3 49 1 97 -5 48 -5 133 -12 188 -14 55 -3 126 -8 158 -12 55 -7 57 -8 41
-25 -10 -11 -24 -19 -33 -19 -9 0 -34 -11 -56 -24 -22 -14 -67 -40 -100 -59
-33 -18 -89 -51 -125 -71 -36 -21 -110 -62 -165 -91 -55 -29 -183 -95 -285
-147 -102 -51 -223 -111 -270 -132 -47 -21 -103 -45 -125 -53 -22 -9 -76 -33
-120 -53 -44 -21 -98 -43 -120 -49 -22 -7 -71 -26 -110 -43 -38 -17 -88 -39
-110 -48 -22 -10 -56 -24 -75 -33 -19 -8 -60 -26 -90 -40 -30 -13 -71 -30 -90
-37 -19 -7 -48 -18 -65 -25 -16 -8 -50 -21 -75 -31 -25 -10 -58 -26 -75 -36
-16 -10 -40 -18 -53 -18 -13 0 -65 -18 -117 -40 -52 -22 -100 -40 -107 -40 -7
1 -23 9 -35 19 -22 18 -22 20 -25 425 -1 250 1 409 7 414 6 5 37 14 70 20 33
6 110 16 170 23 61 6 143 20 184 30 40 10 106 29 145 43 39 13 125 40 191 61
66 20 129 40 140 44 11 5 74 23 140 40 66 18 140 39 165 47 34 10 71 12 150 8z"/>
<g>
<path d="M4022 9306 c-25 -1 -55 -6 -66 -11 -12 -6 -33 -35 -47 -65 -24 -49
-25 -58 -13 -81 7 -14 24 -33 38 -43 14 -9 43 -16 64 -16 33 0 44 7 85 50 26
27 47 59 47 70 0 11 -4 20 -9 20 -6 0 -19 17 -31 38 -21 37 -25 39 -68 38z"/>
</g>
<g>
<path d="M6604 8950 c-13 0 -26 -4 -29 -10 -3 -5 -16 -10 -29 -10 -13 0 -30
-8 -39 -18 -11 -12 -17 -36 -17 -69 0 -32 5 -55 14 -63 8 -6 38 -18 65 -25 50
-13 51 -13 71 12 11 14 22 40 26 59 3 19 3 46 -1 61 -3 16 -14 36 -22 46 -9 9
-26 17 -39 17z"/>
</g>
<g>
<path d="M5051 7930 c-5 0 -16 -7 -24 -15 -9 -8 -27 -38 -40 -67 -14 -29 -33
-82 -42 -118 -9 -36 -22 -87 -30 -115 -8 -27 -17 -68 -21 -90 -3 -22 -10 -44
-14 -50 -5 -5 -16 -37 -25 -70 -9 -33 -17 -69 -16 -79 0 -11 -4 -27 -9 -36 -5
-9 -12 -30 -15 -46 -3 -16 -10 -56 -15 -89 -4 -33 -13 -81 -20 -107 -7 -26 -9
-63 -6 -83 6 -28 12 -35 30 -35 13 0 37 -7 54 -16 26 -12 61 -15 187 -12 125
2 157 6 170 19 12 12 15 26 10 52 -6 32 -11 37 -43 43 -20 4 -80 2 -132 -4
-52 -5 -110 -8 -128 -5 -33 5 -34 7 -29 47 2 22 10 84 17 136 7 52 19 107 26
122 8 15 14 37 14 48 0 12 7 34 15 48 8 15 24 68 36 117 11 50 21 99 22 110 2
11 11 52 22 90 10 39 27 85 37 103 10 18 18 44 18 57 0 14 -8 29 -19 35 -11 5
-24 10 -30 10z"/>
</g>
<g>
<path d="M5140 6763 c-22 3 -43 -1 -55 -9 -10 -8 -28 -14 -39 -14 -11 0 -61
-25 -112 -56 -75 -45 -127 -90 -290 -252 -109 -108 -203 -204 -209 -212 -7 -8
-17 -24 -23 -36 -9 -16 -8 -26 4 -42 8 -12 24 -22 36 -22 13 0 59 38 123 103
57 56 132 129 167 163 34 33 95 87 134 120 39 32 86 68 105 79 19 11 57 31 84
45 37 18 66 25 105 24 30 0 88 -11 129 -23 40 -12 108 -40 150 -62 42 -22 87
-50 101 -62 14 -12 37 -40 51 -62 14 -22 47 -96 73 -165 25 -69 61 -154 78
-190 17 -36 47 -88 65 -116 18 -28 47 -66 64 -83 17 -18 68 -50 112 -70 45
-21 91 -41 102 -45 11 -4 57 -12 102 -17 52 -6 91 -6 107 1 15 5 31 21 36 35
5 14 7 31 4 39 -3 8 -21 20 -40 26 -19 7 -51 10 -72 9 -20 -2 -55 1 -77 6 -22
4 -69 21 -105 37 -36 16 -80 44 -98 61 -19 18 -49 55 -67 83 -18 28 -36 66
-40 85 -4 19 -13 41 -19 49 -7 8 -20 35 -30 60 -10 25 -24 56 -31 70 -7 14
-18 48 -24 75 -7 28 -24 66 -39 85 -14 19 -46 56 -71 83 -24 26 -48 47 -53 47
-5 0 -36 18 -68 40 -32 22 -67 40 -76 40 -10 0 -25 6 -33 14 -9 8 -63 23 -121
34 -58 12 -121 23 -140 25z"/>
</g>
</g>
<g>
<path d="M5227 9759 c-1 -1 -10 -3 -19 -6 -10 -2 -18 -8 -18 -12 0 -4 -19 -32
-41 -62 -23 -30 -54 -81 -69 -114 -16 -34 -32 -78 -36 -100 -4 -21 -16 -53
-26 -71 -11 -18 -20 -43 -22 -56 -1 -13 -10 -50 -20 -83 -9 -33 -24 -80 -33
-105 -8 -25 -22 -65 -30 -90 -9 -25 -19 -54 -24 -65 -4 -11 -24 -60 -44 -110
-20 -49 -48 -123 -62 -162 -21 -62 -31 -77 -66 -101 -28 -18 -43 -36 -45 -53
-2 -14 3 -31 10 -36 7 -6 72 -14 143 -17 72 -3 182 -9 245 -12 63 -3 160 -12
216 -20 56 -8 155 -14 220 -15 65 0 134 4 152 10 18 5 35 10 37 10 3 1 11 1
19 1 7 0 16 13 19 30 5 22 -4 51 -33 114 -22 47 -40 90 -40 96 0 6 -4 18 -9
28 -5 9 -19 51 -31 92 -13 41 -33 102 -47 135 -13 33 -35 83 -47 110 -13 28
-38 82 -54 120 -17 39 -42 106 -57 150 -14 44 -33 90 -41 102 -8 12 -14 30
-14 40 0 10 -7 31 -15 47 -8 15 -15 37 -15 48 0 11 -12 46 -26 78 -16 36 -35
62 -50 69 -14 6 -26 10 -27 10z m9 -171 c7 -7 24 -49 39 -93 14 -44 45 -129
69 -190 24 -60 47 -119 51 -130 5 -11 9 -22 10 -25 1 -3 5 -14 10 -25 5 -11
26 -60 47 -109 21 -49 38 -95 38 -102 0 -8 6 -28 14 -46 8 -18 25 -67 37 -108
12 -41 29 -88 38 -105 9 -16 16 -34 16 -40 0 -5 4 -16 8 -22 5 -7 5 -17 2 -23
-3 -5 -43 -10 -89 -10 -45 0 -107 4 -137 9 -30 6 -72 12 -94 16 -22 3 -121 12
-220 20 -99 8 -191 15 -204 15 -21 0 -23 3 -17 34 4 19 24 76 45 127 21 52 45
110 53 129 9 19 25 60 36 90 11 30 32 92 46 138 14 46 26 90 26 98 0 8 4 14 8
14 4 0 16 33 26 73 10 39 37 110 58 157 22 47 47 93 56 103 13 14 18 15 28 5z"/>
</g>
<g>
<path d="M7676 9660 c-11 0 -29 -12 -39 -25 -10 -14 -31 -57 -48 -97 -17 -40
-32 -77 -33 -83 -2 -5 -6 -19 -10 -30 -5 -11 -20 -47 -35 -80 -16 -33 -34 -80
-41 -105 -7 -25 -19 -59 -26 -76 -8 -18 -26 -65 -40 -105 -14 -41 -38 -119
-54 -174 -15 -55 -38 -131 -51 -170 -22 -63 -27 -71 -54 -75 -25 -4 -31 -10
-33 -37 -3 -27 2 -35 30 -50 29 -16 65 -18 328 -19 162 -1 351 -3 420 -4 69
-1 154 0 190 2 36 2 70 6 76 10 7 5 9 24 3 56 -4 29 -37 108 -77 188 -38 76
-78 157 -88 179 -9 22 -23 47 -30 55 -7 8 -24 35 -37 60 -14 25 -43 79 -64
120 -21 41 -40 77 -43 80 -3 3 -30 52 -59 110 -30 57 -65 120 -78 139 -13 18
-23 40 -23 47 0 7 -14 29 -31 49 -18 20 -40 35 -53 35z m9 -170 c1 0 17 -24
36 -52 18 -29 41 -65 49 -81 8 -15 42 -76 76 -135 33 -59 71 -128 84 -155 13
-26 29 -52 37 -58 7 -6 13 -17 13 -23 0 -6 13 -36 28 -66 16 -30 40 -77 54
-105 14 -27 34 -68 44 -90 9 -22 24 -48 32 -57 8 -9 11 -21 8 -26 -3 -6 -27
-13 -54 -16 -26 -3 -67 -7 -92 -7 -25 -1 -94 4 -155 11 -60 7 -123 12 -140 11
-16 -1 -93 -3 -170 -6 -77 -2 -146 -1 -152 3 -10 6 -7 29 13 97 13 50 29 108
35 130 5 22 15 54 21 70 6 17 21 53 34 82 13 28 30 76 39 107 9 31 21 58 26
61 5 4 9 16 9 29 0 12 4 26 9 32 5 5 27 51 50 103 22 51 41 99 41 105 0 7 5
17 12 24 7 7 13 12 13 12z"/>
</g>
<g>
<path d="M6710 7880 c-10 0 -30 -15 -45 -32 -15 -18 -41 -55 -58 -82 -18 -28
-40 -64 -51 -80 -10 -17 -50 -91 -87 -165 -38 -73 -69 -138 -69 -143 0 -6 -16
-33 -35 -59 -19 -27 -35 -52 -35 -55 0 -3 -9 -17 -20 -31 -11 -14 -20 -34 -20
-43 0 -10 -7 -21 -16 -24 -8 -3 -24 -26 -35 -51 -11 -25 -36 -72 -55 -104 -19
-32 -44 -67 -55 -76 -10 -10 -19 -22 -19 -27 0 -5 -16 -33 -35 -62 -19 -29
-35 -57 -35 -63 0 -5 -12 -20 -26 -34 -14 -13 -34 -38 -45 -56 -12 -20 -18
-41 -14 -52 3 -11 16 -23 28 -27 12 -5 27 -7 32 -5 6 1 60 3 122 3 61 0 116
-3 122 -6 6 -4 54 -11 108 -16 54 -6 152 -16 218 -23 66 -6 165 -11 220 -10
55 2 174 3 264 3 148 0 166 2 182 19 15 16 16 22 4 44 -7 14 -16 40 -20 58 -4
18 -24 69 -45 114 -21 44 -41 91 -45 105 -4 14 -19 50 -33 80 -14 30 -26 60
-27 65 -1 6 -5 25 -9 44 -5 18 -17 54 -28 80 -11 25 -26 60 -33 76 -7 17 -19
50 -25 75 -7 25 -18 59 -25 75 -7 17 -18 48 -25 70 -6 22 -20 58 -30 80 -10
22 -26 58 -36 80 -9 22 -32 72 -51 111 -18 39 -47 87 -64 107 -17 20 -39 37
-49 37z m-8 -150 c7 0 25 -19 39 -43 15 -23 49 -96 76 -162 28 -66 56 -140 63
-165 7 -25 20 -63 30 -85 10 -22 31 -83 48 -135 17 -52 34 -114 38 -137 4 -24
13 -48 20 -54 8 -6 14 -17 14 -23 0 -6 11 -33 25 -61 13 -27 25 -58 25 -67 0
-9 4 -19 9 -22 5 -3 12 -18 16 -33 3 -16 13 -35 21 -45 12 -13 13 -18 2 -24
-7 -4 -60 -9 -118 -11 -58 -1 -175 -4 -260 -6 -85 -2 -159 -1 -165 3 -5 4 -28
10 -50 14 -22 4 -69 10 -105 12 -36 3 -79 10 -97 15 -17 6 -51 9 -75 9 -23 -1
-67 -1 -95 0 -29 0 -53 3 -53 6 0 3 12 26 27 52 15 26 31 49 35 50 4 2 8 8 8
13 0 5 20 39 45 76 25 37 45 70 45 75 0 4 18 35 40 69 22 34 40 66 40 71 0 4
14 27 30 50 17 22 30 46 30 51 0 6 6 18 14 26 8 9 34 54 59 101 24 47 67 129
95 182 28 54 62 113 75 130 13 18 27 41 30 51 4 9 12 17 19 17z"/>
</g>
<g>
<path d="M3575 7780 c-15 0 -32 -11 -46 -32 -13 -18 -26 -35 -30 -38 -4 -3
-20 -32 -36 -65 -17 -33 -56 -109 -88 -170 -32 -60 -63 -117 -69 -125 -7 -8
-17 -26 -24 -40 -7 -14 -16 -32 -20 -40 -5 -8 -17 -33 -28 -55 -10 -22 -33
-62 -50 -90 -18 -27 -51 -86 -74 -130 -24 -44 -53 -101 -66 -127 -13 -27 -24
-51 -24 -55 0 -5 -27 -53 -59 -108 -37 -65 -64 -101 -77 -103 -10 -1 -29 -5
-40 -7 -14 -3 -23 -15 -27 -35 -4 -16 -4 -37 -1 -45 4 -8 14 -15 24 -15 10 0
20 -7 24 -15 3 -8 16 -15 29 -15 13 0 32 9 42 20 9 10 36 21 59 24 22 3 127 8
231 10 105 3 224 10 265 15 41 6 106 10 143 11 37 0 112 7 165 15 53 8 152 21
219 30 67 8 135 20 150 26 24 8 29 16 31 45 2 27 -6 49 -32 88 -19 29 -38 65
-41 79 -4 15 -11 30 -16 33 -5 3 -9 11 -9 18 0 7 -20 50 -45 97 -25 46 -48 94
-52 107 -3 12 -9 22 -13 22 -4 0 -13 15 -20 33 -7 17 -46 100 -87 182 -41 83
-98 187 -126 232 -29 44 -69 106 -89 136 -21 30 -38 59 -38 64 0 6 -7 14 -16
17 -9 3 -26 6 -39 6z m11 -150 c8 0 14 -4 14 -9 0 -4 18 -31 40 -59 22 -27 40
-54 40 -60 0 -5 7 -15 16 -23 9 -7 98 -180 199 -383 101 -204 185 -378 187
-386 2 -10 -4 -14 -17 -13 -11 1 -49 -3 -85 -8 -36 -6 -83 -12 -105 -13 -22
-2 -76 -8 -120 -14 -44 -6 -143 -16 -220 -23 -77 -6 -224 -13 -327 -15 -159
-3 -188 -2 -188 10 0 8 5 18 10 21 6 4 21 28 34 53 12 26 32 63 43 83 12 20
25 45 31 55 5 11 21 44 36 75 14 31 26 59 26 63 0 4 13 24 29 44 16 20 45 69
66 107 21 39 43 77 50 85 7 8 31 49 53 90 21 41 43 86 47 100 4 14 18 38 31
53 13 16 24 32 24 37 0 5 16 36 36 69 20 34 43 61 50 61z"/>
</g>
<g>
<path d="M8861 7660 c-3 0 -14 -5 -24 -11 -9 -6 -31 -36 -47 -67 -16 -31 -36
-68 -44 -82 -8 -14 -21 -43 -29 -65 -8 -22 -33 -92 -55 -155 -23 -63 -43 -127
-47 -142 -3 -16 -10 -28 -15 -28 -6 0 -10 -4 -10 -10 0 -5 -23 -56 -51 -112
-28 -57 -52 -111 -54 -120 -2 -10 -16 -37 -30 -62 -24 -42 -28 -44 -52 -35
-14 5 -27 8 -28 7 -1 -2 -5 -16 -9 -31 -5 -23 -1 -34 24 -58 29 -30 32 -30 93
-23 34 4 81 7 103 5 23 -1 57 -4 75 -6 19 -3 129 0 244 5 116 6 254 12 308 14
68 2 103 8 113 17 8 8 15 26 16 39 1 14 -10 48 -24 75 -13 28 -35 68 -48 90
-13 22 -40 72 -60 110 -21 39 -51 97 -68 130 -17 33 -45 94 -62 135 -17 41
-47 112 -67 156 -19 45 -45 92 -58 106 -12 13 -25 34 -29 45 -4 12 -18 33 -33
47 -14 14 -28 26 -32 26z m21 -178 c9 -9 35 -60 58 -112 23 -52 53 -124 67
-160 14 -36 43 -101 65 -144 22 -44 51 -96 64 -117 13 -21 24 -41 24 -43 0 -3
14 -28 32 -55 17 -28 29 -53 27 -55 -2 -2 -35 -7 -74 -10 -38 -3 -135 -8 -215
-11 -80 -4 -163 -8 -185 -10 -22 -2 -74 -1 -116 2 l-77 6 9 31 c5 17 22 52 39
79 16 27 30 51 30 53 0 3 14 38 31 77 17 40 39 90 49 112 10 22 29 74 43 115
14 41 33 93 42 115 9 22 28 64 43 92 25 50 28 52 44 35z"/>
</g>
<g>
<path d="M10111 6040 c-22 0 -34 -9 -55 -40 -14 -22 -26 -43 -26 -48 0 -5 -9
-17 -20 -27 -11 -10 -20 -22 -20 -26 0 -4 -14 -38 -31 -76 -17 -37 -41 -90
-54 -118 -12 -27 -31 -77 -40 -110 -10 -33 -26 -78 -36 -101 -9 -22 -25 -65
-34 -95 -10 -30 -38 -108 -63 -173 -25 -66 -51 -131 -59 -145 -7 -14 -13 -31
-13 -37 0 -7 -18 -56 -41 -110 -23 -55 -43 -101 -45 -103 -2 -3 -23 -7 -47
-10 -32 -5 -43 -11 -45 -27 -2 -11 6 -28 17 -38 15 -14 47 -21 113 -28 51 -4
109 -9 128 -10 19 -1 76 3 125 9 54 7 225 10 433 8 322 -3 343 -2 352 15 7 12
5 45 -4 98 -8 43 -22 94 -31 113 -10 19 -28 46 -40 60 -12 15 -34 58 -49 95
-16 38 -34 85 -41 104 -7 19 -22 62 -34 95 -12 33 -30 78 -40 100 -10 22 -30
66 -45 98 -14 31 -26 62 -26 67 0 6 -20 52 -44 102 -24 51 -56 127 -70 168
-15 41 -31 83 -37 92 -5 10 -9 23 -9 29 0 6 -9 24 -21 40 -14 20 -29 29 -48
29z m5 -167 c8 -3 14 -12 14 -20 0 -9 17 -52 39 -97 21 -44 47 -108 57 -141
10 -33 23 -67 30 -75 6 -8 14 -28 18 -43 4 -15 20 -55 36 -88 15 -33 31 -72
35 -88 3 -16 15 -37 25 -46 13 -12 18 -25 14 -40 -3 -13 3 -38 15 -61 12 -21
21 -43 21 -47 0 -5 17 -43 39 -85 21 -42 50 -101 65 -130 15 -29 25 -60 22
-68 -5 -13 -50 -15 -338 -14 -183 1 -344 1 -357 1 -13 -1 -40 -5 -60 -11 -19
-5 -52 -7 -73 -3 -38 6 -38 6 -32 42 3 20 16 59 29 86 13 28 35 84 50 125 15
41 43 118 61 170 19 52 38 104 43 115 5 11 21 49 34 85 14 36 31 85 37 110 7
25 20 61 30 80 10 19 28 58 40 85 13 28 27 57 32 65 4 8 13 26 19 40 6 14 17
33 26 42 8 9 21 14 29 11z"/>
</g>
<g>
<path d="M7691 6029 c-3 0 -16 -7 -28 -16 -13 -8 -23 -19 -23 -23 0 -4 -20
-41 -45 -82 -25 -42 -45 -80 -45 -87 0 -6 -20 -50 -45 -98 -25 -47 -45 -92
-45 -98 0 -7 -6 -18 -14 -24 -8 -7 -18 -25 -21 -41 -3 -16 -13 -34 -21 -40 -7
-7 -12 -16 -9 -20 3 -5 1 -11 -4 -15 -6 -3 -18 -33 -27 -66 -9 -33 -21 -62
-25 -65 -5 -3 -9 -13 -9 -23 0 -10 -9 -30 -20 -44 -11 -14 -20 -31 -20 -38 0
-6 -11 -27 -25 -45 -14 -18 -25 -39 -25 -47 0 -8 -9 -25 -19 -39 -11 -14 -28
-45 -37 -69 -9 -24 -25 -53 -34 -64 -9 -11 -23 -36 -31 -55 -7 -19 -13 -38
-11 -42 1 -4 -11 -14 -27 -22 -24 -13 -29 -22 -29 -55 -1 -35 3 -41 29 -50 20
-7 59 -7 122 0 50 5 106 14 122 19 17 5 71 14 120 21 80 11 111 9 274 -10 102
-13 259 -26 351 -30 136 -6 171 -11 198 -26 25 -15 37 -17 50 -9 9 6 19 21 20
34 2 13 -4 41 -14 64 -9 23 -26 61 -36 86 -11 25 -31 69 -45 98 -14 29 -30 55
-34 58 -5 3 -9 12 -9 20 0 8 -8 32 -19 52 -10 20 -32 60 -47 88 -16 29 -45 76
-64 106 -19 29 -53 89 -75 133 -22 44 -43 82 -46 85 -4 3 -9 15 -13 28 -4 12
-12 22 -17 22 -5 0 -9 7 -9 15 0 9 -12 39 -27 68 -15 28 -31 54 -35 55 -4 2
-8 10 -8 17 0 8 -7 31 -16 52 -9 21 -30 65 -45 99 -16 33 -29 65 -29 71 0 7
-12 21 -26 32 -15 12 -29 21 -33 20z m2 -172 c5 -1 17 -21 25 -42 9 -22 29
-62 45 -89 15 -27 35 -70 44 -95 8 -25 19 -51 24 -56 4 -6 31 -56 60 -110 28
-55 63 -115 76 -133 14 -18 50 -81 80 -140 30 -59 64 -117 75 -129 11 -12 22
-35 24 -50 2 -16 15 -55 29 -86 14 -32 23 -62 21 -66 -3 -4 -72 -6 -155 -4
-82 2 -160 7 -173 12 -13 4 -61 9 -108 10 -46 1 -90 7 -97 13 -8 6 -56 10
-115 9 -57 -1 -125 -8 -153 -16 -27 -7 -83 -16 -122 -20 -59 -5 -73 -4 -73 8
0 8 30 72 66 143 36 71 76 147 89 169 13 22 37 74 55 115 18 41 44 100 57 130
13 30 28 62 33 70 5 8 21 39 35 68 14 29 25 57 25 62 0 6 4 10 9 10 5 0 23 37
41 83 18 45 42 94 54 110 11 15 24 26 29 24z"/>
</g>
<g>
<path d="M5143 6014 c-16 5 -28 0 -48 -21 -15 -15 -38 -51 -51 -80 -13 -28
-24 -55 -24 -60 0 -5 -15 -32 -34 -60 -18 -28 -41 -66 -50 -84 -9 -17 -16 -37
-16 -44 0 -7 -13 -30 -29 -52 -16 -22 -37 -55 -46 -74 -10 -19 -24 -38 -31
-42 -8 -4 -14 -12 -14 -18 0 -5 -24 -42 -53 -82 -29 -39 -59 -88 -67 -107 -8
-19 -24 -52 -37 -72 -13 -21 -23 -45 -23 -54 0 -9 -13 -33 -28 -53 -16 -20
-40 -61 -54 -91 -14 -30 -35 -76 -47 -101 -12 -25 -21 -50 -21 -56 0 -5 -5
-14 -11 -20 -7 -7 -13 -26 -14 -44 -2 -17 -12 -44 -24 -60 -12 -15 -21 -35
-21 -43 0 -8 -11 -27 -24 -43 -13 -15 -27 -47 -31 -70 -4 -24 -11 -45 -16 -49
-5 -3 -9 -18 -9 -34 0 -16 5 -32 10 -35 6 -3 10 -15 10 -26 0 -10 5 -19 10
-19 6 0 24 13 39 29 16 17 32 44 36 61 4 17 16 37 28 44 12 7 47 18 77 24 30
6 82 16 115 21 33 6 110 15 170 22 61 6 151 17 200 25 50 9 191 18 316 21 160
4 231 3 246 -6 14 -7 24 -8 28 -1 3 5 15 10 25 10 10 0 21 8 24 18 3 9 -8 51
-25 92 -17 41 -37 100 -45 130 -8 30 -18 64 -23 75 -5 11 -17 54 -26 95 -10
41 -21 80 -25 85 -4 6 -15 37 -24 70 -10 33 -19 71 -22 85 -3 14 -12 39 -20
57 -8 17 -14 36 -14 42 0 6 -11 35 -25 65 -14 30 -25 60 -25 65 0 6 -4 19 -10
29 -5 9 -31 64 -58 122 -26 58 -65 143 -86 191 -21 47 -43 92 -50 101 -6 8
-21 18 -33 22z m4 -184 c8 -11 27 -49 43 -83 16 -35 35 -69 44 -76 8 -7 12
-19 9 -27 -3 -8 -1 -20 5 -27 5 -6 30 -66 56 -132 25 -66 57 -142 70 -170 13
-27 26 -75 29 -105 3 -30 17 -98 32 -150 15 -52 29 -106 32 -120 2 -14 15 -56
29 -94 19 -52 22 -72 13 -82 -6 -8 -25 -13 -43 -13 -17 1 -87 1 -156 0 -69 -1
-192 -9 -275 -16 -82 -8 -195 -20 -250 -26 -55 -5 -116 -14 -135 -19 -19 -4
-63 -14 -97 -22 -35 -8 -63 -11 -63 -7 0 4 11 31 25 61 14 29 25 62 25 73 0
11 8 34 17 50 9 17 44 84 78 150 34 66 81 156 105 200 23 44 50 89 59 100 10
11 38 52 63 90 24 39 57 93 73 120 16 28 34 57 41 65 6 8 34 58 61 110 27 52
59 112 72 133 23 37 24 37 38 17z"/>
</g>
<g>
<path d="M1882 5740 c-4 0 -15 -5 -26 -11 -10 -6 -28 -21 -40 -33 -11 -11 -41
-46 -66 -78 -25 -31 -57 -76 -72 -100 -15 -23 -33 -52 -40 -63 -7 -11 -63 -87
-123 -170 -61 -82 -128 -179 -149 -215 -22 -36 -47 -74 -56 -85 -9 -11 -33
-48 -53 -83 -20 -35 -37 -68 -37 -74 0 -5 -11 -19 -25 -30 -14 -11 -25 -25
-25 -31 0 -7 -16 -34 -35 -62 -20 -27 -58 -84 -86 -125 -28 -41 -49 -83 -47
-95 1 -11 -1 -26 -5 -32 -5 -7 -21 -13 -36 -13 -16 0 -33 -6 -38 -12 -5 -7
-10 -23 -11 -35 0 -13 5 -26 11 -30 7 -4 46 -6 87 -5 41 1 138 7 215 13 77 5
197 14 267 19 70 4 131 11 135 13 5 3 130 8 279 11 185 4 295 10 354 21 47 9
96 18 110 21 14 2 50 8 80 13 33 6 59 6 64 0 6 -5 22 -9 36 -9 15 0 34 8 43
18 10 10 17 27 17 37 0 10 -23 61 -51 114 -28 53 -72 137 -98 186 -26 50 -63
115 -83 145 -20 30 -42 69 -49 85 -8 17 -27 53 -44 80 -17 28 -38 66 -45 85
-8 19 -27 54 -42 76 -15 23 -28 47 -28 53 0 7 -14 38 -31 69 -17 31 -37 64
-44 72 -6 8 -19 31 -28 51 -9 19 -53 74 -97 122 -45 48 -85 87 -88 87z m-13
-140 c2 0 19 -11 37 -25 18 -14 39 -36 46 -49 7 -14 32 -57 55 -98 22 -40 58
-104 78 -143 21 -38 48 -92 62 -120 13 -27 32 -65 41 -83 9 -19 26 -44 38 -57
11 -12 28 -40 37 -62 8 -22 25 -55 36 -74 11 -19 28 -47 37 -64 9 -16 29 -46
44 -65 15 -19 35 -59 45 -88 9 -29 26 -62 37 -72 11 -10 18 -25 15 -33 -3 -8
-26 -17 -54 -21 -26 -4 -64 -9 -83 -12 -19 -2 -69 -12 -110 -21 -44 -9 -142
-17 -235 -19 -88 -2 -214 -6 -280 -9 -66 -3 -194 -10 -285 -16 -91 -6 -208
-13 -260 -16 -92 -5 -94 -4 -79 13 9 11 28 44 44 74 15 30 41 71 56 90 16 19
29 37 29 41 0 3 34 57 75 120 41 63 87 132 102 154 16 22 48 71 72 110 24 38
56 86 71 105 15 19 36 50 46 69 11 19 30 46 43 60 13 14 57 70 97 124 41 54
74 104 74 110 0 6 14 26 32 44 18 18 34 33 37 33z"/>
</g>
<g>
<path d="M9336 4870 c-13 0 -26 -6 -29 -13 -3 -7 1 -24 9 -38 7 -13 13 -49 14
-79 0 -41 -7 -66 -26 -100 -17 -29 -27 -64 -29 -100 -2 -36 2 -67 13 -92 9
-20 26 -41 37 -47 11 -6 27 -11 35 -12 8 -1 23 -1 33 0 14 1 17 6 12 24 -4 12
-16 29 -27 38 -11 9 -22 33 -25 58 -5 33 0 53 21 95 17 33 29 77 33 119 5 61
4 70 -21 107 -18 28 -33 40 -50 40z"/>
</g>
<g>
<path d="M9181 4730 c-11 0 -27 -10 -35 -22 -8 -12 -13 -25 -11 -29 3 -4 -6
-30 -20 -57 -14 -27 -25 -53 -25 -57 0 -3 -10 -27 -22 -53 -15 -32 -21 -64
-20 -100 1 -29 6 -61 12 -71 5 -10 21 -21 35 -23 13 -3 33 1 44 8 10 7 21 23
24 34 4 14 -3 26 -22 39 -15 11 -28 28 -28 38 0 10 5 25 12 33 6 8 26 59 43
112 18 53 32 108 32 122 0 19 -5 26 -19 26z"/>
</g>
</g>
</svg>
