<?xml version="1.0" standalone="no"?>
<!DOCTYPE svg PUBLIC "-//W3C//DTD SVG 20010904//EN"
 "http://www.w3.org/TR/2001/REC-SVG-20010904/DTD/svg10.dtd">
<svg version="1.0" xmlns="http://www.w3.org/2000/svg"
 width="1200.000000pt" height="960.000000pt" viewBox="0 0 1200.000000 960.000000"
 preserveAspectRatio="xMidYMid meet">
<metadata>
Created by potrace 1.16, written by Peter Selinger 2001-2019
</metadata>
<g transform="translate(0.000000,960.000000) scale(0.100000,-0.100000)"
fill="#000000" stroke="none">
<g>
<path d="M6526 8924 c-31 2 -78 -3 -118 -14 -37 -9 -80 -26 -96 -36 -16 -11
-54 -35 -83 -55 -30 -20 -60 -43 -67 -52 -8 -9 -23 -33 -33 -54 -14 -26 -22
-66 -26 -128 -4 -78 -2 -96 16 -137 12 -26 32 -55 44 -63 12 -9 50 -34 84 -56
34 -22 77 -44 95 -50 18 -5 67 -9 108 -9 41 0 92 4 112 9 20 5 51 19 68 32 16
13 47 40 68 59 20 19 44 49 52 65 8 17 21 38 29 48 8 9 16 29 17 45 2 15 6 50
10 78 4 37 2 59 -9 81 -9 16 -14 39 -11 50 4 15 -11 35 -64 82 -39 34 -87 71
-108 81 -20 11 -60 21 -88 24z"/>
</g>
<g>
<path d="M8022 6915 c-294 0 -534 -1 -535 -2 -1 0 -155 -4 -342 -7 -187 -4
-410 -11 -495 -17 -85 -5 -213 -14 -285 -20 -71 -5 -195 -18 -275 -29 -80 -11
-172 -24 -205 -29 -33 -6 -111 -18 -172 -27 -72 -10 -141 -14 -190 -11 -43 3
-98 9 -123 13 -37 5 -48 3 -63 -13 -15 -17 -15 -25 -5 -54 6 -19 26 -53 45
-75 18 -23 39 -41 46 -41 6 1 39 -5 72 -12 36 -8 87 -11 130 -8 38 3 113 13
165 22 52 9 120 20 150 25 30 4 109 16 175 25 66 9 131 19 145 20 14 2 70 7
125 11 55 3 104 9 109 12 5 3 55 7 110 9 56 2 154 8 219 14 65 6 180 12 255
14 75 2 297 6 492 9 195 2 472 7 615 10 154 4 305 2 370 -4 61 -6 151 -17 200
-25 50 -7 126 -22 170 -33 44 -11 114 -29 155 -40 41 -11 102 -27 135 -37 33
-9 94 -27 135 -40 41 -12 106 -32 143 -44 37 -12 78 -19 91 -15 14 3 27 -1 35
-10 8 -9 18 -16 24 -16 5 0 35 -12 66 -27 31 -14 65 -29 76 -33 11 -4 33 -13
48 -19 15 -6 38 -11 51 -11 12 0 26 -3 30 -7 3 -4 23 -13 44 -21 20 -7 55 -18
76 -23 27 -7 41 -7 46 1 4 7 28 4 72 -10 45 -14 71 -28 82 -45 9 -14 24 -25
34 -25 10 0 22 -4 28 -9 5 -5 36 -24 69 -42 33 -17 71 -38 85 -46 14 -7 35
-13 47 -13 12 0 26 -7 30 -15 5 -8 31 -29 58 -47 28 -18 64 -39 82 -48 17 -8
55 -35 85 -60 29 -24 89 -81 133 -125 44 -45 90 -101 103 -126 13 -24 32 -60
42 -79 11 -19 28 -57 40 -85 12 -27 25 -59 29 -70 5 -11 16 -38 24 -60 8 -22
24 -69 36 -105 11 -36 27 -96 36 -135 9 -38 20 -120 24 -180 5 -61 5 -135 0
-165 -4 -30 -12 -80 -18 -112 -5 -31 -15 -76 -22 -100 -6 -23 -17 -56 -24 -73
-7 -16 -16 -41 -20 -55 -4 -14 -38 -88 -76 -165 -37 -77 -80 -160 -95 -185
-14 -25 -43 -69 -63 -98 -20 -30 -40 -61 -46 -70 -5 -9 -33 -48 -62 -88 -29
-39 -58 -78 -65 -86 -7 -7 -24 -29 -38 -48 -13 -19 -63 -80 -111 -135 -48 -55
-143 -154 -211 -220 -68 -66 -147 -138 -177 -160 -29 -22 -67 -51 -83 -65 -17
-14 -45 -37 -62 -51 -17 -14 -55 -42 -83 -62 -29 -21 -74 -52 -100 -70 -27
-18 -88 -58 -138 -88 -49 -31 -124 -74 -165 -95 -41 -22 -77 -41 -80 -44 -3
-3 -48 -26 -100 -51 -52 -26 -129 -63 -170 -82 -41 -19 -95 -44 -120 -55 -25
-11 -94 -41 -155 -66 -60 -26 -128 -56 -151 -66 -22 -10 -94 -39 -160 -65 -65
-25 -128 -49 -139 -54 -11 -5 -33 -14 -48 -20 -16 -6 -57 -21 -90 -32 -34 -11
-75 -26 -92 -34 -16 -7 -149 -52 -295 -99 -146 -48 -278 -93 -295 -100 -16 -8
-43 -18 -60 -24 -16 -6 -48 -13 -70 -17 -22 -4 -45 -11 -50 -15 -6 -5 -33 -16
-60 -26 -28 -9 -68 -21 -90 -25 -22 -4 -80 -18 -130 -31 -49 -14 -100 -30
-113 -37 -13 -7 -74 -26 -135 -42 -62 -17 -137 -34 -167 -39 -30 -4 -111 -20
-180 -34 -69 -15 -132 -29 -140 -33 -8 -3 -26 -6 -40 -8 -14 -1 -79 -11 -145
-23 -66 -12 -163 -29 -215 -38 -52 -9 -129 -22 -170 -29 -41 -7 -91 -16 -110
-20 -19 -4 -52 -9 -72 -11 -21 -2 -131 -17 -245 -33 -115 -16 -237 -32 -273
-36 -36 -3 -83 -8 -105 -11 -22 -2 -110 -11 -195 -19 -85 -9 -308 -18 -495
-22 -206 -3 -421 -1 -545 6 -113 6 -216 13 -230 15 -14 3 -54 7 -90 10 -36 3
-97 10 -135 16 -39 6 -158 26 -265 46 -107 19 -247 49 -310 66 -63 16 -128 34
-145 39 -16 4 -75 20 -130 35 -55 15 -138 40 -185 56 -46 16 -98 30 -115 30
-16 0 -39 6 -50 12 -11 7 -74 32 -140 56 -66 23 -181 67 -255 97 -74 30 -169
71 -210 90 -41 19 -82 38 -90 43 -8 5 -71 42 -140 83 -69 41 -175 115 -237
165 -61 50 -135 115 -165 144 -29 29 -80 90 -113 136 -33 46 -71 102 -84 125
-12 23 -31 58 -41 77 -10 19 -30 61 -44 94 -14 32 -26 67 -26 77 0 10 -4 21
-10 24 -5 3 -10 16 -10 29 0 12 -5 27 -12 34 -7 7 -9 12 -5 12 3 0 2 12 -4 28
-6 15 -13 43 -16 62 -2 19 -9 51 -14 70 -6 19 -13 92 -16 161 -4 83 -1 150 7
195 7 38 21 92 32 119 11 28 28 68 38 90 9 22 30 67 45 100 16 33 32 62 35 65
4 3 14 19 23 35 8 17 25 39 37 50 12 11 41 49 65 85 23 36 78 103 121 149 43
46 113 113 156 150 42 36 107 89 145 116 37 28 72 56 76 63 4 6 13 12 18 12 6
0 48 24 92 54 45 29 108 70 139 90 31 20 61 36 66 36 5 0 15 6 21 14 7 8 25
18 41 21 16 3 34 13 41 21 7 9 45 31 84 49 39 19 82 39 95 45 14 6 35 16 46
23 12 7 28 18 35 24 8 5 39 18 69 28 30 10 57 21 60 24 3 4 30 17 60 30 30 13
114 48 185 78 72 30 159 66 195 79 36 14 99 37 140 50 41 14 84 29 95 33 11 5
70 25 130 45 61 21 173 55 250 77 77 21 176 47 220 58 44 11 125 30 180 42 55
12 134 31 175 42 41 11 97 23 125 28 27 5 61 13 75 18 14 5 48 13 75 17 28 4
57 9 65 12 8 2 33 6 55 9 22 3 44 9 50 14 5 5 21 9 36 9 15 0 39 4 54 10 14 5
55 12 91 15 36 3 97 12 136 20 38 9 74 17 78 20 4 2 31 7 61 10 30 4 92 11
139 17 47 5 109 14 138 20 28 5 52 12 52 16 0 4 35 8 78 8 42 1 120 7 172 14
52 7 103 14 113 16 9 1 20 5 25 8 4 2 61 9 127 15 66 7 154 16 195 22 41 5 93
14 115 20 22 5 60 11 85 14 25 2 70 9 100 14 30 6 84 13 120 16 36 2 93 7 128
11 34 3 65 10 68 15 3 5 20 9 39 9 19 0 46 5 62 11 15 6 42 13 58 15 17 3 55
6 85 8 30 3 84 6 119 9 36 2 66 10 71 17 5 8 19 11 39 7 16 -4 33 -3 35 2 3 5
32 12 63 17 32 4 69 7 81 6 13 -2 30 2 37 8 10 8 19 8 34 1 13 -7 22 -8 26 -1
3 5 28 10 54 10 26 0 51 3 55 7 4 4 33 9 64 10 31 2 69 5 84 7 14 2 39 7 55
10 15 4 56 7 91 8 35 1 65 5 68 10 3 4 14 2 24 -5 15 -8 25 -9 38 -1 9 6 40
11 67 13 28 1 54 7 60 12 6 6 5 13 -5 20 -9 6 -48 7 -96 4 -45 -4 -111 -6
-145 -6 -35 0 -88 -6 -117 -15 -29 -8 -58 -14 -65 -12 -7 1 -43 -2 -82 -7 -38
-5 -79 -10 -90 -11 -11 -2 -38 -5 -60 -7 -22 -3 -67 -8 -100 -12 -33 -4 -69
-9 -80 -12 -11 -2 -27 -6 -35 -8 -8 -2 -19 -4 -23 -4 -5 -1 -6 -4 -4 -8 3 -5
-18 -8 -46 -9 -29 0 -74 -3 -102 -7 -27 -4 -69 -10 -93 -13 -27 -3 -49 -1 -58
7 -11 9 -18 9 -26 1 -7 -7 -24 -12 -38 -12 -14 0 -31 -5 -36 -10 -6 -6 -28
-12 -50 -14 -21 -3 -77 -10 -124 -16 -47 -6 -123 -15 -170 -21 -47 -5 -125
-16 -175 -23 -49 -8 -97 -15 -105 -15 -8 -1 -66 -4 -128 -9 -104 -6 -112 -6
-112 11 0 17 -8 18 -92 13 -51 -3 -117 -8 -145 -12 -33 -4 -58 -2 -66 4 -7 6
-33 9 -59 8 -29 -2 -54 -11 -67 -23 -16 -15 -42 -22 -94 -27 -55 -5 -74 -3
-82 7 -5 8 -24 14 -42 14 -25 0 -33 -5 -35 -21 -2 -17 -13 -22 -48 -28 -25 -3
-73 -7 -108 -9 -34 -1 -65 -6 -68 -11 -3 -4 -27 -8 -53 -8 -26 0 -52 -5 -58
-11 -8 -8 -19 -6 -40 5 -24 12 -33 12 -43 3 -10 -9 -11 -9 -6 1 6 9 1 11 -16
8 -12 -3 -52 -9 -88 -15 -36 -5 -92 -13 -124 -16 -33 -3 -66 -11 -74 -17 -8
-7 -30 -11 -49 -9 -19 1 -40 -2 -46 -8 -7 -5 -22 -10 -32 -10 -11 0 -42 -5
-70 -11 -27 -6 -72 -15 -100 -20 -27 -4 -68 -11 -90 -15 -22 -4 -46 -12 -52
-18 -7 -5 -19 -7 -28 -4 -8 4 -17 2 -20 -3 -4 -6 -17 -10 -30 -10 -13 0 -26
-4 -29 -9 -3 -5 -36 -12 -73 -16 -38 -3 -93 -14 -123 -22 -30 -9 -63 -21 -74
-29 -10 -7 -25 -10 -33 -7 -8 3 -27 -6 -42 -21 -24 -23 -32 -25 -55 -16 -21 8
-34 6 -63 -10 -20 -11 -57 -22 -82 -26 -25 -3 -83 -17 -129 -31 -60 -18 -87
-31 -98 -49 -14 -21 -22 -23 -50 -18 -23 4 -51 0 -87 -14 -28 -11 -71 -25 -94
-31 -24 -7 -55 -24 -70 -39 -15 -15 -34 -27 -43 -27 -8 -1 -34 -4 -57 -9 -25
-4 -43 -13 -43 -21 0 -7 -18 -20 -40 -29 -22 -9 -51 -16 -64 -16 -13 0 -38 -5
-57 -11 -19 -7 -41 -18 -50 -25 -8 -8 -23 -14 -33 -14 -9 0 -45 -13 -80 -29
-34 -17 -74 -33 -89 -36 -15 -4 -27 -11 -27 -16 0 -5 -7 -9 -15 -9 -8 0 -36
-12 -62 -26 -26 -15 -57 -34 -68 -44 -11 -10 -34 -21 -50 -24 -17 -4 -75 -34
-129 -66 -54 -33 -101 -60 -104 -60 -3 0 -38 -19 -76 -42 -39 -23 -87 -54
-106 -68 -19 -14 -36 -28 -38 -32 -2 -5 -9 -8 -16 -8 -7 0 -25 -11 -39 -24
-14 -13 -28 -22 -30 -20 -2 2 -31 -21 -64 -51 -34 -30 -64 -55 -68 -55 -3 0
-49 -43 -102 -95 -52 -52 -99 -95 -104 -95 -4 0 -14 -10 -20 -22 -7 -13 -40
-54 -74 -93 -33 -38 -76 -95 -95 -125 -18 -30 -48 -78 -67 -107 -18 -28 -42
-73 -54 -100 -12 -26 -34 -88 -51 -137 -16 -49 -34 -127 -40 -175 -6 -47 -8
-126 -4 -176 3 -49 10 -117 15 -150 5 -33 14 -103 21 -155 6 -52 18 -120 26
-150 9 -30 19 -64 24 -75 5 -11 21 -58 35 -105 15 -47 43 -118 62 -159 19 -40
38 -83 43 -95 5 -11 22 -42 37 -67 15 -26 50 -75 77 -110 27 -35 90 -104 140
-154 50 -49 111 -107 134 -128 24 -20 46 -37 48 -37 3 0 21 -12 41 -27 20 -16
52 -38 72 -50 20 -12 52 -31 71 -43 19 -11 49 -29 65 -40 17 -11 59 -34 95
-51 36 -18 76 -40 90 -49 14 -9 45 -22 70 -30 25 -7 50 -17 56 -22 6 -4 53
-25 105 -46 52 -22 119 -47 149 -57 30 -9 70 -23 88 -32 18 -8 97 -35 175 -60
78 -25 169 -51 202 -59 33 -7 85 -22 115 -32 30 -10 80 -24 110 -31 30 -7 64
-16 75 -21 11 -5 61 -18 110 -29 50 -11 117 -25 150 -31 33 -6 75 -16 93 -21
18 -6 74 -17 125 -24 51 -7 124 -18 162 -24 39 -6 142 -18 230 -28 122 -13
254 -17 555 -17 217 -1 438 3 490 7 52 4 155 12 230 17 74 5 153 11 175 14 22
2 90 9 152 15 62 6 118 13 125 16 7 2 47 9 88 15 41 5 98 14 125 20 28 6 73
13 100 15 28 3 79 9 115 15 36 6 90 13 120 16 30 2 64 7 75 10 11 3 74 14 140
25 66 11 162 27 212 35 51 8 105 19 120 25 16 6 48 13 73 15 25 2 56 5 70 8
14 2 68 16 120 29 52 13 118 28 145 33 28 4 55 9 60 9 6 1 24 5 40 9 17 4 40
12 52 18 11 6 26 7 32 4 5 -4 18 -2 28 3 10 6 61 22 113 36 52 14 110 30 128
35 17 6 48 15 67 20 19 6 50 14 68 19 17 5 46 14 62 20 17 5 77 25 135 44 58
19 121 40 140 47 19 7 43 17 53 22 10 5 21 6 26 4 4 -3 57 11 116 30 60 20
136 48 169 63 34 16 81 33 106 40 25 7 59 17 75 22 17 6 46 15 65 20 19 6 49
17 67 25 17 8 36 14 41 14 6 0 32 11 59 23 26 13 64 29 83 36 19 7 49 17 65
23 17 6 48 18 70 28 22 10 51 22 65 25 14 4 45 16 70 27 25 11 71 33 103 49
32 16 63 29 68 29 5 0 39 14 76 31 38 17 105 48 150 70 45 21 86 39 92 39 5 0
11 3 13 8 2 4 22 17 45 30 23 12 48 22 56 22 8 0 45 20 81 45 37 25 76 45 86
45 9 0 23 7 30 15 7 8 20 15 29 15 9 0 52 27 96 60 44 33 84 60 88 60 5 0 16
9 25 20 10 10 23 20 31 22 8 2 22 10 31 18 10 8 41 31 69 50 29 19 80 57 114
84 34 27 76 63 92 81 17 17 35 34 42 36 6 2 79 69 162 149 83 80 165 165 183
190 18 25 55 72 83 105 28 33 83 103 121 155 39 52 84 117 102 143 18 26 32
51 32 54 0 4 9 16 19 27 11 12 38 57 61 101 24 44 49 87 56 96 8 8 14 19 14
24 0 5 9 29 21 54 11 25 26 57 33 71 7 14 25 66 40 115 15 50 31 104 36 120 5
17 16 72 26 124 12 68 15 122 11 195 -3 56 -19 165 -36 243 -20 93 -49 191
-86 285 -31 79 -70 172 -87 208 -17 36 -36 76 -43 90 -6 14 -24 47 -39 74 -16
27 -41 69 -57 95 -16 25 -53 73 -82 107 -29 33 -78 81 -109 105 -32 24 -68 52
-80 63 -13 10 -41 30 -63 44 -22 15 -58 37 -80 50 -22 12 -64 34 -93 48 -29
13 -65 33 -80 44 -15 10 -70 35 -122 56 -52 20 -106 42 -120 49 -14 7 -43 18
-65 25 -22 7 -44 16 -50 20 -5 4 -50 20 -100 35 -49 15 -162 52 -250 82 -88
30 -225 76 -305 102 -80 26 -190 62 -245 78 -55 17 -131 39 -170 47 -38 9 -95
23 -125 31 -30 8 -104 22 -165 32 -96 16 -177 18 -643 18z m-2700 -945 c45 0
79 -2 76 -5 -2 -3 -20 -7 -39 -10 -19 -3 -47 -7 -64 -10 -16 -2 -55 -7 -85
-10 -30 -4 -71 -8 -90 -10 -19 -1 -50 -1 -69 2 -27 5 -30 7 -17 15 9 5 57 9
106 9 49 0 92 5 95 10 4 5 43 9 87 9z"/>
</g>
<g>
<path d="M8157 6639 c-23 0 -53 -5 -66 -10 -21 -8 -23 -14 -18 -51 3 -22 12
-47 20 -55 8 -8 33 -17 55 -20 36 -5 44 -2 66 23 14 16 26 36 26 45 0 9 -9 28
-21 43 -16 21 -29 26 -62 25z"/>
</g>
<g>
<path d="M7558 6299 c-7 -1 -22 -3 -33 -6 -11 -3 -24 -9 -29 -14 -6 -6 -2 -9
10 -9 10 0 29 3 42 6 12 4 22 10 22 15 0 5 -6 8 -12 8z"/>
</g>
<g>
<path d="M7350 6280 c-5 0 -10 -4 -10 -10 0 -5 5 -10 10 -10 6 0 10 5 10 10 0
6 -4 10 -10 10z"/>
</g>
<g>
<path d="M7390 6280 c-11 0 -20 -4 -20 -10 0 -5 9 -10 20 -10 11 0 20 5 20 10
0 6 -9 10 -20 10z"/>
</g>
<g>
<path d="M7136 6250 c-14 0 -26 -4 -26 -10 0 -5 9 -10 19 -10 11 0 23 5 26 10
4 6 -5 10 -19 10z"/>
</g>
<g>
<path d="M6975 6230 c-8 0 -17 -4 -20 -10 -4 -6 5 -10 20 -10 15 0 24 4 20 10
-3 6 -12 10 -20 10z"/>
</g>
<g>
<path d="M6920 6220 c-11 0 -20 -4 -20 -10 0 -5 9 -10 20 -10 11 0 20 5 20 10
0 6 -9 10 -20 10z"/>
</g>
<g>
<path d="M6738 6194 c-1 2 -31 -2 -66 -9 -34 -6 -64 -10 -66 -7 -3 2 -31 -2
-63 -8 -32 -7 -62 -15 -67 -17 -4 -3 -3 -9 3 -13 7 -3 67 3 135 14 67 12 124
25 125 29 1 5 1 10 -1 11z"/>
</g>
<g>
<path d="M6796 6200 c-14 0 -28 -4 -31 -10 -3 -6 5 -10 19 -10 14 0 28 5 31
10 3 6 -5 10 -19 10z"/>
</g>
<g>
<path d="M3479 6175 c-19 3 -44 0 -56 -5 -14 -6 -24 -21 -29 -45 -4 -21 -1
-47 6 -65 7 -16 23 -36 36 -45 13 -8 39 -15 59 -15 19 0 35 3 35 8 0 4 10 12
23 17 13 6 23 20 25 36 2 14 -2 37 -7 52 -6 14 -21 33 -34 42 -14 9 -40 18
-58 20z"/>
</g>
<g>
<path d="M6418 6149 c-7 -1 -21 -3 -30 -6 -10 -2 -18 -9 -18 -14 0 -6 12 -9
27 -7 14 2 28 9 31 16 2 6 -2 11 -10 11z"/>
</g>
<g>
<path d="M6288 6128 c-13 -1 -36 -5 -53 -9 -16 -4 -64 -7 -105 -8 -42 0 -80
-5 -86 -11 -5 -5 -56 -12 -113 -15 -56 -3 -114 -11 -129 -16 -15 -6 -64 -13
-110 -16 -45 -3 -85 -10 -88 -15 -3 -4 2 -11 10 -14 9 -3 56 -1 104 5 48 6
103 13 122 16 19 3 51 8 70 12 19 4 46 8 60 9 14 1 84 9 155 18 72 9 142 19
158 22 15 3 27 10 27 15 0 5 -10 8 -22 7z"/>
</g>
<g>
<path d="M4842 5989 c-9 0 -28 -5 -42 -12 l-25 -11 33 -4 c19 -2 41 -1 49 2 8
3 11 10 8 16 -3 5 -14 10 -23 9z"/>
</g>
<g>
<path d="M6485 5800 c-7 0 -15 -17 -17 -37 -3 -21 -1 -45 5 -53 5 -8 26 -28
47 -45 21 -16 90 -75 152 -130 62 -55 151 -132 198 -171 47 -39 119 -104 161
-145 42 -41 115 -108 164 -149 48 -41 131 -113 184 -160 53 -47 112 -97 131
-111 l35 -27 -75 -78 c-41 -44 -80 -80 -86 -82 -6 -2 -16 -13 -22 -26 -7 -17
-7 -30 2 -47 6 -13 21 -25 32 -27 15 -2 53 30 137 114 64 64 117 120 117 125
0 5 -4 9 -10 9 -5 0 -10 11 -10 24 0 19 -26 46 -112 119 -62 52 -147 123 -188
157 -41 35 -109 95 -152 134 -42 39 -116 108 -165 153 -48 45 -126 114 -173
154 -47 39 -110 95 -141 123 -31 28 -72 65 -90 81 -19 17 -51 45 -73 63 -21
17 -44 32 -51 32z"/>
</g>
<g>
<path d="M8686 4019 c-17 -1 -47 -5 -66 -9 -19 -4 -48 -13 -65 -19 -16 -6 -77
-24 -135 -41 -58 -17 -125 -38 -150 -47 -24 -9 -54 -17 -66 -19 -12 -1 -33 -5
-46 -9 -12 -4 -36 -13 -53 -20 -16 -7 -50 -18 -75 -24 -25 -7 -65 -22 -90 -33
-25 -12 -57 -27 -72 -35 -14 -7 -34 -13 -43 -13 -9 0 -26 -5 -38 -12 -12 -7
-26 -13 -32 -15 -5 -1 -28 -5 -50 -9 -22 -4 -47 -12 -55 -19 -8 -7 -33 -18
-55 -25 -22 -7 -53 -15 -68 -16 -16 -2 -41 -10 -55 -18 -15 -8 -61 -25 -102
-36 -41 -12 -120 -37 -175 -55 -55 -18 -120 -38 -145 -44 -25 -7 -52 -13 -60
-15 -8 -1 -40 -10 -70 -20 -30 -10 -62 -20 -70 -23 -8 -3 -19 -7 -25 -9 -5 -2
-39 -10 -75 -19 -36 -8 -73 -20 -82 -25 -10 -6 -27 -10 -37 -10 -11 0 -23 -5
-26 -11 -4 -6 -14 -8 -22 -5 -8 3 -60 -14 -116 -38 -56 -24 -127 -49 -158 -56
-31 -6 -64 -19 -72 -28 -9 -9 -18 -30 -21 -45 -3 -19 0 -30 12 -36 12 -6 38
-2 82 13 36 13 74 26 85 30 11 5 31 13 45 18 14 6 34 14 45 18 11 4 31 12 45
18 14 5 45 16 70 23 25 7 49 16 54 21 6 4 18 8 28 8 11 0 47 9 81 19 34 10 94
28 132 40 39 11 104 30 145 42 41 13 86 24 100 26 14 2 48 10 75 18 28 8 79
24 115 36 36 12 78 28 95 36 16 8 48 21 70 28 22 7 56 16 75 20 19 4 41 11 50
16 8 5 53 22 100 40 47 17 110 40 140 51 30 11 64 24 75 28 11 5 54 21 95 36
41 14 102 33 135 41 33 8 90 23 126 34 37 11 75 22 85 24 11 2 42 11 69 19 28
8 75 24 105 35 30 11 67 20 82 21 15 0 38 4 53 10 14 5 30 21 35 35 5 14 7 32
4 40 -4 9 -18 15 -38 14z"/>
</g>
</g>
</svg>
