<?xml version="1.0" standalone="no"?>
<!DOCTYPE svg PUBLIC "-//W3C//DTD SVG 20010904//EN"
 "http://www.w3.org/TR/2001/REC-SVG-20010904/DTD/svg10.dtd">
<svg version="1.0" xmlns="http://www.w3.org/2000/svg"
 width="1200.000000pt" height="960.000000pt" viewBox="0 0 1200.000000 960.000000"
 preserveAspectRatio="xMidYMid meet">
<metadata>
Created by potrace 1.16, written by Peter Selinger 2001-2019
</metadata>
<g transform="translate(0.000000,960.000000) scale(0.100000,-0.100000)"
fill="#000000" stroke="none">
<g>
<path d="M3884 8930 c-22 0 -43 -3 -47 -6 -3 -3 -32 -11 -64 -18 -56 -11 -58
-12 -61 -44 -2 -18 2 -40 8 -48 7 -7 16 -12 20 -9 4 3 25 7 46 10 22 2 59 7
84 11 25 3 57 11 73 17 18 8 27 19 27 34 0 12 -10 29 -22 37 -12 9 -41 16 -64
16z"/>
</g>
<g>
<path d="M4232 8900 c-10 0 -22 -3 -25 -7 -4 -3 -7 -16 -7 -29 0 -15 12 -30
34 -43 18 -12 49 -24 67 -27 19 -4 45 -13 58 -21 18 -12 29 -13 48 -4 13 6 33
11 43 11 11 0 20 4 20 8 0 5 -49 32 -109 60 -60 29 -118 52 -129 52z"/>
</g>
<g>
<path d="M3360 8803 c-14 2 -37 2 -52 0 -16 -2 -28 -9 -28 -15 0 -7 -6 -6 -15
2 -8 7 -29 10 -47 7 -18 -2 -49 -10 -68 -17 -19 -7 -41 -14 -47 -16 -7 -2 -13
-16 -13 -32 0 -16 7 -35 15 -42 10 -8 28 -10 53 -5 20 4 66 9 101 11 36 2 71
10 80 18 9 8 25 16 36 18 11 2 21 12 23 23 1 11 -1 25 -6 32 -4 6 -18 13 -32
16z"/>
</g>
<g>
<path d="M4195 8780 c-8 0 -17 -6 -21 -12 -5 -7 -7 -58 -6 -113 2 -55 5 -116
8 -135 3 -19 13 -43 21 -52 12 -13 19 -15 29 -7 10 8 12 38 8 127 -3 65 -10
134 -15 155 -6 21 -16 37 -24 37z"/>
</g>
<g>
<path d="M4611 8770 c-11 0 -21 -9 -25 -22 -4 -17 2 -29 22 -45 15 -12 32 -22
38 -23 7 0 32 -11 55 -25 24 -14 58 -25 76 -25 17 0 34 4 37 9 3 4 20 11 37
15 18 3 29 11 27 18 -2 6 -18 16 -34 21 -16 5 -42 10 -58 13 -16 2 -58 17 -93
34 -34 16 -72 30 -82 30z"/>
</g>
<g>
<path d="M2944 8634 c-8 3 -17 -1 -19 -9 -3 -8 -7 -23 -10 -32 -3 -9 -1 -91 6
-182 6 -91 15 -176 20 -189 8 -20 12 -21 30 -11 20 10 21 16 15 107 -4 54 -9
129 -12 167 -2 39 -7 87 -10 107 -3 20 -12 39 -20 42z"/>
</g>
<g>
<path d="M3085 8620 c-14 0 -28 -7 -32 -15 -3 -9 3 -22 13 -31 11 -8 33 -22
51 -30 18 -7 54 -14 81 -14 27 0 52 3 55 7 4 3 0 15 -10 25 -9 10 -25 18 -35
18 -10 0 -36 9 -58 20 -22 11 -51 20 -65 20z"/>
</g>
<g>
<path d="M5078 8620 c-26 0 -29 -3 -26 -27 2 -22 15 -33 66 -59 34 -18 73 -39
86 -47 13 -9 38 -14 60 -12 21 2 41 6 44 10 4 3 2 14 -4 23 -6 9 -28 23 -49
30 -20 7 -51 22 -68 35 -18 12 -42 28 -56 35 -13 6 -37 12 -53 12z"/>
</g>
<g>
<path d="M3364 8480 c-7 0 -15 -7 -18 -16 -3 -8 1 -26 9 -38 10 -15 30 -26 55
-30 22 -3 57 -14 77 -22 21 -9 49 -21 63 -27 14 -5 37 -16 52 -23 14 -8 40
-14 56 -14 17 0 33 3 35 8 3 4 1 17 -4 30 -5 12 -15 22 -22 22 -8 0 -47 14
-88 31 -41 17 -103 42 -139 55 -36 13 -70 24 -76 24z"/>
</g>
<g>
<path d="M5571 8418 c-114 4 -131 3 -131 -11 0 -9 4 -27 10 -41 9 -25 11 -26
108 -26 55 0 113 -5 131 -11 27 -9 31 -16 32 -47 1 -21 0 -49 -1 -64 -1 -15 4
-36 10 -47 6 -12 17 -21 25 -21 8 0 19 9 25 20 6 11 8 38 4 62 -4 24 -13 55
-21 71 -7 15 -17 27 -21 27 -4 0 -8 12 -9 26 0 15 -8 33 -16 42 -12 12 -47 16
-146 20z"/>
</g>
<g>
<path d="M5402 8329 c-4 0 -39 -13 -79 -28 -40 -15 -92 -42 -117 -60 -24 -18
-46 -42 -49 -52 -3 -10 3 -25 12 -33 10 -9 26 -16 37 -16 10 0 38 14 62 30 24
16 68 36 98 45 42 12 57 22 65 42 7 19 6 32 -6 49 -8 13 -19 24 -23 23z"/>
</g>
<g>
<path d="M3869 8302 c-15 19 -15 19 -27 -6 -8 -18 -8 -32 1 -55 7 -21 23 -35
51 -46 23 -10 59 -26 82 -36 23 -10 47 -19 55 -19 8 0 20 4 27 9 10 6 7 15
-14 40 -14 17 -56 45 -93 62 -36 17 -73 40 -82 51z"/>
</g>
<g>
<path d="M6200 8219 c-8 -1 -35 -7 -60 -13 -25 -7 -57 -17 -72 -23 -14 -7 -29
-17 -33 -23 -4 -7 -11 -8 -18 -1 -8 5 -32 5 -67 -1 -30 -5 -69 -11 -86 -13
-18 -2 -58 -12 -90 -23 -33 -11 -84 -25 -114 -31 -30 -6 -86 -16 -125 -22 -38
-6 -101 -20 -140 -31 -38 -11 -89 -29 -113 -39 -23 -11 -57 -22 -75 -26 -17
-3 -37 -10 -43 -15 -7 -4 -29 -11 -50 -13 -22 -3 -61 -10 -89 -16 -30 -6 -59
-20 -72 -34 -17 -20 -22 -21 -27 -9 -3 9 -11 14 -18 12 -6 -2 -17 -33 -25 -69
-10 -48 -12 -137 -9 -359 3 -162 7 -342 10 -400 3 -58 10 -161 16 -230 6 -69
18 -180 26 -248 8 -67 17 -182 20 -255 3 -72 7 -143 10 -157 3 -14 7 -56 8
-95 1 -38 5 -126 9 -195 4 -69 10 -147 12 -175 3 -27 7 -138 10 -245 2 -107 8
-238 11 -290 4 -52 8 -171 9 -265 1 -93 10 -260 19 -370 8 -110 18 -299 21
-420 3 -121 8 -240 10 -265 3 -25 8 -92 10 -150 3 -58 6 -112 6 -120 1 -8 5
-67 9 -130 5 -63 10 -189 11 -280 2 -113 7 -173 16 -191 11 -23 22 -28 66 -34
29 -4 71 -13 93 -20 23 -8 77 -31 120 -52 44 -21 81 -40 84 -43 3 -3 14 -11
25 -18 11 -7 38 -21 60 -31 22 -10 46 -26 54 -35 7 -9 19 -16 26 -16 6 0 41
-14 76 -31 35 -18 73 -40 84 -50 11 -9 61 -38 110 -62 50 -25 119 -60 155 -77
36 -17 97 -48 135 -70 39 -22 85 -46 104 -54 18 -9 37 -14 41 -11 4 3 14 -2
21 -11 7 -9 34 -26 61 -40 26 -13 54 -24 61 -24 8 0 20 -7 27 -15 7 -8 24 -21
39 -28 14 -7 35 -18 46 -24 11 -5 32 -16 46 -24 14 -8 53 -32 86 -54 33 -22
79 -51 102 -65 24 -14 57 -37 75 -51 17 -14 46 -31 64 -39 18 -7 37 -21 43
-31 5 -11 15 -19 22 -19 7 0 31 -13 53 -29 21 -15 54 -33 73 -40 19 -6 37 -11
41 -11 4 0 10 9 13 19 2 10 22 27 43 36 22 9 48 22 59 28 11 6 53 28 94 49 41
21 80 38 86 38 6 0 22 8 35 18 14 9 40 22 57 28 31 11 32 10 28 -10 -3 -11 -7
-56 -8 -99 -3 -65 0 -82 17 -107 13 -19 30 -30 45 -30 l24 0 -7 118 c-4 64 -8
126 -9 137 -1 14 10 26 43 42 25 12 81 40 125 61 44 21 89 44 100 50 11 6 41
20 67 32 26 11 53 20 61 20 8 0 25 8 38 18 13 9 40 24 59 34 19 9 42 18 51 21
10 3 18 22 23 54 3 26 11 71 16 98 5 28 12 187 15 355 3 180 12 362 22 445 9
77 18 205 19 285 1 80 7 177 13 215 6 39 12 201 15 360 2 160 0 358 -5 440 -5
83 -14 310 -20 505 -6 195 -12 362 -12 370 0 8 3 157 7 330 4 173 8 335 11
360 2 25 10 90 16 145 7 64 9 171 5 300 -4 110 -9 252 -12 315 -2 63 -6 194
-8 291 -2 97 -6 181 -9 187 -4 5 -10 42 -13 81 -4 39 -11 71 -15 71 -5 0 -9 7
-9 16 0 10 -8 15 -22 13 -13 -1 -32 1 -43 5 -11 4 -38 16 -60 27 -22 10 -44
19 -48 19 -5 0 -34 12 -65 26 -31 14 -70 32 -87 39 -16 7 -57 22 -90 33 -33
10 -112 32 -175 47 -63 15 -167 43 -230 62 -63 19 -167 48 -230 65 -63 16
-149 37 -190 47 -41 9 -80 20 -86 23 -6 4 -55 16 -110 27 -54 11 -148 29 -209
41 -60 12 -123 28 -140 35 -16 8 -55 21 -86 29 -32 8 -90 28 -130 45 -41 17
-80 30 -89 30z m-5 -106 c11 -3 51 -18 89 -34 37 -16 76 -29 87 -29 10 0 31
-5 46 -11 15 -6 37 -15 48 -20 11 -5 31 -10 45 -12 14 -1 30 -6 36 -9 6 -4 42
-12 80 -18 38 -6 83 -15 99 -20 17 -5 46 -12 65 -15 19 -4 62 -11 95 -15 33
-5 80 -14 105 -20 25 -7 61 -19 80 -26 19 -8 55 -16 80 -19 25 -2 65 -9 90
-15 25 -7 59 -18 75 -25 17 -7 48 -18 70 -25 22 -7 47 -16 56 -21 9 -4 34 -11
55 -15 22 -5 43 -7 48 -6 4 2 14 -2 20 -7 7 -6 30 -13 52 -15 21 -3 59 -12 83
-21 24 -8 52 -15 62 -15 11 0 27 -4 37 -9 9 -5 52 -23 94 -40 42 -17 84 -31
93 -31 9 0 28 -9 42 -20 14 -11 32 -20 39 -20 8 0 14 -4 14 -9 0 -5 -15 -12
-32 -15 -18 -3 -55 -8 -83 -10 -27 -2 -81 -10 -120 -16 -38 -7 -74 -13 -80
-14 -5 -2 -31 -6 -58 -11 -26 -4 -50 -11 -53 -16 -3 -5 -19 -9 -37 -9 -17 0
-49 -6 -72 -14 -22 -8 -92 -26 -155 -41 -63 -14 -150 -37 -193 -51 -54 -17
-83 -22 -91 -15 -8 7 -22 4 -45 -10 -19 -11 -37 -16 -40 -11 -3 5 -35 12 -71
16 -37 3 -137 30 -230 61 -91 31 -187 66 -215 79 -27 12 -70 28 -95 35 -25 7
-61 19 -80 26 -19 8 -53 19 -75 26 -22 6 -62 24 -90 38 -27 15 -105 46 -173
69 -67 23 -136 42 -153 42 -17 0 -51 6 -77 14 -26 8 -94 24 -152 35 -58 11
-152 30 -210 42 -58 12 -123 25 -145 28 -22 4 -49 12 -59 18 -18 10 -15 12 25
23 24 6 57 18 72 26 16 7 99 28 185 44 86 17 184 37 217 45 33 7 96 23 140 35
44 12 103 26 130 31 28 5 70 12 94 15 24 3 60 12 80 19 20 7 45 11 56 8z
m-1216 -293 c15 0 53 -7 84 -15 32 -8 75 -15 96 -15 20 0 46 -7 57 -15 10 -8
31 -15 46 -15 15 0 38 -4 51 -9 13 -5 39 -12 58 -15 19 -4 73 -13 121 -21 48
-7 91 -16 95 -18 5 -3 28 -8 52 -12 24 -3 54 -11 68 -16 14 -5 42 -12 62 -15
20 -3 50 -9 66 -15 17 -5 84 -27 150 -50 66 -22 145 -52 175 -66 30 -14 67
-31 81 -39 14 -7 56 -23 95 -34 38 -12 87 -29 109 -37 22 -9 56 -23 75 -31 19
-8 73 -28 120 -44 47 -16 108 -36 135 -43 28 -8 62 -15 76 -15 15 0 40 -7 55
-15 16 -8 37 -15 47 -15 11 0 17 -8 17 -21 0 -18 5 -20 26 -16 l26 5 -7 -97
c-4 -53 -9 -251 -11 -441 -2 -190 -4 -370 -4 -400 -1 -30 0 -210 0 -400 0
-190 5 -417 10 -505 5 -88 12 -249 15 -357 3 -109 10 -230 15 -270 6 -40 12
-102 14 -138 2 -36 7 -96 10 -135 3 -38 8 -108 11 -155 3 -47 13 -168 21 -270
8 -102 19 -225 24 -275 5 -49 12 -144 15 -210 3 -66 7 -149 10 -185 2 -36 4
-96 5 -135 1 -38 -1 -189 -4 -335 -3 -165 -1 -288 5 -325 6 -33 11 -173 12
-310 0 -138 -2 -256 -7 -263 -5 -8 -22 -2 -59 23 -29 18 -66 45 -83 59 -17 14
-42 30 -55 36 -13 5 -52 29 -85 52 -34 24 -74 51 -90 60 -16 10 -51 32 -79 49
-27 18 -77 46 -110 64 -34 19 -97 51 -140 73 -44 22 -125 62 -180 88 -55 26
-121 63 -148 80 -27 18 -63 35 -81 38 -18 4 -41 15 -51 26 -10 11 -23 20 -29
20 -6 0 -47 21 -91 46 -44 25 -114 64 -155 87 -41 22 -118 66 -170 97 -52 32
-106 61 -120 65 -14 4 -39 16 -56 26 -17 10 -60 28 -94 39 -34 11 -71 20 -81
20 -10 0 -20 8 -23 18 -3 9 -10 121 -16 247 -6 127 -13 291 -16 365 -3 74 -9
173 -13 220 -4 47 -9 166 -10 264 -1 99 -4 183 -6 186 -2 4 -7 56 -10 116 -3
60 -7 138 -10 174 -2 36 -8 142 -12 235 -3 94 -6 233 -5 310 1 77 -3 232 -8
345 -6 113 -17 279 -25 370 -8 91 -21 255 -29 365 -9 110 -18 229 -20 265 -3
36 -10 121 -16 190 -5 69 -15 168 -20 220 -6 52 -12 176 -15 275 -4 99 -6 257
-6 351 0 94 3 188 6 208 6 31 11 36 34 36z m3239 -321 c6 0 12 -7 13 -16 0
-10 2 -28 3 -41 2 -13 -4 -27 -13 -31 -9 -5 -43 -9 -75 -10 -43 -1 -63 -6 -72
-19 -7 -9 -14 -24 -14 -33 0 -9 7 -22 15 -29 10 -9 35 -11 78 -7 34 3 70 8 79
12 14 5 17 -2 22 -47 3 -29 8 -105 11 -168 2 -63 8 -180 12 -260 5 -80 8 -176
8 -215 0 -38 -4 -135 -9 -215 -4 -80 -9 -174 -10 -210 -1 -36 -6 -207 -11
-380 -5 -173 -9 -346 -9 -385 0 -38 3 -135 7 -215 4 -80 10 -246 13 -370 3
-124 5 -391 5 -595 0 -203 -2 -413 -5 -465 -3 -52 -8 -149 -11 -215 -3 -66
-10 -145 -15 -175 -5 -30 -12 -77 -16 -105 -4 -27 -9 -180 -10 -340 -1 -159
-8 -335 -14 -390 -8 -71 -16 -104 -27 -112 -9 -7 -26 -13 -37 -13 -12 0 -32
-9 -46 -20 -14 -11 -31 -20 -39 -20 -8 0 -47 -16 -87 -35 -40 -19 -91 -45
-112 -59 -21 -13 -58 -30 -80 -37 -23 -7 -42 -16 -42 -20 0 -4 -24 -15 -54
-23 -30 -9 -56 -19 -58 -24 -2 -4 -28 -19 -58 -33 -30 -15 -71 -33 -90 -40
-19 -7 -56 -23 -81 -35 -26 -13 -54 -31 -63 -40 -9 -9 -30 -17 -47 -18 l-31
-1 -4 220 c-2 121 -9 276 -15 345 -6 69 -10 186 -8 260 2 74 4 216 4 315 0 99
-4 261 -8 360 -5 99 -15 234 -23 300 -7 66 -20 176 -29 245 -8 69 -15 157 -14
195 0 39 -4 133 -10 210 -6 77 -13 154 -16 170 -2 17 -7 66 -10 110 -3 44 -8
94 -10 110 -2 17 -7 138 -10 270 -4 132 -9 243 -12 248 -2 4 -4 371 -4 814 0
444 3 856 7 915 3 60 12 111 18 116 6 5 29 14 51 21 22 7 63 19 90 27 28 8 93
26 145 40 52 14 102 27 110 29 8 2 56 13 105 24 50 11 117 26 150 35 33 8 111
20 173 26 62 6 125 15 140 21 15 6 52 14 82 18 30 5 61 9 68 10z"/>
<g>
<path d="M5453 7050 c-21 0 -51 -7 -68 -16 -16 -8 -37 -22 -47 -30 -9 -9 -22
-30 -28 -47 -7 -18 -16 -41 -20 -52 -4 -11 -13 -33 -18 -50 -6 -16 -16 -59
-22 -95 -8 -47 -8 -88 0 -150 6 -47 14 -105 19 -130 4 -25 26 -78 48 -118 22
-40 58 -88 79 -106 22 -19 57 -41 78 -50 21 -9 49 -16 61 -16 13 0 31 3 39 6
9 4 32 38 52 78 20 39 42 94 49 121 8 32 12 116 11 235 -1 169 -3 188 -23 225
-12 22 -24 52 -27 66 -3 15 -23 43 -43 64 -21 20 -52 43 -70 51 -18 8 -49 14
-70 14z"/>
</g>
<g>
<path d="M6391 6844 c-3 2 -27 -7 -53 -20 -26 -13 -62 -40 -81 -59 -19 -20
-43 -59 -53 -88 -9 -29 -19 -65 -20 -82 -2 -16 -6 -64 -10 -106 -5 -53 -3 -78
5 -83 6 -4 11 -28 11 -54 0 -26 9 -88 19 -139 13 -65 28 -107 51 -143 18 -28
40 -55 50 -60 10 -5 39 -17 66 -26 31 -10 63 -14 91 -10 30 4 52 15 73 36 17
17 41 52 54 78 13 26 34 88 46 137 17 66 23 120 23 200 1 61 -4 135 -11 164
-6 30 -24 80 -39 110 -22 43 -41 64 -84 93 -30 20 -73 39 -93 42 -21 4 -41 8
-45 10z"/>
</g>
<g>
<path d="M5915 6280 c-7 0 -18 -6 -24 -14 -7 -8 -12 -44 -11 -83 0 -37 -2
-223 -5 -413 -3 -190 -7 -403 -10 -475 -3 -71 -7 -283 -10 -470 -2 -187 -7
-401 -11 -475 -3 -74 -7 -162 -9 -195 -2 -33 -7 -121 -11 -195 -5 -111 -4
-137 7 -147 8 -7 28 -14 44 -17 17 -3 50 1 75 9 25 8 79 18 120 22 l75 8 -3
45 c-2 25 -7 49 -12 54 -4 4 -52 1 -107 -8 -54 -9 -109 -19 -122 -22 l-24 -7
8 99 c4 54 9 106 10 115 2 8 6 89 9 180 3 90 8 247 11 349 2 102 7 289 10 415
3 127 8 447 10 712 3 265 2 489 -1 497 -3 9 -12 16 -19 16z"/>
</g>
<g>
<path d="M5597 3542 c-42 14 -50 14 -62 1 -8 -8 -15 -18 -15 -23 0 -5 10 -20
23 -34 12 -14 63 -46 112 -72 50 -26 108 -56 130 -66 22 -11 47 -24 55 -28 8
-5 38 -20 65 -34 28 -13 75 -35 105 -49 30 -13 80 -37 110 -51 30 -15 82 -42
115 -60 33 -18 87 -47 120 -65 33 -19 85 -48 116 -67 31 -19 64 -34 72 -34 9
0 19 -4 22 -10 3 -5 43 -32 88 -58 45 -27 101 -56 124 -65 35 -14 43 -14 53
-2 6 8 9 23 6 33 -4 11 -23 31 -44 45 -20 13 -84 52 -142 84 -58 33 -170 96
-250 140 -80 44 -152 83 -160 87 -8 3 -42 22 -75 42 -33 19 -73 40 -90 46 -16
6 -102 47 -190 91 -88 44 -178 92 -200 107 -22 15 -62 34 -88 42z"/>
</g>
<g>
<path d="M7807 7299 c-12 -1 -35 -6 -52 -11 -16 -6 -37 -14 -45 -18 -8 -4 -17
-15 -18 -24 -2 -10 4 -26 14 -37 9 -10 29 -19 44 -19 15 0 42 5 61 12 19 6 37
16 41 22 4 6 8 23 8 37 0 15 -7 29 -16 33 -9 3 -25 6 -37 5z"/>
</g>
<g>
<path d="M7466 7200 c-8 0 -19 -7 -26 -15 -7 -9 -10 -25 -5 -42 3 -15 14 -33
23 -40 9 -7 29 -13 44 -13 15 0 30 -5 33 -10 4 -6 21 -16 38 -24 18 -7 49 -16
69 -20 26 -5 47 -2 68 9 20 10 30 23 30 38 0 17 -10 28 -35 40 -20 9 -42 17
-51 17 -8 0 -32 9 -53 20 -21 10 -55 20 -76 22 -20 1 -39 6 -41 10 -3 4 -11 8
-18 8z"/>
</g>
<g>
<path d="M8130 7020 c-45 0 -83 -5 -93 -13 -13 -9 -16 -20 -11 -44 5 -27 11
-32 43 -37 20 -2 52 -5 71 -6 19 -1 49 -2 65 -3 27 -2 30 1 33 31 2 22 -3 41
-14 53 -14 16 -31 19 -94 19z"/>
</g>
<g>
<path d="M7515 6929 c-12 12 -16 10 -26 -12 -9 -20 -10 -69 -3 -197 7 -132 13
-173 24 -180 9 -5 18 -6 24 0 5 5 9 40 10 77 1 37 -3 120 -7 183 -6 74 -13
120 -22 129z"/>
</g>
<g>
<path d="M7551 6390 c-5 0 -14 -6 -20 -14 -6 -7 -14 -42 -16 -77 -3 -35 -8
-109 -11 -164 -3 -55 -5 -111 -6 -124 0 -13 7 -30 16 -39 14 -14 16 -14 22 4
4 10 13 26 20 34 9 11 13 63 15 187 1 94 -2 176 -5 182 -4 6 -11 11 -15 11z"/>
</g>
<g>
<path d="M7565 5770 c-8 0 -17 -5 -20 -11 -4 -6 -9 -46 -11 -90 -2 -44 -8 -89
-14 -99 -5 -10 -10 -29 -10 -41 0 -12 8 -28 18 -35 9 -7 24 -14 33 -14 12 0
18 12 23 43 3 23 5 81 6 129 0 48 -3 94 -6 103 -3 8 -12 15 -19 15z"/>
</g>
<g>
<path d="M7562 5260 c-5 0 -15 -7 -23 -16 -8 -9 -14 -51 -16 -107 -2 -51 -1
-106 2 -124 3 -17 13 -34 23 -38 11 -4 23 2 35 16 11 14 16 31 12 43 -3 12 -8
62 -11 111 -3 50 -7 96 -9 103 -2 6 -8 12 -13 12z"/>
</g>
<g>
<path d="M7575 4730 c-8 0 -18 -12 -22 -27 -3 -16 -7 -89 -7 -163 -1 -128 0
-135 19 -138 16 -2 23 6 33 37 6 23 12 88 12 146 0 59 -5 115 -10 126 -6 10
-17 19 -25 19z"/>
</g>
<g>
<path d="M7590 4247 c-8 2 -21 -1 -28 -5 -7 -5 -15 -32 -17 -61 -2 -29 -6 -55
-9 -58 -3 -4 -6 -39 -6 -78 0 -59 4 -77 22 -100 21 -27 22 -28 38 -8 13 17 16
45 15 164 0 118 -3 144 -15 146z"/>
</g>
<g>
<path d="M7600 3720 c-11 0 -22 -12 -29 -31 -6 -18 -11 -92 -11 -166 0 -101 4
-141 15 -163 9 -17 22 -30 30 -30 7 0 17 6 22 13 4 6 6 91 4 187 -1 96 -5 178
-7 182 -3 4 -13 8 -24 8z"/>
</g>
<g>
<path d="M7618 3100 c-5 0 -11 -8 -14 -17 -3 -10 -10 -27 -16 -38 -6 -11 -10
-63 -9 -120 1 -75 6 -104 18 -117 9 -10 21 -18 27 -18 6 0 17 10 24 21 11 16
12 50 7 143 -4 66 -12 127 -17 134 -6 6 -15 12 -20 12z"/>
</g>
<g>
<path d="M7651 2610 c-9 0 -23 -5 -31 -10 -11 -7 -15 -35 -17 -120 -2 -97 0
-113 17 -130 11 -11 26 -16 39 -13 14 4 21 14 22 32 0 14 0 64 -1 111 -1 47
-4 95 -7 108 -3 12 -13 22 -22 22z"/>
</g>
</g>
<g>
<path d="M4886 8170 c-11 0 -34 -7 -51 -14 -16 -7 -52 -20 -80 -28 -41 -11
-50 -18 -52 -39 -1 -13 7 -35 16 -48 16 -21 21 -22 52 -13 19 6 47 13 62 16
16 3 43 13 60 23 22 13 33 28 35 47 2 15 -2 34 -9 42 -6 8 -21 14 -33 14z"/>
</g>
<g>
<path d="M4323 8094 c-19 6 -23 4 -23 -15 0 -12 9 -37 21 -55 15 -25 30 -35
57 -40 20 -4 43 -11 49 -16 7 -6 24 -7 38 -4 16 4 25 13 25 26 0 11 -9 29 -20
40 -11 11 -27 20 -35 20 -9 0 -32 8 -53 19 -20 10 -47 22 -59 25z"/>
</g>
<g>
<path d="M4229 8088 c-10 2 -19 -6 -22 -18 -3 -12 -3 -74 -1 -138 3 -64 10
-129 16 -144 6 -16 18 -28 28 -28 11 0 20 10 24 25 3 13 1 67 -5 120 -5 53
-13 115 -17 138 -5 26 -13 43 -23 45z"/>
</g>
<g>
<path d="M3007 7960 c-8 0 -20 -11 -27 -25 -10 -19 -12 -56 -7 -157 4 -73 9
-150 12 -172 3 -21 8 -43 11 -47 3 -5 12 -9 19 -9 8 0 19 9 25 20 7 14 6 44
-5 109 -9 50 -15 100 -14 113 1 13 1 56 1 96 -2 52 -6 72 -15 72z"/>
</g>
<g>
<path d="M4570 7910 c-11 0 -21 -3 -23 -7 -3 -5 -2 -55 2 -112 5 -84 9 -106
24 -115 14 -8 20 -8 28 4 6 9 8 52 6 105 -3 50 -8 98 -12 108 -4 9 -15 17 -25
17z"/>
</g>
<g>
<path d="M4304 7620 c-7 0 -18 -9 -24 -21 -8 -14 -9 -67 -4 -171 6 -137 9
-153 30 -177 17 -20 25 -23 34 -15 9 9 9 43 1 140 -6 71 -14 155 -17 187 -4
39 -10 57 -20 57z"/>
</g>
<g>
<path d="M8558 7499 c-39 7 -50 5 -62 -8 -9 -10 -17 -28 -18 -41 -2 -17 4 -28
22 -37 14 -7 39 -13 56 -13 17 0 48 -7 68 -15 20 -9 61 -17 92 -19 41 -3 57 0
61 10 3 8 2 24 -1 37 -3 12 -9 28 -14 34 -4 7 -30 15 -58 18 -27 3 -60 10 -74
15 -14 6 -46 14 -72 19z"/>
</g>
<g>
<path d="M4598 7480 c-4 0 -8 -9 -8 -19 0 -11 -5 -23 -11 -27 -7 -4 -9 -24 -5
-58 4 -28 8 -71 9 -96 1 -32 7 -46 18 -48 10 -2 19 6 23 20 3 13 6 64 6 114 0
57 -4 94 -12 102 -7 7 -16 12 -20 12z"/>
</g>
<g>
<path d="M9003 7394 c-26 6 -34 4 -43 -13 -9 -18 -7 -25 14 -46 14 -14 33 -25
42 -25 10 0 36 -11 58 -24 23 -13 66 -29 98 -36 31 -7 64 -10 73 -6 12 4 15
16 13 43 -3 36 -5 38 -43 41 -22 2 -44 7 -50 12 -5 4 -26 11 -45 15 -19 4 -46
13 -60 20 -14 7 -39 16 -57 19z"/>
</g>
<g>
<path d="M3005 7330 c-10 0 -16 -12 -17 -37 -1 -21 -1 -47 -1 -58 1 -11 4 -51
7 -90 3 -38 8 -90 11 -114 2 -24 6 -45 7 -46 2 -2 13 -5 24 -9 16 -5 23 -2 27
14 3 12 3 47 1 78 -3 31 -12 93 -20 137 -9 44 -18 90 -20 103 -2 12 -11 22
-19 22z"/>
</g>
<g>
<path d="M8618 7310 c-4 0 -8 -7 -8 -15 0 -8 -4 -15 -9 -15 -5 0 -12 -19 -15
-42 -4 -24 -9 -67 -12 -96 -3 -30 -3 -69 0 -88 4 -20 13 -34 21 -34 8 0 15 6
15 14 0 7 7 19 15 26 9 7 12 22 9 38 -2 15 -1 64 4 109 5 54 4 87 -2 93 -5 5
-14 10 -18 10z"/>
</g>
<g>
<path d="M9582 7280 c-4 0 -13 -5 -20 -12 -7 -7 -12 -22 -12 -33 0 -12 11 -32
24 -44 14 -13 31 -21 38 -18 7 2 21 -2 30 -10 9 -9 50 -20 90 -25 40 -5 87
-10 103 -11 28 -2 30 1 31 33 0 19 -4 41 -9 48 -5 6 -27 12 -48 12 -21 0 -62
5 -91 11 -29 6 -70 20 -90 30 -21 11 -41 19 -46 19z"/>
</g>
<g>
<path d="M10108 7135 c-12 5 -18 -1 -23 -24 -3 -17 -3 -36 0 -42 4 -6 49 -31
99 -55 50 -24 105 -44 122 -44 18 0 38 -8 49 -20 10 -11 22 -20 27 -20 5 0 16
6 24 14 8 8 14 26 14 41 0 18 -7 28 -25 35 -14 5 -25 13 -25 18 0 5 -22 12
-48 15 -27 3 -66 14 -88 23 -21 10 -46 23 -54 30 -8 6 -24 14 -35 16 -11 3
-27 9 -37 13z"/>
</g>
<g>
<path d="M4327 7038 c-9 2 -20 -4 -23 -12 -3 -9 -4 -33 -2 -53 3 -21 13 -85
22 -143 10 -58 25 -120 34 -137 9 -18 22 -33 29 -33 7 0 15 11 19 25 3 14 0
55 -6 93 -7 37 -23 110 -34 162 -16 71 -26 96 -39 98z"/>
</g>
<g>
<path d="M4620 6980 c-5 0 -12 -4 -15 -10 -3 -5 -10 -45 -15 -87 -8 -67 -6
-80 8 -95 11 -12 22 -14 31 -9 11 7 14 30 12 97 -1 48 -4 91 -7 95 -3 5 -9 9
-14 9z"/>
</g>
<g>
<path d="M10710 6920 c-11 0 -23 -7 -27 -16 -3 -8 -1 -26 6 -40 6 -13 21 -29
33 -34 13 -6 46 -23 73 -38 28 -16 68 -38 89 -50 26 -14 44 -18 55 -13 9 5 20
9 26 10 5 0 13 14 16 31 4 20 3 33 -5 35 -6 2 -33 9 -61 15 -27 7 -66 25 -85
40 -19 15 -49 34 -67 43 -18 10 -41 17 -53 17z"/>
</g>
<g>
<path d="M8582 6770 c-29 0 -44 -5 -48 -15 -4 -8 -3 -26 0 -40 4 -16 15 -27
34 -31 15 -3 63 -16 107 -29 44 -13 98 -25 120 -27 39 -3 40 -2 43 30 2 18 -2
39 -8 46 -6 8 -23 16 -38 20 -15 3 -58 15 -97 26 -38 11 -89 20 -113 20z"/>
</g>
<g>
<path d="M10991 6659 c-9 -1 -43 -7 -76 -15 -33 -8 -74 -19 -91 -24 -17 -6
-46 -10 -65 -10 -19 0 -43 -6 -52 -12 -9 -7 -18 -24 -19 -38 -2 -18 4 -28 24
-37 23 -12 43 -11 130 3 57 9 120 25 140 36 24 11 40 28 44 43 4 15 1 32 -6
40 -7 8 -20 15 -29 14z"/>
</g>
<g>
<path d="M3124 6639 c-11 13 -14 13 -18 0 -2 -8 -7 -34 -11 -59 -4 -25 -7 -58
-6 -75 0 -16 6 -40 12 -52 7 -13 20 -23 30 -23 16 0 17 9 12 98 -3 61 -10 102
-19 111z"/>
</g>
<g>
<path d="M4656 6590 c-7 0 -17 -15 -21 -32 -4 -18 -9 -53 -11 -78 -2 -25 1
-62 7 -82 5 -20 14 -40 20 -44 6 -3 15 -2 20 3 6 6 10 19 10 29 0 10 -2 55 -5
99 -3 44 -6 86 -6 93 0 6 -6 12 -14 12z"/>
</g>
<g>
<path d="M11090 6560 c-10 0 -21 -8 -25 -17 -3 -10 -9 -65 -11 -123 -5 -96 -3
-108 14 -124 19 -17 20 -16 36 15 11 22 16 60 16 125 0 51 -3 99 -6 108 -3 9
-14 16 -24 16z"/>
</g>
<g>
<path d="M9268 6530 c-2 0 -9 -5 -16 -12 -7 -7 -12 -22 -12 -34 0 -13 11 -31
28 -42 15 -10 49 -31 75 -46 30 -16 57 -24 68 -21 11 4 26 0 35 -9 8 -9 22
-16 29 -16 8 0 35 -11 61 -25 36 -19 62 -25 110 -25 l64 0 0 40 c0 22 0 43 0
48 0 4 -30 10 -68 13 -38 4 -81 14 -95 24 -14 9 -56 21 -94 26 -49 7 -84 19
-125 44 -31 19 -58 35 -60 35z"/>
</g>
<g>
<path d="M10385 6466 c-5 2 -28 -4 -50 -12 -22 -8 -56 -15 -75 -15 -19 -1 -41
-6 -47 -11 -7 -6 -13 -20 -13 -32 0 -13 10 -26 28 -33 17 -8 47 -10 79 -6 36
4 59 13 73 28 14 15 20 33 18 51 -2 15 -7 29 -13 30z"/>
</g>
<g>
<path d="M8571 6460 c-5 0 -14 -6 -20 -14 -9 -10 -9 -43 0 -132 7 -74 16 -125
25 -133 7 -8 15 -13 16 -10 2 2 14 19 27 38 21 29 22 38 13 65 -6 17 -13 56
-17 86 -4 30 -13 65 -21 78 -8 12 -18 22 -23 22z"/>
</g>
<g>
<path d="M4384 6430 c-6 0 -16 -6 -22 -13 -7 -8 -9 -43 -7 -87 2 -41 7 -103
11 -137 4 -41 12 -68 24 -78 15 -14 22 -14 40 -5 19 10 21 17 16 48 -4 21 -11
64 -16 97 -5 33 -10 80 -10 106 0 25 -5 50 -12 57 -7 7 -17 12 -24 12z"/>
</g>
<g>
<path d="M9901 6200 c-5 0 -13 -6 -18 -12 -6 -7 -14 -31 -18 -53 -4 -22 -7
-49 -7 -60 1 -11 6 -78 11 -149 7 -87 15 -135 25 -144 8 -8 19 -11 25 -7 6 3
9 10 6 15 -3 4 2 11 10 14 12 4 14 16 10 48 -3 24 -10 107 -14 185 -5 78 -12
146 -15 152 -4 6 -11 11 -15 11z"/>
</g>
<g>
<path d="M3120 6180 c-6 0 -15 -12 -21 -27 -5 -15 -8 -61 -6 -102 3 -42 7 -97
9 -123 2 -25 12 -58 22 -73 9 -14 23 -24 29 -22 9 3 11 44 9 153 -3 107 -8
155 -18 172 -8 12 -19 22 -24 22z"/>
</g>
<g>
<path d="M4689 6130 c-13 0 -19 -7 -20 -22 0 -13 0 -62 0 -110 0 -53 5 -95 13
-107 7 -12 20 -20 28 -18 12 2 15 18 13 77 -1 41 -5 99 -8 128 -5 43 -10 52
-26 52z"/>
</g>
<g>
<path d="M11140 6124 c-4 4 -16 -5 -27 -20 -15 -23 -18 -48 -18 -146 0 -106 2
-119 21 -138 l21 -21 17 26 c13 20 16 38 12 64 -3 20 -9 79 -12 131 -3 52 -9
99 -14 104z"/>
</g>
<g>
<path d="M8645 5990 c-7 0 -16 -8 -19 -17 -2 -10 -8 -76 -12 -146 -6 -114 -5
-130 11 -147 10 -11 22 -20 27 -20 4 0 8 11 8 25 0 14 4 25 10 25 6 0 9 48 9
123 -1 67 -6 130 -11 140 -5 9 -15 17 -23 17z"/>
</g>
<g>
<path d="M4428 5890 c-7 0 -21 -11 -30 -25 -11 -14 -18 -42 -18 -68 0 -24 7
-67 16 -96 8 -30 17 -81 19 -115 2 -33 8 -74 14 -89 8 -21 17 -28 34 -25 19 3
22 9 22 48 -1 25 -9 81 -20 125 -10 44 -19 114 -20 155 -2 41 -3 78 -4 83 -1
4 -7 7 -13 7z"/>
</g>
<g>
<path d="M4752 5600 c-16 20 -19 20 -31 6 -9 -10 -13 -47 -13 -109 -1 -52 4
-102 9 -111 6 -10 18 -16 29 -14 17 3 19 14 22 104 2 86 0 104 -16 124z"/>
</g>
<g>
<path d="M11111 5600 c-5 0 -14 -7 -21 -15 -7 -9 -10 -26 -6 -42 3 -16 12 -86
20 -158 8 -71 20 -148 28 -169 7 -22 18 -41 24 -43 5 -2 18 13 27 32 12 24 14
42 8 53 -5 9 -12 40 -17 67 -4 28 -8 57 -9 65 -1 8 -6 52 -10 98 -5 50 -13 89
-22 98 -8 8 -18 14 -22 14z"/>
</g>
<g>
<path d="M9888 5578 c-12 2 -22 -6 -29 -25 -6 -15 -8 -41 -4 -58 3 -16 8 -82
11 -145 3 -81 9 -119 19 -129 12 -12 17 -12 30 -1 9 7 14 19 11 26 -3 7 -1 14
3 16 5 2 5 50 0 108 -5 58 -12 127 -16 155 -6 36 -13 51 -25 53z"/>
</g>
<g>
<path d="M3154 5560 c-8 0 -18 -15 -21 -32 -4 -18 -7 -35 -6 -38 0 -3 4 -54 8
-115 3 -60 8 -118 11 -127 3 -9 14 -20 26 -23 11 -4 25 -2 30 3 6 6 8 37 4 79
-3 37 -9 104 -12 148 -4 44 -11 86 -16 93 -6 6 -17 12 -24 12z"/>
</g>
<g>
<path d="M8669 5430 c-4 0 -11 -6 -16 -12 -6 -7 -15 -62 -22 -123 -6 -60 -11
-129 -11 -151 0 -27 5 -44 14 -47 8 -3 21 4 30 18 9 13 20 55 26 92 5 37 10
97 10 134 0 37 -5 70 -12 77 -7 7 -15 12 -19 12z"/>
</g>
<g>
<path d="M4454 5238 l-36 1 6 -87 c3 -48 9 -127 12 -175 6 -83 8 -89 32 -98
16 -6 29 -6 35 0 6 6 10 23 9 38 0 15 -6 69 -11 118 -6 50 -11 115 -11 146 l0
56 -36 1z"/>
</g>
<g>
<path d="M4795 5110 c-9 7 -15 6 -22 -2 -6 -7 -13 -26 -17 -42 -4 -15 -7 -73
-7 -127 0 -54 5 -108 11 -119 6 -11 19 -20 29 -20 11 0 21 9 24 22 4 12 3 80
0 150 -4 81 -11 132 -18 138z"/>
</g>
<g>
<path d="M9956 5070 c-7 0 -19 -7 -26 -15 -7 -8 -10 -27 -7 -42 3 -16 1 -66
-5 -113 -5 -47 -9 -103 -8 -125 1 -22 8 -48 17 -57 9 -10 22 -18 30 -18 7 0
13 1 14 3 1 1 3 74 5 162 3 88 2 170 -1 183 -3 12 -11 22 -19 22z"/>
</g>
<g>
<path d="M11154 5010 c-7 0 -18 -9 -24 -21 -6 -11 -12 -48 -12 -82 0 -34 3
-96 7 -137 4 -41 12 -81 17 -87 6 -7 16 -13 23 -13 6 0 18 18 25 40 10 31 11
48 2 79 -7 21 -12 72 -12 114 0 41 -3 82 -6 91 -3 9 -12 16 -20 16z"/>
</g>
<g>
<path d="M3174 4921 c-11 11 -23 16 -27 13 -4 -4 -7 -91 -7 -194 0 -182 1
-187 23 -208 13 -12 28 -22 34 -22 6 0 14 13 18 30 3 16 4 48 0 72 -3 24 -10
98 -14 166 -6 103 -11 126 -27 143z"/>
</g>
<g>
<path d="M8668 4930 c-3 0 -13 -8 -22 -19 -11 -13 -19 -46 -25 -102 -4 -46 -6
-117 -4 -157 1 -40 7 -81 13 -92 6 -11 14 -20 18 -20 4 0 15 14 24 31 15 26
17 46 12 127 -3 53 -2 120 3 148 7 37 6 56 -2 68 -7 9 -14 16 -17 16z"/>
</g>
<g>
<path d="M4654 4760 c-16 0 -24 -6 -24 -18 0 -10 6 -25 13 -33 6 -9 25 -24 41
-35 16 -10 38 -24 50 -31 19 -11 21 -22 23 -128 1 -70 7 -125 15 -142 7 -14
21 -31 31 -37 13 -8 20 -8 28 4 5 8 7 31 4 50 -3 19 -8 79 -11 134 l-7 99 34
-24 c19 -13 36 -26 39 -29 3 -3 18 -11 33 -18 16 -7 33 -10 38 -7 5 4 9 13 9
21 0 8 -7 17 -15 20 -8 4 -15 14 -15 24 0 12 -33 31 -120 70 -66 29 -125 59
-131 66 -6 8 -22 14 -35 14z"/>
</g>
<g>
<path d="M4403 4689 c-15 0 -41 -5 -58 -11 -16 -6 -57 -14 -90 -19 -33 -4 -75
-11 -93 -15 -18 -3 -35 -10 -37 -14 -3 -5 2 -25 12 -44 14 -30 22 -36 49 -36
18 0 36 -4 39 -10 4 -6 17 -2 33 9 17 12 52 21 92 24 36 3 73 9 82 12 9 4 19
13 22 21 3 8 2 22 -3 32 -5 9 -12 25 -15 35 -4 11 -15 17 -33 16z"/>
</g>
<g>
<path d="M3879 4609 c-8 0 -40 -14 -71 -30 -32 -16 -58 -34 -58 -40 0 -5 7
-23 16 -40 12 -24 20 -29 37 -24 12 4 43 21 69 38 27 18 48 39 48 47 -1 8 -7
23 -14 33 -7 9 -19 17 -27 16z"/>
</g>
<g>
<path d="M9960 4520 c-12 0 -20 -10 -24 -31 -3 -17 -2 -49 3 -72 5 -23 12 -73
16 -112 4 -38 12 -84 18 -102 6 -18 17 -35 25 -38 7 -3 18 -3 22 0 5 3 6 13 3
22 -4 11 -3 14 5 9 7 -4 12 -1 12 9 0 8 -9 55 -19 103 -11 48 -22 107 -25 133
-3 25 -8 53 -12 62 -3 9 -14 17 -24 17z"/>
</g>
<g>
<path d="M3515 4499 c-11 -1 -29 -3 -40 -6 -11 -2 -29 -8 -40 -13 -11 -5 -29
-10 -40 -12 -12 -2 -21 -12 -23 -26 -2 -13 2 -30 9 -39 11 -12 26 -14 74 -10
33 4 75 12 93 19 17 7 32 16 32 21 0 5 -5 18 -11 30 -7 12 -17 25 -23 29 -6 4
-20 7 -31 7z"/>
</g>
<g>
<path d="M11137 4500 c-8 0 -18 -7 -21 -16 -3 -9 -6 -39 -6 -69 0 -35 5 -57
15 -65 13 -11 19 -9 35 8 14 14 20 35 20 64 0 24 -7 51 -14 61 -7 9 -20 17
-29 17z"/>
</g>
<g>
<path d="M3225 4340 c-9 0 -15 -9 -15 -23 0 -12 6 -32 14 -43 8 -11 32 -33 54
-48 27 -18 50 -26 69 -24 16 2 29 10 31 20 2 10 -6 19 -20 23 -13 4 -44 27
-70 51 -26 24 -54 44 -63 44z"/>
</g>
<g>
<path d="M8644 4330 c-6 0 -17 -6 -23 -14 -9 -11 -9 -34 0 -98 7 -45 12 -102
13 -124 1 -26 8 -50 20 -63 11 -11 23 -21 28 -21 5 0 13 10 19 23 8 17 6 45
-5 106 -9 46 -16 102 -16 125 0 23 -5 47 -12 54 -7 7 -17 12 -24 12z"/>
</g>
<g>
<path d="M4835 4150 c-7 0 -16 -8 -19 -17 -3 -10 -5 -43 -5 -73 0 -30 2 -91 4
-134 3 -63 9 -84 25 -100 18 -18 21 -19 35 -5 14 13 14 26 6 80 -6 35 -11 97
-11 137 0 40 -5 82 -10 93 -6 10 -17 19 -25 19z"/>
</g>
<g>
<path d="M3523 4110 c-7 0 -13 -5 -13 -10 0 -6 9 -29 21 -51 11 -22 25 -39 32
-36 6 2 22 -6 35 -17 14 -12 31 -27 40 -35 8 -8 30 -23 48 -33 19 -10 42 -18
52 -18 10 0 23 5 30 12 7 7 12 20 12 30 0 13 -8 18 -29 18 -21 0 -48 15 -90
50 -32 27 -74 58 -93 70 -18 11 -39 20 -45 20z"/>
</g>
<g>
<path d="M11101 4060 c-4 0 -13 -7 -22 -15 -12 -13 -13 -34 -4 -150 8 -105 14
-138 27 -152 14 -14 20 -15 30 -5 9 9 13 53 13 146 0 118 -2 136 -19 155 -11
12 -22 21 -25 21z"/>
</g>
<g>
<path d="M9995 3940 c-7 0 -17 -6 -22 -12 -4 -7 -8 -83 -10 -168 -1 -85 3
-170 8 -187 7 -20 17 -33 27 -33 9 0 22 10 27 23 7 13 8 36 3 57 -4 19 -5 90
-2 157 4 81 2 128 -5 142 -7 12 -18 21 -26 21z"/>
</g>
<g>
<path d="M3998 3790 c-5 0 -8 -9 -8 -19 0 -10 8 -28 18 -39 9 -11 38 -31 63
-45 25 -14 56 -31 70 -38 13 -8 35 -22 48 -31 13 -10 30 -18 37 -18 8 0 14 8
14 19 0 11 -28 41 -69 75 -39 31 -74 56 -78 56 -4 1 -26 9 -48 20 -22 11 -43
19 -47 20z"/>
</g>
<g>
<path d="M8641 3770 c-5 0 -14 -7 -21 -15 -10 -12 -11 -44 -6 -131 3 -63 12
-132 18 -154 7 -22 19 -42 28 -45 8 -4 20 2 27 11 7 10 13 29 13 43 0 14 -4
42 -10 61 -5 19 -11 69 -13 111 -3 41 -10 85 -16 97 -6 12 -15 22 -20 22z"/>
</g>
<g>
<path d="M4866 3673 c-7 3 -19 0 -25 -6 -6 -6 -11 -27 -11 -46 0 -20 7 -70 16
-111 8 -41 17 -93 18 -116 3 -37 1 -40 -19 -36 -14 2 -24 -2 -29 -13 -4 -11 4
-27 24 -47 17 -16 30 -33 30 -38 0 -4 14 -13 30 -20 27 -11 36 -10 73 7 23 11
55 26 70 32 15 6 30 18 33 26 4 9 -4 23 -17 35 -17 14 -33 18 -54 14 -16 -3
-37 -8 -46 -10 -14 -4 -19 10 -29 78 -6 46 -18 107 -25 137 -8 30 -12 58 -9
63 3 4 0 16 -5 27 -6 10 -17 21 -25 24z"/>
</g>
<g>
<path d="M11077 3544 c-12 16 -14 16 -26 -8 -12 -22 -12 -44 3 -151 9 -68 21
-135 27 -149 6 -13 22 -30 35 -37 19 -10 27 -10 36 -1 10 10 8 28 -6 83 -10
39 -20 106 -23 150 -4 57 -10 79 -19 79 -8 0 -14 4 -14 8 0 5 -6 16 -13 26z"/>
</g>
<g>
<path d="M4453 3440 c-6 0 -14 -8 -18 -19 -3 -10 -3 -25 1 -34 3 -9 19 -20 36
-26 17 -6 37 -11 45 -11 8 0 31 -11 51 -25 20 -14 45 -25 54 -25 10 0 27 -5
38 -12 10 -7 23 -9 27 -5 4 5 3 16 -3 25 -6 9 -58 43 -115 74 -57 32 -109 57
-116 58z"/>
</g>
<g>
<path d="M9951 3268 c-24 4 -24 3 -15 -50 4 -29 8 -94 9 -145 0 -74 3 -95 18
-110 14 -14 21 -15 35 -7 15 10 17 25 13 115 -2 63 -10 122 -20 149 -12 34
-23 46 -40 48z"/>
</g>
<g>
<path d="M8630 3190 c-11 0 -20 -3 -21 -7 -1 -5 -1 -61 0 -127 0 -73 5 -124
12 -132 6 -8 20 -14 30 -14 12 0 21 10 25 26 4 14 3 69 0 122 -4 53 -12 104
-17 114 -5 10 -19 18 -29 18z"/>
</g>
<g>
<path d="M1295 3039 c-33 0 -67 -4 -75 -9 -8 -5 -38 -19 -66 -30 -44 -18 -55
-29 -87 -85 -20 -35 -37 -70 -37 -78 0 -7 5 -18 11 -24 6 -6 12 -37 13 -69 2
-33 8 -60 14 -62 7 -2 12 -11 12 -21 0 -9 14 -31 31 -49 16 -17 47 -36 67 -43
20 -6 42 -15 47 -20 6 -4 38 -10 71 -12 34 -2 67 -7 73 -11 6 -4 11 -25 11
-47 0 -21 -3 -39 -6 -39 -3 0 -18 7 -34 16 -18 11 -37 14 -55 10 -23 -6 -26
-11 -22 -34 3 -14 -2 -45 -10 -67 -8 -22 -19 -51 -25 -65 -6 -14 -15 -34 -21
-45 -6 -11 -14 -36 -18 -55 -4 -19 -17 -78 -29 -130 -11 -52 -23 -108 -26
-125 -3 -18 0 -38 8 -48 8 -11 20 -16 30 -12 10 4 23 29 31 58 8 29 18 74 21
100 3 27 10 56 16 65 7 12 10 -1 10 -48 0 -36 2 -103 4 -150 3 -47 5 -152 6
-235 0 -82 5 -208 11 -280 7 -82 15 -135 24 -144 9 -9 39 -14 88 -14 50 -1 80
3 91 12 11 9 16 26 14 45 l-3 31 -68 1 c-38 1 -71 5 -75 8 -3 4 -8 122 -10
262 l-5 256 23 -7 c13 -4 45 -20 72 -36 27 -16 55 -29 62 -29 8 0 19 -7 26
-15 7 -8 19 -15 26 -15 8 0 16 -10 18 -22 3 -13 7 -57 11 -98 3 -41 8 -95 11
-120 2 -25 6 -54 9 -65 2 -11 7 -94 10 -185 6 -134 10 -167 23 -177 9 -7 33
-13 54 -13 21 0 46 4 56 9 9 5 28 13 42 19 14 5 48 19 75 29 45 17 50 23 53
53 2 18 -2 36 -9 40 -7 5 -30 2 -52 -6 -22 -8 -54 -22 -71 -32 -17 -11 -47
-18 -66 -18 l-35 1 -6 120 c-4 66 -14 181 -22 255 -10 86 -15 227 -15 390 0
176 2 243 9 215 5 -22 15 -62 23 -90 7 -27 18 -72 24 -100 6 -27 18 -89 28
-137 10 -52 24 -94 34 -103 16 -15 19 -14 38 10 20 26 20 26 1 93 -11 37 -26
96 -34 132 -8 36 -15 75 -15 86 0 12 -7 46 -16 75 -9 30 -22 68 -29 84 -6 17
-18 46 -25 65 -8 19 -21 48 -30 64 -12 22 -35 37 -95 61 -70 28 -81 35 -86 61
-4 16 -7 44 -8 61 -1 28 5 37 42 59 23 15 45 32 49 38 3 6 16 22 27 35 12 13
21 36 21 52 0 20 11 37 42 62 39 32 42 38 33 63 -7 17 -28 37 -59 54 -27 14
-53 35 -57 47 -4 12 -32 40 -62 63 -30 22 -70 45 -88 50 -19 6 -61 10 -94 9z
m1 -94 c34 -1 74 -9 90 -17 24 -11 29 -20 29 -48 0 -19 4 -41 8 -47 5 -7 19
-13 32 -13 12 0 26 8 30 18 7 16 8 15 15 -3 5 -11 9 -37 9 -58 1 -21 -7 -50
-17 -65 -10 -15 -23 -36 -28 -47 -6 -11 -26 -25 -45 -32 -19 -7 -55 -12 -80
-12 -26 -1 -76 8 -111 19 -36 11 -72 28 -80 37 -9 10 -21 35 -26 56 -8 29 -7
50 5 90 8 29 27 65 41 81 15 15 36 32 47 36 11 4 48 6 81 5z m62 -581 c15 -4
37 -13 49 -20 12 -8 29 -14 38 -14 9 0 27 -7 40 -16 13 -9 28 -13 32 -11 5 3
16 0 25 -7 14 -10 18 -34 20 -137 1 -68 -1 -130 -6 -137 -4 -8 -5 -47 -1 -88
6 -69 5 -74 -13 -74 -11 0 -46 12 -78 26 -33 14 -66 31 -74 39 -8 7 -27 15
-42 19 l-28 6 -2 163 c0 89 0 173 1 187 1 14 4 35 6 48 5 19 10 21 33 16z"/>
</g>
<g>
<path d="M11103 2970 c-8 0 -13 -13 -13 -32 0 -18 -12 -87 -25 -152 -14 -66
-23 -132 -20 -147 4 -15 12 -33 20 -39 11 -9 17 -6 29 12 8 13 17 55 19 93 3
39 12 96 21 129 15 55 15 61 -1 97 -10 21 -24 39 -30 39z"/>
</g>
<g>
<path d="M8645 2800 c-8 0 -15 -1 -16 -2 -1 -2 -3 -19 -4 -38 -2 -19 -6 -71
-9 -115 -4 -60 -1 -86 10 -102 8 -13 23 -23 33 -23 10 0 22 8 25 17 4 9 4 62
0 117 -4 56 -11 111 -15 124 -5 12 -15 22 -24 22z"/>
</g>
<g>
<path d="M9948 2710 c-4 0 -12 -10 -19 -21 -6 -12 -9 -33 -6 -48 3 -14 12 -53
21 -85 13 -45 15 -80 10 -145 -6 -75 -4 -89 12 -108 14 -17 25 -21 43 -16 l24
6 -7 129 c-3 71 -14 160 -23 196 -9 37 -24 72 -32 79 -9 7 -19 13 -23 13z"/>
</g>
<g>
<path d="M8721 2320 c-20 0 -34 -6 -38 -17 -3 -9 0 -28 8 -42 10 -17 35 -33
79 -49 36 -13 81 -32 100 -42 20 -10 59 -22 88 -26 32 -4 52 -3 52 3 0 6 -5
24 -11 41 -9 26 -19 34 -52 43 -23 5 -57 15 -75 21 -19 5 -53 23 -77 39 -25
17 -56 29 -74 29z"/>
</g>
<g>
<path d="M11121 2294 c-5 3 -14 -1 -21 -9 -9 -10 -13 -57 -14 -144 -1 -95 2
-132 13 -145 10 -12 17 -14 27 -5 9 7 14 34 15 73 0 33 4 85 8 114 6 39 4 55
-6 63 -7 7 -13 20 -13 30 0 10 -4 20 -9 23z"/>
</g>
<g>
<path d="M8443 2247 c-6 2 -14 -1 -18 -7 -3 -6 -11 -8 -16 -4 -6 3 -23 0 -40
-6 -16 -7 -29 -16 -29 -20 0 -5 -14 -16 -32 -24 -17 -9 -44 -16 -59 -16 -22 0
-29 -5 -34 -30 -4 -20 -2 -37 6 -46 9 -11 23 -14 44 -11 17 3 49 17 70 31 21
14 52 26 69 26 17 0 37 4 44 9 9 5 12 23 10 51 -2 24 -8 45 -15 47z"/>
</g>
<g>
<path d="M9140 2140 c-9 0 -20 -3 -23 -7 -4 -3 -7 -16 -7 -28 0 -13 7 -29 16
-36 9 -8 42 -22 73 -31 31 -10 64 -18 74 -18 11 0 32 -8 48 -17 15 -9 31 -14
34 -11 4 3 1 24 -4 46 -9 30 -19 44 -45 56 -19 9 -44 16 -55 16 -12 0 -38 7
-58 15 -19 8 -43 15 -53 15z"/>
</g>
<g>
<path d="M8007 2040 c-7 0 -21 -6 -32 -14 -11 -7 -31 -17 -45 -21 -14 -4 -37
-12 -52 -18 -16 -7 -32 -24 -38 -41 -5 -16 -10 -37 -10 -47 0 -9 6 -19 13 -22
6 -2 47 13 89 34 43 22 87 39 98 39 15 0 20 7 20 29 0 16 -7 37 -16 45 -8 9
-21 16 -27 16z"/>
</g>
<g>
<path d="M9970 1990 c-15 8 -21 6 -30 -9 -5 -11 -10 -64 -10 -119 0 -55 3
-114 6 -131 4 -17 15 -36 26 -42 10 -6 28 -7 39 -4 18 6 20 12 14 39 -4 17 -9
77 -11 133 -1 56 -5 107 -9 113 -3 5 -15 14 -25 20z"/>
</g>
<g>
<path d="M9533 1985 c-19 5 -23 2 -23 -16 0 -13 17 -39 43 -63 30 -29 61 -46
103 -58 32 -10 77 -19 99 -20 39 -3 40 -2 38 27 -1 17 -12 38 -24 48 -12 9
-38 17 -58 17 -20 0 -52 6 -71 13 -19 7 -46 20 -60 29 -14 9 -35 19 -47 23z"/>
</g>
<g>
<path d="M10114 1820 c-9 0 -14 -11 -14 -27 0 -16 7 -36 14 -45 7 -10 57 -40
111 -68 54 -27 103 -54 109 -60 5 -5 21 -10 34 -10 21 0 23 4 18 25 -3 13 -10
35 -15 48 -6 15 -20 26 -39 30 -16 3 -69 29 -117 56 -48 28 -94 51 -101 51z"/>
</g>
<g>
<path d="M7760 1784 c-14 2 -31 2 -37 0 -7 -3 -13 -15 -13 -26 0 -11 24 -43
54 -71 29 -29 73 -66 97 -83 24 -17 52 -34 62 -37 10 -4 29 0 43 9 14 9 24 26
24 39 0 16 -10 27 -34 39 -19 9 -37 16 -41 16 -3 0 -23 12 -43 27 -20 14 -48
39 -62 54 -14 15 -36 30 -50 33z"/>
</g>
<g>
<path d="M11162 1780 c-5 0 -15 -7 -22 -15 -8 -10 -9 -28 -4 -57 4 -24 9 -52
11 -63 2 -11 4 -29 4 -40 0 -11 -3 -38 -7 -60 -5 -33 -2 -44 15 -59 12 -11 27
-16 37 -12 15 6 16 20 12 119 -3 69 -11 126 -21 150 -9 20 -20 37 -25 37z"/>
</g>
<g>
<path d="M10625 1598 c-5 0 -18 -2 -27 -5 -11 -3 -18 -14 -18 -27 0 -12 10
-32 23 -44 13 -12 27 -22 33 -22 5 0 25 -5 45 -10 19 -6 55 -28 80 -50 24 -22
47 -40 51 -40 4 0 14 7 22 16 9 8 16 23 16 32 0 9 -4 22 -8 28 -4 6 -38 28
-75 50 -38 21 -83 47 -100 56 -18 9 -36 17 -42 16z"/>
</g>
<g>
<path d="M8255 1500 c-6 0 -15 -3 -18 -7 -4 -3 -7 -16 -7 -29 0 -13 15 -35 35
-53 20 -17 42 -31 49 -31 7 0 21 -10 32 -22 10 -11 39 -34 63 -50 26 -16 59
-28 78 -28 18 0 33 2 33 4 0 2 -6 19 -14 37 -10 24 -27 40 -55 53 -23 10 -74
42 -113 72 -39 30 -77 54 -83 54z"/>
</g>
<g>
<path d="M9969 1378 l-25 3 -3 -147 c-2 -119 1 -150 14 -170 8 -13 24 -24 35
-24 10 0 22 6 26 12 5 7 7 71 5 143 -1 73 -8 141 -14 155 -8 15 -22 26 -38 28z"/>
</g>
<g>
<path d="M11038 1367 c-20 4 -29 1 -33 -11 -3 -9 -7 -23 -10 -31 -3 -10 7 -23
26 -34 17 -10 58 -24 91 -31 33 -6 62 -9 65 -6 3 3 1 22 -4 43 -8 35 -13 39
-58 51 -28 8 -62 16 -77 19z"/>
</g>
<g>
<path d="M8801 1290 c-11 0 -23 -5 -26 -11 -4 -5 5 -27 19 -48 15 -20 39 -47
54 -58 15 -11 43 -24 62 -28 19 -4 46 -15 60 -25 14 -10 41 -21 60 -25 19 -4
41 -12 47 -17 7 -6 20 -8 28 -4 8 3 15 14 15 25 0 11 -10 31 -22 44 -13 14
-57 37 -98 51 -41 15 -99 39 -127 54 -29 14 -53 30 -53 34 0 4 -9 8 -19 8z"/>
</g>
<g>
<path d="M10933 1089 c-15 0 -35 -3 -43 -6 -8 -2 -31 -11 -50 -20 -19 -8 -48
-20 -65 -28 -16 -7 -42 -18 -56 -23 -22 -9 -25 -15 -21 -46 2 -20 8 -39 13
-42 5 -3 26 0 47 6 20 7 56 20 79 31 24 10 47 19 52 19 5 0 25 10 45 23 19 12
37 27 39 32 2 6 1 20 -4 33 -6 16 -16 22 -36 21z"/>
</g>
<g>
<path d="M9255 1070 c-9 0 -18 -7 -21 -14 -3 -8 3 -26 13 -40 10 -14 38 -36
63 -48 25 -12 66 -37 91 -55 26 -18 67 -42 91 -53 25 -11 50 -26 57 -33 6 -8
22 -12 36 -9 16 3 25 11 25 22 0 10 -3 26 -6 35 -4 9 -29 27 -56 41 -27 13
-72 40 -101 58 -29 18 -80 47 -114 65 -34 17 -69 31 -78 31z"/>
</g>
<g>
<path d="M10417 900 c-7 -1 -28 -14 -47 -31 -19 -17 -52 -39 -72 -50 -21 -10
-44 -19 -53 -19 -8 0 -15 -8 -15 -19 0 -10 5 -32 11 -50 6 -17 16 -31 23 -31
6 0 29 9 51 21 22 12 51 32 66 45 14 13 32 24 40 24 8 0 20 5 27 12 7 7 12 29
12 49 0 24 -5 39 -16 43 -9 3 -21 6 -27 6z"/>
</g>
<g>
<path d="M9988 880 c-16 0 -18 -9 -18 -70 l0 -70 -42 17 c-24 9 -52 22 -63 30
-11 7 -27 13 -37 13 -9 0 -19 -4 -23 -9 -3 -5 7 -22 22 -38 16 -16 44 -40 63
-54 19 -14 56 -33 81 -42 25 -10 54 -15 63 -11 16 6 17 19 14 99 -2 74 -7 97
-22 114 -11 12 -27 21 -38 21z"/>
</g>
</g>
</svg>
